<svg width="23" height="28" viewBox="0 0 23 28" fill="none" xmlns="http://www.w3.org/2000/svg">
<path d="M16.654 27.0119H1.64776C1.38583 27.0119 1.13463 26.9078 0.949419 26.7226C0.764207 26.5374 0.660156 26.2862 0.660156 26.0243V6.86016C0.660156 6.59823 0.764207 6.34703 0.949419 6.16182C1.13463 5.97661 1.38583 5.87256 1.64776 5.87256H16.654C16.916 5.87256 17.1672 5.97661 17.3524 6.16182C17.5376 6.34703 17.6416 6.59823 17.6416 6.86016V26.0243C17.6416 26.2862 17.5376 26.5374 17.3524 26.7226C17.1672 26.9078 16.916 27.0119 16.654 27.0119ZM2.63536 25.0367H15.6664V7.84776H2.63536V25.0367Z" fill="white"/>
<path d="M21.9817 21.6842H16.6532C16.3913 21.6842 16.1401 21.5802 15.9549 21.395C15.7697 21.2097 15.6656 20.9585 15.6656 20.6966C15.6656 20.4347 15.7697 20.1835 15.9549 19.9983C16.1401 19.8131 16.3913 19.709 16.6532 19.709H20.9941V2.52013H7.963V6.86031C7.963 7.12224 7.85895 7.37344 7.67374 7.55865C7.48852 7.74386 7.23732 7.84791 6.9754 7.84791C6.71347 7.84791 6.46227 7.74386 6.27705 7.55865C6.09184 7.37344 5.98779 7.12224 5.98779 6.86031V1.53252C5.98779 1.2706 6.09184 1.0194 6.27705 0.834184C6.46227 0.648973 6.71347 0.544922 6.9754 0.544922H21.9817C22.2436 0.544922 22.4948 0.648973 22.68 0.834184C22.8652 1.0194 22.9693 1.2706 22.9693 1.53252V20.6966C22.9693 20.9585 22.8652 21.2097 22.68 21.395C22.4948 21.5802 22.2436 21.6842 21.9817 21.6842Z" fill="white"/>
</svg>
