<svg width="4" height="15" viewBox="0 0 4 15" fill="none" xmlns="http://www.w3.org/2000/svg">
<path d="M1.7846 3.57143C0.798375 3.57143 -0.00111592 2.77194 -0.00111588 1.78571C-0.00111583 0.799491 0.798376 -1.21165e-07 1.7846 -7.8056e-08C2.77082 -3.49469e-08 3.57031 0.799492 3.57031 1.78571C3.57031 2.77194 2.77082 3.57143 1.7846 3.57143Z" fill="#E1E1E1"/>
<path d="M1.7846 9.28571C0.798375 9.28571 -0.00111617 8.48622 -0.00111613 7.5C-0.00111608 6.51378 0.798375 5.71429 1.7846 5.71429C2.77082 5.71429 3.57031 6.51378 3.57031 7.5C3.57031 8.48622 2.77082 9.28571 1.7846 9.28571Z" fill="#E1E1E1"/>
<path d="M1.7846 15C0.798375 15 -0.00111642 14.2005 -0.00111638 13.2143C-0.00111633 12.2281 0.798375 11.4286 1.7846 11.4286C2.77082 11.4286 3.57031 12.2281 3.57031 13.2143C3.57031 14.2005 2.77082 15 1.7846 15Z" fill="#E1E1E1"/>
</svg>
