<svg width="26" height="26" viewBox="0 0 26 26" fill="none" xmlns="http://www.w3.org/2000/svg">
<path fill-rule="evenodd" clip-rule="evenodd" d="M12.7387 25.4814C19.7752 25.4814 25.4795 19.7772 25.4795 12.7407C25.4795 5.70421 19.7752 0 12.7387 0C5.70225 0 -0.00195312 5.70421 -0.00195312 12.7407C-0.00195312 19.7772 5.70225 25.4814 12.7387 25.4814ZM13.1431 18.9114V20.3851H12.3522V18.9148C11.4989 18.8862 10.7466 18.7528 10.0951 18.5148C9.36048 18.2384 8.78287 17.8385 8.36226 17.315C7.94164 16.7916 7.70467 16.1593 7.65135 15.4182L7.64247 15.2947H10.4505L10.4683 15.3741C10.5275 15.6329 10.646 15.8564 10.8238 16.0446C11.0074 16.2328 11.2621 16.3769 11.588 16.4769C11.8086 16.5434 12.0634 16.5878 12.3522 16.6101V14.0218L11.4369 13.8391C10.6194 13.6803 9.93513 13.445 9.38418 13.1333C8.83915 12.8157 8.43039 12.4216 8.15787 11.9511C7.89128 11.4747 7.75799 10.913 7.75799 10.2661V10.2484C7.75799 9.50737 7.95941 8.86041 8.36226 8.30756C8.77103 7.74882 9.34271 7.31947 10.0773 7.01952C10.7394 6.74388 11.4977 6.59246 12.3522 6.56524V5.09628H13.1431V6.57303C13.9253 6.61189 14.6125 6.74308 15.2047 6.96658C15.9274 7.23713 16.4932 7.63413 16.902 8.15758C17.3167 8.68103 17.5596 9.31917 17.6306 10.072L17.6395 10.2396H14.8315L14.8137 10.1602C14.7604 9.86614 14.6419 9.625 14.4582 9.43679C14.2805 9.24271 14.0406 9.09861 13.7385 9.00451C13.5622 8.94617 13.3637 8.90485 13.1431 8.88055V11.4275L14.0672 11.6071C15.3528 11.86 16.3007 12.2628 16.9109 12.8157C17.527 13.3685 17.835 14.1273 17.835 15.0918V15.1095C17.835 15.9093 17.6218 16.5945 17.1952 17.165C16.7746 17.7296 16.1792 18.1649 15.4091 18.4707C14.7494 18.7276 13.994 18.8745 13.1431 18.9114ZM13.1431 14.1795V16.6182C13.4608 16.6007 13.7334 16.5565 13.9606 16.4857C14.2627 16.3857 14.4879 16.2475 14.636 16.0711C14.7841 15.8946 14.8581 15.6829 14.8581 15.4359V15.4271C14.8581 15.0977 14.7278 14.8389 14.4671 14.6507C14.2266 14.4674 13.7852 14.3103 13.1431 14.1795ZM12.3522 8.86276C12.0545 8.88069 11.7968 8.92794 11.5791 9.00451C11.3007 9.09861 11.0903 9.23094 10.9482 9.40151C10.806 9.57207 10.7349 9.77204 10.7349 10.0014V10.0102C10.7349 10.222 10.7912 10.4102 10.9037 10.5749C11.0163 10.7337 11.197 10.8719 11.4458 10.9895C11.6782 11.0939 11.9803 11.188 12.3522 11.2718V8.86276Z" fill="#707579"/>
</svg>
