<svg width="26" height="23" viewBox="0 0 26 23" xmlns="http://www.w3.org/2000/svg">
<path d="M24.3226 6.10216C24.3226 7.25104 23.866 8.35287 23.0525 9.16525C22.2391 9.97763 21.1357 10.434 19.9853 10.434C19.3887 10.4338 18.7986 10.3124 18.2505 10.0773C19.0948 8.91029 19.542 7.50355 19.5262 6.06391C19.5275 4.64613 19.0811 3.26408 18.2505 2.11432C18.7879 1.88924 19.3646 1.77231 19.9473 1.77029C20.5201 1.76525 21.0879 1.87361 21.6186 2.08905C22.1492 2.30448 22.632 2.62272 23.0388 3.02547C23.4457 3.42822 23.7684 3.90748 23.9888 4.43555C24.2091 4.96362 24.3227 5.53007 24.3226 6.10216Z" />
<path d="M7.18879 10.1411C6.65913 10.3608 6.09103 10.4734 5.51752 10.4723C4.36715 10.4723 3.26373 10.0159 2.45029 9.20357C1.63686 8.39119 1.18018 7.28943 1.18018 6.14056C1.18354 4.99271 1.64133 3.89277 2.45403 3.08112C3.26674 2.26947 4.36818 1.81205 5.51752 1.80869C6.07721 1.80958 6.63127 1.91771 7.15017 2.1272C6.31443 3.28402 5.86776 4.67582 5.87445 6.1023C5.87064 7.55396 6.33134 8.9689 7.18879 10.1411Z" />
<path fill-rule="evenodd" clip-rule="evenodd" d="M20.8012 19.1358H24.1692C24.3646 19.141 24.5585 19.1014 24.7361 19.0199C24.9137 18.9384 25.07 18.8174 25.1933 18.6659C25.3166 18.5145 25.4032 18.3368 25.4468 18.1465C25.4904 17.9563 25.49 17.7586 25.445 17.5687C24.9092 15.441 23.4927 11.9118 19.959 11.9118C18.8254 11.9027 17.7289 12.316 16.8843 13.0712C18.8866 14.5481 20.2799 16.7049 20.8012 19.1358Z" />
<path fill-rule="evenodd" clip-rule="evenodd" d="M8.59229 13.0713C7.74896 12.314 6.65225 11.9003 5.51822 11.9119C1.98446 11.9119 0.568028 15.4411 0.0322239 17.5688C-0.0127926 17.7587 -0.01326 17.9564 0.0303551 18.1466C0.0739702 18.3369 0.160606 18.5146 0.283881 18.666C0.407155 18.8174 0.563524 18.9385 0.741098 19.02C0.918673 19.1015 1.1126 19.1411 1.30795 19.1359H4.67604C5.1973 16.705 6.58994 14.5482 8.59229 13.0713Z" />
<path d="M12.7262 13.3649C18.0842 13.3649 19.4746 18.1299 19.8318 20.5889C19.8555 20.7695 19.8403 20.9532 19.7869 21.1274C19.7335 21.3017 19.6431 21.4625 19.5222 21.5989C19.4013 21.7354 19.2528 21.8443 19.0861 21.9184C18.9195 21.9926 18.7385 22.0301 18.556 22.0286H6.99788C6.81544 22.0301 6.63508 21.9926 6.46841 21.9184C6.30173 21.8443 6.15266 21.7354 6.03175 21.5989C5.91083 21.4625 5.82103 21.3017 5.76763 21.1274C5.71423 20.9532 5.69843 20.7695 5.72216 20.5889C6.00282 18.1299 7.39366 13.3649 12.7262 13.3649Z" />
<path d="M18.4547 6.10247C18.4513 7.62201 17.845 9.07836 16.7691 10.1528C15.6932 11.2273 14.2354 11.8324 12.7139 11.8358C11.1914 11.8358 9.731 11.2318 8.6544 10.1566C7.5778 9.08136 6.97316 7.62304 6.97316 6.10247C6.97148 5.34909 7.1188 4.6028 7.40671 3.90644C7.69461 3.21009 8.11725 2.57736 8.65066 2.04464C9.18408 1.51192 9.81778 1.08967 10.515 0.80214C11.2123 0.514609 11.9596 0.367475 12.7139 0.369155C14.2365 0.369155 15.6962 0.973165 16.7728 2.04837C17.8494 3.12358 18.4547 4.5819 18.4547 6.10247Z" />
</svg>
