<svg width="26" height="25" viewBox="0 0 26 25" xmlns="http://www.w3.org/2000/svg">
<path d="M11.6427 24.3028C9.4049 24.2377 7.19032 24.0701 5.06819 23.3365C4.28607 23.0618 3.53106 22.7185 2.81244 22.3109C1.10841 21.3563 0.339015 19.814 0.0938776 17.9734C-0.0808795 16.665 -0.00214931 15.3636 0.213166 14.0669C0.216626 14.0089 0.230133 13.9518 0.253123 13.8982C0.288313 13.84 0.350334 13.7435 0.393874 13.747C0.434168 13.7526 0.472675 13.7669 0.50661 13.7889C0.540545 13.8108 0.569062 13.8398 0.590106 13.8738C1.42512 15.7744 3.10231 16.5225 5.00377 16.9425C6.60461 17.2956 8.23946 17.2962 9.86715 17.241C10.7755 17.2101 11.6803 17.0664 12.5851 16.9646C12.8941 16.9291 13.0861 17.0356 13.1589 17.3643C13.4392 18.6395 14.1442 21.4511 14.2218 21.5802C14.2814 21.4412 14.6709 18.3288 14.8039 16.9111C14.8283 16.7286 14.842 16.5448 14.845 16.3608C14.8289 15.6854 15.1814 15.1269 15.4039 14.5195C15.9264 13.0931 16.3731 11.6404 16.8509 10.1983C17.2087 9.11157 17.5958 8.03533 18.2227 7.06032C18.6128 6.45471 19.0678 5.90031 19.7454 5.58616C20.0479 5.44452 20.372 5.35197 20.7051 5.31216C21.5836 5.21791 22.0447 5.63096 22.099 6.49544C22.1652 7.53677 21.9135 8.53156 21.6474 9.52578C21.385 10.5066 21.0379 11.4712 20.8506 12.4648C20.643 13.598 20.5058 14.7425 20.4397 15.8919C20.3341 17.5941 20.3138 19.3009 20.2512 21.0055C20.247 21.2784 20.1795 21.547 20.0539 21.791C19.9283 22.0349 19.7478 22.2481 19.5259 22.4145C18.3962 23.2824 16.867 24.1318 11.6427 24.3028Z" />
<path d="M17.6838 3.13954C17.8991 3.17445 19.9437 3.32047 20.2121 3.36352C20.0994 3.47638 15.5134 5.91333 15.0619 10.252C14.9247 10.8745 14.778 11.4981 14.5847 12.1055C13.9823 14.002 12.6033 15.0247 10.6434 15.3773C9.30086 15.6187 7.94932 15.582 6.60435 15.4529C5.73654 15.3755 4.87661 15.2294 4.03309 15.016C2.29804 14.5622 1.28946 13.4307 1.12425 11.6738C0.945314 9.73311 1.17018 7.83776 2.11912 6.08902C3.312 3.89408 5.19735 2.63516 7.72566 2.35651C8.42469 2.27972 9.50484 2.40188 10.047 2.4618C10.2373 2.48275 10.3548 2.41468 10.48 2.28204C11.315 1.40302 12.2556 0.668266 13.4396 0.294782C14.6593 -0.0903372 15.8188 0.088262 16.8733 0.787526C17.7375 1.35997 17.9755 2.09937 17.6838 3.13954ZM6.36458 9.96697C5.59219 9.95475 5.09119 10.0798 4.64207 10.3771C3.79333 10.9385 3.67822 11.9199 4.37307 12.6506C5.24387 13.5674 6.95745 13.7024 7.96663 12.9339C8.64418 12.4185 8.76883 11.5691 8.24456 10.9036C8.02109 10.6222 7.73674 10.3924 7.41179 10.2305C7.08683 10.0686 6.72927 9.97865 6.36458 9.96697ZM13.0859 2.73406L15.9601 2.99876C16.2583 2.31695 16.0394 1.81839 15.3684 1.58859C14.4648 1.2791 13.4843 1.76021 13.0853 2.73406H13.0859Z" />
<path d="M21.8005 21.8637C21.8005 20.9201 21.7951 19.9817 21.8076 19.044C21.8076 18.9433 21.9054 18.8398 21.9686 18.7438C22.4124 18.0689 22.9021 17.4145 23.1138 16.6245C23.378 15.6355 23.2015 14.6634 22.9695 13.6971C22.8957 13.3665 22.798 13.0415 22.6772 12.7244C22.5579 12.4225 22.5579 12.1479 22.6426 11.8343C22.9617 10.6295 23.5796 8.13905 23.6268 8.03375C23.9047 8.95583 24.2047 9.80402 24.4123 10.6732C24.7773 12.1962 25.1626 13.7209 25.4012 15.2655C25.8115 17.9223 24.5793 20.5047 21.983 21.7904C21.915 21.8242 21.8416 21.8468 21.8005 21.8637Z" />
</svg>
