<?xml version="1.0" encoding="UTF-8"?>
<svg id="Layer_1" xmlns="http://www.w3.org/2000/svg" xmlns:xlink="http://www.w3.org/1999/xlink" version="1.1" viewBox="0 0 1180 2088">
	<!-- Generator: Adobe Illustrator 29.0.1, SVG Export Plug-In . SVG Version: 2.1.0 Build 192)  -->
	<defs>
		<style>
			.st0 {
			fill: url(#linear-gradient2);
			}

			.st1 {
			fill: url(#linear-gradient1);
			}

			.st2 {
			fill: url(#linear-gradient9);
			}

			.st3 {
			fill: url(#linear-gradient3);
			}

			.st4 {
			fill: url(#linear-gradient6);
			}

			.st5 {
			fill: url(#linear-gradient8);
			}

			.st6 {
			fill: url(#linear-gradient7);
			}

			.st7 {
			fill: url(#linear-gradient5);
			}

			.st8 {
			fill: url(#linear-gradient4);
			}

			.st9 {
			fill: #fbe7d1;
			}

			.st10 {
			fill: url(#linear-gradient10);
			}

			.st11 {
			fill: #002b65;
			}

			.st12 {
			fill: #dbdbdb;
			}

			.st13 {
			fill: url(#linear-gradient);
			}

			.st14 {
			fill: #ca0020;
			}

			.st15 {
			fill: #6f3200;
			}

			.st16 {
			fill: #e90000;
			}

			.st17 {
			fill: #005688;
			}

			.st18 {
			fill: #ff4634;
			}

			.st19 {
			fill: #ff1d46;
			}

			.st20 {
			fill: #fff;
			}

			.st21 {
			fill: #00c0f9;
			}

			.st22 {
			fill: #cfbbb6;
			}

			.st23 {
			fill: #fdf1e5;
			}
		</style>
		<linearGradient id="linear-gradient" x1="475.33" y1="655.26" x2="402.94" y2="247.93" gradientTransform="translate(0 2088) scale(1 -1)" gradientUnits="userSpaceOnUse">
			<stop offset="0" stop-color="#000" stop-opacity=".7"/>
			<stop offset=".07" stop-color="#030200" stop-opacity=".7"/>
			<stop offset=".15" stop-color="#0f0901" stop-opacity=".72"/>
			<stop offset=".22" stop-color="#221504" stop-opacity=".74"/>
			<stop offset=".28" stop-color="#3d2607" stop-opacity=".78"/>
			<stop offset=".35" stop-color="#603b0b" stop-opacity=".82"/>
			<stop offset=".42" stop-color="#8b5610" stop-opacity=".87"/>
			<stop offset=".49" stop-color="#bd7416" stop-opacity=".93"/>
			<stop offset=".55" stop-color="#f6981d"/>
			<stop offset=".76" stop-color="#d2bd0e"/>
			<stop offset="1" stop-color="#aee300"/>
		</linearGradient>
		<linearGradient id="linear-gradient1" x1="1088.17" y1="538.86" x2="958.57" y2="746.98" gradientTransform="translate(0 2088) scale(1 -1)" gradientUnits="userSpaceOnUse">
			<stop offset="0" stop-color="#ff9513"/>
			<stop offset=".23" stop-color="#fd9911"/>
			<stop offset=".49" stop-color="#f8a70d"/>
			<stop offset=".77" stop-color="#f1bd07"/>
			<stop offset="1" stop-color="#e9d700"/>
		</linearGradient>
		<linearGradient id="linear-gradient2" x1="284.16" y1="780.06" x2="127.25" y2="327.68" gradientTransform="translate(0 2088) scale(1 -1)" gradientUnits="userSpaceOnUse">
			<stop offset="0" stop-color="#000" stop-opacity=".7"/>
			<stop offset=".07" stop-color="#050300" stop-opacity=".71"/>
			<stop offset=".14" stop-color="#130c02" stop-opacity=".72"/>
			<stop offset=".23" stop-color="#2b1a05" stop-opacity=".75"/>
			<stop offset=".32" stop-color="#4d2f09" stop-opacity=".79"/>
			<stop offset=".41" stop-color="#784a0e" stop-opacity=".85"/>
			<stop offset=".51" stop-color="#ad6b14" stop-opacity=".91"/>
			<stop offset=".6" stop-color="#ea901b" stop-opacity=".99"/>
			<stop offset=".62" stop-color="#f6981d"/>
			<stop offset=".64" stop-color="#e6a716"/>
			<stop offset=".67" stop-color="#d1bd0e"/>
			<stop offset=".71" stop-color="#c1ce07"/>
			<stop offset=".75" stop-color="#b6da03"/>
			<stop offset=".82" stop-color="#afe100"/>
			<stop offset="1" stop-color="#aee300"/>
		</linearGradient>
		<linearGradient id="linear-gradient3" x1="823.85" y1="652.18" x2="930.43" y2="294.08" gradientTransform="translate(0 2088) scale(1 -1)" gradientUnits="userSpaceOnUse">
			<stop offset="0" stop-color="#000" stop-opacity=".7"/>
			<stop offset=".09" stop-color="#2d1c05" stop-opacity=".76"/>
			<stop offset=".27" stop-color="#82500f" stop-opacity=".86"/>
			<stop offset=".41" stop-color="#c07716" stop-opacity=".94"/>
			<stop offset=".52" stop-color="#e78e1b" stop-opacity=".98"/>
			<stop offset=".58" stop-color="#f6981d"/>
			<stop offset=".6" stop-color="#e6a716"/>
			<stop offset=".63" stop-color="#d1bd0e"/>
			<stop offset=".67" stop-color="#c1ce07"/>
			<stop offset=".72" stop-color="#b6da03"/>
			<stop offset=".8" stop-color="#afe100"/>
			<stop offset="1" stop-color="#aee300"/>
		</linearGradient>
		<linearGradient id="linear-gradient4" x1="199.62" y1="408.56" x2="246.03" y2="680.39" gradientTransform="translate(0 2088) scale(1 -1)" gradientUnits="userSpaceOnUse">
			<stop offset="0" stop-color="#ff9513"/>
			<stop offset=".23" stop-color="#fd9911"/>
			<stop offset=".49" stop-color="#f8a70d"/>
			<stop offset=".77" stop-color="#f1bd07"/>
			<stop offset="1" stop-color="#e9d700"/>
		</linearGradient>
		<linearGradient id="linear-gradient5" x1="422.87" y1="370.43" x2="469.28" y2="642.26" gradientTransform="translate(0 2088) scale(1 -1)" gradientUnits="userSpaceOnUse">
			<stop offset="0" stop-color="#ff9513"/>
			<stop offset=".23" stop-color="#fd9911"/>
			<stop offset=".49" stop-color="#f8a70d"/>
			<stop offset=".77" stop-color="#f1bd07"/>
			<stop offset="1" stop-color="#e9d700"/>
		</linearGradient>
		<linearGradient id="linear-gradient6" x1="899.4" y1="420.86" x2="769.64" y2="629.23" gradientTransform="translate(0 2088) scale(1 -1)" gradientUnits="userSpaceOnUse">
			<stop offset="0" stop-color="#ff9513"/>
			<stop offset=".23" stop-color="#fd9911"/>
			<stop offset=".49" stop-color="#f8a70d"/>
			<stop offset=".77" stop-color="#f1bd07"/>
			<stop offset="1" stop-color="#e9d700"/>
		</linearGradient>
		<linearGradient id="linear-gradient7" x1="533.55" y1="351.6" x2="579.96" y2="623.43" gradientTransform="translate(0 2088) scale(1 -1)" gradientUnits="userSpaceOnUse">
			<stop offset="0" stop-color="#ff9513"/>
			<stop offset=".23" stop-color="#fd9911"/>
			<stop offset=".49" stop-color="#f8a70d"/>
			<stop offset=".77" stop-color="#f1bd07"/>
			<stop offset="1" stop-color="#e9d700"/>
		</linearGradient>
		<linearGradient id="linear-gradient8" x1="995.89" y1="481" x2="866.13" y2="689.36" gradientTransform="translate(0 2088) scale(1 -1)" gradientUnits="userSpaceOnUse">
			<stop offset="0" stop-color="#ff9513"/>
			<stop offset=".23" stop-color="#fd9911"/>
			<stop offset=".49" stop-color="#f8a70d"/>
			<stop offset=".77" stop-color="#f1bd07"/>
			<stop offset="1" stop-color="#e9d700"/>
		</linearGradient>
		<linearGradient id="linear-gradient9" x1="321.79" y1="385.88" x2="368.49" y2="659.41" gradientTransform="translate(0 2088) scale(1 -1)" gradientUnits="userSpaceOnUse">
			<stop offset="0" stop-color="#ff9513"/>
			<stop offset=".23" stop-color="#fd9911"/>
			<stop offset=".49" stop-color="#f8a70d"/>
			<stop offset=".77" stop-color="#f1bd07"/>
			<stop offset="1" stop-color="#e9d700"/>
		</linearGradient>
		<linearGradient id="linear-gradient10" x1="734.63" y1="453.42" x2="702.42" y2="599.27" gradientTransform="translate(0 2088) scale(1 -1)" gradientUnits="userSpaceOnUse">
			<stop offset="0" stop-color="#ff9513"/>
			<stop offset=".23" stop-color="#fd9911"/>
			<stop offset=".49" stop-color="#f8a70d"/>
			<stop offset=".77" stop-color="#f1bd07"/>
			<stop offset="1" stop-color="#e9d700"/>
		</linearGradient>
	</defs>
	<g id="Layer_2">
		<circle class="st21" cx="621.09" cy="1014.38" r="449.94"/>
		<path d="M621.09,1476.5c-254.81,0-462.12-207.3-462.12-462.12s207.3-462.12,462.12-462.12,462.12,207.3,462.12,462.12-207.3,462.12-462.12,462.12h0ZM621.09,576.62c-241.38,0-437.77,196.38-437.77,437.77s196.38,437.77,437.77,437.77,437.77-196.38,437.77-437.77-196.38-437.77-437.77-437.77h0Z"/>
		<path class="st11" d="M601.05,835.82c.62-16.91,5.2-33.67,13.33-48.51-7.8-.78-15.28,3.38-21.27,8.44s-11.11,11.16-17.61,15.55c-4.43,2.99-9.38,5.1-14.29,7.23-28.31,12.27-56.16,25.57-83.49,39.88-13.57,7.11-27.71,13.97-40.63,22.22-14.91,9.53-28.81,18.87-45.61,25.06-21.48,7.93-45.25.29-66.82-7.37-7.1-2.52-14.54-5.28-19.39-11.04-3.8-4.51-5.55-10.34-8.31-15.55-7.25-13.68-22.18-22.95-37.65-23.38-3.5-.1-7.79.81-8.82,4.15-.54,1.76.04,3.64.62,5.38,3.29,9.91,6.89,20.32,14.77,27.18,2.83,2.46,6.17,4.42,8.4,7.44,3.06,4.14,3.57,9.58,3.84,14.72.9,16.91.48,33.87-.71,50.76-.6,8.46-1.39,16.9-2.3,25.33-.88,8.1-2.33,16.27-2.4,24.44-6.26-1.76-12.99-3.51-19.14-1.4-4.02,1.38-7.32,4.27-11.1,6.2-6.42,3.28-13.91,3.66-21.11,3.46-.87-.02-1.87,0-2.39.7-.36.49-.36,1.14-.33,1.75.57,14.94,1.79,29.84,8.87,43.25,5.15,9.76,14.09,22.1,26.18,22.97,5.69.41,11.05-2.38,16.55-3.91,6.18-1.73,12.68-1.88,19.09-1.73,17.19.41,33.8,4.02,50.79,3.83,17.97-.2,34.9,6.49,51.92-2.97,14.7-8.17,25.06-25.9,41.87-26.58-32.67,76.31-39.26,161.35-36.32,244.31.25,6.93.52,14.08-1.86,20.59-1.46,3.98-3.85,7.56-5.47,11.48-2.28,5.54-2.93,11.59-3.56,17.55-1.1,10.42-2.19,20.84-3.29,31.26-.43,4.11-.82,8.5,1.11,12.16,1.69,3.21,4.89,5.31,7.96,7.24,39.37,24.71,78.45,42.21,122.91,55.38,10.94,3.24,29.18,10.65,35.37-4.69,2.7-6.68,1.33-14.19,1.2-21.39-.15-8.67,1.56-17.36.59-25.98-.97-8.58-4.56-16.6-7.07-24.86-2.96-9.74-4.44-19.89-5.14-30.04-.85-12.36-.55-24.76-.14-37.15,1.5-45.13,4.49-90.21,8.95-135.14,4.12-41.48,15.2-84.5,13.47-125.75-2.01-47.99,12.12-95.02,26.09-140.98,3.35-11,6.71-22.04,11.54-32.48,4.81-10.37,11.16-22.19,6.21-32.49-1.78,1-3.56,2.01-5.34,3.01-.17-3.19-.19-6.38-.08-9.57v.04Z"/>
		<path class="st11" d="M1055.51,1100.33c.89-6.08,1.25-12.25-.38-18.13-1.89-6.85-6.3-12.66-10.3-18.54-21.23-31.25-32.4-68.01-46.11-103.21-7.74-19.87-16.37-39.4-25.86-58.5-6.16-12.41-12.86-24.87-22.86-34.46-10.17-9.76-23.16-15.96-35.96-21.87-24.6-11.36-49.42-22.27-74.79-31.79-5.22-1.96-10.77-4.09-14.08-8.58-4.4-5.99-3.96-14.02-8.66-19.87-3.58-4.46-10.14-8.58-15.33-10.84-11.65-5.06-23.03-2.47-27.56,10.33-26.65,75.31-71.9,142.68-111.84,211.79-15.15,26.2-30.42,52.7-39.17,81.67-13.29,44.01-9.01,89.21-9.76,134.27-.77,46.13,5.17,94.11,12.31,139.62.81,5.18,1.65,10.61-.11,15.54-1,2.78-2.76,5.2-4.21,7.77-6.98,12.39-6.36,27.48-5.54,41.67.73,12.67-4.87,39.27,12.13,40.27,7.63.45,15.28.43,22.91-.07,13.95-.9,27.75-3.37,41.51-5.87,57.16-10.39,115.64-21.91,165.12-52.35,5.48-3.37,10.97-7.1,14.59-12.42,9.4-13.82-2.9-35.39-3.84-50.42-1.35-21.61,8.82-42.05,13.57-63.18,8.09-36.01.43-74.71,12.06-109.74,14.2,14.94,21.29,35.53,23.37,56.03,2.07,20.5-.48,41.17-3.34,61.58-3.77,26.91-8.06,53.74-12.36,80.57,80.03-63.03,135.82-156.11,153.68-256.4.29-1.61.56-3.24.8-4.87h.01Z"/>
		<g>
			<path class="st20" d="M775.46,781.75c2.1-10.4-2.6-29.13-15.86-19.64-11.94,8.54-26,13.54-39.84,18.43-12.7,4.48-25.39,8.97-38.13,13.34-6.44,2.21-12.88,4.4-19.34,6.54-5.56,1.84-9.79,5.47-15.94,6.16-1.06.12-2.14.17-3.16-.14-1.96-.6-3.31-1.71-5.32-2.1-2.17-.42-4.32-1.35-6.2-2.49-4.03-2.44-6.27-7.36-9.88-10.28-5.92-4.79-6.11.12-8.92,5.99-2.89,6.06-4.6,12.01-5.79,18.5-.65,3.51-2.27,6.95-3.1,10.45-.79,3.33-1.4,6.71-1.81,10.11-.37,3.09-.57,6.32.53,9.24,7.08-7.45,13.82-15.1,21.05-22.41,3.25-3.28,6.05-7.01,9.71-9.88,3.88-3.05,8-3.04,12.74-3.02.31,0,.63,0,.91.15.31.17.51.49.68.8,3.97,6.86,7.25,14,11.04,20.95,3.43,6.3,8.66,13.93,2.94,20.15-4.43,4.82-8.87,9.64-13.3,14.47-1.49,1.62-3,3.26-4,5.22-1,1.95-1.47,4.13-1.92,6.28-6.41,30.45-12.83,60.93-17.11,91.75-5.15,37.09-7.2,74.62-6.1,112.05,16.32-32.21,32.64-64.43,48.95-96.64,7.87-15.54,15.74-31.08,24.35-46.23,8.15-14.35,18.17-27.54,26.34-41.8,17.27-30.13,35.68-59.85,48.84-92.11,3.15-7.71,5.99-15.59,7.66-23.85h-.02Z"/>
			<path class="st20" d="M605,863.86c-4.13,4.57-5.75,12.75-7.81,17.99-3.2,8.14-6.35,16.3-9.37,24.51-6.04,16.41-11.6,33.01-16.19,49.89-8.24,30.36-15.49,63.84-9.62,95.27,2.73-1.04,3.58-4.41,4.07-7.29,9.67-56.16,27.63-110.5,44-165.08,1.6-5.34,3.31-13.93-2.49-17.41-.96.56-1.82,1.29-2.59,2.14v-.02Z"/>
			<path class="st20" d="M608.13,1387.95c-4.87,5.94-8.43,12.78-12.37,19.33-.62,1.02-10.6,15.67-10.82,15.44-3.46-3.63-7.23-6.98-11.25-9.99-4.09-3.07-8.52-5.86-11.6-9.95-3.29-4.37-5.04-10.18-9.72-13-2.81,3.18-2.04,8.25-2,12.08l.18,15.39c.12,10.26.24,20.52.37,30.78.02,1.39.09,2.92,1.04,3.94.59.64,1.44.96,2.26,1.25,19.32,6.85,40.45,5.42,60.89,3.9-1-21.48-1.99-43.04-.21-64.47.31-3.73.7-7.56-.31-11.16-2.41,1.92-4.53,4.11-6.47,6.46h0Z"/>
		</g>
		<path class="st9" d="M132.32,1031.26c4.08-.1,8.16-.53,12.15-1.21,13.61-2.29,26.62-7.19,39.88-11,10.65-3.06,21.68-5.44,32.82-5.11,9.9.3,19.31,1.13,28.65-3.17,4.85-2.23,9.63-5.54,14.95-5.09,3.19.27,6.38,1.91,9.46,1.03,1.94-.55,3.47-2.03,4.87-3.48,5.29-5.47,3.68-14.96,3.91-22.11.28-8.62.42-17.25.42-25.88,0-17.25-.58-34.51-1.73-51.72-.55-8.2-3.17-11.46-8.2-15.17-1.23-.9-2.59-1.83-4.11-2.86-7.58-5.17-10.11-14.93-13.57-23.43-4.89-12.04-12.55-22.71-18.84-34.08-18.46-33.33-24.84-71.75-35.92-108.2-2.74-9.01-5.9-18.16-11.97-25.36-1.57-1.86-3.36-3.6-5.57-4.61-4.73-2.17-10.55-.48-14.45,2.95s-6.23,8.31-8.03,13.19c-10.41,28.21-7.9,58.3-3.43,87.12.35,2.24.61,4.54.09,6.74-1.43,6.13-8.37,9.39-14.66,9.69s-12.53-1.44-18.82-1.19c-4.35.17-8.61,1.24-12.91,1.8-3.59.47-6.58.07-10.01,1.76-5.76,2.84-10.84,7.01-14.82,12.04-2.01,2.55-3.85,5.36-5.17,8.33-1.38,3.11-1.18,6.86-1.69,10.23-1.33,8.67-4.28,17.1-8.65,24.71-2.83,4.93-7.68,10.21-9.18,15.74-1.52,5.58,1.32,12.92,2.05,18.49,1.55,11.77-.65,23.71,0,35.56.79,14.57,5.84,28.55,11.23,42.12,7.13,17.96,16.07,36.92,33.06,46.14,8.57,4.65,18.38,6.28,28.19,6.03h0Z"/>
		<path class="st9" d="M724.18,779.39c5.06-1.98,10.12-3.97,15.18-5.95,8.1-3.17,17.08-6.72,22.89-13.51,6.41-7.49,3.42-15.83,1.25-24.54-7.22-28.85,6.75-58.18,12.35-87.39,2.33-12.17,2.55-26.48-6.45-35-10.54-9.98-25.9-14.27-37.72-22.4-2.07-1.43-4.07-3.02-6.38-3.99-9.38-3.95-19.35,3.2-27.72,8.98-32.91,22.75-74.05,27.42-112.44,18.34-19.07-4.51-37.77-10.62-55.82-18.25-6.33,19.48,5.09,40.25,4.43,60.72-.2,6.11-1.48,12.21-.89,18.3.5,5.11,2.3,9.99,4.25,14.73,11.03,26.91,26.96,51.47,42.81,75.86,2.62,4.03,5.44,8.25,9.75,10.38,7.22,3.57,17.25.62,22.86,6.4,9.32,9.58,16.76,23.64,32.34,24.23,9.54.36,18.75-3.18,27.65-6.67,17.23-6.75,34.45-13.5,51.68-20.25h-.02Z"/>
		<path class="st16" d="M615.94,1079.52c.12-7.99.36-15.98.79-23.97,2.28-42.55,7.48-85.09,18.42-126.34,2.43-9.17,3.18-18.68,4.08-28.09.45-4.73,1-9.43,1.67-14.14.56-3.95.98-8.51,2.4-12.26.99-2.62,2.93-4.77,4.99-6.67,4.86-4.49,10.68-8.04,14.63-13.34.45-.61.89-1.27.99-2.02.22-1.62-.72-4.8-1.37-6.3-2.57-5.99-5.41-11.81-7.74-17.9-2.17-5.66-3.44-12.02-6.51-17.26-.32-.54-.78-1.14-1.41-1.1-.22.02-.43.12-.64.17-.49.11-1-.05-1.5-.09-.82-.07-1.82.48-2.58.75-1.89.67-3.78,1.35-5.67,2.02-1.48.53-2.97,1.06-4.32,1.88-1.31.79-2.44,1.83-3.56,2.87-4.73,4.34-9.09,8.48-13.1,13.44-6.15,7.62-12.66,17.48-8.72,26.45,1.69,3.85,5.23,7.07,5.39,11.27.07,1.78-.5,3.52-1.08,5.21-5.27,15.39-11.85,30.31-16.92,45.76-6.08,18.52-9.95,37.69-13.8,56.8-5.25,26.02-10.49,52.03-15.74,78.05-4.78,23.7-6.57,47.9-9.33,71.91-6.17,53.53-10.78,107.44-14.1,161.22-.79,12.77-2.79,25.58-2.39,38.37.45,14.33,1.6,28.72,1.6,43.05.1,2.58.2,5.22,1.14,7.63,1.09,2.82,3.22,5.08,5.3,7.27,6.44,6.79,13,13.49,19.33,20.38,5.56,6.05,11.77,11.38,17.53,17.34.27.28.61.58.99.49.23-.05.4-.24.55-.42,4.39-5.11,6.63-10.52,10.12-16.07,4.65-7.39,9.98-14.35,15.93-20.74,4.53-4.87,9.45-9.48,12.87-15.18,6.52-10.88,2.27-21.99-.1-33.46-8.78-42.52-12.54-86.08-11.2-129.48.64-20.8,3.54-40.78,3.43-61.6-.11-21.97-.7-43.94-.37-65.91h0Z"/>
		<path class="st16" d="M483.71,568.82c-11.3,6.29-22.21,13.43-16.64,27.84,3.81,9.87,12.77,18.92,21.81,23.96,3.12,1.74,6.55,3.2,10.13,3.16,10.94-.13,19.63-13.84,30.11-10.69-1.51-5.59-1.79-11.51-.82-17.22,13.13,1.98,25.13,8.3,37.65,12.74,43.36,15.38,92.85,7.34,133.06-15.01,5.96-3.31,12.11-7.03,18.93-7.14,5.05-.08,9.89,1.85,14.48,3.96,18.11,8.29,34.75,19.77,48.94,33.75,10.02-13.49,9.31-26.98,9.7-42.88.41-16.63.77-33.26,1.23-49.88.16-6.47.29-13.12-1.89-19.21-2.15-6.01-6.39-11-10.53-15.84-11.34-13.25-22.69-26.51-35.08-38.77-7.07-7-14.65-13.77-23.74-17.8-8.2-3.64-17.27-4.87-26.23-5.26-16.81-.73-33.61,1.35-50.43,1.31-15.67-.03-31.87-1.83-46.59,3.53-11.31,4.11-20.77,12.16-28.92,21.01-16.12,17.5-28.08,38.82-34.61,61.71-1.44,5.05-2.67,10.28-5.55,14.67-2.74,4.18-6.8,7.31-10.84,10.25-10.92,7.96-22.33,15.25-34.13,21.82h-.04Z"/>
		<path class="st20" d="M570.77,633.7c-.47-1.61-1.57-2.8-2.93-3.73-1.07-.73-2.35-1.21-3.59-1.55-2.69-.75-5.98-.47-8.36,1.12-1.41-.64-2.98-.61-4.35.08-1.21.04-2.41.55-3.25,1.39-1.28,1.28-1.54,2.92-1.23,4.64.28,1.51.71,2.99,1.27,4.42.69,1.73,1.43,3.44,2.51,4.96,1.29,1.84,3.1,2.58,5.29,2.15,2.04-.39,4.16-1.21,5.95-2.24,2.03-1.17,3.63-2.74,5.06-4.55.04,0,.08-.01.12-.02.65-.16,1.22-.45,1.71-.9.21-.16.38-.39.57-.58-.15.3,0,.13.44-.45.05-.07.1-.13.15-.2.05-.07.07-.09.13-.17.17-.27.25-.57.35-.87.04-.11.13-.21.15-.33-.02.04-.03.05-.06.09.02-.07.06-.13.08-.2.28-1.03.27-2.04-.03-3.06h.02Z"/>
		<g>
			<path class="st20" d="M646.71,637.17s.08.05.09.02c-.03,0-.06-.02-.09-.02Z"/>
			<path class="st20" d="M657.52,632.25c-.37-2.1-1.64-3.78-3.29-5.06-1.42-1.1-3.2-1.74-5.02-1.92-1.69-.76-3.73-.51-5.48-.13-.4.09-.79.28-1.19.41-.74-.21-1.51-.3-2.2-.04-1.44.54-2.77,1.12-3.92,2.18-.85.79-1.59,1.74-2.23,2.71-.07.1-.09.13-.11.15-.17.18-.33.35-.49.53-.3.34-.59.69-.88,1.05-.62.79-1.21,1.6-1.79,2.42-.28.22-.58.42-.85.67-1.77,1.64-1.16,4.47.73,5.67,2.8,1.79,6.1,2.42,9.38,2.6,3.31.18,6.8-.37,9.82-1.74.88-.4,1.71-.95,2.45-1.6.9.03,1.8-.12,2.45-.59,1.27-.92,2.22-1.87,2.64-3.47.33-1.27.19-2.57-.03-3.84h0Z"/>
		</g>
		<path class="st20" d="M672.9,630.18c-.08-.71-.15-1.44-.37-2.13-.22-.7-.52-1.4-.88-2.05-.75-1.37-2.32-2.21-3.86-2.21s-3.07.85-3.86,2.21c-.71,1.22-.76,2.72-.21,4h0c-.06-.15-.13-.3-.19-.45.09.23.13.48.19.72v.36s0,.03-.01.05c-.13.5-.15.96-.12,1.42-.23.84-.46,1.68-.79,2.49.1-.24.2-.47.3-.71-.26.4-.4.84-.42,1.3-.1.47-.08.93.06,1.4.24.74.64,1.35,1.26,1.83.59.46,1.36.79,2.13.75.97-.04,1.75-.39,2.48-1.03.67-.59,1.23-1.29,1.7-2.04.4-.21.78-.47,1.12-.8.57-.7,1.14-1.39,1.3-2.33.09-.55.18-1.11.22-1.67.03-.38,0-.75-.04-1.13v.02Z"/>
		<path class="st17" d="M296.41,883.88c-.67-3.32-1.54-6.58-2.37-9.86-1.41-5.56-3.04-11.1-6.07-16.04-3.35-5.46-9.77-11.07-16.51-10.99-3.75.04-7.29,2.13-10.66,3.55-1.56.66-3.12,1.32-4.69,1.98-2.77,1.17-4.5,2.27-5.47,5.36-.73,2.34.46,5.43,2.67,6.57,2.24,1.16,4.29,1.36,6.62.41,1.44-.59,2.88-1.18,4.32-1.76,1.44-.59,2.88-1.18,4.32-1.76.62-.25,1.23-.52,1.85-.75-.02,0,1.29-.41,1.27-.48.62-.04.84.25,1.64.73.36.21.7.44,1.05.68.06.07.89.72.92.75.85.77,1.61,1.63,2.38,2.48.35.39.71.77,1.05,1.16-.02-.02.6.75.73.9,3,3.98,5.49,8.44,8.13,12.66,1.58,2.52,3.18,4.99,4.88,7.43,1.87,2.69,3.99,5.12,5.7,7.94.09.15.34.05.29-.12-.97-3.57-1.32-7.21-2.05-10.82v-.02Z"/>
		<path class="st17" d="M479.31,859.12c-15.8,6.22-30.41,14.99-44.67,24.1-12.66,8.08-22.78,18.71-37.11,24.61-7.56,3.11-16,6.39-24.08,7.79-8.42,1.45-16.2-2.24-23.81-5.36-7.97-3.27-15.98-6.46-24.01-9.58-1.14-.44-2.28-.84-3.41-1.25-7.01-2.56-14.29-6.34-21.27-9.47-.9,3.62.86,7.45,3.39,10.19,2.53,2.74,5.77,4.7,8.7,7.02,8.36,6.62,14.05,16.22,17.11,26.44,3.75,12.53,5,28.41,3.09,41.33-1.14,7.75-2.57,15.47-4.35,23.1-1.45,6.24-2.44,16.06-6.01,21.43,9.63-14.47,15.79-30.18,20.75-46.73,2.82-9.4,5.27-19.03,10.14-27.55,3.25-5.69,7.74-10.91,13.38-14.32,6.16-3.73,12.53-3.25,19.28-4.96,1.47-.37,3.29-.67,4.25.49.46.56.57,1.32.68,2.03,1.21,7.97,4.69,14.82,6.87,22.39.87-8.86,1.71-18.32,6.97-25.85,5.53-7.97,14.91-12.87,22.45-18.7,8.98-6.93,17.61-14.28,26.46-21.39,9.41-7.57,19.03-15.37,25.2-25.75h0Z"/>
		<path class="st17" d="M449.17,1327.03c-6.76-1.12-13.52-2.25-20.28-3.37-3.86-.64-6.94-1.16-8-4.92-1.01-3.59-.22-9.2-.44-13.03-.56-9.48-1.13-19.23,1.17-28.55.38-1.55,1.07-3.3,2.61-3.71,4.26,0,7.27,4.42,10.3,6.86,5.06,4.07,10.76,7.54,16.08,11.27-6.53-21.05-17.05-40.55-24-61.3-7.04-21-3.1-45.43.28-66.71,4.38-27.55,9.69-54.95,15.93-82.14,2.67-11.65,7.91-24.44,7.01-36.35s-4.2-23.4-2.09-34.99c-3.82,21.01-9.61,41.83-16.42,62.06-6.27,18.66-14.18,36.42-17.33,55.98-2.58,15.98-4.37,32.16-5.65,48.4-1.24,9.88-2.19,19.8-3.7,29.64-.27,1.73.58,3.05,1.76,3.75-.09,2.38-.19,4.77-.27,7.15-.94.46-1.71,1.32-1.83,2.66-1.48,16.26-3.64,32.53-3.99,48.87-.27,12.62.2,25.24.2,37.85,0,4.31.71,9.83-1.3,13.84-1.97,3.95-6.47,6.19-9.13,9.62-3.27,4.21-3.58,9.92-3.76,15.25-.29,8.48-.58,16.96-.87,25.44-.12,3.58.14,7.48-.67,10.93-.78,3.36-2.46,5.47-.01,8.92,1.95,2.74,5.3,4.19,8.63,4.65,2.72-14.22,6.39-28.77,15.21-40.26,10.08-13.14,25.63-20.7,40.59-27.8h-.03Z"/>
		<path class="st17" d="M611.37,794.97c-.62-1.96-2.29-3.23-4.34-3.31-6-.23-8.37,3.97-11.64,8.27-3.2,4.21-6.41,8.43-9.61,12.64-2.43,3.19-4.86,6.4-7.28,9.61.05-.3.13-.6.17-.9,3.95-4.33,6.91-9.11,9.79-14.28,1.87-3.35-2.33-6.19-5.08-3.92-1.46,1.21-3.03,2.33-4.64,3.41-1.46-1.16-3.57-1.45-4.92.26-1.31,1.65-2.53,3.3-3.65,5-1.4.82-2.8,1.65-4.16,2.48-5.88,3.63-11.63,7.38-17.74,10.63-12.41,6.61-25.3,12.28-37.49,19.31-16.56,9.55-35.02,23.39-44.56,40.24-6.18,10.92-9.96,22.99-13.69,34.97,6.19-5.6,12.39-11.2,18.13-17.27,5.51-5.83,10.59-12.09,16.69-17.3,9.88-8.43,21.99-13.71,33.91-18.88,13.26-5.75,26.53-11.5,39.79-17.25-4.74,3.82-5.37,11.15-2.94,16.73,2.43,5.58,7.24,9.74,12.12,13.37,1.35,1,2.83,2.15,3.1,3.81.35,2.12-1.41,3.95-3.06,5.32-14.73,12.24-34.31,20.85-41.44,38.62-2.99,7.46-3.33,15.67-3.64,23.7-.98,26.03-1.07,52.08-3.51,77.93-2.56,27.09-4,54.41-1.4,81.56,1.11,11.57,2.68,23.09,4.98,34.49,2.49,12.34,6.64,24.17,10.29,36.2.04.12.21.07.18-.05-2.15-10.95-2.87-22.06-4.04-33.14-1.95-18.37-4.25-35.64-2.37-54.21,2.13-21.08,7.23-41.74,12.36-62.25,7.29-29.15,14.63-58.45,26.39-86.1-6.78,5.35-13.98,10.18-21.51,14.41-2.17,1.22-1.72-23.76-.76-26.85,3.09-10.02,9.74-17.26,16.59-24.96,6.52-7.34,12.4-15.27,17.53-23.64-4.23-6.27-7.77-13.01-10.54-20.04-.48-1.22-.95-2.53-.74-3.83.22-1.34,1.13-2.46,1.97-3.52,9.74-12.3,18.66-25.31,28.28-37.9,2.88-3.76,5.75-7.53,8.63-11.29,2.99-3.92,5.48-6.91,3.84-12.06h.01Z"/>
		<path class="st17" d="M867.35,829.58c-13.18-5.97-25.71-10.91-36.77-20.79-6.84-6.11-12.79-13.15-19.29-19.61-8.5-8.44-20.07-18.43-32.61-19.32-2.38,7.1,1.31,13.03,6.02,18.29,5.21,5.83,10.43,11.65,15.64,17.48,2.35,2.63,4.74,5.32,6.09,8.58,1.3,3.14,1.55,6.6,1.69,9.99.44,10.02-.15,19.48-2.74,29.21-.23.88-.49,1.76-.92,2.57-.55,1.03-1.38,1.89-2.19,2.74-6.61,6.87-13.21,13.73-19.82,20.6,14.54-5.31,35.97-13.47,37.29-31.15.46-6.23-1.94-20.3,6.8-15.38,4.83,2.72,8.37,7.81,13.31,10.29,9.39,5.96,18.65,12.69,28.93,17.06,9.41,4,19.27,5.24,29.38,6.14,14.19,1.27,25.2,5.91,36.62,14.94,5.13,4.05,9.59,8.95,13.14,14.43,11.72,18.07,12.89,40.78,13.7,62.3.96,25.57,1.93,51.14,2.89,76.7,3.16-15.35,6.79-30.61,10.89-45.73,1.82-6.72,4.11-13.96,9.85-17.91,2.5-1.72,25.5,51.84,26.74,55.45,2.06,6.02,3.85,12.11,5.46,18.26,1.57,5.98,2.65,12.1,6.99,16.8,4.68,5.07,11.14,6.27,15.8,11.33,6.53,7.08,12.45,14.84,18.64,22.22,1.11-7.85-1.67-15.8-5.72-22.61s-9.37-12.77-14-19.2c-10.27-14.27-13.49-29.43-19.75-45.46s-14.43-32.61-22.5-48.49c-10.8-21.25-22.02-42.39-30.65-64.65-2.08-5.37-3.79-11.09-7.12-15.86-3.61-5.16-8.81-8.41-14.28-11.31-12.11-6.44-24.36-12.65-36.69-18.67-13.51-6.59-27.11-12.99-40.81-19.2v-.04Z"/>
		<path class="st17" d="M888.66,884.1c-18.34,13.17-28.07,34.06-34,56.55-2.17,8.25-3.88,16.46-6.82,24.5-.06.17.2.28.29.12,3.98-7.02,8.81-13.41,13.02-20.27,8.64-14.08,11.74-30.37,21.05-43.93,3.08-4.49,6.65-8.63,10.23-12.74,3.77-4.34,7.57-8.67,11.76-12.61-5.77,2.24-10.93,5.06-15.54,8.37h.01Z"/>
		<path class="st17" d="M805.33,892.87c-6.71-4.93-14.26-8.6-21.36-12.9-1.15-.69-2.22.85-1.38,1.79,2.45,2.75,4.49,5.82,6.92,8.58,2.52,2.85,5.65,5.11,7.9,8.21,2.14,2.95,1.99,4.79.84,8.22-1.09,3.25-2.26,6.49-3.45,9.71-4.16,11.2-9.26,22.05-14.98,32.54-5.74,10.53-11.78,21.78-19.28,31.18-2.36,2.96-5.17,5.47-7.51,8.45-1.64,2.09-8.82,8.87-9.26,10.91,3.8-17.55,8.23-34.97,13.28-52.2-35.16,65.58-72.49,129.37-111.51,192.62-7.62,12.36-14.97,24.92-21.14,38.07-6.19,13.18-13.37,27.74-11.76,42.57.42,3.84,5.45,5.89,7.68,2.08,6.92-11.83,9.95-25.38,15.82-37.79,5.69-12.04,12.38-23.58,19.34-34.92,15.09-24.55,31.15-48.52,48.11-71.81,30.47-41.85,66.21-80.71,89.91-127.08,6.42-12.56,12.28-25.8,15.91-39.46,1.86-6.98,2.33-14.06-4.06-18.76h-.02Z"/>
		<path class="st17" d="M972.29,1200.8c6.16-2.43,12.55-4.38,18.89-6.29-2.91.88-11.59-2.85-15.2-3.03-5.58-.28-11.21.3-16.63,1.69-5.62,1.45-10.13,4.28-15.34,6.59-7.16,3.18-6.48.7-12.23-4.4-1.3-3.77-2.59-7.53-4.01-11.25-3.54-9.28-8.25-16.64-15.83-23.13-7.15-6.12-14.27-12.09-20.69-19.01-3.39-3.65-6.41-7.53-9.57-11.37-3.39-4.12-7.22-8.06-10.21-12.27,4.79,10.18,8.97,20.78,14.31,31.04,6.28,12.06,12.48,24.15,18.61,36.29,10.79,21.37,15.13,39.7,12.98,63.58-2.94,32.59-9.38,64.46-17.57,96.09-2.25,8.71,10.91,12.32,13.45,3.71,7.16-24.24,11.99-49.24,15.26-74.34,2.6-6.99,4.79-14.15,6.29-21.65,3.63-18.09,4.25-32.05,20.93-43.62,5.14-3.57,10.74-6.3,16.56-8.6v-.03Z"/>
		<path class="st17" d="M792.87,1332.37c.72.08,1.45.18,2.17.3,11.11,1.8,23.1,4.63,31.13,13.11,3.91,4.13,6.52,9.3,9.08,14.38,2.06,4.09,2.63,8.71,4.58,12.6,2.12,4.23,6.51,8.13,10.22,10.95.46-2.99.59-6.17.45-9.42-.42-10.15-3.38-21.09-6.74-29.87-2.92-7.62-7.53-15.16-14.76-19.36-7.95-4.61-17.6-2.49-26.43-2.7-23.81-.56-47.65,0-71.41,1.65,3.24-.23,8.97,3.14,12.18,4.11,4.68,1.42,9.61,3.09,14.46,3.8,11.66,1.71,23.36-.94,35.08.44h-.01Z"/>
		<path class="st17" d="M282.85,918.22c-1.04-4-7.41-3.24-7.29.99.8,26.3,2.88,52.26,1.29,78.59-.76,12.49-1.74,25-3.46,37.4-1.44,10.3-4.52,18.81-11.5,26.64-.16.18,0,.4.22.37,9.13-1.37,14.15-10.79,16.98-18.69,4.39-12.25,6.3-25.96,7.64-38.85,2.96-28.37,3.36-58.67-3.88-86.45h0Z"/>
		<path class="st14" d="M664.39,846.77c-.28-3.24-1.66-6.56-2.71-9.4-.68-1.84-1.24-3.64-2.26-5.33-3.8-6.33-6.84-13.08-9.87-19.82-1.12-.39-2,.98-2.38,2.1-2.64,7.66-7.46,16.86-4.64,25.1.8,2.34,2.14,4.48,2.76,6.88.99,3.83.05,7.85-.58,11.76-.69,4.31-.54,8.48,1.61,12.26,6.45-3.45,11.12-9.81,15.47-15.5.62-.82,1.25-1.64,1.71-2.56.86-1.73,1.06-3.59.9-5.49h0Z"/>
		<path class="st14" d="M626.56,997.95c.49-4.78.99-9.57,1.5-14.35,2.12-19.96,4.4-39.91,7.18-59.79,1.39-9.94,2.91-19.86,4.59-29.75.84-4.94,1.73-9.88,2.66-14.8.45-2.4,3.52-8.4.35-9.88-.41-.19-.86-.28-1.3-.34-1.14-.15-2.29-.1-3.44-.05-4.42.18-8.84.37-13.26.55.91,1.2,2.38,1.89,3.26,3.11,1.1,1.53,1.06,3.57.94,5.44-.69,10.56-5.08,21.41-7.96,31.55-6.64,23.4-10.75,47.44-13.45,71.59-2.92,26.07-4.21,52.28-5.27,78.48-.54,13.37-1.01,26.74-1.61,40.11-.74,16.56-1.67,32.35-1.22,49.04.51,18.95,1.01,37.9,1.52,56.85,1.29,48.16-.21,96.75,8.39,144.28.64,3.56,1.33,7.23.54,10.76-.57,2.58-1.9,4.92-3.21,7.21-7.04,12.33-14.07,24.67-21.11,37-1.45,2.53-3.46,5.41-6.38,5.31-3.48-.11-6.19-4.55-9.51-3.53,4.18,5.95,9.33,10.3,14.49,15.46,4.07-2.96,4.79-6.4,7.25-10.23,2.54-3.96,6.6-7,9.89-10.34,8.49-8.61,15.85-18.73,22.95-28.51,1.13-1.56,2.26-3.15,2.87-4.98,1.18-3.56.22-7.43-.67-11.07-5.4-22.03-7.93-44.53-8.11-67.19-.18-22.62-2.48-45.41-2.64-68.14-.51-74.72,3.11-149.48,10.77-223.8h-.01Z"/>
		<path class="st19" d="M625.32,823.39c.53-1.43,1.06-2.86,1.59-4.28-1.07-.67-2.39.31-3.25,1.24-4.04,4.34-7.72,9.01-10.99,13.95-3.12,4.71-5.96,10.07-5.4,15.69.38,3.87,2.34,7.37,3.59,11.05,3.86,11.43-1.3,19.6-4.86,30.21-3.48,10.4-6.14,21.05-9.08,31.61-4.97,17.85-9.66,35.78-13.86,53.82-8.39,36.07-15.73,72.44-21.58,109.02-13.98,87.38-24.41,176.54-22.78,265.14.38,20.79,6.74,32.65,19.68,48.33-17.58-45.6-15.22-97.27-9.67-145.11,1.84-15.85,4.03-31.65,6.37-47.43.92-6.21.71-11.7.98-17.77.16-3.6,6.42-16.9,5.44-19.02,3.97,8.57,7.32,17.42,10,26.47-2.74-51.97-2.29-102.7,5.97-154.05,2.89-17.97,6.92-35.73,10.94-53.48,6.81-30.02,13.61-60.05,20.42-90.07,1.78-8.32,4-16.41,7.42-24.21,1.31-2.98,3.2-5.48,3.05-8.8-.11-2.47-4.25-6.3-2.68-8.76.63-.99,2.05-1,3.23-.89,1.75.16,3.5.32,5.24.48-.04-3.28-3.43-5.39-5.02-8.27-2.22-4.03-.65-9,.95-13.3,1.43-3.85,2.87-7.7,4.3-11.55v-.02Z"/>
		<path class="st14" d="M772.24,602.34c-8.93-3.24-15.55-10.27-22.2-16.71-2.36-2.29-4.91-3.96-6.15-7.08-1.8-4.53-1.49-10.34-1.61-15.12-.46-17.66-1-35.38-3.46-52.9-1.22-8.68-2.9-17.31-5.29-25.76-1.21-4.29-2.41-8.85-4.28-12.91-1.05-2.28-4.17-5.43-3.75-8.07-.68,4.3.57,8.63,1.59,12.86,2.34,9.64,3.59,19.55,3.7,29.46.09,8.12,1.35,16.03,1.69,24.18.64,15.57-1.47,32.39-10.68,45.42-1.05,1.48-2.23,2.94-3.81,3.84s-3.63,1.16-5.2.23c-1.09-.64-1.83-1.78-2.94-2.39-2.38-1.32-6.36,2.35-8.28,3.39-3.71,2-7.61,3.62-11.49,5.27-8.41,3.57-16.85,7.08-25.44,10.2-16.6,6.02-33.87,10.89-51.66,10.77-36.61-.25-68.55-22.75-104.89-25.14-9.02-.59-24.75-1.9-29.34,8.56-1.39,3.16-.71,6.85.51,10.08,2.47,6.56,6.93,12.14,11.33,17.6,3.61,4.49,8.17,9.42,13.92,9.01,3.07-.22,5.78-1.96,8.35-3.66,3.65-2.41,10.11-3.64,12.94-6.96,3.17-3.73,1.23-9.78.94-14.78-.1-1.76-.05-3.85,1.38-4.87,4.36-3.12,17.1,5.18,21.29,6.71,9.07,3.31,18.08,6.83,27.29,9.74,15.67,4.94,31.83,7.62,48.27,6.09,16.11-1.5,31.66-5.91,46.75-11.61,8.74-3.3,17.35-6.95,25.94-10.62,7.12-3.04,16.53-11.29,24.46-8.58,14.5,4.95,29.37,10.11,41.02,20.07,3.46,2.96,15.76,17.45,19.91,13.42,3.26-3.16,3.14-10.18,3.61-14.26.95-8.11,2.64-15.92,2.78-24.15-1.96,6.5-6.75,13.53-10.63,19.09-.21.31-.45.63-.79.78-.38.18-.83.12-1.25.04-1.55-.28-3.06-.7-4.52-1.23h-.01Z"/>
		<path class="st22" d="M528.96,598.42c-3.2,3.53.49,11.56.24,15.34-.27,4.06-1.94,11.58,5.13,8.28,8.45-3.94,18.24-3.94,27.46-2.47,9.21,1.47,18.16,4.32,27.35,5.87,10.38,1.75,21.02,1.67,31.4,0,9.04-1.46,20.7-3.52,27.61-10.04-7.18,1.3-14.43,2.25-21.71,2.85-4.52.37-9.07.6-13.6.34-4.14-.24-8.24-.88-12.34-1.52-5.07-.79-10.15-1.59-15.18-2.61-12.75-2.59-25.2-6.65-37.02-12.08-4.52-2.08-9.03-4.37-13.93-5.24-1.27-.22-2.61-.34-3.8.16-.67.29-1.21.67-1.62,1.13h.01Z"/>
		<path class="st22" d="M636.34,792.65c5.27,2.56,11.22,3.48,17.08,3.42,4.64-.05,9.75-.94,12.67-4.55-2.7-.77-5.28-1.95-7.63-3.49,4.31-6.67,10.05-11.95,15.31-17.8,6.2-6.9,12.45-13.77,18.64-20.67,8.34-9.3,16.73-18.78,22.3-29.96,2.54-5.1,9.04-18.42,6.37-23.81-3.2,4.22-5,10.1-7.63,14.79-2.91,5.19-6.28,10.12-10.48,14.37-8.82,8.93-17.55,17.95-26.56,26.69-6.35,6.17-12.74,12.3-19.42,18.12-6.31,5.5-11.36,10.75-20.31,9.87-4.23-.41-8.41-1.55-12.65-1.35-.74.04-1.64.24-1.84.95-.12.41.06.84.24,1.23,2.82,6.03,8.11,9.37,13.91,12.19h0Z"/>
		<path class="st22" d="M628.03,700.81c-4.61,1.72-9.84,0-14.47-.79-3.97-.68-8.95-.3-12.63,1.5,1.32,3.42,9.13,2.65,11.9,2.99,3.49.43,7.06.76,10.51-.11,2.69-.68,5.64-.42,7.94-1.96,3.18-2.13,4.98-5.22,5.08-9.08-1.37.96-2.24,2.46-3.23,3.8-1.29,1.73-3.1,2.91-5.11,3.66h0Z"/>
		<path class="st22" d="M768.52,611.1c-3.99-4.13-9.17-6.9-14.21-9.9-5.69-3.39-11.26-7.02-17.27-9.83-3.12-1.46-6.54-3.06-9.98-3.46-2.33-.27-6.66-1.23-8.92-.48-.27.09-.54.22-.71.45-1.08,1.52,12.6,7.32,14.2,8.19,5.77,3.12,11.34,6.6,16.91,10.06,3.87,2.42,7.76,4.84,11.35,7.65,5.13,4.02,9.63,8.84,13.3,14.23,1.84-3.64,1.13-8.15-.82-11.73-1.07-1.97-2.38-3.67-3.84-5.19h0Z"/>
		<path class="st22" d="M645.11,720.55c-5.1.25-9.79,3.77-14.26,6.08-4.81,2.49-9.87,4.97-15.33,5.56-2.4.26-4.89.19-7.22-.41-2.42-.63-4.32-1.97-6.5-3.11-1.72-.9-3.58-1.45-5.54-1.08-.94.18-1.75.61-2.64.93-1.65.6-3.05.37-4.73.23-.26-.02-.47.33-.31.55,1.13,1.56,2.75,2.05,4.63,2.1,1.21.03,2.32-.4,3.51-.43,1.51-.04,2.94.92,4.17,1.67,4.44,2.71,8.94,4.19,14.22,3.81,5.32-.39,10.3-2.3,15.08-4.57,2.73-1.3,5.4-2.69,8.09-4.06,2.92-1.48,5.64-2.59,7.69-5.18.6-.76.3-2.14-.86-2.08h0Z"/>
		<path class="st22" d="M672.31,634.6c-1.41.97-2.63,1.88-3.77,3.19-1.04,1.19-2.01,2.37-3.37,3.22-3.23,2.02-7.4,1.91-11.06,2.18-4.18.31-8.39.88-12.59.98-2.08.05-3.94-.3-5.9-.97-1.77-.6-3.38-1.03-5.26-.78-1.32.17-1.69,1.9-.32,2.38,1.96.69,3.75,1.79,5.67,2.57,1.99.81,4.08,1.16,6.22,1.29,4.84.29,9.85-.32,14.67-.68,3.89-.29,8-.7,11.34-2.9,3.35-2.21,5.49-5.2,6.12-9.14.15-.92-.8-1.99-1.75-1.34h0Z"/>
		<path class="st22" d="M577.99,641.38c-1.54,1.5-2.5,3.09-4.74,3.67-1.3.34-2.65.21-3.97.3-1.23.08-2.45.28-3.65.54-2.42.53-4.76,1.37-7.17,1.92-1.16.26-2.32.46-3.5.58-.99.1-2.2.02-3.12.37-.28.1-.43.4-.27.68,1.18,2.06,4.65,2.14,6.69,1.87,2.92-.39,5.69-1.36,8.56-1.96,2.82-.6,5.81-.08,8.52-1.16,2.21-.88,4.82-2.75,5.38-5.21.36-1.57-1.53-2.76-2.73-1.59h0Z"/>
		<path class="st12" d="M616.32,811.1c-.11-1.17-.26-2.34-.31-3.51-.32-6.98,4.27-12.55,3.83-19.28.11,1.67-9.31,10.35-10.7,12.35-2.97,4.29-4.73,7.73-5.32,12.81-.98,8.37-3.32,16.94-3,25.41.43,11.39,6.63,3.05,8.49-3.25.95-3.21.99-6.66,2.22-9.77,1.32-3.32,3.94-6.1,4.7-9.59.37-1.7.27-3.43.1-5.17h0Z"/>
		<path class="st12" d="M771.88,777.4c-2.54,2.54-4.11,7.98-5.92,11.15-2.17,3.81-4.48,7.55-7.01,11.14-4.68,6.64-9.26,12.73-14.7,18.84-.99,1.11-2,2.24-3.32,2.94-1.23.65-2.64.87-4,1.13-18.02,3.43-33.64,15.05-51.62,18.69-2.25.46-4.62.78-6.81.07-2.18-.71-4.1-2.73-3.97-5.02.13-2.25,2.07-3.95,4.03-5.07s4.16-1.98,5.57-3.74c-6.29-2.34-12.9-3.77-19.23-6.02s-12.53-5.48-16.82-10.65c2.9,6.18,5.41,12.42,8.37,18.52,3.87,7.99,8.63,15.49,12.55,23.44.69,1.4,1.43,2.87,2.69,3.79,5.23,3.83,19.82-4.49,25.25-6.36,10.11-3.49,19.97-7.69,29.49-12.56,13.97-7.15,26.93-19.19,38.16-30.01,2.01-1.93,4-3.93,5.43-6.32,5.27-8.85,7.37-22.86,6.24-32.95-1.43,2.98-2.89,5.99-4.39,8.98h.01Z"/>
		<path class="st22" d="M148.6,953.69c-7.18.16-15.51.28-22.29,2.79-5.98,2.21-11.16,5.13-17.69,6.26-1.56.27-3.17.48-4.73.16-1.36-.28-2.6-.97-3.78-1.69-2.92-1.8-5.63-3.96-8.04-6.41.7,6.16,5.49,12.04,11.67,12.63,1.39.13,2.79,0,4.17-.12,13.81-1.24,27.57-2.34,41.45-1.66,6.94.34,13.9.57,20.83,1.05,7.55.52,13.82,2.36,20.93,4.52,1.68.51,3.47,1.02,5.16.55,2.95-.83,4.28-4.18,5.07-7.14,1.29-4.87,1.67-9.25,1.88-14.15.07-1.62-.39-13.98.19-14.38-1.33.93-1.52,2.77-1.71,4.38-.65,5.28-3.15,13.69-8.16,16.45-.54.3-1.11.53-1.72.69-4.89,1.26-15.85-1.34-20.72-2.77-6.99-2.05-15.15-1.33-22.52-1.17h.01Z"/>
		<path class="st22" d="M199.09,910.86c-1.02.62-2.16,1.05-3.41,1.22-3.84.52-7.68-.73-11.4-1.82-14.29-4.18-29.23-6.12-44.11-5.82-7.75.16-15.49.92-23.12,2.3-5.9,1.06-11.99,4.76-18.14,3.69-5.78-1.01-11.91-5.79-16.07-9.71,1.32,7.27,9.54,13.16,16.19,14.89,4.46,1.16,9.15.87,13.75.57,14.87-.96,29.8-2.87,44.65-2.41,12.22.38,26.46,1.28,36.33,9.4,1.17.96,2.38,2.07,3.89,2.16,1.84.11,3.4-1.35,4.45-2.87,2.25-3.25,3.32-7.17,4.09-11.05,1.33-6.67,1.92-13.53,1.18-20.29-.29,6.04-2.42,16.16-8.28,19.74h0Z"/>
		<path class="st22" d="M212.15,880.54c-.86-1.68-1.91-3.26-2.75-4.96-2.1-4.19-4.46-7.5-4.17-12.17.34-5.59,1.46-10.69-.14-16.3-2.48-8.65-9.87-14.92-17.25-20.07-3.81-2.65-7.72-5.16-11.73-7.51-5.58-3.28-11.76-6.71-14.2-12.71-1.66-4.08-1.3-8.83-3.34-12.74-1.11,4.02-1.43,8.52-4.56,11.42-2.86,2.65-6.99,4.16-10.78,4.72-7.03,1.04-14.23-.29-21.29.58-5.98.74-11.75,3.08-16.56,6.71,9.94-.46,19.88-.92,29.82-1.39,5.99-.28,12-.56,17.99-.23,13.34.73,25.01,7.18,35.62,14.91,5.18,3.77,10.79,8.67,12.27,15.2,1,4.39.73,15.16-3.04,18.34-.52.44-1.15.8-1.83.85-.55.03-1.09-.14-1.61-.31-6.75-2.22-13.67-5.67-20.52-7.12-7.63-1.62-15.61-1.84-23.38-2.19-7.59-.34-15.61-.23-23.14.92-2.22.34-4.44.78-6.53,1.6-.13.76.85,1.17,1.62,1.26,3.75.45,7.35-.35,11.06-.3,4.61.06,9.3.71,13.86,1.42,8.91,1.38,17.69,3.65,26.15,6.76,9.16,3.37,17.95,7.72,26.15,13,8.23,5.3,9.48,15.94,7.4,25.18-2.03,9.12-7.94,17.83-6.18,27,.57,3,1.95,5.79,2.73,8.75,1.49,5.97,1.64,12.41.82,18.49-.74,5.5-2.37,9.72-6.61,13.4-2.52,2.19-4.32,3.21-5.49,6.45-1.29,3.59-1.26,7.53-2.74,11.05-1.22,2.91-3.51,5.26-6.07,7.11-4.02,2.91-8.71,4.7-13.4,6.33-12.32,4.27-25.12,7.54-38.17,8.32-5.91.36-25.8,1.37-27.23-7.34.37,2.23.76,4.53,1.95,6.45,2.8,4.52,8.29,4.09,11.76,7.37,1.2,1.14,1.91,2.96,1.27,4.49-.4.94-1.29,1.89-.89,2.83.17.4.54.68.9.93,8.07,5.57,19.7,6.44,28.91,3.75,9.46-2.76,18.91-5.52,28.37-8.28,7.77-2.27,15.53-5.5,23.52-6.68,4.8-.71,9.59-1.42,14.39-2.12-.34-1.43-1.72-2.32-2.97-3.1-3.33-2.08-6.68-4.7-7.8-8.46-1.03-3.42,0-7.1,1.12-10.49,5.92-17.98,14.57-35.05,25.56-50.46-1.05-2.28-4.23-2.86-6.55-1.88-2.31.98-3.95,3.05-5.49,5.04-1.79,2.31-3.57,4.63-5.36,6.94-1.43-5.83,1.04-11.36-.42-17.29-.54-2.18-1.41-4.3-1.67-6.53-.23-1.97,0-3.96.26-5.94.72-5.78,1.44-11.57,2.15-17.35.97-7.8,1.86-16.11-1.55-23.19-.08-.16-.16-.32-.24-.48v.02Z"/>
		<path class="st18" d="M572.95,537.88c-2.77-.29-5.52-.3-8.31-.21-5.14.18-10.33.94-15.34,2.13-10.23,2.43-20.19,6.46-29.57,11.16-9.59,4.81-18.76,10.38-27.74,16.23-4.36,2.84-8.69,5.75-13,8.66-3.71,2.5-7.61,4.98-10.63,8.33-3.34,3.71-5.33,8.32-4.73,13.36.31,2.6,1.15,5.1,2.5,7.35,1.47,2.46,3.51,4.12,5.52,6.09,1.32,1.29,3.1-.33,2.42-1.86-.9-2.02-1.48-4.1-2.34-6.14-.84-1.98-1.71-4.11-1.9-6.27-.35-3.93,1.9-7.08,4.67-9.62,3.16-2.91,6.94-5.14,10.5-7.52,20.83-13.89,42.85-18.65,67.46-22.34-6.77-4.18-16.13-.25-23.26-3.77,1.05-1.66,3.1-2.32,4.99-2.85,9.96-2.81,19.6-6.17,29.64-8.68,2.53-.59,5.08-1.08,7.62-1.61,2.94-.61,5.9-1.44,8.92-1.38.08,0,.08-.12,0-.13-2.5-.1-4.94-.69-7.43-.96v.03Z"/>
		<path class="st23" d="M725.92,681.01c-1.39,4.39-6.17,6.29-8.9,9.73-3.25,4.1-2.98,9.54-5.26,14.09-2.29,4.58-5.73,8.32-9.37,11.87-4.28,4.18-8.57,8.34-12.86,12.52-9.12,8.89-18.23,17.79-27.33,26.7-4,3.92-7.87,8.34-12.53,11.48-4.9,3.31-9.94,3.67-15.69,2.96-6.52-.81-12.74-1.42-19.24-.02-5.66,1.22-11,4.8-16.95,4.22-1.18-.11-1.79,1.34-1.29,2.24,2.92,5.27,9.35,2.92,13.78,1.23,6.05-2.31,12.13-2.91,18.55-2.2,5.99.66,12.24,1.64,18.08-.46,5.16-1.85,9.34-5.48,13.23-9.24,9.79-9.47,19.44-19.08,29.13-28.65,4.77-4.71,9.55-9.41,14.32-14.12,3.88-3.83,7.76-7.8,10.67-12.44,1.6-2.56,2.81-5.39,3.4-8.36.65-3.27.35-6.73,2.16-9.67,2.37-3.85,6.17-7,6.23-11.87,0-.07-.1-.08-.12-.02h0Z"/>
		<path class="st23" d="M771.5,632.29c-2.25,3.16-3.18,7.7-4.05,11.43-.93,3.98-1.51,8.01-1.93,12.08-.88,8.53-1.47,17.13-3.79,25.43-4.38,15.73-12.79,30.12-10.44,47,.63,4.55,1.83,9,3.41,13.31,1.61,4.39,3.23,8.99,6.79,12.15.84.75,2.37.28,2.33-.96-.13-3.97-1.77-7.24-3.11-10.92-1.42-3.89-2.7-7.83-3.49-11.91-1.56-8.03-.55-15.86,1.84-23.61,2.32-7.52,5.55-14.72,7.8-22.27,2.32-7.8,3.16-15.92,3.52-24.02.2-4.5.33-9,.49-13.5.08-2.3.19-4.59.4-6.89.21-2.37.75-4.83.68-7.21,0-.25-.31-.31-.44-.12h-.01Z"/>
		<path class="st23" d="M176.98,698.49c-3.7-7.06-12.98-2.06-16.7,2.31-4.7,5.52-7.6,12.55-9.32,19.53-1.82,7.38-2.47,15.03-2.8,22.61-.38,8.63-.73,17.31-.44,25.95.16,4.79.43,9.62,1.27,14.35.81,4.6,1.7,9.67,4.38,13.6.05.08.17.05.18-.05.35-4.96-.68-10.04-.91-15-.22-4.79-.39-9.55-.3-14.34.18-9.4.68-18.82,1.47-28.19.7-8.32,1.91-16.84,5.22-24.58,2.51-5.87,7.61-15.6,15.44-12.93,1.94.66,3.35-1.65,2.51-3.26h0Z"/>
		<path d="M1057.93,1067.75c-5.15-9.85-11.58-18.98-17.64-28.28-6.02-9.22-11.21-18.45-15.24-28.7-4.71-11.95-9.58-23.83-14.58-35.65-10.36-24.47-21.39-48.65-33.08-72.51-10.04-20.5-20.62-40.99-40.83-53.17-10.39-6.26-22-10.51-33.17-15.14-12.44-5.16-24.91-10.25-37.41-15.27-5.79-2.33-11.59-4.64-17.39-6.93-2.75-1.09-5.5-2.17-8.25-3.25-2.79-1.1-7.5-2.09-9.73-4.33-3.31-3.33-3.08-9.95-5.5-14.1-2.25-3.87-5.5-6.94-9.09-9.54-7.63-5.54-16.87-8.18-24.97-12.89-8.82-5.13-15.68-13.19-19.84-22.47-9.95-22.19-.12-45.11,6.13-66.8,3.13-10.89,3.37-21.64,4.12-32.86.32-4.86.91-9.82,2.68-14.4,2.18-5.63,6.83-9.66,9.27-15.13,2.14-4.81,2.64-10.02,3.12-15.2.65-6.98,1.15-13.98,1.54-20.98.71-12.93,1.11-25.94.74-38.88-.33-11.81-1.69-23.79-6.54-34.69-4.79-10.75-13.37-18.98-21.32-27.41-8.96-9.5-17.93-19.01-26.89-28.51-8.39-8.89-16.69-16.68-28.68-20.24-12.06-3.59-25.2-4.9-37.7-6.04-12.73-1.16-25.57-1.42-38.32-.41-23.69,1.88-48.9,6.94-66.82,23.65-8.33,7.77-14.82,17.33-20.65,27.04-6.07,10.11-11.81,20.45-16.66,31.21-4.49,9.98-8.21,20.24-10.9,30.83-13.16,7.75-26.31,15.49-39.47,23.24-10.16,5.98-22.88,12.02-27.55,23.67-5.09,12.7,4.85,24.05,12.53,33.2,8.12,9.67,19.49,17.93,32.78,16.71,5.04-.46,9.83-2.22,13.69-5.54,1.32-1.13,2.51-2.41,3.78-3.59.13-.12.31-.26.51-.4.15.58.28,1.12.34,1.49.47,2.89.95,5.78,1.68,8.62,1.85,7.17,7.2,13.8,7.97,21.15.66,6.32-2.65,12.75-3.07,19.06-.48,7.19,1.3,14.41,3.9,21.06,5.48,13.97,13.34,27.31,21.21,40.05,8.27,13.38,17.51,26.09,27,38.63,4.18,5.53,9.13,10.08,15.93,12.04,2.78.8,5.63,1.12,8.48,1.14-3.5.85-7.12,1.3-8.6,1.8-5.76,1.93-9.68,5.62-13.5,10.19-9.13,10.92-22.71,16.9-35.76,21.86-28.17,10.71-55.94,21.31-82.55,35.62-13.41,7.21-26.49,15.04-39.17,23.45-12.34,8.18-24.42,19.58-38.53,24.57-11.8,4.17-25.05,1.29-36.66-2.16-11.77-3.5-24.95-7.8-35.29-14.55-12.9-8.42-11.99-26.39-23.13-36.56-9.14-8.35-22.53-11.65-34.38-8.07-27.64-20.65-39.53-55.61-45.92-88.33-1.95-10-3.64-19.82-7.15-29.43-2.97-8.13-4.59-16.89-8.97-24.45-7.73-13.34-25.88-21.21-39.07-10.7-9.74,7.76-12.55,21.45-13.93,33.16-1.73,14.63-.76,29.65,1.28,44.18,1.18,8.4,3.46,16.29,5.39,24.49.47,2.01,1.63,5.85.27,7.76-1.79,2.52-7.98,1.81-10.74,1.89-13.09.33-27.07-.53-39.56,4.14-13.81,5.17-22.54,16.8-25.61,31.07-1.99,9.23-1.58,19.16-7.3,27.14-2.51,3.49-5.49,6.59-7.46,10.46-2.06,4.05-3.13,8.38-3.59,12.88-.94,9.11,1.2,18.19,2.36,27.18,1.29,9.96-.56,18.63-1.92,28.43-1.39,9.98,1.11,18.26,4.97,27.37,4.44,10.47,8.79,20.99,13.34,31.42,5.82,13.34,15.35,25.17,28.79,31.36,13.44,6.18,28.25,6.65,42.69,4.58,19.48-2.8,37.83-11.01,57.45-13.05,2.44-.25,4.9-.4,7.35-.44.52,0,1.08.02,1.63.04.14,2.5.92,5.83,1.05,7.26.68,7.28,1.62,14.63,3.61,21.67,4.16,14.71,14.49,27.08,28.95,32.7,7.8,3.03,16.51,3.2,24.21-.17,4.04-1.77,7.66-4.73,12.28-4.24,5.61.59,11.27,2.41,16.82,3.44,20.71,3.84,42.04,6.46,63.13,6.46,9.36,0,19.04-.79,27.92-3.91,8.37-2.94,15.26-7.88,21.77-13.82,3.01-2.75,5.93-5.6,9.06-8.22,1.53-1.28,3.12-2.45,4.81-3.51.34-.21.69-.42,1.03-.62-.32,1.9-1.16,3.78-1.87,5.51-2.22,5.43-4.02,10.75-5.56,16.42-3.22,11.89-6.12,23.86-8.7,35.9-5.28,24.61-9.21,49.52-11.86,74.55-2.66,25.14-3.96,50.42-3.87,75.7.04,12.2.88,24.37,1.01,36.56.04,3.85.1,8.79-2.93,11.65-1.47,1.38-3.43,2.16-4.87,3.61-1.99,2-2.96,4.48-3.44,7.21-1.19,6.78-1.43,13.86-2.16,20.72-.76,7.1-1.52,14.21-1.98,21.34-.43,6.61-.9,13.44-.3,20.05.58,6.41,3.97,10.04,9.38,13.1,25.12,14.15,51.12,26.89,78.19,36.86,26.47,9.75,53.68,15.48,81.63,18.91,54.1,6.63,109.2,4.32,162.68-6.13,52.86-10.33,104.21-28.9,151.31-55.04,4.98-2.76,11.19-5.3,15.18-9.47,5.03-5.25,3.02-12.5,1.96-18.84-2.55-15.17-4.83-30.41-5.42-45.8-.48-12.41,1.06-24.15,4.54-36.06,3.41-11.65,7.3-23.1,9.1-35.15,2.21-14.77,2.95-29.82,4.48-44.67.97-9.46,1.97-18.93,3.3-28.34.21-1.51.41-3.04.63-4.58,4.64,8.6,8.7,17.54,12.54,26.48,1.34,3.12,3.17,6.45,4.04,9.76-.03-.01-.04.13,0,.62.1,1.35,0,2.75,0,4.11-.03,3.71-.14,7.42-.29,11.13-.64,16.17-1.98,32.33-3.67,48.43-1.76,16.78-3.68,33.55-8.22,49.84-2.15,7.73-4.75,15.09-5.97,23.04-.5,3.27-.97,6.55-1.58,9.8-.28,1.5-.56,3-.96,4.47-.34,1.26-1.44,2.65-.17,1.33-5.54,5.75,2.66,13.52,8.61,8.61,18.81-15.52,33.69-35.31,50.07-53.26,16.56-18.15,31.71-37.62,45.25-58.12,25.98-39.34,47.81-83.84,59.34-129.71,3.68-14.65,6.63-29.54,9.15-44.43,1.16-6.85-2.9-13.84-6.01-19.8l-.04-.13ZM875.64,1250.06v.06c-.05.44-.27,1.69,0-.06ZM1024.71,1181.57c-12.02,28.33-26.96,55.44-44.37,80.81-17.47,25.45-38.37,47.58-58.4,70.93-5.1,5.95-10.28,11.82-15.71,17.43.62-3.65,1.36-7.26,2.48-10.86,5.56-17.74,8.63-35.54,10.78-53.96,2.02-17.26,3.58-34.59,4.48-51.95.38-7.37.88-14.85.59-22.23-.14-3.51-1.72-6.5-3.05-9.72-6.56-15.81-13.62-31.7-23.06-46.03-3.02-4.58-9.29-3.48-11.13,1.45-1.84,4.92-2.51,10.35-3.3,15.51-1.27,8.3-2.26,16.64-3.19,24.98-1.7,15.36-3.04,30.74-4.56,46.12-.2,1.98-.39,3.96-.63,5.93-.2,1.24-.41,2.48-.63,3.71-.62,3.36-1.36,6.69-2.19,10-2.74,10.83-6.79,21.32-9.05,32.27-2.6,12.57-2.6,25.21-1.57,37.96,1.19,14.84,4.58,29.35,6.08,44.1.34,3.3-1.29,3.49-4.03,5.08-2.76,1.6-5.53,3.18-8.32,4.73-6.09,3.38-12.24,6.63-18.47,9.74-11.71,5.87-23.65,11.29-35.8,16.2-24.48,9.87-49.72,17.84-75.42,23.85-51.45,12.04-104.71,16.06-157.39,11.82-30.08-2.42-59.98-7.29-88.65-16.88-29.9-10-58.37-23.88-85.8-39.33-1.31-.74-2.71-1.31-3.29-2.7-.6-1.43-.23-3.71-.24-5.23-.03-4.91.16-9.81.47-14.7.57-8.76,1.57-17.48,2.5-26.21.45-4.19.46-8.64,1.28-12.77.6-3.01,4-3.99,6.02-6.24,4.52-5.03,5.58-12.06,5.59-18.59.02-17.29-1.22-34.54-.92-51.85.31-17.82,1.31-35.63,2.99-53.37,3.37-35.59,9.56-70.91,18.43-105.55,2.04-7.95,3.88-16.06,7.11-23.62,1.29-3.01,2.53-5.96,3.04-9.21.29-1.83.36-3.52.17-5.35-.06-.55-.15-1.1-.23-1.65-.02-.34-.17-1.95-.21-2.24-1.07-7.94-10.52-6.75-15.64-4.22-6.33,3.13-11.64,8.11-16.78,12.87-5.17,4.8-10.33,9.54-16.89,12.38-7.16,3.1-15.06,4.08-22.79,4.32-17.42.54-35.19-1.34-52.39-3.98-8.77-1.34-17.44-3.11-26.12-4.93-3.5-.74-6.98-1.31-10.55-.72-4.13.69-7.58,2.87-11.29,4.64-6.2,2.97-13.07,2.21-19.05-.98-4.93-2.63-10.5-7.1-13.59-11.85-6.17-9.51-7.43-21.83-8.32-32.86-.42-5.15.52-12.7-5.02-15.36-6.32-3.03-16.47-.81-23.11.17-27.2,4.02-55.26,19.62-83.12,11.05-10.92-3.36-19.45-10.94-25.14-20.73-4.16-7.17-7-15.14-10.24-22.75-3.34-7.88-7.37-15.77-9.8-23.99-2.46-8.32.23-16.31,1.41-24.6,1.09-7.65.35-15.07-.74-22.68-1.07-7.45-2.83-15.37-1.57-22.91,1.28-7.62,6.75-12.2,10.62-18.47,7.74-12.58,4.23-28.65,12.38-41.11,5.58-8.54,15.6-11.53,25.27-12.45,5.61-.53,11.26-.59,16.89-.67,6.03-.09,12.75.39,18.55-1.48,14.04-4.52,11.16-19.04,7.96-30.06-4.11-14.11-5.3-29.39-5.29-44.03,0-9.41.71-19.03,3.69-28.02,2.95-8.89,9.71-16.5,19.7-11.15,6.61,3.54,9.5,10.54,11.66,17.32,2.4,7.53,5.3,15.01,7.23,22.67,3.83,15.17,6,30.55,10.6,45.56,4.09,13.34,9.29,26.54,16.63,38.45,7.33,11.89,17.04,23.26,28.78,30.99,5.38,3.54,11.99-1,18.23-.22,6.03.74,11.95,3.85,15.66,8.7,4.22,5.52,5.84,12.71,8.64,18.97,3.11,6.94,7.85,12.46,14.24,16.59,11.2,7.24,25.49,12,38.2,15.78,13.2,3.93,28.33,6.8,41.83,2.6,15.11-4.7,27.53-16.04,40.46-24.71,27.86-18.7,57.65-34.66,88.76-47.25,14.87-6.02,30.29-10.71,44.94-17.29,7.26-3.26,14.19-7.14,20.5-12,5-3.85,8.17-9.6,13.15-13.31,5.9-4.4,14.59-3.06,20.84-7.33,5.83-3.98,8.78-10.25,7.37-17.21-.69-3.39-4.44-4.85-7.49-4.25-6.81,1.34-15.22,3.2-21.43-.96-5.3-3.55-8.96-10.26-12.72-15.28-9.47-12.64-18.14-25.88-25.96-39.6-7.15-12.55-17.87-28.26-16.57-43.37.63-7.36,3.93-14.05,2.76-21.6-1.11-7.23-5.6-13.23-7.63-20.16-1.75-5.97-1.1-14.14-4.51-19.44-2.72-4.23-7.87-4.67-12.06-2.52-3.65,1.87-6.47,5.02-9.44,7.76-3.26,3-9.12,3.82-14.53,2.12-6.54-2.05-11.53-7.15-15.83-12.27-3.7-4.41-10.74-11.38-10.46-17.54.26-5.65,6.34-9.98,10.6-12.79,6.53-4.31,13.48-8.05,20.22-12.02,7.24-4.26,14.47-8.52,21.71-12.78,3.47-2.04,6.99-4.03,10.42-6.13,3.93-2.41,4.48-4.72,5.62-9.03,3.76-14.29,9.61-27.83,16.56-40.83,6.7-12.53,13.79-25.55,23.38-36.13,10.11-11.15,22.79-17.28,37.28-20.78,15.87-3.83,32.25-5.02,48.54-4.54,15.69.46,31.97,1.96,47.22,5.83,15.41,3.91,24.85,16.72,35.29,27.8,5.6,5.94,11.2,11.88,16.81,17.82,5.13,5.44,10.75,10.72,15.11,16.83,8.48,11.88,9.74,26.64,9.93,40.8.22,16.49-.44,33.01-1.75,49.45-.58,7.33-.52,14.83-4.96,21.02-3.97,5.53-7.29,10.75-8.91,17.48-3.11,12.95-1.06,26.49-4.5,39.37-3.97,14.87-9.7,29.19-11.44,44.59-1.5,13.29.88,26.63,7.24,38.42,5.9,10.93,15.08,19.88,26.18,25.45,8.76,4.4,22.67,7.8,26.86,17.72,2.72,6.43,2.68,12.58,9.05,16.88,6.07,4.1,14.13,6.11,20.9,8.79,15.27,6.04,30.51,12.19,45.7,18.44,13.96,5.74,28.8,10.82,41.54,19.04,12.13,7.83,20.05,19.87,26.71,32.39,15.07,28.36,28.14,58,40.65,87.57,6.09,14.4,11.23,29.31,17.75,43.51,5.53,12.05,13.53,22.85,20.69,33.95,3.6,5.58,7.11,11.26,10.07,17.21,1.05,2.1,1.86,6.35,3.39,7.99.16.17.28.26.38.28-1.24,7.71-2.81,15.39-4.36,23.04-5.21,25.6-12.94,50.25-23.16,74.31v.04ZM428.49,1059.95c.13-.03.12-.01,0,0h0Z"/>
		<g>
			<path class="st13" d="M417.03,1492.93c-1.73,6.02-5.95,11.66-9.31,16.86-4.08,6.32-8.13,12.51-11.82,19.05-2.15,3.81-4.32,7.6-6.57,11.35-3.23,5.4-6.65,10.79-8.53,16.8-.39,1.24-.71,2.55-.54,3.84.17,1.29.8,2.46,1.46,3.58,5.41,9.22,12.99,17.16,21.94,23,.44.29.92.58,1.44.53,1.82-.17,3.8-5.24,4.59-6.69,1.55-2.88,3.05-5.79,4.54-8.7,2.99-5.84,5.89-11.73,9.02-17.5.35-.65,3.2-4.46,3.03-5.06l14.39,52.42,28.78-38.5,4.86,48.04c14.62-4.34,28.68-12,42.88-17.96-.31-21.29-4.9-42.48-6.39-63.69-.29-4.11-.85-9.05-.44-13.06.88-8.51,5.17-21.16,7.38-29.85l16.04,124.67,78.92,1.13c-2.7,18.81-7.95,37.26-11.69,55.91l-78.93-1.49c-3.52-17.84-4.53-36.06-6.95-54.05-.22-1.6.73-1.65-1.83-1.56l-8.72,38.15-41.99,18.74-.97-.05-3.3-49.91-30.28,39.41-12.99-51.37-2.84,1.47-21.08,37.27-26.79-28.68c-2.16-5.86,4.25-18.43,3.7-25.15l-18.55,27.41-70.66-35.03,12.5-55.81,66.53,33.19,4.89.22,21.17-32.99-40.14-15.3c-.29-.36,2.72-7.27,3.88-7.51,1.78-.37,19.71,8.95,23.7,8.84,2.05-2.28,12.3-16.16,11.26-17.81-4.02-2.89-18.62-10.02-20.82-13.24-1.59-2.32.1-6.12,2.85-6.29,5.1.88,37.71,16.86,39.58,15.65l18.17-29.23c-1.13,8.71-3.02,20.73-5.39,28.98l.02-.03Z"/>
			<path class="st1" d="M1002.8,1492.67l-74.38-102.24c2.75-7.27,29.88-37.97,36.84-42.95,6.42-4.6,28.07-11.74,46.88-1.53,23.13,12.55,36.2,38.1,39.15,63.46,0,0,1.24,22.07-5.84,37.74-8.88,11.71-18.51,22.8-29.01,33.13M1005.39,1439.22c7.5-11.35,12.53-23.43,6.8-36.73-7.06-16.38-31.72-25.21-32.41-.3,3.53,5.43,24.36,36.96,25.61,37.03Z"/>
			<path class="st0" d="M165.04,1424.42l13.68,37.76,39.75-24.3,1.81,31.32,33.32-3.17-16.05,46.95c3.48-.07,6.96-.14,10.44-.21,6.88-.14,13.77-.28,20.65-.42,3.05-.06,6.1-.13,9.15-.19,1.17-.02,2.36-.11,3.54-.06,2.35.09,2.84-.98,3.43-3.32,1.99-7.89,4.66-15.6,7.96-23.04.95-2.13,1.96-4.26,3.49-6.03.43-.49,1.15-.98,1.66-.57.22.18.31.47.37.74.51,2.24-5.42,26.5-7.4,32.01-3.96,10.99-14.85,45.29-18.16,56.49l-47.77.52,10.17-46.28-26.5,3.52-2.74-32.34-35.43,22.41-4.24.89-13.81-35.79c.2-1.58,2.72-11.95,3.4-15.25,2.02-9.85,5.65-33.86,9.27-41.64h.01Z"/>
			<path class="st3" d="M928.42,1390.43l.63.87,1.63,2.24,2.51,3.45,3.28,4.51,3.94,5.42,4.49,6.17c1.64,2.26,3.28,4.51,4.92,6.77l5.25,7.22,5.46,7.51c1.85,2.55,3.71,5.1,5.56,7.65l5.55,7.64,5.43,7.47,5.2,7.15,4.85,6.68c1.47,2.02,2.93,4.03,4.4,6.05,1.28,1.76,2.55,3.51,3.83,5.27l3.15,4.33,2.36,3.25.85,1.17c.16.22,1.05,1.48,1.1,1.43,3.11-3.21,6.38-6.25,9.81-9.11,1.96-1.64,3.85-3.28,5.63-5.11s3.57-3.71,5.34-5.58c3.87-4.12,7.65-8.32,11.31-12.61,1.83-2.15,3.64-4.32,5.41-6.51.89-1.1,1.76-2.2,2.63-3.32.44-.56.87-1.11,1.3-1.67.22-.29.45-.58.67-.87.14-.19.51-.52.56-.74-3.41,15.11-5.8,32.01-10.32,46.65-4.41,14.3-17,27.8-27.24,38.69-2.28,2.42-15.96,16.62-17.77,16.14l-20.63-27.35-10.64,46.3c-2.31,2.95-22.99-2.64-27.66-1.35-1.39,1.06-2.86,17.61-4.54,20.15-1.45,2.2-27.79,12.3-32.07,14.94l-2.75-1.15c-8.9-11.77-16.61-26.62-25.9-37.85-1.03-1.24-1.81-2.89-3.73-2.66-5.44,29.33-7.25,55-33.67,73.2-19.99,13.76-48.03,16.45-67.63.6-1.52,3.83-2.36,17.41-5.52,19.08l-79.78,18.5-26.17-125.84c4.61-17.02,6.44-36.75,11.46-53.4l27.01,122.2,80.73-17.2-25.56-37.26c-.86-.56-3.57.28-4.74.6l9.88-40.45c-2.46,62.54,64.4,92.68,106.9,44.96,25.17-28.26,15.98-86.84-18.01-104.77.67-2.59.77-6.33,1.42-8.7l66.4,93.66c1.27,1.05,2.37.26,3.61-.12,3.27-1,29.85-13.16,30.31-14.78l-12.6-20.62,44.74,2.29,5.59-32.87-35.99-1.85c4.44-18.94,8.7-40.65-3.46-57.64-2.46-3.43-8.77-9.76-12.5-11.45,1.3-5.34,1.91-12.33,3.82-17.35l-.04-.03Z"/>
			<path class="st8" d="M165.04,1424.42c1.03-2.21,11.15-10.62,13.8-12.97l76.99-65.27,9.37,64.85,61.34-17.33-35.7,118.19-53.3,1.09,16.05-46.95-33.32,3.17-1.81-31.32-39.75,24.3-13.68-37.76h.01Z"/>
			<path class="st7" d="M438.26,1459.91l23.65,52.85,43.71-35.75s4.92,49.17,5.21,53.29c1.49,21.21,6.07,42.4,6.39,63.69-14.2,5.96-28.26,13.62-42.88,17.96l-4.86-48.04-28.78,38.5-14.39-52.42c-3.43,4.21-19.32,38.65-21.53,38.92-1.8.22-8.03-6.09-9.82-7.84-2.51-2.46-18.44-19.92-18.38-21.41.05-1.34,61.68-99.75,61.68-99.75h0Z"/>
			<path class="st4" d="M837.04,1460.07c33.99,17.93,43.18,76.51,18.01,104.77-42.5,47.72-109.35,17.58-106.9-44.96,1.67-42.51,47.28-81.76,88.89-59.81ZM817.27,1549.19c11.61-8.87,14.65-25.75,8.94-39-10.59-24.56-36.03-11.75-39.8,10.46-3.14,18.5,10.98,43.73,30.85,28.54h.01Z"/>
			<path class="st6" d="M517.81,1487.32c.36-1.39-.04-3.36.25-4.87l102.76,12.11c-2.89,12.42-4.37,25.17-6.81,37.68l-38.96-1.03-.35,6.82,28.25.97-4.63,24.68c-1.09,1.44-22.62.85-25.94.55l-.44,8.76c11.02-.87,22.16-.99,33.21-1.22,3.61-.07,7.15-.33,10.75-.43-1.31,12.57-.47,26.08-1.9,38.54-.2,1.73-1.17,2.92-1.21,3.24l-78.92-1.13-16.04-124.67h-.02Z"/>
			<path class="st5" d="M924.58,1407.91c3.73,1.69,10.04,8.02,12.5,11.45,12.16,16.99,7.9,38.69,3.46,57.64l35.99,1.85-5.59,32.87-44.74-2.29,12.6,20.62c-.46,1.62-27.03,13.78-30.31,14.78-1.24.38-2.34,1.17-3.61.12l-66.4-93.66c.24-.87.22-1.78,1.03-2.41,23.18-13.94,55.01-54.6,85.07-40.96h0ZM900.75,1448.83c-3.4.6-10.05,6.77-10.09,10.46-.03,3.03,4.21,9.46,6.06,12.26,2.94,4.44,3.74,9.01,8.26,3.56,6.37-7.7,10.87-28.95-4.23-26.28Z"/>
			<path class="st2" d="M422.4,1463.94c-.06.11-.12.21-.18.32-1.18,1.96-2.42,3.9-3.63,5.84-2.03,3.26-4.06,6.53-6.08,9.79-1.91,3.07-3.81,6.14-5.72,9.2-.85,1.36-1.69,2.72-2.54,4.08-1.86,1.21-34.48-14.77-39.58-15.65-2.75.17-4.44,3.97-2.85,6.29,2.21,3.22,16.8,10.36,20.82,13.24,1.04,1.66-9.21,15.53-11.26,17.81-3.99.11-21.92-9.21-23.7-8.84-1.16.24-4.17,7.16-3.88,7.51l40.14,15.3-22.05,34.36-4.01-1.6-66.53-33.19,45.46-115.67c3.13,1.79,6.27,3.57,9.41,5.33,6.5,3.65,13.02,7.25,19.55,10.84s13.07,7.18,19.59,10.8c6.51,3.61,36.97,20.92,37.32,22.49.14.63-.02,1.2-.29,1.73v.02Z"/>
			<path class="st10" d="M660.83,1491.79c.27-.91,1.11-3.57,1.85-3.83l50.64-10.62,7.09,88.7c.93,1.14,15.43-5.25,17.85-5.91,1.17-.32,3.88-1.16,4.74-.6l25.56,37.26-80.73,17.2-27.01-122.2h.01Z"/>
			<path class="st15" d="M613.95,1532.24c-2.58,13.22-5.9,26.39-8.85,39.53-11.05.23-22.19.35-33.21,1.22l.44-8.76c3.32.3,24.85.89,25.94-.55l4.63-24.68-28.25-.97.35-6.82,38.96,1.03h-.01Z"/>
		</g>
		<path d="M823.14,810.12c-.08-2.5-.39-4.99-.67-7.47-.21-1.85.03-4.1-1.8-5.13-1.58-.88-4.04.62-3.3,2.54.06.15.15.27.22.41.21,8.66-.29,17.39-.91,26.02-.63,8.86-1.24,30.6-1.24,30.6,0,0-5.91,4.24-10.51,6.79-7.37,4.08-25.15,15.09-25.15,15.09,0,0,28.84,25.12,28.81,25.21,0,0-3.09,6.33-4.23,8.93-1.54,3.5-3.06,7.01-4.61,10.5-2.96,6.7-6.02,13.36-9.39,19.87-6.6,12.74-14.3,24.89-22.14,36.89-7.69,11.77-15.35,23.57-23.23,35.21-30.73,45.4-65.01,88.43-93.18,135.54-6.25,10.45-12.79,20.99-18.04,31.93-5.55,11.57-10.93,23.22-16.14,34.95-.72,1.63-1.45,3.28-1.75,5.04-.24,1.4-.21,2.84-.17,4.26.18,7.05.35,14.09.53,21.14,3.37-15.27,9.48-29.75,16.19-43.82,6.66-13.94,12.78-27.73,20.52-41.19,14.13-24.55,30.1-47.99,46.49-71.07,16.41-23.12,33.27-45.92,49.27-69.32,2.05-3,4.06-6.03,6.07-9.05.4-.2.8-.42,1.13-.54,1.48-.54,41.67-5.39,50.33-8.33.05-.02-9,.26-9.05.27-9.24.51-38.3,3.37-38.93,3.41,3.64-5.49,7.25-11,10.86-16.51,1-.3,34.14-1.72,36.74-1.86,1.4-.08,3.55-.55,4.01,1.16.48,1.75-.54,4.18-1.02,5.85-.56,1.96,5.55-6.23,5.33-11.19,0,0-39.28.51-41.44.52l.21-.32c8.04-12.25,15.97-24.61,22.83-37.57,3.88-7.32,7.33-14.86,10.68-22.44,1.67-3.79,3.31-7.6,4.97-11.41,1.19-2.74,5.56-12.38,5.56-12.38,0,0-21.53-19.48-26.14-23.34,6.51-3.45,13.1-6.75,19.53-10.36,6.05-3.4,10.98-8.25,10.98-8.25,0,0,1-16.09,1.18-20.82.18-4.96.46-9.91.58-14.87s.18-9.92.03-14.88h-.01Z"/>
		<path d="M775.33,764.28c-.92-1.43-2.85-.19-2.22,1.3,1.04,2.43.98,4.77,1.15,7.35.17,2.68.01,5.34-.51,7.97-1.11,5.59-3.03,10.99-5.08,16.3-.73,1.88-1.53,3.72-2.32,5.56-.93,2.16-5.72,4.22-7.4,6.17-2.39,2.77-4.81,5.52-7.35,8.16-5.03,5.22-10.56,10.05-16.99,13.46-3.16,1.68-6.49,3-9.82,4.32-9.32,3.69-18.64,7.39-27.96,11.08-1.86.74-23.09,9.6-23.2,9.42-.01-.02-5.29-9.18-6.68-12.08-5.01-10.56-10.66-20.81-17.97-30,2.54,10.29,5.11,20.68,9.9,30.13.94,1.85,1.96,3.67,2.69,5.62.34.91.61,1.92.32,2.84-.22.69-.72,1.25-1.21,1.79-2.94,3.21-5.88,6.42-8.9,9.55-1.24,1.28-2.52,2.57-4.08,3.43-1.96,1.08-4.24,1.41-6.47,1.63-3.56.35-7.14.44-10.72.39-3.62-.05-7.25-.26-10.78-1.04-2.11-.47-4.26-1.19-5.78-2.73-1.17-1.19-1.86-2.76-2.42-4.33-1.82-5.11-1.57-10.27-2.13-15.61,5.92-8.4,11.72-16.56,18.18-24.59,1.06-1.31,2.12-2.63,3.44-3.69,2.25-1.8,5.33-3.4,8.1-4.17,2.26-.63,5.92-2.49,8.12-2.46-2.79-.04-5.57.06-8.35.29-2.09.17-4.23.44-6.12,1.36-2.02.98-3.62,2.64-5.12,4.31-7.48,8.34-15.39,16.23-23.05,24.45-1.44-.88.21-9.26.41-10.93.48-4.2,1.2-8.37,2.17-12.49,1.31-5.54,3.11-11,5.67-16.09,1.27-2.52,2.7-5,4.34-7.29.4-.57.85-1.12,1.3-1.67.03.08.04.18.07.26,2.25,6.37,9.11,9.39,14.51,12.47,1.69.97,3.54,1.65,5.43,2.11,8.78,2.13,18.09-.79,26.39-3.53,14.67-4.84,29.11-10.23,43.56-15.67,13.25-4.99,27.05-8.77,39.98-14.55,5.9-2.64,13.65-5.94,16.4-12.25,2.4-5.49.33-11.29-3.46-15.54-.42-.47-1.22-.09-1.22.5.03,4.07,1.64,9.61-.67,13.3-1.34,2.14-3.63,3.37-5.77,4.55-2.73,1.51-5.53,2.89-8.39,4.12-11.47,4.92-23.62,8.19-35.32,12.51-18.32,6.77-36.3,14.46-54.45,21.76-4,1.61-8.21,3.25-12.49,2.73-3.95-.48-7.44-2.74-10.74-4.96-2.79-1.87-5.63-3.84-7.46-6.65-3.01-4.63-.17-8.55-.73-13.42.3.02.61.02.91.05,5.64.5,11.35,1.73,17.02,1.11,11-1.19,18.48-9.63,25.86-16.98,9.8-9.77,19.67-19.44,29.19-29.48,4.55-4.8,9.1-9.62,13.62-14.46,3.73-3.99,7.57-8.39,9.4-13.63,1.16-3.34.74-6.88,1.57-10.27.75-3.03,2.55-5.78,4.03-8.48,3.1-5.64,3.22-11.99,5.26-17.98.04-.12-.13-.21-.21-.12-3.78,3.79-3.87,9.58-6.37,14.1-2.82,5.1-7.14,8.48-8.11,14.5-.46,2.84-.64,5.65-1.96,8.25-1.36,2.68-3.26,5.04-5.26,7.27-4.05,4.53-8.39,8.85-12.58,13.25-9.71,10.19-19.62,20.21-29.77,29.96-6.99,6.72-14.34,16.52-24.66,17.78-6.42.78-13.02-1.11-19.41-1.44-3.14-.16-6.5-.09-9.54.83-3.06.93-5.85,3.33-8.19,5.45-1.4,1.27.38,3.11,1.88,2.44,3-1.34,6.28-1.67,9.51-2.09.51-.07,1.03-.05,1.54-.09-.24,1.28-.3,2.69-.34,3.95-.03.76-.03,1.53,0,2.31-4,2.26-7.31,7.14-9.42,10.67-3.26,5.44-5.48,11.49-7.09,17.61-3.15,11.99-4.1,32.69-3.53,45.05,0,0,7.82-9.81,8.37-10.6-.03.46-.4,2.78-.44,3.24-.12,1.47-.12,2.99-.07,4.52-2.6,4.66-4.53,9.83-6.51,14.65-2.71,6.61-5.41,13.22-7.95,19.9-5.17,13.63-10.12,27.36-14.5,41.27-8.74,27.76-15.41,56.27-17.94,85.31-.7,8.06-1.08,16.15-1.08,24.24,0,4.2.1,8.41.32,12.61.2,3.92.31,7.92,1.2,11.75-5.08,30.02-9.33,60.18-12.84,90.42-1.59,13.73-3.01,27.48-4.34,41.24-6.07-18.37-10.69-37.26-13.59-56.35-3.58-23.56-4.63-47.45-4.86-71.25-.22-23.67,6.21-127.31,8.11-137.67.88-4.82,1.02-9.23,1.02-9.23,0,0,12.6-12.11,17.05-15.84,9.12-7.64,21.21-16.06,30.33-23.69,1.14-.96-22.61-24.91-22.61-24.91,0,0,5.48-7.97,7.6-10.87,11.42-15.62,20.93-32.45,29.88-49.57.99-1.9-1.71-3.48-2.87-1.68-8.9,13.83-42.14,59.98-41.52,62.83.65,2.97,15.46,18.41,19.37,22.71-7.58,5.92-15.33,11.61-22.79,17.68-4.1,3.34-8.1,6.81-11.84,10.56-3.54,3.55-9.33,8.56-9.33,8.56,0,0-1.61,12.18-2.28,16.74-.75,5.15-6.96,75.99-7.08,88.1-.12,12.01-.25,24.02-.22,36.03.08,24.31,1.25,48.61,3.9,72.79,5.47,49.83,20.03,80.42,20.27,80.58-1.35,15.04-2.58,30.08-3.68,45.14-1.23,16.88-2.4,33.77-2.54,50.71-.07,8.51.09,17.03.59,25.52.48,8.21,1.59,16.31,2.71,24.45.14,1.02,1.16,15.9,1.16,15.9,1.35,1.87,4.12,5.44,7.38,9.55.82,3.6.61,7.8.72,11.62.22,7.45.58,14.88.58,22.33s.11,15.12.22,22.68c.07,5.01.68,10.29.06,15.17-.23,1.78,1.55,3.34,3.14,3.56,1.92.26,3.28-.9,3.97-2.59.92-2.23.53-5.21.41-7.55-.17-3.03-.2-6.04-.25-9.07-.13-8.06-.22-16.13-.41-24.19-.17-7.3-.81-14.53-1.24-21.81-.02-.4-.04-.85-.06-1.33,4.74,5.75,9.3,11.05,11.55,13.18,4.23,4,20.59,19.47,20.59,19.47,3.97-5.5,13.02-19,17.09-24.44,2.7-3.61,6.08-7.64,9.69-11.77-.17,2.71-.33,5.42-.47,8.13-.36,7.53-.37,15.08-.41,22.61-.04,7.3.11,14.55.69,21.83.29,3.59.63,7.18.95,10.77.33,3.63-.04,8.16,1.62,11.43,1.36,2.67,5.1,1.69,5.96-.78,1.12-3.24-.03-7.76-.34-11.14-.33-3.59-.67-7.18-.96-10.77-.59-7.45-.68-14.87-.7-22.34-.02-7.37.02-14.74.2-22.11.11-4.75.83-10.13.02-15,5.94-6.53,11.99-12.95,16.74-18.17.81.16-4.97-16.69-6.07-20.37-4.23-14.22-6.09-29.4-7.6-44.12-3.75-36.44-4.54-73.17-4.17-109.78.04-3.66.09-7.32.15-10.98.27-16.64.77-33.28,1.35-49.91.29-8.32.59-16.63.9-24.95.29-7.85.1-14.63,3.5-21.86,3.59-7.64,6.46-15.48,10.25-22.96,3.01-5.93,6.14-11.8,9.33-17.64,12.48-22.81,25.17-45.46,37.34-68.44,12.3-23.22,25.06-46.11,38.42-68.74,13.24-22.43,26.29-44.92,38.4-67.99,6.46-12.31,12.99-24.63,17.94-37.65,2.2-5.78,4.75-12.15,4.79-18.42.03-5.9-1.26-11.25-4.45-16.25h.03ZM569.79,979.86c5.76-28.27,14.69-55.81,24.61-82.86,2.79-7.6,5.57-15.21,8.39-22.8,1.21-3.24,2.55-6.58,3.74-9.96.75,2.26,2,4.13,3.67,5.55-2.39,4.58-3.54,9.77-5.32,14.64-2.83,7.77-5.26,15.68-7.68,23.58-4.93,16.12-9.88,32.21-14.34,48.47-7.74,28.25-14.21,56.77-19.64,85.54-.01-6.53.19-13.07.64-19.59,1-14.31,3.06-28.52,5.92-42.57h.01ZM614.85,1061.03c-1.61,36.26-2.97,72.57-3.77,108.86-.81,36.29-.67,72.64,1.92,108.86,1.27,17.79,3.06,35.55,6.41,53.08,1.02,5.32,2.2,10.52,3.71,15.71,1.09,3.73,2.59,10.07,3.44,13.87,0,0-28.6,31.03-42.41,58.2-3.19-2.05-29.72-31.07-33.54-36.3-1.79-2.45-5.59-8.71-5.59-8.71,0,0,.08-2.76-.21-4.63-1.16-7.55-1.25-15.16-2.18-22.72-1.01-8.19-1.37-16.48-1.57-24.73-.39-16.71.33-33.41,1.46-50.08,2.3-33.74,5.14-67.44,8.79-101.06,3.65-33.59,8.13-67.09,13.7-100.42,5.53-33.11,12.26-65.95,20.71-98.44,4.21-16.16,8.78-32.21,13.57-48.21,5.22-17.44,10.12-34.68,15.99-51.91.15-.43.31-.88.65-1.17.42-.36,1.02-.4,1.57-.42,5.33-.22,10.65-.44,15.98-.66,1.95-.08,4.11-.22,5.99.4,2.45.81,2.07.9,1.97,3.05-.17,3.76-2.22,7.92-2.92,11.67-1.25,6.66-2.41,13.3-3.86,19.92-3.71,17.03-6.34,34.37-9.29,51.54-5.93,34.46-8.98,69.38-10.54,104.29h.02ZM753.37,829.08c-11.71,22.07-23.9,43.79-36.61,65.3-12.78,21.65-25.33,43.38-37.16,65.56-11.78,22.09-23.52,44.18-35.78,66.01-4.01,7.14-7.99,14.31-11.82,21.55-3.74,7.06-6.74,14.37-10.71,21.29.48-.85.01-3.25.05-4.33.06-1.99.18-3.97.27-5.95.19-3.96.39-7.91.62-11.87.46-8.07.99-16.14,1.63-24.2,1.26-15.96,2.93-31.9,5.19-47.76,2.45-17.26,5.69-34.4,8.57-51.59,1.37-8.17,3.29-16.27,4.59-24.44,1.03-6.53,1.48-13.16,2.94-19.61.52-2.29,1.2-4.66,2.11-6.87,1.49-.85,2.9-1.92,4.23-3.28,2.77-2.85,5.37-5.85,8.15-8.69,1.33-1.36,2.7-2.67,4.16-3.9.65-.55,1.31-1.05,1.94-1.57.78.83,5.86,8.17,6.83,8.83,0,0,23.61-9.74,29.49-12.53,12.05-5.73,24.35-11.4,35.65-18.52,6.82-4.3,13.4-8.97,19.87-13.78.66-.49,1.32-.99,1.97-1.48-2.02,3.97-4.08,7.92-6.16,11.85l-.02-.02Z"/>
		<path d="M918.25,1197.42c-1.44-4.82-2.97-9.58-4.81-14.26-6.8-17.29-18.16-31.13-28.86-46.05-2.7-3.76-5.36-7.55-7.94-11.38-1.92-2.86-3.24-6.29-5.91-8.55-1.46-1.23-3.18-2.14-4.61-3.4-2.86-2.5-4.39-6.16-5.82-9.68-1.26-3.09-2.51-6.18-3.77-9.28-1.71,10.18,4.47,22.09,9.58,30.5,4.4,7.24,9.93,13.69,15.35,20.18,5.84,6.98,16.29,15.29,12.44,25.54.64-1.71,6.49,2.32,7.05,2.86,2.37,2.28,3.24,5.26,4.52,8.2,2.24,5.16,4.08,10.5,6.1,15.76,2.11,5.52,4.7,10.7,7.67,15.8.77,1.33,2.71.42,2.4-1.01-1.07-5.08-1.9-10.22-3.38-15.21v-.02Z"/>
		<path d="M964.54,1189.85c-6.95,1.24-13.88,3.69-20.28,7.06-3.1,1.63-6.19,3.48-8.99,5.75-1.34,1.08-2.72,2.3-3.87,3.66-1.06,1.26-1.71,3.06-2.78,4.24-.05.06.02.14.08.09,1.06-.96,2.93-1.47,4.14-2.16,1.5-.85,2.98-1.79,4.47-2.66,2.92-1.71,5.92-3.18,9.03-4.35,6.48-2.44,14.05-6.82,20.8-7.68,12.92-1.63,25.58,1.89,38.44,3.99,2.09.34-26.9-10.45-41.04-7.93h0Z"/>
		<path d="M904.9,875.57c-7.37.69-27.04,13.52-30.27,16.19-2.7,2.22-5.66,4.52-8.03,7.09-3.07,3.32-18.19,46.49-20.66,56.5-1.36,5.5-5.55,15.31-3.74,20.81,4.91-10.49,29.78-68.49,31.13-72.31.74-2.1,27.68-27.92,31.58-28.29h-.01Z"/>
		<path d="M442.49,1323.37c-8.26-1.34-16.64-2.46-24.99-3.05-7.08-.5-14.96-.54-21.51,2.56-5.88,2.78-9.18,7.78-11.59,13.58-.44,1.05,1.07,2.2,1.98,1.52,2.29-1.7,4.56-3.54,6.51-5.63,1.82-1.95,3.74-3.74,6.15-4.95,5.87-2.96,13.76-2.37,20.13-1.99,7.61.46,23.45,3.03,31.04,3.71,3.37.3,18.96-1.35,20.76-1.36,0,0-24.73-3.79-28.47-4.39h-.01Z"/>
		<path d="M473.27,1364.45c1.55-5.58,2.37-11.3,2.29-17.09-.03-2.63-1.01-12.9-1.01-12.9,0,0-1.42,7.25-2.04,12.5-.65,5.51-1.77,11.04-3.32,16.37-3.12,10.69-8.91,19.95-15.01,29.16-.8,1.21,12.16-10.23,15.3-17.39v.56c.03,4.66.23,9.31.3,13.97.07,4.66.16,9.32.34,13.97.19,4.99,1.82,12.11,1.82,12.11,0,0,.54-21.42.68-26.08.15-4.66.41-9.31.52-13.97.05-2.33.1-4.66.16-6.99.03-1.36-.02-2.54-.18-3.69.05-.17.11-.34.16-.52h0Z"/>
		<path d="M726.33,1364.45c-1.55-5.58-2.37-11.3-2.29-17.09.03-2.63.8-12.08,1.16-14.68,0,0,1.27,9.04,1.9,14.28.65,5.51,1.77,11.04,3.32,16.37,3.12,10.69,14.1,31.45,13.12,30.62-5.94-5.02-10.26-11.69-13.41-18.85v.56c-.03,4.66-.23,9.31-.3,13.97-.07,4.66-.16,9.32-.34,13.97-.19,4.99-1.68,4.99-1.94,0-.25-4.66-.41-9.31-.56-13.97-.15-4.66-.41-9.31-.52-13.97-.05-2.33-.1-4.66-.16-6.99-.03-1.36.02-2.54.18-3.69-.05-.17-.11-.34-.16-.52h0Z"/>
		<path d="M426.65,1395.77c-3.35-.09-6.7-.16-10.04-.32-6.8-.34-13.63-.49-20.42-.96-.95-.07-1.18,1.5-.23,1.68,6.71,1.27,13.4,2.18,20.25,2.06,3.49-.06,6.97-.22,10.44-.59,3.5-.37,6.93-1.21,10.42-1.66.02,0,.02-.03,0-.03-3.48.23-6.94-.09-10.42-.19h0Z"/>
		<path d="M851.73,1365.68c-.74-5.54-1.48-11.11-2.95-16.51-1.5-5.53-5.55-15.06-8.32-21.29-1.66-3.75-5.28-6.23-9.38-6.41-7.59-.34-19.82-.83-26.48-.77-12.2.1-24.41.17-36.61.32-13.43.17-27.33-.44-40.64,1.65-.05,0,22.82,1.57,34.12,1.75,11.53.18,56.85-.83,66.29,4.02,8.15,4.19,12.9,12.16,15.67,20.64,1.78,5.44,2.73,11.12,3.63,16.76.93,5.83,1.39,12.7,4.54,17.83.61,1,.89-12.31.12-17.98h.01Z"/>
		<path d="M845.63,1387.14c-15.16,1.89-30.07,5.11-45.35,6.21-7.55.55-15.14.75-22.71.78-3.86.01-7.73-.01-11.59-.05-3.86-.04-7.71.3-11.56.23-.05,0-.07.08-.01.09,3.55.7,7,1.64,10.61,2.11,3.84.51,7.73.82,11.59,1.01,7.89.38,17.48,1.31,25.37.86,15.29-.87,45.23-11.45,43.65-11.25h0Z"/>
		<path d="M739.91,750.69c-.64-2.32-1.73-4.19-2.18-6.55-.47-2.44-1.64-8.8-1.64-8.8-.15,2.6-.24,5.14,0,7.73.24,2.54.65,5.04,1.25,7.52.57,2.36,1.33,4.71,2.99,6.55,0,0,.19-4.22-.43-6.45h.01Z"/>
		<path d="M649.88,788.58c-1.18-.71-2.3-1.48-3.34-2.38-.55-.47-1.09-.95-1.59-1.47-.47-.48-1.97-1.02-1.97-1.02.18.69.64,1.3,1.04,1.88.42.61.87,1.22,1.37,1.77,1.01,1.13,2.2,2.16,3.46,2.99,2.6,1.72,5.49,2.78,8.62,2.91,0,0-5.2-3.25-7.58-4.68h0Z"/>
		<path d="M718.46,764.35c-.29.56-.55,1.14-.82,1.71-.13.26-.23.51-.32.79-.05.17-.41.83-.47.94-.05.09,1.37-.9,1.45-.98.29-.32.57-.65.85-.98.62-.72,1.17-1.48,1.73-2.24s1.15-1.52,1.6-2.35c.45-.83.89-1.68,1.27-2.54.24-.53-4.09,3.37-5.29,5.66h0Z"/>
		<path d="M205.23,875.24c-.09-1-.02-2.07.26-3.27.92-3.97,1.72-7.97,2.38-11.98.93-5.61,1.52-11.71-1.27-16.67-1.34-2.38-3.35-4.29-5.38-6.12-5.58-5.02-11.71-10.58-18.11-14.42-3.48-2.09-7.9-3.26-11.76-4.45-2.65-.82-8.78-1.25-10.8-3.02,9.74,8.57,22.31,13.19,32.42,21.45,2.28,1.86,4.59,3.76,6.31,6.15,2.88,3.99,3.88,9.1,3.72,14.02-.14,4.34-.95,8.92-2.24,13.07-1.21,3.89-2.75,4.08-6.01,2.37-7.38-3.89-15-6.96-23.01-9.58-10.84-3.54-21.76-5.38-33.17-5.3-6.59.05-13.17.51-19.76.82-3.99.19-9.24,1.08-12.97-.51-2.35-1.01-4.34-2.68-6.29-4.34,1.6,2.71,3.21,5.43,4.81,8.14.26.44.53.92.46,1.43-.08.6-.61,1.03-1.1,1.4-4.18,3.16-8.03,6.76-11.46,10.72.76-.88,4.6-1.91,5.85-2.8,2.17-1.54,4.15-3.34,6.36-4.83,4.33-2.93,9.16-5.47,14.44-6.06,13.58-1.52,29.36.57,42.5,4.1,9.92,2.66,19.4,6.67,28.73,10.93,2.25,1.03,4.5,2.06,6.74,3.11,2.45,1.15,4.3,2.65,6.41,4.35.84.68,1.71,1.39,2.19,2.36.35.71.47,1.51.57,2.3.6,4.95.34,9.96.08,14.95-.1,1.94-.21,3.9-.75,5.76-1.37,4.65-5.29,8.11-7.27,12.54-4.56-1.26-7.97-3.9-12.7-4.85-4.4-.88-8.81-1.76-13.21-2.64-9.1-1.82-18.39-1.37-27.7-1.44-10.26-.07-20.55.23-30.73,1.59-4.07.54-8.09,1.36-12.09.36-4.77-1.2-9.52-3.63-14.11-5.39,2.52,2.67,5.04,5.33,7.55,8-3.44,4.15-7.14,8.09-11.07,11.77,9.14-4.69,18.05-9.3,28.55-9.85,2.1-.11,4.14-.68,6.19-1.1,6.34-1.31,12.86-1.27,19.33-1.23,6.77.05,13.49.24,20.2.64,8.36.49,16.23,1.41,24.03,4.59,3.69,1.51,7.38,3.01,11.07,4.52,1.16.47,2.37.98,3.22,1.9.9.97,1.3,2.28,2.01,3.39.8,1.24,1.98,2.23,2.6,3.57.63,1.35.64,2.89.63,4.38-.04,8.05,1.77,18.99-3.59,25.81-.82,1.04-1.83,1.97-3.06,2.45-3.58,1.38-7.68.42-11.32.42,2.26.65,4.45,1.59,6.48,2.78.78.46,1.55.96,2.1,1.68,2.55,3.29,2.08,11.36,1.46,15.24-.65,4.04-2.35,7.8-4.91,10.99-5.45,6.8-13.5,10.49-21.67,12.9-9.27,2.73-18.91,4.27-28.47,5.57-4.75.65-8.87,1.88-13.71,1.16-5.47-.82-10.65-3.01-15.71-5.16,4.64,2.67,9.28,5.35,13.92,8.02,1.2.69,2.44,1.4,3.81,1.62,1.39.23,2.81-.05,4.19-.33,9.06-1.84,19.29-3.97,28.57-3.97,18.85-2.98,42.1-13.38,40.21-36.27-.29-3.51-1.18-7.38.77-10.32.89-1.34,2.26-2.27,3.35-3.45,3.26-3.52,3.7-8.74,3.86-13.53.12-3.66.18-7.31.23-10.97.06-3.64.06-7.49-1.78-10.63-.79-1.35-1.89-2.51-2.54-3.93-1.45-3.15,1.33-6.07,2.83-8.66,4.31-7.45,4.34-16.53,4.25-25.14-.04-3.89-.11-7.91-1.75-11.43-1.67-3.57-3.87-6.15-4.18-9.64v-.04Z"/>
		<path d="M163.73,965.89c-5.03-1.47-9.73-2.18-14.98-2.43-5.08-.24-10.13-.27-15.2,0-4.86.26-9.77.57-14.58,1.35-5.13.83-10.11,2.38-15.22,3.23-.02,0-.01.03,0,.03,5.11-.76,10.41-.52,15.58-.54,4.9-.02,9.79-.23,14.7-.13,4.9.11,9.82.27,14.71.58,4.95.32,9.7.46,14.66.29,1.36-.05,1.67-2.01.32-2.4v.02Z"/>
		<path d="M216.22,903.95c-.41-1.28,1.81,10.62,2.81,13.89.99,3.22,4.39,12.55,5.17,13.93.59,1.05.99,2.04.7,3.3-.43,1.86-7,9.42-8.74,11.7-.66.87-1.22,1.62-1.66,2.64-.23.52-.38,1.51-.75,1.94,1.14-1.35,10.74-11.25,12.53-11.49,1.92-.25,10.8,13.92,16,16.45,1.01.47-15.45-19.09-26.07-52.36h.01Z"/>
		<path d="M281.84,900.29c-.89-9.92-2.49-19.91-5.65-29.38-1.37-4.11-5.01-11.32-10.51-9.08-1.5.61-2.68,1.94-3.12,3.5.72-.84,1.45-1.69,2.39-2.28s2.13-.87,3.16-.49c1.93.72,2.63,4.14,3.24,5.88,2.22,6.26,2.79,12.79,3.55,19.34-.28-.14-.57-.27-.85-.42-1.66-.89-3.26-1.88-4.81-2.97-2.81-1.98-5.28-4.27-6.96-7.29-3.55-6.38-6.19-13.22-9.9-19.56-3.68-6.29-7.7-12.45-12.26-18.15-4.35-5.44-9.03-11.36-15.11-14.89-.14-.08-.28.08-.22.22,3.28,6.77,8.44,12.74,12.61,19,4.18,6.28,8.02,12.76,11.46,19.47,1.69,3.29,3.29,6.63,4.78,10.02s2.7,6.97,4.91,9.97c2.19,2.97,5.03,5.33,8.02,7.46,2.55,1.81,5.8,4.19,9.01,4.74.19,2.74.35,5.49.43,8.24.48,16.18-.31,32.35-.99,48.51-.62,14.71-.9,29.43-2.1,44.11-.81,9.96-1.75,19.94-3.63,29.77-1.65,8.61-3.07,18.68-7.66,26.28-2.42,4-6.17,7.41-10.74,8.39-1.04.22-2.13.32-3.16.09-.87-.19-1.68-.61-2.43-1.1-4.89-3.27-7.47-10.05-9.77-15.21.13,3.22.44,7,2.04,9.87,1.82,3.25,3.92,6.72,6.86,9.07,6.47,5.15,14.68,1.58,19.28-4.28,4.78-6.09,6.98-13.99,8.96-21.35,2.34-8.66,3.91-17.49,5.08-26.37,2.4-18.3,2.93-36.8,3.66-55.23.74-18.58,2.06-37.34.4-55.9l.03.02Z"/>
		<path d="M302.3,908.08c.03-2.83-.11-5.63-.27-8.45-.33-5.72-1.25-11.39-2.76-16.92-1.49-5.43-3.34-10.76-5.55-15.94-2.07-4.88-4.6-11.03-8.86-14.42-1.22-.97-2.74-.06-2.52,1.47.37,2.56,1.55,4.9,2.58,7.24,1.08,2.47,2.13,4.96,3.2,7.44,2.22,5.11,4.14,10.37,5.76,15.7,1.56,5.14,3,10.31,4.42,15.49.7,2.57,1.25,5.19,1.8,7.79.6,2.85,1.64,6.17,1.5,9.09-.01.27.44.26.41,0-.32-2.73.25-5.73.28-8.5h0Z"/>
		<path d="M291.84,1059.24c-3.68,2.62-7.76,4.96-11.65,7.29-3.81,2.29-7.7,4.52-11.69,6.49-3.95,1.95-7.93,3.77-12.15,5.09-2.13.66-4.23,1.4-6.39,1.96-1.97.51-4.04.77-5.89,1.65-1.14.54-.66,2.1.32,2.46,3.74,1.37,9.26.35,12.98-.78,4.46-1.35,8.9-3.27,12.88-5.71,3.95-2.42,7.59-5.22,11.07-8.28,3.66-3.23,6.95-6.84,10.55-10.11.03-.02,0-.07-.04-.05h0Z"/>
		<path d="M444.58,1004.47c-1.75,9.07-2.55,18.52-5.63,27.28-2.59,7.36-5.86,12.74-13.24,15.82-2.23.93-4.89,1.88-5.64,4.18,2.18-.39,4.36-.79,6.55-1.18,1.36-.24,3.13-.29,3.72.96.63,1.36,1.27,2.97,1.81,4.39,1.38,3.66-.57,6.21-1.87,9.44-1.85,4.6-3.07,9.57-4.64,14.28-3.18,9.49-6.47,18.94-9.61,28.44-.78,2.36,3.06,4.06,4.09,1.72,7.48-16.99,14.32-33.99,19.29-51.91,2.44-8.79,4.18-17.59,5.12-26.66.9-8.77,1.56-18.02.07-26.76h-.02Z"/>
		<path d="M529.43,837.31c-1.87-1.65-4.63-1.96-7.07-1.42-8.39,1.86-13.84,8.09-21.29,11.73-8.95,4.37-17.76,8.99-26.39,13.97-.46.26-.94.56-1.14,1.05-.18.45-.07.96,0,1.44.65,5.07-5.21,7.98-7.74,11.65-2.14,3.12-3.26,6.81-4.35,10.44-3.37,11.27-6.75,22.54-10.12,33.81,4.93-8.97,8.9-18.43,13.95-27.34,13.96-24.64,38.41-39.14,62.57-52.74.98-.55,2.12-1.59,1.58-2.58h0Z"/>
		<path d="M336.36,955.02c-2.89,8.09.4,5.66-21.13,65.8-1.43,3.99-3.63,7.65-5.67,11.37-.98,1.79-1.99,3.56-3,5.33-1.21,2.15,2.66-2.15,3.81-3.85,2.47-3.61,5.8-6.28,7.99-10.07,4.39-7.59,9.23-20.5,11.52-28.96,7.23-26.69,6.47-39.62,6.47-39.62h.01Z"/>
		<path d="M408.73,965.5c-.95-3.64-2.18-8.91-3.65-12.38-1.46-3.46-6.57-10.17-8.58-13.34-1.63-2.58-7.25-14.51-7.25-14.51,3.35,12.45,8.8,36.61,10.94,49.35,1.07,6.36,1.72,12.82,1.99,19.26.29,6.79,3.35-3.83,3.72-10.37.4-6.91-3.77-24.01-5.89-31.26.68,1.2,1.36,2.4,2,3.62,1.68,3.22,3.34,6.45,4.65,9.84,1.35,3.51,3.78,10.68,3.78,10.62.02-3.68-.8-7.29-1.72-10.84h.01Z"/>
		<path d="M776.61,615.37c-1.15-1.51-2.71-2.66-4.26-3.77-1.42-1.02-2.86-2.03-4.3-3.02-7.17-4.94-38.78-22.5-47.36-26.9-16.71-8.57-38.5-22.4-80.72-34.12-10.55-2.93-21.18-4.98-32.01-6.58-.02,0-.03.02,0,.03,18.19,5.78,36.49,11.57,54.27,18.55,17.67,6.94,34.49,15.09,51.06,24.32-5.09,1.65-10.31,5.22-14.57,7.38-6.86,3.47-13.56,7.25-20.68,10.19-21.82,9-45.27,15.12-69.03,14.06-23.09-1.03-44.55-9.9-66.07-17.49-11.89-4.19-23.99-8.09-36.52-9.8-8.48-1.16-21.85-2.37-26.05,7.28,0,0,4.16-7.69,27.16-3.09,6.55,1.31,13,3,19.38,4.93-1.14,4.3-.98,8.83,0,13.14.5,2.21,1.15,4.48,2.11,6.54.47,1.02,1.01,1.95,1.64,2.88.69,1.01,1.71,1.95,2.17,3.07.1.24.49.13.39-.11-.38-.92-.32-1.88-.45-2.84-.14-1.11-.34-2.21-.6-3.3-.49-2.1-1.16-4.15-1.57-6.27-.77-3.96-.7-7.98.58-11.8,2.42.78,4.83,1.59,7.23,2.44,19.97,7.06,39.64,15.64,60.79,18.49,22.05,2.97,44.43-.5,65.47-7.34,10.55-3.44,20.83-7.7,30.86-12.46,5.03-2.39,9.99-4.9,14.92-7.5,2.21-1.16,4.51-2.95,7.01-3.11,3.18-.2,7.24,1.91,10.11,3.08,15.71,6.43,30.52,15.09,43.83,25.63,2.44,1.94,1.3,12.1.99,15.19-.16,1.65,2.16,2.46,3.22,1.33,4.65-4.91,5.14-13.57.98-19.03h.02Z"/>
		<path d="M590.77,703.27c-1.64-.15-4.51.77-5.49-.45-.26-.32-.33-.74-.4-1.15-.45-2.85-.76-5.83-2.3-8.27-.83-1.32-1.98-2.4-3.03-3.56s-2.03-2.44-2.41-3.96c-.81-3.2,2.14-5.9,4.24-7.88,2.33-2.2,4.9-4.19,6.81-6.79,3.02-4.11,2.72-8.32,1.24-12.92-.13-.41-.45-.91-.86-.78-.34.11-.39.56-.37.91.15,3.17-.05,5.51-1.39,8.42-1.15,2.5-3.15,4.44-5.15,6.27-3.36,3.07-9.06,7.12-7.99,12.39.52,2.58,2.41,4.55,4.07,6.48,2.1,2.44,3.56,5.27,4.14,8.46.35,1.94-.05,5.24,2.48,5.59,2.33.32,5.16-.38,6.95-1.9.19-.16.38-.44.22-.63-.05-.06-.13-.1-.21-.12-.16-.06-.35-.09-.55-.11h0Z"/>
		<path d="M614.56,699.88c-.22-.12-.46-.22-.69-.28-3.26-.9-7.24-.94-10.11,1.09,1.24,1.38,3.4.62,4.93,1.34,1.41.66,3.99,1.5,5.57,1.27,1.98-.29,1.87-2.55.31-3.41h-.01Z"/>
		<path d="M639.45,686.46c0-3.34-5.1-3.82-7.25-2.93.88.6,1.98,1.01,2.96,1.48.42.2.84.41,1.15.75.52.59.6,1.44.54,2.23-.24,3.46-1.23,7.01-3.25,9.87-.96,1.37-2.46,3.29-4.09,3.88s-3.7.12-5.31,1.15c-.15.09,3.45,1.52,3.8,1.61,1.48.39,2.43.32,3.76-.62,2.69-1.9,4.5-4.89,5.82-7.85,1.24-2.79,2.85-6.49,1.86-9.56h.01Z"/>
		<path d="M645.88,718.84c-1.56-.19-4.5,1.54-5.57,2.02-3.14,1.43-6.18,3.08-9.35,4.45-5.22,2.25-11.06,5.25-16.83,5.48-5.37.21-9.1-3.77-14.14-4.68-1.85-.34-3.8-.34-5.57.37-1.4.57-2.59,1.7-4.26,1.29-.67-.16-2.38-1.17-2.95-1.61.67,1.73.66,3.2,2.66,3.99,2.56,1.01,4.37-1.35,6.81-1.52,2.96-.2,5.8,1.6,8.31,2.93,2.33,1.23,4.66,2.2,7.3,2.48,6.01.63,11.91-2.01,17.33-4.24,2.9-1.19,5.77-2.44,8.64-3.71,2.6-1.16,8.25-2.09,8.59-5.7.1-1.04-.31-1.48-.98-1.56h.01Z"/>
		<path d="M673.76,623.82c-5.1-2.21-10.72-2.71-16.23-2.41-5.44.3-11.14,1.03-16.4,2.47-4.57,1.25-8.35,3.5-11.28,7.25-1.4,1.79-2.6,3.73-4.02,5.5-.49.61-.91,1.29-1.39,1.89-.62.77-1.45,1.26-2.04,2.09-.2.28.08.59.36.62,3.39.37,6.08-3.24,7.88-5.59,1.22-1.59,2.38-3.27,3.89-4.62,1.93-1.73,4.37-2.65,6.85-3.26,9.95-2.47,21.04-3.75,30.85-.28,2.11.74,3.62-2.75,1.54-3.65h0Z"/>
		<path d="M674.27,632.25c-.14-1.76-3.03-2.47-3.33-.45-1.27,8.6-9.89,10.29-17.21,10.71-4.18.24-8.38.41-12.56.18-3.76-.21-8.31-1.73-11.96-.49-.02,0-.03.03-.01.05,2.83,3.08,8.47,3.23,12.38,3.61,5.14.5,10.41.43,15.56,0,7.35-.6,17.88-4.46,17.14-13.63v.02Z"/>
		<path d="M581.72,638.9c-.79-1.62-1.94-2.97-3.17-4.34-1.33-1.47-2.74-2.88-4.26-4.16-2.91-2.45-5.93-4.38-9.83-4.57-3.96-.2-8.12.65-11.99,1.4-2.22.43-4.4,1.02-6.56,1.69-1.02.32-2.96.5-3.64,1.47-.18.26-.21.64-.03.91.19.27,2.78,1.14,2.78.6,0,4.63,1.05,9.19,3.09,13.35.84,1.7,1.79,4.1,3.78,4.72,1.97.61,4.41-.07,6.31-.64,2.23-.66,4.39-1.53,6.64-2.12,2.34-.62,4.51-.55,6.91-.46,2.16.08,4.36-.09,6.16-1.4.82-.6,1.62-1.4,2.14-2.28.59-1,.22-1.64,1.47-1.57.29.02.63-.06.77-.32.13-.23.07-.52,0-.78-.16-.53-.36-1.03-.6-1.5h.03ZM575.75,642.65c-1.6.85-3.61.61-5.35.56-3.94-.11-7.25,1.03-10.9,2.35-1.77.64-3.61,1.24-5.49,1.41-1.06.1-1.49-.03-2.08-.95-.52-.81-.96-1.67-1.35-2.55-1.67-3.72-2.39-7.77-2.35-11.84,0-.09-.03-.15-.04-.23,1-.14,1.99-.28,2.99-.44,3.86-.61,7.71-1.33,11.63-1.43,3.88-.1,6.4,1.59,9.3,3.97,1.28,1.05,2.5,2.17,3.65,3.36.9.94,1.72,2.01,2.61,2.98-.86.93-1.44,2.16-2.61,2.78v.03Z"/>
		<path d="M586.16,630.15c-1.25-2.02-2.4-3.88-4.04-5.66-1.58-1.72-3.3-3.16-4.78-4.99.12,2.41,1.61,4.56,3.04,6.39,1.62,2.08,3.73,3.63,6.1,4.78-.11-.17-.22-.35-.32-.52h0Z"/>
		<path d="M575.9,610.01c-.21,0-.43,0-.66-.08-.18-.06-.37-.13-.55-.19-3.59-.78-7.18-1.53-10.52-3.17-.04-.02-.06-.06-.1-.08-2.45.28-4.88.67-7.27,1.29-3.46.9-6.79,2.09-9.84,3.99-1.48.93-3.02,1.9-4.35,3.05-.63.55-1.31,1.2-1.79,1.87-.55.76-.73,1.77-1.33,2.47-.13.15.06.41.24.31.88-.49,2.06-.42,3.02-.74.88-.3,1.73-.71,2.58-1.1,1.83-.85,3.71-1.44,5.63-2.06,3.93-1.26,7.86-2.29,11.96-2.79,3.99-.49,7.98-.66,12-.37,1.71.12,3.76,0,4.9-1.42-1.29-.37-2.6-.68-3.91-.97h-.01Z"/>
		<path d="M675.52,611.91c-.17-.28-.44-.53-.65-.78-.58-.69-1.3-1.2-2.06-1.67-1.51-.94-3.17-1.75-4.87-2.31-.4-.13-.82-.19-1.22-.3-.32.12-.65.24-.97.37-.05.02-.11.05-.14.06-.14.06-.27.12-.41.17-.33.14-.65.28-.97.42-1.34.58-2.68,1.15-4.06,1.63-1.41.48-2.95.85-4.49.94,1.34.41,2.87.4,4.23.54,1.6.17,3.19.47,4.77.78,1.95.38,3.88.86,5.84,1.2.95.16,1.92.43,2.88.46.39.01.83,0,1.23-.04.48-.04.77-.28,1.23-.35.04,0,.06-.06.04-.09-.18-.34-.18-.7-.37-1.03h-.01Z"/>
		<path d="M665.08,623.06c-5.55-.11-11.07.67-16.6.91.19.44.44.86.57,1.31.96,3.22.28,6.73-2.3,9-1.2,1.05-2.61,1.87-4.21,2.08-.25.03-.49.02-.74.01,1.86,5.37,6.87,9.26,12.87,9.26,7.58,0,13.72-6.14,13.72-13.72,0-3.39-1.28-6.45-3.31-8.85h0Z"/>
		<path d="M565.46,627.21c-.2-.01-.34-.12-.51-.19.01.08.03.16.04.25.23,1.81.29,3.68-.17,5.46-.51,1.96-1.78,3.78-3.57,4.75-1.44.78-3.19,1.19-4.77.85.45,3.55,2.37,6.64,5.27,8.47h.01c1.2-.49,2.42-.65,3.65-.63.1-.05.2-.13.31-.16,2.08-.6,4.24-.58,6.38-.43,1.01.07,2.02.16,3.04.19h.23c.18-.07.37-.11.55-.19,2.18-2,3.62-4.81,3.82-7.96-3.38-5.2-7.82-10.04-14.27-10.39v-.02Z"/>
		<path d="M272.97,1003.19c-4.03-.38-8.22.03-12.14-.94-.49-.12-1.03-.28-1.31-.7-.37-.57-.1-1.32.17-1.95,2.84-6.47,7.61-15.94,5.51-23.18-3.66,7.32-5.08,15.29-10.12,21.95-3.19,4.21-7.22,7.79-11.8,10.42-5.11,2.93-10.35,3.37-16.18,3.53-5.02.13-10.03-.5-15.05-.42s-10.21.95-14.37,3.76c6.25,1.33,12.49,2.66,18.74,4,.32.07.67.14.98,0,.36-.16.56-.54.78-.86,2-2.8,8.74-1.7,11.61-1.74,3.45-.05,7.08.08,10.47-.71,6.08-1.42,10.13-6.74,16.63-7.47,1.89-.21,3.8-.14,5.7-.06,3.77.15,7.54.31,11.3.46.43-1.6.78-3.22,1.06-4.85.05-.28.08-.61-.09-.83-.17-.22-.48-.26-.75-.29-.38-.04-.76-.08-1.14-.11h0Z"/>
	</g>
</svg>