<svg width="38" height="38" viewBox="0 0 38 38" xmlns="http://www.w3.org/2000/svg">
<path d="M16.5375 14.643L14.6423 16.5381C14.2946 16.8859 14.2946 17.4497 14.6423 17.7974L25.0284 28.1835C25.8995 29.0546 27.3118 29.0546 28.1829 28.1835C29.054 27.3124 29.054 25.9001 28.1829 25.029L17.7968 14.643C17.4491 14.2952 16.8853 14.2952 16.5375 14.643Z"/>
<path d="M21.7848 6.77759C22.4419 6.24086 22.1541 5.31476 21.309 5.39057C19.3266 5.56839 16.1645 6.35054 12.6985 9.14135L11.4935 7.93637C11.1029 7.54584 10.4698 7.54584 10.0793 7.93637L7.93491 10.0807C7.54439 10.4712 7.54439 11.1044 7.93492 11.4949L9.13833 12.6983C6.34843 16.1657 5.56666 19.3282 5.389 21.3105C5.31326 22.1556 6.23935 22.4434 6.77608 21.7863L8.53895 19.6281C11.8523 15.5719 15.5708 11.8534 19.627 8.54005" />
</svg>
