<svg width="36" height="25" viewBox="0 0 36 25" xmlns="http://www.w3.org/2000/svg">
<path d="M11.1411 6.87416V24.3028H24.5007V6.87416H11.1411ZM19.9509 16.9309H15.6909V12.481C15.6909 11.9027 15.9153 11.3481 16.3148 10.9392C16.7142 10.5303 17.256 10.3006 17.8209 10.3006C18.3858 10.3006 18.9276 10.5303 19.3271 10.9392C19.7265 11.3481 19.9509 11.9027 19.9509 12.481V16.9309Z" />
<path d="M26.2102 0.0957031H24.0223V1.65316H22.5588V0.0957031H20.3708V1.65316H18.9073V0.0957031H16.7194V1.65316H15.2559V0.0957031H13.0679V1.65316H11.619V0.0957031H9.4165V3.34411L11.1408 5.10923H17.8206H24.5004L26.2102 3.34411V0.0957031Z" />
<path d="M35.672 11.7987H33.484V13.3562H32.0206V11.7987H29.8326V13.3562H28.3691V11.7987H26.1812V13.3562V14.0385V14.2017V15.0471V24.2881H35.672V11.7987Z" />
<path d="M9.48889 14.0385V13.3562V11.7987H7.30092V13.3562H5.83745V11.7987H3.64948V13.3562H2.18601V11.7987H-0.00195312V13.3562V14.0385V14.2017V15.0471V24.2881H9.48889V14.2017V14.0385Z" />
</svg>
