<?xml version="1.0" encoding="utf-8"?>
<!-- Generator: Adobe Illustrator 28.0.0, SVG Export Plug-In . SVG Version: 6.00 Build 0)  -->
<svg version="1.1" id="Layer_1" xmlns="http://www.w3.org/2000/svg" xmlns:xlink="http://www.w3.org/1999/xlink" x="0px" y="0px"
	 viewBox="0 0 800 800" style="enable-background:new 0 0 800 800;" xml:space="preserve">
<style type="text/css">
	.st0{fill:#FBEBD2;}
	.st1{fill:#D2D3D3;}
	.st2{fill:url(#SVGID_1_);}
	.st3{fill:url(#SVGID_00000093899635344295674420000016460463512373770905_);}
	.st4{fill:url(#SVGID_00000111882102110899101810000011157745137006139557_);}
	.st5{fill:#040404;}
	.st6{fill:url(#SVGID_00000120534935121365140470000008450584444978483104_);}
	.st7{fill:url(#SVGID_00000052100581743466600080000012070457277313665672_);}
	.st8{fill:url(#SVGID_00000168800702905875954860000017144682935149396618_);}
	.st9{fill:#EDEDEB;}
	.st10{fill:#FCF8F2;}
	.st11{fill:url(#SVGID_00000142861148659522203090000002764478124112772257_);}
	.st12{fill:url(#SVGID_00000001661171108508833720000011479771821524616617_);}
	.st13{fill:url(#SVGID_00000166646200185916427740000001030607563509333412_);}
	.st14{fill:url(#SVGID_00000085235195248845957020000013799769735223187074_);}
	.st15{fill:url(#SVGID_00000181064268495016214830000015123911870431854214_);}
	.st16{fill:url(#SVGID_00000034790467677902312320000002913073994045363628_);}
	.st17{fill:url(#SVGID_00000065064400721434946810000009406750236580865414_);}
	.st18{fill:url(#SVGID_00000133505688048596028100000001111631207118493327_);}
</style>
<g id="_x34_-WEAR__x5B_COOMER_x5D_">
	<g id="_x31_-BASE_BODY__x2B__copy">
		<path class="st0" d="M458.51,158.3c-0.59-1.09-1.03-3.27-2.49-3.58c-0.55-0.12-1.12,0.02-1.66,0.15
			c-8.91,2.17-17.87,4.14-26.87,5.92c-2.27,0.45-4.54,0.89-6.83,1.16c-5.22,0.62-10.54,0.37-15.67-0.73
			c-0.53-0.11-1.08-0.23-1.6-0.11c-1.06,0.25-0.87,0.86-0.67,1.43c0.22,0.62,0.59,1.22,0.64,2.03c0.15,2.42-1.29,2.23-2.86,3.28
			c-1.24,0.83-2.52,1.6-3.85,2.28c-1.99,1.02-4.07,1.83-6.21,2.47c-1.03,0.31-2.1,0.5-3.1,0.89c-1.01,0.38-1.97,0.88-2.87,1.47
			c-0.47,0.31-0.92,0.64-1.43,0.89c-0.45,0.22-0.94,0.36-1.43,0.47c-0.17,0.04-0.34,0.07-0.51,0.04c-0.42-0.07-0.68-0.49-0.94-0.83
			c-0.48-0.63-1.06-0.95-1.73-1.32c-0.69-0.38-1.37-0.81-2.14-1.03c-1.75-0.5-3.61,0.17-5.28,0.92c-2.68,1.21-5.25,2.65-7.67,4.31
			c-0.75,0.51-1.5,1.06-2.02,1.81c-0.45,0.64-0.7,1.4-0.89,2.16c-0.28,1.08-0.45,2.18-0.52,3.29c-0.11,1.86-1.13,2.32-2.51,3.3
			c-1.39,0.98-2.74,2.05-3.85,3.35c-1.15,1.35-2,2.92-2.83,4.49c-1.4,2.62-2.96,5.18-4.18,7.88c-8.73,19.38-23.67,35.57-31.49,55.34
			c-1.16-0.78-1.62-2.02-2.43-3.06c-1.01-1.3-2.24-2.48-3.38-3.67c-2.27-2.37-4.63-4.65-7.07-6.84c-3.12-2.82-6.35-5.5-9.66-8.1
			c-1.58-1.24-3.24-2.41-4.79-3.69c-1.32-1.09-2.51-2.34-3.88-3.4c-1.39-1.08-2.82-2.11-4.16-3.25c-1.05-0.9-1.96-2.04-3.05-2.87
			c-1.1-0.83-2.11-1.76-3.06-2.76c-1.92-2-3.57-4.23-5.21-6.46c-0.92-1.25-1.83-2.52-2.62-3.86c-0.49-0.83-1.08-3.09-2.11-3.38
			c-0.28-0.08-0.57-0.02-0.85,0.04c-1.74,0.4-3.4,1.1-5.01,1.88c-5.64,2.71-10.85,6.3-15.39,10.61c-0.93,0.88-1.85,1.82-2.41,2.97
			c-0.14,0.3-0.26,0.62-0.22,0.95c0.08,0.68,1.09,0.83,1.51,1.31c1.24,1.4,2.04,3.13,3.01,4.7c0.92,1.47,2.01,2.82,3.06,4.21
			c3.72,4.92,6.78,10.29,9.82,15.65c1.38,2.42,2.91,4.69,4.34,7.07c2.26,3.77,3.97,7.85,5.89,11.81c2.62,5.4,5.65,10.6,8.67,15.79
			c0.91,0.91,1.53,2.64,2.19,3.76c0.69,1.19,1.32,2.48,2.13,3.58c1.74,2.37,3.62,4.59,5.26,7.04c0.97,1.46,1.9,2.96,2.9,4.4
			c5.09,7.35,12.11,13.33,20.13,17.25c3.09,1.51,6.02,2.75,9.43,3.32c0.42,0.07,0.86,0.13,1.28,0.04c0.36-0.08,0.69-0.26,1.01-0.45
			c1.57-0.9,3.14-1.79,4.63-2.81c0.71-0.48,1.35-1.07,2.07-1.54c1.28-0.84,2.78-1.45,3.82-2.61c1.07-1.19,1.95-2.31,3.34-3.22
			c0.14-0.09,0.3-0.19,0.47-0.17c0.38,0.04,0.48,0.53,0.48,0.91c0.07,5.96,0.44,11.91,1.11,17.83c0.23,2.05,0.5,4.1,0.51,6.16
			c0,1.74-0.18,3.48-0.36,5.21c-0.31,2.89-0.61,5.77-0.92,8.66c-0.62,5.86-1.24,11.72-2.04,17.56c-0.4,2.92-0.88,5.82-1.35,8.73
			c-0.16,1.01-0.06,1.88-0.08,2.88c-0.03,1.34-0.48,2.71-0.72,4.03c-0.33,1.76-0.49,3.88,0.88,5.04c1.06,0.89,2.6,0.81,3.98,0.67
			c26.86-2.77,53.22-10.13,80.22-10.79c16.53-0.41,33.03,1.72,49.3,4.7c1.98,0.36,3.84,0.52,5.83,0.62c2.07,0.1,3.76,0.66,5.86,0.1
			c1.29-0.34,2.6-1.02,3.17-2.23c0.38-0.79,0.39-1.7,0.4-2.58c0.02-3.06,0.04-6.14-0.42-9.17c-0.32-2.1-0.87-4.27-0.3-6.32
			c0.22-0.76,0.58-1.48,0.76-2.26c0.4-1.76,0.23-3.75,0.45-5.55c0.22-1.86,0.52-3.69,0.84-5.54c0.73-4.1,1.08-8.52,2.22-12.53
			c0.61-3.42,1.3-6.84,1.82-10.27c0.38-2.5-0.55-4.75,0.19-7.33c0.54-1.9,1.64-3.61,2.17-5.52c0.65-2.35,0.41-4.83,0.46-7.27
			c0.04-2.1,0.3-4.2,0.56-6.29c0.99-7.91,1.97-15.83,2.96-23.74c0.07-0.57,0.21-1.24,0.73-1.48c1-0.47,0.95,1.57,1.07,2.03
			c0.3,1.23,0.69,2.44,1.1,3.64c0.78,2.25,1.72,4.45,2.72,6.62c1.21,2.64,2.53,5.29,4.55,7.37c2.34,2.4,5.71,4.01,7.53,6.87
			c2.25,3.54,1.36,8.24-0.39,12.06s-4.28,7.32-5.25,11.4c-0.67,2.78-0.58,5.68-0.48,8.53c0.11,3.33,0.22,6.66,0.33,9.98
			c0.1,2.99,0.2,5.99,0.51,8.96c0.21,2,0.52,3.98,0.97,5.94c0.37,1.63,1.07,2.77,1.69,4.25c1.52,3.59,1.94,8.13,2.62,11.95
			c0.66,3.68,1.2,7.38,1.67,11.09c0.36,2.85,1.19,5.71,0.03,8.52c-0.53,1.3-1.45,2.4-2.35,3.48c-0.61,1.22-2,2.4-2.88,3.46
			s-1.87,2.01-2.76,3.04c-1.69,1.96-2.59,4.5-3.43,6.91c-1.07,3.07-2.15,6.21-2.18,9.46c-0.02,1.75,0.27,3.48,0.27,5.23
			c-0.01,3.19-1.01,6.29-1.75,9.39c-1.16,4.85-1.71,9.83-1.78,14.81c-0.03,1.95,0.32,4.35,2.15,5.03c1.24,0.46,2.91-0.02,3.75,1.01
			c-0.82,0.62-1.68,1.33-1.93,2.32c-0.19,0.76,0.02,1.56,0,2.34c-0.05,2.21-1.8,3.94-3.27,5.58c-0.23,0.26-0.5,0.5-0.73,0.75
			c-0.26,0.29-0.36,0.8-0.48,1.16c-0.29,0.86-0.52,1.78-0.32,2.69c0.21,0.98,0.9,1.83,1.76,2.35c0.86,0.52,1.88,0.75,2.88,0.79
			c0.82,0.03,1.65-0.06,2.45-0.27c0.47-0.12,0.93-0.28,1.41-0.37c0.27-0.05,0.59-0.05,0.77,0.15c0.4,0.43-0.11,1.12,0.27,1.58
			c0.23,0.28,0.48,0.5,0.66,0.82c0.19,0.33,0.33,0.69,0.47,1.04c0.79,1.99,2.26,4.28,4.39,4.02c1.46-0.18,2.45-1.53,3.26-2.77
			c3.51-5.37,7.03-10.74,10.54-16.1c1.08-1.65,2.17-3.31,2.83-5.17c0.37-1.03,0.61-2.11,1.06-3.1c0.96-2.13,2.78-3.73,4.52-5.28
			c6.53-5.84,9.6-11.69,9.28-20.52c-0.13-3.52-1.06-7.13-0.03-10.5c1.23-4,4.89-6.65,7.74-9.71c0.54-0.58,1.06-1.2,1.32-1.95
			c0.26-0.77,0.21-1.61,0.12-2.42c-0.35-3.17-1.28-6.26-1.61-9.44c-0.56-5.38,2.1-9.64,3.99-14.48c2.05-5.25,3.72-10.93,6.24-15.97
			c4.7-12.02,7.87-24.3,9.79-37.05c0.32-2.14,0.65-4.3,0.68-6.46c0.07-4.27-0.98-8.47-2.01-12.61c-0.97-3.89-1.9-7.79-3.12-11.6
			c-2-6.23-4.76-12.25-5.95-18.69c-0.61-3.29-0.8-6.64-0.95-9.97c-0.18-3.96-0.31-7.94-1.03-11.85c-0.6-3.27-0.87-6.56-2.1-9.67
			c-2.54-6.46-7.06-12.05-8.85-18.82c-1.58-5.99-1.01-12.56-0.12-18.62c0.89-6-0.06-12.18-2.18-17.83c-1.39-3.7-3.31-7.27-6.1-10.07
			c-2.52-2.53-5.64-4.36-8.82-5.99c-5.03-2.6-10.32-5.15-15.86-6.33c-5.68-1.21-11.48-1.73-17.16-2.92
			c-0.57-0.12-1.16-0.25-1.68-0.53s-0.95-0.69-1.42-1.05c-1.9-1.5-4.29-2.22-6.62-2.83c-2.42-0.64-4.86-1.19-7.32-1.66
			c-1.19-0.23-2.48-0.43-3.57,0.09c-0.78,0.36-1.37,1.05-2.11,1.48c-1.31,0.75-2.75-0.21-4.04-0.61c-1.72-0.53-3.43-1.07-5.14-1.64
			c-1.18-0.39-2.41-0.81-3.29-1.69C459.24,159.64,458.87,158.97,458.51,158.3z"/>
		<g>
			<path class="st1" d="M336.33,389.33c-0.01-0.01-0.02-0.02-0.03-0.03C336.34,389.35,336.36,389.37,336.33,389.33z"/>
			<path class="st1" d="M336.27,389.25c0.01,0.01,0.01,0.02,0.01,0.02c0,0.01,0.01,0.01,0.02,0.02
				C336.29,389.28,336.29,389.28,336.27,389.25z"/>
		</g>
		<g>
			
				<linearGradient id="SVGID_1_" gradientUnits="userSpaceOnUse" x1="249.9778" y1="493.5191" x2="294.3528" y2="537.636" gradientTransform="matrix(1 0 0 -1 0 799.8898)">
				<stop  offset="0" style="stop-color:#040404"/>
				<stop  offset="0.0787" style="stop-color:#1D1D1D;stop-opacity:0.9269"/>
				<stop  offset="0.3373" style="stop-color:#6A6A6A;stop-opacity:0.6867"/>
				<stop  offset="0.5679" style="stop-color:#A7A7A7;stop-opacity:0.4725"/>
				<stop  offset="0.7619" style="stop-color:#D3D3D4;stop-opacity:0.2922"/>
				<stop  offset="0.9121" style="stop-color:#EEEEEF;stop-opacity:0.1528"/>
				<stop  offset="1" style="stop-color:#F8F8F9;stop-opacity:0.0711"/>
			</linearGradient>
			<path class="st2" d="M285.79,302.02c4.52,6.3,9.85,11.95,16.36,16.41c0.77,0.53,1.53,1.05,2.34,1.51
				c1.04,0.59,2.13,1.06,3.23,1.54c2.29,0.99,4.56,2.06,6.96,2.76c1.17,0.34,2.42,0.65,3.64,0.67c1.17,0.02,2.09-0.28,3.09-0.89
				c0.73-0.45,1.47-0.89,2.2-1.34c1.2-0.73,2.4-1.46,3.6-2.19c3.56-2.16,8.8-5.58,10.2-9.69c0.43-1.27,0.5-2.62,0.56-3.96
				c0.73-15.69,1.43-31.46,3.73-47.04c-3.48,2.67-5.41,6.85-7.21,10.86c-2.48,5.53-5,11.29-4.82,17.35c0.08,2.57,0.65,5.14,0.37,7.7
				s-1.71,5.25-4.19,5.95c-3.86,1.08-7.77,1.67-11.59,3.22c-1.27,0.51-2.6,1.09-3.95,0.86c-1.08-0.18-2-0.86-2.87-1.52
				c-1.88-1.42-3.76-2.84-5.64-4.26c-2.02-1.53-2.78-4.35-4.38-6.34c-2.06-2.55-3.91-5.28-5.3-8.26c-1.15-2.48-1.97-5.1-3.08-7.61
				c-2.33-5.27-5.9-9.86-9.89-13.97c-3.86-3.98-8.93-7.19-12.25-11.59c-2.38-3.15-4.07-6.76-5.74-10.34c-1.38-2.96-2.79-6-3.08-9.26
				c-0.27-3-0.16-13.87-4.97-14.2c-0.45-0.03-0.89,0.09-1.33,0.22c-0.92,0.26-1.75,0.78-2.65,1.06c-0.97,0.3-1.83,0.09-2.83,0.05
				c-1.26-0.04-2.49,0.44-3.51,1.17c-1.02,0.74-1.84,1.71-2.57,2.74c-0.29,0.4-0.57,0.88-0.47,1.36c0.06,0.27,0.23,0.49,0.39,0.71
				c2.45,3.23,5.34,6.09,7.32,9.67c0.83,1.5,1.22,3.22,2.31,4.48c1.15,1.33,2.22,2.58,3.14,4.1c2.49,4.13,4.81,8.34,7.25,12.51
				c2.41,4.13,4.81,8.25,7.14,12.42c3.14,5.62,6.14,11.32,9,17.09C279.09,291.55,282.19,296.99,285.79,302.02z"/>
			
				<linearGradient id="SVGID_00000004525792534309560550000017693600796834888361_" gradientUnits="userSpaceOnUse" x1="349.5826" y1="762.4653" x2="417.8921" y2="570.7908" gradientTransform="matrix(1 0 0 -1 0 799.8898)">
				<stop  offset="0" style="stop-color:#040404"/>
				<stop  offset="0.0787" style="stop-color:#1D1D1D;stop-opacity:0.9269"/>
				<stop  offset="0.3373" style="stop-color:#6A6A6A;stop-opacity:0.6867"/>
				<stop  offset="0.5679" style="stop-color:#A7A7A7;stop-opacity:0.4725"/>
				<stop  offset="0.7619" style="stop-color:#D3D3D4;stop-opacity:0.2922"/>
				<stop  offset="0.9121" style="stop-color:#EEEEEF;stop-opacity:0.1528"/>
				<stop  offset="1" style="stop-color:#F8F8F9;stop-opacity:0.0711"/>
			</linearGradient>
			<path style="fill:url(#SVGID_00000004525792534309560550000017693600796834888361_);" d="M400.46,167.21
				c0.68-0.35,1.39-0.58,2.14-0.48c2.81,0.34,1.03,3.7,1.59,5.33c0.21,0.6,0.68,1.08,1.22,1.4c1.45,0.87,2.96,0.97,4.5,0.23
				c1.18-0.56,2.16-1.46,3.14-2.33c2.79-2.47,5.74-4.79,9-6.58c-1.56,0.86-6.09,6.58-5.1,8.62c0.59,1.22,2.37,1.02,3.66,0.6
				c7.67-2.5,14.99-6.06,21.7-10.54c3.84-2.56,7.04-6.15,11.44-7.77c1.74-0.64,2.52-0.48,3.26,1.05c0.69,1.43,1.98,2.64,3.25,3.56
				c2.64,1.89,5.86,2.76,8.89,3.8c6.28,2.16,12.56,4.33,18.85,6.49c3.96,1.36,7.93,2.73,12,3.72c6.43,1.56,12.92,2.75,16.97,8.35
				c3.85,5.32,5.74,11.81,7.59,18.03c5.43,18.19,11.49,36.19,18.16,53.96c-4.48-6.47-9.51-12.55-14.52-18.62
				c-1.73-2.1-3.54-4.26-6.01-5.41c-0.71-0.33-1.49-0.6-2.02-1.17c-0.54-0.59-0.74-1.41-0.86-2.2c-0.46-2.91-0.23-5.89-0.24-8.84
				c-0.02-7.03-1.41-14.05-4.08-20.55c-0.87-2.13-1.85-4.69-0.51-6.56c-3.94,0.39-7.88-1.79-11.76-1c-2.87,0.58-5.16,2.69-7.29,4.72
				c-1.33,1.27-2.72,2.63-3.16,4.42c0.07-7.85,5.12-15.44,12.34-18.53c-9.18-6.03-20.07-10.87-31.06-12
				c-7.63-0.79-15.31,0.43-22.89,1.63c-2.24,0.36-4.49,0.72-6.68,1.32c-0.99,0.27-1.98,0.61-2.8,1.22
				c-1.18,0.88-1.88,2.25-2.67,3.49c-2.98,4.75-7.75,7.62-12.7,9.96c-2.46,1.16-5.05,1.88-7.07,3.73
				c-5.31,4.84-9.53,12.74-10.62,19.84c-0.4,2.6-0.47,5.27-1.25,7.78c-0.51,1.64-1.33,3.18-1.9,4.81c-0.89,2.54-1.17,5.25-1.4,7.93
				c-0.26,3-0.46,6.01-0.61,9.03c-1.19-7.72-0.08-15.63,1.79-23.22c0.92-3.71,2.02-7.38,3.12-11.04c0.97-3.22,3.22-7.64,3.18-11
				c-0.03-3.3-4.8-5.51-7.16-7.41c-2.63-2.13-5.53-3.92-8.5-5.58c-1.32-0.74-2.72-1.46-4.24-1.49c-1.29-0.02-2.53,0.46-3.73,0.94
				c-7.46,2.96-14.95,5.93-21.88,9.97c-3.32,1.93-6.63,4.25-8.36,7.68c-0.32,0.64-0.58,1.3-0.83,1.97
				c-3.33,8.69-6.16,17.58-8.46,26.6c-0.26-2.78-0.86-5.54-1.81-8.17c-0.18-0.49-0.47-1.07-0.99-1.11c-0.31-0.03-0.6,0.15-0.86,0.32
				c-1.35,0.88-5.04,2.72-5.04,4.76c-5.85,10.38-11.6,20.81-17.25,31.3c-0.61,1.14-1.23,2.29-1.55,3.54
				c-0.44,1.72-0.3,3.53-0.18,5.31c0.32,4.98,0.31,10.25-2.13,14.6c0-5.24-1.03-10.48-3-15.33c-0.36-0.89-0.77-1.82-0.68-2.78
				c0.08-0.85,0.53-1.61,0.97-2.34c8.29-13.71,16.59-27.41,24.88-41.12c6.64-10.98,10.75-23.83,21.66-31.59
				c10.98-7.81,25.79-8.5,36.87-16.17C399.32,167.9,399.88,167.51,400.46,167.21z"/>
			
				<linearGradient id="SVGID_00000018211126251651881120000009655276787022748301_" gradientUnits="userSpaceOnUse" x1="683.1162" y1="447.7457" x2="436.1193" y2="479.3876" gradientTransform="matrix(1 0 0 -1 0 799.8898)">
				<stop  offset="0" style="stop-color:#040404"/>
				<stop  offset="0.0787" style="stop-color:#1D1D1D;stop-opacity:0.9269"/>
				<stop  offset="0.3373" style="stop-color:#6A6A6A;stop-opacity:0.6867"/>
				<stop  offset="0.5679" style="stop-color:#A7A7A7;stop-opacity:0.4725"/>
				<stop  offset="0.7619" style="stop-color:#D3D3D4;stop-opacity:0.2922"/>
				<stop  offset="0.9121" style="stop-color:#EEEEEF;stop-opacity:0.1528"/>
				<stop  offset="1" style="stop-color:#F8F8F9;stop-opacity:0.0711"/>
			</linearGradient>
			<path style="fill:url(#SVGID_00000018211126251651881120000009655276787022748301_);" d="M490.2,260.58
				c0.54,0.66,1.05,1.33,1.45,2.07c1.3,2.42,1.27,5.29,1.55,8.02c0.56,5.58,2.47,10.93,4.37,16.21c1.11,3.09,2.25,6.23,4.25,8.83
				c1.36,1.77,3.07,3.23,4.77,4.69c1.49,1.28,2.98,2.58,4.32,4.02c4.55,4.88,0.03,10.71-2.32,15.49
				c-4.38,8.92-5.25,19.22-4.35,29.11c1.34,14.74,6.46,28.84,8.78,43.39c0.27,1.69-0.5,3.56-1.32,5.01
				c-0.89,1.58-2.05,2.98-3.14,4.43c-2.41,3.23-4.42,6.74-6.42,10.23c-1.36,2.37-2.75,4.83-3.04,7.55
				c-0.12,1.09-0.05,2.19,0.02,3.29c0.2,3.23,0.4,6.47,0.59,9.7c-0.22-3.81,0.49-7.67,2.06-11.14c0.86-1.91,1.97-3.7,2.81-5.62
				c1.3-2.98,1.96-6.32,4.04-8.82c0.74-0.88,1.63-1.63,2.34-2.54c0.87-1.13,1.42-2.46,2.14-3.69c0.72-1.23,1.68-2.41,3.02-2.89
				c1.4-0.51,2.98-0.17,4.41-0.57c1.44-0.4,2.6-1.51,3.33-2.81c0.73-1.3,1.07-2.78,1.3-4.25c-1.76,2.33-4.3,4.07-7.11,4.88
				c-0.24,0.07-0.48,0.13-0.72,0.07c-0.76-0.18-0.75-1.35-0.25-1.95c0.5-0.61,1.28-0.96,1.69-1.63c0.94-1.52,0.61-4.02,0.64-5.71
				c0.04-2.48,0.18-4.96,0.05-7.44c-0.65-12.59-5.18-24.67-6.72-37.18c-1.02-8.25,3.89-16.72,6.7-24.28
				c0.29-0.78,0.65-1.64,1.42-1.97c0.93-0.4,2.05,0.23,2.53,1.12c0.48,0.89,0.49,1.95,0.48,2.97c1.29,0.49,2.62,0.99,4,0.98
				s2.85-0.66,3.43-1.91c0.75-1.6-0.14-3.47-0.1-5.24c0.05-2.18,1.51-4.03,2.81-5.78c2.46-3.32,4.64-7.36,3.76-11.4
				c-0.22-0.99-0.61-1.94-0.72-2.95c-0.1-1.01,0.09-2.02,0.04-3.03c-0.11-2.54-1.67-4.75-3.18-6.79c-0.01,2.99-0.03,6.02-0.76,8.92
				c-0.73,2.9-2.26,5.71-4.74,7.39c-2.48,1.68-5.99,1.99-8.43,0.25c-3.35-2.39-3.54-7.36-6.1-10.58c-1.03-1.3-2.42-2.26-3.57-3.46
				c-1.15-1.19-2.11-2.76-1.93-4.41c0.13-1.18,0.81-2.21,1.22-3.33c1.02-2.8-0.25-5.94-0.92-8.71s-3.63-7.34-1.84-10.02
				c1.64-2.47,2.31-5.57,1.83-8.49c-1.69,1.47-3.74,2.51-5.92,3.01c-2.49,0.57-5.65,0.83-6.56,3.21c-0.31,0.81-0.55,1.99-1.42,1.96
				c-0.33-0.01-0.62-0.23-0.82-0.49c-1.01-1.36,0.25-3.21,1.44-4.41c2.7-2.73,5.4-5.45,8.11-8.18c-1.48-2.04-3.44-2.98-5.71-4.06
				c-1.24-0.59-1.43-0.95-1.75-2.31c-0.28-1.2-0.35-2.43-0.45-3.65c-0.18-2.37-0.29-4.89-1.71-6.9c-0.98-1.39-2.46-2.34-3.9-3.25
				c-2.21-1.4-4.55-2.85-7.17-3.01c0.59,7.59,1.18,15.18,1.77,22.78c0.17,2.15,0.34,4.31,0.85,6.41c0.66,2.69,1.89,5.23,3.58,7.42
				C489.41,259.63,489.81,260.1,490.2,260.58z"/>
		</g>
		<g>
			<g>
				<path class="st5" d="M316.09,266.99c1.09,3.02,1.59,6.18,1.47,9.39c-0.05,1.29,1.95,1.29,2,0c0.12-3.37-0.4-6.75-1.55-9.92
					c-0.18-0.51-0.68-0.85-1.23-0.7C316.3,265.9,315.91,266.48,316.09,266.99L316.09,266.99z"/>
			</g>
		</g>
		<g>
			<g>
				<g>
					<g>
						<path class="st5" d="M315.8,260.92c4.38-10.28,10.38-19.8,16.26-29.27c5.89-9.5,11.96-18.99,16.58-29.19
							c0.62-1.37,1.15-2.78,1.85-4.11c0.71-1.36,1.56-2.66,2.52-3.85c2.07-2.58,4.56-4.76,7.24-6.69c0.44-0.32,0.65-0.87,0.36-1.37
							c-0.25-0.43-0.93-0.68-1.37-0.36c-4.73,3.41-9.04,7.62-11.33,13.09c-2.08,4.97-4.61,9.75-7.27,14.43
							c-5.75,10.11-12.21,19.79-18.06,29.83c-3.11,5.34-6.07,10.79-8.49,16.48c-0.21,0.5-0.15,1.07,0.36,1.37
							C314.86,261.52,315.59,261.42,315.8,260.92L315.8,260.92z"/>
					</g>
				</g>
				<g>
					<g>
						<path class="st5" d="M345.26,238.22c-0.95,1.05-1.35,2.6-1.72,3.93c-0.68,2.49-1.11,5.04-1.51,7.58
							c-0.08,0.53,0.14,1.08,0.7,1.23c0.47,0.13,1.15-0.16,1.23-0.7c0.38-2.45,0.81-4.91,1.44-7.32c0.2-0.77,0.43-1.54,0.72-2.29
							c0.01-0.02,0.1-0.25,0.06-0.14c-0.05,0.11,0.05-0.1,0.06-0.12c0.06-0.12,0.11-0.24,0.18-0.35c0.06-0.11,0.13-0.22,0.19-0.32
							c0.03-0.04,0.06-0.08,0.09-0.12c-0.06,0.09-0.12,0.15-0.02,0.03C347.54,238.68,346.13,237.26,345.26,238.22L345.26,238.22z"/>
					</g>
				</g>
				<g>
					<g>
						<path class="st5" d="M334.29,313.29c-2.91,3.16-6.55,5.52-10,8.04c-1.83,1.33-3.78,2.87-6.14,2.93
							c-2.53,0.06-4.84-1.39-7.03-2.49c-4.26-2.16-8.52-4.42-12.37-7.27c-1.83-1.36-3.56-2.87-5.08-4.57
							c-1.63-1.81-3.07-3.81-4.5-5.77c-5.92-8.08-11.03-16.72-15.88-25.47c-4.89-8.83-9.53-17.8-14.5-26.59
							c-4.92-8.71-10.19-17.25-16.31-25.17c-0.76-0.98-1.53-1.96-2.31-2.92c-0.34-0.42-1.06-0.35-1.41,0
							c-0.41,0.41-0.34,0.99,0,1.41c6.41,7.88,11.88,16.49,16.94,25.28c5.11,8.87,9.81,17.97,14.74,26.94
							c4.9,8.93,10.03,17.77,15.96,26.07c2.85,3.99,5.75,8.01,9.57,11.13c3.79,3.09,8.05,5.51,12.38,7.74
							c2.19,1.14,4.42,2.46,6.78,3.2c2.64,0.83,5.21,0.42,7.59-0.95c1.74-1.01,3.34-2.32,4.98-3.5c1.9-1.36,3.79-2.76,5.57-4.29
							c0.86-0.74,1.68-1.51,2.45-2.35C336.58,313.76,335.17,312.34,334.29,313.29L334.29,313.29z"/>
					</g>
				</g>
				<g>
					<g>
						<path class="st5" d="M315.8,259.91c-0.9-1.17-1.7-2.41-2.58-3.6c-1.23-1.67-2.56-3.26-4.04-4.72
							c-0.92-0.91-2.33,0.51-1.41,1.41c1.38,1.37,2.64,2.85,3.8,4.42c0.85,1.15,1.63,2.36,2.5,3.5c0.33,0.43,0.86,0.66,1.37,0.36
							C315.87,261.03,316.13,260.34,315.8,259.91L315.8,259.91z"/>
					</g>
				</g>
				<g>
					<g>
						<path class="st5" d="M262.89,208.27c-0.19,0.98,0.18,1.82,0.64,2.66c0.51,0.93,1.05,1.84,1.61,2.74
							c1.11,1.77,2.32,3.48,3.61,5.12c2.49,3.16,5.31,6.04,8.32,8.71c6.13,5.46,12.96,10.04,19.36,15.16
							c4,3.2,7.79,6.65,11.35,10.34c0.9,0.93,2.31-0.49,1.41-1.41c-3.12-3.24-6.43-6.3-9.9-9.16c-3.02-2.49-6.15-4.83-9.29-7.17
							c-6.42-4.8-12.85-9.71-18.12-15.8c-1.43-1.65-2.76-3.39-3.99-5.2c-0.66-0.98-1.28-1.97-1.88-2.99
							c-0.3-0.51-0.59-1.02-0.87-1.53c-0.13-0.23-0.28-0.47-0.32-0.73c-0.02-0.13,0.03-0.44-0.02-0.2
							C265.06,207.54,263.14,207.01,262.89,208.27L262.89,208.27z"/>
					</g>
				</g>
			</g>
		</g>
		
			<linearGradient id="SVGID_00000144303965467698714720000000256007901668312741_" gradientUnits="userSpaceOnUse" x1="160.8843" y1="143.8236" x2="115.8241" y2="153.89" gradientTransform="matrix(0.9979 -0.0646 -0.0646 -0.9979 390.1599 615.6182)">
			<stop  offset="0" style="stop-color:#040404"/>
			<stop  offset="0.0845" style="stop-color:#1F1D1B;stop-opacity:0.9154"/>
			<stop  offset="0.3409" style="stop-color:#6C655B;stop-opacity:0.6585"/>
			<stop  offset="0.5696" style="stop-color:#AA9F8E;stop-opacity:0.4294"/>
			<stop  offset="0.7622" style="stop-color:#D6C8B3;stop-opacity:0.2365"/>
			<stop  offset="0.9111" style="stop-color:#F1E2CA;stop-opacity:0.0873"/>
			<stop  offset="0.9982" style="stop-color:#FBEBD2;stop-opacity:0"/>
		</linearGradient>
		<path style="fill:url(#SVGID_00000144303965467698714720000000256007901668312741_);" d="M519,432.69c0.9-0.9-0.4-2.16-1.56-1.52
			c-1.49,0.82-2.32,1.97-2.88,3.31c-0.5,0.09-0.98,0.36-1.34,0.88c-1.12,1.62-1.6,3.42-1.46,5.28c0.05,0.71,0.49,1.17,1.06,1.4
			c0.09,1.91,0.32,3.81,0.69,5.74c0.39,2.07,0.83,4.14,1.25,6.21c0.17,0.82,0.39,1.67,0.31,2.52c-0.09,0.98-0.64,1.94-1.06,2.84
			c-0.98,2.1-1.91,4.21-2.86,6.31c-0.37-0.21-0.86-0.26-1.31,0c-1.68,0.96-2.21,2.57-2.62,4.16c-0.4,1.58-1.05,2.95-1.83,4.41
			c-0.79,1.48-1.5,3.08-1.16,4.72c0.17,0.83,0.52,1.65,1.25,2.23c0.03,0.02,0.07,0.05,0.11,0.08c-0.08,0.44-0.14,0.88-0.14,1.33
			c0,0.64,1.07,0.95,1.53,0.43c0.86-0.95,1.15-2.12,1.45-3.26c0.3-1.18,0.59-2.37,0.87-3.56c0.09-0.37,0.18-0.73,0.27-1.1
			c1.55-0.99,2.11-3,2.85-4.44c1.91-3.72,4.02-7.38,5.84-11.13c1.79-3.7,0.46-7.33-0.25-11.08c-0.52-2.75-1.06-5.62-1.21-8.47
			c0.48-0.89,0.73-1.89,0.91-2.84C517.99,435.76,517.87,433.82,519,432.69z"/>
		
			<linearGradient id="SVGID_00000024003783396620279120000006986318406167331468_" gradientUnits="userSpaceOnUse" x1="150.129" y1="131.074" x2="112.496" y2="154.3408" gradientTransform="matrix(0.9979 -0.0646 -0.0646 -0.9979 390.1599 615.6182)">
			<stop  offset="0" style="stop-color:#040404"/>
			<stop  offset="0.0845" style="stop-color:#1F1D1B;stop-opacity:0.9154"/>
			<stop  offset="0.3409" style="stop-color:#6C655B;stop-opacity:0.6585"/>
			<stop  offset="0.5696" style="stop-color:#AA9F8E;stop-opacity:0.4294"/>
			<stop  offset="0.7622" style="stop-color:#D6C8B3;stop-opacity:0.2365"/>
			<stop  offset="0.9111" style="stop-color:#F1E2CA;stop-opacity:0.0873"/>
			<stop  offset="0.9982" style="stop-color:#FBEBD2;stop-opacity:0"/>
		</linearGradient>
		<path style="fill:url(#SVGID_00000024003783396620279120000006986318406167331468_);" d="M514.1,452.52
			c0.09-0.4,0.16-0.8,0.19-1.21c0.07-0.84-1.01-1.48-1.9-1.43c-0.85,0.06-1.38,0.54-1.59,1.16c-0.13,0.07-0.25,0.16-0.37,0.25
			c-1.96,1.59-3.84,3.27-5.71,4.94c-1.7,1.52-3.82,3.15-4.63,5.19c-0.43,1.09-0.11,2.04,0.29,3.08c0.33,0.88-0.04,1.58-0.72,2.28
			c-1.21,1.24-3.68,2.38-3.95,4.12c-0.09,0.57,0.7,1.24,1.34,0.76c0.78-0.58,1.38-1.24,2.23-1.78c0.86-0.54,1.74-1.06,2.5-1.71
			s1.39-1.46,1.66-2.36c0.29-0.93-0.05-1.7-0.24-2.56c0.07-0.07,0.15-0.15,0.25-0.21c0.27-0.19,0.51-0.4,0.79-0.59
			c0.56-0.38,1.17-0.71,1.77-1.03c1.21-0.65,2.53-1.2,3.64-1.99c1.36-0.97,2.29-2.15,3.05-3.51c0.47-0.85,0.88-1.7,1.17-2.58
			C514.02,453.1,514.1,452.81,514.1,452.52z"/>
		
			<linearGradient id="SVGID_00000154407835092919105180000010020823197126741415_" gradientUnits="userSpaceOnUse" x1="187.2113" y1="160.9266" x2="129.4697" y2="168.2613" gradientTransform="matrix(0.9979 -0.0646 -0.0646 -0.9979 390.1599 615.6182)">
			<stop  offset="0" style="stop-color:#040404"/>
			<stop  offset="0.0845" style="stop-color:#1F1D1B;stop-opacity:0.9154"/>
			<stop  offset="0.3409" style="stop-color:#6C655B;stop-opacity:0.6585"/>
			<stop  offset="0.5696" style="stop-color:#AA9F8E;stop-opacity:0.4294"/>
			<stop  offset="0.7622" style="stop-color:#D6C8B3;stop-opacity:0.2365"/>
			<stop  offset="0.9111" style="stop-color:#F1E2CA;stop-opacity:0.0873"/>
			<stop  offset="0.9982" style="stop-color:#FBEBD2;stop-opacity:0"/>
		</linearGradient>
		<path style="fill:url(#SVGID_00000154407835092919105180000010020823197126741415_);" d="M534.03,432.19
			c-0.93-2.51-1.92-5.14-3.54-7.39c-0.36-0.5-1.28-0.19-1.25,0.38c0.13,2.37,0.94,4.67,1.5,6.98c0.46,1.91,1.38,4.12,0.72,6.09
			c-0.29,0.87-0.93,1.63-1.36,2.46c-0.42,0.82-0.64,1.65-0.72,2.52c-0.86-0.01-1.79,0.42-2.08,1.23c-1.18,3.37-1.88,6.73-2.39,10.2
			c-0.22,1.48,1.94,2.71,3.22,1.36c1.38-1.45,2.75-2.89,4.13-4.34c0.49-0.51,0.54-1.08,0.33-1.56c0.89-1.41,0.98-3.11,0.76-4.69
			c-0.16-1.18-0.42-2.37,0.12-3.52c0.49-1.04,1.18-1.98,1.48-3.09C535.56,436.62,534.8,434.28,534.03,432.19z"/>
		<path class="st9" d="M341.49,238.97c-0.94,4.11-1.88,8.22-2.82,12.34c-1.65,7.2-2.29,14.54-3.3,21.86
			c-1.06,7.63-1.37,15.34-1.58,23.03c-0.08,2.89-0.15,5.79,0.25,8.66c0.4,2.93,1.28,5.78,1.59,8.72c0.34,3.29-0.06,6.6-0.18,9.91
			c-0.26,7,1,13.82,0.82,20.8c-0.2,7.8-2.48,15.36-3.32,23.09c-0.32,2.94-0.43,5.89-0.54,8.85c-0.15,4-0.3,7.99-0.46,11.99
			c-0.03,0.66-0.04,1.35,0.25,1.94c0.64,1.29,2.37,1.49,3.82,1.48c9.02-0.08,17.93-1.69,26.74-3.53c8.19-1.7,16.62-2.63,24.91-4
			c27.36-4.52,55.62-3.53,82.6,2.91c2.21,0.53,4.52,1.09,6.72,0.52c4.81-1.25,5.17-7.75,3.96-11.58c-0.8-2.53-1.92-5.12-1.5-7.74
			c0.27-1.72,1.19-3.26,1.64-4.94c0.58-2.13,0.4-4.38,0.53-6.58c0.43-7.44,4.39-14.41,4.41-21.86c0-2.48-0.43-4.96-0.24-7.43
			c0.29-3.76,2.02-7.26,2.62-10.99c0.66-4.07-0.05-8.22-0.28-12.34c-0.25-4.58,0.96-7.73,2.38-11.91c1.33-3.93,1.84-8.59,2.32-12.71
			c0.74-6.31,0.67-13.02-2.39-18.59c-1.09-1.98-2.53-3.76-3.53-5.79c-1.24-2.52-1.76-5.33-2.19-8.1
			c-1.35-8.67-2.53-17.86-1.47-26.54s0.31-17.15,3.4-25.55c2.87-7.81,8.45-15.53,6.51-23.62c-0.39-1.64-1.14-3.26-2.46-4.31
			c-0.91-0.72-2.04-1.12-3.15-1.47c-4.02-1.26-8.19-2.04-12.39-2.32c-0.7-0.05-1.52-0.02-1.92,0.55c-0.46,0.65-0.01,1.61,0.69,1.98
			s1.54,0.31,2.33,0.25c-8.22,9.57-16.62,19.3-27.34,25.94c-16.44,10.18-39.95,14.01-58.37,7.26c-5-1.83-9.67-5.12-12.07-9.87
			c-1.57-3.12-2.07-6.66-2.55-10.13c-0.05-0.39-0.1-0.83,0.14-1.15c0.19-0.25,0.52-0.36,0.82-0.45c1.25-0.38,2.5-0.76,3.76-1.14
			c-0.37-1.58-1.98-2.62-3.6-2.8c-1.61-0.18-3.21,0.33-4.73,0.9c-2.65,1-5.23,2.21-7.69,3.62c-2.64,1.51-3.34,3.52-4.14,6.23
			c-0.93,3.12-2.91,5.75-4.32,8.65c-1.99,4.08-2.78,8.63-4.22,12.93c-1.52,4.51-3.76,8.75-5.37,13.23
			c-1.41,3.91-2.34,7.97-3.27,12.03C342.68,233.77,342.08,236.37,341.49,238.97z"/>
		<g>
			<path class="st10" d="M496.89,448.87C496.89,448.87,496.9,448.87,496.89,448.87C496.85,448.87,496.86,448.87,496.89,448.87z"/>
			<path class="st10" d="M500.93,449.67c-0.01-0.02-0.02-0.04-0.03-0.06c-0.17-0.32-0.55-0.47-0.89-0.58
				c-1.04-0.34-2.11-0.58-3.2-0.73c-0.16-0.02-0.33-0.04-0.47,0.02s-0.24,0.18-0.32,0.3c-0.5,0.75-0.58,1.7-0.5,2.6
				s0.31,1.78,0.35,2.67c0.07,1.35,0.03,2.65,1.76,2.55c1.39-0.08,3.1-1.28,3.46-2.64c0.22-0.84,0.14-1.73,0.06-2.6
				c-0.03-0.34-0.07-0.69-0.1-1.03C501.02,450,501,449.83,500.93,449.67z"/>
		</g>
		<path class="st10" d="M505.16,469.01c-0.18,0.05-0.35,0.11-0.51,0.19c-0.56,0.26-1.05,0.66-1.53,1.06
			c-0.58,0.48-1.16,0.96-1.74,1.44c-0.32,0.26-0.63,0.52-0.94,0.8c-0.33,0.31-0.64,0.64-0.95,0.97c-0.34,0.36-0.67,0.72-1.01,1.08
			c-0.19,0.2-0.37,0.4-0.53,0.63c-0.15,0.21-0.24,0.39-0.26,0.63c-0.05,0.8,0.76,1.4,1.5,1.3c0.2-0.03,0.31-0.12,0.49-0.19
			s0.39-0.04,0.58-0.05c0.47-0.02,0.93-0.09,1.38-0.21c0.89-0.22,1.75-0.61,2.5-1.15c0.1-0.07,0.19-0.14,0.26-0.24
			c0.09-0.12,0.12-0.26,0.17-0.4c0.14-0.39,0.37-0.74,0.6-1.08c0.43-0.62,0.88-1.22,1.36-1.79c0.33-0.39,0.67-0.79,0.82-1.28
			c0.09-0.29,0.11-0.59,0.05-0.89c-0.03-0.14-0.07-0.28-0.17-0.38c-0.07-0.08-0.17-0.13-0.27-0.18c-0.17-0.09-0.33-0.18-0.51-0.24
			C506.04,468.88,505.59,468.9,505.16,469.01z"/>
		<path class="st10" d="M511.94,481.09c0.14,0.05,0.29,0.08,0.44,0.06c0.32-0.04,0.62-0.3,0.83-0.53c0.37-0.41,0.74-0.81,1.11-1.22
			c0.3-0.33,0.6-0.66,0.87-1c0.73-0.92,1.31-1.97,2.15-2.79c0.24-0.23,0.51-0.45,0.7-0.73s0.3-0.64,0.19-0.95
			c-0.09-0.25-0.31-0.44-0.54-0.58c-0.69-0.43-1.55-0.54-2.35-0.41s-1.55,0.51-2.2,0.99c-0.33,0.24-0.52,0.58-0.8,0.88
			c-0.32,0.36-0.65,0.71-0.97,1.07c-0.5,0.55-1,1.1-1.4,1.73c-0.19,0.31-0.37,0.63-0.45,0.99s-0.05,0.75,0.15,1.05
			c0.17,0.27,0.45,0.45,0.73,0.63c0.47,0.3,0.94,0.59,1.46,0.78C511.89,481.07,511.91,481.08,511.94,481.09z"/>
		
			<linearGradient id="SVGID_00000006676987395477483950000003252682281493016195_" gradientUnits="userSpaceOnUse" x1="538.0228" y1="542.4819" x2="553.6226" y2="533.8707" gradientTransform="matrix(1 0 0 -1 0 799.8898)">
			<stop  offset="0" style="stop-color:#040404"/>
			<stop  offset="0.0787" style="stop-color:#1D1D1D;stop-opacity:0.9269"/>
			<stop  offset="0.3373" style="stop-color:#6A6A6A;stop-opacity:0.6867"/>
			<stop  offset="0.5679" style="stop-color:#A7A7A7;stop-opacity:0.4725"/>
			<stop  offset="0.7619" style="stop-color:#D3D3D4;stop-opacity:0.2922"/>
			<stop  offset="0.9121" style="stop-color:#EEEEEF;stop-opacity:0.1528"/>
			<stop  offset="1" style="stop-color:#F8F8F9;stop-opacity:0.0711"/>
		</linearGradient>
		<path style="fill:url(#SVGID_00000006676987395477483950000003252682281493016195_);" d="M549.68,260.69
			c-0.23-0.18-0.46-0.19-0.73-0.15c-0.7,0.1-1.43-0.17-2.16-0.35c-0.31-0.08-0.64-0.13-0.93-0.25c0.09,0.04-0.11-0.06-0.11-0.06
			c-0.07-0.04-0.12-0.08-0.19-0.11c-0.17-0.09-0.32-0.17-0.51-0.18c-0.17-0.01-0.35,0.1-0.44,0.25c-0.28,0.5,0.1,1.01,0.49,1.29
			c0.31,0.22,0.67,0.36,1.02,0.51c0.63,0.27,1.33,0.46,2.03,0.53c-0.02,0.06-0.03,0.11-0.05,0.17c-0.03,0.09-0.04,0.1-0.01,0.02
			c-0.02,0.05-0.05,0.1-0.08,0.14c-0.05,0.08-0.06,0.09-0.03,0.04c-0.02,0.02-0.04,0.04-0.06,0.07c-0.17,0.17-0.34,0.38-0.46,0.6
			c-0.13,0.24-0.16,0.63-0.04,0.89c0.01,0.04,0.03,0.07,0.06,0.1c0.01,0.02,0.01,0.01,0.02,0.03c-0.01,0.04-0.02,0.13-0.03,0.18
			c-0.06,0.41-0.04,0.82-0.02,1.23c0.02,0.32,0.5,0.32,0.5,0s0-0.64,0.05-0.95c0.01-0.07,0.02-0.14,0.04-0.21
			c0.01-0.03,0.01-0.04,0.01-0.06c0.08-0.03,0.17-0.09,0.24-0.15c0.24-0.1,0.42-0.28,0.61-0.41c0.29-0.21,0.53-0.45,0.71-0.76
			c0.32-0.55,0.36-1.15,0.41-1.77C550.03,261.09,549.88,260.84,549.68,260.69z"/>
		
			<linearGradient id="SVGID_00000080922372974213025930000003410985478718497664_" gradientUnits="userSpaceOnUse" x1="539.9155" y1="545.9108" x2="555.5155" y2="537.2997" gradientTransform="matrix(1 0 0 -1 0 799.8898)">
			<stop  offset="0" style="stop-color:#040404"/>
			<stop  offset="0.0787" style="stop-color:#1D1D1D;stop-opacity:0.9269"/>
			<stop  offset="0.3373" style="stop-color:#6A6A6A;stop-opacity:0.6867"/>
			<stop  offset="0.5679" style="stop-color:#A7A7A7;stop-opacity:0.4725"/>
			<stop  offset="0.7619" style="stop-color:#D3D3D4;stop-opacity:0.2922"/>
			<stop  offset="0.9121" style="stop-color:#EEEEEF;stop-opacity:0.1528"/>
			<stop  offset="1" style="stop-color:#F8F8F9;stop-opacity:0.0711"/>
		</linearGradient>
		<path style="fill:url(#SVGID_00000080922372974213025930000003410985478718497664_);" d="M556.13,257.17
			c-0.2-0.26-0.39-0.43-0.74-0.42c-0.29,0-0.6,0.16-0.74,0.42c-0.35,0.71-0.85,1.21-1.53,1.61c-0.45,0.27-0.8,0.6-0.97,1.11
			c-0.15,0.45-0.15,0.96-0.18,1.43c-0.04,0.51-0.09,1.02-0.11,1.53c-0.02,0.38,0,0.77-0.07,1.14c-0.07,0.35-0.18,0.49-0.51,0.61
			c-0.38,0.14-0.68,0.28-0.93,0.61c-0.19,0.26,0.12,0.64,0.42,0.54c0.36-0.12,0.76-0.05,1.13-0.16c0.41-0.12,0.74-0.39,0.97-0.75
			c0.46-0.76,0.49-1.83,0.59-2.68c0.06-0.49,0.11-0.98,0.18-1.47c0.01-0.09,0.03-0.17,0.05-0.26c0.01-0.02,0.05-0.1,0.06-0.12
			c0.13-0.13,0.38-0.21,0.54-0.31c0.77-0.49,1.41-1.18,1.84-1.98C556.26,257.78,556.32,257.41,556.13,257.17z"/>
		
			<linearGradient id="SVGID_00000158715160949770847790000011250988494327630266_" gradientUnits="userSpaceOnUse" x1="540.3893" y1="568.816" x2="544.1595" y2="566.7348" gradientTransform="matrix(1 0 0 -1 0 799.8898)">
			<stop  offset="0" style="stop-color:#040404"/>
			<stop  offset="0.0787" style="stop-color:#1D1D1D;stop-opacity:0.9269"/>
			<stop  offset="0.3373" style="stop-color:#6A6A6A;stop-opacity:0.6867"/>
			<stop  offset="0.5679" style="stop-color:#A7A7A7;stop-opacity:0.4725"/>
			<stop  offset="0.7619" style="stop-color:#D3D3D4;stop-opacity:0.2922"/>
			<stop  offset="0.9121" style="stop-color:#EEEEEF;stop-opacity:0.1528"/>
			<stop  offset="1" style="stop-color:#F8F8F9;stop-opacity:0.0711"/>
		</linearGradient>
		<path style="fill:url(#SVGID_00000158715160949770847790000011250988494327630266_);" d="M544.98,230.35
			c-0.33-0.88-0.58-1.82-0.7-2.76c-0.14-1.17-1.75-1.21-1.85,0c-0.15,1.66-0.33,3.33-0.56,4.98c-0.11,0.74-0.26,1.48-0.56,2.17
			c-0.33,0.76-0.66,1.42-0.67,2.27c-0.01,0.61,0.76,0.73,1.08,0.29c0.5-0.69,0.97-1.36,1.31-2.14c0.32-0.75,0.54-1.53,0.67-2.34
			c0.07-0.41,0.12-0.83,0.17-1.24c0.14,0.03,0.28,0.03,0.43-0.01C544.77,231.43,545.17,230.85,544.98,230.35z"/>
		
			<linearGradient id="SVGID_00000129185080552550377680000003253027396611770249_" gradientUnits="userSpaceOnUse" x1="592.3571" y1="474.4487" x2="524.8542" y2="483.2892" gradientTransform="matrix(1 0 0 -1 0 799.8898)">
			<stop  offset="0" style="stop-color:#040404"/>
			<stop  offset="0.0787" style="stop-color:#1D1D1D;stop-opacity:0.9269"/>
			<stop  offset="0.3373" style="stop-color:#6A6A6A;stop-opacity:0.6867"/>
			<stop  offset="0.5679" style="stop-color:#A7A7A7;stop-opacity:0.4725"/>
			<stop  offset="0.7619" style="stop-color:#D3D3D4;stop-opacity:0.2922"/>
			<stop  offset="0.9121" style="stop-color:#EEEEEF;stop-opacity:0.1528"/>
			<stop  offset="1" style="stop-color:#F8F8F9;stop-opacity:0.0711"/>
		</linearGradient>
		<path style="fill:url(#SVGID_00000129185080552550377680000003253027396611770249_);" d="M550.71,323.37
			c-0.05-0.54-0.05-1.1-0.19-1.62c-0.14-0.5-0.42-0.9-0.84-1.21c-0.38-0.28-0.62-0.46-0.65-0.97c-0.08-1.06,0.7-2.01,0.94-3.02
			c0.15-0.65,0.26-2.17-0.7-2.31c-0.1-0.02-0.2,0.03-0.23,0.13c-0.12,0.36-0.03,0.82-0.08,1.21c-0.08,0.54-0.35,1.02-0.61,1.48
			c-0.5,0.9-0.96,1.88-0.8,2.94c0.07,0.46,0.25,0.88,0.55,1.24c0.28,0.32,0.7,0.47,0.98,0.78c0.31,0.35,0.45,1.06,0.6,1.49
			c0.2,0.59,0.39,1.18,0.57,1.78c0.11,0.35,0.73,0.31,0.68-0.09C550.84,324.59,550.77,323.98,550.71,323.37z"/>
		
			<linearGradient id="SVGID_00000133524707389073718870000009165411409043062944_" gradientUnits="userSpaceOnUse" x1="583.1426" y1="404.092" x2="515.6399" y2="412.9328" gradientTransform="matrix(1 0 0 -1 0 799.8898)">
			<stop  offset="0" style="stop-color:#040404"/>
			<stop  offset="0.0787" style="stop-color:#1D1D1D;stop-opacity:0.9269"/>
			<stop  offset="0.3373" style="stop-color:#6A6A6A;stop-opacity:0.6867"/>
			<stop  offset="0.5679" style="stop-color:#A7A7A7;stop-opacity:0.4725"/>
			<stop  offset="0.7619" style="stop-color:#D3D3D4;stop-opacity:0.2922"/>
			<stop  offset="0.9121" style="stop-color:#EEEEEF;stop-opacity:0.1528"/>
			<stop  offset="1" style="stop-color:#F8F8F9;stop-opacity:0.0711"/>
		</linearGradient>
		<path style="fill:url(#SVGID_00000133524707389073718870000009165411409043062944_);" d="M541.29,394.3
			c-0.33-1.57-0.63-3.15-1.02-4.71c-0.17-0.69-0.44-1.43-0.39-2.15c0.06-0.71,0.32-1.4,0.41-2.11c0.1-0.75,0.12-1.52-0.02-2.28
			c-0.06-0.34-0.39-1.87-0.86-1.87c-0.21,0-0.25,0.29-0.23,0.5c0.09,1.27-0.33,2.5-0.62,3.74c-0.18,0.76-0.38,1.68-0.22,2.46
			c0.16,0.76,0.56,1.47,0.79,2.21c0.12,0.39,0.19,0.8,0.27,1.2c0.48,2.62,0.95,5.28,2,7.74c0.19,0.44,0.94,0.22,0.9-0.24
			C542.17,397.29,541.6,395.79,541.29,394.3z"/>
		
			<linearGradient id="SVGID_00000130605141302437307080000003603773284241946277_" gradientUnits="userSpaceOnUse" x1="504.1955" y1="536.3826" x2="498.0346" y2="545.683" gradientTransform="matrix(1 0 0 -1 0 799.8898)">
			<stop  offset="0" style="stop-color:#040404"/>
			<stop  offset="0.0787" style="stop-color:#1D1D1D;stop-opacity:0.9269"/>
			<stop  offset="0.3373" style="stop-color:#6A6A6A;stop-opacity:0.6867"/>
			<stop  offset="0.5679" style="stop-color:#A7A7A7;stop-opacity:0.4725"/>
			<stop  offset="0.7619" style="stop-color:#D3D3D4;stop-opacity:0.2922"/>
			<stop  offset="0.9121" style="stop-color:#EEEEEF;stop-opacity:0.1528"/>
			<stop  offset="1" style="stop-color:#F8F8F9;stop-opacity:0.0711"/>
		</linearGradient>
		<path style="fill:url(#SVGID_00000130605141302437307080000003603773284241946277_);" d="M509.16,250.59
			c-0.75,0.23-1.48,1.01-2.12,1.47c-0.77,0.55-1.62,1.05-2.51,1.38c-0.94,0.34-1.9,0.44-2.87,0.59c-1.09,0.17-2.08,0.59-3.06,1.09
			c-0.85,0.42-2,0.78-2.64,1.51c-0.68,0.78-0.43,1.93-0.42,2.87c0.01,1.2-0.45,2.07-1.1,3.05c-0.67,1.01-1.37,2-2.07,3
			c-0.65,0.93,0.92,1.86,1.52,0.89c0.61-0.99,1.22-1.97,1.86-2.95c0.56-0.86,1.11-1.74,1.28-2.77c0.08-0.5,0.1-1.01,0.1-1.52
			c0-0.54-0.14-1.23,0.27-1.6c0.33-0.3,0.95-0.47,1.35-0.67c0.56-0.28,1.11-0.57,1.69-0.81c1-0.41,2.06-0.45,3.11-0.64
			c0.89-0.16,1.75-0.45,2.56-0.84s1.57-0.89,2.2-1.53c0.52-0.53,1.26-1.44,1.25-2.21C509.55,250.69,509.36,250.53,509.16,250.59z"/>
		
			<linearGradient id="SVGID_00000019673883691466519070000016486120586055170449_" gradientUnits="userSpaceOnUse" x1="399.0055" y1="352.5807" x2="328.7884" y2="1213.9093" gradientTransform="matrix(1 0 0 -1 0 799.8898)">
			<stop  offset="3.203538e-03" style="stop-color:#EDEDEB;stop-opacity:0"/>
			<stop  offset="0.1647" style="stop-color:#C2C2C1;stop-opacity:0.1626"/>
			<stop  offset="0.5766" style="stop-color:#5B5B5A;stop-opacity:0.5772"/>
			<stop  offset="0.8625" style="stop-color:#191919;stop-opacity:0.8651"/>
			<stop  offset="0.9965" style="stop-color:#000000"/>
		</linearGradient>
		<path style="fill:url(#SVGID_00000019673883691466519070000016486120586055170449_);" d="M438.35,257.38
			c-4.48,0.82-8.85,2.35-13.31,3.31c-4.63,0.99-9.31,1.76-14.02,2.3c-9.84,1.11-19.68,1.07-29.55,0.55
			c-3.44-0.18-6.9-0.34-10.29-0.95c-3.92-0.71-9.49-2.1-12.4-5.05c-1.07-1.09-1.74-2.58-2.77-3.74c-1.56-1.76-3.21-3.26-4.27-5.39
			c-0.74-1.97-0.3-4.18,0.33-6.18c1.52-4.84,4.05-9.37,4.94-14.36c0.56-3.12,0.46-6.31,0.74-9.47c0.42-4.69,1.68-9.26,2.93-13.81
			c1.26-4.57,2.53-9.16,4.38-13.53c1.49-3.52,3.37-6.95,4.01-10.72c0.45-2.65,1.73-2.03,3.66-1.75c1.67,0.24,2.04-0.68,3.63-1.15
			c1.28-0.38,2.31-0.36,3.5-1.26c-4.13-3.39-10.64-2.57-14.79,0.79c-3.13,2.54-5.11,6.19-6.31,9.99c-0.56,1.79-0.85,3.53-1.63,5.21
			c-1.02,2.21-2.05,4.41-2.99,6.66c-3.7,8.88-6.51,18.09-9.31,27.28c-1.56,5.11-3.12,10.22-4.67,15.33
			c-0.99,3.25-1.98,6.51-2.58,9.86c-0.57,3.23-0.77,6.51-0.96,9.78c-0.28,4.66-0.55,9.33-0.83,13.99c-0.15,2.48-1.34,5.05-1.74,7.55
			c-0.43,2.69-0.61,5.42-0.63,8.15c-0.03,5.51,0.63,11,1.49,16.44c0.27,1.73,0.57,3.47,0.58,5.23c0.02,1.98-0.32,3.95-0.4,5.93
			c-0.16,3.86,0.66,7.7,0.92,11.56c0.51,7.77-1.25,15.82,1.16,23.23c2.05-3.18,3.37-6.76,4.69-10.3c0.48-1.3,0.97-2.62,1.11-4.01
			c0.25-2.4-0.55-4.83-0.16-7.21c0.34-2.02,1.5-3.78,2.34-5.65c1.7-3.77,2.37-8.91,1.29-12.93c-1.07-4.01-3.44-7.56-4.36-11.62
			c-1.33-5.89,0.04-12.83,1.09-18.68c0.4-2.23,0.84-4.55,2.22-6.35c2.08-2.72,5.78-3.59,9.19-3.77c2.87-0.15,5.98-0.57,8.82-0.5
			c2.17,0.05,4.08,1.18,6.34,0.97c1.47-0.14,2.52-1.1,3.93-1.39c1.8-0.38,4.12-0.05,5.71,0.87c2.8,1.62,1.36,6.71,5.57,6.45
			c1.12-0.07,2.17-0.54,3.19-1c3.86-1.75,7.73-3.5,11.59-5.24c-1.08,0.01-1.56-1.56-0.97-2.47s1.73-1.26,2.78-1.52
			c8-1.99,16.28-2.71,24.28-4.71C430.5,262.88,435.31,261.11,438.35,257.38z"/>
		
			<linearGradient id="SVGID_00000145033842743760060030000012963195873090721704_" gradientUnits="userSpaceOnUse" x1="541.6152" y1="519.454" x2="305.6793" y2="522.124" gradientTransform="matrix(1 0 0 -1 0 799.8898)">
			<stop  offset="3.203538e-03" style="stop-color:#EDEDEB;stop-opacity:0"/>
			<stop  offset="0.1647" style="stop-color:#C2C2C1;stop-opacity:0.1626"/>
			<stop  offset="0.5766" style="stop-color:#5B5B5A;stop-opacity:0.5772"/>
			<stop  offset="0.8625" style="stop-color:#191919;stop-opacity:0.8651"/>
			<stop  offset="0.9965" style="stop-color:#000000"/>
		</linearGradient>
		<path style="fill:url(#SVGID_00000145033842743760060030000012963195873090721704_);" d="M491.21,282.83
			c1.37-5.54,2.75-11.29,1.7-16.91c-0.26-1.42-0.68-2.82-1.4-4.07c-1.61-2.85-3.96-4.7-4.94-7.9c-2.03-6.68-3.02-13.78-3.42-20.73
			c-0.37-6.36-0.19-12.74,0.55-19.07c0.18-1.51,0.41-3.02,0.63-4.53c0.19-1.34-0.03-2.62,0.04-3.99c0.14-3.05,0.83-6.07,2.03-8.88
			c0.66-1.55,1.48-3.03,2.23-4.55c2.75-5.54,4.65-11.51,5.61-17.62c0.1-0.66,0.12-1.5-0.47-1.82c-0.37,4.82-2.31,9.52-5.47,13.19
			c-0.91,1.06-1.95,2.09-2.43,3.4c-0.28,0.78-0.35,1.61-0.5,2.43c-0.47,2.56-1.75,4.89-3.02,7.17c-1.13,2.04-2.26,4.08-3.39,6.11
			c-0.29,0.52-0.58,1.06-0.68,1.65c-0.13,0.76,0.08,1.53,0.22,2.29c0.38,2.02,0.31,4.12-0.21,6.11c-0.26,1-0.64,2-1.35,2.76
			c-0.44,0.48-0.99,0.85-1.37,1.37c-0.64,0.87-0.74,2.01-0.8,3.08c-0.24,4.33-0.26,8.71-1.34,12.9c-1.29,5.02-4.01,8.07-7.99,11.12
			c-2.1,1.61-4.62,2.55-7.02,3.64c-4,1.82-7.77,4.14-11.2,6.89c3.01-1.06,6.03-2.12,9.18-2.65c2.22-0.37,4.49-0.48,6.67-1.07
			c2.85-0.78,5.4-2.38,7.9-3.95c2.44-1.53,4.88-3.06,7.32-4.6c-1.66,4.84-2.92,9.81-3.76,14.86c-0.28,1.67-0.54,3.42-1.56,4.78
			c-0.63,0.85-1.53,1.48-2.08,2.38c-1.46,2.38-0.06,5.56-0.89,8.23c1.06-1.94,3.69-2.12,5.83-2.69c3.79-1.01,6.8-3.82,9.64-6.53
			c0.31,2.8-1.11,5.45-2.25,8.03c-1.13,2.58-2,5.64-0.66,8.12c0.72,1.35,1.99,2.3,3.08,3.37s2.06,2.48,1.92,4
			c-0.17,1.82-1.74,3.19-2.86,4.49c-1.34,1.55-2.62,3.21-3.29,5.17c-0.55,1.58-0.67,3.29-1.24,4.86c-0.61,1.69-1.69,3.16-2.84,4.54
			c-1.08,1.29-2.24,2.53-3.62,3.5c-0.81,0.57-1.69,1.04-2.41,1.72c-1.43,1.36-2.02,3.36-2.55,5.26c-2.16,7.72-4.31,15.43-6.47,23.15
			c-0.61,2.17-1.22,4.42-0.9,6.65c0.79,5.6,6.91,8.94,8.81,14.27c-1.7-0.87-3.39-1.74-5.09-2.61c-0.52-0.26-1.05-0.53-1.63-0.59
			c-0.85-0.08-1.67,0.32-2.46,0.66c-1.73,0.74-3.57,1.23-5.44,1.43c3.53,2.71,9.18,1.85,12.1,5.21c1.15,1.32,1.92,2.54,3.27,3.67
			c1.31,1.11,2.63,2.45,3.13,4.14c0.05,0.18,0.1,0.37,0.03,0.55c-0.1,0.26-0.41,0.37-0.69,0.44c-5.42,1.46-10.79,3.1-16.1,4.92
			c-0.8,0.27-1.6,0.55-2.36,0.92c-0.62,0.3-1.28,0.74-1.38,1.42c6.61,1.18,13.21,2.35,19.82,3.53c1.55,0.28,3.15,0.55,4.7,0.26
			c1.55-0.29,3.08-1.28,3.54-2.79c0.38-1.23,0.02-2.54-0.23-3.81c-0.45-2.35-0.01-4.73-0.49-7.04c-0.27-1.35-0.77-2.42-0.66-3.78
			c0.13-1.61,0.34-3.22,0.51-4.82c0.06-0.57,0.12-1.14,0.18-1.72c0.39-3.65,0.46-7.54,1.43-11.06c1.05-3.82,1.57-7.88,2.17-11.79
			c0.38-2.47,0.72-4.94,1.03-7.42c0.12-1.01,0.43-2.12,0.47-3.12c0.06-1.25-0.3-2.46-0.11-3.73c0.33-2.29,1.78-4.24,2.63-6.39
			c1.87-4.69,0.84-9.95,0.71-14.99c-0.17-6.5,1.01-13.23,2.6-19.49c0.28-1.08,0.35-1.92,0.2-3.02c-0.11-0.79-0.13-1.6-0.2-2.4
			c-0.1-1.06-0.17-1.96,0-3.02c0.18-1.1,0.34-2.21,0.49-3.32c0.47-3.38,0.44-6.79-1.1-9.9c-0.75-1.51-1.76-2.85-2.61-4.3
			c-0.71-1.22-1.28-2.49-1.74-3.82"/>
	</g>
	<g id="line_00000142855931361635704640000002171339355931931546_">
		<g>
			<g>
				<path d="M401.89,161.18c0.19,1.19,0.49,2.42,0.53,3.62c0.01,0.4-0.02,0.7-0.32,0.97c-0.37,0.33-0.87,0.57-1.31,0.8
					c-2.23,1.17-4.5,2.22-6.85,3.11c-2.16,0.82-4.4,1.46-6.53,2.36c-1.75,0.74-3.44,1.61-5.14,2.45c-1.81,0.9-3.62,1.87-5.54,2.54
					c-1.21,0.42-0.69,2.35,0.53,1.93c3.81-1.33,7.24-3.55,10.94-5.11c2.26-0.95,4.64-1.62,6.92-2.5c2.45-0.95,4.9-2.03,7.18-3.34
					c1.19-0.68,2.04-1.51,2.1-2.94c0.03-0.66-0.12-1.33-0.22-1.99c-0.13-0.81-0.25-1.62-0.38-2.43c-0.08-0.53-0.75-0.83-1.23-0.7
					C402.02,160.11,401.8,160.65,401.89,161.18L401.89,161.18z"/>
			</g>
		</g>
		<g>
			<g>
				<path d="M375,177c-0.09,3.54,0.16,7.19,1.44,10.52c1.31,3.4,3.59,6.18,6.51,8.34c7.12,5.27,16.34,7.25,25.05,7.34
					c4.97,0.05,9.93-0.5,14.83-1.33c4.83-0.82,9.66-1.84,14.38-3.14c4.34-1.19,8.54-2.82,12.39-5.16c3.4-2.07,6.52-4.6,9.42-7.33
					c5.86-5.54,10.84-11.91,16.38-17.75c0.67-0.71,1.35-1.41,2.04-2.1c0.91-0.91-0.5-2.33-1.41-1.41
					c-5.54,5.54-10.39,11.73-15.86,17.33c-5.57,5.7-11.86,10.6-19.46,13.25c-4.43,1.55-9.06,2.55-13.65,3.49
					c-4.74,0.97-9.52,1.75-14.35,2.04c-8.63,0.52-17.66-0.54-25.34-4.77c-3.2-1.76-6.16-4.03-8-7.23c-1.63-2.83-2.24-6.09-2.36-9.32
					c-0.04-0.92-0.03-1.84-0.01-2.76C377.03,175.71,375.03,175.71,375,177L375,177z"/>
			</g>
		</g>
		<g>
			<g>
				<path d="M380.96,175.73c-0.42-1.33-1.74-2.33-2.93-2.94c-0.6-0.31-1.24-0.56-1.92-0.6c-1.01-0.06-2.04,0.25-2.97,0.61
					c-1.97,0.77-3.9,1.64-5.84,2.47c-1.78,0.75-3.56,1.49-5.08,2.7c-1.6,1.28-2.74,3.15-2.78,5.23c-0.03,1.29,1.97,1.29,2,0
					c0.04-1.94,1.48-3.43,3.04-4.39c1.78-1.09,3.79-1.8,5.71-2.62c1.02-0.43,2.04-0.87,3.06-1.3c0.87-0.36,1.95-0.84,2.92-0.71
					c0.85,0.12,2.58,1.2,2.87,2.07C379.43,177.49,381.36,176.96,380.96,175.73L380.96,175.73z"/>
			</g>
		</g>
		<g>
			<g>
				<path d="M472.77,165.03c1.07-1.55,3.32-1.35,4.92-1.06c2.1,0.38,4.18,0.88,6.24,1.45c1.96,0.55,4.04,1.08,5.89,1.95
					c1.61,0.75,2.68,2.05,2.99,3.82c0.09,0.53,0.75,0.83,1.23,0.7c0.56-0.15,0.79-0.7,0.7-1.23c-0.37-2.14-1.78-3.95-3.71-4.92
					c-2.11-1.06-4.52-1.68-6.79-2.3c-2.36-0.65-4.78-1.26-7.21-1.57c-2.25-0.28-4.62,0.2-5.98,2.17
					C470.31,165.09,472.04,166.09,472.77,165.03L472.77,165.03z"/>
			</g>
		</g>
		<g>
			<g>
				<path d="M359.58,182.69c-1.39,5.11-3.6,9.93-5.71,14.77c-2.18,5.01-4.17,10.1-6.05,15.22c-3.74,10.22-6.91,20.66-9.12,31.31
					c-1.25,6.02-2.19,12.1-2.78,18.21c-0.05,0.54,0.5,1,1,1c0.58,0,0.95-0.46,1-1c1.03-10.74,3.22-21.35,6.18-31.72
					c2.98-10.45,6.66-20.75,10.94-30.73c2.33-5.44,4.91-10.81,6.47-16.54C361.85,181.98,359.92,181.45,359.58,182.69L359.58,182.69z
					"/>
			</g>
		</g>
		<g>
			<g>
				<path d="M492.85,171.9c-0.02,3.09-0.3,6.14-1.2,9.11c-0.97,3.22-2.53,6.23-3.9,9.29c-1.38,3.07-2.63,6.17-3.44,9.45
					c-0.84,3.42-1.32,6.92-1.64,10.42c-0.65,7.1-0.49,14.24-0.07,21.34c0.21,3.6,0.49,7.19,0.77,10.79c0.27,3.46,0.56,7,1.69,10.31
					c0.55,1.61,1.28,3.15,2.12,4.62c0.84,1.46,1.88,2.8,2.72,4.26c1.45,2.49,2.29,5.64,2.1,8.52c-0.09,1.28,1.91,1.28,2,0
					c0.19-2.76-0.55-5.62-1.66-8.13c-0.56-1.27-1.34-2.36-2.1-3.51c-0.85-1.29-1.64-2.61-2.31-4c-1.42-2.96-2.02-6.18-2.34-9.42
					c-0.35-3.57-0.58-7.15-0.82-10.73c-0.48-7.1-0.76-14.24-0.31-21.35c0.22-3.52,0.61-7.04,1.31-10.5
					c0.69-3.38,1.76-6.62,3.14-9.77c1.51-3.46,3.3-6.83,4.48-10.42c1.08-3.32,1.44-6.78,1.47-10.26
					C494.86,170.61,492.86,170.61,492.85,171.9L492.85,171.9z"/>
			</g>
		</g>
		<g>
			<g>
				<path d="M335.18,322.82c-0.41,1.64,0.83,2.89,1.9,3.93c0.7,0.68,1.27,1.37,1.52,2.33c0.2,0.74,0.3,1.49,0.6,2.21
					c1.08,2.62,3.5,4.55,5.84,5.99c1.34,0.83,2.76,1.53,4.23,2.09c0.3,0.12,0.43-0.37,0.13-0.48c-3.16-1.22-6.41-3.1-8.54-5.79
					c-0.54-0.68-1.01-1.45-1.31-2.27c-0.3-0.83-0.35-1.73-0.69-2.54c-0.77-1.83-3.78-3.06-3.21-5.33
					C335.74,322.64,335.26,322.51,335.18,322.82L335.18,322.82z"/>
			</g>
		</g>
		<g>
			<g>
				<path d="M350.08,346.7c1.52,0.91,3.2,1.54,4.95,1.83c0.31,0.05,0.45-0.43,0.13-0.48c-1.71-0.29-3.34-0.89-4.83-1.78
					C350.06,346.1,349.81,346.53,350.08,346.7L350.08,346.7z"/>
			</g>
		</g>
		<g>
			<g>
				<path d="M385.46,201.53c6.77,5.23,15.26,7.7,23.73,8.12c4.81,0.24,9.64-0.16,14.39-0.92c4.6-0.74,9.2-1.76,13.66-3.12
					c4.6-1.4,9.08-3.32,12.9-6.29c0.25-0.2-0.1-0.55-0.35-0.35c-3.4,2.64-7.36,4.44-11.44,5.77c-4.19,1.37-8.54,2.37-12.87,3.16
					c-8.89,1.62-18.17,2.02-26.94-0.46c-4.58-1.29-8.95-3.35-12.72-6.27C385.56,200.98,385.21,201.33,385.46,201.53L385.46,201.53z"
					/>
			</g>
		</g>
		<g>
			<g>
				<path d="M466.16,186.86c1.99-2.22,3.97-4.44,5.96-6.66c0.21-0.24-0.14-0.59-0.35-0.35c-1.99,2.22-3.97,4.44-5.96,6.66
					C465.6,186.74,465.95,187.1,466.16,186.86L466.16,186.86z"/>
			</g>
		</g>
		<g>
			<g>
				<path d="M492.49,274.06c-1.1,6.78-2.2,13.55-3.3,20.33c-0.54,3.29-1.1,6.6-1.24,9.94c-0.14,3.29,0.34,6.59,0.06,9.88
					c-0.27,3.13-1.68,5.9-2.59,8.86c-0.45,1.47-0.72,2.99-0.74,4.53c-0.02,1.63,0.19,3.25,0.28,4.87
					c0.33,5.98-1.95,11.56-3.41,17.26c-0.72,2.83-1.25,5.75-1.19,8.69c0.03,1.6,0.29,3.21-0.08,4.79c-0.18,0.78-0.46,1.53-0.75,2.27
					c-0.21,0.53-0.48,1.01-0.5,1.58c-0.01,0.2-0.01,0.4-0.01,0.59c0,0.31-0.1,0.32,0.02,0.08c-0.19,0.38-0.38,0.81-0.37,1.24
					c0.01,1.3,0.31,2.71,0.67,3.95c0.74,2.5,1.36,5.21,1.11,7.84c-0.19,1.99-1.03,4.22-3.05,4.97c-1.42,0.53-3.02,0.24-4.48,0.01
					c-1.68-0.27-3.36-0.53-5.04-0.79c-6.71-1.03-13.43-1.98-20.18-2.7c-13.5-1.45-27.02-1.8-40.57-0.89
					c-13.48,0.9-26.86,2.82-40.19,4.96c-6.69,1.08-13.37,2.22-20.05,3.33c-3.17,0.53-6.38,1.22-9.58,1.53
					c-1.12,0.11-2.39,0.17-3.43-0.34c-1.24-0.61-1.46-1.94-1.42-3.21c0.06-1.6,0.32-3.21,0.51-4.8c0.2-1.71,0.39-3.42,0.59-5.12
					c0.39-3.42,0.78-6.83,1.17-10.25c0.78-6.83,1.55-13.66,2.35-20.49c0.19-1.61,0.51-3.2,0.75-4.81c0.23-1.49,0.14-2.88-0.08-4.37
					c-0.47-3.21-0.89-6.43-1.23-9.65c-0.36-3.38-0.52-6.76-0.28-10.16c0.23-3.32,0.45-6.53-0.03-9.83
					c-0.46-3.21-1.31-6.36-1.48-9.61c-0.17-3.24,0.31-6.47,0.55-9.7c0.5-6.7,0.65-13.38,1.75-20.03c0.24-1.46,0.66-2.91,0.65-4.4
					c0-0.77-0.08-1.54,0.09-2.29c0.19-0.8,0.4-1.39,0.28-2.22c-0.08-0.54-0.76-0.82-1.23-0.7c-0.58,0.15-0.77,0.7-0.7,1.23
					c0.05,0.37-0.2,0.81-0.28,1.16c-0.09,0.36-0.14,0.74-0.17,1.11c-0.06,0.81,0.04,1.62-0.02,2.43c-0.12,1.62-0.59,3.24-0.82,4.84
					c-0.49,3.35-0.82,6.73-1.06,10.11c-0.24,3.37-0.31,6.75-0.61,10.12c-0.29,3.28-0.67,6.55-0.31,9.84
					c0.35,3.27,1.22,6.45,1.56,9.72c0.35,3.38-0.16,6.72-0.28,10.09c-0.13,3.45,0.2,6.89,0.62,10.31c0.2,1.66,0.42,3.32,0.62,4.98
					c0.18,1.48,0.48,2.95,0.59,4.43c0.12,1.6-0.25,3.14-0.51,4.71c-0.28,1.68-0.46,3.38-0.66,5.07c-0.39,3.42-0.78,6.83-1.17,10.25
					c-0.79,6.94-1.59,13.87-2.38,20.81c-0.2,1.76-0.4,3.52-0.61,5.28c-0.16,1.43-0.36,2.95,0.11,4.34c0.88,2.57,3.51,3.31,5.98,3.17
					c1.49-0.08,2.96-0.38,4.43-0.62c1.72-0.28,3.44-0.56,5.16-0.84c3.34-0.55,6.68-1.11,10.02-1.67
					c13.57-2.27,27.16-4.51,40.85-5.89c13.68-1.38,27.41-1.81,41.13-0.81c6.91,0.51,13.79,1.3,20.65,2.25
					c3.48,0.48,6.95,1.01,10.41,1.55c2.88,0.45,6.29,1.5,9.09,0.24c2.1-0.95,3.32-3.07,3.76-5.26c0.5-2.47,0.08-4.84-0.31-7.29
					c-0.26-1.63-0.97-3.14-1.13-4.79c-0.03-0.33-0.05-0.66-0.11-0.98c-0.04-0.19,0-0.27-0.04-0.06c0.1-0.45,0.35-0.8,0.37-1.28
					c0.01-0.17,0.01-0.35,0.01-0.52c0-0.09,0.06-0.51,0-0.29c-0.09,0.32,0.13-0.22,0.16-0.29c0.08-0.18,0.15-0.36,0.22-0.54
					c0.17-0.42,0.33-0.84,0.48-1.26c0.52-1.54,0.66-3.08,0.57-4.7c-0.17-3.12,0.1-6.09,0.83-9.13c0.68-2.85,1.61-5.63,2.36-8.45
					c0.77-2.9,1.38-5.9,1.36-8.91c-0.02-3.24-0.7-6.36,0.19-9.55c0.85-3.05,2.31-5.85,2.72-9.02c0.42-3.27-0.04-6.57,0.01-9.85
					c0.06-3.48,0.64-6.92,1.2-10.35c0.55-3.39,1.1-6.78,1.65-10.16s1.1-6.78,1.65-10.16C494.62,273.34,492.69,272.79,492.49,274.06
					L492.49,274.06z"/>
			</g>
		</g>
		<g>
			<g>
				<path d="M364.04,261.3c9.64,1.85,19.45,2.79,29.27,2.79c9.78,0,19.55-0.93,29.16-2.76c5.46-1.04,10.86-2.38,16.17-4.01
					c0.31-0.09,0.18-0.58-0.13-0.48c-9.34,2.86-18.96,4.83-28.67,5.87c-9.7,1.04-19.5,1.16-29.22,0.37
					c-5.52-0.45-11.01-1.21-16.44-2.25C363.85,260.76,363.72,261.24,364.04,261.3L364.04,261.3z"/>
			</g>
		</g>
		<g>
			<g>
				<path d="M389.35,277.87c2.54-0.71,4.99-1.69,7.32-2.94c0.28-0.15,0.03-0.58-0.25-0.43c-2.29,1.22-4.7,2.19-7.2,2.89
					C388.9,277.48,389.04,277.96,389.35,277.87L389.35,277.87z"/>
			</g>
		</g>
		<g>
			<g>
				<path d="M387.58,239.04c4.39,1.69,8.62,3.76,12.65,6.2c2,1.21,3.95,2.52,5.84,3.91c0.3,0.22,1.59,1.08,0.63,1.36
					c-0.53,0.15-1.23-0.03-1.76-0.07c-1.13-0.09-2.25-0.17-3.38-0.26c-4.29-0.34-8.63-0.58-12.81-1.68
					c-2.55-0.67-5.09-1.39-7.64-2.04c-0.31-0.08-0.45,0.4-0.13,0.48c4.07,1.03,8.1,2.4,12.27,2.95c3.02,0.4,6.06,0.61,9.09,0.84
					c1.22,0.1,2.44,0.2,3.66,0.28c0.6,0.04,1.58-0.03,1.57-0.86c-0.01-0.87-1.38-1.54-1.98-1.97c-1-0.72-2.01-1.41-3.04-2.08
					c-4.67-3.03-9.65-5.56-14.84-7.56C387.41,238.44,387.28,238.92,387.58,239.04L387.58,239.04z"/>
			</g>
		</g>
		<g>
			<g>
				<path d="M473.45,253.72c-3.03,6.78-10.41,9.54-17.02,11.54c-0.31,0.09-0.18,0.58,0.13,0.48c6.72-2.03,14.24-4.87,17.31-11.77
					C474.01,253.68,473.58,253.42,473.45,253.72L473.45,253.72z"/>
			</g>
		</g>
		<g>
			<g>
				<path d="M460.76,277.44c2.11-0.31,4.14-1.02,5.99-2.08c0.28-0.16,0.03-0.59-0.25-0.43c-1.82,1.04-3.8,1.72-5.87,2.02
					C460.31,277.01,460.44,277.49,460.76,277.44L460.76,277.44z"/>
			</g>
		</g>
		<g>
			<g>
				<path d="M488.3,289.63c-1.33,1.43-2.68,2.85-4,4.3c-1.1,1.21-2.04,2.49-2.62,4.03c-0.63,1.68-0.88,3.48-1.42,5.19
					c-0.45,1.44-1.15,2.76-2.09,3.94c-3.52,4.4-9.13,6.47-12.79,10.75c-2.1,2.45-3.45,6.04-6.65,7.3c-0.3,0.12-0.17,0.6,0.13,0.48
					c2.76-1.09,4.2-3.78,5.82-6.08c1.74-2.45,4.06-4.27,6.49-5.99c2.24-1.59,4.57-3.11,6.48-5.11c0.93-0.97,1.74-2.06,2.34-3.27
					c0.76-1.52,1.1-3.18,1.5-4.81c0.25-1.02,0.52-2.04,0.97-2.99c0.44-0.96,1.07-1.8,1.76-2.6c1.42-1.64,2.95-3.19,4.43-4.78
					C488.87,289.75,488.52,289.4,488.3,289.63L488.3,289.63z"/>
			</g>
		</g>
		<g>
			<g>
				<path d="M340.15,298.95c0.4,3.03,1.97,5.63,4.36,7.51c2.43,1.9,5.6,3.38,6.73,6.46c0.11,0.3,0.59,0.17,0.48-0.13
					c-1.01-2.77-3.56-4.33-5.85-5.95c-1.36-0.96-2.63-2.03-3.56-3.44c-0.88-1.34-1.45-2.87-1.66-4.46
					C340.6,298.64,340.1,298.63,340.15,298.95L340.15,298.95z"/>
			</g>
		</g>
		<g>
			<g>
				<path d="M339.72,378.66c3.08,0.79,6.31,0.81,9.4,0.05c0.31-0.08,0.18-0.56-0.13-0.48c-3,0.73-6.14,0.71-9.13-0.05
					C339.54,378.09,339.41,378.58,339.72,378.66L339.72,378.66z"/>
			</g>
		</g>
		<g>
			<g>
				<path d="M365,377.29c11.54-2.6,23.16-5.22,35.02-5.77c6.01-0.28,12.02,0.24,18.03-0.2c2.93-0.21,5.85-0.53,8.78-0.66
					c2.95-0.13,5.92-0.11,8.87,0.01c6.75,0.28,13.46,1.09,20.16,1.9c0.32,0.04,0.32-0.46,0-0.5c-5.97-0.72-11.94-1.45-17.94-1.79
					c-2.99-0.17-5.99-0.25-8.99-0.19c-2.99,0.06-5.96,0.32-8.93,0.57c-2.99,0.25-5.98,0.4-8.98,0.36c-3.02-0.04-6.03-0.16-9.05-0.08
					c-5.87,0.15-11.7,0.85-17.49,1.82c-6.58,1.1-13.1,2.57-19.61,4.04C364.55,376.88,364.68,377.36,365,377.29L365,377.29z"/>
			</g>
		</g>
		<g>
			<g>
				<path d="M385.66,365.35c2.14,0.07,4.13,1.19,6.28,1.11c1.02-0.04,1.86-0.45,2.76-0.86c1.17-0.53,2.4-0.66,3.68-0.62
					c2.41,0.06,4.81,0.31,7.21,0.37c2.5,0.07,5.01,0.07,7.51-0.01c2.83-0.09,5.66-0.28,8.48-0.55c0.32-0.03,0.32-0.53,0-0.5
					c-4.99,0.49-10,0.69-15.01,0.59c-2.44-0.05-4.86-0.21-7.3-0.36c-1.1-0.07-2.22-0.09-3.3,0.13c-1.1,0.23-2.02,0.88-3.1,1.17
					c-2.4,0.64-4.83-0.88-7.22-0.97C385.34,364.84,385.34,365.34,385.66,365.35L385.66,365.35z"/>
			</g>
		</g>
		<g>
			<g>
				<path d="M541.5,237.52c0.57-7.9,3.39-15.38,4.45-23.2c0.93-6.86,0.51-14.03-1.95-20.55c-1.22-3.25-2.92-6.28-5.11-8.97
					c-2.12-2.6-4.68-4.83-7.45-6.72c-5.32-3.63-11.36-5.8-17.59-7.28c-6.18-1.47-12.57-2.53-18.93-2.76
					c-0.64-0.02-1.29-0.03-1.93-0.03c-1.29,0-1.29,2,0,2c6.04-0.02,12.12,0.94,18.01,2.2c5.98,1.28,11.83,3.01,17.13,6.13
					c5.74,3.38,10.45,8.12,13.22,14.23c2.77,6.12,3.47,13.03,2.84,19.67c-0.39,4.13-1.43,8.16-2.39,12.19
					c-1.03,4.32-1.99,8.66-2.31,13.1C539.41,238.8,541.41,238.79,541.5,237.52L541.5,237.52z"/>
			</g>
		</g>
		<g>
			<g>
				<path d="M492,270c0.02,3.95,0.99,7.9,2.08,11.68c0.98,3.41,2.14,6.79,3.51,10.07c0.86,2.07,1.86,4.06,3.27,5.81
					c1.36,1.68,3.13,2.84,4.94,3.98c1.72,1.09,3.37,2.23,4.34,4.09c1,1.92,1.52,4.09,3.14,5.63c1.73,1.65,4.08,2.26,6.22,3.18
					c1.8,0.77,4.02,2.18,4.01,4.38c0,1.29,2,1.29,2,0c0-2.13-1.33-3.81-2.99-4.99c-1.71-1.22-3.76-1.71-5.63-2.59
					c-0.91-0.43-1.77-0.93-2.46-1.67c-0.72-0.77-1.16-1.78-1.57-2.74c-0.43-1.02-0.83-2.06-1.44-2.99
					c-0.56-0.86-1.27-1.61-2.07-2.26c-1.62-1.31-3.5-2.23-5.13-3.52c-1.7-1.34-2.91-3.13-3.87-5.05c-1.61-3.21-2.76-6.72-3.82-10.14
					c-1.28-4.14-2.51-8.52-2.53-12.88C493.99,268.71,491.99,268.71,492,270L492,270z"/>
			</g>
		</g>
		<g>
			<g>
				<path d="M532.95,317.68c-0.93-1.98-1.9-4.15-1.18-6.36c0.61-1.88,2.11-3.32,3.29-4.85c2.28-2.94,3.66-6.53,3.98-10.24
					c0.34-3.94-0.78-7.64-2-11.34c-1.23-3.74-2.61-7.75-1.7-11.72c0.27-1.15,0.75-2.24,0.95-3.41c0.17-0.98,0.08-1.96-0.16-2.93
					c-0.52-2.06-1.71-4.09-1.37-6.28c0.05-0.31-0.43-0.45-0.48-0.13c-0.29,1.83,0.39,3.52,0.97,5.23c0.3,0.9,0.59,1.83,0.64,2.79
					c0.06,1.15-0.31,2.23-0.65,3.3c-0.61,1.91-0.81,3.83-0.59,5.82c0.21,1.92,0.74,3.8,1.32,5.64c1.23,3.9,2.76,7.76,2.64,11.91
					c-0.11,4.07-1.56,8.05-4.08,11.24c-1.25,1.58-2.78,3.11-3.32,5.11c-0.61,2.26,0.36,4.46,1.31,6.47
					C532.66,318.22,533.09,317.97,532.95,317.68L532.95,317.68z"/>
			</g>
		</g>
		<g>
			<g>
				<path d="M543.06,219.68c-0.44,5.76,0.63,11.57,3.06,16.81c1.27,2.72,3.02,5.14,4.55,7.72c1.51,2.56,2.7,5.3,3.53,8.16
					c0.9,3.08,1.16,6.14,1.21,9.33c0.05,3.01,0.22,5.99,0.58,8.97c0.73,5.88,1.96,11.69,3.64,17.37c1.76,5.93,3.88,11.76,5.46,17.75
					c1.58,6.01,2.43,12.11,2.39,18.33c-0.08,12.37-3.23,24.51-7.25,36.13c-3.39,9.79-7.72,19.22-10.87,29.1
					c-0.46,1.45-0.91,2.91-1.33,4.38c-0.36,1.24,1.57,1.77,1.93,0.53c1.53-5.25,3.32-10.41,5.31-15.5
					c1.83-4.68,3.75-9.31,5.49-14.03c4.23-11.5,7.69-23.45,8.54-35.73c0.42-6.12,0.14-12.27-1.02-18.3
					c-1.17-6.09-3.15-11.99-5.05-17.88c-1.85-5.76-3.49-11.55-4.54-17.52c-0.52-2.97-0.91-5.97-1.12-8.98
					c-0.22-3.08-0.05-6.17-0.38-9.24c-0.65-6.08-3.27-11.56-6.52-16.65c-3.22-5.02-5.35-10.46-5.67-16.46
					c-0.08-1.43-0.05-2.87,0.06-4.3C545.16,218.39,543.16,218.4,543.06,219.68L543.06,219.68z"/>
			</g>
		</g>
		<g>
			<g>
				<path d="M511.21,309.29c0.05,1.05-0.32,2.09-0.69,3.06c-0.38,1.02-0.84,2.01-1.29,3c-1.18,2.61-2.55,5.13-3.65,7.77
					c-2.32,5.53-2.6,11.58-2.39,17.5c0.22,6.15,0.53,12.37,1.5,18.45c0.49,3.03,1.23,5.99,2.18,8.91c0.92,2.85,1.86,5.69,2.58,8.59
					c1.42,5.73,1.93,11.58,2.55,17.43c0.06,0.54,0.42,1,1,1c0.5,0,1.06-0.46,1-1c-0.55-5.25-0.99-10.52-2.09-15.69
					c-0.6-2.8-1.37-5.56-2.26-8.28c-0.96-2.95-1.93-5.87-2.56-8.91c-1.24-6.05-1.51-12.28-1.81-18.44
					c-0.29-5.84-0.35-11.84,1.61-17.43c1.06-3.03,2.7-5.84,4.01-8.76c0.99-2.21,2.42-4.71,2.31-7.2
					C513.16,308.01,511.16,308,511.21,309.29L511.21,309.29z"/>
			</g>
		</g>
		<g>
			<g>
				<path d="M542.89,309.76c-2.63,1.21-4.42,3.63-5.4,6.3c-1.24,3.4-1.06,7.1-0.7,10.63c0.41,3.93,0.84,7.84,1.14,11.78
					c0.29,3.96,0.51,7.92,0.67,11.89c0.19,4.46,0.32,8.93,0.46,13.4c0.01,0.32,0.51,0.32,0.5,0c-0.23-7.69-0.46-15.38-0.98-23.06
					c-0.26-3.88-0.59-7.75-1.03-11.61c-0.41-3.64-0.93-7.41-0.13-11.03c0.72-3.27,2.59-6.43,5.71-7.87
					C543.44,310.06,543.18,309.63,542.89,309.76L542.89,309.76z"/>
			</g>
		</g>
		<g>
			<g>
				<path d="M520.88,319.54c2.96,4.16,5.24,8.78,6.71,13.68c1.56,5.18,2.23,10.57,2.57,15.95c0.19,3.01,0.29,6.02,0.38,9.04
					c0.01,0.32,0.51,0.32,0.5,0c-0.33-10.65-0.79-21.51-5.34-31.35c-1.23-2.66-2.71-5.19-4.4-7.57
					C521.12,319.03,520.69,319.28,520.88,319.54L520.88,319.54z"/>
			</g>
		</g>
		<g>
			<g>
				<path d="M511.98,393.37c-0.96,4.29-3.86,7.68-6.75,10.84c-0.74,0.81-1.51,1.59-2.19,2.45c-0.66,0.85-1.16,1.79-1.63,2.75
					c-0.96,1.92-1.96,3.77-2.59,5.84c-0.66,2.17-1,4.43-1.13,6.68c-0.13,2.3,0.05,4.56,0.21,6.85c0.07,1.05,0.12,2.12-0.12,3.15
					s-0.79,1.9-1.29,2.81c-1.1,1.99-1.51,4.16-1.65,6.42c-0.15,2.33-0.18,4.67-0.27,7c-0.08,2.29-0.28,4.6-0.23,6.89
					c0.05,1.94,0.88,3.67,2.8,4.34c1.68,0.58,3.6,0.21,5.18-0.49c3.36-1.49,5.47-4.9,6.62-8.26c1.29-3.79,1.39-7.93,3.02-11.61
					c1.72-3.89,5.27-6.46,7.63-9.91c2.34-3.44,3.6-7.47,4.55-11.49c0.23-0.99,0.45-1.98,0.66-2.96c0.27-1.25-1.66-1.79-1.93-0.53
					c-0.83,3.81-1.67,7.69-3.4,11.2c-0.89,1.79-1.99,3.43-3.31,4.94c-1.33,1.52-2.76,2.94-3.99,4.55c-2.56,3.34-3.31,7.3-4.13,11.33
					c-0.68,3.33-1.66,6.78-4.15,9.23c-1.16,1.14-2.59,2.03-4.23,2.25c-1.46,0.2-2.96-0.2-3.25-1.82c-0.16-0.91-0.04-1.89-0.01-2.81
					c0.04-1.16,0.08-2.32,0.12-3.47c0.08-2.3,0.16-4.61,0.25-6.91c0.08-2.05,0.18-4.19,1.05-6.09c0.44-0.95,1.04-1.81,1.45-2.77
					c0.43-0.98,0.63-2.02,0.67-3.09c0.09-2.12-0.29-4.26-0.31-6.38c-0.02-2.19,0.14-4.38,0.6-6.52c0.44-2.05,1.13-4,2.12-5.84
					c0.47-0.87,0.88-1.77,1.35-2.63c0.49-0.9,1.08-1.64,1.77-2.4c2.81-3.09,5.79-6.19,7.46-10.08c0.41-0.95,0.74-1.91,0.96-2.92
					C514.19,392.65,512.26,392.12,511.98,393.37L511.98,393.37z"/>
			</g>
		</g>
		<g>
			<g>
				<path d="M513.09,421.3c-0.65,3.48-2.1,6.74-4.16,9.61c-0.19,0.26,0.25,0.51,0.43,0.25c2.08-2.9,3.55-6.22,4.21-9.73
					C513.63,421.12,513.15,420.99,513.09,421.3L513.09,421.3z"/>
			</g>
		</g>
		<g>
			<g>
				<path d="M496.79,456.37c1.11,0.23,2.32,0,3.24-0.68c1.01-0.74,1.36-1.9,1.39-3.1c0.02-0.74-0.03-1.48-0.06-2.22
					c-0.02-0.53-0.02-1.08-0.49-1.42c-0.77-0.55-1.95-0.08-2.65-0.72c-0.24-0.21-0.59,0.14-0.35,0.35c0.61,0.55,1.47,0.43,2.22,0.59
					c0.57,0.12,0.74,0.39,0.77,0.97c0.03,0.65,0.06,1.3,0.07,1.95c0.02,1.12-0.12,2.3-1.03,3.07c-0.81,0.68-1.95,0.93-2.97,0.72
					C496.61,455.83,496.47,456.31,496.79,456.37L496.79,456.37z"/>
			</g>
		</g>
		<g>
			<g>
				<path d="M528.19,424.14c0.36,2.12,0.71,4.25,1.07,6.37c0.34,2.06,0.87,4.17,0.96,6.26c0.14,3.41-2.61,5.88-4.36,8.52
					c-1.03,1.56-1.72,3.25-1.94,5.12c-0.23,1.92,0.04,3.89,0.59,5.73c0.54,1.81,1.42,3.6,0.81,5.5c-0.58,1.81-1.81,3.5-2.8,5.11
					c-2.11,3.44-4.38,6.78-6.77,10.03c-1.21,1.63-2.45,3.24-3.72,4.82c-0.55,0.68-1.08,1.39-1.78,1.92
					c-0.48,0.37-1.21,0.84-1.85,0.63c-0.66-0.22-1.09-1.27-1.43-1.82c-0.5-0.81-0.98-1.64-1.31-2.54c-0.64-1.74-0.49-3.36,0.36-4.99
					c0.87-1.68,2.09-3.15,3.09-4.74c1.05-1.68,1.97-3.44,2.8-5.23c0.84-1.79,1.6-3.61,2.36-5.43c0.78-1.86,1.47-3.74,1.29-5.79
					c-0.17-2.02-0.85-3.98-1.32-5.94c-0.23-0.96-0.46-1.91-0.79-2.84c-0.32-0.9-0.71-1.76-0.99-2.67c-0.27-0.89-0.43-1.78-0.45-2.72
					c-0.02-1.29-2.02-1.29-2,0c0.04,2.09,0.78,3.88,1.48,5.81c0.69,1.92,1.07,3.97,1.6,5.94c0.28,1.06,0.53,2.14,0.52,3.24
					c-0.01,1.02-0.3,1.99-0.65,2.94c-0.72,1.94-1.57,3.84-2.42,5.72c-0.85,1.87-1.77,3.71-2.83,5.46c-1.03,1.69-2.29,3.23-3.25,4.96
					c-0.94,1.7-1.43,3.52-1.08,5.46c0.36,2,1.5,3.81,2.59,5.48c0.49,0.75,1.09,1.41,1.99,1.65c0.89,0.23,1.82,0,2.62-0.41
					c1.7-0.88,2.83-2.59,3.98-4.06c2.66-3.37,5.18-6.85,7.53-10.44c1.14-1.74,2.25-3.51,3.31-5.3c1.03-1.74,2.2-3.58,2.17-5.67
					c-0.03-2.08-1.05-3.98-1.47-5.99c-0.39-1.92-0.36-3.94,0.35-5.79c1.24-3.23,4.23-5.46,5.37-8.76c0.69-1.97,0.33-4-0.01-6
					c-0.38-2.25-0.75-4.49-1.13-6.74c-0.18-1.1-0.37-2.21-0.55-3.31c-0.09-0.53-0.75-0.83-1.23-0.7
					C528.32,423.07,528.1,423.61,528.19,424.14L528.19,424.14z"/>
			</g>
		</g>
		<g>
			<g>
				<path d="M504.23,477.06c0.09-0.08,0.18-0.16,0.27-0.24c-0.47-0.47-0.94-0.94-1.41-1.41c-0.34,0.33-0.91,0.46-1.34,0.61
					c-0.58,0.21-1.17,0.4-1.78,0.52c-0.82,0.16-1.67,0.12-2.46-0.16c-1.25-0.43-2.15-1.59-1.98-2.95c0.26-2.13,2.2-3.35,3.59-4.74
					c0.69-0.69,1.31-1.53,1.48-2.52c0.19-1.08-0.11-2.12-0.09-3.2c0.02-1.01,0.7-1.73,1.37-2.42c0.73-0.75,1.49-1.49,2-2.42
					c0.62-1.13-1.1-2.14-1.73-1.01c-0.99,1.79-3.12,2.82-3.55,4.95c-0.25,1.24,0.26,2.47,0.04,3.69c-0.19,1.04-1.22,1.78-1.96,2.43
					c-1.68,1.48-3.34,3.5-3.15,5.89c0.15,1.96,1.5,3.49,3.3,4.16c1.14,0.42,2.38,0.44,3.56,0.23c0.76-0.14,1.5-0.39,2.22-0.66
					c0.68-0.26,1.37-0.49,1.9-1.01c0.93-0.9-0.45-2.26-1.41-1.41c-0.09,0.08-0.18,0.16-0.27,0.24
					C501.84,476.5,503.26,477.91,504.23,477.06L504.23,477.06z"/>
			</g>
		</g>
		<g>
			<g>
				<path d="M512.29,448.62c-1.03,0.76-2.04,1.55-3.03,2.36c-0.44,0.36-0.88,0.72-1.33,1.07c-0.12,0.09-0.23,0.18-0.35,0.28
					c-0.03,0.02-0.12,0.09-0.04,0.03c-0.07,0.05-0.14,0.11-0.21,0.16c-0.28,0.21-0.56,0.42-0.84,0.63
					c-0.42,0.31-0.67,0.88-0.36,1.37c0.27,0.42,0.92,0.69,1.37,0.36c1.03-0.76,2.04-1.55,3.03-2.36c0.44-0.36,0.88-0.72,1.33-1.07
					c0.12-0.09,0.23-0.18,0.35-0.28c0.03-0.02,0.12-0.09,0.04-0.03c0.07-0.05,0.14-0.11,0.21-0.16c0.28-0.21,0.56-0.42,0.84-0.63
					c0.42-0.31,0.67-0.88,0.36-1.37C513.39,448.56,512.74,448.29,512.29,448.62L512.29,448.62z"/>
			</g>
		</g>
		<g>
			<g>
				<path d="M507.55,470.06c-0.07-1.17-1.46-1.6-2.45-1.42c-1.45,0.27-2.67,1.51-3.73,2.45c-1.22,1.09-2.46,2.25-3.45,3.56
					c-0.35,0.46-0.65,1.03-0.47,1.62c0.17,0.54,0.64,0.88,1.2,0.9c0.32,0.01,0.32-0.49,0-0.5c-0.82-0.04-0.85-0.89-0.52-1.44
					c0.3-0.51,0.77-0.96,1.16-1.39c0.77-0.84,1.59-1.63,2.44-2.39c0.82-0.73,1.68-1.55,2.67-2.04c0.51-0.25,1.09-0.39,1.66-0.26
					c0.45,0.11,0.97,0.4,1,0.91C507.07,470.38,507.57,470.38,507.55,470.06L507.55,470.06z"/>
			</g>
		</g>
		<g>
			<g>
				<path d="M518.42,473.7c-1.28-1.72-3.92-1.13-5.36,0.01c-0.98,0.77-1.71,1.8-2.47,2.77c-0.67,0.86-1.66,1.79-1.17,2.96
					c0.55,1.32,2.11,1.74,3.36,2.07c0.31,0.08,0.44-0.4,0.13-0.48c-1.12-0.3-3.15-0.79-3.14-2.29c0-0.68,0.68-1.29,1.07-1.79
					c0.4-0.52,0.8-1.04,1.22-1.55c0.78-0.94,1.73-1.86,2.95-2.16c0.98-0.25,2.31-0.18,2.97,0.7
					C518.18,474.21,518.61,473.96,518.42,473.7L518.42,473.7z"/>
			</g>
		</g>
		<g>
			<g>
				<path d="M547.9,394.32c-0.15,2.52,0.26,5.01,0.7,7.48c0.22,1.23,0.41,2.46,0.61,3.7c0.18,1.14,0.52,2.35,0.29,3.51
					c-0.21,1.07-0.92,1.89-1.65,2.65c-0.8,0.82-1.63,1.61-2.41,2.45c-1.52,1.64-2.94,3.41-4.01,5.38
					c-2.21,4.11-2.15,8.63-1.95,13.16c0.09,2.17,0.2,4.38-0.1,6.54c-0.3,2.23-1.1,4.28-2.41,6.11c-1.54,2.15-3.55,3.93-5.37,5.83
					c-1.93,2.01-3.8,4.09-5.54,6.26c-0.34,0.42-0.41,1,0,1.41c0.35,0.35,1.07,0.42,1.41,0c1.57-1.96,3.25-3.85,4.98-5.67
					c1.69-1.78,3.5-3.46,5.09-5.34c1.5-1.78,2.71-3.74,3.34-5.99c0.61-2.18,0.73-4.48,0.69-6.74c-0.08-4.43-0.8-9.12,0.99-13.33
					c0.88-2.07,2.24-3.91,3.72-5.58c0.79-0.89,1.62-1.73,2.47-2.57c0.79-0.78,1.6-1.59,2.13-2.57c0.67-1.24,0.79-2.61,0.61-3.99
					s-0.43-2.77-0.66-4.14c-0.48-2.84-1.09-5.66-0.92-8.56C549.97,393.03,547.97,393.04,547.9,394.32L547.9,394.32z"/>
			</g>
		</g>
		<g>
			<g>
				<path d="M535.91,416.65c-1.1,2.53-1.8,5.2-2.07,7.94c-0.03,0.32,0.47,0.32,0.5,0c0.26-2.65,0.94-5.25,2-7.69
					C536.47,416.61,536.04,416.36,535.91,416.65L535.91,416.65z"/>
			</g>
		</g>
		<g>
			<g>
				<path d="M515.64,195.61c0.58-0.9,1.23-1.75,1.94-2.55c0.45-0.5,0.81-1.01,1.58-0.91c0.44,0.06,0.86,0.24,1.32,0.28
					c0.89,0.08,1.45-0.27,2.11-0.81c0.74-0.61,1.65-0.72,2.57-0.78c1.42-0.08,3.02-0.08,3.94-1.35c0.47-0.65,0.66-1.45,0.75-2.23
					c0.1-0.82,0.16-1.71-0.1-2.51c-0.13-0.41-0.35-0.75-0.64-1.07c-0.4-0.44-1.02-0.97-0.47-1.56c0.86-0.92,1.89-1.72,2.84-2.54
					c0.24-0.21-0.11-0.56-0.35-0.35c-0.85,0.74-1.7,1.49-2.53,2.26c-0.49,0.45-0.91,0.93-0.59,1.62c0.16,0.33,0.44,0.59,0.69,0.86
					c0.36,0.41,0.6,0.85,0.69,1.39c0.16,0.94,0.03,2.05-0.26,2.95c-0.69,2.14-2.77,1.89-4.59,2.08c-0.72,0.07-1.45,0.23-2.04,0.66
					c-0.39,0.28-0.7,0.67-1.18,0.82c-0.56,0.17-1.17,0.03-1.72-0.11c-0.39-0.1-0.84-0.3-1.24-0.13c-0.44,0.19-0.81,0.73-1.13,1.08
					c-0.74,0.83-1.41,1.72-2.02,2.65C515.03,195.63,515.47,195.88,515.64,195.61L515.64,195.61z"/>
			</g>
		</g>
		<g>
			<g>
				<path d="M517.14,196.59c0.62-0.86,1.26-1.72,1.91-2.57c-0.15-0.02-0.3-0.04-0.46-0.06c0.16,0.71-0.34,1.41-0.18,2.13
					c0.08,0.39,0.4,0.64,0.41,1.05c0.01,0.49-0.08,0.98-0.19,1.46c-0.07,0.31,0.41,0.45,0.48,0.13c0.11-0.48,0.18-0.97,0.2-1.46
					c0.01-0.22,0-0.44-0.09-0.65c-0.08-0.19-0.23-0.34-0.3-0.53c-0.13-0.35,0-0.74,0.08-1.08c0.09-0.39,0.16-0.78,0.07-1.17
					c-0.05-0.23-0.34-0.21-0.46-0.06c-0.65,0.85-1.29,1.7-1.91,2.57C516.52,196.6,516.95,196.85,517.14,196.59L517.14,196.59z"/>
			</g>
		</g>
		<g>
			<g>
				<path d="M520.34,199.96c0.54-0.81,0.97-1.67,0.88-2.66c-0.04-0.44-0.14-0.88-0.22-1.32c-0.05-0.28-0.09-0.57-0.07-0.86
					c0.03-0.38,0.05-0.56,0.42-0.54c0.43,0.01,0.87,0.03,1.27-0.15c0.49-0.22,0.71-0.72,1.17-0.96c0.87-0.47,2.08-0.11,3.03-0.2
					c1.76-0.19,3.47-1.07,4.49-2.55c1-1.46,1.24-3.45,0.5-5.07c-0.27-0.59-0.79-1.16-0.87-1.82c-0.07-0.6,0.28-0.97,0.7-1.33
					c0.54-0.47,1.19-0.93,1.15-1.73c-0.02-0.32-0.52-0.32-0.5,0c0.04,0.77-0.85,1.18-1.32,1.67c-0.51,0.53-0.68,1.16-0.43,1.87
					c0.34,0.94,1,1.66,1.15,2.69c0.15,1.02-0.05,2.08-0.53,2.99c-0.96,1.81-3,2.81-5.01,2.82c-0.81,0-1.69-0.18-2.47,0.16
					c-0.39,0.17-0.6,0.47-0.9,0.75c-0.51,0.48-1.19,0.41-1.83,0.33c-0.09-0.01-0.17,0.05-0.22,0.12c-0.44,0.74-0.3,1.53-0.15,2.33
					c0.1,0.54,0.21,1.07,0.09,1.61c-0.12,0.59-0.45,1.11-0.78,1.6C519.73,199.98,520.17,200.23,520.34,199.96L520.34,199.96z"/>
			</g>
		</g>
		<g>
			<g>
				<path d="M486.68,208.73c2.5,0.69,4.14,2.85,5.13,5.14c1.09,2.55,1.74,5.34,2.41,8.02c0.69,2.81,1.25,5.65,1.52,8.53
					c0.26,2.72,0.31,5.45,0.5,8.18c0.21,3.03,0.61,6.05,1.62,8.92c0.11,0.3,0.59,0.17,0.48-0.13c-1.94-5.49-1.56-11.37-2.12-17.09
					c-0.29-2.93-0.85-5.82-1.56-8.67c-0.67-2.69-1.33-5.48-2.43-8.03c-1.04-2.41-2.8-4.64-5.43-5.37
					C486.5,208.17,486.37,208.65,486.68,208.73L486.68,208.73z"/>
			</g>
		</g>
		<g>
			<g>
				<path d="M507.74,239.87c-2.66,3.75-5.63,7.28-8.89,10.53c-0.79,0.79-1.6,1.56-2.42,2.32c-0.76,0.7-1.64,1.35-2.31,2.14
					c-0.64,0.76-0.8,1.55-0.71,2.52c0.05,0.56,0.11,1.09-0.02,1.64c-0.14,0.59-0.44,1.13-0.68,1.68c-0.97,2.19-1.1,4.65-0.4,6.95
					c0.09,0.31,0.58,0.18,0.48-0.13c-0.67-2.2-0.55-4.56,0.39-6.66c0.4-0.88,0.83-1.72,0.8-2.72c-0.02-0.51-0.13-1.01-0.1-1.52
					c0.04-0.64,0.36-1.17,0.79-1.63c0.7-0.75,1.52-1.38,2.28-2.08c0.79-0.73,1.57-1.48,2.34-2.25c1.55-1.55,3.05-3.17,4.47-4.85
					c1.56-1.83,3.03-3.74,4.42-5.7C508.36,239.86,507.93,239.61,507.74,239.87L507.74,239.87z"/>
			</g>
		</g>
		<g>
			<g>
				<path d="M508.52,250.37c-1.38,1.2-2.83,2.46-4.64,2.92c-0.93,0.24-1.89,0.27-2.83,0.43c-0.91,0.16-1.77,0.48-2.61,0.87
					c-1.43,0.67-2.97,1.28-3.19,3.02c-0.11,0.85,0,1.72-0.22,2.55c-0.24,0.92-0.78,1.72-1.28,2.51c-0.91,1.44-1.8,3.2-0.96,4.88
					c0.14,0.29,0.57,0.04,0.43-0.25c-1.06-2.15,1.05-4.19,1.91-5.99c0.41-0.86,0.54-1.7,0.56-2.64c0.02-0.54,0.01-1.11,0.2-1.62
					c0.23-0.63,0.75-0.97,1.32-1.27c1.03-0.55,2.08-1.1,3.21-1.41c1.11-0.3,2.26-0.3,3.38-0.55c1.99-0.45,3.58-1.8,5.08-3.1
					C509.12,250.51,508.77,250.16,508.52,250.37L508.52,250.37z"/>
			</g>
		</g>
		<g>
			<g>
				<path d="M545.44,258.09c1.14,0,2.1,0.87,3.26,0.72c0.96-0.12,1.25-0.89,1.62-1.66c0.25-0.53,0.59-0.82,1.17-0.95
					c0.49-0.11,0.99-0.17,1.46-0.36c1.01-0.43,1.78-1.23,2.51-2.02c0.22-0.23-0.13-0.59-0.35-0.35c-0.72,0.77-1.48,1.6-2.5,1.97
					c-0.82,0.3-1.81,0.19-2.41,0.94c-0.57,0.71-0.58,1.91-1.72,1.96c-1.07,0.04-1.97-0.73-3.05-0.73
					C545.12,257.59,545.12,258.09,545.44,258.09L545.44,258.09z"/>
			</g>
		</g>
		<g>
			<g>
				<path d="M544.87,259.84c1.01,0.32,2.02,0.69,3.04,0.95c0.73,0.18,1.56,0.24,2.13-0.33c-0.14-0.04-0.28-0.07-0.42-0.11
					c0.16,0.66,0.2,1.35,0.1,2.03c-0.04,0.28-0.08,0.61-0.25,0.85c-0.18,0.25-0.5,0.25-0.76,0.37c-0.86,0.4-0.96,1.5-0.97,2.33
					c0,0.32,0.5,0.32,0.5,0c0-0.48,0.02-0.99,0.24-1.43c0.11-0.21,0.27-0.38,0.49-0.47c0.26-0.1,0.52-0.13,0.74-0.33
					c0.39-0.36,0.46-0.96,0.52-1.46c0.07-0.68,0.02-1.35-0.14-2.01c-0.04-0.18-0.29-0.24-0.42-0.11c-0.52,0.53-1.37,0.3-2,0.11
					c-0.9-0.28-1.79-0.57-2.69-0.85C544.7,259.26,544.57,259.74,544.87,259.84L544.87,259.84z"/>
			</g>
		</g>
		<g>
			<g>
				<path d="M550.24,265.94c-0.22-0.53,0.73-0.68,1.04-0.85c0.33-0.18,0.52-0.45,0.57-0.82c0.07-0.52,0.01-1.07,0.05-1.6
					c0.05-0.65,0.15-1.29,0.29-1.93c0.11-0.47,0.2-1.31,0.65-1.59c0.37-0.23,0.84-0.18,1.2-0.46c0.43-0.33,0.76-0.83,1.11-1.24
					c0.38-0.46,0.77-0.92,1.15-1.37c0.21-0.25-0.15-0.6-0.35-0.35c-0.4,0.48-0.81,0.96-1.21,1.45c-0.41,0.49-0.79,1.14-1.43,1.32
					c-0.41,0.12-0.8,0.19-1.07,0.56c-0.31,0.43-0.41,1.05-0.53,1.56c-0.13,0.58-0.23,1.18-0.28,1.77c-0.03,0.32-0.05,0.64-0.06,0.96
					c-0.01,0.29,0.07,0.7-0.02,0.98c-0.17,0.48-0.92,0.49-1.27,0.79c-0.29,0.24-0.45,0.59-0.3,0.95
					C549.88,266.36,550.36,266.23,550.24,265.94L550.24,265.94z"/>
			</g>
		</g>
		<g>
			<g>
				<path d="M542.01,314.8c-0.11,0.87-0.12,1.76,0,2.63c0.06,0.45,0.17,0.84,0.55,1.13c0.52,0.41,1.25,0.52,1.81,0.85
					c0.32,0.19,0.65,0.41,0.91,0.68c0.36,0.38,0.24,0.86,0.36,1.32c0.16,0.6,0.66,1.06,0.99,1.57c0.41,0.63,0.72,1.31,0.97,2.01
					c0.48,1.38,0.72,2.83,0.95,4.27c0.05,0.32,0.53,0.18,0.48-0.13c-0.22-1.41-0.46-2.82-0.92-4.18c-0.2-0.59-0.44-1.17-0.74-1.71
					c-0.33-0.6-0.89-1.12-1.16-1.74c-0.26-0.59-0.04-1.18-0.52-1.7c-0.44-0.48-1.04-0.85-1.62-1.11c-0.64-0.3-1.37-0.36-1.55-1.16
					c-0.2-0.87-0.12-1.86-0.02-2.74C542.55,314.48,542.05,314.49,542.01,314.8L542.01,314.8z"/>
			</g>
		</g>
		<g>
			<g>
				<path d="M551.08,328.94c-0.18-1.63-0.49-3.25-0.94-4.83c-0.19-0.66-0.36-1.37-0.68-1.99c-0.13-0.24-0.28-0.46-0.49-0.63
					c-0.22-0.18-0.56-0.21-0.77-0.38c-0.23-0.19-0.15-0.65-0.23-0.92c-0.09-0.32-0.29-0.6-0.37-0.92c-0.19-0.73,0.59-1.3,0.93-1.89
					c0.63-1.07,0.91-2.33,0.35-3.49c-0.14-0.29-0.57-0.04-0.43,0.25c0.71,1.47-0.23,2.84-1.08,3.99c-0.27,0.36-0.38,0.74-0.27,1.19
					c0.07,0.29,0.23,0.55,0.34,0.83c0.12,0.32,0.06,0.65,0.16,0.96c0.17,0.51,0.71,0.48,1.07,0.79c0.56,0.49,0.74,1.44,0.94,2.12
					c0.47,1.61,0.8,3.26,0.98,4.93C550.61,329.26,551.11,329.26,551.08,328.94L551.08,328.94z"/>
			</g>
		</g>
		<g>
			<g>
				<path d="M546.89,314.15c-0.12,1.15-0.47,2.27-1.03,3.29c0.11-0.03,0.23-0.06,0.34-0.09c-0.4-0.18-0.79-0.37-1.17-0.59
					c-0.19-0.1-0.37-0.21-0.55-0.32c-0.09-0.06-0.36-0.17-0.35-0.3c0-0.07,0.11-0.17,0.14-0.23c0.04-0.07,0.08-0.16,0.11-0.24
					c0.06-0.16,0.09-0.33,0.08-0.5c0-0.37-0.14-0.71-0.37-0.99c-0.21-0.24-0.56,0.11-0.35,0.35c0.21,0.24,0.28,0.6,0.19,0.9
					c-0.05,0.17-0.17,0.3-0.24,0.46c-0.09,0.18-0.08,0.38,0.04,0.56c0.1,0.15,0.27,0.25,0.42,0.35c0.19,0.12,0.38,0.23,0.58,0.34
					c0.4,0.23,0.81,0.43,1.23,0.62c0.12,0.05,0.27,0.04,0.34-0.09c0.6-1.1,0.97-2.3,1.09-3.54c0.01-0.14-0.13-0.25-0.25-0.25
					C546.99,313.9,546.9,314.02,546.89,314.15L546.89,314.15z"/>
			</g>
		</g>
		<g>
			<g>
				<path d="M562.61,311.38c1.4,10.94-2.52,21.57-7.37,31.18c-1.38,2.73-2.84,5.42-4.29,8.11c-0.15,0.28,0.28,0.54,0.43,0.25
					c5.17-9.53,10.46-19.36,11.75-30.29c0.36-3.07,0.38-6.18-0.01-9.25C563.07,311.07,562.57,311.06,562.61,311.38L562.61,311.38z"
					/>
			</g>
		</g>
		<g>
			<g>
				<path d="M538.78,381.33c0.39,1.47-0.31,2.92-0.67,4.32c-0.16,0.61-0.27,1.25-0.22,1.88c0.06,0.7,0.36,1.26,0.7,1.86
					c0.49,0.86,0.51,1.75,0.63,2.71c0.1,0.81,0.25,1.61,0.43,2.41c0.4,1.72,1.01,3.37,1.78,4.96c0.14,0.29,0.57,0.04,0.43-0.25
					c-0.78-1.61-1.38-3.31-1.78-5.06c-0.2-0.9-0.35-1.81-0.44-2.73c-0.07-0.75-0.16-1.44-0.52-2.11c-0.38-0.7-0.75-1.3-0.75-2.12
					c0-0.75,0.22-1.48,0.44-2.19c0.37-1.24,0.79-2.5,0.44-3.8C539.18,380.89,538.69,381.02,538.78,381.33L538.78,381.33z"/>
			</g>
		</g>
		<g>
			<g>
				<path d="M540.42,400.14c-0.37-0.6-0.74-1.2-1.12-1.8c-0.14-0.22-0.44-0.11-0.47,0.13c-0.1,0.96-0.48,1.87-1.05,2.64
					c-0.08,0.11-0.02,0.28,0.09,0.34c0.13,0.07,0.26,0.02,0.34-0.09c0.63-0.84,1-1.84,1.12-2.89c-0.16,0.04-0.31,0.08-0.47,0.13
					c0.37,0.6,0.74,1.2,1.12,1.8C540.15,400.66,540.59,400.41,540.42,400.14L540.42,400.14z"/>
			</g>
		</g>
		<g>
			<g>
				<path d="M537.8,398.17c0.01-0.89,0.19-1.57,0.51-2.38c0.27-0.69,0.26-1.37,0.2-2.1c-0.11-1.22-0.25-2.5-0.86-3.59
					c-0.29-0.52-0.7-0.9-1.13-1.31c-0.76-0.75-0.62-1.53-0.14-2.4c0.72-1.29,1.3-2.42,1.21-3.95c-0.02-0.32-0.52-0.32-0.5,0
					c0.05,0.81-0.07,1.6-0.39,2.34c-0.28,0.65-0.73,1.22-1.01,1.88c-0.23,0.54-0.34,1.12-0.12,1.67c0.23,0.56,0.74,0.9,1.14,1.33
					c0.98,1.05,1.16,2.57,1.29,3.94c0.08,0.85,0.04,1.55-0.29,2.35c-0.3,0.74-0.4,1.44-0.41,2.23
					C537.29,398.5,537.79,398.5,537.8,398.17L537.8,398.17z"/>
			</g>
		</g>
		<g>
			<g>
				<path d="M523.51,386.54c0.58,2.56-0.05,5.41-2.22,7.05c-0.98,0.74-2.18,1.23-3.4,1.35c-1.24,0.13-2.76-0.07-3.65-1.04
					c-0.22-0.24-0.57,0.12-0.35,0.35c0.94,1.03,2.53,1.31,3.86,1.2c1.35-0.11,2.68-0.6,3.77-1.41c2.39-1.77,3.11-4.83,2.48-7.64
					C523.92,386.1,523.44,386.23,523.51,386.54L523.51,386.54z"/>
			</g>
		</g>
		<g>
			<g>
				<path d="M454.97,153.9c0.91,2.01,1.93,3.97,3.06,5.86c0.51,0.86,1.1,1.66,2.01,2.14c0.89,0.47,1.91,0.69,2.88,0.95
					c4.15,1.14,8.36,2.16,12.32,3.87c0.5,0.21,1.07,0.15,1.37-0.36c0.25-0.42,0.14-1.15-0.36-1.37c-3.84-1.66-7.87-2.73-11.9-3.82
					c-0.98-0.27-2.01-0.48-2.95-0.85c-0.88-0.34-1.29-0.99-1.76-1.77c-1.08-1.83-2.06-3.72-2.94-5.66
					c-0.22-0.49-0.94-0.61-1.37-0.36C454.82,152.82,454.74,153.4,454.97,153.9L454.97,153.9z"/>
			</g>
		</g>
		<g>
			<g>
				<path d="M386.51,188.96c3.61,0.26,7.22,0.64,10.81,1.14c1.74,0.24,3.48,0.52,5.22,0.82c0.82,0.14,1.9,0.13,2.22,1.03
					c0.28,0.76,0.41,1.6,0.61,2.38c0.08,0.31,0.56,0.18,0.48-0.13c-0.21-0.83-0.36-1.73-0.66-2.54c-0.21-0.56-0.65-0.83-1.21-0.97
					c-1.88-0.48-3.89-0.68-5.8-0.96c-3.87-0.56-7.77-0.98-11.67-1.26C386.19,188.44,386.19,188.94,386.51,188.96L386.51,188.96z"/>
			</g>
		</g>
		<g>
			<g>
				<path d="M413.03,194.44c0.26-0.3,0.38-0.63,0.5-1.01c0.22-0.71,0.51-1.05,1.25-1.24c1.16-0.3,2.35-0.51,3.52-0.73
					c2.53-0.48,5.07-0.88,7.63-1.18c4.49-0.54,9.29-0.42,13.47-2.37c0.29-0.14,0.04-0.57-0.25-0.43c-2.26,1.05-4.72,1.45-7.18,1.71
					c-2.42,0.25-4.84,0.43-7.25,0.75c-2.43,0.32-4.86,0.71-7.27,1.19c-0.64,0.13-1.27,0.26-1.91,0.39c-0.5,0.11-1.04,0.18-1.51,0.4
					c-0.96,0.46-0.75,1.46-1.36,2.17C412.46,194.33,412.82,194.68,413.03,194.44L413.03,194.44z"/>
			</g>
		</g>
		<g>
			<g>
				<path d="M452.25,176.88c0.55-0.06,1.1,0.03,1.58,0.3c0.5,0.28,0.83,0.73,1.17,1.17c0.31,0.41,0.63,0.78,1.07,1.05
					c0.36,0.23,0.86,0.43,1,0.88c0.1,0.31,0.58,0.17,0.48-0.13c-0.16-0.51-0.59-0.79-1.03-1.05c-0.52-0.31-0.87-0.71-1.24-1.19
					c-0.36-0.47-0.74-0.92-1.27-1.2c-0.54-0.29-1.16-0.4-1.77-0.33C451.94,176.41,451.93,176.92,452.25,176.88L452.25,176.88z"/>
			</g>
		</g>
		<g>
			<g>
				<path d="M456.19,173.97c-0.3,0.45-0.62,0.97-0.62,1.53c-0.01,0.57,0.35,0.97,0.75,1.33c0.89,0.83,1.64,1.78,2.22,2.84
					c0.16,0.28,0.59,0.03,0.43-0.25c-0.51-0.93-1.15-1.8-1.9-2.56c-0.32-0.33-0.85-0.66-0.97-1.13c-0.14-0.54,0.24-1.09,0.53-1.51
					C456.8,173.96,456.37,173.71,456.19,173.97L456.19,173.97z"/>
			</g>
		</g>
		<g>
			<g>
				<path d="M452.2,174.8c0.48,0.15,0.96,0.29,1.45,0.44c0.2,0.06,0.41,0.13,0.6,0.01c0.18-0.11,0.23-0.31,0.25-0.51
					c0.09-0.84,0.59-1.51,1.1-2.15c0.08-0.11,0.1-0.25,0-0.35c-0.09-0.09-0.27-0.11-0.35,0c-0.48,0.6-0.98,1.23-1.17,1.99
					c-0.04,0.18-0.05,0.36-0.08,0.54c0,0.02-0.01,0.06-0.02,0.07c0.02-0.02,0.03-0.01-0.01-0.03c-0.1-0.04-0.21-0.06-0.31-0.09
					c-0.44-0.13-0.88-0.27-1.33-0.4C452.02,174.22,451.89,174.7,452.2,174.8L452.2,174.8z"/>
			</g>
		</g>
		<g>
			<g>
				<path d="M438.96,160.14c-1.97-0.83-4.04-1.4-6.16-1.7c-0.31-0.04-0.45,0.44-0.13,0.48c2.12,0.3,4.19,0.87,6.16,1.7
					C439.13,160.74,439.25,160.26,438.96,160.14L438.96,160.14z"/>
			</g>
		</g>
		<g>
			<g>
				<path d="M407.25,164.79c0.07-0.22,0.32-0.33,0.51-0.44c0.21-0.11,0.42-0.22,0.63-0.31c0.46-0.21,0.94-0.4,1.41-0.59
					c0.91-0.36,1.81-0.74,2.61-1.31c0.26-0.19,0.01-0.62-0.25-0.43c-0.89,0.63-1.9,1.02-2.9,1.43c-0.49,0.2-0.97,0.39-1.44,0.63
					c-0.41,0.21-0.9,0.42-1.05,0.9C406.67,164.97,407.15,165.1,407.25,164.79L407.25,164.79z"/>
			</g>
		</g>
	</g>
</g>
</svg>
