<?xml version="1.0" encoding="utf-8"?>
<!-- Generator: Adobe Illustrator 28.0.0, SVG Export Plug-In . SVG Version: 6.00 Build 0)  -->
<svg version="1.1" id="Layer_1" xmlns="http://www.w3.org/2000/svg" xmlns:xlink="http://www.w3.org/1999/xlink" x="0px" y="0px"
	 viewBox="0 0 800 800" style="enable-background:new 0 0 800 800;" xml:space="preserve">
<style type="text/css">
	.st0{fill:#545789;}
	.st1{fill:url(#SVGID_1_);}
	.st2{fill:url(#SVGID_00000018229689156821561850000006267540907381101737_);}
	.st3{fill:none;stroke:#000000;stroke-width:2;stroke-linecap:round;stroke-miterlimit:10;}
</style>
<g id="_x32_-PANTS__x5B_COOMER_x5D_">
	<g>
		<path class="st0" d="M420.72,693.84c0.26-0.65,0.53-1.31,0.67-2c0.44-2.17-0.38-4.37-0.85-6.54c-0.55-2.53-0.53-4.88,0.06-7.37
			c0.56-2.34,1.89-4.39,2.76-6.61c2.66-6.77,1.02-14.44,2.23-21.62c0.79-4.69,3.21-8.75,4.34-13.27c1.03-4.16,0.63-8.56-1.6-12.28
			c-0.48-0.8-1.04-1.57-1.39-2.44c-0.54-1.35-0.55-2.86-1.04-4.23c-0.91-2.52-3.34-4.21-4.52-6.62c-0.58-1.17-0.83-2.48-0.99-3.78
			c-0.49-4.08-0.06-8.21,0.38-12.29c0.22-2.05,0.93-4.42,0.76-6.45c-0.18-2.11-0.55-4.29-0.89-6.39
			c-1.14-6.86-2.23-13.76-2.22-20.73c0.01-5.06-0.4-9.63-1.24-14.57c-0.88-5.18-2.76-10.23-4.06-15.32
			c-2.26-8.88-1.69-18.14-2.82-27.21c-0.28-3.75-0.56-7.5-0.84-11.26c-0.22-2.97,0.36-5.66,0.2-8.6c-0.05-0.95-0.71-1.82-0.75-2.77
			c-0.05-0.99,0.08-2.05,0.06-3.07c-0.01-0.23,0.02-0.51,0.22-0.62c1.68,4.37,3.66,8.55,5.51,12.86c1.92,4.46,3.81,8.92,5.69,13.39
			c0.11,0.27,0.23,0.54,0.34,0.8c1.24,3.73,3.1,7.35,4.63,10.97c0.74,1.75,1.78,3.59,2.22,5.44c0.43,1.8,1.05,3.56,1.66,5.33
			c0.88,2.51,1.79,5.01,2.76,7.49c0.78,2,1.61,3.99,2.55,5.92c0.45,0.93,1.03,1.81,1.46,2.74c0.36,0.78,0.48,1.57,0.84,2.37
			c1.59,3.58,0.39,7.57,1.63,11.22c0.56,1.65,1.62,3.07,2.41,4.62c2.24,4.37,2.71,9.48,3.82,14.18c0.43,1.81,0.86,3.63,1.64,5.31
			c1.35,2.91,3.72,5.36,4.43,8.49c0.39,1.71,0.23,3.49,0.23,5.24c-0.02,6.26,1.84,12.32,3.86,18.18c1.68,4.87,5.4,10.04,4.92,15.38
			c-0.07,0.78-0.24,1.54-0.23,2.32c0.02,2.9,2.33,5.18,3.86,7.64c2.02,3.25,2.78,7.1,3.81,10.79c1,3.55,2.29,7.01,3.58,10.47
			c0.65,1.74,1.31,3.5,2.44,4.98c0.78,1.03,1.77,1.88,2.57,2.89c1.16,1.44,1.9,3.15,2.55,4.86c0.62,1.66,0.57,3.43,1.37,5.05
			c0.35,0.72,0.82,1.38,1.08,2.13c0.45,1.32,0.21,2.76,0.41,4.14c0.29,2.1,1.58,3.99,1.76,6.1c0.13,1.48-0.28,3.04,0.31,4.4
			c0.54,1.23,1.79,2.01,2.44,3.19c0.43,0.79,0.57,1.7,0.93,2.52c0.53,1.17,1.5,2.08,2.45,2.95c0.89,0.82,1.81,1.65,2.94,2.08
			c1.2,0.45,1.96,0.1,3.08-0.22c0.92-0.27,1.94-0.31,2.9-0.39c3.42-0.3,6.84-0.51,10.27-0.64c3.19-0.12,6.31,0.37,9.48,0.37
			c2.6,0.26,5.24,0.66,7.61,1.76c0.38,0.17,0.86,0.35,1.17,0.07c0.18-0.17,0.21-0.44,0.23-0.69c0.07-0.94-0.07-1.92,0.07-2.84
			c0.19-1.22,0.76-2.44,1.03-3.65c0.54-2.41,0.8-4.88,0.79-7.35c-0.02-2.46-0.31-4.94,0.09-7.37c0.28-1.7,0.91-3.35,1.02-5.07
			c0.19-2.76-0.94-5.44-1.22-8.19c-0.25-2.4,0.15-4.81,0.24-7.22c0.17-4.59-0.77-9.19-0.45-13.78c0.1-1.41,0.31-2.83,0.09-4.22
			c-0.19-1.15-0.67-2.23-1.14-3.3c-0.99-2.21-1.94-4.22-2.39-6.58c-0.47-2.44-1.75-5.03-2.76-7.31c-1.09-2.46-2.33-4.85-3.71-7.16
			c-1.29-2.15-2.72-4.26-3.37-6.68c-0.49-1.84-0.51-3.78-0.52-5.69c-0.01-2.22-0.02-4.45-0.04-6.67c-0.01-2.1-0.02-4.19-0.06-6.29
			c-0.15-7.45-0.91-14.68-2.93-21.88c-1.99-7.1-4.71-13.97-6.65-21.08c-0.64-2.36-1.3-4.75-2.45-6.91
			c-0.65-1.23-1.46-2.38-1.92-3.69c-1.48-4.22,0.74-8.98-1.6-12.94c-0.21-0.35-0.44-0.69-0.64-1.04c-1.14-2.06-1.71-4.83-2.37-7.09
			c-0.6-2.04-1.2-4.08-1.53-6.18c-0.23-1.48-0.32-2.98-0.4-4.47c-0.33-5.6-0.38-11.3-0.99-16.87c-0.25-2.26-0.91-4.56-1.24-6.85
			c-0.41-2.77-0.84-5.53-1.33-8.28c-0.8-4.41-2.05-8.73-2.86-13.15c-1.3-7.14-2-14.38-4.26-21.31c-1-3.05-1.01-6.28-1.67-9.41
			c-0.37-1.78-0.97-3.51-1.38-5.28c-0.69-2.98-0.59-6.1-1.34-9.02c-0.72-2.85-0.91-5.78-1.01-8.7c-0.09-2.6,1.21-4.81,1.13-7.45
			c-0.06-2.19-0.74-4.31-1.08-6.48c-0.3-1.9-0.34-3.85-0.02-5.75c0.14-0.79,0.33-1.61,0.13-2.38c-0.38-1.47-2.05-2.24-3.56-2.31
			c-1.52-0.07-3.02,0.36-4.53,0.34c-1.76-0.02-3.46-0.64-5.13-1.2c-10.19-3.41-20.97-4.21-31.62-4.79
			c-5.46-0.3-10.92-0.55-16.35-1.08c-2.6-0.25-5.35,0.02-7.98,0c-2.88-0.03-5.76-0.1-8.63-0.27c-3.62-0.21-7.24-0.59-10.86-0.4
			c-3.69,0.19-7.32,0.95-11,1.21c-3.26,0.23-6.55,0.06-9.79,0.44c-1.91,0.22-3.8,0.64-5.66,1.14c-5.04,1.37-9.89,3.42-15.05,4.34
			c-4.7,0.84-8.95,3.47-13.59,4.63c-0.51,0.13-1.03,0.26-1.46,0.56c-1.2,0.84-1.22,2.58-1.15,4.04c0.08,1.68,0.11,3.37,0.1,5.06
			c-0.05,6.92-0.85,13.84-0.35,20.73c0.2,2.72,0.6,5.42,1.05,8.1c0.17,0.99,0.63,2.06,0.74,3.01c0.13,1.14-0.64,2.23-0.95,3.28
			c-0.7,2.4,0.39,4.91,1.12,7.31c0.76,2.5,1.25,5.06,1.74,7.63c0.62,3.69,1.41,7.37,2.11,11.05c0.73,3.81,1.21,7.79,2.2,11.54
			c1.9,7.16,4.54,14.09,6.03,21.39c2.2,10.72,2.99,21.68,3.31,32.6c0.1,3.16,0.15,6.33,0.5,9.47c0.48,4.39,1.55,8.52,2.99,12.68
			c0.59,1.71,0.89,3.6,1.54,5.27c0.66,1.69,1.96,2.85,2.2,4.76c0.34,2.67-1.17,5.57,0.03,7.98c0.77,1.53,2.53,2.57,2.74,4.27
			c0.17,1.34-0.47,2.58-0.25,3.94c0.23,1.4,0.2,2.75,0.18,4.18c-0.05,3.42-0.03,6.84,0.23,10.26c0.16,2.05,0.4,4.1,0.19,6.14
			c-0.07,0.71-0.2,1.43-0.17,2.15c0.07,1.9,1.22,3.59,1.64,5.45c0.44,1.91,0.13,3.99,0.96,5.76c0.48,1.02,1.25,1.86,1.66,2.91
			c0.43,1.1,0.55,2.25,0.73,3.41c0.14,0.96,0.53,1.82,0.63,2.76c0.13,1.18-0.12,2.42-0.37,3.56c-0.51,2.35-1.38,4.73-1.08,7.17
			c0.1,0.8,0.32,1.59,0.52,2.37c0.8,3.24,1.08,6.61,0.81,9.93c-0.11,1.39-0.31,2.81,0.04,4.15c0.25,0.96,0.77,1.82,1.32,2.64
			c2.08,3.11,4.79,6.17,4.92,9.91c0.04,0.99-0.12,1.98-0.09,2.97c0.06,2.35,0.76,4.99,2.07,6.94c0.34,0.51,0.74,1.03,0.76,1.64
			c0.01,0.43-0.16,0.83-0.33,1.22c-0.66,1.51-1.32,3.25-0.62,4.74c1.05,2.26,3.9,2.78,4.57,5.38c0.9,3.49,0.8,7.11,1.05,10.68
			c0.12,1.69-0.11,3.35-0.05,5.06c0.06,1.7,0.31,3.4,0.76,5.04c0.08,0.3,0.18,0.62,0.4,0.84c0.18,0.19,0.43,0.29,0.67,0.39
			c1.43,0.54,2.95,0.78,4.46,1.01c4.66,0.7,9.33,1.32,14,1.93c1.15,0.15,2.31,0.3,3.47,0.28c1.28-0.03,2.55-0.28,3.8-0.55
			c2.35-0.5,4.69-1.06,7.02-1.64c1.57-0.39,5.75-0.3,6.22-2.18c0.13-0.52,0.07-1.07,0.05-1.61
			C418.89,698.13,419.85,696.02,420.72,693.84z"/>
	</g>
	<g>
		
			<linearGradient id="SVGID_1_" gradientUnits="userSpaceOnUse" x1="288.8551" y1="241.8263" x2="461.101" y2="267.9116" gradientTransform="matrix(1 0 0 -1 0 799.8898)">
			<stop  offset="0" style="stop-color:#000000"/>
			<stop  offset="0.2234" style="stop-color:#10101A;stop-opacity:0.7766"/>
			<stop  offset="0.6978" style="stop-color:#383A5C;stop-opacity:0.3022"/>
			<stop  offset="1" style="stop-color:#545789;stop-opacity:0"/>
		</linearGradient>
		<path class="st1" d="M412.38,619.67c-0.22-1.3-0.61-2.44-1.34-3.09c-1.09-0.97-2.52-1.46-3.86-2.04c-3.19-1.39-6.44-4.31-5.8-7.73
			c1.54,0.39,3.54,0.61,4.39-0.74c0.41-0.66,0.39-1.49,0.32-2.26c-0.39-4.28-1.86-8.46-4.21-12.06c-0.49-0.75-1.02-1.48-1.59-2.18
			c-1.85-2.29-4.26-5.07-3.08-7.77c0.61-1.39,2.14-2.63,1.67-4.07c-0.2-0.61-0.74-1.05-1.29-1.38c-2.15-1.3-4.8-1.49-7.07-2.59
			c-0.35-0.17-0.7-0.37-0.87-0.72c-0.21-0.42-0.1-0.93,0.06-1.37c1.42-3.87,5.89-5.69,9.98-6.19s8.38-0.16,12.21-1.69
			c0.86-0.34,1.7-0.79,2.29-1.5c1.07-1.28,1.09-3.13,0.82-4.78c-0.51-3.09-1.86-5.96-3.19-8.79c-2.96-6.28-5.96-12.62-10.14-18.16
			c-0.65-0.86-1.35-1.76-1.47-2.83c-0.12-1.05,0.34-2.07,0.8-3.03c1.23-2.61,2.47-5.23,3.7-7.84c2.04-4.32,5.69-7.64,5.39-12.81
			c-0.07-1.17-0.31-2.32-0.49-3.47c-0.85-5.43,0.15-10.88,0.16-16.33c0-5.19-2.19-9.65-3.94-14.5c-1.43-4.29-2.57-10.01-5.87-13.12
			c-2.1-1.98-1.79-5.41-3.11-7.98c-0.64-1.25-1.66-2.26-2.61-3.3c-2.66-2.91-4.93-6.19-6.71-9.72c-0.72-1.43-1.38-2.98-1.22-4.57
			c0.17-1.74,1.29-3.24,1.77-4.92c0.81-2.87-0.34-5.96-2.06-8.39c-1.72-2.43-3.98-4.43-5.82-6.77c-0.72-0.92-1.4-1.94-1.6-3.1
			c-0.36-2.02,0.76-3.97,1.49-5.89c1.05-2.75,1.37-5.27,0.04-8.03c-1.05-2.17-2.76-3.96-4.52-5.61c-1.69-1.59-3.44-3.11-5.26-4.55
			c-1.47-1.16-3.41-2.55-5.39-2.36c-2,0.19-4.1,1.53-6.02,2.18c-3.41,1.15-5.5,1.91-9.2,1.66c-1.1-0.08-2.32,0.12-3.05,0.94
			c-0.35,0.4-0.56,0.91-0.93,1.3c-0.52,0.54-1.39,0.71-2.07,1.01c-1.27,0.56-2.63,1.29-3.98,1.52c-1.65,0.28-3.37,0.33-5.03,0.49
			c-0.31,0.03-0.62,0.06-0.91,0.16c-1.19,0.41-1.88,1.15-2.13,2.42c-0.35,1.81-0.02,3.72-0.06,5.56c-0.06,2.23-0.09,4.46-0.12,6.7
			c-0.02,1.42-0.04,2.84-0.06,4.27c-0.05,3.35-0.09,6.71-0.04,10.06c0.03,1.68,0.08,3.35,0.17,5.02c0.05,0.85,0.04,1.73,0.17,2.57
			c0.09,0.63,0.4,1.24,0.57,1.86c0.21,0.78,0.41,1.56,0.57,2.35c0.13,0.63,0.37,1.37,0.37,2.01c0,0.74-0.33,1.59-0.45,2.34
			c-0.12,0.8-0.21,1.61-0.26,2.42c-0.1,1.62-0.04,3.25,0.16,4.86c0.01,0.06,0.02,0.13,0.03,0.19c0.39,2.92,1.28,5.74,2.05,8.58
			c0.87,3.2,1.6,6.43,2.19,9.69c0.57,3.15,0.83,6.33,1.82,9.39c0.26,0.79,0.52,1.57,0.74,2.37c0.45,1.62,0.73,3.28,1.13,4.92
			c0.62,2.52,1.82,5.02,2.13,7.59c0.33,2.68,1.12,5.26,1.78,7.87c0.84,3.36,1.46,6.77,1.84,10.22c0.22,1.98,0.36,3.97,0.72,5.92
			c0.76,4.17,0.95,8.44,1.31,12.67c0.29,3.36,0.57,6.72,0.75,10.09c0.16,3.09,0.24,6.19,0.71,9.26c0.71,4.73,2.06,9.36,4,13.72
			c0.97,2.18,2.11,4.39,2.21,6.78c0.04,1.14-0.15,2.27-0.19,3.4c-0.04,1.26,0.22,2.24,0.9,3.28c0.58,0.9,1.47,1.62,1.79,2.68
			c0.18,0.59,0.14,1.22,0.12,1.83c-0.32,7.29,0.03,14.52,0.34,21.84c0.09,2.18,0.17,4.41,0.73,6.52c0.55,2.08,1.82,3.81,2.05,5.94
			c0.21,1.88,0.11,2.99,0.88,4.91c0.88,2.2,1.88,4.41,1.64,6.85c-0.17,1.65-0.89,3.18-1.21,4.8c-0.87,4.43,1.3,8.88,1.38,13.39
			c0.05,3.26-0.97,6.67,0.27,9.68c0.85,2.06,2.65,3.6,3.64,5.6c1.81,3.66,0.76,8.44,3.24,11.68c0.46,0.6,1.03,1.13,1.27,1.85
			c0.78,2.3-2.29,4.46-1.82,6.84c0.32,1.66,1.96,2.25,3.13,3.18c1.47,1.17,2,2.07,2.76,3.77c0.51,1.15,0.66,2.42,0.79,3.66
			c0.31,3.01,0.58,6.02,0.8,9.03c0.05,0.75,0.09,1.5,0.17,2.24c0.06,0.57-0.06,1.04-0.13,1.62c-0.27,2.22-0.42,4.41,1.76,5.67
			c1.05,0.61,2.27,0.85,3.46,1.08c3.27,0.64,6.55,1.27,9.82,1.91c1.61,0,3.24,0.74,4.87,0.77c1.56,0.03,3.18-0.4,4.73-0.68
			c0.72-0.13,1.46-0.26,2.05-0.68c0.6-0.42,1.01-1.19,0.76-1.88c-0.19-0.55-0.76-0.95-0.83-1.53c-0.14-1.19,1.74-1.59,2.15-2.72
			c0.15-0.41,0.08-0.88-0.07-1.29c-0.79-2.17-3.31-3.05-5.49-3.82s-4.64-2.16-4.75-4.46c-0.08-1.7,1.26-3.21,2.83-3.84
			c1.58-0.63,3.34-0.57,5.03-0.42c1.69,0.14,3.42,0.35,5.07-0.03c0.3-0.07,0.62-0.16,0.84-0.38c0.32-0.3,0.42-0.77,0.45-1.21
			c0.28-3.75-2.79-6.98-6.16-8.65c-1.55-0.77-3.25-1.35-4.46-2.59c-0.44-0.45-0.81-1.04-0.74-1.66c0.07-0.59,0.52-1.07,1.02-1.4
			c3.01-1.99,7.58-0.01,10.36-2.3c0.69-0.57,1.18-1.35,1.61-2.15c4.29-8.05,1.67-18.64,0.94-27.3c-0.32-3.77-0.66-7.53-1.06-11.29
			C412.63,624.49,412.75,621.85,412.38,619.67z"/>
	</g>
	<g>
		
			<linearGradient id="SVGID_00000167392279789095143160000016603608916469915530_" gradientUnits="userSpaceOnUse" x1="249.3653" y1="219.4964" x2="570.2562" y2="279.9481" gradientTransform="matrix(1 0 0 -1 0 799.8898)">
			<stop  offset="0" style="stop-color:#000000"/>
			<stop  offset="0.2234" style="stop-color:#10101A;stop-opacity:0.7766"/>
			<stop  offset="0.6978" style="stop-color:#383A5C;stop-opacity:0.3022"/>
			<stop  offset="1" style="stop-color:#545789;stop-opacity:0"/>
		</linearGradient>
		<path style="fill:url(#SVGID_00000167392279789095143160000016603608916469915530_);" d="M520.35,659.67
			c-2.12-4.51-8.96-4.34-12.2-8.12c-1.98-2.31-2.21-5.61-3.61-8.31c-1.42-2.74-3.96-4.73-5.61-7.35c-0.37-0.59-0.7-1.25-0.63-1.94
			c0.09-0.92,0.88-1.62,1.69-2.06c1.63-0.87,3.52-1.08,5.25-1.71c1.73-0.64,3.45-1.98,3.58-3.82c0.13-1.93-1.5-3.49-2.09-5.33
			c-0.68-2.11,0.06-4.39,0.67-6.52c1.64-5.72,2.4-11.69,2.25-17.64c-0.04-1.81-0.18-3.66-0.95-5.29c-2.07-4.39-7.62-5.61-11.6-8.4
			c-0.81-0.57-1.59-1.26-1.95-2.18c-0.65-1.64,0.17-3.33,0.49-4.94c0.6-3.04-0.83-6.67-1.48-9.62c-0.88-3.99-1.38-8.05-1.49-12.13
			c-0.01-0.55-0.03-1.12-0.28-1.61c-0.23-0.45-0.65-0.78-1.08-1.06c-1.5-0.96-3.27-1.4-4.8-2.31c-1.52-0.91-2.85-2.6-2.47-4.33
			c0.46-2.12,3-2.95,5.13-3.39c-1.72-3.58-5.15-6.11-6.86-9.69c-2.98-6.25,0.02-13.51,1.29-20.32c1.19-6.4,0.76-13.09-1.23-19.28
			c-1.29-4.02-3.23-7.81-4.49-11.84c-1.19-3.8-1.77-7.77-2.7-11.64c-0.18-0.75-0.48-1.61-1.21-1.85c-1.41-0.45-2.13,1.73-3.43,2.44
			c-1.48,0.82-3.22-0.48-4.32-1.76c-1.3-1.52-2.46-3.15-3.46-4.88c-1.36-2.35-3.09-5.28-5.8-5.04c-0.6,0.05-1.88-5.16-1.99-5.75
			c-0.37-2.01-0.09-4.05-0.14-6.1c-0.06-2.79-0.32-5.57-0.77-8.33c-0.26-1.56-1.16-5.27,0.05-6.54c0.4-0.42,0.98-0.6,1.49-0.87
			c2.14-1.13,2.91-3.75,3.48-6.09c0.13-0.55,0.27-1.15,0.04-1.67c-0.19-0.44-0.61-0.74-1.01-1.01c-1.68-1.12-3.46-2.09-5.32-2.9
			c-1.64-0.71-3.42-1.34-4.58-2.71c-1.53-1.82-1.56-4.47-1.12-6.8c0.19-1.02,0.48-2.08,1.2-2.83c1.18-1.24,3.1-1.28,4.8-1.46
			s3.68-0.82,4.14-2.47c0.17-0.6,0.1-1.25,0.23-1.86c0.47-2.2,3.09-3.01,5.19-3.82c1.8-0.7,3.55-1.77,4.58-3.4
			c1.89-3,0.52-5.58-2.65-6.33c-9.85-2.35-19.92-3.8-30.03-4.33c-4.64-0.25-11.21,1.01-15.59-0.32c-3.49-1.06-5.36-4.79-9.51-4.8
			c-3.26-0.01-6.1,2.37-9.35,2.73c-3.59,0.4-7.24-1.14-10.82-1.23c-3.68-0.09-7.15,1.53-10.78,1.88c-2.62,0.25-5.29-0.16-7.88,0.28
			c-0.86,0.15-1.92,0.67-1.8,1.54c0.06,0.43,0.41,0.76,0.74,1.05c2.14,1.89,4.28,3.77,6.42,5.66c2.41,2.12,4.99,4.6,5.13,7.8
			c0.14,3.48-2.75,6.08-2.9,9.39c-0.05,1.1,0.35,2.18,0.88,3.15c1.56,2.87,4.21,4.96,6.32,7.45c2.11,2.49,3.75,5.87,2.7,8.96
			c-0.59,1.73-1.98,3.28-1.82,5.11c0.06,0.72,0.37,1.39,0.67,2.04c1.88,4.08,3.79,8.22,6.7,11.63c0.83,0.97,1.74,1.88,2.41,2.97
			c0.59,0.96,0.98,2.03,1.36,3.1c0.82,2.28,1.6,4.58,2.44,6.85c0.75,2.02,2.31,3.78,3.48,5.62c1.29,2.04,2.69,4.36,3.09,6.78
			c0.73,4.46,4.22,8.19,5.43,12.65c0.49,1.79,0.75,3.63,1.28,5.41c0.56,1.87,1.41,3.63,2.25,5.4c7.27,15.28,13.9,30.87,19.87,46.71
			c1.07,2.83,2.12,5.69,2.6,8.68c0.4,2.52,0.39,5.11,0.88,7.62c0.9,4.63,3.3,9.1,4.59,13.69c1.35,4.82,2.64,9.76,5.33,14.04
			c0.59,0.94,1.24,1.85,1.6,2.89c0.35,1.01,0.39,2.09,0.47,3.16c0.6,8.76,3.01,17.26,5.75,25.63c0.65,1.99,1.32,3.98,1.99,5.96
			c0.78,2.29,0.87,2.96,0.55,5.24c-0.28,1.97-0.01,3.99,0.91,5.77c0.94,1.82,2.46,3.28,3.47,5.05c1.1,1.94,1.55,4.18,2.04,6.36
			c1.15,5.18,2.6,10.3,4.32,15.32c0.63,1.84,1.34,3.73,2.68,5.13c1.36,1.42,3.29,2.25,4.5,3.8c1.62,2.08,1.6,5.02,2.89,7.32
			c0.72,1.28,1.86,2.45,1.86,3.92c0,0.83-0.39,1.61-0.53,2.43c-0.47,2.67,1.61,5.15,1.77,7.86c0.09,1.64-0.4,3.62,0.87,4.66
			c0.71,0.58,1.74,0.6,2.5,1.11c1.87,1.26,0.96,4.35,2.24,6.21c1.21,1.77,3.79,1.72,5.92,1.54c8.58-0.73,17.23-0.6,25.79,0.38
			c2.02,0.23,4.54,1.19,6.5,0.58c0.72-4.06,1.45-8.13,2.17-12.19c0.19-1.04,0.34-2.23-0.32-3.07c-0.33-0.41-0.81-0.67-1.27-0.92
			c-5.72-3.17-10.37-8.23-13.06-14.2c-0.18-0.4-0.35-0.83-0.27-1.25c0.06-0.32,0.26-0.59,0.45-0.85
			C517.09,668.62,522.79,664.88,520.35,659.67z"/>
	</g>
	<g>
		<g>
			<path d="M366.89,380.53c-1.1,0.4-2.25,0.57-3.35,0.98c-1.28,0.48-2.59,0.8-3.94,1.07c-2.87,0.57-5.77,0.95-8.64,1.52
				c-2.68,0.53-4.95,1.7-7.47,2.66c-2.24,0.85-4.43,2.07-6.75,2.66c-1.66,0.42-4.13,0.09-5.35,1.55c-0.62,0.75-0.68,1.68-0.72,2.62
				c-0.07,1.49-0.13,2.98-0.18,4.47c-0.22,5.94-0.39,11.88-0.42,17.83c-0.01,2.9,0.03,5.81,0.38,8.69c0.31,2.56,1.12,5.03,1.38,7.59
				c0.26,2.54-0.95,4.89-0.52,7.39c0.49,2.84,1.41,5.65,2.02,8.47c1.25,5.76,2.18,11.59,3.42,17.36c1.2,5.62,2.69,11.18,4.27,16.71
				c3.21,11.22,5.17,22.65,6.17,34.27c0.96,11.08,0.05,22.81,3.99,33.37c0.86,2.29,1.57,4.56,2.62,6.77c0.61,1.29,1.13,2.56,1.16,4
				c0.02,1.29-0.3,2.57-0.34,3.85c-0.08,2.31,0.88,3.73,2.27,5.44c1.02,1.24,1.14,2.26,0.89,3.83c-0.22,1.36-0.35,2.72-0.36,4.1
				c-0.05,5.56,1.25,11.06,0.58,16.62c-0.31,2.58-0.5,4.77,0.53,7.23c0.53,1.26,1.08,2.45,1.25,3.82c0.16,1.26,0.14,2.54,0.46,3.77
				c0.26,0.98,0.74,1.81,1.32,2.64c0.77,1.1,1.23,2.14,1.55,3.45c0.62,2.53,0.79,5.29,0.22,7.84c-0.52,2.32-1.79,4.3-1.56,6.76
				c0.22,2.33,1.33,4.45,1.67,6.75c0.4,2.71-0.86,5.37-0.32,8.09c0.44,2.24,1.98,3.97,3.22,5.81c1.56,2.3,2.3,4.91,2.83,7.61
				c0.47,2.37,0.48,4.93,1.37,7.2c0.36,0.93,0.92,1.72,1.44,2.56c0.9,1.45,0.55,2.27-0.27,3.58c-0.93,1.5-1.34,3.07-0.35,4.66
				c0.92,1.48,2.59,2.24,3.61,3.62c1.43,1.94,1.94,4.5,2.2,6.84c0.3,2.66,0.47,5.41,0.3,8.08c-0.15,2.43-0.37,4.67,0.72,6.95
				c1.02,2.15,2.58,2.68,4.61,3.59c2.23,1,4.47,1.2,6.9,1.39c2.66,0.21,5.33,0.01,7.98,0.2c2.74,0.2,5.39,0.6,8.13,0.16
				c2.75-0.44,5.39-1.26,8.17-1.6c1.53-0.19,3.26-0.54,4.47-1.57c1.77-1.51,0.81-3.85,1.37-5.82c0.61-2.11,2.28-3.74,2.73-5.92
				c0.92-4.38-1.92-8.48-1.43-12.83c0.3-2.61,2.17-4.71,3.25-7.03c1.07-2.29,1.77-4.71,2.15-7.21c0.81-5.39-0.22-10.78,1.05-16.12
				c1.17-4.93,3.21-9.64,3.69-14.72c0.22-2.32,0.12-4.71-0.52-6.96c-0.3-1.06-0.74-2.11-1.29-3.06c-0.7-1.21-1.71-2.24-2.23-3.55
				c-0.45-1.14-0.56-2.38-0.88-3.55c-0.33-1.2-0.88-2.28-1.54-3.32c-0.55-0.87-1.16-1.69-1.78-2.51c-0.42-0.54-0.87-1.08-1.22-1.68
				c-0.47-0.8-0.34-1.42-0.24-2.31c0.1-0.96-0.09-1.68-0.33-2.6c-0.33-1.26,0.5-2.2,0.65-3.41c0.34-2.66,0.16-5.47,0.22-8.15
				c0.07-2.91,0.27-5.85-0.02-8.75c-0.28-2.75-0.85-5.47-1.34-8.19c-0.53-2.92-1.14-5.84-1.45-8.79c-0.3-2.84-0.19-5.65,0.01-8.49
				c0.2-2.84,0.34-5.65-0.02-8.48c-0.34-2.6-0.98-5.14-1.75-7.65c-1.61-5.22-3.72-10.32-4.56-15.74c-0.46-2.91-0.47-5.9-0.79-8.83
				c-0.32-2.91-0.64-5.82-0.82-8.74c-0.36-5.89-0.35-11.78-0.69-17.67c-0.15-2.54,0.07-5.1-0.16-7.63
				c-0.22-2.45-0.73-4.85-0.76-7.33c-0.02-1.29-2.02-1.29-2,0c0.03,2.39,0.49,4.7,0.73,7.07c0.26,2.61,0.03,5.26,0.18,7.89
				c0.34,5.67,0.33,11.35,0.66,17.03c0.32,5.57,0.88,11.18,1.45,16.74c0.53,5.17,2.29,10.05,3.92,14.95
				c1.79,5.37,3.07,10.59,2.75,16.29c-0.15,2.72-0.45,5.44-0.33,8.16c0.11,2.64,0.52,5.26,0.99,7.85c1.01,5.63,2.23,11.09,2.1,16.84
				c-0.07,2.85-0.13,5.69-0.2,8.54c-0.03,1.32,0.06,2.61-0.41,3.85c-0.33,0.85-0.57,1.6-0.43,2.52c0.18,1.19,0.45,1.98,0.34,3.21
				c-0.09,0.98,0,1.76,0.47,2.63c1.11,2.03,2.85,3.64,3.9,5.73c1.13,2.28,1.03,4.86,2.48,7.03c1.47,2.19,2.63,4.21,2.94,6.9
				c0.59,5.07-1.18,9.96-2.62,14.73c-0.72,2.4-1.37,4.82-1.67,7.32c-0.32,2.65-0.07,5.29-0.07,7.95c0,2.63-0.3,5.26-1,7.79
				c-0.71,2.55-1.95,4.71-3.23,6.99c-1.05,1.88-1.7,3.83-1.58,6c0.12,2.13,0.74,4.18,1.2,6.25c0.56,2.53,0.61,4.65-0.7,6.95
				c-0.94,1.65-1.86,3.23-1.98,5.17c-0.08,1.24,0.35,2.62-0.83,3.41c-0.78,0.52-1.89,0.72-2.8,0.85c-2.37,0.33-4.65,0.81-6.99,1.33
				c-2.96,0.66-5.72,0.41-8.7,0.15c-2.57-0.22-5.14-0.03-7.72-0.19c-1.34-0.08-2.69-0.2-4.03-0.37c-1.36-0.17-2.47-0.73-3.73-1.24
				c-1.04-0.42-1.9-0.71-2.53-1.71c-0.85-1.35-1.08-2.96-1-4.52c0.24-4.72,0.45-9.67-0.88-14.27c-0.52-1.82-1.34-3.65-2.73-4.98
				c-1.3-1.25-3.71-2.4-2.6-4.53c0.87-1.67,1.99-2.9,1.26-4.89c-0.33-0.89-0.94-1.63-1.42-2.44c-0.67-1.12-0.96-2.36-1.16-3.63
				c-0.76-4.91-1.47-9.43-4.43-13.56c-1.71-2.38-2.62-4.27-2.21-7.27c0.34-2.43,0.49-4.56-0.2-6.95c-0.73-2.55-1.67-4.82-0.75-7.45
				c0.77-2.19,1.41-4.2,1.47-6.54c0.05-2.26-0.26-4.61-0.96-6.76c-0.74-2.29-2.48-3.76-2.75-6.26c-0.12-1.12-0.12-2.25-0.4-3.35
				c-0.3-1.2-0.9-2.3-1.34-3.45c-1.01-2.65-0.17-5.33-0.03-8.05c0.27-5.39-1.02-10.74-0.7-16.13c0.13-2.26,1.07-4.53-0.21-6.62
				c-0.49-0.79-1.17-1.43-1.73-2.16c-0.91-1.2-0.99-2.45-0.85-3.92c0.24-2.49,0.39-4.5-0.61-6.86c-0.95-2.24-1.83-4.41-2.67-6.7
				c-0.9-2.46-1.76-4.84-2.23-7.43c-0.53-2.89-0.78-5.83-0.96-8.76c-0.66-11.1-1.16-22.14-2.96-33.14
				c-1.8-11.05-5.3-21.62-7.84-32.49c-1.29-5.51-2.23-11.08-3.33-16.62c-0.55-2.8-1.15-5.6-1.83-8.37
				c-0.33-1.33-0.77-2.66-0.99-4.01c-0.23-1.42,0.33-2.66,0.52-4.05c0.33-2.41-0.21-4.81-0.72-7.16c-0.6-2.76-0.88-5.51-0.97-8.33
				c-0.17-5.69,0.06-11.4,0.23-17.09c0.09-2.87,0.17-5.75,0.32-8.62c0.05-0.87-0.07-1.62,0.95-1.99c0.42-0.15,0.95-0.12,1.39-0.17
				c1.24-0.14,2.46-0.41,3.64-0.82c0.92-0.32,1.77-0.78,2.64-1.22c1.11-0.56,2.32-0.85,3.47-1.33c2.55-1.08,4.9-2.04,7.64-2.53
				c2.68-0.48,5.38-0.87,8.05-1.42c1.24-0.25,2.44-0.57,3.63-1.01c1.1-0.41,2.25-0.58,3.35-0.98
				C368.62,382.02,368.1,380.09,366.89,380.53L366.89,380.53z"/>
		</g>
	</g>
	<g>
		<g>
			<path d="M381.62,441.53c1.2,4.15,3.58,7.91,6.91,10.69c3.17,2.63,7,3.55,10.45,5.63c4.37,2.64,4.39,8.53,5.77,12.95
				c0.73,2.34,1.75,4.3,3.18,6.27c1.52,2.09,1.92,4.74,2.84,7.12c4.13,10.71,9.08,21.03,13.49,31.62c2.13,5.13,3.9,10.39,6.04,15.51
				c2.12,5.06,4.3,10.21,5.75,15.52c0.76,2.79,0.72,5.42,0.93,8.26c0.18,2.5,1.98,4.08,2.99,6.25c1.11,2.38,1.47,5.05,2.04,7.59
				c0.59,2.65,1.35,5.26,2.3,7.8c0.92,2.49,2.05,4.88,3.26,7.24c1.23,2.41,2.42,4.88,2.57,7.63c0.14,2.67-0.29,5.18,0.31,7.82
				c0.62,2.71,1.32,5.4,2.08,8.08c1.52,5.4,3.53,10.61,5.22,15.95c0.4,1.26,0.68,2.53,0.63,3.86c-0.05,1.19-0.26,2.34-0.04,3.52
				c0.45,2.44,2.31,4.3,3.5,6.39c2.7,4.75,3.98,10.37,5.62,15.54c1.47,4.61,2.31,10.19,5.99,13.61c0.83,0.77,1.73,1.49,2.44,2.39
				c0.9,1.15,1.28,2.51,1.57,3.91c0.24,1.12,0.4,2.28,0.83,3.34c0.38,0.93,1.01,1.7,1.48,2.57c0.67,1.26,0.12,1.99-0.05,3.26
				c-0.15,1.03,0.03,2.05,0.34,3.03c0.33,1.03,0.8,2,1.14,3.03c0.43,1.29,0.34,2.46,0.36,3.79c0.03,2.03,1.11,3.15,2.64,4.33
				c1.14,0.87,1.76,1.68,2.22,3.05c0.35,1.05,0.65,2.08,1.27,3.01c1.03,1.53,2.54,3.11,4.41,3.49c1.92,0.39,3.86-0.3,5.69-0.8
				c5.35-1.47,11.39-1.38,16.87-0.77c2.83,0.32,5.63,0.87,8.37,1.62c1.36,0.37,3.75,1.48,4.54-0.4c0.34-0.81,0.08-1.87,0.02-2.7
				c-0.12-1.51,0.3-2.52,0.93-3.87c1-2.15,1.46-4.58,1.52-6.94c0.07-2.7-0.8-5.38-0.56-8.08c0.12-1.34,0.73-2.46,1.15-3.71
				c0.39-1.15,0.51-2.37,0.45-3.58c-0.13-2.61-1.04-5.1-1.29-7.69c-0.26-2.67,0.06-5.36,0.17-8.03c0.1-2.69-0.27-5.15-0.81-7.77
				c-0.31-1.52-0.37-2.88,0.24-4.34c0.41-0.99,0.9-1.95,0.81-3.06c-0.07-0.94-0.57-1.73-1.08-2.49c-0.81-1.17-1.4-2.35-1.86-3.7
				c-0.89-2.63-1.69-5.28-2.7-7.87c-1.91-4.87-4.48-9.35-6.72-14.06c-1.25-2.63-1.85-5.3-1.82-8.22c0.03-2.87,0.38-5.73,0.38-8.61
				c0.01-5.4-0.71-10.81-2.12-16.02c-0.36-1.32-0.7-2.52-0.66-3.9c0.04-1.16,0.03-2.26-0.19-3.41c-0.45-2.43-1.46-4.71-2.15-7.08
				c-1.65-5.61-3.19-11.25-4.79-16.88c-0.69-2.41-1.28-4.88-2.33-7.16c-0.53-1.15-1.28-2.18-1.82-3.32
				c-0.6-1.25-0.81-2.62-0.88-3.99c-0.11-2.31,0.14-4.64-0.25-6.93c-0.17-0.99-0.46-1.94-0.92-2.84c-0.54-1.06-1.38-1.94-1.88-3.01
				c-0.53-1.13-0.68-2.44-1.03-3.64c-0.39-1.35-0.86-2.67-1.22-4.03c-0.78-2.86-1.36-5.79-1.6-8.74c-0.47-5.72,0-11.44-0.73-17.16
				c-1.41-11.17-5.19-21.93-6.24-33.15c-0.52-5.61-2.19-11.16-3.37-16.68c-1.22-5.69-2.35-11.4-3.29-17.14
				c-0.93-5.65-1.66-11.33-2.12-17.03c-0.17,0.29-0.33,0.58-0.5,0.86c3.32-1.65,1.53-6.68,1.18-9.46c-0.31-2.49-0.44-4.96-0.25-7.47
				c0.14-1.87,0.13-3.71-1.33-5.09c-1.14-1.09-2.72-1.38-4.23-1.54c-2.07-0.22-4.04-0.86-6.1-1.1c-1.14-0.13-2.25,0.02-3.39-0.19
				c-1.19-0.21-2.37-0.51-3.54-0.78c-2.6-0.61-5.2-1.16-7.83-1.63c-10.11-1.81-20.37-2.86-30.64-3.13c-2.54-0.06-5.06-0.05-7.6-0.03
				c-2.57,0.02-5.15-0.42-7.72-0.59c-1.12-0.07-2.29-0.26-3.41-0.17c-1.03,0.08-1.95,0.47-3,0.5c-2.4,0.07-4.82-0.09-7.22-0.11
				c-2.97-0.02-6.02-0.23-8.98-0.02c-2.7,0.2-4.87,1.62-7.65,1.42c-2.51-0.18-5.03-0.89-7.5-0.06c-1.18,0.4-2.37,0.7-3.54,1.1
				c-0.77,0.26-1.64,0.41-2.36,0.8c-1.13,0.61-0.12,2.34,1.01,1.73c0.36-0.2,0.93-0.17,1.33-0.29c0.37-0.11,0.68-0.38,1.05-0.51
				c0.84-0.29,1.72-0.4,2.56-0.71c2.33-0.85,4.47-0.34,6.87-0.11c1.85,0.18,3.56,0.06,5.3-0.59c2.45-0.92,4.79-0.81,7.37-0.79
				c2.39,0.02,4.77,0.03,7.16,0.05c1.97,0.02,4.06,0.32,6.01,0.01c1.11-0.18,1.99-0.44,3.15-0.37c1.04,0.07,2.09,0.14,3.13,0.2
				c2.27,0.15,4.51,0.53,6.78,0.5c9.48-0.13,18.96,0.44,28.36,1.68c4.66,0.61,9.32,1.36,13.91,2.35c2.17,0.47,4.31,1.06,6.49,1.46
				c0.85,0.16,1.66,0.2,2.52,0.21c1.45,0.02,2.67,0.41,4.07,0.72c1.7,0.37,3.62,0.15,5.25,0.8c2.65,1.05,1.65,4.13,1.61,6.32
				c-0.04,2.53,0.3,5.05,0.65,7.55c0.22,1.54,1.28,4.7-0.48,5.58c-0.29,0.14-0.52,0.54-0.5,0.86c0.91,11.16,2.85,22.2,5.15,33.15
				c0.59,2.8,1.2,5.59,1.82,8.38c0.64,2.87,1.51,5.77,1.75,8.71c0.46,5.42,1.56,10.76,2.76,16.06c1.21,5.35,2.5,10.68,3.31,16.11
				c0.87,5.83,0.54,11.62,0.86,17.47c0.3,5.47,1.92,10.46,3.29,15.71c0.25,0.97,0.42,1.97,0.86,2.88c0.5,1.03,1.29,1.89,1.83,2.9
				c1.18,2.18,0.99,4.78,0.98,7.18c-0.01,2.12,0.07,4.3,0.93,6.27c0.51,1.17,1.26,2.21,1.83,3.35c0.63,1.27,1.05,2.61,1.45,3.96
				c1.57,5.36,3.08,10.74,4.59,16.11c0.72,2.55,1.48,5.07,2.31,7.59c0.38,1.14,0.74,2.29,0.96,3.47c0.24,1.33,0.03,2.62,0.11,3.96
				c0.15,2.42,1.17,4.86,1.65,7.24c0.56,2.82,0.92,5.68,1.06,8.55c0.26,5.26-0.96,10.71,0.03,15.9c0.94,4.95,4.16,9.31,6.25,13.83
				c1.19,2.57,2.24,5.19,3.18,7.86c0.82,2.35,1.39,4.84,2.49,7.09c0.5,1.02,1.57,2.01,1.87,3.11c0.35,1.29-0.74,2.57-1.05,3.78
				c-0.58,2.31,0.27,4.57,0.66,6.84c0.47,2.75,0.15,5.57,0.01,8.34c-0.13,2.59,0.01,5.05,0.54,7.59c0.57,2.75,1.26,5.4,0.21,8.12
				c-0.94,2.46-1.18,4.55-0.85,7.17c0.33,2.66,0.57,5.22-0.01,7.87c-0.49,2.24-2.06,4.24-2.1,6.55c-0.01,0.47,0.39,2.68,0.12,2.82
				c-0.25,0.12-1.24-0.36-1.51-0.44c-0.78-0.22-1.56-0.43-2.35-0.62c-2.55-0.61-5.14-1.04-7.74-1.3
				c-5.18-0.52-10.79-0.53-15.89,0.67c-1.93,0.45-4.51,1.77-6.43,0.74c-2.37-1.27-2.85-3.74-3.82-5.97
				c-0.38-0.89-0.92-1.62-1.65-2.25c-0.75-0.65-1.79-1.14-2.32-2c-0.69-1.12-0.24-2.56-0.37-3.81c-0.11-1.08-0.49-2.1-0.89-3.1
				c-0.39-1.01-0.87-2.02-1-3.1c-0.13-1.1,0.46-1.96,0.52-3.02c0.11-2.02-1.64-3.44-2.23-5.24c-0.75-2.29-0.76-4.72-2.15-6.79
				c-1.28-1.91-3.41-3.05-4.67-4.96c-1.43-2.17-1.97-5.12-2.75-7.57c-0.85-2.68-1.71-5.37-2.56-8.05
				c-1.56-4.89-3.07-9.56-5.99-13.83c-0.73-1.07-1.46-2.17-1.62-3.48c-0.16-1.32,0.2-2.64,0.09-3.97c-0.19-2.5-1.23-4.83-2.06-7.16
				c-1.86-5.24-3.49-10.56-4.88-15.95c-0.7-2.71-1.48-5.37-1.37-8.18c0.1-2.59,0.14-4.97-0.72-7.45c-0.79-2.27-1.99-4.36-3.05-6.52
				c-1.24-2.54-2.27-5.18-3.1-7.89c-1.43-4.63-1.63-10.03-4.28-14.19c-0.69-1.09-1.57-2.02-1.83-3.32
				c-0.29-1.42-0.05-2.94-0.18-4.39c-0.23-2.53-0.87-4.99-1.67-7.39c-1.73-5.19-3.85-10.22-5.93-15.28
				c-2.03-4.93-3.71-9.98-5.79-14.89c-2.17-5.11-4.53-10.13-6.77-15.21c-2.34-5.32-4.64-10.72-6.57-16.2
				c-0.75-2.13-1.14-4.28-2.49-6.14c-1.57-2.15-2.58-4.32-3.31-6.89c-1.15-4.09-1.44-9.23-4.97-12.08
				c-3.04-2.46-7.09-3.17-10.29-5.41c-3.67-2.57-6.31-6.39-7.55-10.68C383.19,439.77,381.26,440.29,381.62,441.53L381.62,441.53z"/>
		</g>
	</g>
	<path class="st3" d="M400.38,461.75c-2.93,4.11-7.61,6.92-12.61,7.57"/>
	<g>
		<g>
			<path d="M368.06,615.58c2.57,1.9,5.49,3.3,8.59,4.12c0.62,0.16,0.89-0.8,0.27-0.96c-3.02-0.8-5.84-2.16-8.35-4.02
				C368.05,614.34,367.55,615.2,368.06,615.58L368.06,615.58z"/>
		</g>
	</g>
	<g>
		<g>
			<path d="M390.09,619.26c3.21,2.49,7.6,1.65,10.94-0.14c1.97-1.05,3.73-2.45,5.58-3.69c0.92-0.62,1.87-1.21,2.87-1.71
				c1.03-0.51,2.12-0.8,3.17-1.25c1.19-0.51,2.04-1.38,2.88-2.32c1-1.11,2-2.22,2.99-3.34c0.43-0.48-0.28-1.19-0.71-0.71
				c-0.81,0.9-1.62,1.8-2.43,2.7c-0.73,0.82-1.45,1.75-2.38,2.35c-0.92,0.59-2.03,0.82-3.03,1.24c-0.92,0.38-1.8,0.85-2.65,1.37
				c-3.43,2.1-6.46,5.01-10.52,5.85c-2.05,0.42-4.31,0.26-6.02-1.07C390.29,618.17,389.58,618.87,390.09,619.26L390.09,619.26z"/>
		</g>
	</g>
	<g>
		<g>
			<path d="M500.73,606.74c3.45,1.53,6.53,3.76,9.06,6.57c0.16-0.28,0.32-0.56,0.49-0.84c-5.21-1.3-10.61-1.79-15.97-1.44
				c-0.64,0.04-0.64,1.04,0,1c5.28-0.35,10.57,0.12,15.7,1.4c0.5,0.12,0.82-0.47,0.49-0.84c-2.58-2.86-5.74-5.16-9.27-6.72
				C500.65,605.62,500.14,606.48,500.73,606.74L500.73,606.74z"/>
		</g>
	</g>
	<g>
		<g>
			<path d="M466.77,612.52c3.36,2.17,7.03,3.82,10.88,4.9c0.62,0.17,0.89-0.79,0.27-0.96c-3.77-1.05-7.35-2.67-10.64-4.8
				C466.73,611.31,466.23,612.18,466.77,612.52L466.77,612.52z"/>
		</g>
	</g>
	<g>
		<g>
			<path d="M385.63,694.6c8.38,1.91,17.08,2.4,25.62,1.41c2.4-0.28,4.79-0.67,7.16-1.17c0.63-0.13,0.36-1.1-0.27-0.96
				c-8.25,1.75-16.77,2.1-25.13,1.04c-2.39-0.3-4.76-0.74-7.11-1.27C385.27,693.5,385,694.46,385.63,694.6L385.63,694.6z"/>
		</g>
	</g>
	<g>
		<g>
			<path d="M490.33,696.32c9.27-2.09,19.59-4.32,28.51,0.28c0.57,0.29,1.08-0.57,0.5-0.86c-6.93-3.57-14.95-3.21-22.4-1.83
				c-2.3,0.42-4.59,0.94-6.88,1.46C489.44,695.5,489.71,696.47,490.33,696.32L490.33,696.32z"/>
		</g>
	</g>
	<g>
		<g>
			<path d="M489.53,656.22c-1.88,0.18-2.51,2.24-2.45,3.87c0.08,2.18,0.76,4.35,1.77,6.27c2.18,4.12,5.95,7.08,10.23,8.79
				c2.56,1.03,5.28,1.59,8.03,1.85c0.64,0.06,0.64-0.94,0-1c-4.26-0.41-8.51-1.65-12.04-4.12c-3.24-2.26-5.77-5.66-6.67-9.54
				c-0.23-1.01-0.43-2.12-0.28-3.15c0.11-0.79,0.48-1.88,1.41-1.97C490.16,657.16,490.17,656.15,489.53,656.22L489.53,656.22z"/>
		</g>
	</g>
	<g>
		<g>
			<path d="M480.57,638.88c5.93,1.61,11.92,2.96,17.97,4.06c0.63,0.11,0.9-0.85,0.27-0.96c-6.04-1.1-12.04-2.45-17.97-4.06
				C480.21,637.74,479.95,638.71,480.57,638.88L480.57,638.88z"/>
		</g>
	</g>
	<g>
		<g>
			<path d="M387.55,634.22c-2.92,0.29-5.79,0.93-8.55,1.92c-0.37,0.13-0.53,0.71-0.12,0.91c4.29,2.13,9.02,3.22,13.8,3.18
				c0.64-0.01,0.64-1.01,0-1c-4.61,0.04-9.17-0.99-13.3-3.04c-0.04,0.3-0.08,0.61-0.12,0.91c2.68-0.96,5.45-1.6,8.29-1.89
				C388.19,635.16,388.19,634.16,387.55,634.22L387.55,634.22z"/>
		</g>
	</g>
	<g>
		<g>
			<path d="M363.81,646.93c2.14,2.91,5.12,5.05,8.58,6.13c3.27,1.02,8.2,1.59,9.11,5.63c0.14,0.63,1.1,0.36,0.96-0.27
				c-0.86-3.82-5-5.03-8.29-5.9c-1.9-0.5-3.7-1.14-5.36-2.2c-1.61-1.03-3.01-2.35-4.14-3.89
				C364.29,645.91,363.43,646.41,363.81,646.93L363.81,646.93z"/>
		</g>
	</g>
	<g>
		<g>
			<path d="M389.79,676.46c1.74,1.76,4.31,1.72,6.57,2.23c1.18,0.26,2.34,0.7,3.12,1.66c0.84,1.02,1.14,2.42,0.82,3.7
				c-0.16,0.62,0.81,0.89,0.96,0.27c0.34-1.33,0.14-2.76-0.56-3.94c-0.67-1.14-1.73-1.9-2.97-2.34c-2.33-0.82-5.38-0.4-7.24-2.28
				C390.05,675.3,389.34,676,389.79,676.46L389.79,676.46z"/>
		</g>
	</g>
	<g>
		<g>
			<path d="M416.4,403.7c5.53,1.26,11.11-0.06,16.46-1.53c2.76-0.76,5.5-1.56,8.31-2.13c2.88-0.59,5.81-0.96,8.75-1.13
				c3.3-0.19,6.61-0.11,9.9,0.22c0.64,0.06,0.64-0.94,0-1c-5.72-0.58-11.49-0.37-17.15,0.61c-5.6,0.97-10.94,3.01-16.53,4
				c-3.13,0.56-6.34,0.7-9.46-0.01C416.04,402.59,415.78,403.55,416.4,403.7L416.4,403.7z"/>
		</g>
	</g>
	<g>
		<g>
			<path d="M450.87,403.39c2.68,0.64,5.45,0.9,8.2,0.75c0.64-0.04,0.64-1.04,0-1c-2.67,0.15-5.34-0.09-7.94-0.71
				C450.51,402.28,450.24,403.24,450.87,403.39L450.87,403.39z"/>
		</g>
	</g>
	<g>
		<g>
			<path d="M334.6,398.55c9.09-2.96,18.48-4.96,27.99-5.95c0.63-0.07,0.64-1.07,0-1c-9.6,1-19.08,3-28.26,5.98
				C333.73,397.78,333.99,398.75,334.6,398.55L334.6,398.55z"/>
		</g>
	</g>
	<g>
		<g>
			<path d="M342.19,395.88c-2.54,1.12-4.84,2.78-6.7,4.84c-0.43,0.48,0.27,1.19,0.71,0.71c1.82-2,4.03-3.59,6.5-4.68
				c0.25-0.11,0.3-0.47,0.18-0.68C342.73,395.8,342.44,395.77,342.19,395.88L342.19,395.88z"/>
		</g>
	</g>
	<g>
		<g>
			<path d="M376.83,389.74c9.05,0.66,18.13,0.05,27.17-0.56c9.02-0.61,18.09-1.23,27.12-0.54c5.06,0.39,10.07,1.22,14.94,2.67
				c0.62,0.18,0.88-0.78,0.27-0.96c-8.64-2.56-17.69-3.15-26.65-2.97c-9.15,0.18-18.27,1.12-27.41,1.5
				c-5.14,0.21-10.29,0.24-15.43-0.13C376.18,388.69,376.19,389.69,376.83,389.74L376.83,389.74z"/>
		</g>
	</g>
	<g>
		<g>
			<path d="M440.22,393.37c5.93-2.21,12.15-3.59,18.47-4.05c0.64-0.05,0.64-1.05,0-1c-6.4,0.47-12.72,1.84-18.73,4.09
				C439.36,392.63,439.62,393.59,440.22,393.37L440.22,393.37z"/>
		</g>
	</g>
	<g>
		<g>
			<path d="M469.92,402.93c1.7-0.38,3.53,0.57,4.35,2.07c0.48,0.87,0.32,1.91,0.79,2.78c0.43,0.79,1.66,1.24,2.32,0.47
				c0.42-0.49-0.29-1.2-0.71-0.71c-0.22,0.25-0.58,0.01-0.72-0.22c-0.28-0.44-0.25-1.04-0.34-1.53c-0.16-0.84-0.59-1.63-1.17-2.26
				c-1.2-1.3-3.04-1.95-4.78-1.57C469.03,402.1,469.29,403.07,469.92,402.93L469.92,402.93z"/>
		</g>
	</g>
</g>
</svg>
