<?xml version="1.0" encoding="utf-8"?>
<!-- Generator: Adobe Illustrator 28.0.0, SVG Export Plug-In . SVG Version: 6.00 Build 0)  -->
<svg version="1.1" id="Layer_1" xmlns="http://www.w3.org/2000/svg" xmlns:xlink="http://www.w3.org/1999/xlink" x="0px" y="0px"
	 viewBox="0 0 800 800" style="enable-background:new 0 0 800 800;" xml:space="preserve">
<style type="text/css">
	.st0{fill:url(#SVGID_1_);}
	.st1{fill:url(#SVGID_00000018219258142750607520000011190454565589661313_);}
	.st2{fill:#6F5C39;}
	.st3{fill:#FFFFFF;}
	.st4{fill:#70573A;}
	.st5{fill:#9E7E61;}
	.st6{fill:url(#SVGID_00000064318723961748089340000010852038106089815937_);}
	.st7{fill:url(#SVGID_00000135669869188343954070000010181532515844367531_);}
	.st8{fill:url(#SVGID_00000061431047546262408940000002999365122823975817_);}
	.st9{fill:none;stroke:#000000;stroke-width:2;stroke-linecap:round;stroke-linejoin:round;stroke-miterlimit:10;}
</style>
<g id="_x33_-SHOES__x5B_COOMER_x5D_">
	
		<linearGradient id="SVGID_1_" gradientUnits="userSpaceOnUse" x1="334.8345" y1="69.292" x2="351.9258" y2="58.5061" gradientTransform="matrix(1 0 0 -1 0 799.8898)">
		<stop  offset="8.887236e-04" style="stop-color:#000000"/>
		<stop  offset="0.998" style="stop-color:#AFAFAF;stop-opacity:0"/>
	</linearGradient>
	<path class="st0" d="M355.39,740.77c1.33-1.15,2.64-2.33,3.75-3.69c1.12-1.36,1.83-3.04,2.39-4.71c0.03-0.08,0.05-0.17,0-0.24
		c-0.06-0.08-0.18-0.07-0.28-0.05c-1.78,0.4-3.42,1.3-5,2.17c-1.76,0.97-3.53,1.94-5.3,2.9c-3.55,1.91-7.12,3.78-10.74,5.56
		c-0.77,0.38-1.55,0.75-2.38,0.96c-0.86,0.21-1.81,0.25-2.54,0.76c-0.08,0.06-0.17,0.13-0.2,0.23c-0.07,0.2,0.1,0.4,0.26,0.54
		c0.89,0.83,1.77,1.66,2.66,2.49c0.5,0.47,1.01,0.94,1.62,1.23c0.69,0.32,1.17,0.08,1.85,0.14c0.26,0.02,0.43,0.24,0.74,0.21
		c0.21-0.02,0.42-0.26,0.59-0.27c0.55-0.03,1.1-0.04,1.66,0.06c0.24,0.19,0.51,0.23,0.77,0.18c1.28,0.33,2.48,0.88,3.54,1.7
		c0.33,0.25,0.93,0.33,1.14-0.15c0.35-0.77,0.59-1.56,0.63-2.41c0.03-0.52-0.09-1.04-0.07-1.56c0.02-0.32,0.09-0.61,0.2-0.88
		c0.19-0.33,0.38-0.66,0.58-0.99C352.42,743.35,353.9,742.06,355.39,740.77z"/>
	
		<linearGradient id="SVGID_00000145758842315507538450000001606115914905247154_" gradientUnits="userSpaceOnUse" x1="516.8666" y1="33.9838" x2="514.4997" y2="54.8689" gradientTransform="matrix(1 0 0 -1 0 799.8898)">
		<stop  offset="8.887236e-04" style="stop-color:#000000"/>
		<stop  offset="0.998" style="stop-color:#AFAFAF;stop-opacity:0"/>
	</linearGradient>
	<path style="fill:url(#SVGID_00000145758842315507538450000001606115914905247154_);" d="M522.57,750.95
		c4.99-0.88,10.03-1.77,15.09-1.46c-0.55-0.95-1.23-1.83-2.02-2.6c-0.2-0.19-0.41-0.38-0.66-0.49c-0.36-0.16-0.77-0.15-1.17-0.14
		c-2.94,0.11-6.08,0.25-8.62-1.24c-0.96-0.56-1.78-1.34-2.72-1.95c-2.4-1.56-5.37-1.92-8.21-2.25c-0.28-0.03-0.57-0.06-0.83,0.03
		c-0.25,0.09-0.44,0.28-0.63,0.46c-2.71,2.6-5.98,4.59-9.53,5.8c-1.43,0.49-2.9,0.85-4.32,1.38c-2.8,1.04-5.6,3.06-6.03,6.01
		c1.04,0.48,2.25,0,3.38-0.21c2.96-0.55,6.18,1.09,7.48,3.8c0.15,0.31,0.3,0.66,0.62,0.79c0.53,0.22,1.04-0.3,1.41-0.74
		C509.9,753.2,516.59,752.01,522.57,750.95z"/>
	<path class="st2" d="M318.86,750.04c-0.27-0.42-0.81-0.59-1.25-0.33c-0.88,0.51-1.69,1.18-2.34,1.97
		c-0.71,0.86-1.25,1.83-1.69,2.85c-0.18,0.39-0.12,0.91,0.3,1.13c0.39,0.2,0.91,0.11,1.13-0.3c0.25-0.45,0.48-0.92,0.75-1.37
		c0.13-0.22,0.27-0.44,0.42-0.65c0.04-0.05,0.07-0.1,0.11-0.15c0.01-0.01,0.01-0.01,0.01-0.02c0.07-0.09,0.14-0.18,0.22-0.26
		c0.29-0.34,0.62-0.65,0.97-0.94c0.03-0.02,0.05-0.04,0.06-0.05c0.03-0.03,0.07-0.05,0.1-0.08c0.09-0.06,0.18-0.13,0.27-0.19
		c0.2-0.13,0.41-0.26,0.63-0.37C318.96,751.07,319.12,750.45,318.86,750.04z"/>
	<g>
		<path class="st3" d="M524.95,767.07c-0.47-0.14-0.95-0.04-1.43,0.04c-0.39,0.06-0.78,0.13-1.17,0.21
			c-0.25,0.05-0.49,0.06-0.72,0.2c-0.07,0.05-0.12,0.11-0.18,0.17c-0.02,0.01-0.05,0.02-0.06,0.03c-0.27,0.16-0.37,0.45-0.4,0.74
			c-0.04,0.44,0.22,0.86,0.59,1.09c0.28,0.17,0.62,0.24,0.94,0.3c0.39,0.08,0.8,0.12,1.2,0.13c0.45,0,0.89-0.05,1.3-0.25
			s0.75-0.6,0.86-1.05C526.07,767.96,525.65,767.28,524.95,767.07z"/>
		<path class="st3" d="M533.18,765.52c-0.17-0.26-0.4-0.49-0.67-0.63c-0.3-0.16-0.59-0.23-0.92-0.26c-0.32-0.03-0.65,0.03-0.96,0.12
			c-0.12,0.03-0.23,0.08-0.36,0.11c-0.13,0.03-0.26,0.07-0.38,0.14c-0.15,0.09-0.3,0.23-0.38,0.38c-0.1,0.18-0.13,0.34-0.15,0.55
			c-0.04,0.38,0.23,0.7,0.52,0.9c0.02,0.01,0.09,0.04,0.15,0.07c0.14,0.22,0.33,0.42,0.57,0.54c0.31,0.15,0.64,0.19,0.98,0.17
			c0.24-0.01,0.49-0.03,0.71-0.1c0.37-0.12,0.69-0.33,0.91-0.66C533.48,766.44,533.43,765.91,533.18,765.52z"/>
		<g>
			<path class="st3" d="M540.71,763.45c-0.01-0.08-0.03-0.16-0.06-0.23c-0.03-0.11-0.08-0.23-0.13-0.32
				c-0.04-0.07-0.1-0.14-0.15-0.2c-0.17-0.2-0.37-0.37-0.64-0.42c-0.21-0.04-0.38-0.04-0.59-0.01c-0.33,0.04-0.66,0.09-0.98,0.17
				c-0.12,0.03-0.24,0.07-0.36,0.1c-0.06,0.02-0.12,0.04-0.19,0.06c-0.15,0.06-0.26,0.11-0.38,0.2c-0.17,0.13-0.32,0.31-0.36,0.53
				c-0.02,0.09-0.03,0.19-0.03,0.28c-0.04,0.11-0.06,0.23-0.06,0.35c0.01,0.37,0.21,0.66,0.43,0.94c0.22,0.27,0.54,0.42,0.87,0.47
				c0.12,0.02,0.25,0.03,0.37,0.03c0.17,0,0.35-0.04,0.52-0.06c0.2-0.03,0.4-0.07,0.6-0.12c0.35-0.09,0.65-0.25,0.87-0.53
				c0.12-0.16,0.22-0.33,0.25-0.52C540.76,763.89,540.75,763.72,540.71,763.45z"/>
			<path class="st3" d="M540.32,762.62c0.02,0.02,0.03,0.05,0.05,0.07c0.03,0.04,0.07,0.08,0.1,0.12
				C540.42,762.75,540.37,762.69,540.32,762.62z"/>
		</g>
		<path class="st3" d="M515.02,768.52c-0.28-0.47-0.74-0.6-1.25-0.67c-0.62-0.08-1.26-0.08-1.89-0.05
			c-0.31,0.01-0.63,0.03-0.94,0.05c-0.01,0-0.01,0-0.02,0c-0.6-0.14-1.26-0.03-1.72,0.4c-0.43,0.4-0.57,1.04-0.52,1.61
			c0.04,0.39,0.11,0.79,0.39,1.08c0.3,0.31,0.68,0.43,1.1,0.42c0.56-0.01,1.13-0.03,1.68-0.08c0.58-0.04,1.2-0.05,1.76-0.23
			c0.67-0.23,1.29-0.7,1.51-1.4C515.24,769.28,515.22,768.86,515.02,768.52z"/>
		<path class="st3" d="M498.1,763.64c-0.68-0.16-1.43-0.17-2.12-0.18c-0.82-0.01-1.66,0.04-2.47,0.19c-0.29,0.05-0.6,0.19-0.87,0.38
			c-0.09,0.01-0.18,0.01-0.26,0.03c-0.69,0.22-1.14,1.14-0.99,1.84c0.18,0.82,1.28,0.96,1.98,1.04c0.7,0.07,1.39,0.05,2.1,0.03
			c0.33-0.01,0.66-0.01,0.99,0.01c0.34,0.02,0.67,0.07,1.01,0.06c0.86-0.04,1.69-0.52,1.92-1.4
			C499.63,764.71,499,763.86,498.1,763.64z"/>
	</g>
	<path class="st3" d="M336.75,755.63c-1.21-0.6-2.57-0.73-3.89-0.58c-0.68,0.08-1.35,0.2-2.01,0.37c-0.54,0.14-1.32,0.26-1.79,0.64
		c-0.42,0.01-0.76,0.4-0.76,0.8c0,0.49,0.38,0.76,0.81,0.81c1.28,0.16,2.58,0.2,3.87,0.08c1.25-0.11,2.63-0.25,3.77-0.78
		C337.28,756.74,337.25,755.88,336.75,755.63z"/>
	<g>
		<path class="st3" d="M324.42,755.04c-0.07-0.1-0.16-0.19-0.25-0.26c-0.54-0.43-1.34-0.43-1.97-0.14s-1.12,0.82-1.53,1.37
			c-0.13,0.17-0.26,0.36-0.31,0.57s0.01,0.46,0.19,0.59c0.12,0.09,0.28,0.1,0.43,0.11c0.67,0.05,1.37,0.2,2.02-0.03
			c0.35-0.12,0.72-0.27,1.06-0.42c0.19-0.08,0.38-0.18,0.5-0.34c0.11-0.15,0.16-0.35,0.16-0.54
			C324.73,755.62,324.62,755.3,324.42,755.04z"/>
		<path class="st3" d="M321.76,755.41c-0.01,0.01-0.01,0.02-0.01,0.04c0.02-0.04,0.03-0.08,0.05-0.12
			C321.79,755.36,321.77,755.39,321.76,755.41z"/>
	</g>
	<path class="st3" d="M320.83,752.79c-0.05-0.04-0.1-0.08-0.15-0.12c-0.33-0.25-0.67-0.4-1.09-0.34c-0.67,0.1-1.38,0.89-1.87,1.32
		c-0.13,0.12-0.27,0.25-0.29,0.43c-0.02,0.15,0.07,0.3,0.19,0.4s0.27,0.14,0.42,0.17c0.46,0.1,1,0.08,1.45-0.08
		c0.38-0.14,0.89-0.15,1.24-0.36c0.17-0.1,0.3-0.27,0.39-0.44c0.04-0.09,0.08-0.18,0.09-0.28c0.02-0.17-0.05-0.34-0.15-0.47
		C320.99,752.93,320.92,752.86,320.83,752.79z"/>
	<path class="st4" d="M543.76,755.52c0.36-0.67,0.35-1.54-0.3-2.16c-2.64-2.57-6.19-3.2-9.75-3.18c-3.96,0.02-7.9,0.44-11.82,0.92
		c-0.14,0.01-0.28,0.03-0.42,0.05c-0.26,0.03-0.51,0.06-0.77,0.1c-0.14,0.02-0.28,0.03-0.42,0.05c-0.65,0.09-0.99,0.58-1.09,1.13
		c-2.37,0.19-4.72,0.6-6.93,1.51c-2.9,1.19-5.46,3.08-7.19,5.68c-2.13-3.42-6.22-5.05-10.24-4.35c-0.08-0.01-0.16-0.01-0.25-0.01
		c-0.16,0.02-0.31,0.04-0.48,0.07c-1.86,0.29-3.55,1.1-4.8,2.54c-0.09,0.06-0.18,0.14-0.26,0.23c-0.21,0.24-0.33,0.56-0.32,0.88
		c-0.09,0.18-0.18,0.39-0.2,0.42c-0.17,0.34-0.33,0.71-0.45,1.07c-0.34,0.99-0.4,2.08-0.56,3.11c-0.02,0.16-0.05,0.31-0.03,0.47
		c0.03,0.19,0.11,0.36,0.2,0.52c0.12,0.23,0.25,0.47,0.49,0.57c0.23,0.1,0.5,0.05,0.71-0.08c0.43-0.27,0.6-0.77,0.89-1.16
		c0.23-0.31,0.53-0.6,0.79-0.9c0.65-0.75,1.54-1.18,2.5-1.41c1.74,0.27,3.49,0.25,5.26-0.04c0.06,0.18,0.17,0.34,0.31,0.5
		c0.56,0.52,1.13,1.01,1.71,1.49c0.94,1.06,1.72,2.38,2.36,3.47c0.53,0.9,1.73,1,2.48,0.32c2.79-2.57,6.09-4.27,9.71-5.36
		c0.53-0.16,0.88-0.46,1.08-0.81c2.17-0.33,4.33-1.08,6.4-1.62c3.2-0.83,6.38-1.73,9.55-2.66c1.26,0.37,2.54,0.59,3.87,0.78
		c1.84,0.25,3.66,0.53,5.21,1.6c-0.06,2.13,3.63,2.18,3.76-0.2C544.83,757.79,544.46,756.57,543.76,755.52z"/>
	<path class="st5" d="M540.73,751.71c-6.1-1.83-13.05-1.67-19.23-0.35c-3.17,0.67-6.22,1.71-9.13,3.14
		c-2.56,1.25-5.34,2.75-6.66,5.39c-0.1,0.2,0.14,0.39,0.31,0.24c2.24-1.97,5.04-3.33,7.78-4.45c2.71-1.11,5.54-1.99,8.41-2.56
		c6.11-1.22,11.99-0.84,18.06,0.3C541.36,753.6,541.82,752.04,540.73,751.71z"/>
	<path class="st5" d="M504,758.99c-1.14-0.74-1.93-1.89-3.12-2.59c-1.17-0.69-2.58-0.94-3.93-0.9c-2.92,0.09-5.53,1.5-7.5,3.59
		c-0.06,0.06,0,0.19,0.09,0.16c2.37-0.93,4.8-2.26,7.41-2.19c1.18,0.03,2.35,0.36,3.34,1.01c1.04,0.68,1.79,1.72,2.85,2.39
		C504.07,761.06,504.92,759.59,504,758.99z"/>
	<path class="st4" d="M352.46,759.24c-0.38-1.93-1.34-3.74-2.36-5.4c-1.01-1.66-2.23-3.38-4-4.29c-1.59-0.82-3.56-1.06-5.19-0.19
		c-0.68,0.36-1.1,0.91-1.26,1.49c-0.03-0.01-0.07-0.03-0.1-0.04c0.03-0.31,0.03-0.64-0.07-1c-0.54-1.92-2.92-3.28-4.42-4.41
		c-0.4-0.3-0.92-0.27-1.37-0.06c-0.13-0.08-0.27-0.15-0.39-0.21c-0.35-0.17-0.7-0.19-1.03-0.13c-2.3-0.73-5.88-0.6-7.01-0.53
		c-0.68,0.04-1.15,0.51-1.35,1.06c-0.51-0.02-1.05,0.04-1.64,0.2c-1.86,0.52-1.07,3.41,0.8,2.89c3.02-0.84,3.99,4.03,4.48,5.96
		c0.02,0.06,0.03,0.13,0.09,0.16c0.03,0.02,0.07,0.02,0.1,0.03c0.66,0.05,1.32-0.15,1.96-0.34c1.93-0.55,3.92-0.94,5.92-1.15
		c0.19-0.02,0.4-0.05,0.59,0c0.15,0.04,0.24,0.1,0.4,0.1c0.33-0.01,0.63-0.1,0.97-0.07c0.62,0.05,1.2,0.31,1.69,0.69
		c1.01,0.76,1.69,1.96,2.04,3.16c0,0.01,0.01,0.02,0.01,0.03c0.64,2.24,0.14,4.79,1.25,6.88c0.37,0.7,1.39,0.96,2.05,0.54
		c1.77-1.13,3.6-1.7,5.68-1.92C352.28,762.47,352.82,761.05,352.46,759.24z"/>
	<path class="st5" d="M338.62,749.29c-0.17-0.57-0.67-0.92-1.07-1.32c-0.38-0.37-0.78-0.71-1.2-1.03c-0.88-0.67-1.84-1.19-2.87-1.59
		c-0.98-0.37-2.07-0.65-3.12-0.69c-0.61-0.02-1.26,0.03-1.86,0.14c-0.32,0.06-0.71,0.14-1.01,0.27c-0.27,0.12-0.5,0.31-0.77,0.44
		c-0.04,0.02-0.03,0.09,0.01,0.1c0.26,0.05,0.5,0.15,0.75,0.22c0.27,0.07,0.57,0.06,0.85,0.1c0.57,0.07,1.15,0.1,1.71,0.19
		c0.97,0.16,1.92,0.34,2.84,0.71c0.86,0.34,1.69,0.81,2.43,1.36c0.36,0.27,0.69,0.56,1.01,0.87c0.38,0.37,0.61,0.9,1.08,1.16
		C338.02,750.57,338.83,750,338.62,749.29z"/>
	<path class="st5" d="M352.88,758.97c-0.78-3.08-2.56-6.62-5.41-8.25c-1.61-0.92-3.42-1.24-5.25-1.14c-0.94,0.05-1.86,0.19-2.78,0.4
		c-0.43,0.1-0.84,0.23-1.26,0.37c-0.43,0.14-0.79,0.4-1.22,0.57c-0.04,0.02-0.02,0.09,0.02,0.09c0.43,0.01,0.84,0.13,1.27,0.14
		c0.39,0.01,0.78,0.01,1.17,0c0.82-0.01,1.65-0.01,2.47,0.04c1.59,0.1,3.24,0.42,4.6,1.29c2.58,1.66,3.38,4.56,4.73,7.11
		C351.7,760.47,353.13,759.96,352.88,758.97z"/>
	<path class="st2" d="M429.72,748.83c1.22-0.54,2.47-1.13,3.34-2.14c2.55-2.95,1.57-7.69,1.22-11.17c-0.08-0.86-0.17-1.73-0.48-2.54
		s-0.87-1.55-1.67-1.89c-0.4-0.17-1.78-0.42-2.08,0.06c-0.2,0.33,0.28,1.6,0.32,2.04c0.15,1.47-0.03,2.97-0.51,4.36
		c-0.69,2-2,3.77-3.69,5.03c-1.52,1.13-3.3,1.84-5.06,2.53c-3.94,1.56-8.14,2.26-12.29,3.11c-3.44,0.71-6.83,1.67-10.12,2.9
		c-3.11,1.15-6.16,3.12-9.45,3.67c-0.61,0.1-1.24,0.13-1.85,0.23c-1.02,0.17-1.99,0.54-2.95,0.9c-2.4,0.91-4.68,1.97-7.2,2.26
		c-2.68,0.32-5.34,0.93-7.97,1.52c-3.41,0.78-6.79,1.65-10.21,2.37c-1.58,0.33-3.47,0.96-5.09,0.88c-1.54-0.08-3.03-0.05-4.57,0.17
		c-5.3,0.76-10.41,3.47-15.73,2.83c-1.16-0.14-2.29-0.44-3.42-0.76c-2.1-0.6-4.17-1.29-6.21-2.06c-1.83-0.69-3.8-1.23-5.51-2.18
		c-2.13-1.19-4-3-4.86-5.29c-0.26-0.68-0.7-1.57-1.41-1.4c-0.56,0.14-0.72,0.85-0.76,1.43c-0.05,0.66-0.1,1.33-0.15,1.99
		c-0.11,1.46-0.21,2.99,0.34,4.35c1.11,2.79,4.68,4.12,7.13,5.46c3.06,1.67,6.23,3.18,9.6,4.11c4.69,1.29,9.69,1.42,14.43,0.36
		c2.9-0.64,5.99-0.56,8.95-0.82c4.61-0.4,9.23-0.81,13.8-1.52c2.25-0.35,4.5-1.05,6.75-1.31c2.02-0.23,4.04-0.54,6.08-0.8
		c8.92-1.16,17.66-3.7,25.81-7.51c2.24-1.05,4.41-2.16,6.69-3.11c2.52-1.05,5.02-2.13,7.5-3.28c1.25-0.58,2.51-1.12,3.78-1.66
		C424.73,750.92,427.24,749.93,429.72,748.83z"/>
	<path class="st4" d="M544.36,759.6c-0.51-3.11-1.32-6.16-2.42-9.11c-0.49-1.32-1.04-2.62-1.6-3.92c-1.37-3.23-2.66-6.5-4.11-9.69
		c-0.6-1.31-1.27-2.53-1.79-3.92c-0.56-1.5-1.13-3-1.87-4.43c-0.13-0.26-0.28-0.52-0.51-0.68c-0.23-0.17-0.58-0.21-0.8-0.02
		c-0.26,0.23-0.21,0.64-0.13,0.98c0.85,3.68,2.56,6.95,3.83,10.48c1.18,3.25,2.52,6.23,4.1,9.36c1.54,3.04,2.74,6.25,3.6,9.55
		c0.69,2.66,1.99,6.62,0.45,9.21c-0.48,0.81-1.25,1.4-2.04,1.92c-0.5,0.34-1.01,0.65-1.54,0.95c-1.2,0.69-2.46,1.28-3.76,1.76
		c-1.35,0.5-2.75,0.89-4.14,1.27c-5.63,1.55-11.26,3.11-17.02,4.08c-2.01,0.34-4.04,0.61-6.07,0.56c-2.08-0.04-4.13-0.41-6.17-0.83
		c-2.42-0.51-4.87-1.12-7.01-2.36c-1.88-1.09-3.53-2.56-5.02-4.13c-1.64-1.73-2.32-2.61-1.85-5.06c0.87-4.59,1.75-9.2,3.21-13.65
		c1.07-3.27,2.47-6.47,2.95-9.9c0.19-1.39,0.2-2.74,0.47-4.11c0.33-1.64,0.62-3.41,0.64-5.09c0.01-0.59-0.07-1.25-0.52-1.64
		c-0.5,0.33-0.73,0.94-0.91,1.52c-1.87,5.67-3.67,11.36-5.46,17.05c-1.42,4.5-2.84,9.06-3.22,13.79c-0.18,2.26-0.13,4.47,0.47,6.65
		c0.64,2.32,1.42,4.6,2.35,6.81c0.67,1.6,1.68,2.84,2.9,4.08c0.37,0.37,0.75,0.73,1.18,1.02c0.53,0.35,1.14,0.59,1.74,0.79
		c1.11,0.37,2.16,0.64,3.32,0.88c1.05,0.21,2.1,0.42,3.14,0.69c1.44,0.38,2.86,0.88,4.34,1.01c0.8,0.07,1.61,0.03,2.42,0
		c3.55-0.17,7.02-0.15,10.55-0.44c1.55-0.13,2.86-0.55,4.31-1.13c6.79-2.68,14.12-4.11,20.46-7.74c0.98-0.56,1.24-0.94,1.47-1.96
		c0.26-1.15,0.5-2.23,0.58-3.41C545.14,767.07,544.96,763.3,544.36,759.6z"/>
	
		<linearGradient id="SVGID_00000152243437040304806800000012855523498495009205_" gradientUnits="userSpaceOnUse" x1="386.8439" y1="4.9982" x2="364.8533" y2="76.1166" gradientTransform="matrix(1 0 0 -1 0 799.8898)">
		<stop  offset="8.887236e-04" style="stop-color:#000000"/>
		<stop  offset="0.998" style="stop-color:#70573A;stop-opacity:0"/>
	</linearGradient>
	<path style="fill:url(#SVGID_00000152243437040304806800000012855523498495009205_);" d="M403.12,760.68c2.15-1,4.06-1.97,6.33-2.6
		c2.22-0.61,4.36-1.45,6.46-2.39c4.12-1.85,8.14-4.14,12.22-5.93c1.75-0.77,3.58-1.56,4.78-3.05c2.04-2.54,1.57-6.19,1.01-9.39
		c-1.57,4.49-5.7,7.58-9.92,9.78c-7.04,3.68-14.79,5.89-21.93,9.33c-3.82,1.84-7.66,3.66-11.72,4.89c-4.12,1.25-8.4,1.76-12.63,2.5
		c-1.76,0.31-3.52,0.63-5.28,0.96c-4.99,0.91-9.99,1.82-15.03,2.38c-2.28,0.25-4.61,0.57-6.88,0.72c-2.49,0.17-4.93,0.7-7.4,0.99
		c-10.82,1.29-22.14-2.29-30.25-9.58c-0.36-0.32-1.17-0.87-1.49-0.17c-0.13,0.27,0.05,1.1,0.07,1.43c0.08,1.08,0.59,2.07,1.23,2.93
		c1.28,1.72,3.08,3.05,4.88,4.2c3.62,2.32,7.76,3.76,11.98,4.49c0.38,0.07,0.76,0.13,1.14,0.18c6.46,0.91,13.03,0.29,19.49-0.66
		c4.4-0.65,8.84-0.8,13.24-1.47c5.23-0.79,10.22-2.15,15.48-2.72c4.32-0.47,8.67-1.03,12.85-2.27
		C395.66,764.07,399.42,762.4,403.12,760.68z"/>
	
		<linearGradient id="SVGID_00000075852685224550564140000004658367614463793578_" gradientUnits="userSpaceOnUse" x1="517.4966" y1="7.4963" x2="515.5818" y2="30.7953" gradientTransform="matrix(1 0 0 -1 0 799.8898)">
		<stop  offset="8.887236e-04" style="stop-color:#000000"/>
		<stop  offset="0.998" style="stop-color:#70573A;stop-opacity:0"/>
	</linearGradient>
	<path style="fill:url(#SVGID_00000075852685224550564140000004658367614463793578_);" d="M544.8,771.19
		c0.08-0.64,0.25-1.55-0.26-2.01c-0.56,1.1-0.95,2.33-1.4,3.48c-0.17,0.43-0.34,0.86-0.61,1.23c-0.28,0.38-0.66,0.69-1.05,0.96
		c-2.61,1.83-5.62,2.75-8.65,3.54c-5.29,1.38-10.69,2.03-16.15,2.27c-5.6,0.25-11.33,0.3-16.83-0.9c-2.44-0.53-4.99-1.25-7.14-2.56
		c-1.2-0.73-2.12-1.68-3.16-2.61c-0.97-0.87-2.01-1.42-2.94-2.37c0.47,1.6,0.94,3.19,1.41,4.79c0.25,0.84,0.5,1.69,1,2.41
		c0.68,0.97,1.74,1.61,2.81,2.12c3.51,1.67,7.72,2.43,11.51,3.2c2.03,0.41,4.08,0.72,6.14,0.93c1.98,0.19,4.35,0.57,6.32,0.24
		s4.01-1.23,5.92-1.83c2.03-0.64,4.06-1.29,6.08-1.95c1.29-0.42,2.59-0.85,3.88-1.28c4.01-1.34,8.07-2.77,11.48-5.27
		c0.57-0.42,1.31-1.02,1.4-1.77C544.68,772.95,544.69,772.05,544.8,771.19z"/>
	
		<linearGradient id="SVGID_00000126289876933519682120000005608576113887311791_" gradientUnits="userSpaceOnUse" x1="382.6585" y1="70.7217" x2="396.867" y2="43.8523" gradientTransform="matrix(1 0 0 -1 0 799.8898)">
		<stop  offset="8.887236e-04" style="stop-color:#000000"/>
		<stop  offset="0.998" style="stop-color:#AFAFAF;stop-opacity:0"/>
	</linearGradient>
	<path style="fill:url(#SVGID_00000126289876933519682120000005608576113887311791_);" d="M395.54,748.98
		c2.39-0.59,4.94-1,6.85-2.54c1.35-1.09,2.27-2.7,2.52-4.41c0.88,1.61,3.11,1.81,4.93,1.58c3.76-0.47,7.35-1.88,10.68-3.67
		c1.75-0.95,3.63-2.28,3.83-4.26c0.05-0.51-0.03-1.07-0.36-1.46c-0.15-0.18-0.35-0.33-0.49-0.52c-0.59-0.83,0.23-1.91,0.91-2.67
		c1.69-1.92,2.77-4.37,3.02-6.92c1.48,2.95,2.44,6.16,2.82,9.44c0.17,1.48,0.22,3.01-0.24,4.42c-0.66,2.02-2.29,3.59-4.14,4.64
		s-3.91,1.63-5.94,2.23c-5.82,1.73-11.55,3.74-17.27,5.76c-6.04,2.14-12.07,4.61-18.34,6c-6.19,1.37-12.51,1.91-18.75,2.95
		c-4.31,0.71-8.58,1.66-12.79,2.84c0.03-0.51,0.06-1.03,0.09-1.54c0.01-0.19,0.03-0.39,0.15-0.53c0.11-0.13,0.29-0.19,0.46-0.23
		c11.09-3.09,22.48-5.01,33.63-7.87c0.78-0.2,1.58-0.4,2.3-0.78c0.62-0.32,1.01-0.82,1.63-1.13
		C392.4,749.61,394.05,749.35,395.54,748.98z"/>
	<path class="st5" d="M358.97,762.96c-4.7,0.48-9.4,0.95-14.1,1.43c-3.79,0.38-7.59,0.77-11.4,0.9c-1.31,0.04-2.62,0.06-3.91-0.17
		c-3.52-0.62-6.46-2.89-9.71-4.22c-3.06-1.25-5.76-3.29-7.73-5.96c-0.15-0.2-0.55-0.09-0.44,0.19c0.71,1.8,1.83,3.4,3.27,4.69
		c0.71,0.64,1.49,1.2,2.31,1.7c0.74,0.44,1.55,0.65,2.29,1.05c0.94,0.51,1.76,1.28,2.7,1.82c0.95,0.54,1.94,1.02,2.95,1.43
		c2.04,0.82,4.19,1.37,6.37,1.69c1.09,0.16,2.19,0.26,3.29,0.31c5.65,0.25,11.27-0.83,16.76-2.2c2.2-0.55,4.4-1.15,6.58-1.79
		c0.69-0.2,1.42-0.44,1.9-0.97C359.71,762.89,359.34,762.93,358.97,762.96z"/>
	<path class="st5" d="M423.45,743.29c-9.21,4.44-19.58,5.37-28.94,9.36c-2.49,1.06-4.71,2.48-7.09,3.75
		c-2.42,1.29-5.12,2.25-7.73,3.1c-2.49,0.81-5.05,1.37-7.64,1.75c-2.91,0.44-5.92,0.92-8.85,1.18c-0.3,0.03-0.3,0.45,0,0.46
		c2.87,0.17,5.58,0.33,8.46-0.01c2.67-0.31,5.33-0.82,7.92-1.52c5.39-1.46,9.95-4.74,15.2-6.63c9.71-3.5,20.46-4.74,29.23-10.49
		C424.62,743.86,424.09,742.98,423.45,743.29z"/>
	<path class="st5" d="M493.41,737.18c-2.16,5.12-4.09,10.33-5.63,15.69c-0.75,2.59-1.4,5.22-1.79,7.89
		c-0.35,2.4-0.85,5.07-0.41,7.48c0.08,0.44,0.83,0.45,0.9,0c0.39-2.56,0.28-5.14,0.76-7.71c0.5-2.65,1.18-5.27,1.96-7.85
		c1.57-5.15,3.51-10.13,4.45-15.43C493.68,737.08,493.47,737.03,493.41,737.18z"/>
	<path class="st5" d="M541.11,772.29c0.27-0.19,0.52-0.4,0.73-0.66c0.44-0.54,0.66-1.33,0.34-1.96c-7.51,3.78-15.68,6.15-23.96,7.56
		c-3.45,0.59-6.94,1.01-10.43,0.79c-1.85-0.12-3.7-0.43-5.47-0.97c-1.74-0.54-3.25-1.54-4.93-2.14c-1.76-0.62-3.39-1.56-4.88-2.68
		c-0.73-0.55-1.43-1.15-2.09-1.78c-0.3-0.29-1.21-1.63-1.54-1.66c-0.18-0.01-0.35,0.12-0.38,0.29c-0.02,0.11,0.01,0.23,0.05,0.34
		c0.1,0.31,0.19,0.62,0.29,0.92c0.62,2.01,2.77,3.74,4.58,4.66c0.76,0.38,1.4,1.04,2.12,1.5c0.76,0.49,1.57,0.92,2.39,1.3
		c1.67,0.76,3.43,1.31,5.22,1.69c0.64,0.14,1.29,0.25,1.95,0.35c3.71,0.55,7.49,0.5,11.22,0.14c8.31-0.81,16.46-3.25,23.85-7.13
		C540.48,772.68,540.81,772.5,541.11,772.29z"/>
	<path class="st9" d="M389.78,754.85c3.53-1.35,7.1-2.54,10.62-3.95c1.08-0.44,2.16-0.89,3.27-1.25c1.22-0.39,2.47-0.65,3.71-0.93
		c3.54-0.8,7.04-1.77,10.51-2.8c3.69-1.09,7.49-2.33,10.34-4.92c0.74-0.67,1.41-1.44,1.87-2.33c1.32-2.53,0.78-5.61,0-8.37"/>
	<path class="st9" d="M430.1,730.19c0.98,0.16,1.91,0.57,2.7,1.17c0.35,0.27,0.69,0.59,0.87,0.99c0.15,0.32,0.2,0.68,0.24,1.03
		c0.33,2.71,0.42,5.48,0.56,8.21c0.08,1.41,0.06,2.93-0.76,4.08c-0.54,0.76-1.36,1.25-2.17,1.71c-7.3,4.21-15.04,7.6-22.81,10.83
		c-3.59,1.49-6.83,2.94-10.62,4.07c-4.11,1.22-8.22,2.45-12.32,3.67c-2.14,0.64-4.28,1.28-6.46,1.75
		c-6.48,1.41-13.18,1.35-19.65,2.84c-6.5,1.5-13.07,1.82-19.73,2.22c-1.59,0.1-3.18,0.19-4.78,0.12c-4.29-0.2-8.42-1.6-12.48-2.99
		c-3.06-1.05-5.74-2.62-8.16-4.78c-1.02-0.91-1.99-1.95-2.45-3.24c-0.19-0.53-0.28-1.1-0.38-1.66c-0.22-1.31-0.39-2.55-0.46-3.87
		c-0.03-0.46-0.05-0.94,0.11-1.38c0.3-0.82,1.16-1.1,1.95-1.02"/>
	<path class="st9" d="M312.74,754.17c0.07-0.17,0.29,0.06,0.31,0.24c0.28,3.1,6,6.17,8.46,7.69c3.44,2.12,7.26,3.71,11.33,3.99
		c2.98,0.21,5.96-0.29,8.91-0.78c7.71-1.29,15.07-3.93,22.74-5.43c2.29-0.45,4.6-0.82,6.93-1.05c2.37-0.24,4.76-1,7.15-1.35
		c1.16-0.17,2.33-0.31,3.48-0.57c0.94-0.21,1.87-0.5,2.79-0.78c1.09-0.34,2.19-0.51,3.32-0.7c0.89-0.15,1.79-0.37,2.51-0.91"/>
	<path class="st9" d="M540.14,751.3c-0.67-1.64-1.34-3.28-2-4.91c-0.65-1.58-1.16-3.37-2-4.86c-1.18-2.09-1.75-4.47-2.65-6.71
		c-0.67-1.66-3.39-9.45-3.84-10.59c1.36-0.11,2.2,2.56,2.65,3.5c2.93,6.07,5.59,12.28,7.95,18.61c2.32,6.21,4.52,12.28,4.62,19.04
		c0.05,3.41,0.5,8.18-2.21,10.82c-0.78,0.76-1.8,1.22-2.8,1.67c-7.82,3.46-15.9,6.63-24.38,7.74c-4.57,0.6-9.25,0.55-13.78-0.34
		c-3.84-0.75-9.62-2.17-12.12-5.47c-0.52-0.68-0.83-1.5-1.12-2.3c-0.6-1.66-1.16-3.33-1.67-5.02c-0.41-1.37-0.79-2.76-0.91-4.19
		c-0.09-1.13-0.02-2.26,0.05-3.39c0.19-2.98,0.28-5.86,1.02-8.73c2.26-8.79,4.97-17.5,8.13-26.02c0.05-0.14,0.36,0.02,0.5-0.02
		c-0.25,0.08-0.23,6.16-0.28,6.81c-0.16,2.15-0.55,4.18-0.89,6.28c-0.75,4.55-1.94,9.02-3.54,13.34"/>
	<path class="st9" d="M542.63,760.78c0.57,1.6,0.66,3.29,0.36,4.95c-0.24,1.33-0.2,2.48-1.23,3.52c-1.16,1.18-2.77,1.9-4.28,2.52
		c-7.08,2.89-14.5,4.93-22.07,6.05c-3.21,0.48-6.48,0.79-9.69,0.34c-2.55-0.36-5-1.18-7.4-2.11c-2.15-0.83-4.3-1.76-6.14-3.15
		c-1.97-1.49-3.23-3.57-3.24-6.09"/>
	<g>
		<g>
			<path d="M505.41,770.02c1.72-5.34,8.1-6.67,12.82-7.96c5.49-1.5,10.97-4.24,16.79-3.76c2.67,0.22,5.3,1.19,7.16,3.17
				c0.88,0.94,2.3-0.48,1.41-1.41c-3.99-4.24-10.34-4.34-15.62-3.06c-3.19,0.77-6.24,1.99-9.39,2.89c-3.09,0.88-6.29,1.53-9.15,3.04
				c-2.68,1.41-5,3.63-5.95,6.56C503.09,770.72,505.02,771.25,505.41,770.02L505.41,770.02z"/>
		</g>
	</g>
	<g>
		<g>
			<path d="M504.86,768.5c-0.38-0.84-1.12-1.35-1.77-1.95c-0.62-0.58-0.82-1.39-1.18-2.14c-0.88-1.82-2.22-3.25-4.28-3.62
				c-2.08-0.37-4.48-0.47-6.29,0.79c-1.61,1.13-2.56,2.9-3.39,4.64c-0.55,1.16,1.17,2.17,1.73,1.01c0.67-1.4,1.39-2.98,2.67-3.92
				c1.41-1.04,3.57-0.91,5.19-0.5c1.6,0.4,2.35,1.87,2.95,3.28c0.31,0.72,0.6,1.33,1.19,1.88c0.53,0.49,1.16,0.87,1.46,1.55
				c0.22,0.49,0.94,0.61,1.37,0.36C505.01,769.57,505.09,768.99,504.86,768.5L504.86,768.5z"/>
		</g>
	</g>
	<g>
		<g>
			<path d="M489.71,759.71c1.71-2.16,3.83-3.61,6.56-4.15c1.65-0.33,3.02-0.01,4.32,1.05c1.17,0.95,2.25,2.1,2.67,3.58
				c0.35,1.24,2.28,0.71,1.93-0.53c-0.51-1.81-1.74-3.29-3.18-4.46c-1.57-1.28-3.26-1.96-5.31-1.71c-3.4,0.42-6.28,2.14-8.4,4.81
				c-0.33,0.42-0.41,1,0,1.41C488.64,760.05,489.37,760.13,489.71,759.71L489.71,759.71z"/>
		</g>
	</g>
	<g>
		<g>
			<path d="M505.9,760.3c2.26-4.36,7.21-5.96,11.65-7.12c5.12-1.34,10.4-2.33,15.71-2.03c2.73,0.15,5.63,0.54,7.98,2.05
				c1.09,0.7,2.09-1.03,1.01-1.73c-2.26-1.45-4.94-1.95-7.57-2.21c-2.83-0.28-5.69-0.17-8.51,0.18c-2.81,0.35-5.59,0.92-8.34,1.61
				c-2.68,0.68-5.37,1.42-7.83,2.7c-2.4,1.26-4.56,3.11-5.83,5.54C503.58,760.43,505.31,761.44,505.9,760.3L505.9,760.3z"/>
		</g>
	</g>
	<g>
		<g>
			<path d="M328.6,764.41c-1.37-1.14-2.21-2.8-2.23-4.59c-0.01-0.93,0.17-1.93,0.71-2.7c0.5-0.72,1.32-1.11,2.13-1.38
				c0.94-0.32,1.9-0.58,2.85-0.87c1.08-0.33,2.18-0.64,3.3-0.72c0.97-0.07,1.95-0.06,2.71,0.62c0.73,0.64,1.2,1.55,1.66,2.39
				c0.57,1.06,0.84,2.09,0.93,3.3c0.09,1.3,0.2,2.54,0.72,3.75c0.22,0.49,0.94,0.61,1.37,0.36c0.51-0.3,0.58-0.87,0.36-1.37
				c-0.5-1.15-0.39-2.49-0.54-3.71c-0.16-1.32-0.63-2.46-1.27-3.62c-0.54-0.98-1.14-1.98-2.02-2.69c-1-0.81-2.17-1.08-3.45-1.04
				c-1.35,0.03-2.68,0.33-3.97,0.72c-1.14,0.34-2.32,0.65-3.44,1.07c-1.08,0.4-2.09,0.94-2.81,1.86c-0.74,0.95-1.1,2.14-1.21,3.33
				c-0.24,2.51,0.85,5.13,2.78,6.74C328.17,766.65,329.59,765.24,328.6,764.41L328.6,764.41z"/>
		</g>
	</g>
	<g>
		<g>
			<path d="M339,751c0.81,0.02,1.61-0.23,2.38-0.45c0.94-0.27,1.76-0.48,2.62-0.5c2.87-0.05,5.26,2.5,6.61,4.95
				c1.08,1.95,1.13,4.29,1.11,6.45c-0.01,1.29,1.99,1.29,2,0c0.01-2.14-0.07-4.38-0.89-6.39c-0.78-1.92-2.19-3.77-3.79-5.09
				c-1.18-0.98-2.52-1.67-4.06-1.86c-1.13-0.14-2.27,0.02-3.37,0.3c-0.5,0.13-0.99,0.28-1.49,0.41c-0.23,0.06-0.46,0.11-0.7,0.16
				c-0.15,0.03,0.16,0-0.09,0.01c-0.11,0-0.23,0.01-0.34,0.01C337.71,748.97,337.71,750.97,339,751L339,751z"/>
		</g>
	</g>
	<g>
		<g>
			<path d="M320.29,750c0.4-0.57,1.05-0.94,1.77-1.08c0.27-0.05,0.7-0.04,0.98,0.02c0.46,0.11,0.89,0.3,1.32,0.51
				c0.32,0.16,0.63,0.29,0.81,0.59c0.25,0.41,0.35,0.95,0.49,1.4c0.36,1.11,0.72,2.21,1.07,3.32c0.39,1.22,2.33,0.7,1.93-0.53
				c-0.42-1.31-0.85-2.63-1.27-3.94c-0.21-0.64-0.41-1.3-0.89-1.8c-0.42-0.44-0.97-0.71-1.51-0.96c-1.16-0.53-2.31-0.82-3.57-0.53
				c-1.17,0.27-2.16,1-2.85,1.97c-0.31,0.44-0.08,1.11,0.36,1.37C319.42,750.65,319.98,750.45,320.29,750L320.29,750z"/>
		</g>
	</g>
	<g>
		<g>
			<path d="M320.23,748.9c-0.14-0.51,1.15-0.99,1.48-1.14c0.82-0.38,1.66-0.72,2.51-1.02c1.78-0.64,3.65-1.21,5.53-1.45
				c1.74-0.22,3.57-0.12,5.11,0.79c1.5,0.88,2.6,2.29,3.66,3.64c0.33,0.42,1.06,0.35,1.41,0c0.42-0.42,0.34-0.99,0-1.41
				c-1.27-1.61-2.64-3.26-4.52-4.19c-2.07-1.03-4.38-1.05-6.62-0.69c-2.22,0.36-4.42,1.07-6.5,1.92c-1.67,0.68-4.64,1.72-4,4.09
				C318.64,750.67,320.57,750.15,320.23,748.9L320.23,748.9z"/>
		</g>
	</g>
	<g>
		<g>
			<path d="M321.95,753.99c-1.29,0.62-2.34,1.71-2.89,3.03c-0.3,0.72-0.47,1.49-0.47,2.27c0,0.37,0,0.79,0.11,1.15
				c0.11,0.37,0.56,0.66,0.91,0.4c0.22-0.16,0.33-0.43,0.18-0.68c-0.13-0.21-0.46-0.34-0.68-0.18c-0.01,0.01-0.02,0.02-0.04,0.03
				c0.13-0.02,0.26-0.03,0.39-0.05c-0.01,0-0.03-0.01-0.04-0.01c0.07,0.04,0.15,0.09,0.22,0.13c0.06,0.05,0.02,0.09,0.01-0.03
				c-0.01-0.06-0.02-0.12-0.02-0.18c-0.02-0.16-0.02-0.31-0.02-0.47c0-0.28,0.01-0.57,0.06-0.85c0.1-0.57,0.28-1.12,0.57-1.62
				c0.52-0.91,1.3-1.62,2.24-2.07C323.04,754.58,322.53,753.72,321.95,753.99L321.95,753.99z"/>
		</g>
	</g>
	<g>
		<g>
			<path d="M317.47,752.42c-0.45,0.26-0.77,0.66-1.04,1.09c-0.26,0.4-0.51,0.81-0.73,1.23c-0.45,0.88-0.71,1.84-0.58,2.84
				c0.04,0.27,0.2,0.5,0.5,0.5c0.24,0,0.54-0.23,0.5-0.5c-0.11-0.83,0.07-1.59,0.44-2.33c0.19-0.37,0.4-0.72,0.62-1.07
				c0.22-0.34,0.43-0.69,0.79-0.9C318.53,752.96,318.02,752.1,317.47,752.42L317.47,752.42z"/>
		</g>
	</g>
	<g>
		<g>
			<path d="M319.1,748.47c-1.48,0.27-2.99,0.7-4.22,1.6c-1.22,0.89-2.64,2.47-2.12,4.1c0.16,0.5,0.7,0.87,1.23,0.7
				c0.5-0.16,0.87-0.7,0.7-1.23c-0.01-0.03-0.05-0.26-0.04-0.14c0.01,0.15,0.02-0.23-0.01,0.02c0.01-0.06,0.02-0.13,0.04-0.19
				c0,0,0.08-0.24,0.05-0.16c-0.04,0.1,0.06-0.12,0.08-0.14c0.04-0.07,0.08-0.13,0.12-0.2c0.07-0.11,0.14-0.22,0.22-0.33
				c-0.12,0.15,0.01-0.01,0.04-0.04c0.05-0.06,0.1-0.11,0.15-0.16c0.1-0.11,0.21-0.21,0.32-0.31c0.04-0.04,0.09-0.08,0.13-0.12
				c0,0,0.2-0.16,0.11-0.09c-0.1,0.07,0.09-0.07,0.11-0.08c0.06-0.04,0.12-0.08,0.18-0.12c0.24-0.15,0.49-0.29,0.75-0.42
				c0.06-0.03,0.12-0.06,0.19-0.09c0.3-0.13-0.08,0.03,0.09-0.04c0.16-0.06,0.32-0.12,0.48-0.18c0.63-0.21,1.29-0.36,1.94-0.48
				c0.52-0.1,0.85-0.75,0.7-1.23C320.15,748.61,319.65,748.37,319.1,748.47L319.1,748.47z"/>
		</g>
	</g>
	<g>
		<g>
			<path d="M329.91,753.02c3.5-0.93,7.05-1.67,10.63-2.21c0.63-0.1,0.36-1.06-0.27-0.96c-3.58,0.54-7.13,1.28-10.63,2.21
				C329.02,752.22,329.29,753.18,329.91,753.02L329.91,753.02z"/>
		</g>
	</g>
	<g>
		<g>
			<path d="M329.26,755.86c-0.68,0.11-1.74,0.48-2.03,1.18c-0.37,0.88,0.7,1.11,1.32,1.18c1.92,0.21,3.86,0.39,5.78,0.15
				c0.93-0.12,1.85-0.32,2.72-0.67c0.62-0.25,1.4-0.71,1.23-1.51c-0.17-0.78-1.08-0.95-1.74-1.09c-1-0.22-2.02-0.35-3.05-0.41
				c-0.64-0.04-0.64,0.96,0,1c0.71,0.04,1.41,0.12,2.11,0.24c0.35,0.06,0.71,0.14,1.06,0.22c0.1,0.02,0.6,0.1,0.63,0.23
				c0.07,0.29-1.24,0.62-1.44,0.67c-0.61,0.17-1.24,0.29-1.88,0.36c-1.23,0.12-2.47,0.08-3.7-0.02c-0.33-0.03-0.67-0.06-1-0.09
				c-0.27-0.03-0.64-0.14-0.9-0.1c-0.15-0.08-0.21-0.05-0.18,0.09c-0.04,0.16,0.01,0.16,0.14,0c0.09-0.04,0.18-0.12,0.27-0.17
				c0.29-0.16,0.6-0.24,0.93-0.29C330.16,756.72,329.9,755.76,329.26,755.86L329.26,755.86z"/>
		</g>
	</g>
	<g>
		<g>
			<path d="M320.38,755.13c-0.26,0.29-0.55,0.61-0.7,0.98c-0.15,0.38-0.09,0.81,0.09,1.17c0.3,0.58,0.85,0.8,1.48,0.82
				c0.76,0.02,1.58-0.02,2.32-0.21c0.68-0.17,1.38-0.58,1.57-1.3c0.17-0.62-0.8-0.89-0.96-0.27c-0.09,0.35-0.58,0.54-0.95,0.62
				c-0.55,0.13-1.13,0.14-1.69,0.15c-0.12,0-0.23,0.01-0.35,0c-0.05,0-0.09,0-0.14-0.01c0.07,0.01-0.04-0.01-0.05-0.01
				c-0.13-0.03-0.2-0.06-0.27-0.14c-0.11-0.13-0.19-0.32-0.12-0.49c0.09-0.22,0.31-0.43,0.47-0.61
				C321.52,755.36,320.81,754.65,320.38,755.13L320.38,755.13z"/>
		</g>
	</g>
	<g>
		<g>
			<path d="M317.26,752.79c-0.46,0.28-0.69,0.76-0.74,1.28c-0.05,0.57,0.28,1,0.81,1.18c0.42,0.14,0.92,0.15,1.37,0.14
				c0.56-0.01,1.13-0.1,1.68-0.19c0.26-0.04,0.43-0.38,0.35-0.62c-0.09-0.28-0.34-0.39-0.62-0.35c-0.41,0.07-0.78,0.12-1.2,0.14
				c-0.21,0.01-0.42,0.01-0.62,0.01c-0.11,0-0.23-0.01-0.34-0.03c-0.02,0-0.05-0.01-0.07-0.01c-0.12-0.01,0.11,0.02-0.02,0
				c-0.06-0.01-0.13-0.02-0.19-0.04c-0.03-0.01-0.06-0.02-0.09-0.03c-0.05-0.01,0.07,0.04,0,0c-0.01-0.01-0.1-0.06-0.04-0.02
				s-0.02-0.02-0.03-0.03c0.04,0.05,0.04,0.06,0.02,0.03c-0.01-0.02-0.01-0.02,0,0.01c0.02,0.04,0.01,0.03-0.01-0.03
				c0,0.01,0,0.01,0,0.02c-0.01-0.05,0-0.11,0-0.17c0,0.05-0.01,0.04,0-0.01s0.02-0.09,0.03-0.14c0-0.01,0.05-0.12,0.02-0.07
				c-0.02,0.05,0.04-0.07,0.04-0.06c0.01-0.01,0.08-0.1,0.04-0.06c-0.04,0.04,0.05-0.04,0.05-0.05c-0.06,0.06,0.02-0.01,0.05-0.03
				c0.23-0.14,0.32-0.45,0.18-0.68C317.81,752.73,317.49,752.65,317.26,752.79L317.26,752.79z"/>
		</g>
	</g>
	<g>
		<g>
			<path d="M504.06,759.99c0.15,1.58,0.25,3.17,0.3,4.75c0.02,0.64,1.02,0.64,1,0c-0.05-1.59-0.15-3.17-0.3-4.75
				c-0.03-0.27-0.21-0.5-0.5-0.5C504.31,759.49,504.04,759.72,504.06,759.99L504.06,759.99z"/>
		</g>
	</g>
	<g>
		<g>
			<path d="M496.01,775.64c2.02,0.15,4.15-0.27,5.78-1.53c1.52-1.17,2.52-3.06,2.35-5c-0.06-0.64-1.06-0.64-1,0
				c0.15,1.67-0.7,3.3-2.05,4.28c-1.47,1.07-3.31,1.37-5.09,1.25C495.37,774.59,495.37,775.59,496.01,775.64L496.01,775.64z"/>
		</g>
	</g>
	<g>
		<g>
			<path d="M491.22,764.69c-0.35,0.44-0.62,0.93-0.69,1.5c-0.07,0.58,0.25,0.94,0.76,1.18c1.06,0.51,2.43,0.45,3.58,0.46
				c1.32,0.01,2.66-0.06,3.97-0.26c1.26-0.2,1.39-1.34,1.09-2.39c-0.18-0.62-1.14-0.35-0.96,0.27c0.08,0.28,0.27,0.76,0.04,1.02
				c-0.21,0.24-0.85,0.19-1.13,0.22c-0.89,0.09-1.78,0.14-2.67,0.14c-0.86,0-1.74-0.01-2.59-0.12c-0.23-0.03-0.93-0.1-1.06-0.34
				c-0.13-0.24,0.22-0.78,0.38-0.98C492.33,764.9,491.63,764.19,491.22,764.69L491.22,764.69z"/>
		</g>
	</g>
	<g>
		<g>
			<path d="M506.8,767.72c-0.24,2.77-1.28,7.15,2.27,8.23c1.59,0.49,3.44,0.26,5.04-0.03c1.54-0.28,3.14-0.73,3.78-2.31
				c0.75-1.85-0.12-3.75-0.15-5.63c-0.01-0.64-1.01-0.64-1,0c0.03,1.75,0.99,3.78,0.14,5.46c-0.41,0.81-1.24,1.1-2.06,1.31
				c-1.01,0.25-2.05,0.4-3.1,0.45c-1.61,0.07-3.59-0.09-4.09-1.93c-0.21-0.78-0.16-1.62-0.1-2.42c0.08-1.04,0.18-2.08,0.27-3.12
				C507.85,767.08,506.85,767.08,506.8,767.72L506.8,767.72z"/>
		</g>
	</g>
	<g>
		<g>
			<path d="M517.3,765.31c-0.17-0.7-0.35-1.39-0.52-2.09c-0.06-0.25-0.36-0.43-0.62-0.35c-0.26,0.09-0.42,0.34-0.35,0.62
				c0.17,0.7,0.35,1.39,0.52,2.09c0.06,0.25,0.36,0.43,0.62,0.35C517.21,765.84,517.37,765.58,517.3,765.31L517.3,765.31z"/>
		</g>
	</g>
	<g>
		<g>
			<path d="M519,770.78c0.34,1.21,0.83,2.46,2,3.08c1.06,0.55,2.37,0.62,3.54,0.55c1.15-0.07,2.37-0.37,3.17-1.26
				c0.84-0.93,1.02-2.22,0.86-3.42c-0.21-1.59-1.02-3.02-1.27-4.61c-0.1-0.63-1.06-0.36-0.96,0.27c0.34,2.19,2.83,6.18-0.11,7.64
				c-1.08,0.53-2.56,0.51-3.72,0.3c-0.66-0.12-1.3-0.37-1.73-0.9c-0.44-0.54-0.64-1.24-0.82-1.9
				C519.79,769.89,518.83,770.15,519,770.78L519,770.78z"/>
		</g>
	</g>
	<g>
		<g>
			<path d="M529,770.48c0.76,1.23,2.22,1.24,3.5,1.01c1.15-0.21,2.38-0.67,2.86-1.83c0.53-1.28,0.08-2.88-0.22-4.17
				c-0.36-1.56-0.84-3.1-1.33-4.62c-0.2-0.61-1.16-0.35-0.96,0.27c0.38,1.19,0.76,2.38,1.08,3.6c0.3,1.15,0.64,2.37,0.66,3.56
				c0.02,1.14-0.59,1.78-1.65,2.08c-0.93,0.26-2.46,0.61-3.08-0.39C529.53,769.43,528.66,769.93,529,770.48L529,770.48z"/>
		</g>
	</g>
	<g>
		<g>
			<path d="M536.92,768.32c0.81,0.32,1.7,0.48,2.57,0.46c0.82-0.02,1.69-0.18,2.36-0.68c1.14-0.86,1.54-2.37,1.29-3.73
				c-0.05-0.27-0.37-0.42-0.62-0.35c-0.28,0.08-0.4,0.35-0.35,0.62c0.17,0.95-0.13,2.11-0.95,2.69c-0.54,0.38-1.24,0.46-1.88,0.46
				c-0.74,0-1.46-0.15-2.15-0.43c-0.25-0.1-0.55,0.11-0.62,0.35C536.49,767.99,536.67,768.22,536.92,768.32L536.92,768.32z"/>
		</g>
	</g>
	<g>
		<g>
			<path d="M525.98,762.27c-0.07-0.63-0.18-1.25-0.36-1.85c-0.07-0.25-0.36-0.43-0.62-0.35s-0.43,0.35-0.35,0.62
				c0.14,0.48,0.24,0.96,0.31,1.46c-0.01-0.04-0.01-0.09-0.02-0.13c0.01,0.09,0.02,0.18,0.03,0.26c0.02,0.14,0.05,0.25,0.15,0.35
				c0.09,0.09,0.23,0.15,0.35,0.15c0.13-0.01,0.26-0.05,0.35-0.15C525.92,762.53,526,762.4,525.98,762.27L525.98,762.27z"/>
		</g>
	</g>
	<g>
		<g>
			<path d="M533.55,758.85c-0.02-0.04-0.04-0.08-0.06-0.13c-0.03-0.06-0.07-0.11-0.13-0.14c-0.05-0.04-0.1-0.07-0.17-0.09
				s-0.13-0.02-0.2-0.01c-0.07,0-0.13,0.02-0.19,0.06c-0.03,0.03-0.07,0.05-0.1,0.08c-0.06,0.06-0.1,0.14-0.13,0.22
				c-0.01,0.04-0.01,0.09-0.02,0.13c0,0.09,0.02,0.17,0.07,0.25c0.02,0.04,0.04,0.08,0.06,0.13c0.03,0.06,0.07,0.11,0.13,0.14
				c0.05,0.04,0.1,0.07,0.17,0.09s0.13,0.02,0.2,0.01c0.07,0,0.13-0.02,0.19-0.06c0.03-0.03,0.07-0.05,0.1-0.08
				c0.06-0.06,0.1-0.14,0.13-0.22c0.01-0.04,0.01-0.09,0.02-0.13C533.62,759.01,533.59,758.93,533.55,758.85L533.55,758.85z"/>
		</g>
	</g>
	<g>
		<g>
			<path d="M510.72,767.44c-0.51-0.06-1.04-0.08-1.51,0.15c-0.42,0.21-0.69,0.59-0.85,1.03c-0.15,0.44-0.18,0.93-0.18,1.39
				c0,0.52,0.09,1.04,0.42,1.45c0.64,0.8,1.82,0.78,2.75,0.77c1.13-0.01,2.28-0.14,3.34-0.57c0.62-0.25,1.06-0.54,1.16-1.24
				c0.1-0.69,0.05-1.39-0.11-2.07c-0.15-0.62-1.12-0.36-0.96,0.27c0.13,0.54,0.21,1.16,0.09,1.71c-0.09,0.39-0.83,0.53-1.16,0.62
				c-1.03,0.29-2.13,0.33-3.2,0.27c-0.36-0.02-0.8-0.06-1.07-0.32c-0.31-0.3-0.26-0.84-0.24-1.23c0.02-0.34,0.05-0.77,0.29-1.04
				c0.29-0.33,0.85-0.23,1.24-0.18c0.27,0.03,0.5-0.25,0.5-0.5C511.22,767.65,510.99,767.47,510.72,767.44L510.72,767.44z"/>
		</g>
	</g>
	<g>
		<g>
			<path d="M520.39,768.05c0.01,0.83,0.1,1.76,0.79,2.33c0.37,0.3,0.8,0.39,1.26,0.43c0.45,0.04,0.9,0.04,1.34,0
				c0.45-0.04,0.92-0.1,1.36-0.22c0.47-0.14,0.77-0.43,0.94-0.89c0.3-0.83,0.2-1.74-0.15-2.54c-0.11-0.25-0.47-0.31-0.68-0.18
				c-0.25,0.15-0.29,0.44-0.18,0.68c0.23,0.53,0.26,1.15,0.08,1.69c-0.09,0.27-0.3,0.28-0.56,0.34c-0.32,0.07-0.65,0.11-0.98,0.13
				c-0.33,0.02-0.66,0.02-0.99,0c-0.26-0.02-0.57-0.03-0.78-0.2c-0.46-0.35-0.43-1.06-0.44-1.57
				C521.38,767.4,520.38,767.4,520.39,768.05L520.39,768.05z"/>
		</g>
	</g>
	<g>
		<g>
			<path d="M529,766c0.2,0.5,0.35,1.04,0.66,1.48c0.36,0.5,0.84,0.8,1.46,0.87c1.09,0.12,2.44-0.38,2.5-1.64
				c0.01-0.27-0.24-0.5-0.5-0.5c-0.28,0-0.49,0.23-0.5,0.5c-0.01,0.16,0.01-0.04-0.01,0.05c-0.01,0.04-0.02,0.09-0.04,0.13
				c0.03-0.07-0.1,0.14-0.06,0.1c-0.11,0.13-0.19,0.19-0.33,0.25c-0.32,0.14-0.74,0.17-1.06,0.11c-0.33-0.06-0.53-0.25-0.7-0.51
				c-0.21-0.34-0.32-0.73-0.47-1.1c-0.1-0.25-0.34-0.43-0.62-0.35C529.11,765.45,528.9,765.74,529,766L529,766z"/>
		</g>
	</g>
	<g>
		<g>
			<path d="M536.23,764.17c0.09,0.61,0.45,1.15,0.93,1.51c0.57,0.43,1.25,0.52,1.93,0.41c0.35-0.06,0.68-0.17,1.01-0.3
				c0.31-0.12,0.64-0.23,0.88-0.46c0.28-0.27,0.33-0.64,0.29-1.01c-0.04-0.39-0.08-0.78-0.11-1.16c-0.03-0.27-0.21-0.5-0.5-0.5
				c-0.25,0-0.53,0.23-0.5,0.5c0.03,0.31,0.06,0.62,0.09,0.92c0.01,0.14,0.03,0.28,0.04,0.42c0,0.03,0.01,0.11-0.01,0.13
				c0.02-0.04,0.02-0.01-0.03,0.01c0.05-0.02-0.05,0.02-0.06,0.03c-0.03,0.02-0.12,0.06-0.12,0.06c-0.09,0.04-0.23,0.09-0.34,0.14
				c-0.27,0.1-0.55,0.2-0.83,0.25c-0.44,0.08-0.85,0-1.19-0.26c-0.28-0.22-0.46-0.56-0.52-0.95c-0.04-0.27-0.38-0.41-0.62-0.35
				C536.3,763.64,536.19,763.9,536.23,764.17L536.23,764.17z"/>
		</g>
	</g>
	<g>
		<g>
			<path d="M524.7,726.51c0.31-0.79,0.14-1.63-0.11-2.41c-0.25-0.78-0.71-1.71-0.43-2.54c0.17-0.5,0.58-0.89,0.9-1.29
				c0.32-0.41,0.62-0.83,0.89-1.27c0.56-0.93,0.99-1.93,1.29-2.98c0.18-0.62-0.78-0.88-0.96-0.27c-0.31,1.05-0.75,2.04-1.33,2.96
				c-0.55,0.86-1.44,1.6-1.75,2.58c-0.26,0.81-0.03,1.67,0.22,2.45c0.27,0.81,0.64,1.66,0.31,2.51
				C523.5,726.85,524.47,727.11,524.7,726.51L524.7,726.51z"/>
		</g>
	</g>
	<g>
		<g>
			<path d="M493.9,720.22c0.44,2.84,3.61,3.93,4.88,6.27c0.31,0.57,1.17,0.06,0.86-0.5c-0.66-1.21-1.73-2.08-2.73-2.99
				c-0.93-0.84-1.85-1.75-2.05-3.04c-0.04-0.27-0.38-0.41-0.62-0.35C493.96,719.69,493.86,719.95,493.9,720.22L493.9,720.22z"/>
		</g>
	</g>
	<g>
		<g>
			<path d="M395.66,726.25c1.81-1.6,2.82-4.07,2.58-6.48c-0.14-1.43-0.83-2.73-0.97-4.15c-0.15-1.56,0.82-2.7,1.82-3.77
				c0.44-0.47-0.27-1.18-0.71-0.71c-0.87,0.93-1.79,1.96-2.04,3.25c-0.28,1.41,0.26,2.76,0.64,4.1c0.72,2.57-0.01,5.28-2.02,7.06
				C394.47,725.97,395.18,726.68,395.66,726.25L395.66,726.25z"/>
		</g>
	</g>
	<g>
		<g>
			<path d="M404.51,722.37c2.17,0.62,4.53-0.16,5.91-1.94c1.32-1.7,1.72-3.89,2.52-5.85c0.24-0.6-0.73-0.86-0.96-0.27
				c-0.7,1.74-1.07,3.67-2.14,5.24c-1.12,1.64-3.14,2.4-5.05,1.85C404.16,721.23,403.89,722.19,404.51,722.37L404.51,722.37z"/>
		</g>
	</g>
</g>
</svg>
