<?xml version="1.0" encoding="utf-8"?>
<!-- Generator: Adobe Illustrator 28.0.0, SVG Export Plug-In . SVG Version: 6.00 Build 0)  -->
<svg version="1.1" id="Layer_1" xmlns="http://www.w3.org/2000/svg" xmlns:xlink="http://www.w3.org/1999/xlink" x="0px" y="0px"
	 viewBox="0 0 150 150" style="enable-background:new 0 0 150 150;" xml:space="preserve">
<style type="text/css">
	.st0{fill:#FC9956;}
	.st1{fill:#FFFFFF;}
	.st2{fill:#F2F1EB;}
	.st3{fill:#FFA96E;}
	.st4{fill:url(#SVGID_1_);}
	.st5{fill:url(#SVGID_00000110439409587213792160000017797883087696211111_);}
	.st6{fill:url(#SVGID_00000093892895800072863060000002831598504493601444_);}
	.st7{fill:url(#SVGID_00000052083797678429181410000000835291400311179434_);}
	.st8{fill:url(#SVGID_00000010999092441921865420000005150899870415274132_);}
	.st9{fill:url(#SVGID_00000046323516861624824810000003141958463417445560_);}
	.st10{fill:url(#SVGID_00000085931034719704495640000007413494249422204572_);}
	.st11{fill:url(#SVGID_00000113335675997477085030000009432475999328746408_);}
	.st12{fill:url(#SVGID_00000010277947978808412220000017439423201427701894_);}
</style>
<g id="Doge_Pyjamas_Hood">
	<path class="st0" d="M126.56,108.44c0-0.03-0.01-0.06-0.01-0.08c-0.11-1.07-0.23-2.17-0.75-3.1c-0.84-1.51-1.65-2.36-1.75-4.18
		c-0.13-2.34-1-4.57-1.85-6.75c-0.18-0.47-0.37-0.95-0.62-1.39c-0.31-0.55-0.72-1.04-1.12-1.53c-2.21-2.66-4.67-5.25-6.61-8.11
		c-1.49-2.2-2.89-4.79-3.53-7.38c-0.72-2.94-0.31-6.02-0.18-9.04c0.06-1.45,0.06-2.9,0.03-4.36c-0.02-0.89-0.06-1.77-0.09-2.66
		c-0.03-0.77-0.18-1.39-0.33-2.13c-0.96-4.68-1.66-9.54-3.59-13.95c-0.7-1.75-1.74-3.39-2.75-4.97c-0.49-0.77-0.96-1.63-1.55-2.33
		c-0.37-0.43-1.36-0.77-1.46-1.35c-0.02-0.13,0.02-0.27,0.06-0.4c0.47-1.47,0.37-2.9,0.55-4.43c0.18-1.52,0.46-3.03,0.6-4.55
		c0.18-1.89,0.34-4.05-0.21-5.87c-0.27-0.91-0.08-1.99-0.04-2.93c0.05-1.01,0.07-2.04-0.18-3.03c-0.04-0.17-0.09-0.34-0.21-0.46
		c-0.1-0.11-0.23-0.17-0.36-0.23c-1.44-0.66-2.7-1.63-4.37-1.55c-0.79,0.04-1.56,0.29-2.27,0.65c-2.34,1.18-3.93,3.39-5.69,5.33
		c-1.15,1.26-2.38,2.41-3.49,3.71c-0.4,0.46-0.95,0.89-1.55,0.81c-0.65-0.08-1.28-0.44-1.93-0.55c-0.82-0.15-1.64-0.31-2.46-0.47
		c-1.64-0.32-3.28-0.63-4.95-0.79c-2.87-0.28-5.87-0.08-8.44,1.23c-0.46,0.24-0.91,0.51-1.4,0.68c-0.48,0.17-0.99,0.24-1.49,0.32
		c-0.13,0.02-0.27,0.04-0.4-0.01c-0.13-0.05-0.22-0.15-0.31-0.26c-1.2-1.38-1.97-2.91-3.11-4.34c-0.76-0.95-1.55-1.89-2.4-2.76
		c-0.8-0.82-1.5-1.75-2.48-2.37c-0.64-0.4-1.38-0.67-2.13-0.66c-0.9,0.02-1.48,0.45-2.18,0.94c-1.87,1.31-1.11,4.48-1.04,6.41
		c0.04,1.05-0.02,2.11-0.09,3.16c-0.15,2.36-0.38,4.73-0.2,7.09c0.03,0.46,0.08,0.93-0.06,1.37c-0.11,0.34-0.33,0.64-0.55,0.93
		c-0.97,1.28-1.97,2.53-2.98,3.78c-1.34,1.66-2.37,3.48-3.47,5.32c-1.44,2.4-2.92,4.9-3.14,7.69c-0.11,1.34,0.2,2.63,0.18,3.99
		c-0.03,2.27-0.18,4.59-0.03,6.85c0.11,1.56,0.01,3.14-0.27,4.67c-0.13,0.72-0.38,1.39-0.57,2.08c-0.2,0.73-0.04,1.66,0.17,2.37
		c0.11,0.38,0.26,0.75,0.36,1.13c0.28,1.09,0.14,2.24,0,3.36c-0.21,1.57-0.43,3.15-0.67,4.72c-0.23,1.47-0.37,3.01-0.82,4.43
		c-0.96,3.03-1.63,6.2-2.44,9.28c-0.19,0.72-0.38,1.44-0.55,2.16c-0.66,2.85-0.98,5.79-0.97,8.72c0.01,1.91,0.1,3.79,0.66,5.62
		c0.52,1.69,1.28,3.31,2.27,4.78c0.03,0.05,0.07,0.1,0.1,0.15c0.3,0.43,0.63,0.95,0.45,1.45c-0.09,0.25-0.3,0.44-0.48,0.65
		c-0.57,0.66-0.82,1.59-0.65,2.45c0.07,0.38,0.22,0.73,0.3,1.11c0.24,1.21-0.29,2.54,0.25,3.65c0.57,1.2,2.33,1.15,3.49,1.23
		c3.62,0.25,7.28,0.62,10.67,1.9c0.8,0.3,1.59,0.63,2.38,0.92c0.53,0.19,1.06,0.33,1.53,0.65c0.47,0.32,0.85,0.75,1.23,1.17
		c0.94,1.03,1.87,2.07,2.81,3.1c0.16,0.17,0.32,0.35,0.51,0.48c0.22,0.14,0.48,0.22,0.7,0.37c0.44,0.3,0.34,0.75,0.29,1.21
		c-0.15,1.36-0.05,2.83,0.12,4.18c0.04,0.29,0.08,0.59,0.25,0.83c0.13,0.19,0.33,0.33,0.53,0.45c0.97,0.6,2.11,0.91,3.25,0.92
		c0.58,0.01,1.17-0.07,1.73-0.22c0.64-0.17,0.8-0.58,1.06-1.17c0.38-0.89,0.82-1.83,1.05-2.78c0.08-0.34,0.02-0.59,0.32-0.83
		c0.31-0.26,0.76-0.35,1.14-0.44c2.99-0.71,5.89-1.79,8.68-3.07c2.26-1.04,4.46-2.22,6.62-3.46c1.04-0.59,2.05-1.29,3.12-1.81
		c1.17-0.57,2.39-1,3.55-1.58c1.7-0.86,3.38-1.77,5.07-2.66c0.38-0.2,0.76-0.4,1.14-0.6c5.18-2.68,10.59-5,16.29-6.23
		c2.15-0.47,4.5-0.59,6.7-0.54c0.49,0.01,0.91,0.12,1.4,0.11c0.48-0.01,0.91,0.01,1.38,0.09c0.82,0.14,1.67,0.42,2.48,0.12
		c0.82-0.3,1.34-1.12,1.61-1.95C126.85,111.47,126.71,109.93,126.56,108.44z"/>
	<path class="st1" d="M62.52,37.71c-0.38-0.1-0.75-0.25-1.08-0.45c-0.11-0.07-0.24-0.02-0.32,0.07c-0.03,0.01-0.07,0.02-0.1,0.03
		c-0.07,0.01-0.15,0.01-0.22,0.04c-0.06,0.02-0.1,0.06-0.14,0.1c-0.01,0-0.02,0-0.03-0.01s-0.02-0.01-0.03-0.02
		c-0.08-0.02-0.15-0.01-0.23,0c-0.13,0.02-0.24,0.18-0.24,0.31c0.01,0.15,0.1,0.27,0.24,0.31c0.17,0.05,0.35,0.07,0.52,0.1
		c0.18,0.02,0.36,0.05,0.53,0.06c0.16,0.01,0.33,0.02,0.49,0.02c0.09,0,0.18,0,0.26,0c0.09,0,0.18-0.02,0.26-0.03
		c0.14-0.01,0.25-0.1,0.27-0.24C62.73,37.88,62.65,37.75,62.52,37.71z"/>
	<path class="st2" d="M54.67,27.07c0.04-0.22,0.01-0.44-0.14-0.63c-0.06-0.08-0.13-0.12-0.21-0.15c-0.44-1.3-0.91-2.6-1.4-3.88
		c-0.28-0.75-0.57-1.51-0.88-2.25c-0.23-0.56-0.47-1.09-0.84-1.56c-0.13-0.32-0.32-0.63-0.64-0.68c-0.25-0.04-0.45,0.13-0.48,0.34
		c-0.08,0.11-0.14,0.25-0.17,0.38c-0.27,1.12-0.04,2.41-0.02,3.56c0.03,1.25,0.04,2.5,0.06,3.75c0.03,1.31,0.13,2.66,0.06,3.97
		c-0.01,0.2,0.25,0.37,0.43,0.24c0.67-0.48,1.27-1.02,1.98-1.44s1.45-0.74,2.21-1.07C54.91,27.54,54.85,27.22,54.67,27.07z"/>
	<path class="st2" d="M98.6,18.38c-0.58-0.71-1.17-0.06-1.6,0.44c-1.29,1.52-2.4,3.18-3.46,4.87c-0.59,0.94-1.17,1.89-1.78,2.82
		c-0.6,0.92-1.32,1.8-1.87,2.75c-0.01,0-0.01,0-0.02,0c-0.27-0.02-0.31,0.34-0.13,0.46c0.27,0.19,0.6,0.29,0.9,0.42
		c0.33,0.14,0.65,0.29,0.96,0.45c0.62,0.3,1.22,0.64,1.81,1c1.19,0.72,2.3,1.56,3.32,2.5c0.34,0.31,0.83-0.14,0.61-0.47
		c0.3-2.17,0.64-4.34,0.92-6.51c0.14-1.1,0.28-2.19,0.5-3.28c0.2-0.97,0.44-1.96,0.44-2.96C99.22,20.09,99.11,19,98.6,18.38z"/>
	<path class="st2" d="M77.36,26.53c-0.12-0.33-0.5-0.52-0.8-0.63c-0.3-0.11-0.62-0.17-0.95-0.16c-0.41,0.01-0.81,0.1-1.2,0.21
		c-0.31,0.09-0.69,0.19-0.88,0.48c-0.15,0.02-0.29,0.11-0.34,0.29c-0.1,0.34,0.18,0.63,0.48,0.73c0.32,0.11,0.71,0.09,1.04,0.11
		c0.37,0.02,0.74,0.02,1.12,0C76.37,27.52,77.65,27.38,77.36,26.53z"/>
	<path class="st2" d="M63.31,26.1c-0.12-0.08-0.23-0.17-0.37-0.24s-0.29-0.13-0.44-0.19c-0.28-0.11-0.58-0.19-0.88-0.25
		c-0.33-0.07-0.66-0.09-0.98,0.04c-0.11,0.05-0.21,0.13-0.3,0.22c-0.05,0.02-0.11,0.05-0.15,0.07c-0.19,0.13-0.35,0.35-0.28,0.59
		c0.07,0.23,0.3,0.34,0.52,0.37c0.48,0.07,0.97,0.12,1.46,0.13c0.47,0.01,0.98,0.04,1.41-0.2C63.53,26.53,63.51,26.24,63.31,26.1z"
		/>
	<path class="st2" d="M85.12,39.34c-1.17-1.06-2.59-2.04-4.06-2.65c-0.69-0.28-1.32-0.66-2.04-0.89c-0.74-0.24-1.49-0.41-2.23-0.66
		c-0.38-0.12-0.71-0.32-1.1-0.42c-0.46-0.12-0.94-0.18-1.4-0.31c-1.01-0.28-1.92-0.82-2.78-1.42c-0.96-0.68-1.84-1.22-3-1.49
		c-1.12-0.27-2.27-0.37-3.42-0.46c-1.31-0.11-2.63-0.11-3.93,0.13c-0.59,0.11-1.21,0.25-1.76,0.5c-0.51,0.24-0.96,0.52-1.51,0.68
		c-1.08,0.32-2.21,0.38-3.31,0.54c-1.65,0.24-3.1,0.74-4.51,1.63c-1.34,0.85-2.52,1.89-3.59,3.04c-0.64,0.69-1.36,1.25-1.91,2.02
		c-0.36,0.5-0.68,1.03-1.02,1.55c-0.34,0.53-0.68,1.02-0.91,1.61c-0.29,0.76-0.47,1.57-0.52,2.38c-0.05,0.8,0.02,1.64,0.27,2.41
		c0.09,0.27,0.21,0.53,0.34,0.79c0.15,0.63,0.41,1.23,0.63,1.84c0.21,0.57,0.29,1.13,0.24,1.74c-0.03,0.34-0.15,0.7-0.01,1.02
		c0.06,0.13,0.16,0.24,0.26,0.35c0.02,0.03,0.05,0.05,0.09,0.06c0.07,0.01,0.13-0.07,0.16-0.14c0.45-1.03,0.38-2.14,0.62-3.21
		c0.23-1.02,0.66-1.99,1.37-2.77c1.18-1.29,2.79-2.16,4.4-2.81c1.79-0.72,3.69-1.17,5.59-1.48c0.95-0.15,1.9-0.27,2.86-0.36
		c0.25-0.02,0.53-0.04,0.8-0.07c0.06,0.12,0.16,0.21,0.31,0.21c1.27-0.01,2.56-0.02,3.81,0.23c0.64,0.13,1.27,0.3,1.89,0.5
		c0.48,0.15,1.07,0.22,1.49,0.51c0.93,0.64,1.53,1.69,2.08,2.64c0.48,0.82,0.95,1.65,1.25,2.54c0.25,0.77,0.37,1.57,0.59,2.34
		c0.22,0.77,0.54,1.51,0.89,2.23c0.52,1.07,1.09,2.11,1.67,3.14c0.52,0.94,1.06,1.87,1.56,2.82c0.45,0.86,0.83,1.76,1.33,2.6
		c0.05,0.09,0.1,0.18,0.19,0.24c0.45,0.34,1.43-0.39,1.73-0.71c1.09-1.16,1.84-2.64,2.38-4.13c0.41-1.14,0.72-2.3,1.17-3.42
		c0.25-0.62,0.54-1.23,0.85-1.83c0.27-0.52,0.48-1.04,0.74-1.57c0.21-0.44,0.5-0.8,0.73-1.23c0.25-0.46,0.49-0.93,0.72-1.4
		c0.63-1.26,1.27-2.55,1.47-3.95c0.09-0.64,0.15-1.33,0.04-1.97s-0.37-1.25-0.65-1.83c-0.06-0.13-0.12-0.26-0.2-0.38
		C85.62,39.83,85.38,39.57,85.12,39.34z M62.66,38.22c-0.02,0.01-0.05,0.02-0.07,0.02s-0.03,0-0.04,0c0.02,0,0,0-0.01,0
		c-0.03,0-0.05,0-0.08,0c-0.06,0.01-0.11,0.01-0.17,0.02c-0.13,0.02-0.25,0.04-0.38,0.05c-0.16,0.01-0.31,0-0.46-0.05
		c-0.08-0.02-0.13-0.06-0.18-0.12c-0.02-0.02-0.04-0.05-0.05-0.07c-0.05,0.02-0.11,0.04-0.16,0.05c-0.21,0.06-0.43,0.07-0.64-0.01
		c-0.24-0.1-0.31-0.43-0.15-0.63c0.1-0.13,0.25-0.16,0.4-0.13c0-0.01-0.01-0.01-0.01-0.02c-0.01,0-0.01,0-0.02,0
		c0.01,0,0.01,0,0.02,0l0,0c0.01,0,0.01,0,0.02,0c0.02,0,0.03,0,0.03,0c0.01,0,0.02,0,0.03-0.01c0.26-0.08,0.53-0.2,0.8-0.13
		c0.13,0.04,0.26,0.09,0.39,0.15c0.15,0.08,0.3,0.15,0.41,0.28c0.03,0.03,0.02,0.07,0.04,0.1c0.12-0.01,0.26-0.02,0.36,0.06
		c0.07,0.06,0.1,0.14,0.09,0.23C62.8,38.12,62.74,38.18,62.66,38.22z"/>
	<path class="st2" d="M64.1,129.15c-0.04-0.1-0.09-0.19-0.15-0.27c-0.15-0.47-0.48-0.89-0.99-0.99c-0.64-0.12-1.12,0.31-1.37,0.86
		c-0.02,0.02-0.04,0.04-0.05,0.05c-0.19,0.21-0.33,0.44-0.42,0.71c-0.18,0.51-0.1,1.11,0.21,1.55c0.32,0.47,0.85,0.79,1.43,0.76
		c0.63-0.03,1.09-0.42,1.29-1c0.09-0.25,0.11-0.53,0.13-0.79C64.2,129.73,64.2,129.42,64.1,129.15z"/>
	<path class="st3" d="M58.56,18.08c-0.54-0.58-1.09-1.15-1.65-1.71c-0.09-0.09-0.19-0.19-0.29-0.28c0.08,0.06,0.16,0.12,0.25,0.16
		c0.13,0.06,0.27-0.04,0.24-0.18c-0.12-0.51-0.59-0.95-0.94-1.31c-0.38-0.38-0.82-0.73-1.26-1.05C54,13.05,53.03,12.5,52,12.06
		c-0.18-0.08-0.31,0.14-0.15,0.26c0.31,0.22,0.62,0.44,0.94,0.65c-1.03-0.44-2.24-0.34-3.13,0.4c-0.86,0.71-1.43,2.05-0.9,3.1
		c0.01,0.03,0.06,0.01,0.06-0.02c0.04-1.3,0.42-2.54,1.82-2.9c1.34-0.34,2.32,0.56,3.27,1.36c0.98,0.83,1.92,1.71,2.83,2.63
		c0.46,0.47,0.92,0.95,1.36,1.44c0.41,0.45,0.83,1.13,1.4,1.37c0.27,0.11,0.57-0.07,0.5-0.38C59.81,19.26,59.04,18.61,58.56,18.08z"
		/>
	<path class="st3" d="M99.97,12.73c-1.03-1.03-3.02-0.74-4.27-0.33c-1.61,0.52-2.85,1.64-4.09,2.74c-1.41,1.25-2.82,2.49-4.23,3.74
		c-0.7,0.63-1.41,1.25-2.1,1.89c-0.57,0.53-1.23,1.05-1.74,1.66c-0.03-0.02-0.06-0.05-0.09-0.06c-2.87-1.19-6.18-1.65-9.26-1.67
		c-3.11-0.02-6.26,0.44-9.19,1.5c-1.64,0.59-3.32,1.3-4.71,2.36c-0.05,0.04-0.02,0.13,0.04,0.11c1.83-0.65,3.6-1.4,5.48-1.91
		c1.9-0.52,3.85-0.84,5.82-0.99c1.94-0.14,3.91-0.09,5.84,0.16c1.97,0.25,3.83,0.79,5.73,1.36c0.31,0.09,0.51-0.09,0.56-0.32
		c0.66-0.38,1.24-0.96,1.82-1.44c0.67-0.56,1.32-1.13,1.98-1.7c1.28-1.12,2.56-2.24,3.84-3.37c1.17-1.03,2.32-2.23,3.74-2.92
		c0.73-0.36,1.55-0.57,2.37-0.61c0.77-0.04,1.41,0.17,2.15,0.35C99.97,13.35,100.21,12.97,99.97,12.73z"/>
	<path class="st3" d="M78.14,29.26c-0.46-0.5-1.3-0.78-1.93-0.97c-0.71-0.21-1.46-0.3-2.2-0.34c-0.74-0.05-1.47-0.03-2.21,0
		c-0.62,0.03-1.42,0.05-1.8,0.62c-0.05,0.07,0.03,0.15,0.1,0.14c1.31-0.2,2.66-0.11,3.98,0.03c0.65,0.07,1.28,0.2,1.9,0.39
		c0.31,0.09,0.61,0.2,0.9,0.34c0.3,0.14,0.57,0.33,0.88,0.45C78.15,30.05,78.39,29.53,78.14,29.26z"/>
	<path class="st3" d="M76.71,25.36c-0.49-0.16-1.02-0.16-1.52-0.08c-0.51,0.08-1,0.27-1.45,0.52c-0.08,0.04-0.93,0.54-0.69,0.7
		c0.11,0.07,0.26-0.01,0.37-0.05c0.19-0.08,0.38-0.17,0.58-0.24c0.42-0.14,0.84-0.26,1.28-0.33c0.4-0.07,0.82-0.07,1.22,0.05
		c0.19,0.06,0.36,0.14,0.52,0.25c0.16,0.11,0.28,0.26,0.49,0.26c0.13,0,0.21-0.1,0.22-0.22C77.76,25.76,77.05,25.47,76.71,25.36z"/>
	<path class="st3" d="M63.54,25.53c-0.19-0.12-0.39-0.23-0.59-0.33c-0.39-0.19-0.8-0.34-1.23-0.38c-0.35-0.03-0.76-0.01-1.08,0.15
		c-0.27,0.13-0.66,0.35-0.73,0.66c-0.01,0.06,0.04,0.12,0.1,0.1c0.14-0.05,0.24-0.13,0.37-0.2c0.14-0.07,0.28-0.11,0.43-0.14
		c0.31-0.05,0.61-0.08,0.92-0.02c0.36,0.07,0.7,0.2,1.02,0.37c0.17,0.09,0.34,0.18,0.5,0.28c0.17,0.1,0.35,0.25,0.55,0.16
		c0.08-0.03,0.16-0.1,0.15-0.2C63.94,25.74,63.74,25.64,63.54,25.53z"/>
	<path class="st3" d="M64.02,28.14c-0.02-0.16-0.11-0.36-0.3-0.39c-0.55-0.1-1.15-0.05-1.71-0.03c-0.59,0.02-1.19,0.07-1.77,0.14
		c-0.56,0.07-1.13,0.15-1.67,0.3c-0.42,0.12-0.78,0.26-1,0.66c-0.02,0.03,0.01,0.08,0.05,0.07c0.43-0.14,0.89-0.17,1.33-0.2
		c0.51-0.04,1.02-0.07,1.53-0.1s1.02-0.05,1.54-0.06c0.5-0.01,1.05-0.07,1.54,0.01l-0.02-0.02c0.04,0.01,0.07,0.03,0.11,0.03
		c0.18-0.01,0.39-0.16,0.37-0.37C64.02,28.16,64.02,28.15,64.02,28.14z"/>
	<path class="st3" d="M109.34,64.32c0-1.33,0.1-2.65,0.15-3.98c0.05-1.38-0.03-2.76-0.22-4.13c-0.18-1.33-0.45-2.65-0.73-3.97
		c-0.26-1.26-0.46-2.57-0.86-3.8c-0.4-1.24-1.02-2.39-1.49-3.61c-0.45-1.19-0.86-2.4-1.36-3.57c-0.9-2.13-2.24-4.66-4.5-5.58
		c-0.17-0.07-0.31,0.19-0.18,0.3c0.85,0.72,1.66,1.46,2.3,2.38c0.64,0.93,1.13,1.96,1.53,3.02c0.44,1.16,0.79,2.34,1.19,3.51
		s0.91,2.29,1.32,3.45c0.41,1.16,0.62,2.38,0.88,3.58c0.28,1.31,0.57,2.61,0.78,3.93c0.21,1.28,0.32,2.56,0.31,3.86
		c-0.01,1.32-0.13,2.64-0.14,3.96c-0.03,3,0.25,6.01,0.65,8.98c0.07,0.55,0.93,0.58,0.89,0C109.65,69.88,109.34,67.11,109.34,64.32z
		"/>
	<path class="st3" d="M97.45,33.96c-0.19-0.3-0.52-0.51-0.8-0.73c-0.3-0.24-0.61-0.47-0.93-0.7c-0.62-0.45-1.27-0.88-1.93-1.27
		c-0.65-0.38-1.32-0.72-1.99-1.04c-0.69-0.33-1.41-0.69-2.17-0.83c-0.24-0.05-0.38,0.26-0.17,0.4c0.62,0.41,1.33,0.68,1.98,1.03
		c0.66,0.35,1.31,0.73,1.94,1.12c0.62,0.38,1.23,0.78,1.82,1.2c0.31,0.22,0.62,0.46,0.92,0.69c0.29,0.23,0.56,0.51,0.91,0.65
		C97.34,34.62,97.61,34.22,97.45,33.96z"/>
	<path class="st3" d="M54.38,27.19c-0.97,0.36-1.93,0.83-2.76,1.45c-0.41,0.31-0.79,0.64-1.15,1c-0.18,0.18-0.36,0.36-0.53,0.55
		c-0.16,0.17-0.3,0.3-0.28,0.54c0,0.01,0.01,0.02,0.02,0.02c0.21,0,0.31-0.1,0.46-0.24c0.18-0.16,0.37-0.32,0.56-0.47
		c0.39-0.31,0.82-0.59,1.25-0.85c0.84-0.52,1.7-0.97,2.63-1.3C55.01,27.74,54.82,27.03,54.38,27.19z"/>
	<path class="st3" d="M56.13,32.48c-1.6-0.1-3.29,0.05-4.78,0.69c-1.44,0.61-2.67,1.59-3.81,2.64c-2.26,2.06-4.66,4.36-5.56,7.38
		c-0.46,1.55-0.43,3.33,0.37,4.78c0.01,0.01,0.02,0,0.02-0.01c-0.29-0.95-0.39-1.83-0.3-2.82c0.09-0.99,0.34-1.99,0.75-2.9
		c0.77-1.72,2.04-3.17,3.37-4.49c1.31-1.3,2.67-2.64,4.27-3.58c0.86-0.51,1.79-0.84,2.77-1.04c0.97-0.2,1.96-0.27,2.93-0.44
		C56.28,32.66,56.24,32.49,56.13,32.48z"/>
	<path class="st3" d="M85.94,39.31c-0.76-0.96-1.71-1.77-2.79-2.34c-1.2-0.63-2.45-0.91-3.76-1.19c-0.02,0-0.03,0.02-0.01,0.03
		c2.06,0.87,4.25,1.74,5.77,3.46c0.73,0.82,1.31,1.81,1.56,2.89c0.17,0.7,0.15,1.38,0.02,2.05c-0.11-0.02-0.23,0.05-0.24,0.17
		c-0.08,1.52-0.71,2.81-1.45,4.11c-0.39,0.68-0.77,1.36-1.14,2.05c-0.4,0.74-0.73,1.51-1.12,2.26c-0.01,0.02,0.02,0.04,0.04,0.02
		c0.48-0.76,1.02-1.47,1.49-2.24c0.45-0.73,0.89-1.46,1.32-2.2c0.48-0.82,0.99-1.72,1.19-2.66C88.13,43.74,87.29,41.03,85.94,39.31z
		"/>
	<path class="st3" d="M66.73,30.36c-1.12-0.15-2.27-0.26-3.41-0.19c-0.09,0.01-0.12,0.14-0.02,0.16c1.11,0.21,2.27,0.24,3.4,0.22
		C66.81,30.56,66.84,30.38,66.73,30.36z"/>
	<path class="st3" d="M47.44,33.17c-0.97,0.66-1.7,1.67-2.43,2.57c-0.76,0.94-1.48,1.9-2.17,2.89c-1.37,1.95-2.77,4-3.68,6.22
		c-1.01,2.46-0.73,5.09-0.63,7.68s0.26,5.19,0.18,7.78c-0.05,1.45-0.18,2.9-0.53,4.31c-0.33,1.32-1.01,2.7-0.63,4.08
		c0.03,0.13,0.12,0.2,0.23,0.23c0.03,0.24,0.06,0.49,0.1,0.73c0.13,0.79,0.22,1.65,0.56,2.39c0.07,0.16,0.28,0.06,0.29-0.08
		c0.06-0.46-0.01-0.92-0.07-1.38c-0.05-0.44-0.13-0.89-0.23-1.32c-0.06-0.25-0.12-0.5-0.18-0.75c0-1.26,0.46-2.36,0.79-3.56
		c0.32-1.18,0.51-2.41,0.59-3.63c0.16-2.47,0.01-4.96-0.09-7.44c-0.05-1.3-0.11-2.59-0.17-3.89c-0.06-1.27-0.08-2.56,0.25-3.8
		c0.31-1.19,0.88-2.29,1.46-3.37c0.56-1.04,1.14-2.07,1.77-3.07c0.7-1.11,1.44-2.19,2.21-3.25c0.8-1.09,1.8-2.11,2.43-3.31
		C47.49,33.19,47.46,33.16,47.44,33.17z"/>
	<path class="st3" d="M51.4,125.49c-1.76-1.84-4.44-2.5-6.54-3.84c-2.32-1.48-4.18-3.76-5.97-5.83c-1.78-2.05-3.24-4.3-4.13-6.88
		c-0.85-2.48-1.15-5.06-1.16-7.67c0-1.53,0.19-3.02,0.48-4.52c0.14-0.75,0.3-1.5,0.4-2.26c0.12-0.83,0-1.63-0.05-2.46
		c0-0.04-0.06-0.04-0.06,0c0.01,0.8-0.23,1.58-0.39,2.36c-0.15,0.73-0.34,1.46-0.52,2.19c-0.33,1.31-0.58,2.62-0.72,3.97
		c-0.29,2.61,0.02,5.29,0.76,7.81c0.76,2.58,2.03,4.93,3.7,7.03c0.91,1.15,1.91,2.22,2.91,3.3c0.96,1.04,1.97,2.06,3.09,2.93
		c1.2,0.93,2.54,1.58,3.91,2.22c1.36,0.64,2.63,1.34,3.83,2.25C51.3,126.36,51.69,125.79,51.4,125.49z"/>
	<path class="st3" d="M36.12,119.43c-0.31-0.45-0.5-0.94-0.51-1.49c-0.01-0.48,0.1-0.91,0.36-1.31c0.12-0.18,0.26-0.34,0.43-0.49
		c0.18-0.16,0.42-0.24,0.58-0.41c0.23-0.25,0.08-0.72-0.29-0.7c-0.57,0.03-1.12,0.61-1.43,1.05c-0.35,0.5-0.54,1.12-0.51,1.73
		c0.03,0.62,0.28,1.24,0.7,1.7c0.51,0.55,1.17,0.95,1.72,1.46c0.02,0.02,0.05-0.01,0.03-0.03
		C36.81,120.46,36.46,119.93,36.12,119.43z"/>
	<path class="st3" d="M90.49,102.29c-0.07-0.34-0.52-0.27-0.62,0c-0.41,1.08-0.32,2.3-0.74,3.41c-0.39,1.03-1.11,1.89-1.91,2.62
		c-1.67,1.5-3.74,2.48-5.34,4.07c-0.83,0.83-1.56,1.74-2.55,2.39c-0.95,0.63-2.01,1.09-3.04,1.58c-2.07,0.98-4.15,1.94-6.17,3.01
		c-1.14,0.6-2.25,1.24-3.33,1.94c-1.04,0.68-2.15,1.42-2.95,2.39c-0.04,0.04,0.01,0.11,0.06,0.08c1.09-0.53,2.1-1.24,3.14-1.85
		c1-0.58,2.02-1.13,3.05-1.66c2.13-1.08,4.31-2.06,6.48-3.06c1.09-0.51,2.21-1,3.21-1.67c0.97-0.65,1.71-1.49,2.51-2.33
		c1.64-1.7,3.81-2.7,5.56-4.27c0.88-0.79,1.64-1.72,2.09-2.83C90.41,104.99,90.74,103.51,90.49,102.29z"/>
	<path class="st3" d="M94.86,98.24c-0.06-0.85-0.11-1.74-0.41-2.54c-0.05-0.14-0.24-0.12-0.25,0.03c-0.05,0.84,0.06,1.67,0.07,2.51
		c0.02,0.84,0,1.68-0.04,2.53c-0.08,1.68-0.14,3.4-0.47,5.06c-0.28,1.42-0.81,2.75-1.52,4c-0.34,0.6-0.71,1.18-1.13,1.72
		c-0.43,0.55-0.97,0.99-1.38,1.55c-0.03,0.05,0.03,0.09,0.07,0.07c0.64-0.31,1.13-0.85,1.62-1.36c0.5-0.52,0.95-1.07,1.35-1.68
		c0.8-1.21,1.36-2.61,1.65-4.02c0.35-1.67,0.46-3.43,0.49-5.14C94.94,100.07,94.93,99.15,94.86,98.24z"/>
	<path class="st3" d="M125.51,104.91c-0.52-0.86-1.18-1.62-1.87-2.34c0.28,0,0.59-0.21,0.56-0.52c-0.08-0.78-0.33-1.56-0.55-2.31
		c-0.22-0.78-0.45-1.55-0.71-2.32c-0.5-1.51-1.1-2.99-1.85-4.4c-0.74-1.4-1.67-2.69-2.73-3.87c-1.13-1.26-2.34-2.43-3.39-3.76
		c-1.17-1.47-2.06-3.13-2.91-4.79c-0.02-0.03-0.06-0.01-0.06,0.02c0.64,3.2,2.52,5.88,4.66,8.26c1.11,1.23,2.15,2.46,3,3.9
		c0.72,1.22,1.29,2.52,1.79,3.85c-0.02,0.13-0.05,0.27-0.06,0.41c-0.02,0.21-0.03,0.42-0.06,0.63c-0.06,0.34-0.17,0.64-0.37,0.91
		c-0.25-0.19-0.49-0.39-0.71-0.6c-0.12-0.11-0.33,0.04-0.24,0.18c0.21,0.32,0.45,0.61,0.7,0.88c0.02,0.18,0.19,0.33,0.37,0.33
		c0.07,0.07,0.14,0.13,0.22,0.19c0.04,0.12,0.09,0.23,0.18,0.33c0.09,0.11,0.25,0.12,0.38,0.08c0.19,0.12,0.37,0.26,0.57,0.36
		c0.07,0.03,0.14,0.06,0.2,0.09c0.14,0.54,0.29,1.08,0.48,1.6c-0.23-0.23-0.46-0.46-0.69-0.69c-0.6-0.61-1.2-1.23-1.71-1.91
		c-0.46-0.63-1.11-1.46-1.28-2.22c-0.01-0.04-0.07-0.02-0.07,0.02c0.07,0.41,0.05,0.81,0.16,1.22c0.08,0.3,0.2,0.59,0.33,0.88
		c0.31,0.65,0.73,1.26,1.18,1.82c0.94,1.19,2.08,2.2,2.97,3.43c0.71,0.98,1.16,2.02,1.33,3.16c-0.02,0-0.05,0.01-0.04,0.04
		c0.03,0.09,0.05,0.18,0.07,0.27c0.02,0.18,0.03,0.37,0.03,0.56c-0.01,0.23-0.05,0.46-0.09,0.67c-0.09,0.46-0.24,0.92-0.46,1.33
		c-0.21,0.4-0.44,0.78-0.71,1.14c-0.28,0.36-0.61,0.67-0.9,1.03c-0.27,0.34-0.51,0.73-0.52,1.18c-0.01,0.4,0.18,0.81,0.61,0.88
		c0.41,0.07,0.72-0.23,0.94-0.54c0.03,0.01,0.05,0.01,0.08,0.01c0.13,0.14,0.32,0.2,0.52,0.06c0.47,0.16,0.88-0.32,0.99-0.76
		c-0.01,0-0.01,0-0.02,0c0.01-0.03,0.03-0.06,0.03-0.1c0-0.14-0.08-0.23-0.18-0.29c0.12-0.29,0.23-0.59,0.31-0.88
		c0.23-0.84,0.37-1.72,0.45-2.59C126.61,108.07,126.38,106.37,125.51,104.91z"/>
	<path class="st3" d="M92.79,86.29c-0.1-0.93-0.27-1.85-0.49-2.76c-0.44-1.82-1-3.63-1.9-5.29c-0.92-1.71-2.08-3.29-3.19-4.88
		c-0.58-0.84-1.18-1.67-1.78-2.49c-0.5-0.68-0.99-1.57-1.7-2.06c-0.03-0.02-0.07,0.02-0.07,0.05c0.21,0.89,0.89,1.72,1.37,2.49
		c0.5,0.8,1.01,1.6,1.52,2.39c1,1.54,2.09,3.04,2.98,4.66c0.89,1.61,1.45,3.38,1.92,5.15c0.23,0.87,0.44,1.75,0.59,2.64
		c0.08,0.51,0.14,1.03,0.18,1.55c0.03,0.43,0,0.88,0.1,1.3c0.06,0.23,0.36,0.2,0.43,0C93.04,88.22,92.88,87.13,92.79,86.29z"/>
	<path class="st3" d="M64.11,131.43c-0.09-0.21-0.45-0.2-0.54,0c-0.01,0.02-0.02,0.04-0.03,0.06c0.02-0.03,0.02-0.02-0.01,0.02
		c-0.03,0.05-0.05,0.09-0.09,0.14c0.04-0.05-0.04,0.04-0.04,0.04s-0.04,0.04-0.05,0.05c-0.13,0.09-0.29,0.11-0.47,0.11
		c-0.2,0.01-0.41,0.01-0.61-0.03c-0.19-0.03-0.33-0.09-0.48-0.2c-0.27-0.2-0.45-0.5-0.53-0.83c-0.05-0.21-0.06-0.43-0.05-0.65
		c0.01-0.24,0.02-0.47,0.06-0.71c0.01-0.04-0.04-0.07-0.07-0.03c-0.12,0.18-0.24,0.36-0.31,0.56s-0.11,0.42-0.12,0.63
		c-0.03,0.4,0.08,0.81,0.27,1.16c0.2,0.36,0.55,0.63,0.94,0.75c0.23,0.07,0.47,0.1,0.71,0.11c0.23,0.02,0.46,0.02,0.68-0.04
		c0.24-0.05,0.47-0.18,0.63-0.37c0.09-0.1,0.16-0.23,0.19-0.37C64.21,131.7,64.17,131.57,64.11,131.43z"/>
	<path class="st3" d="M65.65,132.07c-0.01-0.04-0.06-0.05-0.09-0.02c-0.19,0.17-0.27,0.41-0.36,0.64c-0.04,0.1-0.06,0.2-0.1,0.3
		c-0.05,0-0.09,0.02-0.12,0.07c-0.54,1-0.51,2.24-1.21,3.17c-0.3,0.41-0.72,0.66-1.19,0.83c-0.23,0.08-0.48,0.14-0.71,0.21
		c-0.25,0.08-0.51,0.12-0.72,0.27c-0.06,0.04-0.08,0.15,0,0.18c0.49,0.22,1.15,0.1,1.65-0.03c0.57-0.14,1.11-0.45,1.49-0.9
		c0.54-0.64,0.79-1.48,0.9-2.32c0.08-0.3,0.15-0.61,0.22-0.91c0.06-0.26,0.13-0.52,0.18-0.78C65.63,132.55,65.7,132.31,65.65,132.07
		z"/>
	
		<linearGradient id="SVGID_1_" gradientUnits="userSpaceOnUse" x1="80.0965" y1="12.1674" x2="58.1733" y2="25.8794" gradientTransform="matrix(1 0 0 -1 0 149.8898)">
		<stop  offset="0" style="stop-color:#A35E26"/>
		<stop  offset="0.3854" style="stop-color:#C77639;stop-opacity:0.6146"/>
		<stop  offset="1" style="stop-color:#FC9956;stop-opacity:0"/>
	</linearGradient>
	<path class="st4" d="M62.57,139.98c1.09,0.1,2.33,0.03,3.07-0.78c0.45-0.49,0.63-1.17,0.79-1.82c0.59-2.37,1.19-4.73,1.78-7.1
		c0.27-1.06,0.54-2.14,1.16-3.04c0.88-1.28,2.34-2.02,3.7-2.78c1.36-0.77,2.75-1.71,3.32-3.16c-2.48,0.86-4.95,1.75-7.4,2.68
		c-0.44,0.17-0.9,0.34-1.25,0.65c-0.32,0.28-0.55,0.65-0.75,1.02c-1.23,2.33-1.48,5.04-1.6,7.68c-0.04,0.81-0.07,1.64-0.33,2.41
		s-0.79,1.49-1.56,1.77c-0.94,0.34-4.33-0.97-4.73,0.01C58.16,139.02,61.75,139.9,62.57,139.98z"/>
	
		<linearGradient id="SVGID_00000163055063826719479280000007938337855091913124_" gradientUnits="userSpaceOnUse" x1="101.6413" y1="89.4353" x2="-3.1534" y2="35.1349" gradientTransform="matrix(1 0 0 -1 0 149.8898)">
		<stop  offset="0" style="stop-color:#A35E26"/>
		<stop  offset="0.3854" style="stop-color:#C77639;stop-opacity:0.6146"/>
		<stop  offset="1" style="stop-color:#FC9956;stop-opacity:0"/>
	</linearGradient>
	<path style="fill:url(#SVGID_00000163055063826719479280000007938337855091913124_);" d="M38.35,87.8
		c-0.19,2.13-0.39,4.27-0.58,6.4c-0.29,3.19-0.15,6.22,1.4,9.11c1.74,3.23,4.69,5.53,7.61,7.63c1.44,1.04,2.92,2.04,4.41,3
		c1.37,0.88,3.09,1.62,4.33,2.68c2.28,1.95,4.26,3.87,7,5.27c0.45,0.23,0.94,0.45,1.45,0.41c0.34-0.03,0.65-0.17,0.95-0.32
		c6.39-3.03,12.32-6.93,18.08-11.03c1.78-1.26,3.58-2.58,4.88-4.33c1.89-2.54,2.58-5.82,2.44-8.98s-1.06-6.23-2.12-9.21
		c-4.81-13.44-12.78-25.57-17.75-38.95c-0.7-1.87-1.44-3.91-3.12-4.99c-0.79-0.51-1.72-0.75-2.64-0.94c-3.9-0.8-7.98-0.73-11.86,0.2
		c-2.52,0.61-5.1,1.7-6.52,3.86c-0.75,1.16-1.1,2.52-1.43,3.86c-1.51,6.13-2.8,12.31-3.87,18.52C39.98,75.9,38.9,81.85,38.35,87.8z"
		/>
	
		<linearGradient id="SVGID_00000124143035620097924530000009208965623875124619_" gradientUnits="userSpaceOnUse" x1="99.6231" y1="18.61" x2="90.1781" y2="47.8778" gradientTransform="matrix(1 0 0 -1 0 149.8898)">
		<stop  offset="0" style="stop-color:#A35E26"/>
		<stop  offset="0.3854" style="stop-color:#C77639;stop-opacity:0.6146"/>
		<stop  offset="1" style="stop-color:#FC9956;stop-opacity:0"/>
	</linearGradient>
	<path style="fill:url(#SVGID_00000124143035620097924530000009208965623875124619_);" d="M122.53,114.47
		c0.49-2.41,3.08-4.4,2.46-6.79c-0.47-1.84-2.57-2.64-4.36-3.27c-1.79-0.62-3.85-1.72-3.95-3.61c-3.35,0.86-6.5,2.45-9.18,4.63
		c-1.25,1.02-2.45,2.19-4,2.66c-2.16,0.65-4.7-0.42-5.75-2.42c-2.25,5.96-6,11.34-10.8,15.52c-2.46,2.14-5.71,4.07-8.84,3.12
		c-0.35-0.11-0.71-0.25-1.07-0.21c-0.28,0.03-0.53,0.16-0.78,0.29c-1.58,0.84-3.17,1.67-4.75,2.51c-1.16,0.61-2.41,1.36-3.13,2.49
		c-0.36,0.57-0.37,1.09-0.52,1.72c-0.18,0.73-0.43,1.36-0.45,2.13c-0.03,1.14,0.43,1.18,1.5,1.05c1.18-0.14,2.33-0.51,3.45-0.9
		c6.71-2.35,12.96-5.78,19.17-9.2c3.05-1.68,6.1-3.37,9.22-4.94c3.18-1.6,6.75-2.63,10.18-3.58c3.55-0.98,7.58-1.12,11.24-1.21
		C122.21,114.48,122.53,114.48,122.53,114.47z"/>
	
		<linearGradient id="SVGID_00000028321393817023166810000004309172482701458577_" gradientUnits="userSpaceOnUse" x1="60.5039" y1="58.507" x2="39.5654" y2="26.3549" gradientTransform="matrix(1 0 0 -1 0 149.8898)">
		<stop  offset="0" style="stop-color:#A35E26"/>
		<stop  offset="0.3854" style="stop-color:#C77639;stop-opacity:0.6146"/>
		<stop  offset="1" style="stop-color:#FC9956;stop-opacity:0"/>
	</linearGradient>
	<path style="fill:url(#SVGID_00000028321393817023166810000004309172482701458577_);" d="M60.38,125.54
		c0.1-0.42,0.23-0.87,0.6-1.09c0.67-0.4,1.64,0.3,2.28-0.15c0.45-0.32,0.41-1.05,0.06-1.48s-0.9-0.64-1.41-0.84
		c-7.21-2.8-13.3-7.83-19.25-12.77c-1-0.83-1.76-1.44-2.47-2.55c-0.72-1.14-1.32-2.34-1.82-3.59c-1-2.54-1.52-5.27-1.51-8
		c0.01-2.1,0.34-4.18,0.66-6.25c-1.5,3.89-2.11,8.06-2.49,12.21c-0.18,1.98-0.3,4.02,0.32,5.91c0.03,0.09,0.07,0.18,0.15,0.22
		c0.17,0.08,0.33-0.12,0.5-0.19c0.24-0.1,0.52,0.1,0.62,0.34s0.08,0.51,0.08,0.77c0,2.37,2.04,4.52,3.75,5.93
		c1.95,1.62,4.17,2.95,5.79,4.93c-0.21,0.04-0.42,0.08-0.63,0.12c-0.16,0.49,0.09,1.01,0.36,1.44c1.36,2.11,3.69,3.39,5.27,5.35
		c0.14,0.18,0.28,0.36,0.48,0.48c0.15,0.09,0.31,0.13,0.48,0.18c2.05,0.63,3.35,2.59,4.59,4.35c0.36,0.51,0.79,1.06,1.41,1.13
		c1.12,0.13,1.05-1.7,1.22-2.39C59.73,128.24,60.06,126.89,60.38,125.54z"/>
	
		<linearGradient id="SVGID_00000056422474413837783030000015213817516792736166_" gradientUnits="userSpaceOnUse" x1="91.9873" y1="48.909" x2="18.6819" y2="97.6471" gradientTransform="matrix(1 0 0 -1 0 149.8898)">
		<stop  offset="0" style="stop-color:#A35E26"/>
		<stop  offset="0.3854" style="stop-color:#C77639;stop-opacity:0.6146"/>
		<stop  offset="1" style="stop-color:#FC9956;stop-opacity:0"/>
	</linearGradient>
	<path style="fill:url(#SVGID_00000056422474413837783030000015213817516792736166_);" d="M48.6,105.29c0.41-1.74,1-3.46,0.67-5.2
		c-0.23-1.2-0.87-2.27-1.31-3.4c-1.25-3.18-0.89-6.76-0.22-10.11c0.72-3.63,1.78-7.19,3.17-10.62c0.69-1.72,1.48-3.45,1.56-5.31
		c0.08-1.9-0.59-3.74-1-5.59c-0.64-2.9-0.65-5.91-0.66-8.88c0-3.08-0.01-6.16-0.01-9.25c0-0.44,0.01-0.91,0.24-1.29
		c0.31-0.49,0.91-0.69,1.47-0.85c1.57-0.44,3.17-0.99,4.74-1.38c1.69-0.43,3.92-0.03,5.65,0.09c1.54,0.11,3.17,0.3,4.4,1.24
		c1.11,0.85,1.73,2.19,2.31,3.46c1.32,2.93,2.63,5.86,3.95,8.79c1.18,2.64,2.62,5.22,3.71,7.86c2.19,5.29,5.72,9.88,8.03,15.11
		c1.24,2.82,2.11,5.78,2.97,8.74c0.73,2.5,1.46,5.01,1.94,7.57c0.44,2.33,0.66,4.8-0.17,7.03c-0.89,2.39-2.85,4.18-4.76,5.86
		c-3.07,2.69-6.22,5.31-9.67,7.52c-1.7,1.09-3.47,2.07-5.33,2.88c-0.95,0.42-1.92,0.79-2.91,1.11c-0.6,0.19-1.92,1.04-2.5,0.98
		c-0.14-0.01-0.27-0.09-0.39-0.16c-2.79-1.58-5.57-3.16-8.36-4.74c-3.66-2.07-8.03-4.43-7.83-9.3
		C48.3,106.73,48.44,106.01,48.6,105.29z"/>
	
		<linearGradient id="SVGID_00000052798484388575714120000016810037104732695945_" gradientUnits="userSpaceOnUse" x1="23.4321" y1="86.6837" x2="53.683" y2="86.5281" gradientTransform="matrix(1 0 0 -1 0 149.8898)">
		<stop  offset="0" style="stop-color:#A35E26"/>
		<stop  offset="0.3854" style="stop-color:#C77639;stop-opacity:0.6146"/>
		<stop  offset="1" style="stop-color:#FC9956;stop-opacity:0"/>
	</linearGradient>
	<path style="fill:url(#SVGID_00000052798484388575714120000016810037104732695945_);" d="M42.7,60.03c0.35-1.94,0.7-3.89,0.7-5.85
		s-0.35-3.97-1.32-5.68c0.34,1.67,0.11,3.46-0.65,4.99c-0.37,0.74-0.86,1.48-0.86,2.3c0,0.46,0.16,0.91,0.28,1.35
		c0.69,2.49,0.34,5.15-0.23,7.67c-0.57,2.52-1.35,5.02-1.52,7.6c-0.05,0.77-0.05,1.56-0.23,2.31c-0.15,0.63-0.42,1.23-0.44,1.87
		c-0.02,0.6,0.26,1.38,0.91,1.5c0.5-1.15,0.48-2.55,0.63-3.78c0.16-1.35,0.5-2.67,0.78-4C41.47,66.91,42.08,63.47,42.7,60.03z"/>
	
		<linearGradient id="SVGID_00000006699970433860333210000015125390219583201691_" gradientUnits="userSpaceOnUse" x1="130.5272" y1="69.2368" x2="100.4619" y2="49.9697" gradientTransform="matrix(1 0 0 -1 0 149.8898)">
		<stop  offset="0" style="stop-color:#A35E26"/>
		<stop  offset="0.3854" style="stop-color:#C77639;stop-opacity:0.6146"/>
		<stop  offset="1" style="stop-color:#FC9956;stop-opacity:0"/>
	</linearGradient>
	<path style="fill:url(#SVGID_00000006699970433860333210000015125390219583201691_);" d="M112.42,95.35c1.4-0.72,3.1-0.01,4.45,0.8
		c1.09,0.65,2.13,1.37,3.12,2.16c-0.41-1.31-0.82-2.62-1.23-3.93c-0.11-0.37-0.23-0.74-0.46-1.05c-0.27-0.36-0.67-0.59-1.05-0.84
		c-3.38-2.28-4.84-6.45-6.09-10.33c-0.55,4.63-2.47,8.96-3.64,13.47c-0.28,1.1-0.2,3.86,1.72,3.09
		C110.55,98.2,111.06,96.04,112.42,95.35z"/>
	
		<linearGradient id="SVGID_00000108996578357171332490000017709298865724774835_" gradientUnits="userSpaceOnUse" x1="116.6329" y1="87.8977" x2="90.3957" y2="76.392" gradientTransform="matrix(1 0 0 -1 0 149.8898)">
		<stop  offset="0" style="stop-color:#A35E26"/>
		<stop  offset="0.3854" style="stop-color:#C77639;stop-opacity:0.6146"/>
		<stop  offset="1" style="stop-color:#FC9956;stop-opacity:0"/>
	</linearGradient>
	<path style="fill:url(#SVGID_00000108996578357171332490000017709298865724774835_);" d="M95.87,98.37
		c-0.06-1.35-0.25-2.84-1.25-3.75c-1.06-0.98-2.84-1.1-3.57-2.34c1.08,0.08,2.06-0.75,2.49-1.74s0.39-2.12,0.29-3.19
		c-0.42-4.5-2.08-8.84-4.64-12.55c-1.3-1.89-2.83-3.61-4.56-5.11c-1.6-1.39-3.21-3.65-2.84-5.93c0.15-0.89,0.62-1.69,1.08-2.47
		c1.91-3.23,3.72-6.55,4.98-10.1c1.04-2.93,1.69-6.03,1.66-9.15c-0.03-2.58-0.15-5.21-2.1-7.13c2.34,1.08,3.43,3.61,5.63,4.82
		c2.29,1.27,5.14,0.41,7.74,0.72c0.33,0.04,0.68,0.11,0.88,0.38c0.14,0.19,0.17,0.44,0.2,0.68c0.13,1.47,0.08,2.96-0.16,4.41
		c-0.19,1.17-0.5,2.32-0.51,3.51c-0.01,1.18,0.34,2.44,1.24,3.21c0.43,0.37,0.95,0.6,1.37,0.97c1.4,1.25,1.16,3.47,0.68,5.29
		c-1.49,5.62-4.17,10.95-4.8,16.73c-0.06,0.56-0.1,1.15,0.12,1.68s0.77,0.95,1.32,0.84c0.47-0.09,0.79-0.51,1.1-0.88
		c1.38-1.69,3.24-2.98,5.31-3.66c0.43-0.14,1.31,6.3,1.31,6.9c-0.01,2.01-0.74,4.12-1.64,5.9c-2.68,5.3-6.32,10.11-8.6,15.6
		c1.14,0.07,2.28,0.13,3.41,0.2c0.95,0.06,1.92,0.11,2.86-0.04c0.84-0.13,1.64-0.43,2.43-0.72c2.64-0.97,5.28-1.93,7.92-2.9
		c0.35,0.32-0.03,0.88-0.4,1.18c-2.37,1.98-4.75,3.96-7.21,5.83c-0.55,0.41-1.11,0.83-1.76,1.04c-1.35,0.45-3.21,0-4.34-0.83
		c-1.16-0.85-1.61-1.64-3.3-1.3c-0.6,0.12-1.76,1.12-2.25,0.83C95.18,104.77,95.92,99.42,95.87,98.37z"/>
	
		<linearGradient id="SVGID_00000007427325227159005520000004354736265551551381_" gradientUnits="userSpaceOnUse" x1="62.2801" y1="100.6489" x2="64.3973" y2="117.6573" gradientTransform="matrix(1 0 0 -1 0 149.8898)">
		<stop  offset="5.787037e-04" style="stop-color:#A3A29E"/>
		<stop  offset="0.3118" style="stop-color:#BDBCB7"/>
		<stop  offset="1" style="stop-color:#F2F1EB"/>
	</linearGradient>
	<path style="fill:url(#SVGID_00000007427325227159005520000004354736265551551381_);" d="M57.54,37.15
		c0.11,0.31,0.29,0.64,0.6,0.76c0.17,0.06,0.36,0.05,0.53,0.02c0.98-0.19,1.89-1.05,2.85-0.76c0.27,0.08,0.5,0.25,0.74,0.39
		c1.35,0.76,3.02,0.51,4.53,0.16c0.91-0.21,1.83-0.46,2.6-0.98s1.39-1.35,1.43-2.28c0.04-1.04-0.66-2-1.54-2.53
		c-0.89-0.54-1.94-0.72-2.97-0.82c-1.99-0.2-5.34-0.59-7.01,0.69C57.7,33.04,56.83,35.18,57.54,37.15z"/>
	<g>
		<path d="M43.92,49.15c-2.42,12.11-5.26,24.14-7.01,36.37c-0.42,2.93-0.84,5.89-1.01,8.85c-0.16,2.93,0.03,5.95,1.18,8.69
			c1.99,4.76,6.35,7.87,10.6,10.51c5.33,3.31,10.66,6.64,16.02,9.9c1.1,0.67,2.11-1.06,1.01-1.73c-4.7-2.86-9.34-5.81-14.03-8.68
			c-4.08-2.5-8.61-5.09-11.06-9.37c-1.36-2.37-1.78-5.05-1.76-7.74c0.02-2.93,0.43-5.86,0.83-8.75c0.81-5.94,1.91-11.83,3.08-17.71
			c1.32-6.61,2.77-13.19,4.08-19.8C46.1,48.42,44.18,47.89,43.92,49.15L43.92,49.15z"/>
	</g>
	<g>
		<path d="M64.91,123.31c2.06-1.74,4.55-2.95,6.97-4.13c2.53-1.23,5.12-2.4,7.5-3.93c1.9-1.22,3.41-2.83,5.18-4.2
			c1.37-1.07,2.91-2.22,4.05-3.66c1.87-2.37,2.69-5.24,3.08-8.19c0.07-0.54-0.51-1-1-1c-0.6,0-0.93,0.46-1,1
			c-0.32,2.42-1.02,4.87-2.53,6.83c-1.07,1.38-2.5,2.44-3.82,3.47c-1.65,1.27-3.06,2.8-4.81,3.94c-2.31,1.5-4.83,2.66-7.31,3.86
			c-2.7,1.31-5.41,2.66-7.71,4.61C62.51,122.73,63.93,124.14,64.91,123.31L64.91,123.31z"/>
	</g>
	<g>
		<path d="M45.85,49.68c0.3-1.43,1.2-2.27,2.47-2.9c1.39-0.7,2.9-1.29,4.37-1.78c3.59-1.2,7.5-1.48,11.23-0.8
			c2.15,0.39,4.23,1.08,6.17,2.07c1.14,0.58,2.16-1.14,1.01-1.73c-3.83-1.95-8.14-2.88-12.43-2.66c-3.92,0.2-7.7,1.4-11.22,3.11
			c-1.75,0.85-3.11,2.21-3.52,4.16C43.66,50.4,45.59,50.94,45.85,49.68L45.85,49.68z"/>
	</g>
	<g>
		<path d="M62.39,43.96c1.77,0.28,3.66,0.77,5.04,1.98c0.96,0.85,1.56,1.94,1.95,3.08c0.39,1.16,0.62,2.37,0.99,3.54
			c0.61,1.94,1.78,3.69,2.72,5.47c2.72,5.11,5.33,10.28,7.82,15.51c2.39,5.02,4.76,10.08,6.5,15.36c1.9,5.77,3.04,11.92,2.18,17.99
			c-0.08,0.53,0.13,1.07,0.7,1.23c0.47,0.13,1.15-0.16,1.23-0.7c1.63-11.51-3.06-22.51-7.84-32.7c-2.54-5.42-5.21-10.79-8-16.09
			c-0.68-1.29-1.36-2.58-2.06-3.86c-0.3-0.55-0.62-1.1-0.9-1.66c-0.18-0.35-0.15-0.29-0.28-0.67c-0.42-1.17-0.64-2.41-1.01-3.6
			c-0.48-1.54-1.21-3.03-2.4-4.15c-1.66-1.57-3.89-2.31-6.1-2.66c-0.53-0.08-1.08,0.14-1.23,0.7C61.56,43.2,61.85,43.87,62.39,43.96
			L62.39,43.96z"/>
	</g>
	<g>
		<path d="M58.82,127.42c-0.72,2.4-1.11,4.9-1.12,7.4c-0.01,1.15-0.04,2.46,0.35,3.55c0.41,1.15,1.32,1.8,2.45,2.15
			c1.18,0.37,2.45,0.45,3.68,0.28c1.08-0.15,2.15-0.42,2.72-1.44c0.41-0.73,0.55-1.61,0.72-2.43c0.18-0.91,0.35-1.82,0.52-2.74
			c0.36-1.89,0.67-3.98,1.63-5.67c0.63-1.12-1.1-2.13-1.73-1.01c-0.74,1.31-1.12,2.82-1.44,4.27c-0.36,1.6-0.62,3.22-0.95,4.83
			c-0.11,0.53-0.16,1.46-0.55,1.86c-0.23,0.24-0.72,0.28-1.03,0.33c-0.5,0.09-1.02,0.1-1.53,0.07c-0.74-0.04-2.01-0.18-2.47-0.86
			c-0.5-0.75-0.37-2.01-0.38-2.86c-0.02-2.45,0.34-4.86,1.05-7.21C61.12,126.71,59.2,126.19,58.82,127.42L58.82,127.42z"/>
	</g>
	<g>
		<path d="M58.97,131.41c-0.45-0.16-0.95-0.69-1.32-1.1c-0.54-0.6-1.03-1.25-1.54-1.88c-0.48-0.59-0.96-1.19-1.54-1.69
			c-0.63-0.54-1.27-0.83-2.05-1.08c-4.49-1.47-9.07-2.87-13.83-3c-1.29-0.03-1.29,1.97,0,2c4.66,0.13,9.13,1.56,13.53,3
			c1.23,0.4,2.11,1.72,2.95,2.76c0.91,1.14,1.86,2.4,3.28,2.91C59.65,133.78,60.17,131.85,58.97,131.41L58.97,131.41z"/>
	</g>
	<g>
		<path d="M38.68,122.67c-0.42,0-0.84-0.01-1.25-0.04c-0.29-0.02,0.04,0.02-0.13-0.01c-0.1-0.02-0.2-0.04-0.31-0.06
			c-0.07-0.02-0.15-0.04-0.22-0.06c-0.06-0.02-0.35-0.15-0.11-0.03c-0.09-0.05-0.17-0.09-0.26-0.14c-0.23-0.13,0.02,0.04-0.09-0.07
			c-0.04-0.04-0.24-0.29-0.09-0.08c-0.06-0.09-0.11-0.18-0.16-0.28c-0.1-0.19,0.03,0.12-0.03-0.08c-0.04-0.12-0.07-0.25-0.09-0.37
			c0.03,0.16-0.01-0.24-0.02-0.28c0-0.17,0-0.33,0.01-0.5c0.04-0.57,0.14-1.05,0.02-1.63c-0.09-0.46-0.25-0.89-0.36-1.34
			c-0.03-0.12-0.05-0.24-0.07-0.37c0.03,0.21-0.01-0.09-0.01-0.11c-0.01-0.13-0.01-0.26,0-0.39c0.01-0.12,0.01-0.13,0-0.03
			c0.01-0.07,0.03-0.13,0.05-0.2c0.13-0.48,0.61-0.98,1.11-1.33c0.44-0.31,0.65-0.87,0.36-1.37c-0.26-0.44-0.92-0.67-1.37-0.36
			c-1.15,0.8-2.05,1.84-2.15,3.28c-0.07,0.92,0.29,1.79,0.5,2.66c0.01,0.05,0.02,0.1,0.03,0.15c0-0.01-0.02-0.19-0.01-0.08
			c0,0.08,0,0.17,0.01,0.25c0-0.02,0.04-0.25,0.01-0.05c-0.01,0.07-0.02,0.15-0.03,0.22c-0.03,0.23-0.06,0.45-0.08,0.68
			c-0.04,0.55,0,1.15,0.16,1.68c0.31,0.97,0.99,1.64,1.93,2c0.83,0.32,1.77,0.32,2.65,0.32C39.97,124.67,39.97,122.67,38.68,122.67
			L38.68,122.67z"/>
	</g>
	<g>
		<path d="M40.67,117.99c-1.98-2.12-3.92-4.31-5.34-6.86c-1.5-2.69-2.09-5.59-2-8.67c0.1-3.3,0.68-6.62,1.41-9.83
			c0.73-3.2,1.75-6.32,2.55-9.51c0.8-3.21,1.28-6.47,1.71-9.75c0.1-0.79,0.14-1.57-0.01-2.35c-0.14-0.75-0.43-1.46-0.63-2.19
			c-0.43-1.57,0.06-2.91,0.48-4.43c0.44-1.6,0.45-3.24,0.48-4.89c0.03-1.56-0.07-3.1-0.19-4.66c-0.21-2.54-0.27-5.14,0.26-7.65
			c0.28-1.32,0.71-2.6,1.49-3.71c0.92-1.32,1.71-2.72,2.57-4.09c1.64-2.6,3.5-5.03,5.54-7.33c0.85-0.96-0.56-2.38-1.41-1.41
			c-1.92,2.15-3.7,4.42-5.28,6.83c-0.78,1.19-1.52,2.41-2.24,3.64c-0.68,1.16-1.47,2.16-1.97,3.43c-0.96,2.45-1.16,5.21-1.1,7.81
			c0.03,1.46,0.2,2.9,0.29,4.35c0.11,1.66,0.09,3.34-0.01,5c-0.1,1.67-0.8,3.18-1.04,4.82c-0.24,1.64,0.33,3.01,0.73,4.57
			c0.19,0.74,0.14,1.48,0.04,2.23c-0.11,0.87-0.22,1.74-0.35,2.62c-0.24,1.67-0.54,3.34-0.9,4.99c-0.73,3.32-1.81,6.55-2.63,9.86
			c-0.82,3.32-1.43,6.72-1.71,10.12c-0.29,3.61,0.13,7.12,1.75,10.39c1.51,3.04,3.78,5.63,6.09,8.09
			C40.14,120.34,41.55,118.93,40.67,117.99L40.67,117.99z"/>
	</g>
	<g>
		<path d="M99.79,35.8c4.29,4.12,6.47,9.92,7.84,15.59c0.82,3.4,1.2,6.88,1.31,10.37c0.05,1.75,0.04,3.51-0.01,5.27
			c-0.06,1.73-0.22,3.47-0.17,5.21c0.05,1.9,0.51,3.73,0.93,5.57c0.4,1.77,0.71,3.57,0.22,5.35c-0.34,1.24,1.59,1.77,1.93,0.53
			c0.96-3.46-0.57-6.74-0.98-10.14c-0.22-1.77-0.04-3.56,0.03-5.33c0.08-1.83,0.12-3.67,0.08-5.5c-0.12-6.79-1.3-13.57-4.03-19.82
			c-1.38-3.15-3.23-6.12-5.72-8.52C100.27,33.5,98.86,34.91,99.79,35.8L99.79,35.8z"/>
	</g>
	<g>
		<path d="M118.31,97.37c0.86,1.29,1.73,2.58,2.71,3.78c0.92,1.12,2,2.06,3,3.11c0.95,1,1.55,2.09,1.62,3.49
			c0.07,1.39-0.1,2.82-0.23,4.2c-0.05,0.55-0.08,1.27-0.39,1.75c-0.31,0.49-1.03,0.23-1.49,0.15c-1.56-0.25-3.19-0.2-4.77-0.14
			c-3.17,0.11-6.34,0.57-9.42,1.34c-6.08,1.54-11.55,4.58-17.07,7.44c-2.02,1.04-4.06,2.02-6.06,3.1c-1.96,1.07-3.91,2.17-5.88,3.21
			c-2.27,1.2-4.57,2.36-6.96,3.27c-1.94,0.74-4.02,1.43-6.11,1.32c-1.29-0.07-1.28,1.93,0,2c1.95,0.11,3.92-0.43,5.74-1.06
			c2.28-0.79,4.47-1.82,6.62-2.91c4.05-2.05,7.97-4.34,12.03-6.37c5.75-2.89,11.3-6.21,17.56-7.9c3.2-0.87,6.5-1.36,9.81-1.46
			c1.59-0.05,3.15-0.03,4.72,0.2c0.74,0.11,1.48,0.12,2.14-0.29c0.6-0.37,0.97-0.97,1.18-1.62c0.5-1.53,0.47-3.34,0.56-4.94
			c0.1-1.71-0.1-3.43-1.09-4.87c-0.91-1.34-2.19-2.34-3.28-3.52c-1.22-1.32-2.22-2.82-3.21-4.31
			C119.32,95.29,117.59,96.29,118.31,97.37L118.31,97.37z"/>
	</g>
	<g>
		<path d="M125.17,103.3c0.31-2.02-0.13-4.12-0.7-6.05c-0.64-2.14-1.62-4.11-2.85-5.97c-1.43-2.17-3.17-4.02-4.91-5.94
			c-1.66-1.83-2.95-4.04-4.06-6.24c-1.26-2.5-2.09-5.2-1.91-8.02c0.08-1.29-1.92-1.28-2,0c-0.3,4.95,2.19,9.75,4.96,13.69
			c1.44,2.06,3.37,3.72,4.91,5.71c1.39,1.8,2.69,3.79,3.49,5.93c0.4,1.09,0.73,2.22,0.95,3.36c0.19,0.96,0.36,2.02,0.21,2.99
			c-0.08,0.53,0.14,1.08,0.7,1.23C124.41,104.12,125.09,103.83,125.17,103.3L125.17,103.3z"/>
	</g>
	<g>
		<path d="M49.16,31.37c0.2-4.89,0.17-9.78,0.33-14.67c0.03-0.92-0.16-2.2,0.57-2.9c0.58-0.55,1.44-0.72,2.2-0.54
			c1.05,0.25,1.87,0.95,2.57,1.74c0.77,0.86,1.51,1.74,2.22,2.65c0.73,0.94,1.44,1.9,2.19,2.83c0.79,0.98,1.58,1.97,2.22,3.06
			c0.65,1.11,2.38,0.1,1.73-1.01c-1.22-2.08-2.9-3.92-4.37-5.84c-1.5-1.96-3.14-4.35-5.56-5.22c-2.13-0.77-4.91,0.15-5.55,2.48
			c-0.34,1.24-0.22,2.68-0.26,3.95c-0.04,1.4-0.06,2.8-0.08,4.2c-0.05,3.08-0.08,6.17-0.21,9.25
			C47.11,32.66,49.11,32.65,49.16,31.37L49.16,31.37z"/>
	</g>
	<g>
		<path d="M62.82,23.91c2.94-1.64,6.26-2.52,9.63-2.53c3.6-0.02,7.24,0.92,10.71,1.79c1.25,0.31,1.78-1.61,0.53-1.93
			c-3.71-0.93-7.62-1.92-11.47-1.86c-3.65,0.05-7.24,1.03-10.42,2.8C60.68,22.81,61.69,24.54,62.82,23.91L62.82,23.91z"/>
	</g>
	<g>
		<path d="M83.84,23.46c2.07-2.23,4.46-4.14,6.55-6.36c1.68-1.79,3.61-4.12,6.25-4.32c0.97-0.07,2.02,0.11,2.8,0.72
			c0.99,0.77,1.11,2.07,1.16,3.23c0.12,2.84,0.04,5.7-0.12,8.54c-0.18,3.19-0.48,6.39-0.95,9.55c-0.08,0.53,0.13,1.07,0.7,1.23
			c0.47,0.13,1.15-0.16,1.23-0.7c0.91-6.16,1.42-12.5,1.13-18.73c-0.07-1.53-0.33-3.06-1.4-4.22c-0.88-0.95-2.13-1.44-3.39-1.59
			c-3.01-0.36-5.56,1.48-7.56,3.52c-1.24,1.26-2.42,2.55-3.72,3.75c-1.39,1.29-2.8,2.56-4.09,3.95
			C81.55,22.99,82.96,24.41,83.84,23.46L83.84,23.46z"/>
	</g>
	<g>
		<path d="M85.57,27.7c1.62-2.8,3.36-5.53,5.22-8.18c1.75-2.49,3.68-5.57,6.91-6.17c0.32-0.06,0.18-0.54-0.13-0.48
			c-3.15,0.59-5.07,3.4-6.8,5.83c-2.02,2.82-3.89,5.75-5.63,8.75C84.98,27.72,85.41,27.98,85.57,27.7L85.57,27.7z"/>
	</g>
	<g>
		<path d="M50.14,14.71c2.12,0.66,2.95,2.98,3.79,4.82c0.96,2.12,1.93,4.24,2.89,6.35c0.13,0.29,0.56,0.04,0.43-0.25
			c-1.06-2.32-2.11-4.65-3.17-6.97c-0.82-1.81-1.76-3.79-3.81-4.43C49.97,14.13,49.84,14.61,50.14,14.71L50.14,14.71z"/>
	</g>
	<g>
		<path d="M89.84,29.59c1.29-2.08,2.63-4.13,4.03-6.15c0.72-1.04,1.45-2.07,2.19-3.09c0.37-0.51,0.74-1.03,1.13-1.53
			c0.46-0.59,1.16-0.96,1.55-0.08c0.49,1.11,0.18,2.61,0.02,3.76c-0.17,1.27-0.35,2.53-0.53,3.8c-0.36,2.57-0.72,5.15-1.08,7.72
			c-0.04,0.31,0.44,0.45,0.48,0.13c0.32-2.33,0.65-4.66,0.97-6.98c0.17-1.18,0.33-2.37,0.5-3.55c0.15-1.05,0.34-2.11,0.36-3.17
			c0.02-0.77,0-1.73-0.54-2.36c-0.43-0.5-1.07-0.54-1.59-0.15c-0.7,0.53-1.2,1.46-1.7,2.16c-0.67,0.93-1.34,1.86-1.99,2.8
			c-1.46,2.11-2.87,4.26-4.23,6.44C89.23,29.61,89.67,29.86,89.84,29.59L89.84,29.59z"/>
	</g>
	<g>
		<path d="M50.33,30.25c-0.08-1.91-0.16-3.82-0.24-5.74c-0.04-0.96-0.08-1.91-0.12-2.87c-0.04-0.94-0.15-1.92,0.03-2.85
			c0.1-0.53,0.46-1.35,0.96-0.6c0.22,0.33,0.37,0.73,0.53,1.09c0.43,0.92,0.84,1.85,1.23,2.79c0.71,1.69,1.36,3.41,1.95,5.14
			c0.1,0.3,0.59,0.17,0.48-0.13c-0.7-2.05-1.48-4.08-2.34-6.08c-0.43-0.98-0.82-2.06-1.37-2.98c-0.28-0.47-0.84-0.98-1.39-0.55
			c-0.59,0.47-0.63,1.6-0.65,2.27c-0.02,1.13,0.07,2.27,0.12,3.4c0.1,2.37,0.2,4.74,0.3,7.11C49.84,30.57,50.34,30.57,50.33,30.25
			L50.33,30.25z"/>
	</g>
	<g>
		<path d="M59.09,31.74c-0.84,0.64-1.89,0.7-2.9,0.79c-1,0.09-2.01,0.23-2.99,0.48c-1.95,0.49-3.62,1.46-5.12,2.77
			c-2.85,2.47-5.84,5.65-6.05,9.63c-0.06,1.11,0.15,2.18,0.57,3.2c0.47,1.14,1.11,2.28,0.92,3.56c-0.02,0.16,0.22,0.23,0.24,0.07
			c0.28-1.84-1.01-3.35-1.36-5.08c-0.43-2.13,0.23-4.34,1.35-6.16c1.05-1.71,2.48-3.17,3.95-4.52c1.61-1.48,3.34-2.64,5.48-3.19
			c1.15-0.3,2.33-0.43,3.52-0.54c0.9-0.09,1.8-0.22,2.54-0.78C59.34,31.86,59.22,31.64,59.09,31.74L59.09,31.74z"/>
	</g>
	<g>
		<path d="M71.16,32.88c1.65,1.35,3.75,1.77,5.75,2.35c2.07,0.6,4.15,1.33,5.97,2.51c0.93,0.6,1.79,1.32,2.5,2.17
			c0.91,1.08,1.33,2.28,1.19,3.7c-0.23,2.28-1.35,4.37-2.44,6.34c-1.16,2.09-2.39,4.17-2.95,6.52c-0.04,0.16,0.2,0.22,0.24,0.07
			c1.06-4.41,4.55-7.85,5.32-12.35c0.18-1.05,0.18-2.13-0.28-3.11c-0.45-0.97-1.24-1.82-2.05-2.51c-1.61-1.39-3.57-2.3-5.56-2.99
			c-2.49-0.86-5.42-1.17-7.51-2.88C71.21,32.6,71.04,32.78,71.16,32.88L71.16,32.88z"/>
	</g>
	<g>
		<path d="M72.34,46.88c2.44,1.09,3.22,3.78,3.95,6.12c0.83,2.65,1.74,5.27,2.74,7.87c0.11,0.3,0.6,0.17,0.48-0.13
			c-1.08-2.81-2.05-5.65-2.94-8.52c-0.71-2.27-1.65-4.73-3.97-5.77C72.3,46.32,72.05,46.75,72.34,46.88L72.34,46.88z"/>
	</g>
	<g>
		<path d="M83.23,68.88c1.74,3.32,4.23,6.18,5.91,9.54c1.69,3.37,2.71,7.06,3.03,10.81c0.03,0.32,0.53,0.32,0.5,0
			c-0.31-3.7-1.29-7.32-2.9-10.67c-1.7-3.52-4.29-6.49-6.1-9.94C83.52,68.34,83.09,68.6,83.23,68.88L83.23,68.88z"/>
	</g>
	<g>
		<path d="M93.86,95.07c0.48,6.14,0.63,13.28-4.37,17.76c-0.24,0.22,0.11,0.57,0.35,0.35c5.1-4.56,5.01-11.84,4.52-18.11
			C94.33,94.75,93.83,94.75,93.86,95.07L93.86,95.07z"/>
	</g>
	<g>
		<path d="M60.16,124.14c2.09,0.94,4.49,0.94,6.72,0.63c2.25-0.3,4.42-1.01,6.46-1.99c4.02-1.94,7.76-5.05,10.48-8.58
			c0.4-0.52,0.78-1.07,1.1-1.64c0.29-0.51,0.48-1.12,0.86-1.56c0.44-0.51,1.19-0.72,1.79-0.98c0.67-0.29,1.34-0.58,2.02-0.87
			c0.29-0.13,0.04-0.56-0.25-0.43c-1.04,0.45-2.1,0.85-3.11,1.35c-0.94,0.46-1.21,1.29-1.68,2.15c-1.09,1.99-2.76,3.66-4.41,5.2
			c-3.3,3.08-7.24,5.57-11.69,6.57c-2.57,0.58-5.58,0.82-8.04-0.28C60.12,123.58,59.87,124.01,60.16,124.14L60.16,124.14z"/>
	</g>
	<g>
		<path d="M37.7,102.26c2.86,7.27,8.58,12.89,14.98,17.16c1.96,1.31,3.99,2.51,6.05,3.64c0.28,0.16,0.53-0.28,0.25-0.43
			c-6.81-3.74-13.41-8.34-17.82-14.87c-1.19-1.77-2.2-3.65-2.98-5.63C38.07,101.83,37.58,101.96,37.7,102.26L37.7,102.26z"/>
	</g>
	<g>
		<path d="M63.68,124.1c0.5-0.93,1.24-1.7,2.16-2.22c0.28-0.16,0.03-0.59-0.25-0.43c-0.98,0.57-1.8,1.4-2.34,2.4
			C63.1,124.13,63.53,124.38,63.68,124.1L63.68,124.1z"/>
	</g>
	<g>
		<path d="M41.73,121.28c1.26,1.16,2.84,1.8,4.39,2.47c1.72,0.75,3.33,1.66,4.82,2.81c0.25,0.2,0.5-0.24,0.25-0.43
			c-1.44-1.11-3.01-2.02-4.68-2.75c-1.55-0.68-3.17-1.29-4.42-2.45C41.85,120.71,41.5,121.06,41.73,121.28L41.73,121.28z"/>
	</g>
	<g>
		<path d="M60.95,137.95c1.16,0.34,2.48,0.36,3.4-0.52c0.96-0.91,1.15-2.27,1.28-3.53c0.33-3.18,0.4-6.55,2.31-9.27
			c0.19-0.26-0.25-0.51-0.43-0.25c-1.53,2.17-1.93,4.82-2.18,7.4c-0.13,1.4-0.09,2.99-0.66,4.3c-0.66,1.52-2.1,1.82-3.59,1.38
			C60.78,137.38,60.65,137.86,60.95,137.95L60.95,137.95z"/>
	</g>
	<g>
		<path d="M63.34,127.83c-0.77-0.29-1.55,0.13-2.01,0.75c-0.47,0.63-0.67,1.5-0.42,2.26c0.24,0.71,0.83,1.25,1.59,1.34
			c0.79,0.09,1.46-0.4,1.76-1.11c0.36-0.83,0.3-1.8-0.13-2.59c-0.15-0.28-0.59-0.03-0.43,0.25c0.3,0.55,0.39,1.2,0.23,1.8
			c-0.15,0.55-0.51,1.09-1.11,1.15c-0.59,0.06-1.09-0.29-1.34-0.81c-0.27-0.55-0.18-1.22,0.11-1.75c0.32-0.58,0.95-1.07,1.63-0.81
			C63.51,128.43,63.64,127.95,63.34,127.83L63.34,127.83z"/>
	</g>
	<g>
		<path d="M110.22,85.55c0.41,3.95-2.53,7.23-2.91,11.06c-0.07,0.71-0.11,1.58,0.38,2.17c0.44,0.52,1.1,0.5,1.62,0.11
			c0.38-0.29,0.64-0.7,0.94-1.07c0.31-0.39,0.64-0.76,1-1.11c0.77-0.77,2.23-2.22,3.34-1.21c0.24,0.22,0.59-0.14,0.35-0.35
			c-1.43-1.3-3.19,0.32-4.2,1.36c-0.35,0.36-0.67,0.74-0.98,1.13c-0.31,0.4-0.87,1.34-1.52,0.98c-0.77-0.43-0.46-2-0.33-2.68
			c0.65-3.54,3.2-6.65,2.81-10.38C110.69,85.23,110.19,85.23,110.22,85.55L110.22,85.55z"/>
	</g>
	<g>
		<path d="M58.08,29.55c1.86-0.34,3.76-0.41,5.65-0.23c0.27,0.03,0.5-0.25,0.5-0.5c0-0.29-0.23-0.47-0.5-0.5
			c-1.98-0.18-3.96-0.09-5.91,0.27c-0.27,0.05-0.42,0.37-0.35,0.62C57.54,29.48,57.81,29.6,58.08,29.55L58.08,29.55z"/>
	</g>
	<g>
		<path d="M70.16,29.28c2.55-0.24,5.1,0.1,7.5,1c0.6,0.23,0.86-0.74,0.27-0.96c-2.47-0.92-5.14-1.28-7.77-1.04
			C69.52,28.34,69.51,29.34,70.16,29.28L70.16,29.28z"/>
	</g>
	<path d="M63.55,29.32c-0.65,1.33-1.71,2.15-2.36,1.83c-0.4-0.19-0.49-0.7-0.5-1.1c-0.01-0.52,0.05-1.36,0.61-1.59
		c0.16-0.07,0.33-0.09,0.5-0.1c0.56-0.04,1.13,0,1.68,0.14c0.07,0.02,0.15,0.04,0.21,0.09C63.9,28.75,63.64,29.13,63.55,29.32z"/>
	<path d="M76.81,30.32c-0.55,1.13-1.56,1.77-2.25,1.44c-0.69-0.34-0.81-1.53-0.25-2.66c0.11-0.22,0.21-0.38,0.5-0.42
		c0.59-0.09,1.23,0.19,1.84,0.41c0.12,0.04,0.25,0.09,0.35,0.17C77.29,29.51,76.92,30.09,76.81,30.32z"/>
	<g>
		<path d="M63.6,26.07c-0.94-0.55-2.07-1.14-3.16-0.64c-0.37,0.17-0.91,0.63-0.67,1.09c0.12,0.23,0.39,0.3,0.62,0.35
			c0.3,0.08,0.6,0.13,0.91,0.16c0.37,0.04,0.75,0.05,1.13,0.02c0.32-0.02,0.66-0.05,0.94-0.23c0.13-0.09,0.01-0.31-0.13-0.22
			c-0.28,0.19-0.65,0.19-0.98,0.21c-0.32,0.01-0.64,0-0.96-0.03c-0.34-0.04-0.7-0.1-1.03-0.2c-0.15-0.05-0.31-0.12-0.31-0.3
			c0-0.14,0.1-0.28,0.2-0.37c0.4-0.4,1.04-0.48,1.58-0.38c0.63,0.11,1.19,0.44,1.73,0.76C63.61,26.37,63.74,26.15,63.6,26.07
			L63.6,26.07z"/>
	</g>
	<g>
		<path d="M73.19,26.77c0.65-0.38,1.31-0.77,2.06-0.9c0.64-0.12,1.41-0.02,1.9,0.46c0.12,0.12,0.24,0.29,0.24,0.46
			c0,0.23-0.2,0.31-0.39,0.37c-0.39,0.13-0.82,0.2-1.22,0.24c-0.38,0.04-0.76,0.05-1.14,0.04c-0.39-0.02-0.84-0.02-1.18-0.25
			c-0.13-0.09-0.26,0.13-0.13,0.22c0.28,0.19,0.61,0.23,0.94,0.26c0.39,0.04,0.79,0.04,1.18,0.01c0.36-0.02,0.72-0.07,1.08-0.15
			c0.3-0.06,0.67-0.11,0.91-0.32c0.5-0.42-0.02-1.05-0.42-1.31c-0.5-0.32-1.13-0.39-1.71-0.31c-0.82,0.12-1.55,0.54-2.25,0.95
			C72.92,26.63,73.05,26.85,73.19,26.77L73.19,26.77z"/>
	</g>
	<g>
		<path d="M57.71,37.6c0.05,0.13,0.07,0.27,0.16,0.38c0.1,0.13,0.26,0.19,0.42,0.21c0.36,0.06,0.75,0.06,1.11-0.02
			c0.37-0.08,0.73-0.25,1.08-0.38c0.39-0.15,0.77-0.3,1.16-0.45c0.3-0.12,0.17-0.6-0.13-0.48c-0.61,0.24-1.23,0.49-1.85,0.71
			c-0.31,0.11-0.6,0.16-0.92,0.15c-0.13,0-0.31,0.02-0.43-0.04c-0.08-0.04-0.08-0.13-0.11-0.22c-0.05-0.13-0.17-0.21-0.31-0.17
			C57.76,37.33,57.66,37.48,57.71,37.6L57.71,37.6z"/>
	</g>
	<g>
		<path d="M61.15,35.9c-0.22,0.58,0.17,1.27,0.61,1.63c0.49,0.4,1.14,0.64,1.76,0.77c1.67,0.35,3.36-0.1,4.97-0.55
			c-0.06-0.15-0.13-0.3-0.19-0.46c-0.02,0.01-0.05,0.02-0.07,0.04c-0.29,0.15-0.03,0.58,0.25,0.43c0.02-0.01,0.05-0.02,0.07-0.04
			c0.26-0.13,0.08-0.53-0.19-0.46c-1.34,0.37-2.72,0.76-4.13,0.63c-0.59-0.05-1.19-0.2-1.72-0.48c-0.46-0.24-1.11-0.79-0.88-1.39
			C61.75,35.73,61.27,35.6,61.15,35.9L61.15,35.9z"/>
	</g>
	<g>
		<path d="M59.85,38.03c0.6,0.26,1.22,0.48,1.88,0.53c0.67,0.05,1.31-0.23,1.98-0.2c0.32,0.02,0.32-0.48,0-0.5
			c-0.62-0.03-1.22,0.23-1.84,0.21c-0.61-0.02-1.21-0.23-1.76-0.47c-0.12-0.05-0.27-0.04-0.34,0.09
			C59.7,37.79,59.73,37.98,59.85,38.03L59.85,38.03z"/>
	</g>
	<g>
		<path d="M58.19,40.94c1.08,0.4,2.23,0.73,3.4,0.71c1.2-0.01,2.37-0.33,3.51-0.65c0.31-0.09,0.18-0.57-0.13-0.48
			c-1.1,0.31-2.23,0.62-3.38,0.64c-1.12,0.01-2.22-0.32-3.26-0.7C58.02,40.35,57.89,40.83,58.19,40.94L58.19,40.94z"/>
	</g>
	<path d="M65.63,32.21c-0.47-0.31-1.1-0.4-1.65-0.45c-0.65-0.06-1.3-0.02-1.94,0.06c-0.59,0.08-1.22,0.14-1.79,0.32
		c-0.49,0.16-0.79,0.44-0.85,0.96c-0.12,0.97,0.45,1.8,1.2,2.34c0.19,0.14,0.38,0.28,0.61,0.34c0.26,0.07,0.53,0.03,0.79-0.02
		c0.93-0.18,1.83-0.47,2.69-0.86c0.64-0.29,1.38-0.7,1.46-1.48C66.19,32.93,66.06,32.49,65.63,32.21z"/>
</g>
</svg>
