<?xml version="1.0" encoding="utf-8"?>
<!-- Generator: Adobe Illustrator 28.0.0, SVG Export Plug-In . SVG Version: 6.00 Build 0)  -->
<svg version="1.1" id="Layer_1" xmlns="http://www.w3.org/2000/svg" xmlns:xlink="http://www.w3.org/1999/xlink" x="0px" y="0px"
	 viewBox="0 0 150 150" style="enable-background:new 0 0 150 150;" xml:space="preserve">
<style type="text/css">
	.st0{stroke:#000000;stroke-width:2;stroke-linecap:round;stroke-linejoin:round;stroke-miterlimit:10;}
	.st1{fill:#EF9448;}
	.st2{fill:#F2F1EB;}
	.st3{fill:#FFA96E;}
	.st4{fill:url(#SVGID_1_);}
	.st5{fill:url(#SVGID_00000071559049825725809550000011322574356875798461_);}
	.st6{fill:url(#SVGID_00000030475239590022737520000005788818129406888839_);}
	.st7{fill:url(#SVGID_00000072971642653384224020000002087007661531252382_);}
	.st8{fill:url(#SVGID_00000140735494401988104930000015128226867127473288_);}
	.st9{fill:url(#SVGID_00000145056053064535056840000009973435857726394289_);}
	.st10{fill:url(#SVGID_00000052071831725868428230000013294894751833589695_);}
	.st11{fill:url(#SVGID_00000023253227455043738760000004395539368878547619_);}
	.st12{fill:url(#SVGID_00000171714606822977925150000015512911730090164104_);}
	.st13{fill:url(#SVGID_00000029758603089081194720000011706148290632378522_);}
	.st14{fill:url(#SVGID_00000118392081889763052740000010073647995952618159_);}
	.st15{fill:url(#SVGID_00000101070417550308179590000008988500601105035669_);}
	.st16{fill:url(#SVGID_00000039126178535180651950000011864633008701516675_);}
	.st17{fill:url(#SVGID_00000073715876483422761840000000464798576064465331_);}
	.st18{fill:url(#SVGID_00000149382320780681116590000005860268855784509839_);}
	.st19{fill:url(#SVGID_00000005954049192672938530000010537165477140598429_);}
</style>
<g id="Doge_Pyjamas_Top">
	<g>
		<path class="st0" d="M142.04,93.66c0.08-0.32,0.22-0.62,0.32-0.94c0.11-0.34,0.2-0.68,0.25-1.02c0-0.02,0-0.04,0-0.06
			s0.01-0.03,0.01-0.05c0.46-3.44,0.27-6.96-0.4-10.36c-0.67-3.39-1.86-6.73-3.65-9.69c-0.58-0.96-1.16-1.89-1.51-2.95
			c-0.34-1.04-0.51-2.12-0.69-3.2c-0.51-3.53-1.51-7.01-2.62-10.39c-0.6-1.84-1.22-3.69-2.04-5.44c-0.81-1.74-1.86-3.36-2.87-4.99
			c-0.51-0.83-1.01-1.67-1.45-2.53c-0.44-0.84-0.79-1.72-1.16-2.59c-0.37-0.89-0.81-1.73-1.46-2.45c-0.63-0.69-1.4-1.24-2.18-1.74
			c-1.68-1.08-3.47-1.96-5.3-2.76c-0.46-0.2-0.92-0.4-1.37-0.59c-0.42-0.18-0.85-0.33-1.26-0.54c-0.34-0.17-0.68-0.33-1.03-0.48
			c-0.78-0.34-1.58-0.65-2.37-0.97c0.54-0.28,1.06-0.58,1.55-0.95c0.34-0.26,0.68-0.54,0.96-0.87c0.31-0.37,0.41-0.76,0.41-1.24
			c-0.01-0.98-1.02-1.23-1.8-1.45c-0.94-0.26-1.91-0.41-2.87-0.56s-1.92-0.26-2.9-0.3c-0.12-0.12-0.25-0.22-0.39-0.31
			c0-0.01,0.01-0.01,0.01-0.02c0.26-0.89-0.98-2.61-1.75-3.2c-0.75-0.57-1.67-0.79-2.54-0.96c-2.63-0.52-5.56-0.83-8.02-0.84l0,0
			l0,0c-3.83,0.05-7.67,0.29-11.46,0.9c-2.51,0.4-5.01,0.98-7.39,1.87c-1.54,0.58-3.05,1.3-4.41,2.23c-0.83,0.57-1.6,1.22-2.34,1.91
			c-0.12,0.11-0.24,0.23-0.36,0.34c-0.05,0.05-0.11,0.1-0.16,0.14c-0.02,0.02-0.05,0.04-0.07,0.06c-0.01,0.01-0.02,0.02-0.03,0.03
			c-0.02,0.01-0.09,0.06-0.11,0.08c-0.04,0.03-0.09,0.06-0.13,0.08c-0.73,0.37-1.48,0.69-1.89,1.44c-0.17,0.3-0.25,0.64-0.25,0.97
			c-0.83,0.31-1.24,1.4-1.48,2.17c-0.08,0.25-0.15,0.5-0.21,0.76c-0.06,0.25-0.16,0.54-0.11,0.8s0.22,0.49,0.39,0.7
			c0,0.01,0.01,0.01,0.02,0.02c-1.22,0.67-2.45,1.33-3.71,1.95c-1.29,0.64-2.61,1.21-3.93,1.8c-1.49,0.67-2.87,1.45-4.13,2.49
			c-1.23,1.01-2.33,2.18-3.38,3.38c-1.04,1.19-2,2.45-2.89,3.76c-0.88,1.29-1.73,2.65-2.41,4.06c-0.35,0.73-0.59,1.49-0.52,2.31
			c0.03,0.39,0.1,0.78,0.01,1.17s-0.26,0.74-0.44,1.09c-0.53,1.03-1.2,1.99-1.84,2.95c-0.34,0.51-0.68,1.01-1.01,1.52
			c-0.33,0.5-0.59,1.05-0.98,1.51C38.45,62,38.16,62.26,38,62.6c-0.08,0.17-0.13,0.35-0.17,0.53c-0.48-0.46-0.99-0.88-1.56-1.2
			c-0.39-0.22-0.8-0.41-1.22-0.56c-0.43-0.16-0.88-0.26-1.31-0.41c-0.42-0.14-0.78-0.35-1.1-0.66c-0.31-0.3-0.58-0.65-0.86-0.98
			c-0.58-0.7-1.2-1.36-1.84-2c-1.22-1.22-2.55-2.33-3.95-3.34c-1.11-0.8-2.28-1.55-3.52-2.14c-0.52-0.25-1.06-0.48-1.61-0.64
			c-0.33-0.1-0.69-0.17-1.04-0.15l0,0c-0.01-0.01-0.01,0-0.01-0.01c0,0,0,0-0.01-0.01c-0.04-0.04-0.09-0.08-0.13-0.13
			c-0.03-0.03-0.05-0.06-0.07-0.08c-0.01-0.01-0.01-0.02-0.02-0.02c0,0,0,0-0.01-0.02c-0.04-0.06-0.08-0.11-0.12-0.17
			c-0.18-0.28-0.32-0.57-0.47-0.87c-0.27-0.55-0.52-1.18-0.99-1.6c0,0-0.01-0.01-0.02-0.01c-0.04-0.09-0.12-0.16-0.26-0.19
			c-1.91-0.36-3.86,0.48-5.56,1.29c-1.51,0.73-2.97,1.68-4.09,2.94c-0.63,0.72-1.13,1.52-1.49,2.41c-0.03,0.07-0.02,0.14,0,0.2
			c-0.03,0.49,0.21,0.99,0.45,1.4c0.29,0.5,0.68,1.01,1.19,1.31c0.08,0.05,0.16,0.08,0.25,0.11c-0.38,1.17-0.38,2.46-0.25,3.67
			c0.13,1.28,0.4,2.55,0.72,3.8c0.59,2.28,2.63,3.84,4.17,5.49c1.49,1.59,2.12,3.73,3.04,5.66c0.22,0.47,0.46,0.94,0.75,1.38
			c0.3,0.47,0.66,0.88,0.94,1.37c0.61,1.06,0.93,2.25,1.32,3.41c0.45,1.33,1.01,2.57,1.8,3.74c0.79,1.18,1.67,2.29,2.5,3.44
			c0.75,1.03,1.42,2.12,2.17,3.15c0.33,0.46,0.67,0.94,1.07,1.34c0.33,0.34,0.74,0.61,1.13,0.87c0.88,0.56,1.81,1.02,2.69,1.58
			c0.47,0.3,0.93,0.6,1.45,0.81c0.44,0.18,0.9,0.27,1.37,0.33c0.46,0.05,0.92,0.05,1.39,0.07c0.6,0.02,1.19,0.08,1.79,0.14
			c1.48,0.16,2.97-0.02,4.42-0.3c0.58-0.11,1.15-0.24,1.72-0.38c-0.09,1.5-0.25,3-0.43,4.49c-0.39,3.27-0.79,6.54-0.6,9.84
			c0.19,3.25,0.75,6.5,0.6,9.76c-0.02,0.38-0.06,0.76-0.06,1.14c0,0.19,0.02,0.38,0.05,0.57c0.02,0.16,0.01,0.05,0.02,0.21
			c0.02,0.36,0.02,0.72,0.01,1.08c-0.01,0.86-0.06,1.74,0.03,2.59c0.03,0.28,0.05,0.59,0.21,0.83c0.28,0.42,0.83,0.21,1.22,0.09
			c0.99-0.29,1.86-0.85,2.57-1.58c0.24-0.24,0.45-0.5,0.68-0.74c0.08-0.09,0.17-0.16,0.2-0.18c0.08-0.06,0.03-0.02,0.05-0.03
			c0.2-0.08,0.42-0.12,0.63-0.18c1.14-0.31,2.31-0.51,3.46-0.77c0.68-0.15,1.37-0.32,2.02-0.55c0.68-0.24,1.32-0.58,1.96-0.9
			c0.66-0.33,1.32-0.6,2.04-0.75c0.79-0.17,1.59-0.31,2.39-0.43c3.23-0.47,6.5-0.61,9.76-0.83c3.33-0.22,6.65-0.47,9.99-0.54
			c1.67-0.04,3.34-0.02,5.01,0.06c1.37,0.07,2.72,0.24,4.08,0.44c2.58,0.4,5.15,0.82,7.71,1.3c0.12,0.02,0.24,0.05,0.35,0.07
			c0.7,0.14,1.4,0.3,2.09,0.5c0.59,0.17,1.17,0.35,1.75,0.57c0.68,0.26,1.34,0.57,1.99,0.91c0.66,0.35,1.28,0.75,1.99,1
			c0.42,0.15,0.98,0.43,1.43,0.24c0.24-0.11,0.35-0.34,0.41-0.58c0.09-0.41,0.15-0.83,0.22-1.24c0.26-1.6,0.49-3.21,0.66-4.82
			c0.18-1.64,0.22-3.29,0.34-4.93c0.12-1.68,0.3-3.35,0.57-5.01c0.52-3.21,1.29-6.38,1.71-9.6c0.21-1.61,0.28-3.22,0.37-4.84
			c0.09-1.63,0.32-3.2,0.84-4.76c0.43-1.3,0.81-2.58,1.03-3.93s0.35-2.71,0.44-4.08c0.05-0.66,0.07-1.31,0.11-1.97
			c0.24,0.61,0.49,1.21,0.74,1.82c0.54,1.33,1.04,2.68,1.65,3.97c0.34,0.73,0.62,1.49,0.93,2.23c0.27,0.64,0.56,1.3,0.95,1.88
			c-0.17,0.23-0.34,0.45-0.5,0.66c-0.7,0.91-1.25,1.89-1.59,2.99c-0.74,2.37-0.6,4.89-0.32,7.32c0.15,1.33,0.34,2.67,0.43,4.01
			c0.09,1.36,0.06,2.72,0.02,4.09c-0.03,1.36-0.06,2.72,0.09,4.07c0.07,0.6,0.18,1.22,0.52,1.73c0.31,0.47,0.76,0.82,1.02,1.33
			c0.55,1.08,0.36,2.39,0.4,3.55c0.04,1.06,0.23,2.21,0.98,3c-0.14,0.42-0.23,0.85-0.29,1.29c-0.07,0.55-0.15,1.21,0.12,1.71
			c0.01,0.02,0.02,0.03,0.03,0.04c-0.03,0.45,0.1,0.88,0.42,1.3c1.94,2.52,10.45,3.61,10.81,3.66c0.02,0,0.03,0,0.05,0
			c0,0,0,0,0.01,0c0.05,0.02,0.1,0.04,0.16,0.04s0.12-0.02,0.17-0.05h0.01c0.88-0.25,1.1-1.23,1.29-2.01c0.2-0.8,0.26-1.65-0.13-2.4
			c0.63-0.79,0.97-1.79,1.79-2.43c0.22-0.18,0.45-0.34,0.63-0.56c0.19-0.23,0.34-0.47,0.49-0.73c0.31-0.56,0.61-1.12,0.91-1.68
			c1.18-2.23,2.27-4.5,3.31-6.79c1.04-2.3,2.03-4.62,3-6.95c0.49-1.17,0.96-2.35,1.35-3.55c0.39-1.21,0.71-2.46,0.73-3.74
			c0.03-1.37-0.44-2.63-0.71-3.95C141.96,94.86,141.89,94.25,142.04,93.66z"/>
		<g>
			<path class="st1" d="M117.85,124.6c0.01,0.3,0.08,0.52,0.27,0.57c0.08,0.02,0.16,0,0.25-0.01c0.93-0.17,1.7,0.17,2.57,0.39
				c0.63,0.16,1.26,0.11,1.9,0.27c0.83,0.21,1.64,0.5,2.42,0.84c0.39,0.17,0.77,0.36,1.15,0.56c0.22,0.12,0.76,0.58,0.99,0.58
				c0.67,0,1.38,1.36,1.84,1.75c0.04,0.04,0.09,0.07,0.15,0.08c0.11,0.01,0.19-0.09,0.25-0.19c0.41-0.7,0.63-1.5,0.65-2.31
				c0.02-0.94-0.21-1.69,0.36-2.52c0.46-0.68,1.1-1.18,1.65-1.78c0.49-0.53,0.84-1.18,1.19-1.82c0.62-1.15,1.23-2.3,1.84-3.46
				c0.4-0.76,0.81-1.53,1.15-2.32c0.01-0.02,0.02-0.04,0.03-0.06c0.3-0.7,0.55-1.41,0.82-2.12c0.52-1.37,1.1-2.71,1.76-4.02
				c0.31-0.62,0.8-1.27,0.99-1.94c0.15-0.51,0.19-0.99,0.4-1.5c0.35-0.85,0.7-1.69,1.05-2.54c0.3-0.73,0.61-1.46,0.75-2.23
				c0.27-1.41,0-2.87-0.38-4.26c-0.6-2.15,0.18-3.98,0.38-6.08c0.21-2.21,0.48-4.48,0-6.68c-0.28-1.28-0.64-2.54-0.92-3.81
				c-0.21-0.96-0.25-1.88-0.55-2.83c-0.32-1.04-0.72-2.05-1.19-3.03c-0.6-1.26-1.47-2.41-2.14-3.66c-0.43-0.79-0.83-1.6-1.11-2.45
				c-0.31-0.96-0.46-1.96-0.62-2.96c-0.23-1.4-0.49-2.8-0.78-4.19c-0.42-2.02-0.76-4.22-1.64-6.09c-0.77-1.64-1.13-3.43-2-5.06
				c-1.33-2.48-3-4.77-4.26-7.29c-0.68-1.36-1.09-2.8-1.76-4.17c-0.22-0.45-0.45-0.9-0.76-1.29c-0.59-0.73-1.44-1.19-2.27-1.62
				c-1.98-1.02-3.99-1.97-6.02-2.86c-0.95-0.41-1.97-0.76-2.86-1.27c-0.25-0.14-2.62-1.23-2.61-1.36c0.03-0.26,0.3-0.4,0.54-0.51
				c0.78-0.37,3.09-1.98,2.23-3.11c-0.18-0.23-0.49-0.31-0.78-0.36c-1.05-0.21-2.11-0.42-3.16-0.63c-0.8-0.16-2.04-0.67-2.84-0.53
				c-0.32,0.06-0.73,0.02-0.87-0.27c-0.08-0.17-0.04-0.37-0.04-0.56c0.03-1.64-2.11-3.41-3.62-3.64c-1.88-0.28-3.78-0.51-5.67-0.71
				c-1.87-0.19-3.82-0.11-5.71-0.02c-2.37,0.12-4.7,0.63-7.04,1.05c-2.85,0.51-5.74,0.87-8.51,1.73c-1.85,0.57-3.65,1.38-5.21,2.54
				c-0.38,0.28-0.75,0.59-1.09,0.91c-0.33,0.3-0.63,0.78-1,1.01c-0.78,0.48-1.69,0.6-2.01,1.61c-0.07,0.23-0.1,0.49-0.23,0.69
				c-0.12,0.18-0.3,0.31-0.47,0.45c-0.73,0.63-1.04,1.6-1.31,2.52c-0.13,0.44-0.14,0.76,0,1.18c0.13,0.42,0.39,0.61-0.17,0.95
				c-2.06,1.25-4.23,2.31-6.48,3.15c-1.07,0.4-2.18,0.76-3.15,1.36c-0.66,0.41-1.26,0.93-1.83,1.46c-3.21,3.03-6.48,6.42-8.47,10.4
				c-0.38,0.76-0.99,1.88-0.61,2.74c0.1,0.24,0.24,0.48,0.21,0.73c-0.01,0.12-0.06,0.24-0.11,0.35c-0.27,0.64-0.47,1.32-0.76,1.95
				c-1.21,2.66-3.48,4.62-4.66,7.28c-0.68-0.97-1.8-1.38-2.94-1.79c-0.87-0.31-1.75-0.61-2.45-1.16c-0.54-0.42-0.97-0.96-1.41-1.49
				c-2.29-2.73-5.1-5.03-8.24-6.73c-0.69-0.37-1.39-0.72-2.13-0.96c-0.59-0.19-1.37-0.33-1.8-0.8c-0.55-0.6-0.89-1.49-1.42-2.13
				c-0.12-0.15-0.26-0.3-0.43-0.39c-0.23-0.11-0.51-0.09-0.77-0.06c-3.25,0.4-6.32,2.07-8.42,4.58c-0.53,0.63-1.02,1.38-0.93,2.2
				c0.08,0.8,0.69,1.43,1.29,1.96c0.79,0.71,0.05,1.94,0.04,2.92c-0.01,1.36,0.27,2.7,0.56,4.02c0.15,0.69,0.3,1.38,0.61,2.02
				c0.87,1.81,2.79,2.83,4.1,4.35c1.16,1.35,1.77,2.96,2.25,4.64c0.46,1.6,1.7,2.83,2.46,4.28c0.64,1.23,0.94,2.6,1.49,3.87
				c0.55,1.26,1.38,2.35,2.14,3.48c0.72,1.07,1.25,2.22,1.95,3.3c1.95,2.98,4.69,5.82,8.21,6.86c0.89,0.26,1.83,0.34,2.76,0.42
				c1.41,0.12,2.82,0.23,4.23,0.17c0.7-0.03,1.4-0.1,2.08-0.25c0.33-0.07,1.2-0.5,1.52-0.34c0.48,0.24,0.14,1.42,0.1,1.84
				c-0.16,1.59-0.32,3.17-0.45,4.76c-0.26,3.21-0.39,6.44-0.06,9.65c0.09,0.9,0.22,1.8,0.29,2.7c0.15,1.97,0.01,3.94-0.08,5.91
				c-0.08,1.9,0.15,3.78,0.12,5.67c0,0.07,0,0.15,0.05,0.2c0.05,0.05,0.13,0.06,0.2,0.06c0.78-0.01,1.47-0.5,2.09-0.99
				c0.47-0.37,0.94-0.75,1.4-1.14c0.14-0.12,0.28-0.25,0.44-0.35c0.18-0.11,0.39-0.19,0.59-0.26c1.5-0.52,3.08-0.64,4.6-1.05
				s2.85-1.3,4.32-1.84c1.86-0.68,3.88-0.76,5.86-0.85c4.7-0.22,9.39-0.55,14.08-0.94c2.23-0.19,4.37-0.39,6.61-0.26
				c4.28,0.25,8.44,1.03,12.68,1.58c0.97,0.13,1.94,0.25,2.87,0.52c1.34,0.39,2.53,1.13,3.76,1.76c0.62,0.32,1.25,0.57,1.91,0.8
				c0.4,0.14,1.28,0.76,1.64,0.31c0.12-0.15,0.16-0.36,0.2-0.55c0.3-1.66,0.57-3.33,0.81-5c0.26-1.74,0.13-3.51,0.3-5.27
				c0.17-1.8,0.47-3.59,0.76-5.37c0.43-2.58,0.86-5.17,1.32-7.74c0.27-1.48,0.42-2.9,0.5-4.4c0.07-1.35,0-2.72,0.21-4.07
				c0.32-2.11,1.22-4.08,1.56-6.17c0.39-2.33,0.63-4.68,0.72-7.04c0.01-0.18,0.01-0.36,0.1-0.52s0.27-0.27,0.44-0.21
				c0.18,0.06,0.39,1.04,0.46,1.23c0.2,0.51,0.4,1.02,0.59,1.53c0.39,1.02,0.76,2.05,1.12,3.09c0.3,0.87,0.66,1.55,1.07,2.35
				c0.47,0.91,0.81,1.88,1.18,2.84c0.04,0.1,0.08,0.21,0.07,0.32c-0.02,0.13-0.11,0.24-0.2,0.34c-2.09,2.44-2.98,5.85-2.36,9
				c0.13,0.63,0.31,1.26,0.43,1.89c0.14,0.77,0.19,1.56,0.23,2.34c0.1,2.29,0.1,4.59,0,6.89c-0.05,1.08-0.29,2.68,0.35,3.62
				c0.28,0.41,0.65,0.75,0.92,1.17c0.29,0.44,0.44,0.95,0.57,1.46c0.27,1.08,0.41,2.18,0.42,3.29c0.01,0.58-0.02,1.19,0.25,1.7
				c0.13,0.24,0.32,0.45,0.39,0.72c0.1,0.35-0.06,0.84-0.13,1.19c-0.08,0.46-0.22,0.98-0.21,1.44c0.02,1,0.87,2.06,1.66,2.57
				c0.35,0.22,0.73,0.38,1.11,0.52c2.18,0.77,4.58,0.8,6.72,1.67c0.47,0.19,0.94,0.43,1.45,0.45c0.51,0.03,1.08-0.23,1.22-0.72
				c0.12-0.42,0.12-0.81,0.22-1.23"/>
			<path class="st2" d="M95.92,82.47c-0.02-0.9-0.04-1.8-0.06-2.7c-0.01-0.61-0.05-1.2-0.13-1.8c-0.06-0.45,0.01-0.89-0.02-1.34
				c-0.08-1.07-0.49-2.08-0.55-3.15c-0.04-0.76,0.1-1.52,0.11-2.28c0.01-0.53-0.04-1.06-0.09-1.59c0-1.75-0.55-3.48-0.94-5.17
				c-0.43-1.87-0.85-3.74-1.04-5.65c-0.18-1.88-0.3-3.92,0-5.8c0.3-1.83,0.69-3.67,1.03-5.5c0.15-0.79,0.26-1.6,0.48-2.36
				c0.21-0.73,0.44-1.5,0.49-2.27c0.06-0.82-0.07-1.71-0.19-2.52c-0.28-1.83-0.58-3.57-1.78-5.05c-0.13-0.16-0.29-0.33-0.49-0.38
				c-0.21-0.06-0.43,0.02-0.63,0.09c-2.18,0.79-4.1,2.01-6.37,2.59c-2.27,0.57-4.6,0.79-6.93,0.98c-1.15,0.09-2.32,0.18-3.47,0.03
				c-0.97-0.13-1.91-0.42-2.83-0.74c-2.02-0.7-4-1.54-5.91-2.49c-0.18-0.09-0.36-0.18-0.56-0.17c-0.34,0.01-0.59,0.3-0.8,0.56
				c-1.46,1.82-2.78,3.61-3.9,5.68c-1.13,2.09-2.09,4.25-3.06,6.42c-0.5,1.12-1,2.24-1.33,3.41c-0.59,2.08-0.65,4.29-0.36,6.44
				c0.16,1.21,0.56,2.54,0.4,3.76c-0.15,1.21-0.43,2.44-0.66,3.64c-0.6,3.2-1.41,6.32-2.36,9.42c-0.43,1.41-1,2.77-1.43,4.19
				c-0.46,1.51-0.85,3.05-1.21,4.59c-0.57,2.44-1.06,4.89-1.47,7.36c-0.1,0.57-0.1,1.15-0.19,1.72c-0.3,1.77-0.39,3.59-0.45,5.39
				c-0.02,0.61,0,1.22,0.01,1.82c0.06,2.44,0.39,4.86,0.82,7.26c0.16,0.89,0.33,1.78,0.5,2.67c0.78,4.17,2.9,8.18,5.26,11.67
				c0.1,0.15,0.21,0.3,0.36,0.39c0.58,0.33,1.71-0.18,2.34-0.24c0.67-0.06,1.33-0.12,2-0.18c6.36-0.54,12.63-1.56,19.06-1.42
				c1.07,0.02,2.2,0.22,3.25,0.18c0.98-0.04,1.82-0.97,2.42-1.65c1.47-1.65,2.92-3.34,4.14-5.19c0.77-1.17,1.54-2.36,2.23-3.58
				c0.73-1.27,1.2-2.61,1.7-3.98c0.37-0.99,0.79-1.93,1.06-2.95c0.27-1.06,0.51-2.13,0.71-3.21c0.41-2.18,0.67-4.4,0.78-6.62
				c0.09-1.83,0.07-3.65,0.01-5.48C95.86,85.64,95.96,84.08,95.92,82.47z"/>
			<path class="st2" d="M110.81,26.28c-1.11-0.35-2.24-0.57-3.4-0.68c-0.09-0.05-0.18-0.08-0.28-0.09c-0.13-0.01-0.24,0.14-0.2,0.26
				c0.01,0.02,0.01,0.04,0.01,0.06c0,0.06,0.01,0.11,0.04,0.16c0.02,0.11,0.03,0.21,0.03,0.32c-0.01,0-0.03,0-0.04,0
				c-0.14,0.03-0.23,0.19-0.21,0.33c0.02,0.12,0.1,0.2,0.2,0.24c-0.01,0.04-0.01,0.08-0.02,0.11c-0.03,0.21,0.12,0.36,0.33,0.33
				c0.41-0.06,0.81-0.12,1.21-0.19c0.01,0,0.01,0,0.02,0c0.43-0.03,0.85-0.06,1.28-0.09c0.37-0.03,0.77-0.03,1.09-0.25
				C111.08,26.66,111.05,26.36,110.81,26.28z"/>
			<path class="st3" d="M46.07,108.14c-0.16-0.35-0.44-0.65-0.65-0.96c-0.3-0.47-0.64-0.91-0.94-1.38
				c-0.43-0.65-0.84-1.32-1.11-2.05c-0.24-0.64-0.27-1.49-0.72-2.01c-0.13,0.77-0.26,1.53-0.39,2.3c-0.12,0.7-0.24,1.39-0.29,2.1
				c-0.05,0.67-0.05,1.35-0.04,2.03c0.02,2.06,0.04,4.13,0.33,6.17c0.56,3.93,0.24,7.91,0.42,11.87c0.02,0.42,0.09,1.07,0.61,1.08
				c0.21,0,1.52-0.61,1.59-0.52c-0.12-0.18-0.39-0.14-0.59-0.2c-0.44-0.13-0.55-0.7-0.57-1.16c-0.14-2.57-0.27-5.14-0.41-7.71
				c-0.04-0.78-0.07-1.6,0.33-2.27c0.05-0.09,0.12-0.18,0.21-0.23c0.1-0.05,0.23-0.05,0.34-0.04c0.6,0.04,1.2,0.07,1.8,0.11
				c-0.44-0.79-1.27-1.34-1.58-2.18c-0.13-0.35-0.17-0.74-0.2-1.12c-0.04-0.4-0.07-0.81,0.02-1.21s0.32-0.78,0.68-0.95
				c0.28-0.13,0.62-0.13,0.89-0.3c0.34-0.21,0.46-0.66,0.39-1.05C46.15,108.34,46.11,108.24,46.07,108.14z"/>
			<path class="st3" d="M50.03,63.66c0.01-0.1,0.01-0.21,0.02-0.31c-0.16,0.54-0.41,1-0.68,1.49c-0.23,0.42-0.32,0.87-0.42,1.34
				c-0.68,3.02-1.53,5.98-2.39,8.96c-0.19,0.65-0.37,1.29-0.6,1.93c-0.29,0.81-0.63,1.59-0.9,2.4c-0.19,0.58-0.33,1.17-0.47,1.77
				c-0.25,1.04-0.48,2.07-0.71,3.11c-0.16,0.71-0.45,1.41-0.52,2.14c-0.07,0.79-0.1,1.54-0.23,2.33C42.62,92,43.4,95.27,43,98.47
				c0.16-1.66,1.12-3.16,1.32-4.81c0.13-1.07-0.07-2.14-0.17-3.21c-0.06-0.58-0.29-1.15,0.04-1.68c0.26-0.42,0.75-0.69,0.87-1.2
				c0.11-0.44-0.14-0.89-0.16-1.35c-0.01-0.29,0.07-0.57,0.15-0.85c0.71-2.46,1.27-4.96,1.73-7.47c0.32-1.75,0.45-3.54,1.07-5.21
				c0.62-1.68,1.04-3.43,1.46-5.17C49.62,66.25,49.93,64.97,50.03,63.66z"/>
			<path class="st3" d="M31.54,59.55c-0.35-0.5-0.88-0.94-1.29-1.38c-0.45-0.48-0.9-0.95-1.35-1.43c-0.8-0.85-1.65-1.73-2.77-2.05
				c0.64,0.95,1.27,1.91,1.91,2.86c0.26,0.38,0.51,0.77,0.67,1.21c0.15,0.43,0.2,0.93,0.02,1.35c-0.12,0.29-0.33,0.53-0.45,0.81
				c-0.23,0.59-0.01,1.28,0.41,1.76s1,0.77,1.57,1.04c0.11,0.05,0.23,0.11,0.36,0.09c0.16-0.02,0.28-0.14,0.4-0.24
				c0.55-0.45,1.34-0.51,2.02-0.3s1.25,0.68,1.73,1.2c0.3,0.32,0.57,0.66,0.91,0.93c0.06,0.04,0.12,0.09,0.19,0.09
				c0.17,0.01,0.27-0.18,0.29-0.34c0.02-0.17,0-0.35,0.11-0.48c0.18-0.22,0.57-0.1,0.72,0.1c0.09,0.11,0.14,0.25,0.18,0.39
				c0.08,0.24,0.15,0.49,0.18,0.74c0.02,0.18,0.01,0.36,0.02,0.53c0.01,0.33,0.07,0.66,0.16,0.98c0.13-0.16,0.17-0.37,0.2-0.57
				c0.18-1.14,0.11-2.33,1.12-3.11c0.09-0.07,0.18-0.13,0.29-0.14c0.34-0.03,0.52,0.47,0.86,0.52c0.19,0.02,0.37-0.1,0.48-0.26
				c0.11-0.15,0.17-0.34,0.27-0.5c0.25-0.45,0.77-0.71,1.28-0.72c0.54-0.01,0.99,0.62,1.28-0.03c0.37-0.83,0.75-1.66,1.12-2.5
				c0.12-0.26,0.23-0.52,0.26-0.8c0.02-0.26-0.03-0.53-0.1-0.79c-0.34-1.21-0.99-2.39-0.86-3.65c0.26-2.37,2.42-3.88,3.5-5.83
				c0.69-1.25,1.37-2.51,2.14-3.71c0.79-1.23,1.71-2.32,2.64-3.44c0.06-0.08,0.17-0.16,0.25-0.1c0.05,0.04,0.05,0.11,0.05,0.17
				c-0.03,0.61-0.25,1.21-0.34,1.81c-0.12,0.75-0.28,1.48-0.32,2.25c0.05-0.07,0.08-0.14,0.11-0.22c0.26-0.65,0.6-1.27,0.83-1.92
				c0.11-0.33,0.23-0.66,0.38-0.97c0.1-0.21,0.53-0.71,0.53-0.91c1.44-1.95,3.55-3.45,5.67-4.55c1.96-1.02,4.03-1.86,5.78-3.2
				c-0.25-0.1-0.41-0.41-0.68-0.42c-0.14,0-0.26,0.07-0.38,0.15c-3.36,2.13-7.2,3.42-10.53,5.6c-0.68,0.45-1.39,0.92-2.01,1.44
				c-0.61,0.51-1.08,1.24-1.66,1.81c-0.84,0.82-1.72,1.58-2.4,2.55c-0.66,0.93-1.11,1.99-1.67,2.99c-0.31,0.55-0.7,1.04-1.1,1.52
				c-0.41,0.5-0.62,0.96-0.76,1.61c-0.29,1.28-0.26,2.61-0.68,3.86c-0.22,0.64-0.55,1.23-0.88,1.82c-0.35,0.63-0.71,1.27-1.11,1.88
				c-0.99,1.51-2.24,2.84-3.09,4.42c-0.86-0.68-1.78-1.32-2.81-1.7c-0.43-0.16-0.88-0.27-1.32-0.43c-1-0.36-1.7-0.89-2.28-1.75
				C31.56,59.57,31.55,59.56,31.54,59.55z"/>
			<path class="st3" d="M66.54,34.64c-0.27-0.29-0.53-0.59-0.78-0.9c-0.23-0.29-0.46-0.6-0.54-0.97c-0.08-0.41,0.04-0.83,0.16-1.22
				c0.11-0.37,0.58-1.29,0.35-1.67c-0.35-0.58-0.84,0.17-0.97,0.49c-0.28,0.71-0.68,1.33-0.82,2.1c-0.12,0.67,0.23,1.17,0.71,1.63
				c0.23,0.22,0.47,0.29,0.72,0.45c0.31,0.19,0.58,0.47,0.88,0.68c0.31,0.21,0.63,0.4,0.96,0.56c0.25,0.13,0.68,0.21,0.89,0.38
				C67.56,35.69,67.03,35.18,66.54,34.64z"/>
			<path class="st3" d="M71.63,24.93c0.5-0.49,1.08-0.91,1.69-1.27c1.21-0.71,2.56-1.16,3.89-1.59c0.45-0.14,0.9-0.28,1.3-0.53
				c-0.14-0.19-0.44-0.16-0.67-0.1c-1.58,0.4-3.25,0.76-4.66,1.58c-1.36,0.79-2.59,1.78-3.78,2.8c-0.66,0.56-1.34,0.95-2.07,1.4
				c-0.55,0.34-1.25,0.66-1.49,1.31c-0.3,0.83,0.27,2.1,0.78,2.75c-0.17-0.45-0.31-0.94-0.2-1.41c0.14-0.58,0.64-1,1.14-1.33
				c0.38-0.25,0.77-0.57,1.17-0.77c0.42-0.21,0.94-0.22,1.28-0.57c0.17-0.17,0.27-0.4,0.38-0.62C70.7,25.98,71.13,25.42,71.63,24.93
				z"/>
			<path class="st3" d="M75.96,37.4c0.25,0,0.47-0.09,0.78-0.2c0.38-0.14,0.8-0.15,1.2-0.17c1.73-0.12,3.16-0.77,4.65-1.59
				c0.6-0.33,1.25-0.53,1.85-0.9c0.77-0.48,1.52-0.99,2.24-1.54c1.14-0.87,2.15-1.96,3.64-2.17c0.11-0.02,0.23-0.03,0.33-0.07
				c0.1-0.05,0.19-0.13,0.27-0.21c0.56-0.53,1.1-1.09,1.53-1.73c0.26-0.38,0.47-0.78,0.75-1.14c0.44-0.57,1.01-1.03,1.59-1.45
				c2.1-1.55,4.38-2.87,6.78-3.91c-1.3,0.3-2.59,0.62-3.88,0.97c-0.75,0.2-1.5,0.42-2.2,0.74c-1.76,0.79-3.16,2.18-4.42,3.6
				c-0.64,0.72-1.4,1.29-2.13,1.93c-0.8,0.71-1.6,1.42-2.43,2.1c-1.52,1.25-3.12,2.41-4.88,3.3c-1.76,0.89-3.71,1.21-5.62,1.6
				c-0.43-0.16-0.89-0.25-1.32-0.43c-0.71-0.31-1.37-0.7-2.08-1.01c-0.67-0.3-1.36-0.6-1.92-1.1c-0.06-0.05-0.12-0.11-0.2-0.14
				c-0.08-0.03-0.17-0.02-0.22,0.05c-0.12,0.15,0.41,0.68,0.53,0.8c0.43,0.46,0.94,0.85,1.47,1.18c0.6,0.38,1.24,0.68,1.9,0.96
				c0.43,0.18,0.87,0.33,1.31,0.46C75.66,37.38,75.81,37.4,75.96,37.4z"/>
			<path class="st3" d="M104.94,22.61c0.34,0.19,0.67,0.41,0.97,0.65c-0.86-1.31-2.19-2.3-3.67-2.79c-0.69-0.23-1.42-0.28-2.1-0.51
				c-0.9-0.3-1.93-0.35-2.87-0.43c-0.52-0.05-1.04-0.1-1.56-0.08c-0.65,0.03-1.28-0.08-1.92-0.05c-0.73,0.03-1.47,0.07-2.2,0.12
				c-1.47,0.09-2.93,0.21-4.4,0.35c-3.44,0.34-6.9,0.82-10.12,2.09c1.95-0.13,3.87-0.57,5.8-0.86c3.33-0.51,6.72-0.62,10.07-0.31
				c0.28,0.03,0.56,0.05,0.83,0.01c0.19-0.03,0.37-0.1,0.55-0.16c0.88-0.27,1.67-0.12,2.56,0c0.91,0.12,1.79,0.4,2.69,0.51
				c1.02,0.13,2.03,0.27,3.02,0.53C103.4,21.91,104.2,22.2,104.94,22.61z"/>
			<path class="st3" d="M102.61,25.53c-0.21-0.05-0.42-0.14-0.6-0.25c-0.16-0.1-0.31-0.22-0.49-0.25c-0.17-0.03-0.34,0.04-0.51,0.1
				c-1.13,0.44-2.14,0.89-3.12,1.62c-0.81,0.6-1.55,1.29-2.24,2.03c-0.55,0.58-0.9,1.11-1.74,1.1c-0.25,0-0.66,0.06-0.74,0.35
				c-0.06,0.24,0.23,0.39,0.07,0.67c-0.1,0.17-0.29,0.28-0.47,0.35c-0.66,0.26-1.41,0.26-2.03,0.61c-0.35,0.2-0.62,0.49-0.94,0.74
				c-0.3,0.23-0.61,0.38-0.9,0.63c-0.62,0.56-1.3,1.05-2.02,1.47c-0.74,0.44-1.52,0.8-2.33,1.09c-0.4,0.14-0.82,0.27-1.23,0.37
				c-0.23,0.06-0.96,0.07-1.12,0.23c-0.18,0.17,0.54,0.21,0.6,0.22c0.32,0.04,0.65,0.04,0.97,0.02c0.63-0.04,1.26-0.17,1.87-0.32
				c1.25-0.3,2.41-1.07,3.4-1.86c0.53-0.42,1.03-0.88,1.61-1.24c0.49-0.31,1.07-0.37,1.62-0.5c0.27-0.06,0.42-0.13,0.62-0.29
				c0.22-0.18,0.35-0.32,0.65-0.36c0.27-0.04,0.54,0,0.81,0.02c0.12,0.01,0.25,0.01,0.36-0.05c0.1-0.06,0.16-0.23,0.07-0.31
				c-0.05-0.05-0.13-0.06-0.2-0.07c-0.13-0.01-0.26-0.03-0.39-0.04c-0.15-0.01-0.32-0.04-0.43-0.15c-0.2-0.2,0.08-0.59,0.28-0.68
				c0.14-0.06,0.3-0.04,0.44-0.1c0.14-0.05,0.25-0.17,0.35-0.29c1.52-1.69,3.47-2.94,5.39-4.16c0.2-0.13,0.41-0.26,0.65-0.32
				c0.25-0.06,0.51-0.02,0.77,0.01c0.64,0.07,1.38,0.06,1.84-0.39C103.18,25.61,102.89,25.6,102.61,25.53z"/>
			<path class="st3" d="M106.16,24.36c-0.12-0.08-0.25-0.14-0.38-0.18c-0.37-0.11-0.76-0.06-1.14,0.01
				c-0.52,0.1-1.03,0.24-1.53,0.43c-0.08,0.03-0.17,0.08-0.17,0.16c0,0.11,0.14,0.15,0.24,0.15c1.13,0.1,2.23,0.38,3.36,0.5
				c0.14,0.01,0.33-0.02,0.36-0.17c0.02-0.08-0.03-0.16-0.08-0.23C106.64,24.77,106.43,24.53,106.16,24.36z"/>
			<path class="st3" d="M113.73,26.57c-0.01-0.07-0.03-0.14-0.06-0.2c-0.13-0.26-0.43-0.38-0.7-0.47c-0.92-0.32-1.8-0.66-2.77-0.79
				c-0.97-0.14-1.96-0.19-2.94-0.24c-0.67-0.04-0.44,0.48,0,0.66s0.93,0.21,1.39,0.23c0.32,0.01,0.64,0,0.96,0.01
				c0.24,0.01,0.48,0.01,0.68-0.1c0.28-0.15,1.38,0.44,1.64,0.58c0.41,0.22,0.9,0.49,0.93,1.01c0.01,0.21-0.04,0.43-0.05,0.64
				c0,0.03,0,0.06,0.01,0.08c0.04,0.06,0.12,0.03,0.18,0c0.44-0.25,0.73-0.76,0.72-1.27C113.74,26.66,113.74,26.62,113.73,26.57z"/>
			<path class="st3" d="M142.29,84.96c-0.45-4.08-1.52-8.29-3.53-11.9c-0.21-0.37-0.43-0.74-0.64-1.11c-0.79-1.4-1.45-2.94-1.85-4.5
				c-0.35-1.39-0.47-2.82-0.66-4.23c-0.13-0.96-0.3-1.92-0.62-2.85c-0.3-0.89-0.53-1.74-0.8-2.64c-0.76-2.52-1.53-5.05-2.6-7.45
				c-0.49-1.11-1.05-2.19-1.67-3.23c-0.56-0.95-1.35-1.83-1.8-2.83c-0.53-1.15-1.07-2.29-1.7-3.39c-0.27-0.47-0.55-0.94-0.74-1.44
				c-0.16-0.41-0.26-0.85-0.47-1.24c-0.24-0.44-0.6-0.8-0.98-1.13c-3.76-3.36-8.57-4.99-13.17-6.77c-0.77-0.3-1.55-0.6-2.29-0.99
				c-0.35-0.18-0.7-0.38-1.06-0.53c-0.63-0.26-1.35-0.36-2.02-0.25c-0.28,0.05-0.59,0.12-0.87,0.21c-0.13,0.04-0.72,0.39-0.82,0.36
				c1.24,0.42,2.44,0.97,3.57,1.64c0.18,0.11,0.37,0.22,0.57,0.27c0.42,0.1,0.86-0.06,1.29-0.1c1.07-0.1,2.05,0.56,2.92,1.19
				c0.06,0.04,0.12,0.09,0.14,0.16c0.04,0.14-0.11,0.25-0.23,0.32c-1.06,0.63-1.96,1.53-2.61,2.58c-0.45,0.73-1.42,2.47-0.71,3.29
				c0.2,0.23,0.53,0.28,0.83,0.22c0.29-0.06,0.56-0.21,0.83-0.35c2.72-1.4,5.96-1.33,8.99-0.87c0.19,0.03,0.38,0.06,0.54,0.15
				c0.42,0.23,0.61,0.75,0.93,1.09c0.34,0.37,0.72,0.71,1.06,1.07c0.89,0.92,1.75,1.88,2.56,2.89c0.13,0.16,0.26,0.35,0.21,0.55
				c-0.03,0.12-0.12,0.21-0.22,0.29c-0.63,0.53-1.42,0.83-2.15,1.2c-0.73,0.38-1.45,0.89-1.75,1.66c1-0.57,2.08-1,3.21-1.26
				c0.56-0.13,1.14-0.23,1.66-0.48c0.23-0.11,0.45-0.26,0.7-0.29c0.51-0.07,0.93,0.59,1.23,0.92c0.47,0.51,0.93,1.03,1.33,1.6
				c0.06,0.09,0.12,0.18,0.18,0.27c0.91,1.79,1.86,3.57,2.58,5.46c0.25,0.67,0.54,1.37,0.6,2.09c0.03,0.38-0.02,0.74-0.16,1.09
				c-0.1,0.26-0.21,0.52-0.15,0.81c0.13,0.67,0.87,1.06,1.21,1.6c0.04,0.07,0.07,0.15,0.11,0.22c-0.02,0.02-0.03,0.05-0.01,0.08
				c0.15,0.32,0.27,0.65,0.4,0.98c0.07,0.27,0.14,0.54,0.22,0.79c0.02,0.08,0.07,0.13,0.13,0.18c0.41,1.22,0.74,2.47,0.99,3.72
				c0.18,0.88,0.57,2.04,0.34,2.92c-0.21,0.82-0.29,1.44,0.05,2.25c0.34,0.8,0.89,1.47,1.38,2.19c0.51,0.75,0.94,1.57,1.28,2.41
				c0.58,1.42,1.51,3.08,1.11,4.64c-0.22,0.89-0.78,1.66-1.32,2.4c-1.02,1.4-2.08,2.83-3.57,3.71c1.01-0.23,1.96-0.52,2.93-0.82
				c0.28-0.09,0.57-0.18,0.86-0.17c0.41,0.01,0.8,0.22,1.1,0.49c0.74,0.66,1.05,1.67,1.31,2.63c0.29,1.05,0.55,2.12,0.57,3.2
				c0.03,2.23-0.98,4.32-1.97,6.31c-0.44,0.88-0.87,1.75-1.31,2.63c-0.32,0.63-0.64,1.38-0.34,2.02c0.56-1.17,1.41-2.03,2.11-3.08
				c0.73-1.09,1.32-2.35,1.76-3.58c0.35-0.96,0.7-1.93,0.91-2.93c0.41-1.93,0.31-3.93,0.12-5.89
				C142.33,85.29,142.31,85.12,142.29,84.96z"/>
			<path class="st3" d="M116.85,108.5c-0.09-1.01-0.17-2.01-0.26-3.02c-0.11-1.31-0.09-2.72-0.36-4c-0.02-0.12-0.04-0.26,0.05-0.34
				c0.13-0.12,0.34,0.02,0.46,0.15c0.62,0.68,1.24,1.37,1.86,2.05c-0.53-1.61-1.25-3.15-2.14-4.59c-0.46-0.75-0.99-1.54-0.93-2.42
				c0.02-0.36,0.15-0.7,0.26-1.04c0.6-1.79,1-3.65,1.19-5.53c-0.55,1.04-1.11,2.07-1.66,3.11c-1.09,2.04-0.65,4.58-0.41,6.79
				c0.32,3.06,0.48,6.13,0.46,9.21c-0.01,1.5-0.06,3.03,0.34,4.48c0.12,0.45,0.29,0.89,0.57,1.26c0.48,0.62,1.22,0.96,1.94,1.28
				c-1.07-0.48-1.65-2.23-1.71-3.28c-0.03-0.67,0.14-1.15,0.35-1.75C117.12,110.15,116.91,109.23,116.85,108.5z"/>
			<path class="st3" d="M135.93,116.03c-0.66,0.76-1.19,1.63-1.81,2.42c-0.3,0.37-0.6,0.72-0.98,1c-0.07,0.05-1.23,0.62-1.21,0.42
				c0.09-0.99,0.27-1.97,0.54-2.92c-0.56,1.25-0.82,2.61-1.3,3.89c-0.41,1.13-1.04,2.26-1.64,3.29c-0.24,0.41-0.36,0.95-0.9,0.57
				c-1.13-0.78-2.38-1.37-3.7-1.75c0.45,0.31,0.9,0.63,1.33,0.96c0.54,0.41,1.09,0.83,1.46,1.4c0.57,0.87,0.67,1.96,0.68,3
				c0,0.11,0,0.22,0.07,0.31c0.05,0.07,0.13,0.1,0.2,0.14c0.41,0.23,0.67,0.7,0.64,1.16c0.98-0.99,1.36-2.54,0.94-3.88
				c-0.04-0.14-0.1-0.28-0.1-0.43c-0.01-0.21,0.08-0.42,0.18-0.6c0.45-0.86,1.18-1.52,1.83-2.23c1.59-1.72,2.83-3.76,3.62-5.96
				C135.87,116.56,135.96,116.3,135.93,116.03z"/>
			<path class="st3" d="M94.63,49.92c0.56-2.2,1.05-4.4,1.07-6.67c0.01-1.14-0.02-2.29-0.17-3.41c-0.1-0.75-0.14-1.79-0.94-2.14
				c0.14,0.41,0.24,0.84,0.3,1.27c0.09,0.65,0.09,1.32,0.08,1.98c-0.01,1.6-0.04,3.14-0.31,4.73c-0.52,3.08-1.33,6.18-1.57,9.32
				c-0.24,3.11,0.26,6.3,0.98,9.33c0.01,0.06,0.11,0.05,0.1-0.01c-0.07-1.33-0.27-2.61-0.4-3.93c-0.06-0.59-0.13-1.19-0.18-1.78
				c-0.05-0.6,0.03-1.16,0.07-1.75C93.79,54.49,94.05,52.21,94.63,49.92z"/>
			<path class="st3" d="M96.68,85.15c-0.19-1.62-0.18-3.26-0.41-4.88c-0.13-0.89-0.2-1.79-0.29-2.69c-0.08-0.79-0.23-1.62-0.42-2.4
				c-0.34,0.16,0.04,2.06,0.07,2.46c0.08,0.99,0.14,1.99,0.18,2.99c0.1,2.26,0.12,4.52,0.13,6.78c0.01,1.12-0.12,2.23-0.09,3.36
				c0.01,0.55,0.04,1.09,0.06,1.64c0.06,2.28-0.16,4.57-0.64,6.79c-0.2,0.94-0.55,1.78-0.75,2.73c-0.22,1.08-0.48,2.15-0.87,3.19
				c-0.25,0.68-0.56,1.35-0.87,2.01c-0.32,0.68-0.65,1.36-0.99,2.03c-0.8,1.61-2.01,3.13-2.98,4.66c-0.66,1.03-1.32,2.07-2.12,3
				c2.39-2.24,4.64-4.45,6.06-7.45c1.06-2.24,2-4.58,2.76-6.94c0.43-1.32,0.77-2.67,0.93-4.06c0.17-1.47,0.14-2.96,0.12-4.44
				c-0.01-1.45,0.04-2.88,0.16-4.32C96.86,88.09,96.86,86.66,96.68,85.15z"/>
			<path class="st3" d="M49.49,102.34c-0.01-0.12-0.02-0.24-0.03-0.36c-0.12-1.38-0.18-2.76-0.18-4.14c0-2.76,0.25-5.53,0.74-8.25
				c0.1-0.54,0.21-1.09,0.32-1.63c-0.45,0.82-0.6,1.76-0.74,2.67c-0.15,0.96-0.36,1.89-0.46,2.85c-0.23,2.09-0.23,4.2-0.23,6.3
				c0,2.11,0.19,4.1,0.74,6.14c0.01,0.02,0.04,0.02,0.04-0.01C49.54,104.73,49.57,103.53,49.49,102.34z"/>
			<path class="st3" d="M23.72,52.83c-0.24-0.15-0.45-0.33-0.68-0.49c-0.58-0.4-1.2-0.62-1.87-0.79c-0.27-0.07-0.52-0.16-0.8-0.17
				c-0.29-0.01-0.61,0.07-0.88-0.09c-0.12-0.07-0.21-0.18-0.3-0.29c-0.35-0.44-0.71-0.89-0.94-1.41c-0.11-0.26-0.2-0.53-0.35-0.77
				c-0.48-0.73-1.25-0.65-1.97-0.45c-1.02,0.29-1.98,0.61-2.96,1.03c-1.07,0.46-2.09,1.01-3.05,1.67c-0.5,0.35-0.99,0.72-1.46,1.11
				c-0.18,0.15-1.86,1.65-1.04,1.71c0.19,0.01,0.35-0.11,0.5-0.23c2.29-1.82,5.03-2.98,7.77-4.01c0.44-0.17,0.91-0.33,1.36-0.22
				c0.3,0.07,0.57,0.26,0.81,0.46c0.42,0.36,0.78,0.77,1.07,1.24c-0.06,0.19-0.26,0.29-0.45,0.36c-1.47,0.56-2.99,1.01-4.44,1.63
				s-2.85,1.43-3.92,2.59c0.12,0.12,0.33,0.09,0.49,0.04c1.84-0.54,3.53-1.51,5.28-2.31c0.73-0.34,1.52-0.65,2.32-0.53
				c0.39,0.06,0.77,0.22,1.17,0.19c0.34-0.03,0.66-0.21,0.99-0.28c0.72-0.15,1.43,0.19,2.1,0.48c0.26,0.11,0.51,0.26,0.76,0.37
				c0.32,0.13,0.71,0.16,1.04,0.28c0.54,0.19,1.07,0.45,1.63,0.56c-0.45-0.41-0.92-0.8-1.42-1.16
				C24.23,53.16,23.98,52.99,23.72,52.83z"/>
			<path class="st3" d="M39.18,72.06c0.05-0.3,0.07-0.58,0.04-0.68c-0.18-0.73-0.72-1.46-1.21-2.02c0.22,0.56,0.01,1.22,0.24,1.78
				c0.06,0.15,0.16,0.29,0.24,0.43c0.2,0.38,0.26,0.82,0.39,1.23c0.01,0.02,0.02,0.05,0.04,0.07C39,72.93,39.11,72.49,39.18,72.06z"
				/>
			<path class="st3" d="M49.14,112.04c-0.11,0-0.18,0.06-0.27,0.12c-0.08,0.05-0.16,0.11-0.24,0.16c-0.16,0.11-0.32,0.22-0.48,0.32
				s-0.31,0.2-0.47,0.3c-0.17,0.1-0.34,0.18-0.43,0.37c-0.02,0.03-0.01,0.08,0.04,0.09c0.09,0.02,0.17,0.02,0.25-0.01
				c0.1-0.03,0.19-0.09,0.28-0.14c0.18-0.09,0.35-0.19,0.51-0.3c0.16-0.1,0.32-0.21,0.48-0.32c0.09-0.06,0.17-0.12,0.25-0.19
				s0.17-0.12,0.2-0.23C49.3,112.13,49.23,112.04,49.14,112.04z"/>
			
				<linearGradient id="SVGID_1_" gradientUnits="userSpaceOnUse" x1="114.907" y1="821.582" x2="82.1654" y2="788.0303" gradientTransform="matrix(1 0 0 1 0 -692)">
				<stop  offset="0" style="stop-color:#A35E26"/>
				<stop  offset="0.3854" style="stop-color:#C77639;stop-opacity:0.6146"/>
				<stop  offset="1" style="stop-color:#FC9956;stop-opacity:0"/>
			</linearGradient>
			<path class="st4" d="M107.16,114.39c-0.33,3.6-0.46,7.25-1.47,10.72c-2.95-1.58-6.24-2.38-9.5-3.12
				c-5.6-1.27-11.27-2.38-17.01-2.47c1.71-0.64,3.49-1.1,5.3-1.36c2.54-0.36,5.12-0.33,7.69-0.29c0.3,0,0.59,0.01,0.88-0.04
				c0.43-0.07,0.84-0.24,1.24-0.41c2.56-1.09,5.13-2.18,7.69-3.27c-0.56-1.14-1.01-2.33-1.33-3.56c-0.07-0.25-0.03-0.64,0.23-0.63
				c0.36-0.05,0.67,0.25,0.84,0.57s0.28,0.68,0.54,0.93c0.48,0.45,1.29,0.32,1.79-0.11s0.75-1.07,0.98-1.68
				c0.64-1.69,1.24-3.39,1.82-5.1c0.23-0.68,0.41-1.38,0.67-2.05c0.24-0.62,0.66-1.14,0.86-1.78c0.37-1.12,0.27-2.44,1.03-3.34
				c0.22,0.26,0.22,0.63,0.21,0.97c-0.03,1.41-0.58,2.76-0.82,4.15c-0.32,1.86-0.63,3.72-0.9,5.58
				C107.61,110.2,107.35,112.29,107.16,114.39z"/>
			
				<linearGradient id="SVGID_00000047058966868358750220000004626157121254334375_" gradientUnits="userSpaceOnUse" x1="151.5919" y1="806.6254" x2="124.764" y2="798.9689" gradientTransform="matrix(1 0 0 1 0 -692)">
				<stop  offset="0" style="stop-color:#A35E26"/>
				<stop  offset="0.3854" style="stop-color:#C77639;stop-opacity:0.6146"/>
				<stop  offset="1" style="stop-color:#FC9956;stop-opacity:0"/>
			</linearGradient>
			<path style="fill:url(#SVGID_00000047058966868358750220000004626157121254334375_);" d="M138.49,99.08
				c-0.65,0.83-1.39,1.84-1.06,2.84c0.11,0.32,0.32,0.61,0.41,0.93c0.16,0.57-0.06,1.16-0.27,1.71c-0.69,1.75-1.52,3.66-3.23,4.45
				c-0.93,0.44-2,0.47-3.02,0.63c-1.21,0.2-2.42,0.62-3.33,1.44c-0.61,0.56-1.06,1.27-1.44,2.01c-1.23,2.34-1.94,4.92-2.64,7.47
				c-0.06,0.22-0.12,0.45-0.1,0.68c0.03,0.34,0.22,0.64,0.45,0.89c0.76,0.8,1.89,1.1,2.94,1.45c1.05,0.35,2.15,0.88,2.6,1.89
				c1.54-1.66,3.09-3.34,4.3-5.26c0.97-1.53,1.37-3,2.02-4.64c0.67-1.72,1.42-3.41,2.23-5.06c0.52-1.05,1.06-2.09,1.52-3.16
				c0.84-1.99,1.36-4.09,1.88-6.18c0.18-0.75,0.37-1.5,0.35-2.27c-0.01-0.41-0.09-0.81-0.16-1.21c-0.18-1.01-0.37-2.03-0.55-3.04
				C140.51,96.2,139.6,97.68,138.49,99.08z"/>
			
				<linearGradient id="SVGID_00000090267015374987544110000009501024572901563069_" gradientUnits="userSpaceOnUse" x1="97.0441" y1="815.6301" x2="130.8351" y2="810.9932" gradientTransform="matrix(1 0 0 1 0 -692)">
				<stop  offset="0" style="stop-color:#A35E26"/>
				<stop  offset="0.1816" style="stop-color:#A96229;stop-opacity:0.8184"/>
				<stop  offset="0.4242" style="stop-color:#BA6D32;stop-opacity:0.5758"/>
				<stop  offset="0.7011" style="stop-color:#D68041;stop-opacity:0.2989"/>
				<stop  offset="1" style="stop-color:#FC9956;stop-opacity:0"/>
			</linearGradient>
			<path style="fill:url(#SVGID_00000090267015374987544110000009501024572901563069_);" d="M123.35,124.29
				c-0.07-0.59-0.24-1.23-0.72-1.59c-0.59-0.44-1.43-0.32-2.11-0.62c-0.67-0.3-1.09-0.97-1.47-1.61c-0.24-0.41-0.49-0.94-0.22-1.34
				c0.18-0.28,0.54-0.37,0.85-0.51s0.61-0.45,0.51-0.76c-0.03-0.1-0.1-0.18-0.16-0.25c-0.9-1.05-2.06-1.87-3.35-2.37
				c0.9,1.77,0.09,4.01,0.86,5.84c0.14,0.33,0.34,0.65,0.44,1c0.22,0.7,0.07,1.46-0.05,2.19c-0.04,0.22-0.07,0.46,0.04,0.65
				c0.22,0.38,0.77,0.31,1.2,0.25c1.12-0.14,2.15,0.17,3.2,0.49C123.62,126.05,123.47,125.31,123.35,124.29z"/>
			
				<linearGradient id="SVGID_00000085954296091216231740000005812335009716049028_" gradientUnits="userSpaceOnUse" x1="157.6446" y1="803.0524" x2="104.8997" y2="787.0944" gradientTransform="matrix(1 0 0 1 0 -692)">
				<stop  offset="0" style="stop-color:#A35E26"/>
				<stop  offset="0.3854" style="stop-color:#C77639;stop-opacity:0.6146"/>
				<stop  offset="1" style="stop-color:#FC9956;stop-opacity:0"/>
			</linearGradient>
			<path style="fill:url(#SVGID_00000085954296091216231740000005812335009716049028_);" d="M117.64,115.49
				c1.03-1.89,1.01-4.14,1.02-6.29c0-0.7,0.09-1.53,0.71-1.85c0.47-0.24,1.03-0.07,1.55-0.04c0.9,0.06,1.8-0.33,2.5-0.89
				c0.71-0.57,1.25-1.31,1.75-2.06c0.54-0.81,1.04-1.68,1.17-2.64c0.2-1.53-0.53-3.26,0.33-4.54c0.36-0.53,0.94-0.87,1.51-1.17
				c1.63-0.84,3.38-1.47,4.92-2.47s2.9-2.48,3.2-4.29c0.06-0.39,0.07-0.83-0.19-1.12c-0.35-0.4-0.97-0.36-1.5-0.28
				c-1.51,0.22-3.06,0.41-4.53,0.03c-2.39-0.62-4.39-2.72-6.86-2.58c-0.82,0.04-1.6,0.34-2.37,0.63c-1.19,0.46-2.5,0.56-3,1.92
				c-0.1,0.27-0.15,0.55-0.26,0.81c-0.25,0.61-0.75,1.08-1.17,1.58c-1.58,1.91-2.04,4.53-1.96,7c0.08,2.48,0.62,4.92,0.77,7.39
				c0.14,2.26-0.05,4.52,0.09,6.78C115.43,113.04,115.74,115.03,117.64,115.49z"/>
			
				<linearGradient id="SVGID_00000042717445313149042240000010738712341009575337_" gradientUnits="userSpaceOnUse" x1="138.5386" y1="747.0466" x2="106.7508" y2="765.2596" gradientTransform="matrix(1 0 0 1 0 -692)">
				<stop  offset="0" style="stop-color:#A35E26"/>
				<stop  offset="0.3854" style="stop-color:#C77639;stop-opacity:0.6146"/>
				<stop  offset="1" style="stop-color:#FC9956;stop-opacity:0"/>
			</linearGradient>
			<path style="fill:url(#SVGID_00000042717445313149042240000010738712341009575337_);" d="M119.86,86.27
				c1.05-0.44,2.15-0.8,3.29-0.83c0.59-0.02,1.18,0.05,1.77,0.02c2.84-0.12,5.12-2.36,6.86-4.61c0.32-0.41,0.63-0.84,0.78-1.33
				c0.15-0.52,0.11-1.07,0.06-1.61c-0.19-2.22-0.39-4.46-0.96-6.62c-0.08-0.3-0.18-0.62-0.42-0.81c-0.21-0.16-0.48-0.21-0.74-0.23
				c-1.37-0.12-2.75,0.16-4.13,0.08c-3.01-0.18-5.62-2.07-8.03-3.88c-0.25-0.18-0.5-0.38-0.63-0.65c-0.4-0.81,0.41-1.67,1.09-2.26
				c2.19-1.91,3.92-4.37,4.97-7.08c-0.66-0.54-1.6-0.55-2.44-0.47c-1.6,0.15-3.17,0.52-4.67,1.1c-0.82,0.32-1.65,0.7-2.53,0.69
				c-1.6-0.03-2.85-1.34-4.24-2.13c-0.54-0.31-1.14-0.55-1.57-1c-0.65-0.67-0.8-1.67-1.2-2.52c-0.4-0.85-1.37-1.62-2.2-1.21
				c-0.31,1.54-0.63,3.11-0.43,4.67c0.09,0.71,0.28,1.41,0.25,2.12c-0.04,0.96-0.48,1.84-0.7,2.78c-0.5,2.17,0.23,4.41,0.95,6.52
				c0.73-0.19,1.51,0.26,1.96,0.88s0.64,1.37,0.88,2.09c0.47,1.43,1.14,2.79,1.98,4.03c0.68,1.01,1.48,1.94,2.12,2.98
				c1.09,1.78,1.67,3.82,2.36,5.79c0.58,1.63,1.16,3.84,2.21,5.23c0.57,0.75,0.9,0.25,1.4-0.32
				C118.44,87.05,119.08,86.6,119.86,86.27z"/>
			
				<linearGradient id="SVGID_00000013879360937259791790000004877696450686925732_" gradientUnits="userSpaceOnUse" x1="123.5758" y1="771.9261" x2="86.8893" y2="769.2499" gradientTransform="matrix(1 0 0 1 0 -692)">
				<stop  offset="0" style="stop-color:#A35E26"/>
				<stop  offset="0.3854" style="stop-color:#C77639;stop-opacity:0.6146"/>
				<stop  offset="1" style="stop-color:#FC9956;stop-opacity:0"/>
			</linearGradient>
			<path style="fill:url(#SVGID_00000013879360937259791790000004877696450686925732_);" d="M109.07,58.89
				c0.16-0.19,0.31-0.37,0.47-0.56c0.03-0.04,0.07-0.08,0.07-0.13c0.01-0.05-0.03-0.11-0.08-0.11c-0.87,0.86-1.24-0.6-1.44-1.16
				c-0.22-0.61-0.4-1.25-0.66-1.84c-0.18-0.41-0.22-0.78-0.34-1.2c-0.17-0.57-0.48-1.12-0.71-1.67c-0.11-0.25-0.22-0.5-0.39-0.71
				s-0.42-0.37-0.69-0.39c-0.08,0-0.18,0.01-0.23,0.07c-0.04,0.04-0.05,0.09-0.07,0.14c-0.42,1.36-0.5,2.83-0.23,4.23
				c-0.56-0.16-1.09-0.65-1.6-0.95c-0.59-0.36-1.2-0.7-1.81-1.03s-1.23-0.64-1.86-0.93c-0.23-0.11-1.78-0.61-1.83-0.8
				c1.82,8.15,3.64,16.29,5.46,24.44c0.41,1.84,0.82,3.68,1.03,5.56c0.13,1.22,0.11,2.64-0.83,3.44c-0.52,0.44-1.21,0.6-1.87,0.74
				c-1.43,0.3-2.85,0.61-4.28,0.91c2.81,1.77,5.12,4.33,6.59,7.31c0.21,0.42,0.39,0.95,0.13,1.34c-0.15,0.23-0.42,0.34-0.66,0.48
				c-1.16,0.68-1.62,2.08-2.12,3.32c-0.91,2.24-2.22,4.31-3.85,6.09c1.61-0.28,3.23-0.56,4.84-0.84c0.87-0.15,1.77-0.29,2.56-0.7
				c0.68-0.35,1.42-0.28,2.05,0.22c0.35-0.36,0.52-0.86,0.67-1.34c0.49-1.58,1.14-3.17,1.47-4.79c0.05-0.23,0.1-0.47,0.24-0.65
				c0.11-0.14,0.26-0.24,0.37-0.38c0.19-0.25,0.21-0.57,0.22-0.88c0.03-0.84,0.07-1.68,0.1-2.52c0.03-0.69-0.01-1.38,0.23-2.03
				c0.52-1.38,0.78-2.92,1.16-4.35c0.79-2.94,1.15-6.01,1.06-9.05c-0.01-0.29-0.02-0.58-0.12-0.84c-0.11-0.29-0.31-0.54-0.5-0.78
				c-0.52-0.63-1.04-1.27-1.56-1.9c-1.26-1.54-2.09-3.57-2.79-5.43c-0.45-1.22-1.28-2.74-1.48-4c-0.11-0.68,0-1.48,0.31-2.1
				C106.96,61.44,107.86,60.33,109.07,58.89z"/>
			
				<linearGradient id="SVGID_00000105388357928534173540000017242230290161285250_" gradientUnits="userSpaceOnUse" x1="32.6329" y1="764.0444" x2="33.8261" y2="784.6397" gradientTransform="matrix(1 0 0 1 0 -692)">
				<stop  offset="0" style="stop-color:#A35E26"/>
				<stop  offset="0.3854" style="stop-color:#C77639;stop-opacity:0.6146"/>
				<stop  offset="1" style="stop-color:#FC9956;stop-opacity:0"/>
			</linearGradient>
			<path style="fill:url(#SVGID_00000105388357928534173540000017242230290161285250_);" d="M44.72,77.68
				c-0.12,0.28-0.28,0.6-0.58,0.67c-0.15,0.04-0.3,0-0.45-0.03c-0.58-0.13-1.16-0.25-1.73-0.38c0.17,2.22-0.15,4.48-0.93,6.57
				c-0.05,0.14-0.12,0.3-0.26,0.36s-0.29,0.01-0.43-0.03c-1.48-0.39-2.86,0.73-4.22,1.42c-1.84,0.92-4.04,1.08-5.99,0.44
				c-1.54-0.51-2.88-1.48-4.22-2.4c-2.46-1.72-4.99-3.34-7.51-4.97c1.03,2.48,2.07,4.99,3.63,7.17c1.11,1.55,2.47,2.93,3.41,4.6
				c0.43,0.75,0.76,1.56,1.28,2.26c0.71,0.94,1.72,1.62,2.77,2.16c4.11,2.13,9.13,2.47,13.49,0.89c-0.14-4.13-0.22-8.3,0.69-12.33
				c0.33-1.43,0.77-2.83,1.22-4.23s0.9-2.79,1.34-4.19c0.22-0.68,0.43-1.35,0.65-2.03c0.12-0.38,0.61-1.3,0.34-1.63
				C46.26,73.83,45.54,75.8,44.72,77.68z"/>
			
				<linearGradient id="SVGID_00000115505376618712386840000010411355269426573199_" gradientUnits="userSpaceOnUse" x1="24.57" y1="785.2961" x2="43.16" y2="785.2961" gradientTransform="matrix(1 0 0 1 0 -692)">
				<stop  offset="0" style="stop-color:#A35E26"/>
				<stop  offset="0.3854" style="stop-color:#C77639;stop-opacity:0.6146"/>
				<stop  offset="1" style="stop-color:#FC9956;stop-opacity:0"/>
			</linearGradient>
			<path style="fill:url(#SVGID_00000115505376618712386840000010411355269426573199_);" d="M27.71,94.49
				c0.35,0.24,0.72,0.43,1.1,0.63c0.5,0.26,0.99,0.52,1.49,0.78c0.44,0.23,0.87,0.46,1.33,0.64c1.26,0.51,2.63,0.63,3.98,0.67
				c2.07,0.06,4.03-0.11,6.06-0.35c0.54-0.06,1.06-0.28,1.49-0.61c-0.05-0.99-0.09-1.97-0.11-2.96c-0.02-0.84-0.15-1.65-0.05-2.49
				c0.02-0.15,0-1.42,0.01-1.43c-0.37,0.25-0.58,0.67-0.89,0.99s-0.84,0.53-1.19,0.25c0.32,0.55,0.64,1.16,0.49,1.77
				c-0.08,0.32-0.28,0.6-0.52,0.83c-0.64,0.64-1.56,0.97-2.46,0.93c-0.82-0.03-1.9-0.23-2.54-0.77c-0.29-0.24-0.49-0.57-0.74-0.85
				c-0.31-0.36-0.9-0.86-1.39-0.88c-0.65-0.03-1.33,0.48-1.84,0.81c-1.24,0.81-2.66,0.88-3.97,0.2c-1.25-0.65-2-1.79-3.39-2.22
				c0.2,0.32,0.39,0.64,0.59,0.97c0.68,1.11,1.38,2.26,2.44,3.02C27.64,94.44,27.67,94.46,27.71,94.49z"/>
			
				<linearGradient id="SVGID_00000005242466186479353950000001565952484183799711_" gradientUnits="userSpaceOnUse" x1="32.9898" y1="747.366" x2="7.8927" y2="760.97" gradientTransform="matrix(1 0 0 1 0 -692)">
				<stop  offset="0" style="stop-color:#A35E26"/>
				<stop  offset="0.3854" style="stop-color:#C77639;stop-opacity:0.6146"/>
				<stop  offset="1" style="stop-color:#FC9956;stop-opacity:0"/>
			</linearGradient>
			<path style="fill:url(#SVGID_00000005242466186479353950000001565952484183799711_);" d="M24.41,60.96
				c-0.1-0.22-0.47-0.18-0.61,0.03c-0.14,0.2-0.12,0.47-0.09,0.72c0.1,0.92,0.19,1.83,0.29,2.75c0.23,2.18,0.47,4.4,1.32,6.42
				c0.36,0.86,0.83,1.7,0.95,2.63c-2.8-1.82-5.92-3.52-9.26-3.38c-0.49,2.36-0.24,4.86,0.71,7.07c0.22,0.52,0.48,1.04,0.51,1.6
				c-0.01-0.12-0.4-0.44-0.48-0.54c-0.13-0.16-0.29-0.32-0.41-0.49c-0.23-0.31-0.32-0.73-0.46-1.1c-0.3-0.85-0.62-1.69-0.97-2.51
				c-0.7-1.61-1.58-3.16-2.8-4.42c-0.69-0.71-1.48-1.33-2.13-2.08c-1.11-1.29-1.75-2.92-2.05-4.6c-0.18-0.98-0.25-1.98-0.26-2.97
				c-0.01-0.5,0-1,0.02-1.5c0.01-0.21,0-0.43,0.05-0.63c0.04-0.16,0.16-0.29,0.12-0.47c-0.01-0.07-0.05-0.13-0.1-0.18
				c-0.14-0.16-0.34-0.26-0.53-0.37c-0.54-0.33-1.38-1.26-1.4-1.92c-0.01-0.45,0.27-0.85,0.54-1.2c0.08,0.36,0.58,0.41,0.94,0.34
				c0.56-0.11,1.1-0.29,1.62-0.54c0.34-0.16,0.68-0.36,1.05-0.36s0.78,0.28,0.76,0.65c-0.02,0.33-0.35,0.54-0.62,0.73
				c-0.47,0.33-0.86,0.77-1.15,1.26c0.77,0.33,1.54,0.66,2.32,0.99c0.13,0.05,0.26,0.11,0.39,0.08c0.15-0.03,0.26-0.15,0.36-0.26
				c1.59-1.7,4.01-2.57,6.32-2.27c-0.46,0.21-2.93,0.96-2.44,1.63c0.17,0.24,1.11,0.34,1.4,0.45c0.47,0.17,0.93,0.36,1.37,0.58
				C21.53,58.01,23.16,59.33,24.41,60.96z"/>
			
				<linearGradient id="SVGID_00000142871309508241146500000007373132184431983511_" gradientUnits="userSpaceOnUse" x1="3.4788" y1="752.5946" x2="16.6182" y2="752.0645" gradientTransform="matrix(1 0 0 1 0 -692)">
				<stop  offset="0" style="stop-color:#A35E26"/>
				<stop  offset="0.3854" style="stop-color:#C77639;stop-opacity:0.6146"/>
				<stop  offset="1" style="stop-color:#FC9956;stop-opacity:0"/>
			</linearGradient>
			<path style="fill:url(#SVGID_00000142871309508241146500000007373132184431983511_);" d="M9.91,57.79
				c0.07,0.89,0.53,1.79,1.32,2.22c0.36,0.2,0.8,0.31,1.06,0.63c0.08,0.1,0.14,0.22,0.14,0.34c-0.01,0.19-0.18,0.34-0.36,0.4
				c-0.18,0.05-0.38,0.03-0.56,0.01c-0.3-0.04-0.59-0.07-0.89-0.11c-0.14-0.02-0.28-0.03-0.42-0.01c-0.33,0.06-0.56,0.37-0.66,0.69
				c-0.1,0.32-0.09,0.66-0.11,0.99c-0.02,0.33-0.08,0.68-0.28,0.95c-0.1-0.06-0.13-0.2-0.16-0.31c-0.19-1.05-0.38-2.09-0.47-3.15
				c-0.07-0.92-0.06-1.87,0.25-2.75c0.1-0.29,0.29-0.85,0.67-0.87C9.9,56.79,9.88,57.48,9.91,57.79z"/>
			
				<linearGradient id="SVGID_00000067927139065375566810000018198778952246987666_" gradientUnits="userSpaceOnUse" x1="87.602" y1="736.6793" x2="79.2345" y2="713.6906" gradientTransform="matrix(1 0 0 1 0 -692)">
				<stop  offset="0" style="stop-color:#A35E26"/>
				<stop  offset="0.2417" style="stop-color:#A66028;stop-opacity:0.7583"/>
				<stop  offset="0.4454" style="stop-color:#B1672D;stop-opacity:0.5546"/>
				<stop  offset="0.6353" style="stop-color:#C27337;stop-opacity:0.3647"/>
				<stop  offset="0.817" style="stop-color:#DB8344;stop-opacity:0.183"/>
				<stop  offset="0.9912" style="stop-color:#FA9855;stop-opacity:8.791924e-03"/>
				<stop  offset="1" style="stop-color:#FC9956;stop-opacity:0"/>
			</linearGradient>
			<path style="fill:url(#SVGID_00000067927139065375566810000018198778952246987666_);" d="M94.32,24.62
				c-1.49,0.71-2.83,1.71-4.31,2.43c-3.54,1.71-7.64,1.77-11.56,1.44c-1.59-0.13-3.2-0.33-4.66-0.97c-0.27-0.12-0.55-0.26-0.85-0.27
				c-0.52-0.02-0.9,0.57-1.22,0.9c-0.48,0.49-0.95,0.99-1.5,1.39c-0.46,0.34-1,0.65-1.22,1.18c-0.09,0.21-0.12,0.44-0.11,0.67
				c0.02,0.97,0.62,1.86,1.39,2.46c0.77,0.6,1.69,0.95,2.6,1.3c0.99,0.38,1.98,0.75,2.96,1.13c0.42,0.16,0.87,0.33,1.31,0.26
				c0.5-0.07,0.91-0.41,1.37-0.59c0.47-0.19,0.98-0.31,1.46-0.49c1.25-0.46,2.49-0.93,3.57-1.7c1.17-0.83,2.27-1.75,3.3-2.74
				c0.83-0.79,1.61-1.63,2.45-2.41c0.82-0.76,1.68-1.48,2.58-2.15c0.46-0.34,0.93-0.67,1.4-0.98C93.55,25.33,94.46,25,94.32,24.62z"
				/>
			
				<linearGradient id="SVGID_00000021087845865698822280000013056904898714378923_" gradientUnits="userSpaceOnUse" x1="85.852" y1="746.3018" x2="86.0174" y2="725.6332" gradientTransform="matrix(1 0 0 1 0 -692)">
				<stop  offset="0" style="stop-color:#A35E26"/>
				<stop  offset="0.3854" style="stop-color:#C77639;stop-opacity:0.6146"/>
				<stop  offset="1" style="stop-color:#FC9956;stop-opacity:0"/>
			</linearGradient>
			<path style="fill:url(#SVGID_00000021087845865698822280000013056904898714378923_);" d="M75.97,38.61
				c3.93,0.38,7.92-0.36,11.64-1.69c3.72-1.33,7.21-3.24,10.6-5.26c2.14-1.27,4.31-2.6,6.76-3.02c0.88-0.15,1.84-0.16,2.59,0.33
				c-1.96,0.55-3.84,1.42-5.54,2.56c0.16-0.02,0.24,0.22,0.16,0.36c-0.09,0.14-0.26,0.19-0.41,0.25c-1.1,0.4-1.96,1.27-2.84,2.03
				c-3.34,2.88-7.56,4.49-11.69,6.05c0.23-0.4,0.31-0.87,0.25-1.33c-3.15,0.71-6.32,1.41-9.55,1.58c-3.22,0.17-6.53-0.21-9.47-1.55
				c0.06,0.22,0.12,0.44,0.19,0.66c-1.14-0.29-2.18-0.95-2.93-1.85c0.27-0.03,0.55-0.07,0.82-0.1c-0.41,0.05-1.94-2.04-2.02-2.43
				c-0.26-1.38,1.35-0.33,1.75-0.05c1.83,1.23,3.86,2.16,5.98,2.77C73.47,38.25,74.72,38.49,75.97,38.61z"/>
			
				<linearGradient id="SVGID_00000008866495328787950680000004830731494881852050_" gradientUnits="userSpaceOnUse" x1="38.1657" y1="759.7648" x2="62.527" y2="743.2852" gradientTransform="matrix(1 0 0 1 0 -692)">
				<stop  offset="0" style="stop-color:#A35E26"/>
				<stop  offset="0.3854" style="stop-color:#C77639;stop-opacity:0.6146"/>
				<stop  offset="1" style="stop-color:#FC9956;stop-opacity:0"/>
			</linearGradient>
			<path style="fill:url(#SVGID_00000008866495328787950680000004830731494881852050_);" d="M57.28,49.04
				c-1.99,2.34-4.85,3.82-6.85,6.15c1.23-0.89,2.65-1.51,4.14-1.81c0.12-0.02,0.24-0.04,0.35-0.02c0.6,0.15,0.38,1.36,1,1.45
				c0.1,0.01,0.2-0.01,0.3-0.04c6.41-1.67,12.46-4.56,18.88-6.15c-2.16,0.08-4.28,0.58-6.38,1.07c-1.94,0.46-3.87,0.91-5.8,1.37
				c-0.66,0.16-1.33,0.31-1.99,0.47c0.31-0.07,0.35-1.21,0.53-1.46c0.32-0.45,1.02-0.84,1.48-1.15c0.85-0.56,2.43-1.59,3.49-1.53
				c-1.68-0.1-3.3,0.46-4.92,0.82c-0.85,0.18-1.66,0.26-2.52,0.29C58.44,48.54,57.67,48.58,57.28,49.04z"/>
			
				<linearGradient id="SVGID_00000013876602643307074830000013489813566149256593_" gradientUnits="userSpaceOnUse" x1="80.7192" y1="767.054" x2="94.5084" y2="763.8365" gradientTransform="matrix(1 0 0 1 0 -692)">
				<stop  offset="0" style="stop-color:#A35E26"/>
				<stop  offset="0.3854" style="stop-color:#C77639;stop-opacity:0.6146"/>
				<stop  offset="1" style="stop-color:#FC9956;stop-opacity:0"/>
			</linearGradient>
			<path style="fill:url(#SVGID_00000013876602643307074830000013489813566149256593_);" d="M85.3,69.25
				c0.56-0.28,1.24-0.17,1.86-0.04c4.9,1.06,9.69,2.92,13.71,5.92c-2.55-0.74-5.07-1.62-7.52-2.64c0.24,0.4,0.49,0.81,0.73,1.21
				c-0.14-0.24-1.97-0.59-2.35-0.82c-0.54-0.33-0.88-0.85-1.4-1.2C88.83,70.67,86.87,70.22,85.3,69.25z"/>
			
				<linearGradient id="SVGID_00000116193563208845305280000013582435487801543573_" gradientUnits="userSpaceOnUse" x1="59.7566" y1="787.192" x2="60.6771" y2="817.8457" gradientTransform="matrix(1 0 0 1 0 -692)">
				<stop  offset="0" style="stop-color:#A35E26"/>
				<stop  offset="0.3854" style="stop-color:#C77639;stop-opacity:0.6146"/>
				<stop  offset="1" style="stop-color:#FC9956;stop-opacity:0"/>
			</linearGradient>
			<path style="fill:url(#SVGID_00000116193563208845305280000013582435487801543573_);" d="M48.53,124.42
				c0.81-0.26,1.65-0.4,2.48-0.6c1.19-0.29,2.36-0.7,3.47-1.22c0.81-0.38,1.59-0.82,2.43-1.1c1.17-0.39,2.43-0.47,3.64-0.7
				c1.21-0.24,2.39-0.63,3.56-1.03c4.81-1.63,9.62-3.25,14.43-4.88c-1.92,0.17-3.79,0.67-5.66,1.12c-2.65,0.64-5.32,1.18-8.01,1.63
				c-1.4,0.23-2.81,0.44-4.23,0.63c-0.28,0.04-3.29,0.5-2.36-0.27c0.61-0.5,1.34-0.82,2.06-1.15c2.25-1.04,4.4-2.29,6.42-3.72
				c-2.46,0.7-4.7,1.96-6.96,3.12c-0.5,0.26-6.65,2.97-6.77,2.57c0.14,0.49-0.35,0.9-0.78,1.17c-0.88,0.55-4.14,3.31-5,1.65
				c0.72-1.05,0.33-2.49-0.26-3.61s-1.36-2.25-1.36-3.52c0.68,0.06,1.38-0.05,2.02-0.3c-1.19-0.08-2.35-0.57-3.24-1.36
				c0.11,0.74,0.03,1.5-0.22,2.21c-0.47,0.12-1.06-0.26-1.41,0.08c-0.17,0.17-0.19,0.44-0.19,0.68c-0.02,3.71-0.05,7.42-0.07,11.12
				c0,0.12,0,0.25,0.05,0.36c0.21,0.43,0.85,0.19,1.23-0.11C45.27,126.02,46.75,125.04,48.53,124.42z"/>
			
				<linearGradient id="SVGID_00000146490266083220556440000002974829135487276219_" gradientUnits="userSpaceOnUse" x1="44.504" y1="768.6742" x2="70.8997" y2="753.854" gradientTransform="matrix(1 0 0 1 0 -692)">
				<stop  offset="0" style="stop-color:#A35E26"/>
				<stop  offset="0.3854" style="stop-color:#C77639;stop-opacity:0.6146"/>
				<stop  offset="1" style="stop-color:#FC9956;stop-opacity:0"/>
			</linearGradient>
			<path style="fill:url(#SVGID_00000146490266083220556440000002974829135487276219_);" d="M68.78,60.16
				c5.81-0.63,11.68-0.33,17.5,0.24c-5.44,0.3-10.88,0.61-16.32,0.91c1.7,0.31,3.41,0.62,5.11,0.92c-1.67-0.3-3.77,0.09-5.46,0.22
				c-1.92,0.14-3.84,0.36-5.74,0.65c-1.87,0.28-3.73,0.63-5.57,1.05c-1.49,0.34-3.55,1.33-5.04,1.24c0.18-1.89,5.07-2.97,6.53-3.42
				C62.72,61.07,65.74,60.49,68.78,60.16z"/>
			<g>
				<path d="M64.3,33.37c-1.36,0.76-2.74,1.49-4.14,2.18c-1.29,0.64-2.61,1.21-3.93,1.8c-1.49,0.67-2.87,1.45-4.13,2.49
					c-1.23,1.01-2.33,2.18-3.38,3.38c-1.04,1.19-2,2.45-2.89,3.76c-0.88,1.29-1.73,2.65-2.41,4.06c-0.35,0.73-0.59,1.49-0.52,2.31
					c0.03,0.39,0.1,0.78,0.01,1.17s-0.26,0.74-0.44,1.09c-0.53,1.03-1.2,1.99-1.84,2.95c-0.34,0.51-0.68,1.01-1.01,1.52
					c-0.33,0.5-0.59,1.05-0.98,1.51c-0.25,0.29-0.54,0.55-0.7,0.89c-0.17,0.36-0.21,0.75-0.28,1.13c-0.14,0.87-0.24,1.74-0.3,2.62
					c-0.03,0.43-0.05,0.86-0.06,1.29c-0.01,0.52,0.8,0.52,0.81,0c0.02-0.86,0.08-1.71,0.18-2.57c0.05-0.42,0.11-0.84,0.18-1.26
					c0.06-0.36,0.09-0.74,0.32-1.04c0.22-0.29,0.49-0.54,0.71-0.84c0.19-0.27,0.34-0.56,0.51-0.84c0.3-0.46,0.6-0.91,0.9-1.36
					c0.67-1,1.35-2.01,1.96-3.05c0.32-0.55,0.64-1.12,0.8-1.74c0.2-0.78-0.09-1.56,0.07-2.34c0.16-0.75,0.56-1.43,0.93-2.1
					c0.38-0.68,0.78-1.35,1.2-2.01c0.84-1.31,1.75-2.58,2.74-3.78c0.99-1.21,2.05-2.37,3.2-3.43c1.16-1.07,2.43-1.96,3.84-2.66
					c1.32-0.65,2.69-1.2,4.01-1.83s2.63-1.3,3.92-2c0.37-0.2,0.74-0.4,1.11-0.61C65.16,33.82,64.76,33.12,64.3,33.37L64.3,33.37z"/>
			</g>
			<g>
				<path d="M38.28,63.5c-0.58-0.67-1.28-1.24-2.06-1.68c-0.39-0.22-0.8-0.41-1.22-0.56c-0.43-0.16-0.88-0.26-1.31-0.41
					c-0.42-0.14-0.78-0.35-1.1-0.66c-0.31-0.3-0.58-0.65-0.86-0.98c-0.58-0.7-1.2-1.36-1.84-2c-1.22-1.22-2.55-2.33-3.95-3.34
					c-1.11-0.8-2.28-1.55-3.52-2.14c-0.52-0.25-1.06-0.48-1.61-0.64c-0.37-0.11-0.78-0.2-1.17-0.15c-0.22,0.03-0.41,0.17-0.41,0.41
					c0,0.2,0.19,0.43,0.41,0.41c0.14-0.02,0.28-0.01,0.42,0c0.07,0.01-0.08-0.01,0.03,0.01c0.04,0.01,0.08,0.01,0.11,0.02
					c0.1,0.02,0.2,0.04,0.3,0.07c0.44,0.12,0.87,0.29,1.27,0.47c1.18,0.54,2.3,1.23,3.37,1.98c1.36,0.95,2.64,2.02,3.84,3.17
					c0.64,0.62,1.26,1.26,1.84,1.93c0.57,0.65,1.07,1.4,1.81,1.86c0.84,0.52,1.88,0.61,2.77,1.05c0.88,0.43,1.65,1.02,2.29,1.76
					C38.05,64.47,38.62,63.89,38.28,63.5L38.28,63.5z"/>
			</g>
			<g>
				<path d="M49.75,62.93c-2.05,6.32-4.1,12.64-5.75,19.08c-0.41,1.59-0.81,3.18-1.07,4.8c-0.26,1.63-0.31,3.26-0.28,4.91
					c0.03,1.66,0.1,3.31,0.02,4.97c-0.08,1.63-0.26,3.26-0.46,4.89c-0.39,3.27-0.79,6.54-0.6,9.84c0.19,3.25,0.75,6.5,0.6,9.76
					c-0.02,0.38-0.06,0.76-0.06,1.14c0,0.19,0.02,0.38,0.05,0.57c0.02,0.16,0.01,0.05,0.02,0.21c0.02,0.36,0.02,0.72,0.01,1.08
					c-0.01,0.86-0.06,1.74,0.03,2.59c0.03,0.28,0.05,0.59,0.21,0.83c0.28,0.42,0.83,0.21,1.22,0.09c0.99-0.29,1.86-0.85,2.57-1.58
					c0.24-0.24,0.45-0.5,0.68-0.74c0.08-0.09,0.17-0.16,0.2-0.18c0.08-0.06,0.03-0.02,0.05-0.03c0.2-0.08,0.42-0.12,0.63-0.18
					c1.14-0.31,2.31-0.51,3.46-0.77c0.68-0.15,1.37-0.32,2.02-0.55c0.68-0.24,1.32-0.58,1.96-0.9c0.66-0.33,1.32-0.6,2.04-0.75
					c0.79-0.17,1.59-0.31,2.39-0.43c3.23-0.47,6.5-0.61,9.76-0.83c3.33-0.22,6.65-0.47,9.99-0.54c1.67-0.03,3.34-0.02,5.01,0.06
					c1.37,0.07,2.72,0.24,4.08,0.44c1.22,0.19,2.44,0.38,3.66,0.59c0.61,0.1,1.22,0.2,1.83,0.31c0.57,0.1,1.13,0.24,1.7,0.31
					c0.1,0.01,0.19,0.02,0.29,0.04c0.45,0.07,0.87,0.24,1.3,0.39c0.59,0.21,1.2,0.37,1.81,0.54c0.58,0.15,1.16,0.33,1.74,0.48
					c0.55,0.14,1.06,0.43,1.57,0.69c0.66,0.35,1.28,0.75,1.99,1c0.42,0.15,0.98,0.43,1.43,0.24c0.24-0.11,0.35-0.34,0.41-0.58
					c0.09-0.41,0.15-0.83,0.22-1.24c0.26-1.6,0.49-3.21,0.66-4.82c0.18-1.64,0.22-3.29,0.34-4.93c0.12-1.68,0.3-3.35,0.57-5.01
					c0.52-3.21,1.29-6.38,1.71-9.6c0.21-1.61,0.28-3.22,0.37-4.84c0.09-1.63,0.32-3.2,0.84-4.76c0.43-1.3,0.81-2.58,1.03-3.93
					s0.35-2.71,0.44-4.08c0.09-1.24,0.14-2.49,0.2-3.73c0.03-0.52-0.79-0.52-0.81,0c-0.13,2.61-0.22,5.23-0.65,7.81
					c-0.23,1.35-0.63,2.61-1.06,3.9c-0.5,1.51-0.7,3.06-0.79,4.65c-0.09,1.57-0.14,3.14-0.34,4.71c-0.2,1.63-0.51,3.24-0.82,4.85
					c-0.61,3.15-1.2,6.28-1.45,9.49c-0.13,1.62-0.17,3.25-0.32,4.87c-0.15,1.59-0.37,3.18-0.62,4.76c-0.06,0.39-0.13,0.79-0.19,1.18
					c-0.03,0.14-0.12,0.38-0.09,0.52c0.02,0.12-0.03,0.07,0.1,0.05c-0.06,0.01-0.14-0.01-0.2-0.02c-0.6-0.13-1.21-0.4-1.73-0.71
					c-1.22-0.71-2.49-1.31-3.83-1.75c-2.5-0.83-5.16-1.17-7.75-1.6c-2.67-0.45-5.32-0.91-8.03-1.03c-3.27-0.15-6.55-0.01-9.81,0.19
					c-3.24,0.2-6.49,0.41-9.72,0.65c-1.59,0.12-3.17,0.26-4.74,0.48c-1.47,0.21-2.97,0.42-4.34,1.04c-0.67,0.31-1.31,0.67-1.99,0.96
					c-0.64,0.27-1.32,0.43-1.99,0.59c-1.12,0.27-2.25,0.45-3.36,0.73c-0.45,0.11-1.01,0.18-1.4,0.46c-0.24,0.17-0.43,0.4-0.62,0.62
					c-0.6,0.67-1.26,1.25-2.1,1.59c-0.25,0.1-0.52,0.18-0.79,0.25c-0.2,0.05-0.35,0.02-0.07,0.12c0.04,0.01,0.07,0.04,0.05,0.03
					c-0.04-0.3-0.09-0.56-0.1-0.87c-0.03-0.87,0.01-1.73,0.01-2.6c0-0.35-0.04-0.68-0.07-1.02c-0.08-0.8,0.06-1.62,0.06-2.42
					c0.01-1.61-0.13-3.21-0.28-4.81c-0.15-1.6-0.32-3.21-0.38-4.82c-0.06-1.59,0.02-3.18,0.16-4.76c0.29-3.21,0.83-6.4,0.95-9.63
					c0.06-1.64-0.03-3.27-0.05-4.91s0.07-3.27,0.36-4.88c0.58-3.19,1.5-6.34,2.4-9.45c0.9-3.12,1.86-6.21,2.85-9.3
					c0.48-1.51,0.97-3.02,1.46-4.53C50.7,62.65,49.91,62.43,49.75,62.93z"/>
			</g>
			<g>
				<path d="M106.7,67.81c0.36,1.82,1.23,3.47,2.11,5.09c0.22,0.4,0.43,0.81,0.68,1.19c0.25,0.38,0.54,0.73,0.81,1.1
					c0.47,0.64,0.9,1.3,1.26,2.01c0.34,0.67,0.6,1.36,0.87,2.06c0.28,0.7,0.56,1.4,0.85,2.1c0.54,1.33,1.04,2.68,1.65,3.97
					c0.34,0.73,0.62,1.49,0.93,2.23c0.3,0.72,0.61,1.46,1.09,2.09c0.13,0.17,0.35,0.27,0.55,0.15c0.17-0.1,0.28-0.38,0.15-0.55
					c-0.85-1.12-1.26-2.55-1.8-3.82c-0.13-0.3-0.26-0.58-0.41-0.87c-0.13-0.26-0.22-0.55-0.33-0.83c-0.28-0.7-0.56-1.4-0.85-2.09
					c-0.29-0.71-0.58-1.42-0.87-2.13c-0.27-0.68-0.52-1.38-0.82-2.05c-0.32-0.72-0.71-1.41-1.15-2.07
					c-0.49-0.72-1.06-1.38-1.49-2.13c-1.02-1.77-2.05-3.63-2.45-5.65C107.38,67.08,106.6,67.3,106.7,67.81L106.7,67.81z"/>
			</g>
			<g>
				<path d="M117.58,87.4c0.09,1.06-0.66,1.92-1.27,2.7c-0.7,0.91-1.25,1.89-1.59,2.99c-0.74,2.37-0.6,4.89-0.32,7.32
					c0.15,1.33,0.34,2.67,0.43,4.01c0.09,1.36,0.06,2.72,0.02,4.09c-0.03,1.36-0.06,2.72,0.09,4.07c0.07,0.6,0.18,1.22,0.52,1.73
					c0.31,0.47,0.76,0.82,1.02,1.33c0.55,1.08,0.36,2.39,0.4,3.55c0.04,1.14,0.25,2.38,1.15,3.17c0.39,0.34,0.97-0.23,0.57-0.57
					c-0.75-0.66-0.88-1.69-0.91-2.63c-0.03-1.07,0.07-2.16-0.23-3.21c-0.16-0.55-0.43-1.03-0.81-1.46
					c-0.17-0.19-0.35-0.37-0.49-0.59c-0.18-0.26-0.27-0.56-0.34-0.86c-0.13-0.61-0.15-1.26-0.17-1.88c-0.02-0.67-0.02-1.33-0.01-2
					c0.03-1.35,0.09-2.7,0.03-4.05c-0.06-1.33-0.23-2.64-0.39-3.96c-0.29-2.41-0.55-4.89,0.05-7.27c0.31-1.22,0.86-2.3,1.62-3.3
					c0.71-0.92,1.54-1.93,1.43-3.17C118.35,86.88,117.54,86.88,117.58,87.4L117.58,87.4z"/>
			</g>
			<g>
				<path d="M106.46,28.93c0.87,0.27,1.71,0.59,2.56,0.91c1.17,0.44,2.34,0.89,3.49,1.36c0.96,0.4,1.93,0.87,2.9,1.28
					c1.82,0.77,3.63,1.58,5.35,2.56c1.63,0.92,3.3,1.94,4.21,3.64c0.44,0.82,0.74,1.7,1.11,2.54c0.38,0.86,0.83,1.69,1.31,2.5
					c0.97,1.66,2.04,3.25,2.95,4.94c0.93,1.73,1.58,3.58,2.22,5.44c1.14,3.33,2.13,6.75,2.76,10.22c0.07,0.4,0.14,0.8,0.2,1.2
					c0.03,0.22,0.31,0.34,0.5,0.28c0.23-0.06,0.31-0.28,0.28-0.5c-0.51-3.53-1.51-7.01-2.62-10.39c-0.6-1.84-1.22-3.69-2.04-5.44
					c-0.81-1.74-1.86-3.36-2.87-4.99c-0.51-0.83-1.01-1.67-1.45-2.53c-0.44-0.84-0.79-1.72-1.16-2.59
					c-0.37-0.89-0.81-1.73-1.46-2.45c-0.63-0.69-1.4-1.24-2.18-1.74c-1.68-1.08-3.47-1.96-5.3-2.76c-0.46-0.2-0.92-0.4-1.37-0.59
					c-0.42-0.18-0.85-0.33-1.26-0.54c-0.34-0.17-0.68-0.33-1.03-0.49c-2.12-0.92-4.3-1.75-6.49-2.5c-0.14-0.05-0.28-0.1-0.42-0.14
					C106.18,27.99,105.97,28.78,106.46,28.93L106.46,28.93z"/>
			</g>
			<g>
				<path d="M135.53,65.52c0.16,0.96,0.32,1.91,0.58,2.85c0.27,0.94,0.67,1.81,1.17,2.65c0.89,1.5,1.74,2.99,2.39,4.61
					c1.3,3.22,2.06,6.68,2.26,10.14c0.12,1.92,0.06,3.84-0.19,5.75c-0.03,0.22,0.21,0.41,0.41,0.41c0.24,0,0.38-0.19,0.41-0.41
					c0.46-3.44,0.27-6.96-0.4-10.36c-0.67-3.39-1.86-6.73-3.65-9.69c-0.58-0.96-1.16-1.89-1.51-2.95c-0.34-1.04-0.51-2.12-0.69-3.2
					c-0.04-0.22-0.3-0.34-0.5-0.28C135.59,65.09,135.5,65.31,135.53,65.52L135.53,65.52z"/>
			</g>
			<g>
				<path d="M141.77,91.41c-0.09,0.61-0.32,1.17-0.51,1.75c-0.17,0.52-0.2,1.08-0.14,1.62c0.12,1.17,0.56,2.26,0.74,3.42
					c0.19,1.23-0.03,2.48-0.35,3.67c-0.32,1.19-0.75,2.35-1.22,3.5c-1.87,4.63-3.89,9.23-6.18,13.67c-0.32,0.62-0.64,1.23-0.97,1.84
					c-0.31,0.56-0.58,1.2-1.08,1.62c-0.26,0.22-0.53,0.4-0.76,0.65c-0.21,0.23-0.39,0.49-0.55,0.76c-0.31,0.52-0.56,1.06-0.98,1.51
					c-0.36,0.38,0.22,0.96,0.57,0.57c0.77-0.82,1.07-1.96,1.97-2.66c0.22-0.18,0.45-0.34,0.63-0.56c0.19-0.23,0.34-0.47,0.49-0.73
					c0.31-0.56,0.61-1.12,0.91-1.68c1.18-2.23,2.27-4.5,3.31-6.79c1.04-2.3,2.03-4.62,3-6.95c0.49-1.17,0.96-2.35,1.35-3.55
					c0.39-1.21,0.71-2.46,0.73-3.74c0.03-1.37-0.44-2.63-0.71-3.95c-0.12-0.58-0.18-1.2-0.04-1.78c0.08-0.32,0.22-0.62,0.32-0.94
					c0.11-0.34,0.2-0.68,0.25-1.02c0.03-0.22-0.05-0.44-0.28-0.5C142.08,91.08,141.81,91.19,141.77,91.41L141.77,91.41z"/>
			</g>
			<g>
				<path d="M117.93,121.94c-0.19,0.49-0.29,1.01-0.37,1.53c-0.07,0.55-0.15,1.21,0.12,1.71c0.14,0.27,0.42,0.44,0.73,0.43
					c0.22-0.01,0.41-0.18,0.41-0.41c0-0.21-0.19-0.42-0.41-0.41c-0.04,0-0.13-0.01,0.01,0.01c-0.03-0.01-0.08,0-0.02,0
					c0.05,0,0.02,0.02-0.02-0.01c0.11,0.09,0.03,0.03,0.01,0c-0.04-0.05,0.04,0.09,0.02,0.02c-0.01-0.02-0.03-0.05-0.04-0.07
					c0.06,0.1,0.02,0.05,0.01,0.01c-0.01-0.03-0.02-0.06-0.03-0.09s-0.01-0.06-0.02-0.09c-0.02-0.1,0,0.07,0-0.01
					c0-0.07-0.01-0.14-0.01-0.21c-0.01-0.16,0-0.32,0.02-0.48c0.01-0.09,0.02-0.17,0.03-0.26c-0.01,0.07,0,0,0-0.03
					c0.01-0.05,0.01-0.09,0.02-0.14c0.03-0.16,0.06-0.32,0.09-0.48c0.06-0.27,0.13-0.54,0.23-0.8c0.08-0.2-0.09-0.44-0.28-0.5
					C118.2,121.59,118.01,121.73,117.93,121.94L117.93,121.94z"/>
			</g>
			<g>
				<path d="M19.55,50.95c-2.21,0.35-4.39,1.08-6.37,2.13c-1,0.53-1.95,1.17-2.8,1.92c-0.4,0.35-0.77,0.73-1.11,1.15
					c-0.34,0.42-0.65,0.83-0.82,1.34c-0.39,1.18-0.39,2.48-0.26,3.7c0.13,1.28,0.4,2.55,0.72,3.8c0.59,2.28,2.63,3.84,4.17,5.49
					c1.49,1.59,2.12,3.73,3.04,5.66c0.22,0.47,0.46,0.94,0.75,1.37c0.3,0.47,0.66,0.88,0.94,1.37c0.61,1.06,0.93,2.25,1.32,3.41
					c0.45,1.33,1.01,2.57,1.8,3.74c0.79,1.18,1.67,2.29,2.5,3.44c0.75,1.03,1.42,2.12,2.17,3.15c0.33,0.46,0.67,0.94,1.07,1.34
					c0.33,0.34,0.74,0.61,1.13,0.87c0.88,0.56,1.81,1.02,2.69,1.58c0.47,0.3,0.93,0.6,1.45,0.81c0.44,0.18,0.9,0.27,1.37,0.33
					c0.46,0.05,0.92,0.05,1.39,0.07c0.6,0.02,1.19,0.08,1.79,0.14c1.48,0.16,2.97-0.02,4.42-0.3c0.72-0.14,1.44-0.3,2.16-0.47
					c0.51-0.12,0.29-0.9-0.22-0.78c-1.43,0.33-2.86,0.67-4.32,0.77c-1.31,0.09-2.59-0.14-3.89-0.17c-0.85-0.02-1.7-0.03-2.5-0.37
					c-0.48-0.2-0.89-0.5-1.33-0.77c-0.43-0.27-0.88-0.51-1.32-0.76c-0.81-0.46-1.73-0.92-2.36-1.62c-0.77-0.85-1.38-1.85-2.01-2.8
					c-0.76-1.14-1.6-2.22-2.41-3.32c-0.82-1.11-1.63-2.23-2.2-3.49c-0.52-1.15-0.84-2.38-1.28-3.57c-0.21-0.55-0.44-1.1-0.73-1.61
					c-0.27-0.47-0.61-0.87-0.91-1.31c-1.17-1.79-1.71-3.91-2.8-5.75c-1.13-1.91-3.09-3.16-4.33-4.99c-0.29-0.43-0.55-0.89-0.71-1.38
					c-0.18-0.55-0.29-1.13-0.41-1.69c-0.26-1.23-0.46-2.49-0.43-3.75c0.02-0.57,0.08-1.13,0.23-1.68c0.07-0.25,0.15-0.47,0.3-0.69
					c0.13-0.19,0.27-0.38,0.42-0.56c0.67-0.81,1.49-1.5,2.36-2.08c1.82-1.22,3.9-2.05,6.03-2.56c0.49-0.12,0.98-0.21,1.48-0.29
					c0.22-0.03,0.34-0.3,0.28-0.5C19.98,51.01,19.76,50.92,19.55,50.95L19.55,50.95z"/>
			</g>
			<g>
				<path d="M6.55,54.57C6.47,55.1,6.74,55.65,7,56.1c0.29,0.5,0.68,1.01,1.19,1.31c0.26,0.15,0.59,0.25,0.88,0.14
					c0.2-0.07,0.35-0.28,0.28-0.5c-0.06-0.2-0.28-0.36-0.5-0.28c-0.02,0.01-0.04,0.01-0.06,0.02c-0.07,0.02,0.08,0,0.03,0
					c-0.02,0-0.03,0-0.05,0c-0.09,0,0.07,0.02,0.02,0c-0.04-0.01-0.08-0.02-0.13-0.04c-0.06-0.02,0.08,0.04,0.02,0.01
					c-0.02-0.01-0.05-0.02-0.07-0.04c-0.04-0.03-0.09-0.05-0.13-0.08c-0.01-0.01-0.02-0.01-0.03-0.02
					c-0.04-0.02,0.04,0.03,0.04,0.03c-0.02,0-0.06-0.05-0.07-0.06c-0.09-0.08-0.18-0.16-0.26-0.25c-0.04-0.05-0.08-0.1-0.12-0.14
					C8.03,56.17,8.02,56.15,8,56.13c0.07,0.08-0.01-0.01-0.02-0.03c-0.08-0.11-0.15-0.22-0.22-0.33c-0.07-0.11-0.13-0.22-0.19-0.33
					c-0.03-0.05-0.05-0.11-0.08-0.16c-0.01-0.02-0.02-0.05-0.03-0.07c0.06,0.09,0.01,0.02-0.01-0.02c-0.04-0.11-0.08-0.22-0.1-0.33
					c0-0.02,0-0.05-0.01-0.07c0.02,0.04,0.01,0.1,0.01,0.03c0-0.05,0.02-0.2-0.01-0.03c0.03-0.21-0.05-0.45-0.28-0.5
					C6.86,54.24,6.59,54.35,6.55,54.57L6.55,54.57z"/>
			</g>
			<g>
				<path d="M7.34,54.71c1.17-2.91,4.23-4.63,7.04-5.64c0.98-0.35,2.05-0.63,3.09-0.44c0.51,0.1,0.73-0.69,0.22-0.78
					c-1.91-0.36-3.86,0.48-5.56,1.29c-1.51,0.73-2.97,1.68-4.09,2.94c-0.63,0.72-1.13,1.52-1.49,2.41c-0.08,0.2,0.09,0.45,0.28,0.5
					C7.07,55.06,7.25,54.92,7.34,54.71L7.34,54.71z"/>
			</g>
			<g>
				<path d="M17.38,48.62c0.05,0.04,0.1,0.09,0.14,0.14c0.02,0.02,0.04,0.05,0.06,0.07c-0.06-0.08,0.01,0.02,0.02,0.03
					c0.09,0.13,0.17,0.26,0.24,0.4c0.16,0.29,0.3,0.6,0.45,0.89c0.28,0.56,0.59,1.21,1.16,1.54c0.45,0.26,0.86-0.44,0.41-0.7
					c-0.03-0.02-0.05-0.03-0.08-0.05c-0.08-0.05,0.03,0.04-0.02-0.02c-0.04-0.04-0.09-0.08-0.13-0.13
					c-0.03-0.03-0.05-0.06-0.07-0.08c-0.07-0.08,0.02,0.03-0.03-0.04c-0.04-0.06-0.08-0.11-0.12-0.17
					c-0.18-0.28-0.32-0.57-0.47-0.87c-0.27-0.55-0.52-1.18-0.99-1.6c-0.16-0.15-0.41-0.16-0.57,0
					C17.24,48.19,17.22,48.47,17.38,48.62L17.38,48.62z"/>
			</g>
			<g>
				<path d="M118.93,122.69c0.66,0.1,1.28-0.12,1.93-0.12c0.34,0,0.7,0.08,1.04,0.11c0.32,0.04,0.63,0.07,0.95,0.11
					c0.75,0.1,1.51,0.23,2.22,0.47c0.8,0.27,1.54,0.67,2.27,1.09c0.85,0.49,1.62,1.03,2.38,1.65c0.4,0.33,0.98-0.24,0.57-0.57
					c-1.36-1.11-2.84-2.07-4.46-2.74c-1.42-0.59-2.96-0.7-4.47-0.88c-0.4-0.05-0.75-0.04-1.15,0.01c-0.34,0.05-0.72,0.13-1.07,0.08
					c-0.22-0.03-0.44,0.05-0.5,0.28C118.59,122.38,118.71,122.66,118.93,122.69L118.93,122.69z"/>
			</g>
			<g>
				<path d="M129.35,130.17c0.88-0.25,1.1-1.23,1.29-2.01c0.21-0.83,0.27-1.72-0.16-2.49c-0.26-0.45-0.96-0.05-0.7,0.41
					c0.31,0.55,0.24,1.2,0.1,1.79c-0.08,0.33-0.16,0.66-0.28,0.97c-0.08,0.23-0.22,0.47-0.47,0.54
					C128.64,129.53,128.85,130.31,129.35,130.17L129.35,130.17z"/>
			</g>
			<g>
				<path d="M129.57,129.81c-0.11-0.82-0.65-1.39-1.28-1.87c-0.67-0.51-1.41-0.95-2.17-1.31c-1.55-0.73-3.2-1.15-4.86-1.56
					c-0.96-0.24-1.97-0.67-2.95-0.26c-0.2,0.08-0.35,0.27-0.28,0.5c0.05,0.19,0.3,0.37,0.5,0.28c0.75-0.31,1.52-0.01,2.25,0.19
					c0.76,0.21,1.54,0.37,2.31,0.59c1.46,0.42,2.89,0.98,4.17,1.82c0.55,0.36,1.42,0.89,1.51,1.62c0.03,0.22,0.17,0.41,0.41,0.41
					C129.37,130.22,129.6,130.03,129.57,129.81L129.57,129.81z"/>
			</g>
			<g>
				<path d="M56.12,66.01c-0.59,3.67-1.82,7.19-2.97,10.72C52,80.28,51,83.87,50.3,87.54c-0.69,3.61-1.11,7.28-1.12,10.96
					c-0.01,3.42,0.34,6.85,1.1,10.19c0.76,3.31,1.94,6.54,3.58,9.52c0.2,0.37,0.41,0.73,0.63,1.09c0.07,0.11,0.24,0.01,0.17-0.1
					c-1.75-2.92-3.04-6.09-3.9-9.38c-0.87-3.32-1.3-6.74-1.37-10.16c-0.08-3.67,0.26-7.35,0.9-10.97c0.64-3.64,1.57-7.22,2.68-10.74
					c1.1-3.49,2.37-6.94,3.09-10.53c0.09-0.45,0.17-0.89,0.24-1.34C56.33,65.94,56.14,65.89,56.12,66.01L56.12,66.01z"/>
			</g>
			<g>
				<path d="M86.78,116.67c3.37-3.82,5.93-8.35,7.48-13.2c0.78-2.42,1.3-4.92,1.56-7.44c0.31-2.98,0.25-6.01,0.23-9
					c-0.03-3.44-0.13-6.88-0.29-10.32c-0.01-0.13-0.21-0.13-0.2,0c0.15,3.02,0.24,6.04,0.28,9.06s0.1,6.05-0.11,9.06
					c-0.36,5.11-1.82,10.14-4.22,14.66c-1.34,2.53-2.98,4.89-4.87,7.04C86.55,116.63,86.69,116.77,86.78,116.67L86.78,116.67z"/>
			</g>
			<g>
				<path d="M95.26,71.74c0.28-2.19-0.19-4.37-0.73-6.48c-0.56-2.21-1.1-4.39-1.28-6.67c-0.18-2.29-0.05-4.59,0.33-6.85
					c0.38-2.23,0.96-4.43,1.32-6.67c0.38-2.39,0.49-4.86-0.16-7.22c-0.03-0.13-0.23-0.07-0.2,0.05c1.22,4.41-0.26,8.91-1.06,13.25
					c-0.41,2.21-0.59,4.45-0.48,6.7c0.11,2.22,0.54,4.38,1.09,6.52c0.62,2.4,1.28,4.86,0.96,7.36
					C95.04,71.87,95.25,71.86,95.26,71.74L95.26,71.74z"/>
			</g>
			<g>
				<path d="M56.92,62.52c0.42-1.67,0.02-3.36-0.26-5.02c-0.29-1.77-0.24-3.5,0.16-5.25c0.4-1.73,1.06-3.39,1.8-5
					c0.73-1.6,1.53-3.17,2.37-4.72c0.96-1.76,1.98-3.48,3.06-5.17c0.07-0.11-0.1-0.21-0.17-0.1c-1.94,3.01-3.68,6.14-5.2,9.38
					c-1.45,3.08-2.74,6.44-2.35,9.91c0.22,1.96,0.9,3.95,0.4,5.91C56.69,62.6,56.89,62.65,56.92,62.52L56.92,62.52z"/>
			</g>
			<g>
				<path d="M94.08,71.34c-1.35-0.69-2.75-1.25-4.2-1.68c-1.43-0.42-3-0.84-4.5-0.57c-0.09,0.02-0.1,0.15-0.02,0.19
					c1.8,0.96,3.69,1.76,5.64,2.37c0.12,0.04,0.18-0.16,0.05-0.2c-1.93-0.61-3.8-1.4-5.59-2.35c-0.01,0.06-0.02,0.12-0.02,0.19
					c1.49-0.27,3.06,0.18,4.48,0.6c1.4,0.42,2.76,0.97,4.07,1.63C94.09,71.58,94.19,71.4,94.08,71.34L94.08,71.34z"/>
			</g>
			<g>
				<path d="M112.42,32.28c-1.18,0.69-2.18,1.67-2.9,2.82c-0.59,0.95-1.57,2.75-0.36,3.62c0.11,0.08,0.21-0.1,0.1-0.17
					c-0.64-0.46-0.5-1.33-0.25-1.97c0.22-0.58,0.52-1.13,0.86-1.64c0.69-1.01,1.6-1.86,2.66-2.49
					C112.63,32.39,112.53,32.21,112.42,32.28L112.42,32.28z"/>
			</g>
			<g>
				<path d="M112.29,37.86c1.77-0.72,3.7-0.69,5.57-0.47c0.48,0.06,0.95,0.13,1.42,0.2c0.26,0.04,0.52,0.04,0.72,0.22
					c0.2,0.17,0.37,0.38,0.56,0.57c0.72,0.74,1.45,1.48,2.17,2.22c0.09,0.09,0.23-0.05,0.14-0.14c-0.59-0.61-1.19-1.22-1.78-1.82
					c-0.29-0.3-0.58-0.6-0.87-0.89c-0.14-0.14-0.2-0.23-0.39-0.26s-0.39-0.06-0.58-0.09c-1.5-0.24-3.03-0.43-4.56-0.3
					c-0.84,0.07-1.67,0.26-2.46,0.57C112.12,37.71,112.17,37.91,112.29,37.86L112.29,37.86z"/>
			</g>
			<g>
				<path d="M118.93,86.8c0.87-0.34,1.74-0.69,2.63-1c0.91-0.32,1.78-0.41,2.71-0.15c0.88,0.24,1.74,0.63,2.58,0.98
					c0.87,0.37,1.72,0.76,2.57,1.18c0.12,0.06,0.22-0.12,0.1-0.18c-0.88-0.43-1.76-0.83-2.66-1.21c-0.86-0.36-1.73-0.76-2.63-0.99
					c-0.9-0.24-1.76-0.15-2.64,0.15c-0.92,0.31-1.81,0.69-2.72,1.03C118.76,86.65,118.81,86.85,118.93,86.8L118.93,86.8z"/>
			</g>
			<g>
				<path d="M130.79,88.15c1.02,0.24,2.09,0.2,3.09-0.13c0.12-0.04,0.07-0.24-0.05-0.2c-0.96,0.32-1.99,0.36-2.98,0.13
					C130.72,87.93,130.66,88.12,130.79,88.15L130.79,88.15z"/>
			</g>
			<g>
				<path d="M116,114.66c0.84,0.92,2.04,1.34,3,2.1c0.41,0.33,1.42,1.29,0.63,1.71c-0.25,0.14-0.53,0.2-0.74,0.42
					c-0.19,0.2-0.28,0.46-0.28,0.74c0,0.13,0.2,0.13,0.2,0c0-0.45,0.29-0.7,0.67-0.87c0.24-0.1,0.5-0.21,0.6-0.48
					c0.22-0.56-0.42-1.2-0.79-1.53c-0.97-0.86-2.27-1.27-3.15-2.24C116.06,114.42,115.92,114.56,116,114.66L116,114.66z"/>
			</g>
			<g>
				<path d="M141.39,93.68c-0.52,1.61-1.27,3.15-2.24,4.54c-0.45,0.65-1.02,1.23-1.44,1.9c-0.39,0.62-0.47,1.32-0.14,1.99
					c0.4,0.82,1.23,1.27,2.03,1.62c0.12,0.05,0.22-0.12,0.1-0.18c-0.72-0.31-1.47-0.7-1.88-1.4c-0.45-0.76-0.25-1.52,0.25-2.2
					c0.45-0.61,0.96-1.18,1.38-1.81c0.44-0.64,0.83-1.32,1.17-2.02c0.38-0.77,0.7-1.57,0.97-2.39
					C141.63,93.61,141.43,93.56,141.39,93.68L141.39,93.68z"/>
			</g>
			<g>
				<path d="M43.19,53.4c0.1,0.93,0.27,1.85,0.52,2.75c0.13,0.47,0.28,0.93,0.45,1.39c0.16,0.43,0.37,0.85,0.45,1.3
					c0.09,0.52-0.11,1-0.29,1.47c-0.19,0.47-0.4,0.94-0.62,1.4c-0.1,0.2-0.2,0.4-0.3,0.59c-0.06,0.11-0.12,0.22-0.18,0.33
					c-0.02,0.04-0.04,0.08-0.06,0.12c-0.08,0.13-0.2,0.19-0.37,0.15c-0.15-0.03-0.29-0.21-0.43-0.27c-0.12-0.05-0.25-0.08-0.38-0.09
					c-0.64-0.05-1.29,0.4-1.4,1.04c-0.02,0.13,0.17,0.18,0.2,0.05c0.11-0.69,0.98-1.13,1.6-0.77c0.25,0.15,0.53,0.43,0.82,0.18
					c0.14-0.12,0.22-0.32,0.3-0.48c0.12-0.22,0.23-0.45,0.34-0.67c0.2-0.42,0.4-0.84,0.57-1.27c0.17-0.41,0.37-0.83,0.42-1.28
					c0.06-0.45-0.08-0.88-0.25-1.3c-0.18-0.45-0.35-0.9-0.49-1.36c-0.34-1.07-0.57-2.17-0.69-3.28
					C43.37,53.27,43.17,53.27,43.19,53.4L43.19,53.4z"/>
			</g>
			<g>
				<path d="M38.08,69.52c0.59,0.83,0.96,1.8,1.07,2.82c0.01,0.13,0.22,0.13,0.2,0c-0.12-1.05-0.49-2.05-1.1-2.92
					C38.18,69.31,38,69.41,38.08,69.52L38.08,69.52z"/>
			</g>
			<g>
				<path d="M27.14,56.5c0.37,0.46,0.72,0.94,1.03,1.44c0.29,0.47,0.61,1,0.57,1.57c-0.03,0.5-0.36,0.9-0.55,1.35
					c-0.17,0.41-0.18,0.84-0.03,1.25c0.34,0.9,1.22,1.37,2.05,1.73c0.34,0.15,0.69,0.29,0.93-0.08c0.12-0.18,0.22-0.33,0.42-0.43
					c0.19-0.09,0.41-0.11,0.63-0.1c1.08,0.06,2.09,0.91,2.76,1.7c0.08,0.1,0.23-0.04,0.14-0.14c-0.59-0.69-1.37-1.33-2.24-1.63
					c-0.66-0.22-1.44-0.21-1.84,0.44c-0.22,0.36-0.56,0.13-0.84,0c-0.23-0.1-0.46-0.21-0.68-0.34c-0.46-0.27-0.87-0.62-1.09-1.12
					c-0.24-0.54-0.12-1.03,0.14-1.53c0.2-0.39,0.42-0.78,0.41-1.24c-0.02-0.56-0.31-1.07-0.6-1.54c-0.32-0.52-0.68-1.01-1.06-1.48
					C27.2,56.26,27.06,56.4,27.14,56.5L27.14,56.5z"/>
			</g>
			<g>
				<path d="M24.45,90.29c1.85,1.09,3.57,3.29,5.97,2.91c1.14-0.18,1.9-1.19,3.02-1.41c0.63-0.12,1.14,0.09,1.49,0.62
					c0.29,0.44,0.54,0.81,1.01,1.08c1.15,0.64,2.6,0.82,3.9,0.65c0.13-0.02,0.13-0.22,0-0.2c-1.22,0.16-2.53,0-3.65-0.55
					c-0.25-0.12-0.49-0.28-0.68-0.49c-0.2-0.22-0.32-0.49-0.49-0.72c-0.26-0.37-0.63-0.59-1.08-0.62c-1.07-0.08-1.85,0.72-2.73,1.17
					c-1.12,0.57-2.38,0.26-3.42-0.33c-1.15-0.65-2.09-1.62-3.23-2.29C24.44,90.05,24.34,90.23,24.45,90.29L24.45,90.29z"/>
			</g>
			<g>
				<path d="M9.54,64.15c-0.08-0.53-0.1-1.08-0.04-1.62c0.05-0.47,0.09-1.14,0.71-1.12c0.22,0.01,0.44,0.08,0.66,0.12
					c0.22,0.04,0.45,0.06,0.68,0.05c0.29-0.01,0.66-0.03,0.86-0.28c0.18-0.23,0.11-0.55-0.07-0.76c-0.27-0.32-0.73-0.38-1.07-0.58
					c-0.71-0.42-1.17-1.2-1.21-2.03c0-0.13-0.21-0.13-0.2,0c0.03,0.74,0.36,1.45,0.93,1.93c0.27,0.23,0.57,0.38,0.9,0.51
					c0.25,0.1,0.54,0.23,0.61,0.52c0.08,0.36-0.3,0.44-0.56,0.47c-0.48,0.05-0.91-0.09-1.37-0.15c-0.3-0.04-0.62,0.01-0.81,0.27
					c-0.23,0.33-0.25,0.84-0.27,1.23c-0.03,0.49-0.01,0.99,0.07,1.48C9.36,64.33,9.56,64.27,9.54,64.15L9.54,64.15z"/>
			</g>
			<g>
				<path d="M56.9,62.96c2.4-0.95,4.87-1.7,7.39-2.27c0.13-0.03,0.07-0.22-0.05-0.2c-2.52,0.56-4.99,1.32-7.39,2.27
					C56.73,62.81,56.78,63.01,56.9,62.96L56.9,62.96z"/>
			</g>
			<g>
				<path d="M60.52,62.78c1.21-0.25,2.42-0.49,3.64-0.74c0.13-0.03,0.07-0.22-0.05-0.2c-1.21,0.25-2.42,0.49-3.64,0.74
					C60.34,62.61,60.39,62.81,60.52,62.78L60.52,62.78z"/>
			</g>
			<g>
				<path d="M49.26,111.9c-0.93,0.29-1.77,0.82-2.45,1.52c-0.05,0.05-0.03,0.16,0.04,0.17c0.63,0.09,1.27,0.02,1.86-0.22
					c0.12-0.05,0.07-0.25-0.05-0.2c-0.55,0.23-1.16,0.31-1.75,0.22c0.01,0.06,0.03,0.11,0.04,0.17c0.65-0.68,1.46-1.19,2.36-1.47
					C49.44,112.06,49.39,111.86,49.26,111.9L49.26,111.9z"/>
			</g>
			<g>
				<path d="M42.62,99.9c0.01,1.92,0.5,3.81,1.43,5.49c0.23,0.42,0.49,0.83,0.77,1.22s0.62,0.74,0.89,1.13
					c0.26,0.38,0.45,0.84,0.31,1.3c-0.06,0.2-0.18,0.38-0.37,0.48c-0.23,0.12-0.5,0.13-0.73,0.24c-0.99,0.49-0.86,1.77-0.68,2.66
					c0.03,0.13,0.22,0.07,0.2-0.05c-0.11-0.54-0.23-1.13-0.04-1.67c0.07-0.21,0.19-0.42,0.35-0.57c0.21-0.2,0.46-0.25,0.73-0.33
					c0.75-0.22,0.94-1.04,0.66-1.71c-0.17-0.41-0.47-0.74-0.74-1.08c-0.32-0.39-0.61-0.79-0.87-1.22c-0.51-0.82-0.91-1.71-1.2-2.63
					c-0.33-1.06-0.5-2.16-0.5-3.27C42.82,99.77,42.61,99.77,42.62,99.9L42.62,99.9z"/>
			</g>
			<g>
				<path d="M109.21,96.98c-0.9,3.2-1.94,6.35-3.11,9.46c-0.29,0.77-0.59,1.54-0.9,2.31c-0.16,0.39-0.32,0.78-0.48,1.17
					c-0.15,0.36-0.29,0.74-0.51,1.06c-0.44,0.66-1.36,0.99-1.83,0.17c-0.27-0.46-0.38-0.99-0.92-1.21c-0.49-0.2-1,0.06-0.88,0.64
					c0.09,0.43,0.29,0.86,0.43,1.28c0.16,0.47,0.33,0.94,0.49,1.42c0.04,0.12,0.24,0.07,0.2-0.05c-0.27-0.79-0.55-1.57-0.82-2.36
					c-0.07-0.2-0.18-0.44-0.07-0.65c0.07-0.13,0.23-0.16,0.36-0.14c0.29,0.03,0.54,0.22,0.68,0.47c0.26,0.46,0.41,1.08,0.98,1.27
					c0.56,0.18,1.13-0.16,1.46-0.59c0.43-0.57,0.65-1.31,0.92-1.97c0.31-0.77,0.61-1.53,0.91-2.3c0.58-1.53,1.14-3.07,1.65-4.62
					c0.59-1.75,1.13-3.52,1.63-5.29C109.44,96.91,109.24,96.86,109.21,96.98L109.21,96.98z"/>
			</g>
			<g>
				<path d="M100.19,114.95c-2.09,0.77-4.14,1.64-6.14,2.61c-0.12,0.06-0.01,0.23,0.1,0.18c1.99-0.96,4.02-1.83,6.1-2.59
					C100.36,115.1,100.31,114.9,100.19,114.95L100.19,114.95z"/>
			</g>
			<g>
				<path d="M105.77,65.41c0.09-2.9,2.13-5.23,3.97-7.28c0.08-0.08-0.02-0.22-0.12-0.16c-0.3,0.17-0.61,0.29-0.95,0.37
					c0.04,0.02,0.08,0.05,0.12,0.07c-0.6-1.58-1.19-3.17-1.79-4.75c-0.24-0.65-0.44-1.35-0.8-1.95c-0.26-0.43-0.64-0.81-1.17-0.78
					c-0.04,0-0.09,0.03-0.1,0.07c-0.35,1.43-0.44,2.9-0.27,4.36c0.02,0.13,0.22,0.13,0.2,0c-0.17-1.44-0.08-2.9,0.26-4.31
					c-0.03,0.02-0.07,0.05-0.1,0.07c0.6-0.04,0.96,0.54,1.18,1.02c0.3,0.66,0.52,1.36,0.78,2.03c0.54,1.43,1.07,2.85,1.61,4.28
					c0.02,0.05,0.07,0.08,0.12,0.07c0.35-0.08,0.69-0.2,1-0.39c-0.04-0.05-0.08-0.11-0.12-0.16c-1.88,2.09-3.94,4.46-4.03,7.42
					C105.56,65.54,105.76,65.54,105.77,65.41L105.77,65.41z"/>
			</g>
			<g>
				<path d="M107.79,62.38c0.48-1.04,1.41-1.75,2.35-2.36c0.99-0.64,2.05-1.18,3.14-1.64c2.16-0.9,4.45-1.47,6.75-1.86
					c0.66-0.11,1.32-0.21,1.98-0.3c0.31-0.04,0.62-0.09,0.93-0.12c0.25-0.02,0.66-0.02,0.73,0.29c0.02-0.04,0.05-0.08,0.07-0.12
					c-2.92,0.75-5.83,1.51-8.75,2.26c-0.13,0.03-0.07,0.23,0.05,0.2c2.92-0.75,5.83-1.51,8.75-2.26c0.05-0.01,0.08-0.07,0.07-0.12
					c-0.1-0.41-0.57-0.46-0.93-0.44c-0.61,0.05-1.22,0.15-1.83,0.24c-1.25,0.18-2.49,0.41-3.72,0.71c-2.44,0.59-4.83,1.45-6.98,2.76
					c-1.1,0.67-2.24,1.46-2.8,2.66C107.56,62.4,107.74,62.5,107.79,62.38L107.79,62.38z"/>
			</g>
			<g>
				<path d="M105.84,29.08c0.38-0.04,0.76-0.15,1.02-0.45c0.2-0.23,0.3-0.52,0.34-0.83c0.13-0.87,0.33-1.81-0.08-2.63
					c-0.32-0.63-0.86-1.14-1.55-1.32c-0.58-0.15-1.2-0.09-1.77,0.04c-0.27,0.06-0.53,0.14-0.79,0.23c-0.11,0.03-0.22,0.07-0.33,0.1
					c-0.04,0.01-0.08,0.02-0.12,0.03c-0.02,0-0.04,0.01-0.06,0.01c-0.09,0.03,0.09-0.01,0.02,0c-0.22,0.02-0.41,0.17-0.41,0.41
					c0,0.2,0.19,0.43,0.41,0.41c0.36-0.03,0.7-0.17,1.04-0.27c0.47-0.14,0.87-0.24,1.34-0.23c0.45,0.01,0.87,0.16,1.21,0.52
					c0.21,0.23,0.37,0.52,0.43,0.83c0.07,0.39,0.01,0.81-0.05,1.2c-0.02,0.15-0.05,0.4-0.07,0.49c-0.01,0.05-0.04,0.23-0.08,0.33
					c0,0.01-0.03,0.07,0,0.01c-0.01,0.03-0.03,0.06-0.05,0.09c-0.04,0.06,0.03-0.04-0.01,0.02c-0.02,0.03-0.05,0.05-0.07,0.08
					c-0.06,0.05-0.23,0.11-0.36,0.12c-0.22,0.02-0.41,0.17-0.41,0.41C105.44,28.88,105.62,29.1,105.84,29.08L105.84,29.08z"/>
			</g>
			<g>
				<path d="M98.28,23.31c1.12-0.3,2.26-0.55,3.41-0.74c0.26-0.04,0.15-0.43-0.11-0.39c-1.15,0.19-2.29,0.44-3.41,0.74
					C97.92,22.99,98.03,23.38,98.28,23.31L98.28,23.31z"/>
			</g>
			<g>
				<path d="M100.38,22.47c-1.81-0.54-3.68-0.81-5.57-0.8c-0.13,0-0.13,0.2,0,0.2c1.87-0.01,3.72,0.26,5.51,0.79
					C100.46,22.7,100.51,22.51,100.38,22.47L100.38,22.47z"/>
			</g>
			<g>
				<path d="M71.07,28.97c0.12-0.07,0.21-0.18,0.3-0.28c0.16-0.18,0.31-0.36,0.48-0.53c0.57-0.6,1.2-1.14,1.89-1.6
					c1.17-0.8,2.45-1.41,3.76-1.92c2.03-0.78,4.15-1.31,6.28-1.7c3.17-0.58,6.39-0.87,9.61-1c0.47-0.02,0.95-0.04,1.42-0.05
					c0.13,0,0.13-0.21,0-0.2c-3.35,0.09-6.7,0.33-10.01,0.87c-2.28,0.37-4.54,0.88-6.72,1.65c-1.41,0.5-2.79,1.12-4.06,1.92
					c-0.77,0.49-1.49,1.05-2.13,1.7c-0.3,0.3-0.56,0.68-0.88,0.96c-0.02,0.02,0,0-0.04,0.03C70.86,28.86,70.96,29.04,71.07,28.97
					L71.07,28.97z"/>
			</g>
			<g>
				<path d="M64.34,34.05c2.18,2.02,4.97,3.38,7.8,4.23c1.29,0.39,2.61,0.66,3.95,0.81c1.07,0.12,2.15,0.05,3.22-0.06
					c2.5-0.25,5-0.74,7.42-1.44c2.97-0.85,5.69-2.35,8.36-3.87c1.53-0.87,3.05-1.75,4.62-2.54c1.54-0.77,3.15-1.5,4.83-1.92
					c0.43-0.11,0.86-0.17,1.31-0.17c0.52,0.01,0.52-0.81,0-0.81c-0.88-0.01-1.74,0.23-2.57,0.51c-0.82,0.27-1.62,0.6-2.41,0.95
					c-1.59,0.7-3.12,1.54-4.63,2.39c-2.85,1.61-5.69,3.38-8.82,4.4c-2.26,0.74-4.62,1.22-6.97,1.55c-1.14,0.16-2.29,0.27-3.44,0.25
					c-1.13-0.02-2.25-0.22-3.38-0.49c-2.82-0.67-5.64-1.86-7.92-3.68c-0.27-0.22-0.54-0.45-0.79-0.68
					C64.53,33.12,63.96,33.69,64.34,34.05L64.34,34.05z"/>
			</g>
			<g>
				<path d="M64.83,33.41c-0.11-0.07-0.25-0.2-0.37-0.35c-0.06-0.08-0.12-0.16-0.17-0.25c-0.04-0.07,0,0.01-0.03-0.06
					c-0.03-0.08-0.01,0.04-0.01-0.03c-0.01,0.1,0.01-0.03,0.02-0.05c0.01-0.05,0.02-0.1,0.03-0.16c0.02-0.1,0.05-0.2,0.07-0.31
					c0.05-0.22,0.11-0.44,0.18-0.66c0.13-0.42,0.29-0.83,0.52-1.19c0.05-0.07,0.09-0.14,0.13-0.18c0.03-0.03,0.06-0.06,0.09-0.09
					c0.01-0.01,0.12-0.11,0.07-0.07c0.03-0.02,0.07-0.04,0.1-0.06c0.01,0,0.11-0.05,0.04-0.03c0.03-0.01,0.07-0.02,0.11-0.03
					c0.05-0.01,0.05-0.01,0,0c0.03,0,0.05,0,0.08,0c0.52-0.01,0.52-0.82,0-0.81c-1.13,0.03-1.64,1.36-1.92,2.26
					c-0.08,0.25-0.15,0.5-0.21,0.76c-0.06,0.25-0.16,0.54-0.11,0.8s0.22,0.49,0.39,0.7c0.16,0.2,0.35,0.39,0.57,0.52
					C64.87,34.37,65.28,33.67,64.83,33.41L64.83,33.41z"/>
			</g>
			<g>
				<path d="M66.09,29.38c-0.25-1.01,0.94-1.55,1.66-1.9c0.09-0.04,0.18-0.1,0.26-0.15c0.25-0.18,0.47-0.39,0.7-0.6
					c0.29-0.27,0.57-0.54,0.86-0.79c0.18-0.16,0.37-0.32,0.56-0.47c0.05-0.04,0.1-0.08,0.15-0.12c0.08-0.06-0.07,0.05,0.01-0.01
					c0.03-0.02,0.06-0.05,0.09-0.07c0.12-0.09,0.23-0.17,0.35-0.26c0.55-0.39,1.12-0.74,1.7-1.07c0.35-0.19,0.7-0.37,1.06-0.54
					c0.42-0.2,0.79-0.36,1.18-0.52c2.21-0.89,4.54-1.48,6.89-1.91c3.52-0.64,7.1-0.91,10.68-1.02c0.54-0.02,1.08-0.03,1.61-0.03
					c0.52-0.01,0.52-0.82,0-0.81c-3.83,0.05-7.67,0.29-11.46,0.9c-2.51,0.4-5.01,0.98-7.39,1.87c-1.54,0.58-3.05,1.3-4.41,2.23
					c-0.83,0.57-1.6,1.22-2.34,1.91c-0.12,0.11-0.24,0.23-0.36,0.34c-0.05,0.05-0.11,0.1-0.16,0.14c-0.02,0.02-0.05,0.04-0.07,0.06
					c-0.02,0.02-0.11,0.09-0.04,0.03c0.07-0.05-0.07,0.05-0.1,0.07c-0.04,0.03-0.09,0.06-0.13,0.08c-0.73,0.37-1.48,0.69-1.89,1.44
					c-0.24,0.43-0.32,0.92-0.2,1.4C65.44,30.1,66.22,29.88,66.09,29.38L66.09,29.38z"/>
			</g>
			<g>
				<path d="M106.47,25.25c1.59,0.05,3.18,0.29,4.73,0.62c0.41,0.09,0.82,0.19,1.23,0.31c0.23,0.07,0.78,0.17,0.88,0.43
					c0.04,0.09,0.01,0.23,0.01,0.33c-0.01,0.19-0.04,0.33-0.17,0.48c-0.23,0.28-0.52,0.52-0.8,0.74c-0.68,0.52-1.45,0.92-2.21,1.3
					c-0.47,0.23-0.06,0.93,0.41,0.7c0.76-0.38,1.53-0.78,2.21-1.3c0.34-0.26,0.68-0.54,0.96-0.87c0.31-0.37,0.41-0.76,0.41-1.24
					c-0.01-0.98-1.02-1.23-1.8-1.45c-0.94-0.26-1.91-0.41-2.87-0.56c-1-0.15-1.99-0.28-3-0.31
					C105.95,24.42,105.95,25.23,106.47,25.25L106.47,25.25z"/>
			</g>
			<g>
				<path d="M107.06,27.56c0.69-0.07,1.37-0.14,2.06-0.23c0.35-0.05,0.7-0.1,1.05-0.17c0.27-0.05,0.61-0.07,0.84-0.25
					c0.16-0.12,0.25-0.33,0.15-0.51c-0.11-0.2-0.4-0.3-0.61-0.38c-0.57-0.21-1.18-0.33-1.78-0.42c-0.61-0.09-1.22-0.15-1.83-0.28
					c-0.13-0.03-0.18,0.17-0.05,0.2c1.2,0.24,2.46,0.26,3.61,0.7c0.14,0.05,0.42,0.14,0.49,0.28c0.12,0.26-0.33,0.35-0.47,0.38
					c-0.37,0.08-0.75,0.14-1.12,0.2c-0.77,0.12-1.55,0.19-2.33,0.27C106.93,27.37,106.93,27.57,107.06,27.56L107.06,27.56z"/>
			</g>
			<g>
				<path d="M105.45,24.66c-0.21,0-0.39-0.16-0.4-0.38c-0.02-0.22,0.15-0.41,0.37-0.43c0.04-0.37-0.72-1.7-1.48-2.28
					c-0.62-0.47-1.43-0.66-2.21-0.81c-2.58-0.51-5.45-0.82-7.86-0.83c-0.22,0-0.4-0.18-0.4-0.41c0-0.22,0.18-0.4,0.41-0.4l0,0
					c2.46,0.01,5.39,0.32,8.02,0.84c0.87,0.17,1.79,0.39,2.54,0.96c0.77,0.59,2.02,2.3,1.75,3.2c-0.09,0.32-0.35,0.51-0.7,0.54
					C105.47,24.66,105.46,24.66,105.45,24.66z"/>
			</g>
			<g>
				<path d="M76.15,36.65c-0.28,0.33-0.4,0.78-0.31,1.21c0.03,0.13,0.22,0.07,0.2-0.05c-0.07-0.35,0.03-0.74,0.26-1.01
					c0.04-0.04,0.04-0.1,0-0.14C76.26,36.62,76.19,36.61,76.15,36.65L76.15,36.65z"/>
			</g>
			<g>
				<path d="M66.17,27.93c-0.4,0.57-0.55,1.29-0.42,1.98c0.15,0.74,0.64,1.35,1.11,1.92c0.08,0.1,0.23-0.04,0.14-0.14
					c-0.43-0.53-0.89-1.08-1.04-1.77c-0.14-0.65,0.01-1.34,0.39-1.88C66.42,27.92,66.25,27.82,66.17,27.93L66.17,27.93z"/>
			</g>
			<g>
				<path d="M82.22,36.49c1.61-0.2,3.12-0.8,4.51-1.62c0.72-0.42,1.41-0.9,2.08-1.4c0.32-0.24,0.63-0.48,0.94-0.73
					c0.34-0.28,0.67-0.58,1.05-0.82c0.77-0.49,1.74-0.35,2.51-0.84c0.11-0.07,0.01-0.24-0.1-0.18c-0.64,0.41-1.44,0.35-2.13,0.64
					c-0.38,0.16-0.69,0.41-1,0.67s-0.62,0.51-0.94,0.76c-1.31,1.02-2.7,1.96-4.24,2.6c-0.86,0.35-1.75,0.61-2.67,0.72
					C82.1,36.3,82.1,36.5,82.22,36.49L82.22,36.49z"/>
			</g>
			<g>
				<path d="M67.34,33.13c0.65,0.71,1.27,1.49,2.04,2.06c0.72,0.53,1.56,0.86,2.44,0.99c0.13,0.02,0.18-0.18,0.05-0.2
					c-0.86-0.12-1.69-0.45-2.39-0.97c-0.76-0.56-1.37-1.33-2-2.03C67.4,32.89,67.26,33.03,67.34,33.13L67.34,33.13z"/>
			</g>
			<g>
				<path d="M102.9,25.46c-0.3,0.02-0.55-0.03-0.76-0.25c-0.12-0.13-0.22-0.25-0.4-0.29c-0.32-0.06-0.67,0.12-0.96,0.22
					c-0.45,0.16-0.89,0.34-1.32,0.53c-0.88,0.4-1.72,0.89-2.45,1.53c-0.74,0.65-1.38,1.41-2.06,2.12c-0.22,0.24-0.42,0.49-0.77,0.49
					c-0.24,0-0.47-0.09-0.72-0.04c-0.31,0.06-0.58,0.4-0.37,0.7c0.08,0.1,0.25,0,0.17-0.1c-0.22-0.3,0.27-0.42,0.48-0.4
					c0.21,0.02,0.42,0.08,0.63,0.04c0.38-0.07,0.66-0.47,0.9-0.73c0.6-0.64,1.18-1.31,1.84-1.9c0.69-0.61,1.48-1.09,2.32-1.48
					c0.42-0.19,0.84-0.36,1.27-0.52c0.28-0.1,0.71-0.35,1.02-0.26c0.18,0.05,0.28,0.25,0.42,0.35c0.22,0.17,0.49,0.2,0.76,0.18
					C103.03,25.65,103.03,25.45,102.9,25.46L102.9,25.46z"/>
			</g>
			<g>
				<path d="M129,130.18c-0.02,0-0.03,0-0.05,0c-0.36-0.05-8.87-1.14-10.81-3.66c-0.34-0.44-0.48-0.91-0.41-1.4
					c0.03-0.22,0.24-0.38,0.46-0.35s0.38,0.23,0.35,0.46c-0.04,0.27,0.05,0.53,0.25,0.8c1.44,1.87,7.9,3.05,10.27,3.35
					c0.22,0.03,0.38,0.23,0.35,0.45C129.37,130.03,129.2,130.18,129,130.18z"/>
			</g>
			<g>
				<path d="M96.4,23.52c-4.63,1.88-7.7,5.94-11.46,9.02c-0.83,0.68-1.69,1.28-2.64,1.76c-0.97,0.49-1.98,0.88-3.02,1.19
					c-0.98,0.29-1.99,0.52-3.01,0.6c-0.21,0.02-0.4-0.08-0.6-0.16c-0.26-0.1-0.53-0.19-0.79-0.29c-0.5-0.18-1-0.37-1.48-0.57
					c-1.14-0.48-2.31-1.03-3.23-1.89c-0.45-0.42-0.88-0.94-0.99-1.56c-0.08-0.48,0.08-1.02,0.51-1.28c0.45-0.27,0.04-0.97-0.41-0.7
					c-1.05,0.63-1.12,2-0.59,2.99c0.57,1.05,1.63,1.8,2.65,2.36c1.03,0.56,2.14,1,3.24,1.41c0.25,0.09,0.51,0.19,0.76,0.28
					s0.52,0.24,0.79,0.24c0.52-0.01,1.05-0.11,1.56-0.2c2.19-0.4,4.4-1.21,6.27-2.43c1.06-0.69,2.03-1.54,2.96-2.4
					c0.97-0.88,1.9-1.8,2.85-2.7c2.04-1.93,4.22-3.83,6.85-4.9c0.2-0.08,0.35-0.27,0.28-0.5C96.85,23.61,96.6,23.44,96.4,23.52
					L96.4,23.52z"/>
			</g>
		</g>
	</g>
</g>
</svg>
