<?xml version="1.0" encoding="utf-8"?>
<!-- Generator: Adobe Illustrator 28.0.0, SVG Export Plug-In . SVG Version: 6.00 Build 0)  -->
<svg version="1.1" id="Layer_1" xmlns="http://www.w3.org/2000/svg" xmlns:xlink="http://www.w3.org/1999/xlink" x="0px" y="0px"
	 viewBox="0 0 150 150" style="enable-background:new 0 0 150 150;" xml:space="preserve">
<style type="text/css">
	.st0{stroke:#000000;stroke-width:2;stroke-linecap:round;stroke-linejoin:round;stroke-miterlimit:10;}
	.st1{fill:#EF9448;}
	.st2{fill:#F2F1EB;}
	.st3{fill:url(#SVGID_1_);}
	.st4{fill:url(#SVGID_00000132088818191507119740000002886012516012434579_);}
	.st5{fill:url(#SVGID_00000119804768037764763480000001194124251768804484_);}
	.st6{fill:url(#SVGID_00000093874461126297452090000014209749403180907163_);}
	.st7{fill:url(#SVGID_00000136398022897933313250000014518239923527270293_);}
	.st8{fill:#FFA96E;}
	.st9{fill:none;stroke:#000000;stroke-miterlimit:10;}
	.st10{stroke:#000000;stroke-width:0.25;stroke-miterlimit:10;}
</style>
<g id="Doge_Pyjamas_Bottom">
	<g>
		<path class="st0" d="M123.47,115.32c-0.37-1.99-0.78-3.99-1.31-5.95c-0.5-1.89-1.31-3.55-2.16-5.29
			c-1.57-3.23-2.7-6.68-3.68-10.13c-0.96-3.37-1.75-6.79-2.47-10.22c-0.4-1.92-0.51-3.91-0.79-5.85c-0.28-1.99-0.62-3.98-1.06-5.94
			c-0.41-1.81-1.05-3.58-1.33-5.41c-0.26-1.74-0.3-3.51-0.46-5.26c-0.16-1.74-0.58-3.35-1.02-5.03c-0.53-2.01-0.94-4.04-1.36-6.08
			c-0.42-2.05-0.84-4.11-1.26-6.16c-0.18-0.89-0.35-1.79-0.52-2.68c-0.19-0.99-0.67-1.86-1.08-2.77c-0.83-1.86-1.51-3.83-1.69-5.86
			c-0.17-1.9,0.02-3.81-0.19-5.7c-0.11-0.95-0.42-1.87-0.44-2.83c-0.02-0.94,0.06-1.87,0.02-2.81c-0.04-1.01-0.06-2.01,0.02-3.01
			c0.07-0.88,0.33-1.79,0.19-2.67c-0.13-0.77-0.56-1.15-1.08-1.67c-0.65-0.66-0.52-1.65-0.92-2.45c-0.29-0.57-0.74-1.05-1.27-1.39
			c-0.7-0.46-1.42-0.49-2.21-0.62C90.97,8.49,84.52,7.21,78,7.46c-2.06,0.08-4.1,0.42-6.16,0.42c-2.06,0-4.12-0.25-6.18-0.21
			c-4.01,0.07-8.03,0.73-11.99,1.38c-3.56,0.59-7.24,1.11-10.65,2.3c-1.2,0.42-2.4,0.85-3.61,1.27c-0.51,0.18-1.08,0.33-1.41,0.79
			c-0.48,0.68-0.1,1.39-0.14,2.12c-0.12,1.9-2.04,3.14-1.91,5.08c0.06,0.91,0.19,1.84,0.36,2.73c0.19,1.02,0.46,1.97,0.39,3.02
			c-0.12,2.01-0.27,3.99-0.01,6c0.26,1.95,0.74,3.87,1.1,5.8c0.38,2.03,0.65,4.07,0.78,6.14c0.12,1.81,0.23,3.62,0.46,5.43
			c0.45,3.49,1.14,6.92,1.95,10.34c0.47,2.01,0.74,4.1,1.09,6.14c0.36,2.07,0.71,4.14,1.05,6.21c0.67,4.06,1.32,8.12,1.94,12.19
			c0.64,4.19,1.31,8.4,1.41,12.65c0.1,4.01-0.3,8.05,0.37,12.03c0.66,3.89,2.33,7.55,3.43,11.32c1.11,3.81,1.8,7.67,2.51,11.56
			c0.25,1.33,0.65,2.77,1.7,3.71c0.57,0.5,1.28,0.72,1.9,1.12c0.76,0.49,0.88,1.37,0.95,2.21c0.02,0.18,0.12,0.36,0.31,0.41
			c1.25,0.3,2.55,0.17,3.82,0.07c1.41-0.11,2.82-0.24,4.22-0.38c2.67-0.25,5.36-0.5,8-0.97c0.87-0.16,1.82-0.4,1.97-1.39
			c0.09-0.54,0.14-0.95,0.44-1.44c0.34-0.56,0.78-1.04,1.22-1.52c0.77-0.83,1.57-1.66,2.05-2.7c0.49-1.08,0.62-2.26,0.71-3.43
			c0.23-2.81,0.4-5.62,0.3-8.43c-0.1-2.76-0.32-5.52-0.46-8.28c-0.14-2.72-0.28-5.44-0.57-8.15c-0.27-2.58-0.76-5.08-1.4-7.6
			c-0.73-2.88-1.48-5.81-1.34-8.81c0.07-1.46,0.4-2.96,0.52-4.44c0.09,0.25,0.18,0.49,0.27,0.74c1.21,3.15,2.52,6.27,3.9,9.35
			c1.55,3.48,3.03,6.98,4.49,10.49c1.54,3.69,2.73,7.48,3.94,11.29c0.6,1.89,1.18,3.79,1.65,5.71c0.47,1.94,0.74,3.88,1,5.86
			c0.41,3.18,1.96,6.02,4.54,7.95c1.16,0.87,2.51,1.45,3.72,2.25c0.56,0.37,1.1,0.79,1.53,1.3c0.59,0.7,0.72,1.51,1.06,2.32
			c0.62,1.5,2.28,1.53,3.69,1.51c1.81-0.02,3.62-0.18,5.4-0.48c1.9-0.32,3.78-0.81,5.58-1.48c0.74-0.28,1.63-0.54,2.28-0.99
			c0.5-0.34,0.58-0.83,0.57-1.39c-0.02-0.83-0.23-1.69-0.11-2.52c0.13-0.92,1.05-1.62,1.63-2.29c1.13-1.33,1.59-2.85,1.82-4.57
			C124.59,123.23,124.19,119.23,123.47,115.32z"/>
		<g>
			<path class="st1" d="M106.79,47.61c-0.33-1.77-0.46-3.59-0.87-5.34c-0.4-1.72-1.24-3.33-1.91-4.96
				c-0.58-1.41-1.09-2.88-1.22-4.41c-0.12-1.46-0.02-2.95-0.12-4.43c-0.05-0.74-0.16-1.47-0.24-2.2c-0.39-3.28-0.4-6.6-0.02-9.88
				c0.07-0.57,0.07-1.1-0.28-1.57c-0.35-0.46-0.79-0.81-1.05-1.34c-0.19-0.39-0.24-0.83-0.36-1.24c-0.23-0.74-0.74-1.39-1.4-1.79
				c-0.61-0.37-1.32-0.53-2.03-0.67c-2.3-0.46-4.63-0.78-6.95-1.1c-3.33-0.46-6.66-0.91-10.03-0.96c-3.19-0.05-6.27,0.68-9.45,0.5
				c-10.39-0.58-20.82,1.21-30.76,4.3c-0.55,0.17-1.13,0.36-1.54,0.77c-0.85,0.85-0.12,2.35-0.5,3.41
				c-0.43,1.18-1.52,1.87-1.64,3.17c0,0.03,0,0.06-0.01,0.08c-0.04,0.63,0.08,1.26,0.18,1.88c0.37,2.23,0.61,4.49,0.48,6.74
				c-0.05,0.77-0.13,1.55-0.13,2.32c0.01,1.16,0.36,2.16,0.59,3.27c0.2,0.94,0.3,1.9,0.53,2.86c0.19,0.77,0.38,1.55,0.53,2.33
				c0.31,1.63,0.43,3.28,0.38,4.94c-0.05,1.51,0.22,2.93,0.33,4.44c0.1,1.49,0.41,2.95,0.71,4.42c0.84,4.08,1.79,8.04,2.29,12.18
				c0.46,3.79,1.12,7.51,1.81,11.24c0.78,4.15,1.71,8.23,2.12,12.44c0.16,1.62,0.24,3.24,0.32,4.86c0.11,2.3,0.22,4.59,0.34,6.89
				c0.04,0.86,0.08,1.74-0.06,2.59c-0.13,0.77-0.43,1.52-0.24,2.3c0.17,0.67,0.32,1.25,0.38,1.96c0.05,0.6,0.19,1.2,0.32,1.79
				c0.58,2.52,1.17,5.05,2.04,7.49c1.13,3.19,2.08,6.37,2.7,9.71c0.36,1.9,0.59,3.83,1.07,5.71c0.2,0.78,0.37,1.86,0.91,2.48
				c0.53,0.61,1.45,1.05,2.11,1.48c0.44,0.29,0.92,0.6,1.12,1.1c0.25,0.61,0.07,1.47,0.63,1.83c0.26,0.17,0.6,0.15,0.92,0.12
				c4.81-0.43,9.63-0.86,14.44-1.29c0.45-0.04,0.92-0.09,1.27-0.38c0.35-0.29,0.49-0.76,0.64-1.19c0.38-1.07,0.96-2.06,1.71-2.91
				c0.66-0.76,1.47-1.41,1.94-2.3c0.34-0.62,0.49-1.33,0.62-2.02c0.44-2.39,0.58-4.83,0.44-7.25c-0.06-1.02-0.2-2-0.16-3.02
				c0.04-1.14,0.13-2.32,0.07-3.46c-0.26-4.52-0.51-9.05-1.16-13.54c-0.62-4.33-2.01-8.55-2.43-12.89
				c-0.23-2.42,0.08-4.77,0.41-7.14c0.03-0.22,0.12-0.48,0.34-0.55c0.74,0.45,1.08,1.81,1.39,2.59c0.26,0.64,0.5,1.29,0.74,1.94
				c0.7,1.88,1.45,3.73,2.23,5.58c0.38,0.9,0.76,1.8,1.16,2.69c0.34,0.76,0.89,1.39,1.24,2.16c1.17,2.51,2.16,5.11,2.98,7.75
				c0.75,2.43,1.95,4.62,2.61,7.11c0.2,0.76,0.22,1.47,0.49,2.22c0.37,1,0.74,2,1.11,3.01c0.36,0.97,0.72,1.95,0.96,2.96
				c0.73,3.05,0.6,6.14,1.74,9.12c1.41,3.67,4.36,5.38,7.67,7.14c1.1,0.58,1.46,1.07,1.93,2.14c0.24,0.55,0.55,1.07,0.75,1.64
				c0.07,0.21,0.15,0.44,0.32,0.58c0.12,0.1,0.27,0.14,0.41,0.18c0.44,0.13,0.84,0.16,1.29,0.2c4.38,0.33,8.68-1.05,12.86-2.42
				c0.33-0.11,0.66-0.22,0.92-0.45c0.6-0.53,0.58-1.46,0.5-2.25c-0.07-0.63-0.18-1.46,0.2-2.02c0.34-0.5,0.95-0.87,1.33-1.37
				c0.82-1.08,1.36-2.36,1.67-3.68c0.1-0.42,0.18-0.85,0.23-1.28c0.29-2.19,0.06-4.42-0.21-6.62c-0.41-3.39-0.91-6.77-1.69-10.09
				c-0.22-0.95-0.47-1.89-0.85-2.78c-0.56-1.28-1.38-2.43-1.85-3.75c-0.47-1.3-1-2.59-1.47-3.89c-1-2.74-1.87-5.53-2.59-8.35
				c-1.64-6.35-1.88-13.01-3.6-19.34c-0.28-1.01-0.6-2.01-0.82-3.04c-0.18-0.84-0.09-1.57-0.14-2.4c-0.15-2.07-0.47-4.19-0.86-6.22
				c-0.26-1.34-0.6-2.66-0.92-3.98C107.97,53.54,107.35,50.58,106.79,47.61z"/>
			<path class="st2" d="M44.38,21.84c-0.2-0.36-0.47-0.68-0.76-0.96c-0.36-0.34-0.69,0.12-0.61,0.41c-0.15,0.09-0.27,0.22-0.32,0.39
				c0,0,0,0-0.01,0c0,0.02-0.01,0.03-0.01,0.05c0,0.02-0.01,0.03-0.01,0.05c-0.26,1.52-0.47,3.06-0.78,4.57
				c-0.15,0.74-0.37,1.41-0.71,2.08c-0.2,0.41-0.58,0.98-0.69,1.52c-0.32,0.03-0.57,0.46-0.28,0.74c0.13,0.12,0.25,0.24,0.4,0.35
				c0.06,0.05,0.14,0.08,0.23,0.1c0.08,0.06,0.15,0.11,0.23,0.16c0.04,0.04,0.07,0.08,0.12,0.11c0.21,0.17,0.62,0.06,0.61-0.23
				c0.05-0.07,0.08-0.16,0.08-0.25c0.03-0.8,0.62-1.55,0.95-2.25s0.66-1.39,0.94-2.11c0.29-0.73,0.56-1.48,0.78-2.23
				c0.16-0.54,0.33-1.12,0.27-1.68C44.91,22.26,44.88,21.86,44.38,21.84z"/>
			<path class="st2" d="M90.57,27.98c-0.65-0.85-1.3-1.69-1.93-2.55c-0.07-0.1-0.17-0.15-0.26-0.19c-0.41-1.12-1.26-1.99-1.88-3
				c-0.39-0.62-0.69-1.3-1.09-1.91c-0.07-0.24-0.16-0.47-0.27-0.69c-0.22-0.43-0.55-0.9-0.96-1.19c-0.02-0.16-0.11-0.3-0.25-0.38
				c-0.03-0.29-0.41-0.48-0.67-0.25c-0.45,0.41-0.8,0.91-1.2,1.37c-0.18,0.21-0.44,0.34-0.54,0.62c-0.07,0.2-0.04,0.36,0.04,0.52
				l0,0c0.01,0.24,0.17,0.45,0.29,0.65c0.13,0.22,0.26,0.43,0.39,0.64c0.54,0.9,1.1,1.8,1.75,2.63c0.03,0.04,0.07,0.06,0.11,0.08
				c0.44,0.66,0.95,1.28,1.47,1.89c0.01,0.01,0.01,0.01,0.02,0.02c0.63,0.86,1.27,1.72,1.96,2.53c0.13,0.15,0.3,0.19,0.46,0.16
				c0.32,0.44,0.66,0.87,1.05,1.25c0.23,0.22,0.55,0.16,0.75-0.01c0.08-0.02,0.17-0.06,0.24-0.13c0.02-0.02,0.05-0.04,0.07-0.07
				c0.1,0,0.2-0.02,0.3-0.07c0.47-0.26,0.73-0.75,0.9-1.24C91.47,28.19,90.97,27.86,90.57,27.98z"/>
			<path class="st2" d="M79.81,12.02c-0.06,0-0.12,0-0.19,0c-2.8,0.13-5.57-0.19-8.36-0.19c-2.33,0-4.55,0.62-6.86,0.77
				c-2.34,0.15-4.68,0.02-7.02,0.2c-1.24,0.1-2.47,0.3-3.69,0.56c-1.07,0.23-2.36,0.39-3.31,0.94c-0.07,0.04-0.14,0.08-0.18,0.15
				c-0.59,0.84,2.84,2.81,3.41,3.14c4.38,2.54,9.49,3.15,14.42,2.15c1.48-0.3,2.95-0.72,4.34-1.32c0.58-0.25,1.21-0.56,1.78-0.94
				c0.88-0.59,1.85-1.02,2.73-1.64c0.97-0.68,1.84-1.49,2.6-2.4C79.88,12.96,80.81,12.06,79.81,12.02z"/>
			
				<linearGradient id="SVGID_1_" gradientUnits="userSpaceOnUse" x1="-11.3157" y1="62.5507" x2="121.439" y2="77.5324" gradientTransform="matrix(1 0 0 -1 0 149.8898)">
				<stop  offset="0" style="stop-color:#A35E26"/>
				<stop  offset="0.3854" style="stop-color:#C77639;stop-opacity:0.6146"/>
				<stop  offset="1" style="stop-color:#FC9956;stop-opacity:0"/>
			</linearGradient>
			<path class="st3" d="M106.65,139.88c1.17,0.38,3.59,0.45,4.81,0.21c0.36-0.07,0.69-0.37,0.67-0.74c-0.05-0.65-1.25-0.9-1.7-1.23
				c-0.81-0.58-1.56-1.52-2.15-2.31c-1.11-1.51-1.87-3.32-1.45-5.22c0.26-1.16,0.94-2.25,0.84-3.44c-0.25-3.06-4.83-3.49-6.52-6.05
				c-0.77-1.18-0.83-2.67-1.03-4.06c-0.51-3.47-2.12-6.76-4.54-9.3c-0.59-0.62-1.28-1.29-1.33-2.15c-0.03-0.55,0.21-1.08,0.47-1.57
				c0.92-1.75,2.07-3.41,2.58-5.32c0.59-2.21,0.28-4.55-0.12-6.8c-0.86-4.89-2.09-9.71-3.66-14.42c-1.39-4.16-2.84-9.43-5.46-12.95
				c-0.42-0.57-0.71-1.42-0.23-1.93c0.33-0.35,0.87-0.38,1.35-0.39c3-0.03,6-0.06,9-0.09c-0.9-3.07-2.82-5.72-4.7-8.3
				c-2.25-3.09-4.51-6.18-6.76-9.27c-1.52-2.09-5.12-5.44-5.38-8.1c-0.08-0.82,0.67-1.72,1.47-1.51c-3.56-3.92-6.05-8.79-7.15-13.96
				c3.25-1.76,6.1-4.26,8.27-7.26c0.18-0.25,0.36-0.56,0.26-0.85c-0.06-0.16-0.2-0.28-0.34-0.37c-2.29-1.59-4.33,0.9-5.9,2.27
				c-2.2,1.92-4.59,3.47-7.37,4.39c-1.27,0.42-2.59,0.71-3.9,1.01c-4.11,0.91-8.05,1.52-12.04-0.15c-1.68-0.71-3.04-1.65-4.44-2.77
				c-0.2-0.16-0.4-0.32-0.5-0.55c-0.22-0.45,0-0.98,0.13-1.46s0.08-1.14-0.39-1.31c-0.2-0.07-0.43-0.03-0.64,0.02
				c-2.48,0.54-4.95,1.07-7.43,1.61c-0.34,0.07-0.7,0.15-0.98,0.35c-0.36,0.25-0.58,0.66-0.78,1.05c-0.38,0.73-0.75,1.47-1.13,2.2
				c-0.21,0.41-0.42,0.82-0.48,1.28c-0.06,0.53,0.1,1.06,0.19,1.59c0.37,2.12-0.37,4.28-0.41,6.43c-0.03,1.57,0.31,3.12,0.66,4.66
				c0.48,2.13,1.11,4.29,1.44,6.44c0.33,2.14,0.42,4.28,0.9,6.41c0.16,0.73,0.35,1.49,0.17,2.22c-0.08,0.35-0.25,0.68-0.35,1.03
				c-0.18,0.65-0.09,1.34,0,2.01c0.86,6.1,2.41,12.1,4.62,17.84c0.21,0.54,0.43,1.1,0.4,1.69c-0.02,0.38-0.13,0.75-0.23,1.12
				c-0.21,0.87-0.28,1.77-0.3,2.67c-0.12,5.03,0.96,10.01,2.03,14.92c0.48,2.18,1.3,4.53,1.45,6.76c0.14,2.16-0.11,4.4,0.03,6.59
				c0.31,4.79,1.1,9.54,2.19,14.21c0.45,1.92,0.94,3.82,1.44,5.72c0.76,2.9,1.51,5.8,2.45,8.64c0.38,1.14,0.72,2.34,1.41,3.34
				c0.51,0.73,1.63,1.38,1.7,2.34c0.02,0.26-0.05,0.51-0.05,0.77c-0.01,2.49,3.69,1.14,4.89,0.91c0.61-0.12,7.32-0.77,7.29-0.57
				c0.35-2.79-0.53-5.71-2.35-7.84c-0.15-0.17-0.31-0.36-0.31-0.59c0-0.35,0.36-0.57,0.68-0.69c1.63-0.59,3.45-0.29,5.12-0.71
				c0.22-0.05,0.47-0.16,0.51-0.38c0.03-0.16-0.08-0.32-0.17-0.45c-0.67-0.9-1.33-1.8-2-2.71c-0.21-0.29-0.43-0.58-0.75-0.75
				c-0.34-0.18-0.75-0.18-1.14-0.19c-2.43-0.06-4.8-0.35-6.82-1.74c-0.94-0.64-1.81-1.37-2.61-2.18c-0.42-0.43-1.51-2.27-2-2.4
				c3.15,0.83,6.3,1.65,9.45,2.48c1.48,0.39,3.35,0.66,4.29-0.55c1.05-1.34,0-3.33-1.29-4.45c-0.53-0.46-1.14-0.94-1.26-1.63
				c-0.05-0.3,0.01-0.61,0.08-0.9c0.32-1.21,1.61-2.48,2.67-1.8c-0.38-0.31-0.76-0.62-1.14-0.94c1.34-0.72,2.95-0.93,4.42-0.55
				c-0.59-0.15-2.12-2.93-2.65-3.49c-1.06-1.14-2.24-2.16-3.51-3.06c-2.09-1.47-4.38-2.7-6.03-4.7c-0.25-0.3-0.49-0.62-0.61-1
				c-0.17-0.55-0.06-1.14,0.04-1.71c0.31-1.64,0.54-3.37,0.02-4.96c-0.07-0.22-0.16-0.46-0.1-0.69c0.06-0.22,0.24-0.37,0.41-0.51
				c1.48-1.15,3.38-2.09,4.98-3.05c0.63-0.38,3.75-1.33,3.75-2.24c0.01-1.58,0.07-3.15,0.19-4.72c0.03-0.36,0.09-0.78,0.41-0.95
				c0.22-0.13,0.51-0.09,0.74-0.2c0.42-0.2,0.47-0.76,0.47-1.22c-0.04-4.65-0.54-9.29-1.51-13.84c-0.67-3.17-1.24-6.91-2.5-10.03
				c1.97,3.55,3.42,7.39,4.65,11.24c0.92,2.88,1.73,5.79,2.55,8.7c4.05,14.34,8.96,28.43,14.71,42.18c1.12,2.68,2.29,5.4,2.59,8.3
				c0.14,1.29,0.1,2.63,0.54,3.85c0.48,1.33,1.47,2.39,2.44,3.41c2.21,2.34,4.43,4.68,6.64,7.01
				C104.48,138.51,105.42,139.48,106.65,139.88z M44.25,24.56c-0.02,1.2-0.42,2.34-0.91,3.42c-0.49,1.06-1.08,2.09-1.77,3.03
				c-0.17,0.23-0.51,0.24-0.73,0.08c-0.27-0.19-0.39-0.49-0.53-0.78c-0.12-0.26,0-0.48,0.2-0.59c0.06-0.29,0.14-0.56,0.35-0.76
				c0.33-1.07,0.36-2.24,0.73-3.3c0.26-0.76,0.59-1.5,0.84-2.27c0.12-0.38,0.23-0.78,0.29-1.18c0.05-0.31,0.03-0.62,0.05-0.93
				c-0.05-0.42,0.56-0.65,0.82-0.29l0,0C45.34,21.48,44.97,23.1,44.25,24.56z"/>
			
				<linearGradient id="SVGID_00000132797553411927677020000017580970985734250651_" gradientUnits="userSpaceOnUse" x1="57.0564" y1="82.9465" x2="70.1401" y2="138.1736" gradientTransform="matrix(1 0 0 -1 0 149.8898)">
				<stop  offset="0" style="stop-color:#A35E26"/>
				<stop  offset="0.3854" style="stop-color:#C77639;stop-opacity:0.6146"/>
				<stop  offset="1" style="stop-color:#FC9956;stop-opacity:0"/>
			</linearGradient>
			<path style="fill:url(#SVGID_00000132797553411927677020000017580970985734250651_);" d="M63.28,44.87
				c1.17,1.6,2.56,3.24,4.48,3.7c1.69,0.41,3.44-0.18,5.18-0.17c-2.86-0.45-5.56-1.81-7.62-3.84c1.15,0.04,2.29,0.08,3.44,0.12
				c-2.83-1.5-4.9-4.08-7.16-6.35c-2.21-2.22-4.92-4.35-8.18-4.54C57.16,37.22,60.27,40.75,63.28,44.87z"/>
			
				<linearGradient id="SVGID_00000011007139523320581290000003862461960173157300_" gradientUnits="userSpaceOnUse" x1="64.811" y1="16.6626" x2="64.6907" y2="54.8014" gradientTransform="matrix(1 0 0 -1 0 149.8898)">
				<stop  offset="0" style="stop-color:#A35E26"/>
				<stop  offset="0.3854" style="stop-color:#C77639;stop-opacity:0.6146"/>
				<stop  offset="1" style="stop-color:#FC9956;stop-opacity:0"/>
			</linearGradient>
			<path style="fill:url(#SVGID_00000011007139523320581290000003862461960173157300_);" d="M64.14,123.07
				c1.2,0.45,2.48,0.59,3.76,0.73c1.79,0.19,3.59,0.38,5.38,0.58c-2.48,0.39-5.02,0.77-7.5,0.36c-3.19-0.53-6.01-2.34-9.09-3.31
				c0.62-0.12,1.25-0.15,1.88-0.1c-0.82-0.07-2.39-5.49-2.31-6.26c1.15,0.63,1.93,2.37,2.68,3.42
				C60.3,120.4,61.88,122.22,64.14,123.07z"/>
			
				<linearGradient id="SVGID_00000097482377292792721070000017758799149284070059_" gradientUnits="userSpaceOnUse" x1="89.375" y1="92.0121" x2="91.6609" y2="112.3448" gradientTransform="matrix(1 0 0 -1 0 149.8898)">
				<stop  offset="0" style="stop-color:#A35E26"/>
				<stop  offset="0.3854" style="stop-color:#C77639;stop-opacity:0.6146"/>
				<stop  offset="1" style="stop-color:#FC9956;stop-opacity:0"/>
			</linearGradient>
			<path style="fill:url(#SVGID_00000097482377292792721070000017758799149284070059_);" d="M92.65,46.64
				c3.65,0.84,7.12,2.34,10.55,3.86c-0.18-1.22-1.08-2.24-2.13-2.88c-1.06-0.64-2.27-0.95-3.47-1.25
				c-5.41-1.37-10.82-2.75-16.22-4.12c0.54,0.85,1.27,1.58,2.11,2.13c-0.7-0.45-5.06,1.54-5.81,1.93c0.53,0.87,5.73-0.42,6.96-0.46
				C87.32,45.78,90.03,46.03,92.65,46.64z"/>
			
				<linearGradient id="SVGID_00000031910042504692526640000013836804581158380475_" gradientUnits="userSpaceOnUse" x1="78.791" y1="49.8195" x2="99.1764" y2="93.809" gradientTransform="matrix(1 0 0 -1 0 149.8898)">
				<stop  offset="0" style="stop-color:#A35E26"/>
				<stop  offset="0.3854" style="stop-color:#C77639;stop-opacity:0.6146"/>
				<stop  offset="1" style="stop-color:#FC9956;stop-opacity:0"/>
			</linearGradient>
			<path style="fill:url(#SVGID_00000031910042504692526640000013836804581158380475_);" d="M83.51,83.64
				c0.54,0.63,1.19,1.28,2.02,1.33c0.94,0.07,1.73-0.63,2.59-1.01c1.39-0.6,3-0.34,4.48-0.01c2.67,0.59,5.29,1.38,7.84,2.36
				c-3.58-2.86-8.21-4.38-12.78-4.18c1.24-0.87,2.33-1.96,3.2-3.2c-1.57,0.83-3.3,1.68-5.03,1.3c-0.62-0.14-1.19-0.43-1.72-0.76
				c-1.63-1-3.02-2.4-4.01-4.04c-0.98-1.64-1.57-3.54-2.85-4.99C78.37,75.37,80.14,79.75,83.51,83.64z"/>
			<path class="st8" d="M92.75,114.18c-0.13-0.36-0.28-0.72-0.43-1.06c1.25,0.23,2.51,0.47,3.76,0.7c-1.06-0.75-2.12-1.51-3.17-2.26
				c-0.27-0.19-0.55-0.39-0.75-0.66c-0.39-0.52-0.44-1.21-0.61-1.84c-0.39-1.46-1.56-2.28-2.21-3.56c-0.55-1.08-0.7-2.4-0.89-3.58
				c-0.08-0.49-0.15-0.99-0.06-1.47c0.08-0.4,0.27-0.77,0.46-1.14c0.74-1.47,1.71-2.84,2.51-4.3c0.26-0.46,0.55-0.94,0.79-1.4
				c0.09-0.18,0.38-1.4,0.44-1.43c-1.95,1.21-3.91,2.35-5.66,3.82c-0.08,0.07-0.17,0.14-0.28,0.14c-0.13,0-0.23-0.09-0.32-0.18
				c-1.07-1.08-2.09-2.22-3.04-3.41c-0.14-0.18-0.29-0.36-0.35-0.58c-0.08-0.27-0.02-0.55,0.03-0.82c0.4-2.35-0.09-4.96-1.08-7.1
				c-0.98-2.12-2.51-3.85-3.62-5.88c-0.86-1.56-1.34-3.3-1.82-5.02c-0.77-2.77-1.55-5.55-2.05-8.38c-0.84-4.71-2.33-9.2-5.27-13.06
				c0.86,2.23,1.57,4.49,2.21,6.79c0.44,1.58,0.89,3.16,1.33,4.75c0.31,1.11,0.62,2.23,0.87,3.36c0.28,1.25,0.48,2.52,0.73,3.78
				c0.57,2.91,1.41,5.75,2.24,8.6c0.37,1.26,0.79,2.51,1.15,3.76c0.39,1.34,1.09,2.65,1.65,3.94c1.2,2.76,2.4,5.51,3.59,8.27
				c0.37,0.86,0.75,1.72,1.12,2.58c1.09,2.5,2.17,4.99,3.2,7.51c0.63,1.54,1.15,3.21,1.71,4.8c0.6,1.69,1.14,3.4,1.62,5.13
				c0.97,3.45,1.72,6.97,2.23,10.52c0.13,0.91,0.25,1.82,0.58,2.67c0.34,0.86,0.88,1.62,1.44,2.35c0.62,0.8,1.27,1.58,2.05,2.21
				c1.52,1.22,3.31,2.05,4.78,3.33c0.7,0.61,1.32,1.32,1.77,2.13c0.43,0.77,0.65,1.58,1.45,2.08c0.56,0.35,1.23,0.25,1.86,0.24
				c0.73-0.01,1.45-0.03,2.18-0.06c1.45-0.06,2.9-0.16,4.34-0.35c0.1-0.01,0.2-0.03,0.3-0.04c-1.77,0.13-3.56,0.01-5.29-0.35
				c-1.48-0.31-2.37-0.88-3.28-2.05c-0.91-1.16-1.76-2.41-2.93-3.3c-1.45-1.11-3.35-1.62-4.57-2.98c-0.1-0.11-0.19-0.29-0.07-0.38
				c0.34-0.26,1.74,0.43,2.1,0.53c0.92,0.25,1.86,0.46,2.81,0.54c-1.75-1.05-3.44-2.21-5.04-3.47c-0.75-0.59-1.49-1.22-1.99-2.03
				c-1.25-2.03-1.96-4.88-2.01-7.24c-0.02-0.96,0.19-1.9,0.07-2.84C93.23,115.71,93.02,114.93,92.75,114.18z"/>
			<path class="st8" d="M67.48,132.83c-1.46-0.29-3-0.17-4.49-0.18c-1.95-0.01-4.04-0.14-5.91-0.69c-0.66-0.2-1.1-0.35-1.52-0.89
				c-0.46-0.59-0.91-1.2-1.24-1.88c-0.44-0.9-0.67-1.94-0.44-2.92c0.05-0.22,0.14-0.46,0.34-0.58c0.24-0.15,0.55-0.08,0.82,0
				c2.24,0.68,4.37,1.83,6.7,2.03c-0.38-0.57-0.83-0.89-1.35-1.29c-0.59-0.45-1.16-0.93-1.76-1.36c-1.21-0.88-2.45-1.71-3.65-2.59
				c-0.53-0.39-1.04-0.81-1.53-1.24c-0.42-0.38-0.61-0.9-0.8-1.43c-0.17-0.46-0.33-0.92-0.48-1.39c-0.56-1.74-0.87-3.55-0.94-5.37
				c-0.01-0.38-0.01-0.76,0.11-1.12c0.28-0.78,1.12-0.95,1.86-1.02c1.44-0.13,3.53-1.15,4.05-2.6c-1.29-0.02-2.61-0.16-3.8,0.45
				c-0.49,0.25-0.97,0.61-1.52,0.62c-0.45,0.01-0.89-0.23-1.19-0.56s-0.5-0.76-0.64-1.19c-0.32-0.99-0.22-1.99-0.36-3.01
				c-0.17-1.28-0.26-2.56-0.31-3.85c-0.11-2.51-0.1-5.03-0.4-7.53c-0.22-1.82-1.02-3.45-1.27-5.28c-0.13-0.98-0.11-1.97-0.25-2.94
				c-0.15-1.01-0.47-1.98-0.71-2.97c-0.7-2.92-0.88-5.8-1.1-8.81c-0.02-0.34-0.04-0.71,0.13-1.01c0.44-0.76,1.6-0.46,2.38-0.05
				c-3.94-6.12-5.42-13.45-6.81-20.6c-0.09-0.45-0.18-0.92-0.06-1.37s0.5-0.86,0.96-0.85c0.49,0.01,0.99,0.46,1.4,0.2
				c-2.83-5.62-4.36-11.88-4.45-18.17c-0.03-2.31-0.35-4.31-0.86-6.53c-0.27-1.15-0.37-2.34-0.31-3.53
				c0.02-0.42,0.07-0.85,0.26-1.22c0.19-0.37,0.51-0.65,0.72-1.01c0.19-0.33,0.28-0.72,0.42-1.08c0.4-1.05,1.31-1.74,1.82-2.73
				c0.16-0.32,0.3-0.66,0.56-0.92c0.23-0.23,0.52-0.37,0.82-0.51c0.11-0.05,0.23-0.1,0.34-0.06c0.09,0.03,0.15,0.12,0.23,0.18
				c0.14,0.1,0.32,0.08,0.48,0.06c0.98-0.14,1.9-0.56,2.81-0.95c2.44-1.04,5.09-1.92,7.69-1.45c0.1,0.02,0.21,0.04,0.31,0.02
				c0.13-0.02,0.24-0.1,0.35-0.17c1.62-1.04,3.61-1.32,5.53-1.47c1.34-0.1,2.83-0.23,3.7-1.24c0.05-0.06,0.1-0.13,0.1-0.21
				c0-0.19-0.27-0.23-0.46-0.21c-2.41,0.24-4.81,0.53-7.2,0.87c-2.35,0.33-4.68,0.79-7.02,1.13c-1.26,0.18-2.5,0.57-3.74,0.89
				c-1.35,0.34-2.69,0.69-4.04,1.03c-0.94,0.24-1.89,0.48-2.78,0.89c-0.12,0.05-0.24,0.11-0.32,0.21c-0.07,0.07-0.11,0.17-0.15,0.26
				c-0.16,0.35-0.32,0.71-0.4,1.09c-0.15,0.7-0.02,1.44-0.2,2.14c-0.25,1-1.07,1.77-1.35,2.76c-0.39,1.37,0.18,2.9,0.36,4.27
				c0.2,1.53,0.28,3.08,0.25,4.63c-0.02,0.88-0.07,1.75-0.02,2.63c0.07,1.27,0.37,2.51,0.6,3.75c0.1,0.52,0.13,0.97,0.12,1.48
				c-0.01,0.58,0.19,1.21,0.28,1.78c0.4,2.52,0.67,5.05,0.94,7.59c0.43,4.15,0.87,8.36,1.72,12.44c0.9,4.34,1.73,8.7,2.49,13.06
				c0.76,4.4,1.45,8.81,2.07,13.23c0.6,4.26,1.29,8.43,1.4,12.74c0.1,4.35,0.17,8.62,0.74,12.94c0.26,1.95,1.22,3.95,1.8,5.85
				c0.64,2.06,1.23,4.14,1.77,6.23c0.75,2.88,1.4,5.79,1.97,8.72c0.18,0.95,0.36,1.91,0.73,2.8s0.97,1.72,1.81,2.2
				c0.35,0.2,0.73,0.33,1.06,0.56c0.57,0.39,0.94,1.05,0.98,1.73c0.02,0.28-0.01,0.59,0.17,0.8c0.18,0.21,0.49,0.24,0.77,0.25
				c0.52,0.02,1.03,0.03,1.55,0.05c1.25,0.04,0.43-1.31,0.45-2.11c0.01-0.63,0.24-1.29,0.74-1.67c0.77-0.6,1.87-0.38,2.85-0.35
				c1.77,0.05,3.54-0.68,4.76-1.97C68.45,133.07,67.97,132.93,67.48,132.83z"/>
			<path class="st8" d="M61.5,20.08c-0.28-0.02-0.56-0.05-0.84-0.1c-0.99-0.16-1.97-0.39-2.92-0.69c-1.91-0.6-3.74-1.46-5.42-2.56
				c-0.49-0.32-0.96-0.66-1.42-1.02c-0.12-0.09-0.25-0.19-0.4-0.16s-0.23,0.18-0.28,0.33c-0.4,1.16,0.43,1.89,1.28,2.49
				c0.94,0.66,1.99,1.15,3.03,1.63c1.95,0.9,4.27,1.06,6.4,1.05c0.99,0,2-0.08,2.91-0.47c0.04-0.02,0.09-0.04,0.1-0.09
				c0.03-0.09-0.08-0.14-0.17-0.17C63.02,20.15,62.26,20.14,61.5,20.08z"/>
			<path class="st8" d="M59.2,38.1c-1.33-0.84-2.68-1.54-4.16-2.1c-0.24-0.09-0.41,0.3-0.17,0.41c1.38,0.66,2.75,1.36,4.08,2.13
				C59.23,38.7,59.47,38.28,59.2,38.1z"/>
			<path class="st8" d="M45.67,23.92c0.04-0.25,0.08-0.52,0.07-0.77c-0.01-0.16-0.03-0.33-0.08-0.48c-0.19-0.58-0.73-0.96-1.23-1.31
				c0.21,0.22,0.44,0.46,0.48,0.76c0.02,0.15-0.01,0.31-0.04,0.46c-0.12,0.66-0.25,1.32-0.37,1.98c-0.44,2.37-1.52,4.71-2.5,6.91
				c-0.09,0.2-0.26,0.43-0.46,0.35c-0.1-0.04-0.16-0.15-0.24-0.23c-0.28-0.24-0.24,0.12-0.16,0.28c0.09,0.17,0.27,0.4,0.46,0.47
				c0.51,0.19,0.94-0.26,1.15-0.66C44.02,29.23,45.21,26.66,45.67,23.92z"/>
			<path class="st8" d="M85.96,26.71c-1.06-1.4-2.05-2.85-3.16-4.21c-0.34-0.42-0.7-0.82-0.97-1.29c-0.27-0.47-0.45-1-0.41-1.53
				c0.02-0.34,0.14-0.67,0.25-1c-1.51,0.92-0.83,2.7-0.35,4.01c0.66,1.8,1.92,3.53,3.18,4.95c0.55,0.62,1.11,1.25,1.72,1.8
				c0.66,0.58,1.38,1.11,2.17,1.51c0.26,0.13,0.53,0.24,0.82,0.27s0.6-0.06,0.79-0.27c0.2-0.21,0.24-0.57,0.06-0.79
				c-0.18,0.19-0.5,0.22-0.75,0.13s-0.46-0.28-0.65-0.46C87.66,28.87,86.79,27.81,85.96,26.71z"/>
			<path class="st8" d="M70.9,8.46c-2.25,0.09-4.52-0.03-6.77-0.15c0.87,0.68,1.93,1.08,3,1.33c0.99,0.23,1.97,0.35,2.72-0.48
				c0.07-0.07,0.13-0.15,0.22-0.18c0.08-0.03,0.17-0.02,0.26,0c0.97,0.18,1.84,0.81,2.33,1.67c-0.09-0.27-0.18-0.55-0.27-0.82
				c-0.05-0.17-0.11-0.35-0.06-0.52c0.06-0.2,0.25-0.33,0.43-0.44c0.43-0.26,0.87-0.49,1.32-0.7C73.03,8.32,71.97,8.41,70.9,8.46z"
				/>
			<g>
				<path d="M56.26,38.09c1.05,0.53,2.06,1.14,3.01,1.85c0.11,0.08,0.22-0.1,0.11-0.18c-0.95-0.7-1.95-1.32-3.01-1.85
					C56.24,37.85,56.13,38.03,56.26,38.09L56.26,38.09z"/>
			</g>
			<g>
				<path d="M75.95,78.85c0.83,2.23,0.09,4.65-0.14,6.92c-0.24,2.39,0.13,4.79,0.65,7.12c0.54,2.4,1.26,4.76,1.65,7.19
					c0.43,2.63,0.62,5.31,0.77,7.97c0.15,2.59,0.26,5.18,0.43,7.77c0.17,2.66,0.31,5.31,0.18,7.98c-0.06,1.31-0.16,2.61-0.27,3.91
					c-0.1,1.28-0.24,2.59-0.92,3.71c-1.08,1.78-3.23,2.98-3.48,5.19c-0.08,0.71-0.78,0.78-1.38,0.88c-0.73,0.13-1.47,0.23-2.21,0.32
					c-1.46,0.19-2.93,0.35-4.4,0.5c-1.5,0.15-3.01,0.28-4.52,0.42c-1.45,0.13-3.04,0.38-4.47,0.03c0.1,0.14,0.21,0.27,0.31,0.41
					c-0.06-0.69-0.14-1.4-0.47-2.02c-0.36-0.68-1.01-0.99-1.67-1.33c-1.53-0.77-2.09-2.11-2.4-3.73c-0.35-1.78-0.59-3.59-0.96-5.37
					c-0.41-1.98-0.9-3.95-1.45-5.9c-1.05-3.67-2.62-7.21-3.41-10.94c-0.84-4-0.44-8.1-0.5-12.15c-0.06-4.02-0.64-8-1.24-11.97
					c-0.61-4.02-1.24-8.04-1.9-12.06c-0.66-4.06-1.36-8.11-2.07-12.16c-0.61-3.43-1.49-6.79-2.01-10.23
					c-0.56-3.71-0.56-7.47-1.12-11.18c-0.29-1.91-0.68-3.8-1.07-5.69c-0.41-1.99-0.6-3.94-0.51-5.98c0.04-0.97,0.21-1.95,0.16-2.92
					c-0.04-0.91-0.33-1.8-0.48-2.69c-0.15-0.84-0.39-1.9-0.3-2.75c0.1-0.94,0.94-1.79,1.35-2.62c0.33-0.67,0.61-1.45,0.58-2.2
					c-0.01-0.37-0.23-0.86-0.1-1.21c0.16-0.44,0.65-0.52,1.03-0.65c1.21-0.41,2.41-0.85,3.61-1.27c3.25-1.14,6.75-1.64,10.14-2.22
					c4.05-0.69,8.16-1.37,12.27-1.44c1.98-0.03,3.95,0.19,5.92,0.21c2.06,0.02,4.1-0.31,6.15-0.4c3.25-0.14,6.5,0.13,9.72,0.51
					c3.19,0.37,6.37,0.86,9.53,1.45c0.69,0.13,1.39,0.11,2.02,0.46c0.78,0.44,1.2,1.15,1.38,2.01c0.14,0.71,0.28,1.29,0.81,1.8
					c0.35,0.34,0.7,0.58,0.82,1.09c0.12,0.5,0.01,1.03-0.06,1.53c-0.26,1.95-0.07,3.87-0.14,5.83c-0.03,0.79-0.04,1.57,0.12,2.36
					c0.21,1.03,0.37,2.01,0.4,3.06c0.06,1.86-0.06,3.71,0.27,5.55c0.34,1.89,1.05,3.68,1.84,5.42c0.39,0.85,0.69,1.63,0.86,2.55
					c0.18,1.01,0.4,2.01,0.61,3.01c0.4,1.97,0.8,3.94,1.21,5.9c0.41,1.99,0.82,3.98,1.36,5.95c0.47,1.74,0.82,3.4,0.96,5.2
					c0.13,1.64,0.2,3.3,0.46,4.93c0.28,1.76,0.9,3.46,1.29,5.2c0.44,1.96,0.78,3.95,1.06,5.94c0.27,1.87,0.36,3.8,0.74,5.65
					c1.4,6.71,3,13.51,5.82,19.78c0.81,1.79,1.77,3.46,2.33,5.36c0.55,1.85,0.94,3.75,1.31,5.64c0.77,3.91,1.27,7.91,0.86,11.9
					c-0.1,0.95-0.23,1.92-0.54,2.82c-0.33,0.94-0.9,1.68-1.56,2.41c-0.46,0.51-1.03,1.05-1.28,1.7c-0.28,0.73-0.16,1.53-0.1,2.29
					c0.03,0.37,0.18,0.97,0.06,1.33c-0.09,0.29-0.34,0.37-0.6,0.49c-0.9,0.41-1.82,0.75-2.76,1.06c-1.87,0.61-3.81,1.03-5.77,1.28
					c-1.7,0.21-3.56,0.43-5.27,0.22c-1.06-0.14-1.4-0.61-1.69-1.57c-0.2-0.67-0.48-1.28-0.93-1.83c-0.89-1.11-2.16-1.82-3.37-2.5
					c-1.31-0.73-2.54-1.5-3.56-2.61c-1.09-1.18-1.91-2.62-2.36-4.17c-0.52-1.79-0.54-3.71-0.88-5.54
					c-0.71-3.78-1.97-7.43-3.13-11.08c-0.58-1.82-1.14-3.64-1.83-5.43c-0.73-1.88-1.52-3.74-2.31-5.6c-1.35-3.2-2.75-6.38-4.14-9.57
					c-1.34-3.09-2.63-6.21-3.78-9.37c-0.53-1.45-1.04-2.91-1.43-4.39c-0.52-1.94-0.88-3.92-1.29-5.89
					c-0.78-3.84-1.7-7.66-2.75-11.44c-0.51-1.84-1.07-3.66-1.73-5.46c-0.33-0.89-0.68-1.77-1.05-2.64
					c-0.34-0.79-0.67-1.64-1.28-2.26c-0.52-0.53-1.22-0.77-1.84-1.15c-0.72-0.44-1.28-1.08-1.81-1.72c-1.24-1.5-2.46-3.03-3.68-4.55
					c-0.34-0.43-0.94,0.18-0.6,0.6c1.27,1.57,2.52,3.17,3.82,4.72c0.54,0.64,1.13,1.25,1.85,1.69c0.82,0.5,1.6,0.76,2.12,1.63
					c1,1.69,1.62,3.71,2.23,5.56c0.63,1.9,1.17,3.82,1.69,5.76c1.03,3.88,1.87,7.79,2.67,11.71c0.7,3.43,1.74,6.71,2.99,9.97
					c1.21,3.15,2.52,6.27,3.9,9.35c1.55,3.48,3.03,6.98,4.49,10.49c1.54,3.69,2.73,7.48,3.94,11.29c0.6,1.89,1.18,3.79,1.65,5.71
					c0.47,1.94,0.74,3.88,1,5.86c0.41,3.18,1.96,6.02,4.54,7.95c1.16,0.87,2.51,1.45,3.72,2.25c0.56,0.37,1.1,0.79,1.53,1.3
					c0.59,0.7,0.72,1.51,1.06,2.32c0.62,1.5,2.28,1.53,3.69,1.51c1.81-0.02,3.62-0.18,5.4-0.48c1.9-0.32,3.78-0.81,5.58-1.48
					c0.74-0.28,1.63-0.54,2.28-0.99c0.5-0.34,0.58-0.83,0.57-1.39c-0.02-0.83-0.23-1.69-0.11-2.52c0.13-0.92,1.05-1.62,1.63-2.29
					c1.13-1.33,1.59-2.85,1.82-4.57c0.52-3.96,0.11-7.97-0.61-11.87c-0.37-1.99-0.78-3.99-1.31-5.95c-0.5-1.89-1.31-3.55-2.16-5.29
					c-1.57-3.23-2.7-6.68-3.68-10.13c-0.96-3.37-1.75-6.79-2.47-10.22c-0.4-1.92-0.51-3.91-0.79-5.85
					c-0.28-1.99-0.62-3.98-1.06-5.94c-0.41-1.81-1.05-3.58-1.33-5.41c-0.26-1.74-0.3-3.51-0.46-5.26c-0.16-1.74-0.58-3.35-1.02-5.03
					c-0.53-2.01-0.94-4.04-1.36-6.08c-0.42-2.05-0.84-4.11-1.26-6.16c-0.18-0.89-0.35-1.79-0.52-2.68
					c-0.19-0.99-0.67-1.86-1.08-2.77c-0.83-1.86-1.51-3.83-1.69-5.86c-0.17-1.9,0.02-3.81-0.19-5.7c-0.11-0.95-0.42-1.87-0.44-2.83
					c-0.02-0.94,0.06-1.87,0.02-2.81c-0.04-1.01-0.06-2.01,0.02-3.01c0.07-0.88,0.33-1.79,0.19-2.67c-0.13-0.77-0.56-1.15-1.08-1.67
					c-0.65-0.66-0.52-1.65-0.92-2.45c-0.29-0.57-0.74-1.05-1.27-1.39c-0.7-0.46-1.42-0.49-2.21-0.62
					C90.99,8.5,84.54,7.23,78.02,7.48c-2.06,0.08-4.1,0.42-6.16,0.42c-2.06,0-4.12-0.25-6.18-0.21c-4.01,0.07-8.03,0.73-11.99,1.38
					c-3.56,0.59-7.24,1.11-10.65,2.3c-1.2,0.42-2.4,0.85-3.61,1.27c-0.51,0.18-1.08,0.33-1.41,0.79c-0.48,0.68-0.1,1.39-0.14,2.12
					c-0.12,1.9-2.04,3.14-1.91,5.08c0.06,0.91,0.19,1.84,0.36,2.73c0.19,1.02,0.46,1.97,0.39,3.02c-0.12,2.01-0.27,3.99-0.01,6
					c0.26,1.95,0.74,3.87,1.1,5.8c0.38,2.03,0.65,4.07,0.78,6.14c0.12,1.81,0.23,3.62,0.46,5.43c0.45,3.49,1.14,6.92,1.95,10.34
					c0.47,2.01,0.74,4.1,1.09,6.14c0.36,2.07,0.71,4.14,1.05,6.21c0.67,4.06,1.32,8.12,1.94,12.19c0.64,4.19,1.31,8.4,1.41,12.65
					c0.1,4.01-0.3,8.05,0.37,12.03c0.66,3.89,2.33,7.55,3.43,11.32c1.11,3.81,1.8,7.67,2.51,11.56c0.25,1.33,0.65,2.77,1.7,3.71
					c0.57,0.5,1.28,0.72,1.9,1.12c0.76,0.49,0.88,1.37,0.95,2.21c0.02,0.18,0.12,0.36,0.31,0.41c1.25,0.3,2.55,0.17,3.82,0.07
					c1.41-0.11,2.82-0.25,4.22-0.38c2.67-0.25,5.36-0.5,8-0.97c0.87-0.16,1.82-0.4,1.97-1.39c0.09-0.54,0.14-0.95,0.44-1.44
					c0.34-0.56,0.78-1.04,1.22-1.52c0.77-0.83,1.57-1.66,2.05-2.7c0.49-1.08,0.62-2.26,0.71-3.43c0.23-2.81,0.4-5.62,0.3-8.43
					c-0.1-2.76-0.32-5.52-0.46-8.28c-0.14-2.72-0.28-5.44-0.57-8.15c-0.27-2.58-0.76-5.08-1.4-7.6c-0.73-2.88-1.48-5.81-1.34-8.81
					c0.13-2.63,1.12-5.37,0.16-7.95C76.58,78.12,75.75,78.34,75.95,78.85L75.95,78.85z"/>
			</g>
			<g>
				<path d="M38.91,17.48c0.83,0.27,1.57-0.24,2.23-0.67c0.35-0.23,0.68-0.45,1.09-0.56c0.4-0.1,0.79-0.18,1.18-0.31
					c0.81-0.26,1.62-0.51,2.47-0.61c0.45-0.05,0.89-0.06,1.34-0.05c0.42,0.01,0.84,0.01,1.24-0.12c0.42-0.13,0.8-0.35,1.2-0.52
					c0.4-0.18,0.82-0.33,1.24-0.47c0.82-0.26,1.66-0.45,2.5-0.61c1.82-0.34,3.64-0.56,5.49-0.64c1.88-0.08,3.77-0.09,5.65-0.26
					c1.82-0.16,3.6-0.57,5.41-0.77c0.91-0.1,1.82-0.13,2.74-0.06c0.92,0.08,1.83,0.21,2.76,0.24c0.95,0.03,1.89-0.02,2.84-0.03
					c0.94-0.01,1.88,0.04,2.81,0.13c1.86,0.17,3.71,0.46,5.56,0.71c1.88,0.25,3.75,0.55,5.61,0.9c0.46,0.08,0.91,0.17,1.37,0.26
					c0.27,0.05,0.38-0.36,0.11-0.41c-3.67-0.72-7.37-1.24-11.08-1.71c-0.92-0.12-1.85-0.22-2.78-0.27
					c-0.94-0.05-1.89-0.03-2.83-0.01c-0.94,0.02-1.88,0.02-2.82-0.07c-0.9-0.09-1.79-0.21-2.7-0.2c-1.81,0.02-3.59,0.41-5.37,0.68
					c-1.86,0.28-3.75,0.33-5.63,0.39c-1.87,0.06-3.74,0.13-5.59,0.43c-1.71,0.28-3.44,0.57-5.05,1.21
					c-0.39,0.16-0.76,0.34-1.14,0.51c-0.44,0.2-0.86,0.27-1.34,0.27c-0.87-0.01-1.7,0.02-2.54,0.21c-0.82,0.19-1.6,0.5-2.42,0.68
					c-0.36,0.08-0.72,0.17-1.04,0.36c-0.38,0.23-0.74,0.5-1.13,0.72s-0.82,0.37-1.27,0.23C38.76,16.99,38.65,17.4,38.91,17.48
					L38.91,17.48z"/>
			</g>
			<g>
				<path d="M97.71,14.89c0.66,0.09,1.3,0.24,1.91,0.49c0.62,0.25,1.21,0.56,1.82,0.83c0.25,0.11,0.46-0.25,0.21-0.37
					c-0.64-0.29-1.27-0.61-1.92-0.88c-0.65-0.26-1.33-0.41-2.03-0.5C97.44,14.43,97.44,14.85,97.71,14.89L97.71,14.89z"/>
			</g>
			<g>
				<path d="M42.94,12.97c-0.09,0.43,0,0.89,0.24,1.26c0.07,0.11,0.26,0.01,0.18-0.11c-0.21-0.32-0.29-0.72-0.22-1.09
					C43.17,12.89,42.97,12.84,42.94,12.97L42.94,12.97z"/>
			</g>
			<g>
				<path d="M54.69,10.68c-0.2,0.57-0.15,1.21,0.15,1.74c0.07,0.12,0.25,0.01,0.18-0.11c-0.27-0.48-0.31-1.06-0.13-1.58
					C54.94,10.6,54.74,10.55,54.69,10.68L54.69,10.68z"/>
			</g>
			<g>
				<path d="M72.31,9.73c0.19,0.35,0.29,0.74,0.3,1.13c0,0.14,0.22,0.14,0.21,0c-0.01-0.43-0.12-0.86-0.33-1.24
					C72.43,9.5,72.24,9.61,72.31,9.73L72.31,9.73z"/>
			</g>
			<g>
				<path d="M91.83,11c0.1,0.3,0.13,0.62,0.1,0.94c-0.01,0.06,0.05,0.11,0.11,0.11s0.1-0.05,0.11-0.11
					c0.03-0.33-0.01-0.67-0.11-0.99C91.99,10.81,91.78,10.86,91.83,11L91.83,11z"/>
			</g>
			<g>
				<path d="M50.54,15.42c0.85,0.91,1.87,1.66,3,2.19c0.12,0.06,0.23-0.13,0.11-0.18c-1.12-0.52-2.12-1.25-2.96-2.15
					C50.59,15.17,50.44,15.32,50.54,15.42L50.54,15.42z"/>
			</g>
			<g>
				<path d="M55.57,18.72c3.36,1.39,7.07,1.91,10.69,1.5c3.32-0.37,6.53-1.55,9.33-3.37c1.55-1.01,2.96-2.22,4.2-3.59
					c0.09-0.1-0.06-0.25-0.15-0.15c-2.18,2.41-4.92,4.32-7.94,5.53c-3.23,1.29-6.74,1.76-10.2,1.38c-2.02-0.22-4-0.73-5.87-1.5
					C55.5,18.46,55.44,18.66,55.57,18.72L55.57,18.72z"/>
			</g>
			<g>
				<path d="M98.08,29.05c0.57,1.34,0.24,2.9-0.6,4.04c-0.42,0.56-0.98,1.04-1.63,1.32c-0.58,0.25-1.39,0.2-1.85,0.67
					c-0.59,0.6,0.47,1.23,0.85,1.55c0.81,0.68,1.63,1.34,2.46,2c0.79,0.62,1.6,1.21,2.39,1.83c0.76,0.6,1.45,1.26,1.92,2.12
					c0.51,0.94,0.8,1.99,1.11,3.02c0.35,1.16,0.69,2.32,1.03,3.48c0.04,0.13,0.24,0.08,0.2-0.06c-0.3-1.03-0.6-2.06-0.91-3.09
					c-0.28-0.92-0.53-1.85-0.9-2.73c-0.36-0.86-0.85-1.61-1.53-2.24c-0.7-0.65-1.5-1.19-2.25-1.77c-0.85-0.65-1.68-1.31-2.5-1.98
					c-0.41-0.33-0.81-0.67-1.22-1.01c-0.29-0.24-0.9-0.66-0.42-1.02c0.29-0.22,0.67-0.26,1.01-0.33c0.33-0.07,0.64-0.18,0.94-0.33
					c0.58-0.3,1.08-0.74,1.47-1.27c0.91-1.22,1.23-2.87,0.62-4.29C98.21,28.82,98.03,28.93,98.08,29.05L98.08,29.05z"/>
			</g>
			<g>
				<path d="M77.73,73.22c0.59,1.72,1.28,3.41,2.06,5.05c0.73,1.54,1.5,3.11,2.56,4.46c0.9,1.14,2.22,2.36,3.78,2.31
					c0.8-0.02,1.38-0.5,2.06-0.85c0.72-0.37,1.53-0.55,2.33-0.54c0.9,0,1.81,0.23,2.59,0.69c0.22,0.13,0.25,0.41,0.31,0.65
					c0.06,0.26,0.11,0.52,0.13,0.78c0.05,0.54,0.03,1.08-0.07,1.61c-0.02,0.13,0.18,0.19,0.2,0.06c0.15-0.84,0.14-1.71-0.07-2.55
					c-0.04-0.17-0.08-0.42-0.18-0.57c-0.08-0.12-0.28-0.2-0.4-0.26c-0.32-0.17-0.65-0.3-0.99-0.4c-1.46-0.43-3.03-0.21-4.33,0.57
					c-0.37,0.22-0.73,0.46-1.15,0.55c-0.41,0.09-0.85,0.06-1.25-0.06c-0.82-0.23-1.53-0.76-2.12-1.36c-1.21-1.23-2.03-2.8-2.79-4.33
					c-0.95-1.9-1.77-3.85-2.46-5.86C77.89,73.04,77.69,73.09,77.73,73.22L77.73,73.22z"/>
			</g>
			<g>
				<path d="M93.08,91.45c-0.88,1.87-1.86,3.69-2.94,5.45c-0.54,0.88-1.12,1.72-1.69,2.58c-0.27,0.41-0.31,0.76-0.25,1.24
					c0.07,0.54,0.14,1.07,0.2,1.61c0.16,1.25,0.32,2.49,0.47,3.74c0.02,0.13,0.23,0.14,0.21,0c-0.14-1.07-0.27-2.15-0.41-3.22
					c-0.07-0.52-0.13-1.04-0.2-1.56s-0.23-1.08,0.05-1.55c0.25-0.43,0.56-0.82,0.83-1.23c0.28-0.42,0.55-0.85,0.82-1.28
					c0.53-0.85,1.03-1.71,1.51-2.59c0.55-1.01,1.07-2.03,1.56-3.07C93.32,91.44,93.13,91.33,93.08,91.45L93.08,91.45z"/>
			</g>
			<g>
				<path d="M119.21,135.21c-2.15-1.61-5.25-2.62-6.2-5.39c-0.02,0.04-0.05,0.09-0.07,0.13c1.57-0.6,3.16,0.61,4.75,0.19
					c0.84-0.23,1.42-0.9,1.95-1.55c0.63-0.77,1.21-1.58,1.75-2.41c0.07-0.12-0.11-0.22-0.18-0.11c-0.55,0.85-1.14,1.67-1.77,2.45
					c-0.54,0.66-1.14,1.32-2.01,1.47c-1.52,0.26-3.02-0.81-4.53-0.24c-0.05,0.02-0.09,0.07-0.07,0.13c0.98,2.84,4.1,3.86,6.3,5.52
					C119.21,135.48,119.32,135.29,119.21,135.21L119.21,135.21z"/>
			</g>
			<g>
				<path d="M121.44,125.02c0.24-1.5,0.4-3,0.49-4.52c0.01-0.14-0.2-0.14-0.21,0c-0.09,1.49-0.25,2.98-0.48,4.46
					C121.21,125.1,121.42,125.16,121.44,125.02L121.44,125.02z"/>
			</g>
			<g>
				<path d="M113.35,101.09c-1.45,0.18-2.8,0.74-4.04,1.49c-0.64,0.39-1.26,0.82-1.85,1.28c-0.58,0.44-1.2,0.89-1.72,1.4
					c-0.88,0.86,1.98,1.65,2.47,1.79c0.66,0.18,1.34,0.36,1.94,0.7c0.68,0.38,1.26,0.93,1.97,1.26c0.58,0.27,1.3,0.4,1.92,0.15
					c0.72-0.3,0.98-1.05,1.15-1.74c0.03-0.13-0.17-0.19-0.2-0.06c-0.16,0.61-0.36,1.3-0.99,1.59c-0.58,0.27-1.29,0.12-1.84-0.15
					c-0.61-0.3-1.13-0.75-1.7-1.11c-0.5-0.31-1.05-0.51-1.61-0.68s-1.14-0.3-1.69-0.5c-0.26-0.1-0.51-0.21-0.75-0.35
					c-0.15-0.09-0.29-0.18-0.42-0.29c-0.04-0.03-0.09-0.07-0.12-0.1c-0.18-0.24,0.01-0.34,0.15-0.46c1.01-0.86,2.06-1.69,3.18-2.39
					c1.27-0.8,2.66-1.41,4.16-1.6C113.48,101.28,113.48,101.07,113.35,101.09L113.35,101.09z"/>
			</g>
			<g>
				<path d="M54.71,130.9c3.13,2.33,7.28,1.45,10.9,1.72c1.17,0.09,2.33,0.3,3.41,0.76c-0.01-0.06-0.01-0.11-0.02-0.17
					c-0.68,0.64-1.5,1.13-2.38,1.42c-0.91,0.3-1.82,0.33-2.76,0.33c-0.85,0-1.76,0.03-2.48,0.53c-0.59,0.41-1,1.04-0.9,1.77
					c0.02,0.13,0.22,0.08,0.2-0.06c-0.12-0.87,0.64-1.58,1.41-1.84c0.88-0.3,1.85-0.16,2.76-0.2c1.6-0.07,3.14-0.71,4.31-1.81
					c0.05-0.04,0.04-0.14-0.02-0.17c-3.66-1.56-7.72-0.3-11.5-1.21c-1.01-0.24-1.97-0.65-2.81-1.27
					C54.71,130.63,54.6,130.81,54.71,130.9L54.71,130.9z"/>
			</g>
			<g>
				<path d="M53.08,120.8c-1.15-2.6-1.7-5.46-1.56-8.3c0.01-0.29,0.03-0.6,0.16-0.87c0.18-0.36,0.54-0.45,0.91-0.48
					c0.54-0.04,1.06-0.08,1.58-0.26c1.03-0.34,1.94-1.01,2.66-1.82c1.69-1.92,2.19-4.49,2.43-6.96c0.07-0.67,0.15-1.34,0.16-2.01
					c0.01-0.55-0.08-1.1-0.46-1.53c-0.37-0.42-0.93-0.62-1.45-0.79c-0.69-0.22-1.4-0.39-2.12-0.49c-0.75-0.11-1.5-0.11-2.25-0.16
					s-1.5-0.22-2.1-0.7c-1-0.79-1.44-2.09-1.83-3.26c-0.04-0.13-0.25-0.07-0.2,0.06c0.33,1.01,0.7,2.06,1.4,2.89
					c0.34,0.4,0.77,0.73,1.26,0.93c0.58,0.24,1.22,0.29,1.84,0.32c1.45,0.07,2.86,0.22,4.23,0.72c0.64,0.23,1.22,0.59,1.39,1.29
					c0.15,0.65,0.02,1.36-0.03,2.01c-0.22,2.61-0.61,5.41-2.38,7.47c-0.74,0.86-1.7,1.57-2.8,1.88c-0.28,0.08-0.56,0.14-0.85,0.16
					c-0.28,0.03-0.58,0.02-0.86,0.08c-0.54,0.12-0.8,0.53-0.88,1.05c-0.1,0.71-0.07,1.46-0.04,2.18c0.04,0.76,0.12,1.51,0.25,2.26
					c0.26,1.53,0.72,3.02,1.35,4.44C52.95,121.03,53.14,120.92,53.08,120.8L53.08,120.8z"/>
			</g>
			<g>
				<path d="M76.19,112.19c-2.29-0.9-4.53-1.93-6.71-3.06c-0.08-0.04-0.18,0.03-0.16,0.12c0.27,1.14-0.29,2.22-0.77,3.22
					c-0.22,0.46-0.44,0.93-0.58,1.43c-0.09,0.34-0.11,0.69,0.27,0.83c0.23,0.08,0.49,0.1,0.73,0.14c0.29,0.05,0.57,0.09,0.86,0.12
					c0.57,0.08,1.14,0.14,1.72,0.18c0.56,0.05,1.14,0.11,1.7,0.08c0.54-0.03,1.03-0.34,1.57-0.15c0.57,0.19,1.04,0.69,1.46,1.1
					c0.43,0.42,0.83,0.87,1.2,1.34c0.08,0.11,0.23-0.04,0.15-0.15c-0.61-0.78-1.31-1.56-2.12-2.16c-0.34-0.25-0.74-0.45-1.16-0.42
					c-0.23,0.01-0.44,0.09-0.65,0.15c-0.29,0.08-0.59,0.08-0.89,0.07c-1.16-0.05-2.31-0.16-3.46-0.33
					c-0.28-0.04-0.55-0.08-0.83-0.13c-0.14-0.03-0.34-0.05-0.39-0.22c-0.05-0.14,0.04-0.35,0.08-0.49c0.15-0.53,0.39-1.02,0.63-1.51
					c0.48-0.99,0.95-2.05,0.69-3.17c-0.05,0.04-0.1,0.08-0.16,0.12c2.2,1.15,4.46,2.18,6.76,3.09
					C76.26,112.45,76.31,112.24,76.19,112.19L76.19,112.19z"/>
			</g>
			<g>
				<path d="M69.09,85.68c0.84-0.22,1.66-0.51,2.45-0.86c0.12-0.05,0.02-0.24-0.11-0.18c-0.78,0.34-1.58,0.62-2.4,0.84
					C68.91,85.51,68.96,85.71,69.09,85.68L69.09,85.68z"/>
			</g>
			<g>
				<path d="M69.31,48.85c1.64-0.09,3.23-0.57,4.65-1.41c0.12-0.07,0.01-0.25-0.11-0.18c-1.38,0.82-2.94,1.29-4.54,1.38
					C69.17,48.64,69.17,48.86,69.31,48.85L69.31,48.85z"/>
			</g>
			<g>
				<path d="M112.35,82.78c-0.54,0.28-1.04,0.64-1.6,0.89c-0.26,0.12-0.55,0.21-0.85,0.19c-0.34-0.02-0.56-0.2-0.85-0.35
					c-0.49-0.26-1.01,0.18-1.41,0.44c-0.56,0.35-1.08,0.74-1.58,1.17c-0.1,0.09,0.05,0.24,0.15,0.15c0.51-0.43,1.05-0.83,1.62-1.18
					c0.24-0.15,0.61-0.46,0.9-0.45c0.28,0,0.55,0.31,0.81,0.39c1.03,0.32,2.07-0.61,2.92-1.05
					C112.58,82.9,112.47,82.72,112.35,82.78L112.35,82.78z"/>
			</g>
			<path class="st9" d="M91.1,29.19c-0.43,0.36-0.85,0.73-1.25,1.13c-0.22,0.22-0.54,0.26-0.73,0.08c-2.54-2.56-5.17-5.81-7.65-9.81
				c-0.18-0.29-0.11-0.79,0.15-1.1c0.48-0.57,0.98-1.11,1.5-1.63c0.29-0.29,0.66-0.26,0.82,0.05c2.28,4.26,4.78,7.78,7.26,10.58
				C91.39,28.68,91.33,28.99,91.1,29.19z"/>
			<g>
				<path class="st10" d="M41.6,31.93c-0.14,0.03-0.3-0.02-0.44-0.15c-0.31-0.26-0.62-0.51-0.94-0.74l0,0
					c-0.14-0.1-0.25-0.26-0.3-0.44c-0.04-0.16-0.03-0.32,0.03-0.45c1.21-2.73,2.19-5.87,2.91-9.32c0.04-0.19,0.14-0.33,0.28-0.38
					c0.16-0.06,0.34-0.01,0.51,0.14c0.41,0.36,0.82,0.74,1.21,1.14c0.28,0.29,0.43,0.79,0.33,1.14c-0.88,3.3-1.99,6.27-3.3,8.84
					C41.82,31.83,41.72,31.91,41.6,31.93z M43.3,20.9L43.3,20.9c-0.04,0.01-0.06,0.04-0.07,0.09c-0.73,3.48-1.72,6.65-2.94,9.41
					c-0.01,0.03-0.01,0.05,0,0.09c0.01,0.05,0.05,0.1,0.1,0.14l0,0c0.33,0.24,0.66,0.5,0.98,0.77c0.09,0.08,0.18,0.08,0.21,0.02
					c1.3-2.54,2.4-5.49,3.27-8.75c0.04-0.15-0.04-0.43-0.2-0.59c-0.38-0.39-0.78-0.76-1.18-1.11C43.4,20.92,43.34,20.89,43.3,20.9z"
					/>
			</g>
		</g>
	</g>
</g>
</svg>
