<?xml version="1.0" encoding="utf-8"?>
<!-- Generator: Adobe Illustrator 28.0.0, SVG Export Plug-In . SVG Version: 6.00 Build 0)  -->
<svg version="1.1" id="Layer_1" xmlns="http://www.w3.org/2000/svg" xmlns:xlink="http://www.w3.org/1999/xlink" x="0px" y="0px"
	 viewBox="0 0 150 150" style="enable-background:new 0 0 150 150;" xml:space="preserve">
<style type="text/css">
	.st0{stroke:#000000;stroke-width:2;stroke-linecap:round;stroke-linejoin:round;stroke-miterlimit:10;}
	.st1{fill:#E5DBAC;}
	.st2{fill:#E3B169;}
	.st3{fill:#FFE9CC;}
	.st4{fill:url(#SVGID_1_);}
	.st5{fill:url(#SVGID_00000141427760175924410010000014264887641308379526_);}
	.st6{fill:url(#SVGID_00000143616357401257671910000003897557536686354334_);}
	.st7{fill:url(#SVGID_00000038374548004327405290000006119243039578227084_);}
</style>
<g id="Doge_Pyjamas_Bat">
	<g>
		<path class="st0" d="M138.74,11.55c-3.9-3.99-9.8-4.58-13.15-1.3L75.27,63.87c-4.66,4.96-9.2,10.21-13.59,15.28
			c-3.04,3.51-6.19,7.15-9.35,10.66c-6.35,7.06-12.58,13.97-18.82,20.89c-6.16,6.83-12.33,13.67-18.6,20.64
			c-0.53-0.25-1.07-0.46-1.62-0.57c-1.49-0.29-2.8,0.03-3.68,0.9c-0.89,0.87-1.23,2.17-0.96,3.67c0.26,1.44,1.05,2.9,2.24,4.11
			s2.63,2.03,4.07,2.31c1.27,0.25,2.41,0.05,3.26-0.55c0.15-0.1,0.29-0.22,0.42-0.35c1.35-1.32,1.35-3.63,0.2-5.78l41.28-37.11
			c3.51-3.16,7.14-6.3,10.66-9.34c5.08-4.39,10.32-8.93,15.29-13.59l53.64-50.29c0.01-0.01,0.01-0.01,0.01-0.02
			c0.01-0.01,0.03-0.01,0.04-0.03C143.1,21.45,142.64,15.54,138.74,11.55z"/>
		<g>
			<path class="st1" d="M29.22,123.45c-0.02-0.03-0.04-0.06-0.06-0.08c-0.21-0.26-0.64-0.43-0.95-0.26
				c-0.07,0.04-0.12,0.09-0.16,0.16c-0.11,0.21-0.02,0.47,0.06,0.7c0.12,0.33,0.22,0.68,0.27,1.03c0.02,0.13,0.24,0.78,0.44,0.74
				c0.02-0.01,0.05-0.02,0.07-0.04c0.26-0.2,0.52-0.41,0.63-0.72c0.11-0.31,0.04-0.66-0.06-0.98
				C29.39,123.8,29.33,123.61,29.22,123.45z"/>
			<path class="st1" d="M139.3,12.83c-0.23-0.27-0.48-0.53-0.72-0.79c-0.59-0.62-1.18-1.47-1.93-1.87c-0.75-0.39-1.49-0.82-2.3-1.09
				c-0.89-0.29-1.84-0.37-2.77-0.43c-0.67-0.04-1.34-0.08-2.01,0.03c-1.43,0.25-2.63,1.18-3.71,2.15c-1.06,0.95-2.06,1.97-3.06,2.98
				c-1.62,1.65-3.2,3.32-4.77,5.03c-3.2,3.5-6.49,6.93-9.72,10.39c-3.32,3.56-6.64,7.13-9.96,10.69c-3.32,3.56-6.64,7.13-9.96,10.69
				c-3.1,3.33-6.21,6.66-9.31,10c-0.8,0.86-1.6,1.72-2.42,2.56c-0.41,0.42-0.81,0.9-1.26,1.27c-0.36,0.3-0.68,0.53-1.01,0.89
				c-1.61,1.82-3.23,3.64-4.84,5.47c-3.23,3.64-6.46,7.29-9.69,10.93c-2.91,3.28-5.81,6.56-8.72,9.84
				c-1.56,1.76-3.24,3.45-4.71,5.27c-1.51,1.86-3.1,3.66-4.73,5.41c-0.03,0.04-0.07,0.07-0.1,0.11c-1.22,1.31-2.48,2.59-3.71,3.9
				c-2.62,2.79-5.12,5.69-7.61,8.6c-0.03-0.03-0.06-0.05-0.09-0.08c-3.46,4.63-7.45,8.84-11.42,13.04c-0.93,0.98-1.81,1.99-2.71,3
				c-0.26,0.29-0.57,0.73-1,0.75c-0.22,0.01-0.44-0.07-0.65-0.13c-0.96-0.27-1.98-0.21-2.98-0.12c-0.32,0.03-0.64,0.06-0.93,0.19
				c-0.46,0.21-0.78,0.65-1.01,1.1c-0.18,0.36-0.32,0.74-0.39,1.14c-0.21,1.21,0.17,2.82,0.78,3.87c0.3,0.51,0.72,0.95,1.14,1.36
				c0.5,0.48,0.95,0.9,1.55,1.23c0.56,0.31,1.13,0.6,1.72,0.84c0.54,0.22,0.98,0.45,1.59,0.41c0.28-0.02,0.55-0.08,0.83-0.15
				c0.44-0.12,0.88-0.26,1.26-0.51c0.74-0.49,1.17-1.35,1.36-2.23c0.03-0.15,0.06-0.3,0.08-0.45c0.02-0.21,0.03-0.42,0.01-0.63
				c-0.06-0.68-0.39-1.31-0.62-1.95c-0.2-0.53-0.17-0.89,0.3-1.24c0.7-0.53,1.35-1.13,2-1.73c1.83-1.69,3.66-3.37,5.49-5.06
				c0.38-0.35,0.81-0.54,1.23-0.84c0.49-0.35,0.97-0.71,1.43-1.09c0.91-0.75,1.77-1.55,2.64-2.34c0.78-0.72,1.57-1.45,2.26-2.26
				c0.06-0.07,0.13-0.15,0.18-0.23c0.75-0.63,1.45-1.33,2.18-1.97c1.82-1.62,3.64-3.23,5.47-4.85c3.64-3.23,7.29-6.47,10.93-9.7
				c1.81-1.61,3.62-3.22,5.44-4.82c1.73-1.53,3.31-3.25,5.03-4.8c3.54-3.18,7.27-6.15,10.85-9.29c0.84-0.74,1.67-1.48,2.5-2.25
				c1.25-1.16,2.44-2.5,3.83-3.49c1.33-0.95,2.52-2.13,3.7-3.25c0.09-0.08,0.18-0.17,0.27-0.25c3.53-3.35,7.07-6.7,10.6-10.05
				c3.46-3.28,6.87-6.62,10.43-9.79c0.09-0.08,0.18-0.16,0.27-0.24c0.86-0.77,1.72-1.55,2.58-2.33c3.5-3.21,6.84-6.58,10.28-9.83
				c0.99-0.93,1.98-1.86,2.98-2.79c3.51-3.27,7.04-6.53,10.58-9.76c1.44-1.31,2.87-2.62,4.31-3.93c0.83-0.76,1.66-1.51,2.43-2.32
				c0.68-0.71,1.31-1.46,1.82-2.3c0.49-0.82,0.75-1.56,0.82-2.5c0.14-1.85-0.21-3.73-1.03-5.4
				C140.26,14.11,139.82,13.43,139.3,12.83z"/>
			<g>
				<path class="st2" d="M42.07,101.85c-1.75,2.08-3.35,4.28-4.79,6.58c-0.71,1.13-1.38,2.29-2.01,3.46
					c-0.28,0.52-0.57,1.04-0.75,1.59c-0.17,0.5-0.17,1-0.21,1.53c-0.05,0.52-0.25,1.91,0.63,1.88c0.36-0.01,0.73-0.21,1.06-0.34
					c0.29-0.12,0.57-0.24,0.86-0.33c0.57-0.18,1.11-0.49,1.63-0.78c0.74-0.42,1.47-0.87,2.18-1.32c1.38-0.88,2.74-1.81,4.09-2.75
					c0.1-0.07-0.01-0.23-0.11-0.16c-1.1,0.77-2.21,1.53-3.33,2.26c-1.28,0.84-2.57,1.7-3.96,2.35c-0.21,0.1-0.43,0.19-0.65,0.25
					c-0.32,0.1-0.63,0.24-0.94,0.37c-0.27,0.11-0.73,0.37-1.02,0.22c-0.38-0.21-0.3-0.89-0.27-1.25c0.03-0.47,0.03-0.96,0.12-1.42
					c0.11-0.55,0.36-1.05,0.61-1.55c0.6-1.15,1.24-2.27,1.91-3.37c1.52-2.49,3.24-4.86,5.11-7.09
					C42.3,101.88,42.15,101.75,42.07,101.85L42.07,101.85z"/>
			</g>
			<g>
				<path class="st2" d="M17.93,129.84c-0.06,0.37-0.27,0.68-0.39,1.02c-0.1,0.3-0.07,0.57,0,0.87c0.09,0.43,0.26,1.29,0.88,1.15
					c0.61-0.14,1.01-0.73,1.56-0.99c0.64-0.31,1.28-0.6,1.92-0.9c0.73-0.35,1.46-0.7,2.2-1.04c0.11-0.05,0.05-0.23-0.07-0.18
					c-1.21,0.55-2.4,1.14-3.6,1.7c-0.22,0.1-0.46,0.19-0.67,0.32c-0.25,0.15-0.47,0.34-0.7,0.51c-0.21,0.15-0.51,0.42-0.79,0.4
					c-0.31-0.02-0.42-0.52-0.48-0.77c-0.09-0.37-0.17-0.72-0.03-1.08c0.13-0.33,0.32-0.63,0.38-0.99
					C18.14,129.75,17.95,129.72,17.93,129.84L17.93,129.84z"/>
			</g>
			<g>
				<path class="st2" d="M119.83,17.3c1.89-1.83,4.18-3.26,6.5-4.47c1.09-0.57,2.22-1.1,3.36-1.56c1.1-0.44,2.23-0.83,3.4-1.02
					c1.29-0.21,2.62-0.18,3.85,0.31c0.12,0.05,0.2-0.13,0.08-0.18c-2.24-0.89-4.68-0.33-6.85,0.49c-2.45,0.92-4.81,2.15-7.01,3.58
					c-1.24,0.81-2.42,1.7-3.49,2.72C119.59,17.26,119.74,17.39,119.83,17.3L119.83,17.3z"/>
			</g>
			<g>
				<path class="st2" d="M139.1,12.47c1.09,1.86,1.08,4.09,0.64,6.15c-0.48,2.22-1.42,4.32-2.47,6.32c-0.53,1-1.09,1.98-1.67,2.96
					c-0.06,0.11,0.11,0.19,0.18,0.08c1.11-1.88,2.18-3.79,3.02-5.81c0.85-2.04,1.52-4.26,1.42-6.5c-0.06-1.17-0.36-2.31-0.95-3.32
					C139.2,12.25,139.04,12.36,139.1,12.47L139.1,12.47z"/>
			</g>
			<g>
				<path class="st2" d="M51.16,91.57c-1.02,2.01-1.95,4.1-2.52,6.28c-0.46,1.74-0.93,4.34,0.68,5.67c1.02,0.84,2.49,0.83,3.73,0.66
					c0.12-0.02,0.11-0.21-0.02-0.19c-1.13,0.15-2.45,0.19-3.43-0.5c-0.73-0.52-1.06-1.36-1.15-2.23c-0.11-1.07,0.08-2.16,0.34-3.19
					c0.29-1.15,0.69-2.26,1.14-3.36c0.43-1.04,0.91-2.06,1.42-3.06C51.4,91.54,51.22,91.46,51.16,91.57L51.16,91.57z"/>
			</g>
			<g>
				<path class="st2" d="M56.58,85.65c-0.46,0.78-0.48,1.78-0.52,2.66c-0.04,0.74,0.21,1.46,0.7,2.02c1.2,1.33,2.84,0.91,4.3,0.3
					c2.19-0.92,4.07-2.39,5.94-3.82c2-1.54,3.97-3.11,5.92-4.72c7.85-6.47,15.37-13.35,22.8-20.3c7.22-6.76,14.27-13.7,21.42-20.53
					c3.63-3.46,7.41-6.79,10.91-10.38c1.52-1.56,3.13-3.21,4.12-5.16c0.98-1.94,2.22-3.79,2.91-5.86c0.9-2.69-0.84-5.66-3.69-6.05
					c-0.75-0.1-1.46,0.01-2.18,0.21c-1.09,0.31-2.15,0.73-3.18,1.2c-2.02,0.92-3.93,2.05-5.87,3.13c-0.97,0.54-1.95,1.07-2.96,1.55
					c-0.11,0.05-0.05,0.24,0.07,0.18c3.81-1.81,7.29-4.34,11.33-5.67c1.64-0.54,3.28-0.68,4.74,0.39c1.22,0.89,1.93,2.38,1.8,3.89
					c-0.08,0.92-0.47,1.78-0.85,2.61c-0.43,0.93-0.93,1.82-1.42,2.72c-0.51,0.92-0.93,1.91-1.54,2.77c-0.64,0.91-1.36,1.76-2.1,2.58
					c-3.15,3.48-6.74,6.56-10.14,9.79c-6.75,6.41-13.39,12.94-20.15,19.35c-7.05,6.69-14.22,13.27-21.59,19.61
					c-3.67,3.16-7.42,6.23-11.27,9.16c-1.79,1.36-3.63,2.69-5.76,3.44c-0.93,0.32-1.86,0.52-2.76,0c-0.75-0.43-1.25-1.23-1.29-2.09
					c-0.02-0.46,0.05-0.95,0.1-1.41c0.05-0.52,0.15-1.03,0.41-1.49C56.82,85.63,56.64,85.55,56.58,85.65L56.58,85.65z"/>
			</g>
			<g>
				<path class="st2" d="M66.13,76.86c-0.83,0.94-1.48,2.05-1.87,3.25c-0.26,0.82-0.38,2.02,0.61,2.39
					c0.93,0.35,2.04-0.32,2.84-0.73c1.27-0.67,2.46-1.49,3.58-2.39c2.27-1.81,4.34-3.88,6.4-5.92c2.11-2.1,4.18-4.25,6.28-6.37
					c4.08-4.11,8.35-8,12.68-11.85c4.22-3.75,8.47-7.48,12.54-11.4c4.08-3.93,7.98-8.07,11.42-12.57c1.23-1.6,2.7-3.67,2.12-5.81
					c-0.28-1.03-1.13-1.65-2.19-1.69c-1.22-0.05-2.27,0.66-3.2,1.37c-4.49,3.44-8.66,7.31-12.64,11.33
					c-4.03,4.06-7.88,8.3-11.72,12.54c-3.85,4.24-7.7,8.49-11.73,12.57c-3.94,3.99-8.21,7.65-12.03,11.76
					c-0.96,1.03-1.88,2.08-2.78,3.15c-0.08,0.1,0.07,0.22,0.15,0.12c1.73-2.06,3.55-4.02,5.46-5.91c1.92-1.9,3.93-3.72,5.89-5.59
					c3.96-3.78,7.71-7.77,11.4-11.81c3.71-4.06,7.37-8.17,11.14-12.18c3.76-4,7.64-7.91,11.78-11.54c1.02-0.9,2.06-1.78,3.12-2.64
					c1.02-0.83,2.05-1.76,3.2-2.42c1.06-0.61,2.67-0.92,3.55,0.17c0.82,1.01,0.55,2.56,0.08,3.67c-0.44,1.04-1.12,1.96-1.81,2.85
					c-0.83,1.08-1.68,2.13-2.55,3.17c-1.74,2.07-3.58,4.07-5.46,6c-3.84,3.94-7.91,7.63-12.02,11.29
					c-4.03,3.59-8.1,7.15-12.03,10.86c-4.12,3.9-7.99,8.06-12.05,12.03c-2.03,1.99-4.09,4-6.41,5.64c-1.1,0.78-2.31,1.56-3.58,2.02
					c-0.5,0.18-1.17,0.33-1.63-0.03c-0.58-0.46-0.44-1.31-0.25-1.93c0.37-1.21,1.02-2.31,1.86-3.25
					C66.36,76.89,66.21,76.76,66.13,76.86L66.13,76.86z"/>
			</g>
			<g>
				<path class="st2" d="M116.87,28.44c-2.51,1.16-4.56,3.05-6.58,4.9c-2.09,1.92-4.19,3.84-6.27,5.77
					c-1.97,1.82-3.85,3.7-5.36,5.92c-0.71,1.04-1.34,2.14-1.9,3.27c-0.19,0.39-0.47,0.82-0.39,1.28c0.05,0.32,0.26,0.61,0.54,0.77
					c0.3,0.17,0.66,0.2,0.98,0.05c0.26-0.12,0.49-0.32,0.71-0.5c0.27-0.21,0.53-0.44,0.79-0.67c0.99-0.87,1.91-1.82,2.79-2.8
					c1.81-1.99,3.49-4.09,5.44-5.95c1.07-1.02,2.27-1.89,3.46-2.75c1.33-0.97,2.68-1.93,3.96-2.98c1.04-0.86,2.12-1.79,2.83-2.95
					c0.51-0.83,0.76-1.82,0.24-2.7c-0.13-0.22-0.3-0.42-0.49-0.6c-0.09-0.09-0.21,0.06-0.12,0.15c1.91,1.85-0.55,4.2-1.96,5.43
					c-2.29,2-4.91,3.58-7.23,5.53c-1.66,1.4-3.08,3.08-4.51,4.71c-1.7,1.94-3.4,3.96-5.46,5.54c-0.38,0.29-0.77,0.59-1.26,0.36
					c-0.35-0.17-0.58-0.55-0.52-0.93c0.03-0.23,0.17-0.45,0.27-0.66c0.14-0.29,0.28-0.58,0.43-0.87c0.29-0.55,0.59-1.09,0.92-1.62
					c1.36-2.21,3.06-4.13,4.93-5.91c1.98-1.88,4.01-3.7,6.01-5.55c1.93-1.77,3.81-3.66,6.03-5.07c0.57-0.37,1.17-0.7,1.79-0.98
					C117.04,28.57,116.98,28.38,116.87,28.44L116.87,28.44z"/>
			</g>
			<g>
				<path class="st2" d="M128.55,16.17c-0.99-0.31-1.99,0.08-2.89,0.5c-1.21,0.55-2.39,1.17-3.54,1.82
					c-2.34,1.33-4.58,2.83-6.77,4.4c-1.24,0.89-2.48,1.79-3.71,2.7c-0.1,0.07,0.01,0.23,0.11,0.16c4.19-3.09,8.42-6.21,13.12-8.49
					c1.06-0.52,2.38-1.29,3.6-0.91C128.58,16.38,128.67,16.2,128.55,16.17L128.55,16.17z"/>
			</g>
			<g>
				<path class="st2" d="M141.38,17.13c-0.08,2.65-0.93,5.26-2.42,7.45c-0.07,0.1,0.08,0.23,0.15,0.12
					c1.52-2.24,2.38-4.89,2.46-7.59C141.58,16.99,141.38,17.01,141.38,17.13L141.38,17.13z"/>
			</g>
			<g>
				<path class="st2" d="M135.21,28.16c-3.04,3.81-7.31,6.25-11.17,9.12c-3.94,2.94-7.21,6.65-10.52,10.26
					c-1.91,2.08-3.79,4.17-5.66,6.28c-0.08,0.09,0.07,0.22,0.15,0.12c3.33-3.76,6.7-7.49,10.16-11.12c1.71-1.79,3.49-3.5,5.46-5
					c1.9-1.45,3.91-2.76,5.84-4.17c2.16-1.57,4.22-3.28,5.89-5.38C135.44,28.19,135.29,28.07,135.21,28.16L135.21,28.16z"/>
			</g>
			<path class="st3" d="M54.81,87.7c-1.79,1.79-3.5,3.8-4.52,6.14c-0.52,1.18-0.9,2.43-1.27,3.66c-0.33,1.09-0.59,2.19-0.55,3.33
				s0.41,2.58,1.62,2.97c0.04,0.01,0.07-0.04,0.03-0.06c-1.04-0.59-1.32-1.94-1.31-3.04c0.01-1.08,0.3-2.16,0.62-3.18
				c0.35-1.14,0.71-2.3,1.19-3.39c0.49-1.11,1.14-2.14,1.86-3.11c0.81-1.08,1.71-2.08,2.56-3.12C55.17,87.74,54.94,87.57,54.81,87.7
				z"/>
			<path class="st3" d="M49.5,93.71c-0.35,0.34-0.62,0.75-0.92,1.13c-0.33,0.41-0.67,0.81-1.01,1.21c-0.67,0.76-1.36,1.5-2.06,2.23
				c-1.4,1.47-2.83,2.91-4.13,4.46c-1.31,1.57-2.44,3.27-3.5,5.02c-0.97,1.6-2,3.21-2.76,4.93c-0.39,0.89-0.69,1.82-0.82,2.79
				c-0.05,0.37-0.11,0.81,0.16,1.11c0.19,0.21,0.46,0.27,0.66,0.06c0.01-0.01,0-0.04-0.02-0.04c-1.03,0.2-0.35-1.93-0.2-2.38
				c0.25-0.78,0.58-1.53,0.96-2.26c0.83-1.58,1.81-3.1,2.78-4.61c1.02-1.6,2.11-3.14,3.35-4.59c1.21-1.42,2.52-2.75,3.81-4.1
				c0.73-0.76,1.45-1.53,2.14-2.32c0.35-0.4,0.68-0.8,1.01-1.21c0.31-0.39,0.65-0.78,0.87-1.23C49.91,93.71,49.64,93.57,49.5,93.71z
				"/>
			<path class="st3" d="M39.05,105.1c-0.21,0.15-0.32,0.39-0.46,0.6c-0.16,0.23-0.33,0.45-0.5,0.68c-0.35,0.44-0.71,0.87-1.08,1.3
				c-0.77,0.89-1.55,1.77-2.34,2.64s-1.58,1.74-2.38,2.6c-0.81,0.87-1.66,1.71-2.38,2.66c-0.02,0.03,0.01,0.07,0.05,0.05
				c0.93-0.69,1.74-1.54,2.55-2.36c0.85-0.87,1.7-1.75,2.52-2.65c0.81-0.88,1.61-1.77,2.39-2.68c0.37-0.42,0.74-0.85,1.07-1.31
				c0.16-0.22,0.31-0.44,0.45-0.67c0.14-0.22,0.31-0.44,0.33-0.71C39.29,105.12,39.17,105.02,39.05,105.1z"/>
			<path class="st3" d="M17.22,129.63c-0.12,0.03-0.18,0.13-0.25,0.23c-0.07,0.09-0.14,0.18-0.21,0.27
				c-0.14,0.17-0.28,0.34-0.43,0.51c-0.14,0.17-0.3,0.33-0.44,0.49c-0.07,0.08-0.16,0.16-0.21,0.25c-0.03,0.04-0.06,0.15,0.02,0.18
				c0.1,0.03,0.16-0.02,0.24-0.07c0.09-0.07,0.18-0.14,0.26-0.22c0.16-0.14,0.31-0.3,0.46-0.45s0.29-0.32,0.42-0.48
				c0.13-0.16,0.35-0.36,0.35-0.57C17.42,129.65,17.31,129.6,17.22,129.63z"/>
			<path class="st3" d="M17.49,133.74c-0.67-0.68-1.5-1.22-2.35-1.65c-0.01-0.01-0.02-0.01-0.04-0.02
				c-0.02-0.01-0.04-0.02-0.06-0.03c-0.85-0.42-1.84-0.84-2.8-0.82c-0.9,0.02-1.8,0.45-2.36,1.16c-0.54,0.69-0.93,1.75-0.55,2.6
				c0.01,0.03,0.06,0.03,0.07-0.01c0.06-0.5,0.1-0.95,0.3-1.42c0.2-0.48,0.48-0.89,0.91-1.19c0.43-0.31,0.94-0.51,1.47-0.56
				c0.2-0.02,0.4,0,0.6,0.02c0.09,0.04,0.17,0.09,0.25,0.15c0.14,0.11,0.27,0.23,0.38,0.37c0.12,0.15,0.18,0.33,0.3,0.47
				s0.31,0.15,0.48,0.1c0.18-0.05,0.35-0.11,0.54-0.12s0.38,0.01,0.57,0.06c0.18,0.05,0.35,0.17,0.54,0.19h0.01
				c0.27,0.16,0.52,0.34,0.77,0.53c0.96,0.94,1.93,1.93,2.32,3.24c0.06,0.21,0.35,0.12,0.35-0.08c0.01-0.31-0.09-0.61-0.24-0.88
				C18.68,135.07,18.08,134.33,17.49,133.74z"/>
			<path class="st3" d="M122.05,18.39c-0.98,0.52-1.96,1.01-2.92,1.56s-1.9,1.13-2.83,1.73c-0.48,0.31-0.95,0.62-1.41,0.95
				c0.05-0.12-0.09-0.23-0.19-0.13c-0.38,0.36-0.73,0.74-1.09,1.12c-0.77,0.65-1.56,1.38-2.14,2.2c-0.05,0.07-0.03,0.14,0.01,0.19
				c-0.82,0.84-1.6,1.73-2.39,2.6c-1.02,1.11-2.03,2.22-3.05,3.33c-2.02,2.21-4.04,4.41-6.08,6.6c-4.07,4.38-8.17,8.74-12.29,13.07
				c-0.52,0.54-1.03,1.09-1.55,1.64c-0.04-0.06-0.12-0.09-0.19-0.03c-0.35,0.3-0.61,0.74-0.86,1.14c-0.29,0.31-0.57,0.61-0.86,0.91
				c-0.94,0.99-1.88,1.98-2.77,3.01c-0.11-0.08-0.29-0.1-0.39,0.03c-0.77,0.92-1.56,1.82-2.35,2.71c-0.09-0.07-0.23-0.09-0.34,0.03
				c-0.95,1.08-1.86,2.21-2.76,3.33c-1.16,1.22-2.32,2.43-3.51,3.63c-0.88,0.89-1.77,1.78-2.66,2.66c-0.2,0.2,0.1,0.47,0.32,0.34
				c0.44-0.27,0.85-0.59,1.23-0.92c-0.53,0.47-1.06,0.93-1.58,1.4c-0.88,0.82-1.68,1.72-2.47,2.63c-1.61,1.86-3.22,3.72-4.83,5.58
				c-0.89,1.03-1.77,2.07-2.65,3.11c-0.25,0.3-0.51,0.6-0.76,0.9c0.06-0.13-0.11-0.25-0.22-0.14c-0.55,0.51-1.06,1.08-1.46,1.72
				c-0.41,0.67-0.62,1.4-0.67,2.19c-0.04,0.72-0.04,1.53,0.2,2.22c0.1,0.3,0.26,0.57,0.5,0.79c0.25,0.23,0.49,0.3,0.81,0.34
				c0.02,0,0.03-0.03,0.01-0.04c-0.63-0.19-0.99-0.93-1.09-1.52c-0.12-0.66-0.08-1.39,0-2.05c0.05-0.41,0.16-0.79,0.31-1.16
				c1.73-1.68,3.31-3.55,4.89-5.37c1.61-1.86,3.22-3.72,4.83-5.58c0.81-0.93,1.6-1.88,2.48-2.75c0.84-0.83,1.76-1.58,2.62-2.38
				c0.87-0.81,1.6-1.71,2.32-2.65c0.74-0.95,1.56-1.8,2.42-2.64c1.88-1.84,3.53-3.84,4.86-6.1c0-0.01,0-0.01,0.01-0.02
				c0.71-0.65,1.41-1.32,2.09-2c-0.52,0.79-1.03,1.59-1.57,2.37c0,0,0,0.01,0.01,0.01c0.69-0.94,1.4-1.86,2.11-2.78
				c0.15-0.19,0.29-0.38,0.43-0.57c0.89-0.91,1.78-1.83,2.66-2.75c2.09-2.17,4.17-4.35,6.23-6.54c4.11-4.35,8.18-8.73,12.22-13.14
				c1.15-1.25,2.29-2.51,3.43-3.77c0.56-0.62,1.14-1.23,1.68-1.87c0.53-0.62,1.08-1.22,1.59-1.85c0.17-0.14,0.34-0.29,0.52-0.42
				c0.54-0.38,1.13-0.71,1.7-1.05c0.02-0.01,0-0.04-0.01-0.03c-0.72,0.34-1.47,0.69-2.14,1.14c-0.01-0.01-0.03-0.03-0.05-0.04
				c0.02-0.02,0.04-0.04,0.06-0.06c0.3-0.27,0.59-0.54,0.87-0.83c0.24-0.2,0.48-0.41,0.72-0.6c0.82-0.66,1.67-1.27,2.55-1.85
				c0.89-0.59,1.79-1.14,2.69-1.71c0.92-0.59,1.82-1.22,2.74-1.81C122.07,18.39,122.06,18.38,122.05,18.39z"/>
			<path class="st3" d="M138.43,11.64L138.43,11.64c-0.17-0.23-0.36-0.45-0.57-0.64c-0.03-0.03-0.06-0.05-0.09-0.07
				c-0.02-0.03-0.05-0.06-0.09-0.09c-0.02-0.01-0.05-0.03-0.07-0.04c-0.1-0.08-0.21-0.14-0.32-0.2c-0.03-0.02-0.06-0.03-0.1-0.05
				c-0.59-0.36-1.19-0.72-1.79-1.05c-0.54-0.29-1.17-0.59-1.81-0.61c-0.03-0.06-0.08-0.11-0.17-0.11c-0.22-0.02-0.44-0.05-0.67-0.07
				c-0.41-0.16-0.88-0.18-1.33-0.17c-0.02,0-0.03,0-0.05,0c-0.11,0-0.22-0.01-0.33,0c-0.36-0.02-0.72,0.02-1.06,0.12
				c-0.5,0.09-0.99,0.22-1.48,0.37c-0.07-0.08-0.2-0.12-0.32-0.06c-0.22,0.12-0.43,0.25-0.64,0.38c-0.1,0.06-0.13,0.17-0.1,0.26
				c-0.19,0.15-0.37,0.29-0.56,0.43c-0.52,0.32-1.02,0.69-1.47,1.1c-0.11,0.1-0.09,0.24-0.01,0.32c-0.16,0.14-0.31,0.28-0.46,0.42
				c-0.44,0.42-0.86,0.85-1.28,1.29c-0.45,0.46-0.83,0.97-1.27,1.43c-0.03,0.03,0.02,0.07,0.04,0.05c0.48-0.42,1-0.79,1.48-1.21
				c0.47-0.42,0.92-0.85,1.39-1.26c0.88-0.78,1.84-1.46,2.93-1.91c1.03-0.43,2.12-0.68,3.24-0.8c0.53-0.05,1.06-0.07,1.59-0.06
				c0.04,0.03,0.09,0.04,0.14,0.03c0.06-0.01,0.12-0.02,0.19-0.02c0.47,0.02,0.92,0.08,1.31,0.39c0.07,0.06,0.16,0.06,0.23,0.02
				c0.13,0.07,0.26,0.14,0.38,0.2c0.07,0.04,0.14,0.08,0.2,0.12c-0.91-0.08-1.88,0.06-2.71,0.21c-0.95,0.17-1.89,0.4-2.8,0.73
				c-0.92,0.33-1.83,0.82-2.66,1.34c-0.01,0,0,0.02,0.01,0.01c1.68-0.76,3.49-1.35,5.31-1.67c1.57-0.28,3.25-0.38,4.62,0.57
				c0.01,0.04,0.01,0.07,0.02,0.11c0.03,0.11,0.1,0.21,0.19,0.27c0.17,0.11,0.39,0.08,0.57,0.17c0.16,0.08,0.29,0.24,0.36,0.4
				c0.07,0.18,0.38,0.14,0.35-0.08C138.73,11.98,138.62,11.78,138.43,11.64z"/>
			<path class="st3" d="M133.5,15.12c-0.6-0.55-1.4-0.89-2.2-0.97c-0.94-0.1-1.88,0.12-2.78,0.39c-1.09,0.33-2.12,0.79-3.16,1.25
				c-0.03,0.01-0.01,0.05,0.02,0.04c0.97-0.29,1.94-0.56,2.9-0.84c0.87-0.25,1.76-0.48,2.68-0.45c0.85,0.02,1.61,0.34,2.3,0.82
				c0.19,0.13,0.36,0.29,0.53,0.45c0.22,0.26,0.41,0.53,0.56,0.83c0.3,0.6,0.47,1.23,0.67,1.86c0,0.01,0.02,0.01,0.02,0
				c0.03-0.7-0.18-1.46-0.49-2.09C134.3,15.9,133.96,15.45,133.5,15.12z"/>
			<path class="st3" d="M135,18.7c0,0.02-0.01,0.03-0.01,0.05c0,0.01,0,0.03,0,0.04s0,0.03-0.01,0.04c0,0.02,0,0.03,0,0.05
				c0,0.06-0.01,0.12-0.02,0.17c-0.01,0.02,0.03,0.03,0.04,0.01c0.03-0.06,0.05-0.12,0.06-0.18c0-0.02,0.01-0.03,0.01-0.05
				c0-0.02,0-0.03,0-0.05c0-0.02,0-0.03,0-0.05c0-0.02-0.01-0.03-0.02-0.05C135.03,18.68,135.01,18.68,135,18.7z"/>
			<path class="st3" d="M138.8,21.12c-0.62,1.47-1.3,2.92-2.11,4.3c-0.4,0.69-0.84,1.37-1.32,2.01c-0.4,0.54-0.9,1.06-1.25,1.64
				c-0.07-0.08-0.21-0.12-0.31-0.02c-2.28,2.34-4.91,4.26-7.58,6.13c-2.62,1.83-5.14,3.76-7.35,6.08c-0.63,0.67-1.25,1.35-1.86,2.04
				c-0.61,0.69-1.15,1.44-1.73,2.15c-0.01,0.02,0.01,0.04,0.03,0.02c1.1-1.2,2.24-2.38,3.39-3.55c1.16-1.18,2.36-2.33,3.64-3.38
				c2.48-2.03,5.2-3.73,7.77-5.65c1.38-1.03,2.7-2.15,3.84-3.45c0.04,0.07,0.13,0.11,0.2,0.06c0.65-0.45,1.11-1.23,1.55-1.88
				c0.44-0.66,0.87-1.33,1.26-2.03c0.8-1.42,1.45-2.91,1.89-4.48C138.88,21.11,138.82,21.09,138.8,21.12z"/>
			<path class="st3" d="M121,29.25c-0.53,0.98-1.04,1.92-1.72,2.8c-0.68,0.89-1.44,1.72-2.17,2.56c-1.59,1.81-3.18,3.61-4.81,5.38
				c-0.46,0.5-0.92,1-1.38,1.5c-0.47,0.52-0.89,1.08-1.35,1.61c-0.02,0.02,0.01,0.04,0.03,0.03c0.45-0.43,0.94-0.82,1.38-1.26
				c0.43-0.44,0.86-0.88,1.29-1.34c0.84-0.9,1.68-1.81,2.53-2.71c0.84-0.9,1.66-1.83,2.48-2.75c0.76-0.86,1.53-1.72,2.23-2.62
				c0.72-0.93,1.47-1.97,1.79-3.11C121.33,29.16,121.07,29.11,121,29.25z"/>
			<path class="st3" d="M113.75,30.35c-1.26,0.63-2.34,1.6-3.39,2.52c-1.08,0.95-2.16,1.89-3.23,2.85c-2.1,1.88-4.22,3.78-6.14,5.85
				c-1.01,1.1-1.9,2.27-2.62,3.58c-0.02,0.04,0.05,0.09,0.07,0.05c1.46-2.22,3.49-4.09,5.42-5.9c2.08-1.95,4.22-3.84,6.36-5.72
				c1.19-1.04,2.36-2.03,3.72-2.84C114.14,30.6,113.96,30.24,113.75,30.35z"/>
			<path class="st3" d="M104.62,47.7c-0.33,0.29-0.68,0.55-1,0.84c-0.33,0.29-0.66,0.58-1,0.86c-0.46,0.38-0.93,0.76-1.36,1.18
				c-0.06-0.02-0.12-0.02-0.18,0.02c-0.85,0.63-1.64,1.36-2.43,2.05c-0.8,0.7-1.59,1.4-2.39,2.11c-1.53,1.37-3.06,2.74-4.56,4.14
				c-3.08,2.86-6.08,5.81-9.01,8.82c-0.83,0.85-1.63,1.73-2.43,2.61c-0.79,0.88-1.62,1.74-2.35,2.68c-0.02,0.02,0.01,0.05,0.03,0.03
				c0.78-0.72,1.5-1.51,2.24-2.27c0.75-0.76,1.5-1.5,2.24-2.27c1.45-1.5,2.91-2.97,4.4-4.43c2.99-2.93,6.05-5.79,9.18-8.57
				c0.89-0.79,1.79-1.56,2.69-2.33c0.83-0.71,1.69-1.39,2.49-2.13c0.58-0.42,1.1-0.94,1.6-1.44c0.31-0.31,0.62-0.62,0.93-0.93
				C104.04,48.35,104.32,48.02,104.62,47.7L104.62,47.7z"/>
			<path class="st3" d="M68.89,74.18c-0.32,0.25-0.59,0.56-0.88,0.85c-0.31,0.31-0.61,0.62-0.9,0.94c-0.32,0.35-0.62,0.72-0.91,1.09
				c-0.01,0.01-0.02,0.01-0.02,0.02c-0.61,0.77-1.17,1.63-1.53,2.56c-0.28,0.73-0.54,1.61-0.1,2.33c0.03,0.05,0.12,0.01,0.1-0.05
				c-0.08-0.24-0.09-0.48-0.07-0.71c0.11-0.26,0.36-0.47,0.56-0.66c0.27-0.25,0.49-0.51,0.66-0.84c0.32-0.62,0.41-1.32,0.47-2
				c0,0,0,0,0-0.01c0.08-0.11,0.16-0.23,0.25-0.34c0.06-0.07,0.06-0.15,0.03-0.21c0.26-0.33,0.52-0.67,0.78-1
				c0.25-0.31,0.5-0.63,0.75-0.94c0.27-0.34,0.59-0.64,0.84-0.99C68.93,74.19,68.91,74.16,68.89,74.18z"/>
			<path class="st3" d="M51.99,93.34c-1.08,1.83-2.29,3.91-2.32,6.1c0,0.04,0.05,0.04,0.06,0c0.21-1.08,0.52-2.12,0.97-3.13
				c0.44-0.99,0.97-1.93,1.49-2.89C52.25,93.31,52.06,93.23,51.99,93.34z"/>
			<path class="st3" d="M90.14,54.08c-1.74,1.81-3.37,3.71-5.07,5.56c-1.71,1.86-3.47,3.66-5.29,5.42c-1.05,1.01-2.11,2.01-3.2,2.98
				c-0.01,0.01,0,0.03,0.01,0.02c3.91-3.21,7.4-6.89,10.82-10.61c0.98-1.06,1.94-2.14,2.86-3.25C90.35,54.11,90.22,54,90.14,54.08z"
				/>
			<path class="st3" d="M121.86,20.66c-3.39,1.59-6.43,3.84-9,6.56c-0.02,0.02,0.01,0.04,0.03,0.03c2.67-2.59,5.73-4.77,9.01-6.51
				C121.95,20.71,121.91,20.64,121.86,20.66z"/>
			<path class="st3" d="M135.63,13.13c-0.5-0.53-1.21-0.78-1.93-0.87c-1.65-0.2-3.4,0.28-4.93,0.88c-0.02,0.01-0.01,0.04,0.01,0.03
				c1.43-0.5,3.07-0.81,4.58-0.65c0.66,0.07,1.33,0.27,1.84,0.72c0.63,0.56,0.79,1.42,0.95,2.21c0.05,0.22,0.38,0.21,0.36-0.03
				C136.44,14.6,136.22,13.74,135.63,13.13z"/>
			
				<linearGradient id="SVGID_1_" gradientUnits="userSpaceOnUse" x1="-258.2319" y1="-31.7933" x2="-262.2805" y2="-45.2253" gradientTransform="matrix(0.8187 -0.5743 -0.5743 -0.8187 205.1304 -45.1444)">
				<stop  offset="0" style="stop-color:#C6A477"/>
				<stop  offset="1" style="stop-color:#FCDBA8;stop-opacity:0"/>
			</linearGradient>
			<path class="st4" d="M19.28,136.85c0.08,0.29,0.16,0.58,0.19,0.87c0.04,0.44-0.04,0.88-0.16,1.31c-0.13,0.48-0.31,0.96-0.62,1.34
				c-0.65,0.79-1.77,1.04-2.79,0.98c-1.41-0.09-2.77-0.68-3.86-1.58c-0.59-0.49-1.11-1.06-1.54-1.69c-0.19-0.28-0.98-1.05-0.72-1.42
				c0.06-0.08,0.16-0.13,0.24-0.18c0.21-0.13,0.36-0.37,0.39-0.61c0.03-0.24-0.04-0.48-0.01-0.72c0.06-0.41,0.49-0.72,0.9-0.66
				c0.03,0.75,0.1,1.58,0.63,2.11c0.31,0.31,0.74,0.47,1.17,0.54c0.09,0.02,0.2,0.03,0.25,0.11c0.06,0.08,0.04,0.19,0.02,0.29
				c-0.05,0.22-0.12,0.43-0.2,0.64c-0.08,0.19-0.18,0.39-0.17,0.6c0.02,0.43,0.52,0.71,0.95,0.66s0.8-0.32,1.14-0.58
				c0.2-0.15,1.14-1.07,1.36-0.86c0.06,0.06,0.08,0.14,0.1,0.22c0.15,0.64,0.1,1.32-0.14,1.93c0.05-0.14,0.35-0.32,0.45-0.45
				c0.14-0.18,0.25-0.37,0.36-0.57c0.19-0.38,0.19-0.76,0.18-1.17c-0.02-0.6-0.05-1.2-0.27-1.76c-0.25-0.63-0.72-1.14-1.18-1.63
				c0.29,0.1,0.5,0.33,0.72,0.55c0.21,0.22,0.46,0.43,0.77,0.46c0.03,0,0.01-1.26,0.02-1.34c0.08-0.74,0.73,0.16,0.88,0.37
				C18.83,135.27,19.06,136.08,19.28,136.85z"/>
			
				<linearGradient id="SVGID_00000150783221891048806250000005386987594700019111_" gradientUnits="userSpaceOnUse" x1="-175.0156" y1="-1.2216" x2="-169.5771" y2="-39.7447" gradientTransform="matrix(0.8187 -0.5743 -0.5743 -0.8187 205.1304 -45.1444)">
				<stop  offset="0" style="stop-color:#C6A477"/>
				<stop  offset="0.2463" style="stop-color:#CCAA7D;stop-opacity:0.7537"/>
				<stop  offset="0.59" style="stop-color:#DEBD8D;stop-opacity:0.41"/>
				<stop  offset="0.9895" style="stop-color:#FBDAA7;stop-opacity:0.0105"/>
				<stop  offset="1" style="stop-color:#FCDBA8;stop-opacity:0"/>
			</linearGradient>
			<path style="fill:url(#SVGID_00000150783221891048806250000005386987594700019111_);" d="M54.33,95.08
				c0.14-0.16,0.28-0.32,0.44-0.46c0.59-0.54,1.33-0.88,2.05-1.24c1.7-0.85,3.35-1.81,4.92-2.88c0.01-0.28-1.5-0.31-1.7-0.22
				c4.31-2.01,8.09-5.15,10.84-9.03c-0.91-0.08-1.84-0.01-2.73,0.19c1.67-1.14,3.38-2.32,4.6-3.94c0.5-0.66,0.7-1.48,1.13-2.19
				c0.53-0.88,0.94-1.82,1.5-2.69c1.14-1.78,2.48-3.42,3.86-5.02c1.72-2,3.49-3.95,5.31-5.86c0.99-1.03,1.99-2.06,3.15-2.9
				c0.36-0.27,0.81-0.52,1.24-0.37c-0.46,0.82-0.91,1.64-1.37,2.45c-0.06,0.12-0.13,0.26-0.06,0.37c0.08,0.14,0.3,0.12,0.46,0.06
				c0.79-0.3,1.36-0.98,1.9-1.63c0.74-0.9,1.49-1.81,2.23-2.71c0.48-0.58,0.96-1.16,1.29-1.84c0.25-0.51,0.42-1.09,0.78-1.54
				c0.32-0.41,0.8-0.74,1.17-1.13c3.12-3.25,6.26-6.51,9.84-9.25c3.4-2.6,7.29-4.8,9.63-8.38c1.94-2.97,2.71-6.73,5.27-9.2
				c1.63-1.57,3.82-2.42,5.75-3.61c0.96-0.59,1.87-1.27,2.7-2.02c0.58-0.53,1.22-1.06,1.64-1.73c0.14-0.23,0.21-0.48,0.39-0.69
				c0.28-0.32,0.63-0.55,0.87-0.91c0.3-0.45,0.48-1,0.39-1.53c-0.05-0.3-0.19-0.61-0.05-0.88c0.1-0.2,0.34-0.31,0.56-0.3
				s0.43,0.11,0.61,0.25c0.13,0.1,0.25,0.22,0.4,0.27c0.28,0.09,0.59-0.09,0.73-0.35s0.14-0.56,0.1-0.85
				c-0.14-0.92-0.68-1.73-1.35-2.38c-0.11-0.11-0.24-0.25-0.21-0.4c0.04-0.2,0.31-0.24,0.49-0.33c0.41-0.2,0.54-0.79,0.97-0.92
				c0.2-0.06,0.41-0.01,0.62,0.04c1.2,0.31,1.98,0.93,2.89,1.75c0.57,0.51,1.13,1.01,1.61,1.6c0.66,0.81,1.15,1.76,1.59,2.71
				c0.58,1.25,1.12,2.58,1.03,3.96c-0.09,1.56-0.66,3.09-1.62,4.33c-0.8,1.03-1.79,1.89-2.77,2.75c-3.74,3.29-7.36,6.71-10.93,10.18
				c-0.89,0.87-1.79,1.74-2.68,2.61c-3.55,3.47-7.21,6.81-10.83,10.2c-3.66,3.43-7.32,6.87-10.98,10.3
				c-0.47,0.33-0.89,0.83-1.31,1.23c-0.46,0.43-0.91,0.85-1.37,1.28c-0.91,0.85-1.82,1.71-2.73,2.56c-1.76,1.65-3.53,3.27-5.28,4.93
				c-3.63,3.43-7.29,6.82-11,10.16c-2.67,2.41-5.36,4.79-8.07,7.15c-1.8,1.57-3.68,2.99-5.47,4.58c-1.84,1.63-3.65,3.32-5.46,4.98
				c-1.81,1.66-3.63,3.31-5.53,4.87c-0.89,0.73-1.76,1.45-2.59,2.23c-3.6,3.41-7.32,6.7-10.99,10.05c-0.22,0.2-0.43,0.39-0.65,0.59
				c-1.96,1.78-3.92,3.56-5.87,5.35c-0.42,0.39-0.96,0.56-1.42,0.9c-0.48,0.35-0.9,0.77-1.29,1.2c-0.79,0.88-1.48,1.84-2.34,2.66
				c-0.99,0.94-2.18,1.65-3.26,2.49c-2.82,2.21-4.86,5.38-7.97,7.16c-0.36,0.21-0.76,0.42-0.96,0.78c-0.45-0.72-0.99-1.38-1.58-1.99
				c0.14-0.35,0.49-0.59,0.84-0.72c0.36-0.13,0.74-0.18,1.1-0.31c1.02-0.37,1.71-1.3,2.31-2.21c0.59-0.91,1.18-1.88,2.12-2.43
				c0.62-0.36,1.35-0.5,2.01-0.81c0.74-0.34,1.37-0.89,1.92-1.49c1.1-1.21,1.9-2.65,2.75-4.04c0.81-1.33,1.75-2.57,2.69-3.78
				c0.63-0.81,1.07-1.73,1.52-2.65c0,0.3-0.12,1.33,0.12,1.53c0.29,0.24,0.82-0.1,1.01-0.31c0.26-0.3,0.4-0.68,0.6-1.02
				c0.45-0.78,1.22-1.32,1.93-1.87c1.61-1.25,3.08-2.68,4.36-4.26c0.04-0.05,0.09-0.11,0.11-0.18c0.08-0.27-0.27-0.47-0.55-0.45
				c-0.28,0.01-0.57,0.12-0.82,0c1.93-1.68,4.26-2.84,6.32-4.35c2.38-1.75,4.4-3.99,5.9-6.54C53.49,96.34,53.85,95.66,54.33,95.08z"
				/>
			
				<linearGradient id="SVGID_00000031198122111117785290000006693415963211448755_" gradientUnits="userSpaceOnUse" x1="-173.8199" y1="-13.9876" x2="-166.7095" y2="-46.3795" gradientTransform="matrix(0.8187 -0.5743 -0.5743 -0.8187 205.1304 -45.1444)">
				<stop  offset="0" style="stop-color:#C6A477"/>
				<stop  offset="0.26" style="stop-color:#CAA87B;stop-opacity:0.74"/>
				<stop  offset="0.5411" style="stop-color:#D7B586;stop-opacity:0.4589"/>
				<stop  offset="0.8313" style="stop-color:#ECCB9A;stop-opacity:0.1687"/>
				<stop  offset="1" style="stop-color:#FCDBA8;stop-opacity:0"/>
			</linearGradient>
			<path style="fill:url(#SVGID_00000031198122111117785290000006693415963211448755_);" d="M140.05,13.6
				c0.73,1.38,1.33,2.84,1.55,4.38c0.22,1.54,0.05,3.17-0.69,4.54c-0.44,0.81-1.05,1.5-1.67,2.18c-1.73,1.87-3.56,3.75-5.57,5.32
				c-1.83,1.43-3.35,3.33-5.03,4.94c-5.95,5.7-12.11,11.19-18.14,16.81c-2.57,2.4-5.14,4.79-7.72,7.19
				c-2.04,1.9-4.07,3.79-6.11,5.69c-0.48,0.45-0.96,0.9-1.44,1.34c-2.92,2.7-5.68,5.58-8.64,8.26c-2.49,2.25-4.94,4.54-7.48,6.75
				c-6.18,5.39-12.49,10.62-18.6,16.08c-1.49,1.33-2.94,2.93-4.57,4.08c-0.78,0.7-1.56,1.39-2.34,2.09
				c-0.7,0.62-1.57,1.22-2.15,1.96c-1.13,1.44-2.52,2.62-3.92,3.82c-3.1,2.67-6.31,5.21-9.27,8.03c-0.69,0.65-1.36,1.32-2.04,1.97
				c-0.6,0.57-1.28,1.06-1.72,1.75c-0.2,0.3-0.51,0.5-0.81,0.7c-2.55,1.72-4.58,4.08-6.88,6.11c-1.67,1.48-3.49,2.78-5.13,4.29
				c-1.02,0.93-1.96,1.95-3.05,2.79c-0.06,0.05-0.13,0.09-0.2,0.07c-0.04-0.02-0.07-0.06-0.09-0.1c-0.17-0.26-0.34-0.53-0.51-0.79
				c0.9-0.7,1.8-1.4,2.7-2.11c0.54-0.42,1.08-0.85,1.53-1.37c0.37-0.44,0.67-0.95,0.96-1.45c0.1,0.07,0.17,0.18,0.19,0.3
				c2.39-2.02,4.6-4.25,6.6-6.65c0.43-0.51,0.85-1.04,1.4-1.42c0.3-0.21,0.64-0.38,0.9-0.64c0.26-0.26,0.43-0.67,0.28-1.01
				c-0.05-0.11-0.12-0.21-0.09-0.32c0.02-0.08,0.09-0.14,0.16-0.18c0.31-0.19,0.55-0.11,0.87-0.11c0.31,0,0.45-0.12,0.68-0.39
				c0.58-0.66,1.11-1.35,1.59-2.08c0.13-0.2,0.27-0.41,0.48-0.53c0.18-0.1,0.39-0.12,0.59-0.18c0.54-0.15,0.99-0.53,1.41-0.9
				c1.97-1.75,3.82-3.62,5.56-5.6c0.24-0.27,0.48-0.55,0.6-0.89s0.11-0.75-0.13-1.03c0.95-0.89,2.11-1.52,3.22-2.2
				c2.37-1.45,4.55-3.17,6.72-4.89c0.63-0.49,1.21-1.06,1.53-1.8c-0.38,0.23-1.31,0.42-1.58,0.72c0.79-0.88,1.61-1.73,2.46-2.54
				c0.44-0.42,0.91-0.85,1.49-1.06c0.37-0.13,0.76-0.17,1.14-0.28c0.48-0.15,0.91-0.43,1.3-0.73c1.17-0.9,2.11-2.05,3.04-3.2
				c2.14-2.63,4.27-5.25,6.41-7.88c0.26-0.32,0.56-0.66,0.96-0.7c-0.37,0.99-0.74,1.98-1.11,2.98c0.99-0.86,1.96-1.75,2.9-2.66
				c0.89-0.86,1.71-1.97,2.7-2.71c1.89-1.42,3.65-3.04,5.27-4.79c1.85-1.99,3.72-4.01,4.96-6.42c0.05-0.1,0.1-0.22,0.06-0.33
				c-0.05-0.11-0.2-0.14-0.33-0.15c-0.54-0.03-1.08,0.1-1.54,0.38c2.62-3.21,5.96-5.71,9.27-8.17c1.66-1.24,3.33-2.47,4.92-3.8
				c1.45-1.21,2.68-2.72,4.16-3.86c1.88-1.45,3.1-3.59,4.7-5.35c1.28-1.41,2.82-2.57,4.02-4.06c1.1-1.36,1.88-2.95,2.94-4.34
				c0.26-0.34,0.64-0.71,1.06-0.61c0.2,0.05,0.36,0.19,0.54,0.28c0.74,0.33,1.5-0.38,2.04-0.98c4.13-4.68,10.27-7.72,12.92-13.36
				c0.23-0.5,0.46-1.04,0.9-1.36c0.44-0.32,1.01-0.37,1.54-0.49c1.8-0.4,3.62-1.86,4.11-3.7c0.49-1.83-0.3-3.76-0.09-5.61
				c0.1-0.91,0.67-2.17,1.82-1.91C139.25,11.87,139.74,13.01,140.05,13.6z"/>
			
				<linearGradient id="SVGID_00000127747269973676499190000009458875451784915590_" gradientUnits="userSpaceOnUse" x1="-258.6513" y1="-49.3339" x2="-259.8841" y2="-36.6166" gradientTransform="matrix(0.8187 -0.5743 -0.5743 -0.8187 205.1304 -45.1444)">
				<stop  offset="0" style="stop-color:#C6A477"/>
				<stop  offset="0.26" style="stop-color:#CAA87B;stop-opacity:0.74"/>
				<stop  offset="0.5411" style="stop-color:#D7B586;stop-opacity:0.4589"/>
				<stop  offset="0.8313" style="stop-color:#ECCB9A;stop-opacity:0.1687"/>
				<stop  offset="1" style="stop-color:#FCDBA8;stop-opacity:0"/>
			</linearGradient>
			<path style="fill:url(#SVGID_00000127747269973676499190000009458875451784915590_);" d="M19.27,133.79
				c-0.07-0.07-0.18-0.11-0.27-0.12c-0.16-0.02-0.33-0.03-0.45-0.13c-0.04-0.03-0.07-0.08-0.11-0.09c-0.05-0.02-0.11,0.01-0.16,0.03
				c-0.04,0.02-0.72,0.4-0.73,0.39c0.4,0.48,0.57,1.14,0.45,1.75c-0.04,0.2-0.11,0.4-0.11,0.6c0,0.17,0.04,0.33,0.07,0.49
				c0.14,0.93-0.32,1.82-0.76,2.65c-0.03,0.06-0.08,0.13-0.15,0.14s-0.12-0.05-0.17-0.09c-0.31-0.26-0.79-0.19-1.15-0.01
				c-0.36,0.18-0.68,0.45-1.07,0.58c-0.31,0.1-0.65,0.11-0.96,0.2s-0.63,0.31-0.67,0.64c1.17,0.61,2.55,1,3.82,0.63
				c1.21-0.36,2.18-1.44,2.39-2.69c0.2-1.16-0.2-2.34-0.72-3.39c-0.06-0.12-0.12-0.26-0.07-0.38c0.02-0.06,0.07-0.1,0.11-0.14
				c0.21-0.22,0.38-0.45,0.62-0.62c0.09-0.07,0.18-0.17,0.17-0.28C19.34,133.88,19.31,133.83,19.27,133.79z"/>
			<g>
				<path d="M15.45,131.98c-0.15,0.1-0.35,0.09-0.48-0.03c-0.16-0.14-0.17-0.39-0.03-0.55c6.29-6.99,12.48-13.85,18.66-20.71
					c6.24-6.92,12.47-13.83,18.82-20.89c3.16-3.51,6.31-7.15,9.35-10.66c4.39-5.07,8.93-10.32,13.59-15.28l50.32-53.61
					c3.35-3.28,9.24-2.69,13.15,1.3c3.9,3.99,4.36,9.89,1.03,13.16c-0.15,0.15-0.4,0.15-0.55-0.01c-0.15-0.15-0.15-0.4,0.01-0.55
					c3.03-2.97,2.57-8.38-1.04-12.06c-3.6-3.68-9-4.26-12.03-1.3L75.92,64.4c-4.65,4.95-9.18,10.19-13.57,15.26
					c-3.04,3.52-6.19,7.15-9.36,10.67c-6.35,7.06-12.59,13.97-18.82,20.89c-6.18,6.86-12.36,13.71-18.66,20.71
					C15.49,131.95,15.47,131.96,15.45,131.98z"/>
			</g>
			<g>
				<path d="M18.76,135.23c-0.16,0.11-0.38,0.09-0.51-0.06c-0.14-0.16-0.13-0.41,0.03-0.55l41.4-37.22
					c3.52-3.16,7.15-6.31,10.67-9.35c5.07-4.39,10.31-8.92,15.27-13.57l53.64-50.29c0.16-0.15,0.4-0.14,0.55,0.02
					c0.15,0.16,0.14,0.4-0.02,0.55L86.15,75.05c-4.97,4.66-10.22,9.2-15.29,13.59c-3.51,3.04-7.15,6.18-10.66,9.34L18.8,135.2
					C18.79,135.21,18.77,135.22,18.76,135.23z"/>
			</g>
			<g>
				<path d="M18.31,141.21c-0.86,0.6-1.99,0.79-3.26,0.55c-1.44-0.28-2.88-1.1-4.07-2.31c-1.19-1.21-1.98-2.67-2.24-4.11
					c-0.27-1.5,0.08-2.8,0.96-3.67s2.19-1.19,3.68-0.9c1.44,0.28,2.88,1.1,4.07,2.31l0,0c2.49,2.54,3.07,6.03,1.28,7.78
					C18.6,140.99,18.46,141.11,18.31,141.21z M10.55,131.96c-0.11,0.08-0.22,0.17-0.32,0.26c-0.7,0.68-0.96,1.74-0.74,2.98
					c0.23,1.29,0.95,2.6,2.03,3.7c1.08,1.1,2.38,1.84,3.67,2.09c1.23,0.24,2.29,0,2.99-0.69c1.48-1.45,0.9-4.45-1.29-6.68
					c-1.08-1.1-2.38-1.84-3.67-2.09C12.17,131.33,11.24,131.48,10.55,131.96z"/>
			</g>
			<g>
				<path d="M16.19,140.44c-0.3,0.21-0.71,0.3-1.18,0.26c-0.05,0-0.09-0.05-0.09-0.11c0-0.05,0.05-0.09,0.1-0.09
					c0.51,0.04,0.92-0.08,1.19-0.35c0.4-0.4,0.48-1.08,0.22-1.93c-0.27-0.87-0.85-1.8-1.65-2.61c-0.8-0.81-1.72-1.42-2.58-1.7
					c-0.84-0.27-1.53-0.21-1.93,0.19c-0.25,0.25-0.38,0.62-0.37,1.08c0,0.05-0.04,0.1-0.1,0.1c-0.05,0-0.1-0.04-0.1-0.1
					c-0.01-0.51,0.14-0.93,0.43-1.22c0.46-0.45,1.21-0.53,2.13-0.24c0.89,0.29,1.84,0.91,2.66,1.75s1.43,1.79,1.7,2.69
					c0.28,0.92,0.18,1.67-0.27,2.12C16.3,140.35,16.25,140.4,16.19,140.44z"/>
			</g>
			<g>
				<g>
					<path d="M102.76,53.67c-0.13,0.1-0.3,0.14-0.48,0.11c-0.21-0.03-0.39-0.14-0.49-0.31c-0.39-0.64-0.83-1.27-1.32-1.88
						c-1.1-1.36-2.43-2.59-3.96-3.64l0,0c-0.14-0.1-0.23-0.24-0.24-0.4c-0.02-0.16,0.04-0.31,0.15-0.42
						c1.49-1.49,2.98-2.97,4.47-4.46c0.26-0.26,0.51-0.48,0.75-0.66c0.25-0.19,0.55-0.34,0.88-0.45c0.35-0.11,0.75-0.12,1.17-0.04
						c0.44,0.08,0.88,0.3,1.31,0.64c0.38,0.3,0.66,0.61,0.81,0.91c0.15,0.3,0.22,0.57,0.22,0.81c0,0.05,0,0.09-0.01,0.13
						c0.11-0.03,0.22-0.06,0.35-0.07c0.27-0.03,0.56,0.02,0.88,0.16s0.63,0.39,0.93,0.75c0.36,0.43,0.59,0.86,0.69,1.27
						c0.09,0.4,0.08,0.78-0.04,1.14c-0.11,0.34-0.28,0.66-0.52,0.96c-0.22,0.28-0.51,0.6-0.88,0.95c-1.53,1.48-3.07,2.96-4.61,4.44
						C102.81,53.63,102.79,53.65,102.76,53.67z M102.04,42.35c-0.02,0.01-0.04,0.03-0.06,0.04c-0.22,0.17-0.45,0.38-0.7,0.62
						c-1.49,1.49-2.98,2.97-4.47,4.46l0.01,0.07c1.57,1.09,2.94,2.35,4.08,3.75c0.5,0.62,0.96,1.27,1.36,1.93
						c0.03,0.04,0.07,0.05,0.09,0.06c0.02,0,0.06,0,0.09-0.03c1.54-1.48,3.08-2.96,4.61-4.44c0.34-0.33,0.62-0.63,0.83-0.9
						c0.2-0.25,0.35-0.53,0.44-0.81c0.09-0.28,0.1-0.58,0.03-0.89c-0.08-0.34-0.28-0.7-0.59-1.07c-0.24-0.29-0.49-0.49-0.73-0.6
						c-0.22-0.09-0.41-0.13-0.58-0.11s-0.32,0.07-0.43,0.13c-0.13,0.08-0.23,0.15-0.31,0.23l-0.19,0.19l-0.38-0.36l0.15-0.2
						c0.01-0.01,0.06-0.06,0.13-0.2c0.05-0.09,0.07-0.22,0.08-0.38c0-0.16-0.05-0.36-0.16-0.58c-0.12-0.24-0.35-0.49-0.67-0.74
						c-0.36-0.28-0.72-0.46-1.07-0.53c-0.33-0.06-0.63-0.05-0.89,0.03C102.46,42.11,102.23,42.22,102.04,42.35z M102.89,50.9
						l-0.19-0.26c-0.28-0.38-0.58-0.75-0.9-1.11l-0.15-0.17l0.16-0.16c1.04-1.02,2.08-2.04,3.12-3.06c0.19-0.19,0.43-0.28,0.68-0.25
						c0.25,0.02,0.47,0.15,0.66,0.36c0.21,0.25,0.31,0.5,0.3,0.74c-0.01,0.24-0.11,0.45-0.29,0.62c-1.05,1.02-2.1,2.05-3.15,3.07
						L102.89,50.9z M102.36,49.39c0.2,0.24,0.4,0.48,0.59,0.72c0.97-0.95,1.95-1.9,2.92-2.85c0.09-0.09,0.14-0.19,0.15-0.31
						c0.01-0.12-0.05-0.25-0.18-0.4c-0.09-0.1-0.18-0.16-0.28-0.17c-0.06-0.01-0.14,0-0.24,0.1
						C104.33,47.45,103.35,48.42,102.36,49.39z M100.76,48.5l-0.2-0.19c-0.36-0.34-0.74-0.67-1.12-0.98l-0.21-0.17l3.13-3.11
						c0.17-0.17,0.4-0.26,0.67-0.25c0.26,0.01,0.5,0.1,0.71,0.28c0.24,0.2,0.37,0.43,0.39,0.67c0.02,0.25-0.06,0.47-0.23,0.65
						c-0.98,0.97-1.96,1.94-2.95,2.92L100.76,48.5z M100,47.13c0.25,0.21,0.5,0.43,0.74,0.65c0.92-0.91,1.84-1.82,2.76-2.73
						c0.07-0.07,0.1-0.16,0.09-0.26c-0.01-0.12-0.08-0.23-0.21-0.34c-0.11-0.09-0.23-0.14-0.36-0.15c-0.11,0-0.2,0.03-0.27,0.09
						L100,47.13z"/>
				</g>
				<g>
					<path d="M111.3,45.38c-0.27,0.19-0.51,0.31-0.73,0.38c-0.23,0.07-0.48,0.08-0.74,0.05c-0.29-0.03-0.56-0.14-0.79-0.31
						c-0.2-0.15-0.42-0.37-0.66-0.67c-0.88-1.07-1.9-2.06-3.04-2.95c-0.32-0.25-0.55-0.46-0.71-0.66c-0.18-0.22-0.3-0.48-0.35-0.76
						c-0.06-0.25-0.07-0.5-0.02-0.73s0.17-0.47,0.36-0.73c0.18-0.24,0.41-0.52,0.7-0.83c0.29-0.3,0.74-0.76,1.35-1.38
						c0.62-0.62,1.08-1.07,1.38-1.36c0.31-0.29,0.6-0.54,0.85-0.73c0.27-0.2,0.53-0.34,0.79-0.43s0.55-0.14,0.87-0.15
						c0.34-0.02,0.66,0.02,0.95,0.12c0.29,0.1,0.6,0.27,0.92,0.49c0.36,0.26,0.72,0.54,1.06,0.82c0.82,0.67,1.55,1.37,2.23,2.14
						c0.25,0.28,0.43,0.56,0.55,0.83s0.17,0.58,0.15,0.91c-0.01,0.28-0.06,0.55-0.17,0.81c-0.1,0.24-0.25,0.5-0.46,0.78
						c-0.2,0.26-0.46,0.56-0.78,0.89c-0.32,0.33-0.78,0.79-1.4,1.39s-1.09,1.05-1.42,1.35S111.56,45.2,111.3,45.38
						C111.31,45.37,111.3,45.37,111.3,45.38z M109.29,35.05c-0.02,0.01-0.03,0.02-0.05,0.04c-0.24,0.17-0.51,0.4-0.8,0.69
						c-0.3,0.29-0.76,0.74-1.37,1.35c-0.61,0.61-1.06,1.07-1.34,1.37c-0.28,0.29-0.5,0.55-0.66,0.78c-0.15,0.21-0.24,0.4-0.28,0.56
						s-0.03,0.33,0.02,0.52c0.04,0.22,0.12,0.4,0.25,0.56c0.13,0.17,0.34,0.35,0.62,0.58l0,0c1.17,0.91,2.23,1.93,3.13,3.03
						c0.22,0.27,0.4,0.46,0.57,0.58c0.15,0.12,0.32,0.18,0.52,0.2c0.19,0.03,0.36,0.02,0.51-0.03c0.16-0.05,0.35-0.14,0.58-0.31
						c0.24-0.17,0.52-0.4,0.84-0.69c0.32-0.3,0.79-0.74,1.41-1.34c0.61-0.6,1.07-1.06,1.39-1.38c0.3-0.32,0.56-0.6,0.74-0.85
						c0.18-0.24,0.31-0.46,0.39-0.66s0.13-0.42,0.13-0.65c0.02-0.26-0.02-0.49-0.11-0.7c-0.1-0.22-0.25-0.46-0.47-0.7
						c-0.67-0.75-1.38-1.43-2.17-2.08c-0.33-0.27-0.68-0.54-1.04-0.8c-0.27-0.2-0.53-0.34-0.77-0.42c-0.22-0.07-0.47-0.1-0.74-0.09
						s-0.5,0.04-0.71,0.12C109.69,34.8,109.49,34.9,109.29,35.05z M110.59,43.24c-0.13,0.09-0.24,0.14-0.36,0.15
						c-0.21,0.02-0.41-0.07-0.59-0.29l0,0c-0.76-0.87-1.61-1.69-2.55-2.44c-0.24-0.19-0.3-0.4-0.31-0.54
						c-0.01-0.21,0.09-0.41,0.32-0.64l2.94-2.93c0.23-0.22,0.43-0.35,0.62-0.38c0.22-0.04,0.44,0.04,0.68,0.22
						c0.71,0.54,1.38,1.12,2,1.73c0.24,0.24,0.48,0.49,0.71,0.74c0.14,0.16,0.2,0.36,0.17,0.58c-0.03,0.21-0.15,0.41-0.37,0.62
						c-1.44,1.42-2.37,2.33-2.79,2.75l-0.2,0.2C110.75,43.11,110.67,43.18,110.59,43.24z M110.17,42.89
						c0.01-0.01,0.1-0.04,0.28-0.22l0.2-0.2c0.42-0.41,1.35-1.33,2.79-2.75c0.17-0.17,0.22-0.28,0.23-0.35
						c0.02-0.1-0.02-0.15-0.05-0.19c-0.22-0.24-0.45-0.49-0.69-0.72c-0.6-0.6-1.25-1.16-1.94-1.69c-0.12-0.09-0.2-0.11-0.24-0.11
						c-0.02,0-0.12,0.03-0.32,0.23l-2.94,2.93c-0.13,0.13-0.18,0.23-0.17,0.27c0,0.04,0.02,0.1,0.11,0.17
						c0.96,0.77,1.85,1.61,2.62,2.51C110.13,42.87,110.16,42.89,110.17,42.89L110.17,42.89z"/>
				</g>
				<g>
					<path d="M117.44,39.41l-0.19-0.27c-1.62-2.33-3.89-4.35-6.56-5.84l-0.29-0.16l2.97-2.98h0.12c2.76,0.05,5.42,0.31,7.92,0.76
						c-1.41-1.36-3.05-2.53-4.88-3.47l-0.31-0.16l1.91-1.92l0.18,0.09c2.84,1.43,5.29,3.43,7.11,5.8l0.13,0.17l-0.15,0.15
						c-0.92,0.91-1.85,1.82-2.77,2.73l-0.11,0.11l-0.16-0.04c-2.22-0.61-4.62-1.05-7.16-1.3c1.61,1.22,2.99,2.64,4.11,4.21
						l0.12,0.17L117.44,39.41z M114.42,32.49c2.82,0.23,5.49,0.69,7.94,1.35c0.84-0.82,1.67-1.64,2.51-2.47
						c-1.71-2.18-3.99-4.04-6.61-5.38l-1.16,1.17c2.03,1.08,3.82,2.44,5.33,4.03l-0.4,0.35c-2.61-0.52-5.45-0.82-8.41-0.88
						l-2.36,2.37c2.52,1.45,4.67,3.37,6.26,5.57l1.24-1.21c-1.24-1.7-2.79-3.2-4.62-4.47"/>
				</g>
				<g>
					<path d="M126.39,30.67c-0.16,0.12-0.37,0.18-0.58,0.16c-0.27-0.01-0.51-0.14-0.68-0.34c-1.62-1.95-3.63-3.57-5.99-4.83
						c-0.2-0.11-0.34-0.3-0.38-0.51c-0.04-0.21,0.03-0.42,0.19-0.58l1.15-1.15c0.14-0.14,0.37-0.18,0.55-0.08
						c0.88,0.44,1.74,0.94,2.54,1.48c-0.16-1.24-0.39-2.44-0.68-3.57c-0.04-0.14,0-0.28,0.11-0.38l1.95-1.96
						c0.12-0.12,0.3-0.16,0.47-0.12c0.17,0.05,0.29,0.17,0.33,0.33c0.33,1.56,0.55,3.23,0.65,4.94c2.14-0.2,4.27-0.32,6.33-0.37l0,0
						c0.19,0,0.36,0.1,0.43,0.25c0.08,0.16,0.05,0.35-0.08,0.47l-2.23,2.21c-0.09,0.09-0.22,0.14-0.35,0.13
						c-1.48-0.08-3.02-0.11-4.58-0.09c0.77,0.7,1.48,1.46,2.11,2.26c0.13,0.17,0.12,0.4-0.03,0.55l-1.13,1.11
						C126.46,30.62,126.42,30.65,126.39,30.67z M120.46,23.81l-1.11,1.11c-0.06,0.06-0.06,0.12-0.05,0.16
						c0.01,0.06,0.05,0.11,0.11,0.15c2.42,1.29,4.49,2.97,6.15,4.97c0.07,0.08,0.17,0.13,0.27,0.14s0.2-0.03,0.27-0.1l1.08-1.07
						c-0.64-0.8-1.37-1.57-2.15-2.27c-0.14-0.12-0.18-0.3-0.11-0.46s0.23-0.27,0.42-0.27c1.62-0.02,3.22,0.01,4.77,0.09l2.07-2.05
						c-2.01,0.05-4.09,0.18-6.18,0.37c-0.12,0.01-0.25-0.03-0.35-0.1c-0.1-0.08-0.16-0.19-0.16-0.31c-0.1-1.67-0.31-3.29-0.62-4.81
						l-1.81,1.82c0.3,1.19,0.54,2.46,0.71,3.76c0.02,0.17-0.06,0.33-0.22,0.42c-0.16,0.08-0.35,0.07-0.5-0.03
						C122.21,24.77,121.35,24.26,120.46,23.81z M123.01,21.21L123.01,21.21L123.01,21.21z"/>
				</g>
				<g>
					<path d="M133.51,23.58c-0.1,0.07-0.21,0.1-0.34,0.1c-0.15-0.01-0.3-0.07-0.39-0.19l0,0c-0.4-0.46-0.84-0.92-1.29-1.35
						c-0.2-0.19-0.21-0.49-0.02-0.68l1.43-1.43c0.1-0.1,0.24-0.15,0.38-0.16c0.14,0,0.29,0.05,0.39,0.15
						c0.48,0.45,0.94,0.92,1.37,1.41c0.17,0.19,0.16,0.47-0.02,0.65l-1.44,1.44C133.56,23.54,133.54,23.56,133.51,23.58z
						 M133.2,23.17l-0.21,0.16L133.2,23.17L133.2,23.17L133.2,23.17z M133.29,20.38l-1.42,1.43c0.46,0.42,0.91,0.89,1.32,1.36
						l1.43-1.43C134.21,21.27,133.76,20.81,133.29,20.38z M131.32,21.07c-0.33,0.23-0.8,0.23-1.14-0.03l0,0
						c-1.18-0.89-2.48-1.67-3.87-2.32c-0.26-0.12-0.44-0.34-0.5-0.6c-0.05-0.26,0.02-0.51,0.21-0.7l1.06-1.07
						c0.28-0.28,0.73-0.35,1.09-0.17c1.5,0.73,2.91,1.62,4.17,2.66c0.18,0.14,0.28,0.34,0.29,0.56s-0.07,0.43-0.23,0.59l-0.99,0.99
						C131.4,21.01,131.36,21.04,131.32,21.07z M130.51,20.65c0.16,0.12,0.38,0.11,0.52-0.02l0.99-0.99
						c0.06-0.06,0.09-0.14,0.09-0.23c-0.01-0.08-0.04-0.15-0.11-0.21c-1.23-1.01-2.6-1.88-4.06-2.59c-0.15-0.07-0.33-0.04-0.45,0.07
						l-1.06,1.07c-0.1,0.1-0.1,0.21-0.08,0.27c0.02,0.1,0.09,0.19,0.2,0.24C127.96,18.93,129.3,19.73,130.51,20.65L130.51,20.65z"/>
				</g>
			</g>
		</g>
	</g>
</g>
</svg>
