<?xml version="1.0" encoding="utf-8"?>
<!-- Generator: Adobe Illustrator 28.0.0, SVG Export Plug-In . SVG Version: 6.00 Build 0)  -->
<svg version="1.1" id="Layer_1" xmlns="http://www.w3.org/2000/svg" xmlns:xlink="http://www.w3.org/1999/xlink" x="0px" y="0px"
	 viewBox="0 0 800 800" style="enable-background:new 0 0 800 800;" xml:space="preserve">
<style type="text/css">
	.st0{fill:#6084B0;}
	.st1{fill:#436687;}
	.st2{fill:#9EBCED;}
	.st3{fill:#FFB21D;}
	.st4{fill:#DE9619;}
	.st5{fill:#456E94;}
	.st6{opacity:0.3;fill:url(#SVGID_1_);enable-background:new    ;}
	.st7{fill:url(#SVGID_00000117657704615177308150000000722560791902681781_);}
	.st8{fill:url(#SVGID_00000075876217052738658090000007884748898919296168_);}
	.st9{fill:url(#SVGID_00000001659664794382798280000013022345497565262739_);}
	.st10{fill:url(#SVGID_00000007402926290315164460000013512418701172110481_);}
	.st11{fill:url(#SVGID_00000178912701169892140690000017854364448965666975_);}
	.st12{fill:#7097BF;}
	.st13{fill:none;stroke:#000000;stroke-miterlimit:10;}
	.st14{fill:none;stroke:#000000;stroke-width:1;stroke-miterlimit:9.9998;}
	.st15{fill:none;stroke:#000000;stroke-linecap:round;stroke-linejoin:round;stroke-miterlimit:10;}
</style>
<g id="_x32_-PANTS__x5B_BASE_x5D_">
	<g>
		<path class="st0" d="M525.47,685.98c-0.05-0.53-0.1-1.06-0.17-1.59c-0.14-1.08-0.11-1.91,0.24-2.94c0.3-0.86,0.74-1.68,0.91-2.58
			c0.29-1.58-0.43-3.04-0.53-4.58c-0.1-1.54-0.36-3.13-0.36-4.68c0-9.65,0.06-19.28-0.51-28.92c-0.1-1.69-0.23-3.41-0.7-5.05
			c-0.45-1.53-1.34-2.83-1.93-4.28c-1.48-3.62-3.12-7.09-3.64-11.01c-0.19-1.48-0.24-2.97-0.28-4.46c-0.09-2.96-0.17-5.91-0.26-8.87
			c-0.07-2.5,0.22-5.24-0.47-7.63c-1.5-5.23-3.57-10.28-5.62-15.32c-0.85-2.09-1.96-4.03-2.75-6.13c-0.91-2.41-1.82-4.83-2.38-7.35
			c-1.35-6.07-0.66-12.67-3.34-18.29c-1.26-2.64-2.57-4.59-2.39-7.58c0.26-4.16-0.36-8.41-2.02-12.23c-0.93-2.13-2.17-4.12-2.98-6.3
			c-0.7-1.87-1.07-3.84-1.43-5.8c-0.63-3.39-1.26-6.77-1.89-10.16c-0.62-3.3-0.19-6.48-0.46-9.81c-0.15-1.82-0.53-3.62-0.91-5.41
			c-1.2-5.67-2.76-11.24-3.96-16.89c-0.89-4.18-1.78-8.35-2.66-12.53c-0.81-3.81-1.84-7.66-2.16-11.55
			c-0.5-6.22-0.59-12.45-1.42-18.68c-0.37-2.73-0.94-5.46-1.04-8.2c-0.09-2.62-0.45-5.56-1.1-8.11c-0.77-3.02-0.98-6.36-1.02-9.47
			c0-0.42,0-0.86,0.2-1.23c0.14-0.27,0.38-0.49,0.56-0.74c0.51-0.71,0.53-1.65,0.48-2.53c-0.13-2.08-0.51-4.16-0.77-6.23
			c-0.24-1.85-0.31-3.74-0.55-5.6c-0.2-1.53-0.69-3.09-1.76-4.21c-0.71-0.74-1.62-1.24-2.52-1.71c-1.64-0.86-3.32-1.67-5.02-2.39
			c-6.86-2.91-13.73-3.22-21.06-3.62c-7.71-0.41-15.43-0.75-23.15-0.97c-6.4-0.19-12.8-0.42-19.21-0.47c-3.2-0.03-6.4-0.01-9.6,0.08
			c-1.27,0.03-2.66-0.13-3.9,0.09c-1.42,0.24-2.72,0.96-4.11,1.31c-1.93,0.5-3.97,0.3-5.96,0.18c-7.24-0.42-14.5,0.35-21.59,1.81
			c-4.84,0.99-9.68,2.05-14.34,3.7c-2.1,0.74-4.15,1.58-6.22,2.38c-2.97,1.14-5.97,2.09-6.65,5.56c-0.47,2.39-0.34,4.61,0.09,6.95
			c0.34,1.81-0.47,2.95-1.05,4.56c-0.57,1.6,0.56,2.28,0.67,3.82c0.07,0.96-0.31,1.87-0.38,2.82c-0.12,1.67-0.51,3.49-0.44,5.15
			c0.06,1.49,1.05,2.83,1.53,4.21c1.05,3.02-0.23,6.17,0.58,9.16c0.31,1.12,0.77,2.2,0.91,3.35c0.3,2.38-0.78,4.76-0.59,7.16
			c0.3,3.78,2.21,7.45,3.35,11.03c1.23,3.87,2.22,7.83,2.53,11.89c0.1,1.29,0.13,2.59,0.29,3.88c0.82,6.54,4.18,12.68,5.7,19.1
			c1.02,4.28,1.68,8.64,2.34,12.99c1.22,8.02,2.59,16.05,3.56,24.1c0.71,5.9,0.9,11.84,1.49,17.75c0.15,1.5,0.32,2.99,0.54,4.48
			c0.17,1.19,0.02,2.32,0.2,3.48c0.39,2.63,2.12,4.89,2.75,7.46c0.95,3.91-0.46,8.25,1.12,11.95c0.61,1.43,1.61,2.64,2.37,4
			c0.65,1.17,1.18,2.64,0.85,3.99c-0.35,1.41-0.82,2.46-0.68,4.02c0.15,1.63,0.64,3.21,1.1,4.78c2.33,7.89,4.37,16.05,4.83,24.27
			c0.33,5.04,0.63,10.08,0.89,15.12c0.32,6.15-0.1,12.57,1.21,18.58c0.34,1.57,0.69,3.17,1.47,4.59c0.39,0.7,0.87,1.35,1.27,2.04
			c0.53,0.91,0.92,1.91,1.26,2.91c0.36,1.04,0.68,2.09,0.96,3.15c0.17,0.63,0.31,1.32,0.05,1.92c-0.38,0.86-1.43,1.18-2.06,1.88
			c-1.01,1.12-0.7,2.89-0.1,4.28c1.07,2.5,1.75,5.14,2.48,7.75c0.67,2.38,0.63,4.88,1.79,7.15c0.43,0.85,1,1.63,1.4,2.5
			c0.53,1.15,0.73,2.42,0.93,3.67c0.49,3.08,0.97,6.17,1,9.29c0.01,1.66-0.07,3.43,0.81,4.84c1.22,1.95,3.79,2.46,6.07,2.69
			c2.91,0.29,5.84,0.42,8.77,0.52c2.54,0.09,5.18-0.37,7.71-0.65c2.51-0.27,5.09-0.1,7.62-0.38c1.75-0.19,3.59-0.47,4.95-1.58
			c1.98-1.6,2.38-4.4,2.64-6.93c0.22-2.16,0.45-4.33,0.45-6.5c0-3.16-0.42-6.5,0.99-9.33c0.82-1.64,2.19-2.93,2.99-4.58
			s0.94-3.8,1.04-5.6c0.14-2.59-0.33-5.17-0.54-7.75c-0.55-6.73,0.44-13.53,0.57-20.26c0.05-2.53,0.77-5.18,1.05-7.71
			c0.57-5.26,0.81-10.55,0.7-15.83c-0.15-7.97-1.33-15.65-2.58-23.5c-0.64-4.01-0.63-8.13-1.86-12.03
			c-1.57-4.98-2.19-10.18-1.85-15.44c0.09-1.38,0.25-2.76,0.08-4.13c-0.25-2.07-1.21-3.99-1.85-5.98c-0.89-2.77-1.14-5.7-1.39-8.6
			c-0.26-3.07-0.46-6.15-0.66-9.2c-0.61-9.06-1.53-18.11-2.3-27.15c-0.51-6-1.08-12-1.51-18c-0.28-3.91-0.56-7.83-0.64-11.75
			c-0.02-0.85,0.13-1.86,0.82-2.44c-0.28,0.24,3.54,8.77,3.88,9.67c1.25,3.32,2.45,6.66,3.66,10c2.41,6.65,4.86,13.31,7.8,19.75
			c1.53,3.34,3.32,6.51,5.05,9.72c1.92,3.56,3.42,7.49,4.94,11.24c3.28,8.1,7.49,16,9.47,24.51c0.96,4.14,1.69,8.34,2.19,12.57
			c0.09,0.78,0.18,1.58,0.57,2.25c0.48,0.82,1.33,1.35,1.95,2.07c0.86,1.01,1.2,2.35,1.52,3.64c0.57,2.31,1.38,4.46,1.97,6.75
			c0.62,2.41,1.09,4.85,1.74,7.25c0.2,0.76,0.41,1.52,0.51,2.3c0.28,2.28-0.45,4.78,0.82,6.81c1.83,2.92,4.08,6.68,4.32,10.16
			c0.08,1.19-0.02,2.38,0.15,3.56c0.13,0.9,0.4,1.77,0.7,2.63c1.32,3.85,2.96,7.58,4.92,11.14c0.75,1.37,1.55,2.72,2.22,4.13
			c0.83,1.77,1.45,3.64,2.06,5.5c1.2,3.68,2.21,7.51,3.72,11.06c0.74,1.73,1.05,3.69,1.58,5.5c0.55,1.9,1.22,3.74,1.85,5.62
			c1.11,2.96,2.4,5.85,3.29,8.89c0.33,1.12,0.61,2.25,0.79,3.4c0.14,0.89-0.49,2.03,0.19,2.75c0.44,0.46,1.08,0.66,1.64,0.96
			c1.59,0.86,2.47,2.61,3.09,4.31c2.36,6.47,2.26,13.63,4.51,20.14c0.49,1.41,1.23,2.93,2.63,3.45c0.65,0.24,1.36,0.23,2.05,0.21
			c8.18-0.16,16.6-0.36,24.62-2.04c2.18-0.46,3.57-1.54,3.95-3.92c0.26-1.62-0.17-3.17-0.19-4.79c-0.03-1.73,0.02-3.47,0.06-5.2
			C525.64,691.92,525.73,688.94,525.47,685.98z"/>
		<path class="st1" d="M471,402.89c-0.66-0.64-1.64-0.83-2.4-1.35c-0.21,1.01-0.49,2.03-0.67,3.03c-0.18,1-0.06,1.98-0.45,2.95
			c-0.53,1.31-1.68,2.62-2.76,3.51c-0.72,0.59-1.58,1.04-2.51,1.12c-1.09,0.09-2.14-0.35-3.16-0.71c-0.94-0.33-1.89-0.62-2.86-0.85
			c-2.46-0.59-4.87-1.27-7.31-1.9c-2.74-0.71-5.43-1.68-8.21-2.16c-2.71-0.46-5.51-0.76-8.05-1.89c-0.43-0.19-0.85-0.41-1.18-0.74
			c-0.41-0.41-0.6-0.93-0.91-1.41c-0.36-0.55-0.73-1.1-1.09-1.65c-0.75-1.12-1.49-2.25-2.24-3.37c-0.51-0.77-1.07-1.56-2.02-1.73
			c-1.23-0.23-2.36-0.8-3.61-0.9c-0.17-0.01-0.4,0.02-0.43,0.19c-0.01,0.08,0.02,0.15,0.06,0.22c0.21,0.37,0.51,0.68,0.75,1.03
			c0.27,0.37,0.47,0.79,0.67,1.2c0.57,1.15,1.13,2.3,1.74,3.43c0.52,0.97,1.2,1.77,1.73,2.73c1.06,1.88,2.33,3.76,4.25,4.87
			c1.14,0.66,2.43,1,3.72,1.28c2.15,0.47,4.33,0.8,6.47,1.32c3.41,0.83,6.68,2.14,10.07,3.03c4.13,1.09,8.4,1.54,12.65,1.99
			c0.33,0.04,0.7,0.06,0.97-0.14c0.4-0.29,0.52-0.79,0.93-1.08c0.64-0.45,1.23-1.01,1.79-1.57c0.57-0.56,1.09-1.16,1.7-1.69
			c0.61-0.53,1.24-1.08,1.6-1.82c0.19-0.39,0.3-0.81,0.4-1.24c0.39-1.71,0.63-3.41,0.56-5.16c0-0.1-0.01-0.21-0.05-0.3
			C471.14,403.04,471.08,402.97,471,402.89z"/>
		<path class="st1" d="M349.51,401.04c-0.02-0.08-0.06-0.15-0.12-0.22c-0.13-0.14-0.31-0.19-0.49-0.24c-0.39-0.1-0.77-0.2-1.16-0.3
			c-0.1-0.03-0.21-0.05-0.29,0.02c-0.05,0.04-0.07,0.11-0.09,0.17c-0.45,1.74-0.83,3.48-1.31,5.22c-0.22,0.81-0.47,1.62-0.72,2.42
			c-0.08,0.25-0.16,0.5-0.34,0.7c-0.13,0.14-0.3,0.23-0.47,0.32c-1.43,0.75-2.93,1.35-4.47,1.84c-0.92,0.29-1.86,0.55-2.79,0.8
			c-0.6,0.16-1.19,0.32-1.79,0.49c-0.07,0.02-0.13,0.04-0.18,0.09c-0.06,0.06-0.07,0.15-0.08,0.23c-0.1,0.79-0.21,1.57-0.31,2.36
			c1.12-0.24,2.2-0.46,3.27-0.85c1.09-0.39,2.18-0.8,3.27-1.21c0.74-0.28,1.47-0.59,2.17-0.95c0.68-0.36,1.62-0.45,2.36-0.65
			c0.33-0.09,0.69-0.19,0.9-0.46c0.09-0.12,0.14-0.27,0.19-0.41c0.37-1.02,0.71-2.06,1.03-3.09c0.15-0.48,0.33-0.94,0.4-1.44
			c0.08-0.51,0.15-1.03,0.28-1.54c0.22-0.86,0.45-1.72,0.67-2.58C349.52,401.52,349.58,401.26,349.51,401.04z"/>
		<path class="st2" d="M383.82,388.22c-0.37-1.42-1.11-2.89-2.47-3.6c-1.39-0.73-3.39-0.8-4.9-0.44c-1.83,0.43-2.87,1.99-3.5,3.65
			c-0.09,0.23-0.17,0.46-0.24,0.7c-1.87,2.31-0.75,5.86,0.99,7.98c0.99,1.21,2.38,2.23,3.94,2.53c1.73,0.33,3.52-0.12,4.72-1.46
			C384.57,395.11,384.62,391.27,383.82,388.22z"/>
		<path class="st2" d="M384.52,406.4c-0.16-0.76-0.36-1.55-0.76-2.22c-0.98-1.64-2.95-2.14-4.75-2.11
			c-1.01,0.02-1.97,0.32-2.72,1.02c-0.59,0.55-1.12,1.32-1.47,2.04c-0.31,0.64-0.48,1.31-0.52,1.99c-0.03,0.12-0.06,0.24-0.08,0.37
			c-0.1,0.87,0.04,1.78,0.28,2.61c0.45,1.61,1.32,3.2,2.82,4.04c1.52,0.86,3.44,0.89,4.99,0.09c0.92-0.47,1.45-1.28,1.79-2.23
			c0.34-0.91,0.59-1.86,0.69-2.82C384.9,408.26,384.71,407.32,384.52,406.4z"/>
		<g>
			<g>
				<path class="st2" d="M463.47,417.38c-0.58-0.12-1.15-0.16-1.74-0.08c0.14,0.25,0.29,0.5,0.43,0.75
					c0.15-0.29,0.38-0.47,0.72-0.49c-0.04-0.33-0.09-0.65-0.13-0.98c-1.71,0.31-3.59,1.44-3.58,3.4c0.01,1.88,1.83,3.16,3.51,3.5
					c0.98,0.2,1.97,0.15,2.95-0.02c0.97-0.17,2.12-0.38,2.98-0.89c1.41-0.84,1.8-2.74,1.15-4.17c-0.78-1.74-3.13-3.09-5.01-2.41
					c-0.6,0.22-0.34,1.18,0.27,0.96c1.29-0.47,2.88,0.36,3.61,1.45c0.64,0.97,0.64,2.44-0.35,3.2c-0.56,0.43-1.4,0.56-2.08,0.72
					c-0.83,0.2-1.68,0.33-2.53,0.29c-1.31-0.07-2.88-0.67-3.37-2.01c-0.65-1.76,1.32-2.79,2.73-3.04c0.55-0.1,0.43-1.01-0.13-0.98
					c-0.68,0.04-1.26,0.38-1.59,0.99c-0.16,0.3,0.03,0.81,0.43,0.75c0.5-0.07,0.98-0.06,1.47,0.04
					C463.83,418.48,464.1,417.52,463.47,417.38L463.47,417.38z"/>
			</g>
		</g>
		<g>
			<g>
				<path class="st2" d="M465.28,416.17c-0.95,0.02-1.86,0.25-2.71,0.67c-0.41,0.2-0.83,0.48-1.06,0.88
					c-0.28,0.49-0.32,1.14,0.02,1.61c0.12-0.46,0.24-0.91,0.36-1.37c-0.17,0.11-0.01,0.04,0.05,0.02c-0.03,0-0.07,0-0.1,0
					c0.05-0.01,0.09,0,0.14,0.02c-0.07,0.02-0.28-0.14-0.39-0.16c-0.21-0.05-0.4-0.04-0.6,0.03c-0.68,0.22-1.01,0.99-0.99,1.65
					c0.03,1.09,0.95,1.96,1.85,2.43c1.83,0.96,4.04,0.68,5.57-0.71c0.38-0.34,0.76-0.78,0.9-1.28c0.18-0.68-0.14-1.32-0.69-1.7
					c-0.87-0.61-2.05-0.56-3.02-0.23c-1.05,0.36-2.36,1.08-1.92,2.41c0.35,1.08,1.82,1.27,2.79,1.13c0.96-0.15,1.88-0.74,2.37-1.59
					c0.39-0.68,0.36-1.44-0.22-2c-0.45-0.43-1.08-0.71-1.67-0.87c-0.09,0.65-0.18,1.31-0.27,1.96c0.49,0.02,0.89,0.05,1.21,0.22
					c0.1,0.07,0.12,0.08,0.05,0.03c0.05,0.05,0.1,0.09,0.15,0.15c-0.09-0.13,0.11,0.14-0.01,0c0.02,0.1,0.03,0.12,0.02,0.05
					s-0.01-0.06,0,0.05c-0.01,0.12-0.01,0.12,0.01,0.01c-0.01,0.05-0.02,0.09-0.04,0.14c-0.02,0.07-0.02,0.06,0.01-0.02
					c-0.03,0.06-0.06,0.11-0.09,0.17c-0.1,0.17,0.06-0.05-0.08,0.1c-0.16,0.17,0.11-0.03-0.1,0.08c-0.11,0.06-0.16,0.09-0.21,0.11
					c-0.37,0.13-0.83,0.1-1.23,0.01c-0.53-0.12-1.08,0.16-1.23,0.7c-0.14,0.5,0.17,1.11,0.7,1.23c0.91,0.2,1.84,0.22,2.7-0.17
					c0.72-0.32,1.3-0.99,1.49-1.76c0.21-0.85-0.06-1.75-0.74-2.31c-0.74-0.61-1.66-0.74-2.59-0.77c-1.14-0.04-1.35,1.66-0.27,1.96
					c0.27,0.08,0.38,0.11,0.62,0.26c0.05,0.03,0.1,0.06,0.15,0.09c0.06,0.04,0.01,0.04,0.05,0.04c0.01,0.01,0.02,0.02,0.03,0.03
					c-0.04-0.18-0.09-0.35-0.13-0.53c-0.02-0.01,0.05-0.05-0.02,0.04c-0.04,0.04-0.07,0.11-0.1,0.15c0.01-0.02,0.09-0.11,0.02-0.03
					s-0.15,0.15-0.22,0.22c0.13-0.12-0.08,0.05-0.13,0.08c-0.04,0.02-0.08,0.04-0.12,0.07c-0.22,0.14,0.09-0.02-0.05,0.03
					c-0.1,0.04-0.2,0.07-0.3,0.09c-0.04,0.01-0.09,0.02-0.13,0.03c-0.15,0.03,0.15-0.01,0,0c-0.09,0-0.18,0.01-0.27,0.01
					c-0.03,0-0.22-0.02-0.09,0c0.12,0.02-0.07-0.02-0.09-0.02c-0.06-0.02-0.12-0.03-0.17-0.05c-0.12-0.04,0.03,0.02,0.03,0.02
					c-0.02-0.01-0.03-0.02-0.05-0.02c-0.15-0.08-0.1,0.01,0.15,0.28c0.02,0.11-0.06,0.3-0.05,0.4c0,0.01-0.05,0.06-0.06,0.05
					c0.02,0,0.15-0.09,0.18-0.1c0.05-0.02,0.1-0.05,0.14-0.07c0.02-0.01,0.23-0.1,0.13-0.06c0.23-0.1,0.48-0.17,0.73-0.22
					c0.16-0.03,0.11-0.03,0.25-0.03c0.08,0,0.15,0,0.22,0c0.03,0,0.17,0.03,0.06,0.01c0.12,0.02,0.19,0.05,0.23,0.07
					c0.16,0.08,0.1,0.09,0.03-0.03c-0.03-0.05-0.02-0.39-0.04-0.42c-0.02-0.03-0.07,0.1-0.04,0.05c-0.01,0.01-0.14,0.16-0.2,0.22
					c-0.3,0.3-0.7,0.56-1.04,0.68c-0.2,0.07-0.52,0.15-0.65,0.17c-0.12,0.01-0.48,0.02-0.69-0.01c-0.18-0.02,0.11,0.02-0.06-0.01
					c-0.07-0.01-0.14-0.03-0.22-0.05c-0.14-0.04-0.29-0.08-0.42-0.13c-0.17-0.06,0.1,0.05-0.07-0.03c-0.07-0.03-0.13-0.07-0.2-0.1
					c-0.13-0.07-0.26-0.15-0.38-0.23c-0.11-0.08-0.33-0.28-0.4-0.42c-0.06-0.11-0.02-0.02-0.01-0.01c-0.02-0.11-0.03-0.13-0.02-0.06
					c0,0.05,0.01,0.05,0-0.01c0-0.02,0-0.03,0-0.05c0,0.02-0.01,0.05-0.01,0.07c0.03-0.01-0.2,0.21-0.02,0.05
					c-0.15,0.09-0.29,0.17-0.44,0.26c0.02-0.01,0.05-0.02,0.07-0.03c-0.18,0-0.35,0-0.53,0c-0.12-0.05-0.12-0.05,0,0.01
					c0.11,0.05,0.22,0.09,0.33,0.14c0.16,0.05,0.34,0.07,0.51,0.07c0.35,0,0.71-0.1,1.01-0.29c0.42-0.27,0.68-0.91,0.36-1.37
					c0.02,0.11,0.03,0.23,0.01,0.34c-0.01,0.03-0.02,0.06-0.04,0.09c-0.01,0.02-0.02,0.03-0.05,0.04c0.04-0.03,0.09-0.06,0.14-0.09
					c0.19-0.11,0.41-0.22,0.57-0.28c0.5-0.17,0.9-0.25,1.39-0.27c0.54-0.01,1-0.45,1-1C466.28,416.64,465.82,416.15,465.28,416.17
					L465.28,416.17z"/>
			</g>
		</g>
		<path class="st3" d="M384.66,388.92c-0.27-1.5-1.16-2.76-2.45-3.56c-1.15-0.71-2.57-1.21-3.92-1.32
			c-1.37-0.11-2.88,0.46-3.88,1.41c-0.25,0.24-0.48,0.53-0.66,0.82c-0.17,0.27-0.42,0.67-0.45,0.98l0,0
			c-0.02,0.05-0.04,0.1-0.06,0.15c-1.54,1.53-1.95,3.86-1.5,6.04c0.26,1.24,0.92,2.49,1.81,3.39c0.89,0.9,2.19,1.77,3.46,2
			c0.43,0.08,0.85,0.09,1.27,0.05c1.19,0.55,2.48-0.04,3.43-0.83c0.5-0.42,0.88-0.93,1.26-1.45c0.71-0.98,1.13-2.18,1.44-3.34
			C384.79,391.83,384.93,390.38,384.66,388.92z"/>
		<path class="st3" d="M384.45,405.86c-0.67-1.71-1.86-3.33-3.8-3.64c-0.77-0.13-1.3-0.13-2.06,0c-0.25,0.04-0.5,0.09-0.74,0.17
			c-0.51,0.16-1.03,0.44-1.47,0.79c-0.43,0.3-0.79,0.68-1.1,1.15c-0.7,1.08-0.9,2.49-0.79,3.76c0.11,1.32,0.37,2.62,0.91,3.83
			c0.59,1.34,1.81,2.41,3.23,2.79c0.8,0.22,1.71,0.22,2.5-0.03c1.12-0.36,1.95-1.11,2.57-2.1c0.7-1.1,1-2.32,1.15-3.59
			C384.97,407.95,384.84,406.82,384.45,405.86z"/>
		<path class="st4" d="M381.65,389.01c-0.13-0.29-0.28-0.56-0.47-0.82c-0.27-0.36-0.61-0.77-1.04-0.97c-0.5-0.6-1.18-1.04-2.03-1.19
			c-0.86-0.16-1.8-0.07-2.55,0.42c-0.37,0.24-0.68,0.54-0.93,0.87c-0.34,0.27-0.62,0.62-0.82,1.02c-0.39,0.81-0.45,1.71-0.43,2.61
			c-0.03,0.32-0.02,0.64,0.04,0.95c0.04,0.69,0.13,1.4,0.39,2.01c0.38,0.9,1.23,1.5,2.11,1.85c1.66,0.65,3.6,0.1,4.69-1.3
			c0.51-0.66,0.82-1.44,0.88-2.27c0.05-0.04,0.1-0.06,0.14-0.11C382.53,391.19,382.08,389.99,381.65,389.01z"/>
		<path class="st4" d="M382.33,408.39c-0.07-1.12-0.37-2.16-1.1-3.04c-0.8-0.97-2.17-1.33-3.37-0.98c-0.64,0.19-1.22,0.57-1.59,1.14
			c-0.05,0.08-0.08,0.16-0.12,0.24c-0.04,0.02-0.08,0.04-0.12,0.07c-1.05,0.73-1.11,2.03-0.93,3.18c0.15,0.95,0.71,1.7,1.45,2.26
			c0.15,0.29,0.31,0.57,0.53,0.82c0.59,0.69,1.59,1.06,2.48,0.82c0.46-0.13,0.84-0.41,1.16-0.76c0.21-0.13,0.39-0.3,0.56-0.49
			c0.03-0.03,0.07-0.04,0.1-0.07C382.21,410.71,382.4,409.54,382.33,408.39z"/>
	</g>
	<g>
		<path class="st5" d="M417.46,698.05c0.05-0.29,0-0.62-0.27-0.69c-0.2-0.05-0.38,0.08-0.54,0.21c-0.91,0.73-1.81,1.45-2.72,2.18
			c-0.47,0.38-0.96,0.76-1.55,0.91c-0.62,0.16-1.27,0.02-1.9-0.12c-2.29-0.53-4.54-1.21-6.75-2.03c-0.41-0.15-0.9-0.45-0.82-0.87
			c0.03-0.16,0.14-0.29,0.24-0.41c0.52-0.59,1.11-1.13,1.74-1.6c0.46-0.34,1.55-1.23,2.1-1.28c0.15-0.01,0.3,0.03,0.44,0.07
			c1,0.32,1.95,0.8,2.96,1.09s2.14,0.37,3.08-0.1c0.08-0.04,0.16-0.09,0.18-0.17c0.04-0.11-0.03-0.22-0.12-0.3
			c-0.59-0.58-1.61-0.3-2.38-0.63c-0.64-0.27-0.85-0.82-1.23-1.33c-0.41-0.54-0.94-1-1.42-1.5c-1.08-1.12-2.11-2.3-3.06-3.54
			c-1.84-2.41-3.47-5.12-4.21-8.09c0.86-0.38,2.03,0.81,2.76,1.23c3.86,2.23,7.72,4.47,11.58,6.7c1.1-3.26,1.11-6.54,1.55-9.91
			c0.45-3.41,1.14-6.97-0.06-10.3c-0.9-2.52-2.8-4.57-3.78-7.06c-0.31-0.79-0.52-1.68-0.25-2.48c0.24-0.71,0.9-1.17,1.64-1.17
			c0.19,0,1.48,0.69,1.56,0.39c0.58-2.09-2.41-40.68-3.62-43.28c-0.5-1.07-1.35-1.94-2.19-2.78c-2.51-2.52-5.03-5.06-7.99-7.03
			c-1.44-0.96-3.07-1.87-3.8-3.44c-0.46-0.98-0.5-2.1-0.75-3.15c-0.24-1.06,6.6,0.53,10.5,2.73c1.04,0.59,2.19,1.23,3.36,0.99
			c-0.71-4.39-1.16-8.83-1.35-13.27c-0.98-0.61-2.68-1.27-3.4-2.15c-0.51-0.62-0.36-1.47-0.58-2.23c-0.59-2.12-2.28-3.8-3.85-5.25
			c-0.96-0.89-2-1.88-2.15-3.19c-0.3-2.65,1.91-5.21,0.3-7.83c-0.7-1.14-1.95-1.79-3.09-2.48c-2.35-1.42-4.46-3.2-6.56-4.96
			c-0.11-0.09-0.23-0.2-0.25-0.34c-0.04-0.22,0.17-0.41,0.35-0.54c2.5-1.81,5.04-3.55,7.61-5.25c0.17-0.11,0.35-0.22,0.54-0.21
			c0.23,0.01,0.41,0.19,0.58,0.35c3.92,3.9,8.72,6.91,13.94,8.74c0.56,0.2,1.25,0.36,1.69-0.05c0.2-0.18,0.29-0.45,0.38-0.7
			c0.25-0.69,0.49-1.39,0.74-2.08c0.26-0.74,0.53-1.5,0.46-2.28c-0.06-0.73-0.41-1.41-0.57-2.13c-0.17-0.77-0.11-1.58-0.26-2.35
			c-0.2-0.99-0.73-1.87-0.98-2.84c-0.22-0.86-0.06-1.64-0.13-2.5c-0.16-1.86-1.05-3.77-1.84-5.44c-0.58-1.23-1.26-2.47-2.37-3.25
			c-0.45-0.32-0.95-0.55-1.35-0.93c-0.49-0.46-0.78-1.09-1.07-1.7c-0.92-2.01-2.2-4.11-2.81-6.23c-0.57-1.98-1.5-3.87-2.57-5.63
			c-0.36-0.59-0.74-1.18-0.96-1.84c-0.2-0.6-0.25-1.25-0.29-1.88c-0.12-1.59-0.15-3.18-0.49-4.74c-0.09-0.4-0.19-0.83-0.02-1.21
			c0.26-0.56,0.99-0.72,1.61-0.67s1.26,0.22,1.84,0.02c0.47-0.16,0.82-0.53,1.14-0.91c1.35-1.61,1.68-3.8,3.15-5.24
			c0.13-0.13,0.27-0.26,0.37-0.42c0.35-0.57,0.03-1.28-0.17-1.92c-0.51-1.54-0.27-3.22-0.41-4.79c-0.16-1.77-0.13-3.57-0.04-5.34
			c0.03-0.53,0.06-1.07,0.21-1.59c0.17-0.59,0.47-1.12,0.69-1.69c0.45-1.2,0.47-2.52,0.48-3.8c0.02-2.52,0.05-5.05,0.07-7.57
			c0.01-0.92-0.21-2.56,0.59-3.21c0.59,0.54,0.84,1.37,1.09,2.11c5.26,15.94,11.16,31.8,18.33,46.95c3.17,6.7,6.86,13.15,9.75,19.98
			c1.84,4.36,4.02,8.61,5.25,13.2c0.3,1.13,0.55,2.28,0.7,3.44c0.15,1.12,0.56,2.16,0.84,3.26c0.63,2.42,1.02,4.9,1.16,7.39
			c0.1,1.83,0.14,3.85,1.4,5.18c0.47,0.5,1.07,0.85,1.54,1.35c0.73,0.78,1.06,1.84,1.37,2.86c1.87,6.17,3.79,12.16,4.39,18.61
			c0.08,0.85,0.16,1.7,0.29,2.55c0.56,3.43,2.1,6.5,3.62,9.57c1.51,3.05,1.19,6.59,1.87,9.84c1.04,4.92,4.3,9.03,6.53,13.54
			c1.97,3.98,3.14,8.27,4.38,12.51c1.23,4.21,3.04,8.18,4.31,12.35c1.18,3.88,2.49,7.73,4.11,11.45c0.41,0.95,0.85,1.91,1.06,2.92
			c0.23,1.12,0.33,2.45,0.26,3.6c-0.07,1.02-0.23,1.74,0.69,2.5c0.58,0.48,1.29,0.76,1.88,1.24c0.65,0.53,1.1,1.25,1.49,2
			c3.48,6.66,2.45,14.92,5.62,21.74c0.3,0.65,0.66,1.31,1.26,1.72c0.37,0.26,0.82,0.39,1.25,0.51c4.59,1.23,8.83,0.22,13.42-0.08
			c1.93-0.13,3.73-0.29,5.67-0.64c2.26-0.41,4.51-0.82,6.77-1.23c1.01-0.18,1.99-0.38,2.99-0.63c0.25-0.06,0.5-0.13,0.69-0.3
			s0.28-0.43,0.35-0.68c1.07-3.82-0.67-7.86-0.47-11.82c0.02-0.45,0.07-0.92-0.1-1.34c-0.28-0.7-1.07-1.05-1.81-1.21
			c-1.08-0.23-2.13-0.75-3.21-0.83c-2.95-0.2-5.9-0.41-8.85-0.61c-2.77-0.19-5.55-0.09-8.33-0.21c-1.27-0.05-2.57-0.18-3.71-0.76
			c-0.39-0.2-0.78-0.47-0.93-0.88c-0.17-0.47,0.03-1.02,0.37-1.39s0.81-0.6,1.26-0.82c3.13-1.51,6.34-2.92,9.69-3.84
			s6.88-1.35,10.33-0.89c1.59,0.21,4.51,1.7,5.51-0.06c0.19-0.33,0.38-0.66,0.49-1.03c0.2-0.68,0.11-1.4,0.02-2.1
			c-0.13-0.99-0.26-1.98-0.38-2.97c-0.03-0.26-0.07-0.52-0.22-0.73c-0.11-0.16-0.28-0.28-0.44-0.38c-1.73-1.17-3.45-2.44-5.38-3.25
			c-4.27-1.81-7.39-4.17-10.5-7.65c-1.39-1.55-2.78-3.1-4.17-4.66c-1.74-1.94,0.53-2.12,1.91-2.45c1.56-0.37,2.92-1.16,3.72-2.59
			c0.83-1.49,1.27-3.33,1.74-4.96c0.95-3.34,1.54-6.77,1.89-10.22c0-1.78,0.05-3.7,0.48-5.41c0.06-0.23,0.12-0.48,0.05-0.71
			c-0.08-0.27-0.31-0.46-0.53-0.63c-1.32-1.02-2.72-1.95-4.17-2.78c1.06-0.9,2.13-1.81,3.19-2.71
			c-6.65-10.47-10.09-22.61-15.07-33.97c-0.08-0.18-0.16-0.37-0.3-0.52c-0.21-0.23-0.52-0.33-0.81-0.43
			c-1.4-0.46-3.53-0.73-4.72-1.66c-0.95-0.74-1.03-2.29,0-3.01c0.45-0.32,1-0.47,1.54-0.6c1.32-0.32,2.73-0.6,3.71-1.54
			c-1.05-4.49-3.16-8.65-4.15-13.15c-0.06-0.29-0.13-0.58-0.2-0.87c-1.05-4.35-2.71-8.53-4.09-12.8c-0.19-0.58-0.37-1.16-0.59-1.72
			c-0.16-0.39-0.33-0.79-0.61-1.11c-0.26-0.3-0.59-0.52-0.93-0.72c-1.52-0.89-3.27-1.44-4.89-2.15c-1.77-0.77-3.61-1.47-5.33-2.33
			c-0.22-0.1-0.45-0.2-0.6-0.38c-0.13-0.16-0.19-0.37-0.24-0.57c-0.62-2.48,8.35-7.65,13.62-6.77c-0.65-3.3-1.03-6.94-2.43-10.02
			c-0.1-0.22-0.2-0.44-0.34-0.64c-0.16-0.23-0.36-0.44-0.55-0.64c-0.87-0.89-1.8-1.61-2.54-2.56c-0.84-1.08-1.77-2.09-2.63-3.16
			c-1.66-2.05-3.3-4.13-5.21-5.96c-1.48-1.43-2.66-3.08-4.05-4.63c-1.6-1.79-3.17-3.62-4.49-5.63c-2.04-3.1-2.54-6.85-3.21-10.43
			c-1.22-6.6-2.39-13.22-3.75-19.79c-2.1-10.16-4.92-20-8.35-29.79c-0.11-0.32-0.23-0.65-0.45-0.91c-0.23-0.27-0.56-0.43-0.88-0.59
			c-3.7-1.81-7.4-3.62-11.11-5.42c-2.95-1.44-5.93-2.88-9.11-3.68c-0.42-2.53-0.89-5.17-2.43-7.22c4.47,0.1,8.93,0.54,13.34,1.31
			c0.93,0.16,1.89,0.34,2.82,0.14s1.82-0.89,1.94-1.83c0.1-0.74-0.29-1.45-0.67-2.1c-3.55-6.06-7.68-11.77-12.33-17.04
			c-0.35-0.4-0.78-0.83-0.99-1.33c-0.28-0.68-0.16-0.69,0.53-0.63c1.16,0.09,2.34,0.34,3.48,0.59c-0.49-0.98-0.69-2.11-0.57-3.2
			c0.03-0.28,0.09-0.57,0.26-0.79c0.28-0.36,0.79-0.45,1.25-0.47c1.49-0.07,3,0.23,4.34,0.86c-0.68-4.62,0.83-9.27,2.63-13.58
			c0.71-1.71,1.51-3.45,2.91-4.66c1.18-1.02,2.73-1.6,4.29-1.58c0.71,0.01,1.43,0.13,2.14,0.08c0.71-0.05,1.46-0.33,1.84-0.93
			c0.16-0.25,0.25-0.54,0.33-0.83c0.16-0.61,0.28-1.23,0.35-1.85c0.04-0.35,0.07-0.72-0.1-1.03c-0.3-0.57-1.05-0.68-1.69-0.72
			c-3.62-0.23-7.24-0.47-10.86-0.7c-1.55-0.1-3-0.14-4.48-0.59c-1.52-0.46-3.4-0.19-4.97-0.14c-13,0.37-26.02,0.3-39.02-0.21
			c-1.58-0.06-3.26-0.11-4.77,0.44c-0.42,0.15-1.6,0.52-1.03,1.12c0.41,0.43,1.46-0.06,2.01,0.23c0.46,0.25,0.61,0.83,0.71,1.35
			c0.74,4.17,0.77,8.43,0.8,12.67c0.03,4.46,0.05,8.91,0.08,13.37c0.01,2.12,0.02,4.25-0.37,6.34c-0.39,2.08-1.22,4.14-2.68,5.67
			c-1.05,1.11-2.39,1.9-3.77,2.55c-0.52,0.25-1.1,0.52-1.36,1.03c-0.66,1.3,0.53,3.7,1.16,4.84c0.9,1.62,2.14,3.03,3.41,4.36
			c2.2,2.31,4.6,4.61,5.59,7.64c-2.18-0.82-3.99-2.39-5.62-4.05c-1.37-1.4-2.62-2.94-4.1-4.24c-0.62-0.54-1.32-0.84-1.93-1.41
			c-0.78-0.73-1.52-1.49-2.26-2.26c-1.37-1.42-2.32-3.18-3.62-4.68c-0.41-0.47-0.84-0.94-1.16-1.48c-0.3-0.5-0.5-1.05-0.69-1.6
			c-0.82-2.3-1.64-4.61-2.05-7.02c-0.39-2.28-1.02-4.57-1.02-6.9c-0.1-0.68-0.2-1.37-0.3-2.05c-0.46-3.16-0.92-6.33-1.04-9.53
			c-0.04-1.16-0.04-2.31-0.08-3.47c-0.11-3.59-0.59-7.15-1.06-10.71c-0.02-0.11-0.03-0.23-0.11-0.32c-0.1-0.12-0.27-0.14-0.43-0.16
			c-2.21-0.18-4.43,0.56-6.59,1c-1.25,0.25-2.5,0.51-3.75,0.76c-1.48,0.3-2.96,0.6-4.42,0.96c-2.77,0.68-5.49,1.59-8.15,2.62
			c-1.28,0.5-2.56,1.17-3.89,1.53c-1.29,0.35-2.58,0.56-3.81,1.15c-2.64,1.27-4.59,3.86-5.09,6.74c-0.4,2.3,0.08,4.62,0.08,6.94
			c0,1.16-0.19,2.13-0.52,3.21c-0.33,1.1-0.25,1.18,0.39,2.23c0.13,0.21,0.14,0.46,0.15,0.71c0.11,2.63-0.5,5.14-0.97,7.72
			c-0.1,0.53-0.2,1.07-0.15,1.6c0.05,0.64,0.3,1.24,0.53,1.85c0.46,1.2,0.83,2.43,1.13,3.69c0.47,1.98,0.77,4.1,0.7,6.14
			c-0.07,2.09,0.79,3.79,0.9,5.83c0.06,1.27-0.44,2.5-0.64,3.76c-0.41,2.59,0.51,5.12,1.26,7.55c1.16,3.73,1.71,7.38,2.58,11.14
			c1.45,6.29,2.35,13.11,4.65,19.14c0.82,2.17,1.86,4.25,2.67,6.43c1.39,3.76,1.28,7.12,1.67,11.03c0.42,4.17,1.04,8.33,2.08,12.4
			c0.48,1.9,1.05,3.78,1.42,5.71c0.35,1.81,0.52,3.66,0.69,5.5c0.71,7.79,1.43,15.58,2.14,23.38c0.42,4.63,1.01,9.2,2.66,13.57
			c0.76,2.02,1.16,3.72,1.15,5.91c-0.01,2.15-0.21,4.35,0.39,6.44c0.54,1.88,1.71,3.5,2.63,5.23c0.81,1.51,1.81,3.73,1.04,5.4
			c-0.38,0.82-0.89,1.22-0.96,2.24c-0.07,1.06,0.28,2.13,0.6,3.13c0.41,1.3,0.75,2.66,1.31,3.9c0.52,1.14,0.62,2.36,0.9,3.6
			c0.64,2.87,1.56,5.67,2.03,8.57c0.16,0.97,0.26,1.95,0.37,2.92c0.39,2.32,0.51,4.72,0.77,7.05c0.23,2.11,0.74,4.18,0.87,6.28
			c0.3,4.89,0.55,9.79,0.63,14.7c0.03,2,0.04,4,0.1,6c0.06,2.01,0.19,4.01,0.38,6.01c0.1,1.04,0.21,2.08,0.34,3.11
			c0.11,0.89,0.08,1.89,0.55,2.66c0.5,0.83,1.08,1.62,1.71,2.35c0.33,0.38,0.68,0.76,0.94,1.19c0.27,0.45,0.43,0.96,0.57,1.47
			c0.38,1.37,0.62,2.78,0.7,4.2c0.03,0.57,0.04,1.15-0.14,1.68c-0.4,1.16-1.6,1.9-1.98,3.06c-0.36,1.09,0.07,1.95,0.42,2.94
			c0.75,2.09,1.48,4.19,2.21,6.28c0.66,1.86,1.4,3.81,1.66,5.78c0.13,0.98,0.15,1.98,0.47,2.91c0.35,0.99,1.03,1.83,1.5,2.78
			c1.05,2.1,1.01,4.54,1.06,6.89c0.06,2.68,0.26,5.36,0.62,8.02c0.08,0.62,0.18,1.25,0.45,1.82c0.62,1.3,2.05,2.01,3.42,2.46
			c4.5,1.48,9.3,1.25,13.95,0.85c2.14-0.19,4.25-0.51,6.37-0.29c3.34,0.34,7.11,0.01,10.2-1.41c1.73-0.8,3.28-2.17,3.85-3.98
			C417.44,698.17,417.45,698.11,417.46,698.05z"/>
		<path class="st5" d="M372.69,396.31c0,0,4.08,2.82,4.09,2.77c0.01-0.05,5.1-1.32,5.1-1.32l2.5-4.48l-0.08-3.9
			c-0.22-0.49-0.44-0.98-0.66-1.48c-0.17-0.38-0.31-0.81-0.51-1.17c-0.26-0.45-0.71-0.85-1.05-1.25c-0.03-0.04-0.07-0.08-0.07-0.13
			c-0.02-0.14,0.17-0.2,0.3-0.21c1.5-0.1,3.02,0,4.5,0.3c0.43,0.09,0.92,0.23,0.96,0.7c0.01,0.16-0.03,0.35-0.02,0.52
			c0.01,0.28,0.02,0.56,0.03,0.84c0.03,0.84,0.07,1.68,0.1,2.52c0.1,2.45,0.2,4.91,0.3,7.36c0.11,2.79,0.23,5.57,0.34,8.36
			c0.09,2.29,0.19,4.57,0.28,6.86c0.04,0.91,0.21,1.94,0.1,2.86c-0.02,0.21-0.54,1.5-0.54,1.5l-5.39,1.69l-4.11,0.72h-2.19
			c0,0-0.98-1.62-1.03-1.88c-0.05-0.27-0.82-4.51-0.82-4.51l2.61,1.64l3.49,0.3l2.7-1.79l1.38-3.56l-0.46-4.73l-3.74-2.64h-3.37
			l-2.1,2.06l-1.14,2.47l-1.2-6.48L372.69,396.31z"/>
	</g>
	<g>
		
			<linearGradient id="SVGID_1_" gradientUnits="userSpaceOnUse" x1="339.2316" y1="229.5983" x2="518.5951" y2="273.2513" gradientTransform="matrix(1 0 0 -1 0 800)">
			<stop  offset="0" style="stop-color:#242B35"/>
			<stop  offset="0.1419" style="stop-color:#232E39;stop-opacity:0.8581"/>
			<stop  offset="0.2957" style="stop-color:#203746;stop-opacity:0.7043"/>
			<stop  offset="0.455" style="stop-color:#1C455C;stop-opacity:0.545"/>
			<stop  offset="0.6182" style="stop-color:#15597A;stop-opacity:0.3818"/>
			<stop  offset="0.7843" style="stop-color:#0D73A1;stop-opacity:0.2157"/>
			<stop  offset="0.9506" style="stop-color:#0392D1;stop-opacity:0.0494"/>
			<stop  offset="1" style="stop-color:#009CE0;stop-opacity:0"/>
		</linearGradient>
		<path class="st6" d="M525.15,705.84c0.4-1.39,0.48-3.01,0.61-4.46c0.15-1.63,0.2-3.28,0.16-4.91c-0.02-0.66-0.06-1.34-0.26-1.97
			c-0.21-0.63-0.6-1.22-1.19-1.53c-0.94-0.5-1.69-1.03-2.77-1.31c-0.65-0.17-1.33-0.22-2.01-0.26c-2.95-0.2-5.9-0.41-8.85-0.61
			c-2.77-0.19-5.55-0.09-8.33-0.21c-1.27-0.05-2.57-0.18-3.71-0.76c-0.39-0.2-0.78-0.47-0.93-0.88c-0.17-0.47,0.03-1.02,0.37-1.39
			s0.81-0.6,1.26-0.82c3.13-1.51,6.34-2.92,9.69-3.84c3.36-0.92,6.88-1.35,10.33-0.89c1.06,0.14,2.18,0.32,3.19,0.67
			c0.83,0.29,1.62,0.94,1.69-0.38c0.06-1.02,0.54-1.98,1.18-2.77c0.54-0.67,1.24-1.32,1.35-2.18c0.05-0.39-0.03-0.79-0.16-1.16
			c-0.21-0.62-0.55-1.22-1.07-1.63c-0.3-0.23-0.64-0.39-0.98-0.54c-1.86-0.86-3.7-1.75-5.59-2.54c-1.57-0.66-3.19-1.22-4.71-1.99
			c-1.71-0.87-2.7-2.18-3.94-3.55c-1.44-1.59-2.88-3.18-4.32-4.77c-0.71-0.78-1.43-1.6-1.72-2.61c-0.1-0.36-0.14-0.75-0.01-1.1
			c0.33-0.89,2.33-0.76,3.16-1.11c1.06-0.45,1.93-1.2,2.5-2.21c0.83-1.49,1.27-3.33,1.74-4.96c0.95-3.34,1.54-6.77,1.89-10.22
			c0-1.78,0.05-3.7,0.48-5.41c0.06-0.23,0.12-0.48,0.05-0.71c-0.08-0.27-0.31-0.46-0.53-0.63c-1.32-1.02-2.72-1.95-4.17-2.78
			c1.06-0.9,2.13-1.81,3.19-2.71c-6.65-10.47-10.09-22.61-15.07-33.97c-0.08-0.18-0.16-0.37-0.3-0.52
			c-0.21-0.23-0.52-0.33-0.81-0.43c-1.4-0.46-3.53-0.73-4.72-1.66c-0.95-0.74-1.03-2.29,0-3.01c0.45-0.32,1-0.47,1.54-0.6
			c1.32-0.32,2.73-0.6,3.71-1.54c-1.05-4.49-3.16-8.65-4.15-13.15c-0.06-0.29-0.13-0.58-0.2-0.87c-1.05-4.35-2.71-8.53-4.09-12.8
			c-0.19-0.58-0.37-1.16-0.59-1.72c-0.16-0.39-0.33-0.79-0.61-1.11c-0.26-0.3-0.59-0.52-0.93-0.72c-1.52-0.89-3.27-1.44-4.89-2.15
			c-1.77-0.77-3.61-1.47-5.33-2.33c-0.22-0.1-0.45-0.2-0.6-0.38c-0.13-0.16-0.19-0.37-0.24-0.57c-0.62-2.48,8.35-7.65,13.62-6.77
			c-0.65-3.3-1.03-6.94-2.43-10.02c-0.1-0.22-0.2-0.44-0.34-0.64c-0.16-0.23-0.36-0.44-0.55-0.64c-0.87-0.89-1.8-1.61-2.54-2.56
			c-0.84-1.08-1.77-2.09-2.63-3.16c-1.66-2.05-3.3-4.13-5.21-5.96c-1.48-1.43-2.66-3.08-4.05-4.63c-1.6-1.79-3.17-3.62-4.49-5.63
			c-2.04-3.1-2.54-6.85-3.21-10.43c-1.22-6.6-2.39-13.22-3.75-19.79c-2.1-10.16-4.92-20-8.35-29.79c-0.11-0.32-0.23-0.65-0.45-0.91
			c-0.23-0.27-0.56-0.43-0.88-0.59c-3.7-1.81-7.4-3.62-11.11-5.42c-2.95-1.44-5.93-2.88-9.11-3.68c-0.42-2.53-0.89-5.17-2.43-7.22
			c4.47,0.1,8.93,0.54,13.34,1.31c0.93,0.16,1.89,0.34,2.82,0.14c0.93-0.2,1.82-0.89,1.94-1.83c0.1-0.74-0.29-1.45-0.67-2.1
			c-3.55-6.06-7.68-11.77-12.33-17.04c-0.35-0.4-0.78-0.83-0.99-1.33c-0.28-0.68-0.16-0.69,0.53-0.63c1.16,0.09,2.34,0.34,3.48,0.59
			c-0.49-0.98-0.69-2.11-0.57-3.2c0.03-0.28,0.09-0.57,0.26-0.79c0.28-0.36,0.79-0.45,1.25-0.47c1.49-0.07,3,0.23,4.34,0.86
			c-0.68-4.62,0.83-9.27,2.63-13.58c0.71-1.71,1.51-3.45,2.91-4.66c1.18-1.02,2.73-1.6,4.29-1.58c0.71,0.01,1.43,0.13,2.14,0.08
			c0.71-0.05,1.46-0.33,1.84-0.93c0.16-0.25,0.25-0.54,0.33-0.83c0.16-0.61,0.28-1.23,0.35-1.85c0.04-0.35,0.07-0.72-0.1-1.03
			c-0.3-0.57-1.05-0.68-1.69-0.72c-3.62-0.23-7.24-0.47-10.86-0.7c-1.55-0.1-3-0.14-4.48-0.59c-1.52-0.46-3.4-0.19-4.97-0.14
			c-13,0.37-26.02,0.3-39.02-0.21c-1.58-0.06-3.26-0.11-4.77,0.44c-0.42,0.15-1.6,0.52-1.03,1.12c0.41,0.43,1.46-0.06,2.01,0.23
			c0.46,0.25,0.61,0.83,0.71,1.35c0.74,4.17,0.77,8.43,0.8,12.67c0.03,4.46,0.05,8.91,0.08,13.37c0.01,2.12,0.02,4.25-0.37,6.34
			c-0.39,2.08-1.22,4.14-2.68,5.67c-1.05,1.11-2.39,1.9-3.77,2.55c-0.52,0.25-1.1,0.51-1.36,1.03c-0.66,1.3,0.53,3.7,1.16,4.84
			c0.9,1.62,2.14,3.03,3.41,4.36c2.2,2.31,4.6,4.61,5.59,7.64c-2.18-0.82-3.99-2.39-5.62-4.05c-1.37-1.4-2.62-2.94-4.1-4.24
			c-0.62-0.54-1.32-0.84-1.93-1.41c-0.78-0.73-1.52-1.49-2.26-2.26c-1.37-1.42-2.32-3.18-3.62-4.68c-0.41-0.47-0.84-0.94-1.16-1.48
			c-0.3-0.5-0.5-1.05-0.69-1.6c-0.82-2.3-1.64-4.61-2.05-7.02c-0.39-2.28-1.02-4.57-1.02-6.9l-0.3-2.05
			c-0.46-3.16-0.92-6.33-1.04-9.53c-0.04-1.16-0.04-2.31-0.08-3.47c-0.11-3.59-0.59-7.15-1.06-10.71c-0.02-0.11-0.03-0.23-0.11-0.32
			c-0.1-0.12-0.27-0.14-0.43-0.16c-2.21-0.18-4.43,0.56-6.59,1c-1.25,0.25-2.5,0.51-3.75,0.76c-1.48,0.3-2.96,0.6-4.42,0.96
			c-5.18,1.28-9.86,3.75-14.94,5.26c-1.6,0.48-3.24,1.13-4.32,2.4c-0.84,0.98-1.27,2.25-1.47,3.52s-0.18,2.56-0.22,3.85
			c-0.09,2.72-0.98,5.67-0.49,8.36c0.12,0.65,0.51,1.22,0.62,1.88c0.13,0.77-0.03,1.57-0.16,2.33c-0.32,1.83-0.55,3.68-0.69,5.53
			c-0.07,0.97-0.11,1.96,0.11,2.91c0.24,1.07,0.8,2.03,1.21,3.04c0.7,1.75,0.92,3.64,0.91,5.51c0,0.9,0.06,1.96-0.15,2.84
			c-0.18,0.75-0.58,1.21-0.29,2.05c0.2,0.6,0.58,1.13,0.78,1.74c0.51,1.54-0.18,3.21-0.19,4.83c-0.01,0.88,0.19,1.75,0.39,2.62
			c1.66,6.64,3.06,13.35,4.59,20.01c0.77,3.34,1.53,6.67,2.3,10.01c0.37,1.6,0.54,3.45,1.15,4.97c0.48,1.21,1.22,2.35,1.73,3.58
			c0.43,1.04,0.86,2.08,1.16,3.16c0.41,1.45,0.59,2.96,0.77,4.45c0.34,2.81,0.35,5.71,1.01,8.43c0.76,3.13,1.45,6.28,2.06,9.44
			c1.23,6.32,2.16,12.71,2.78,19.12c0.61,6.21,0.93,12.44,1.36,18.67c0.15,2.15,0.41,4.29,0.92,6.39c0.64,2.61,2.08,4.92,2.47,7.61
			c0.19,1.3,0.16,2.62,0.04,3.93c-0.23,2.64-0.2,4.98,1.08,7.41c1.07,2.03,2.79,3.82,3.08,6.09c0.27,2.1-0.86,4.01-0.7,6.11
			c0.06,0.82,0.27,1.62,0.47,2.42c0.87,3.4,1.74,6.81,2.61,10.21c0.61,2.38,1.22,4.76,1.57,7.19c0.33,2.26,0.44,4.56,0.91,6.81
			c0.21,1,0.64,1.97,0.82,2.96c0.22,1.25,0.17,2.63,0.25,3.9c0.32,5.12,0.59,10.25,0.67,15.39c0.03,2,0.04,4,0.1,6.01
			s0.19,4.01,0.38,6.01c0.1,1.04,0.21,2.08,0.34,3.11c0.11,0.89,0.08,1.89,0.55,2.66c0.51,0.83,1.08,1.62,1.71,2.35
			c0.33,0.38,0.68,0.76,0.94,1.19c0.27,0.45,0.43,0.96,0.57,1.47c0.38,1.37,0.62,2.78,0.7,4.2c0.03,0.57,0.04,1.15-0.14,1.68
			c-0.4,1.16-1.6,1.9-1.98,3.06c-0.36,1.09,0.07,1.95,0.42,2.94c0.96,2.72,1.92,5.44,2.88,8.16c0.98,2.77,0.02,6.09,1.96,8.51
			c0.28,0.35,0.6,0.66,0.81,1.05c0.3,0.54,0.37,1.18,0.43,1.79c0.39,3.78,0.77,7.55,1.16,11.33c0.15,1.5,0.34,3.09,1.28,4.27
			c1.02,1.28,2.71,1.8,4.31,2.17c1.62,0.37,3.27,0.66,4.92,0.86c1.77,0.21,3.48-0.06,5.25-0.09c1.07-0.01,2.13,0.12,3.2,0.19
			c2.62,0.17,5.15-0.15,7.71-0.69c2.32-0.49,4.77-0.26,7.1-0.92c1.41-0.4,2.81-1.05,3.76-2.18s1.31-2.82,0.6-4.1
			c-0.59-0.12-1.09,0.42-1.46,0.9c-0.47,0.62-0.94,1.25-1.42,1.87c-0.3,0.4-0.61,0.81-1.03,1.08c-0.42,0.28-0.97,0.4-1.43,0.19
			c-0.33-0.15-0.56-0.45-0.74-0.76c-0.46-0.78-0.7-1.7-0.66-2.61c0.02-0.52,0.22-1.13,0.72-1.26c0.68-0.17,1.67,0.26,1.31-0.86
			c-0.18-0.55-1.34-1.24-1.77-1.62c-3.77-3.43-8.02-8.52-9.28-13.58c0.86-0.38,2.03,0.81,2.76,1.23c3.86,2.23,7.72,4.47,11.58,6.7
			c1.1-3.26,1.11-6.54,1.55-9.91c0.45-3.41,1.14-6.97-0.06-10.3c-0.9-2.52-2.8-4.57-3.78-7.06c-0.31-0.79-0.52-1.68-0.25-2.48
			c0.24-0.71,0.9-1.17,1.64-1.17c0.19,0,1.48,0.69,1.56,0.39c0.58-2.09-2.41-40.68-3.62-43.28c-0.5-1.07-1.35-1.94-2.19-2.78
			c-2.51-2.52-5.03-5.06-7.99-7.03c-1.44-0.96-3.07-1.87-3.8-3.44c-0.46-0.98-0.5-2.1-0.75-3.15s6.6,0.53,10.5,2.73
			c1.04,0.59,2.19,1.23,3.36,0.99c-0.71-4.39-1.16-8.83-1.35-13.27c-0.98-0.61-2.68-1.27-3.4-2.15c-0.51-0.62-0.36-1.47-0.58-2.23
			c-0.59-2.12-2.28-3.8-3.85-5.25c-0.96-0.89-2-1.88-2.15-3.19c-0.3-2.65,1.91-5.21,0.3-7.83c-0.7-1.14-1.95-1.79-3.09-2.48
			c-2.35-1.42-4.46-3.2-6.56-4.96c-0.11-0.09-0.23-0.2-0.25-0.34c-0.04-0.22,0.17-0.41,0.35-0.54c2.5-1.81,5.04-3.55,7.61-5.25
			c0.17-0.11,0.35-0.22,0.54-0.21c0.23,0.01,0.41,0.19,0.58,0.35c3.92,3.9,8.72,6.91,13.94,8.74c0.56,0.2,1.25,0.36,1.69-0.05
			c0.2-0.18,0.29-0.45,0.38-0.7c0.25-0.69,0.49-1.39,0.74-2.08c0.26-0.74,0.53-1.5,0.46-2.28c-0.06-0.73-0.41-1.41-0.57-2.13
			c-0.17-0.77-0.11-1.58-0.26-2.35c-0.2-0.99-0.73-1.87-0.98-2.84c-0.22-0.86-0.06-1.64-0.13-2.5c-0.16-1.86-1.05-3.77-1.84-5.44
			c-0.58-1.23-1.26-2.47-2.37-3.25c-0.45-0.32-0.95-0.55-1.35-0.93c-0.49-0.46-0.78-1.09-1.07-1.7c-1.11-2.41-2.21-4.82-3.32-7.23
			c-0.95-2.08-2.28-4.04-3.12-6.13c-0.14-0.36-0.27-0.73-0.31-1.12c-0.03-0.29,0-0.57,0.02-0.86c0.11-1.67-0.02-3.35-0.38-4.99
			c-0.09-0.4-0.19-0.83-0.02-1.21c0.26-0.56,0.99-0.72,1.61-0.67s1.26,0.22,1.84,0.02c0.47-0.16,0.82-0.53,1.14-0.91
			c1.35-1.61,1.68-3.8,3.15-5.24c0.13-0.13,0.27-0.26,0.37-0.42c0.35-0.57,0.03-1.28-0.17-1.92c-0.51-1.54-0.27-3.22-0.41-4.79
			c-0.16-1.77-0.13-3.57-0.04-5.34c0.03-0.53,0.06-1.07,0.21-1.59c0.17-0.59,0.47-1.12,0.69-1.69c0.45-1.2,0.47-2.52,0.48-3.8
			c0.02-2.52,0.05-5.05,0.07-7.57c0.01-1.1-0.09-2.15,0.43-3.13c0.45,0.53,0.78,1.15,1.09,1.76c4.82,9.51,6.68,20.25,10.96,30.02
			c1.21,2.76,2.38,5.56,3.61,8.3c1.26,2.79,2.18,5.76,3.52,8.54c1.39,2.87,3.12,5.56,4.7,8.33c1.8,3.16,3.39,6.42,4.78,9.78
			c1.92,4.66,3.36,9.52,5.03,14.28c0.46,1.32,0.92,2.64,1.28,3.99c0.21,0.79,0.28,1.61,0.49,2.39c0.21,0.77,0.63,1.3,0.69,2.12
			c0.24,3.24,0.66,6.46,1.26,9.65c0.38,2,1.54,2.26,2.81,3.61c0.73,0.78,1.06,1.84,1.37,2.86c1.87,6.17,3.79,12.16,4.39,18.61
			c0.08,0.85,0.16,1.7,0.29,2.55c0.86,5.26,4.55,9.53,4.97,14.83c0.33,4.22,1.91,8.23,3.75,12.04s3.96,7.49,5.51,11.42
			c1.71,4.35,2.67,8.93,4.05,13.38c0.64,2.08,1.69,4.05,2.31,6.1c0.72,2.38,1.42,4.77,2.22,7.12c0.36,1.06,0.73,2.12,1.26,3.11
			c0.39,0.74,0.87,1.45,1.21,2.22c0.6,1.37,0.57,2.89,0.61,4.35c0.03,1.11-0.19,2.98,0.83,3.7c0.54,0.38,1.2,0.54,1.75,0.88
			c1.13,0.7,1.65,2.06,2.07,3.32c1.7,5.12,2.99,10.39,3.84,15.72c0.21,1.35,0.4,2.71,0.85,4c0.36,1.05,0.93,2.09,1.85,2.71
			c0.56,0.38,1.23,0.59,1.88,0.76c6.3,1.65,12.71,0.12,18.96-0.96c2.51-0.43,5.04-0.84,7.54-1.3
			C523.98,707.83,524.78,707.06,525.15,705.84z M348.63,404.71c-0.33,1.45-0.64,2.94-1.05,4.36c-0.17,0.58-0.35,1.19-0.75,1.64
			c-0.48,0.55-1.21,0.81-1.91,1.04c-3.15,1.05-6.3,2.08-9.47,3.07c-0.14,0.04-0.3,0.08-0.41,0c-0.15-0.1-0.13-0.32-0.1-0.49
			c0.08-0.46,0.16-0.92,0.24-1.38c0.03-0.15,0.05-0.31,0.14-0.43c0.13-0.19,0.37-0.27,0.59-0.34c1.41-0.44,2.87-0.81,4.26-1.32
			c1.24-0.46,2.42-1.04,3.68-1.43c0.56-0.4,1.03-0.9,1.32-1.57c0.42-0.95,0.45-1.96,0.74-2.94c0.3-1.03,0.71-1.95,0.82-3.05
			c0.05-0.48,0.09-1.02,0.46-1.32c0.42-0.35,1.04-0.22,1.57-0.07c0.08,0.02,0.17,0.05,0.23,0.12s0.07,0.17,0.08,0.26
			C349.2,402.17,348.96,403.42,348.63,404.71z"/>
		
			<linearGradient id="SVGID_00000080185017563491125830000005962998682918724998_" gradientUnits="userSpaceOnUse" x1="230.0386" y1="363.0309" x2="447.1443" y2="412.8983" gradientTransform="matrix(1 0 0 -1 0 800)">
			<stop  offset="0" style="stop-color:#242B35"/>
			<stop  offset="0.1419" style="stop-color:#232E39;stop-opacity:0.8581"/>
			<stop  offset="0.2957" style="stop-color:#203746;stop-opacity:0.7043"/>
			<stop  offset="0.455" style="stop-color:#1C455C;stop-opacity:0.545"/>
			<stop  offset="0.6182" style="stop-color:#15597A;stop-opacity:0.3818"/>
			<stop  offset="0.7843" style="stop-color:#0D73A1;stop-opacity:0.2157"/>
			<stop  offset="0.9506" style="stop-color:#0392D1;stop-opacity:0.0494"/>
			<stop  offset="1" style="stop-color:#009CE0;stop-opacity:0"/>
		</linearGradient>
		<path style="fill:url(#SVGID_00000080185017563491125830000005962998682918724998_);" d="M372.69,396.31c0,0,4.08,2.82,4.09,2.77
			c0.01-0.05,5.1-1.32,5.1-1.32l2.5-4.48l-0.08-3.9l-1.63-3.64l-0.78-0.47l5.02,0.47l0.81,0.3c0,0,1.22,29.22,1.19,29.43
			s-0.54,1.5-0.54,1.5l-5.39,1.69l-4.11,0.72h-2.19c0,0-0.98-1.62-1.03-1.88c-0.05-0.27-0.82-4.51-0.82-4.51l2.61,1.64l3.49,0.3
			l2.7-1.79l1.38-3.56l-0.46-4.73l-3.74-2.64h-3.37l-2.1,2.06l-1.14,2.47l-1.2-6.48L372.69,396.31z"/>
	</g>
	<g>
		
			<linearGradient id="SVGID_00000136376409043981749080000013223926929115679139_" gradientUnits="userSpaceOnUse" x1="346.0276" y1="390.9598" x2="333.9785" y2="399.2757" gradientTransform="matrix(1 0 0 -1 0 800)">
			<stop  offset="0" style="stop-color:#2580C1"/>
			<stop  offset="0" style="stop-color:#2580C1;stop-opacity:0"/>
			<stop  offset="0" style="stop-color:#000000"/>
			<stop  offset="1" style="stop-color:#2580C1;stop-opacity:0"/>
		</linearGradient>
		<path style="fill:url(#SVGID_00000136376409043981749080000013223926929115679139_);" d="M347.15,400.04
			c0.07-0.35-0.06-0.72-0.49-0.78c-0.06-0.01-0.13-0.01-0.19-0.02l0,0c-0.01,0-0.01,0-0.02,0c-1.82-0.24-3.72-0.41-5.54-0.09
			c-1.96,0.35-3.2,1.52-4.33,3.08c-1.09,1.51-2.13,3.08-2.42,4.95c-0.12,0.81-0.14,1.77,0.25,2.52c0.21,0.4,0.52,0.59,0.56,1.07
			c0.03,0.4,0.07,0.76,0.31,1.1c0.17,0.23,0.38,0.32,0.66,0.27c1.62-0.29,3.22-0.74,4.79-1.22c1.34-0.41,3.06-0.74,4.02-1.84
			c0.97-1.1,1.19-2.69,1.43-4.08c0.1-0.58,0.2-1.15,0.32-1.72c0.43-0.92,0.67-1.87,0.74-2.9
			C347.24,400.25,347.2,400.14,347.15,400.04z"/>
		
			<linearGradient id="SVGID_00000010271290869803029730000017008253435559922336_" gradientUnits="userSpaceOnUse" x1="443.1559" y1="389.5645" x2="452.5405" y2="410.9378" gradientTransform="matrix(1 0 0 -1 0 800)">
			<stop  offset="0" style="stop-color:#2580C1"/>
			<stop  offset="0" style="stop-color:#2580C1;stop-opacity:0"/>
			<stop  offset="0" style="stop-color:#000000"/>
			<stop  offset="1" style="stop-color:#2580C1;stop-opacity:0"/>
		</linearGradient>
		<path style="fill:url(#SVGID_00000010271290869803029730000017008253435559922336_);" d="M468.15,403.03
			c0.07-0.43,0.14-0.86,0.21-1.3c0.03-0.21,0.07-0.43-0.02-0.63c-0.07-0.16-0.22-0.28-0.32-0.43c-0.48-0.62-0.23-1.51,0.1-2.22
			c0.61-1.32,0.75-2.17-0.28-3.25c-0.75-0.8-1.68-1.41-2.64-1.93c-1.86-1.01-3.89-1.7-5.93-2.22c-3.81-0.98-7.71-1.58-11.62-2.03
			c-1.97-0.23-3.94-0.41-5.92-0.6c-0.99-0.09-1.98-0.18-2.97-0.28c-0.83-0.08-1.61-0.16-2.13,0.64c-0.05,0.08-0.1,0.17-0.14,0.25
			c-0.21,0.45-0.28,0.96-0.51,1.4c-0.34,0.66-0.97,1.1-1.54,1.57c-1.63,1.38-2.8,3.26-4.51,4.54c-0.18,0.14-0.38,0.27-0.6,0.3
			c-0.22,0.04-0.45-0.02-0.66-0.09c-0.75-0.21-1.49-0.42-2.24-0.63c0.98,1.54,1.95,3.08,2.93,4.62c0.5,0.79,1,1.58,1.5,2.36
			c0.41,0.64,0.75,1.44,1.51,1.72c1.64,0.6,3.57,0.79,5.27,1.18c7.8,1.8,15.55,3.82,23.24,6.07c0.6,0.18,1.23,0.36,1.85,0.23
			c0.75-0.15,1.33-0.71,1.87-1.25c0.55-0.55,1.09-1.1,1.63-1.65c0.3-0.31,0.61-0.62,0.82-1c0.25-0.45,0.34-0.97,0.43-1.48
			C467.71,405.65,467.93,404.34,468.15,403.03z"/>
		
			<linearGradient id="SVGID_00000015315860082717034240000005575315643091125636_" gradientUnits="userSpaceOnUse" x1="375.7347" y1="400.3581" x2="378.1925" y2="408.8067" gradientTransform="matrix(1 0 0 -1 0 800)">
			<stop  offset="0" style="stop-color:#2580C1"/>
			<stop  offset="0" style="stop-color:#2580C1;stop-opacity:0"/>
			<stop  offset="0" style="stop-color:#000000"/>
			<stop  offset="1" style="stop-color:#FF8D3F;stop-opacity:0"/>
		</linearGradient>
		<path style="fill:url(#SVGID_00000015315860082717034240000005575315643091125636_);" d="M384.21,393.57
			c0.13-0.65,0.19-1.32,0.2-1.99c0-0.23-0.01-0.47-0.13-0.66c-0.24-0.35-0.74-0.35-1.17-0.31c-0.23,0.02-0.47,0.04-0.7,0.06
			c-0.06,0.01-0.12,0.01-0.16,0.05c-0.08,0.06-0.08,0.17-0.08,0.27c-0.01,0.63-0.27,1.22-0.52,1.79c-0.06,0.14-0.13,0.29-0.27,0.36
			c-0.17,0.09-0.37,0.01-0.56,0.03c-0.54,0.05-0.73,0.76-1.19,1.04c-0.47,0.28-1.08,0.04-1.55-0.24c-0.54-0.32-1.04-0.69-1.54-1.06
			c-0.32-0.24-0.65-0.49-0.82-0.85c-0.1-0.21-0.13-0.45-0.15-0.68c-0.14-1.75,0.42-3.48,1.06-5.12c-0.34-0.42-0.5-0.97-0.46-1.51
			c-2.15,0.9-3.81,2.88-4.33,5.15c-0.31,1.33-0.22,2.74,0.22,4.04c0.22,0.66,0.53,1.29,0.93,1.86c0.36,0.53,0.6,1.12,1.06,1.57
			c1.11,1.09,2.6,2.13,4.27,1.61c0.23-0.07,0.44-0.19,0.63-0.34c0.05,0.02,0.1,0.04,0.15,0.05c1.35,0.3,2.86-0.88,3.66-1.87
			C383.52,395.85,383.97,394.74,384.21,393.57z"/>
		
			<linearGradient id="SVGID_00000058571951705898087230000009009201321482441883_" gradientUnits="userSpaceOnUse" x1="377.7236" y1="385.0541" x2="380.2948" y2="393.8924" gradientTransform="matrix(1 0 0 -1 0 800)">
			<stop  offset="0" style="stop-color:#2580C1"/>
			<stop  offset="0" style="stop-color:#2580C1;stop-opacity:0"/>
			<stop  offset="0" style="stop-color:#000000"/>
			<stop  offset="1" style="stop-color:#FF8D3F;stop-opacity:0"/>
		</linearGradient>
		<path style="fill:url(#SVGID_00000058571951705898087230000009009201321482441883_);" d="M376.04,413.81
			c1.19,0.94,3.31,2.1,4.85,1.31c1.45-0.75,2.75-2.23,3.55-3.63c0.34-0.6,0.62-1.25,0.67-1.93c0.03-0.47-0.09-1.01-0.5-1.23
			c-0.3-0.16-0.67-0.1-1-0.04c-0.26,0.05-0.51,0.1-0.77,0.15c-0.1,0.02-0.21,0.04-0.26,0.13c-0.05,0.08-0.03,0.19-0.01,0.29
			c0.09,0.42,0.04,0.87-0.13,1.26c-0.03,0.07-0.07,0.15-0.13,0.19c-0.08,0.05-0.19,0.05-0.29,0.04c-0.71-0.05-1.41-0.13-2.11-0.23
			c-0.21-0.03-0.43-0.07-0.61-0.19s-0.3-0.31-0.39-0.51c-0.48-1.04-0.31-2.32-0.94-3.27c-0.59-0.88-2.02-1.73-2.97-0.95
			c-0.69,0.56-0.74,1.43-0.78,2.26c0,0.07,0,0.15,0.01,0.22c-0.23,0.51-0.31,1.12-0.33,1.6
			C373.85,410.99,374.7,412.75,376.04,413.81z"/>
	</g>
	<g>
		<path class="st12" d="M410.81,671.13c-0.02-0.66-0.04-1.31-0.06-1.97c-1.64,2.01-5.38,1.43-7.67,1.4c-2.46-0.04-5-0.1-7.43-0.51
			c-3.79-0.64-6.67-2.91-8.7-6.1c-0.26-0.4-0.51-0.87-0.41-1.33c-0.45,0.24-0.9,0.5-1.22,0.89c-0.96,1.2,0.58,2.16,1.36,2.95
			c1,1.01,2.08,1.96,3.24,2.78c0,0.14,0.05,0.28,0.18,0.41c0.98,0.94,1.89,1.95,2.86,2.91c0.88,0.87,1.75,1.52,3.03,1.62
			c1.34,0.1,2.76-0.22,4.08-0.38c0.68-0.08,1.36-0.16,2.03-0.26c0.8-0.02,1.6-0.06,2.39-0.13c0.63,0,6.38-0.17,6.35-1.12
			C410.84,671.89,410.83,671.51,410.81,671.13z"/>
		<path class="st12" d="M399.58,691.7c-0.44-0.51-0.88-1.03-1.3-1.56c-0.42-0.54-0.73-1.12-1.13-1.67
			c-0.79-1.09-1.59-2.18-2.33-3.31c-0.71-1.09-1.43-2.17-2.06-3.31c-0.32-0.57-0.61-1.15-0.84-1.77c-0.2-0.53-0.3-1.09-0.66-1.53
			c-0.04-0.05-0.14-0.04-0.17,0.02c-0.51,0.99,0.19,2.45,0.58,3.38c0.55,1.29,1.25,2.56,2,3.74c0.73,1.15,1.51,2.28,2.38,3.33
			c0.45,0.55,1,1.01,1.48,1.54c0.51,0.55,1.03,1.1,1.57,1.63C399.42,692.5,399.87,692.04,399.58,691.7z"/>
		<path class="st12" d="M377.82,684.17c0.53,1.63,0.44,3.5,0.45,5.26c0.02,2.56,0.33,5.12,0.77,7.64c0.28,1.61,0.68,3.33,1.91,4.41
			c0.53,0.47,1.17,0.78,1.82,1.04c1,0.4,2.04,0.69,3.1,0.87c-1.61-1.06-2.78-2.68-3.58-4.43s-1.26-3.63-1.7-5.5
			c-0.28-1.19-0.56-2.39-0.84-3.59c-0.46-1.98-0.9-4.1-0.14-5.98c0.22-0.53,0.53-1.12,0.28-1.63c-0.1-0.21-0.29-0.37-0.48-0.53
			c-1.04-0.86-2.39-1.35-1.96-2.89c0.17-0.62,0.5-1.21,0.55-1.85c0.05-0.61-0.14-1.2-0.36-1.77c-1.06-2.81-2.69-5.37-4.31-7.91
			c-0.21-0.33-1.7-3.03-1.94-2.21c-0.06,0.19,0.01,0.4,0.09,0.59c1.24,3.23,3.02,6.33,3.58,9.78c0.17,1.04,0.27,2.09,0.37,3.15
			c0.09,0.86,0,1.82,0.47,2.58c0.32,0.53,0.78,0.96,1.14,1.46C377.4,683.12,377.64,683.63,377.82,684.17z"/>
		<path class="st12" d="M380.42,661.11c-0.53-0.3-1.1-0.54-1.64-0.83c-0.54-0.29-1.02-0.67-1.55-0.99
			c-0.48-0.29-1.03-0.48-1.48-0.82c-0.38-0.28-0.47-0.76-0.57-1.19c-0.41-1.74-0.9-3.23-1.99-4.69c-0.1-0.14-0.21-0.28-0.24-0.45
			c-0.02-0.12,0-0.24,0-0.36c0.02-0.79-0.59-1.44-1.06-2.08c-1.35-1.86-1.59-4.69-1.87-6.91c-0.09-0.74-0.21-1.49-0.23-2.24
			c-0.02-0.76,0.16-1.43,0.38-2.14c0.42-1.37,0.45-2.74,0.34-4.16c-0.12-1.55-0.25-3.07-0.11-4.62c0.14-1.54,0.66-3.01,0.81-4.55
			c0.01-0.06,0-0.11,0-0.17c0.41,0.67,0.83,1.34,1.27,2c1.05,1.59,2.18,3.13,3.46,4.55c0.19,0.22,0.41,0.42,0.61,0.63
			c-0.74-1.01-1.44-2.06-2.1-3.09c-0.65-1.02-1.3-2.11-1.69-3.27c-0.41-0.63-0.81-1.26-1.2-1.9c-0.14-0.23-0.28-0.48-0.43-0.72
			c-0.12-0.83-0.3-1.66-0.46-2.48c-0.32-1.61-0.63-3.22-0.96-4.82c-0.48-2.34-0.96-4.67-1.55-6.99c-0.51-2.02-0.92-3.86-2.35-5.49
			c-0.09-0.02-0.18-0.04-0.26-0.06c-0.06,0.71,0.15,1.41,0.33,2.09c0.44,1.69,0.69,3.43,0.75,5.18c0.06,1.69,0.24,3.15,0.56,4.82
			c0.02,0.12,0.05,0.25,0.07,0.37c0.02,0.59,0.04,1.18,0.07,1.77c0.05,1.11,0.13,2.22,0.26,3.32c0.09,2.14,0.2,4.27,0.34,6.41
			c-0.16,0.11-0.28,0.27-0.27,0.51c0.06,1.62,0.1,3.22,0.23,4.84c0,0.02,0.01,0.04,0.02,0.06c0.02,0.45,0.06,0.9,0.07,1.34
			c0.05,2.02-0.08,4.08,0.2,6.08c0.02,0.17,0.14,0.27,0.27,0.32c0.05,0.02,0.05,2.5,0.09,2.78c0.18,1.12,0.37,2.24,0.56,3.36
			c0.23,1.31,0.47,2.64,1.12,3.8c0.34,0.6,0.78,1.14,1.18,1.7c0.76,1.08,1.35,2.27,1.75,3.52c0.37,1.14,0.52,2.34,1.1,3.39
			c-0.13,0.03-0.24,0.12-0.34,0.21c-0.03,0-0.05,0-0.07,0.02c-0.1,0.03-0.2,0.08-0.26,0.14c-0.09,0.1-0.14,0.2-0.16,0.35
			c-0.19,0.21-0.37,0.42-0.51,0.67c-0.3,0.51-0.53,1.06-0.68,1.64c-0.03,0.1,0.11,0.15,0.16,0.07c0.31-0.46,0.67-0.9,1.07-1.28
			c0.16-0.16,0.33-0.31,0.5-0.46c0.07,0.01,0.14,0.02,0.21,0.02c0.07,0,0.14,0,0.21-0.01c0.17-0.01,0.35-0.03,0.52-0.06
			c0.13-0.02,0.26-0.05,0.38-0.08c0.09-0.02,0.18-0.07,0.27-0.11c0.24,0.12,0.49,0.22,0.73,0.33c0.58,0.26,1.2,0.41,1.79,0.66
			c0.64,0.27,1.24,0.62,1.88,0.89C380.49,662.17,380.97,661.43,380.42,661.11z"/>
		<path class="st12" d="M358.17,569.28c-0.7-1.91-0.94-3.79-0.07-5.94c0.21,2.02,1.82,3.56,2.99,5.23c1.51,2.15,2.35,4.67,3.33,7.09
			c0.51,1.24,1.05,2.47,1.75,3.61c0.4,0.65,1.63,2.78,2.44,2.79c0.3,0,0.64-0.14,0.93-0.22c0.7-0.2,1.4-0.4,2.1-0.61
			c1.18-0.35,2.37-0.68,3.55-1.06c0.95-0.31,1.83-0.9,2.78-1.28c2.07-0.81,4.24-1.34,6.34-2.07c1.58-0.55,3.12-1.21,4.64-1.91
			c0.69-0.32,1.44-0.82,2.17-1.01c0.53-0.14,1.05-0.1,1.58-0.32c0.1-0.04,0.2-0.09,0.28-0.14c-1.07,0.69-2.2,1.26-3.34,1.84
			c-6.3,3.18-12.66,6.39-19.49,8.18c-0.67,0.18-1.37,0.34-2.06,0.21c-0.5-0.09-0.95-0.33-1.38-0.6c-1.03-0.67-1.72-1.53-2.46-2.49
			c-0.41-0.53-0.94-1.67-1.69-1.63c-0.49,0.02-0.83,0.5-1.06,0.94c-0.19,0.36-0.37,0.73-0.52,1.11c0.06-0.84,0.16-1.67,0.32-2.49
			c0.12-0.65,0.66-1.42,0.56-2.09c-0.12-0.81-1.08-1.91-1.49-2.63c-0.45-0.79-0.9-1.58-1.29-2.4
			C358.73,570.66,358.42,569.97,358.17,569.28z"/>
		<path class="st12" d="M354.14,547.39c0.06,1.23,0.14,2.46,0.43,3.65c0.72,3.01,2.71,5.54,4.65,7.96
			c-2.55-4.73-3.85-10.13-3.74-15.51c0-0.08,1.32,1.06,1.44,1.21c0.58,0.68,1.11,1.41,1.67,2.1c1.18,1.46,2.41,2.86,3.67,4.26
			c-0.84-1.32-1.6-2.7-2.31-4.09c-0.16-0.24-0.31-0.49-0.47-0.74c-1.18-1.5-2.9-3.18-3.58-4.94c-0.79-2.04-0.92-4.38-1.13-6.53
			c-1.29-13.26-3.26-26.45-5.22-39.63c-0.47-3.19-0.95-6.38-1.76-9.5c-0.64-2.47-1.47-4.88-2.41-7.25c-0.83-2.12-1.94-4.01-2.55-6.2
			c-1.26-4.57-1.61-9.56-0.34-14.17c0.03-0.12,0.08-0.25,0.11-0.37c0.05-0.4,0.1-0.8,0.16-1.2c0.32-1.98,0.79-3.94,1.43-5.85
			c-1.19,2.26-2.14,4.65-2.84,7.1c-0.16,0.58-0.33,1.18-0.48,1.78c-0.18-1.23-0.99-1.96-1.35-3.06c-0.47-1.45-0.76-2.98-1.09-4.46
			c-0.65-2.93-1.18-5.89-1.58-8.87c-0.16-1.17-0.3-2.36-0.22-3.54c0.12-1.76,0.62-3.5,0.89-5.23c0.11-0.68,0.12-1.34,0.14-2.03
			c0.01-0.59,0.41-0.94,0.81-1.34c0.43-0.43,0.9-0.91,1.24-1.44c0.8,0.38,1.67,0.63,2.55,0.83c1.04,0.24,2.14,0.42,3.24,0.49
			c-3.85-0.94-6.88-3.92-9.28-7.27c-0.55-0.7-1.09-1.43-1.67-2.11c0.46-0.75,0.83-1.56,1.14-2.4c0.24-0.63,0.49-1.27,0.63-1.93
			c0.1-0.46,0.17-1.24-0.19-1.65c-0.04-0.35-0.08-0.7-0.16-1.04c-0.29,0.05-0.57,0.19-0.79,0.45c-0.35,0.41-0.42,0.91-0.51,1.42
			c-0.05,0.25-0.11,0.49-0.17,0.73c-0.01,0.02-0.03,0.03-0.04,0.06c-0.01,0.02-0.03,0.05-0.04,0.07c-0.18,0.04-0.37,0.05-0.56,0.07
			c-0.76,0.08-1.31,0.83-1.4,1.54c-0.07,0.59,0.1,1.18,0.29,1.74c0.35,0.99,0.8,1.95,1.02,2.98c0.12,0.57,0.17,1.15,0.22,1.72
			c0.14,1.65,0.28,3.31,0.27,4.97c-0.01,1.62-0.3,3.16,0.08,4.77c0.15,0.65,0.38,1.3,0.36,1.97c-0.03,1.04-0.58,2-0.69,3.04
			c-0.31,3.09,0.98,6.08,2.02,9.01c1.14,3.23,1.99,6.56,2.79,9.89c0.57,2.4,1.12,4.81,1.42,7.26c0.14,1.2,0.22,2.4,0.43,3.59
			c0.38,2.16,1,4.28,1.66,6.37c0.33,1.04,0.68,2.08,1.02,3.13c0.3,0.93,0.33,1.99,0.69,2.84c1.38,3.27,2.45,6.8,2.87,10.34
			c0.43,3.6,1.35,7.19,2.03,10.76c1.29,6.74,1.88,13.49,2.81,20.29c0.41,3,0.81,6,1.16,9.01c0.56,4.82,0.96,9.66,1.21,14.5
			C354.12,547.12,354.13,547.26,354.14,547.39z"/>
		<path class="st12" d="M366.79,439.3c0.19-0.12,0.08-0.45-0.19-0.41c-4,0.73-7.94,1.78-11.71,3.31c-3.1,1.26-6.6,2.8-8.44,5.76
			c-0.09,0.14,0.12,0.25,0.22,0.13c2.21-2.91,5.92-4.42,9.24-5.68c3.36-1.28,6.86-2.18,10.37-2.97c0.01,0.02,0.01,0.04,0.02,0.06
			c0.01,0.02,0.01,0.02,0.01,0.02c0,0.02,0.02,0.08,0.02,0.05c0.02,0.12-0.01,0.19-0.04,0.31c-0.08,0.28-0.3,0.54-0.48,0.8
			c-0.44,0.66-0.92,1.3-1.43,1.92c-0.11,0.14-0.13,0.33,0,0.46c0.12,0.12,0.35,0.13,0.46,0c0.6-0.7,1.19-1.44,1.7-2.21
			c0.2-0.31,0.4-0.61,0.41-0.99C366.96,439.66,366.91,439.45,366.79,439.3z"/>
		<path class="st12" d="M355.19,394.54c-0.06-0.74-0.24-1.47-0.52-2.16c-0.04-0.11-0.1-0.22-0.21-0.27
			c-0.1-0.05-0.22-0.02-0.32,0.01c-0.68,0.18-1.35,0.35-2.03,0.53c0.67,0.15,0.9,0.73,1.01,1.32c0.09,0.51,0.27,1.11-0.17,1.51
			c-0.48,0.43-1.06,0.74-1.54,1.17c-0.55,0.49-1.04,1.05-1.67,1.43c-0.22,0.13-0.43,0.21-0.64,0.27c-0.02,0-0.04,0.01-0.06,0.01
			c-0.37,0.09-0.74,0.08-1.16-0.06c-0.89-0.3-1.85-0.36-2.7-0.79c-0.15-0.08-0.31-0.17-0.43-0.29c-0.3-0.3-0.39-0.74-0.46-1.16
			c-0.05-0.26-0.09-0.56,0.07-0.77c0.06-0.08,0.14-0.19,0.06-0.25c-0.03-0.02-0.07-0.02-0.1-0.02c-0.56,0.01-1.11,0.16-1.59,0.45
			c-0.06,0.03-0.12,0.07-0.15,0.13c-0.05,0.1-0.01,0.21,0.02,0.32c0.24,0.66,0.48,1.32,0.74,1.97c0.13,0.32,0.27,0.64,0.52,0.87
			c0.34,0.3,0.81,0.39,1.27,0.41c0.87,0.05,1.53,0.27,2.35,0.55c0.17,0.06,0.34,0.09,0.51,0.12c-0.59,1.13-1.03,2.39-1.46,3.53
			c-0.3,0.82-0.58,1.64-0.82,2.48c-0.25,0.85-0.39,1.76-0.67,2.6c-0.28,0.82-1.6,1.02-2.35,1.31c-0.89,0.34-1.78,0.67-2.67,1
			c-0.85,0.31-1.71,0.6-2.56,0.91c-0.81,0.29-2.42,0.47-2.55,1.53c-0.06,0.44,0.09,0.87,0.19,1.31c0.35-0.18,0.54-0.56,0.75-0.89
			c0.43-0.68,1.3-0.75,2.02-0.97c0.95-0.29,1.89-0.61,2.83-0.94c0.98-0.34,1.97-0.68,2.94-1.05c0.7-0.27,1.58-0.49,2.07-1.1
			c0.52-0.64,0.57-1.63,0.76-2.4c0.24-0.93,0.51-1.85,0.82-2.75c0.32-0.95,0.68-1.88,1.08-2.8c0.23-0.53,0.46-1.48,1.1-1.62
			c0.31-0.07,0.65-0.03,0.95-0.13c0.26-0.08,0.48-0.26,0.69-0.43c1.15-0.93,2.3-1.87,3.45-2.8c0.2-0.16,0.41-0.33,0.52-0.56
			c0.1-0.21,0.12-0.44,0.13-0.67C355.22,395.1,355.21,394.82,355.19,394.54z"/>
		<path class="st12" d="M436.87,386.19c-0.22-0.12-0.53-0.11-0.79-0.08c-0.05,0.01-0.11,0.01-0.15,0.05
			c-0.05,0.04-0.06,0.1-0.07,0.16c-0.11,0.61-0.12,1.39-0.48,1.9c-0.34,0.49-0.88,0.84-1.3,1.26c-0.78,0.78-1.55,1.55-2.33,2.33
			c-0.85,0.85-1.69,1.73-2.57,2.55c-0.43,0.4-0.86,0.13-1.38-0.04c-0.57-0.18-1.15-0.35-1.72-0.53c-1.1-0.33-2.19-0.66-3.29-0.99
			c-0.52-0.16-1.04-0.31-1.57-0.47c-0.52-0.16-1.24-0.24-1.71-0.51c-0.47-0.27-0.63-1.05-0.84-1.56s-0.41-1.02-0.62-1.52
			c-0.21-0.53-0.43-1.05-0.65-1.58c-0.18-0.46-0.29-0.94-0.71-1.27c-0.36-0.28-0.86-0.38-1.28-0.23c-0.04,0.01-0.09,0.03-0.11,0.07
			c-0.05,0.07-0.03,0.16-0.01,0.24c0.57,1.93,1.15,3.87,1.72,5.8c0.15,0.5,0.32,1.03,0.72,1.35c0.42,0.33,1,0.37,1.53,0.42
			c1.27,0.13,2.52,0.49,3.74,0.87c0.93,0.28,1.85,0.57,2.78,0.85c0.44,0.13,0.86,0.22,1.29,0.29c0.4,0.07,0.61,0.27,0.95,0.48
			c0.71,0.44,1.67,0.21,2.34-0.3c0.67-0.5,1.13-1.22,1.68-1.85c1.22-1.42,2.85-2.44,4.1-3.84c0.29-0.33,0.56-0.68,0.73-1.08
			c0.29-0.69,0.27-1.47,0.23-2.22c-0.01-0.12-0.01-0.25-0.06-0.36C437.03,386.31,436.96,386.24,436.87,386.19z"/>
		<path class="st12" d="M478.35,399.31c-0.09-0.53-0.18-1.05-0.26-1.58c-0.29,0.75-0.6,1.53-1.2,2.05c-0.3,0.26-0.65,0.44-0.99,0.62
			c-0.77,0.4-1.55,0.8-2.32,1.2c-0.19,0.1-0.39,0.2-0.61,0.22c-0.27,0.02-0.52-0.1-0.76-0.22c-0.54-0.26-1.07-0.55-1.59-0.84
			c-0.74-0.42-1.22-0.88-1.07-1.77c0.16-0.93,0.36-1.86,0.62-2.77c0.23-0.79,0.5-1.55,0.79-2.31c0.25-0.65,0.44-1.31,1.16-1.6
			c0.25-0.1,0.52-0.13,0.79-0.15c-0.55-0.67-1.46-0.9-2.31-1.03c-0.05-0.01-0.1-0.01-0.14,0.01c-0.04,0.02-0.06,0.06-0.08,0.09
			c-0.2,0.34-0.3,0.73-0.39,1.12c-0.29,1.25-0.63,2.42-1,3.64c-0.47,1.56-0.78,3.17-0.97,4.79c-0.03,0.23,0.19,0.54,0.43,0.6
			c-0.29,1.78-0.64,3.72-0.6,5.52c0.04,1.44-1.47,2.79-2.46,3.7c-0.62,0.58-1.29,1.13-2.09,1.44c-0.9,0.35-1.59,0.17-2.47-0.07
			c-0.88-0.24-1.8-0.37-2.69-0.6c-3.21-0.84-6.35-1.91-9.55-2.81c-3.32-0.92-6.65-1.8-9.99-2.63c-0.92-0.23-1.84-0.45-2.77-0.62
			c-1.64-0.29-3.84-0.05-4.94-1.59c-0.52-0.73-0.96-1.54-1.42-2.31c-1.11-1.82-2.22-3.64-3.36-5.44c-0.33-0.6-1.58-0.17-1.1,0.64
			c1.02,1.75,2.06,3.49,3.1,5.22c0.86,1.42,1.63,3.32,3.23,4.04c0.79,0.36,1.68,0.5,2.52,0.71c1.07,0.26,2.14,0.53,3.21,0.79
			c2.03,0.5,4.07,1,6.1,1.5c4.07,1,8.13,2.02,12.2,3.04c1.89,0.47,3.83,1.13,5.76,1.37c1.68,0.2,3.18-0.43,4.53-1.38
			c1.45-1.01,2.97-2.07,3.25-3.93c0.23-1.52,0.43-3.04,0.58-4.57c0.04-0.46-0.15-1.38,0.47-1.32c0.52,0.05,1.02,0.71,1.42,0.99
			c0.34,0.24,0.73,0.41,1.15,0.45c0.84,0.08,1.25-0.42,1.79-0.95c0.57-0.57,1.32-1.03,2.04-1.4c0.4-0.2,0.82-0.4,1.26-0.51
			c0.37-0.09,0.65-0.04,0.78-0.52C478.44,399.91,478.4,399.61,478.35,399.31z"/>
		<path class="st12" d="M470.17,421.04c0.21-0.52,0.28-1.09,0.15-1.69c-0.17-0.76-0.43-1.68-1.13-2.11
			c-0.46-0.28-0.85,0.33-0.54,0.7c0.39,0.47,0.57,1.47,0.54,2.06c-0.04,0.66-0.49,1.02-1.07,1.26c-0.7,0.29-1.48,0.44-2.28,0.52
			c0.06-0.05,0.11-0.1,0.18-0.15c0.76-0.56,1.51-1.11,2.17-1.79c0.23-0.23,0.69-0.59,0.55-0.97c-0.1-0.26-0.44-0.35-0.69-0.37
			c-0.97-0.06-1.85-0.33-2.76-0.66c-0.84-0.3-1.67-0.66-2.55-0.83c-0.79-0.16-1.37-0.49-2.18-0.11c-0.66,0.31-1.14,0.91-1.48,1.55
			c-0.1,0.19-0.19,0.4-0.2,0.61c-0.02,0.23,0.05,0.46,0.11,0.68c0.21,0.74,0.27,1.44,0.69,2.11c0.39,0.62,0.94,1.13,1.62,1.42
			c0.43,0.18,0.9,0.26,1.37,0.32c1.97,0.25,4.1,0.28,5.87-0.74C469.26,422.42,469.86,421.79,470.17,421.04z M465.31,418.55
			c0.52,0.19,1.07,0.32,1.63,0.4c0.24,0.03,0.49,0.06,0.73,0.05c0.04,0,0.51-0.05,0.66-0.04c-0.08,0.05-0.2,0.18-0.21,0.18
			c-0.11,0.11-0.21,0.22-0.32,0.33c-0.19,0.19-0.39,0.37-0.59,0.55c-0.43,0.37-0.9,0.7-1.36,1.03c-0.35,0.25-0.73,0.51-1.09,0.8
			c-0.15,0-0.31,0.01-0.46,0.01c-0.08-0.2-0.16-0.4-0.24-0.6c-0.21-0.55-0.43-1.1-0.64-1.65c-0.21-0.54-0.44-1.08-0.68-1.62
			c-0.04-0.09-0.16-0.38-0.31-0.61C463.39,417.76,464.34,418.19,465.31,418.55z M463.22,421.8c-0.7-0.05-1.61-0.08-2.21-0.51
			c-0.42-0.3-0.66-0.78-0.76-1.27c-0.11-0.51-0.02-1.06,0.27-1.49c0.33-0.48,0.86-0.79,1.33-1.14c0.01,0.1,0.04,0.21,0.07,0.3
			c0.07,0.27,0.16,0.53,0.26,0.78c0.2,0.53,0.41,1.05,0.63,1.57c0.22,0.53,0.45,1.05,0.67,1.58c0.03,0.06,0.05,0.13,0.08,0.19
			C463.45,421.8,463.33,421.8,463.22,421.8z"/>
		<path class="st12" d="M368.62,382.66c-1.5-0.02-3.04,0.22-4.52,0.42c-1.42,0.19-2.83,0.41-4.23,0.68
			c-3.71,0.72-7.34,1.79-10.92,2.94c-3.49,1.11-7.09,1.89-10.45,3.38c-3.38,1.51-5.63,4.12-5.52,8c0.02,0.73,0.12,1.46,0.14,2.19
			c0.02,0.83-0.08,1.66-0.18,2.49c-0.14,1.22-0.29,2.45-0.65,3.62c-0.13,0.4-0.28,0.8-0.29,1.22c-0.02,0.68,0.37,1.35,0.97,1.67
			c-0.09-1.27,0.53-2.46,0.86-3.69c0.73-2.68,0.11-5.54,0.35-8.32c0.19-2.22,1.48-3.39,3.42-4.31c2.19-1.05,4.5-1.92,6.76-2.82
			c4.98-1.97,10.04-3.69,15.31-4.74c1.52-0.3,3.05-0.56,4.58-0.77c1.52-0.2,3.05-0.26,4.56-0.5
			C369.67,383.98,369.43,382.67,368.62,382.66z"/>
		<path class="st12" d="M334.14,414.69c0.07-0.93,0.26-1.85,0.31-2.78c0.04-0.65-0.18-1.4-0.77-1.69c-0.13-0.06-0.3-0.1-0.41,0
			c-0.07,0.06-0.09,0.15-0.11,0.23c-0.14,0.57-0.15,1.16-0.2,1.74c-0.04,0.41-0.04,0.83-0.05,1.25c-0.03,1.23-0.47,2.45-0.36,3.68
			c0,0.03,0.01,0.05,0.02,0.07c0.04,0.05,0.12,0.03,0.18,0c0.43-0.17,0.98-0.12,1.25-0.49c0.19-0.26,0.16-0.62,0.13-0.94
			C334.11,415.43,334.12,415.06,334.14,414.69z"/>
		<path class="st12" d="M390.21,382.03c-3.16-0.67-6.37-0.47-9.57-0.33c-3.37,0.15-6.78,0.16-10.14,0.48
			c-0.39,0.04-0.62,0.28-0.66,0.66c-0.11,0.89-0.29,1.76-0.37,2.65c-0.08,0.93,0.02,1.78,0.14,2.69c0.03,0.23,0.42,0.35,0.46,0.06
			c0.21-1.54,0.44-3.23,0.92-4.75c3.1,0.04,6.23-0.18,9.32-0.28c3.15-0.1,6.37-0.33,9.48,0.31
			C390.78,383.75,391.2,382.24,390.21,382.03z"/>
		<path class="st12" d="M472.27,387.31c0-0.05-0.01-0.1-0.03-0.15c-0.17-0.51-0.69-0.8-1.16-1.05c-1.27-0.68-2.43-1.41-3.83-1.7
			c-0.46-0.1-4.47-0.81-4.51-1.07c-0.04-0.2-0.18-0.38-0.45-0.43c-1.2-0.22-2.45-0.26-3.68-0.31c-0.81-0.12-1.62-0.24-2.43-0.34
			c-1.13-0.14-2.27-0.25-3.4-0.33c-0.48-0.03-1-0.1-1.51-0.11c-0.02-0.38-0.27-0.76-0.76-0.79c-6.97-0.34-13.95-0.49-20.93-0.43
			c-2.57,0.02-5.15-0.39-7.72-0.54c-2.68-0.16-5.36-0.21-8.04-0.03c-1.39,0.09-2.77,0.25-4.17,0.27c-3.41,0.07-6.82-0.08-10.22-0.03
			c-1.72,0.02-3.44,0.09-5.15,0.26c-1.59,0.16-3.19,0.27-4.73,0.7c-0.19,0.05-0.38,0.11-0.56,0.17c1.53,0.47,3.17,0.33,4.77,0.22
			c5.7-0.38,11.44-0.29,17.1,0.47c1.63,0.22,3.26,0.49,4.91,0.56c1.64,0.07,3.19-0.32,4.81-0.35c3.49-0.08,6.98-0.11,10.48-0.11
			c5.69,0,11.39,0.11,17.07,0.35c1.09,0.58,2.17,1.18,3.25,1.77c0.48,0.27,0.96,0.6,1.54,0.47c0.52-0.12,0.98-0.45,1.51-0.59
			c1.18-0.32,2.39-0.31,3.6-0.22c1.47,0.25,2.94,0.53,4.39,0.85c2.08,0.46,4.14,0.99,6.17,1.62c1.01,0.31,2.34,1.08,3.38,1.15
			c0.06,0,0.13,0,0.19-0.03C472.24,387.51,472.27,387.41,472.27,387.31z"/>
		<path class="st12" d="M491.34,590.23c-1.97-1.44-4.48-1.69-6.78-2.29c-2.41-0.64-4.68-1.72-6.98-2.67
			c-1.13-0.47-2.26-0.91-3.44-1.25c-1.2-0.35-2.45-0.49-3.66-0.81c-2.81-0.75-4.41-3.38-6.57-5.11c-0.39-0.31-0.88-0.63-1.36-0.5
			c0.33,1.54,1.44,2.15,2.33,3.32c0.71,0.94,1.5,1.83,2.07,2.88c0.32,0.6,0.59,1.23,1.19,1.59c0.68,0.41,1.56,0.54,2.32,0.73
			c1.79,0.45,3.58,0.9,5.38,1.33c1.77,0.42,3.61,1.03,5.43,1.15c0.11,0.01,0.21-0.03,0.29-0.08c0.63,0.22,1.27,0.43,1.91,0.61
			c2.45,0.69,4.96,1,7.29,2.07C491.43,591.49,491.92,590.65,491.34,590.23z"/>
		<path class="st12" d="M496.85,683.03c0.03-0.02,0.06-0.04,0.1-0.06c1.14-0.76,2.38-1.68,2.56-3.04c-1.12,1.34-2.87,2.13-4.62,2.1
			c-1.22-0.02-2.74-0.32-3.64-1.18c-0.96-0.93-1.8-1.95-2.97-2.65c-1.51-0.9-3.42-1.09-5.07-0.49c-0.14,0.05,0.28,2.23,0.28,2.51
			c0.01,0.82-0.21,1.49,0.42,2.18c0.46,0.5,1.13,0.73,1.65,1.16c0.74,0.62,1.1,1.57,1.42,2.48c0.4,1.13,0.8,2.26,1.2,3.39
			c0.41,1.15,0.82,2.3,1.15,3.48c1.3,4.64,1.38,9.62,3.22,14.07c0.87,2.11,2.1,3.66,4.49,3.81c0.99,0.06,1.99,0.07,2.98,0.18
			c0.87,0.1,1.73-0.13,2.59-0.26c2-0.3,4.01-0.54,6.02-0.71c-2.74-0.46-5.51-0.71-8.29-0.75c-1-0.01-2.03,0-2.96-0.37
			c-1.36-0.53-2.38-1.47-2.93-2.83c1.02-0.82,2.51-0.7,3.76-0.3s2.44,1.04,3.75,1.14c-1.71-1.12-3.42-2.24-5.13-3.36
			c-1.7-1.11-3.46-2.29-4.46-4.06c-0.63-1.11-0.91-2.38-1.15-3.63c-0.17-0.87-0.34-1.74-0.4-2.62c-0.01-0.16-0.02-0.32,0.01-0.48
			c0.05-0.27,0.21-0.51,0.29-0.78c0.11-0.38,0.07-0.78,0.03-1.17c-0.1-0.86-0.19-1.72-0.45-2.54c-0.11-0.34-0.24-0.72-0.1-1.05
			c0.07-0.18,0.22-0.33,0.37-0.46c0.84-0.73,1.85-0.98,2.76-1.58C494.78,684.49,495.8,683.74,496.85,683.03z"/>
		<path class="st12" d="M460.01,595.65c0.07,0.06,0.12,0.13,0.2,0.19c1.88,1.44,4.43,1.8,6.7,2.22c5.11,0.96,10.33,1.33,15.52,0.88
			c0.16-0.01,0.29-0.08,0.4-0.16c-0.47-0.04-0.95-0.09-1.42-0.14c-3.09-0.25-6.17-0.58-9.23-1.04c-3.05-0.46-6.52-0.75-9.25-2.31
			c-2.61-1.5-4.82-4.17-5.79-7.03c-0.72-2.1-0.87-4.42-2.02-6.32c-0.55-0.9-1.3-1.67-1.79-2.6c-0.55-1.05-0.73-2.24-0.91-3.4
			c-0.37-2.45-0.74-4.9-1-7.36c-0.15-1.45-0.27-2.92-0.66-4.33c-0.89-3.22-4.48-5.33-4.32-8.91c0.02-0.51,0.15-1.05,0.48-1.44
			s0.91-0.61,1.38-0.41c-3.53-6.27-6.51-12.77-9.74-19.21c-1.12-2.24-2.15-4.57-3.6-6.63c-1.42-2.02-3-3.82-4.14-6.04
			c-3.95-7.7-6.33-16.14-8.99-24.37c-0.4-1.08-0.77-2.17-1.11-3.28c-0.04-0.09-0.08-0.18-0.12-0.27c-0.54-1.43-1.04-2.88-1.51-4.34
			c-1.09-2.89-2.3-5.71-3.81-8.41c-0.35-0.82-0.59-1.68-0.65-2.59c-0.02-0.32,0.03-0.72,0.04-1.1c0.62,0.31,1.23,0.62,1.85,0.93
			c1.53,0.76,3.07,1.5,4.63,2.22c-0.3-0.24-0.62-0.47-0.92-0.71c-0.95-0.76-2.13-1.5-3.21-2.35c-0.03-0.02-0.06-0.03-0.1-0.05
			c-0.8-0.41-1.61-0.81-2.42-1.2c-0.21-0.1-0.42-0.2-0.63-0.3c-0.1-0.08-0.19-0.15-0.26-0.23c-1.65-1.66-2.69-3.86-3.79-5.9
			c-2.57-4.77-5.34-9.4-8.11-14.06c-0.09-0.15-0.31-0.02-0.23,0.14c0.9,1.92,1.8,3.83,2.7,5.75c1.29,2.71,2.56,5.33,3.69,8.12
			c3.25,8.01,6.5,16.03,9.31,24.2c3.1,9.04,5.88,18.11,10.43,26.55c0.57,1.07,1.26,2.09,1.67,3.24c0.43,1.21,0.49,2.33,1.09,3.51
			c1.99,3.92,3.98,7.84,5.97,11.76c3.06,6.02,5.82,12.17,7.94,18.56c1.04,3.13,1.88,6.33,2.52,9.56c0.59,3.02,0.64,6.08,1.25,9.06
			c0.19,0.91,0.37,1.93,0.86,2.76c0.26,0.63,0.65,1.22,1.26,1.73c0.08,0.07,0.19,0.13,0.31,0.19c0.25,0.26,0.59,0.39,0.96,0.41
			c-0.04,0.25,0,0.54,0.2,0.84c0.61,0.93,1,1.97,1.4,3c0.09,0.51,0.15,1.03,0.21,1.55c0.2,1.74,0.56,3.39,1.08,5.07
			c0.55,1.82,1.12,3.64,1.69,5.46c0.33,1.06,0.65,2.15,1,3.23c-0.21,0.53-0.25,1.12-0.2,1.72c0.01,0.09,0.02,0.19,0.03,0.28
			c-0.04,0.17-0.06,0.34-0.03,0.53c0.4,2.66,1.19,5.23,2.2,7.72c0.9,2.22,2.02,4.4,2.47,6.77c0.5,2.68,1.12,5.33,1.85,7.96
			c0.31,1.12,0.65,2.24,1.08,3.33c0.72,1.79,1.7,3.46,2.62,5.16c3.31,6.12,5.85,12.66,7.52,19.41c0.32,1.31,0.63,2.66,1.36,3.8
			c0.11,0.17,0.78,1.35,0.69,1.52c1.01-1.74,0.52-4.33,2.15-5.51c0.46-0.34,1.07-0.52,1.37-1c0.17-0.27,0.23-0.59,0.27-0.9
			c0.18-1.23,0.31-2.48,0.38-3.73c0.03-0.55,0.04-1.13-0.23-1.61c-0.48-0.83-1.51-0.93-2.35-1.12c-1.08-0.24-1.49-0.58-2.27-1.33
			c-1.81-1.75-3.16-3.76-4.46-5.9c-1.64-2.68-3.28-5.36-4.92-8.04c-1.33-2.17-3.28-5.18-2.7-7.87c2.56,0.5,0.88-2.25,0.33-3.32
			c-1.02-1.99-1.86-4.07-2.69-6.15c-0.14-0.34-0.28-0.67-0.41-1.01c-0.24-0.59-0.48-1.18-0.73-1.76c-0.53-1.24-0.95-2.51-0.99-3.82
			c-0.14-0.53-0.25-1.06-0.32-1.6c-0.26-1.86-0.07-3.77,0.29-5.61C459.48,597.35,459.73,596.5,460.01,595.65z"/>
	</g>
	<g>
		<g>
			<path d="M368.28,381.94c0.09,9.89,1,19.77,2.72,29.51c0.43,2.43,0.91,4.86,1.44,7.27c0.26,1.19,0.48,2.42,0.89,3.57
				c0.39,1.07,0.98,1.98,1.7,2.86c2.81,3.41,6.09,6.35,9.11,9.56c1.57,1.67,3.1,3.38,4.76,4.96c1.52,1.45,3.17,2.86,5.07,3.78
				c1.15,0.56,2.17-1.16,1.01-1.73c-3.36-1.63-5.94-4.67-8.44-7.36c-2.88-3.1-5.95-5.98-8.78-9.13c-0.72-0.8-1.49-1.59-2.04-2.51
				c-0.59-0.99-0.82-2.12-1.07-3.23c-0.53-2.33-1.01-4.67-1.45-7.02c-0.88-4.73-1.56-9.49-2.04-14.28
				c-0.54-5.4-0.84-10.82-0.89-16.25C370.27,380.66,368.27,380.65,368.28,381.94L368.28,381.94z"/>
		</g>
	</g>
	<g>
		<g>
			<path d="M336.28,416.08c1.78-0.6,3.52-1.29,5.26-1.99c0.83-0.33,1.66-0.66,2.49-0.98c0.91-0.34,1.88-0.59,2.76-1
				c0.84-0.38,1.18-1.12,1.43-1.96c0.29-0.98,0.57-1.96,0.85-2.95c0.58-2.05,1.13-4.1,1.66-6.16c0.32-1.25-1.61-1.78-1.93-0.53
				c-0.48,1.86-0.98,3.72-1.49,5.57c-0.25,0.91-0.51,1.81-0.77,2.71c-0.12,0.4-0.18,0.93-0.39,1.3c-0.15,0.26-0.41,0.3-0.69,0.39
				c-3.28,1.11-6.43,2.57-9.71,3.67C334.53,414.56,335.05,416.49,336.28,416.08L336.28,416.08z"/>
		</g>
	</g>
	<g>
		<g>
			<path d="M419.97,395.59c1.3,2.17,2.6,4.35,3.89,6.52c1.19,1.99,2.34,4.18,3.98,5.85c1.63,1.66,3.92,2.36,6.11,2.98
				c2.43,0.69,4.9,1.26,7.36,1.85c4.92,1.18,9.85,2.3,14.8,3.34c1.21,0.25,2.42,0.51,3.62,0.75c0.6,0.12,1.21,0.25,1.81,0.37
				c0.62,0.12,1.33,0.37,1.96,0.37c0.68,0,1.32-0.94,1.78-1.37c0.61-0.57,1.23-1.13,1.85-1.69c1.28-1.15,2.63-2.27,3.7-3.62
				c0.87-1.1,1.16-2.18,1.28-3.56c0.12-1.44,0.24-2.88,0.37-4.32c0.11-1.28-1.89-1.28-2,0c-0.08,0.95-0.16,1.89-0.24,2.84
				c-0.07,0.86-0.05,1.81-0.3,2.65c-0.32,1.07-1.33,1.94-2.12,2.68c-1.66,1.56-3.51,2.98-5.02,4.68c0.32-0.09,0.65-0.17,0.97-0.26
				c-6.54-1.29-13.05-2.69-19.54-4.22c-3.26-0.77-6.54-1.51-9.76-2.42c-1.42-0.4-2.92-0.81-4.18-1.61
				c-1.22-0.77-2.02-1.99-2.79-3.18c-2.04-3.15-3.89-6.42-5.81-9.64C421.04,393.47,419.31,394.48,419.97,395.59L419.97,395.59z"/>
		</g>
	</g>
	<g>
		<g>
			<path d="M409.45,476.38c0.01,2.2,0.24,4.39,0.29,6.6c0.06,2.62-0.14,5.24-0.05,7.86c0.2,5.87,0.97,11.72,1.53,17.56
				c1.1,11.68,2.1,23.37,2.98,35.07c0.18,2.38-0.02,5.14,0.73,7.42c0.29,0.89,0.66,1.37,0.53,2.31c-0.11,0.79-0.1,1.52,0.2,2.28
				c0.88,2.18,2.62,4.28,2.57,6.74c-0.05,2.49-0.66,4.94-0.59,7.44c0.07,2.72,0.78,5.46,1.24,8.13c0.5,2.9,1,5.81,1.5,8.71
				c0.97,5.69,1.91,11.4,2.71,17.12c0.83,5.94,1.27,11.83,1.08,17.84c-0.18,5.73-0.77,11.43-1.38,17.13
				c-0.61,5.74-1.12,11.41-1.03,17.19c0.05,2.9,0.17,5.79,0.24,8.68c0.03,1.33,0.03,2.66,0.06,3.99c0.04,1.28,0.19,2.66-0.22,3.91
				c-0.73,2.25-3.01,3.59-3.9,5.8c-0.88,2.18-0.78,4.64-0.87,6.95c-0.11,2.88-0.22,5.77-0.33,8.65c-0.11,2.82,0.35,6.14-2.8,7.34
				c-2.22,0.84-4.77,1.01-7.1,1.33c-2.95,0.41-5.92,0.7-8.9,0.83c-2.84,0.12-5.69,0.09-8.53-0.16c-2.45-0.22-5.86-0.31-7.99-1.72
				c-1.38-0.92-1.2-2.81-1.34-4.31c-0.14-1.51-0.28-3.01-0.42-4.52c-0.25-2.7-0.32-5.5-0.77-8.18c-0.34-2.03-2.21-3.05-2.54-5.06
				c-0.47-2.81-0.66-5.54-1.61-8.26c-0.43-1.21-0.92-2.4-1.39-3.6c-0.52-1.35-1.65-3.45-0.87-4.86c0.46-0.83,1.46-1.23,1.89-2.17
				c0.4-0.86,0.47-1.78,0.36-2.71c-0.25-2.2-1.38-4.41-2.48-6.3c-0.57-0.98-1.29-1.89-1.83-2.89c-0.71-1.33-0.76-2.79-0.84-4.27
				c-0.6-11.16-0.89-22.34-2.12-33.45c-0.59-5.37-1.39-10.72-2.54-16c-0.6-2.76-1.29-5.5-2.1-8.21c-0.38-1.28-0.85-2.56-1.07-3.88
				c-0.25-1.49,0.11-2.65,0.52-4.05c0.6-2.09,0-3.81-1.1-5.62c-1.36-2.24-2.72-4.57-2.96-7.25c-0.23-2.52,0.58-4.98,0.09-7.54
				c-0.46-2.4-1.97-4.4-2.67-6.72c-0.8-2.64-0.64-5.59-0.78-8.32c-0.15-2.87-0.33-5.75-0.55-8.62c-0.42-5.51-1-11-1.77-16.48
				c-0.79-5.59-1.79-11.15-3.05-16.65c-0.65-2.82-1.16-5.58-1.41-8.47c-0.23-2.62-0.64-5.18-1.33-7.72
				c-1.35-4.95-3.68-9.56-4.83-14.56c-1.07-4.66-1.53-9.43-2.75-14.05c-1.18-4.46-2.49-8.86-3.51-13.36
				c-0.39-1.75-0.7-3.17-0.25-4.94c0.21-0.82,0.64-1.65,0.57-2.5c-0.06-0.73-0.43-1.43-0.7-2.1c-0.88-2.15,0-4.56,0.11-6.82
				c0.11-2.27-0.96-3.89-1.86-5.87c-1.18-2.59-0.12-5.33,0.23-7.99c0.13-1.01,0.26-2.06,0.05-3.07c-0.16-0.8-0.88-1.72-0.88-2.53
				c0-0.58,0.39-1.25,0.5-1.85c0.15-0.85,0.34-1.69,0.49-2.54c0.13-0.7,0.29-1.44,0.29-2.15c0-1.02-0.33-2.03-0.4-3.05
				c-0.17-2.47,0.73-4.95,2.9-6.32c1.9-1.19,4.3-1.39,6.39-2.12c5.29-1.85,10.62-3.55,16.04-4.99c5.38-1.42,10.92-1.58,16.45-1.76
				c5.09-0.17,10.23-0.19,15.28,0.61c-0.24-0.32-0.49-0.64-0.73-0.96c0.72,7.47,0.87,14.99,0.85,22.49
				c-0.01,3.54,0.19,7.22-0.21,10.74c-0.47,4.08-4.48,6.58-7.85,8.29c-0.28,0.14-0.53,0.54-0.5,0.86c0.52,4.51,2.61,8.41,6.04,11.38
				c1.85,1.59,3.49,3.39,4.69,5.52c1.15,2.04,2.08,4.25,3.16,6.34c5.24,10.13,10.1,20.4,14.26,31.03c4,10.21,7.27,20.69,11.38,30.85
				c1.95,4.81,4.04,9.56,6.21,14.27c2.38,5.16,5.14,10.14,7.4,15.36c2.22,5.13,4.65,10.17,6.63,15.4c2,5.27,3.33,10.46,4.12,16.04
				c0.36,2.52,0.48,5.36,1.32,7.77c0.27,0.78,0.75,1.29,1.43,1.74c1.24,0.82,1.82,1.55,2.26,2.97c0.85,2.74,1.46,5.58,2.17,8.36
				c0.35,1.35,0.7,2.69,1.04,4.04c0.36,1.4,0.98,2.93,1.07,4.36c0.08,1.12-0.17,2.23-0.05,3.37c0.13,1.23,0.43,2.43,0.82,3.6
				c0.82,2.41,2.04,4.64,3.15,6.92c2.19,4.5,1.67,9.74,3.64,14.32c1.84,4.28,4.43,8.21,6.32,12.47c2.21,4.95,3.27,10.46,4.85,15.64
				c1.69,5.54,3.53,11.03,5.73,16.38c1.06,2.58,2.33,4.95,1.9,7.78c-0.33,2.19,1.2,2.61,2.78,3.58c1.25,0.76,1.68,2.59,2.16,3.91
				c0.52,1.44,0.98,2.91,1.36,4.4c0.68,2.68,1.03,5.41,1.54,8.12c0.5,2.63,1.12,5.37,2.17,7.85c0.79,1.87,2.42,2.88,4.36,3.29
				c2.71,0.57,5.5,0.21,8.22-0.08c2.85-0.31,5.69-0.63,8.54-0.98c2.84-0.34,5.69-0.7,8.52-1.08c2.05-0.28,3.69-0.82,4.49-2.89
				c1.8-4.63,0.78-10.28,0.9-15.12c0.06-2.52-0.44-4.86-0.58-7.35c-0.15-2.51,1.64-4.35,1.58-6.85c-0.03-1.15-0.4-2.28-0.61-3.41
				c-0.29-1.55-0.49-3.11-0.6-4.68c-0.2-2.8-0.06-5.61,0-8.42c0.13-5.95,0.02-11.9-0.35-17.84c-0.14-2.34-0.33-4.7-1.1-6.93
				c-0.86-2.5-2.19-4.84-3.24-7.26c-2.33-5.36-2.63-10.74-2.52-16.5c0.1-5.15,0.24-10.34-1.24-15.33c-1.45-4.92-4.01-9.41-6.1-14.07
				c-2.29-5.13-4.01-10.59-5.03-16.11c-0.52-2.78-0.77-5.58-0.93-8.4c-0.13-2.32-0.4-4.67-1.65-6.68c-0.64-1.02-1.48-1.9-1.99-3
				c-0.62-1.31-0.65-2.75-0.6-4.17c0.07-2.24,0.15-4.34-0.27-6.55c-0.82-4.26-2.58-8.2-4.5-12.06c-1.17-2.35-1.6-4.97-2.03-7.54
				c-0.46-2.78-1.19-5.56-1.42-8.37c-0.46-5.57-0.67-11.07-1.63-16.6c-0.99-5.72-2.57-11.27-4.08-16.87
				c-1.53-5.71-2.65-11.49-3.4-17.35c-1.47-11.34-2.05-22.75-3.64-34.08c-0.8-5.72-1.62-11.44-2.09-17.19
				c-0.17,0.29-0.33,0.58-0.5,0.86c2.29-1.14,2-3.76,1.67-5.9c-0.57-3.74-1.08-7.49-1.62-11.23c-0.21-1.41-0.46-2.59-1.66-3.49
				c-1.5-1.13-3.29-2.01-4.95-2.89c-3.3-1.76-6.73-2.99-10.43-3.59c-7.79-1.26-15.82-1.6-23.69-2.01
				c-8.14-0.42-16.28-0.61-24.43-0.62c-4.56-0.01-9.13,0.04-13.69,0.14c-2.39,0.05-4.78,0.12-7.17,0.19
				c-0.94,0.03-1.95-0.04-2.87,0.12c-0.92,0.17-1.66,0.68-2.43,1.18c-1.08,0.7-0.08,2.43,1.01,1.73c0.78-0.5,1.39-0.88,2.34-0.97
				c0.86-0.08,1.74-0.06,2.61-0.09c1.95-0.06,3.91-0.11,5.86-0.16c3.48-0.08,6.95-0.13,10.43-0.15c7.17-0.04,14.34,0.05,21.5,0.31
				c7.27,0.27,14.54,0.7,21.78,1.35c3.55,0.32,7.15,0.56,10.63,1.36c3.34,0.76,6.38,2.23,9.34,3.92c0.76,0.44,1.57,0.85,2.3,1.34
				c1.16,0.78,1.38,1.51,1.58,2.84c0.27,1.87,0.54,3.75,0.8,5.62c0.25,1.73,0.48,3.46,0.75,5.19c0.2,1.28,0.75,3.34-0.69,4.06
				c-0.29,0.14-0.52,0.54-0.5,0.86c0.93,11.38,3.09,22.61,4.04,33.99c0.92,10.98,1.83,22.02,4.54,32.73
				c1.39,5.5,3.07,10.91,4.18,16.48c1.12,5.62,1.78,11.32,2,17.05c0.1,2.63,0.55,5.15,1.06,7.73c0.48,2.48,0.76,5,1.41,7.45
				c0.55,2.06,1.54,3.84,2.44,5.75c1,2.1,1.84,4.28,2.49,6.51c0.61,2.08,1.08,4.23,1.04,6.41c-0.05,2.28-0.41,4.63,0.38,6.84
				c0.84,2.35,2.84,3.91,3.39,6.41c0.59,2.65,0.43,5.47,0.76,8.16c0.64,5.23,1.96,10.36,3.76,15.31c1.7,4.71,4.06,9.1,6.07,13.68
				c2.24,5.11,3.15,10.16,3.13,15.73c-0.02,5.05-0.42,10.15,0.55,15.15c0.5,2.57,1.48,4.98,2.55,7.36c1.1,2.44,2.47,4.82,3.09,7.43
				c0.63,2.63,0.64,5.43,0.76,8.12c0.13,2.92,0.21,5.84,0.22,8.76c0.03,5.57-0.51,11.19,0.2,16.73c0.34,2.66,1.56,5.5,0.38,8.05
				c-0.9,1.94-1.14,3.59-0.85,5.74c0.35,2.6,0.47,5.04,0.39,7.67c-0.07,2.58,0.21,5.15,0.08,7.73c-0.06,1.25-0.2,2.5-0.45,3.73
				c-0.14,0.68-0.28,1.43-0.73,1.98c-0.63,0.77-1.63,0.85-2.56,0.97c-2.84,0.39-5.68,0.74-8.52,1.08c-2.84,0.34-5.69,0.67-8.54,0.97
				c-2.63,0.28-5.53,0.74-8.11-0.07c-2.82-0.88-3.26-4.6-3.86-7.1c-0.65-2.7-0.98-5.46-1.52-8.18c-0.52-2.61-1.27-5.17-2.22-7.66
				c-0.39-1.01-0.76-2.15-1.38-3.04c-0.66-0.94-1.56-1.07-2.43-1.7c-1.13-0.82-0.46-1.91-0.55-3.09c-0.1-1.29-0.5-2.53-0.97-3.73
				c-0.99-2.53-2.08-5.02-3.02-7.57c-1.97-5.32-3.65-10.75-5.24-16.2c-1.37-4.7-2.54-9.32-4.72-13.73c-2.03-4.1-4.91-8.13-6.02-12.6
				c-0.6-2.38-0.81-4.84-1.31-7.25c-0.5-2.39-1.45-4.44-2.53-6.61c-1.17-2.35-2.35-4.79-2.75-7.41c-0.2-1.31,0.17-2.5,0.09-3.76
				c-0.09-1.37-0.72-2.84-1.06-4.17c-0.72-2.8-1.45-5.6-2.17-8.39c-0.56-2.16-0.89-4.63-2-6.59c-0.43-0.76-1.02-1.36-1.75-1.83
				c-1.36-0.88-1.43-2.06-1.7-3.57c-0.47-2.7-0.79-5.43-1.22-8.13c-0.85-5.31-2.57-10.3-4.55-15.28
				c-4.01-10.08-9.07-19.66-13.59-29.5c-4.43-9.64-8.14-19.46-11.7-29.45c-3.57-10.01-7.35-19.95-11.75-29.62
				c-2.33-5.11-4.85-10.12-7.42-15.12c-2.14-4.17-3.88-8.71-7.19-12.11c-1.56-1.61-3.37-2.88-4.65-4.75
				c-1.39-2.03-2.25-4.37-2.53-6.81c-0.17,0.29-0.33,0.58-0.5,0.86c3.06-1.55,6.75-3.85,8.15-7.14c0.72-1.68,0.76-3.52,0.8-5.32
				c0.04-2,0.07-4.01,0.09-6.01c0.07-8.26-0.04-16.54-0.83-24.77c-0.04-0.4-0.28-0.89-0.73-0.96c-5.13-0.81-10.33-0.85-15.52-0.69
				c-5.37,0.17-10.83,0.26-16.08,1.54c-5.75,1.4-11.42,3.22-16.99,5.2c-4.12,1.47-8.5,1.75-10.4,6.35c-0.79,1.9-0.69,3.91-0.38,5.9
				c0.29,1.83-0.19,3.46-0.51,5.27c-0.12,0.68-0.45,1.27-0.58,1.94c-0.16,0.81,0.2,1.59,0.49,2.33c1.04,2.6-0.06,5.34-0.38,8
				c-0.28,2.33,0.32,4.05,1.38,6.08c1.35,2.6,0.81,5.12,0.52,7.92c-0.09,0.89-0.17,1.55,0.12,2.38c0.25,0.73,0.94,1.7,0.93,2.49
				c-0.01,0.89-0.62,1.99-0.77,2.9c-0.11,0.72-0.13,1.42-0.05,2.13c0.51,4.29,1.93,8.58,3.13,12.73c1.37,4.75,2.16,9.51,3.06,14.35
				c0.45,2.42,0.97,4.85,1.8,7.17c0.93,2.62,2.02,5.17,2.87,7.81c0.87,2.69,1.58,5.44,1.89,8.25c0.3,2.75,0.49,5.46,1.08,8.17
				c2.53,11.58,4.38,23.14,5.29,34.97c0.23,2.98,0.41,5.96,0.56,8.94c0.13,2.55,0.07,5.19,0.62,7.7c0.57,2.56,2.28,4.7,2.81,7.25
				c0.54,2.6-0.38,5.11-0.07,7.69c0.3,2.44,1.32,4.82,2.6,6.91c0.68,1.11,1.63,2.28,1.71,3.63c0.08,1.25-0.64,2.45-0.83,3.67
				c-0.39,2.49,0.67,4.99,1.35,7.34c0.82,2.81,1.52,5.66,2.12,8.53c2.38,11.36,3.16,22.97,3.74,34.54c0.15,2.92,0.28,5.85,0.42,8.77
				c0.12,2.55,0.02,5.26,0.52,7.77c0.48,2.36,2.25,4.21,3.32,6.32c0.57,1.13,1.13,2.32,1.42,3.56c0.18,0.77,0.31,1.69-0.07,2.43
				c-0.29,0.57-0.88,0.93-1.31,1.38c-1.78,1.8-0.9,4.04-0.13,6.14c0.93,2.53,2.07,4.99,2.61,7.65c0.48,2.35,0.13,5.42,1.62,7.42
				c0.65,0.87,1.37,1.46,1.59,2.56c0.32,1.57,0.32,3.28,0.46,4.87c0.27,2.91,0.53,5.81,0.8,8.72c0.09,1,0.03,2.28,0.52,3.21
				c0.48,0.91,1.51,1.48,2.41,1.89c2.18,0.98,4.67,1.25,7.02,1.52c2.93,0.33,5.89,0.42,8.83,0.33c5.38-0.16,11.12-0.62,16.37-1.93
				c1.86-0.47,3.73-1.36,4.61-3.16c1.05-2.16,0.73-5.06,0.82-7.39c0.12-2.99,0.23-5.98,0.35-8.97c0.11-2.93,0.42-5.16,2.4-7.42
				c1.55-1.77,2.5-3.41,2.58-5.82c0.09-2.77-0.08-5.58-0.16-8.34c-0.18-5.97-0.36-11.91,0.24-17.86c0.59-5.91,1.31-11.81,1.72-17.74
				c0.41-5.92,0.51-11.88-0.14-17.79c-0.63-5.82-1.59-11.61-2.54-17.39c-0.98-5.92-2.02-11.83-3.03-17.75
				c-0.51-2.99-0.55-5.61-0.2-8.62c0.14-1.25,0.27-2.5,0.23-3.75c-0.05-1.36-0.74-2.36-1.21-3.62c-0.39-1.05-1.11-1.97-1.48-2.99
				c-0.31-0.83,0.08-1.55,0.04-2.4c-0.05-0.88-0.64-1.59-0.84-2.44c-0.36-1.51-0.29-3.24-0.41-4.78
				c-0.45-6.01-0.92-12.02-1.43-18.03c-0.51-6.01-1.04-12.02-1.61-18.02c-0.56-5.95-1.35-11.91-1.58-17.89
				c-0.1-2.66,0.08-5.3,0.04-7.95c-0.04-2.28-0.28-4.55-0.29-6.83C411.44,475.09,409.44,475.09,409.45,476.38L409.45,476.38z"/>
		</g>
	</g>
	<g>
		<g>
			<path d="M414.31,386.45c0.37,1.22,0.74,2.44,1.1,3.66c0.18,0.59,0.36,1.18,0.53,1.77c0.17,0.55,0.29,1.16,0.64,1.63
				c0.67,0.9,2.09,1.11,3.09,1.44c1.15,0.37,2.31,0.74,3.46,1.09c1.2,0.37,2.39,0.73,3.59,1.09c0.58,0.17,1.16,0.34,1.74,0.51
				c0.55,0.16,1.07,0.33,1.61,0.01c0.39-0.23,0.64-0.7,0.92-1.05c0.37-0.46,0.76-0.91,1.17-1.34c0.76-0.82,1.56-1.59,2.39-2.33
				c0.94-0.85,2-1.61,2.88-2.51c0.48-0.49,0.58-1.03,0.63-1.7c0.06-0.68,0.11-1.37,0.16-2.05c0.1-1.28-1.9-1.28-2,0
				c-0.04,0.57-0.09,1.14-0.13,1.71c-0.01,0.13,0,0.52-0.01,0.57c-0.07,0.18-0.44,0.39-0.58,0.51c-0.79,0.67-1.59,1.35-2.36,2.05
				c-0.77,0.7-1.52,1.41-2.24,2.17c-0.36,0.38-0.7,0.76-1.04,1.16c-0.24,0.28-0.63,1-0.92,1.13c0.17-0.05,0.34-0.09,0.5-0.14
				c-0.24,0-0.65-0.18-0.92-0.26c-0.39-0.11-0.77-0.23-1.16-0.34c-0.77-0.23-1.55-0.46-2.32-0.69c-1.51-0.46-3.01-0.93-4.51-1.41
				c-0.7-0.22-1.47-0.39-2.14-0.7c-0.53-0.24-0.6-1.27-0.76-1.8c-0.47-1.57-0.95-3.15-1.42-4.72
				C415.87,384.69,413.94,385.21,414.31,386.45L414.31,386.45z"/>
		</g>
	</g>
	<g>
		<g>
			<path d="M471.97,402.19c-1.17-0.9-2.44-1.65-3.79-2.25c0.15,0.38,0.31,0.75,0.46,1.13c0.45-3.22,1.33-6.38,2.67-9.35
				c0.22-0.49,0.14-1.08-0.36-1.37c-0.43-0.25-1.14-0.14-1.37,0.36c-1.42,3.13-2.4,6.42-2.87,9.83c-0.06,0.4,0.03,0.94,0.46,1.13
				c1.35,0.6,2.62,1.35,3.79,2.25c0.43,0.33,1.12,0.07,1.37-0.36C472.63,403.04,472.4,402.52,471.97,402.19L471.97,402.19z"/>
		</g>
	</g>
	<g>
		<g>
			<path d="M470.73,403.82c0.37,0.24,0.76,0.43,1.17,0.6c0.43,0.18,0.92,0.39,1.4,0.26c0.43-0.12,0.69-0.47,0.98-0.77
				c0.24-0.25,0.53-0.51,0.78-0.7c1.04-0.79,2.38-1.36,3.61-1.51c0.54-0.07,1-0.41,1-1c0-0.49-0.46-1.07-1-1
				c-1.24,0.16-2.42,0.5-3.53,1.1c-0.53,0.28-1.02,0.62-1.49,1c-0.22,0.17-0.42,0.35-0.62,0.54c-0.11,0.11-0.22,0.22-0.33,0.34
				c-0.05,0.06-0.11,0.12-0.16,0.18c-0.08,0.09-0.09,0.09-0.02,0.01c0.17-0.05,0.34-0.09,0.5-0.14c-0.33,0.01-0.97-0.41-1.29-0.62
				c-0.46-0.29-1.1-0.1-1.37,0.36C470.09,402.94,470.27,403.54,470.73,403.82L470.73,403.82z"/>
		</g>
	</g>
	<g>
		<g>
			<path d="M341.84,396.08c0.16,0.94,0.24,1.95,0.5,2.87c0.28,0.98,1.11,1.17,1.99,1.35c1.36,0.29,2.7,0.61,4.06,0.91
				c0.44,0.1,0.92,0.24,1.38,0.26c0.63,0.02,1.13-0.45,1.55-0.87c1.39-1.39,2.85-2.66,4.48-3.78c0.37-0.25,0.58-0.68,0.46-1.13
				c-0.32-1.19-0.6-2.4-0.83-3.61c-0.24-1.26-2.17-0.73-1.93,0.53c0.23,1.21,0.5,2.42,0.83,3.61c0.15-0.38,0.31-0.75,0.46-1.13
				c-1.29,0.89-2.52,1.85-3.67,2.91c-0.45,0.41-0.87,0.86-1.31,1.28c-0.26,0.25-0.34,0.21,0.03,0.19c-0.14,0.01,0.28,0.05,0.07,0.01
				c-0.06-0.01-0.12-0.02-0.19-0.03c-0.9-0.18-1.8-0.39-2.7-0.6c-0.52-0.12-1.05-0.24-1.57-0.35c-0.42-0.09-1.13-0.11-1.47-0.36
				c0.12,0.12,0.24,0.24,0.36,0.36c-0.23-0.34-0.22-1-0.29-1.42c-0.09-0.51-0.18-1.03-0.27-1.54c-0.09-0.53-0.75-0.83-1.23-0.7
				C341.98,395,341.75,395.54,341.84,396.08L341.84,396.08z"/>
		</g>
	</g>
	<g>
		<g>
			<path d="M331.77,409.34c1.07,0.55,2.03,1.3,3.08,1.89c0.08,0.04,0.17,0.1,0.25,0.14c0.22,0.14,0.19,0.05-0.09-0.27
				c0,0.05,0,0.1,0,0.15c-0.04,0.19-0.02,0.4-0.04,0.59c-0.05,0.55-0.1,0.95-0.17,1.39c-0.14,0.94-0.3,1.88-0.53,2.8
				c-0.03,0.14-0.08,0.28-0.11,0.43c0,0.02-0.04,0.08-0.03,0.1c0.07-0.26,0.24-0.45,0.5-0.58c-0.1,0.03-0.2,0.06-0.3,0.08
				c-0.67,0.18-1.35,0.27-2.01,0.48c-1.22,0.39-0.7,2.32,0.53,1.93c0.57-0.18,1.16-0.28,1.74-0.41c0.64-0.15,1.22-0.29,1.46-0.96
				c0.21-0.58,0.31-1.22,0.42-1.83c0.19-0.99,0.34-1.99,0.45-3c0.04-0.38,0.08-0.76,0.08-1.14c-0.01-0.86-0.47-1.24-1.16-1.63
				c-1.05-0.59-2.01-1.34-3.08-1.89C331.63,407.02,330.62,408.75,331.77,409.34L331.77,409.34z"/>
		</g>
	</g>
	<g>
		<g>
			<path d="M482.92,677.94c2.13-0.07,4.27-0.15,6.4-0.22c1.07-0.04,2.14-0.07,3.21-0.11c1.09-0.04,2.2-0.12,3.28-0.01
				c0.99,0.1,2.01,0.42,2.73,1.14c0.37,0.37,0.68,0.87,0.7,1.41c0.02,0.56-0.35,0.96-0.75,1.3c-1.56,1.35-3.39,2.46-5.2,3.43
				c-1.07,0.57-2.17,1.08-3.29,1.53c-0.91,0.37-1.45,1.09-2.24,1.63c-0.53,0.36-0.03,1.22,0.5,0.86c0.38-0.25,0.7-0.56,1.04-0.87
				c0.43-0.39,0.84-0.6,1.37-0.83c1.06-0.44,2.11-0.93,3.12-1.47c1.04-0.56,2.05-1.17,3.03-1.83c0.9-0.61,1.89-1.24,2.66-2.02
				c1.59-1.63,0.33-3.84-1.42-4.7c-2.1-1.02-4.68-0.62-6.93-0.54c-2.74,0.09-5.47,0.19-8.21,0.28
				C482.28,676.96,482.27,677.96,482.92,677.94L482.92,677.94z"/>
		</g>
	</g>
	<g>
		<g>
			<path d="M509.86,682.37c-2.26,0.39-4.47,1.04-6.59,1.93c-1.03,0.43-2.04,0.92-3.02,1.46c-0.9,0.5-1.96,1.01-2.63,1.83
				c-0.52,0.65-0.68,1.52-0.03,2.15c0.69,0.68,1.94,0.95,2.85,1.15c2.34,0.51,4.8,0.55,7.18,0.64c2.89,0.11,5.78,0.12,8.67,0.13
				c0.64,0,0.64-1,0-1c-4.37-0.02-8.75-0.02-13.1-0.39c-1.01-0.09-2.02-0.21-3.01-0.48c-0.48-0.13-0.97-0.28-1.42-0.49
				c-0.6-0.28-0.74-0.64-0.3-1.15c0.6-0.7,1.61-1.15,2.4-1.59c0.87-0.48,1.76-0.91,2.67-1.3c2.12-0.9,4.34-1.54,6.61-1.94
				C510.76,683.23,510.49,682.26,509.86,682.37L509.86,682.37z"/>
		</g>
	</g>
	<g>
		<g>
			<path d="M515.87,682.12c1.72,0.01,3.43,0.18,5.12,0.52c0.26,0.05,0.54-0.08,0.62-0.35c0.07-0.25-0.08-0.56-0.35-0.62
				c-1.77-0.36-3.58-0.55-5.39-0.56C515.22,681.12,515.22,682.12,515.87,682.12L515.87,682.12z"/>
		</g>
	</g>
	<g>
		<g>
			<path d="M461.14,615.77c3.36,5.98,7.71,11.36,12.86,15.89c0.48,0.42,1.19-0.28,0.71-0.71c-5.09-4.47-9.39-9.78-12.71-15.68
				C461.69,614.7,460.82,615.2,461.14,615.77L461.14,615.77z"/>
		</g>
	</g>
	<g>
		<g>
			<path d="M360.35,574.11c1.28,1.94,2.93,3.63,4.56,5.27c0.79,0.8,1.59,1.59,2.39,2.37c0.36,0.35,0.71,0.68,1.22,0.75
				c0.66,0.09,1.34-0.25,1.95-0.45c5.84-1.93,11.64-4.01,17.39-6.21c3.25-1.25,6.48-2.54,9.7-3.88c0.59-0.24,0.33-1.21-0.27-0.96
				c-5.39,2.24-10.82,4.35-16.3,6.35c-2.74,1-5.49,1.96-8.25,2.9c-0.69,0.23-1.38,0.47-2.07,0.7c-0.31,0.1-0.62,0.2-0.92,0.31
				c-0.32,0.11-0.8,0.36-1.15,0.27c-0.43-0.11-0.86-0.73-1.17-1.03c-0.38-0.38-0.76-0.75-1.14-1.13c-1.8-1.79-3.67-3.62-5.08-5.75
				C360.86,573.07,360,573.57,360.35,574.11L360.35,574.11z"/>
		</g>
	</g>
	<g>
		<g>
			<path d="M368.7,648.58c2.81,2.97,5.79,5.78,8.92,8.41c0.71,0.59,1.46,1.15,2.13,1.79c0.57,0.55,1.16,1.4,0.64,2.18
				c-0.55,0.83-1.57-0.12-2.17-0.45c-0.75-0.41-1.56-0.78-2.42-0.89c-2.03-0.27-3.3,1.15-4.36,2.66c-0.37,0.53,0.5,1.03,0.86,0.5
				c0.51-0.72,1.05-1.51,1.85-1.93c0.97-0.51,2.05-0.22,2.99,0.22c0.8,0.38,1.62,1.14,2.53,1.23c0.69,0.07,1.29-0.33,1.63-0.92
				c0.9-1.57-0.39-2.99-1.54-3.94c-1.71-1.4-3.39-2.84-5.02-4.34c-1.83-1.69-3.61-3.44-5.32-5.25
				C368.96,647.41,368.26,648.12,368.7,648.58L368.7,648.58z"/>
		</g>
	</g>
	<g>
		<g>
			<path d="M401.41,522.37c1.99,3.45,3.76,7.01,5.27,10.69c0.37,0.9,0.73,1.81,1.07,2.72c0.3,0.8,0.58,1.62,1.09,2.31
				c0.49,0.65,1.17,1.05,1.84,1.48c0.79,0.5,1.29,1.16,1.72,1.98c1.04,1.98,1.79,4.12,2.35,6.29c0.16,0.62,1.12,0.36,0.96-0.27
				c-0.48-1.87-1.12-3.69-1.92-5.44c-0.37-0.8-0.74-1.6-1.3-2.29c-0.55-0.69-1.29-1.09-2-1.57c-0.8-0.54-1.22-1.28-1.56-2.17
				c-0.36-0.93-0.7-1.86-1.07-2.78c-0.73-1.81-1.52-3.6-2.37-5.37c-1-2.08-2.08-4.11-3.23-6.11
				C401.96,521.3,401.09,521.81,401.41,522.37L401.41,522.37z"/>
		</g>
	</g>
	<g>
		<g>
			<path d="M374.16,411.74c0.28,1.82,0.57,3.64,0.92,5.46c0.24,1.25,0.8,2.97,2.38,2.84c2.9-0.24,5.87-0.8,8.65-1.62
				c1.03-0.3,2.64-0.64,3.06-1.76c0.19-0.52,0.27-1.12,0.26-1.67c0-0.87-0.06-1.74-0.09-2.61c-0.14-3.97-0.28-7.94-0.43-11.92
				c-0.15-3.95-0.29-7.9-0.5-11.84c-0.04-0.84,0.02-1.82-0.2-2.63c-0.18-0.69-1.05-0.91-1.66-1.04c-1.2-0.25-2.45-0.3-3.67-0.34
				c-0.43-0.02-0.85-0.02-1.28-0.06c-0.64-0.05-0.64,0.95,0,1c0.97,0.08,1.95,0.07,2.92,0.14c0.85,0.06,2,0.07,2.73,0.56
				c0.12,0.08-0.06-0.11-0.01-0.01c0.04,0.07,0.01,0.1,0,0.01c0.01,0.14,0.03,0.28,0.04,0.41c0.04,0.46,0.07,0.92,0.09,1.39
				c0.2,3.51,0.33,7.02,0.46,10.53c0.15,3.98,0.3,7.97,0.43,11.95c0.04,1.23,0.08,2.46,0.13,3.69c0.02,0.67,0.16,1.72-0.25,2.26
				c-0.28,0.37-1.03,0.55-1.45,0.7c-0.7,0.24-1.41,0.44-2.13,0.62c-1.39,0.35-2.8,0.61-4.21,0.86c-0.65,0.11-1.3,0.21-1.95,0.29
				c-0.43,0.05-1.15,0.27-1.53-0.02c-0.67-0.52-0.76-1.54-0.9-2.3c-0.16-0.84-0.31-1.67-0.44-2.51c-0.14-0.87-0.28-1.75-0.42-2.63
				C375.02,410.84,374.06,411.11,374.16,411.74L374.16,411.74z"/>
		</g>
	</g>
	<g>
		<g>
			<path d="M468.17,401.03c-0.27,1.77-0.55,3.53-0.82,5.3c-0.12,0.8-0.22,1.47-0.81,2.07c-0.65,0.66-1.32,1.3-1.99,1.95
				c-0.61,0.6-1.14,1.36-2.06,1.36c-0.89,0-1.81-0.27-2.66-0.5c-1.72-0.46-3.41-1.01-5.12-1.49c-6.71-1.91-13.49-3.6-20.32-5.04
				c-0.88-0.19-2.06-0.2-2.63-0.98c-0.57-0.79-1.09-1.63-1.63-2.45c-1.15-1.73-2.3-3.46-3.45-5.19c-0.35-0.53-1.22-0.03-0.86,0.5
				c1.1,1.66,2.21,3.32,3.31,4.98c0.51,0.76,1.01,1.52,1.52,2.28c0.44,0.67,0.84,1.18,1.64,1.42c0.83,0.25,1.71,0.36,2.55,0.54
				c0.99,0.21,1.98,0.43,2.97,0.65c1.86,0.42,3.72,0.85,5.57,1.31c3.67,0.9,7.31,1.86,10.94,2.9c1.83,0.52,3.64,1.11,5.47,1.59
				c0.81,0.21,1.64,0.4,2.47,0.46s1.45-0.17,2.05-0.72c0.78-0.71,1.51-1.48,2.26-2.21c0.62-0.61,1.28-1.17,1.53-2.03
				c0.28-0.98,0.35-2.06,0.5-3.07c0.17-1.12,0.35-2.25,0.52-3.37C469.23,400.66,468.27,400.39,468.17,401.03L468.17,401.03z"/>
		</g>
	</g>
	<g>
		<g>
			<path d="M399.54,430.55c10.58-0.17,21.18,0.24,31.71,1.24c2.99,0.29,5.98,0.62,8.96,1c0.64,0.08,0.63-0.92,0-1
				c-10.5-1.33-21.07-2.09-31.66-2.25c-3.01-0.05-6.01-0.04-9.02,0.01C398.9,429.56,398.9,430.56,399.54,430.55L399.54,430.55z"/>
		</g>
	</g>
	<g>
		<g>
			<path d="M403.19,434.33c7.32,1.3,14.48,3.41,21.34,6.28c0.59,0.25,0.85-0.72,0.27-0.96c-6.86-2.87-14.02-4.98-21.34-6.28
				C402.83,433.25,402.56,434.21,403.19,434.33L403.19,434.33z"/>
		</g>
	</g>
	<g>
		<g>
			<path d="M372,430.15c-8.76-0.23-17.53,0.6-26.09,2.48c-0.48,0.11-0.47,0.85,0,0.96c2.98,0.7,6.01,1.15,9.07,1.34
				c0.64,0.04,0.64-0.96,0-1c-2.97-0.19-5.91-0.63-8.8-1.31c0,0.32,0,0.64,0,0.96c8.47-1.86,17.15-2.67,25.82-2.44
				C372.65,431.17,372.65,430.17,372,430.15L372,430.15z"/>
		</g>
	</g>
	<g>
		<g>
			<path d="M347.95,415.32c5.2,1.88,10.03,4.7,14.22,8.3c0.49,0.42,1.2-0.29,0.71-0.71c-4.33-3.72-9.29-6.61-14.66-8.55
				C347.61,414.14,347.35,415.11,347.95,415.32L347.95,415.32z"/>
		</g>
	</g>
	<g>
		<g>
			<path d="M470.98,427.66c2.93,9.26,5.26,18.71,6.98,28.27c0.11,0.63,1.08,0.36,0.96-0.27c-1.72-9.56-4.05-19-6.98-28.27
				C471.75,426.78,470.79,427.04,470.98,427.66L470.98,427.66z"/>
		</g>
	</g>
	<g>
		<g>
			<path d="M479.73,462.85c1.65,7.38,2.69,14.89,3.08,22.44c0.1,1.86,0.16,3.72,0.18,5.58c0.01,0.89,0.01,1.78,0,2.67
				c-0.01,0.87-0.08,1.76,0.04,2.62c0.11,0.79,0.46,1.46,0.88,2.13c0.5,0.78,1,1.56,1.47,2.35c0.91,1.53,1.77,3.09,2.57,4.68
				c0.45,0.9,0.88,1.81,1.29,2.73c0.18,0.41,0.26,0.65,0.62,0.92c0.35,0.27,0.66,0.58,0.91,0.95c0.92,1.37,1.29,3.04,2.14,4.45
				c0.33,0.55,1.2,0.05,0.86-0.5c-0.77-1.27-1.16-2.71-1.87-4.01c-0.3-0.54-0.68-1.05-1.15-1.45c-0.11-0.09-0.3-0.19-0.39-0.3
				c-0.12-0.14-0.18-0.39-0.26-0.56c-0.19-0.42-0.38-0.85-0.58-1.27c-0.76-1.61-1.58-3.19-2.46-4.74c-0.42-0.74-0.85-1.47-1.3-2.2
				c-0.48-0.77-1.04-1.51-1.45-2.33c-0.4-0.79-0.35-1.65-0.34-2.51c0.01-0.97,0.02-1.94,0.01-2.91c-0.01-1.86-0.06-3.72-0.15-5.58
				c-0.17-3.72-0.5-7.43-0.98-11.12c-0.54-4.14-1.26-8.25-2.17-12.32C480.56,461.96,479.59,462.22,479.73,462.85L479.73,462.85z"/>
		</g>
	</g>
	<g>
		<g>
			<path d="M481.9,506.3c3.15,6.68,6.22,13.39,9.21,20.15c0.26,0.59,1.12,0.08,0.86-0.5c-2.99-6.75-6.06-13.47-9.21-20.15
				C482.49,505.21,481.62,505.72,481.9,506.3L481.9,506.3z"/>
		</g>
	</g>
	<g>
		<g>
			<path d="M500.65,541.44c-0.03,4.83-0.24,9.63-1.15,14.38c-0.12,0.63,0.84,0.9,0.96,0.27c0.92-4.84,1.15-9.73,1.18-14.65
				C501.66,540.8,500.66,540.79,500.65,541.44L500.65,541.44z"/>
		</g>
	</g>
	<g>
		<g>
			<path d="M465.17,580.38c-0.97-0.93-1.85-1.94-2.62-3.04c-0.14,0.25-0.29,0.5-0.43,0.75c4.73,0.36,9.08,2.41,13.64,3.54
				c4.27,1.06,9.17,1.2,12.69,4.15c1.66,1.39,2.91,3.3,2.94,5.51c0.21-0.16,0.42-0.32,0.63-0.48c-2.32-0.39-4.59-1.01-6.86-1.59
				c-1.92-0.48-3.84-0.96-5.77-1.44c-3.89-0.96-7.77-1.92-11.65-2.9c-0.62-0.16-0.89,0.81-0.27,0.96c3.88,0.98,7.77,1.94,11.65,2.9
				c1.92,0.47,3.85,0.95,5.77,1.44c2.28,0.57,4.55,1.19,6.86,1.59c0.31,0.05,0.64-0.13,0.63-0.48c-0.06-4.29-3.79-7.29-7.53-8.6
				c-2.36-0.83-4.85-1.18-7.29-1.68c-2.45-0.51-4.82-1.29-7.2-2.05c-2.7-0.87-5.42-1.65-8.26-1.87c-0.36-0.03-0.64,0.45-0.43,0.75
				c0.82,1.17,1.74,2.25,2.77,3.24C464.93,581.53,465.64,580.82,465.17,580.38L465.17,580.38z"/>
		</g>
	</g>
	<g>
		<g>
			<path d="M402.46,520c-0.12-0.85-0.23-1.71-0.35-2.56c-0.05-0.39-0.11-0.78-0.16-1.16c-0.04-0.29-0.2-0.84-0.03-1.11
				c0.28-0.42,1.26-0.15,1.67-0.13c0.57,0.02,1.12-0.11,1.63-0.38c2.41-1.28,2.48-4.4,4.48-6.03c0.5-0.41-0.21-1.11-0.71-0.71
				c-1.1,0.9-1.64,2.2-2.25,3.44c-0.6,1.21-1.55,2.7-3.07,2.68c-1.05-0.02-2.55-0.3-2.78,1.14c-0.12,0.74,0.12,1.57,0.23,2.3
				c0.13,0.93,0.26,1.86,0.38,2.8C401.58,520.91,402.54,520.64,402.46,520L402.46,520z"/>
		</g>
	</g>
	<g>
		<g>
			<path d="M415.74,561.59c-0.52,1.81-2.89,0.67-3.9,0.11c-1.45-0.81-2.9-1.63-4.31-2.5c-2.81-1.73-5.48-3.69-7.66-6.19
				c-0.14-0.16-0.43-0.2-0.61-0.08c-3,2.06-6,4.11-9,6.17c-0.26,0.18-0.35,0.55-0.1,0.79c1.93,1.89,4.1,3.52,6.45,4.85
				c0.56,0.32,1.07-0.55,0.5-0.86c-2.28-1.29-4.38-2.86-6.25-4.7c-0.03,0.26-0.07,0.52-0.1,0.79c3-2.06,6-4.11,9-6.17
				c-0.2-0.03-0.4-0.05-0.61-0.08c2.51,2.89,5.68,5.07,8.95,7.01c0.82,0.49,1.65,0.96,2.48,1.43c0.8,0.45,1.59,0.95,2.47,1.23
				c1.4,0.45,3.19,0.04,3.64-1.53C416.88,561.23,415.92,560.97,415.74,561.59L415.74,561.59z"/>
		</g>
	</g>
	<g>
		<g>
			<path d="M397.15,565.09c0.64,0,0.64-1,0-1C396.5,564.09,396.5,565.09,397.15,565.09L397.15,565.09z"/>
		</g>
	</g>
	<g>
		<g>
			<path d="M384.45,664.78c2.89,2.93,5.79,5.85,8.68,8.78c0.57,0.58,1.15,1.3,2.01,1.4c0.97,0.11,2.07-0.18,3.04-0.29
				c2.04-0.23,4.08-0.47,6.12-0.7c2.33-0.27,4.65-0.53,6.98-0.8c0.39-0.05,0.6-0.39,0.43-0.75c-0.63-1.37-0.6-2.96,0.07-4.31
				c0.18-0.36-0.05-0.71-0.43-0.75c-4.94-0.57-9.82-1.6-14.56-3.07c-2.31-0.71-4.53-1.62-6.81-2.42c-1.8-0.63-4.02-0.75-5.22,1.01
				c-0.36,0.53,0.5,1.03,0.86,0.5c1.32-1.95,4.16-0.52,5.79,0.11c2.12,0.81,4.28,1.54,6.46,2.17c4.41,1.28,8.92,2.17,13.48,2.7
				c-0.14-0.25-0.29-0.5-0.43-0.75c-0.84,1.7-0.86,3.6-0.07,5.32c0.14-0.25,0.29-0.5,0.43-0.75c-5.02,0.58-10.04,1.15-15.05,1.73
				c-0.7,0.08-1.16,0.13-1.71-0.37c-0.47-0.43-0.91-0.92-1.36-1.37c-0.87-0.88-1.74-1.76-2.6-2.63c-1.79-1.81-3.59-3.63-5.38-5.44
				C384.71,663.61,384,664.32,384.45,664.78L384.45,664.78z"/>
		</g>
	</g>
	<g>
		<g>
			<path d="M400.13,691.81c-3.29-4.2-6.19-8.7-8.68-13.42c-0.3-0.57-1.16-0.06-0.86,0.5c2.53,4.8,5.49,9.35,8.83,13.62
				C399.82,693.02,400.52,692.31,400.13,691.81L400.13,691.81z"/>
		</g>
	</g>
	<g>
		<g>
			<path d="M508.66,637.2c-0.63,4-1.27,8-1.9,12c-0.12,0.78-0.19,1.63-0.52,2.36c-0.38,0.85-1.12,1.12-1.99,1.23
				c-1.88,0.23-3.72,0.51-5.55,1.01c-0.34,0.09-0.52,0.59-0.22,0.84c4.48,3.7,8.55,7.88,12.13,12.46c0.4,0.51,1.1-0.21,0.71-0.71
				c-3.58-4.58-7.65-8.76-12.13-12.46c-0.07,0.28-0.15,0.56-0.22,0.84c1.01-0.28,2.03-0.51,3.06-0.68c0.98-0.17,1.98-0.2,2.95-0.4
				c1.7-0.35,2.33-1.73,2.6-3.31c0.72-4.3,1.36-8.61,2.04-12.91C509.72,636.84,508.76,636.56,508.66,637.2L508.66,637.2z"/>
		</g>
	</g>
	<g>
		<g>
			<path d="M477.58,634.22c0.44,0.23,0.9,0.41,1.39,0.24c0.11-0.04,0.24-0.15,0.35-0.16c0.25-0.04,0.64,0.21,0.82,0.35
				c0.43,0.34,0.34,0.82,0.34,1.32c0,0.45-0.01,0.9-0.01,1.35c-0.01,0.98-0.02,1.97-0.04,2.95c-0.07,3.89-0.2,7.79-0.39,11.68
				c0.12-0.16,0.24-0.32,0.37-0.48c-1.82,0.42-2.79,2.06-3.22,3.75c-0.4,1.57-0.72,3.21-0.85,4.82c-0.05,0.64,0.95,0.64,1,0
				c0.11-1.38,0.39-2.78,0.71-4.13c0.35-1.49,0.95-3.09,2.62-3.48c0.22-0.05,0.36-0.27,0.37-0.48c0.21-4.22,0.34-8.44,0.4-12.66
				c0.01-1.02,0.02-2.05,0.03-3.07c0-0.82,0.1-1.67-0.59-2.25c-0.43-0.36-1.08-0.72-1.65-0.66c-0.55,0.06-0.58,0.34-1.16,0.05
				C477.51,633.06,477.01,633.92,477.58,634.22L477.58,634.22z"/>
		</g>
	</g>
	<g>
		<g>
			<path d="M463.9,525.87c3.18,3.45,6.84,6.44,10.86,8.85c0.55,0.33,1.06-0.53,0.5-0.86c-3.95-2.37-7.54-5.3-10.66-8.7
				C464.17,524.69,463.46,525.4,463.9,525.87L463.9,525.87z"/>
		</g>
	</g>
	<g>
		<g>
			<path d="M468.61,431.54c3.32,9.73,5.43,19.86,6.24,30.11c0.23,2.88,0.35,5.76,0.38,8.65c0.01,0.64,1.01,0.64,1,0
				c-0.1-10.33-1.48-20.64-4.11-30.63c-0.75-2.83-1.6-5.63-2.54-8.4C469.37,430.67,468.4,430.93,468.61,431.54L468.61,431.54z"/>
		</g>
	</g>
	<g>
		<g>
			<path d="M460.96,416.16c-1.43,0.61-2.67,1.76-2.68,3.41c-0.01,1.21,0.59,2.41,1.4,3.28c1.23,1.32,3.24,1.6,4.96,1.52
				c1.86-0.08,4.03-0.47,5.35-1.91c1.45-1.58,1.34-4.15-0.27-5.59c-0.48-0.43-1.19,0.28-0.71,0.71c1.17,1.04,1.37,2.93,0.31,4.12
				c-1.05,1.18-2.78,1.53-4.29,1.64c-1.47,0.11-3.35,0.04-4.48-1.03c-0.64-0.61-1.15-1.48-1.26-2.37c-0.19-1.47,0.93-2.4,2.17-2.93
				C462.05,416.77,461.54,415.91,460.96,416.16L460.96,416.16z"/>
		</g>
	</g>
	<g>
		<g>
			<path d="M333.44,399.92c8.55-3.45,17.36-6.22,26.35-8.26c2.54-0.57,5.08-1.09,7.64-1.55c0.53-0.1,0.83-0.74,0.7-1.23
				c-0.15-0.56-0.7-0.79-1.23-0.7c-9.07,1.63-18.01,3.98-26.7,7.04c-2.45,0.86-4.88,1.79-7.29,2.76c-0.5,0.2-0.85,0.67-0.7,1.23
				C332.34,399.7,332.94,400.12,333.44,399.92L333.44,399.92z"/>
		</g>
	</g>
	<g>
		<g>
			<path d="M395.25,386.96c11.2-0.27,22.4-0.29,33.6-0.04c5.56,0.12,11.11,0.31,16.67,0.56c2.77,0.12,5.53,0.26,8.29,0.42
				c2.62,0.15,5.24,0.32,7.83,0.78c5.01,0.88,10.22,2.89,13.3,7.16c0.32,0.44,0.87,0.65,1.37,0.36c0.43-0.25,0.68-0.93,0.36-1.37
				c-6.31-8.74-18.22-8.71-27.92-9.19c-11.39-0.57-22.8-0.86-34.21-0.89c-6.43-0.01-12.86,0.06-19.29,0.21
				C393.96,384.99,393.96,386.99,395.25,386.96L395.25,386.96z"/>
		</g>
	</g>
	<g>
		<g>
			<path d="M346.92,400.56c-0.49,1.67-0.98,3.34-1.47,5.01c-0.24,0.83-0.47,1.68-0.74,2.5c-0.14,0.42-0.27,0.61-0.68,0.8
				c-0.34,0.15-0.69,0.28-1.03,0.41c-2.57,0.97-5.27,1.69-7.74,2.91c-0.58,0.28-0.07,1.15,0.5,0.86c2.69-1.33,5.66-2.04,8.44-3.17
				c0.59-0.24,1.08-0.52,1.33-1.13c0.32-0.78,0.5-1.65,0.74-2.46c0.54-1.82,1.07-3.64,1.61-5.46
				C348.07,400.2,347.1,399.94,346.92,400.56L346.92,400.56z"/>
		</g>
	</g>
	<ellipse class="st13" cx="378.08" cy="391.52" rx="6.47" ry="7.72"/>
	<ellipse class="st13" cx="377.44" cy="391.11" rx="4.44" ry="5.3"/>
	
		<ellipse transform="matrix(0.9928 -0.1196 0.1196 0.9928 -46.1311 48.2454)" class="st14" cx="378.87" cy="408.44" rx="3.56" ry="4.24"/>
	<ellipse class="st13" cx="379.58" cy="408.47" rx="5.58" ry="6.66"/>
	<g>
		<g>
			<path d="M412.43,695.11c-0.88,0.41-1.92-0.17-2.73-0.5c-0.87-0.36-2.01-0.83-2.97-0.74c-0.43,0.04-0.71,0.31-1.03,0.57
				c-0.42,0.36-0.83,0.71-1.24,1.07c-0.86,0.74-1.71,1.47-2.57,2.21c-0.3,0.26-0.11,0.72,0.22,0.84c1.95,0.67,3.89,1.38,5.86,1.99
				c1.79,0.55,3.68,0.9,5.51,0.35c0.61-0.19,0.35-1.15-0.27-0.96c-1.8,0.54-3.63,0.09-5.37-0.47c-1.83-0.59-3.65-1.24-5.47-1.87
				c0.07,0.28,0.15,0.56,0.22,0.84c0.83-0.71,1.66-1.43,2.48-2.14c0.39-0.33,0.77-0.67,1.16-1c0.28-0.24,0.42-0.44,0.82-0.42
				c0.24,0.01,0.49,0.09,0.72,0.15c1.68,0.4,3.41,1.76,5.16,0.95C413.52,695.7,413.01,694.84,412.43,695.11L412.43,695.11z"/>
		</g>
	</g>
	<line class="st15" x1="372.63" y1="395.55" x2="374.1" y2="406.65"/>
</g>
</svg>
