<?xml version="1.0" encoding="utf-8"?>
<!-- Generator: Adobe Illustrator 28.0.0, SVG Export Plug-In . SVG Version: 6.00 Build 0)  -->
<svg version="1.1" id="Layer_1" xmlns="http://www.w3.org/2000/svg" xmlns:xlink="http://www.w3.org/1999/xlink" x="0px" y="0px"
	 viewBox="0 0 800 800" style="enable-background:new 0 0 800 800;" xml:space="preserve">
<style type="text/css">
	.st0{fill:#915A3E;}
	.st1{fill:#A6ABB5;}
	.st2{fill:#959AA3;}
	.st3{fill:#A36346;}
	.st4{fill:url(#SVGID_1_);}
	.st5{fill:url(#SVGID_00000081639584454161383500000016349601771643910829_);}
	.st6{fill:url(#SVGID_00000087387672558865224970000004694053488272652449_);}
	.st7{fill:url(#SVGID_00000158013434939482227330000000770213275980309416_);}
	.st8{fill:url(#SVGID_00000135688971668157694690000003158585628842289057_);}
	.st9{fill:#E1E1E5;}
	.st10{fill:#B8775A;}
	.st11{fill:none;stroke:#000000;stroke-width:2;stroke-miterlimit:10;}
	.st12{fill:none;stroke:#000000;stroke-width:0.5;stroke-linecap:round;stroke-linejoin:round;stroke-miterlimit:10;}
	.st13{fill:#FFFFFF;}
	.st14{fill:#FBEBD1;}
	.st15{fill:url(#SVGID_00000077325793658176689600000018362690051573023113_);}
	.st16{fill:url(#SVGID_00000178901114804300190820000012180722051659197608_);}
	.st17{fill:url(#SVGID_00000036973810908393199260000011636455689314701239_);}
	.st18{fill:url(#SVGID_00000054961326653157414630000014381944808613164418_);}
	.st19{fill:url(#SVGID_00000026128899398968710360000016285787514649423540_);}
	.st20{fill:none;stroke:#000000;stroke-width:2;stroke-linecap:round;stroke-miterlimit:10;}
</style>
<g id="_x30_-HAND_x2B_WP__x5B_PICKXEL_x5D_">
	<path class="st0" d="M576.55,148.08c0.61-1.42,0.7-3.03,0.48-4.56c-0.33-2.35-1.38-4.62-2.35-6.78c-0.22-0.5-0.46-1.01-0.85-1.39
		c-0.78-0.74-1.98-0.8-3.05-0.67c-3.49,0.43-7.01,0.62-10.51,1.09c-5.14,0.69-10.25,1.57-15.36,2.45
		c-10.46,1.81-20.94,3.58-31.4,5.35c-0.62,0.11-1.24,0.21-1.87,0.3c-5.52,0.83-11.02,1.75-16.53,2.68
		c-5.57,0.94-11.14,1.86-16.7,2.79c-2.78,0.47-5.57,0.93-8.36,1.38c-0.68,0.11-1.39,0.2-2.11,0.29c-1.95-0.49-5.11,0.38-6.45,0.55
		c-3.02,0.38-6.03,0.82-9.05,1.25c-6.33,0.9-12.64,1.84-18.96,2.78c-6.32,0.94-12.63,1.91-18.96,2.8c-3.06,0.43-6.11,0.86-9.17,1.3
		c-2.68,0.38-5.27,0.77-7.8,1.64c-1.59,0.26-3.17,0.52-4.75,0.75c-5.76,0.84-11.52,1.73-17.28,2.61c-11.3,1.72-22.6,3.44-33.9,5.16
		c-22.7,3.46-45.37,7.11-68.06,10.6c-6.3,0.97-12.6,1.94-18.9,2.91c-3.26,0.5-6.52,0.98-9.79,1.44c-2.75,0.39-5.54,0.69-8.25,1.35
		c-5.2,0.63-10.39,1.58-15.57,2.6c-0.21-0.08-0.44-0.12-0.69-0.1c-6.79,0.63-13.54,1.6-20.26,2.74c-3.37,0.57-6.72,1.17-10.08,1.8
		c-1.68,0.31-3.35,0.63-5.03,0.94c-1.46,0.28-2.85,0.27-4.29,0.48c-1.81,0.26-3.53,1.19-4.7,2.6c-1.53,1.83-2.09,4.43-1.46,6.73
		c0.21,0.78,0.55,1.52,0.94,2.22c0.68,1.25,1.54,2.42,2.69,3.26c1.62,1.18,4,1.47,5.85,0.68c0.63,0.11,1.33,0.07,1.98-0.04
		c10.38-1.8,20.88-2.84,31.29-4.57c3.91-0.65,7.83-1.3,11.74-1.97c6.6-1.14,13.16-2.57,19.79-3.57c6.76-1.02,13.51-2.11,20.27-3.12
		c0.82-0.12,1.64-0.25,2.45-0.37c6.81-1.03,13.62-2.11,20.43-3.2c3.38-0.54,6.86-0.88,10.2-1.63c3.06-0.69,5.96-0.36,9.07-0.46
		c1.63-0.05,3.24-0.3,4.85-0.56c2.95-0.48,5.89-1.01,8.84-1.54c6.55-1.18,13.21-1.92,19.72-3.2c6.64-1.3,13.29-2.49,19.96-3.61
		c6.75-1.13,13.51-2.2,20.27-3.23c3.38-0.51,6.77-1.02,10.15-1.53c1.69-0.25,3.38-0.5,5.08-0.75c1.38-0.2,2.99-0.74,4.37-0.73
		c0.87,0.01,1.77-0.19,2.62-0.35c1.56-0.29,3.12-0.57,4.69-0.85c1.5-0.27,3-0.53,4.5-0.78c1.1-0.19,2.46-0.25,3.61-0.63
		c1.19-0.17,2.38-0.34,3.57-0.52c6.08-0.92,12.16-1.84,18.24-2.76c11.95-1.81,23.91-3.55,35.86-5.3c3.37-0.49,6.74-0.99,10.11-1.48
		c3.45-0.5,6.97-0.61,10.44-1.21c3.65-0.63,7.28-1.44,10.94-2.03c4.71-0.75,9.47-1.14,14.2-1.76c4.94-0.65,9.84-1.55,14.72-2.53
		c2.26-0.45,4.48-0.89,6.75-1.15c2.43-0.29,4.86-0.64,7.29-0.96c3.28-0.43,6.55-0.93,9.82-1.43c1.87-0.28,3.67-0.85,5.54-1.05
		c2.03-0.22,4.05-0.46,6.05-0.88c0.74-0.15,1.5-0.34,2.08-0.81c0.46-0.37,0.78-0.89,1.01-1.42
		C576.53,148.11,576.54,148.1,576.55,148.08z"/>
	<path class="st0" d="M621.82,136.23c0.01-0.15,0.02-0.31,0.03-0.46c0.12-1.57-0.76-2.87-1.32-4.3c-0.29-0.74-0.44-1.59-1.02-2.14
		c-0.67-0.64-1.7-0.67-2.62-0.63c-2.84,0.11-5.54,0.57-8.3,1.2c-0.32,0.07-0.68,0.18-0.82,0.48c-0.11,0.22-0.05,0.49,0.01,0.73
		c0.53,2.06,1.16,4.09,1.49,6.19c0.16,1.02,0.2,2,0.21,3.02c0.01,0.76,0.28,1.5,0.18,2.28c-0.07,0.51-0.22,1.09,0.11,1.48
		c0.22,0.26,0.59,0.33,0.93,0.29c0.34-0.05,0.65-0.19,0.96-0.32c1.29-0.51,2.57-0.63,3.91-0.63c1.56,0,3.2-0.51,4.73-0.75
		c0.22-0.04,0.44-0.07,0.63-0.19c0.36-0.22,0.51-0.66,0.59-1.08C621.88,139.72,621.73,137.95,621.82,136.23z"/>
	<path class="st1" d="M540.34,46.21L539,53.78c0,0,27.18,23.69,38.3,77.8l-6.73,1.16l-1.18,1.61l2.2,0.13l2.23,0.87l1.66,2.58
		l0.99,3.23l0.5,4.89l-0.8,2.76l-2.73,1.55c0,0-1.34-0.22-1.37,0.35c-0.03,0.58,0.58,1.51,0.58,1.51l3.36,0.31l4.8-0.8l2.4,23.56
		l0.92,35.38c0,0-0.64,18.79-0.65,19.01s-1.51,22.43-2.19,26.68s-0.72,5.87-0.72,5.87l1.13-0.43l10.66-27.04l6.63-24.21
		c0,0,5.88-24.31,6.13-47.24l-0.14-15.32l2.73-0.81l2.01-2.34l-0.32-8.36l-2.83-7.8l-2.9-0.83l-4.95-29.14l-8.77-26.89L582.09,55
		l-8.83-13.7l-5.9-6.02l-3.88-0.2l-6.53,2.74L540.34,46.21z"/>
	<path class="st2" d="M593.2,170.34c0.02-0.16,0.03-0.32,0.04-0.48c0.29-3.16,0.55-6.28,0.59-9.46c0.03-1.97,0.06-3.94-0.13-5.9
		c-0.14-1.45-0.01-3.52-0.49-4.87c-3.62-0.21-7.73,0.67-11.28,1.41c-0.4,0.08-0.84,0.19-1.11,0.5c0.6,2.18,0.74,4.23,1.18,6.43
		c0.32,2.01,0.51,4.04,0.67,6.08c1.28,16.48,2.36,33.15,1.53,49.68c-0.33,6.67-0.84,13.31-0.76,20c0,0.28-0.01,0.56-0.01,0.83
		c-0.03,0.18-0.06,0.35-0.08,0.53c0,2.15-0.7,4.5-1,6.63c-0.32,2.31-0.61,4.63-0.8,6.96c-0.37,4.43-0.57,8.86-0.77,13.31
		c-0.01,0.32,0.01,0.71,0.29,0.87c2.14-2.91,3.37-6.4,4.22-9.91c1.52-6.35,2.35-12.81,3.21-19.28c0.33-2.45,1.1-5.23,1.02-7.67
		c-0.1-2.98-0.26-5.89-0.16-8.89c0.23-6.63,0.46-13.26,0.69-19.88c0.11-3.19,0.28-6.36,0.53-9.54c0.06-0.71,0.11-1.42,0.37-2.08
		c0.55-1.44,1.94-2.39,2.68-3.73l1.64-6.51c-2.58,2.99-5.16,5.97-7.74,8.96c0,0,1.35-6.32,3.34-8.83c0.57-0.72,1.22-1.41,1.63-2.23
		C592.95,172.36,593.1,171.35,593.2,170.34z"/>
	<path class="st2" d="M577.01,131.88c-3.22-11.91-4.95-24.3-9.83-35.63c-1.71-3.98-3.8-7.78-5.88-11.58
		c-4.34-7.92-8.43-15.46-14.61-22.12c-2.05-2.21-4.1-4.42-6.16-6.63c-0.44-0.47-0.91-1.1-0.65-1.69c0.15-0.36,0.53-0.56,0.88-0.74
		c2.06-1.03,4.21-1.94,6.23-3.04c1.64-0.89,3.3-1.8,5.01-2.57c-1.13,2.28-1.7,4.83-1.63,7.37c0.6-0.74,8.63-8.32,8.84-8.42
		c-0.93,4.05-0.57,11.62,0.33,12.81c0.61-0.94,12.58,5.1,13.69,5.19l-9.63,0.19c0,0,10.5,20.95,11.92,24.4
		c1,2.44,2.19,4.79,3.56,7.05c0.2,0.33,0.41,0.67,0.72,0.91c0.39,0.31,6.79,15.82,7.9,18.1c-0.79-0.21-1.57-0.41-2.36-0.62
		c0.06,1.07,2.55,13.14,3.42,15.28c-3.11,0.51-6.22,1.01-9.32,1.52C578.61,131.79,577.84,131.86,577.01,131.88z"/>
	<path class="st3" d="M576.87,141.47c-0.1-0.45-0.35-0.9-0.53-1.33c-0.15-0.34-0.29-0.69-0.44-1.03c-0.07-0.17-0.14-0.33-0.21-0.5
		c-0.04-0.1-0.08-0.19-0.14-0.28c-0.16-0.27-0.38-0.42-0.62-0.6c-0.35-0.25-0.85-0.23-1.22-0.07c-0.32,0.14-0.58,0.39-0.72,0.71
		c-0.31-0.05-0.63-0.08-0.94-0.07c-3.3,0.1-6.72,1.09-9.94,1.73c-6.92,1.37-13.83,2.81-20.81,3.8c-5.24,0.74-10.5,1.26-15.76,1.82
		c-4.84,0.51-9.72,1.74-14.54,2.6c-0.95,0.17-1.92,0.35-2.79,0.79c-0.76,0.39-1.4,0.97-2.16,1.35c-0.72,0.36-1.52,0.52-2.32,0.63
		c-5.74,0.83-11.49-0.57-17.24-0.19c-5.63,0.37-11.34,1.51-16.89,2.54c-1.45,0.27-2.91,0.54-4.35,0.84
		c-5.25-0.23-10.51,0.58-15.66,1.53c-5.7,1.05-11.36,2.29-17.04,3.42c-3.65,0.72-7.29,1.54-10.96,2.18c-3.2,0.56-6.32,1.9-9.4,2.95
		c-0.61,0.21-1.25,0.43-1.7,0.9s-0.62,1.26-0.21,1.76c-11.95,1.14-23.97,2.28-35.55,5.46c-4.45,1.22-8.96,2.76-13.56,2.42
		c-4.39-0.32-8.79-2.46-13.24-1.65c-4.56,0.83-9.17,1.47-13.82,2.04c-9.92,1.22-19.83,2.58-29.7,4.22
		c-0.38-0.58-1.08-1.02-1.82-0.91c-11.12,1.53-22.19,3.3-33.28,5.04c-6.58,1.03-13.17,2-19.74,3.11c-3.28,0.55-6.56,1.16-9.83,1.78
		c-2.76,0.52-5.19,0.76-7.36,2.81c1.02-0.15,2.1,0.27,2.75,1.07c-5.72,1.76-11.47,3.52-17.38,4.47c-5.23,0.84-10.57,1.04-15.85,0.59
		c-2.51-0.21-5.13-1.04-7.63-1.09c-2.37-0.04-4.93,0.48-7.32,0.63c-0.47-0.67-1.28-1.1-2.31-0.87c-1.72,0.29-3.4,0.77-5.07,1.23
		c-0.3,0.08-0.54,0.22-0.75,0.4c-0.63,0.2-1.27,0.39-1.9,0.61c-0.16,0.06-0.27,0.14-0.4,0.22c-0.33,0.09-0.62,0.26-0.88,0.48
		c-0.28,0.14-0.53,0.34-0.7,0.61c-0.96,1.46-1,3.28-0.22,4.8c0.07,0.52,0.43,0.94,0.89,1.21c1.34,0.78,3.11,1.71,4.77,1.28
		c0.24-0.06,0.47-0.29,0.43-0.54c-0.02-0.13-0.11-0.25-0.19-0.35c-0.46-0.57-0.96-1.13-1.26-1.8c-0.3-0.67-0.38-1.49,0-2.12
		c0.46-0.77,1.54-1.04,2.36-0.69c0.82,0.35,1.37,1.21,1.46,2.1s-0.22,1.79-0.73,2.52c4.84,1.23,10.63-0.27,15.51-0.86
		c6.09-0.74,12.16-1.6,18.21-2.6c2.49-0.41,4.76-0.67,7.22-0.71c2.5-0.05,4.94-1.7,7.22-2.55c1.64-0.61,3.35-0.99,5.05-1.41
		c4.15-1.02,8.26-2.26,12.29-3.7c5.91-2.11,11.88-4.71,18.16-4.5c-0.76,0.76-1.51,1.53-2.27,2.29c10.44,0.3,21.06-1.69,31.39-3.04
		c4.67-0.61,9.34-1.24,14-1.92c1.84-0.26,3.57-0.25,5.33-0.81c2.01-0.63,4.04-1.13,6.13-1.4c2.1-0.28,4.4-0.43,5.97-1.85
		c-2.47-0.49-4.87-1.28-7.14-2.35c7.92-1.12,15.92-0.04,23.87,0c7.68,0.04,15.14-1.67,22.65-3.1c9.77-1.86,19.54-3.77,29.26-5.92
		c0.32-0.07,0.56-0.22,0.78-0.4c5.15-0.08,10.32-0.71,15.38-1.45c7.76-1.13,15.43-2.81,23.12-4.34c1.55-0.31,3.11-0.61,4.67-0.92
		c3.79-0.25,7.59-0.48,11.36-0.98c6.52-0.87,13.14-2.48,19.45-4.31c6.27-1.82,12.78-4.01,19.4-2.97c0.67,0.11,1.46,0.37,1.58,1.03
		c-0.8,0.81-1.59,1.61-2.39,2.42c6.64-1.36,13.28-2.71,19.92-4.07c3.03-0.62,6.14-1.27,8.7-2.99c1.38-0.92,2.56-2.13,3.98-2.98
		c4.03-2.42,9.14-1.61,13.74-0.63s9.61,2.01,13.82-0.07c-0.76-1.09-1.74-2.02-2.88-2.71c5.31-0.68,10.66,0.07,15.98,0.28
		c2.65,0.1,5.33,0.08,7.95-0.36c1.74-0.29,5.05-0.71,6.21-2.16c0.1-0.01,0.21-0.04,0.3-0.08c0.4-0.17,0.78-0.62,0.73-1.09
		C577.03,142.39,576.97,141.93,576.87,141.47z"/>
	<path class="st3" d="M620.68,136.5c0.45,0.08,0.88,0.19,1.31,0.36c-0.13-1.15-0.25-2.3-0.38-3.44c-0.03-0.28-0.07-0.58-0.27-0.77
		c-0.45-0.44-1.18,0.01-1.65,0.44c-0.68,0.63-1.41,1.23-2.28,1.54c-0.67,0.23-1.38,0.27-2.08,0.31c-1.01,0.06-2.03,0.12-3.04,0.17
		c-0.18,0.01-0.4-0.02-0.44-0.19c-0.02-0.08,0.02-0.16,0.06-0.24c0.12-0.24,0.24-0.48,0.36-0.73c-1.1-0.04-2.2-0.03-3.3,0.03
		c0.24,2.37,0.31,4.82,3.34,4.98c1.23,0.07,2.45-0.44,3.64-0.68c0.83-0.17,1.66-0.38,2.49-0.58c-0.55-0.61-1.31-1.02-2.12-1.18
		C617.77,136.38,619.26,136.25,620.68,136.5z"/>
	<linearGradient id="SVGID_1_" gradientUnits="userSpaceOnUse" x1="379.2002" y1="198.5345" x2="369.2509" y2="130.8795">
		<stop  offset="0" style="stop-color:#1D1D1B"/>
		<stop  offset="0.0994" style="stop-color:#201F1C;stop-opacity:0.7708"/>
		<stop  offset="0.1777" style="stop-color:#2A241F;stop-opacity:0.5904"/>
		<stop  offset="0.2487" style="stop-color:#3B2D24;stop-opacity:0.4265"/>
		<stop  offset="0.3155" style="stop-color:#52392B;stop-opacity:0.2725"/>
		<stop  offset="0.3787" style="stop-color:#704934;stop-opacity:0.1268"/>
		<stop  offset="0.4337" style="stop-color:#915A3E;stop-opacity:0"/>
	</linearGradient>
	<polygon class="st4" points="174.39,199.99 575.48,137.92 576.97,146.05 574.97,150.26 181.24,210.67 176.84,208.17 174.71,205.32 
			"/>
	
		<linearGradient id="SVGID_00000121970969893615421970000003511302140230544002_" gradientUnits="userSpaceOnUse" x1="585.4739" y1="155.4681" x2="582.959" y2="135.6845">
		<stop  offset="0" style="stop-color:#1D1D1B"/>
		<stop  offset="0.2044" style="stop-color:#434546;stop-opacity:0.7946"/>
		<stop  offset="0.4607" style="stop-color:#6E7176;stop-opacity:0.5371"/>
		<stop  offset="0.6874" style="stop-color:#8C9098;stop-opacity:0.3094"/>
		<stop  offset="0.8733" style="stop-color:#9FA4AD;stop-opacity:0.1226"/>
		<stop  offset="0.9953" style="stop-color:#A6ABB5;stop-opacity:0"/>
	</linearGradient>
	<path style="fill:url(#SVGID_00000121970969893615421970000003511302140230544002_);" d="M576.66,143.16
		c0.31,1.76,0.39,3.64-0.36,5.26s-2.53,2.87-4.28,2.51c-0.14,0.63,0.38,1.26,1,1.47s1.29,0.11,1.93,0.01
		c3.68-0.59,7.36-1.18,11.04-1.76c2.64-0.42,5.28-0.84,7.92-1.26c0.36-0.06,0.74-0.12,1.05-0.31c0.38-0.23,0.62-0.63,0.81-1.03
		c0.84-1.79,0.8-3.85,0.75-5.83c-0.04-1.56-0.09-3.13-0.48-4.64c-0.39-1.51-1.17-2.97-2.42-3.89c-1.9-1.4-4.49-1.34-6.82-0.95
		c-3.77,0.63-7.38,1.93-10.97,3.23c-1.3,0.47-0.23,1.73-0.06,2.7C576.06,140.16,576.33,141.67,576.66,143.16z"/>
	
		<linearGradient id="SVGID_00000009564866855448637050000018317076204270483633_" gradientUnits="userSpaceOnUse" x1="608.1257" y1="154.1323" x2="606.4186" y2="131.2333">
		<stop  offset="0" style="stop-color:#1D1D1B"/>
		<stop  offset="0.2047" style="stop-color:#434546;stop-opacity:0.7946"/>
		<stop  offset="0.4614" style="stop-color:#6E7176;stop-opacity:0.5371"/>
		<stop  offset="0.6884" style="stop-color:#8C9098;stop-opacity:0.3094"/>
		<stop  offset="0.8746" style="stop-color:#9FA4AD;stop-opacity:0.1226"/>
		<stop  offset="0.9968" style="stop-color:#A6ABB5;stop-opacity:0"/>
	</linearGradient>
	<path style="fill:url(#SVGID_00000009564866855448637050000018317076204270483633_);" d="M604.76,146.98
		c0.01,0.12,0.03,0.25,0.1,0.35c0.08,0.11,0.2,0.16,0.33,0.2c1.13,0.38,2.37,0.01,3.44-0.51c0.26-0.12,0.51-0.26,0.7-0.48
		c0.3-0.34,0.37-0.81,0.42-1.26c0.35-2.94,0.29-5.93-0.19-8.85c-0.19-1.15-0.45-2.32-1.11-3.28c-0.66-0.96-1.79-1.67-2.95-1.52
		c-2.02,0.26-1.32,4.8-1.3,6.22C604.26,140.9,604.45,143.95,604.76,146.98z"/>
	
		<linearGradient id="SVGID_00000006687226724163126070000011130285432372739756_" gradientUnits="userSpaceOnUse" x1="616.9185" y1="146.7809" x2="612.9155" y2="121.5861">
		<stop  offset="0" style="stop-color:#1D1D1B"/>
		<stop  offset="0.0994" style="stop-color:#201F1C;stop-opacity:0.7708"/>
		<stop  offset="0.1777" style="stop-color:#2A241F;stop-opacity:0.5904"/>
		<stop  offset="0.2487" style="stop-color:#3B2D24;stop-opacity:0.4265"/>
		<stop  offset="0.3155" style="stop-color:#52392B;stop-opacity:0.2725"/>
		<stop  offset="0.3787" style="stop-color:#704934;stop-opacity:0.1268"/>
		<stop  offset="0.4337" style="stop-color:#915A3E;stop-opacity:0"/>
	</linearGradient>
	<path style="fill:url(#SVGID_00000006687226724163126070000011130285432372739756_);" d="M609.52,138.59
		c-0.08,1.77-0.31,3.55,0.02,5.29c0.03,0.18,0.09,0.38,0.24,0.49c0.16,0.11,0.38,0.07,0.57,0.03c3.15-0.7,6.3-1.4,9.45-2.11
		c0.33-0.07,0.67-0.15,0.96-0.32c0.83-0.48,1.1-1.54,1.19-2.5c0.18-1.85,0-3.72-0.18-5.58c-0.04-0.45-0.09-0.92-0.34-1.3
		c-0.46-0.72-1.43-0.88-2.28-0.91c-3.03-0.09-6,0.68-8.99,1c-1.45,0.16-1.47,0.54-1.06,1.8
		C609.53,135.81,609.58,137.2,609.52,138.59z"/>
	
		<linearGradient id="SVGID_00000071545546960420247050000008048631128761279616_" gradientUnits="userSpaceOnUse" x1="596.6938" y1="248.5206" x2="581.923" y2="91.7738">
		<stop  offset="0" style="stop-color:#1D1D1B;stop-opacity:0.7"/>
		<stop  offset="0.0521" style="stop-color:#3D3E3F;stop-opacity:0.6635"/>
		<stop  offset="0.1094" style="stop-color:#595B5E;stop-opacity:0.6234"/>
		<stop  offset="0.1743" style="stop-color:#71747A;stop-opacity:0.578"/>
		<stop  offset="0.2476" style="stop-color:#858990;stop-opacity:0.5267"/>
		<stop  offset="0.3332" style="stop-color:#9498A1;stop-opacity:0.4667"/>
		<stop  offset="0.4391" style="stop-color:#9EA3AC;stop-opacity:0.3926"/>
		<stop  offset="0.5876" style="stop-color:#A4A9B3;stop-opacity:0.2887"/>
		<stop  offset="1" style="stop-color:#A6ABB5;stop-opacity:0"/>
	</linearGradient>
	<path style="fill:url(#SVGID_00000071545546960420247050000008048631128761279616_);" d="M594.27,132.49
		c-0.8-1.25-1.93-2.17-3.55-2.51c-2.09-0.44-4.25,0.08-6.36,0.41c-2.07,0.33-4.16,0.48-6.26,0.46c-0.3,0-0.64-0.02-0.86-0.23
		c-0.18-0.16-0.24-0.41-0.3-0.65c-0.91-3.73-1.83-7.45-2.74-11.18c-0.83-3.37-1.93-6.3-3.09-9.52c-2.61-7.21-5.23-14.41-7.84-21.62
		c-0.08-0.22-0.16-0.48-0.05-0.69c0.09-0.18,0.29-0.27,0.48-0.35c8.58-3.64,17.5-7.34,26.82-7.08c0.72,0.02,1.5,0.08,2.06,0.54
		c0.49,0.39,0.72,1.01,0.93,1.6c2.06,5.78,3.6,11.74,5.13,17.68c1.31,5.1,2.61,10.23,3.05,15.5c0.4,4.87,1.67,9.62,2.1,14.48
		c0.4,4.55,0.36,9.2,0.58,13.78c0.25,5.16,0.5,10.33,0.75,15.49l-2.25,31.15c-0.09,0.87-2.49,15.33-2.72,16.17
		c-1.71,6.29-9.37,33.48-9.48,33.82c-0.13,0.38-9.94,24.12-9.73,23.66c0.22-0.46,2.74-39.75,2.74-39.75v-40.3l-2.37-27.78
		l-0.73-3.91l14.39-2.6l1.57-4.69C596.18,141.14,596.33,135.72,594.27,132.49z"/>
	<path class="st9" d="M595.21,134.34c-0.17-0.39-0.38-0.76-0.61-1.11c0.02-0.05,0.05-0.09,0.05-0.15c0.06-1.1-0.79-2.01-1.73-2.45
		c-0.55-0.26-1.12-0.4-1.73-0.46c-0.61-0.06-1.18,0.03-1.78,0.11c-0.18,0.02-0.23,0.21-0.18,0.37c-0.8,0.04-1.62,0.16-2.45,0.27
		c-2.72,0.37-5.44,0.73-8.16,1.13c-1.36,0.2-2.72,0.38-4.07,0.6c-1.39,0.22-2.85,0.35-4.2,0.74c-0.68,0.19-0.54,1.22,0.17,1.23
		c1.25,0.01,2.52-0.22,3.76-0.36c0.75-0.08,1.49-0.18,2.23-0.28c0.57,0.23,1.15,0.43,1.73,0.64c0.07,0.03,0.15,0.06,0.22,0.09
		c0.74,0.35,1.46,0.75,2.13,1.21c1.24,0.84,2.23,1.88,3.25,2.94c-0.26-0.51-0.51-1.03-0.8-1.52c-0.17-0.29-0.34-0.58-0.51-0.87
		c-0.46-0.42-0.94-0.81-1.43-1.16c-0.24-0.18-0.5-0.35-0.76-0.52c0.06-0.03,0.12-0.05,0.17-0.09c0.46-0.34,0.78-0.78,1.3-1.06
		c0.65-0.35,1.38-0.51,2.11-0.63c0.45-0.06,0.91-0.12,1.36-0.18c1.2-0.16,2.41-0.35,3.62-0.48c1.12-0.12,2.19-0.1,3.15,0.53
		c0.82,0.54,1.44,1.38,1.93,2.21c0.53,0.91,0.81,2.03,1.48,2.83c0.22,0.27,0.61,0.03,0.63-0.26
		C596.15,136.55,595.64,135.32,595.21,134.34z"/>
	<path class="st10" d="M621.71,131.33c-0.38-0.78-0.99-1.31-1.7-1.64c-0.09-0.17-0.26-0.31-0.49-0.31c-0.11,0-0.23,0.01-0.34,0.01
		c-1.07-0.28-2.26-0.27-3.3-0.13c-1.29,0.17-2.58,0.36-3.86,0.56c-0.67,0.11-1.34,0.2-2.01,0.33c-0.6,0.12-1.31,0.18-1.82,0.55
		c-0.35,0.25-0.3,0.75,0.12,0.9c0.06,0.02,0.12,0.03,0.19,0.04c-0.02,0.13,0,0.27,0.1,0.4c0.51,0.61,1.35,0.71,2.08,0.51
		c1.09,0.49,2.2,0.94,3.34,1.28c0.6,0.18,1.15-0.17,1.72-0.33c0.71-0.2,1.45-0.31,2.18-0.36c0.23-0.02,0.23-0.35,0-0.36
		c-0.64-0.02-1.27,0.03-1.9,0.15c-0.33,0.06-0.65,0.15-0.96,0.25c-0.34,0.11-0.59,0.23-0.96,0.14c-1.02-0.24-2.02-0.57-3.02-0.91
		c0.36-0.18,0.67-0.43,1.03-0.62c0.39-0.22,0.83-0.34,1.26-0.43c1.53-0.31,3.1-0.33,4.65-0.53c0.17,0.02,0.33,0.02,0.5,0.06
		c0.91,0.19,1.69,0.72,2.47,1.19C621.47,132.33,621.93,131.78,621.71,131.33z"/>
	<path class="st10" d="M575.4,136.87c-1.19-2.97-5.26-1.7-7.65-1.37c-3.52,0.48-7.04,0.95-10.56,1.42
		c-3.45,0.46-6.91,0.86-10.35,1.37c-0.37,0.05-0.72,0.12-1.07,0.25c-0.36,0.14-0.67,0.38-1.04,0.45c-0.74,0.15-1.57-0.15-2.34-0.03
		c-1.41,0.22-2.67,0.97-3.74,1.88c-1.33,1.15-2.41,2.56-3.72,3.74c-0.38,0.34-0.71,0.64-1.25,0.63c-0.36-0.01-0.73-0.18-1.07-0.27
		c-0.55-0.15-1-0.1-1.5,0.18c-0.07,0.04-0.04,0.16,0.04,0.15c1.1-0.02,2.01,1.02,3.18,0.79c1.16-0.22,2.13-1.49,2.92-2.29
		c1.07-1.09,2.2-2.18,3.58-2.87c0.43-0.22,0.89-0.39,1.36-0.49c0.7,0.22,1.48,0.24,2.19,0.41c0.82,0.19,1.59,0.55,2.4,0.77
		c1.65,0.45,3.41,0.18,5.04-0.25c0.12-0.03,0.1-0.22-0.03-0.21c-0.85,0.07-1.72,0.16-2.57,0.17c-0.94,0.01-1.79-0.21-2.67-0.53
		c-0.41-0.15-0.81-0.3-1.21-0.44c0.55-0.17,1.04-0.5,1.62-0.6c0.84-0.14,1.69-0.23,2.53-0.35c1.67-0.23,3.34-0.46,5.01-0.69
		c3.07-0.42,6.13-0.84,9.2-1.25l-0.01,0.01c-0.31,0.39-0.39,0.78-0.48,1.25c-0.16,0.76-0.49,0.88-1.15,1
		c-0.41,0.07-0.83,0.14-1.24,0.21c-1.8,0.32-3.61,0.55-5.41,0.85c-0.05,0.01-0.03,0.08,0.01,0.08c1.7-0.01,3.37-0.19,5.06-0.43
		c0.8-0.11,1.69-0.19,2.46-0.45c0.41-0.14,0.64-0.33,0.8-0.72c0.18-0.45,0.23-0.7,0.73-0.88c0.27-0.1,0.58-0.16,0.86-0.23
		c0.81-0.21,1.66-0.35,2.48-0.5c1.83-0.35,3.69-0.54,5.51-0.94c0.09-0.02,0.16-0.06,0.23-0.1c0.41,0.15,0.79,0.38,1.1,0.76
		C574.89,137.7,575.57,137.31,575.4,136.87z"/>
	<path class="st10" d="M538.7,139.66c-0.93-0.09-1.96,0.12-2.87,0.3c-0.99,0.2-1.99,0.4-2.99,0.58c-2.06,0.38-4.13,0.7-6.21,0.98
		c-0.93,0.12-1.87,0.22-2.79,0.4c-0.55,0.1-0.99,0.28-1.43,0.49c-0.15-0.03-0.29-0.08-0.44-0.1c-0.3-0.04-0.61-0.03-0.91,0
		c-0.32,0.02-0.65,0.07-0.96,0.15c-0.31,0.08-0.6,0.2-0.89,0.33c-0.08,0.04-0.12,0.1-0.13,0.17c-0.18-0.02-0.35-0.03-0.51-0.04
		c-0.27,0-0.52,0.01-0.78,0.03c-0.48-0.02-0.97-0.02-1.45,0.01c-1.63,0.1-3.24,0.35-4.86,0.57c-3.46,0.47-6.92,0.98-10.37,1.57
		c-3.39,0.58-6.77,1.22-10.14,1.91c-1.69,0.35-3.39,0.79-5.11,0.86c-1.61,0.07-3.19,0.13-4.78,0.38c-1.91,0.29-3.81,0.63-5.71,0.94
		c-1.97,0.32-3.95,0.58-5.88,1.06c-0.23,0.06-0.32,0.27-0.3,0.47c-2.69,0.41-5.38,0.85-8.06,1.3c-7.7,1.28-15.43,2.4-23.18,3.34
		c-4.3,0.53-8.67,0.84-12.93,1.56c-0.13,0.02-0.22,0.09-0.3,0.17c-1.13,0.02-2.25,0.03-3.38,0.07c-0.52,0.02-0.74,0.48-0.66,0.88
		c-6.77,0.69-13.48,1.86-20.2,2.92c-4.1,0.65-8.2,1.31-12.3,1.95c-2.07,0.32-4.14,0.6-6.24,0.67c-1.93,0.07-3.81,0.08-5.65,0.71
		c-1.06,0.36-2.08,0.82-3.17,1.08c-0.97,0.23-1.96,0.29-2.96,0.32c-2.04,0.07-4.19,0-6.12,0.79c-0.26,0.11-0.39,0.31-0.44,0.53
		c-0.66,0.11-1.33,0.18-1.95,0.07c-1.08-0.18-1.9-0.14-2.96,0.17c-1.15,0.33-2.3,0.65-3.47,0.92c-2.31,0.55-4.65,0.99-7.02,1.21
		c-1.14,0.11-2.27,0.18-3.4,0.31c-0.07-0.03-0.15-0.06-0.25-0.06c-0.41,0-0.75,0.1-1.06,0.25c-0.71,0.12-1.42,0.27-2.13,0.49
		c-0.11,0.03-0.19,0.09-0.26,0.16c0.06-0.22-0.11-0.49-0.36-0.39c-2.64,1.06-5.51,0.8-8.29,1.15c-3.18,0.39-6.35,1.01-9.51,1.59
		c-3.27,0.6-6.53,1.22-9.8,1.83c-0.06-0.19-0.22-0.34-0.49-0.34c-1.89,0.05-3.76,0.53-5.61,0.91c-0.89,0.18-1.77,0.37-2.66,0.54
		c-0.48,0.09-0.96,0.17-1.43,0.24c-0.45,0.07-0.9,0.09-1.3,0.31l0.02,0.02c-0.05,0.03-0.1,0.08-0.14,0.13
		c-0.14-0.06-0.27-0.13-0.41-0.16c-0.79-0.19-1.62-0.06-2.41,0c-1.83,0.13-3.65,0.3-5.47,0.54c-0.46,0.06-0.7,0.43-0.73,0.79
		c-0.23,0.06-0.47,0.1-0.68,0.09c-0.68-0.04-1.24-0.11-1.93,0c-1.48,0.24-2.96,0.52-4.44,0.77c-6.14,1.03-12.29,1.97-18.46,2.84
		c-1.7,0.24-3.38,0.52-5.1,0.52c-1.53,0.01-2.95-0.1-4.37,0.56c-0.18,0.08-0.25,0.24-0.23,0.39c-0.1,0.04-0.21,0.07-0.31,0.11
		c-0.16-0.26-0.45-0.44-0.8-0.37c-1.43,0.31-2.85,1-4.23,1.5c-0.36,0-0.74,0.03-1.1,0.07c-0.74,0.08-1.49,0.16-2.22,0.29
		c-0.17,0.03-0.26,0.16-0.29,0.31c-0.35,0.02-0.7,0.05-1.05,0.07c-3.1,0.23-6.2,0.52-9.29,0.86c-0.33,0.04-0.54,0.25-0.62,0.5
		c-1.83-0.02-3.67,0.18-5.49,0.41c-2.78,0.35-5.51,0.9-8.25,1.52c-1.33,0.3-2.61-0.03-3.94,0.16c-1.37,0.19-2.73,0.45-4.1,0.67
		c-1.41,0.23-2.83,0.43-4.24,0.71c-0.17,0.03-0.31,0.09-0.46,0.15c-1.58,0.27-3.14,0.57-4.7,0.96c-0.19,0.05-0.26,0.2-0.27,0.36
		c-0.8-0.01-1.59-0.02-2.39,0.04c-1.55,0.13-3.1,0.36-4.59,0.79c-0.11,0.03-0.2,0.08-0.27,0.13c-0.68,0.08-1.36,0.22-1.97,0.29
		c-1.33,0.15-2.67,0.35-4.01,0.43c-0.27,0.02-0.44,0.16-0.54,0.35c-0.03,0.01-0.07,0.01-0.1,0.02c-1.05,0.27-2.11,0.01-3.2,0.14
		c-1.11,0.13-2.23,0.29-3.34,0.44c-1.38,0.18-2.82,0.3-4.2,0.59c-0.08-0.24-0.31-0.42-0.63-0.31c-0.68,0.24-1.32,0.52-1.83,1.05
		c-0.04,0.04-0.06,0.08-0.09,0.11c-0.64,0.31-1.24,0.69-1.8,1.13c-0.45,0.15-0.93,0.33-1.27,0.64c-0.26,0.24-0.38,0.58-0.33,0.92
		c-0.05,0.06-0.11,0.12-0.16,0.18c-0.15,0.19-0.21,0.42-0.16,0.63c-0.11,0.2-0.21,0.4-0.3,0.61c-0.47,0.45-0.73,1.1-0.74,1.76
		c0,0.12,0.02,0.25,0.03,0.37c-0.2,0.47-0.31,1.03-0.19,1.5v0.01c-0.02,1.3,0.32,2.91,1.27,3.88c0.38,0.85,0.96,1.55,1.73,2.01
		c0.11,0.3,0.27,0.58,0.45,0.83c0.02,0,0.05,0,0.06,0c0.18,0.02,0.34,0.06,0.51,0.12c0.32,0.11,0.64,0.21,0.96,0.33
		c0.63,0.24,1.26,0.51,1.89,0.76c0.18,0.07,0.4,0.15,0.62,0.22c0.07-0.01,0.13-0.01,0.2-0.02c0.16-0.03,0.28-0.13,0.35-0.25
		c-0.64-0.09-1.26-0.29-1.79-0.58c-0.06-0.03-0.11-0.08-0.17-0.11c-0.01,0-0.01,0.01-0.02,0.01c-1.06,0.24-2.01-0.69-2.59-1.56
		c-0.36-0.04-0.71-0.22-0.89-0.55c-0.16-0.29-0.3-0.59-0.42-0.9c-0.05-0.06-0.08-0.13-0.13-0.19c0.08,0.06,0.15,0.11,0.23,0.17
		c0.1,0.07,0.2-0.08,0.13-0.16c-0.37-0.38-0.64-1.11-0.77-1.62c-0.13-0.53-0.1-1.12,0.06-1.64c0.15-0.51,0.43-0.98,0.81-1.35
		c0.38-0.36,0.84-0.61,1.15-1.04c0.04-0.06,0.06-0.12,0.1-0.17c0.16,0.64,0.16,1.29-0.04,1.91c-0.05,0.17-0.12,0.34-0.25,0.46
		c-0.11,0.11-0.24,0.17-0.33,0.3c-0.14,0.22-0.07,0.48,0.05,0.69c0.35,0.6,0.98,1.1,1.57,1.46c0.13,0.08,0.29-0.11,0.17-0.22
		c-0.28-0.25-0.55-0.51-0.81-0.77c-0.22-0.22-0.83-0.74-0.58-1.06c0.17-0.22,0.41-0.37,0.57-0.6c0.17-0.24,0.26-0.53,0.3-0.82
		c0.08-0.63-0.04-1.28-0.26-1.88c-0.06-0.17-0.13-0.34-0.21-0.5c-0.02-0.12-0.04-0.25-0.08-0.37c-0.16-0.52-0.07-0.87,0.27-1.31
		c0.39-0.51,0.92-0.94,1.48-1.31c0.05-0.01,0.1-0.02,0.15-0.03c0.19-0.03,0.36-0.04,0.54-0.11c0.14-0.05,0.25-0.14,0.4-0.18
		c0.05-0.02,0.1-0.05,0.13-0.09c0.11,0.04,0.22,0.08,0.33,0.13c0.69,0.32,1.28,0.87,1.74,1.48c0.11,0.15,0.21,0.3,0.29,0.46
		c0.38,0.27,0.73,0.59,0.95,1.01c0.18,0.12,0.28,0.34,0.22,0.56c0.03,0.1,0.06,0.2,0.07,0.29c0.4,1.05,0.5,2.23,0.43,3.33
		c-0.07,1.09-0.46,2.4-1.3,3.17c-0.1,0.09,0.03,0.24,0.14,0.18c0.58-0.33,0.98-0.64,1.3-1.25c0.31-0.6,0.48-1.26,0.59-1.92
		c0.23-1.48,0.28-3.17-0.34-4.56c-0.65-1.45-1.96-2.65-3.41-3.26c-0.21-0.09-0.46-0.16-0.73-0.23c0.02-0.06,0.02-0.13,0.02-0.19
		c0.13-0.1,0.25-0.22,0.29-0.37c0.37,0,0.74,0.01,1.12,0.06c1.32-0.25,2.67-0.4,4-0.57c0.94-0.12,1.87-0.26,2.81-0.35
		c0.89-0.08,1.83,0.16,2.7-0.05c1.02-0.24,1.81-0.55,2.88-0.38c0.66,0.11,1.52,0.53,2.17,0.27c0.02,0.01,0.04,0.02,0.07,0.04
		c0.68,0.24,1.59-0.22,2.25-0.4c0.97-0.26,1.94-0.52,2.92-0.71c0.98-0.2,1.97-0.33,2.96-0.4c0.91-0.06,1.84,0.03,2.75-0.05
		s1.98-0.45,2.52-1.21c0.07-0.05,0.14-0.08,0.21-0.13c1.07-0.87,2.66-0.87,3.99-1.09c1.36-0.23,2.72-0.46,4.09-0.69
		c0.66-0.11,1.33-0.24,2.01-0.21c0.65,0.02,1.27,0.18,1.92,0.15c1.61,0.45,3.21,0.88,4.86,1.21c0.35,0.07,0.77,0.15,1.11-0.02
		c0.13-0.07,0.13-0.1,0.21-0.17c0.3-0.25,0.59-0.41,0.96-0.56c0.97-0.39,2.03-0.55,3.05-0.74c0.05-0.01,0.04-0.1-0.01-0.09
		c-0.91,0.1-1.83,0.21-2.7,0.52c-0.41,0.14-0.76,0.36-1.15,0.53c-0.55,0.24-1.11,0.12-1.67-0.01c-1.21-0.29-2.42-0.55-3.63-0.79
		c1.02-0.18,2.03-0.48,3.04-0.69c1.34-0.28,2.69-0.53,4.04-0.77c2.55-0.44,5.15-0.66,7.69-1.16c2.34-0.12,4.69-0.17,7.03-0.13
		c1.12,0.02,2.23,0.1,3.34,0.09c1.05,0.41,2.2,0.66,3.26,0.83c0.82,0.13,1.65,0.24,2.47,0.1c0.94-0.15,1.84-0.53,2.76-0.78
		c1.92-0.52,3.86-0.93,5.82-1.26c2-0.33,4.03-0.52,6.01-0.93c0.15-0.03,0.11-0.26-0.04-0.26c-3.64-0.21-7.41,0.64-10.95,1.41
		c-1.69,0.37-3.47,1.06-5.22,0.88c-0.5-0.05-0.99-0.14-1.47-0.25c0.27-0.06,0.54-0.13,0.8-0.22c2.09-0.68,3.93-1.94,6-2.65
		c1.17-0.41,2.32-0.05,3.52-0.18c0.68-0.07,1.33-0.22,1.97-0.42c0.82-0.04,1.64-0.13,2.45-0.24c3-0.4,6.01-0.83,9-1.29
		c1.16-0.18,2.32-0.38,3.48-0.57c-1.15,0.69-2.3,1.39-3.62,1.77c-1.71,0.5-3.73,0.57-5.32,1.4c-0.09,0.05-0.04,0.18,0.05,0.18
		c1.67,0.11,3.52-0.61,5.07-1.18c1.72-0.64,3.38-1.39,5.07-2.11c0.47-0.2,0.96-0.37,1.45-0.51c0.87-0.15,1.75-0.28,2.62-0.43
		c0.55-0.09,1.09-0.19,1.64-0.29c0.84-0.07,1.67-0.12,2.51-0.14c0.93-0.03,1.97,0.07,2.86-0.21c0.23-0.07,0.35-0.26,0.41-0.46
		c0.32,0.04,0.64,0.08,0.96,0.02c0.76-0.15,1.51-0.49,2.26-0.69c0.72-0.19,1.44-0.35,2.17-0.46c0.24-0.04,0.48-0.05,0.71-0.07
		c0.18-0.01,0.36-0.03,0.54-0.05c0.89-0.04,1.77-0.02,2.66-0.06c0.01,0,0.01,0,0.02,0.01c1.08,0.64,2.21,1.21,3.44,1.44
		c0.73,0.14,1.49,0.18,2.24,0.09c1-0.12,1.97-0.46,2.98-0.53c3.48-0.25,7.09,0.77,10.5-0.32c0.13-0.04,0.08-0.23-0.05-0.2
		c-3.47,0.73-6.94-0.03-10.45,0.23c-1.39,0.1-2.84,0.32-4.25,0.22c-0.01-0.01-0.01-0.01-0.02-0.02c-0.02-0.03-0.05-0.07-0.02-0.02
		c-0.01-0.02-0.03-0.05-0.04-0.07c0-0.01,0,0,0-0.01l0,0c-0.01-0.03-0.02-0.05-0.02-0.08c0-0.02,0-0.03,0-0.05v-0.01
		c0-0.01,0.01-0.01,0.01-0.02c0.01-0.01,0-0.01,0.01-0.01c0.02-0.02,0.03-0.04,0.05-0.07c-0.12,0.15,0.02-0.01,0.06-0.04
		c0.01-0.01,0.03-0.02,0.05-0.04c0,0,0,0,0.01,0c0.07-0.06,0.15-0.11,0.22-0.17c0.14-0.11,0.27-0.22,0.4-0.34
		c0.03-0.03,0.05-0.06,0.08-0.09c0.46-0.1,0.91-0.2,1.36-0.29c1.67-0.33,3.34-0.65,5.01-0.97c6.6-1.27,13.21-2.51,19.81-3.84
		c1.7-0.34,3.37-0.43,5.08-0.6c1.39-0.13,2.87-0.44,3.9-1.44c-0.1,0.22-0.07,0.49,0.09,0.67c-0.02,0.05-0.04,0.09-0.05,0.14
		c-0.01,0.01-0.02,0.02-0.04,0.04c-0.02,0.02-0.04,0.05-0.06,0.07c-0.01,0-0.01,0.01-0.02,0.01l0,0c-0.03,0.04-0.06,0.07-0.09,0.11
		c-0.02,0.04-0.04,0.09-0.06,0.13c-0.02,0.05-0.01,0.1-0.01,0.15c-0.61,0.3-1.28,0.41-1.83,0.86c-0.68,0.56-1.14,1.3-1.92,1.74
		c-1.73,0.97-3.8,0.65-5.68,0.51c-1.26-0.1-3.45-0.36-4.15,1.04c-0.02,0.03,0.02,0.08,0.06,0.06c0.7-0.51,1.5-0.49,2.33-0.41
		c1.02,0.1,2.02,0.28,3.04,0.39c1.64,0.17,3.34,0.16,4.84-0.6c0.67-0.34,1.18-0.83,1.7-1.36c0.28-0.29,0.56-0.56,0.93-0.74
		c0.41-0.19,0.86-0.24,1.27-0.43c0.96-0.43,1.62-1.31,2.47-1.89c1.6-0.2,3.22-0.27,4.81-0.43c2.29-0.23,4.55-0.63,6.79-1.15
		c1.11-0.26,2.22-0.55,3.33-0.84c0.58-0.15,1.16-0.35,1.76-0.3c0.49,0.04,0.95,0.2,1.44,0.21c1.08,0.01,2.16-0.36,3.2-0.61
		c0.96-0.24,1.86-0.57,2.77-0.92c1.48-0.13,2.98-0.15,4.46-0.32c2.57,0.61,5.17,1.09,7.77,1.57c1.02,0.19,2.52,0.7,3.55,0.3
		c0.6-0.23,1.05-0.74,1.66-1c0.66-0.28,1.35-0.49,2.04-0.71c0.2-0.06,0.11-0.34-0.08-0.31c-1.18,0.17-2.12,0.44-3.08,1.16
		c-0.8,0.59-1.56,0.34-2.45,0.16c-0.75-0.15-1.49-0.29-2.24-0.43c-0.74-0.13-1.47-0.26-2.21-0.38c-0.19-0.07-0.38-0.15-0.55-0.25
		c-0.09-0.06-0.19-0.12-0.27-0.18c-0.01-0.01-0.02-0.02-0.03-0.03c0-0.01-0.01-0.02,0-0.03c0.13-0.1,0.4-0.3,0.43-0.32
		c0.2-0.12,0.41-0.22,0.61-0.33c0.42-0.23,0.82-0.41,1.18-0.56c0.24-0.09,0.46-0.17,0.68-0.26c0.53-0.03,1.06-0.03,1.59-0.04
		c2-0.03,3.99-0.24,5.97-0.52c5.85-0.83,11.67-1.82,17.5-2.8c-0.19,0.07-0.38,0.13-0.56,0.2c-1.2,0.45-2.37,0.93-3.4,1.72
		c-0.24,0.19-0.45,0.38-0.7,0.56c-0.46,0.33-0.83,0.36-1.38,0.44c-0.69,0.09-1.37,0.2-2.05,0.35c-1.64,0.34-3.27,0.74-4.89,1.14
		c-0.1,0.02-0.05,0.16,0.04,0.15c2.72-0.42,5.49-0.77,8.1-1.68c0.48-0.17,0.93-0.15,1.4-0.36c0.68-0.31,1.36-0.6,2.06-0.86
		c1.25-0.45,2.53-0.82,3.79-1.23c2.63-0.84,5.28-1.62,7.99-2.17c2.72-0.55,5.47-0.37,8.21-0.71c1.5-0.18,2.99-0.54,4.47-0.83
		c0.21-0.04,0.42-0.09,0.63-0.13c0.41-0.01,0.82-0.02,1.23-0.03c1.37-0.03,2.75-0.07,4.12-0.09c0.17,0,0.67-0.1,0.77-0.04
		c0.11,0.06,0.2,0.42,0.3,0.53c0.25,0.29,0.63,0.43,1,0.46c0.98,0.08,2.08-0.34,2.99-0.63c1.09-0.34,2.16-0.75,3.21-1.18
		c1.37-0.56,2.75-1.14,4.13-1.67c0.79-0.11,1.58-0.2,2.36-0.31c7.72-1.09,15.42-2.3,23.08-3.75c3.56-0.67,7.07-1.51,10.61-2.27
		c0.55-0.05,1.1-0.1,1.66-0.12c1.41,0.17,2.83,0.26,4.21,0.38l7.27,0.68c1.02,0.09,1.77,0.13,2.68-0.33
		c0.97-0.49,2.04-0.84,3.09-1.08c2.14-0.5,4.36-0.48,6.49-0.99c0.06-0.01,0.03-0.1-0.02-0.09c-2.16,0.43-4.34,0.49-6.51,0.79
		c-0.87,0.12-1.73,0.29-2.54,0.62c-0.55,0.22-1.05,0.45-1.66,0.49c-0.55,0.04-1.14-0.08-1.69-0.13c-0.98-0.09-1.96-0.19-2.95-0.28
		c-0.09-0.07-0.15-0.14-0.17-0.22c-0.01-0.02-0.02-0.1-0.01-0.03c-0.01-0.04,0-0.09,0-0.13c0-0.01,0-0.01,0-0.01s0,0,0-0.01
		c0.01-0.04,0.02-0.09,0.03-0.13c0-0.01,0-0.01,0-0.01c0-0.01,0-0.01,0.01-0.02c0.02-0.04,0.04-0.07,0.06-0.1
		c0.04-0.06,0.08-0.15,0.13-0.2c0.02-0.01,0.03-0.03,0.04-0.04c0.02-0.02,0.05-0.05,0.08-0.07c0.04-0.04,0.04-0.03-0.01,0.01
		c0.02-0.02,0.04-0.03,0.06-0.04c0.03-0.02,0.06-0.04,0.1-0.06c0.08-0.04,0.16-0.08,0.24-0.12c5.66-1.13,11.35-2.14,17.06-2.99
		c1.93-0.29,3.86-0.6,5.8-0.8c0.87-0.09,1.74-0.15,2.61-0.17c0.47-0.01,0.95-0.03,1.42-0.06c0.35-0.02,0.68-0.09,1.01-0.15
		c0.43,0.15,0.86,0.26,1.27,0.19c0.4-0.07,0.7-0.36,1.06-0.53c0.47-0.23,1.01-0.34,1.52-0.38c0.97-0.09,1.94-0.12,2.91-0.22
		c1.99-0.19,3.96-0.48,5.92-0.83c1.87-0.34,4.18-0.58,5.8-1.65C539.37,140.28,539.18,139.71,538.7,139.66z"/>
	<path class="st10" d="M241.56,189.06c-0.11-0.04-0.29,0-0.37,0.09c-0.61-0.01-1.24,0.09-1.84,0.16c-0.69,0.08-1.38,0.15-2.08,0.2
		c-0.06,0-0.06,0.09,0,0.09c0.69,0,1.39,0.01,2.08,0.04c0.6,0.02,1.21-0.02,1.8,0.04c0.05,0.07,0.11,0.13,0.2,0.14
		c0.14,0.02,0.29,0.05,0.34,0.18c0.05,0.12,0.04,0.23-0.05,0.33c-0.03,0.03-0.03,0.08,0.01,0.11c0.27,0.16,0.55-0.17,0.59-0.41
		C242.35,189.54,241.99,189.21,241.56,189.06z"/>
	<path class="st10" d="M241.16,190.55c-0.94-0.09-1.9-0.17-2.84-0.13c-0.93,0.04-1.84,0.13-2.76,0.26
		c-0.15,0.02-0.11,0.28,0.04,0.26c0.93-0.07,1.85-0.12,2.78-0.15s1.86-0.11,2.79-0.12C241.24,190.66,241.23,190.55,241.16,190.55z"
		/>
	<path class="st10" d="M192.06,197.84c-0.12-0.1-0.24-0.18-0.39-0.22c-0.15-0.05-0.32-0.02-0.47,0.02c-0.13,0.04-0.25,0.1-0.37,0.15
		c-0.04,0.02-0.09,0.04-0.13,0.06c-0.02,0.01-0.05,0.02-0.07,0.04l0,0c-0.04,0.02-0.08,0.03-0.13,0.04c-0.02,0-0.03,0.01-0.05,0.01
		c-0.04,0-0.08,0-0.12,0c-0.02-0.01-0.12-0.02-0.16-0.02c-0.02,0-0.04-0.01-0.06,0c0.08-0.01,0.06,0.01,0.01,0s-0.1-0.01-0.15-0.02
		c-0.01,0-0.05,0-0.05,0c0.06,0.01,0.06,0.01,0,0c-0.02-0.01-0.04-0.01-0.06,0c-0.06,0-0.12,0.02-0.18,0.05
		c-0.04,0.02-0.09,0.06-0.11,0.1c-0.15,0.28,0.09,0.57,0.32,0.72c0.25,0.16,0.57,0.16,0.84,0.11c0.2-0.04,0.38-0.13,0.57-0.2
		c0.05-0.02,0.1-0.04,0.15-0.05c0.02-0.01,0.05-0.01,0.07-0.02c0.07-0.02-0.03,0-0.05,0c0.08-0.01,0.16-0.02,0.24-0.05
		c0.02,0,0.04,0,0.05,0C192.12,198.58,192.33,198.08,192.06,197.84z"/>
	<path class="st10" d="M181.79,204.07c-0.03-0.32,0.07-0.67,0.28-0.9c0.09-0.1-0.05-0.25-0.15-0.15c-0.46,0.41-0.54,1.11-0.16,1.59
		c0.11,0.15,0.24,0.31,0.14,0.5c-0.08,0.16-0.24,0.25-0.39,0.33c-0.35,0.18-0.74,0.26-1.14,0.24c-0.06,0-0.06,0.09,0,0.09
		c0.39,0.04,0.77-0.02,1.13-0.17c0.27-0.11,0.61-0.3,0.59-0.64c-0.01-0.15-0.1-0.29-0.16-0.42
		C181.86,204.39,181.81,204.23,181.79,204.07z"/>
	<path class="st10" d="M206.39,194.79c-2.85,0.35-5.66,1.07-8.48,1.62c-0.23,0.05-0.29,0.36-0.14,0.52
		c0.63,0.62,1.34,1.15,1.96,1.79c0.06,0.06,0.15,0.07,0.22,0.03c1.36-0.69,2.87-0.96,4.34-1.28c0.21-0.05,0.12-0.35-0.09-0.32
		c-1.48,0.22-2.96,0.54-4.3,1.22c-0.47-0.47-0.9-0.98-1.34-1.48c2.61-0.66,5.26-1.14,7.85-1.87
		C206.55,194.99,206.53,194.77,206.39,194.79z"/>
	<path class="st10" d="M289.64,181.98c-4.78,1.11-9.56,2.2-14.42,2.97c-0.08,0.01-0.06,0.15,0.02,0.14
		c4.89-0.46,9.79-1.35,14.44-2.96C289.78,182.1,289.74,181.96,289.64,181.98z"/>
	<path class="st10" d="M296.56,182.23c-0.95-0.03-1.91-0.07-2.86-0.17c-0.94-0.1-1.89-0.23-2.83-0.33
		c-0.14-0.02-0.16,0.21-0.03,0.24c1.84,0.52,3.82,0.61,5.72,0.46C296.69,182.43,296.69,182.24,296.56,182.23z"/>
	<path class="st10" d="M295.76,184.19c-1.19,0.26-2.41,0.38-3.61,0.63c-1.19,0.25-2.39,0.45-3.58,0.66
		c-0.15,0.03-0.12,0.29,0.04,0.27c1.21-0.09,2.41-0.26,3.61-0.45c1.23-0.2,2.4-0.6,3.6-0.94
		C295.91,184.33,295.87,184.17,295.76,184.19z"/>
	<path class="st10" d="M373.51,170.94c-2.4-0.27-4.82-0.54-7.23-0.66c-0.94-0.05-1.87,0.05-2.75,0.41c-0.96,0.4-1.85,0.96-2.79,1.4
		c-4.12,1.93-8.74,2.97-13.29,2.81c-0.07,0-0.07,0.1,0,0.1c4.24,0.24,8.5-0.39,12.37-2.17c0.97-0.45,1.87-0.98,2.8-1.49
		c1.17-0.64,2.19-0.83,3.51-0.68c2.45,0.29,4.92,0.49,7.38,0.65C373.76,171.33,373.75,170.97,373.51,170.94z"/>
	<path class="st10" d="M382.55,171.41c-2.25,0.19-4.56,0.52-6.65,1.41c-0.59,0.25-1.13,0.58-1.8,0.58
		c-0.67-0.01-1.37-0.19-2.02-0.32c-1.23-0.25-2.45-0.54-3.66-0.88c-0.05-0.01-0.07,0.06-0.02,0.08c1.27,0.42,2.56,0.8,3.87,1.12
		c1.1,0.27,2.1,0.59,3.2,0.14c1.13-0.46,2.23-0.88,3.42-1.16c1.22-0.28,2.47-0.47,3.7-0.71C382.73,171.65,382.7,171.4,382.55,171.41
		z"/>
	<path class="st10" d="M478.77,153.78c-6.53-0.29-13.27,1.08-19.34,3.39c-6.12,2.33-12.57,3.44-19.1,2.57
		c-0.06-0.01-0.07,0.09-0.01,0.1c3.13,0.53,6.3,0.64,9.46,0.24c3.14-0.39,6.03-1.3,8.95-2.49c3-1.23,6.35-1.84,9.53-2.37
		c3.49-0.59,6.99-0.75,10.52-0.93C479.09,154.27,479.09,153.8,478.77,153.78z"/>
	<path class="st10" d="M483.18,155.99c-1.04-0.05-2.13,0.26-3.16,0.37c-1.01,0.11-2.03,0.2-3.05,0.26
		c-2.07,0.13-4.16,0.18-6.23,0.12c-0.06,0-0.06,0.09,0,0.09c2.12,0.16,4.23,0.23,6.36,0.16c1.06-0.04,2.11-0.1,3.17-0.19
		c0.96-0.08,2.06-0.05,2.97-0.38C483.48,156.35,483.44,156,483.18,155.99z"/>
	<path class="st9" d="M609.36,135.47c-0.1-1.24-0.47-2.45-0.98-3.58c-0.2-0.46-0.46-0.89-0.75-1.3c-0.1-0.2-0.22-0.39-0.36-0.54
		c-0.09-0.1-0.2-0.17-0.3-0.25c-0.18-0.19-0.37-0.36-0.57-0.53c-0.66-0.54-1.64-1.18-2.55-1.1c0.02-0.06,0.06-0.1,0.07-0.17
		c0.21-1.58-0.49-3.31-0.9-4.82c-0.23-0.86-0.5-1.68-0.85-2.48c0-0.51,0-1.01-0.03-1.52c-0.02-0.38-0.05-0.76-0.07-1.14
		c-0.01-0.25-0.12-0.61,0.01-0.84c0.22-0.38-0.3-0.79-0.61-0.47c-0.01,0.01-0.02,0.03-0.03,0.05c0.1-2.18-0.41-4.39-1.03-6.45
		c-0.28-0.94-0.6-1.87-0.91-2.79c0.2-0.67,0.21-1.45,0.22-2.1c0.02-0.98-0.11-1.96-0.46-2.88c-0.33-0.87-0.81-1.68-1.13-2.55
		c-0.33-0.92-0.45-1.89-0.65-2.84c-0.39-1.92-1.2-3.67-1.4-5.63c-0.14-1.34-0.14-3.06-0.84-4.31c0.04-0.08,0.07-0.16,0.07-0.25
		c-0.04-0.83-0.43-1.63-0.84-2.39c-0.28-0.92-0.59-1.83-0.93-2.73c-0.06-0.22-0.15-0.43-0.24-0.64c-0.06-0.15-0.11-0.3-0.17-0.44
		c0.03-0.07,0.03-0.15-0.02-0.23c-0.05-0.07-0.09-0.14-0.14-0.21c-0.08-0.19-0.15-0.39-0.22-0.58c-0.98-2.52-2.07-4.99-3.14-7.48
		c-1.4-3.26-2.69-6.58-4.32-9.73c0.25,0.08,0.57-0.08,0.56-0.39c-0.01-1.26-0.83-2.44-1.58-3.39c-0.49-0.63-1.03-1.23-1.58-1.82
		c-0.07-0.13-0.15-0.27-0.22-0.4c-0.35-1.06-0.86-2.07-1.34-3.07c-0.53-1.11-1.1-2.21-1.72-3.28c-1.25-2.14-2.68-4.2-4.36-6.03
		c-0.32-0.35-0.65-0.68-0.98-1.02c0.08-0.16,0.09-0.35-0.03-0.53c-0.93-1.33-1.93-2.6-2.97-3.85c-0.44-0.53-0.89-1.06-1.39-1.54
		c-0.29-0.28-0.64-0.55-1.02-0.72c-0.01-0.06-0.03-0.11-0.06-0.16c-0.41-0.65-1.23-0.53-1.9-0.53c-0.54,0-1.08,0-1.61,0.03
		c-0.07-0.54-0.67-1.06-1.32-0.73c-5.05,2.53-10.1,5.07-15.14,7.62c-1.25,0.63-2.5,1.27-3.75,1.9c-0.94,0.47-1.97,0.9-2.89,1.44
		c-0.04-0.09-0.1-0.18-0.19-0.23c-0.06-0.04-0.13-0.06-0.19-0.08c-0.01,0-0.02-0.01-0.03-0.01c-0.05-0.01-0.2-0.02-0.17-0.02
		c-0.08,0-0.16,0.02-0.23,0.05c-0.05,0.02-0.08,0.06-0.13,0.09c-0.04-0.01-0.08-0.03-0.12-0.03c-0.09,0-0.18,0.02-0.26,0.07
		c-0.06,0.04-0.12,0.08-0.17,0.13s-0.09,0.12-0.13,0.17s-0.08,0.11-0.12,0.17c-0.09,0.15-0.17,0.32-0.23,0.49
		c-0.03,0.11-0.03,0.22,0,0.33c0.02,0.08,0.06,0.15,0.11,0.21c0.04,0.07,0.1,0.12,0.17,0.16c0.08,0.04,0.16,0.06,0.25,0.07
		c-0.16,0.38-0.27,0.78-0.36,1.18c-0.1,0.09-0.19,0.19-0.27,0.3c-0.02,0.01-0.04,0.03-0.06,0.04l0.01,0.01
		c-0.04,0.05-0.09,0.08-0.12,0.14c-0.17,0.27-0.1,0.63,0.11,0.85c-0.06,0.05-0.13,0.09-0.19,0.15c-0.15,0.15-0.11,0.38,0.04,0.5
		c-0.1,0.45-0.17,0.89-0.23,1.35c0.2-0.29,0.4-0.57,0.61-0.85c0.01-0.45,0.17-0.91,0.35-1.32c0.17-0.4,0.38-0.78,0.62-1.15
		c0.22-0.35,0.54-0.66,0.7-1.04c0.11-0.26,0.42-0.37,0.68-0.39c0.57-0.04,1.12-0.18,1.66-0.36c1.34-0.57,2.73-1.05,4.09-1.59
		c0.94-0.37,1.87-0.74,2.83-1.05c0.13-0.04,0.27-0.09,0.42-0.14c0.11-0.05,0.21-0.1,0.32-0.15c-0.19,0.24-0.38,0.47-0.57,0.71
		c-0.92,1.15-1.82,2.3-2.66,3.5c0.06-0.06,0.13-0.11,0.19-0.17c0.92-0.85,1.79-1.76,2.69-2.63c0.28-0.27,0.58-0.49,0.88-0.74
		c0.34-0.46,0.69-0.92,1.03-1.38c1.1-0.49,2.2-0.98,3.28-1.5c1.97-0.93,3.9-2.05,5.95-2.78c1.01-0.36,2.02-0.59,3.1-0.6
		c0.66-0.01,1.31,0.07,1.96,0.16c0.7,0.7,1.31,1.54,1.98,2.32c0.89,1.04,1.87,1.99,2.84,2.95c0.01,0.02,0.02,0.05,0.03,0.07
		c0.69,1.81,1.39,3.53,2.5,5.13c1.35,1.95,2.93,3.75,4.32,5.67c0.22,1.45,0.88,2.79,0.75,4.31c-0.03,0.35-0.15,0.68-0.18,1.03
		c-0.02,0.3-0.03,0.62,0.01,0.92c0.01,0.07,0.04,0.14,0.06,0.21c0.02,0.39,0.09,0.77,0.19,1.14c0.12,0.19,0.22,0.38,0.35,0.57
		c0.45,0.7,0.94,1.37,1.45,2.03c0.32,0.41,0.68,0.78,1.03,1.16c-0.25-0.55-0.52-1.09-0.83-1.62c-0.56-0.95-1.28-1.84-1.48-2.95
		c-0.18-0.98,0.1-1.79,0.45-2.64c3.03,4.23,4.85,9.13,6.9,13.89c0.22,0.51,0.44,1.02,0.66,1.54c-0.06,1.04,0.02,2.1,0.12,3.13
		c-0.15-0.21-0.31-0.42-0.45-0.65c-0.6-0.97-1.04-2.01-1.41-3.08c0.07,0.34,0.14,0.68,0.23,1c0.28,1.02,0.56,2.03,0.93,3.01
		c0.16,0.42,0.34,0.84,0.52,1.26c0.29,0.37,0.6,0.73,0.94,1.07c1.16,1.16,1.71,2.53,2.38,4c0.47,1.03,0.98,2.02,1.5,3.02
		c0.11,0.35,0.22,0.7,0.33,1.05c0.09,0.28,0.26,0.42,0.46,0.49c0.05,0.67,0.13,1.35,0.17,1.99c0.09,1.41,0.15,2.82,0.12,4.23
		c-0.02,1.29,0.07,2.32,0.7,3.47c0.51,0.92,0.69,1.85,0.86,2.82c0.11,1.27,0.35,2.56,0.5,3.78c0.23,1.93,0.53,3.87,0.65,5.81
		c0.06,0.87,0.12,1.75,0.08,2.63c-0.03,0.76-0.28,1.56-0.09,2.31c0.18,0.73,0.73,1.35,1.15,1.96c0.33,0.48,0.69,0.94,1.05,1.39
		c0.03,0.08,0.04,0.16,0.08,0.24c0.3,0.66,0.78,1.22,1.08,1.89c0.34,0.86,0.57,1.75,0.82,2.65c0.23,1.24,0.29,2.5,0.34,3.81
		c0.08,2.24,0.11,4.49,0.15,6.73c0.04,2.19,0.05,4.38,0.02,6.57c-0.01,1.01-0.14,2.11,0.12,3.1c0.08,0.29,0.31,0.67,0.5,1.04
		c-0.42,1.45-0.88,2.92-0.28,4.35c0.26,0.62,0.46,1.26,0.63,1.89c0.08,1.21,0.19,2.43,0.28,3.64c0.07,0.86,0.14,1.73,0.21,2.59
		c-0.07,0.87-0.14,1.74-0.24,2.6c-0.32,2.63-0.76,5.26-0.93,7.91c-0.17,2.7,0.05,5.4-0.03,8.1c-0.08,2.78-0.36,5.55-0.66,8.32
		c-0.28,2.51-0.67,5.05-0.81,7.59c-0.13,0.3-0.22,0.62-0.28,0.9c-0.23,1.15-0.18,2.36-0.31,3.52c-0.15,1.36-0.27,2.72-0.45,4.07
		c-0.1,0.77-0.27,1.61-0.36,2.44c-0.11,0.6-0.22,1.19-0.3,1.79c-0.15,1.07-0.25,2.16-0.41,3.23c-0.16,1.11-0.39,2.22-0.56,3.32
		c-0.05,0.35,0.44,0.65,0.63,0.27c0.98-1.92,1.22-4.19,1.42-6.32c0.02-0.19,0.02-0.37,0.03-0.56c0.02-0.02,0.05-0.03,0.06-0.06
		c0.47-1.04,0.46-2.36,0.6-3.49c0.16-1.27,0.4-2.53,0.53-3.8c0.11-1.06,0.11-2.12,0.15-3.19c0.16-0.06,0.3-0.18,0.36-0.39
		c0.63-2.62,0.84-5.36,1.17-8.03c0.34-2.69,0.66-5.38,0.82-8.09c0.09-0.08,0.17-0.19,0.2-0.35c0.45-2.48,0.62-5,0.79-7.51
		c0.08-1.22,0.14-2.44,0.13-3.66c-0.01-0.87,0.06-1.97-0.19-2.86c0.23-0.06,0.43-0.24,0.44-0.51c0.09-2.6-0.09-5.18-0.31-7.76
		c0.15-1.35,0.04-2.69-0.34-3.99c-0.06-0.78-0.12-1.56-0.16-2.34c0.08-0.09,0.14-0.19,0.15-0.31c0.06-0.4,0.1-0.8,0.14-1.19
		c0.12-0.1,0.21-0.26,0.19-0.47c-0.11-1.63-0.03-3.28-0.06-4.91c-0.02-0.79-0.06-1.59-0.18-2.38c-0.08-0.57-0.2-1.78-0.81-2.04
		c-0.03-0.01-0.06-0.01-0.09-0.02c0-0.95,0.02-1.9,0.01-2.85c-0.02-1.53-0.09-3.06-0.17-4.59c0.09,0.13,0.21,0.28,0.35,0.36
		c0.21,0.13,0.46,0.18,0.7,0.19c0.18,0.01,0.37,0.02,0.55,0.04l0,0c0.04,0,0.1,0.02,0.14,0.03c0.09,0.02,0.18,0.04,0.26,0.07
		c0.02,0.01,0.08,0.02,0.1,0.04l0,0l0.01,0.01c0.64,0.63,1.15,1.39,1.53,2.2c0.46,0.98,0.72,2.05,1.08,3.07
		c0.42,1.18,0.79,2.34,1.02,3.57c0.04,0.21,0.41,0.17,0.39-0.05C609.51,138.17,609.47,136.82,609.36,135.47z M598.9,117.38
		c-0.47-0.76-1.04-1.45-1.05-2.38c-0.01-0.84,0.09-1.65,0.01-2.49c-0.08-0.89-0.26-1.77-0.36-2.67c-0.16-1.47-0.29-2.95-0.43-4.43
		c0.65,2.1,1.44,4.18,2.01,6.29c-0.03,0.96-0.06,1.92-0.02,2.88c0.03,0.87,0.06,1.74,0.1,2.61c0.01,0.23,0.01,0.46,0.02,0.69
		C599.08,117.71,599,117.55,598.9,117.38z"/>
	<g>
		<g>
			<path d="M571.31,135.38c3.48,0.58,3.95,5.02,4.43,7.89c0.31,1.86,0.45,3.88-0.76,5.47c-0.08,0.11-0.22,0.51-0.33,0.57
				c-0.26,0.14-0.78,0.12-1.07,0.16c-2.06,0.32-4.12,0.63-6.18,0.95c-8.77,1.35-17.53,2.69-26.3,4.04
				c-13.81,2.12-27.62,4.24-41.43,6.37c-17.13,2.63-34.26,5.27-51.39,7.9c-19.13,2.94-38.27,5.88-57.4,8.82
				c-19.41,2.98-38.81,5.97-58.22,8.95c-18.2,2.8-36.4,5.59-54.59,8.39c-15.45,2.37-30.89,4.75-46.34,7.12
				c-11.15,1.71-22.3,3.43-33.45,5.14c-5.3,0.82-10.61,1.76-15.93,2.45c-7.15,0.93-10.38-11.73-3.1-13.82
				c1.11-0.32,2.38-0.37,3.51-0.54c7.33-1.13,14.66-2.25,21.98-3.38c12.69-1.95,25.37-3.9,38.06-5.86
				c16.5-2.54,32.99-5.08,49.49-7.61c18.76-2.89,37.52-5.77,56.28-8.66c19.47-3,38.95-5.99,58.42-8.99
				c18.64-2.87,37.28-5.74,55.92-8.6c16.3-2.51,32.61-5.02,48.91-7.53c12.27-1.89,24.55-3.78,36.82-5.67
				c6.86-1.05,13.71-2.11,20.57-3.16c0.87-0.13,1.74-0.27,2.62-0.4c1.27-0.2,0.73-2.12-0.53-1.93c-3.75,0.58-7.5,1.15-11.25,1.73
				c-10.12,1.56-20.25,3.12-30.37,4.67c-14.89,2.29-29.77,4.58-44.66,6.87c-18.1,2.78-36.2,5.57-54.29,8.35
				c-19.51,3-39.01,6-58.52,9c-19.56,3.01-39.12,6.02-58.68,9.03c-17.8,2.74-35.6,5.48-53.4,8.22c-14.49,2.23-28.99,4.46-43.48,6.69
				c-9.6,1.48-19.2,2.95-28.8,4.43c-4.96,0.76-11.46,0.41-13.88,5.78c-2.72,6.01,1.92,14.37,8.93,13.3
				c1.89-0.29,3.77-0.58,5.66-0.87c8.68-1.33,17.37-2.67,26.05-4c13.77-2.12,27.54-4.23,41.32-6.35
				c17.43-2.68,34.86-5.36,52.29-8.04c19.32-2.97,38.65-5.94,57.97-8.91c19.66-3.02,39.33-6.04,58.99-9.07
				c18.45-2.84,36.9-5.67,55.36-8.51c15.51-2.38,31.01-4.77,46.52-7.15c11.02-1.69,22.03-3.39,33.05-5.08
				c3.33-0.51,6.66-1.02,9.99-1.54c1.56-0.24,3.26-0.32,4.78-0.74c1.61-0.43,2.54-2.4,2.87-3.93c0.6-2.74-0.19-5.98-0.97-8.62
				c-0.75-2.55-2.16-4.82-4.95-5.28C570.59,133.24,570.04,135.17,571.31,135.38z"/>
		</g>
	</g>
	<g>
		<g>
			<path d="M571.07,151.55c0.31,1.21,1.44,2.06,2.69,1.97c0.34-0.02,0.68-0.09,1.01-0.14c1.28-0.18,2.56-0.37,3.84-0.56
				c3.74-0.55,7.47-1.09,11.21-1.64c1.29-0.19,2.59-0.38,3.88-0.57c0.23-0.03,0.48-0.04,0.71-0.1c1.32-0.35,2.18-1.75,2.52-2.98
				c0.48-1.73,0.54-3.68,0.52-5.47c-0.03-1.87-0.26-3.76-0.67-5.59c-0.38-1.67-0.89-3.41-1.85-4.84c-0.84-1.26-2.1-2.56-3.66-2.8
				c-0.86-0.13-1.71,0.14-2.55,0.29c-1.12,0.2-2.25,0.33-3.38,0.49c-2.13,0.31-4.27,0.62-6.4,0.93c-2.16,0.31-4.33,0.63-6.49,0.94
				c-0.5,0.07-1.01,0.18-1.52,0.24c-0.43,0.05-0.79,0.08-1.17,0.31c-0.84,0.5-1.29,1.38-1.36,2.33c-0.09,1.28,1.91,1.28,2,0
				c0.05-0.72,0.73-0.65,1.27-0.74c0.82-0.14,1.65-0.25,2.47-0.37c1.69-0.24,3.39-0.49,5.08-0.73c1.81-0.26,3.61-0.52,5.42-0.79
				c1.65-0.24,3.33-0.41,4.96-0.74c0.59-0.12,1.18-0.31,1.75-0.06c0.63,0.27,1.16,0.82,1.58,1.35c0.93,1.17,1.4,2.63,1.76,4.06
				c0.81,3.17,1.04,6.6,0.5,9.84c-0.12,0.7-0.27,1.45-0.76,1.99c-0.07,0.08-0.16,0.17-0.24,0.24c0,0-0.5,0.25-0.27,0.18
				c-0.02,0-0.03,0-0.05,0.01c-0.22,0.06-0.46,0.07-0.68,0.1c-1.12,0.17-2.24,0.33-3.37,0.5c-3.39,0.5-6.79,1-10.18,1.49
				c-1.53,0.22-3.06,0.45-4.59,0.67c-0.43,0.06-0.85,0.12-1.28,0.18c-0.31,0.04,0.25,0.04-0.01,0c-0.38-0.06-0.63-0.05-0.75-0.5
				C572.68,149.78,570.75,150.3,571.07,151.55L571.07,151.55z"/>
		</g>
	</g>
	<g>
		<g>
			<path d="M605.24,148.96c0.71-0.1,1.42-0.21,2.14-0.31c0.23-0.03,0.35-0.05,0.56-0.15c2.11-0.95,2.45-3.39,2.65-5.43
				c0.23-2.34,0.12-4.69-0.26-7.01c-0.36-2.16-0.91-4.49-2.14-6.33c-0.62-0.92-1.42-1.81-2.4-2.36c-0.47-0.26-1.01-0.46-1.56-0.49
				c-0.41-0.02-0.76,0.19-1.08,0.25c-1.26,0.24-0.73,2.17,0.53,1.93c0.2-0.04,0.39-0.08,0.56-0.18c0.34-0.18-0.15,0.01-0.15-0.01
				c0.01-0.09,0.87,0.35,0.92,0.38c0.63,0.42,1.16,1.04,1.56,1.67c1,1.58,1.44,3.51,1.76,5.32c0.35,1.94,0.44,3.93,0.32,5.89
				c-0.08,1.27-0.1,4.06-1.53,4.55c0.05-0.02-0.27,0.03-0.32,0.04c-0.7,0.1-1.4,0.21-2.1,0.31c-0.53,0.08-0.83,0.76-0.7,1.23
				C604.17,148.83,604.71,149.03,605.24,148.96L605.24,148.96z"/>
		</g>
	</g>
	<g>
		<g>
			<path d="M607.58,131.09c1.84-0.27,3.68-0.53,5.52-0.8c1.24-0.18,2.47-0.36,3.71-0.54c0.37-0.05,0.75-0.11,1.12-0.16
				c0.09-0.01,0.18-0.03,0.27-0.04c0.02,0,0.03-0.01,0.05-0.01c-0.24,0,0.18,0.06,0.25,0.08c0.72,0.22,1.11,1.08,1.41,1.7
				c0.44,0.92,0.8,1.89,0.98,2.89c0.22,1.19,0.22,2.42,0.18,3.62c-0.04,1.07-0.1,2.19-0.37,3.23c-0.13,0.5-0.29,0.73-0.81,0.82
				c-0.25,0.04-0.51,0.07-0.77,0.11c-1.1,0.16-2.2,0.32-3.3,0.48c-2.19,0.32-4.37,0.63-6.56,0.95c-0.53,0.08-0.83,0.76-0.7,1.23
				c0.16,0.57,0.69,0.78,1.23,0.7c2.05-0.3,4.09-0.59,6.14-0.89c1.22-0.18,2.44-0.35,3.66-0.53c1.05-0.15,2.01-0.32,2.63-1.32
				c0.52-0.84,0.61-1.92,0.72-2.88c0.16-1.37,0.21-2.77,0.12-4.15c-0.08-1.32-0.31-2.61-0.81-3.84c-0.37-0.92-0.74-1.86-1.34-2.66
				c-0.89-1.18-2.09-1.63-3.52-1.42c-1.06,0.15-2.12,0.31-3.18,0.46c-2.38,0.35-4.77,0.69-7.15,1.04c-0.53,0.08-0.83,0.76-0.7,1.23
				C606.5,130.97,607.04,131.17,607.58,131.09L607.58,131.09z"/>
		</g>
	</g>
	<path class="st11" d="M577.3,131.57c-6.32-29.76-17.9-58.25-38.3-77.8l1.34-7.57l21.44-10.83c0.39-0.2,0.82-0.3,1.25-0.3h3.17
		c0.88,0,1.72,0.33,2.37,0.92c5.37,4.87,31.99,36.94,36.19,107.69c0.87,14.1,2.22,65.83-24.58,121.32c0,0,8.54-55.81,0.62-113.27"/>
	<g>
		<g>
			<path d="M582.83,260.53c5.08-14.81,9.28-29.93,12.34-45.29c2.64-13.24,4.44-26.65,5.24-40.12c0.7-11.78,0.63-23.61-0.3-35.38
				c-0.79-10.04-2.21-20.04-4.31-29.89c-1.77-8.35-4.04-16.6-6.81-24.67c-2.24-6.52-4.82-12.92-7.77-19.15
				c-2.19-4.64-4.58-9.19-7.22-13.6c-1.61-2.69-3.3-5.33-5.13-7.87c-0.45-0.63-0.92-1.49-1.53-1.97c-0.55-0.44-1.39-0.36-2.06-0.39
				c-0.84-0.04-1.7-0.14-2.55-0.13c-0.75,0.01-1.41,0.45-2.07,0.79c-6.45,3.28-12.89,6.56-19.34,9.83
				c-0.56,0.28-1.12,0.57-1.68,0.85c-0.57,0.29-0.07,1.15,0.5,0.86c5.64-2.87,11.28-5.74,16.92-8.6c1.33-0.68,2.67-1.36,4-2.04
				c0.6-0.31,1.14-0.68,1.83-0.69c0.91-0.01,1.84,0.09,2.76,0.14c0.48,0.02,1.01,0.11,1.25,0.36c0.11,0.11,0.4,0.53,0.56,0.75
				c1.6,2.16,3.08,4.4,4.5,6.68c2.48,3.99,4.75,8.12,6.84,12.33c2.89,5.82,5.45,11.8,7.71,17.89c2.8,7.57,5.13,15.31,7.02,23.15
				c2.27,9.42,3.91,18.99,4.94,28.63c1.2,11.13,1.6,22.33,1.3,33.52c-0.36,13.03-1.67,26.02-3.82,38.87
				c-2.46,14.74-6,29.3-10.42,43.58c-1.17,3.78-2.4,7.55-3.69,11.29C581.66,260.87,582.62,261.13,582.83,260.53L582.83,260.53z"/>
		</g>
	</g>
	<g>
		<g>
			<path d="M539.88,139.07c-1.73,1.28-3.05,2.82-4.29,4.56c-0.31,0.45-0.68,0.88-1.18,1.13c-0.59,0.29-1.12,0.12-1.69-0.09
				c-0.71-0.26-1.58-0.38-2.06,0.34c-0.18,0.27,0.25,0.52,0.43,0.25c0.3-0.45,0.93-0.31,1.36-0.16c0.45,0.15,0.88,0.35,1.36,0.33
				c0.86-0.04,1.54-0.65,2.03-1.3c0.63-0.83,1.19-1.7,1.9-2.48c0.72-0.79,1.53-1.51,2.39-2.15
				C540.38,139.31,540.14,138.88,539.88,139.07L539.88,139.07z"/>
		</g>
	</g>
	<g>
		<g>
			<path d="M537.84,151.99c0.24-0.46,0.09-1.02-0.3-1.36c-0.46-0.41-1.12-0.41-1.7-0.31c-1.2,0.2-2.32,0.83-3.14,1.72
				c-0.22,0.24,0.13,0.59,0.35,0.35c0.65-0.7,1.48-1.22,2.41-1.47c0.44-0.12,0.96-0.24,1.41-0.1c0.36,0.11,0.75,0.51,0.54,0.91
				C537.26,152.03,537.7,152.28,537.84,151.99L537.84,151.99z"/>
		</g>
	</g>
	<g>
		<g>
			<path d="M526.65,154.32c-1.63,1.78-3.65,3.17-5.89,4.06c-0.3,0.12-0.17,0.6,0.13,0.48c2.33-0.92,4.42-2.34,6.11-4.19
				C527.23,154.44,526.87,154.08,526.65,154.32L526.65,154.32z"/>
		</g>
	</g>
	<g>
		<g>
			<path d="M327.27,176.36c0.61-1.82,3.13-1.19,4.55-1.12c1.48,0.08,3.2,0.13,4.61-0.41c0.57-0.22,1.04-0.58,1.48-0.98
				c0.61-0.55,1.15-0.89,1.91-1.19c1.08-0.43,1.67-1.46,1.42-2.6c-0.07-0.31-0.55-0.18-0.48,0.13c0.19,0.86-0.26,1.65-1.07,1.99
				c-0.57,0.24-1.08,0.42-1.57,0.82c-0.55,0.45-1.01,0.98-1.67,1.28c-0.75,0.35-1.61,0.41-2.43,0.46c-0.77,0.04-1.55,0.04-2.33,0
				c-0.77-0.04-1.54-0.18-2.3-0.15c-1.12,0.04-2.23,0.52-2.61,1.64C326.69,176.53,327.17,176.66,327.27,176.36L327.27,176.36z"/>
		</g>
	</g>
	<g>
		<g>
			<path d="M211.12,191.33c-0.41,0.26-0.76,0.6-1.13,0.91c-0.59,0.49-1.12,0.65-1.89,0.59c-1.39-0.1-2.76-0.06-4.14,0.12
				c-2.9,0.38-5.69,1.27-8.46,2.17c-0.3,0.1-0.17,0.58,0.13,0.48c2.89-0.93,5.82-1.88,8.86-2.21c0.7-0.08,1.4-0.12,2.1-0.12
				c0.7,0,1.41,0.12,2.11,0.08c1.15-0.06,1.77-1.02,2.67-1.59C211.64,191.59,211.39,191.16,211.12,191.33L211.12,191.33z"/>
		</g>
	</g>
	<g>
		<g>
			<path d="M189.05,198.48c0.53,0.56,1.27,1.17,2.08,0.79c0.35-0.16,0.6-0.48,0.81-0.79c0.26-0.38,0.52-0.77,0.77-1.16
				c0.18-0.27-0.25-0.52-0.43-0.25c-0.22,0.34-0.45,0.67-0.67,1.01c-0.17,0.25-0.35,0.53-0.61,0.7c-0.6,0.37-1.21-0.24-1.6-0.65
				C189.19,197.89,188.83,198.25,189.05,198.48L189.05,198.48z"/>
		</g>
	</g>
	<path class="st12" d="M180.08,196.9c3.54,0.78,4.89,3.5,4.89,6.06c0,2.06-0.72,4.28-3.27,5.21"/>
	<path class="st13" d="M593.25,115.64c0,0-0.52,11.86-2.35,11.96l-6.49,1.35c0,0,6.72,0.49,6.98,1.89c0,0,1.62,4.87,1.86,9.22
		l1.48-8.46c0.13-0.72,0.59-1.32,1.26-1.61c0.89-0.38,2.83-0.67,5.39-1.09c0,0-3.49-0.3-5.41-1.05c-0.69-0.27-1.16-0.93-1.26-1.67
		L593.25,115.64z"/>
	<path class="st13" d="M566.77,36.31c0,0-0.27,6.08-1.21,6.13l-3.33,0.69c0,0,3.44,0.25,3.58,0.97c0,0,0.83,2.49,0.95,4.72
		l0.76-4.34c0.06-0.37,0.3-0.68,0.64-0.83c0.45-0.2,1.45-0.34,2.76-0.56c0,0-1.79-0.15-2.77-0.54c-0.36-0.14-0.59-0.48-0.65-0.86
		L566.77,36.31z"/>
	<path class="st14" d="M245.42,222.87c0.37-0.16,0.74-0.33,1.1-0.5c5.15-2.43,9.9-5.71,13.99-9.67c2-1.94,3.69-4.13,5.56-6.18
		c2.07-2.27,4.25-4.61,5.76-7.29c0.91-1.61,2.06-3.11,3.09-4.65l1.34-6.55l-0.64-7.89l0.64-9.57l-0.8-3.27l-2.84-1.27l-3.79,1.6
		l-2.57,3.2l-5.24-7.25l-5.39-1.7l-4.22,1.03l-1.72,1.18l-8.31-0.65l-3.63,1.16l-4.13,3.97l-5,3.43l-1.89,2.01l-1.53,2.29
		l-4.66,4.11l-1.7,2.88l0.37,5.33l9.61-1.53l2.46,4.7l2.37,3.58l3.58,0.77l4.74-1.98l0.53,2.05c0,0,2.85,0.6,3.23,0.69
		c0.38,0.09,3.25-0.69,3.25-0.69l1.49-2.75l1.33,2.39c0,0,2.23,1.17,2.52,1.34c0.28,0.17,3.98-0.3,3.98-0.3l1.36-1.53l0.86-4.26
		l2.29,0.67c0,0-0.28,2.19-0.47,2.66s-1.04,3.26-1.04,3.26l-2.36,1.08l-35.82,5.66l7.74,15c0.51,1.01,2.51,1.79,3.33,2.59
		c0.75,0.72,1.64,1.33,2.47,1.94c1.75,1.27,3.67,0.88,5.6,0.18C243.33,223.75,244.39,223.33,245.42,222.87z"/>
	
		<linearGradient id="SVGID_00000063596125243632653320000008144463712394586016_" gradientUnits="userSpaceOnUse" x1="218.3394" y1="230.0053" x2="244.5985" y2="202.9565">
		<stop  offset="0" style="stop-color:#000000"/>
		<stop  offset="0.0137" style="stop-color:#070707;stop-opacity:0.9873"/>
		<stop  offset="0.1278" style="stop-color:#3F3F3F;stop-opacity:0.8813"/>
		<stop  offset="0.2456" style="stop-color:#707070;stop-opacity:0.7719"/>
		<stop  offset="0.3645" style="stop-color:#9A9A9A;stop-opacity:0.6614"/>
		<stop  offset="0.4848" style="stop-color:#BCBCBC;stop-opacity:0.5497"/>
		<stop  offset="0.6068" style="stop-color:#D6D6D6;stop-opacity:0.4363"/>
		<stop  offset="0.7315" style="stop-color:#E9E9E9;stop-opacity:0.3205"/>
		<stop  offset="0.8604" style="stop-color:#F4F4F4;stop-opacity:0.2008"/>
		<stop  offset="1" style="stop-color:#F8F8F8;stop-opacity:0.0711"/>
	</linearGradient>
	<path style="fill:url(#SVGID_00000063596125243632653320000008144463712394586016_);" d="M251.67,219.36
		c-1.07,0.48-2.21,1.15-3.43,0.87c-0.88-0.2-1.66-1.11-1.38-1.96c0.23-0.73,1.05-1.06,1.77-1.31c1.61-0.55,3.22-1.09,4.83-1.64
		c1.5-0.51,3.12-1.1,3.95-2.45c-7.12,2.29-15.31,0.91-21.28-3.58c-0.26-0.19-0.51-0.61-0.24-0.78c0.08-0.05,0.17-0.05,0.26-0.06
		c2.68-0.11,5.35-0.51,7.95-1.17c2.27-0.58,4.44-1.76,6.71-2.23c4.28-0.88,7.49-4.33,11.31-6.44c2.82-1.56,3.84-3.49,4.59-6.57
		c0.83-3.37,0.76-6.88,1.02-10.32c0.25-3.33,1.85-5.89,3.81-8.5c0.51-0.68,1.02-1.35,1.51-2.03c0.03-0.36,0.04-0.72,0.02-1.08
		c-0.02-0.29-0.09-0.56-0.18-0.81c0.15-0.98-0.31-2.08-1.38-2.23c-0.18-0.02-0.35-0.05-0.53-0.08c-0.9-0.13-1.96,0.18-2.33,1.09
		c-0.82,0.4-1.62,1.01-2.15,1.65c-0.93,1.12-1.23,2.56-1.53,3.94c-0.11,0.53-0.19,1.06-0.26,1.59c-0.14,0.11-0.26,0.25-0.36,0.42
		c-0.07,0.05-0.13,0.12-0.19,0.18c0.01,0.33,0.04,0.65,0.03,0.98c-0.02,1.14-0.18,2.26-0.32,3.39c-0.07,0.57-0.41,0.98-1.01,1.01
		c-0.06,0-0.12,0.01-0.17,0.01c-0.34,0-0.72-0.19-0.88-0.5c-0.78-1.58-1-3.27-1.15-5c-0.12-1.41-0.24-2.86-0.82-4.17
		c-0.47-1.06-1.13-1.69-2.09-2.2c-0.4-0.21-0.78-0.36-1.26-0.48c-0.27-0.07-0.35-0.08-0.59-0.1c-0.1-0.01-0.2-0.01-0.31-0.01
		c-0.04,0-0.31,0.02-0.21,0.01c-0.33,0.04-0.62,0.15-0.89,0.28c-0.11,0.27-0.18,0.55-0.15,0.82c0.47,0.25,0.74,0.72,1.06,1.13
		c0.52,0.67,1.04,1.3,1.47,2.04c1.05,1.8,1.78,3.8,2.22,5.84c0.45,2.11,0.67,4.28,0.74,6.44c0.04,1.12,0.04,2.23,0.02,3.35
		c0.04,0.09,0.07,0.19,0.11,0.27c-0.04,0.14-0.08,0.28-0.11,0.41c0,0.43-0.03,0.88-0.11,1.3c0.3,1.31,2.08,1.87,3.16,1.06
		c-0.08,0.56-0.17,1.11-0.3,1.67c-0.38,1.69-0.75,3.86-2.57,4.54c-1.91,0.71-4.2,0.77-6.2,1.06c-3.63,0.55-7.27,1.08-10.91,1.62
		c-3.61,0.54-7.13,1.15-10.71,1.88c-0.5,0.1-1,0.2-1.5,0.3c-0.88,0.17-1.76,0.35-2.63,0.54c-1.19,0.26-2.17,0.88-3.45,0.82
		c-0.35-0.02-0.7-0.06-1.04,0.02s-0.67,0.33-0.72,0.67c-0.02,0.14,0.01,0.28,0.04,0.41c0.47,2.2,1.59,4.34,2.58,6.33
		c1.2,2.41,2.41,4.84,4.01,7.01c1.22,1.65,2.76,3.03,4.42,4.22c1.56,1.12,3.22,2.15,5.24,2.04c1.12-0.06,2.21-0.41,3.27-0.8
		C245.67,222.87,248.81,221.31,251.67,219.36z"/>
	
		<linearGradient id="SVGID_00000136393777336620701080000003861602855495617685_" gradientUnits="userSpaceOnUse" x1="215.9622" y1="164.5047" x2="276.9117" y2="202.9145">
		<stop  offset="0" style="stop-color:#000000"/>
		<stop  offset="0.0252" style="stop-color:#0B0B0B;stop-opacity:0.9766"/>
		<stop  offset="0.1825" style="stop-color:#494949;stop-opacity:0.8305"/>
		<stop  offset="0.3383" style="stop-color:#7E7E7E;stop-opacity:0.6858"/>
		<stop  offset="0.4889" style="stop-color:#AAAAAA;stop-opacity:0.5459"/>
		<stop  offset="0.6333" style="stop-color:#CCCCCC;stop-opacity:0.4117"/>
		<stop  offset="0.7699" style="stop-color:#E4E4E4;stop-opacity:0.2848"/>
		<stop  offset="0.8956" style="stop-color:#F3F3F3;stop-opacity:0.1681"/>
		<stop  offset="1" style="stop-color:#F8F8F8;stop-opacity:0.0711"/>
	</linearGradient>
	<path style="fill:url(#SVGID_00000136393777336620701080000003861602855495617685_);" d="M254.77,197.15
		c-3.04-4.71-0.63-11-2.15-16.14c-0.74-2.5-2.09-4.73-4.22-6.27c-0.72-0.52-1.49-0.95-2.29-1.34c-0.02,0.01-0.04,0.01-0.06,0.01
		c-0.2,0.05-0.4,0.1-0.6,0.15c-0.08,0.02-0.16,0.05-0.25,0.07c1.96,1.46,3.52,3.38,4.37,5.7c0.47,1.3,0.71,2.69,0.75,4.09
		c0.09,0.55,0.15,1.1,0.18,1.65c0.22,3.88-0.29,7.9,1.18,11.6c0.39,0.99,1.33,1.69,2.44,1.38c0.36-0.1,0.7-0.33,0.97-0.64
		C254.96,197.35,254.85,197.26,254.77,197.15z"/>
	
		<linearGradient id="SVGID_00000098187043519283548710000004461927682789770899_" gradientUnits="userSpaceOnUse" x1="212.7487" y1="169.6041" x2="273.6983" y2="208.0137">
		<stop  offset="0" style="stop-color:#000000"/>
		<stop  offset="0.1623" style="stop-color:#3F3F3F;stop-opacity:0.8492"/>
		<stop  offset="0.325" style="stop-color:#777777;stop-opacity:0.6981"/>
		<stop  offset="0.4836" style="stop-color:#A5A5A5;stop-opacity:0.5508"/>
		<stop  offset="0.6339" style="stop-color:#C9C9C9;stop-opacity:0.4111"/>
		<stop  offset="0.7741" style="stop-color:#E3E3E3;stop-opacity:0.2809"/>
		<stop  offset="0.9001" style="stop-color:#F3F3F3;stop-opacity:0.1638"/>
		<stop  offset="1" style="stop-color:#F8F8F8;stop-opacity:0.0711"/>
	</linearGradient>
	<path style="fill:url(#SVGID_00000098187043519283548710000004461927682789770899_);" d="M244.36,195.21
		c-0.6-1.1-0.76-2.37-0.86-3.6c-0.15-1.9-0.25-3.82-0.41-5.73c-0.8-3.25-2.09-6.46-5.32-7.78c-0.65-0.26-1.69-0.7-2.4-0.47
		c-0.14,0.05-0.19,0.1-0.3,0.18c-0.04,0.03-0.05,0.09-0.05,0.14c0.07,0.03,0.13,0.07,0.19,0.15c0.77,0.98,1.58,1.93,2.38,2.9
		c0.41,0.44,0.81,0.88,1.12,1.39c0.16,0.26,0.17,0.5,0.09,0.71c0.03,0.03,0.06,0.06,0.08,0.09c0.71,0.94,0.87,2.13,0.99,3.28
		c0.02,0.07,0.06,0.13,0.08,0.2c0.54,1.65,0.86,3.3,0.94,5.03c0,0.01,0,0.03,0,0.04c0.35,1.24,0.76,2.47,1.22,3.7
		c0.07,0.06,0.14,0.12,0.2,0.18c0.04,0.03,0.05,0.04,0.06,0.05c0.01,0.01,0.02,0.01,0.07,0.04c0.06,0.04,0.13,0.08,0.19,0.12
		c0.25-0.05,0.51-0.02,0.73,0.13c0.17,0.11,0.35,0.21,0.54,0.3c0.04,0.02,0.1,0.05,0.13,0.06c0.09,0.03,0.18,0.06,0.27,0.09
		c0.4,0.12,0.73,0.21,1.01,0.23c0.12,0.01,0.24,0,0.36,0C245.11,196.25,244.64,195.73,244.36,195.21z"/>
	
		<linearGradient id="SVGID_00000085223714764404346090000016306602965505489325_" gradientUnits="userSpaceOnUse" x1="208.5414" y1="176.2802" x2="269.491" y2="214.6901">
		<stop  offset="0" style="stop-color:#000000"/>
		<stop  offset="4.538357e-03" style="stop-color:#020202;stop-opacity:0.9958"/>
		<stop  offset="0.1686" style="stop-color:#424242;stop-opacity:0.8434"/>
		<stop  offset="0.3303" style="stop-color:#7A7A7A;stop-opacity:0.6932"/>
		<stop  offset="0.4859" style="stop-color:#A7A7A7;stop-opacity:0.5487"/>
		<stop  offset="0.634" style="stop-color:#CACACA;stop-opacity:0.4111"/>
		<stop  offset="0.7727" style="stop-color:#E3E3E3;stop-opacity:0.2822"/>
		<stop  offset="0.8986" style="stop-color:#F3F3F3;stop-opacity:0.1653"/>
		<stop  offset="1" style="stop-color:#F8F8F8;stop-opacity:0.0711"/>
	</linearGradient>
	<path style="fill:url(#SVGID_00000085223714764404346090000016306602965505489325_);" d="M233.42,192.34
		c-0.37-1.56-0.46-3.47-1.42-4.81c-0.74-1.03-2.08-1.93-3.34-2.11c-0.47-0.07-0.95-0.03-1.33,0.28c-0.3,0.24-0.48,0.65-0.58,1.08
		c0.17,0.04,0.34,0.09,0.49,0.13c2.43,0.72,3.89,3,4.11,5.47c0.11,0.16,0.22,0.31,0.33,0.47c0.55,0.84,1.03,1.72,1.46,2.63
		c0.42,0.9,1.74,1.22,2.6,0.77C234.41,195.39,233.78,193.85,233.42,192.34z"/>
	
		<linearGradient id="SVGID_00000014624364855016764190000005625245542561988797_" gradientUnits="userSpaceOnUse" x1="186.5337" y1="172.2329" x2="257.7003" y2="176.4818">
		<stop  offset="0" style="stop-color:#000000"/>
		<stop  offset="0.0858" style="stop-color:#272727;stop-opacity:0.9203"/>
		<stop  offset="0.2212" style="stop-color:#5E5E5E;stop-opacity:0.7945"/>
		<stop  offset="0.3578" style="stop-color:#8D8D8D;stop-opacity:0.6676"/>
		<stop  offset="0.4927" style="stop-color:#B3B3B3;stop-opacity:0.5423"/>
		<stop  offset="0.6254" style="stop-color:#D1D1D1;stop-opacity:0.419"/>
		<stop  offset="0.7556" style="stop-color:#E7E7E7;stop-opacity:0.2981"/>
		<stop  offset="0.8818" style="stop-color:#F4F4F4;stop-opacity:0.1808"/>
		<stop  offset="1" style="stop-color:#F8F8F8;stop-opacity:0.0711"/>
	</linearGradient>
	<path style="fill:url(#SVGID_00000014624364855016764190000005625245542561988797_);" d="M250.9,166.44
		c1.7-0.7,3.25-1.76,4.91-2.87c0.17-0.11,0.35-0.23,0.44-0.42c0.18-0.36-0.05-0.82-0.4-1.01s-0.78-0.18-1.18-0.13
		c-2.46,0.34-4.51,2.24-6.99,2.42c-1,0.07-1.58-0.36-2.5-0.6c-1.33-0.35-2.87-0.13-4.23-0.01c-1.08,0.09-2.18,0.23-3.12,0.77
		c-0.64,0.37-1.17,0.9-1.69,1.42c-1.31,1.28-2.68,2.5-4.11,3.65c-1.32,1.06-2.89,1.5-4.21,2.6c-1.45,1.21-2.08,3.05-3.52,4.24
		c-1.3,1.07-2.49,2.03-3.37,3.5c-0.8,1.33-3.77,7.38-1.24,8.51c0.3,0.13,0.64,0.07,0.96,0c1.27-0.27,5.24-1.56,2.31-3.18
		c-0.33-0.18-0.71-0.3-1-0.55c-0.57-0.5-0.61-1.39-0.42-2.13c0.48-1.85,1.97-3.12,3.37-4.3c0.52-0.44,1.2-1.53,1.91-1.64
		c0.38-0.06,0.64,0.24,1.01,0.28c0.54,0.06,1.18-0.1,1.68-0.28c0-0.07,0.01-0.14,0.01-0.21c-0.39-0.04-0.8-0.09-1.09-0.34
		c-1.18-1.01,1.14-3.13,1.97-3.51c0.47-0.22,1.09-0.34,1.48,0.01c0.42,0.38,0.36,1.11,0.81,1.45c0.59-1.17-0.09-2.92,1.31-3.57
		c1.32-0.61,2.2-1.26,3.2-2.27c0.03,0.46,0.57,0.68,1.02,0.75c1.23,0.21,2.5,0.12,3.69-0.27c-0.65-0.14-1.3-0.29-1.95-0.43
		c-0.45-0.1-1.02-0.35-0.98-0.81c0.02-0.18,0.13-0.33,0.24-0.46c1.19-1.36,3.15-1.69,4.96-1.85c0.35-0.03,0.76-0.04,0.99,0.23
		c0.53,0.62-0.61,1.6-0.22,2.32c0.23,0.18,0.57,0.07,0.8-0.12c0.23-0.18,0.41-0.43,0.68-0.54c0.62-0.26,1.34,0.22,1.99,0.16
		C249.2,167.18,250.2,166.73,250.9,166.44z"/>
	<g>
		<g>
			<path d="M266.38,183.19c-1.22-4.58-0.57-10,2.29-13.88c1.13-1.53,2.97-2.79,4.94-2.11c2.45,0.85,1.48,3.7,1.01,5.55
				c-1.13,4.48-0.11,9.08,0.23,13.59c0.16,2.14,0.22,4.34-0.34,6.43c-0.56,2.11-1.88,4-3.14,5.75c-1.56,2.16-3.31,4.18-5.12,6.13
				c-0.84,0.9-1.78,1.74-2.59,2.66c-0.69,0.79-0.48,2.3-0.11,3.16c0.21,0.5,0.94,0.61,1.37,0.36c0.51-0.3,0.57-0.87,0.36-1.37
				c-0.14-0.33-0.04-0.84,0.05-1.18c-0.09,0.15-0.17,0.29-0.26,0.44c3.44-3.42,6.79-7.07,9.37-11.2c1.24-1.98,2.08-3.97,2.37-6.3
				c0.29-2.32,0.08-4.67-0.16-6.98c-0.24-2.33-0.56-4.67-0.56-7.02c0-1.09,0.07-2.19,0.29-3.26c0.27-1.28,0.7-2.52,0.82-3.83
				c0.22-2.38-1.17-4.5-3.55-4.99c-2.31-0.48-4.5,0.55-6.02,2.28c-1.82,2.07-2.93,4.83-3.47,7.51c-0.58,2.91-0.49,5.92,0.27,8.79
				C264.79,184.96,266.72,184.44,266.38,183.19L266.38,183.19z"/>
		</g>
	</g>
	<g>
		<g>
			<path d="M227.26,187.08c1.57,0.9,2.21,2.71,2.82,4.31c0.7,1.85,1.5,3.75,3.18,4.92c0.97,0.68,2.28,0.88,3.44,0.9
				c1.31,0.02,2.71-0.22,3.85-0.89c1.38-0.8,2-2.14,1.76-3.7c-0.08-0.53-0.75-0.83-1.23-0.7c-0.57,0.16-0.78,0.69-0.7,1.23
				c0.05,0.36-0.01,0.61-0.23,0.93c-0.02,0.03,0,0.01-0.1,0.11c-0.08,0.09-0.17,0.17-0.27,0.25c-0.01,0.01-0.35,0.21-0.49,0.28
				c-0.84,0.42-1.96,0.53-2.97,0.47c-0.99-0.06-1.77-0.26-2.49-1c-1.14-1.16-1.6-2.82-2.19-4.29c-0.72-1.79-1.64-3.55-3.37-4.55
				C227.15,184.71,226.14,186.43,227.26,187.08L227.26,187.08z"/>
		</g>
	</g>
	<g>
		<g>
			<path d="M235.25,179.49c2.71,2.04,3.87,5.49,4.46,8.69c0.35,1.9,0.52,3.82,0.78,5.72c0.1,0.75,0.23,1.56,0.63,2.22
				c0.43,0.71,1.11,1.16,1.87,1.46c1.41,0.55,3.29,0.68,4.77,0.41c1.7-0.32,2.85-1.63,3.16-3.3c0.33-1.8,0.16-3.71,0.16-5.53
				c0-1.97,0.06-3.96-0.08-5.93c-0.15-2.09-0.6-4.09-1.6-5.94c-0.94-1.75-2.26-3.28-3.65-4.68c-0.9-0.92-2.32,0.5-1.41,1.41
				c2.28,2.31,4.14,4.89,4.57,8.19c0.23,1.76,0.17,3.56,0.17,5.33c0,1.83,0.05,3.67,0,5.5c-0.03,1.27-0.23,2.66-1.67,2.98
				c-0.65,0.15-1.36,0.08-2.02,0.02c-0.65-0.06-1.36-0.14-1.95-0.44c-1.15-0.58-1.06-2.52-1.19-3.62c-0.21-1.76-0.41-3.52-0.79-5.26
				c-0.76-3.48-2.3-6.8-5.19-8.98c-0.43-0.33-1.12-0.07-1.37,0.36C234.59,178.63,234.82,179.16,235.25,179.49L235.25,179.49z"/>
		</g>
	</g>
	<g>
		<g>
			<path d="M249.17,191.78c0.23,2.52,1.39,4.92,3.69,6.15c2.19,1.17,4.92,0.98,6.74-0.79c1.12-1.09,1.41-2.48,1.52-3.98
				c0.12-1.78,0.2-3.56,0.23-5.35c0.07-3.5,0.14-7.1-0.51-10.56c-0.64-3.37-2.25-6.59-5.14-8.56c-1.07-0.72-2.07,1.01-1.01,1.73
				c4.74,3.22,4.69,9.87,4.69,14.96c0,1.5-0.03,3-0.08,4.5c-0.06,1.44,0.02,3.04-0.32,4.45c-0.46,1.92-2.64,2.74-4.4,2.17
				c-2.05-0.66-3.21-2.64-3.4-4.72c-0.05-0.54-0.42-1-1-1C249.66,190.78,249.12,191.24,249.17,191.78L249.17,191.78z"/>
		</g>
	</g>
	<g>
		<g>
			<path d="M264.91,186.55c-0.12,0.77-0.25,1.55-0.37,2.32c-0.03,0.17-0.06,0.33-0.1,0.49c-0.05,0.23,0.09-0.11-0.03,0.1
				c-0.03,0.05-0.17,0.23-0.02,0.06c-0.09,0.1-0.18,0.19-0.29,0.28c0.17-0.15-0.02,0.01-0.06,0.04c-0.07,0.05-0.14,0.09-0.21,0.13
				c-0.28,0.18-0.57,0.35-0.86,0.51c-0.08,0.04-0.17,0.08-0.25,0.12c-0.16,0.08,0.05-0.01-0.06,0.02c-0.16,0.05-0.32,0.1-0.48,0.14
				c-0.28,0.07,0.19,0-0.05,0.01c-0.08,0-0.15,0.01-0.23,0c-0.04,0-0.25-0.04-0.1,0c0.15,0.03-0.06-0.02-0.09-0.03
				c-0.06-0.02-0.16-0.03-0.21-0.07c0.21,0.13,0.02-0.01-0.03-0.03c-0.17-0.09,0.1,0.13-0.03-0.02c-0.04-0.04-0.18-0.22-0.04-0.02
				c-0.3-0.42-0.88-0.67-1.37-0.36c-0.42,0.27-0.69,0.91-0.36,1.37c0.56,0.77,1.42,1.19,2.38,1.17c0.94-0.03,1.78-0.47,2.57-0.95
				c0.81-0.49,1.52-1.06,1.77-2.02c0.11-0.42,0.15-0.85,0.22-1.28c0.08-0.48,0.16-0.97,0.23-1.45c0.08-0.51-0.13-1.1-0.7-1.23
				C265.66,185.75,265,186,264.91,186.55L264.91,186.55z"/>
		</g>
	</g>
	<path class="st20" d="M228.63,187.14l-9.4,1.47c-0.2-1.31-0.7-4.05-0.37-5.33c0.53-2.06,2.27-3.54,3.94-4.86
		c1.36-1.08,2.77-2.19,3.6-3.71c0.25-0.46,0.44-0.94,0.74-1.37c0.95-1.38,2.7-1.89,4.12-2.78c3.13-1.95,4.94-5.93,8.5-6.9
		c1.4-0.38,2.88-0.22,4.32-0.06c1.41,0.16,2.82,0.32,4.24,0.47c0.62,0.07,1.27,0.13,1.83-0.13c0.5-0.23,0.85-0.69,1.27-1.04
		c1.37-1.14,3.34-1.09,5.12-0.98c0.99,0.06,2.02,0.12,2.92,0.53c0.93,0.42,1.67,1.16,2.34,1.92c1.63,1.86,3.46,4.18,4.47,6.44"/>
	<g>
		<g>
			<path d="M261.82,191.78c-0.03,1.61-0.19,3.3-1.15,4.66c-0.44,0.63-1.1,1.22-1.87,1.39c-0.5,0.11-1.01,0.16-1.51,0.24
				c-2.66,0.42-5.33,0.84-7.99,1.25c-7.1,1.12-14.21,2.23-21.31,3.35c-1.71,0.27-3.42,0.54-5.12,0.8c-0.49,0.08-0.88,0.77-0.7,1.23
				c1.74,4.3,3.71,8.52,6.07,12.51c1.11,1.88,2.26,3.6,4,4.96c1.43,1.12,2.99,1.98,4.67,2.67c0.88,0.37,1.8,0.69,2.74,0.91
				c1.25,0.29,1.79-1.64,0.53-1.93c-2.18-0.5-4.31-1.5-6.13-2.78c-1.62-1.15-2.74-2.6-3.75-4.29c-1.12-1.88-2.16-3.81-3.13-5.77
				c-1.1-2.23-2.13-4.51-3.06-6.82c-0.23,0.41-0.47,0.82-0.7,1.23c4.81-0.76,9.63-1.51,14.44-2.27c6.59-1.03,13.17-2.07,19.76-3.1
				c0.58-0.09,1.19-0.15,1.76-0.28c1.32-0.3,2.44-1.35,3.15-2.46c1.05-1.64,1.28-3.62,1.32-5.52
				C263.85,190.49,261.85,190.49,261.82,191.78L261.82,191.78z"/>
		</g>
	</g>
</g>
</svg>
