<?xml version="1.0" encoding="utf-8"?>
<!-- Generator: Adobe Illustrator 28.0.0, SVG Export Plug-In . SVG Version: 6.00 Build 0)  -->
<svg version="1.1" id="Layer_1" xmlns="http://www.w3.org/2000/svg" xmlns:xlink="http://www.w3.org/1999/xlink" x="0px" y="0px"
	 viewBox="0 0 800 800" style="enable-background:new 0 0 800 800;" xml:space="preserve">
<style type="text/css">
	.st0{fill:#1C1F23;}
	.st1{fill:url(#SVGID_1_);}
	.st2{fill:url(#SVGID_00000127038395456240028120000008104767894935526283_);}
	.st3{fill:url(#SVGID_00000140698554461111086100000015537201085767393455_);}
	.st4{fill:url(#SVGID_00000002355731182674416430000001221051257208153764_);}
	.st5{fill:url(#SVGID_00000137848445341585587780000009353696089633006005_);}
	.st6{fill:url(#SVGID_00000005985988835233714610000002259179519714165143_);}
	.st7{fill:url(#SVGID_00000117675544844820118520000006277394318631342770_);}
	.st8{fill:url(#SVGID_00000018917978352212585370000005722943166388385193_);}
	.st9{fill:url(#SVGID_00000134960543824729729760000007127065407233218193_);}
	.st10{fill:url(#SVGID_00000178164463121638928260000011648203645396818077_);}
	.st11{fill:url(#SVGID_00000137817612777601089560000013525131741912711098_);}
	.st12{fill:url(#SVGID_00000016787043344310865940000001841302944666295961_);}
	.st13{fill:url(#SVGID_00000117658526593056106670000007840726779526640061_);}
	.st14{fill:url(#SVGID_00000152949770137245715510000007190709543211932292_);}
	.st15{fill:url(#SVGID_00000018221186495122575360000001143701480532621966_);}
	.st16{fill:url(#SVGID_00000183941158633889347520000009980801962062952346_);}
	.st17{fill:url(#SVGID_00000003795013413241924160000005961122447066439093_);}
	.st18{fill:url(#SVGID_00000026867029033173517570000003559488909804956553_);}
	.st19{fill:url(#SVGID_00000044879823057136373930000010766090143636528549_);}
	.st20{fill:url(#SVGID_00000113311275537865911790000006869446321902666887_);}
	.st21{fill:url(#SVGID_00000016775256518333308990000013622483210896205235_);}
	.st22{fill:url(#SVGID_00000137826642161050295650000000271372377708473475_);}
	.st23{fill:url(#SVGID_00000102539420927261631490000002971838506989779844_);}
	.st24{fill:url(#SVGID_00000070113634689159694170000005555897373549902764_);}
	.st25{fill:url(#SVGID_00000171000677259456235810000003162828419137696437_);}
	.st26{fill:url(#SVGID_00000084488005993551127670000010247279827939841447_);}
	.st27{fill:url(#SVGID_00000150804051642699485390000018250467541213046403_);}
	.st28{fill:url(#SVGID_00000043423778061549094580000013356956268860656823_);}
	.st29{fill:url(#SVGID_00000131336294539251851780000012601920151934131634_);}
	.st30{fill:url(#SVGID_00000000199275558420313950000002485472337297094836_);}
</style>
<g id="_x32_-PANTS__x5B_DUROV_x5D_">
	<path id="color_00000152247982282643216260000015221814954942990015_" class="st0" d="M513.93,583.02
		c-1.77-4.23-1.52-8.92-1.84-13.41c-0.33-4.58-1.46-8.82-2.65-13.25c-0.66-2.47-1.63-4.74-2.12-7.24
		c-1.13-5.81-2.12-11.65-3.11-17.49c-1.16-6.82-2.31-13.8-1.16-20.62c0.29-1.71,0.73-3.45,0.46-5.17c-0.27-1.75-1.24-3.29-2.16-4.79
		c-0.42-0.68-0.84-1.38-0.99-2.16c-0.29-1.48,0.82-2.86,0.85-4.33c0.03-1.7-0.99-3.23-1.54-4.78c-0.92-2.61-0.69-5.46-0.89-8.21
		c-0.2-2.86-0.88-5.66-1.55-8.44c-0.73-3.05-1.7-5.67-2.85-8.57c-1.64-4.14-2.5-8.25-3.61-12.52c-0.15-0.59-0.3-1.19-0.23-1.79
		c0.07-0.57,0.33-1.1,0.57-1.62c0.5-1.11,0.92-2.36,0.56-3.52c-0.47-1.53-1.96-2.47-2.52-3.98c-0.74-2.04-0.14-4.2-0.28-6.31
		c-0.19-2.92-1.8-5.53-3.12-8.14c-3.07-6.09-6.33-13.3-6.28-20.25c0.02-3.24,1.05-6.5,0.4-9.67c-0.24-1.16-0.7-2.28-0.77-3.47
		c-0.08-1.23,0.27-2.49-0.1-3.66c-0.41-1.33-1.66-2.28-2.11-3.6c-0.38-1.12-0.13-2.35-0.3-3.51c-0.19-1.32-0.95-2.56-2.04-3.33
		c-0.93-0.66-2.06-0.97-3.17-1.25c-6.85-1.76-13.84-2.93-20.89-3.48c-4.95-0.39-9.75,0.18-14.69,0.3
		c-5.17,0.12-10.34,0.08-15.5-0.11c-5.03-0.19-10.05-0.52-15.07-0.62c-15.43-0.31-30.83,1.56-45.99,4.42
		c-3.17,0.6-6.34,1.24-9.54,1.65c-3.03,0.39-6.13,0.57-9.02,1.57c-1.66,0.57-3.23,1.42-4.62,2.48c-1.17,0.89-2.63,1.5-3.09,2.95
		c-3.98,12.58-3.74,26.06-3.47,39.25c0.02,0.81,0.04,1.63,0.29,2.4c0.7,2.11,3.72,3.85,3.69,6.16c-0.02,1.59-1.89,2.38-3.43,2.79
		c-0.37,0.88,0.56,1.73,0.78,2.66c0.24,0.99-0.34,1.98-0.44,2.99c-0.09,0.94,0.24,1.87,0.54,2.77c3.71,11.23,2.19,23.47,3.81,35.19
		c0.23,1.64,0.55,3.84,1.19,5.35c0.57,1.34,2.35,1.82,2.93,3.15c0.53,1.22-0.16,2.58-0.39,3.88c-0.19,1.09-0.06,2.21,0.08,3.3
		c0.77,5.96,1.79,11.88,3.04,17.75c0.31,1.44,0.62,2.98,0.11,4.36c-0.18,0.49-0.46,0.94-0.59,1.44c-0.48,1.8,0.99,3.46,1.94,5.07
		c1.18,2.01,1.37,4.38,1.97,6.58c0.68,2.47,0.98,5.03,1.29,7.58c0.63,5.26,1.25,10.52,1.88,15.78c0.09,0.76,0.18,1.57-0.13,2.27
		c-0.24,0.55-0.7,0.98-0.94,1.53c-1.18,2.67,3.17,5.28,2.32,8.07c-0.2,0.65-0.67,1.19-0.89,1.84c-0.68,1.93,0.99,3.86,2.61,5.1
		c3.45,2.63,4.89,5.66,2.64,9.81c-0.76,1.41-1.92,2.79-1.71,4.38c0.18,1.31,1.25,2.29,2,3.37c1.78,2.57,1.84,5.91,2.16,9.02
		c0.53,5.13,1.96,10.16,4.21,14.81c0.91,1.88,3.24,4.46,2.81,6.65c-0.45,2.29-2.43,3.55-1.23,6.13c0.5,1.07,1.26,1.99,1.92,2.97
		c2.4,3.52,2.84,7.56,3.71,11.58c0.41,1.89,0.56,3.83,0.71,5.76c0.44,5.63,0.89,11.26,1.33,16.89c0.12,1.49,0.24,3,0.59,4.45
		c0.32,1.34,0.84,2.63,1.48,3.85c1.35,2.61,3.63,4.31,5.15,6.7c0.63,0.99,0.91,2.17,1.15,3.32c0.45,2.19,0.82,4.39,1.1,6.6
		c0.2,1.6,0.43,3.36,1.63,4.45c0.8,0.73,1.89,1.02,2.95,1.25c1.44,0.32,2.89,0.58,4.35,0.78c8.98,1.25,18.27,0.31,26.8-2.75
		c1.28-0.46,2.69-1.11,3.13-2.4c0.24-0.7,0.13-1.46,0.05-2.19c-0.56-4.72-0.32-9.73,1.94-13.91c1.18-2.18,2.88-4.09,3.75-6.41
		c2.21-5.87-1.4-12.49-0.14-18.64c0.36-1.75,1.1-3.4,1.45-5.15c0.53-2.65-0.47-4.91-0.73-7.49c-0.47-4.61,2.79-9.34,1.2-13.69
		c-0.77-2.09-2.59-3.78-2.87-5.98c-0.21-1.63,0.46-3.22,0.95-4.78c0.85-2.67,1.21-5.5,1.06-8.3c-0.31-6-1.32-11.87-0.04-17.84
		c0.27-1.25,0.61-2.62,0.03-3.76c-0.32-0.62-0.88-1.08-1.39-1.57c-2.22-2.16-3.49-5.25-3.44-8.34c0.08-4.38,2.67-8.65,1.7-12.93
		c-0.28-1.24-0.86-2.4-1.21-3.62c-1.1-3.84,0.48-6.95,0.98-10.67c0.48-3.56,1.02-6.72,0.35-10.33c-0.84-4.49-3.69-9.43-2.12-13.97
		c0.69-1.99,1.47-3.95,2.33-5.86c1.22,0.41,2.03,1.62,2.34,2.88s0.22,2.56,0.17,3.85c-0.05,1.44-0.04,2.89,0.03,4.33
		c0.08,1.46,0.23,2.95,0.9,4.25c0.72,1.39,1.98,2.42,2.98,3.63s1.78,2.83,1.3,4.32c-0.71,2.18,2.13,4.38,3.58,5.84
		c1.7,1.72,3.53,3.55,3.94,6.04c0.37,2.25-0.53,4.55-0.24,6.81c0.46,3.65,3.9,6.64,3.57,10.3c-0.12,1.34-0.76,2.63-0.65,3.97
		c0.11,1.44,1.05,2.67,2.09,3.68s2.22,1.88,3.05,3.06c0.95,1.35,1.36,3,1.69,4.63c0.42,2.11,0.48,4.28,0.88,6.38
		c0.41,2.17,1.15,4.36,1.71,6.51c1.21,4.71,2.43,9.42,3.64,14.14c0.14,0.53,0.28,1.07,0.64,1.48c0.71,0.81,1.96,0.8,2.96,1.21
		c1.33,0.54,2.26,1.94,2.23,3.37c-0.04,1.94-1.64,3.93-0.74,5.65c0.27,0.52,0.72,0.9,1.12,1.32c2.69,2.82,2.98,7.16,5.07,10.45
		c2.88,4.54,4.67,10.23,5.6,15.51c0.91,5.17,0.73,10.72,3.32,15.27c2.97,5.21,9.03,8.1,11.91,13.35c1.67,3.04,2.12,6.55,2.75,9.91
		c0.31,1.68,0.76,3.27,1.22,4.91c0.33,1.18,0.35,2.84,1.56,3.54c0.33,0.19,0.68,0.28,1.04,0.29c0.99,0.03,2.06-0.5,3.04-0.87
		c1.55-0.59,3.21-0.79,4.86-0.98c2.08-0.24,4.15-0.49,6.23-0.73c2.96-0.35,5.95-0.7,8.93-0.52c2.99,0.18,5.98,0.9,8.95,0.52
		c0.81-0.1,1.67-0.32,2.21-0.93c0.62-0.69,0.67-1.7,0.68-2.63c0.02-2.29,0.17-4.78-0.27-7.03c-0.42-2.14-1.11-4.29-0.34-6.46
		c0.69-1.96,2.7-2.98,3.76-4.7c0.77-1.24,0.98-2.75,0.96-4.21c-0.04-4.42-1.89-8.81-1.04-13.15c0.08-0.43,0.19-0.87,0.12-1.3
		c-0.27-1.53-2.51-1.9-3.07-3.34c-0.73-1.9,1.96-4.02,0.99-5.82c-0.25-0.46-0.69-0.76-1.08-1.1c-2.19-1.87-3.07-4.86-3.33-7.72
		c-0.24-2.57-0.02-5.19-0.36-7.75c-0.32-2.35-1.07-4.66-1.59-6.98c-0.39-1.73-1.29-2.89-1.94-4.46c-0.85-2.08-1.43-4.7-1.13-6.96
		c0.27-2.01,1.2-4.01,1.18-6.06c-0.01-1.09-0.41-2.18-1.12-3.01c-0.52-0.61-1.18-1.07-1.78-1.59c-1.77-1.52-1.75-2.78-0.55-4.5
		c1.31-1.86,0.04-2.51-0.63-4.33c-0.45-1.22,0.1-2.57,0.05-3.87C515.17,585.52,514.45,584.28,513.93,583.02z"/>
	<g id="shadow_00000120529289786234570650000013268460457357392256_">
		
			<linearGradient id="SVGID_1_" gradientUnits="userSpaceOnUse" x1="436.0097" y1="213.8202" x2="335.0554" y2="208.7432" gradientTransform="matrix(1 0 0 -1 0 799.8898)">
			<stop  offset="5.993717e-04" style="stop-color:#040404"/>
			<stop  offset="0.5763" style="stop-color:#141619;stop-opacity:0.4239"/>
			<stop  offset="1" style="stop-color:#1C1F23;stop-opacity:0"/>
		</linearGradient>
		<path class="st1" d="M394.31,682.89c1.26,0.68,2.61,1.38,4.03,1.22c0.55-0.06,1.09-0.25,1.63-0.17c0.42,0.06,0.79,0.28,1.16,0.49
			c1.01,0.59,2.01,1.17,3.02,1.76c0.26,0.15,0.55,0.33,0.64,0.63c0.15,0.5-0.35,0.94-0.79,1.22c-0.86,0.56-1.71,1.11-2.57,1.67
			c0.51,0.38,1.04,0.78,1.29,1.37c0.24,0.59,0.06,1.4-0.54,1.61c-0.71,0.25-1.63-0.4-2.17,0.12c0.01,1.89,1.76,3.42,3.61,3.82
			c1.85,0.4,3.77-0.06,5.59-0.56c2.83-0.77,5.69-1.66,8.06-3.39c0.42-0.31,0.84-0.66,1.03-1.15c0.18-0.47,0.13-0.99,0.07-1.49
			c-0.21-1.91-0.32-3.83-0.36-5.75c-0.04-2.04,0.03-4.12,0.71-6.04c0.76-2.16,2.24-3.97,3.5-5.88c2.3-3.48,2.66-6.99,2.14-11.03
			c-0.53-4.06-1.49-8.31-0.21-12.33c0.72-2.28,2.22-4.54,1.67-6.87c-0.32-1.36-1.29-2.48-1.69-3.82c-0.71-2.33,0.42-4.78,1.36-7.03
			c0.85-2.05,1.53-4.49,0.62-6.44c-0.09-0.19-0.19-0.38-0.32-0.56c-0.63-0.94-1.63-1.58-2.28-2.5c-1.61-2.26-0.74-5.35-0.19-8.07
			c0.87-4.29,0.53-8.52,0.55-12.85c0.02-3.75,0.31-7.65,0.95-11.37c0.3-1.75,0.67-3.64-0.13-5.23c-0.57-1.14-1.66-1.92-2.45-2.93
			c-1.68-2.16-1.79-5.12-1.82-7.86c-0.02-1.76-0.03-3.56,0.47-5.25c0.47-1.57,1.37-3.03,1.51-4.66c0.14-1.69-0.56-3.32-1.15-4.91
			c-0.72-1.97-1.27-4.07-1.22-6.18c0.05-1.99,0.89-3.61,1.51-5.44s0.99-3.75,1.11-5.68c0.24-3.68-0.42-7.43-1.98-10.78
			c-0.44-0.94-0.95-1.87-1.19-2.88c-0.66-2.76,0.75-5.54,1.2-8.34c0.25-1.56,0.21-3.18-0.24-4.7c-0.99-3.39-3.73-5.81-6-8.36
			c-1.09-1.22-2.16-2.37-2.56-3.92c-0.52-2.02-1.26-3.32-2.79-4.83c-1.45-1.43-2.9-2.87-4.36-4.3c-2.72-2.69-5.51-5.42-8.94-7.12
			c-1.49-0.74-3.07-1.26-4.64-1.79c-4.25-1.42-8.49-2.83-12.74-4.25c-0.4-0.13-0.8-0.27-1.22-0.23c-1.1,0.1-1.72,1.27-2.25,2.24
			c-1.45,2.62-3.66,4.73-5.83,6.79c-1.27,1.2-2.54,2.41-3.81,3.61c-0.96,0.91-1.96,1.84-3.2,2.31c-1.37,0.51-2.88,0.4-4.32,0.65
			c-1.96,0.35-3.72,1.37-5.43,2.37c0.69,1.08,1.74,1.87,2.6,2.81c0.87,0.95,1.55,2.05,2.22,3.14c1.18,1.92,2.37,3.84,3.55,5.76
			c1.71,2.76,3.41,5.53,5.12,8.29c1.11,1.8,2.26,3.71,2.28,5.83c-4.12-1.16-8.4-1.73-12.68-1.67c0.81,1.96,2.75,3.21,4.7,4.04
			c1.9,0.81,4,1.29,5.86,2.13c1.83,0.83,0.69,1.99,0.03,3.49c-0.62,1.4-1.24,2.54-1.49,4.08c-0.58,3.56,0.65,7.02,2.71,9.89
			c1.04,1.45,2.29,2.64,3.57,3.86c1.37,1.3,2.41,2.98,3.53,4.54c0.91,1.27,1.86,2.68,1.76,4.23c-0.03,0.42-0.14,0.86-0.45,1.16
			c-0.33,0.32-0.82,0.41-1.27,0.47c-2,0.3-4.01,0.51-6.03,0.63c-1.59,0.1-3.53,0.38-4.07,1.88c-0.25,0.69-0.1,1.45,0.05,2.17
			c0.75,3.56,1.55,7.23,3.66,10.18c3.25,4.53,8.91,6.52,13.41,9.81c2.65,1.94,4.91,4.36,7.16,6.76c1,1.07,2,2.14,3,3.21
			c-4.6-2.05-8.48-6.08-13.51-6.49c-0.33-0.03-0.72-0.01-0.89,0.27c-0.13,0.21-0.09,0.48-0.03,0.72c0.49,2.16,1.34,4.52,2.62,6.34
			c1.25,1.79,3.22,3.07,4.73,4.63c2.23,2.3,4.4,4.66,6.5,7.07c0.56,0.65,2.04,1.84,2.27,2.65c0.68,2.46-1.12,1.95-3.09,2.33
			c-1.64,0.32-3.52,0.23-5.09,0.83c-1.22,0.46-2.48,1.09-3.67,1.64c-1.1,0.51-2.14,1.3-3.14,1.98c-1.28,0.88-2.66,2.53-4.24,2.75
			c0.69,2.5,2.48,4.51,4.17,6.48c5.04,5.89,9.61,12.26,12.74,19.35c0.28,0.64,0.55,1.35,0.34,2.01c-1.06,3.26-9.23-0.72-10.95-1.35
			c-0.83-0.31-1.92-0.55-2.47,0.15c-0.2,0.26-0.28,0.6-0.33,0.92c-0.53,3.14-0.01,6.4,1.14,9.37c0.35,0.9,0.76,1.78,1.36,2.53
			c0.53,0.66,1.2,1.19,1.77,1.8c3.33,3.54,3.09,8.89,4.12,13.4c0.25,1.09,0.5,2.18,0.98,3.19
			C388.51,680.3,391.4,681.32,394.31,682.89z"/>
		
			<linearGradient id="SVGID_00000083046443576788852380000006046439770970422463_" gradientUnits="userSpaceOnUse" x1="398.7727" y1="220.0591" x2="503.6277" y2="287.7076" gradientTransform="matrix(1 0 0 -1 0 799.8898)">
			<stop  offset="5.993717e-04" style="stop-color:#040404"/>
			<stop  offset="0.5763" style="stop-color:#141619;stop-opacity:0.4239"/>
			<stop  offset="1" style="stop-color:#1C1F23;stop-opacity:0"/>
		</linearGradient>
		<path style="fill:url(#SVGID_00000083046443576788852380000006046439770970422463_);" d="M499.2,615.19
			c0.82-0.67,1.38-1.54,1.38-2.72c0-1.35-0.77-2.6-1.75-3.54s-2.16-1.63-3.26-2.41c-2.97-2.12-5.72-4.98-8.07-7.76
			c-1.54-1.82-3.16-3.68-4.29-5.79c-0.1-0.2-0.21-0.42-0.15-0.63c0.04-0.16,0.17-0.29,0.3-0.39c0.48-0.36,1.1-0.47,1.7-0.54
			c3.3-0.4,6.07-0.41,9.37,0.26c3.82,0.77,7.54,1.92,11.26,3.09c-0.91-2.22-1.26-4.63-2.05-6.89c-0.5-1.42-0.96-2.81-1.66-4.12
			c-1.48-2.77-2.29-5.98-2.91-9.05c-0.76-3.75-1.07-7.59-0.95-11.42c0.11-3.43,1.22-6.72,0.85-10.09c-0.02-0.22-0.06-0.46-0.21-0.62
			c-0.13-0.14-0.33-0.19-0.52-0.23c-4.33-1.05-8.53-2.64-12.47-4.72c-0.94-0.5-1.95-1.11-2.27-2.13c2.91,0.92,5.93,1.7,8.97,1.43
			c0.33-0.03,0.71-0.09,0.91-0.36c0.15-0.19,0.17-0.45,0.19-0.7c0.2-3.02,0.04-6.2-1.47-8.83c-3.35-5.86-11.84-6.79-15.86-12.21
			c1.34-0.27,2.69-0.53,4.03-0.8c0.64-0.13,1.3-0.27,1.78-0.7c0.66-0.6,0.79-1.59,0.71-2.48c-0.19-2.15-1.35-4.21-3.11-5.47
			c-3.35-2.4-7.38-1.26-10.63,0.64c-1.64,0.96-3.54,1.89-5.36,1.35c-2.39-0.7-3.4-3.48-3.87-5.92c-0.64-3.31-0.93-6.69-1.76-9.96
			c-1.2-4.79-3.53-9.33-3.88-14.25c-0.06-0.8-0.05-1.65,0.39-2.32c0.56-0.87,1.68-1.19,2.71-1.33c1.41-0.19,2.84-0.17,4.24,0.06
			c-1.51-2.87-4.46-4.69-7.45-5.96c-2.32-0.98-4.9-2.56-7.41-2.9c-2.49-0.34-4.47-0.88-6.81-1.99c-4.34-2.05-8.66-4.12-13.01-6.15
			c-2.36-1.1-6.45-3.21-6.87-6.12c-0.16-1.09,0.26-2.18,0.67-3.2c1.23-3.08,2.78-6.48,5.88-7.64c0.4-0.15,0.84-0.27,1.16-0.56
			c0.64-0.58,0.56-1.59,0.44-2.44c-1.31-9.41-1.35-18.99-0.14-28.42c0.11-0.89,0.24-1.84-0.11-2.67c-0.26-0.62-0.76-1.11-1.24-1.59
			c-2.26-2.2-4.72-4.51-7.83-5.06c-3.12-0.55-6.22,0.79-9.31,1.5c-10.42,2.42-21.13-2.24-31.82-2.24c1.13,7.18,1.31,14.5,0.53,21.73
			c-0.1,0.95-0.22,1.92-0.05,2.87c0.31,1.74,1.53,3.14,2.65,4.51c7.12,8.65,11.96,19.16,13.91,30.19c-2.89-0.24-4.98,2.59-7.54,3.96
			c-2.66,1.43-5.98,1.22-8.73-0.03s-4.96-3.44-6.76-5.86c0.87,3.94,1.66,8.39-0.57,11.75c-0.73,1.09-1.74,1.99-2.36,3.15
			s-0.73,2.77,0.26,3.64c0.7,0.62,1.95,1.03,1.76,1.94c-3.67,2-7.48,3.72-11.41,5.14c1.39,2.38,4.48,3.14,7.24,3.14
			c4.58,0,8.04-0.85,11.94,1.64c4.04,2.57,8.45,4.47,12.84,6.34c1.82,0.77,4.07,1.47,5.66,0.29c1.4-1.03,1.59-3.01,1.67-4.75
			c4.27,1.83,8.41,3.96,12.39,6.37c-0.91-1.06-1.37-2.48-1.26-3.87c1.34,1.77,3.5,2.89,5.72,2.98c0.74,0.03,1.52-0.05,2.21,0.22
			c1.05,0.41,1.65,1.49,2.16,2.48c1.75,3.4,3.1,7.08,4.91,10.36c1.81,3.28,4.66,6.25,7.1,9.07c-1.5,1.98-1.48,4.93-0.26,7.51
			c3.05,6.48,7.3,12.18,9.99,18.92c2.65,6.64,4.56,13.58,5.71,20.64c1.01,6.19,1.96,10.64,5.89,15.6c2.71,3.42,1.47,6.21,2.12,10.1
			c0.47,2.79,2.17,5.33,3.45,7.82c3.39,6.6,6.53,13.32,9.48,20.13c3.1,7.18,5.96,14.47,8.59,21.83c0.71,1.99,1.4,3.98,2.07,5.98
			c0.63,1.86,1,4.17,1.93,5.9c0.8,1.49,2.14,2.79,3.02,4.27c1,1.68,1.85,3.45,2.52,5.29c0.4,1.1,0.74,2.23,0.88,3.4
			c0.2,1.64,0.01,3.37,0.63,4.91c1.05,2.58,4.26,4.34,4.01,7.11c-0.11,1.19-0.88,2.22-1.12,3.39c-0.39,1.87,0.6,3.92-0.15,5.68
			c-0.14,0.33-0.34,0.64-0.41,0.99c-0.18,0.94,0.69,1.82,1.63,2.01s1.9-0.12,2.8-0.42c1.91-0.64,3.84-1.29,5.85-1.53
			c2.53-0.31,5.16,0.03,7.58-0.77c2.76-0.92,4.84-3.22,6.51-5.61c1.52-2.18,2.82-4.52,3.87-6.97c0.36-0.83,0.69-1.75,0.46-2.62
			c-0.2-0.75-0.79-1.34-1.43-1.79c-2.66-1.85-6.59-1.6-9,0.57c-0.91,0.82-1.77,1.95-3,2.01c-1.51,0.06-2.52-1.54-2.89-3
			c-1.4-5.53,1.8-11.4,6.34-14.84s10.22-4.96,15.73-6.41c-1.88-1.76-4.54-2.34-7.01-3.1c-4.79-1.48-9.25-3.86-13.67-6.23
			c-3.07-1.64-6.15-3.3-8.84-5.5c3.94,0.39,7.88,0.79,11.83,1.18c-3.41-1.71-6.83-3.42-10.24-5.12c0.96-1,2.08-1.85,3.3-2.5
			c-2.72-2.01-5.76-3.58-8.45-5.63c-2.34-1.79-4.51-4.07-5.52-6.89c-0.35-0.98-0.98-2.86,0.22-3.48c0.99-0.51,3.2,0.35,4.23,0.45
			c1.7,0.16,2.66-0.6,4.09-1.25C495.98,616.83,497.91,616.25,499.2,615.19z"/>
		
			<linearGradient id="SVGID_00000122689279319964829730000012139448342042742949_" gradientUnits="userSpaceOnUse" x1="515.9749" y1="278.3146" x2="463.4393" y2="260.8027" gradientTransform="matrix(1 0 0 -1 0 799.8898)">
			<stop  offset="5.993717e-04" style="stop-color:#040404"/>
			<stop  offset="0.5763" style="stop-color:#141619;stop-opacity:0.4239"/>
			<stop  offset="1" style="stop-color:#1C1F23;stop-opacity:0"/>
		</linearGradient>
		<path style="fill:url(#SVGID_00000122689279319964829730000012139448342042742949_);" d="M505.75,545.86
			c-0.39-1.27-0.77-2.53-0.88-3.85c-0.31-3.57,1.04-6.64-0.16-10.09c-1.24-3.57-0.53-7.94-0.93-11.68
			c-0.26-2.41-1.33-4.72-1.28-7.17c0.05-2.99,1.68-5.15,1.09-8.31c-0.26-1.41-0.96-2.93-2.33-3.37c0.21,1.01-0.3,2.04-0.95,2.84
			c-0.18,0.23-0.39,0.45-0.67,0.54c-0.25,0.08-0.53,0.04-0.79-0.02c-1.67-0.36-2.88-1.37-4.36-2.08c-1.64-0.8-3.39-1.43-5.05-2.22
			c-3.51-1.67-7-3.38-10.51-5.06c-3.49-1.67-6.83-3.63-10.03-5.82c-2.4-1.64-4.06-4.11-6.7-5.46c-2.03-1.05-4.59-1.36-6.58-0.24
			c-0.33,0.19-0.65,0.42-0.82,0.75c-0.17,0.31-0.19,0.68-0.2,1.03c-0.11,3.41,0.75,6.77,1.6,10.07c1.4,5.42,2.79,10.83,4.19,16.25
			c0.32,1.22,0.64,2.47,1.31,3.54s1.74,1.97,3,2.1c1.93,0.2,3.53-1.34,5.2-2.31c3.48-2.02,8.25-1.55,11.26,1.13
			c1.08,0.96,1.97,2.24,2.1,3.68c0.17,2-1.19,3.36-3.04,3.83c-1.35,0.35-2.81,0.36-4.08,0.95c0.84,1.51,1.98,2.84,3.34,3.9
			c2.35,1.83,5.24,2.79,7.97,3.99c2.62,1.15,3.69,3.23,4.35,5.88c0.78,3.15,0.59,5.89,2.61,8.74c1.19,1.68,2.75,3.06,4.02,4.67
			c3.4,4.29,4.59,9.93,4.96,15.4c-1.32-0.15-2.66-0.04-3.94,0.31c-0.19,0.05-0.42,0.18-0.38,0.37c0.01,0.07,0.07,0.13,0.12,0.19
			c4.15,4.41,8.61,8.53,13.33,12.31c-0.83-4.4-1.24-8.88-1.24-13.36c0-1.54,0.05-3.09-0.13-4.62c-0.25-2.06-0.91-4.05-1.6-6.01
			C508.24,553.06,506.88,549.52,505.75,545.86z"/>
		
			<linearGradient id="SVGID_00000011007922429618012950000008530769660372293795_" gradientUnits="userSpaceOnUse" x1="303.7359" y1="326.0972" x2="443.334" y2="388.8639" gradientTransform="matrix(1 0 0 -1 0 799.8898)">
			<stop  offset="5.993717e-04" style="stop-color:#040404"/>
			<stop  offset="0.5763" style="stop-color:#141619;stop-opacity:0.4239"/>
			<stop  offset="1" style="stop-color:#1C1F23;stop-opacity:0"/>
		</linearGradient>
		<path style="fill:url(#SVGID_00000011007922429618012950000008530769660372293795_);" d="M345.54,450.82
			c-0.67-0.14-1.39-0.28-1.87-0.77c-0.48-0.5-0.6-1.24-0.66-1.94c-0.33-3.44-0.17-6.93,0.47-10.32c0.04-0.23,0.09-0.47,0.24-0.64
			c0.22-0.26,0.58-0.33,0.88-0.48c1.39-0.68,1.16-2.7,0.72-4.18c-1.53-5.14-3.15-10.46-6.71-14.48c-0.45-0.51-0.96-1.09-0.9-1.76
			c0.05-0.56,0.49-0.99,0.91-1.36c5.54-4.89,12.96-7.09,20.27-8.13c11.78-1.67,23.93-0.63,35.25,3.02c0.88,0.28,1.94,0.84,1.86,1.76
			c-0.04,0.44-0.33,0.8-0.62,1.13c-1.37,1.6-2.73,3.21-4.1,4.81s-2.81,3.39-2.84,5.5c-0.02,1.5,0.68,2.89,1.35,4.23
			c7.13,14.32,12,29.63,16.85,44.87c-8.37,1.66-16.91,2.45-25.44,2.35c-1.76-0.02-3.75-0.19-4.83-1.58
			c-0.45-0.58-0.68-1.3-1.11-1.88c-0.48-0.66-1.19-1.11-1.88-1.54c-1.79-1.13-3.58-2.26-5.37-3.38c-2.26-1.43-3.32-4.47-6.19-4.79
			c-0.59-0.06-1.21-0.02-1.75-0.26c-0.85-0.37-1.68-2.28-2.31-3c-1.08-1.24-2.32-2.36-3.65-3.33
			C351.57,452.82,348.63,451.48,345.54,450.82z"/>
		
			<linearGradient id="SVGID_00000174574393008618694110000007454241489666259612_" gradientUnits="userSpaceOnUse" x1="503.904" y1="375.3829" x2="416.9964" y2="344.1046" gradientTransform="matrix(1 0 0 -1 0 799.8898)">
			<stop  offset="5.993717e-04" style="stop-color:#040404"/>
			<stop  offset="0.5763" style="stop-color:#141619;stop-opacity:0.4239"/>
			<stop  offset="1" style="stop-color:#1C1F23;stop-opacity:0"/>
		</linearGradient>
		<path style="fill:url(#SVGID_00000174574393008618694110000007454241489666259612_);" d="M440.88,464.05
			c4.55,3.15,9.79,5.13,14.59,7.89c6.21,3.57,11.6,8.4,17.53,12.43c6.76,4.59,14.17,8.1,21.55,11.59
			c-3.43-13.17-6.86-26.4-8.18-39.94c-0.11-1.08-0.21-2.2-0.71-3.16c-0.82-1.55-2.51-2.39-3.87-3.5s-2.49-3.02-1.64-4.56
			c1.62,0.62,3.34,0.99,5.08,1.1c0.43,0.03,0.93,0,1.2-0.34c0.19-0.24,0.2-0.58,0.19-0.9c-0.21-4.19-3.4-7.69-6.98-9.87
			c-3.58-2.18-7.66-3.42-11.34-5.45c-1.4-0.77-2.87-1.86-3.07-3.45c-0.23-1.84,1.33-3.36,2.72-4.59c1.93-1.72,3.92-3.85,3.88-6.44
			c-0.05-2.95-2.76-5.48-2.39-8.41c0.24-1.84,1.61-3.92,0.37-5.3c-0.48-0.53-1.21-0.73-1.9-0.91c-14.26-3.59-28.84-5.93-43.52-6.99
			c-4.79-0.34-9.59-0.55-14.38-0.31c-3.96,0.2-7.91,0.71-11.8,1.52c8.47,2.01,17.4,4.28,23.57,10.41c4.24,4.21,6.73,9.82,9.12,15.3
			c1.83,4.18,3.65,8.35,5.48,12.53c0.91,2.08,1.83,4.18,2.33,6.39c-4.97-2.22-10.36-3.45-15.8-3.63c-1.45-0.05-3.16,0.13-3.89,1.38
			c3.29,2.44,6.58,4.87,9.86,7.31c0.53,0.39,1.07,0.79,1.46,1.32c2.3,3.06,1.44,7.01,3.05,10.33
			C435.05,459.2,437.83,461.92,440.88,464.05z"/>
	</g>
	<g id="light_00000096022549045000384700000014173370256626067876_">
		
			<linearGradient id="SVGID_00000120517892346042577640000013203038505767581066_" gradientUnits="userSpaceOnUse" x1="341.158" y1="264.6087" x2="351.2906" y2="264.6087" gradientTransform="matrix(1 0 0 -1 0 799.8898)">
			<stop  offset="5.993717e-04" style="stop-color:#040404"/>
			<stop  offset="0.0793" style="stop-color:#1D1D1D;stop-opacity:0.9213"/>
			<stop  offset="0.3377" style="stop-color:#6A6A6A;stop-opacity:0.6627"/>
			<stop  offset="0.5681" style="stop-color:#A7A7A7;stop-opacity:0.4321"/>
			<stop  offset="0.7621" style="stop-color:#D3D3D4;stop-opacity:0.2381"/>
			<stop  offset="0.9121" style="stop-color:#EEEEEF;stop-opacity:0.0879"/>
			<stop  offset="1" style="stop-color:#F8F8F9;stop-opacity:0"/>
		</linearGradient>
		<path style="fill:url(#SVGID_00000120517892346042577640000013203038505767581066_);" d="M350.88,556.17
			c0.78-2.22,0.28-4.88,0.06-7.16c-0.49-5.14-1.32-10.24-2.12-15.34c-0.39-2.47-0.74-4.96-1.18-7.42c-0.2-1.09-0.47-2.16-0.98-3.15
			c-0.53-1.03-1.41-1.75-2.05-2.69c-0.25-0.36-0.63-0.89-0.61-1.35c0.03-0.46,0.5-0.9,0.68-1.32c0.45-1.07,0.06-2.03-0.28-3.08
			c-0.41-1.27-0.81-2.54-1.32-3.78c-0.51-1.27-1.28-2.38-1.77-3.65c-0.04-0.09-0.17-0.06-0.15,0.04c0.24,1.34,0.16,2.69,0.37,4.04
			c0.21,1.32,0.52,2.61,0.82,3.91c0.19,0.8,0.31,1.25-0.13,1.97c-0.24,0.4-0.53,0.71-0.68,1.17c-0.3,0.91-0.23,1.99,0.1,2.88
			c0.38,1.04,1.16,1.86,1.75,2.78c0.61,0.96,0.88,1.97,1.09,3.08c0.48,2.54,0.85,5.1,1.27,7.65c0.86,5.22,1.74,10.45,2.23,15.72
			c0.11,1.2,0.3,2.45,0.22,3.66c-0.08,1.11-0.67,1.87-1.07,2.87c-0.81,2.05,0.11,4.22,1.18,6c0.47,0.78,1.74,0.28,1.49-0.63
			c-0.32-1.14-0.8-2.35-0.41-3.52C349.73,557.87,350.53,557.16,350.88,556.17z"/>
		
			<linearGradient id="SVGID_00000045592369530581918770000005325382950162407857_" gradientUnits="userSpaceOnUse" x1="347.981" y1="223.3886" x2="373.4859" y2="223.3886" gradientTransform="matrix(1 0 0 -1 0 799.8898)">
			<stop  offset="5.993717e-04" style="stop-color:#040404"/>
			<stop  offset="0.0793" style="stop-color:#1D1D1D;stop-opacity:0.9213"/>
			<stop  offset="0.3377" style="stop-color:#6A6A6A;stop-opacity:0.6627"/>
			<stop  offset="0.5681" style="stop-color:#A7A7A7;stop-opacity:0.4321"/>
			<stop  offset="0.7621" style="stop-color:#D3D3D4;stop-opacity:0.2381"/>
			<stop  offset="0.9121" style="stop-color:#EEEEEF;stop-opacity:0.0879"/>
			<stop  offset="1" style="stop-color:#F8F8F9;stop-opacity:0"/>
		</linearGradient>
		<path style="fill:url(#SVGID_00000045592369530581918770000005325382950162407857_);" d="M373.45,584.84
			c-2.01-1.67-4.01-3.36-6.09-4.94s-4-2.91-6.62-3.31c-1.16-0.17-2.52-0.43-3.52-1.07c-0.92-0.59-1.61-1.49-2.44-2.19
			c-1.57-1.34-4.9-1.97-4.7-4.51c0.06-0.71-0.98-1.14-1.44-0.6c-1.68,1.99,0.17,4.37,2,5.43c1.22,0.71,2.28,1.31,3.29,2.31
			c0.88,0.88,1.77,1.74,2.93,2.22c1.33,0.56,2.65,0.27,4.04,0.36c1.61,0.1,2.93,0.74,4.33,1.49c2.8,1.49,5.54,3.09,8.09,4.97
			C373.42,585.09,373.55,584.92,373.45,584.84z"/>
		
			<linearGradient id="SVGID_00000045609318112149054240000010701014748171862431_" gradientUnits="userSpaceOnUse" x1="353.0888" y1="188.7773" x2="366.4803" y2="188.7773" gradientTransform="matrix(1 0 0 -1 0 799.8898)">
			<stop  offset="5.993717e-04" style="stop-color:#040404"/>
			<stop  offset="0.0793" style="stop-color:#1D1D1D;stop-opacity:0.9213"/>
			<stop  offset="0.3377" style="stop-color:#6A6A6A;stop-opacity:0.6627"/>
			<stop  offset="0.5681" style="stop-color:#A7A7A7;stop-opacity:0.4321"/>
			<stop  offset="0.7621" style="stop-color:#D3D3D4;stop-opacity:0.2381"/>
			<stop  offset="0.9121" style="stop-color:#EEEEEF;stop-opacity:0.0879"/>
			<stop  offset="1" style="stop-color:#F8F8F9;stop-opacity:0"/>
		</linearGradient>
		<path style="fill:url(#SVGID_00000045609318112149054240000010701014748171862431_);" d="M364.6,625.83
			c0.02-0.32,0.05-0.63,0.1-0.95c0.03-0.33,0.06-0.37,0.07-0.12c0.26-0.2,0.62-0.23,0.9-0.45c0.57-0.46,0.82-1.16,0.81-1.88
			c-0.01-0.92-0.45-1.79-0.76-2.63c-0.4-1.09-0.8-2.17-1.21-3.26c-0.78-2.09-1.55-4.18-2.26-6.3c-1.36-4.06-2.95-8.13-3.53-12.38
			c-0.25-1.8-0.51-3.49-1.68-4.94c-1.04-1.29-2.29-2.14-3.6-3.09c-0.14-0.1-0.37,0.03-0.35,0.2c0.21,1.66,1.15,2.58,2.05,3.91
			c0.57,0.85,0.78,1.57,0.73,2.6c-0.04,0.91-0.07,1.77,0.03,2.67c0.51,4.28,2.34,8.23,3.89,12.22c0.81,2.08,1.55,4.19,2.29,6.29
			l1.16,3.27c0.13,0.36,0.43,0.84,0.42,1.21c0,0.43,0.16,0.12-0.37,0.4c-1.5,0.78-0.96,3.03-0.77,4.35c0.28,1.98,1,3.62,2.18,5.23
			c0.36,0.49,1.37,0.22,1.09-0.46C365.06,629.93,364.51,627.78,364.6,625.83z"/>
		
			<linearGradient id="SVGID_00000163764575633096555070000012329567976415311793_" gradientUnits="userSpaceOnUse" x1="367.1054" y1="130.1339" x2="389.8636" y2="130.1339" gradientTransform="matrix(1 0 0 -1 0 799.8898)">
			<stop  offset="5.993717e-04" style="stop-color:#040404"/>
			<stop  offset="0.0793" style="stop-color:#1D1D1D;stop-opacity:0.9213"/>
			<stop  offset="0.3377" style="stop-color:#6A6A6A;stop-opacity:0.6627"/>
			<stop  offset="0.5681" style="stop-color:#A7A7A7;stop-opacity:0.4321"/>
			<stop  offset="0.7621" style="stop-color:#D3D3D4;stop-opacity:0.2381"/>
			<stop  offset="0.9121" style="stop-color:#EEEEEF;stop-opacity:0.0879"/>
			<stop  offset="1" style="stop-color:#F8F8F9;stop-opacity:0"/>
		</linearGradient>
		<path style="fill:url(#SVGID_00000163764575633096555070000012329567976415311793_);" d="M389.65,696.42
			c-1.79-1.02-3.8-1.43-5.56-2.53c-0.35-0.22-0.96-0.48-1.23-0.82c-0.28-0.34-0.31-0.92-0.4-1.35c-0.24-1.12-0.41-2.24-0.6-3.37
			c-0.32-1.95-0.27-4.07-1.26-5.82c-0.46-0.81-0.94-1.4-0.93-2.36c0.01-1-0.19-1.6-0.94-2.27c-1.54-1.37-3.15-2.59-3.95-4.57
			c-0.81-2-0.97-4.26-1.28-6.38c-0.66-4.53-1.6-9.12-1.87-13.69c-0.13-2.21,0.26-4.45-0.73-6.52c-0.43-0.9-1.07-1.7-1.71-2.46
			c-0.32-0.38-0.63-0.83-0.97-1.18c-0.37-0.38-0.72-0.4-0.87-1.02c-0.03-0.14-0.25-0.08-0.21,0.06c0.17,0.67-0.07,0.78-0.03,1.34
			c0.02,0.34,0.19,0.7,0.32,1.01c0.34,0.88,0.8,1.68,1.21,2.52c1.05,2.14,0.45,4.42,0.49,6.72c0.08,4.77,1,9.5,1.69,14.21
			c0.33,2.24,0.56,4.55,1.47,6.65c0.86,2,2.32,3.46,4.03,4.76c0.18,0.14,0.77,0.45,0.85,0.6c0.14,0.26-0.05,1.12,0.04,1.49
			c0.23,0.95,0.84,1.7,1.27,2.56c0.46,0.92,0.42,1.93,0.48,2.93c0.07,1.19,0.19,2.37,0.4,3.54c0.21,1.16,0.38,2.45,0.86,3.53
			c0.45,1.01,1.38,1.61,2.36,2.07c2.16,1.01,4.63,1.92,6.97,1.16C389.9,697.11,389.99,696.62,389.65,696.42z"/>
		
			<linearGradient id="SVGID_00000065048041962448850860000004040855171583130019_" gradientUnits="userSpaceOnUse" x1="465.9937" y1="133.8536" x2="491.3337" y2="133.8536" gradientTransform="matrix(1 0 0 -1 0 799.8898)">
			<stop  offset="5.993717e-04" style="stop-color:#040404"/>
			<stop  offset="0.0793" style="stop-color:#1D1D1D;stop-opacity:0.9213"/>
			<stop  offset="0.3377" style="stop-color:#6A6A6A;stop-opacity:0.6627"/>
			<stop  offset="0.5681" style="stop-color:#A7A7A7;stop-opacity:0.4321"/>
			<stop  offset="0.7621" style="stop-color:#D3D3D4;stop-opacity:0.2381"/>
			<stop  offset="0.9121" style="stop-color:#EEEEEF;stop-opacity:0.0879"/>
			<stop  offset="1" style="stop-color:#F8F8F9;stop-opacity:0"/>
		</linearGradient>
		<path style="fill:url(#SVGID_00000065048041962448850860000004040855171583130019_);" d="M491.01,692.77
			c-0.27-1.22-0.53-2.43-0.8-3.65c-0.25-1.11-0.55-2.22-0.67-3.36c-0.12-1.1,0.01-2.19-0.05-3.29c-0.19-3.76-2.7-7.17-5.5-9.52
			c-3.03-2.55-6.72-4.8-8.01-8.78c-0.71-2.19-1.17-4.48-1.76-6.71c-0.63-2.34-1.28-4.68-1.95-7.01c-0.74-2.57-1.62-5.09-2.48-7.62
			c-0.42-1.23-0.83-2.46-1.28-3.67c-0.44-1.2-0.76-2.37-1.76-3.23c-0.2-0.18-0.56-0.13-0.63,0.17c-0.5,2.05,0.61,4.45,1.14,6.43
			c0.6,2.27,1.09,4.57,1.71,6.83c1.26,4.6,2.36,9.23,3.51,13.86c0.52,2.11,1.25,4.06,2.57,5.81c1.21,1.59,2.7,2.92,4.23,4.19
			c2.78,2.32,6.45,4.73,7.27,8.49c0.24,1.1,0.11,2.24,0.19,3.35c0.09,1.3,0.36,2.59,0.67,3.86c0.3,1.21,0.62,2.42,0.93,3.62
			s0.44,2.57,1.38,3.46c0.5,0.47,1.24,0.23,1.46-0.39C491.52,694.64,491.22,693.74,491.01,692.77z"/>
		
			<linearGradient id="SVGID_00000163054075407463354980000013149916400024621485_" gradientUnits="userSpaceOnUse" x1="436.7935" y1="214.573" x2="455.3349" y2="214.573" gradientTransform="matrix(1 0 0 -1 0 799.8898)">
			<stop  offset="5.993717e-04" style="stop-color:#040404"/>
			<stop  offset="0.0793" style="stop-color:#1D1D1D;stop-opacity:0.9213"/>
			<stop  offset="0.3377" style="stop-color:#6A6A6A;stop-opacity:0.6627"/>
			<stop  offset="0.5681" style="stop-color:#A7A7A7;stop-opacity:0.4321"/>
			<stop  offset="0.7621" style="stop-color:#D3D3D4;stop-opacity:0.2381"/>
			<stop  offset="0.9121" style="stop-color:#EEEEEF;stop-opacity:0.0879"/>
			<stop  offset="1" style="stop-color:#F8F8F9;stop-opacity:0"/>
		</linearGradient>
		<path style="fill:url(#SVGID_00000163054075407463354980000013149916400024621485_);" d="M455.31,612.18
			c-1.81-8.79-4.01-17.49-5.79-26.29c-0.74-3.65-0.86-7.35-3.75-10.07c-1.05-0.99-2.55-1.92-2.99-3.37
			c-0.48-1.6,0.27-3.44,0.35-5.06c0.09-1.95-0.66-3.48-2.03-4.82c-0.68-0.66-1.44-1.25-1.94-2.08c-0.57-0.95-0.88-2.14-1.12-3.22
			c-0.02-0.11-0.18-0.12-0.23-0.03c-0.91,1.52-1.46,3.07-0.55,4.76c0.77,1.41,2.36,2.38,2.82,3.95c0.49,1.68-0.31,3.54-0.38,5.23
			s0.48,3.19,1.56,4.48c1.03,1.23,2.5,2.09,3.42,3.42c1.05,1.52,1.21,3.52,1.49,5.3c0.71,4.48,1.96,8.88,3.03,13.28
			c1.23,5.07,2.53,10.09,4.11,15.06C453.72,614,455.57,613.47,455.31,612.18z"/>
		
			<linearGradient id="SVGID_00000031890564687130352810000007758698398717731987_" gradientUnits="userSpaceOnUse" x1="511.0319" y1="174.3281" x2="529.2538" y2="174.3281" gradientTransform="matrix(1 0 0 -1 0 799.8898)">
			<stop  offset="5.993717e-04" style="stop-color:#040404"/>
			<stop  offset="0.0793" style="stop-color:#1D1D1D;stop-opacity:0.9213"/>
			<stop  offset="0.3377" style="stop-color:#6A6A6A;stop-opacity:0.6627"/>
			<stop  offset="0.5681" style="stop-color:#A7A7A7;stop-opacity:0.4321"/>
			<stop  offset="0.7621" style="stop-color:#D3D3D4;stop-opacity:0.2381"/>
			<stop  offset="0.9121" style="stop-color:#EEEEEF;stop-opacity:0.0879"/>
			<stop  offset="1" style="stop-color:#F8F8F9;stop-opacity:0"/>
		</linearGradient>
		<path style="fill:url(#SVGID_00000031890564687130352810000007758698398717731987_);" d="M529.22,654.85
			c-0.39-1.76-1.83-2.97-2.31-4.65c-0.26-0.9,0.2-1.64,0.46-2.49c0.27-0.85,0.35-1.78,0.03-2.62c-0.31-0.81-0.91-1.29-1.6-1.78
			c-0.91-0.66-1.4-1.39-1.69-2.48c-0.53-2.01-0.45-4.22-0.6-6.28c-0.33-4.51-1.17-9.12-2.9-13.32c-0.41-0.98-0.85-1.95-1.36-2.89
			c-0.27-0.49-0.64-0.98-0.72-1.55c-0.09-0.64,0.16-1.42,0.24-2.05c0.32-2.48,0.36-4.98,0.11-7.47c-0.24-2.4-0.48-5.05-2.13-6.93
			c-0.73-0.83-1.68-1.41-2.59-2.02c-1.16-0.78-2.7-1.95-2.85-3.42c-0.01-0.07-0.1-0.09-0.12-0.02c-0.5,1.74,0.24,3.19,1.46,4.39
			c0.79,0.78,1.72,1.48,2.29,2.46c0.53,0.9,0.75,2.07,0.91,3.09c0.41,2.57,0.43,5.2,0.24,7.79c-0.09,1.25-0.39,2.5-0.44,3.75
			c-0.05,1.23,0.42,2.19,1,3.24c2.29,4.11,3.26,8.74,3.91,13.35c0.32,2.24,0.63,4.48,0.96,6.72c0.26,1.79,0.76,3.7,2.18,4.94
			c0.37,0.32,0.94,0.55,1.25,0.91c0.43,0.51,0.15,0.91-0.07,1.49c-0.37,0.99-0.69,1.99-0.54,3.07c0.29,2.08,2.14,3.4,2.65,5.37
			C527.37,656.91,529.55,656.3,529.22,654.85z"/>
		
			<linearGradient id="SVGID_00000126321440921186736860000007725082204639054240_" gradientUnits="userSpaceOnUse" x1="513.585" y1="119.9868" x2="531.1382" y2="119.9868" gradientTransform="matrix(1 0 0 -1 0 799.8898)">
			<stop  offset="5.993717e-04" style="stop-color:#040404"/>
			<stop  offset="0.0793" style="stop-color:#1D1D1D;stop-opacity:0.9213"/>
			<stop  offset="0.3377" style="stop-color:#6A6A6A;stop-opacity:0.6627"/>
			<stop  offset="0.5681" style="stop-color:#A7A7A7;stop-opacity:0.4321"/>
			<stop  offset="0.7621" style="stop-color:#D3D3D4;stop-opacity:0.2381"/>
			<stop  offset="0.9121" style="stop-color:#EEEEEF;stop-opacity:0.0879"/>
			<stop  offset="1" style="stop-color:#F8F8F9;stop-opacity:0"/>
		</linearGradient>
		<path style="fill:url(#SVGID_00000126321440921186736860000007725082204639054240_);" d="M530.77,665.27
			c-0.23-0.6-1.04-0.49-1.1,0.15c-0.24,2.5-0.83,4.28-2.75,5.98c-0.79,0.7-1.75,1.31-2.38,2.16c-0.7,0.94-0.82,2.06-0.89,3.2
			c-0.14,2.12-0.09,4.25-0.03,6.39c-0.31,1.07-0.62,2.13-0.95,3.19c-0.56,1.82-1.39,3.54-2.43,5.14c-0.12,0.19-0.18,0.39-0.19,0.59
			c-0.37-0.03-0.73-0.07-1.1-0.08c-0.72-0.02-1.46,0.03-2.17,0.12c-1.06,0.13-2.09,0.58-3.15,0.61c-0.06,0-0.06,0.09,0,0.09
			c0.91,0.11,1.8,0.62,2.69,0.88c0.81,0.24,1.64,0.43,2.47,0.55c1.7,0.26,3.42,0.41,5.12,0.67c0.64,0.1,1.31-0.15,1.49-0.85
			c1.5-5.63,0.48-11.34,0.87-17.07c0.04-0.6,0.05-1.25,0.44-1.74c0.32-0.42,0.83-0.67,1.24-0.98c0.93-0.69,1.57-1.49,2.07-2.54
			C530.95,669.77,531.57,667.37,530.77,665.27z"/>
		
			<linearGradient id="SVGID_00000062191537588233539860000005322791261743029393_" gradientUnits="userSpaceOnUse" x1="413.0274" y1="277.5157" x2="431.9103" y2="277.5157" gradientTransform="matrix(1 0 0 -1 0 799.8898)">
			<stop  offset="5.993717e-04" style="stop-color:#040404"/>
			<stop  offset="0.0793" style="stop-color:#1D1D1D;stop-opacity:0.9213"/>
			<stop  offset="0.3377" style="stop-color:#6A6A6A;stop-opacity:0.6627"/>
			<stop  offset="0.5681" style="stop-color:#A7A7A7;stop-opacity:0.4321"/>
			<stop  offset="0.7621" style="stop-color:#D3D3D4;stop-opacity:0.2381"/>
			<stop  offset="0.9121" style="stop-color:#EEEEEF;stop-opacity:0.0879"/>
			<stop  offset="1" style="stop-color:#F8F8F9;stop-opacity:0"/>
		</linearGradient>
		<path style="fill:url(#SVGID_00000062191537588233539860000005322791261743029393_);" d="M430.81,540.64
			c-0.35-0.78-0.07-0.82,0.38-1.33c0.5-0.57,0.73-1.29,0.72-2.04c-0.03-2.2-1.95-3.07-3.34-4.4c-1.4-1.35-1.81-3.26-1.8-5.15
			c0.01-1.98,0.06-3.91-0.3-5.86c-0.72-3.94-2.77-7.57-5.11-10.77c-1.19-1.62-2.48-3.16-3.8-4.68c-0.71-0.82-1.41-1.66-2.15-2.45
			c-0.35-0.37-0.71-0.76-1.14-1.04c-0.38-0.25-0.76-0.36-1.11-0.71c-0.06-0.06-0.17,0.02-0.12,0.09c0.3,0.42,0.35,0.85,0.54,1.31
			c0.21,0.49,0.54,0.91,0.87,1.32c0.63,0.8,1.28,1.6,1.91,2.41c1.32,1.69,2.59,3.41,3.77,5.19c2.3,3.46,4.29,7.38,4.64,11.59
			c0.28,3.38-0.73,7.7,1.86,10.42c0.71,0.75,1.67,1.24,2.34,2.03c0.29,0.34,0.76,0.94,0.75,1.41c-0.01,0.38-0.33,0.76-0.46,1.1
			c-0.55,1.5,0.44,2.9,1.82,3.45c0.37,0.15,0.59-0.31,0.46-0.6C431.31,541.49,431.01,541.08,430.81,540.64z"/>
		
			<linearGradient id="SVGID_00000014594081008853713160000013749930539715364018_" gradientUnits="userSpaceOnUse" x1="453.5743" y1="266.8237" x2="484.1262" y2="266.8237" gradientTransform="matrix(1 0 0 -1 0 799.8898)">
			<stop  offset="5.993717e-04" style="stop-color:#040404"/>
			<stop  offset="0.0793" style="stop-color:#1D1D1D;stop-opacity:0.9213"/>
			<stop  offset="0.3377" style="stop-color:#6A6A6A;stop-opacity:0.6627"/>
			<stop  offset="0.5681" style="stop-color:#A7A7A7;stop-opacity:0.4321"/>
			<stop  offset="0.7621" style="stop-color:#D3D3D4;stop-opacity:0.2381"/>
			<stop  offset="0.9121" style="stop-color:#EEEEEF;stop-opacity:0.0879"/>
			<stop  offset="1" style="stop-color:#F8F8F9;stop-opacity:0"/>
		</linearGradient>
		<path style="fill:url(#SVGID_00000014594081008853713160000013749930539715364018_);" d="M484.06,545.6
			c-1.57-0.89-3.08-1.96-4.61-2.94c-1.5-0.97-3.15-1.74-4.72-2.6c-3.15-1.71-6.59-3.06-9.63-4.96c-2.7-1.69-3.68-5-5.29-7.57
			c-1.68-2.69-3.78-5.11-6.13-7.22c-0.06-0.05-0.14,0.03-0.09,0.09c2.37,2.47,4.36,5.25,5.93,8.3c1.35,2.63,2.2,5.81,4.5,7.8
			c1.22,1.05,2.76,1.69,4.18,2.42c1.78,0.91,3.57,1.77,5.38,2.61c1.63,0.75,3.26,1.61,4.93,2.27c1.79,0.71,3.66,1.26,5.41,2.03
			C484.08,545.88,484.21,545.68,484.06,545.6z"/>
		
			<linearGradient id="SVGID_00000138570143909229260660000006356915645230054845_" gradientUnits="userSpaceOnUse" x1="369.7062" y1="284.9904" x2="389.6922" y2="284.9904" gradientTransform="matrix(1 0 0 -1 0 799.8898)">
			<stop  offset="5.993717e-04" style="stop-color:#040404"/>
			<stop  offset="0.0793" style="stop-color:#1D1D1D;stop-opacity:0.9213"/>
			<stop  offset="0.3377" style="stop-color:#6A6A6A;stop-opacity:0.6627"/>
			<stop  offset="0.5681" style="stop-color:#A7A7A7;stop-opacity:0.4321"/>
			<stop  offset="0.7621" style="stop-color:#D3D3D4;stop-opacity:0.2381"/>
			<stop  offset="0.9121" style="stop-color:#EEEEEF;stop-opacity:0.0879"/>
			<stop  offset="1" style="stop-color:#F8F8F9;stop-opacity:0"/>
		</linearGradient>
		<path style="fill:url(#SVGID_00000138570143909229260660000006356915645230054845_);" d="M389.6,518.95
			c-2.55-2.48-6.38-2.68-9.68-3.39c-3.84-0.83-6.62-3.56-10.05-5.27c-0.13-0.06-0.23,0.11-0.11,0.19c1.67,1.1,2.94,2.58,4.48,3.83
			c1.36,1.1,2.92,1.9,4.59,2.4c3.46,1.04,7.19,0.85,10.37,2.77C389.52,519.66,389.86,519.21,389.6,518.95z"/>
		
			<linearGradient id="SVGID_00000169521390499901106320000013634159440184939441_" gradientUnits="userSpaceOnUse" x1="395.5525" y1="213.7176" x2="408.3136" y2="213.7176" gradientTransform="matrix(1 0 0 -1 0 799.8898)">
			<stop  offset="5.993717e-04" style="stop-color:#040404"/>
			<stop  offset="0.0793" style="stop-color:#1D1D1D;stop-opacity:0.9213"/>
			<stop  offset="0.3377" style="stop-color:#6A6A6A;stop-opacity:0.6627"/>
			<stop  offset="0.5681" style="stop-color:#A7A7A7;stop-opacity:0.4321"/>
			<stop  offset="0.7621" style="stop-color:#D3D3D4;stop-opacity:0.2381"/>
			<stop  offset="0.9121" style="stop-color:#EEEEEF;stop-opacity:0.0879"/>
			<stop  offset="1" style="stop-color:#F8F8F9;stop-opacity:0"/>
		</linearGradient>
		<path style="fill:url(#SVGID_00000169521390499901106320000013634159440184939441_);" d="M402.68,580.43
			c1.81-2,3.78-3.8,5.61-5.78c0.07-0.07-0.03-0.18-0.11-0.11c-2.4,2.03-4.63,4.22-7.05,6.24c-1.95,1.62-4.45,3.15-5.32,5.66
			c-0.84,2.45,0.49,4.27,2.33,5.74c2.39,1.91,4.78,3.83,7.32,5.55c0.57,0.39,1.24-0.49,0.74-0.96c-1.92-1.79-3.96-3.41-6.01-5.06
			c-0.84-0.67-1.84-1.32-2.47-2.21c-0.81-1.14-0.5-2.5,0.22-3.59C399.24,583.92,401.08,582.2,402.68,580.43z"/>
		
			<linearGradient id="SVGID_00000038376587596781223140000002044258188339341994_" gradientUnits="userSpaceOnUse" x1="484.99" y1="204.9869" x2="509.2033" y2="204.9869" gradientTransform="matrix(1 0 0 -1 0 799.8898)">
			<stop  offset="5.993717e-04" style="stop-color:#040404"/>
			<stop  offset="0.0793" style="stop-color:#1D1D1D;stop-opacity:0.9213"/>
			<stop  offset="0.3377" style="stop-color:#6A6A6A;stop-opacity:0.6627"/>
			<stop  offset="0.5681" style="stop-color:#A7A7A7;stop-opacity:0.4321"/>
			<stop  offset="0.7621" style="stop-color:#D3D3D4;stop-opacity:0.2381"/>
			<stop  offset="0.9121" style="stop-color:#EEEEEF;stop-opacity:0.0879"/>
			<stop  offset="1" style="stop-color:#F8F8F9;stop-opacity:0"/>
		</linearGradient>
		<path style="fill:url(#SVGID_00000038376587596781223140000002044258188339341994_);" d="M508.85,597.02
			c-3.71-1.96-7.58-3.52-11.69-4.43c-3.87-0.87-8.2-1.57-12.08-0.57c-0.12,0.03-0.12,0.21,0,0.24c3.77,1.04,7.75,1.28,11.57,2.18
			c3.92,0.93,7.82,2.14,11.5,3.77C508.95,598.56,509.65,597.44,508.85,597.02z"/>
		
			<linearGradient id="SVGID_00000127736015976194732680000009803673338429765558_" gradientUnits="userSpaceOnUse" x1="338.265" y1="420.7873" x2="475.545" y2="420.7873" gradientTransform="matrix(1 0 0 -1 0 799.8898)">
			<stop  offset="5.993717e-04" style="stop-color:#040404"/>
			<stop  offset="0.0793" style="stop-color:#1D1D1D;stop-opacity:0.9213"/>
			<stop  offset="0.3377" style="stop-color:#6A6A6A;stop-opacity:0.6627"/>
			<stop  offset="0.5681" style="stop-color:#A7A7A7;stop-opacity:0.4321"/>
			<stop  offset="0.7621" style="stop-color:#D3D3D4;stop-opacity:0.2381"/>
			<stop  offset="0.9121" style="stop-color:#EEEEEF;stop-opacity:0.0879"/>
			<stop  offset="1" style="stop-color:#F8F8F9;stop-opacity:0"/>
		</linearGradient>
		<path style="fill:url(#SVGID_00000127736015976194732680000009803673338429765558_);" d="M474.89,378.6
			c-3.82-1.62-7.83-1.72-11.92-1.69c-4.51,0.03-8.94-0.27-13.43-0.78c-9.07-1.03-18.16-1.76-27.29-2.03
			c-18.12-0.55-36.42,0.34-54.36,2.95c-4.98,0.73-9.95,1.57-14.89,2.54c-5,0.98-9.9,2.09-14.59,4.12c-0.27,0.12-0.13,0.57,0.15,0.55
			c4.38-0.29,8.65-1.11,12.96-1.96c4.39-0.87,8.8-1.65,13.23-2.33c8.82-1.36,17.69-2.42,26.59-3.05c17.78-1.26,35.67-0.91,53.4,0.94
			c5.04,0.53,10.08,1.28,15.15,1.33c4.58,0.05,9.43-0.36,13.73,1.56C475.1,381.42,476.36,379.23,474.89,378.6z"/>
		
			<linearGradient id="SVGID_00000124123483074689615310000017075216891218639525_" gradientUnits="userSpaceOnUse" x1="333.0558" y1="403.3878" x2="456.6324" y2="403.3878" gradientTransform="matrix(1 0 0 -1 0 799.8898)">
			<stop  offset="5.993717e-04" style="stop-color:#040404"/>
			<stop  offset="0.0793" style="stop-color:#1D1D1D;stop-opacity:0.9213"/>
			<stop  offset="0.3377" style="stop-color:#6A6A6A;stop-opacity:0.6627"/>
			<stop  offset="0.5681" style="stop-color:#A7A7A7;stop-opacity:0.4321"/>
			<stop  offset="0.7621" style="stop-color:#D3D3D4;stop-opacity:0.2381"/>
			<stop  offset="0.9121" style="stop-color:#EEEEEF;stop-opacity:0.0879"/>
			<stop  offset="1" style="stop-color:#F8F8F9;stop-opacity:0"/>
		</linearGradient>
		<path style="fill:url(#SVGID_00000124123483074689615310000017075216891218639525_);" d="M455.96,393.12
			c-1.96-0.45-3.92-0.24-5.92-0.28c-2.05-0.03-4.09-0.15-6.13-0.34c-4.02-0.37-8.01-0.94-12.01-1.48
			c-8.14-1.09-16.18-1.8-24.39-0.98c-8.17,0.81-16.25,2.48-24.47,2.7c-3.89,0.1-7.85-0.01-11.63,1.03
			c-1.93,0.53-3.76,1.32-5.72,1.73c-2.04,0.43-4.13,0.58-6.2,0.8c-4.44,0.48-8.9,1.12-13.26,2.09c-2.25,0.5-4.47,1.12-6.68,1.76
			c-2.22,0.65-4.39,1.21-6.33,2.5c-0.28,0.19-0.19,0.68,0.18,0.67c2-0.05,3.81-0.58,5.75-1.04c1.93-0.47,3.88-0.89,5.83-1.27
			c4.04-0.79,8.07-1.56,12.15-2.08c3.9-0.49,7.89-0.61,11.65-1.83c1.91-0.62,3.77-1.29,5.76-1.59c1.97-0.29,3.96-0.34,5.95-0.38
			c8.16-0.16,16.11-1.48,24.18-2.46c8.2-1,16.23-0.79,24.41,0.3c4.47,0.59,8.94,1.3,13.42,1.79c2.19,0.24,4.4,0.44,6.6,0.56
			c2.27,0.12,4.68,0.38,6.86-0.38C456.78,394.64,456.93,393.34,455.96,393.12z"/>
		
			<linearGradient id="SVGID_00000182506148743686608310000014457890002135884709_" gradientUnits="userSpaceOnUse" x1="345.54" y1="414.8545" x2="397.9112" y2="414.8545" gradientTransform="matrix(1 0 0 -1 0 799.8898)">
			<stop  offset="5.993717e-04" style="stop-color:#040404"/>
			<stop  offset="0.0793" style="stop-color:#1D1D1D;stop-opacity:0.9213"/>
			<stop  offset="0.3377" style="stop-color:#6A6A6A;stop-opacity:0.6627"/>
			<stop  offset="0.5681" style="stop-color:#A7A7A7;stop-opacity:0.4321"/>
			<stop  offset="0.7621" style="stop-color:#D3D3D4;stop-opacity:0.2381"/>
			<stop  offset="0.9121" style="stop-color:#EEEEEF;stop-opacity:0.0879"/>
			<stop  offset="1" style="stop-color:#F8F8F9;stop-opacity:0"/>
		</linearGradient>
		<path style="fill:url(#SVGID_00000182506148743686608310000014457890002135884709_);" d="M397.76,380.09
			c-4.1,1.77-8.76,2.23-13.18,2.61c-3.08,0.27-6.23,0.22-9.33,0.43c0.03-0.11,0.07-0.23,0.09-0.34c0.16-0.66,0.34-1.31,0.56-1.96
			c0.09-0.27-0.32-0.44-0.46-0.19c-0.33,0.6-0.63,1.22-0.9,1.85c-0.1,0.23-0.17,0.48-0.25,0.72c-0.83,0.08-1.66,0.17-2.48,0.3
			c-4.4,0.73-8.33,2.83-12.58,4.04c-4.41,1.25-9.03,1.71-13.57,2.19c-0.16,0.02-0.16,0.26,0,0.25c4.48-0.24,8.95-0.51,13.32-1.63
			c4.55-1.17,8.71-3.5,13.46-3.85c0.51-0.04,1.03-0.06,1.54-0.09c-0.01,0.03-0.02,0.06-0.02,0.09c-0.05,0.23,0.07,0.47,0.31,0.54
			c0.23,0.06,0.48-0.08,0.54-0.31c0.03-0.13,0.07-0.25,0.11-0.38c3.67-0.18,7.35-0.25,11-0.63c4.22-0.44,8.13-1.68,11.95-3.51
			C397.97,380.2,397.87,380.04,397.76,380.09z"/>
		
			<linearGradient id="SVGID_00000177478621568795238890000000941818545187009434_" gradientUnits="userSpaceOnUse" x1="415.82" y1="417.6267" x2="459.3719" y2="417.6267" gradientTransform="matrix(1 0 0 -1 0 799.8898)">
			<stop  offset="5.993717e-04" style="stop-color:#040404"/>
			<stop  offset="0.0793" style="stop-color:#1D1D1D;stop-opacity:0.9213"/>
			<stop  offset="0.3377" style="stop-color:#6A6A6A;stop-opacity:0.6627"/>
			<stop  offset="0.5681" style="stop-color:#A7A7A7;stop-opacity:0.4321"/>
			<stop  offset="0.7621" style="stop-color:#D3D3D4;stop-opacity:0.2381"/>
			<stop  offset="0.9121" style="stop-color:#EEEEEF;stop-opacity:0.0879"/>
			<stop  offset="1" style="stop-color:#F8F8F9;stop-opacity:0"/>
		</linearGradient>
		<path style="fill:url(#SVGID_00000177478621568795238890000000941818545187009434_);" d="M459.3,384.61
			c-4.7-0.94-9.42-1.62-14.17-2.12c-0.28-0.9-0.54-1.8-0.75-2.71c-0.03-0.12-0.2-0.07-0.18,0.05c0.13,0.88,0.29,1.75,0.48,2.62
			c-9.56-0.98-19.18-1.23-28.8-1.42c-0.08,0-0.08,0.12,0,0.12c9.62,0.37,19.29,0.71,28.89,1.67c0.13,0.58,0.26,1.15,0.42,1.72
			c0.1,0.37,0.7,0.2,0.57-0.16c-0.18-0.5-0.34-1.01-0.51-1.52c4.68,0.48,9.35,1.09,13.98,1.95
			C459.37,384.85,459.43,384.64,459.3,384.61z"/>
		
			<linearGradient id="SVGID_00000180358278302801440570000011897981687414516122_" gradientUnits="userSpaceOnUse" x1="450.7962" y1="411.446" x2="468.0125" y2="411.446" gradientTransform="matrix(1 0 0 -1 0 799.8898)">
			<stop  offset="5.993717e-04" style="stop-color:#040404"/>
			<stop  offset="0.0793" style="stop-color:#1D1D1D;stop-opacity:0.9213"/>
			<stop  offset="0.3377" style="stop-color:#6A6A6A;stop-opacity:0.6627"/>
			<stop  offset="0.5681" style="stop-color:#A7A7A7;stop-opacity:0.4321"/>
			<stop  offset="0.7621" style="stop-color:#D3D3D4;stop-opacity:0.2381"/>
			<stop  offset="0.9121" style="stop-color:#EEEEEF;stop-opacity:0.0879"/>
			<stop  offset="1" style="stop-color:#F8F8F9;stop-opacity:0"/>
		</linearGradient>
		<path style="fill:url(#SVGID_00000180358278302801440570000011897981687414516122_);" d="M467.51,388.3
			c-1.3-0.26-2.67-0.11-3.99-0.14c-1.37-0.02-2.74-0.11-4.11-0.15c-2.84-0.08-5.61-0.49-8.4-1.06c-0.21-0.04-0.31,0.28-0.09,0.33
			c2.76,0.68,5.56,1.22,8.35,1.76c1.02,0.2,2.06,0.32,3.1,0.42c0.01,0.12,0.01,0.24,0.02,0.36c0,0.07,0.05,0.13,0.12,0.12
			c0.07,0,0.12-0.05,0.12-0.12c0.01-0.11,0.01-0.22,0.02-0.33c0.18,0.02,0.36,0.04,0.55,0.06c1.41,0.13,2.91,0.36,4.31,0.1
			C468.18,389.53,468.18,388.43,467.51,388.3z"/>
		
			<linearGradient id="SVGID_00000036952312714809389590000016574103613264959934_" gradientUnits="userSpaceOnUse" x1="365.5594" y1="413.7117" x2="419.7444" y2="413.7117" gradientTransform="matrix(1 0 0 -1 0 799.8898)">
			<stop  offset="5.993717e-04" style="stop-color:#040404"/>
			<stop  offset="0.0793" style="stop-color:#1D1D1D;stop-opacity:0.9213"/>
			<stop  offset="0.3377" style="stop-color:#6A6A6A;stop-opacity:0.6627"/>
			<stop  offset="0.5681" style="stop-color:#A7A7A7;stop-opacity:0.4321"/>
			<stop  offset="0.7621" style="stop-color:#D3D3D4;stop-opacity:0.2381"/>
			<stop  offset="0.9121" style="stop-color:#EEEEEF;stop-opacity:0.0879"/>
			<stop  offset="1" style="stop-color:#F8F8F9;stop-opacity:0"/>
		</linearGradient>
		<path style="fill:url(#SVGID_00000036952312714809389590000016574103613264959934_);" d="M419.21,385.15
			c-4.47,0.05-8.94-0.47-13.41-0.4c-0.34,0.01-0.68,0.02-1.02,0.04c0.05-0.23,0.1-0.45,0.15-0.68c0.08-0.36,0.11-0.74,0.16-1.11
			c0.02-0.17-0.03-0.34-0.2-0.41c-0.14-0.06-0.36-0.02-0.43,0.14c-0.16,0.36-0.34,0.71-0.47,1.08c-0.12,0.34-0.24,0.68-0.36,1.02
			c0,0.01-0.01,0.02-0.01,0.03c-1.47,0.11-2.93,0.31-4.36,0.68c-2.07,0.54-4.06,1.37-6.16,1.78c-4.56,0.89-9.32,0.07-13.94,0.27
			c-4.56,0.19-9.08,0.86-13.51,1.96c-0.16,0.04-0.09,0.27,0.07,0.24c4.74-0.96,9.57-1.44,14.41-1.37c4.33,0.06,8.72,0.75,13.03,0
			c2.19-0.38,4.25-1.26,6.42-1.73c1.2-0.26,2.41-0.4,3.64-0.47c-0.07,0.25-0.13,0.5-0.2,0.75c-0.17,0.69,0.84,0.96,1.05,0.29
			c0.12-0.36,0.23-0.72,0.34-1.09c0.61-0.01,1.23-0.01,1.84,0.01c4.38,0.13,8.74,0.8,13.1,0.03
			C419.97,386.11,419.81,385.14,419.21,385.15z"/>
		
			<linearGradient id="SVGID_00000033331064323968686110000006622181357825620896_" gradientUnits="userSpaceOnUse" x1="341.4193" y1="397.4491" x2="376.4601" y2="397.4491" gradientTransform="matrix(1 0 0 -1 0 799.8898)">
			<stop  offset="5.993717e-04" style="stop-color:#040404"/>
			<stop  offset="0.0793" style="stop-color:#1D1D1D;stop-opacity:0.9213"/>
			<stop  offset="0.3377" style="stop-color:#6A6A6A;stop-opacity:0.6627"/>
			<stop  offset="0.5681" style="stop-color:#A7A7A7;stop-opacity:0.4321"/>
			<stop  offset="0.7621" style="stop-color:#D3D3D4;stop-opacity:0.2381"/>
			<stop  offset="0.9121" style="stop-color:#EEEEEF;stop-opacity:0.0879"/>
			<stop  offset="1" style="stop-color:#F8F8F9;stop-opacity:0"/>
		</linearGradient>
		<path style="fill:url(#SVGID_00000033331064323968686110000006622181357825620896_);" d="M376.05,400.44
			c-5.66-0.64-11.54-0.81-17.18,0.05c-2.8,0.43-5.47,1.19-8.13,2.13c-2.87,1.02-5.99,2.13-9.05,1.36c-0.28-0.07-0.38,0.32-0.12,0.42
			c2.58,0.99,5.14,0.57,7.72-0.2c2.85-0.85,5.62-1.8,8.57-2.26c6.04-0.95,12.12-0.54,18.2-0.66
			C376.61,401.27,376.58,400.5,376.05,400.44z"/>
		
			<linearGradient id="SVGID_00000095309081552638950900000008310452954704000655_" gradientUnits="userSpaceOnUse" x1="328.6003" y1="353.2965" x2="344.0352" y2="353.2965" gradientTransform="matrix(1 0 0 -1 0 799.8898)">
			<stop  offset="5.993717e-04" style="stop-color:#040404"/>
			<stop  offset="0.0793" style="stop-color:#1D1D1D;stop-opacity:0.9213"/>
			<stop  offset="0.3377" style="stop-color:#6A6A6A;stop-opacity:0.6627"/>
			<stop  offset="0.5681" style="stop-color:#A7A7A7;stop-opacity:0.4321"/>
			<stop  offset="0.7621" style="stop-color:#D3D3D4;stop-opacity:0.2381"/>
			<stop  offset="0.9121" style="stop-color:#EEEEEF;stop-opacity:0.0879"/>
			<stop  offset="1" style="stop-color:#F8F8F9;stop-opacity:0"/>
		</linearGradient>
		<path style="fill:url(#SVGID_00000095309081552638950900000008310452954704000655_);" d="M343.97,441.89
			c-0.36-0.33-0.58-0.7-0.97-1c-0.36-0.27-0.77-0.45-1.16-0.66c-0.85-0.46-1.69-0.97-2.49-1.51c-0.38-0.26-0.76-0.53-1.13-0.81
			c-0.36-0.27-0.94-0.6-1.19-0.98c-0.23-0.35,0.07-0.89,0.14-1.28c0.08-0.43,0.06-0.86-0.03-1.29c-0.42-1.9-2.11-2.81-3.52-3.91
			c-1.39-1.08-2.2-2.52-2.77-4.13c-0.04-0.36-0.05-0.74-0.02-1.16c0.12-1.62,0.31-3.23,0.46-4.85c0.16-1.64,0.28-3.28,0.41-4.92
			c0.12-1.51,0.38-3.06,0.17-4.56c-0.08-0.56-0.84-0.41-0.99,0c-0.52,1.35-0.6,2.91-0.82,4.34c-0.2,1.34-0.42,2.68-0.6,4.03
			c-0.2,1.44-0.38,2.87-0.58,4.31c-0.17,1.28-0.44,2.58-0.21,3.86c0.38,2.16,2.18,3.66,2.74,5.76c0.46,1.73,0.44,3.97-1.15,5.12
			c-0.74,0.53-0.82,1.57,0,2.09c1.07,0.68-0.06,3.24-0.12,4.21c-0.1,1.72,0.76,2.62,1.99,3.64c2.62,2.17,1.95,6.34,1.86,9.34
			c-0.24,8.29-0.01,16.83,1.65,24.97c0.07,0.35,0.62,0.26,0.61-0.08c-0.04-4.6-0.27-9.19-0.35-13.78c-0.07-4.4,0.12-8.8,0.31-13.19
			c0.14-3.06,0.05-6.64-2.44-8.82c-0.76-0.67-1.39-0.95-1.3-2.07c0.07-0.85,0.43-1.67,0.52-2.52c0.11-0.97,0-1.89-0.44-2.66
			c1.05-1.17,1.58-2.68,1.6-4.33c0.01-0.81-0.11-1.57-0.32-2.3c1.04,0.77,1.95,1.65,1.79,2.87c-0.11,0.86-0.29,1.52,0.35,2.23
			c0.68,0.75,1.58,1.37,2.4,1.96c0.82,0.6,1.68,1.16,2.56,1.66c0.45,0.26,0.91,0.55,1.41,0.7c0.52,0.15,0.93,0.06,1.45,0.11
			C344.01,442.29,344.11,442.02,343.97,441.89z"/>
		
			<linearGradient id="SVGID_00000116216412610959086180000000866093157066893242_" gradientUnits="userSpaceOnUse" x1="477.1638" y1="378.24" x2="490.3199" y2="378.24" gradientTransform="matrix(1 0 0 -1 0 799.8898)">
			<stop  offset="5.993717e-04" style="stop-color:#040404"/>
			<stop  offset="0.0793" style="stop-color:#1D1D1D;stop-opacity:0.9213"/>
			<stop  offset="0.3377" style="stop-color:#6A6A6A;stop-opacity:0.6627"/>
			<stop  offset="0.5681" style="stop-color:#A7A7A7;stop-opacity:0.4321"/>
			<stop  offset="0.7621" style="stop-color:#D3D3D4;stop-opacity:0.2381"/>
			<stop  offset="0.9121" style="stop-color:#EEEEEF;stop-opacity:0.0879"/>
			<stop  offset="1" style="stop-color:#F8F8F9;stop-opacity:0"/>
		</linearGradient>
		<path style="fill:url(#SVGID_00000116216412610959086180000000866093157066893242_);" d="M489.86,442.18
			c-1.9-1.2-1.72-2.68-1.39-4.75c0.3-1.9,0.1-3.79-0.6-5.59c-0.65-1.66-1.55-3.2-2.41-4.76c-0.94-1.72-1.7-3.51-2.32-5.37
			c-1.29-3.85-2.26-7.79-3.24-11.73c-0.5-2.02-0.53-3.91-0.49-5.98c0.02-0.9,0.05-1.85-0.14-2.73c-0.19-0.9-0.6-1.32-1.24-1.93
			c-0.21-0.2-0.6-0.06-0.59,0.24c0.18,3.99-0.67,8.09-0.04,12.07c0.68,4.29,1.97,8.73,3.54,12.79c0.73,1.89,1.64,3.66,2.62,5.43
			c0.91,1.65,1.86,3.39,2.08,5.3c0.32,2.76-0.44,8.52,3.71,8.88C490.4,444.13,490.64,442.67,489.86,442.18z"/>
		
			<linearGradient id="SVGID_00000111188073230645273500000004685273997056406422_" gradientUnits="userSpaceOnUse" x1="485.9157" y1="327.1246" x2="501.14" y2="327.1246" gradientTransform="matrix(1 0 0 -1 0 799.8898)">
			<stop  offset="5.993717e-04" style="stop-color:#040404"/>
			<stop  offset="0.0793" style="stop-color:#1D1D1D;stop-opacity:0.9213"/>
			<stop  offset="0.3377" style="stop-color:#6A6A6A;stop-opacity:0.6627"/>
			<stop  offset="0.5681" style="stop-color:#A7A7A7;stop-opacity:0.4321"/>
			<stop  offset="0.7621" style="stop-color:#D3D3D4;stop-opacity:0.2381"/>
			<stop  offset="0.9121" style="stop-color:#EEEEEF;stop-opacity:0.0879"/>
			<stop  offset="1" style="stop-color:#F8F8F9;stop-opacity:0"/>
		</linearGradient>
		<path style="fill:url(#SVGID_00000111188073230645273500000004685273997056406422_);" d="M499.94,489.46
			c-0.66-0.82-1.19-1.35-1.25-2.46c-0.05-0.88,0.09-1.78,0.09-2.67c0.02-4.1-1.03-8.1-2.15-12.02c-1.14-3.98-2.4-7.91-3.84-11.79
			c-1.38-3.72-4.03-6.54-6.51-9.54c-0.16-0.2-0.45,0.05-0.34,0.27c0.94,1.78,1.75,3.57,2.82,5.28c0.99,1.57,2.07,3.05,2.48,4.9
			c0.83,3.74,1.56,7.48,2.49,11.2c0.93,3.69,1.96,7.41,2.02,11.24c0.03,1.65-0.29,3.38,0.28,4.98c0.27,0.75,0.71,1.34,1.21,1.95
			c0.49,0.6,1.29,1.32,1.01,2.17c-0.47,1.44,1.68,2.32,2.43,1.02C501.6,492.38,501.03,490.81,499.94,489.46z"/>
		
			<linearGradient id="SVGID_00000130646143091294950570000014493559700673226907_" gradientUnits="userSpaceOnUse" x1="376.6027" y1="353.8675" x2="392.7158" y2="353.8675" gradientTransform="matrix(1 0 0 -1 0 799.8898)">
			<stop  offset="5.993717e-04" style="stop-color:#040404"/>
			<stop  offset="0.0793" style="stop-color:#1D1D1D;stop-opacity:0.9213"/>
			<stop  offset="0.3377" style="stop-color:#6A6A6A;stop-opacity:0.6627"/>
			<stop  offset="0.5681" style="stop-color:#A7A7A7;stop-opacity:0.4321"/>
			<stop  offset="0.7621" style="stop-color:#D3D3D4;stop-opacity:0.2381"/>
			<stop  offset="0.9121" style="stop-color:#EEEEEF;stop-opacity:0.0879"/>
			<stop  offset="1" style="stop-color:#F8F8F9;stop-opacity:0"/>
		</linearGradient>
		<path style="fill:url(#SVGID_00000130646143091294950570000014493559700673226907_);" d="M392.69,459.46
			c-2-4.77-4.36-9.72-7.6-13.77c-0.83-1.03-1.71-2.02-2.66-2.93c-0.93-0.89-2.01-1.6-2.95-2.47c-0.9-0.83-0.78-1.6-0.79-2.71
			c0-0.6-0.1-1.2-0.24-1.78c-0.32-1.34-0.93-2.55-1.76-3.64c-0.04-0.05-0.11-0.01-0.08,0.05c0.79,1.48,1.18,3.06,1.14,4.74
			c-0.03,1.17-0.37,2.46,0.38,3.48c0.7,0.96,1.91,1.61,2.79,2.42c0.97,0.9,1.87,1.87,2.71,2.9c3.49,4.28,5.81,9.16,8.4,13.99
			C392.22,460.09,392.85,459.84,392.69,459.46z"/>
		
			<linearGradient id="SVGID_00000044156306529063428230000011437202935456430494_" gradientUnits="userSpaceOnUse" x1="361.4308" y1="345.7929" x2="372.9273" y2="345.7929" gradientTransform="matrix(1 0 0 -1 0 799.8898)">
			<stop  offset="5.993717e-04" style="stop-color:#040404"/>
			<stop  offset="0.0793" style="stop-color:#1D1D1D;stop-opacity:0.9213"/>
			<stop  offset="0.3377" style="stop-color:#6A6A6A;stop-opacity:0.6627"/>
			<stop  offset="0.5681" style="stop-color:#A7A7A7;stop-opacity:0.4321"/>
			<stop  offset="0.7621" style="stop-color:#D3D3D4;stop-opacity:0.2381"/>
			<stop  offset="0.9121" style="stop-color:#EEEEEF;stop-opacity:0.0879"/>
			<stop  offset="1" style="stop-color:#F8F8F9;stop-opacity:0"/>
		</linearGradient>
		<path style="fill:url(#SVGID_00000044156306529063428230000011437202935456430494_);" d="M372.91,459.2
			c-0.52-0.43-1.06-0.85-1.57-1.3c-0.51-0.45-0.97-0.94-1.5-1.36c-1-0.79-2-1.57-3.01-2.35c-1.85-1.41-3.56-2.99-4.63-5.09
			c-0.25-0.49-0.94-0.06-0.73,0.43c0.95,2.17,2.76,3.79,4.6,5.21c0.99,0.77,2.03,1.48,3.06,2.2c1.2,0.84,2.49,1.55,3.72,2.36
			C372.89,459.34,372.96,459.25,372.91,459.2z"/>
	</g>
	<g id="line_00000102536178804993501400000007160229339995641494_">
		<g>
			<g>
				<g>
					<path d="M419.14,514.5c1.9,3.44-0.81,7.37-1.13,10.91c-0.19,2.08,0.42,3.75,1.39,5.54c1.19,2.22,1.65,4.7,1.69,7.21
						c0.04,2.5-0.27,5-0.74,7.45c-0.49,2.52-1.25,5.02-1.34,7.6c-0.04,1.15,0.07,2.33,0.39,3.44c0.39,1.36,1.11,2.61,1.32,4.02
						c0.4,2.7-0.86,5.32-1.55,7.87c-1.16,4.28-0.61,8.87,1.92,12.57c0.56,0.82,1.21,1.54,1.89,2.26c1.2,1.27,1.18,2.28,0.69,3.88
						c-0.75,2.45-1.07,4.97-1.11,7.53c-0.08,5.22,0.9,10.47,0.23,15.68c-0.58,4.49-3.05,8.8,0.33,12.76
						c0.75,0.88,1.65,1.69,1.99,2.83c0.31,1.06,0.12,2.17-0.16,3.21c-0.51,1.88-1.4,3.63-1.84,5.53c-0.41,1.76-0.35,3.42,0.39,5.08
						c0.56,1.25,1.1,2.3,0.98,3.71c-0.12,1.45-0.73,2.83-1.16,4.2c-0.76,2.4-0.97,4.82-0.68,7.31c0.28,2.43,0.9,4.84,0.94,7.29
						c0.04,2.7-0.58,5.36-1.33,7.94c-0.35,1.21-0.83,2.14-1.68,3.08c-0.69,0.76-1.37,1.5-1.87,2.4c-1.12,2-1.64,4.28-1.79,6.55
						c-0.18,2.72,0.37,5.46,0.22,8.16c-0.09,1.67-1.59,2.05-2.93,2.59c-1.34,0.53-2.69,1.06-4.06,1.52
						c-2.7,0.91-5.48,1.55-8.31,1.89c-5.28,0.64-10.95,0.56-16.18-0.51c-1.2-0.25-2.39-0.58-3.5-1.1c-0.49-0.23-1.45-0.61-1.79-1.06
						c-0.43-0.57-0.31-1.72-0.33-2.39c-0.09-2.56,0-5.17-0.63-7.67c-0.52-2.05-1.77-3.68-3.08-5.29c-1.64-2.01-2.88-4.05-3.77-6.5
						c-1.77-4.86-2.17-10.06-2.45-15.19c-0.23-4.2,0.85-9.11-1.14-12.98c-0.43-0.84-0.93-1.64-1.16-2.57
						c-0.29-1.21-0.27-2.49-0.49-3.72c-0.43-2.39-1.25-4.72-2.41-6.85c-0.6-1.1-1.35-2.12-1.86-3.27c-0.26-0.61-0.54-1.4-0.4-2.07
						c0.16-0.74,0.82-1.21,1.19-1.84c1.09-1.9-0.01-4.02-0.91-5.74c-2.49-4.75-4.24-9.85-5.14-15.14c-0.69-4.04-0.16-9.29-3.2-12.5
						c-0.84-0.89-1.74-1.32-1.54-2.74c0.18-1.28,0.74-2.46,1.27-3.62c0.73-1.6,1.64-3.39,1.39-5.2c-0.38-2.86-3.32-4.39-5.18-6.24
						c-0.46-0.46-0.98-1-1.17-1.65c-0.3-1.01,0.37-1.78,0.8-2.64c0.78-1.56,0.56-3.02-0.35-4.47c-0.45-0.71-1.01-1.35-1.45-2.06
						c-0.79-1.27-0.49-2.1,0.07-3.41c0.84-1.97,0.89-4.01,0.6-6.1c-0.36-2.53-1.22-4.98-1.45-7.53c-0.24-2.68-0.43-5.35-0.79-8.02
						c-0.37-2.76-0.83-5.51-1.4-8.23c-0.51-2.42-1.41-4.17-2.82-6.17c-0.85-1.21-1.26-2.12-0.36-3.41c0.61-0.87,0.92-1.68,0.83-2.75
						c-0.24-2.81-1.27-5.7-1.92-8.44c-0.66-2.8-1.33-5.59-1.99-8.39c-0.38-1.61-0.64-2.92,0-4.51c0.39-0.98,0.78-1.91,0.83-2.98
						c0.09-2.16-0.97-3.6-2.35-5.1c-1.77-1.91-1.49-5.56-1.65-8.02c-0.38-5.7-0.35-11.42-0.82-17.11
						c-0.39-4.68-0.91-9.57-2.59-13.99c-0.36-0.94-0.87-1.81-1.26-2.73c-0.63-1.5,0.34-2.32,0.32-3.76
						c-0.02-0.81-0.69-1.32-0.78-2.01c-0.1-0.78,1.49-1.14,2.01-1.73c2.97-3.35-2.09-7.02-2.77-10.12
						c-0.91-4.15,0.18-8.66,0.71-12.79c0.63-4.96,0.37-9.97,0.69-14.95c0.17-2.7,0.54-5.38,1.28-7.99c0.36-1.25,0.75-2.55,1.35-3.71
						c0.71-1.37,1.66-1.83,3-2.41c0.86-0.37,1.52-0.85,2.26-1.41c1.25-0.96,2.53-1.19,4.05-1.46c2.85-0.51,5.7-1.02,8.55-1.53
						c2.74-0.49,5.49-0.98,8.23-1.47c1.37-0.25,2.74-0.49,4.12-0.74c0.63-0.11,1.27-0.23,1.9-0.34c0.37-0.07,0.87-0.21,1.27-0.23
						c0.1,0-0.25-0.27,0.07-0.11c0.42,0.21,0.87,0.16,1.21-0.16c0.88-0.8,2.7-0.34,3.76-0.26c1.4,0.11,2.66-0.09,4.04-0.27
						c3.87-0.53,7.76-0.95,11.65-1.29c7.54-0.65,15.12-0.96,22.69-0.91c7.61,0.05,15.22,0.36,22.83,0.59
						c7.64,0.23,15.3,0.35,22.93,0.93c3.8,0.29,7.67,0.61,11.41,1.36c2.4,0.48,4.93,1.62,6.55,3.5c0.92,1.07,1.28,2.22,1.3,3.61
						c0.02,1.46,0.32,2.54,1.07,3.8c0.74,1.24,1.52,2.09,0.92,3.53c-0.57,1.34-0.01,1.9,0.66,3.05c1.63,2.79-0.24,6.71-0.43,9.69
						c-0.22,3.43,0.57,6.88,1.69,10.1c1.12,3.19,2.57,6.28,4.08,9.31c1.52,3.03,3.19,6.09,3.75,9.47c0.47,2.79-0.62,5.86,0.48,8.54
						c0.5,1.22,1.64,1.7,2.24,2.78c0.83,1.48-0.57,3.69-0.76,5.27c-0.39,3.24,1.47,6.2,2.61,9.1c1.3,3.28,2.28,6.68,3.31,10.05
						c1.09,3.59,1.99,7.09,2.24,10.86c0.21,3.1-0.53,6.67,0.83,9.56c0.55,1.16,1.44,2.21,1.84,3.43c0.57,1.76-1.11,2.51-1.23,4.16
						c-0.09,1.19,0.53,2.25,1.14,3.22c1.04,1.65,2.23,3.31,2.53,5.29c0.25,1.64-0.41,3.27-0.73,4.86c-0.25,1.25-0.41,2.5-0.37,3.77
						c0.05,1.54,0.37,3.05,0.57,4.58c0.24,1.93,0.37,3.87,0.49,5.81c0.24,3.7,0.71,7.34,1.12,11.02c0.4,3.51,0.68,7.04,1.4,10.51
						c1.48,7.12,4.54,13.81,5.03,21.15c0.22,3.3,0.04,6.62,0.59,9.89c0.25,1.46,0.67,2.86,1.28,4.21c0.72,1.6,1.81,3.23,1.87,5.03
						c0.04,1.4-0.71,2.73-0.27,4.13c0.26,0.82,2.04,2.52,1.47,3.09c-0.33,0.34-0.93,0.38-1.29,0.78c-0.28,0.31-0.47,0.71-0.57,1.12
						c-0.27,1.11,0.18,2.25,0.89,3.09c0.96,1.14,2.34,1.8,3.02,3.2c0.68,1.38,0.67,3,0.59,4.5c-0.15,2.75-0.74,5.48-0.33,8.23
						c0.49,3.27,2.21,6.12,3.18,9.25c0.89,2.9,0.98,5.94,1.2,8.94c0.2,2.75,0.48,5.54,1.57,8.1c0.5,1.16,1.15,2.21,1.97,3.18
						c0.58,0.69,1.19,1.27,1.17,2.25c-0.02,0.93-0.49,1.87-0.61,2.81c-0.3,2.53,1.02,4.9,3.17,6.18c0.26-0.61,0.51-1.22,0.77-1.83
						c-2.49-1.05-1.89,3.74-1.77,4.77c0.29,2.39,0.92,4.74,1.16,7.14c0.22,2.21,0.36,4.92-0.95,6.84c-0.62,0.92-1.59,1.53-2.24,2.43
						c-0.75,1.03-0.91,2.19-1.05,3.42c-0.36,2.97,0.11,5.86,0.04,8.83c-0.03,1.17,0.02,2.3,0.12,3.47c0.11,1.36,0.28,3.05-1.44,3.33
						c-0.96,0.16-2.03-0.14-2.96-0.33c-1.4-0.28-2.82-0.49-4.24-0.61c-3.05-0.26-6.13-0.13-9.18,0.2c-2.92,0.32-5.78,0.91-8.67,1.38
						c-1.17,0.19-2.35,0.33-3.49,0.68c-1.11,0.34-2.38,1.43-3.56,1.22c-1.76-0.32-2.07-2.78-2.3-4.2c-0.36-2.28-0.8-4.52-1.32-6.77
						c-0.61-2.66-1.07-5.79-2.58-8.11c-1.35-2.08-3.5-3.29-5.25-4.97c-1.93-1.86-4.2-3.65-5.7-5.9c-1.62-2.43-2.16-5.64-2.55-8.48
						c-0.4-2.89-0.62-5.83-1.5-8.63c-0.84-2.65-1.52-5.29-2.19-8c-0.64-2.62-1.53-5.05-2.95-7.36c-1.51-2.46-2.99-4.75-3.93-7.5
						c-0.37-1.07-0.77-2.14-1.42-3.08c-0.28-0.41-0.69-0.74-0.97-1.14c-0.68-0.97-0.36-1.63,0.09-2.6c0.84-1.84,0.86-3.81-0.38-5.5
						c-0.56-0.76-1.3-1.34-2.18-1.69c-1.33-0.52-2.56-0.41-3.08-1.98c-0.97-2.9-1.63-5.95-2.37-8.91
						c-1.46-5.89-2.54-11.86-3.93-17.77c-0.56-2.39-1.36-4.72-2.91-6.65c-1.61-2-3.83-3.67-3.43-6.51c0.33-2.39,0.37-4.18-0.72-6.4
						c-0.98-2-2.63-3.91-2.89-6.19c-0.15-1.32,0.36-2.57,0.56-3.85c0.17-1.1,0.16-2.19-0.04-3.28c-0.41-2.27-1.58-4.33-3.08-6.06
						c-0.77-0.89-1.64-1.67-2.58-2.37c-0.45-0.34-0.95-0.62-1.4-0.96c-0.86-0.65-0.58-1.09-0.31-1.95c0.61-1.99-0.49-3.71-1.79-5.14
						c-1.94-2.14-3.8-3.8-3.85-6.91c-0.04-2.36,0.6-4.69,0.34-7.06c-0.26-2.35-1.41-4.18-2.99-5.87c-0.92-0.98-1.85-1.91-2.44-3.13
						c-0.55-1.13-0.89-2.36-1.58-3.42c-1.41-2.17-4.71-3.54-5.06-6.3c-0.16-1.26-2.16-1.28-2,0c0.33,2.62,2.1,4.08,3.94,5.78
						c2.01,1.85,2.36,4.46,3.99,6.55c1.74,2.22,3.96,3.81,4.19,6.86c0.18,2.36-0.5,4.7-0.37,7.06c0.14,2.41,1.12,4.43,2.78,6.17
						c0.84,0.88,1.82,1.69,2.48,2.73c0.3,0.48,0.59,1.01,0.56,1.6c-0.03,0.72-0.55,1.31-0.6,2.03c-0.17,2.2,2.73,3.28,4.07,4.5
						c2,1.83,3.68,4.34,3.87,7.12c0.17,2.46-1.1,4.68-0.47,7.15c0.53,2.1,1.9,3.85,2.86,5.76c0.59,1.16,0.95,2.32,0.83,3.63
						c-0.13,1.35-0.54,2.62-0.26,3.99c0.46,2.18,2.17,3.75,3.56,5.38c1.86,2.18,2.55,4.9,3.13,7.64c0.62,2.99,1.22,5.99,1.88,8.98
						c0.69,3.08,1.41,6.15,2.19,9.21c0.38,1.5,0.78,2.99,1.18,4.49c0.33,1.22,0.55,2.61,1.15,3.73c1.19,2.2,4.16,1.45,5.36,3.53
						c1.4,2.43-1.62,4.35-0.66,6.76c0.41,1.03,1.45,1.67,1.99,2.64c0.64,1.12,0.93,2.4,1.4,3.59c1.03,2.65,2.77,4.89,4.16,7.35
						c1.45,2.57,2.06,5.45,2.72,8.3c0.64,2.76,1.73,5.41,2.27,8.19c1.05,5.4,0.78,11.58,4.42,16.08c1.67,2.07,3.77,3.94,5.74,5.72
						c2.19,1.98,4.41,3.26,5.35,6.25c0.93,2.98,1.58,6.06,2.22,9.11c0.35,1.69,0.44,3.46,0.95,5.11c0.45,1.47,1.29,2.89,2.8,3.44
						c2.21,0.8,3.76-0.77,5.82-1.26c5.87-1.38,12.2-2.33,18.23-2.11c2.72,0.1,5.32,0.86,8,1.04c1.78,0.12,3.6-0.41,4.25-2.24
						c0.35-0.98,0.31-2.06,0.23-3.08c-0.11-1.37-0.13-2.7-0.1-4.08c0.07-3.04-0.58-6.02,0.05-9.05c0.32-1.54,1.42-2.19,2.38-3.31
						c0.62-0.73,1.06-1.57,1.35-2.48c0.7-2.14,0.6-4.51,0.33-6.72c-0.29-2.37-0.91-4.69-1.16-7.08c-0.06-0.6-0.12-1.21-0.11-1.81
						c0-0.1,0.09-0.58,0.04-0.67c-0.12-0.24-0.86,0.13-0.63,0.23c1.06,0.45,1.72-1.27,0.77-1.83c-1.42-0.84-2.33-2.32-2.23-4
						c0.1-1.63,1.03-3.08,0.44-4.74c-0.44-1.22-1.54-2.05-2.23-3.11c-0.88-1.35-1.39-2.88-1.72-4.45c-0.61-2.92-0.58-5.94-0.88-8.9
						c-0.31-3.06-1.13-5.8-2.31-8.64c-1.28-3.1-2.07-5.89-1.79-9.27c0.23-2.75,0.84-5.67,0.01-8.37c-0.33-1.08-0.89-2.05-1.67-2.87
						c-0.61-0.64-1.43-1.08-1.99-1.76c-0.96-1.16-0.25-1.47,0.63-2.15c0.7-0.54,1.2-1.13,1.06-2.08c-0.18-1.25-1.36-1.94-1.78-3.06
						c-0.34-0.89,0.09-1.81,0.21-2.7c0.09-0.69,0.08-1.35-0.04-2.04c-0.26-1.45-0.96-2.77-1.59-4.08c-1.63-3.4-1.83-6.92-1.92-10.63
						c-0.16-7.2-2.04-13.78-4.07-20.65c-1.08-3.66-1.73-7.31-2.14-11.1c-0.4-3.65-0.96-7.29-1.25-10.95
						c-0.29-3.66-0.41-7.33-0.97-10.96c-0.22-1.42-0.41-2.83-0.29-4.28c0.13-1.65,0.66-3.23,0.97-4.85
						c0.63-3.26-1.02-5.98-2.71-8.63c-0.5-0.78-1.07-1.62-0.68-2.59c0.26-0.65,0.86-1.09,1.07-1.8c0.33-1.07,0.09-2.16-0.36-3.15
						c-0.59-1.32-1.58-2.48-2.01-3.87c-0.56-1.81-0.18-3.96-0.23-5.83c-0.09-3.51-0.51-7.05-1.47-10.43
						c-0.99-3.48-2.06-6.97-3.24-10.39c-0.5-1.45-1.04-2.88-1.65-4.29c-0.77-1.8-1.8-3.65-1.94-5.64c-0.19-2.67,2.27-5.63,0.3-8.08
						c-0.51-0.64-1.29-1.01-1.72-1.73c-0.36-0.59-0.45-1.32-0.49-2c-0.08-1.51,0.21-3.02,0.15-4.53c-0.24-6.7-4.77-12.66-7.22-18.7
						c-1.37-3.37-2.5-6.96-2.5-10.63c0-3.23,1.47-6.46,0.95-9.69c-0.1-0.61-0.26-1.19-0.53-1.75c-0.26-0.53-0.87-1.02-0.8-1.65
						c0.06-0.48,0.46-0.93,0.51-1.46c0.06-0.58-0.07-1.12-0.27-1.66c-0.4-1.09-1.21-1.95-1.68-3c-0.66-1.47-0.21-3.12-0.77-4.64
						c-1.84-4.99-7.78-6.34-12.41-6.98c-7.64-1.06-15.35-1.34-23.05-1.57c-7.67-0.23-15.35-0.47-23.03-0.68
						c-7.66-0.21-15.31-0.21-22.96,0.2c-3.89,0.21-7.77,0.51-11.64,0.91c-1.78,0.18-3.56,0.38-5.33,0.6s-3.6,0.64-5.39,0.67
						c-2.14,0.04-4.6-0.84-6.38,0.78c0.4-0.05,0.81-0.1,1.21-0.16c-0.76-0.38-1.42-0.13-2.24,0.02c-1.48,0.26-2.96,0.53-4.43,0.79
						c-2.96,0.53-5.91,1.06-8.87,1.59c-3.06,0.55-6.12,1.09-9.18,1.64c-1.18,0.21-2.41,0.35-3.55,0.75
						c-1.11,0.38-1.87,1.11-2.81,1.76c-0.89,0.62-1.94,0.86-2.86,1.4c-0.91,0.53-1.6,1.34-2.11,2.25c-1.22,2.2-1.88,4.81-2.35,7.26
						c-0.99,5.25-0.75,10.6-0.99,15.91c-0.21,4.53-1.23,8.99-1.36,13.52c-0.06,1.93,0.03,4,0.74,5.82c0.75,1.93,3.26,3.71,3.14,5.88
						c-0.11,1.99-3.15,1.64-3.01,3.9c0.07,1.07,1.07,1.69,0.83,2.79c-0.23,1.06-0.73,1.83-0.46,2.95c0.24,0.99,0.89,1.86,1.3,2.8
						c0.55,1.27,0.95,2.61,1.28,3.96c0.61,2.45,0.97,4.95,1.25,7.46c0.66,5.87,0.66,11.78,0.96,17.67c0.14,2.74,0.3,5.51,0.72,8.22
						c0.14,0.9,0.37,1.76,0.89,2.52c0.78,1.14,1.98,1.77,2.37,3.19c0.36,1.3-0.02,2.38-0.5,3.58c-0.51,1.25-0.72,2.34-0.54,3.7
						c0.38,2.79,1.27,5.58,1.92,8.33c0.69,2.9,1.38,5.8,2.06,8.7c0.21,0.91,0.45,1.86,0.01,2.75c-0.23,0.48-0.65,0.85-0.87,1.34
						c-0.36,0.81-0.36,1.69-0.1,2.53c0.33,1.03,1.04,1.89,1.67,2.76c0.86,1.19,1.41,2.38,1.77,3.81c0.68,2.74,1.11,5.57,1.51,8.36
						c0.42,2.97,0.57,5.94,0.9,8.92c0.26,2.39,1.01,4.67,1.39,7.04c0.21,1.35,0.31,2.76-0.01,4.1c-0.29,1.21-1.12,2.26-1.22,3.52
						c-0.14,1.77,1.03,3.12,1.98,4.48c0.56,0.8,1.07,1.55,0.8,2.54c-0.29,1.07-1.09,1.86-1.24,2.99c-0.18,1.3,0.37,2.46,1.19,3.45
						c1.71,2.06,5.85,3.79,5.12,6.98c-0.53,2.34-2.08,4.33-2.51,6.72c-0.15,0.84-0.25,1.73,0.06,2.54c0.35,0.92,1.15,1.41,1.82,2.08
						c1.7,1.72,1.98,4.3,2.2,6.59c0.24,2.52,0.55,5.01,1.1,7.48c0.58,2.66,1.37,5.27,2.37,7.8c0.46,1.17,0.95,2.32,1.49,3.45
						c0.64,1.34,1.55,2.66,1.98,4.09c0.48,1.59-0.68,2.17-1.21,3.46c-0.39,0.95-0.35,2-0.06,2.98c0.71,2.43,2.49,4.43,3.41,6.79
						c0.44,1.14,0.78,2.31,1.03,3.5c0.27,1.34,0.25,2.72,0.54,4.05c0.43,1.99,1.88,3.54,2.14,5.59c0.32,2.49-0.04,5.02,0.03,7.52
						c0.07,2.64,0.27,5.3,0.54,7.92c0.51,4.87,1.5,9.89,4.02,14.16c1.17,1.98,2.92,3.55,4.09,5.54c1.45,2.46,1.3,5.51,1.37,8.27
						c0.03,1.14-0.09,2.55,0.29,3.64c0.35,1,1.25,1.58,2.14,2.08c2.08,1.16,4.43,1.68,6.76,2c5.32,0.74,10.77,0.82,16.09,0.04
						c2.82-0.41,5.57-1.12,8.25-2.07c2.05-0.73,4.99-1.39,6.58-2.98c1.6-1.59,0.92-4.37,0.84-6.37c-0.11-2.8-0.25-5.62,0.68-8.31
						c0.43-1.23,1.02-2.29,1.87-3.26c0.71-0.8,1.48-1.56,1.97-2.52c1.07-2.11,1.53-4.82,1.85-7.14c0.36-2.53,0.18-4.94-0.22-7.44
						c-0.43-2.73-0.92-5.45-0.34-8.19c0.53-2.53,1.91-4.91,1.72-7.57c-0.17-2.22-1.87-3.89-1.62-6.19
						c0.41-3.74,3.46-7.27,2.05-11.14c-0.82-2.26-3.35-3.5-3.63-5.99c-0.29-2.66,1.05-5.4,1.42-8.01
						c0.75-5.26-0.15-10.52-0.15-15.79c0-2.81,0.42-5.4,1.2-8.09c0.62-2.16,0.16-3.7-1.36-5.31c-1.81-1.92-3.1-4.11-3.62-6.72
						c-0.54-2.71,0.01-5.23,0.82-7.83c0.72-2.3,1.49-4.7,1.09-7.14c-0.21-1.28-0.79-2.42-1.2-3.63c-0.47-1.4-0.56-2.83-0.43-4.3
						c0.26-2.81,1.16-5.55,1.57-8.34c0.35-2.36,0.57-4.75,0.39-7.14c-0.17-2.32-0.7-4.61-1.79-6.68c-1.15-2.19-1.53-3.89-0.95-6.34
						c0.84-3.5,2.48-6.88,0.56-10.34C420.24,512.37,418.51,513.38,419.14,514.5L419.14,514.5z"/>
				</g>
			</g>
			<g>
				<g>
					<path d="M333.48,404.66c4.34-1.43,8.78-2.57,13.28-3.4c4.55-0.84,9.12-1.2,13.72-1.61c2.23-0.2,4.45-0.51,6.59-1.17
						c2.19-0.67,4.3-1.49,6.59-1.77c2.25-0.28,4.52-0.23,6.78-0.25c2.36-0.02,4.71-0.16,7.06-0.41c4.69-0.49,9.34-1.26,14.04-1.72
						c4.76-0.46,9.54-0.69,14.33-0.7c9.53-0.01,19.05,0.89,28.55,1.57c9.53,0.68,19.06,1.34,28.54,2.55
						c1.16,0.15,2.32,0.3,3.48,0.47c0.54,0.08,1.07-0.13,1.23-0.7c0.13-0.47-0.16-1.16-0.7-1.23c-9.5-1.33-19.03-2.12-28.59-2.81
						c-9.6-0.69-19.22-1.6-28.84-1.82c-4.78-0.11-9.57,0.01-14.34,0.35c-4.76,0.34-9.48,1-14.21,1.61c-2.35,0.3-4.72,0.57-7.09,0.71
						c-2.33,0.14-4.66,0.08-6.99,0.14c-2.3,0.06-4.6,0.28-6.81,0.92c-2.19,0.63-4.29,1.47-6.55,1.86c-2.26,0.39-4.55,0.49-6.83,0.68
						c-2.3,0.19-4.59,0.45-6.88,0.79c-4.57,0.67-9.09,1.66-13.52,2.96c-1.13,0.33-2.25,0.68-3.37,1.05
						C331.73,403.14,332.25,405.07,333.48,404.66L333.48,404.66z"/>
				</g>
			</g>
			<g>
				<g>
					<path d="M336.8,387.23c8.83-1.61,17.66-3.23,26.48-4.84c4.41-0.81,8.81-1.61,13.22-2.42c4.44-0.81,8.87-1.62,13.36-2.1
						c8.8-0.94,17.67-0.83,26.5-0.4c8.91,0.44,17.81,1.1,26.71,1.69c5.01,0.33,10.03,0.66,15.04,0.99c4.6,0.3,9.4,0.44,13.61,2.51
						c0.29,0.14,0.54-0.29,0.25-0.43c-3.55-1.75-7.51-2.15-11.41-2.42c-4.49-0.31-8.98-0.59-13.46-0.89
						c-9.01-0.59-18.01-1.24-27.03-1.76c-8.92-0.51-17.87-0.8-26.79-0.12c-8.95,0.69-17.76,2.59-26.57,4.2
						c-8.91,1.63-17.83,3.26-26.74,4.89c-1.1,0.2-2.21,0.4-3.31,0.6C336.35,386.8,336.49,387.29,336.8,387.23L336.8,387.23z"/>
				</g>
			</g>
			<g>
				<g>
					<path d="M474.11,393.71c-9.55-0.92-19.11-1.75-28.68-2.49c-9.56-0.74-19.13-1.38-28.71-1.92c-4.68-0.27-9.38-0.5-14.07-0.31
						c-2.27,0.09-4.53,0.28-6.78,0.6c-2.32,0.33-4.59,0.86-6.88,1.35c-2.33,0.51-4.68,0.97-7.07,1.05c-1.17,0.04-2.34-0.02-3.5-0.2
						c-1.05-0.16-2.09-0.4-3.16-0.37c-2.08,0.05-4.03,1.14-5.97,1.77c-2.06,0.68-4.17,1.22-6.29,1.67
						c-8.52,1.79-17.29,2.08-25.77,4.1c-1.06,0.25-2.11,0.53-3.16,0.84c-0.31,0.09-0.18,0.57,0.13,0.48
						c8.34-2.47,17.06-2.87,25.6-4.31c4.31-0.73,8.46-1.82,12.55-3.36c1.07-0.4,2.14-0.72,3.3-0.69c1.09,0.03,2.15,0.3,3.22,0.44
						c2.23,0.29,4.48,0.11,6.69-0.24c2.31-0.37,4.57-0.94,6.86-1.41c2.31-0.48,4.65-0.82,7-1.02c4.63-0.39,9.29-0.29,13.92-0.06
						c9.55,0.46,19.09,1.13,28.62,1.84c9.52,0.71,19.04,1.51,28.55,2.41c1.2,0.11,2.4,0.23,3.6,0.34
						C474.43,394.24,474.42,393.74,474.11,393.71L474.11,393.71z"/>
				</g>
			</g>
			<g>
				<g>
					<path d="M415.41,565.47c-2.77,8.08-10.79,12.38-16.25,18.41c-1.12,1.23-2.61,2.84-2.4,4.65c0.1,0.87,0.64,1.52,1.29,2.07
						c0.81,0.69,1.67,1.33,2.51,1.98c1.81,1.4,3.66,2.75,5.53,4.07c0.88,0.62,2.91,1.83,3.45,0.13c0.13-0.42,0.06-0.87,0.09-1.3
						c0.04-0.53,0.19-1.04,0.44-1.51c0.49-0.92,1.35-1.67,2.35-1.99c2.12-0.67,4.41,0.8,4.93,2.9c0.08,0.31,0.56,0.18,0.48-0.13
						c-0.79-3.17-4.74-4.5-7.2-2.29c-0.54,0.49-0.97,1.11-1.23,1.79c-0.13,0.34-0.22,0.7-0.25,1.06c-0.04,0.43,0.06,0.93-0.09,1.34
						c-0.45,1.22-2.12-0.02-2.71-0.43c-0.91-0.63-1.8-1.28-2.69-1.93c-1.82-1.34-3.71-2.66-5.4-4.17c-0.89-0.79-1.23-1.75-0.82-2.9
						c0.36-1.01,1.09-1.85,1.78-2.65c2.8-3.17,6.18-5.74,9.26-8.62c3.13-2.91,6.01-6.24,7.41-10.34
						C416,565.3,415.52,565.16,415.41,565.47L415.41,565.47z"/>
				</g>
			</g>
			<g>
				<g>
					<path d="M510.09,597.69c-6.26-3.95-13.54-6.21-20.94-6.51c-2.14-0.09-4.28,0-6.41,0.24c-0.27,0.03-0.35,0.41-0.07,0.49
						c4.56,1.36,9.11,2.72,13.67,4.09c0.31,0.09,0.44-0.39,0.13-0.48c-4.56-1.36-9.11-2.72-13.67-4.09
						c-0.02,0.16-0.04,0.33-0.07,0.49c7.34-0.83,14.87,0.3,21.63,3.28c1.89,0.83,3.72,1.81,5.47,2.92
						C510.12,598.3,510.37,597.86,510.09,597.69L510.09,597.69z"/>
				</g>
			</g>
			<g>
				<g>
					<path d="M523.64,654.55c-3.24,2.2-7.06,3.18-10.56,4.85c-3.21,1.53-5.93,3.8-7.86,6.8c-1.8,2.79-3.1,6.36-2.93,9.73
						c0.07,1.34,0.53,2.85,1.92,3.34c1.72,0.61,3.32-0.69,4.51-1.75c1.75-1.56,3.82-2.5,6.21-2.05c2.1,0.4,3.86,1.86,4.76,3.79
						c0.14,0.29,0.57,0.04,0.43-0.25c-1.39-2.98-4.65-4.65-7.88-3.99c-1.82,0.37-3.05,1.48-4.43,2.65
						c-0.76,0.65-1.66,1.24-2.69,1.26c-1.04,0.02-1.78-0.67-2.09-1.61c-0.52-1.55-0.2-3.42,0.15-4.98c0.38-1.68,1-3.3,1.83-4.81
						c1.73-3.11,4.32-5.62,7.47-7.26c3.72-1.94,7.9-2.9,11.41-5.27C524.16,654.8,523.91,654.37,523.64,654.55L523.64,654.55z"/>
				</g>
			</g>
			<g>
				<g>
					<path d="M465.31,613.86c5.27,1.15,10.41,2.82,15.35,4.99c0.02-0.15,0.04-0.3,0.06-0.46c-3.5,0.63-7.07-1.4-10.5-0.08
						c-0.3,0.11-0.17,0.6,0.13,0.48c3.4-1.31,7.01,0.71,10.5,0.08c0.2-0.04,0.25-0.37,0.06-0.46c-4.98-2.19-10.16-3.88-15.47-5.04
						C465.13,613.31,465,613.79,465.31,613.86L465.31,613.86z"/>
				</g>
			</g>
			<g>
				<g>
					<path d="M481.61,625.89c1.76-0.09,3.42,0.44,5.04,1.07c1.59,0.62,3.16,1.29,4.71,2.02c3.03,1.42,5.96,3.05,8.79,4.85
						c0.27,0.17,0.52-0.26,0.25-0.43c-2.95-1.88-6.03-3.57-9.21-5.04c-1.52-0.7-3.06-1.36-4.63-1.96c-1.59-0.61-3.23-1.09-4.95-1.01
						C481.29,625.41,481.29,625.91,481.61,625.89L481.61,625.89z"/>
				</g>
			</g>
			<g>
				<g>
					<path d="M489.91,633.52c2.19,0.97,4.38,1.94,6.56,2.91c0.29,0.13,0.55-0.3,0.25-0.43c-2.19-0.97-4.38-1.94-6.56-2.91
						C489.88,632.96,489.62,633.39,489.91,633.52L489.91,633.52z"/>
				</g>
			</g>
			<g>
				<g>
					<path d="M372.13,620.94c0.57-0.34,1.13-0.68,1.7-1.02c-0.1-0.01-0.2-0.03-0.3-0.04c5.66,6.18,10.54,13.06,14.5,20.44
						c0.99,1.84,2.02,3.73,2.81,5.67c0.35,0.87,0.66,2.22-0.53,2.57c-0.88,0.26-1.96,0.03-2.81-0.25c-1.75-0.58-3.27-1.7-4.89-2.56
						c-1.24-0.66-3.13-1.63-4.49-0.75c-0.72,0.46-0.94,1.33-1.02,2.13c-0.11,1.17-0.07,2.38,0.05,3.55
						c0.22,2.32,0.82,4.57,1.73,6.71c0.13,0.29,0.56,0.04,0.43-0.25c-0.89-2.09-1.47-4.31-1.67-6.57c-0.1-1.07-0.14-2.17-0.05-3.25
						c0.09-1.13,0.53-2.16,1.83-2.14c0.97,0.01,1.93,0.49,2.77,0.93c0.83,0.43,1.62,0.91,2.42,1.38c1.44,0.83,2.99,1.62,4.69,1.67
						c0.73,0.02,1.56-0.06,2.03-0.69c0.42-0.55,0.37-1.3,0.21-1.94c-0.22-0.85-0.66-1.65-1.04-2.44c-0.46-0.96-0.94-1.91-1.43-2.85
						c-1.93-3.71-4.09-7.3-6.46-10.74c-2.66-3.85-5.58-7.52-8.74-10.97c-0.07-0.08-0.21-0.09-0.3-0.04
						c-0.57,0.34-1.13,0.68-1.7,1.02C371.6,620.68,371.85,621.11,372.13,620.94L372.13,620.94z"/>
				</g>
			</g>
			<g>
				<g>
					<path d="M379.96,674.01c2.27,2.81,5.28,4.88,8.49,6.49c1.6,0.8,3.25,1.5,4.92,2.15c0.87,0.34,1.74,0.67,2.62,0.99
						c0.78,0.29,1.66,0.74,2.52,0.63c0.6-0.08,1.02-0.61,1.66-0.44c0.56,0.15,1.1,0.54,1.59,0.83c1.03,0.62,2.02,1.29,2.98,2.01
						c0.26,0.19,0.51-0.24,0.25-0.43c-0.81-0.61-1.64-1.18-2.5-1.72c-0.73-0.46-1.63-1.17-2.52-1.24c-0.34-0.03-0.59,0.08-0.89,0.24
						c-0.64,0.33-1.14,0.28-1.82,0.06c-0.85-0.29-1.7-0.62-2.54-0.94c-3.42-1.29-6.82-2.73-9.84-4.81
						c-1.71-1.17-3.25-2.56-4.55-4.17C380.11,673.41,379.76,673.76,379.96,674.01L379.96,674.01z"/>
				</g>
			</g>
			<g>
				<g>
					<path d="M397.1,689.04c1.88,0.81,3.84,1.43,5.85,1.84c0.31,0.06,0.45-0.42,0.13-0.48c-1.97-0.4-3.89-0.99-5.73-1.79
						C397.06,688.48,396.81,688.91,397.1,689.04L397.1,689.04z"/>
				</g>
			</g>
			<g>
				<g>
					<path d="M400.06,692.46c1.87,0.72,3.8,1.26,5.78,1.59c0.31,0.05,0.45-0.43,0.13-0.48c-1.98-0.34-3.91-0.87-5.78-1.59
						C399.89,691.87,399.76,692.35,400.06,692.46L400.06,692.46z"/>
				</g>
			</g>
			<g>
				<g>
					<path d="M351.38,564.66c4.57,2.16,9.17,4.26,13.8,6.31c0.18,0.08,0.36-0.01,0.38-0.22c0.17-2.09-1.05-3.85-1.45-5.84
						c-0.19-0.93-0.21-1.99,0.26-2.85c0.6-1.09,1.91-1.42,3.06-1.53c2.59-0.24,10.03,1.65,9.32-3.13c-0.49-3.29-4.05-4.96-6.94-5.6
						c-1.97-0.44-4.01-0.65-5.92-1.33c-1.85-0.66-3.31-1.83-4.41-3.44c-2.05-3-2.99-6.82-6.02-9.08c-0.26-0.19-0.51,0.24-0.25,0.43
						c2.7,2.01,3.69,5.42,5.38,8.19c0.83,1.35,1.85,2.6,3.2,3.45c1.61,1.01,3.5,1.42,5.35,1.76c3.18,0.59,7.6,1.32,8.9,4.83
						c0.34,0.92,0.48,2.17-0.36,2.86c-0.86,0.7-2.3,0.73-3.36,0.71c-2.04-0.02-4.12-0.47-6.13,0.05c-1.93,0.5-2.84,2.06-2.67,4
						c0.2,2.25,1.74,4.2,1.55,6.5c0.13-0.07,0.25-0.14,0.38-0.22c-4.63-2.05-9.23-4.15-13.8-6.31
						C351.34,564.09,351.09,564.52,351.38,564.66L351.38,564.66z"/>
				</g>
			</g>
			<g>
				<g>
					<path d="M372.26,467.1c1.28,2.59-0.37,5.51-0.16,8.21c0.1,1.25,0.63,2.34,1.63,3.12c1.31,1.03,2.97,1.72,4.51,2.34
						c6.34,2.57,13.32,3.28,19.38,6.58c3.1,1.69,5.87,4.02,7.52,7.2c0.15,0.29,0.58,0.03,0.43-0.25
						c-2.84-5.47-8.73-8.36-14.37-10.11c-3.42-1.06-6.92-1.84-10.32-2.98c-1.74-0.58-3.45-1.25-5.07-2.1
						c-1.47-0.77-2.87-1.65-3.16-3.41c-0.49-2.96,1.46-5.98,0.04-8.86C372.55,466.56,372.12,466.81,372.26,467.1L372.26,467.1z"/>
				</g>
			</g>
			<g>
				<g>
					<path d="M339.67,435.42c2.3-0.16,6.32,1.53,7.26-1.75c0.81-2.82-1.06-5.86-2.75-7.95c-0.97-1.19-2.05-2.28-3.06-3.44
						c-1.07-1.24-2.28-2.69-2.74-4.29c-0.28-0.98-0.01-1.74,0.69-2.45c0.59-0.59,1.24-1.12,1.89-1.63c1.23-0.98,2.55-1.85,3.92-2.62
						c3.13-1.76,6.56-2.94,10.1-3.5c0.32-0.05,0.18-0.53-0.13-0.48c-3.04,0.48-5.99,1.42-8.75,2.78c-2.65,1.31-5.28,3.01-7.38,5.11
						c-1.06,1.07-1.16,2.27-0.56,3.62c0.61,1.38,1.56,2.6,2.54,3.74c2.06,2.39,4.6,4.62,5.56,7.73c0.5,1.63,0.7,4.1-1.29,4.78
						c-1.73,0.58-3.53-0.27-5.29-0.15C339.35,434.94,339.35,435.44,339.67,435.42L339.67,435.42z"/>
				</g>
			</g>
			<g>
				<g>
					<path d="M358.59,406.79c3.68-0.09,7.36-0.17,11.04-0.26c0.32-0.01,0.32-0.51,0-0.5c-3.68,0.09-7.36,0.17-11.04,0.26
						C358.27,406.29,358.27,406.79,358.59,406.79L358.59,406.79z"/>
				</g>
			</g>
			<g>
				<g>
					<path d="M484.87,439.17c-4.98-3.82-10.32-7.18-15.94-9.99c-1.34-0.67-2.76-1.23-4.08-1.95c-0.52-0.28-1.2-0.71-1.38-1.31
						c-0.24-0.84,0.77-1.42,1.32-1.86c2.21-1.76,4.67-3.48,5.67-6.24c1.13-3.12-0.7-5.79-2.59-8.12c-0.2-0.25-0.55,0.11-0.35,0.35
						c0.95,1.17,1.92,2.39,2.45,3.82c0.56,1.51,0.42,3.09-0.29,4.52c-0.69,1.4-1.79,2.52-2.97,3.52c-0.57,0.48-1.16,0.93-1.74,1.39
						c-0.57,0.45-1.27,0.88-1.71,1.47c-1.65,2.19,2.96,3.65,4.2,4.25c2.86,1.38,5.66,2.91,8.37,4.56c3.04,1.85,5.97,3.87,8.79,6.03
						C484.87,439.79,485.12,439.36,484.87,439.17L484.87,439.17z"/>
				</g>
			</g>
			<g>
				<g>
					<path d="M475.96,439.31c3.19,1.95,6.09,4.31,8.65,7.03c0.22,0.24,0.57-0.12,0.35-0.35c-2.58-2.75-5.53-5.14-8.75-7.11
						C475.94,438.71,475.69,439.14,475.96,439.31L475.96,439.31z"/>
				</g>
			</g>
			<g>
				<g>
					<path d="M480.18,446.65c1.67,1.23,3.33,2.45,5,3.68c0.26,0.19,0.51-0.24,0.25-0.43c-1.67-1.23-3.33-2.45-5-3.68
						C480.17,446.03,479.92,446.46,480.18,446.65L480.18,446.65z"/>
				</g>
			</g>
			<g>
				<g>
					<path d="M493.97,496.74c-7.07,0.09-13.35-3.51-19.3-6.9c-3.02-1.72-6.06-3.45-9.27-4.8c-1.58-0.67-3.21-1.24-4.88-1.66
						c-1.61-0.4-3.51-0.71-4.97,0.29c-2.5,1.72-1.62,5.4-0.8,7.78c1.4,4.1,2.7,8.21,3.65,12.45c0.48,2.12,0.88,4.25,1.22,6.39
						c0.29,1.83,0.56,3.77,1.59,5.35c0.85,1.31,2.32,2.39,3.93,2.4c1.81,0.01,3.07-1.44,4.53-2.29c3.25-1.9,7.74-2.16,10.67,0.5
						c1.24,1.13,2.14,2.65,2.42,4.32c0.07,0.4,0.09,0.81,0.08,1.22c-0.01,0.22-0.03,0.44-0.06,0.66c-0.05,0.36-0.16,0.38-0.5,0.47
						c-1.06,0.3-2.11,0.6-3.17,0.9c-1.09,0.31-2.19,0.62-3.28,0.94c-0.19,0.05-0.23,0.28-0.11,0.42c3.02,3.43,6.97,5.93,11.35,7.21
						c0.31,0.09,0.44-0.39,0.13-0.48c-4.3-1.25-8.17-3.71-11.13-7.08c-0.04,0.14-0.07,0.28-0.11,0.42c2.35-0.67,4.69-1.34,7.04-2.01
						c0.08-0.02,0.16-0.09,0.17-0.17c0.63-2.83-0.66-5.76-2.9-7.53c-2.55-2.01-6.1-2.17-9.07-1.06c-0.77,0.29-1.52,0.66-2.21,1.1
						c-0.73,0.47-1.38,1.05-2.14,1.48c-1.73,0.96-3.63,0.28-4.84-1.18c-1.22-1.47-1.54-3.47-1.84-5.3
						c-0.31-1.97-0.67-3.93-1.09-5.88c-0.86-3.98-1.96-7.91-3.29-11.75c-0.54-1.55-1.14-3.08-1.33-4.72
						c-0.16-1.37-0.04-2.95,1.07-3.91c1.46-1.27,3.61-0.78,5.3-0.33c1.58,0.42,3.12,0.98,4.63,1.63c3.01,1.29,5.86,2.91,8.7,4.53
						c5.43,3.09,11.06,6.39,17.4,7.01c0.8,0.08,1.6,0.11,2.4,0.1C494.29,497.23,494.29,496.73,493.97,496.74L493.97,496.74z"/>
				</g>
			</g>
			<g>
				<g>
					<path d="M377.51,415.44c-0.62,5.62-0.47,11.29,0.42,16.88c0.05,0.32,0.53,0.18,0.48-0.13c-0.89-5.54-1.02-11.17-0.4-16.74
						C378.05,415.12,377.55,415.12,377.51,415.44L377.51,415.44z"/>
				</g>
			</g>
			<g>
				<g>
					<path d="M382.71,441.39c5.43,5.16,9.29,11.84,11.07,19.12c0.08,0.31,0.56,0.18,0.48-0.13c-1.79-7.36-5.71-14.12-11.2-19.34
						C382.83,440.81,382.47,441.17,382.71,441.39L382.71,441.39z"/>
				</g>
			</g>
			<g>
				<g>
					<path d="M394.53,409c5.79,1.53,11.84,2,17.79,1.33c1.42-0.16,2.84-0.38,4.25-0.67c1.23-0.25,2.45-0.58,3.7-0.76
						c1.21-0.17,2.5-0.24,3.66,0.19c1.3,0.48,2.08,1.58,2.51,2.86c0.5,1.51,0.76,3.13,1.02,4.7c0.29,1.79,0.48,3.59,0.6,5.4
						c0.02,0.32,0.52,0.32,0.5,0c-0.19-3.12-0.61-6.26-1.36-9.3c-0.29-1.18-0.72-2.4-1.64-3.25c-0.77-0.72-1.77-1.08-2.81-1.19
						c-2.58-0.28-5.19,0.68-7.7,1.12c-3.15,0.54-6.35,0.76-9.54,0.66c-3.67-0.11-7.3-0.65-10.85-1.59
						C394.35,408.44,394.22,408.92,394.53,409L394.53,409z"/>
				</g>
			</g>
			<g>
				<g>
					<path d="M427.69,448.45c-3.98,1.78-6.9,5.62-7.55,9.92c-0.05,0.31,0.43,0.45,0.48,0.13c0.64-4.2,3.44-7.89,7.32-9.63
						C428.23,448.75,427.98,448.32,427.69,448.45L427.69,448.45z"/>
				</g>
			</g>
			<g>
				<g>
					<path d="M390.74,509.62c-3.63-1.56-7.3-3.02-11.02-4.38c-1.88-0.69-3.78-1.35-5.68-1.98c-1.74-0.58-3.53-1.28-5.36-1.5
						c-0.8-0.1-1.62-0.08-2.39,0.16c-0.84,0.26-1.53,0.79-2.27,1.23c-1.84,1.1-3.81,0.58-5.63-0.29c-1.65-0.79-3.16-1.85-4.46-3.13
						c-1.05-1.04-1.97-2.21-2.91-3.35c-1.89-2.26-4.1-4.67-7.26-4.74c-0.32-0.01-0.32,0.49,0,0.5c2.98,0.07,5.07,2.4,6.85,4.52
						c0.92,1.1,1.81,2.24,2.82,3.26c1.21,1.23,2.61,2.27,4.14,3.07c1.4,0.73,3,1.42,4.61,1.29c1.79-0.14,2.94-1.66,4.65-2
						c1.84-0.37,3.75,0.37,5.48,0.92c1.91,0.62,3.81,1.26,5.7,1.93c4.21,1.5,8.38,3.13,12.48,4.9
						C390.78,510.18,391.03,509.75,390.74,509.62L390.74,509.62z"/>
				</g>
			</g>
			<g>
				<g>
					<path d="M379.23,510.22c6.48,3.66,13.31,6.7,20.36,9.07c0.31,0.1,0.44-0.38,0.13-0.48c-7.02-2.36-13.8-5.38-20.24-9.02
						C379.21,509.63,378.95,510.07,379.23,510.22L379.23,510.22z"/>
				</g>
			</g>
			<g>
				<g>
					<path d="M390.22,520.46c2.74,1.04,5.47,2.09,8.21,3.13c0.3,0.11,0.43-0.37,0.13-0.48c-2.74-1.04-5.47-2.09-8.21-3.13
						C390.05,519.86,389.92,520.34,390.22,520.46L390.22,520.46z"/>
				</g>
			</g>
			<g>
				<g>
					<path d="M484.42,546.16c2.69,1.41,5.85,1.75,8.76,0.91c0.31-0.09,0.18-0.57-0.13-0.48c-2.79,0.8-5.81,0.49-8.38-0.86
						C484.39,545.58,484.13,546.01,484.42,546.16L484.42,546.16z"/>
				</g>
			</g>
			<g>
				<g>
					<path d="M424.7,400.16c8.32,2.26,16.65,4.51,24.97,6.77c0.02-0.16,0.04-0.33,0.07-0.49c-5.97,0.05-11.93-0.33-17.84-1.14
						c-0.25-0.03-0.47,0.32-0.19,0.46c0.36,0.17,0.71,0.35,1.07,0.52c0.29,0.14,0.54-0.29,0.25-0.43c-0.36-0.17-0.71-0.35-1.07-0.52
						c-0.06,0.15-0.13,0.3-0.19,0.46c5.96,0.82,11.96,1.22,17.98,1.16c0.28,0,0.34-0.42,0.07-0.49c-8.32-2.26-16.65-4.51-24.97-6.77
						C424.52,399.59,424.39,400.08,424.7,400.16L424.7,400.16z"/>
				</g>
			</g>
			<g>
				<g>
					<path d="M432.96,412.11c2.61-0.38,5.22-0.76,7.82-1.13c0.32-0.05,0.18-0.53-0.13-0.48c-2.61,0.38-5.22,0.76-7.82,1.13
						C432.51,411.68,432.64,412.16,432.96,412.11L432.96,412.11z"/>
				</g>
			</g>
			<g>
				<g>
					<path d="M343.99,445.78c-0.91,1.24-0.97,2.86-0.44,4.28c0.59,1.59,1.81,2.76,3.28,3.55c3.47,1.87,7.9,1.6,10.99,4.23
						c1.67,1.43,2.72,3.41,3.73,5.32c0.15,0.28,0.58,0.03,0.43-0.25c-0.81-1.52-1.63-3.06-2.76-4.37c-1.17-1.36-2.66-2.28-4.35-2.88
						c-3.3-1.19-7.69-1.28-10.03-4.27c-1.18-1.51-1.62-3.73-0.43-5.35C344.61,445.78,344.18,445.53,343.99,445.78L343.99,445.78z"/>
				</g>
			</g>
		</g>
	</g>
</g>
</svg>
