<?xml version="1.0" encoding="utf-8"?>
<!-- Generator: Adobe Illustrator 28.0.0, SVG Export Plug-In . SVG Version: 6.00 Build 0)  -->
<svg version="1.1" id="Layer_1" xmlns="http://www.w3.org/2000/svg" xmlns:xlink="http://www.w3.org/1999/xlink" x="0px" y="0px"
	 viewBox="0 0 150 150" style="enable-background:new 0 0 150 150;" xml:space="preserve">
<style type="text/css">
	.st0{stroke:#000000;stroke-width:2;stroke-miterlimit:10;}
	.st1{fill:#545789;}
	.st2{fill:url(#SVGID_1_);}
	.st3{fill:url(#SVGID_00000151526054990267004070000016376355729020467888_);}
</style>
<path class="st0" d="M121.32,129.43c0.16-0.46,0.21-0.96,0.18-1.44c-0.05-1.05-0.42-2.06-0.52-3.11c-0.11-1.08,0.03-2.16,0.07-3.24
	c0.04-1.09-0.11-2.08-0.33-3.14c-0.13-0.61-0.15-1.16,0.1-1.75c0.17-0.4,0.36-0.79,0.33-1.24c-0.03-0.38-0.23-0.7-0.44-1
	c-0.33-0.47-0.57-0.95-0.75-1.49c-0.36-1.06-0.68-2.13-1.09-3.17c-0.77-1.97-1.81-3.77-2.71-5.67c-0.51-1.06-0.75-2.14-0.73-3.32
	c0.01-1.16,0.15-2.31,0.15-3.47c0-2.18-0.29-4.36-0.85-6.47c-0.14-0.53-0.28-1.02-0.27-1.58c0.01-0.47,0.01-0.91-0.08-1.38
	c-0.18-0.98-0.59-1.9-0.87-2.86c-0.67-2.26-1.29-4.54-1.93-6.81c-0.28-0.97-0.52-1.97-0.94-2.89c-0.21-0.46-0.52-0.88-0.74-1.34
	c-0.24-0.51-0.33-1.06-0.36-1.61c-0.05-0.93,0.06-1.87-0.1-2.8c-0.07-0.4-0.19-0.78-0.37-1.15c-0.22-0.43-0.56-0.78-0.76-1.22
	c-0.21-0.46-0.28-0.99-0.42-1.47c-0.16-0.54-0.35-1.08-0.49-1.62c-0.31-1.15-0.55-2.34-0.65-3.53c-0.19-2.31,0-4.62-0.29-6.93
	c-0.57-4.51-2.09-8.85-2.52-13.38c-0.21-2.27-0.89-4.51-1.36-6.73c-0.49-2.3-0.95-4.6-1.33-6.92c-0.36-2.22-0.65-4.45-0.84-6.69
	c1-0.78,0.39-2.61,0.26-3.65c-0.13-1.01-0.18-2-0.1-3.01c0.06-0.75,0.05-1.5-0.54-2.06c-0.46-0.44-1.1-0.56-1.71-0.62
	c-0.84-0.09-1.63-0.35-2.46-0.44c-0.46-0.05-0.91,0.01-1.37-0.08c-0.48-0.09-0.96-0.2-1.43-0.32c-1.05-0.25-2.1-0.47-3.16-0.66
	c-4.08-0.73-8.22-1.16-12.37-1.26c-1.02-0.03-2.04-0.02-3.07-0.01c-0.83,0.01-1.79-0.24-2.65-0.32c-1.05-0.1-2.02,0.19-3.06,0.22
	c-0.97,0.03-1.95-0.04-2.92-0.04c-1.17-0.02-2.4-0.1-3.6-0.02c-1.09,0.08-1.97,0.65-3.09,0.58c-1.01-0.07-2.03-0.36-3.03-0.03
	c-0.34,0.11-0.68,0.21-1.02,0.32c-0.41,0.13-0.82,0.21-1.23,0.36c-0.52,0.19-1.05,0.32-1.59,0.43c-1.16,0.23-2.33,0.38-3.49,0.61
	c-1.08,0.22-2,0.69-3.02,1.07c-0.9,0.34-1.79,0.84-2.72,1.07c-0.67,0.17-1.67,0.04-2.16,0.63c-0.25,0.3-0.27,0.68-0.29,1.06
	c-0.03,0.6-0.05,1.2-0.07,1.8c-0.09,2.4-0.16,4.8-0.17,7.2c-0.01,1.17,0.01,2.35,0.15,3.51c0.12,1.03,0.45,2.03,0.56,3.06
	c0.1,1.03-0.38,1.97-0.21,2.98c0.2,1.15,0.57,2.28,0.82,3.42c0.5,2.33,0.88,4.68,1.38,7.01c0.49,2.27,1.09,4.51,1.72,6.74
	c1.29,4.53,2.09,9.14,2.49,13.83c0.39,4.47,0.02,9.21,1.61,13.47c0.35,0.92,0.63,1.84,1.06,2.73c0.25,0.52,0.46,1.03,0.47,1.62
	c0.01,0.52-0.12,1.04-0.14,1.56c-0.03,0.93,0.35,1.51,0.92,2.2c0.41,0.5,0.46,0.91,0.36,1.55c-0.09,0.55-0.14,1.1-0.14,1.65
	c-0.02,2.24,0.51,4.46,0.23,6.71c-0.13,1.04-0.2,1.93,0.21,2.92c0.21,0.51,0.43,0.99,0.5,1.54c0.06,0.51,0.05,1.03,0.19,1.52
	c0.1,0.4,0.3,0.73,0.53,1.06c0.31,0.44,0.5,0.87,0.62,1.39c0.25,1.02,0.32,2.13,0.09,3.17c-0.21,0.94-0.72,1.74-0.63,2.73
	c0.09,0.94,0.54,1.8,0.67,2.73c0.16,1.09-0.35,2.17-0.13,3.26c0.05,0.26,0.15,0.5,0.26,0.74c-0.02,0.05-0.03,0.11,0.02,0.17
	c0.06,0.08,0.13,0.15,0.19,0.23c0.25,0.42,0.55,0.81,0.83,1.22c0.63,0.93,0.93,1.98,1.14,3.07c0.19,0.96,0.19,1.99,0.55,2.91
	c0.15,0.37,0.37,0.69,0.58,1.03c0.15,0.23,0.19,0.42,0.2,0.6c-0.23,0.46-0.53,0.91-0.57,1.39c-0.15,0.44-0.16,0.89,0.12,1.34
	c0.37,0.6,1.05,0.9,1.46,1.46c0.58,0.78,0.78,1.81,0.89,2.76c0.12,1.07,0.19,2.18,0.12,3.26c-0.06,0.98-0.15,1.89,0.29,2.81
	c0.41,0.87,1.04,1.08,1.86,1.45c0.9,0.4,1.81,0.48,2.79,0.56c1.07,0.09,2.15,0,3.22,0.08c1.11,0.08,2.18,0.24,3.28,0.06
	c1.11-0.18,2.18-0.51,3.3-0.64c0.62-0.07,1.32-0.22,1.8-0.63c0.71-0.61,0.33-1.56,0.55-2.35c0.25-0.85,0.92-1.51,1.1-2.39
	c0.37-1.77-0.78-3.42-0.58-5.18c0.12-1.05,0.88-1.9,1.31-2.84c0.43-0.92,0.72-1.9,0.87-2.91c0.33-2.17-0.09-4.35,0.42-6.51
	c0.47-1.99,1.29-3.89,1.49-5.94c0.09-0.94,0.05-1.9-0.21-2.81c-0.12-0.43-0.3-0.85-0.52-1.24c-0.28-0.49-0.69-0.9-0.9-1.43
	c-0.18-0.46-0.23-0.96-0.36-1.43c-0.13-0.48-0.36-0.92-0.62-1.34c-0.22-0.35-0.47-0.68-0.72-1.01c-0.17-0.22-0.35-0.44-0.49-0.68
	c-0.19-0.32-0.14-0.57-0.1-0.93c0.04-0.39-0.04-0.68-0.13-1.05c-0.13-0.51,0.2-0.89,0.26-1.38c0.14-1.07,0.07-2.21,0.09-3.29
	c0.03-1.17,0.11-2.36-0.01-3.53c-0.11-1.11-0.34-2.21-0.54-3.31c-0.22-1.18-0.46-2.36-0.59-3.55c-0.12-1.15-0.08-2.28,0-3.43
	s0.14-2.28-0.01-3.42c-0.14-1.05-0.4-2.08-0.71-3.09c-0.65-2.11-1.5-4.16-1.84-6.35c-0.18-1.18-0.19-2.38-0.32-3.57
	c-0.13-1.18-0.26-2.35-0.33-3.53c-0.15-2.38-0.14-4.75-0.28-7.13c-0.06-1.03,0.03-2.06-0.06-3.08c-0.01-0.13-0.03-0.27-0.04-0.4
	c0.05,0.15,0.1,0.31,0.16,0.46c1.67,4.32,3.67,8.49,5.44,12.76c0.86,2.07,1.57,4.19,2.44,6.26c0.86,2.04,1.74,4.12,2.32,6.26
	c0.31,1.13,0.29,2.19,0.38,3.33c0.07,1.01,0.8,1.65,1.21,2.52c0.45,0.96,0.59,2.04,0.82,3.07c0.24,1.07,0.55,2.12,0.93,3.15
	c0.37,1.01,0.83,1.97,1.32,2.92c0.5,0.97,0.98,1.97,1.04,3.08c0.06,1.08-0.12,2.09,0.13,3.16c0.25,1.09,0.53,2.18,0.84,3.26
	c0.61,2.18,1.43,4.28,2.11,6.44c0.16,0.51,0.27,1.02,0.25,1.56c-0.02,0.48-0.1,0.94-0.02,1.42c0.18,0.98,0.93,1.74,1.41,2.58
	c1.09,1.92,1.6,4.19,2.27,6.27c0.59,1.86,0.93,4.11,2.42,5.49c0.34,0.31,0.7,0.6,0.98,0.96c0.36,0.46,0.52,1.01,0.64,1.58
	c0.1,0.45,0.16,0.92,0.34,1.35c0.15,0.37,0.41,0.68,0.6,1.04c0.27,0.51,0.05,0.8-0.02,1.32c-0.06,0.42,0.01,0.83,0.14,1.22
	c0.13,0.41,0.32,0.81,0.46,1.22c0.17,0.52,0.14,0.99,0.15,1.53c0.01,0.82,0.45,1.27,1.06,1.75c0.46,0.35,0.71,0.68,0.89,1.23
	c0.14,0.42,0.26,0.84,0.51,1.21c0.42,0.62,1.03,1.25,1.78,1.41c0.78,0.16,1.56-0.12,2.3-0.32c2.16-0.59,4.6-0.56,6.81-0.31
	c1.14,0.13,2.27,0.35,3.38,0.66c0.55,0.15,1.51,0.6,1.83-0.16c0.14-0.33,0.03-0.76,0.01-1.09c-0.05-0.61,0.12-1.02,0.38-1.56
	c0.4-0.87,0.59-1.85,0.61-2.8c0.03-1.09-0.32-2.17-0.22-3.26C120.91,130.39,121.15,129.94,121.32,129.43z"/>
<g>
	<path class="st1" d="M76.97,135.07c0.11-0.26,0.21-0.53,0.27-0.81c0.18-0.88-0.15-1.76-0.34-2.64c-0.22-1.02-0.22-1.97,0.03-2.97
		c0.23-0.94,0.76-1.77,1.11-2.67c1.07-2.73,0.41-5.83,0.9-8.73c0.32-1.89,1.3-3.53,1.75-5.36c0.42-1.68,0.25-3.45-0.65-4.96
		c-0.19-0.32-0.42-0.63-0.56-0.98c-0.22-0.54-0.22-1.15-0.42-1.71c-0.37-1.02-1.35-1.7-1.83-2.67c-0.23-0.47-0.34-1-0.4-1.52
		c-0.2-1.65-0.02-3.31,0.15-4.96c0.09-0.83,0.38-1.79,0.31-2.6c-0.07-0.85-0.22-1.73-0.36-2.58c-0.46-2.77-0.9-5.55-0.9-8.37
		c0-2.04-0.16-3.89-0.5-5.88c-0.36-2.09-1.12-4.13-1.64-6.18c-0.91-3.59-0.68-7.32-1.14-10.98c-0.11-1.51-0.23-3.03-0.34-4.54
		c-0.09-1.2,0.14-2.28,0.08-3.47c-0.02-0.39-0.29-0.73-0.3-1.12c-0.02-0.4,0.03-0.83,0.02-1.24c0-0.09,0.01-0.21,0.09-0.25
		c0.68,1.76,1.48,3.45,2.23,5.19c0.77,1.8,1.54,3.6,2.3,5.41c0.05,0.11,0.09,0.22,0.14,0.32c0.5,1.5,1.25,2.97,1.87,4.43
		c0.3,0.71,0.72,1.45,0.9,2.2c0.17,0.73,0.42,1.44,0.67,2.15c0.35,1.01,0.72,2.02,1.11,3.02c0.32,0.81,0.65,1.61,1.03,2.39
		c0.18,0.37,0.42,0.73,0.59,1.11c0.14,0.32,0.2,0.63,0.34,0.96c0.64,1.44,0.16,3.06,0.66,4.53c0.23,0.66,0.65,1.24,0.97,1.87
		c0.9,1.76,1.1,3.82,1.54,5.72c0.17,0.73,0.35,1.46,0.66,2.14c0.55,1.17,1.5,2.16,1.79,3.43c0.16,0.69,0.09,1.41,0.09,2.12
		c-0.01,2.53,0.74,4.97,1.56,7.34c0.68,1.96,2.18,4.05,1.99,6.21c-0.03,0.31-0.1,0.62-0.09,0.94c0.01,1.17,0.94,2.09,1.56,3.08
		c0.82,1.31,1.12,2.87,1.54,4.36c0.4,1.43,0.92,2.83,1.45,4.23c0.26,0.7,0.53,1.41,0.98,2.01c0.32,0.41,0.71,0.76,1.04,1.17
		c0.47,0.58,0.77,1.27,1.03,1.96c0.25,0.67,0.23,1.38,0.55,2.04c0.14,0.29,0.33,0.56,0.44,0.86c0.18,0.53,0.09,1.12,0.16,1.67
		c0.12,0.85,0.64,1.61,0.71,2.46c0.05,0.6-0.11,1.23,0.12,1.77c0.22,0.5,0.72,0.81,0.98,1.29c0.17,0.32,0.23,0.69,0.38,1.02
		c0.21,0.47,0.61,0.84,0.99,1.19c0.36,0.33,0.73,0.67,1.18,0.84c0.48,0.18,0.79,0.04,1.24-0.09c0.37-0.11,0.78-0.12,1.17-0.16
		c1.38-0.12,2.76-0.21,4.14-0.26c1.29-0.05,2.55,0.15,3.83,0.15c1.05,0.1,2.11,0.27,3.07,0.71c0.15,0.07,0.35,0.14,0.47,0.03
		c0.07-0.07,0.09-0.18,0.09-0.28c0.03-0.38-0.03-0.78,0.03-1.15c0.08-0.49,0.31-0.98,0.42-1.47c0.22-0.97,0.32-1.97,0.32-2.97
		c-0.01-0.99-0.13-1.99,0.04-2.97c0.11-0.69,0.37-1.35,0.41-2.05c0.08-1.12-0.38-2.2-0.49-3.31c-0.1-0.97,0.06-1.94,0.1-2.92
		c0.07-1.85-0.31-3.71-0.18-5.56c0.04-0.57,0.13-1.14,0.04-1.7c-0.08-0.46-0.27-0.9-0.46-1.33c-0.4-0.89-0.78-1.71-0.96-2.65
		c-0.19-0.99-0.71-2.03-1.11-2.95c-0.44-0.99-0.94-1.96-1.5-2.89c-0.52-0.87-1.1-1.72-1.36-2.7c-0.2-0.74-0.2-1.52-0.21-2.29
		c0-0.9-0.01-1.8-0.01-2.69c0-0.85-0.01-1.69-0.03-2.54c-0.06-3.01-0.37-5.93-1.18-8.83c-0.8-2.86-1.9-5.64-2.68-8.51
		c-0.26-0.95-0.52-1.92-0.99-2.79c-0.26-0.49-0.59-0.96-0.78-1.49c-0.6-1.7,0.3-3.62-0.65-5.22c-0.08-0.14-0.18-0.28-0.26-0.42
		c-0.46-0.83-0.69-1.95-0.96-2.86c-0.24-0.82-0.49-1.65-0.62-2.49c-0.09-0.6-0.13-1.2-0.16-1.81c-0.13-2.26-0.15-4.56-0.4-6.81
		c-0.1-0.91-0.37-1.84-0.5-2.77c-0.16-1.12-0.34-2.23-0.54-3.34c-0.32-1.78-0.83-3.53-1.15-5.31c-0.52-2.88-0.81-5.8-1.72-8.6
		c-0.4-1.23-0.41-2.53-0.67-3.8c-0.15-0.72-0.39-1.42-0.56-2.13c-0.28-1.2-0.24-2.46-0.54-3.64c-0.29-1.15-0.37-2.33-0.41-3.51
		c-0.04-1.05,0.49-1.94,0.46-3.01c-0.02-0.88-0.3-1.74-0.44-2.61c-0.12-0.77-0.14-1.56-0.01-2.32c0.05-0.32,0.13-0.65,0.05-0.96
		c-0.15-0.59-0.83-0.91-1.44-0.93s-1.22,0.14-1.83,0.14c-0.71-0.01-1.4-0.26-2.07-0.48c-4.11-1.38-8.46-1.7-12.76-1.93
		c-2.2-0.12-4.41-0.22-6.6-0.43c-1.05-0.1-2.16,0.01-3.22,0c-1.16-0.01-2.32-0.04-3.48-0.11c-1.46-0.09-2.92-0.24-4.39-0.16
		c-1.49,0.08-2.96,0.38-4.44,0.49c-1.32,0.09-2.64,0.03-3.95,0.18c-0.77,0.09-1.53,0.26-2.29,0.46c-2.03,0.55-3.99,1.38-6.07,1.75
		c-1.9,0.34-3.61,1.4-5.49,1.87c-0.21,0.05-0.42,0.11-0.59,0.23c-0.48,0.34-0.49,1.04-0.46,1.63c0.03,0.68,0.05,1.36,0.04,2.04
		c-0.02,2.79-0.34,5.58-0.14,8.37c0.08,1.1,0.24,2.19,0.42,3.27c0.07,0.4,0.25,0.83,0.3,1.22c0.05,0.46-0.26,0.9-0.38,1.32
		c-0.28,0.97,0.16,1.98,0.45,2.95c0.31,1.01,0.5,2.04,0.7,3.08c0.25,1.49,0.57,2.97,0.85,4.46c0.29,1.54,0.49,3.14,0.89,4.66
		c0.77,2.89,1.83,5.69,2.44,8.63c0.89,4.33,1.21,8.75,1.34,13.16c0.04,1.28,0.06,2.55,0.2,3.82c0.19,1.77,0.63,3.44,1.21,5.12
		c0.24,0.69,0.36,1.45,0.62,2.13c0.27,0.68,0.79,1.15,0.89,1.92c0.14,1.08-0.47,2.25,0.01,3.22c0.31,0.62,1.02,1.04,1.11,1.72
		c0.07,0.54-0.19,1.04-0.1,1.59c0.09,0.57,0.08,1.11,0.07,1.69c-0.02,1.38-0.01,2.76,0.09,4.14c0.06,0.83,0.16,1.66,0.08,2.48
		c-0.03,0.29-0.08,0.58-0.07,0.87c0.03,0.77,0.49,1.45,0.66,2.2c0.18,0.77,0.05,1.61,0.39,2.32c0.19,0.41,0.51,0.75,0.67,1.18
		c0.17,0.44,0.22,0.91,0.29,1.38c0.06,0.39,0.21,0.73,0.26,1.11c0.05,0.48-0.05,0.98-0.15,1.44c-0.21,0.95-0.56,1.91-0.44,2.89
		c0.04,0.32,0.13,0.64,0.21,0.96c0.32,1.31,0.43,2.67,0.33,4.01c-0.04,0.56-0.13,1.13,0.02,1.68c0.1,0.39,0.31,0.73,0.53,1.06
		c0.84,1.26,1.93,2.49,1.99,4c0.01,0.4-0.05,0.8-0.04,1.2c0.02,0.95,0.31,2.01,0.83,2.8c0.14,0.2,0.3,0.41,0.31,0.66
		c0.01,0.17-0.06,0.34-0.13,0.49c-0.27,0.61-0.53,1.31-0.25,1.91c0.43,0.91,1.57,1.12,1.84,2.17c0.36,1.41,0.32,2.87,0.42,4.31
		c0.05,0.68-0.05,1.35-0.02,2.04c0.02,0.69,0.13,1.37,0.31,2.04c0.03,0.12,0.07,0.25,0.16,0.34c0.07,0.08,0.17,0.12,0.27,0.16
		c0.58,0.22,1.19,0.31,1.8,0.41c1.88,0.28,3.77,0.53,5.65,0.78c0.46,0.06,0.93,0.12,1.4,0.11c0.52-0.01,1.03-0.11,1.54-0.22
		c0.95-0.2,1.89-0.43,2.83-0.66c0.63-0.16,2.32-0.12,2.51-0.88c0.05-0.21,0.03-0.43,0.02-0.65
		C76.23,136.8,76.61,135.95,76.97,135.07z"/>
</g>
<g>
	
		<linearGradient id="SVGID_1_" gradientUnits="userSpaceOnUse" x1="23.7382" y1="772.2703" x2="93.268" y2="761.7405" gradientTransform="matrix(1 0 0 1 0 -692)">
		<stop  offset="0" style="stop-color:#000000"/>
		<stop  offset="0.2234" style="stop-color:#10101A;stop-opacity:0.7766"/>
		<stop  offset="0.6978" style="stop-color:#383A5C;stop-opacity:0.3022"/>
		<stop  offset="1" style="stop-color:#545789;stop-opacity:0"/>
	</linearGradient>
	<path class="st2" d="M73.6,105.13c-0.09-0.53-0.25-0.99-0.54-1.25c-0.44-0.39-1.02-0.59-1.56-0.82c-1.29-0.56-2.6-1.74-2.34-3.12
		c0.62,0.16,1.43,0.25,1.77-0.3c0.17-0.26,0.16-0.6,0.13-0.91c-0.16-1.73-0.75-3.42-1.7-4.87c-0.2-0.3-0.41-0.6-0.64-0.88
		c-0.75-0.92-1.72-2.05-1.24-3.13c0.25-0.56,0.86-1.06,0.67-1.64c-0.08-0.25-0.3-0.42-0.52-0.56c-0.87-0.52-1.94-0.6-2.85-1.04
		c-0.14-0.07-0.28-0.15-0.35-0.29c-0.09-0.17-0.04-0.37,0.02-0.55c0.57-1.56,2.38-2.3,4.03-2.5s3.38-0.06,4.93-0.68
		c0.35-0.14,0.69-0.32,0.92-0.61c0.43-0.52,0.44-1.26,0.33-1.93c-0.2-1.25-0.75-2.41-1.29-3.55c-1.2-2.54-2.4-5.09-4.09-7.33
		c-0.26-0.35-0.54-0.71-0.59-1.14c-0.05-0.42,0.14-0.84,0.32-1.22c0.5-1.05,1-2.11,1.49-3.16c0.82-1.74,2.3-3.08,2.18-5.17
		c-0.03-0.47-0.13-0.94-0.2-1.4c-0.34-2.19,0.06-4.39,0.06-6.59c0-2.1-0.88-3.9-1.59-5.85c-0.58-1.73-1.04-4.04-2.37-5.3
		c-0.85-0.8-0.72-2.18-1.26-3.22c-0.26-0.5-0.67-0.91-1.05-1.33c-1.08-1.18-1.99-2.5-2.71-3.92c-0.29-0.58-0.56-1.2-0.49-1.85
		c0.07-0.7,0.52-1.31,0.71-1.99c0.33-1.16-0.14-2.4-0.83-3.39s-1.61-1.79-2.35-2.73c-0.29-0.37-0.56-0.78-0.65-1.25
		c-0.14-0.82,0.31-1.6,0.6-2.38c0.42-1.11,0.55-2.13,0.02-3.24c-0.42-0.88-1.11-1.6-1.82-2.27c-0.68-0.64-1.39-1.26-2.12-1.84
		c-0.59-0.47-1.38-1.03-2.18-0.95c-0.81,0.08-1.66,0.62-2.43,0.88c-1.38,0.47-2.22,0.77-3.72,0.67c-0.44-0.03-0.94,0.05-1.23,0.38
		c-0.14,0.16-0.23,0.37-0.38,0.52c-0.21,0.22-0.56,0.29-0.83,0.41c-0.51,0.22-1.06,0.52-1.61,0.61c-0.66,0.11-1.36,0.13-2.03,0.2
		c-0.12,0.01-0.25,0.02-0.37,0.07c-0.48,0.17-0.76,0.46-0.86,0.98c-0.14,0.73-0.01,1.5-0.02,2.24c-0.02,0.9-0.03,1.8-0.05,2.7
		c-0.01,0.57-0.02,1.15-0.02,1.72c-0.02,1.35-0.04,2.71-0.01,4.06c0.01,0.68,0.03,1.35,0.07,2.03c0.02,0.34,0.02,0.7,0.07,1.04
		c0.04,0.26,0.16,0.5,0.23,0.75c0.09,0.31,0.16,0.63,0.23,0.95c0.05,0.25,0.15,0.55,0.15,0.81c0,0.3-0.14,0.64-0.18,0.94
		c-0.05,0.32-0.08,0.65-0.1,0.98c-0.04,0.65-0.02,1.31,0.07,1.96c0,0.03,0.01,0.05,0.01,0.08c0.16,1.18,0.52,2.32,0.83,3.46
		c0.35,1.29,0.65,2.59,0.89,3.91c0.23,1.27,0.34,2.56,0.74,3.79c0.1,0.32,0.21,0.63,0.3,0.96c0.18,0.65,0.29,1.33,0.46,1.98
		c0.25,1.02,0.73,2.03,0.86,3.06c0.13,1.08,0.45,2.12,0.72,3.18c0.34,1.36,0.59,2.73,0.74,4.12c0.09,0.8,0.14,1.6,0.29,2.39
		c0.31,1.68,0.39,3.41,0.53,5.11c0.12,1.36,0.23,2.71,0.3,4.07c0.07,1.25,0.1,2.5,0.29,3.74c0.29,1.91,0.83,3.78,1.61,5.54
		c0.39,0.88,0.85,1.77,0.89,2.73c0.02,0.46-0.06,0.92-0.08,1.37c-0.01,0.51,0.09,0.9,0.36,1.32c0.23,0.36,0.6,0.65,0.72,1.08
		c0.07,0.24,0.06,0.49,0.05,0.74c-0.13,2.94,0.01,5.86,0.14,8.82c0.04,0.88,0.07,1.78,0.3,2.63c0.22,0.84,0.73,1.54,0.83,2.4
		c0.08,0.76,0.05,1.21,0.35,1.98c0.35,0.89,0.76,1.78,0.66,2.77c-0.07,0.66-0.36,1.28-0.49,1.94c-0.35,1.79,0.53,3.58,0.56,5.4
		c0.02,1.31-0.39,2.69,0.11,3.91c0.34,0.83,1.07,1.45,1.47,2.26c0.73,1.48,0.31,3.41,1.31,4.72c0.18,0.24,0.42,0.46,0.51,0.75
		c0.31,0.93-0.92,1.8-0.74,2.76c0.13,0.67,0.79,0.91,1.26,1.28c0.59,0.47,0.81,0.83,1.11,1.52c0.21,0.46,0.26,0.97,0.32,1.48
		c0.13,1.21,0.23,2.43,0.32,3.65c0.02,0.3,0.04,0.6,0.07,0.9c0.03,0.23-0.03,0.42-0.05,0.66c-0.11,0.9-0.17,1.78,0.71,2.29
		c0.42,0.25,0.91,0.34,1.4,0.44c1.32,0.26,2.64,0.51,3.97,0.77c0.65,0,1.31,0.3,1.96,0.31c0.63,0.01,1.28-0.16,1.91-0.27
		c0.29-0.05,0.59-0.11,0.83-0.27s0.41-0.48,0.31-0.76c-0.08-0.22-0.31-0.38-0.34-0.62c-0.06-0.48,0.7-0.64,0.87-1.1
		c0.06-0.17,0.03-0.35-0.03-0.52c-0.32-0.88-1.34-1.23-2.22-1.54c-0.88-0.31-1.87-0.87-1.92-1.8c-0.03-0.68,0.51-1.29,1.14-1.55
		c0.64-0.26,1.35-0.23,2.03-0.17s1.38,0.14,2.05-0.01c0.12-0.03,0.25-0.07,0.34-0.15c0.13-0.12,0.17-0.31,0.18-0.49
		c0.11-1.51-1.13-2.82-2.49-3.49c-0.63-0.31-1.31-0.55-1.8-1.05c-0.18-0.18-0.33-0.42-0.3-0.67c0.03-0.24,0.21-0.43,0.41-0.57
		c1.21-0.8,3.06,0,4.18-0.93c0.28-0.23,0.48-0.55,0.65-0.87c1.73-3.25,0.67-7.52,0.38-11.02c-0.13-1.52-0.27-3.04-0.43-4.56
		C73.7,107.07,73.75,106,73.6,105.13z"/>
</g>
<g>
	
		<linearGradient id="SVGID_00000043441422294538249890000007003165886198168198_" gradientUnits="userSpaceOnUse" x1="7.7997" y1="781.2933" x2="137.3324" y2="756.8911" gradientTransform="matrix(1 0 0 1 0 -692)">
		<stop  offset="0" style="stop-color:#000000"/>
		<stop  offset="0.2234" style="stop-color:#10101A;stop-opacity:0.7766"/>
		<stop  offset="0.6978" style="stop-color:#383A5C;stop-opacity:0.3022"/>
		<stop  offset="1" style="stop-color:#545789;stop-opacity:0"/>
	</linearGradient>
	<path style="fill:url(#SVGID_00000043441422294538249890000007003165886198168198_);" d="M117.18,121.27
		c-0.86-1.82-3.62-1.75-4.93-3.28c-0.8-0.93-0.89-2.27-1.46-3.36c-0.57-1.11-1.6-1.91-2.26-2.96c-0.15-0.24-0.28-0.51-0.26-0.78
		c0.04-0.37,0.35-0.65,0.68-0.83c0.66-0.35,1.42-0.43,2.12-0.69s1.39-0.8,1.44-1.54c0.05-0.78-0.6-1.41-0.84-2.15
		c-0.27-0.85,0.02-1.77,0.27-2.63c0.66-2.31,0.97-4.72,0.91-7.12c-0.02-0.73-0.07-1.48-0.38-2.14c-0.83-1.77-3.08-2.26-4.68-3.39
		c-0.33-0.23-0.64-0.51-0.79-0.88c-0.26-0.66,0.07-1.34,0.2-1.99c0.24-1.23-0.34-2.69-0.6-3.88c-0.35-1.61-0.56-3.25-0.6-4.9
		c-0.01-0.22-0.01-0.45-0.11-0.65c-0.09-0.18-0.26-0.32-0.43-0.43c-0.6-0.39-1.32-0.56-1.94-0.93s-1.15-1.05-1-1.75
		c0.19-0.86,1.21-1.19,2.07-1.37c-0.69-1.44-2.08-2.46-2.77-3.91c-1.2-2.52,0.01-5.46,0.52-8.2c0.48-2.58,0.31-5.28-0.5-7.78
		c-0.52-1.62-1.3-3.15-1.81-4.78c-0.48-1.54-0.72-3.14-1.09-4.7c-0.07-0.3-0.19-0.65-0.49-0.75c-0.57-0.18-0.86,0.7-1.38,0.99
		c-0.6,0.33-1.3-0.19-1.74-0.71c-0.52-0.61-0.99-1.27-1.4-1.97c-0.55-0.95-1.25-2.13-2.34-2.04c-0.24,0.02-0.76-2.08-0.8-2.32
		c-0.15-0.81-0.04-1.64-0.05-2.46c-0.02-1.13-0.13-2.25-0.31-3.36c-0.1-0.63-0.47-2.13,0.02-2.64c0.16-0.17,0.4-0.24,0.6-0.35
		c0.86-0.46,1.17-1.51,1.41-2.46c0.05-0.22,0.11-0.46,0.02-0.67c-0.08-0.18-0.25-0.3-0.41-0.41c-0.68-0.45-1.4-0.85-2.15-1.17
		c-0.66-0.29-1.38-0.54-1.85-1.09c-0.62-0.73-0.63-1.8-0.45-2.75c0.08-0.41,0.2-0.84,0.49-1.14c0.48-0.5,1.25-0.52,1.94-0.59
		s1.49-0.33,1.67-1c0.07-0.24,0.04-0.5,0.09-0.75c0.19-0.89,1.25-1.21,2.1-1.54c0.73-0.28,1.43-0.71,1.85-1.37
		c0.76-1.21,0.21-2.25-1.07-2.56c-3.98-0.95-8.04-1.53-12.12-1.75c-1.88-0.1-3.76,0.27-5.64,0.02c-0.87-0.11-1.65-0.52-2.53-0.64
		c-1-0.13-2.02-0.13-2.99-0.41c-0.33-0.1-0.66-0.22-1.01-0.24c-0.57-0.03-1.17,0.24-1.74,0.3c-1.45,0.16-2.92-0.46-4.37-0.5
		c-1.48-0.04-2.89,0.62-4.35,0.76c-1.06,0.1-2.13-0.06-3.18,0.11c-0.35,0.06-0.77,0.27-0.73,0.62c0.02,0.18,0.17,0.31,0.3,0.43
		c0.86,0.76,1.73,1.52,2.59,2.28c0.97,0.85,2.02,1.86,2.07,3.15c0.06,1.4-1.11,2.45-1.17,3.79c-0.02,0.44,0.14,0.88,0.35,1.27
		c0.63,1.16,1.7,2,2.55,3.01s1.51,2.37,1.09,3.62c-0.24,0.7-0.8,1.33-0.74,2.06c0.03,0.29,0.15,0.56,0.27,0.82
		c0.76,1.65,1.53,3.32,2.71,4.7c0.33,0.39,0.7,0.76,0.97,1.2c0.24,0.39,0.39,0.82,0.55,1.25c0.33,0.92,0.65,1.85,0.99,2.77
		c0.3,0.82,0.93,1.52,1.4,2.27c0.52,0.82,1.09,1.76,1.25,2.74c0.29,1.8,1.7,3.31,2.19,5.11c0.2,0.72,0.3,1.47,0.52,2.18
		c0.23,0.75,0.57,1.47,0.91,2.18c2.94,6.17,5.61,12.46,8.02,18.86c0.43,1.14,0.86,2.3,1.05,3.5c0.16,1.02,0.16,2.06,0.35,3.07
		c0.36,1.87,1.33,3.67,1.85,5.53c0.54,1.95,1.06,3.94,2.15,5.67c0.24,0.38,0.5,0.75,0.65,1.17c0.14,0.41,0.16,0.85,0.19,1.28
		c0.24,3.54,1.21,6.97,2.32,10.35c0.26,0.8,0.53,1.61,0.8,2.41c0.31,0.93,0.35,1.2,0.22,2.12c-0.11,0.8,0,1.61,0.37,2.33
		c0.38,0.73,0.99,1.32,1.4,2.04c0.44,0.78,0.63,1.69,0.82,2.57c0.47,2.09,1.05,4.16,1.74,6.19c0.25,0.74,0.54,1.5,1.08,2.07
		c0.55,0.57,1.33,0.91,1.82,1.54c0.65,0.84,0.65,2.02,1.17,2.95c0.29,0.52,0.75,0.99,0.75,1.58c0,0.34-0.16,0.65-0.21,0.98
		c-0.19,1.08,0.65,2.08,0.71,3.17c0.04,0.66-0.16,1.46,0.35,1.88c0.29,0.23,0.7,0.24,1.01,0.45c0.76,0.51,0.39,1.76,0.91,2.51
		c0.49,0.71,1.53,0.7,2.39,0.62c3.46-0.29,6.96-0.24,10.41,0.15c0.81,0.09,1.83,0.48,2.62,0.24c0.29-1.64,0.58-3.28,0.88-4.92
		c0.08-0.42,0.14-0.9-0.13-1.24c-0.13-0.17-0.33-0.27-0.51-0.37c-2.31-1.28-4.19-3.32-5.27-5.73c-0.07-0.16-0.14-0.33-0.11-0.51
		c0.02-0.13,0.1-0.24,0.18-0.34C115.87,124.88,118.17,123.37,117.18,121.27z"/>
</g>
<g>
	<path d="M55.23,8.59c-0.44,0.16-0.91,0.23-1.35,0.4c-0.52,0.19-1.05,0.32-1.59,0.43c-1.16,0.23-2.33,0.38-3.49,0.61
		c-1.08,0.22-2,0.69-3.02,1.07c-0.9,0.34-1.79,0.84-2.72,1.07c-0.67,0.17-1.67,0.04-2.16,0.63c-0.25,0.3-0.27,0.68-0.29,1.06
		c-0.03,0.6-0.05,1.2-0.07,1.8c-0.09,2.4-0.16,4.8-0.17,7.2c-0.01,1.17,0.01,2.35,0.15,3.51c0.12,1.03,0.45,2.03,0.56,3.06
		c0.1,1.03-0.38,1.97-0.21,2.98c0.2,1.15,0.57,2.28,0.82,3.42c0.5,2.33,0.88,4.68,1.38,7.01c0.49,2.27,1.09,4.51,1.72,6.74
		c1.29,4.53,2.09,9.14,2.49,13.83c0.39,4.47,0.02,9.21,1.61,13.47c0.35,0.92,0.63,1.84,1.06,2.73c0.25,0.52,0.46,1.03,0.47,1.62
		c0.01,0.52-0.12,1.04-0.14,1.56c-0.03,0.93,0.35,1.51,0.92,2.2c0.41,0.5,0.46,0.91,0.36,1.55c-0.09,0.55-0.14,1.1-0.14,1.65
		c-0.02,2.24,0.51,4.46,0.23,6.71c-0.13,1.04-0.2,1.93,0.21,2.92c0.21,0.51,0.43,0.99,0.5,1.54c0.06,0.51,0.05,1.03,0.19,1.52
		c0.1,0.4,0.3,0.73,0.53,1.06c0.31,0.44,0.5,0.87,0.62,1.39c0.25,1.02,0.32,2.13,0.09,3.17c-0.21,0.94-0.72,1.74-0.63,2.73
		c0.09,0.94,0.54,1.8,0.67,2.73c0.16,1.09-0.35,2.17-0.13,3.26c0.18,0.9,0.8,1.6,1.3,2.34c0.63,0.93,0.93,1.98,1.14,3.07
		c0.19,0.96,0.19,1.99,0.55,2.91c0.15,0.37,0.37,0.69,0.58,1.03c0.36,0.58,0.22,0.91-0.11,1.45c-0.38,0.6-0.54,1.24-0.14,1.88
		c0.37,0.6,1.05,0.9,1.46,1.46c0.58,0.78,0.78,1.81,0.89,2.76c0.12,1.07,0.19,2.18,0.12,3.26c-0.06,0.98-0.15,1.89,0.29,2.81
		c0.41,0.87,1.04,1.08,1.86,1.45c0.9,0.4,1.81,0.48,2.79,0.56c1.07,0.09,2.15,0,3.22,0.08c1.11,0.08,2.18,0.24,3.28,0.06
		c1.11-0.18,2.18-0.51,3.3-0.64c0.62-0.07,1.32-0.22,1.8-0.63c0.71-0.61,0.33-1.56,0.55-2.35c0.25-0.85,0.92-1.51,1.1-2.39
		c0.37-1.77-0.78-3.42-0.58-5.18c0.12-1.05,0.88-1.9,1.31-2.84c0.43-0.92,0.72-1.9,0.87-2.91c0.33-2.17-0.09-4.35,0.42-6.51
		c0.47-1.99,1.29-3.89,1.49-5.94c0.09-0.94,0.05-1.9-0.21-2.81c-0.12-0.43-0.3-0.85-0.52-1.24c-0.28-0.49-0.69-0.9-0.9-1.43
		c-0.18-0.46-0.23-0.96-0.36-1.43c-0.13-0.48-0.36-0.92-0.62-1.34c-0.22-0.35-0.47-0.68-0.72-1.01c-0.17-0.22-0.35-0.44-0.49-0.68
		c-0.19-0.32-0.14-0.57-0.1-0.93c0.04-0.39-0.04-0.68-0.13-1.05c-0.13-0.51,0.2-0.89,0.26-1.38c0.14-1.07,0.07-2.21,0.09-3.29
		c0.03-1.17,0.11-2.36-0.01-3.53c-0.11-1.11-0.34-2.21-0.54-3.31c-0.22-1.18-0.46-2.36-0.59-3.55c-0.12-1.15-0.08-2.28,0-3.43
		s0.14-2.28-0.01-3.42c-0.14-1.05-0.4-2.08-0.71-3.09c-0.65-2.11-1.5-4.16-1.84-6.35c-0.18-1.18-0.19-2.38-0.32-3.57
		c-0.13-1.18-0.26-2.35-0.33-3.53c-0.15-2.38-0.14-4.75-0.28-7.13c-0.06-1.03,0.03-2.06-0.06-3.08c-0.09-0.99-0.29-1.96-0.31-2.96
		c-0.01-0.52-0.81-0.52-0.81,0c0.01,0.97,0.2,1.9,0.3,2.86c0.11,1.05,0.01,2.12,0.07,3.18c0.14,2.29,0.13,4.58,0.26,6.87
		c0.13,2.25,0.36,4.51,0.59,6.76c0.21,2.09,0.93,4.06,1.58,6.03c0.72,2.17,1.24,4.28,1.11,6.58c-0.06,1.1-0.18,2.19-0.13,3.3
		c0.05,1.06,0.21,2.12,0.4,3.17c0.41,2.27,0.9,4.48,0.85,6.8c-0.03,1.15-0.05,2.3-0.08,3.45c-0.01,0.53,0.03,1.05-0.17,1.56
		c-0.13,0.34-0.23,0.64-0.17,1.02c0.07,0.48,0.18,0.8,0.14,1.3c-0.04,0.4,0,0.71,0.19,1.06c0.45,0.82,1.15,1.47,1.57,2.31
		c0.46,0.92,0.41,1.96,1,2.84c0.59,0.89,1.06,1.7,1.19,2.78c0.24,2.05-0.48,4.02-1.06,5.95c-0.29,0.97-0.55,1.95-0.67,2.95
		c-0.13,1.07-0.03,2.14-0.03,3.21c0,1.06-0.12,2.12-0.41,3.15s-0.79,1.9-1.3,2.82c-0.43,0.76-0.69,1.54-0.64,2.42
		c0.05,0.86,0.3,1.69,0.49,2.52c0.23,1.02,0.24,1.88-0.28,2.8c-0.38,0.67-0.75,1.31-0.8,2.09c-0.03,0.5,0.14,1.06-0.34,1.38
		c-0.32,0.21-0.76,0.29-1.13,0.34c-0.96,0.13-1.88,0.33-2.82,0.54c-1.19,0.27-2.31,0.17-3.51,0.06c-1.04-0.09-2.08-0.01-3.12-0.07
		c-0.54-0.03-1.09-0.08-1.63-0.15c-0.55-0.07-1-0.3-1.5-0.5c-0.42-0.17-0.77-0.29-1.02-0.69c-0.34-0.55-0.44-1.19-0.41-1.83
		c0.1-1.91,0.18-3.9-0.35-5.76c-0.21-0.73-0.54-1.47-1.1-2.01c-0.53-0.51-1.5-0.97-1.05-1.83c0.35-0.68,0.8-1.17,0.51-1.98
		c-0.13-0.36-0.38-0.66-0.57-0.99c-0.27-0.45-0.39-0.95-0.47-1.47c-0.31-1.98-0.59-3.81-1.79-5.47c-0.69-0.96-1.06-1.72-0.89-2.94
		c0.14-0.98,0.2-1.84-0.08-2.81c-0.29-1.03-0.67-1.94-0.3-3.01c0.31-0.88,0.57-1.69,0.59-2.64c0.02-0.91-0.11-1.86-0.39-2.73
		c-0.3-0.93-1-1.52-1.11-2.53c-0.05-0.45-0.05-0.91-0.16-1.35c-0.12-0.49-0.36-0.93-0.54-1.39c-0.41-1.07-0.07-2.15-0.01-3.25
		c0.11-2.18-0.41-4.33-0.28-6.51c0.05-0.91,0.43-1.83-0.09-2.67c-0.2-0.32-0.47-0.58-0.7-0.87c-0.37-0.48-0.4-0.99-0.34-1.58
		c0.1-1.01,0.16-1.82-0.25-2.77c-0.38-0.9-0.74-1.78-1.08-2.7c-0.36-0.99-0.71-1.95-0.9-3c-0.21-1.17-0.32-2.35-0.39-3.54
		c-0.27-4.48-0.47-8.94-1.19-13.38c-0.73-4.46-2.14-8.73-3.17-13.12c-0.52-2.22-0.9-4.47-1.34-6.71c-0.22-1.13-0.46-2.26-0.74-3.38
		c-0.13-0.54-0.31-1.07-0.4-1.62c-0.09-0.57,0.13-1.07,0.21-1.63c0.13-0.97-0.09-1.94-0.29-2.89c-0.24-1.11-0.36-2.22-0.39-3.36
		c-0.07-2.3,0.02-4.6,0.09-6.9c0.04-1.16,0.07-2.32,0.13-3.48c0.02-0.35-0.03-0.65,0.38-0.8c0.17-0.06,0.38-0.05,0.56-0.07
		c0.5-0.06,0.99-0.16,1.47-0.33c0.37-0.13,0.71-0.31,1.07-0.49c0.45-0.22,0.94-0.34,1.4-0.54c1.03-0.44,1.98-0.82,3.09-1.02
		c1.08-0.19,2.17-0.35,3.25-0.57c0.5-0.1,0.99-0.23,1.46-0.41c0.44-0.16,0.91-0.23,1.35-0.4C55.93,9.19,55.72,8.41,55.23,8.59
		L55.23,8.59z"/>
</g>
<g>
	<path d="M61.18,33.22c0.48,1.68,1.45,3.19,2.79,4.31c1.28,1.06,2.82,1.43,4.22,2.27c1.76,1.06,1.77,3.44,2.33,5.23
		c0.3,0.94,0.71,1.74,1.29,2.53c0.61,0.84,0.78,1.91,1.15,2.87c1.67,4.32,3.67,8.49,5.44,12.76c0.86,2.07,1.57,4.19,2.44,6.26
		c0.86,2.04,1.74,4.12,2.32,6.26c0.31,1.13,0.29,2.19,0.38,3.33c0.07,1.01,0.8,1.65,1.21,2.52c0.45,0.96,0.59,2.04,0.82,3.07
		c0.24,1.07,0.55,2.12,0.93,3.15c0.37,1.01,0.83,1.97,1.32,2.92c0.5,0.97,0.98,1.97,1.04,3.08c0.06,1.08-0.12,2.09,0.13,3.16
		c0.25,1.09,0.53,2.18,0.84,3.26c0.61,2.18,1.43,4.28,2.11,6.44c0.16,0.51,0.27,1.02,0.25,1.56c-0.02,0.48-0.1,0.94-0.02,1.42
		c0.18,0.98,0.93,1.74,1.41,2.58c1.09,1.92,1.6,4.19,2.27,6.27c0.59,1.86,0.93,4.11,2.42,5.49c0.34,0.31,0.7,0.6,0.98,0.96
		c0.36,0.46,0.52,1.01,0.64,1.58c0.1,0.45,0.16,0.92,0.34,1.35c0.15,0.37,0.41,0.68,0.6,1.04c0.27,0.51,0.05,0.8-0.02,1.32
		c-0.06,0.42,0.01,0.83,0.14,1.22c0.13,0.41,0.32,0.81,0.46,1.22c0.17,0.52,0.14,0.99,0.15,1.53c0.01,0.82,0.45,1.27,1.06,1.75
		c0.46,0.35,0.71,0.68,0.89,1.23c0.14,0.42,0.26,0.84,0.51,1.21c0.42,0.62,1.03,1.25,1.78,1.41c0.78,0.16,1.56-0.12,2.3-0.32
		c2.16-0.59,4.6-0.56,6.81-0.31c1.14,0.13,2.27,0.35,3.38,0.66c0.55,0.15,1.51,0.6,1.83-0.16c0.14-0.33,0.03-0.76,0.01-1.09
		c-0.05-0.61,0.12-1.02,0.38-1.56c0.4-0.87,0.59-1.85,0.61-2.8c0.03-1.09-0.32-2.17-0.22-3.26c0.05-0.54,0.29-0.99,0.46-1.5
		c0.16-0.46,0.21-0.96,0.18-1.44c-0.05-1.05-0.42-2.06-0.52-3.11c-0.11-1.08,0.03-2.16,0.07-3.24c0.04-1.09-0.11-2.08-0.33-3.14
		c-0.13-0.61-0.15-1.16,0.1-1.75c0.17-0.4,0.36-0.79,0.33-1.24c-0.03-0.38-0.23-0.7-0.44-1c-0.33-0.47-0.57-0.95-0.75-1.49
		c-0.36-1.06-0.68-2.13-1.09-3.17c-0.77-1.97-1.81-3.77-2.71-5.67c-0.51-1.06-0.75-2.14-0.74-3.32c0.01-1.16,0.15-2.31,0.15-3.47
		c0-2.18-0.29-4.36-0.86-6.47c-0.14-0.53-0.28-1.02-0.27-1.58c0.01-0.47,0.01-0.91-0.08-1.38c-0.18-0.98-0.59-1.9-0.87-2.86
		c-0.67-2.26-1.29-4.54-1.93-6.81c-0.28-0.97-0.52-1.97-0.94-2.89c-0.21-0.46-0.52-0.88-0.74-1.34c-0.24-0.51-0.33-1.06-0.36-1.61
		c-0.05-0.93,0.06-1.87-0.1-2.8c-0.07-0.4-0.19-0.78-0.37-1.15c-0.22-0.43-0.56-0.78-0.76-1.22c-0.21-0.46-0.28-0.99-0.42-1.47
		c-0.16-0.54-0.35-1.08-0.49-1.62c-0.31-1.15-0.55-2.34-0.65-3.53c-0.19-2.31,0-4.62-0.29-6.93c-0.57-4.51-2.09-8.85-2.52-13.38
		c-0.21-2.27-0.89-4.51-1.36-6.73c-0.49-2.3-0.95-4.6-1.33-6.92c-0.37-2.28-0.67-4.57-0.86-6.88c-0.07,0.12-0.13,0.23-0.2,0.35
		c1.34-0.67,0.62-2.7,0.48-3.82c-0.13-1.01-0.18-2-0.1-3.01c0.06-0.75,0.05-1.5-0.54-2.06c-0.46-0.44-1.1-0.56-1.71-0.62
		c-0.84-0.09-1.63-0.35-2.46-0.44c-0.46-0.05-0.91,0.01-1.37-0.08c-0.48-0.09-0.96-0.2-1.43-0.32c-1.05-0.25-2.1-0.47-3.16-0.66
		c-4.08-0.73-8.22-1.16-12.37-1.26c-1.02-0.03-2.04-0.02-3.07-0.01c-1.04,0.01-2.08-0.17-3.12-0.24C70.93,7.65,70.45,7.58,70,7.61
		c-0.42,0.03-0.79,0.19-1.21,0.2c-0.97,0.03-1.95-0.04-2.92-0.04c-1.2-0.01-2.43-0.09-3.63-0.01c-1.09,0.08-1.97,0.65-3.09,0.58
		c-1.01-0.07-2.03-0.36-3.03-0.03c-0.47,0.16-0.96,0.28-1.43,0.44c-0.31,0.11-0.66,0.16-0.95,0.32c-0.46,0.25-0.05,0.94,0.41,0.7
		c0.15-0.08,0.37-0.07,0.54-0.12c0.15-0.05,0.27-0.15,0.42-0.2c0.34-0.12,0.69-0.16,1.03-0.29c0.94-0.34,1.8-0.14,2.77-0.04
		c0.74,0.07,1.44,0.03,2.14-0.24c0.99-0.37,1.94-0.33,2.98-0.32c0.96,0.01,1.93,0.01,2.89,0.02c0.79,0.01,1.64,0.13,2.43,0
		c0.45-0.07,0.8-0.18,1.27-0.15c0.42,0.03,0.84,0.06,1.26,0.08c0.92,0.06,1.82,0.21,2.74,0.2c3.83-0.05,7.65,0.18,11.45,0.68
		c1.88,0.25,3.76,0.55,5.62,0.95c0.87,0.19,1.74,0.43,2.62,0.59c0.34,0.06,0.67,0.08,1.02,0.09c0.58,0.01,1.08,0.17,1.64,0.29
		c0.69,0.15,1.46,0.06,2.12,0.32c1.07,0.42,0.66,1.67,0.65,2.55c-0.02,1.02,0.12,2.04,0.26,3.05c0.09,0.62,0.52,1.9-0.19,2.25
		c-0.12,0.06-0.21,0.22-0.2,0.35c0.37,4.51,1.15,8.96,2.08,13.38c0.24,1.13,0.48,2.26,0.74,3.38c0.26,1.16,0.61,2.33,0.71,3.51
		c0.18,2.19,0.63,4.34,1.11,6.48c0.49,2.16,1.01,4.31,1.34,6.5c0.35,2.35,0.22,4.69,0.35,7.05c0.12,2.21,0.77,4.22,1.33,6.34
		c0.1,0.39,0.17,0.8,0.35,1.16c0.2,0.42,0.52,0.76,0.74,1.17c0.48,0.88,0.4,1.93,0.4,2.9c0,0.86,0.03,1.74,0.38,2.53
		c0.21,0.47,0.51,0.89,0.74,1.35c0.25,0.51,0.43,1.05,0.59,1.6c0.63,2.16,1.24,4.34,1.85,6.51c0.29,1.03,0.6,2.05,0.93,3.06
		c0.15,0.46,0.3,0.92,0.39,1.4c0.1,0.54,0.01,1.06,0.04,1.6c0.06,0.98,0.47,1.96,0.67,2.92c0.23,1.14,0.37,2.29,0.43,3.45
		c0.1,2.12-0.39,4.32,0.01,6.42c0.38,2,1.68,3.76,2.52,5.58c0.48,1.04,0.91,2.1,1.28,3.17c0.33,0.95,0.56,1.96,1,2.86
		c0.2,0.41,0.63,0.81,0.75,1.25c0.14,0.52-0.3,1.04-0.42,1.53c-0.23,0.93,0.11,1.85,0.27,2.76c0.19,1.11,0.06,2.25,0,3.36
		c-0.05,1.04,0,2.04,0.22,3.06c0.23,1.11,0.51,2.18,0.08,3.28c-0.38,0.99-0.48,1.84-0.34,2.89c0.13,1.07,0.23,2.11,0,3.18
		c-0.2,0.9-0.83,1.71-0.85,2.64c0,0.19,0.16,1.08,0.05,1.14c-0.1,0.05-0.5-0.15-0.61-0.18c-0.31-0.09-0.63-0.17-0.95-0.25
		c-1.03-0.25-2.07-0.42-3.13-0.53c-2.09-0.21-4.36-0.21-6.41,0.27c-0.78,0.18-1.82,0.71-2.59,0.3c-0.96-0.51-1.15-1.51-1.54-2.41
		c-0.16-0.36-0.37-0.65-0.66-0.91c-0.3-0.26-0.72-0.46-0.94-0.81c-0.28-0.45-0.1-1.03-0.15-1.54c-0.05-0.44-0.2-0.85-0.36-1.25
		c-0.16-0.41-0.35-0.82-0.4-1.25c-0.05-0.45,0.19-0.79,0.21-1.22c0.05-0.82-0.66-1.39-0.9-2.12c-0.3-0.93-0.31-1.91-0.87-2.74
		c-0.52-0.77-1.38-1.23-1.88-2c-0.58-0.88-0.79-2.07-1.11-3.06c-0.34-1.08-0.69-2.17-1.03-3.25c-0.63-1.98-1.24-3.86-2.42-5.58
		c-0.29-0.43-0.59-0.87-0.65-1.4c-0.06-0.53,0.08-1.07,0.04-1.6c-0.08-1.01-0.5-1.95-0.83-2.89c-0.75-2.11-1.41-4.26-1.97-6.44
		c-0.28-1.09-0.6-2.17-0.55-3.3c0.04-1.04,0.06-2.01-0.29-3.01c-0.32-0.92-0.81-1.76-1.23-2.63c-0.5-1.03-0.92-2.09-1.25-3.18
		c-0.58-1.87-0.66-4.05-1.73-5.73c-0.28-0.44-0.63-0.82-0.74-1.34c-0.12-0.57-0.02-1.19-0.07-1.77c-0.09-1.02-0.35-2.01-0.68-2.98
		c-0.7-2.1-1.55-4.13-2.39-6.17c-0.82-1.99-1.5-4.03-2.34-6.01c-0.88-2.06-1.83-4.09-2.73-6.14c-0.94-2.15-1.87-4.33-2.65-6.54
		c-0.3-0.86-0.46-1.73-1-2.48c-0.63-0.87-1.04-1.74-1.33-2.78c-0.46-1.65-0.58-3.72-2.01-4.88c-1.23-0.99-2.86-1.28-4.15-2.18
		c-1.48-1.04-2.55-2.58-3.05-4.31C61.82,32.5,61.04,32.72,61.18,33.22L61.18,33.22z"/>
</g>
<g>
	<path d="M63.66,44.84c-0.2,0-0.37-0.15-0.4-0.35c-0.03-0.22,0.13-0.42,0.35-0.45c1.9-0.25,3.7-1.33,4.82-2.89
		c0.13-0.18,0.38-0.22,0.56-0.09s0.22,0.38,0.09,0.56c-1.24,1.74-3.25,2.95-5.37,3.22C63.7,44.83,63.68,44.84,63.66,44.84z"/>
</g>
<g>
	<path d="M55.71,103.47c1.04,0.77,2.22,1.33,3.47,1.66c0.25,0.07,0.36-0.32,0.11-0.39c-1.22-0.32-2.36-0.87-3.37-1.62
		C55.7,102.97,55.5,103.32,55.71,103.47L55.71,103.47z"/>
</g>
<g>
	<path d="M64.6,104.96c1.3,1,3.07,0.67,4.41-0.06c0.79-0.43,1.51-0.99,2.25-1.49c0.37-0.25,0.76-0.49,1.16-0.69
		c0.41-0.21,0.86-0.32,1.28-0.5c0.48-0.2,0.82-0.56,1.16-0.94c0.4-0.45,0.81-0.9,1.21-1.35c0.17-0.19-0.11-0.48-0.29-0.29
		c-0.33,0.36-0.65,0.73-0.98,1.09c-0.3,0.33-0.58,0.71-0.96,0.95c-0.37,0.24-0.82,0.33-1.22,0.5c-0.37,0.16-0.73,0.34-1.07,0.55
		c-1.38,0.85-2.61,2.02-4.25,2.36c-0.83,0.17-1.74,0.1-2.43-0.43C64.68,104.52,64.39,104.8,64.6,104.96L64.6,104.96z"/>
</g>
<g>
	<path d="M109.26,99.91c1.39,0.62,2.64,1.52,3.66,2.65c0.07-0.11,0.13-0.22,0.2-0.34c-2.1-0.53-4.28-0.72-6.45-0.58
		c-0.26,0.02-0.26,0.42,0,0.4c2.13-0.14,4.27,0.05,6.34,0.57c0.2,0.05,0.33-0.19,0.2-0.34c-1.04-1.16-2.32-2.08-3.74-2.71
		C109.23,99.45,109.03,99.8,109.26,99.91L109.26,99.91z"/>
</g>
<g>
	<path d="M95.55,102.24c1.36,0.88,2.84,1.54,4.39,1.98c0.25,0.07,0.36-0.32,0.11-0.39c-1.52-0.43-2.97-1.08-4.3-1.94
		C95.54,101.75,95.34,102.1,95.55,102.24L95.55,102.24z"/>
</g>
<g>
	<path d="M62.8,135.37c3.38,0.77,6.89,0.97,10.34,0.57c0.97-0.11,1.93-0.27,2.89-0.47c0.25-0.05,0.15-0.44-0.11-0.39
		c-3.33,0.71-6.77,0.85-10.15,0.42c-0.96-0.12-1.92-0.3-2.87-0.51C62.65,134.93,62.55,135.32,62.8,135.37L62.8,135.37z"/>
</g>
<g>
	<path d="M105.07,136.07c3.74-0.84,7.91-1.74,11.51,0.11c0.23,0.12,0.43-0.23,0.2-0.35c-2.8-1.44-6.03-1.3-9.04-0.74
		c-0.93,0.17-1.85,0.38-2.78,0.59C104.71,135.74,104.81,136.12,105.07,136.07L105.07,136.07z"/>
</g>
<g>
	<path d="M104.74,119.88c-0.76,0.07-1.01,0.91-0.99,1.56c0.03,0.88,0.31,1.75,0.71,2.53c0.88,1.66,2.4,2.86,4.13,3.55
		c1.03,0.41,2.13,0.64,3.24,0.75c0.26,0.02,0.26-0.38,0-0.4c-1.72-0.17-3.43-0.67-4.86-1.66c-1.31-0.91-2.33-2.28-2.69-3.85
		c-0.09-0.41-0.17-0.85-0.11-1.27c0.05-0.32,0.19-0.76,0.57-0.8C105,120.26,105,119.85,104.74,119.88L104.74,119.88z"/>
</g>
<g>
	<path d="M101.12,112.88c2.39,0.65,4.81,1.2,7.25,1.64c0.25,0.05,0.36-0.34,0.11-0.39c-2.44-0.44-4.86-0.99-7.25-1.64
		C100.98,112.42,100.87,112.81,101.12,112.88L101.12,112.88z"/>
</g>
<g>
	<path d="M63.58,111c-1.18,0.12-2.34,0.38-3.45,0.78c-0.15,0.05-0.22,0.29-0.05,0.37c1.73,0.86,3.64,1.3,5.57,1.28
		c0.26,0,0.26-0.41,0-0.4c-1.86,0.02-3.7-0.4-5.37-1.23c-0.02,0.12-0.03,0.25-0.05,0.37c1.08-0.39,2.2-0.65,3.34-0.76
		C63.83,111.38,63.84,110.97,63.58,111L63.58,111z"/>
</g>
<g>
	<path d="M53.99,116.13c0.86,1.18,2.07,2.04,3.46,2.47c1.32,0.41,3.31,0.64,3.68,2.27c0.06,0.25,0.45,0.15,0.39-0.11
		c-0.35-1.54-2.02-2.03-3.35-2.38c-0.77-0.2-1.49-0.46-2.16-0.89c-0.65-0.41-1.22-0.95-1.67-1.57
		C54.19,115.72,53.84,115.92,53.99,116.13L53.99,116.13z"/>
</g>
<g>
	<path d="M64.48,128.05c0.7,0.71,1.74,0.69,2.65,0.9c0.47,0.11,0.94,0.28,1.26,0.67c0.34,0.41,0.46,0.98,0.33,1.49
		c-0.06,0.25,0.33,0.36,0.39,0.11c0.14-0.54,0.06-1.11-0.23-1.59c-0.27-0.46-0.7-0.77-1.2-0.94c-0.94-0.33-2.17-0.16-2.92-0.92
		C64.58,127.58,64.3,127.87,64.48,128.05L64.48,128.05z"/>
</g>
<g>
	<path d="M75.22,17.94c2.23,0.51,4.49-0.02,6.64-0.62c1.11-0.31,2.22-0.63,3.35-0.86c1.16-0.24,2.34-0.39,3.53-0.46
		c1.33-0.08,2.67-0.04,4,0.09c0.26,0.03,0.26-0.38,0-0.4c-2.31-0.23-4.64-0.15-6.92,0.25c-2.26,0.39-4.42,1.22-6.67,1.62
		c-1.26,0.22-2.56,0.28-3.82,0C75.08,17.5,74.97,17.89,75.22,17.94L75.22,17.94z"/>
</g>
<g>
	<path d="M89.14,17.82c1.08,0.26,2.2,0.36,3.31,0.3c0.26-0.01,0.26-0.42,0-0.4c-1.08,0.06-2.15-0.04-3.2-0.29
		C88.99,17.37,88.88,17.76,89.14,17.82L89.14,17.82z"/>
</g>
<g>
	<path d="M42.2,15.87c3.67-1.19,7.46-2,11.3-2.4c0.26-0.03,0.26-0.43,0-0.4c-3.88,0.4-7.7,1.21-11.41,2.42
		C41.85,15.56,41.95,15.95,42.2,15.87L42.2,15.87z"/>
</g>
<g>
	<path d="M45.27,14.79c-1.03,0.45-1.95,1.12-2.71,1.95c-0.17,0.19,0.11,0.48,0.29,0.29c0.73-0.81,1.63-1.45,2.62-1.89
		c0.1-0.04,0.12-0.19,0.07-0.28C45.48,14.76,45.37,14.75,45.27,14.79L45.27,14.79z"/>
</g>
<g>
	<path d="M59.25,12.31c3.65,0.26,7.32,0.02,10.97-0.23c3.64-0.24,7.3-0.5,10.95-0.22c2.04,0.16,4.07,0.49,6.03,1.08
		c0.25,0.07,0.36-0.32,0.11-0.39c-3.49-1.03-7.14-1.27-10.76-1.2c-3.69,0.07-7.37,0.45-11.06,0.6c-2.08,0.09-4.15,0.1-6.23-0.05
		C58.99,11.89,58.99,12.29,59.25,12.31L59.25,12.31z"/>
</g>
<g>
	<path d="M84.84,13.77c2.39-0.89,4.91-1.45,7.45-1.63c0.26-0.02,0.26-0.42,0-0.4c-2.59,0.19-5.13,0.74-7.56,1.65
		C84.49,13.47,84.59,13.87,84.84,13.77L84.84,13.77z"/>
</g>
<g>
	<path d="M96.83,17.63c0.69-0.15,1.42,0.23,1.76,0.84c0.19,0.35,0.13,0.77,0.32,1.12c0.17,0.32,0.67,0.5,0.94,0.19
		c0.17-0.2-0.12-0.48-0.29-0.29c-0.09,0.1-0.24,0-0.29-0.09c-0.11-0.18-0.1-0.42-0.14-0.62c-0.07-0.34-0.24-0.66-0.47-0.91
		c-0.48-0.53-1.23-0.79-1.93-0.63C96.47,17.3,96.57,17.69,96.83,17.63L96.83,17.63z"/>
</g>
</svg>
