<?xml version="1.0" encoding="utf-8"?>
<!-- Generator: Adobe Illustrator 28.0.0, SVG Export Plug-In . SVG Version: 6.00 Build 0)  -->
<svg version="1.1" id="Layer_1" xmlns="http://www.w3.org/2000/svg" xmlns:xlink="http://www.w3.org/1999/xlink" x="0px" y="0px"
	 viewBox="0 0 150 150" style="enable-background:new 0 0 150 150;" xml:space="preserve">
<style type="text/css">
	.st0{fill:#CA373B;}
	.st1{fill:url(#SVGID_1_);}
	.st2{fill:url(#SVGID_00000179620545210614443010000000164238751307524523_);}
	.st3{fill:url(#SVGID_00000114068688687952304660000002733593668773131415_);}
	.st4{fill:url(#SVGID_00000012474001569469976090000000059343610800906686_);}
	.st5{fill:#FF6464;}
	.st6{fill:none;}
	.st7{fill:none;stroke:#FF6464;stroke-linecap:round;stroke-linejoin:round;stroke-miterlimit:10;}
	.st8{fill:#FFFFFF;}
	.st9{fill:url(#SVGID_00000087371269675945666270000009403188398539902851_);}
	.st10{fill:none;stroke:#000000;stroke-width:2;stroke-linecap:round;stroke-linejoin:round;stroke-miterlimit:10;}
</style>
<g id="Cryptobro_Cap">
	<g>
		<g>
			<path class="st0" d="M131.83,74.56c-0.14-0.3-0.28-0.6-0.44-0.88c-0.2-0.36-0.44-0.69-0.68-1.02c-0.36-0.51-0.72-1.01-1.09-1.51
				c-1.56-2.15-3.11-4.3-4.67-6.45c-1.18-1.63-2.22-3.24-3.59-4.73c-1.87-2.03-3.74-4.06-5.61-6.09c-1.2-1.3-2.56-2.69-4.32-2.91
				c-0.53-0.07-1.07-0.02-1.6-0.07c-0.51-0.05-1-0.2-1.49-0.35c-2.02-0.61-4.04-1.21-6.06-1.82c-2.96-0.89-5.87-1.86-8.84-2.73
				c-1.56-0.45-3.12-0.91-4.71-1.24c-2.62-0.55-5.3-0.77-7.97-0.99c-1.1-0.09-2.2-0.18-3.3-0.12c-1.36,0.08-2.67,0.4-3.99,0.7
				c-1.28,0.3-2.62,0.37-3.91,0.67c-1.28,0.3-2.51,0.8-3.73,1.29c-1.26,0.51-2.51,1.02-3.73,1.63c-2.79,1.41-5.32,3.35-7.39,5.69
				c-1.18,1.34-2.22,2.8-3.26,4.26c-2.16,3.05-4.33,6.1-6.29,9.28c-0.84,1.37-1.14,3.1-1.48,4.67c-0.38,1.8-0.6,3.64-0.55,5.49
				c-4.44,2.53-9.17,4.56-14.06,6.02c-0.76,0.23-1.52,0.44-2.26,0.72C26,84.4,25.2,84.81,24.4,85.22c-2.02,1.04-4.05,2.11-5.77,3.6
				c-1.95,1.69-3.9,4.44-3.54,7.14c0.25,1.9,1.78,3.76,3.61,4.35c1.55,0.49,3.24,0.2,4.8-0.24c1.05-0.29,2.09-0.65,3.07-1.14
				c0.96-0.48,1.85-1.09,2.83-1.54c0.35-0.18,0.72-0.33,1.1-0.45c2.68-0.87,4.79,0.15,7.43,0.48c1.82,0.23,3.66,0.27,5.48,0.49
				c2.94,0.36,5.8,1.18,8.56,2.25c2.74,1.07,5.32,1.91,8.2,2.55c2.19,0.49,4.49,1.02,6.72,1.19c2.3,0.17,4.66,0.01,6.94-0.28
				c3.36-0.42,6.66-1.22,9.88-2.24c1.21-0.38,2.6-1.27,3.84-1.33c1.56-0.07,3.25,0.49,4.74,0.88c3.51,0.92,7.02,1.83,10.52,2.75
				c2.54,0.66,5.08,1.33,7.67,1.72c5.48,0.83,11.13,0.43,16.5-0.96c2.32-0.6,4.47-1.63,4.99-4.15c0.75-3.67,1.47-7.35,2.13-11.03
				c0.31-1.73,0.62-3.49,0.45-5.24c-0.16-1.72-0.43-3.44-0.79-5.13c-0.31-1.45-1.25-2.89-1.88-4.24
				C131.87,74.64,131.85,74.6,131.83,74.56z"/>
		</g>
		<g>
			
				<linearGradient id="SVGID_1_" gradientUnits="userSpaceOnUse" x1="28.4937" y1="45.0775" x2="31.3045" y2="68.782" gradientTransform="matrix(1 0 0 -1 0 149.8898)">
				<stop  offset="0" style="stop-color:#000000"/>
				<stop  offset="0.2556" style="stop-color:#421213;stop-opacity:0.7444"/>
				<stop  offset="0.5111" style="stop-color:#7C2224;stop-opacity:0.4889"/>
				<stop  offset="0.7289" style="stop-color:#A62D31;stop-opacity:0.2711"/>
				<stop  offset="0.8988" style="stop-color:#C03438;stop-opacity:0.1012"/>
				<stop  offset="1" style="stop-color:#CA373B;stop-opacity:0"/>
			</linearGradient>
			<path class="st1" d="M18.67,93.06c-0.51,0.3-1.02,0.6-1.5,0.95c-0.44,0.32-0.8,0.76-1.18,1.16c-0.64,0.66-0.35,2.05,0.08,2.74
				c0.58,0.94,1.59,1.54,2.62,1.93c0.58,0.22,1.17,0.39,1.78,0.46c2.11,0.24,4.14-0.73,6.08-1.59c2.54-1.12,5.2-2.11,7.98-2.25
				c0.45-0.02,0.91-0.02,1.35,0.08c1.09,0.25,2.08,0.92,3.19,1.13c1.09,0.2,2.23-0.1,3.27-0.38c0.48-0.13,1.05-0.38,1.05-0.87
				c0-0.35-0.31-0.62-0.6-0.82c-2.7-1.86-6.19-2.74-9.34-3.54C30.08,91.2,26.54,91,23.1,91.51c-0.8,0.12-1.6,0.27-2.36,0.55
				C20.02,92.31,19.34,92.67,18.67,93.06z"/>
			
				<linearGradient id="SVGID_00000126325560151522679960000010183713986806738056_" gradientUnits="userSpaceOnUse" x1="60.619" y1="42.0244" x2="38.6638" y2="89.7433" gradientTransform="matrix(1 0 0 -1 0 149.8898)">
				<stop  offset="0" style="stop-color:#000000"/>
				<stop  offset="0.0874" style="stop-color:#2A0B0C;stop-opacity:0.9126"/>
				<stop  offset="0.1912" style="stop-color:#541719;stop-opacity:0.8088"/>
				<stop  offset="0.3006" style="stop-color:#792123;stop-opacity:0.6994"/>
				<stop  offset="0.4148" style="stop-color:#96292C;stop-opacity:0.5852"/>
				<stop  offset="0.535" style="stop-color:#AD2F33;stop-opacity:0.465"/>
				<stop  offset="0.6643" style="stop-color:#BD3437;stop-opacity:0.3357"/>
				<stop  offset="0.8089" style="stop-color:#C7363A;stop-opacity:0.1911"/>
				<stop  offset="1" style="stop-color:#CA373B;stop-opacity:0"/>
			</linearGradient>
			<path style="fill:url(#SVGID_00000126325560151522679960000010183713986806738056_);" d="M22.75,90.16
				c1.54-0.57,3.2-0.86,4.83-1.12c1.45-0.23,2.92-0.45,4.39-0.47c1.49-0.02,2.78,0.29,4.2,0.7c2.38,0.7,4.58,1.76,6.97,2.49
				c2.51,0.76,5.08,1.37,7.67,1.82c5.23,0.9,10.58,1.16,15.87,0.73c-0.91-0.81-2.25-0.84-3.37-1.32c-1.31-0.56-2.29-1.81-2.54-3.21
				c-0.12-0.7-0.06-1.47,0.36-2.04c0.69-0.96,2.05-1.07,3.23-1.14c3.99-0.22,7.96-0.95,11.9-1.61c2.04-0.34,4.06-0.78,6.05-1.3
				c0.97-0.26,1.94-0.53,2.9-0.83c0.41-0.13,2.37-1.08,2.7-0.91c-5.18-2.69-10.63-3.85-16.24-5.17c-4.3-1.01-8.98-2.26-13.43-2.26
				c-4.23-0.31-8.58-0.12-12.55,1.38c-1.72,0.65-3.34,1.54-4.98,2.38c-4.19,2.17-8.51,4.09-12.92,5.76
				c-2.77,1.05-5.62,2.01-8.02,3.74c-1.88,1.34-3.49,3.24-4.13,5.49c-0.09,0.3-0.47,1.4-0.17,1.64c0.4,0.32,2.19-1.31,2.53-1.6
				c0.87-0.72,1.71-1.49,2.67-2.1C21.31,90.76,22.02,90.43,22.75,90.16z"/>
			
				<linearGradient id="SVGID_00000032625080664108449430000006222946864815831709_" gradientUnits="userSpaceOnUse" x1="98.2314" y1="64.4528" x2="38.6428" y2="113.9949" gradientTransform="matrix(1 0 0 -1 0 149.8898)">
				<stop  offset="0" style="stop-color:#000000"/>
				<stop  offset="4.436672e-03" style="stop-color:#020101;stop-opacity:0.9956"/>
				<stop  offset="0.0967" style="stop-color:#310D0E;stop-opacity:0.9033"/>
				<stop  offset="0.1936" style="stop-color:#5A181A;stop-opacity:0.8064"/>
				<stop  offset="0.296" style="stop-color:#7C2224;stop-opacity:0.704"/>
				<stop  offset="0.4039" style="stop-color:#992A2D;stop-opacity:0.5961"/>
				<stop  offset="0.5193" style="stop-color:#AF3033;stop-opacity:0.4807"/>
				<stop  offset="0.6456" style="stop-color:#BE3438;stop-opacity:0.3544"/>
				<stop  offset="0.7912" style="stop-color:#C7363A;stop-opacity:0.2088"/>
				<stop  offset="1" style="stop-color:#CA373B;stop-opacity:0"/>
			</linearGradient>
			<path style="fill:url(#SVGID_00000032625080664108449430000006222946864815831709_);" d="M57.69,74.41
				c-3.3-0.22-6.71-0.24-9.78,0.99c-0.92,0.37-3.61,2.18-4.55,1.31c-0.39-0.36-0.06-0.9,0.09-1.29c0.29-0.77,0.46-1.55,0.62-2.36
				c0.35-1.76,0.6-3.54,1.18-5.24c0.69-2.01,1.8-3.84,3.01-5.58c1.91-2.75,4.07-5.33,6.45-7.69c3.94-3.9,8.57-7.26,13.88-8.86
				c4.65-1.4,9.6-1.39,14.45-1.23c3.3,0.11,6.61,0.29,9.87,0.84c1.28,0.22,2.75,0.64,3.25,1.84c0.35,0.84,0.1,1.84-0.42,2.59
				s-1.27,1.3-2,1.85c-4.91,3.64-9.7,7.48-14,11.82c-1.71,1.72-3.46,3.85-3.2,6.27c0.1,0.97,0.53,1.87,0.99,2.73
				c0.63,1.18,1.33,2.32,2.09,3.42c0.73,1.04,1.64,1.9,2.28,2.98c0.07,0.12,0.12,0.31,0,0.38c-0.04,0.02-0.09,0.02-0.14,0.02
				c-1.83-0.14-3.64-0.5-5.38-1.08c-1.15-0.38-2.27-0.84-3.41-1.23c-2.49-0.84-5.14-1.27-7.72-1.65
				C62.75,74.84,60.23,74.57,57.69,74.41z"/>
			
				<linearGradient id="SVGID_00000002345094207899174830000010482585288658482835_" gradientUnits="userSpaceOnUse" x1="113.7832" y1="67.2197" x2="148.7542" y2="80.5639" gradientTransform="matrix(1 0 0 -1 0 149.8898)">
				<stop  offset="0" style="stop-color:#000000"/>
				<stop  offset="4.818618e-03" style="stop-color:#050101;stop-opacity:0.9952"/>
				<stop  offset="0.0504" style="stop-color:#2E0C0D;stop-opacity:0.9496"/>
				<stop  offset="0.1008" style="stop-color:#531718;stop-opacity:0.8992"/>
				<stop  offset="0.1565" style="stop-color:#731F22;stop-opacity:0.8435"/>
				<stop  offset="0.218" style="stop-color:#8F272A;stop-opacity:0.782"/>
				<stop  offset="0.2874" style="stop-color:#A52D30;stop-opacity:0.7126"/>
				<stop  offset="0.3685" style="stop-color:#B63135;stop-opacity:0.6315"/>
				<stop  offset="0.4688" style="stop-color:#C13538;stop-opacity:0.5312"/>
				<stop  offset="0.6095" style="stop-color:#C8363A;stop-opacity:0.3905"/>
				<stop  offset="1" style="stop-color:#CA373B;stop-opacity:0"/>
			</linearGradient>
			<path style="fill:url(#SVGID_00000002345094207899174830000010482585288658482835_);" d="M116.58,57.14
				c0.33,1,0.17,2.1,0.28,3.15c0.09,0.83,0.36,1.63,0.64,2.41c2.91,8.04,7.86,15.61,8.2,24.16c0.01,0.26,0.01,0.53-0.1,0.75
				c-0.14,0.27-0.43,0.44-0.7,0.59c-2.23,1.3-4,3.39-4.91,5.81c2.04,1.18,4.39,1.75,6.44,2.91s3.89,3.22,3.72,5.57
				c0.5,0.18,1.08-0.1,1.41-0.52s0.47-0.95,0.61-1.47c1.16-4.5,2.33-9.02,2.7-13.65c0.11-1.44,0.15-2.91-0.13-4.33
				c-0.19-1.01-0.54-1.98-0.91-2.94c-3.09-8.01-7.9-15.35-13.98-21.41c-0.85-0.85-1.72-1.81-2.69-2.52
				C115.77,54.64,116.3,56.28,116.58,57.14z"/>
		</g>
		<g>
			<path class="st5" d="M64.62,47.31c-8.36,4.93-15.74,12.36-19.33,21.5c-0.41,1.04-0.74,2.1-1.04,3.17
				c-0.13,0.05-0.25,0.15-0.23,0.33c0.01,0.11,0.03,0.23,0.04,0.34c-0.02,0.08-0.05,0.15-0.06,0.23c-0.23,0.97-0.88,2.51-0.37,3.45
				c0.02,0.03,0.05,0.04,0.07,0.06c0.09,0.34,0.55,0.57,0.81,0.25c0.83-0.98,1.62-2.2,1.13-3.53c-0.23-0.62-0.49-1.13-0.45-1.81
				c0-0.01,0-0.01,0-0.02c0.44-1.36,0.97-2.7,1.58-4c1.28-2.72,2.91-5.28,4.81-7.61c3.8-4.65,8.5-8.27,13.5-11.55
				C65.6,47.79,65.15,47,64.62,47.31z"/>
			<path class="st5" d="M65.26,75.49c-1.59-0.35-3.25-0.52-4.85-0.8c-1.55-0.27-3.2-0.34-4.77-0.32c-3.21,0.04-6.27,0.48-9.23,1.77
				c-2.99,1.3-5.78,3.03-8.77,4.33c-2.97,1.29-6.02,2.36-9.03,3.55c-3.16,1.24-6.66,2.51-9.24,4.78c-0.1,0.09,0.01,0.27,0.13,0.23
				c2.86-1.07,5.59-2.45,8.46-3.53c2.89-1.08,5.81-2.1,8.67-3.29c2.88-1.2,5.52-2.76,8.28-4.17c2.94-1.5,6.08-2.45,9.39-2.65
				c1.81-0.11,3.65-0.05,5.47,0.06c0.87,0.05,1.72,0.02,2.59,0.11c0.96,0.1,1.91,0.25,2.87,0.3C65.43,75.88,65.48,75.54,65.26,75.49
				z"/>
			<path class="st5" d="M18.97,89.26c-0.3,0.13-0.57,0.23-0.84,0.41c-0.26,0.17-0.49,0.37-0.71,0.6c-0.44,0.44-0.78,0.96-1.1,1.48
				c-0.33,0.53-0.59,1.1-0.76,1.71c-0.18,0.62-0.34,1.31-0.15,1.94c0.13,0.42,0.72,0.42,0.85,0c0.17-0.54,0.15-1.12,0.27-1.67
				c0.12-0.54,0.28-1.1,0.52-1.6c0.23-0.5,0.56-0.96,0.9-1.39c0.36-0.45,0.74-0.92,1.15-1.32C19.19,89.34,19.07,89.22,18.97,89.26z"
				/>
			<path class="st6" d="M63.28,52.23c0.01,0,0.01-0.02,0-0.02"/>
			<path class="st5" d="M102.78,48.49c-5.31-1.98-10.92-3.4-16.53-4.14c-2.79-0.37-5.61-0.53-8.43-0.36
				c-1.38,0.08-2.76,0.24-4.13,0.46c-0.82,0.14-1.65,0.3-2.44,0.58c0.14-0.28,0.03-0.67-0.36-0.63c-2.09,0.23-4.09,1.7-5.37,3.31
				c-0.7,0.88-1.23,1.84-1.62,2.89c-0.2,0.53-0.31,1.08-0.44,1.63c-0.06,0.26-0.13,0.53-0.16,0.8c-0.04,0.31,0.01,0.6-0.01,0.91
				c0,0.03,0.04,0.04,0.05,0.01c0.06-0.25,0.19-0.47,0.26-0.72c0.08-0.24,0.14-0.49,0.21-0.74c0.16-0.53,0.39-1,0.63-1.49
				c0.45-0.95,1.03-1.86,1.72-2.65c0.63-0.73,1.35-1.38,2.16-1.9c0.52-0.33,1.1-0.58,1.68-0.81c-0.88,0.58-1.55,1.47-1.92,2.46
				c-0.45,1.18-0.88,2.35-1.34,3.52c-0.01,0.03,0.04,0.05,0.06,0.02c0.77-1.15,1.21-2.4,2.12-3.46c1-1.16,2.2-1.8,3.68-2.17
				c3.24-0.8,6.68-0.86,10-0.67c0.04,0,0.08,0.01,0.12,0.01c1.35,0.44,2.55,1.41,4,1.63c0.85,0.13,1.68,0,2.52-0.08
				c0.08,0.01,0.17,0.03,0.25,0.05c0.34,0.05,0.68,0.07,1.02,0.11c0.87,0.08,1.72,0.21,2.59,0.32c0.79,0.11,1.61,0.19,2.41,0.22
				c0.03,0,0.06,0,0.09,0.01c2.32,0.55,4.64,1.12,6.99,1.59C103.05,49.29,103.22,48.65,102.78,48.49z"/>
			<path class="st5" d="M116.17,56.93c-0.65-2.06-2.13-5.43-4.81-5.06c-0.38,0.05-0.28,0.67,0.09,0.67
				c2.56-0.03,3.74,3.66,4.22,5.68c0.57,2.38,0.73,4.88,0.69,7.32c-0.05,2.71-0.07,5.37-0.32,8.08c-0.25,2.68-1.01,5.43-1.77,8.01
				c-0.41,1.38-0.67,2.79-1.09,4.17c-0.23,0.74-0.47,1.45-0.77,2.17c-0.31,0.76-0.71,1.78-1.32,2.35c-0.64,0.6,0.76,1.44,0.9,0.37
				c0.09-0.7,0.51-1.5,0.76-2.15c0.28-0.72,0.52-1.44,0.79-2.16c0.5-1.33,0.98-2.72,1.33-4.1c0.73-2.89,1.43-5.77,1.83-8.73
				c0.2-1.47,0.17-2.94,0.23-4.42c0.07-1.48,0.09-2.95,0.07-4.43C116.98,62.05,116.97,59.46,116.17,56.93z"/>
			<path class="st5" d="M134.88,82.14c-0.02-0.04-0.05-0.06-0.09-0.06c0.1-2.56-1.4-4.98-2.84-6.98c-1.64-2.27-3.26-4.56-4.85-6.87
				c-1.58-2.29-3.16-4.59-4.85-6.81c-0.8-1.04-1.64-2.05-2.51-3.03c-0.96-1.08-1.93-2.23-3.07-3.12c-0.4-0.31-0.89,0.16-0.56,0.56
				l0,0c0,0.01,0,0.02,0,0.04c0.2,0.48,0.23,1.01,0.44,1.49c0.2,0.46,0.58,0.79,1.02,1.02c0.21,0.12,0.44,0.24,0.67,0.32
				c0.23,0.07,0.44,0.14,0.66,0.25c0.83,0.99,1.61,2.01,2.39,3.03c1.64,2.13,3.16,4.35,4.69,6.56c1.5,2.18,3.01,4.36,4.62,6.46
				c1.77,2.3,3.43,4.54,3.65,7.53c0.02,0.22,0.22,0.28,0.37,0.21c0.06,1.59-0.4,3.09-0.85,4.63c-0.5,1.7-1.04,3.39-1.61,5.07
				c-0.55,1.62-0.79,3.18-0.84,4.88c-0.05,1.78-0.15,3.42-1.11,4.97c-0.28,0.45,0.37,0.96,0.74,0.57c1.12-1.2,1.36-2.83,1.44-4.42
				c0.05-0.96,0.01-1.93,0.1-2.89c0.09-1.03,0.36-2.02,0.65-3.01c0.54-1.81,1.02-3.61,1.43-5.45
				C134.92,85.56,135.57,83.68,134.88,82.14z"/>
			<path class="st5" d="M109.87,90.33c-2.24-0.89-4.63-1.44-6.9-2.26c-2.34-0.85-4.65-1.81-6.95-2.76c-2.33-0.96-4.68-1.86-7.02-2.8
				c-2.38-0.97-4.71-2.09-7.15-2.9c-0.1-0.03-0.16,0.11-0.07,0.16c2.26,1.24,4.67,2.17,7.01,3.23c2.28,1.03,4.55,2.08,6.85,3.05
				c2.25,0.95,4.51,1.89,6.79,2.79c1.35,0.53,2.76,1.11,4.19,1.57l0,0c0.09,0.07,0.17,0.14,0.27,0.2c-0.06-0.04,0,0,0.01,0.01
				c0.02,0.02,0.03,0.03,0.05,0.05c0,0,0.03,0.04,0.04,0.04l0.01,0.01c0.01,0.02,0.02,0.04,0.03,0.06c0.04,0.06-0.02-0.07,0,0
				c0.01,0.02,0.01,0.04,0.02,0.07l0,0c0,0,0,0,0,0.01v0.03c0,0.04,0,0.03,0-0.02c0,0.02-0.01,0.06-0.02,0.08
				c0,0.01-0.01,0.02-0.01,0.02c-0.01,0.04-0.01,0.03,0.01-0.01c0,0.02-0.03,0.05-0.04,0.07l0.01,0.02
				c-0.02,0.03-0.02,0.03,0.01-0.01c-0.01,0.02-0.04,0.05-0.05,0.06c-0.02,0.02-0.04,0.04-0.06,0.05c-0.06,0.05,0.07-0.04-0.01,0
				c-0.09,0.06-0.18,0.12-0.28,0.17c-0.06,0.04-0.12,0.07-0.18,0.11s-0.11,0.09-0.17,0.13c-0.12,0.1-0.14,0.33-0.06,0.45
				c0.09,0.15,0.25,0.21,0.42,0.17c0.1-0.02,0.19-0.04,0.29-0.09c0.06-0.03,0.12-0.06,0.18-0.09c0.14-0.08,0.26-0.18,0.36-0.31
				c0.22-0.27,0.35-0.62,0.28-0.97c0.18,0.05,0.37,0.09,0.56,0.13l-0.01,0.01c-0.02,0.03-0.03,0.07-0.04,0.11
				c-0.01,0.03-0.01,0.05,0,0.08c0,0.04,0.01,0.08,0.04,0.11c0.03,0.04,0.06,0.08,0.11,0.11c0.03,0.02,0.07,0.03,0.11,0.04
				s0.08,0.01,0.12-0.01c0.04-0.01,0.07-0.03,0.11-0.05c0.03-0.02,0.06-0.05,0.1-0.07c0.04-0.04,0.08-0.08,0.11-0.13
				c0.01-0.01,0.02-0.03,0.02-0.04s0.01-0.02,0.01-0.03c0.22,0.04,0.45,0.09,0.67,0.12C110.18,91.22,110.38,90.54,109.87,90.33z"/>
			<path class="st7" d="M45.2,92.49c-0.05-0.11,14.76,6.91,19.37,7.21c0,0,8.78,1.94,17.28-1.56"/>
		</g>
		<g>
			<g>
				<path d="M41.84,78.48c3.55-2.48,7.76-3.54,12.04-3.66c4.62-0.13,9.34,0.45,13.88,1.26c9.49,1.7,18.37,5.31,27.29,8.86
					c5.18,2.06,10.37,4.12,15.55,6.18c0.3,0.12,0.43-0.36,0.13-0.48c-4.72-1.87-9.44-3.75-14.16-5.62
					c-4.57-1.81-9.12-3.68-13.74-5.34c-8.92-3.19-18.44-5.35-27.95-5.36c-4.71-0.01-9.4,1.02-13.3,3.74
					C41.32,78.23,41.57,78.66,41.84,78.48L41.84,78.48z"/>
			</g>
		</g>
		<g>
			<g>
				<path d="M110.52,51.91c2.22,1.07,3.11,3.58,3.65,5.82c0.63,2.65,0.78,5.39,0.68,8.1c-0.19,5.36-1.11,10.74-2.47,15.92
					c-0.78,2.96-1.72,5.88-2.83,8.74c-0.12,0.3,0.37,0.43,0.48,0.13c2.05-5.31,3.55-10.83,4.45-16.46
					c0.86-5.38,1.45-11.08,0.2-16.45c-0.56-2.4-1.53-5.09-3.91-6.23C110.49,51.34,110.23,51.77,110.52,51.91L110.52,51.91z"/>
			</g>
		</g>
		<g>
			<g>
				<path d="M114.48,52.89c1.41,2.03,1.77,4.62,1.98,7.02c0.21,2.52,0.28,5.05,0.2,7.57c-0.15,5.15-0.9,10.27-2.22,15.25
					c-0.74,2.78-1.65,5.5-2.74,8.16c-0.12,0.3,0.36,0.43,0.48,0.13c3.93-9.67,5.61-20.24,4.81-30.66c-0.2-2.64-0.53-5.5-2.08-7.73
					C114.72,52.37,114.29,52.62,114.48,52.89L114.48,52.89z"/>
			</g>
		</g>
		<g>
			<g>
				<path d="M63.67,51.19c0.59-1.27,1.36-2.46,2.3-3.5c0.88-0.98,1.92-1.86,3.16-2.36c0.29-0.12,0.17-0.6-0.13-0.48
					c-2.63,1.06-4.59,3.58-5.76,6.09C63.1,51.23,63.53,51.49,63.67,51.19L63.67,51.19z"/>
			</g>
		</g>
		<g>
			<g>
				<path d="M68.02,48.04c0.29-0.46,0.61-0.91,0.97-1.33c0.33-0.4,0.68-0.8,1.1-1.09c0.78-0.53,1.79-0.51,2.53-1.12
					c0.25-0.21-0.11-0.56-0.35-0.35c-0.37,0.31-0.85,0.41-1.29,0.54c-0.47,0.14-0.91,0.32-1.31,0.63c-0.84,0.65-1.51,1.58-2.07,2.48
					C67.41,48.06,67.85,48.31,68.02,48.04L68.02,48.04z"/>
			</g>
		</g>
		<g>
			<g>
				<path d="M17.06,90.95c1.78-1.32,4.17-2.09,6.32-2.52c2.14-0.42,4.34-0.46,6.51-0.26c3.95,0.35,7.81,1.46,11.48,2.94
					c0.3,0.12,0.43-0.36,0.13-0.48c-5.92-2.39-12.82-4.06-19.16-2.47c-1.89,0.47-3.96,1.19-5.54,2.37
					C16.56,90.71,16.8,91.15,17.06,90.95L17.06,90.95z"/>
			</g>
		</g>
		<g>
			<g>
				<path d="M58.05,60.83c-0.08,0.06-0.24,0.12-0.47,0.18c-0.02,0.03-0.03,0.07-0.05,0.1h0.01c-0.01,0.01-0.01,0.02-0.02,0.04h0.01
					c-0.01,0.01-0.01,0.02-0.02,0.04h0.01c-0.01,0.01-0.01,0.02-0.02,0.04h0.01c-0.01,0.01-0.01,0.02-0.02,0.04
					c0.54-0.1,1.08-0.19,1.61-0.27c0.02-0.03,0.03-0.07,0.05-0.1c-0.01,0-0.01,0-0.01,0c0.01-0.01,0.01-0.02,0.02-0.03
					c-0.01,0-0.01,0-0.01,0c0.01-0.01,0.01-0.02,0.02-0.03c-0.01,0-0.01,0-0.01,0c0.01-0.01,0.01-0.02,0.02-0.03
					c-0.01,0-0.01,0-0.01,0c0.01-0.01,0.01-0.02,0.02-0.03c-0.24,0.03-0.39,0.02-0.44-0.01c-0.02-0.01-0.01-0.03-0.01-0.05
					c0.05-0.07,0.12-0.17,0.25-0.3c0.21-0.22,0.43-0.44,0.64-0.66c0.66-0.11,1.32-0.2,1.98-0.29c0.02,0.17,0.03,0.34,0.05,0.51
					c0,0.09,0,0.19-0.02,0.24c-0.03,0.06-0.09,0.12-0.18,0.17s-0.24,0.09-0.45,0.13c-0.02,0.03-0.03,0.07-0.05,0.1h0.01
					c-0.01,0.01-0.01,0.02-0.02,0.04h0.01c-0.01,0.01-0.01,0.02-0.02,0.04h0.01c-0.01,0.01-0.01,0.02-0.02,0.04h0.01
					c-0.01,0.01-0.01,0.02-0.02,0.04c0.68-0.09,1.35-0.16,2.03-0.23c0.02-0.03,0.03-0.07,0.05-0.1h-0.01
					c0.01-0.01,0.01-0.02,0.02-0.03H63c0.01-0.01,0.01-0.02,0.02-0.03h-0.01c0.01-0.01,0.01-0.02,0.02-0.03h-0.01
					c0.01-0.01,0.01-0.02,0.02-0.03c-0.21,0.01-0.35-0.01-0.43-0.08c-0.08-0.06-0.13-0.22-0.16-0.45c-0.09-0.99-0.18-1.97-0.27-2.95
					c-0.04,0.01-0.09,0.01-0.13,0.02c-1.1,1.14-2.2,2.28-3.31,3.42C58.45,60.51,58.22,60.72,58.05,60.83z M61.6,59.11
					c-0.53,0.07-1.07,0.15-1.6,0.23c0.49-0.51,0.99-1.01,1.48-1.52C61.52,58.25,61.56,58.68,61.6,59.11z"/>
				<path d="M69.91,59.36c-0.09,0.19-0.16,0.31-0.22,0.37c-0.06,0.06-0.13,0.11-0.23,0.14c-0.13,0.04-0.25,0.07-0.38,0.07
					c-0.06,0-0.12,0-0.18,0c-0.02,0.04-0.03,0.07-0.05,0.11h0.01c-0.01,0.01-0.01,0.02-0.02,0.03h0.01
					c-0.01,0.01-0.01,0.02-0.02,0.03h0.01c-0.01,0.01-0.01,0.02-0.02,0.03h0.01c-0.01,0.01-0.01,0.02-0.02,0.03
					c1.32-0.01,2.64,0.02,3.96,0.09c0.29-0.32,0.59-0.64,0.88-0.95c-0.01,0-0.02,0-0.03,0c0.01-0.01,0.02-0.02,0.03-0.03
					c-0.01,0-0.02,0-0.03,0c0.01-0.01,0.02-0.02,0.03-0.03c-0.01,0-0.02,0-0.03,0c0.01-0.01,0.02-0.02,0.03-0.03
					c-0.01,0-0.02,0-0.03,0c0.01-0.01,0.02-0.02,0.03-0.03c-0.05,0-0.1-0.01-0.15-0.01c-0.27,0.23-0.51,0.4-0.72,0.51
					c-0.16,0.08-0.32,0.14-0.46,0.16s-0.36,0.03-0.65,0.02s-0.58-0.02-0.87-0.02c-0.14,0-0.23-0.02-0.27-0.04
					c-0.03-0.02-0.04-0.04-0.05-0.07c0.02-0.05,0.05-0.12,0.08-0.2c0.19-0.43,0.39-0.85,0.58-1.28c0.38,0,0.75,0.01,1.13,0.02
					c0.21,0.01,0.36,0.03,0.45,0.07s0.14,0.1,0.15,0.17c0,0.01,0,0.02,0,0.03c-0.01,0.06-0.02,0.12-0.04,0.2l0,0
					c0,0.01,0,0.02-0.01,0.03l0,0c0,0.01,0,0.02-0.01,0.03l0,0c0,0.01,0,0.02-0.01,0.03l0,0c0,0.01,0,0.02-0.01,0.03
					c0.05,0,0.09,0,0.14,0.01c0.2-0.45,0.41-0.91,0.61-1.36h-0.01c0-0.01,0.01-0.02,0.01-0.03h-0.01c0-0.01,0.01-0.02,0.01-0.03
					h-0.01c0-0.01,0.01-0.02,0.01-0.03h-0.01c0-0.01,0.01-0.02,0.01-0.03c-0.05,0-0.09,0-0.14-0.01c-0.12,0.22-0.26,0.38-0.43,0.46
					c-0.13,0.06-0.34,0.09-0.63,0.08c-0.36-0.01-0.72-0.02-1.08-0.02c0.21-0.47,0.42-0.94,0.64-1.41c0.47,0,0.94,0.01,1.4,0.03
					c0.25,0.01,0.42,0.03,0.51,0.06c0.11,0.05,0.18,0.11,0.21,0.19c0.01,0.04,0.02,0.09,0.02,0.15c-0.01,0.05-0.01,0.09-0.02,0.15
					l0,0c0,0.01,0,0.02,0,0.03l0,0c0,0.01,0,0.02,0,0.03l0,0c0,0.01,0,0.02,0,0.03l0,0c0,0.01,0,0.02,0,0.03c0.05,0,0.1,0,0.15,0.01
					c0.11-0.29,0.22-0.57,0.33-0.86h-0.01c0-0.01,0.01-0.02,0.01-0.03h-0.01c0-0.01,0.01-0.02,0.01-0.03h-0.01
					c0-0.01,0.01-0.02,0.01-0.03h-0.01c0-0.01,0.01-0.02,0.01-0.03c-1.31-0.06-2.63-0.08-3.95-0.06c-0.02,0.04-0.03,0.07-0.05,0.11
					h0.01c-0.01,0.01-0.01,0.02-0.02,0.03h0.01c-0.01,0.01-0.01,0.02-0.02,0.03h0.01c-0.01,0.01-0.01,0.02-0.02,0.03h0.01
					c-0.01,0.01-0.01,0.02-0.02,0.03c0.06,0,0.12,0,0.18,0c0.21,0,0.35,0.03,0.4,0.11c0.01,0.01,0,0.04,0,0.06
					c-0.02,0.07-0.05,0.15-0.1,0.26C70.68,57.68,70.29,58.52,69.91,59.36z"/>
				<path d="M81.7,60.48c-0.1,0.24-0.2,0.38-0.29,0.43c-0.14,0.08-0.31,0.1-0.52,0.06c-0.06-0.01-0.12-0.02-0.18-0.03
					c-0.02,0.04-0.03,0.07-0.05,0.11h0.01c0,0.01-0.01,0.02-0.01,0.03h0.01c0,0.01-0.01,0.02-0.01,0.03h0.01
					c0,0.01-0.01,0.02-0.01,0.03h0.01c0,0.01-0.01,0.02-0.01,0.03c0.72,0.13,1.44,0.27,2.15,0.43c0.02-0.04,0.03-0.07,0.05-0.11
					h-0.01c0-0.01,0.01-0.02,0.01-0.03h-0.01c0-0.01,0.01-0.02,0.01-0.03h-0.01c0-0.01,0.01-0.02,0.01-0.03h-0.01
					c0-0.01,0.01-0.02,0.01-0.03c-0.06-0.01-0.12-0.03-0.18-0.04c-0.12-0.03-0.22-0.07-0.31-0.14c-0.06-0.05-0.08-0.09-0.09-0.14
					c0.02-0.07,0.05-0.17,0.1-0.29c0.37-0.86,0.75-1.72,1.12-2.58c0.1-0.24,0.2-0.39,0.29-0.44c0.14-0.08,0.31-0.1,0.51-0.06
					c0.06,0.01,0.12,0.02,0.18,0.04c0.02-0.04,0.03-0.07,0.05-0.11h-0.01c0-0.01,0.01-0.02,0.01-0.03h-0.01
					c0-0.01,0.01-0.02,0.01-0.03h-0.01c0-0.01,0.01-0.02,0.01-0.03h-0.01c0-0.01,0.01-0.02,0.01-0.03
					c-0.71-0.15-1.43-0.28-2.15-0.41c-0.02,0.04-0.03,0.07-0.05,0.11h0.01c0,0.01-0.01,0.02-0.01,0.03h0.01
					c0,0.01-0.01,0.02-0.01,0.03h0.01c0,0.01-0.01,0.02-0.01,0.03h0.01c0,0.01-0.01,0.02-0.01,0.03c0.06,0.01,0.12,0.02,0.18,0.03
					c0.12,0.02,0.22,0.06,0.31,0.13c0.06,0.04,0.08,0.09,0.09,0.14c-0.02,0.07-0.05,0.17-0.1,0.29
					C82.45,58.77,82.08,59.63,81.7,60.48z"/>
				<path d="M88.69,60.83c-0.11,0.26-0.17,0.51-0.17,0.75c0,0.01,0,0.02,0,0.03s0,0.02,0,0.03s0,0.02,0,0.03
					c-0.01,0.25,0.02,0.5,0.11,0.74c0.23,0.64,0.75,1.09,1.55,1.37c0.44,0.16,0.86,0.21,1.25,0.16s0.79-0.21,1.18-0.48
					c-0.01-0.01-0.01-0.01-0.02-0.02c0.01,0,0.01-0.01,0.02-0.01c-0.01-0.01-0.01-0.01-0.02-0.02c0.01,0,0.01-0.01,0.02-0.01
					c-0.01-0.01-0.01-0.01-0.02-0.02c0.01,0,0.01-0.01,0.02-0.01c-0.01-0.01-0.01-0.01-0.02-0.02c0.01,0,0.01-0.01,0.02-0.01
					c-0.03-0.03-0.06-0.07-0.08-0.1c-0.43,0.23-0.79,0.35-1.07,0.38c-0.29,0.02-0.59-0.02-0.9-0.13c-0.36-0.13-0.65-0.31-0.87-0.55
					c-0.22-0.24-0.35-0.51-0.37-0.83c-0.01-0.12,0.01-0.25,0.02-0.37c0.03-0.17,0.09-0.34,0.16-0.51c0.19-0.44,0.42-0.79,0.7-1.05
					c0.28-0.25,0.58-0.41,0.89-0.46c0.32-0.05,0.64-0.02,0.96,0.09c0.38,0.13,0.67,0.34,0.86,0.62s0.28,0.66,0.24,1.13
					c0.04,0.01,0.07,0.03,0.11,0.04c0.16-0.48,0.32-0.96,0.48-1.44c0,0,0,0-0.01,0c0-0.01,0.01-0.02,0.01-0.03c0,0,0,0-0.01,0
					c0-0.01,0.01-0.02,0.01-0.03c0,0,0,0-0.01,0c0-0.01,0.01-0.02,0.01-0.03c0,0,0,0-0.01,0c0-0.01,0.01-0.02,0.01-0.03
					c-0.04-0.02-0.08-0.03-0.12-0.05c-0.07,0.09-0.14,0.15-0.23,0.18c-0.06,0.02-0.13,0.02-0.19,0c-0.04-0.02-0.1-0.06-0.18-0.14
					c-0.28-0.27-0.59-0.46-0.94-0.58c-0.45-0.15-0.91-0.2-1.37-0.13s-0.87,0.24-1.24,0.51C89.13,60.08,88.86,60.42,88.69,60.83z"/>
				<path d="M93.38,63.37c0,0.01,0,0.02,0,0.03s0,0.02,0,0.03s0,0.02,0,0.03c0,0.31,0.06,0.62,0.2,0.92
					c0.27,0.58,0.74,1.02,1.38,1.31s1.26,0.34,1.88,0.14c0.62-0.2,1.06-0.61,1.33-1.24c0.13-0.31,0.19-0.61,0.19-0.92
					c0-0.01,0-0.02,0-0.03s0-0.02,0-0.03s0-0.02,0-0.03c0-0.32-0.06-0.64-0.2-0.96c-0.27-0.62-0.71-1.06-1.32-1.33
					s-1.22-0.31-1.82-0.13c-0.69,0.2-1.17,0.64-1.45,1.29C93.45,62.76,93.38,63.07,93.38,63.37z M95.49,61.59
					c0.37-0.17,0.77-0.16,1.19,0.02c0.45,0.2,0.74,0.49,0.87,0.89c0.08,0.22,0.1,0.47,0.08,0.74c-0.04,0.29-0.12,0.59-0.26,0.93
					c-0.28,0.65-0.62,1.06-1.03,1.23c-0.41,0.17-0.84,0.15-1.28-0.05c-0.41-0.19-0.69-0.47-0.82-0.85
					c-0.08-0.23-0.11-0.48-0.09-0.75c0.03-0.27,0.11-0.56,0.24-0.87C94.65,62.23,95.03,61.8,95.49,61.59z"/>
				<path d="M97.95,66.75c-0.05-0.03-0.11-0.06-0.16-0.08c-0.02,0.04-0.03,0.08-0.05,0.11h0.01c0,0.01-0.01,0.02-0.01,0.03h0.01
					c0,0.01-0.01,0.02-0.01,0.03h0.01c0,0.01-0.01,0.02-0.01,0.03h0.01c0,0.01-0.01,0.02-0.01,0.03c0.66,0.33,1.3,0.68,1.95,1.04
					c0.02-0.04,0.03-0.08,0.05-0.11c0,0-0.01,0-0.01-0.01s0.01-0.02,0.01-0.03h-0.01c0-0.01,0.01-0.02,0.01-0.03
					c0,0-0.01,0-0.01-0.01s0.01-0.02,0.01-0.03c0,0-0.01,0-0.01-0.01s0.01-0.02,0.01-0.03c-0.05-0.03-0.11-0.06-0.16-0.09
					c-0.11-0.06-0.2-0.14-0.27-0.24c-0.05-0.07-0.07-0.13-0.08-0.19c0.02-0.08,0.05-0.19,0.11-0.33c0.38-0.89,0.76-1.79,1.14-2.69
					c0.11-0.25,0.2-0.39,0.28-0.43c0.13-0.06,0.28-0.03,0.47,0.07c0.05,0.03,0.11,0.06,0.16,0.09c0.02-0.04,0.03-0.08,0.05-0.11
					h-0.01c0-0.01,0.01-0.02,0.01-0.03h-0.01c0-0.01,0.01-0.02,0.01-0.03h-0.01c0-0.01,0.01-0.02,0.01-0.03h-0.01
					c0-0.01,0.01-0.02,0.01-0.03c-0.65-0.35-1.3-0.69-1.96-1.02c-0.02,0.04-0.03,0.08-0.05,0.11h0.01c0,0.01-0.01,0.02-0.01,0.03
					h0.01c0,0.01-0.01,0.02-0.01,0.03h0.01c0,0.01-0.01,0.02-0.01,0.03h0.01c0,0.01-0.01,0.02-0.01,0.03
					c0.05,0.03,0.11,0.05,0.16,0.08c0.11,0.05,0.2,0.13,0.28,0.23c0.05,0.06,0.07,0.12,0.07,0.18c-0.02,0.08-0.05,0.19-0.11,0.33
					c-0.38,0.9-0.76,1.79-1.13,2.69c-0.11,0.25-0.2,0.39-0.28,0.43C98.29,66.87,98.14,66.85,97.95,66.75z"/>
				<path d="M60,66.96c-0.14-0.07-0.27-0.21-0.39-0.44c-0.16-0.29-0.32-0.58-0.48-0.86c0.43-0.12,0.8-0.26,1.07-0.44
					c0.29-0.19,0.49-0.4,0.61-0.64c0.05-0.11,0.08-0.22,0.08-0.31c0-0.01,0-0.02,0-0.03s0-0.02,0-0.03s0-0.02,0-0.03
					c0-0.1-0.02-0.19-0.07-0.26c-0.11-0.14-0.28-0.23-0.51-0.26s-0.62-0.01-1.17,0.06c-0.63,0.08-1.26,0.17-1.88,0.27
					c-0.02,0.03-0.03,0.07-0.05,0.1h0.01c-0.01,0.01-0.01,0.02-0.02,0.04h0.01c-0.01,0.01-0.01,0.02-0.02,0.04h0.01
					c-0.01,0.01-0.01,0.02-0.02,0.04h0.01c-0.01,0.01-0.01,0.02-0.02,0.04c0.06-0.01,0.13-0.02,0.19-0.03
					c0.2-0.03,0.32-0.01,0.38,0.06c0.01,0.01,0,0.03,0,0.05c-0.02,0.07-0.05,0.14-0.1,0.25c-0.4,0.81-0.8,1.62-1.2,2.43
					c-0.11,0.21-0.2,0.35-0.28,0.42c-0.15,0.12-0.33,0.19-0.55,0.22c-0.07,0.01-0.13,0.02-0.2,0.03c-0.02,0.03-0.03,0.07-0.05,0.1
					h0.01c-0.01,0.01-0.01,0.02-0.02,0.04h0.01c-0.01,0.01-0.01,0.02-0.02,0.04h0.01c-0.01,0.01-0.01,0.02-0.02,0.04h0.01
					c-0.01,0.01-0.01,0.02-0.02,0.04c0.74-0.11,1.49-0.21,2.24-0.29c0.02-0.03,0.03-0.07,0.05-0.1H57.6
					c0.01-0.01,0.01-0.02,0.02-0.04h-0.01c0.01-0.01,0.01-0.02,0.02-0.04h-0.01c0.01-0.01,0.01-0.02,0.02-0.04h-0.01
					c0.01-0.01,0.01-0.02,0.02-0.04c-0.07,0.01-0.14,0.02-0.2,0.02c-0.19,0.02-0.32,0-0.38-0.07c-0.01-0.01,0-0.03,0-0.05
					c0.02-0.07,0.05-0.14,0.1-0.25c0.18-0.36,0.36-0.73,0.54-1.09c0.04,0,0.08-0.01,0.12-0.01c0.04,0,0.07-0.01,0.11-0.01
					c0.08-0.01,0.19-0.03,0.32-0.04c0.3,0.52,0.6,1.04,0.9,1.58c0.46-0.04,0.93-0.08,1.39-0.11c0.02-0.03,0.03-0.07,0.05-0.1h-0.01
					c0.01-0.01,0.01-0.02,0.02-0.03H60.6c0.01-0.01,0.01-0.02,0.02-0.03h-0.01c0.01-0.01,0.01-0.02,0.02-0.03h-0.01
					c0.01-0.01,0.01-0.02,0.02-0.03C60.34,67.06,60.13,67.03,60,66.96z M59.19,64.03c0.33-0.04,0.57,0,0.7,0.13
					c0.06,0.05,0.08,0.12,0.09,0.2c-0.01,0.07-0.02,0.13-0.05,0.21c-0.12,0.24-0.34,0.45-0.67,0.64c-0.33,0.18-0.74,0.3-1.24,0.37
					c-0.02,0-0.05,0.01-0.09,0.01c-0.02,0-0.05,0.01-0.07,0.01c0.23-0.48,0.47-0.95,0.7-1.43C58.84,64.09,59.05,64.05,59.19,64.03z"
					/>
				<path d="M70.49,66.99c-0.08-0.09-0.14-0.26-0.16-0.53c-0.11-1.11-0.22-2.22-0.32-3.31c-0.04,0-0.09,0-0.13,0
					c-1.09,1.04-2.19,2.08-3.29,3.12c-0.29,0.27-0.52,0.46-0.69,0.54c-0.08,0.04-0.24,0.08-0.47,0.11c-0.02,0.03-0.03,0.07-0.05,0.1
					h0.01c-0.01,0.01-0.01,0.02-0.02,0.03h0.01c-0.01,0.01-0.01,0.02-0.02,0.03h0.01c-0.01,0.01-0.01,0.02-0.02,0.03h0.01
					c-0.01,0.01-0.01,0.02-0.02,0.03c0.55,0,1.09,0.01,1.64,0.03c0.02-0.03,0.03-0.07,0.05-0.1h-0.01c0-0.01,0.01-0.02,0.01-0.03
					h-0.01c0.01-0.01,0.01-0.02,0.02-0.03h-0.01c0-0.01,0.01-0.02,0.01-0.03h-0.01c0-0.01,0.01-0.02,0.01-0.03
					c-0.24-0.02-0.39-0.05-0.45-0.1c-0.02-0.02-0.01-0.05-0.02-0.07c0.05-0.07,0.12-0.16,0.25-0.28c0.21-0.2,0.42-0.4,0.63-0.6
					c0.67,0.02,1.34,0.04,2.01,0.08c0.02,0.19,0.04,0.38,0.06,0.57c0.01,0.07,0.01,0.12,0,0.17c-0.01,0.03-0.01,0.07-0.02,0.1
					c-0.03,0.06-0.09,0.11-0.18,0.15c-0.09,0.04-0.24,0.06-0.45,0.05c-0.02,0.04-0.03,0.07-0.05,0.1h0.01
					c-0.01,0.01-0.01,0.02-0.02,0.03h0.01c-0.01,0.01-0.01,0.02-0.02,0.03h0.01c-0.01,0.01-0.01,0.02-0.02,0.03h0.01
					c-0.01,0.01-0.01,0.02-0.02,0.03c0.68,0.04,1.36,0.09,2.04,0.15c0.02-0.04,0.03-0.07,0.05-0.11h-0.01
					c0-0.01,0.01-0.02,0.01-0.03h-0.01c0-0.01,0.01-0.02,0.01-0.03h-0.01c0-0.01,0.01-0.02,0.01-0.03h-0.01
					c0-0.01,0.01-0.02,0.01-0.03C70.72,67.13,70.57,67.07,70.49,66.99z M69.46,65.61c-0.54-0.03-1.08-0.05-1.63-0.06
					c0.49-0.47,0.99-0.93,1.48-1.4C69.36,64.64,69.41,65.12,69.46,65.61z"/>
				<path d="M81.24,68.78c-0.08-0.11-0.13-0.31-0.16-0.61c-0.1-1.24-0.2-2.47-0.3-3.69c-0.04-0.01-0.09-0.02-0.13-0.03
					c-1.06,0.96-2.13,1.93-3.2,2.89c-0.28,0.25-0.5,0.42-0.67,0.49c-0.08,0.03-0.24,0.05-0.46,0.04c-0.02,0.04-0.03,0.07-0.05,0.11
					h0.01c0,0.01-0.01,0.02-0.01,0.03h0.01c0,0.01-0.01,0.02-0.01,0.03h0.01c0,0.01-0.01,0.02-0.01,0.03h0.01
					c0,0.01-0.01,0.02-0.01,0.03c0.53,0.09,1.07,0.19,1.6,0.3c0.02-0.04,0.03-0.07,0.05-0.11h-0.01c0-0.01,0.01-0.02,0.01-0.03
					h-0.01c0-0.01,0.01-0.02,0.01-0.03h-0.01c0-0.01,0.01-0.02,0.01-0.03h-0.01c0-0.01,0.01-0.02,0.01-0.03
					c-0.24-0.06-0.38-0.12-0.44-0.18c-0.03-0.03-0.01-0.06-0.02-0.09c0.04-0.07,0.12-0.16,0.25-0.27c0.21-0.18,0.41-0.37,0.62-0.55
					c0.65,0.13,1.3,0.27,1.95,0.42c0.02,0.21,0.04,0.43,0.05,0.64c0.01,0.08,0.01,0.14,0,0.2c-0.01,0.04-0.01,0.08-0.02,0.11
					c-0.03,0.06-0.09,0.11-0.18,0.14c-0.09,0.03-0.24,0.02-0.44-0.02c-0.02,0.04-0.03,0.07-0.05,0.11h0.01
					c0,0.01-0.01,0.02-0.01,0.03h0.01c0,0.01-0.01,0.02-0.01,0.03h0.01c0,0.01-0.01,0.02-0.01,0.03h0.01c0,0.01-0.01,0.02-0.01,0.03
					c0.66,0.15,1.32,0.32,1.97,0.49c0.02-0.04,0.03-0.07,0.05-0.11h-0.01c0-0.01,0.01-0.02,0.01-0.03h-0.01
					c0-0.01,0.01-0.02,0.01-0.03h-0.01c0-0.01,0.01-0.02,0.01-0.03h-0.01c0-0.01,0.01-0.02,0.01-0.03
					C81.46,68.97,81.32,68.89,81.24,68.78z M80.24,67.1c-0.53-0.12-1.06-0.23-1.59-0.34c0.49-0.43,0.97-0.87,1.45-1.3
					C80.15,66,80.2,66.55,80.24,67.1z"/>
				<path d="M91.8,72.55c-0.07-0.13-0.12-0.36-0.13-0.69c-0.07-1.37-0.13-2.74-0.21-4.09c-0.04-0.02-0.08-0.03-0.12-0.05
					c-1.03,0.89-2.07,1.77-3.1,2.66c-0.27,0.23-0.49,0.38-0.65,0.43c-0.08,0.03-0.23,0.01-0.44-0.03c-0.02,0.04-0.03,0.07-0.05,0.11
					h0.01c0,0.01-0.01,0.02-0.01,0.03h0.01c0,0.01-0.01,0.02-0.01,0.03h0.01c0,0.01-0.01,0.02-0.01,0.03h0.01
					c0,0.01-0.01,0.02-0.01,0.03c0.51,0.19,1.01,0.38,1.51,0.58c0.02-0.04,0.03-0.07,0.05-0.11h-0.01c0-0.01,0.01-0.02,0.01-0.03
					h-0.01c0-0.01,0.01-0.02,0.01-0.03h-0.01c0-0.01,0.01-0.02,0.01-0.03h-0.01c0-0.01,0.01-0.02,0.01-0.03
					c-0.22-0.11-0.36-0.19-0.41-0.27c-0.03-0.04-0.01-0.07-0.02-0.11c0.04-0.07,0.12-0.16,0.24-0.26c0.2-0.17,0.4-0.34,0.6-0.51
					c0.62,0.24,1.23,0.5,1.84,0.76c0.01,0.24,0.02,0.47,0.04,0.71c0,0.09,0,0.15,0,0.22c-0.01,0.05-0.01,0.09-0.03,0.12
					c-0.03,0.07-0.08,0.11-0.17,0.12c-0.09,0.02-0.22-0.01-0.42-0.09c-0.02,0.04-0.03,0.07-0.05,0.11h0.01
					c0,0.01-0.01,0.02-0.01,0.03h0.01c0,0.01-0.01,0.02-0.01,0.03h0.01c0,0.01-0.01,0.02-0.01,0.03h0.01c0,0.01-0.01,0.02-0.01,0.03
					c0.62,0.27,1.24,0.55,1.85,0.84c0.02-0.04,0.03-0.07,0.05-0.11c0,0-0.01,0-0.01-0.01s0.01-0.02,0.01-0.03c0,0-0.01,0-0.01-0.01
					s0.01-0.02,0.01-0.03c0,0-0.01,0-0.01-0.01s0.01-0.02,0.01-0.03c0,0-0.01,0-0.01-0.01s0.01-0.02,0.01-0.03
					C92,72.79,91.88,72.68,91.8,72.55z M90.9,70.56c-0.5-0.22-1.01-0.42-1.52-0.63c0.47-0.4,0.95-0.8,1.42-1.21
					C90.84,69.34,90.87,69.95,90.9,70.56z"/>
				<path d="M94.26,73.92c-0.11-0.06-0.2-0.13-0.28-0.23c-0.05-0.07-0.07-0.13-0.08-0.18c0.02-0.08,0.05-0.18,0.11-0.32
					c0.37-0.88,0.75-1.76,1.12-2.64c0.1-0.25,0.2-0.39,0.28-0.42c0.13-0.06,0.29-0.04,0.47,0.06c0.06,0.03,0.11,0.06,0.17,0.09
					c0.02-0.04,0.03-0.07,0.05-0.11h-0.01c0-0.01,0.01-0.02,0.01-0.03h-0.01c0-0.01,0.01-0.02,0.01-0.03h-0.01
					c0-0.01,0.01-0.02,0.01-0.03h-0.01c0-0.01,0.01-0.02,0.01-0.03c-0.65-0.34-1.31-0.66-1.98-0.98c-0.02,0.04-0.03,0.07-0.05,0.11
					h0.01c0,0.01-0.01,0.02-0.01,0.03h0.01c0,0.01-0.01,0.02-0.01,0.03h0.01c0,0.01-0.01,0.02-0.01,0.03h0.01
					c0,0.01-0.01,0.02-0.01,0.03c0.05,0.03,0.11,0.05,0.16,0.08c0.11,0.05,0.2,0.13,0.28,0.22c0.05,0.06,0.07,0.12,0.08,0.18
					c-0.02,0.08-0.05,0.18-0.11,0.32c-0.37,0.88-0.75,1.76-1.12,2.64c-0.1,0.24-0.2,0.39-0.28,0.42c-0.13,0.06-0.29,0.04-0.48-0.06
					c-0.05-0.03-0.11-0.05-0.16-0.08c-0.02,0.04-0.03,0.07-0.05,0.11h0.01c0,0.01-0.01,0.02-0.01,0.03h0.01
					c0,0.01-0.01,0.02-0.01,0.03h0.01c0,0.01-0.01,0.02-0.01,0.03h0.01c0,0.01-0.01,0.02-0.01,0.03c0.66,0.32,1.32,0.65,1.98,1
					c0.02-0.04,0.03-0.07,0.05-0.11h-0.01c0-0.01,0.01-0.02,0.01-0.03h-0.01c0-0.01,0.01-0.02,0.01-0.03h-0.01
					c0-0.01,0.01-0.02,0.01-0.03h-0.01c0-0.01,0.01-0.02,0.01-0.03C94.37,73.98,94.31,73.95,94.26,73.92z"/>
				<path d="M99.53,71.93c-0.02,0.04-0.03,0.08-0.05,0.11c0,0,0.01,0,0.01,0.01s-0.01,0.02-0.01,0.03c0,0,0.01,0,0.01,0.01
					s-0.01,0.02-0.01,0.03c0,0,0.01,0,0.01,0.01s-0.01,0.02-0.01,0.03c0,0,0.01,0,0.01,0.01s-0.01,0.02-0.01,0.03
					c0.05,0.03,0.1,0.06,0.15,0.09c0.17,0.11,0.28,0.23,0.33,0.36c0.01,0.03,0,0.07,0,0.11c-0.02,0.08-0.05,0.18-0.1,0.29
					c-0.34,0.8-0.67,1.59-1.01,2.39c-0.46-1.6-0.93-3.16-1.42-4.7c-0.41-0.22-0.82-0.44-1.24-0.66c-0.02,0.04-0.03,0.07-0.05,0.11
					c0,0,0,0,0.01,0.01c0,0.01-0.01,0.02-0.01,0.03c0,0,0,0,0.01,0.01c0,0.01-0.01,0.02-0.01,0.03c0,0,0,0,0.01,0.01
					c0,0.01-0.01,0.02-0.01,0.03c0,0,0,0,0.01,0.01c0,0.01-0.01,0.02-0.01,0.03c0.13,0.07,0.23,0.13,0.29,0.18
					c0.12,0.11,0.2,0.2,0.25,0.28c0.04,0.07,0.1,0.2,0.16,0.38c-0.39,0.93-0.78,1.85-1.17,2.78c-0.1,0.23-0.18,0.36-0.26,0.4
					c-0.12,0.06-0.28,0.04-0.48-0.07c-0.05-0.03-0.11-0.06-0.16-0.08c-0.02,0.04-0.03,0.07-0.05,0.11c0,0,0.01,0,0.01,0.01
					s-0.01,0.02-0.01,0.03c0,0,0.01,0,0.01,0.01s-0.01,0.02-0.01,0.03c0,0,0.01,0,0.01,0.01s-0.01,0.02-0.01,0.03
					c0,0,0.01,0,0.01,0.01s-0.01,0.02-0.01,0.03c0.53,0.28,1.05,0.57,1.57,0.87c0.02-0.04,0.03-0.07,0.05-0.11c0,0-0.01,0-0.01-0.01
					s0.01-0.02,0.01-0.03c0,0-0.01,0-0.01-0.01s0.01-0.02,0.01-0.03c0,0-0.01,0-0.01-0.01s0.01-0.02,0.01-0.03c0,0-0.01,0-0.01-0.01
					s0.01-0.02,0.01-0.03c-0.05-0.03-0.11-0.06-0.16-0.09c-0.17-0.1-0.29-0.21-0.34-0.35c-0.01-0.02,0-0.07,0-0.1
					c0.02-0.08,0.05-0.17,0.1-0.29c0.36-0.84,0.71-1.69,1.07-2.53c0.53,1.65,1.04,3.34,1.54,5.06c0.04,0.02,0.08,0.05,0.12,0.07
					c0.49-1.16,0.98-2.32,1.47-3.49c0.1-0.23,0.19-0.37,0.26-0.4c0.12-0.06,0.28-0.03,0.46,0.09c0.05,0.03,0.1,0.07,0.15,0.1
					c0.02-0.04,0.03-0.08,0.05-0.11c0,0-0.01,0-0.01-0.01s0.01-0.02,0.01-0.03c0,0-0.01,0-0.01-0.01s0.01-0.02,0.01-0.03
					c0,0-0.01,0-0.01-0.01s0.01-0.02,0.01-0.03c0,0-0.01,0-0.01-0.01s0.01-0.02,0.01-0.03C100.55,72.56,100.04,72.24,99.53,71.93z"
					/>
				<path d="M84.58,58.54c-0.01,0.01-0.01,0.02-0.02,0.03h0.01c-0.01,0.01-0.01,0.02-0.02,0.03h0.01c-0.01,0.01-0.01,0.02-0.02,0.03
					c0.05,0.01,0.09,0.02,0.14,0.03c0.1-0.18,0.21-0.31,0.35-0.4s0.28-0.13,0.42-0.14c0.11-0.01,0.28,0.02,0.51,0.07
					c0.19,0.04,0.37,0.09,0.56,0.13c-0.42,0.99-0.85,1.97-1.27,2.95c-0.1,0.22-0.19,0.36-0.27,0.41c-0.13,0.08-0.3,0.09-0.51,0.04
					c-0.06-0.01-0.12-0.03-0.18-0.04c-0.02,0.04-0.03,0.07-0.05,0.11h0.01c0,0.01-0.01,0.02-0.01,0.03h0.01
					c0,0.01-0.01,0.02-0.01,0.03h0.01c0,0.01-0.01,0.02-0.01,0.03h0.01c0,0.01-0.01,0.02-0.01,0.03c0.7,0.17,1.4,0.35,2.1,0.55
					c0.02-0.04,0.03-0.07,0.05-0.11h-0.01c0-0.01,0.01-0.02,0.01-0.03h-0.01c0-0.01,0.01-0.02,0.01-0.03h-0.01
					c0-0.01,0.01-0.02,0.01-0.03h-0.01c0-0.01,0.01-0.02,0.01-0.03c-0.06-0.02-0.11-0.03-0.17-0.05c-0.19-0.05-0.32-0.13-0.37-0.24
					c-0.01-0.02,0-0.06,0-0.09c0.02-0.08,0.04-0.16,0.09-0.26c0.44-1.02,0.88-2.05,1.32-3.08c0.23,0.06,0.46,0.12,0.7,0.18
					c0.2,0.05,0.36,0.13,0.46,0.22s0.16,0.2,0.19,0.34c0,0.08,0,0.14-0.03,0.26l0,0c0,0.01,0,0.02,0,0.03l0,0c0,0.01,0,0.02,0,0.03
					l0,0c0,0.01,0,0.02,0,0.03l0,0c0,0.01,0,0.02,0,0.03c0.05,0.01,0.09,0.03,0.14,0.04c0.12-0.32,0.23-0.64,0.35-0.97h-0.01
					c0-0.01,0.01-0.02,0.01-0.03h-0.01c0-0.01,0.01-0.02,0.01-0.03h-0.01c0-0.01,0.01-0.02,0.01-0.03h-0.01
					c0-0.01,0.01-0.02,0.01-0.03c-1.34-0.38-2.68-0.72-4.04-1.01c-0.16,0.31-0.31,0.62-0.47,0.93h0.01
					c-0.01,0.01-0.01,0.02-0.02,0.03C84.57,58.54,84.57,58.54,84.58,58.54z"/>
				<path d="M106.33,66.67c0-0.01,0.01-0.02,0.01-0.03c-0.5-0.34-1.01-0.67-1.51-0.99c-0.02,0.04-0.03,0.08-0.05,0.12
					c0,0,0.01,0,0.01,0.01s-0.01,0.02-0.01,0.03c0,0,0.01,0,0.01,0.01s-0.01,0.02-0.01,0.03c0,0,0.01,0,0.01,0.01
					s-0.01,0.02-0.01,0.03c0,0,0.01,0,0.01,0.01s-0.01,0.02-0.01,0.03c0.05,0.03,0.1,0.06,0.15,0.1c0.17,0.11,0.28,0.23,0.32,0.37
					c0.01,0.03,0,0.07,0,0.11c-0.02,0.09-0.05,0.18-0.1,0.3c-0.34,0.81-0.69,1.62-1.03,2.43c-0.44-1.64-0.89-3.24-1.36-4.82
					c-0.4-0.23-0.81-0.46-1.22-0.69c-0.02,0.04-0.03,0.08-0.05,0.11c0,0,0,0,0.01,0.01c0,0.01-0.01,0.02-0.01,0.03
					c0,0,0,0,0.01,0.01c0,0.01-0.01,0.02-0.01,0.03c0,0,0,0,0.01,0.01c0,0.01-0.01,0.02-0.01,0.03c0,0,0,0,0.01,0.01
					c0,0.01-0.01,0.02-0.01,0.03c0.13,0.07,0.22,0.14,0.28,0.19c0.11,0.11,0.2,0.21,0.24,0.29c0.04,0.07,0.1,0.21,0.16,0.39
					c-0.4,0.95-0.8,1.89-1.2,2.83c-0.1,0.23-0.19,0.37-0.26,0.41c-0.12,0.06-0.28,0.04-0.47-0.07c-0.05-0.03-0.1-0.06-0.16-0.09
					c-0.02,0.04-0.03,0.08-0.05,0.11c0,0,0.01,0,0.01,0.01s-0.01,0.02-0.01,0.03c0,0,0.01,0,0.01,0.01s-0.01,0.02-0.01,0.03
					c0,0,0.01,0,0.01,0.01s-0.01,0.02-0.01,0.03c0,0,0.01,0,0.01,0.01s-0.01,0.02-0.01,0.03c0.52,0.3,1.04,0.6,1.55,0.91
					c0.02-0.04,0.03-0.08,0.05-0.11c0,0-0.01,0-0.01-0.01s0.01-0.02,0.01-0.03c0,0-0.01,0-0.01-0.01s0.01-0.02,0.01-0.03
					c0,0-0.01,0-0.01-0.01s0.01-0.02,0.01-0.03c0,0-0.01,0-0.01-0.01s0.01-0.02,0.01-0.03c-0.05-0.03-0.1-0.06-0.16-0.09
					c-0.17-0.1-0.28-0.22-0.33-0.36c-0.01-0.02,0-0.07,0-0.1c0.02-0.08,0.05-0.18,0.1-0.29c0.36-0.86,0.72-1.72,1.09-2.58
					c0.51,1.7,1,3.43,1.47,5.19c0.04,0.03,0.08,0.05,0.11,0.08c0.5-1.18,1-2.36,1.5-3.55c0.1-0.24,0.19-0.37,0.26-0.41
					c0.12-0.06,0.28-0.03,0.46,0.1c0.05,0.03,0.1,0.07,0.15,0.1c0.02-0.04,0.03-0.08,0.05-0.12c0,0-0.01,0-0.01-0.01
					s0.01-0.02,0.01-0.03c0,0-0.01,0-0.01-0.01s0.01-0.02,0.01-0.03c0,0-0.01,0-0.01-0.01C106.33,66.69,106.33,66.68,106.33,66.67
					L106.33,66.67z"/>
				<path d="M52.52,62.36c0.02-0.03,0.03-0.07,0.05-0.1c-0.01,0-0.01,0-0.02,0c0.01-0.01,0.01-0.03,0.02-0.04c-0.01,0-0.01,0-0.02,0
					c0.01-0.01,0.01-0.03,0.02-0.04c-0.01,0-0.01,0-0.02,0c0.01-0.01,0.01-0.03,0.02-0.04c-0.01,0-0.01,0-0.02,0
					c0.01-0.01,0.01-0.03,0.02-0.04c-0.06,0.02-0.12,0.03-0.18,0.05c-0.2,0.05-0.32,0.05-0.38,0v-0.02
					c0.02-0.06,0.05-0.14,0.11-0.25c0.42-0.83,0.85-1.67,1.27-2.51c0.11,0.87,0.23,1.76,0.36,2.65c0.04-0.01,0.08-0.02,0.12-0.03
					c1.15-1.17,2.29-2.34,3.42-3.51c-0.37,0.76-0.75,1.52-1.12,2.28c-0.1,0.21-0.2,0.35-0.28,0.42c-0.14,0.11-0.31,0.19-0.53,0.24
					c-0.06,0.01-0.12,0.03-0.18,0.04c-0.02,0.03-0.03,0.07-0.05,0.1c0.01,0,0.01,0,0.02,0c-0.01,0.01-0.01,0.02-0.02,0.04
					c0.01,0,0.01,0,0.02,0c-0.01,0.01-0.01,0.02-0.02,0.04c0.01,0,0.01,0,0.02,0c-0.01,0.01-0.01,0.02-0.02,0.04
					c0.01,0,0.01,0,0.02,0c-0.01,0.01-0.01,0.02-0.02,0.04c0.72-0.16,1.45-0.31,2.17-0.44c0.02-0.03,0.03-0.07,0.05-0.1h-0.01
					c0.01-0.01,0.01-0.02,0.02-0.04h-0.01c0.01-0.01,0.01-0.02,0.02-0.04h-0.01c0.01-0.01,0.01-0.02,0.02-0.04h-0.01
					c0.01-0.01,0.01-0.02,0.02-0.04c-0.06,0.01-0.12,0.02-0.18,0.03c-0.2,0.04-0.33,0.03-0.38-0.03c-0.01-0.01,0-0.03,0-0.04
					c0.02-0.06,0.05-0.14,0.1-0.24c0.41-0.82,0.81-1.65,1.21-2.47c0.1-0.21,0.2-0.35,0.28-0.43c0.14-0.12,0.31-0.2,0.53-0.24
					c0.06-0.01,0.12-0.02,0.18-0.03c0.02-0.03,0.03-0.07,0.05-0.1h-0.01c0.01-0.01,0.01-0.02,0.02-0.04h-0.01
					c0.01-0.01,0.01-0.02,0.02-0.04h-0.01c0.01-0.01,0.01-0.02,0.02-0.04H59.2c0.01-0.01,0.01-0.02,0.02-0.04
					c-0.48,0.09-0.96,0.19-1.44,0.29c-1.09,1.12-2.18,2.24-3.27,3.37c-0.12-0.83-0.24-1.66-0.35-2.47
					c-0.47,0.13-0.94,0.27-1.42,0.41c-0.02,0.03-0.03,0.07-0.05,0.1c0.01,0,0.01,0,0.02,0c-0.01,0.01-0.01,0.03-0.02,0.04
					c0.01,0,0.01,0,0.02,0c-0.01,0.01-0.01,0.03-0.02,0.04c0.01,0,0.01,0,0.02,0c-0.01,0.01-0.01,0.03-0.02,0.04
					c0.01,0,0.01,0,0.02,0c-0.01,0.01-0.01,0.03-0.02,0.04c0.2-0.06,0.34-0.09,0.42-0.08c0.07,0.01,0.11,0.04,0.12,0.08
					c-0.02,0.06-0.05,0.13-0.09,0.21c-0.41,0.82-0.83,1.64-1.24,2.45c-0.11,0.21-0.2,0.35-0.29,0.43c-0.14,0.12-0.31,0.21-0.53,0.27
					c-0.06,0.02-0.12,0.03-0.18,0.05c-0.02,0.03-0.04,0.07-0.05,0.1c0.01,0,0.01,0,0.02,0c-0.01,0.01-0.01,0.03-0.02,0.04
					c0.01,0,0.01,0,0.02,0c-0.01,0.01-0.01,0.03-0.02,0.04c0.01,0,0.01,0,0.02,0c-0.01,0.01-0.01,0.03-0.02,0.04
					c0.01,0,0.01,0,0.02,0c-0.01,0.01-0.01,0.03-0.02,0.04C51.34,62.68,51.93,62.51,52.52,62.36z"/>
				<path d="M65.39,60.3c0.02-0.03,0.03-0.07,0.05-0.1h-0.01c0.01-0.01,0.01-0.02,0.02-0.03h-0.01c0.01-0.01,0.01-0.02,0.02-0.03
					h-0.01c0.01-0.01,0.01-0.02,0.02-0.03h-0.01c0.01-0.01,0.01-0.02,0.02-0.03c-0.06,0-0.12,0.01-0.17,0.01
					c-0.12,0.01-0.23-0.01-0.31-0.05c-0.06-0.02-0.08-0.06-0.09-0.1c0.02-0.07,0.05-0.15,0.11-0.26c0.19-0.41,0.39-0.82,0.58-1.24
					c0.39,0.39,0.77,0.79,1.16,1.21c0.08,0.09,0.12,0.14,0.13,0.18c-0.02,0.04-0.07,0.09-0.15,0.13s-0.2,0.06-0.34,0.07
					c-0.02,0.04-0.03,0.07-0.05,0.1h0.01c-0.01,0.01-0.01,0.02-0.02,0.03h0.01c-0.01,0.01-0.01,0.02-0.02,0.03h0.01
					c-0.01,0.01-0.01,0.02-0.02,0.03h0.01c-0.01,0.01-0.01,0.02-0.02,0.03c0.82-0.04,1.63-0.06,2.45-0.07
					c0.02-0.04,0.03-0.07,0.05-0.11H68.8c0-0.01,0.01-0.02,0.01-0.03H68.8c0-0.01,0.01-0.02,0.01-0.03H68.8
					c0-0.01,0.01-0.02,0.01-0.03H68.8c0-0.01,0.01-0.02,0.01-0.03c-0.21-0.01-0.41-0.05-0.59-0.13c-0.18-0.08-0.37-0.23-0.58-0.46
					c-0.39-0.42-0.78-0.83-1.16-1.24c0.32-0.19,0.64-0.39,0.97-0.58c0.62-0.38,0.97-0.58,1.04-0.62c0.25-0.14,0.46-0.24,0.62-0.31
					c0.16-0.06,0.29-0.11,0.39-0.13s0.21-0.04,0.32-0.04c0.02-0.04,0.03-0.07,0.05-0.11h-0.01c0.01-0.01,0.01-0.02,0.02-0.03h-0.01
					c0.01-0.01,0.01-0.02,0.02-0.03h-0.01c0.01-0.01,0.01-0.02,0.02-0.03h-0.01c0.01-0.01,0.01-0.02,0.02-0.03
					c-0.63,0.02-1.26,0.04-1.88,0.08c-0.02,0.04-0.03,0.07-0.05,0.11h0.01c-0.01,0.01-0.01,0.02-0.02,0.03h0.01
					c-0.01,0.01-0.01,0.02-0.02,0.03h0.01c-0.01,0.01-0.01,0.02-0.02,0.03h0.01c-0.01,0.01-0.01,0.02-0.02,0.03
					c0.04,0,0.08,0,0.12-0.01c0.13-0.01,0.21,0.01,0.25,0.04v0.01c-0.03,0.05-0.07,0.1-0.16,0.17c-0.24,0.18-0.85,0.55-1.84,1.11
					c-0.33,0.19-0.52,0.3-0.62,0.36c0.16-0.33,0.31-0.67,0.47-1c0.09-0.19,0.16-0.32,0.22-0.38s0.13-0.11,0.23-0.15
					c0.13-0.05,0.26-0.08,0.37-0.09c0.06,0,0.12-0.01,0.17-0.01c0.02-0.04,0.03-0.07,0.05-0.11h-0.01c0.01-0.01,0.01-0.02,0.02-0.03
					H67.2c0.01-0.01,0.01-0.02,0.02-0.03h-0.01c0.01-0.01,0.01-0.02,0.02-0.03h-0.01c0.01-0.01,0.01-0.02,0.02-0.03
					c-0.73,0.05-1.46,0.11-2.18,0.19c-0.02,0.04-0.03,0.07-0.05,0.1h0.01c-0.01,0.01-0.01,0.02-0.02,0.04h0.01
					C65,56.68,65,56.69,64.99,56.71H65c-0.01,0.01-0.01,0.02-0.02,0.04h0.01c-0.01,0.01-0.01,0.02-0.02,0.04
					c0.06-0.01,0.12-0.01,0.18-0.02c0.12-0.01,0.23,0,0.32,0.03c0.05,0.02,0.07,0.06,0.09,0.09c-0.02,0.07-0.05,0.15-0.11,0.26
					c-0.39,0.83-0.78,1.66-1.16,2.48c-0.11,0.23-0.21,0.38-0.3,0.44c-0.14,0.1-0.32,0.16-0.53,0.18c-0.06,0.01-0.12,0.01-0.18,0.02
					c-0.02,0.03-0.03,0.07-0.05,0.1h0.01c-0.01,0.01-0.01,0.02-0.02,0.03h0.01c-0.01,0.01-0.01,0.02-0.02,0.03h0.01
					c-0.01,0.01-0.01,0.02-0.02,0.03h0.01c-0.01,0.01-0.01,0.02-0.02,0.03C63.93,60.4,64.66,60.34,65.39,60.3z"/>
				<path d="M55.99,65.98c0.03,0,0.06-0.01,0.1-0.01c0.02-0.04,0.03-0.07,0.05-0.11c-0.01,0-0.01,0-0.01,0
					c0.01-0.01,0.01-0.02,0.02-0.04h-0.01c0.01-0.01,0.01-0.02,0.02-0.04h-0.01c0.01-0.01,0.01-0.02,0.02-0.04
					c-0.01,0-0.01,0-0.01,0c0.01-0.01,0.01-0.02,0.02-0.04c-0.67,0.1-1.34,0.22-2.01,0.34c-0.02,0.03-0.04,0.07-0.05,0.1
					c0.01,0,0.01,0,0.01,0c-0.01,0.01-0.01,0.02-0.02,0.04c0.01,0,0.01,0,0.01,0c-0.01,0.01-0.01,0.02-0.02,0.04
					c0.01,0,0.01,0,0.02,0c-0.01,0.01-0.01,0.02-0.02,0.04c0.01,0,0.01,0,0.01,0c-0.01,0.01-0.01,0.02-0.02,0.04
					c0.21-0.04,0.35-0.05,0.41-0.03c0.06,0.01,0.09,0.05,0.11,0.09c-0.02,0.06-0.05,0.14-0.1,0.23c-0.18,0.36-0.36,0.72-0.55,1.08
					c-0.2,0.1-0.4,0.18-0.6,0.25c-0.2,0.07-0.39,0.12-0.58,0.15c-0.33,0.06-0.61,0.06-0.85-0.02c-0.24-0.07-0.38-0.23-0.42-0.49
					c-0.01-0.09,0-0.19,0.02-0.3c0.04-0.15,0.1-0.31,0.18-0.48c0.22-0.44,0.56-0.85,1.01-1.23c0.53-0.45,1.13-0.75,1.78-0.88
					c0.48-0.09,0.82-0.06,1.02,0.1c0.14,0.11,0.2,0.3,0.19,0.58c0.04-0.01,0.09-0.01,0.13-0.02c0.15-0.39,0.3-0.78,0.46-1.16h-0.01
					c0-0.01,0.01-0.02,0.01-0.04h-0.01c0-0.01,0.01-0.02,0.01-0.04h-0.01c0-0.01,0.01-0.02,0.01-0.04h-0.01
					c0-0.01,0.01-0.02,0.01-0.04c-0.05,0.01-0.09,0.02-0.14,0.02c-0.05,0.1-0.11,0.16-0.16,0.2c-0.05,0.04-0.1,0.06-0.15,0.07
					c-0.05,0.01-0.13,0.01-0.26-0.01c-0.24-0.02-0.44-0.03-0.58-0.03c-0.14,0.01-0.31,0.03-0.49,0.07c-0.51,0.1-1,0.28-1.46,0.52
					c-0.55,0.29-1.04,0.65-1.48,1.07c-0.37,0.35-0.64,0.69-0.81,1.02c-0.12,0.23-0.18,0.43-0.18,0.61c0,0.01,0,0.02,0,0.03
					s0,0.02,0,0.03s0,0.02,0,0.03c-0.01,0.19,0.03,0.35,0.14,0.48c0.28,0.34,0.92,0.41,1.93,0.22c0.35-0.07,0.68-0.15,1-0.25
					c0.31-0.1,0.65-0.24,1-0.4c0.19-0.38,0.38-0.76,0.58-1.15c0.1-0.2,0.19-0.34,0.28-0.42C55.63,66.08,55.79,66.01,55.99,65.98z"/>
				<path d="M65.54,66.19c0.01-0.01,0.02-0.02,0.03-0.03c-0.01,0-0.02,0-0.03,0c0.01-0.01,0.02-0.02,0.03-0.03
					c-0.01,0-0.02,0-0.03,0c0.01-0.01,0.02-0.02,0.03-0.03c-0.01,0-0.02,0-0.03,0c0.01-0.01,0.02-0.02,0.03-0.03
					c-0.05,0-0.1,0-0.15,0c-0.28,0.24-0.52,0.41-0.74,0.53c-0.16,0.09-0.32,0.15-0.47,0.18s-0.37,0.05-0.66,0.06
					c-0.29,0.01-0.59,0.02-0.88,0.03c-0.14,0.01-0.24,0-0.28-0.02c-0.03-0.01-0.04-0.04-0.05-0.06c0.02-0.05,0.05-0.11,0.09-0.19
					c0.2-0.42,0.4-0.83,0.6-1.25c0.38-0.02,0.76-0.03,1.14-0.05c0.22-0.01,0.37,0.01,0.46,0.04s0.14,0.08,0.15,0.15
					c0,0,0,0.01,0,0.02c-0.01,0.06-0.03,0.12-0.05,0.2l0,0c0,0.01,0,0.02-0.01,0.03l0,0c0,0.01,0,0.02-0.01,0.03l0,0
					c0,0.01,0,0.02-0.01,0.03l0,0c0,0.01,0,0.02-0.01,0.03c0.05,0,0.09,0,0.14,0c0.21-0.44,0.42-0.89,0.63-1.33h-0.01
					c0.01-0.01,0.01-0.02,0.02-0.03h-0.01c0.01-0.01,0.01-0.02,0.02-0.03h-0.01c0.01-0.01,0.01-0.02,0.02-0.03h-0.01
					c0.01-0.01,0.01-0.02,0.02-0.03c-0.05,0-0.09,0-0.14,0c-0.12,0.22-0.26,0.37-0.44,0.46c-0.13,0.07-0.34,0.11-0.64,0.12
					c-0.36,0.01-0.73,0.03-1.09,0.04c0.22-0.46,0.43-0.91,0.65-1.37c0.47-0.03,0.95-0.05,1.42-0.06c0.26-0.01,0.43,0,0.52,0.03
					c0.11,0.04,0.18,0.09,0.21,0.17c0.01,0.03,0.02,0.08,0.02,0.13C66,63.93,66,63.97,65.99,64.03l0,0c0,0.01,0,0.02,0,0.03l0,0
					c0,0.01,0,0.02,0,0.03l0,0c0,0.01,0,0.02,0,0.03l0,0c0,0.01,0,0.02,0,0.03c0.05,0,0.1,0,0.15,0c0.11-0.28,0.22-0.56,0.34-0.84
					h-0.01c0-0.01,0.01-0.02,0.01-0.03h-0.01c0-0.01,0.01-0.02,0.01-0.03h-0.01c0-0.01,0.01-0.02,0.01-0.03h-0.01
					c0-0.01,0.01-0.02,0.01-0.03c-1.33,0.02-2.66,0.08-3.99,0.18c-0.02,0.03-0.03,0.07-0.05,0.1h0.01
					c-0.01,0.01-0.01,0.02-0.02,0.03h0.01c-0.01,0.01-0.01,0.02-0.02,0.03h0.01c-0.01,0.01-0.01,0.02-0.02,0.03h0.01
					c-0.01,0.01-0.01,0.02-0.02,0.03c0.06,0,0.12-0.01,0.18-0.01c0.21-0.02,0.35,0.01,0.41,0.08c0.01,0.01,0,0.03,0,0.05
					c-0.02,0.07-0.05,0.15-0.1,0.26c-0.39,0.82-0.79,1.65-1.18,2.47c-0.09,0.18-0.16,0.31-0.22,0.37c-0.06,0.06-0.14,0.11-0.23,0.14
					C61.13,67,61,67.03,60.88,67.04c-0.06,0-0.12,0.01-0.18,0.01c-0.02,0.03-0.03,0.07-0.05,0.1h0.01
					c-0.01,0.01-0.01,0.02-0.02,0.03h0.01c-0.01,0.01-0.01,0.02-0.02,0.03h0.01c-0.01,0.01-0.01,0.02-0.02,0.03h0.01
					c-0.01,0.01-0.01,0.02-0.02,0.03c1.34-0.09,2.68-0.14,4.02-0.15c0.3-0.32,0.6-0.64,0.9-0.96
					C65.56,66.19,65.55,66.19,65.54,66.19z"/>
				<path d="M76.32,63.93c0-0.01,0.01-0.02,0.01-0.03h-0.01c0-0.01,0.01-0.02,0.01-0.03h-0.01c0-0.01,0.01-0.02,0.01-0.03h-0.01
					c0-0.01,0.01-0.02,0.01-0.03c-1.39-0.19-2.78-0.34-4.18-0.44c-0.16,0.3-0.32,0.6-0.47,0.91h0.01c-0.01,0.01-0.01,0.02-0.02,0.03
					h0.01c-0.01,0.01-0.01,0.02-0.02,0.03h0.01c-0.01,0.01-0.01,0.02-0.02,0.03h0.01c-0.01,0.01-0.01,0.02-0.02,0.03
					c0.05,0,0.1,0.01,0.14,0.01c0.1-0.17,0.22-0.31,0.36-0.41c0.14-0.1,0.28-0.16,0.43-0.18c0.11-0.02,0.29-0.02,0.53,0
					c0.19,0.02,0.38,0.04,0.57,0.05c-0.43,0.95-0.85,1.9-1.28,2.84c-0.1,0.22-0.19,0.35-0.27,0.41c-0.14,0.09-0.31,0.12-0.53,0.1
					c-0.06-0.01-0.12-0.01-0.18-0.02c-0.02,0.04-0.03,0.07-0.05,0.11h0.01c0,0.01-0.01,0.02-0.01,0.03h0.01
					c0,0.01-0.01,0.02-0.01,0.03h0.01c0,0.01-0.01,0.02-0.01,0.03h0.01c0,0.01-0.01,0.02-0.01,0.03c0.73,0.07,1.46,0.15,2.18,0.25
					c0.02-0.04,0.03-0.07,0.05-0.11h-0.01c0-0.01,0.01-0.02,0.01-0.03h-0.01c0-0.01,0.01-0.02,0.01-0.03h-0.01
					c0-0.01,0.01-0.02,0.01-0.03h-0.01c0-0.01,0.01-0.02,0.01-0.03c-0.06-0.01-0.12-0.02-0.18-0.02c-0.2-0.03-0.33-0.08-0.39-0.18
					c-0.01-0.02,0-0.05,0-0.07c0.02-0.07,0.04-0.15,0.09-0.25c0.45-0.99,0.89-1.98,1.34-2.97c0.24,0.03,0.48,0.06,0.72,0.08
					c0.21,0.03,0.37,0.07,0.47,0.14s0.17,0.16,0.2,0.28c0,0.07,0,0.13-0.03,0.23l0,0c0,0.01,0,0.02,0,0.03l0,0c0,0.01,0,0.02,0,0.03
					l0,0c0,0.01,0,0.02,0,0.03l0,0c0,0.01,0,0.02,0,0.03c0.05,0.01,0.1,0.01,0.14,0.02C76.09,64.55,76.21,64.24,76.32,63.93
					C76.33,63.93,76.32,63.93,76.32,63.93z"/>
				<path d="M87.73,68.85c0.03,0.01,0.06,0.02,0.09,0.03c0.02-0.04,0.03-0.08,0.05-0.11h-0.01c0-0.01,0.01-0.02,0.01-0.03h-0.01
					c0-0.01,0.01-0.02,0.01-0.03h-0.01c0-0.01,0.01-0.02,0.01-0.03h-0.01c0-0.01,0.01-0.02,0.01-0.03
					c-0.62-0.22-1.25-0.44-1.88-0.64c-0.02,0.04-0.03,0.07-0.05,0.11h0.01c0,0.01-0.01,0.02-0.01,0.03h0.01
					c0,0.01-0.01,0.02-0.01,0.03h0.01c0,0.01-0.01,0.02-0.01,0.03h0.01c0,0.01-0.01,0.02-0.01,0.03c0.2,0.06,0.33,0.13,0.39,0.18
					c0.06,0.06,0.1,0.12,0.11,0.19c-0.02,0.08-0.05,0.17-0.1,0.29c-0.17,0.39-0.33,0.77-0.5,1.16c-0.19,0.02-0.37,0.02-0.56,0
					c-0.18-0.02-0.37-0.06-0.55-0.12c-0.31-0.1-0.58-0.27-0.81-0.5c-0.23-0.24-0.37-0.54-0.42-0.9c-0.02-0.15-0.01-0.3,0.01-0.45
					c0.03-0.17,0.08-0.35,0.16-0.53c0.2-0.47,0.52-0.83,0.94-1.09c0.5-0.31,1.07-0.37,1.69-0.18c0.46,0.14,0.78,0.38,0.97,0.71
					c0.13,0.23,0.19,0.52,0.18,0.88c0.04,0.01,0.08,0.03,0.13,0.04c0.14-0.44,0.28-0.88,0.42-1.31c0,0,0,0-0.01,0
					c0-0.01,0.01-0.02,0.01-0.03c0,0,0,0-0.01,0c0-0.01,0.01-0.02,0.01-0.03c0,0,0,0-0.01,0c0-0.01,0.01-0.02,0.01-0.03
					c0,0,0,0-0.01,0c0-0.01,0.01-0.02,0.01-0.03c-0.04-0.02-0.09-0.03-0.13-0.05c-0.05,0.1-0.1,0.16-0.15,0.18s-0.09,0.03-0.14,0.01
					s-0.13-0.07-0.24-0.15c-0.23-0.17-0.41-0.29-0.55-0.36s-0.29-0.13-0.47-0.19c-0.49-0.15-0.95-0.19-1.39-0.12
					c-0.52,0.08-0.99,0.28-1.4,0.6c-0.35,0.26-0.6,0.57-0.75,0.92c-0.11,0.24-0.16,0.48-0.16,0.72c0,0.01,0,0.02,0,0.03
					s0,0.02,0,0.03s0,0.02,0,0.03c0,0.25,0.05,0.5,0.16,0.74c0.28,0.63,0.9,1.09,1.85,1.39c0.33,0.11,0.64,0.18,0.93,0.21
					s0.6,0.04,0.93,0.01c0.18-0.41,0.35-0.82,0.53-1.23c0.09-0.22,0.18-0.35,0.26-0.41C87.4,68.79,87.55,68.78,87.73,68.85z"/>
				<path d="M77.09,60.76c-0.08,0.18-0.16,0.37-0.24,0.55h0.01c0,0.01-0.01,0.02-0.01,0.03h0.01c0,0.01-0.01,0.02-0.01,0.03h0.01
					c0,0.01-0.01,0.02-0.01,0.03h0.01c0,0.01-0.01,0.02-0.01,0.03c0.16,0.02,0.33,0.04,0.49,0.06c0.1-0.23,0.2-0.45,0.3-0.68
					c0.17,0.02,0.34,0.05,0.52,0.07c-0.08,0.18-0.16,0.37-0.24,0.55h0.01c0,0.01-0.01,0.02-0.01,0.03h0.01
					c0,0.01-0.01,0.02-0.01,0.03h0.01c0,0.01-0.01,0.02-0.01,0.03h0.01c0,0.01-0.01,0.02-0.01,0.03c0.16,0.02,0.33,0.05,0.49,0.07
					c0.1-0.23,0.2-0.46,0.3-0.69c0.58,0.08,1.07,0.05,1.47-0.1c0.42-0.15,0.72-0.42,0.88-0.8c0.05-0.12,0.07-0.23,0.08-0.34
					c0-0.01,0-0.02,0-0.03s0-0.02,0-0.03s0-0.02,0-0.03c0.01-0.12-0.01-0.23-0.06-0.34c-0.07-0.16-0.2-0.28-0.36-0.37
					c0.17-0.05,0.34-0.11,0.48-0.22c0.19-0.14,0.33-0.31,0.42-0.51c0.08-0.18,0.11-0.34,0.09-0.5c0-0.01,0-0.02,0-0.03
					s0-0.02,0-0.03s0-0.02,0-0.03c-0.01-0.16-0.07-0.31-0.19-0.45c-0.19-0.22-0.52-0.37-0.95-0.45c0.12-0.27,0.24-0.54,0.35-0.81
					h-0.01c0-0.01,0.01-0.02,0.01-0.03h-0.01c0-0.01,0.01-0.02,0.01-0.03h-0.01c0-0.01,0.01-0.02,0.01-0.03h-0.01
					c0-0.01,0.01-0.02,0.01-0.03c-0.16-0.02-0.32-0.04-0.49-0.06c-0.13,0.31-0.27,0.62-0.4,0.92c-0.17-0.02-0.34-0.04-0.52-0.07
					c0.12-0.26,0.23-0.53,0.35-0.79h-0.01c0-0.01,0.01-0.02,0.01-0.03h-0.01c0-0.01,0.01-0.02,0.01-0.03h-0.01
					c0-0.01,0.01-0.02,0.01-0.03h-0.01c0-0.01,0.01-0.02,0.01-0.03c-0.16-0.02-0.32-0.04-0.49-0.06c-0.13,0.31-0.27,0.62-0.4,0.92
					c-0.4-0.05-0.8-0.09-1.2-0.12c-0.08,0.18-0.16,0.36-0.24,0.54h0.01c0,0.01-0.01,0.02-0.01,0.03h0.01c0,0.01-0.01,0.02-0.01,0.03
					h0.01c0,0.01-0.01,0.02-0.01,0.03h0.01c0,0.01-0.01,0.02-0.01,0.03c0.22,0.02,0.45,0.04,0.67,0.07
					c-0.43,0.98-0.87,1.96-1.3,2.94c-0.24-0.03-0.48-0.05-0.72-0.08c-0.08,0.18-0.16,0.36-0.24,0.54h0.01
					c0,0.01-0.01,0.02-0.01,0.03h0.01c0,0.01-0.01,0.02-0.01,0.03h0.01c0,0.01-0.01,0.02-0.01,0.03h0.01c0,0.01-0.01,0.02-0.01,0.03
					C76.32,60.67,76.7,60.72,77.09,60.76z M79.21,59.08c0.41,0.06,0.68,0.15,0.81,0.28c0.06,0.06,0.08,0.13,0.1,0.21
					c-0.01,0.07-0.01,0.13-0.04,0.21c-0.07,0.17-0.17,0.29-0.28,0.37c-0.11,0.08-0.26,0.13-0.44,0.15s-0.41,0-0.7-0.04
					c-0.25-0.04-0.49-0.07-0.74-0.1c0.17-0.39,0.35-0.79,0.52-1.18C78.69,59.01,78.95,59.05,79.21,59.08z M79.9,57.3
					c0.47,0.06,0.72,0.22,0.76,0.45c-0.01,0.05-0.01,0.1-0.03,0.16c-0.1,0.22-0.25,0.37-0.45,0.45c-0.21,0.08-0.48,0.09-0.83,0.05
					c-0.21-0.03-0.41-0.06-0.62-0.08c0.16-0.37,0.32-0.74,0.49-1.1C79.44,57.24,79.67,57.27,79.9,57.3z"/>
			</g>
			<g>
				<path class="st8" d="M53.76,61.92c-0.12-0.89-0.24-1.78-0.36-2.65c-0.42,0.84-0.85,1.67-1.27,2.51
					c-0.12,0.23-0.16,0.36-0.12,0.4c0.05,0.05,0.18,0.05,0.38,0c0.06-0.02,0.12-0.03,0.18-0.05c-0.02,0.03-0.03,0.07-0.05,0.1
					c-0.59,0.15-1.17,0.32-1.76,0.49c0.02-0.03,0.03-0.07,0.05-0.1c0.06-0.02,0.12-0.03,0.18-0.05c0.21-0.06,0.39-0.15,0.53-0.27
					c0.08-0.07,0.18-0.22,0.29-0.43c0.42-0.82,0.83-1.63,1.24-2.45c0.08-0.17,0.12-0.28,0.11-0.34C53.15,59.03,53.11,59,53.04,59
					c-0.07-0.01-0.21,0.02-0.42,0.08c0.02-0.03,0.03-0.07,0.05-0.1c0.47-0.14,0.94-0.28,1.42-0.41c0.11,0.81,0.23,1.64,0.35,2.47
					c1.1-1.13,2.19-2.25,3.27-3.37c0.48-0.1,0.96-0.2,1.44-0.29c-0.02,0.03-0.03,0.07-0.05,0.1c-0.06,0.01-0.12,0.02-0.18,0.03
					c-0.22,0.04-0.39,0.12-0.53,0.24c-0.08,0.07-0.18,0.21-0.28,0.43c-0.4,0.83-0.81,1.65-1.21,2.47c-0.11,0.23-0.15,0.37-0.11,0.41
					c0.05,0.06,0.18,0.07,0.38,0.03c0.06-0.01,0.12-0.02,0.18-0.03c-0.02,0.03-0.03,0.07-0.05,0.1c-0.72,0.13-1.45,0.28-2.17,0.44
					c0.02-0.03,0.03-0.07,0.05-0.1c0.06-0.01,0.12-0.03,0.18-0.04c0.22-0.05,0.4-0.13,0.53-0.24c0.08-0.07,0.18-0.21,0.28-0.42
					c0.42-0.84,0.83-1.68,1.24-2.53c-1.17,1.2-2.35,2.41-3.53,3.62C53.84,61.9,53.8,61.91,53.76,61.92z"/>
				<path class="st8" d="M61.62,59.31c-0.66,0.09-1.32,0.18-1.98,0.29c-0.21,0.22-0.43,0.44-0.64,0.66
					c-0.16,0.16-0.25,0.28-0.29,0.35c-0.03,0.06-0.02,0.1,0.04,0.13c0.05,0.03,0.2,0.03,0.44,0.01c-0.02,0.03-0.03,0.07-0.05,0.1
					c-0.54,0.08-1.08,0.18-1.61,0.27c0.02-0.03,0.03-0.07,0.05-0.1c0.23-0.07,0.38-0.13,0.47-0.18c0.17-0.11,0.4-0.32,0.69-0.62
					c1.11-1.14,2.21-2.28,3.31-3.42c0.04-0.01,0.09-0.01,0.13-0.02c0.09,0.97,0.18,1.96,0.27,2.95c0.02,0.24,0.07,0.39,0.16,0.45
					c0.08,0.06,0.23,0.09,0.43,0.08c-0.02,0.03-0.03,0.07-0.05,0.1c-0.68,0.07-1.35,0.14-2.03,0.23c0.02-0.03,0.03-0.07,0.05-0.1
					c0.21-0.03,0.36-0.08,0.45-0.13s0.15-0.11,0.18-0.17c0.04-0.08,0.05-0.21,0.04-0.37C61.65,59.65,61.63,59.48,61.62,59.31z
					 M61.61,59.11c-0.04-0.48-0.09-0.95-0.13-1.42c-0.54,0.56-1.09,1.12-1.63,1.68C60.44,59.28,61.02,59.19,61.61,59.11z"/>
				<path class="st8" d="M66.39,58.04c0.41,0.43,0.83,0.87,1.24,1.32c0.2,0.22,0.4,0.38,0.58,0.46c0.18,0.08,0.38,0.12,0.59,0.13
					c-0.02,0.04-0.03,0.07-0.05,0.11c-0.82,0.01-1.63,0.03-2.45,0.07c0.02-0.03,0.03-0.07,0.05-0.1c0.15-0.01,0.26-0.03,0.34-0.07
					c0.08-0.04,0.13-0.08,0.15-0.13c0.02-0.05,0.03-0.09,0.02-0.12s-0.06-0.1-0.14-0.19c-0.39-0.41-0.78-0.81-1.16-1.21
					c-0.19,0.41-0.39,0.83-0.58,1.24c-0.09,0.19-0.13,0.32-0.13,0.38c0,0.05,0.04,0.08,0.1,0.11c0.09,0.04,0.19,0.05,0.31,0.05
					c0.06,0,0.12-0.01,0.17-0.01c-0.02,0.03-0.03,0.07-0.05,0.1c-0.73,0.04-1.47,0.1-2.2,0.17c0.02-0.03,0.03-0.07,0.05-0.1
					c0.06-0.01,0.12-0.01,0.18-0.02c0.21-0.02,0.39-0.08,0.53-0.18c0.09-0.07,0.19-0.21,0.3-0.44c0.39-0.82,0.78-1.65,1.16-2.48
					c0.09-0.19,0.14-0.32,0.13-0.38c0-0.04-0.04-0.08-0.1-0.1c-0.09-0.04-0.19-0.05-0.32-0.03c-0.06,0.01-0.12,0.01-0.18,0.02
					c0.02-0.03,0.03-0.07,0.05-0.1c0.73-0.07,1.46-0.14,2.18-0.19c-0.02,0.04-0.03,0.07-0.05,0.11c-0.06,0-0.12,0.01-0.17,0.01
					c-0.12,0.01-0.24,0.04-0.37,0.09c-0.09,0.04-0.17,0.09-0.23,0.15c-0.06,0.06-0.13,0.19-0.22,0.38
					c-0.18,0.39-0.37,0.79-0.55,1.18c0.07-0.04,0.3-0.17,0.69-0.4c0.99-0.57,1.6-0.93,1.84-1.11c0.1-0.08,0.17-0.15,0.19-0.2
					c0.02-0.04,0.01-0.08-0.03-0.11s-0.12-0.04-0.25-0.04c-0.04,0-0.08,0-0.12,0.01c0.02-0.04,0.03-0.07,0.05-0.11
					c0.63-0.04,1.26-0.06,1.88-0.08c-0.02,0.04-0.03,0.07-0.05,0.11c-0.11,0-0.22,0.02-0.32,0.04s-0.23,0.07-0.39,0.13
					c-0.16,0.06-0.36,0.17-0.62,0.31c-0.07,0.04-0.42,0.25-1.04,0.62C67.09,57.62,66.74,57.83,66.39,58.04z"/>
				<path class="st8" d="M71.98,56.38c-0.23,0.51-0.47,1.03-0.7,1.54c0.38,0,0.75,0.01,1.13,0.02c0.29,0.01,0.5-0.02,0.63-0.08
					c0.17-0.08,0.31-0.24,0.43-0.46c0.05,0,0.09,0,0.14,0.01c-0.2,0.45-0.41,0.91-0.61,1.36c-0.05,0-0.09,0-0.14-0.01
					c0.05-0.19,0.07-0.31,0.06-0.37c-0.02-0.07-0.07-0.12-0.15-0.17c-0.09-0.04-0.24-0.07-0.45-0.07c-0.38-0.01-0.75-0.02-1.13-0.02
					c-0.19,0.43-0.39,0.85-0.58,1.28c-0.08,0.17-0.12,0.28-0.11,0.31c0,0.04,0.03,0.07,0.07,0.09s0.13,0.04,0.27,0.04
					c0.29,0.01,0.58,0.01,0.87,0.02c0.29,0.01,0.51,0,0.65-0.02c0.15-0.02,0.3-0.08,0.46-0.16c0.21-0.11,0.45-0.28,0.72-0.51
					c0.05,0,0.1,0.01,0.15,0.01c-0.29,0.32-0.59,0.64-0.88,0.95c-1.32-0.07-2.64-0.1-3.96-0.09c0.02-0.04,0.03-0.07,0.05-0.11
					c0.06,0,0.12,0,0.18,0c0.12,0,0.25-0.02,0.38-0.07c0.09-0.03,0.17-0.08,0.23-0.14c0.06-0.06,0.13-0.19,0.21-0.37
					c0.38-0.84,0.77-1.68,1.15-2.52c0.11-0.25,0.15-0.4,0.11-0.46c-0.06-0.08-0.19-0.11-0.4-0.11c-0.06,0-0.12,0-0.18,0
					c0.02-0.04,0.03-0.07,0.05-0.11c1.32-0.02,2.63,0,3.95,0.06c-0.11,0.29-0.22,0.57-0.33,0.86c-0.05,0-0.1,0-0.15-0.01
					c0.04-0.21,0.04-0.35,0.01-0.43s-0.1-0.14-0.21-0.19c-0.09-0.03-0.26-0.05-0.51-0.06C72.92,56.39,72.45,56.39,71.98,56.38z"/>
				<path class="st8" d="M82.86,61.38c-0.02,0.04-0.03,0.07-0.05,0.11c-0.71-0.15-1.43-0.3-2.15-0.43c0.02-0.04,0.03-0.07,0.05-0.11
					c0.06,0.01,0.12,0.02,0.18,0.03c0.21,0.04,0.38,0.02,0.52-0.06c0.09-0.05,0.18-0.2,0.29-0.43c0.37-0.86,0.75-1.72,1.12-2.58
					c0.09-0.2,0.13-0.34,0.13-0.41c0-0.05-0.04-0.11-0.1-0.15c-0.09-0.07-0.19-0.11-0.31-0.13c-0.06-0.01-0.12-0.02-0.18-0.03
					c0.02-0.04,0.03-0.07,0.05-0.11c0.72,0.12,1.43,0.26,2.15,0.41c-0.02,0.04-0.03,0.07-0.05,0.11c-0.06-0.01-0.12-0.02-0.18-0.04
					c-0.2-0.04-0.37-0.02-0.51,0.06c-0.09,0.05-0.19,0.2-0.29,0.44c-0.37,0.86-0.75,1.72-1.12,2.58c-0.09,0.2-0.13,0.34-0.13,0.41
					c0,0.05,0.04,0.11,0.1,0.16c0.09,0.07,0.19,0.12,0.31,0.14C82.74,61.35,82.8,61.36,82.86,61.38z"/>
				<path class="st8" d="M89.06,58.59c-0.12,0.32-0.23,0.64-0.35,0.97c-0.05-0.01-0.09-0.03-0.14-0.04c0.05-0.17,0.06-0.3,0.04-0.39
					c-0.03-0.14-0.09-0.25-0.19-0.34c-0.1-0.09-0.25-0.16-0.46-0.22c-0.23-0.06-0.46-0.12-0.7-0.18c-0.44,1.03-0.88,2.06-1.32,3.08
					c-0.11,0.25-0.14,0.41-0.1,0.49c0.06,0.11,0.18,0.19,0.37,0.24c0.06,0.02,0.11,0.03,0.17,0.05c-0.02,0.04-0.03,0.07-0.05,0.11
					c-0.7-0.19-1.4-0.38-2.1-0.55c0.02-0.04,0.03-0.07,0.05-0.11c0.06,0.01,0.12,0.03,0.18,0.04c0.21,0.05,0.38,0.04,0.51-0.04
					c0.08-0.05,0.17-0.19,0.27-0.41c0.44-1.02,0.88-2.05,1.32-3.08c-0.2-0.05-0.4-0.1-0.6-0.14c-0.23-0.05-0.4-0.08-0.51-0.07
					c-0.14,0.01-0.28,0.06-0.42,0.14c-0.14,0.09-0.25,0.22-0.35,0.4c-0.05-0.01-0.09-0.02-0.14-0.03c0.16-0.31,0.31-0.62,0.47-0.93
					C86.38,57.87,87.73,58.21,89.06,58.59z"/>
				<path class="st8" d="M93.75,60.04c-0.16,0.48-0.32,0.96-0.48,1.44c-0.04-0.01-0.07-0.03-0.11-0.04
					c0.03-0.47-0.05-0.85-0.24-1.13c-0.19-0.28-0.48-0.49-0.86-0.62c-0.32-0.11-0.64-0.14-0.96-0.09s-0.62,0.21-0.89,0.46
					c-0.28,0.25-0.51,0.6-0.7,1.05c-0.16,0.37-0.22,0.71-0.2,1.02c0.03,0.31,0.15,0.59,0.37,0.83s0.51,0.42,0.87,0.55
					c0.31,0.11,0.61,0.16,0.9,0.13c0.29-0.02,0.64-0.15,1.07-0.38c0.03,0.03,0.06,0.07,0.08,0.1c-0.39,0.27-0.79,0.43-1.18,0.48
					s-0.81-0.01-1.25-0.16c-0.8-0.28-1.32-0.73-1.55-1.37c-0.17-0.47-0.15-0.96,0.06-1.46c0.17-0.4,0.44-0.74,0.8-1.02
					c0.36-0.27,0.78-0.44,1.24-0.51s0.92-0.02,1.37,0.13c0.35,0.12,0.66,0.31,0.94,0.58c0.08,0.08,0.14,0.13,0.18,0.14
					c0.06,0.02,0.13,0.02,0.19,0c0.08-0.03,0.16-0.09,0.23-0.18C93.67,60,93.71,60.02,93.75,60.04z"/>
				<path class="st8" d="M96.84,61.29c0.61,0.27,1.05,0.71,1.32,1.33c0.27,0.62,0.27,1.24,0.01,1.85c-0.27,0.63-0.71,1.04-1.33,1.24
					s-1.25,0.15-1.88-0.14c-0.65-0.29-1.11-0.72-1.38-1.31c-0.27-0.58-0.28-1.19-0.01-1.83c0.28-0.65,0.76-1.08,1.45-1.29
					C95.62,60.98,96.22,61.02,96.84,61.29z M96.68,61.48c-0.42-0.18-0.82-0.19-1.19-0.02c-0.46,0.21-0.83,0.64-1.11,1.29
					c-0.28,0.67-0.34,1.25-0.16,1.75c0.14,0.38,0.41,0.66,0.82,0.85c0.44,0.2,0.87,0.22,1.28,0.05c0.41-0.17,0.76-0.58,1.03-1.23
					c0.3-0.71,0.37-1.31,0.2-1.81C97.42,61.98,97.13,61.68,96.68,61.48z"/>
				<path class="st8" d="M99.72,67.72c-0.02,0.04-0.03,0.08-0.05,0.11c-0.64-0.36-1.29-0.71-1.95-1.04
					c0.02-0.04,0.03-0.08,0.05-0.11c0.05,0.03,0.11,0.06,0.16,0.08c0.19,0.1,0.35,0.12,0.47,0.06c0.08-0.04,0.17-0.18,0.28-0.43
					c0.38-0.89,0.76-1.79,1.13-2.69c0.09-0.21,0.13-0.36,0.13-0.44c0-0.06-0.03-0.13-0.08-0.2c-0.08-0.1-0.17-0.18-0.28-0.23
					c-0.05-0.03-0.11-0.05-0.16-0.08c0.02-0.04,0.03-0.08,0.05-0.11c0.66,0.33,1.31,0.67,1.96,1.02c-0.02,0.04-0.03,0.08-0.05,0.11
					c-0.05-0.03-0.11-0.06-0.16-0.09c-0.19-0.1-0.34-0.12-0.47-0.07c-0.08,0.04-0.18,0.18-0.28,0.43c-0.38,0.9-0.76,1.79-1.14,2.69
					c-0.09,0.21-0.13,0.36-0.13,0.44c0,0.06,0.03,0.13,0.08,0.21c0.07,0.1,0.17,0.18,0.27,0.24C99.61,67.66,99.67,67.69,99.72,67.72
					z"/>
				<path class="st8" d="M101.51,63.7c0.41,0.22,0.82,0.45,1.22,0.69c0.47,1.58,0.92,3.18,1.36,4.82c0.34-0.81,0.69-1.62,1.03-2.43
					c0.11-0.26,0.15-0.44,0.12-0.54c-0.04-0.14-0.15-0.26-0.32-0.37c-0.05-0.03-0.1-0.06-0.15-0.1c0.02-0.04,0.03-0.08,0.05-0.12
					c0.51,0.32,1.01,0.65,1.51,0.99c-0.02,0.04-0.03,0.08-0.05,0.12c-0.05-0.03-0.1-0.07-0.15-0.1c-0.18-0.12-0.34-0.16-0.46-0.1
					c-0.08,0.04-0.16,0.17-0.26,0.41c-0.5,1.19-1,2.37-1.5,3.55c-0.04-0.03-0.08-0.05-0.11-0.08c-0.47-1.76-0.96-3.49-1.47-5.19
					c-0.36,0.86-0.73,1.72-1.09,2.58c-0.11,0.26-0.15,0.43-0.11,0.53c0.05,0.14,0.16,0.25,0.33,0.36c0.05,0.03,0.1,0.06,0.16,0.09
					c-0.02,0.04-0.03,0.08-0.05,0.11c-0.51-0.31-1.03-0.62-1.55-0.91c0.02-0.04,0.03-0.08,0.05-0.11c0.05,0.03,0.1,0.06,0.16,0.09
					c0.19,0.11,0.35,0.13,0.47,0.07c0.08-0.04,0.16-0.17,0.26-0.41c0.41-0.97,0.82-1.94,1.23-2.91c-0.07-0.22-0.13-0.37-0.18-0.45
					c-0.05-0.08-0.13-0.18-0.24-0.29c-0.06-0.05-0.15-0.12-0.28-0.19C101.48,63.78,101.5,63.74,101.51,63.7z"/>
				<path class="st8" d="M56.29,64.06c-0.15,0.39-0.3,0.78-0.46,1.16c-0.04,0.01-0.09,0.01-0.13,0.02c0.01-0.27-0.05-0.47-0.19-0.58
					c-0.2-0.16-0.54-0.2-1.02-0.1c-0.66,0.13-1.25,0.43-1.78,0.88c-0.45,0.38-0.78,0.79-1.01,1.23c-0.18,0.36-0.25,0.66-0.21,0.91
					s0.18,0.41,0.42,0.49c0.24,0.07,0.52,0.08,0.85,0.02c0.19-0.04,0.39-0.09,0.58-0.15c0.2-0.07,0.4-0.15,0.6-0.25
					c0.18-0.36,0.36-0.72,0.55-1.08c0.09-0.19,0.14-0.31,0.13-0.36s-0.05-0.08-0.12-0.1s-0.21,0-0.41,0.03
					c0.02-0.03,0.04-0.07,0.05-0.1c0.67-0.12,1.34-0.24,2.01-0.34c-0.02,0.04-0.03,0.07-0.05,0.11c-0.03,0-0.06,0.01-0.1,0.01
					c-0.2,0.03-0.36,0.1-0.48,0.21c-0.09,0.08-0.18,0.22-0.28,0.42c-0.19,0.38-0.38,0.76-0.58,1.15c-0.35,0.16-0.68,0.29-1,0.4
					c-0.31,0.1-0.65,0.19-1,0.25c-1,0.19-1.65,0.12-1.93-0.22c-0.21-0.26-0.2-0.61,0.04-1.06c0.17-0.33,0.44-0.67,0.81-1.02
					c0.44-0.42,0.93-0.78,1.48-1.07c0.46-0.24,0.94-0.42,1.46-0.52c0.19-0.04,0.35-0.06,0.49-0.07c0.14-0.01,0.33,0,0.58,0.03
					c0.12,0.01,0.21,0.02,0.26,0.01c0.05-0.01,0.1-0.03,0.15-0.07c0.05-0.04,0.1-0.11,0.16-0.2C56.2,64.07,56.24,64.06,56.29,64.06z
					"/>
				<path class="st8" d="M60.55,67.18c-0.46,0.03-0.93,0.07-1.39,0.11c-0.3-0.53-0.6-1.06-0.9-1.58c-0.13,0.02-0.24,0.03-0.32,0.04
					c-0.03,0-0.07,0.01-0.11,0.01s-0.08,0.01-0.12,0.01c-0.18,0.36-0.36,0.73-0.54,1.09c-0.12,0.24-0.15,0.38-0.11,0.43
					c0.06,0.07,0.18,0.09,0.38,0.07c0.07-0.01,0.14-0.02,0.2-0.02c-0.02,0.03-0.03,0.07-0.05,0.1c-0.75,0.09-1.49,0.18-2.24,0.29
					c0.02-0.03,0.03-0.07,0.05-0.1c0.07-0.01,0.13-0.02,0.2-0.03c0.22-0.03,0.4-0.11,0.55-0.22c0.08-0.06,0.18-0.2,0.28-0.42
					c0.4-0.81,0.8-1.62,1.2-2.43c0.12-0.24,0.15-0.38,0.11-0.43c-0.06-0.07-0.19-0.09-0.38-0.06c-0.06,0.01-0.13,0.02-0.19,0.03
					c0.02-0.03,0.03-0.07,0.05-0.1c0.63-0.1,1.26-0.19,1.88-0.27c0.55-0.07,0.94-0.09,1.17-0.06s0.4,0.12,0.51,0.26
					c0.11,0.14,0.11,0.32,0,0.54c-0.11,0.23-0.31,0.44-0.61,0.64c-0.29,0.19-0.67,0.34-1.14,0.46c0.18,0.32,0.36,0.65,0.55,0.98
					c0.12,0.23,0.26,0.37,0.39,0.44c0.14,0.07,0.34,0.1,0.62,0.1C60.59,67.11,60.57,67.14,60.55,67.18z M57.8,65.6
					c0.05-0.01,0.09-0.01,0.13-0.01s0.06-0.01,0.09-0.01c0.5-0.06,0.91-0.18,1.24-0.37c0.33-0.18,0.55-0.4,0.67-0.64
					c0.11-0.24,0.11-0.42-0.02-0.54c-0.13-0.13-0.36-0.17-0.7-0.13c-0.15,0.02-0.36,0.06-0.63,0.13
					C58.31,64.56,58.06,65.08,57.8,65.6z"/>
				<path class="st8" d="M63.85,63.49c-0.24,0.5-0.48,1-0.72,1.51c0.38-0.02,0.76-0.03,1.14-0.05c0.3-0.01,0.51-0.05,0.64-0.12
					c0.17-0.09,0.32-0.24,0.44-0.46c0.05,0,0.09,0,0.14,0c-0.21,0.44-0.42,0.89-0.63,1.33c-0.05,0-0.09,0-0.14,0
					c0.05-0.19,0.07-0.3,0.06-0.36c-0.02-0.06-0.07-0.11-0.15-0.15c-0.09-0.03-0.24-0.05-0.46-0.04c-0.38,0.01-0.76,0.03-1.14,0.05
					c-0.2,0.42-0.4,0.84-0.6,1.25c-0.08,0.17-0.12,0.27-0.12,0.31s0.03,0.06,0.07,0.08c0.04,0.02,0.13,0.03,0.28,0.02
					c0.29-0.01,0.59-0.02,0.88-0.03s0.52-0.03,0.66-0.06c0.15-0.03,0.3-0.09,0.47-0.18c0.21-0.12,0.46-0.29,0.74-0.53
					c0.05,0,0.1,0,0.15,0c-0.3,0.32-0.6,0.64-0.9,0.96c-1.34,0.01-2.68,0.06-4.02,0.15c0.02-0.03,0.03-0.07,0.05-0.1
					c0.06,0,0.12-0.01,0.18-0.01c0.12-0.01,0.25-0.04,0.38-0.09c0.1-0.03,0.17-0.08,0.23-0.14s0.13-0.18,0.22-0.37
					c0.39-0.82,0.79-1.64,1.18-2.47c0.12-0.24,0.15-0.39,0.11-0.44c-0.06-0.07-0.19-0.1-0.41-0.08c-0.06,0-0.12,0.01-0.18,0.01
					c0.02-0.03,0.03-0.07,0.05-0.1c1.33-0.1,2.66-0.16,3.99-0.18c-0.11,0.28-0.22,0.56-0.34,0.84c-0.05,0-0.1,0-0.15,0
					c0.04-0.2,0.05-0.34,0.02-0.41c-0.03-0.07-0.1-0.13-0.21-0.17c-0.09-0.03-0.26-0.04-0.52-0.03
					C64.8,63.44,64.32,63.46,63.85,63.49z"/>
				<path class="st8" d="M69.48,65.84c-0.67-0.04-1.34-0.06-2.01-0.08c-0.21,0.2-0.42,0.4-0.63,0.6c-0.16,0.15-0.25,0.26-0.29,0.33
					c-0.03,0.06-0.01,0.11,0.04,0.16s0.2,0.08,0.45,0.1c-0.02,0.03-0.03,0.07-0.05,0.1c-0.55-0.02-1.09-0.02-1.64-0.03
					c0.02-0.03,0.03-0.07,0.05-0.1c0.23-0.03,0.39-0.06,0.47-0.11c0.17-0.09,0.4-0.27,0.69-0.54c1.1-1.04,2.2-2.08,3.29-3.12
					c0.04,0,0.09,0,0.13,0c0.11,1.09,0.22,2.2,0.32,3.31c0.03,0.27,0.08,0.45,0.16,0.53c0.08,0.09,0.23,0.14,0.43,0.17
					c-0.02,0.04-0.03,0.07-0.05,0.11c-0.68-0.06-1.36-0.11-2.04-0.15c0.02-0.03,0.03-0.07,0.05-0.1c0.21,0,0.36-0.01,0.45-0.05
					s0.15-0.09,0.18-0.15c0.04-0.08,0.05-0.22,0.03-0.4C69.52,66.22,69.5,66.03,69.48,65.84z M69.47,65.62
					c-0.05-0.53-0.11-1.07-0.16-1.6c-0.54,0.51-1.08,1.02-1.62,1.53C68.29,65.56,68.88,65.59,69.47,65.62z"/>
				<path class="st8" d="M76.33,63.8c-0.12,0.31-0.24,0.62-0.35,0.93c-0.05-0.01-0.1-0.01-0.14-0.02c0.04-0.17,0.06-0.29,0.04-0.36
					c-0.03-0.12-0.09-0.22-0.2-0.29s-0.26-0.12-0.47-0.14c-0.24-0.03-0.48-0.06-0.72-0.08c-0.45,0.99-0.89,1.99-1.34,2.97
					c-0.11,0.24-0.14,0.39-0.1,0.46c0.06,0.09,0.19,0.15,0.39,0.18c0.06,0.01,0.12,0.02,0.18,0.02c-0.02,0.04-0.03,0.07-0.05,0.11
					c-0.72-0.09-1.45-0.18-2.18-0.25c0.02-0.04,0.03-0.07,0.05-0.11c0.06,0.01,0.12,0.01,0.18,0.02c0.22,0.02,0.39-0.01,0.53-0.1
					c0.08-0.05,0.17-0.19,0.27-0.41c0.45-0.99,0.9-1.98,1.34-2.97c-0.21-0.02-0.41-0.04-0.62-0.06c-0.24-0.02-0.42-0.02-0.53,0
					c-0.15,0.03-0.29,0.09-0.43,0.18c-0.14,0.1-0.26,0.23-0.36,0.41c-0.05,0-0.1-0.01-0.14-0.01c0.16-0.3,0.32-0.6,0.47-0.91
					C73.55,63.46,74.94,63.61,76.33,63.8z"/>
				<path class="st8" d="M80.26,67.35c-0.65-0.15-1.3-0.29-1.95-0.42c-0.21,0.18-0.41,0.37-0.62,0.55
					c-0.15,0.14-0.25,0.24-0.28,0.32c-0.03,0.06-0.01,0.12,0.04,0.18s0.2,0.12,0.44,0.18c-0.02,0.04-0.03,0.07-0.05,0.11
					c-0.53-0.11-1.06-0.21-1.6-0.3c0.02-0.04,0.03-0.07,0.05-0.11c0.23,0.01,0.38,0,0.46-0.04c0.17-0.07,0.39-0.23,0.67-0.49
					c1.07-0.96,2.14-1.93,3.2-2.89c0.04,0.01,0.09,0.02,0.13,0.03c0.1,1.22,0.2,2.45,0.3,3.69c0.02,0.3,0.08,0.5,0.16,0.61
					s0.22,0.19,0.42,0.26c-0.02,0.04-0.03,0.07-0.05,0.11c-0.65-0.17-1.31-0.34-1.97-0.49c0.02-0.04,0.03-0.07,0.05-0.11
					c0.2,0.04,0.35,0.04,0.44,0.02c0.09-0.03,0.15-0.07,0.18-0.14c0.04-0.09,0.05-0.23,0.03-0.44
					C80.3,67.78,80.28,67.56,80.26,67.35z M80.26,67.11c-0.05-0.6-0.1-1.19-0.15-1.78c-0.53,0.47-1.05,0.94-1.58,1.41
					C79.1,66.86,79.68,66.98,80.26,67.11z"/>
				<path class="st8" d="M88,66.47c-0.14,0.44-0.28,0.88-0.42,1.31c-0.04-0.01-0.08-0.03-0.13-0.04c0.01-0.36-0.05-0.65-0.18-0.88
					c-0.19-0.33-0.51-0.57-0.97-0.71c-0.62-0.19-1.19-0.13-1.69,0.18c-0.42,0.26-0.73,0.63-0.94,1.09
					c-0.16,0.38-0.22,0.75-0.18,1.12c0.05,0.37,0.19,0.67,0.42,0.9c0.23,0.24,0.5,0.4,0.81,0.5c0.18,0.06,0.36,0.1,0.55,0.12
					c0.18,0.02,0.37,0.02,0.56,0c0.17-0.39,0.33-0.77,0.5-1.16c0.09-0.2,0.12-0.34,0.11-0.41c-0.01-0.07-0.05-0.14-0.11-0.2
					s-0.19-0.12-0.39-0.18c0.02-0.04,0.03-0.07,0.05-0.11c0.63,0.2,1.26,0.42,1.88,0.64c-0.02,0.04-0.03,0.08-0.05,0.11
					c-0.03-0.01-0.06-0.02-0.09-0.03c-0.19-0.07-0.34-0.06-0.45,0.02c-0.08,0.06-0.17,0.19-0.26,0.41
					c-0.18,0.41-0.35,0.82-0.53,1.23c-0.33,0.02-0.64,0.02-0.93-0.01s-0.6-0.11-0.93-0.21c-0.95-0.31-1.57-0.76-1.85-1.39
					c-0.21-0.47-0.21-0.95,0-1.43c0.15-0.35,0.4-0.66,0.75-0.92c0.41-0.31,0.88-0.52,1.4-0.6c0.44-0.07,0.9-0.03,1.39,0.12
					c0.18,0.06,0.34,0.12,0.47,0.19c0.14,0.07,0.32,0.19,0.55,0.36c0.12,0.09,0.2,0.14,0.24,0.15c0.05,0.02,0.09,0.01,0.14-0.01
					c0.05-0.02,0.1-0.08,0.15-0.18C87.92,66.44,87.96,66.46,88,66.47z"/>
				<path class="st8" d="M90.91,70.84c-0.61-0.26-1.22-0.52-1.84-0.76c-0.2,0.17-0.4,0.34-0.6,0.51c-0.15,0.13-0.24,0.23-0.27,0.3
					c-0.03,0.06-0.01,0.13,0.04,0.2s0.19,0.16,0.41,0.27c-0.02,0.04-0.03,0.07-0.05,0.11c-0.5-0.2-1.01-0.39-1.51-0.58
					c0.02-0.04,0.03-0.07,0.05-0.11c0.21,0.04,0.36,0.06,0.44,0.03c0.16-0.05,0.38-0.19,0.65-0.43c1.04-0.89,2.07-1.78,3.1-2.66
					c0.04,0.02,0.08,0.03,0.12,0.05c0.07,1.35,0.14,2.72,0.21,4.09c0.02,0.33,0.06,0.56,0.13,0.69c0.07,0.13,0.2,0.25,0.39,0.35
					c-0.02,0.04-0.03,0.07-0.05,0.11c-0.61-0.29-1.23-0.57-1.85-0.84c0.02-0.04,0.03-0.07,0.05-0.11c0.19,0.07,0.33,0.1,0.42,0.09
					c0.09-0.02,0.14-0.06,0.17-0.12c0.04-0.09,0.05-0.25,0.04-0.48C90.94,71.31,90.93,71.07,90.91,70.84z M90.91,70.58
					c-0.03-0.66-0.07-1.32-0.11-1.98c-0.51,0.43-1.02,0.87-1.53,1.3C89.82,70.12,90.37,70.34,90.91,70.58z"/>
				<path class="st8" d="M94.41,74.02c-0.02,0.04-0.03,0.07-0.05,0.11c-0.65-0.34-1.31-0.68-1.98-1c0.02-0.04,0.03-0.07,0.05-0.11
					c0.05,0.03,0.11,0.05,0.16,0.08c0.19,0.09,0.35,0.11,0.48,0.06c0.08-0.04,0.17-0.18,0.28-0.42c0.37-0.88,0.74-1.76,1.12-2.64
					c0.09-0.21,0.13-0.35,0.13-0.43c0-0.06-0.03-0.13-0.09-0.2c-0.08-0.1-0.17-0.17-0.28-0.22c-0.05-0.03-0.11-0.05-0.16-0.08
					c0.02-0.04,0.03-0.07,0.05-0.11c0.67,0.31,1.33,0.64,1.98,0.98c-0.02,0.04-0.03,0.07-0.05,0.11c-0.06-0.03-0.11-0.06-0.17-0.09
					c-0.19-0.1-0.35-0.12-0.47-0.06c-0.08,0.04-0.18,0.18-0.28,0.42c-0.37,0.88-0.75,1.76-1.12,2.64c-0.09,0.21-0.13,0.35-0.13,0.43
					c0,0.06,0.03,0.13,0.09,0.2c0.08,0.1,0.17,0.18,0.28,0.23C94.3,73.96,94.35,73.99,94.41,74.02z"/>
				<path class="st8" d="M96.17,70.07c0.41,0.21,0.83,0.43,1.24,0.66c0.49,1.54,0.96,3.1,1.42,4.7c0.34-0.79,0.67-1.59,1.01-2.39
					c0.11-0.25,0.14-0.43,0.11-0.53c-0.04-0.14-0.15-0.26-0.33-0.36c-0.05-0.03-0.1-0.06-0.15-0.09c0.02-0.04,0.03-0.08,0.05-0.11
					c0.51,0.31,1.03,0.63,1.53,0.95c-0.02,0.04-0.03,0.08-0.05,0.11c-0.05-0.03-0.1-0.07-0.15-0.1c-0.18-0.12-0.34-0.15-0.46-0.09
					c-0.07,0.04-0.16,0.17-0.26,0.4c-0.49,1.17-0.98,2.33-1.47,3.49c-0.04-0.02-0.08-0.05-0.12-0.07c-0.5-1.72-1.01-3.41-1.54-5.06
					c-0.36,0.85-0.71,1.69-1.07,2.53c-0.11,0.25-0.14,0.43-0.11,0.52c0.05,0.13,0.16,0.25,0.34,0.35c0.05,0.03,0.11,0.06,0.16,0.09
					c-0.02,0.04-0.03,0.07-0.05,0.11c-0.52-0.3-1.05-0.59-1.57-0.87c0.02-0.04,0.03-0.07,0.05-0.11c0.05,0.03,0.11,0.06,0.16,0.08
					c0.19,0.1,0.35,0.13,0.48,0.07c0.08-0.04,0.16-0.17,0.26-0.4c0.4-0.95,0.8-1.9,1.21-2.86c-0.07-0.21-0.13-0.36-0.18-0.44
					s-0.13-0.18-0.25-0.28c-0.06-0.05-0.15-0.11-0.29-0.18C96.14,70.15,96.16,70.11,96.17,70.07z"/>
				<path class="st8" d="M81.03,59.95c0.1-0.23,0.1-0.44,0.01-0.65c-0.09-0.21-0.26-0.36-0.51-0.46c0.24-0.04,0.45-0.12,0.64-0.26
					s0.33-0.31,0.42-0.51c0.15-0.35,0.12-0.66-0.1-0.91c-0.2-0.23-0.53-0.38-0.99-0.47c0.14-0.31,0.27-0.62,0.41-0.93
					c-0.16-0.02-0.32-0.04-0.49-0.06c-0.13,0.31-0.27,0.62-0.4,0.92c-0.19-0.02-0.37-0.05-0.56-0.07c0.13-0.31,0.27-0.62,0.4-0.92
					c-0.16-0.02-0.32-0.04-0.49-0.06c-0.13,0.31-0.27,0.62-0.4,0.92c-0.4-0.05-0.8-0.09-1.2-0.12c-0.08,0.18-0.16,0.36-0.24,0.54
					c0.24,0.02,0.48,0.05,0.71,0.07l0,0c-0.45,1.03-0.91,2.05-1.36,3.07c-0.24-0.03-0.48-0.05-0.72-0.08
					c-0.08,0.18-0.16,0.36-0.24,0.54c0.4,0.04,0.8,0.09,1.2,0.14c-0.1,0.23-0.2,0.45-0.3,0.68c0.16,0.02,0.33,0.04,0.49,0.06
					c0.1-0.23,0.2-0.45,0.3-0.68c0.19,0.02,0.37,0.05,0.56,0.08c-0.1,0.23-0.2,0.45-0.3,0.68c0.16,0.02,0.33,0.05,0.49,0.07
					c0.1-0.23,0.2-0.46,0.3-0.69c0.58,0.08,1.07,0.05,1.47-0.1C80.57,60.6,80.86,60.33,81.03,59.95z M80.62,57.91
					c-0.1,0.22-0.25,0.37-0.45,0.45c-0.21,0.08-0.48,0.09-0.83,0.05c-0.22-0.03-0.44-0.06-0.66-0.09c0.18-0.41,0.36-0.82,0.54-1.23
					c0.23,0.03,0.46,0.06,0.69,0.09C80.55,57.26,80.79,57.51,80.62,57.91z M79.78,60.16c-0.11,0.08-0.26,0.13-0.44,0.15
					s-0.41,0-0.7-0.04c-0.26-0.04-0.52-0.07-0.79-0.11c0.19-0.44,0.39-0.87,0.58-1.31c0.26,0.03,0.51,0.07,0.77,0.1
					c0.41,0.06,0.68,0.15,0.81,0.28c0.13,0.13,0.14,0.31,0.04,0.55C79.99,59.95,79.89,60.08,79.78,60.16z"/>
			</g>
		</g>
		
			<linearGradient id="SVGID_00000116226251921966460850000011929865174872027801_" gradientUnits="userSpaceOnUse" x1="108.2193" y1="71.0849" x2="112.1579" y2="20.6715" gradientTransform="matrix(1 0 0 -1 0 149.8898)">
			<stop  offset="0" style="stop-color:#000000"/>
			<stop  offset="0.0438" style="stop-color:#120505;stop-opacity:0.9562"/>
			<stop  offset="0.1705" style="stop-color:#431213;stop-opacity:0.8295"/>
			<stop  offset="0.301" style="stop-color:#6C1D20;stop-opacity:0.699"/>
			<stop  offset="0.433" style="stop-color:#8E272A;stop-opacity:0.567"/>
			<stop  offset="0.5671" style="stop-color:#A82E31;stop-opacity:0.4329"/>
			<stop  offset="0.7041" style="stop-color:#BB3337;stop-opacity:0.2959"/>
			<stop  offset="0.8459" style="stop-color:#C6363A;stop-opacity:0.1541"/>
			<stop  offset="1" style="stop-color:#CA373B;stop-opacity:0"/>
		</linearGradient>
		<path style="fill:url(#SVGID_00000116226251921966460850000011929865174872027801_);" d="M129.49,100.52
			c0-0.16-0.05-0.33-0.14-0.47c-0.18-0.27-0.46-0.45-0.74-0.62c-2.64-1.64-5.3-3.29-8.12-4.62c-1.33-0.63-2.69-1.04-4.04-1.53
			c-1.43-0.52-2.63-1.45-4.13-1.82c-2.39-0.59-4.93-0.01-7.2,0.93c-2.19,0.9-4.23,2.36-6.48,3.07c-1.54,0.49-2.91,1.41-4.44,1.9
			c-1.32,0.43-2.45,1-3.57,1.88c-0.21,0.16-0.43,0.41-0.32,0.65c0.06,0.13,0.19,0.2,0.32,0.25c1.63,0.64,3.38-0.47,5.12-0.63
			c0.85-0.08,1.7,0.08,2.55,0.22c5.54,0.94,11.16,1.32,16.76,1.7c2.94,0.2,5.88,0.4,8.83,0.4c1.7,0,3.43-0.06,5.03-0.65
			c0.15-0.05,0.3-0.12,0.41-0.23C129.45,100.84,129.5,100.68,129.49,100.52z"/>
		<g>
			<g>
				<path d="M16.32,96.68c0.46-2.78,4.26-3.88,6.58-4.4c3.13-0.71,6.42-0.61,9.54,0.08c6.45,1.43,12.02,5.28,18.07,7.76
					c2.95,1.21,5.99,2.19,9.09,2.93c3.33,0.79,6.72,1.37,10.15,1.41c6.85,0.07,13.65-1.66,19.94-4.28
					c6.91-2.88,13.43-6.75,20.7-8.73c-0.18,0-0.35,0-0.53,0c4.06,1.32,8.15,2.63,12.05,4.37c1.91,0.85,3.78,1.8,5.57,2.9
					c1.4,0.86,2.62,1.93,2.04,3.7c-0.23,0.71,0.52,1.47,1.23,1.23c2.97-0.99,2.38-4.36,2.86-6.76c0.17-0.87,0.51-1.73,0.76-2.58
					c0.3-1.02,0.58-2.04,0.83-3.07c0.5-2.08,0.87-4.22,0.93-6.36c0.05-2.1-0.21-4.24-0.92-6.22c-0.69-1.94-1.72-3.73-2.8-5.48
					c-2.23-3.57-4.66-7-7.1-10.43c-2.53-3.57-5.21-7.04-8.74-9.69c0.12,0.12,0.24,0.24,0.36,0.36c-0.49-1.17-1.5-2.08-2.56-2.74
					c-1.2-0.76-2.6-1.12-3.91-0.43c0.26-0.03,0.51-0.07,0.77-0.1c-11.56-4.35-23.75-8.86-36.33-7.41c-1.62,0.19-3.26,0.66-4.88,0.71
					c-1.51,0.05-2.96,0.66-4.03,1.73c0.15-0.09,0.29-0.17,0.44-0.26c-5.11,1.52-9.51,4.74-13.09,8.63c-1.9,2.07-3.6,4.33-5.18,6.66
					c-1.59,2.34-3.12,4.72-4.19,7.35c-1.15,2.84-1.77,5.91-1.86,8.97c0.1-0.24,0.2-0.47,0.29-0.71c-4.8,3.96-11.14,5.21-16.78,7.49
					c-2.87,1.16-5.64,2.58-7.98,4.63c-2.53,2.23-4.76,5.72-3.32,9.17c0.58,1.4,1.86,2.45,3.16,3.17c1.32,0.74,2.78,1.2,4.3,0.97
					c1.89-0.28,3.62-1.2,5.32-2.03c1.72-0.84,3.47-1.6,5.37-1.94c0.11-0.02,0.3-0.03,0.42-0.07s-0.33,0.03-0.13,0.02
					c0.06,0,0.11-0.01,0.17-0.02c0.13-0.01,0.27-0.02,0.4-0.03c1.02-0.05,2.05,0.01,3.07,0.1c1.87,0.17,3.72,0.49,5.68,0.9
					c3.12,0.65,6.2,1.47,9.26,2.37c0.95,0.28,1.9,0.57,2.85,0.87c1.23,0.39,1.76-1.54,0.53-1.93c-5.92-1.87-12.02-3.62-18.23-4.21
					c-2.4-0.23-4.54-0.13-6.83,0.67c-2.07,0.72-3.94,1.84-5.96,2.66c-0.85,0.35-1.83,0.71-2.76,0.71c-0.74,0-1.48-0.28-2.13-0.61
					c-1.45-0.73-2.82-1.84-2.92-3.57c-0.12-1.93,0.97-3.63,2.27-4.96c4.93-5.04,12.39-6.25,18.65-8.89
					c1.64-0.69,3.25-1.47,4.76-2.43c0.73-0.47,1.47-0.97,2.11-1.54c0.46-0.41,0.43-0.89,0.46-1.46c0.03-0.54,0.08-1.07,0.14-1.61
					c0.26-2.08,0.81-4.15,1.58-6.09c0.8-2.02,1.97-3.86,3.15-5.67c2.34-3.57,4.92-7.01,8.08-9.9c1.46-1.34,3.05-2.53,4.75-3.54
					c0.87-0.51,1.77-0.98,2.7-1.38c0.43-0.19,0.87-0.35,1.32-0.51c0.5-0.17,1.13-0.26,1.54-0.61c0.66-0.58,1.32-0.99,2.22-1.12
					c0.44-0.06,0.89,0.03,1.33-0.04c0.58-0.1,1.16-0.26,1.75-0.36c2.21-0.4,4.46-0.58,6.71-0.6c4.57-0.03,9.11,0.65,13.54,1.73
					c4.44,1.08,8.77,2.56,13.05,4.12c1.08,0.4,2.16,0.8,3.24,1.2c0.47,0.18,0.96,0.43,1.45,0.54c0.54,0.13,0.95-0.29,1.49-0.2
					c0.88,0.16,1.73,0.84,2.33,1.48c0.31,0.33,0.45,0.7,0.68,1.08c0.26,0.42,0.85,0.73,1.22,1.05c3.09,2.59,5.46,5.87,7.76,9.14
					c2.54,3.6,5.13,7.19,7.36,11.01c1.1,1.88,1.99,3.84,2.37,5.99c0.37,2.12,0.25,4.34-0.1,6.45c-0.37,2.21-0.97,4.37-1.61,6.51
					c-0.25,0.83-0.52,1.63-0.63,2.49c-0.08,0.67-0.11,1.35-0.17,2.03c-0.08,0.93-0.2,2.3-1.18,2.63c0.41,0.41,0.82,0.82,1.23,1.23
					c1.42-4.3-3.62-6.5-6.69-8c-3.93-1.92-8.08-3.36-12.23-4.73c-0.5-0.16-1-0.33-1.5-0.49c-0.21-0.07-0.42-0.16-0.64-0.21
					c-0.34-0.07-0.64,0.03-0.96,0.12c-1.07,0.3-2.13,0.65-3.18,1.02c-2.02,0.72-3.99,1.57-5.95,2.45c-3.96,1.79-7.83,3.8-11.86,5.44
					c-4.12,1.67-8.43,2.94-12.84,3.54c-4.38,0.6-8.74,0.42-13.08-0.44c-4.12-0.82-8.16-2.05-12.03-3.68
					c-3.95-1.67-7.64-3.86-11.59-5.53c-3.94-1.67-8.06-2.77-12.37-2.61c-2.08,0.08-4.16,0.43-6.13,1.1
					c-1.76,0.6-3.58,1.43-4.81,2.87c-0.58,0.68-1.03,1.47-1.18,2.36c-0.09,0.53,0.14,1.08,0.7,1.23
					C15.57,97.51,16.23,97.22,16.32,96.68L16.32,96.68z"/>
			</g>
		</g>
		<path class="st10" d="M130.95,102.87c0,0-8.71,7.18-42.45-2.63"/>
	</g>
</g>
</svg>
