<?xml version="1.0" encoding="utf-8"?>
<!-- Generator: Adobe Illustrator 28.0.0, SVG Export Plug-In . SVG Version: 6.00 Build 0)  -->
<svg version="1.1" id="Layer_1" xmlns="http://www.w3.org/2000/svg" xmlns:xlink="http://www.w3.org/1999/xlink" x="0px" y="0px"
	 viewBox="0 0 150 150" style="enable-background:new 0 0 150 150;" xml:space="preserve">
<style type="text/css">
	.st0{stroke:#000000;stroke-width:2;stroke-linecap:round;stroke-linejoin:round;stroke-miterlimit:10;}
	.st1{fill:#EBEBEB;}
	.st2{fill:#FFFFFF;}
	.st3{fill:#E89928;}
	.st4{fill:url(#SVGID_1_);}
	.st5{fill:url(#SVGID_00000162348706143244940760000013277454047751333016_);}
	.st6{fill:url(#SVGID_00000063632652300844673880000005659740384996601224_);}
	.st7{fill:url(#SVGID_00000103257600020182210820000016441321900821302449_);}
	.st8{fill:url(#SVGID_00000004504223852413331860000015414179903485233814_);}
	.st9{fill:url(#SVGID_00000017493485447744741850000017179278210801488053_);}
	.st10{fill:url(#SVGID_00000145750444365829479130000015609782695542886591_);}
	.st11{fill:url(#SVGID_00000123418271384134607420000004410706373596581002_);}
	.st12{fill:url(#SVGID_00000125588255720062642720000006413442611463868064_);}
	.st13{fill:url(#SVGID_00000047049328520201341280000000682795998253472644_);}
	.st14{fill:url(#SVGID_00000136369660288513578470000015221491607257055159_);}
	.st15{fill:url(#SVGID_00000113315146197457378940000003435416527795060127_);}
	.st16{fill:url(#SVGID_00000013904925498919476590000008802347268921653633_);}
	.st17{fill:url(#SVGID_00000066504007104342337510000001460251830452648331_);}
	.st18{fill:url(#SVGID_00000128468654384449324770000013341668785738596015_);}
	.st19{fill:url(#SVGID_00000149341988391898789620000001611293894145328558_);}
	.st20{fill:none;stroke:#000000;stroke-linecap:round;stroke-linejoin:round;stroke-miterlimit:10;}
	.st21{fill:none;stroke:#000000;stroke-width:0.5;stroke-linecap:round;stroke-linejoin:round;stroke-miterlimit:10;}
	.st22{fill:none;stroke:#000000;stroke-width:2;stroke-linecap:round;stroke-linejoin:round;stroke-miterlimit:10;}
	.st23{fill:url(#SVGID_00000015347507378992909510000013812248206394386328_);}
	.st24{fill:url(#SVGID_00000026876677658813501860000014440790532417550740_);}
</style>
<g id="Cryptobro_Shirt">
	<g>
		<path class="st0" d="M138.37,70.23c-0.48-1.38-1.14-2.71-1.93-3.94c-0.33-0.51-0.7-1.05-1.12-1.55c-0.19-1.11-0.38-2.22-0.7-3.29
			c-0.16-0.53-0.35-1.06-0.58-1.57c-0.22-0.49-0.49-0.96-0.56-1.5c-0.07-0.57,0.01-1.16,0-1.73c-0.01-0.6-0.07-1.2-0.15-1.8
			c-0.08-0.52-0.17-1.04-0.4-1.51c-0.23-0.47-0.62-0.8-1.03-1.11c-0.34-0.24-0.78-0.51-0.88-0.96c-0.05-0.22,0.12-0.4,0.06-0.62
			c-0.07-0.25-0.23-0.5-0.34-0.74c-0.45-0.98-0.9-1.96-1.34-2.94c-0.93-2.06-1.87-4.12-2.82-6.17c-0.94-2.02-1.9-4.02-2.91-6
			c-0.49-0.96-0.99-1.91-1.51-2.85c-0.39-0.72-0.82-1.39-1.35-2.02c-2.03-2.38-5.03-3.69-7.94-4.63c-2.95-0.95-6-1.53-8.98-2.38
			c-0.15-0.45-0.36-0.86-0.61-1.26c-0.37-0.59-0.78-1.2-1.29-1.68c-0.26-0.25-0.54-0.36-0.87-0.49c-0.53-0.21-1.06-0.41-1.6-0.59
			c-1.08-0.36-2.18-0.67-3.3-0.91c-10.95-2.32-23.22,0.59-32.6,6.49c-0.77,0.49-1.57,1.09-2.13,1.84
			c-5.67,3.46-11.15,7.23-16.43,11.24c-0.63,0.48-1.31,0.94-1.86,1.51c-0.51,0.53-0.84,1.16-1.09,1.84
			c-0.23,0.64-0.39,1.3-0.66,1.93c-0.28,0.64-0.71,1.14-1.21,1.61c-0.5,0.46-1.04,0.88-1.48,1.4c-0.49,0.57-0.85,1.22-1.18,1.9
			c-0.76,1.56-1.51,3.13-2.26,4.69c-1.66,3.44-3.31,6.88-4.97,10.31c-0.38-0.17-0.77-0.31-1.19-0.3c-0.55,0.02-1,0.3-1.39,0.67
			c-0.36,0.35-0.7,0.73-1.09,1.06c-0.41,0.36-0.85,0.67-1.31,0.96c-0.09,0.06-0.14,0.13-0.17,0.21c-0.01,0.02-0.02,0.04-0.02,0.06
			c-0.01,0.02-0.01,0.03-0.01,0.05c-0.03,0.13-0.01,0.28,0.12,0.4c0.63,0.63,1.21,1.3,1.74,2.02c0.39,0.53,0.75,1.08,1.14,1.6
			c0.15,0.2,0.39,0.3,0.63,0.16c0.19-0.11,0.31-0.43,0.15-0.64c0.33,0.07,0.64,0.18,0.91,0.39c0.6,0.47,0.89,1.28,1.17,1.97
			c0.64,1.59,1.09,3.25,1.53,4.9c0.47,1.78,0.94,3.57,1.42,5.35c0.46,1.73,0.88,3.47,1.39,5.18c0.27,0.92,0.61,1.8,0.93,2.7
			c0.3,0.84,0.49,1.68,0.32,2.58c-0.11,0.59-0.21,1.18-0.33,1.76c-0.03,0.15-0.07,0.3-0.1,0.46c-0.03,0.12-0.08,0.25-0.14,0.36
			c-0.11,0.18-0.2,0.31-0.36,0.46c-0.34,0.35-0.74,0.64-1.15,0.9c-0.44,0.29-0.9,0.56-1.34,0.85c-0.2,0.13-0.39,0.26-0.58,0.4
			c-0.27,0.2-0.49,0.46-0.77,0.64c-0.14,0.09-0.2,0.22-0.2,0.36c-0.02,0.05-0.03,0.1-0.03,0.15c0.06,0.92,0.17,2.01,0.94,2.65
			c0.35,0.29,0.78,0.47,1.21,0.62c0.32,0.11,0.66,0.2,1,0.27c-0.02,0.29-0.04,0.58-0.05,0.87c-0.06,1.54-0.03,3.08,0.03,4.62
			c0.06,1.54,0.08,3.09,0.11,4.63c0.06,3.15,0.16,6.32,0.38,9.46c0.1,1.53,0.32,3.07,0.32,4.6c0,1.49-0.22,2.97-0.26,4.46
			c-0.1,3.37,5.3,1.07,6.81,0.35c1.28-0.61,2.5-1.35,3.8-1.92c1.37-0.6,2.86-0.91,4.33-1.14c3.13-0.5,6.29-0.81,9.45-1.02
			c6.27-0.43,12.57-0.39,18.83,0.05c6.24,0.44,12.45,1.29,18.6,2.47c1.53,0.29,3.05,0.61,4.57,0.94c1.13,0.25,2.76,0.88,3.71-0.11
			c0.45-0.46,0.54-1.12,0.63-1.73c0.11-0.75,0.21-1.5,0.3-2.25c0.18-1.53,0.24-3.05,0.23-4.58c-0.01-1.54,0.18-3.08,0.26-4.62
			c0.08-1.56-0.08-3.09-0.2-4.64c-0.13-1.56-0.01-3.08,0.23-4.63c0.23-1.48,0.52-2.95,0.61-4.45c0.1-1.51-0.06-3.06,0.32-4.54
			c0.37-1.44,1.1-2.8,1.67-4.17c1.14-2.74,1.86-5.62,2.71-8.46c0.35-1.18,0.66-2.37,0.85-3.58c0.14,0.09,0.27,0.18,0.38,0.31
			c0.12,0.15,0.23,0.31,0.35,0.45c0.14,0.15,0.3,0.27,0.45,0.41c0.33,0.29,0.62,0.61,0.95,0.89c0.51,0.44,2.43,0.76,2.56-0.19
			c0.03-0.25-0.04-0.49-0.13-0.73c-0.62-1.74-1.6-3.37-2.41-5.03c-0.09-0.21,0.1-0.44,0.22-0.6c0.16-0.22,0.34-0.45,0.55-0.64
			c0.42-0.39,1-0.64,1.49-0.92c1.25-0.71,2.5-1.43,3.75-2.14s2.5-1.43,3.75-2.14c1.19-0.68,2.36-1.4,3.59-1.99
			c1.25-0.59,2.65-1,4-0.53c0.94,0.3,1.65,1.28,2.18,2.07c0.2,0.35,0.41,0.7,0.63,1.03c0.54,0.96,1,1.97,1.42,2.99
			c0.02,0.05,0.05,0.09,0.08,0.13c0.09,0.15,0.26,0.25,0.48,0.18C139.79,75.45,138.99,72.01,138.37,70.23z"/>
		<g>
			<path class="st1" d="M137.42,69.64c-0.25-0.62-0.52-1.23-0.8-1.83c-0.36-0.79-0.72-1.59-1.27-2.27
				c-0.18-0.22-0.38-0.43-0.53-0.68c-0.22-0.36-0.29-0.88-0.31-1.29c-0.04-0.71-0.05-1.42-0.22-2.11c-0.32-1.3-1.22-2.41-1.44-3.73
				c-0.13-0.77-0.02-1.57,0-2.35s-0.05-1.62-0.5-2.26c-0.39-0.56-0.98-0.79-1.53-1.15c-0.14-0.09-0.29-0.2-0.36-0.36
				c-0.1-0.25,0.05-0.53,0.03-0.79c-0.01-0.11-0.04-0.21-0.08-0.31c-0.63-1.82-1.42-3.58-2.2-5.34c-0.34-0.77-0.89-1.39-1.29-2.14
				c-0.41-0.77-0.75-1.59-1.09-2.4c-1.57-3.79-3.13-7.65-5.69-10.86c-0.52-0.65-1.09-1.28-1.82-1.69c-0.76-0.43-1.73-0.6-2.57-0.88
				c-3.87-1.29-7.74-2.6-11.62-3.86c-0.22-0.07-0.52-0.03-0.7-0.17c-0.05-0.04-0.09-0.1-0.13-0.15c-0.63-0.9-0.99-2-1.81-2.73
				c-0.63-0.57-1.46-0.85-2.26-1.1c-1.3-0.4-2.62-0.73-3.96-1.01c-1.82-0.37-3.58-0.61-5.44-0.63c-3.1-0.04-6.19,0.34-9.26,0.81
				c-1.4,0.21-2.8,0.45-4.16,0.84c-1.08,0.31-2.13,0.72-3.18,1.13c-3.65,1.42-7.21,2.73-10.47,4.94c-0.3,0.2-0.61,0.42-0.84,0.7
				c-0.2,0.24-0.34,0.52-0.55,0.75c-0.24,0.27-0.55,0.45-0.86,0.63c-3.38,1.99-6.66,4.07-9.84,6.36c-2.19,1.57-4.34,3.21-6.43,4.92
				c-0.43,0.35-0.87,0.71-1.21,1.15c-0.69,0.88-0.81,2.03-1.32,2.99c-0.55,1.03-1.29,1.79-2.16,2.55c-0.18,0.15-0.36,0.31-0.49,0.5
				c-0.1,0.14-0.18,0.31-0.25,0.46c-0.57,1.18-1.38,2.2-1.97,3.38c-0.28,0.57-0.63,1.09-0.91,1.67c-0.33,0.7-0.66,1.41-0.99,2.11
				c-0.66,1.41-1.31,2.81-1.97,4.22c-0.79,1.7-1.59,3.39-2.5,5.03c-0.06,0.11-0.13,0.23-0.25,0.25c-0.09,0.02-0.18-0.02-0.27-0.05
				c-0.33-0.13-0.7-0.22-1.05-0.12c-0.26,0.08-0.48,0.25-0.69,0.42c-0.43,0.35-0.86,0.72-1.31,1.04c-0.4,0.28-0.76,0.56-1.02,0.99
				c-0.04,0.06-0.07,0.12-0.07,0.19c-0.01,0.1,0.06,0.19,0.11,0.28c0.57,0.81,1.19,1.6,1.84,2.35c0.07,0.08,0.14,0.16,0.23,0.2
				c0.12,0.07,0.27,0.07,0.4,0.08c0.48,0.03,0.96,0.13,1.38,0.36c0.45,0.25,0.89,0.71,1.16,1.16c0.18,0.31,0.31,0.65,0.44,0.99
				c0.24,0.65,0.49,1.3,0.73,1.95c0.14,0.38,0.28,0.75,0.39,1.14c0.33,1.21,0.49,2.47,0.79,3.7c0.32,1.31,0.68,2.6,1.04,3.89
				c0.73,2.6,1.46,5.2,2.19,7.81c0.12,0.44,0.25,0.89,0.29,1.35c0.06,0.61-0.1,1.11-0.16,1.7c-0.05,0.52-0.02,1.01-0.14,1.53
				c-0.11,0.48-0.27,0.95-0.59,1.33c-0.15,0.18-0.34,0.34-0.52,0.49c-0.51,0.41-1.06,0.78-1.63,1.11c-0.53,0.3-1.21,0.45-1.52,1.02
				c-0.48,0.84-0.23,2.08,0.56,2.64c0.44,0.32,0.98,0.48,1.48,0.69c0.11,0.05,0.22,0.1,0.32,0.17c0.71,0.56,0.36,1.99,0.32,2.74
				c-0.11,1.97,0.2,3.94,0.31,5.91c0.13,2.21-0.29,4.37-0.05,6.59c0.25,2.31,0.77,4.61,0.66,6.94c-0.07,1.7-0.18,3.38-0.21,5.08
				c-0.02,1.15-0.45,2.45,1.02,2.91c0.71,0.22,1.48,0.07,2.2-0.12c1.35-0.35,2.66-0.81,3.93-1.38c1.84-0.82,3.59-1.87,5.51-2.48
				c1.89-0.6,3.88-0.75,5.86-0.89c3.44-0.26,6.84-0.76,10.3-0.89c3.6-0.14,7.2-0.02,10.79,0.2c3.91,0.24,7.8,0.67,11.68,1.19
				c3.78,0.5,7.64,0.9,11.35,1.76c0.96,0.22,1.91,0.45,2.86,0.7c0.84,0.22,1.66,0.54,2.54,0.45c0.54-0.05,1.09-0.28,1.4-0.74
				c0.21-0.32,0.29-0.71,0.34-1.08c0.34-2.16,0.44-4.35,0.53-6.53c0.05-1.23,0.11-2.46,0.13-3.7c0.06-2.87-0.26-5.74,0-8.59
				c0.19-2.17,0.39-4.34,0.58-6.52c0.11-1.25,0.22-2.5,0.45-3.73c0.21-1.15,0.58-2,1.08-3.06c0.36-0.78,0.63-1.6,0.9-2.42
				c0.52-1.57,1.03-3.14,1.55-4.71c0.43-1.31,0.86-2.62,1.2-3.95c0.11-0.43,0.3-2.99,0.82-2.93c0.14,0.02,0.27,0.09,0.4,0.17
				c0.68,0.43,1.31,1.06,1.93,1.58c0.27,0.23,0.55,0.47,0.88,0.61c0.38,0.17,0.8,0.22,1.22,0.28c1.4,0.2,2.78,0.58,4.09,1.14
				c0.52,0.22,0.88,0.29,1.39,0.07c0.53-0.22,1.09-0.39,1.63-0.59c1.1-0.4,2.19-0.83,3.26-1.31c2.11-0.94,4.15-2.09,5.91-3.61
				c0.14-0.12,0.28-0.25,0.41-0.37c0.76-0.7,1.44-1.47,2.13-2.24c0.99-1.11,2.08-2.35,2.4-3.84
				C138.59,72.59,137.95,70.94,137.42,69.64z"/>
		</g>
		<g>
			<path class="st2" d="M37.75,47.75c-0.46,0.99-0.8,2.04-1.23,3.05c-0.44,1.04-0.86,2.09-1.32,3.12c-0.07,0.17-0.15,0.33-0.23,0.49
				c-0.8,1.52-1.59,3.04-2.34,4.59c-0.04,0.06-0.07,0.12-0.1,0.18c-0.09,0.01-0.18,0.07-0.19,0.19c-0.01,0.05,0,0.11-0.01,0.16
				c-0.06,0.12-0.13,0.24-0.18,0.37c-0.02,0.05-0.02,0.1-0.01,0.15c-0.22,0.47-0.44,0.94-0.65,1.42c-0.28,0.65-0.65,1.36-0.81,2.06
				c-0.35-0.12-0.7-0.23-1.04-0.33c-0.11-0.03-0.22-0.05-0.33-0.07c-0.04-0.06-0.1-0.1-0.18-0.11c-0.16-0.01-0.33,0.05-0.49,0.15
				c-0.31,0.08-0.61,0.25-0.9,0.47c-0.68,0.51-1.42,1.02-2.02,1.62c-0.21,0.21,0.06,0.56,0.32,0.41c0.18-0.11,0.36-0.23,0.54-0.36
				c0.25-0.09,0.53-0.05,0.79-0.05c0.34,0,0.76-0.07,0.78-0.48c0.01-0.15-0.04-0.28,0.03-0.42c0.07-0.15,0.18-0.26,0.3-0.37
				c0.09-0.08,0.18-0.14,0.28-0.21c0.26-0.07,0.5-0.03,0.78,0.06c0.65,0.21,1.29,0.45,1.93,0.68c0.57,0.2,1.05,0.35,1.44,0.83
				c0.16,0.21,0.52-0.02,0.44-0.26c-0.2-0.58-0.82-0.89-1.36-1.1c-0.13-0.05-0.26-0.09-0.39-0.14c0.15-0.16,0.25-0.42,0.33-0.6
				s0.16-0.26,0.33-0.35c0.19-0.11,0.35-0.26,0.45-0.46c0.03-0.05,0.04-0.11,0.06-0.16c0.17,0.4,0.36,0.79,0.56,1.18
				c0.17,0.34,0.4,0.64,0.74,0.81c0.02,0.01,0.03-0.02,0.01-0.02c-0.73-0.44-0.89-1.5-1.03-2.27c-0.09-0.51-0.15-1.02-0.2-1.53
				c0.01-0.2,0.03-0.39,0.04-0.58c0.28-0.59,0.57-1.18,0.86-1.77c0.16-0.28,0.32-0.55,0.48-0.83c0.54-0.99,1.05-2,1.51-3.03
				c0.45-1.01,0.89-2.04,1.24-3.09c0.35-1.09,0.73-2.21,0.9-3.34C37.9,47.73,37.79,47.66,37.75,47.75z"/>
			<path class="st2" d="M54.71,30.91c-0.74,0.41-1.43,0.92-2.12,1.4c-0.7,0.48-1.39,0.98-2.07,1.48c-1.33,0.97-2.65,1.97-3.94,2.99
				c-0.06,0.05-0.12,0.09-0.18,0.14c-0.06-0.06-0.17-0.09-0.27-0.05c-0.3,0.13-0.56,0.42-0.78,0.66c-0.17,0.18-0.32,0.38-0.46,0.59
				c-0.1,0.08-0.21,0.16-0.31,0.25c-0.55,0.45-1.22,0.88-1.63,1.47c-0.44,0.63-0.38,1.41-0.33,2.14c0.06,0.8,0.17,1.6,0.3,2.4
				c0.29,1.83,0.63,3.71,0.41,5.57c-0.01,0.05,0.07,0.06,0.08,0.01c0.36-1.52,0.27-3.04,0.08-4.58c-0.07-0.53-0.14-1.06-0.21-1.59
				c0.02-0.29,0.04-0.58,0.05-0.87c0.01-0.39-0.03-0.81,0.08-1.19c0.13-0.46,0.52-0.77,0.86-1.1c0.41-0.17,0.82-0.33,1.22-0.49
				c1-0.4,2.01-0.79,3.02-1.16c0.01,0,0.01-0.02-0.01-0.02c-1.17,0.36-2.34,0.7-3.51,1.03c-0.1,0.03-0.2,0.05-0.3,0.08
				c0.21-0.4,0.29-0.84,0.47-1.27c0.26-0.3,0.54-0.56,0.84-0.8c0.66-0.51,1.39-0.82,2.17-1.11c0.28-0.1,0.55-0.24,0.71-0.5
				c0.13-0.2,0.19-0.41,0.35-0.59c0.13-0.15,0.3-0.28,0.46-0.41c0.79-0.66,1.65-1.27,2.38-1.99c0.02-0.02,0.04-0.05,0.04-0.07
				c0.23-0.17,0.46-0.34,0.69-0.51c0.72-0.53,1.47-1.02,2.15-1.59C55.13,31.07,54.9,30.8,54.71,30.91z"/>
			<path class="st2" d="M67.85,22.5c-0.38,0.07-0.74,0.31-1.07,0.5c-0.36,0.2-0.71,0.42-1.04,0.67c-0.31,0.23-0.59,0.51-0.94,0.69
				c-0.34,0.18-0.71,0.3-1.04,0.48c-0.58,0.31-1.1,0.74-1.53,1.24c-0.21,0.25-0.41,0.52-0.55,0.81c-0.15,0.3-0.22,0.63-0.34,0.94
				c-0.01,0.03,0.05,0.06,0.06,0.03c0.14-0.32,0.38-0.58,0.6-0.85c0.21-0.25,0.42-0.5,0.65-0.73c0.46-0.45,1.01-0.83,1.6-1.09
				c0.33-0.15,0.68-0.25,0.99-0.43c0.32-0.18,0.59-0.45,0.88-0.67c0.32-0.23,0.65-0.44,0.99-0.64c0.32-0.18,0.68-0.33,0.94-0.6
				C68.22,22.7,68.06,22.47,67.85,22.5z"/>
			<path class="st2" d="M78.42,29.65c-1.45,0.35-2.86,0.92-4.28,1.39c-0.67,0.22-1.34,0.43-2.03,0.58
				c-0.72,0.15-1.45,0.18-2.18,0.28c-0.33,0.04-0.65,0.14-0.97,0.22c-0.43,0.11-0.79,0.05-1.2-0.1c-0.25-0.09-0.51-0.24-0.78-0.22
				c-0.06,0-0.12,0.01-0.18,0.04c-0.04,0.07-0.09,0.08-0.14,0.01c-0.14-0.02-0.34-0.16-0.47-0.23c-0.59-0.3-1.16-0.67-1.6-1.17
				c-0.49-0.55-0.72-1.14-0.88-1.86c-0.01-0.05-0.08-0.04-0.09,0c-0.35,0.98,0.31,2.08,1.02,2.72c0.42,0.38,0.92,0.67,1.43,0.92
				c0.19,0.09,0.43,0.25,0.65,0.26c0.23,0.01,0.29-0.18,0.51-0.11c0.56,0.17,1.07,0.38,1.67,0.25c0.29-0.06,0.57-0.18,0.86-0.24
				c0.34-0.07,0.69-0.1,1.04-0.12c1.24-0.11,2.43-0.42,3.61-0.82c1.38-0.47,2.81-0.92,4.13-1.53
				C78.71,29.86,78.59,29.61,78.42,29.65z"/>
			<path class="st2" d="M97.65,20.19c-0.13-0.21-0.43-0.07-0.39,0.16c0.09,0.5-0.07,0.88-0.46,1.21c-0.3,0.26-0.73,0.4-0.99,0.7
				c-0.11,0.13-0.11,0.25-0.18,0.39c-0.1,0.2-0.34,0.34-0.52,0.47c-0.34,0.25-0.69,0.46-1.05,0.67c-1.44,0.84-3.11,1.31-4.47,2.29
				c-0.07,0.05-0.03,0.19,0.06,0.15c0.89-0.37,1.77-0.75,2.66-1.11c0.87-0.35,1.76-0.69,2.56-1.18c0.36-0.22,0.76-0.46,1.05-0.76
				c0.15-0.15,0.17-0.29,0.25-0.47c0.11-0.24,0.44-0.36,0.64-0.51C97.4,21.78,98.12,20.95,97.65,20.19z"/>
			<path class="st2" d="M103.21,22.46c-0.34-0.48-0.68-0.97-1.03-1.46c-0.23-0.32-0.46-0.64-0.78-0.88
				c-0.17-0.13-0.35-0.23-0.55-0.29c-0.25-0.07-0.5-0.06-0.73-0.17c-0.43-0.22-0.84-0.49-1.29-0.68c-1.76-0.77-3.79-1.04-5.69-0.98
				c-0.08,0-0.1,0.13-0.02,0.14c1.82,0.36,3.7,0.44,5.41,1.22c0.31,0.14,0.59,0.31,0.87,0.49c0.01,0.04,0.04,0.08,0.08,0.11
				c0.31,0.22,0.65,0.38,0.96,0.6c0.03,0.02,0.11,0.06,0.12,0.1c-0.02-0.07-0.03,0.1-0.03,0.09c0,0.04,0,0.07,0.01,0.11
				c0.04,0.17,0.19,0.27,0.36,0.3c0.32,0.07,0.62,0.13,0.91,0.29c0.03,0.01,0.05,0.03,0.08,0.05c0.3,0.41,0.6,0.81,0.89,1.22
				C102.96,22.97,103.39,22.72,103.21,22.46z"/>
			<path class="st2" d="M130.29,49.69c-0.57-0.83-1.11-1.68-1.6-2.56c-0.11-0.2-0.23-0.4-0.29-0.62c-0.05-0.18-0.05-0.38-0.11-0.56
				c-0.07-0.2-0.17-0.34-0.34-0.41c-0.24-1.2-0.72-2.32-1.25-3.41c-0.6-1.26-1.21-2.51-1.83-3.77c-0.18-0.36-0.35-0.73-0.52-1.1
				c0.03-0.1-0.01-0.21-0.08-0.3c-0.04-0.05-0.09-0.1-0.14-0.16c-0.32-0.68-0.67-1.35-1.11-1.94c-0.1-0.14-0.42-0.42-0.37-0.59
				c0.02-0.06,0.16-0.12,0.19-0.19c0.05-0.1,0.06-0.24,0.03-0.34c-0.07-0.23-0.32-0.47-0.46-0.65c-0.21-0.28-0.43-0.55-0.64-0.82
				c-0.36-0.46-0.72-0.92-1.08-1.37c0.01-0.02,0.03-0.04,0.04-0.07c0.07-0.24-0.12-0.49-0.27-0.67c-0.05-0.06-0.1-0.1-0.15-0.15
				c0.14-0.07,0.18-0.32,0.02-0.39c-0.02-0.01-0.05-0.02-0.08-0.03c0-0.06-0.01-0.12-0.07-0.18c-0.82-0.71-1.82-1.2-2.83-1.59
				c-0.51-0.2-1.04-0.37-1.58-0.5s-1.1-0.2-1.64-0.36c-0.51-0.15-0.85-0.52-1.33-0.74c-0.49-0.22-1.1-0.17-1.62-0.27
				c-1.05-0.22-2.05-0.65-3.03-1.07c-0.52-0.22-1.04-0.44-1.57-0.62c-0.59-0.2-1.21-0.29-1.83-0.37c-0.04,0-0.05,0.04-0.02,0.06
				c0.66,0.19,1.28,0.52,1.91,0.81c0.6,0.28,1.2,0.58,1.81,0.86c1.19,0.56,2.38,0.98,3.7,1.11c0.4,0.04,0.63,0.23,0.95,0.44
				c0.26,0.18,0.56,0.3,0.86,0.38c0.66,0.19,1.36,0.26,2.02,0.45c0.14,0.04,0.28,0.1,0.42,0.15c-0.25,0.3,0.03,0.75,0.29,0.98
				c-1.26-0.02-2.52,0.06-3.77,0.13c-0.02,0-0.02,0.04,0,0.04c1.22,0.02,2.45,0.05,3.67,0.16c0.86,0.08,1.71,0.27,2.55,0.42
				c0.39,0.52,0.78,1.03,1.17,1.54c0.32,0.41,0.65,0.82,0.97,1.23c0.11,0.14,0.21,0.27,0.32,0.41c0.06,0.2,0.11,0.39,0.13,0.59
				c0.03,0.26,0,0.51-0.09,0.75c-0.09,0.23-0.17,0.44-0.09,0.68c0.08,0.22,0.27,0.38,0.42,0.54c0.2,0.2,0.4,0.4,0.61,0.6
				c0.35,0.34,0.68,0.72,1.05,1.05c0.32,0.65,0.64,1.3,0.96,1.95c0.54,1.09,1.1,2.17,1.64,3.26c0.52,1.07,1,2.16,1.24,3.33
				c0,0.01,0.01,0.01,0.01,0.02c0,0.12-0.01,0.24-0.02,0.36c-0.05,0.38-0.14,0.76-0.22,1.13c-0.08,0.39-0.21,0.78-0.31,1.16
				c-0.11,0.4-0.21,0.81-0.31,1.21c0,0.02,0.02,0.02,0.02,0.01c0.31-0.84,0.59-1.69,0.9-2.52c0.11-0.31,0.22-0.63,0.29-0.97
				c0.06,0.22,0.1,0.54,0.13,0.6c0.13,0.37,0.34,0.72,0.53,1.06c0.11,0.21,0.25,0.4,0.37,0.6c0.19,0.39,0.4,0.76,0.53,1.18
				c0.17,0.54,0.26,1.11,0.29,1.68c0.06,1.21-0.12,2.53-0.45,3.69c-0.01,0.04,0.04,0.05,0.06,0.02c0.25-0.66,0.5-1.29,0.67-1.99
				c0.15-0.61,0.2-1.27,0.18-1.9c-0.01-0.35-0.05-0.74-0.12-1.13C130.19,50.09,130.41,49.88,130.29,49.69z"/>
			<path class="st2" d="M134.25,63.25c0-0.61-0.16-1.24-0.43-1.8c0.03-0.15,0.01-0.31-0.03-0.46c-0.09-0.39-0.31-0.76-0.48-1.12
				c-0.32-0.66-0.61-1.43-1.16-1.94c-0.51-0.48-1.17-0.7-1.86-0.68c-0.05,0-0.07,0.08-0.01,0.1c0.66,0.17,1.3,0.47,1.68,1.06
				c0.38,0.6,0.57,1.31,0.85,1.96c0.11,0.26,0.37,0.66,0.31,0.95c-0.03,0.13-0.14,0.24-0.19,0.37c-0.06,0.14-0.07,0.3-0.02,0.45
				c0.1,0.29,0.36,0.53,0.5,0.81c0.15,0.28,0.19,0.74,0.45,0.94c0.11,0.09,0.31,0.11,0.39-0.05
				C134.34,63.66,134.31,63.45,134.25,63.25z"/>
			<path class="st2" d="M137.44,70.16c-0.05-0.85-0.63-1.7-0.99-2.46c-0.24-0.51-0.37-0.99-0.72-1.4c-0.36-0.42-0.66-0.88-1.04-1.29
				c-0.7-0.75-1.56-1.37-2.58-1.59c-0.67-0.14-1.37-0.16-2.06-0.17c-0.68-0.01-1.48-0.11-2.13,0.1c-0.1,0.03-0.11,0.19,0,0.22
				c0.35,0.1,0.72,0.08,1.08,0.1c0.4,0.02,0.8,0.06,1.2,0.1c0.63,0.07,1.31,0.14,1.93,0.32c0.1,0.08,0.19,0.16,0.27,0.26
				c0.08,0.09,0.14,0.19,0.19,0.3c-0.03,0.06-0.02,0.13,0.04,0.17c0.01,0.01,0.02,0.01,0.03,0.02c0.01,0.02,0.02,0.04,0.03,0.07
				c0.05,0.2,0.02,0.43,0.14,0.61c-0.96-0.21-1.96-0.27-2.93-0.2c-0.02,0-0.02,0.03,0,0.03c1.27,0.05,2.51,0.16,3.66,0.75
				c0.49,0.25,0.96,0.55,1.45,0.8c0.13,0.07,0.28,0.14,0.43,0.21c0.4,0.56,0.78,1.13,1.14,1.71
				C136.79,69.15,137.08,70.02,137.44,70.16z"/>
			<path class="st2" d="M124.37,64.38c0.09-0.31,0.2-0.62,0.33-0.91c0.01-0.02-0.02-0.04-0.03-0.02c-0.15,0.25-0.29,0.52-0.4,0.79
				c-0.01,0-0.01-0.01-0.03,0c-1.26,0.31-2.49,1-3.63,1.63c-1.15,0.64-2.25,1.4-3.33,2.16c-0.02,0.02,0,0.05,0.03,0.04
				c1.13-0.66,2.31-1.24,3.48-1.83c0.58-0.29,1.16-0.58,1.74-0.86c0.55-0.26,1.11-0.52,1.64-0.83c-0.08,0.25-0.14,0.5-0.17,0.76
				c-0.01,0.11,0.16,0.13,0.18,0.02c0.05-0.31,0.11-0.62,0.19-0.92C124.37,64.38,124.37,64.38,124.37,64.38z"/>
			<path class="st2" d="M65.35,83.8c-2,0.61-4.04,1.11-6.07,1.63c-1,0.26-2,0.52-3.01,0.77c-0.5,0.12-1,0.27-1.5,0.4
				c-0.52,0.14-1.06,0.23-1.57,0.42c-0.07,0.02-0.06,0.14,0.02,0.14c0.5-0.04,0.99-0.18,1.47-0.28c0.51-0.11,1.02-0.2,1.52-0.32
				c1.03-0.24,2.06-0.51,3.08-0.79c2.05-0.56,4.06-1.23,6.08-1.85C65.46,83.89,65.43,83.77,65.35,83.8z"/>
			<path class="st2" d="M44.61,121.47c-1.98,0.52-3.96,1.03-5.94,1.57c-0.79,0.22-1.61,0.5-2.21,1.08c-0.03,0.03-0.06,0.07-0.09,0.1
				c-0.12-0.04-0.25-0.02-0.32,0.14c-0.1,0.22-0.15,0.44-0.18,0.66c-0.14,0.36-0.19,0.76-0.11,1.16c0.02,0.1,0.08,0.16,0.15,0.2
				c0.03,0.28,0.06,0.57,0.07,0.86c0.01,1.06-0.46,2.05-0.56,3.09c-0.04,0.39,0.57,0.39,0.61,0c0.09-0.98,0.51-1.9,0.55-2.89
				c0.01-0.24-0.01-0.49-0.04-0.74c0.01-0.02,0.03-0.04,0.04-0.06c0.08-0.27,0.08-0.54,0.04-0.81c-0.02-0.12-0.04-0.24-0.07-0.36
				c-0.02-0.07-0.1-0.23-0.07-0.3c0.02-0.06,0.15-0.13,0.2-0.17c0.1-0.08,0.21-0.17,0.31-0.25c0.22-0.18,0.44-0.36,0.66-0.53
				c0.06-0.05,0.08-0.12,0.08-0.19c0.61-0.28,1.28-0.44,1.93-0.61c1.71-0.45,3.41-0.9,5.12-1.35
				C45.15,121.96,44.99,121.37,44.61,121.47z"/>
			<path class="st2" d="M105.02,124.79c-0.52-0.46-1.22-0.68-1.86-0.95c-0.38-0.16-0.78-0.29-1.16-0.45
				c-0.3-0.13-0.65-0.37-0.98-0.36c-0.03,0-0.06,0.04-0.04,0.06c0.17,0.23,0.48,0.32,0.73,0.45c0.31,0.16,0.62,0.33,0.93,0.51
				c0.56,0.34,1.17,0.61,1.71,0.99c0.24,0.17,0.43,0.34,0.5,0.63c0.08,0.31,0.08,0.65,0.09,0.97c0.01,0.34,0,0.69-0.02,1.03
				c-0.02,0.35-0.1,0.72-0.06,1.07c0.02,0.18,0.27,0.29,0.37,0.1c0.18-0.32,0.21-0.71,0.26-1.07c0.05-0.38,0.07-0.76,0.06-1.14
				C105.55,126.01,105.55,125.26,105.02,124.79z"/>
			<path class="st2" d="M89.64,119.67c-4.87-0.72-9.77-0.8-14.67-0.42c-4.91,0.38-9.8,1.02-14.7,1.45
				c-2.76,0.24-5.51,0.45-8.27,0.62c-0.39,0.02-0.39,0.63,0,0.61c4.92-0.31,9.83-0.73,14.73-1.25c4.84-0.52,9.68-1.1,14.56-1.06
				c2.74,0.02,5.49,0.24,8.2,0.64C89.86,120.32,90.02,119.73,89.64,119.67z"/>
			<path class="st2" d="M98.85,114.15c-0.05-0.33-0.06-0.66-0.08-0.99c0.02-0.18,0.01-0.36-0.02-0.53
				c-0.01-0.13-0.05-0.26-0.13-0.36l-0.01-0.01c-0.01-0.01-0.01-0.03-0.02-0.04c-0.1-0.15-0.25-0.28-0.43-0.33
				c-0.14-0.04-0.32-0.02-0.43-0.13c-0.07-0.06-0.16-0.01-0.17,0.07c-1.17-0.39-2.35-0.74-3.55-1.01c-1.34-0.3-2.7-0.48-4.06-0.68
				c-1.41-0.21-2.82-0.48-4.24-0.53c-0.06,0-0.07,0.09-0.01,0.1c1.26,0.36,2.56,0.53,3.85,0.75c1.26,0.21,2.52,0.42,3.77,0.68
				c1.23,0.26,2.45,0.6,3.65,1c0.29,0.1,0.61,0.18,0.89,0.32c0.4,0.19,0.38,0.4,0.45,0.81c0.07,0.34,0.14,0.67,0.17,1.01
				c0.03,0.3,0.02,0.62,0.1,0.92c0.06,0.23,0.4,0.18,0.41-0.05C99.01,114.81,98.9,114.48,98.85,114.15z"/>
		</g>
		<g>
			
				<ellipse transform="matrix(0.7859 -0.6184 0.6184 0.7859 -24.8068 57.7194)" class="st3" cx="70.94" cy="64.68" rx="21.91" ry="19.95"/>
			<path class="st2" d="M77.65,67.13c0.13-1-0.07-1.9-0.59-2.69s-1.27-1.31-2.24-1.56c0.8-0.31,1.47-0.81,2-1.51
				c0.53-0.7,0.86-1.5,0.97-2.4c0.2-1.55-0.22-2.79-1.24-3.69c-0.92-0.8-2.25-1.21-3.94-1.24c0.18-1.38,0.35-2.75,0.53-4.13
				c-0.59,0.02-1.18,0.04-1.77,0.07c-0.17,1.36-0.35,2.73-0.52,4.09c-0.68,0.03-1.36,0.06-2.04,0.1c0.18-1.36,0.35-2.72,0.53-4.08
				c-0.59,0.03-1.18,0.07-1.77,0.1c-0.18,1.36-0.35,2.72-0.53,4.08c-1.44,0.09-2.88,0.19-4.32,0.31c-0.1,0.8-0.21,1.6-0.32,2.39
				c0.86-0.07,1.72-0.14,2.58-0.19l0,0c-0.59,4.55-1.19,9.08-1.8,13.6c-0.86,0.05-1.73,0.11-2.59,0.18
				c-0.11,0.79-0.21,1.59-0.32,2.38c1.45-0.11,2.9-0.2,4.35-0.27c-0.13,1-0.27,2.01-0.4,3.01c0.59-0.03,1.19-0.06,1.78-0.08
				c0.13-1,0.27-2.01,0.4-3.02c0.68-0.03,1.36-0.05,2.05-0.07c-0.13,1.01-0.27,2.01-0.4,3.02c0.59-0.02,1.19-0.03,1.78-0.05
				c0.13-1.01,0.27-2.02,0.4-3.04c2.1-0.09,3.81-0.54,5.09-1.42C76.66,70.12,77.44,68.82,77.65,67.13z M74.24,59.01
				c-0.12,0.97-0.51,1.69-1.16,2.16s-1.61,0.72-2.87,0.77c-0.81,0.03-1.61,0.06-2.41,0.1c0.24-1.82,0.47-3.63,0.71-5.45
				c0.83-0.04,1.66-0.08,2.49-0.11C73.38,56.38,74.46,57.25,74.24,59.01z M73.47,68.86c-0.31,0.42-0.78,0.72-1.4,0.91
				s-1.45,0.3-2.49,0.33c-0.96,0.03-1.91,0.06-2.87,0.1c0.26-1.93,0.51-3.87,0.76-5.81c0.93-0.04,1.87-0.08,2.81-0.11
				c1.5-0.05,2.54,0.16,3.13,0.6c0.58,0.44,0.81,1.19,0.67,2.24C73.99,67.87,73.78,68.45,73.47,68.86z"/>
		</g>
		<g>
			
				<linearGradient id="SVGID_1_" gradientUnits="userSpaceOnUse" x1="82.7776" y1="723.7997" x2="80.5474" y2="701.0735" gradientTransform="matrix(1 7.523686e-03 -7.523686e-03 1 4.3617 -688.1442)">
				<stop  offset="0" style="stop-color:#000000"/>
				<stop  offset="0.0874" style="stop-color:#1C1C1C;stop-opacity:0.9188"/>
				<stop  offset="0.3436" style="stop-color:#696969;stop-opacity:0.6809"/>
				<stop  offset="0.5719" style="stop-color:#A7A7A7;stop-opacity:0.4687"/>
				<stop  offset="0.7642" style="stop-color:#D3D3D3;stop-opacity:0.2901"/>
				<stop  offset="0.913" style="stop-color:#EEEEEE;stop-opacity:0.1519"/>
				<stop  offset="1" style="stop-color:#F8F8F8;stop-opacity:0.0711"/>
			</linearGradient>
			<path class="st4" d="M97.26,20.95c0.05-0.08,0.09-0.17,0.12-0.26c0.04-0.1,0.06-0.22,0.02-0.32c-0.06-0.14-0.21-0.21-0.35-0.26
				c-2.12-0.79-4.36-1.01-6.61-1.17c-6.85-0.48-13.95,0.71-20.26,3.41c-0.29,0.12-0.58,0.25-0.86,0.38
				c-2.02,0.92-4.07,2.09-5.17,4.02c-0.92,1.61,0.13,3.99,1.77,4.78c0.71,0.34,1.53,0.35,2.31,0.3c0.6-0.04,1.2-0.12,1.79-0.19
				c1.82-0.23,3.66-0.46,5.4-1.06c0.49-0.17,0.97-0.36,1.45-0.53c0.88-0.3,1.84-0.5,2.71-0.75c2.75-0.78,5.51-1.57,8.16-2.65
				c3.02-1.23,5.9-2.82,8.53-4.75C96.66,21.63,97.04,21.33,97.26,20.95z"/>
			
				<linearGradient id="SVGID_00000134964389590548563030000014192465777897765522_" gradientUnits="userSpaceOnUse" x1="29.7556" y1="749.5941" x2="32.0355" y2="765.5964" gradientTransform="matrix(1 0 0 1 0 -692)">
				<stop  offset="0" style="stop-color:#000000"/>
				<stop  offset="0.0874" style="stop-color:#1C1C1C;stop-opacity:0.9188"/>
				<stop  offset="0.3436" style="stop-color:#696969;stop-opacity:0.6809"/>
				<stop  offset="0.5719" style="stop-color:#A7A7A7;stop-opacity:0.4687"/>
				<stop  offset="0.7642" style="stop-color:#D3D3D3;stop-opacity:0.2901"/>
				<stop  offset="0.913" style="stop-color:#EEEEEE;stop-opacity:0.1519"/>
				<stop  offset="1" style="stop-color:#F8F8F8;stop-opacity:0.0711"/>
			</linearGradient>
			<path style="fill:url(#SVGID_00000134964389590548563030000014192465777897765522_);" d="M27.86,63.54
				c0.28-0.32,0.57-0.69,0.98-0.76c0.2-0.03,0.4,0,0.59,0.05c1.8,0.42,3.44,1.53,4.5,3.05c0.24,0.35,0.46,0.72,0.67,1.09
				c1.33,2.33,2.56,4.83,2.68,7.51c0.01,0.21,0,0.43-0.13,0.59c-0.1,0.11-0.24,0.16-0.38,0.21c-0.46,0.17-0.92,0.37-1.35,0.61
				c-0.27,0.15-0.54,0.32-0.76,0.54c-0.34,0.35-0.52,0.79-0.64,1.26c-0.08,0.29-0.04,1.05-0.29,1.2c-0.55-1.43-0.94-2.96-1.29-4.45
				c-0.26-1.12-0.46-2.26-0.91-3.31c-0.46-1.05-1.22-2.03-2.28-2.46c-0.18-0.07-0.38-0.13-0.57-0.09c-0.17,0.03-0.31,0.14-0.48,0.17
				c-0.47,0.1-0.99-0.94-1.24-1.25c-0.39-0.48-0.78-0.96-1.09-1.5c-0.35-0.62,0.03-0.75,0.53-1.1
				C26.93,64.48,27.42,64.04,27.86,63.54z"/>
			
				<linearGradient id="SVGID_00000104668150555423975490000012555835104901845634_" gradientUnits="userSpaceOnUse" x1="27.2712" y1="739.3373" x2="41.0544" y2="746.9844" gradientTransform="matrix(1 0 0 1 0 -692)">
				<stop  offset="0" style="stop-color:#000000"/>
				<stop  offset="0.0874" style="stop-color:#1C1C1C;stop-opacity:0.9188"/>
				<stop  offset="0.3436" style="stop-color:#696969;stop-opacity:0.6809"/>
				<stop  offset="0.5719" style="stop-color:#A7A7A7;stop-opacity:0.4687"/>
				<stop  offset="0.7642" style="stop-color:#D3D3D3;stop-opacity:0.2901"/>
				<stop  offset="0.913" style="stop-color:#EEEEEE;stop-opacity:0.1519"/>
				<stop  offset="1" style="stop-color:#F8F8F8;stop-opacity:0.0711"/>
			</linearGradient>
			<path style="fill:url(#SVGID_00000104668150555423975490000012555835104901845634_);" d="M43.25,49.52
				c-0.09,0.93-0.27,1.85-0.45,2.77c-0.29,1.51-0.59,3.03-0.88,4.54c-0.75-1.62-1.3-3.33-1.61-5.09c-0.1-0.59-0.23-1.25-0.73-1.58
				c-0.09-0.06-0.21-0.11-0.32-0.09c-0.13,0.03-0.22,0.15-0.3,0.26c-0.66,0.95-1.18,2.03-1.56,3.12c-0.16,0.46-0.24,0.93-0.47,1.38
				c-0.24,0.47-0.57,0.9-0.8,1.38c-0.07,0.14-0.13,0.29-0.14,0.45c-0.06,0.96,0.77,1.8,0.91,2.73c0.07,0.46-0.01,0.94,0.06,1.4
				c0.15,0.91,0.82,1.44,1.37,2.1c-0.39,0.29-2.03-1.46-2.34-1.79c-0.14-0.15-0.3-0.31-0.5-0.3c-0.28,0.02-0.41,0.35-0.46,0.62
				c-0.12,0.71-0.1,1.45,0.06,2.15c0.08,0.33,0.19,0.67,0.15,1.01s-0.28,0.69-0.62,0.72c-0.44,0.03-0.86-0.48-1.23-0.66
				c-0.47-0.23-0.99-0.46-1.5-0.63c-0.31-0.11-0.64-0.2-0.92-0.38c-0.27-0.19-0.49-0.5-0.46-0.83c0.02-0.24,0.17-0.45,0.3-0.64
				c1.74-2.53,2.83-5.53,4.1-8.32c1.03-2.26,2.43-4.31,3.39-6.6c0.57-1.38,1.64-2.24,2.56-3.39c0.29-0.36,0.56-0.74,0.78-1.15
				c0.16-0.29,0.29-0.76,0.55-0.99c0.31-0.27,0.25-0.26,0.43,0.06c0.22,0.38,0.22,1.16,0.29,1.6C43.24,45.4,43.46,47.46,43.25,49.52
				z"/>
			
				<linearGradient id="SVGID_00000063627959761432399000000016108278023108323204_" gradientUnits="userSpaceOnUse" x1="36.1353" y1="718.3948" x2="57.843" y2="730.1154" gradientTransform="matrix(1 0 0 1 0 -692)">
				<stop  offset="0" style="stop-color:#000000"/>
				<stop  offset="0.0874" style="stop-color:#1C1C1C;stop-opacity:0.9188"/>
				<stop  offset="0.3436" style="stop-color:#696969;stop-opacity:0.6809"/>
				<stop  offset="0.5719" style="stop-color:#A7A7A7;stop-opacity:0.4687"/>
				<stop  offset="0.7642" style="stop-color:#D3D3D3;stop-opacity:0.2901"/>
				<stop  offset="0.913" style="stop-color:#EEEEEE;stop-opacity:0.1519"/>
				<stop  offset="1" style="stop-color:#F8F8F8;stop-opacity:0.0711"/>
			</linearGradient>
			<path style="fill:url(#SVGID_00000063627959761432399000000016108278023108323204_);" d="M46.24,52.1
				c-0.45-1.06-0.59-2.25-0.43-3.39c0.02-0.13,0.05-0.27,0.14-0.36s0.23-0.12,0.35-0.14c1.64-0.25,3.3,0.06,4.94,0.31
				c4.07,0.62,8.18,0.92,12.3,0.89c-1.11-0.77-1.96-1.85-2.8-2.92c-1.31-1.66-2.61-3.33-3.92-4.99c-0.63-0.81-1.29-1.66-1.47-2.67
				c-0.04-0.23-0.06-0.48,0.04-0.69c0.15-0.34,0.53-0.51,0.87-0.65c1.9-0.74,3.9-1.38,5.44-2.71c0.27-0.24,0.54-0.51,0.63-0.86
				c0.27-1.04-1.12-1.98-0.84-3.02c0.52-0.06,1.04-0.13,1.51-0.37c0.46-0.24,0.85-0.69,0.86-1.21c0.01-0.39-0.19-0.76-0.2-1.16
				c-0.01-0.32,0.11-0.64,0.22-0.94c0.35-0.91,0.74-1.88,1.52-2.46c0.37-0.27,0.8-0.45,1.15-0.74s0.61-0.78,0.45-1.21
				c-1.63,0.86-3.17,1.88-4.7,2.89c-4.64,3.07-9.29,6.14-13.81,9.38c-1.67,1.19-3.31,2.41-4.91,3.7c-0.31,0.25-0.62,0.51-0.8,0.87
				c-0.2,0.4-0.21,0.87-0.19,1.32c0.04,1.16,0.29,2.27,0.45,3.41c0.12,0.85,0.06,1.64,0.29,2.5C43.84,48.85,44.85,50.65,46.24,52.1z
				"/>
			
				<linearGradient id="SVGID_00000101783106170254874020000003123452601248075705_" gradientUnits="userSpaceOnUse" x1="33.56" y1="784.536" x2="35.2815" y2="803.5806" gradientTransform="matrix(1 0 0 1 0 -692)">
				<stop  offset="0" style="stop-color:#000000"/>
				<stop  offset="0.0874" style="stop-color:#1C1C1C;stop-opacity:0.9188"/>
				<stop  offset="0.3436" style="stop-color:#696969;stop-opacity:0.6809"/>
				<stop  offset="0.5719" style="stop-color:#A7A7A7;stop-opacity:0.4687"/>
				<stop  offset="0.7642" style="stop-color:#D3D3D3;stop-opacity:0.2901"/>
				<stop  offset="0.913" style="stop-color:#EEEEEE;stop-opacity:0.1519"/>
				<stop  offset="1" style="stop-color:#F8F8F8;stop-opacity:0.0711"/>
			</linearGradient>
			<path style="fill:url(#SVGID_00000101783106170254874020000003123452601248075705_);" d="M32.23,97.69
				c-0.13,0.17-0.23,0.36-0.27,0.58c-0.07,0.33-0.02,0.66,0.04,0.99c0.09,0.54,0.23,1.14,0.67,1.46c0.38,0.27,0.89,0.28,1.28,0.53
				c0.16,0.1,0.33,0.25,0.51,0.18c0.12-0.05,0.18-0.18,0.22-0.3c0.13-0.36,0.24-0.72,0.35-1.08c0.31-1.03,0.62-2.06,0.93-3.09
				c0.13-0.43,0.31-1.41-0.41-1.44c-0.29-0.02-0.86,0.64-1.12,0.8C33.79,96.71,32.74,97.04,32.23,97.69z"/>
			
				<linearGradient id="SVGID_00000050626944331569776860000015392284049871201211_" gradientUnits="userSpaceOnUse" x1="30.8122" y1="798.1426" x2="34.1922" y2="789.5876" gradientTransform="matrix(1 0 0 1 0 -692)">
				<stop  offset="0" style="stop-color:#000000"/>
				<stop  offset="0.0874" style="stop-color:#1C1C1C;stop-opacity:0.9188"/>
				<stop  offset="0.3436" style="stop-color:#696969;stop-opacity:0.6809"/>
				<stop  offset="0.5719" style="stop-color:#A7A7A7;stop-opacity:0.4687"/>
				<stop  offset="0.7642" style="stop-color:#D3D3D3;stop-opacity:0.2901"/>
				<stop  offset="0.913" style="stop-color:#EEEEEE;stop-opacity:0.1519"/>
				<stop  offset="1" style="stop-color:#F8F8F8;stop-opacity:0.0711"/>
			</linearGradient>
			<path style="fill:url(#SVGID_00000050626944331569776860000015392284049871201211_);" d="M31.87,98.63
				c-0.01,0.27,0.06,0.53,0.13,0.79c0.1,0.36,0.21,0.73,0.48,1c0.22,0.23,0.52,0.35,0.82,0.47c0.34,0.14,0.69,0.28,1.05,0.34
				c0.11,0.02,0.24,0.03,0.34-0.03c0.12-0.07,0.15-0.22,0.18-0.35c0.09-0.42,0.14-0.85,0.17-1.28c0-0.02,0-0.04,0-0.06
				c-0.02-0.06-0.08-0.08-0.14-0.09c-0.28-0.07-0.57-0.12-0.84-0.24c-0.27-0.11-0.53-0.29-0.67-0.54c-0.19-0.35-0.09-1.11-0.66-1.03
				C32.2,97.67,31.88,98.14,31.87,98.63z"/>
			
				<linearGradient id="SVGID_00000103962352284834139750000008670316493843487365_" gradientUnits="userSpaceOnUse" x1="2.617" y1="795.0175" x2="55.9229" y2="786.9272" gradientTransform="matrix(1 0 0 1 0 -692)">
				<stop  offset="0" style="stop-color:#000000"/>
				<stop  offset="0.0874" style="stop-color:#1C1C1C;stop-opacity:0.9188"/>
				<stop  offset="0.3436" style="stop-color:#696969;stop-opacity:0.6809"/>
				<stop  offset="0.5719" style="stop-color:#A7A7A7;stop-opacity:0.4687"/>
				<stop  offset="0.7642" style="stop-color:#D3D3D3;stop-opacity:0.2901"/>
				<stop  offset="0.913" style="stop-color:#EEEEEE;stop-opacity:0.1519"/>
				<stop  offset="1" style="stop-color:#F8F8F8;stop-opacity:0.0711"/>
			</linearGradient>
			<path style="fill:url(#SVGID_00000103962352284834139750000008670316493843487365_);" d="M36.45,93.38
				c-0.2,1.41-0.34,2.88-0.68,4.26c-0.32,1.32-0.99,2.82-1.07,4.16c-0.04,0.73,0.22,1.6,0.31,2.33c0.11,0.82,0.22,1.64,0.33,2.46
				c0.12,0.88,0.24,1.76,0.27,2.64c0.04,0.97-0.02,1.94-0.04,2.91c-0.07,3.14,0.2,6.27,0.32,9.41c0.06,1.6,0.07,3.21-0.02,4.81
				c-0.05,0.8-0.12,1.59-0.24,2.38c-0.15,1.04-0.34,2.1,0.62,2.82c0.74,0.55,1.74,0.11,2.54-0.14c2.19-0.69,4.19-1.84,6.3-2.73
				c2.13-0.9,4.42-1.35,6.69-1.79c0.99-0.19,1.98-0.39,2.98-0.51c0.91-0.11,1.82-0.16,2.73-0.21c2.64-0.14,5.28-0.29,7.92-0.43
				c0.12-0.22-0.18-0.42-0.41-0.5c-3.73-1.18-7.75-1.1-11.63-0.59s-7.7,1.43-11.58,1.91c-0.98,0.12-2.03,0.2-2.96-0.17
				c-0.97-0.38-1.21-0.82-1.59-1.78c-0.05-0.12-0.09-0.24-0.08-0.36c0.04-0.31,0.4-0.44,0.71-0.5c3.16-0.59,6.28-0.5,9.33-1.72
				c0.86-0.34,1.67-0.78,2.5-1.18c0.67-0.31,2.06-1.24,2.78-1.19c-2.12-0.13-4.24,0-6.36,0.21c-0.49,0.05-1.03,0.09-1.43-0.2
				c-0.2-0.14-0.34-0.35-0.49-0.54c-0.7-0.84-1.56-1.08-2.56-1.33c-1.23-0.31-2.45-1.04-3.59-1.59c-0.14-0.07-0.3-0.14-0.39-0.27
				c-0.17-0.24-0.11-0.57,0-0.85c0.13-0.32,0.32-0.63,0.54-0.9c0.16-0.19,0.35-0.37,0.47-0.6c0.12-0.22,0.16-0.51,0.03-0.72
				c-0.06-0.1-0.16-0.19-0.15-0.3c0.01-0.09,0.09-0.15,0.16-0.21c0.28-0.22,0.56-0.44,0.84-0.66c0.13-0.11,0.27-0.22,0.34-0.37
				s0.06-0.33,0.04-0.5c0-1.31-0.41-2.52-0.6-3.8c-0.01-0.05-0.02-0.11-0.01-0.16c0.02-0.09,0.09-0.17,0.16-0.23
				c0.25-0.22,0.57-0.35,0.84-0.56c0.23-0.17,0.41-0.38,0.6-0.6c1.54-1.78,3.09-3.58,4.35-5.57c-1.51,0.96-2.98,1.98-4.34,3.14
				c-0.49,0.41-3.37,3.28-3.16,1.06c0.03-0.36,0.2-0.68,0.37-1c0.37-0.7,0.73-1.4,1.1-2.1c1.07-2.05,2.15-4.1,3.22-6.15
				c0.81-1.54,2.04-3.36,3.48-4.38c0.94-0.66,2.06-1.02,3.15-1.37c9.08-2.87,18.16-5.73,27.24-8.6c-9.27,1.78-18.39,4.24-27.51,6.7
				c-0.49-2.31-0.72-4.68-0.7-7.05c0.03-2.81,0.32-5.94-1.45-8.12c4.48-4.2,9.37-7.97,14.57-11.25c-2.65,1.06-5.28,2.15-7.92,3.24
				c-1.37,0.57-2.75,1.13-4.12,1.7c-3.02,1.25-6.04,2.49-9.06,3.74c-0.75-2.02-1.71-3.96-2.86-5.79c0.13,3.11,0.4,6.2,0.44,9.33
				c0.06,4.38-0.1,8.77-0.47,13.13C37.06,88.57,36.78,90.98,36.45,93.38z"/>
			
				<linearGradient id="SVGID_00000075148558038780770510000008078102608980867729_" gradientUnits="userSpaceOnUse" x1="71.9053" y1="787.1502" x2="76.1647" y2="769.4915" gradientTransform="matrix(1 0 0 1 0 -692)">
				<stop  offset="0" style="stop-color:#000000"/>
				<stop  offset="0.0874" style="stop-color:#1C1C1C;stop-opacity:0.9188"/>
				<stop  offset="0.3436" style="stop-color:#696969;stop-opacity:0.6809"/>
				<stop  offset="0.5719" style="stop-color:#A7A7A7;stop-opacity:0.4687"/>
				<stop  offset="0.7642" style="stop-color:#D3D3D3;stop-opacity:0.2901"/>
				<stop  offset="0.913" style="stop-color:#EEEEEE;stop-opacity:0.1519"/>
				<stop  offset="1" style="stop-color:#F8F8F8;stop-opacity:0.0711"/>
			</linearGradient>
			<path style="fill:url(#SVGID_00000075148558038780770510000008078102608980867729_);" d="M81.72,77.13
				c1.46-0.37,2.93-0.73,4.33-1.29c4.21-1.67,7.68-4.99,12.02-6.27c-0.73-1.16-0.32-2.69,0.28-3.92s1.42-2.43,1.47-3.8
				c-8.71,5.88-18.94,9.04-29.11,11.69c2.79,0.13,5.58,0.27,8.37,0.4c-6.25,2.72-12.98,4.1-19.24,6.81
				c-1.74,0.75-3.55,1.58-5.1,2.67c6.92-1.02,13.83-3.01,20.62-4.69C77.48,78.19,79.6,77.66,81.72,77.13z"/>
			
				<linearGradient id="SVGID_00000046308173624034140160000014381910264620866188_" gradientUnits="userSpaceOnUse" x1="153.3167" y1="729.0652" x2="104.9294" y2="743.407" gradientTransform="matrix(1 0 0 1 0 -692)">
				<stop  offset="0" style="stop-color:#000000"/>
				<stop  offset="0.0874" style="stop-color:#1C1C1C;stop-opacity:0.9188"/>
				<stop  offset="0.3436" style="stop-color:#696969;stop-opacity:0.6809"/>
				<stop  offset="0.5719" style="stop-color:#A7A7A7;stop-opacity:0.4687"/>
				<stop  offset="0.7642" style="stop-color:#D3D3D3;stop-opacity:0.2901"/>
				<stop  offset="0.913" style="stop-color:#EEEEEE;stop-opacity:0.1519"/>
				<stop  offset="1" style="stop-color:#F8F8F8;stop-opacity:0.0711"/>
			</linearGradient>
			<path style="fill:url(#SVGID_00000046308173624034140160000014381910264620866188_);" d="M84.15,30.78
				c-0.75,0.4-1.5,0.8-2.26,1.21c-1.26,1.78-2.86,3.31-4.7,4.49c4.67,0.23,9.36-0.06,13.96-0.86c1.66-0.29,3.96-0.26,4.35,1.38
				c0.26,1.1-0.72,2.14,0.02,3.23c0.4,0.59,1.14,0.83,1.8,1.09C98,41.59,98.71,42,98.87,42.7c0.19,0.84-0.51,1.61-1.21,2.11
				c-2.58,1.84-5.81,2.44-8.85,3.36c-3.23,0.97-6.34,2.35-9.24,4.08c5.27-0.16,10.53-0.7,15.78-1.23c-0.91,1.67-2.49,2.9-4.2,3.73
				s-3.57,1.3-5.42,1.76c-1.87,0.47-3.74,0.94-5.61,1.4c-1.51,0.38-3.02,0.75-4.54,1.06c-1.14,0.22-2.33,0.41-3.37,0.95
				c-0.45,0.24-0.76,0.59-1.22,0.81c-0.64,0.3-1.3,0.57-1.95,0.84c10.77-0.87,21.41-3.2,31.55-6.93c1.55-0.57,3.36-1.15,4.76-0.27
				c0.35,0.22,0.34,2.16,0.36,2.57c0.05,0.9,0.02,1.81-0.09,2.71c-0.11,0.89-0.36,1.74-0.54,2.61c-0.16,0.8-0.22,1.57-0.6,2.31
				c-0.47,0.91-1.25,1.6-2.02,2.27c-1.8,1.58-3.6,3.15-5.4,4.73c1.06-0.72,2.18-1.46,3.45-1.55c0.75-0.05,1.49,0.12,2.24,0.12
				c1.1,0,2.15-0.38,3.24-0.54c0.93-0.14,1.87-0.13,2.8-0.05c0.72,0.06,2,0.03,2.58,0.46c1.05,0.77,0.91,2.76,0.69,3.85
				c-0.22,1.05-0.65,2.05-1.05,3.04c-0.14,0.34-0.28,0.7-0.27,1.06c0.01,0.25,0.08,0.5,0.16,0.74c0.92,2.66,3.61,5.76,6.77,5.16
				c0.1-0.02,0.21-0.05,0.26-0.13c0.08-0.13-0.01-0.3-0.1-0.42c-0.81-1.1-1.62-2.2-2.43-3.3c-0.39-0.52-0.79-1.11-0.74-1.76
				c0.06-0.72,0.66-1.26,1.25-1.69c2.38-1.72,5.16-2.79,7.63-4.37c0.6-0.39,1.19-0.8,1.79-1.19c0.67-0.42,1.37-0.81,2.08-1.15
				c0.97-0.46,1.99-0.84,3.06-1.01c1.29-0.21,2.53,0.3,3.35,1.3c0.39,0.47,0.78,0.95,1.11,1.47c0.73,1.14,1.16,2.45,1.78,3.66
				c0.05,0.1,0.11,0.21,0.21,0.26c0.15,0.08,0.33,0.03,0.48-0.05c0.6-0.31,0.91-1.01,0.96-1.68c0.04-0.67-0.14-1.34-0.33-1.98
				c-0.19-0.68-0.39-1.36-0.58-2.04c-0.11-0.39-0.22-0.77-0.36-1.15c-0.48-1.26-1.28-2.49-2.17-3.5c-0.83-0.94-1.75-1.81-2.83-2.45
				c-0.33-0.19-0.69-0.38-0.88-0.72c-0.12-0.22-0.16-0.47-0.18-0.72c-0.11-0.93-0.17-1.87-0.18-2.81c-0.29-0.09-0.63-0.04-0.88,0.13
				c-0.07,0.05-0.14,0.1-0.23,0.12c-0.2,0.03-0.34-0.18-0.43-0.36c-0.36-0.74-0.73-1.6-0.38-2.34c0.12-0.25,0.31-0.46,0.45-0.7
				c0.23-0.37,0.35-0.8,0.44-1.23c0.21-0.96,0.34-1.93,0.38-2.92c0.03-0.77-0.18-1.48-0.49-2.2c-0.26-0.59-0.68-1.1-0.98-1.67
				c-0.26-0.49-0.44-1.03-0.71-1.52c-0.27-0.49-0.67-0.95-1.2-1.12c-0.15-0.05-0.31-0.07-0.45-0.13c-0.39-0.16-0.63-0.53-0.86-0.88
				c-0.23-0.37-0.27-0.66-0.37-1.05c-0.11-0.43-0.45-0.87-0.66-1.25c-0.46-0.87-0.92-1.75-1.36-2.63c-0.22-0.43-0.39-0.98-0.67-1.37
				c-0.08-0.11-1.12-0.77-1.12-0.58c0-0.4-0.22-0.75-0.39-1.11s-0.27-0.81-0.03-1.13c0.16-0.22,0.47-0.34,0.56-0.6
				c0.09-0.24-0.05-0.53-0.26-0.67c-0.21-0.15-0.48-0.19-0.74-0.2c-1.01-0.05-2.04,0.22-2.89,0.78c-0.57,0.37-1.05,0.86-1.52,1.36
				c-1.07,1.14-2.09,2.33-3.05,3.57c-0.33,0.43-0.66,0.88-0.77,1.41c-0.11,0.53,0.06,1.15,0.53,1.41c-1.6,2.43-3.12,4.91-4.56,7.43
				c0.41-1.06,0.37-2.26,0.85-3.29c0.26-0.55,0.65-1.02,0.97-1.53c1.29-2.03,1.46-4.54,1.96-6.89c0.05-0.24,0.11-0.49,0.21-0.71
				c0.14-0.29,0.36-0.54,0.58-0.77c1.49-1.52,3.38-2.58,5.02-3.93c0.22-0.18,0.44-0.37,0.57-0.62c0.4-0.78-0.07-1.23-0.82-1.41
				c-0.23-0.06-0.47-0.04-0.71-0.03c-0.93,0.05-1.86,0.1-2.78,0.16c-0.39,0.02-0.8,0.04-1.16-0.1c-0.3-0.12-0.55-0.35-0.69-0.63
				c0.7-0.35,1.48-0.54,2.27-0.57c0.31-0.01,0.68-0.02,0.86-0.28c-0.62-0.12-1.24-0.24-1.86-0.37c-0.39-0.08-1.32-0.43-1.67-0.22
				c-0.18,0.11-0.31,0.28-0.45,0.44c-0.81,0.91-2.11,1.2-3.32,1.36c-1.21,0.15-2.49,0.24-3.53,0.89c0.08-0.32,0.39-0.53,0.68-0.69
				c1.2-0.66,2.5-1.1,3.73-1.68c0.05-0.43,0.37-0.78,0.78-0.91c-0.26-0.35-0.84-0.53-1.19-0.79c-0.58-0.43-1.15-0.87-1.72-1.32
				c-0.65-0.52-1.3-1.26-2.1-1.53c-0.76-0.26-1.12-0.43-1.51-1.19c-0.41-0.8-0.7-1.52-1.44-2.05c-0.67-0.48-1.46-0.74-2.23-1.02
				c-0.83-0.3-1.67-0.57-2.53-0.79c-0.68-0.18-1.49-0.58-2.19-0.33c0.67,1.06,2.69,1.13,2.62,2.63c-0.06,1.24-1.14,2.39-1.96,3.23
				c-1.14,1.17-2.53,2.08-3.97,2.85c-2.37,1.27-4.92,2.24-7.08,3.84C84.23,30.7,84.33,30.8,84.15,30.78z"/>
			
				<linearGradient id="SVGID_00000093137874716827903460000010016224869266361497_" gradientUnits="userSpaceOnUse" x1="138.3156" y1="791.1033" x2="94.284" y2="793.2667" gradientTransform="matrix(1 0 0 1 0 -692)">
				<stop  offset="0" style="stop-color:#000000"/>
				<stop  offset="0.0874" style="stop-color:#1C1C1C;stop-opacity:0.9188"/>
				<stop  offset="0.3436" style="stop-color:#696969;stop-opacity:0.6809"/>
				<stop  offset="0.5719" style="stop-color:#A7A7A7;stop-opacity:0.4687"/>
				<stop  offset="0.7642" style="stop-color:#D3D3D3;stop-opacity:0.2901"/>
				<stop  offset="0.913" style="stop-color:#EEEEEE;stop-opacity:0.1519"/>
				<stop  offset="1" style="stop-color:#F8F8F8;stop-opacity:0.0711"/>
			</linearGradient>
			<path style="fill:url(#SVGID_00000093137874716827903460000010016224869266361497_);" d="M87.34,127.19
				c5.34,0.83,10.58,2.25,15.92,3.07c0.49,0.08,1.02,0.14,1.44-0.13c0.55-0.34,0.66-1.08,0.71-1.72c0.41-4.89,0.59-9.8,0.55-14.71
				c-0.01-1.17-0.03-2.33,0.02-3.5c0.06-1.3,0.21-2.6,0.36-3.9c0.2-1.72,0.64-3.58,0.62-5.31c-0.01-0.65-0.16-1.13,0.02-1.81
				c0.18-0.7,0.49-1.37,0.77-2.04c0.65-1.56,1.24-3.14,1.77-4.75c0.5-1.5,1.12-2.94,1.59-4.45c0.16-0.53,0.3-1.07,0.45-1.6
				c0.23-0.87,0.46-1.74,0.68-2.61c0.17-0.66,0.55-1.45,0.14-2.11c-0.33-0.53-0.71-0.93-1.34-0.99c-0.81-0.08-1.59-0.52-2.06-1.19
				c-0.11-0.15-0.2-0.32-0.25-0.5c-0.08-0.28-0.05-0.57-0.02-0.86c0.21-2.08,0.45-4.19,0.06-6.24c-0.02-0.11-0.05-0.23-0.12-0.31
				c-0.11-0.12-0.28-0.14-0.44-0.15c-1.66-0.13-3.44-0.25-5.1-0.05c-0.26,0.03-0.51,0.07-0.76,0.13c-0.47,0.1-0.93,0.27-1.38,0.44
				c-1.26,0.47-2.52,0.94-3.78,1.4c-4.93,1.83-9.86,3.66-14.78,5.49c-5.58,2.07-11.16,4.15-16.75,6.22c-1.61,0.6-3.22,1.2-4.83,1.81
				c2.67-0.32,5.35-0.67,7.99-1.2c4.23-0.85,8.25-2.12,12.24-3.65c0.22,0.64-0.38,1.24-0.92,1.65
				c-8.62,6.56-17.25,13.11-25.87,19.67c1.61-0.19,3.13-0.86,4.61-1.53c2.39-1.08,4.8-2.16,7.03-3.54
				c6.67-4.12,11.65-10.78,18.75-14.1c1.76-0.82,3.63-1.43,5.54-1.79c0.41-0.08,0.88-0.17,1.11-0.52c0.21-0.3,0.18-0.7,0.28-1.05
				c0.25-0.87,1.24-1.28,2.11-1.52c1.45-0.39,2.66-0.57,4.12-0.43c1.05,0.11,3.85,0.85,4.75,0.39c-2.11,1.08-4.22,2.16-6.33,3.24
				c1.62-0.04,3.25,0.07,4.85,0.35c0.06,2.05-0.09,3.85,0.24,5.83c0.13,0.75-0.06,1.67-0.76,1.98c-0.33,0.14-0.71,0.11-1.07,0.08
				c-2.86-0.28-5.71-0.69-8.53-1.24c3.86,2.23,7.8,4.32,11.81,6.27c0.56,0.67,0.89,1.52,0.93,2.4c0.05,1.15-0.38,2.43,0.29,3.37
				c0.39,0.55,1.03,0.97,0.34,1.51c-0.66,0.51-1.56,0.64-2.36,0.55c-0.91-0.1-1.77-0.44-2.64-0.71s-1.81-0.46-2.69-0.25
				c0.75,0.4,1.45,0.88,2.09,1.44c0.08,0.07,0.16,0.14,0.27,0.17c0.13,0.04,0.27,0,0.4-0.03c0.7-0.16,1.45-0.05,2.08,0.29
				c0.76,1.3,2.98,3.04,1.47,4.55c-0.39,0.39-0.67,0.79-0.92,1.28c-0.26,0.49-0.67,0.82-1.08,1.19c-0.16,0.14-0.32,0.29-0.52,0.36
				c-0.19,0.07-0.41,0.06-0.61,0.04c-2.47-0.22-4.74-1.46-7.18-1.85c-1.81-0.29-3.68-0.11-5.45-0.58c1.19,0.38,2.06,1.42,3.21,1.92
				c0.79,0.35,1.68,0.44,2.47,0.78c0.61,0.27,1.14,0.68,1.67,1.08c0.93,0.72-0.51,0.92-1,1.05c-6.41,1.63-13.24,2.06-19.23,5.09
				c0.37-0.19,1.24-0.05,1.66-0.07c0.6-0.02,1.19-0.04,1.79-0.06c1.19-0.03,2.39-0.03,3.58,0c2.11,0.06,4.42,0.14,6.4,0.94
				c-0.2,0.06-0.35,0.26-0.36,0.46c-3.09,0.66-6.23,1.07-9.38,1.23c0.77,0.4,1.65,0.49,2.51,0.59c1.15,0.12,2.44,0.46,3.55,0.24
				c0.27-0.05,0.64,0.12,0.56,0.38c-0.03,0.09-0.1,0.15-0.17,0.21c-0.96,0.78-2.22,1.03-3.41,1.33c-0.88,0.22-1.74,0.47-2.6,0.76
				c-0.18,0.06-0.36,0.12-0.5,0.25s-0.23,0.32-0.17,0.5c0.17,0.5,3.05,0.34,3.58,0.37c1.37,0.09,2.73,0.21,4.09,0.38
				c5.47,0.68,10.88,1.42,16.22,2.84c0.72,0.19,1.47,0.4,2.21,0.3"/>
			
				<linearGradient id="SVGID_00000064328668442851175050000011351741307944567231_" gradientUnits="userSpaceOnUse" x1="136.0188" y1="788.7004" x2="117.9789" y2="757.3512" gradientTransform="matrix(1 0 0 1 0 -692)">
				<stop  offset="0" style="stop-color:#000000"/>
				<stop  offset="0.0874" style="stop-color:#1C1C1C;stop-opacity:0.9188"/>
				<stop  offset="0.3436" style="stop-color:#696969;stop-opacity:0.6809"/>
				<stop  offset="0.5719" style="stop-color:#A7A7A7;stop-opacity:0.4687"/>
				<stop  offset="0.7642" style="stop-color:#D3D3D3;stop-opacity:0.2901"/>
				<stop  offset="0.913" style="stop-color:#EEEEEE;stop-opacity:0.1519"/>
				<stop  offset="1" style="stop-color:#F8F8F8;stop-opacity:0.0711"/>
			</linearGradient>
			<path style="fill:url(#SVGID_00000064328668442851175050000011351741307944567231_);" d="M114.24,83.05
				c-0.29-0.39-0.73-0.51-1.13-0.73c-0.43-0.23-0.7-0.64-1.09-0.92c-0.27-0.19-0.58-0.3-0.88-0.43c-0.63-0.28-1.27-0.69-1.81-1.12
				c-0.18-0.14-0.36-0.29-0.46-0.49c-0.1-0.21-0.1-0.45-0.1-0.68c0.01-1.78,0.08-3.55,0.23-5.32c0.01-0.18,0.03-0.36,0.1-0.52
				c0.08-0.2,0.22-0.36,0.37-0.51c0.56-0.61,1.15-1.21,1.87-1.62c0.55-0.31,1.21-0.51,1.85-0.44c0.69,0.07,1.26,0.2,1.94-0.1
				c0.28-0.12,0.54-0.29,0.79-0.46c1.06-0.7,2.12-1.39,3.19-2.09c1-0.66,1.93-1.4,2.88-2.14c-0.75,0.95-1.37,2.01-1.83,3.13
				c-0.13,0.33-0.26,0.69-0.17,1.03c0.09,0.34,0.48,0.62,0.8,0.47c0.14-0.07,0.24-0.21,0.34-0.34c1.16-1.47,3.32-1.55,5.04-2.29
				c0.92-0.4,1.75-1.01,2.72-1.25c0.79-0.2,1.62-0.15,2.44-0.1c0.61,0.04,1.22,0.24,1.82,0.39c0.74,0.19,1.47,0.45,2.17,0.77
				c0.42,0.19,0.83,0.41,1.17,0.72c0.97,0.86,1.25,2.22,1.49,3.49c0.06,0.3,0.11,0.6,0.17,0.9c0.11,0.58,0.21,1.17,0.11,1.75
				c-0.11,0.58-0.47,1.15-1.03,1.32c-0.06,0.02-0.13,0.03-0.2,0.01c-0.05-0.02-0.09-0.05-0.13-0.09c-0.33-0.34-0.47-0.79-0.65-1.21
				c-0.18-0.43-0.44-0.6-0.71-0.94c-0.73-0.93-1.27-2.1-1.88-3.12c-0.16-0.26-0.32-0.54-0.56-0.73c-0.5-0.41-1.21-0.42-1.85-0.35
				c-2.47,0.26-4.8,1.29-6.97,2.51c-2.17,1.21-4.24,2.61-6.47,3.71c-0.82,0.4-1.67,0.77-2.36,1.36c-0.57,0.49-1.04,1.25-0.95,2.03
				c0.06,0.53,0.29,1.02,0.53,1.5c0.37,0.75,0.73,1.51,1.1,2.26c0.23,0.47,0.46,0.95,0.57,1.47c0.03,0.14,0.05,0.31-0.05,0.42
				c-0.07,0.08-0.17,0.11-0.27,0.12c-0.56,0.07-1.34-0.33-1.69-0.75C114.5,83.47,114.39,83.24,114.24,83.05z"/>
			
				<linearGradient id="SVGID_00000096778686670001304050000014181222764353763478_" gradientUnits="userSpaceOnUse" x1="121.8107" y1="755.7299" x2="133.3909" y2="745.4807" gradientTransform="matrix(1 0 0 1 0 -692)">
				<stop  offset="0" style="stop-color:#000000"/>
				<stop  offset="0.0874" style="stop-color:#1C1C1C;stop-opacity:0.9188"/>
				<stop  offset="0.3436" style="stop-color:#696969;stop-opacity:0.6809"/>
				<stop  offset="0.5719" style="stop-color:#A7A7A7;stop-opacity:0.4687"/>
				<stop  offset="0.7642" style="stop-color:#D3D3D3;stop-opacity:0.2901"/>
				<stop  offset="0.913" style="stop-color:#EEEEEE;stop-opacity:0.1519"/>
				<stop  offset="1" style="stop-color:#F8F8F8;stop-opacity:0.0711"/>
			</linearGradient>
			<path style="fill:url(#SVGID_00000096778686670001304050000014181222764353763478_);" d="M129.13,55.64
				c-0.18,0.36-0.38,0.8-0.15,1.14c0.23,0.33,0.72,0.31,1.12,0.31c1.1,0,2.18,0.52,2.88,1.38c0.27-0.74-0.13-1.53-0.28-2.3
				c-0.17-0.83-0.04-1.7-0.26-2.52c-0.14-0.52-1.53-2.75-2.19-2.01c-0.13,0.15-0.09,0.65-0.12,0.84c-0.05,0.37-0.13,0.73-0.22,1.09
				C129.72,54.28,129.46,54.98,129.13,55.64z"/>
			
				<linearGradient id="SVGID_00000038414431613262556300000009653479036758091145_" gradientUnits="userSpaceOnUse" x1="94.1313" y1="771.0739" x2="113.4051" y2="743.022" gradientTransform="matrix(1 0 0 1 0 -692)">
				<stop  offset="0" style="stop-color:#000000"/>
				<stop  offset="0.0874" style="stop-color:#1C1C1C;stop-opacity:0.9188"/>
				<stop  offset="0.3436" style="stop-color:#696969;stop-opacity:0.6809"/>
				<stop  offset="0.5719" style="stop-color:#A7A7A7;stop-opacity:0.4687"/>
				<stop  offset="0.7642" style="stop-color:#D3D3D3;stop-opacity:0.2901"/>
				<stop  offset="0.913" style="stop-color:#EEEEEE;stop-opacity:0.1519"/>
				<stop  offset="1" style="stop-color:#F8F8F8;stop-opacity:0.0711"/>
			</linearGradient>
			<path style="fill:url(#SVGID_00000038414431613262556300000009653479036758091145_);" d="M109.31,40.83
				c-0.02,0.05-0.04,0.1-0.06,0.15c-0.95,2.39-1.7,4.91-3.07,7.09c-1.29,2.06-2.91,3.75-3.92,6c-0.11,0.23-0.21,0.47-0.24,0.72
				c-0.04,0.3,0.02,0.6,0.09,0.9c0.28,1.21,0.71,2.4,1.26,3.51c0.32,0.64,0.68,1.29,0.7,2.01c0.02,0.59-0.21,1.18-0.11,1.77
				c0.07,0.39,0.28,0.73,0.49,1.07c0.88,1.42,1.73,2.85,2.52,4.32c0.72,1.33,1.65,2.61,1.85,4.15c0.03,0.2,0.06,0.42,0.22,0.54
				c-0.11-0.08,1-1.27,1.12-1.37c0.41-0.33,0.85-0.6,1.31-0.85c0.92-0.5,1.96-0.93,2.57-1.83c0.1-0.14,0.18-0.3,0.2-0.48
				c0.03-0.27-0.11-0.53-0.3-0.71c-0.67-0.64-1.76-0.85-2.57-1.28c-0.06-0.03-0.13-0.07-0.16-0.14c-0.05-0.13,0.07-0.25,0.18-0.33
				c0.35-0.27,0.71-0.53,1.06-0.8c0.24-0.18,0.49-0.38,0.56-0.67c0.04-0.18,0.01-0.37-0.03-0.55c-0.19-0.92-0.38-1.83-0.56-2.75
				c-0.02-0.08-0.03-0.16-0.08-0.23c-0.06-0.08-0.14-0.12-0.23-0.16c-1.64-0.82-2.98-2.18-4.41-3.34c-0.34-0.27-0.67-0.54-1.01-0.82
				c-0.25-0.2-0.51-0.43-0.6-0.74c-0.04-0.16-0.03-0.33-0.02-0.5c0.1-1.15,0.44-2.32,0.66-3.46c0.23-1.18,0.48-2.35,0.78-3.51
				c0.58-2.29,1.28-4.54,2.11-6.75c0.23-0.6,0.38-1.09,0.2-1.73c-0.18-0.63-0.63-0.86-0.95-1.35c0.31,0.47,0.63,0.99,0.58,1.55
				C109.45,40.45,109.39,40.64,109.31,40.83z"/>
			
				<linearGradient id="SVGID_00000042715248817565600510000007999473347849185970_" gradientUnits="userSpaceOnUse" x1="120.613" y1="836.8703" x2="79.2329" y2="813.9853" gradientTransform="matrix(1 0 0 1 0 -692)">
				<stop  offset="0" style="stop-color:#000000"/>
				<stop  offset="0.0874" style="stop-color:#1C1C1C;stop-opacity:0.9188"/>
				<stop  offset="0.3436" style="stop-color:#696969;stop-opacity:0.6809"/>
				<stop  offset="0.5719" style="stop-color:#A7A7A7;stop-opacity:0.4687"/>
				<stop  offset="0.7642" style="stop-color:#D3D3D3;stop-opacity:0.2901"/>
				<stop  offset="0.913" style="stop-color:#EEEEEE;stop-opacity:0.1519"/>
				<stop  offset="1" style="stop-color:#F8F8F8;stop-opacity:0.0711"/>
			</linearGradient>
			<path style="fill:url(#SVGID_00000042715248817565600510000007999473347849185970_);" d="M103.67,130.2
				c0.27,0,0.53-0.05,0.76-0.19c0.5-0.3,0.71-0.9,0.88-1.46c0.12-0.38,0.24-0.77,0.36-1.15c0.17-0.56,0.35-1.15,0.18-1.71
				c-0.26-0.91-1.26-1.35-2.14-1.68c-1.92-0.71-3.83-1.37-5.81-1.92c-1.22-0.34-2.44-0.67-3.67-1.01c-2.03-0.56-4.06-1.12-6.13-1.48
				c-3.57-0.63-7.22-0.67-10.85-0.51c-1.71,0.08-3.47,0.21-5.03,0.93c1.12,0.19,2.41,0.58,3.32,1.28c-0.71,0.41-1.36,0.87-2.12,1.24
				c-0.91,0.44-1.84,0.86-2.77,1.25c-1.84,0.76-3.73,1.41-5.65,1.95c3.69,0.26,7.39,0.25,11.09,0.41c3.62,0.18,7.23,0.46,10.83,0.93
				c3.59,0.47,7.1,1.19,10.65,1.86c1.69,0.32,3.35,0.66,5.02,1.1C102.94,130.12,103.32,130.2,103.67,130.2z"/>
			
				<linearGradient id="SVGID_00000147213463524866542880000011543254155475426950_" gradientUnits="userSpaceOnUse" x1="36.6202" y1="729.6365" x2="45.6524" y2="747.735" gradientTransform="matrix(1 0 0 1 0 -692)">
				<stop  offset="0" style="stop-color:#000000"/>
				<stop  offset="0.0874" style="stop-color:#1C1C1C;stop-opacity:0.9188"/>
				<stop  offset="0.3436" style="stop-color:#696969;stop-opacity:0.6809"/>
				<stop  offset="0.5719" style="stop-color:#A7A7A7;stop-opacity:0.4687"/>
				<stop  offset="0.7642" style="stop-color:#D3D3D3;stop-opacity:0.2901"/>
				<stop  offset="0.913" style="stop-color:#EEEEEE;stop-opacity:0.1519"/>
				<stop  offset="1" style="stop-color:#F8F8F8;stop-opacity:0.0711"/>
			</linearGradient>
			<path style="fill:url(#SVGID_00000147213463524866542880000011543254155475426950_);" d="M40.68,48.96
				c-0.03,0.47-0.11,0.93-0.15,1.4c-0.2,2.25,0.63,4.45,1.45,6.56c0.38-2.27,0.76-4.53,1.14-6.8c0.14-0.84,0.28-1.69,0.27-2.55
				c-0.01-0.38-0.04-0.76-0.08-1.13c-0.16-1.58-0.37-3.16-0.59-4.74c-0.05-0.35-0.1-0.71-0.33-0.98c-0.36,0.71-0.54,1.49-0.83,2.23
				s-0.69,1.48-1.36,1.91c-0.38,0.24-0.68,0.2-0.45,0.65c0.19,0.37,0.41,0.71,0.56,1.1C40.6,47.36,40.73,48.16,40.68,48.96z"/>
			
				<linearGradient id="SVGID_00000172400104038566768390000001292652899544120751_" gradientUnits="userSpaceOnUse" x1="79.6291" y1="712.4943" x2="76.2532" y2="730.7745" gradientTransform="matrix(1 0 0 1 0 -692)">
				<stop  offset="0" style="stop-color:#000000"/>
				<stop  offset="0.0874" style="stop-color:#1C1C1C;stop-opacity:0.9188"/>
				<stop  offset="0.3436" style="stop-color:#696969;stop-opacity:0.6809"/>
				<stop  offset="0.5719" style="stop-color:#A7A7A7;stop-opacity:0.4687"/>
				<stop  offset="0.7642" style="stop-color:#D3D3D3;stop-opacity:0.2901"/>
				<stop  offset="0.913" style="stop-color:#EEEEEE;stop-opacity:0.1519"/>
				<stop  offset="1" style="stop-color:#F8F8F8;stop-opacity:0.0711"/>
			</linearGradient>
			<path style="fill:url(#SVGID_00000172400104038566768390000001292652899544120751_);" d="M63.42,34.04
				c0.93,0.73,2.09,1.21,3.32,1.51c1.37,0.34,2.78,0.58,4.19,0.51c1.16-0.06,2.3-0.32,3.43-0.59c2.35-0.57,4.68-1.21,6.99-1.92
				c2.72-0.83,5.41-1.76,8.06-2.77c1.33-0.51,2.65-1.04,3.96-1.59c1.45-0.61,2.8-1.4,4.2-2.13c-1.52,1.44-3.07,2.9-4.94,3.85
				c-1.93,0.98-4.13,1.36-6.04,2.4c0.45,0.06,1.8,0.15,1.14,0.76c-0.5,0.45-1.21,0.81-1.82,1.08c-1.04,0.46-2.2,0.67-3.15,1.3
				c3.33,0.08,6.67-0.38,9.86-1.36c-0.32,0.1-0.74,0.62-1.03,0.82c-0.36,0.26-0.75,0.47-1.12,0.72c-0.81,0.54-1.68,0.95-2.58,1.3
				c-2.34,0.93-4.87,1.56-7.37,1.27c-2.65-0.31-5.23-1.66-7.86-1.2c1.54,0.77,2.96,1.76,4.22,2.94c0.17,0.16,0.35,0.41,0.22,0.61
				c-0.06,0.09-0.15,0.13-0.25,0.17c-1.97,0.84-3.99,1.54-6.01,2.26c-0.77,0.27-1.74-0.47-2.44-0.84c-0.89-0.47-1.75-1-2.51-1.66
				c-1.8-1.55-3.01-3.81-5.11-4.92c2.05,1.13,4.18,2.28,6.51,2.51c-2.27-1.62-4.45-3.38-6.5-5.28c-0.79-0.73-1.59-1.52-1.93-2.54
				c-0.56-1.7,0.56-3.76,2.29-4.22c-0.01,1.45-0.01,2.93,0.42,4.31C61.92,32.5,62.58,33.38,63.42,34.04z"/>
		</g>
		<g>
			<path d="M105.75,80.8c1.17,0.78,2.51,0.78,3.83,1.03c0.31,0.06,0.62,0.15,0.86,0.37s0.38,0.54,0.53,0.83
				c0.31,0.63,0.58,1.28,0.74,1.97c0.06,0.29,0.5,0.17,0.44-0.12c-0.15-0.69-0.43-1.36-0.74-2c-0.3-0.61-0.61-1.14-1.28-1.38
				c-0.65-0.23-1.39-0.22-2.06-0.34c-0.74-0.13-1.45-0.33-2.08-0.75C105.73,80.24,105.5,80.63,105.75,80.8L105.75,80.8z"/>
		</g>
		<g>
			<path d="M30.84,63.31c1.5-3.12,3.01-6.24,4.51-9.36c0.74-1.54,1.49-3.09,2.23-4.63c0.35-0.73,0.68-1.48,1.09-2.18
				c0.37-0.63,0.84-1.14,1.38-1.63c0.49-0.44,1.01-0.87,1.42-1.39c0.44-0.56,0.72-1.2,0.95-1.87c0.21-0.64,0.38-1.31,0.69-1.91
				c0.34-0.64,0.86-1.1,1.42-1.54c2.61-2.02,5.28-3.96,7.99-5.84c3.05-2.11,6.16-4.15,9.32-6.08c0.5-0.31,0.04-1.1-0.46-0.79
				C55.7,29.57,50.2,33.35,44.9,37.38c-0.63,0.48-1.31,0.94-1.86,1.51c-0.51,0.53-0.84,1.16-1.09,1.84
				c-0.23,0.64-0.39,1.3-0.66,1.93c-0.28,0.64-0.71,1.14-1.21,1.61c-0.5,0.46-1.04,0.88-1.48,1.4c-0.49,0.57-0.85,1.22-1.18,1.9
				c-0.76,1.56-1.51,3.13-2.26,4.69c-1.7,3.53-3.4,7.06-5.11,10.59C29.8,63.38,30.59,63.85,30.84,63.31L30.84,63.31z"/>
		</g>
		<g>
			<path d="M53.01,86.25c2.57-0.85,5.17-1.62,7.79-2.31c0.28-0.08,0.16-0.52-0.12-0.44c-2.62,0.7-5.22,1.47-7.79,2.31
				C52.61,85.9,52.72,86.34,53.01,86.25L53.01,86.25z"/>
		</g>
		<g>
			<path d="M53.2,87.28c4.53-1.3,9.08-2.52,13.65-3.65c1.29-0.32,2.59-0.64,3.88-0.94c0.29-0.07,0.16-0.51-0.12-0.44
				c-4.58,1.09-9.14,2.26-13.68,3.51c-1.28,0.35-2.57,0.72-3.85,1.08C52.8,86.92,52.92,87.36,53.2,87.28L53.2,87.28z"/>
		</g>
		<g>
			<path d="M88.79,47.95c-0.85,0.24-1.69,0.52-2.51,0.86c-0.11,0.05-0.2,0.15-0.16,0.28c0.03,0.11,0.17,0.21,0.28,0.16
				c0.82-0.34,1.66-0.62,2.51-0.86C89.19,48.31,89.07,47.87,88.79,47.95L88.79,47.95z"/>
		</g>
		<g>
			<path d="M81.96,50.7c-0.86,0.47-1.71,0.95-2.57,1.42c-0.2,0.11-0.11,0.43,0.12,0.43c3.95-0.13,7.89-0.46,11.81-0.99
				c0.29-0.04,0.17-0.48-0.12-0.44c-3.88,0.53-7.78,0.85-11.69,0.98c0.04,0.14,0.08,0.28,0.12,0.43c0.86-0.47,1.71-0.95,2.57-1.42
				C82.45,50.96,82.22,50.56,81.96,50.7L81.96,50.7z"/>
		</g>
		<g>
			<path d="M111.9,78.95c-0.4,0.74-0.99,1.62-0.42,2.43c0.21,0.29,0.49,0.51,0.8,0.69c0.32,0.19,0.67,0.33,0.92,0.62
				c0.12,0.15,0.23,0.31,0.35,0.45c0.14,0.15,0.3,0.27,0.45,0.41c0.33,0.29,0.62,0.61,0.95,0.89c0.62,0.54,1.31,0.43,2.06,0.28
				c0.58-0.12,0.33-1-0.24-0.88c-0.25,0.05-0.52,0.13-0.78,0.11s-0.42-0.18-0.6-0.35c-0.27-0.26-0.54-0.52-0.82-0.76
				c-0.26-0.23-0.46-0.46-0.68-0.73c-0.2-0.25-0.45-0.44-0.73-0.6c-0.26-0.15-0.54-0.27-0.77-0.47c-0.19-0.17-0.3-0.35-0.23-0.6
				c0.09-0.36,0.34-0.71,0.51-1.03C112.97,78.9,112.18,78.43,111.9,78.95L111.9,78.95z"/>
		</g>
		<g>
			<path d="M137.42,75.41c-0.62-1.52-1.31-3.02-2.23-4.38c-0.66-0.96-1.48-1.99-2.63-2.36c-0.56-0.18-0.8,0.7-0.24,0.88
				c0.95,0.3,1.66,1.28,2.19,2.08c0.83,1.25,1.47,2.63,2.04,4.01c0.09,0.23,0.3,0.39,0.56,0.32
				C137.32,75.92,137.52,75.64,137.42,75.41L137.42,75.41z"/>
		</g>
		<g>
			<path d="M114.98,78.5c-0.09-0.21,0.1-0.44,0.22-0.6c0.16-0.22,0.34-0.45,0.55-0.64c0.42-0.39,1-0.64,1.49-0.92
				c1.25-0.71,2.5-1.43,3.75-2.14s2.5-1.43,3.75-2.14c1.19-0.68,2.36-1.4,3.59-1.99c1.25-0.59,2.65-1,4-0.53
				c0.56,0.2,0.8-0.69,0.24-0.88c-1.33-0.47-2.76-0.2-4.03,0.32c-1.35,0.56-2.6,1.33-3.86,2.06c-2.73,1.56-5.46,3.11-8.19,4.67
				c-0.59,0.34-1.2,0.65-1.65,1.18c-0.52,0.61-1,1.25-0.64,2.06c0.1,0.23,0.43,0.28,0.63,0.16
				C115.05,78.99,115.08,78.73,114.98,78.5L114.98,78.5z"/>
		</g>
		<g>
			<path d="M114.19,78.96c0.9,1.83,1.88,3.63,2.74,5.49c0.1,0.22,0.43,0.28,0.63,0.16c0.23-0.13,0.27-0.4,0.16-0.63
				c-0.86-1.86-1.84-3.65-2.74-5.49C114.72,77.98,113.93,78.44,114.19,78.96L114.19,78.96z"/>
		</g>
		<g>
			<path d="M126.22,63.94c1.05-0.14,2.11-0.26,3.16-0.36c0.93-0.08,1.94-0.24,2.86-0.02c1.31,0.3,2.27,1.56,2.99,2.61
				c0.74,1.08,1.37,2.24,1.85,3.46c0.43,1.09,0.81,2.26,0.84,3.43c0,0.14,0,0.28-0.01,0.42c-0.01,0.15-0.02,0.22-0.03,0.32
				c-0.02,0.12-0.05,0.24-0.09,0.36c-0.02,0.06-0.04,0.11-0.06,0.17c0.03-0.07-0.03,0.07-0.04,0.09c-0.12,0.22-0.15,0.27-0.34,0.44
				c-0.07,0.07,0.01,0-0.07,0.05c-0.05,0.03-0.1,0.06-0.14,0.09c-0.06,0.03-0.09,0.04-0.09,0.04c-0.06,0.02-0.13,0.04-0.2,0.06
				c-0.57,0.16-0.33,1.04,0.24,0.88c2.53-0.71,1.74-4.15,1.11-5.94c-0.48-1.38-1.14-2.71-1.93-3.94c-0.76-1.17-1.72-2.5-3-3.13
				c-1.06-0.53-2.26-0.44-3.41-0.35c-1.31,0.11-2.61,0.26-3.91,0.43c-0.24,0.03-0.38,0.35-0.32,0.56
				C125.73,63.88,125.97,63.97,126.22,63.94L126.22,63.94z"/>
		</g>
		<g>
			<path d="M102.35,23.28c4.48,1.45,9.27,1.97,13.54,4.07c2.01,0.99,3.88,2.36,5.02,4.33c1.65,2.85,3.06,5.85,4.46,8.83
				c1.6,3.42,3.13,6.88,4.72,10.31c0-0.15,0-0.31,0-0.46c-0.46,0.97,0.24,1.8,1,2.34c0.37,0.27,0.72,0.52,0.91,0.94
				c0.2,0.45,0.26,0.98,0.32,1.47c0.07,0.54,0.1,1.08,0.1,1.63s-0.05,1.1,0.02,1.64c0.08,0.53,0.3,1.02,0.53,1.5
				c0.22,0.46,0.4,0.94,0.55,1.43c0.36,1.14,0.56,2.32,0.76,3.5c0.04,0.24,0.34,0.38,0.56,0.32c0.26-0.07,0.36-0.32,0.32-0.56
				c-0.19-1.11-0.38-2.22-0.7-3.3c-0.16-0.53-0.35-1.06-0.58-1.57c-0.22-0.49-0.49-0.96-0.56-1.5c-0.07-0.57,0.01-1.16,0-1.73
				c-0.01-0.6-0.07-1.2-0.15-1.8c-0.08-0.52-0.17-1.04-0.4-1.51c-0.23-0.47-0.62-0.8-1.04-1.11c-0.34-0.24-0.78-0.51-0.88-0.96
				c-0.05-0.22,0.12-0.4,0.06-0.62c-0.07-0.25-0.23-0.5-0.34-0.74c-0.45-0.98-0.9-1.96-1.34-2.94c-0.93-2.06-1.87-4.12-2.82-6.17
				c-0.94-2.02-1.9-4.02-2.91-6c-0.49-0.96-0.99-1.91-1.51-2.85c-0.39-0.72-0.82-1.39-1.35-2.02c-2.03-2.38-5.03-3.69-7.94-4.63
				c-3-0.97-6.11-1.54-9.14-2.42c-0.33-0.1-0.66-0.2-0.99-0.3C102.03,22.22,101.79,23.1,102.35,23.28L102.35,23.28z"/>
		</g>
		<g>
			<path d="M68.18,21.66c-1.61,0.81-3.2,1.69-4.72,2.65c-1.46,0.92-3,2.25-2.88,4.15c0.04,0.58,0.95,0.59,0.91,0
				c-0.11-1.72,1.48-2.78,2.76-3.57c1.43-0.87,2.89-1.69,4.39-2.44C69.17,22.18,68.71,21.39,68.18,21.66L68.18,21.66z"/>
		</g>
		<g>
			<path d="M61.17,30.99c0.24,1.55,1.34,2.78,2.64,3.57c1.45,0.89,3.16,1.42,4.83,1.67c1,0.15,2,0.2,3.01,0.14
				c0.29-0.02,0.29-0.47,0-0.46c-2.13,0.12-4.27-0.23-6.24-1.05c-1.75-0.73-3.5-1.99-3.81-4C61.57,30.58,61.13,30.71,61.17,30.99
				L61.17,30.99z"/>
		</g>
		<g>
			<path d="M77.77,34.85c3.28-1,6.59-1.95,9.83-3.08c3.13-1.09,6.22-2.35,9.11-3.98c1.67-0.95,3.28-2.01,4.79-3.2
				c0.23-0.18-0.09-0.5-0.32-0.32c-2.63,2.07-5.55,3.73-8.61,5.09c-3.05,1.35-6.22,2.4-9.4,3.38c-1.84,0.57-3.68,1.11-5.52,1.68
				C77.36,34.49,77.48,34.93,77.77,34.85L77.77,34.85z"/>
		</g>
		<g>
			<path d="M103.8,22.94c-0.14-0.53-0.4-0.99-0.69-1.45c-0.37-0.59-0.78-1.2-1.29-1.68c-0.26-0.25-0.54-0.36-0.87-0.49
				c-0.53-0.21-1.06-0.41-1.6-0.59c-1.08-0.36-2.18-0.67-3.3-0.91c-1.27-0.27-2.57-0.45-3.87-0.53c-0.59-0.03-0.59,0.88,0,0.91
				c2.15,0.13,4.26,0.56,6.31,1.2c0.51,0.16,1.01,0.33,1.52,0.52c0.32,0.12,0.84,0.27,1.06,0.43c0.4,0.29,0.8,0.9,1.1,1.36
				c0.19,0.29,0.37,0.58,0.53,0.88c0.03,0.07,0.07,0.13,0.1,0.2c0,0,0.03,0.07,0.01,0.02s0.02,0.04,0.02,0.05
				c0.03,0.1,0.06,0.2,0.08,0.3C103.07,23.75,103.95,23.51,103.8,22.94L103.8,22.94z"/>
		</g>
		<g>
			<path d="M67.13,23.56c-1.09,0.63-2.18,1.52-2.89,2.56c-0.72,1.06-0.91,2.72-0.17,3.81c0.76,1.11,1.89,1.97,3.24,2.14
				c0.81,0.1,1.66-0.02,2.47-0.11c0.88-0.1,1.76-0.25,2.63-0.43c3.52-0.72,6.91-1.94,10.35-2.93c2.81-0.8,5.58-1.72,8.19-3.03
				c1.5-0.76,2.95-1.63,4.32-2.6c0.37-0.26,0.74-0.54,1.1-0.82c0.29-0.22,0.59-0.43,0.83-0.71c0.35-0.4,0.64-0.96,0.41-1.49
				c-0.12-0.27-0.35-0.46-0.61-0.6c-0.26-0.14-0.49,0.26-0.23,0.39c0.25,0.14,0.48,0.33,0.46,0.64c-0.02,0.27-0.18,0.53-0.36,0.73
				c-0.22,0.26-0.51,0.46-0.78,0.67c-0.35,0.27-0.7,0.53-1.06,0.78c-1.26,0.89-2.57,1.7-3.94,2.41c-2.43,1.26-5.01,2.17-7.63,2.94
				c-3.12,0.91-6.21,1.96-9.36,2.75c-1.6,0.4-3.22,0.72-4.86,0.88c-0.72,0.07-1.48,0.16-2.19,0.01c-0.63-0.14-1.22-0.45-1.7-0.87
				c-0.55-0.48-1.08-1.09-1.23-1.82c-0.15-0.72-0.01-1.56,0.33-2.21c0.3-0.58,0.8-1.06,1.28-1.49c0.51-0.45,1.05-0.87,1.64-1.21
				C67.61,23.81,67.39,23.41,67.13,23.56L67.13,23.56z"/>
		</g>
		<g>
			<path d="M110.11,35.84c-0.39,0.62-0.74,1.27-1.05,1.94c-0.13,0.29-0.29,0.6-0.29,0.93c0,0.32,0.16,0.57,0.35,0.81
				c0.19,0.26,0.37,0.52,0.52,0.81c0.16,0.32,0.39,0.73,0.26,1.09c-0.26,0.74-0.61,1.46-0.91,2.18c-0.11,0.27,0.33,0.39,0.44,0.12
				c0.29-0.7,0.6-1.39,0.88-2.09c0.24-0.61-0.1-1.26-0.41-1.79c-0.16-0.27-0.37-0.51-0.54-0.78c-0.22-0.37-0.06-0.71,0.1-1.06
				c0.31-0.67,0.66-1.32,1.05-1.94C110.67,35.82,110.27,35.59,110.11,35.84L110.11,35.84z"/>
		</g>
		<g>
			<path d="M107.65,44.69c-0.74,1.86-1.83,3.54-2.94,5.18c-0.56,0.83-1.13,1.65-1.68,2.5c-0.27,0.41-0.53,0.83-0.78,1.25
				c-0.24,0.4-0.5,0.82-0.47,1.3c0.03,0.5,0.27,1.01,0.45,1.48c0.19,0.51,0.39,1.01,0.6,1.51c0.2,0.48,0.42,0.96,0.64,1.43
				c0.24,0.51,0.48,1.02,0.59,1.57c0.05,0.25,0.07,0.52,0.04,0.77c-0.03,0.28-0.14,0.54-0.2,0.81c-0.11,0.48,0,0.88,0.24,1.29
				c0.57,0.94,1.17,1.87,1.71,2.83c0.6,1.06,1.17,2.15,1.73,3.23c0.55,1.06,1.29,2.2,1.16,3.46c-0.03,0.29,0.43,0.29,0.46,0
				c0.11-1.03-0.34-1.98-0.79-2.87c-0.5-0.97-1.01-1.94-1.53-2.9s-1.06-1.91-1.63-2.85c-0.27-0.45-0.61-0.88-0.83-1.35
				c-0.26-0.53,0.05-1.03,0.13-1.57c0.13-1.02-0.37-1.97-0.78-2.86c-0.46-1-0.88-2.01-1.25-3.05c-0.19-0.55-0.41-1.04-0.12-1.6
				c0.23-0.44,0.5-0.85,0.76-1.27c0.53-0.83,1.08-1.65,1.64-2.46c1.25-1.83,2.47-3.68,3.29-5.74
				C108.2,44.54,107.76,44.42,107.65,44.69L107.65,44.69z"/>
		</g>
		<g>
			<path d="M109.93,72.09c0.78-0.6,1.59-1.16,2.42-1.67c0.25-0.15,0.02-0.55-0.23-0.39c-0.84,0.51-1.65,1.07-2.42,1.67
				c-0.1,0.08-0.15,0.2-0.08,0.31C109.68,72.1,109.83,72.17,109.93,72.09L109.93,72.09z"/>
		</g>
		<g>
			<path d="M107.88,46.77c-0.43,2.39-0.95,4.75-1.57,7.1c-0.14,0.52-0.35,1.07-0.29,1.62c0.06,0.45,0.32,0.83,0.63,1.15
				c0.78,0.81,1.71,1.5,2.59,2.19c1.02,0.8,2.06,1.55,3.13,2.27c-0.04-0.05-0.07-0.09-0.11-0.14c0.16,0.93,0.33,1.86,0.49,2.8
				c0.04,0.2,0.16,0.54,0.07,0.73c-0.08,0.16-0.32,0.29-0.46,0.4c-0.37,0.29-0.74,0.58-1.11,0.87c-0.23,0.18,0.09,0.5,0.32,0.32
				c0.3-0.23,0.6-0.47,0.89-0.7c0.25-0.2,0.61-0.4,0.76-0.7c0.15-0.29,0.03-0.63-0.02-0.93c-0.07-0.39-0.14-0.78-0.21-1.17
				s-0.14-0.78-0.21-1.17c-0.03-0.17-0.03-0.4-0.1-0.56c-0.06-0.16-0.24-0.23-0.37-0.32c-0.62-0.42-1.23-0.86-1.84-1.31
				c-0.62-0.46-1.22-0.93-1.82-1.42c-0.56-0.46-1.13-0.91-1.64-1.42c-0.22-0.22-0.43-0.47-0.53-0.78c-0.12-0.39,0.02-0.8,0.12-1.18
				c0.2-0.76,0.4-1.51,0.58-2.28c0.42-1.74,0.79-3.49,1.11-5.25C108.37,46.6,107.93,46.48,107.88,46.77L107.88,46.77z"/>
		</g>
		<g>
			<path d="M130.04,50.53c0.01,1.08-0.14,2.15-0.45,3.18c-0.16,0.54-0.37,1.05-0.61,1.56c-0.18,0.39-0.38,0.83-0.28,1.27
				c0.23,1.02,1.42,0.83,2.18,0.87c0.98,0.06,1.56,0.97,2.02,1.73c0.15,0.25,0.55,0.02,0.39-0.23c-0.42-0.68-0.9-1.43-1.65-1.77
				c-0.43-0.2-0.88-0.19-1.35-0.18c-0.42,0.01-1.07-0.03-1.16-0.56c-0.08-0.48,0.29-0.99,0.47-1.41c0.2-0.46,0.37-0.93,0.5-1.41
				c0.28-0.99,0.4-2.03,0.39-3.06C130.5,50.23,130.04,50.23,130.04,50.53L130.04,50.53z"/>
		</g>
		<g>
			<path d="M29.64,62.91c0.5,0.52,1.11,0.91,1.79,1.16c0.59,0.22,1.41,0.4,1.6,1.1c0.08,0.28,0.52,0.16,0.44-0.12
				c-0.21-0.73-0.92-1.07-1.58-1.3c-0.74-0.26-1.39-0.6-1.93-1.17C29.76,62.37,29.44,62.69,29.64,62.91L29.64,62.91z"/>
		</g>
		<g>
			<path d="M34.26,66.93c0.62,0.91,1.16,1.86,1.63,2.86c0.13,0.27,0.52,0.03,0.39-0.23c-0.47-0.99-1.01-1.95-1.63-2.86
				C34.49,66.46,34.09,66.69,34.26,66.93L34.26,66.93z"/>
		</g>
		<g>
			<path d="M42.61,39.66c-0.31,2.24,0.29,4.43,0.47,6.65c0.19,2.32-0.26,4.62-0.63,6.9c-0.21,1.31-0.43,2.63-0.64,3.94
				c0.14-0.02,0.28-0.04,0.42-0.05c-0.8-1.67-1.18-3.54-1.51-5.35c-0.09-0.49-0.12-0.96-0.06-1.46c0.05-0.45,0.13-0.9,0.16-1.35
				c0.04-0.94-0.11-1.88-0.43-2.77c-0.1-0.27-0.54-0.16-0.44,0.12c0.33,0.92,0.47,1.88,0.4,2.86c-0.04,0.47-0.13,0.93-0.17,1.4
				c-0.03,0.48,0.03,0.96,0.12,1.43c0.34,1.82,0.73,3.67,1.54,5.35c0.08,0.17,0.39,0.14,0.42-0.05c0.38-2.31,0.8-4.61,1.11-6.93
				c0.15-1.12,0.25-2.25,0.21-3.38c-0.04-1.11-0.22-2.21-0.38-3.31c-0.18-1.28-0.33-2.58-0.15-3.87
				C43.09,39.49,42.65,39.36,42.61,39.66L42.61,39.66z"/>
		</g>
		<g>
			<path d="M108.76,74.34c-0.08,1.13-0.16,2.25-0.24,3.38c-0.02,0.26-0.04,0.53-0.06,0.79c-0.02,0.23-0.04,0.48,0.07,0.69
				c0.09,0.17,0.24,0.31,0.37,0.45c0.2,0.22,0.41,0.43,0.61,0.65c0.2,0.21,0.53-0.11,0.32-0.32c-0.18-0.19-0.36-0.38-0.54-0.56
				c-0.16-0.17-0.39-0.34-0.4-0.59c-0.02-0.47,0.06-0.96,0.1-1.43c0.07-1.01,0.14-2.03,0.22-3.04
				C109.24,74.04,108.78,74.04,108.76,74.34L108.76,74.34z"/>
		</g>
		<g>
			<path d="M25.68,65.76c0.82-0.51,1.58-1.13,2.26-1.82c0.26-0.26,0.53-0.61,0.9-0.71c0.44-0.12,0.92,0.14,1.3,0.34
				c0.52,0.27,0.99-0.52,0.46-0.79c-0.49-0.25-1.02-0.51-1.59-0.49c-0.55,0.02-1,0.3-1.39,0.67c-0.36,0.35-0.7,0.73-1.09,1.06
				c-0.41,0.36-0.85,0.67-1.31,0.96C24.72,65.28,25.17,66.07,25.68,65.76L25.68,65.76z"/>
		</g>
		<g>
			<path d="M36.16,125.94c-0.03-0.38-0.06-0.77,0.02-1.15c0.09-0.43,0.35-0.71,0.74-0.91c0.82-0.41,1.74-0.62,2.62-0.84
				c1.88-0.47,3.77-0.89,5.67-1.24c0.29-0.05,0.17-0.49-0.12-0.44c-2.08,0.38-4.15,0.84-6.19,1.37c-0.47,0.12-0.94,0.26-1.4,0.42
				c-0.4,0.15-0.84,0.3-1.18,0.57c-0.68,0.53-0.68,1.44-0.62,2.22C35.73,126.23,36.18,126.23,36.16,125.94L36.16,125.94z"/>
		</g>
		<g>
			<path d="M51.82,121.59c2.77-0.12,5.54-0.32,8.29-0.6s5.49-0.64,8.23-0.96c5.36-0.64,10.78-1.15,16.17-0.7
				c2.96,0.25,5.89,0.79,8.71,1.75c0.28,0.09,0.4-0.35,0.12-0.44c-5.01-1.7-10.37-2.09-15.63-1.89c-5.54,0.21-11.03,1.07-16.54,1.67
				c-3.11,0.34-6.23,0.58-9.36,0.72C51.53,121.14,51.53,121.6,51.82,121.59L51.82,121.59z"/>
		</g>
		<g>
			<path d="M100.92,123.19c0.92,0.33,1.86,0.64,2.77,1c0.76,0.3,1.53,0.78,1.6,1.68c0.02,0.29,0.48,0.29,0.46,0
				c-0.07-0.98-0.77-1.61-1.63-1.99c-1-0.44-2.05-0.76-3.08-1.12C100.76,122.65,100.64,123.09,100.92,123.19L100.92,123.19z"/>
		</g>
		<g>
			<path d="M85.3,109.68c2.23,0.12,4.46,0.39,6.66,0.8c1.11,0.21,2.21,0.45,3.31,0.73c0.53,0.13,1.06,0.28,1.58,0.43
				c0.47,0.14,1.04,0.23,1.46,0.48c0.3,0.18,0.32,0.46,0.35,0.78s0.06,0.64,0.09,0.96c0.06,0.66,0.12,1.31,0.18,1.97
				c0.13-0.05,0.26-0.11,0.39-0.16c-0.89-1.08-2.05-1.88-3.36-2.34c-0.28-0.1-0.4,0.34-0.12,0.44c1.24,0.44,2.33,1.21,3.16,2.23
				c0.12,0.15,0.41,0.03,0.39-0.16c-0.06-0.62-0.11-1.24-0.17-1.86c-0.03-0.3-0.06-0.6-0.08-0.9c-0.02-0.25-0.03-0.53-0.11-0.77
				c-0.15-0.44-0.55-0.63-0.97-0.77c-0.57-0.18-1.14-0.35-1.72-0.5c-2.3-0.63-4.65-1.1-7.01-1.42c-1.34-0.18-2.68-0.3-4.02-0.38
				C85,109.2,85,109.66,85.3,109.68L85.3,109.68z"/>
		</g>
		<path class="st20" d="M68.33,22.12c0,0,10.64-5.5,24.08-4.35"/>
		<path class="st21" d="M97.38,20.35c0.04,0.01,0.08,0.02,0.12,0.04c-3.24-1.43-7.01-1.47-10.51-1.4
			c-3.46,0.07-6.92,0.51-10.29,1.31c-3.27,0.78-6.67,1.82-9.57,3.53"/>
		<path class="st22" d="M137.26,76.16c-0.91,0.82-1.32,2.13-1.93,3.16c-0.73,1.24-2.13,1.99-3.36,2.75
			c-2.89,1.77-6.04,3.1-9.31,3.95c-0.84,0.22-1.89,0.35-2.46-0.31c-0.24-0.28-2.43-0.84-2.92-0.84"/>
		<path class="st21" d="M135,75.88c-0.88,2.43-3.41,4.69-5.67,5.83c-0.93,0.47-1.9,0.87-2.87,1.27c-1.2,0.49-2.36,1-3.63,1.31
			c-0.27,0.07-0.56,0.13-0.83,0.08c-0.27-0.04-0.51-0.19-0.77-0.25c-0.35-0.09-0.74-0.03-1.06,0.16"/>
		
			<linearGradient id="SVGID_00000178165482522821295400000011114090143738672056_" gradientUnits="userSpaceOnUse" x1="120.2506" y1="755.4686" x2="130.681" y2="781.6404" gradientTransform="matrix(1 0 0 1 0 -692)">
			<stop  offset="0" style="stop-color:#000000"/>
			<stop  offset="0.0874" style="stop-color:#1C1C1C;stop-opacity:0.9188"/>
			<stop  offset="0.3436" style="stop-color:#696969;stop-opacity:0.6809"/>
			<stop  offset="0.5719" style="stop-color:#A7A7A7;stop-opacity:0.4687"/>
			<stop  offset="0.7642" style="stop-color:#D3D3D3;stop-opacity:0.2901"/>
			<stop  offset="0.913" style="stop-color:#EEEEEE;stop-opacity:0.1519"/>
			<stop  offset="1" style="stop-color:#F8F8F8;stop-opacity:0.0711"/>
		</linearGradient>
		<path style="fill:url(#SVGID_00000178165482522821295400000011114090143738672056_);" d="M133.8,70.64
			c-0.34-0.32-0.71-0.59-1.11-0.78c-2.33-1.13-4.54,0.18-6.56,1.35c-1.93,1.13-3.87,2.25-5.8,3.38c-0.95,0.55-1.91,1.11-2.86,1.66
			c-0.89,0.52-1.62,0.78-2.26,1.63c-0.08,0.11-0.17,0.22-0.18,0.36c-0.01,0.1,0.02,0.19,0.05,0.28c0.4,1.19,1.04,2.27,1.62,3.38
			c0.48,0.91,0.89,2.06,2.16,1.82c0.6-0.11,1.12-0.49,1.62-0.84c0.95-0.67,1.93-1.28,2.92-1.9c0.46-0.29,0.95-0.58,1.48-0.57
			c-0.37,0.79-0.74,1.57-1.11,2.36c-0.05,0.1-0.09,0.23-0.02,0.31c0.08,0.09,0.21,0.05,0.32,0.02c1.23-0.44,2.45-0.82,3.62-1.41
			c2.84-1.42,5.4-3.49,7.11-6.16C135.82,73.94,135.11,71.89,133.8,70.64z"/>
		<path class="st22" d="M34.3,102.65c-0.3-0.67-1.02-1.05-1.73-1.21c-0.71-0.17-1.46-0.17-2.16-0.35c-2.94-0.73-4.57-4.54-4.9-7.27
			c-0.25-2.11-0.03-4.24,0.06-6.36c0.13-3.25-0.06-6.52-0.58-9.73c-0.3-1.84-0.7-3.66-1.1-5.49c-0.22-1.02-0.45-2.06-0.38-3.1
			c0.1-1.77,1.08-3.46,2.55-4.44"/>
		<path class="st21" d="M26.85,70.39c-0.41,1.48-0.05,3.07,0.43,4.53c1.01,3.08,1.67,5.9,1.54,9.19c-0.11,2.86-0.53,5.71-0.41,8.56
			c0.07,1.56,0.44,3.35,1.81,4.1"/>
		
			<linearGradient id="SVGID_00000165192878080756375010000015622555670718735804_" gradientUnits="userSpaceOnUse" x1="40.7856" y1="773.9886" x2="13.0507" y2="780.1588" gradientTransform="matrix(1 0 0 1 0 -692)">
			<stop  offset="0" style="stop-color:#000000"/>
			<stop  offset="0.0874" style="stop-color:#1C1C1C;stop-opacity:0.9188"/>
			<stop  offset="0.3436" style="stop-color:#696969;stop-opacity:0.6809"/>
			<stop  offset="0.5719" style="stop-color:#A7A7A7;stop-opacity:0.4687"/>
			<stop  offset="0.7642" style="stop-color:#D3D3D3;stop-opacity:0.2901"/>
			<stop  offset="0.913" style="stop-color:#EEEEEE;stop-opacity:0.1519"/>
			<stop  offset="1" style="stop-color:#F8F8F8;stop-opacity:0.0711"/>
		</linearGradient>
		<path style="fill:url(#SVGID_00000165192878080756375010000015622555670718735804_);" d="M33.82,85.42
			c-0.52-1.78-0.98-3.62-1.43-5.39c-0.41-1.61-0.77-3.24-1.21-4.84c-0.22-0.83-0.47-1.65-0.74-2.46c-0.24-0.71-0.41-1.57-0.88-2.17
			c-0.26-0.34-0.28-0.19-0.61-0.04c-0.32,0.14-0.66,0.14-0.98-0.01c-0.37-0.18-0.64-0.5-0.89-0.82c-0.12-0.16-0.24-0.32-0.34-0.49
			c-0.42,0.15-0.48,1.09-0.53,1.45c-0.08,0.49-0.09,1.01,0.01,1.5c0.16,0.77,0.5,1.63,0.5,2.42c0.64,3.55,1.11,7.15,0.93,10.75
			c-0.13,2.6-0.59,5.18-0.54,7.79c0.03,1.29,0.07,2.96,0.58,4.15c0.29,0.67,0.76,1.26,1.24,1.81c0.43,0.49,1.06,1.08,1.75,1.08
			c0.22-0.79-0.32-1.62,0-2.41c0.18-0.45,0.61-0.76,1.01-1.04c0.72-0.5,1.43-1.02,2.16-1.5c0.59-0.39,1.22-0.67,1.46-1.4
			c0.14-0.41,0.13-0.85,0.2-1.27c0.07-0.41,0.22-0.82,0.21-1.24c-0.02-0.86-0.57-1.79-0.86-2.59c-0.35-0.97-0.66-1.95-0.95-2.93
			C33.89,85.65,33.86,85.54,33.82,85.42z"/>
		<g>
			<path d="M32.14,98.52c0.3-0.2,0.53-0.46,0.81-0.67c0.2-0.16,0.42-0.3,0.64-0.44c0.48-0.31,0.98-0.6,1.45-0.92
				c0.89-0.61,1.78-1.36,1.92-2.5c0.03-0.25-0.23-0.46-0.46-0.46c-0.27,0-0.43,0.21-0.46,0.46c-0.02,0.13-0.09,0.34-0.18,0.49
				c-0.11,0.18-0.21,0.31-0.36,0.46c-0.34,0.35-0.74,0.64-1.15,0.9c-0.44,0.29-0.9,0.56-1.34,0.85c-0.2,0.13-0.39,0.26-0.58,0.4
				c-0.27,0.2-0.49,0.46-0.77,0.64C31.19,98.05,31.65,98.85,32.14,98.52L32.14,98.52z"/>
		</g>
		<g>
			<path d="M112.01,81.73c-0.18,1.45-0.58,2.87-1,4.27c-0.42,1.4-0.82,2.81-1.21,4.22c-0.39,1.4-0.91,2.76-1.47,4.1
				c-0.56,1.35-1.28,2.69-1.63,4.11c-0.36,1.45-0.25,2.95-0.32,4.42c-0.07,1.49-0.36,2.95-0.59,4.42c-0.23,1.46-0.39,2.93-0.31,4.42
				c0.09,1.53,0.31,3.04,0.27,4.57c-0.05,1.52-0.24,3.03-0.28,4.54s-0.01,3.01-0.16,4.52c-0.07,0.75-0.17,1.49-0.27,2.24
				c-0.08,0.56-0.07,1.46-0.51,1.88c-0.43,0.4-1.18,0.19-1.68,0.08c-0.76-0.17-1.52-0.34-2.28-0.5c-5.98-1.27-12.02-2.24-18.11-2.84
				c-6.1-0.6-12.24-0.83-18.36-0.63c-3.12,0.1-6.23,0.32-9.33,0.65c-1.51,0.16-3.02,0.35-4.52,0.57c-1.45,0.22-2.93,0.49-4.3,1.02
				c-1.3,0.5-2.51,1.2-3.74,1.84c-1.27,0.65-2.59,1.17-3.99,1.49c-0.58,0.13-1.48,0.43-1.99-0.01c-0.25-0.21-0.2-0.52-0.19-0.82
				c0.02-0.38,0.04-0.76,0.07-1.14c0.11-1.46,0.24-2.92,0.13-4.39c-0.25-3.09-0.42-6.17-0.54-9.26c-0.06-1.55-0.1-3.11-0.12-4.66
				c-0.02-1.51-0.08-3.01-0.12-4.51c-0.04-1.49-0.05-2.98,0.05-4.47c0.1-1.5,0.36-2.96,0.71-4.42c0.72-2.96,1.3-5.96,1.69-8.98
				c0.79-6.15,0.56-12.35,0.31-18.53c-0.06-1.54-0.12-3.07-0.19-4.61c-0.02-0.59-0.94-0.59-0.91,0c0.26,6.34,0.69,12.73,0.27,19.07
				c-0.2,3.12-0.65,6.22-1.27,9.28c-0.31,1.52-0.7,3.02-1.03,4.53c-0.32,1.46-0.48,2.96-0.55,4.46c-0.06,1.54-0.03,3.08,0.03,4.62
				c0.06,1.54,0.08,3.09,0.11,4.63c0.06,3.15,0.16,6.32,0.38,9.46c0.1,1.53,0.32,3.07,0.32,4.6c0,1.49-0.22,2.97-0.26,4.46
				c-0.1,3.37,5.3,1.07,6.81,0.35c1.28-0.61,2.5-1.35,3.8-1.92c1.37-0.6,2.86-0.91,4.33-1.14c3.13-0.5,6.29-0.81,9.45-1.02
				c6.27-0.43,12.57-0.39,18.83,0.05c6.24,0.44,12.45,1.29,18.6,2.47c1.53,0.29,3.05,0.61,4.57,0.94c1.13,0.25,2.76,0.88,3.71-0.11
				c0.45-0.46,0.54-1.12,0.63-1.73c0.11-0.75,0.21-1.5,0.3-2.25c0.18-1.53,0.24-3.05,0.23-4.58c-0.01-1.54,0.18-3.08,0.26-4.62
				c0.08-1.56-0.08-3.09-0.2-4.64c-0.13-1.56-0.01-3.08,0.23-4.63c0.23-1.48,0.52-2.95,0.61-4.45c0.1-1.51-0.06-3.06,0.32-4.54
				c0.37-1.44,1.1-2.8,1.67-4.17c1.14-2.74,1.86-5.62,2.71-8.46c0.41-1.39,0.78-2.79,0.95-4.23
				C112.99,81.15,112.08,81.15,112.01,81.73L112.01,81.73z"/>
		</g>
		<g>
			<path d="M31.45,98.24c0.06,0.92,0.17,2.01,0.94,2.65c0.35,0.29,0.78,0.47,1.21,0.62c0.38,0.13,0.77,0.24,1.16,0.3
				c0.24,0.04,0.49-0.06,0.56-0.32c0.06-0.22-0.07-0.52-0.32-0.56c-0.37-0.06-0.73-0.15-1.08-0.27c-0.35-0.12-0.59-0.22-0.93-0.45
				c0.09,0.06,0,0-0.02-0.02c-0.04-0.03-0.07-0.07-0.11-0.1c-0.08-0.09-0.07-0.07-0.13-0.18c-0.12-0.19-0.14-0.26-0.21-0.48
				c-0.13-0.43-0.14-0.74-0.17-1.19c-0.02-0.25-0.2-0.46-0.46-0.46C31.67,97.78,31.44,97.99,31.45,98.24L31.45,98.24z"/>
		</g>
	</g>
</g>
</svg>
