<?xml version="1.0" encoding="utf-8"?>
<!-- Generator: Adobe Illustrator 28.0.0, SVG Export Plug-In . SVG Version: 6.00 Build 0)  -->
<svg version="1.1" id="Layer_1" xmlns="http://www.w3.org/2000/svg" xmlns:xlink="http://www.w3.org/1999/xlink" x="0px" y="0px"
	 viewBox="0 0 150 150" style="enable-background:new 0 0 150 150;" xml:space="preserve">
<style type="text/css">
	.st0{stroke:#000000;stroke-miterlimit:10;}
	.st1{fill:#A6ABB5;}
	.st2{fill:#E6E7E8;}
	.st3{fill:url(#SVGID_1_);}
	.st4{fill:url(#SVGID_00000174570295349529835330000006828363082394992010_);}
	.st5{fill:url(#SVGID_00000027571660857336050480000010793126552049026203_);}
	.st6{fill:url(#SVGID_00000034083399062441030290000016820031454490453677_);}
	.st7{fill:url(#SVGID_00000141443790056508310660000016813706447639339947_);}
	.st8{fill:url(#SVGID_00000180361689526692666000000002725365828683702184_);}
	.st9{fill:url(#SVGID_00000132775713794727626190000009464984193503713438_);}
	.st10{fill:url(#SVGID_00000025440598206769717610000004539454187785195673_);}
	.st11{fill:#915A3E;}
	.st12{fill:#A36346;}
	.st13{fill:#B8775A;}
	.st14{fill:none;stroke:#000000;stroke-width:0.5;stroke-linecap:round;stroke-linejoin:round;stroke-miterlimit:10;}
	.st15{fill:none;stroke:#000000;stroke-width:0.5;stroke-linecap:round;stroke-miterlimit:10;}
	.st16{fill:none;stroke:#F2D400;stroke-width:1;stroke-miterlimit:10.001;}
	.st17{fill:#F2D400;}
	.st18{fill:url(#SVGID_00000122692499013858888310000016745739825822070669_);}
	.st19{stroke:#000000;stroke-width:0.5;stroke-miterlimit:10;}
</style>
<g id="Cryptobro_Shovel">
	<path class="st0" d="M138.6,7.77c-0.09-0.07-0.2-0.1-0.31-0.09c-0.2,0.02-5.09,0.64-14.33,5.68c-15.3,8.34-30.34,22.21-40.31,32.44
		l-1.27-0.13c-0.13-0.01-0.26,0.03-0.35,0.13l-1.75,1.82c-0.07,0.07-0.11,0.16-0.12,0.26c-0.06,0.82,0.94,3.74,1.14,4.31
		c0.05,0.15,0.19,0.26,0.35,0.28c4.55,0.55,6.64,0.79,7.61,0.9c-3.66,3.16-6.36,5.56-6.43,5.63c-2.64,2.43-1.68,4.01-1.64,4.07
		c0.12,0.19,0.38,0.25,0.57,0.13c0.01-0.01,0.02-0.01,0.03-0.02c0.17-0.13,0.22-0.37,0.12-0.56c0,0-0.01-0.02-0.02-0.06
		c0.14-0.09,0.27-0.19,0.39-0.31c0.13-0.13,0.23-0.28,0.37-0.4c0.12-0.1,0.25-0.2,0.4-0.24c0.12-0.03,0.25-0.01,0.37,0.01
		c0.28,0.04,0.56,0.15,0.8,0.3c0.13,0.08,0.25,0.17,0.37,0.27c0.1,0.09,0.25,0.18,0.33,0.29c0.12,0.11,0.24,0.22,0.36,0.33
		c0.25,0.24,0.49,0.49,0.71,0.75c0.13,0.21,0.26,0.4,0.43,0.58c0.05,0.05,0.1,0.11,0.16,0.16c0.3,0.41,0.57,0.84,0.79,1.3
		c0.13,0.26,0.28,0.54,0.36,0.82c-0.02,0.21-0.17,0.38-0.28,0.59c-0.1,0.18-0.21,0.32-0.35,0.44c-0.05,0.04-0.11,0.08-0.16,0.13
		c0,0,0,0,0,0.01c-0.05,0.03-0.1,0.07-0.15,0.1c-0.09-0.02-0.14-0.05-0.15-0.05c-0.2-0.12-0.46-0.05-0.58,0.15
		c-0.12,0.2-0.05,0.46,0.15,0.58c0.07,0.04,1.7,0.97,3.79-1.44l12.69-13.39c1.88-0.13,17.89-1.32,23.66-5.05
		c0.01,0,0.01-0.01,0.02-0.01c0.01,0,0.01-0.01,0.02-0.02c0.03-0.03,0.85-0.71,2.12-1.98h0.01c0.03-0.02,0.06-0.05,0.08-0.08
		c0,0,0-0.01,0.01-0.02c3.75-3.77,11.25-12.48,14.35-24.46C142.98,21.86,145.29,13.05,138.6,7.77z"/>
	<path class="st1" d="M120.76,50.22c0.61-0.18,1.23-0.36,1.84-0.55c0.83-0.24,1.66-0.49,2.45-0.85c0.79-0.37,1.4-1,2.03-1.59
		c0.39-0.28,0.73-0.71,1.06-1.05c0.33-0.35,0.67-0.69,0.95-1.07c0.36-0.48,0.86-0.88,1.27-1.32c0.43-0.46,0.85-0.93,1.26-1.4
		c0.82-0.95,1.6-1.94,2.34-2.96c0.44-0.6,0.86-1.21,1.28-1.82c0.66-0.95,1.3-1.92,1.97-2.85c0.62-0.86,1.08-1.82,1.57-2.76
		c0.47-0.92,0.93-1.84,1.36-2.79c0.84-1.87,1.57-3.81,2.04-5.81c0.48-2,0.7-4.07,0.56-6.13c-0.2-2.95-1.25-5.89-3.31-8.03
		c-0.34-0.36-0.68-0.66-1.09-0.93c-0.04-0.03-0.09-0.06-0.14-0.06c-0.04,0-0.08,0.01-0.11,0.02c-1.06,0.28-2.13,0.51-3.19,0.82
		c-1.32,0.39-2.61,0.85-3.87,1.38c-1.27,0.53-2.51,1.11-3.74,1.74c-1.22,0.62-2.41,1.29-3.6,1.97c-2.34,1.36-4.65,2.78-6.96,4.21
		c-2.44,1.51-4.86,3.06-7.19,4.73c-0.66,0.47-1.31,0.95-1.95,1.44c-1.17,0.89-2.32,1.8-3.45,2.75c-0.56,0.47-1.12,0.95-1.68,1.43
		c-0.25,0.22-0.53,0.42-0.77,0.66c-0.25,0.24-0.46,0.52-0.68,0.78c-0.51,0.58-1.11,1.07-1.71,1.54c-0.26,0.2-0.5,0.44-0.75,0.65
		c-0.28,0.23-0.57,0.47-0.85,0.7c-0.56,0.47-1.12,0.94-1.68,1.42c-1.11,0.96-2.22,1.93-3.31,2.91c-1.08,0.98-2.15,1.98-3.21,2.99
		c-1.05,1-2.09,2.02-3.11,3.05c-0.52,0.53-1.04,1.06-1.56,1.59c-0.2,0.2-0.39,0.41-0.59,0.61c-0.15,0.15-0.32,0.41-0.54,0.43
		c-0.06,0.01-0.12,0-0.17-0.01c-0.35-0.04-0.7-0.03-1.04,0.03c-0.1,0.02-0.19,0.04-0.28,0.09c-0.1,0.06-0.18,0.15-0.25,0.25
		c-0.29,0.36-0.58,0.73-0.93,1.03c-0.06,0.06-0.13,0.11-0.18,0.18c-0.09,0.12-0.12,0.27-0.12,0.42c-0.01,0.27,0.06,0.54,0.14,0.81
		c0.24,0.79,0.57,1.55,0.72,2.36c0.03,0.17,0.05,0.34,0.1,0.5c0.02,0.06,0.04,0.13,0.07,0.18c0.07,0.1,0.17,0.15,0.28,0.18
		s0.2,0.07,0.3,0.11c0.26,0.1,0.57,0.07,0.83,0.1c0.82,0.09,1.64,0.19,2.46,0.28c1.46,0.17,2.93,0.34,4.39,0.5
		c-0.03,0-0.15,0.12-0.18,0.14c-0.07,0.06-0.14,0.11-0.21,0.17c-0.13,0.11-0.27,0.21-0.4,0.32c-0.26,0.22-0.53,0.43-0.79,0.65
		c-0.52,0.44-1.04,0.88-1.55,1.33c-1.02,0.9-2.02,1.83-3,2.78c-0.36,0.35-0.71,0.7-1.06,1.05c-0.17,0.17-0.33,0.39-0.52,0.53
		c-0.18,0.13-0.31,0.26-0.41,0.46c-0.09,0.18-0.15,0.37-0.23,0.55c-0.08,0.2-0.18,0.39-0.22,0.61c-0.05,0.26-0.01,0.53,0.04,0.79
		c0.01,0.06,0.02,0.12,0.07,0.16c0.07,0.06,0.19,0.02,0.27-0.03c0.17-0.11,0.33-0.24,0.47-0.38c0.13-0.13,0.23-0.28,0.37-0.4
		c0.12-0.1,0.25-0.2,0.4-0.24c0.12-0.03,0.25-0.01,0.37,0.01c0.28,0.04,0.56,0.15,0.8,0.3c0.13,0.08,0.25,0.17,0.37,0.27
		c0.1,0.09,0.25,0.18,0.33,0.29c0.12,0.11,0.24,0.22,0.36,0.33c0.85,0.81,1.58,1.74,2.09,2.79c0.17,0.36,0.39,0.73,0.41,1.13
		c0,0.07,0,0.14-0.03,0.2c-0.02,0.04-0.06,0.08-0.1,0.11c-0.22,0.19-0.5,0.32-0.71,0.54c-0.07,0.07-0.14,0.17-0.11,0.28
		c0.02,0.07,0.07,0.12,0.13,0.15c0.11,0.06,0.24,0.07,0.36,0.07c0.47,0,0.85-0.18,1.2-0.48c0.55-0.47,1.04-1.02,1.55-1.54
		c1.13-1.14,2.27-2.28,3.36-3.45c1.41-1.51,2.76-3.08,4.14-4.62c0.19-0.22,0.48-0.39,0.7-0.58c0.24-0.21,0.48-0.41,0.71-0.63
		c0.47-0.42,0.93-0.86,1.38-1.31s0.88-0.91,1.31-1.38c0.21-0.24,0.42-0.47,0.63-0.71c0.06-0.07,0.13-0.21,0.22-0.26
		c0.11-0.07,0.28-0.06,0.4-0.07c2.01-0.23,4.05-0.21,6.06-0.45c0.75-0.09,1.5-0.21,2.24-0.34c1.15-0.19,2.29-0.38,3.43-0.6
		c0.56-0.11,1.13-0.2,1.69-0.34c0.2-0.05,0.36-0.16,0.57-0.19c0.29-0.04,0.59-0.01,0.88-0.04c0.78-0.09,1.57-0.43,2.32-0.65
		C120.34,50.35,120.55,50.28,120.76,50.22z"/>
	<path class="st2" d="M113.07,37.23c-0.3-0.08-0.62-0.06-0.93,0c-0.33,0.06-0.71,0.14-0.98,0.35c-0.02,0.01-0.02,0.03-0.03,0.05
		c-0.72-0.03-1.42,0.23-2.06,0.55c-1.67,0.84-3.2,1.92-4.67,3.06c-0.62,0.48-1.23,0.98-1.83,1.49c-0.06-0.03-0.13-0.04-0.21-0.01
		c-0.94,0.45-1.92,0.77-2.95,0.88c-1.08,0.12-2.17,0.06-3.25-0.03c-1.14-0.1-2.27-0.25-3.4-0.4c-0.56-0.08-1.13-0.15-1.69-0.25
		c-0.53-0.09-1.11-0.26-1.65-0.2c-0.06,0.01-0.07,0.09-0.02,0.11c0.48,0.29,1.13,0.35,1.67,0.46c0.6,0.12,1.21,0.24,1.81,0.33
		c1.17,0.17,2.35,0.29,3.53,0.38c1.61,0.12,3.4,0.21,4.99-0.29c-1.87,1.62-3.69,3.3-5.59,4.89c-0.47,0.39-0.93,0.78-1.4,1.18
		c0.2-0.24,0.41-0.45,0.68-0.63c0.13-0.09-0.01-0.28-0.15-0.2c-1.05,0.64-1.67,1.7-2.56,2.51c-0.35,0.28-0.69,0.57-1.02,0.87
		c-0.7,0.56-1.42,1.11-2.11,1.68c-1.05,0.87-2.08,1.76-3.1,2.66c-0.98,0.87-1.99,1.73-2.93,2.64c-0.49,0.47-0.95,0.98-1.31,1.55
		c-0.25,0.39-0.41,0.81-0.28,1.27c0,0.04-0.01,0.07-0.01,0.11c0.01,0.2,0.3,0.19,0.34,0.01c0.23-1.23,1.26-2.05,2.1-2.89
		c0.39-0.39,0.78-0.77,1.17-1.15c0.5-0.44,1-0.89,1.51-1.33c0.34-0.29,0.68-0.59,1.02-0.88c0.42-0.25,0.85-0.47,1.25-0.75
		c0.28-0.2,0.47-0.49,0.73-0.71c0.25-0.21,0.6-0.27,0.89-0.41c-0.28,0.4-0.57,0.79-0.89,1.16c-0.42,0.5-0.98,0.96-1.31,1.53
		c-0.23,0.39-0.42,0.71-0.79,0.99c-0.33,0.26-0.7,0.46-1.07,0.65v0.01c0.61-0.29,1.28-0.61,1.69-1.17c0.1-0.14,0.17-0.29,0.25-0.44
		c0.12-0.19,0.28-0.33,0.44-0.48c0.28-0.26,0.55-0.53,0.82-0.81c1.05-1.1,2.14-2.25,2.85-3.61c0.21-0.17,0.41-0.34,0.61-0.51
		c0.69-0.57,1.39-1.13,2.08-1.71c1.39-1.15,2.75-2.33,4.1-3.52c0.49-0.43,0.98-0.87,1.48-1.3c0.44-0.22,0.89-0.46,1.27-0.78
		c0.37-0.32,0.7-0.68,1.05-1.03c0.04-0.04,0.08-0.09,0.12-0.13c0.81-0.55,1.69-1.03,2.5-1.58c0.6-0.4,1.18-0.85,1.73-1.32
		c0.36-0.31,0.79-0.64,1.27-0.75c0.12,0.1,0.25,0.19,0.4,0.27c0.16,0.08,0.33,0.16,0.51,0.21c0.04,0.01,0.07,0.01,0.09,0.04
		c0.02,0.03,0.01,0.09,0.01,0.13c0,0.08-0.02,0.17-0.03,0.25c-0.12,0.68-0.38,1.32-0.81,1.86l0,0c0.49-0.53,0.86-1.19,1.01-1.9
		c0.02-0.09,0.03-0.18,0.06-0.28c0.02-0.08,0.04-0.16,0.02-0.24c-0.02-0.08-0.09-0.14-0.17-0.18c0.25-0.12,0.48-0.31,0.69-0.45
		c0.46-0.33,0.93-0.67,1.5-0.79c0.19,0.09,0.37,0.21,0.55,0.35c0.03,0.03,0.08-0.01,0.07-0.05c-0.04-0.11-0.11-0.21-0.18-0.3
		c0.02,0,0.05,0,0.07,0c0.05-0.01,0.1-0.02,0.15-0.04c0.09-0.03,0.17-0.08,0.24-0.13s0.14-0.12,0.19-0.19s0.11-0.15,0.15-0.22
		c0.07,0.04,0.14,0.09,0.2,0.15c0.11,0.11,0.19,0.23,0.25,0.36c0.03,0.06,0.05,0.13,0.08,0.19c0.03,0.08,0.09,0.14,0.11,0.22
		c0.01,0.03,0.06,0.02,0.06-0.01c-0.01-0.09,0.01-0.17,0-0.27c-0.01-0.08-0.03-0.15-0.05-0.23c-0.05-0.15-0.11-0.31-0.22-0.43
		C113.61,37.45,113.35,37.31,113.07,37.23z"/>
	<path class="st2" d="M110.5,42.2c-1,1.09-1.92,2.25-2.93,3.34s-2.05,2.14-3.1,3.18c-1.06,1.06-2.11,2.11-3.16,3.17
		c-0.53,0.53-1.05,1.07-1.57,1.6c-0.54,0.55-1.14,1.05-1.69,1.6c-0.58,0.6-1.17,1.19-1.78,1.76c-0.61,0.56-1.26,0.96-1.98,1.35
		c-0.02,0.01-0.01,0.02,0,0.03c-0.19,0.06-0.38,0.11-0.56,0.17c-0.47,0.15-0.94,0.29-1.41,0.45c-0.96,0.33-1.95,0.71-2.95,0.87
		c-0.88,0.15-1.83,0.37-2.66,0.7c-0.63,0.25-1.42,0.73-1.59,1.45c-0.02,0.07,0.09,0.11,0.13,0.06c0.25-0.35,0.48-0.63,0.86-0.86
		c0.4-0.24,0.87-0.35,1.31-0.46c0.42-0.1,0.84-0.19,1.25-0.3c0.47-0.13,0.91-0.33,1.37-0.47c0.88-0.28,1.78-0.51,2.66-0.78
		c0.44-0.14,0.9-0.28,1.32-0.47c0.38-0.17,0.8-0.35,1.14-0.6c0.03-0.02,0.03-0.06,0.01-0.09c0.34-0.18,0.66-0.39,0.95-0.61
		c0.57-0.41,1.07-0.88,1.57-1.37c1.1-1.07,2.14-2.2,3.23-3.29c2.17-2.14,4.35-4.28,6.45-6.49c1.15-1.2,2.36-2.45,3.26-3.85
		C110.68,42.21,110.57,42.12,110.5,42.2z"/>
	<path class="st2" d="M108.69,42.61c-0.16,0.16-0.32,0.33-0.45,0.51c-0.14,0.18-0.27,0.36-0.4,0.55c0,0.01,0.01,0.02,0.01,0.01
		c0.14-0.18,0.28-0.36,0.43-0.53s0.29-0.35,0.44-0.52C108.73,42.61,108.7,42.6,108.69,42.61z"/>
	<path class="st2" d="M90.8,46.74c-0.41-0.13-0.86-0.13-1.29-0.16c-0.48-0.04-0.96-0.07-1.44-0.1c-0.94-0.06-1.88-0.13-2.82-0.16
		c-0.44-0.02-0.88-0.03-1.31-0.04c-0.42-0.01-0.87-0.06-1.29,0.02c-0.4,0.07-0.69,0.29-0.98,0.57c-0.3,0.31-0.67,0.62-0.89,0.99
		c-0.02,0.04,0.03,0.09,0.07,0.07c0.36-0.16,0.66-0.47,0.98-0.7c0.37-0.28,0.71-0.4,1.17-0.41c0.88-0.01,1.76,0.06,2.64,0.09
		c0.85,0.03,1.7,0.07,2.55,0.12c0.41,0.03,0.82,0.06,1.24,0.09c0.43,0.03,0.88,0.12,1.3,0.06C90.94,47.16,91.03,46.82,90.8,46.74z"
		/>
	<path class="st2" d="M86.08,52.14c-0.57-0.11-1.17-0.13-1.74-0.23c-0.58-0.1-1.15-0.23-1.72-0.37c-0.14-0.03-0.29-0.06-0.43-0.11
		c-0.22-0.07-0.29-0.14-0.38-0.35c-0.12-0.3-0.22-0.61-0.33-0.92c-0.11-0.31-0.24-0.6-0.35-0.91c-0.09-0.28-0.18-0.54-0.33-0.79
		c-0.02-0.03-0.07-0.01-0.07,0.03c0.03,0.34,0.13,0.64,0.22,0.97c0.1,0.35,0.17,0.71,0.27,1.07c0.09,0.32,0.14,0.69,0.3,0.98
		c0.14,0.25,0.4,0.36,0.66,0.44c0.63,0.19,1.27,0.32,1.91,0.4c0.64,0.09,1.33,0.19,1.97,0.13C86.26,52.45,86.26,52.17,86.08,52.14z"
		/>
	<path class="st2" d="M124.43,43.06c-2.33,0.72-4.74,1.11-7.15,1.48c-1.21,0.18-2.42,0.38-3.63,0.6c-1.18,0.21-2.38,0.39-3.54,0.66
		c-0.19,0.04-0.37,0.11-0.55,0.18c-0.03,0.01-0.05,0.02-0.08,0.03c-0.77,0.29-1.47,0.77-2.03,1.38c-0.07-0.04-0.15-0.04-0.21,0.04
		c-0.1,0.13-0.15,0.29-0.19,0.45c-0.02,0.03-0.05,0.06-0.07,0.09c-0.03,0.04-0.01,0.09,0.02,0.11c0,0.02-0.01,0.05-0.01,0.07
		c0,0,0,0-0.01,0.01c-0.03,0.02-0.03,0.05-0.01,0.08c-0.06,0.28-0.09,0.57-0.14,0.85c-0.05,0.29-0.08,0.58-0.14,0.87
		c-0.06,0.3-0.12,0.6-0.18,0.9c-0.01,0.05,0.07,0.07,0.09,0.03c0.12-0.27,0.23-0.53,0.32-0.81c0.09-0.28,0.19-0.56,0.26-0.85
		c0.06-0.28,0.11-0.55,0.17-0.83c0.02-0.08,0.04-0.17,0.06-0.25l0.01-0.01c0.14-0.05,0.27-0.09,0.4-0.16
		c0.15-0.08,0.31-0.17,0.46-0.25c0.32-0.17,0.63-0.36,0.94-0.54c0.18-0.11,0.37-0.22,0.55-0.33c0.34-0.15,0.69-0.29,1.03-0.41
		c0.91-0.3,1.87-0.31,2.82-0.31c0.93-0.01,1.85-0.07,2.75-0.32c0.46-0.13,0.91-0.33,1.37-0.48c0.41-0.14,0.88-0.25,1.28-0.44
		c0.59-0.1,1.18-0.2,1.76-0.3c1.3-0.24,2.59-0.53,3.84-0.96C124.97,43.47,124.77,42.96,124.43,43.06z"/>
	<path class="st2" d="M125.61,42.91c-0.1,0.05-0.19,0.13-0.27,0.21c-0.12-0.03-0.23-0.05-0.35-0.03c-0.14,0.02-0.19,0.22-0.04,0.29
		c0.03,0.01,0.07,0.03,0.1,0.04c-0.11,0.11-0.22,0.21-0.33,0.32c-0.15,0.15-0.3,0.29-0.45,0.44c-0.11,0.11-0.22,0.23-0.27,0.38
		c-0.13,0.34,0.09,0.62,0.26,0.91c0.1,0.17,0.22,0.33,0.32,0.5c0.1,0.18,0.21,0.36,0.33,0.53c0.02,0.03,0.07,0,0.05-0.03
		c-0.13-0.34-0.31-0.66-0.44-1c-0.09-0.24-0.36-0.56-0.13-0.79s0.5-0.43,0.75-0.65c0.13-0.11,0.27-0.23,0.4-0.34
		c0.01-0.01,0.03-0.03,0.05-0.04c0.15,0.08,0.3,0.18,0.44,0.28c0.37,0.27,0.69,0.6,1.1,0.82c0.03,0.01,0.05-0.03,0.03-0.05
		c-0.39-0.31-0.68-0.71-1.03-1.06c-0.08-0.08-0.17-0.16-0.28-0.24c0.04-0.04,0.08-0.08,0.11-0.13
		C126.11,43.03,125.86,42.78,125.61,42.91z"/>
	<path class="st2" d="M132.63,37.66c-1.81,1.95-4.54,2.82-7.02,3.51c-1.27,0.35-2.54,0.66-3.84,0.86c-1.27,0.2-2.55,0.36-3.83,0.53
		c-1.36,0.18-2.73,0.28-4.1,0.22c-0.05,0-0.08,0.07-0.03,0.09c1.14,0.37,2.33,0.32,3.5,0.19c1.35-0.15,2.69-0.38,4.03-0.58
		c2.65-0.39,5.35-0.99,7.83-2.04c1.43-0.61,2.67-1.44,3.74-2.57C133.06,37.72,132.78,37.49,132.63,37.66z"/>
	<path class="st2" d="M137.65,9.27c0,0.07,0.01,0.14,0,0.19c-0.01,0.2-0.01,0.39-0.05,0.59c-0.08,0.41-0.24,0.79-0.4,1.17
		c-0.26,0.65-0.57,1.27-0.94,1.86c-1,1.57-2.32,2.92-3.72,4.13c-0.02,0.02-0.05,0.04-0.04,0.07c0,0.02,0.02,0.04,0.03,0.05
		c0.08,0.08,0.18,0.16,0.28,0.21c0.87-0.7,1.62-1.5,2.38-2.31c0.23-0.25,0.45-0.51,0.65-0.77c0.41-0.54,0.76-1.12,1.07-1.72
		c0.31-0.6,0.59-1.22,0.78-1.87c0.12-0.41,0.55-1.62-0.01-1.89C137.65,9.07,137.65,9.17,137.65,9.27z"/>
	<path class="st2" d="M116.42,33.86c-0.49,0.54-0.93,1.1-1.44,1.62c-0.25,0.26-0.52,0.5-0.76,0.77c-0.23,0.26-0.51,0.55-0.64,0.87
		c-0.05,0.13,0.1,0.26,0.22,0.18c0.29-0.2,0.53-0.51,0.79-0.76c0.27-0.26,0.53-0.53,0.79-0.8c0.57-0.58,1.06-1.21,1.61-1.82
		c0.02-0.02,0.05-0.05,0.05-0.09c-0.1-0.03-0.2-0.06-0.3-0.09c-0.05-0.01-0.1-0.02-0.15-0.01
		C116.51,33.76,116.46,33.81,116.42,33.86z"/>
	<path class="st2" d="M120.77,37.44c-0.76,0.43-1.51,0.86-2.28,1.26c-0.75,0.39-1.52,0.74-2.27,1.14c-0.02,0.01-0.01,0.04,0.01,0.03
		c0.84-0.24,1.64-0.61,2.42-1.02c0.75-0.4,1.49-0.84,2.18-1.34C120.87,37.48,120.81,37.42,120.77,37.44z"/>
	<path class="st2" d="M105.69,37.51c-1.11,0.62-2.21,1.25-3.38,1.75c-0.03,0.01-0.01,0.06,0.02,0.05c1.2-0.46,2.36-0.99,3.43-1.71
		C105.82,37.55,105.75,37.47,105.69,37.51z"/>
	<path class="st2" d="M120.39,18.32c-1.14,0.47-2.22,1.06-3.27,1.71c-0.03,0.02,0,0.06,0.03,0.04c1.06-0.6,2.17-1.13,3.28-1.64
		C120.51,18.41,120.47,18.29,120.39,18.32z"/>
	<path class="st2" d="M140.33,9.91c-0.01-0.01-0.02-0.02-0.03-0.04c-0.03-0.04-0.06-0.07-0.1-0.11c-0.05-0.06-0.11-0.12-0.17-0.17
		c-0.04-0.04-0.09-0.09-0.13-0.13c-0.23-0.23-0.48-0.44-0.75-0.62c-0.19-0.13-0.4-0.25-0.63-0.33c-0.01-0.03-0.03-0.06-0.06-0.08
		c-0.44-0.36-0.95-0.15-1.42,0c-0.68,0.22-1.37,0.46-2.05,0.69c-1.36,0.46-2.71,0.97-4.05,1.52c-1.33,0.55-2.65,1.13-3.94,1.77
		c-0.34,0.17-0.68,0.33-1.03,0.49c-0.07-0.14-0.24-0.24-0.42-0.14c-6.62,3.96-13.01,8.24-19.13,12.94c-0.85,0.66-1.7,1.32-2.54,2
		c-0.71,0.58-1.43,1.14-2.08,1.79c-0.03,0-0.05,0.01-0.07,0.03c-1.25,0.88-2.39,1.98-3.54,2.99c-1.16,1.02-2.31,2.05-3.45,3.1
		c-2.27,2.08-4.48,4.21-6.68,6.37c-0.6,0.59-1.21,1.18-1.8,1.79c-0.62,0.63-1.28,1.25-1.78,1.98c-0.08,0.11,0.05,0.26,0.17,0.18
		c0.64-0.43,1.18-0.99,1.73-1.52c0.55-0.52,1.09-1.04,1.62-1.57c1.1-1.09,2.21-2.17,3.33-3.25c2.24-2.16,4.52-4.29,6.85-6.36
		c0.63-0.56,1.26-1.12,1.89-1.68c0.65-0.57,1.33-1.11,1.93-1.73l0,0c0.71-0.48,1.36-1.02,2.02-1.55c0.73-0.58,1.47-1.16,2.21-1.74
		c1.51-1.18,3.05-2.34,4.6-3.47c3.11-2.26,6.29-4.42,9.53-6.48c1.16-0.74,2.32-1.46,3.5-2.17c1.08-0.44,2.11-1.07,3.16-1.56
		c1.22-0.57,2.46-1.12,3.7-1.64c1.25-0.52,2.51-1,3.78-1.44c0.64-0.22,1.28-0.43,1.93-0.63c0.3-0.09,0.6-0.18,0.91-0.27h0.01
		c0.02,0.02,0.03,0.04,0.06,0.05c0.06,0.05,0.13,0.07,0.21,0.05c0.09,0.02,0.19,0.06,0.27,0.1c0.07,0.04,0.13,0.08,0.2,0.12
		c0.01,0.01,0.01,0.03,0.02,0.04c0.01,0.01,0.03,0.02,0.04,0.04l0,0c0.52,0.47,0.99,1.02,1.41,1.59c0,0.01,0,0.02,0,0.03
		c0.21,0.72,0.67,1.38,1.04,2.03c0.02,0.03,0.05,0.05,0.09,0.07c0.26,0.83,0.55,1.64,0.75,2.48c0.33,1.37,0.47,2.79,0.13,4.17
		c-0.04,0.15,0.1,0.26,0.23,0.27c-0.05,0.37-0.1,0.74-0.19,1.11c-0.14,0.59-0.34,1.16-0.5,1.75c-0.15,0.52-0.41,1.16-0.33,1.7
		c0.01,0.05,0.04,0.09,0.08,0.12c-0.33,1.01-0.71,1.99-1.16,2.96c-1.13,2.37-2.38,4.68-3.78,6.9c-0.75,1.18-1.61,2.3-2.34,3.49
		c-0.15,0.03-0.24,0.17-0.32,0.29c-0.17,0.24-0.33,0.49-0.49,0.74c-0.11,0.17-0.23,0.33-0.34,0.49c-0.29,0.25-0.55,0.55-0.8,0.84
		c-0.37,0.43-0.73,0.88-1.08,1.33c-0.16,0.2-0.31,0.41-0.46,0.61c-0.04,0.01-0.08,0.03-0.12,0.07c-0.26,0.35-0.5,0.71-0.74,1.07
		c-0.13,0.17-0.26,0.34-0.4,0.5c-0.19,0.13-0.35,0.28-0.49,0.48c-0.02,0.02-0.01,0.04-0.02,0.06c-0.07,0.05-0.15,0.1-0.21,0.16
		c-0.26,0.23-0.38,0.66-0.03,0.88c0.01,0.01,0.02,0.01,0.03,0.01c-0.03,0.03-0.06,0.07-0.09,0.1c-0.19,0.22,0.17,0.5,0.35,0.28
		c1.58-1.9,3.26-3.71,4.83-5.62c1.42-1.73,2.73-3.55,3.9-5.46c1.63-2.66,2.97-5.51,3.97-8.47c0.32-0.78,0.68-1.59,0.83-2.42
		c0.01-0.06-0.02-0.1-0.06-0.13c0.06-0.22,0.12-0.44,0.18-0.66c0.29-1.17,0.61-2.34,0.75-3.53c0.13-1.16,0.22-2.29-0.13-3.42
		c-0.01-0.02-0.02-0.02-0.03-0.01c-0.05-0.55-0.12-1.11-0.25-1.64c-0.22-0.96-0.62-1.78-1.06-2.65c-0.22-0.43-0.39-0.89-0.61-1.33
		c-0.04-0.09-0.09-0.17-0.14-0.25c0-0.01,0-0.03-0.01-0.04C140.48,10.09,140.4,10,140.33,9.91z"/>
	
		<linearGradient id="SVGID_1_" gradientUnits="userSpaceOnUse" x1="-423.9533" y1="913.0212" x2="-423.627" y2="910.603" gradientTransform="matrix(0.8059 -0.5867 0.5885 0.8085 -112.277 -923.75)">
		<stop  offset="1.074735e-03" style="stop-color:#6F6F6E"/>
		<stop  offset="1" style="stop-color:#A6ABB5"/>
	</linearGradient>
	<path class="st3" d="M82.21,61.57c0.07-0.1,0.2-0.13,0.31-0.15s0.22-0.04,0.34-0.06c0.06-0.01,0.15-0.01,0.16,0.06
		c0,0.02,0,0.03,0,0.05c-0.04,0.14-0.15,0.24-0.26,0.33s-0.38,0.44-0.5,0.36C82.11,62.06,82.13,61.68,82.21,61.57z"/>
	
		<linearGradient id="SVGID_00000046307657884784493980000003334546261099832963_" gradientUnits="userSpaceOnUse" x1="-404.2278" y1="911.0732" x2="-403.8633" y2="919.6262" gradientTransform="matrix(0.8059 -0.5867 0.5885 0.8085 -112.277 -923.75)">
		<stop  offset="0.1283" style="stop-color:#6F6F6E"/>
		<stop  offset="1" style="stop-color:#A6ABB5"/>
	</linearGradient>
	<path style="fill:url(#SVGID_00000046307657884784493980000003334546261099832963_);" d="M114.32,38.45
		c0.17,0.74-0.12,1.51-0.44,2.19c-0.8,1.67-1.85,3.21-3.13,4.55c-0.24,0.25-0.5,0.5-0.84,0.56c-0.27,0.05-0.55-0.04-0.82-0.01
		c-0.29,0.04-0.54,0.22-0.76,0.41c-1.4,1.2-2.2,3.07-2.1,4.92c-1.1,0.05-2.31,0.16-3.04,0.98c-0.23,0.26-0.4,0.58-0.59,0.88
		c-0.38,0.59-0.86,1.09-1.34,1.59c-3.98,4.13-7.99,8.23-12.02,12.31c-0.7,0.71-1.75,1.47-2.6,0.94c0.37-0.22,0.64-0.43,0.84-0.8
		c0.15-0.29,0.4-0.51,0.23-0.85c-0.19-0.37-0.37-0.74-0.56-1.11c-0.09-0.17-0.17-0.35-0.29-0.5s-0.27-0.28-0.4-0.42
		c-0.52-0.54-0.8-1.26-1.06-1.96c-0.09-0.26-0.19-0.54-0.13-0.81c0.09-0.44,0.52-0.71,0.94-0.88c0.75-0.3,1.55-0.43,2.34-0.6
		c1.72-0.36,3.39-0.9,5.05-1.48c1.68-0.59,2.87-1.69,4.11-2.95c1.94-1.97,3.88-3.94,5.82-5.9c1.58-1.6,3.15-3.2,4.64-4.89
		c0.76-0.87,1.51-1.77,2.42-2.48c0.53-0.42,1.11-0.77,1.6-1.25c0.4-0.39,0.63-0.86,0.8-1.39c0.09-0.28,0.17-0.59,0.08-0.87
		c-0.08-0.27-0.29-0.48-0.53-0.63c-0.24-0.14-0.51-0.22-0.78-0.29c-0.08-0.02-0.16-0.04-0.2-0.11c-0.24-0.37,0.78-0.62,0.98-0.61
		C113.33,37.04,114.13,37.64,114.32,38.45z"/>
	
		<linearGradient id="SVGID_00000023266730633147759770000000668666032763973540_" gradientUnits="userSpaceOnUse" x1="-411.9644" y1="902.6825" x2="-415.5607" y2="909.0904" gradientTransform="matrix(0.8059 -0.5867 0.5885 0.8085 -112.277 -923.75)">
		<stop  offset="1.074735e-03" style="stop-color:#6F6F6E"/>
		<stop  offset="0.1343" style="stop-color:#828487"/>
		<stop  offset="0.2878" style="stop-color:#92959B"/>
		<stop  offset="0.461" style="stop-color:#9DA2AA"/>
		<stop  offset="0.6684" style="stop-color:#A4A9B2"/>
		<stop  offset="1" style="stop-color:#A6ABB5"/>
	</linearGradient>
	<path style="fill:url(#SVGID_00000023266730633147759770000000668666032763973540_);" d="M81.06,50c0.05,0.47,0.1,0.94,0.3,1.37
		c0.07,0.14,0.15,0.28,0.27,0.39c0.14,0.12,0.32,0.18,0.49,0.24c1.2,0.37,2.46,0.43,3.71,0.48c1.33,0.05,2.65,0.32,3.97,0.52
		c0.08,0.01,0.16,0.02,0.24,0c0.06-0.01,0.11-0.04,0.16-0.07c1.09-0.66,2.03-1.54,3.01-2.35c0.21-0.17,0.43-0.39,0.41-0.66
		c-0.01-0.13-0.07-0.25-0.14-0.36c-0.31-0.56-0.59-1.13-0.72-1.75c-0.03-0.12-0.05-0.25-0.14-0.33c-0.1-0.09-0.25-0.1-0.37-0.06
		s-0.23,0.12-0.34,0.2c-0.16,0.12-0.31,0.24-0.47,0.36c-0.26,0.2-0.53,0.4-0.71,0.68c-0.16,0.24-0.25,0.3-0.55,0.3
		c-0.74-0.02-1.47-0.1-2.21-0.18c-1.35-0.15-2.7-0.3-4.05-0.45c-0.97-0.11-1.93-0.03-2.9-0.25c-0.15-0.03-0.3-0.07-0.45-0.03
		c0.14,0.34,0.27,0.68,0.35,1.03C81,49.36,81.03,49.68,81.06,50z"/>
	
		<linearGradient id="SVGID_00000086665827173028108340000012714447722723615414_" gradientUnits="userSpaceOnUse" x1="-388.5382" y1="916.5052" x2="-391.135" y2="925.7828" gradientTransform="matrix(0.8059 -0.5867 0.5885 0.8085 -112.277 -923.75)">
		<stop  offset="1.074735e-03" style="stop-color:#6F6F6E"/>
		<stop  offset="0.1352" style="stop-color:#838587"/>
		<stop  offset="0.2849" style="stop-color:#92969C"/>
		<stop  offset="0.455" style="stop-color:#9EA2AA"/>
		<stop  offset="0.6607" style="stop-color:#A4A9B2"/>
		<stop  offset="1" style="stop-color:#A6ABB5"/>
	</linearGradient>
	<path style="fill:url(#SVGID_00000086665827173028108340000012714447722723615414_);" d="M123.33,44.92
		c-0.79,0.4-1.65,0.65-2.51,0.85c-0.81,0.2-1.57,0.42-2.4,0.55c-1.85,0.3-3.7,0.6-5.55,0.9c-0.36,0.06-0.72,0.12-1.08,0.18
		c-1.57,0.26-3.13,0.51-4.7,0.77c-0.11,0.02-0.22,0.04-0.3,0.1c-0.13,0.1-0.16,0.28-0.19,0.44c-0.06,0.41-0.11,0.81-0.13,1.22
		c-0.01,0.3-0.07,0.74-0.31,0.96c-0.28,0.25-0.71,0.15-1.08,0.14c-1.01-0.03-1.98,0.8-2.11,1.8c0.51-0.03,1.02-0.05,1.53-0.08
		c5.01-0.29,10-1.01,14.89-2.14c1.64-0.38,3.28-0.81,4.81-1.53c1.52-0.72,2.93-1.75,3.88-3.14c-0.4-0.57-0.8-1.14-1.23-1.68
		c-0.26-0.33-0.81-1.29-1.3-1.26c-0.16,0.01-0.3,0.09-0.43,0.17c-0.31,0.19-0.61,0.41-0.88,0.65c-0.1,0.09-0.21,0.19-0.28,0.31
		c-0.02,0.03-0.03,0.05-0.04,0.08c-0.05,0.1-0.07,0.22-0.12,0.32C123.71,44.71,123.51,44.83,123.33,44.92z"/>
	
		<linearGradient id="SVGID_00000077303788506585576920000009317132559932929973_" gradientUnits="userSpaceOnUse" x1="-355.75" y1="892.9944" x2="-384.7979" y2="933.2972" gradientTransform="matrix(0.8059 -0.5867 0.5885 0.8085 -112.277 -923.75)">
		<stop  offset="1.074735e-03" style="stop-color:#6F6F6E"/>
		<stop  offset="0.0363" style="stop-color:#787879"/>
		<stop  offset="0.1244" style="stop-color:#898B8F"/>
		<stop  offset="0.2279" style="stop-color:#9699A0"/>
		<stop  offset="0.3551" style="stop-color:#9FA4AC"/>
		<stop  offset="0.5316" style="stop-color:#A5A9B3"/>
		<stop  offset="1" style="stop-color:#A6ABB5"/>
	</linearGradient>
	<path style="fill:url(#SVGID_00000077303788506585576920000009317132559932929973_);" d="M134.12,15.75
		c-0.38,0.4-0.77,0.8-1.15,1.21c-0.15,0.16-0.31,0.33-0.51,0.42c-0.42,0.18-0.91-0.01-1.35,0.09c-0.33,0.07-0.6,0.29-0.86,0.51
		c-0.87,0.72-1.74,1.45-2.62,2.17c-0.35,0.29-0.71,0.59-1.02,0.93c-0.83,0.93-1.27,2.15-2.07,3.1c-0.05-0.1-0.2-0.05-0.29,0.01
		c-0.56,0.37-1.12,0.75-1.68,1.12c-0.86,0.57-1.75,1.19-2.18,2.13c-0.18,0.38-0.3,0.84-0.66,1.04c-0.14,0.08-0.31,0.11-0.47,0.14
		c-0.75,0.14-1.51,0.28-2.26,0.42c-0.19-0.48-0.93-0.62-1.28-0.24c-0.02-0.52-0.04-1.04-0.06-1.56c-0.01-0.41-0.07-0.79,0.06-1.18
		c0.28-0.83,0.65-1.58,1.15-2.3c0.29-0.41,0.62-0.85,0.58-1.35c-0.01-0.1-0.03-0.21,0-0.3c0.02-0.07,0.06-0.13,0.11-0.19
		c0.74-1,1.72-1.79,2.6-2.65c0.43-0.42,0.84-0.9,1.29-1.29c0.5-0.42,1.04-0.8,1.59-1.16c2.95-1.92,6.13-3.45,9.37-4.83
		c0.07-0.03,0.14-0.06,0.21-0.03c0.05,0.03,0.08,0.08,0.11,0.14c0.2,0.42,0.39,0.84,0.59,1.27c1.63-0.73,2.74-2.24,3.75-3.71
		c0.12-0.18,0.34-0.38,0.52-0.26c0.07,0.05-0.16,0.89-0.19,1c-0.09,0.34-0.19,0.67-0.31,0.99c-0.25,0.66-0.58,1.29-0.96,1.88
		C135.56,14.18,134.85,14.98,134.12,15.75z"/>
	
		<linearGradient id="SVGID_00000047045834303260508140000015542077690730632596_" gradientUnits="userSpaceOnUse" x1="-370.0839" y1="906.358" x2="-365.3436" y2="946.9938" gradientTransform="matrix(0.8059 -0.5867 0.5885 0.8085 -112.277 -923.75)">
		<stop  offset="1.074735e-03" style="stop-color:#6F6F6E"/>
		<stop  offset="0.0217" style="stop-color:#78797A"/>
		<stop  offset="0.0698" style="stop-color:#898B90"/>
		<stop  offset="0.1266" style="stop-color:#969AA1"/>
		<stop  offset="0.1968" style="stop-color:#9FA4AC"/>
		<stop  offset="0.2953" style="stop-color:#A5A9B3"/>
		<stop  offset="0.5689" style="stop-color:#A6ABB5"/>
	</linearGradient>
	<path style="fill:url(#SVGID_00000047045834303260508140000015542077690730632596_);" d="M113.27,41.49
		c0.44-0.69,0.83-1.43,0.95-2.24c0.06-0.44,0.03-0.91-0.13-1.32c-0.11-0.3-0.65-0.63-0.55-0.96c0.02-0.08,0.09-0.15,0.15-0.22
		c0.55-0.61,1.08-1.28,1.68-1.85c0.57-0.54,1.16-1.06,1.73-1.6c0.1-0.09,0.19-0.18,0.31-0.24c0.1-0.05,0.22-0.08,0.33-0.1
		c1.55-0.29,3.21,0.35,4.69-0.19c0.67-0.24,1.23-0.71,1.82-1.12c0.71-0.5,1.48-0.93,2.24-1.35c0.22-0.13,0.6-0.2,0.66,0.05
		c1.15-0.98,2.25-2.02,3.3-3.1c0.26-0.27,0.52-0.54,0.68-0.88c0.13-0.27,0.19-0.56,0.24-0.85c0.25-1.46,0.24-2.97-0.02-4.43
		c-0.06-0.35-0.19-0.76-0.53-0.87c0.15-0.33,0.31-0.66,0.48-0.98c0.85-1.57,2-2.78,3.31-3.97c0.25-0.23,0.45-0.56,0.67-0.82
		c0.27-0.32,0.52-0.65,0.76-1c0.47-0.7,0.85-1.45,1.14-2.23c0.12-0.32,0.25-0.68,0.28-1.02c0.01-0.12-0.02-0.23,0-0.35
		c0.02-0.13,0.11-0.27,0.16-0.4c0.38,1.01,0.51,1.84,0.26,2.91c-0.22,0.92-0.58,1.82-0.65,2.77c1.14,0.14,2.25,0.46,3.28,0.97
		c-0.49,0.4-0.69,1.05-0.86,1.66c-0.29,1.08-0.55,2.18-0.75,3.28c-0.39,2.09-0.59,4.23-0.31,6.34c-0.92,1.22-2.05,2.2-3.29,3.1
		c-2.15,1.55-4.22,3.22-6.48,4.61c-1.36,0.84-2.78,1.57-4.2,2.3c3.44,0.09,6.89-0.71,9.93-2.31c0.06,0.08,0.03,0.19,0,0.29
		c-0.32,0.9-0.97,1.65-1.68,2.29c-0.72,0.64-1.52,1.05-2.33,1.56c-0.88,0.55-1.73,1.15-2.54,1.8c-0.1,0.08-0.19,0.16-0.23,0.28
		c-0.02,0.09,0,0.19,0.02,0.28c0.17,0.59,0.58,1.07,0.95,1.55c0.07,0.09,0.14,0.19,0.15,0.31c0.01,0.14-0.09,0.27-0.19,0.38
		c-0.28,0.32-0.55,0.65-0.83,0.97c-0.04,0.05-0.08,0.09-0.14,0.11c-0.11,0.03-0.21-0.07-0.28-0.16c-0.37-0.44-0.6-0.93-1.09-1.25
		c-0.46-0.3-1.03-0.53-1.59-0.56c-0.88-0.08-1.75,0.19-2.6,0.44c-2.22,0.65-4.47,1.21-6.74,1.66c-1.15,0.23-2.3,0.43-3.46,0.61
		c-0.38,0.06-1.06,0.32-1.35-0.03c-0.3-0.35,0.01-0.71,0.24-0.97C111.75,43.62,112.57,42.6,113.27,41.49z"/>
	
		<linearGradient id="SVGID_00000159447942212074605040000003434142123247452300_" gradientUnits="userSpaceOnUse" x1="-392.1776" y1="894.0478" x2="-395.4703" y2="913.1199" gradientTransform="matrix(0.8059 -0.5867 0.5885 0.8085 -112.277 -923.75)">
		<stop  offset="1.074735e-03" style="stop-color:#6F6F6E"/>
		<stop  offset="0.0844" style="stop-color:#78797A"/>
		<stop  offset="0.2975" style="stop-color:#8C8F94"/>
		<stop  offset="0.5175" style="stop-color:#9B9FA6"/>
		<stop  offset="0.7468" style="stop-color:#A3A8B1"/>
		<stop  offset="1" style="stop-color:#A6ABB5"/>
	</linearGradient>
	<path style="fill:url(#SVGID_00000159447942212074605040000003434142123247452300_);" d="M115.33,23.57
		c-0.83,1.41-1.82,2.71-2.69,4.09c-1.25,1.98-2.53,3.97-4.07,5.75c-1.32,1.52-2.82,2.89-4.47,4.05c-0.55-0.78-1.11-1.56-1.66-2.33
		c-0.16-0.23-0.34-0.47-0.6-0.59c-0.3-0.13-0.65-0.06-0.96,0.02c-2.73,0.71-5.14,2.29-7.5,3.84c1.43,0.1,2.78,0.94,3.5,2.19
		c0.09,0.16-2.17,0.75-2.36,0.78c-0.86,0.15-1.72,0.22-2.57,0.4c-0.24,0.05-0.45,0.1-0.67,0.22c2.25,1,4.71,1.67,7.1,2.25
		c-0.33,0.1-0.69,0.04-1.03-0.01c-1.37-0.17-2.78,0.01-4.11-0.37c-0.33-0.1-0.66-0.23-1-0.3c-0.29-0.06-0.6-0.06-0.88-0.15
		c-0.36-0.11-0.66-0.35-1.02-0.47c-0.66-0.21-0.83,0.24-1.24,0.6c-0.53,0.47-1.1,0.9-1.62,1.38c-0.5,0.47-0.99,0.94-1.47,1.43
		c1.88,0.07,3.76,0.25,5.63,0.55c0.28,0.04,0.57,0.1,0.78,0.29c0.18,0.17,0.26,0.42,0.32,0.66c0.23,0.79,0.45,1.58,0.68,2.37
		c2.1-1.7,4.2-3.39,6.3-5.09c2.02-1.63,4.04-3.26,6.15-4.75c1.18-0.83,2.39-1.62,3.69-2.25c0.65-0.32,1.32-0.59,2.01-0.8
		c0.34-0.11,0.69-0.2,1.04-0.27c0.31-0.07,0.63-0.07,0.93-0.22c0.02-0.01,0.05-0.02,0.07-0.04c0.23-0.13,0.42-0.32,0.6-0.51
		c0.91-0.93,1.81-1.86,2.72-2.79c-0.36-0.41-0.59-0.92-0.66-1.46c-0.03-0.23-0.03-0.47-0.13-0.68c-0.31-0.64-1.27-0.67-1.59-1.28
		c-0.1-0.19-0.1-0.41-0.09-0.63C114.53,27.46,115.24,25.55,115.33,23.57z"/>
	
		<linearGradient id="SVGID_00000066506538675188101900000005692426822752627889_" gradientUnits="userSpaceOnUse" x1="-400.6121" y1="900.7037" x2="-400.9443" y2="923.4314" gradientTransform="matrix(0.8059 -0.5867 0.5885 0.8085 -112.277 -923.75)">
		<stop  offset="1.074735e-03" style="stop-color:#6F6F6E"/>
		<stop  offset="2.959850e-03" style="stop-color:#6F6F6E"/>
		<stop  offset="0.1359" style="stop-color:#838588"/>
		<stop  offset="0.2823" style="stop-color:#93969C"/>
		<stop  offset="0.4495" style="stop-color:#9EA2AA"/>
		<stop  offset="0.6537" style="stop-color:#A4A9B3"/>
		<stop  offset="1" style="stop-color:#A6ABB5"/>
	</linearGradient>
	<path style="fill:url(#SVGID_00000066506538675188101900000005692426822752627889_);" d="M112.2,40.9
		c-0.51,0.53-1.03,0.65-1.63,0.99c-0.55,0.31-0.98,0.8-1.35,1.31c-0.52,0.71-0.97,1.5-1.65,2.06c-0.75,0.63-1.72,0.94-2.45,1.59
		c0.26-1.53,0.81-3,1.6-4.33c-3.04,2.74-6.08,5.48-9.11,8.22c-0.94,0.85-1.88,1.69-2.88,2.47c-1.89,1.46-3.99,2.65-5.85,4.16
		c0.49-0.61,1-1.21,1.51-1.8c1.83-2.12,3.78-4.13,5.84-6.03c1.99-1.84,4.27-3.42,6.54-4.91c1.1-0.72,2.23-1.41,3.15-2.34
		c0.72-0.73,1.34-1.47,1.84-2.38c-0.41-0.13-0.85-0.18-1.28-0.13c0.81-0.67,1.67-1.32,2.65-1.7c0.62-0.24,1.3-0.36,1.97-0.3
		c0.5,0.05,1.31,0.18,1.66,0.56C113.4,39.02,112.72,40.36,112.2,40.9z"/>
	<path class="st11" d="M87.83,66.29c-0.01-0.01-0.01-0.02-0.02-0.04c-0.05-0.05-0.09-0.11-0.1-0.19c-0.09-0.16-0.19-0.31-0.28-0.47
		c-0.16-0.28-0.23-0.59-0.4-0.86c-0.16-0.25-0.34-0.49-0.53-0.75c-0.08-0.06-0.15-0.11-0.23-0.18c-0.32-0.28-0.6-0.64-0.9-0.95
		c-0.15-0.15-0.31-0.3-0.47-0.44c-0.17-0.13-0.35-0.25-0.52-0.38c-0.05-0.04-0.15-0.11-0.25-0.19c-0.33-0.19-0.72-0.33-1.1-0.45
		c-2.73,2.81-5.47,5.62-8.2,8.42c-0.19,0.19-0.38,0.39-0.57,0.58c-1.71,1.69-3.39,3.41-5.07,5.13c-1.7,1.74-3.41,3.47-5.11,5.21
		c-0.85,0.87-1.7,1.74-2.56,2.6c-0.21,0.21-0.43,0.42-0.66,0.64c-0.8,0.32-1.68,1.43-2.11,1.83c-0.95,0.9-1.89,1.82-2.83,2.73
		c-1.97,1.92-3.94,3.85-5.9,5.78c-1.96,1.93-3.91,3.87-5.89,5.78c-0.95,0.93-1.91,1.85-2.86,2.78c-0.84,0.81-1.64,1.61-2.3,2.55
		c-0.49,0.49-0.97,0.99-1.46,1.47c-1.79,1.75-3.57,3.53-5.35,5.29c-3.5,3.46-7,6.93-10.49,10.4c-2.62,2.6-5.23,5.2-7.84,7.81
		c-1.31,1.3-2.61,2.61-3.91,3.91c-0.93,0.93-2.75,2.15-2.97,3.54C6.86,138.41,7,139,7.2,139.55c0.1,0.28,0.23,0.56,0.38,0.82
		c0.49,0.8,1.3,1.4,2.21,1.62c1.86,0.45,2.61-0.56,3.69-1.79c0.89-1.02,1.98-1.64,3.04-2.46c0.55-0.43,1.05-0.93,1.54-1.42
		c0.91-0.92,1.79-1.85,2.68-2.78c1.98-2.07,4.11-4.02,6.05-6.12c1.98-2.14,4-4.24,6.03-6.32c2.06-2.11,4.15-4.19,6.24-6.27
		c1.05-1.04,2.1-2.07,3.15-3.11c0.53-0.52,1.05-1.03,1.58-1.55c0.43-0.42,0.85-1.02,1.34-1.36c0.3-0.22,0.57-0.52,0.82-0.79
		c0.47-0.5,0.94-0.99,1.42-1.48c0.45-0.47,0.91-0.95,1.37-1.42c0.34-0.34,0.79-0.71,1.1-1.14c0.37-0.36,0.74-0.72,1.11-1.09
		c1.88-1.86,3.77-3.72,5.65-5.59c3.7-3.66,7.42-7.3,11.14-10.94c1.05-1.03,2.1-2.05,3.14-3.08c1.07-1.05,2.27-1.98,3.33-3.07
		c1.11-1.15,2.17-2.35,3.29-3.48c1.45-1.46,3.01-2.8,4.5-4.21c1.55-1.48,3.03-3.04,4.48-4.61c0.47-0.51,0.94-1,1.42-1.48
		C87.86,66.36,87.85,66.33,87.83,66.29z"/>
	<path class="st12" d="M85.95,63.53c-0.28-0.28-0.57-0.54-0.88-0.78c-0.1-0.07-0.22-0.15-0.33-0.11c-0.18,0.07-0.39,0.43-0.54,0.56
		c-0.22,0.21-0.44,0.42-0.66,0.63c-0.44,0.42-0.89,0.83-1.34,1.24c-0.88,0.81-1.78,1.61-2.67,2.41c-1.56,1.4-2.94,3.07-4.4,4.6
		c-0.29,0.3-0.58,0.61-0.77,0.98c-0.16,0.33-0.24,0.7-0.41,1.02c-0.16,0.31-0.4,0.57-0.65,0.81c-1.79,1.74-4.15,2.71-6.05,4.3
		c-1.87,1.56-3.57,3.4-5.24,5.17c-0.44,0.46-0.87,0.93-1.3,1.4c-1.89,1.25-3.51,2.87-5.06,4.51c-1.72,1.81-3.37,3.68-5.06,5.51
		c-1.09,1.18-2.15,2.39-3.26,3.54c-0.97,1.01-1.72,2.27-2.52,3.41c-0.16,0.23-0.33,0.47-0.36,0.75c-0.04,0.28,0.1,0.6,0.38,0.67
		c-3.87,3.43-7.77,6.87-10.99,10.92c-1.24,1.56-2.42,3.23-4.11,4.28c-1.61,1-3.69,1.37-5.03,2.78c-1.38,1.44-2.82,2.84-4.29,4.22
		c-3.15,2.94-6.25,5.93-9.27,9c-0.28-0.11-0.63-0.08-0.87,0.14c-0.65,0.62-1.27,1.28-1.94,1.88c-0.47,0.42-1.21,0.8-1.3,1.49
		c-0.04,0.3,0.06,0.6,0.19,0.88c0.35,0.76,0.93,1.41,1.65,1.85c0.71,0.44,1.02-0.14,1.5-0.6c1.47-1.4,2.94-2.8,4.39-4.22
		c0.57-0.56,1.18-0.99,1.65-1.63c0.54-0.73,1.12-1.42,1.78-2.04c0.66-0.63,1.42-1.27,1.61-2.16c-0.98,0.45-2.02,0.79-3.09,0.99
		c2.47-2.4,5.53-4.05,8.31-6.05c2.69-1.93,4.85-4.42,7.1-6.82c2.93-3.13,5.85-6.27,8.68-9.48c0.09-0.1,0.14-0.22,0.17-0.34
		c1.77-1.33,3.41-2.86,4.99-4.4c2.42-2.36,4.66-4.89,6.95-7.38c0.46-0.5,0.93-1,1.39-1.5c1.26-1.05,2.52-2.09,3.71-3.22
		c2.05-1.96,3.95-4.2,5.68-6.44c1.72-2.23,3.43-4.64,6-5.95c0.26-0.13,0.6-0.24,0.81-0.04c-0.07,0.48-0.14,0.97-0.22,1.45
		c1.97-2.16,3.93-4.31,5.9-6.47c0.9-0.98,1.81-2,2.27-3.25c0.25-0.67,0.35-1.39,0.63-2.05c0.79-1.87,2.77-2.88,4.62-3.7
		c0.56-0.25,1.12-0.5,1.67-0.78c0.28-0.14,0.56-0.3,0.83-0.46c0.15-0.09,0.53-0.18,0.6-0.35c0.06-0.14-0.04-0.28-0.13-0.4
		C86.42,64.02,86.19,63.77,85.95,63.53z"/>
	<path class="st13" d="M83.37,61.75c-0.09,0-0.16-0.02-0.22-0.06c-0.12,0.25-0.21,0.52-0.27,0.8c-0.17,0.74-0.19,1.51-0.35,2.25
		c-0.05,0.21-0.08,0.4-0.28,0.54c-0.13,0.09-0.3,0.12-0.44,0.18c-0.23,0.08-0.37,0.22-0.48,0.44c-0.01,0.03,0.03,0.06,0.05,0.04
		c0.38-0.29,0.96-0.15,1.31-0.53c0.35-0.37,0.36-1.06,0.43-1.54c0.09-0.65,0.21-1.32,0.52-1.91c0.03-0.06,0.07-0.11,0.1-0.17
		C83.63,61.77,83.52,61.74,83.37,61.75z"/>
	<path class="st13" d="M82.6,62.05c-0.35,0.2-0.65,0.54-0.92,0.83c-0.3,0.32-0.59,0.64-0.89,0.96c-0.62,0.65-1.26,1.29-1.91,1.92
		c-0.29,0.28-0.59,0.55-0.87,0.85c-0.16,0.18-0.27,0.35-0.37,0.54c-0.06,0.03-0.12,0.04-0.18,0.08c-0.11,0.06-0.22,0.14-0.32,0.23
		c-0.1,0.09-0.21,0.19-0.3,0.29c-0.09,0.11-0.16,0.22-0.23,0.34c-0.02,0.03-0.02,0.06,0,0.09c-0.07,0.04-0.13,0.08-0.19,0.12
		c-0.09,0.07-0.18,0.14-0.26,0.21c-0.17,0.12-0.34,0.24-0.5,0.37c-0.54,0.45-1.04,0.94-1.55,1.43c-1.09,1.04-2.16,2.1-3.21,3.18
		c-1.03,1.06-2.05,2.14-3.05,3.24c-0.5,0.55-0.98,1.13-1.56,1.6c-0.54,0.43-1.08,0.85-1.57,1.34c-0.59,0.59-1.16,1.19-1.75,1.78
		c-0.6,0.61-1.23,1.2-1.78,1.86c-0.07,0.08-0.04,0.18,0.02,0.24c-0.83,0.83-1.66,1.66-2.48,2.5c-2.36,2.4-4.76,4.75-7.22,7.04
		c-1.36,1.27-2.8,2.49-4.11,3.82c-0.04,0.04-0.06,0.09-0.06,0.13c-0.39,0.29-0.78,0.58-1.16,0.88c-0.18,0.14-0.13,0.36-0.01,0.47
		c-2.18,1.96-4.22,4.07-6.29,6.14c-1.26,1.27-2.52,2.54-3.79,3.8c-0.64,0.64-1.29,1.26-2,1.82c-0.65,0.51-1.3,0.99-1.79,1.68
		c-0.28,0.39-0.52,0.81-0.83,1.18c-0.28,0.33-0.61,0.6-0.95,0.86c-0.69,0.54-1.46,1.06-1.93,1.83c-0.06,0.1-0.06,0.21-0.02,0.3
		c-0.2,0.21-0.42,0.4-0.66,0.52c-0.42,0.21-0.7,0.43-0.99,0.81c-0.32,0.41-0.64,0.81-0.97,1.2c-0.66,0.78-1.37,1.52-2.14,2.2
		c-0.37,0.33-0.75,0.64-1.1,0.97c-0.03,0.01-0.07,0.02-0.1,0.04c-0.14,0.1-0.24,0.23-0.31,0.36c-0.22,0.22-0.43,0.45-0.62,0.71
		c-0.03,0.04-0.04,0.08-0.05,0.12c-0.03-0.09-0.16-0.14-0.22-0.05c-0.65,1.04-1.71,1.68-2.59,2.5c-1.01,0.94-1.95,1.96-2.91,2.97
		c-0.99,1.04-1.96,2.08-2.94,3.12c-0.07-0.05-0.16-0.07-0.26,0.01c-0.65,0.5-1.18,1.14-1.72,1.74c-0.26,0.29-0.52,0.58-0.79,0.86
		c-0.14,0.15-0.29,0.3-0.44,0.45c-0.14,0.14-0.29,0.26-0.37,0.44c-0.01,0.03-0.01,0.05-0.01,0.08c-0.06,0.01-0.13,0.02-0.19,0.05
		c-0.32,0.13-0.58,0.39-0.84,0.61c-0.93,0.79-1.51,1.08-1.41,2.41c0.1,1.31,0.6,2.65,1.64,3.45s2.69,0.87,3.59-0.09
		c-0.52-0.58-1.42-0.52-2.18-0.72c-0.46-0.12-0.88-0.36-1.23-0.69c-0.1-0.27-0.08-0.58,0.05-0.83c0.31,0.48,0.87,0.8,1.44,0.82
		c-0.08-0.16-0.04-0.36-0.06-0.54c-0.04-0.41-0.36-0.73-0.61-1.05s-0.46-0.78-0.24-1.13c0.17-0.28,0.54-0.37,0.87-0.36
		c0.95,0.02,1.85,0.68,2.16,1.58c0.25-0.27,0.25-0.7,0.09-1.03c-0.17-0.33-0.47-0.56-0.78-0.76c-0.57-0.35-1.24-0.61-1.89-0.47
		c-0.08,0.02-0.17,0.04-0.25,0.01c-0.22-0.1-0.08-0.43,0.09-0.61c0.81-0.28,1.47-0.2,2.17-0.86c0.32-0.3,0.57-0.66,0.9-0.94
		c1.15-0.97,2.66-1.53,3.58-2.77c0.03-0.05-0.03-0.1-0.07-0.06c-1.02,1.14-2.42,1.75-3.58,2.73c-0.46,0.39-0.91,0.83-1.43,1.15
		c-0.02,0-0.03-0.01-0.01,0c-0.01,0-0.02-0.01-0.04-0.02c-0.01-0.01-0.02-0.01-0.04-0.06c0-0.01,0-0.02,0-0.04
		c0,0.08,0-0.01,0.02-0.06c0.01-0.04,0.02-0.08,0.04-0.11c0.02-0.07,0.04-0.15,0.05-0.22c0-0.02,0-0.03,0-0.05
		c0.13-0.15,0.26-0.3,0.4-0.45c0.5-0.54,1-1.07,1.5-1.61c1.98-2.12,3.96-4.23,5.92-6.36c0.5-0.55,1.06-1,1.62-1.5
		c0.45-0.4,0.89-0.88,0.99-1.49c0.02,0.1,0.1,0.19,0.2,0.21c0,0.02,0.01,0.04,0.02,0.08c0,0.01,0,0.03,0,0.05c0,0.02,0,0.04,0,0.06
		s0.01,0.04,0.01,0.06c0.01,0.02,0.02,0.04,0.04,0.05c-0.14,0.26-0.34,0.47-0.42,0.77c-0.09,0.37-0.07,0.74-0.23,1.09
		c-0.35,0.78-1.16,1.19-1.85,1.62c-0.46,0.29-1.29,0.75-1.18,1.42c0,0.02,0.03,0.02,0.03,0.01c0.12-0.35,0.4-0.55,0.71-0.74
		c0.38-0.22,0.78-0.41,1.16-0.63c0.61-0.35,1.2-0.79,1.53-1.43c0.15-0.29,0.2-0.59,0.24-0.91c0.02-0.17,0.05-0.34,0.14-0.49
		c0.09-0.17,0.24-0.3,0.33-0.47c0.23-0.39,0.23-0.87,0.38-1.29c0.51-0.47,1.05-0.91,1.57-1.37c0.74-0.66,1.42-1.38,2.07-2.12
		c0.32-0.37,0.63-0.76,0.95-1.14c0.16-0.2,0.31-0.42,0.54-0.55c0.18-0.11,0.38-0.17,0.56-0.29c0.38-0.27,0.66-0.67,0.96-1.02
		c0.27-0.33,0.5-0.67,0.73-1.02c0.48-0.42,1-0.81,1.47-1.24c1.05-0.44,2.08-0.93,3.11-1.42c0.4-0.19,1.06-0.39,1.31-0.79
		c0.15-0.23,0.18-0.53,0.32-0.77c0.16-0.26,0.35-0.51,0.53-0.76c0.05-0.07-0.05-0.15-0.11-0.09c-0.37,0.36-0.63,0.69-0.78,1.19
		c-0.13,0.41-0.46,0.51-0.81,0.67c-0.3,0.14-0.59,0.28-0.89,0.42c-0.29,0.14-0.58,0.28-0.87,0.42c-0.08,0.02-0.17,0.04-0.25,0.05
		c-0.05,0-0.1,0.01-0.17-0.01c0.02-0.07,0.06-0.21,0.07-0.22c0.04-0.09,0.09-0.18,0.13-0.27c0.09-0.19,0.18-0.35,0.27-0.49
		c0.06-0.09,0.12-0.18,0.17-0.26c0.18-0.14,0.36-0.28,0.54-0.42c0.69-0.52,1.33-1.09,1.95-1.69c1.82-1.77,3.6-3.59,5.38-5.41
		c-0.05,0.07-0.1,0.14-0.15,0.21c-0.3,0.46-0.59,0.93-0.75,1.46c-0.04,0.13-0.06,0.25-0.1,0.37c-0.08,0.23-0.2,0.34-0.37,0.5
		c-0.22,0.21-0.43,0.42-0.63,0.64c-0.48,0.54-0.95,1.09-1.41,1.64c-0.03,0.03,0.02,0.07,0.05,0.04c0.84-0.84,1.72-1.66,2.39-2.64
		c0.13-0.18,0.29-0.29,0.39-0.48c0.16-0.28,0.32-0.55,0.5-0.82c0.32-0.47,0.67-0.93,1.01-1.39c0.7-0.96,1.43-1.9,2.23-2.78
		c0.81-0.88,1.81-1.52,2.68-2.33c0.48-0.44,0.9-0.95,1.35-1.42c0.06-0.07,0.12-0.14,0.19-0.2c0.14-0.11,0.28-0.22,0.42-0.32
		c0.47-0.36,0.94-0.72,1.41-1.07c0.06-0.04,0.21-0.2,0.26-0.21s0.18,0.09,0.24,0.11c0.16,0.04,0.33-0.01,0.46-0.09
		c0.36-0.22,0.64-0.65,0.88-0.98c0.29-0.4,0.56-0.81,0.82-1.23c0.34-0.54,0.67-1.09,1.01-1.63c0.25-0.24,0.5-0.47,0.74-0.71
		c2.41-2.34,4.78-4.71,7.08-7.16c1.07-1.14,2.08-2.32,3.12-3.48c0.18-0.16,0.36-0.32,0.55-0.46c0.53-0.3,1.05-0.63,1.56-0.93
		l2.7-1.61c0.38-0.22,0.65-0.4,0.85-0.79c0.21-0.42,0.5-0.81,0.8-1.16c0.62-0.72,1.4-1.27,2.01-1.99c0.02-0.02-0.01-0.04-0.03-0.03
		c-0.64,0.7-1.39,1.27-2.07,1.92c-0.27,0.26-0.53,0.54-0.73,0.86c-0.14,0.22-0.25,0.42-0.45,0.59c-0.18,0.15-0.42,0.26-0.62,0.38
		c-0.37,0.22-0.73,0.43-1.1,0.65c-0.05,0-0.09-0.01-0.12-0.03c-0.01-0.01-0.03-0.03-0.01-0.01c-0.01-0.01-0.02-0.03-0.04-0.05
		c-0.01-0.02-0.01-0.04-0.02-0.07c0-0.02,0-0.03-0.01-0.05c0-0.03-0.01-0.07,0-0.12c0-0.01,0.01-0.03,0.01-0.04s0.01-0.02,0.01-0.03
		c0.01-0.02,0.01-0.03,0.02-0.05c0.02-0.03,0.03-0.07,0.05-0.1c1.69-1.83,3.41-3.62,5.18-5.37c0.6-0.59,1.19-1.19,1.82-1.75
		c0.28-0.25,0.57-0.49,0.87-0.72c0.16-0.12,0.32-0.25,0.48-0.38c0.12-0.1,0.21-0.2,0.31-0.31c0.19-0.06,0.36-0.13,0.49-0.26
		c0.12-0.13,0.15-0.3,0.23-0.45c0.11-0.2,0.26-0.37,0.43-0.52c0.31-0.28,0.64-0.53,0.96-0.81c0.64-0.57,1.26-1.17,1.85-1.79
		c0.57-0.59,1.31-1.26,1.6-2.05C82.99,62.1,82.77,61.95,82.6,62.05z"/>
	<path class="st13" d="M9.1,138.3c-0.34,0.23-0.68,0.46-1.04,0.67c-0.35,0.2-0.71,0.4-1.07,0.6c-0.05,0.03,0,0.11,0.05,0.09
		c0.77-0.28,1.49-0.76,2.11-1.29C9.2,138.34,9.15,138.27,9.1,138.3z"/>
	<path class="st13" d="M33.03,114.85c-0.91,0.51-1.81,1.03-2.69,1.6c-0.34,0.22-0.64,0.49-0.85,0.84c-0.23,0.38-0.4,0.8-0.62,1.2
		c-0.95,1.72-2.29,3.25-3.91,4.35c-0.02,0.02,0,0.05,0.03,0.04c1.54-0.99,2.86-2.29,3.76-3.9c0.22-0.4,0.4-0.82,0.6-1.23
		c0.24-0.52,0.55-0.85,1.05-1.13c0.93-0.52,1.84-1.07,2.74-1.64C33.21,114.92,33.12,114.8,33.03,114.85z"/>
	<path class="st13" d="M36.29,112.72c-0.73,0.64-1.46,1.34-1.96,2.18c-0.14,0.24-0.24,0.49-0.48,0.66c-0.24,0.17-0.52,0.28-0.79,0.4
		c-0.49,0.23-0.99,0.43-1.5,0.62c-0.02,0.01-0.01,0.04,0.01,0.03c0.55-0.18,1.1-0.37,1.63-0.59c0.45-0.18,0.88-0.33,1.15-0.76
		c0.28-0.45,0.55-0.87,0.9-1.27c0.35-0.41,0.74-0.79,1.11-1.19C36.42,112.76,36.34,112.68,36.29,112.72z"/>
	<path class="st13" d="M65.32,82.18c-2.35,1.55-4.35,3.74-5.87,6.09c-1.54,2.36-3.5,4.39-6,5.74c-0.02,0.01,0,0.05,0.02,0.04
		c1.22-0.61,2.36-1.38,3.35-2.31c0.99-0.93,1.77-1.98,2.48-3.14c0.73-1.19,1.74-2.25,2.72-3.24c1.07-1.09,2.24-2.03,3.43-2.99
		C65.56,82.27,65.44,82.1,65.32,82.18z"/>
	<path class="st13" d="M67.41,81.83c-0.37,0.24-0.68,0.63-1,0.93s-0.66,0.58-1,0.86c-0.69,0.57-1.4,1.12-2.14,1.62
		c-0.02,0.01,0,0.05,0.02,0.03c0.78-0.48,1.53-0.99,2.25-1.56c0.36-0.28,0.71-0.57,1.06-0.87c0.32-0.27,0.7-0.54,0.94-0.89
		C67.61,81.88,67.51,81.77,67.41,81.83z"/>
	<g>
		<path d="M82.86,61.55c-0.28,0.88-0.35,1.76-0.33,2.68c0,0.24-0.01,0.48-0.12,0.69c-0.13,0.25-0.36,0.33-0.61,0.4
			c-0.31,0.09-0.65,0.27-0.63,0.64c0.01,0.14,0.22,0.12,0.21-0.02c-0.01-0.23,0.24-0.34,0.43-0.4c0.19-0.06,0.4-0.1,0.56-0.23
			c0.29-0.23,0.37-0.62,0.38-0.97c0.01-0.45-0.02-0.9,0.03-1.35c0.05-0.46,0.15-0.92,0.29-1.36C83.09,61.5,82.9,61.42,82.86,61.55
			L82.86,61.55z"/>
	</g>
	<g>
		<path d="M85.43,66.58c-0.03-0.22-0.23-0.38-0.45-0.4c-0.26-0.03-0.49,0.14-0.67,0.32c-0.37,0.37-0.59,0.88-0.66,1.4
			c-0.02,0.14,0.19,0.17,0.21,0.03c0.05-0.41,0.21-0.8,0.46-1.13c0.12-0.16,0.27-0.32,0.47-0.39c0.15-0.05,0.39-0.01,0.42,0.18
			C85.24,66.73,85.45,66.71,85.43,66.58L85.43,66.58z"/>
	</g>
	<g>
		<path d="M82.13,70.23c-0.12,1.03-0.46,2.03-1.02,2.91c-0.07,0.11,0.09,0.25,0.17,0.13c0.58-0.91,0.94-1.94,1.06-3.01
			C82.36,70.12,82.15,70.09,82.13,70.23L82.13,70.23z"/>
	</g>
	<g>
		<path d="M18.3,128.46c-0.26-0.81,0.82-1.23,1.34-1.57c0.53-0.35,1.15-0.77,1.48-1.32c0.14-0.22,0.2-0.47,0.25-0.72
			c0.03-0.16,0.06-0.33,0.13-0.48c0.07-0.17,0.19-0.3,0.27-0.46c0.23-0.4,0.13-0.89-0.21-1.19c-0.1-0.09-0.23,0.08-0.13,0.17
			c0.26,0.23,0.33,0.59,0.17,0.9c-0.13,0.25-0.29,0.44-0.36,0.71c-0.08,0.28-0.1,0.58-0.23,0.84c-0.16,0.33-0.45,0.58-0.73,0.81
			c-0.26,0.21-0.53,0.41-0.81,0.59c-0.29,0.19-0.61,0.34-0.88,0.56c-0.38,0.3-0.65,0.75-0.49,1.23
			C18.15,128.67,18.35,128.59,18.3,128.46L18.3,128.46z"/>
	</g>
	<path class="st14" d="M9.17,136.66c1.43-0.63,2.59-0.02,3.24,0.88c0.52,0.72,0.84,1.68,0.19,2.65"/>
	<g>
		<path d="M81.83,63.15c-0.01,0.01-0.02,0.01-0.03,0.02c-0.2,0.12-0.45,0.06-0.57-0.13c-0.04-0.07-1-1.64,1.64-4.07
			c0.18-0.16,17.76-15.8,24.41-20.19c0.24-0.16,2.39-1.56,3.76-1.5c0.13-0.01,1.59-0.05,2.22,0.81c0.22,0.29,0.42,0.81,0.14,1.61
			c-0.08,0.22-0.32,0.34-0.54,0.26s-0.34-0.32-0.26-0.54c0.19-0.54,0.03-0.75-0.02-0.82c-0.31-0.42-1.24-0.48-1.54-0.47
			c-0.96-0.04-2.7,0.97-3.29,1.36c-6.6,4.37-24.13,19.96-24.31,20.12c-2.06,1.9-1.49,2.99-1.49,3C82.05,62.78,82,63.02,81.83,63.15z
			"/>
	</g>
	<g>
		<path d="M90.36,53.33c-0.05,0.04-0.11,0.06-0.18,0.08c-0.08,0.01-0.19,0.03-8.51-0.97c-0.16-0.02-0.3-0.13-0.35-0.28
			c-0.2-0.58-1.2-3.49-1.14-4.31c0.01-0.1,0.05-0.19,0.12-0.26l1.75-1.82c0.09-0.09,0.22-0.14,0.35-0.13l10.21,1.01
			c0.17,0.02,0.32,0.14,0.37,0.3l0.95,3.21c0.07,0.22-0.06,0.46-0.29,0.53s-0.46-0.06-0.53-0.29l-0.87-2.93l-9.72-0.96l-1.48,1.55
			c0.06,0.62,0.58,2.33,1,3.58c3.16,0.38,7.7,0.92,8.07,0.94c0.21,0,0.39,0.14,0.43,0.36C90.56,53.08,90.49,53.24,90.36,53.33z"/>
	</g>
	<g>
		<path d="M126.39,48.45c-0.01,0-0.01,0.01-0.02,0.01c-6,3.89-23.1,5.02-23.82,5.06c-0.23,0.01-0.44-0.16-0.45-0.4
			c-0.02-0.23,0.16-0.44,0.4-0.45c0.18-0.01,17.56-1.16,23.39-4.92c0.53-0.44,12.21-10.43,16.27-26.08
			c0.02-0.09,2.15-8.24-3.91-13.17c-2,0.34-21.44,4.45-54.11,37.99c-0.16,0.17-0.43,0.17-0.6,0.01s-0.17-0.43-0.01-0.6
			c9.97-10.24,25.09-24.2,40.45-32.58c9.24-5.04,14.13-5.66,14.33-5.68c0.11-0.01,0.22,0.02,0.31,0.09
			c6.69,5.28,4.38,14.09,4.35,14.18c-4.2,16.21-16.44,26.43-16.56,26.53C126.4,48.44,126.4,48.44,126.39,48.45z"/>
	</g>
	<g>
		<path d="M128.54,46.45c-0.15,0.11-0.36,0.11-0.52-0.01c-0.06-0.05-0.07-0.07-0.22-0.29c-1.35-2.06-2.04-2.73-2.37-2.95
			c-2.79,0.63-14.35,3.2-16.6,3.15l-1.72,1.69l-0.35,3.06c-0.02,0.19-0.17,0.35-0.36,0.37l-2.42,0.33l-0.72,1.15
			c-0.01,0.02-0.03,0.05-0.05,0.07L90.02,66.9c-2.09,2.41-3.72,1.49-3.79,1.44c-0.2-0.12-0.27-0.38-0.15-0.58
			c0.12-0.2,0.38-0.27,0.58-0.15c0.04,0.02,1.11,0.58,2.73-1.29l13.16-13.88l0.8-1.28c0.07-0.11,0.18-0.18,0.3-0.19l2.29-0.31
			l0.33-2.88c0.01-0.1,0.05-0.19,0.12-0.25l1.97-1.93c0.1-0.1,0.26-0.14,0.4-0.11c0.93,0.23,10.69-1.82,16.62-3.16
			c0.09-0.02,0.18-0.01,0.27,0.03c0.65,0.29,1.55,1.35,2.85,3.32c0.05,0.08,0.09,0.13,0.1,0.16c0.12,0.15,0.13,0.38,0,0.54
			C128.6,46.4,128.57,46.43,128.54,46.45z"/>
	</g>
	<g>
		<path d="M109.78,46.24c-0.18,0.13-0.43,0.1-0.57-0.07c-0.15-0.18-0.13-0.45,0.05-0.6c5.73-4.86,4.65-7.34,4.64-7.36
			c-0.2-0.45-0.46-0.7-0.8-0.79c-0.73-0.19-1.75,0.39-2.05,0.62l0,0c-0.19,0.14-0.45,0.1-0.59-0.09s-0.1-0.45,0.09-0.59
			c0.06-0.04,1.49-1.09,2.77-0.75c0.6,0.16,1.06,0.58,1.36,1.24c0.05,0.1,1.48,3.01-4.85,8.38
			C109.79,46.23,109.78,46.23,109.78,46.24z"/>
	</g>
	<g>
		<path d="M81.32,48.29c3.07,0.21,6.14,0.42,9.19,0.86c0.14,0.02,0.17-0.19,0.03-0.21c-3.05-0.43-6.12-0.64-9.19-0.86
			C81.21,48.07,81.18,48.28,81.32,48.29L81.32,48.29z"/>
	</g>
	<g>
		<path d="M91.89,47.58c-0.3,0.23-0.6,0.47-0.88,0.72c-0.22,0.2-0.52,0.4-0.49,0.74c0.01,0.15,0.07,0.29,0.12,0.43
			c0.06,0.18,0.12,0.36,0.19,0.54c0.13,0.37,0.25,0.73,0.38,1.1c0.05,0.13,0.24,0.05,0.2-0.07c-0.11-0.33-0.23-0.65-0.34-0.98
			c-0.11-0.3-0.23-0.61-0.31-0.91c-0.04-0.15-0.02-0.26,0.08-0.38c0.11-0.12,0.25-0.23,0.37-0.34c0.26-0.23,0.53-0.45,0.81-0.66
			C92.13,47.67,92,47.5,91.89,47.58L91.89,47.58z"/>
	</g>
	<g>
		<path d="M107.84,48.15c4.02-0.42,8-1.11,11.92-2.07c1.12-0.27,2.24-0.57,3.35-0.89c0.13-0.04,0.06-0.24-0.08-0.2
			c-3.88,1.11-7.83,1.95-11.83,2.52c-1.13,0.16-2.26,0.3-3.39,0.42C107.69,47.95,107.71,48.16,107.84,48.15L107.84,48.15z"/>
	</g>
	<g>
		<path d="M124,44.68c-0.08-0.41,0.3-0.7,0.58-0.94c0.34-0.28,0.69-0.55,1.06-0.79c0.11-0.08-0.01-0.25-0.13-0.17
			c-0.42,0.28-0.82,0.59-1.2,0.92c-0.29,0.25-0.6,0.58-0.52,1.01C123.81,44.83,124.02,44.81,124,44.68L124,44.68z"/>
	</g>
	<g>
		<path d="M123.97,45.43c0.4,0.65,0.85,1.25,1.36,1.81c0.09,0.1,0.26-0.02,0.17-0.12c-0.51-0.56-0.97-1.17-1.36-1.81
			C124.07,45.19,123.9,45.32,123.97,45.43L123.97,45.43z"/>
	</g>
	<g>
		<path d="M112.58,40.18c-0.11,0.51-0.54,0.81-0.96,1.07c-0.45,0.27-0.89,0.53-1.27,0.89c-0.42,0.4-0.78,0.86-1.16,1.29
			c-0.4,0.46-0.8,0.91-1.2,1.36c-1.66,1.84-3.37,3.62-5.11,5.37c-1.73,1.74-3.5,3.45-5.27,5.15c-0.45,0.43-0.9,0.86-1.35,1.29
			s-0.88,0.92-1.41,1.24c-0.53,0.32-1.17,0.44-1.76,0.6c-0.59,0.16-1.18,0.32-1.77,0.49c-1.35,0.37-2.7,0.74-4.05,1.11
			c-0.84,0.23-2.5,0.55-2.17,1.79c0.03,0.13,0.23,0.06,0.2-0.07c-0.17-0.65,0.5-1.06,1.02-1.23c0.57-0.19,1.16-0.33,1.74-0.48
			c1.2-0.33,2.39-0.66,3.59-0.99c0.59-0.16,1.18-0.32,1.77-0.49c0.53-0.15,1.08-0.27,1.56-0.56c0.49-0.3,0.89-0.75,1.3-1.14
			c0.42-0.41,0.85-0.81,1.27-1.22c3.53-3.39,7.03-6.81,10.32-10.43c0.45-0.5,0.9-1,1.35-1.51c0.46-0.52,0.89-1.08,1.4-1.54
			c0.71-0.63,1.95-0.93,2.18-1.97C112.82,40.08,112.61,40.05,112.58,40.18L112.58,40.18z"/>
	</g>
	<path class="st14" d="M127.56,45.01c0,0,23.28-24.2,10.21-36.03c0,0-19,2.45-53.09,37.24"/>
	<path class="st14" d="M132.32,17.41c0,0,4.92-4.17,5.27-7.98"/>
	<line class="st14" x1="116.77" y1="33.63" x2="113.55" y2="36.94"/>
	<path class="st14" d="M89.43,42.76c0,0,7.7,2.53,11.71,0.95"/>
	<path class="st14" d="M113.84,42.75c0,0,12.59,0.21,18.96-5.16"/>
	<line class="st15" x1="103.63" y1="51.25" x2="106.56" y2="49.04"/>
	<g id="Sign_00000104697754298120357120000014174616865768003469_">
		<g>
			<path d="M125.88,23.1c-0.36,0-0.72,0-1.08,0c-0.5,0.56-1.01,1.12-1.51,1.67c0.03,0,0.06,0,0.09,0c-0.02,0.02-0.03,0.04-0.05,0.05
				c0.03,0,0.06,0,0.09,0c-0.02,0.02-0.03,0.04-0.05,0.05c0.36,0,0.71,0.01,1.06,0.02c0.55,0.01,1.01-0.05,1.39-0.19
				c0.38-0.14,0.69-0.36,0.95-0.67c0.24-0.29,0.29-0.5,0.14-0.63c-0.01-0.02-0.02-0.04-0.04-0.05
				C126.75,23.18,126.43,23.1,125.88,23.1z"/>
			<path d="M123.85,25.51c-0.41-0.01-0.82-0.02-1.24-0.03c-0.55,0.58-1.1,1.15-1.65,1.7c0.03,0,0.06,0,0.09,0
				c-0.02,0.02-0.03,0.03-0.05,0.05c0.03,0,0.06,0,0.09,0c-0.02,0.02-0.03,0.03-0.05,0.05c0.43,0.01,0.85,0.03,1.27,0.04
				c0.46,0.02,0.85,0.01,1.16-0.03c0.31-0.04,0.58-0.12,0.81-0.24c0.23-0.12,0.44-0.29,0.65-0.51c0.29-0.32,0.36-0.55,0.21-0.7
				c0,0-0.01,0-0.01-0.01c-0.01-0.02-0.01-0.03-0.03-0.05c0,0-0.01,0-0.01-0.01c-0.01-0.02-0.01-0.03-0.03-0.05
				C124.91,25.61,124.51,25.52,123.85,25.51z"/>
			<path d="M120.76,21.69c-4.15,3.18-6.06,7.39-4.28,9.4l0,0c0.01,0.02,0.02,0.04,0.04,0.05l0,0c0.01,0.02,0.02,0.04,0.04,0.05
				c1.78,2.01,6.59,1.05,10.74-2.13s6.06-7.39,4.28-9.4l0,0c-0.01-0.02-0.02-0.04-0.04-0.05l0,0c-0.01-0.02-0.02-0.04-0.04-0.05
				C129.71,17.56,124.91,18.51,120.76,21.69z M128.47,22.82c0.14,0.27,0.04,0.64-0.32,1.1c-0.23,0.29-0.53,0.55-0.9,0.77
				c-0.37,0.22-0.75,0.37-1.15,0.46c0.04,0.01,0.07,0.02,0.1,0.04c-0.02,0-0.04,0.01-0.06,0.02c0.04,0.01,0.07,0.02,0.1,0.04
				c-0.02,0-0.04,0.01-0.06,0.02c0.21,0.06,0.36,0.14,0.47,0.26c0.02,0.05,0.04,0.09,0.06,0.15c0.05,0.25-0.06,0.54-0.33,0.85
				c-0.45,0.52-1.07,0.9-1.85,1.14c-0.75,0.23-1.6,0.3-2.54,0.27c-0.29,0.29-0.59,0.57-0.89,0.84c-0.2-0.01-0.41-0.02-0.61-0.03
				c0.26-0.24,0.52-0.49,0.78-0.74c-0.03,0-0.06,0-0.09,0c0.02-0.02,0.04-0.03,0.05-0.05c-0.03,0-0.06,0-0.09,0
				c0.02-0.02,0.04-0.03,0.05-0.05c-0.3-0.01-0.61-0.02-0.91-0.03c-0.29,0.28-0.59,0.56-0.89,0.83c-0.2-0.01-0.4-0.01-0.6-0.01
				c0.26-0.24,0.52-0.48,0.78-0.73c-0.03,0-0.07,0-0.1,0c0.02-0.02,0.04-0.04,0.06-0.06c-0.03,0-0.07,0-0.1,0
				c0.02-0.02,0.04-0.04,0.06-0.06c-0.58-0.01-1.17,0-1.75,0.01c0.19-0.19,0.39-0.38,0.58-0.57c0.39-0.01,0.77-0.01,1.16-0.01
				c1.31-1.3,2.59-2.67,3.86-4.05l0,0c-0.03,0-0.06,0-0.09,0c0.02-0.02,0.03-0.04,0.05-0.06l0,0c-0.03,0-0.06,0-0.09,0
				c0.02-0.02,0.03-0.04,0.05-0.06l0,0c-0.32,0-0.65,0.01-0.98,0.01c0.19-0.21,0.38-0.41,0.57-0.62c0.65-0.01,1.29-0.02,1.93-0.02
				c0.38-0.42,0.76-0.83,1.14-1.25c0.2,0,0.39-0.01,0.58-0.01c-0.34,0.38-0.68,0.77-1.03,1.15c0.03,0,0.06,0,0.09,0
				c-0.02,0.02-0.03,0.04-0.05,0.06c0.03,0,0.06,0,0.09,0c-0.02,0.02-0.03,0.04-0.05,0.06c0.29,0,0.59-0.01,0.88-0.01
				c0.37-0.42,0.74-0.85,1.11-1.28c0.19-0.01,0.37-0.01,0.56-0.02c-0.34,0.4-0.67,0.79-1.01,1.19c0.03,0,0.05,0,0.08,0.01
				c-0.01,0.02-0.03,0.03-0.04,0.05c0.03,0,0.05,0,0.08,0.01c-0.01,0.02-0.03,0.03-0.04,0.05
				C127.82,22.47,128.26,22.59,128.47,22.82z"/>
			<path d="M134.07,18.57c-0.09-0.13-0.18-0.25-0.28-0.36c-2.43-2.79-8.63-1.83-13.82,2.16c-3.41,2.61-5.7,6.01-5.98,8.88
				c-0.12,1.22,0.13,2.29,0.73,3.13c0.01,0.02,0.03,0.04,0.04,0.05c0.09,0.13,0.18,0.25,0.28,0.36c2.36,2.71,8.3,1.87,13.4-1.84
				c0.14-0.1,0.28-0.21,0.42-0.31c3.41-2.61,5.7-6.01,5.98-8.88c0.12-1.22-0.13-2.29-0.73-3.13
				C134.1,18.61,134.09,18.59,134.07,18.57z M128.47,30.12c-4.98,3.81-10.86,4.82-13.12,2.23c-0.06-0.07-0.12-0.15-0.17-0.22
				c-0.49-0.73-0.69-1.66-0.59-2.72c0.27-2.73,2.49-6,5.78-8.52c0.14-0.11,0.28-0.21,0.42-0.31c4.89-3.56,10.51-4.43,12.7-1.92
				c0.06,0.07,0.12,0.15,0.17,0.22c0.49,0.73,0.69,1.66,0.59,2.72C133.98,24.33,131.76,27.59,128.47,30.12z"/>
		</g>
		
			<ellipse transform="matrix(0.8103 -0.5861 0.5861 0.8103 8.6909 77.7338)" class="st16" cx="124.4" cy="25.44" rx="11.63" ry="6.45"/>
		<g>
			<path class="st17" d="M125.88,23.1c-0.36,0-0.72,0-1.08,0c-0.5,0.56-1.01,1.12-1.51,1.67c0.36,0,0.71,0.01,1.06,0.02
				c0.55,0.01,1.01-0.05,1.39-0.19c0.38-0.14,0.69-0.36,0.95-0.67C127.15,23.37,126.89,23.09,125.88,23.1z"/>
			<path class="st17" d="M123.85,25.51c-0.41-0.01-0.82-0.02-1.24-0.03c-0.55,0.58-1.1,1.15-1.65,1.7c0.43,0.01,0.85,0.03,1.27,0.04
				c0.46,0.02,0.85,0.01,1.16-0.03c0.31-0.04,0.58-0.12,0.81-0.24c0.23-0.12,0.44-0.29,0.65-0.51c0.29-0.32,0.36-0.55,0.21-0.7
				C124.91,25.61,124.51,25.52,123.85,25.51z"/>
			<path class="st17" d="M120.76,21.69c-4.15,3.18-6.06,7.39-4.28,9.4s6.59,1.05,10.74-2.13s6.06-7.39,4.28-9.4
				C129.71,17.56,124.91,18.51,120.76,21.69z M128.41,22.74c0.22,0.28,0.13,0.68-0.27,1.18c-0.23,0.29-0.53,0.55-0.9,0.77
				c-0.37,0.22-0.75,0.37-1.15,0.46c0.35,0.09,0.55,0.26,0.6,0.52c0.05,0.25-0.06,0.54-0.33,0.85c-0.45,0.52-1.07,0.9-1.85,1.14
				c-0.75,0.23-1.6,0.3-2.54,0.27c-0.29,0.29-0.59,0.57-0.89,0.84c-0.26-0.02-0.53-0.03-0.79-0.04c0.3-0.27,0.59-0.55,0.89-0.84
				c-0.3-0.01-0.61-0.02-0.91-0.03c-0.29,0.28-0.59,0.56-0.89,0.83c-0.27-0.01-0.53-0.01-0.8-0.02c0.3-0.27,0.6-0.55,0.89-0.83
				c-0.65-0.01-1.3-0.01-1.94,0.01c0.23-0.22,0.46-0.45,0.69-0.68c0.39-0.01,0.77-0.01,1.16-0.01c1.31-1.3,2.59-2.67,3.86-4.05l0,0
				c-0.38,0-0.77,0.01-1.16,0.01c0.22-0.24,0.45-0.49,0.67-0.73c0.65-0.01,1.29-0.02,1.93-0.02c0.38-0.42,0.76-0.83,1.14-1.25
				c0.26-0.01,0.51-0.01,0.76-0.02c-0.38,0.42-0.75,0.84-1.13,1.26c0.29,0,0.59-0.01,0.88-0.01c0.37-0.42,0.74-0.85,1.11-1.28
				c0.25-0.01,0.49-0.02,0.74-0.03c-0.37,0.44-0.74,0.87-1.11,1.3C127.77,22.36,128.21,22.48,128.41,22.74z"/>
		</g>
	</g>
	
		<linearGradient id="SVGID_00000003815890608973012280000007719536605710253472_" gradientUnits="userSpaceOnUse" x1="-474.8268" y1="933.874" x2="-478.923" y2="906.0193" gradientTransform="matrix(0.8059 -0.5867 0.5885 0.8085 -112.277 -923.75)">
		<stop  offset="0" style="stop-color:#1D1D1B"/>
		<stop  offset="0.0994" style="stop-color:#201F1C;stop-opacity:0.7708"/>
		<stop  offset="0.1777" style="stop-color:#2A241F;stop-opacity:0.5904"/>
		<stop  offset="0.2487" style="stop-color:#3B2D24;stop-opacity:0.4265"/>
		<stop  offset="0.3155" style="stop-color:#52392B;stop-opacity:0.2725"/>
		<stop  offset="0.3787" style="stop-color:#704934;stop-opacity:0.1268"/>
		<stop  offset="0.4337" style="stop-color:#915A3E;stop-opacity:0"/>
	</linearGradient>
	<path style="fill:url(#SVGID_00000003815890608973012280000007719536605710253472_);" d="M7.58,140.3
		c-0.12-0.12-0.21-0.26-0.27-0.42c-0.24-0.7,1.04-1.53,1.45-1.94c0.83-0.83,1.66-1.65,2.49-2.48c1.41-1.4,2.81-2.8,4.22-4.2
		c1.43-1.43,2.86-2.85,4.3-4.28c1.45-1.45,2.9-2.89,4.36-4.34c1.47-1.46,2.93-2.92,4.4-4.38c1.47-1.47,2.94-2.93,4.42-4.4
		c1.47-1.47,2.94-2.93,4.42-4.4c1.47-1.46,2.93-2.92,4.4-4.38c1.45-1.45,2.91-2.89,4.36-4.34c1.43-1.43,2.87-2.85,4.3-4.28
		c1.41-1.4,2.81-2.8,4.22-4.2c1.37-1.37,2.75-2.73,4.12-4.1c1.33-1.33,2.67-2.65,4-3.98c1.29-1.28,2.57-2.56,3.86-3.84
		c1.23-1.23,2.47-2.46,3.7-3.68c1.17-1.17,2.35-2.34,3.52-3.5c1.11-1.1,2.21-2.2,3.32-3.31c1.03-1.03,2.07-2.06,3.1-3.09
		c0.95-0.95,1.91-1.9,2.86-2.85c0.25-0.25,0.5-0.5,0.76-0.75c0.15-0.15,0.64-0.79,0.83-0.79c0.08,0,0.16,0.05,0.23,0.09
		c1.27,0.86,2.03,2.28,2.8,3.6c0.06,0.11,0.13,0.23,0.14,0.35c0.02,0.26-0.51,0.63-0.7,0.82c-0.22,0.22-0.45,0.44-0.67,0.67
		c-0.46,0.46-0.93,0.92-1.39,1.38c-0.99,0.98-1.98,1.97-2.97,2.95c-1.07,1.06-2.14,2.12-3.21,3.18c-1.14,1.13-2.28,2.27-3.42,3.4
		c-1.21,1.2-2.41,2.39-3.62,3.59c-1.26,1.25-2.53,2.51-3.79,3.76c-1.31,1.3-2.63,2.61-3.94,3.91c-1.36,1.35-2.71,2.7-4.07,4.04
		c-1.39,1.38-2.79,2.77-4.18,4.15c-1.42,1.41-2.85,2.83-4.27,4.24c-1.45,1.44-2.89,2.87-4.34,4.31c-1.46,1.45-2.93,2.91-4.39,4.36
		c-1.47,1.46-2.94,2.92-4.42,4.39c-1.47,1.46-2.95,2.93-4.42,4.39c-1.47,1.46-2.94,2.92-4.41,4.38c-1.46,1.45-2.92,2.9-4.38,4.35
		c-1.44,1.43-2.88,2.86-4.32,4.29c-1.41,1.4-2.83,2.81-4.24,4.21c-0.91,0.68-1.7,1.68-2.5,2.49c-0.7,0.7-1.33,1.73-2.3,2.05
		c-0.5,0.16-1.04,0.19-1.57,0.21c-0.23,0.01-0.47,0.02-0.7-0.04c-0.33-0.09-0.6-0.32-0.86-0.55c-0.31-0.27-0.62-0.54-0.92-0.81
		C7.76,140.48,7.67,140.39,7.58,140.3z"/>
	<path d="M87.89,66c-0.29-0.08-0.59,0-0.8,0.21l-24.8,24.64c-2.71,2.69-5.41,5.38-8.12,8.06l0,0l-0.4,0.4
		c-0.55,0.55-1.1,1.1-1.66,1.65l-4.94,4.91c-1.76,1.75-3.51,3.49-5.27,5.24l-21.94,21.8l0,0c-1.45,1.44-2.91,2.89-4.36,4.33
		c-0.41,0.4-0.81,0.83-1.21,1.25c-0.79,0.83-1.61,1.7-2.48,2.41c-0.46,0.38-1.11,0.51-1.81,0.35c-0.93-0.21-1.82-0.89-2.17-1.66
		c-0.34-0.74-0.43-1.79,0.15-2.46c0.27-0.31,0.59-0.61,0.89-0.9l18.72-18.58c4.49-4.46,8.97-8.92,13.45-13.37l8.64-8.59l0.02-0.03
		c1.11-1.11,2.23-2.22,3.34-3.32l4.38-4.36c3.08-3.07,6.17-6.13,9.26-9.19c3.44-3.42,6.88-6.84,10.32-10.25
		c0.98-0.97,1.96-1.94,2.93-2.91l3.51-3.49c0.3-0.3,0.31-0.73,0.01-1.04c-0.14-0.15-0.35-0.24-0.55-0.26
		c-0.25-0.02-0.48,0.06-0.66,0.24L49.11,94.12l0,0l-0.38,0.38l-0.23,0.23c-0.59,0.59-1.17,1.17-1.77,1.75l-15.15,15.05
		c-4.19,4.17-8.38,8.33-12.58,12.5c-2.9,2.88-5.8,5.76-8.7,8.65l-2.49,2.47c-0.1,0.1-0.2,0.19-0.31,0.29
		c-0.26,0.24-0.53,0.48-0.75,0.76c-1.25,1.54-0.73,3.89,0.47,5.19c0.83,0.91,2.17,1.48,3.45,1.48c0.86,0,1.69-0.26,2.35-0.84
		c0.21-0.19,0.4-0.39,0.6-0.59c0.13-0.13,0.26-0.26,0.39-0.39c1.02-1.01,2.04-2.03,3.06-3.04c1.04-1.04,2.09-2.08,3.14-3.12
		l24.83-24.67c1.65-1.64,3.31-3.28,4.96-4.92c1.69-1.68,3.39-3.37,5.08-5.05l0.23-0.23l-0.01-0.01l3.23-3.21
		c4.22-4.2,8.45-8.39,12.66-12.59L81.68,73.8c0.96-0.95,1.92-1.91,2.89-2.87c0.98-0.98,1.97-1.96,2.96-2.93l0.74-0.73
		c0.2-0.19,0.28-0.44,0.21-0.68C88.42,66.31,88.18,66.08,87.89,66z"/>
	<g>
		<path class="st19" d="M87.9,67.62c-0.17,0.12-0.44,0.22-0.85,0.16c-0.23-0.04-0.39-0.25-0.36-0.48s0.25-0.39,0.48-0.36
			c0.15,0.02,0.21,0,0.22-0.01c0.16-0.15-0.2-1.47-1.78-3.13c-1.56-1.65-2.84-2.09-3.02-1.95c0,0,0,0-0.01,0.01
			s-0.06,0.13,0.01,0.41c0.06,0.23-0.08,0.46-0.31,0.51c-0.23,0.06-0.46-0.08-0.51-0.31c-0.17-0.68,0.03-1.04,0.23-1.23
			c0.85-0.81,2.79,0.46,4.23,1.98c1.44,1.52,2.6,3.53,1.75,4.33C87.96,67.57,87.93,67.59,87.9,67.62z"/>
	</g>
</g>
</svg>
