<?xml version="1.0" encoding="utf-8"?>
<!-- Generator: Adobe Illustrator 28.0.0, SVG Export Plug-In . SVG Version: 6.00 Build 0)  -->
<svg version="1.1" id="Layer_1" xmlns="http://www.w3.org/2000/svg" xmlns:xlink="http://www.w3.org/1999/xlink" x="0px" y="0px"
	 viewBox="0 0 800 800" style="enable-background:new 0 0 800 800;" xml:space="preserve">
<style type="text/css">
	.st0{fill:#EBEBEB;}
	.st1{fill:#FFFFFF;}
	.st2{fill:#E89928;}
	.st3{fill:url(#SVGID_1_);}
	.st4{fill:url(#SVGID_00000005248673646250422780000013769593784558234263_);}
	.st5{fill:url(#SVGID_00000135665052407781080810000000190661286126794129_);}
	.st6{fill:url(#SVGID_00000030485570229018027020000014963454209769252229_);}
	.st7{fill:url(#SVGID_00000044145237418423099870000013668940896511479996_);}
	.st8{fill:url(#SVGID_00000132784700544225240380000005040517825214642048_);}
	.st9{fill:url(#SVGID_00000057129254416756406690000001352585532835443873_);}
	.st10{fill:url(#SVGID_00000025435560534490111880000017886013815457420931_);}
	.st11{fill:url(#SVGID_00000151517434139979403970000013675258456458196103_);}
	.st12{fill:url(#SVGID_00000137834154374112390890000014366937705603314054_);}
	.st13{fill:url(#SVGID_00000091723098682975894030000005069788132751518879_);}
	.st14{fill:url(#SVGID_00000051343536619613978080000010255936048813747592_);}
	.st15{fill:url(#SVGID_00000024710547983390138740000017582746521519722675_);}
	.st16{fill:url(#SVGID_00000049204972889208362080000015860141381859123628_);}
	.st17{fill:url(#SVGID_00000117659958441489647370000006368779321624949439_);}
	.st18{fill:url(#SVGID_00000173136921665547037600000012691661801249019016_);}
	.st19{fill:url(#SVGID_00000115482606891176325420000002995575168337252014_);}
	.st20{fill:none;stroke:#000000;stroke-width:2;stroke-linecap:round;stroke-linejoin:round;stroke-miterlimit:10;}
	.st21{fill:none;stroke:#000000;stroke-miterlimit:10;}
</style>
<g id="_x34_-WEAR__x5B_T-SH_x2F_BITCOIN_x5D_">
	<g>
		<path class="st0" d="M552.97,262.11c-0.54-1.35-1.15-2.69-1.75-4.01c-0.79-1.73-1.59-3.48-2.79-4.96
			c-0.4-0.49-0.84-0.94-1.16-1.48c-0.47-0.78-0.63-1.92-0.69-2.82c-0.09-1.54-0.1-3.11-0.47-4.61c-0.7-2.84-2.66-5.27-3.16-8.15
			c-0.29-1.69-0.05-3.43,0-5.14c0.05-1.72-0.12-3.53-1.1-4.94c-0.85-1.22-2.15-1.73-3.35-2.53c-0.31-0.21-0.64-0.43-0.78-0.78
			c-0.22-0.54,0.1-1.15,0.06-1.74c-0.02-0.23-0.1-0.46-0.17-0.68c-1.38-3.98-3.1-7.83-4.81-11.67c-0.75-1.69-1.94-3.04-2.82-4.69
			c-0.91-1.69-1.64-3.47-2.38-5.24c-3.42-8.29-6.85-16.74-12.44-23.75c-1.13-1.41-2.39-2.8-3.98-3.7c-1.67-0.93-3.79-1.32-5.61-1.92
			c-8.47-2.81-16.93-5.68-25.41-8.45c-0.47-0.15-1.13-0.06-1.52-0.38c-0.11-0.09-0.19-0.21-0.28-0.33
			c-1.37-1.97-2.17-4.37-3.95-5.97c-1.37-1.24-3.18-1.86-4.95-2.4c-2.85-0.87-5.74-1.61-8.66-2.2c-1.48-0.3-2.97-0.57-4.46-0.81
			c-0.46-0.07-1.47-0.42-1.89-0.19c-0.51,0.28-0.36,1.07-0.2,1.5c0.76,2,1.57,3.98,2.29,6c0.38,1.05,0.76,2.12,1.38,3.05
			c0.28,0.42,0.97,1.19,0.74,1.76c-0.17,0.41-1.04,0.7-1.39,0.91c-1.36,0.82-2.75,1.6-4.15,2.35c-2.8,1.49-5.67,2.84-8.6,4.04
			c-3.09,1.26-6.24,2.35-9.45,3.26c-5.83,1.65-11.68,3.25-17.52,4.87c-6.01,1.67-12.16,3.36-18.39,3c-0.64-0.04-1.29-0.1-1.9-0.33
			s-1.13-0.63-1.65-1.02c-0.91-0.69-1.82-1.38-2.51-2.29c-0.68-0.91-1.11-2.07-0.89-3.19c0.03-0.16,0.07-0.31,0.17-0.44
			c0.13-0.19,0.35-0.3,0.56-0.4c2.7-1.32,5.41-2.65,8.11-3.97c0.63-0.31,1.27-0.63,1.76-1.13c0.85-0.88,0.74-2.15,0.59-3.27
			c-0.16-1.2-0.53-2.34-0.75-3.52c-0.17-0.93-0.54-1.5-1.6-1.02c-3.97,1.78-7.78,3.91-11.39,6.35c-0.66,0.45-1.32,0.91-1.84,1.53
			c-0.44,0.52-0.75,1.14-1.21,1.64c-0.53,0.58-1.21,0.99-1.89,1.39c-7.38,4.34-14.57,8.91-21.53,13.9
			c-4.8,3.44-9.49,7.03-14.07,10.75c-0.95,0.77-1.9,1.55-2.65,2.52c-1.5,1.93-1.76,4.43-2.89,6.54c-1.2,2.24-2.81,3.91-4.72,5.59
			c-0.39,0.34-0.78,0.68-1.07,1.1c-0.22,0.32-0.39,0.67-0.55,1.02c-1.25,2.58-3.03,4.82-4.3,7.38c-0.62,1.25-1.38,2.38-1.98,3.66
			c-0.72,1.54-1.44,3.07-2.16,4.61c-1.44,3.07-2.88,6.15-4.31,9.22c-1.74,3.71-3.47,7.42-5.46,11c-0.13,0.24-0.29,0.49-0.56,0.55
			c-0.2,0.04-0.4-0.04-0.59-0.12c-0.73-0.29-1.54-0.48-2.29-0.26c-0.57,0.16-1.05,0.54-1.51,0.91c-0.95,0.76-1.88,1.58-2.87,2.28
			c-0.88,0.62-1.65,1.22-2.23,2.17c-0.08,0.13-0.16,0.27-0.16,0.42c-0.01,0.22,0.12,0.42,0.25,0.6c1.25,1.78,2.59,3.49,4.02,5.13
			c0.15,0.17,0.3,0.34,0.49,0.45c0.27,0.15,0.58,0.16,0.88,0.18c1.05,0.07,2.11,0.28,3.02,0.79c0.99,0.55,1.96,1.56,2.53,2.54
			c0.4,0.68,0.68,1.42,0.96,2.16c0.53,1.42,1.07,2.85,1.6,4.27c0.31,0.82,0.62,1.65,0.85,2.49c0.71,2.65,1.07,5.41,1.72,8.08
			c0.69,2.86,1.49,5.69,2.28,8.52c1.59,5.69,3.19,11.38,4.78,17.08c0.27,0.97,0.54,1.95,0.64,2.95c0.13,1.32-0.23,2.43-0.35,3.71
			c-0.11,1.14-0.05,2.21-0.32,3.34c-0.24,1.04-0.59,2.08-1.28,2.92c-0.33,0.4-0.73,0.75-1.14,1.07c-1.12,0.9-2.31,1.71-3.57,2.42
			c-1.17,0.66-2.64,0.99-3.34,2.22c-1.04,1.84-0.5,4.56,1.22,5.78c0.97,0.69,2.14,1.05,3.24,1.51c0.24,0.1,0.49,0.21,0.69,0.37
			c1.55,1.23,0.8,4.34,0.71,5.99c-0.23,4.31,0.43,8.61,0.68,12.92c0.28,4.83-0.63,9.56-0.1,14.41c0.55,5.05,1.68,10.08,1.45,15.19
			c-0.16,3.73-0.4,7.39-0.46,11.12c-0.04,2.52-0.99,5.36,2.22,6.37c1.55,0.49,3.24,0.15,4.81-0.26c2.94-0.77,5.83-1.78,8.6-3.02
			c4.03-1.8,7.86-4.09,12.06-5.42c4.13-1.3,8.5-1.63,12.82-1.96c7.54-0.56,14.97-1.66,22.54-1.95c7.87-0.3,15.74-0.05,23.6,0.45
			c8.55,0.53,17.07,1.47,25.56,2.59c8.26,1.09,16.71,1.96,24.82,3.84c2.09,0.49,4.17,1,6.25,1.53c1.84,0.47,3.63,1.17,5.55,0.99
			c1.19-0.11,2.39-0.62,3.06-1.61c0.47-0.69,0.62-1.54,0.75-2.37c0.74-4.72,0.96-9.51,1.17-14.28c0.12-2.69,0.24-5.39,0.29-8.08
			c0.13-6.27-0.56-12.55,0-18.79c0.43-4.75,0.85-9.5,1.28-14.25c0.24-2.73,0.49-5.47,0.98-8.17c0.46-2.52,1.28-4.37,2.35-6.68
			c0.79-1.71,1.38-3.5,1.97-5.29c1.13-3.43,2.26-6.87,3.39-10.3c0.94-2.86,1.88-5.72,2.62-8.65c0.24-0.94,0.66-6.54,1.8-6.41
			c0.32,0.04,0.6,0.2,0.87,0.37c1.2,0.77,2.28,1.71,3.22,2.78c0.5,0.57,0.96,1.19,1.61,1.58c0.79,0.48,1.82,0.54,2.67,0.17
			c0.19-0.08,0.37-0.19,0.49-0.35c0.37-0.51-0.02-1.2-0.38-1.72c-2-2.87-3.14-6.24-4.25-9.55c-0.22-0.65-0.44-1.33-0.3-2
			c0.09-0.43,0.31-0.81,0.59-1.15c1.03-1.27,2.63-1.68,3.86-2.64c1.53-1.19,3.42-2.09,5.1-3.06c3.88-2.23,7.75-4.46,11.63-6.69
			c1.67-0.96,3.33-1.92,5-2.88c1.43-0.82,2.86-1.65,4.36-2.35c1.44-0.67,2.95-1.23,4.53-1.43c3.16-0.4,5.87,0.84,7.79,3.35
			c0.98,1.28,1.71,2.74,2.41,4.2c0.84,1.75,1.65,3.51,2.42,5.29c0.36,0.82,0.89,1.77,1.78,1.81c1.14,0.05,2.05-1.27,2.4-2.2
			c0.41-1.1,0.44-2.33,0.33-3.49C554.67,266.9,553.91,264.47,552.97,262.11z"/>
	</g>
	<g>
		<path class="st1" d="M334.92,214.21c-1,2.17-1.75,4.47-2.68,6.67c-0.96,2.27-1.87,4.57-2.88,6.83c-0.16,0.36-0.33,0.72-0.5,1.08
			c-1.75,3.32-3.48,6.65-5.12,10.03c-0.08,0.13-0.15,0.26-0.23,0.39c-0.2,0.03-0.39,0.16-0.42,0.43c-0.01,0.12-0.01,0.24-0.02,0.36
			c-0.14,0.27-0.28,0.53-0.4,0.8c-0.05,0.1-0.05,0.21-0.02,0.32c-0.48,1.03-0.97,2.06-1.42,3.1c-0.62,1.43-1.43,2.97-1.78,4.51
			c-0.76-0.26-1.52-0.5-2.28-0.73c-0.25-0.07-0.49-0.12-0.72-0.15c-0.09-0.12-0.22-0.22-0.4-0.24c-0.36-0.03-0.72,0.12-1.06,0.32
			c-0.68,0.18-1.33,0.54-1.98,1.03c-1.48,1.12-3.11,2.22-4.42,3.54c-0.46,0.46,0.13,1.23,0.69,0.9c0.4-0.24,0.79-0.5,1.18-0.78
			c0.55-0.2,1.16-0.11,1.73-0.11c0.73,0,1.65-0.16,1.71-1.06c0.02-0.32-0.08-0.61,0.06-0.92c0.14-0.32,0.4-0.57,0.65-0.81
			c0.19-0.17,0.4-0.31,0.61-0.46c0.56-0.15,1.1-0.06,1.7,0.13c1.42,0.46,2.82,0.99,4.23,1.48c1.24,0.44,2.29,0.76,3.14,1.82
			c0.36,0.45,1.15-0.04,0.96-0.56c-0.44-1.27-1.78-1.95-2.97-2.4c-0.28-0.11-0.57-0.21-0.85-0.31c0.34-0.35,0.54-0.91,0.72-1.3
			c0.18-0.38,0.36-0.57,0.72-0.78c0.42-0.24,0.76-0.57,0.99-1c0.06-0.11,0.09-0.23,0.13-0.35c0.36,0.88,0.79,1.73,1.23,2.58
			c0.38,0.74,0.87,1.4,1.63,1.77c0.04,0.02,0.07-0.03,0.03-0.05c-1.59-0.97-1.94-3.29-2.25-4.96c-0.2-1.11-0.34-2.23-0.45-3.35
			c0.02-0.43,0.06-0.85,0.1-1.28c0.6-1.3,1.25-2.58,1.87-3.86c0.35-0.61,0.71-1.21,1.04-1.82c1.18-2.17,2.3-4.38,3.31-6.64
			c0.99-2.21,1.96-4.45,2.71-6.76c0.77-2.37,1.6-4.82,1.98-7.3C335.24,214.17,335.01,214.03,334.92,214.21z"/>
		<path class="st1" d="M372.03,177.37c-1.61,0.9-3.12,2.02-4.64,3.06c-1.53,1.05-3.04,2.14-4.54,3.23
			c-2.92,2.12-5.79,4.31-8.63,6.53c-0.13,0.1-0.26,0.21-0.39,0.31c-0.14-0.14-0.37-0.2-0.58-0.11c-0.66,0.29-1.23,0.93-1.72,1.45
			c-0.37,0.39-0.7,0.83-1,1.28c-0.23,0.18-0.46,0.36-0.68,0.54c-1.21,0.98-2.66,1.91-3.57,3.21c-0.96,1.38-0.84,3.08-0.72,4.68
			c0.13,1.76,0.38,3.51,0.65,5.25c0.62,4.01,1.37,8.12,0.9,12.19c-0.01,0.11,0.16,0.13,0.18,0.02c0.78-3.34,0.59-6.64,0.17-10.02
			c-0.14-1.16-0.3-2.32-0.45-3.49c0.04-0.64,0.09-1.27,0.1-1.91c0.02-0.85-0.06-1.77,0.17-2.6c0.28-1,1.14-1.68,1.87-2.41
			c0.89-0.36,1.78-0.72,2.68-1.07c2.19-0.87,4.39-1.72,6.6-2.54c0.02-0.01,0.01-0.05-0.01-0.04c-2.55,0.79-5.12,1.52-7.69,2.26
			c-0.21,0.06-0.43,0.12-0.65,0.17c0.47-0.88,0.64-1.84,1.02-2.78c0.58-0.61,1.18-1.18,1.84-1.69c1.45-1.12,3.04-1.79,4.74-2.43
			c0.61-0.23,1.19-0.53,1.56-1.09c0.28-0.43,0.42-0.91,0.76-1.3c0.29-0.34,0.65-0.62,1-0.9c1.73-1.44,3.6-2.78,5.21-4.36
			c0.05-0.05,0.08-0.11,0.09-0.16c0.51-0.37,1.01-0.74,1.52-1.12c1.57-1.15,3.22-2.23,4.71-3.48
			C372.94,177.73,372.45,177.14,372.03,177.37z"/>
		<path class="st1" d="M400.77,158.99c-0.83,0.16-1.61,0.69-2.34,1.1c-0.78,0.45-1.55,0.92-2.28,1.46c-0.68,0.5-1.3,1.11-2.05,1.5
			c-0.74,0.39-1.54,0.65-2.28,1.05c-1.27,0.69-2.41,1.61-3.34,2.71c-0.46,0.54-0.9,1.14-1.21,1.77c-0.32,0.66-0.48,1.38-0.75,2.06
			c-0.03,0.08,0.1,0.13,0.13,0.06c0.31-0.7,0.84-1.26,1.31-1.85c0.45-0.56,0.91-1.09,1.42-1.59c1.02-0.99,2.21-1.81,3.51-2.39
			c0.72-0.32,1.49-0.54,2.17-0.94c0.7-0.4,1.28-0.98,1.93-1.46c0.7-0.51,1.43-0.96,2.17-1.39c0.7-0.4,1.49-0.73,2.07-1.31
			C401.57,159.43,401.22,158.91,400.77,158.99z"/>
		<path class="st1" d="M423.89,174.62c-3.17,0.77-6.26,2-9.35,3.04c-1.46,0.49-2.93,0.95-4.43,1.27c-1.58,0.34-3.17,0.4-4.77,0.62
			c-0.73,0.1-1.41,0.3-2.13,0.48c-0.94,0.23-1.72,0.1-2.63-0.21c-0.54-0.19-1.12-0.53-1.71-0.47c-0.14,0-0.27,0.03-0.39,0.09
			c-0.1,0.15-0.2,0.16-0.3,0.03c-0.31-0.04-0.75-0.36-1.03-0.5c-1.28-0.66-2.54-1.47-3.51-2.55c-1.08-1.21-1.58-2.5-1.93-4.06
			c-0.02-0.11-0.17-0.09-0.2,0c-0.76,2.14,0.67,4.54,2.22,5.94c0.93,0.84,2.01,1.47,3.12,2.02c0.42,0.21,0.93,0.55,1.42,0.57
			c0.51,0.03,0.63-0.4,1.12-0.25c1.23,0.38,2.35,0.83,3.65,0.55c0.64-0.13,1.25-0.38,1.89-0.52c0.75-0.16,1.51-0.21,2.27-0.27
			c2.72-0.23,5.32-0.92,7.9-1.8c3.02-1.03,6.14-2.02,9.04-3.35C424.53,175.08,424.26,174.53,423.89,174.62z"/>
		<path class="st1" d="M465.96,153.92c-0.29-0.47-0.94-0.15-0.85,0.36c0.2,1.1-0.16,1.93-1.01,2.66c-0.66,0.56-1.59,0.88-2.16,1.54
			c-0.24,0.27-0.25,0.55-0.4,0.85c-0.21,0.43-0.75,0.74-1.13,1.02c-0.74,0.54-1.52,1-2.3,1.46c-3.15,1.84-6.81,2.88-9.78,5.02
			c-0.15,0.11-0.06,0.41,0.14,0.32c1.94-0.81,3.87-1.65,5.82-2.44c1.9-0.77,3.84-1.52,5.59-2.59c0.78-0.48,1.65-1,2.31-1.66
			c0.33-0.33,0.36-0.63,0.55-1.02c0.24-0.52,0.95-0.8,1.4-1.12C465.41,157.41,466.99,155.59,465.96,153.92z"/>
		<path class="st1" d="M478.11,158.9c-0.75-1.06-1.49-2.13-2.24-3.19c-0.5-0.7-1.01-1.4-1.7-1.93c-0.36-0.28-0.77-0.51-1.21-0.64
			c-0.54-0.16-1.09-0.12-1.6-0.38c-0.95-0.48-1.83-1.06-2.81-1.49c-3.84-1.69-8.28-2.27-12.45-2.14c-0.17,0.01-0.23,0.28-0.04,0.32
			c3.98,0.79,8.09,0.97,11.84,2.67c0.67,0.31,1.3,0.68,1.91,1.08c0.03,0.09,0.08,0.18,0.18,0.25c0.67,0.48,1.42,0.84,2.1,1.3
			c0.07,0.05,0.23,0.13,0.26,0.22c-0.04-0.14-0.07,0.23-0.06,0.19c0,0.08,0,0.16,0.02,0.24c0.09,0.37,0.42,0.58,0.78,0.66
			c0.69,0.15,1.36,0.29,1.99,0.62c0.06,0.03,0.11,0.07,0.17,0.1c0.66,0.89,1.31,1.77,1.96,2.67
			C477.58,160,478.52,159.47,478.11,158.9z"/>
		<path class="st1" d="M537.35,218.47c-1.24-1.81-2.42-3.68-3.5-5.6c-0.24-0.43-0.51-0.87-0.64-1.36c-0.11-0.4-0.12-0.82-0.25-1.22
			c-0.14-0.43-0.38-0.74-0.74-0.9c-0.53-2.61-1.58-5.07-2.74-7.47c-1.32-2.75-2.66-5.5-4.01-8.24c-0.39-0.78-0.76-1.59-1.14-2.4
			c0.06-0.23-0.02-0.46-0.17-0.66c-0.09-0.12-0.2-0.23-0.3-0.34c-0.71-1.49-1.47-2.95-2.43-4.24c-0.23-0.3-0.92-0.93-0.8-1.29
			c0.05-0.13,0.34-0.25,0.43-0.41c0.11-0.21,0.13-0.52,0.06-0.75c-0.14-0.51-0.7-1.02-1.01-1.42c-0.47-0.6-0.94-1.2-1.41-1.8
			c-0.78-1-1.57-2-2.36-3c0.03-0.05,0.06-0.09,0.08-0.15c0.15-0.53-0.27-1.07-0.59-1.46c-0.1-0.12-0.22-0.22-0.33-0.34
			c0.31-0.15,0.4-0.71,0.04-0.86c-0.05-0.02-0.11-0.04-0.17-0.06c0.01-0.13-0.03-0.27-0.16-0.39c-1.79-1.56-3.99-2.63-6.18-3.49
			c-1.13-0.44-2.28-0.81-3.45-1.1c-1.18-0.29-2.41-0.44-3.58-0.79c-1.13-0.33-1.87-1.15-2.91-1.61c-1.07-0.48-2.4-0.36-3.54-0.6
			c-2.29-0.48-4.48-1.42-6.62-2.33c-1.14-0.48-2.27-0.96-3.44-1.37c-1.29-0.45-2.65-0.63-4-0.82c-0.08-0.01-0.11,0.1-0.03,0.12
			c1.45,0.42,2.81,1.14,4.17,1.77c1.32,0.61,2.63,1.26,3.95,1.88c2.61,1.23,5.21,2.15,8.1,2.42c0.87,0.08,1.38,0.51,2.08,0.97
			c0.58,0.38,1.22,0.65,1.88,0.84c1.45,0.41,2.97,0.57,4.42,0.99c0.32,0.09,0.61,0.21,0.92,0.32c-0.54,0.65,0.06,1.65,0.63,2.13
			c-2.76-0.04-5.51,0.13-8.26,0.29c-0.05,0-0.05,0.08,0,0.08c2.68,0.04,5.37,0.1,8.04,0.36c1.89,0.18,3.73,0.59,5.59,0.93
			c0.84,1.13,1.7,2.25,2.57,3.36c0.7,0.9,1.42,1.8,2.13,2.7c0.23,0.3,0.47,0.6,0.7,0.89c0.13,0.43,0.24,0.86,0.28,1.3
			c0.06,0.56,0,1.11-0.2,1.64c-0.19,0.5-0.38,0.96-0.19,1.5c0.17,0.47,0.58,0.83,0.92,1.18c0.44,0.44,0.88,0.88,1.33,1.32
			c0.76,0.75,1.5,1.58,2.31,2.29c0.7,1.42,1.39,2.85,2.09,4.26c1.18,2.39,2.41,4.75,3.59,7.14c1.15,2.34,2.19,4.73,2.71,7.29
			c0,0.02,0.01,0.03,0.02,0.04c0,0.26-0.01,0.52-0.05,0.79c-0.12,0.84-0.31,1.65-0.47,2.48c-0.17,0.86-0.45,1.7-0.69,2.55
			c-0.25,0.88-0.46,1.77-0.68,2.66c-0.01,0.03,0.04,0.04,0.05,0.01c0.68-1.83,1.3-3.69,1.97-5.52c0.25-0.67,0.48-1.38,0.63-2.11
			c0.13,0.49,0.23,1.18,0.28,1.32c0.29,0.81,0.74,1.58,1.15,2.33c0.25,0.45,0.54,0.87,0.81,1.31c0.42,0.84,0.87,1.67,1.15,2.58
			c0.37,1.19,0.57,2.43,0.64,3.68c0.14,2.66-0.26,5.53-0.99,8.08c-0.02,0.08,0.09,0.11,0.12,0.03c0.55-1.45,1.09-2.83,1.47-4.34
			c0.33-1.34,0.44-2.78,0.4-4.16c-0.02-0.77-0.11-1.62-0.26-2.47C537.14,219.34,537.63,218.87,537.35,218.47z"/>
		<path class="st1" d="M546.02,248.14c0-1.34-0.36-2.71-0.94-3.93c0.06-0.33,0.02-0.68-0.06-1.01c-0.21-0.84-0.67-1.66-1.05-2.44
			c-0.7-1.44-1.33-3.13-2.53-4.24c-1.12-1.04-2.56-1.53-4.07-1.48c-0.12,0-0.15,0.18-0.03,0.21c1.44,0.36,2.85,1.03,3.67,2.32
			c0.83,1.31,1.26,2.86,1.86,4.28c0.24,0.56,0.82,1.45,0.69,2.08c-0.06,0.29-0.31,0.52-0.43,0.8c-0.13,0.32-0.16,0.65-0.05,0.98
			c0.22,0.63,0.78,1.17,1.09,1.77c0.33,0.62,0.42,1.63,0.98,2.06c0.25,0.2,0.68,0.24,0.85-0.11
			C546.22,249.02,546.16,248.58,546.02,248.14z"/>
		<path class="st1" d="M553.01,263.25c-0.11-1.87-1.39-3.71-2.16-5.37c-0.52-1.13-0.82-2.16-1.59-3.06
			c-0.78-0.92-1.44-1.93-2.27-2.82c-1.54-1.63-3.41-3.01-5.64-3.47c-1.48-0.31-3-0.34-4.5-0.37c-1.48-0.03-3.24-0.24-4.66,0.21
			c-0.23,0.07-0.24,0.4,0,0.47c0.76,0.21,1.58,0.18,2.36,0.22c0.88,0.05,1.75,0.12,2.62,0.22c1.39,0.16,2.86,0.3,4.22,0.7
			c0.21,0.17,0.42,0.35,0.59,0.56c0.17,0.2,0.3,0.42,0.42,0.65c-0.06,0.12-0.05,0.28,0.1,0.36c0.02,0.01,0.04,0.02,0.06,0.03
			c0.02,0.05,0.05,0.1,0.06,0.15c0.11,0.44,0.04,0.93,0.31,1.34c-2.09-0.47-4.3-0.6-6.41-0.45c-0.04,0-0.04,0.06,0,0.06
			c2.78,0.11,5.49,0.35,8.01,1.64c1.07,0.55,2.1,1.19,3.17,1.74c0.29,0.15,0.61,0.32,0.95,0.47c0.87,1.22,1.71,2.47,2.49,3.75
			C551.59,261.03,552.21,262.95,553.01,263.25z"/>
		<path class="st1" d="M524.41,250.59c0.19-0.68,0.43-1.35,0.73-1.99c0.02-0.04-0.05-0.08-0.07-0.04c-0.34,0.55-0.63,1.13-0.87,1.73
			c-0.02,0-0.03-0.01-0.06-0.01c-2.77,0.69-5.46,2.18-7.93,3.56c-2.53,1.41-4.93,3.06-7.29,4.72c-0.05,0.03,0,0.12,0.06,0.09
			c2.48-1.45,5.05-2.71,7.62-4c1.26-0.64,2.53-1.28,3.81-1.89c1.2-0.57,2.43-1.14,3.58-1.83c-0.17,0.54-0.31,1.1-0.38,1.67
			c-0.03,0.25,0.35,0.28,0.38,0.03c0.1-0.68,0.24-1.36,0.42-2.02C524.4,250.61,524.4,250.6,524.41,250.59z"/>
		<path class="st1" d="M395.31,293.07c-4.37,1.34-8.85,2.42-13.28,3.56c-2.19,0.56-4.39,1.13-6.58,1.68
			c-1.1,0.27-2.18,0.59-3.28,0.88c-1.14,0.3-2.33,0.51-3.43,0.92c-0.15,0.05-0.14,0.31,0.04,0.3c1.09-0.1,2.16-0.39,3.22-0.62
			c1.11-0.24,2.23-0.44,3.33-0.7c2.26-0.53,4.5-1.11,6.74-1.72c4.48-1.23,8.87-2.69,13.31-4.05
			C395.54,293.28,395.47,293.02,395.31,293.07z"/>
		<path class="st1" d="M349.93,375.49c-4.33,1.14-8.67,2.25-12.98,3.43c-1.73,0.47-3.53,1.08-4.83,2.37
			c-0.07,0.07-0.13,0.15-0.2,0.22c-0.26-0.09-0.55-0.03-0.7,0.3c-0.21,0.48-0.33,0.96-0.4,1.44c-0.3,0.8-0.41,1.66-0.24,2.54
			c0.04,0.23,0.17,0.36,0.32,0.43c0.07,0.62,0.14,1.25,0.14,1.88c0.03,2.31-1.01,4.48-1.22,6.77c-0.08,0.85,1.25,0.85,1.33,0
			c0.2-2.15,1.12-4.16,1.21-6.32c0.02-0.52-0.03-1.06-0.1-1.61c0.03-0.05,0.06-0.08,0.08-0.14c0.18-0.58,0.17-1.18,0.09-1.78
			c-0.04-0.27-0.09-0.53-0.16-0.8c-0.04-0.16-0.21-0.49-0.15-0.65c0.05-0.12,0.33-0.29,0.44-0.37c0.23-0.18,0.45-0.37,0.68-0.55
			c0.48-0.39,0.96-0.78,1.44-1.17c0.13-0.1,0.18-0.26,0.19-0.42c1.33-0.62,2.8-0.95,4.21-1.32c3.73-0.99,7.47-1.97,11.2-2.96
			C351.11,376.56,350.76,375.27,349.93,375.49z"/>
		<path class="st1" d="M482.08,382.76c-1.14-1.01-2.68-1.49-4.06-2.08c-0.83-0.35-1.7-0.63-2.53-0.98
			c-0.65-0.27-1.42-0.81-2.14-0.78c-0.06,0-0.13,0.08-0.08,0.14c0.38,0.49,1.06,0.7,1.6,0.98c0.69,0.35,1.36,0.72,2.03,1.12
			c1.24,0.74,2.55,1.34,3.74,2.16c0.52,0.36,0.95,0.74,1.1,1.37c0.17,0.68,0.17,1.43,0.19,2.13c0.02,0.75,0,1.51-0.03,2.26
			c-0.04,0.77-0.23,1.58-0.14,2.35c0.05,0.4,0.58,0.64,0.81,0.22c0.39-0.71,0.46-1.55,0.56-2.34c0.1-0.83,0.15-1.66,0.13-2.49
			C483.23,385.41,483.23,383.77,482.08,382.76z"/>
		<path class="st1" d="M448.43,371.56c-10.66-1.58-21.36-1.74-32.09-0.92c-10.74,0.82-21.43,2.23-32.17,3.17
			c-6.03,0.53-12.06,0.98-18.1,1.37c-0.85,0.05-0.86,1.39,0,1.33c10.76-0.68,21.5-1.6,32.22-2.75c10.58-1.13,21.18-2.41,31.84-2.32
			c6,0.05,12,0.52,17.94,1.4C448.91,372.97,449.27,371.68,448.43,371.56z"/>
		<path class="st1" d="M468.59,359.49c-0.11-0.71-0.14-1.45-0.17-2.18c0.05-0.38,0.03-0.78-0.05-1.16c-0.03-0.28-0.1-0.56-0.28-0.79
			c-0.01-0.01-0.01-0.01-0.02-0.02c-0.02-0.03-0.02-0.06-0.04-0.08c-0.22-0.34-0.55-0.61-0.94-0.72c-0.3-0.08-0.69-0.05-0.93-0.28
			c-0.14-0.14-0.35-0.02-0.36,0.15c-2.56-0.85-5.14-1.62-7.77-2.22c-2.93-0.66-5.91-1.05-8.89-1.49c-3.07-0.45-6.16-1.06-9.27-1.15
			c-0.13,0-0.15,0.19-0.03,0.22c2.75,0.8,5.61,1.16,8.42,1.63c2.76,0.47,5.51,0.91,8.25,1.5c2.7,0.58,5.36,1.3,7.97,2.18
			c0.64,0.21,1.34,0.4,1.95,0.69c0.87,0.41,0.82,0.88,0.99,1.77c0.14,0.74,0.31,1.47,0.38,2.22c0.06,0.67,0.04,1.36,0.22,2.01
			c0.14,0.49,0.88,0.39,0.89-0.12C468.92,360.91,468.7,360.2,468.59,359.49z"/>
	</g>
	<g>
		
			<ellipse transform="matrix(0.7859 -0.6184 0.6184 0.7859 -68.1125 305.8111)" class="st2" cx="407.53" cy="251.26" rx="47.92" ry="43.63"/>
		<path class="st1" d="M422.21,256.62c0.28-2.2-0.15-4.16-1.29-5.88s-2.78-2.86-4.89-3.42c1.75-0.67,3.21-1.77,4.38-3.3
			c1.17-1.52,1.88-3.27,2.13-5.25c0.43-3.4-0.48-6.1-2.72-8.06c-2.02-1.76-4.92-2.65-8.62-2.71c0.39-3.01,0.77-6.02,1.15-9.03
			c-1.29,0.05-2.58,0.1-3.87,0.15c-0.38,2.98-0.76,5.97-1.15,8.95c-1.49,0.06-2.97,0.13-4.46,0.21c0.38-2.98,0.77-5.95,1.15-8.94
			c-1.29,0.07-2.58,0.15-3.87,0.23c-0.38,2.98-0.77,5.95-1.16,8.93c-3.16,0.19-6.31,0.42-9.46,0.69c-0.23,1.75-0.46,3.49-0.69,5.24
			c1.88-0.15,3.76-0.3,5.65-0.43l0,0c-1.3,9.94-2.61,19.86-3.93,29.76c-1.89,0.12-3.78,0.24-5.67,0.38
			c-0.23,1.74-0.47,3.47-0.7,5.21c3.17-0.23,6.33-0.43,9.51-0.59c-0.29,2.2-0.58,4.39-0.88,6.59c1.3-0.06,2.6-0.12,3.89-0.17
			c0.29-2.2,0.58-4.4,0.87-6.6c1.49-0.06,2.98-0.12,4.48-0.16c-0.29,2.2-0.58,4.4-0.87,6.61c1.3-0.04,2.6-0.07,3.9-0.1
			c0.29-2.21,0.58-4.43,0.87-6.65c4.6-0.19,8.34-1.18,11.13-3.1C420.04,263.16,421.74,260.32,422.21,256.62z M414.74,238.85
			c-0.27,2.12-1.12,3.69-2.55,4.72c-1.42,1.03-3.52,1.58-6.27,1.68c-1.76,0.06-3.52,0.14-5.28,0.22c0.52-3.97,1.04-7.95,1.55-11.93
			c1.82-0.09,3.64-0.17,5.46-0.24C412.86,233.1,415.24,235,414.74,238.85z M413.06,260.41c-0.69,0.91-1.71,1.57-3.06,2
			s-3.17,0.66-5.44,0.73c-2.09,0.06-4.18,0.13-6.27,0.22c0.56-4.23,1.11-8.46,1.67-12.7c2.04-0.1,4.09-0.18,6.14-0.24
			c3.28-0.1,5.56,0.34,6.84,1.3c1.27,0.96,1.76,2.6,1.47,4.91C414.19,258.24,413.75,259.5,413.06,260.41z"/>
	</g>
	<g>
		
			<linearGradient id="SVGID_1_" gradientUnits="userSpaceOnUse" x1="400.6153" y1="622.0364" x2="393.8364" y2="645.3588" gradientTransform="matrix(1 0 0 -1 0 800)">
			<stop  offset="0" style="stop-color:#000000"/>
			<stop  offset="0.0874" style="stop-color:#1C1C1C;stop-opacity:0.9188"/>
			<stop  offset="0.3436" style="stop-color:#696969;stop-opacity:0.6809"/>
			<stop  offset="0.5719" style="stop-color:#A7A7A7;stop-opacity:0.4687"/>
			<stop  offset="0.7642" style="stop-color:#D3D3D3;stop-opacity:0.2901"/>
			<stop  offset="0.913" style="stop-color:#EEEEEE;stop-opacity:0.1519"/>
			<stop  offset="1" style="stop-color:#F8F8F8;stop-opacity:0.0711"/>
		</linearGradient>
		<path class="st3" d="M400.83,168.1c0.44-0.26,0.87-0.52,1.3-0.78c0.39-0.24,0.8-0.5,1.03-0.9c0.3-0.54,0.19-1.2,0.08-1.81
			c-0.36-1.86-0.52-3.9-1.62-5.49c-0.09-0.13-0.19-0.26-0.34-0.29c-0.14-0.03-0.29,0.02-0.42,0.08c-0.93,0.43-1.86,1.2-1.87,2.22
			c0,0.22,0.04,0.46-0.06,0.65c-0.06,0.12-0.17,0.21-0.29,0.3c-1.14,0.85-2.01,1.33-2.97,2.44c-0.92,1.07-1.66,2.35-2.46,3.51
			c-0.22,0.32-0.45,0.65-0.64,0.99c-0.39,0.7-0.63,1.5-0.64,2.3c0,0.23,0.03,0.49,0.21,0.62c0.2,0.14,0.47,0.07,0.7-0.02
			c0.73-0.28,1.32-0.77,2.02-1.08c0.5-0.22,1.06-0.27,1.58-0.46C397.95,169.73,399.41,168.94,400.83,168.1z"/>
		
			<linearGradient id="SVGID_00000087379546499728391200000008119558837969313699_" gradientUnits="userSpaceOnUse" x1="432.6211" y1="637.7391" x2="430.349" y2="660.8928" gradientTransform="matrix(1 7.523686e-03 7.523686e-03 -1 23.4367 799.9702)">
			<stop  offset="0" style="stop-color:#000000"/>
			<stop  offset="0.0874" style="stop-color:#1C1C1C;stop-opacity:0.9188"/>
			<stop  offset="0.3436" style="stop-color:#696969;stop-opacity:0.6809"/>
			<stop  offset="0.5719" style="stop-color:#A7A7A7;stop-opacity:0.4687"/>
			<stop  offset="0.7642" style="stop-color:#D3D3D3;stop-opacity:0.2901"/>
			<stop  offset="0.913" style="stop-color:#EEEEEE;stop-opacity:0.1519"/>
			<stop  offset="1" style="stop-color:#F8F8F8;stop-opacity:0.0711"/>
		</linearGradient>
		<path style="fill:url(#SVGID_00000087379546499728391200000008119558837969313699_);" d="M464.75,153.01
			c-0.51-0.79-1.29-1.35-2.07-1.86c-2.44-1.6-5.29-2.94-8.18-2.51c-0.11,0.02-0.22,0.04-0.3,0.1c-0.23,0.17-0.15,0.53-0.04,0.79
			c1.28,3.35,2.49,6.75,4.15,9.94c0.08,0.16,0.18,0.33,0.35,0.38c0.12,0.04,0.24,0.01,0.36-0.02c1.41-0.37,2.66-1.16,3.82-2.03
			c0.61-0.45,1.21-0.94,1.66-1.55C465.21,155.28,465.43,154.05,464.75,153.01z"/>
		
			<linearGradient id="SVGID_00000119810725829562898500000011862854001339009983_" gradientUnits="userSpaceOnUse" x1="317.4084" y1="564.2418" x2="322.3958" y2="529.2352" gradientTransform="matrix(1 0 0 -1 0 800)">
			<stop  offset="0" style="stop-color:#000000"/>
			<stop  offset="0.0874" style="stop-color:#1C1C1C;stop-opacity:0.9188"/>
			<stop  offset="0.3436" style="stop-color:#696969;stop-opacity:0.6809"/>
			<stop  offset="0.5719" style="stop-color:#A7A7A7;stop-opacity:0.4687"/>
			<stop  offset="0.7642" style="stop-color:#D3D3D3;stop-opacity:0.2901"/>
			<stop  offset="0.913" style="stop-color:#EEEEEE;stop-opacity:0.1519"/>
			<stop  offset="1" style="stop-color:#F8F8F8;stop-opacity:0.0711"/>
		</linearGradient>
		<path style="fill:url(#SVGID_00000119810725829562898500000011862854001339009983_);" d="M313.27,248.75
			c0.6-0.7,1.24-1.51,2.15-1.67c0.43-0.07,0.87,0.01,1.29,0.11c3.95,0.93,7.52,3.35,9.84,6.67c0.53,0.76,1,1.57,1.46,2.37
			c2.91,5.1,5.6,10.56,5.86,16.42c0.02,0.45,0.01,0.95-0.29,1.28c-0.21,0.24-0.53,0.35-0.83,0.46c-1.02,0.37-2.01,0.82-2.95,1.34
			c-0.6,0.33-1.19,0.69-1.67,1.18c-0.75,0.76-1.14,1.74-1.41,2.75c-0.16,0.63-0.09,2.29-0.64,2.63c-1.19-3.12-2.07-6.49-2.82-9.74
			c-0.57-2.44-1-4.94-2-7.24s-2.66-4.44-4.98-5.38c-0.4-0.16-0.83-0.29-1.26-0.2c-0.36,0.07-0.68,0.3-1.05,0.37
			c-1.03,0.21-2.16-2.06-2.7-2.74c-0.85-1.06-1.71-2.11-2.38-3.29c-0.77-1.35,0.07-1.64,1.17-2.41
			C311.25,250.83,312.33,249.85,313.27,248.75z"/>
		
			<linearGradient id="SVGID_00000075128302952061709850000018213925516038257318_" gradientUnits="userSpaceOnUse" x1="311.9955" y1="586.6818" x2="342.1474" y2="569.9531" gradientTransform="matrix(1 0 0 -1 0 800)">
			<stop  offset="0" style="stop-color:#000000"/>
			<stop  offset="0.0874" style="stop-color:#1C1C1C;stop-opacity:0.9188"/>
			<stop  offset="0.3436" style="stop-color:#696969;stop-opacity:0.6809"/>
			<stop  offset="0.5719" style="stop-color:#A7A7A7;stop-opacity:0.4687"/>
			<stop  offset="0.7642" style="stop-color:#D3D3D3;stop-opacity:0.2901"/>
			<stop  offset="0.913" style="stop-color:#EEEEEE;stop-opacity:0.1519"/>
			<stop  offset="1" style="stop-color:#F8F8F8;stop-opacity:0.0711"/>
		</linearGradient>
		<path style="fill:url(#SVGID_00000075128302952061709850000018213925516038257318_);" d="M346.95,218.09
			c-0.2,2.03-0.59,4.04-0.98,6.05c-0.64,3.31-1.29,6.62-1.93,9.93c-1.65-3.54-2.84-7.29-3.52-11.14c-0.23-1.29-0.5-2.74-1.59-3.46
			c-0.21-0.14-0.45-0.24-0.7-0.19c-0.29,0.06-0.49,0.32-0.65,0.56c-1.44,2.09-2.57,4.43-3.42,6.82c-0.36,1.02-0.52,2.03-1.03,3.01
			c-0.54,1.04-1.24,1.98-1.75,3.03c-0.15,0.31-0.28,0.64-0.3,0.98c-0.13,2.1,1.69,3.93,1.98,5.98c0.14,1.01-0.03,2.06,0.14,3.07
			c0.32,1.99,1.79,3.15,2.99,4.6c-0.86,0.64-4.45-3.19-5.12-3.91c-0.3-0.32-0.66-0.68-1.1-0.65c-0.61,0.04-0.9,0.76-1,1.37
			c-0.26,1.56-0.22,3.16,0.14,4.7c0.17,0.73,0.41,1.47,0.32,2.21c-0.08,0.74-0.61,1.51-1.35,1.57c-0.97,0.07-1.88-1.05-2.69-1.44
			c-1.04-0.5-2.18-1-3.28-1.38c-0.69-0.23-1.4-0.43-2-0.83c-0.6-0.41-1.08-1.09-1.01-1.81c0.05-0.52,0.37-0.98,0.67-1.41
			c3.81-5.53,6.2-12.11,8.97-18.19c2.25-4.95,5.32-9.42,7.42-14.45c1.26-3.01,3.58-4.91,5.6-7.42c0.63-0.79,1.22-1.62,1.7-2.51
			c0.35-0.64,0.63-1.66,1.2-2.16c0.67-0.59,0.54-0.57,0.93,0.12c0.48,0.84,0.47,2.55,0.63,3.5
			C346.94,209.07,347.4,213.59,346.95,218.09z"/>
		
			<linearGradient id="SVGID_00000090991368295982894140000000617713745275100562_" gradientUnits="userSpaceOnUse" x1="331.3795" y1="632.4828" x2="378.867" y2="606.8431" gradientTransform="matrix(1 0 0 -1 0 800)">
			<stop  offset="0" style="stop-color:#000000"/>
			<stop  offset="0.0874" style="stop-color:#1C1C1C;stop-opacity:0.9188"/>
			<stop  offset="0.3436" style="stop-color:#696969;stop-opacity:0.6809"/>
			<stop  offset="0.5719" style="stop-color:#A7A7A7;stop-opacity:0.4687"/>
			<stop  offset="0.7642" style="stop-color:#D3D3D3;stop-opacity:0.2901"/>
			<stop  offset="0.913" style="stop-color:#EEEEEE;stop-opacity:0.1519"/>
			<stop  offset="1" style="stop-color:#F8F8F8;stop-opacity:0.0711"/>
		</linearGradient>
		<path style="fill:url(#SVGID_00000090991368295982894140000000617713745275100562_);" d="M353.5,223.74
			c-0.97-2.32-1.3-4.92-0.93-7.41c0.04-0.28,0.1-0.58,0.3-0.78c0.2-0.2,0.49-0.25,0.77-0.3c3.58-0.54,7.23,0.12,10.81,0.67
			c8.9,1.36,17.9,2.01,26.9,1.94c-2.43-1.69-4.29-4.05-6.12-6.38c-2.86-3.64-5.71-7.28-8.57-10.92c-1.39-1.77-2.82-3.63-3.23-5.84
			c-0.09-0.5-0.13-1.04,0.08-1.51c0.33-0.75,1.15-1.12,1.91-1.41c4.15-1.62,8.52-3.01,11.9-5.92c0.6-0.52,1.18-1.11,1.38-1.88
			c0.59-2.27-2.45-4.33-1.84-6.6c1.13-0.14,2.29-0.28,3.3-0.8c1.01-0.52,1.86-1.51,1.89-2.65c0.02-0.86-0.41-1.67-0.44-2.53
			c-0.02-0.71,0.24-1.39,0.49-2.05c0.77-2,1.61-4.11,3.33-5.39c0.8-0.6,1.76-0.98,2.52-1.63c0.77-0.65,1.33-1.7,0.98-2.64
			c-3.56,1.89-6.93,4.11-10.29,6.33c-10.16,6.71-20.32,13.42-30.22,20.51c-3.64,2.61-7.25,5.27-10.73,8.09
			c-0.67,0.55-1.36,1.12-1.76,1.9c-0.44,0.88-0.45,1.9-0.42,2.89c0.09,2.55,0.63,4.96,0.98,7.47c0.25,1.87,0.13,3.59,0.63,5.48
			C348.25,216.62,350.46,220.57,353.5,223.74z"/>
		
			<linearGradient id="SVGID_00000062170991697802767250000009516975083090856626_" gradientUnits="userSpaceOnUse" x1="327.4732" y1="485.8622" x2="329.9848" y2="458.0777" gradientTransform="matrix(1 0 0 -1 0 800)">
			<stop  offset="0" style="stop-color:#000000"/>
			<stop  offset="0.0874" style="stop-color:#1C1C1C;stop-opacity:0.9188"/>
			<stop  offset="0.3436" style="stop-color:#696969;stop-opacity:0.6809"/>
			<stop  offset="0.5719" style="stop-color:#A7A7A7;stop-opacity:0.4687"/>
			<stop  offset="0.7642" style="stop-color:#D3D3D3;stop-opacity:0.2901"/>
			<stop  offset="0.913" style="stop-color:#EEEEEE;stop-opacity:0.1519"/>
			<stop  offset="1" style="stop-color:#F8F8F8;stop-opacity:0.0711"/>
		</linearGradient>
		<path style="fill:url(#SVGID_00000062170991697802767250000009516975083090856626_);" d="M324.62,322.85
			c-0.04,0.44,0.09,0.88,0.23,1.3c0.35,1.09,0.83,2.32,1.91,2.69c0.65,0.22,1.37,0.06,2.04,0.21c0.13,0.03,0.28,0.07,0.41,0.02
			c0.14-0.05,0.22-0.2,0.29-0.34c0.69-1.49,1.23-3.06,1.59-4.66c0.18-0.81,0.3-1.62,0.42-2.43c0.07-0.44,0.26-1.43-0.58-1.19
			c-0.18,0.05-0.33,0.17-0.48,0.28c-1.12,0.82-2.29,1.57-3.5,2.25C326.21,321.38,324.72,321.87,324.62,322.85z"/>
		
			<linearGradient id="SVGID_00000056408046368641615410000004339537644848305339_" gradientUnits="userSpaceOnUse" x1="319.7353" y1="458.0435" x2="327.1293" y2="476.7583" gradientTransform="matrix(1 0 0 -1 0 800)">
			<stop  offset="0" style="stop-color:#000000"/>
			<stop  offset="0.0874" style="stop-color:#1C1C1C;stop-opacity:0.9188"/>
			<stop  offset="0.3436" style="stop-color:#696969;stop-opacity:0.6809"/>
			<stop  offset="0.5719" style="stop-color:#A7A7A7;stop-opacity:0.4687"/>
			<stop  offset="0.7642" style="stop-color:#D3D3D3;stop-opacity:0.2901"/>
			<stop  offset="0.913" style="stop-color:#EEEEEE;stop-opacity:0.1519"/>
			<stop  offset="1" style="stop-color:#F8F8F8;stop-opacity:0.0711"/>
		</linearGradient>
		<path style="fill:url(#SVGID_00000056408046368641615410000004339537644848305339_);" d="M322.06,325.53
			c-0.01,0.58,0.13,1.16,0.28,1.72c0.21,0.79,0.47,1.6,1.04,2.18c0.48,0.49,1.14,0.76,1.79,1.02c0.75,0.3,1.5,0.61,2.3,0.75
			c0.25,0.04,0.53,0.07,0.74-0.07c0.25-0.16,0.34-0.48,0.4-0.77c0.19-0.93,0.31-1.86,0.37-2.81c0-0.04,0.01-0.09-0.01-0.13
			c-0.04-0.12-0.18-0.17-0.3-0.2c-0.62-0.15-1.26-0.27-1.85-0.52c-0.59-0.24-1.15-0.63-1.46-1.19c-0.42-0.77-0.19-2.42-1.44-2.25
			C322.79,323.42,322.08,324.46,322.06,325.53z"/>
		
			<linearGradient id="SVGID_00000043432349724983007890000007664132428552536238_" gradientUnits="userSpaceOnUse" x1="258.0634" y1="464.8725" x2="374.6745" y2="482.5707" gradientTransform="matrix(1 0 0 -1 0 800)">
			<stop  offset="0" style="stop-color:#000000"/>
			<stop  offset="0.0874" style="stop-color:#1C1C1C;stop-opacity:0.9188"/>
			<stop  offset="0.3436" style="stop-color:#696969;stop-opacity:0.6809"/>
			<stop  offset="0.5719" style="stop-color:#A7A7A7;stop-opacity:0.4687"/>
			<stop  offset="0.7642" style="stop-color:#D3D3D3;stop-opacity:0.2901"/>
			<stop  offset="0.913" style="stop-color:#EEEEEE;stop-opacity:0.1519"/>
			<stop  offset="1" style="stop-color:#F8F8F8;stop-opacity:0.0711"/>
		</linearGradient>
		<path style="fill:url(#SVGID_00000043432349724983007890000007664132428552536238_);" d="M332.07,314.05
			c-0.43,3.08-0.75,6.29-1.49,9.31c-0.71,2.89-2.17,6.17-2.34,9.11c-0.09,1.6,0.47,3.5,0.69,5.1c0.24,1.79,0.48,3.59,0.73,5.38
			c0.26,1.92,0.52,3.84,0.6,5.77c0.09,2.12-0.03,4.24-0.08,6.36c-0.16,6.87,0.44,13.73,0.69,20.59c0.13,3.5,0.16,7.01-0.05,10.51
			c-0.11,1.74-0.27,3.48-0.52,5.21c-0.33,2.29-0.75,4.59,1.36,6.17c1.63,1.21,3.8,0.25,5.56-0.31c4.79-1.51,9.18-4.02,13.78-5.98
			c4.66-1.98,9.67-2.96,14.64-3.93c2.16-0.42,4.33-0.84,6.52-1.11c1.98-0.24,3.98-0.35,5.97-0.46c5.78-0.32,11.55-0.63,17.33-0.95
			c0.25-0.48-0.38-0.93-0.9-1.09c-8.17-2.57-16.96-2.4-25.44-1.3c-8.49,1.11-16.84,3.12-25.34,4.19c-2.13,0.27-4.43,0.44-6.48-0.37
			c-2.12-0.84-2.64-1.8-3.48-3.9c-0.1-0.25-0.2-0.52-0.17-0.8c0.09-0.67,0.88-0.97,1.54-1.09c6.9-1.3,13.73-1.1,20.4-3.77
			c1.88-0.75,3.64-1.71,5.47-2.57c1.46-0.69,4.5-2.71,6.09-2.61c-4.63-0.29-9.28,0.01-13.9,0.47c-1.07,0.11-2.25,0.2-3.12-0.43
			c-0.43-0.31-0.74-0.77-1.08-1.18c-1.52-1.84-3.42-2.35-5.6-2.9c-2.69-0.68-5.35-2.27-7.86-3.48c-0.32-0.15-0.65-0.32-0.86-0.6
			c-0.38-0.52-0.23-1.25,0.01-1.85c0.29-0.71,0.69-1.37,1.18-1.96c0.36-0.42,0.76-0.81,1.02-1.3c0.26-0.49,0.35-1.12,0.06-1.58
			c-0.13-0.21-0.35-0.41-0.32-0.66c0.02-0.19,0.19-0.33,0.34-0.45c0.61-0.48,1.22-0.96,1.83-1.44c0.29-0.23,0.6-0.48,0.75-0.82
			s0.12-0.72,0.09-1.09c0-2.86-0.9-5.52-1.3-8.3c-0.02-0.12-0.03-0.24-0.01-0.36c0.04-0.2,0.19-0.37,0.34-0.5
			c0.55-0.49,1.25-0.77,1.84-1.21c0.5-0.37,0.9-0.84,1.31-1.31c3.38-3.9,6.77-7.83,9.51-12.2c-3.3,2.1-6.51,4.34-9.49,6.87
			c-1.07,0.91-7.36,7.17-6.91,2.31c0.07-0.78,0.44-1.49,0.8-2.18c0.8-1.53,1.6-3.06,2.4-4.58c2.35-4.48,4.69-8.96,7.04-13.45
			c1.77-3.37,4.46-7.35,7.62-9.59c2.06-1.45,4.5-2.23,6.9-2.99c19.86-6.27,39.73-12.54,59.59-18.81
			c-20.28,3.9-40.23,9.28-60.17,14.65c-1.07-5.06-1.58-10.24-1.53-15.42c0.06-6.15,0.7-12.99-3.17-17.77
			c9.81-9.19,20.49-17.44,31.86-24.61c-5.79,2.33-11.56,4.7-17.32,7.08c-3,1.24-6.01,2.48-9.01,3.71
			c-6.61,2.72-13.22,5.45-19.83,8.17c-1.65-4.42-3.75-8.67-6.25-12.66c0.29,6.81,0.87,13.56,0.97,20.4
			c0.13,9.58-0.21,19.17-1.02,28.73C333.4,303.52,332.81,308.79,332.07,314.05z"/>
		
			<linearGradient id="SVGID_00000006677579885952933680000005172268825061135551_" gradientUnits="userSpaceOnUse" x1="409.6313" y1="482.089" x2="418.9491" y2="520.7191" gradientTransform="matrix(1 0 0 -1 0 800)">
			<stop  offset="0" style="stop-color:#000000"/>
			<stop  offset="0.0874" style="stop-color:#1C1C1C;stop-opacity:0.9188"/>
			<stop  offset="0.3436" style="stop-color:#696969;stop-opacity:0.6809"/>
			<stop  offset="0.5719" style="stop-color:#A7A7A7;stop-opacity:0.4687"/>
			<stop  offset="0.7642" style="stop-color:#D3D3D3;stop-opacity:0.2901"/>
			<stop  offset="0.913" style="stop-color:#EEEEEE;stop-opacity:0.1519"/>
			<stop  offset="1" style="stop-color:#F8F8F8;stop-opacity:0.0711"/>
		</linearGradient>
		<path style="fill:url(#SVGID_00000006677579885952933680000005172268825061135551_);" d="M431.1,278.49
			c3.2-0.8,6.41-1.6,9.47-2.82c9.21-3.66,16.8-10.91,26.3-13.72c-1.59-2.54-0.71-5.89,0.62-8.58c1.33-2.69,3.1-5.32,3.22-8.32
			c-19.05,12.87-41.43,19.77-63.68,25.56c6.1,0.29,12.2,0.58,18.31,0.87c-13.67,5.95-28.4,8.97-42.08,14.9
			c-3.81,1.65-7.76,3.45-11.17,5.83c15.13-2.23,30.26-6.59,45.1-10.25C421.83,280.81,426.46,279.65,431.1,278.49z"/>
		
			<linearGradient id="SVGID_00000070101245692371942100000000340753480673866378_" gradientUnits="userSpaceOnUse" x1="587.7195" y1="609.1926" x2="481.8682" y2="577.8185" gradientTransform="matrix(1 0 0 -1 0 800)">
			<stop  offset="0" style="stop-color:#000000"/>
			<stop  offset="0.0874" style="stop-color:#1C1C1C;stop-opacity:0.9188"/>
			<stop  offset="0.3436" style="stop-color:#696969;stop-opacity:0.6809"/>
			<stop  offset="0.5719" style="stop-color:#A7A7A7;stop-opacity:0.4687"/>
			<stop  offset="0.7642" style="stop-color:#D3D3D3;stop-opacity:0.2901"/>
			<stop  offset="0.913" style="stop-color:#EEEEEE;stop-opacity:0.1519"/>
			<stop  offset="1" style="stop-color:#F8F8F8;stop-opacity:0.0711"/>
		</linearGradient>
		<path style="fill:url(#SVGID_00000070101245692371942100000000340753480673866378_);" d="M436.43,177.1
			c-1.65,0.88-3.29,1.76-4.94,2.64c-2.76,3.89-6.27,7.25-10.28,9.83c10.21,0.51,20.47-0.12,30.54-1.87
			c3.63-0.63,8.66-0.57,9.51,3.01c0.57,2.4-1.58,4.67,0.05,7.07c0.88,1.29,2.49,1.81,3.94,2.39s3,1.48,3.35,3
			c0.42,1.83-1.12,3.51-2.65,4.61c-5.64,4.03-12.71,5.35-19.35,7.34c-7.07,2.13-13.88,5.13-20.21,8.92
			c11.54-0.36,23.03-1.52,34.52-2.68c-1.99,3.65-5.44,6.35-9.19,8.16c-3.75,1.82-7.82,2.84-11.86,3.85
			c-4.09,1.02-8.19,2.05-12.28,3.07c-3.3,0.82-6.6,1.65-9.93,2.31c-2.49,0.49-5.1,0.89-7.38,2.08c-0.99,0.52-1.66,1.29-2.67,1.77
			c-1.39,0.66-2.84,1.24-4.26,1.84c23.55-1.9,46.85-7.01,69.03-15.16c3.38-1.24,7.35-2.51,10.4-0.59c0.77,0.48,0.75,4.73,0.79,5.62
			c0.11,1.98,0.04,3.96-0.2,5.93c-0.24,1.96-0.8,3.8-1.18,5.72c-0.35,1.74-0.48,3.43-1.32,5.04c-1.02,1.98-2.74,3.5-4.42,4.97
			c-3.94,3.45-7.88,6.89-11.82,10.34c2.31-1.57,4.77-3.19,7.56-3.39c1.63-0.12,3.26,0.27,4.89,0.27c2.4,0,4.71-0.82,7.08-1.19
			c2.03-0.31,4.09-0.28,6.14-0.1c1.57,0.14,4.38,0.06,5.65,1c2.29,1.68,1.99,6.05,1.5,8.42c-0.48,2.3-1.42,4.48-2.31,6.65
			c-0.3,0.75-0.61,1.52-0.59,2.33c0.01,0.55,0.17,1.09,0.35,1.61c2.02,5.81,7.91,12.61,14.81,11.28c0.22-0.04,0.45-0.11,0.57-0.29
			c0.18-0.29-0.03-0.65-0.23-0.92c-1.77-2.4-3.54-4.81-5.31-7.21c-0.84-1.15-1.73-2.43-1.61-3.85c0.13-1.58,1.45-2.76,2.73-3.69
			c5.2-3.76,11.29-6.09,16.69-9.55c1.32-0.85,2.6-1.76,3.92-2.59c1.46-0.93,2.99-1.77,4.55-2.51c2.12-1.01,4.36-1.84,6.68-2.21
			c2.82-0.45,5.54,0.65,7.33,2.84c0.85,1.04,1.7,2.08,2.43,3.21c1.6,2.5,2.54,5.37,3.9,8.01c0.11,0.22,0.24,0.45,0.46,0.58
			c0.32,0.18,0.72,0.07,1.04-0.1c1.31-0.68,2-2.2,2.09-3.68c0.09-1.47-0.32-2.92-0.72-4.34c-0.42-1.49-0.85-2.98-1.27-4.46
			c-0.24-0.84-0.48-1.69-0.8-2.51c-1.05-2.75-2.81-5.46-4.74-7.66c-1.81-2.06-3.83-3.97-6.19-5.35c-0.72-0.43-1.52-0.84-1.93-1.57
			c-0.27-0.48-0.34-1.04-0.4-1.58c-0.23-2.04-0.37-4.1-0.4-6.15c-0.64-0.19-1.37-0.08-1.93,0.28c-0.16,0.1-0.31,0.23-0.5,0.26
			c-0.43,0.07-0.74-0.39-0.94-0.79c-0.79-1.61-1.59-3.5-0.83-5.13c0.26-0.55,0.67-1.01,0.99-1.53c0.5-0.81,0.76-1.75,0.96-2.68
			c0.47-2.09,0.75-4.23,0.84-6.38c0.07-1.69-0.38-3.24-1.07-4.8c-0.57-1.29-1.48-2.4-2.15-3.65c-0.58-1.08-0.96-2.26-1.56-3.33
			s-1.46-2.07-2.63-2.45c-0.33-0.11-0.67-0.16-0.99-0.29c-0.84-0.34-1.38-1.16-1.87-1.93c-0.51-0.81-0.59-1.43-0.81-2.3
			c-0.24-0.93-0.98-1.9-1.44-2.75c-1.01-1.9-2-3.82-2.97-5.75c-0.48-0.95-0.86-2.13-1.47-2.99c-0.17-0.23-2.45-1.69-2.46-1.26
			c0.01-0.87-0.49-1.64-0.85-2.43s-0.58-1.78-0.06-2.48c0.36-0.48,1.02-0.74,1.23-1.3c0.2-0.53-0.1-1.15-0.57-1.47
			c-0.47-0.32-1.06-0.41-1.62-0.44c-2.22-0.12-4.47,0.49-6.33,1.71c-1.24,0.82-2.3,1.88-3.32,2.97c-2.35,2.49-4.57,5.1-6.66,7.82
			c-0.72,0.94-1.44,1.92-1.69,3.08s0.13,2.53,1.17,3.09c-3.5,5.31-6.82,10.73-9.97,16.25c0.89-2.32,0.81-4.95,1.86-7.2
			c0.56-1.2,1.42-2.23,2.13-3.35c2.82-4.44,3.19-9.93,4.28-15.07c0.11-0.53,0.23-1.07,0.47-1.56c0.3-0.64,0.78-1.17,1.27-1.68
			c3.25-3.33,7.39-5.64,10.99-8.59c0.48-0.39,0.96-0.81,1.25-1.36c0.87-1.7-0.16-2.68-1.79-3.08c-0.51-0.12-1.04-0.09-1.56-0.06
			c-2.03,0.11-4.06,0.23-6.09,0.34c-0.85,0.05-1.74,0.09-2.54-0.23c-0.65-0.26-1.2-0.76-1.52-1.39c1.54-0.76,3.25-1.19,4.96-1.24
			c0.69-0.02,1.5-0.05,1.87-0.62c-1.36-0.27-2.71-0.53-4.07-0.8c-0.85-0.17-2.88-0.94-3.66-0.49c-0.4,0.23-0.68,0.62-0.99,0.97
			c-1.78,2-4.61,2.63-7.27,2.97c-2.65,0.34-5.45,0.53-7.72,1.95c0.18-0.71,0.86-1.16,1.5-1.51c2.62-1.44,5.46-2.42,8.17-3.68
			c0.11-0.95,0.82-1.7,1.7-2c-0.57-0.76-1.84-1.16-2.6-1.73c-1.27-0.94-2.52-1.9-3.76-2.88c-1.43-1.14-2.85-2.75-4.59-3.35
			c-1.66-0.56-2.44-0.94-3.31-2.61c-0.91-1.76-1.53-3.32-3.16-4.49c-1.46-1.05-3.2-1.63-4.87-2.24c-1.81-0.66-3.66-1.24-5.52-1.74
			c-1.48-0.39-3.27-1.28-4.79-0.71c1.47,2.31,5.89,2.48,5.74,5.76c-0.12,2.72-2.49,5.23-4.29,7.06c-2.5,2.56-5.55,4.55-8.69,6.23
			c-5.18,2.78-10.76,4.9-15.48,8.41C436.59,176.92,436.81,177.15,436.43,177.1z"/>
		
			<linearGradient id="SVGID_00000066474411568635888120000011114246185216205969_" gradientUnits="userSpaceOnUse" x1="554.9162" y1="473.413" x2="458.5933" y2="468.6803" gradientTransform="matrix(1 0 0 -1 0 800)">
			<stop  offset="0" style="stop-color:#000000"/>
			<stop  offset="0.0874" style="stop-color:#1C1C1C;stop-opacity:0.9188"/>
			<stop  offset="0.3436" style="stop-color:#696969;stop-opacity:0.6809"/>
			<stop  offset="0.5719" style="stop-color:#A7A7A7;stop-opacity:0.4687"/>
			<stop  offset="0.7642" style="stop-color:#D3D3D3;stop-opacity:0.2901"/>
			<stop  offset="0.913" style="stop-color:#EEEEEE;stop-opacity:0.1519"/>
			<stop  offset="1" style="stop-color:#F8F8F8;stop-opacity:0.0711"/>
		</linearGradient>
		<path style="fill:url(#SVGID_00000066474411568635888120000011114246185216205969_);" d="M443.4,388
			c11.68,1.81,23.14,4.92,34.83,6.73c1.07,0.16,2.24,0.3,3.15-0.28c1.19-0.75,1.44-2.36,1.56-3.77c0.89-10.7,1.29-21.44,1.2-32.17
			c-0.02-2.55-0.07-5.1,0.04-7.65c0.13-2.85,0.46-5.69,0.79-8.53c0.44-3.76,1.41-7.83,1.35-11.61c-0.02-1.43-0.35-2.47,0.04-3.95
			c0.4-1.54,1.08-2.99,1.69-4.46c1.42-3.41,2.72-6.88,3.88-10.39c1.09-3.28,2.46-6.43,3.48-9.74c0.36-1.16,0.67-2.33,0.97-3.51
			c0.5-1.9,1-3.8,1.5-5.7c0.38-1.45,1.21-3.18,0.31-4.62c-0.73-1.17-1.55-2.03-2.93-2.16c-1.78-0.17-3.47-1.14-4.51-2.6
			c-0.24-0.33-0.45-0.7-0.56-1.09c-0.17-0.61-0.11-1.25-0.04-1.88c0.47-4.54,0.98-9.16,0.13-13.64c-0.05-0.24-0.1-0.5-0.27-0.68
			c-0.23-0.26-0.61-0.3-0.96-0.33c-3.63-0.29-7.53-0.55-11.16-0.12c-0.56,0.07-1.12,0.16-1.66,0.28c-1.03,0.23-2.03,0.6-3.03,0.97
			c-2.76,1.02-5.51,2.05-8.27,3.07c-10.78,4.01-21.56,8.01-32.34,12.02c-12.21,4.54-24.42,9.08-36.63,13.61
			c-3.53,1.31-7.05,2.62-10.57,3.95c5.85-0.69,11.69-1.47,17.47-2.63c9.25-1.86,18.05-4.64,26.77-7.99c0.48,1.4-0.84,2.71-2.01,3.6
			c-18.86,14.34-37.73,28.69-56.59,43.03c3.53-0.41,6.84-1.89,10.08-3.35c5.24-2.36,10.49-4.72,15.38-7.74
			c14.6-9.01,25.49-23.57,41.03-30.84c3.85-1.8,7.93-3.12,12.11-3.91c0.9-0.17,1.91-0.38,2.43-1.14c0.45-0.66,0.38-1.54,0.61-2.3
			c0.55-1.91,2.71-2.79,4.62-3.32c3.16-0.86,5.81-1.26,9.01-0.93c2.29,0.23,8.42,1.87,10.38,0.86c-4.62,2.36-9.24,4.73-13.85,7.09
			c3.55-0.09,7.11,0.16,10.61,0.76c0.14,4.47-0.21,8.42,0.51,12.75c0.27,1.64-0.13,3.66-1.66,4.32c-0.73,0.32-1.56,0.25-2.35,0.17
			c-6.26-0.6-12.49-1.51-18.66-2.72c8.44,4.88,17.06,9.45,25.83,13.71c1.23,1.46,1.96,3.33,2.03,5.24c0.1,2.51-0.82,5.31,0.63,7.37
			c0.85,1.21,2.25,2.13,0.75,3.3c-1.43,1.12-3.41,1.4-5.17,1.21c-1.98-0.22-3.86-0.97-5.77-1.55s-3.95-1-5.89-0.54
			c1.63,0.87,3.17,1.93,4.57,3.15c0.18,0.15,0.36,0.32,0.59,0.38c0.28,0.08,0.59,0,0.87-0.07c1.53-0.34,3.18-0.11,4.56,0.64
			c1.67,2.85,6.51,6.65,3.21,9.95c-0.86,0.86-1.47,1.73-2.02,2.79c-0.57,1.08-1.46,1.79-2.36,2.61c-0.34,0.31-0.7,0.64-1.14,0.79
			c-0.42,0.15-0.89,0.13-1.34,0.09c-5.4-0.48-10.36-3.19-15.71-4.04c-3.95-0.63-8.06-0.24-11.93-1.27c2.6,0.84,4.51,3.1,7.01,4.21
			c1.73,0.77,3.67,0.96,5.41,1.71c1.34,0.58,2.5,1.48,3.66,2.37c2.03,1.56-1.12,2.02-2.19,2.29c-14.03,3.56-28.96,4.51-42.07,11.12
			c0.81-0.41,2.71-0.11,3.63-0.15c1.3-0.05,2.61-0.09,3.91-0.12c2.61-0.06,5.23-0.07,7.84,0c4.61,0.14,9.67,0.32,14,2.06
			c-0.43,0.14-0.76,0.56-0.79,1.02c-6.76,1.45-13.63,2.35-20.53,2.68c1.68,0.87,3.61,1.08,5.49,1.28c2.51,0.26,5.34,1.01,7.77,0.54
			c0.59-0.11,1.4,0.26,1.23,0.83c-0.06,0.19-0.21,0.33-0.37,0.46c-2.09,1.7-4.85,2.25-7.46,2.9c-1.92,0.48-3.82,1.03-5.69,1.66
			c-0.39,0.13-0.78,0.27-1.09,0.54c-0.3,0.27-0.5,0.71-0.36,1.09c0.38,1.1,6.67,0.74,7.83,0.82c2.99,0.2,5.97,0.47,8.94,0.84
			c11.96,1.49,23.79,3.11,35.48,6.21c1.59,0.42,3.22,0.86,4.84,0.65"/>
		
			<linearGradient id="SVGID_00000007412350254830760450000006833563407427620026_" gradientUnits="userSpaceOnUse" x1="549.913" y1="478.7096" x2="510.449" y2="547.2886" gradientTransform="matrix(1 0 0 -1 0 800)">
			<stop  offset="0" style="stop-color:#000000"/>
			<stop  offset="0.0874" style="stop-color:#1C1C1C;stop-opacity:0.9188"/>
			<stop  offset="0.3436" style="stop-color:#696969;stop-opacity:0.6809"/>
			<stop  offset="0.5719" style="stop-color:#A7A7A7;stop-opacity:0.4687"/>
			<stop  offset="0.7642" style="stop-color:#D3D3D3;stop-opacity:0.2901"/>
			<stop  offset="0.913" style="stop-color:#EEEEEE;stop-opacity:0.1519"/>
			<stop  offset="1" style="stop-color:#F8F8F8;stop-opacity:0.0711"/>
		</linearGradient>
		<path style="fill:url(#SVGID_00000007412350254830760450000006833563407427620026_);" d="M502.25,291.43
			c-0.63-0.85-1.59-1.11-2.47-1.59c-0.94-0.5-1.52-1.4-2.37-2.01c-0.58-0.42-1.27-0.65-1.92-0.95c-1.38-0.62-2.78-1.5-3.95-2.44
			c-0.39-0.31-0.79-0.64-1-1.08c-0.22-0.46-0.23-0.98-0.22-1.49c0.02-3.89,0.18-7.77,0.5-11.65c0.03-0.39,0.07-0.78,0.21-1.14
			c0.17-0.43,0.49-0.78,0.8-1.12c1.23-1.33,2.51-2.66,4.09-3.55c1.21-0.68,2.65-1.12,4.05-0.97c1.51,0.16,2.75,0.44,4.24-0.21
			c0.61-0.27,1.18-0.64,1.74-1c2.32-1.52,4.65-3.05,6.97-4.57c2.19-1.44,4.22-3.06,6.29-4.68c-1.64,2.08-2.99,4.39-4,6.84
			c-0.29,0.71-0.56,1.5-0.37,2.25s1.05,1.37,1.75,1.03c0.32-0.15,0.53-0.46,0.75-0.73c2.54-3.21,7.26-3.38,11.02-5
			c2.01-0.87,3.83-2.2,5.95-2.74c1.73-0.44,3.55-0.33,5.34-0.21c1.34,0.09,2.68,0.52,3.99,0.86c1.63,0.41,3.22,0.98,4.74,1.69
			c0.91,0.42,1.81,0.9,2.56,1.57c2.11,1.87,2.74,4.87,3.26,7.64c0.12,0.66,0.24,1.31,0.36,1.97c0.23,1.26,0.47,2.56,0.24,3.83
			s-1.03,2.51-2.26,2.89c-0.14,0.04-0.29,0.07-0.43,0.03c-0.11-0.04-0.2-0.12-0.28-0.2c-0.72-0.74-1.03-1.73-1.42-2.65
			c-0.4-0.93-0.97-1.31-1.56-2.07c-1.6-2.04-2.78-4.6-4.12-6.82c-0.35-0.58-0.71-1.17-1.23-1.6c-1.09-0.9-2.65-0.91-4.06-0.76
			c-5.41,0.57-10.5,2.83-15.25,5.48s-9.27,5.72-14.16,8.12c-1.79,0.88-3.65,1.68-5.17,2.98c-1.25,1.07-2.26,2.74-2.08,4.43
			c0.13,1.16,0.64,2.24,1.15,3.29c0.8,1.65,1.6,3.3,2.4,4.95c0.5,1.04,1.01,2.09,1.26,3.21c0.07,0.31,0.1,0.68-0.11,0.92
			c-0.14,0.17-0.37,0.23-0.59,0.26c-1.22,0.16-2.93-0.72-3.7-1.64C502.81,292.37,502.58,291.87,502.25,291.43z"/>
		
			<linearGradient id="SVGID_00000170252420564108204190000010428081800499672728_" gradientUnits="userSpaceOnUse" x1="518.8016" y1="550.8472" x2="544.1345" y2="573.2682" gradientTransform="matrix(1 0 0 -1 0 800)">
			<stop  offset="0" style="stop-color:#000000"/>
			<stop  offset="0.0874" style="stop-color:#1C1C1C;stop-opacity:0.9188"/>
			<stop  offset="0.3436" style="stop-color:#696969;stop-opacity:0.6809"/>
			<stop  offset="0.5719" style="stop-color:#A7A7A7;stop-opacity:0.4687"/>
			<stop  offset="0.7642" style="stop-color:#D3D3D3;stop-opacity:0.2901"/>
			<stop  offset="0.913" style="stop-color:#EEEEEE;stop-opacity:0.1519"/>
			<stop  offset="1" style="stop-color:#F8F8F8;stop-opacity:0.0711"/>
		</linearGradient>
		<path style="fill:url(#SVGID_00000170252420564108204190000010428081800499672728_);" d="M534.81,231.48
			c-0.39,0.79-0.82,1.76-0.33,2.49c0.5,0.73,1.57,0.67,2.46,0.67c2.4,0.01,4.78,1.15,6.29,3.02c0.59-1.61-0.28-3.35-0.62-5.04
			c-0.36-1.82-0.1-3.73-0.57-5.52c-0.3-1.13-3.35-6.03-4.79-4.39c-0.29,0.33-0.21,1.42-0.27,1.84c-0.12,0.8-0.28,1.6-0.48,2.38
			C536.1,228.5,535.54,230.03,534.81,231.48z"/>
		
			<linearGradient id="SVGID_00000010992532177247866550000006637646666326578310_" gradientUnits="userSpaceOnUse" x1="458.2792" y1="517.2414" x2="500.4422" y2="578.6074" gradientTransform="matrix(1 0 0 -1 0 800)">
			<stop  offset="0" style="stop-color:#000000"/>
			<stop  offset="0.0874" style="stop-color:#1C1C1C;stop-opacity:0.9188"/>
			<stop  offset="0.3436" style="stop-color:#696969;stop-opacity:0.6809"/>
			<stop  offset="0.5719" style="stop-color:#A7A7A7;stop-opacity:0.4687"/>
			<stop  offset="0.7642" style="stop-color:#D3D3D3;stop-opacity:0.2901"/>
			<stop  offset="0.913" style="stop-color:#EEEEEE;stop-opacity:0.1519"/>
			<stop  offset="1" style="stop-color:#F8F8F8;stop-opacity:0.0711"/>
		</linearGradient>
		<path style="fill:url(#SVGID_00000010992532177247866550000006637646666326578310_);" d="M491.47,199.07
			c-0.04,0.11-0.08,0.21-0.12,0.32c-2.07,5.23-3.73,10.73-6.72,15.5c-2.82,4.5-6.36,8.2-8.58,13.12c-0.23,0.51-0.45,1.03-0.52,1.58
			c-0.08,0.66,0.05,1.32,0.2,1.97c0.62,2.66,1.55,5.24,2.76,7.69c0.69,1.4,1.5,2.82,1.54,4.39c0.04,1.29-0.46,2.59-0.23,3.86
			c0.15,0.85,0.62,1.61,1.07,2.34c1.92,3.1,3.78,6.23,5.52,9.44c1.58,2.92,3.6,5.72,4.06,9.08c0.06,0.43,0.13,0.92,0.48,1.18
			c-0.23-0.16,2.19-2.79,2.45-2.99c0.9-0.71,1.86-1.31,2.87-1.86c2.02-1.08,4.28-2.04,5.62-4c0.22-0.32,0.4-0.66,0.44-1.04
			c0.06-0.58-0.24-1.15-0.67-1.55c-1.47-1.4-3.85-1.86-5.62-2.8c-0.14-0.07-0.29-0.16-0.35-0.31c-0.11-0.28,0.16-0.55,0.4-0.73
			c0.77-0.58,1.54-1.17,2.31-1.75c0.52-0.39,1.07-0.84,1.22-1.47c0.09-0.4,0.01-0.81-0.07-1.21c-0.41-2-0.82-4-1.23-6.01
			c-0.04-0.18-0.08-0.36-0.18-0.51c-0.12-0.17-0.31-0.27-0.5-0.36c-3.59-1.8-6.52-4.77-9.64-7.3c-0.74-0.6-1.47-1.19-2.21-1.79
			c-0.55-0.44-1.12-0.93-1.31-1.61c-0.1-0.35-0.08-0.73-0.04-1.09c0.23-2.53,0.97-5.08,1.45-7.58c0.49-2.58,1.06-5.14,1.7-7.68
			c1.26-5,2.8-9.93,4.62-14.76c0.5-1.32,0.84-2.38,0.45-3.78c-0.39-1.39-1.38-1.87-2.08-2.96c0.67,1.03,1.37,2.16,1.27,3.39
			C491.77,198.24,491.63,198.66,491.47,199.07z"/>
		
			<linearGradient id="SVGID_00000109011040450128089380000014786386062961476281_" gradientUnits="userSpaceOnUse" x1="516.2021" y1="373.3447" x2="425.6795" y2="423.4076" gradientTransform="matrix(1 0 0 -1 0 800)">
			<stop  offset="0" style="stop-color:#000000"/>
			<stop  offset="0.0874" style="stop-color:#1C1C1C;stop-opacity:0.9188"/>
			<stop  offset="0.3436" style="stop-color:#696969;stop-opacity:0.6809"/>
			<stop  offset="0.5719" style="stop-color:#A7A7A7;stop-opacity:0.4687"/>
			<stop  offset="0.7642" style="stop-color:#D3D3D3;stop-opacity:0.2901"/>
			<stop  offset="0.913" style="stop-color:#EEEEEE;stop-opacity:0.1519"/>
			<stop  offset="1" style="stop-color:#F8F8F8;stop-opacity:0.0711"/>
		</linearGradient>
		<path style="fill:url(#SVGID_00000109011040450128089380000014786386062961476281_);" d="M479.13,394.59
			c0.59,0,1.15-0.11,1.66-0.42c1.09-0.65,1.55-1.97,1.92-3.19c0.26-0.84,0.52-1.68,0.78-2.53c0.38-1.22,0.76-2.52,0.4-3.75
			c-0.57-1.99-2.75-2.96-4.69-3.68c-4.2-1.56-8.39-3-12.71-4.2c-2.67-0.74-5.35-1.48-8.02-2.21c-4.43-1.22-8.88-2.45-13.41-3.25
			c-7.81-1.38-15.8-1.47-23.73-1.11c-3.75,0.17-7.59,0.46-11,2.02c2.45,0.41,5.28,1.27,7.26,2.81c-1.56,0.89-2.98,1.91-4.63,2.72
			c-1.99,0.97-4.02,1.88-6.07,2.73c-4.03,1.67-8.16,3.09-12.36,4.26c8.07,0.57,16.17,0.56,24.26,0.9c7.93,0.4,15.82,1.02,23.7,2.04
			c7.84,1.02,15.54,2.6,23.3,4.06c3.7,0.7,7.33,1.44,10.98,2.4C477.54,394.4,478.35,394.6,479.13,394.59z"/>
		
			<linearGradient id="SVGID_00000025413084492103343890000003712633107741972876_" gradientUnits="userSpaceOnUse" x1="332.4539" y1="607.9072" x2="352.2127" y2="568.3148" gradientTransform="matrix(1 0 0 -1 0 800)">
			<stop  offset="0" style="stop-color:#000000"/>
			<stop  offset="0.0874" style="stop-color:#1C1C1C;stop-opacity:0.9188"/>
			<stop  offset="0.3436" style="stop-color:#696969;stop-opacity:0.6809"/>
			<stop  offset="0.5719" style="stop-color:#A7A7A7;stop-opacity:0.4687"/>
			<stop  offset="0.7642" style="stop-color:#D3D3D3;stop-opacity:0.2901"/>
			<stop  offset="0.913" style="stop-color:#EEEEEE;stop-opacity:0.1519"/>
			<stop  offset="1" style="stop-color:#F8F8F8;stop-opacity:0.0711"/>
		</linearGradient>
		<path style="fill:url(#SVGID_00000025413084492103343890000003712633107741972876_);" d="M341.34,216.87
			c-0.06,1.02-0.24,2.04-0.33,3.06c-0.43,4.93,1.39,9.74,3.17,14.35c0.83-4.96,1.66-9.92,2.49-14.87c0.31-1.85,0.62-3.7,0.59-5.57
			c-0.01-0.83-0.09-1.65-0.17-2.47c-0.35-3.46-0.82-6.91-1.28-10.36c-0.1-0.76-0.22-1.56-0.72-2.14c-0.79,1.55-1.19,3.26-1.81,4.88
			c-0.62,1.62-1.51,3.23-2.97,4.17c-0.83,0.53-1.5,0.43-0.98,1.43c0.42,0.8,0.89,1.55,1.22,2.4
			C341.16,213.37,341.44,215.13,341.34,216.87z"/>
		
			<linearGradient id="SVGID_00000165946273520228497570000005921953466540993702_" gradientUnits="userSpaceOnUse" x1="426.5245" y1="645.4052" x2="419.1394" y2="605.4158" gradientTransform="matrix(1 0 0 -1 0 800)">
			<stop  offset="0" style="stop-color:#000000"/>
			<stop  offset="0.0874" style="stop-color:#1C1C1C;stop-opacity:0.9188"/>
			<stop  offset="0.3436" style="stop-color:#696969;stop-opacity:0.6809"/>
			<stop  offset="0.5719" style="stop-color:#A7A7A7;stop-opacity:0.4687"/>
			<stop  offset="0.7642" style="stop-color:#D3D3D3;stop-opacity:0.2901"/>
			<stop  offset="0.913" style="stop-color:#EEEEEE;stop-opacity:0.1519"/>
			<stop  offset="1" style="stop-color:#F8F8F8;stop-opacity:0.0711"/>
		</linearGradient>
		<path style="fill:url(#SVGID_00000165946273520228497570000005921953466540993702_);" d="M391.08,184.24
			c2.04,1.6,4.57,2.64,7.26,3.31c3,0.75,6.08,1.26,9.17,1.11c2.54-0.13,5.03-0.7,7.5-1.3c5.13-1.25,10.23-2.65,15.29-4.2
			c5.95-1.82,11.83-3.84,17.64-6.06c2.9-1.11,5.79-2.27,8.65-3.47c3.16-1.33,6.13-3.06,9.18-4.66c-3.33,3.15-6.72,6.35-10.81,8.42
			c-4.23,2.14-9.04,2.98-13.2,5.25c0.99,0.12,3.95,0.34,2.49,1.67c-1.09,0.99-2.65,1.77-3.99,2.36c-2.28,1.01-4.82,1.47-6.9,2.84
			c7.29,0.18,14.6-0.83,21.56-2.97c-0.7,0.22-1.62,1.35-2.25,1.79c-0.8,0.57-1.64,1.03-2.44,1.57c-1.76,1.18-3.69,2.07-5.65,2.85
			c-5.12,2.03-10.64,3.42-16.11,2.77c-5.8-0.69-11.44-3.62-17.2-2.63c3.37,1.68,6.48,3.85,9.22,6.43c0.38,0.35,0.77,0.9,0.49,1.33
			c-0.12,0.19-0.34,0.28-0.54,0.37c-4.32,1.84-8.73,3.37-13.15,4.94c-1.69,0.6-3.8-1.03-5.33-1.85c-1.94-1.04-3.83-2.19-5.49-3.63
			c-3.93-3.4-6.59-8.32-11.18-10.76c4.49,2.47,9.13,4.99,14.23,5.5c-4.97-3.55-9.73-7.4-14.22-11.54c-1.73-1.59-3.48-3.32-4.21-5.56
			c-1.22-3.73,1.22-8.23,5.01-9.24c-0.01,3.17-0.02,6.4,0.92,9.43C387.79,180.86,389.23,182.78,391.08,184.24z"/>
	</g>
	<g>
		<g>
			<path d="M483.67,286.51c2.55,1.7,5.48,1.71,8.39,2.26c0.68,0.13,1.36,0.33,1.89,0.8c0.53,0.48,0.84,1.18,1.15,1.81
				c0.68,1.37,1.28,2.81,1.61,4.31c0.14,0.63,1.1,0.36,0.96-0.27c-0.34-1.52-0.94-2.98-1.62-4.37c-0.65-1.34-1.34-2.49-2.8-3.01
				c-1.42-0.51-3.04-0.49-4.52-0.74c-1.62-0.28-3.17-0.73-4.55-1.65C483.64,285.29,483.14,286.16,483.67,286.51L483.67,286.51z"/>
		</g>
	</g>
	<g>
		<g>
			<path d="M319.81,248.27c3.29-6.82,6.58-13.65,9.87-20.47c1.63-3.37,3.25-6.75,4.88-10.12c0.77-1.6,1.49-3.23,2.38-4.77
				c0.8-1.38,1.83-2.5,3.02-3.56c1.08-0.97,2.2-1.89,3.1-3.04c0.97-1.23,1.58-2.63,2.07-4.1c0.47-1.4,0.82-2.86,1.51-4.17
				c0.73-1.4,1.87-2.41,3.11-3.37c5.7-4.42,11.55-8.66,17.48-12.77c6.67-4.63,13.47-9.07,20.4-13.3c1.1-0.67,0.09-2.4-1.01-1.73
				c-12.44,7.58-24.46,15.85-36.05,24.67c-1.38,1.05-2.86,2.05-4.06,3.3c-1.12,1.15-1.83,2.54-2.38,4.03
				c-0.51,1.39-0.85,2.85-1.44,4.21c-0.61,1.4-1.55,2.5-2.66,3.52c-1.09,1.01-2.27,1.93-3.24,3.06c-1.08,1.25-1.86,2.68-2.58,4.15
				c-1.67,3.41-3.3,6.84-4.95,10.26c-3.72,7.72-7.45,15.45-11.17,23.17C317.53,248.41,319.25,249.43,319.81,248.27L319.81,248.27z"
				/>
		</g>
	</g>
	<g>
		<g>
			<path d="M322.65,325.29c0.65-0.43,1.17-1,1.78-1.47c0.45-0.34,0.93-0.65,1.4-0.96c1.05-0.68,2.13-1.31,3.17-2.02
				c1.96-1.34,3.9-2.98,4.2-5.47c0.06-0.54-0.51-1-1-1c-0.59,0-0.94,0.46-1,1c-0.03,0.28-0.2,0.73-0.39,1.06
				c-0.23,0.4-0.45,0.67-0.78,1.01c-0.74,0.77-1.62,1.39-2.51,1.98c-0.97,0.64-1.96,1.23-2.93,1.86c-0.43,0.28-0.86,0.57-1.27,0.88
				c-0.58,0.44-1.08,1-1.68,1.4C320.57,324.26,321.58,326,322.65,325.29L322.65,325.29z"/>
		</g>
	</g>
	<g>
		<g>
			<path d="M368.29,298.44c5.63-1.85,11.32-3.54,17.04-5.06c0.62-0.17,0.36-1.13-0.27-0.96c-5.73,1.52-11.41,3.21-17.04,5.06
				C367.42,297.67,367.68,298.64,368.29,298.44L368.29,298.44z"/>
		</g>
	</g>
	<g>
		<g>
			<path d="M368.72,300.69c9.9-2.84,19.86-5.51,29.86-7.99c2.83-0.7,5.66-1.39,8.5-2.06c0.63-0.15,0.36-1.11-0.27-0.96
				c-10.02,2.38-20,4.94-29.94,7.68c-2.81,0.78-5.61,1.57-8.42,2.37C367.84,299.9,368.1,300.87,368.72,300.69L368.72,300.69z"/>
		</g>
	</g>
	<g>
		<g>
			<path d="M446.56,214.66c-1.87,0.52-3.7,1.15-5.49,1.88c-0.25,0.1-0.43,0.33-0.35,0.62c0.06,0.24,0.36,0.45,0.62,0.35
				c1.79-0.74,3.62-1.36,5.49-1.88C447.45,215.45,447.19,214.49,446.56,214.66L446.56,214.66z"/>
		</g>
	</g>
	<g>
		<g>
			<path d="M431.64,220.68c-1.87,1.03-3.75,2.07-5.62,3.1c-0.43,0.24-0.24,0.95,0.25,0.93c8.65-0.28,17.27-1.01,25.84-2.17
				c0.63-0.09,0.36-1.05-0.27-0.96c-8.48,1.15-17.02,1.86-25.58,2.14c0.08,0.31,0.17,0.62,0.25,0.93c1.87-1.03,3.75-2.07,5.62-3.1
				C432.71,221.23,432.21,220.37,431.64,220.68L431.64,220.68z"/>
		</g>
	</g>
	<g>
		<g>
			<path d="M497.36,288.56c-0.38,3.18-1.27,6.28-2.19,9.33c-0.93,3.07-1.8,6.14-2.65,9.23c-0.84,3.07-1.98,6.04-3.21,8.97
				c-1.23,2.94-2.8,5.87-3.57,8.98c-0.78,3.17-0.54,6.45-0.69,9.68c-0.15,3.26-0.78,6.46-1.28,9.68c-0.5,3.2-0.86,6.41-0.67,9.66
				c0.2,3.34,0.69,6.64,0.59,10c-0.1,3.32-0.53,6.62-0.62,9.94c-0.09,3.31-0.01,6.58-0.34,9.88c-0.16,1.63-0.37,3.27-0.6,4.89
				c-0.17,1.22-0.15,3.19-1.12,4.1c-0.94,0.88-2.57,0.42-3.68,0.17c-1.66-0.37-3.32-0.74-4.98-1.1c-13.08-2.79-26.3-4.9-39.61-6.21
				c-13.34-1.32-26.77-1.83-40.17-1.38c-6.82,0.22-13.62,0.7-20.4,1.43c-3.3,0.36-6.61,0.76-9.89,1.25
				c-3.18,0.47-6.4,1.07-9.41,2.23c-2.84,1.1-5.48,2.63-8.19,4.02c-2.78,1.43-5.67,2.56-8.72,3.26c-1.26,0.29-3.23,0.93-4.35-0.02
				c-0.54-0.46-0.44-1.14-0.41-1.79c0.04-0.83,0.1-1.66,0.16-2.49c0.25-3.2,0.54-6.39,0.28-9.61c-0.54-6.75-0.93-13.49-1.18-20.26
				c-0.13-3.4-0.22-6.8-0.26-10.2c-0.04-3.3-0.17-6.58-0.27-9.87c-0.1-3.26-0.12-6.53,0.1-9.78c0.22-3.29,0.78-6.47,1.56-9.67
				c1.58-6.48,2.85-13.03,3.7-19.65c1.73-13.46,1.22-27.02,0.67-40.54c-0.14-3.36-0.27-6.72-0.41-10.07c-0.05-1.28-2.05-1.29-2,0
				c0.56,13.88,1.51,27.84,0.6,41.72c-0.45,6.83-1.42,13.61-2.77,20.31c-0.67,3.32-1.52,6.6-2.25,9.9c-0.71,3.2-1.06,6.48-1.2,9.76
				c-0.14,3.37-0.06,6.74,0.06,10.1c0.13,3.38,0.17,6.75,0.23,10.13c0.13,6.9,0.36,13.82,0.82,20.7c0.22,3.35,0.7,6.71,0.7,10.07
				c0,3.26-0.47,6.49-0.57,9.75c-0.23,7.38,11.59,2.34,14.9,0.77c2.81-1.33,5.47-2.96,8.31-4.2c3-1.31,6.25-1.99,9.47-2.5
				c6.84-1.09,13.77-1.76,20.67-2.24c13.71-0.95,27.49-0.86,41.2,0.11c13.66,0.97,27.24,2.81,40.68,5.4c3.34,0.64,6.67,1.33,10,2.06
				c2.48,0.55,6.04,1.93,8.13-0.24c0.97-1.01,1.19-2.45,1.38-3.78c0.24-1.64,0.47-3.28,0.66-4.92c0.39-3.34,0.52-6.66,0.5-10.03
				c-0.03-3.38,0.4-6.74,0.58-10.11c0.18-3.42-0.17-6.75-0.45-10.15c-0.28-3.41-0.03-6.75,0.49-10.12c0.5-3.23,1.13-6.46,1.34-9.73
				c0.21-3.31-0.14-6.7,0.7-9.93c0.82-3.15,2.41-6.12,3.65-9.12c2.5-6,4.07-12.3,5.93-18.51c0.91-3.04,1.7-6.1,2.08-9.26
				C499.51,287.28,497.51,287.29,497.36,288.56L497.36,288.56z"/>
		</g>
	</g>
	<g>
		<g>
			<path d="M497.12,282.48c-0.87,1.62-2.17,3.54-0.91,5.32c0.45,0.64,1.08,1.13,1.75,1.52c0.71,0.41,1.47,0.72,2.01,1.35
				c0.27,0.32,0.49,0.67,0.77,0.98c0.3,0.33,0.66,0.6,0.99,0.89c0.71,0.63,1.36,1.33,2.08,1.95c1.36,1.19,2.87,0.94,4.51,0.62
				c1.26-0.25,0.73-2.18-0.53-1.93c-0.55,0.11-1.13,0.28-1.7,0.24s-0.92-0.39-1.31-0.77c-0.59-0.57-1.18-1.14-1.79-1.67
				c-0.58-0.5-1.01-1-1.49-1.59c-0.44-0.55-0.99-0.96-1.6-1.3c-0.57-0.32-1.19-0.59-1.68-1.03c-0.41-0.37-0.65-0.76-0.5-1.32
				c0.21-0.79,0.74-1.55,1.13-2.26C499.46,282.35,497.73,281.34,497.12,282.48L497.12,282.48z"/>
		</g>
	</g>
	<g>
		<g>
			<path d="M552.96,274.73c-1.35-3.31-2.86-6.62-4.88-9.58c-1.43-2.1-3.24-4.35-5.76-5.15c-1.23-0.39-1.75,1.54-0.53,1.93
				c2.07,0.66,3.62,2.81,4.78,4.56c1.81,2.74,3.22,5.75,4.46,8.78c0.2,0.5,0.67,0.85,1.23,0.7
				C552.74,275.83,553.17,275.24,552.96,274.73L552.96,274.73z"/>
		</g>
	</g>
	<g>
		<g>
			<path d="M503.86,281.5c-0.2-0.45,0.23-0.97,0.47-1.31c0.36-0.49,0.75-0.98,1.2-1.39c0.92-0.86,2.18-1.4,3.26-2.01
				c2.73-1.56,5.47-3.12,8.2-4.68s5.47-3.12,8.2-4.68c2.59-1.48,5.15-3.07,7.85-4.35c2.72-1.29,5.79-2.19,8.74-1.15
				c1.22,0.43,1.74-1.5,0.53-1.93c-2.92-1.03-6.03-0.44-8.82,0.71c-2.95,1.22-5.68,2.92-8.45,4.5c-5.97,3.41-11.94,6.81-17.91,10.22
				c-1.3,0.74-2.62,1.42-3.6,2.57c-1.13,1.33-2.19,2.73-1.4,4.51c0.22,0.49,0.94,0.61,1.37,0.36
				C504.01,282.57,504.08,281.99,503.86,281.5L503.86,281.5z"/>
		</g>
	</g>
	<g>
		<g>
			<path d="M502.14,282.5c1.97,4.01,4.12,7.94,6,12c0.23,0.49,0.93,0.61,1.37,0.36c0.5-0.29,0.59-0.88,0.36-1.37
				c-1.88-4.06-4.03-7.99-6-12C503.3,280.34,501.57,281.35,502.14,282.5L502.14,282.5z"/>
		</g>
	</g>
	<g>
		<g>
			<path d="M528.45,249.63c2.3-0.31,4.61-0.57,6.92-0.78c2.04-0.18,4.24-0.52,6.26-0.05c2.86,0.67,4.96,3.4,6.55,5.71
				c1.62,2.35,3,4.91,4.06,7.56c0.95,2.38,1.77,4.95,1.84,7.5c0.01,0.31,0.01,0.62-0.01,0.92c-0.02,0.33-0.03,0.48-0.07,0.7
				c-0.05,0.26-0.11,0.53-0.19,0.78c-0.04,0.12-0.08,0.24-0.13,0.36c0.06-0.16-0.07,0.15-0.09,0.19c-0.25,0.49-0.32,0.59-0.75,0.96
				c-0.16,0.14,0.03,0-0.16,0.11c-0.1,0.07-0.21,0.13-0.32,0.19c-0.13,0.07-0.2,0.1-0.2,0.1c-0.14,0.05-0.28,0.1-0.43,0.14
				c-1.24,0.35-0.71,2.28,0.53,1.93c5.54-1.56,3.8-9.08,2.43-12.99c-1.06-3.02-2.49-5.92-4.22-8.61c-1.65-2.56-3.76-5.46-6.56-6.85
				c-2.33-1.16-4.94-0.97-7.45-0.76c-2.86,0.24-5.71,0.56-8.55,0.95c-0.54,0.07-0.83,0.76-0.7,1.23
				C527.38,249.51,527.91,249.71,528.45,249.63L528.45,249.63z"/>
		</g>
	</g>
	<g>
		<g>
			<path d="M476.23,160.7c9.8,3.17,20.28,4.31,29.61,8.9c4.4,2.16,8.5,5.16,10.99,9.47c3.61,6.23,6.7,12.8,9.75,19.32
				c3.5,7.49,6.85,15.05,10.32,22.56c0-0.34,0-0.67,0-1.01c-1.01,2.12,0.54,3.94,2.19,5.12c0.81,0.58,1.58,1.13,1.99,2.07
				c0.44,0.99,0.58,2.14,0.71,3.21c0.14,1.18,0.21,2.37,0.21,3.56c0,1.2-0.12,2.4,0.05,3.59c0.17,1.17,0.67,2.22,1.16,3.28
				c0.48,1.01,0.88,2.05,1.21,3.12c0.78,2.5,1.23,5.08,1.67,7.65c0.09,0.53,0.75,0.83,1.23,0.7c0.56-0.15,0.79-0.7,0.7-1.23
				c-0.42-2.42-0.84-4.86-1.54-7.22c-0.35-1.17-0.77-2.31-1.27-3.43c-0.48-1.06-1.07-2.1-1.22-3.27c-0.16-1.25,0.02-2.53-0.01-3.78
				c-0.03-1.32-0.15-2.63-0.34-3.94c-0.17-1.14-0.38-2.27-0.88-3.31s-1.35-1.76-2.26-2.42c-0.74-0.54-1.71-1.12-1.92-2.09
				c-0.11-0.49,0.27-0.88,0.14-1.36c-0.15-0.55-0.5-1.1-0.73-1.61c-0.98-2.14-1.96-4.28-2.93-6.43c-2.04-4.51-4.08-9.02-6.17-13.51
				c-2.05-4.41-4.15-8.8-6.36-13.13c-1.07-2.09-2.16-4.17-3.3-6.23c-0.86-1.57-1.8-3.05-2.96-4.42c-4.43-5.2-11.01-8.07-17.37-10.13
				c-6.57-2.12-13.36-3.38-19.98-5.29c-0.72-0.21-1.44-0.43-2.16-0.66C475.53,158.37,475.01,160.3,476.23,160.7L476.23,160.7z"/>
		</g>
	</g>
	<g>
		<g>
			<path d="M401.5,157.14c-3.52,1.77-6.99,3.69-10.33,5.79c-3.19,2.01-6.57,4.92-6.31,9.08c0.08,1.28,2.08,1.29,2,0
				c-0.24-3.75,3.23-6.08,6.05-7.8c3.12-1.91,6.33-3.69,9.6-5.34C403.65,158.28,402.64,156.56,401.5,157.14L401.5,157.14z"/>
		</g>
	</g>
	<g>
		<g>
			<path d="M386.15,177.57c0.52,3.39,2.94,6.07,5.78,7.82c3.17,1.95,6.91,3.11,10.58,3.66c2.18,0.33,4.38,0.43,6.58,0.3
				c0.64-0.04,0.64-1.04,0-1c-4.65,0.27-9.34-0.5-13.64-2.3c-3.84-1.61-7.65-4.36-8.33-8.75
				C387.02,176.67,386.06,176.94,386.15,177.57L386.15,177.57z"/>
		</g>
	</g>
	<g>
		<g>
			<path d="M422.46,185.99c7.18-2.2,14.41-4.27,21.51-6.73c6.85-2.38,13.6-5.15,19.93-8.72c3.66-2.07,7.17-4.41,10.48-7
				c0.51-0.4-0.21-1.1-0.71-0.71c-5.76,4.52-12.15,8.16-18.84,11.13c-6.66,2.96-13.6,5.25-20.56,7.4
				c-4.02,1.24-8.05,2.43-12.08,3.66C421.58,185.21,421.84,186.18,422.46,185.99L422.46,185.99z"/>
		</g>
	</g>
	<g>
		<g>
			<path d="M479.41,159.94c-0.3-1.15-0.87-2.18-1.5-3.18c-0.81-1.29-1.7-2.62-2.81-3.67c-0.58-0.54-1.17-0.79-1.91-1.08
				c-1.16-0.46-2.33-0.89-3.51-1.28c-2.36-0.8-4.77-1.47-7.21-1.98c-2.79-0.59-5.62-0.98-8.46-1.15c-1.29-0.08-1.28,1.92,0,2
				c4.7,0.28,9.32,1.22,13.81,2.63c1.11,0.35,2.22,0.73,3.32,1.14c0.7,0.26,1.83,0.58,2.32,0.94c0.87,0.64,1.75,1.97,2.41,2.97
				c0.41,0.63,0.81,1.27,1.15,1.93c0.07,0.14,0.15,0.29,0.21,0.43c0,0.01,0.07,0.16,0.02,0.05c-0.05-0.11,0.04,0.09,0.04,0.12
				c0.07,0.22,0.13,0.44,0.18,0.67C477.8,161.71,479.73,161.19,479.41,159.94L479.41,159.94z"/>
		</g>
	</g>
	<g>
		<g>
			<path d="M399.19,161.3c-2.38,1.38-4.77,3.32-6.33,5.6c-1.59,2.31-2,5.95-0.37,8.34c1.66,2.43,4.13,4.31,7.09,4.68
				c1.77,0.22,3.63-0.04,5.39-0.25c1.93-0.23,3.85-0.54,5.76-0.93c7.7-1.57,15.11-4.25,22.65-6.41c6.14-1.76,12.2-3.75,17.92-6.63
				c3.29-1.65,6.45-3.56,9.45-5.7c0.81-0.58,1.62-1.18,2.41-1.79c0.63-0.48,1.28-0.95,1.81-1.55c0.76-0.87,1.4-2.11,0.9-3.26
				c-0.26-0.6-0.77-1.01-1.33-1.31c-0.57-0.3-1.07,0.56-0.5,0.86c0.55,0.3,1.06,0.71,1.02,1.4c-0.04,0.6-0.4,1.16-0.78,1.6
				c-0.49,0.57-1.11,1.01-1.7,1.47c-0.76,0.58-1.53,1.16-2.31,1.71c-2.75,1.95-5.63,3.72-8.62,5.28c-5.32,2.76-10.96,4.75-16.7,6.42
				c-6.82,2-13.58,4.3-20.48,6.03c-3.5,0.88-7.04,1.58-10.63,1.93c-1.58,0.15-3.23,0.36-4.8,0.02c-1.39-0.3-2.66-0.98-3.73-1.91
				c-1.21-1.06-2.36-2.38-2.7-3.99c-0.33-1.58-0.03-3.41,0.72-4.84c0.66-1.27,1.75-2.32,2.8-3.26c1.1-0.99,2.29-1.91,3.58-2.65
				C400.25,161.84,399.75,160.98,399.19,161.3L399.19,161.3z"/>
		</g>
	</g>
	<g>
		<g>
			<path d="M455.04,152.57c1.64-0.27,3.38,0.23,4.95,0.67c1.76,0.5,3.3,1.54,4.56,2.87c0.44,0.47,1.15-0.24,0.71-0.71
				c-1.38-1.46-3.08-2.57-5-3.13c-1.76-0.5-3.65-0.97-5.48-0.67C454.14,151.71,454.41,152.68,455.04,152.57L455.04,152.57z"/>
		</g>
	</g>
	<g>
		<g>
			<path d="M392.74,169.42c1.72-1.5,3.55-2.95,5.61-3.97c1.4-0.69,2.91-1.09,4.46-1.28c0.63-0.08,0.64-1.08,0-1
				c-1.69,0.21-3.31,0.62-4.86,1.36c-2.18,1.05-4.11,2.59-5.92,4.18C391.55,169.14,392.25,169.84,392.74,169.42L392.74,169.42z"/>
		</g>
	</g>
	<g>
		<g>
			<path d="M493.22,188.16c-0.86,1.36-1.63,2.78-2.3,4.25c-0.29,0.64-0.63,1.32-0.63,2.04c0,0.69,0.35,1.24,0.76,1.77
				c0.42,0.56,0.81,1.14,1.13,1.77c0.36,0.7,0.84,1.6,0.57,2.39c-0.56,1.62-1.34,3.2-2,4.78c-0.25,0.59,0.72,0.85,0.96,0.27
				c0.64-1.52,1.31-3.04,1.92-4.57c0.53-1.34-0.22-2.76-0.9-3.92c-0.35-0.6-0.82-1.11-1.18-1.7c-0.49-0.8-0.13-1.54,0.23-2.32
				c0.67-1.47,1.44-2.88,2.3-4.25C494.43,188.12,493.57,187.62,493.22,188.16L493.22,188.16z"/>
		</g>
	</g>
	<g>
		<g>
			<path d="M487.83,207.53c-1.61,4.06-3.99,7.74-6.43,11.34c-1.23,1.82-2.48,3.62-3.67,5.46c-0.58,0.9-1.15,1.82-1.7,2.75
				c-0.52,0.88-1.09,1.79-1.02,2.85c0.07,1.1,0.6,2.22,0.98,3.24c0.41,1.11,0.84,2.21,1.3,3.3c0.44,1.06,0.91,2.1,1.4,3.14
				c0.52,1.11,1.05,2.23,1.3,3.44c0.12,0.56,0.16,1.13,0.1,1.69c-0.07,0.61-0.3,1.18-0.43,1.77c-0.23,1.04-0.01,1.93,0.54,2.83
				c1.25,2.06,2.56,4.09,3.74,6.19c1.31,2.33,2.56,4.69,3.79,7.07c1.21,2.33,2.82,4.82,2.53,7.56c-0.07,0.64,0.93,0.63,1,0
				c0.24-2.24-0.73-4.33-1.74-6.27c-1.09-2.12-2.2-4.24-3.34-6.35c-1.14-2.1-2.31-4.19-3.56-6.23c-0.6-0.97-1.33-1.92-1.83-2.95
				c-0.56-1.16,0.12-2.26,0.27-3.43c0.29-2.22-0.8-4.31-1.71-6.26c-1.01-2.18-1.92-4.4-2.73-6.67c-0.43-1.2-0.9-2.27-0.27-3.49
				c0.49-0.95,1.08-1.87,1.65-2.77c1.15-1.83,2.37-3.6,3.58-5.39c2.72-4,5.41-8.04,7.2-12.56
				C489.03,207.19,488.07,206.93,487.83,207.53L487.83,207.53z"/>
		</g>
	</g>
	<g>
		<g>
			<path d="M492.83,267.47c1.7-1.31,3.47-2.53,5.3-3.65c0.55-0.34,0.05-1.2-0.5-0.86c-1.83,1.12-3.6,2.34-5.3,3.65
				c-0.21,0.16-0.33,0.43-0.18,0.68C492.26,267.5,492.61,267.63,492.83,267.47L492.83,267.47z"/>
		</g>
	</g>
	<g>
		<g>
			<path d="M488.33,212.08c-0.94,5.22-2.08,10.4-3.44,15.53c-0.3,1.14-0.77,2.35-0.63,3.55c0.12,0.98,0.69,1.82,1.37,2.51
				c1.7,1.76,3.74,3.28,5.66,4.79c2.22,1.74,4.51,3.4,6.85,4.97c-0.08-0.1-0.15-0.2-0.23-0.3c0.36,2.04,0.72,4.08,1.08,6.12
				c0.08,0.44,0.36,1.17,0.15,1.6c-0.18,0.36-0.71,0.63-1.01,0.87c-0.81,0.64-1.61,1.27-2.42,1.91c-0.51,0.4,0.21,1.1,0.71,0.71
				c0.65-0.51,1.3-1.03,1.96-1.54c0.55-0.43,1.34-0.88,1.67-1.53c0.32-0.63,0.07-1.39-0.04-2.04c-0.15-0.86-0.3-1.71-0.45-2.57
				s-0.3-1.71-0.45-2.57c-0.07-0.38-0.07-0.87-0.22-1.22c-0.14-0.34-0.52-0.5-0.81-0.69c-1.36-0.92-2.7-1.88-4.02-2.86
				c-1.35-1-2.67-2.04-3.97-3.1c-1.22-1-2.48-1.99-3.6-3.1c-0.49-0.49-0.95-1.03-1.15-1.7c-0.26-0.86,0.05-1.75,0.27-2.58
				c0.45-1.65,0.87-3.31,1.27-4.98c0.92-3.81,1.73-7.64,2.42-11.49C489.41,211.71,488.45,211.44,488.33,212.08L488.33,212.08z"/>
		</g>
	</g>
	<g>
		<g>
			<path d="M536.82,220.3c0.03,2.36-0.3,4.7-0.98,6.97c-0.36,1.18-0.82,2.3-1.34,3.41c-0.4,0.86-0.84,1.82-0.62,2.79
				c0.5,2.23,3.1,1.81,4.78,1.91c2.15,0.13,3.41,2.12,4.42,3.78c0.33,0.55,1.2,0.05,0.86-0.5c-0.91-1.49-1.96-3.13-3.61-3.88
				c-0.95-0.43-1.92-0.41-2.95-0.39c-0.93,0.02-2.34-0.06-2.54-1.22c-0.18-1.04,0.63-2.18,1.03-3.09c0.43-1,0.8-2.03,1.09-3.09
				c0.6-2.18,0.88-4.43,0.86-6.69C537.81,219.65,536.81,219.65,536.82,220.3L536.82,220.3z"/>
		</g>
	</g>
	<g>
		<g>
			<path d="M317.19,247.38c1.1,1.14,2.43,1.99,3.91,2.54c1.29,0.48,3.08,0.89,3.51,2.41c0.17,0.62,1.14,0.36,0.96-0.27
				c-0.45-1.6-2-2.33-3.45-2.84c-1.61-0.56-3.04-1.3-4.23-2.55C317.45,246.2,316.74,246.91,317.19,247.38L317.19,247.38z"/>
		</g>
	</g>
	<g>
		<g>
			<path d="M327.29,256.18c1.35,1.99,2.54,4.08,3.57,6.25c0.27,0.58,1.14,0.07,0.86-0.5c-1.02-2.17-2.22-4.26-3.57-6.25
				C327.79,255.15,326.92,255.65,327.29,256.18L327.29,256.18z"/>
		</g>
	</g>
	<g>
		<g>
			<path d="M345.55,196.51c-0.68,4.9,0.63,9.69,1.03,14.54c0.41,5.08-0.56,10.11-1.37,15.1c-0.47,2.87-0.94,5.75-1.41,8.62
				c0.3-0.04,0.61-0.08,0.91-0.12c-1.75-3.65-2.59-7.74-3.3-11.7c-0.19-1.07-0.25-2.11-0.13-3.19c0.11-0.99,0.29-1.96,0.34-2.96
				c0.09-2.05-0.24-4.12-0.94-6.05c-0.22-0.6-1.18-0.34-0.96,0.27c0.72,2.01,1.03,4.12,0.87,6.25c-0.08,1.03-0.29,2.03-0.36,3.06
				c-0.07,1.05,0.07,2.1,0.27,3.13c0.75,3.98,1.6,8.02,3.36,11.7c0.18,0.37,0.85,0.3,0.91-0.12c0.82-5.05,1.75-10.09,2.43-15.16
				c0.33-2.45,0.56-4.92,0.47-7.39c-0.09-2.43-0.49-4.84-0.83-7.25c-0.4-2.8-0.71-5.65-0.32-8.46
				C346.6,196.15,345.64,195.88,345.55,196.51L345.55,196.51z"/>
		</g>
	</g>
	<g>
		<g>
			<path d="M490.27,272.38c-0.17,2.47-0.35,4.93-0.52,7.4c-0.04,0.58-0.08,1.15-0.12,1.73c-0.04,0.51-0.09,1.04,0.15,1.51
				c0.19,0.38,0.53,0.68,0.81,0.98c0.45,0.47,0.89,0.94,1.34,1.41c0.44,0.47,1.15-0.24,0.71-0.71c-0.39-0.41-0.78-0.82-1.17-1.24
				c-0.36-0.38-0.85-0.74-0.87-1.3c-0.05-1.02,0.14-2.1,0.21-3.13c0.16-2.22,0.31-4.44,0.47-6.66
				C491.31,271.74,490.31,271.74,490.27,272.38L490.27,272.38z"/>
		</g>
	</g>
	<g>
		<g>
			<path d="M313.15,260.05c1.42,0.16,2.96,0.21,4.14,1.13c1.32,1.03,1.95,2.8,2.55,4.3c1.4,3.48,2.39,7.1,3.35,10.73
				c1.04,3.9,2.06,7.81,3.1,11.71c1,3.78,1.93,7.58,3.03,11.34c0.59,2,1.34,3.93,2.04,5.9c0.66,1.84,1.08,3.67,0.7,5.62
				c-0.24,1.26,1.68,1.8,1.93,0.53c0.35-1.83,0.24-3.62-0.28-5.41c-0.54-1.86-1.35-3.63-1.94-5.48c-1.27-3.93-2.22-7.97-3.27-11.96
				c-1.09-4.11-2.17-8.22-3.26-12.34c-1.02-3.85-2.06-7.7-3.56-11.4c-0.8-1.96-1.62-3.99-3.39-5.28c-1.51-1.1-3.36-1.21-5.15-1.41
				c-0.54-0.06-1,0.5-1,1C312.15,259.64,312.62,259.99,313.15,260.05L313.15,260.05z"/>
		</g>
	</g>
	<g>
		<g>
			<path d="M323.89,322.96c0.23,0.62,0.46,1.24,0.69,1.86c0.21,0.57,0.39,1.21,0.76,1.7c0.38,0.5,0.95,0.69,1.55,0.8
				c0.66,0.13,1.32,0.25,1.98,0.38c0.27,0.05,0.54-0.07,0.62-0.35c0.07-0.24-0.08-0.56-0.35-0.62c-0.59-0.11-1.18-0.22-1.77-0.33
				c-0.44-0.08-0.99-0.13-1.27-0.52c-0.3-0.42-0.43-0.98-0.61-1.45c-0.22-0.58-0.43-1.15-0.65-1.73c-0.09-0.25-0.34-0.43-0.62-0.35
				C324,322.42,323.8,322.71,323.89,322.96L323.89,322.96z"/>
		</g>
	</g>
	<g>
		<g>
			<path d="M321.14,324.67c0.13,2.02,0.37,4.41,2.05,5.79c0.77,0.63,1.7,1.03,2.64,1.36c0.83,0.29,1.68,0.52,2.55,0.66
				c0.53,0.09,1.08-0.14,1.23-0.7c0.13-0.48-0.16-1.14-0.7-1.23c-0.8-0.13-1.59-0.34-2.36-0.6s-1.29-0.48-2.03-0.97
				c0.19,0.13,0,0-0.03-0.03c-0.08-0.07-0.16-0.15-0.23-0.23c-0.18-0.19-0.15-0.16-0.3-0.39c-0.26-0.41-0.31-0.57-0.45-1.05
				c-0.28-0.94-0.31-1.61-0.37-2.61c-0.03-0.54-0.44-1-1-1C321.63,323.67,321.11,324.13,321.14,324.67L321.14,324.67z"/>
		</g>
	</g>
	<g>
		<g>
			<path d="M315.32,260.36c-0.9-1.17-1.7-2.41-2.58-3.6c-1.23-1.67-2.56-3.26-4.04-4.73c-0.92-0.91-2.33,0.51-1.41,1.41
				c1.38,1.37,2.64,2.85,3.8,4.42c0.85,1.15,1.63,2.36,2.5,3.5c0.33,0.43,0.86,0.66,1.37,0.36
				C315.38,261.49,315.65,260.8,315.32,260.36L315.32,260.36z"/>
		</g>
	</g>
	<g>
		<g>
			<path d="M308.5,253.61c1.8-1.13,3.46-2.46,4.94-3.99c0.56-0.58,1.15-1.34,1.96-1.56c0.97-0.26,2.01,0.31,2.84,0.75
				c1.14,0.59,2.16-1.14,1.01-1.73c-1.07-0.55-2.24-1.12-3.47-1.08c-1.21,0.04-2.19,0.65-3.04,1.47c-0.8,0.77-1.54,1.59-2.38,2.31
				c-0.9,0.78-1.86,1.47-2.87,2.1C306.41,252.57,307.41,254.3,308.5,253.61L308.5,253.61z"/>
		</g>
	</g>
	<path class="st20" d="M402.27,157.87c0,0,1.73,8.13,1.73,14.13"/>
	<path class="st21" d="M391.92,171.77c0,0,5.7-1.17,11.38-5.53"/>
	<path class="st20" d="M454.12,148.6c0.89,4.12,2.4,8.27,4.88,11.4"/>
	<g>
		<g>
			<path d="M331.44,385.27c-0.06-0.83-0.12-1.69,0.05-2.51c0.21-0.95,0.76-1.56,1.62-1.98c1.79-0.89,3.81-1.36,5.74-1.85
				c4.1-1.04,8.24-1.94,12.4-2.71c0.63-0.12,0.36-1.08-0.27-0.96c-4.55,0.84-9.07,1.83-13.54,3c-1.03,0.27-2.06,0.56-3.07,0.92
				c-0.88,0.32-1.84,0.65-2.59,1.24c-1.48,1.16-1.48,3.14-1.35,4.85C330.49,385.91,331.49,385.91,331.44,385.27L331.44,385.27z"/>
		</g>
	</g>
	<g>
		<g>
			<path d="M365.71,375.74c6.06-0.27,12.11-0.71,18.15-1.32c6.01-0.61,12-1.39,18-2.1c11.73-1.39,23.57-2.51,35.38-1.52
				c6.47,0.54,12.89,1.74,19.05,3.82c0.61,0.21,0.87-0.76,0.27-0.96c-10.97-3.71-22.68-4.57-34.18-4.13
				c-12.13,0.47-24.13,2.35-36.18,3.65c-6.81,0.74-13.63,1.26-20.47,1.56C365.07,374.77,365.06,375.77,365.71,375.74L365.71,375.74z
				"/>
		</g>
	</g>
	<g>
		<g>
			<path d="M473.11,379.24c2.02,0.72,4.07,1.39,6.06,2.18c1.66,0.66,3.36,1.71,3.5,3.67c0.05,0.64,1.05,0.64,1,0
				c-0.16-2.15-1.69-3.53-3.56-4.36c-2.18-0.96-4.49-1.66-6.73-2.46C472.77,378.06,472.51,379.03,473.11,379.24L473.11,379.24z"/>
		</g>
	</g>
	<g>
		<g>
			<path d="M438.93,349.69c4.89,0.27,9.75,0.85,14.56,1.74c2.43,0.45,4.84,0.98,7.23,1.59c1.16,0.29,2.31,0.61,3.46,0.94
				c1.03,0.3,2.27,0.5,3.2,1.05c0.65,0.38,0.69,1.02,0.76,1.7c0.06,0.7,0.13,1.4,0.19,2.09c0.13,1.44,0.26,2.87,0.4,4.31
				c0.28-0.12,0.57-0.24,0.85-0.35c-1.94-2.35-4.49-4.11-7.36-5.13c-0.61-0.22-0.87,0.75-0.27,0.96c2.71,0.96,5.09,2.65,6.92,4.87
				c0.27,0.32,0.89,0.07,0.85-0.35c-0.12-1.36-0.25-2.71-0.37-4.07c-0.06-0.66-0.12-1.31-0.18-1.97c-0.05-0.55-0.06-1.16-0.24-1.69
				c-0.33-0.96-1.2-1.39-2.11-1.68c-1.24-0.4-2.5-0.76-3.76-1.1c-5.04-1.38-10.16-2.41-15.34-3.1c-2.92-0.39-5.86-0.66-8.8-0.82
				C438.29,348.65,438.29,349.65,438.93,349.69L438.93,349.69z"/>
		</g>
	</g>
</g>
</svg>
