<?xml version="1.0" encoding="utf-8"?>
<!-- Generator: Adobe Illustrator 28.0.0, SVG Export Plug-In . SVG Version: 6.00 Build 0)  -->
<svg version="1.1" id="Layer_1" xmlns="http://www.w3.org/2000/svg" xmlns:xlink="http://www.w3.org/1999/xlink" x="0px" y="0px"
	 viewBox="0 0 800 800" style="enable-background:new 0 0 800 800;" xml:space="preserve">
<style type="text/css">
	.st0{fill:#A6ABB5;}
	.st1{fill:#E6E7E8;}
	.st2{fill:url(#SVGID_1_);}
	.st3{fill:url(#SVGID_00000107579218455716217370000014186721912814305459_);}
	.st4{fill:url(#SVGID_00000131340309732069451980000003867902475967886216_);}
	.st5{fill:url(#SVGID_00000013902566132412216770000005383721437211638148_);}
	.st6{fill:url(#SVGID_00000078728180620465110600000002284100785993767852_);}
	.st7{fill:url(#SVGID_00000043458587456261973850000017254314516051718540_);}
	.st8{fill:url(#SVGID_00000146492243665367641600000013078731238115049636_);}
	.st9{fill:url(#SVGID_00000150066126447420557650000014931184837718257849_);}
	.st10{fill:#915A3E;}
	.st11{fill:#A36346;}
	.st12{fill:url(#SVGID_00000090288788523272854740000015170030605556790963_);}
	.st13{fill:#B8775A;}
	.st14{fill:none;stroke:#000000;stroke-width:0.5;stroke-linecap:round;stroke-linejoin:round;stroke-miterlimit:10;}
	.st15{fill:none;stroke:#000000;stroke-width:2;stroke-linecap:round;stroke-miterlimit:10;}
	.st16{fill:none;stroke:#000000;stroke-width:2;stroke-linecap:round;stroke-linejoin:round;stroke-miterlimit:10;}
	.st17{fill:none;stroke:#000000;stroke-width:0.5;stroke-linecap:round;stroke-miterlimit:10;}
	.st18{fill:none;stroke:#F2D400;stroke-width:1;stroke-miterlimit:10;}
	.st19{fill:#F2D400;}
	.st20{fill:#FBEBD1;}
	.st21{fill:url(#SVGID_00000006684149722195123420000003633517804292148898_);}
	.st22{fill:url(#SVGID_00000118387804580229859830000000196993979147471787_);}
	.st23{fill:url(#SVGID_00000099634111356364392070000010455448716051119248_);}
	.st24{fill:url(#SVGID_00000164490507052364148730000000005382167693475760_);}
	.st25{fill:url(#SVGID_00000084531323471659322960000010813689716927721614_);}
</style>
<g id="_x30_-HAND_x2B_WP__x5B_SHOVEL_x5D__x2B_">
	<path class="st0" d="M631.73,168.43c1.42,0.51,2.85,1.01,4.27,1.52c1.92,0.68,3.85,1.36,5.85,1.76c2.02,0.4,4.05,0.04,6.08-0.21
		c1.14,0,2.37-0.33,3.49-0.53c1.11-0.2,2.23-0.4,3.31-0.72c1.35-0.41,2.86-0.49,4.25-0.76c1.46-0.28,2.91-0.59,4.35-0.92
		c2.89-0.68,5.75-1.47,8.57-2.38c1.67-0.54,3.32-1.11,4.98-1.69c2.57-0.9,5.13-1.85,7.72-2.69c2.39-0.78,4.57-1.96,6.82-3.09
		c2.18-1.09,4.33-2.22,6.45-3.42c4.21-2.39,8.27-5.07,11.96-8.22s6.98-6.77,9.57-10.87c3.72-5.88,5.79-12.93,4.84-19.85
		c-0.14-1.15-0.37-2.2-0.79-3.27c-0.04-0.11-0.09-0.23-0.18-0.31c-0.07-0.06-0.15-0.1-0.24-0.13c-2.41-0.94-4.78-1.98-7.22-2.85
		c-3.05-1.09-6.16-1.99-9.3-2.74c-3.15-0.75-6.34-1.36-9.54-1.86c-3.19-0.5-6.39-0.89-9.59-1.23c-6.35-0.66-12.73-1.15-19.1-1.63
		c-6.75-0.51-13.51-0.91-20.28-0.95c-1.91-0.01-3.82,0-5.72,0.04c-3.47,0.07-6.93,0.21-10.39,0.44c-1.73,0.11-3.46,0.25-5.19,0.4
		c-0.79,0.07-1.6,0.07-2.38,0.18c-0.81,0.11-1.59,0.36-2.38,0.54c-1.77,0.4-3.6,0.5-5.41,0.56c-0.77,0.03-1.55,0.14-2.33,0.19
		c-0.86,0.05-1.73,0.11-2.59,0.16c-1.73,0.11-3.45,0.24-5.18,0.38c-3.45,0.27-6.9,0.59-10.34,0.96c-3.43,0.37-6.85,0.78-10.26,1.24
		c-3.39,0.46-6.78,0.96-10.16,1.5c-1.73,0.28-3.46,0.57-5.18,0.87c-0.66,0.11-1.31,0.23-1.97,0.35c-0.49,0.09-1.16,0.33-1.64,0.07
		c-0.12-0.07-0.22-0.16-0.32-0.26c-0.6-0.55-1.29-1.02-2.02-1.37c-0.21-0.1-0.42-0.19-0.65-0.21c-0.28-0.03-0.55,0.05-0.82,0.12
		c-1.06,0.29-2.12,0.57-3.21,0.67c-0.2,0.02-0.39,0.03-0.58,0.09c-0.33,0.11-0.6,0.36-0.82,0.63c-0.4,0.51-0.64,1.12-0.86,1.72
		c-0.64,1.83-1.07,3.74-1.91,5.48c-0.17,0.36-0.37,0.72-0.52,1.09c-0.06,0.14-0.11,0.29-0.12,0.45c-0.01,0.28,0.12,0.52,0.29,0.73
		c0.17,0.21,0.28,0.41,0.43,0.63c0.35,0.54,0.98,0.92,1.45,1.35c1.43,1.31,2.86,2.62,4.29,3.93c2.56,2.34,5.11,4.69,7.67,7.03
		c-0.06-0.05-0.45,0.02-0.53,0.02c-0.21,0.01-0.42,0.02-0.63,0.03c-0.4,0.02-0.8,0.04-1.2,0.06c-0.8,0.04-1.6,0.09-2.41,0.14
		c-1.6,0.11-3.2,0.23-4.8,0.38c-3.2,0.29-6.39,0.67-9.57,1.13c-1.16,0.17-2.32,0.34-3.48,0.53c-0.55,0.09-1.17,0.29-1.73,0.29
		c-0.52,0-0.95,0.06-1.43,0.31c-0.42,0.21-0.8,0.49-1.2,0.73c-0.43,0.27-0.89,0.5-1.26,0.85c-0.45,0.43-0.74,0.99-1.02,1.55
		c-0.06,0.13-0.13,0.27-0.09,0.4c0.06,0.22,0.33,0.3,0.56,0.31c0.47,0.03,0.95,0.01,1.42-0.06c0.43-0.06,0.83-0.2,1.27-0.24
		c0.37-0.03,0.76-0.04,1.1,0.11c0.26,0.12,0.48,0.32,0.69,0.52c0.48,0.46,0.85,1.06,1.1,1.68c0.13,0.33,0.24,0.68,0.33,1.02
		c0.08,0.31,0.23,0.69,0.23,1.01c0.08,0.37,0.16,0.75,0.22,1.12c0.5,2.71,0.61,5.49,0.12,8.2c-0.17,0.92-0.26,1.93-0.79,2.72
		c-0.09,0.14-0.2,0.27-0.34,0.34c-0.11,0.05-0.23,0.07-0.34,0.08c-0.7,0.06-1.41-0.08-2.1,0.04c-0.24,0.04-0.51,0.14-0.6,0.37
		c-0.06,0.15-0.03,0.32,0.04,0.46c0.12,0.26,0.35,0.46,0.59,0.63c0.9,0.64,1.87,0.82,2.95,0.74c1.7-0.13,3.4-0.51,5.08-0.78
		c3.74-0.6,7.48-1.19,11.21-1.91c4.79-0.92,9.54-2.02,14.3-3.07c0.67-0.15,1.46-0.08,2.15-0.14c0.74-0.06,1.49-0.12,2.23-0.2
		c1.48-0.15,2.97-0.35,4.44-0.58c1.48-0.23,2.94-0.5,4.41-0.81c0.73-0.15,1.46-0.31,2.19-0.49c0.22-0.05,0.55-0.21,0.78-0.2
		c0.3,0.02,0.62,0.28,0.87,0.42c4.16,2.35,8.01,5.19,12.18,7.52c1.56,0.87,3.15,1.67,4.75,2.46c2.45,1.22,4.9,2.44,7.37,3.61
		c1.22,0.58,2.44,1.18,3.69,1.69c0.45,0.18,0.91,0.2,1.34,0.42c0.62,0.32,1.14,0.79,1.74,1.13c1.6,0.91,3.59,1.37,5.32,1.98
		C630.75,168.09,631.24,168.26,631.73,168.43z"/>
	<path class="st1" d="M635.09,133.11c-0.47-0.57-1.09-0.98-1.76-1.29c-0.71-0.33-1.55-0.7-2.35-0.69c-0.05,0-0.09,0.03-0.14,0.05
		c-1.34-1.05-3.03-1.52-4.69-1.79c-4.35-0.7-8.76-0.78-13.15-0.64c-1.85,0.06-3.7,0.17-5.54,0.3c-0.07-0.15-0.19-0.26-0.39-0.3
		c-2.41-0.44-4.72-1.18-6.86-2.41c-2.22-1.27-4.22-2.9-6.15-4.56c-2.04-1.75-3.98-3.6-5.92-5.46c-0.97-0.93-1.94-1.86-2.89-2.81
		c-0.88-0.89-1.76-2.04-2.87-2.66c-0.13-0.08-0.25,0.07-0.19,0.19c0.52,1.21,1.67,2.24,2.55,3.2c0.98,1.06,1.96,2.13,3,3.14
		c1.99,1.95,4.08,3.81,6.21,5.6c2.91,2.45,6.2,5.1,9.9,6.35c-5.81,0.5-11.61,1.17-17.43,1.56c-1.43,0.1-2.86,0.2-4.29,0.31
		c0.7-0.17,1.42-0.29,2.18-0.26c0.38,0.02,0.37-0.56,0-0.59c-2.88-0.24-5.54,0.92-8.36,1.24c-1.06,0.05-2.11,0.12-3.15,0.23
		c-2.11,0.1-4.24,0.15-6.34,0.28c-3.21,0.2-6.4,0.46-9.6,0.77c-3.08,0.3-6.18,0.53-9.25,0.95c-1.59,0.22-3.16,0.55-4.65,1.13
		c-1.02,0.4-1.91,0.98-2.3,2.03c-0.05,0.07-0.12,0.13-0.17,0.2c-0.26,0.39,0.31,0.78,0.63,0.48c2.14-2.02,5.25-2.17,8.02-2.59
		c1.28-0.2,2.56-0.39,3.84-0.57c1.57-0.14,3.15-0.3,4.72-0.43c1.05-0.08,2.11-0.17,3.16-0.26c1.14,0.11,2.27,0.29,3.41,0.3
		c0.82,0.01,1.57-0.28,2.37-0.33c0.78-0.05,1.51,0.32,2.27,0.45c-1.09,0.37-2.18,0.71-3.3,0.98c-1.5,0.36-3.2,0.48-4.62,1.09
		c-0.97,0.42-1.8,0.77-2.88,0.8c-0.99,0.03-1.98-0.1-2.95-0.24c-0.01,0-0.02,0.02-0.01,0.02c1.57,0.3,3.28,0.62,4.85,0.11
		c0.38-0.12,0.72-0.33,1.09-0.48c0.49-0.2,0.98-0.24,1.5-0.31c0.9-0.12,1.79-0.25,2.68-0.42c3.53-0.65,7.2-1.32,10.45-2.91
		c0.63-0.04,1.26-0.08,1.88-0.12c2.11-0.12,4.23-0.22,6.34-0.36c4.24-0.27,8.47-0.62,12.7-1.01c1.54-0.15,3.08-0.29,4.63-0.43
		c1.16,0.19,2.32,0.36,3.51,0.27c1.15-0.08,2.29-0.32,3.42-0.51c0.14-0.02,0.28-0.05,0.42-0.08c2.32,0.07,4.65,0.37,6.96,0.47
		c1.71,0.07,3.43,0.01,5.14-0.11c1.12-0.08,2.4-0.12,3.46,0.33c0.09,0.36,0.22,0.71,0.38,1.05c0.19,0.39,0.42,0.76,0.68,1.11
		c0.06,0.07,0.12,0.12,0.12,0.21c0,0.09-0.1,0.19-0.16,0.26c-0.13,0.15-0.28,0.3-0.42,0.44c-1.17,1.14-2.55,1.98-4.12,2.42
		c-0.01,0,0,0.01,0,0.01c1.68-0.32,3.29-1.07,4.57-2.22c0.16-0.15,0.32-0.3,0.49-0.45c0.15-0.13,0.3-0.25,0.37-0.43
		c0.07-0.19,0.02-0.38-0.07-0.57c0.64,0.12,1.35,0.08,1.94,0.09c1.34,0.01,2.71,0.01,3.94,0.57c0.24,0.44,0.42,0.92,0.56,1.44
		c0.03,0.09,0.17,0.1,0.19,0c0.07-0.27,0.08-0.55,0.06-0.83c0.05,0.03,0.09,0.07,0.14,0.1c0.11,0.06,0.23,0.1,0.35,0.13
		c0.21,0.06,0.43,0.09,0.65,0.09c0.21,0,0.42-0.04,0.62-0.1c0.2-0.06,0.4-0.13,0.6-0.21c0.08,0.18,0.14,0.36,0.17,0.55
		c0.05,0.35,0.04,0.69-0.04,1.03c-0.04,0.16-0.08,0.31-0.12,0.47c-0.05,0.19-0.04,0.39-0.09,0.58c-0.02,0.08,0.09,0.13,0.13,0.06
		c0.11-0.19,0.27-0.31,0.36-0.51c0.08-0.16,0.15-0.33,0.21-0.5c0.12-0.35,0.22-0.75,0.19-1.12
		C635.83,134.28,635.53,133.65,635.09,133.11z"/>
	<path class="st1" d="M623.31,139c-3.42,0.68-6.78,1.62-10.21,2.29s-6.87,1.22-10.32,1.77c-3.48,0.55-6.96,1.09-10.43,1.65
		c-1.74,0.28-3.48,0.59-5.22,0.87c-1.8,0.3-3.63,0.4-5.43,0.71c-1.94,0.32-3.88,0.65-5.84,0.87c-1.94,0.23-3.73,0.07-5.65-0.18
		c-0.04-0.01-0.06,0.02-0.05,0.06c-0.44-0.14-0.87-0.3-1.31-0.45c-1.1-0.37-2.2-0.76-3.31-1.1c-2.28-0.7-4.69-1.34-6.83-2.41
		c-1.88-0.94-4-1.83-6.05-2.35c-1.56-0.39-3.72-0.57-5.05,0.54c-0.13,0.11,0.01,0.34,0.17,0.29c0.96-0.31,1.79-0.53,2.82-0.44
		c1.09,0.1,2.14,0.53,3.14,0.94c0.93,0.39,1.85,0.8,2.8,1.15c1.08,0.39,2.18,0.64,3.27,0.99c2.07,0.68,4.09,1.49,6.15,2.2
		c1.04,0.36,2.09,0.71,3.17,0.93c0.96,0.19,2.02,0.44,3,0.45c0.09,0,0.14-0.08,0.14-0.16c0.89,0.12,1.8,0.16,2.66,0.17
		c1.64,0.01,3.26-0.2,4.89-0.44c3.59-0.52,7.14-1.23,10.73-1.77c7.11-1.08,14.23-2.12,21.3-3.41c3.86-0.7,7.9-1.38,11.57-2.8
		C623.63,139.28,623.55,138.95,623.31,139z"/>
	<path class="st1" d="M619.28,137.28c-0.53,0.1-1.06,0.19-1.58,0.34s-1.03,0.31-1.54,0.49c-0.02,0.01-0.01,0.04,0.01,0.03
		c0.52-0.15,1.04-0.28,1.56-0.4s1.04-0.27,1.56-0.39C619.35,137.34,619.33,137.27,619.28,137.28z"/>
	<path class="st1" d="M579.44,120.38c-0.6-0.82-1.46-1.43-2.23-2.08c-0.87-0.73-1.74-1.46-2.61-2.19c-1.71-1.41-3.4-2.84-5.14-4.21
		c-0.81-0.64-1.63-1.26-2.45-1.89c-0.79-0.6-1.58-1.31-2.47-1.75c-0.86-0.42-1.72-0.42-2.65-0.26c-1,0.16-2.14,0.24-3.07,0.66
		c-0.1,0.05-0.07,0.22,0.03,0.24c0.92,0.2,1.91,0.03,2.84,0.01c1.08-0.02,1.91,0.22,2.79,0.85c1.69,1.2,3.28,2.54,4.91,3.81
		c1.58,1.23,3.15,2.48,4.68,3.76c0.75,0.62,1.49,1.25,2.23,1.88c0.77,0.65,1.5,1.44,2.39,1.92
		C579.13,121.37,579.79,120.85,579.44,120.38z"/>
	<path class="st1" d="M562.96,124.1c-0.94-1.01-2.03-1.87-3-2.85c-0.97-0.99-1.88-2.03-2.78-3.08c-0.22-0.26-0.47-0.52-0.67-0.79
		c-0.32-0.45-0.37-0.67-0.23-1.19c0.2-0.73,0.43-1.46,0.64-2.2s0.36-1.48,0.59-2.21c0.21-0.66,0.4-1.28,0.47-1.97
		c0.01-0.09-0.12-0.11-0.17-0.05c-0.42,0.68-0.65,1.4-0.91,2.15c-0.29,0.81-0.66,1.6-0.97,2.4c-0.28,0.73-0.69,1.5-0.78,2.28
		c-0.08,0.66,0.26,1.24,0.65,1.75c0.94,1.23,1.98,2.35,3.09,3.42c1.1,1.05,2.26,2.2,3.58,2.96
		C562.88,124.95,563.26,124.43,562.96,124.1z"/>
	<path class="st1" d="M648.66,159.91c-5.44-1.86-10.57-4.44-15.67-7.08c-2.57-1.33-5.15-2.62-7.76-3.88
		c-2.54-1.23-5.07-2.55-7.67-3.65c-0.42-0.18-0.86-0.3-1.29-0.43c-0.06-0.03-0.13-0.04-0.19-0.06c-1.88-0.51-3.87-0.56-5.79-0.18
		c-0.07-0.17-0.24-0.29-0.45-0.22c-0.37,0.12-0.69,0.34-1,0.59c-0.08,0.03-0.17,0.04-0.25,0.07c-0.11,0.04-0.14,0.15-0.12,0.24
		c-0.04,0.04-0.09,0.08-0.13,0.12c-0.01,0-0.01,0-0.02,0c-0.09-0.01-0.13,0.06-0.13,0.14c-0.5,0.46-0.96,0.95-1.44,1.41
		c-0.5,0.48-0.95,0.99-1.47,1.45c-0.54,0.48-1.07,0.97-1.6,1.47c-0.09,0.09,0.03,0.23,0.13,0.17c0.61-0.33,1.18-0.69,1.73-1.11
		c0.56-0.42,1.15-0.81,1.68-1.27c0.5-0.44,0.98-0.89,1.48-1.33c0.15-0.14,0.31-0.26,0.47-0.39c0.01,0,0.03,0,0.04,0
		c0.33,0.1,0.64,0.2,0.99,0.25c0.41,0.05,0.82,0.11,1.23,0.16c0.84,0.11,1.69,0.18,2.54,0.26c0.51,0.05,1.01,0.09,1.52,0.14
		c0.86,0.19,1.72,0.4,2.53,0.66c2.16,0.69,3.99,2,5.82,3.31c1.78,1.27,3.62,2.43,5.69,3.18c1.07,0.39,2.2,0.64,3.29,0.98
		c0.98,0.31,2.03,0.74,3.06,0.94c1.26,0.63,2.52,1.26,3.78,1.86c2.81,1.34,5.67,2.56,8.64,3.48
		C649.13,161.43,649.46,160.18,648.66,159.91z"/>
	<path class="st1" d="M651.13,161.26c-0.27-0.03-0.54-0.01-0.82,0.03c-0.17-0.22-0.38-0.42-0.63-0.55c-0.3-0.15-0.67,0.17-0.48,0.48
		c0.04,0.07,0.09,0.14,0.14,0.21c-0.36,0.05-0.72,0.1-1.07,0.15c-0.49,0.07-0.98,0.14-1.47,0.21c-0.37,0.05-0.74,0.14-1.05,0.35
		c-0.72,0.47-0.7,1.31-0.77,2.08c-0.04,0.47-0.03,0.94-0.08,1.4c-0.05,0.49-0.1,0.97-0.11,1.46c0,0.08,0.12,0.1,0.14,0.02
		c0.22-0.83,0.34-1.68,0.55-2.51c0.15-0.59,0.09-1.56,0.85-1.69c0.76-0.12,1.56-0.13,2.33-0.19c0.41-0.04,0.82-0.07,1.23-0.11
		c0.05,0,0.1-0.01,0.15-0.01c0.18,0.37,0.32,0.75,0.45,1.13c0.33,1.03,0.48,2.1,0.96,3.09c0.03,0.06,0.13,0.02,0.11-0.05
		c-0.31-1.12-0.32-2.29-0.48-3.44c-0.04-0.27-0.1-0.56-0.19-0.84c0.13-0.02,0.27-0.04,0.39-0.08
		C651.92,162.17,651.78,161.34,651.13,161.26z"/>
	<path class="st1" d="M671.79,160.98c-6.14,1.2-12.57-0.91-18.26-3.05c-2.9-1.09-5.75-2.26-8.52-3.67c-2.7-1.38-5.36-2.85-8.03-4.29
		c-2.85-1.53-5.59-3.24-8.12-5.26c-0.09-0.07-0.25,0.02-0.17,0.13c1.66,2.28,3.99,3.83,6.41,5.21c2.78,1.58,5.65,3,8.48,4.47
		c5.6,2.92,11.57,5.52,17.74,6.95c3.57,0.83,7.09,0.96,10.7,0.3C672.53,161.69,672.31,160.88,671.79,160.98z"/>
	<path class="st1" d="M720.75,113.99c-0.1,0.14-0.18,0.28-0.26,0.37c-0.31,0.37-0.57,0.74-0.92,1.06c-0.72,0.66-1.56,1.16-2.38,1.68
		c-1.39,0.88-2.85,1.64-4.38,2.24c-4.08,1.6-8.48,2.34-12.83,2.7c-0.07,0.01-0.15,0.02-0.18,0.07c-0.03,0.04-0.02,0.1-0.02,0.15
		c0.04,0.27,0.12,0.54,0.24,0.78c2.63-0.14,5.17-0.62,7.74-1.09c0.78-0.14,1.56-0.34,2.32-0.57c1.52-0.45,3-1.07,4.42-1.78
		s2.82-1.5,4.09-2.46c0.81-0.62,3.3-2.32,2.6-3.6C721.04,113.59,720.89,113.79,720.75,113.99z"/>
	<path class="st1" d="M646.15,131.35c-1.67,0.34-3.3,0.81-4.99,1.09c-0.84,0.13-1.69,0.24-2.53,0.41c-0.8,0.17-1.74,0.33-2.43,0.77
		c-0.28,0.18-0.17,0.63,0.17,0.63c0.84,0.02,1.72-0.23,2.55-0.35c0.87-0.13,1.75-0.28,2.62-0.42c1.89-0.31,3.71-0.84,5.59-1.23
		c0.08-0.02,0.16-0.04,0.21-0.09c-0.14-0.2-0.29-0.4-0.45-0.58c-0.08-0.09-0.16-0.19-0.27-0.23
		C646.47,131.29,646.31,131.31,646.15,131.35z"/>
	<path class="st1" d="M649.47,144.16c-2.04-0.23-4.07-0.46-6.1-0.77c-1.97-0.3-3.93-0.71-5.9-0.98c-0.05-0.01-0.07,0.06-0.02,0.08
		c1.94,0.71,3.98,1.12,6.02,1.41c1.98,0.28,4,0.47,6,0.47C649.61,144.37,649.6,144.18,649.47,144.16z"/>
	<path class="st1" d="M620.66,123.43c-2.97-0.34-5.95-0.69-8.88-1.35c-0.07-0.02-0.1,0.09-0.03,0.11c2.92,0.79,5.88,1.39,8.91,1.49
		C620.82,123.69,620.81,123.45,620.66,123.43z"/>
	<path class="st1" d="M675.29,107.31c-2.84-0.68-5.7-1.05-8.61-1.27c-0.08-0.01-0.08,0.12,0,0.13c2.86,0.33,5.71,0.86,8.53,1.43
		C675.39,107.63,675.47,107.36,675.29,107.31z"/>
	<path class="st1" d="M724.97,118.9c0-0.04-0.01-0.07-0.01-0.11c-0.01-0.11-0.02-0.22-0.04-0.33c-0.02-0.18-0.05-0.37-0.08-0.56
		c-0.02-0.14-0.05-0.29-0.07-0.43c-0.13-0.76-0.3-1.49-0.56-2.21c-0.19-0.52-0.42-1.04-0.73-1.5c0.02-0.07,0.03-0.16,0-0.25
		c-0.34-1.28-1.59-1.6-2.71-1.96c-1.62-0.52-3.24-1.02-4.86-1.52c-3.24-1-6.52-1.91-9.82-2.71c-3.3-0.81-6.62-1.52-9.97-2.1
		c-0.87-0.15-1.76-0.32-2.65-0.49c0.07-0.36-0.13-0.8-0.6-0.84c-18.12-1.63-36.24-2.34-54.43-1.87c-2.54,0.07-5.08,0.16-7.61,0.28
		c-2.16,0.11-4.32,0.19-6.45,0.51c-0.06-0.03-0.12-0.04-0.19-0.04c-3.61-0.07-7.3,0.46-10.89,0.79c-3.63,0.34-7.25,0.71-10.87,1.12
		c-7.21,0.82-14.39,1.81-21.57,2.87c-1.97,0.29-3.94,0.58-5.91,0.91c-2.06,0.35-4.18,0.6-6.15,1.29c-0.31,0.11-0.26,0.56,0.08,0.58
		c1.82,0.07,3.62-0.26,5.42-0.49c1.76-0.23,3.52-0.48,5.27-0.75c3.61-0.54,7.23-1.07,10.85-1.58c7.28-1.01,14.57-1.89,21.88-2.62
		c1.98-0.2,3.96-0.39,5.94-0.57c2.02-0.18,4.07-0.27,6.07-0.62c0,0,0,0,0.01,0c2,0.07,4-0.06,6.01-0.15
		c2.21-0.1,4.41-0.18,6.62-0.25c4.53-0.15,9.05-0.24,13.58-0.23c9.06,0.01,18.11,0.31,27.15,0.87c3.23,0.2,6.45,0.45,9.67,0.72
		c2.68,0.66,5.5,0.89,8.2,1.41c3.13,0.6,6.24,1.26,9.34,2c3.1,0.74,6.17,1.58,9.22,2.49c1.53,0.46,3.04,0.94,4.55,1.46
		c0.7,0.24,1.4,0.49,2.1,0.74c0.01,0,0.02,0.01,0.03,0.01c0,0.06,0.01,0.12,0.04,0.18c0.04,0.17,0.16,0.32,0.32,0.38
		c0.15,0.17,0.28,0.37,0.37,0.57c0.08,0.17,0.14,0.34,0.21,0.5c-0.01,0.04-0.02,0.07-0.01,0.11c0,0.04,0.02,0.08,0.02,0.12
		c0,0,0,0-0.01,0c0.35,1.61,0.47,3.32,0.49,4.98c-0.01,0.02-0.03,0.03-0.04,0.05c-0.59,1.65-0.63,3.56-0.85,5.29
		c-0.01,0.09,0.02,0.17,0.07,0.25c-0.65,1.93-1.23,3.88-2.01,5.75c-1.26,3.06-2.97,5.95-5.54,8.09c-0.28,0.24-0.17,0.62,0.07,0.83
		c-0.6,0.64-1.23,1.27-1.9,1.83c-1.09,0.92-2.25,1.75-3.38,2.62c-1,0.78-2.39,1.64-2.98,2.78c-0.06,0.11-0.05,0.23-0.01,0.33
		c-2.03,1.46-4.11,2.81-6.32,4.01c-5.44,2.95-11.02,5.6-16.78,7.88c-3.06,1.21-6.25,2.14-9.29,3.39c-0.32-0.15-0.69-0.01-1.01,0.1
		c-0.66,0.22-1.31,0.48-1.96,0.72c-0.44,0.16-0.89,0.31-1.33,0.46c-0.91,0.08-1.81,0.3-2.69,0.5c-1.31,0.3-2.61,0.67-3.9,1.04
		c-0.58,0.17-1.15,0.35-1.72,0.52c-0.1-0.04-0.2-0.06-0.33-0.02c-0.97,0.3-1.93,0.65-2.88,1.01c-0.48,0.15-0.97,0.29-1.47,0.39
		c-0.53-0.01-1.06,0.06-1.6,0.22c-0.06,0.02-0.09,0.06-0.13,0.1c-0.21,0-0.42,0-0.63,0.02c-0.82,0.07-1.64,0.73-1.27,1.62
		c0.01,0.03,0.03,0.05,0.04,0.07c-0.1,0.02-0.2,0.05-0.3,0.07c-0.66,0.15-0.38,1.19,0.28,1.02c5.64-1.43,11.36-2.54,16.99-4
		c5.12-1.33,10.12-2.97,15.01-4.99c6.8-2.8,13.31-6.36,19.33-10.6c1.69-1.03,3.51-2.08,4.95-3.45c0.11-0.1,0.1-0.23,0.06-0.33
		c0.42-0.34,0.85-0.67,1.26-1.01c2.18-1.81,4.41-3.59,6.34-5.68c1.87-2.03,3.59-4.04,4.5-6.68c0.01-0.04-0.02-0.06-0.05-0.06
		c0.67-1.13,1.3-2.28,1.81-3.47c0.9-2.13,1.28-4.24,1.65-6.5c0.18-1.13,0.48-2.23,0.68-3.36c0.04-0.23,0.06-0.45,0.08-0.67
		c0.01-0.03,0.04-0.05,0.04-0.09C725.01,119.45,725,119.17,724.97,118.9z"/>
	
		<linearGradient id="SVGID_1_" gradientUnits="userSpaceOnUse" x1="542.4897" y1="658.579" x2="543.2568" y2="664.2629" gradientTransform="matrix(1 0 0 -1 0 799.8898)">
		<stop  offset="1.074735e-03" style="stop-color:#6F6F6E"/>
		<stop  offset="1" style="stop-color:#A6ABB5"/>
	</linearGradient>
	<path class="st2" d="M542.48,136.68c0.26-0.09,0.55,0.03,0.8,0.14c0.24,0.11,0.49,0.23,0.73,0.34c0.13,0.06,0.29,0.19,0.23,0.33
		c-0.02,0.03-0.04,0.06-0.07,0.08c-0.26,0.21-0.62,0.26-0.95,0.27c-0.33,0.01-1.33,0.32-1.46-0.02
		C541.63,137.47,542.18,136.77,542.48,136.68z"/>
	
		<linearGradient id="SVGID_00000039836328237510218860000002177487869805179797_" gradientUnits="userSpaceOnUse" x1="588.8505" y1="663.1532" x2="589.7077" y2="643.0496" gradientTransform="matrix(1 0 0 -1 0 799.8898)">
		<stop  offset="0.1283" style="stop-color:#6F6F6E"/>
		<stop  offset="1" style="stop-color:#A6ABB5"/>
	</linearGradient>
	<path style="fill:url(#SVGID_00000039836328237510218860000002177487869805179797_);" d="M635.78,137.17
		c-0.7,1.65-2.31,2.7-3.89,3.55c-3.83,2.07-8,3.54-12.28,4.33c-0.8,0.15-1.66,0.26-2.38-0.1c-0.58-0.29-0.98-0.84-1.55-1.14
		c-0.61-0.32-1.33-0.32-2.01-0.27c-4.34,0.35-8.46,2.8-10.83,6.45c-2.16-1.42-4.64-2.9-7.16-2.35c-0.81,0.18-1.57,0.56-2.34,0.86
		c-1.53,0.59-3.15,0.88-4.77,1.17c-13.32,2.35-26.65,4.6-40,6.75c-2.33,0.38-5.37,0.38-6.26-1.81c1,0.09,1.82,0.07,2.71-0.36
		c0.7-0.34,1.47-0.41,1.62-1.29c0.16-0.96,0.32-1.93,0.48-2.89c0.07-0.45,0.15-0.9,0.13-1.35c-0.02-0.45-0.13-0.9-0.19-1.35
		c-0.24-1.74,0.21-3.5,0.7-5.19c0.18-0.63,0.39-1.28,0.87-1.73c0.77-0.71,1.98-0.62,3-0.37c1.84,0.46,3.55,1.32,5.28,2.1
		c3.78,1.69,7.72,2.99,11.68,4.16c4.03,1.2,7.82,0.76,11.92,0.08c6.43-1.06,12.85-2.12,19.28-3.18c5.23-0.86,10.46-1.72,15.63-2.88
		c2.66-0.59,5.33-1.27,8.05-1.36c1.6-0.05,3.19,0.07,4.78-0.17c1.3-0.19,2.39-0.77,3.47-1.54c0.57-0.4,1.13-0.89,1.37-1.55
		c0.22-0.62,0.13-1.31-0.13-1.92s-0.67-1.13-1.09-1.63c-0.12-0.14-0.24-0.31-0.24-0.49c0.05-1.03,2.35-0.1,2.72,0.19
		C635.87,133.11,636.55,135.36,635.78,137.17z"/>
	
		<linearGradient id="SVGID_00000026165082797634719810000007859027530858435752_" gradientUnits="userSpaceOnUse" x1="570.6984" y1="682.8732" x2="562.2454" y2="667.8112" gradientTransform="matrix(1 0 0 -1 0 799.8898)">
		<stop  offset="1.074735e-03" style="stop-color:#6F6F6E"/>
		<stop  offset="0.1343" style="stop-color:#828487"/>
		<stop  offset="0.2878" style="stop-color:#92959B"/>
		<stop  offset="0.461" style="stop-color:#9DA2AA"/>
		<stop  offset="0.6684" style="stop-color:#A4A9B2"/>
		<stop  offset="1" style="stop-color:#A6ABB5"/>
	</linearGradient>
	<path style="fill:url(#SVGID_00000026165082797634719810000007859027530858435752_);" d="M556.35,113.09
		c-0.57,0.97-1.12,1.93-1.33,3.02c-0.07,0.37-0.1,0.75-0.01,1.11c0.1,0.42,0.35,0.78,0.61,1.13c1.77,2.37,4.1,4.22,6.41,6.04
		c2.47,1.94,4.6,4.28,6.85,6.49c0.13,0.13,0.27,0.27,0.45,0.34c0.13,0.05,0.27,0.07,0.41,0.08c3,0.27,6-0.11,9-0.31
		c0.63-0.04,1.36-0.14,1.7-0.67c0.16-0.26,0.2-0.57,0.24-0.88c0.19-1.48,0.46-2.97,1.06-4.33c0.12-0.26,0.25-0.55,0.19-0.83
		c-0.06-0.31-0.33-0.54-0.62-0.64s-0.61-0.1-0.93-0.09c-0.46,0.01-0.92,0.02-1.39,0.03c-0.77,0.02-1.57,0.04-2.29,0.3
		c-0.64,0.23-0.89,0.24-1.46-0.19c-1.38-1.06-2.67-2.23-3.96-3.4c-2.37-2.15-4.74-4.3-7.11-6.46c-1.7-1.55-3.65-2.73-5.18-4.48
		c-0.24-0.27-0.48-0.56-0.81-0.69c-0.21,0.83-0.42,1.66-0.76,2.45C557.13,111.79,556.74,112.44,556.35,113.09z"/>
	
		<linearGradient id="SVGID_00000138562948481171938370000008799927193386009767_" gradientUnits="userSpaceOnUse" x1="625.7291" y1="650.3936" x2="619.6256" y2="628.5866" gradientTransform="matrix(1 0 0 -1 0 799.8898)">
		<stop  offset="1.074735e-03" style="stop-color:#6F6F6E"/>
		<stop  offset="0.1352" style="stop-color:#838587"/>
		<stop  offset="0.2849" style="stop-color:#92969C"/>
		<stop  offset="0.455" style="stop-color:#9EA2AA"/>
		<stop  offset="0.6607" style="stop-color:#A4A9B2"/>
		<stop  offset="1" style="stop-color:#A6ABB5"/>
	</linearGradient>
	<path style="fill:url(#SVGID_00000138562948481171938370000008799927193386009767_);" d="M643.97,161.92
		c-2.07-0.33-4.04-1.06-5.98-1.85c-1.82-0.75-3.57-1.37-5.34-2.26c-3.94-1.99-7.88-3.98-11.83-5.96c-0.77-0.39-1.53-0.77-2.3-1.16
		c-3.34-1.68-6.68-3.36-10.02-5.04c-0.23-0.11-0.47-0.23-0.72-0.22c-0.39,0.01-0.7,0.31-0.98,0.58c-0.69,0.69-1.34,1.37-1.93,2.14
		c-0.44,0.57-1.17,1.32-1.92,1.39c-0.88,0.09-1.56-0.69-2.26-1.23c-1.89-1.46-4.88-1.22-6.52,0.51c1.01,0.66,2.02,1.31,3.03,1.96
		c9.97,6.38,20.47,11.91,31.37,16.53c3.66,1.55,7.38,3,11.28,3.74s8.02,0.73,11.76-0.59c0.04-1.63,0.05-3.27-0.01-4.9
		c-0.04-1,0.24-3.57-0.74-4.2c-0.31-0.2-0.69-0.25-1.06-0.28c-0.86-0.07-1.72-0.07-2.57,0.02c-0.32,0.03-0.66,0.08-0.96,0.2
		c-0.06,0.03-0.13,0.06-0.19,0.09c-0.23,0.13-0.43,0.32-0.67,0.43C644.99,162.05,644.46,162,643.97,161.92z"/>
	
		<linearGradient id="SVGID_00000129895376269046738250000015985397987458136244_" gradientUnits="userSpaceOnUse" x1="702.8" y1="705.6661" x2="634.5228" y2="610.9339" gradientTransform="matrix(1 0 0 -1 0 799.8898)">
		<stop  offset="1.074735e-03" style="stop-color:#6F6F6E"/>
		<stop  offset="0.0363" style="stop-color:#787879"/>
		<stop  offset="0.1244" style="stop-color:#898B8F"/>
		<stop  offset="0.2279" style="stop-color:#9699A0"/>
		<stop  offset="0.3551" style="stop-color:#9FA4AC"/>
		<stop  offset="0.5316" style="stop-color:#A5A9B3"/>
		<stop  offset="1" style="stop-color:#A6ABB5"/>
	</linearGradient>
	<path style="fill:url(#SVGID_00000129895376269046738250000015985397987458136244_);" d="M705.03,121.4
		c-1.29,0.24-2.59,0.46-3.86,0.71c-0.52,0.1-1.05,0.2-1.56,0.09c-1.05-0.23-1.72-1.27-2.71-1.7c-0.73-0.32-1.55-0.27-2.34-0.22
		c-2.67,0.17-5.34,0.34-8,0.51c-1.08,0.07-2.17,0.14-3.23,0.37c-2.87,0.61-5.4,2.34-8.26,3.02c0.04-0.26-0.32-0.37-0.58-0.38
		c-1.58-0.06-3.17-0.12-4.75-0.19c-2.43-0.1-4.99-0.16-7.11,1.02c-0.87,0.48-1.73,1.18-2.71,1.06c-0.38-0.04-0.74-0.21-1.09-0.38
		c-1.63-0.77-3.27-1.55-4.9-2.32c0.3-1.18-0.92-2.46-2.11-2.23c0.68-1.01,1.37-2.03,2.05-3.04c0.54-0.8,0.97-1.59,1.76-2.15
		c1.69-1.2,3.42-2.1,5.39-2.77c1.12-0.38,2.35-0.77,2.98-1.77c0.13-0.2,0.23-0.43,0.42-0.58c0.13-0.1,0.3-0.16,0.46-0.21
		c2.8-0.86,5.76-1.03,8.64-1.44c1.41-0.2,2.84-0.56,4.25-0.66c1.54-0.12,3.09-0.08,4.63,0c8.28,0.44,16.48,1.92,24.56,3.78
		c0.17,0.04,0.35,0.09,0.44,0.24c0.07,0.12,0.04,0.28,0.02,0.42c-0.21,1.07-0.42,2.15-0.64,3.22c4.11,0.86,8.33-0.47,12.3-1.86
		c0.48-0.17,1.17-0.25,1.36,0.22c0.08,0.19-1.55,1.47-1.75,1.64c-0.63,0.52-1.29,1-1.97,1.44c-1.4,0.9-2.89,1.64-4.43,2.25
		C709.94,120.42,707.49,120.94,705.03,121.4z"/>
	
		<linearGradient id="SVGID_00000023266450483901322810000001817769003917634700_" gradientUnits="userSpaceOnUse" x1="669.1661" y1="674.2415" x2="680.3081" y2="578.7269" gradientTransform="matrix(1 0 0 -1 0 799.8898)">
		<stop  offset="1.074735e-03" style="stop-color:#6F6F6E"/>
		<stop  offset="0.0217" style="stop-color:#78797A"/>
		<stop  offset="0.0698" style="stop-color:#898B90"/>
		<stop  offset="0.1266" style="stop-color:#969AA1"/>
		<stop  offset="0.1968" style="stop-color:#9FA4AC"/>
		<stop  offset="0.2953" style="stop-color:#A5A9B3"/>
		<stop  offset="0.5689" style="stop-color:#A6ABB5"/>
	</linearGradient>
	<path style="fill:url(#SVGID_00000023266450483901322810000001817769003917634700_);" d="M629.57,141.48
		c1.79-0.71,3.57-1.56,4.91-2.94c0.72-0.75,1.31-1.68,1.6-2.69c0.21-0.72-0.37-2.09,0.28-2.59c0.17-0.13,0.38-0.17,0.58-0.21
		c1.9-0.39,3.84-0.94,5.76-1.19c1.83-0.24,3.68-0.42,5.51-0.64c0.31-0.04,0.61-0.08,0.92-0.03c0.27,0.04,0.52,0.15,0.77,0.26
		c3.35,1.58,5.64,5.11,9.2,6.13c1.62,0.46,3.34,0.35,5.02,0.38c2.06,0.03,4.1,0.28,6.14,0.53c0.6,0.07,1.41,0.45,1.19,1.02
		c3.55-0.28,7.08-0.73,10.59-1.33c0.86-0.15,1.74-0.31,2.52-0.73c0.62-0.33,1.14-0.8,1.64-1.29c2.5-2.43,4.58-5.3,6.11-8.44
		c0.37-0.76,0.69-1.7,0.21-2.39c0.74-0.43,1.5-0.83,2.28-1.2c3.8-1.81,7.68-2.52,11.82-2.97c0.8-0.09,1.63-0.43,2.43-0.63
		c0.96-0.24,1.91-0.52,2.84-0.86c1.86-0.68,3.63-1.57,5.27-2.67c0.68-0.45,1.41-0.94,1.95-1.56c0.19-0.21,0.27-0.46,0.48-0.68
		c0.23-0.22,0.59-0.35,0.85-0.53c-0.68,2.43-1.57,4.2-3.54,5.89c-1.69,1.46-3.62,2.66-5.07,4.36c1.98,1.83,3.65,4,4.92,6.38
		c-1.49,0.08-2.77,1.03-3.94,1.96c-2.06,1.65-4.06,3.38-5.99,5.2c-3.63,3.44-7.01,7.23-9.38,11.63c-3.45,1.06-6.96,1.34-10.57,1.33
		c-6.25-0.02-12.52,0.29-18.75-0.2c-3.75-0.29-7.47-0.87-11.19-1.45c6.43,4.93,14.13,8.18,22.14,9.35c0,0.23-0.21,0.41-0.4,0.54
		c-1.87,1.26-4.13,1.8-6.38,2.02s-4.35-0.1-6.59-0.26c-2.44-0.17-4.89-0.2-7.34-0.08c-0.29,0.01-0.59,0.04-0.82,0.22
		c-0.17,0.14-0.27,0.35-0.34,0.56c-0.48,1.35-0.38,2.83-0.35,4.26c0.01,0.27,0.01,0.56-0.14,0.79c-0.19,0.28-0.55,0.38-0.87,0.46
		c-0.98,0.23-1.95,0.46-2.93,0.7c-0.14,0.03-0.29,0.07-0.42,0.01c-0.25-0.1-0.31-0.42-0.32-0.69c-0.09-1.34,0.14-2.6-0.34-3.88
		c-0.46-1.22-1.23-2.44-2.25-3.26c-1.57-1.36-3.6-2.06-5.56-2.75c-5.14-1.83-10.2-3.88-15.15-6.16c-2.51-1.15-4.99-2.36-7.44-3.62
		c-0.8-0.41-2.47-0.86-2.54-1.93c-0.08-1.08,1-1.33,1.81-1.52C623.7,143.43,626.69,142.62,629.57,141.48z"/>
	
		<linearGradient id="SVGID_00000008112695029778944790000001491529615572555684_" gradientUnits="userSpaceOnUse" x1="617.1892" y1="703.175" x2="609.4499" y2="658.3456" gradientTransform="matrix(1 0 0 -1 0 799.8898)">
		<stop  offset="1.074735e-03" style="stop-color:#6F6F6E"/>
		<stop  offset="0.0844" style="stop-color:#78797A"/>
		<stop  offset="0.2975" style="stop-color:#8C8F94"/>
		<stop  offset="0.5175" style="stop-color:#9B9FA6"/>
		<stop  offset="0.7468" style="stop-color:#A3A8B1"/>
		<stop  offset="1" style="stop-color:#A6ABB5"/>
	</linearGradient>
	<path style="fill:url(#SVGID_00000008112695029778944790000001491529615572555684_);" d="M658.36,110.28
		c-3.53,1.53-7.23,2.64-10.81,4.06c-5.14,2.04-10.33,4.05-15.73,5.3c-4.63,1.07-9.39,1.59-14.14,1.51c0.03-2.24,0.05-4.49,0.08-6.73
		c0.01-0.67,0.01-1.37-0.33-1.94c-0.39-0.66-1.14-1.01-1.86-1.3c-6.19-2.43-12.98-2.77-19.62-3.08c2.59,2.16,4,5.65,3.63,9
		c-0.05,0.43-5.18-1.57-5.59-1.78c-1.83-0.91-3.59-1.97-5.46-2.81c-0.52-0.23-1.01-0.43-1.57-0.51c2.9,5.01,6.67,9.7,10.41,14.1
		c-0.77-0.27-1.36-0.88-1.96-1.44c-2.37-2.21-5.33-3.82-7.32-6.39c-0.5-0.65-0.94-1.35-1.5-1.95c-0.48-0.51-1.05-0.94-1.46-1.51
		c-0.52-0.71-0.77-1.59-1.29-2.29c-0.97-1.32-1.92-0.7-3.19-0.57c-1.66,0.16-3.34,0.19-5,0.4c-1.6,0.2-3.19,0.42-4.79,0.68
		c3.5,2.74,6.83,5.68,9.97,8.82c0.47,0.47,0.95,0.98,1.07,1.63c0.1,0.58-0.1,1.16-0.3,1.71c-0.67,1.81-1.33,3.63-2,5.44
		c6.36-0.32,12.72-0.63,19.08-0.95c6.1-0.3,12.21-0.61,18.32-0.52c3.4,0.05,6.8,0.23,10.15,0.82c1.68,0.3,3.34,0.7,4.95,1.25
		c0.8,0.27,1.59,0.58,2.37,0.92c0.69,0.3,1.31,0.73,2.07,0.87c0.06,0.01,0.13,0.02,0.19,0.03c0.62,0.07,1.24-0.03,1.85-0.14
		c3.02-0.52,6.04-1.03,9.06-1.55c-0.11-1.27,0.16-2.57,0.78-3.68c0.26-0.48,0.59-0.94,0.69-1.47c0.3-1.65-1.49-3.02-1.26-4.65
		c0.07-0.5,0.38-0.93,0.69-1.32C651.44,116.57,655.45,113.92,658.36,110.28z"/>
	
		<linearGradient id="SVGID_00000113354411677292039870000014526765109539745185_" gradientUnits="userSpaceOnUse" x1="597.3831" y1="687.528" x2="596.6024" y2="634.1065" gradientTransform="matrix(1 0 0 -1 0 799.8898)">
		<stop  offset="1.074735e-03" style="stop-color:#6F6F6E"/>
		<stop  offset="2.959850e-03" style="stop-color:#6F6F6E"/>
		<stop  offset="0.1359" style="stop-color:#838588"/>
		<stop  offset="0.2823" style="stop-color:#93969C"/>
		<stop  offset="0.4495" style="stop-color:#9EA2AA"/>
		<stop  offset="0.6537" style="stop-color:#A4A9B3"/>
		<stop  offset="1" style="stop-color:#A6ABB5"/>
	</linearGradient>
	<path style="fill:url(#SVGID_00000113354411677292039870000014526765109539745185_);" d="M628.35,138.88
		c-1.7,0.3-2.87-0.2-4.48-0.38c-1.48-0.16-2.99,0.17-4.39,0.61c-1.99,0.63-3.93,1.5-6.01,1.64c-2.29,0.15-4.58-0.59-6.87-0.36
		c2.61-2.54,5.71-4.59,9.07-6.01c-9.59,1-19.18,2-28.78,3.01c-2.96,0.31-5.93,0.62-8.91,0.7c-5.64,0.16-11.29-0.49-16.93-0.18
		c1.79-0.47,3.58-0.92,5.38-1.34c6.43-1.49,12.95-2.62,19.5-3.38c6.34-0.73,12.88-0.59,19.28-0.28c3.09,0.15,6.2,0.4,9.25-0.1
		c2.4-0.4,4.59-0.94,6.82-1.98c-0.6-0.82-1.37-1.51-2.25-2.02c2.48-0.16,5.01-0.21,7.42,0.43c1.52,0.41,2.99,1.12,4.17,2.16
		c0.88,0.78,2.25,2.15,2.38,3.36C633.23,136.97,630.1,138.57,628.35,138.88z"/>
	<path class="st10" d="M546.66,153.41c0.01-0.03,0.01-0.07,0.01-0.1c-0.04-0.16-0.02-0.33,0.07-0.49c0.05-0.42,0.07-0.85,0.12-1.28
		c0.09-0.76,0.38-1.43,0.43-2.2c0.04-0.7,0.03-1.41,0.02-2.11c0-0.02,0.01-0.03,0.01-0.05c-0.06-0.21-0.13-0.43-0.18-0.66
		c-0.23-0.99-0.25-2.04-0.4-3.04c-0.07-0.5-0.17-1-0.28-1.5c-0.16-0.48-0.32-0.96-0.47-1.45c-0.05-0.14-0.13-0.42-0.21-0.72
		c-0.37-0.83-0.92-1.62-1.46-2.33c-0.01-0.02-0.02-0.03-0.03-0.05c-9.11,1.57-18.23,3.12-27.33,4.66c-0.63,0.11-1.26,0.21-1.9,0.31
		c-5.61,0.84-11.19,1.78-16.78,2.73c-5.65,0.96-11.31,1.89-16.96,2.83c-2.83,0.47-5.65,0.95-8.49,1.41c-0.69,0.11-1.41,0.2-2.14,0.3
		c-1.98-0.5-5.19,0.39-6.55,0.56c-3.07,0.39-6.13,0.83-9.19,1.27c-6.42,0.91-12.84,1.87-19.26,2.82
		c-6.42,0.95-12.83,1.94-19.25,2.85c-3.1,0.44-6.21,0.88-9.31,1.32c-2.72,0.39-5.36,0.79-7.92,1.66c-1.61,0.26-3.22,0.53-4.82,0.76
		c-5.85,0.85-11.7,1.76-17.55,2.65c-11.48,1.75-22.95,3.49-34.43,5.24c-23.05,3.52-46.08,7.22-69.12,10.76
		c-6.4,0.98-12.79,1.97-19.19,2.95c-3.31,0.51-6.63,0.99-9.94,1.47c-2.8,0.4-5.63,0.7-8.37,1.37c-5.28,0.64-10.55,1.61-15.81,2.64
		c-0.21-0.08-0.44-0.12-0.7-0.1c-6.89,0.64-13.75,1.63-20.58,2.78c-3.42,0.58-6.83,1.19-10.24,1.83c-1.7,0.32-3.4,0.64-5.11,0.96
		c-1.49,0.28-2.89,0.27-4.36,0.48c-1.84,0.26-3.58,1.21-4.77,2.64c-1.55,1.86-2.12,4.5-1.48,6.84c0.22,0.79,0.56,1.54,0.96,2.26
		c0.69,1.27,1.57,2.46,2.73,3.31c1.64,1.2,4.06,1.49,5.95,0.69c0.64,0.11,1.35,0.07,2.01-0.04c10.54-1.83,21.21-2.88,31.78-4.64
		c3.97-0.66,7.95-1.32,11.92-2c6.71-1.16,13.37-2.61,20.1-3.63c6.87-1.03,13.72-2.14,20.59-3.17c0.83-0.12,1.66-0.25,2.49-0.38
		c6.92-1.05,13.83-2.15,20.75-3.25c3.43-0.55,6.97-0.89,10.36-1.65c3.11-0.7,6.05-0.37,9.21-0.47c1.65-0.05,3.29-0.3,4.92-0.57
		c3-0.49,5.99-1.03,8.97-1.57c6.65-1.2,13.42-1.95,20.03-3.25c6.74-1.32,13.5-2.53,20.27-3.67c6.85-1.15,13.72-2.23,20.59-3.28
		c3.44-0.52,6.87-1.04,10.31-1.55c1.72-0.26,3.44-0.51,5.16-0.76c1.4-0.21,3.04-0.75,4.44-0.74c0.88,0.01,1.8-0.2,2.66-0.36
		c1.59-0.29,3.17-0.58,4.76-0.86c1.52-0.27,3.05-0.54,4.57-0.8c1.12-0.19,2.5-0.25,3.66-0.64c1.21-0.18,2.41-0.35,3.62-0.53
		c6.18-0.93,12.35-1.87,18.53-2.8c12.13-1.83,24.28-3.61,36.42-5.39c3.42-0.5,6.85-1,10.27-1.5c3.5-0.51,7.08-0.62,10.6-1.23
		c3.71-0.64,7.39-1.46,11.11-2.06c4.78-0.77,9.62-1.16,14.42-1.79c5.02-0.66,9.99-1.58,14.95-2.57c1.59-0.32,3.17-0.6,4.76-0.85
		C546.62,153.6,546.64,153.52,546.66,153.41z"/>
	<path class="st11" d="M546.91,145.56c-0.15-0.91-0.35-1.81-0.6-2.69c-0.08-0.28-0.2-0.59-0.48-0.67c-0.44-0.13-1.34,0.27-1.81,0.33
		c-0.71,0.1-1.42,0.19-2.13,0.28c-1.42,0.18-2.85,0.35-4.27,0.51c-2.81,0.32-5.62,0.6-8.44,0.9c-4.92,0.52-9.87,1.77-14.77,2.64
		c-0.97,0.17-1.95,0.35-2.83,0.8c-0.77,0.4-1.42,0.99-2.2,1.37c-0.73,0.36-1.55,0.53-2.36,0.64c-5.83,0.84-11.67-0.58-17.51-0.2
		c-5.72,0.37-11.52,1.53-17.15,2.58c-1.47,0.27-2.95,0.55-4.42,0.85c-5.33-0.23-10.67,0.59-15.91,1.56
		c-5.78,1.06-11.53,2.33-17.3,3.47c-3.71,0.73-7.4,1.56-11.13,2.21c-3.25,0.57-6.42,1.93-9.55,3c-0.62,0.21-1.27,0.44-1.72,0.92
		s-0.63,1.28-0.21,1.79c-12.14,1.15-24.35,2.32-36.11,5.54c-4.52,1.24-9.1,2.8-13.77,2.45c-4.46-0.33-8.93-2.5-13.44-1.68
		c-4.63,0.84-9.31,1.49-14.04,2.07c-10.08,1.24-20.14,2.62-30.16,4.29c-0.39-0.59-1.1-1.03-1.85-0.93
		c-11.29,1.56-22.54,3.35-33.8,5.12c-6.68,1.05-13.38,2.03-20.05,3.16c-3.34,0.56-6.66,1.18-9.98,1.81
		c-2.8,0.53-5.27,0.78-7.47,2.86c1.03-0.15,2.13,0.28,2.8,1.08c-5.81,1.79-11.65,3.58-17.65,4.54c-5.32,0.86-10.74,1.05-16.1,0.6
		c-2.55-0.22-5.21-1.06-7.75-1.1c-2.41-0.04-5,0.49-7.43,0.64c-0.47-0.68-1.3-1.12-2.35-0.88c-1.75,0.29-3.45,0.78-5.15,1.25
		c-0.3,0.08-0.55,0.22-0.76,0.4c-0.64,0.21-1.29,0.39-1.93,0.62c-0.16,0.06-0.28,0.15-0.41,0.23c-0.33,0.09-0.63,0.26-0.89,0.49
		c-0.28,0.14-0.53,0.34-0.71,0.61c-0.97,1.48-1.02,3.33-0.22,4.87c0.08,0.53,0.44,0.96,0.91,1.23c1.36,0.79,3.16,1.74,4.85,1.3
		c0.25-0.06,0.47-0.3,0.43-0.55c-0.02-0.14-0.11-0.25-0.19-0.36c-0.47-0.58-0.97-1.15-1.28-1.83c-0.31-0.68-0.38-1.51,0-2.15
		c0.47-0.78,1.56-1.06,2.4-0.7s1.39,1.23,1.49,2.13c0.09,0.9-0.22,1.82-0.74,2.56c4.92,1.25,10.8-0.28,15.76-0.88
		c6.18-0.75,12.35-1.63,18.49-2.65c2.53-0.42,4.83-0.68,7.33-0.73c2.54-0.05,5.02-1.73,7.33-2.59c1.67-0.62,3.4-1.01,5.13-1.43
		c4.22-1.04,8.39-2.29,12.48-3.75c6-2.15,12.07-4.79,18.44-4.57c-0.77,0.78-1.53,1.55-2.3,2.33c10.6,0.31,21.39-1.72,31.87-3.08
		c4.74-0.62,9.48-1.26,14.22-1.95c1.86-0.27,3.63-0.26,5.41-0.82c2.04-0.64,4.1-1.14,6.22-1.43c2.13-0.28,4.46-0.44,6.06-1.88
		c-2.5-0.5-4.95-1.3-7.25-2.39c8.05-1.14,16.16-0.04,24.24,0c7.8,0.04,15.37-1.7,23-3.15c9.92-1.88,19.85-3.82,29.71-6.01
		c0.32-0.07,0.57-0.22,0.79-0.41c5.23-0.08,10.48-0.72,15.62-1.47c7.89-1.14,15.67-2.85,23.48-4.41c1.58-0.31,3.16-0.62,4.74-0.93
		c3.85-0.26,7.7-0.48,11.54-0.99c6.62-0.88,13.34-2.51,19.76-4.37c6.37-1.85,12.98-4.07,19.7-3.01c0.68,0.11,1.48,0.38,1.61,1.05
		c-0.81,0.82-1.62,1.64-2.42,2.46c6.74-1.38,13.48-2.76,20.23-4.13c3.07-0.63,6.23-1.29,8.84-3.03c1.4-0.94,2.6-2.16,4.05-3.03
		c4.09-2.45,9.28-1.64,13.95-0.64c1.42,0.3,2.84,0.6,4.27,0.82c0.73,0.11,1.47,0.2,2.21,0.26c0.42,0.03,1.25,0.39,1.61,0.17
		c0.3-0.18,0.32-0.59,0.3-0.94C547.12,147.16,547.04,146.36,546.91,145.56z"/>
	
		<linearGradient id="SVGID_00000127036292735363395740000014026921434175507369_" gradientUnits="userSpaceOnUse" x1="363.6919" y1="599.6746" x2="353.6953" y2="667.6506" gradientTransform="matrix(1 0 0 -1 0 799.8898)">
		<stop  offset="0" style="stop-color:#1D1D1B"/>
		<stop  offset="0.0994" style="stop-color:#201F1C;stop-opacity:0.7708"/>
		<stop  offset="0.1777" style="stop-color:#2A241F;stop-opacity:0.5904"/>
		<stop  offset="0.2487" style="stop-color:#3B2D24;stop-opacity:0.4265"/>
		<stop  offset="0.3155" style="stop-color:#52392B;stop-opacity:0.2725"/>
		<stop  offset="0.3787" style="stop-color:#704934;stop-opacity:0.1268"/>
		<stop  offset="0.4337" style="stop-color:#915A3E;stop-opacity:0"/>
	</linearGradient>
	<path style="fill:url(#SVGID_00000127036292735363395740000014026921434175507369_);" d="M172.59,199.39
		c0.23-0.04,0.45-0.07,0.68-0.11c0.67-0.1,1.33-0.21,2-0.31c1.08-0.17,2.17-0.34,3.25-0.5c1.48-0.23,2.96-0.46,4.43-0.69
		c1.85-0.29,3.7-0.57,5.55-0.86c2.2-0.34,4.41-0.68,6.61-1.02c2.53-0.39,5.06-0.78,7.6-1.18c2.84-0.44,5.68-0.88,8.52-1.32
		c3.13-0.48,6.25-0.97,9.38-1.45c3.39-0.52,6.78-1.05,10.17-1.57c3.63-0.56,7.26-1.12,10.89-1.69c3.85-0.6,7.7-1.19,11.55-1.79
		c4.05-0.63,8.1-1.25,12.14-1.88c4.22-0.65,8.45-1.31,12.67-1.96c4.38-0.68,8.76-1.35,13.13-2.03c4.51-0.7,9.02-1.4,13.53-2.09
		c4.62-0.71,9.24-1.43,13.86-2.14c4.71-0.73,9.42-1.46,14.12-2.19c4.77-0.74,9.55-1.48,14.32-2.22c4.82-0.75,9.64-1.49,14.46-2.24
		c4.84-0.75,9.68-1.5,14.52-2.25s9.68-1.5,14.52-2.25c4.82-0.75,9.64-1.49,14.46-2.24c4.78-0.74,9.55-1.48,14.33-2.22
		c4.71-0.73,9.42-1.46,14.13-2.19c4.62-0.72,9.25-1.43,13.87-2.15c4.51-0.7,9.03-1.4,13.54-2.1c4.38-0.68,8.77-1.36,13.15-2.03
		c4.23-0.65,8.46-1.31,12.69-1.96c4.05-0.63,8.11-1.25,12.16-1.88c3.86-0.6,7.72-1.19,11.57-1.79c3.64-0.56,7.28-1.13,10.92-1.69
		c3.4-0.53,6.8-1.05,10.19-1.58c3.14-0.49,6.27-0.97,9.41-1.46c0.83-0.13,1.66-0.26,2.48-0.38c0.51-0.08,2.32-0.63,2.68-0.37
		c0.16,0.12,0.24,0.31,0.31,0.5c1.23,3.39,0.7,7.13,0.35,10.72c-0.03,0.3-0.06,0.61-0.22,0.87c-0.32,0.53-1.85,0.5-2.48,0.59
		c-0.73,0.11-1.47,0.23-2.2,0.34c-1.52,0.23-3.05,0.47-4.57,0.7c-3.25,0.5-6.51,1-9.76,1.5c-3.51,0.54-7.02,1.08-10.53,1.62
		c-3.75,0.57-7.49,1.15-11.24,1.72c-3.96,0.61-7.92,1.21-11.87,1.82c-4.15,0.64-8.3,1.27-12.44,1.91
		c-4.31,0.66-8.63,1.32-12.94,1.99c-4.46,0.68-8.92,1.37-13.37,2.05c-4.58,0.7-9.16,1.41-13.74,2.11
		c-4.68,0.72-9.36,1.44-14.03,2.15c-4.75,0.73-9.51,1.46-14.26,2.19c-4.81,0.74-9.61,1.47-14.42,2.21
		c-4.84,0.74-9.67,1.48-14.51,2.23c-4.84,0.74-9.69,1.49-14.53,2.23c-4.83,0.74-9.66,1.48-14.48,2.22
		c-4.79,0.73-9.58,1.47-14.37,2.2c-4.73,0.73-9.46,1.45-14.19,2.18c-4.65,0.71-9.29,1.43-13.94,2.14c-4.54,0.7-9.08,1.39-13.62,2.09
		c-4.41,0.68-8.82,1.35-13.23,2.03c-4.26,0.65-8.52,1.31-12.77,1.96c-4.08,0.63-8.17,1.25-12.25,1.88
		c-3.89,0.6-7.77,1.19-11.66,1.79c-3.67,0.56-7.33,1.12-11,1.69c-3.42,0.53-6.84,1.05-10.27,1.58c-3.16,0.48-6.31,0.97-9.47,1.45
		c-2.87,0.44-5.74,0.88-8.6,1.32c-2.56,0.39-5.11,0.78-7.67,1.18c-2.22,0.34-4.44,0.68-6.67,1.02c-1.87,0.29-3.73,0.57-5.6,0.86
		c-1.49,0.23-2.97,0.46-4.46,0.68c-1.08,0.17-2.17,0.33-3.25,0.5c-0.66,0.1-1.32,0.2-1.97,0.3c-0.21,0.03-0.42,0.06-0.63,0.1
		l-4.47-2.54l-2.16-2.9L172.59,199.39z"/>
	<path class="st13" d="M544.45,138.61c-0.17-0.11-0.26-0.26-0.33-0.42c-0.58,0.32-1.12,0.7-1.63,1.13c-1.36,1.16-2.45,2.6-3.78,3.8
		c-0.38,0.35-0.72,0.65-1.27,0.64c-0.36-0.01-0.74-0.18-1.09-0.28c-0.56-0.16-1.02-0.1-1.53,0.18c-0.07,0.04-0.04,0.16,0.04,0.16
		c1.11-0.02,2.04,1.03,3.23,0.81c1.18-0.23,2.17-1.51,2.96-2.32c1.08-1.11,2.23-2.22,3.63-2.92c0.14-0.07,0.28-0.13,0.43-0.19
		C544.93,139.02,544.74,138.81,544.45,138.61z"/>
	<path class="st13" d="M542.56,138.12c-0.94-0.09-1.99,0.12-2.92,0.3c-1.01,0.2-2.02,0.4-3.03,0.59c-2.09,0.39-4.2,0.71-6.31,0.99
		c-0.95,0.13-1.9,0.22-2.83,0.4c-0.56,0.11-1.01,0.29-1.45,0.5c-0.15-0.03-0.29-0.09-0.45-0.1c-0.31-0.04-0.62-0.03-0.92,0
		c-0.32,0.02-0.66,0.07-0.97,0.15c-0.32,0.08-0.61,0.2-0.91,0.34c-0.08,0.04-0.12,0.1-0.13,0.17c-0.18-0.02-0.36-0.03-0.52-0.04
		c-0.27,0-0.53,0.01-0.79,0.03c-0.49-0.02-0.99-0.02-1.47,0.01c-1.65,0.1-3.29,0.35-4.93,0.58c-3.52,0.47-7.03,1-10.53,1.6
		c-3.44,0.59-6.88,1.24-10.3,1.94c-1.72,0.35-3.44,0.8-5.19,0.88c-1.63,0.07-3.24,0.13-4.86,0.38c-1.94,0.3-3.86,0.64-5.8,0.96
		c-2,0.32-4.01,0.59-5.98,1.07c-0.23,0.06-0.33,0.28-0.3,0.48c-2.73,0.42-5.46,0.87-8.19,1.32c-7.82,1.3-15.67,2.43-23.55,3.4
		c-4.37,0.53-8.8,0.85-13.14,1.59c-0.13,0.02-0.23,0.09-0.3,0.17c-1.14,0.02-2.29,0.03-3.43,0.07c-0.53,0.02-0.75,0.49-0.67,0.89
		c-6.87,0.7-13.69,1.89-20.52,2.97c-4.16,0.66-8.33,1.33-12.49,1.98c-2.1,0.33-4.21,0.61-6.33,0.68c-1.96,0.07-3.86,0.08-5.74,0.72
		c-1.07,0.37-2.11,0.84-3.22,1.1c-0.99,0.24-1.99,0.29-3,0.32c-2.08,0.07-4.25,0-6.21,0.8c-0.26,0.11-0.4,0.32-0.44,0.54
		c-0.67,0.11-1.35,0.18-1.98,0.07c-1.09-0.18-1.93-0.14-3,0.17c-1.17,0.34-2.34,0.66-3.52,0.94c-2.35,0.56-4.72,1-7.13,1.22
		c-1.16,0.11-2.31,0.18-3.45,0.32c-0.07-0.03-0.15-0.06-0.25-0.06c-0.41,0-0.77,0.1-1.08,0.26c-0.72,0.12-1.45,0.27-2.16,0.5
		c-0.11,0.04-0.2,0.1-0.26,0.16c0.06-0.22-0.11-0.5-0.36-0.4c-2.68,1.08-5.59,0.82-8.42,1.17c-3.23,0.4-6.45,1.03-9.66,1.62
		c-3.32,0.61-6.63,1.24-9.95,1.86c-0.06-0.19-0.22-0.35-0.5-0.34c-1.92,0.05-3.82,0.53-5.7,0.92c-0.9,0.19-1.8,0.38-2.71,0.55
		c-0.48,0.09-0.97,0.17-1.46,0.25c-0.46,0.07-0.91,0.09-1.32,0.31l0.02,0.02c-0.05,0.03-0.1,0.08-0.14,0.13
		c-0.14-0.06-0.28-0.13-0.42-0.17c-0.8-0.19-1.64-0.06-2.45,0c-1.86,0.14-3.71,0.31-5.55,0.55c-0.46,0.06-0.71,0.43-0.74,0.81
		c-0.24,0.06-0.47,0.1-0.69,0.09c-0.69-0.04-1.26-0.11-1.96,0c-1.51,0.25-3.01,0.53-4.51,0.78c-6.23,1.05-12.49,2-18.74,2.88
		c-1.73,0.24-3.43,0.52-5.18,0.53c-1.55,0.01-3-0.1-4.44,0.57c-0.18,0.08-0.25,0.24-0.24,0.4c-0.1,0.04-0.21,0.07-0.31,0.11
		c-0.16-0.26-0.46-0.45-0.81-0.37c-1.45,0.32-2.89,1.02-4.3,1.52c-0.37,0-0.75,0.03-1.11,0.07c-0.75,0.08-1.51,0.16-2.26,0.29
		c-0.18,0.03-0.27,0.16-0.29,0.31c-0.36,0.02-0.71,0.05-1.07,0.07c-3.15,0.23-6.29,0.53-9.43,0.87c-0.33,0.04-0.55,0.25-0.63,0.51
		c-1.86-0.02-3.73,0.18-5.57,0.41c-2.83,0.36-5.6,0.91-8.38,1.54c-1.36,0.31-2.65-0.03-4.01,0.16c-1.39,0.2-2.78,0.45-4.16,0.69
		c-1.43,0.24-2.88,0.44-4.3,0.72c-0.17,0.03-0.31,0.1-0.47,0.15c-1.6,0.28-3.19,0.58-4.77,0.97c-0.19,0.05-0.26,0.21-0.27,0.37
		c-0.81-0.01-1.62-0.02-2.43,0.04c-1.57,0.13-3.14,0.37-4.66,0.8c-0.11,0.03-0.2,0.08-0.27,0.14c-0.69,0.09-1.38,0.23-2,0.29
		c-1.35,0.15-2.71,0.35-4.07,0.43c-0.27,0.02-0.45,0.16-0.55,0.35c-0.03,0.01-0.07,0.01-0.1,0.02c-1.07,0.27-2.15,0.01-3.25,0.14
		c-1.13,0.13-2.26,0.29-3.39,0.44c-1.4,0.18-2.86,0.31-4.27,0.6c-0.08-0.25-0.31-0.43-0.64-0.31c-0.69,0.24-1.34,0.53-1.86,1.07
		c-0.04,0.04-0.06,0.08-0.1,0.12c-0.65,0.32-1.26,0.7-1.83,1.15c-0.46,0.15-0.95,0.34-1.29,0.65c-0.26,0.24-0.39,0.58-0.33,0.93
		c-0.05,0.06-0.11,0.12-0.16,0.18c-0.15,0.19-0.21,0.42-0.16,0.64c-0.11,0.2-0.22,0.41-0.3,0.62c-0.48,0.46-0.74,1.11-0.75,1.79
		c0,0.12,0.02,0.25,0.03,0.37c-0.21,0.48-0.31,1.05-0.2,1.53c0,0,0,0.01,0,0.02c-0.02,1.32,0.33,2.96,1.29,3.94
		c0.39,0.86,0.97,1.57,1.75,2.05c0.11,0.3,0.27,0.58,0.46,0.85c0.02,0,0.05,0,0.07,0c0.18,0.02,0.34,0.07,0.52,0.12
		c0.33,0.11,0.65,0.22,0.97,0.34c0.64,0.24,1.28,0.51,1.92,0.77c0.18,0.08,0.41,0.15,0.63,0.23c0.07-0.01,0.13-0.01,0.2-0.02
		c0.17-0.03,0.28-0.13,0.35-0.26c-0.65-0.09-1.28-0.3-1.82-0.59c-0.06-0.03-0.11-0.08-0.17-0.12c-0.01,0-0.01,0.01-0.02,0.01
		c-1.07,0.25-2.05-0.7-2.63-1.58c-0.37-0.04-0.72-0.23-0.9-0.56c-0.16-0.29-0.3-0.6-0.43-0.92c-0.05-0.06-0.09-0.13-0.13-0.19
		c0.08,0.06,0.15,0.11,0.23,0.18c0.1,0.07,0.21-0.08,0.13-0.16c-0.38-0.39-0.65-1.13-0.78-1.64c-0.13-0.54-0.1-1.14,0.06-1.67
		c0.15-0.52,0.44-0.99,0.83-1.37c0.38-0.37,0.86-0.62,1.17-1.06c0.04-0.06,0.06-0.12,0.1-0.18c0.16,0.64,0.16,1.31-0.04,1.94
		c-0.05,0.17-0.12,0.34-0.25,0.47c-0.11,0.11-0.25,0.17-0.33,0.3c-0.15,0.22-0.07,0.49,0.05,0.7c0.36,0.61,1,1.12,1.59,1.48
		c0.14,0.08,0.29-0.11,0.17-0.22c-0.28-0.25-0.56-0.51-0.83-0.78c-0.22-0.23-0.84-0.75-0.59-1.08c0.17-0.22,0.42-0.37,0.58-0.61
		c0.17-0.25,0.27-0.53,0.31-0.83c0.08-0.64-0.04-1.3-0.26-1.91c-0.06-0.17-0.13-0.34-0.21-0.51c-0.02-0.12-0.04-0.25-0.08-0.38
		c-0.16-0.53-0.07-0.89,0.27-1.33c0.4-0.52,0.93-0.96,1.5-1.33c0.05-0.01,0.1-0.02,0.15-0.03c0.19-0.03,0.37-0.04,0.55-0.11
		c0.15-0.05,0.26-0.14,0.4-0.19c0.06-0.02,0.1-0.05,0.13-0.1c0.11,0.04,0.22,0.08,0.33,0.13c0.71,0.32,1.3,0.89,1.77,1.5
		c0.12,0.15,0.21,0.31,0.3,0.47c0.39,0.27,0.74,0.6,0.97,1.02c0.18,0.12,0.28,0.35,0.22,0.56c0.03,0.1,0.06,0.2,0.07,0.3
		c0.41,1.07,0.51,2.26,0.43,3.39c-0.07,1.11-0.47,2.44-1.32,3.21c-0.1,0.09,0.03,0.24,0.14,0.18c0.59-0.34,1-0.65,1.32-1.27
		c0.31-0.61,0.49-1.28,0.6-1.95c0.24-1.5,0.29-3.22-0.34-4.63c-0.66-1.47-1.99-2.7-3.46-3.31c-0.22-0.09-0.47-0.16-0.74-0.23
		c0.02-0.06,0.02-0.13,0.02-0.2c0.14-0.1,0.25-0.22,0.3-0.37c0.38,0,0.76,0.01,1.13,0.06c1.34-0.26,2.71-0.41,4.06-0.58
		c0.95-0.12,1.9-0.26,2.85-0.35c0.91-0.09,1.86,0.16,2.74-0.05c1.03-0.25,1.83-0.56,2.93-0.39c0.67,0.11,1.55,0.54,2.21,0.28
		c0.03,0.01,0.04,0.03,0.07,0.04c0.69,0.25,1.62-0.23,2.28-0.41c0.98-0.27,1.97-0.53,2.96-0.73s2-0.34,3.01-0.4
		c0.93-0.06,1.87,0.03,2.79-0.05s2.01-0.46,2.56-1.23c0.07-0.05,0.14-0.08,0.21-0.13c1.08-0.88,2.7-0.88,4.05-1.11
		c1.38-0.23,2.77-0.46,4.15-0.7c0.67-0.11,1.35-0.24,2.04-0.22c0.66,0.03,1.29,0.18,1.95,0.15c1.63,0.45,3.26,0.9,4.93,1.23
		c0.35,0.07,0.79,0.15,1.12-0.02c0.13-0.07,0.13-0.1,0.21-0.17c0.31-0.26,0.6-0.41,0.98-0.57c0.99-0.4,2.06-0.56,3.1-0.75
		c0.05-0.01,0.04-0.1-0.01-0.09c-0.92,0.1-1.86,0.22-2.74,0.52c-0.42,0.14-0.77,0.37-1.17,0.54c-0.56,0.24-1.13,0.12-1.69-0.01
		c-1.23-0.3-2.46-0.56-3.69-0.8c1.04-0.18,2.07-0.49,3.09-0.7c1.36-0.28,2.73-0.54,4.1-0.78c2.59-0.45,5.23-0.67,7.81-1.18
		c2.38-0.12,4.76-0.18,7.14-0.13c1.14,0.02,2.27,0.1,3.39,0.09c1.07,0.42,2.23,0.67,3.31,0.84c0.83,0.13,1.67,0.24,2.51,0.11
		c0.95-0.16,1.87-0.54,2.8-0.79c1.95-0.53,3.92-0.94,5.91-1.28c2.03-0.34,4.09-0.53,6.1-0.95c0.16-0.03,0.11-0.26-0.04-0.27
		c-3.7-0.21-7.52,0.65-11.12,1.43c-1.72,0.37-3.52,1.08-5.3,0.89c-0.51-0.05-1-0.15-1.5-0.26c0.27-0.06,0.55-0.13,0.82-0.22
		c2.12-0.69,3.99-1.97,6.09-2.7c1.19-0.41,2.36-0.05,3.57-0.18c0.69-0.07,1.35-0.23,2-0.42c0.83-0.04,1.66-0.14,2.49-0.25
		c3.05-0.41,6.1-0.84,9.14-1.31c1.18-0.18,2.35-0.39,3.53-0.58c-1.17,0.7-2.34,1.41-3.67,1.8c-1.74,0.51-3.79,0.58-5.4,1.42
		c-0.09,0.05-0.04,0.18,0.05,0.19c1.7,0.11,3.58-0.62,5.15-1.2c1.75-0.65,3.43-1.41,5.15-2.14c0.48-0.2,0.97-0.37,1.47-0.52
		c0.89-0.15,1.78-0.28,2.66-0.44c0.55-0.1,1.11-0.19,1.66-0.29c0.85-0.07,1.7-0.12,2.55-0.15c0.94-0.03,2,0.07,2.91-0.22
		c0.24-0.08,0.36-0.26,0.41-0.46c0.33,0.04,0.65,0.08,0.98,0.02c0.77-0.15,1.53-0.5,2.29-0.7c0.73-0.2,1.46-0.35,2.21-0.46
		c0.24-0.04,0.48-0.05,0.73-0.07c0.18-0.01,0.37-0.03,0.55-0.05c0.9-0.04,1.8-0.02,2.7-0.06c0.01,0,0.01,0,0.02,0.01
		c1.09,0.65,2.24,1.23,3.49,1.46c0.74,0.14,1.52,0.18,2.27,0.09c1.02-0.12,2-0.47,3.03-0.54c3.54-0.25,7.2,0.78,10.66-0.32
		c0.13-0.04,0.08-0.23-0.06-0.2c-3.53,0.74-7.05-0.03-10.61,0.23c-1.41,0.1-2.88,0.32-4.31,0.23c-0.01-0.01-0.01-0.01-0.02-0.02
		c-0.03-0.03-0.05-0.07-0.02-0.02c-0.01-0.02-0.03-0.05-0.04-0.07c0-0.01,0,0,0-0.01l0,0c-0.01-0.03-0.02-0.05-0.02-0.08
		c0-0.02,0-0.03,0-0.05v-0.01c0-0.01,0.01-0.01,0.01-0.02c0.01-0.01,0-0.01,0.01-0.01c0.02-0.02,0.03-0.04,0.05-0.07
		c-0.12,0.15,0.02-0.01,0.06-0.05c0.01-0.01,0.03-0.03,0.05-0.04c0,0,0,0,0.01,0c0.08-0.06,0.15-0.11,0.23-0.17
		c0.14-0.11,0.27-0.23,0.4-0.34c0.03-0.03,0.05-0.06,0.08-0.09c0.46-0.1,0.92-0.21,1.38-0.3c1.7-0.33,3.39-0.66,5.09-0.99
		c6.71-1.29,13.42-2.55,20.11-3.9c1.73-0.35,3.42-0.44,5.16-0.61c1.42-0.14,2.92-0.44,3.96-1.47c-0.1,0.22-0.07,0.49,0.09,0.68
		c-0.02,0.05-0.04,0.09-0.05,0.14c-0.01,0.01-0.02,0.02-0.04,0.04c-0.02,0.02-0.04,0.05-0.06,0.07c-0.01,0-0.01,0.01-0.02,0.01l0,0
		c-0.03,0.04-0.06,0.07-0.09,0.11c-0.02,0.05-0.04,0.09-0.06,0.14s-0.01,0.1-0.01,0.15c-0.62,0.3-1.3,0.42-1.86,0.88
		c-0.69,0.57-1.16,1.32-1.95,1.76c-1.75,0.98-3.86,0.66-5.77,0.51c-1.28-0.1-3.5-0.36-4.21,1.06c-0.02,0.03,0.02,0.08,0.06,0.06
		c0.71-0.51,1.53-0.5,2.37-0.42c1.03,0.1,2.05,0.29,3.09,0.4c1.66,0.18,3.39,0.16,4.91-0.61c0.68-0.34,1.2-0.85,1.72-1.39
		c0.29-0.3,0.57-0.57,0.95-0.75c0.41-0.19,0.87-0.25,1.29-0.43c0.97-0.44,1.65-1.33,2.51-1.92c1.62-0.2,3.27-0.28,4.89-0.44
		c2.32-0.23,4.62-0.64,6.9-1.17c1.13-0.26,2.26-0.56,3.38-0.85c0.58-0.15,1.18-0.36,1.79-0.31c0.49,0.04,0.96,0.21,1.47,0.21
		c1.09,0.01,2.2-0.36,3.25-0.62c0.98-0.24,1.89-0.58,2.81-0.94c1.5-0.13,3.02-0.15,4.53-0.33c2.61,0.62,5.25,1.11,7.9,1.59
		c1.03,0.19,2.56,0.71,3.6,0.31c0.61-0.24,1.07-0.76,1.68-1.02c0.67-0.28,1.37-0.5,2.07-0.72c0.2-0.07,0.12-0.34-0.09-0.31
		c-1.2,0.17-2.16,0.45-3.13,1.17c-0.81,0.6-1.59,0.34-2.48,0.16c-0.76-0.15-1.52-0.3-2.28-0.43c-0.75-0.13-1.49-0.26-2.24-0.39
		c-0.19-0.07-0.38-0.15-0.55-0.25c-0.09-0.06-0.19-0.12-0.27-0.19c-0.01-0.01-0.02-0.02-0.03-0.03c0-0.01-0.01-0.02,0-0.04
		c0.14-0.1,0.4-0.31,0.43-0.33c0.2-0.12,0.41-0.23,0.62-0.34c0.42-0.24,0.83-0.42,1.2-0.56c0.24-0.09,0.47-0.18,0.69-0.26
		c0.54-0.03,1.08-0.03,1.62-0.04c2.03-0.03,4.05-0.24,6.06-0.53c5.94-0.85,11.86-1.85,17.77-2.84c-0.19,0.07-0.38,0.13-0.57,0.2
		c-1.22,0.46-2.41,0.94-3.45,1.75c-0.25,0.19-0.46,0.39-0.71,0.57c-0.46,0.33-0.85,0.37-1.41,0.44c-0.7,0.09-1.39,0.21-2.08,0.35
		c-1.67,0.35-3.32,0.75-4.97,1.16c-0.1,0.02-0.06,0.17,0.04,0.15c2.77-0.43,5.58-0.79,8.22-1.71c0.49-0.17,0.95-0.15,1.42-0.37
		c0.69-0.31,1.38-0.61,2.09-0.87c1.27-0.46,2.57-0.83,3.85-1.25c2.67-0.86,5.36-1.64,8.12-2.2c2.77-0.56,5.56-0.37,8.34-0.72
		c1.52-0.19,3.04-0.55,4.54-0.84c0.21-0.04,0.43-0.09,0.64-0.13c0.42-0.01,0.83-0.02,1.25-0.03c1.39-0.03,2.79-0.07,4.18-0.09
		c0.17,0,0.69-0.1,0.79-0.04c0.11,0.07,0.21,0.43,0.3,0.54c0.26,0.29,0.64,0.43,1.01,0.46c0.99,0.08,2.11-0.35,3.04-0.64
		c1.11-0.35,2.19-0.76,3.26-1.2c1.4-0.57,2.79-1.15,4.2-1.7c0.8-0.11,1.6-0.2,2.4-0.32c7.84-1.11,15.66-2.34,23.44-3.81
		c3.61-0.68,7.18-1.53,10.77-2.31c0.56-0.05,1.12-0.1,1.69-0.12c1.43,0.17,2.87,0.26,4.28,0.39l7.38,0.69
		c1.03,0.1,1.8,0.14,2.72-0.33c0.98-0.5,2.07-0.85,3.14-1.1c2.17-0.51,4.43-0.49,6.6-1.01c0.06-0.01,0.03-0.1-0.03-0.09
		c-2.19,0.44-4.4,0.5-6.61,0.8c-0.88,0.12-1.75,0.29-2.58,0.63c-0.56,0.23-1.07,0.46-1.69,0.5c-0.56,0.04-1.16-0.08-1.72-0.13
		c-1-0.1-1.99-0.19-2.99-0.29c-0.09-0.07-0.15-0.14-0.17-0.22c-0.01-0.02-0.02-0.1-0.01-0.03c-0.01-0.04,0-0.09,0-0.13
		c0-0.01,0-0.01,0-0.01s0,0,0-0.01c0.01-0.04,0.02-0.09,0.03-0.13c0-0.01,0-0.01,0-0.01c0-0.01,0-0.01,0.01-0.02
		c0.02-0.04,0.04-0.07,0.06-0.11c0.04-0.06,0.08-0.15,0.13-0.2c0.02-0.01,0.03-0.03,0.04-0.04c0.02-0.02,0.05-0.05,0.08-0.07
		c0.04-0.04,0.04-0.03-0.01,0.01c0.02-0.02,0.04-0.03,0.06-0.04c0.03-0.02,0.07-0.04,0.1-0.06c0.08-0.05,0.16-0.08,0.24-0.12
		c5.75-1.14,11.53-2.17,17.33-3.04c1.96-0.29,3.92-0.6,5.89-0.81c0.88-0.09,1.77-0.16,2.65-0.17c0.48-0.01,0.96-0.04,1.44-0.06
		c0.35-0.02,0.69-0.09,1.03-0.15c0.43,0.15,0.87,0.26,1.29,0.19c0.4-0.07,0.71-0.37,1.07-0.54c0.48-0.23,1.02-0.34,1.55-0.39
		c0.98-0.09,1.97-0.13,2.95-0.22c2.02-0.2,4.02-0.49,6.02-0.85c1.9-0.34,4.25-0.59,5.9-1.68
		C543.24,138.76,543.04,138.17,542.56,138.12z"/>
	<path class="st13" d="M240.8,188.29c-0.12-0.04-0.29,0-0.38,0.1c-0.62-0.01-1.26,0.09-1.87,0.16c-0.7,0.08-1.41,0.15-2.11,0.21
		c-0.06,0-0.06,0.09,0,0.09c0.71,0,1.41,0.01,2.11,0.04c0.6,0.02,1.23-0.02,1.83,0.04c0.05,0.07,0.11,0.13,0.2,0.14
		c0.14,0.02,0.29,0.05,0.35,0.19c0.05,0.13,0.04,0.23-0.05,0.34c-0.03,0.03-0.03,0.08,0.01,0.11c0.28,0.16,0.56-0.17,0.6-0.42
		C241.6,188.78,241.24,188.45,240.8,188.29z"/>
	<path class="st13" d="M240.39,189.8c-0.96-0.09-1.93-0.17-2.89-0.13c-0.94,0.04-1.87,0.13-2.81,0.26
		c-0.15,0.02-0.12,0.28,0.04,0.27c0.94-0.07,1.88-0.13,2.83-0.16c0.94-0.03,1.89-0.11,2.83-0.13
		C240.47,189.92,240.47,189.81,240.39,189.8z"/>
	<path class="st13" d="M190.53,197.21c-0.12-0.1-0.24-0.18-0.39-0.23s-0.33-0.02-0.48,0.02c-0.13,0.04-0.25,0.1-0.38,0.16
		c-0.05,0.02-0.09,0.04-0.14,0.07c-0.03,0.01-0.05,0.02-0.08,0.04l0,0c-0.04,0.02-0.08,0.03-0.13,0.04c-0.02,0-0.04,0.01-0.05,0.01
		c-0.04,0-0.08,0-0.12,0c-0.02-0.01-0.12-0.02-0.16-0.02c-0.02,0-0.04-0.01-0.06,0c0.08-0.01,0.06,0.01,0.01,0s-0.1-0.01-0.16-0.02
		c-0.01,0-0.05,0-0.05,0c0.06,0.01,0.06,0.01,0,0c-0.02-0.01-0.04-0.01-0.06,0c-0.06,0-0.13,0.02-0.18,0.05
		c-0.04,0.02-0.09,0.06-0.11,0.1c-0.16,0.29,0.09,0.58,0.32,0.73c0.25,0.16,0.57,0.16,0.86,0.11c0.2-0.04,0.39-0.13,0.58-0.2
		c0.05-0.02,0.1-0.04,0.15-0.05c0.03-0.01,0.05-0.01,0.08-0.02c0.07-0.02-0.03,0-0.05,0c0.08-0.01,0.16-0.02,0.24-0.05
		c0.02,0,0.04,0,0.05,0C190.59,197.96,190.8,197.45,190.53,197.21z"/>
	<path class="st13" d="M180.1,203.53c-0.03-0.32,0.07-0.68,0.29-0.92c0.1-0.11-0.05-0.25-0.16-0.16c-0.46,0.42-0.55,1.12-0.16,1.62
		c0.12,0.15,0.24,0.32,0.14,0.51c-0.08,0.16-0.24,0.26-0.4,0.34c-0.36,0.19-0.75,0.26-1.15,0.25c-0.06,0-0.06,0.09,0,0.09
		c0.39,0.04,0.79-0.02,1.15-0.17c0.27-0.11,0.62-0.3,0.6-0.65c-0.01-0.16-0.1-0.29-0.17-0.43
		C180.17,203.87,180.12,203.7,180.1,203.53z"/>
	<path class="st13" d="M205.08,194.11c-2.9,0.35-5.75,1.09-8.62,1.65c-0.24,0.05-0.3,0.37-0.14,0.53c0.64,0.63,1.36,1.17,1.99,1.81
		c0.06,0.06,0.15,0.07,0.23,0.03c1.38-0.7,2.91-0.97,4.41-1.3c0.21-0.05,0.12-0.35-0.09-0.32c-1.51,0.23-3,0.55-4.37,1.24
		c-0.48-0.48-0.91-1-1.36-1.5c2.65-0.67,5.35-1.16,7.98-1.89C205.24,194.32,205.22,194.1,205.08,194.11z"/>
	<path class="st13" d="M289.63,181.1c-4.86,1.13-9.71,2.24-14.64,3.01c-0.08,0.01-0.06,0.15,0.02,0.14
		c4.97-0.46,9.94-1.37,14.66-3.01C289.77,181.22,289.73,181.08,289.63,181.1z"/>
	<path class="st13" d="M296.65,181.36c-0.97-0.03-1.94-0.07-2.9-0.17c-0.96-0.1-1.92-0.23-2.87-0.34c-0.14-0.02-0.17,0.21-0.03,0.25
		c1.86,0.53,3.88,0.62,5.81,0.47C296.79,181.56,296.79,181.37,296.65,181.36z"/>
	<path class="st13" d="M295.84,183.35c-1.21,0.27-2.45,0.39-3.67,0.64c-1.21,0.26-2.42,0.46-3.64,0.67
		c-0.16,0.03-0.12,0.29,0.04,0.28c1.23-0.1,2.45-0.26,3.66-0.46c1.25-0.2,2.44-0.61,3.65-0.96
		C296,183.49,295.95,183.32,295.84,183.35z"/>
	<path class="st13" d="M374.8,169.9c-2.44-0.28-4.89-0.55-7.34-0.67c-0.96-0.05-1.9,0.05-2.79,0.42c-0.97,0.4-1.88,0.97-2.84,1.42
		c-4.19,1.96-8.87,3.01-13.5,2.86c-0.07,0-0.07,0.1,0,0.1c4.3,0.25,8.63-0.4,12.57-2.21c0.98-0.45,1.9-1,2.85-1.52
		c1.19-0.65,2.22-0.84,3.56-0.69c2.49,0.29,4.99,0.5,7.49,0.66C375.05,170.29,375.04,169.92,374.8,169.9z"/>
	<path class="st13" d="M383.98,170.37c-2.28,0.2-4.63,0.53-6.75,1.44c-0.6,0.26-1.15,0.59-1.83,0.58s-1.39-0.2-2.05-0.33
		c-1.25-0.25-2.49-0.55-3.71-0.89c-0.05-0.01-0.07,0.06-0.02,0.08c1.29,0.43,2.6,0.81,3.93,1.14c1.12,0.28,2.13,0.6,3.25,0.14
		c1.15-0.46,2.27-0.89,3.48-1.17c1.24-0.29,2.5-0.48,3.75-0.72C384.16,170.61,384.13,170.36,383.98,170.37z"/>
	<path class="st13" d="M481.7,152.47c-6.63-0.3-13.48,1.09-19.64,3.44c-6.22,2.36-12.76,3.5-19.4,2.61
		c-0.06-0.01-0.07,0.09-0.01,0.1c3.18,0.54,6.4,0.65,9.6,0.24c3.18-0.4,6.13-1.32,9.09-2.53c3.05-1.24,6.45-1.86,9.68-2.41
		c3.55-0.6,7.1-0.76,10.68-0.94C482.03,152.97,482.03,152.48,481.7,152.47z"/>
	<path class="st13" d="M486.17,154.71c-1.05-0.05-2.16,0.26-3.2,0.38c-1.03,0.12-2.06,0.2-3.1,0.27c-2.11,0.13-4.22,0.18-6.33,0.12
		c-0.06,0-0.06,0.09,0,0.09c2.15,0.16,4.3,0.23,6.45,0.16c1.07-0.04,2.15-0.1,3.22-0.19c0.98-0.08,2.09-0.06,3.02-0.38
		C486.48,155.08,486.44,154.72,486.17,154.71z"/>
	<g>
		<g>
			<path d="M545.49,153.1c-3.34,0.51-6.67,1.03-10.01,1.54c-9.07,1.39-18.14,2.79-27.2,4.18c-13.39,2.06-26.77,4.11-40.16,6.17
				c-16.29,2.5-32.59,5.01-48.88,7.51c-17.79,2.73-35.58,5.47-53.36,8.2c-17.87,2.75-35.74,5.49-53.61,8.24
				c-16.54,2.54-33.08,5.08-49.62,7.63c-13.8,2.12-27.59,4.24-41.39,6.36c-9.64,1.48-19.28,2.96-28.92,4.44
				c-4,0.62-8.16,1.64-12.21,1.88c-4.4,0.26-7.47-5.2-6.71-9.05c0.45-2.29,1.99-4.6,4.37-5.14c1.39-0.32,2.87-0.44,4.28-0.66
				c7.31-1.12,14.62-2.25,21.93-3.37c12.09-1.86,24.17-3.72,36.26-5.58c15.4-2.37,30.81-4.74,46.21-7.11
				c17.43-2.68,34.85-5.36,52.28-8.04c18-2.77,36-5.54,54-8.31c17.17-2.64,34.34-5.28,51.51-7.92c14.94-2.3,29.87-4.59,44.81-6.89
				c11.3-1.74,22.6-3.48,33.9-5.21c6.26-0.96,12.52-1.93,18.78-2.89c0.8-0.12,1.61-0.25,2.41-0.37c1.27-0.2,0.73-2.12-0.53-1.93
				c-3.37,0.52-6.74,1.04-10.11,1.55c-9.19,1.41-18.39,2.83-27.58,4.24c-13.52,2.08-27.04,4.16-40.56,6.24
				c-16.49,2.54-32.99,5.07-49.48,7.61c-17.92,2.76-35.84,5.51-53.77,8.27c-17.97,2.76-35.94,5.53-53.91,8.29
				c-16.59,2.55-33.17,5.1-49.76,7.65c-13.77,2.12-27.55,4.24-41.32,6.36c-9.53,1.47-19.05,2.93-28.58,4.4
				c-2.72,0.42-5.45,0.84-8.17,1.26c-1.1,0.17-2.29,0.23-3.38,0.52c-4,1.06-6.1,5.75-5.65,9.57c0.51,4.34,4.5,8.94,9.18,8.45
				c1.07-0.11,2.15-0.33,3.21-0.49c6.79-1.04,13.58-2.09,20.37-3.13c11.83-1.82,23.67-3.64,35.5-5.46
				c15.35-2.36,30.71-4.72,46.06-7.08c17.46-2.68,34.92-5.37,52.38-8.05c18.13-2.79,36.26-5.57,54.39-8.36
				c17.35-2.67,34.71-5.33,52.06-8c15.14-2.33,30.28-4.65,45.42-6.98c11.48-1.76,22.96-3.53,34.44-5.29
				c6.39-0.98,12.79-1.97,19.18-2.95c0.82-0.13,1.64-0.25,2.45-0.38C547.29,154.83,546.75,152.9,545.49,153.1L545.49,153.1z"/>
		</g>
	</g>
	<g>
		<g>
			<path d="M543.76,137.53c-1.76,1.29-3.1,2.86-4.35,4.63c-0.32,0.45-0.69,0.9-1.2,1.15c-0.6,0.3-1.14,0.12-1.72-0.09
				c-0.72-0.26-1.61-0.38-2.09,0.34c-0.18,0.27,0.25,0.52,0.43,0.25c0.31-0.46,0.94-0.32,1.38-0.17c0.45,0.16,0.89,0.36,1.38,0.34
				c0.87-0.04,1.56-0.66,2.06-1.32c0.64-0.85,1.21-1.73,1.93-2.52c0.74-0.81,1.55-1.54,2.43-2.19
				C544.27,137.77,544.02,137.34,543.76,137.53L543.76,137.53z"/>
		</g>
	</g>
	<g>
		<g>
			<path d="M541.69,150.65c0.24-0.47,0.09-1.03-0.3-1.37c-0.47-0.41-1.14-0.41-1.72-0.31c-1.22,0.21-2.35,0.84-3.19,1.74
				c-0.22,0.24,0.13,0.59,0.35,0.35c0.66-0.71,1.51-1.24,2.44-1.5c0.45-0.13,0.97-0.24,1.43-0.1c0.37,0.11,0.76,0.53,0.55,0.93
				C541.11,150.68,541.54,150.93,541.69,150.65L541.69,150.65z"/>
		</g>
	</g>
	<g>
		<g>
			<path d="M530.33,153.02c-1.66,1.8-3.71,3.22-5.99,4.12c-0.3,0.12-0.17,0.6,0.13,0.48c2.36-0.93,4.49-2.38,6.21-4.25
				C530.9,153.13,530.55,152.78,530.33,153.02L530.33,153.02z"/>
		</g>
	</g>
	<g>
		<g>
			<path d="M327.84,175.39c0.63-1.89,3.28-1.2,4.74-1.13c1.49,0.07,3.25,0.12,4.66-0.46c0.57-0.24,1.02-0.61,1.48-1.02
				c0.29-0.26,0.57-0.53,0.91-0.74c0.36-0.22,0.77-0.32,1.16-0.49c0.99-0.45,1.48-1.51,1.24-2.56c-0.07-0.31-0.55-0.18-0.48,0.13
				c0.18,0.81-0.19,1.58-0.93,1.95c-0.58,0.29-1.16,0.43-1.68,0.85c-0.53,0.43-0.99,0.96-1.6,1.29c-0.76,0.4-1.66,0.48-2.51,0.53
				c-0.79,0.05-1.57,0.05-2.36,0.01c-0.82-0.04-1.64-0.19-2.46-0.16c-1.13,0.04-2.27,0.52-2.65,1.66
				C327.26,175.57,327.74,175.7,327.84,175.39L327.84,175.39z"/>
		</g>
	</g>
	<g>
		<g>
			<path d="M209.89,190.6c-0.42,0.27-0.77,0.6-1.15,0.92c-0.6,0.5-1.14,0.66-1.92,0.6c-1.41-0.1-2.81-0.06-4.2,0.13
				c-2.94,0.39-5.78,1.29-8.59,2.2c-0.3,0.1-0.17,0.58,0.13,0.48c2.94-0.95,5.91-1.91,9-2.25c0.71-0.08,1.42-0.12,2.13-0.12
				s1.43,0.12,2.14,0.08c1.16-0.06,1.8-1.04,2.71-1.62C210.41,190.86,210.16,190.43,209.89,190.6L209.89,190.6z"/>
		</g>
	</g>
	<g>
		<g>
			<path d="M187.48,197.86c0.54,0.57,1.29,1.18,2.11,0.8c0.36-0.16,0.61-0.49,0.82-0.8c0.27-0.39,0.52-0.78,0.78-1.18
				c0.18-0.27-0.25-0.52-0.43-0.25c-0.23,0.34-0.46,0.68-0.68,1.03c-0.17,0.26-0.35,0.54-0.62,0.71c-0.61,0.38-1.23-0.24-1.63-0.66
				C187.61,197.27,187.26,197.62,187.48,197.86L187.48,197.86z"/>
		</g>
	</g>
	<path class="st14" d="M178.36,196.25c3.6,0.79,4.96,3.55,4.96,6.16c0,2.09-0.73,4.35-3.32,5.29"/>
	<path class="st15" d="M541.35,138.14c0.34-0.83,0.8-1.34,1.34-1.41c1.66-0.22,3.54,3.7,4.19,8.76c0.66,5.05-0.16,9.32-1.82,9.54
		c-0.41,0.05-0.84-0.15-1.26-0.56"/>
	<path class="st15" d="M539.58,138.15c0,0,0.22-3.66,7.89-4.55c0,0,55.49-5.44,74.4-4.6c0,0,6.33,0.27,8.68,2.13
		c0,0,5.25,3.47,1.21,6.25"/>
	<path class="st16" d="M569.47,131.3c-0.28-0.14-14.64-13.46-14.64-13.46s2.44-8.02,3.63-9.41l5.86-1.05l18.06,16.04l-2.64,7.4"/>
	<path class="st16" d="M592.96,148.68c0,0,35.2,22.27,51.96,23.18c0,0,37.23-2.21,67.83-27.29c0,0,16.36-13.05,11.04-31.91
		c0,0-40.62-22.77-156.88-2.95"/>
	<path class="st16" d="M651.79,171.03c-0.04-0.14,0.59-8.04-0.67-10.25c0,0-34.34-14.75-36.45-17.28l-6.43,0.95l-5.16,5.58
		l-5.48-2.95l-3.39,1.36l-44.41,8.18c-6.65,1.54-8.13-1.91-8.13-1.91"/>
	<path class="st16" d="M630.1,130.82c0,0,7.36-0.06,6.2,5.43c0,0-1.02,7.02-19.97,8.43"/>
	<g>
		<g>
			<path d="M559.22,110.2c5.56,4.65,11.12,9.3,16.34,14.34c0.23,0.22,0.59-0.13,0.35-0.35c-5.21-5.04-10.78-9.69-16.34-14.34
				C559.32,109.64,558.97,109.99,559.22,110.2L559.22,110.2z"/>
		</g>
	</g>
	<g>
		<g>
			<path d="M580.36,123.49c-0.9,0.02-1.79,0.07-2.68,0.16c-0.7,0.07-1.55,0.05-1.95,0.72c-0.18,0.3-0.26,0.65-0.36,0.98
				c-0.13,0.43-0.26,0.85-0.39,1.28c-0.27,0.87-0.53,1.74-0.79,2.61c-0.09,0.31,0.39,0.44,0.48,0.13c0.24-0.78,0.47-1.56,0.71-2.33
				c0.22-0.72,0.4-1.47,0.67-2.17c0.13-0.34,0.33-0.53,0.68-0.61c0.39-0.08,0.8-0.1,1.19-0.14c0.81-0.07,1.63-0.12,2.45-0.14
				C580.69,123.98,580.69,123.48,580.36,123.49L580.36,123.49z"/>
		</g>
	</g>
	<g>
		<g>
			<path d="M609.99,146.63c8.24,4.76,16.79,8.96,25.6,12.57c2.52,1.03,5.06,2.01,7.62,2.95c0.3,0.11,0.43-0.37,0.13-0.48
				c-8.93-3.26-17.64-7.13-26.05-11.57c-2.37-1.25-4.72-2.55-7.05-3.9C609.96,146.03,609.71,146.47,609.99,146.63L609.99,146.63z"/>
		</g>
	</g>
	<g>
		<g>
			<path d="M645.6,162.38c0.43-0.89,1.55-0.92,2.4-0.98c1.04-0.07,2.07-0.08,3.11-0.05c0.32,0.01,0.32-0.49,0-0.5
				c-1.19-0.04-2.37-0.02-3.56,0.08c-0.91,0.07-1.95,0.28-2.39,1.19C645.03,162.41,645.46,162.67,645.6,162.38L645.6,162.38z"/>
		</g>
	</g>
	<g>
		<g>
			<path d="M644.5,163.78c-0.14,1.78-0.11,3.56,0.08,5.34c0.03,0.32,0.54,0.32,0.5,0c-0.19-1.77-0.22-3.56-0.08-5.34
				C645.03,163.46,644.53,163.47,644.5,163.78L644.5,163.78z"/>
		</g>
	</g>
	<g>
		<g>
			<path d="M630.07,138.05c-0.92,0.82-2.16,0.8-3.32,0.7c-1.24-0.1-2.43-0.23-3.67-0.06c-1.35,0.18-2.68,0.55-4.01,0.85
				c-1.39,0.32-2.78,0.62-4.18,0.91c-5.7,1.2-11.44,2.22-17.2,3.14c-5.72,0.91-11.45,1.72-17.19,2.5c-1.45,0.2-2.91,0.39-4.36,0.59
				c-1.44,0.19-2.95,0.53-4.41,0.41c-1.45-0.11-2.85-0.78-4.19-1.29c-1.35-0.51-2.7-1.02-4.05-1.52c-3.08-1.16-6.17-2.32-9.25-3.49
				c-1.91-0.72-5.53-2.41-6.63,0.4c-0.12,0.3,0.37,0.43,0.48,0.13c0.58-1.48,2.42-1.32,3.65-0.93c1.35,0.43,2.66,0.99,3.99,1.49
				c2.74,1.03,5.47,2.06,8.21,3.09c1.35,0.51,2.7,1.02,4.05,1.52c1.21,0.46,2.44,0.99,3.75,1.09c1.35,0.1,2.73-0.19,4.06-0.37
				c1.37-0.18,2.75-0.37,4.12-0.56c11.43-1.55,22.86-3.2,34.15-5.54c1.56-0.32,3.11-0.66,4.66-1.01c1.59-0.36,3.19-0.83,4.82-0.99
				c2.22-0.22,5.01,0.93,6.88-0.73C630.67,138.19,630.31,137.84,630.07,138.05L630.07,138.05z"/>
		</g>
	</g>
	<path class="st14" d="M651.92,167.95c0,0,77.97-13.79,69.45-54.34c0,0-39.61-21.62-152.89-2.67"/>
	<path class="st14" d="M699.29,122.08c0,0,15.16-1.12,21.11-7.87"/>
	<line class="st14" x1="647.16" y1="131.39" x2="636.42" y2="133.23"/>
	<path class="st14" d="M582.37,110.92c0,0,11.16,15.45,21,17.99"/>
	<path class="st14" d="M628.9,144.67c0,0,23.71,17.81,43.3,16.41"/>
	<line class="st17" x1="597.65" y1="146.7" x2="606.3" y2="146.56"/>
	<g id="Sign_00000168813668155410440180000012188650579371809443_">
		<g>
			<path d="M679.12,123.97c-0.68-0.49-1.37-0.99-2.06-1.49c-1.74,0.37-3.47,0.73-5.2,1.07c0.06,0.04,0.11,0.08,0.17,0.13
				c-0.06,0.01-0.11,0.02-0.17,0.03c0.06,0.04,0.11,0.08,0.17,0.13c-0.06,0.01-0.11,0.02-0.17,0.03c0.67,0.5,1.34,1,2,1.5
				c1.03,0.78,2,1.3,2.91,1.56c0.91,0.26,1.82,0.27,2.74,0.05c0.86-0.21,1.24-0.55,1.15-1.01c0-0.05,0.01-0.1,0-0.16
				C680.68,125.34,680.19,124.74,679.12,123.97z"/>
			<path d="M671.93,125.75c-0.77-0.59-1.54-1.18-2.32-1.76c-1.84,0.35-3.68,0.66-5.52,0.95c0.06,0.04,0.11,0.09,0.17,0.13
				c-0.06,0.01-0.11,0.02-0.17,0.03c0.06,0.04,0.11,0.09,0.17,0.13c-0.06,0.01-0.11,0.02-0.17,0.03c0.8,0.61,1.59,1.23,2.37,1.85
				c0.85,0.67,1.6,1.19,2.25,1.55c0.65,0.35,1.27,0.58,1.87,0.67s1.24,0.07,1.94-0.07c1-0.2,1.45-0.56,1.36-1.04
				c0-0.01-0.01-0.02-0.01-0.03c0-0.04,0.02-0.08,0.01-0.13c0-0.01-0.01-0.02-0.01-0.03c0-0.04,0.02-0.08,0.01-0.13
				C673.8,127.4,673.15,126.69,671.93,125.75z"/>
			<path d="M671.32,114.23c-12.32,0.31-21.81,5.66-21.19,11.94l0,0c0,0.05-0.01,0.11,0,0.16l0,0c0,0.05-0.01,0.11,0,0.16
				c0.62,6.28,11.1,11.12,23.42,10.8s21.81-5.66,21.19-11.94l0,0c0-0.05,0.01-0.11,0-0.16l0,0c0-0.05,0.01-0.11,0-0.16
				C694.13,118.75,683.64,113.91,671.32,114.23z M684.44,127.04c-0.11,0.72-0.82,1.27-2.13,1.64c-0.85,0.23-1.77,0.31-2.78,0.22
				s-1.95-0.33-2.84-0.72c0.06,0.07,0.09,0.14,0.14,0.21c-0.05-0.02-0.1-0.03-0.14-0.05c0.06,0.07,0.09,0.14,0.14,0.21
				c-0.05-0.02-0.1-0.03-0.14-0.05c0.33,0.4,0.5,0.78,0.53,1.14c-0.02,0.12-0.04,0.24-0.1,0.35c-0.25,0.55-0.86,0.94-1.8,1.16
				c-1.59,0.37-3.29,0.24-5.12-0.39c-1.74-0.6-3.47-1.63-5.21-3.01c-0.96,0.14-1.91,0.27-2.86,0.38c-0.37-0.3-0.74-0.6-1.12-0.9
				c0.84-0.1,1.67-0.2,2.51-0.32c-0.06-0.05-0.12-0.09-0.18-0.14c0.06-0.01,0.12-0.01,0.18-0.02c-0.06-0.05-0.12-0.09-0.18-0.14
				c0.06-0.01,0.12-0.01,0.18-0.02c-0.56-0.45-1.13-0.89-1.7-1.33c-0.95,0.13-1.9,0.25-2.85,0.35c-0.38-0.29-0.75-0.58-1.13-0.86
				c0.83-0.09,1.66-0.19,2.49-0.31c-0.06-0.05-0.13-0.09-0.19-0.14c0.06-0.01,0.13-0.01,0.19-0.02c-0.06-0.05-0.13-0.09-0.19-0.14
				c0.06-0.01,0.13-0.01,0.19-0.02c-1.1-0.83-2.22-1.62-3.36-2.4c0.63-0.09,1.26-0.18,1.9-0.28c0.75,0.52,1.5,1.04,2.23,1.58
				c4.3-0.65,8.63-1.49,12.98-2.36l0,0c-0.06-0.04-0.12-0.08-0.18-0.12c0.06-0.01,0.12-0.02,0.17-0.03l0,0
				c-0.06-0.04-0.12-0.08-0.18-0.12c0.06-0.01,0.12-0.02,0.17-0.03l0,0c-0.62-0.44-1.24-0.89-1.87-1.33
				c0.65-0.13,1.3-0.26,1.95-0.38c1.25,0.88,2.48,1.76,3.7,2.63c1.3-0.27,2.6-0.54,3.9-0.81c0.38,0.26,0.75,0.52,1.13,0.78
				c-1.18,0.25-2.37,0.51-3.55,0.77c0.06,0.04,0.11,0.08,0.17,0.12c-0.06,0.01-0.11,0.02-0.17,0.04c0.06,0.04,0.11,0.08,0.17,0.12
				c-0.06,0.01-0.12,0.02-0.17,0.04c0.56,0.4,1.13,0.8,1.68,1.19c1.3-0.29,2.6-0.59,3.9-0.89c0.37,0.25,0.73,0.49,1.09,0.73
				c-1.19,0.29-2.38,0.58-3.57,0.86c0.06,0.04,0.1,0.08,0.15,0.12c-0.05,0.01-0.1,0.02-0.15,0.04c0.06,0.04,0.09,0.08,0.15,0.12
				c-0.05,0.01-0.1,0.02-0.15,0.04C683.7,125.48,684.37,126.3,684.44,127.04z"/>
			<path d="M701.03,126.71c0.01-0.36,0-0.71-0.03-1.07c-0.76-8.66-13.9-15.41-29.34-15.02c-10.11,0.25-19.21,3.54-23.73,8.6
				c-1.92,2.15-2.93,4.54-2.96,6.96c0,0.05,0,0.11,0,0.16c-0.01,0.36,0,0.71,0.03,1.07c0.74,8.43,13.22,15.03,28.1,15.03
				c0.41,0,0.82,0,1.24-0.01c10.12-0.25,19.21-3.54,23.73-8.6c1.92-2.15,2.93-4.54,2.96-6.96
				C701.04,126.81,701.03,126.76,701.03,126.71z M674.32,140.89c-14.78,0.35-27.39-5.88-28.1-13.91c-0.02-0.22-0.02-0.44-0.02-0.66
				c0.08-2.07,0.98-4.12,2.65-5.98c4.3-4.81,13.06-7.95,22.85-8.19c0.41-0.01,0.82-0.02,1.23-0.02c14.25,0,26.19,6.12,26.87,13.93
				c0.02,0.22,0.02,0.44,0.02,0.66c-0.08,2.07-0.98,4.12-2.65,5.98C692.87,137.51,684.11,140.65,674.32,140.89z"/>
		</g>
		
			<ellipse transform="matrix(3.021062e-03 -1 1 3.021062e-03 544.6135 798.9785)" class="st18" cx="673" cy="126.36" rx="15.15" ry="27.43"/>
		<g>
			<path class="st19" d="M679.12,123.97c-0.68-0.49-1.37-0.99-2.06-1.49c-1.74,0.37-3.47,0.73-5.2,1.07c0.67,0.5,1.34,1,2,1.5
				c1.03,0.78,2,1.3,2.91,1.56c0.91,0.26,1.82,0.27,2.74,0.05C681.17,126.24,681.07,125.37,679.12,123.97z"/>
			<path class="st19" d="M671.93,125.75c-0.77-0.59-1.54-1.18-2.32-1.76c-1.84,0.35-3.68,0.66-5.52,0.95
				c0.8,0.61,1.59,1.23,2.37,1.85c0.85,0.67,1.6,1.19,2.25,1.55c0.65,0.35,1.27,0.58,1.87,0.67s1.24,0.07,1.94-0.07
				c1-0.2,1.45-0.56,1.36-1.04C673.8,127.4,673.15,126.69,671.93,125.75z"/>
			<path class="st19" d="M671.32,114.23c-12.32,0.31-21.81,5.66-21.19,11.94s11.1,11.12,23.42,10.8s21.81-5.66,21.19-11.94
				C694.13,118.75,683.64,113.91,671.32,114.23z M684.46,126.79c0.03,0.84-0.69,1.48-2.15,1.88c-0.85,0.23-1.77,0.31-2.78,0.22
				s-1.95-0.33-2.84-0.72c0.54,0.66,0.69,1.26,0.43,1.81c-0.25,0.55-0.86,0.94-1.8,1.16c-1.59,0.37-3.29,0.24-5.12-0.39
				c-1.74-0.6-3.47-1.63-5.21-3.01c-0.96,0.14-1.91,0.27-2.86,0.38c-0.48-0.4-0.97-0.79-1.46-1.18c0.95-0.11,1.9-0.23,2.85-0.36
				c-0.56-0.45-1.13-0.89-1.7-1.33c-0.95,0.13-1.9,0.25-2.85,0.35c-0.49-0.38-0.99-0.76-1.49-1.13c0.95-0.11,1.9-0.22,2.85-0.35
				c-1.22-0.92-2.47-1.81-3.72-2.66c0.75-0.11,1.51-0.22,2.27-0.34c0.75,0.52,1.5,1.04,2.23,1.58c4.3-0.65,8.63-1.49,12.98-2.36l0,0
				c-0.73-0.53-1.48-1.06-2.22-1.58c0.77-0.15,1.53-0.3,2.3-0.45c1.25,0.88,2.48,1.76,3.7,2.63c1.3-0.27,2.6-0.54,3.9-0.81
				c0.5,0.35,0.99,0.69,1.48,1.02c-1.3,0.28-2.6,0.56-3.9,0.84c0.56,0.4,1.13,0.8,1.68,1.19c1.3-0.29,2.6-0.59,3.9-0.89
				c0.48,0.33,0.96,0.65,1.44,0.97c-1.31,0.32-2.62,0.63-3.92,0.95C683.74,125.19,684.43,126.04,684.46,126.79z"/>
		</g>
	</g>
	<path class="st20" d="M244.72,222.63c0.38-0.17,0.75-0.34,1.12-0.51c5.23-2.46,10.06-5.8,14.21-9.82c2.04-1.97,3.75-4.19,5.65-6.28
		c2.1-2.3,4.32-4.68,5.85-7.4c0.92-1.64,2.09-3.16,3.14-4.72l1.36-6.66l-0.65-8.01l0.65-9.72l-0.81-3.32l-2.88-1.29l-3.85,1.63
		l-2.61,3.25l-5.32-7.36l-5.47-1.73l-4.29,1.05l-1.75,1.2l-8.44-0.66l-3.68,1.18l-4.19,4.03l-5.08,3.48l-1.91,2.05l-1.55,2.33
		l-4.74,4.18l-1.73,2.92l0.37,5.41l9.76-1.56l2.5,4.78l2.4,3.64l3.63,0.78l4.81-2.01l0.54,2.08c0,0,2.9,0.61,3.28,0.7
		s3.3-0.7,3.3-0.7l1.51-2.79l1.35,2.43c0,0,2.27,1.19,2.56,1.36s4.04-0.3,4.04-0.3l1.39-1.55l0.88-4.32l2.32,0.68
		c0,0-0.29,2.22-0.48,2.7s-1.05,3.32-1.05,3.32l-2.4,1.09l-36.38,5.74l7.86,15.24c0.51,1.03,2.55,1.82,3.38,2.63
		c0.76,0.74,1.66,1.35,2.51,1.97c1.78,1.29,3.72,0.9,5.69,0.18C242.6,223.53,243.67,223.1,244.72,222.63z"/>
	
		<linearGradient id="SVGID_00000036219347837115176710000009374563537141900725_" gradientUnits="userSpaceOnUse" x1="217.2115" y1="570.0201" x2="243.8789" y2="597.4896" gradientTransform="matrix(1 0 0 -1 0 799.8898)">
		<stop  offset="0" style="stop-color:#000000"/>
		<stop  offset="0.0137" style="stop-color:#070707;stop-opacity:0.9873"/>
		<stop  offset="0.1278" style="stop-color:#3F3F3F;stop-opacity:0.8813"/>
		<stop  offset="0.2456" style="stop-color:#707070;stop-opacity:0.7719"/>
		<stop  offset="0.3645" style="stop-color:#9A9A9A;stop-opacity:0.6614"/>
		<stop  offset="0.4848" style="stop-color:#BCBCBC;stop-opacity:0.5497"/>
		<stop  offset="0.6068" style="stop-color:#D6D6D6;stop-opacity:0.4363"/>
		<stop  offset="0.7315" style="stop-color:#E9E9E9;stop-opacity:0.3205"/>
		<stop  offset="0.8604" style="stop-color:#F4F4F4;stop-opacity:0.2008"/>
		<stop  offset="1" style="stop-color:#F8F8F8;stop-opacity:0.0711"/>
	</linearGradient>
	<path style="fill:url(#SVGID_00000036219347837115176710000009374563537141900725_);" d="M251.07,219.07
		c-1.08,0.48-2.24,1.17-3.48,0.88c-0.89-0.2-1.68-1.12-1.4-1.99c0.24-0.74,1.07-1.08,1.8-1.33c1.64-0.55,3.27-1.11,4.91-1.66
		c1.52-0.51,3.16-1.12,4.01-2.49c-7.23,2.33-15.54,0.92-21.61-3.64c-0.26-0.2-0.52-0.62-0.24-0.79c0.08-0.05,0.17-0.05,0.26-0.06
		c2.72-0.11,5.43-0.52,8.07-1.19c2.31-0.59,4.51-1.79,6.81-2.26c4.34-0.9,7.61-4.39,11.49-6.54c2.86-1.58,3.9-3.54,4.66-6.67
		c0.84-3.42,0.77-6.98,1.04-10.48c0.26-3.38,1.87-5.98,3.86-8.63c0.52-0.69,1.03-1.37,1.53-2.06c0.03-0.36,0.04-0.73,0.02-1.1
		c-0.02-0.3-0.09-0.57-0.19-0.82c0.16-0.99-0.31-2.11-1.4-2.27c-0.18-0.03-0.36-0.05-0.53-0.08c-0.92-0.13-1.99,0.18-2.36,1.11
		c-0.84,0.41-1.64,1.02-2.19,1.67c-0.95,1.13-1.25,2.6-1.55,4c-0.12,0.54-0.2,1.07-0.26,1.61c-0.15,0.11-0.27,0.26-0.37,0.43
		c-0.07,0.05-0.13,0.12-0.2,0.18c0.01,0.33,0.04,0.66,0.03,0.99c-0.02,1.16-0.18,2.29-0.33,3.44c-0.08,0.58-0.42,0.99-1.02,1.02
		c-0.06,0-0.12,0.01-0.18,0.01c-0.34,0-0.73-0.19-0.89-0.51c-0.8-1.6-1.01-3.32-1.17-5.08c-0.12-1.43-0.25-2.91-0.84-4.24
		c-0.48-1.07-1.15-1.71-2.12-2.23c-0.41-0.22-0.79-0.37-1.28-0.49c-0.27-0.07-0.36-0.08-0.6-0.1c-0.1-0.01-0.21-0.01-0.31-0.01
		c-0.04,0-0.32,0.02-0.21,0.01c-0.34,0.04-0.63,0.15-0.91,0.28c-0.11,0.28-0.18,0.56-0.16,0.83c0.47,0.26,0.76,0.73,1.08,1.15
		c0.53,0.68,1.05,1.32,1.49,2.07c1.06,1.83,1.81,3.86,2.25,5.93c0.46,2.15,0.68,4.35,0.75,6.54c0.04,1.13,0.04,2.27,0.02,3.4
		c0.04,0.09,0.07,0.19,0.11,0.28c-0.04,0.14-0.08,0.28-0.11,0.42c0,0.44-0.03,0.89-0.11,1.32c0.31,1.33,2.11,1.9,3.21,1.08
		c-0.09,0.57-0.17,1.13-0.3,1.69c-0.39,1.72-0.76,3.92-2.61,4.61c-1.93,0.72-4.26,0.78-6.29,1.08c-3.69,0.56-7.39,1.1-11.08,1.65
		c-3.67,0.55-7.24,1.17-10.87,1.91c-0.51,0.1-1.01,0.2-1.52,0.3c-0.89,0.18-1.78,0.35-2.67,0.55c-1.21,0.27-2.2,0.89-3.51,0.83
		c-0.35-0.02-0.71-0.07-1.06,0.02c-0.34,0.08-0.68,0.33-0.73,0.68c-0.02,0.14,0.01,0.28,0.04,0.42c0.48,2.23,1.62,4.41,2.62,6.43
		c1.22,2.45,2.45,4.92,4.07,7.12c1.24,1.68,2.8,3.07,4.49,4.28c1.59,1.14,3.27,2.18,5.33,2.07c1.14-0.06,2.24-0.42,3.32-0.81
		C244.97,222.63,248.16,221.04,251.07,219.07z"/>
	
		<linearGradient id="SVGID_00000137095043496211003870000004430290313059857591_" gradientUnits="userSpaceOnUse" x1="214.8043" y1="636.5354" x2="276.7017" y2="597.5283" gradientTransform="matrix(1 0 0 -1 0 799.8898)">
		<stop  offset="0" style="stop-color:#000000"/>
		<stop  offset="0.0252" style="stop-color:#0B0B0B;stop-opacity:0.9766"/>
		<stop  offset="0.1825" style="stop-color:#494949;stop-opacity:0.8305"/>
		<stop  offset="0.3383" style="stop-color:#7E7E7E;stop-opacity:0.6858"/>
		<stop  offset="0.4889" style="stop-color:#AAAAAA;stop-opacity:0.5459"/>
		<stop  offset="0.6333" style="stop-color:#CCCCCC;stop-opacity:0.4117"/>
		<stop  offset="0.7699" style="stop-color:#E4E4E4;stop-opacity:0.2848"/>
		<stop  offset="0.8956" style="stop-color:#F3F3F3;stop-opacity:0.1681"/>
		<stop  offset="1" style="stop-color:#F8F8F8;stop-opacity:0.0711"/>
	</linearGradient>
	<path style="fill:url(#SVGID_00000137095043496211003870000004430290313059857591_);" d="M254.21,196.5
		c-3.09-4.78-0.64-11.17-2.19-16.39c-0.75-2.54-2.12-4.8-4.29-6.37c-0.73-0.53-1.52-0.96-2.32-1.36c-0.02,0.01-0.04,0.01-0.06,0.01
		c-0.2,0.05-0.41,0.1-0.61,0.15c-0.08,0.02-0.17,0.05-0.25,0.07c1.99,1.49,3.58,3.44,4.43,5.78c0.48,1.32,0.72,2.74,0.76,4.16
		c0.09,0.56,0.15,1.11,0.19,1.68c0.22,3.94-0.29,8.02,1.2,11.78c0.4,1.01,1.35,1.72,2.48,1.41c0.37-0.1,0.71-0.34,0.98-0.65
		C254.41,196.71,254.29,196.62,254.21,196.5z"/>
	
		<linearGradient id="SVGID_00000074441606179256665400000001973892148754004096_" gradientUnits="userSpaceOnUse" x1="211.5385" y1="631.3532" x2="273.436" y2="592.3461" gradientTransform="matrix(1 0 0 -1 0 799.8898)">
		<stop  offset="0" style="stop-color:#000000"/>
		<stop  offset="0.1623" style="stop-color:#3F3F3F;stop-opacity:0.8492"/>
		<stop  offset="0.325" style="stop-color:#777777;stop-opacity:0.6981"/>
		<stop  offset="0.4836" style="stop-color:#A5A5A5;stop-opacity:0.5508"/>
		<stop  offset="0.6339" style="stop-color:#C9C9C9;stop-opacity:0.4111"/>
		<stop  offset="0.7741" style="stop-color:#E3E3E3;stop-opacity:0.2809"/>
		<stop  offset="0.9001" style="stop-color:#F3F3F3;stop-opacity:0.1638"/>
		<stop  offset="1" style="stop-color:#F8F8F8;stop-opacity:0.0711"/>
	</linearGradient>
	<path style="fill:url(#SVGID_00000074441606179256665400000001973892148754004096_);" d="M243.64,194.54
		c-0.61-1.12-0.78-2.41-0.87-3.66c-0.15-1.93-0.26-3.88-0.42-5.82c-0.81-3.3-2.12-6.56-5.41-7.9c-0.66-0.27-1.71-0.72-2.44-0.48
		c-0.14,0.05-0.2,0.1-0.31,0.18c-0.04,0.03-0.05,0.09-0.06,0.14c0.07,0.03,0.13,0.07,0.19,0.15c0.79,0.99,1.61,1.96,2.41,2.95
		c0.42,0.44,0.82,0.9,1.14,1.41c0.16,0.26,0.17,0.51,0.09,0.72c0.03,0.03,0.06,0.06,0.08,0.09c0.73,0.95,0.88,2.17,1,3.33
		c0.02,0.07,0.06,0.13,0.08,0.2c0.54,1.68,0.87,3.35,0.96,5.11c0,0.01,0,0.03,0,0.04c0.36,1.26,0.77,2.51,1.24,3.76
		c0.07,0.06,0.14,0.12,0.21,0.18c0.04,0.04,0.05,0.04,0.06,0.05c0.01,0.01,0.02,0.01,0.07,0.04c0.06,0.04,0.13,0.08,0.2,0.12
		c0.25-0.05,0.52-0.02,0.74,0.13c0.18,0.12,0.36,0.22,0.54,0.31c0.04,0.02,0.11,0.05,0.14,0.06c0.09,0.03,0.18,0.06,0.28,0.09
		c0.4,0.13,0.75,0.21,1.03,0.23c0.12,0.01,0.24,0,0.36,0C244.41,195.59,243.93,195.06,243.64,194.54z"/>
	
		<linearGradient id="SVGID_00000007389130974871933830000017127587473441080192_" gradientUnits="userSpaceOnUse" x1="207.2615" y1="624.5662" x2="269.1589" y2="585.5591" gradientTransform="matrix(1 0 0 -1 0 799.8898)">
		<stop  offset="0" style="stop-color:#000000"/>
		<stop  offset="4.538357e-03" style="stop-color:#020202;stop-opacity:0.9958"/>
		<stop  offset="0.1686" style="stop-color:#424242;stop-opacity:0.8434"/>
		<stop  offset="0.3303" style="stop-color:#7A7A7A;stop-opacity:0.6932"/>
		<stop  offset="0.4859" style="stop-color:#A7A7A7;stop-opacity:0.5487"/>
		<stop  offset="0.634" style="stop-color:#CACACA;stop-opacity:0.4111"/>
		<stop  offset="0.7727" style="stop-color:#E3E3E3;stop-opacity:0.2822"/>
		<stop  offset="0.8986" style="stop-color:#F3F3F3;stop-opacity:0.1653"/>
		<stop  offset="1" style="stop-color:#F8F8F8;stop-opacity:0.0711"/>
	</linearGradient>
	<path style="fill:url(#SVGID_00000007389130974871933830000017127587473441080192_);" d="M232.53,191.62
		c-0.38-1.58-0.46-3.52-1.45-4.88c-0.75-1.04-2.11-1.96-3.39-2.14c-0.48-0.07-0.96-0.03-1.35,0.28c-0.31,0.24-0.48,0.66-0.59,1.1
		c0.17,0.05,0.34,0.09,0.49,0.14c2.46,0.73,3.95,3.05,4.17,5.55c0.11,0.16,0.23,0.31,0.33,0.47c0.56,0.85,1.05,1.75,1.48,2.67
		s1.77,1.24,2.64,0.78C233.53,194.73,232.9,193.16,232.53,191.62z"/>
	
		<linearGradient id="SVGID_00000158006368439560101590000018312869394726990525_" gradientUnits="userSpaceOnUse" x1="184.9169" y1="628.6848" x2="257.1904" y2="624.3699" gradientTransform="matrix(1 0 0 -1 0 799.8898)">
		<stop  offset="0" style="stop-color:#000000"/>
		<stop  offset="0.0858" style="stop-color:#272727;stop-opacity:0.9203"/>
		<stop  offset="0.2212" style="stop-color:#5E5E5E;stop-opacity:0.7945"/>
		<stop  offset="0.3578" style="stop-color:#8D8D8D;stop-opacity:0.6676"/>
		<stop  offset="0.4927" style="stop-color:#B3B3B3;stop-opacity:0.5423"/>
		<stop  offset="0.6254" style="stop-color:#D1D1D1;stop-opacity:0.419"/>
		<stop  offset="0.7556" style="stop-color:#E7E7E7;stop-opacity:0.2981"/>
		<stop  offset="0.8818" style="stop-color:#F4F4F4;stop-opacity:0.1808"/>
		<stop  offset="1" style="stop-color:#F8F8F8;stop-opacity:0.0711"/>
	</linearGradient>
	<path style="fill:url(#SVGID_00000158006368439560101590000018312869394726990525_);" d="M250.29,165.32
		c1.72-0.71,3.3-1.79,4.99-2.91c0.17-0.12,0.35-0.24,0.45-0.42c0.19-0.36-0.05-0.83-0.4-1.03c-0.36-0.2-0.79-0.19-1.19-0.13
		c-2.5,0.35-4.58,2.27-7.1,2.46c-1.02,0.07-1.6-0.36-2.53-0.61c-1.35-0.36-2.92-0.13-4.29-0.01c-1.09,0.09-2.21,0.24-3.17,0.78
		c-0.65,0.37-1.18,0.91-1.72,1.44c-1.33,1.3-2.72,2.54-4.17,3.71c-1.35,1.08-2.93,1.53-4.27,2.64c-1.47,1.23-2.11,3.1-3.58,4.3
		c-1.32,1.09-2.53,2.06-3.42,3.56c-0.81,1.35-3.83,7.5-1.26,8.64c0.3,0.13,0.65,0.07,0.97,0c1.29-0.28,5.32-1.58,2.35-3.23
		c-0.34-0.19-0.72-0.31-1.01-0.56c-0.58-0.51-0.62-1.42-0.42-2.17c0.49-1.87,2-3.17,3.42-4.37c0.53-0.44,1.22-1.55,1.94-1.66
		c0.38-0.06,0.65,0.24,1.03,0.29c0.55,0.07,1.19-0.1,1.7-0.28c0-0.07,0.01-0.14,0.01-0.22c-0.39-0.04-0.81-0.09-1.11-0.35
		c-1.2-1.02,1.16-3.18,2-3.57c0.48-0.22,1.11-0.34,1.5,0.01c0.42,0.38,0.37,1.13,0.83,1.47c0.6-1.19-0.09-2.97,1.33-3.63
		c1.34-0.62,2.23-1.28,3.25-2.31c0.03,0.46,0.57,0.69,1.03,0.77c1.25,0.21,2.54,0.12,3.74-0.27c-0.66-0.15-1.32-0.29-1.98-0.44
		c-0.46-0.1-1.04-0.35-0.99-0.82c0.02-0.18,0.13-0.33,0.25-0.47c1.21-1.39,3.2-1.71,5.03-1.87c0.36-0.03,0.78-0.04,1.01,0.24
		c0.54,0.63-0.62,1.63-0.23,2.36c0.23,0.18,0.58,0.07,0.81-0.12s0.42-0.44,0.69-0.55c0.63-0.26,1.37,0.23,2.02,0.16
		C248.56,166.08,249.57,165.61,250.29,165.32z"/>
	<g>
		<g>
			<path d="M265.99,182.34c-1.25-4.65-0.59-10.2,2.35-14.13c1.16-1.55,3.01-2.8,5-2.13c2.43,0.82,1.57,3.62,1.09,5.46
				c-1.19,4.62-0.17,9.31,0.18,13.97c0.17,2.22,0.22,4.5-0.38,6.66c-0.59,2.12-1.93,4.04-3.2,5.8c-1.61,2.22-3.42,4.3-5.29,6.3
				c-0.44,0.47-0.89,0.94-1.34,1.4c-0.4,0.41-0.9,0.8-1.23,1.26c-0.59,0.82-0.4,2.24-0.03,3.09c0.21,0.5,0.94,0.61,1.37,0.36
				c0.51-0.3,0.57-0.87,0.36-1.37c-0.15-0.35-0.04-0.86,0.05-1.21c-0.09,0.15-0.17,0.29-0.26,0.44c3.46-3.44,6.84-7.12,9.45-11.26
				c1.28-2.03,2.17-4.07,2.47-6.46c0.3-2.37,0.09-4.76-0.16-7.12c-0.25-2.41-0.58-4.83-0.57-7.26c0.01-1.1,0.08-2.2,0.32-3.28
				c0.28-1.3,0.72-2.55,0.82-3.89c0.19-2.4-1.26-4.52-3.67-4.98c-2.32-0.44-4.49,0.58-6.02,2.32c-1.85,2.11-2.99,4.92-3.52,7.65
				c-0.58,2.95-0.49,5.99,0.28,8.89C264.4,184.11,266.33,183.58,265.99,182.34L265.99,182.34z"/>
		</g>
	</g>
	<g>
		<g>
			<path d="M226.28,186.26c1.62,0.93,2.28,2.82,2.91,4.48c0.71,1.86,1.54,3.81,3.26,4.95c0.98,0.65,2.28,0.84,3.43,0.85
				c1.31,0.01,2.72-0.23,3.87-0.89c1.4-0.81,2.04-2.17,1.8-3.75c-0.08-0.53-0.75-0.83-1.23-0.7c-0.57,0.16-0.78,0.69-0.7,1.23
				c0.05,0.36-0.01,0.62-0.23,0.94c-0.02,0.04,0,0.01-0.1,0.12c-0.08,0.09-0.17,0.17-0.27,0.25c0.08-0.06-0.12,0.08-0.15,0.1
				c-0.13,0.08-0.26,0.15-0.39,0.22c-0.85,0.41-1.97,0.53-2.98,0.47c-0.97-0.05-1.77-0.24-2.5-0.95c-1.21-1.19-1.69-2.91-2.3-4.43
				c-0.73-1.82-1.66-3.6-3.42-4.61C226.17,183.9,225.16,185.62,226.28,186.26L226.28,186.26z"/>
		</g>
	</g>
	<g>
		<g>
			<path d="M234.4,178.56c2.8,2.11,3.97,5.69,4.56,9c0.34,1.9,0.5,3.82,0.77,5.73c0.1,0.72,0.23,1.48,0.59,2.12
				c0.4,0.72,1.1,1.2,1.85,1.5c1.4,0.56,3.23,0.7,4.72,0.47c1.74-0.26,2.98-1.49,3.35-3.19c0.39-1.79,0.2-3.73,0.2-5.54
				c0-2.01,0.05-4.03-0.07-6.04c-0.13-2.16-0.57-4.24-1.59-6.16c-0.96-1.81-2.32-3.39-3.75-4.85c-0.9-0.92-2.32,0.5-1.41,1.41
				c2.38,2.41,4.29,5.11,4.67,8.56c0.2,1.78,0.15,3.59,0.15,5.38c0,1.8,0.05,3.6,0,5.4c-0.03,1.39-0.29,2.82-1.89,3.08
				c-0.67,0.11-1.39,0.03-2.06-0.04c-0.62-0.07-1.3-0.16-1.85-0.45c-0.53-0.29-0.69-0.69-0.82-1.27c-0.17-0.77-0.24-1.57-0.34-2.35
				c-0.21-1.74-0.41-3.48-0.77-5.19c-0.76-3.59-2.32-7.04-5.31-9.3c-0.43-0.33-1.12-0.07-1.37,0.36
				C233.74,177.7,233.97,178.23,234.4,178.56L234.4,178.56z"/>
		</g>
	</g>
	<g>
		<g>
			<path d="M248.54,191.06c0.23,2.57,1.42,5.01,3.77,6.25c2.23,1.18,5.03,0.97,6.86-0.87c1.16-1.17,1.39-2.64,1.49-4.22
				c0.12-1.81,0.19-3.62,0.23-5.43c0.07-3.57,0.14-7.25-0.58-10.76c-0.68-3.31-2.31-6.46-5.16-8.39c-1.07-0.72-2.07,1.01-1.01,1.73
				c4.75,3.22,4.75,9.85,4.77,14.96c0,1.56-0.02,3.13-0.08,4.69c-0.06,1.48,0,3.08-0.3,4.54c-0.43,2.05-2.7,2.93-4.57,2.31
				c-2.06-0.69-3.23-2.69-3.42-4.79c-0.05-0.54-0.42-1-1-1C249.04,190.06,248.49,190.51,248.54,191.06L248.54,191.06z"/>
		</g>
	</g>
	<g>
		<g>
			<path d="M264.52,185.75c-0.13,0.79-0.25,1.57-0.38,2.36c-0.03,0.17-0.07,0.33-0.1,0.5c-0.05,0.23,0.08-0.1-0.03,0.1
				c-0.03,0.05-0.17,0.23-0.03,0.06c-0.09,0.1-0.19,0.19-0.29,0.28c0.17-0.14-0.02,0.01-0.06,0.04c-0.07,0.05-0.14,0.09-0.21,0.13
				c-0.29,0.18-0.57,0.36-0.87,0.51c-0.08,0.04-0.17,0.08-0.25,0.13c-0.16,0.08,0.04,0-0.06,0.03c-0.16,0.05-0.32,0.1-0.49,0.14
				c-0.28,0.07,0.19,0-0.06,0.01c-0.08,0-0.15,0.01-0.23,0c-0.03,0-0.25-0.03-0.1,0s-0.06-0.02-0.09-0.03
				c-0.07-0.02-0.15-0.04-0.22-0.07c0.23,0.08,0.02-0.01-0.03-0.03c-0.17-0.09,0.1,0.13-0.04-0.02c-0.04-0.04-0.18-0.22-0.04-0.03
				c-0.3-0.42-0.88-0.67-1.37-0.36c-0.42,0.27-0.69,0.91-0.36,1.37c0.56,0.78,1.43,1.2,2.4,1.18c0.95-0.03,1.81-0.47,2.6-0.96
				c0.82-0.5,1.54-1.07,1.79-2.04c0.11-0.42,0.15-0.87,0.22-1.3c0.08-0.49,0.16-0.98,0.24-1.47c0.08-0.51-0.13-1.1-0.7-1.23
				C265.27,184.94,264.61,185.2,264.52,185.75L264.52,185.75z"/>
		</g>
	</g>
	<path class="st15" d="M227.67,186.35l-9.55,1.49c-0.2-1.33-0.71-4.11-0.37-5.41c0.53-2.09,2.31-3.6,4-4.94
		c1.38-1.1,2.81-2.22,3.66-3.77c0.25-0.46,0.45-0.96,0.75-1.39c0.96-1.4,2.74-1.92,4.19-2.82c3.18-1.98,5.02-6.03,8.63-7.01
		c1.42-0.39,2.92-0.22,4.39-0.06c1.43,0.16,2.87,0.32,4.3,0.48c0.63,0.07,1.29,0.13,1.86-0.13c0.51-0.24,0.86-0.7,1.29-1.05
		c1.4-1.15,3.4-1.11,5.2-1c1.01,0.06,2.05,0.13,2.97,0.54c0.94,0.42,1.69,1.18,2.37,1.95c1.65,1.89,3.51,4.25,4.54,6.54"/>
	<g>
		<g>
			<path d="M261.39,191.06c-0.03,1.59-0.19,3.21-1.06,4.59c-0.45,0.71-1.17,1.39-2.01,1.57c-0.51,0.11-1.04,0.16-1.56,0.24
				c-2.7,0.42-5.4,0.85-8.1,1.27c-7.2,1.13-14.4,2.26-21.59,3.39c-1.75,0.27-3.5,0.55-5.25,0.82c-0.49,0.08-0.88,0.77-0.7,1.23
				c1.75,4.33,3.74,8.59,6.11,12.62c1.12,1.9,2.28,3.67,4.03,5.06c1.43,1.13,3,2.01,4.68,2.7c0.9,0.37,1.84,0.7,2.79,0.91
				c1.25,0.28,1.79-1.65,0.53-1.93c-2.18-0.49-4.3-1.46-6.12-2.75c-1.71-1.21-2.85-2.76-3.91-4.54c-1.12-1.89-2.16-3.82-3.12-5.79
				c-1.1-2.23-2.12-4.51-3.05-6.81c-0.23,0.41-0.47,0.82-0.7,1.23c4.9-0.77,9.81-1.54,14.71-2.31c6.69-1.05,13.38-2.1,20.07-3.15
				c0.58-0.09,1.18-0.14,1.75-0.27c1.39-0.32,2.57-1.46,3.28-2.65c0.98-1.64,1.2-3.56,1.24-5.43
				C263.42,189.77,261.42,189.77,261.39,191.06L261.39,191.06z"/>
		</g>
	</g>
</g>
</svg>
