<?xml version="1.0" encoding="utf-8"?>
<!-- Generator: Adobe Illustrator 28.0.0, SVG Export Plug-In . SVG Version: 6.00 Build 0)  -->
<svg version="1.1" id="Layer_1" xmlns="http://www.w3.org/2000/svg" xmlns:xlink="http://www.w3.org/1999/xlink" x="0px" y="0px"
	 viewBox="0 0 800 800" style="enable-background:new 0 0 800 800;" xml:space="preserve">
<style type="text/css">
	.st0{fill:#E5D4BD;}
	.st1{fill:url(#SVGID_1_);}
	.st2{fill:url(#SVGID_00000145033892519221803250000009069849097630472327_);}
	.st3{fill:url(#SVGID_00000050658306935052949210000014968829259460215483_);}
	.st4{fill:#FBEBD2;}
	.st5{fill:#EFAFAF;}
	.st6{fill:url(#SVGID_00000155134199361876519510000000195236531375352982_);}
	.st7{fill:url(#SVGID_00000141448898437874913930000000257481373143520661_);}
	.st8{fill:url(#SVGID_00000147208344222786983790000009761458042051593088_);}
	.st9{fill:url(#SVGID_00000038399868465228757530000013172273479415869881_);}
	.st10{fill:url(#SVGID_00000135661351746756417870000002682560329384613562_);}
	.st11{fill:url(#SVGID_00000150819201468905161220000010650090752616967564_);}
	.st12{fill:url(#SVGID_00000105419016813909449370000012381436450962672057_);}
	.st13{fill:url(#SVGID_00000066495254684929134520000003067952636551652519_);}
	.st14{fill:url(#SVGID_00000107564406553481679470000001204252378970954132_);}
	.st15{fill:url(#SVGID_00000090279529741383058960000011162399646999611012_);}
	.st16{fill:url(#SVGID_00000059277526210145419140000016089503091882376364_);}
	.st17{fill:url(#SVGID_00000028302486057042494790000014580538550972101291_);}
	.st18{fill:url(#SVGID_00000014623908747917225340000016028667436179228054_);}
	.st19{fill:url(#SVGID_00000064333061200197479650000005817507945277258166_);}
	.st20{fill:url(#SVGID_00000047040123585111948950000000451713220777025681_);}
	.st21{fill:url(#SVGID_00000138542443114007776960000009409568625758037910_);}
	.st22{fill:url(#SVGID_00000179621863044375372510000007480794427819333038_);}
	.st23{fill:url(#SVGID_00000072991182380081795550000010990323568895269024_);}
	.st24{fill:url(#SVGID_00000062156046900816192300000006038707319604467083_);}
	.st25{fill:url(#SVGID_00000137838883828899138640000012852666449613771679_);}
	.st26{fill:none;stroke:#000000;stroke-linecap:round;stroke-linejoin:round;stroke-miterlimit:10;}
	.st27{fill:none;stroke:#000000;stroke-width:0.5;stroke-linecap:round;stroke-linejoin:round;stroke-miterlimit:10;}
	.st28{fill:none;stroke:#000000;stroke-width:2;stroke-linecap:round;stroke-linejoin:round;stroke-miterlimit:10;}
	.st29{fill:#FFFFFF;}
	.st30{fill:url(#SVGID_00000148655928632291024850000007729599337574393266_);}
	.st31{fill:url(#SVGID_00000029757788023046397990000008774844208900005027_);}
	.st32{fill:url(#SVGID_00000039825592806533375810000009778169597149672635_);}
	.st33{fill:url(#SVGID_00000042696952228519531740000016837930325936356522_);}
	.st34{fill:url(#SVGID_00000007414915958174965070000017503098556599787431_);}
	.st35{fill:url(#SVGID_00000018949165386158526650000001943925830619671447_);}
	.st36{fill:url(#SVGID_00000034089819025677620150000014187344071802176930_);}
	.st37{fill:url(#SVGID_00000167364701561880485840000000489496954758602175_);}
	.st38{fill:url(#SVGID_00000061464200682796162570000011549239604201202617_);}
	.st39{fill:#E5E5E5;}
	.st40{fill:url(#SVGID_00000140726965974472914970000011302439828331293082_);}
	.st41{fill:url(#SVGID_00000104683261680556428840000003580209421725349544_);}
	.st42{fill:url(#SVGID_00000018947019641183885420000013092826708872392637_);}
	.st43{fill:url(#SVGID_00000135676468428631931670000018157552681325946771_);}
</style>
<g id="_x34_-WEAR__x5B_DRUNK_MONSTER_x5D___x2B_">
	<path class="st0" d="M552,271.73c-0.18-0.56-0.35-1.13-0.49-1.71c-0.39-1.58-0.63-3.2-1.25-4.7c-0.49-1.18-1.22-2.24-1.87-3.34
		c-2.87-4.83-3.6-9.97-4.89-15.32c-1.31-5.42-2.81-10.87-5.52-15.77c-1.05-1.89-2.27-3.68-3.31-5.58
		c-3.22-5.85-3.28-12.53-6.39-18.42c-1.38-2.62-1.61-5.03-2.46-7.85c-0.94-3.09-1.96-6.17-2.45-9.38c-0.2-1.31-0.29-2.66-0.8-3.9
		c-0.99-2.43-3.36-3.96-5.59-5.34c-1.79-1.11-3.58-2.22-5.5-3.08c-1.73-0.78-3.55-1.36-5.35-1.96c-5.19-1.75-10.22-3.83-15.21-6.07
		c-2.18-0.98-4.44-1.76-6.65-2.75c-2.38-1.07-4.83-2.02-7.39-2.59c-3.86-0.87-7.83-0.86-11.75-1.26c-1.55-0.16-2.74-0.79-4.24-1.11
		c-1.82-0.38-3.67-0.61-5.52-0.78c-7.57-0.69-15.19,0.04-22.73,0.76c-9.03,0.87-18.05,1.74-27.08,2.6c-0.91,0.09-1.88,0.2-2.57,0.79
		c-0.5,0.43-0.79,1.07-1.24,1.55c-0.66,0.7-2.26,0.99-3.15,1.51c-2.75,1.63-5.64,3.03-8.63,4.16c-1.74,0.66-3.53,1.23-5.36,1.59
		c-1.2,0.23-2.41,0.37-3.58,0.72c-1.13,0.33-2.19,0.85-3.19,1.47c-0.82,0.51-1.6,1.1-2.44,1.59c-0.82,0.49-1.69,0.88-2.57,1.26
		c-3.76,1.63-7.46,3.38-11.08,5.29c-1.81,0.96-3.61,1.96-5.37,3c-1.65,0.97-3.41,1.73-4.69,3.18c-1.38,1.56-2.29,3.08-3.11,5.02
		c-1.33,3.14-2.73,6.25-4.13,9.36c-0.5,1.12-1.01,2.24-1.51,3.36c-2.68,5.95-6.03,12.25-9.88,17.54c-2.52,3.46-2.91,7.85-5.29,11.44
		c-1.28,1.93-3.14,3.28-4.51,5.08c-1.3,1.71-2.52,3.67-3.68,5.5c-2.03,3.21-3.61,6.88-3.46,10.68c-3.54-1.57-5.13-5.76-7.81-8.33
		c-3.83-3.69-7.67-7.37-11.5-11.06c-1.86-1.8-3.73-3.6-5.8-5.15c-2.8-2.09-5.94-3.69-8.74-5.77c-2.78-2.06-5.2-4.55-7.51-7.12
		c-3.22-3.57-6.26-7.3-9.12-11.17c-0.44-0.6-1-1.27-1.75-1.26c-0.39,0-0.75,0.2-1.09,0.39c-4.25,2.35-8.5,4.73-12.48,7.52
		c-2.01,1.41-3.96,2.93-5.77,4.59c-0.91,0.83-1.78,1.7-2.61,2.6c-0.86,0.93-1.44,1.12-0.99,2.51c0.3,0.93,0.6,1.86,1.02,2.74
		c1.43,3.06,2.74,6.06,4.45,9c1.84,3.17,3.84,6.24,5.92,9.26c2.13,3.09,3.53,6.6,5.3,9.95c2.05,3.88,4.1,7.76,6.15,11.64
		c1.83,3.46,3.66,6.93,5.93,10.12c1.91,2.69,4.12,5.17,6.01,7.87c2.26,3.23,4.06,6.76,6.17,10.08c1.95,3.06,4.17,5.95,6.62,8.62
		c2.24,2.44,4.67,4.69,7.1,6.94c3.03,2.8,6.06,5.61,9.09,8.41c1.36,1.25,2.76,2.54,4.51,3.14c1.1,0.38,2.28,0.47,3.44,0.61
		c4.12,0.5,8.89,1.53,11.94-1.28c1.66-1.54,2.47-1.37,2.42,0.78c-0.06,2.49,0.35,5.09,0.96,7.49c0.28,1.1,0.62,2.21,0.47,3.33
		c-0.17,1.26-0.96,2.36-1.28,3.6c-1.09,4.14,1.24,8.38,1.07,12.58c-0.07,1.82-0.48,3.62-0.8,5.41c-1.37,7.64-1.22,15.47-0.27,23.16
		c0.72,5.85,1.01,11.96,3.93,17.2c1.38,2.48,2.91,4.86,4.46,7.24c1.32,2.05,3.19,3.01,5.23,4.34c7.73,5.04,16.56,8.28,25.63,9.88
		c5.19,0.92,10.48,1.3,15.75,1.17c3.64-0.09,7.27-0.41,10.89-0.73c6.17,0,12.54-1.12,18.69-1.68c2.91-0.26,5.54-0.47,8.31-1.45
		s5.47-2.17,8.02-3.65c6.55-3.82,11.5-9.97,15-16.6c0.6-1.14,1.49-3.15,2.98-3.02c1.37,0.11,2.32,1.4,3.95,1.24
		c1.36-0.13,2.54-0.93,3.79-1.48c2.87-1.27,6.29-1.21,9.12,0.15c1.76,0.85,3.35,2.18,5.28,2.46c1.03,0.15,2.08-0.02,3.1-0.26
		c6.39-1.52,11.75-5.44,14.51-11.47c1.41-3.07,2.27-6.36,3.51-9.5c0.83-2.1,1.82-4.14,2.81-6.17c1.54-3.15,3.08-6.3,4.62-9.45
		c1.23-2.52,1.26-5.3,0.9-8.1c-0.38-2.97-1.27-5.84-1.75-8.8c-0.75-4.58-0.49-9.25-0.97-13.86c-0.47-4.44-1.4-8.6-0.6-13.09
		c0.39-2.21,1.06-4.39,1.24-6.63c0.33-4.08-0.94-8.09-1.59-12.13c-1.26-7.93-0.11-16.02,1.05-23.97c1.19,1.84,1.04,4.1,1.23,6.19
		c0.5,5.57,5.39,8.28,7.64,12.99c1.75,3.65,1.56,8.18,4.06,11.37c1.85,2.35,5.01,3.74,5.95,6.58c0.85,2.56-0.7,5.48-1.36,7.94
		c-0.61,2.26-1.14,4.56-1.4,6.9c-0.21,1.94,0.16,3.99,0.13,5.97c-0.07,4.9-0.07,9.84,0.72,14.69c0.5,3.09,1.24,6.15,1.34,9.27
		c0.17,5.36-1.55,10.63-1.43,15.99c0.04,1.79,0.28,3.57,0.4,5.36c0.44,6.68-0.87,13.37-0.59,20.05c0.07,1.59,0.26,3.27,1.26,4.51
		c0.62,0.77,1.49,1.3,2.34,1.8c2.47,1.47,4.94,2.93,7.42,4.4c4.71,2.79,9.46,5.61,14.65,7.34c0.59,0.2,1.25,0.38,1.83,0.14
		c1.15-0.49,2.21-4.67,2.69-5.83c0.88-2.14,1.72-4.3,2.51-6.47c1.62-4.44,3.06-8.95,4.44-13.47c2.66-8.75,5.07-17.7,7.87-26.33
		c0.99-3.05,1.99-6.11,2.65-9.25c0.79-3.71,1.11-7.51,1.87-11.23c1.29-6.25,4.51-12.09,5.52-18.36c0.3-1.86,0.29-3.77,0.19-5.65
		c-0.2-3.88-0.76-7.75-1.68-11.53c-1.41-5.84-3.56-11.61-5.84-17.17C557.23,282,553.78,277.18,552,271.73z"/>
	
		<linearGradient id="SVGID_1_" gradientUnits="userSpaceOnUse" x1="533.7251" y1="420.9285" x2="534.9762" y2="398.4865" gradientTransform="matrix(1 0 0 -1 0 799.8898)">
		<stop  offset="5.787037e-04" style="stop-color:#E5D4BD"/>
		<stop  offset="0.9956" style="stop-color:#FBEBD2"/>
	</linearGradient>
	<path class="st1" d="M513.68,400.35c0.61,0.73,1.53,1.4,2.51,1.98c3.01,1.77,6.02,3.54,9.07,5.24c1.53,0.85,3.06,1.67,4.62,2.46
		c1.41,0.72,2.85,1.8,4.41,2.14c0.48,0.11,0.98,0.13,1.47,0.16c0.88,0.05,1.79,0.1,2.64-0.15c1.35-0.4,1.71-1.34,2.13-2.54
		c2.47-7.05,5.57-13.8,8.01-20.87c2.4-6.97,4.37-14.08,5.91-21.28c0.18-0.85,0.36-1.71,0.35-2.58c-0.01-0.55-0.17-1.2-0.68-1.39
		s-1.05,0.19-1.46,0.55c-5.68,4.92-11.11,10.12-16.28,15.57c-5.33,5.63-10.63,11.73-17.82,14.63c-1.34,0.54-2.75,0.97-3.91,1.83
		C512.54,397.66,512.65,399.1,513.68,400.35z"/>
	
		<linearGradient id="SVGID_00000134943247732545699120000018174167712367994007_" gradientUnits="userSpaceOnUse" x1="272.1745" y1="551.5895" x2="250.6807" y2="603.8773" gradientTransform="matrix(1 0 0 -1 0 799.8898)">
		<stop  offset="5.787037e-04" style="stop-color:#E5D4BD"/>
		<stop  offset="0.8889" style="stop-color:#F9E9D0"/>
		<stop  offset="0.9956" style="stop-color:#FBEBD2"/>
	</linearGradient>
	<path style="fill:url(#SVGID_00000134943247732545699120000018174167712367994007_);" d="M242.87,226.68
		c1.05,0.57,2.12,1.08,2.59,1.38c3.67,2.32,7.43,4.52,11.4,6.29c1.16,0.51,2.41,1,3.65,0.77c0.22-0.04,0.46-0.12,0.6-0.3
		c0.25-0.32,0.08-0.79-0.09-1.16c-0.54-1.14-1.09-2.27-1.63-3.41c0.32,0.66,3.87,0.46,4.56,0.61c1.14,0.25,2.2,0.76,3.35,1.04
		c3.46,0.83,6.95,1.52,10.42,2.28c2.45,0.54,4.93,1.07,7.44,1.1c1.26,0.01,2.87-0.42,3-1.68c0.09-0.86-0.61-1.57-1.26-2.13
		c-1.87-1.64-3.82-3.2-5.81-4.68c-1.84-1.36-4.28-2.5-5.73-4.28c-3.05-3.76-5.99-7.84-8.81-11.81c-0.5-0.7-1.84-1.99-2.64-2.29
		c-0.91-0.34-3.44,0.2-4.35,0.54c-4.85,1.79-7.1,4.62-11.23,7.73c-2.06,1.55-4.01,3.26-5.83,5.1c-0.71,0.72-2.64,1.83-2.25,2.91
		C240.45,225.27,241.65,226.01,242.87,226.68z"/>
	
		<linearGradient id="SVGID_00000171698417075505092450000000052703765328420279_" gradientUnits="userSpaceOnUse" x1="431.2992" y1="635.5269" x2="426.4545" y2="650.4537" gradientTransform="matrix(1 0 0 -1 0 799.8898)">
		<stop  offset="5.787037e-04" style="stop-color:#E5D4BD"/>
		<stop  offset="0.3864" style="stop-color:#E9D8C1"/>
		<stop  offset="0.8033" style="stop-color:#F6E5CD"/>
		<stop  offset="0.8889" style="stop-color:#F9E9D0"/>
		<stop  offset="1" style="stop-color:#FBEBD2"/>
	</linearGradient>
	<path style="fill:url(#SVGID_00000171698417075505092450000000052703765328420279_);" d="M455.84,153.19
		c0.46,1.6,1.11,3.1,2.15,4.4c0.93,1.17,2.05,2.3,2.4,3.81c0.05,0.2,0.07,0.43-0.06,0.59c-0.08,0.1-0.21,0.15-0.34,0.18
		c-0.83,0.2-1.67-0.15-2.48-0.41c-4.11-1.29-8.6-0.57-12.82-0.29c-4.46,0.3-8.92,0.64-13.37,1.03c-4.45,0.39-8.9,0.83-13.34,1.31
		c-2.86,0.31-5.72,0.64-8.5,1.35c-1.84,0.47-3.63,1.1-5.36,1.88c-1.56,0.71-2.42-0.05-2.32-1.63c0.11-1.84,0.55-3.55,0.48-5.41
		c-0.05-1.34-0.19-2.68-0.42-4.01c-0.1-0.59-1.47-3.11,0-2.89c0.43,0.07,0.74,0.44,0.93,0.83c0.74,1.52,0.23,3.47,1.14,4.89
		c0.6,0.94,1.7,1.42,2.77,1.73c2.56,0.73,5.32,0.69,7.86-0.1c0.88-0.27,1.73-0.64,2.49-1.15c0.72-0.48,1.34-1.09,1.97-1.69
		c3.24-3.08,6.74-5.88,10.45-8.37c3.56-2.38,7.59-5.22,11.79-6.18c2.05-0.47,4.12-0.86,6.21-1.04c1.59-0.14,3.28-0.14,4.69,0.6
		c1.42,0.75,1.86,2.11,2.15,3.59C454.77,148.58,455.18,150.88,455.84,153.19z"/>
	<path class="st4" d="M444.69,393.05c0.19-0.31,0.4-0.63,0.72-0.78c0.56-0.26,1.19,0.09,1.77,0.31c3.86,1.52,7.96-2.48,12.07-1.91
		c1.77,0.24,3.3,1.31,4.9,2.1c2.58,1.29,5.57,1.91,8.39,1.29c3.4-0.74,6.15-3.15,8.75-5.47c1.47-1.32,3.19-2.79,3.95-4.67
		c0.76-1.9,1.04-3.98,1.88-5.91c3.06-7.05,6.65-13.9,8.99-21.24c0.55-1.74,1.04-3.51,1.19-5.33c0.18-2.27-0.16-4.54-0.5-6.79
		c-0.38-2.51-0.66-5.01-0.99-7.52c-0.7-5.3-2.15-11.02-2.15-16.36c-0.22-1.68-0.44-3.4-0.08-5.05c0.35-1.6,1.22-3.03,1.7-4.6
		c1.08-3.51,0.09-7.28-0.68-10.87c-0.24-1.11-0.45-2.23-0.65-3.35c-0.64-3.7-1.06-7.43-1.23-11.18c-0.17-3.56-0.12-7.19,0.69-10.68
		c0.69-2.98,2.53-5.51,1.9-8.73c-0.45-2.29-2.54-3.87-4.59-5c-4.34-2.39-8.13-5.8-11.04-9.86c-5.2-7.24-5.63-16.88-4.49-25.72
		c0.42-3.26,1.03-6.5,1.64-9.74c0.59-3.16,1.19-6.31,1.78-9.47c0.72-3.85,1.45-7.69,2.38-11.49c1.96-7.93,4.87-15.62,8.64-22.87
		c0.12-0.23,0.24-0.47,0.21-0.72c-0.04-0.34-0.34-0.58-0.62-0.78c-6.05-4.3-13.35-6.82-20.76-7.15c-1.34,4.54-3.71,8.7-6.06,12.81
		c-2.04,3.56-4.08,7.13-6.12,10.69c-1.75,3.05-3.32,4.88-6.3,6.67c-2.8,1.69-5.92,2.82-9.14,3.37c-2.99,0.51-6.03,0.52-9.06,0.6
		c-8.1,0.22-16.18,0.97-24.28,0.92c-5.38-0.03-10.77-0.42-16.04-1.54c-2.19-0.46-4.2-0.97-6.42-1.14c-1.83-0.14-3.7-0.96-4.87-2.43
		c-1.14-1.43-1.41-3.4-1.21-5.22c0.25-2.28,1.14-4.44,2.02-6.56c0.64-1.55,1.29-3.09,1.93-4.64c1.3-3.12-2.55-1.8-4.01-1.19
		c-3.69,1.55-7.75,2.99-11.08,5.22c0.15,2.2-0.01,4.42-0.47,6.57c-0.7,3.28-2.09,6.37-3.47,9.43c-4.13,9.17-8.39,18.52-15.31,25.82
		c-1.04,1.1-2.33,1.28-3.38,2.12c-0.94,0.75-1.29,2.35-1.72,3.41c-0.97,2.37-1.32,4.79-2.62,7.07c-0.79,1.38-1.74,2.73-1.92,4.31
		c-0.18,1.58,0.44,3.12,0.73,4.69c0.62,3.39-0.36,6.85-1.32,10.16c-0.9,3.09-1.81,6.18-2.71,9.27c-0.74,2.54-1.47,5.37-0.32,7.76
		c1.47,3.05,4.71,4.29,3.49,8.09c-2.5,7.76-5,15.52-7.5,23.28c-1.51,4.69-3.03,9.41-3.82,14.27c-0.48,2.93-0.69,5.92-0.46,8.89
		c0.2,2.62,0.94,4.97,0.76,7.58c-0.13,1.93-0.43,3.85-0.43,5.78c0,1.7,0.24,3.4,0.39,5.09c0.45,5.08,0.84,11.14-0.71,15.95
		c-0.88,2.73-0.82,5.84-0.45,8.66c0.35,2.64,0.29,5.32,0.44,8.01c0.32,5.87,1.19,11.73,3.09,17.31c0.71,2.08,1.56,4.12,2.7,5.99
		c2.26,3.71,5.62,6.66,9.32,8.93c11.08,6.77,24.69,9.29,37.53,9.67c10.8,0.32,21.57-0.8,32.29-1.93c1.56-0.16,3.13-0.33,4.67-0.66
		c2.46-0.53,4.82-1.46,7.1-2.54c4.53-2.14,8.84-4.87,12.45-8.37C439.73,402.21,442.08,397.31,444.69,393.05z"/>
	<path class="st5" d="M349,270.49c-0.02-0.11-0.01-0.05,0.01,0.18c-0.02-0.13-0.03-0.26-0.05-0.39c-0.22-1.03-1.41-1.48-2.32-1.71
		c-0.06-0.02-0.13-0.02-0.19-0.04c-0.54-0.28-1.12-0.5-1.71-0.61c-1.43-0.28-3.15-0.27-4.32,0.73c-0.08,0.07-0.13,0.15-0.2,0.23
		c-0.23,0.16-0.42,0.36-0.55,0.61c-0.35,0.66-0.26,1.44,0.11,2.07c0.25,0.69,0.73,1.3,1.37,1.66c1.24,0.68,2.81,0.59,4.18,0.55
		c1.01-0.03,1.94-0.22,2.74-0.87c0.3-0.24,0.55-0.56,0.72-0.91c0.16-0.33,0.26-0.64,0.27-1.01
		C349.07,270.82,348.95,270.62,349,270.49z"/>
	<path class="st5" d="M468.21,271.92c-0.7-0.37-1.65-0.35-2.43-0.39c-0.72-0.04-1.44-0.05-2.15-0.03c-1.73,0.05-3.47,0.27-5.16,0.66
		c-0.87,0.2-1.81,0.39-2.51,0.99c-0.05,0.04-0.08,0.09-0.13,0.14c-0.13,0.07-0.26,0.14-0.39,0.23c-0.67,0.51-1,1.36-0.79,2.19
		c0.22,0.85,0.98,1.4,1.79,1.63c0.6,0.17,1.28,0.19,1.9,0.26c0.72,0.09,1.45,0.18,2.18,0.25c1.39,0.13,2.76,0.14,4.14-0.12
		c1.34-0.25,2.81-0.77,3.83-1.7C469.73,274.92,469.79,272.76,468.21,271.92z"/>
	
		<linearGradient id="SVGID_00000103987441361317291210000013990783139796513194_" gradientUnits="userSpaceOnUse" x1="451.4857" y1="554.9141" x2="447.8485" y2="499.5288" gradientTransform="matrix(1 0 0 -1 0 799.8898)">
		<stop  offset="0" style="stop-color:#000000;stop-opacity:0.5"/>
		<stop  offset="0.9985" style="stop-color:#EADACC;stop-opacity:0"/>
	</linearGradient>
	<path style="fill:url(#SVGID_00000103987441361317291210000013990783139796513194_);" d="M426.22,278.4
		c-4.03-0.93-8.38-1.71-12.1-3.59c-3.52-1.78-6.6-4.42-8.84-7.67c-0.15-0.22-0.28-0.58-0.04-0.72c1.06,0.32,1.81,1.73,2.63,2.48
		c2.27,2.12,4.69,1.7,7.59,1.6c2.96-0.1,5.93-0.23,8.88,0c5.71,0.44,11.31,1.59,16.77,3.3c2.08,0.67,4.15,1.45,5.94,2.7
		c1.14,0.79,2.14,1.76,3.28,2.56c5.36,3.77,12.62,3.22,18.97,1.59c1.83-0.47,3.65-1.02,5.33-1.89c6.63-3.45,10.41-13.9,18.05-15.07
		c1.13,1.39,2.32,2.96,2.22,4.74c-0.05,0.92-0.45,1.78-0.83,2.62c-1.52,3.29-3.05,6.57-4.58,9.86c-1.46,3.15-2.97,6.37-5.42,8.83
		c-2.86,2.87-6.75,4.45-10.59,5.73c-3.12,1.04-6.3,1.92-9.51,2.64c-3.5,0.79-7.24,1.38-10.61,0.15c-2.76-1.01-5.73-3.43-7.24-5.97
		c-1.38-2.33-1.55-4.56-3.62-6.61C438.31,281.54,431.82,279.7,426.22,278.4z"/>
	
		<linearGradient id="SVGID_00000072967498913820791000000005643527221686754181_" gradientUnits="userSpaceOnUse" x1="349.5242" y1="546.4849" x2="358.0151" y2="505.4128" gradientTransform="matrix(1 0 0 -1 0 799.8898)">
		<stop  offset="0" style="stop-color:#000000;stop-opacity:0.5"/>
		<stop  offset="0.9985" style="stop-color:#EADACC;stop-opacity:0"/>
	</linearGradient>
	<path style="fill:url(#SVGID_00000072967498913820791000000005643527221686754181_);" d="M351.69,273.4
		c0.91-0.49,1.77-1.09,2.75-1.43c0.69-0.25,1.42-0.36,2.15-0.47c3.22-0.48,6.45-0.86,9.69-1.14c1.84-0.16,7.05-1.38,8.38,0.01
		c-2,4.07-6.18,7.41-10.24,9.27c-6.3,2.89-13.96,3.01-19.24,7.51c-0.94,0.8-1.8,1.75-2.91,2.29c-2.13,1.05-4.66,0.45-6.96-0.17
		c1.85-3.82,2.16-7.91,3.46-11.92c0.09-0.27,0.18-0.57,0.1-0.85c-0.14-0.5-0.74-0.68-1.22-0.88c-1.01-0.4-3.54-2.46-2.15-3.59
		c1.08-0.88,3.6,1.42,4.67,1.85C343.84,275.36,348.18,275.28,351.69,273.4z"/>
	
		<linearGradient id="SVGID_00000178190646526085928550000002441839192591941041_" gradientUnits="userSpaceOnUse" x1="499.5517" y1="489.5743" x2="490.247" y2="462.1971" gradientTransform="matrix(1 0 0 -1 0 799.8898)">
		<stop  offset="0" style="stop-color:#000000;stop-opacity:0.5"/>
		<stop  offset="0.9985" style="stop-color:#EADACC;stop-opacity:0"/>
	</linearGradient>
	<path style="fill:url(#SVGID_00000178190646526085928550000002441839192591941041_);" d="M489.92,325.69
		c-0.02,2.7,0.57,5.38,0.43,8.08c-0.09,1.68-0.47,3.34-0.48,5.03c-0.02,1.68,0.39,3.47,1.6,4.64c0.14,0.14,0.31,0.27,0.5,0.31
		c0.23,0.05,0.46-0.04,0.67-0.15c1.44-0.81,1.65-2.77,1.69-4.42c0.08-3.11,0.16-6.21,0.06-9.32c-0.12-3.98,0.18-9.49-1.21-13.22
		C491.24,318.43,489.94,323.15,489.92,325.69z"/>
	
		<linearGradient id="SVGID_00000106863271501030008690000017980877612666343865_" gradientUnits="userSpaceOnUse" x1="489.6007" y1="460.8938" x2="424.882" y2="433.2362" gradientTransform="matrix(1 0 0 -1 0 799.8898)">
		<stop  offset="0" style="stop-color:#000000;stop-opacity:0.5"/>
		<stop  offset="0.9985" style="stop-color:#EADACC;stop-opacity:0"/>
	</linearGradient>
	<path style="fill:url(#SVGID_00000106863271501030008690000017980877612666343865_);" d="M441.84,358.27
		c0.76,3.56,0.77,7.25,1.51,10.81c0.53,2.55,1.44,5.02,2,7.57c1.04,4.78,0.79,9.84-0.71,14.5c0.99,1.4,2.98,1.76,4.67,1.4
		s3.18-1.28,4.75-1.99c1.98-0.89,4.1-1.45,6.26-1.64c-1.24-4.02-5.77-5.97-8.25-9.36c-0.16-0.22-0.31-0.45-0.32-0.72
		c-0.01-0.29,0.14-0.55,0.33-0.77c0.5-0.59,1.22-0.95,1.77-1.5c0.55-0.54,0.92-1.43,0.51-2.08c-0.18-0.29-0.49-0.48-0.79-0.65
		c-1.91-1.1-3.95-1.98-5.73-3.28s-3.33-3.11-3.68-5.28c-0.22-1.33,0.03-2.68,0.19-4.02c0.4-3.22,0.34-6.49-0.16-9.69
		c-0.31-1.96-0.79-4.14-1.9-5.83c-0.28-0.43-2.71-3.74-1.33-4.26c-0.51,0.19-0.96,0.53-1.3,0.96c-1.4-1.37-2.8-2.75-4.2-4.12
		c-1.32-1.3-2.67-2.62-4.3-3.52c-1.55-0.86-3.3-1.29-5.02-1.72c-2.16-0.54-4.31-1.07-6.47-1.61c1.29,1.94,3.69,2.74,5.81,3.71
		c1.95,0.89,3.77,2.04,5.43,3.39c0.59,0.48,1.64,1.14,2,1.83c0.12,0.23,0.41,2.54-0.24,2.3c-4.97-1.84-10.1-3.26-15.31-4.25
		c-2.93-0.55-5.95-0.97-8.87-0.37c0.39,0.88,1.52,1.06,2.48,1.16c8.12,0.8,15.89,3.61,23.56,6.39c0.69,0.25,1.4,0.51,1.99,0.95
		c0.6,0.44,1.05,1.05,1.56,1.58c1.45,1.52,2.21,2.2,2.31,4.27C440.52,354.42,441.42,356.32,441.84,358.27z"/>
	
		<linearGradient id="SVGID_00000066487334092974813960000003897537517673547397_" gradientUnits="userSpaceOnUse" x1="463.4245" y1="416.709" x2="473.1514" y2="402.6445" gradientTransform="matrix(1 0 0 -1 0 799.8898)">
		<stop  offset="0" style="stop-color:#000000;stop-opacity:0.5"/>
		<stop  offset="0.9985" style="stop-color:#EADACC;stop-opacity:0"/>
	</linearGradient>
	<path style="fill:url(#SVGID_00000066487334092974813960000003897537517673547397_);" d="M469.66,389.93
		c0.59,0.33,1.15,0.74,1.79,0.96c2.07,0.72,4.54-0.67,6.47,0.37c-3.97,3.09-9.69,3.74-14.25,1.63c-1.39-0.64-6.36-2.28-2.75-3.5
		C463.56,388.49,467.22,388.58,469.66,389.93z"/>
	
		<linearGradient id="SVGID_00000110446606700490997640000013422109196561377956_" gradientUnits="userSpaceOnUse" x1="458.4724" y1="496.1379" x2="463.8351" y2="478.3997" gradientTransform="matrix(1 0 0 -1 0 799.8898)">
		<stop  offset="0" style="stop-color:#000000;stop-opacity:0.5"/>
		<stop  offset="0.9985" style="stop-color:#EADACC;stop-opacity:0"/>
	</linearGradient>
	<path style="fill:url(#SVGID_00000110446606700490997640000013422109196561377956_);" d="M442.8,318
		c5.19,0.65,10.38,1.3,15.57,1.95c-0.2,0.75-0.65,1.42-1.26,1.9c5.1-2.99,10.2-5.98,15.3-8.97c1.66-0.97,7.02-3.86,6.84-6.29
		c-0.15-2.05-1.89,0.11-2.57,0.75c-1.22,1.13-2.52,2.19-3.88,3.17c-5.48,3.94-11.94,6.52-18.62,7.47
		C450.42,318.53,446.57,318.55,442.8,318z"/>
	
		<linearGradient id="SVGID_00000169551844070180796650000008203599827587154604_" gradientUnits="userSpaceOnUse" x1="376.9833" y1="504.4545" x2="381.9074" y2="483.8786" gradientTransform="matrix(1 0 0 -1 0 799.8898)">
		<stop  offset="0" style="stop-color:#000000;stop-opacity:0.5"/>
		<stop  offset="0.9985" style="stop-color:#EADACC;stop-opacity:0"/>
	</linearGradient>
	<path style="fill:url(#SVGID_00000169551844070180796650000008203599827587154604_);" d="M418.09,320.3
		c-0.48-1.19-4.47-2.6-5.57-3.38c-1.23-0.86-2.17-1.73-3.63-2.28c-3.02-1.13-6.33-1.09-9.46-1.75c-5.02-1.05-10.02-2.4-15.18-2.46
		c-7.37-0.09-14.49,2.45-21.42,4.95c-4.98,1.8-9.96,3.59-14.94,5.39c6.82-3.95,14.12-7.07,21.68-9.29
		c5.16-1.51,10.75-2.78,14.46-6.67c-0.45,1.24-0.89,2.48-1.34,3.73c6.79-0.01,13.31,2.4,19.96,3.75c2.97,0.6,6.01,1,8.83,2.12
		S416.96,317.48,418.09,320.3z"/>
	
		<linearGradient id="SVGID_00000097470646236564653100000014331224167937379467_" gradientUnits="userSpaceOnUse" x1="386.3008" y1="364.4344" x2="386.6442" y2="399.6303" gradientTransform="matrix(1 0 0 -1 0 799.8898)">
		<stop  offset="0" style="stop-color:#000000;stop-opacity:0.5"/>
		<stop  offset="0.9985" style="stop-color:#EADACC;stop-opacity:0"/>
	</linearGradient>
	<path style="fill:url(#SVGID_00000097470646236564653100000014331224167937379467_);" d="M436.24,407.41
		c0.72-0.67,1.4-1.39,2.02-2.17c4.54-5.65,5.03-12.46,6.98-19.27c0.47-1.64,0.89-3.57-0.16-4.92c-1.58-2.01-4.76-0.93-7,0.3
		c-4.49,2.49-8.99,4.98-13.32,7.75c-6.37,4.09-13.14,9-20.67,8.2c-1.82-0.19-3.59-0.72-5.4-1c-5.44-0.84-11.21,0.69-15.52,4.12
		c-0.7,0.56-1.38,1.17-2.17,1.59c-1.44,0.76-3.15,0.81-4.78,0.75c-6.12-0.22-12.12-1.71-18.06-3.2c-3.06-0.76-6.11-1.52-9.17-2.29
		c-2.08-0.52-4.28-1.11-5.72-2.68c-1.19-1.3-2.08-3.36-3.85-3.35c-1.42,0.01-2.5,1.47-3.93,1.55c-1.71,0.1-2.81-1.72-3.6-3.25
		c-0.79-1.52-2.22-3.24-3.86-2.72c-1.26,0.39,4.37,13.46,5.32,14.55c3.13,3.62,7.02,6.3,11.22,8.54c3.45,1.84,6.94,3.63,10.6,4.99
		c11.37,4.24,23.82,4.2,35.95,4.11c2.94-0.02,5.87-0.04,8.81-0.06c2.88-0.02,5.77-0.04,8.63-0.37c4.92-0.57,9.7-2.04,14.34-3.76
		C427.69,413.04,432.54,410.86,436.24,407.41z"/>
	
		<linearGradient id="SVGID_00000139977662605946324920000015858557912699122314_" gradientUnits="userSpaceOnUse" x1="334.0855" y1="445.0789" x2="356.9477" y2="430.1306" gradientTransform="matrix(1 0 0 -1 0 799.8898)">
		<stop  offset="0" style="stop-color:#000000;stop-opacity:0.5"/>
		<stop  offset="0.9985" style="stop-color:#EADACC;stop-opacity:0"/>
	</linearGradient>
	<path style="fill:url(#SVGID_00000139977662605946324920000015858557912699122314_);" d="M341.86,378.35
		c1.76-3.93,5.26-6.75,8.64-9.42c5.22-4.13,10.45-8.25,15.67-12.38c1.39-1.09,2.81-2.23,3.65-3.78c-3.69,2.33-7.28,4.79-10.79,7.39
		c0.2-0.78,0.41-1.56,0.61-2.33c-5.11,4.88-10.21,9.76-15.32,14.64c-0.99,0.95-2,1.91-2.77,3.05c-1.73,2.56-2.14,6.05-0.99,8.93
		C340.79,382.34,340.98,380.31,341.86,378.35z"/>
	
		<linearGradient id="SVGID_00000103241558060754226060000006435623762087771813_" gradientUnits="userSpaceOnUse" x1="360.5364" y1="461.6717" x2="326.0674" y2="468.5304" gradientTransform="matrix(1 0 0 -1 0 799.8898)">
		<stop  offset="0" style="stop-color:#000000;stop-opacity:0.5"/>
		<stop  offset="0.9985" style="stop-color:#EADACC;stop-opacity:0"/>
	</linearGradient>
	<path style="fill:url(#SVGID_00000103241558060754226060000006435623762087771813_);" d="M335.59,326.96
		c-0.74,0.23-1.49,0.39-2.25,0.45c-0.99,0.08-6.1-0.06-6.36-1.47c0.38,2.03,0.75,4.06,1.13,6.09c0.13,0.73,0.27,1.47,0.18,2.21
		c-0.11,0.88-0.55,1.69-0.82,2.54c-0.74,2.32-0.2,4.85,0.54,7.18c-0.42-3.89,2.08-7.61,1.83-11.52c-0.05-0.82-0.14-1.55,0.1-2.35
		c2.14,1.44,4.23,0.35,6.02-1.11c1.34-1.1,2.67-2.21,4-3.31c0.72-0.6,2.78-2.98,3.67-3.03c-1.46,0.09-2.61,1.2-3.78,2.09
		C338.59,325.68,337.13,326.48,335.59,326.96z"/>
	
		<linearGradient id="SVGID_00000155854928813540913610000013011317902872502974_" gradientUnits="userSpaceOnUse" x1="356.0618" y1="501.3877" x2="351.7896" y2="511.9425" gradientTransform="matrix(1 0 0 -1 0 799.8898)">
		<stop  offset="0" style="stop-color:#000000;stop-opacity:0.5"/>
		<stop  offset="0.9985" style="stop-color:#EADACC;stop-opacity:0"/>
	</linearGradient>
	<path style="fill:url(#SVGID_00000155854928813540913610000013011317902872502974_);" d="M349.76,291.08
		c4.81-1.78,8.64-6.14,13.74-6.63c-3.03,2.03-6.07,4.05-9.1,6.08c-1.46,0.98-2.93,1.96-4.46,2.81c-1.37,0.76-2.85,1.43-4.42,1.42
		c-1.13-0.01-6.88-2.27-4.6-3.16c1.03-0.4,3.08,0.37,4.23,0.35C346.71,291.91,348.28,291.62,349.76,291.08z"/>
	
		<linearGradient id="SVGID_00000068651400786453709120000003529722572612554417_" gradientUnits="userSpaceOnUse" x1="641.1812" y1="444.4475" x2="633.2674" y2="470.4752" gradientTransform="matrix(0.9904 0.138 0.138 -0.9904 -312.099 699.8749)">
		<stop  offset="0" style="stop-color:#000000;stop-opacity:0.5"/>
		<stop  offset="0.9985" style="stop-color:#EADACC;stop-opacity:0"/>
	</linearGradient>
	<path style="fill:url(#SVGID_00000068651400786453709120000003529722572612554417_);" d="M391.49,326.88
		c-4.47-0.51-9.03-1.01-13.42-0.01c-1.75,0.4-3.43,1.03-5.11,1.66c-1.81,0.68-3.62,1.36-5.43,2.03c-1.32,0.49-2.64,0.99-3.88,1.66
		c-1.22,0.66-2.33,1.49-3.5,2.23c-1.83,1.17-3.79,2.15-5.83,2.91c5.74-6.58,14.66-9.3,23.22-11.04c0.93-0.19,1.88-0.38,2.67-0.9
		s1.39-1.45,1.22-2.38c0.13,0.69,6.49,1.53,7.32,1.67c2.6,0.46,5.21,0.81,7.81,1.21c3.58,0.56,10.25,0.83,12.96,3.45
		C403.52,328.65,397.53,327.57,391.49,326.88z"/>
	
		<linearGradient id="SVGID_00000031208837136103531870000009878763099435784584_" gradientUnits="userSpaceOnUse" x1="460.1317" y1="453.2051" x2="496.1442" y2="433.1619" gradientTransform="matrix(1 0 0 -1 0 799.8898)">
		<stop  offset="0" style="stop-color:#000000;stop-opacity:0.5"/>
		<stop  offset="0.9985" style="stop-color:#EADACC;stop-opacity:0"/>
	</linearGradient>
	<path style="fill:url(#SVGID_00000031208837136103531870000009878763099435784584_);" d="M483.02,369.74
		c-0.57-1.85-0.84-3.77-1.07-5.69c-0.26-2.18-0.25-4.83,1.59-6.02c2.27-1.47,5.79,0.42,7.81-1.39c1.07-0.97,1.19-2.57,1.5-3.98
		s1.2-3,2.64-3.01c1.22-0.01,2.15,1.21,2.28,2.42c0.12,1.21-0.35,2.39-0.81,3.52c-2.56,6.22-5.12,12.45-7.67,18.67
		c-0.54,1.31-1.92,5.55-3.63,3.45c-0.58-0.71-0.74-2.98-1.11-3.94C484.04,372.43,483.43,371.12,483.02,369.74z"/>
	
		<linearGradient id="SVGID_00000112595311964293367550000011644023993333696148_" gradientUnits="userSpaceOnUse" x1="313.0094" y1="548.152" x2="275.9507" y2="518.5798" gradientTransform="matrix(1 0 0 -1 0 799.8898)">
		<stop  offset="0" style="stop-color:#000000;stop-opacity:0.5"/>
		<stop  offset="0.9985" style="stop-color:#D3C0AB;stop-opacity:0"/>
	</linearGradient>
	<path style="fill:url(#SVGID_00000112595311964293367550000011644023993333696148_);" d="M251.42,232.81
		c1.41,1.73,2.38,3.77,3.5,5.7c4.56,7.85,11.65,13.87,17.49,20.83c6.78,8.07,11.86,17.4,16.9,26.66c0.93,1.7,1.86,3.43,2.37,5.3
		c0.23,0.84,0.37,1.7,0.67,2.52c0.41,1.13,1.11,2.13,1.83,3.09c2.46,3.31,5.2,6.4,8.2,9.23c2.9,2.73,6.63,3.57,10.6,3.81
		c5.13,0.31,10.29-0.92,15.41-0.4c0.25,0.03,0.54,0.08,0.66,0.3c0.08,0.15,0.06,0.32,0.04,0.49c-0.23,1.94-0.46,3.87-0.68,5.81
		c-0.17,1.54,0.12,3.13-0.62,4.52c-1.31,2.43-4.87,4.25-7.6,4.25c-2.76,0.32-5.35-0.13-8.07-0.54c-1.99-0.3-3.85-0.13-5.48-1.58
		c-1.29-1.14-2.21-2.66-3.53-3.77c-0.79-0.66-1.71-1.16-2.51-1.81c-1.19-0.95-2.1-2.19-3.18-3.26c-1.14-1.14-2.46-2.1-3.77-3.04
		c-7.45-5.39-11.78-14.22-16.71-21.82c-1.37-2.11-2.64-4.29-4.07-6.36c-4.09-5.93-7.44-12.36-11.01-18.62c-1.14-2-2.28-4-3.3-6.06
		c-3.5-7.05-7.44-13.6-11.76-20.17c-2.13-3.24-3.9-6.7-5.66-10.16C245.16,227.59,248.93,229.75,251.42,232.81z"/>
	
		<linearGradient id="SVGID_00000096764982827527395980000001327827172610011537_" gradientUnits="userSpaceOnUse" x1="341.5026" y1="537.7431" x2="315.092" y2="549.7217" gradientTransform="matrix(1 0 0 -1 0 799.8898)">
		<stop  offset="0" style="stop-color:#000000;stop-opacity:0.5"/>
		<stop  offset="0.9985" style="stop-color:#D3C0AB;stop-opacity:0"/>
	</linearGradient>
	<path style="fill:url(#SVGID_00000096764982827527395980000001327827172610011537_);" d="M317.66,264.19
		c-0.04,0.83-0.15,1.66-0.27,2.49c-0.11,0.79-0.23,1.62,0.02,2.38c0.29-0.2,0.48-0.5,0.66-0.8c0.4-0.64,0.8-1.28,1.2-1.92
		c0.98-1.57,0.95-2.87,1.41-4.54c0.43-1.55,1.92-2.16,2.81-3.37c0.94-1.28,0.88-3,1.03-4.58c0.51-5.42,3.93-10.6,2.88-15.94
		c-1.44,1.69-2.89,3.39-4.33,5.08c-1.21,1.42-2.43,2.85-3.39,4.45c-0.93,1.56-1.6,3.26-2.13,5c-0.34,1.13-0.41,2.33-0.68,3.48
		c-0.14,0.58-0.34,0.92-0.63,1.37c-0.29,0.44-0.87,0.62-0.54,1.32c0.11,0.23,0.3,0.41,0.48,0.6c0.89,0.96,1.32,2.27,1.44,3.57
		C317.67,263.24,317.68,263.72,317.66,264.19z"/>
	
		<linearGradient id="SVGID_00000000219772490051991140000015842493688294831291_" gradientUnits="userSpaceOnUse" x1="552.3981" y1="562.5922" x2="487.8158" y2="512.4816" gradientTransform="matrix(1 0 0 -1 0 799.8898)">
		<stop  offset="0" style="stop-color:#000000;stop-opacity:0.5"/>
		<stop  offset="0.9985" style="stop-color:#D3C0AB;stop-opacity:0"/>
	</linearGradient>
	<path style="fill:url(#SVGID_00000000219772490051991140000015842493688294831291_);" d="M490.2,256.84
		c2.32,1.46,4.71,2.83,7.12,4.24c0.42,0.25,0.86,0.51,1.14,0.91c0.29,0.44,0.36,0.98,0.43,1.5c0.51,3.59,1.86,7.06,3.93,10.04
		c0.63,0.91,1.39,1.82,2.43,2.2c2.62,0.96,5.64-1.8,8.16-0.61c-0.74,1.66-2.11,2.95-3.23,4.38c-1.13,1.43-2.07,3.21-1.73,5
		c0.29,1.53,1.44,2.72,2.54,3.82c0.99,0.99,5.92,4.19,5.92,5.62c2.44,3.11,3.9,7.09,7.09,9.42c-1.48,0.04-2.83,0.8-4.11,1.54
		c-2.03,1.17-4.06,2.34-6.09,3.52c-0.58-3.23-4.42-4.6-6.46-7.17c-2.78-3.49-1.93-8.76-4.26-12.57c-0.73-1.19-1.74-2.18-2.62-3.26
		c-2.75-3.33-4.37-7.59-4.51-11.92c-0.1-3.09,0.42-6.54-1.5-8.96c-0.35-0.44-0.8-0.84-1.34-1.01c-0.65-0.19-1.36-0.02-2,0.2
		c-1.6,0.55-3.08,1.43-4.34,2.56c-1.37,1.24-2.56,2.83-4.32,3.35c0.02-1.57,1.26-3.08,0.76-4.56c-0.18-0.53-0.57-0.97-0.93-1.4
		c-1.58-1.9-2.81-4.08-3.62-6.42c-0.81-2.33-0.56-4.04,0.19-6.3c1.04-3.14,3.18,0,4.71,1.21
		C485.68,253.89,487.91,255.4,490.2,256.84z"/>
	
		<linearGradient id="SVGID_00000025411619416259059950000009442169771570046396_" gradientUnits="userSpaceOnUse" x1="554.4258" y1="444.9008" x2="512.3368" y2="452.6" gradientTransform="matrix(1 0 0 -1 0 799.8898)">
		<stop  offset="0" style="stop-color:#000000;stop-opacity:0.5"/>
		<stop  offset="0.9985" style="stop-color:#D3C0AB;stop-opacity:0"/>
	</linearGradient>
	<path style="fill:url(#SVGID_00000025411619416259059950000009442169771570046396_);" d="M514,309.42
		c-0.65,1.25-0.93,2.66-1.19,4.04c-0.9,4.79-1.65,9.62-1.84,14.5c-0.47,12.24,2.64,24.53,0.95,36.66c-0.15,1.1-0.35,2.2-0.4,3.32
		c-0.1,2.34,0.43,4.66,0.51,7c0.07,2.05-0.21,4.1-0.39,6.15c-0.25,2.85-0.25,5.7-0.15,8.56c0.05,1.45-0.34,3.32,0.01,4.66
		c0.72-0.47,1.05-1.33,1.37-2.13c2.58-6.43,5.16-12.91,6.57-19.7c0.57-2.74,0.94-5.52,1.31-8.29c0.72-5.36,0.78-11.68,4.04-16.27
		c1.27-1.79,3.05-3.15,4.41-4.88c2.75-3.49,3.51-8.11,4.19-12.5c0.7-4.59,1.4-9.32,0.35-13.84c-0.71-3.06-2.21-5.96-2.34-9.09
		c-0.04-0.8,0.01-1.66-0.4-2.35c-1.51-2.61-6.51-3.27-9.09-2.24C519.08,304.15,515.42,306.67,514,309.42z"/>
	
		<linearGradient id="SVGID_00000069361264513242865160000014653200969326404529_" gradientUnits="userSpaceOnUse" x1="451.2536" y1="552.9003" x2="451.0072" y2="571.5043" gradientTransform="matrix(1 0 0 -1 0 799.8898)">
		<stop  offset="0" style="stop-color:#000000;stop-opacity:0.5"/>
		<stop  offset="0.9985" style="stop-color:#EADACC;stop-opacity:0"/>
	</linearGradient>
	<path style="fill:url(#SVGID_00000069361264513242865160000014653200969326404529_);" d="M449.6,221.27
		c-0.21,0.86-1.1,1.61-1.94,1.32c-0.41-0.14-0.79-0.52-1.22-0.42c-0.46,0.11-0.62,0.73-0.46,1.18s0.5,0.81,0.71,1.24
		c0.69,1.39-0.14,3.04-1.13,4.24c-2.21,2.67-2.64,4.36-0.02,7.11c0.89,0.94,1.98,1.66,3.05,2.38c0.11,0.08,0.24,0.16,0.38,0.13
		c0.23-0.04,0.29-0.34,0.3-0.58c0.04-1.55-0.17-3.1-0.62-4.58c-0.21-0.7-0.43-1.6,0.14-2.06c0.17-0.14,0.39-0.21,0.61-0.25
		c0.67-0.11,1.39,0.11,1.89,0.57c1.11,1.03,1.09,3.07,2.47,3.72c0.76,0.36,1.69,0.1,2.35-0.42c0.65-0.52,1.08-1.27,1.46-2.02
		c1.04-2.02-0.12-3.65,0.18-5.76c0.19-1.36,0.64-2.7,0.49-4.07c-0.15-1.36-1.17-2.79-2.54-2.74c-0.39,0.01-0.77,0.14-1.15,0.13
		c-0.94-0.02-1.65-0.82-2.39-1.41C449.44,216.87,449.95,219.82,449.6,221.27z"/>
	
		<linearGradient id="SVGID_00000119807445579308495580000015536883277976417154_" gradientUnits="userSpaceOnUse" x1="409.2187" y1="554.3154" x2="409.6518" y2="577.7036" gradientTransform="matrix(1 0 0 -1 0 799.8898)">
		<stop  offset="0" style="stop-color:#000000;stop-opacity:0.5"/>
		<stop  offset="0.9985" style="stop-color:#EADACC;stop-opacity:0"/>
	</linearGradient>
	<path style="fill:url(#SVGID_00000119807445579308495580000015536883277976417154_);" d="M396.32,224.93
		c1.69-0.28,2.8,1.6,3.88,2.92c1.5,1.85,3.74,2.95,5.99,3.72c0.22,0.07,0.46,0.14,0.66,0.03c0.4-0.23,0.17-0.9,0.43-1.28
		c0.42-0.61,1.31,0.07,1.92,0.49c1.41,0.97,3.32,0.25,5.03,0.34c1.68,0.09,3.29,1.06,4.14,2.51c0.83-0.09,1.02-1.25,0.75-2.04
		s-0.79-1.59-0.55-2.39c0.16-0.52,0.59-0.89,0.98-1.26c1.74-1.64,2.94-3.83,3.39-6.18c-1.75,0.82-4.07,0.15-5.11-1.48
		c-0.36-0.57-0.68-1.3-1.34-1.42c-0.34-0.06-0.68,0.06-1,0.19c-1.19,0.47-2.39,0.99-3.67,1.11s-2.68-0.25-3.46-1.26
		c-0.46-0.6-0.91-1.51-1.65-1.36c-0.39,0.08-0.65,0.45-0.95,0.72c-1.03,0.94-2.64,0.7-3.97,0.29c-1.75-0.54-3.26-1.19-3.92,0.87
		C397.67,220.1,397.05,224.81,396.32,224.93z"/>
	
		<linearGradient id="SVGID_00000021801457618679030050000015703041093558244795_" gradientUnits="userSpaceOnUse" x1="380.88" y1="553.3955" x2="379.1476" y2="571.875" gradientTransform="matrix(1 0 0 -1 0 799.8898)">
		<stop  offset="0" style="stop-color:#000000;stop-opacity:0.5"/>
		<stop  offset="0.9985" style="stop-color:#EADACC;stop-opacity:0"/>
	</linearGradient>
	<path style="fill:url(#SVGID_00000021801457618679030050000015703041093558244795_);" d="M372.46,230.95
		c-0.02,0.52-0.11,1.06,0.1,1.55c0.15,0.35,0.42,0.62,0.7,0.88c2.32,2.24,4.79,4.56,7.93,5.3c-0.21-1.79-0.96-3.52-2.12-4.9
		c0.88-0.51,1.61,1.18,2.62,1.19c0.46,0,0.84-0.35,1.27-0.54c0.85-0.37,1.87-0.02,2.55,0.62s1.08,1.49,1.46,2.33
		c1.3-2.23,0.52-5.43-1.66-6.82c-0.48-0.31-1.02-0.53-1.49-0.86c-0.89-0.61-1.51-1.59-1.71-2.65c-0.06-0.34-0.09-0.7-0.26-1
		c-0.18-0.31-0.49-0.51-0.79-0.7c-1.14-0.73-2.29-1.45-3.43-2.18c-0.13-0.08-0.28-0.17-0.43-0.18c-0.36-0.02-0.59,0.37-0.81,0.66
		c-1.31,1.8-3.8,0.5-5,1.68C370.45,226.25,372.53,229.48,372.46,230.95z"/>
	<path class="st26" d="M344.92,224.98c-1.58,3.73-3.17,7.46-4.75,11.19c-0.6,1.4-1.2,2.85-1.18,4.35c0.02,1.22,0.45,2.4,0.72,3.59
		c1.76,7.75-3.12,15.36-4.34,23.2c-0.3,1.91-0.34,3.97,0.69,5.66c0.82,1.35,2.25,2.31,3.75,3.02c4.81,2.3,10.54,1.32,13.77-2.87
		c0.25-0.32,0.48-0.66,0.83-0.87c0.31-0.19,0.7-0.27,1.07-0.34c6.68-1.3,13.57-1.84,20.4-1.7"/>
	<path class="st26" d="M403.81,262.24c0.2,1.71,1.34,3.19,2.44,4.6c0.76,0.97,1.54,1.95,2.62,2.63c1.92,1.21,5.37,0.96,7.63,1.06
		c3.03,0.13,6.06,0.23,9.08,0.54c5.43,0.55,10.8,1.49,16.07,2.81c1.9,0.47,3.86,1.04,5.27,2.28c0.68,0.6,1.21,1.34,1.89,1.95
		c1.18,1.06,3.05,1.82,4.52,2.54c1.9,0.94,4.26,1.33,6.4,1.4c5.03,0.16,9.92-1.43,14.47-3.34c1.63-0.69,3.26-1.43,4.63-2.47
		c2.21-1.68,3.6-4,5.39-6.01c1.61-1.8,2.6-3.78,4.88-5.07c1.27-0.72,2.71-1.15,4.14-1.56c0.72-0.21-0.72,0.21,0,0"/>
	<path class="st27" d="M341.18,268.22c-1.15,0.27-1.89,1.43-1.77,2.51c0.11,1.08,0.94,2.02,1.98,2.55s2.25,0.69,3.44,0.69
		c1.26-0.01,2.59-0.22,3.54-0.98s1.31-2.2,0.51-3.09"/>
	<path class="st27" d="M455.94,273.18c-0.97,0.26-1.52,1.28-1.34,2.17s0.95,1.62,1.85,2.02s1.93,0.51,2.94,0.55
		c2.49,0.09,5-0.27,7.34-1.05c0.8-0.26,1.6-0.59,2.2-1.13s0.98-1.34,0.78-2.08c-0.2-0.72-0.88-1.25-1.52-1.72"/>
	<path class="st28" d="M339.81,276c-2.86,6.42-3.87,13.37-6.41,19.85c-2.56,6.54-4.15,13.49-5.3,20.42
		c-0.65,3.94-1.13,7.98-0.75,11.98c0.17,1.78,0.84,3.57,0.84,5.33c0,1.95-0.81,3.92-0.89,5.88c-0.08,1.93,0.44,3.82,0.76,5.72
		c1.32,7.65-1.73,14.51-1.58,22.07c0.15,7.57,0.31,15.2,1.96,22.59c1.82,8.18,5.99,14.77,13.14,19.2
		c5.38,3.33,11.28,5.83,17.41,7.39c11.69,2.97,23.94,2.47,35.99,2c8.06-0.31,16.2-0.62,23.98-2.74s15.28-6.26,19.92-12.85
		c3.73-5.3,8.92-16.75,7.11-23.88"/>
	<path class="st28" d="M495.4,268.71c-2.7,9.75-2.22,21.55-0.15,31.39c0.43,2.05,0.95,4.1,0.9,6.19c-0.07,2.69-1.08,5.25-1.58,7.89
		c-1.15,6.08,0.34,12.15,0.69,18.23c0.19,3.23,0.31,6.49,1.03,9.65c0.65,2.87,1.76,5.67,1.85,8.61c0.1,3.54-1.29,6.94-2.72,10.19
		c-2.36,5.36-5.34,10.62-7.27,16.13c-1.71,4.89-4.02,9.71-8.01,13.16c-4.1,3.54-10.16,5.22-15.11,3.02
		c-1.65-0.73-3.15-1.86-4.92-2.17c-2.53-0.44-5.09,0.54-7.52,1.38c-2.79,0.96-5.1,2.21-7.83-0.95"/>
	<path class="st27" d="M470.69,390.14c-1.42-1.07-3.27-1.46-5.05-1.4s-3.49,0.65-5.24,0.96c-6.85,1.2-6.58,2.38-9.96,3.26"/>
	<path class="st26" d="M490.42,328.75c-0.44-0.94-0.71-1.96-0.75-3c-0.12-3.27,1.97-6.13,3.38-9.08c0.99-2.07,2.18-4.29,2.51-6.56"
		/>
	<path class="st26" d="M375.21,375.9c0.18,1.12,0.02,2.27-0.06,3.41c-0.28,4.15,0.62,8.28,1.51,12.35c0.26,1.18,0.52,2.36,0.78,3.54
		c-0.34-2.72-0.68-5.43-1.02-8.15c-0.03-0.28-0.08-0.57-0.28-0.77c-0.29-0.28-0.8-0.24-1.04-0.56c-0.18-0.25-0.12-0.59-0.19-0.89
		c-0.07-0.3-0.46-0.58-0.66-0.34c-0.07,0.09-0.08,0.21-0.08,0.32c0.01,1.23,0.46,2.45,1.26,3.38c0.38-0.22,0.35-0.77,0.35-1.22
		c0-0.44,0.24-1.02,0.67-0.95c0.15,0.03,0.28,0.13,0.39,0.23c0.32,0.27,0.63,0.54,0.95,0.81"/>
	<path class="st27" d="M373.27,402.67c1.14-1.25,2.88-1.92,4.56-1.76"/>
	<path class="st27" d="M379.46,403.15c1.57,0.16,3.14,0.32,4.71,0.48"/>
	<path class="st27" d="M374.75,405.12c0.6,0.36,1.11,0.86,1.48,1.45"/>
	<path class="st27" d="M368.09,403.16c-0.62,0.62-0.86,1.59-0.61,2.43"/>
	<path class="st27" d="M382.09,408.18c0.55,0.96,1.49,1.69,2.55,1.98"/>
	<path class="st27" d="M387.56,406.14c1.49,0.31,2.68,1.68,2.77,3.2"/>
	<path class="st27" d="M374.24,408.37c0.26,0.61,0.67,1.16,1.19,1.58"/>
	<path class="st27" d="M392.55,264.33c0.59,1.08,1.81,1.78,3.04,1.74"/>
	<path class="st27" d="M392.99,260.79c0.81,0.76,1.62,1.51,2.43,2.27"/>
	<path class="st27" d="M389.2,258.87c-0.92-1.38-1.3-3.1-1.04-4.74"/>
	<path class="st27" d="M394.28,256.57c-0.05-0.95,0.84-1.84,1.8-1.79"/>
	<path class="st27" d="M399.79,257.19c0.7-0.49,1.4-0.98,2.11-1.47"/>
	<path class="st27" d="M394.22,246.03c0.15,1.37,0.76,2.69,1.72,3.69"/>
	<path class="st27" d="M399.62,246.03c0.45,0.75,0.81,1.56,1.04,2.41"/>
	<path class="st27" d="M370.75,225.58c0.76,1.68,2.18,3.05,3.9,3.74"/>
	<path class="st27" d="M376.12,226.05c0.99,0.82,1.78,1.9,2.25,3.1"/>
	<path class="st27" d="M381.79,225.74c0.71,0.7,0.98,1.81,0.67,2.76"/>
	<path class="st27" d="M377.58,222.65c0.22,0.76,0.43,1.51,0.65,2.27"/>
	<path class="st27" d="M379.18,232.89c0.63,0.72,1.35,1.37,2.13,1.92"/>
	<path class="st27" d="M376.07,235.53c1.38,1.09,2.94,1.94,4.6,2.5"/>
	<path class="st27" d="M387.01,234.17c0.27,1.03,0.53,2.06,0.8,3.09"/>
	<path class="st27" d="M397.66,224.38c1.36-0.94,2.56-2.11,3.54-3.45"/>
	<path class="st27" d="M397.51,218.26c-0.21,0.85,0.06,1.81,0.69,2.42"/>
	<path class="st27" d="M403.21,226.7c0.67-0.58,1.28-1.22,1.82-1.92"/>
	<path class="st27" d="M401.6,228.48c1.16,1.08,2.55,1.92,4.04,2.45"/>
	<path class="st27" d="M409.53,224.09c1.21-0.76,1.82-2.36,1.41-3.73"/>
	<path class="st27" d="M407.64,217.79c-0.03,1.12,0.23,2.25,0.74,3.25"/>
	<path class="st27" d="M416.69,218.92c0.39,0.8,0.56,1.71,0.48,2.6"/>
	<path class="st27" d="M423.34,221.03c-0.12,0.68-0.35,1.33-0.66,1.94"/>
	<path class="st27" d="M412.63,227.02c1.12,0.15,2.3-0.34,2.98-1.23"/>
	<path class="st27" d="M410.03,230.76c1.06,0.29,2.22,0.25,3.25-0.13"/>
	<path class="st27" d="M417.66,231.74c0.22,0.65,0.43,1.3,0.65,1.95"/>
	<path class="st27" d="M451.68,218.93c0.32,1.43-0.07,2.99-1.01,4.11"/>
	<path class="st27" d="M455.6,222.31c-0.43,0.65-0.86,1.3-1.29,1.96"/>
	<path class="st27" d="M456.78,218.26c0.7,1.09,0.87,2.51,0.45,3.74"/>
	<path class="st27" d="M446.18,222.67c0.72,1.91,2.14,3.54,3.94,4.51"/>
	<path class="st27" d="M453.18,227.04c0.68,0.67,1.2,1.51,1.49,2.42"/>
	<path class="st27" d="M450.27,230.93c1.13,0.52,2.34,0.85,3.57,0.98"/>
	<path class="st27" d="M458.04,230.76c-0.31,1.18-0.86,2.29-1.61,3.25"/>
	<path class="st27" d="M445.58,229.81c-0.7,0.7-1.02,1.77-0.81,2.74"/>
	<path class="st27" d="M445.55,235.97c1.14,1.02,2.28,2.05,3.42,3.07"/>
	<path class="st27" d="M521.99,316.61c-0.22-0.03-0.44-0.05-0.66-0.08c4.23-1.68,8.98-0.93,13.46-0.15"/>
	<path class="st27" d="M524.59,313.84c2.77,2.26,5.7,4.33,8.76,6.17"/>
	<path class="st27" d="M524.26,323.09c2.48,0.77,4.97,1.54,7.45,2.31"/>
	<path class="st27" d="M525.07,328.48c1.92,0,3.83,0.25,5.69,0.74"/>
	<path class="st27" d="M519.85,338.16c-0.06,0.12-0.26-0.02-0.22-0.15c0.05-0.13,0.2-0.17,0.33-0.19
		c4.98-0.97,10.17-0.88,15.11,0.28c0.88,0.21,1.92,0.62,2.05,1.51"/>
	<path class="st27" d="M524.11,341.19c3.08,0.17,6.16,0.34,9.24,0.51"/>
	<path class="st27" d="M522.61,334.33c1.75,1.3,3.56,2.51,5.43,3.62"/>
	<path class="st27" d="M522.18,345.94c2.53,1.65,5.56,2.52,8.58,2.49"/>
	<path class="st27" d="M521.96,350.08c2.35,1.34,5.13,1.9,7.82,1.56"/>
	<path class="st27" d="M522.32,354.9c1.79,0.26,3.57,0.52,5.36,0.79"/>
	<path class="st27" d="M525.6,345.65c0.45,2.19,2.32,3.74,4.08,5.12"/>
	<path class="st27" d="M526.85,351.01c0.83,1.11,1.82,2.09,2.94,2.91"/>
	<path class="st27" d="M526.7,355.38c0.97,1.03,1.95,2.06,2.92,3.08"/>
	<path class="st27" d="M535.79,309.03c1.53-0.38,3.3-0.71,4.56,0.24"/>
	<path class="st27" d="M260.13,217.04c1.93-1.1,4.48-1.03,6.35,0.18"/>
	<path class="st27" d="M264.97,220.4c1.35-0.47,2.79-0.67,4.22-0.56"/>
	<path class="st27" d="M268.7,222.66c0.79-0.15,1.56-0.43,2.27-0.82"/>
	<path class="st28" d="M482.5,254.5c0.73,2.5,3.2,3.93,5.33,5.42c1.91,1.34,4.55,2.13,5.89,4.16c0.51,0.78,0.76,1.7,1.26,2.5
		c0.3,0.49,0.7,0.92,0.91,1.46c0.29,0.71,0.24,1.5,0.18,2.26c-0.46,6.25,1.2,12.09,5.42,16.94c0.7,0.8,1.45,1.55,2.01,2.45
		c1.4,2.27,1.37,5.12,2.24,7.64c0.83,2.4,2.45,4.38,4.31,6.06c1.53,1.39,3.87,2.29,4.05,4.5c0.21,2.62-0.89,5.83-1.36,8.41
		c-0.58,3.13-1.15,6.26-1.39,9.44c-0.95,12.52,3.25,25.15,1.23,37.54c-0.34,2.06-0.85,4.12-0.75,6.21c0.08,1.58,0.5,3.12,0.7,4.69
		c0.48,3.75-0.32,7.53-0.64,11.3c-0.39,4.6-0.04,9.27,1.03,13.76"/>
	<path class="st28" d="M514.13,310.31c0.68-2.12,2.02-3.52,3.91-4.69s4.08-1.81,6.28-2.16"/>
	<path class="st27" d="M526.12,301.32c2.36,0.06,4.7,0.63,6.82,1.65"/>
	<path class="st28" d="M460.63,161.39c4.93,0.34,2.4,0.83,7.22,1.78c2.8,0.55,5.68,0.45,8.49,0.94c3.02,0.53,5.89,1.72,8.71,2.93
		c3.25,1.39,6.49,2.8,9.73,4.22c7.58,3.31,16.47,4.77,23.19,9.77c1.85,1.37,3.56,3.05,4.4,5.19c0.55,1.39,0.7,2.91,0.92,4.39
		c0.68,4.61,2.12,9.09,4.02,13.35c1.04,2.33,2.23,4.62,2.93,7.08c0.85,2.98,0.95,6.13,1.93,9.07c1.42,4.24,4.53,7.66,6.66,11.59
		c4.65,8.57,4.39,19.06,8.59,27.86c0.98,2.05,2.2,4,2.94,6.15c0.65,1.86,0.92,3.83,1.49,5.72c0.58,1.93,1.47,3.75,2.35,5.57
		c2.09,4.29,4.17,8.57,6.26,12.86c4.01,8.24,5.51,17.81,6.19,26.95c0.13,1.81,0.22,3.64-0.04,5.43c-0.3,2.07-1.04,4.04-1.72,6.02
		c-1.52,4.44-2.71,9-3.73,13.58c-0.84,3.8-0.92,7.28-2.08,11.09c-2.83,9.25-5.66,18.5-8.49,27.75c-1.72,5.61-3.09,11.51-5.21,16.98
		c-1.93,4.97-4.24,9.7-5.68,14.87"/>
	<path class="st28" d="M400.54,151.78c0.01,0.05,0.54,0.71,0.55,0.76c0.07,0.31,0.17,0.61,0.27,0.91c0.23,0.7,0.46,1.41,0.49,2.15
		c0.01,0.32-0.01,0.64,0.08,0.95c0.08,0.26,0.23,0.5,0.33,0.75c0.15,0.39,0.16,0.83,0.17,1.25c0.03,2.53-0.14,5.07-0.52,7.57
		c-0.03,0.19-0.06,0.39-0.17,0.54c-0.11,0.16-0.28,0.26-0.44,0.35c-0.67,0.38-1.34,0.77-2.01,1.15c-2.26,1.3-4.69,2.28-7.11,3.22
		c-2.47,0.96-4.86,2.04-7.46,2.65c-1.48,0.35-2.99,0.59-4.42,1.1c-1.41,0.51-3.15,1.24-4.32,2.19c-1.15,0.93-2.38,1.28-3.8,1.7
		c-3.12,0.93-6.02,2.49-8.89,4.04c-3.59,1.93-7.39,3.22-10.52,5.96c-0.35,0.31-0.7,0.63-1.03,0.97c-0.62,0.62-1.2,1.29-1.64,2.05
		c-0.47,0.81-0.77,1.71-1.1,2.59c-0.73,1.93-1.64,3.8-2.54,5.66c-3.27,6.75-6.55,13.51-9.82,20.26c-0.57,1.18-1.16,2.38-2.08,3.32
		c-0.5,0.51-1.09,0.93-1.57,1.46c-2.11,2.38-2.47,5.82-3.85,8.56c-1.69,3.36-4.06,6.53-6.47,9.4c-1.42,1.69-2.96,3.35-3.76,5.41
		c-1.25,3.21-1.77,6.66-3.31,9.76c-8.66-10.31-18.37-19.91-29.34-27.71c-2.02-1.44-4.09-2.84-5.96-4.47
		c-2.36-2.06-4.39-4.47-6.41-6.87c-3.2-3.8-6.71-7.63-9.91-11.44"/>
	<path class="st28" d="M239.41,224.71c0.66,0.65,1.21,1.4,1.62,2.23c0.43,0.86,0.71,1.76,1.23,2.58c0.58,0.9,0.99,1.89,1.43,2.87
		c0.45,1.01,0.88,2.02,1.34,3.02c1.68,3.64,4.29,6.75,6.5,10.1c3.91,5.9,6.59,12.52,9.89,18.78c6.38,12.11,14.69,23.08,21.83,34.77
		c1.94,3.18,4.16,5.64,6.58,8.38c2.24,2.54,4.89,4.37,7.26,6.79c0.71,0.73,1.33,1.54,2.05,2.26c1.29,1.28,2.95,1.9,4.32,3.02
		c1.05,0.87,1.91,2.06,2.93,3.01c0.68,0.64,1.4,1.29,2.29,1.56c1.01,0.3,2.1,0.06,3.16,0.09c2.18,0.07,4.23,1.3,6.41,1.22
		c3.28-0.12,6.8-2.09,8.81-3.84"/>
	<path class="st28" d="M315.46,258.07c3.44,4.13,1.56,5.77,1.85,9.23"/>
	<path class="st27" d="M271.82,226.13c1.05-0.17,2.09-0.33,3.14-0.5"/>
	<path class="st28" d="M453.37,142.7c0.04,1.37,0.4,2.78,0.68,4.11c0.31,1.44,0.66,2.88,1.14,4.27c0.7,2.08,1.63,4.08,2.51,6.09
		c0.58,1.34,1.9,3.18,2.93,4.21"/>
	<path class="st27" d="M508.39,196.64c3.82-0.4,7.78,0.89,10.63,3.47"/>
	<path class="st27" d="M518.34,203.55c1.46,0.82,2.93,1.64,4.39,2.46"/>
	<path class="st27" d="M516.66,258.89c3.7,1.68,7.46,3.41,10.53,6.07"/>
	<path class="st27" d="M526.31,269.26c1.41,0.22,2.82,0.44,4.24,0.66"/>
	<path class="st27" d="M312.29,270.25c0.19,2.08,1.13,4.08,2.61,5.55"/>
	<path class="st27" d="M331.7,243.03c1.36,0.07,2.7,0.59,3.74,1.47"/>
	<path class="st27" d="M421.3,188.9c0.92-0.54,1.85-1.09,2.77-1.63"/>
	<path class="st27" d="M417.42,188.09c-0.11,0.33-0.22,0.65-0.32,0.98"/>
	<path class="st27" d="M327.48,339.92c-0.39-0.59-0.28-1.37-0.13-2.07c0.18-0.86,0.41-1.73,0.83-2.5c0.42-0.77,1.07-1.46,1.9-1.76
		c0.44-0.16,0.91-0.21,1.37-0.32c1.67-0.37,3.11-1.39,4.51-2.38"/>
	<path class="st27" d="M435.83,332.82c2.59,0.44,4.85,2.07,6.55,4.06s2.92,4.35,4.13,6.68"/>
	<path class="st27" d="M336.51,378.49c-0.81,0.61-1.2,1.64-1.27,2.65c-0.06,1.01,0.16,2.01,0.39,2.99"/>
	<path class="st27" d="M375.01,307.16c2.81-1.05,5.61-2.1,8.42-3.15c0.88-0.33,1.79-0.66,2.72-0.57c0.94,0.09,1.77,0.6,2.6,1.04
		c5.13,2.75,11.07,3.47,16.86,4.14"/>
	<path class="st27" d="M454.67,317.02c1.79,0.59,3.73,0.06,5.54-0.48c4.1-1.22,8.28-2.47,11.75-4.97c2.66-1.91,4.8-4.49,7.56-6.26"
		/>
	<path class="st27" d="M464.36,319.71c4.19-0.45,8.69-1.05,11.77-3.91"/>
	<path class="st29" d="M477.37,209.74c0.23-1.57,0.37-3.14,0.57-4.71c0.74-5.8,2.3-11.5,4.63-16.87c1.11-2.56,1.82-5.18,2.95-7.75
		c1.16-2.64,2.49-5.2,3.77-7.79c0.56-1.12,1.02-2.7,0.02-3.46c-1.85-1.41-3.39-3.05-5.57-4.23c-2.19-1.18-4.55-2.05-6.98-2.57
		c-2.06-0.45-4.21-0.37-6.23-0.83c-0.94-0.21-1.88-0.55-2.83-0.67c-0.87-0.12-1.76-0.03-2.6,0.25c-0.22,0.07-0.45,0.17-0.6,0.34
		s-0.2,0.46-0.06,0.64c0.08,0.1,0.2,0.15,0.32,0.2c0.51,0.18,1.07,0.26,1.52,0.56c1.05,0.71,0.87,2.15,0.54,3.18
		c-0.64,2.01-1.16,4.16-2.03,6.08c-0.91,2.02-2.16,3.94-3.22,5.89c-2.3,4.2-4.62,8.44-7.66,12.17c-1.43,1.75-2.83,3.52-4.99,4.29
		c-2.48,0.89-5,1.27-7.62,1.44c-3.14,0.2-6.3,0.69-9.47,0.95c-8.57,0.7-17.16,1.47-25.77,1.23c-2.15-0.06-4.28-0.26-6.43-0.38
		c-1.84-0.1-3.7,0.13-5.57,0.03c-4.16-0.22-8.3-0.87-12.33-1.94c-1.43-0.38-2.94-0.88-3.85-2.04c-1.42-1.83-0.79-4.46-0.1-6.67
		c0.96-3.07,1.92-6.14,2.88-9.21c0.37-1.17,0.77-2.41,1.71-3.21c0.6-0.51,1.49-1.04,1.31-1.81c-0.18-0.72-1.14-0.84-1.88-0.76
		c-4.58,0.5-8.75,2.7-12.53,5.23c-0.75,0.5-1.88,1.06-2.51,1.76c-0.05,0.06-0.1,0.12-0.15,0.19c-0.6,0.84-0.83,2.23-1.05,3.21
		c-0.51,2.21-0.7,4.48-1.18,6.69c-1.02,4.76-3.38,9.18-5.23,13.64c-2.02,4.88-4.4,9.61-7.11,14.14c-0.8,1.33-1.63,2.66-2.68,3.8
		c-2.05,2.21-4.83,3.58-7.19,5.46c-2.6,2.07-4.7,4.78-6.05,7.82c-1.02,2.29-1.62,4.87-1.1,7.32c0.42,1.99,1.31,3.77,1.35,5.83
		c0.1,5.04-1.28,9.94-2.39,14.81c-0.55,2.42-1.02,4.84-1.29,7.3c-0.25,2.26,0.93,3.82,1.79,5.84c0.57,1.35,1.15,2.76,1.15,4.23
		c0,1.04-0.3,2.04-0.6,3.04c-0.78,2.63-1.66,5.16-2.83,7.64c-1.13,2.4-2.74,4.58-3.74,7.08c-0.62,1.55-1.06,3.17-1.49,4.79
		c-1.65,6.14-3.49,12.43-4.54,18.68c-1.72,10.22,2,20.53,2.32,30.89c0.06,2.07-0.02,4.18-0.72,6.13c-0.47,1.3-1.45,2.78-1.32,4.22
		c0.12,1.31,0.39,2.39,0.28,3.78c-0.26,3.24-0.97,6.42-1.47,9.63c-0.27,1.76-0.47,3.57-0.19,5.33c0.51,3.11,2.76,5.47,5.98,5.63
		c1.46,0.08,2.92-0.23,4.35-0.52c16.67-3.4,33.64-5.27,50.65-5.61c5.82-0.11,11.7-0.2,17.51,0.18c6.41,0.42,12.74,1.56,19.07,2.69
		c8.36,1.49,16.72,2.99,25.08,4.48c2.13,0.38,4.27,0.76,6.4,1.14c1.73,0.31,3.07-0.1,4.69-0.79c2.94-1.24,5.67-3.2,8.93-3.52
		c3.69-0.36,7.17,1.49,10.55,3.02c2.13,0.96,4.42,1.81,6.78,1.91c1.66,0.07,3.53-0.06,4.44-1.53c1.03-1.66,1.84-3.52,2.69-5.27
		c1.73-3.55,3.33-7.17,4.72-10.87c2.74-7.28,4.7-14.89,5.29-22.66c0.43-5.76-1.77-10.95-2.04-16.62c-0.13-2.65,0.43-5.3,0.27-7.95
		c-0.11-1.92-0.6-3.79-0.86-5.69c-0.48-3.53-0.19-7.1-0.05-10.65c0.13-3.44-0.19-6.76-0.53-10.16c-0.73-7.24-1.6-14.55-0.78-21.83
		c0.27-2.44,0.6-4.85,0.75-7.3c0.1-1.63-0.03-3.27-1.16-4.53c-1.23-1.37-2.93-1.26-4.52-1.93c-1.35-0.57-2.33-1.75-3.26-2.89
		c-1.79-2.18-3.57-4.36-5.36-6.54c-1.16-1.41-2.32-2.83-3.27-4.39c-4.46-7.36-2.8-15.29-2.23-23.35c0.16-2.23,0.04-4.44,0.35-6.66
		C476.2,215.5,476.94,212.65,477.37,209.74z"/>
	
		<linearGradient id="SVGID_00000102505323485111189070000011319648249979006593_" gradientUnits="userSpaceOnUse" x1="359.7301" y1="497.9803" x2="334.8764" y2="507.337" gradientTransform="matrix(1 0 0 -1 0 799.8898)">
		<stop  offset="0" style="stop-color:#000000;stop-opacity:0.5"/>
		<stop  offset="0.9985" style="stop-color:#FFFFFF;stop-opacity:0"/>
	</linearGradient>
	<path style="fill:url(#SVGID_00000102505323485111189070000011319648249979006593_);" d="M343.35,284.14
		c0.47,0.17,0.93,0.37,1.37,0.61c1.32,0.72,2.49,1.96,2.59,3.46c0.05,0.73-0.16,1.46-0.45,2.13c-0.42,0.97-1.03,1.87-1.77,2.62
		c-0.9,0.9-1.98,1.59-3.09,2.23c-2.14,1.22-4.39,2.25-6.72,3.06c-1.88,0.66-3.84,1.19-5.52,2.28c-1.03,0.66-1.92,1.52-2.8,2.36
		c0.31-4.22,2.71-8.27,4.92-11.76c0.58-0.92,1.2-1.84,1.6-2.85c0.38-0.95,0.56-1.96,0.74-2.96c0.28-1.57,0.44-3.22,0.76-4.77
		c0.3-1.45,1.26-1.1,1.93,0.07c0.75,1.3,2.16,2.08,3.58,2.59C341.43,283.54,342.41,283.8,343.35,284.14z"/>
	
		<linearGradient id="SVGID_00000127018252294104544270000001341448407716099211_" gradientUnits="userSpaceOnUse" x1="379.1812" y1="458.6282" x2="385.9429" y2="420.7625" gradientTransform="matrix(1 0 0 -1 0 799.8898)">
		<stop  offset="0" style="stop-color:#000000;stop-opacity:0.5"/>
		<stop  offset="0.9985" style="stop-color:#FFFFFF;stop-opacity:0"/>
	</linearGradient>
	<path style="fill:url(#SVGID_00000127018252294104544270000001341448407716099211_);" d="M416.81,377.28
		c-3.3-0.76-6.62-1.43-9.96-1.99c-3.84-0.65-7.7-1.16-11.57-1.54s-7.76-0.63-11.65-0.75c-3.89-0.12-7.79-0.1-11.68,0.05
		c-3.89,0.15-7.78,0.43-11.65,0.84s-7.73,0.96-11.56,1.63c-1.92,0.34-3.83,0.71-5.73,1.11c-0.93,0.2-1.89,0.51-2.84,0.62
		c-0.83,0.1-1.62,0.3-2.46,0.11c-0.16-0.04-0.34-0.09-0.43-0.24c-0.17-0.26,0.08-0.37,0.17-0.56c0.1-0.2,0.04-0.57,0.01-0.79
		c-0.06-0.51-0.25-1.01-0.51-1.45c-0.23-0.39-1.85-2.4-2.37-2.25c4.11-1.27,8.53-0.76,12.83-0.49c6.64,0.41,13.32,0.18,19.92-0.67
		c3.33-0.43,6.68-1.04,9.77-2.34c0.43-0.18,0.9-0.43,1.04-0.87c0.16-0.53-0.23-1.06-0.56-1.51c-0.76-1.03-1.31-2.2-1.63-3.44
		c-0.09-0.37-0.16-0.78,0.05-1.1s0.62-0.43,0.99-0.51c8.25-1.76,16.91-1.6,25.09,0.48c7.56,1.92,14.6,5.4,21.59,8.87
		c2.31,1.15,4.64,2.3,6.74,3.81c2.24,1.61,4.2,3.62,5.82,5.86C429.68,380.63,423.21,378.76,416.81,377.28z"/>
	
		<linearGradient id="SVGID_00000031171190624639353520000014012788494196210618_" gradientUnits="userSpaceOnUse" x1="466.8875" y1="428.3017" x2="443.4559" y2="419.1128" gradientTransform="matrix(1 0 0 -1 0 799.8898)">
		<stop  offset="0" style="stop-color:#000000;stop-opacity:0.5"/>
		<stop  offset="0.9985" style="stop-color:#FFFFFF;stop-opacity:0"/>
	</linearGradient>
	<path style="fill:url(#SVGID_00000031171190624639353520000014012788494196210618_);" d="M446.48,378.87
		c0.05-1.13,0.11-2.25,0.26-3.37c0.52-3.68,2.2-7.18,4.74-9.89c-0.3,1.69-0.6,3.39-0.91,5.08c-0.1,0.58-0.21,1.16-0.15,1.75
		c0.14,1.47,1.27,2.66,2.49,3.48c1.23,0.82,2.62,1.4,3.77,2.32c1.15,0.93,2.06,2.36,1.8,3.82c-0.04,0.23-0.11,0.46-0.07,0.69
		c0.12,0.71,1.07,0.85,1.8,0.85c0.72-0.01,1.69,0.24,1.69,0.97c-1.37,0.78-2.74,1.55-4.11,2.33c-0.96,0.54-1.92,1.09-2.97,1.42
		c-0.9,0.29-1.85,0.42-2.8,0.48c-1.55,0.1-5.6,0.36-5.93-1.63c-0.2-1.17,0.13-2.65,0.19-3.84
		C446.34,381.84,446.41,380.35,446.48,378.87z"/>
	
		<linearGradient id="SVGID_00000044877008746475383180000014512666455411186351_" gradientUnits="userSpaceOnUse" x1="477.2288" y1="469.1118" x2="503.2141" y2="472.114" gradientTransform="matrix(1 0 0 -1 0 799.8898)">
		<stop  offset="0" style="stop-color:#000000;stop-opacity:0.5"/>
		<stop  offset="0.9985" style="stop-color:#FFFFFF;stop-opacity:0"/>
	</linearGradient>
	<path style="fill:url(#SVGID_00000044877008746475383180000014512666455411186351_);" d="M492.38,317.71
		c0.15-0.19,0.3-0.38,0.45-0.6c0.99-1.4,1.79-2.99,2.53-4.53c0.78,3.52,1.24,7.11,1.39,10.72c0.07,1.79-0.15,3.63-0.01,5.4
		c0.12,1.58,0.32,3.1,0.22,4.71c-0.05,0.88-0.15,1.75-0.11,2.63c0.13,2.86,1.65,5.51,1.77,8.37c-0.9-0.8-1.79-1.6-2.69-2.41
		c-0.99-0.89-2-1.79-2.74-2.9s-1.19-2.47-0.94-3.79c0.33-1.8,1.91-3.5,1.26-5.21c-0.31-0.82-1.07-1.36-1.62-2.04
		c-1.8-2.22-1.77-5.32-0.97-7.93C491.25,319.08,491.79,318.47,492.38,317.71z"/>
	
		<linearGradient id="SVGID_00000059299821835928383150000003324613219135395737_" gradientUnits="userSpaceOnUse" x1="490.2379" y1="432.9619" x2="465.2119" y2="425.8514" gradientTransform="matrix(1 0 0 -1 0 799.8898)">
		<stop  offset="0" style="stop-color:#000000;stop-opacity:0.5"/>
		<stop  offset="0.9985" style="stop-color:#FFFFFF;stop-opacity:0"/>
	</linearGradient>
	<path style="fill:url(#SVGID_00000059299821835928383150000003324613219135395737_);" d="M463.09,369.2
		c-0.16,0.02-0.33,0.05-0.42,0.17c-0.19,0.24,0.04,0.57,0.26,0.77c3.83,3.54,9.26,4.75,14.46,5.17c0.87,0.07,1.75,0.12,2.61-0.02
		c0.23-0.04,0.51-0.14,0.55-0.37c0.03-0.15-0.06-0.3-0.15-0.42c-0.83-1.08-2.35-1.29-3.71-1.39c-1.36-0.09-2.87-0.22-3.81-1.2
		c-1.09-1.15-1.84-2.34-3.5-2.71C467.39,368.76,465.09,368.94,463.09,369.2z"/>
	
		<linearGradient id="SVGID_00000183955590124566342980000003525467115332908201_" gradientUnits="userSpaceOnUse" x1="415.1626" y1="552.5731" x2="413.1277" y2="573.521" gradientTransform="matrix(1 0 0 -1 0 799.8898)">
		<stop  offset="0" style="stop-color:#000000;stop-opacity:0.5"/>
		<stop  offset="0.9985" style="stop-color:#FFFFFF;stop-opacity:0"/>
	</linearGradient>
	<path style="fill:url(#SVGID_00000183955590124566342980000003525467115332908201_);" d="M396.36,227.97
		c1.34,0.81,2.73,1.56,4.23,2.02c1.92,0.59,3.95,0.68,5.95,0.64c12.05-0.24,23.63-5.07,35.67-5.49c-4.89,0.89-9.67,2.32-14.44,3.71
		c-13.99,4.07-28.25,7.89-42.82,8.06c3.46-1.99,7.06-3.75,10.76-5.26c-3.4-2.63-6.56-5.57-9.41-8.78c-0.5-0.56-1.04-1.22-0.92-2
		C389.52,221.99,392.75,225.79,396.36,227.97z"/>
	
		<linearGradient id="SVGID_00000043441321869714894670000000100377570995116175_" gradientUnits="userSpaceOnUse" x1="385.0743" y1="438.4531" x2="387.3295" y2="398.8627" gradientTransform="matrix(1 0 0 -1 0 799.8898)">
		<stop  offset="0" style="stop-color:#000000;stop-opacity:0.5"/>
		<stop  offset="0.9997" style="stop-color:#FEEDD6;stop-opacity:0"/>
	</linearGradient>
	<path style="fill:url(#SVGID_00000043441321869714894670000000100377570995116175_);" d="M334.34,395.93
		c3.3-2.11,7.23-3,11.07-3.83c4.95-1.07,9.9-2.09,14.86-3.12c1.55-0.32,3.12-0.64,4.7-0.65c1.89-0.01,3.75,0.42,5.63,0.63
		c3.34,0.36,6.71-0.03,10.03-0.5c7.15-1.03,14.29-2.5,21.51-2.35c6.3,0.13,12.48,1.48,18.7,2.37c6.22,0.89,12.48,1.35,18.72,2.2
		c1.53,0.21,4.05,0.61,5.34-0.55c1.07-0.97,0.73-2.44-0.82-2.53c-1.42-0.08-2.82-0.38-4.21-0.69c-16.41-3.76-33.42-5.12-50.18-6.7
		c-1.92-0.18-3.84-0.36-5.77-0.42c-4.23-0.14-8.45,0.24-12.64,0.74c-3.9,0.47-7.68,0.5-11.6,0.68c-1.77,0.08-3.29,0.77-5.03,0.96
		c-5.07,0.56-10.08,0.95-15.1,1.93c-2.86,0.56-5.69,1.22-8.5,1.99c-0.83,0.23-2.9,0.44-3.26,1.23c-0.39,0.88,0.56,2.9,0.82,3.81
		c0.47,1.65,1.23,3.23,2.23,4.63c0.35,0.49,0.78,0.98,1.37,1.08c0.66,0.11,1.27-0.32,1.83-0.69
		C334.14,396.06,334.24,395.99,334.34,395.93z"/>
	
		<linearGradient id="SVGID_00000142884795585281707710000017839337525823687056_" gradientUnits="userSpaceOnUse" x1="502.7761" y1="570.3389" x2="477.4521" y2="566.9279" gradientTransform="matrix(1 0 0 -1 0 799.8898)">
		<stop  offset="0" style="stop-color:#000000;stop-opacity:0.5"/>
		<stop  offset="0.9985" style="stop-color:#D3C0AB;stop-opacity:0"/>
	</linearGradient>
	<path style="fill:url(#SVGID_00000142884795585281707710000017839337525823687056_);" d="M486.43,245.68
		c-0.34,0.41-0.69,0.81-1.01,1.23c-1.95,2.5-0.82,4.88-2.17,7.29c-0.07,0.12-0.14,0.24-0.25,0.31c-0.74,0.48-3.51-3.24-3.88-3.78
		c-1.09-1.58-1.82-3.38-2.44-5.2c-3.75-11.17-2.13-22.63,0.48-33.78c0.16-0.68,0.85-1.55,1.35-1.06c-0.37,3.95-0.74,7.9-1.11,11.85
		c-0.22,2.4-0.34,5.12,1.31,6.87c1.43,1.52,3.77,1.78,5.82,1.43s3.99-1.22,6.03-1.61c-1.1,3.55-6.07,4.74-7.14,8.3
		c-0.11,0.36-0.17,0.75-0.03,1.09c0.15,0.38,0.5,0.63,0.85,0.85c1.08,0.67,2.27,1.17,3.5,1.48c0.37,0.09,0.81,0.22,0.94,0.59
		c0.07,0.2,0.02,0.43-0.05,0.63C488.22,243.5,487.34,244.59,486.43,245.68z"/>
	
		<linearGradient id="SVGID_00000119839992144025711080000006854162202115668639_" gradientUnits="userSpaceOnUse" x1="508.4942" y1="562.6411" x2="531.7544" y2="571.4484" gradientTransform="matrix(1 0 0 -1 0 799.8898)">
		<stop  offset="0" style="stop-color:#000000;stop-opacity:0.5"/>
		<stop  offset="0.9985" style="stop-color:#D3C0AB;stop-opacity:0"/>
	</linearGradient>
	<path style="fill:url(#SVGID_00000119839992144025711080000006854162202115668639_);" d="M525.53,204.02
		c0.88,1,1.56,2.17,2.19,3.34c2.82,5.28,4.71,11.05,5.58,16.97c-6.15-0.93-12.38-1.39-18.6-1.36c4.12,0.62,8.11,1.93,12,3.42
		c3.04,1.16,6.14,2.5,8.31,4.92c1,1.11,1.77,2.41,2.53,3.71c1.14,1.94,2.29,3.88,3.43,5.82c0.38,0.65,0.78,1.33,0.83,2.08
		c0.14,1.87-1.72,3.2-3.35,4.12c0.96,0.77,1.85,1.62,2.67,2.53c-1.58,2.34-1.25,5.62,0.28,7.98c1.53,2.37,4.07,3.93,6.71,4.91
		c-2.06-3.99-4.15-8.08-4.76-12.52c-0.28-2.04-0.24-4.11-0.51-6.14c-0.39-3-1.45-5.87-2.49-8.71c-1.27-3.44-2.57-6.95-4.88-9.8
		c-0.96-1.19-2.09-2.25-2.93-3.54c-2.13-3.29-2.05-7.48-3.05-11.27c-0.53-1.99-1.36-3.88-2.19-5.76c-1.1-2.5-2.59-5.31-5.27-5.83
		c-0.53-0.1-1.18-0.16-1.44-0.64c-0.19-0.35-0.08-0.77-0.04-1.17c0.38-3.86-7.21-4.88-4.27,0.47
		C518.09,200.8,523.02,201.17,525.53,204.02z"/>
	<path class="st28" d="M340.22,228.07c0.43-0.49,0.88-0.97,1.35-1.42c2.62-2.49,6.45-4.2,8.62-7.09c1.99-2.65,3.72-5.87,5.31-8.8
		c3.51-6.43,6.18-13.27,8.55-20.18c0.65-1.89,1.27-3.8,1.62-5.77c0.26-1.5-0.23-3.14,0.32-4.58c0.56-1.47,2.12-2.5,3.44-3.25
		c3.38-1.93,7.08-3.24,10.82-4.31c1.24-0.35,2.73-0.63,3.68,0.22c0.14,0.13,0.27,0.3,0.27,0.49c-0.01,0.44-0.6,0.54-1.03,0.65
		c-1.65,0.43-2.17,3.29-2.66,4.64c-0.88,2.42-1.76,4.84-2.63,7.27c-0.76,2.1-1.52,4.46-0.63,6.51c1.18,2.7,4.57,3.57,7.52,4
		c19.95,2.93,39.81,1.13,59.75-0.83c2.22-0.22,3.77-0.5,5.59-1.94c1.74-1.38,3.11-3.18,4.41-4.95c5.43-7.38,10.94-15.15,12.5-24.14
		c0.08-0.46,0.14-0.97-0.13-1.36c-0.16-0.23,0.04-0.43-0.24-0.45s-2.48-0.81-2.65-1.03c-0.54-0.69,2.28-0.8,2.69-0.81
		c2.01-0.03,2.68-0.17,3.75,0c6.51,1.01,13.08,3.57,18.52,7.24c0.3,0.2,0.61,0.42,0.82,0.72c0.69,0.96,0.14,2.28-0.4,3.33
		c-5.26,10.15-9.02,21.06-11.11,32.27c-1.48,7.93-2.61,15.34-3.4,23.37c-0.68,6.85-1.09,14.76,3.05,20.69
		c0.83,1.19,1.82,2.26,2.71,3.4c1.57,1.99,2.86,4.19,4.42,6.18s3.47,3.83,5.85,4.75c1.73,0.67,3.99,1.55,4.43,3.51
		c0.5,2.21,0.13,4.78-0.22,6.98c-1.56,9.67-0.2,19.27,0.6,28.96c0.19,2.28,0.37,4.57,0.13,6.84c-0.12,1.1-0.33,2.18-0.35,3.28
		c-0.02,1.22,0.2,2.43,0.4,3.63c0.98,5.91,0.8,11.92,1.04,17.88c0.21,5.26,2.06,10.29,1.61,15.46c-0.6,6.86-2.43,13.54-4.73,20
		c-2.11,5.93-4.2,12.57-7.32,18.06c-1.03,1.81-3.4,2.44-5.46,2.18c-1.84-0.23-3.94-0.98-5.59-1.82c-1.95-1-3.85-2.12-5.91-2.87
		s-4.33-1.13-6.45-0.58c-0.74,0.19-1.45,0.49-2.14,0.83c-1.78,0.89-3.41,2.06-5.23,2.85c-4.2,1.81-9.31-0.07-13.58-0.86
		c-10.65-1.98-21.31-3.97-32.02-5.57c-22.55-3.37-44.82-1.46-67.31,1.88c-4.68,0.7-9.19,2.14-13.88,2.68
		c-1.66,0.19-3.45,0.2-4.85-0.72c-4.82-3.17-1.73-10.61-1.76-15.15c-0.03-4.44,0.49-8.89,1.58-13.2c2-7.98-1.01-16.34-1.24-24.56
		c-0.12-4.37-0.24-8.75,0.22-13.09c0.68-6.38,3.13-12.19,4.35-18.42c1.06-5.41,4.7-9.41,6.65-14.53c0.6-1.58,1-3.23,1.39-4.87
		c0.3-1.27,0.61-2.57,0.43-3.86c-0.32-2.3-2.09-4.15-2.75-6.38c-0.79-2.66,0.1-5.48,0.86-8.15c1.28-4.46,2.22-9.02,2.82-13.62
		c0.19-1.49,0.35-3.03-0.06-4.48c-0.33-1.16-1.01-2.2-1.29-3.36c-0.26-1.09-0.17-2.23,0.01-3.34
		C335.91,234.68,337.65,231.03,340.22,228.07z"/>
	<path class="st39" d="M436.81,347.28c-3.32,3.36-8,7.01-13.15,6.87c-2.16-0.06-4.37-1.11-5.04-2.95c-0.31-0.85-0.33-1.87-1.07-2.44
		c-0.53-0.41-1.3-0.46-2-0.55c-5.08-0.7-8.9-5.34-8.26-10.04c0.7-5.13,13.29-14.6,15.41-7.2c0.55,1.92,2.43,3.41,4.6,3.66
		c1.76,0.2,3.56-0.34,5.27-0.88c1.72-0.54,3.51-1.09,5.27-0.9C445.94,333.73,439.85,344.21,436.81,347.28z"/>
	<path class="st39" d="M424.66,291.4c-0.53-3.66-3.23-5.43-6.91-6.22c-1.67-2.56-1.58-5.75-3.74-8.47
		c-2.19-2.77-5.78-3.72-9.04-4.64c-7.28-2.07-17.54-5.12-24.72-1.13c-3.49,1.94-6.01,5.95-3.9,9.82c2.22,4.07,6.73,3.61,10.54,4.88
		c0.74,0.25,1.46,0.76,1.67,1.52c0.3,1.04-0.42,2.07-1.1,2.91c-0.63,0.79-1.27,1.57-1.9,2.36c-0.38,0.47-0.77,0.96-0.93,1.54
		c-0.23,0.87,0.09,1.79,0.53,2.58c2.07,3.64,7.15,4.2,10.97,4.68c9.35,1.17,15.21-7.84,24.65-5.97
		C423.33,295.76,425.01,293.82,424.66,291.4z"/>
	<path class="st39" d="M494.55,269.62c0-0.64-0.04-1.3-0.14-1.99c-0.06-0.41-0.12-0.83-0.32-1.19c-0.46-0.87-1.49-1.24-2.39-1.64
		c-1.83-0.81-3.44-2.03-5.02-3.26c-0.57-0.44-1.13-0.88-1.65-1.38c-1.02-0.96-1.87-2.1-2.71-3.22c-0.78-1.05-1.56-2.1-2.34-3.15
		c-2.5-3.36-5.05-6.79-6.57-10.73c-0.21-0.54-0.52-2.48-1.28-2.48c-0.71,0-1.18,1.54-1.39,2.04c-0.81,1.92-1.32,3.95-2.16,5.86
		c-0.49,1.12-0.96,2.47-0.27,3.48c0.87,1.28,2.8,0.95,4.32,1.23c2.68,0.49,4.36,3.1,5.72,5.47c0.77,1.34,1.55,2.72,1.76,4.25
		s-0.28,3.26-1.58,4.09c-1.21,0.77-2.76,0.59-4.19,0.54s-3.08,0.19-3.85,1.39c-0.57,0.89-0.46,2.05-0.19,3.07
		c0.52,1.98,2.08,4.08,4.11,3.84c1.01-0.12,1.85-0.78,2.79-1.17c0.94-0.38,2.24-0.36,2.72,0.53c0.65,1.19-0.73,2.71-0.18,3.95
		c0.48,1.08,1.95,1.1,3.07,1.45c2.24,0.7,3.46,3.16,3.85,5.48s0.2,4.73,0.85,6.99c0.77,2.69,2.76,5.01,5.31,6.17
		c0.49-2.26,0.37-4.64-0.32-6.84c-0.38-1.21-0.94-2.56-0.37-3.7c1.15-2.29,1.6-3.12,1.23-5.79c-0.39-2.79-0.16-5.67,0.48-8.41
		C494.26,272.8,494.54,271.27,494.55,269.62z"/>
	<path class="st39" d="M364.16,273.19c-0.13,0-0.26,0.01-0.4,0.01c-0.71-0.15-1.47-0.35-2.18-0.29c-0.76,0.07-1.54,0.4-2.26,0.72
		c-0.78,0.13-1.56,0.26-2.33,0.4c-2.59,0.48-5.05,1.4-7.61,2.03c-2.35,0.58-4.66,0.75-7.05,0.36c-0.62-0.1-1.25-0.26-1.88-0.44
		c-0.75-0.33-1.43-0.76-2.18-1.01c-0.47-0.33-0.94-0.64-1.52-0.65c-0.27-0.01-0.47,0.23-0.48,0.48c-0.01,0.22,0.04,0.45,0.13,0.66
		c-0.11,0.24-0.14,0.51-0.06,0.76c0.25,0.78,0.66,1.18,1.18,1.79c0.52,0.61,0.56,0.78,0.67,1.48c0.25,1.56,1.53,2.23,2.88,2.74
		c2.77,1.05,5.87,0.99,8.68,0.14c2.69-0.81,5.06-2.3,7.17-4.13c1.01-0.88,2.04-1.68,3.18-2.39c0.6-0.37,1.22-0.7,1.85-1.02
		c0.67-0.34,1.23-0.81,1.94-1.07c0.12-0.02,0.23-0.04,0.35-0.06C364.53,273.66,364.46,273.19,364.16,273.19z"/>
	<path class="st39" d="M471.45,281.06c-1.45-0.14-2.93,0.36-4.32,0.72c-1.83,0.46-3.65,0.9-5.51,1.2c-1.24,0.19-2.51,0.28-3.79,0.32
		c-2.32-0.55-4.77-0.63-7.12-1.09c-2.4-0.47-4.75-1.13-7.1-1.83c-4.51-1.35-9.21-3.27-13.92-3.8h-0.01c0,0,0,0-0.01,0
		c-0.09-0.01-0.18-0.03-0.27-0.04v0.04c-0.07,0-0.13,0.01-0.2,0.03c-1.23-0.9-2.65-1.83-4.1-1.63c-0.19,0.03-0.2,0.27-0.1,0.39
		c0.7,0.86,1.79,1.22,2.71,1.82c0.24,0.15,0.43,0.34,0.66,0.5c0.01,0.3,0.15,0.6,0.51,0.8c0.32,0.18,0.66,0.32,0.99,0.48
		c0.31,0.31,0.63,0.6,0.92,0.94c1.66,1.9,2.86,4.25,4.83,5.87c0.84,0.69,1.84,1.26,2.95,1.31c0.5,0.02,0.88-0.1,1.37-0.15
		c0.87-0.09,1.41,0.12,2.22,0.5c2.35,1.1,4.53,2.54,6.84,3.71c4.27,2.17,9.58,3.55,14.05,1.08c1.18-0.65,2.12-1.63,3.19-2.43
		c1.08-0.81,2.32-1.35,3.46-2.07c1.73-1.1,3.58-3.3,3.48-5.47C473.14,281.31,472.19,280.78,471.45,281.06z"/>
	<path class="st39" d="M357.44,354.4c-1.31-0.43-2.48-1.22-3.76-1.76c-1.14-0.48-2.18-1.1-3.2-1.77c-0.41-0.35-0.85-0.64-1.32-0.9
		c-2.42-1.74-4.74-3.68-7.07-5.53c-0.35-0.28-0.69-0.57-1.03-0.87c-0.18-0.5-0.46-0.97-0.75-1.42c-0.42-0.65-0.82-1.31-1.27-1.94
		c-0.83-1.16-1.73-2.31-2.42-3.56c-0.25-0.9-0.45-1.81-0.61-2.73c-0.12-0.68-0.18-1.36-0.3-2.04c-0.15-0.85-0.62-1.61-0.67-2.48
		c-0.01-0.22-0.32-0.22-0.34,0c-0.09,0.88-0.57,1.63-0.68,2.5c-0.1,0.76-0.1,1.54-0.1,2.3c0,1.48,0.17,2.98,0.49,4.42
		c0.45,2.01,1.3,3.74,2.47,5.28c0.02,0.4,0.01,0.81,0,1.21c-0.06,1.81,0.31,3.75,2.06,4.68c0.84,0.45,1.67,0.3,2.56,0.46
		c0.89,0.17,1.75,0.63,2.59,0.97c0.69,0.28,1.38,0.57,2.07,0.85c0.47,0.34,0.93,0.69,1.41,1.02c1.35,0.94,2.92,1.55,4.49,1.99
		c0.83,0.23,1.7,0.46,2.56,0.53c0.85,0.07,1.61-0.08,2.47,0.06C357.92,355.81,358.28,354.67,357.44,354.4z"/>
	<path class="st39" d="M358.92,359.05c-0.25,0.05-0.45,0.12-0.7,0.03c-0.15-0.06-0.26-0.16-0.43-0.21
		c-0.37-0.11-0.75-0.16-1.12-0.24c-0.36-0.08-0.68-0.22-1.03-0.32c-0.39-0.11-0.79-0.15-1.19-0.24c-0.16-0.04-0.32-0.08-0.48-0.13
		c-0.08-0.13-0.17-0.25-0.31-0.33c-0.18-0.11-0.37-0.22-0.55-0.32c-0.24-0.14-0.5-0.23-0.77-0.32c-0.42-0.14-0.85-0.29-1.27-0.43
		c-0.39-0.13-0.79-0.26-1.17-0.4c-0.17-0.06-0.33-0.13-0.5-0.18c-0.08-0.02-0.18-0.04-0.24-0.08c0.21,0.13-0.07-0.04-0.11-0.07
		c-0.35-0.2-0.76-0.13-1.05,0.13c-0.34-0.26-0.68-0.51-1.01-0.78c-0.22-0.18-0.63-0.02-0.52,0.3c0.39,1.17,0.85,2.36,1.54,3.39
		c0.39,0.58,0.86,1.25,1.58,1.45c0.62,0.17,1.26-0.06,1.89,0c1.34,0.14,2.61,0.91,3.99,0.72c0.65-0.09,1.35-0.23,1.95-0.47
		c0.27-0.11,0.6-0.23,0.81-0.44c0.08-0.08,0.13-0.22,0.22-0.29c0.14-0.12,0.46-0.18,0.63-0.24
		C359.41,359.47,359.28,358.98,358.92,359.05z"/>
	<path class="st39" d="M433.13,201.38c-1.16,0.25-2.14,0.72-3.63,1.09c-2.54,0.63-5.25,0.67-7.86,0.64c-4.01-0.04-8-0.51-12-0.56
		c-4.25-0.05-8.38,0.36-12.59,0.91c-2.72,0.35-5.06-0.26-7.38-1.66c-2.15-1.29-3.91-1.51-6.44-1.86c-3.3-0.45-6.94-1.18-8.91-3.86
		c0.37,0.51-0.48,3.39,0.14,4.55c0.68,1.26,1.97,2.01,3.16,2.7c3.25,1.89,6.88,3.15,9.32,6.22c1.29,1.63,1.98,3.9,1.21,5.84
		c-0.2,0.5-0.5,1-0.49,1.54c0.03,1.41,1.88,1.85,3.29,2c3.27,0.36,6.46,1.46,9.26,3.19c0.98,0.6,1.95,1.32,2.42,2.37
		c0.27,0.61,0.36,1.28,0.62,1.89c1.08,2.52,4.49,2.91,7.2,2.49c2.43-0.37,4.86-1.1,6.86-2.55c1.36-0.98,5.74-5.25,5.74-7.06
		c0-1.38-5.37-5.48-0.63-5.76c1.18-0.07,2.26,0.61,3.19,1.33s1.86,1.53,3.01,1.78c1.43,0.32,3.03-0.39,3.76-1.66
		s0.54-3.01-0.46-4.09c0.33,0.36,4.35-0.75,4.85-1.29c1.03-1.12,0.24-4.12,2.54-4.15c0.47-0.01,0.91,0.22,1.35,0.39
		c2,0.76,4.4,0.33,6.01-1.08c1.61-1.41,2.35-3.74,1.85-5.82c-4.21,1.32-8.54,2.65-12.94,2.32
		C434.6,201.16,433.83,201.23,433.13,201.38z"/>
	<g>
		<path class="st39" d="M401.62,228.61c0.01-0.08,0.02-0.16,0.03-0.24c0,0.02-0.02,0.04-0.02,0.07
			C401.62,228.49,401.63,228.55,401.62,228.61z"/>
		<path class="st39" d="M401.65,228.37c0-0.02,0.01-0.04,0.01-0.06C401.65,228.33,401.65,228.35,401.65,228.37L401.65,228.37z"/>
	</g>
	<path class="st39" d="M391.8,306.92c-0.75-0.01-1.49,0.02-2.24,0.1c-2.5,0.27-4.9,1.11-7.33,1.8c-4.78,1.36-9.73,2.1-14.7,2.22
		c-1.07,0.02-2.22,0-3.11-0.59c-1.77-1.17-0.19-3.41-1.87-4.79c-1.01-0.83-2.36-0.83-3.61-0.96c-4.08-0.4-7.96-1.17-11.59,1.21
		c-3.03,1.99-5.18,5.43-5.31,9.09c-0.03,0.72,0.02,1.45-0.15,2.15c-0.28,1.15-1.08,2.09-1.71,3.09c-3.1,4.92-1.96,11.6,1.23,16.46
		c3.2,4.86,8.09,8.3,12.86,11.62c3.66,2.54,7.63,5.78,12.06,6.73c3.04,0.65,5.75-0.67,7.68-3.01c1.45-1.76,2.81-7.63,6.12-6.01
		c0.75,0.37,1.29,1.06,2.04,1.42c1.47,0.7,3.23-0.1,4.42-1.2c1.85-1.71,2.97-4.38,2.32-6.81c-0.66-2.44-2.91-4.16-5.29-5.03
		c-2.37-0.87-4.93-1.09-7.4-1.64c-0.42-0.09-0.9-0.26-1.03-0.67c-0.12-0.37,0.13-0.75,0.38-1.05c2.5-2.88,6.78-3.12,10.41-4.3
		c4.5-1.46,8.27-4.57,11.73-7.81c1.43-1.34,2.86-2.76,3.61-4.56s0.67-4.09-0.71-5.48c-1.17-1.19-2.96-1.46-4.62-1.65
		C394.61,307.08,393.2,306.94,391.8,306.92z"/>
	
		<linearGradient id="SVGID_00000005981815340486219830000015913438063338237339_" gradientUnits="userSpaceOnUse" x1="424.2777" y1="624.0111" x2="412.1119" y2="558.2051" gradientTransform="matrix(1 0 0 -1 0 799.8898)">
		<stop  offset="0" style="stop-color:#FFF155;stop-opacity:0.5"/>
		<stop  offset="0.0125" style="stop-color:#FF7715;stop-opacity:0.3"/>
		<stop  offset="1" style="stop-color:#F7F7F7;stop-opacity:0"/>
	</linearGradient>
	<path style="fill:url(#SVGID_00000005981815340486219830000015913438063338237339_);" d="M374.72,190.96
		c0.06-1.02,0.08-2.03-0.2-2.99c-0.11-0.38-0.34-0.8-0.73-0.83c-0.32-0.03-0.58,0.22-0.79,0.46c-0.9,1.06-1.02,2.19-1.42,3.45
		c-0.43,1.38-1.07,2.57-0.92,4.08c0.25,2.45,2.36,4.51,2.24,6.96c-0.12,2.4-2.3,4.13-3.24,6.34c-0.15,0.36-0.27,0.74-0.23,1.12
		c0.08,0.76,0.74,1.3,1.28,1.83c1.31,1.3,2.13,3.08,2.29,4.92c0.15,1.78-0.3,3.55-0.43,5.32c-0.13,1.78,0.13,3.74,1.42,4.98
		c2.94,2.84,8.71-0.06,11.56,2.88c2.1,2.17,0.94,5.7,0.81,8.72c-0.25,5.8,3.82,10.82,7.88,14.97c1.63,1.66,3.57,3.41,5.9,3.34
		c2.67-0.07,4.63-2.45,7.03-3.63c0.77-0.38,1.65-0.64,2.49-0.48c1.1,0.21,1.97,1.09,3.05,1.37c1.93,0.49,3.96-1.34,3.96-3.33
		s-1.71-3.73-3.66-4.11c3.83-0.81,7.54-2.19,10.96-4.08c2.31-1.28,4.79-3.63,3.87-6.1c-0.62-1.66-2.56-2.49-3.3-4.09
		c-1.11-2.39,0.9-5.03,2.95-6.69c1.7-1.38,3.54-2.61,5.47-3.64c-0.18,5.62-0.35,11.35,1.15,16.77c0.22,0.79,0.54,1.65,1.28,1.99
		c1.06,0.49,2.33-0.48,2.6-1.61c0.27-1.14-0.14-2.31-0.54-3.41c-0.92-2.48-1.83-4.95-2.75-7.43c-0.26-0.69-0.51-1.44-0.32-2.15
		c0.13-0.47,0.45-0.87,0.76-1.25c0.88-1.09,1.76-2.18,2.64-3.27c1.03-1.27,2.96-2.82,4.4-1.13c0.51,0.6,0.92,1.38,1.68,1.61
		c0.97,0.29,1.99-0.61,2.15-1.62s-0.32-2-0.91-2.83c-0.56-0.79-1.24-1.53-1.51-2.46s0.1-2.14,1.03-2.39c0.44-0.12,0.91,0,1.36,0.06
		c0.67,0.09,1.38,0.08,1.95,0.44c0.98,0.62,1.07,1.98,1.13,3.14c0.11,2.18,0.59,4.49,2.13,6.03c1.05,1.05,2.49,1.63,3.95,1.9
		c1.08,0.2,2.2,0.24,3.28,0.02c1.64-0.33,3.11-1.24,4.45-2.24c2.14-1.59,4.23-3.78,4.26-6.45c0.01-0.79-0.18-1.61-0.68-2.23
		c-0.55-0.69-1.41-1.06-2.25-1.3c-3.83-1.12-8.04-0.31-11.84-1.54c-0.91-0.3-1.81-0.72-2.46-1.42s-1.03-1.71-0.78-2.64
		c0.33-1.21,1.5-1.86,2.27-2.76c0.42-0.49,0.41-0.95,0.69-1.46c0.3-0.54,0.94-0.88,1.47-1.15c0.94-0.47,1.99-1.47,1.49-2.39
		c-0.31-0.56-1.16-0.98-0.93-1.58c0.09-0.24,0.33-0.38,0.56-0.49c1.97-0.98,4.23-1.26,6.17-2.3c1.51-0.81,2.77-2.07,3.59-3.57
		c0.66-1.21,0.9-2.96-0.22-3.75c-0.97-0.69-2.31-0.2-3.33,0.42c-2.85,1.73-5.1,4.29-7.21,6.86c-1.31,1.59-2.62,3.24-4.33,4.39
		s-3.93,1.75-5.87,1.03c-0.79-0.29-1.49-0.78-2.28-1.06s-1.76-0.3-2.38,0.26c-0.62,0.57-0.51,1.83,0.3,2.04
		c-9.91,1.47-19.98,1.34-30,1.19c-4.26-0.07-8.51-0.14-12.77-0.25c-4.62-0.12-9.51-0.36-13.38-2.89c-0.88-0.58-2.06-1.27-2.88-0.62
		c-0.19,0.15-0.34,0.36-0.56,0.46c-0.37,0.16-0.78-0.05-1.13-0.25c-1.27-0.74-2.61-1.55-3.29-2.86
		C374.43,194.19,374.62,192.57,374.72,190.96z"/>
	
		<linearGradient id="SVGID_00000147193517049254265470000013529789842272177047_" gradientUnits="userSpaceOnUse" x1="408.957" y1="569.0406" x2="328.8299" y2="542.8452" gradientTransform="matrix(1 0 0 -1 0 799.8898)">
		<stop  offset="0" style="stop-color:#FFF155;stop-opacity:0.5"/>
		<stop  offset="0.0125" style="stop-color:#FF7715;stop-opacity:0.3"/>
		<stop  offset="1" style="stop-color:#F7F7F7;stop-opacity:0"/>
	</linearGradient>
	<path style="fill:url(#SVGID_00000147193517049254265470000013529789842272177047_);" d="M346.67,227.12
		c-0.96,0.2-1.97,0.36-2.74,0.96c-0.46,0.36-0.8,0.86-1.11,1.36c-1.28,2.03-2.35,4.2-3.18,6.45c-0.43,1.15-0.76,2.52-0.05,3.52
		c0.93,1.29,3.09,1.12,4.06,2.39c0.78,1.03,0.41,2.49,0.02,3.73c-1.27,3.99-2.45,8.02-3.52,12.07c-0.67,2.53-1.3,5.23-0.53,7.73
		c0.83,2.7,3.35,4.8,6.16,5.11c0.94,0.11,1.95,0.01,2.71-0.56c1.32-0.98,1.47-3.02,2.78-4c0.87-0.65,2.06-0.68,3.1-0.38
		s1.97,0.88,2.91,1.4c7.38,4.05,16.81,4.12,24.25,0.18c0.51-0.27,1.08-0.71,0.97-1.27c-0.1-0.47-0.62-0.7-1.08-0.84
		c-6.56-2-13.61-1.25-20.44-1.95c-1.47-0.15-3.18-0.55-3.74-1.92c-0.18-0.43-0.18-1,0.18-1.29c0.34-0.27,0.82-0.2,1.25-0.14
		c4.46,0.6,8.72-1.82,12.57-4.16c1.39-0.84,2.9-1.84,3.3-3.41c0.47-1.86-0.79-3.68-1.99-5.19c-0.46-0.58-0.94-1.18-1.62-1.47
		c-0.61-0.26-1.3-0.25-1.95-0.12c-2.6,0.51-4.53,2.61-6.56,4.31c-1.21,1.02-2.52,1.93-3.92,2.68c-1.51,0.8-3.32,1.41-4.9,0.76
		c-1.4-0.58-2.27-2.06-2.46-3.56s0.22-3.02,0.77-4.42c0.62-1.56,1.38-3.5,0.28-4.76c-0.86-0.98-2.53-1.03-3.23-2.15
		c0.98-0.91,1.88-1.89,2.72-2.94c0.43-0.54,0.85-1.12,1.01-1.79s-0.02-1.46-0.58-1.86c0.95-0.98,2.63-0.24,3.61,0.72
		c0.36,0.35,0.73,0.74,1.23,0.8c0.39,0.04,0.77-0.14,1.12-0.34c1.65-0.93,3.13-2.15,4.35-3.59c0.22-0.26,0.44-0.56,0.45-0.9
		c0.01-0.55-0.54-0.96-1.07-1.09c-0.79-0.19-1.61,0-2.41-0.05c-0.81-0.05-1.71-0.5-1.82-1.3c-0.04-0.33,0.06-0.65,0.17-0.96
		c0.4-1.09,0.95-2.12,1.65-3.06c0.3-0.41,1.6-1.44,1.29-2.02c-0.72-1.37-2.85,0.56-3.32,1.08
		C354.53,224.01,350.77,226.25,346.67,227.12z"/>
	
		<linearGradient id="SVGID_00000003086490602435648200000014060396295240560061_" gradientUnits="userSpaceOnUse" x1="326.6428" y1="530.7422" x2="409.5762" y2="465.6415" gradientTransform="matrix(1 0 0 -1 0 799.8898)">
		<stop  offset="0" style="stop-color:#FFF155;stop-opacity:0.5"/>
		<stop  offset="0.0125" style="stop-color:#FF7715;stop-opacity:0.3"/>
		<stop  offset="1" style="stop-color:#F7F7F7;stop-opacity:0"/>
	</linearGradient>
	<path style="fill:url(#SVGID_00000003086490602435648200000014060396295240560061_);" d="M338.12,319.15
		c0.14-1.37,0.29-2.71,0.4-3.96c0.06-0.7,0.1-1.47-0.32-2.03c-0.3-0.4-0.78-0.61-1.17-0.93c-1.6-1.29-1.23-3.95,0.07-5.55
		c1.29-1.6,3.22-2.54,4.82-3.83c0.45-0.36,0.89-0.78,1.07-1.33c0.16-0.49,0.1-1.02,0.15-1.53c0.17-1.71,1.57-3.04,3.06-3.88
		c1.5-0.84,3.17-1.34,4.59-2.31c3.06-2.09,4.4-5.91,6.9-8.64c4.01-4.37,10.41-5.42,16.31-5.94c6.19-0.54,12.4-0.77,18.61-0.7
		c5.42,0.06,11.5-0.33,16.61,1.72c2.4,0.97,4.71,2.61,5.65,5.02c0.43,1.1,0.45,2.54-0.5,3.24c-0.46,0.33-1.04,0.42-1.6,0.5
		c-2.79,0.38-5.33,0.84-8.13,0.56c-3.03-0.3-6.08-0.55-9.13-0.6c-1.51-0.02-3.15,0.05-4.3,1.02c-0.43,0.36-0.78,0.89-0.74,1.45
		c0.03,0.48,0.34,0.89,0.65,1.25c1.74,2.03,4.09,3.41,6.12,5.16s3.82,4.1,3.79,6.77c-0.02,1.6-0.69,3.11-1.07,4.66
		c-0.34,1.42-0.46,2.92-1.16,4.2c-1.16,2.1-3.65,3.1-6.03,3.44c-9.13,1.31-18.05-4.7-27.23-3.77c-1.2,0.12-2.43,0.38-3.42,1.08
		c-0.8,0.56-1.38,1.38-1.91,2.2c-3.89,6.02-5.7,13.35-5.06,20.49c0.03,0.35,0.06,0.75-0.18,1.02c-0.15,0.17-0.37,0.25-0.59,0.32
		c-4.39,1.41-9.47,0.11-12.8-3.03C337.24,331.11,337.55,324.82,338.12,319.15z"/>
	
		<linearGradient id="SVGID_00000097495936939834231930000013923773615644020640_" gradientUnits="userSpaceOnUse" x1="472.5896" y1="448.6971" x2="444.9042" y2="503.1859" gradientTransform="matrix(1 0 0 -1 0 799.8898)">
		<stop  offset="0" style="stop-color:#947000;stop-opacity:0.5"/>
		<stop  offset="1" style="stop-color:#F7F7F7;stop-opacity:0"/>
	</linearGradient>
	<path style="fill:url(#SVGID_00000097495936939834231930000013923773615644020640_);" d="M429.67,278.56
		c0.99,1.58,0.37,3.68,0.88,5.47c0.88,3.07,4.55,4.2,7.01,6.25c2.56,2.14,3.84,5.4,5.02,8.52c1.35,3.57,2.7,7.13,3.92,10.74
		c0.75,2.19,1.45,4.5,1.15,6.79c-0.4,3.06-2.57,5.98-1.79,8.96c0.18,0.68,0.51,1.32,0.72,1.99c1.13,3.63-1.36,7.52-0.75,11.27
		c0.06,0.35,0.15,0.7,0.34,1c0.59,0.88,1.91,0.92,2.88,0.48c1.51-0.69,2.47-2.22,3.04-3.78s0.84-3.22,1.46-4.76
		c1.15-2.88,3.53-5.24,6.41-6.36c0.98-0.38,2.1-0.69,2.68-1.57c0.77-1.17,0.2-2.71-0.32-4.01c-1.66-4.19-2.62-8.66-2.83-13.17
		c-0.1-2.21,0.01-4.54,1.1-6.46c1.02,0.12,1.88,0.77,2.84,1.12s2.27,0.27,2.71-0.66c0.19-0.39,0.17-0.85,0.1-1.29
		c-0.34-2.27-1.87-4.33-3.94-5.31c-2.06-0.98-4.52-0.92-6.53-2.02c-2.26-1.24-3.73-3.85-6.23-4.48c-1.05-0.27-2.17-0.14-3.22-0.38
		c-4.13-0.95-5.17-6.6-8.72-8.91c-2.33-1.51-6.57-3.27-9.38-3.66C423.71,273.71,428.9,277.31,429.67,278.56z"/>
	<g>
		<g>
			<path d="M340.77,275.99c4.14,2.04,9.01,0.11,13.16-0.91c5.03-1.24,10.17-2.22,15.37-1.9c0.32,0.02,0.32-0.48,0-0.5
				c-4.92-0.3-9.79,0.56-14.55,1.69c-2.29,0.55-4.55,1.23-6.87,1.68c-2.29,0.44-4.71,0.57-6.85-0.49
				C340.73,275.42,340.48,275.85,340.77,275.99L340.77,275.99z"/>
		</g>
	</g>
	<g>
		<g>
			<path d="M424.48,274.88c6.31,2.22,12.69,4.27,19.13,6.07c3.01,0.84,6.05,1.56,9.16,1.86c3.3,0.32,6.63,0.2,9.93-0.14
				c3.66-0.38,7.29-1.03,10.92-1.69c0.32-0.06,0.18-0.54-0.13-0.48c-6.43,1.16-12.95,2.34-19.5,1.91c-3.24-0.21-6.42-0.9-9.55-1.75
				c-3.13-0.85-6.24-1.79-9.34-2.77c-3.51-1.1-7.01-2.27-10.48-3.49C424.31,274.29,424.18,274.78,424.48,274.88L424.48,274.88z"/>
		</g>
	</g>
	<g>
		<g>
			<path d="M383.8,270.35c4.47-1.07,9.09-0.82,13.57,0.01c2.19,0.4,4.35,0.94,6.49,1.52c1.07,0.29,2.14,0.59,3.2,0.9
				c0.94,0.27,2.08,0.51,2.57,1.45c0.07-0.13,0.14-0.25,0.22-0.38c-3.41,0.27-6.84,0.41-10.26,0.41c-0.32,0-0.32,0.5,0,0.5
				c3.43-0.01,6.85-0.14,10.26-0.41c0.19-0.02,0.31-0.2,0.22-0.38c-0.4-0.75-1.13-1.13-1.91-1.39c-1.06-0.36-2.16-0.63-3.24-0.93
				c-2.37-0.66-4.76-1.27-7.18-1.73c-4.65-0.88-9.44-1.17-14.07-0.05C383.36,269.94,383.49,270.43,383.8,270.35L383.8,270.35z"/>
		</g>
	</g>
	<g>
		<g>
			<path d="M363.34,367.58c-9.55-1.33-19.29-1.07-28.75,0.78c-2.73,0.53-5.43,1.2-8.09,1.99c-0.23,0.07-0.25,0.42,0,0.48
				c3.06,0.73,6.2,0.86,9.31,0.4c0.32-0.05,0.18-0.53-0.13-0.48c-3.02,0.45-6.08,0.31-9.05-0.4c0,0.16,0,0.32,0,0.48
				c9.17-2.73,18.78-3.93,28.34-3.52c2.75,0.12,5.5,0.37,8.23,0.75C363.52,368.11,363.66,367.63,363.34,367.58L363.34,367.58z"/>
		</g>
	</g>
	<g>
		<g>
			<path d="M335.95,322.04c-1.91,5.26-1.08,11.09,1.35,16.03c2.54,5.18,6.85,9.22,11.64,12.32c2.82,1.83,5.83,3.35,8.9,4.71
				c0.29,0.13,0.55-0.3,0.25-0.43c-5.21-2.31-10.3-5.1-14.47-9.03c-4.07-3.83-7.09-8.78-7.99-14.35c-0.49-3.06-0.26-6.2,0.8-9.12
				C336.54,321.87,336.05,321.74,335.95,322.04L335.95,322.04z"/>
		</g>
	</g>
	<g>
		<g>
			<path d="M346.26,354.61c4.05,2.94,9.05,3.9,13.87,4.77c0.31,0.06,0.45-0.42,0.13-0.48c-4.78-0.87-9.74-1.8-13.75-4.72
				C346.25,353.99,346,354.42,346.26,354.61L346.26,354.61z"/>
		</g>
	</g>
	<g>
		<g>
			<path d="M441.92,333.96c-0.17,7.12-3.67,14.02-9.33,18.35c-0.25,0.19,0,0.63,0.25,0.43c5.81-4.45,9.4-11.47,9.57-18.79
				C442.43,333.63,441.93,333.63,441.92,333.96L441.92,333.96z"/>
		</g>
	</g>
	<g>
		<g>
			<path d="M437.1,353.56c-0.94,0.71-1.89,1.42-2.83,2.13c-0.11,0.08-0.16,0.22-0.09,0.34c0.06,0.11,0.23,0.17,0.34,0.09
				c0.94-0.71,1.89-1.42,2.83-2.13c0.11-0.08,0.16-0.22,0.09-0.34C437.38,353.54,437.2,353.48,437.1,353.56L437.1,353.56z"/>
		</g>
	</g>
	<g>
		<g>
			<path d="M480.49,375.26c-4.41-0.19-8.92-0.65-13-2.47c-0.91-0.41-1.79-0.87-2.62-1.41c-0.46-0.3-0.91-0.61-1.33-0.95
				c-0.16-0.13-0.35-0.26-0.49-0.41c-0.23-0.17-0.32-0.41-0.26-0.74c0.14-0.06,0.29-0.08,0.44-0.08c2.25-0.22,4.69,0.17,6.88,0.68
				c0.31,0.07,0.45-0.41,0.13-0.48c-2.02-0.47-4.09-0.72-6.17-0.71c-0.53,0-1.5-0.13-1.82,0.45c-0.36,0.65,0.43,1.24,0.85,1.58
				c2.94,2.37,6.58,3.68,10.27,4.34c2.35,0.42,4.74,0.6,7.13,0.7C480.81,375.77,480.81,375.27,480.49,375.26L480.49,375.26z"/>
		</g>
	</g>
	<g>
		<g>
			<path d="M469.58,367.28c1.2,0.34,2.41,0.69,3.61,1.03c0.31,0.09,0.44-0.39,0.13-0.48c-1.2-0.34-2.41-0.69-3.61-1.03
				C469.4,366.7,469.27,367.19,469.58,367.28L469.58,367.28z"/>
		</g>
	</g>
	<g>
		<g>
			<path d="M325.47,381.14c3.57-1.49,7.35-2.31,11.13-3.07c3.9-0.78,7.81-1.48,11.74-2.08c7.83-1.2,15.72-2.03,23.64-2.38
				c7.84-0.34,15.71-0.2,23.53,0.53c7.95,0.74,15.83,2.1,23.63,3.79c8.63,1.87,17.16,4.13,25.69,6.38c0.31,0.08,0.44-0.4,0.13-0.48
				c-15.33-4.06-30.75-8.13-46.55-9.9c-15.73-1.75-31.66-1.07-47.31,1.14c-4.42,0.63-8.82,1.37-13.19,2.23
				c-4.25,0.83-8.54,1.68-12.56,3.35C325.04,380.78,325.17,381.26,325.47,381.14L325.47,381.14z"/>
		</g>
	</g>
	<g>
		<g>
			<path d="M447.73,385.87c2.12,0.6,4.27,1.12,6.45,0.56c1.8-0.46,3.39-1.48,4.94-2.47c1.7-1.08,3.44-2.2,5.44-2.63
				c2.32-0.5,4.75-0.12,6.95,0.7c2.48,0.93,4.71,2.41,6.86,3.93c0.26,0.19,0.51-0.25,0.25-0.43c-3.65-2.57-7.74-5.1-12.38-4.91
				c-2.03,0.08-3.86,0.79-5.6,1.81c-1.68,0.98-3.25,2.16-5.03,2.96c-1.1,0.49-2.27,0.81-3.48,0.8c-1.46-0.01-2.88-0.41-4.28-0.8
				C447.55,385.3,447.42,385.78,447.73,385.87L447.73,385.87z"/>
		</g>
	</g>
	<path class="st27" d="M446.09,386.58c0.15-2.14,0.31-4.28,0.46-6.41c0.2-2.82,0.41-5.66,1.26-8.36c0.96-3.05,2.74-5.85,5.11-8"/>
	<path class="st27" d="M495.64,309.25c-0.28,2.22-0.97,4.39-2.04,6.36c-0.78,1.45-1.77,2.79-2.36,4.32
		c-0.74,1.91-0.84,4.06-0.28,6.03"/>
	<path class="st27" d="M493.14,338.09c0.62,1.34,1.28,2.73,2.41,3.69c0.49,0.42,1.07,0.74,1.52,1.21c0.91,0.95,1.19,2.33,1.42,3.62
		c0.11,0.62,0.19,1.35-0.26,1.79"/>
	<path class="st27" d="M375.01,187.52c-0.73,1.41-0.93,3.02-1.12,4.59c-0.09,0.75-0.18,1.52,0,2.25c0.36,1.46,1.68,2.45,2.92,3.31"
		/>
	<path class="st27" d="M385.61,200.3c16.57,1.82,33.33,1.96,49.93,0.45"/>
	<path class="st27" d="M447.45,199.11c2.65-1.25,5-3.12,6.81-5.41c0.24-0.31,0.46-0.81,0.13-1.04"/>
</g>
</svg>
