<?xml version="1.0" encoding="utf-8"?>
<!-- Generator: Adobe Illustrator 28.0.0, SVG Export Plug-In . SVG Version: 6.00 Build 0)  -->
<svg version="1.1" id="Layer_1" xmlns="http://www.w3.org/2000/svg" xmlns:xlink="http://www.w3.org/1999/xlink" x="0px" y="0px"
	 viewBox="0 0 800 800" style="enable-background:new 0 0 800 800;" xml:space="preserve">
<style type="text/css">
	.st0{fill:#70573A;}
	.st1{fill:#AFAFAF;}
	.st2{fill:url(#SVGID_1_);}
	.st3{fill:url(#SVGID_00000002350044572205443470000002687873200169646265_);}
	.st4{fill:url(#SVGID_00000147919956628348797220000006244206140059438497_);}
	.st5{fill:url(#SVGID_00000023265230711936971360000017142240702587522229_);}
	.st6{fill:url(#SVGID_00000003804858579449475020000003332147049729904565_);}
	.st7{fill:url(#SVGID_00000183939508932872721880000015228928274408331648_);}
	.st8{fill:url(#SVGID_00000103968625416759274870000010222435072562018742_);}
	.st9{fill:#9E7E61;}
	.st10{fill:#939292;}
	.st11{fill:#D8D8D8;}
	.st12{fill:none;stroke:#000000;stroke-width:2;stroke-linecap:round;stroke-linejoin:round;stroke-miterlimit:10;}
	.st13{fill:none;stroke:#000000;stroke-width:0.5;stroke-linecap:round;stroke-linejoin:round;stroke-miterlimit:10;}
</style>
<g id="_x33_-SHOES__x5B_DRUNK_MONSTER_x5D___x2B_">
	<path class="st0" d="M429.72,748.83c1.22-0.54,2.47-1.13,3.34-2.14c2.55-2.95,1.57-7.69,1.22-11.17c-0.08-0.86-0.17-1.73-0.48-2.54
		s-0.87-1.55-1.67-1.89c-0.4-0.17-1.78-0.42-2.08,0.06c-0.2,0.33,0.28,1.6,0.32,2.04c0.15,1.47-0.03,2.97-0.51,4.36
		c-0.69,2-2,3.77-3.69,5.03c-1.52,1.13-3.3,1.84-5.06,2.53c-3.94,1.56-8.14,2.26-12.29,3.11c-6.45,1.33-12.71,3.59-18.51,6.7
		c-2.72-7.05-7.13-13.51-13.04-18.22c-3.66-2.91-7.89-5.12-12.39-6.39c-2.24-0.63-4.56-1.03-6.88-1.15c-1.13-0.06-2.12-0.2-3.25,0
		c-1.28,0.23-2.54,0.53-3.78,0.89c-2.46,0.72-4.85,1.66-7.19,2.71c-5.16,2.31-10.1,5.13-15.37,7.2c-1.9,0.75-3.89,1.42-5.49,2.7
		c-1.6,1.27-2.77,3.32-2.37,5.33c1.38-0.09,2.13-1.58,3.08-2.58c1.41-1.51,3.54-2.07,5.55-2.53c1.35-0.31,2.69-0.6,4.05-0.88
		c1.57-0.32,3.15-0.63,4.75-0.58c3.84,0.12,7.3,2.25,10.45,4.43c2.9,2.01,5.98,3.88,8.11,6.71c2.1,2.78,3.7,5.93,4.69,9.27
		c-11.82,2.04-23.98,3.65-35.76,1.4c-2.4-0.46-4.8-1.09-6.94-2.28c-2.13-1.19-4-3-4.86-5.29c-0.26-0.68-0.7-1.57-1.41-1.4
		c-0.56,0.14-0.72,0.85-0.76,1.43c-0.05,0.66-0.1,1.33-0.15,1.99c-0.11,1.46-0.21,2.99,0.34,4.35c1.05,2.64,4.06,3.82,6.76,4.72
		c2.38,0.79,4.98,2.04,7.46,2.3c2.73,0.3,5.46,0.97,8.16,1.47c2.05,0.38,4.11,0.76,6.19,0.95c3.84,0.34,7.7,0.01,11.53-0.32
		c4.61-0.4,9.23-0.81,13.8-1.52c2.25-0.35,4.5-1.05,6.75-1.31c2.02-0.23,4.04-0.54,6.08-0.8c8.92-1.16,17.66-3.7,25.81-7.51
		c2.24-1.05,4.41-2.16,6.69-3.11c2.52-1.05,5.02-2.13,7.5-3.28c1.25-0.58,2.51-1.12,3.78-1.66
		C424.73,750.92,427.24,749.93,429.72,748.83z"/>
	<path class="st0" d="M544.36,759.6c-0.51-3.11-1.32-6.16-2.42-9.11c-0.49-1.32-1.04-2.62-1.6-3.92c-1.37-3.23-2.66-6.5-4.11-9.69
		c-0.6-1.31-1.27-2.53-1.79-3.92c-0.56-1.5-1.13-3-1.87-4.43c-0.13-0.26-0.28-0.52-0.51-0.68c-0.23-0.17-0.58-0.21-0.8-0.02
		c-0.26,0.23-0.21,0.64-0.13,0.98c0.97,4.21,2.84,8.14,4.53,12.11c0.07,0.17,0.15,0.35,0.12,0.54s-0.19,0.37-0.38,0.33
		c-0.11-0.02-0.2-0.11-0.28-0.19c-1.12-1.2-2.26-2.39-3.53-3.42c-2.09-1.69-4.53-2.94-7.12-3.65c-3.71-1.02-7.6-0.92-11.4-0.61
		c-3.38,0.28-7.16,1.07-10.32,2.36c-3.13,1.28-5.46,3.53-7.63,6.05c-0.13-0.52-0.02-1.19-0.06-1.74c-0.07-0.88-0.06-1.73,0.05-2.61
		c0.2-1.72,0.63-3.41,0.65-5.14c0.01-0.59-0.07-1.25-0.52-1.64c-0.5,0.33-0.73,0.94-0.91,1.52c-1.87,5.67-3.67,11.36-5.46,17.05
		c-1.42,4.5-2.84,9.06-3.21,13.79c-0.18,2.26-0.13,4.47,0.47,6.65c0.64,2.32,1.42,4.6,2.35,6.81c0.44,1.05,0.93,2.1,1.72,2.92
		c0.97,1,2.32,1.53,3.64,1.97c1.58,0.52,3.18,0.93,4.81,1.27c1.52,0.32,2.98,0.92,4.5,1.28c3.22,0.78,6.55,1.11,9.86,0.98
		c2.07-0.08,4.14-0.35,6.21-0.48c1.95-0.12,3.94,0.06,5.85-0.25c1.99-0.33,3.98-0.47,5.95-0.91c2.23-0.51,4.12-1.15,6.05-2.37
		c1.84-1.16,3.55-2.53,5.09-4.07c0.64-0.64,1.26-1.33,1.7-2.12c0.74-1.34,0.93-2.9,1.04-4.42
		C545.14,767.07,544.96,763.3,544.36,759.6z M540.71,772.38c-0.58,0.71-1.3,1.29-2.14,1.61c-0.61,0.23-1.26,0.32-1.9,0.46
		c-4.83,1.01-9.53,2.05-14.49,2.35c-2.79,0.17-5.59,0.18-8.38,0.18c-4.91-0.01-9.94-0.09-14.67-1.58c-1.02-0.32-1.78-0.74-2.66-1.29
		c-0.93-0.57-2.04-0.87-3-1.4c-1.89-1.05-3.58-2.45-4.95-4.13c-0.16-0.2-0.33-0.41-0.39-0.67c-0.07-0.27-0.02-0.55,0.04-0.82
		c0.95-4.33,4.29-7.84,8.18-9.96s8.31-3.03,12.68-3.75c7.43-1.21,15.68-2.14,22.95,0.39c2.46,0.86,4.74,2.64,6.91,4.07
		c1.47,0.97,3,2.05,3.72,3.66c0.77,1.72,0.49,3.7,0.14,5.55c-0.27,1.39-0.57,2.79-1.21,4.05
		C541.31,771.55,541.03,771.98,540.71,772.38z"/>
	<path class="st1" d="M360.51,760.59c-0.48-1.32-1.12-2.54-1.82-3.74c0.03-0.22,0.03-0.44-0.02-0.68c-0.33-1.52-1.19-2.8-2.41-3.7
		c-1.16-1.38-2.5-2.62-3.87-3.73c-2.48-2.01-5.21-3.98-8.11-5.33c-3.03-1.41-6.15-2.03-9.48-1.47c-2.85,0.48-5.87,1.38-8.6,2.6
		c-0.23-0.01-0.47,0.04-0.7,0.21c-0.12,0.09-0.24,0.21-0.36,0.31c-0.34,0.17-0.71,0.32-1.04,0.5c-0.55,0.3-0.81,0.79-0.88,1.3
		c-0.35,0.33-0.71,0.64-1.1,0.89c-0.19,0.11-0.26,0.18-0.22,0.21c-0.21-0.07-0.43-0.12-0.65-0.14c-0.58-0.01-1.08,0.26-1.55,0.55
		c-1.16,0.71-2.23,1.66-3.29,2.51c-0.89,0.71-2.31,1.6-2.82,2.64c-0.84,1.72,1.07,3.97,2.2,5.11c1.81,1.81,4.14,3.08,6.6,3.75
		c5.74,1.57,12.07,1.44,17.98,1.61c1.7,0.05,3.41,0.09,5.11,0.03c1.79-0.05,3.49-0.46,5.27-0.59c1.2-0.09,2.41,0.04,3.61-0.07
		c0.99-0.09,1.96-0.35,2.92-0.61c0.74-0.2,1.48-0.4,2.21-0.59C360.27,761.97,360.82,761.44,360.51,760.59z"/>
	<path class="st1" d="M429.33,729.05c-0.21-0.76-0.43-1.52-0.71-2.26c-0.95-2.55-2.28-4.92-3.67-7.26
		c-0.01-0.18-0.04-0.36-0.12-0.56c-1.06-2.76-3.25-4.66-4-7.59c-0.65-2.52-0.81-5.85-2.4-8.07c0-0.02-0.01-0.05-0.01-0.07
		c-0.29-2.63-0.46-5.26-0.65-7.9c-0.12-1.73,0.12-4.36-1.29-5.67c-0.78-0.73-1.94-0.93-2.93-1.2c-1.33-0.36-2.68-0.7-4.02-1.01
		c-9.98-2.32-20.27-3.34-30.5-2.89c-0.84,0.04-1.42,0.65-1.47,1.47c-0.45,7.07,1.64,14.23,0.46,21.25c-0.53,3.16-1.67,6.02-3.43,8.7
		c-1.56,2.38-3.36,4.6-4.98,6.94c-2.24,1.98-4.79,3.63-7.62,4.9c-1.57,0.71,0.4,2.84,1.3,1.8c0.09-0.04,0.18-0.08,0.27-0.11
		c0.04,0.03,0.08,0.07,0.13,0.09c2.38,1.06,4.95,1.67,7.37,2.55c2,1.08,3.82,2.56,5.53,4.03c1.92,1.65,3.87,3.27,5.68,5.04
		c1.71,1.66,3.31,3.45,4.61,5.45c1.07,1.65,2.32,3.64,2.73,5.66c-0.44,0.54-0.18,1.18,0.33,1.5c0.53,0.84,1.9,0.68,2.26-0.14
		c1.26-0.41,2.43-1.04,3.67-1.57c1.91-0.82,3.84-1.59,5.79-2.29c0.16-0.06,0.32-0.11,0.48-0.17c3.41,0.12,6.93-0.78,10.25-1.88
		c0.09-0.01,0.19-0.02,0.28-0.03c3.61-0.5,7.03-2,10.35-3.44c2.57-1.11,5.16-2.45,6.53-4.95c0.56-0.28,0.98-0.82,0.96-1.63
		C430.47,735.34,431.23,731.05,429.33,729.05z"/>
	<path class="st1" d="M534.71,739c0.1-0.28,0.11-0.6-0.06-0.92c-2.14-3.96-3.57-8.64-4.91-12.94c-0.98-3.16-2.9-7.48-2.18-10.77
		c0.23-1.07,0.56-2.08,0.48-3.19c-0.14-1.86-1.22-3.55-1.63-5.37c-0.55-2.48,0.02-4.97-0.57-7.46c-0.47-1.99,0.11-4.06,0.23-6.1
		c0.06-0.95,0.02-2.01-0.66-2.75c-1.2-1.3-3.35-1.74-5.01-2.03c-2.14-0.38-4.3-0.62-6.45-0.9c-7.9-1.01-16.65-2.37-24.09,1.22
		c-0.83-0.19-1.64,0.55-1.7,1.4c-0.14,1.95,0.63,3.89,1.17,5.72c0.63,2.16,0.94,4.36,1.2,6.59c0.49,4.3,1.33,8.5,2.36,12.71
		c1.01,4.12,2.1,8.23,2.75,12.42c0.19,1.24,0.4,2.5,0.59,3.75c-0.85,1.48-0.88,3.53-0.88,5.5c-0.1,0.37-0.1,0.76,0,1.14
		c0,0.63,0.03,1.32-0.09,1.95c-0.06,0.34-0.46,1.04-0.28,1.35c0.16,0.27,0.52,0.36,0.83,0.3s0.57-0.25,0.83-0.43
		c2.81-1.93,5.82-3.52,8.97-4.8c3.2-1.3,6.66-1.78,10.13-1.83c5.92-0.09,12.93,1.43,17.12,5.9c0.15,0.16,0.32,0.24,0.49,0.29
		c0.21,0.26,0.43,0.51,0.68,0.73c0.44,0.39,1.06-0.02,0.95-0.55C534.91,739.59,534.82,739.29,534.71,739z"/>
	<path class="st1" d="M540.83,759.86c-1.97-2.41-5.25-4.59-8.08-5.82c-6.61-2.88-14.91-1.54-21.79-0.52
		c-7.23,1.07-15.48,2.49-20,8.87c-0.12,0.17-0.17,0.34-0.19,0.51c-0.32,0.34-0.63,0.68-0.93,1.03c-0.15,0.18-0.31,0.37-0.45,0.56
		c-0.12,0.15-0.24,0.31-0.36,0.47c-0.04,0.05-0.07,0.1-0.1,0.15c-0.1,0.19-0.2,0.43-0.17,0.64c0,0.01,0.01,0.01,0.01,0.02
		c-0.19,0.27-0.35,0.57-0.41,0.93c-0.3,1.65,1,2.73,2.19,3.61c0.29,0.21,0.58,0.41,0.87,0.62c0.14,0.15,0.29,0.31,0.46,0.46
		c2.65,2.37,6.63,3.55,9.97,4.55c0.47,0.13,0.87,0.05,1.18-0.15c6.8,1.41,13.69,0.62,20.58,0.02c3.69-0.32,7.43-0.54,11.05-1.43
		c1.52-0.37,3.19-0.75,4.59-1.46c1.5-0.75,2.18-2.07,2.65-3.62C542.89,766.04,543.1,762.64,540.83,759.86z"/>
	
		<linearGradient id="SVGID_1_" gradientUnits="userSpaceOnUse" x1="386.9448" y1="4.758" x2="364.7422" y2="76.5624" gradientTransform="matrix(1 0 0 -1 0 799.8898)">
		<stop  offset="8.887236e-04" style="stop-color:#000000"/>
		<stop  offset="0.998" style="stop-color:#70573A;stop-opacity:0"/>
	</linearGradient>
	<path class="st2" d="M403.12,760.68c2.15-1,4.06-1.97,6.33-2.6c2.22-0.61,4.36-1.45,6.46-2.39c4.12-1.85,8.14-4.14,12.22-5.93
		c1.75-0.77,3.58-1.56,4.78-3.05c2.04-2.54,1.57-6.19,1.01-9.39c-1.57,4.49-5.7,7.58-9.92,9.78c-7.04,3.68-14.79,5.89-21.93,9.33
		c-3.82,1.84-7.66,3.66-11.72,4.89c-4.12,1.25-8.4,1.76-12.63,2.5c-10.42,1.84-20.55,4.1-31.26,3.89
		c-9.66-0.19-19.2-2.05-28.64-4.09c-1.56-0.34-3.34-0.85-3.99-2.31c-0.25-0.57-0.3-1.21-0.52-1.79c-0.22-0.58-0.74-1.14-1.36-1.09
		c-0.92,1.65-0.32,3.83,0.96,5.23s3.09,2.17,4.88,2.81c3.83,1.38,7.79,2.36,11.76,3.24c2.39,0.53,4.79,1.02,7.22,1.25
		c1.96,0.18,3.93,0.2,5.9,0.21c6.93,0.05,13.89,0.09,20.74-0.94c5.23-0.79,10.22-2.15,15.48-2.72c4.32-0.47,8.67-1.03,12.85-2.27
		C395.66,764.07,399.42,762.4,403.12,760.68z"/>
	
		<linearGradient id="SVGID_00000032622330244462907190000009645617372509794695_" gradientUnits="userSpaceOnUse" x1="517.5042" y1="7.4063" x2="515.5815" y2="30.7982" gradientTransform="matrix(1 0 0 -1 0 799.8898)">
		<stop  offset="8.887236e-04" style="stop-color:#000000"/>
		<stop  offset="0.998" style="stop-color:#70573A;stop-opacity:0"/>
	</linearGradient>
	<path style="fill:url(#SVGID_00000032622330244462907190000009645617372509794695_);" d="M544.8,771.19
		c0.08-0.64,0.25-1.55-0.26-2.01c-0.56,1.1-0.95,2.33-1.4,3.48c-0.17,0.43-0.34,0.86-0.61,1.23c-0.28,0.38-0.66,0.69-1.05,0.96
		c-2.61,1.83-5.62,2.75-8.65,3.54c-5.29,1.38-10.69,2.03-16.15,2.27c-5.6,0.25-11.33,0.3-16.83-0.9c-2.44-0.53-4.99-1.25-7.14-2.56
		c-1.2-0.73-2.12-1.68-3.16-2.61c-0.97-0.87-2.01-1.42-2.94-2.37c0.47,1.6,0.94,3.19,1.41,4.79c0.25,0.84,0.5,1.69,1,2.41
		c0.68,0.97,1.74,1.61,2.81,2.12c3.51,1.67,7.72,2.43,11.51,3.2c4.2,0.85,8.48,1.29,12.76,1.16c5.16-0.16,10.3-0.98,15.24-2.45
		c4.23-1.26,9.01-2.77,11.95-6.25c0.94-1.11,1.11-2.16,1.17-3.53C544.52,772.82,544.69,772,544.8,771.19z"/>
	
		<linearGradient id="SVGID_00000075876954093691726550000011334807904944658868_" gradientUnits="userSpaceOnUse" x1="383.4772" y1="20.8177" x2="352.8751" y2="74.0597" gradientTransform="matrix(1 0 0 -1 0 799.8898)">
		<stop  offset="8.887236e-04" style="stop-color:#000000"/>
		<stop  offset="0.998" style="stop-color:#70573A;stop-opacity:0"/>
	</linearGradient>
	<path style="fill:url(#SVGID_00000075876954093691726550000011334807904944658868_);" d="M353.74,749.36
		c3.24,3.03,5.75,6.97,6.5,11.34c0.13,0.79,0.34,1.75,1.11,1.97c0.31,0.09,0.64,0.03,0.95-0.04c4.36-0.88,8.72-1.77,13.08-2.65
		c1.74-0.35,3.48-0.71,5.19-1.19c2.99-0.86,5.85-2.12,8.69-3.38c0.2-0.09,0.4-0.18,0.52-0.37c0.17-0.28,0.06-0.64-0.06-0.95
		c-1.39-3.57-2.87-7.29-5.75-9.82c-3.84-3.38-9.36-3.96-14.47-3.79c-2.5,0.08-4.99,0.31-7.47,0.68c-2.2,0.32-4.42,0.75-6.63,0.47
		c-1.64-0.21-3.2-0.81-4.83-1.09c-2.13-0.37-4.3-0.2-6.45-0.03c-1.11,0.09-4.68,0-2.93,2.01c0.7,0.8,2.15,0.56,3.09,0.78
		C347.65,744.11,351.25,747.04,353.74,749.36z"/>
	
		<linearGradient id="SVGID_00000108994761029303200820000003202749502343810231_" gradientUnits="userSpaceOnUse" x1="559.5137" y1="49.8075" x2="500.6355" y2="60.0276" gradientTransform="matrix(1 0 0 -1 0 799.8898)">
		<stop  offset="8.887236e-04" style="stop-color:#000000"/>
		<stop  offset="0.998" style="stop-color:#70573A;stop-opacity:0"/>
	</linearGradient>
	<path style="fill:url(#SVGID_00000108994761029303200820000003202749502343810231_);" d="M535.53,755.5
		c-8.85-3.88-19.04-3.78-28.45-1.58c0.74-1.04,1.49-2.09,1.98-3.27c0.84-2,0.96-4.35,2.34-6.02c0.39-0.47,0.9-1.09,0.58-1.61
		c-0.17-0.28-0.52-0.38-0.81-0.51c-1.19-0.55-1.82-1.93-1.86-3.24c-0.04-1.31,0.41-2.59,0.85-3.82c0.09-0.26,0.19-0.53,0.4-0.71
		c0.17-0.15,0.4-0.22,0.62-0.28c3.6-0.95,7.4-0.77,11.09-0.25c1.06,0.15,2.12,0.33,3.14,0.65c3.89,1.21,6.88,4.27,9.7,7.21
		c0.41-2.44-0.49-4.82-1.37-7.05c-0.73-1.83-2.57-5-1.37-6.93c-0.12,0.19,2.08,4.04,2.29,4.54c0.67,1.64,1.23,3.33,1.79,5
		c1.13,3.36,2.71,6.4,4.06,9.64c2.32,5.57,3.74,11.51,4.18,17.52c-0.02-0.24-0.93-0.99-1.11-1.24c-0.32-0.44-0.58-0.9-0.81-1.4
		c-0.42-0.93-0.76-1.78-1.42-2.59C539.85,757.71,537.69,756.45,535.53,755.5z"/>
	
		<linearGradient id="SVGID_00000073712182210660970810000010527163823078040222_" gradientUnits="userSpaceOnUse" x1="514.1901" y1="42.0115" x2="516.2703" y2="26.3233" gradientTransform="matrix(1 0 0 -1 0 799.8898)">
		<stop  offset="8.887236e-04" style="stop-color:#000000"/>
		<stop  offset="0.998" style="stop-color:#AFAFAF;stop-opacity:0"/>
	</linearGradient>
	<path style="fill:url(#SVGID_00000073712182210660970810000010527163823078040222_);" d="M493.03,772.63
		c1.2,0.73,2.46,1.36,3.77,1.86c5.59,2.16,11.76,2.07,17.74,1.73c1.99-0.11,3.99-0.25,5.98-0.39c4.81-0.33,9.63-0.67,14.42-1.26
		c1.36-0.17,2.76-0.37,3.92-1.1c1.91-1.2,2.73-3.53,3.41-5.68c0.21-0.66,0.43-1.38,0.55-2.07c0.21-1.18-1.14-1.16-1.55-0.37
		c-0.16,0.31-0.01,0.87-0.13,1.23c-0.17,0.51-0.6,1-1,1.35c-0.65,0.57-1.58,0.9-2.41,0.66c-0.83-0.24-1.51-1.01-2.37-0.98
		c-0.94,0.04-1.54,0.98-2.26,1.58c-1.21,1.01-2.91,1.12-4.49,1.1c-1.1-0.01-2.28-0.1-3.13-0.79c-0.31-0.26-0.58-0.59-0.95-0.75
		c-0.88-0.38-1.79,0.38-2.6,0.9c-1.79,1.15-4.23,1.17-6.05,0.07c-0.26-0.16-0.51-0.34-0.81-0.38c-0.41-0.06-0.81,0.14-1.18,0.33
		c-1.38,0.7-2.84,1.31-4.39,1.39c-1.54,0.08-3.18-0.44-4.14-1.66c-0.23-0.3-0.43-0.64-0.76-0.82c-0.8-0.44-1.71,0.3-2.41,0.88
		c-2.31,1.89-5.64,2.45-8.44,1.41c-0.99-0.37-1.97-0.99-2.38-1.96c-0.52-1.24-0.15-3.01-1.32-3.67c-0.53-0.31-1.27-0.2-1.69,0.25
		C485.95,768.01,491.39,771.62,493.03,772.63z"/>
	
		<linearGradient id="SVGID_00000009574090807118437090000000403440795304129417_" gradientUnits="userSpaceOnUse" x1="339.3985" y1="58.1342" x2="335.3597" y2="35.6832" gradientTransform="matrix(1 0 0 -1 0 799.8898)">
		<stop  offset="8.887236e-04" style="stop-color:#000000"/>
		<stop  offset="0.998" style="stop-color:#AFAFAF;stop-opacity:0"/>
	</linearGradient>
	<path style="fill:url(#SVGID_00000009574090807118437090000000403440795304129417_);" d="M335.82,760.85
		c-1.72,0-3.65-0.32-4.65-1.71c-0.2-0.27-0.36-0.58-0.62-0.79c-0.6-0.48-1.48-0.25-2.22-0.04c-0.99,0.28-2.04,0.48-3.06,0.3
		s-2.01-0.81-2.36-1.78c-1.45,0.47-3.2-0.25-3.89-1.61c-0.14-0.28-0.28-0.6-0.57-0.7c-0.14-0.04-0.29-0.02-0.44-0.03
		c-0.8-0.04-1.3-0.86-1.65-1.59c-0.21-0.44-0.43-0.96-0.22-1.4c-0.84,0.39-1.62,0.89-2.32,1.49c-0.47,0.4-0.93,0.89-1.06,1.5
		c-0.2,0.92,0.4,1.81,1.02,2.51c1.88,2.12,4.34,3.74,7.04,4.62c1.93,0.63,3.97,0.89,5.99,1.1c10.72,1.11,21.58,0.86,32.25-0.72
		c0.27-0.04,0.55-0.09,0.79-0.24c0.67-0.44,0.52-1.56-0.11-2.06c-0.62-0.5-1.49-0.55-2.3-0.52c-1.31,0.05-2.61,0.26-3.87,0.6
		c-0.89,0.24-1.79,0.56-2.71,0.44c-1.38-0.18-2.41-1.27-3.74-1.63c-1.18-0.32-1.85,0.06-2.92,0.52
		C341.55,760.26,338.68,760.84,335.82,760.85z"/>
	
		<linearGradient id="SVGID_00000022525562000452597990000018375798917114548615_" gradientUnits="userSpaceOnUse" x1="401.0886" y1="74.9292" x2="413.1278" y2="52.162" gradientTransform="matrix(1 0 0 -1 0 799.8898)">
		<stop  offset="8.887236e-04" style="stop-color:#000000"/>
		<stop  offset="0.998" style="stop-color:#AFAFAF;stop-opacity:0"/>
	</linearGradient>
	<path style="fill:url(#SVGID_00000022525562000452597990000018375798917114548615_);" d="M395.54,748.98
		c2.39-0.59,4.94-1,6.85-2.54c1.35-1.09,2.27-2.7,2.52-4.41c0.88,1.61,3.11,1.81,4.93,1.58c3.76-0.47,7.35-1.88,10.68-3.67
		c1.75-0.95,3.63-2.28,3.83-4.26c0.05-0.51-0.03-1.07-0.36-1.46c-0.15-0.18-0.35-0.33-0.49-0.52c-0.59-0.83,0.23-1.91,0.91-2.67
		c1.69-1.92,2.77-4.37,3.02-6.92c1.48,2.95,2.44,6.16,2.82,9.44c0.17,1.48,0.22,3.01-0.24,4.42c-0.66,2.02-2.29,3.59-4.14,4.64
		s-3.91,1.63-5.94,2.23c-9.75,2.91-19.26,6.56-28.9,9.82c-0.26,0.09-0.55,0.17-0.8,0.07c-0.22-0.09-0.35-0.31-0.46-0.51
		c-0.71-1.33-1.25-2.53,0.15-3.35C391.53,749.89,393.74,749.43,395.54,748.98z"/>
	<path class="st9" d="M369.78,732.05c-3.78-2.34-9.12-2.76-13.45-2.27c-4.89,0.56-9.06,2.42-13.42,4.58
		c-4.74,2.35-9.75,3.99-14.66,5.95c-2.69,1.07-8.14,2.58-7.58,6.45c0.1,0.67,1.17,0.62,1.3,0c0.47-2.15,2.7-2.65,4.53-3.3
		c1.99-0.7,3.99-1.38,5.98-2.09c5.56-1.99,10.5-5.09,16.51-5.7c2.63-0.27,5.33-0.17,7.86-0.94c2.09-0.64,4-1.85,6.16-2.3
		c2.18-0.46,4.36,0.34,6.54,0.55C370.04,733.02,370.17,732.29,369.78,732.05z"/>
	<path class="st9" d="M358.9,762.2c-1.81-0.55-4.2,0.15-6.07,0.31c-2.19,0.19-4.38,0.33-6.57,0.44c-4.27,0.21-8.54,0.27-12.82,0.2
		c-7.98-0.12-16.26-1.37-21.32-8.21c-0.15-0.2-0.55-0.09-0.44,0.19c2.99,7.58,12.02,9.47,19.28,9.83c4.77,0.24,9.56,0.16,14.32-0.07
		c2.41-0.11,4.82-0.27,7.23-0.48c2.02-0.17,4.78,0.04,6.56-1C359.56,763.12,359.44,762.37,358.9,762.2z"/>
	<path class="st9" d="M423.45,743.29c-9.21,4.44-19.58,5.37-28.94,9.36c-2.49,1.06-4.71,2.48-7.09,3.75
		c-2.42,1.29-5.12,2.25-7.73,3.1c-2.49,0.81-5.05,1.37-7.64,1.75c-2.91,0.44-5.92,0.92-8.85,1.18c-0.3,0.03-0.3,0.45,0,0.46
		c2.87,0.17,5.58,0.33,8.46-0.01c2.67-0.31,5.33-0.82,7.92-1.52c5.39-1.46,9.95-4.74,15.2-6.63c9.71-3.5,20.46-4.74,29.23-10.49
		C424.62,743.86,424.09,742.98,423.45,743.29z"/>
	<path class="st9" d="M493.41,737.18c-2.16,5.12-4.09,10.33-5.63,15.69c-0.75,2.59-1.4,5.22-1.79,7.89
		c-0.35,2.4-0.85,5.07-0.41,7.48c0.08,0.44,0.83,0.45,0.9,0c0.39-2.56,0.28-5.14,0.76-7.71c0.5-2.65,1.18-5.27,1.96-7.85
		c1.57-5.15,3.51-10.13,4.45-15.43C493.68,737.08,493.47,737.03,493.41,737.18z"/>
	<path class="st9" d="M518.49,733.67c-0.92-0.01-1.82,0.08-2.73,0.08c-0.92,0-1.9,0.3-2.79,0.51c-0.67,0.15-1.33,0.32-1.99,0.49
		c-0.11-0.25-0.35-0.42-0.68-0.39c-3.82,0.35-7.56,2.03-10.63,4.3c-1.53,1.13-2.94,2.43-4.18,3.88c-0.6,0.71-1.17,1.44-1.7,2.21
		c-0.47,0.69-1.14,1.52-1.09,2.4c0.01,0.21,0.21,0.32,0.4,0.23c0.68-0.33,1.09-1.09,1.53-1.68c0.22-0.29,0.45-0.57,0.68-0.85
		c0.65-0.57,1.42-0.98,2.23-1.4c1.2-0.63,2.43-1.23,3.52-2.04c1.25-0.93,2.32-2.09,3.61-2.98c1.09-0.76,2.31-1.24,3.48-1.84
		c0.36-0.11,0.73-0.21,1.09-0.31c1.33-0.25,2.65-0.5,3.98-0.75c0.89-0.17,1.86-0.26,2.71-0.58c0.86-0.33,1.75-0.57,2.62-0.89
		C518.74,733.97,518.72,733.67,518.49,733.67z"/>
	<path class="st9" d="M540.67,771.66c-1.19,1.93-3.39,2.52-5.5,2.85c-2.14,0.33-4.3,0.54-6.45,0.83
		c-5.23,0.72-10.49,1.32-15.77,1.49c-4.92,0.17-9.98,0.05-14.67-1.58c-4.1-1.42-7.73-4.11-10.34-7.57c-0.14-0.18-0.49-0.09-0.4,0.17
		c3.34,10.05,16.16,11.31,25.09,11.02c5.78-0.19,11.56-0.84,17.28-1.71c4-0.61,9.3-1.12,11.46-5.1
		C541.61,771.61,540.94,771.22,540.67,771.66z"/>
	<path class="st9" d="M523.32,750.34c-1.62-0.44-3.41-0.47-5.08-0.44c-1.75,0.03-3.51,0.11-5.24,0.34
		c-3.49,0.46-6.9,1.31-10.35,1.95c-0.21,0.04-0.16,0.38,0.05,0.37c3.4-0.14,6.7-0.67,10.06-1.22c1.76-0.29,3.51-0.63,5.29-0.75
		c1.76-0.11,3.48,0.01,5.23,0.04C523.45,750.63,523.48,750.38,523.32,750.34z"/>
	<path class="st9" d="M521.17,747.01c-0.2-0.3-0.45-0.34-0.79-0.38c-0.29-0.03-0.58-0.04-0.87-0.05c-0.53-0.03-1.05-0.07-1.58-0.11
		c-0.52-0.04-1.05-0.11-1.57-0.14c-0.53-0.03-1.08-0.09-1.51,0.27c-0.07,0.06-0.09,0.2-0.04,0.28c0.33,0.46,0.86,0.52,1.39,0.61
		c0.53,0.09,1.08,0.12,1.62,0.17c0.53,0.05,1.05,0.09,1.58,0.13c0.48,0.03,1.35,0.23,1.7-0.19
		C521.22,747.44,521.3,747.19,521.17,747.01z"/>
	<path class="st10" d="M385.8,699.46c-0.19-2.79-0.47-5.59-0.77-8.37c-0.21-1.95-0.05-5.18-1.37-6.74c-0.18-0.21-0.57-0.15-0.7,0.09
		c-0.92,1.8-0.1,4.68,0.07,6.65c0.2,2.36,0.37,4.72,0.51,7.08c0.15,2.54,0.5,5.11,0.35,7.66c-0.14,2.31-0.96,4.52-1.07,6.83
		c-0.1,2.17,0.85,5.77-1.99,6.61c-1.64,0.48-2.39,1.32-3.33,2.74c-2.45,3.72-5.93,6.28-10.2,7.52c-1.16,0.34-0.66,2.17,0.5,1.81
		c3.97-1.24,7.61-3.7,10.15-7.02c0.67-0.87,1.19-2,1.98-2.76c0.68-0.66,1.63-0.89,2.38-1.45c1.53-1.14,1.93-2.99,2.12-4.79
		c0.14-1.3,0.09-2.62,0.32-3.91c0.25-1.37,0.7-2.7,0.93-4.08C386.13,704.76,385.97,702.08,385.8,699.46z"/>
	<path class="st10" d="M343.46,743.28c-5.09,3.46-11.49,4.19-16.61,7.55c-1.32,0.87-2.5,1.98-3.89,2.75
		c-1.53,0.85-3.23,0.66-4.84,1.21c-0.97,0.33-1.84,1-2.23,1.98c-0.3,0.77-0.36,1.73,0.49,2.07c0.14,0.06,0.29-0.06,0.34-0.19
		c0.19-0.56,0.08-1.15,0.39-1.67c0.42-0.72,1.2-1.01,1.96-1.2c1.23-0.3,2.47-0.26,3.65-0.78c1.29-0.57,2.29-1.55,3.46-2.31
		c1.2-0.78,2.54-1.4,3.87-1.93c4.84-1.91,10.12-2.62,14.37-5.83C345.37,744.2,344.49,742.58,343.46,743.28z"/>
	<path class="st10" d="M350.44,747.47c-3.07,0.88-6.08,2.05-9.08,3.16c-2.69,1-5.43,2.07-7.85,3.62c-1.15,0.73-2.17,1.61-3.27,2.41
		c-1.21,0.88-2.3,1.23-3.75,1.52c-0.78,0.15-1.42,0.45-1.72,1.24c-0.16,0.43-0.15,0.91-0.17,1.36c-0.03,0.58-0.19,1.06-0.31,1.62
		c-0.05,0.22,0.16,0.52,0.42,0.42c0.63-0.26,0.76-0.74,0.85-1.4c0.09-0.7-0.06-1.25,0.46-1.79c0.51-0.53,1.14-0.4,1.81-0.53
		c2.44-0.5,4.2-2.61,6.26-3.85c5.13-3.08,11.29-3.93,16.84-6.02C352,748.82,351.59,747.15,350.44,747.47z"/>
	<path class="st10" d="M356.63,753.14c-2.42,0.42-4.93,1.08-7.29,1.76c-0.93,0.27-1.6,0.66-2.27,1.34
		c-1.03,1.04-2.39,1.35-3.78,1.69c-2.3,0.57-4.72,0.84-6.95,1.67c-1.38,0.51-3.46,1.7-3.43,3.41c0.01,0.34,0.4,0.48,0.65,0.27
		c0.76-0.67,1.11-1.56,2.02-2.12c0.95-0.58,2.07-0.86,3.14-1.13c2.09-0.53,4.23-0.88,6.31-1.47c0.86-0.24,1.71-0.51,2.41-1.09
		c0.36-0.3,0.64-0.68,1.06-0.92c0.47-0.27,1.02-0.35,1.54-0.46c2.31-0.51,4.71-0.89,6.98-1.55
		C357.94,754.28,357.54,752.98,356.63,753.14z"/>
	<path class="st10" d="M359.07,758.17c-0.16-0.37-0.52-0.5-0.9-0.44c-1.15,0.18-2.31,0.7-3.41,1.05c-1.17,0.38-2.34,0.75-3.5,1.13
		c-0.94,0.31-2,0.54-2.8,1.15c-0.76,0.58-1.19,1.44-1.43,2.34c-0.12,0.46,0.5,0.71,0.75,0.32c0.48-0.74,0.82-1.61,1.65-2.03
		c0.9-0.46,2.01-0.61,2.98-0.86c1.05-0.27,2.1-0.54,3.14-0.81c1.06-0.28,2.2-0.47,3.21-0.9C359.1,758.97,359.2,758.48,359.07,758.17
		z"/>
	<path class="st10" d="M394.19,702.19c-0.72-2.64-1.81-5.08-2.21-7.82c-0.43-2.93-0.28-5.82,0.03-8.75
		c0.12-1.09-1.71-1.34-1.93-0.26c-0.93,4.69-0.46,9.73,1.02,14.26c0.4,1.23,1.01,2.43,1.3,3.69c0.31,1.34,0.05,2.58-0.33,3.87
		c-0.58,1.9-1.32,3.78-1.11,5.81c0.16,1.54,0.95,3.02-0.27,4.38c-0.84,0.93-2.08,1.5-3.09,2.23c-1.37,0.98-2.63,2.3-2.72,4.07
		c-0.03,0.51,0.12,1.02,0.09,1.53c-0.05,0.9-0.56,1.43-1.19,1.96c-1,0.86-2.1,1.64-3.22,2.33c-2.18,1.35-4.61,2.21-6.78,3.54
		c-0.34,0.21-0.1,0.65,0.25,0.6c2.55-0.38,4.95-1.78,7.12-3.13c1.53-0.95,3.98-2.12,4.81-3.82c0.45-0.93,0.11-1.79,0.16-2.76
		c0.09-1.81,1.75-2.95,3.09-3.86c1.55-1.06,3.37-2.14,3.54-4.21c0.09-1.16-0.33-2.3-0.3-3.46c0.04-1.3,0.57-2.54,1.01-3.73
		C394.27,706.49,394.81,704.47,394.19,702.19z"/>
	<path class="st10" d="M400.78,707.11c-0.08-1.24-0.54-2.33-0.86-3.51c-0.76-2.84,0.22-5.84,0.41-8.7c0.19-2.87,0.02-5.73-0.53-8.56
		c-0.18-0.93-1.8-0.73-1.68,0.23c0.36,2.76,0.55,5.54,0.37,8.33c-0.15,2.46-0.91,4.99-0.61,7.46c0.15,1.19,0.64,2.21,0.99,3.34
		c0.42,1.39,0.39,2.81,0.4,4.25c0.02,2.64-0.12,5.28-0.9,7.83c-0.72,2.34-1.86,4.36-2.25,6.81c-0.44,2.77-1.4,4.58-3.9,6
		c-2.24,1.26-4.7,2.18-7.05,3.22c-2.32,1.03-5.18,1.87-7.19,3.43c-0.47,0.37,0.06,0.98,0.52,0.9c1.33-0.23,2.58-0.95,3.81-1.48
		c1.4-0.61,2.79-1.23,4.19-1.85c2.44-1.08,5.07-2.01,7.33-3.44c1.79-1.14,3.05-2.66,3.53-4.76c0.28-1.23,0.28-2.51,0.58-3.74
		c0.33-1.35,1.03-2.56,1.52-3.85c0.96-2.51,1.15-5.19,1.26-7.85C400.78,709.81,400.87,708.44,400.78,707.11z"/>
	<path class="st10" d="M409.64,726.68c-0.58-6.71-1.9-13.33-2.53-20.04c-0.3-3.24-0.71-6.49-0.69-9.75
		c0.01-1.73,0.12-3.46,0.24-5.19c0.1-1.52,0.39-3.14,0.09-4.65c-0.07-0.37-0.64-0.44-0.81-0.11c-1.14,2.28-0.96,5.51-0.98,7.99
		c-0.03,3.03-0.03,6.07,0.12,9.09c0.3,6.04,1.25,12.12,2.2,18.1c0.47,2.97,1.56,6.49,0.08,9.31c-1.25,2.37-3.61,3.89-5.96,5.03
		c-2.53,1.23-5.17,2.16-7.56,3.67c-2.63,1.66-4.89,3.21-8.12,3.34c-1.17,0.05-1.17,1.87,0,1.81c2.98-0.15,5.39-1.24,7.85-2.85
		c2.52-1.65,5.17-2.79,7.88-4.08C406.37,736.03,410.15,732.48,409.64,726.68z"/>
	<path class="st10" d="M419.62,729.02c-0.84-2.64-1.64-5.29-2.44-7.93c-1.62-5.29-2.61-10.61-3.1-16.12
		c-0.28-3.1-0.48-6.22-0.84-9.31c-0.26-2.25-0.23-5.71-1.82-7.45c-0.12-0.13-0.32-0.06-0.37,0.1c-0.39,1.29,0.06,2.73,0.25,4.04
		c0.27,1.84,0.47,3.7,0.64,5.55c0.3,3.21,0.5,6.43,0.84,9.64c0.66,6.26,2.1,12.3,4.13,18.26c0.96,2.81,3.02,6.74,2.31,9.77
		c-0.77,3.29-4.64,4.21-7.38,5.18c-5.17,1.85-9.95,5.6-13.62,9.63c-0.76,0.84,0.39,1.98,1.24,1.24c1.77-1.55,3.31-3.34,5.14-4.85
		c2.06-1.7,4.32-3.19,6.82-4.14c3.63-1.37,8.6-2.36,9.35-6.94C421.16,733.41,420.3,731.15,419.62,729.02z"/>
	<path class="st10" d="M425.79,731.47c-0.68-2.16-0.09-4.59-0.23-6.83c-0.07-1.16-0.23-2.29-0.49-3.42
		c-0.31-1.3-1.03-2.25-1.46-3.48c-0.03-0.09-0.17-0.05-0.14,0.04c0.33,1.1,0.23,2.44,0.37,3.61c0.13,1.08,0.22,2.17,0.25,3.26
		c0.06,1.98-0.39,4.04,0.07,5.99c0.2,0.86,0.65,1.62,1.03,2.4c0.52,1.06,0.81,2.12,0.88,3.3c0.07,1.05-0.01,2.11-0.24,3.13
		c-0.24,1.07-0.76,1.89-1.2,2.86c-0.43,0.96,0.91,1.8,1.44,0.84c0.93-1.68,1.23-4.11,1.14-6.01
		C427.11,735.15,426.39,733.37,425.79,731.47z"/>
	<path class="st10" d="M501.01,755.36c-2.11,2.59-1.4,6.44-2.44,9.44c-0.29,0.83-0.69,1.63-1.22,2.32c-0.43,0.56-0.86,1-0.91,1.74
		c-0.07,1.02,0.1,2.11,0.22,3.12c0.11,0.92,0.1,2.12,0.61,2.91c0.18,0.28,0.68,0.27,0.75-0.1c0.18-0.88-0.15-1.82-0.27-2.7
		c-0.14-0.99-0.35-2.09-0.29-3.09c0.05-0.79,0.84-1.45,1.2-2.12c0.34-0.62,0.58-1.3,0.78-1.98c0.43-1.46,0.69-2.96,1.02-4.45
		c0.35-1.59,0.92-3.03,1.5-4.54C502.16,755.39,501.36,754.93,501.01,755.36z"/>
	<path class="st10" d="M511.58,753.82c-0.15-0.38-0.79-0.61-1-0.13c-0.4,0.91-0.33,1.96-0.37,2.95c-0.04,1.04-0.06,2.08-0.06,3.12
		c0.02,2.15,0.14,4.31,0.09,6.45c-0.01,0.49,0.01,1.03-0.15,1.5c-0.18,0.54-0.55,0.79-0.84,1.23c-0.41,0.63-0.35,1.32-0.27,2.04
		c0.19,1.75,0.27,4.1,1.3,5.57c0.11,0.15,0.43,0.18,0.46-0.06c0.11-0.79-0.05-1.5-0.18-2.28c-0.17-1.07-0.3-2.14-0.36-3.22
		c-0.04-0.71-0.04-1.19,0.42-1.77c0.17-0.22,0.34-0.44,0.46-0.69c0.34-0.72,0.33-1.53,0.34-2.31c0.03-2.07,0.22-4.16,0.3-6.23
		c0.04-1.04,0.06-2.08,0.06-3.12C511.8,755.88,511.94,754.72,511.58,753.82z"/>
	<path class="st10" d="M526.52,771.95c0.01-1.07-0.04-2.15-0.18-3.21c-0.25-1.93-0.95-3.69-1.85-5.41c-0.99-1.89-1.94-3.67-2.2-5.83
		c-0.19-1.66-0.15-3.64-1.29-4.98c-0.37-0.44-0.94,0.05-0.86,0.5c0.16,1.01,0.43,1.98,0.54,3.01c0.08,0.8,0.14,1.6,0.26,2.39
		c0.29,1.88,1.12,3.49,2.05,5.13c1.06,1.87,1.78,3.6,1.88,5.77c0.09,1.95-0.27,4.13,0.24,6.03c0.22,0.83,1.3,0.56,1.39-0.19
		C526.61,774.12,526.51,773.01,526.52,771.95z"/>
	<path class="st10" d="M539.49,771.95c-0.07-1.03-0.16-2.06-0.28-3.08c-0.23-2.06-0.6-4.09-0.96-6.12
		c-0.31-1.74-0.51-3.31-1.98-4.47s-2.61-2.51-3.73-4c-0.25-0.33-0.84-0.16-0.71,0.3c0.47,1.64,0.98,3.13,2.3,4.29
		c0.53,0.46,1.19,0.81,1.68,1.31c0.72,0.73,0.8,1.81,0.98,2.77c0.35,1.95,0.54,3.94,0.68,5.92c0.07,1.03,0.13,2.05,0.16,3.08
		c0.03,0.92-0.14,1.89,0.33,2.71c0.28,0.49,1.08,0.52,1.35,0C539.76,773.81,539.56,772.88,539.49,771.95z"/>
	<path class="st10" d="M529.98,736.24c-1.24-4.69-3.12-9.28-4.63-13.89c-0.75-2.29-1.57-4.57-2.26-6.88
		c-0.41-1.35-0.4-2.35,0.06-3.7c0.28-0.81,0.44-1.6,0.39-2.46c-0.1-1.7-0.91-3.3-1.63-4.82c-0.99-2.11-1.61-4.08-1.79-6.41
		c-0.3-3.8,0.28-7.72-1.59-11.2c-0.41-0.77-1.78-0.24-1.45,0.61c1.53,3.86,1.11,7.87,1.65,11.89c0.24,1.81,0.8,3.45,1.6,5.08
		c0.99,2.03,2.25,4.09,1.55,6.42c-0.55,1.85-0.8,3.08-0.23,4.99c0.68,2.31,1.52,4.59,2.29,6.87c1.55,4.6,2.79,9.4,4.59,13.9
		C528.89,737.51,530.24,737.2,529.98,736.24z"/>
	<path class="st10" d="M516.5,723.49c-0.1-2.07,0.29-4.18,0.37-6.25c0.08-2.06,0.03-4.12-0.08-6.17c-0.23-3.97-0.9-7.93-1.62-11.84
		c-0.76-4.16-1.3-8.43-2.55-12.48c-0.12-0.38-0.76-0.33-0.73,0.1c0.36,4.11,1.4,8.14,1.95,12.23c0.56,4.09,0.83,8.19,1,12.31
		c0.08,1.95,0.1,3.9,0.06,5.85c-0.04,1.98-0.32,3.97-0.25,5.95c0.14,3.53,2.65,6.41,2.65,9.92c0,0.98,1.5,0.98,1.52,0
		C518.89,729.7,516.66,726.83,516.5,723.49z"/>
	<path class="st10" d="M511.01,722.39c-0.34-1.82-0.88-3.57-1.6-5.26c-0.96-2.26-1.29-4.18-1.41-6.62
		c-0.19-3.99-0.95-7.97-1.71-11.88c-0.42-2.15-0.91-4.28-1.25-6.44c-0.33-2.1-0.44-4.45-1.4-6.37c-0.41-0.82-1.66-0.4-1.67,0.45
		c-0.03,2.03,0.85,4.1,1.44,6.02c0.61,1.99,1.1,4.01,1.61,6.02c1.08,4.25,1.86,8.41,1.9,12.81c0.02,1.81,0.2,3.45,0.87,5.14
		c0.69,1.75,1.41,3.43,1.83,5.27c0.93,4.09,0.78,8.3,1.17,12.45c0.03,0.32,0.45,0.31,0.49,0
		C511.74,730.15,511.73,726.21,511.01,722.39z"/>
	<path class="st10" d="M503.74,730.24c-0.11-2-0.83-4.02-1.33-5.94c-1.06-4.06-2.18-8.11-3.22-12.17
		c-2.15-8.37-3.76-16.78-3.79-25.44c0-1.22-1.93-1.22-1.9,0c0.25,8.42,1.94,16.77,3.88,24.94c0.97,4.08,2.05,8.14,3.09,12.21
		c0.55,2.18,1.37,4.48,1.48,6.73c0.09,1.92-0.83,3.71-0.8,5.63c0.02,1.18,1.81,1.01,1.64-0.22
		C502.52,734.03,503.85,732.23,503.74,730.24z"/>
	<path class="st11" d="M380.25,698.79c-0.24-2.18-0.63-4.35-0.87-6.53c-0.22-1.96-0.78-4.72,0.55-6.37c0.55-0.68,0.04-1.6-0.84-1.45
		c-3.33,0.6-2.12,6.89-1.83,9.07c0.58,4.42,1.67,8.85,0.84,13.32c-0.75,4.02-3,8.1-5.15,11.54c-1.09,1.75-2.41,3.34-3.94,4.71
		c-1.6,1.44-3.43,2.42-5.19,3.62c-0.42,0.29-0.17,1,0.36,0.85c7.34-2.06,11.8-10.31,14.49-16.8
		C380.28,706.83,380.71,703,380.25,698.79z"/>
	<path class="st11" d="M321.63,747.31c-0.34,0.09-0.66,0.31-0.93,0.52c-0.29,0.23-0.6,0.45-0.88,0.69c-0.54,0.47-1.06,0.96-1.6,1.43
		c-0.53,0.45-1.06,0.9-1.59,1.35c-0.28,0.23-0.56,0.44-0.77,0.74c-0.22,0.32-0.47,0.58-0.76,0.85c-0.12,0.11,0.04,0.32,0.18,0.23
		c0.31-0.2,0.61-0.37,0.96-0.5s0.62-0.33,0.91-0.55c0.58-0.42,1.16-0.85,1.73-1.27c0.56-0.41,1.12-0.81,1.69-1.22
		c0.31-0.22,0.6-0.48,0.89-0.72c0.28-0.23,0.58-0.5,0.74-0.82C322.4,747.66,322.07,747.19,321.63,747.31z"/>
	<path class="st11" d="M497.1,726.4c-0.99-4.27-1.75-8.5-2.21-12.87c-0.42-3.99-0.67-8.04-1.45-11.98c-0.42-2.11-1.06-4.2-1.83-6.21
		c-0.5-1.3-1.15-2.67-1.57-4.06c0.07-0.03,0.14-0.08,0.14-0.19c0.02-0.47,0.08-0.92,0.17-1.37c0.04-0.23,0.08-0.46,0.17-0.68
		c-0.03,0.08,0.01-0.02,0.03-0.05c0.03-0.05,0.06-0.11,0.09-0.16c0.01-0.02,0.03-0.05,0.04-0.06c0.03-0.04,0.07-0.08,0.1-0.11
		c0.04-0.04,0.08-0.07,0.12-0.11l0,0c0.01,0,0.01,0,0.02-0.01c0.11-0.07,0.21-0.15,0.32-0.21c0.09-0.05,0.19-0.1,0.29-0.15
		c0.04-0.02,0.08-0.04,0.13-0.06c0.02-0.01,0.06-0.03,0.1-0.04c0.57-0.23,1.15-0.46,1.47-1.02c0.31-0.54-0.2-1.13-0.77-1.01
		c-0.06,0.01-0.12,0.02-0.18,0.03s-0.23,0.08-0.24,0.09c-0.1,0.04-0.2,0.07-0.3,0.11c-0.29,0.11-0.57,0.26-0.85,0.4
		c-0.54,0.28-1.03,0.64-1.29,1.21c-0.22,0.48-0.32,1.03-0.29,1.56c-0.31,3.72,1.2,7.17,1.86,10.81c0.77,4.2,1.28,8.41,1.73,12.65
		c0.42,3.89,0.83,7.8,1.74,11.62c0.51,2.12,1.12,4.22,1.31,6.41c0.21,2.38-0.16,4.69-0.59,7.02c-0.17,0.96,1.1,1.3,1.44,0.4
		C498.26,734.56,498.01,730.3,497.1,726.4z"/>
	<path class="st12" d="M360.96,762.07c-1.13-6.44-5.6-11.92-10.88-15.56c-2.15-1.48-4.4-2.66-6.73-3.81
		c-2.5-1.23-5.74-1.71-8.42-1.03c-3.05,0.78-6.08,1.66-9.07,2.65c-0.43,0.14-0.87,0.29-1.24,0.57c-1.53,1.19-1.64,2.82-3.91,2.88"/>
	<path class="st12" d="M313.29,753.96c0.73-1.24,1.91-2.14,3.06-3.01c1.06-0.8,2.11-1.6,3.17-2.4c0.36-0.28,0.74-0.56,0.97-0.96
		c0.42-0.74,0.14-1.55,0.35-2.32c0.17-0.62,0.73-1.24,1.2-1.67c0.81-0.75,1.83-1.23,2.84-1.68c5.03-2.27,10.19-4.25,15.12-6.73
		c2.64-1.33,5.21-2.8,7.94-3.93c4.93-2.04,10.66-2.49,15.87-1.31c6.16,1.39,11.63,4.99,16.24,9.31c4.47,4.19,8.36,9.3,9.71,15.27"/>
	<path class="st12" d="M488.06,766.99c0.84-3.24,3.84-7.24,7.06-9.24c3.14-1.96,6.78-2.89,10.38-3.61
		c3.91-0.79,7.88-1.31,11.86-1.56c4.21-0.26,8.47-0.21,12.57,0.77s8.07,2.97,10.98,6.15c1.22,1.33,2.47,3.89,2.28,5.72"/>
	<path class="st12" d="M492.7,746.69c1.35-3.81,3.83-6.68,6.58-8.51s5.76-2.72,8.76-3.39c3.5-0.77,7.04-1.26,10.58-1.11
		c6.92,0.29,14.18,3.45,18.53,10.99"/>
	<path class="st12" d="M389.78,754.85c3.53-1.35,7.1-2.54,10.62-3.95c1.08-0.44,2.16-0.89,3.27-1.25c1.22-0.39,2.47-0.65,3.71-0.93
		c3.54-0.8,7.04-1.77,10.51-2.8c3.69-1.09,7.49-2.33,10.34-4.92c0.74-0.67,1.41-1.44,1.87-2.33c1.32-2.53,0.78-5.61,0-8.37"/>
	<path class="st12" d="M430.1,730.19c0.98,0.16,1.91,0.57,2.7,1.17c0.35,0.27,0.69,0.59,0.87,0.99c0.15,0.32,0.2,0.68,0.24,1.03
		c0.33,2.71,0.42,5.48,0.56,8.21c0.08,1.41,0.06,2.93-0.76,4.08c-0.54,0.76-1.36,1.25-2.17,1.71c-8.87,5.11-18.38,9.02-27.85,12.92
		c-3.17,1.3-6.33,2.83-9.5,4.07c-7.11,2.77-15.03,2.76-22.48,4.17c-10.03,1.9-20.22,3.22-30.42,2.75c-5.38-0.25-10.74-1-15.95-2.39
		c-2.62-0.7-5.19-1.57-7.7-2.61c-1.95-0.82-4.57-1.45-5.64-3.49c-0.45-0.86-0.52-1.87-0.57-2.84c-0.07-1.2-0.13-2.4-0.2-3.6
		c-0.03-0.46-0.05-0.94,0.11-1.38c0.3-0.82,1.16-1.1,1.95-1.02"/>
	<path class="st12" d="M312.74,754.17c0.07-0.17,0.29,0.06,0.31,0.24c0.14,1.57,0.98,3.03,2.11,4.13c1.13,1.1,2.54,1.88,3.99,2.5
		c2.47,1.06,5.1,1.68,7.75,2.03c2.4,0.32,4.85,0.28,7.24,0.54c2.59,0.28,5.26,0.25,7.86,0.27c5.25,0.03,13.74-1.28,18.96-1.83"/>
	<path class="st12" d="M537.03,744.24c-1.02-2.17-3.18-8.53-3.54-9.42c-0.67-1.66-3.39-9.45-3.84-10.59c1.36-0.11,2.2,2.56,2.65,3.5
		c2.93,6.07,5.59,12.28,7.95,18.61c2.32,6.21,4.52,12.28,4.62,19.04c0.06,3.97,0.42,8.01-1.66,11.56c-1.26,2.15-2.82,2.76-5.3,4.2
		c-3.49,1.66-2.53,1.21-6.27,2.21c-7.19,1.92-14.71,2.61-22.13,2.06c-3.71-0.28-7.4-0.87-11.01-1.77c-2.8-0.7-7.07-1.39-8.92-3.84
		c-0.52-0.68-0.83-1.5-1.12-2.3c-0.6-1.66-1.16-3.33-1.67-5.02c-0.41-1.37-0.79-2.76-0.91-4.19c-0.09-1.13-0.02-2.26,0.05-3.39
		c0.19-2.98,0.28-5.86,1.02-8.73c2.26-8.79,4.97-17.5,8.13-26.02c0.05-0.14,0.36,0.02,0.5-0.02c-0.08,4.24-0.25,8.11-0.88,12.14"/>
	<path class="st12" d="M543.18,765.22c-0.53,1.84-1.06,5.71-2.4,7.09c-1.41,1.46-3.43,2.17-5.42,2.57
		c-1.66,0.34-3.35,0.49-5.04,0.65c-7.28,0.68-14.58,1.37-21.9,1.17c-3.98-0.11-8.01-0.49-11.71-1.95c-3.7-1.46-7.07-4.12-8.66-7.76"
		/>
	<path class="st13" d="M362.81,762.59c6.09-0.75,12.13-2,18.02-3.73c2.49-0.73,4.98-1.56,7.17-2.94"/>
	<path class="st13" d="M492.16,748.33c-2.39,4.58-3.98,9.56-4.71,14.67c-0.2,1.43-0.52,3.31,0.37,4.59"/>
	<path class="st13" d="M537.78,746.3c1.52,2.54,2.36,5.41,3.19,8.24c0.44,1.5,0.88,3.01,1.32,4.51c0.54,1.84,1.08,3.7,1.19,5.61"/>
	<path class="st13" d="M502.05,751.88c7.18-2.21,14.83-2.86,22.28-1.91"/>
	<path class="st13" d="M514.97,746.59c2.31-0.09,4.63,0.02,6.92,0.32"/>
	<path class="st13" d="M350.25,742.73c4.52,2.42,8.44,5.95,11.31,10.2"/>
	<path class="st13" d="M360.41,747.67c1.56,1.68,2.94,3.53,4.1,5.51"/>
	<path class="st12" d="M359.57,729.29c1.93-0.72,3.83-2.03,5.56-3.15c3.05-1.97,5.47-4.76,7.84-7.51c1.33-1.55,2.68-3.12,3.56-4.97
		c0.74-1.56,1.12-3.26,1.42-4.95c0.77-4.25,0.73-8.59,0.38-12.88c-0.17-2.15-0.57-4.27-0.79-6.41c-0.08-0.8-0.03-1.54-0.15-2.33
		c-0.12-0.79-0.19-1.68,0.5-2.24c0.36-0.29,0.84-0.39,1.29-0.46c4.19-0.69,8.47-0.32,12.7,0.11c8.28,0.85,16.59,1.96,24.51,4.5
		c0.26,0.08,0.52,0.17,0.73,0.34c0.68,0.55,0.56,1.83,0.64,2.62c0.11,1.21,0.14,2.42,0.24,3.63c0.22,2.44,0.54,4.87,1,7.28
		c0.91,4.79,2.36,9.51,4.61,13.85c2.45,4.72,5.74,9.17,6.64,14.41"/>
	<path class="st12" d="M495.6,730.11c-0.27-6.58-3.02-13.42-3.85-21.43c-0.59-5.7-1.24-11.54-3.24-17.48
		c-0.22-0.67-0.14-2.18,0.11-2.84c0.25-0.69,2.88-1.26,3.55-1.56c5.36-2.37,8.34-1.32,14.2-1.06c2.42,0.11,4.84,0.24,7.26,0.38
		c2.31,0.14,4.63,0.3,6.88,0.84c1.72,0.41,4.72,1.09,5.45,2.91c0.3,0.75,0.02,1.55,0.04,2.36c0.04,1.68-0.09,3.72-0.05,5.4
		c0.04,1.75,0.11,2.87-0.01,4.62c-0.09,1.35,0,1.9,0.35,3.21c0.31,1.14,1.19,3.27,1.49,4.41c0.48,1.79-0.21,3.33-0.27,5.19
		c-0.1,3.09,1.35,5.73,2.16,9.17"/>
	<path class="st11" d="M354.75,725.11c-0.35,2.98-3.22,4.18-3.22,4.18s2.87,1.2,3.22,4.18c0.35-2.98,3.22-4.18,3.22-4.18
		S355.1,728.09,354.75,725.11z"/>
	<path class="st11" d="M406.12,746.54c-0.25,2.14-2.32,3.01-2.32,3.01s2.07,0.86,2.32,3.01c0.25-2.14,2.32-3.01,2.32-3.01
		S406.37,748.69,406.12,746.54z"/>
	<path class="st11" d="M500.15,735.13c-0.25,2.14-2.32,3.01-2.32,3.01s2.07,0.86,2.32,3.01c0.25-2.14,2.32-3.01,2.32-3.01
		S500.4,737.27,500.15,735.13z"/>
	<path class="st11" d="M523.24,747.6c-0.17,1.42-1.53,1.99-1.53,1.99s1.37,0.57,1.53,1.99c0.17-1.42,1.53-1.99,1.53-1.99
		S523.4,749.02,523.24,747.6z"/>
</g>
</svg>
