<?xml version="1.0" encoding="utf-8"?>
<!-- Generator: Adobe Illustrator 28.0.0, SVG Export Plug-In . SVG Version: 6.00 Build 0)  -->
<svg version="1.1" id="Layer_1" xmlns="http://www.w3.org/2000/svg" xmlns:xlink="http://www.w3.org/1999/xlink" x="0px" y="0px"
	 viewBox="0 0 800 800" style="enable-background:new 0 0 800 800;" xml:space="preserve">
<style type="text/css">
	.st0{fill:#FBEBD1;}
	.st1{fill:url(#SVGID_1_);}
	.st2{fill:url(#SVGID_00000018941980427485440880000000713140910115124357_);}
	.st3{fill:url(#SVGID_00000125603070323944760850000000784282278219727000_);}
	.st4{fill:url(#SVGID_00000082341723192052551280000017729829068801327801_);}
	.st5{fill:url(#SVGID_00000014596269188841215600000013157369224128457140_);}
	.st6{fill:url(#SVGID_00000001638508056001797530000009381862795443269297_);}
	.st7{fill:url(#SVGID_00000114786970344311917540000015108687763345689511_);}
	.st8{fill:url(#SVGID_00000035524794755282566240000011053703789540961179_);}
	.st9{fill:#FDFDFF;}
	.st10{fill:#C6C8C7;}
	.st11{fill:#7D7D7D;}
	.st12{fill:url(#SVGID_00000054241972605127599060000002119697448276853917_);}
	.st13{fill:url(#SVGID_00000091705780645343766240000003897716616163724959_);}
	.st14{fill:url(#SVGID_00000102522874963810263950000004523026359301710722_);}
	.st15{fill:url(#SVGID_00000044879634452040855400000007392716627314999981_);}
	.st16{fill:url(#SVGID_00000156549911297336295010000011019217488600206773_);}
	.st17{fill:url(#SVGID_00000031888644297540800450000005278496127801730197_);}
	.st18{fill:url(#SVGID_00000137837174069645086980000014695145399860417168_);}
	.st19{fill:url(#SVGID_00000072251271593520565400000014150503386617887678_);}
	.st20{fill:url(#SVGID_00000085946325474172322760000000220133498212999581_);}
	.st21{fill:#E9E9E9;}
	.st22{fill:none;stroke:#000000;stroke-miterlimit:10;}
	.st23{fill:none;stroke:#000000;stroke-width:2;stroke-linecap:round;stroke-linejoin:round;stroke-miterlimit:10;}
	.st24{fill:none;stroke:#000000;stroke-width:0.5;stroke-linecap:round;stroke-linejoin:round;stroke-miterlimit:10;}
	.st25{fill:none;stroke:#000000;stroke-width:0.25;stroke-linecap:round;stroke-linejoin:round;stroke-miterlimit:10;}
	.st26{fill:#4D8EB2;}
</style>
<g id="_x30_-HAND_x2B_WP__x5B_MONSTER_x5D__x2B_">
	<path class="st0" d="M201.24,155.84c-1.45,0.66-2.36,2.56-1.87,4.04c0.25,0.75,0.71,1.42,1.16,2.07c1.49,2.15,3.09,4.35,5.37,5.64
		c0.33,0.19,0.69,0.36,1.07,0.34c0.48-2.32,0.67-4.38,0.71-6.75c0.02-1.46,0.21-3.8-1.24-4.69
		C205.34,155.8,202.39,155.32,201.24,155.84z"/>
	<path class="st0" d="M263,204.05c-0.1-0.63-0.18-1.27-0.22-1.91c-0.08-1.11,0.07-2.04,0.2-3.11c0.36-3.02,0.71-6.08,0.39-9.13
		c-0.71-6.82-4.63-12.81-7.76-18.92c-0.52-1-1.02-2.03-1.26-3.13c-0.52-2.32,0.08-4.95-1.2-6.95c-0.79-1.24-2.28-2.01-3.75-1.94
		c-2.58,0.12-4.82,2.76-4.99,5.21c-0.06,0.88,0.12,1.77,0.29,2.63c0.58,2.84,1.18,5.71,2.4,8.34c0.85,1.82,2.02,3.7,1.67,5.68
		c-0.12,0.65-0.39,1.26-0.58,1.9c-0.31,1.07-0.35,2.2-0.39,3.32c-0.29,8.07-0.58,16.15-0.87,24.22c-0.09,2.51-0.44,5.46-2.63,6.68
		c-1.13,0.63-2.5,0.62-3.74,1.02c-1.13,0.36-2.11,1.06-3.18,1.58c-1.72,0.84-3.61,0.68-5.32,1.5c-0.21,0.1-0.44,0.25-0.43,0.48
		c0.01,0.14,0.11,0.26,0.22,0.36c0.77,0.7,1.64,0.84,2.63,0.9c1.77,0.1,2.5,1.03,3.93,1.74c1.56,0.78,3.75-0.08,5.11-0.92
		c1.66-1.03,3-2.5,4.44-3.83c2.55-2.37,5.45-4.34,8.39-6.2c1.48-0.93,2.97-1.84,4.45-2.77c1.23-0.77,2.88-1.36,2.9-3.04
		c0.01-0.68-0.19-1.35-0.36-2.01C263.21,205.2,263.1,204.62,263,204.05z"/>
	<path class="st0" d="M198.94,178c-0.63,1.47-0.85,3.19-0.23,4.66c0.32,0.76,0.85,1.43,1.04,2.24c0.34,1.4-0.41,2.86-0.2,4.29
		c0.33,2.27,2.93,3.66,3.33,5.91c0.23,1.31-0.34,2.64-0.29,3.97c0.06,1.53,0.93,2.9,1.86,4.11c0.98,1.28,2.05,2.48,3.22,3.58
		c0.27-1.44,0.53-2.87,0.8-4.31c0.07-0.35,0.13-0.71,0.31-1.02c0.26-0.45,0.71-0.74,1.15-1.03c1.17-0.79,2.31-1.68,3.07-2.88
		c0.76-1.19,1.09-2.73,0.57-4.04c-0.67-1.68-2.78-2.62-4.48-1.99c-0.22-0.95-0.74-1.83-1.47-2.47c1.45-1.57,2.95-3.22,3.5-5.28
		s-0.2-4.64-2.18-5.43c1.52-1.34,3.09-2.77,3.77-4.67c0.68-1.91,0.08-4.43-1.79-5.2c-1.49-0.62-3.19,0.05-4.59,0.86
		C202.82,171.34,200.54,174.29,198.94,178z"/>
	
		<linearGradient id="SVGID_1_" gradientUnits="userSpaceOnUse" x1="196.2459" y1="632.8652" x2="216.6667" y2="618.869" gradientTransform="matrix(1 0 0 -1 0 799.8898)">
		<stop  offset="0" style="stop-color:#000000"/>
		<stop  offset="0.0117" style="stop-color:#050504;stop-opacity:0.9883"/>
		<stop  offset="0.1745" style="stop-color:#45413A;stop-opacity:0.8255"/>
		<stop  offset="0.3351" style="stop-color:#7D7568;stop-opacity:0.6649"/>
		<stop  offset="0.4895" style="stop-color:#AA9F8D;stop-opacity:0.5105"/>
		<stop  offset="0.6366" style="stop-color:#CDC0AB;stop-opacity:0.3634"/>
		<stop  offset="0.7744" style="stop-color:#E6D8C0;stop-opacity:0.2256"/>
		<stop  offset="0.8993" style="stop-color:#F6E6CD;stop-opacity:0.1007"/>
		<stop  offset="1" style="stop-color:#FBEBD1;stop-opacity:0"/>
	</linearGradient>
	<path class="st1" d="M212.67,171.78c-0.67-0.58-1.68,0.72-2.24,1.36c-1.72,1.99-3.44,3.97-5.16,5.96c-0.12,0.14-0.25,0.33-0.17,0.5
		c1.26-0.1,2.35-1.21,3.61-1.03c1.3,0.19,2.11-1.01,2.82-2.04c0.63-0.91,1.9-2.81,1.56-3.98
		C212.97,172.16,212.83,171.91,212.67,171.78z"/>
	<g>
		
			<linearGradient id="SVGID_00000052823154642510295040000011997167174863298197_" gradientUnits="userSpaceOnUse" x1="206.1914" y1="608.685" x2="206.22" y2="608.685" gradientTransform="matrix(1 0 0 -1 0 799.8898)">
			<stop  offset="0" style="stop-color:#000000"/>
			<stop  offset="0.0117" style="stop-color:#050504"/>
			<stop  offset="0.1745" style="stop-color:#45413A"/>
			<stop  offset="0.3351" style="stop-color:#7D7568"/>
			<stop  offset="0.4895" style="stop-color:#AA9F8D"/>
			<stop  offset="0.6366" style="stop-color:#CDC0AB"/>
			<stop  offset="0.7744" style="stop-color:#E6D8C0"/>
			<stop  offset="0.8993" style="stop-color:#F6E6CD"/>
			<stop  offset="1" style="stop-color:#FBEBD1"/>
		</linearGradient>
		<path style="fill:url(#SVGID_00000052823154642510295040000011997167174863298197_);" d="M206.2,191.18
			c-0.02,0.06,0,0.06,0.02,0.03c0-0.01,0-0.02,0.01-0.02C206.21,191.19,206.21,191.18,206.2,191.18z"/>
		
			<linearGradient id="SVGID_00000024714516793072670550000008018803739922055601_" gradientUnits="userSpaceOnUse" x1="199.5098" y1="618.6175" x2="216.833" y2="608.2925" gradientTransform="matrix(1 0 0 -1 0 799.8898)">
			<stop  offset="0" style="stop-color:#000000"/>
			<stop  offset="0.0117" style="stop-color:#050504;stop-opacity:0.9883"/>
			<stop  offset="0.1745" style="stop-color:#45413A;stop-opacity:0.8255"/>
			<stop  offset="0.3351" style="stop-color:#7D7568;stop-opacity:0.6649"/>
			<stop  offset="0.4895" style="stop-color:#AA9F8D;stop-opacity:0.5105"/>
			<stop  offset="0.6366" style="stop-color:#CDC0AB;stop-opacity:0.3634"/>
			<stop  offset="0.7744" style="stop-color:#E6D8C0;stop-opacity:0.2256"/>
			<stop  offset="0.8993" style="stop-color:#F6E6CD;stop-opacity:0.1007"/>
			<stop  offset="1" style="stop-color:#FBEBD1;stop-opacity:0"/>
		</linearGradient>
		<path style="fill:url(#SVGID_00000024714516793072670550000008018803739922055601_);" d="M211.12,180.71
			c-0.1-0.17-0.23-0.28-0.38-0.3c-0.26-0.03-0.38,0.3-0.42,0.56c-0.44,2.45-2.53,4.21-4.04,6.19c-0.9,1.19-1.64,2.69-1.23,4.13
			c1.19,4.21,5.67-1.33,2.97-1.53c0.84-1.31,1.73-2.6,2.52-3.94c0.45-0.76,0.82-1.61,0.98-2.48
			C211.59,182.94,211.53,181.38,211.12,180.71z"/>
		
			<linearGradient id="SVGID_00000023960091070765552300000000346866997582815638_" gradientUnits="userSpaceOnUse" x1="206.206" y1="608.7398" x2="206.2356" y2="608.7398" gradientTransform="matrix(1 0 0 -1 0 799.8898)">
			<stop  offset="0" style="stop-color:#000000"/>
			<stop  offset="0.0117" style="stop-color:#050504"/>
			<stop  offset="0.1745" style="stop-color:#45413A"/>
			<stop  offset="0.3351" style="stop-color:#7D7568"/>
			<stop  offset="0.4895" style="stop-color:#AA9F8D"/>
			<stop  offset="0.6366" style="stop-color:#CDC0AB"/>
			<stop  offset="0.7744" style="stop-color:#E6D8C0"/>
			<stop  offset="0.8993" style="stop-color:#F6E6CD"/>
			<stop  offset="1" style="stop-color:#FBEBD1"/>
		</linearGradient>
		<path style="fill:url(#SVGID_00000023960091070765552300000000346866997582815638_);" d="M206.24,191.13c0,0-0.01,0-0.02-0.01
			c0,0.01-0.01,0.02-0.01,0.03c0.01,0.02,0.01,0.02,0.02,0.03C206.23,191.17,206.23,191.15,206.24,191.13z"/>
	</g>
	
		<linearGradient id="SVGID_00000181060603566726135690000000775851646255977626_" gradientUnits="userSpaceOnUse" x1="200.3488" y1="605.8514" x2="217.5573" y2="595.1821" gradientTransform="matrix(1 0 0 -1 0 799.8898)">
		<stop  offset="0" style="stop-color:#000000"/>
		<stop  offset="0.0117" style="stop-color:#050504;stop-opacity:0.9883"/>
		<stop  offset="0.1745" style="stop-color:#45413A;stop-opacity:0.8255"/>
		<stop  offset="0.3351" style="stop-color:#7D7568;stop-opacity:0.6649"/>
		<stop  offset="0.4895" style="stop-color:#AA9F8D;stop-opacity:0.5105"/>
		<stop  offset="0.6366" style="stop-color:#CDC0AB;stop-opacity:0.3634"/>
		<stop  offset="0.7744" style="stop-color:#E6D8C0;stop-opacity:0.2256"/>
		<stop  offset="0.8993" style="stop-color:#F6E6CD;stop-opacity:0.1007"/>
		<stop  offset="1" style="stop-color:#FBEBD1;stop-opacity:0"/>
	</linearGradient>
	<path style="fill:url(#SVGID_00000181060603566726135690000000775851646255977626_);" d="M213.08,194.11
		c-0.11-0.19-0.45-0.17-0.49,0.06c-0.19,1.08-1.12,2.09-1.89,2.81c-0.9,0.83-1.82,1.62-2.82,2.33c-0.97,0.7-1.97,1.5-2.27,2.71
		c-0.35,1.41,0.18,3.16,1.38,3.99c0.67,0.46,1.63-0.15,1.61-0.92c-0.02-0.67-0.31-1.19-0.51-1.81c-0.14-0.42-0.16-0.77,0.09-1.14
		c0.28-0.41,0.71-0.72,1.1-1.02c0.46-0.36,0.92-0.73,1.36-1.12C212.23,198.6,214.33,196.38,213.08,194.11z"/>
	
		<linearGradient id="SVGID_00000051367371418485987680000013016540555939830659_" gradientUnits="userSpaceOnUse" x1="210.4452" y1="643.9034" x2="198.3992" y2="630.825" gradientTransform="matrix(1 0 0 -1 0 799.8898)">
		<stop  offset="0" style="stop-color:#000000"/>
		<stop  offset="0.0117" style="stop-color:#050504;stop-opacity:0.9883"/>
		<stop  offset="0.1745" style="stop-color:#45413A;stop-opacity:0.8255"/>
		<stop  offset="0.3351" style="stop-color:#7D7568;stop-opacity:0.6649"/>
		<stop  offset="0.4895" style="stop-color:#AA9F8D;stop-opacity:0.5105"/>
		<stop  offset="0.6366" style="stop-color:#CDC0AB;stop-opacity:0.3634"/>
		<stop  offset="0.7744" style="stop-color:#E6D8C0;stop-opacity:0.2256"/>
		<stop  offset="0.8993" style="stop-color:#F6E6CD;stop-opacity:0.1007"/>
		<stop  offset="1" style="stop-color:#FBEBD1;stop-opacity:0"/>
	</linearGradient>
	<path style="fill:url(#SVGID_00000051367371418485987680000013016540555939830659_);" d="M207.27,164.7
		c-0.18-0.38-0.41-0.73-0.66-1.06c-0.58-0.76-1.28-1.46-2.12-1.93c-0.69-0.39-1.44-0.68-2.16-1.03c-0.34-0.17-2.09-1.22-2.39-1.08
		c-0.61,0.29-0.2,1.36,0.05,1.74c0.66,0.98,6.42,8.96,7.68,5.25C207.89,165.94,207.54,165.25,207.27,164.7z"/>
	
		<linearGradient id="SVGID_00000047756144303812977970000016621177416027462290_" gradientUnits="userSpaceOnUse" x1="261.1547" y1="619.2544" x2="238.4396" y2="618.4514" gradientTransform="matrix(1 0 0 -1 0 799.8898)">
		<stop  offset="0" style="stop-color:#000000"/>
		<stop  offset="0.0117" style="stop-color:#050504;stop-opacity:0.9883"/>
		<stop  offset="0.1745" style="stop-color:#45413A;stop-opacity:0.8255"/>
		<stop  offset="0.3351" style="stop-color:#7D7568;stop-opacity:0.6649"/>
		<stop  offset="0.4895" style="stop-color:#AA9F8D;stop-opacity:0.5105"/>
		<stop  offset="0.6366" style="stop-color:#CDC0AB;stop-opacity:0.3634"/>
		<stop  offset="0.7744" style="stop-color:#E6D8C0;stop-opacity:0.2256"/>
		<stop  offset="0.8993" style="stop-color:#F6E6CD;stop-opacity:0.1007"/>
		<stop  offset="1" style="stop-color:#FBEBD1;stop-opacity:0"/>
	</linearGradient>
	<path style="fill:url(#SVGID_00000047756144303812977970000016621177416027462290_);" d="M250.53,179.97
		c-0.34-2.15-1.28-4.2-2.2-6.15c-0.51-1.07-1.05-2.12-1.59-3.17c-0.27-0.52-0.51-1.06-0.81-1.57c-0.28-0.48-0.75-0.95-0.99-1.43
		c-0.02-0.04-0.08-0.01-0.08,0.03c0.18,1.08,0.15,1.97,0.53,3.05c0.39,1.11,0.83,2.21,1.26,3.31c0.82,2.08,1.54,4.19,1.79,6.42
		c0.52,4.68-2.25,9.02-1.41,13.74c0.15,0.81,1.28,0.53,1.34-0.18C248.8,189.22,251.32,184.92,250.53,179.97z"/>
	
		<linearGradient id="SVGID_00000124120079419805313630000008668903912541367469_" gradientUnits="userSpaceOnUse" x1="232.2224" y1="591.2974" x2="248.1531" y2="571.1586" gradientTransform="matrix(1 0 0 -1 0 799.8898)">
		<stop  offset="0" style="stop-color:#000000"/>
		<stop  offset="0.0117" style="stop-color:#050504;stop-opacity:0.9883"/>
		<stop  offset="0.1745" style="stop-color:#45413A;stop-opacity:0.8255"/>
		<stop  offset="0.3351" style="stop-color:#7D7568;stop-opacity:0.6649"/>
		<stop  offset="0.4895" style="stop-color:#AA9F8D;stop-opacity:0.5105"/>
		<stop  offset="0.6366" style="stop-color:#CDC0AB;stop-opacity:0.3634"/>
		<stop  offset="0.7744" style="stop-color:#E6D8C0;stop-opacity:0.2256"/>
		<stop  offset="0.8993" style="stop-color:#F6E6CD;stop-opacity:0.1007"/>
		<stop  offset="1" style="stop-color:#FBEBD1;stop-opacity:0"/>
	</linearGradient>
	<path style="fill:url(#SVGID_00000124120079419805313630000008668903912541367469_);" d="M246.77,214.93
		c-0.31,0.14-0.56,0.47-0.81,0.74c-0.67,0.69-1.45,1.06-2.32,1.45c-1.18,0.52-2.31,1.12-3.48,1.68c-1.09,0.53-2.21,0.99-3.39,1.27
		c-0.57,0.14-1.14,0.23-1.73,0.25c-0.69,0.03-1.49-0.19-2.07,0.25c-0.43,0.33-0.78,0.98-0.39,1.5c0.33,0.44,0.61,0.67,1.18,0.74
		c1.16,0.15,2.35-0.02,3.43,0.48c0.93,0.44,1.69,1.29,2.77,1.34s1.98-0.78,2.74-1.55c1.7-1.72,3.39-3.45,5.09-5.17
		c0.13-0.13,0.25-0.26,0.33-0.42c0.1-0.2,0.11-0.42,0.12-0.64c0.01-0.64-0.11-1.34-0.6-1.75
		C247.29,214.84,247.01,214.82,246.77,214.93z"/>
	<path class="st9" d="M247.3,181.53c-0.01-0.82,0-1.64,0.06-2.48c0.04-0.5,0.08-1.01,0.01-1.51c-0.06-0.41-0.19-0.81-0.32-1.21
		c-0.71-2.16-1.41-4.33-2.12-6.49c-0.57-1.73-0.45-3.13-0.47-4.94s0.56-3.34,2.07-4.42c0.31-0.22,0.65-0.41,0.87-0.71
		c0.32-0.44,0.33-1.02,0.32-1.57c-0.03-2.76-0.05-5.52-0.08-8.28c-0.02-1.8-0.04-3.62-0.48-5.36c-0.45-1.74-1.37-3.43-2.85-4.45
		c-1.25-0.85-2.38-0.32-3.67,0.08c-1.55,0.47-3.14,0.8-4.74,1.02c-3.06,0.42-6.16,0.44-9.24,0.3c-2.85-0.13-5.69-0.47-8.51-0.94
		c-1.39-0.23-2.76-0.54-4.13-0.72c-0.36-1.06-0.82-1.93-1.84-2.51c-0.83-0.47-1.93,0.31-1.64,1.26c0.13,0.44,0.11,0.83,0,1.2
		c-0.11,0.01-0.22,0.02-0.33,0.04c-1.1,0.18-1.25,1.22-0.83,1.98c-0.01,0.02-0.02,0.03-0.03,0.05c-0.59,0.9-1.03,1.82-1.27,2.87
		c-0.52,2.3-0.52,4.78-0.66,7.13c-0.3,5.2-0.32,10.41-0.16,15.62c0.03,0.79,0.71,1.24,1.45,1.11c1.52-0.28,2.95,0.5,3.94,1.62
		c0.29,0.33,0.67,0.89,0.93,1.48c-0.02,0.05-0.06,0.1-0.08,0.16c-0.26,0.98-0.66,1.91-1.14,2.79c-0.03,0.05-0.07,0.1-0.1,0.15
		c-0.04,0.06-0.06,0.13-0.09,0.2c-0.55,0.94-1.22,1.82-1.99,2.6c-0.52,0.54-0.5,1.62,0.25,1.98c2.52,1.18,0.94,4.47-0.14,6.09
		c-0.97,1.46-3.7,4.2-1.75,5.91c0.8,0.7,1.81,0.44,2.74,0.75c1.35,0.45,2.14,1.81,2.21,3.17c0.17,3.14-2.49,4.8-4.75,6.33
		c-1.77,1.19-0.85,5.67-0.75,7.46c0.1,1.77,0.08,3.62,1.12,5.14c1.04,1.51,2.7,2.49,4.25,3.39c0.88,0.51,1.77,1.02,2.65,1.54
		c0.68,0.39,1.36,0.79,2.09,1.09c1.41,0.58,2.95,0.78,4.47,0.97c3.26,0.41,6.59,0.32,9.83-0.19c2.6-0.4,7.2-0.9,8.77-3.26
		c0.87-1.31,2.6-0.73,3.93-1.57c2.65-1.67,1.79-3.94,1.71-6.44c-0.11-3.16,0.06-6.32,0.02-9.48c-0.02-1.5-0.04-2.99,0.04-4.49
		c0.15-2.6,0.62-5.17,0.73-7.77C247.72,185.97,247.32,183.78,247.3,181.53z"/>
	<path class="st10" d="M223.39,146.96c-0.62-0.07-1.21,0.02-1.68,0.43c-0.27,0.24-0.51,0.58-0.87,0.61
		c-0.24,0.02-0.47-0.11-0.68-0.24c-0.74-0.45-1.49-0.9-2.33-1.09c-0.83-0.19-3.74,0.22-2.36,1.61c0.41,0.41,1.93,1.08,1.56,1.89
		c-0.17,0.37-0.73,0.27-1.05,0.22c-0.47-0.07-1.27-0.41-1.73-0.36c-1.4,0.15,0.55,5.32,0.7,6.24c0.3,1.9,0.08,3.99,0.01,5.9
		c-0.01,0.35-0.03,0.69-0.1,1.03c-0.11,0.5-0.36,0.96-0.54,1.44c-0.73,1.88-0.09,4.17,0.33,6.05c0.37,1.68,0.74,3.35,1.12,5.03
		c0.41-1.51,0.2-3.07,0.61-4.6c0.2-0.72,0.47-1.46,0.36-2.2c-0.07-0.48-0.31-0.92-0.39-1.4c-0.07-0.46-0.01-0.92,0.01-1.38
		c0.04-0.98-0.15-1.96-0.05-2.93c0.12-1.17,0.65-2.25,0.98-3.37c0.25-0.85,0.34-1.73,0.14-2.6c-0.16-0.68-0.65-1.53-0.48-2.24
		c0.09-0.38,0.39-0.68,0.5-1.06c0.05-0.17,0.07-0.3,0.19-0.43c0.85,0.69,1.06,2.71,1.09,3.75c0.03,0.88-0.36,1.64-0.41,2.47
		c-0.06,1.02,0.46,2.06,0.47,3.09c0.03,1.51-0.67,2.93-1.01,4.41c-0.74,3.18,0.34,6.11,0.7,9.23c0.26,2.27,0.24,4.69,1.42,6.64
		c0.35-2.44,0.7-4.89,1.05-7.33c0.13-0.94,0.27-1.91-0.01-2.81c-0.09-0.3-0.23-0.58-0.31-0.88c-0.18-0.65,0.02-1.14,0.1-1.76
		c0.09-0.65-0.11-1.16-0.2-1.8c-0.06-0.41-0.01-0.83,0.04-1.24c0.26-2.08,0.81-4.13,1.01-6.21c0.18-1.8,0.67-3.58,0.39-5.4
		c-0.28-1.82-0.03-3.78-0.04-5.64c0-0.39,0.12-0.9,0.51-0.9c0.18,0,0.33,0.14,0.45,0.27c0.88,0.99,1.13,2.37,1.31,3.68
		c0.26,1.86,0.45,3.73,0.64,5.59c0.1,1,0.2,2.04-0.07,3.01c-0.08,0.31-0.21,0.6-0.24,0.92c-0.04,0.39,0.07,0.78,0.16,1.16
		c0.37,1.53,0.58,3.13,0.25,4.67c-0.24,1.12-0.76,2.16-1.02,3.28c-0.46,2,0.05,3.98,0.27,5.97c0.22,2.05,0.69,4.21,0.69,6.27
		c0.21,1.93,0.49,4.01,1.81,5.43c0.77-2.53,0.23-5.31,0.93-7.87c0.32-1.19,0.91-2.47,0.41-3.59c-0.13-0.3-0.33-0.56-0.45-0.86
		c-0.14-0.36-0.15-0.75-0.15-1.13c-0.01-1.84,0.12-3.69,0.39-5.51c0.41-2.76,0.17-5.49,0.95-8.24c0.4-1.42,0.91-2.92,0.46-4.32
		c-0.11-0.35-0.28-0.68-0.38-1.03c-0.27-1-0.02-2.21,0.14-3.21c0.11-0.69,0.78-2.82,0.43-3.43c1.68,2.96,2.41,6.44,2.07,9.82
		c-0.06,0.55-0.14,1.09-0.11,1.64c0.05,0.9,0.39,1.77,0.38,2.67c-0.02,1.21-0.68,2.31-1.06,3.46c-0.96,2.94-0.02,6.11,0.34,9.18
		c0.29,2.45,0.26,5.12,1.76,7.08c0.37-2.47,0.73-4.94,1.1-7.41c0.11-0.73,0.21-1.51-0.09-2.19c-0.13-0.29-0.34-0.57-0.36-0.89
		c-0.01-0.3,0.14-0.57,0.24-0.84c0.43-1.1,0.19-2.34,0.05-3.52c-0.29-2.4-0.1-4.86,0.53-7.19c0.21-0.75,0.46-1.5,0.51-2.28
		c0.03-0.53-0.03-1.06-0.07-1.58c-0.12-1.72,0.05-3.45,0.21-5.16c0.99,1.24,1.32,2.89,1.39,4.49c0.07,1.59-0.09,3.19,0.07,4.77
		c0.05,0.53,0.14,1.06,0.07,1.59c-0.07,0.53-0.3,1.02-0.46,1.53c-0.22,0.73-0.26,1.5-0.28,2.26c-0.05,3.18,0.53,6.37,1.7,9.33
		c-0.65-1.8-0.4-3.89,0.65-5.49c0.2-0.31,0.44-0.63,0.42-0.99c-0.01-0.2-0.1-0.39-0.18-0.58c-0.39-0.93-0.48-1.96-0.45-2.97
		c0.05-1.75,0.46-3.46,0.66-5.19c0.13-1.14,0.18-2.3,0.23-3.45c0.06-1.5,0.12-3,0.18-4.5c0.02-0.51,0.04-1.04-0.19-1.49
		c-0.48-0.95-1.75-1.09-2.74-1.47c-0.19-0.07-0.39-0.17-0.49-0.35c-0.08-0.14-0.09-0.32-0.16-0.47c-0.14-0.33-0.52-0.49-0.85-0.61
		c-1.08-0.39-2.15-0.78-3.23-1.17c-0.48-0.17-0.99-0.35-1.49-0.23c-0.34,0.08-0.62,0.3-0.95,0.43c-1.17,0.48-2.46-0.22-3.58-0.8
		C224.7,147.3,224.04,147.04,223.39,146.96z"/>
	<path class="st11" d="M239.6,217.75c-1.91,0.02-3.93,0.68-5.83,0.93c-2,0.26-3.99,0.55-6,0.67c-1.94,0.12-3.89,0.1-5.82-0.09
		c-1.04-0.11-2.11-0.19-3.13-0.39c-0.99-0.2-1.94-0.54-2.93-0.72c-1.1-0.2-1.32,1.13-0.63,1.53l-0.03,0.03
		c1.72,0.9,3.94,1.38,5.86,1.64c2.14,0.28,4.3,0.36,6.45,0.26c2.13-0.1,4.27-0.34,6.36-0.77c1.96-0.4,4.3-0.75,6.08-1.65
		C240.68,218.83,240.34,217.74,239.6,217.75z"/>
	<path class="st11" d="M244.22,136.68c-1.33-1.37-3.75-1.29-5.51-1.44c-4.53-0.39-9.05-0.7-13.58-1.01
		c0.01-0.08,0.05-0.14,0.05-0.23c0.09-0.83-0.73-1.36-1.44-1.44c-1.25-0.13-2.79-0.47-3.94-0.36c-1.66,0.16-3.62,0.23-5.23,0.67
		c-0.06,0.02-0.12,0.03-0.16,0.08c-0.05,0.06-0.06,0.14-0.05,0.22c0.02,0.41,0.18,0.81,0.45,1.12c0.11,0.12,0.24,0.26,0.23,0.42
		c-0.04,0.46-1.05,0.37-1.36,0.43c-1.16,0.21-2.04,0.83-2.84,1.69c-0.1,0.11-0.2,0.23-0.25,0.37c-0.04,0.11-0.04,0.22-0.04,0.34
		c-0.01,0.57-0.01,1.14-0.02,1.71c0,0.21,0,0.43,0.13,0.59c0.14,0.18,0.37,0.23,0.59,0.28c3.24,0.65,6.35,1.38,9.66,1.56
		c2.59,0.14,5.18,0.22,7.77,0.23c4.69,0.02,9.48-0.13,13.96-1.63c0.12-0.04,0.23-0.09,0.33-0.15c0.1-0.02,0.21-0.04,0.31-0.07
		C244.76,139.54,245.38,137.87,244.22,136.68z"/>
	
		<linearGradient id="SVGID_00000173840389333559459620000000909544675849528746_" gradientUnits="userSpaceOnUse" x1="210.0082" y1="662.8096" x2="238.6977" y2="662.8096" gradientTransform="matrix(1 0 0 -1 0 799.8898)">
		<stop  offset="0" style="stop-color:#FFFFFF"/>
		<stop  offset="0.9965" style="stop-color:#FFFFFF;stop-opacity:0"/>
	</linearGradient>
	<path style="fill:url(#SVGID_00000173840389333559459620000000909544675849528746_);" d="M237.36,140.38
		c-0.17,0.02-0.35,0.06-0.52,0.09c-3.94,0.7-8,0.75-11.96,0.14c0.9-0.13,1.8-0.26,2.7-0.39c0.48-0.07,0.97-0.15,1.38-0.41
		c0.16-0.1,0.3-0.31,0.18-0.46c-0.24,0.01-0.48,0.02-0.72,0.03c0.23-0.08,0.39-0.29,0.39-0.54c0-0.42-0.24-0.83-0.51-1.14
		c-0.25-0.29-0.59-0.5-0.94-0.65c-0.36-0.15-0.78-0.17-1.16-0.14c-0.25,0.02-0.5,0.07-0.74,0.16c0.06-0.15,0.13-0.31,0.15-0.49
		c0.04-0.44-0.06-0.87-0.04-1.31c0-0.05-0.06-0.07-0.1-0.04c-0.27,0.28-0.36,0.65-0.44,1.02c-0.07,0.35-0.17,0.64-0.5,0.82
		c-0.33,0.17-0.76,0.3-1.14,0.41c-0.22,0.06-0.44,0.12-0.67,0.15c-0.2,0.02-0.49,0-0.7,0.09c-0.26,0.11-0.37,0.4-0.16,0.62
		c0.4,0.44,1.19,0.28,1.69,0.1c0.47-0.16,0.97-0.35,1.36-0.65c0.09-0.07,0.14-0.16,0.21-0.24c0.28,0.11,0.6,0.14,0.9,0.18
		c0.15,0.02,0.3,0.06,0.45,0.1c0.19,0.06,0.23,0.08,0.39,0.15c0.12,0.06,0.24,0.13,0.35,0.21c-0.04-0.03-0.05-0.04,0,0
		c0.03,0.02,0.06,0.05,0.08,0.07c0.05,0.05,0.09,0.1,0.14,0.15c0,0.01,0,0,0.01,0.01l0,0c0.02,0.03,0.04,0.06,0.06,0.09
		s0.03,0.05,0.04,0.08c0,0.01,0.01,0.03,0.02,0.05c0.01,0.01,0.01,0.03,0.01,0.04c0.01,0.03,0.02,0.07,0.03,0.11
		c0.02,0.07,0.03,0.14,0.05,0.22c0.06,0.2,0.21,0.34,0.4,0.4c-1.39,0.04-2.8-0.03-4.13-0.39c-0.82-0.22-1.78-0.13-2.63-0.16
		c-0.5-0.02-1-0.04-1.51-0.06c-0.34-0.01-1.09,0.1-1.39-0.06c-0.1-0.05-0.2-0.1-0.34-0.13c-1.25-0.23-2.5-0.46-3.75-0.69
		c-0.69-0.13-1.36-0.27-2.03-0.32c0.22-0.06,0.44-0.15,0.63-0.28c0.21-0.14,0.37-0.27,0.63-0.29c0.57-0.05,1.11-0.14,1.59-0.47
		c0.12-0.09,0.25-0.2,0.34-0.32c0.08-0.07,0.17-0.13,0.24-0.21c0.02,0.06,0.02,0.12,0.05,0.18c0.11,0.25,0.28,0.45,0.44,0.66
		c0.17,0.21,0.33,0.39,0.55,0.55c0.23,0.17,0.47,0.24,0.75,0.26c0.35,0.03,0.61-0.43,0.41-0.72c-0.12-0.17-0.24-0.32-0.37-0.48
		c0.04,0.05,0.01,0.01-0.01-0.02c-0.05-0.07-0.1-0.14-0.16-0.2c-0.06-0.07-0.12-0.14-0.19-0.21c-0.06-0.07-0.12-0.14-0.18-0.21
		c-0.01-0.01-0.08-0.1-0.05-0.06c0.04,0.05-0.05-0.08-0.05-0.09c-0.01-0.01-0.01-0.03-0.02-0.04l0,0c0,0,0,0,0.01,0.02
		c0-0.02-0.01-0.04-0.01-0.05c0-0.09,0-0.18,0-0.27c0-0.16,0-0.31,0.01-0.47c0-0.04,0.01-0.09,0.01-0.13c0-0.01,0-0.01,0-0.02
		c0.01-0.05,0.02-0.09,0.03-0.14c0.04-0.05,0.09-0.09,0.13-0.13c0.1-0.08,0.21-0.16,0.35-0.25s0.29-0.18,0.44-0.27
		c0.31-0.18,0.49-0.24,0.85-0.34c0.08-0.02,0.16-0.03,0.24-0.05c0.04-0.01,0.04-0.01-0.01,0c0.02,0,0.04,0,0.05-0.01
		c0.04,0,0.07-0.01,0.11-0.01c0.09-0.01,0.18-0.01,0.27-0.02c0.14-0.02,0.25-0.07,0.37-0.13c0.02-0.01,0.04-0.04,0.06-0.05
		c0.8-0.03,1.61-0.05,2.41-0.05c0.47,0,0.94,0.02,1.41,0.05c0.49,0.03,1.04,0.19,1.51,0.04c0.65-0.2,0.71-1.01,0.18-1.38
		c-0.49-0.34-1.29-0.31-1.87-0.35c-0.62-0.04-1.23-0.06-1.85-0.05c-1.18,0.02-2.38,0.06-3.55,0.19c-0.94,0.1-2.54,0.31-2.94,1.33
		c-0.23,0.59-0.01,1.26,0.36,1.8l0,0c-0.21,0.02-0.38,0.06-0.55,0.2c-0.11,0.09-0.2,0.19-0.31,0.27c-0.19,0.14-0.38,0.23-0.61,0.28
		c-0.53,0.13-1.08,0.1-1.62,0.2c-0.5,0.09-0.99,0.32-1.42,0.62c-0.26,0-0.49,0.22-0.46,0.47c-0.14,0.26-0.19,0.56-0.04,0.83
		l-0.01,0.01c-0.06,0.09-0.1,0.18-0.14,0.28c-0.03,0.07-0.02,0.15,0.02,0.22c-0.51,0.54-0.48,1.6,0.46,1.89
		c0.66,0.21,1.32,0.36,1.98,0.47c4.1,0.98,8.21,1.71,12.46,1.88c2.46,0.1,4.93,0.03,7.38-0.25c1.02-0.11,2.11-0.11,3.11-0.31
		c1.02-0.21,2.12-0.92,2.97-1.5C238.27,140.3,237.81,140.32,237.36,140.38z"/>
	
		<linearGradient id="SVGID_00000043424091636325699670000004399978238736052107_" gradientUnits="userSpaceOnUse" x1="225.4864" y1="662.6605" x2="244.4597" y2="662.6605" gradientTransform="matrix(1 0 0 -1 0 799.8898)">
		<stop  offset="0" style="stop-color:#FFFFFF"/>
		<stop  offset="0.9965" style="stop-color:#FFFFFF;stop-opacity:0"/>
	</linearGradient>
	<path style="fill:url(#SVGID_00000043424091636325699670000004399978238736052107_);" d="M243.81,136.96
		c0.1-0.29,0.04-0.6-0.33-0.78c-2.64-1.23-5.99-1.35-8.85-1.25c-1.52,0.05-3.04,0.19-4.56,0.2c-1.47,0.01-2.89-0.17-4.35-0.33
		c-0.16-0.02-0.3,0.21-0.2,0.34c0.72,0.97,2.32,1.14,3.43,1.29c1.52,0.2,3.04,0.17,4.57,0.15c1.57-0.02,3.14-0.08,4.71,0.05
		c1.54,0.13,2.99,0.57,4.49,0.84c-0.04,0.02-0.07,0.04-0.11,0.05c-0.37,0.12-0.77,0.17-1.16,0.23c-1.06,0.16-2.13,0.29-3.19,0.4
		c-1.03,0.12-2.06,0.27-3.09,0.42c-0.9,0.14-2.09,0.11-2.9,0.55c-0.16,0.08-0.09,0.28,0.04,0.34c0.49,0.21,1.11,0.17,1.64,0.18
		c0.61,0.01,1.21,0.02,1.82,0.02c1.14,0,2.27-0.09,3.4-0.2c1.05-0.11,2.14-0.18,3.18-0.38c0.87-0.17,1.78-0.54,2.08-1.43
		C244.57,137.29,244.19,136.94,243.81,136.96z"/>
	
		<linearGradient id="SVGID_00000160186210086947859510000003337244301377681564_" gradientUnits="userSpaceOnUse" x1="218.4184" y1="665.1171" x2="223.0396" y2="665.1171" gradientTransform="matrix(1 0 0 -1 0 799.8898)">
		<stop  offset="0" style="stop-color:#FFFFFF"/>
		<stop  offset="0.9965" style="stop-color:#FFFFFF;stop-opacity:0"/>
	</linearGradient>
	<path style="fill:url(#SVGID_00000160186210086947859510000003337244301377681564_);" d="M223.02,134.99
		c-0.21-0.53-0.6-0.89-1.12-1.09c-0.53-0.21-1.13-0.18-1.68-0.08c-0.5,0.08-1.06,0.21-1.42,0.6c-0.32,0.35-0.57,0.93-0.19,1.33
		c0.08,0.08,0.25,0.07,0.3-0.04c0.13-0.26,0.26-0.51,0.53-0.64c0.3-0.15,0.64-0.21,0.95-0.24c0.37-0.04,0.74-0.08,1.1,0.03
		c0.02,0.01,0.12,0.04,0.05,0.01c0.03,0.01,0.07,0.03,0.1,0.05c0.04,0.02,0.08,0.04,0.12,0.07c0.01,0.01,0.08,0.06,0.06,0.04
		c-0.03-0.02,0.07,0.07,0.07,0.07c0.02,0.03,0.05,0.05,0.07,0.08c-0.05-0.06,0.08,0.17,0.05,0.09c0.1,0.26,0.35,0.45,0.64,0.37
		C222.9,135.56,223.12,135.25,223.02,134.99z"/>
	
		<linearGradient id="SVGID_00000004537419812302471340000010661005349462528952_" gradientUnits="userSpaceOnUse" x1="215.5198" y1="580.181" x2="233.6866" y2="580.181" gradientTransform="matrix(1 0 0 -1 0 799.8898)">
		<stop  offset="0" style="stop-color:#FFFFFF"/>
		<stop  offset="0.9965" style="stop-color:#FFFFFF;stop-opacity:0"/>
	</linearGradient>
	<path style="fill:url(#SVGID_00000004537419812302471340000010661005349462528952_);" d="M233.2,219.9
		c-0.78-0.03-1.56,0.13-2.35,0.15c-0.76,0.01-1.52-0.01-2.28,0.01c-1.07,0-2.14,0.07-3.21,0.05c-0.43-0.01-0.81,0.04-1.24-0.03
		c-0.52-0.09-1.04-0.19-1.57-0.28c-1.11-0.2-2.23-0.4-3.28-0.84c-1-0.42-1.88-1.04-3.04-0.91c-0.29,0.03-0.84,0.31-0.71,0.65
		c0.13,0.32,0.93,0.67,1.23,0.82c0.88,0.46,1.83,0.75,2.78,1.01c1.45,0.4,2.94,0.66,4.44,0.78c1.53,0.12,3.06,0.07,4.59,0.03
		c0.81-0.02,1.63-0.07,2.44-0.13c0.76-0.06,1.6-0.06,2.32-0.35C233.82,220.66,233.78,219.93,233.2,219.9z"/>
	
		<linearGradient id="SVGID_00000067934886526976493400000007289125886053695662_" gradientUnits="userSpaceOnUse" x1="213.7074" y1="638.9289" x2="219.007" y2="638.9289" gradientTransform="matrix(1 0 0 -1 0 799.8898)">
		<stop  offset="0" style="stop-color:#1F1D1D"/>
		<stop  offset="0.998" style="stop-color:#C6C8C7"/>
	</linearGradient>
	<path style="fill:url(#SVGID_00000067934886526976493400000007289125886053695662_);" d="M216.45,147.29
		c-0.01-0.05-0.03-0.09-0.09-0.12c-0.27-0.12-0.55-0.17-0.84-0.08c-0.34,0.11-0.47,0.53-0.21,0.8c0.36,0.37,0.83,0.62,1.19,0.99
		c0.26,0.27,0.9,0.77,0.93,1.17c0.04,0.5-0.59,0.77-0.99,0.79c-0.61,0.03-1.21-0.3-1.74-0.55c-0.62-0.3-1.2,0.3-0.91,0.91
		c0.82,1.75,0.7,3.8,0.75,5.69c0.02,1.01,0.04,2.01,0.09,3.02c0.04,0.95,0.19,1.96-0.01,2.9c-0.18,0.86-0.52,1.69-0.57,2.57
		c-0.05,0.95,0.21,1.93,0.35,2.87c0.3,2.06,0.37,4.2,0.78,6.24c0.13,0.62,1.03,0.44,1.06-0.14c0.11-2.06-0.28-4.24-0.6-6.27
		c-0.12-0.75-0.31-1.53-0.37-2.31c0.12-0.09,0.2-0.22,0.15-0.4c-0.22-0.79,0.78-1.54,0.69-2.4c-0.05-0.48-0.32-0.64-0.1-1.1
		c0.17-0.36,0.32-0.6,0.29-1.02c-0.03-0.45-0.26-0.84-0.36-1.27c-0.02-0.08-0.02-0.15-0.02-0.22c0-0.14,0-0.28,0-0.42
		c0.04-0.38,0.16-0.76,0.24-1.14c0.09-0.43,0.15-0.88,0.03-1.31c-0.05-0.2-0.2-0.37-0.24-0.56c-0.09-0.34,0.05-0.62,0.14-0.93
		c0.12-0.4,0.05-0.76-0.08-1.14c-0.08-0.24-0.28-0.6-0.15-0.87c0.13-0.26,0.52-0.39,0.77-0.5c0.85-0.37,1.7-0.75,2.15-1.62
		C219.66,149.14,217.86,147.93,216.45,147.29z"/>
	
		<linearGradient id="SVGID_00000121255067401909700460000009899903003560367009_" gradientUnits="userSpaceOnUse" x1="217.6624" y1="631.9245" x2="220.3715" y2="631.9245" gradientTransform="matrix(1 0 0 -1 0 799.8898)">
		<stop  offset="0" style="stop-color:#1F1D1D"/>
		<stop  offset="0.998" style="stop-color:#C6C8C7"/>
	</linearGradient>
	<path style="fill:url(#SVGID_00000121255067401909700460000009899903003560367009_);" d="M219.25,169.69
		c-0.04-0.71-0.09-1.46,0.06-2.16c0.13-0.62,0.47-1.16,0.7-1.75c0.45-1.19,0.18-2.58,0.05-3.81c-0.07-0.62-0.15-1.25-0.26-1.86
		c-0.05-0.25-0.12-0.51-0.16-0.76c0.01-0.01,0.01,0,0.02-0.01c0.08-0.04,0.15-0.09,0.22-0.15c0.75-0.62,0.55-1.61,0.11-2.35
		c-0.35-0.59-0.61-1.13-0.82-1.79c-0.09-0.28-0.16-0.56-0.26-0.83c-0.13-0.37-0.43-0.68-0.51-1.06c-0.02-0.09-0.17-0.07-0.16,0.02
		c0.02,0.35-0.16,0.67-0.19,1.01c-0.03,0.28,0.01,0.58,0.05,0.85c0.07,0.52,0.23,1.04,0.43,1.53c0.15,0.37,0.76,1.2,0.5,1.49
		c-0.11,0.12-0.41,0.16-0.56,0.29c-0.13,0.12-0.23,0.29-0.29,0.45c-0.16,0.44,0.05,0.96,0.13,1.39c0.14,0.74,0.23,1.48,0.29,2.22
		c0.05,0.61,0.13,1.22,0.13,1.83c0,0.77-0.3,1.3-0.6,1.99c-0.48,1.09-0.5,2.27-0.46,3.45c0.05,1.4,0.2,2.79,0.36,4.18
		c0.32,2.78,0.67,5.57,1.04,8.35c0.1,0.8,1.26,0.85,1.29,0c0.09-2.79-0.4-5.59-0.73-8.35C219.46,172.48,219.32,171.09,219.25,169.69
		z"/>
	
		<linearGradient id="SVGID_00000017507982329769347240000002247751234809910714_" gradientUnits="userSpaceOnUse" x1="222.3446" y1="631.0159" x2="227.4708" y2="631.0159" gradientTransform="matrix(1 0 0 -1 0 799.8898)">
		<stop  offset="0" style="stop-color:#1F1D1D"/>
		<stop  offset="0.998" style="stop-color:#C6C8C7"/>
	</linearGradient>
	<path style="fill:url(#SVGID_00000017507982329769347240000002247751234809910714_);" d="M227.37,187.87
		c-0.34-0.53-0.15-1.14-0.08-1.73c0.07-0.54,0.08-1.05-0.07-1.57c-0.18-0.62-0.48-1.14-0.56-1.8c-0.07-0.59-0.04-1.2-0.07-1.79
		c-0.04-0.57-0.11-1.14-0.31-1.67c-0.15-0.4-0.29-0.63-0.24-1.08c0.03-0.26,0.1-0.5,0.09-0.76c0-0.29-0.1-0.62-0.22-0.95
		c0.06-0.11,0.11-0.24,0.1-0.42c-0.1-1.47-0.42-3.09-0.28-4.56c0.06-0.65,0.45-1.06,0.67-1.65c0.08-0.21,0.14-0.43,0.13-0.66
		c0-0.28-0.19-0.58-0.11-0.84c0.06-0.18,0.34-0.39,0.43-0.58c0.1-0.22,0.16-0.45,0.18-0.69c0.03-0.54-0.15-1.06-0.29-1.57
		c-0.17-0.62-0.12-1.15-0.09-1.78c0.01-0.31,0.01-0.62-0.06-0.92c-0.06-0.24-0.18-0.45-0.28-0.67c0.16-0.23,0.33-0.43,0.39-0.75
		c0.07-0.41,0.03-0.86-0.01-1.27c-0.05-0.55-0.14-1.1-0.24-1.64c-0.04-0.22-0.09-0.41-0.06-0.63c0.03-0.2,0.17-0.4,0.2-0.61
		c0.16-1.01-0.28-2.19-0.49-3.16c-0.14-0.67-0.28-1.33-0.43-2c0.02-0.08,0.04-0.15,0.03-0.24c0.04,0,0.09-0.02,0.16-0.08
		c0.43-0.21,0.51-0.9,0.16-1.21c-0.99-0.88-2.08-1.72-3.47-1.61c-0.2,0.01-0.26,0.25-0.1,0.37c0.48,0.33,0.97,0.64,1.4,1.01
		c-0.04,0.09-0.06,0.19-0.06,0.3c0.01,0.34,0.06,0.65,0.15,0.95c0.16,0.99,0.35,1.97,0.56,2.96c0.13,0.64,0.26,1.28,0.41,1.92
		c0.13,0.56-0.06,0.84-0.1,1.37c-0.04,0.54,0.22,1.1,0.32,1.63c0.08,0.45,0.31,1.34,0.1,1.79c-0.18,0.4-0.48,0.53-0.41,1.04
		c0.08,0.55,0.41,0.86,0.37,1.45c-0.03,0.49-0.11,0.97-0.04,1.47c0.07,0.48,0.26,0.93,0.34,1.41c0.1,0.59-0.29,0.68-0.52,1.16
		c-0.25,0.52,0.05,0.85,0.01,1.35c-0.03,0.46-0.51,0.96-0.65,1.41c-0.15,0.47-0.19,0.99-0.19,1.48c0,0.4,0.03,0.79,0.06,1.19
		c-0.73,1.2-0.09,2.38,0.26,3.61c0.21,0.75-0.15,1.44,0.04,2.18c0.17,0.67,0.48,1.23,0.55,1.95c0.06,0.66,0.05,1.33,0.14,1.99
		c0.1,0.73,0.43,1.3,0.63,1.99c0.35,1.19-0.36,2.46,0.46,3.55C226.75,189.13,227.81,188.57,227.37,187.87z"/>
	
		<linearGradient id="SVGID_00000119820597967526637410000010133522617143900853_" gradientUnits="userSpaceOnUse" x1="229.8492" y1="633.4585" x2="233.5183" y2="633.4585" gradientTransform="matrix(1 0 0 -1 0 799.8898)">
		<stop  offset="0" style="stop-color:#1F1D1D"/>
		<stop  offset="0.998" style="stop-color:#C6C8C7"/>
	</linearGradient>
	<path style="fill:url(#SVGID_00000119820597967526637410000010133522617143900853_);" d="M233.1,178.18
		c-0.39-1.52-0.36-3.03-0.46-4.58c-0.05-0.78-0.15-1.55-0.36-2.3c-0.08-0.3-0.29-0.71-0.21-1.03c0.07-0.29,0.38-0.53,0.48-0.83
		c0.1-0.29,0.1-0.57,0.07-0.87c-0.03-0.26-0.22-0.67-0.17-0.92c0.06-0.3,0.39-0.48,0.55-0.72c0.16-0.23,0.25-0.46,0.3-0.73
		c0.13-0.69,0.02-1.46,0-2.15c-0.02-0.71,0.03-1.47-0.1-2.17c-0.05-0.29-0.14-0.55-0.31-0.8c-0.04-0.05-0.08-0.1-0.12-0.14
		c0.42-0.33,0.47-1.1,0.48-1.58c0.03-1.56-0.09-3.17-0.29-4.72c-0.06-0.44-0.15-0.87-0.26-1.29c0.07-0.14,0.13-0.31,0.15-0.42
		c0.21-1.26-1.52-2.64-2.53-3.05c-0.39-0.15-0.62,0.39-0.38,0.65c0.22,0.24,0.44,0.48,0.65,0.73c-0.15,0.16-0.24,0.4-0.2,0.65
		c0.21,1.21,0.55,2.39,0.86,3.58c0.04,0.14,0.12,0.24,0.21,0.33c0,0.08,0.01,0.17,0.01,0.25c0.05,0.74,0.08,1.47,0.11,2.21
		c0.02,0.7,0.13,1.24-0.24,1.83c-0.26,0.42-0.39,0.83-0.16,1.31c0.12,0.24,0.37,0.39,0.46,0.65c0.12,0.3,0.05,0.76,0.06,1.07
		c0.02,0.7,0.04,1.41,0.05,2.11c0.01,0.34,0.05,0.61-0.16,0.9c-0.17,0.24-0.41,0.4-0.56,0.67c-0.25,0.48-0.18,0.98-0.09,1.49
		c0.08,0.43,0.09,0.54-0.13,0.92c-0.12,0.21-0.23,0.38-0.3,0.61c-0.16,0.58,0.01,1.19,0.17,1.75c0.22,0.76,0.32,1.52,0.37,2.3
		c0.08,1.38,0.07,2.77,0.39,4.12c0.16,0.69,0.4,1.37,0.48,2.08s-0.1,1.42,0.1,2.12c0.46,1.65,1.28,0.39,1.41-0.62
		C233.62,180.46,233.39,179.29,233.1,178.18z"/>
	
		<linearGradient id="SVGID_00000098196171025900678890000002951075708157357206_" gradientUnits="userSpaceOnUse" x1="235.2095" y1="635.9833" x2="238.1839" y2="635.9833" gradientTransform="matrix(1 0 0 -1 0 799.8898)">
		<stop  offset="0" style="stop-color:#1F1D1D"/>
		<stop  offset="0.998" style="stop-color:#C6C8C7"/>
	</linearGradient>
	<path style="fill:url(#SVGID_00000098196171025900678890000002951075708157357206_);" d="M237.33,168.29
		c-0.06-0.17-0.18-0.34-0.21-0.52c-0.03-0.25,0.08-0.4,0.18-0.63c0.15-0.35,0.22-0.66,0.18-1.03c-0.05-0.43-0.22-0.63,0.04-1.04
		c0.23-0.35,0.4-0.61,0.48-1.03c0.16-0.88-0.05-1.81-0.12-2.7c-0.07-0.91,0.32-1.83,0.31-2.76c0-0.42-0.06-0.85-0.13-1.27
		c-0.03-0.2-0.42-1.2-0.33-1.36c0.11-0.21,0.15-0.53,0-0.73c-0.67-0.89-1.17-1.9-1.8-2.81c-0.21-0.3-0.71-0.21-0.71,0.19
		c0,1.11,0.47,2.14,1.07,3.06c-0.14,0.58,0.12,1.15,0.24,1.77c0.2,1.04,0.07,1.99-0.12,3.02c-0.16,0.88,0.12,1.8,0.17,2.68
		c0.03,0.51-0.03,0.85-0.33,1.27c-0.21,0.3-0.36,0.58-0.37,0.95c-0.01,0.35,0.23,0.69,0.2,1.03c-0.03,0.37-0.36,0.71-0.41,1.1
		c-0.04,0.32,0.03,0.59,0.13,0.89c0.19,0.55,0.23,0.79,0.15,1.4c-0.12,0.88,0.09,1.65,0.37,2.48c0.33,0.96,0.4,1.62,0.24,2.61
		c-0.09,0.58,0.51,0.95,0.97,0.56c1.37-1.12,0.17-3.18-0.11-4.5C237.22,170.03,237.63,169.17,237.33,168.29z"/>
	<path class="st21" d="M246.33,197.6c0.11-0.03,0.2-0.1,0.22-0.23c0.28-1.87-0.66-3.86-1.67-5.38c-0.54-0.81-1.14-1.57-1.52-2.47
		c-0.38-0.91-0.63-1.94-0.05-2.8c0.01-0.02-0.02-0.04-0.03-0.03c-0.45,0.56-0.77,1.4-0.72,2.12c0.07,0.95,0.53,1.78,1.04,2.57
		c0.57,0.9,1.15,1.76,1.51,2.78c0.21,0.6,0.33,1.21,0.44,1.83c-1.18-1.98-2.96-3.8-4.14-5.5c-0.76-1.1-0.96-2.17-0.25-3.36
		c0.57-0.95,1.22-1.84,1.68-2.86c0.86-1.93,1.23-3.85,1.15-5.95c0-0.04-0.07-0.05-0.07-0.01c-0.32,2.19-1.03,4.41-2.09,6.36
		c-0.87,1.62-2.37,3.18-1.64,5.14c0.32,0.86,0.92,1.6,1.47,2.32c0.76,0.99,1.57,1.96,2.27,2.99c1.31,1.93,2.08,4.09,1.93,6.45
		c-0.02,0.35,0.48,0.39,0.59,0.08C246.94,200.22,246.81,198.87,246.33,197.6z"/>
	<path class="st21" d="M247.31,155.75c0-0.05,0.01-0.11,0.01-0.16c-0.01-0.14-0.03-0.28-0.05-0.42c-0.01-0.07-0.07-0.12-0.13-0.14
		c0.41-0.6,0.81-1.24,0.98-1.9c0.12-0.49-0.47-0.82-0.83-0.48c-0.73,0.68-1.21,1.75-1.75,2.59c-0.59,0.92-1.2,1.84-1.84,2.73
		c-0.64,0.9-1.31,1.78-1.99,2.65c-0.5,0.63-0.83,1.15-0.57,1.97c0.68,2.08,1.47,4.05,1.91,6.21c0.46,2.23,0.74,4.55,0.93,6.82
		c0.01,0.07,0.11,0.07,0.11,0c0.29-2.59,0.11-5.18-0.41-7.71c0.3-0.04,0.58-0.28,0.61-0.66c0.07-0.95,0.24-1.89,0.43-2.82
		c0.18-0.86,0.35-1.75,0.68-2.57c0.23-0.56,0.58-1.04,0.87-1.57c0.09-0.02,0.17-0.05,0.27-0.06c0.91-0.08,1.08-0.69,1.06-1.52
		c-0.02-0.98-0.15-1.94-0.26-2.92C247.32,155.78,247.31,155.77,247.31,155.75z"/>
	<path class="st21" d="M243.06,152.37c0.51,0.04,0.97-0.35,1.36-0.62c0.5-0.35,1-0.7,1.49-1.05c0.26-0.19,0.51-0.38,0.76-0.58
		c0.25-0.19,0.54-0.37,0.72-0.63c0.04-0.06,0.05-0.12,0.04-0.18c0.26-0.07,0.47-0.31,0.38-0.64c-0.43-1.55-2.19-2.98-3.8-2.98
		c-0.57,0-1.08,0.19-1.55,0.48l0,0c-0.02-0.01-0.02-0.01-0.02-0.01s-0.01,0-0.02-0.01c-0.06-0.03-0.12-0.06-0.18-0.1
		c0,0-0.08-0.06-0.04-0.03c-0.03-0.03-0.06-0.05-0.09-0.08c-0.1-0.1-0.14-0.16-0.21-0.31c-0.11-0.22-0.18-0.47-0.13-0.74
		c0.02-0.14,0.07-0.27,0.12-0.41c0.06-0.16,0.13-0.31,0.28-0.41v-0.01c0.79-0.45,1.67-0.55,2.59-0.24c0.89,0.3,2.54,1.06,2.8,2.06
		c0.02,0.07,0.12,0.05,0.12-0.02c0.06-1.56-2.03-2.69-3.36-2.98c-1.83-0.4-3.22,0.7-4.31,2.04c-0.62,0.76-1.19,1.59-2.02,2.13
		c-0.85,0.55-2.04,0.74-2.77-0.1c-0.63-0.72-0.69-1.71-0.42-2.59c0.13-0.44,0.35-0.86,0.6-1.25c0.23-0.37,0.51-0.66,0.54-1.11
		c0.02-0.2-0.2-0.34-0.38-0.29c-0.57,0.16-0.98,0.78-1.27,1.37c-0.14-0.1-0.32-0.16-0.52-0.11c-1.48,0.34-3.03,0.53-4.54,0.7
		c-0.96,0.1-1.92,0.19-2.88,0.25c-1.22-0.44-2.43-0.93-3.73-1.1c-3.79-0.5-6.94,2.19-9.3,4.83c-0.11,0.12,0.05,0.27,0.18,0.18
		c1.54-1.22,3.04-2.65,4.9-3.38c1.81-0.7,3.5-0.85,5.35-0.23c1.62,0.53,3.14,1.33,4.83,1.65c1.66,0.32,3.52,0.37,5.22,0.12
		c0.01,0.04,0.01,0.08,0.02,0.12c0.41,1.66,1.98,2.67,3.64,2.13c1.91-0.62,2.72-2.57,4.16-3.79c-0.08,0.1-0.17,0.2-0.22,0.32
		c-0.15,0.34-0.22,0.77-0.09,1.13c0.11,0.29,0.34,0.53,0.6,0.71c-0.69,0.61-1.22,1.44-1.56,2.21c-0.81,1.83-0.43,3.72,0.17,5.55
		c0.12,0.36,0.22,0.75,0.52,1c0.32,0.27,0.74,0.27,1.13,0.17c0.76-0.2,1.5-0.64,2.12-1.12c0.72-0.55,1.35-1.2,1.92-1.9
		c0.58-0.71,1.14-1.48,1.44-2.35c0.06-0.16-0.15-0.24-0.26-0.15c-1.01,0.78-1.71,1.92-2.63,2.8c-0.46,0.44-0.95,0.84-1.5,1.17
		c-0.31,0.19-1.34,0.84-1.61,0.52c-0.09-0.11-0.11-0.36-0.16-0.5c-0.06-0.18-0.12-0.37-0.17-0.55c-0.11-0.37-0.21-0.74-0.29-1.12
		c-0.15-0.75-0.21-1.53-0.03-2.28c0.29-1.2,1.17-2.72,2.37-3.2c0.73-0.3,1.52-0.02,2.13,0.42c0.34,0.25,0.59,0.55,0.81,0.87
		c-0.3-0.24-0.63-0.45-0.99-0.56c-1.02-0.3-1.8,0.54-2.3,1.33c-0.25,0.4-0.44,0.84-0.58,1.29c-0.06,0.22-0.12,0.44-0.15,0.67
		c-0.02,0.12-0.03,0.23,0,0.35c0,0.1-0.02,0.2,0,0.3C242.32,151.96,242.61,152.33,243.06,152.37z"/>
	<path class="st21" d="M242.96,141.06c-1.22,0.12-2.1,0.85-2.88,1.74s-1.56,2.14-2.7,2.58c-0.32,0.12-0.76,0.21-1.03-0.07
		c-0.29-0.29-0.21-0.86-0.13-1.22c0.17-0.74,0.66-1.44,1.11-2.03c0.04-0.05-0.04-0.1-0.08-0.06c-0.91,0.78-2.27,2.27-1.45,3.57
		c0.77,1.23,2.33,0.09,2.99-0.62c0.91-0.96,1.63-2.16,2.82-2.82c0.63-0.35,1.37-0.48,2.06-0.24c0.68,0.24,1.11,0.75,1.68,1.16
		c0.31,0.22,0.77-0.15,0.65-0.5C245.59,141.39,244.07,140.95,242.96,141.06z"/>
	<path class="st21" d="M240.6,165.09c-0.03-0.06-0.14-0.02-0.11,0.05c1.08,3.36,1.05,6.87,0.15,10.26
		c-0.92,3.46-2.34,6.9-3.83,10.16c-0.34,0.74-0.7,1.47-1.1,2.18c-0.23,0.4-0.52,1.06-0.93,1.29c-0.49,0.27-1.11,0.01-1.57-0.2
		c-0.05-0.02-0.09-0.05-0.14-0.07c0,0,0,0,0-0.01c-0.03-0.13-0.17-0.19-0.29-0.16c-0.01,0-0.01,0.01-0.02,0.01
		c-1.4-0.69-2.77-1.47-4.17-2.17c-0.39-0.19-0.78-0.36-1.17-0.55c0.07,0.36,0.11,0.73,0.08,1.09c1.37,0.66,2.74,1.33,4.07,2.05
		c0.15,0.08,0.3,0.17,0.46,0.26c-0.1,0.09-0.2,0.17-0.31,0.23c-0.52,0.26-1.12,0.02-1.62-0.17c-0.53-0.21-1.06-0.41-1.6-0.59
		c-0.48-0.16-1.14-0.37-1.61-0.12c-0.08,0.04-0.09,0.16-0.03,0.22c0.22,0.2,0.48,0.28,0.76,0.39c0.3,0.12,0.6,0.26,0.9,0.39
		c0.62,0.28,1.22,0.61,1.88,0.78c0.63,0.16,1.32,0.16,1.85-0.25c0.15-0.12,0.33-0.29,0.49-0.49c0.78,0.39,1.62,0.66,2.41,0.25
		c0.62-0.32,0.96-0.98,1.29-1.56c0.43-0.75,0.8-1.54,1.15-2.33c1.51-3.44,2.92-7.07,3.7-10.75C242,171.88,242.2,168.24,240.6,165.09
		z"/>
	<path class="st21" d="M247.23,207.17c-0.65-0.25-1.46-0.48-1.96-0.98c-0.74-0.73-0.69-1.79-0.82-2.75
		c-0.19-1.48-0.41-2.97-0.82-4.41c-0.63-2.18-1.89-4.78-4.18-5.61c-1.41-0.51-2.89,0.64-4.16,1.15c-1.5,0.6-3.05,1.06-4.62,1.39
		c-3.12,0.65-6.39,0.71-9.53,0.15c-0.73-0.13-1.51-0.25-2.22-0.48c-0.88-0.28-1.12-1.54-1.36-2.34c-0.51-1.62-0.78-3.31-0.8-5.01
		c-0.02-1.65,0.21-3.3,0.67-4.89c0.16-0.56,0.3-0.62,0.84-0.42c0.39,0.15,0.77,0.3,1.16,0.45c0.89,0.35,1.79,0.71,2.67,1.09
		c1.15,0.48,2.28,1,3.42,1.52c-0.02-0.1-0.04-0.19-0.05-0.29c-0.03-0.24-0.02-0.47,0-0.71c-0.01-0.04-0.02-0.07-0.03-0.11
		c-2.08-0.96-4.18-1.87-6.31-2.7c-0.53-0.21-1.28-0.66-1.86-0.41c-0.56,0.24-0.7,0.92-0.84,1.45c-0.42,1.54-0.63,3.13-0.66,4.73
		c-0.02,1.6,0.15,3.2,0.53,4.75c0.28,1.17,0.64,3.04,1.66,3.82c0.55,0.43,1.34,0.55,2,0.7c0.8,0.17,1.61,0.3,2.42,0.4
		c1.6,0.19,3.22,0.24,4.83,0.13c3.14-0.2,6.27-0.93,9.12-2.27c0.79-0.37,1.81-1.24,2.7-0.99c0.73,0.2,1.41,0.76,1.92,1.3
		c1.07,1.13,1.65,2.64,2.08,4.11c0.52,1.78,0.68,3.61,1.06,5.41c0.32,1.49,1.57,2.26,2.88,2.81
		C247.55,208.41,247.84,207.41,247.23,207.17z"/>
	<path class="st21" d="M246.62,212.38c-0.05-0.17-0.13-0.29-0.29-0.37c-0.01-0.01-0.02,0-0.03-0.01c0.04-0.12,0.07-0.25,0.06-0.37
		c-0.04-0.75-0.27-1.53-0.56-2.22s-0.65-1.35-1.1-1.96c-0.39-0.52-0.93-1.23-1.66-0.93c-0.81,0.33-0.83,1.38-0.78,2.12
		c0.03,0.55,0.15,1.09,0.34,1.6c-0.37-0.24-0.73-0.49-1.07-0.73c-1.44-1.02-2.65-2.22-3.87-3.47c1.98-1.55,3.18-3.92,2.86-6.5
		c-0.13-1.03-0.52-2.53-1.7-2.8c-0.69-0.16-1.48,0.16-2.13,0.34c-1.03,0.28-2.03,0.6-3.02,0.98c-0.15,0.06-0.09,0.27,0.07,0.24
		c0.79-0.17,1.57-0.35,2.35-0.58c0.63-0.19,1.27-0.45,1.91-0.57c1.6-0.3,1.95,1.86,1.97,3.02c0.03,2.17-1.16,4.5-3.16,5.47
		c-0.19,0.09-0.28,0.41-0.15,0.59c1.14,1.54,2.64,2.87,4.17,4.01c1.52,1.14,3.25,2.23,5.04,2.88c0.2,0.07,0.41-0.02,0.56-0.15
		c0.02-0.02,0.05-0.04,0.07-0.06C246.62,212.78,246.67,212.55,246.62,212.38z M242.77,208.69c0.01-0.39,0.06-0.78,0.18-1.15
		c0.1-0.31,0.37-0.66,0.67-0.33c0.48,0.53,0.86,1.23,1.16,1.88c0.31,0.67,0.53,1.38,0.67,2.1c0.03,0.15,0.04,0.37,0.08,0.57
		c-0.86-0.31-1.7-0.75-2.5-1.25C242.87,209.91,242.75,209.31,242.77,208.69z"/>
	<path class="st21" d="M244.84,215.22c-0.44-0.39-0.96-0.7-1.44-1.04c-0.52-0.37-1.04-0.74-1.54-1.13
		c-0.91-0.69-1.82-1.39-2.69-2.14c-1.66-1.43-3.08-3.07-4.16-4.98c-0.03-0.06-0.12-0.02-0.1,0.04c0.52,2.16,2.01,3.9,3.58,5.4
		c0.83,0.79,1.7,1.52,2.6,2.24c0.52,0.42,1.04,0.83,1.56,1.25c0.5,0.4,1,0.87,1.56,1.18C244.71,216.34,245.3,215.63,244.84,215.22z"
		/>
	<path class="st21" d="M233.57,204.86c-1.31-0.7-2.82-1.15-4.32-1.17c-1.59-0.01-3.18,0.62-4.67,1.1c-1.68,0.54-3.34,1.15-5.01,1.7
		c-1.59,0.53-4,0.63-3.92-1.66c0.03-0.93,0.12-2.57-1.31-2.39c-1.2,0.15-1.97,1.58-2.41,2.55c-1.13,2.46-1.07,5.27,0.15,7.68
		c0.65,1.28,1.6,2.46,2.73,3.35c1.26,0.99,2.98,1.54,3.83,2.96c0.21,0.35,0.85,0.12,0.69-0.29c-0.41-1.04-1.21-1.71-2.13-2.32
		c-1.06-0.7-2.1-1.37-2.98-2.31c-1.29-1.38-2.13-3.14-2.3-4.98c0.09-0.03,0.17-0.11,0.13-0.21c-0.08-0.2-0.13-0.42-0.16-0.64
		c0-0.2,0.01-0.41,0.03-0.61c0.06-0.29,0.19-0.57,0.44-0.77c0.26-0.21,0.59-0.26,0.91-0.18c0.31,0.07,0.58,0.27,0.72,0.56
		c0.17,0.35,0.22,0.74,0.04,1.1c-0.08,0.15,0.13,0.26,0.22,0.13c0.25-0.34,0.35-0.83,0.22-1.25c-0.13-0.41-0.52-0.71-0.91-0.84
		c-0.54-0.17-1.1,0.04-1.49,0.43c0.02-0.1,0.03-0.19,0.06-0.29c0.19-0.69,0.49-1.35,0.87-1.96c0.18-0.3,0.39-0.61,0.63-0.86
		c0.13-0.13,0.3-0.28,0.47-0.35c0.53-0.21,0.79,0.18,0.8,0.64c0.03,1.21-0.27,2.21,0.81,3.07c0.84,0.67,1.91,0.75,2.93,0.54
		c1.51-0.32,2.96-1.09,4.41-1.61c1.59-0.58,3.27-1.25,4.95-1.5c1.93-0.29,3.61,0.26,5.49,0.55
		C233.59,205.05,233.67,204.92,233.57,204.86z"/>
	<path class="st21" d="M221.45,218.78c-0.37-0.9-0.88-1.73-1.56-2.43c-0.75-0.77-1.66-1.35-2.55-1.95
		c-1.73-1.17-3.91-2.93-3.21-5.32c0.02-0.07-0.08-0.11-0.11-0.05c-0.97,2.04,0.42,4,1.96,5.26c0.88,0.72,1.87,1.3,2.74,2.03
		c0.9,0.76,1.59,1.65,2.06,2.73C220.94,219.44,221.61,219.17,221.45,218.78z"/>
	<path class="st21" d="M212.62,200.16c-0.47-0.61-0.92-1.03-1.65-1.29c-0.25-0.09-0.51,0.24-0.35,0.46c0.5,0.69,1.42,1.38,1.67,2.22
		c0.1,0.33,0.19,0.12-0.16,0.26c-0.14,0.06-0.3,0.05-0.45,0.12c-0.25,0.11-0.45,0.28-0.62,0.5c-0.66,0.81-1.09,1.91-1.55,2.84
		c-0.44,0.88-0.86,1.79-1.08,2.75c-0.41,1.75,0,3.43,0.88,4.97c0.44,0.77,0.97,1.49,1.54,2.16c0.35,0.41,0.8,1.13,1.42,0.93
		c0.03-0.01,0.03-0.05,0.01-0.07c-0.72-0.52-1.28-1.58-1.78-2.31c-0.53-0.79-1.01-1.63-1.29-2.54c-0.65-2.13,0.23-4.05,1.23-5.9
		c0.37-0.69,0.92-2.26,1.76-2.49c0.49-0.13,1.03-0.02,1.24-0.63C213.67,201.46,213,200.64,212.62,200.16z"/>
	<path class="st21" d="M215.37,180.94c0.17-0.94,0.52-2.64-0.96-2.64c-0.64,0-1.2,0.44-1.69,0.8c-0.57,0.42-1.14,0.91-1.54,1.49
		c-0.12,0.18,0.12,0.42,0.3,0.3c0.52-0.36,0.98-0.79,1.5-1.15c0.42-0.3,1.43-1.15,1.79-0.47c0.27,0.51-0.16,1.55-0.29,2.09
		c-0.16,0.66-0.34,1.31-0.51,1.96c-0.58,2.17-1.26,5.01-0.09,7.11c0.25,0.45,1.05,0.14,0.85-0.36c-0.29-0.75-0.56-1.42-0.62-2.23
		c-0.06-0.76,0-1.52,0.13-2.27C214.5,184,215.08,182.5,215.37,180.94z"/>
	<path class="st21" d="M212.2,184.29c-0.62-0.29-0.92,0.33-1.33,0.66c-0.11,0.09-0.04,0.23,0.07,0.27c-0.25,0.39-0.5,0.78-0.74,1.17
		c-0.13,0.01-0.26,0.06-0.37,0.17c-0.45,0.46-0.87,0.92-1.23,1.45c-0.32,0.47-0.83,1.17-0.52,1.74c0.13,0.25,0.39,0.38,0.67,0.41
		c0.13,0.13,0.3,0.22,0.48,0.24c0.07,0.16,0.14,0.32,0.21,0.48c0.15,0.35,0.31,0.63,0.56,0.91c0.3,0.34,1.03,0.09,0.96-0.4
		c-0.03-0.21-0.08-0.43-0.15-0.63c0.1-0.08,0.18-0.17,0.2-0.3c0.33-1.57,1.07-2.99,1.58-4.5
		C212.79,185.37,212.86,184.6,212.2,184.29z"/>
	<path class="st21" d="M218.05,175.53c-0.11,0.01-0.17,0.03-0.25,0.11c-0.05,0.05-0.1,0.11-0.15,0.16c-0.1,0.11-0.2,0.22-0.3,0.33
		c-0.2,0.22-0.4,0.45-0.58,0.69c-0.36,0.48-0.65,0.98-0.88,1.54c-0.05,0.13,0.15,0.21,0.22,0.09c0.28-0.48,0.61-0.95,0.97-1.39
		c0.17-0.21,0.36-0.42,0.55-0.61c0.1-0.1,0.2-0.2,0.32-0.28c0.13-0.1,0.28-0.18,0.33-0.34
		C218.31,175.69,218.21,175.51,218.05,175.53z"/>
	<path class="st21" d="M223.37,163.4c-0.25-0.43-0.51-0.86-0.7-1.32c-0.21-0.5-0.24-1.02-0.4-1.52c-0.11-0.33-0.65-0.39-0.73,0
		c-0.18,0.82,0.31,1.79,0.69,2.5c0.45,0.84,1.02,1.61,1.44,2.47c0.09,0.2,0.26,0.47,0.23,0.69c-0.03,0.23-0.26,0.52-0.38,0.72
		c-0.28,0.45-0.6,0.86-0.93,1.27c-0.64,0.8-1.28,1.56-1.68,2.51c-0.07,0.17,0.14,0.4,0.28,0.22c0.67-0.82,1.4-1.58,2.09-2.39
		c0.35-0.41,0.68-0.83,0.96-1.29c0.24-0.39,0.51-0.82,0.44-1.3C224.54,165.08,223.84,164.17,223.37,163.4z"/>
	<path class="st21" d="M212.98,158.5c-0.1-0.08-0.3-0.13-0.39-0.22c-0.25-0.27-0.08-0.4,0.02-0.69c0.16-0.44,0.26-0.89,0.3-1.36
		c0.1-1.12-0.29-4.39-2.02-4.15c-0.39,0.05-0.46,0.32-0.72,0.55c-0.09,0.08-0.09,0.12-0.08,0.13c-0.01-0.01-0.04-0.02-0.1-0.04
		c-0.2-0.06-0.45-0.48-0.58-0.65c-0.76-0.95-1.15-2.04-1.56-3.18c-0.04-0.12-0.21-0.1-0.22,0.03c-0.04,0.36-0.02,0.74,0.04,1.12l0,0
		c-0.05-0.25-0.44-0.24-0.49,0c-0.28,1.34,0.64,2.76,1.41,3.78c0.99,1.32,2.29,2.68,2.29,4.44c0,1.77-1.18,3.3-2.12,4.69
		c-0.79,1.17-1.81,2.64-1.69,4.12c0.02,0.29,0.46,0.39,0.54,0.07c0.05-0.12,0.1-0.25,0.16-0.37c0.02-0.04,0.01-0.09-0.01-0.12
		c0.19-0.67,0.39-1.31,0.75-1.94c0.38-0.68,0.84-1.32,1.29-1.96c0.89-1.28,1.77-2.7,1.85-4.31c0.12,0.28,0.39,0.46,0.74,0.73
		c0.96,0.74,0,2.28-0.44,3.12c-0.38,0.72-0.81,1.4-1.41,1.94c-0.05-0.19-0.1-0.38-0.15-0.57c-0.12-0.4-0.61-0.42-0.83-0.11
		c-1.02,1.42-1.28,3.21-0.61,4.84c0.26,0.62,1.13,0.27,0.86-0.36c-0.41-0.97-0.4-2.03-0.04-2.98c0.01,0.04,0.02,0.08,0.03,0.12
		c0.08,0.28,0.45,0.47,0.71,0.29c0.77-0.54,1.36-1.23,1.83-2.05c0.48-0.83,0.99-1.81,1.23-2.74
		C213.74,159.91,213.63,159.02,212.98,158.5z M211.62,157.79c0,0.01,0,0.01,0,0.02c-0.13-1.22-0.8-2.27-1.56-3.24
		c-0.52-0.66-1.07-1.29-1.52-2s-0.63-1.39-0.79-2.17c0.26,1.15,0.9,2.28,1.73,3.01c0.41,0.35,0.85,0.42,1.24,0.01
		c0.05-0.05,0.17-0.33,0.24-0.35c0.24-0.08,0.51,0.37,0.59,0.52c0.24,0.45,0.4,0.95,0.48,1.46
		C212.19,156.08,211.88,156.85,211.62,157.79z"/>
	<path class="st21" d="M208.84,156.29c-0.18-0.3-0.32-0.62-0.44-0.95c-0.11-0.32-0.18-0.65-0.36-0.95
		c-0.08-0.14-0.34-0.13-0.37,0.05c-0.09,0.57,0.15,1.15,0.37,1.66c0.12,0.28,0.26,0.54,0.42,0.8c0.16,0.26,0.36,0.5,0.48,0.77
		c0.28,0.61-0.19,1.24-0.51,1.73c-0.37,0.56-0.74,1.11-1.2,1.6c-0.14,0.15,0.06,0.33,0.21,0.21c0.53-0.41,1.05-0.87,1.45-1.42
		c0.38-0.52,0.88-1.18,0.81-1.86C209.65,157.31,209.15,156.82,208.84,156.29z"/>
	<path class="st21" d="M217.44,141.01c-0.61,0.07-1.18,0.66-1.64,1.04c-0.5,0.42-0.94,0.9-1.38,1.38c-0.9,0.99-1.68,2.09-2.32,3.26
		c-0.3,0.56-0.57,1.13-0.81,1.72c-0.12,0.3-0.21,0.62-0.39,0.89c-0.31,0.44-0.52,0.17-0.76-0.2c-0.4-0.64-0.77-1.3-1.11-1.97
		c-0.33-0.65-0.6-1.45-1.07-2.01c-0.06-0.08-0.2-0.01-0.19,0.08c0.02,0.75,0.43,1.56,0.74,2.23c0.35,0.77,0.71,1.58,1.18,2.3
		c0.32,0.5,0.87,0.79,1.42,0.43c0.54-0.35,0.72-1.06,0.94-1.63c0.57-1.43,1.38-2.77,2.37-3.95c0.49-0.58,1.02-1.11,1.6-1.59
		c0.3-0.25,0.59-0.5,0.9-0.74c0.29-0.22,0.65-0.39,0.83-0.72C217.87,141.34,217.73,140.98,217.44,141.01z"/>
	<path class="st21" d="M226.25,188c-1.01-0.48-2.02-0.96-3.03-1.44c-0.53-0.25-1.06-0.5-1.6-0.74c-0.44-0.2-0.88-0.42-1.37-0.5
		c-0.82-0.14-1.43,0.2-1.75,0.96c-0.19,0.45-0.32,0.94-0.48,1.4c-0.16,0.45-0.38,0.95-0.29,1.43c0.03,0.17,0.28,0.19,0.36,0.05
		c0.2-0.35,0.2-0.77,0.26-1.16c0.07-0.46,0.17-0.91,0.35-1.34c0.16-0.38,0.39-0.8,0.83-0.9c0.46-0.1,0.94,0.19,1.34,0.39
		c1.66,0.85,3.33,1.68,5,2.5C226.3,188.88,226.69,188.21,226.25,188z"/>
	<path class="st21" d="M236.84,178.52c-0.2-0.59-1.09-0.57-1.6-0.57c-0.6,0-1.59,0.02-2.03,0.47c-0.23,0.24-0.05,0.57,0.25,0.6
		c0.34,0.04,0.66-0.15,0.98-0.21c0.31-0.06,0.63-0.08,0.95-0.08c0.19,0,0.37,0.01,0.55,0.04c0.22,0.03,0.19,0.01,0.16,0.24
		c-0.04,0.31-0.09,0.62-0.15,0.93c-0.24,1.34-0.57,2.66-1.03,3.94c-0.22,0.61-0.45,1.23-0.79,1.78c-0.16,0.25-0.33,0.52-0.56,0.71
		c-0.44,0.37-0.86,0.16-1.28-0.1c-1.17-0.73-2.35-1.44-3.48-2.22c-0.03-0.02-0.08,0.03-0.04,0.06c1.04,0.89,2.08,1.76,3.24,2.49
		c0.44,0.28,0.93,0.53,1.46,0.32c0.48-0.19,0.83-0.65,1.1-1.07c0.7-1.07,1.14-2.37,1.53-3.58c0.2-0.65,0.38-1.3,0.53-1.97
		c0.07-0.31,0.12-0.61,0.17-0.92C236.84,179.1,236.93,178.79,236.84,178.52z"/>
	<path class="st21" d="M231.37,178.65c-0.28-0.14-0.64-0.1-0.94-0.04c-0.12,0.03-0.21,0.13-0.25,0.25
		c-0.12,0.39-0.36,0.73-0.58,1.07c-0.23,0.35-0.47,0.7-0.67,1.08c-0.36,0.68-0.61,1.44-0.5,2.21c0.01,0.07,0.12,0.05,0.12-0.02
		c0.01-0.81,0.42-1.52,0.9-2.15c0.43-0.57,0.84-1.15,1.24-1.73c0.24,0.02,0.48,0.03,0.68-0.08
		C231.59,179.12,231.6,178.77,231.37,178.65z"/>
	<path class="st21" d="M230.71,167.99c-0.09-0.12-0.19-0.23-0.29-0.34c-0.2-0.22-0.41-0.43-0.63-0.62c-0.24-0.21-0.49-0.4-0.78-0.55
		c-0.15-0.07-0.3-0.13-0.46-0.19s-0.3-0.13-0.46-0.05c0.03-0.01,0.07-0.02,0.1-0.03c-0.02,0-0.05,0-0.07,0
		c-0.12,0-0.2,0.13-0.13,0.23c0.01,0.02,0.02,0.04,0.04,0.06c-0.01-0.03-0.02-0.07-0.03-0.1c0.02,0.17,0.14,0.25,0.26,0.37
		c0.1,0.1,0.2,0.2,0.3,0.3c0.21,0.2,0.43,0.38,0.64,0.58c0.21,0.19,0.41,0.39,0.59,0.6c0.1,0.11,0.19,0.22,0.28,0.33
		c-0.05-0.07,0.03,0.04,0.03,0.04c0.02,0.02,0.03,0.04,0.05,0.07c0.08,0.11,0.16,0.19,0.27,0.28c0.14,0.1,0.36,0.06,0.48-0.03
		c0.13-0.1,0.21-0.29,0.15-0.45C230.96,168.3,230.83,168.15,230.71,167.99z"/>
	<g>
		<g>
			<path d="M249.41,185.19c1.06-4.58-1.33-9.2-2.7-13.45c-0.7-2.17-1.3-4.44-1.11-6.74c0.18-2.2,1.37-4.98,3.85-5.28
				c3.16-0.39,3.21,3.55,3.35,5.68c0.18,2.92,1.31,5.48,2.8,7.97c1.48,2.47,3.04,4.86,4.2,7.51c1.17,2.66,2,5.49,2.45,8.36
				c0.24,1.56,0.34,3.15,0.31,4.74c-0.03,1.73-0.3,3.4-0.59,5.1c-0.31,1.78-0.37,3.47,0.02,5.25c0.17,0.79,0.48,1.54,0.66,2.32
				c0.2,0.87,0.08,1.77,0.33,2.64c0.36,1.23,2.29,0.71,1.93-0.53c-0.21-0.71-0.12-1.48-0.24-2.21c-0.14-0.8-0.43-1.55-0.64-2.33
				c-0.43-1.62-0.37-3.2-0.08-4.84c0.56-3.12,0.8-6.17,0.42-9.32c-0.36-3.07-1.14-6.07-2.3-8.93c-1.15-2.85-2.69-5.43-4.29-8.04
				c-0.76-1.23-1.51-2.48-2.06-3.81c-0.58-1.4-0.85-2.82-0.93-4.33c-0.14-2.74-0.58-6.29-3.77-7.09c-2.9-0.72-5.49,1.29-6.59,3.85
				c-1.02,2.38-0.99,4.96-0.47,7.46c0.57,2.76,1.67,5.37,2.55,8.04c0.78,2.36,1.58,4.97,1,7.46
				C247.19,185.91,249.12,186.44,249.41,185.19L249.41,185.19z"/>
		</g>
	</g>
	<g>
		<g>
			<path d="M230.23,221.85c0.66,0.59,1.35,1.08,2.18,1.4c0.71,0.27,1.47,0.39,2.2,0.58c0.55,0.14,1.08,0.36,1.62,0.53
				c0.45,0.14,0.93,0.22,1.37,0.4c0.76,0.31,1.36,0.78,1.8,1.48c0.68,1.09,2.42,0.08,1.73-1.01c-0.53-0.83-1.22-1.53-2.1-1.99
				c-0.97-0.51-2.05-0.74-3.08-1.09c-0.84-0.28-1.71-0.42-2.55-0.66c-0.16-0.04-0.31-0.09-0.46-0.15c0.17,0.07-0.11-0.05-0.12-0.06
				c-0.08-0.04-0.15-0.08-0.23-0.12c-0.35-0.2-0.66-0.44-0.96-0.71C230.68,219.58,229.26,220.99,230.23,221.85L230.23,221.85z"/>
		</g>
	</g>
	<g>
		<g>
			<path d="M208.57,206.14c-1.04-0.81-2.01-1.59-2.76-2.66c-1.11-1.59-2.03-3.29-1.99-5.28c0.01-0.44,0.07-0.87,0.19-1.3
				c0.14-0.51,0.4-0.99,0.43-1.53c0.06-0.97-0.62-1.84-1.18-2.58c-0.93-1.24-2.38-2.59-2.54-4.21c-0.1-1.02,0.4-2.02,0.48-3.03
				c0.09-1.14-0.41-2.04-0.97-3c-0.99-1.71-0.74-3.79,0.16-5.49c0.97-1.82,2.5-3.25,4.01-4.62c1.39-1.26,3.12-2.89,5.11-2.97
				c1.81-0.07,2.59,1.82,2.35,3.38c-0.31,2.07-2.21,3.63-3.68,4.93c-0.97,0.85,0.45,2.26,1.41,1.41c1.65-1.46,3.34-3.04,4.04-5.2
				c0.57-1.74,0.22-3.85-1.01-5.23c-1.61-1.81-4.17-1.44-6.11-0.41c-2.03,1.07-3.81,2.82-5.4,4.45c-1.6,1.65-3.01,3.63-3.41,5.94
				c-0.2,1.15-0.19,2.35,0.17,3.47c0.16,0.5,0.4,0.98,0.66,1.44c0.27,0.46,0.61,0.92,0.65,1.47c0.09,1.16-0.58,2.27-0.5,3.46
				c0.07,1.02,0.45,1.96,1,2.81c0.52,0.82,1.17,1.56,1.76,2.33c0.29,0.38,0.59,0.78,0.82,1.2c0.27,0.49-0.08,0.93-0.21,1.44
				c-0.67,2.44,0.03,5.1,1.37,7.18c0.5,0.78,1.03,1.58,1.66,2.27c0.6,0.66,1.35,1.19,2.05,1.74c0.43,0.33,1,0.41,1.41,0
				C208.92,207.21,209,206.47,208.57,206.14L208.57,206.14z"/>
		</g>
	</g>
	<g>
		<g>
			<path d="M202.7,183.78c0.17-0.44,0.69-1.11,1.09-1.57c0.54-0.6,1.12-1.18,1.76-1.67c1.11-0.86,2.64-1.36,3.99-0.45
				c1.69,1.14,0.92,3.54,0.03,4.92c-0.6,0.94-1.36,1.77-2.08,2.62c-0.81,0.96-1.62,1.92-2.44,2.88c-0.83,0.98,0.58,2.4,1.41,1.41
				c1.48-1.75,3.05-3.45,4.4-5.29c1.19-1.63,1.98-3.61,1.51-5.64c-0.46-1.99-2.19-3.18-4.16-3.33c-1.67-0.13-2.97,0.56-4.22,1.58
				c-1.3,1.06-2.65,2.43-3.24,4.02C200.32,184.46,202.25,184.98,202.7,183.78L202.7,183.78z"/>
		</g>
	</g>
	<g>
		<g>
			<path d="M207.36,190.37c0.04,0.03,0.08,0.05,0.12,0.08c-0.07-0.05-0.13-0.1-0.2-0.16c0.16,0.12,0.3,0.26,0.42,0.42
				c-0.05-0.07-0.1-0.13-0.16-0.2c0.13,0.17,0.23,0.35,0.32,0.54c-0.03-0.08-0.07-0.16-0.1-0.24c0.08,0.19,0.13,0.38,0.16,0.58
				c-0.01-0.09-0.02-0.18-0.04-0.27c0.01,0.09,0.02,0.17,0.02,0.26c0.01,0.26,0.11,0.52,0.29,0.71c0.17,0.17,0.46,0.3,0.71,0.29
				c0.26-0.01,0.53-0.1,0.71-0.29c0.18-0.19,0.3-0.44,0.29-0.71c-0.02-0.55-0.16-1.09-0.43-1.57c-0.26-0.48-0.65-0.87-1.1-1.18
				c-0.21-0.14-0.54-0.17-0.77-0.1c-0.23,0.06-0.48,0.24-0.6,0.46c-0.12,0.23-0.18,0.51-0.1,0.77
				C206.99,190.02,207.14,190.21,207.36,190.37L207.36,190.37z"/>
		</g>
	</g>
	<g>
		<g>
			<path d="M206.68,193.92c1.32-0.89,3.02-1.69,4.6-0.98c1.45,0.65,1.64,2.32,0.88,3.59c-0.41,0.69-1.02,1.24-1.6,1.8
				c-0.56,0.54-1.08,1.13-1.67,1.65c-1.19,1.05-2.36,2.19-1.6,3.88c0.22,0.49,0.94,0.61,1.37,0.36c0.51-0.3,0.58-0.87,0.36-1.37
				c-0.05-0.1,0.04-0.23,0.14-0.37c0.24-0.33,0.59-0.6,0.9-0.87c0.65-0.57,1.23-1.2,1.85-1.8c1.38-1.33,2.7-2.79,2.71-4.83
				c0.01-1.97-1.33-3.58-3.2-4.11c-2.01-0.57-4.07,0.2-5.74,1.32C204.61,192.91,205.61,194.64,206.68,193.92L206.68,193.92z"/>
		</g>
	</g>
	<g>
		<g>
			<path d="M207.85,167.66c-1.34-1.17-2.61-2.42-3.83-3.72c-1.15-1.23-2.51-2.51-3.3-4.01c-0.66-1.24-0.2-2.45,1.12-2.95
				c1.52-0.58,3.18,0.21,4.59,0.75c0.5,0.19,1.1-0.21,1.23-0.7c0.15-0.56-0.19-1.04-0.7-1.23c-1.82-0.7-3.8-1.44-5.73-0.72
				c-1.79,0.66-3.08,2.29-2.78,4.26c0.3,2.02,2,3.63,3.3,5.08c1.48,1.64,3.03,3.21,4.69,4.66
				C207.4,169.91,208.82,168.5,207.85,167.66L207.85,167.66z"/>
		</g>
	</g>
	<g>
		<g>
			<path d="M206.17,147.39c0,4.78,0,9.56,0,14.35c0,2.11,0,4.22,0,6.33c0,1.29,2,1.29,2,0c0-4.78,0-9.56,0-14.35
				c0-2.11,0-4.22,0-6.33C208.17,146.11,206.17,146.1,206.17,147.39L206.17,147.39z"/>
		</g>
	</g>
	<g>
		<g>
			<path d="M207.15,203.35c0,2.63,0,5.27,0,7.9c0,0.83-0.14,1.77,0.24,2.54c0.44,0.9,1.04,1.73,1.7,2.48
				c1.11,1.24,2.58,2.24,4.25,2.47c-0.15-0.09-0.29-0.17-0.44-0.26c0.48,0.61,1.19,1.09,1.83,1.5c1.76,1.12,3.82,1.78,5.86,2.12
				c4.12,0.71,8.63,0.42,12.74-0.31c2.98-0.52,6.07-1.39,8.58-3.16c-0.17,0.05-0.34,0.09-0.5,0.14c2.84-0.28,6.04-1.88,6.29-5.04
				c0.11-1.4,0.07-2.83,0.11-4.23c0.17-7.24,0.32-14.48,0.44-21.72c0.06-3.54,0.12-7.08,0.12-10.63c0-1.29-2-1.29-2,0
				c0,5.97-0.14,11.94-0.26,17.91c-0.11,5.58-0.23,11.15-0.36,16.73c-0.03,1.32,0.11,2.6-0.91,3.56c-0.82,0.77-1.9,1.13-3.04,1.35
				c-0.15,0.03-0.3,0.05-0.46,0.08c0.48-0.09-0.16,0.01-0.2,0.02c-0.44,0.12-0.89,0.54-1.29,0.77c-0.42,0.24-0.85,0.45-1.28,0.65
				c-3.08,1.38-6.58,1.91-9.92,2.13c-2.76,0.18-5.59,0.24-8.31-0.34c-1.43-0.3-2.74-0.73-3.98-1.41c-0.42-0.23-0.82-0.49-1.21-0.77
				c-0.2-0.14,0.13,0.11-0.08-0.06c-0.06-0.05-0.12-0.09-0.17-0.14c-0.1-0.09-0.21-0.18-0.3-0.28c-0.09-0.09-0.18-0.2-0.27-0.29
				c-0.27-0.25-0.58-0.27-0.92-0.35c-0.42-0.09-0.81-0.24-1.18-0.44c-1.24-0.69-2.16-1.82-2.85-3.02c-0.13-0.23-0.26-0.45-0.36-0.69
				c0.05,0.17,0.09,0.34,0.14,0.5c0-3.24,0-6.48,0-9.72C209.15,202.06,207.15,202.06,207.15,203.35L207.15,203.35z"/>
		</g>
	</g>
	<g>
		<g>
			<path d="M246.74,147.39c0,3.9,0,7.8,0,11.7c0,1.29,2,1.29,2,0c0-3.9,0-7.8,0-11.7C248.74,146.11,246.74,146.1,246.74,147.39
				L246.74,147.39z"/>
		</g>
	</g>
	<path class="st22" d="M212,216.97c0,0,11.5,4.53,31.55,0"/>
	<path class="st23" d="M210.54,136.6c0-1.51,3.76-0.44,4.23-1.74c0.23-0.62-0.29-1.23-0.17-1.86c0.11-0.61,0.7-0.72,1.34-0.82
		c1.44-0.22,2.9-0.33,4.36-0.35c1.18-0.02,2.48-0.14,3.64,0.05c1.04,0.17,1.16,0.85,1.43,1.71c0.33,1.07,1.09,1.09,2.05,1.09
		c9.32,0,16.88,0.86,16.88,1.92"/>
	<path class="st23" d="M210.54,136.6c-0.41,0.31,0,3.35,0,3.35s-3.41,2.84-3.4,7.21"/>
	<path class="st23" d="M244.3,136.6c0.41,0.31,0,3.35,0,3.35s3.46,2.84,3.44,7.21"/>
	<path class="st24" d="M211.81,137.54c0,0,11.62,3.08,31.07,0"/>
	<path class="st25" d="M210.54,140.13c0,0,6.81,1.74,17.58,1.74c0,0,10.93,0.14,16.23-2.28"/>
	<g>
		<g>
			<path d="M214.71,133.51c0.41,1.53,1,3.11,2.32,4.09c1.36,1.02,3.2,0.86,4.8,0.8c0.95-0.03,1.91-0.1,2.86-0.24
				c0.6-0.09,0.92-0.36,1.05-0.97c0.16-0.79-0.04-1.61-0.23-2.37c-0.24-0.94-0.54-1.87-0.9-2.77c-0.12-0.3-0.6-0.17-0.48,0.13
				c0.52,1.32,1.13,2.86,1.17,4.3c0.01,0.38,0.01,0.96-0.4,1.14c-0.34,0.15-0.86,0.12-1.22,0.16c-0.75,0.07-1.5,0.12-2.25,0.13
				c-1.43,0.03-3.04,0.15-4.22-0.81c-1.14-0.93-1.64-2.35-2.01-3.73C215.11,133.06,214.62,133.19,214.71,133.51L214.71,133.51z"/>
		</g>
	</g>
	<path class="st24" d="M223.32,134.76c0,0.8-1.26,1.45-2.81,1.45s-2.81-0.65-2.81-1.45s1.26-1.45,2.81-1.45
		C222.06,133.32,223.32,133.96,223.32,134.76z"/>
	<g>
		<g>
			<path d="M225.69,137.02c0.62-0.07,1.32,0.03,1.91,0.24c0.48,0.18,0.94,0.63,0.7,1.19c-0.05,0.12-0.04,0.27,0.09,0.34
				c0.11,0.06,0.29,0.03,0.34-0.09c0.17-0.38,0.17-0.8-0.03-1.17c-0.16-0.29-0.43-0.51-0.72-0.65c-0.3-0.14-0.62-0.22-0.94-0.28
				c-0.44-0.08-0.89-0.13-1.34-0.08c-0.13,0.01-0.25,0.1-0.25,0.25C225.44,136.9,225.55,137.04,225.69,137.02L225.69,137.02z"/>
		</g>
	</g>
	<g>
		<g>
			<path d="M219.39,135.62c-0.09-0.28,0.1-0.53,0.33-0.66c0.29-0.16,0.65-0.17,0.97-0.16s0.66,0.08,0.91,0.28
				c0.21,0.17,0.37,0.45,0.32,0.73c-0.02,0.13,0.04,0.27,0.17,0.31c0.12,0.03,0.28-0.04,0.31-0.17c0.08-0.44-0.08-0.88-0.42-1.18
				c-0.35-0.32-0.83-0.44-1.3-0.46c-0.45-0.02-0.97,0.04-1.35,0.31c-0.36,0.25-0.58,0.71-0.44,1.15
				C219.01,136.06,219.49,135.93,219.39,135.62L219.39,135.62z"/>
		</g>
	</g>
	<g>
		<g>
			<path d="M239.02,155.59c0.17-1.13,0.33-2.25,0.5-3.38c0.02-0.13-0.03-0.28-0.17-0.31c-0.72-0.16-1.43-0.36-2.12-0.62
				c-0.65-0.24-1.26-0.56-1.96-0.65c0.08,0.11,0.16,0.21,0.24,0.32c0.06-0.42,0.12-0.84,0.19-1.26c0.02-0.13-0.03-0.28-0.17-0.31
				c-1.58-0.35-3.02-0.92-4.53-1.49c-1.04-0.39-2.18-0.43-2.91,0.52c0.09-0.04,0.19-0.08,0.28-0.11c-0.87-0.24-1.74-0.5-2.58-0.81
				c-0.83-0.31-1.63-0.73-2.52-0.85c-0.53-0.07-1.07-0.01-1.55,0.22c-0.3,0.15-0.98,0.6-0.93,1.01c0.11-0.08,0.21-0.16,0.32-0.24
				c-0.9-0.26-1.77-0.55-2.64-0.9c-0.68-0.27-1.39-0.56-2.14-0.48c-0.51,0.06-1.02,0.27-1.35,0.68c-0.28,0.35-0.19,0.6-0.13,1.01
				c0.01,0.11,0.07,0.21,0.18,0.24c1.32,0.37,2.06,1.38,2.34,2.67c0.1-0.1,0.21-0.21,0.31-0.31c-0.69-0.09-1.39-0.13-2.06-0.28
				c-0.68-0.15-1.27-0.51-1.96-0.59c-0.18-0.02-0.27,0.18-0.24,0.32c0.13,0.76,0.21,1.55,0.39,2.29c0.2,0.81,0.36,1.62,0.5,2.45
				c0.08,0.48,0.16,0.96,0.24,1.43c0.09,0.55,0.29,1.17,0.27,1.73c-0.01,0.43-0.33,0.75-0.36,1.18s0.11,0.89,0.2,1.31
				c0.11,0.53,0.24,1.07,0.2,1.62c-0.04,0.55-0.26,1.06-0.46,1.56c-0.72,1.84-0.4,3.86-0.17,5.77c0.27,2.3,0.72,4.58,1.33,6.81
				c0.07,0.25,0.4,0.22,0.48,0c0.32-0.9,0.32-1.84,0.32-2.79c0-1,0.07-1.89,0.43-2.83c0.15-0.39,0.31-0.79,0.24-1.21
				c-0.08-0.51-0.53-0.78-0.49-1.34c0.03-0.47,0.21-0.84,0.18-1.34c-0.03-0.47-0.12-0.92-0.12-1.39c-0.02-2.13,0.47-4.3,0.94-6.36
				c0.21-0.91,0.1-1.67-0.09-2.56c-0.12-0.55-0.18-1.13-0.05-1.68c0.13-0.54,0.51-0.97,0.83-1.4c-0.15-0.02-0.3-0.04-0.46-0.06
				c0.18,1.03,0.36,2.06,0.54,3.09c0.09,0.51,0.23,1.05,0.24,1.57c0.01,0.55-0.35,0.89-0.48,1.39c-0.21,0.78,0.15,1.71,0.31,2.46
				c0.24,1.11,0.32,2.14-0.06,3.23c-0.3,0.87-0.74,1.68-0.91,2.59c-0.19,0.99-0.14,2-0.07,3c0.14,2.07,0.38,4.13,0.71,6.17
				c0.39,2.38,0.92,4.74,1.57,7.06c0.07,0.25,0.4,0.22,0.48,0c0.78-2.05,0.24-4.24,0.59-6.35c0.17-1.02,0.88-1.96,0.89-3
				c0.01-0.39-0.12-0.73-0.33-1.04c-0.18-0.27-0.43-0.53-0.45-0.88c-0.02-0.32,0.15-0.66,0.23-0.97c0.27-1.12-0.1-2.26-0.09-3.39
				c0.01-1.24,0.21-2.5,0.37-3.73c0.16-1.23,0.35-2.46,0.63-3.67c0.25-1.07,0.66-2.15,0.6-3.27c-0.07-1.32-0.65-2.49-0.48-3.85
				c0.18-1.44,0.43-2.87,0.65-4.3c-0.14,0.04-0.28,0.07-0.42,0.11c1.16,0.92,1.43,2.13,1.68,3.53c0.25,1.44,0.5,2.87,0.75,4.31
				c0.11,0.66,0.24,1.31,0.35,1.97c0.06,0.39,0.15,0.81,0.05,1.2c-0.09,0.35-0.34,0.62-0.47,0.96c-0.4,1.05,0.22,2.46,0.42,3.5
				c0.28,1.48,0.05,2.71-0.51,4.08c-0.47,1.16-0.81,2.27-0.85,3.53c-0.08,2.7,0.32,5.48,0.72,8.15c0.46,3.08,1.12,6.12,1.96,9.11
				c0.07,0.25,0.4,0.22,0.48,0c0.92-2.41,0.23-4.99,0.7-7.47c0.22-1.14,1.03-2.21,1-3.38c-0.01-0.49-0.24-0.88-0.51-1.27
				c-0.26-0.36-0.44-0.68-0.36-1.15c0.05-0.31,0.19-0.61,0.25-0.92c0.26-1.25-0.14-2.53-0.13-3.78c0.01-1.41,0.24-2.84,0.42-4.24
				c0.18-1.42,0.4-2.84,0.73-4.24c0.29-1.24,0.77-2.5,0.7-3.8c-0.08-1.48-0.74-2.81-0.57-4.31c0.19-1.68,0.5-3.35,0.76-5.02
				c-0.14,0.04-0.28,0.07-0.42,0.11c0.89,0.88,1.01,2.02,1.21,3.2c0.19,1.14,0.39,2.29,0.58,3.43c0.11,0.63,0.27,1.28,0.32,1.92
				s-0.29,1.02-0.45,1.59c-0.23,0.86,0.21,1.92,0.37,2.76c0.24,1.27,0.09,2.32-0.37,3.52c-0.4,1.02-0.7,1.99-0.73,3.09
				c-0.07,2.27,0.26,4.61,0.58,6.85c0.38,2.67,0.94,5.31,1.64,7.91c0.07,0.25,0.4,0.22,0.48,0c0.7-1.9,0.28-3.9,0.51-5.87
				c0.06-0.54,0.18-1.06,0.37-1.57c0.18-0.46,0.4-0.91,0.49-1.4c0.06-0.36,0.05-0.71-0.09-1.05c-0.23-0.56-0.72-0.86-0.58-1.55
				c0.09-0.41,0.23-0.8,0.26-1.22c0.04-0.56-0.06-1.12-0.12-1.67c-0.12-1.13,0.01-2.24,0.13-3.36c0.14-1.22,0.28-2.45,0.49-3.66
				c0.19-1.09,0.52-2.14,0.73-3.23c0.22-1.16-0.01-2.15-0.25-3.27c-0.3-1.4,0.06-2.83,0.26-4.22c-0.14,0.04-0.28,0.07-0.42,0.11
				c0.83,0.77,0.85,1.96,1.03,3.01c0.09,0.56,0.19,1.12,0.28,1.67c0.09,0.53,0.31,1.17,0.25,1.7c-0.05,0.43-0.36,0.75-0.37,1.2
				c0,0.44,0.13,0.88,0.22,1.31c0.13,0.62,0.25,1.24,0.13,1.87c-0.09,0.48-0.31,0.94-0.49,1.39c-0.7,1.88-0.29,4.11-0.03,6.04
				c0.28,2.14,0.7,4.26,1.27,6.34c0.07,0.25,0.4,0.22,0.48,0c0.62-1.73-0.01-3.62,0.64-5.34c0.25-0.66,0.55-1.29,0.18-1.96
				c-0.19-0.33-0.35-0.54-0.28-0.98c0.03-0.19,0.11-0.37,0.14-0.57c0.06-0.44,0-0.87-0.05-1.3c-0.1-0.93,0.01-1.84,0.11-2.76
				c0.12-1.05,0.25-2.11,0.48-3.14c0.19-0.88,0.52-1.76,0.43-2.68c-0.04-0.37-0.14-0.73-0.22-1.1
				C238.94,156.7,238.94,156.17,239.02,155.59c0.05-0.31-0.44-0.45-0.48-0.13c-0.12,0.84-0.04,1.54,0.14,2.36
				c0.24,1.06-0.04,1.95-0.28,2.98c-0.21,0.92-0.34,1.86-0.46,2.8c-0.12,0.96-0.29,1.96-0.22,2.93c0.03,0.43,0.12,0.85,0.12,1.28
				c0,0.47-0.25,0.93-0.21,1.39c0.03,0.37,0.24,0.55,0.4,0.86c0.26,0.53,0,0.99-0.19,1.49c-0.68,1.76-0.04,3.67-0.68,5.43
				c0.16,0,0.32,0,0.48,0c-0.61-2.27-1.07-4.58-1.34-6.92c-0.12-1.09-0.25-2.2-0.24-3.29c0-0.59,0.08-1.15,0.27-1.71
				c0.16-0.47,0.38-0.91,0.51-1.39c0.25-0.95,0.01-1.85-0.18-2.79c-0.1-0.49-0.09-0.79,0.07-1.26c0.05-0.15,0.13-0.25,0.16-0.41
				c0.08-0.37-0.02-0.77-0.08-1.14c-0.19-1.12-0.38-2.23-0.57-3.35c-0.16-0.96-0.3-1.83-1.04-2.52c-0.12-0.11-0.39-0.09-0.42,0.11
				c-0.15,1.04-0.4,2.12-0.42,3.18c-0.02,1.11,0.49,2.14,0.51,3.24c0.02,1.14-0.41,2.25-0.64,3.35c-0.23,1.09-0.39,2.19-0.53,3.29
				c-0.14,1.12-0.3,2.25-0.35,3.38c-0.05,1.07,0.26,2.14,0.16,3.2c-0.05,0.49-0.3,0.96-0.3,1.45c0.01,0.41,0.22,0.72,0.44,1.04
				c0.69,1.02-0.13,2.06-0.4,3.09c-0.59,2.24,0.13,4.63-0.68,6.84c0.16,0,0.32,0,0.48,0c-0.64-2.37-1.16-4.77-1.53-7.19
				c-0.38-2.43-0.75-4.98-0.67-7.44c0.04-1.22,0.46-2.24,0.87-3.36c0.36-0.97,0.45-1.91,0.3-2.93c-0.09-0.56-0.22-1.11-0.34-1.66
				c-0.06-0.28-0.13-0.58-0.14-0.87c-0.01-0.42,0.17-0.69,0.34-1.04c0.41-0.88,0.02-2.01-0.14-2.9c-0.23-1.34-0.46-2.68-0.68-4.03
				c-0.2-1.17-0.41-2.21-1.28-3.06c-0.12-0.12-0.39-0.08-0.42,0.11c-0.22,1.46-0.45,2.93-0.67,4.39c-0.19,1.25-0.12,2.32,0.18,3.55
				c0.16,0.65,0.3,1.3,0.28,1.98c-0.03,0.75-0.24,1.47-0.43,2.19c-0.35,1.33-0.62,2.68-0.82,4.04c-0.19,1.31-0.34,2.63-0.48,3.94
				c-0.07,0.71-0.14,1.42-0.11,2.13c0.03,0.68,0.16,1.35,0.2,2.03c0.04,0.67-0.1,1.23-0.26,1.87c-0.13,0.52-0.13,0.97,0.14,1.43
				c0.38,0.64,0.78,1.06,0.6,1.86c-0.14,0.63-0.47,1.2-0.68,1.8c-0.92,2.72,0.09,5.69-0.94,8.38c0.16,0,0.32,0,0.48,0
				c-0.76-2.73-1.38-5.49-1.83-8.29c-0.45-2.81-0.88-5.75-0.84-8.6c0.02-1.47,0.47-2.68,1-4.03c0.46-1.16,0.62-2.26,0.43-3.49
				c-0.1-0.66-0.27-1.31-0.41-1.97c-0.07-0.35-0.18-0.72-0.18-1.08c-0.01-0.47,0.19-0.78,0.39-1.18c0.54-1.08,0.02-2.51-0.18-3.63
				c-0.29-1.64-0.57-3.28-0.86-4.92c-0.24-1.36-0.62-2.5-1.74-3.38c-0.13-0.1-0.39-0.1-0.42,0.11c-0.34,2.21-1.02,4.55-0.48,6.77
				c0.14,0.57,0.29,1.15,0.29,1.74c0,0.68-0.18,1.34-0.36,1.99c-0.3,1.15-0.54,2.3-0.71,3.47c-0.17,1.16-0.31,2.33-0.43,3.49
				c-0.07,0.61-0.12,1.23-0.1,1.85c0.02,0.62,0.14,1.22,0.18,1.84c0.03,0.6-0.12,1.1-0.25,1.67c-0.09,0.41-0.07,0.78,0.13,1.15
				c0.33,0.6,0.71,0.93,0.51,1.69c-0.13,0.53-0.4,1-0.58,1.52c-0.79,2.35,0.08,4.92-0.81,7.26c0.16,0,0.32,0,0.48,0
				c-1.16-4.16-1.92-8.43-2.23-12.74c-0.08-1.07-0.17-2.17,0.03-3.23c0.18-0.94,0.64-1.79,0.94-2.69c0.27-0.82,0.32-1.64,0.19-2.5
				c-0.07-0.49-0.19-0.98-0.29-1.46c-0.13-0.59-0.36-1.27-0.11-1.85c0.17-0.4,0.39-0.66,0.42-1.11c0.03-0.43-0.08-0.87-0.15-1.3
				c-0.22-1.23-0.43-2.46-0.65-3.68c-0.04-0.24-0.34-0.21-0.46-0.06c-0.57,0.78-0.96,1.39-0.98,2.38c-0.02,1.06,0.49,2,0.3,3.07
				s-0.51,2.11-0.66,3.19c-0.14,0.99-0.27,1.98-0.34,2.98c-0.08,1.02,0.21,2.03-0.01,3.03c-0.08,0.37-0.16,0.66,0,1.02
				c0.11,0.24,0.29,0.4,0.36,0.66c0.1,0.33,0.01,0.59-0.1,0.9c-0.34,0.92-0.52,1.74-0.53,2.72c-0.01,1.05,0.06,2.09-0.3,3.09
				c0.16,0,0.32,0,0.48,0c-0.56-2.08-0.99-4.19-1.26-6.33c-0.26-2.01-0.62-4.16,0.15-6.09c0.33-0.82,0.51-1.56,0.39-2.45
				c-0.07-0.49-0.2-0.97-0.29-1.46c-0.07-0.39-0.02-0.67,0.12-1.04c0.06-0.17,0.14-0.29,0.17-0.47c0.06-0.36-0.03-0.72-0.09-1.07
				c-0.09-0.56-0.19-1.12-0.28-1.67c-0.17-1-0.26-2.06-0.56-3.03c-0.26-0.82-0.33-1.71-0.48-2.55c-0.08,0.11-0.16,0.21-0.24,0.32
				c0.71,0.09,1.32,0.48,2.02,0.61c0.62,0.12,1.25,0.16,1.87,0.24c0.19,0.03,0.35-0.1,0.31-0.31c-0.32-1.46-1.21-2.61-2.69-3.02
				c0.06,0.08,0.12,0.16,0.18,0.24c-0.04-0.28-0.13-0.5,0.05-0.73c0.44-0.55,1.27-0.54,1.89-0.38c0.58,0.15,1.13,0.42,1.69,0.63
				c0.66,0.25,1.33,0.46,2,0.65c0.14,0.04,0.34-0.08,0.32-0.24c-0.02-0.14,0.42-0.43,0.53-0.5c0.24-0.14,0.54-0.22,0.82-0.25
				c0.66-0.06,1.32,0.18,1.92,0.42c1.21,0.48,2.41,0.9,3.67,1.24c0.12,0.03,0.21-0.02,0.28-0.11c0.86-1.12,2.36-0.28,3.37,0.12
				c1.14,0.45,2.31,0.81,3.51,1.07c-0.06-0.1-0.12-0.21-0.17-0.31c-0.06,0.42-0.12,0.84-0.19,1.26c-0.03,0.18,0.07,0.29,0.24,0.32
				c0.71,0.09,1.37,0.47,2.04,0.7c0.63,0.22,1.27,0.4,1.92,0.54c-0.06-0.1-0.12-0.21-0.17-0.31c-0.17,1.13-0.33,2.25-0.5,3.38
				C238.49,155.77,238.98,155.91,239.02,155.59z"/>
		</g>
	</g>
	<g>
		<path d="M217.72,193.57c-0.08-0.37-0.18-0.76-0.29-1.15c-0.12-0.4-0.24-0.78-0.38-1.16c-0.14-0.37-0.27-0.68-0.41-0.92
			c-0.1-0.2-0.21-0.38-0.33-0.52c-0.09-0.1-0.19-0.18-0.29-0.23c-0.12-0.06-0.22-0.09-0.31-0.11c-0.09-0.01-0.19-0.02-0.31-0.03
			c-0.13,0-0.23,0.01-0.28,0.03c-0.04,0.01-0.07,0.03-0.11,0.05c-0.07,0.04-0.14,0.1-0.2,0.16s-0.12,0.12-0.18,0.19
			c-0.15,0.17-0.35,0.6-0.59,1.28c-0.33-0.87-0.59-1.44-0.78-1.72c-0.07-0.1-0.15-0.21-0.22-0.31c-0.08-0.1-0.15-0.2-0.23-0.29
			c-0.04-0.04-0.08-0.08-0.12-0.12c-0.05-0.05-0.15-0.12-0.29-0.21c-0.11-0.06-0.22-0.1-0.3-0.13c-0.09-0.03-0.19-0.06-0.3-0.07
			c-0.1-0.01-0.19,0-0.28,0.06c-0.11,0.07-0.2,0.18-0.29,0.33c-0.1,0.17-0.21,0.41-0.31,0.71c-0.1,0.3-0.19,0.63-0.27,0.97
			c-0.06,0.26-0.09,0.52-0.13,0.78c0.29,0.02,0.57,0.11,0.8,0.3c0.13,0.1,0.22,0.22,0.32,0.33c0.12,0.1,0.22,0.22,0.33,0.33
			c0.01-0.15,0.01-0.31,0.03-0.46c0.06-0.5,0.2-1.05,0.41-1.64c0.48,0.87,0.81,1.58,0.98,2.13c0.13,0.43,0.23,0.72,0.28,0.87
			c0.06,0.15,0.23,0.26,0.51,0.33c0.29,0.07,0.45,0.04,0.49-0.08c0.04-0.12,0.09-0.39,0.17-0.8c0.07-0.41,0.35-0.89,0.84-1.45
			c0.24,0.72,0.42,1.36,0.54,1.91s0.18,1.04,0.18,1.47c0,0.06,0,0.13,0,0.2c0,0.07,0.01,0.14,0.02,0.21
			c0.07,0.25,0.27,0.39,0.58,0.4c0.32,0.01,0.53-0.02,0.64-0.09c0.1-0.05,0.16-0.15,0.18-0.28c0.02-0.13,0.03-0.25,0.03-0.37
			C217.84,194.24,217.8,193.94,217.72,193.57z"/>
		<path d="M217.97,194.67c0-0.19,0.1-0.26,0.33-0.22c0.03,0.01,0.1,0.02,0.21,0.05s0.18,0.04,0.22,0.05
			c-0.03-0.22-0.05-0.56-0.08-1.02c-0.01-0.22-0.01-0.49,0-0.81c0.01-0.28,0.03-0.55,0.05-0.8c0.05-0.5,0.11-0.84,0.17-1
			c-0.16-0.04-0.25-0.07-0.28-0.08c-0.04-0.01-0.16-0.04-0.37-0.1c-0.02-0.01-0.06-0.02-0.11-0.03c-0.01,0-0.04-0.01-0.08-0.03
			c-0.11-0.04-0.19-0.12-0.23-0.23c-0.04-0.09-0.03-0.2,0.02-0.33c0.06-0.12,0.11-0.21,0.16-0.25c0.07-0.06,0.23-0.08,0.47-0.06
			c0.23,0.02,0.49,0.07,0.78,0.13s0.56,0.13,0.82,0.2c0.23,0.07,0.43,0.12,0.57,0.17c0.02,0.01,0.06,0.03,0.12,0.05
			c0.03,0.02,0.07,0.04,0.11,0.07c0.04,0.03,0.07,0.06,0.11,0.08c0.02,0.01,0.05,0.04,0.1,0.09c0.02,0.02,0.08,0.18,0.17,0.47
			c0,0.16-0.07,0.24-0.21,0.24c-0.13,0-0.27-0.02-0.4-0.04c-0.07-0.01-0.19-0.03-0.37-0.07c-0.05,0.47-0.08,0.81-0.09,1.04
			c-0.02,0.22-0.03,0.48-0.03,0.78c-0.01,0.26,0,0.52,0.02,0.78c0.03,0.47,0.07,0.82,0.1,1.04c0.16,0.05,0.27,0.08,0.32,0.09
			c0.04,0.01,0.08,0.02,0.12,0.03s0.08,0.02,0.11,0.02c0.05,0.01,0.12,0.03,0.19,0.05c0.03,0.01,0.05,0.01,0.07,0.02
			c0.02,0.01,0.04,0.01,0.06,0.01c0.11,0.04,0.18,0.11,0.24,0.22c-0.01,0.13-0.03,0.26-0.04,0.39c-0.04,0.11-0.08,0.18-0.12,0.22
			c-0.07,0.06-0.22,0.09-0.46,0.09c-0.11,0-0.23-0.01-0.36-0.03s-0.26-0.04-0.4-0.07c-0.25-0.04-0.52-0.11-0.8-0.19
			c-0.21-0.06-0.4-0.12-0.56-0.18c-0.05-0.03-0.09-0.05-0.11-0.06s-0.06-0.04-0.12-0.08c-0.03-0.02-0.06-0.05-0.11-0.09
			c0,0-0.03-0.03-0.1-0.09c-0.02-0.02-0.06-0.1-0.12-0.24C218,194.8,217.97,194.71,217.97,194.67z"/>
		<path d="M225.23,193.39c0.15,0.1,0.3,0.19,0.45,0.28c0.01,0.01,0.03,0.01,0.04,0.02c0.36,0.2,0.61,0.42,0.75,0.68
			c0.14,0.25,0.14,0.54,0,0.85c-0.14,0.31-0.39,0.57-0.75,0.77c-0.24,0.13-0.52,0.22-0.86,0.27c-0.34,0.04-0.69,0.04-1.05,0l0,0l0,0
			c-0.45-0.06-0.67-0.11-0.65-0.14c-0.16-0.05-0.3-0.09-0.42-0.13c-0.27-0.14-0.55-0.28-0.82-0.42c-0.16-0.11-0.3-0.22-0.43-0.35
			c0-0.01-0.01-0.01-0.01-0.02c-0.01,0-0.01-0.01-0.01-0.02c-0.01,0-0.01,0-0.02-0.01c-0.01-0.01-0.01-0.01-0.01-0.01
			c-0.06-0.07-0.1-0.14-0.11-0.22c0-0.01,0-0.02,0-0.03c0-0.09,0-0.21,0.01-0.34c0.01-0.13,0.03-0.24,0.07-0.32
			c0.04-0.09,0.11-0.11,0.2-0.07c0.09,0.05,0.17,0.1,0.23,0.15c0.01,0.01,0.01,0.02,0.02,0.02c0.01,0,0.01,0.01,0.02,0.02
			c0.15,0.13,0.33,0.25,0.52,0.35c0.43,0.23,0.96,0.36,1.57,0.4c0.02-0.01,0.05-0.02,0.09-0.04c0.14-0.06,0.17-0.15,0.09-0.27
			c-0.01,0-0.01-0.01-0.02-0.01c0-0.01-0.01-0.01-0.01-0.02c-0.04-0.04-0.41-0.25-1.11-0.65c-0.67-0.46-1.06-0.77-1.16-0.91
			c-0.24-0.33-0.32-0.65-0.23-0.94c0.09-0.29,0.29-0.53,0.61-0.71c0.56-0.33,1.48-0.37,2.75-0.18c0.15,0.05,0.29,0.1,0.41,0.14
			c0.04,0.02,0.11,0.05,0.2,0.09c0.08,0.04,0.18,0.09,0.29,0.14c0.14,0.06,0.2,0.11,0.17,0.17c0.01,0.01,0.02,0.02,0.03,0.03
			c0.08,0.09,0.13,0.2,0.18,0.35c0.04,0.15,0.01,0.26-0.11,0.34c-0.01,0.01-0.02,0.01-0.02,0.02c-0.1,0.06-0.24,0.07-0.42,0.02
			c-0.2-0.05-0.39-0.1-0.57-0.14c-0.1-0.03-0.21-0.06-0.31-0.09c-0.4-0.07-0.69-0.11-0.87-0.13c-0.37,0.07-0.28,0.29,0.27,0.63
			C224.27,193,224.6,193.15,225.23,193.39z"/>
		<path d="M226.82,191.64c0.06-0.06,0.18-0.07,0.36-0.05c0.24,0.03,0.49,0.04,0.75,0.04c0.55,0,1.09-0.05,1.63-0.16
			c0.54-0.1,1.08-0.22,1.61-0.34c0.18-0.04,0.36-0.1,0.53-0.16c0.17-0.07,0.35-0.12,0.53-0.15c0.2-0.04,0.35,0,0.45,0.1
			c0.11,0.13,0.18,0.28,0.22,0.46c0.03,0.18,0.01,0.35-0.07,0.51c-0.06,0.09-0.15,0.17-0.28,0.24c-0.13,0.06-0.25,0.12-0.35,0.16
			c-0.14,0.06-0.31,0.14-0.51,0.23c-0.2,0.1-0.35,0.2-0.45,0.3c-0.1,0.11-0.13,0.27-0.09,0.46c0.04,0.19,0.08,0.47,0.13,0.85
			c0.03,0.27,0.06,0.55,0.11,0.85s0.06,0.58,0.05,0.85c-0.01,0.15-0.07,0.26-0.17,0.33c-0.15,0.1-0.28,0.17-0.37,0.2
			c-0.1,0.03-0.23,0.05-0.41,0.06c-0.08,0-0.16,0-0.25-0.01s-0.15-0.05-0.18-0.11c-0.06-0.11-0.1-0.22-0.13-0.31
			c-0.1-0.29-0.19-0.66-0.24-1.12c-0.06-0.45-0.13-0.83-0.21-1.13c-0.04-0.15-0.09-0.3-0.17-0.47c-0.05-0.09-0.19-0.15-0.43-0.17
			c-0.24-0.02-0.41-0.04-0.51-0.05c-0.19-0.01-0.38-0.02-0.58-0.02c-0.2-0.01-0.38-0.04-0.55-0.11c-0.15-0.06-0.24-0.13-0.28-0.23
			c-0.04-0.09-0.07-0.2-0.11-0.32C226.76,191.94,226.76,191.69,226.82,191.64z"/>
		<path d="M233.49,190.94c0.07-0.03,0.14-0.06,0.22-0.09c0.07-0.03,0.15-0.05,0.23-0.08c0.48-0.19,1.06-0.38,1.74-0.56
			c0.68-0.19,1.28-0.31,1.81-0.35c0.13-0.01,0.27-0.01,0.42,0s0.26,0.04,0.34,0.11c0.09,0.08,0.16,0.25,0.2,0.51
			c0.05,0.26-0.07,0.43-0.34,0.51c-0.07,0.02-0.15,0.04-0.23,0.04s-0.15,0.01-0.22,0.02c-0.69,0.08-1.24,0.16-1.67,0.24
			c-0.43,0.09-0.87,0.2-1.33,0.33c-0.03,0.5-0.04,0.88-0.03,1.16c0.38-0.09,0.75-0.19,1.11-0.28c0.35-0.09,0.59-0.15,0.72-0.17
			c0.31-0.05,0.46,0.03,0.43,0.25c-0.02,0.22-0.1,0.38-0.22,0.49c-0.1,0.13-0.35,0.26-0.74,0.39c-0.4,0.13-0.79,0.24-1.18,0.33
			c0.07,0.46,0.13,0.8,0.2,1.01c0.07-0.01,0.14-0.03,0.22-0.05s0.18-0.04,0.28-0.07c0.41-0.09,0.85-0.22,1.34-0.37
			c0.48-0.15,0.89-0.32,1.23-0.48c0.03-0.01,0.07-0.03,0.11-0.05s0.07-0.04,0.11-0.06c0.08-0.04,0.16-0.07,0.22-0.09
			c0.13-0.04,0.23-0.02,0.28,0.07c0.05,0.08,0.08,0.19,0.09,0.31c0.01,0.11-0.04,0.26-0.15,0.43c-0.06,0.1-0.17,0.2-0.32,0.3
			c-0.1,0.07-0.23,0.14-0.4,0.22c-0.26,0.12-0.58,0.25-0.97,0.37s-0.79,0.23-1.21,0.32c-0.25,0.06-0.58,0.13-0.99,0.22
			c-0.41,0.08-0.71,0.1-0.91,0.06c-0.15-0.03-0.26-0.1-0.34-0.21s-0.15-0.21-0.19-0.32c-0.1-0.2-0.18-0.47-0.24-0.81
			c-0.06-0.33-0.11-0.68-0.14-1.04s-0.04-0.71-0.03-1.05s0.04-0.62,0.1-0.84c0.05-0.2,0.12-0.36,0.2-0.49
			C233.29,191.07,233.38,190.99,233.49,190.94z"/>
		<path d="M239.24,190.85c0.03-0.19,0.07-0.33,0.11-0.4c0.04-0.07,0.19-0.2,0.43-0.37c0.65-0.46,1.38-0.83,2.2-1.12
			c0.82-0.29,1.5-0.33,2.04-0.1c0.25,0.11,0.43,0.29,0.56,0.55c0.12,0.26,0.09,0.57-0.11,0.92c-0.08,0.15-0.18,0.28-0.31,0.41
			c-0.13,0.12-0.24,0.25-0.34,0.39c-0.09,0.12-0.13,0.24-0.13,0.34c0,0.08,0.01,0.14,0.03,0.2s0.05,0.11,0.08,0.15
			c0.03,0.05,0.08,0.08,0.13,0.11c0.06,0.03,0.11,0.06,0.17,0.08c0.05,0.02,0.11,0.04,0.19,0.06c0.04,0.01,0.11,0.02,0.21,0.04
			c0.03,0.01,0.07,0.01,0.1,0.02c0.04,0,0.07,0.01,0.11,0.01c0.09,0.01,0.16,0.02,0.2,0.02c0.14,0.02,0.15,0.11,0.04,0.27
			c-0.09,0.13-0.2,0.28-0.35,0.45c-0.15,0.17-0.29,0.3-0.41,0.41c-0.16,0.15-0.34,0.22-0.53,0.22c-0.18-0.04-0.41-0.17-0.71-0.38
			c-0.29-0.21-0.53-0.37-0.7-0.49c-0.1-0.06-0.24-0.07-0.41-0.05s-0.33,0.11-0.47,0.26c-0.16,0.16-0.23,0.39-0.22,0.69
			s0.02,0.52,0.04,0.66c0.01,0.09-0.01,0.15-0.05,0.19c-0.04,0.04-0.11,0.08-0.2,0.12c-0.11,0.04-0.21,0.08-0.31,0.1
			c-0.1,0.02-0.2,0.05-0.28,0.09c-0.07,0.02-0.15,0.03-0.22,0.04c-0.08,0.01-0.14-0.01-0.19-0.05c-0.11-0.07-0.21-0.29-0.32-0.65
			s-0.18-0.61-0.21-0.75c0-0.02-0.01-0.05-0.01-0.08c-0.01-0.03-0.01-0.05-0.02-0.08c-0.07-0.33-0.12-0.7-0.16-1.1
			C239.17,191.63,239.18,191.24,239.24,190.85z M242.59,189.88c-0.4,0.03-0.82,0.18-1.27,0.44c-0.22,0.13-0.37,0.29-0.46,0.49
			c-0.05,0.12-0.07,0.28-0.05,0.48c0.02,0.21,0.06,0.34,0.14,0.39c0.16,0.11,0.39,0.12,0.69,0c0.15-0.06,0.3-0.12,0.46-0.2
			s0.31-0.17,0.45-0.27c0.24-0.17,0.41-0.38,0.53-0.63s0.1-0.45-0.05-0.59C242.91,189.9,242.77,189.86,242.59,189.88z"/>
	</g>
	<g>
		<path class="st26" d="M215.65,198.34c1,0.26,2,0.49,3.01,0.68c0.01,0.19,0.02,0.39,0.03,0.58c-0.63-0.12-1.26-0.25-1.88-0.4
			c0.01,0.15,0.02,0.29,0.03,0.44c0.58,0.13,1.16,0.26,1.74,0.37c0.01,0.19,0.02,0.37,0.03,0.56c-0.58-0.11-1.16-0.23-1.73-0.37
			c0.01,0.18,0.02,0.36,0.04,0.54c0.64,0.15,1.28,0.28,1.92,0.4c0.01,0.21,0.02,0.41,0.03,0.62c-1.01-0.19-2.01-0.41-3.01-0.66
			C215.79,200.19,215.72,199.27,215.65,198.34z"/>
		<path class="st26" d="M219.33,199.15c0.35,0.06,0.71,0.12,1.06,0.18c0.48,0.57,0.96,1.14,1.44,1.69c-0.02-0.5-0.04-1-0.05-1.5
			c0.36,0.04,0.72,0.09,1.07,0.12c0.03,0.9,0.05,1.8,0.08,2.7c-0.35-0.03-0.7-0.07-1.05-0.11c-0.47-0.55-0.94-1.11-1.42-1.67
			c0.02,0.5,0.04,1,0.07,1.5c-0.35-0.05-0.7-0.11-1.05-0.17C219.43,200.97,219.38,200.06,219.33,199.15z"/>
		<path class="st26" d="M225.85,202.08c-0.43-0.01-0.85-0.03-1.28-0.06c-0.06,0.14-0.11,0.29-0.17,0.43
			c-0.38-0.02-0.76-0.05-1.15-0.09c0.43-0.86,0.87-1.72,1.32-2.59c0.42,0.03,0.83,0.05,1.25,0.07c0.47,0.91,0.94,1.81,1.39,2.7
			c-0.39,0-0.78-0.01-1.18-0.02C225.98,202.38,225.92,202.23,225.85,202.08z M225.61,201.5c-0.14-0.33-0.28-0.65-0.42-0.98
			c-0.13,0.31-0.26,0.63-0.39,0.94C225.08,201.47,225.35,201.49,225.61,201.5z"/>
		<path class="st26" d="M227.59,202.55c0-0.89,0.01-1.78,0.01-2.66c0.64,0,1.27-0.01,1.91-0.03c0.35-0.01,0.62-0.01,0.81,0.03
			c0.19,0.03,0.33,0.1,0.45,0.21c0.11,0.11,0.16,0.25,0.16,0.42c0,0.15-0.05,0.28-0.14,0.39s-0.21,0.21-0.36,0.28
			c-0.1,0.05-0.23,0.09-0.4,0.13c0.13,0.03,0.23,0.05,0.29,0.08c0.04,0.02,0.1,0.06,0.18,0.13c0.08,0.07,0.13,0.12,0.15,0.15
			c0.18,0.24,0.35,0.48,0.52,0.73c-0.42,0.03-0.84,0.06-1.27,0.09c-0.19-0.26-0.39-0.52-0.59-0.78c-0.07-0.1-0.14-0.17-0.2-0.2
			c-0.08-0.04-0.17-0.06-0.28-0.05c-0.03,0-0.07,0-0.1,0c0,0.36-0.01,0.72-0.01,1.08C228.34,202.54,227.96,202.55,227.59,202.55z
			 M228.73,200.95c0.16,0,0.32-0.01,0.48-0.01c0.05,0,0.15-0.02,0.3-0.05c0.08-0.01,0.14-0.04,0.19-0.09s0.07-0.1,0.07-0.16
			c0-0.09-0.04-0.15-0.11-0.19c-0.07-0.04-0.22-0.06-0.42-0.05c-0.17,0.01-0.33,0.01-0.5,0.01
			C228.74,200.59,228.74,200.77,228.73,200.95z"/>
		<path class="st26" d="M233.29,201.23c0.01-0.18,0.02-0.36,0.02-0.55c0.58-0.07,1.16-0.15,1.74-0.25
			c-0.02,0.37-0.04,0.75-0.07,1.12c-0.34,0.22-0.64,0.37-0.89,0.47c-0.26,0.1-0.56,0.17-0.91,0.21c-0.43,0.05-0.78,0.04-1.04-0.04
			c-0.27-0.08-0.47-0.22-0.62-0.42c-0.14-0.2-0.21-0.43-0.2-0.71c0.01-0.29,0.1-0.55,0.27-0.77c0.17-0.23,0.42-0.41,0.75-0.55
			c0.25-0.11,0.59-0.19,1.01-0.24c0.41-0.05,0.71-0.06,0.91-0.04s0.36,0.08,0.49,0.17s0.22,0.21,0.27,0.37
			c-0.37,0.1-0.73,0.2-1.1,0.3c-0.04-0.09-0.11-0.16-0.22-0.2s-0.24-0.05-0.41-0.03c-0.25,0.03-0.45,0.11-0.6,0.25
			c-0.15,0.14-0.23,0.34-0.24,0.61c-0.01,0.28,0.06,0.48,0.2,0.59s0.35,0.14,0.61,0.11c0.13-0.02,0.25-0.04,0.36-0.09
			c0.12-0.04,0.25-0.1,0.4-0.19c0-0.08,0.01-0.17,0.01-0.25C233.79,201.16,233.54,201.19,233.29,201.23z"/>
		<path class="st26" d="M235.43,199.25c0.42-0.07,0.84-0.14,1.26-0.22c0.22,0.25,0.45,0.49,0.67,0.74c0.27-0.35,0.53-0.69,0.8-1.04
			c0.41-0.09,0.83-0.19,1.24-0.3c-0.52,0.62-1.03,1.24-1.54,1.85c-0.03,0.36-0.06,0.73-0.09,1.09c-0.37,0.08-0.74,0.16-1.11,0.24
			c0.03-0.37,0.05-0.73,0.08-1.1C236.31,200.11,235.87,199.68,235.43,199.25z"/>
	</g>
	<path d="M226.39,210.48c-0.39-0.42-0.96-0.52-1.5-0.56c-1.14-0.1-2.29,0.02-3.39,0.34c-0.02-0.16-0.03-0.32-0.05-0.48
		c0-0.03-0.02-0.06-0.02-0.09c0.13-0.03,0.25-0.06,0.36-0.07c0.31-0.05,0.62-0.09,0.92-0.13c0.33-0.04,0.66-0.07,0.99-0.1
		c0.18-0.01,0.36-0.03,0.53-0.04c0,0,0.2-0.02,0.13-0.02c0.18-0.01,0.25,0.05,0.44-0.01c0.43-0.15,0.67-0.73,0.28-1.08
		c-0.14-0.13-0.3-0.22-0.5-0.22c-0.12,0-0.22,0.04-0.33,0.06c-0.18,0.04-0.38,0.06-0.57,0.09c-0.35,0.06-0.7,0.12-1.05,0.2
		s-0.7,0.16-1.04,0.26c-0.35,0.1-0.85,0.17-1.12,0.43c-0.18,0.18-0.13,0.46,0.06,0.59c-0.12,0.37-0.1,0.88-0.22,1.17
		c-0.12,0.27-0.14,0.55,0.06,0.8c0.17,0.22,0.48,0.35,0.76,0.26c1.08-0.36,2.19-0.54,3.33-0.49c0.2,0.01,0.53,0.03,0.63,0.06
		c0.01,0,0.03,0.01,0.06,0.01c-0.04,0.06-0.05,0.08-0.1,0.14c-0.12,0.15-0.27,0.26-0.43,0.36c-0.79,0.49-1.82,0.65-2.74,0.7
		c-0.46,0.02-0.88,0.02-1.31-0.09c-0.2-0.06-0.33-0.11-0.5-0.23c0.07,0.05-0.17-0.13-0.13-0.11c-0.02-0.02-0.02-0.03-0.03-0.04
		c-0.04-0.16-0.13-0.32-0.25-0.41c-0.24-0.18-0.49-0.17-0.75-0.05c-0.73,0.32-0.42,1.24,0.01,1.66c0.37,0.36,0.89,0.59,1.4,0.7
		c1.15,0.25,2.4,0.09,3.52-0.19c1.02-0.26,2.07-0.75,2.63-1.69C226.77,211.66,226.86,210.97,226.39,210.48z"/>
	<g>
		<path d="M228.96,209.98C228.95,209.98,228.95,209.98,228.96,209.98C228.93,209.94,228.93,209.96,228.96,209.98z"/>
		<path d="M229.58,209.1c-0.27-0.28-0.68-0.49-1.06-0.55c-0.25-0.04-0.49-0.06-0.74,0.03c-0.24,0.08-0.45,0.2-0.64,0.38
			c-0.39,0.36-0.56,0.91-0.55,1.42c0,0.25,0.04,0.5,0.11,0.73c0.04,0.14,0.11,0.28,0.18,0.41c0.06,0.11,0.16,0.17,0.26,0.24
			c0.04,0.07,0.06,0.15,0.12,0.22c0.34,0.4,0.88,0.5,1.37,0.39c0.49-0.11,0.92-0.44,1.19-0.85
			C230.29,210.8,230.19,209.72,229.58,209.1z M228.96,210.74c0,0.01-0.01,0.02-0.01,0.02c-0.01,0.03-0.03,0.06-0.05,0.09
			s-0.04,0.06-0.06,0.1c-0.01,0.01-0.01,0.02-0.02,0.03c-0.04,0.04-0.08,0.09-0.12,0.13c-0.01,0.01-0.02,0.02-0.04,0.03
			c-0.03,0.02-0.06,0.04-0.08,0.06c-0.04,0.02-0.07,0.04-0.11,0.06c0,0,0,0-0.01,0c-0.04,0.01-0.08,0.03-0.13,0.04
			c-0.01,0-0.02,0-0.03,0.01c-0.04,0-0.08,0-0.12,0c-0.01,0,0,0-0.01,0l0,0c-0.04-0.01-0.07-0.01-0.11-0.02
			c-0.01,0-0.02-0.01-0.03-0.01c-0.02-0.01-0.03-0.02-0.04-0.02l-0.01-0.01c-0.02-0.02-0.04-0.03-0.05-0.05c0,0-0.01-0.01-0.01-0.02
			c-0.01-0.01-0.02-0.02-0.02-0.04c-0.01-0.06-0.02-0.11-0.03-0.17c-0.01-0.07-0.03-0.15-0.04-0.22c-0.01-0.03-0.01-0.06-0.02-0.1
			c0-0.01,0-0.01,0-0.02c-0.01-0.07-0.01-0.15-0.01-0.22c0-0.04,0-0.08,0.01-0.12c0.01-0.06,0.03-0.13,0.05-0.19
			c0,0,0-0.01,0.01-0.02c0.01-0.02,0.02-0.05,0.04-0.07c0.01-0.02,0.03-0.04,0.04-0.06c0.01-0.01,0.01-0.02,0.02-0.02
			c0.02-0.02,0.04-0.04,0.06-0.06l0,0c0.02-0.01,0.05-0.03,0.07-0.04c0.06-0.02,0.11-0.03,0.17-0.05c0.05-0.01,0.1-0.02,0.15-0.03
			c0.04,0,0.07,0,0.11,0c0.03,0,0.05,0,0.08,0c0.03,0.01,0.05,0.01,0.08,0.02c0.01,0,0,0,0.01,0l0,0c0.06,0.03,0.11,0.06,0.16,0.09
			c0.03,0.02,0.05,0.05,0.08,0.07c0.02,0.02,0.04,0.05,0.06,0.07c-0.01-0.01-0.01-0.01-0.02-0.02c0.01,0.01,0.01,0.02,0.02,0.03
			c0,0.01,0.01,0.02,0.02,0.03c0.01,0.03,0.02,0.05,0.03,0.08s0.01,0.06,0.02,0.1c0,0.07,0.01,0.15,0,0.22v0.01
			c-0.01,0.03-0.01,0.06-0.02,0.08C229.01,210.61,228.98,210.67,228.96,210.74z"/>
	</g>
	<g>
		<path d="M234.04,210.27c0-0.12-0.01-0.24-0.03-0.35c-0.07-0.41-0.31-0.83-0.63-1.1c-0.19-0.16-0.39-0.28-0.63-0.37
			c-0.07-0.03-0.15-0.04-0.22-0.05c0,0,0,0-0.01-0.01c-0.36-0.28-0.94-0.21-1.3,0.02c-0.41,0.26-0.67,0.66-0.84,1.1
			c-0.07,0.19-0.11,0.38-0.15,0.58c-0.05,0.29-0.11,0.59-0.01,0.87c0.19,0.55,0.79,0.86,1.31,1.07c0.48,0.2,0.97,0.16,1.44-0.07
			c0.35-0.16,0.67-0.47,0.85-0.81c0.1-0.2,0.17-0.4,0.2-0.61c0-0.03,0.01-0.04,0.01-0.05c0.01-0.04,0.01-0.08,0.01-0.11
			C234.04,210.34,234.04,210.3,234.04,210.27z M232.84,210.38c-0.03,0.03-0.07,0.07-0.1,0.1c-0.01,0.01-0.03,0.03-0.05,0.04
			c-0.05,0.03-0.1,0.06-0.16,0.09c0.02-0.01,0.02-0.01,0.05-0.02c-0.02,0-0.04,0.01-0.05,0.02l-0.01,0.01
			c-0.02,0.01-0.03,0.01-0.03,0.01c-0.04,0.01-0.07,0.02-0.11,0.03c-0.02,0-0.04,0-0.05,0c-0.06,0-0.12,0-0.18,0
			c0.02,0,0.02,0,0.05,0.01c-0.02-0.01-0.03-0.01-0.05-0.01c-0.01,0-0.01,0-0.02,0c-0.05,0-0.05-0.01-0.03-0.01
			c-0.03-0.01-0.06-0.02-0.1-0.03c0.01,0,0.01,0.01,0.01,0.01s-0.02-0.01-0.03-0.02h-0.01c-0.06-0.02-0.04-0.02-0.02-0.01
			c-0.11-0.06-0.34-0.19-0.36-0.2l0,0c0-0.02,0-0.04,0-0.06c0.01-0.08,0.01-0.16,0.02-0.24c0-0.01,0-0.03,0.01-0.06
			c0.01-0.05,0.01-0.1,0.02-0.14c-0.01-0.03,0.02-0.11,0.03-0.14c0.02-0.07,0.03-0.14,0.06-0.2c0.02-0.06,0.07-0.1-0.01,0.01
			c0.02-0.03,0.04-0.07,0.05-0.11c0.02-0.03,0.03-0.06,0.05-0.08c0.01-0.01,0.01-0.01,0.01-0.02c0,0,0,0,0.01,0
			c0.02-0.02,0.04-0.04,0.06-0.05c0.05,0.03,0.08,0.07,0.14,0.09c0.01,0,0.02,0.01,0.03,0.01c0.04,0.02,0.08,0.04,0.14,0.06
			c0.04,0.01,0.09,0.01,0.13,0.02c0.02,0,0.04,0.01,0.06,0.01c0.02,0.01,0.05,0.01,0.07,0.02c0,0,0.02,0.01,0.03,0.01
			c0.02,0.01,0.04,0.02,0.04,0.02c0.03,0.02,0.07,0.04,0.1,0.06c0,0,0.02,0.02,0.04,0.03c0.01,0.01,0.03,0.02,0.03,0.02
			c0.03,0.02,0.09,0.08,0.11,0.12l0,0c0.02,0.03,0.04,0.05,0.05,0.08c0.02,0.03,0.03,0.06,0.05,0.08c0,0.01,0,0,0.01,0.01l0,0
			c0.01,0.02,0.01,0.05,0.02,0.07c0,0.01,0,0.02,0,0.02c0.01,0.03,0,0.12,0,0.14s-0.01,0.04-0.01,0.06c0,0.01,0,0,0,0.01
			c-0.02,0.03-0.03,0.06-0.05,0.08C232.86,210.35,232.85,210.37,232.84,210.38z"/>
		<path d="M231.97,210.62c0.01,0,0.01,0,0.02,0.01c-0.01-0.01-0.03-0.02-0.05-0.02C231.96,210.62,231.96,210.62,231.97,210.62z"/>
		<path d="M232.48,210.64L232.48,210.64c0.02,0,0.03-0.01,0.04-0.01l0,0C232.51,210.63,232.48,210.64,232.48,210.64z"/>
		<path d="M234.02,210.49c0,0.02,0,0.04-0.01,0.06C234.02,210.52,234.03,210.42,234.02,210.49z"/>
		<path d="M232.1,210.66c0.01,0,0.03,0.01,0.04,0.01l0,0C232.12,210.66,232.1,210.66,232.1,210.66
			C232.09,210.66,232.1,210.66,232.1,210.66z"/>
	</g>
	<path d="M234.8,213.85c-0.08-0.36-0.24-0.71-0.42-1.04c-0.12-0.21-0.39-0.18-0.52,0c-0.11,0.16-0.19,0.34-0.29,0.51
		c-0.01-0.07-0.02-0.13-0.04-0.2c-0.05-0.18-0.29-0.3-0.46-0.19c-0.16,0.12-0.3,0.26-0.43,0.4c-0.01-0.11-0.04-0.21-0.13-0.29
		c-0.14-0.13-0.37-0.15-0.51,0c-0.11,0.12-0.14,0.24-0.12,0.4c0.01,0.08,0.02,0.16,0.03,0.25c0.02,0.17,0.05,0.34,0.07,0.51
		c0.02,0.16,0.04,0.33,0.07,0.49c0.02,0.18,0.05,0.38,0.19,0.51c0.06,0.05,0.15,0.06,0.21,0c0.12-0.13,0.14-0.31,0.15-0.49
		l0.02-0.51c0.02-0.02,0.04-0.03,0.06-0.05c0.03-0.04,0.06-0.08,0.09-0.11c0.07-0.08,0.11-0.15,0.19-0.23
		c0.01-0.01,0.01-0.01,0.02-0.02c0.02,0.32,0.03,0.65,0,0.96c-0.02,0.19,0.18,0.37,0.36,0.36c0.22-0.01,0.34-0.16,0.36-0.36
		c0-0.02,0.01-0.05,0-0.07c0-0.04,0-0.05,0-0.03c-0.01,0.02-0.01,0.01,0.01-0.03c0-0.02,0.01-0.04,0.01-0.05
		c0.02-0.08,0.04-0.16,0.06-0.23c0.05-0.15,0.1-0.29,0.15-0.44c0.04-0.09,0.09-0.19,0.13-0.28c0.04,0.12,0.07,0.24,0.1,0.37
		c0.02,0.12,0.04,0.28,0.04,0.43c0,0.08-0.01,0.17-0.01,0.25c0,0.1,0.03,0.2,0.06,0.29c0.08,0.21,0.36,0.26,0.48,0.06
		c0.12-0.19,0.13-0.38,0.12-0.6C234.87,214.24,234.84,214.04,234.8,213.85z"/>
	<path d="M235.85,213.5c-0.03-0.25-0.05-0.5-0.07-0.75c-0.02-0.26-0.07-0.51-0.1-0.77c-0.02-0.15-0.23-0.2-0.28-0.04
		c-0.3,1.04-0.27,2.23,0.06,3.25c0.13,0.42,0.74,0.25,0.66-0.18C236.03,214.52,235.92,214.01,235.85,213.5z"/>
</g>
</svg>
