<?xml version="1.0" encoding="utf-8"?>
<!-- Generator: Adobe Illustrator 28.0.0, SVG Export Plug-In . SVG Version: 6.00 Build 0)  -->
<svg version="1.1" id="Layer_1" xmlns="http://www.w3.org/2000/svg" xmlns:xlink="http://www.w3.org/1999/xlink" x="0px" y="0px"
	 viewBox="0 0 150 150" style="enable-background:new 0 0 150 150;" xml:space="preserve">
<style type="text/css">
	.st0{stroke:#000000;stroke-width:2;stroke-linecap:round;stroke-linejoin:round;stroke-miterlimit:10;}
	.st1{fill:#282828;}
	.st2{fill:url(#SVGID_1_);}
	.st3{fill:url(#SVGID_00000153696700884139461340000016674525469459476911_);}
	.st4{fill:url(#SVGID_00000158026740604268212450000014772088844969452423_);}
	.st5{fill:url(#SVGID_00000028327212664040951110000012602401043861279376_);}
	.st6{fill:url(#SVGID_00000118393943315387572270000010769935509940781223_);}
	.st7{fill:url(#SVGID_00000017487359700555395340000006582062031610267308_);}
	.st8{fill:url(#SVGID_00000016791284318871515600000015109222272451956909_);}
	.st9{fill:url(#SVGID_00000170965246505387702820000004799579405536105897_);}
	.st10{fill:#444754;}
	.st11{fill:url(#SVGID_00000102529199597652245000000013706149882868586887_);stroke:#000000;stroke-miterlimit:10;}
	.st12{fill:url(#SVGID_00000073684622187388064140000008051882148990185627_);}
	.st13{fill:url(#SVGID_00000168816947316904507720000000553447087755890584_);}
	.st14{fill:#7F7F7E;}
	.st15{fill:#70737F;}
	.st16{fill:#FAF7F5;}
</style>
<g id="Classic_Meme_Pants__x23_1">
	<g>
		<path class="st0" d="M120.12,118.87c-0.19-0.51-0.43-1-0.61-1.51c-0.21-0.6-0.31-1.22-0.44-1.84c-0.23-1.15-0.57-2.27-0.89-3.4
			c-0.34-1.16-0.67-2.33-0.9-3.52c-0.21-1.1-0.42-2.11-0.86-3.15c-0.41-0.97-0.88-1.93-1.1-2.97c-0.26-1.18-0.07-2.43-0.11-3.63
			c-0.09-2.34-0.75-4.54-1.29-6.81c-1.15-4.85-2.55-9.63-3.92-14.42c-0.29-1.01-0.53-2.05-0.99-3c-0.25-0.53-0.63-1-0.82-1.56
			c-0.19-0.54-0.22-1.12-0.23-1.68c-0.01-0.99,0.08-2.02-0.22-2.98c-0.15-0.47-0.4-0.87-0.68-1.27c-0.38-0.55-0.62-1.12-0.83-1.76
			c-0.37-1.16-0.73-2.32-1.01-3.51c-0.13-0.57-0.27-1.15-0.35-1.73c-0.1-0.68,0.02-1.32,0.11-2c0.29-2.19,0.05-4.45-0.32-6.62
			c-0.38-2.29-0.95-4.55-1.44-6.82c-0.25-1.14-0.48-2.29-0.65-3.45c-0.17-1.12-0.21-2.25-0.46-3.35c-1.13-4.97-2.23-9.95-2.89-15.01
			c-0.16-1.19-0.28-2.39-0.38-3.58c0.58-0.44,0.6-1.21,0.51-1.92c-0.18-1.4-0.45-2.78-0.39-4.2c0.04-1.07,0.26-2.21-0.82-2.85
			c-0.52-0.31-1.55-0.7-2.03-0.22c-1.91-0.48-3.87-0.9-5.8-1.29c-2.03-0.42-4.08-0.75-6.13-1.02c-4.11-0.53-8.26-0.73-12.4-0.63
			c-0.54-0.6-1.34-0.93-2.17-0.74c-0.57,0.13-0.99,0.55-1.59,0.6c-0.75,0.06-1.52,0-2.26-0.01C64.27,7,62.8,6.98,61.32,6.98
			c-0.6,0-1.19,0.01-1.76,0.21c-0.63,0.21-1.16,0.42-1.84,0.39c-1.12-0.04-2.4-0.47-3.48,0.02c-0.28,0.13-0.46,0.3-0.58,0.51
			c-1.08,0.06-2.11,0.16-3.16,0.43c-0.56,0.14-1.11,0.28-1.67,0.43c-0.59,0.15-1.08,0.36-1.65,0.12c-0.55-0.23-1.61-0.13-2.02,0.36
			c-0.1,0.12-0.09,0.28-0.17,0.4c-0.17,0.26-0.53,0.37-0.8,0.48c-0.56,0.23-1.11,0.47-1.67,0.7c-0.84,0.35-1.7,0.67-2.52,1.06
			c-0.58,0.27-1.17,0.64-1.47,1.23c-0.42,0.82,0.12,1.66-0.13,2.49c-0.13,0.44-0.38,0.83-0.48,1.28c-0.11,0.49-0.07,0.99,0,1.48
			c0.3,2.32,0.64,4.63,0.99,6.94c0.15,1.01,0.38,2,0.59,3c0.01,0.03,0.01,0.05,0.02,0.08c0.03,0.12,0.05,0.24,0.08,0.36
			c0.23,1.14,0.19,2.3,0.33,3.45c0.14,1.11,0.51,2.18,0.71,3.28c0.22,1.2,0.28,2.43,0.39,3.65c0.2,2.28,0.69,4.48,1.28,6.69
			c0.6,2.22,1.29,4.42,1.79,6.66c0.51,2.29,0.9,4.6,1.18,6.93c0.28,2.28,0.46,4.57,0.58,6.86c0.12,2.23,0.15,4.47,0.51,6.67
			c0.33,2.02,1.09,4.04,1.95,5.89c0.23,0.49,0.41,0.98,0.42,1.52c0.01,0.52-0.12,1.04-0.14,1.56c-0.03,0.88,0.31,1.48,0.86,2.13
			c0.41,0.49,0.54,0.86,0.44,1.5c-0.08,0.51-0.14,0.98-0.08,1.49c0.12,1.01,0.53,1.97,0.72,2.97c0.43,2.28,0.49,4.66,0.75,6.97
			c0.26,2.25,0.51,4.52,0.94,6.74c0.21,1.1,0.5,2.2,0.56,3.32s0.03,2.24,0.09,3.36c0.13,2.16,0.33,4.35,1.21,6.35
			c0.47,1.08,1.06,1.94,0.52,3.12c-0.37,0.81-0.51,1.42-0.25,2.29c0.33,1.12,0.56,2.25,0.66,3.42c0.04,0.53,0.09,1.06,0.08,1.59
			c0,0.45-0.11,0.88-0.14,1.32c-0.04,0.62,0.16,1.2,0.76,1.47c0.25,0.11,0.57,0.13,0.85,0.2c0.23,0.19,0.45,0.39,0.66,0.6
			c0.18,0.46,0.2,1.08,0.24,1.43c0.23,2.27,0.31,4.57,0.55,6.84c0.07,0.64,0.22,1.28,0.7,1.75c0.53,0.52,1.27,0.67,1.97,0.84
			c2.15,0.53,4.31,0.8,6.52,0.9c1.93,0.08,3.86-0.52,5.64-1.21c0.6-0.23,1.25-0.52,1.64-1.07c0.52-0.74,0.22-1.71,0.13-2.54
			c-0.24-2.26-0.37-4.59-0.34-6.87c0.01-1.05,0.22-2.21,0.87-3.06c0.56-0.72,1.04-1.19,1.29-2.09c0.28-0.99,0.46-2.01,0.52-3.03
			c0.03-0.49,0.06-1,0.02-1.49c-0.03-0.52-0.21-1.01-0.21-1.54c-0.02-1.05,0.11-2.09-0.01-3.14c-0.06-0.5-0.22-0.99-0.24-1.49
			c-0.03-0.56,0.06-1.11,0.11-1.66c0.11-1.12-0.04-2.2-0.14-3.31c-0.1-1.16,0.03-2.23,0.25-3.37c0.43-2.21,0.17-4.46,0.02-6.69
			c-0.15-2.34-0.32-4.67-0.56-7c-0.24-2.28-0.55-4.54-0.97-6.79c-0.22-1.2-0.46-2.4-0.54-3.62c-0.08-1.17,0.03-2.32,0.1-3.49
			c0.14-2.24-0.25-4.31-0.94-6.44c-0.67-2.06-1.48-4.11-1.73-6.27c-0.13-1.11-0.16-2.23-0.28-3.34c-0.13-1.14-0.24-2.27-0.31-3.41
			c-0.14-2.34-0.14-4.69-0.27-7.04c-0.06-1.02,0.05-2.05-0.08-3.06c-0.04-0.32-0.1-0.64-0.16-0.96c0.05,0.09,0.1,0.18,0.14,0.27
			c0.64,1.27,1.2,2.58,1.72,3.91c1,2.54,1.86,5.14,2.94,7.65c1.11,2.59,2.59,5.01,3.79,7.56c1.22,2.59,2.14,5.23,2.94,7.98
			c0.79,2.74,1.97,5.31,3,7.96c0.5,1.29,0.6,2.75,0.83,4.11c0.25,1.48,0.52,2.96,0.79,4.43c0.52,2.78,1.15,5.46,2.27,8.06
			c1.12,2.62,2.21,5.19,3.07,7.92c0.84,2.7,1.74,5.41,2.17,8.21c0.39,2.53,0.18,5.54,1.56,7.81c0.63,1.03,1.64,1.83,2.51,2.66
			c0.89,0.86,1.96,1.4,2.36,2.64c0.89,2.72,1.34,5.64,1.82,8.45c0.17,0.98,0.16,2.1,0.71,2.96c0.01,0.02,0.03,0.03,0.04,0.04
			s0.01,0.03,0.02,0.04c0.59,0.7,1.5,0.65,2.31,0.41c1.16-0.34,2.27-0.63,3.48-0.74c2.3-0.19,4.76-0.08,7.05,0.23
			c0.55,0.08,1.25,0.24,1.71-0.17c0.61-0.54,0.3-1.79,0.28-2.49c-0.04-1.28-0.07-2.55-0.11-3.83c-0.03-1.2,0.04-2.41-0.07-3.6
			c-0.06-0.62-0.07-1.21-0.01-1.83c0.08-0.76,0.24-1.16,0.78-1.69c0.69-0.68,1.04-1.36,0.95-2.34c-0.11-1.16-0.28-2.4,0.02-3.54
			C120.34,120.7,120.51,119.93,120.12,118.87z"/>
		<g>
			<path id="color_00000035499595032089695030000015032075449478872704_" class="st1" d="M62.11,141.38
				c0.81,0.09,1.63,0.15,2.44,0.3c1.26,0.22,2.61,0.06,3.9,0.13c1.96,0.11,3.82-0.5,5.37-1.69c0.12-0.09,0.25-0.2,0.32-0.33
				c0.1-0.18,0.1-0.4,0.1-0.61c-0.03-2.53-0.49-5.04-0.44-7.57c0.02-1,0.13-2.04,0.6-2.93c0.46-0.88,1.26-1.58,1.58-2.52
				c0.11-0.31,0.16-0.63,0.21-0.96c0.16-1.06,0.59-2.36,0.44-3.43c-0.09-0.67-0.32-1.32-0.34-2c-0.02-0.61,0.02-1.2,0.06-1.81
				c0.04-0.74-0.03-1.51-0.05-2.25c-0.09-2.44-0.19-4.92-0.17-7.36c0.01-1.09,0.09-2.17,0.32-3.24c0.22-0.99,0.1-2.02,0.02-3.03
				c-0.28-3.59-0.22-7.12-0.78-10.69c-0.56-3.58-1.3-7.16-1.29-10.8c0-0.79-0.1-1.51-0.05-2.3c0.06-0.91,0.07-1.83-0.09-2.73
				c-0.12-0.65-0.32-1.27-0.53-1.89c-0.57-1.72-1.03-3.41-1.48-5.15c-0.91-3.59-0.68-7.33-1.14-10.99
				c-0.11-1.52-0.23-3.03-0.34-4.55c-0.07-1,0.09-2,0.09-3.01c0-0.89-0.35-1.62-0.35-2.51c0.31-0.06,0.55,0.25,0.7,0.52
				c2.29,4.08,3.51,8.64,5.27,12.95c0.86,2.1,1.84,4.18,3.17,6.03c1.3,1.82,1.92,3.97,2.54,6.08c0.14,0.47,0.34,0.87,0.45,1.35
				c0.13,0.58,0.26,1.16,0.41,1.74c0.29,1.15,0.62,2.3,1.1,3.38c0.44,1,0.99,1.94,1.41,2.95c1.01,2.45,1.15,5.15,1.51,7.78
				c0.27,2.01,0.68,4,1.22,5.96c1.07,3.89,3.12,7.35,4.4,11.16c1.31,3.88,2.1,7.92,2.7,11.96c0.36,2.4,0.69,5.1,2.8,6.63
				c0.63,0.46,1.21,0.97,1.79,1.5c0.51,0.46,1.03,0.93,1.38,1.52c0.19,0.32,0.32,0.66,0.44,1.01c0.25,0.76,0.41,1.55,0.47,2.34
				c0.03,0.37-0.04,0.79,0.04,1.15c0.07,0.3,0.22,0.6,0.3,0.91c0.42,1.62,0.71,3.27,1.03,4.92c0.12,0.63,0.33,1.36,0.92,1.6
				c0.57,0.23,1.33,0.08,1.92-0.05c0.74-0.16,1.48-0.35,2.23-0.48c1.67-0.29,3.38-0.27,5.06-0.18c0.87,0.05,1.73,0.12,2.6,0.18
				c0.5,0.03,1.7,0.4,1.91-0.2c0.07-0.19,0.06-0.39,0.05-0.59c-0.06-1.46-0.18-2.91-0.3-4.37c-0.05-0.58,0.06-1.13,0.04-1.71
				c-0.01-0.51-0.02-1.01-0.03-1.52c0-0.43,0.06-0.83,0.06-1.25c0-0.8-0.31-1.64,0.01-2.41c0.29-0.72,1.09-1.16,1.32-1.9
				c0.06-0.19,0.08-0.4,0.1-0.6c0.06-0.71-0.01-1.39,0.04-2.11c0.06-0.83,0.15-1.66,0.27-2.49c0.06-0.39,0.12-0.78,0.11-1.17
				c-0.03-0.9-0.45-1.71-0.75-2.54c-0.31-0.84-0.29-1.66-0.46-2.52c-0.33-1.74-0.97-3.4-1.4-5.11c-0.22-0.88-0.43-1.75-0.63-2.63
				c-0.38-1.7-1.48-3.11-1.87-4.78c-0.24-1.02-0.03-2.08,0-3.13c0.09-3.25-1.56-6.14-1.89-9.32c-0.46-4.45-2.43-8.77-3.6-13.07
				c-0.26-0.96-0.52-1.92-0.99-2.79c-0.26-0.5-0.59-0.96-0.78-1.49c-0.25-0.71-0.28-1.59-0.2-2.34c0.08-0.82,0.36-1.57,0.04-2.38
				c-0.22-0.55-0.67-0.97-0.99-1.47c-0.3-0.47-0.49-1-0.67-1.52c-0.73-2.05-1.32-4.04-1.22-6.23c0.09-2,0.11-4.15-0.17-6.14
				c-0.26-1.89-0.53-3.79-0.87-5.67c-0.32-1.78-0.83-3.53-1.15-5.32c-0.52-2.89-0.81-5.81-1.72-8.61c-0.4-1.23-0.41-2.54-0.67-3.8
				c-0.15-0.72-0.39-1.42-0.56-2.13c-0.28-1.2-0.24-2.46-0.54-3.65c-0.29-1.15-0.37-2.33-0.41-3.52c-0.02-0.44-0.18-0.76,0.07-1.18
				c0.15-0.25,0.35-0.48,0.45-0.75c0.13-0.36,0.05-0.76-0.02-1.13c-0.27-1.52-0.41-3.06-0.42-4.6c0-1.01-0.84-3.12-2.26-2.07
				c-0.07,0.05-0.13,0.11-0.21,0.13c-0.06,0.01-0.12-0.01-0.18-0.03c-2.02-0.63-4.15-1.06-6.22-1.5c-2.14-0.47-4.3-0.76-6.45-1.05
				C79.8,7.24,76.34,7.1,72.9,7.28c-0.51,0.03-0.98,0.01-1.44-0.22c-0.42-0.21-0.73-0.54-1.25-0.58c-0.42-0.03-0.81,0.18-1.2,0.34
				c-2.2,0.92-4.7,0.43-7.08,0.29c-0.78-0.04-1.58-0.05-2.34,0.17c-0.37,0.11-0.72,0.27-1.1,0.35c-1.37,0.31-2.85-0.44-4.19-0.02
				c-0.34,0.11-0.71,0.4-0.62,0.74c-0.11-0.38-2.43,0.23-2.72,0.29C49.48,8.97,48,9.51,46.47,9.17c-0.16-0.04-0.32-0.08-0.48-0.03
				c-0.38,0.11-0.45,0.64-0.74,0.91c-0.18,0.17-0.44,0.23-0.69,0.29c-1.22,0.29-2.29,0.82-3.42,1.34c-0.89,0.41-2.03,0.79-2.38,1.83
				c-0.21,0.64-0.05,1.04,0.03,1.68c0.1,0.75-0.44,1.45-0.53,2.2c-0.03,0.3,0,0.6,0.04,0.9c0.3,2.33,0.6,4.67,1.12,6.96
				c0.22,0.98,0.49,1.95,0.57,2.95c0.06,0.78,0.02,1.58,0.11,2.36c0.11,0.89,0.41,1.75,0.52,2.64c0.08,0.67,0.06,1.35,0.16,2.01
				c0.11,0.76,0.38,1.49,0.51,2.25c0.22,1.31,0.02,2.65,0.3,3.95c0.27,1.25,0.56,2.48,0.93,3.72c0.85,2.84,1.8,5.66,2.4,8.57
				c0.89,4.33,1.21,8.76,1.34,13.18c0.04,1.28,0.06,2.56,0.2,3.83c0.19,1.78,0.63,3.44,1.21,5.12c0.24,0.69,0.36,1.46,0.62,2.13
				c0.27,0.68,0.79,1.15,0.89,1.92c0.14,1.08-0.47,2.25,0.01,3.22c0.31,0.62,1.02,1.04,1.11,1.73c0.04,0.29-0.05,0.57-0.1,0.86
				c-0.35,1.88,0.68,3.63,0.86,5.47c0.18,1.87,0.49,3.75,0.65,5.64c0.16,1.97,0.39,3.93,0.69,5.89c0.27,1.81,0.76,3.62,0.83,5.44
				c0.1,2.56-0.08,5.09,0.91,7.52c0.42,1.02,1.28,2.43,1.02,3.57c-0.1,0.43-0.37,0.8-0.53,1.21c-0.31,0.85-0.08,1.79,0.2,2.64
				c0.4,1.24,0.58,2.5,0.64,3.8c0.02,0.52-0.17,1.06-0.12,1.57c0.05,0.51,0.42,0.94,0.78,1.27c0.42,0.38,0.91,0.68,1.26,1.12
				c0.65,0.8,0.75,1.89,0.84,2.91c0.12,1.53,0.24,3.07,0.37,4.6c0.07,0.85,0.19,1.81,0.87,2.33c0.3,0.24,0.69,0.35,1.06,0.43
				C61.05,141.24,61.58,141.32,62.11,141.38z"/>
			
				<linearGradient id="SVGID_1_" gradientUnits="userSpaceOnUse" x1="36.5915" y1="75.6979" x2="116.6665" y2="75.6979" gradientTransform="matrix(1 0 0 -1 0 149.8898)">
				<stop  offset="0" style="stop-color:#1D1D1B"/>
				<stop  offset="0.8736" style="stop-color:#1D1D1B;stop-opacity:0"/>
			</linearGradient>
			<path class="st2" d="M58.96,140.35c0.28,0.53,0.57,0.47,1.1,0.58c1.27,0.25,2.54,0.55,3.83,0.73c2.38,0.33,4.84,0.31,7.14-0.37
				c0.8-0.24,1.58-0.56,2.35-0.9c0.41-0.18,0.66-0.49,0.79-0.93c0.08-0.3,0.1-0.61,0.12-0.91c0.01-0.13,0-0.28-0.11-0.34
				c-0.07-0.04-0.16-0.02-0.23,0c-0.74,0.19-1.52,0.5-2.29,0.5c-1.31,0.16-2.63,0.09-3.94,0.01c-0.39-0.02-0.83,0.12-1.18-0.16
				c-0.32-0.26-0.31-0.75-0.54-1.1c-0.27-0.42-0.8-0.55-1.28-0.65c-1.11-0.23-1.64-1.01-2.31-1.82c0.64-0.48,1.54-0.3,2.33-0.16
				c2.64,0.47,5.38,0.26,8,0.83c-0.04-0.64-0.48-1.2-1.02-1.56c-0.54-0.35-1.17-0.53-1.79-0.71c-0.99-0.28-1.99-0.56-2.98-0.84
				c-0.71-0.2-1.43-0.4-2.08-0.76c-0.52-0.29-0.99-0.67-1.45-1.05c-0.77-0.63-1.54-1.27-2.18-2.03c-0.3-0.36-0.61-0.75-0.81-1.18
				c-0.15-0.33-0.11-0.73-0.39-0.99c0.6,0.08,1.14,0.39,1.68,0.65c2.67,1.29,5.7,1.72,8.36,3.02c0.75,0.37,1.5,0.81,2.33,0.8
				c0.13,0,0.27-0.02,0.37-0.11c0.08-0.07,0.11-0.17,0.15-0.26c0.63-1.73,1.12-3.92,0.47-5.72c-0.37-1.03-1.14-1.87-1.54-2.88
				c-0.13-0.32-0.21-0.69-0.1-1.01c0.1-0.29,0.37-0.48,0.67-0.48c0.08,0,0.6,0.28,0.64,0.16c0.24-0.85-0.99-16.62-1.48-17.68
				c-0.2-0.44-0.55-0.79-0.89-1.14c-1.02-1.03-2.06-2.07-3.27-2.87c-0.59-0.39-1.25-0.77-1.55-1.41c-0.19-0.4-0.21-0.86-0.31-1.29
				s2.7,0.22,4.29,1.11c0.42,0.24,0.89,0.5,1.37,0.4c-0.26-1.64-0.45-3.31-0.53-4.97c-0.02-0.42-0.12-0.53-0.44-0.78
				c-0.29-0.22-0.61-0.41-0.93-0.59c-0.56-0.33-1.2-0.73-1.83-0.9c-0.4-0.11-1.06-0.14-1.27-0.57c-0.16-0.32,0.06-0.69,0.24-1.01
				c0.3-0.54,0.48-1.14,0.53-1.76c0.03-0.33,0.01-0.68-0.14-0.97c-0.09-0.16-0.21-0.3-0.34-0.44c-0.16-0.18-0.33-0.35-0.49-0.53
				c-0.06-0.07-0.13-0.14-0.23-0.17c-0.18-0.05-0.35,0.08-0.49,0.2c-1.33,1.17-2.72,2.31-4.33,3.06c-0.51,0.24-0.85,0.24-1.34,0.01
				c-0.46-0.21-1.01-0.24-1.46-0.46c-0.39-0.19-0.62-0.37-1.09-0.29c-0.43,0.08-1.11,0.34-1.45,0.61c-0.04,0.03-0.08,0.07-0.11,0.12
				s-0.04,0.11-0.05,0.17c-0.07,0.31-0.13,0.61-0.2,0.92c-0.02,0.08-0.04,0.17-0.08,0.24c-0.1,0.19-0.34,0.28-0.56,0.27
				s-0.42-0.09-0.62-0.18c-0.27-0.12-0.54-0.23-0.82-0.35c0.24,0.07,0.48,0.11,0.73,0.11c0.21,0,0.46-0.05,0.57-0.23
				c0.15-0.27,0.09-0.71,0.16-1.01c0.02-0.1,0.05-0.21,0.12-0.29c0.07-0.09,0.18-0.14,0.29-0.18c1.04-0.46,2.13-0.78,3.16-1.23
				c0.87-0.37,1.73-0.74,2.57-1.17c0.76-0.39,1.44-0.92,2.22-1.31c1.6-0.8,3.35-1.31,5.13-1.51c-0.13-0.65-0.71-1.1-1.21-1.53
				c-1.12-0.96-2.06-2.13-2.77-3.43c-0.05-0.09-0.09-0.18-0.06-0.27c0.03-0.07,0.09-0.12,0.16-0.16c0.66-0.41,1.42-0.62,2.17-0.8
				c0.19-0.04,0.38-0.09,0.57-0.05c0.57,0.1,0.79,0.8,1.2,1.22c0.72,0.75,2.14,0.68,2.57,1.63c0.21,0.45,0.1,1.01,0.35,1.45
				c0.37,0.65,1.32,0.71,1.82,1.27c0.47-2.74,0.35-5.67-0.91-8.14c-0.28-0.55-0.63-1.08-1.14-1.43c-0.15-0.1-0.32-0.19-0.45-0.33
				c-0.13-0.13-0.21-0.31-0.29-0.47c-0.43-0.9-0.86-1.8-1.29-2.69c-0.21-0.44-0.42-0.88-0.63-1.31c-0.18-0.37-0.44-0.75-0.46-1.17
				c-0.04-0.67-0.07-1.34-0.11-2.01c-1.38-0.55-2.81-0.94-4.28-1.18c1.36-0.38,2.76-0.66,4.17-0.83c0.26-0.03,0.53-0.06,0.77-0.16
				c0.37-0.15,0.65-0.46,0.91-0.77c0.41-0.5,0.78-1.02,1.12-1.58c0.08-0.13,0.15-0.25,0.19-0.39c0.05-0.19,0.03-0.39,0.01-0.58
				c-0.1-1.11-0.21-2.22-0.31-3.33c-0.05-0.57-0.11-1.15,0.03-1.71c0.08-0.33,0.23-0.64,0.33-0.96c0.26-0.85,0.2-1.75,0.06-2.61
				c-0.11-0.72,0.04-1.37,0.04-2.1c0-0.13,0-1.1-0.06-1.14c2.13,1.62,3.18,4.25,4.14,6.75c0.82,2.15,1.65,4.3,2.47,6.45
				c0.23,0.6,0.46,1.21,0.71,1.81c0.48,1.18,1.02,2.33,1.6,3.46c0.51,0.99,0.92,1.95,1.35,2.98c0.53,1.27,1.06,2.56,1.36,3.91
				c0.21,0.95,0.29,1.92,0.5,2.87c0.23,1.03,0.6,2.03,0.97,3.02c0.59,1.58,1.18,3.17,1.78,4.75c0.3,0.79,0.59,1.58,0.89,2.37
				c0.28,0.76,0.3,1.53,0.38,2.33c0.12,1.21,0.55,2.32,0.8,3.5c0.32,1.5,0.32,3.06,0.63,4.56c0.54,2.66,1.9,5.12,2.91,7.62
				c1.04,2.59,1.91,5.25,2.61,7.96c0.36,1.41,0.68,2.83,0.94,4.26c0.34,1.82,0.42,3.68,0.82,5.49c0.17,0.78,0.38,1.73,0.75,2.43
				c0.39,0.74,1.32,1.27,2.04,1.61c2.08,1,4.45,1.2,6.72,1.62c0.22,0.04,0.49,0.12,0.55,0.34c0.04,0.16-0.04,0.32-0.12,0.46
				c-0.41,0.72-0.83,1.43-1.24,2.15c-0.31,0.53-0.75,1.3-1.4,1.44c-0.18,0.04-0.4,0.05-0.5,0.21c-0.04,0.07-0.05,0.15-0.05,0.22
				c-0.01,0.6,0.25,1.17,0.45,1.73c0.81,2.26,0.68,4.77,1.49,7.02c0.08,0.22,0.17,0.44,0.33,0.6c0.27,0.28,0.75,0.29,1.12,0.25
				c0.55-0.06,1.07-0.25,1.58-0.45c0.96-0.36,2.18-0.45,3.2-0.55c1.43-0.13,2.86-0.09,4.28,0.02c0.7,0.05,1.4,0.13,2.1,0.2
				c0.44,0.05,1.08,0.36,1.34-0.16c0.11-0.23,0.1-0.5,0.09-0.76c-0.03-0.53-0.06-1.05-0.09-1.58c-0.03-0.56-0.07-1.14-0.29-1.66
				c-0.35-0.84-1.15-1.43-2.01-1.73c-0.45-0.16-0.92-0.26-1.34-0.49s-0.78-0.63-0.8-1.11c-0.02-0.66,0.68-1.17,1.34-1.2
				c0.66-0.03,1.29,0.28,1.89,0.57c0.17,0.08,0.35,0.17,0.54,0.14s0.36-0.22,0.29-0.4c-0.11-0.28,0.11-0.3,0.28-0.46
				c0.21-0.2,0.34-0.51,0.24-0.78c-0.12-0.36-0.55-0.5-0.93-0.57c-3.23-0.64-6.56-0.21-9.85-0.26c-0.2,0-0.45-0.05-0.49-0.25
				c-0.03-0.18,0.15-0.32,0.31-0.4c1.51-0.79,3.24-0.98,4.94-1.12c0.35-0.03,0.72-0.06,1.06,0.04c0.28,0.08,0.52,0.24,0.78,0.36
				c0.56,0.26,1.19,0.34,1.78,0.51c0.59,0.16,1.15,0.41,1.67,0.73c0.1,0.06,0.25,0.11,0.31,0.01c0.03-0.04,0.02-0.1,0.01-0.15
				c-0.08-0.58-0.25-1.02-0.43-1.56c-0.06-0.17-0.12-0.34-0.22-0.49c-0.24-0.33-0.64-0.4-0.98-0.59c-0.38-0.22-0.75-0.43-1.16-0.6
				c-0.84-0.35-1.71-0.64-2.49-1.13c-0.34-0.22-0.63-0.4-0.89-0.7c-0.3-0.35-0.61-0.69-1.02-0.91c-0.41-0.22-0.89-0.31-1.35-0.37
				c-0.81-0.12-1.64-0.18-2.46-0.2c-0.56-0.01-1.16-0.01-1.65-0.29c2.12-0.77,4.24-1.56,6.35-2.37c-0.13-0.43-0.61-0.61-1.03-0.75
				c-1.26-0.43-2.45-1.05-3.63-1.67c-0.67-0.35-1.35-0.71-1.92-1.21c-0.47-0.41-0.86-0.91-1.18-1.45c-0.15-0.25-0.39-0.58-0.45-0.87
				c-0.07-0.32,0-0.36,0.31-0.55c1.75-1.03,3.59-1.91,5.49-2.64c0.45-0.17,0.94-0.35,1.29-0.69c0.51-0.5,0.38-1.83,0.45-2.48
				c0.1-1,0.2-2.01,0.3-3.01c0.04-0.4,0.08-0.8,0.02-1.2c-0.06-0.4-0.22-0.79-0.37-1.17c-0.67-1.63-1.19-3.79-2.78-4.77
				c-0.13-0.08-0.27-0.16-0.36-0.28c-0.07-0.1-0.1-0.21-0.13-0.32c-0.28-1.03-0.66-2.04-1.12-3c-0.06-0.12-0.12-0.24-0.22-0.33
				c-0.11-0.1-0.26-0.14-0.4-0.18c-1.19-0.36-2.34-0.86-3.41-1.49c0.62-0.44,1.37-0.56,2.09-0.71c0.37-0.08,0.74-0.15,1.09-0.29
				c0.44-0.17,0.49-0.24,0.37-0.69c-0.23-0.87-0.55-1.71-0.85-2.56c-0.12-0.35-0.29-0.68-0.4-1.03c-0.11-0.34-0.14-0.7-0.5-0.89
				c-0.19-0.1-0.4-0.11-0.62-0.12c-1.06-0.05-2.12-0.09-3.19-0.14c-0.33-0.01-0.67-0.03-0.99-0.12c-0.28-0.07-0.59-0.19-0.82-0.02
				c0.15-0.22,0.44-0.29,0.71-0.33c0.81-0.12,1.64-0.12,2.45-0.06c0.84,0.07,1.68,0.29,2.52,0.32c0.02-0.11,0.02-0.24,0-0.38
				c-0.04-0.25-0.12-0.53-0.17-0.73c-0.12-0.5-0.29-1-0.46-1.49c-0.33-1.01-0.7-2.01-1.02-3.02c-0.08-0.24-0.15-0.47-0.24-0.7
				c-0.06-0.16-0.14-0.32-0.25-0.45c-0.1-0.12-0.24-0.21-0.38-0.29c-0.62-0.37-1.34-0.59-2-0.88c-0.72-0.32-1.47-0.6-2.18-0.95
				c-0.09-0.04-0.18-0.08-0.24-0.16c-0.05-0.07-0.08-0.15-0.1-0.23c-0.11-0.45,0.43-0.91,0.73-1.15c0.56-0.46,1.15-0.81,1.66-1.36
				c-0.74-0.24-1.5-0.39-2.28-0.45c-0.54-0.04-1.12-0.05-1.56-0.37c0.81-0.13,1.62-0.29,2.43-0.46c0.09-0.02,0.19-0.04,0.27-0.1
				c0.09-0.06,0.14-0.16,0.19-0.26c0.15-0.3,0.29-0.6,0.41-0.91c0.09-0.23,0.17-0.47,0.11-0.71c-0.07-0.3-0.34-0.51-0.6-0.68
				c-0.51-0.34-1.04-0.66-1.59-0.95c-0.27-0.14-0.57-0.25-0.83-0.41c-0.1-0.06-0.45-0.49-0.5-0.49c2.39-0.07,4.66,0.98,7.01,1.42
				c0.11-0.12,0.1-0.32,0.02-0.46s-0.22-0.24-0.36-0.34c-0.87-0.62-1.71-1.29-2.52-1.98c-0.12-0.1-0.23-0.2-0.35-0.3
				c-0.81-0.69-1.61-1.42-2.34-2.2c-0.56-0.6-1.05-1.28-1.6-1.9c-0.65-0.73-1.3-1.48-1.84-2.3c-0.83-1.27-1.04-2.8-1.31-4.26
				c-0.5-2.7-0.98-5.4-1.53-8.09c-0.86-4.15-2.01-8.17-3.41-12.17c-0.05-0.13-0.09-0.27-0.19-0.37c-0.1-0.11-0.23-0.18-0.36-0.24
				c-1.51-0.74-3.03-1.48-4.54-2.22c-1.21-0.59-2.42-1.18-3.72-1.51c-0.09-0.53-0.18-1.06-0.33-1.58c-0.14-0.48-0.46-0.83-0.64-1.3
				c2.56-0.51,5.17-0.77,7.78-0.76c0.17,0,0.34,0,0.49-0.08s0.25-0.26,0.19-0.41c-1.29-0.09-2.58-0.17-3.87-0.26
				c-0.12-0.01-0.24-0.02-0.33-0.08c-0.09-0.05-0.15-0.14-0.2-0.22c-0.7-1.03-1.15-2.23-1.3-3.46c0.53,0.04,1.06,0.09,1.59,0.13
				c-0.21-0.34-0.41-0.69-0.62-1.03c0.18,0.06,0.37-0.09,0.42-0.27c0.05-0.18-0.02-0.37-0.1-0.54c-0.2-0.42-0.52-0.78-0.9-1.04
				c0.68-0.68,1.36-1.35,2.04-2.03c0.17-0.17,0.35-0.35,0.45-0.56c0.11-0.23,0.13-0.5,0.15-0.76c0.05-0.57,0.09-1.14,0.05-1.71
				c-0.03-0.43,0.24-1.11-0.28-1.26c-0.17-0.05-0.36-0.06-0.52-0.14c-0.33-0.19-0.38-0.65-0.36-1.03c0.01-0.27-0.08-1.1,0.31-1.1
				c0.84,0.01,1.69,0.01,2.52,0.17c0.27,0.05,0.54,0.12,0.81,0.13c0.72,0.03,1.43-0.35,1.86-0.92s0.6-1.33,0.53-2.04
				c-0.02-0.15-0.04-0.3-0.12-0.43C88,8.27,87.25,8.45,86.76,8.4c-0.79-0.07-1.56-0.22-2.35-0.32c-0.9-0.11-1.95-0.16-2.81-0.46
				c-0.78-0.28-1.66-0.15-2.49-0.15c-1.98,0.01-3.97,0-5.95-0.09c-0.56-0.03-1.14-0.06-1.65-0.32c-0.33-0.17-0.63-0.43-0.99-0.51
				c-0.57-0.14-1.14,0.18-1.69,0.39c-2.41,0.93-5.13-0.16-7.7,0.1c-1.6,0.16-3.16,0.85-4.76,0.64c-0.64-0.08-1.34-0.29-1.87,0.06
				c-0.13,0.09-0.23,0.2-0.36,0.28c-0.44,0.28-1.01,0.11-1.5,0.2c-0.58,0.11-1.15,0.25-1.73,0.37c-0.77,0.16-1.53,0.31-2.3,0.49
				c-0.22,0.05-0.45,0.11-0.68,0.12c-0.45,0.03-0.89-0.09-1.33-0.12c-0.45-0.03-0.94,0.05-1.23,0.38c-0.37,0.42-0.51,0.64-1.03,0.9
				c-0.51,0.26-1.04,0.47-1.57,0.67c-1.06,0.41-2.14,0.78-3.09,1.42c-0.41,0.28-0.83,0.66-0.88,1.15c-0.04,0.39,0.14,0.76,0.18,1.14
				c0.08,0.89-0.63,1.67-0.72,2.57c-0.04,0.39,0.04,0.77,0.11,1.15c0.34,1.74,0.64,3.49,0.89,5.25c0.12,0.88,0.24,1.76,0.34,2.64
				c0.19,1.66,0.52,3.31,0.73,4.97c0.15,1.16,0.29,2.32,0.54,3.46c0.15,0.67,0.33,1.33,0.46,2c0.24,1.23,0.26,2.44,0.22,3.69
				c-0.04,1.03,0.3,2.25,0.62,3.23c0.1,0.32,0.21,0.64,0.3,0.96c0.18,0.65,0.29,1.33,0.46,1.99c0.25,1.02,0.74,2.03,0.86,3.07
				c0.13,1.08,0.45,2.13,0.72,3.18c0.34,1.36,0.59,2.74,0.74,4.13c0.09,0.8,0.15,1.6,0.29,2.39c0.31,1.68,0.39,3.41,0.53,5.12
				c0.12,1.36,0.23,2.72,0.3,4.08c0.07,1.25,0.1,2.5,0.29,3.74c0.29,1.91,0.83,3.78,1.62,5.55c0.39,0.88,0.85,1.77,0.89,2.74
				c0.02,0.46-0.06,0.92-0.08,1.38c-0.01,0.51,0.09,0.9,0.36,1.33c0.24,0.36,0.6,0.66,0.72,1.08c0.07,0.24,0.06,0.49,0.05,0.74
				c-0.03,0.64-0.04,1.27,0.01,1.91c0.05,0.64,0.23,1.21,0.38,1.82c0.31,1.29,0.52,2.6,0.68,3.92c0.15,1.28,0.26,2.57,0.36,3.85
				c0.1,1.32,0.2,2.65,0.43,3.96c0.11,0.62,0.31,1.22,0.42,1.84c0.12,0.65,0.2,1.3,0.27,1.95c0.02,0.18,0.04,0.37,0.06,0.55
				c0.09,0.82,0.18,1.64,0.27,2.46c0.02,0.2,0.05,0.41,0.09,0.6c0.07,0.33,0.23,0.67,0.19,1.01c-0.04,0.37-0.02,0.75-0.01,1.13
				c0.02,1.08-0.09,2.2,0.15,3.25c0.21,0.92,0.55,1.78,0.84,2.67c0.27,0.82,0.83,1.55,1.57,2c0.43,0.26,0.9,0.43,1.37,0.58
				c3.68,1.21,7.59,1.78,11.1,3.42c0.45,0.21,0.93,0.48,1.1,0.95c0.23,0.63-0.26,1.35-0.89,1.59c-0.63,0.23-1.34,0.1-1.98-0.1
				c-1.4-0.44-2.69-1.17-4.03-1.78c-0.64-0.29-1.3-0.55-1.98-0.74c-0.34-0.09-0.69-0.17-1.04-0.22c-0.18-0.03-0.37-0.05-0.55-0.05
				c-0.14,0-0.31,0.04-0.45-0.01c-0.79-0.33-1.5-1.27-1.49-2.15c0-0.15,0.02-0.31-0.01-0.45c-0.07-0.3-0.37-0.48-0.64-0.64
				c-0.47-0.27-0.94-0.54-1.41-0.8c-0.1,0.11-0.03,0.28,0.04,0.41c0.1,0.17,0.09,0.32,0.12,0.51c0.03,0.25,0.1,0.49,0.08,0.74
				c-0.04,0.68-0.54,1.24-0.6,1.93c-0.04,0.45,0.14,0.91,0.25,1.34c0.35,1.45,0.51,2.95,0.45,4.44c-0.02,0.69-0.45,2.16,0.46,2.47
				c0.16,0.06,0.34,0.06,0.5,0.09c0.49,0.09,0.93,0.42,1.16,0.86c0.14,0.27,0.2,0.58,0.26,0.88c0.14,0.7,0.26,1.38,0.33,2.08
				c0.18,1.81,0.36,3.62,0.54,5.43C58.67,139.37,58.73,139.9,58.96,140.35z"/>
			
				<linearGradient id="SVGID_00000142138413301041964220000015435592383330187419_" gradientUnits="userSpaceOnUse" x1="39.9005" y1="125.1759" x2="42.5427" y2="125.1759" gradientTransform="matrix(1 0 0 -1 0 149.8898)">
				<stop  offset="0" style="stop-color:#1D1D1B"/>
				<stop  offset="0.8736" style="stop-color:#1D1D1B;stop-opacity:0"/>
			</linearGradient>
			<path style="fill:url(#SVGID_00000142138413301041964220000015435592383330187419_);" d="M42.49,22.08
				c-0.09-0.61-0.32-1.13-0.58-1.68c-0.07-0.15-0.23-0.17-0.35-0.11c-0.14-0.05-0.28,0.01-0.34,0.14c-0.81,0.24-0.27,1.68-0.16,2.24
				c0.12,0.63,0.18,1.27,0.12,1.9c-0.13,0.43-0.23,0.86-0.3,1.3c0,0.01-0.01,0.02-0.01,0.03s0,0.01,0,0.02
				c-0.09,0.26-0.2,0.51-0.3,0.77c-0.19,0.48-0.39,0.95-0.58,1.44c-0.04,0.12-0.09,0.23-0.1,0.36c-0.01,0.15,0.03,0.31,0.1,0.44
				c0.03,0.05,0.06,0.1,0.1,0.14c0.11,0.1,0.27,0.12,0.41,0.08c0.22-0.07,0.36-0.28,0.49-0.45c0.08-0.1,0.14-0.21,0.2-0.32
				c0.04-0.08,0.08-0.27,0.14-0.33c0.04-0.03,0.07-0.07,0.09-0.12c0.34-0.81,0.58-1.67,0.8-2.53c0.17-0.68,0.33-1.36,0.28-2.05
				C42.56,22.91,42.55,22.5,42.49,22.08z"/>
			
				<linearGradient id="SVGID_00000139255561187321840080000014312021617951204481_" gradientUnits="userSpaceOnUse" x1="75.0324" y1="130.8206" x2="90.6841" y2="130.8206" gradientTransform="matrix(1 0 0 -1 0 149.8898)">
				<stop  offset="0" style="stop-color:#1D1D1B"/>
				<stop  offset="0.8736" style="stop-color:#1D1D1B;stop-opacity:0"/>
			</linearGradient>
			<path style="fill:url(#SVGID_00000139255561187321840080000014312021617951204481_);" d="M90.67,23.18
				c0-0.01,0.01-0.02,0.01-0.03c0.01-0.04,0-0.08-0.01-0.11c0-0.01-0.01-0.02-0.01-0.04c0-0.01-0.01-0.01-0.01-0.02
				c-0.06-0.21-0.33-0.29-0.51-0.19c-0.22,0.12-0.98-0.06-1.32-0.1c-0.71-0.09-1.41-0.2-2.11-0.37c-1.28-0.31-2.58-0.55-3.83-0.96
				c-2.09-0.69-3.97-1.76-5.32-3.43c-0.01-0.06-0.03-0.11-0.07-0.17c-0.3-0.51-0.59-1.03-0.85-1.56c-0.16-0.32-0.7-1.12-0.41-1.48
				c0.08-0.1,0.23-0.17,0.23-0.3c0-0.02,0-0.04-0.01-0.05c-0.02-0.02-0.04-0.03-0.07-0.03c-0.34-0.05-0.69-0.07-1.04-0.04
				c-0.08,0.01-0.16,0.02-0.22,0.07c-0.05,0.05-0.07,0.12-0.08,0.19c-0.05,0.4,0.16,0.74,0.27,1.11c0.13,0.45,0.29,0.9,0.48,1.33
				c0.01,0.03,0,0.06,0.02,0.1s0.04,0.08,0.05,0.12c0.01,0.01,0.01,0.02,0.02,0.04c0.17,0.4,0.38,0.77,0.61,1.13
				c0.02,0.03,0.03,0.06,0.05,0.08c1.44,2.16,3.84,3.41,6.35,4.18c1.6,0.49,3.19,0.7,4.84,0.91c0.36,0.05,1.38,0.3,2.12,0.25
				c0.05,0.02,0.1,0.03,0.15,0.04c0.1,0.01,0.21-0.01,0.31-0.03c0.01,0,0.02,0,0.03,0c0.14-0.01,0.24-0.11,0.25-0.25
				c0-0.02,0-0.03,0-0.05c0-0.01,0-0.01,0-0.02C90.64,23.42,90.67,23.31,90.67,23.18z"/>
			
				<linearGradient id="SVGID_00000144314677486206805950000005479818012191117747_" gradientUnits="userSpaceOnUse" x1="68.404" y1="138.5475" x2="71.2744" y2="138.5475" gradientTransform="matrix(1 0 0 -1 0 149.8898)">
				<stop  offset="0" style="stop-color:#1D1D1B"/>
				<stop  offset="0.8736" style="stop-color:#1D1D1B;stop-opacity:0"/>
			</linearGradient>
			<path style="fill:url(#SVGID_00000144314677486206805950000005479818012191117747_);" d="M71.21,8.17c0.07-0.27,0.1-0.54,0-0.79
				C71.07,7,70.72,6.83,70.35,6.83c-0.12-0.11-0.28-0.16-0.43-0.1c-0.53,0.22-0.9,0.69-0.83,1.29v0.01
				c-0.3,0.77-0.46,1.59-0.61,2.41c-0.12,0.64-0.1,1.17,0.02,1.81c0.12,0.68,0.24,1.38,0.45,2.04c0.02,0.08,0.07,0.14,0.12,0.19
				c0.01,0.1,0.02,0.2,0.04,0.3c0.01,0.05,0.01,0.09,0.02,0.14c0.03,0.14,0.06,0.27,0.08,0.4c0.03,0.09,0.07,0.16,0.12,0.22
				c0.12,0.26,0.32,0.45,0.67,0.44c0.2,0,0.36-0.07,0.49-0.17c0.33,0,0.7-0.27,0.62-0.7c-0.21-1.18-0.53-2.41-0.49-3.62
				C70.66,10.34,71.14,9.29,71.21,8.17z"/>
			
				<linearGradient id="SVGID_00000171687782172877152460000002454684534545590185_" gradientUnits="userSpaceOnUse" x1="95.7677" y1="135.8028" x2="98.6769" y2="135.8028" gradientTransform="matrix(1 0 0 -1 0 149.8898)">
				<stop  offset="0" style="stop-color:#1D1D1B"/>
				<stop  offset="0.8736" style="stop-color:#1D1D1B;stop-opacity:0"/>
			</linearGradient>
			<path style="fill:url(#SVGID_00000171687782172877152460000002454684534545590185_);" d="M98.58,13.87
				c0.04-0.49,0.1-0.98,0.09-1.47c-0.02-0.85-0.3-1.76-1.1-2.19c-0.13-0.07-0.3-0.07-0.45-0.02c-0.2-0.1-0.5-0.02-0.59,0.24
				c-0.17,0.44-0.04,1.01,0.03,1.46c0.08,0.49,0.21,0.96,0.37,1.43c0.01,0.04,0.03,0.06,0.05,0.09c-0.23,0.72-0.54,1.42-0.9,2.09
				c-0.11,0.2-0.18,0.41-0.23,0.62c-0.2,0.42-0.09,1.02,0.19,1.4c0.06,0.21,0.2,0.39,0.44,0.47c0.41,0.13,0.78-0.11,0.98-0.46
				c0.09-0.16,0.17-0.33,0.24-0.51c0.44-0.75,0.74-1.77,0.85-2.13c0.04-0.14,0.02-0.28-0.05-0.39
				C98.55,14.31,98.56,14.09,98.58,13.87z"/>
			
				<linearGradient id="SVGID_00000156578027474389196600000000128963508839292845_" gradientUnits="userSpaceOnUse" x1="45.4922" y1="136.0414" x2="48.6634" y2="136.0414" gradientTransform="matrix(1 0 0 -1 0 149.8898)">
				<stop  offset="0" style="stop-color:#1D1D1B"/>
				<stop  offset="0.8736" style="stop-color:#1D1D1B;stop-opacity:0"/>
			</linearGradient>
			<path style="fill:url(#SVGID_00000156578027474389196600000000128963508839292845_);" d="M48.63,15.64
				c0.07-0.79,0.02-1.59-0.16-2.37c-0.18-0.74-0.46-1.44-0.75-2.13c-0.27-0.63-0.44-1.35-0.89-1.87C46.59,9,46.08,9.15,46,9.48
				c-0.36,0.16-0.56,0.63-0.49,1.05s0.29,0.81,0.44,1.21c0.15,0.41,0.29,0.83,0.41,1.25c0.48,1.71,0.52,3.48,0.92,5.2
				c0.06,0.25,0.32,0.37,0.56,0.35c0.26,0.08,0.57-0.02,0.64-0.33c0.16-0.66,0.21-1.36,0.1-2.03C48.6,15.99,48.62,15.82,48.63,15.64
				z"/>
			
				<linearGradient id="SVGID_00000127754172547146583320000011099265057286274437_" gradientUnits="userSpaceOnUse" x1="54.749" y1="139.4811" x2="57.7239" y2="139.4811" gradientTransform="matrix(1 0 0 -1 0 149.8898)">
				<stop  offset="0" style="stop-color:#1D1D1B"/>
				<stop  offset="0.8736" style="stop-color:#1D1D1B;stop-opacity:0"/>
			</linearGradient>
			<path style="fill:url(#SVGID_00000127754172547146583320000011099265057286274437_);" d="M57.68,10.09
				c-0.03-0.14-0.09-0.27-0.16-0.4c0.01-0.04,0-0.07-0.01-0.11c-0.1-0.32-0.31-0.61-0.6-0.79c-0.3-0.18-0.67-0.21-0.99-0.06
				c-0.11,0.05-0.2,0.12-0.29,0.19c-0.21,0.12-0.37,0.32-0.46,0.55c-0.02,0.01-0.04,0.01-0.05,0.02c-0.24,0.18-0.33,0.48-0.36,0.77
				c-0.03,0.28,0,0.58,0.11,0.84c0.19,0.48,0.61,0.94,1.12,1.06c0.2,0.05,0.41,0.02,0.58-0.09c0.45,0.11,0.77-0.27,0.94-0.64
				C57.68,11.01,57.78,10.55,57.68,10.09z"/>
			
				<linearGradient id="SVGID_00000077308580336041335010000002685940998064047011_" gradientUnits="userSpaceOnUse" x1="55.1371" y1="139.5032" x2="57.1168" y2="139.5032" gradientTransform="matrix(1 0 0 -1 0 149.8898)">
				<stop  offset="0" style="stop-color:#1D1D1B"/>
				<stop  offset="0.8736" style="stop-color:#1D1D1B;stop-opacity:0"/>
			</linearGradient>
			<path style="fill:url(#SVGID_00000077308580336041335010000002685940998064047011_);" d="M57.01,9.8
				C57,9.79,56.99,9.77,56.98,9.75c-0.02-0.1-0.07-0.2-0.14-0.27c-0.13-0.13-0.31-0.2-0.47-0.26c-0.24-0.09-0.48-0.05-0.68,0.08
				c-0.08-0.03-0.17-0.01-0.24,0.05c-0.25,0.21-0.34,0.56-0.3,0.87c0.02,0.18,0.07,0.35,0.14,0.52c0.05,0.13,0.12,0.25,0.2,0.36
				c0.01,0.05,0.03,0.1,0.06,0.15c0.2,0.33,0.65,0.46,0.98,0.25C57.08,11.16,57.26,10.37,57.01,9.8z"/>
			<path class="st10" d="M57.63,9.78L57.63,9.78c-0.02-0.17-0.04-0.33-0.13-0.47c-0.09-0.15-0.23-0.25-0.37-0.34
				c-0.25-0.17-0.56-0.37-0.87-0.39c-0.25-0.02-0.47,0.09-0.6,0.29c-0.09,0.02-0.19,0.04-0.27,0.09c-0.14,0.08-0.25,0.22-0.32,0.38
				c-0.08,0.13-0.13,0.28-0.17,0.43c-0.09,0.31-0.11,0.68-0.01,0.99c0.1,0.32,0.31,0.57,0.52,0.82c0.19,0.22,0.41,0.43,0.69,0.54
				c0.09,0.03,0.19,0.05,0.28,0.05c0.05,0.02,0.1,0.03,0.16,0.02c0.12,0.08,0.28,0.09,0.39-0.04c0.03-0.04,0.06-0.08,0.09-0.13
				c0.02,0,0.05,0,0.07,0c0.45-0.11,0.61-0.59,0.67-1C57.84,10.58,57.82,10.16,57.63,9.78z"/>
			
				<linearGradient id="SVGID_00000149369937347425794010000000300686234780964768_" gradientUnits="userSpaceOnUse" x1="44.4096" y1="124.6956" x2="37.7122" y2="126.1941" gradientTransform="matrix(1 0 0 -1 0 149.8898)">
				<stop  offset="7.337136e-03" style="stop-color:#1D1D1B"/>
				<stop  offset="0.1955" style="stop-color:#232321;stop-opacity:0.8104"/>
				<stop  offset="0.4475" style="stop-color:#343432;stop-opacity:0.5563"/>
				<stop  offset="0.7343" style="stop-color:#4F4F4E;stop-opacity:0.2672"/>
				<stop  offset="0.9994" style="stop-color:#6F6F6E;stop-opacity:0"/>
			</linearGradient>
			<path style="fill:url(#SVGID_00000149369937347425794010000000300686234780964768_);stroke:#000000;stroke-miterlimit:10;" d="
				M38.93,22.13c-0.04,0.19-0.02,0.38,0.01,0.57c0.24,1.62,0.51,3.24,0.82,4.85c0.02,0.13,0.07,0.28,0.19,0.29
				c0.13,0.02,0.21-0.15,0.25-0.28c0.61-2.08,1.23-4.28,0.78-6.41c-0.03-0.15-0.08-0.32-0.2-0.4C40.42,20.5,39.02,21.73,38.93,22.13
				z"/>
			
				<linearGradient id="SVGID_00000179621945409682414800000000676319142917892273_" gradientUnits="userSpaceOnUse" x1="82.6633" y1="124.8337" x2="87.1467" y2="137.1399" gradientTransform="matrix(1 0 0 -1 0 149.8898)">
				<stop  offset="0.1481" style="stop-color:#1D1D1B"/>
				<stop  offset="0.3528" style="stop-color:#20201E;stop-opacity:0.7597"/>
				<stop  offset="0.5337" style="stop-color:#2B2B29;stop-opacity:0.5474"/>
				<stop  offset="0.7055" style="stop-color:#3D3D3B;stop-opacity:0.3456"/>
				<stop  offset="0.8709" style="stop-color:#565655;stop-opacity:0.1516"/>
				<stop  offset="1" style="stop-color:#6F6F6E;stop-opacity:0"/>
			</linearGradient>
			<path style="fill:url(#SVGID_00000179621945409682414800000000676319142917892273_);" d="M76.91,16.89
				c0.31,0.62,0.66,1.22,1.09,1.76c1,1.23,2.44,2.02,3.91,2.6c1.06,0.42,2.17,0.73,3.29,0.95c1.51,0.29,3.05,0.39,4.59,0.46
				c0.51,0.02,0.92-0.09,1.4-0.15c0.57-0.08,1.14-0.16,1.7-0.3c0.37-0.09,0.77-0.22,1.01-0.51c0.21-0.25,0.27-0.6,0.18-0.92
				c-0.11-0.37-0.12-0.74-0.15-1.13c-0.07-0.9-0.19-1.79-0.3-2.68c-0.04-0.29-0.08-0.61-0.27-0.84c-0.22-0.28-0.59-0.38-0.94-0.47
				c-1.23-0.29-2.47-0.53-3.72-0.71c-2.01-0.28-4.03-0.41-6.06-0.47c-0.99-0.03-1.98-0.03-2.97-0.03c-0.51,0-1.02,0-1.52,0.01
				c-0.46,0-1.04-0.08-1.49,0.01C75.83,14.67,76.67,16.42,76.91,16.89z"/>
			
				<linearGradient id="SVGID_00000026123793982986811250000011016939249139731345_" gradientUnits="userSpaceOnUse" x1="58.3554" y1="137.1322" x2="56.5135" y2="139.2602" gradientTransform="matrix(1 0 0 -1 0 149.8898)">
				<stop  offset="7.337136e-03" style="stop-color:#1D1D1B"/>
				<stop  offset="0.1955" style="stop-color:#232321;stop-opacity:0.8104"/>
				<stop  offset="0.4475" style="stop-color:#343432;stop-opacity:0.5563"/>
				<stop  offset="0.7343" style="stop-color:#4F4F4E;stop-opacity:0.2672"/>
				<stop  offset="0.9994" style="stop-color:#6F6F6E;stop-opacity:0"/>
			</linearGradient>
			<path style="fill:url(#SVGID_00000026123793982986811250000011016939249139731345_);" d="M56.02,11.21
				c0.15-0.12,0.23-0.3,0.31-0.47c0.07-0.16,0.15-0.32,0.22-0.48c0.04-0.09,0.08-0.18,0.06-0.27c-0.01-0.06-0.05-0.11-0.08-0.16
				c-0.15-0.28-0.13-0.64,0.06-0.89c0.02-0.03,0.04-0.06,0.08-0.07c0.04-0.02,0.09-0.02,0.13-0.01c0.42,0.06,0.8,0.38,0.91,0.79
				c0.06,0.22,0.06,0.46,0.07,0.69c0.01,0.21,0.04,0.43,0.02,0.64c-0.08,0.58-0.61,1.02-1.18,1.13c-0.45,0.09-1.03-0.02-1.34-0.39
				c-0.12-0.14-0.13-0.34,0.08-0.39C55.6,11.27,55.79,11.4,56.02,11.21z"/>
			<g>
				<path class="st14" d="M52.54,89.54c0.02-0.05,0.02-0.04,0.01-0.03C52.55,89.52,52.54,89.53,52.54,89.54L52.54,89.54z"/>
				<path class="st14" d="M60.08,119.31c1.66,0.38,3.32,0.74,4.98,1.08c0.05,0.01,0.07-0.06,0.02-0.07
					c-2.97-0.83-5.96-1.76-8.84-2.88c-0.43-0.17-0.57-0.35-0.73-0.78c-0.13-0.33-0.25-0.67-0.37-1c-0.14-0.37-0.29-0.73-0.41-1.1
					c-0.15-0.48-0.01-0.67,0.18-1.09s0.18-0.81,0.07-1.17c0.31,0.38,0.63,0.75,0.97,1.09c0.98,0.97,2.17,1.79,3.53,2.09
					c0.01,0,0.01-0.01,0-0.02c-1.36-0.43-2.48-1.35-3.34-2.48c-0.45-0.59-0.8-1.22-1.16-1.86c-0.19-0.34-0.38-0.68-0.56-1.02
					c-0.09-0.17-0.18-0.36-0.31-0.5c0.02-0.74,0.04-1.48,0.04-2.23c-0.01-1.07,0.04-2.15-0.2-3.2c-0.25-1.13-0.5-2.24-0.62-3.39
					c-0.24-2.29-0.4-4.59-0.68-6.88c-0.11-0.9-0.21-1.91-0.4-2.89c0-0.02,0.01-0.05,0.01-0.07c0-0.11,0.01-0.22,0.01-0.32
					c0-0.06,0.01-0.11,0.02-0.18c0-0.03,0.01-0.06,0.01-0.09c0.04-0.22,0.09-0.44,0.17-0.65c0.02-0.05,0.04-0.1,0.06-0.16
					c0-0.01,0.01-0.02,0.01-0.03c0.01-0.01,0.01-0.03,0.02-0.04c0.02-0.04,0.04-0.08,0.06-0.12c0.01-0.02,0.03-0.04,0.04-0.07
					c0.01-0.01,0.02-0.03,0.03-0.04c0.02-0.02,0.03-0.04,0.05-0.06c0.42,0.2,0.9,0.33,1.31,0.17c0.21-0.08,0.38-0.24,0.47-0.45
					c0.1-0.23,0.01-0.48,0.09-0.7c0.07-0.2,0.33-0.3,0.5-0.38c0.87-0.42,1.75-0.83,2.63-1.22c0.53-0.24,1.06-0.46,1.59-0.67
					c0.21-0.08,0.42-0.16,0.63-0.25c0.24-0.11,0.36-0.27,0.6-0.39c0.05-0.03,0.01-0.1-0.04-0.09c-0.24,0.05-0.44,0.01-0.67,0.08
					c-0.21,0.06-0.42,0.15-0.63,0.23c-0.42,0.15-0.84,0.31-1.26,0.46c-0.8,0.29-1.61,0.56-2.41,0.87c-0.5,0.19-1.23,0.39-1.56,0.86
					c-0.49-0.46-0.98-0.91-1.45-1.39c-0.13-0.14-0.3-0.28-0.25-0.48c0.05-0.21,0.16-0.36,0.17-0.59c0.01-0.2-0.04-0.39-0.13-0.58
					c-0.27-0.56-0.76-1.04-1.11-1.55c-0.17-0.26-0.35-0.52-0.49-0.79c-0.05-0.1-0.1-0.19-0.15-0.29c0.03-0.45,0.06-0.91,0.08-1.37
					c0.02-0.5,0.09-1.03-0.01-1.53c0.49,0.53,1,1.04,1.56,1.49c0.58,0.47,1.24,0.75,1.95,0.96c0.05,0.02,0.08-0.06,0.04-0.09
					c-0.64-0.34-1.23-0.76-1.82-1.17c-0.64-0.44-1.21-1.03-1.61-1.69c-0.43-0.72-0.82-1.47-1.27-2.18
					c-0.28-0.43-0.56-0.86-0.85-1.28c-0.34-0.65-0.64-1.32-0.76-2.03c-0.18-1.13,0.08-2.28,0.01-3.42c-0.05-0.74-0.2-1.47-0.29-2.2
					c-0.01-0.4-0.03-0.79-0.07-1.19c0.02-0.59,0.21-1.14,0.28-1.72c0.06-0.54-0.04-1.07-0.18-1.59c-0.32-1.2-0.63-2.41-1.01-3.6
					c-0.32-2.35-0.79-4.69-1.33-7c-0.55-2.36-1.22-4.72-2.02-7.01c-0.19-0.55-0.45-1.13-0.48-1.72c-0.02-0.4,0.06-0.79,0.11-1.18
					c0.08-0.13,0.13-0.25,0.29-0.31c0.23-0.08,0.5-0.13,0.74-0.17c0.57-0.1,1.14-0.15,1.71-0.19c1.09-0.08,2.18-0.07,3.25-0.34
					c0.04-0.01,0.02-0.07-0.02-0.07c-1.36,0.19-2.72,0.07-4.07-0.04c-0.39-0.03-0.83-0.08-1.24-0.07c-0.08-0.04-0.16-0.07-0.23-0.12
					c0,0-0.04-0.03-0.05-0.04c-0.01-0.01-0.04-0.03-0.05-0.04c-0.03-0.03-0.07-0.06-0.1-0.08c-0.01-0.01-0.01-0.01-0.02-0.02
					c-0.09-0.07-0.16-0.15-0.23-0.24c-0.02-0.02-0.03-0.04-0.05-0.06c-0.01-0.01-0.01-0.02-0.02-0.03
					c-0.12-0.69-0.31-1.38-0.48-2.05c-0.26-1.01-0.5-2.03-0.76-3.04c-0.13-0.51-0.27-1.02-0.42-1.52c-0.07-0.25-0.11-0.65-0.28-0.84
					c-0.23,0.53-0.01,1.31,0.09,1.85c0.09,0.47,0.18,0.94,0.23,1.41c0.1,1.08-0.04,2.2,0.24,3.25c0.15,0.54,0.4,1.05,0.55,1.59
					c0.22,0.8,0.19,1.65,0.17,2.49c-0.02,0.59,0.21,1.2,0.37,1.77c0.2,0.68,0.42,1.35,0.62,2.03c0.32,1.13,0.58,2.27,0.87,3.41
					c0.56,2.28,1.04,4.58,1.43,6.89c0.44,2.64,1.1,5.32,0.55,7.98c-0.06,0.27,0.14,0.44,0.34,0.45c0,0.1-0.01,0.19-0.01,0.29
					c0.04,1.13,0.35,2.23,0.4,3.35c0.04,1.05-0.14,2.1,0.02,3.15c0.08,0.53,0.24,1.04,0.44,1.53c0.2,0.48,0.3,0.97,0.48,1.45
					c0.38,1.01,0.97,1.93,1.25,2.99c0.13,0.49,0.18,1,0.16,1.51c-0.02,0.41-0.09,0.81-0.06,1.22c0.04,0.69,0.34,1.33,0.69,1.92
					c0.18,0.3,0.51,0.5,0.66,0.82c0.16,0.34,0.02,0.73-0.01,1.08c-0.07,0.98,0.02,1.96,0.23,2.92c0.18,0.85,0.54,1.66,0.69,2.52
					c0.2,1.1,0.29,2.22,0.42,3.33c0.26,2.24,0.4,4.49,0.66,6.72c0.12,1.03,0.3,2.03,0.57,3.03c0.15,0.56,0.33,1.13,0.4,1.7
					c0.07,0.58,0.04,1.17,0.04,1.75c-0.02,2.04,0.17,4.03,0.38,6.06c0.04,0.43,0.09,0.86,0.19,1.28c0.18,0.75,0.53,1.45,0.82,2.16
					c0.25,0.61,0.65,1.47,0.54,2.13c-0.14,0.9-0.72,1.52-0.54,2.48c0.1,0.52,0.31,1,0.47,1.5c0.29,0.92,0.4,1.98,0.42,2.94
					c0.01,0.47-0.06,0.93-0.14,1.38c-0.08,0.48-0.23,1.02-0.05,1.49c0.17,0.44,0.78,0.68,1.18,0.86c0.17,0.07,0.34,0.14,0.47,0.27
					c0.07,0.07,0.13,0.16,0.18,0.25c0.51,0.87,0.73,1.75,0.84,2.75c0.22,2.07,0.43,4.13,0.65,6.2c0.03,0.28,0.06,0.57,0.2,0.81
					c0.27,0.48,0.86,0.67,1.39,0.81c0.62,0.17,1.25,0.34,1.87,0.51c-0.5-0.31-1.01-0.62-1.51-0.93c-0.14-0.08-0.27-0.17-0.38-0.29
					c-0.11-0.13-0.17-0.29-0.23-0.45c-0.19-0.49-0.38-0.98-0.57-1.48c1.39,0.79,3.01,1.15,4.6,1.04c-0.77-0.21-1.5-0.53-2.19-0.93
					c-0.46-0.27-0.92-0.6-1.16-1.08c-0.18-0.36-0.22-0.78-0.4-1.15c-0.3-0.6-0.96-0.94-1.34-1.49c-0.82-1.19-0.21-2.99-1.09-4.13
					c-0.29-0.38-0.72-0.63-1.06-0.97c-0.72-0.71-0.42-1.62-0.41-2.52c0.01-1.01-0.12-2.05-0.57-2.97c-0.16-0.66-0.43-1.29-0.51-1.97
					c-0.08-0.68,0.22-1.26,0.47-1.86c0.01,0,0.01,0,0.02,0c0.11-0.02,0.19-0.06,0.28-0.12c0.17-0.12,0.32-0.25,0.44-0.43
					s0.18-0.38,0.16-0.6c-0.02-0.23-0.11-0.44-0.2-0.65c-0.02-0.05-0.05-0.1-0.07-0.15c0.34,0.09,0.68,0.17,1,0.26
					C58.35,118.91,59.22,119.11,60.08,119.31z"/>
			</g>
			<path class="st14" d="M39.77,24.51c-0.15-0.48-0.36-0.95-0.41-1.45c-0.02-0.23-0.01-0.46-0.04-0.69
				c-0.01-0.11-0.02-0.22-0.05-0.32c0.01-0.03,0.02-0.07,0.04-0.1c0.01-0.02,0.01-0.04,0.02-0.05c0,0,0-0.01,0.01-0.01
				c0,0,0,0,0-0.01c0.02-0.04,0.04-0.08,0.05-0.12c0.01-0.02,0.01-0.04,0.02-0.05c-0.02,0.04,0.01-0.01,0.01-0.02
				c0.02-0.03,0.03-0.07,0.05-0.1c0.04-0.07,0.02-0.16-0.04-0.21s-0.16-0.05-0.22,0.01s-0.11,0.13-0.16,0.21s-0.07,0.17-0.1,0.25
				c-0.01,0.04-0.01,0.08-0.01,0.12c-0.09,0.12-0.1,0.28-0.12,0.44c-0.03,0.22-0.04,0.44-0.04,0.66c0,0.5,0.14,0.96,0.26,1.44
				c0.13,0.49,0.22,0.99,0.3,1.5c0.08,0.5,0.09,1.01,0.21,1.5c0.07,0.28,0.55,0.31,0.6,0C40.32,26.51,40.06,25.44,39.77,24.51z"/>
			<path class="st14" d="M47.45,15.89c-0.07-0.7-0.15-1.41-0.27-2.1c-0.12-0.72-0.28-1.44-0.5-2.14c-0.18-0.57-0.68-1.32-0.26-1.88
				c0.28-0.38-0.36-0.88-0.66-0.51c-0.22,0.26-0.29,0.55-0.28,0.85c-0.02,0-0.04-0.01-0.06-0.01c-0.04,0-0.09,0.01-0.13,0.02
				c-0.06,0.01-0.11,0.05-0.16,0.09c-0.03,0.02-0.05,0.06-0.08,0.09c-0.03,0.04-0.06,0.09-0.07,0.15c-0.02,0-0.03-0.01-0.05,0
				c-0.32,0.03-0.6,0.17-0.9,0.3c-0.31,0.13-0.61,0.25-0.92,0.38c-0.4,0.16-0.82,0.31-1.2,0.49c-0.36,0.17-0.69,0.38-1.06,0.53
				c-0.41,0.16-0.84,0.28-1.23,0.49s-0.73,0.55-0.82,0.99c-0.1,0.49,0.13,0.99,0.06,1.48c-0.04,0.26-0.04,0.53-0.09,0.8
				c-0.06,0.31-0.14,0.62-0.2,0.93c-0.02,0.1-0.04,0.2,0,0.3c0.28-0.24,0.46-0.56,0.58-0.9c0.27-0.78,0.3-1.63,0.51-2.43
				c0.06-0.24,0.17-0.29,0.37-0.39c0.23-0.11,0.46-0.25,0.69-0.36c0.47-0.22,0.95-0.42,1.43-0.62c0.52-0.22,1.05-0.43,1.57-0.65
				c0.48-0.2,1.07-0.35,1.47-0.68c0.12-0.1,0.14-0.28,0.08-0.42l0.01-0.01c0.02-0.01,0.03-0.02,0.05-0.03
				c0.02-0.01,0.05-0.02,0.07-0.02c0.04-0.01,0.07-0.03,0.11-0.05c0.01-0.01,0.02-0.02,0.03-0.02c0.04,0.16,0.1,0.31,0.16,0.47
				c0.33,0.79,0.63,1.55,0.82,2.38c0.2,0.85,0.32,1.71,0.44,2.57c0.03,0.22,0.13,0.47-0.08,0.63c-0.1,0.07-0.22,0.11-0.33,0.14
				c-2.58,0.68-5.22,1.27-7.57,2.54c-0.11,0.06-0.23,0.13-0.3,0.24c-0.07,0.1-0.09,0.23-0.09,0.35c-0.02,0.35,0.07,0.71,0.24,1.02
				c0.07-0.35,0.14-0.71,0.37-0.98c0.16-0.18,0.37-0.3,0.59-0.41c0.61-0.3,1.25-0.5,1.9-0.71c0.43-0.14,0.86-0.27,1.28-0.41
				c1.31-0.42,2.63-0.84,3.94-1.27c0.03-0.01,0.06-0.02,0.08-0.01c0.04,0.02,0.05,0.07,0.06,0.11c0.05,0.33,0.14,0.65,0.28,0.95
				c0.06,0.15,0.16,0.31,0.31,0.34c0.01,0-0.02-1.12-0.02-1.2C47.58,16.82,47.5,16.36,47.45,15.89z"/>
			<path class="st15" d="M56.24,9.27c-0.15-0.26-0.56-0.06-0.77,0.1c-0.3,0.24-0.45,0.62-0.41,1c0.05,0.39,0.34,0.97,0.74,1.09
				c0-0.21-0.15-0.39-0.21-0.59c-0.05-0.18-0.02-0.38,0.08-0.54c0.1-0.16,0.26-0.27,0.4-0.4s0.25-0.31,0.22-0.5
				C56.28,9.36,56.26,9.31,56.24,9.27z"/>
			<path class="st14" d="M70.47,7.36c0.35-0.31-0.12-0.93-0.5-0.65c-0.56,0.41-0.74,1.08-0.9,1.72c-0.15,0.58-0.4,1.13-0.55,1.7
				c-0.28,1.04-0.01,1.97,0.23,2.99c0.22,0.93,0.41,1.87,0.67,2.79c0.1,0.37,0.68,0.21,0.57-0.16c-0.22-0.76-0.45-1.51-0.62-2.28
				c-0.17-0.77-0.41-1.61-0.39-2.4c0.02-0.74,0.47-1.39,0.72-2.06C69.92,8.41,69.97,7.81,70.47,7.36z"/>
			<path class="st14" d="M53.46,8.33c-0.49-0.28-1.15-0.1-1.66,0.03c-0.57,0.15-1.13,0.31-1.7,0.46s-1.14,0.31-1.71,0.46
				c-0.17,0.04-0.34,0.1-0.51,0.12c-0.21,0.02-0.44,0-0.62,0.11c-0.03,0.02-0.06,0.05-0.06,0.08c0,0.02,0.01,0.04,0.01,0.06
				c0.06,0.14,0.13,0.27,0.2,0.39c0.01,0.02,0.02,0.04,0.04,0.05s0.05,0.01,0.07,0.01c0.22-0.01,0.45-0.01,0.66-0.05
				c0.24-0.05,0.48-0.13,0.72-0.18c0.5-0.12,1.01-0.23,1.51-0.35c0.5-0.12,1-0.23,1.5-0.34c0.24-0.05,0.48-0.11,0.73-0.12
				c0.24-0.02,0.49,0.01,0.73-0.03C53.7,8.97,53.72,8.48,53.46,8.33z"/>
			<path class="st14" d="M59.9,7.31c-0.3,0-0.61,0.11-0.9,0.17c-0.3,0.07-0.61,0.13-0.92,0.19c-0.61,0.11-1.24,0.16-1.86,0.09
				c-0.55-0.06-1.13-0.25-1.67-0.04c-0.28,0.11-0.59,0.34-0.63,0.67c-0.03,0.22,0.09,0.42,0.14,0.63s0.04,0.42,0.04,0.64
				c-0.01,0.62,0.06,1.25,0.19,1.86c0.01,0.06,0.03,0.13,0.08,0.18c0.12,0.11,0.28,0.01,0.28-0.14c-0.01-0.26-0.01-0.52-0.03-0.78
				s-0.04-0.52-0.05-0.79c-0.02-0.5-0.06-1-0.24-1.47c0.08-0.07,0.15-0.14,0.25-0.19c0.2-0.1,0.43-0.11,0.65-0.09
				c0.55,0.06,1.08,0.22,1.64,0.24c0.54,0.02,1.08-0.04,1.62-0.13C59,8.27,59.61,8.2,60.07,7.96C60.39,7.8,60.23,7.31,59.9,7.31z"/>
			<path class="st14" d="M68.54,6.95c-0.85,0.42-1.83,0.24-2.74,0.18c-1.04-0.06-2.08-0.15-3.12-0.17c-0.49-0.01-0.98,0-1.46,0.07
				c-0.39,0.05-0.83,0.13-0.92,0.59c-0.04,0.2,0.03,0.37,0.07,0.56c0.06,0.29,0.08,0.58,0.11,0.87c0.04,0.52,0.04,1.05,0.06,1.58
				c0.01,0.13,0.2,0.13,0.2,0c0.02-0.47,0.02-0.95,0.05-1.42c0.02-0.29-0.01-1.12,0.23-1.28c0.14-0.09,0.55-0.04,0.71-0.04
				c0.24,0,0.48,0.01,0.71,0.03c0.5,0.04,1.01,0.08,1.51,0.11c0.96,0.06,1.91,0.12,2.87,0.17c0.8,0.04,1.64,0.03,2.26-0.53
				C69.49,7.3,68.98,6.74,68.54,6.95z"/>
			<path class="st14" d="M96.1,10.39c-3.31-0.91-6.66-1.6-10.05-2.11c-1.62-0.24-3.25-0.45-4.88-0.61
				c-1.52-0.15-3.03-0.32-4.56-0.26c-1.56,0.05-3.12,0-4.67-0.14c-0.13-0.01-0.27-0.02-0.39,0.05c-0.2,0.12-0.21,0.4-0.2,0.64
				c0.53,0.04,1.06,0.08,1.6,0.12c0.44,0.03,0.9,0.07,1.3,0.27c0.58,0.29,0.7,0.81,0.82,1.38c0.18,0.82,0.18,1.68,0.26,2.51
				c0.01,0.07,0.11,0.07,0.11,0c0.02-0.77-0.01-1.54,0.06-2.31c0.03-0.35,0.07-0.7,0.09-1.05c0.02-0.3,0.07-0.58,0.23-0.84
				C75.85,8,75.85,7.95,75.86,7.9c0.02,0.01,0.04,0.02,0.06,0.02c1.6,0.31,3.25,0.34,4.86,0.5c1.73,0.17,3.46,0.39,5.18,0.66
				c3.34,0.53,6.65,1.26,9.91,2.12C96.4,11.33,96.62,10.53,96.1,10.39z"/>
			<path class="st14" d="M98.46,12.46c0.01-0.42-0.07-0.82-0.16-1.23c-0.11-0.46-0.27-1.08-0.82-1.12s-0.48,0.68-0.35,1
				c0.11,0.26,0.28,0.5,0.41,0.75c0.48,0.88,0.54,1.92,0.49,2.91c-0.01,0.18,0.04,0.43,0.22,0.42c0.11-0.01,0.23-1.32,0.22-1.45
				C98.48,13.31,98.45,12.89,98.46,12.46z"/>
			<path class="st14" d="M52.79,29.14c-0.16-0.11-0.44-0.12-0.63-0.13c-1.69-0.12-3.39,0.01-5.08,0.21c-0.1,0.01-0.21,0.03-0.28,0.1
				c-0.38,0.4,1.21,0.43,1.37,0.43c0.53,0.02,1.05,0.03,1.58,0.05c0.51,0.02,1.01,0.01,1.52-0.02c0.5-0.03,1.04-0.07,1.51-0.26
				C52.95,29.45,52.93,29.23,52.79,29.14z"/>
			<path class="st14" d="M52.64,25.93c-0.04-0.01-0.07-0.03-0.11-0.04c-0.1-0.04-0.19-0.07-0.29-0.09
				c-0.16-0.03-0.33-0.02-0.49,0.01c-0.46,0.07-0.9,0.21-1.35,0.35c-0.92,0.29-1.84,0.58-2.77,0.86c-0.07,0.02-0.04,0.12,0.03,0.11
				c0.88-0.15,1.75-0.31,2.63-0.42c0.42-0.05,0.84-0.15,1.26-0.19c0.5,0,1.01-0.12,1.5-0.2c0.06-0.01,0.14-0.04,0.14-0.1
				c0-0.05-0.06-0.08-0.11-0.1C52.94,26.05,52.79,25.99,52.64,25.93z"/>
			<path class="st14" d="M82.04,27c0.11,0.01,0.21,0.02,0.32,0.03c1.08,0.12,2.18,0.21,3.26,0.09c-0.95-0.4-2.07-0.45-3.08-0.52
				c-0.53-0.04-1.06-0.06-1.58-0.12c-0.44-0.05-0.87,0-1.32,0.01c-0.84,0.03-1.69,0.07-2.53,0.14c0.26,0.19,0.63,0.17,0.93,0.18
				c0.41,0.02,0.82,0.05,1.23,0.08C80.19,26.97,81.13,26.93,82.04,27z"/>
			<path class="st14" d="M95.56,68.11c-0.73-0.18-1.45-0.35-2.18-0.54c-0.72-0.19-1.43-0.43-2.17-0.55
				c-0.05-0.01-0.08,0.06-0.04,0.09c0.64,0.39,1.35,0.62,2.07,0.83c0.73,0.22,1.47,0.4,2.23,0.52
				C95.69,68.48,95.79,68.16,95.56,68.11z"/>
			<path class="st14" d="M67.59,76.05c-0.53-0.33-1.11-0.04-1.62,0.18c-0.57,0.26-1.08,0.56-1.62,0.87
				c-0.54,0.31-1.06,0.63-1.52,1.04c-0.04,0.03,0.02,0.08,0.05,0.05c0.42-0.34,0.89-0.63,1.37-0.88c0.49-0.25,1.05-0.39,1.56-0.58
				c0.42-0.16,1.08-0.52,1.52-0.27c0.19,0.11,0.36,0.33,0.51,0.49c0.2,0.23,0.44,0.42,0.63,0.65c0.03,0.03,0.08-0.01,0.06-0.05
				C68.25,77.05,68.14,76.39,67.59,76.05z"/>
			<path class="st14" d="M98.96,86.83c-0.03-0.05-0.02-0.15-0.03-0.21c-0.01-0.08-0.04-0.16-0.05-0.24c-0.16-1-0.31,0.12-0.59-0.11
				c-0.45-0.38-0.92-0.75-1.4-1.1c-0.09-0.06-0.62-0.52-0.7-0.46c-0.13,0.09,0.26,0.49,0.32,0.57c0.2,0.25,0.42,0.47,0.65,0.69
				c0.22,0.21,0.45,0.42,0.69,0.62c0.24,0.21,0.5,0.43,0.78,0.57C98.85,87.27,99.08,87.06,98.96,86.83z"/>
			<path class="st14" d="M104.54,105.35c-1.57,0.04-3.14,0.32-4.63,0.83c-0.73,0.25-1.43,0.57-2.11,0.93
				c-0.36,0.19-0.72,0.39-1.06,0.6c-0.33,0.21-0.65,0.57-1.07,0.48c-0.25-0.05-0.5,0.11-0.5,0.38c0,0.41,0.04,0.86-0.08,1.25
				c-0.07,0.24-0.22,0.4-0.38,0.54c0-0.66-0.31-1.37-0.5-1.97c-0.44-1.44-0.94-2.86-1.5-4.27c-0.45-1.15-1-2.26-1.57-3.36
				c-0.53-1.03-1.23-2.08-1.55-3.19c-0.68-2.35-0.85-4.75-1.11-7.18c-0.07-0.66-0.16-1.32-0.24-1.98c-0.09-0.69-0.18-1.38-0.27-2.07
				c-0.08-0.61-0.16-1.22-0.3-1.82c-0.15-0.61-0.37-1.21-0.62-1.78c-0.28-0.63-0.6-1.23-1-1.79c-0.37-0.5-0.81-0.97-1.03-1.56
				s-0.29-1.26-0.44-1.87c-0.25-1.05-0.6-2.06-0.52-3.14c0.07-0.95-0.25-1.83-0.6-2.7c-0.42-1.06-0.85-2.11-1.28-3.16
				c-0.25-0.6-0.54-1.2-0.7-1.83c-0.13-0.51-0.52-1.06-0.21-1.58c0.06-0.09,0.13-0.18,0.17-0.28c0.08-0.2,0.03-0.43-0.04-0.63
				c-0.31-0.93-0.83-1.79-1.52-2.49c-0.31-0.31-0.64-0.59-0.93-0.92c-0.61-0.7-0.96-1.59-1.12-2.49c-0.15-0.85-0.48-1.65-0.74-2.49
				c-0.29-0.91-0.63-1.81-1-2.69c-0.35-0.84-0.86-1.67-1.09-2.55c-0.1-0.39-0.08-0.79-0.25-1.17c-0.14-0.31-0.37-0.57-0.6-0.81
				c0.7,0.21,1.4,0.43,2.06,0.76c1.8,0.91,2.96,3.04,5.09,3.27c0.01,0,0.01-0.02,0-0.02c-1.09-0.18-1.89-0.97-2.64-1.72
				c-0.72-0.72-1.42-1.42-2.3-1.95c-0.91-0.54-1.9-1-2.87-1.42c-0.14-0.06-0.27-0.13-0.4-0.19c-0.1-0.11-0.19-0.23-0.28-0.35
				c-0.39-0.54-0.71-1.13-0.94-1.75c-0.2-0.54-0.35-1.01-0.73-1.45c-0.47-0.54-0.78-1.18-1.13-1.8c-0.75-1.33-1.52-2.65-2.25-3.99
				c-0.38-0.71-0.76-1.43-1.16-2.13c-0.41-0.71-0.91-1.34-1.31-2.04c-0.02-0.03-0.07,0-0.05,0.03c0.3,0.66,0.47,1.34,0.71,2.02
				c0.23,0.66,0.78,1.2,1.03,1.88c0.2,0.54,0.33,1.11,0.51,1.66c0.19,0.58,0.54,1.04,0.79,1.58c0.15,0.33,0.28,0.67,0.4,1.01
				c0.39,1.09,0.78,2.18,1.16,3.27c0.17,0.47,0.3,1,0.57,1.42c0.32,0.5,0.66,0.99,0.95,1.51c0.59,1.03,1.09,2.12,1.54,3.22
				c0.91,2.23,1.62,4.53,2.48,6.78c0.09,0.25,0.19,0.49,0.29,0.74c0.7,1.77,1.49,3.55,2.42,5.2c0.94,1.68,1.91,3.22,2.52,5.07
				c0.14,0.41,0.26,0.82,0.42,1.22c0.2,0.51,0.47,0.99,0.71,1.48c0.55,1.14,0.96,2.35,1.17,3.59c0.25,1.48,0.88,2.9,1.43,4.29
				c0.56,1.42,1.25,2.8,1.8,4.23c0.51,1.31,0.61,2.88,0.87,4.26c0.29,1.51,0.58,3.02,0.75,4.55c0.08,0.71,0.14,1.42,0.29,2.11
				c0.1,0.46,0.25,0.91,0.4,1.36c0.58,1.74,1.28,3.37,1.97,5.06c0.69,1.69,1.31,3.41,1.96,5.11c0.46,1.22,0.92,2.38,1.23,3.66
				c0.7,2.93,1.25,5.9,1.63,8.89c0.1,0.77,0.19,1.56,0.43,2.3c0.23,0.73,0.43,1.5,0.8,2.17c0.05,0.15,0.09,0.29,0.15,0.43
				c0.06,0.17,0.2,0.26,0.35,0.29c0.59,0.67,1.46,1.11,2.31,1.33c0.15,0.04,0.25-0.18,0.11-0.26c-0.48-0.25-0.83-0.47-1.19-0.88
				c-0.27-0.31-0.54-0.63-0.77-0.97c-0.08-0.83-0.45-1.66-0.18-2.49c0.08-0.25,0.17-0.48,0.09-0.75c-0.06-0.2-0.21-0.36-0.32-0.53
				c-0.27-0.38-0.49-0.79-0.74-1.19c-0.05-0.73-0.11-1.47-0.25-2.19c-0.13-0.68-0.36-1.22-0.68-1.75c-0.02-0.25-0.05-0.5-0.09-0.75
				c-0.14-0.81-0.36-1.59-0.65-2.35c0.07-0.34,0.23-0.65,0.48-0.9c0.5-0.5,0.72-0.99,0.82-1.64c0.17-0.08,0.32-0.21,0.5-0.35
				c0.32-0.25,0.65-0.49,0.99-0.72c0.67-0.46,1.39-0.84,2.14-1.16c1.61-0.7,3.25-1.12,5-1.25
				C104.57,105.39,104.57,105.34,104.54,105.35z"/>
			<path class="st14" d="M105.48,133.1c-0.4,0.07-0.8,0.14-1.2,0.21c-0.29,0.05-0.61,0.11-0.87-0.03c-0.3-0.16-0.43-0.54-0.38-0.87
				c0.06-0.33,0.27-0.62,0.52-0.85c0.13-0.11,0.27-0.22,0.38-0.34c0.19-0.21,0.32-0.46,0.45-0.72c0.48-0.98,0.97-1.96,1.26-3.01
				c-0.59,0.9-1.18,1.81-1.77,2.71c-0.26,0.39-0.53,0.8-0.96,0.99c-0.17,0.07-0.36,0.11-0.48,0.26c-0.18,0.23-0.06,0.56,0.05,0.82
				c0.36,0.85,0.58,1.76,0.79,2.66c0.21,0.89,0.42,1.78,0.64,2.67c0.14,0.58,0.28,1.17,0.34,1.77c0.05,0.43,0.06,0.89,0.3,1.26
				c0.41,0.63,0.97,0.29,1.52,0.17c0.81-0.18,1.63-0.36,2.44-0.54c0.42-0.09,0.85-0.19,1.25-0.36c-0.68-0.31-1.59-0.59-2.34-0.45
				c-0.73,0.13-1.45,0.03-2.15-0.25c-0.1-0.04-0.2-0.09-0.27-0.17c-0.09-0.11-0.11-0.27-0.12-0.41c-0.1-1.31-0.35-2.61-0.77-3.86
				c-0.03-0.11-0.07-0.23-0.01-0.32c0.03-0.05,0.08-0.09,0.13-0.12c0.43-0.27,0.99-0.42,1.49-0.52c0.58-0.11,1.16-0.13,1.74-0.23
				c0.27-0.05,0.54-0.11,0.8-0.18c0.4-0.1,0.8-0.19,1.2-0.29c0.46-0.11,0.93-0.23,1.39-0.37c0.22-0.07,0.45-0.15,0.61-0.33
				c-0.49,0.01-1-0.03-1.48,0.03c-0.5,0.06-1,0.13-1.5,0.2c-0.5,0.07-1,0.14-1.5,0.22c-0.25,0.04-0.5,0.08-0.75,0.12
				C105.99,133.01,105.73,133.1,105.48,133.1z"/>
			<path class="st16" d="M54.49,13.68c-0.03,0-0.03,0.05,0,0.05C54.52,13.73,54.52,13.68,54.49,13.68z"/>
			<path class="st14" d="M60.53,28.7c-0.23-0.39-0.56-0.72-0.83-1.09c-0.28-0.39-0.53-0.81-0.78-1.23c-0.49-0.83-0.85-1.81-1.2-2.71
				c-0.69-1.79-1.21-3.65-1.77-5.48c-0.01-0.04-0.07-0.02-0.07,0.02c0.31,2.02,0.76,4.01,1.51,5.92c0.35,0.89,0.81,1.68,1.29,2.5
				c0.43,0.74,1.01,1.7,1.71,2.22C60.48,28.9,60.57,28.78,60.53,28.7z"/>
			<g>
				<path d="M56.37,12.35c-0.38,0-0.76-0.15-1.07-0.45c-0.35-0.33-0.57-0.79-0.64-1.3c-0.06-0.51,0.05-1.01,0.31-1.41
					c0.27-0.41,0.66-0.66,1.1-0.72c0.9-0.11,1.75,0.67,1.88,1.73l0,0c0.13,1.07-0.5,2.02-1.41,2.13
					C56.49,12.34,56.43,12.35,56.37,12.35z M56.25,8.77c-0.04,0-0.09,0-0.13,0.01c-0.35,0.04-0.66,0.25-0.88,0.58
					c-0.22,0.34-0.31,0.77-0.26,1.21c0.05,0.44,0.24,0.83,0.54,1.11c0.29,0.27,0.64,0.4,0.99,0.35c0.74-0.09,1.25-0.89,1.14-1.79
					l0,0C57.55,9.4,56.93,8.77,56.25,8.77z"/>
			</g>
			<g>
				<path d="M56.19,11.63c-0.56,0-1.06-0.5-1.14-1.17c-0.09-0.72,0.34-1.36,0.94-1.43c0.61-0.07,1.17,0.45,1.26,1.17l0,0
					c0.09,0.72-0.34,1.36-0.94,1.43C56.27,11.63,56.23,11.63,56.19,11.63z M56.11,9.18c-0.03,0-0.06,0-0.1,0.01
					c-0.52,0.06-0.89,0.63-0.81,1.26c0.08,0.63,0.56,1.1,1.09,1.03c0.52-0.06,0.89-0.63,0.81-1.26C57.03,9.62,56.59,9.18,56.11,9.18
					z"/>
			</g>
			<g>
				<g>
					<path d="M69.98,46.75c0.01,0.84,0.2,1.63,0.34,2.45c0.18,1.03,0.06,2.09,0.11,3.13c0.13,2.3,0.14,4.61,0.27,6.91
						c0.12,2.18,0.4,4.35,0.56,6.54c0.15,2.05,0.81,4.01,1.47,5.95c0.69,2.07,1.34,4.14,1.29,6.34c-0.03,1.12-0.17,2.23-0.18,3.35
						c-0.01,1.08,0.13,2.15,0.31,3.21c0.38,2.32,0.83,4.62,1.1,6.95c0.26,2.24,0.45,4.48,0.6,6.73c0.15,2.17,0.43,4.41,0.31,6.58
						c-0.06,1.08-0.38,2.13-0.49,3.2s0.06,2.13,0.15,3.19c0.09,1.07-0.07,2.08-0.11,3.14c-0.04,1.02,0.29,2,0.31,3.03
						c0.01,0.94-0.16,1.93,0.01,2.86c0.2,1.06,0.18,2.14,0.03,3.21c-0.14,0.98-0.3,2.23-0.97,3.01c-0.55,0.64-1.01,1.21-1.28,2.03
						c-0.31,0.9-0.36,1.85-0.34,2.8c0.03,1.1,0.06,2.21,0.11,3.32c0.05,1.12,0.14,2.23,0.26,3.34c0.05,0.47,0.26,1.13,0.05,1.59
						c-0.16,0.34-0.58,0.56-0.9,0.71c-1.65,0.78-3.7,1.38-5.53,1.34c-2.22-0.05-4.4-0.35-6.55-0.88c-0.72-0.18-1.59-0.31-1.91-1.08
						c-0.18-0.42-0.18-0.91-0.21-1.36c-0.05-0.6-0.11-1.2-0.16-1.8c-0.1-1.1-0.19-2.19-0.26-3.29c-0.05-0.97-0.07-2.06-0.43-2.97
						c-0.31-0.79-0.96-0.84-1.68-1.07c-0.83-0.26-0.32-1.57-0.33-2.23c-0.01-1.06-0.12-2.13-0.3-3.17c-0.09-0.49-0.2-0.97-0.33-1.45
						c-0.15-0.53-0.38-1.04-0.2-1.6c0.25-0.82,0.74-1.42,0.58-2.34c-0.17-0.97-0.77-1.82-1.09-2.73c-0.73-2.07-0.85-4.32-0.92-6.49
						c-0.04-1.05,0.01-2.11-0.14-3.16c-0.14-1.03-0.4-2.05-0.58-3.08c-0.4-2.26-0.66-4.56-0.91-6.84c-0.24-2.16-0.29-4.39-0.72-6.52
						c-0.2-1.02-0.68-2.04-0.7-3.09c-0.02-0.89,0.39-1.7-0.12-2.54c-0.2-0.32-0.47-0.58-0.7-0.88c-0.34-0.45-0.4-0.92-0.35-1.47
						c0.08-0.95,0.2-1.77-0.15-2.69c-0.34-0.89-0.75-1.73-1.06-2.63c-0.37-1.05-0.77-2.05-0.98-3.15c-0.42-2.21-0.44-4.46-0.56-6.7
						c-0.22-4.41-0.67-8.81-1.56-13.14c-0.91-4.43-2.68-8.71-3.18-13.22c-0.25-2.19-0.36-4.34-0.89-6.48
						c-0.28-1.13-0.38-2.24-0.45-3.39c-0.07-1.07-0.31-2.09-0.54-3.14c-0.49-2.19-0.72-4.45-1.03-6.67
						c-0.16-1.11-0.59-2.49-0.27-3.58c0.12-0.4,0.35-0.77,0.46-1.18c0.12-0.44,0.07-0.86-0.01-1.31c-0.16-0.95,0.32-1.4,1.13-1.8
						c0.86-0.42,1.76-0.75,2.64-1.12c0.52-0.22,1.03-0.43,1.55-0.65c0.35-0.15,0.85-0.26,1.09-0.59c0.22-0.3,0.07-0.5,0.49-0.61
						c0.29-0.08,0.52-0.11,0.8,0c0.22,0.08,0.37,0.2,0.61,0.22c0.38,0.02,0.78-0.14,1.15-0.23c0.56-0.14,1.11-0.28,1.67-0.43
						c1.12-0.29,2.21-0.44,3.37-0.5c0.52-0.03,0.52-0.84,0-0.81C52.61,7.9,51.56,8,50.5,8.27c-0.56,0.14-1.11,0.28-1.67,0.43
						c-0.59,0.15-1.08,0.36-1.65,0.12c-0.55-0.23-1.61-0.13-2.02,0.36c-0.1,0.12-0.09,0.28-0.17,0.4c-0.17,0.26-0.53,0.37-0.8,0.48
						c-0.56,0.23-1.11,0.47-1.67,0.7c-0.84,0.35-1.7,0.67-2.52,1.06c-0.58,0.27-1.17,0.64-1.47,1.23c-0.42,0.82,0.12,1.66-0.13,2.49
						c-0.13,0.44-0.38,0.83-0.48,1.28c-0.11,0.49-0.07,0.99,0,1.48c0.3,2.32,0.64,4.63,0.99,6.94c0.18,1.16,0.45,2.29,0.69,3.44
						c0.23,1.14,0.19,2.3,0.33,3.45c0.14,1.11,0.51,2.18,0.71,3.28c0.22,1.2,0.28,2.43,0.39,3.65c0.2,2.28,0.69,4.48,1.28,6.69
						c0.6,2.22,1.29,4.42,1.79,6.66c0.51,2.29,0.9,4.6,1.18,6.93c0.28,2.28,0.46,4.57,0.58,6.86c0.12,2.23,0.15,4.47,0.51,6.67
						c0.33,2.02,1.09,4.04,1.95,5.89c0.23,0.49,0.41,0.98,0.42,1.52c0.01,0.52-0.12,1.04-0.14,1.56c-0.03,0.88,0.31,1.48,0.86,2.13
						c0.41,0.49,0.54,0.86,0.44,1.5c-0.08,0.51-0.14,0.98-0.08,1.49c0.12,1.01,0.53,1.97,0.72,2.97c0.43,2.28,0.49,4.66,0.75,6.97
						c0.26,2.25,0.51,4.52,0.94,6.74c0.21,1.1,0.5,2.2,0.56,3.32s0.03,2.24,0.09,3.36c0.13,2.16,0.33,4.35,1.21,6.35
						c0.47,1.08,1.06,1.94,0.52,3.12c-0.37,0.81-0.51,1.42-0.25,2.29c0.33,1.12,0.56,2.25,0.66,3.42c0.04,0.53,0.09,1.06,0.08,1.59
						c0,0.45-0.11,0.88-0.14,1.32c-0.04,0.62,0.16,1.2,0.75,1.47c0.36,0.17,0.87,0.12,1.2,0.35c0.47,0.34,0.5,1.39,0.55,1.89
						c0.23,2.27,0.31,4.57,0.55,6.84c0.07,0.64,0.22,1.28,0.7,1.75c0.53,0.52,1.27,0.67,1.97,0.84c2.15,0.53,4.31,0.8,6.52,0.9
						c1.93,0.08,3.86-0.52,5.64-1.21c0.6-0.23,1.25-0.52,1.64-1.07c0.52-0.74,0.22-1.71,0.13-2.54c-0.24-2.26-0.37-4.59-0.34-6.87
						c0.01-1.05,0.22-2.21,0.87-3.06c0.56-0.72,1.04-1.19,1.29-2.09c0.28-0.99,0.46-2.01,0.52-3.03c0.03-0.49,0.06-1,0.02-1.49
						c-0.03-0.52-0.21-1.01-0.21-1.54c-0.02-1.05,0.11-2.09-0.01-3.14c-0.06-0.5-0.22-0.99-0.24-1.49
						c-0.03-0.56,0.06-1.11,0.11-1.66c0.11-1.12-0.04-2.2-0.14-3.31c-0.1-1.16,0.03-2.23,0.25-3.37c0.43-2.21,0.17-4.46,0.02-6.69
						c-0.15-2.34-0.32-4.67-0.56-7c-0.24-2.28-0.55-4.54-0.97-6.79c-0.22-1.2-0.46-2.4-0.54-3.62c-0.08-1.17,0.03-2.32,0.1-3.49
						c0.14-2.24-0.25-4.31-0.94-6.44c-0.67-2.06-1.48-4.11-1.73-6.27c-0.13-1.11-0.16-2.23-0.28-3.34
						c-0.13-1.14-0.24-2.27-0.31-3.41c-0.14-2.34-0.14-4.69-0.27-7.04c-0.06-1.02,0.05-2.05-0.08-3.06
						c-0.12-0.89-0.36-1.74-0.38-2.65C70.79,46.22,69.98,46.22,69.98,46.75L69.98,46.75z"/>
				</g>
				<g>
					<path d="M104.34,140.59c-0.32-0.5-0.39-1.1-0.47-1.68c-0.09-0.71-0.22-1.41-0.35-2.12c-0.29-1.62-0.61-3.24-0.97-4.84
						c-0.28-1.25-0.48-2.75-1.28-3.79c-0.35-0.46-0.79-0.82-1.25-1.17c-0.59-0.45-1.1-1-1.65-1.51c-0.52-0.49-1.06-0.98-1.44-1.59
						c-0.41-0.67-0.62-1.46-0.79-2.22c-0.34-1.53-0.39-3.11-0.59-4.66c-0.39-3.1-1.38-6.09-2.31-9.06c-0.47-1.48-0.96-2.96-1.55-4.4
						c-0.57-1.4-1.23-2.77-1.81-4.17c-1.23-3-1.76-6.2-2.33-9.37c-0.29-1.61-0.56-3.22-0.82-4.83c-0.24-1.49-0.95-2.81-1.51-4.21
						c-0.6-1.5-1.19-3-1.67-4.54c-0.45-1.47-0.82-2.97-1.34-4.42c-1.03-2.89-2.4-5.66-3.85-8.36c-1.51-2.79-2.65-5.71-3.75-8.68
						c-1.07-2.9-2.22-5.71-3.72-8.41c-0.72-1.3-1.18-2.7-1.64-4.1c-0.43-1.3-1.15-2.45-1.69-3.7c-0.6-1.39-1.18-2.71-1.92-4.03
						c-0.63-1.13-1.1-2.37-1.88-3.41c-0.77-1.02-1.78-1.76-2.69-2.63c-1.04-1.01-1.98-2.14-2.69-3.41
						c-0.76-1.36-1.19-2.89-1.65-4.37c-0.46-1.49-0.86-3-1.2-4.52c-0.35-1.52-0.64-3.06-0.87-4.6c-0.12-0.8-0.22-1.6-0.31-2.4
						c-0.03-0.29-0.19-0.93,0.03-1.17c0.26-0.29,0.87-0.26,1.22-0.25c1.36,0.03,2.56,0.4,3.88-0.11c1.42-0.55,3.19-0.28,4.69-0.27
						c0.78,0.01,1.56,0.01,2.34,0.02c0.72,0.01,1.54,0.11,2.24-0.14c0.61-0.22,1.02-0.65,1.72-0.45c0.37,0.11,0.5,0.33,0.78,0.57
						c0.26,0.22,0.5,0.15,0.84,0.15C78.6,7.6,85.12,8.25,91.47,9.66c1.56,0.35,3.14,0.66,4.69,1.06c0.21,0.06,0.44-0.07,0.5-0.28
						c0.01-0.04,0.93,0.29,0.97,0.31c0.46,0.25,0.57,0.66,0.56,1.15c-0.01,0.87-0.1,1.71-0.03,2.59c0.06,0.76,0.17,1.52,0.29,2.27
						c0.08,0.54,0.35,1.44-0.27,1.75c-0.12,0.06-0.21,0.22-0.2,0.35c0.4,4.85,1.27,9.64,2.29,14.39c0.25,1.16,0.51,2.32,0.77,3.47
						c0.27,1.2,0.43,2.36,0.59,3.58c0.28,2.2,0.77,4.37,1.26,6.53c0.51,2.25,1.03,4.52,1.25,6.82c0.1,1.06,0.15,2.12,0.09,3.18
						c-0.05,1.09-0.36,2.15-0.19,3.24c0.18,1.16,0.47,2.31,0.8,3.43c0.31,1.07,0.58,2.22,1.1,3.21c0.24,0.45,0.6,0.83,0.83,1.29
						c0.27,0.54,0.33,1.14,0.35,1.74c0.03,0.97-0.07,1.95,0.15,2.9c0.24,1.05,0.97,1.89,1.32,2.9c0.37,1.07,0.64,2.19,0.96,3.28
						c0.65,2.29,1.31,4.57,1.94,6.87c0.65,2.36,1.26,4.72,1.81,7.1c0.25,1.09,0.61,2.17,0.82,3.26c0.23,1.18,0.29,2.41,0.28,3.61
						c-0.01,1.06-0.07,2.09,0.2,3.13c0.26,0.99,0.73,1.91,1.11,2.85c0.41,1.01,0.58,2,0.8,3.06c0.23,1.15,0.56,2.28,0.88,3.4
						s0.66,2.25,0.89,3.4c0.11,0.54,0.19,1.08,0.36,1.6c0.17,0.57,0.45,1.09,0.66,1.64c0.19,0.51,0.35,1.04,0.27,1.58
						s-0.32,1.03-0.39,1.58c-0.15,1.08-0.01,2.18,0.08,3.26c0.11,1.23-0.93,1.55-1.43,2.49c-0.45,0.86-0.41,2.2-0.31,3.13
						c0.13,1.15,0.05,2.32,0.08,3.48c0.04,1.23,0.07,2.45,0.11,3.68c0.02,0.58,0.05,1.16,0.05,1.74c0.01,0.61-0.14,0.65-0.7,0.59
						c-0.91-0.1-1.82-0.19-2.74-0.25c-2.3-0.16-4.63-0.24-6.9,0.25c-0.85,0.18-2.44,1.08-3.13,0.26c-0.34-0.4-0.91,0.18-0.58,0.58
						c0.59,0.7,1.5,0.65,2.31,0.41c1.16-0.34,2.27-0.63,3.48-0.74c2.3-0.19,4.76-0.08,7.05,0.23c0.55,0.08,1.25,0.24,1.71-0.17
						c0.61-0.54,0.3-1.79,0.28-2.49c-0.04-1.28-0.07-2.55-0.11-3.83c-0.03-1.2,0.04-2.41-0.07-3.6c-0.06-0.62-0.07-1.21-0.01-1.83
						c0.08-0.76,0.24-1.16,0.78-1.69c0.69-0.68,1.04-1.36,0.95-2.34c-0.11-1.16-0.28-2.4,0.02-3.54c0.28-1.05,0.44-1.82,0.05-2.89
						c-0.19-0.51-0.43-1-0.62-1.51c-0.21-0.6-0.31-1.22-0.44-1.84c-0.23-1.15-0.57-2.27-0.89-3.4c-0.34-1.16-0.67-2.33-0.9-3.52
						c-0.21-1.1-0.42-2.11-0.86-3.15c-0.41-0.97-0.88-1.93-1.11-2.97c-0.26-1.18-0.07-2.43-0.11-3.63
						c-0.09-2.34-0.75-4.54-1.29-6.81c-1.15-4.85-2.55-9.63-3.92-14.42c-0.29-1.01-0.53-2.05-0.99-3c-0.25-0.53-0.63-1-0.82-1.56
						c-0.19-0.54-0.22-1.12-0.23-1.68c-0.01-0.99,0.08-2.02-0.22-2.98c-0.15-0.47-0.4-0.87-0.68-1.27
						c-0.38-0.55-0.62-1.12-0.83-1.76c-0.37-1.16-0.73-2.32-1.01-3.51c-0.13-0.57-0.27-1.15-0.35-1.73c-0.1-0.68,0.02-1.32,0.11-2
						c0.29-2.19,0.05-4.45-0.32-6.62c-0.38-2.29-0.95-4.55-1.44-6.82c-0.25-1.14-0.48-2.29-0.65-3.45
						c-0.17-1.12-0.21-2.25-0.46-3.35c-1.13-4.97-2.23-9.95-2.89-15.01c-0.16-1.26-0.3-2.53-0.4-3.79c-0.07,0.12-0.13,0.23-0.2,0.35
						c0.8-0.4,0.84-1.27,0.73-2.06c-0.18-1.4-0.45-2.78-0.39-4.2c0.04-1.07,0.26-2.21-0.82-2.85c-0.62-0.37-1.96-0.86-2.24,0.13
						c0.17-0.09,0.33-0.19,0.5-0.28c-2-0.51-4.06-0.94-6.08-1.36c-2.03-0.42-4.08-0.75-6.13-1.02c-4.17-0.53-8.38-0.74-12.58-0.63
						c0.12,0.07,0.23,0.13,0.35,0.2c-0.54-0.73-1.42-1.15-2.34-0.94c-0.57,0.13-0.99,0.55-1.59,0.6c-0.75,0.06-1.52,0-2.26-0.01
						c-1.47-0.01-2.95-0.03-4.42-0.03c-0.6,0-1.19,0.01-1.76,0.21c-0.63,0.21-1.16,0.42-1.84,0.39c-1.12-0.04-2.4-0.47-3.48,0.02
						c-1.1,0.5-0.72,1.83-0.61,2.78c0.34,2.8,0.86,5.58,1.57,8.31c0.66,2.56,1.33,5.35,2.71,7.63c0.62,1.02,1.37,1.95,2.2,2.8
						c0.86,0.88,1.88,1.6,2.69,2.54c0.76,0.88,1.14,1.91,1.69,2.91c0.66,1.22,1.42,2.4,1.93,3.7c0.46,1.16,1.02,2.24,1.55,3.37
						c0.58,1.22,0.89,2.56,1.39,3.81c0.5,1.23,1.2,2.34,1.79,3.52c0.64,1.27,1.2,2.58,1.72,3.91c1,2.54,1.86,5.14,2.94,7.65
						c1.11,2.59,2.59,5.01,3.79,7.56c1.22,2.59,2.14,5.23,2.94,7.98c0.79,2.74,1.97,5.31,3,7.96c0.5,1.29,0.6,2.75,0.83,4.11
						c0.25,1.48,0.52,2.96,0.79,4.43c0.52,2.78,1.15,5.46,2.27,8.06c1.12,2.62,2.21,5.19,3.07,7.92c0.84,2.7,1.74,5.41,2.17,8.21
						c0.39,2.53,0.18,5.54,1.56,7.81c0.63,1.03,1.64,1.83,2.51,2.66c0.89,0.86,1.96,1.4,2.36,2.64c0.89,2.72,1.34,5.64,1.82,8.45
						c0.17,0.98,0.16,2.1,0.71,2.96C103.92,141.44,104.62,141.03,104.34,140.59z"/>
				</g>
				<g>
					<path d="M39.3,21.89c-0.01-0.02,0-0.03,0.02-0.04c-0.05,0.05-0.1,0.1-0.15,0.15c0.05-0.04-0.05,0.02,0.03-0.02
						c0.07-0.03,0.14-0.06,0.2-0.1c0.18-0.11,0.34-0.24,0.52-0.36c0.31-0.2,0.63-0.39,0.96-0.57c0.67-0.37,1.37-0.7,2.08-0.99
						c0.71-0.29,1.42-0.56,2.14-0.81c0.35-0.12,0.72-0.31,1.08-0.37c0.35-0.05,0.73,0.18,1.07,0.25c0.42,0.09,0.85,0.08,1.23-0.13
						c0.17-0.09,0.32-0.23,0.43-0.39c0.1-0.15,0.12-0.32,0.19-0.48c-0.03,0.06-0.07,0.12-0.1,0.18c0.06-0.07,0.49-0.12,0.58-0.14
						c0.2-0.05,0.39-0.09,0.59-0.14c0.44-0.1,0.88-0.21,1.32-0.31c0.86-0.2,1.72-0.41,2.58-0.61c0.51-0.12,0.29-0.91-0.22-0.78
						c-1.22,0.29-2.44,0.58-3.66,0.87c-0.28,0.07-0.55,0.13-0.83,0.2c-0.28,0.07-0.69,0.09-0.91,0.3c-0.15,0.15-0.13,0.36-0.25,0.51
						c-0.13,0.16-0.37,0.19-0.56,0.18c-0.58-0.04-1.07-0.4-1.67-0.27c-0.54,0.11-1.07,0.36-1.59,0.55
						c-1.04,0.38-2.08,0.79-3.08,1.28c-0.56,0.27-1.11,0.57-1.64,0.91c-0.24,0.16-0.47,0.35-0.72,0.49c-0.2,0.11-0.35,0.2-0.42,0.46
						C38.37,22.18,39.15,22.39,39.3,21.89L39.3,21.89z"/>
				</g>
				<g>
					<path d="M58.13,8.66c-0.11,2.2,0.35,4.37,0.81,6.5c0.11,0.51,0.9,0.3,0.78-0.22c-0.45-2.07-0.89-4.16-0.78-6.28
						C58.97,8.13,58.16,8.13,58.13,8.66L58.13,8.66z"/>
				</g>
				<g>
					<path d="M59.3,17.19c0.61,1.72,1.15,3.45,1.61,5.21c0.23,0.88,0.46,1.76,0.64,2.64c0.14,0.65,0.26,1.6-0.36,2.06
						c-0.18,0.13-0.27,0.35-0.15,0.56c0.1,0.17,0.38,0.28,0.56,0.15c0.73-0.55,0.95-1.43,0.85-2.31c-0.11-0.96-0.39-1.91-0.63-2.84
						c-0.49-1.92-1.08-3.82-1.74-5.68C59.92,16.48,59.13,16.7,59.3,17.19L59.3,17.19z"/>
				</g>
				<g>
					<path d="M60.96,15.53c1.33-0.12,2.67-0.23,4.01-0.37c0.64-0.07,1.27-0.06,1.91-0.09c0.66-0.03,1.3-0.13,1.96-0.21
						c0.22-0.03,0.41-0.17,0.41-0.41c0-0.2-0.19-0.43-0.41-0.41c-0.64,0.07-1.27,0.17-1.91,0.21c-0.33,0.02-0.66,0-0.99,0.01
						c-0.32,0.01-0.65,0.05-0.97,0.08c-1.33,0.15-2.67,0.25-4.01,0.37c-0.22,0.02-0.41,0.17-0.41,0.41
						C60.55,15.32,60.74,15.55,60.96,15.53L60.96,15.53z"/>
				</g>
				<g>
					<path d="M71.14,14.7c3.4-0.22,6.82,0.01,10.22,0.13c1.81,0.07,3.63,0.06,5.43,0.17c1.94,0.12,3.85,0.44,5.72,0.98
						c0.52,0.15,1.04,0.31,1.55,0.49c0.25,0.09,0.51,0.18,0.76,0.28c0.21,0.09,0.31,0.18,0.4,0.39c0.38,0.8,1.1,1.67,2.1,1.38
						c0.5-0.14,0.29-0.93-0.22-0.78c-0.34,0.1-0.62-0.14-0.83-0.38c-0.25-0.31-0.33-0.72-0.61-1.01c-0.3-0.32-0.78-0.44-1.18-0.58
						c-0.46-0.17-0.93-0.32-1.41-0.47c-1.84-0.56-3.74-0.91-5.66-1.07c-1.85-0.15-3.7-0.14-5.55-0.2c-1.71-0.06-3.42-0.14-5.13-0.19
						c-1.87-0.06-3.75-0.09-5.62,0.04C70.62,13.92,70.61,14.73,71.14,14.7L71.14,14.7z"/>
				</g>
				<g>
					<path d="M97.03,18.44c0.23,0.18,0.44,0.39,0.62,0.62c0.01,0.01,0.02,0.02,0.03,0.04c0.05,0.06-0.04-0.06-0.01-0.02
						c0.02,0.03,0.04,0.06,0.06,0.08c0.04,0.06,0.08,0.12,0.12,0.18c0.08,0.13,0.15,0.26,0.22,0.39c0.09,0.19,0.38,0.26,0.56,0.15
						c0.2-0.13,0.25-0.35,0.15-0.56c-0.28-0.56-0.68-1.07-1.17-1.46c-0.09-0.07-0.17-0.12-0.29-0.12c-0.1,0-0.22,0.04-0.29,0.12
						C96.89,18.01,96.85,18.29,97.03,18.44L97.03,18.44z"/>
				</g>
				<g>
					<path d="M40.3,28.32c0.37-1.23,0.9-2.43,1.12-3.7c0.23-1.32,0.1-2.68-0.31-3.95c-0.16-0.5-0.94-0.28-0.78,0.22
						c0.38,1.19,0.53,2.47,0.27,3.7c-0.25,1.21-0.73,2.34-1.09,3.52C39.37,28.6,40.15,28.82,40.3,28.32L40.3,28.32z"/>
				</g>
				<g>
					<path d="M90.97,22.22c-1.2,0.08-2.4,0.08-3.6-0.06c-1.12-0.13-2.23-0.39-3.31-0.71c-2.22-0.66-4.58-1.45-6.02-3.39
						c-0.71-0.95-1.19-2.08-1.35-3.26c-0.03-0.22-0.17-0.41-0.41-0.41c-0.2,0-0.44,0.19-0.41,0.41c0.31,2.35,1.64,4.47,3.67,5.71
						c1.12,0.68,2.38,1.11,3.62,1.51c1.15,0.37,2.33,0.68,3.53,0.86c1.42,0.21,2.85,0.25,4.27,0.15
						C91.48,23,91.49,22.18,90.97,22.22L90.97,22.22z"/>
				</g>
			</g>
			<g>
				<g>
					<path d="M95.73,27.67c1.2,3.78,2.15,7.64,2.85,11.55c0.02,0.13,0.22,0.07,0.2-0.05c-0.7-3.91-1.65-7.76-2.85-11.55
						C95.89,27.49,95.69,27.54,95.73,27.67L95.73,27.67z"/>
				</g>
				<g>
					<path d="M99.12,41.25c0.68,3.02,1.1,6.1,1.26,9.2c0.04,0.76,0.06,1.52,0.07,2.28c0,0.36,0,0.73,0,1.09
						c0,0.35-0.03,0.7,0.01,1.04c0.04,0.32,0.18,0.58,0.35,0.84c0.2,0.32,0.41,0.64,0.6,0.96c0.37,0.62,0.72,1.26,1.05,1.91
						c0.18,0.37,0.36,0.74,0.53,1.11c0.06,0.14,0.09,0.25,0.22,0.34c0.16,0.12,0.3,0.26,0.41,0.43c0.37,0.56,0.53,1.24,0.87,1.82
						c0.07,0.11,0.24,0.01,0.18-0.1c-0.31-0.52-0.47-1.11-0.77-1.64c-0.12-0.21-0.27-0.41-0.45-0.57c-0.13-0.12-0.21-0.21-0.28-0.37
						c-0.08-0.17-0.16-0.35-0.24-0.52c-0.31-0.66-0.64-1.3-1-1.94c-0.17-0.3-0.35-0.6-0.53-0.9c-0.19-0.32-0.43-0.62-0.59-0.95
						c-0.17-0.34-0.16-0.7-0.15-1.08c0.01-0.4,0.01-0.79,0.01-1.19c0-0.76-0.02-1.52-0.06-2.28c-0.07-1.52-0.21-3.03-0.4-4.54
						c-0.22-1.68-0.51-3.35-0.88-5C99.29,41.07,99.09,41.13,99.12,41.25L99.12,41.25z"/>
				</g>
				<g>
					<path d="M54.6,116.95c0.36,0.68,1,1.1,1.69,1.4c0.82,0.35,1.69,0.59,2.55,0.83c1.87,0.53,3.77,0.96,5.64,1.52
						c0.94,0.28,1.88,0.59,2.79,0.96c0.47,0.19,0.94,0.39,1.39,0.61c0.42,0.21,0.8,0.51,0.81,1.02c0.02,0.98-1.02,1.41-1.86,1.34
						c-0.53-0.05-1.04-0.25-1.52-0.47c-0.48-0.22-0.96-0.44-1.44-0.66c-2.01-0.9-4.09-1.9-6.33-1.96c-0.09,0-0.13,0.11-0.07,0.17
						c0.53,0.57,1.14,1.05,1.81,1.43c0.11,0.06,0.22-0.11,0.1-0.18c-0.66-0.37-1.26-0.84-1.77-1.4c-0.02,0.06-0.05,0.12-0.07,0.17
						c2.19,0.06,4.23,1.03,6.19,1.91c0.5,0.22,0.99,0.45,1.49,0.68c0.45,0.2,0.91,0.39,1.4,0.47c0.74,0.12,1.61-0.05,2.05-0.72
						c0.42-0.65,0.26-1.42-0.39-1.84c-0.39-0.26-0.85-0.43-1.28-0.61c-0.46-0.19-0.92-0.37-1.39-0.54c-1.95-0.69-3.96-1.18-5.96-1.7
						c-1.1-0.29-2.2-0.59-3.28-0.94c-0.91-0.3-1.89-0.71-2.36-1.6C54.71,116.74,54.53,116.84,54.6,116.95L54.6,116.95z"/>
				</g>
				<g>
					<path d="M57.34,124.68c1.34,1.13,2.86,2.01,4.49,2.63c0.12,0.05,0.18-0.15,0.05-0.2c-1.6-0.61-3.09-1.48-4.4-2.58
						C57.39,124.45,57.24,124.6,57.34,124.68L57.34,124.68z"/>
				</g>
				<g>
					<path d="M50.15,86.7c0.08,0.61,0.46,1.08,0.9,1.48c0.47,0.42,1,0.77,1.58,1.02c0.29,0.13,0.59,0.24,0.9,0.32
						c0.26,0.07,0.57,0.17,0.83,0.04c0.38-0.19,0.33-0.68,0.39-1.03c0.05-0.32,0.2-0.45,0.48-0.58c0.4-0.18,0.8-0.36,1.2-0.55
						c0.71-0.32,1.42-0.64,2.12-0.96c1.45-0.66,2.89-1.31,4.34-1.97c0.79-0.36,1.57-0.76,2.39-1.06c0.75-0.28,1.67-0.48,2.4-0.02
						c-0.01-0.05-0.01-0.11-0.02-0.16c-0.9,0.91-1.86,1.76-2.86,2.56c-0.1,0.08,0.04,0.22,0.14,0.14c1.01-0.79,1.96-1.65,2.86-2.56
						c0.05-0.05,0.03-0.12-0.02-0.16c-1.12-0.72-2.54-0.04-3.61,0.45c-1.38,0.63-2.77,1.26-4.15,1.89s-2.77,1.26-4.15,1.89
						c-0.32,0.15-0.68,0.27-0.98,0.45c-0.17,0.11-0.27,0.28-0.32,0.47c-0.05,0.21-0.05,0.42-0.08,0.63
						c-0.02,0.09-0.04,0.19-0.09,0.27c-0.15,0.22-0.43,0.16-0.65,0.1c-0.71-0.17-1.38-0.47-1.97-0.88
						c-0.61-0.42-1.32-1.01-1.42-1.79C50.34,86.57,50.14,86.57,50.15,86.7L50.15,86.7z"/>
				</g>
				<g>
					<path d="M63.76,86.67c-1.1,0.72-2.25,1.35-3.45,1.89c-0.12,0.05-0.02,0.23,0.1,0.18c1.19-0.54,2.35-1.18,3.45-1.89
						C63.97,86.77,63.87,86.6,63.76,86.67L63.76,86.67z"/>
				</g>
				<g>
					<path d="M70.2,78.42c-0.79,0.01-1.39-0.53-1.87-1.1c-0.24-0.29-0.45-0.59-0.7-0.87c-0.19-0.21-0.39-0.32-0.68-0.27
						c-0.69,0.13-1.4,0.45-2.03,0.76c-0.67,0.32-1.32,0.7-1.92,1.14c-0.11,0.08,0,0.25,0.1,0.18c0.58-0.42,1.2-0.78,1.84-1.1
						c0.34-0.17,0.69-0.31,1.04-0.45c0.32-0.12,0.68-0.28,1.02-0.33c0.41-0.05,0.68,0.46,0.9,0.73c0.22,0.28,0.44,0.56,0.7,0.81
						c0.43,0.41,0.98,0.71,1.59,0.7C70.33,78.62,70.33,78.42,70.2,78.42L70.2,78.42z"/>
				</g>
				<g>
					<path d="M97.09,59.53c-0.52-0.87-0.77-1.85-0.73-2.86c-0.04,0.03-0.09,0.07-0.13,0.1c0.22,0.03,0.36,0.18,0.5,0.34
						c0.16,0.19,0.32,0.39,0.48,0.59c0.3,0.38,0.6,0.76,0.89,1.14c0.59,0.77,1.17,1.54,1.75,2.32c1.12,1.5,2.25,3.01,3.46,4.45
						c0.69,0.83,1.41,1.63,2.17,2.39c0.09,0.09,0.24-0.05,0.14-0.14c-2.77-2.79-4.97-6.05-7.37-9.14c-0.33-0.42-0.66-0.85-1-1.26
						c-0.26-0.32-0.54-0.82-0.98-0.88c-0.07-0.01-0.13,0.03-0.13,0.1c-0.04,1.04,0.22,2.07,0.76,2.96
						C96.98,59.74,97.16,59.64,97.09,59.53L97.09,59.53z"/>
				</g>
				<g>
					<path d="M91.05,66.91c2.7,0.77,5.37,1.64,8,2.62c1.32,0.49,2.67,0.97,3.95,1.57c0.11,0.05,0.24,0.11,0.32,0.21
						c0.17,0.21-0.01,0.43-0.14,0.59c-0.21,0.26-0.43,0.51-0.66,0.75c-0.22,0.23-0.45,0.45-0.69,0.65
						c-0.25,0.21-0.54,0.55-0.89,0.52c-1.63-0.12-3.26-0.33-4.89-0.49c-0.13-0.01-0.13,0.19,0,0.2c1.6,0.16,3.2,0.33,4.8,0.48
						c0.29,0.03,0.44-0.03,0.66-0.2c0.29-0.22,0.56-0.46,0.82-0.71c0.24-0.23,0.47-0.47,0.69-0.72c0.2-0.23,0.5-0.51,0.56-0.82
						c0.09-0.53-0.67-0.73-1.03-0.88c-0.72-0.3-1.45-0.59-2.18-0.87c-1.43-0.55-2.87-1.08-4.32-1.57c-1.64-0.55-3.29-1.06-4.95-1.54
						C90.98,66.68,90.93,66.87,91.05,66.91L91.05,66.91z"/>
				</g>
				<g>
					<path d="M95.81,84.55c0.88,0.67,1.76,1.35,2.64,2.02c0.08,0.06,0.17-0.04,0.15-0.11c-0.09-0.39,0.24-0.68,0.58-0.78
						c0.33-0.09,0.68-0.07,1.02-0.06c0.75,0.01,1.51,0.06,2.26,0.12c1.51,0.13,3.01,0.35,4.51,0.58c0.13,0.02,0.18-0.18,0.05-0.2
						c-1.72-0.26-3.44-0.51-5.17-0.63c-0.43-0.03-0.87-0.05-1.3-0.07c-0.39-0.01-0.78-0.04-1.17,0.01
						c-0.54,0.07-1.12,0.46-0.98,1.08c0.05-0.04,0.1-0.08,0.15-0.11c-0.88-0.67-1.76-1.35-2.64-2.02
						C95.81,84.29,95.71,84.47,95.81,84.55L95.81,84.55z"/>
				</g>
				<g>
					<path d="M96.58,124.1c0.78,0.65,1.57,1.26,2.53,1.61c1.05,0.37,2.19,0.54,3.29,0.72c0.59,0.09,1.17,0.19,1.76,0.29
						c0.26,0.05,0.52,0.09,0.78,0.15c0.14,0.03,0.29,0.05,0.43,0.09c0.23,0.07,0.3,0.2,0.22,0.42c-0.1,0.26-0.3,0.5-0.45,0.74
						c-0.16,0.25-0.33,0.51-0.49,0.76c-0.31,0.48-0.62,0.96-0.93,1.44c-0.11,0.16-0.19,0.36-0.36,0.47
						c-0.13,0.08-0.26,0.15-0.39,0.22c-0.22,0.12-0.44,0.24-0.66,0.36c-0.12,0.06-0.01,0.24,0.1,0.18c0.21-0.11,0.41-0.22,0.62-0.33
						c0.18-0.1,0.43-0.19,0.57-0.34c0.18-0.19,0.31-0.48,0.45-0.7c0.18-0.28,0.36-0.56,0.55-0.85c0.35-0.54,0.71-1.06,1.04-1.61
						c0.17-0.28,0.33-0.7-0.04-0.89c-0.23-0.12-0.54-0.14-0.8-0.19c-0.31-0.06-0.62-0.11-0.92-0.17c-1.21-0.21-2.43-0.37-3.63-0.65
						c-0.65-0.15-1.29-0.34-1.88-0.66c-0.59-0.33-1.12-0.76-1.63-1.19C96.62,123.87,96.48,124.01,96.58,124.1L96.58,124.1z"/>
				</g>
				<g>
					<path d="M111.1,105.2c-0.01,0.89-0.06,1.78-0.16,2.66c-0.05,0.47-0.11,0.93-0.19,1.39c-0.06,0.4-0.09,0.87-0.27,1.24
						c-0.2,0.42-0.68,0.53-1.07,0.67c-0.4,0.15-0.79,0.3-1.18,0.47c-0.76,0.32-1.51,0.66-2.24,1.03c-0.75,0.38-1.49,0.79-2.21,1.23
						c-0.18,0.11-0.63,0.27-0.61,0.54c0.01,0.14,0.14,0.3,0.21,0.41c0.11,0.18,0.22,0.36,0.33,0.54c0.41,0.65,0.88,1.26,1.47,1.77
						c0.54,0.47,1.14,0.84,1.77,1.17c0.7,0.36,1.44,0.66,2.17,0.96c0.41,0.16,0.81,0.33,1.21,0.5c0.38,0.17,0.88,0.32,1.11,0.7
						c0.02-0.05,0.04-0.1,0.06-0.15c-1.96,0.77-3.93,1.54-5.89,2.3c-0.12,0.05-0.07,0.24,0.05,0.2c1.97-0.76,3.93-1.53,5.89-2.3
						c0.06-0.02,0.1-0.09,0.06-0.15c-0.17-0.28-0.45-0.43-0.74-0.57c-0.31-0.15-0.63-0.28-0.95-0.42c-0.69-0.29-1.39-0.56-2.08-0.86
						c-1.38-0.62-2.65-1.4-3.56-2.64c-0.24-0.33-0.46-0.68-0.67-1.03c-0.1-0.17-0.32-0.38-0.15-0.55c0.15-0.14,0.38-0.24,0.56-0.34
						c0.72-0.44,1.46-0.84,2.22-1.22c0.78-0.39,1.57-0.75,2.37-1.07c0.39-0.16,0.78-0.3,1.17-0.45c0.27-0.1,0.55-0.21,0.73-0.45
						c0.26-0.33,0.3-0.79,0.36-1.19c0.08-0.46,0.15-0.93,0.2-1.4c0.12-1,0.18-2,0.2-3.01C111.3,105.07,111.1,105.07,111.1,105.2
						L111.1,105.2z"/>
				</g>
				<g>
					<path d="M114.08,128.49c-0.79-0.41-1.7-0.34-2.57-0.27c-0.93,0.08-1.86,0.22-2.77,0.46c-0.44,0.12-0.89,0.25-1.31,0.43
						c-0.27,0.11-0.57,0.34-0.5,0.67c0.03,0.16,0.13,0.16,0.28,0.19c0.23,0.05,0.46,0.08,0.69,0.1c0.48,0.05,0.96,0.06,1.44,0.05
						c1.13-0.03,2.26-0.16,3.39-0.15c0.13,0,0.13-0.2,0-0.2c-1.69-0.01-3.4,0.31-5.08,0.07c-0.11-0.02-0.48-0.02-0.52-0.13
						c-0.09-0.23,0.36-0.4,0.5-0.45c0.38-0.15,0.77-0.27,1.17-0.37c0.81-0.21,1.65-0.35,2.48-0.43c0.89-0.09,1.88-0.21,2.7,0.22
						C114.1,128.73,114.2,128.55,114.08,128.49L114.08,128.49z"/>
				</g>
				<g>
					<path d="M58.51,90.94c1.21,0.44,2.53,0.48,3.76,0.12c0.13-0.04,0.07-0.23-0.05-0.2c-1.2,0.36-2.48,0.32-3.66-0.12
						C58.44,90.7,58.39,90.89,58.51,90.94L58.51,90.94z"/>
				</g>
				<g>
					<path d="M46.79,9.25c0.51,0.51,0.73,1.21,0.97,1.87c0.26,0.71,0.6,1.44,0.72,2.19c0.13,0.8,0.1,1.65,0.1,2.45
						c0,0.83-0.03,1.65-0.09,2.48c-0.01,0.13,0.19,0.13,0.2,0c0.06-0.86,0.09-1.72,0.09-2.58c0-0.82,0.03-1.69-0.12-2.51
						c-0.15-0.79-0.51-1.56-0.79-2.31c-0.23-0.62-0.46-1.26-0.94-1.74C46.84,9.02,46.69,9.16,46.79,9.25L46.79,9.25z"/>
				</g>
				<g>
					<path d="M45.75,9.37c-0.25,0.24-0.44,0.57-0.44,0.93c0.01,0.42,0.29,0.87,0.43,1.26c0.32,0.88,0.58,1.78,0.78,2.69
						c0.2,0.94,0.33,1.89,0.39,2.84c0.04,0.59,0.08,1.55,0.89,1.55c0.13,0,0.13-0.2,0-0.2c-0.48,0-0.63-0.51-0.66-0.9
						c-0.03-0.37-0.04-0.74-0.08-1.1c-0.07-0.78-0.2-1.56-0.36-2.33c-0.17-0.77-0.38-1.54-0.65-2.29c-0.13-0.37-0.28-0.74-0.42-1.11
						c-0.18-0.46-0.09-0.86,0.26-1.2C45.99,9.42,45.85,9.27,45.75,9.37L45.75,9.37z"/>
				</g>
				<g>
					<path d="M70.64,15.95C70.64,15.95,70.65,15.95,70.64,15.95c0.05-0.01,0.09-0.06,0.08-0.1v-0.01c-0.01-0.08-0.08-0.13-0.15-0.09
						c-0.31,0.16-0.84,0.34-1.07-0.03c-0.18-0.28-0.25-0.65-0.34-0.97c-0.26-0.9-0.52-1.83-0.65-2.76
						c-0.14-0.99,0.12-1.91,0.35-2.87c0.12-0.49,0.23-0.97,0.35-1.46c0.05-0.19,0.08-0.41,0.19-0.58c0.15-0.23,0.4-0.31,0.64-0.38
						c0.12-0.04,0.07-0.23-0.05-0.2c-0.3,0.09-0.59,0.2-0.76,0.47c-0.2,0.32-0.24,0.76-0.33,1.12c-0.21,0.88-0.48,1.77-0.6,2.66
						c-0.12,0.85,0.08,1.7,0.27,2.52c0.18,0.76,0.35,1.57,0.64,2.29c0.1,0.24,0.24,0.52,0.53,0.56c0.31,0.04,0.67-0.07,0.94-0.21
						c-0.05-0.03-0.1-0.06-0.15-0.09v0.01c0.02-0.03,0.05-0.07,0.07-0.1h-0.01C70.46,15.78,70.51,15.97,70.64,15.95L70.64,15.95z"/>
				</g>
				<g>
					<path d="M71.07,7.11c0.3,0.19,0.24,0.61,0.19,0.9c-0.07,0.37-0.16,0.73-0.27,1.08c-0.23,0.75-0.44,1.47-0.46,2.25
						c-0.02,0.75,0.07,1.51,0.18,2.25c0.11,0.66,0.4,1.55-0.07,2.13c-0.08,0.1,0.06,0.25,0.14,0.14c0.42-0.54,0.31-1.23,0.2-1.85
						c-0.16-0.91-0.3-1.84-0.25-2.77c0.04-0.95,0.39-1.78,0.62-2.69c0.12-0.49,0.37-1.29-0.17-1.63
						C71.07,6.87,70.96,7.04,71.07,7.11L71.07,7.11z"/>
				</g>
				<g>
					<path d="M56.88,18.17c0.41,1.8,0.9,3.59,1.48,5.35c0.46,1.4,1.01,2.86,2.15,3.85c0.1,0.09,0.24-0.06,0.14-0.14
						c-1.17-1.02-1.7-2.52-2.16-3.95c-0.55-1.7-1.02-3.42-1.42-5.16C57.04,17.99,56.85,18.04,56.88,18.17L56.88,18.17z"/>
				</g>
				<g>
					<path d="M61.66,18.07c0.41,1.34,0.72,2.71,1,4.09c0.14,0.67,0.26,1.35,0.39,2.02c0.13,0.7,0.32,1.44,0.07,2.13
						c-0.04,0.12,0.15,0.18,0.2,0.05c0.22-0.62,0.11-1.27-0.01-1.9c-0.13-0.72-0.27-1.45-0.41-2.17c-0.29-1.44-0.61-2.87-1.03-4.28
						C61.82,17.89,61.62,17.95,61.66,18.07L61.66,18.07z"/>
				</g>
				<g>
					<path d="M63.09,27.23c-0.21,0.4-0.43,0.79-0.64,1.19c-0.15,0.29-0.37,0.54-0.1,0.8c0.29,0.28,0.65,0.47,0.95,0.75
						c0.29,0.28,0.53,0.62,0.73,0.97c0.39,0.71,0.64,1.49,0.9,2.25c0.31,0.9,0.61,1.79,0.92,2.69c0.04,0.12,0.24,0.07,0.2-0.05
						c-0.29-0.85-0.58-1.7-0.87-2.54c-0.24-0.71-0.47-1.44-0.8-2.11c-0.31-0.63-0.71-1.2-1.27-1.63c-0.15-0.12-0.32-0.23-0.47-0.35
						s-0.22-0.22-0.14-0.41c0.03-0.09,0.09-0.17,0.14-0.26c0.21-0.4,0.43-0.79,0.64-1.19C63.33,27.22,63.15,27.11,63.09,27.23
						L63.09,27.23z"/>
				</g>
				<g>
					<path d="M58.67,15.47c-0.5,0.15-1.02,0.24-1.54,0.28c-0.25,0.02-0.51,0.04-0.76,0.02c-0.31-0.02-0.31-0.3-0.35-0.55
						c-0.15-1.04-0.27-2.1-0.34-3.15c-0.01-0.13-0.21-0.13-0.2,0c0.04,0.61,0.1,1.21,0.16,1.81c0.03,0.29,0.07,0.58,0.11,0.88
						c0.04,0.27,0.05,0.55,0.12,0.81c0.14,0.51,0.69,0.41,1.11,0.39c0.59-0.04,1.17-0.14,1.74-0.3
						C58.85,15.63,58.79,15.44,58.67,15.47L58.67,15.47z"/>
				</g>
				<g>
					<path d="M60.19,7.18c-0.01,1.8,0.12,3.59,0.39,5.37c0.02,0.13,0.22,0.07,0.2-0.05c-0.27-1.76-0.4-3.54-0.38-5.32
						C60.4,7.05,60.19,7.05,60.19,7.18L60.19,7.18z"/>
				</g>
				<g>
					<path d="M56.66,17.15c1.96-0.42,3.94-0.73,5.94-0.91c0.13-0.01,0.13-0.22,0-0.2c-2.01,0.19-4.02,0.49-5.99,0.92
						C56.48,16.98,56.54,17.18,56.66,17.15L56.66,17.15z"/>
				</g>
				<g>
					<path d="M63.5,16.24c0.33-0.02,0.66-0.06,0.98-0.13c0.13-0.03,0.07-0.23-0.05-0.2c-0.3,0.07-0.61,0.11-0.93,0.13
						C63.37,16.04,63.37,16.25,63.5,16.24L63.5,16.24z"/>
				</g>
				<g>
					<path d="M51.81,15.7c-1.04,0.22-2.11,0.29-3.16,0.51c-0.13,0.03-0.07,0.22,0.05,0.2c1.04-0.22,2.11-0.29,3.16-0.51
						C52,15.87,51.94,15.67,51.81,15.7L51.81,15.7z"/>
				</g>
				<g>
					<path d="M46.92,16.59c-1.71,0.5-3.41,0.99-5.12,1.49c-0.75,0.22-1.52,0.41-2.21,0.78c-0.5,0.27-0.91,0.5-1.12,1.05
						c-0.05,0.12,0.15,0.17,0.2,0.05c0.22-0.56,0.79-0.83,1.31-1.07c0.72-0.33,1.51-0.51,2.27-0.73c1.58-0.46,3.15-0.92,4.73-1.37
						C47.1,16.75,47.04,16.55,46.92,16.59L46.92,16.59z"/>
				</g>
				<g>
					<path d="M44.07,11.45c0.32,0.77,0.66,1.59,0.82,2.41c0.1,0.55-0.3,0.75-0.73,0.93c-0.42,0.18-0.84,0.36-1.26,0.54
						c-0.83,0.35-1.67,0.69-2.51,1.02c-0.41,0.16-0.83,0.32-1.25,0.47c-0.33,0.12-0.66,0.24-0.91,0.5
						c-0.09,0.09,0.05,0.24,0.14,0.14c0.33-0.34,0.85-0.46,1.29-0.62c0.43-0.16,0.86-0.33,1.29-0.5c0.88-0.35,1.76-0.71,2.63-1.08
						c0.58-0.25,1.6-0.49,1.53-1.29c-0.04-0.42-0.21-0.85-0.34-1.25c-0.15-0.45-0.32-0.89-0.5-1.32
						C44.21,11.28,44.01,11.33,44.07,11.45L44.07,11.45z"/>
				</g>
				<g>
					<path d="M75.14,7.97c-0.07,0.38-0.11,0.77-0.11,1.16c0,0.13,0.2,0.13,0.2,0c0-0.37,0.03-0.74,0.1-1.1
						C75.36,7.89,75.16,7.84,75.14,7.97L75.14,7.97z"/>
				</g>
				<g>
					<path d="M78.89,8.06c-0.16,1.21-0.31,2.42-0.47,3.64c-0.01,0.06,0.05,0.1,0.1,0.1c4.85,0.18,9.74,0.37,14.47,1.51
						c0.19,0.04,0.51,0.21,0.7,0.11c0.19-0.09,0.2-0.41,0.24-0.58c0.15-0.64,0.24-1.28,0.28-1.94c0.01-0.13-0.2-0.13-0.2,0
						c-0.04,0.6-0.12,1.2-0.25,1.79c-0.03,0.12-0.04,0.26-0.09,0.38c-0.07,0.18-0.17,0.16-0.34,0.11c-0.28-0.07-0.57-0.14-0.85-0.2
						c-1.11-0.25-2.22-0.45-3.34-0.61c-2.23-0.32-4.47-0.49-6.72-0.61c-1.3-0.07-2.6-0.12-3.9-0.16c0.03,0.03,0.07,0.07,0.1,0.1
						c0.16-1.21,0.31-2.42,0.47-3.64C79.11,7.93,78.91,7.93,78.89,8.06L78.89,8.06z"/>
				</g>
				<g>
					<path d="M96.58,9.95c-0.46,0.47-0.33,1.14-0.11,1.7c0.28,0.74,0.56,1.51,0.31,2.3c-0.37,1.15-1.74,2.33-1,3.62
						c0.07,0.11,0.24,0.01,0.18-0.1c-0.71-1.23,0.72-2.43,1.04-3.54c0.17-0.61,0.06-1.24-0.14-1.82c-0.21-0.61-0.68-1.44-0.13-2.01
						C96.81,10,96.67,9.86,96.58,9.95L96.58,9.95z"/>
				</g>
				<g>
					<path d="M98.4,14.1c-0.16,0.79-0.3,1.6-0.5,2.39c-0.17,0.68-0.52,1.42-1.27,1.57c-0.13,0.03-0.07,0.22,0.05,0.2
						c0.71-0.15,1.14-0.79,1.34-1.45c0.13-0.41,0.2-0.83,0.28-1.25c0.1-0.47,0.19-0.94,0.29-1.41C98.63,14.02,98.43,13.97,98.4,14.1
						L98.4,14.1z"/>
				</g>
				<g>
					<path d="M42.01,20.77c0.74,1.4,0.51,3.02,0.17,4.49c-0.3,1.29-0.57,2.74-1.54,3.72c-0.09,0.09,0.05,0.24,0.14,0.14
						c1.02-1.03,1.3-2.55,1.61-3.91c0.34-1.5,0.54-3.13-0.21-4.55C42.13,20.55,41.95,20.66,42.01,20.77L42.01,20.77z"/>
				</g>
				<g>
					<path d="M75.09,15.29c0.24,1.14,0.57,2.28,1.18,3.29c0.6,0.99,1.47,1.75,2.42,2.38c2.04,1.35,4.44,2.06,6.84,2.47
						c1.48,0.25,2.97,0.39,4.46,0.52c0.13,0.01,0.13-0.19,0-0.2c-2.5-0.22-5.03-0.47-7.44-1.22c-1.13-0.35-2.22-0.81-3.24-1.41
						c-1-0.59-1.97-1.32-2.64-2.27c-0.75-1.07-1.13-2.34-1.39-3.6C75.26,15.11,75.06,15.17,75.09,15.29L75.09,15.29z"/>
				</g>
				<g>
					<path d="M93.56,16.87c0.05,0.65,0.1,1.3,0.15,1.96c0.05,0.61,0.05,1.25,0.2,1.84c0.03,0.13,0.23,0.07,0.2-0.05
						c-0.15-0.6-0.15-1.25-0.2-1.86c-0.05-0.63-0.09-1.25-0.14-1.88C93.75,16.74,93.55,16.74,93.56,16.87L93.56,16.87z"/>
				</g>
				<g>
					<path d="M50.38,25.58c1.01,0.09,1.99,0.31,2.94,0.68c-0.01-0.06-0.02-0.12-0.02-0.19c-0.85,0.4-1.86,0.43-2.78,0.55
						c-0.97,0.13-1.93,0.25-2.9,0.38c-0.13,0.02-0.13,0.22,0,0.2c1.03-0.14,2.07-0.27,3.1-0.41c0.9-0.12,1.86-0.16,2.69-0.55
						c0.09-0.04,0.05-0.16-0.02-0.19c-0.96-0.37-1.97-0.6-2.99-0.68C50.25,25.36,50.25,25.57,50.38,25.58L50.38,25.58z"/>
				</g>
				<g>
					<path d="M46.79,29.33c1.99-0.19,4-0.23,5.99-0.13c0.13,0.01,0.13-0.2,0-0.2c-2-0.1-4-0.05-5.99,0.13
						C46.66,29.14,46.66,29.35,46.79,29.33L46.79,29.33z"/>
				</g>
				<g>
					<path d="M77.13,26.83c1.99,0.22,4,0.24,6,0.32c0.5,0.02,1,0.04,1.5,0.07c0.23,0.01,0.47,0.03,0.7,0.05
						c0.13,0.01,0.27,0.02,0.4,0.03c0.11,0.01,0.3-0.01,0.4,0.04c0.05,0.03,0.22-0.02,0.08,0.15c-0.02,0.03-0.09,0.04-0.13,0.05
						c-0.1,0.03-0.21,0.04-0.32,0.06c-0.28,0.05-0.55,0.08-0.83,0.11c-0.48,0.04-0.96,0.06-1.45,0.07c-1.1,0.02-2.2-0.01-3.29,0.1
						c-0.13,0.01-0.13,0.22,0,0.2c1.11-0.11,2.22-0.08,3.34-0.1c0.55-0.01,1.09-0.03,1.64-0.09c0.25-0.03,0.5-0.06,0.74-0.11
						c0.18-0.03,0.39-0.06,0.51-0.22c0.19-0.24-0.08-0.41-0.3-0.44c-0.56-0.07-1.13-0.09-1.7-0.12c-1.13-0.06-2.27-0.09-3.4-0.13
						c-1.3-0.05-2.6-0.11-3.89-0.25C77,26.61,77,26.81,77.13,26.83L77.13,26.83z"/>
				</g>
			</g>
			<g>
				<path d="M117.65,132.42c-0.12,0.18-0.47-0.02-0.6-0.08c-0.22-0.09-0.43-0.18-0.65-0.28c-0.37-0.16-0.74-0.34-1.14-0.41
					c-0.65-0.12-1.33,0.1-1.57,0.77c-0.22,0.63,0.1,1.3,0.64,1.65c0.53,0.35,1.18,0.39,1.78,0.53c0.36,0.08,0.72,0.21,0.99,0.46
					c0.33,0.32,0.47,0.77,0.59,1.2c0.04,0.13,0.23,0.07,0.2-0.05c-0.18-0.62-0.41-1.23-1-1.55c-0.53-0.29-1.16-0.32-1.74-0.47
					c-0.68-0.18-1.41-0.65-1.33-1.45c0.04-0.42,0.32-0.76,0.73-0.87c0.4-0.11,0.82,0,1.2,0.14c0.47,0.18,0.93,0.4,1.4,0.59
					c0.23,0.09,0.51,0.15,0.67-0.08C117.9,132.41,117.73,132.31,117.65,132.42L117.65,132.42z"/>
			</g>
			<g>
				<path d="M59.67,138.47c3.09,1.74,6.75,1.15,10.07,0.52c0.99-0.19,1.97-0.4,2.9-0.78c0.12-0.05,0.07-0.25-0.05-0.2
					c-0.78,0.32-1.61,0.53-2.44,0.69c-0.86,0.17-1.72,0.33-2.59,0.47c-1.71,0.26-3.46,0.39-5.17,0.06c-0.92-0.17-1.8-0.48-2.61-0.94
					C59.65,138.23,59.55,138.41,59.67,138.47L59.67,138.47z"/>
			</g>
			<g>
				<path d="M68.75,140.53c0.82-0.15,1.63-0.32,2.44-0.51c0.13-0.03,0.07-0.23-0.05-0.2c-0.81,0.18-1.62,0.35-2.44,0.51
					C68.57,140.36,68.63,140.56,68.75,140.53L68.75,140.53z"/>
			</g>
		</g>
	</g>
</g>
</svg>
