<?xml version="1.0" encoding="utf-8"?>
<!-- Generator: Adobe Illustrator 28.0.0, SVG Export Plug-In . SVG Version: 6.00 Build 0)  -->
<svg version="1.1" id="Layer_1" xmlns="http://www.w3.org/2000/svg" xmlns:xlink="http://www.w3.org/1999/xlink" x="0px" y="0px"
	 viewBox="0 0 150 150" style="enable-background:new 0 0 150 150;" xml:space="preserve">
<style type="text/css">
	.st0{stroke:#000000;stroke-width:2;stroke-linecap:round;stroke-linejoin:round;stroke-miterlimit:10;}
	.st1{fill:#C3D1DB;}
	.st2{fill:#DFE9ED;}
	.st3{fill:url(#SVGID_1_);}
	.st4{fill:url(#SVGID_00000156563771029564465430000007998833414854089391_);}
	.st5{fill:url(#SVGID_00000120558007542160989290000011035928872093781906_);}
	.st6{fill:url(#SVGID_00000080203495082333726020000000521152770406313402_);}
	.st7{fill:url(#SVGID_00000180334006293626772960000012804707877688162212_);}
	.st8{fill:url(#SVGID_00000033363253141389747710000012169129483683798462_);}
	.st9{fill:url(#SVGID_00000127752954874133648650000007274333427447650705_);}
	.st10{fill:#7A8287;}
	.st11{fill:#9AACB7;}
	.st12{fill:#F0F5F7;}
</style>
<g id="Classic_Meme_Spoon">
	<path class="st0" d="M141.34,11.23c0-0.02,0-0.04,0-0.07c-0.13-1.2-0.38-2.55-1.7-2.97c-0.98-0.32-2.03-0.04-2.98,0.25
		c-1.25,0.38-2.44,0.91-3.58,1.55c-1.75,0.97-3.38,2.14-4.97,3.35c-2.5,1.92-4.89,3.98-7.23,6.09c-2.8,2.52-5.6,5.03-8.31,7.65
		c-2.63,2.54-5.25,5.08-7.82,7.68c-2.62,2.65-5.2,5.36-7.69,8.13c-1.24,1.38-2.49,2.76-3.67,4.19c-1.36,1.65-2.68,3.4-3.61,5.33
		c-0.72,1.49-1.41,3.5-0.28,4.97c0.07,0.09,0.16,0.17,0.25,0.26c-1.3,0.95-2.51,2.05-3.74,3.08c-3.15,2.63-6.27,5.29-9.38,7.97
		C66.35,77.54,56.22,86.55,46.2,95.7c-6.36,5.81-19.29,18.13-19.52,18.5c-0.04,0.04-0.07,0.07-0.11,0.1
		c-3.39,3.32-10.97,10.83-11.24,11.12c-0.56,0.59-1.21,1.23-1.75,1.83c-0.87,0.99-1.71,1.99-2.5,3.06c-0.53,0.71-1.04,1.44-1.5,2.19
		c-0.02-0.02-0.04-0.03-0.06-0.05c0,0,0.02,0.03,0.05,0.08c-0.64,1.06-1.19,2.17-1.51,3.38c-0.24,0.91-0.4,2.14,0.01,3.03
		c0.36,0.78,1.25,1.34,2.05,1.57c1.44,0.43,3.13,0.34,4.46-0.37c1.24-0.66,2.28-1.65,3.26-2.64c3.29-3.32,6.39-6.78,9.6-10.17
		c1.61-1.7,3.07-3.45,4.69-5.15c1.03-1.03,18.08-18.79,27.29-27.99C69.45,84.15,79.7,74.33,90.11,64.68
		c1.33-1.24,2.67-2.47,4.01-3.7c0.19-0.13,0.38-0.25,0.58-0.36c0.44-0.25,0.88-0.46,1.38-0.54c1.42-0.23,2.87,0.11,4.29,0.16
		c2.62,0.1,5.28-0.16,7.81-0.86c4.7-1.3,8.97-3.91,12.73-6.96c3.82-3.1,7.22-6.76,10.08-10.77c2.96-4.15,5.48-8.71,7.3-13.46
		c1.83-4.77,2.85-9.82,3.01-14.92c0.02-0.66,0.03-1.32,0.02-1.97C141.35,11.27,141.34,11.26,141.34,11.23z"/>
	<g>
		<path class="st1" d="M140.67,14.5c0.08-0.76,0.16-1.52,0.23-2.28c0.07-0.75,0.12-1.46-0.16-2.19c-0.22-0.56-0.65-1.06-1.21-1.27
			c-0.64-0.24-1.35-0.08-2,0.1c-2.74,0.77-5.35,2-7.71,3.6c-2.4,1.62-4.5,3.73-6.69,5.62c-2.9,2.49-5.8,4.99-8.5,7.7
			c-1.34,1.34-2.62,2.74-4.04,3.99s-2.96,2.37-4.28,3.72c-1.55,1.59-2.9,3.33-4.5,4.88c-1.7,1.63-3.34,3.32-4.91,5.08
			c-0.54,0.61-1.07,1.22-1.59,1.84c-2.29,2.74-4.38,5.71-5.63,9.07c-0.45,1.21-0.52,2.47,0.78,3.15c-1.83,1.52-3.97,2.96-5.61,4.69
			c-1.43,1.51-3.07,2.94-4.74,4.21c-3.12,2.4-6.18,4.89-9.17,7.46c-2.74,2.35-5.15,4.94-7.8,7.4c-3.3,3.06-6.84,5.84-10.29,8.75
			c-2.31,1.95-4.5,4.03-6.69,6.11c-6.19,5.88-12.48,11.68-18.63,17.58c-4.65,4.46-9.11,8.98-13.51,13.69
			c-0.88,0.94-1.75,1.88-2.49,2.93c-1.04,1.48-1.77,3.14-2.5,4.8c-0.26,0.59-0.53,1.2-0.57,1.84c-0.12,1.61,1.25,3.07,2.82,3.42
			s3.24-0.23,4.53-1.19c1.34-0.99,2.26-2.39,3.45-3.51c1.36-1.27,2.48-2.84,3.7-4.25c2.55-2.92,5.2-5.75,7.97-8.46
			c2.12-2.08,3.87-4.36,5.85-6.56c2.03-2.26,4.25-4.33,6.43-6.44c4.33-4.17,8.54-8.46,12.63-12.87c1.83-1.98,3.53-4.14,5.65-5.77
			c2.34-1.81,4.4-4.25,6.51-6.32c6.14-6.04,12.22-12.14,18.57-17.95c1.45-1.33,2.86-2.71,4.32-4.04c1.25-1.14,2.69-2.87,4.43-3.14
			c2.75-0.43,5.57,0.11,8.35-0.09c4.82-0.35,9.17-2.9,13.31-5.38c1.04-0.62,2.08-1.24,3.02-2c1.37-1.1,2.48-2.53,3.9-3.56
			c1.42-1.03,2.65-2.26,3.8-3.61c2.4-2.85,4.31-6.07,6.2-9.27c0.71-1.2,1.42-2.4,2.05-3.63C138.77,26.82,139.98,20.66,140.67,14.5z"
			/>
		<path class="st2" d="M23.86,117.32c-0.06,0.05-0.13,0.1-0.18,0.16c-0.05,0.06-0.1,0.13-0.15,0.19c-0.1,0.13-0.19,0.26-0.29,0.38
			c0,0,0,0.01,0.01,0.01c0.12-0.1,0.24-0.21,0.36-0.31c0.06-0.05,0.12-0.1,0.18-0.16c0.06-0.05,0.1-0.13,0.15-0.19
			C23.99,117.36,23.91,117.28,23.86,117.32z"/>
		<path class="st2" d="M139.11,14.71c-0.89,2.31-1.75,4.58-2.86,6.79c-1.17,2.34-2.54,4.48-4.06,6.61c-1.54,2.17-3.17,4.25-4.9,6.26
			c-0.87,1.01-1.75,2.01-2.64,3c-0.9,1-2.05,1.97-2.74,3.13c-0.03,0.05-0.05,0.11-0.05,0.16c-0.68,0.78-1.47,1.45-2.27,2.12
			c-1.17,0.97-2.36,1.92-3.55,2.88c-2.48,1.98-4.93,4.01-7.53,5.82c-2.54,1.77-5.21,3.38-8.08,4.56c-1.32,0.54-2.68,0.99-4.07,1.33
			c-0.66,0.16-1.31,0.31-1.98,0.43c-0.67,0.12-1.37,0.14-2.02,0.34c-0.07,0.02-0.05,0.12,0.02,0.13c1.35,0.25,3.01-0.17,4.32-0.49
			c1.33-0.33,2.64-0.77,3.91-1.29c2.81-1.15,5.45-2.69,7.97-4.38c2.72-1.83,5.37-3.78,7.99-5.76c1.3-0.99,2.58-2,3.84-3.03
			c1.2-0.99,2.37-2.01,3.18-3.35c0.53-0.6,1.02-1.25,1.53-1.83c0.91-1.05,1.81-2.1,2.69-3.17c1.79-2.16,3.54-4.36,5.11-6.67
			c1.39-2.04,2.67-4.25,3.77-6.45c1.11-2.22,2.11-4.65,2.56-7.09C139.28,14.66,139.14,14.62,139.11,14.71z"/>
		<path class="st2" d="M135.63,9.13c-2.12,0.76-4,2.18-5.8,3.51c-4.2,3.08-8.07,6.53-11.85,10.1c-3.8,3.58-7.49,7.27-11.21,10.93
			c-3.56,3.5-7.14,7-10.42,10.76c-1.68,1.92-3.41,3.89-4.71,6.1c-0.46,0.79-0.88,1.6-1.2,2.46c-0.18,0.18-0.29,0.41-0.39,0.65
			c-0.08,0.08-0.16,0.17-0.23,0.27c-0.11,0.16-0.2,0.35-0.27,0.53c-0.16,0.37-0.23,0.78-0.23,1.19c-0.01,0.42,0.04,0.83,0.24,1.2
			c0.1,0.18,0.22,0.35,0.39,0.48c0.1,0.07,0.23,0.11,0.37,0.12c0.04,0.05,0.08,0.09,0.13,0.13c-0.04,0.01-0.07,0.02-0.11,0.04
			c-1.5,1.05-2.82,2.33-4.18,3.54c-1.39,1.24-2.85,2.4-4.28,3.59c-1.39,1.16-2.78,2.32-4.12,3.53c-0.9,0.82-1.83,1.63-2.66,2.53
			c-0.09,0.01-0.17,0.03-0.26,0.11c-1.33,1.16-2.65,2.33-3.97,3.5c-0.1-0.02-0.2,0-0.3,0.08c-0.8,0.71-1.55,1.47-2.3,2.23
			c-2.21,1.97-4.41,3.95-6.61,5.93c-0.18,0.12-0.35,0.25-0.51,0.41c-0.02,0.02-0.02,0.05-0.03,0.07c-1.75,1.57-3.49,3.14-5.24,4.71
			c-0.53,0.47-1.06,0.95-1.58,1.42c-0.04-0.02-0.09-0.03-0.14,0.01c-0.36,0.27-0.72,0.55-1.04,0.86c-0.16,0.15-0.33,0.3-0.49,0.45
			c-0.07,0.07-0.13,0.15-0.19,0.22c-0.09,0.1-0.2,0.19-0.3,0.28c-0.04,0.04,0,0.08,0.04,0.08c-5.06,4.52-10.12,9.04-15.11,13.62
			c-1.71,1.57-3.41,3.14-5.12,4.7c-0.9,0.82-1.79,1.64-2.67,2.47c-0.81,0.77-1.71,1.46-2.38,2.36c-0.06,0.09,0.04,0.17,0.12,0.12
			c0.86-0.5,1.56-1.21,2.32-1.85c0.84-0.71,1.67-1.43,2.5-2.15c1.57-1.38,3.15-2.75,4.73-4.12c3.16-2.75,6.28-5.56,9.41-8.35
			C51.5,93,57.07,88.07,62.62,83.12c0.15-0.1,0.3-0.2,0.46-0.3c0.94-0.57,1.96-1.05,2.98-1.48c0.04-0.02,0.02-0.08-0.02-0.07
			c-0.35,0.08-0.7,0.19-1.04,0.3c0.42-0.44,0.75-0.96,1.15-1.42c0.33-0.37,0.67-0.73,1.02-1.09c2.75-2.45,5.51-4.91,8.23-7.39
			c0.07-0.06,0.11-0.14,0.13-0.22c0.93-0.89,1.85-1.79,2.85-2.61c1.43-1.19,2.91-2.32,4.35-3.5c1.4-1.15,2.73-2.37,4.08-3.58
			c1.34-1.2,2.72-2.42,3.89-3.8c0.07-0.08,0.07-0.17,0.04-0.25c0.02,0,0.04,0.01,0.06,0.01c0.09,0.02,0.16-0.08,0.13-0.16
			c-0.04-0.09-0.06-0.16-0.12-0.25c-0.02-0.02-0.03-0.05-0.05-0.07c0.41,0.03,0.85-0.13,1.21-0.28c0.51-0.21,0.99-0.5,1.48-0.76
			c0.24-0.13,0.48-0.25,0.73-0.37s0.57-0.17,0.78-0.36c0.2-0.18,0.13-0.51-0.15-0.56c-0.16-0.03-0.32,0.01-0.49,0.07
			c0.01-0.08,0-0.17-0.08-0.23c-0.66-0.58,0.21-1.82,0.51-2.34c0.42-0.74,0.89-1.46,1.37-2.17c0.91-1.34,1.92-2.6,2.97-3.84
			c2.21-2.59,4.53-5.1,6.88-7.56c4.84-5.08,9.9-9.94,15.15-14.61c2.93-2.61,5.94-5.13,8.86-7.75c0.02-0.02,0.04-0.04,0.06-0.07
			c0.2-0.14,0.4-0.29,0.6-0.46c0.4-0.34,0.79-0.69,1.2-1.02c0.39-0.32,0.79-0.63,1.19-0.94c0.1-0.07,0.19-0.15,0.29-0.22
			c0.34-0.2,0.68-0.39,1.03-0.57c0.76-0.39,1.54-0.75,2.33-1.05c0.21-0.08,0.65-0.32,0.88-0.22c0.18,0.08,0.25,0.33,0.36,0.48
			c0.12,0.16,0.34,0.22,0.53,0.15c0.43-0.16,0.58-0.66,0.44-1.07c-0.14-0.42-0.49-0.74-0.9-0.88c-0.99-0.34-2.15,0.33-3.01,0.73
			c-1.03,0.48-2.06,1.02-2.99,1.67c-0.91,0.63-1.84,1.33-2.49,2.24c-0.11,0.01-0.23,0.05-0.34,0.14c-5.99,4.69-11.55,10-17,15.3
			c-2.7,2.62-5.34,5.3-7.93,8.04c-2.52,2.68-5.08,5.37-7.34,8.28c-0.69,0.88-5.77,7.67-2.96,8.17c-0.13,0.07-0.24,0.15-0.35,0.22
			c-0.38,0.25-0.74,0.54-1.11,0.8c-0.38,0.26-0.81,0.47-1.25,0.6c-0.18,0.05-0.5,0.07-0.72-0.04c-0.03-0.07-0.05-0.14-0.07-0.22
			c-0.09-0.38-0.06-0.76-0.02-1.14c0.01-0.12,0.04-0.24,0.06-0.36c0.16-0.46,0.35-0.9,0.52-1.33c0.07-0.18,0.16-0.34,0.24-0.52
			c0.02-0.03,0.03-0.06,0.04-0.08c0.32-0.7,0.68-1.38,1.1-2.03c1.08-1.66,2.35-3.19,3.65-4.69c3.1-3.59,6.42-6.97,9.79-10.3
			c6.68-6.6,13.34-13.24,20.62-19.18c2.02-1.65,4.1-3.24,6.26-4.71c0.93-0.63,1.89-1.23,2.93-1.68c0.59-0.26,3.31-1.34,3.59-0.27
			c0.03,0.09,0.08,0.16,0.14,0.22c0.04,0.21,0.07,0.42,0.08,0.63s0.01,0.42,0.04,0.63s0.03,0.42,0.01,0.63
			c-0.01,0.11,0.15,0.16,0.19,0.05c0.08-0.21,0.15-0.42,0.22-0.63c0.04-0.11,0.07-0.22,0.08-0.34c0.01-0.13,0.01-0.25,0.01-0.38
			c0-0.17-0.02-0.34-0.03-0.51c0.24-0.09,0.43-0.3,0.37-0.59C139.87,7.9,137.01,8.64,135.63,9.13z"/>
		
			<linearGradient id="SVGID_1_" gradientUnits="userSpaceOnUse" x1="-117.8627" y1="-179.3245" x2="-97.1796" y2="-179.3245" gradientTransform="matrix(0.7971 -0.6039 -0.6039 -0.7971 102.855 -181.073)">
			<stop  offset="5.787037e-04" style="stop-color:#DCE7EB"/>
			<stop  offset="0.3956" style="stop-color:#D0DDE3;stop-opacity:0.6731"/>
			<stop  offset="0.9673" style="stop-color:#C3D1DB;stop-opacity:0.2"/>
			<stop  offset="1" style="stop-color:#C3D1DB;stop-opacity:0"/>
		</linearGradient>
		<path class="st3" d="M130.4,17.57c-0.03-0.64-0.11-1.3-0.41-1.87c-0.04-0.09-0.1-0.18-0.19-0.2c-0.08-0.02-0.16,0-0.23,0.03
			c-0.39,0.16-0.71,0.47-1.01,0.77c-2.59,2.58-5,5.33-7.23,8.22c-0.72,0.94-1.42,1.89-2.02,2.91c-0.17,0.29-0.34,0.61-0.34,0.95
			c0,0.06,0.01,0.13,0.05,0.18c0.1,0.12,0.3,0.04,0.43-0.04c0.65-0.4,1.37-0.7,2.12-0.86c0.11-0.02,0.24-0.04,0.33,0.02
			c0.13,0.08,0.14,0.26,0.13,0.41c-0.14,3.17-1.82,6.24-1.3,9.37c0.04,0.25,0.13,0.53,0.37,0.62c0.26,0.09,0.54-0.12,0.63-0.38
			c0.09-0.26,0.05-0.54,0.02-0.81c-0.16-1.39,0.14-2.81,0.79-4.05c0.69-1.33,1.67-2.01,2.78-2.92c1.08-0.89,1.96-2.34,2.67-3.53
			c0.75-1.25,1.36-2.57,1.79-3.96C130.24,20.87,130.48,19.22,130.4,17.57z"/>
		
			<linearGradient id="SVGID_00000075143740186510961340000006978542015623253417_" gradientUnits="userSpaceOnUse" x1="-135.1707" y1="-192.2016" x2="-129.9967" y2="-175.0335" gradientTransform="matrix(0.7971 -0.6039 -0.6039 -0.7971 102.855 -181.073)">
			<stop  offset="0" style="stop-color:#DDE8EB;stop-opacity:0.6"/>
			<stop  offset="0.2957" style="stop-color:#EDF3F5;stop-opacity:0.4516"/>
			<stop  offset="0.6631" style="stop-color:#FAFCFC;stop-opacity:0.2673"/>
			<stop  offset="0.9965" style="stop-color:#FFFFFF;stop-opacity:0.1"/>
		</linearGradient>
		<path style="fill:url(#SVGID_00000075143740186510961340000006978542015623253417_);" d="M118.94,34.98
			c-0.59,0.22-1.47,1.11-2.06,0.51c-0.25-0.26-0.32-0.65-0.25-1c0.03-0.16,0.07-0.36-0.06-0.45c-0.09-0.06-0.21-0.03-0.32,0
			c-1.15,0.38-2.23,0.97-3.17,1.74c-0.7,0.57-1.38,1.26-2.27,1.42c-0.23,0.04-0.51,0.03-0.67-0.14c-0.25-0.26-0.11-0.69,0.05-1.02
			c0.96-1.97,1.99-3.91,3.07-5.82c-0.3-0.05-0.57,0.15-0.8,0.34c-2.46,2.02-4.69,4.3-6.92,6.58c-4.02,4.11-8.11,8.31-10.62,13.48
			c-0.18,0.37-0.36,0.77-0.34,1.18c0,0.09,0.02,0.19,0.09,0.25c0.12,0.11,0.31,0.03,0.46-0.05c0.86-0.49,1.71-0.98,2.57-1.47
			c0.18,0.55,0.36,1.1,0.54,1.64c1.19-1.19,2.58-2.18,4.11-2.87c1.77-0.8,3.7-1.19,5.5-1.92c2.47-1.01,4.61-2.67,6.53-4.51
			c0.97-0.94,1.89-1.92,2.79-2.93c0.41-0.46,0.94-0.92,1.23-1.45c0.27-0.49,0.33-1.1,0.41-1.64c0.05-0.34,0.13-0.69,0.34-0.96
			s0.6-0.44,0.91-0.3c0.15,0.06,0.26,0.18,0.37,0.3c-0.06-0.24-0.15-0.46-0.26-0.68c-0.04-0.07-0.08-0.14-0.13-0.2
			C119.78,34.76,119.34,34.83,118.94,34.98z"/>
		
			<linearGradient id="SVGID_00000018216635991125685590000005744396240721198999_" gradientUnits="userSpaceOnUse" x1="-172.5432" y1="-209.2137" x2="-178.15" y2="-177.9449" gradientTransform="matrix(0.7971 -0.6039 -0.6039 -0.7971 102.855 -181.073)">
			<stop  offset="1.756779e-03" style="stop-color:#000000;stop-opacity:0.6"/>
			<stop  offset="0.2109" style="stop-color:#323638;stop-opacity:0.4743"/>
			<stop  offset="0.4909" style="stop-color:#70787D;stop-opacity:0.306"/>
			<stop  offset="0.7253" style="stop-color:#9DA8B0;stop-opacity:0.1651"/>
			<stop  offset="0.9017" style="stop-color:#B9C6CF;stop-opacity:0.0591"/>
			<stop  offset="1" style="stop-color:#C3D1DB;stop-opacity:0"/>
		</linearGradient>
		<path style="fill:url(#SVGID_00000018216635991125685590000005744396240721198999_);" d="M90.02,56.65
			c0.53,0.91,1.06,1.57,0.26,2.56c-1.45,1.81-3.29,3.39-4.95,5.02c-1.11,1.09-2.25,2.18-3.09,3.5c-0.51,0.8-0.91,1.68-1.44,2.46
			c-1.23,1.8-3.1,2.95-4.97,4c-1.51,0.85-2.74,2.39-4.08,3.51c-4.53,3.81-8.98,7.71-13.34,11.71c-1.04,0.95-2.07,1.9-3.11,2.85
			c-2.88,2.64-5.76,5.28-8.52,8.05c-1.7,1.71-3.46,3.35-5.21,5.01c-1.56,1.48-2.95,3.18-4.55,4.57c-3.44,2.98-7.52,5.07-11.09,7.88
			c-3.4,2.67-6.28,5.94-9.13,9.19c-0.52,0.6-1.05,1.19-1.57,1.79c-1.39,1.59-2.79,3.18-4.18,4.78c-0.95,1.09-3.24,2.83-2.58,4.5
			c0.25,0.63,0.76,1.1,1.29,1.51c0.23,0.17,0.46,0.34,0.74,0.44c2.31,0.78,3.46-1.52,4.77-3.02c1.6-1.82,3.21-3.63,4.83-5.44
			c3.24-3.61,6.51-7.19,9.82-10.73c6.19-6.77,12.73-13.26,19.28-19.66c6.7-6.55,13.35-13.15,20.27-19.47
			c4.44-4.06,8.97-7.88,13.75-11.49c1.06-0.8,2.01-1.75,2.97-2.68c1.76-1.71,3.58-3.36,5.45-4.95c1.71-1.46,3.1-2.86,5.44-3.16
			c1.53-0.2,3.09-0.03,4.63,0.02c2.04,0.06,4.67,0.17,6.61-0.56c0.77-0.29,1.43-0.74,2.24-1.01c1.21-0.4,2.43-0.81,3.56-1.43
			c3.7-2,7.04-4.63,10-7.62c2.73-2.76,5.37-5.77,7.59-8.98c5.57-8.07,8.77-17.78,9.06-27.59c0.03-1-0.01-2.08-0.65-2.84
			c-0.59-0.7-1.59-0.95-2.5-0.86c-2.55,0.24-5,1.79-6.98,3.32c-14.04,10.85-26.25,23.85-38.16,37c-0.96,1.06-1.93,2.15-2.53,3.45
			c-0.59,1.3-0.75,2.88-0.07,4.14C89.93,56.5,89.97,56.58,90.02,56.65z"/>
		
			<linearGradient id="SVGID_00000047037702600186369150000004842504780502405050_" gradientUnits="userSpaceOnUse" x1="-210.0606" y1="-198.3663" x2="-212.0307" y2="-183.9578" gradientTransform="matrix(0.7971 -0.6039 -0.6039 -0.7971 102.855 -181.073)">
			<stop  offset="1.756779e-03" style="stop-color:#000000;stop-opacity:0.6"/>
			<stop  offset="0.199" style="stop-color:#363A3D;stop-opacity:0.4814"/>
			<stop  offset="0.4028" style="stop-color:#687075;stop-opacity:0.359"/>
			<stop  offset="0.5921" style="stop-color:#8F9AA1;stop-opacity:0.2452"/>
			<stop  offset="0.7607" style="stop-color:#ACB8C1;stop-opacity:0.1438"/>
			<stop  offset="0.9024" style="stop-color:#BDCAD4;stop-opacity:0.0587"/>
			<stop  offset="1" style="stop-color:#C3D1DB;stop-opacity:0"/>
		</linearGradient>
		<path style="fill:url(#SVGID_00000047037702600186369150000004842504780502405050_);" d="M9.09,139.49
			c0.4,0.34,0.91,0.54,1.43,0.64c2.12,0.4,4.25-0.75,5.84-2.21c0.83-0.77,1.57-1.64,2.33-2.48c3.09-3.48,6.87-6.16,9.99-9.55
			c3.45-3.75,6.91-7.47,10.39-11.18c0.98-0.74,1.81-1.95,2.64-2.86c1.51-1.64,3.03-3.28,4.56-4.9c2.63-2.8,5.16-5.64,7.89-8.33
			c1.21-0.92,2.27-2.23,3.35-3.3c1.12-1.1,2.24-2.2,3.35-3.3c2.19-2.16,4.38-4.32,6.57-6.49c8.58-8.47,17.3-16.81,26.14-25
			c-1.6-0.66-3.38,0.26-4.8,1.25c-4.22,2.95-7.72,6.77-11.26,10.51c-1.52,1.6-3.04,3.19-4.59,4.76
			c-8.35,8.46-17.78,15.73-26.9,23.33c-8.52,7.09-17.06,14.21-24.64,22.3c-2.37,2.53-4.64,5.15-6.87,7.8
			c-1.11,1.33-2.22,2.67-3.31,4.01c-0.43,0.52-0.67,1.13-1.04,1.64c-0.38,0.51-1.04,0.65-1.44,1.13c-0.44,0.52-0.36,1.35,0.04,1.9
			C8.87,139.27,8.98,139.39,9.09,139.49z"/>
		
			<linearGradient id="SVGID_00000062164691957308023080000010513213801605600428_" gradientUnits="userSpaceOnUse" x1="-101.3415" y1="-187.26" x2="-103.2729" y2="-168.8872" gradientTransform="matrix(0.7971 -0.6039 -0.6039 -0.7971 102.855 -181.073)">
			<stop  offset="0" style="stop-color:#000000;stop-opacity:0.5"/>
			<stop  offset="0.2095" style="stop-color:#323638;stop-opacity:0.3952"/>
			<stop  offset="0.49" style="stop-color:#70787D;stop-opacity:0.255"/>
			<stop  offset="0.7248" style="stop-color:#9DA8B0;stop-opacity:0.1376"/>
			<stop  offset="0.9016" style="stop-color:#B9C6CF;stop-opacity:0.0492"/>
			<stop  offset="1" style="stop-color:#C3D1DB;stop-opacity:0"/>
		</linearGradient>
		<path style="fill:url(#SVGID_00000062164691957308023080000010513213801605600428_);" d="M122.47,33.13
			c0.72-1.26,1.8-2.27,2.81-3.32c1.69-1.77,3.23-3.76,4.01-6.08c0.53-1.57,0.69-3.24,0.84-4.89c0.11-1.29,0.17-2.72-0.65-3.71
			c1.24-1.84,3.32-2.91,5.31-3.9c0.79-0.39,1.62-0.79,2.5-0.72c0.39,0.03,0.8,0.18,1.03,0.51c0.3,0.44,0.18,1.04,0.03,1.55
			c-0.97,3.24-2.69,6.19-4.44,9.08c-3.22,5.31-6.6,10.56-10.74,15.19c-1,1.11-1.41,0.16-1.44-0.94
			C121.67,34.94,121.98,33.97,122.47,33.13z"/>
		
			<linearGradient id="SVGID_00000105396605689177852340000003064324638302776728_" gradientUnits="userSpaceOnUse" x1="-123.4473" y1="-189.3719" x2="-123.2492" y2="-180.1112" gradientTransform="matrix(0.7971 -0.6039 -0.6039 -0.7971 102.855 -181.073)">
			<stop  offset="0" style="stop-color:#000000;stop-opacity:0.5"/>
			<stop  offset="0.2095" style="stop-color:#323638;stop-opacity:0.3952"/>
			<stop  offset="0.49" style="stop-color:#70787D;stop-opacity:0.255"/>
			<stop  offset="0.7248" style="stop-color:#9DA8B0;stop-opacity:0.1376"/>
			<stop  offset="0.9016" style="stop-color:#B9C6CF;stop-opacity:0.0492"/>
			<stop  offset="1" style="stop-color:#C3D1DB;stop-opacity:0"/>
		</linearGradient>
		<path style="fill:url(#SVGID_00000105396605689177852340000003064324638302776728_);" d="M120.72,36.96
			c-0.05-0.51-0.18-1.12-0.67-1.28c-1.25-0.42-1.54,2.01-1.79,2.73c-0.48,1.36-1.47,2.33-2.56,3.22c-1.24,1.01-2.41,2.14-3.22,3.52
			c-0.16,0.27-0.31,0.57-0.24,0.88c1.92-1.34,3.79-2.74,5.61-4.21c0.89-0.72,1.77-1.46,2.55-2.31c0.23-0.25,0.9-0.84,0.88-1.21
			c-0.01-0.16-0.3-0.39-0.37-0.55C120.78,37.51,120.75,37.22,120.72,36.96z"/>
		
			<linearGradient id="SVGID_00000064353485824156528880000002802550360892994201_" gradientUnits="userSpaceOnUse" x1="-135.3989" y1="-191.4077" x2="-133.7928" y2="-176.2639" gradientTransform="matrix(0.7971 -0.6039 -0.6039 -0.7971 102.855 -181.073)">
			<stop  offset="0" style="stop-color:#000000;stop-opacity:0.5"/>
			<stop  offset="0.2095" style="stop-color:#323638;stop-opacity:0.3952"/>
			<stop  offset="0.49" style="stop-color:#70787D;stop-opacity:0.255"/>
			<stop  offset="0.7248" style="stop-color:#9DA8B0;stop-opacity:0.1376"/>
			<stop  offset="0.9016" style="stop-color:#B9C6CF;stop-opacity:0.0492"/>
			<stop  offset="1" style="stop-color:#C3D1DB;stop-opacity:0"/>
		</linearGradient>
		<path style="fill:url(#SVGID_00000064353485824156528880000002802550360892994201_);" d="M113.31,44.11c0.48-0.67,1-1.31,1.58-1.9
			c1.39-1.4,3.25-2.61,3.66-4.54c-1.14,0.84-2.43,1.48-3.79,1.86c0.4-1.17,0.95-2.28,1.5-3.39c-2.97,2.97-6.08,6.04-10.06,7.36
			c-0.22,0.07-0.47,0.13-0.65-0.01c-0.13-0.1-0.18-0.29-0.18-0.46c-0.02-0.57,0.26-1.1,0.53-1.6c0.69-1.25,1.39-2.49,2.12-3.73
			c-5.17,4.82-10.16,9.93-13.82,15.97c-0.15,0.24-0.3,0.51-0.3,0.79c0.01,1.4,3.97-0.08,4.65-0.31c1.26-0.43,2.52-0.87,3.71-1.46
			c0.84-0.42,1.65-0.91,2.44-1.41c2.12-1.32,4.21-2.69,6.28-4.09c0.76-0.52,1.17-1.43,1.68-2.18
			C112.88,44.72,113.09,44.41,113.31,44.11z"/>
		<g>
			<path class="st10" d="M92.58,58.09c-0.35-0.02-0.54-0.06-0.57-0.07c-0.07-0.02-0.11-0.08-0.09-0.15
				c0.02-0.07,0.08-0.11,0.15-0.09c0.04,0.01,4.5,0.97,14.89-5.64c0.24-0.15,24.08-14.95,31.65-36.57c0.02-0.06,2.03-5.22,1.04-6.53
				c-0.16-0.22-0.4-0.31-0.73-0.27c-0.07,0-0.13-0.04-0.14-0.11s0.04-0.13,0.11-0.14c0.41-0.04,0.74,0.08,0.95,0.37
				c1.07,1.42-0.92,6.55-1,6.76c-7.6,21.7-31.51,36.55-31.75,36.69C98.58,57.77,94.08,58.16,92.58,58.09z"/>
		</g>
		<g>
			<path class="st11" d="M121.26,37.96c-0.67-0.52-0.11-1.66-0.73-2.26c-0.3-0.29-0.77-0.3-1.13-0.11c-0.44,0.23-0.67,0.7-0.78,1.16
				c-0.15,0.63-0.15,1.28-0.44,1.88c-0.28,0.57-0.72,1.05-1.17,1.49c-0.96,0.92-2.02,1.74-2.94,2.71c-0.95,0.99-1.76,2.14-2.11,3.48
				c-0.04,0.15,0.2,0.23,0.24,0.08c0.65-2.44,2.72-4.03,4.51-5.64c0.78-0.7,1.6-1.48,1.9-2.51c0.16-0.56,0.14-1.16,0.35-1.71
				c0.19-0.51,0.89-1.15,1.41-0.62c0.31,0.31,0.26,0.85,0.3,1.25s0.12,0.77,0.45,1.03C121.26,38.27,121.39,38.06,121.26,37.96
				L121.26,37.96z"/>
		</g>
		<g>
			<path class="st11" d="M122.19,37.57c-0.81-1.62-0.21-3.52,0.77-4.91c1.01-1.44,2.39-2.55,3.51-3.89
				c2.17-2.59,3.54-5.85,3.89-9.21c0.18-1.73,0.2-3.66-0.84-5.14c-0.09-0.13-0.28,0.04-0.18,0.17c1,1.42,0.95,3.31,0.78,4.96
				c-0.18,1.69-0.62,3.36-1.3,4.93c-0.7,1.62-1.65,3.13-2.81,4.46c-1.12,1.27-2.44,2.36-3.38,3.78c-0.96,1.44-1.48,3.36-0.66,4.99
				C122.04,37.83,122.26,37.71,122.19,37.57L122.19,37.57z"/>
		</g>
		<path d="M9.14,139.78C9.14,139.78,9.15,139.78,9.14,139.78c0.01,0,0.01,0.01,0.02,0.01C9.16,139.79,9.15,139.79,9.14,139.78z"/>
		<path d="M93.49,60.2c-10.5,9.64-20.83,19.45-30.96,29.48c-9.21,9.12-18.24,18.41-27.1,27.87c-1.28,1.37-4.79,5.2-5.28,5.71
			c-3.19,3.35-6.37,6.72-9.54,10.09c-1.58,1.68-3.1,3.48-4.88,4.96c-1.15,0.96-2.48,1.75-4.03,1.59c-0.76-0.08-1.47-0.34-2.18-0.65
			c-0.01-0.01-0.02-0.02-0.04-0.03c-0.04-0.03-0.08-0.06-0.12-0.09c-0.12-0.1-0.02,0-0.11-0.11c-0.28-0.32-0.42-0.64-0.5-1.08
			c-0.12-0.74,0.04-1.54,0.28-2.26c0.47-1.41,1.25-2.71,2.09-3.93c1.66-2.42,6.02-7.05,6.17-7.2c0.51-0.53,1.02-1.05,1.53-1.57
			c1.96-2,3.93-3.98,5.92-5.95c0.57-0.56,12.11-11.41,17.33-16.22c10.58-9.76,21.3-19.35,32.17-28.77
			c5.27-4.56,10.52-9.18,15.97-13.52c0.14-0.11,0.27-0.22,0.42-0.32c0.52-0.37-0.16-1.11-0.67-0.74c-1.37,0.99-2.65,2.15-3.95,3.23
			c-3.15,2.63-6.27,5.29-9.38,7.97c-10.28,8.84-20.41,17.85-30.43,27c-6.36,5.81-19.29,18.13-19.52,18.5
			c-0.04,0.04-0.07,0.07-0.11,0.1c-3.39,3.32-10.97,10.83-11.24,11.12c-0.56,0.59-1.21,1.23-1.75,1.83
			c-0.87,0.99-1.71,1.99-2.5,3.06c-1.27,1.71-2.47,3.51-3.02,5.6c-0.24,0.91-0.4,2.14,0.01,3.03c0.36,0.78,1.25,1.34,2.05,1.57
			c1.44,0.43,3.13,0.34,4.46-0.37c1.24-0.66,2.28-1.65,3.26-2.64c3.29-3.32,6.39-6.78,9.6-10.17c1.61-1.7,3.07-3.45,4.69-5.15
			c1.03-1.03,18.08-18.79,27.29-27.99C69.45,84.11,79.7,74.29,90.11,64.64c1.34-1.24,2.68-2.48,4.03-3.71
			C94.64,60.5,93.96,59.76,93.49,60.2z"/>
		<path class="st10" d="M93.83,60.44c-0.49-0.03-0.76-0.34-1.2-0.44c-0.36-0.08-0.68,0.15-0.96,0.34c-1.22,0.8-2.36,1.79-3.46,2.75
			c-2.42,2.1-4.77,4.28-7.13,6.46c-4.93,4.54-9.83,9.12-14.69,13.73c-9.75,9.24-19.36,18.62-28.81,28.18
			c-6.8,6.88-13.5,13.85-20.1,20.92c0,0,0,0,0.01,0c0,0,0,0-0.01,0l0,0c0.02,0.01,0.04,0.02,0.05,0.04
			c0.01,0.01,0.03,0.03,0.04,0.04c0.03,0.03,0.06,0.06,0.09,0.09c4.7-5.03,9.45-10.01,14.25-14.94c9.53-9.79,19.25-19.4,29.12-28.86
			c4.97-4.77,9.98-9.49,15.02-14.19c2.48-2.31,4.97-4.61,7.47-6.9c2.38-2.18,4.74-4.39,7.3-6.37c0.51-0.4,1.31-1.25,1.98-0.92
			c0.37,0.18,0.59,0.31,1.02,0.34C93.98,60.7,93.99,60.45,93.83,60.44z"/>
		<g>
			<path d="M141.34,11.12c-0.13-1.2-0.38-2.55-1.7-2.97c-0.98-0.32-2.03-0.04-2.98,0.25c-1.25,0.38-2.44,0.91-3.58,1.55
				c-1.75,0.97-3.38,2.14-4.97,3.35c-2.5,1.92-4.89,3.98-7.23,6.09c-2.8,2.52-5.6,5.03-8.31,7.65c-2.63,2.54-5.25,5.08-7.82,7.68
				c-2.62,2.65-5.2,5.36-7.69,8.13c-1.24,1.38-2.49,2.76-3.67,4.19c-1.36,1.65-2.68,3.4-3.61,5.33c-0.72,1.49-1.41,3.5-0.28,4.97
				c0.24,0.31,0.56,0.57,0.91,0.76c0.56,0.31,1.1-0.52,0.54-0.84c-0.09-0.05-0.17-0.1-0.25-0.16c-0.04-0.03-0.08-0.06-0.12-0.08
				c-0.01-0.01-0.12-0.1-0.05-0.04c-0.07-0.06-0.13-0.12-0.19-0.19c-0.03-0.04-0.16-0.21-0.11-0.13c-0.05-0.07-0.09-0.14-0.13-0.22
				c-0.02-0.04-0.11-0.25-0.07-0.15c-0.06-0.16-0.09-0.33-0.12-0.5c0-0.02-0.02-0.16-0.01-0.04c0-0.04-0.01-0.09-0.01-0.13
				c0-0.09,0-0.18,0-0.28c0-0.08,0.01-0.16,0.02-0.24c0-0.05,0.01-0.1,0.02-0.14c0-0.02,0.03-0.21,0.02-0.11
				c0.08-0.42,0.21-0.84,0.36-1.24c0.72-1.86,1.96-3.57,3.19-5.14c0.96-1.23,1.96-2.35,3.01-3.53c2.35-2.65,4.75-5.24,7.22-7.78
				c2.49-2.56,5.05-5.06,7.6-7.55c2.52-2.46,5.05-4.9,7.68-7.25c2.58-2.3,5.15-4.63,7.83-6.81c1.71-1.39,3.46-2.74,5.33-3.92
				c1.19-0.75,2.43-1.43,3.75-1.94c0.07-0.03,0.13-0.05,0.2-0.08c-0.13,0.05,0.08-0.03,0.11-0.04c0.13-0.05,0.26-0.09,0.39-0.13
				c0.25-0.08,0.5-0.15,0.75-0.22c0.94-0.25,2.26-0.5,2.71,0.61c0.19,0.47,0.23,1.01,0.28,1.5c0.03,0.27,0.36,0.43,0.6,0.38
				C141.25,11.66,141.37,11.39,141.34,11.12L141.34,11.12z"/>
		</g>
		<g>
			<path d="M94.05,55.59c-0.16-0.01-0.32-0.02-0.46-0.05c-0.54-0.1-0.91-0.34-1.11-0.72c-0.98-1.9,1.24-6.13,15.27-20.6
				c16.21-16.72,26.27-24.92,29.9-24.39c0.58,0.08,1.01,0.39,1.27,0.87l0,0c1.36,2.63-8.86,20.97-20.7,31.37
				c-6.25,5.49-11.71,8.76-15.18,10.54C99.17,54.59,95.88,55.68,94.05,55.59z M137.37,10.81c-1.7-0.08-7.8,2.35-28.9,24.11
				c-4.06,4.18-16.41,16.92-15.1,19.45c0.04,0.08,0.19,0.15,0.41,0.2c2.58,0.48,12.72-3.52,23.78-13.24
				c12.66-11.12,21.22-28.64,20.48-30.16c-0.1-0.2-0.26-0.3-0.53-0.34C137.46,10.82,137.42,10.81,137.37,10.81z"/>
		</g>
		<g>
			<path d="M94,61.04c0.03-0.02,0.1-0.07-0.01,0.01c0.05-0.03,0.1-0.07,0.15-0.1c0.19-0.13,0.39-0.25,0.59-0.37
				c0.44-0.25,0.88-0.46,1.38-0.54c1.42-0.23,2.87,0.11,4.29,0.17c2.62,0.1,5.28-0.16,7.81-0.86c4.7-1.3,8.97-3.91,12.73-6.96
				c3.82-3.1,7.22-6.76,10.08-10.77c2.96-4.15,5.48-8.71,7.3-13.46c1.83-4.77,2.85-9.82,3.01-14.92c0.02-0.66,0.03-1.32,0.02-1.97
				c0-0.64-1-0.69-1-0.05c0.04,5.11-0.74,10.18-2.4,15.01c-1.65,4.82-4.09,9.36-6.91,13.59c-2.68,4.01-5.92,7.67-9.57,10.82
				c-3.62,3.13-7.76,5.88-12.33,7.39c-2.37,0.78-4.83,1.17-7.33,1.21c-0.73,0.01-1.47-0.01-2.2-0.07c-0.69-0.06-1.39-0.15-2.09-0.18
				c-0.68-0.03-1.41-0.01-2.06,0.17c-0.5,0.14-0.97,0.39-1.41,0.66c-0.25,0.15-0.49,0.31-0.73,0.49c-0.22,0.16-0.2,0.52-0.03,0.7
				C93.5,61.23,93.78,61.2,94,61.04L94,61.04z"/>
		</g>
		<path class="st12" d="M9.54,132.41c0,0,0.93,1.36,0.65,2.02c0,0,1.04-0.28,1.75,0.53c0,0-0.78-1.07-0.34-1.69
			C11.6,133.27,10.76,133.55,9.54,132.41z"/>
		<path class="st12" d="M136.5,12.65c0,0,0.81,1.17,0.62,1.7c0,0,0.81-0.17,1.41,0.53c0,0-0.68-0.92-0.36-1.4
			C138.17,13.47,137.53,13.66,136.5,12.65z"/>
		<path class="st12" d="M125.36,42.08c0,0-1.38-2.81-0.54-4.04c0,0-2.23,0.37-3.38-1.31c0,0,1.19,2.2,0.05,3.34
			C121.48,40.06,123.3,39.65,125.36,42.08z"/>
		<path class="st12" d="M129.5,16.05c0,0-0.48-1.01-0.05-1.52c0,0-1,0.25-1.43-0.34c0,0,0.42,0.79-0.14,1.28
			C127.88,15.46,128.7,15.22,129.5,16.05z"/>
		<path class="st12" d="M80.59,68.31c0,0-0.39-0.85,0.06-1.34c0,0-0.98,0.29-1.35-0.2c0,0,0.35,0.66-0.22,1.13
			C79.07,67.91,79.88,67.64,80.59,68.31z"/>
		<g>
			<path class="st10" d="M11.02,138.88c-0.08,0-0.15-0.01-0.23-0.02c-0.85-0.12-1.46-0.81-1.55-1.74c-0.07-0.71,0.01-1.45,0.24-2.13
				c0.02-0.07,0.09-0.1,0.16-0.08s0.1,0.09,0.08,0.16c-0.22,0.65-0.3,1.34-0.23,2.02c0.08,0.83,0.6,1.41,1.34,1.52
				c1.52,0.22,2.85-1.35,3.51-2.3c0.49-0.7,1.02-1.4,1.62-2.13c0.15-0.18,0.29-0.36,0.43-0.54c0.36-0.46,0.73-0.94,1.18-1.34
				c0.05-0.05,0.13-0.04,0.18,0.01c0.05,0.05,0.04,0.13-0.01,0.18c-0.43,0.39-0.8,0.86-1.15,1.31c-0.14,0.18-0.28,0.36-0.43,0.54
				c-0.6,0.73-1.13,1.42-1.61,2.12C13.74,137.62,12.49,138.95,11.02,138.88z"/>
		</g>
	</g>
</g>
</svg>
