<?xml version="1.0" encoding="utf-8"?>
<!-- Generator: Adobe Illustrator 28.0.0, SVG Export Plug-In . SVG Version: 6.00 Build 0)  -->
<svg version="1.1" id="Layer_1" xmlns="http://www.w3.org/2000/svg" xmlns:xlink="http://www.w3.org/1999/xlink" x="0px" y="0px"
	 viewBox="0 0 150 150" style="enable-background:new 0 0 150 150;" xml:space="preserve">
<style type="text/css">
	.st0{stroke:#000000;stroke-width:2;stroke-linecap:round;stroke-linejoin:round;stroke-miterlimit:10;}
	.st1{fill:#BCBCBC;}
	.st2{fill:#E0D7D7;}
	.st3{fill:url(#SVGID_1_);}
	.st4{fill:url(#SVGID_00000168076076860387112270000011652343378364438430_);}
	.st5{fill:url(#SVGID_00000045596758272135356430000015919766931759105173_);}
	.st6{fill:url(#SVGID_00000182505023612685854350000007152427962019781308_);}
	.st7{fill:url(#SVGID_00000000188272734879518750000001254365931131887767_);}
	.st8{fill:url(#SVGID_00000027591482021870306720000018130630323670784425_);}
	.st9{fill:url(#SVGID_00000140007239083373059270000016096401365558085770_);}
	.st10{fill:url(#SVGID_00000046333661971531360450000006790496386006317982_);}
	.st11{fill:url(#SVGID_00000065776814809009447740000015301201411143830704_);}
	.st12{fill:url(#SVGID_00000085967019245530504580000011920161074458854079_);}
	.st13{fill:url(#SVGID_00000175281395756110119240000015454293770965741731_);}
	.st14{fill:#72716B;}
	.st15{fill:#FFFFFF;}
	.st16{fill:url(#SVGID_00000166651412360690175980000012350895215735071161_);}
</style>
<g id="NPC_Flag">
	<g>
		<path class="st0" d="M141.54,54.84c-5.35-1.8-10.37-4.43-15.13-7.44c-2.32-1.47-4.62-2.98-6.77-4.69c-2-1.59-3.95-3.29-6.21-4.5
			c-1.18-0.64-2.41-1.18-3.58-1.84c-1.21-0.69-2.38-1.45-3.48-2.3c-2.13-1.63-3.99-3.63-6.32-5c-2.34-1.39-4.99-2.21-7.55-3.08
			c-2.57-0.86-5.17-1.67-7.78-2.4c-5.22-1.46-10.53-2.62-15.91-3.35c-1.35-0.18-2.72-0.28-4.05-0.55c-1.25-0.25-2.46-0.62-3.68-0.99
			c-1.22-0.37-2.44-0.73-3.7-0.95c-0.48-0.08-0.94-0.12-1.37-0.26c0.6-1.71,1.21-3.42,1.81-5.12c0.08-0.23,0.16-0.47,0.25-0.7
			c0-0.01,0.01-0.01,0.01-0.02s0-0.01,0-0.02s0.01-0.02,0.01-0.03c0-0.01,0-0.01,0-0.02c0.26-0.78-0.39-1.65-1.6-2.13
			c-1.21-0.48-2.4,0.08-2.71,0.87c0,0.01,0,0.02-0.01,0.03c0,0.01-0.01,0.01-0.01,0.02c-0.65,1.85-1.31,3.69-1.96,5.54
			c-0.07,0.21-0.15,0.42-0.22,0.63c-0.16,0.06-0.32,0.12-0.46,0.22c-0.45,0.32-0.52,0.97-0.67,1.46c-0.19,0.62-0.48,1.2-0.68,1.83
			c-0.4,1.27-0.93,2.53-1.38,3.78c-0.46,1.26-0.91,2.53-1.37,3.79c-0.44,1.21-0.89,2.41-1.33,3.62c-0.44,1.24-1.24,2.31-1.67,3.54
			c-0.21,0.6-0.29,1.24-0.43,1.86c-0.15,0.67-0.34,1.32-0.55,1.98c-0.41,1.31-0.91,2.59-1.38,3.87c-0.48,1.29-0.95,2.59-1.4,3.89
			c-0.47,1.37-0.89,2.76-1.48,4.09c-0.28,0.63-0.59,1.26-0.94,1.85c-0.3,0.52-0.63,1.02-0.81,1.6c-0.19,0.6-0.21,1.24-0.34,1.86
			c-0.13,0.64-0.33,1.26-0.55,1.87c-1.77,5.2-3.68,10.35-5.54,15.52c-0.27,0.77-0.98,1.95-0.26,2.62c0.04,0.04,0.07,0.07,0.11,0.11
			c0.01,0.01,0.01,0.01,0.02,0.02c0.01,0,0.01,0,0.02,0c-1.48,4.14-2.97,8.28-4.45,12.41c-1.63,4.53-3.25,9.06-4.88,13.59
			c-1.62,4.52-3.24,9.03-4.86,13.55c-1.61,4.48-3.22,8.96-4.82,13.44c-0.42,1.16-0.84,2.33-1.25,3.49
			c-0.39,1.07-0.73,2.18-1.17,3.23c-0.16,0.38-0.35,0.77-0.28,1.19c0.07,0.44,0.42,0.89,0.75,1.17c0.69,0.57,1.76,0.85,2.63,0.55
			c0.43-0.15,0.65-0.47,0.84-0.86c0.01-0.02,0.01-0.04,0.01-0.05c0.01-0.01,0.01-0.02,0.02-0.03c0.2-0.56,0.4-1.11,0.6-1.67
			c0.55-1.52,1.1-3.04,1.65-4.56c0.81-2.24,1.62-4.48,2.43-6.72c0.99-2.73,1.97-5.47,2.96-8.2c1.08-2.99,2.16-5.99,3.24-8.98
			c1.09-3.03,2.19-6.06,3.28-9.1c1.02-2.82,2.03-5.63,3.05-8.45c0.86-2.38,1.72-4.76,2.58-7.14c0.62-1.71,1.23-3.42,1.85-5.13
			c0.13-0.36,0.26-0.71,0.4-1.07c0.41-0.03,0.77-0.1,1.09-0.37c0.09-0.07,0.21-0.17,0.27-0.27c0.11-0.18,0.02-0.12,0.13-0.12
			c0.31,0,0.66,0.07,0.99,0.07c0.73,0.01,1.48-0.02,2.21,0.1c0.4,0.07,0.8,0.13,1.19,0.19c1.48,0.22,2.98,0.41,4.47,0.57
			c2.43,0.26,4.87,0.42,7.29,0.72c2.29,0.28,4.56,0.72,6.77,1.41c2.88,0.91,5.63,2.2,8.28,3.64c4.07,2.2,7.94,4.75,11.75,7.37
			c2.64,1.82,5.25,3.69,7.84,5.59c2.83,2.08,5.59,4.28,8.53,6.2c2.92,1.91,6.07,3.43,9.53,4.03c1.69,0.29,3.41,0.43,5.11,0.68
			s3.35,0.66,4.98,1.22c1.68,0.58,3.32,1.25,5.01,1.78c0.76,0.24,1.56,0.52,2.36,0.56c0.69,0.03,1.27-0.26,1.78-0.71
			c2.49-2.17,2.96-5.88,3.26-8.96c0.31-3.27,0.36-6.56,0.62-9.84c0.27-3.44,0.85-6.82,2.03-10.07c1.24-3.42,2.86-6.7,4.37-10
			c1.53-3.36,3.05-6.71,4.58-10.07c0.76-1.66,1.51-3.32,2.27-4.98C141.85,55.11,141.75,54.91,141.54,54.84z"/>
		<g>
			<path class="st1" d="M51.21,17.26l-0.01,0.01c-0.19,0.28-0.28,0.63-0.37,0.96c-0.67,2.47-1.88,4.76-2.73,7.18
				c-0.62,1.77-1.05,3.62-1.82,5.33c-0.7,1.57-1.7,3-2.05,4.72c-0.09,0.43-0.13,0.86-0.23,1.28c-0.11,0.52-0.3,1.03-0.48,1.53
				c-0.98,2.67-1.95,5.34-2.93,8.01c-0.33,0.9-0.66,1.81-0.94,2.73c-0.15,0.51-0.29,1.04-0.5,1.53c-0.32,0.76-0.88,1.48-1.29,2.21
				c-0.09,0.17-0.18,0.33-0.26,0.5c-0.41,0.91-0.49,1.97-0.81,2.91c-0.38,1.12-0.6,2.3-0.98,3.43c-0.19,0.56-0.38,1.13-0.57,1.69
				c-1.31,3.84-2.72,7.64-4.26,11.39c-0.23,0.56-1.17,2.32-0.51,2.83c0.07,0.05,0.15,0.08,0.22,0.11c0.02,0.01,0.04,0.01,0.06,0.01
				c0.03-0.01,0.04-0.03,0.05-0.05c0.15-0.28,0.09-0.48,0.36-0.7c0.22-0.18,0.49-0.29,0.76-0.39c0.63-0.23,1.31-0.45,1.97-0.33
				c0.33,0.06,0.63,0.21,0.92,0.37c0.2,0.11,0.41,0.26,0.43,0.49c0.04,0.4-0.54,0.67-0.46,1.06c0.21,0.13,0.49,0.09,0.71,0
				c0.23-0.1,0.43-0.25,0.66-0.34c0.34-0.13,0.71-0.13,1.07-0.12c0.74,0.01,1.48,0.03,2.22,0.07c1.42,0.08,2.83,0.3,4.24,0.46
				c1.47,0.17,2.93,0.33,4.4,0.5c2.91,0.33,5.81,0.4,8.66,1.12c0.48,0.12,0.95,0.25,1.42,0.38c2.38,0.66,4.62,1.54,6.82,2.64
				c0.78,0.39,1.55,0.79,2.3,1.21c0.3,0.17,0.53,0.36,0.84,0.51c0.41,0.19,0.82,0.37,1.23,0.56c0.49,0.23,0.99,0.45,1.44,0.74
				c0.47,0.3,0.9,0.67,1.38,0.97c0.56,0.36,1.16,0.62,1.75,0.92c3.22,1.65,5.89,4.23,8.9,6.21c1.31,0.86,2.61,1.72,3.89,2.61
				c2.57,1.8,5.11,3.64,7.59,5.55c2.23,1.72,4.7,3.31,7.36,4.28c1.3,0.47,2.66,0.78,4.02,1.03c0.68,0.12,1.36,0.26,2.04,0.35
				c0.58,0.07,1.19,0.04,1.78,0.09c1.91,0.17,3.75,0.7,5.55,1.33c2.16,0.75,4.38,1.7,6.6,2.17c0.18,0.04,0.37,0.08,0.56,0.1
				c3.21,0.35,4.4-3.74,4.83-6.15c0.72-4.06,0.75-8.21,1.03-12.33c0.28-4.12,0.83-8.29,2.5-12.06c0.27-0.61,0.64-1.12,0.95-1.69
				c0.4-0.71,0.67-1.52,1-2.27c0.86-1.59,1.53-3.38,2.21-5.05c0.85-2.09,1.87-4.11,2.85-6.14c1.22-2.53,2.39-5.1,3.5-7.69
				c0.09-0.21,0.18-0.46,0.08-0.67c-0.07-0.16-0.23-0.25-0.38-0.34c-1.41-0.79-3.02-1.16-4.48-1.89c-2.64-1.32-5.3-2.56-7.84-4.08
				c-2.68-1.61-5.24-3.38-7.8-5.17c-0.77-0.54-1.55-1.08-2.29-1.67c-1.64-1.29-3.14-2.8-5.02-3.74c-1.58-0.79-3.23-1.43-4.75-2.34
				c-1.62-0.97-3.13-2.13-4.49-3.45c-0.26-0.25-0.51-0.51-0.78-0.75c-0.66-0.61-1.4-1.12-2.14-1.64c-0.9-0.63-1.82-1.49-2.88-1.8
				c-0.3-0.09-0.59-0.2-0.89-0.32c-1.66-0.68-3.24-1.41-4.99-1.87c-0.88-0.23-1.76-0.47-2.63-0.7c-0.72-0.19-1.35-0.48-2.05-0.71
				c-1.02-0.34-2.05-0.67-3.08-0.99c-2.86-0.89-5.75-1.69-8.69-2.22c-2.93-0.53-5.9-0.73-8.84-1.21c-2.51-0.41-4.91-1.21-7.39-1.77
				c-0.81-0.18-1.63-0.34-2.43-0.58c-0.58-0.17-1.21-0.12-1.76-0.38c-0.27-0.13-0.5-0.32-0.76-0.47c-0.64-0.38-1.4-0.5-2.15-0.52
				C52.17,16.72,51.54,16.79,51.21,17.26z"/>
			<path class="st2" d="M13.57,135.81c0.18-0.48,0.36-0.96,0.53-1.44c0.35-0.98,0.59-2.02,0.99-2.97c0.15-0.37,0.32-0.68,0.42-1.08
				c0.16-0.6,0.27-1.15,0.53-1.71c0.33-0.7,0.6-1.43,0.85-2.17c0.72-2.05,1.4-4.11,2.03-6.19c0.28-0.92,0.72-1.8,1.05-2.71
				c0.38-1.04,0.76-2.08,1.14-3.13c1.52-4.17,3.04-8.34,4.55-12.51c0.33-0.92,0.66-1.83,1-2.75c0.34-0.93,0.72-1.85,0.93-2.81
				c0.1-0.47,0.38-0.92,0.56-1.36c0.2-0.5,0.39-1,0.57-1.5c0.27-0.77,0.49-1.55,0.71-2.33c0.23-0.84,0.6-1.67,0.9-2.49
				c1.45-4.07,2.82-8.16,4.33-12.22c0.1-0.27,0.19-0.55,0.28-0.83c0.07-0.23,0.24-0.46,0.21-0.71c-0.02-0.14-0.11-0.25-0.21-0.35
				c-0.32-0.32-0.78-0.49-1.24-0.52c-0.46-0.03-0.91,0.07-1.35,0.21c-0.35,0.11-0.7,0.26-0.97,0.51c-0.15,0.14-0.26,0.3-0.36,0.47
				c-0.51,0.86-0.77,1.95-1.11,2.89c-0.37,1.04-0.73,2.08-1.09,3.12c-0.71,2.06-1.4,4.13-2.14,6.18c-0.5,1.37-1.06,2.72-1.58,4.09
				c-0.08,0.2-0.16,0.41-0.23,0.61c-0.77,2.03-1.46,4.09-2.07,6.18c-0.15,0.52-0.3,1.04-0.44,1.57c-0.12,0.43-0.35,0.79-0.5,1.2
				c-0.39,1.03-0.76,2.08-1.13,3.12c-0.48,1.36-0.96,2.72-1.45,4.07c-1.48,4.18-2.96,8.36-4.45,12.54
				c-1.46,4.11-2.84,8.23-4.33,12.31c-0.32,0.88-1.48,2.82-1.18,3.73c0.29,0.88,1.15,1.53,2.07,1.59c0.21,0.01,0.43,0,0.63-0.09
				C12.87,137.95,13.27,136.59,13.57,135.81z"/>
			<path class="st2" d="M52.82,13.92c-0.27,0.89-0.55,1.78-0.82,2.67c0.12,0.1,0.29,0.02,0.44-0.03c0.25-0.09,0.51-0.1,0.77-0.05
				c0.26,0.06,0.6,0.05,0.84,0.17c0.14,0.06,0.27,0.13,0.42,0.18c0.02,0.01,0.05,0.02,0.07,0.02c0.26,0.15,0.5,0.34,0.73,0.53
				c0.21,0.17,0.39-0.03,0.38-0.24c-0.01-0.27,0.11-0.39,0.28-0.6c0.15-0.19,0.23-0.41,0.34-0.61c0.13-0.22,0.21-0.44,0.28-0.68
				c0.43-1.42,1.09-2.8,1.17-4.28c0-0.06,0-0.12-0.01-0.17c-0.02-0.06-0.06-0.1-0.1-0.15c-0.13-0.15-0.26-0.31-0.42-0.44
				c-0.67-0.59-1.69-0.71-2.52-0.38c-0.12,0.05-0.24,0.11-0.34,0.2c-0.14,0.12-0.22,0.28-0.31,0.44c-0.14,0.26-0.28,0.52-0.39,0.8
				c-0.07,0.18-0.13,0.37-0.19,0.56C53.24,12.54,53.03,13.23,52.82,13.92z"/>
			<g>
				
					<linearGradient id="SVGID_1_" gradientUnits="userSpaceOnUse" x1="-444.3393" y1="-233.8764" x2="-450.2563" y2="-201.159" gradientTransform="matrix(0.474 -0.8805 -0.8805 -0.474 46.1325 -389.8306)">
					<stop  offset="0" style="stop-color:#000000"/>
					<stop  offset="1" style="stop-color:#E0D7D7;stop-opacity:0"/>
				</linearGradient>
				<path class="st3" d="M33.21,74.3c-0.33,0.49-0.53,1.25-0.58,1.7c-0.03,0.34-0.02,0.69-0.08,1.03c-0.15,0.78-0.67,1.41-1.04,2.09
					c-0.35,0.65-0.51,1.39-0.73,2.09c-1.15,3.71-2.52,7.35-3.82,11.01c-0.51,1.45-1.06,2.81-1.25,4.34
					c-0.19,1.56-0.57,3.09-1.06,4.58c-0.98,3.02-2.36,5.89-3.58,8.82c-1.12,2.7-2.1,5.46-3.07,8.22c-1.21,3.43-2.42,6.86-3.64,10.3
					c-0.57,1.62-1.14,3.23-1.71,4.85c-0.38,1.09-0.79,3.47-2.03,3.96c-0.32,0.13-0.71,0.11-0.99,0.32c0.04,0.31,0.39,0.46,0.68,0.56
					c0.45,0.14,0.92,0.29,1.38,0.18c0.43-0.1,0.79-0.41,1.03-0.77c0.83-1.21,1.23-2.73,1.71-4.1c0.56-1.58,1.12-3.17,1.67-4.75
					c1.71-4.86,3.4-9.72,5.09-14.58c0.84-2.43,1.68-4.87,2.52-7.3c0.83-2.41,1.51-4.96,2.5-7.31c0.21-0.48,0.54-0.79,0.77-1.26
					c0.24-0.5,0.28-1.11,0.54-1.59c0.33-0.91,0.65-1.82,0.98-2.73c0.68-1.89,1.35-3.78,2.03-5.67c1.31-3.67,2.65-7.33,3.9-11.03
					c0.28-0.83,0.94-2.09,0.31-2.91C34.11,73.52,33.58,73.75,33.21,74.3z"/>
				
					<linearGradient id="SVGID_00000068669627769170262700000004274395748835362978_" gradientUnits="userSpaceOnUse" x1="-350.5646" y1="-203.7872" x2="-350.7406" y2="-197.5065" gradientTransform="matrix(0.474 -0.8805 -0.8805 -0.474 46.1325 -389.8306)">
					<stop  offset="0" style="stop-color:#000000"/>
					<stop  offset="1" style="stop-color:#E0D7D7;stop-opacity:0"/>
				</linearGradient>
				<path style="fill:url(#SVGID_00000068669627769170262700000004274395748835362978_);" d="M54.44,14.56
					c0.03-0.07,0.06-0.13,0.08-0.2c0.43-1,0.85-2,1.23-3.02c0.15-0.4,0.29-0.81,0.37-1.24c0.03-0.15,0.08-0.33,0.22-0.36
					c0.06-0.01,0.13,0.02,0.19,0.04c0.43,0.2,0.8,0.52,1.07,0.91c0.05,0.07,0.09,0.14,0.11,0.22c0.02,0.09,0,0.17-0.02,0.26
					c-0.27,1.33-0.68,2.64-1.22,3.89c-0.22,0.52-0.41,1.06-0.59,1.6c-0.02,0.07-0.37,1.02-0.38,1.02c-0.46-0.26-0.93-0.49-1.41-0.7
					c-0.05-0.02-0.09-0.04-0.12-0.08c-0.04-0.05-0.04-0.11-0.05-0.18C53.92,15.98,54.16,15.24,54.44,14.56z"/>
				
					<linearGradient id="SVGID_00000029039106477057326080000003265784528873963921_" gradientUnits="userSpaceOnUse" x1="-387.2288" y1="-194.8927" x2="-384.3915" y2="-207.7735" gradientTransform="matrix(0.474 -0.8805 -0.8805 -0.474 46.1325 -389.8306)">
					<stop  offset="0" style="stop-color:#000000"/>
					<stop  offset="1" style="stop-color:#BCBCBC"/>
				</linearGradient>
				<path style="fill:url(#SVGID_00000029039106477057326080000003265784528873963921_);" d="M35.19,75.17
					c0,0.14-0.03,0.28-0.08,0.41c-0.09,0.21-0.2,0.51,0,0.59c0.07,0.03,0.14,0.01,0.21-0.01c0.69-0.21,1.12-0.89,1.41-1.55
					c0.79-1.8,0.99-3.79,1.54-5.67c0.21-0.74,0.48-1.45,0.73-2.18c0.75-2.17,1.36-4.39,1.77-6.65c0.09-0.48,0.16-0.96,0.33-1.42
					c0.07-0.21,0.18-0.38,0.28-0.57c0.11-0.22,0.15-0.47,0.23-0.7c0.13-0.36,0.26-0.72,0.39-1.08c0.27-0.73,0.54-1.47,0.81-2.2
					c0.35-0.93,0.66-1.88,0.97-2.83c0.15-0.48,0.3-0.95,0.46-1.43c0.12-0.39,0.2-0.87,0.43-1.21c0.13-0.19,0.31-0.33,0.42-0.53
					c0.2-0.34,0.28-0.81,0.42-1.18c0.34-0.89,0.67-1.78,1.01-2.67c0.66-1.74,1.32-3.48,1.97-5.23c0.43-1.16,0.87-2.29,1.25-3.47
					c0.2-0.62,0.39-1.23,0.59-1.85c0.1-0.31,0.2-0.62,0.29-0.92c0.08-0.27,0.14-0.6,0.27-0.85c0.47-1.47,0.93-2.94,1.47-4.39
					c0.4-1.08,0.84-2.14,1.23-3.22c0.2-0.54,0.38-1.09,0.54-1.65c0.14-0.49,0.39-0.87,0.62-1.32c0.32-0.65,0.44-1.38,0.68-2.06
					c0.12-0.33,0.26-0.65,0.36-0.99c0.05-0.15,0.09-0.32,0.02-0.47c-0.05-0.11-0.16-0.19-0.27-0.26c-0.32-0.21-0.64-0.43-0.98-0.62
					c-0.26-0.14-0.53-0.27-0.83-0.33c-0.1-0.02-0.23-0.02-0.28,0.07c-0.07,0.12,0.07,0.24,0.15,0.36c0.14,0.2,0.06,0.45,0.02,0.66
					c-0.05,0.28-0.11,0.55-0.17,0.83c-0.53,2.4-1.44,4.68-2.35,6.95c-0.64,1.6-1.28,3.2-1.92,4.8c-0.41,1.02-0.82,2.04-1.22,3.06
					c-0.95,2.37-1.89,4.73-2.75,7.14c-1.17,3.28-2.17,6.62-3.11,9.98c-0.27,0.96-0.54,1.93-0.98,2.82c-0.3,0.61-0.68,1.17-1.02,1.76
					c-2.3,4.06-2.33,9.01-4.01,13.36c-0.37,0.96-0.82,1.88-1.32,2.79c-0.47,0.86-1.17,1.72-1.53,2.62c0.57,0.34,1.35,0.08,1.77,0.69
					C35.13,74.76,35.19,74.97,35.19,75.17z"/>
				
					<linearGradient id="SVGID_00000047054206159679867250000014727302887393252522_" gradientUnits="userSpaceOnUse" x1="-386.8654" y1="-232.4736" x2="-420.7393" y2="-209.7582" gradientTransform="matrix(0.474 -0.8805 -0.8805 -0.474 46.1325 -389.8306)">
					<stop  offset="0" style="stop-color:#000000"/>
					<stop  offset="1" style="stop-color:#BCBCBC;stop-opacity:0"/>
				</linearGradient>
				<path style="fill:url(#SVGID_00000047054206159679867250000014727302887393252522_);" d="M38.23,75.52
					c5.98,0.66,11.96,1.31,17.94,1.97c-2.07-0.79-3.88-2.24-5.11-4.08c-0.21-0.31-0.41-0.65-0.73-0.85
					c-0.26-0.16-0.56-0.22-0.86-0.27c-1.58-0.29-3.16-0.57-4.74-0.83c-0.61-0.1-1.23-0.2-1.84-0.11c-0.43,0.06-0.84,0.22-1.27,0.27
					c-0.72,0.08-1.6-0.11-2.28-0.35c-0.06-0.02-0.13-0.05-0.17-0.1c-0.06-0.08-0.04-0.19-0.02-0.29c0.13-0.62,0.25-1.23,0.38-1.85
					c0.08-0.4,0.17-0.82,0.08-1.22c-0.06-0.27-0.19-0.52-0.29-0.78c-0.2-0.48-0.3-1.01-0.31-1.53c-0.23,0.32-0.35,0.71-0.46,1.09
					c-0.29,0.98-0.57,1.96-0.86,2.94c-0.12,0.42-0.25,0.85-0.42,1.26c-0.26,0.6-0.62,1.15-0.84,1.77c-0.16,0.45-0.11,0.88-0.34,1.32
					c-0.14,0.27-0.33,0.51-0.47,0.77c-0.18,0.34-0.2,0.72-0.44,1.05c-0.07,0.09-0.14,0.17-0.17,0.28s0.02,0.24,0.13,0.26
					c0.04,0.01,0.09,0,0.13-0.01c0.14-0.04,0.29-0.07,0.43-0.11c0.15-0.04,0.31-0.08,0.43-0.19s0.2-0.26,0.35-0.34
					c0.15-0.08,0.36-0.12,0.53-0.12C37.41,75.43,37.82,75.47,38.23,75.52z"/>
				
					<linearGradient id="SVGID_00000018233574147425491160000017285562640077922750_" gradientUnits="userSpaceOnUse" x1="-379.4149" y1="-308.0456" x2="-395.3442" y2="-269.2985" gradientTransform="matrix(0.474 -0.8805 -0.8805 -0.474 46.1325 -389.8306)">
					<stop  offset="0" style="stop-color:#000000"/>
					<stop  offset="1" style="stop-color:#BCBCBC;stop-opacity:0"/>
				</linearGradient>
				<path style="fill:url(#SVGID_00000018233574147425491160000017285562640077922750_);" d="M90.16,96.82
					c2.99,2.31,5.85,4.84,9.19,6.6c1.2,0.63,2.46,1.14,3.77,1.49c1.14,0.3,2.31,0.33,3.42,0.65c2.38,0.68,4.91,0.5,7.28,1.22
					c1.32,0.4,2.49,0.75,3.78,1.21c-0.66-1.22-1.66-2.22-2.37-3.41c-0.45-0.76-0.78-1.59-1.24-2.34c-0.97-1.59-3-2.61-4.87-2.43
					c-0.51,0.05-1.09,0.2-1.51-0.1c-0.19-0.13-0.31-0.34-0.4-0.54c-0.36-0.84-0.28-1.79-0.35-2.7c-0.06-0.91-0.35-1.74-1.06-2.34
					c0.9-1.08,4.08-0.12,5.33-0.17c0.25-0.01,0.52-0.05,0.68-0.25c-0.5-0.57-1.17-0.93-1.8-1.36c-0.62-0.42-1.23-0.96-1.45-1.68
					c-0.27-0.88,0.08-2.07-0.49-2.86c-0.55-0.77-1.84-0.77-2.68-1.11c-0.87-0.35-1.72-1.01-1.86-1.94c-0.17-1.05,0.59-1.99,1.28-2.8
					c1.67-1.96,1.39-4.66,1.96-7.06c0.31-1.3,0.69-2.58,0.95-3.88c0.13-0.65,0.24-1.3,0.3-1.95c0.02-0.21-0.07-1.62,0.03-1.69
					c-2.29,1.61-5.06,3.55-6.58,5.9c-0.12,0.18-0.24,0.36-0.32,0.56c-0.21,0.54-0.13,1.14-0.08,1.71c0.03,0.31,0.02,0.68-0.24,0.86
					c-0.13,0.09-0.29,0.11-0.45,0.12c-0.78,0.06-1.53-0.06-2.27,0.13c-0.59,0.15-1.15,0.26-1.76,0.38c-1.4,0.27-2.28,2.15-3.69,1.94
					c-0.5-0.08-0.91-0.42-1.35-0.67c-1.79-1.04-4.03-0.61-6.05-0.16c-0.4,0.09-0.81,0.18-1.15,0.4c-0.56,0.36-0.86,1-1.33,1.47
					c-0.79,0.8-1.95,1.07-3.02,1.41c-2.01,0.63-3.9,1.63-5.56,2.93c-0.28,0.22-0.59,0.51-0.57,0.86c0.02,0.36,0.34,0.61,0.63,0.82
					c2.48,1.74,4.93,3.46,7.51,5.01c1.47,0.88,2.89,1.86,4.29,2.83C87.39,94.77,89.07,95.67,90.16,96.82z"/>
				
					<linearGradient id="SVGID_00000173153316716893896230000013936502211031436695_" gradientUnits="userSpaceOnUse" x1="-361.8919" y1="-241.4632" x2="-351.9221" y2="-260.5789" gradientTransform="matrix(0.474 -0.8805 -0.8805 -0.474 46.1325 -389.8306)">
					<stop  offset="0" style="stop-color:#000000"/>
					<stop  offset="1" style="stop-color:#BCBCBC;stop-opacity:0"/>
				</linearGradient>
				<path style="fill:url(#SVGID_00000173153316716893896230000013936502211031436695_);" d="M102.18,36.4
					c-0.26,0.96-0.66,1.89-0.73,2.87c-0.06,0.9,0.16,1.78,0.32,2.67c0.82,4.56-0.03,9.27,0.58,13.86c0.48-0.52,0.95-1.04,1.43-1.56
					c0.33-0.36,0.66-0.73,0.81-1.19c0.38-1.18-0.55-2.53-0.04-3.65c0.44,0.16,0.85,0.42,1.18,0.75c0.13-0.15,0.32-0.23,0.5-0.33
					c1.73-0.98,1.52-3.67,2.93-5.08c0.1,0.11,0.2,0.21,0.3,0.32c0.02-0.63-0.37-1.28-0.13-1.87c0.33-0.79,1.51-0.76,2.22-0.29
					c0.72,0.47,1.25,1.21,2.05,1.53c0.75,0.3,1.59,0.17,2.38,0.03c0.82-0.14,1.63-0.28,2.45-0.42c-1.48-3.13-4.72-4.97-7.67-6.8
					c-2.4-1.49-4.74-3.09-6.85-4.97c-0.27-0.24-1.06-1.26-1.46-1.12c-0.51,0.17-0.1,0.98-0.04,1.4
					C102.59,33.83,102.51,35.15,102.18,36.4z"/>
				
					<linearGradient id="SVGID_00000068672961849179745800000010665553110327927719_" gradientUnits="userSpaceOnUse" x1="-361.6627" y1="-267.632" x2="-359.5306" y2="-286.0793" gradientTransform="matrix(0.474 -0.8805 -0.8805 -0.474 46.1325 -389.8306)">
					<stop  offset="0" style="stop-color:#000000"/>
					<stop  offset="1" style="stop-color:#BCBCBC;stop-opacity:0"/>
				</linearGradient>
				<path style="fill:url(#SVGID_00000068672961849179745800000010665553110327927719_);" d="M123.95,56.6
					c-0.14,1.16-0.35,2.32-0.8,3.39c-0.33,0.78-0.78,1.51-1.21,2.24c-1.95,3.37-3.37,7.05-4.18,10.87c0.18-0.87,1.46-0.81,2.16-1.34
					c0.74-0.57,0.69-1.66,0.93-2.57c0.25-0.95,0.89-1.8,1.75-2.29c-0.34-0.19-0.19-0.71,0.02-1.04c0.69-1.11,1.51-2.15,2.43-3.07
					c0.3-0.3,0.63-0.61,0.76-1.02c0.09-0.27,0.08-0.57,0.08-0.85c-0.06-3.18,0.24-6.36,0.9-9.47c1.14-0.22,2.24-0.62,3.25-1.18
					c-0.76,0.23-2.46-1.63-2.99-2.03c-0.63-0.49-1.27-0.92-1.96-1.31c-0.32-0.18-1.96-0.9-2.02-1.08c0.55,1.83,0.91,4.18,1.02,6.09
					C124.17,53.49,124.13,55.05,123.95,56.6z"/>
				
					<linearGradient id="SVGID_00000070089318521862050510000008115277428976338308_" gradientUnits="userSpaceOnUse" x1="-376.5104" y1="-218.3899" x2="-379.6784" y2="-205.3008" gradientTransform="matrix(0.474 -0.8805 -0.8805 -0.474 46.1325 -389.8306)">
					<stop  offset="0" style="stop-color:#000000"/>
					<stop  offset="1" style="stop-color:#BCBCBC;stop-opacity:0"/>
				</linearGradient>
				<path style="fill:url(#SVGID_00000070089318521862050510000008115277428976338308_);" d="M51.03,65.74
					c-0.99-0.74-2.1-1.75-1.89-2.97c0.05-0.3,0.18-0.58,0.2-0.88c0.02-0.32-0.09-0.63-0.19-0.93c-0.21-0.6-0.42-1.2-0.62-1.8
					c-0.06-0.17-0.13-0.35-0.27-0.46c-0.19-0.15-0.46-0.13-0.7-0.15c-0.71-0.08-1.3-0.64-1.62-1.28c-0.31-0.65-0.4-1.38-0.48-2.09
					c1.53,0.18,3.08,0.14,4.6-0.11c0.17-0.03,0.36-0.07,0.49-0.18c0.33-0.29,0.15-0.83-0.06-1.22c-0.58-1.05-1.25-2.31-0.7-3.38
					c0.26-0.5,0.75-1.12,0.36-1.52c-0.16-0.17-0.43-0.2-0.61-0.35c-0.29-0.24-0.29-0.69-0.13-1.03s0.44-0.6,0.66-0.9
					c0.69-0.95,0.72-2.2,0.79-3.37c0.25-4.89,1.39-9.68,2.68-14.4c0.23-0.84,0.47-1.69,0.88-2.46c0.22-0.4,0.49-0.79,0.6-1.23
					c0.1-0.39,0.07-0.8,0.1-1.2c0.15-1.82,1.51-2.95,2.46-4.37c0.32-0.47,0.68-0.94,1.2-1.19c-0.51-0.21-1.06-0.34-1.61-0.38
					c-0.36-0.03-1.01-0.14-1.25,0.22c-0.09,0.14-0.13,0.31-0.17,0.48c-0.1,0.44-0.22,0.87-0.34,1.3c-0.55,1.88-1.33,3.65-2.26,5.37
					c-0.2,0.37-0.29,0.83-0.43,1.23c-0.16,0.48-0.32,0.95-0.48,1.43c-0.32,0.95-0.64,1.91-0.97,2.86c-1.28,3.77-2.63,7.53-3.9,11.3
					c-0.45,1.34-0.9,2.68-1.35,4.02c-0.13,0.37-0.25,0.75-0.4,1.12c-0.21,0.54-0.46,1.06-0.72,1.58c-0.23,0.46-0.35,0.9-0.53,1.38
					c-0.4,1.08-0.8,2.17-1.21,3.25c-0.68,1.8-1.39,3.59-1.95,5.43c-0.57,1.91-1.15,3.81-1.72,5.72c-0.14,0.47-0.29,0.95-0.49,1.4
					c-0.25,0.56,0.22,0.44,0.6,0.35c0.25-0.06,0.51-0.08,0.76-0.1c1.8-0.15,3.58-0.52,5.37-0.55c0.91-0.02,1.83-0.02,2.74,0
					C48.99,65.67,50.63,65.44,51.03,65.74z"/>
			</g>
			<g>
				
					<linearGradient id="SVGID_00000177475082602478599370000016539786432717742010_" gradientUnits="userSpaceOnUse" x1="-352.5357" y1="-205.2738" x2="-352.7611" y2="-196.0154" gradientTransform="matrix(0.474 -0.8805 -0.8805 -0.474 46.1325 -389.8306)">
					<stop  offset="0" style="stop-color:#000000"/>
					<stop  offset="0.1352" style="stop-color:#252104;stop-opacity:0.8648"/>
					<stop  offset="0.4506" style="stop-color:#766A0C;stop-opacity:0.5494"/>
					<stop  offset="0.7097" style="stop-color:#B29F12;stop-opacity:0.2903"/>
					<stop  offset="0.8996" style="stop-color:#D7C016;stop-opacity:0.1004"/>
					<stop  offset="1" style="stop-color:#E5CC17;stop-opacity:0"/>
				</linearGradient>
				<path style="fill:url(#SVGID_00000177475082602478599370000016539786432717742010_);" d="M56.4,16.17v-0.01
					C56.4,16.17,56.4,16.17,56.4,16.17z"/>
			</g>
			<g>
				<path d="M52.19,16.8c0.65-1.85,1.31-3.69,1.96-5.54c0.09-0.26,0.18-0.52,0.27-0.78c0.06-0.17-0.09-0.36-0.25-0.4
					c-0.19-0.04-0.34,0.08-0.4,0.25c-0.65,1.85-1.31,3.69-1.96,5.54c-0.09,0.26-0.18,0.52-0.27,0.78c-0.06,0.17,0.09,0.36,0.25,0.4
					C51.98,17.1,52.13,16.97,52.19,16.8L52.19,16.8z"/>
			</g>
			<g>
				<path d="M57.44,11.42c-0.64,1.8-1.27,3.6-1.91,5.4c-0.09,0.26-0.18,0.51-0.27,0.77c-0.06,0.17,0.09,0.36,0.25,0.4
					c0.19,0.04,0.34-0.08,0.4-0.25c0.64-1.8,1.27-3.6,1.91-5.4c0.09-0.26,0.18-0.51,0.27-0.77c0.06-0.17-0.09-0.36-0.25-0.4
					C57.65,11.12,57.5,11.25,57.44,11.42L57.44,11.42z"/>
			</g>
			<g>
				<g>
					<path d="M12.41,137.34c-0.08,0.16-0.16,0.36-0.31,0.47c-0.19,0.14-0.48,0.15-0.7,0.15c-0.46,0-0.94-0.13-1.32-0.4
						c-0.33-0.24-0.73-0.69-0.63-1.12c0.1-0.44,0.33-0.87,0.48-1.29c0.78-2.18,1.56-4.36,2.35-6.53c1.55-4.32,3.1-8.64,4.65-12.96
						c1.56-4.34,3.11-8.68,4.67-13.01c1.57-4.37,3.14-8.74,4.71-13.12c1.55-4.33,3.11-8.66,4.66-12.98
						c0.19-0.54,0.39-1.08,0.58-1.62c0.14-0.4-0.51-0.55-0.65-0.15c-1.62,4.51-3.24,9.02-4.85,13.53
						c-1.63,4.53-3.25,9.06-4.88,13.59c-1.62,4.52-3.24,9.03-4.86,13.55c-1.61,4.48-3.22,8.96-4.82,13.44
						c-0.42,1.16-0.84,2.33-1.25,3.49c-0.39,1.07-0.73,2.18-1.17,3.23c-0.16,0.38-0.35,0.77-0.28,1.19
						c0.07,0.44,0.42,0.89,0.75,1.17c0.69,0.57,1.76,0.85,2.63,0.55c0.43-0.15,0.65-0.47,0.84-0.86
						C13.19,137.27,12.6,136.95,12.41,137.34L12.41,137.34z"/>
				</g>
				<g>
					<path d="M34.93,74.93c-0.2,0.56-0.4,1.11-0.6,1.67c-0.55,1.52-1.1,3.04-1.65,4.56c-0.81,2.24-1.62,4.48-2.43,6.72
						c-0.99,2.73-1.97,5.47-2.96,8.2c-1.08,2.99-2.16,5.99-3.24,8.98c-1.09,3.03-2.19,6.06-3.28,9.1c-1.02,2.82-2.03,5.63-3.05,8.45
						c-0.86,2.38-1.72,4.76-2.58,7.14c-0.62,1.71-1.24,3.42-1.85,5.13c-0.29,0.81-0.61,1.61-0.88,2.43
						c-0.01,0.03-0.03,0.07-0.04,0.1c-0.14,0.4,0.51,0.55,0.65,0.15c0.2-0.56,0.4-1.11,0.6-1.67c0.55-1.52,1.1-3.04,1.65-4.56
						c0.81-2.24,1.62-4.48,2.43-6.72c0.99-2.73,1.97-5.47,2.96-8.2c1.08-2.99,2.16-5.99,3.24-8.98c1.09-3.03,2.19-6.06,3.28-9.1
						c1.02-2.82,2.03-5.63,3.05-8.45c0.86-2.38,1.72-4.76,2.58-7.14c0.62-1.71,1.24-3.42,1.85-5.13c0.29-0.81,0.61-1.61,0.88-2.43
						c0.01-0.03,0.03-0.07,0.04-0.1C35.73,74.68,35.08,74.53,34.93,74.93L34.93,74.93z"/>
				</g>
				<g>
					<path d="M12.35,136.89c-0.1-0.52-0.61-0.78-1.07-0.94c-0.47-0.16-0.99-0.21-1.43,0.06c-0.09,0.06,0,0.2,0.09,0.14
						c0.38-0.24,0.85-0.19,1.26-0.06c0.42,0.14,0.9,0.36,0.99,0.84C12.22,137.04,12.37,136.99,12.35,136.89L12.35,136.89z"/>
				</g>
			</g>
			<g>
				<path d="M31.18,74.92c0.05,0.06,0.05,0.1,0.06,0.18c-0.02,0.05-0.02,0.06-0.01,0.03c0.02-0.03,0.02-0.03-0.01,0.01
					c0.06-0.08,0.09-0.09,0.14-0.13c0.19-0.13,0.39-0.24,0.59-0.33c0.43-0.19,0.87-0.33,1.35-0.34c0.55-0.01,1.06,0.15,1.46,0.53
					c0.07,0.07,0.15,0.14,0.21,0.23c-0.01-0.01,0.05,0.07,0.06,0.08c0.01,0.01,0.07,0.12,0.05,0.07c0.01,0.02,0.01,0.04,0.02,0.06
					c0.01,0.04,0.01,0.04,0,0c0,0.04,0,0.04,0-0.01c0.02-0.04,0.02-0.05,0-0.01c0.02-0.06,0.06-0.04-0.02-0.01
					c-0.01,0-0.08,0.02-0.1,0.02c-0.18,0.03-0.33,0.15-0.32,0.34c0.01,0.16,0.17,0.35,0.34,0.32c0.27-0.04,0.55-0.12,0.69-0.38
					c0.12-0.22,0.06-0.47-0.05-0.68c-0.2-0.39-0.61-0.75-1-0.95c-1.09-0.57-2.39-0.25-3.4,0.33c-0.38,0.22-0.93,0.64-0.53,1.11
					c0.12,0.14,0.36,0.11,0.47-0.01C31.33,75.25,31.3,75.06,31.18,74.92L31.18,74.92z"/>
			</g>
			<g>
				<path d="M36.46,75.79c0.29-0.34,0.44-0.78,0.58-1.2c0.24-0.72,0.43-1.45,0.63-2.18c0.32-1.18,0.62-2.35,0.95-3.53
					c0.47-1.72,0.96-3.44,1.47-5.15c0.7-2.34,1.43-4.67,2.18-6.99c0.11-0.34,0.22-0.67,0.33-1.01c0.06-0.17-0.09-0.36-0.25-0.4
					c-0.19-0.04-0.34,0.08-0.4,0.25c-0.79,2.38-1.55,4.77-2.27,7.17c-0.53,1.77-1.05,3.55-1.54,5.34c-0.34,1.25-0.68,2.5-1.01,3.74
					c-0.21,0.79-0.41,1.57-0.66,2.35c-0.04,0.13-0.09,0.27-0.13,0.4c-0.01,0.03-0.02,0.06-0.03,0.08c0,0.01-0.01,0.03-0.01,0.04
					c-0.02,0.06,0.03-0.08,0.01-0.02c-0.02,0.05-0.04,0.1-0.06,0.16c-0.07,0.16-0.16,0.31-0.24,0.47c-0.03,0.05,0.07-0.08,0.02-0.02
					c-0.01,0.01-0.02,0.03-0.03,0.04C35.7,75.65,36.18,76.11,36.46,75.79L36.46,75.79z"/>
			</g>
			<g>
				<path d="M42.59,55.73c0.01-0.03,0.02-0.05,0.03-0.08c0.01-0.02,0.01-0.03,0.02-0.05c0.01-0.04-0.03,0.09-0.01,0.01
					c0.04-0.09,0.07-0.19,0.11-0.28c0.11-0.27,0.21-0.54,0.32-0.81c0.31-0.78,0.63-1.56,0.95-2.34c0.69-1.69,1.38-3.38,2.06-5.07
					c0.21-0.52,0.43-1.04,0.62-1.57c0.06-0.17-0.09-0.36-0.25-0.4c-0.19-0.04-0.34,0.08-0.4,0.25c-0.01,0.03-0.02,0.05-0.03,0.08
					C46,45.49,46,45.5,45.99,45.52c-0.01,0.04,0.03-0.09,0.01-0.01c-0.04,0.09-0.07,0.19-0.11,0.28c-0.11,0.27-0.21,0.54-0.32,0.81
					c-0.31,0.78-0.63,1.56-0.95,2.34c-0.69,1.69-1.38,3.38-2.06,5.07c-0.21,0.52-0.43,1.04-0.62,1.57c-0.06,0.17,0.09,0.36,0.25,0.4
					C42.38,56.02,42.53,55.9,42.59,55.73L42.59,55.73z"/>
			</g>
			<g>
				<path d="M46.69,45.54c1.36-3.89,2.58-7.83,3.89-11.74c0.66-1.97,1.36-3.92,2.03-5.89c0.54-1.58,1.13-3.13,1.75-4.68
					c0.69-1.73,1.41-3.47,1.96-5.25c0.13-0.41-0.52-0.56-0.65-0.15c-0.96,3.15-2.43,6.12-3.47,9.24c-0.66,1.97-1.37,3.94-2.04,5.91
					c-0.66,1.94-1.29,3.9-1.93,5.85c-0.72,2.2-1.43,4.39-2.2,6.57c-0.06,0.17,0.09,0.36,0.25,0.4
					C46.48,45.84,46.63,45.71,46.69,45.54L46.69,45.54z"/>
			</g>
			<g>
				<path d="M58.06,11.65c-0.08,0.15-0.26,0.21-0.41,0.15c-0.17-0.07-0.26-0.26-0.19-0.43c0.17-0.42-0.35-0.99-1.21-1.33
					c-0.81-0.32-1.66,0.01-1.85,0.5c-0.07,0.17-0.26,0.26-0.43,0.19c-0.17-0.07-0.26-0.26-0.19-0.43c0.31-0.79,1.5-1.35,2.71-0.87
					c1.25,0.49,1.9,1.39,1.58,2.19C58.07,11.63,58.07,11.64,58.06,11.65z"/>
			</g>
			
				<linearGradient id="SVGID_00000062182136268791660540000009156360688904752004_" gradientUnits="userSpaceOnUse" x1="-364.1983" y1="-218.8601" x2="-361.0903" y2="-226.3388" gradientTransform="matrix(0.474 -0.8805 -0.8805 -0.474 46.1325 -389.8306)">
				<stop  offset="0" style="stop-color:#000000"/>
				<stop  offset="1" style="stop-color:#BCBCBC;stop-opacity:0"/>
			</linearGradient>
			<path style="fill:url(#SVGID_00000062182136268791660540000009156360688904752004_);" d="M72.46,24.21
				c1.07,3.85,1.02,8.28,0.49,12.04c-0.25,1.77-0.67,3.51-0.88,5.28c-0.31,2.58-0.15,5.2,0.02,7.8c0.03-1.73,1.93-2.79,2.62-4.37
				c0.32-0.74,0.37-1.56,0.45-2.36c0.3-3.04,1.15-5.98,1.92-8.94c0.16-0.63,0.33-1.29,0.2-1.93c-0.09-0.48-0.34-0.91-0.55-1.35
				c-0.77-1.61-1.05-3.41-1.17-5.2c-0.04-0.63-0.06-1.28,0.15-1.87c0.21-0.6,0.7-1.13,1.32-1.22c-0.94,0.13-1.84-0.42-2.7-0.71
				c-1.06-0.37-2.02-0.26-3.12-0.37C71.74,22.01,72.15,23.08,72.46,24.21z"/>
			
				<linearGradient id="SVGID_00000003083015476628536180000000691086988559473033_" gradientUnits="userSpaceOnUse" x1="-419.6008" y1="-241.8252" x2="-397.0725" y2="-244.9418" gradientTransform="matrix(0.474 -0.8805 -0.8805 -0.474 46.1325 -389.8306)">
				<stop  offset="0" style="stop-color:#000000"/>
				<stop  offset="1" style="stop-color:#BCBCBC;stop-opacity:0"/>
			</linearGradient>
			<path style="fill:url(#SVGID_00000003083015476628536180000000691086988559473033_);" d="M71.18,84.07
				c3.04,1.83,6.06,3.7,8.93,5.79c0.1-2,0.02-4.01-0.25-6c-0.08-0.62-0.21-1.28-0.66-1.71c-0.51-0.49-1.29-0.55-1.87-0.93
				c-0.76-0.5-1.09-1.44-1.34-2.31c-0.48-1.69-0.88-3.42-1.14-5.16c-0.18-1.16-0.93-2.72,0.25-3.61c0.24-0.18,0.52-0.3,0.71-0.53
				c0.23-0.28,0.27-0.66,0.3-1.02c0.27-2.91,0.53-5.89-0.26-8.7c-0.13-0.45-0.29-0.91-0.6-1.27s-0.8-0.59-1.26-0.48
				c-0.61,0.15-0.93,0.79-1.14,1.38c-0.52,1.41-0.9,2.89-1.67,4.17c-0.89,1.48-2.2,2.21-3.79,2.71c-1.37,0.43-3.04,0.3-4.25,1.16
				c-0.84,0.6-1.27,1.62-1.56,2.61c-0.39,1.34-0.6,2.75-1.25,3.98c-0.75,1.42-2.01,2.48-3.24,3.5c0.83,0.5,1.89,0.67,2.81,0.94
				c1.36,0.39,2.68,0.93,3.97,1.51C66.39,81.24,68.8,82.64,71.18,84.07z"/>
			<g>
				<path class="st14" d="M62.55,26.22c0.38,0.06,0.76,0.12,1.13,0.18c-0.82,2.15-1.62,4.31-2.43,6.45
					c-0.39-0.08-0.78-0.15-1.17-0.22C60.89,30.5,61.71,28.35,62.55,26.22z"/>
				<path class="st14" d="M67.64,31.97c-0.1,0.38-0.11,0.71-0.01,0.99c0.18,0.52,0.7,0.88,1.53,1.1c0.37,0.09,0.72,0.13,1.05,0.11
					c0.64-0.04,1.04-0.3,1.19-0.8c0.11-0.37,0.07-0.67-0.12-0.89c-0.2-0.22-0.54-0.45-1.03-0.7c-0.3-0.15-0.61-0.3-0.92-0.44
					c-0.6-0.29-1.02-0.54-1.24-0.76c-0.38-0.39-0.48-0.85-0.3-1.41c0.2-0.6,0.59-1.05,1.16-1.35c0.57-0.3,1.26-0.38,2.06-0.21
					c0.73,0.15,1.3,0.46,1.71,0.93c0.41,0.47,0.52,1.12,0.31,1.91c-0.3-0.07-0.6-0.15-0.91-0.22c0.06-0.39,0.03-0.7-0.07-0.94
					c-0.19-0.43-0.61-0.72-1.3-0.87c-0.56-0.12-1-0.09-1.32,0.09s-0.53,0.42-0.62,0.72c-0.1,0.33-0.03,0.61,0.22,0.83
					c0.17,0.14,0.57,0.37,1.2,0.67c0.31,0.15,0.63,0.31,0.93,0.46c0.45,0.22,0.77,0.46,0.98,0.71c0.35,0.44,0.44,0.97,0.26,1.59
					c-0.23,0.76-0.68,1.22-1.37,1.39c-0.68,0.16-1.42,0.14-2.21-0.07c-0.92-0.24-1.59-0.63-1.98-1.18c-0.39-0.54-0.46-1.17-0.2-1.88
					C66.98,31.81,67.32,31.89,67.64,31.97z"/>
				<path class="st14" d="M76.04,28.9c-0.3,1.55-0.65,3.06-1.04,4.52c-0.14,0.52-0.16,0.97-0.07,1.36c0.14,0.59,0.54,0.99,1.2,1.2
					c0.79,0.25,1.4,0.14,1.83-0.33c0.23-0.26,0.41-0.65,0.54-1.19c0.36-1.52,0.66-3.1,0.9-4.74c0.29,0.07,0.58,0.15,0.87,0.22
					c-0.2,1.51-0.46,2.97-0.77,4.38c-0.2,0.92-0.49,1.58-0.83,1.99c-0.64,0.74-1.54,0.9-2.7,0.53c-1.17-0.37-1.85-1.03-2.03-1.99
					c-0.1-0.53-0.02-1.22,0.21-2.09c0.36-1.32,0.68-2.68,0.97-4.07C75.43,28.76,75.73,28.83,76.04,28.9z"/>
				<path class="st14" d="M81.63,30.31c0.92,0.25,1.84,0.5,2.74,0.76c0.53,0.15,0.95,0.5,1.23,1.04c0.29,0.54,0.39,1.21,0.3,1.98
					c-0.08,0.66-0.31,1.18-0.69,1.54c-0.37,0.37-0.88,0.43-1.5,0.22c-0.65-0.22-1.3-0.45-1.96-0.66c-0.22,1.09-0.47,2.14-0.75,3.16
					c-0.29-0.1-0.58-0.21-0.88-0.31C80.8,35.62,81.31,33.07,81.63,30.31z M84.73,32.39c-0.17-0.18-0.41-0.31-0.73-0.4
					c-0.54-0.16-1.09-0.32-1.65-0.48c-0.12,0.95-0.26,1.88-0.43,2.79c0.56,0.18,1.12,0.36,1.68,0.55c0.38,0.13,0.7,0.12,0.96-0.01
					c0.26-0.13,0.44-0.47,0.51-1.02C85.15,33.19,85.03,32.71,84.73,32.39z"/>
				<path class="st14" d="M87.26,31.92c0.88,0.27,1.76,0.55,2.64,0.84c0.52,0.17,0.93,0.55,1.22,1.14s0.41,1.32,0.33,2.14
					c-0.07,0.71-0.29,1.26-0.64,1.65c-0.36,0.39-0.83,0.46-1.43,0.22c-0.62-0.24-1.24-0.48-1.87-0.72c-0.19,1.16-0.43,2.28-0.7,3.36
					c-0.27-0.11-0.55-0.22-0.82-0.33C86.62,37.7,87.06,34.95,87.26,31.92z M90.28,34.2c-0.17-0.19-0.4-0.34-0.71-0.45
					c-0.53-0.18-1.05-0.36-1.58-0.53c-0.08,1.04-0.2,2.05-0.34,3.02c0.54,0.2,1.07,0.39,1.6,0.6c0.36,0.14,0.66,0.14,0.92,0
					c0.25-0.14,0.41-0.5,0.47-1.09C90.7,35.08,90.58,34.56,90.28,34.2z"/>
				<path class="st14" d="M97.35,37.01c0.32,1.05,0.41,2.25,0.24,3.53c-0.19,1.38-0.62,2.36-1.23,2.99c-0.72,0.74-1.56,0.84-2.5,0.4
					c-0.88-0.42-1.47-1.14-1.81-2.2c-0.28-1.01-0.31-2.13-0.13-3.44c0.17-1.19,0.46-2.18,0.92-2.95c0.58-0.99,1.34-1.36,2.32-0.98
					C96.18,34.75,96.93,35.66,97.35,37.01z M95.89,42.61c0.45-0.59,0.75-1.39,0.9-2.41c0.15-1.08,0.06-2.08-0.24-2.94
					c-0.3-0.86-0.77-1.42-1.39-1.67c-0.6-0.24-1.11-0.07-1.54,0.46s-0.71,1.43-0.88,2.65c-0.14,0.98-0.12,1.84,0.08,2.62
					c0.2,0.78,0.65,1.33,1.37,1.67C94.87,43.31,95.44,43.2,95.89,42.61z"/>
				<path class="st14" d="M99.03,36.25c0.88,0.39,1.76,0.79,2.64,1.22c0.43,0.21,0.78,0.5,1.05,0.88c0.5,0.72,0.71,1.69,0.57,2.84
					c-0.07,0.6-0.21,1.04-0.4,1.33s-0.43,0.48-0.72,0.56c0.2,0.27,0.33,0.55,0.4,0.85s0.06,0.72-0.03,1.25
					c-0.07,0.41-0.15,0.81-0.23,1.2c-0.07,0.34-0.11,0.59-0.12,0.76c-0.02,0.3,0.01,0.51,0.11,0.65c-0.02,0.06-0.03,0.13-0.05,0.19
					c-0.3-0.17-0.61-0.34-0.91-0.51c-0.01-0.09,0-0.19,0.01-0.31c0.01-0.12,0.06-0.35,0.13-0.69c0.1-0.49,0.19-0.98,0.28-1.48
					c0.1-0.59,0.04-1.07-0.17-1.4c-0.12-0.19-0.33-0.36-0.64-0.52c-0.56-0.29-1.13-0.58-1.69-0.86c-0.21,1.31-0.47,2.55-0.77,3.74
					c-0.25-0.13-0.5-0.26-0.76-0.39C98.41,42.81,98.88,39.75,99.03,36.25z M101.13,42.03c0.35,0.18,0.64,0.2,0.88,0.06
					s0.4-0.53,0.48-1.19c0.08-0.71-0.02-1.28-0.29-1.7c-0.14-0.22-0.34-0.39-0.6-0.52c-0.62-0.3-1.24-0.6-1.86-0.88
					c-0.08,1.17-0.2,2.29-0.35,3.36C99.98,41.45,100.56,41.74,101.13,42.03z"/>
				<path class="st14" d="M108.81,41.35c-0.04,0.42-0.09,0.84-0.14,1.25c-0.64-0.39-1.27-0.77-1.91-1.14
					c-0.33,3.06-0.88,5.76-1.57,8.22c-0.25-0.15-0.49-0.29-0.74-0.44c0.68-2.46,1.22-5.17,1.54-8.23c-0.64-0.36-1.28-0.71-1.93-1.05
					c0.04-0.41,0.07-0.83,0.1-1.26C105.71,39.52,107.27,40.4,108.81,41.35z"/>
				<path class="st14" d="M115.5,45.89c-0.07,0.4-0.13,0.8-0.2,1.19c-0.61-0.46-1.23-0.9-1.85-1.34c-0.49,2.94-1.14,5.56-1.88,7.97
					c-0.24-0.16-0.49-0.32-0.73-0.48c0.74-2.42,1.38-5.05,1.85-8.02c-0.62-0.43-1.25-0.85-1.88-1.26c0.06-0.41,0.11-0.82,0.16-1.24
					C112.5,43.71,114.02,44.77,115.5,45.89z"/>
				<path class="st14" d="M116.21,46.43c0.25,0.19,0.5,0.38,0.75,0.58c-0.24,1.37-0.51,2.67-0.81,3.91
					c0.91,0.68,1.82,1.38,2.72,2.09c0.3-1.2,0.59-2.44,0.86-3.75c0.24,0.2,0.48,0.41,0.73,0.62c-0.65,3.12-1.42,5.91-2.24,8.49
					c-0.24-0.18-0.49-0.35-0.73-0.53c0.38-1.22,0.76-2.48,1.11-3.81c-0.9-0.7-1.81-1.38-2.72-2.06c-0.35,1.37-0.73,2.67-1.12,3.92
					c-0.24-0.17-0.48-0.34-0.73-0.51C114.88,52.7,115.64,49.77,116.21,46.43z"/>
				<path class="st14" d="M121.65,50.92c1.27,1.12,2.51,2.26,3.75,3.43c-0.08,0.34-0.16,0.68-0.24,1.02
					c-1.02-0.93-2.04-1.85-3.07-2.75c-0.21,0.89-0.43,1.76-0.65,2.6c0.96,0.79,1.91,1.58,2.86,2.39c-0.08,0.31-0.16,0.61-0.24,0.91
					c-0.96-0.8-1.92-1.58-2.88-2.35c-0.25,0.92-0.51,1.82-0.77,2.69c1.07,0.81,2.15,1.63,3.25,2.47c-0.08,0.3-0.16,0.59-0.24,0.88
					c-1.35-1.01-2.68-1.99-3.99-2.96C120.22,56.7,120.99,53.97,121.65,50.92z"/>
				<path class="st14" d="M66.89,39.19c0.56,0.89,0.69,1.78,0.42,2.65c-0.51-0.15-1.03-0.29-1.55-0.43
					c0.09-0.69-0.05-1.29-0.43-1.81c-0.38-0.51-1.06-0.89-2.05-1.13c-1.21-0.29-2.35-0.17-3.39,0.36c-1.04,0.52-1.85,1.5-2.41,2.91
					c-0.47,1.16-0.5,2.17-0.13,3.04c0.37,0.87,1.2,1.46,2.48,1.78C61,46.85,62.05,46.7,63,46.11c0.5-0.31,0.98-0.77,1.43-1.38
					c0.52,0.14,1.03,0.29,1.53,0.44c-0.61,1-1.47,1.74-2.55,2.23c-1.31,0.59-2.73,0.68-4.31,0.29c-1.37-0.34-2.4-0.96-3.08-1.87
					c-0.9-1.2-1.01-2.75-0.26-4.67c0.57-1.46,1.55-2.56,2.93-3.29c1.5-0.8,3.2-1,5.04-0.56C65.29,37.66,66.33,38.3,66.89,39.19z"/>
				<path class="st14" d="M72.31,39.96c-0.81,2.11-1.71,4.15-2.67,6.17c-0.34,0.71-0.48,1.36-0.42,1.93
					c0.08,0.86,0.63,1.47,1.64,1.83c1.21,0.43,2.21,0.35,3.03-0.26c0.44-0.33,0.85-0.85,1.2-1.56c1.01-2.02,1.94-4.08,2.75-6.22
					c0.47,0.17,0.94,0.35,1.4,0.52c-0.74,1.96-1.58,3.84-2.49,5.69c-0.6,1.21-1.25,2.07-1.93,2.59c-1.24,0.94-2.7,1.08-4.46,0.45
					s-2.69-1.63-2.77-3.03c-0.04-0.77,0.22-1.76,0.79-2.97c0.86-1.85,1.66-3.7,2.39-5.61C71.29,39.64,71.8,39.8,72.31,39.96z"/>
				<path class="st14" d="M81.46,43.24c1.49,0.6,2.94,1.22,4.36,1.84c0.7,0.31,1.23,0.69,1.58,1.14c0.67,0.85,0.76,1.91,0.23,3.11
					c-0.28,0.62-0.62,1.07-1.03,1.34c-0.41,0.28-0.87,0.43-1.39,0.47c0.28,0.33,0.44,0.67,0.48,1.01c0.05,0.34-0.07,0.81-0.35,1.39
					c-0.22,0.45-0.44,0.89-0.67,1.34c-0.19,0.38-0.32,0.67-0.37,0.87c-0.1,0.35-0.08,0.61,0.06,0.8c-0.04,0.07-0.08,0.15-0.12,0.22
					c-0.49-0.25-0.99-0.5-1.49-0.74c0.01-0.1,0.03-0.23,0.08-0.37s0.17-0.41,0.37-0.8c0.27-0.56,0.55-1.11,0.81-1.67
					c0.31-0.65,0.32-1.19,0.03-1.61c-0.17-0.23-0.5-0.46-1-0.7c-0.93-0.43-1.87-0.85-2.82-1.27c-0.71,1.41-1.46,2.8-2.23,4.2
					c-0.43-0.19-0.86-0.38-1.3-0.56C78.48,49.99,80.15,46.78,81.46,43.24z M83.65,49.78c0.57,0.27,1.09,0.35,1.54,0.25
					c0.45-0.1,0.84-0.48,1.14-1.17c0.33-0.74,0.31-1.36-0.04-1.85c-0.19-0.26-0.49-0.48-0.91-0.67c-1-0.45-2.02-0.9-3.06-1.33
					c-0.48,1.19-1,2.35-1.54,3.48C81.75,48.92,82.7,49.35,83.65,49.78z"/>
				<path class="st14" d="M90.87,47.44c1.35,0.66,2.68,1.34,3.99,2.03c0.65,0.34,1.13,0.75,1.45,1.23c0.6,0.91,0.64,2.01,0.09,3.24
					c-0.29,0.64-0.63,1.09-1.03,1.37s-0.85,0.43-1.34,0.45c0.25,0.35,0.39,0.7,0.43,1.06c0.03,0.36-0.09,0.83-0.37,1.43
					c-0.22,0.45-0.44,0.91-0.66,1.36c-0.19,0.38-0.31,0.68-0.36,0.89c-0.1,0.35-0.08,0.63,0.05,0.82c-0.04,0.07-0.08,0.15-0.12,0.22
					c-0.47-0.27-0.95-0.54-1.42-0.81c0.01-0.11,0.03-0.23,0.08-0.38s0.17-0.42,0.36-0.81c0.27-0.56,0.54-1.12,0.81-1.69
					c0.32-0.66,0.34-1.22,0.08-1.65c-0.15-0.24-0.46-0.49-0.92-0.74c-0.86-0.47-1.72-0.93-2.59-1.39c-0.73,1.43-1.5,2.83-2.28,4.23
					c-0.39-0.21-0.79-0.42-1.19-0.63C87.73,54.38,89.5,51.15,90.87,47.44z M92.59,54.31c0.53,0.29,1.01,0.39,1.44,0.3
					s0.81-0.48,1.13-1.18c0.34-0.76,0.35-1.41,0.04-1.92c-0.17-0.27-0.45-0.52-0.83-0.72c-0.92-0.49-1.86-0.98-2.8-1.46
					c-0.5,1.24-1.04,2.42-1.61,3.58C90.85,53.37,91.72,53.84,92.59,54.31z"/>
				<path class="st14" d="M99.54,52.03c2.04,1.16,4.05,2.35,6.05,3.59c-0.18,0.47-0.37,0.94-0.56,1.39
					c-1.64-1.01-3.28-1.99-4.94-2.96c-0.47,1.13-0.96,2.21-1.46,3.27c1.53,0.9,3.05,1.81,4.58,2.75c-0.19,0.41-0.37,0.81-0.56,1.21
					c-1.54-0.94-3.07-1.86-4.6-2.76c-0.57,1.16-1.15,2.29-1.73,3.42c1.71,1.01,3.43,2.04,5.17,3.09c-0.19,0.4-0.37,0.8-0.56,1.21
					c-2.15-1.29-4.25-2.55-6.35-3.77C96.29,59.14,98.08,55.86,99.54,52.03z"/>
				<path class="st14" d="M107.18,56.6c0.44,0.28,0.88,0.55,1.32,0.84c0.17,3.97,0.29,7.64,0.77,11.37c1.06-2.8,2.24-5.61,3.38-8.68
					c0.36,0.24,0.72,0.48,1.09,0.72c-1.39,3.77-2.81,7.19-3.97,10.69c-0.49-0.29-0.97-0.58-1.45-0.86
					c-0.59-3.75-0.79-7.38-0.95-11.22c-1.24,2.96-2.53,5.68-3.69,8.44c-0.39-0.23-0.77-0.46-1.15-0.69
					C104.01,63.79,105.68,60.44,107.18,56.6z"/>
				<path class="st14" d="M122.02,66.37c-0.12,0.44-0.24,0.87-0.35,1.3c-1.06-0.68-2.09-1.35-3.1-2.01
					c-1.02,3.21-1.95,6.29-2.7,9.45c-0.48-0.28-0.95-0.55-1.42-0.82c0.82-3.14,1.82-6.21,2.9-9.43c-1-0.65-1.97-1.29-2.94-1.92
					c0.16-0.44,0.32-0.88,0.48-1.33C117.18,63.13,119.53,64.71,122.02,66.37z"/>
				<path class="st14" d="M66.11,53.74c-0.31,0.59-0.61,1.19-0.92,1.8c-1.72-0.59-3.48-1.15-5.3-1.69
					c-2.14,4.44-4.38,9.18-6.33,14.96c-0.71-0.32-1.42-0.64-2.13-0.96c1.97-5.57,4.15-10.22,6.21-14.64
					c-1.86-0.52-3.77-1.01-5.74-1.47c0.25-0.58,0.49-1.16,0.74-1.74C57.48,51.08,61.95,52.33,66.11,53.74z"/>
				<path class="st14" d="M68.06,54.42c0.69,0.25,1.37,0.5,2.04,0.75c-1.09,2.05-2.19,4.19-3.24,6.5c2.51,0.98,4.94,2,7.33,3.07
					c1-2.35,2.09-4.49,3.19-6.54c0.62,0.28,1.24,0.57,1.85,0.86c-2.66,4.96-5.21,10.44-6.36,18.29c-0.69-0.31-1.39-0.61-2.09-0.92
					c0.61-3.64,1.51-6.78,2.57-9.59c-2.42-1.08-4.87-2.11-7.39-3.11c-1.15,2.75-2.21,5.77-3.07,9.23c-0.7-0.31-1.41-0.62-2.11-0.93
					C62.73,64.78,65.46,59.4,68.06,54.42z"/>
				<path class="st14" d="M82.5,60.66c0.6,0.3,1.19,0.61,1.79,0.92c-2.58,4.95-4.9,10.46-5.61,18.35c-0.69-0.31-1.38-0.62-2.07-0.93
					C77.47,71.11,79.88,65.61,82.5,60.66z"/>
				<path class="st14" d="M87.13,63.09c0.68,0.37,1.37,0.75,2.05,1.13c0.13,5.19,0.82,10.89,2.88,17.66
					c0.42-5.51,1.78-9.91,3.55-13.97c0.56,0.33,1.13,0.66,1.69,0.99c-2.1,5.04-3.54,10.62-3.42,18.02c-0.77-0.36-1.53-0.72-2.3-1.08
					c-2.61-7.28-3.79-13.46-4.16-18.88c-1.82,4.23-3.2,9.05-3.47,15.35c-0.65-0.3-1.3-0.59-1.95-0.89
					C82.47,73.56,84.61,68.05,87.13,63.09z"/>
				<path class="st14" d="M109.52,76.58c1.27,1.68,1.91,3.68,1.93,6.05c-0.73-0.4-1.45-0.8-2.16-1.2c-0.05-1.36-0.39-2.51-1.03-3.48
					s-1.51-1.78-2.63-2.43c-1.32-0.76-2.57-0.85-3.76-0.25c-1.19,0.61-2.1,2.02-2.51,4.44c-0.35,2.09-0.12,4.14,0.59,6
					c0.72,1.86,2.01,3.26,3.8,4.16c1.38,0.69,2.54,0.76,3.51,0.27c0.98-0.49,1.56-1.78,1.79-3.81c-1.7-0.92-3.36-1.82-4.98-2.7
					c0.08-0.67,0.16-1.32,0.26-1.97c2.25,1.25,4.58,2.53,7,3.85c-0.37,3.04-0.61,6.21-0.8,9.47c-0.46-0.23-0.92-0.45-1.38-0.68
					c-0.14-0.88-0.28-1.77-0.41-2.64c-0.77,0.56-1.42,0.91-1.97,1.01c-0.93,0.19-2.07-0.03-3.46-0.69
					c-1.79-0.85-3.36-2.39-4.63-4.61c-1.38-2.66-1.92-5.67-1.39-8.64c0.54-2.96,1.85-4.71,3.59-5.55c1.67-0.79,3.43-0.61,5.35,0.51
					C107.56,74.45,108.64,75.42,109.52,76.58z"/>
				<path class="st14" d="M114.6,94.27c0.79,0.4,1.59,0.81,2.39,1.22c-0.12,0.83-0.25,1.65-0.4,2.47c-0.77-0.38-1.53-0.76-2.29-1.14
					C114.41,95.97,114.5,95.12,114.6,94.27z"/>
			</g>
			<g>
				<path class="st15" d="M62.3,25.82c0.38,0.06,0.76,0.12,1.13,0.18c-0.82,2.15-1.62,4.31-2.43,6.45
					c-0.39-0.08-0.78-0.15-1.17-0.22C60.65,30.1,61.46,27.95,62.3,25.82z"/>
				<path class="st15" d="M67.39,31.56c-0.1,0.38-0.11,0.71-0.01,0.99c0.18,0.52,0.7,0.88,1.53,1.1c0.37,0.09,0.72,0.13,1.05,0.11
					c0.64-0.04,1.04-0.3,1.19-0.8c0.11-0.37,0.07-0.67-0.12-0.89c-0.2-0.22-0.54-0.45-1.03-0.7c-0.3-0.15-0.61-0.3-0.92-0.44
					c-0.6-0.29-1.02-0.54-1.24-0.76c-0.38-0.39-0.48-0.85-0.3-1.41c0.2-0.6,0.59-1.05,1.16-1.35c0.57-0.3,1.26-0.38,2.06-0.21
					c0.73,0.15,1.3,0.46,1.71,0.93c0.41,0.47,0.52,1.12,0.31,1.91c-0.3-0.07-0.6-0.15-0.91-0.22c0.06-0.39,0.03-0.7-0.07-0.94
					c-0.19-0.43-0.61-0.72-1.3-0.87c-0.56-0.12-1-0.09-1.32,0.09s-0.53,0.42-0.62,0.72c-0.1,0.33-0.03,0.61,0.22,0.83
					c0.17,0.14,0.57,0.37,1.2,0.67c0.31,0.15,0.63,0.31,0.93,0.46c0.45,0.22,0.77,0.46,0.98,0.71c0.35,0.44,0.44,0.97,0.26,1.59
					c-0.23,0.76-0.68,1.22-1.37,1.39c-0.68,0.16-1.42,0.14-2.21-0.07c-0.92-0.24-1.59-0.63-1.98-1.18c-0.39-0.54-0.46-1.17-0.2-1.88
					C66.74,31.41,67.07,31.49,67.39,31.56z"/>
				<path class="st15" d="M75.79,28.5c-0.3,1.55-0.65,3.06-1.04,4.52c-0.14,0.52-0.16,0.97-0.07,1.36c0.14,0.59,0.54,0.99,1.2,1.2
					c0.79,0.25,1.4,0.14,1.83-0.33c0.23-0.26,0.41-0.65,0.54-1.19c0.36-1.52,0.66-3.1,0.9-4.74c0.29,0.07,0.58,0.15,0.87,0.22
					c-0.2,1.51-0.46,2.97-0.77,4.38c-0.2,0.92-0.49,1.58-0.83,1.99c-0.64,0.74-1.54,0.9-2.7,0.53c-1.17-0.37-1.85-1.03-2.03-1.99
					c-0.1-0.53-0.02-1.22,0.21-2.09c0.36-1.32,0.68-2.68,0.97-4.07C75.18,28.35,75.48,28.43,75.79,28.5z"/>
				<path class="st15" d="M81.39,29.9c0.92,0.25,1.84,0.5,2.74,0.76c0.53,0.15,0.95,0.5,1.23,1.04c0.29,0.54,0.39,1.21,0.3,1.98
					c-0.08,0.66-0.31,1.18-0.69,1.54c-0.37,0.37-0.88,0.43-1.5,0.22c-0.65-0.22-1.3-0.45-1.96-0.66c-0.22,1.09-0.47,2.14-0.75,3.16
					c-0.29-0.1-0.58-0.21-0.88-0.31C80.55,35.22,81.06,32.66,81.39,29.9z M84.48,31.98c-0.17-0.18-0.41-0.31-0.73-0.4
					c-0.54-0.16-1.09-0.32-1.65-0.48c-0.12,0.95-0.26,1.88-0.43,2.79c0.56,0.18,1.12,0.36,1.68,0.55c0.38,0.13,0.7,0.12,0.96-0.01
					c0.26-0.13,0.44-0.47,0.51-1.02C84.9,32.79,84.78,32.31,84.48,31.98z"/>
				<path class="st15" d="M87.01,31.51c0.88,0.27,1.76,0.55,2.64,0.84c0.52,0.17,0.93,0.55,1.22,1.14s0.41,1.32,0.33,2.14
					c-0.07,0.71-0.29,1.26-0.64,1.65c-0.36,0.39-0.83,0.46-1.43,0.22c-0.62-0.24-1.24-0.48-1.87-0.72c-0.19,1.16-0.43,2.28-0.7,3.36
					c-0.27-0.11-0.55-0.22-0.82-0.33C86.37,37.3,86.81,34.55,87.01,31.51z M90.03,33.8c-0.17-0.19-0.4-0.34-0.71-0.45
					c-0.53-0.18-1.05-0.36-1.58-0.53c-0.08,1.04-0.2,2.05-0.34,3.02c0.54,0.2,1.07,0.39,1.6,0.6c0.36,0.14,0.66,0.14,0.92,0
					c0.25-0.14,0.41-0.5,0.47-1.09C90.45,34.68,90.33,34.16,90.03,33.8z"/>
				<path class="st15" d="M97.1,36.61c0.32,1.05,0.41,2.25,0.24,3.53c-0.19,1.38-0.62,2.36-1.23,2.99c-0.72,0.74-1.56,0.84-2.5,0.4
					c-0.88-0.42-1.47-1.14-1.81-2.2c-0.28-1.01-0.31-2.13-0.13-3.44c0.17-1.19,0.46-2.18,0.92-2.95c0.58-0.99,1.34-1.36,2.32-0.98
					C95.93,34.35,96.68,35.26,97.1,36.61z M95.64,42.21c0.45-0.59,0.75-1.39,0.9-2.41c0.15-1.08,0.06-2.08-0.24-2.94
					c-0.3-0.86-0.77-1.42-1.39-1.67c-0.6-0.24-1.11-0.07-1.54,0.46s-0.71,1.43-0.88,2.65c-0.14,0.98-0.12,1.84,0.08,2.62
					c0.2,0.78,0.65,1.33,1.37,1.67C94.62,42.91,95.19,42.79,95.64,42.21z"/>
				<path class="st15" d="M98.78,35.84c0.88,0.39,1.76,0.79,2.64,1.22c0.43,0.21,0.78,0.5,1.05,0.88c0.5,0.72,0.71,1.69,0.57,2.84
					c-0.07,0.6-0.21,1.04-0.4,1.33s-0.43,0.48-0.72,0.56c0.2,0.27,0.33,0.55,0.4,0.85s0.06,0.72-0.03,1.25
					c-0.07,0.41-0.15,0.81-0.23,1.2c-0.07,0.34-0.11,0.59-0.12,0.76c-0.02,0.3,0.01,0.51,0.11,0.65c-0.02,0.06-0.03,0.13-0.05,0.19
					c-0.3-0.17-0.61-0.34-0.91-0.51c-0.01-0.09,0-0.19,0.01-0.31c0.01-0.12,0.06-0.35,0.13-0.69c0.1-0.49,0.19-0.98,0.28-1.48
					c0.1-0.59,0.04-1.07-0.17-1.4c-0.12-0.19-0.33-0.36-0.64-0.52c-0.56-0.29-1.13-0.58-1.69-0.86c-0.21,1.31-0.47,2.55-0.77,3.74
					c-0.25-0.13-0.5-0.26-0.76-0.39C98.16,42.41,98.63,39.35,98.78,35.84z M100.88,41.63c0.35,0.18,0.64,0.2,0.88,0.06
					s0.4-0.53,0.48-1.19c0.08-0.71-0.02-1.28-0.29-1.7c-0.14-0.22-0.34-0.39-0.6-0.52c-0.62-0.3-1.24-0.6-1.86-0.88
					c-0.08,1.17-0.2,2.29-0.35,3.36C99.73,41.05,100.31,41.33,100.88,41.63z"/>
				<path class="st15" d="M108.56,40.94c-0.04,0.42-0.09,0.84-0.14,1.25c-0.64-0.39-1.27-0.77-1.91-1.14
					c-0.33,3.06-0.88,5.76-1.57,8.22c-0.25-0.15-0.49-0.29-0.74-0.44c0.68-2.46,1.22-5.17,1.54-8.23c-0.64-0.36-1.28-0.71-1.93-1.05
					c0.04-0.41,0.07-0.83,0.1-1.26C105.46,39.12,107.02,40,108.56,40.94z"/>
				<path class="st15" d="M115.25,45.49c-0.07,0.4-0.13,0.8-0.2,1.19c-0.61-0.46-1.23-0.9-1.85-1.34c-0.49,2.94-1.14,5.56-1.88,7.97
					c-0.24-0.16-0.49-0.32-0.73-0.48c0.74-2.42,1.38-5.05,1.85-8.02c-0.62-0.43-1.25-0.85-1.88-1.26c0.06-0.41,0.11-0.82,0.16-1.24
					C112.25,43.31,113.77,44.37,115.25,45.49z"/>
				<path class="st15" d="M115.96,46.02c0.25,0.19,0.5,0.38,0.75,0.58c-0.24,1.37-0.51,2.67-0.81,3.91
					c0.91,0.68,1.82,1.38,2.72,2.09c0.3-1.2,0.59-2.44,0.86-3.75c0.24,0.2,0.48,0.41,0.73,0.62c-0.65,3.12-1.42,5.91-2.24,8.49
					c-0.24-0.18-0.49-0.35-0.73-0.53c0.38-1.22,0.76-2.48,1.11-3.81c-0.9-0.7-1.81-1.38-2.72-2.06c-0.35,1.37-0.73,2.67-1.12,3.92
					c-0.24-0.17-0.48-0.34-0.73-0.51C114.63,52.3,115.39,49.37,115.96,46.02z"/>
				<path class="st15" d="M121.4,50.52c1.27,1.12,2.51,2.26,3.75,3.43c-0.08,0.34-0.16,0.68-0.24,1.02
					c-1.02-0.93-2.04-1.85-3.07-2.75c-0.21,0.89-0.43,1.76-0.65,2.6c0.96,0.79,1.91,1.58,2.86,2.39c-0.08,0.31-0.16,0.61-0.24,0.91
					c-0.96-0.8-1.92-1.58-2.88-2.35c-0.25,0.92-0.51,1.82-0.77,2.69c1.07,0.81,2.15,1.63,3.25,2.47c-0.08,0.3-0.16,0.59-0.24,0.88
					c-1.35-1.01-2.68-1.99-3.99-2.96C119.97,56.3,120.74,53.57,121.4,50.52z"/>
				<path class="st15" d="M66.64,38.79c0.56,0.89,0.69,1.78,0.42,2.65c-0.51-0.15-1.03-0.29-1.55-0.43
					c0.09-0.69-0.05-1.29-0.43-1.81c-0.38-0.51-1.06-0.89-2.05-1.13c-1.21-0.29-2.35-0.17-3.39,0.36c-1.04,0.52-1.85,1.5-2.41,2.91
					c-0.47,1.16-0.5,2.17-0.13,3.04s1.2,1.46,2.48,1.78c1.18,0.29,2.23,0.15,3.18-0.45c0.5-0.31,0.98-0.77,1.43-1.38
					c0.52,0.14,1.03,0.29,1.53,0.44c-0.61,1-1.47,1.74-2.55,2.23c-1.31,0.59-2.73,0.68-4.31,0.29c-1.37-0.34-2.4-0.96-3.08-1.87
					c-0.9-1.2-1.01-2.75-0.26-4.67c0.57-1.46,1.55-2.56,2.93-3.29c1.5-0.8,3.2-1,5.04-0.56C65.04,37.25,66.08,37.9,66.64,38.79z"/>
				<path class="st15" d="M72.06,39.56c-0.81,2.11-1.71,4.15-2.67,6.17c-0.34,0.71-0.48,1.36-0.42,1.93
					c0.08,0.86,0.63,1.47,1.64,1.83c1.21,0.43,2.21,0.35,3.03-0.26c0.44-0.33,0.85-0.85,1.2-1.56c1.01-2.02,1.94-4.08,2.75-6.22
					c0.47,0.17,0.94,0.35,1.4,0.52c-0.74,1.96-1.58,3.84-2.49,5.69c-0.6,1.21-1.25,2.07-1.93,2.59c-1.24,0.94-2.7,1.08-4.46,0.45
					s-2.69-1.63-2.77-3.03c-0.04-0.77,0.22-1.76,0.79-2.97c0.86-1.85,1.66-3.7,2.39-5.61C71.04,39.24,71.55,39.4,72.06,39.56z"/>
				<path class="st15" d="M81.21,42.84c1.49,0.6,2.94,1.22,4.36,1.84c0.7,0.31,1.23,0.69,1.58,1.14c0.67,0.85,0.76,1.91,0.23,3.11
					c-0.28,0.62-0.62,1.07-1.03,1.34c-0.41,0.28-0.87,0.43-1.39,0.47c0.28,0.33,0.44,0.67,0.48,1.01c0.05,0.34-0.07,0.81-0.35,1.39
					c-0.22,0.45-0.44,0.89-0.67,1.34c-0.19,0.38-0.32,0.67-0.37,0.87c-0.1,0.35-0.08,0.61,0.06,0.8c-0.04,0.07-0.08,0.15-0.12,0.22
					c-0.49-0.25-0.99-0.5-1.49-0.74c0.01-0.1,0.03-0.23,0.08-0.37s0.17-0.41,0.37-0.8c0.27-0.56,0.55-1.11,0.81-1.67
					c0.31-0.65,0.32-1.19,0.03-1.61c-0.17-0.23-0.5-0.46-1-0.7c-0.93-0.43-1.87-0.85-2.82-1.27c-0.71,1.41-1.46,2.8-2.23,4.2
					c-0.43-0.19-0.86-0.38-1.3-0.56C78.23,49.59,79.9,46.38,81.21,42.84z M83.4,49.38c0.57,0.27,1.09,0.35,1.54,0.25
					c0.45-0.1,0.84-0.48,1.14-1.17c0.33-0.74,0.31-1.36-0.04-1.85c-0.19-0.26-0.49-0.48-0.91-0.67c-1-0.45-2.02-0.9-3.06-1.33
					c-0.48,1.19-1,2.35-1.54,3.48C81.5,48.52,82.45,48.94,83.4,49.38z"/>
				<path class="st15" d="M90.62,47.04c1.35,0.66,2.68,1.34,3.99,2.03c0.65,0.34,1.13,0.75,1.45,1.23c0.6,0.91,0.64,2.01,0.09,3.24
					c-0.29,0.64-0.63,1.09-1.03,1.37s-0.85,0.43-1.34,0.45c0.25,0.35,0.39,0.7,0.43,1.06c0.03,0.36-0.09,0.83-0.37,1.43
					c-0.22,0.45-0.44,0.91-0.66,1.36c-0.19,0.38-0.31,0.68-0.36,0.89c-0.1,0.35-0.08,0.63,0.05,0.82c-0.04,0.07-0.08,0.15-0.12,0.22
					c-0.47-0.27-0.95-0.54-1.42-0.81c0.01-0.11,0.03-0.23,0.08-0.38s0.17-0.42,0.36-0.81c0.27-0.56,0.54-1.12,0.81-1.69
					c0.32-0.66,0.34-1.22,0.08-1.65c-0.15-0.24-0.46-0.49-0.92-0.74c-0.86-0.47-1.72-0.93-2.59-1.39c-0.73,1.43-1.5,2.83-2.28,4.23
					c-0.39-0.21-0.79-0.42-1.19-0.63C87.48,53.97,89.25,50.75,90.62,47.04z M92.35,53.91c0.53,0.29,1.01,0.39,1.44,0.3
					s0.81-0.48,1.13-1.18c0.34-0.76,0.35-1.41,0.04-1.92c-0.17-0.27-0.45-0.52-0.83-0.72c-0.92-0.49-1.86-0.98-2.8-1.46
					c-0.5,1.24-1.04,2.42-1.61,3.58C90.6,52.96,91.48,53.43,92.35,53.91z"/>
				<path class="st15" d="M99.29,51.63c2.04,1.16,4.05,2.35,6.05,3.59c-0.18,0.47-0.37,0.94-0.56,1.39
					c-1.64-1.01-3.28-1.99-4.94-2.96c-0.47,1.13-0.96,2.21-1.46,3.27c1.53,0.9,3.05,1.81,4.58,2.75c-0.19,0.41-0.37,0.81-0.56,1.21
					c-1.54-0.94-3.07-1.86-4.6-2.76c-0.57,1.16-1.15,2.29-1.73,3.42c1.71,1.01,3.43,2.04,5.17,3.09c-0.19,0.4-0.37,0.8-0.56,1.21
					c-2.15-1.29-4.25-2.55-6.35-3.77C96.04,58.74,97.83,55.46,99.29,51.63z"/>
				<path class="st15" d="M106.93,56.2c0.44,0.28,0.88,0.55,1.32,0.84c0.17,3.97,0.29,7.64,0.77,11.37c1.06-2.8,2.24-5.61,3.38-8.68
					c0.36,0.24,0.72,0.48,1.09,0.72c-1.39,3.77-2.81,7.19-3.97,10.69c-0.49-0.29-0.97-0.58-1.45-0.86
					c-0.59-3.75-0.79-7.38-0.95-11.22c-1.24,2.96-2.53,5.68-3.69,8.44c-0.39-0.23-0.77-0.46-1.15-0.69
					C103.76,63.39,105.43,60.04,106.93,56.2z"/>
				<path class="st15" d="M121.77,65.96c-0.12,0.44-0.24,0.87-0.35,1.3c-1.06-0.68-2.09-1.35-3.1-2.01
					c-1.02,3.21-1.95,6.29-2.7,9.45c-0.48-0.28-0.95-0.55-1.42-0.82c0.82-3.14,1.82-6.21,2.9-9.43c-1-0.65-1.97-1.29-2.94-1.92
					c0.16-0.44,0.32-0.88,0.48-1.33C116.93,62.73,119.28,64.31,121.77,65.96z"/>
				<path class="st15" d="M65.86,53.34c-0.31,0.59-0.61,1.19-0.92,1.8c-1.72-0.59-3.48-1.15-5.3-1.69
					c-2.14,4.44-4.38,9.18-6.33,14.96c-0.71-0.32-1.42-0.64-2.13-0.96c1.97-5.57,4.15-10.22,6.21-14.64
					c-1.86-0.52-3.77-1.01-5.74-1.47c0.25-0.58,0.49-1.16,0.74-1.74C57.23,50.68,61.7,51.93,65.86,53.34z"/>
				<path class="st15" d="M67.81,54.01c0.69,0.25,1.37,0.5,2.04,0.75c-1.09,2.05-2.19,4.19-3.24,6.5c2.51,0.98,4.94,2,7.33,3.07
					c1-2.35,2.09-4.49,3.19-6.54c0.62,0.28,1.24,0.57,1.85,0.86c-2.66,4.96-5.21,10.44-6.36,18.29c-0.69-0.31-1.39-0.61-2.09-0.92
					c0.61-3.64,1.51-6.78,2.57-9.59c-2.42-1.08-4.87-2.11-7.39-3.11c-1.15,2.75-2.21,5.77-3.07,9.23c-0.7-0.31-1.41-0.62-2.11-0.93
					C62.48,64.38,65.21,59,67.81,54.01z"/>
				<path class="st15" d="M82.25,60.25c0.6,0.3,1.19,0.61,1.79,0.92c-2.58,4.95-4.9,10.46-5.61,18.35
					c-0.69-0.31-1.38-0.62-2.07-0.93C77.22,70.7,79.63,65.21,82.25,60.25z"/>
				<path class="st15" d="M86.88,62.68c0.68,0.37,1.37,0.75,2.05,1.13c0.13,5.19,0.82,10.89,2.88,17.66
					c0.42-5.51,1.78-9.91,3.55-13.97c0.56,0.33,1.13,0.66,1.69,0.99c-2.1,5.04-3.54,10.62-3.42,18.02c-0.77-0.36-1.53-0.72-2.3-1.08
					c-2.61-7.28-3.79-13.46-4.16-18.88c-1.82,4.23-3.2,9.05-3.47,15.36c-0.65-0.3-1.3-0.59-1.95-0.89
					C82.22,73.16,84.36,67.64,86.88,62.68z"/>
				<path class="st15" d="M109.27,76.18c1.27,1.68,1.91,3.68,1.93,6.05c-0.73-0.4-1.45-0.8-2.16-1.2c-0.05-1.36-0.39-2.51-1.03-3.48
					s-1.51-1.78-2.63-2.43c-1.32-0.76-2.57-0.85-3.76-0.25c-1.19,0.61-2.1,2.02-2.51,4.44c-0.35,2.09-0.12,4.14,0.59,6
					c0.72,1.86,2.01,3.26,3.8,4.16c1.38,0.69,2.54,0.76,3.51,0.27c0.98-0.49,1.56-1.78,1.79-3.81c-1.7-0.92-3.36-1.82-4.98-2.7
					c0.08-0.67,0.16-1.32,0.26-1.97c2.25,1.25,4.58,2.53,7,3.85c-0.37,3.04-0.61,6.21-0.8,9.47c-0.46-0.23-0.92-0.45-1.38-0.68
					c-0.14-0.88-0.28-1.77-0.41-2.64c-0.77,0.56-1.42,0.91-1.97,1.01c-0.93,0.19-2.07-0.03-3.46-0.69
					c-1.79-0.85-3.36-2.39-4.63-4.61c-1.38-2.66-1.92-5.67-1.39-8.64c0.54-2.96,1.85-4.71,3.59-5.55c1.67-0.79,3.43-0.61,5.35,0.51
					C107.31,74.05,108.39,75.02,109.27,76.18z"/>
				<path class="st15" d="M114.35,93.87c0.79,0.4,1.59,0.81,2.39,1.22c-0.12,0.83-0.25,1.65-0.4,2.47
					c-0.77-0.38-1.53-0.76-2.29-1.14C114.16,95.57,114.26,94.72,114.35,93.87z"/>
			</g>
			
				<linearGradient id="SVGID_00000072980446711814415440000004438978646349084074_" gradientUnits="userSpaceOnUse" x1="-383.9261" y1="-287.503" x2="-381.3438" y2="-300.8597" gradientTransform="matrix(0.474 -0.8805 -0.8805 -0.474 46.1325 -389.8306)">
				<stop  offset="0" style="stop-color:#000000"/>
				<stop  offset="1" style="stop-color:#BCBCBC;stop-opacity:0"/>
			</linearGradient>
			<path style="fill:url(#SVGID_00000072980446711814415440000004438978646349084074_);" d="M125.15,104.14
				c-0.69-4.89-2.67-9.69-2.1-14.59c0.39,0.48,0.78,0.97,1.17,1.45c0.12,0.15,0.25,0.31,0.44,0.37c0.49,0.15,0.84-0.46,0.99-0.95
				c2.31-7.6,4.48-15.51,9.43-21.73c-1.11,2.56-2.23,5.12-3.34,7.68c-1.33,3.06-2.64,6.3-3.22,9.65c-0.63,3.6-0.52,7.47-0.69,11.12
				c-0.13,2.87-0.33,5.81-1.32,8.54c-0.21,0.57-0.4,1.25-0.74,1.75c-0.16,0.23-0.95,0.67-0.99,0.76
				C125.35,106.87,125.35,105.55,125.15,104.14z"/>
			<g>
				<path d="M35.03,76.54c0.42-0.03,0.79-0.09,1.12-0.37c0.09-0.07,0.21-0.17,0.27-0.27c0.11-0.18,0.02-0.12,0.13-0.12
					c0.31,0,0.66,0.07,0.99,0.07c0.73,0.01,1.48-0.02,2.21,0.1c0.4,0.07,0.8,0.13,1.19,0.19c1.48,0.22,2.98,0.41,4.47,0.57
					c2.43,0.26,4.87,0.42,7.29,0.72c2.29,0.28,4.56,0.72,6.77,1.41c2.88,0.91,5.63,2.2,8.28,3.64c4.07,2.2,7.94,4.75,11.75,7.37
					c2.64,1.82,5.25,3.69,7.84,5.59c2.83,2.08,5.59,4.28,8.53,6.2c2.92,1.91,6.07,3.43,9.53,4.03c1.69,0.29,3.41,0.43,5.11,0.68
					s3.35,0.66,4.98,1.22c1.68,0.58,3.32,1.25,5.01,1.78c0.76,0.24,1.56,0.52,2.36,0.56c0.69,0.03,1.27-0.26,1.78-0.71
					c2.49-2.17,2.96-5.88,3.26-8.96c0.31-3.27,0.36-6.56,0.62-9.84c0.27-3.44,0.85-6.82,2.03-10.07c1.24-3.42,2.86-6.7,4.37-10
					c1.53-3.36,3.05-6.71,4.58-10.07c0.76-1.66,1.51-3.32,2.27-4.98c0.1-0.21-0.01-0.41-0.22-0.48c-5.35-1.8-10.37-4.43-15.13-7.44
					c-2.32-1.47-4.62-2.98-6.77-4.69c-2-1.59-3.95-3.29-6.21-4.5c-1.18-0.64-2.41-1.18-3.58-1.84c-1.21-0.69-2.38-1.45-3.48-2.3
					c-2.13-1.63-3.99-3.63-6.32-5c-2.34-1.39-4.99-2.21-7.55-3.08c-2.57-0.86-5.17-1.67-7.78-2.4c-5.22-1.46-10.53-2.62-15.91-3.35
					c-1.35-0.18-2.72-0.28-4.05-0.55c-1.25-0.25-2.46-0.62-3.68-0.99c-1.22-0.37-2.44-0.73-3.7-0.95c-0.74-0.13-1.43-0.13-2.05-0.59
					c-0.41-0.3-0.83-0.54-1.31-0.68c-0.87-0.26-2.11-0.27-2.89,0.28c-0.45,0.32-0.52,0.97-0.67,1.46c-0.19,0.62-0.48,1.2-0.68,1.83
					c-0.4,1.27-0.93,2.53-1.38,3.78c-0.46,1.26-0.91,2.53-1.37,3.79c-0.44,1.21-0.89,2.41-1.33,3.62c-0.44,1.24-1.24,2.31-1.67,3.54
					c-0.21,0.6-0.29,1.24-0.43,1.86c-0.15,0.67-0.34,1.32-0.55,1.98c-0.41,1.31-0.91,2.59-1.38,3.87c-0.48,1.29-0.95,2.59-1.4,3.89
					c-0.47,1.37-0.89,2.76-1.48,4.09c-0.28,0.63-0.59,1.26-0.94,1.85c-0.3,0.52-0.63,1.02-0.81,1.6c-0.19,0.6-0.21,1.24-0.34,1.86
					c-0.13,0.64-0.33,1.26-0.55,1.87c-1.79,5.19-3.71,10.34-5.56,15.51c-0.29,0.81-1.1,2.11-0.12,2.74
					c0.27,0.17,0.52-0.14,0.48-0.39c0-0.01,0-0.02,0-0.02c-0.06-0.34-0.57-0.28-0.64,0.02c0,0.01,0,0.02-0.01,0.02
					c-0.1,0.42,0.55,0.57,0.65,0.15c0-0.01,0-0.02,0.01-0.02c-0.21,0.01-0.43,0.01-0.64,0.02c0,0.01,0,0.02,0,0.02
					c0.16-0.13,0.32-0.26,0.48-0.39c-0.38-0.25,0.34-1.69,0.46-2.01c0.23-0.63,0.46-1.27,0.68-1.9c0.45-1.24,0.9-2.48,1.34-3.73
					c0.92-2.54,1.85-5.07,2.74-7.61c0.42-1.21,0.9-2.42,1.23-3.67c0.15-0.59,0.21-1.19,0.32-1.79c0.12-0.67,0.44-1.23,0.78-1.81
					c1.38-2.32,2.08-4.92,2.99-7.44c0.9-2.51,1.95-5,2.67-7.57c0.34-1.23,0.46-2.52,1.05-3.67c0.3-0.59,0.65-1.15,0.91-1.75
					c0.25-0.56,0.44-1.15,0.63-1.73c0.18-0.55,0.46-1.06,0.65-1.61c0.2-0.6,0.42-1.2,0.64-1.8c0.46-1.28,0.92-2.55,1.38-3.83
					c0.43-1.19,0.88-2.37,1.29-3.57c0.2-0.59,0.47-1.15,0.65-1.75c0.12-0.39,0.21-0.77,0.64-0.92c0.33-0.11,0.67-0.17,1.02-0.18
					c0.53-0.01,1.06,0.11,1.53,0.35c0.51,0.26,0.89,0.71,1.47,0.85c0.61,0.14,1.25,0.19,1.87,0.31c0.66,0.13,1.31,0.3,1.95,0.48
					c1.14,0.32,2.27,0.7,3.42,1.01c1.27,0.34,2.55,0.54,3.85,0.69c5.25,0.61,10.45,1.66,15.56,3c2.53,0.66,5.03,1.4,7.52,2.2
					c2.57,0.82,5.2,1.63,7.67,2.73c1.3,0.58,2.52,1.27,3.65,2.14c1.02,0.78,1.97,1.65,2.95,2.49c1.99,1.71,4.15,3.18,6.48,4.4
					c1.14,0.59,2.31,1.1,3.39,1.78c1.1,0.69,2.14,1.49,3.16,2.3c2,1.59,4,3.13,6.12,4.55c4.53,3.03,9.26,5.79,14.31,7.87
					c1.19,0.49,2.4,0.94,3.63,1.35c-0.07-0.16-0.15-0.32-0.22-0.48c-3.03,6.67-6.07,13.33-9.09,20c-1.41,3.12-2.75,6.29-3.45,9.66
					c-0.67,3.21-0.85,6.5-1.01,9.76c-0.17,3.31-0.19,6.75-1.03,9.97c-0.42,1.61-1.14,3.33-2.45,4.42c-0.78,0.65-1.59,0.46-2.5,0.21
					c-0.82-0.22-1.63-0.49-2.43-0.77c-1.67-0.59-3.32-1.26-5.02-1.76c-1.64-0.48-3.31-0.74-5-0.94c-1.67-0.2-3.35-0.37-4.99-0.76
					c-1.72-0.41-3.36-1.07-4.93-1.88c-3.18-1.64-6.01-3.85-8.86-5.98c-2.66-1.98-5.34-3.94-8.05-5.85
					c-4.05-2.86-8.16-5.64-12.45-8.11c-2.8-1.61-5.68-3.09-8.72-4.2c-2.22-0.81-4.51-1.39-6.85-1.74c-2.3-0.35-4.63-0.52-6.95-0.74
					c-1.35-0.13-2.7-0.27-4.05-0.44c-0.78-0.1-1.56-0.21-2.34-0.33c-0.4-0.06-0.8-0.12-1.2-0.19c-0.69-0.11-1.4-0.08-2.09-0.09
					c-0.34-0.01-0.69,0-1.02-0.07c-0.17-0.04-0.3-0.09-0.46,0c-0.24,0.14-0.35,0.47-0.6,0.62c-0.19,0.11-0.4,0.12-0.61,0.13
					C34.58,75.91,34.6,76.58,35.03,76.54L35.03,76.54z"/>
			</g>
		</g>
	</g>
</g>
</svg>
