<?xml version="1.0" encoding="utf-8"?>
<!-- Generator: Adobe Illustrator 28.0.0, SVG Export Plug-In . SVG Version: 6.00 Build 0)  -->
<svg version="1.1" id="Layer_1" xmlns="http://www.w3.org/2000/svg" xmlns:xlink="http://www.w3.org/1999/xlink" x="0px" y="0px"
	 viewBox="0 0 800 800" style="enable-background:new 0 0 800 800;" xml:space="preserve">
<style type="text/css">
	.st0{fill:#FFFFFF;}
	.st1{fill:url(#SVGID_1_);}
	.st2{fill:url(#SVGID_00000127009035946162680850000013912385374672681860_);}
	.st3{fill:url(#SVGID_00000144321774991325347860000007184319798475255976_);}
	.st4{fill:url(#SVGID_00000181771914785868105550000014460002061032119209_);}
	.st5{fill:url(#SVGID_00000127002550783660340950000012562712271925711761_);}
	.st6{fill:#FC9956;}
	.st7{fill:#F2F1EB;}
	.st8{fill:#FFA96E;}
	.st9{fill:url(#SVGID_00000062872587286543637660000004980623538037560196_);}
	.st10{fill:url(#SVGID_00000015331441772323955370000009161403953062430371_);}
	.st11{fill:url(#SVGID_00000031902243406273528050000005308395341309295239_);}
	.st12{fill:url(#SVGID_00000103983775102399180160000018098961446757034913_);}
	.st13{fill:url(#SVGID_00000074434973481252044540000008207987530470619270_);}
	.st14{fill:url(#SVGID_00000064344918429138281430000017714956264392305544_);}
	.st15{fill:url(#SVGID_00000136375589111509433230000015910387520002748302_);}
	.st16{fill:url(#SVGID_00000062150686841632652130000010730551259877970097_);}
	.st17{fill:url(#SVGID_00000166637208701966556390000013494004489520724908_);}
	.st18{fill:#040404;}
</style>
<g id="_x35_-FACE_x2B_HOOD__x5B_SHIBA_x5D__x2B_">
	<g>
		<path class="st0" d="M421.47,96.24c-0.03-0.33-0.13-0.64-0.37-0.86c-0.27-0.24-0.66-0.31-1.02-0.3c-0.36,0.01-0.73,0.08-1.09,0.08
			c-0.92-0.02-1.74-0.57-2.65-0.75c-0.65-0.13-1.33-0.06-1.99,0.03c-1.28,0.19-2.54,0.49-3.78,0.86c-0.94,0.28-1.87,0.59-2.72,1.08
			s-1.6,1.17-2.05,2.05c-0.16,0.31-0.28,0.65-0.51,0.92c-0.21,0.24-0.51,0.41-0.69,0.68c-0.83,1.25,2.18,1.59,2.82,1.7
			c1.49,0.24,3.03,0.26,4.53,0.05c1.15,0.17,2.34,0.15,3.49,0.07c1.19-0.08,2.38-0.41,3.4-1.04c1.42-0.88,2.49-2.4,2.64-4.07
			C421.48,96.57,421.48,96.41,421.47,96.24z"/>
		<path class="st0" d="M386.16,101.29c-0.08-0.38-0.37-0.66-0.63-0.94c-0.3-0.33-0.61-0.66-0.93-0.97
			c-0.61-0.59-1.33-1.02-1.97-1.57c-0.45-0.38-1.05-0.54-1.63-0.65c-0.2-0.04-0.4-0.07-0.61-0.08c-1.11-0.08-2.24,0.39-3.3,0.09
			c-0.24-0.07-0.48-0.18-0.73-0.2c-0.55-0.04-1.33,0.18-1.2,0.87c0.1,0.58,0.29,1.17,0.33,1.76c0.01,0.13,0.05,0.26,0.09,0.38
			c0.22,0.68,0.37,1.37,0.51,2.07c0.06,0.29,0.12,0.58,0.14,0.87c0.01,0.09,0.01,0.19,0.04,0.28s0.08,0.16,0.13,0.23
			c0.33,0.42,0.75,0.39,1.21,0.47c0.54,0.09,1.09,0.15,1.63,0.18c1.09,0.05,2.19-0.04,3.25-0.27c0.73-0.16,1.44-0.38,2.13-0.67
			c0.52-0.22,1.08-0.45,1.37-0.96c0.02-0.03,0.02-0.07,0.03-0.1C386.16,101.85,386.23,101.59,386.16,101.29z"/>
		<path class="st0" d="M444.21,135.36c-0.07,0-0.07,0.11,0,0.11C444.29,135.47,444.29,135.36,444.21,135.36z"/>
		
			<linearGradient id="SVGID_1_" gradientUnits="userSpaceOnUse" x1="347.5747" y1="697.4897" x2="432.5107" y2="705.6904" gradientTransform="matrix(1 0 0 -1 0 799.8898)">
			<stop  offset="2.893519e-04" style="stop-color:#FBEBD2;stop-opacity:0"/>
			<stop  offset="0.1599" style="stop-color:#F8E8CF;stop-opacity:0.1596"/>
			<stop  offset="0.2968" style="stop-color:#EDDEC7;stop-opacity:0.2966"/>
			<stop  offset="0.4253" style="stop-color:#DBCEB8;stop-opacity:0.4251"/>
			<stop  offset="0.5488" style="stop-color:#C2B7A3;stop-opacity:0.5487"/>
			<stop  offset="0.6687" style="stop-color:#A29989;stop-opacity:0.6686"/>
			<stop  offset="0.786" style="stop-color:#7B7468;stop-opacity:0.7859"/>
			<stop  offset="0.8988" style="stop-color:#4D4943;stop-opacity:0.8987"/>
			<stop  offset="1" style="stop-color:#1D1D1B"/>
		</linearGradient>
		<path class="st1" d="M403.4,134.02c-0.53,0.13-1.06,0.24-1.6,0.26c-0.62,0.03-1.23-0.04-1.85-0.11l-5.63-0.64
			c-0.69-0.08-0.49-0.64-0.69-1.14c-0.55-1.34-0.96-2.73-1.24-4.15c-0.14-0.7-0.24-1.42-0.06-2.11c0.45-1.75,2.37-1.98,3.87-1.99
			c1.26-0.01,2.53,0.05,3.78,0.16c1.22,0.11,2.46,0.28,3.66,0.04s2.95-1.07,3.73-2.23c0.14-0.2,0.25-0.42,0.32-0.64
			c0.03-0.09,0.05-0.19,0.02-0.28c-0.03-0.11-0.13-0.19-0.21-0.26c-0.53-0.41-1.05-0.82-1.58-1.24c-0.24-0.19-0.49-0.39-0.79-0.48
			c-0.24-0.08-0.5-0.09-0.76-0.1c-1.51-0.04-3.03-0.09-4.54-0.09c-0.51,0-1.02,0-1.5,0.16c-0.38,0.13-0.73,0.35-1.11,0.48
			c-0.45,0.16-0.93,0.19-1.41,0.23c-1.76,0.12-3.53,0.25-5.3,0.24c-0.36,0-0.72-0.01-1.06-0.11c-0.79-0.23-1.37-0.9-1.88-1.55
			c-0.4-0.51-0.81-1.06-0.93-1.7c-0.35-1.8,2.12-2.68,3.14-3.69c0.81-0.81,0.5-2.09,1.22-2.87c0.2-0.21,0.49-0.3,0.75-0.42
			c1.43-0.71,1.62-2.65,1.5-4.24c-0.2-2.84-0.58-5.72-2.82-7.72c-0.79-0.71-1.85-1.59-1.48-2.59c0.22-0.59,1-0.98,0.89-1.66
			c-0.09-0.53-0.65-1.05-0.36-1.51c0.15-0.24,0.46-0.31,0.74-0.35c0.74-0.1,1.5-0.11,2.25-0.05c-0.59-0.69-1.36-1.21-2.21-1.52
			c-0.58-0.2-1.26-0.36-1.55-0.9c-0.09-0.17-0.13-0.35-0.19-0.53c-0.17-0.49-0.52-0.92-0.63-1.42c-0.39-1.78,1.73-1.83,2.49-2.93
			c0.51-0.74,0.19-2.08-0.52-2.61c-0.3-0.22-0.66-0.29-1.03-0.31c0.68-0.04,1.41-0.15,1.67-0.43c0.45-0.48,0.18-1.08,0.05-1.69
			c-0.26-1.17-0.62-2.77-2.09-2.82c-1.25-0.04-2.49-0.22-3.7-0.53c1.49-0.34,3.01-0.55,4.53-0.62c0.6-0.03,1.29-0.08,1.63-0.58
			c1.22-1.79-0.47-5.71-0.86-7.61c-0.58-2.8-0.99-5.72-0.2-8.52c0.86-3.05,3.01-5.55,5.28-7.75c1.51-1.47,3.1-2.87,4.54-4.41
			c-0.56,0.22-1.12,0.43-1.67,0.68c-3.36,1.5-6.67,3.26-9.79,5.21c-3.18,1.99-6.08,4.31-8.51,7.17c-0.12,0.14-0.23,0.27-0.35,0.41
			c-2.09,3.32-4.5,6.52-5.49,10.37c-1.09,4.26-0.63,8.69-2.26,12.85c-0.64,1.62-1.59,3.12-2.09,4.78c-0.61,2-0.01,4.2,0.44,6.18
			c0.87,3.79,2.07,7.42,2,11.3c0.2,0.88,0.2,1.85,0.21,2.7c0.03,2.43,0,4.88,0.77,7.21c1.45,4.4,3.28,8.53,5.43,12.63
			c1.95,3.7,3.42,7.76,6.05,11.06c0.49,0.61,1.03,1.19,1.59,1.76c1.05,0.59,2.05,1.29,3.02,2c1.76,1.29,3.72,2.79,5.05,4.54
			c0.18,0.24,0.36,0.49,0.62,0.63c0.2,0.1,0.42,0.13,0.65,0.16c0.82,0.1,1.64,0.2,2.45,0.3c-0.78-0.89-1.57-1.77-2.35-2.66
			c-0.35-0.39-0.69-0.78-0.94-1.24c-0.33-0.6-0.47-1.29-0.6-1.96c-0.37-1.84-0.73-3.68-1.1-5.53c-0.08-0.42-0.44-1.32,0.13-1.56
			c0.11-0.04,0.23-0.04,0.34-0.04c2.46,0.1,4.83,1.42,7.27,1.09c0.71-0.09,1.39-0.32,2.05-0.57c1.93-0.72,3.81-1.6,5.6-2.64
			c1.05-0.61,2.19-1.46,2.22-2.67C408.18,132.02,405.92,133.38,403.4,134.02z M383.29,104.77c-1.88,0.16-3.73-0.23-5.6-0.38
			c-0.21-0.02-0.28-0.34-0.05-0.39c0.72-0.15,1.46-0.22,2.2-0.27c-0.6,0.03-1.21,0.04-1.81,0c-0.5-0.03-1.14-0.06-1.46-0.5
			c-0.24-0.33-0.36-0.73-0.44-1.14c0-0.01,0-0.02-0.01-0.03c-0.08-0.48-0.11-0.98-0.17-1.42c-0.07-0.49-0.28-0.92-0.43-1.39
			c-0.18-0.58-0.28-1.15-0.22-1.75c0.04-0.37,0.52-0.53,0.79-0.31c0.07,0.06,0.14,0.13,0.21,0.19c0.06-0.05,0.13-0.09,0.21-0.12
			c0.34-0.12,0.73-0.09,1.08-0.06c0.35,0.03,0.69,0.1,1.04,0.12c0.01,0,0,0,0.01,0c0.02,0,0.03-0.01,0.08-0.02
			c0.12-0.02,0.25-0.03,0.38-0.04c0.28-0.03,0.55-0.06,0.83-0.08c1.13-0.09,2.27-0.02,3.31,0.46c0.62,0.29,0.5,1.05-0.04,1.34
			c-0.02,0.01-0.04,0.02-0.06,0.03c0.01,0,0.01,0,0.02,0c0.86-0.11,1.08,1.02,0.48,1.41c0,0.18-0.04,0.36-0.14,0.52
			c-0.04,0.07-0.2,0.33-0.14,0.43c0.2,0.37,0.21,0.82-0.17,1.09c-0.13,0.09-0.29,0.13-0.45,0.13c0.09,0.27-0.02,0.61-0.32,0.74
			c-0.5,0.22-1.09,0.28-1.65,0.32c0.67-0.03,1.34-0.05,2-0.1c0.88-0.06,1.79-0.18,2.61-0.52c0.5-0.21,1.07-0.52,1.27-1.06
			c0.18-0.48-0.05-1.02-0.37-1.42c-0.06-0.07-0.13-0.17-0.1-0.26c0.01-0.03,0.04-0.06,0.06-0.09c0.23-0.21,0.6-0.13,0.85,0.04
			c0.32,0.21,0.54,0.56,0.59,0.94c0.05,0.34,0.35,0.52,0.36,0.87c0.01,0.31-0.19,0.64-0.37,0.88c-0.38,0.5-0.95,0.87-1.52,1.13
			C385.25,104.51,384.27,104.69,383.29,104.77z"/>
		
			<linearGradient id="SVGID_00000115499736592046838790000018276053764316585900_" gradientUnits="userSpaceOnUse" x1="435.6743" y1="706.7727" x2="390.2197" y2="707.6304" gradientTransform="matrix(1 0 0 -1 0 799.8898)">
			<stop  offset="2.893519e-04" style="stop-color:#FBEBD2;stop-opacity:0"/>
			<stop  offset="0.2916" style="stop-color:#F9E9D0;stop-opacity:0.2914"/>
			<stop  offset="0.4344" style="stop-color:#F1E2CA;stop-opacity:0.4342"/>
			<stop  offset="0.5449" style="stop-color:#E4D6BF;stop-opacity:0.5448"/>
			<stop  offset="0.6389" style="stop-color:#D1C4B0;stop-opacity:0.6388"/>
			<stop  offset="0.7223" style="stop-color:#B9AE9C;stop-opacity:0.7222"/>
			<stop  offset="0.7983" style="stop-color:#9B9283;stop-opacity:0.7982"/>
			<stop  offset="0.8686" style="stop-color:#787166;stop-opacity:0.8685"/>
			<stop  offset="0.9342" style="stop-color:#4F4B44;stop-opacity:0.9342"/>
			<stop  offset="0.9943" style="stop-color:#22211F;stop-opacity:0.9943"/>
			<stop  offset="1" style="stop-color:#1D1D1B"/>
		</linearGradient>
		<path style="fill:url(#SVGID_00000115499736592046838790000018276053764316585900_);" d="M402.27,97.11
			c0.1,0.07,0.21,0.15,0.33,0.14c0.14-0.01,0.25-0.11,0.35-0.2c0.97-0.94,1.93-1.92,3.09-2.6c0.78-0.46,1.64-0.78,2.51-1.04
			c3.16-0.95,6.52-1.21,9.79-0.76c0.54,0.07,1.08,0.17,1.62,0.15c0.97-0.03,1.93-0.43,2.63-1.11c0.07-0.07,0.14-0.14,0.17-0.23
			c0.09-0.28-0.2-0.52-0.46-0.67c-5.25-2.89-11.63-3.66-17.42-2.11c-0.59,0.16-1.2,0.35-1.66,0.76c-0.27,0.24-0.48,0.54-0.69,0.84
			c-0.68,0.99-1.18,2.42-1.39,3.61C400.92,95.07,401.32,96.37,402.27,97.11z"/>
		
			<linearGradient id="SVGID_00000045581403692170418190000010646901642734551958_" gradientUnits="userSpaceOnUse" x1="409.5794" y1="720.173" x2="414.8324" y2="684.4741" gradientTransform="matrix(1 0 0 -1 0 799.8898)">
			<stop  offset="2.893519e-04" style="stop-color:#FBEBD2;stop-opacity:0"/>
			<stop  offset="0.2916" style="stop-color:#F9E9D0;stop-opacity:0.2914"/>
			<stop  offset="0.4344" style="stop-color:#F1E2CA;stop-opacity:0.4342"/>
			<stop  offset="0.5449" style="stop-color:#E4D6BF;stop-opacity:0.5448"/>
			<stop  offset="0.6389" style="stop-color:#D1C4B0;stop-opacity:0.6388"/>
			<stop  offset="0.7223" style="stop-color:#B9AE9C;stop-opacity:0.7222"/>
			<stop  offset="0.7983" style="stop-color:#9B9283;stop-opacity:0.7982"/>
			<stop  offset="0.8686" style="stop-color:#787166;stop-opacity:0.8685"/>
			<stop  offset="0.9342" style="stop-color:#4F4B44;stop-opacity:0.9342"/>
			<stop  offset="0.9943" style="stop-color:#22211F;stop-opacity:0.9943"/>
			<stop  offset="1" style="stop-color:#1D1D1B"/>
		</linearGradient>
		<path style="fill:url(#SVGID_00000045581403692170418190000010646901642734551958_);" d="M403.1,102.91
			c0.35,0.47,0.66,0.95,0.83,1.24c-0.18-0.46-0.25-0.95-0.23-1.44c0.39,0.21,0.78,0.43,1.17,0.64c0.19,0.11,0.39,0.21,0.6,0.26
			c0.18,0.04,0.37,0.03,0.56,0.06c0.41,0.06,0.78,0.32,1.2,0.35c1.32,0.09,2.59,0.06,3.92,0.27c1.37,0.22,2.76,0.46,4.14,0.18
			c2.09-0.42,3.77-1.95,5.28-3.47c1.13-1.13,2.96-3.4,2.41-5.14c-0.11-0.33-0.5-0.49-0.79-0.64c-0.08-0.04-1.13-0.26-1.08-0.06
			c0.1,0.46,0.2,0.92,0.2,1.39c-0.01,0.44-0.11,0.87-0.22,1.3c-0.11,0.45-0.22,0.9-0.44,1.31c-0.69,1.3-2.51,2-3.86,2.36
			c-1.59,0.42-3.24,0.49-4.88,0.47c-1.33-0.01-2.65-0.02-3.98-0.03c-0.58,0-1.17-0.02-1.73-0.14c-0.74-0.16-1.58-1.25-2.3-1.1
			c-0.39,0.08-0.7,0.37-1.03,0.61c-0.33,0.23-0.74,0.43-1.12,0.29C402.15,101.75,402.66,102.32,403.1,102.91z"/>
		
			<linearGradient id="SVGID_00000052079220749535452260000010470374974615179155_" gradientUnits="userSpaceOnUse" x1="334.0364" y1="672.3071" x2="536.6802" y2="770.5792" gradientTransform="matrix(1 0 0 -1 0 799.8898)">
			<stop  offset="0" style="stop-color:#FFFFFF;stop-opacity:0"/>
			<stop  offset="0.1413" style="stop-color:#FBFBFB;stop-opacity:0.1413"/>
			<stop  offset="0.2748" style="stop-color:#F0F0F0;stop-opacity:0.2748"/>
			<stop  offset="0.4054" style="stop-color:#DDDDDD;stop-opacity:0.4054"/>
			<stop  offset="0.5341" style="stop-color:#C2C2C2;stop-opacity:0.5341"/>
			<stop  offset="0.6614" style="stop-color:#A0A09F;stop-opacity:0.6614"/>
			<stop  offset="0.7878" style="stop-color:#767675;stop-opacity:0.7878"/>
			<stop  offset="0.911" style="stop-color:#454544;stop-opacity:0.911"/>
			<stop  offset="1" style="stop-color:#1D1D1B"/>
		</linearGradient>
		<path style="fill:url(#SVGID_00000052079220749535452260000010470374974615179155_);" d="M457.64,81.05
			c-0.33-2.41-0.86-4.8-1.47-7.16c-0.53-2.03-0.86-4.09-1.83-5.95c-1.05-2.02-1.95-4.3-3.21-6.18c-1.26-1.89-2.71-3.67-4.28-5.32
			c-2.91-3.05-6.21-5.29-9.91-7.26c-2.07-1.11-4.37-1.94-6.57-2.76c-1.17-0.44-2.36-0.84-3.56-1.19c-1.12-0.32-2.4-0.41-3.48-0.8
			c3.84,1.38,7.71,3.87,10.84,6.46c1.5,1.08,2.91,2.27,4.16,3.61c1.17,0.49,2.23,1.47,3.06,2.32c1.39,1.42,2.44,3.08,3.3,4.86
			c1.57,3.26,2.61,6.86,2.66,10.5c0.06,4.3-1.64,8.59-2.73,12.69c-1.28,4.81-2.07,9.61-1.42,14.57c0.48,2.3,1.22,4.52,2.05,6.7
			c0.18,0.3,0.35,0.6,0.57,0.91c0.31,0.42,0.64,0.82,1.01,1.19c0.62,0.63,1.34,1.13,1.97,1.73c0.66,0.35,1.38,0.56,2.16,0.51
			c1.98-0.13,3.15-2.1,3.97-3.67c1.06-2.02,1.47-4.31,1.8-6.56C457.64,94.04,458.5,87.3,457.64,81.05z"/>
		
			<linearGradient id="SVGID_00000031918284224789290000000009114773172622837401_" gradientUnits="userSpaceOnUse" x1="444.3775" y1="682.0109" x2="465.2754" y2="803.1115" gradientTransform="matrix(1 0 0 -1 0 799.8898)">
			<stop  offset="0" style="stop-color:#FFFFFF;stop-opacity:0.1"/>
			<stop  offset="0.1383" style="stop-color:#DCDCDC;stop-opacity:0.2245"/>
			<stop  offset="0.5649" style="stop-color:#767675;stop-opacity:0.6084"/>
			<stop  offset="0.8611" style="stop-color:#363634;stop-opacity:0.875"/>
			<stop  offset="1" style="stop-color:#1D1D1B"/>
		</linearGradient>
		<path style="fill:url(#SVGID_00000031918284224789290000000009114773172622837401_);" d="M452.33,74.51
			c-0.63,7.67-5.23,14.79-4.77,22.47c0.07,1.2,0.29,2.44,1.02,3.39c0.73,0.95,2.09,1.5,3.17,0.98c0.5-0.24,0.88-0.68,1.22-1.13
			c1.92-2.55,2.87-5.72,3.19-8.9c0.13-1.29,0.14-2.59,0.19-3.88c0.08-1.92,1.22-3.55,1.29-5.45c0.09-2.16-0.63-4.55-1.16-6.63
			c-1.13-4.45-2.84-8.76-5.07-12.77c-1.02-1.83-2.19-3.64-3.91-4.83c-0.32,1.08,1.16,3.07,1.69,3.98c0.57,0.98,1.31,1.96,1.72,3.02
			C452.08,67.86,452.6,71.21,452.33,74.51z"/>
		<g>
			<g>
				<path d="M373.84,97.83c0.47-0.02,0.97-0.11,1.35-0.39c0.33-0.24,0.51-0.33,0.92-0.28c0.3,0.04,0.6,0.12,0.89,0.21
					c0.53,0.16,0.99,0.22,1.54,0.09c0.34-0.08,0.62-0.24,0.98-0.26c0.37-0.03,0.74,0.02,1.11,0.08c2.84,0.46,5.26,2.15,6.19,4.95
					c0.1,0.3,0.58,0.17,0.48-0.13c-0.92-2.76-3.22-4.61-6.02-5.2c-0.65-0.14-1.35-0.27-2.02-0.17c-0.73,0.11-1.24,0.43-2.01,0.21
					c-0.53-0.15-1.14-0.37-1.7-0.28c-0.24,0.04-0.38,0.14-0.57,0.28c-0.35,0.27-0.73,0.37-1.17,0.39
					C373.52,97.34,373.52,97.84,373.84,97.83L373.84,97.83z"/>
			</g>
		</g>
		<g>
			<g>
				<path d="M374.93,97.28c0.01,0.86-0.06,1.74,0.2,2.57c0.12,0.4,0.36,0.75,0.48,1.14c0.13,0.43,0.07,0.88,0.09,1.32
					c0.03,0.63,0.18,1.29,0.78,1.61c0.56,0.3,1.34,0.23,1.95,0.23c1.88,0.01,3.76-0.11,5.61-0.36c1.16-0.16,2.53-0.49,3.25-1.5
					c0.19-0.26-0.25-0.51-0.43-0.25c-0.71,1.01-2.25,1.19-3.38,1.32c-1.53,0.18-3.07,0.28-4.61,0.29c-0.62,0-1.44,0.11-2.03-0.12
					c-0.83-0.32-0.6-1.41-0.66-2.11c-0.06-0.66-0.43-1.17-0.6-1.8c-0.21-0.76-0.15-1.56-0.16-2.33
					C375.43,96.96,374.93,96.95,374.93,97.28L374.93,97.28z"/>
			</g>
		</g>
		<g>
			<g>
				<path d="M403.8,101.32c0.21-0.22,0.19-0.52,0.38-0.72c0.2-0.22,0.55-0.35,0.77-0.57c0.57-0.55,0.71-1.33,1.25-1.89
					c0.74-0.77,1.38-1.52,2.41-1.88c0.9-0.32,1.8-0.65,2.69-0.98c0.85-0.31,1.82-0.27,2.7-0.43c1.06-0.2,2.19-0.46,3.25-0.12
					c0.43,0.14,0.82,0.36,1.26,0.44s0.89,0.05,1.33,0.02c0.96-0.06,2.05-0.08,2.81,0.59c0.24,0.21,0.6-0.14,0.35-0.35
					c-0.61-0.53-1.33-0.69-2.13-0.75c-0.54-0.04-1.07,0.04-1.61,0.05c-0.59,0.01-1.07-0.16-1.6-0.37c-0.98-0.38-2-0.31-3.01-0.13
					c-1.01,0.17-2.05,0.24-3.05,0.45c-0.52,0.11-0.98,0.37-1.47,0.55s-0.98,0.33-1.48,0.49c-0.95,0.32-1.57,0.79-2.26,1.5
					c-0.31,0.32-0.7,0.63-0.95,1.01c-0.23,0.34-0.3,0.76-0.54,1.11c-0.31,0.43-0.75,0.6-1.12,0.95c-0.22,0.21-0.14,0.49-0.33,0.69
					C403.23,101.2,403.58,101.56,403.8,101.32L403.8,101.32z"/>
			</g>
		</g>
		<g>
			<g>
				<path d="M404.24,100.76c0.97,1.22,2.98,1.23,4.39,1.27c1.13,0.03,2.26,0.04,3.39,0.07c1.26,0.02,2.54,0.11,3.8,0.03
					c1.96-0.14,3.82-1.13,5.03-2.69c0.23-0.29,0.36-0.51,0.41-0.87c0.04-0.3,0.06-0.55,0.17-0.85c0.09-0.26,0.19-0.5,0.24-0.77
					c0.15-0.84-0.18-1.53-0.72-2.15c-0.21-0.24-0.57,0.11-0.35,0.35c0.35,0.39,0.61,0.82,0.62,1.36c0.01,0.46-0.2,0.84-0.34,1.26
					c-0.11,0.34-0.05,0.74-0.21,1.06c-0.19,0.38-0.58,0.74-0.89,1.03c-0.66,0.61-1.45,1.12-2.29,1.43
					c-0.99,0.36-2.04,0.37-3.08,0.36c-1.93-0.03-3.85-0.06-5.78-0.11c-1.28-0.03-3.16-0.02-4.04-1.12
					C404.4,100.16,404.04,100.51,404.24,100.76L404.24,100.76z"/>
			</g>
		</g>
		<g>
			<g>
				<path d="M444.06,135.53c-0.66,3.36,0.04,6.89,1.96,9.73c0.18,0.27,0.61,0.02,0.43-0.25c-1.84-2.73-2.54-6.12-1.91-9.35
					C444.61,135.35,444.12,135.22,444.06,135.53L444.06,135.53z"/>
			</g>
		</g>
		<g>
			<g>
				<path d="M435.21,151.94c0.95-0.21,2.02-0.44,2.98-0.12c1.02,0.33,1.44,1.26,1.69,2.23c0.2,0.77,0.29,1.78,0.81,2.41
					c0.29,0.35,0.78,0.48,1.19,0.64c0.6,0.24,1.2,0.48,1.8,0.71c0.3,0.12,0.43-0.36,0.13-0.48c-0.63-0.25-1.25-0.5-1.88-0.74
					c-0.26-0.1-0.57-0.19-0.78-0.38c-0.2-0.18-0.28-0.44-0.37-0.68c-0.3-0.89-0.4-1.84-0.8-2.7c-0.92-1.96-3.13-1.77-4.91-1.37
					C434.76,151.52,434.89,152.01,435.21,151.94L435.21,151.94z"/>
			</g>
		</g>
		<g>
			<g>
				<path d="M413.99,159.71c0.12,1.28,0.24,2.57,0.12,3.86c-0.11,1.13-0.4,2.51-1.37,3.24c-0.25,0.19-0.01,0.62,0.25,0.43
					c1-0.75,1.39-2.01,1.56-3.2c0.2-1.44,0.08-2.89-0.06-4.33C414.46,159.39,413.96,159.39,413.99,159.71L413.99,159.71z"/>
			</g>
		</g>
		<g>
			<g>
				<path d="M402.99,86.4c6.38-2.85,13.74-1.35,19.93,1.25c0.59,0.25,0.85-0.72,0.27-0.96c-6.48-2.72-14.06-4.12-20.7-1.15
					C401.9,85.79,402.41,86.66,402.99,86.4L402.99,86.4z"/>
			</g>
		</g>
		<g>
			<g>
				<path d="M387,86.49c-2.09-1.29-4.66-1.01-6.95-0.53c-2.39,0.5-4.65,1.25-6.55,2.84c-0.49,0.41,0.22,1.12,0.71,0.71
					c1.71-1.43,3.78-2.08,5.92-2.54c2.08-0.45,4.47-0.79,6.38,0.39C387.04,87.69,387.54,86.82,387,86.49L387,86.49z"/>
			</g>
		</g>
		<g>
			<g>
				<path d="M388.45,101.97c-0.14-0.52-0.41-1.29-0.86-1.63c-0.39-0.29-0.77-0.56-1.13-0.89c-0.31-0.29-0.56-0.67-0.88-0.94
					c-0.14-0.11-0.31-0.16-0.45-0.27c-0.18-0.14-0.29-0.35-0.47-0.49c-0.35-0.25-0.8-0.42-1.21-0.55c-0.96-0.31-1.99-0.36-2.99-0.45
					c-0.32-0.03-0.32,0.47,0,0.5c0.94,0.09,1.89,0.13,2.79,0.41c0.38,0.12,0.88,0.28,1.18,0.55c0.13,0.12,0.22,0.28,0.36,0.39
					c0.16,0.13,0.37,0.19,0.52,0.34c0.26,0.25,0.48,0.56,0.75,0.82c0.28,0.26,0.57,0.51,0.88,0.74c0.19,0.14,0.37,0.24,0.51,0.43
					c0.03,0.05,0.06,0.12,0.09,0.17c0.18,0.32,0.33,0.65,0.43,1.01C388.05,102.41,388.53,102.28,388.45,101.97L388.45,101.97z"/>
			</g>
		</g>
		<path d="M414.69,94.3c-1.22,0-2.29,0.58-2.99,1.46l0,0c0.07,0.04,0.14,0.09,0.2,0.16l0,0c0.02,0.02,0.13,0.16,0.14,0.19l0,0
			c0,0,0,0.01,0.01,0.01c0,0,0,0.01,0.01,0.01c0.03,0.06,0.07,0.16,0.09,0.22l0,0c0,0,0,0,0,0.01s0.01,0.02,0.01,0.03
			s0,0.02,0.01,0.03c0.01,0.08,0.03,0.17,0.03,0.25c0,0.01,0,0.01,0,0.02c0,0.02,0,0.05,0,0.07c0,0.01,0,0.01,0,0.02
			c-0.01,0.08-0.02,0.16-0.03,0.24c0,0.01,0,0.02-0.01,0.03c0,0.02-0.01,0.04-0.02,0.07c0,0,0,0.01-0.01,0.01v0.01
			c-0.03,0.07-0.06,0.14-0.09,0.2c0,0.01-0.01,0.02-0.01,0.02s0,0.01-0.01,0.01c0,0,0,0,0,0.01c-0.03,0.04-0.1,0.13-0.13,0.17l0,0
			c-0.05,0.05-0.15,0.12-0.18,0.14h-0.01l0,0l-0.19,0.08l0,0l0,0l0,0l0,0c-0.04,0-0.07,0.01-0.11,0.01
			c-0.04,0.01-0.07,0.01-0.11,0.01l0,0l0,0l0,0l0,0l0,0c-0.07-0.01-0.14-0.02-0.21-0.03c-0.06-0.03-0.12-0.05-0.18-0.08
			c-0.02,0.14-0.04,0.28-0.04,0.42c0,2.12,1.72,3.83,3.83,3.83s3.83-1.72,3.83-3.83S416.81,94.3,414.69,94.3z"/>
		<path d="M386.84,101.82c-0.16-0.36-0.37-0.74-0.54-1.13c-0.1-0.23-0.18-0.45-0.24-0.68c-0.11-0.46-0.24-0.84-0.55-1.23
			c-0.6-0.76-1.52-1.21-2.48-1.21c-0.74,0-1.41,0.27-1.95,0.69c0.06,0.04,0.11,0.08,0.16,0.13c0.05,0.06,0.1,0.12,0.14,0.18
			c0,0,0,0,0,0.01c0,0,0.08,0.2,0.09,0.2l0,0c0.02,0.08,0.03,0.16,0.03,0.24c-0.01,0.08-0.02,0.15-0.03,0.22l0,0l0,0
			c0,0-0.08,0.2-0.09,0.2l0,0l0,0c0,0.01-0.13,0.17-0.13,0.17s0,0-0.01,0.01c-0.05,0.05-0.12,0.1-0.19,0.14s-0.15,0.07-0.23,0.1
			c-0.01,0.01-0.03,0.01-0.04,0.02c-0.03,0.01-0.05,0.01-0.08,0.02c-0.08,0.01-0.17,0.03-0.25,0.03c-0.01,0-0.02,0-0.03,0
			c0,0,0,0-0.01,0c-0.04,0-0.08,0.03-0.12,0.03c-0.09-0.01-0.18-0.02-0.27-0.04c-0.01-0.01-0.03-0.01-0.04-0.02
			c-0.07,0.26-0.12,0.53-0.12,0.82c0,1.74,1.41,3.16,3.16,3.16c1.2,0,2.55-0.59,3.56-1.2c0.14-0.08,0.28-0.18,0.34-0.33
			C386.99,102.18,386.91,101.99,386.84,101.82z"/>
		<path d="M390.66,124c-0.98,0.38-1.09-0.61-1.3-1.24c-0.13-0.41-0.33-0.8-0.56-1.16c-1.06-1.67-3.33-3.36-1.91-5.51
			c1.06-1.59,3.54-2.43,4.25-4.31c0.28-0.73-0.29-3.77-0.89-4.2c-0.01-0.01,1.52,4.14-1.65,5.95c-1.59,0.91-3.42,2.66-3.14,4.33
			c0.35,2.08,2.29,3.49,3.04,5.36c0.24,0.6,0.53,1.29,1.19,1.5c1.06,0.35,1.9-0.75,2.95-0.62C392.65,124.09,392.17,123.4,390.66,124
			z"/>
		<path d="M399.14,122.44c0.37-0.01,0.74,0,1.08,0.14c0.22,0.09,0.44,0.3,0.38,0.52c-0.04,0.13-0.15,0.21-0.27,0.27
			c-0.47,0.23-1.02,0.18-1.53,0.06s-1.01-0.3-1.53-0.33c-0.45-0.02-0.88,0.09-1.32,0.19c0.47-0.26,0.86-0.46,1.39-0.59
			C397.93,122.55,398.53,122.47,399.14,122.44z"/>
		<path d="M408.01,117.83c-0.33-0.37-0.8-0.62-1.27-0.75c-0.3-0.09-0.62-0.15-0.93-0.2c-0.32-0.05-0.78-0.06-0.78-0.06
			s2.78,0.93,2.77,2.47c0,0.47-0.17,0.96-0.29,1.4c-0.22,0.82-0.73,1.75-1.37,2.31c-0.34,0.3-0.77,0.5-1.22,0.51
			c-0.24,0.01-1.68-0.15-1.61-0.1c0.21,0.17,0.41,0.25,0.67,0.34c0.29,0.11,0.53,0.23,0.83,0.27c0.52,0.06,1.08,0,1.52-0.29
			c0.94-0.62,1.45-1.74,1.85-2.75C408.58,119.99,408.79,118.7,408.01,117.83z"/>
		<g>
			<path d="M385.78,92.14c1.77,0.64,3.07,2.66,2.77,4.54C388.12,94.9,387.12,93.37,385.78,92.14L385.78,92.14z"/>
		</g>
		<g>
			<path d="M403.26,89.39c-1.17,1.71-1.72,3.69-2.14,5.7C400.82,93.04,401.55,90.64,403.26,89.39L403.26,89.39z"/>
		</g>
		<g>
			<path d="M377.22,77.99c1.4-1.01,3.04-1.78,4.81-1.92c3.36,0.17,6.73,0.31,10.09,0.03c1.45-0.27,3.01-0.69,4.18-1.56
				c2.81-1.82,6.23-1.87,9.46-1.84c1.62-0.05,3.22,0.26,4.81,0.52c1.58,0.16,3.22,0.02,4.74-0.5c-1.5,0.59-3.14,0.83-4.76,0.74
				c-1.62-0.19-3.15-0.48-4.79-0.38c-3.16,0.07-6.47,0.06-9.2,1.88c-1.23,0.89-2.87,1.33-4.39,1.59c-3.39,0.27-6.79,0.04-10.16-0.24
				C380.39,76.37,378.63,77.05,377.22,77.99L377.22,77.99z"/>
		</g>
		<g>
			<path d="M384.99,81.46c3.4,0.12,6.89,0.27,10.26-0.09c1.65-0.35,3.32-0.81,4.58-1.99c2.62-2.15,6.2-2.79,9.4-1.7
				c1.48,0.4,2.75,1.38,4.26,1.65c1.5,0.27,3.02,0.48,4.54,0.59c1.52,0.1,3.07,0.15,4.55-0.29c-1.45,0.52-3.03,0.55-4.56,0.53
				c-1.54-0.05-3.07-0.23-4.59-0.45c-1.56-0.21-2.83-1.19-4.33-1.58c-3.11-1.01-6.43-0.39-8.99,1.64c-1.33,1.18-3.07,1.71-4.78,2.01
				C391.85,82.06,388.43,81.77,384.99,81.46L384.99,81.46z"/>
		</g>
		<path d="M407.79,131.72c-2.63,1.48-6.03,2.26-8.99,1.81c-1.17-0.18-2.33-0.46-3.51-0.56c-0.66-0.05-1.31-0.03-1.96-0.01
			c-0.69,0.03-2.34-0.52-2.9-0.84c-1.15-0.66-0.9,0.29-1.06,1.55c-0.03,0.19,0.35-1.13,1.11-0.78c0.41,0.19,1.24,0.73,1.65,0.91
			c0.83,0.35,1.89,0.08,2.77,0.12c2.41,0.12,4.78,0.78,7.19,0.79c4.66,0.02,10.79-5.56,11-6.2
			C413.28,127.88,410.13,130.4,407.79,131.72z"/>
		<g>
			<g>
				<path d="M373.84,97.83c0.47-0.02,0.97-0.11,1.35-0.39c0.33-0.24,0.51-0.33,0.92-0.28c0.3,0.04,0.6,0.12,0.89,0.21
					c0.53,0.16,0.99,0.22,1.54,0.09c0.34-0.08,0.62-0.24,0.98-0.26c0.37-0.03,0.74,0.02,1.11,0.08c2.84,0.46,5.26,2.15,6.19,4.95
					c0.1,0.3,0.58,0.17,0.48-0.13c-0.92-2.76-3.22-4.61-6.02-5.2c-0.65-0.14-1.35-0.27-2.02-0.17c-0.73,0.11-1.24,0.43-2.01,0.21
					c-0.53-0.15-1.14-0.37-1.7-0.28c-0.24,0.04-0.38,0.14-0.57,0.28c-0.35,0.27-0.73,0.37-1.17,0.39
					C373.52,97.34,373.52,97.84,373.84,97.83L373.84,97.83z"/>
			</g>
		</g>
		<g>
			<g>
				<path d="M374.93,97.28c0.01,0.86-0.06,1.74,0.2,2.57c0.12,0.4,0.36,0.75,0.48,1.14c0.13,0.43,0.07,0.88,0.09,1.32
					c0.03,0.63,0.18,1.29,0.78,1.61c0.56,0.3,1.34,0.23,1.95,0.23c1.88,0.01,3.76-0.11,5.61-0.36c1.16-0.16,2.53-0.49,3.25-1.5
					c0.19-0.26-0.25-0.51-0.43-0.25c-0.71,1.01-2.25,1.19-3.38,1.32c-1.53,0.18-3.07,0.28-4.61,0.29c-0.62,0-1.44,0.11-2.03-0.12
					c-0.83-0.32-0.6-1.41-0.66-2.11c-0.06-0.66-0.43-1.17-0.6-1.8c-0.21-0.76-0.15-1.56-0.16-2.33
					C375.43,96.96,374.93,96.95,374.93,97.28L374.93,97.28z"/>
			</g>
		</g>
		<g>
			<g>
				<path d="M403.8,101.32c0.21-0.22,0.19-0.52,0.38-0.72c0.2-0.22,0.55-0.35,0.77-0.57c0.57-0.55,0.71-1.33,1.25-1.89
					c0.74-0.77,1.38-1.52,2.41-1.88c0.9-0.32,1.8-0.65,2.69-0.98c0.85-0.31,1.82-0.27,2.7-0.43c1.06-0.2,2.19-0.46,3.25-0.12
					c0.43,0.14,0.82,0.36,1.26,0.44s0.89,0.05,1.33,0.02c0.96-0.06,2.05-0.08,2.81,0.59c0.24,0.21,0.6-0.14,0.35-0.35
					c-0.61-0.53-1.33-0.69-2.13-0.75c-0.54-0.04-1.07,0.04-1.61,0.05c-0.59,0.01-1.07-0.16-1.6-0.37c-0.98-0.38-2-0.31-3.01-0.13
					c-1.01,0.17-2.05,0.24-3.05,0.45c-0.52,0.11-0.98,0.37-1.47,0.55s-0.98,0.33-1.48,0.49c-0.95,0.32-1.57,0.79-2.26,1.5
					c-0.31,0.32-0.7,0.63-0.95,1.01c-0.23,0.34-0.3,0.76-0.54,1.11c-0.31,0.43-0.75,0.6-1.12,0.95c-0.22,0.21-0.14,0.49-0.33,0.69
					C403.23,101.2,403.58,101.56,403.8,101.32L403.8,101.32z"/>
			</g>
		</g>
		<g>
			<g>
				<path d="M404.24,100.76c0.97,1.22,2.98,1.23,4.39,1.27c1.13,0.03,2.26,0.04,3.39,0.07c1.26,0.02,2.54,0.11,3.8,0.03
					c1.96-0.14,3.82-1.13,5.03-2.69c0.23-0.29,0.36-0.51,0.41-0.87c0.04-0.3,0.06-0.55,0.17-0.85c0.09-0.26,0.19-0.5,0.24-0.77
					c0.15-0.84-0.18-1.53-0.72-2.15c-0.21-0.24-0.57,0.11-0.35,0.35c0.35,0.39,0.61,0.82,0.62,1.36c0.01,0.46-0.2,0.84-0.34,1.26
					c-0.11,0.34-0.05,0.74-0.21,1.06c-0.19,0.38-0.58,0.74-0.89,1.03c-0.66,0.61-1.45,1.12-2.29,1.43
					c-0.99,0.36-2.04,0.37-3.08,0.36c-1.93-0.03-3.85-0.06-5.78-0.11c-1.28-0.03-3.16-0.02-4.04-1.12
					C404.4,100.16,404.04,100.51,404.24,100.76L404.24,100.76z"/>
			</g>
		</g>
		<g>
			<g>
				<path d="M444.06,135.53c-0.66,3.36,0.04,6.89,1.96,9.73c0.18,0.27,0.61,0.02,0.43-0.25c-1.84-2.73-2.54-6.12-1.91-9.35
					C444.61,135.35,444.12,135.22,444.06,135.53L444.06,135.53z"/>
			</g>
		</g>
		<g>
			<g>
				<path d="M435.21,151.94c0.95-0.21,2.02-0.44,2.98-0.12c1.02,0.33,1.44,1.26,1.69,2.23c0.2,0.77,0.29,1.78,0.81,2.41
					c0.29,0.35,0.78,0.48,1.19,0.64c0.6,0.24,1.2,0.48,1.8,0.71c0.3,0.12,0.43-0.36,0.13-0.48c-0.63-0.25-1.25-0.5-1.88-0.74
					c-0.26-0.1-0.57-0.19-0.78-0.38c-0.2-0.18-0.28-0.44-0.37-0.68c-0.3-0.89-0.4-1.84-0.8-2.7c-0.92-1.96-3.13-1.77-4.91-1.37
					C434.76,151.52,434.89,152.01,435.21,151.94L435.21,151.94z"/>
			</g>
		</g>
		<g>
			<g>
				<path d="M413.99,159.71c0.12,1.28,0.24,2.57,0.12,3.86c-0.11,1.13-0.4,2.51-1.37,3.24c-0.25,0.19-0.01,0.62,0.25,0.43
					c1-0.75,1.39-2.01,1.56-3.2c0.2-1.44,0.08-2.89-0.06-4.33C414.46,159.39,413.96,159.39,413.99,159.71L413.99,159.71z"/>
			</g>
		</g>
		<g>
			<g>
				<path d="M402.99,86.4c6.38-2.85,13.74-1.35,19.93,1.25c0.59,0.25,0.85-0.72,0.27-0.96c-6.48-2.72-14.06-4.12-20.7-1.15
					C401.9,85.79,402.41,86.66,402.99,86.4L402.99,86.4z"/>
			</g>
		</g>
		<g>
			<g>
				<path d="M387,86.49c-2.09-1.29-4.66-1.01-6.95-0.53c-2.39,0.5-4.65,1.25-6.55,2.84c-0.49,0.41,0.22,1.12,0.71,0.71
					c1.71-1.43,3.78-2.08,5.92-2.54c2.08-0.45,4.47-0.79,6.38,0.39C387.04,87.69,387.54,86.82,387,86.49L387,86.49z"/>
			</g>
		</g>
		<g>
			<g>
				<path d="M388.45,101.97c-0.14-0.52-0.41-1.29-0.86-1.63c-0.39-0.29-0.77-0.56-1.13-0.89c-0.31-0.29-0.56-0.67-0.88-0.94
					c-0.14-0.11-0.31-0.16-0.45-0.27c-0.18-0.14-0.29-0.35-0.47-0.49c-0.35-0.25-0.8-0.42-1.21-0.55c-0.96-0.31-1.99-0.36-2.99-0.45
					c-0.32-0.03-0.32,0.47,0,0.5c0.94,0.09,1.89,0.13,2.79,0.41c0.38,0.12,0.88,0.28,1.18,0.55c0.13,0.12,0.22,0.28,0.36,0.39
					c0.16,0.13,0.37,0.19,0.52,0.34c0.26,0.25,0.48,0.56,0.75,0.82c0.28,0.26,0.57,0.51,0.88,0.74c0.19,0.14,0.37,0.24,0.51,0.43
					c0.03,0.05,0.06,0.12,0.09,0.17c0.18,0.32,0.33,0.65,0.43,1.01C388.05,102.41,388.53,102.28,388.45,101.97L388.45,101.97z"/>
			</g>
		</g>
		<path d="M414.69,94.3c-1.22,0-2.29,0.58-2.99,1.46l0,0c0.07,0.04,0.14,0.09,0.2,0.16l0,0c0.02,0.02,0.13,0.16,0.14,0.19l0,0
			c0,0,0,0.01,0.01,0.01c0,0,0,0.01,0.01,0.01c0.03,0.06,0.07,0.16,0.09,0.22l0,0c0,0,0,0,0,0.01s0.01,0.02,0.01,0.03
			s0,0.02,0.01,0.03c0.01,0.08,0.03,0.17,0.03,0.25c0,0.01,0,0.01,0,0.02c0,0.02,0,0.05,0,0.07c0,0.01,0,0.01,0,0.02
			c-0.01,0.08-0.02,0.16-0.03,0.24c0,0.01,0,0.02-0.01,0.03c0,0.02-0.01,0.04-0.02,0.07c0,0,0,0.01-0.01,0.01v0.01
			c-0.03,0.07-0.06,0.14-0.09,0.2c0,0.01-0.01,0.02-0.01,0.02s0,0.01-0.01,0.01c0,0,0,0,0,0.01c-0.03,0.04-0.1,0.13-0.13,0.17l0,0
			c-0.05,0.05-0.15,0.12-0.18,0.14h-0.01l0,0l-0.19,0.08l0,0l0,0l0,0l0,0c-0.04,0-0.07,0.01-0.11,0.01
			c-0.04,0.01-0.07,0.01-0.11,0.01l0,0l0,0l0,0l0,0l0,0c-0.07-0.01-0.14-0.02-0.21-0.03c-0.06-0.03-0.12-0.05-0.18-0.08
			c-0.02,0.14-0.04,0.28-0.04,0.42c0,2.12,1.72,3.83,3.83,3.83s3.83-1.72,3.83-3.83S416.81,94.3,414.69,94.3z"/>
		<path d="M386.84,101.82c-0.16-0.36-0.37-0.74-0.54-1.13c-0.1-0.23-0.18-0.45-0.24-0.68c-0.11-0.46-0.24-0.84-0.55-1.23
			c-0.6-0.76-1.52-1.21-2.48-1.21c-0.74,0-1.41,0.27-1.95,0.69c0.06,0.04,0.11,0.08,0.16,0.13c0.05,0.06,0.1,0.12,0.14,0.18
			c0,0,0,0,0,0.01c0,0,0.08,0.2,0.09,0.2l0,0c0.02,0.08,0.03,0.16,0.03,0.24c-0.01,0.08-0.02,0.15-0.03,0.22l0,0l0,0
			c0,0-0.08,0.2-0.09,0.2l0,0l0,0c0,0.01-0.13,0.17-0.13,0.17s0,0-0.01,0.01c-0.05,0.05-0.12,0.1-0.19,0.14s-0.15,0.07-0.23,0.1
			c-0.01,0.01-0.03,0.01-0.04,0.02c-0.03,0.01-0.05,0.01-0.08,0.02c-0.08,0.01-0.17,0.03-0.25,0.03c-0.01,0-0.02,0-0.03,0
			c0,0,0,0-0.01,0c-0.04,0-0.08,0.03-0.12,0.03c-0.09-0.01-0.18-0.02-0.27-0.04c-0.01-0.01-0.03-0.01-0.04-0.02
			c-0.07,0.26-0.12,0.53-0.12,0.82c0,1.74,1.41,3.16,3.16,3.16c1.2,0,2.55-0.59,3.56-1.2c0.14-0.08,0.28-0.18,0.34-0.33
			C386.99,102.18,386.91,101.99,386.84,101.82z"/>
		<path d="M390.66,124c-0.98,0.38-1.09-0.61-1.3-1.24c-0.13-0.41-0.33-0.8-0.56-1.16c-1.06-1.67-3.33-3.36-1.91-5.51
			c1.06-1.59,3.54-2.43,4.25-4.31c0.28-0.73-0.29-3.77-0.89-4.2c-0.01-0.01,1.52,4.14-1.65,5.95c-1.59,0.91-3.42,2.66-3.14,4.33
			c0.35,2.08,2.29,3.49,3.04,5.36c0.24,0.6,0.53,1.29,1.19,1.5c1.06,0.35,1.9-0.75,2.95-0.62C392.65,124.09,392.17,123.4,390.66,124
			z"/>
		<path d="M399.14,122.44c0.37-0.01,0.74,0,1.08,0.14c0.22,0.09,0.44,0.3,0.38,0.52c-0.04,0.13-0.15,0.21-0.27,0.27
			c-0.47,0.23-1.02,0.18-1.53,0.06s-1.01-0.3-1.53-0.33c-0.45-0.02-0.88,0.09-1.32,0.19c0.47-0.26,0.86-0.46,1.39-0.59
			C397.93,122.55,398.53,122.47,399.14,122.44z"/>
		<path d="M408.01,117.83c-0.33-0.37-0.8-0.62-1.27-0.75c-0.3-0.09-0.62-0.15-0.93-0.2c-0.32-0.05-0.78-0.06-0.78-0.06
			s2.78,0.93,2.77,2.47c0,0.47-0.17,0.96-0.29,1.4c-0.22,0.82-0.73,1.75-1.37,2.31c-0.34,0.3-0.77,0.5-1.22,0.51
			c-0.24,0.01-1.68-0.15-1.61-0.1c0.21,0.17,0.41,0.25,0.67,0.34c0.29,0.11,0.53,0.23,0.83,0.27c0.52,0.06,1.08,0,1.52-0.29
			c0.94-0.62,1.45-1.74,1.85-2.75C408.58,119.99,408.79,118.7,408.01,117.83z"/>
		<g>
			<path d="M385.78,92.14c1.77,0.64,3.07,2.66,2.77,4.54C388.12,94.9,387.12,93.37,385.78,92.14L385.78,92.14z"/>
		</g>
		<g>
			<path d="M403.26,89.39c-1.17,1.71-1.72,3.69-2.14,5.7C400.82,93.04,401.55,90.64,403.26,89.39L403.26,89.39z"/>
		</g>
		<g>
			<path d="M377.22,77.99c1.4-1.01,3.04-1.78,4.81-1.92c3.36,0.17,6.73,0.31,10.09,0.03c1.45-0.27,3.01-0.69,4.18-1.56
				c2.81-1.82,6.23-1.87,9.46-1.84c1.62-0.05,3.22,0.26,4.81,0.52c1.58,0.16,3.22,0.02,4.74-0.5c-1.5,0.59-3.14,0.83-4.76,0.74
				c-1.62-0.19-3.15-0.48-4.79-0.38c-3.16,0.07-6.47,0.06-9.2,1.88c-1.23,0.89-2.87,1.33-4.39,1.59c-3.39,0.27-6.79,0.04-10.16-0.24
				C380.39,76.37,378.63,77.05,377.22,77.99L377.22,77.99z"/>
		</g>
		<g>
			<path d="M384.99,81.46c3.4,0.12,6.89,0.27,10.26-0.09c1.65-0.35,3.32-0.81,4.58-1.99c2.62-2.15,6.2-2.79,9.4-1.7
				c1.48,0.4,2.75,1.38,4.26,1.65c1.5,0.27,3.02,0.48,4.54,0.59c1.52,0.1,3.07,0.15,4.55-0.29c-1.45,0.52-3.03,0.55-4.56,0.53
				c-1.54-0.05-3.07-0.23-4.59-0.45c-1.56-0.21-2.83-1.19-4.33-1.58c-3.11-1.01-6.43-0.39-8.99,1.64c-1.33,1.18-3.07,1.71-4.78,2.01
				C391.85,82.06,388.43,81.77,384.99,81.46L384.99,81.46z"/>
		</g>
		<path d="M407.79,131.72c-2.63,1.48-6.03,2.26-8.99,1.81c-1.17-0.18-2.33-0.46-3.51-0.56c-0.66-0.05-1.31-0.03-1.96-0.01
			c-0.69,0.03-2.34-0.52-2.9-0.84c-1.15-0.66-0.9,0.29-1.06,1.55c-0.03,0.19,0.35-1.13,1.11-0.78c0.41,0.19,1.24,0.73,1.65,0.91
			c0.83,0.35,1.89,0.08,2.77,0.12c2.41,0.12,4.78,0.78,7.19,0.79c4.66,0.02,10.79-5.56,11-6.2
			C413.28,127.88,410.13,130.4,407.79,131.72z"/>
	</g>
	<path class="st6" d="M501.86,152.99c0-0.04-0.01-0.09-0.01-0.13c-0.17-1.62-0.35-3.3-1.15-4.72c-1.28-2.3-2.5-3.59-2.66-6.35
		c-0.2-3.56-1.51-6.94-2.81-10.26c-0.28-0.72-0.56-1.44-0.94-2.11c-0.47-0.84-1.09-1.59-1.71-2.33c-3.36-4.05-7.11-7.98-10.05-12.34
		c-2.26-3.35-4.4-7.28-5.37-11.23c-1.1-4.47-0.47-9.15-0.27-13.75c0.1-2.21,0.09-4.42,0.04-6.63c-0.03-1.35-0.08-2.69-0.14-4.04
		c-0.05-1.18-0.27-2.11-0.5-3.24c-1.47-7.12-2.53-14.51-5.46-21.22c-1.06-2.66-2.64-5.16-4.18-7.56c-0.75-1.17-1.46-2.48-2.36-3.54
		c-0.56-0.66-2.06-1.18-2.21-2.05c-0.04-0.2,0.03-0.41,0.1-0.61c0.72-2.24,0.56-4.42,0.84-6.73c0.27-2.31,0.7-4.6,0.92-6.92
		c0.28-2.87,0.52-6.16-0.31-8.93c-0.42-1.38-0.12-3.03-0.06-4.45c0.07-1.54,0.1-3.1-0.28-4.6c-0.06-0.25-0.14-0.51-0.32-0.7
		c-0.15-0.16-0.35-0.25-0.55-0.34c-2.19-1-4.1-2.48-6.64-2.36c-1.2,0.06-2.37,0.44-3.45,0.98c-3.55,1.79-5.98,5.16-8.66,8.1
		c-1.75,1.92-3.63,3.67-5.31,5.64c-0.6,0.7-1.44,1.35-2.36,1.23c-0.99-0.12-1.94-0.66-2.94-0.84c-1.25-0.22-2.5-0.47-3.75-0.71
		c-2.49-0.48-4.99-0.96-7.52-1.2c-4.36-0.42-8.93-0.11-12.84,1.88c-0.7,0.36-1.38,0.77-2.13,1.04c-0.73,0.26-1.5,0.37-2.27,0.48
		c-0.2,0.03-0.41,0.06-0.61-0.01c-0.19-0.07-0.34-0.23-0.47-0.39c-1.83-2.09-3-4.42-4.73-6.59c-1.15-1.45-2.35-2.87-3.64-4.2
		c-1.21-1.25-2.27-2.66-3.77-3.61c-0.97-0.61-2.1-1.02-3.24-1c-1.36,0.02-2.26,0.68-3.32,1.42c-2.84,1.99-1.69,6.81-1.58,9.75
		c0.06,1.6-0.03,3.2-0.13,4.8c-0.24,3.59-0.58,7.2-0.31,10.79c0.05,0.7,0.13,1.41-0.09,2.08c-0.17,0.52-0.5,0.98-0.83,1.42
		c-1.47,1.95-3,3.85-4.53,5.75c-2.03,2.53-3.61,5.3-5.28,8.09c-2.19,3.64-4.43,7.45-4.78,11.69c-0.17,2.04,0.3,4.01,0.27,6.06
		c-0.04,3.45-0.28,6.98-0.04,10.41c0.17,2.37,0.02,4.77-0.41,7.11c-0.2,1.1-0.58,2.11-0.86,3.17c-0.3,1.11-0.06,2.52,0.25,3.61
		c0.17,0.58,0.39,1.14,0.54,1.72c0.43,1.66,0.22,3.41-0.01,5.11c-0.32,2.39-0.66,4.78-1.02,7.17c-0.34,2.24-0.57,4.58-1.25,6.73
		c-1.46,4.61-2.48,9.42-3.71,14.11c-0.29,1.09-0.57,2.19-0.83,3.29c-1,4.34-1.49,8.8-1.47,13.25c0.02,2.91,0.15,5.77,1.01,8.55
		c0.79,2.57,1.95,5.03,3.45,7.27c0.05,0.07,0.1,0.15,0.15,0.22c0.45,0.66,0.95,1.45,0.68,2.2c-0.14,0.39-0.46,0.67-0.73,0.98
		c-0.87,1.01-1.25,2.42-0.99,3.73c0.11,0.57,0.34,1.11,0.45,1.68c0.37,1.84-0.43,3.87,0.38,5.56c0.87,1.82,3.55,1.75,5.31,1.87
		c5.5,0.38,11.06,0.95,16.23,2.88c1.21,0.45,2.41,0.96,3.62,1.4c0.81,0.29,1.62,0.5,2.33,0.99s1.3,1.14,1.87,1.78
		c1.42,1.57,2.85,3.14,4.27,4.71c0.24,0.26,0.48,0.53,0.78,0.73c0.34,0.22,0.73,0.34,1.07,0.57c0.67,0.46,0.52,1.15,0.44,1.84
		c-0.23,2.06-0.07,4.3,0.19,6.36c0.06,0.44,0.13,0.9,0.38,1.27c0.2,0.29,0.5,0.5,0.81,0.69c1.48,0.91,3.21,1.38,4.94,1.4
		c0.89,0.01,1.78-0.1,2.63-0.33c0.97-0.26,1.22-0.88,1.61-1.78c0.58-1.35,1.24-2.79,1.59-4.22c0.13-0.52,0.04-0.9,0.48-1.27
		c0.47-0.39,1.15-0.53,1.73-0.67c4.55-1.07,8.95-2.72,13.19-4.67c3.44-1.59,6.78-3.38,10.07-5.26c1.57-0.9,3.11-1.96,4.74-2.75
		c1.77-0.86,3.64-1.52,5.4-2.41c2.59-1.31,5.14-2.69,7.7-4.05c0.58-0.3,1.15-0.61,1.73-0.91c7.87-4.08,16.11-7.61,24.77-9.48
		c3.27-0.71,6.84-0.89,10.19-0.82c0.75,0.02,1.39,0.18,2.12,0.17c0.73-0.02,1.38,0.02,2.1,0.14c1.24,0.21,2.53,0.64,3.77,0.18
		s2.04-1.7,2.44-2.97C502.3,157.59,502.09,155.26,501.86,152.99z M437.98,108.87c0.33,0.67,0.66,1.34,0.99,2.01
		c2.17,4.5,3.99,9.18,5.44,13.96c1.38,4.56,3.03,9.74,2.86,14.55c-0.07,2.1-0.74,4.12-1.46,6.09c-0.87,2.37-1.89,4.79-3.75,6.5
		c-1.18,1.08-2.63,1.82-3.93,2.75c-0.99,0.71-1.89,1.51-2.81,2.31c-0.95,0.84-1.91,1.67-2.9,2.46c-7.37,5.82-16.7,8.64-24.29,14.17
		c-0.26,0.19-0.54,0.39-0.87,0.41c-0.31,0.02-0.61-0.14-0.88-0.29c-2.33-1.31-4.67-2.62-7-3.93c-0.33-0.19-0.7-0.41-0.81-0.78
		c-0.25-0.83,2.94-2.22,3.54-2.58c0.38-0.23,0.77-0.47,0.99-0.86c0.18-0.31,0.22-0.67,0.24-1.03c0.26-3.47-0.66-6.94-1.93-10.18
		c-0.8-2.05-2.25-4.37-4.45-4.27c-0.59,0.03-1.18,0.24-1.76,0.14c-0.58-0.1-1.05-0.49-1.5-0.87c-2.19-1.87-4.34-3.77-6.45-5.72
		c-1.81-1.66-3.99-3.28-5.17-5.42c-2.65-4.77-5.78-9.15-7.7-14.31c-0.51-1.36-0.94-2.75-1.45-4.1c-0.73-1.92-2.09-3.63-2.61-5.57
		c-0.52-1.9-0.21-3.47-0.39-5.35c-0.14-1.46-0.69-2.85-0.8-4.31c-0.1-1.32,0.48-2.3,0.7-3.57c1.32-7.3,3.15-14.48,4.75-21.7
		c0.46-2.08,0.91-4.17,1.32-6.26c0.5-2.58,1.05-5.15,1.63-7.71c0.41-1.8,0.86-3.66,2.03-5.08c1.23-1.51,3.09-2.34,4.88-3.12
		c6.7-2.91,13.46-4.68,20.84-3.65c3.19,0.44,6.37,1.72,8.52,4.12c2.9,3.24,3.45,7.88,5.12,11.9c1.07,2.56,2.6,4.87,3.64,7.42
		c1.12,2.75,2.83,5.2,4.31,7.75c1.6,2.76,2.96,5.65,4.31,8.54c2.22,4.74,3.95,9.65,6.21,14.37
		C437.58,108.05,437.77,108.46,437.98,108.87z"/>
	<path class="st0" d="M404.47,45.44c-0.58-0.15-1.13-0.37-1.64-0.69c-0.16-0.1-0.37-0.04-0.49,0.11c-0.05,0.02-0.11,0.03-0.15,0.05
		c-0.11,0.02-0.23,0.02-0.33,0.06c-0.09,0.03-0.16,0.09-0.21,0.16c-0.01,0-0.03-0.01-0.04-0.01c-0.02-0.01-0.03-0.02-0.05-0.03
		c-0.12-0.04-0.23-0.02-0.35,0c-0.2,0.03-0.37,0.28-0.36,0.47c0.01,0.22,0.15,0.4,0.36,0.47c0.25,0.08,0.53,0.11,0.79,0.15
		c0.27,0.04,0.54,0.07,0.81,0.1c0.25,0.02,0.5,0.03,0.75,0.04c0.13,0,0.27,0,0.4,0c0.14,0,0.28-0.03,0.4-0.04
		c0.21-0.02,0.39-0.15,0.41-0.36C404.8,45.7,404.68,45.49,404.47,45.44z"/>
	<path class="st7" d="M392.55,29.26c0.07-0.33,0.01-0.67-0.21-0.96c-0.09-0.12-0.2-0.18-0.31-0.22c-0.67-1.98-1.39-3.95-2.13-5.91
		c-0.43-1.15-0.87-2.29-1.34-3.42c-0.35-0.85-0.72-1.65-1.27-2.38c-0.2-0.48-0.48-0.96-0.97-1.03c-0.38-0.05-0.69,0.2-0.73,0.52
		c-0.12,0.17-0.21,0.38-0.25,0.58c-0.41,1.71-0.07,3.67-0.03,5.41c0.05,1.9,0.05,3.81,0.1,5.71c0.05,2,0.19,4.04,0.09,6.04
		c-0.02,0.31,0.38,0.56,0.65,0.37c1.02-0.73,1.93-1.55,3.01-2.19c1.08-0.64,2.21-1.13,3.36-1.63
		C392.9,29.98,392.82,29.48,392.55,29.26z"/>
	<path class="st7" d="M459.34,16.04c-0.89-1.08-1.78-0.1-2.43,0.66c-1.97,2.31-3.65,4.84-5.26,7.4c-0.9,1.43-1.78,2.88-2.7,4.3
		c-0.91,1.4-2.01,2.73-2.85,4.18c-0.01,0-0.02,0-0.02,0c-0.41-0.04-0.47,0.51-0.19,0.71c0.41,0.28,0.91,0.45,1.37,0.64
		c0.49,0.21,0.98,0.44,1.47,0.68c0.94,0.46,1.85,0.97,2.75,1.52c1.8,1.1,3.49,2.37,5.05,3.8c0.52,0.48,1.27-0.21,0.92-0.72
		c0.46-3.3,0.97-6.6,1.39-9.9c0.21-1.67,0.43-3.33,0.77-4.98c0.3-1.47,0.67-2.99,0.67-4.5C460.28,18.65,460.12,16.98,459.34,16.04z"
		/>
	<path class="st7" d="M427.04,28.44c-0.18-0.5-0.75-0.79-1.22-0.96c-0.46-0.17-0.95-0.25-1.44-0.25c-0.62,0.01-1.23,0.15-1.82,0.33
		c-0.47,0.14-1.05,0.29-1.34,0.72c-0.23,0.03-0.44,0.17-0.51,0.44c-0.15,0.52,0.28,0.96,0.74,1.11c0.49,0.16,1.08,0.14,1.59,0.16
		c0.57,0.03,1.13,0.03,1.7,0C425.54,29.94,427.49,29.72,427.04,28.44z"/>
	<path class="st7" d="M405.69,27.79c-0.18-0.13-0.36-0.26-0.56-0.36c-0.22-0.11-0.44-0.2-0.67-0.29c-0.43-0.17-0.88-0.28-1.34-0.38
		c-0.5-0.1-1.01-0.14-1.48,0.07c-0.17,0.07-0.33,0.2-0.46,0.33c-0.08,0.04-0.16,0.07-0.22,0.11c-0.29,0.2-0.53,0.53-0.42,0.9
		c0.11,0.35,0.45,0.52,0.79,0.57c0.74,0.11,1.47,0.18,2.22,0.2c0.72,0.01,1.49,0.06,2.14-0.31
		C406.02,28.44,405.98,27.99,405.69,27.79z"/>
	<path class="st7" d="M438.85,47.91c-1.78-1.62-3.94-3.1-6.17-4.03c-1.04-0.43-2.01-1-3.1-1.35c-1.12-0.36-2.27-0.63-3.39-1
		c-0.57-0.19-1.09-0.49-1.67-0.64c-0.71-0.18-1.43-0.28-2.13-0.47c-1.53-0.42-2.93-1.24-4.22-2.16c-1.46-1.03-2.8-1.86-4.55-2.27
		c-1.71-0.4-3.46-0.56-5.2-0.7c-2-0.16-4-0.17-5.98,0.2c-0.9,0.17-1.85,0.38-2.68,0.77c-0.77,0.36-1.46,0.78-2.29,1.03
		c-1.64,0.49-3.35,0.59-5.04,0.83c-2.51,0.36-4.71,1.12-6.86,2.48c-2.04,1.29-3.83,2.88-5.46,4.62c-0.97,1.05-2.07,1.9-2.91,3.08
		c-0.55,0.77-1.04,1.57-1.55,2.36c-0.52,0.81-1.04,1.54-1.38,2.44c-0.44,1.15-0.71,2.39-0.79,3.62c-0.07,1.21,0.04,2.5,0.41,3.66
		c0.13,0.42,0.31,0.81,0.52,1.2c0.22,0.96,0.63,1.87,0.96,2.8c0.31,0.87,0.45,1.71,0.37,2.64c-0.05,0.52-0.23,1.07-0.02,1.54
		c0.09,0.2,0.25,0.37,0.4,0.53c0.04,0.04,0.08,0.08,0.13,0.09c0.11,0.02,0.2-0.1,0.24-0.21c0.68-1.56,0.58-3.25,0.95-4.89
		c0.35-1.55,1.01-3.02,2.09-4.21c1.79-1.96,4.25-3.29,6.68-4.27c2.73-1.1,5.61-1.78,8.5-2.25c1.44-0.24,2.89-0.41,4.35-0.55
		c0.39-0.04,0.81-0.06,1.22-0.11c0.08,0.18,0.24,0.33,0.47,0.33c1.93-0.01,3.9-0.02,5.8,0.35c0.98,0.19,1.93,0.46,2.88,0.76
		c0.73,0.23,1.63,0.34,2.26,0.78c1.41,0.98,2.32,2.57,3.17,4.02c0.72,1.24,1.44,2.5,1.89,3.87c0.38,1.16,0.56,2.38,0.9,3.56
		c0.34,1.17,0.83,2.3,1.36,3.4c0.79,1.62,1.66,3.2,2.54,4.78c0.79,1.43,1.61,2.84,2.38,4.28c0.69,1.3,1.26,2.67,2.02,3.96
		c0.08,0.13,0.16,0.27,0.28,0.36c0.68,0.52,2.18-0.6,2.64-1.08c1.66-1.76,2.8-4.01,3.61-6.28c0.62-1.73,1.1-3.5,1.78-5.2
		c0.38-0.95,0.82-1.87,1.29-2.78c0.4-0.79,0.73-1.59,1.12-2.38c0.32-0.66,0.76-1.22,1.11-1.87c0.38-0.7,0.74-1.42,1.1-2.13
		c0.96-1.92,1.94-3.88,2.24-6c0.14-0.97,0.22-2.02,0.05-2.99c-0.17-0.98-0.57-1.9-0.99-2.79c-0.09-0.2-0.19-0.4-0.3-0.58
		C439.6,48.66,439.24,48.27,438.85,47.91z M404.69,46.21c-0.03,0.02-0.07,0.03-0.11,0.03c-0.03,0-0.04,0-0.06,0c0.03,0,0,0-0.01,0
		c-0.04,0-0.08,0-0.12,0.01c-0.09,0.01-0.17,0.02-0.26,0.04c-0.19,0.03-0.39,0.05-0.58,0.07c-0.24,0.02-0.46,0-0.7-0.08
		c-0.11-0.04-0.2-0.09-0.28-0.18c-0.03-0.03-0.05-0.07-0.08-0.11c-0.08,0.03-0.16,0.06-0.25,0.08c-0.32,0.09-0.66,0.11-0.97-0.01
		c-0.37-0.15-0.47-0.65-0.23-0.95c0.16-0.2,0.39-0.24,0.6-0.2c-0.01-0.01-0.01-0.02-0.02-0.02c-0.01,0-0.02,0-0.03,0
		c0.01,0,0.02,0,0.03,0l0,0c0.01,0,0.02,0,0.03,0c0.03,0,0.04,0,0.04,0c0.02,0,0.03-0.01,0.05-0.01c0.39-0.11,0.81-0.31,1.22-0.2
		c0.2,0.06,0.4,0.14,0.59,0.23c0.23,0.12,0.45,0.23,0.63,0.43c0.04,0.04,0.04,0.1,0.05,0.16c0.19-0.02,0.4-0.03,0.54,0.09
		c0.1,0.08,0.16,0.22,0.13,0.35C404.9,46.06,404.81,46.15,404.69,46.21z"/>
	<path class="st7" d="M406.88,184.48c-0.06-0.15-0.14-0.28-0.23-0.42c-0.23-0.72-0.73-1.35-1.5-1.5c-0.97-0.19-1.7,0.48-2.08,1.3
		c-0.03,0.03-0.06,0.05-0.08,0.08c-0.29,0.31-0.5,0.68-0.64,1.08c-0.27,0.77-0.15,1.68,0.32,2.36c0.49,0.71,1.29,1.2,2.17,1.16
		c0.95-0.04,1.65-0.64,1.96-1.52c0.13-0.38,0.17-0.8,0.2-1.21C407.03,185.37,407.03,184.9,406.88,184.48z"/>
	<path class="st8" d="M398.45,15.6c-0.81-0.89-1.65-1.75-2.51-2.59c-0.14-0.14-0.29-0.28-0.44-0.43c0.12,0.09,0.24,0.18,0.37,0.25
		c0.19,0.1,0.41-0.06,0.36-0.28c-0.18-0.78-0.89-1.44-1.43-1.99c-0.58-0.59-1.24-1.12-1.91-1.6c-1.38-1-2.86-1.84-4.43-2.51
		c-0.27-0.12-0.47,0.22-0.23,0.39c0.47,0.34,0.95,0.66,1.43,0.99c-1.56-0.67-3.4-0.51-4.76,0.6c-1.31,1.08-2.18,3.11-1.37,4.71
		c0.02,0.04,0.09,0.02,0.09-0.02c0.06-1.97,0.64-3.87,2.77-4.41c2.04-0.52,3.53,0.84,4.97,2.07c1.49,1.27,2.92,2.6,4.3,3.99
		c0.71,0.71,1.39,1.44,2.07,2.19c0.62,0.69,1.27,1.71,2.13,2.09c0.41,0.17,0.86-0.11,0.75-0.58
		C400.36,17.38,399.18,16.39,398.45,15.6z"/>
	<path class="st8" d="M461.43,7.46c-1.57-1.57-4.59-1.12-6.49-0.51c-2.45,0.8-4.33,2.49-6.23,4.17c-2.15,1.89-4.3,3.79-6.43,5.69
		c-1.07,0.95-2.14,1.9-3.19,2.87c-0.87,0.81-1.87,1.6-2.64,2.53c-0.05-0.03-0.09-0.07-0.14-0.09c-4.36-1.8-9.39-2.5-14.08-2.53
		c-4.72-0.03-9.53,0.67-13.98,2.28c-2.5,0.9-5.04,1.97-7.16,3.59c-0.07,0.05-0.04,0.2,0.07,0.16c2.79-0.98,5.47-2.13,8.34-2.91
		c2.9-0.78,5.85-1.28,8.84-1.5c2.95-0.22,5.94-0.14,8.88,0.24c2.99,0.38,5.83,1.2,8.71,2.07c0.47,0.14,0.77-0.13,0.85-0.48
		c1.01-0.57,1.89-1.46,2.77-2.2c1.02-0.85,2.01-1.71,3.01-2.58c1.95-1.7,3.89-3.41,5.84-5.12c1.78-1.57,3.53-3.39,5.69-4.44
		c1.11-0.54,2.36-0.87,3.6-0.93c1.17-0.06,2.15,0.26,3.26,0.53C461.42,8.4,461.79,7.82,461.43,7.46z"/>
	<path class="st8" d="M428.23,32.59c-0.7-0.76-1.97-1.18-2.94-1.47c-1.08-0.31-2.22-0.45-3.34-0.52s-2.24-0.05-3.36,0
		c-0.94,0.04-2.17,0.06-2.75,0.94c-0.07,0.11,0.05,0.22,0.16,0.21c1.99-0.31,4.05-0.17,6.05,0.05c0.98,0.11,1.95,0.3,2.9,0.59
		c0.47,0.14,0.93,0.3,1.37,0.51c0.46,0.21,0.87,0.51,1.35,0.68C428.25,33.78,428.6,32.99,428.23,32.59z"/>
	<path class="st8" d="M426.06,26.65c-0.75-0.25-1.54-0.25-2.31-0.13s-1.53,0.42-2.21,0.78c-0.12,0.06-1.42,0.82-1.06,1.06
		c0.17,0.11,0.39-0.01,0.56-0.08c0.29-0.12,0.58-0.26,0.88-0.36c0.64-0.21,1.28-0.39,1.94-0.5c0.62-0.1,1.25-0.1,1.85,0.08
		c0.28,0.09,0.55,0.21,0.79,0.38c0.24,0.17,0.43,0.39,0.74,0.39c0.19,0,0.32-0.15,0.34-0.34C427.65,27.27,426.57,26.82,426.06,26.65
		z"/>
	<path class="st8" d="M406.03,26.92c-0.3-0.18-0.6-0.35-0.9-0.5c-0.6-0.29-1.21-0.51-1.87-0.57c-0.54-0.05-1.15-0.01-1.64,0.22
		c-0.41,0.2-1.01,0.53-1.11,1.01c-0.02,0.09,0.06,0.18,0.15,0.15c0.21-0.07,0.37-0.2,0.56-0.3c0.21-0.11,0.43-0.17,0.66-0.21
		c0.47-0.08,0.93-0.12,1.4-0.03c0.54,0.11,1.07,0.31,1.56,0.56c0.26,0.13,0.52,0.28,0.77,0.42c0.25,0.15,0.53,0.37,0.83,0.25
		c0.12-0.05,0.24-0.16,0.23-0.3C406.63,27.24,406.33,27.09,406.03,26.92z"/>
	<path class="st8" d="M406.76,30.88c-0.02-0.25-0.17-0.54-0.45-0.59c-0.83-0.15-1.75-0.07-2.59-0.05c-0.9,0.03-1.8,0.1-2.69,0.21
		c-0.85,0.1-1.72,0.23-2.54,0.46c-0.64,0.18-1.19,0.4-1.53,1.01c-0.03,0.05,0.02,0.12,0.08,0.1c0.65-0.21,1.35-0.26,2.03-0.31
		c0.77-0.06,1.55-0.11,2.32-0.16c0.78-0.05,1.56-0.08,2.34-0.09c0.76-0.01,1.59-0.11,2.34,0.01l-0.02-0.02
		c0.06,0.02,0.11,0.05,0.17,0.04c0.28-0.01,0.59-0.25,0.56-0.56C406.76,30.92,406.76,30.9,406.76,30.88z"/>
	<path class="st8" d="M475.67,85.9c0-2.02,0.15-4.04,0.22-6.06c0.08-2.11-0.04-4.19-0.33-6.28c-0.28-2.03-0.69-4.04-1.11-6.04
		c-0.4-1.92-0.71-3.9-1.31-5.77c-0.61-1.88-1.56-3.64-2.26-5.48c-0.69-1.81-1.31-3.65-2.06-5.43c-1.36-3.24-3.4-7.08-6.84-8.48
		c-0.25-0.1-0.47,0.29-0.27,0.46c1.29,1.09,2.53,2.22,3.5,3.63c0.98,1.42,1.72,2.98,2.33,4.59c0.67,1.76,1.2,3.56,1.81,5.34
		c0.61,1.77,1.38,3.48,2,5.24s0.95,3.61,1.34,5.44c0.43,1.99,0.86,3.97,1.18,5.98c0.31,1.94,0.49,3.9,0.47,5.86
		c-0.02,2.01-0.2,4.01-0.22,6.03c-0.05,4.57,0.38,9.13,0.99,13.65c0.11,0.83,1.41,0.88,1.35,0
		C476.14,94.35,475.68,90.14,475.67,85.9z"/>
	<path class="st8" d="M457.59,39.74c-0.29-0.46-0.79-0.77-1.21-1.1c-0.46-0.36-0.93-0.72-1.41-1.06c-0.95-0.68-1.93-1.34-2.94-1.93
		c-0.98-0.58-2-1.1-3.03-1.58c-1.05-0.5-2.14-1.04-3.29-1.26c-0.37-0.07-0.58,0.39-0.26,0.61c0.95,0.62,2.02,1.04,3.02,1.57
		c1.01,0.53,1.99,1.11,2.96,1.71c0.94,0.58,1.87,1.18,2.76,1.83c0.47,0.34,0.94,0.69,1.4,1.05c0.44,0.35,0.85,0.77,1.38,0.99
		C457.42,40.74,457.83,40.12,457.59,39.74z"/>
	<path class="st8" d="M392.1,29.44c-1.47,0.55-2.93,1.26-4.2,2.2c-0.63,0.47-1.2,0.97-1.75,1.53c-0.28,0.28-0.55,0.55-0.81,0.84
		c-0.24,0.26-0.46,0.45-0.43,0.82c0,0.02,0.01,0.03,0.03,0.03c0.33,0,0.47-0.16,0.7-0.37c0.27-0.25,0.56-0.49,0.85-0.72
		c0.6-0.47,1.25-0.89,1.9-1.29c1.28-0.79,2.58-1.47,4-1.98C393.06,30.27,392.77,29.19,392.1,29.44z"/>
	<path class="st8" d="M394.76,37.48c-2.44-0.14-5,0.08-7.27,1.04c-2.18,0.92-4.05,2.42-5.79,4.01c-3.44,3.13-7.09,6.63-8.45,11.23
		c-0.7,2.36-0.65,5.07,0.56,7.27c0.01,0.02,0.03,0,0.03-0.01c-0.44-1.45-0.6-2.79-0.46-4.29c0.14-1.51,0.52-3.02,1.14-4.4
		c1.17-2.62,3.11-4.82,5.13-6.83c1.99-1.97,4.06-4.02,6.49-5.45c1.31-0.77,2.72-1.27,4.21-1.57c1.48-0.3,2.98-0.42,4.46-0.68
		C394.99,37.77,394.93,37.49,394.76,37.48z"/>
	<path class="st8" d="M440.09,47.87c-1.15-1.46-2.6-2.69-4.24-3.55c-1.83-0.96-3.72-1.38-5.72-1.8c-0.03-0.01-0.05,0.04-0.02,0.05
		c3.14,1.33,6.46,2.65,8.78,5.26c1.11,1.25,1.99,2.75,2.38,4.39c0.25,1.06,0.23,2.1,0.03,3.11c-0.16-0.02-0.35,0.07-0.36,0.27
		c-0.12,2.31-1.08,4.27-2.2,6.25c-0.59,1.04-1.17,2.07-1.73,3.12c-0.61,1.13-1.1,2.3-1.7,3.43c-0.02,0.04,0.03,0.07,0.05,0.03
		c0.73-1.15,1.55-2.24,2.26-3.4c0.68-1.11,1.35-2.22,2.01-3.34c0.73-1.25,1.51-2.61,1.82-4.05
		C443.43,54.61,442.15,50.49,440.09,47.87z"/>
	<path class="st8" d="M410.88,34.27c-1.71-0.23-3.46-0.4-5.18-0.28c-0.13,0.01-0.18,0.22-0.03,0.24c1.7,0.32,3.45,0.36,5.17,0.34
		C411,34.56,411.05,34.29,410.88,34.27z"/>
	<path class="st8" d="M381.54,38.54c-1.47,1.01-2.59,2.54-3.7,3.91c-1.15,1.42-2.25,2.89-3.31,4.39c-2.08,2.97-4.21,6.08-5.59,9.45
		c-1.54,3.74-1.12,7.73-0.96,11.67c0.16,3.94,0.4,7.9,0.28,11.84c-0.07,2.2-0.27,4.41-0.81,6.56c-0.5,2.01-1.54,4.1-0.96,6.2
		c0.05,0.19,0.19,0.3,0.34,0.35c0.05,0.37,0.09,0.75,0.15,1.11c0.2,1.21,0.33,2.51,0.85,3.63c0.11,0.24,0.42,0.08,0.44-0.12
		c0.09-0.7-0.02-1.4-0.1-2.1c-0.08-0.67-0.2-1.35-0.35-2.01c-0.09-0.38-0.18-0.76-0.27-1.13c0-1.91,0.7-3.6,1.2-5.41
		c0.49-1.8,0.77-3.66,0.89-5.52c0.25-3.76,0.01-7.55-0.14-11.31c-0.08-1.97-0.16-3.94-0.25-5.91c-0.09-1.93-0.11-3.89,0.37-5.78
		c0.47-1.81,1.33-3.48,2.22-5.12c0.86-1.58,1.73-3.15,2.69-4.67c1.06-1.69,2.19-3.34,3.37-4.94c1.21-1.65,2.74-3.21,3.7-5.03
		C381.62,38.56,381.58,38.51,381.54,38.54z"/>
	<path class="st8" d="M387.57,178.92c-2.67-2.8-6.75-3.8-9.95-5.84c-3.54-2.25-6.36-5.72-9.08-8.86c-2.71-3.12-4.93-6.54-6.28-10.46
		c-1.3-3.77-1.75-7.69-1.76-11.66c-0.01-2.32,0.3-4.59,0.74-6.87c0.22-1.14,0.45-2.28,0.61-3.43c0.18-1.27,0-2.48-0.08-3.74
		c0-0.06-0.09-0.06-0.09,0c0.02,1.21-0.36,2.4-0.6,3.59c-0.23,1.12-0.51,2.22-0.79,3.33c-0.5,2-0.88,3.99-1.1,6.04
		c-0.44,3.97,0.03,8.05,1.16,11.87c1.16,3.92,3.09,7.5,5.63,10.69c1.39,1.74,2.91,3.38,4.42,5.02c1.47,1.58,2.99,3.13,4.7,4.45
		c1.83,1.42,3.87,2.4,5.95,3.38c2.07,0.97,3.99,2.04,5.82,3.42C387.41,180.24,388.01,179.38,387.57,178.92z"/>
	<path class="st8" d="M364.33,169.7c-0.47-0.68-0.77-1.43-0.78-2.27c-0.01-0.72,0.15-1.38,0.54-2c0.18-0.28,0.4-0.52,0.65-0.74
		c0.28-0.24,0.64-0.36,0.89-0.63c0.34-0.38,0.13-1.1-0.44-1.07c-0.87,0.04-1.7,0.93-2.17,1.59c-0.54,0.76-0.81,1.71-0.77,2.64
		c0.04,0.95,0.43,1.88,1.07,2.58c0.78,0.84,1.77,1.45,2.61,2.22c0.03,0.03,0.07-0.01,0.04-0.04
		C365.38,171.26,364.86,170.46,364.33,169.7z"/>
	<path class="st8" d="M447.01,143.65c-0.11-0.51-0.78-0.41-0.94,0c-0.63,1.65-0.49,3.5-1.12,5.18c-0.59,1.56-1.68,2.87-2.91,3.98
		c-2.53,2.29-5.69,3.77-8.12,6.18c-1.27,1.26-2.36,2.64-3.88,3.64c-1.45,0.96-3.05,1.66-4.62,2.4c-3.15,1.49-6.31,2.95-9.39,4.58
		c-1.73,0.92-3.43,1.88-5.06,2.96c-1.58,1.04-3.27,2.17-4.49,3.63c-0.06,0.07,0.01,0.16,0.09,0.12c1.66-0.8,3.19-1.89,4.78-2.82
		c1.52-0.89,3.07-1.72,4.64-2.52c3.24-1.65,6.56-3.13,9.85-4.66c1.66-0.77,3.35-1.52,4.88-2.53c1.48-0.98,2.6-2.27,3.82-3.54
		c2.49-2.58,5.79-4.11,8.45-6.49c1.34-1.2,2.5-2.62,3.18-4.3C446.89,147.75,447.39,145.49,447.01,143.65z"/>
	<path class="st8" d="M453.66,137.48c-0.09-1.3-0.16-2.64-0.62-3.87c-0.08-0.21-0.37-0.18-0.39,0.05c-0.08,1.27,0.09,2.55,0.11,3.82
		c0.03,1.28,0,2.56-0.06,3.84c-0.12,2.56-0.22,5.18-0.72,7.69c-0.43,2.16-1.23,4.18-2.31,6.09c-0.51,0.91-1.08,1.79-1.72,2.61
		c-0.65,0.83-1.47,1.51-2.1,2.36c-0.05,0.07,0.04,0.14,0.11,0.11c0.98-0.47,1.71-1.29,2.46-2.06c0.76-0.79,1.45-1.63,2.06-2.55
		c1.21-1.83,2.07-3.97,2.52-6.12c0.53-2.55,0.69-5.22,0.75-7.81C453.77,140.26,453.75,138.87,453.66,137.48z"/>
	<path class="st8" d="M500.26,147.63c-0.79-1.31-1.79-2.46-2.85-3.56c0.43,0,0.89-0.32,0.84-0.79c-0.12-1.19-0.51-2.37-0.83-3.51
		c-0.33-1.18-0.69-2.36-1.08-3.53c-0.77-2.29-1.67-4.55-2.81-6.69c-1.13-2.13-2.53-4.08-4.15-5.88c-1.72-1.91-3.56-3.69-5.16-5.71
		c-1.77-2.24-3.13-4.75-4.43-7.28c-0.03-0.05-0.1-0.01-0.09,0.04c0.98,4.86,3.83,8.95,7.09,12.57c1.69,1.87,3.28,3.74,4.56,5.92
		c1.09,1.86,1.97,3.84,2.72,5.86c-0.03,0.21-0.07,0.41-0.09,0.62c-0.02,0.32-0.04,0.64-0.09,0.95c-0.09,0.51-0.26,0.98-0.56,1.38
		c-0.38-0.29-0.74-0.59-1.08-0.92c-0.18-0.17-0.51,0.06-0.36,0.28c0.32,0.48,0.68,0.92,1.07,1.34c0.04,0.27,0.28,0.5,0.56,0.51
		c0.11,0.1,0.21,0.2,0.33,0.3c0.06,0.18,0.14,0.35,0.27,0.51c0.14,0.17,0.38,0.19,0.58,0.12c0.28,0.19,0.56,0.39,0.87,0.55
		c0.1,0.05,0.21,0.09,0.31,0.14c0.21,0.82,0.44,1.65,0.73,2.43c-0.35-0.35-0.7-0.7-1.05-1.06c-0.91-0.92-1.83-1.86-2.6-2.91
		c-0.7-0.95-1.69-2.22-1.95-3.38c-0.01-0.07-0.11-0.04-0.1,0.03c0.11,0.63,0.07,1.23,0.24,1.85c0.12,0.46,0.3,0.9,0.51,1.34
		c0.47,0.99,1.11,1.91,1.79,2.77c1.43,1.8,3.17,3.35,4.52,5.21c1.08,1.49,1.76,3.07,2.02,4.8c-0.04,0-0.08,0.01-0.06,0.06
		c0.05,0.13,0.07,0.27,0.1,0.41c0.03,0.28,0.04,0.56,0.05,0.85c-0.02,0.35-0.07,0.7-0.13,1.02c-0.14,0.7-0.37,1.39-0.7,2.02
		c-0.32,0.61-0.67,1.19-1.08,1.73c-0.42,0.55-0.93,1.02-1.36,1.56c-0.42,0.51-0.77,1.11-0.79,1.79c-0.02,0.61,0.27,1.24,0.92,1.34
		c0.62,0.1,1.1-0.35,1.43-0.82c0.04,0.01,0.08,0.01,0.12,0.01c0.2,0.22,0.49,0.31,0.79,0.09c0.72,0.25,1.33-0.48,1.51-1.15
		c-0.01,0-0.02,0-0.03,0c0.01-0.05,0.04-0.09,0.05-0.15c0.01-0.21-0.12-0.35-0.28-0.44c0.19-0.44,0.35-0.9,0.47-1.34
		c0.35-1.28,0.56-2.62,0.69-3.93C501.94,152.43,501.59,149.85,500.26,147.63z"/>
	<path class="st8" d="M450.5,119.31c-0.15-1.41-0.4-2.82-0.74-4.2c-0.67-2.77-1.53-5.53-2.89-8.05c-1.4-2.6-3.16-5-4.85-7.42
		c-0.89-1.27-1.79-2.53-2.7-3.79c-0.76-1.04-1.51-2.38-2.58-3.13c-0.05-0.04-0.11,0.02-0.1,0.08c0.31,1.36,1.35,2.62,2.08,3.79
		c0.76,1.22,1.53,2.43,2.31,3.63c1.52,2.34,3.17,4.63,4.53,7.08c1.36,2.45,2.21,5.14,2.92,7.84c0.35,1.33,0.68,2.66,0.89,4.01
		c0.13,0.78,0.22,1.57,0.27,2.36c0.04,0.66,0,1.34,0.16,1.98c0.09,0.34,0.54,0.3,0.65,0C450.89,122.24,450.64,120.59,450.5,119.31z"
		/>
	<path class="st8" d="M406.89,187.95c-0.14-0.32-0.68-0.31-0.82,0c-0.01,0.03-0.03,0.06-0.05,0.09c0.04-0.05,0.03-0.04-0.02,0.03
		c-0.05,0.07-0.08,0.14-0.13,0.21c0.06-0.08-0.06,0.06-0.06,0.06c0,0.01-0.06,0.05-0.08,0.07c-0.2,0.14-0.44,0.17-0.71,0.17
		c-0.31,0.01-0.63,0.01-0.93-0.04c-0.29-0.05-0.51-0.14-0.74-0.3c-0.4-0.3-0.69-0.76-0.8-1.26c-0.07-0.32-0.09-0.65-0.08-0.98
		c0.01-0.36,0.03-0.72,0.09-1.07c0.01-0.06-0.07-0.1-0.1-0.04c-0.18,0.27-0.37,0.55-0.47,0.86s-0.16,0.63-0.19,0.96
		c-0.04,0.61,0.12,1.23,0.41,1.76c0.3,0.55,0.84,0.95,1.43,1.14c0.35,0.11,0.72,0.15,1.08,0.17c0.35,0.03,0.7,0.02,1.04-0.06
		c0.36-0.08,0.72-0.28,0.96-0.56c0.14-0.16,0.24-0.36,0.29-0.56C407.05,188.37,406.99,188.17,406.89,187.95z"/>
	<path class="st8" d="M409.23,188.92c-0.01-0.06-0.09-0.07-0.13-0.03c-0.29,0.25-0.41,0.63-0.54,0.97c-0.06,0.15-0.1,0.31-0.15,0.46
		c-0.07,0.01-0.14,0.03-0.19,0.11c-0.82,1.53-0.77,3.4-1.83,4.82c-0.46,0.62-1.1,1-1.81,1.26c-0.36,0.13-0.72,0.22-1.09,0.33
		c-0.38,0.11-0.77,0.18-1.1,0.42c-0.09,0.06-0.12,0.22,0,0.28c0.74,0.33,1.75,0.15,2.51-0.04c0.86-0.22,1.69-0.68,2.27-1.36
		c0.82-0.98,1.2-2.25,1.37-3.53c0.12-0.46,0.22-0.92,0.33-1.38c0.09-0.4,0.19-0.79,0.27-1.19
		C409.21,189.66,409.32,189.29,409.23,188.92z"/>
	
		<linearGradient id="SVGID_00000158715576955867501090000002479066844940736676_" gradientUnits="userSpaceOnUse" x1="431.2027" y1="602.3689" x2="397.8663" y2="623.2193" gradientTransform="matrix(1 0 0 -1 0 799.8898)">
		<stop  offset="0" style="stop-color:#A35E26"/>
		<stop  offset="0.3854" style="stop-color:#C77639;stop-opacity:0.6146"/>
		<stop  offset="1" style="stop-color:#FC9956;stop-opacity:0"/>
	</linearGradient>
	<path style="fill:url(#SVGID_00000158715576955867501090000002479066844940736676_);" d="M404.55,200.94
		c1.66,0.16,3.54,0.04,4.66-1.19c0.68-0.75,0.95-1.78,1.2-2.76c0.9-3.6,1.81-7.2,2.71-10.8c0.4-1.61,0.82-3.26,1.77-4.62
		c1.35-1.95,3.56-3.07,5.63-4.23c2.06-1.16,4.18-2.59,5.04-4.8c-3.77,1.3-7.53,2.66-11.26,4.08c-0.67,0.26-1.36,0.52-1.91,0.99
		c-0.49,0.42-0.84,0.98-1.14,1.55c-1.88,3.54-2.26,7.67-2.44,11.67c-0.06,1.24-0.1,2.49-0.5,3.67c-0.4,1.17-1.21,2.27-2.37,2.7
		c-1.43,0.52-6.59-1.47-7.19,0.01C397.84,199.5,403.31,200.83,404.55,200.94z"/>
	
		<linearGradient id="SVGID_00000059300730158703039650000013517333466927899049_" gradientUnits="userSpaceOnUse" x1="401.2276" y1="669.8431" x2="349.9738" y2="643.2854" gradientTransform="matrix(1 0 0 -1 0 799.8898)">
		<stop  offset="0" style="stop-color:#A35E26"/>
		<stop  offset="0.3854" style="stop-color:#C77639;stop-opacity:0.6146"/>
		<stop  offset="1" style="stop-color:#FC9956;stop-opacity:0"/>
	</linearGradient>
	<path style="fill:url(#SVGID_00000059300730158703039650000013517333466927899049_);" d="M366.71,122.16
		c-0.3,3.25-0.59,6.49-0.89,9.74c-0.44,4.86-0.23,9.46,2.13,13.85c2.64,4.92,7.14,8.41,11.57,11.61c5.26,3.8,10.8,7.19,16.41,10.45
		c1.34,0.78,2.75,1.4,3.98,0.31c0.45-0.39,0.74-1.02,1.19-1.44c0.53-0.49,1.43-0.87,1.76-1.53c0.15-0.31,0.11-0.67,0.06-1.01
		c-0.46-3.38-0.93-6.77-1.88-10.04c-0.4-1.38-1.16-3.57-2.78-3.9c-0.8-0.17-1.77,0.17-2.66-0.04c-0.86-0.21-1.69-0.59-2.39-1.13
		c-0.52-0.4-0.97-0.87-1.42-1.34c-1.92-2.01-3.69-3.85-5.94-5.43c-2.11-1.48-3.98-3.87-5.38-6.01c-1.58-2.42-2.68-5.12-3.94-7.72
		c-2.54-5.26-5.82-10.39-6.33-16.2c-0.05-0.62-0.13-2.96-0.99-3.06c-1.1-0.13-1.27,2.73-1.38,3.38
		C367.29,115.78,367,118.97,366.71,122.16z"/>
	
		<linearGradient id="SVGID_00000068643531185755652680000012655066597564419200_" gradientUnits="userSpaceOnUse" x1="460.902" y1="612.1703" x2="446.5399" y2="656.6749" gradientTransform="matrix(1 0 0 -1 0 799.8898)">
		<stop  offset="0" style="stop-color:#A35E26"/>
		<stop  offset="0.3854" style="stop-color:#C77639;stop-opacity:0.6146"/>
		<stop  offset="1" style="stop-color:#FC9956;stop-opacity:0"/>
	</linearGradient>
	<path style="fill:url(#SVGID_00000068643531185755652680000012655066597564419200_);" d="M495.74,162.17
		c0.75-3.67,4.68-6.7,3.74-10.32c-0.72-2.79-3.9-4.02-6.63-4.97c-2.72-0.95-5.85-2.61-6-5.49c-5.09,1.31-9.89,3.73-13.96,7.05
		c-1.9,1.55-3.73,3.34-6.08,4.04c-3.28,0.98-7.15-0.64-8.75-3.68c-3.42,9.06-9.12,17.24-16.43,23.6c-3.75,3.26-8.68,6.18-13.44,4.75
		c-0.53-0.16-1.07-0.38-1.63-0.32c-0.42,0.05-0.81,0.25-1.18,0.44c-2.41,1.27-4.82,2.54-7.23,3.81c-1.76,0.93-3.66,2.07-4.75,3.79
		c-0.55,0.86-0.56,1.66-0.79,2.61c-0.27,1.1-0.65,2.07-0.68,3.25c-0.05,1.73,0.66,1.8,2.28,1.6c1.8-0.22,3.55-0.77,5.25-1.37
		c10.2-3.57,19.71-8.79,29.15-13.99c4.64-2.56,9.28-5.12,14.02-7.51c4.84-2.44,10.26-4,15.48-5.44c5.4-1.49,11.52-1.7,17.1-1.84
		C495.24,162.18,495.73,162.18,495.74,162.17z"/>
	
		<linearGradient id="SVGID_00000099650078208765592560000007691273458463860376_" gradientUnits="userSpaceOnUse" x1="401.4163" y1="672.8336" x2="369.5772" y2="623.9431" gradientTransform="matrix(1 0 0 -1 0 799.8898)">
		<stop  offset="0" style="stop-color:#A35E26"/>
		<stop  offset="0.3854" style="stop-color:#C77639;stop-opacity:0.6146"/>
		<stop  offset="1" style="stop-color:#FC9956;stop-opacity:0"/>
	</linearGradient>
	<path style="fill:url(#SVGID_00000099650078208765592560000007691273458463860376_);" d="M401.22,178.99
		c0.15-0.63,0.35-1.33,0.91-1.66c1.02-0.6,2.49,0.46,3.47-0.23c0.69-0.48,0.62-1.6,0.09-2.25s-1.36-0.97-2.15-1.27
		c-10.97-4.26-20.22-11.9-29.27-19.42c-1.53-1.27-2.68-2.18-3.75-3.88c-1.09-1.73-2.01-3.56-2.76-5.45
		c-1.52-3.86-2.32-8.01-2.29-12.17c0.02-3.19,0.51-6.35,1-9.5c-2.28,5.91-3.21,12.25-3.78,18.56c-0.27,3.01-0.46,6.12,0.48,8.99
		c0.04,0.13,0.1,0.28,0.23,0.34c0.25,0.12,0.49-0.18,0.76-0.29c0.37-0.15,0.78,0.15,0.94,0.51c0.15,0.36,0.12,0.77,0.12,1.17
		c0,3.61,3.11,6.87,5.7,9.02c2.96,2.46,6.34,4.48,8.81,7.49c-0.32,0.06-0.64,0.12-0.96,0.18c-0.24,0.74,0.13,1.54,0.55,2.19
		c2.07,3.2,5.62,5.16,8.01,8.13c0.22,0.27,0.43,0.55,0.73,0.73c0.22,0.13,0.48,0.2,0.73,0.27c3.12,0.96,5.1,3.94,6.98,6.61
		c0.54,0.77,1.21,1.61,2.15,1.72c1.71,0.2,1.6-2.58,1.85-3.64C400.24,183.1,400.73,181.05,401.22,178.99z"/>
	
		<linearGradient id="SVGID_00000131343400535349351870000011577823121424559782_" gradientUnits="userSpaceOnUse" x1="406.0612" y1="638.1495" x2="351.2239" y2="674.6089" gradientTransform="matrix(1 0 0 -1 0 799.8898)">
		<stop  offset="0" style="stop-color:#A35E26"/>
		<stop  offset="0.3854" style="stop-color:#C77639;stop-opacity:0.6146"/>
		<stop  offset="1" style="stop-color:#FC9956;stop-opacity:0"/>
	</linearGradient>
	<path style="fill:url(#SVGID_00000131343400535349351870000011577823121424559782_);" d="M382.44,139.33
		c0.66,0.87,1.49,1.6,2.31,2.32c2.49,2.2,4.98,4.4,7.47,6.59c0.5,0.45,1.02,0.9,1.65,1.15c1.53,0.62,3.46-0.06,4.8,0.89
		c0.5,0.36,0.84,0.89,1.14,1.43c2.3,4.02,3.54,8.64,3.56,13.27c0,0.32-0.01,0.66-0.19,0.92c-0.14,0.2-0.35,0.33-0.56,0.46
		c-0.89,0.53-1.78,1.06-2.68,1.59c-0.28,0.17-0.59,0.34-0.92,0.31c-0.21-0.02-0.41-0.13-0.6-0.24c-4.24-2.4-8.48-4.8-12.71-7.2
		c-2.49-1.41-4.98-2.82-7.33-4.46c-1.66-1.16-3.28-2.48-4.27-4.24c-0.33-0.59-0.57-1.38-0.13-1.89c0.15-0.18,0.36-0.29,0.54-0.43
		c0.91-0.75,0.84-2.15,0.62-3.31c-1.2-6.5-4.11-12.72-4.26-19.33c0.66,0.64,1.74,1.29,2.39,0.64c0.14-0.14,0.25-0.34,0.43-0.4
		c0.25-0.08,0.5,0.1,0.69,0.27c1.86,1.65,2.96,3.71,4.53,5.58C380.47,135.06,381,137.43,382.44,139.33z"/>
	
		<linearGradient id="SVGID_00000136395921008119236650000011707374089506077590_" gradientUnits="userSpaceOnUse" x1="345.0411" y1="715.6799" x2="391.0406" y2="715.4434" gradientTransform="matrix(1 0 0 -1 0 799.8898)">
		<stop  offset="0" style="stop-color:#A35E26"/>
		<stop  offset="0.3854" style="stop-color:#C77639;stop-opacity:0.6146"/>
		<stop  offset="1" style="stop-color:#FC9956;stop-opacity:0"/>
	</linearGradient>
	<path style="fill:url(#SVGID_00000136395921008119236650000011707374089506077590_);" d="M374.34,79.38
		c0.53-2.95,1.06-5.91,1.07-8.9c0.01-2.99-0.53-6.04-2.01-8.64c0.52,2.55,0.17,5.26-0.98,7.59c-0.56,1.13-1.31,2.24-1.31,3.5
		c0,0.7,0.24,1.38,0.42,2.05c1.04,3.79,0.51,7.83-0.35,11.67s-2.05,7.63-2.31,11.55c-0.08,1.18-0.07,2.37-0.34,3.52
		c-0.22,0.95-0.64,1.87-0.67,2.85c-0.04,0.91,0.4,2.1,1.38,2.28c0.76-1.75,0.73-3.87,0.96-5.75c0.24-2.05,0.76-4.06,1.19-6.08
		C372.46,89.83,373.4,84.61,374.34,79.38z"/>
	
		<linearGradient id="SVGID_00000008835983308324266240000011979594908274585535_" gradientUnits="userSpaceOnUse" x1="507.8865" y1="689.1572" x2="462.1692" y2="659.8595" gradientTransform="matrix(1 0 0 -1 0 799.8898)">
		<stop  offset="0" style="stop-color:#A35E26"/>
		<stop  offset="0.3854" style="stop-color:#C77639;stop-opacity:0.6146"/>
		<stop  offset="1" style="stop-color:#FC9956;stop-opacity:0"/>
	</linearGradient>
	<path style="fill:url(#SVGID_00000008835983308324266240000011979594908274585535_);" d="M480.36,133.08
		c2.13-1.09,4.71-0.01,6.76,1.22c1.65,0.99,3.24,2.09,4.75,3.28c-0.62-1.99-1.25-3.98-1.87-5.98c-0.17-0.56-0.35-1.13-0.71-1.59
		c-0.41-0.55-1.02-0.9-1.59-1.28c-5.14-3.47-7.36-9.81-9.26-15.71c-0.84,7.03-3.76,13.63-5.54,20.49c-0.43,1.67-0.3,5.87,2.61,4.71
		C477.51,137.42,478.29,134.14,480.36,133.08z"/>
	
		<linearGradient id="SVGID_00000178885574603810888490000003645801697528480434_" gradientUnits="userSpaceOnUse" x1="486.7441" y1="717.5687" x2="446.8477" y2="700.0732" gradientTransform="matrix(1 0 0 -1 0 799.8898)">
		<stop  offset="0" style="stop-color:#A35E26"/>
		<stop  offset="0.3854" style="stop-color:#C77639;stop-opacity:0.6146"/>
		<stop  offset="1" style="stop-color:#FC9956;stop-opacity:0"/>
	</linearGradient>
	<path style="fill:url(#SVGID_00000178885574603810888490000003645801697528480434_);" d="M455.19,137.68
		c-0.09-2.06-0.38-4.31-1.9-5.71c-1.61-1.49-4.31-1.67-5.43-3.56c1.64,0.12,3.14-1.13,3.78-2.65c0.64-1.51,0.6-3.22,0.44-4.86
		c-0.65-6.84-3.17-13.45-7.06-19.09c-1.98-2.87-4.31-5.49-6.94-7.78c-2.44-2.12-4.89-5.56-4.32-9.02c0.22-1.36,0.95-2.58,1.65-3.76
		c2.91-4.92,5.66-9.97,7.57-15.35c1.58-4.46,2.57-9.17,2.52-13.92c-0.04-3.93-0.23-7.92-3.2-10.85c3.56,1.64,5.21,5.48,8.57,7.34
		c3.49,1.92,7.81,0.62,11.77,1.09c0.5,0.06,1.04,0.17,1.34,0.57c0.22,0.29,0.27,0.67,0.3,1.03c0.2,2.23,0.12,4.49-0.24,6.71
		c-0.29,1.78-0.76,3.54-0.77,5.33c-0.01,1.8,0.51,3.71,1.88,4.88c0.65,0.56,1.45,0.91,2.08,1.48c2.13,1.9,1.76,5.28,1.03,8.04
		c-2.26,8.55-6.34,16.66-7.29,25.44c-0.09,0.86-0.15,1.75,0.18,2.55c0.33,0.79,1.17,1.44,2.01,1.28c0.72-0.14,1.21-0.77,1.67-1.34
		c2.09-2.57,4.93-4.53,8.08-5.56c0.65-0.21,2,9.58,1.99,10.49c-0.02,3.05-1.13,6.26-2.5,8.97c-4.08,8.06-9.61,15.37-13.07,23.72
		c1.73,0.1,3.46,0.2,5.19,0.3c1.45,0.08,2.91,0.17,4.35-0.06c1.27-0.2,2.49-0.65,3.7-1.09c4.02-1.47,8.03-2.94,12.05-4.41
		c0.53,0.49-0.05,1.33-0.6,1.8c-3.61,3.01-7.22,6.03-10.96,8.87c-0.83,0.63-1.68,1.26-2.67,1.59c-2.05,0.69-4.88,0-6.6-1.26
		c-1.76-1.29-2.44-2.5-5.01-1.98c-0.91,0.18-2.68,1.7-3.41,1.25C454.13,147.41,455.26,139.28,455.19,137.68z"/>
	
		<linearGradient id="SVGID_00000085968989508533709610000005507933978287919277_" gradientUnits="userSpaceOnUse" x1="404.1147" y1="736.9169" x2="407.3342" y2="762.7798" gradientTransform="matrix(1 0 0 -1 0 799.8898)">
		<stop  offset="5.787037e-04" style="stop-color:#A3A29E"/>
		<stop  offset="0.3118" style="stop-color:#BDBCB7"/>
		<stop  offset="1" style="stop-color:#F2F1EB"/>
	</linearGradient>
	<path style="fill:url(#SVGID_00000085968989508533709610000005507933978287919277_);" d="M396.91,44.58
		c0.17,0.48,0.44,0.97,0.92,1.15c0.26,0.09,0.54,0.08,0.81,0.03c1.5-0.28,2.87-1.6,4.33-1.15c0.41,0.13,0.76,0.38,1.13,0.59
		c2.05,1.15,4.59,0.78,6.88,0.25c1.38-0.32,2.78-0.7,3.95-1.48c1.18-0.78,2.12-2.05,2.17-3.46c0.06-1.58-1-3.03-2.35-3.85
		c-1.35-0.81-2.95-1.09-4.52-1.24c-3.03-0.3-8.12-0.9-10.66,1.05C397.15,38.34,395.82,41.59,396.91,44.58z"/>
	<g>
		<g>
			<g>
				<path class="st18" d="M398.17,169.39c1.88-0.96,3.65-2.1,5.43-3.23c0.14-0.09,0.26-0.25,0.25-0.43
					c-0.13-2.13-0.39-4.25-0.81-6.34c-0.38-1.91-0.78-3.88-1.39-5.73c-0.53-1.61-1.42-3.29-3.14-3.86
					c-1.03-0.33-2.09,0.11-3.11-0.15c-1.04-0.26-1.99-0.89-2.74-1.65c-0.45-0.46-1.16,0.25-0.71,0.71c0.7,0.7,1.52,1.26,2.44,1.64
					c0.9,0.38,1.69,0.38,2.65,0.32c1.05-0.06,1.9,0.28,2.59,1.1c0.55,0.66,0.86,1.51,1.12,2.32c0.55,1.74,0.92,3.56,1.29,5.35
					c0.43,2.08,0.69,4.17,0.82,6.29c0.08-0.14,0.17-0.29,0.25-0.43c-1.78,1.13-3.56,2.27-5.43,3.23
					C397.09,168.82,397.6,169.68,398.17,169.39L398.17,169.39z"/>
			</g>
		</g>
		<g>
			<path class="st18" d="M399.84,150.52c0.01,0.03,0.02,0.07,0.02,0.1c-0.01-0.05-0.03-0.09-0.05-0.14
				c-0.01-0.01-0.02-0.03-0.03-0.04c-0.2-0.19-0.43-0.35-0.65-0.51c-0.13-0.03-0.27-0.07-0.4-0.11c-0.13-0.05-0.25-0.1-0.38-0.15
				c-0.09-0.04-0.19-0.07-0.29-0.1c-0.07,0.03-0.14,0.07-0.21,0.07c-0.1,0.02-0.19,0.03-0.29,0.04c-0.07,0.01-0.15-0.01-0.22-0.01
				c-0.09,0.06-0.19,0.09-0.31,0.1c-0.19,0.04-0.38,0.03-0.57,0c-0.12-0.02-0.23-0.04-0.35-0.05c-0.14-0.02-0.27-0.08-0.38-0.17
				l-0.01-0.01c-0.26-0.02-0.53-0.08-0.81-0.21c-1.18-0.53-2.04-1.38-2.96-2.26c-0.99-0.96-1.95-2.04-3.06-2.85
				c-1.06-0.77-1.96-1.72-2.93-2.6c-0.93-0.86-2.04-1.54-2.81-2.56c-0.82-1.08-1.42-2.35-2.08-3.53c-1.42-2.58-2.78-5.2-4.09-7.84
				s-2.55-5.32-3.74-8.01c-1.11-2.52-2.62-5.25-2.83-8.04c-0.2-2.71,0.72-5.35,0.49-8.08c-0.12-1.38-0.4-2.72-0.74-4.06
				c-0.22,0.98-0.46,1.95-0.59,2.95c0,0.01,0,0.01-0.01,0.01c-0.02,0.2-0.03,0.39-0.05,0.59c0.09,0.78,0.15,1.57,0.11,2.38
				c-0.06,1.48-0.38,2.92-0.5,4.39c-0.12,1.41,0,2.79,0.39,4.14c0.81,2.79,2.16,5.48,3.35,8.12c2.49,5.51,5.22,10.92,8.2,16.17
				c0.67,1.19,1.42,2.21,2.48,3.08c0.97,0.8,1.88,1.62,2.8,2.47c1.06,0.98,2.21,1.82,3.25,2.83c1.01,0.98,1.99,2.11,3.13,2.94
				c0.84,0.61,1.86,1.21,2.91,1.32c0.87,0.09,1.83-0.14,2.7-0.2c0.53-0.03,1.05-0.03,1.58-0.02c-0.02-0.04-0.03-0.07-0.04-0.11
				C399.87,150.55,399.85,150.53,399.84,150.52z"/>
		</g>
	</g>
	<g>
		<g>
			<path d="M376.7,62.97c-1.82,9.1-3.79,18.17-5.64,27.27c-1.87,9.18-3.63,18.39-4.97,27.66c-0.65,4.49-1.29,9.02-1.56,13.55
				c-0.26,4.42-0.01,8.99,1.72,13.12c3.02,7.22,9.68,11.9,16.1,15.88c7.19,4.46,14.38,8.92,21.59,13.36
				c0.86,0.53,1.72,1.06,2.58,1.58c1.1,0.67,2.11-1.06,1.01-1.73c-7.15-4.35-14.21-8.84-21.34-13.21
				c-6.25-3.82-13.11-7.78-16.92-14.29c-2.16-3.69-2.85-7.89-2.82-12.11c0.02-4.42,0.64-8.85,1.24-13.22
				c1.24-9.1,2.91-18.14,4.72-27.15c1.8-8.99,3.74-17.95,5.57-26.94c0.22-1.08,0.44-2.16,0.65-3.24
				C378.88,62.25,376.95,61.71,376.7,62.97L376.7,62.97z"/>
		</g>
	</g>
	<g>
		<g>
			<path d="M407.75,175.23c3.1-2.63,6.82-4.46,10.44-6.23c3.85-1.88,7.77-3.64,11.4-5.93c1.7-1.07,3.35-2.27,4.81-3.68
				c0.99-0.96,2.01-1.85,3.1-2.7c2.12-1.65,4.43-3.35,6.17-5.52c2.81-3.53,4.06-7.82,4.64-12.23c0.07-0.54-0.51-1-1-1
				c-0.6,0-0.93,0.46-1,1c-0.49,3.73-1.55,7.45-3.81,10.5c-1.62,2.19-3.86,3.86-5.94,5.48c-2.52,1.95-4.69,4.29-7.37,6.04
				c-3.49,2.29-7.31,4.04-11.06,5.86c-4.11,1.99-8.28,4.03-11.78,7C405.35,174.65,406.77,176.06,407.75,175.23L407.75,175.23z"/>
		</g>
	</g>
	<g>
		<g>
			<path d="M378.63,63.5c0.46-2.26,1.93-3.68,3.94-4.7c0.93-0.47,1.91-0.85,2.88-1.24c1.25-0.51,2.48-1.05,3.76-1.49
				c5.62-1.91,11.74-2.35,17.58-1.27c3.29,0.61,6.48,1.66,9.46,3.19c1.14,0.58,2.16-1.14,1.01-1.73
				c-5.71-2.92-12.16-4.29-18.56-3.98c-3.16,0.15-6.31,0.69-9.33,1.64c-1.43,0.45-2.79,1.03-4.18,1.6
				c-1.13,0.46-2.27,0.89-3.36,1.42c-2.55,1.23-4.55,3.18-5.13,6.03C376.44,64.23,378.37,64.77,378.63,63.5L378.63,63.5z"/>
		</g>
	</g>
	<g>
		<g>
			<path d="M404.42,54.44c2.73,0.43,5.62,1.2,7.76,3.04c1.53,1.31,2.52,3.02,3.15,4.82c0.62,1.78,0.98,3.63,1.53,5.44
				c0.27,0.87,0.58,1.72,1,2.53c0.99,1.9,2.05,3.77,3.06,5.67c4.12,7.74,8.07,15.57,11.84,23.48c3.69,7.73,7.34,15.52,10.02,23.66
				c2.61,7.93,4.28,16.26,3.67,24.64c-0.07,1.02-0.18,2.05-0.33,3.06c-0.08,0.53,0.13,1.07,0.7,1.23c0.47,0.13,1.15-0.16,1.23-0.7
				c1.22-8.51,0.1-17.09-2.27-25.31c-2.42-8.4-6.03-16.41-9.74-24.31c-3.81-8.12-7.81-16.15-11.98-24.09c-1.05-2-2.12-4-3.19-5.99
				c-0.45-0.84-0.94-1.67-1.36-2.52c-0.24-0.48-0.27-0.56-0.45-1.06c-0.64-1.78-0.98-3.65-1.53-5.45c-0.63-2.04-1.54-4-2.99-5.6
				c-1.82-2.02-4.36-3.23-6.95-3.93c-0.87-0.23-1.75-0.41-2.64-0.54c-0.53-0.08-1.08,0.14-1.23,0.7
				C403.59,53.68,403.88,54.35,404.42,54.44L404.42,54.44z"/>
		</g>
	</g>
	<g>
		<g>
			<path d="M399.36,181.99c-1.1,3.62-1.67,7.4-1.69,11.18c-0.01,1.62-0.05,3.42,0.44,4.98c0.53,1.69,1.81,2.63,3.45,3.13
				c1.79,0.55,3.7,0.66,5.55,0.39c0.78-0.11,1.63-0.26,2.34-0.64c0.7-0.38,1.17-1,1.48-1.72c0.5-1.15,0.7-2.44,0.94-3.67
				c0.27-1.37,0.51-2.74,0.78-4.11c0.54-2.76,1.03-5.79,2.43-8.26c0.63-1.12-1.09-2.13-1.73-1.01c-1.14,2.02-1.7,4.36-2.19,6.6
				c-0.53,2.43-0.93,4.89-1.44,7.32c-0.19,0.9-0.3,2.44-1.1,3.02c-0.52,0.38-1.37,0.45-1.99,0.53c-0.83,0.11-1.69,0.11-2.53,0.03
				c-1.28-0.13-3.19-0.43-3.86-1.69c-0.63-1.2-0.53-2.88-0.55-4.2c-0.06-3.85,0.49-7.67,1.61-11.35
				C401.66,181.28,399.73,180.76,399.36,181.99L399.36,181.99z"/>
		</g>
	</g>
	<g>
		<g>
			<path d="M398.94,188.43c-1.33-0.47-2.51-2.06-3.42-3.19c-1.14-1.42-2.21-2.96-3.62-4.13c-0.73-0.61-1.47-0.98-2.37-1.28
				c-1.28-0.42-2.57-0.84-3.85-1.24c-2.65-0.83-5.32-1.61-8.04-2.21c-3.09-0.68-6.24-1.14-9.41-1.22c-1.29-0.03-1.29,1.97,0,2
				c5.51,0.14,10.88,1.49,16.12,3.11c1.33,0.41,2.65,0.84,3.97,1.27c0.84,0.27,1.47,0.43,2.16,0.99c1.42,1.15,2.49,2.72,3.62,4.13
				c1.17,1.46,2.47,3.07,4.3,3.71C399.62,190.78,400.15,188.85,398.94,188.43L398.94,188.43z"/>
		</g>
	</g>
	<g>
		<g>
			<path d="M368.23,175.15c-0.97,0-1.93,0-2.74-0.2c-0.82-0.2-1.41-0.55-1.73-1.29c-0.2-0.48-0.26-1.11-0.25-1.66
				c0.01-0.69,0.22-1.38,0.17-2.07c-0.08-1.12-0.58-2.14-0.75-3.24c-0.25-1.62,0.68-2.84,1.99-3.75c1.05-0.73,0.05-2.47-1.01-1.73
				c-1.59,1.11-2.89,2.56-3.01,4.58c-0.09,1.37,0.47,2.63,0.75,3.94c0.03,0.15,0.05,0.3,0.04,0.58c0.01-0.22-0.06,0.38-0.07,0.46
				c-0.04,0.29-0.08,0.59-0.09,0.88c-0.05,0.79,0,1.63,0.25,2.38c0.42,1.28,1.34,2.19,2.59,2.66c1.22,0.46,2.58,0.46,3.86,0.46
				C369.52,177.15,369.52,175.15,368.23,175.15L368.23,175.15z"/>
		</g>
	</g>
	<g>
		<g>
			<path d="M370.88,167.87c-2.99-3.19-5.91-6.5-8.08-10.32c-2.32-4.09-3.33-8.51-3.24-13.2c0.09-4.97,0.95-9.97,2.02-14.81
				c1.09-4.99,2.68-9.84,3.94-14.78c1.24-4.89,1.97-9.84,2.64-14.83c0.17-1.23,0.26-2.45,0.04-3.68c-0.2-1.14-0.65-2.23-0.95-3.35
				c-0.32-1.16-0.44-2.29-0.22-3.48c0.21-1.16,0.6-2.27,0.92-3.4c0.69-2.43,0.7-4.88,0.75-7.38c0.04-2.49-0.11-4.94-0.32-7.42
				c-0.31-3.87-0.37-7.84,0.47-11.65c0.4-1.8,0.99-3.57,1.97-5.14c0.53-0.84,1.15-1.59,1.65-2.45c0.57-0.98,1.15-1.95,1.75-2.91
				c2.15-3.49,4.49-6.85,7.12-10c0.72-0.87,1.47-1.72,2.22-2.56c0.85-0.96-0.56-2.38-1.41-1.41c-2.87,3.22-5.53,6.6-7.9,10.21
				c-1.2,1.82-2.33,3.69-3.44,5.57c-0.52,0.89-1.16,1.68-1.71,2.55c-0.5,0.8-0.91,1.67-1.25,2.55c-1.46,3.71-1.75,7.89-1.66,11.84
				c0.05,2.23,0.31,4.46,0.45,6.68c0.16,2.5,0.13,5.06-0.03,7.56c-0.08,1.26-0.31,2.47-0.66,3.68c-0.34,1.16-0.72,2.32-0.91,3.52
				c-0.19,1.22-0.14,2.41,0.13,3.61c0.27,1.16,0.71,2.27,1,3.42c0.3,1.23,0.15,2.5-0.03,3.74c-0.18,1.27-0.32,2.54-0.51,3.8
				c-0.36,2.52-0.82,5.04-1.37,7.53c-1.13,5.11-2.79,10.08-4.04,15.16c-1.21,4.94-2.12,10-2.53,15.07
				c-0.39,4.88,0.03,9.7,1.99,14.22c1.78,4.1,4.56,7.69,7.51,11.01c0.74,0.84,1.5,1.66,2.26,2.47
				C370.35,170.23,371.76,168.81,370.88,167.87L370.88,167.87z"/>
		</g>
	</g>
	<g>
		<g>
			<path d="M461.51,42.17c6.54,6.26,9.9,15.12,12.01,23.74c1.27,5.21,1.87,10.54,2.05,15.89c0.09,2.67,0.07,5.35-0.01,8.02
				c-0.08,2.73-0.35,5.46-0.27,8.19c0.09,2.9,0.82,5.69,1.44,8.51c0.6,2.69,1.05,5.47,0.28,8.18c-0.35,1.24,1.58,1.77,1.93,0.53
				c1.45-5.13-0.87-10.12-1.5-15.17c-0.35-2.76-0.08-5.56,0.04-8.32c0.12-2.75,0.17-5.51,0.12-8.26
				c-0.18-10.21-1.94-20.41-6.03-29.81c-2.08-4.78-4.87-9.3-8.65-12.92C462,39.86,460.58,41.28,461.51,42.17L461.51,42.17z"/>
		</g>
	</g>
	<g>
		<g>
			<path d="M489.76,135.89c1.3,1.95,2.6,3.9,4.09,5.71c1.38,1.68,3.01,3.09,4.5,4.66s2.46,3.31,2.6,5.5
				c0.13,2.15-0.14,4.37-0.33,6.52c-0.08,0.93-0.17,1.98-0.58,2.83c-0.44,0.9-1.26,0.89-2.14,0.76c-2.41-0.36-4.8-0.41-7.23-0.35
				c-4.89,0.13-9.77,0.78-14.52,1.96c-9.35,2.32-17.73,6.98-26.22,11.37c-3.08,1.59-6.21,3.08-9.26,4.75
				c-2.98,1.63-5.94,3.29-8.94,4.88c-3.15,1.66-6.34,3.27-9.64,4.6c-2.72,1.1-5.65,2.14-8.57,2.38c-0.62,0.05-1.23,0.06-1.85,0.03
				c-1.29-0.07-1.28,1.93,0,2c2.92,0.17,5.88-0.65,8.61-1.6c3.43-1.19,6.73-2.74,9.96-4.38c3.2-1.62,6.34-3.37,9.49-5.1
				c2.82-1.56,5.67-3.02,8.55-4.46c8.71-4.36,17.13-9.42,26.59-12.05c4.84-1.35,9.83-2.13,14.85-2.34c2.42-0.1,4.94-0.21,7.34,0.19
				c1.1,0.18,2.27,0.37,3.31-0.17c0.89-0.47,1.44-1.34,1.74-2.26c0.67-2.06,0.61-4.36,0.78-6.49c0.19-2.36,0.17-4.77-0.89-6.95
				c-0.92-1.88-2.51-3.34-4-4.77c-1.67-1.6-3.14-3.34-4.47-5.23c-0.69-0.98-1.36-1.98-2.03-2.99
				C490.77,133.82,489.04,134.82,489.76,135.89L489.76,135.89z"/>
		</g>
	</g>
	<g>
		<g>
			<path d="M499.24,145.03c0.49-3.03-0.25-6.24-1.13-9.13c-0.99-3.23-2.51-6.19-4.38-8.99c-1.09-1.63-2.29-3.2-3.56-4.7
				c-1.26-1.48-2.65-2.85-3.94-4.3c-2.47-2.79-4.43-6.17-6.08-9.5c-1.89-3.81-3.14-7.95-2.87-12.24c0.08-1.29-1.92-1.28-2,0
				c-0.24,3.82,0.66,7.56,2.14,11.06c1.44,3.41,3.34,6.76,5.51,9.76c2.25,3.11,5.19,5.65,7.5,8.72c2.08,2.76,4,5.75,5.18,9.01
				c0.61,1.68,1.1,3.4,1.43,5.15c0.28,1.49,0.51,3.11,0.27,4.62c-0.09,0.53,0.14,1.08,0.7,1.23
				C498.49,145.86,499.15,145.57,499.24,145.03L499.24,145.03z"/>
		</g>
	</g>
	<g>
		<g>
			<path d="M383.64,35.8c0.31-7.58,0.25-15.18,0.51-22.76c0.05-1.5-0.14-3.27,1.07-4.38c0.99-0.9,2.44-1.19,3.73-0.9
				c1.59,0.37,2.92,1.39,4,2.57c1.23,1.34,2.4,2.76,3.52,4.19c1.15,1.47,2.25,2.96,3.41,4.41c1.21,1.51,2.44,3.03,3.42,4.71
				c0.65,1.11,2.38,0.11,1.73-1.01c-0.92-1.58-2.06-3.03-3.2-4.45c-1.13-1.42-2.24-2.84-3.33-4.28c-1.19-1.56-2.45-3.06-3.74-4.54
				c-1.23-1.41-2.67-2.62-4.44-3.28c-3.05-1.14-7.21,0.16-7.93,3.65c-0.21,1.01-0.19,2.06-0.23,3.08c-0.03,0.99-0.06,1.98-0.09,2.97
				c-0.05,2.05-0.09,4.1-0.12,6.15c-0.07,4.62-0.12,9.24-0.31,13.86C381.59,37.08,383.59,37.08,383.64,35.8L383.64,35.8z"/>
		</g>
	</g>
	<g>
		<g>
			<path d="M404.67,24.01c3.49-1.95,7.36-3.24,11.34-3.7c4.28-0.5,8.45,0.05,12.65,0.88c2.47,0.48,4.92,1.04,7.36,1.65
				c1.25,0.31,1.78-1.61,0.53-1.93c-4.47-1.13-9.05-2.19-13.64-2.65c-4.24-0.43-8.57,0-12.64,1.23c-2.29,0.69-4.51,1.64-6.6,2.8
				C402.54,22.91,403.54,24.63,404.67,24.01L404.67,24.01z"/>
		</g>
	</g>
	<g>
		<g>
			<path d="M436.53,23.4c3.2-3.45,6.9-6.38,10.1-9.82c2.59-2.79,5.63-6.27,9.71-6.56c1.59-0.11,3.33,0.2,4.61,1.21
				c1.59,1.26,1.86,3.29,1.94,5.19c0.19,4.35,0.07,8.72-0.18,13.07c-0.28,4.92-0.74,9.83-1.46,14.71c-0.08,0.53,0.13,1.07,0.7,1.23
				c0.47,0.13,1.15-0.16,1.23-0.7c1.36-9.18,2.06-18.59,1.73-27.87c-0.08-2.3-0.34-4.66-1.93-6.45c-1.26-1.42-3.12-2.14-4.97-2.35
				c-4.4-0.51-8.12,2.26-11.03,5.24c-1.91,1.95-3.76,3.94-5.76,5.8c-2.07,1.93-4.18,3.82-6.1,5.89
				C434.24,22.93,435.65,24.35,436.53,23.4L436.53,23.4z"/>
		</g>
	</g>
	<g>
		<g>
			<path d="M439.42,30.15c2.49-4.31,5.17-8.51,8.04-12.58c2.65-3.76,5.59-8.42,10.48-9.3c0.32-0.06,0.18-0.54-0.13-0.48
				c-3.63,0.65-6.25,3.41-8.38,6.22c-2.42,3.2-4.67,6.53-6.82,9.91c-1.25,1.97-2.46,3.96-3.62,5.98
				C438.82,30.17,439.26,30.43,439.42,30.15L439.42,30.15z"/>
		</g>
	</g>
	<g>
		<g>
			<path d="M385.69,10.34c3.23,0.98,4.52,4.49,5.79,7.27c1.48,3.26,2.96,6.51,4.44,9.77c0.13,0.29,0.56,0.04,0.43-0.25
				c-1.58-3.48-3.17-6.97-4.75-10.45c-1.25-2.74-2.65-5.87-5.78-6.82C385.51,9.76,385.38,10.24,385.69,10.34L385.69,10.34z"/>
		</g>
	</g>
	<g>
		<g>
			<path d="M445.9,33.02c3.19-5.14,6.59-10.16,10.18-15.03c0.59-0.8,1.94-3.28,3.16-2.1c0.97,0.94,0.82,2.79,0.73,4
				c-0.21,3.12-0.81,6.25-1.24,9.35c-0.49,3.54-0.99,7.07-1.48,10.61c-0.04,0.31,0.44,0.45,0.48,0.13
				c0.48-3.45,0.96-6.91,1.44-10.36c0.24-1.73,0.48-3.45,0.72-5.18c0.23-1.63,0.52-3.26,0.59-4.91c0.06-1.22,0.08-2.75-0.71-3.78
				c-0.62-0.8-1.59-0.86-2.36-0.24c-0.51,0.42-0.89,1.02-1.28,1.54c-0.52,0.7-1.04,1.41-1.55,2.12c-0.98,1.35-1.95,2.72-2.9,4.1
				c-2.15,3.11-4.22,6.28-6.22,9.49C445.3,33.05,445.73,33.3,445.9,33.02L445.9,33.02z"/>
		</g>
	</g>
	<g>
		<g>
			<path d="M385.81,34.09c-0.2-4.68-0.39-9.36-0.59-14.04c-0.05-1.08-0.12-2.18,0.06-3.25c0.07-0.45,0.19-1.16,0.51-1.5
				c0.57-0.59,1.11,0.16,1.38,0.67c1.06,2.04,1.95,4.21,2.82,6.34c0.97,2.35,1.86,4.74,2.69,7.15c0.1,0.3,0.59,0.17,0.48-0.13
				c-0.84-2.45-1.75-4.87-2.73-7.26c-0.48-1.16-0.97-2.31-1.49-3.46c-0.48-1.07-0.9-2.3-1.56-3.27c-0.38-0.55-1.05-1.07-1.71-0.62
				c-0.7,0.49-0.85,1.67-0.94,2.44c-0.14,1.24-0.03,2.51,0.03,3.76c0.06,1.33,0.11,2.65,0.17,3.98c0.13,3.06,0.26,6.13,0.39,9.19
				C385.33,34.41,385.83,34.41,385.81,34.09L385.81,34.09z"/>
		</g>
	</g>
	<g>
		<g>
			<path d="M399.27,36.43c-1.34,1.04-3.09,1.06-4.7,1.22c-1.5,0.15-3,0.37-4.46,0.76c-2.97,0.78-5.49,2.32-7.78,4.34
				c-4.32,3.82-8.87,8.71-8.97,14.82c-0.03,1.61,0.33,3.12,0.95,4.61c0.7,1.68,1.63,3.39,1.32,5.26c-0.03,0.16,0.21,0.23,0.24,0.07
				c0.47-2.87-1.69-5.32-2.13-8.06c-0.51-3.17,0.5-6.41,2.15-9.1c1.61-2.62,3.8-4.84,6.05-6.91c2.42-2.22,5.04-3.95,8.24-4.79
				c1.72-0.45,3.48-0.67,5.24-0.83c1.43-0.13,2.87-0.31,4.03-1.22C399.57,36.51,399.4,36.33,399.27,36.43L399.27,36.43z"/>
		</g>
	</g>
	<g>
		<g>
			<path d="M417.66,38.05c2.59,2.15,6,2.75,9.14,3.68s6.26,2.08,8.99,3.91c1.39,0.94,2.67,2.06,3.71,3.37
				c1.27,1.6,1.81,3.39,1.6,5.43c-0.36,3.41-2.02,6.57-3.65,9.52c-1.78,3.22-3.69,6.42-4.55,10.03c-0.04,0.16,0.2,0.22,0.24,0.07
				c1.59-6.68,6.86-11.87,8.08-18.67c0.3-1.67,0.29-3.4-0.48-4.95c-0.73-1.46-1.93-2.72-3.17-3.77c-2.47-2.09-5.48-3.45-8.52-4.49
				c-1.81-0.62-3.66-1.1-5.5-1.63c-2.04-0.59-4.06-1.32-5.71-2.68C417.72,37.77,417.54,37.94,417.66,38.05L417.66,38.05z"/>
		</g>
	</g>
	<g>
		<g>
			<path d="M419.48,59.27c3.68,1.62,4.91,5.69,6,9.21c1.27,4.09,2.68,8.14,4.22,12.14c0.11,0.3,0.6,0.17,0.48-0.13
				c-1.62-4.21-3.08-8.47-4.41-12.78c-1.07-3.45-2.47-7.31-6.04-8.87C419.44,58.71,419.18,59.14,419.48,59.27L419.48,59.27z"/>
		</g>
	</g>
	<g>
		<g>
			<path d="M436.09,92.77c2.07,3.98,4.9,7.48,7.21,11.31c2.31,3.8,4.04,7.94,5.14,12.25c0.62,2.45,1.04,4.94,1.25,7.45
				c0.03,0.32,0.53,0.32,0.5,0c-0.37-4.44-1.37-8.81-3-12.96c-1.65-4.2-3.99-7.95-6.52-11.66c-1.48-2.16-2.94-4.33-4.15-6.65
				C436.37,92.24,435.94,92.49,436.09,92.77L436.09,92.77z"/>
		</g>
	</g>
	<g>
		<g>
			<path d="M452.26,132.66c0.73,9.35,0.95,20.3-6.69,27.09c-0.24,0.21,0.11,0.57,0.35,0.35c5.71-5.08,7.28-12.96,7.22-20.28
				c-0.02-2.39-0.2-4.78-0.38-7.16C452.74,132.34,452.24,132.34,452.26,132.66L452.26,132.66z"/>
		</g>
	</g>
	<g>
		<g>
			<path d="M400.96,176.75c3.14,1.43,6.8,1.4,10.16,0.95c3.47-0.47,6.83-1.57,9.96-3.11c3.04-1.49,5.85-3.41,8.45-5.57
				c2.63-2.2,5.18-4.65,7.28-7.37c0.58-0.75,1.12-1.54,1.59-2.37c0.49-0.86,0.8-1.97,1.53-2.67c0.68-0.65,1.73-0.95,2.57-1.32
				c1.03-0.44,2.06-0.89,3.09-1.33c0.29-0.13,0.04-0.56-0.25-0.43c-1.65,0.71-3.42,1.32-5,2.18c-1.39,0.76-1.78,2.32-2.54,3.6
				c-1.75,2.95-4.3,5.47-6.81,7.77c-5.08,4.65-11.14,8.37-17.94,9.78c-3.79,0.79-8.22,1.1-11.83-0.54
				C400.92,176.19,400.67,176.62,400.96,176.75L400.96,176.75z"/>
		</g>
	</g>
	<g>
		<g>
			<path d="M366.86,143.56c4.35,11.09,13.13,19.65,22.9,26.14c2.92,1.94,5.95,3.73,9.02,5.41c0.28,0.15,0.53-0.28,0.25-0.43
				c-10.38-5.7-20.42-12.7-27.13-22.65c-1.82-2.7-3.37-5.58-4.55-8.61C367.23,143.13,366.75,143.26,366.86,143.56L366.86,143.56z"/>
		</g>
	</g>
	<g>
		<g>
			<path d="M406.13,176.74c0.77-1.43,1.92-2.62,3.32-3.43c0.28-0.16,0.03-0.59-0.25-0.43c-1.47,0.85-2.7,2.11-3.5,3.61
				C405.54,176.77,405.98,177.02,406.13,176.74L406.13,176.74z"/>
		</g>
	</g>
	<g>
		<g>
			<path d="M372.96,172.42c1.88,1.75,4.27,2.71,6.6,3.71c2.61,1.13,5.07,2.51,7.32,4.25c0.25,0.19,0.61-0.16,0.35-0.35
				c-2.17-1.68-4.53-3.06-7.04-4.17c-2.4-1.05-4.92-1.99-6.87-3.8C373.08,171.85,372.72,172.2,372.96,172.42L372.96,172.42z"/>
		</g>
	</g>
	<g>
		<g>
			<path d="M402.13,197.74c1.82,0.55,3.9,0.52,5.27-0.98c1.38-1.51,1.56-3.65,1.75-5.59c0.46-4.67,0.65-9.64,3.48-13.61
				c0.19-0.26-0.25-0.51-0.43-0.25c-2.42,3.41-2.97,7.62-3.34,11.68c-0.19,2.12-0.13,4.6-1.17,6.52c-1.13,2.08-3.3,2.39-5.41,1.75
				C401.95,197.17,401.82,197.65,402.13,197.74L402.13,197.74z"/>
		</g>
	</g>
	<g>
		<g>
			<path d="M405.69,182.61c-1.11-0.42-2.25,0.18-2.91,1.07c-0.69,0.93-1,2.22-0.62,3.34c0.34,1.02,1.2,1.82,2.28,1.93
				c1.17,0.13,2.12-0.59,2.57-1.63c0.53-1.22,0.43-2.64-0.2-3.8c-0.15-0.28-0.59-0.03-0.43,0.25c0.47,0.86,0.61,1.89,0.36,2.84
				c-0.24,0.89-0.84,1.75-1.82,1.84c-0.93,0.09-1.75-0.47-2.15-1.29c-0.43-0.88-0.3-1.95,0.17-2.79c0.51-0.93,1.53-1.7,2.63-1.29
				C405.85,183.2,405.98,182.72,405.69,182.61L405.69,182.61z"/>
		</g>
	</g>
	<g>
		<g>
			<path d="M477.14,118.19c0.51,4.69-2.19,8.86-3.61,13.15c-0.35,1.05-0.62,2.13-0.77,3.23c-0.13,0.95-0.23,2,0.1,2.92
				c0.26,0.74,0.84,1.36,1.68,1.3c0.88-0.06,1.51-0.87,2-1.51c0.9-1.19,1.91-2.29,3.04-3.26c1.09-0.93,2.86-2.05,4.15-0.8
				c0.23,0.22,0.59-0.13,0.35-0.35c-1.66-1.6-3.83-0.12-5.19,1.09c-0.9,0.81-1.73,1.7-2.48,2.66c-0.58,0.75-1.83,2.55-2.83,1.23
				c-0.62-0.81-0.47-2.08-0.36-3.03c0.13-1.14,0.42-2.26,0.78-3.36c0.7-2.12,1.66-4.14,2.44-6.23c0.84-2.26,1.45-4.63,1.18-7.05
				C477.61,117.87,477.11,117.87,477.14,118.19L477.14,118.19z"/>
		</g>
	</g>
	<g>
		<g>
			<path d="M397.65,32.78c2.86-0.52,5.77-0.63,8.66-0.36c0.64,0.06,0.64-0.94,0-1c-2.98-0.28-5.98-0.14-8.92,0.4
				C396.75,31.93,397.02,32.89,397.65,32.78L397.65,32.78z"/>
		</g>
	</g>
	<g>
		<g>
			<path d="M416.09,32.36c3.9-0.36,7.81,0.16,11.48,1.53c0.6,0.23,0.86-0.74,0.27-0.96c-3.74-1.4-7.77-1.93-11.75-1.57
				C415.45,31.42,415.45,32.42,416.09,32.36L416.09,32.36z"/>
		</g>
	</g>
	<path d="M406.04,32.67c-0.99,2.02-2.6,3.26-3.6,2.78c-0.6-0.29-0.75-1.06-0.75-1.67c-0.01-0.79,0.08-2.07,0.92-2.42
		c0.24-0.1,0.5-0.13,0.75-0.15c0.85-0.07,1.72,0.01,2.55,0.21c0.11,0.03,0.23,0.06,0.32,0.13C406.57,31.82,406.18,32.4,406.04,32.67
		z"/>
	<path d="M426.21,34.2c-0.84,1.72-2.38,2.7-3.43,2.18s-1.22-2.33-0.38-4.05c0.16-0.34,0.31-0.57,0.76-0.64
		c0.9-0.14,1.87,0.29,2.8,0.63c0.19,0.07,0.38,0.14,0.53,0.26C426.94,32.96,426.38,33.86,426.21,34.2z"/>
	<g>
		<g>
			<path d="M406.09,27.8c-1.41-0.82-3.1-1.72-4.74-0.98c-0.52,0.24-1.34,0.9-0.99,1.57c0.17,0.33,0.58,0.43,0.91,0.51
				c0.45,0.11,0.9,0.19,1.36,0.24c0.57,0.06,1.14,0.07,1.72,0.03c0.48-0.03,0.98-0.07,1.39-0.35c0.13-0.09,0.01-0.31-0.13-0.22
				c-0.44,0.29-1.01,0.3-1.53,0.33c-0.49,0.02-0.97,0-1.46-0.05c-0.53-0.06-1.07-0.15-1.58-0.31c-0.25-0.08-0.53-0.21-0.52-0.51
				c0-0.23,0.16-0.46,0.32-0.61c0.63-0.62,1.63-0.75,2.47-0.6c0.96,0.18,1.81,0.68,2.65,1.16C406.1,28.09,406.22,27.88,406.09,27.8
				L406.09,27.8z"/>
		</g>
	</g>
	<g>
		<g>
			<path d="M420.67,28.74c0.99-0.57,2.01-1.17,3.15-1.38c1-0.18,2.2-0.03,2.95,0.72c0.19,0.19,0.38,0.46,0.39,0.74
				c0.01,0.37-0.33,0.53-0.64,0.63c-0.6,0.19-1.25,0.3-1.88,0.37c-0.57,0.06-1.15,0.08-1.73,0.06c-0.61-0.03-1.3-0.04-1.82-0.39
				c-0.13-0.09-0.26,0.13-0.13,0.22c0.42,0.28,0.9,0.34,1.39,0.39c0.59,0.05,1.19,0.06,1.79,0.02c0.55-0.04,1.09-0.11,1.62-0.22
				c0.44-0.09,1-0.16,1.35-0.46c0.72-0.61-0.06-1.52-0.63-1.88c-0.75-0.47-1.68-0.58-2.54-0.46c-1.24,0.18-2.34,0.82-3.4,1.44
				C420.4,28.61,420.53,28.82,420.67,28.74L420.67,28.74z"/>
		</g>
	</g>
	<g>
		<g>
			<path d="M397.29,45.24c0.07,0.18,0.1,0.38,0.22,0.53c0.14,0.18,0.36,0.25,0.57,0.28c0.52,0.08,1.1,0.08,1.61-0.02
				c0.57-0.12,1.11-0.37,1.64-0.58c0.59-0.23,1.17-0.46,1.76-0.68c0.3-0.12,0.17-0.6-0.13-0.48c-0.93,0.36-1.86,0.74-2.81,1.09
				c-0.47,0.17-0.93,0.24-1.43,0.23c-0.22-0.01-0.47,0.01-0.69-0.06c-0.2-0.06-0.19-0.26-0.27-0.43
				C397.65,44.82,397.16,44.95,397.29,45.24L397.29,45.24z"/>
		</g>
	</g>
	<g>
		<g>
			<path d="M402.53,42.72c-0.32,0.84,0.26,1.84,0.9,2.36c0.73,0.6,1.7,0.95,2.62,1.14c2.52,0.53,5.07-0.17,7.48-0.83
				c-0.06-0.15-0.13-0.3-0.19-0.46c-0.04,0.02-0.07,0.04-0.11,0.06c-0.29,0.15-0.03,0.58,0.25,0.43c0.04-0.02,0.07-0.04,0.11-0.06
				c0.26-0.13,0.08-0.53-0.19-0.46c-2.05,0.57-4.16,1.16-6.31,0.97c-0.92-0.08-1.86-0.32-2.68-0.75c-0.75-0.39-1.78-1.29-1.4-2.27
				C403.12,42.56,402.64,42.42,402.53,42.72L402.53,42.72z"/>
		</g>
	</g>
	<g>
		<g>
			<path d="M400.49,45.81c0.89,0.38,1.82,0.71,2.8,0.78c1.02,0.07,1.99-0.36,3.01-0.3c0.32,0.02,0.32-0.48,0-0.5
				c-0.95-0.05-1.85,0.34-2.8,0.31c-0.95-0.03-1.88-0.35-2.75-0.73C400.45,45.26,400.2,45.69,400.49,45.81L400.49,45.81z"/>
		</g>
	</g>
	<g>
		<g>
			<path d="M397.93,50.22c1.63,0.6,3.37,1.1,5.13,1.08c1.81-0.02,3.57-0.51,5.3-0.99c0.31-0.09,0.18-0.57-0.13-0.48
				c-1.69,0.47-3.41,0.95-5.17,0.97c-1.71,0.02-3.4-0.48-5-1.06C397.76,49.63,397.63,50.11,397.93,50.22L397.93,50.22z"/>
		</g>
	</g>
	<path d="M409.21,37.08c-0.72-0.47-1.67-0.6-2.5-0.68c-0.98-0.09-1.98-0.03-2.95,0.1c-0.9,0.11-1.85,0.21-2.72,0.49
		c-0.74,0.24-1.2,0.67-1.3,1.46c-0.18,1.48,0.69,2.73,1.82,3.55c0.29,0.21,0.58,0.42,0.93,0.51c0.39,0.1,0.8,0.04,1.2-0.04
		c1.41-0.27,2.78-0.72,4.08-1.31c0.97-0.44,2.11-1.06,2.22-2.24C410.06,38.17,409.85,37.5,409.21,37.08z"/>
</g>
</svg>
