<?xml version="1.0" encoding="utf-8"?>
<!-- Generator: Adobe Illustrator 28.0.0, SVG Export Plug-In . SVG Version: 6.00 Build 0)  -->
<svg version="1.1" id="Layer_1" xmlns="http://www.w3.org/2000/svg" xmlns:xlink="http://www.w3.org/1999/xlink" x="0px" y="0px"
	 viewBox="0 0 800 800" style="enable-background:new 0 0 800 800;" xml:space="preserve">
<style type="text/css">
	.st0{fill:#EF9448;}
	.st1{fill:#F2F1EB;}
	.st2{fill:#FFA96E;}
	.st3{fill:url(#SVGID_1_);}
	.st4{fill:url(#SVGID_00000140707153879532411610000007296462249436416936_);}
	.st5{fill:url(#SVGID_00000122715458886923800710000011131695677651097252_);}
	.st6{fill:url(#SVGID_00000032632782670538774200000010135540746497047989_);}
	.st7{fill:url(#SVGID_00000033349843613483905780000013008491603031503517_);}
	.st8{fill:url(#SVGID_00000141455167529499168790000002572217885923772349_);}
	.st9{fill:url(#SVGID_00000142874290427246667620000009891918020575516324_);}
	.st10{fill:url(#SVGID_00000036218465746153002900000011479003561260356258_);}
	.st11{fill:url(#SVGID_00000121975214143322879720000014842558885775014792_);}
	.st12{fill:url(#SVGID_00000164480208831510058970000006392975409628452264_);}
	.st13{fill:url(#SVGID_00000140716743143086924440000018332685127421910938_);}
	.st14{fill:url(#SVGID_00000162330763612487575270000003538483385931147422_);}
	.st15{fill:url(#SVGID_00000120549452406339839010000011839124061803796140_);}
	.st16{fill:url(#SVGID_00000073711242256610190230000002538321248609313431_);}
	.st17{fill:url(#SVGID_00000074407677066379043440000003018514307146320317_);}
	.st18{fill:url(#SVGID_00000124140041773132998030000014791252507122185884_);}
	.st19{fill:url(#SVGID_00000132073280190732570730000017197843528427062404_);}
	.st20{fill:none;stroke:#000000;stroke-width:2;stroke-linecap:round;stroke-miterlimit:10;}
	.st21{fill:none;stroke:#000000;stroke-width:2;stroke-linecap:round;stroke-linejoin:round;stroke-miterlimit:10;}
</style>
<g id="_x34_-WEAR__x5B_SHIBA_x5D__x2B_">
	<path class="st0" d="M307.78,242.59c-2.14-0.76-4.31-1.51-6.06-2.86c-1.34-1.03-2.39-2.37-3.47-3.66
		c-5.65-6.75-12.59-12.41-20.33-16.6c-1.69-0.92-3.43-1.77-5.26-2.36c-1.45-0.47-3.38-0.82-4.44-1.98c-1.35-1.49-2.19-3.66-3.5-5.26
		c-0.31-0.37-0.64-0.75-1.07-0.96c-0.58-0.28-1.26-0.23-1.9-0.15c-8.01,0.99-15.59,5.12-20.78,11.3c-1.3,1.55-2.51,3.41-2.3,5.42
		c0.21,1.97,1.71,3.52,3.19,4.84c1.96,1.75,0.13,4.78,0.11,7.2c-0.03,3.35,0.68,6.66,1.39,9.92c0.37,1.7,0.75,3.41,1.5,4.97
		c2.14,4.46,6.88,6.99,10.11,10.74c2.87,3.34,4.36,7.31,5.54,11.44c1.13,3.95,4.19,6.98,6.06,10.56c1.58,3.03,2.32,6.42,3.69,9.56
		c1.35,3.1,3.4,5.8,5.27,8.59c1.77,2.65,3.07,5.48,4.82,8.15c4.8,7.36,11.57,14.36,20.26,16.93c2.2,0.65,4.51,0.84,6.8,1.03
		c3.47,0.28,6.96,0.57,10.44,0.41c1.72-0.08,3.45-0.26,5.14-0.61c0.81-0.17,2.95-1.23,3.76-0.83c1.2,0.59,0.34,3.51,0.24,4.53
		c-0.39,3.91-0.8,7.82-1.12,11.74c-0.65,7.92-0.97,15.9-0.16,23.82c0.23,2.22,0.54,4.43,0.71,6.66c0.37,4.86,0.02,9.73-0.19,14.59
		c-0.2,4.69,0.37,9.34,0.31,13.98c0,0.18,0,0.37,0.12,0.5c0.12,0.12,0.31,0.14,0.48,0.14c1.93-0.03,3.63-1.25,5.15-2.44
		c1.17-0.92,2.33-1.85,3.45-2.82c0.35-0.3,0.7-0.61,1.09-0.85c0.45-0.28,0.96-0.46,1.46-0.63c3.7-1.28,7.61-1.59,11.36-2.59
		c3.75-1.01,7.03-3.22,10.65-4.54c4.59-1.67,9.57-1.87,14.46-2.11c11.6-0.55,23.18-1.36,34.74-2.33c5.51-0.46,10.79-0.95,16.3-0.63
		c10.56,0.61,20.81,2.53,31.28,3.9c2.38,0.31,4.78,0.63,7.09,1.29c3.31,0.95,6.23,2.8,9.27,4.35c1.53,0.79,3.09,1.41,4.71,1.96
		c0.99,0.34,3.16,1.87,4.04,0.77c0.3-0.38,0.4-0.88,0.49-1.36c0.73-4.1,1.4-8.21,2.01-12.33c0.63-4.29,0.32-8.67,0.73-13
		c0.42-4.44,1.15-8.85,1.88-13.25c1.06-6.37,2.11-12.75,3.27-19.11c0.66-3.64,1.05-7.16,1.25-10.85c0.18-3.32,0.01-6.72,0.51-10.04
		c0.79-5.2,3-10.07,3.85-15.22c0.95-5.75,1.54-11.55,1.77-17.37c0.02-0.44,0.04-0.89,0.25-1.27s0.68-0.66,1.09-0.51
		c0.44,0.16,0.95,2.58,1.13,3.03c0.5,1.26,0.98,2.52,1.46,3.78c0.96,2.53,1.88,5.07,2.76,7.62c0.75,2.15,1.63,3.82,2.65,5.81
		c1.15,2.25,1.99,4.64,2.9,7c0.1,0.26,0.2,0.53,0.17,0.8c-0.04,0.33-0.27,0.59-0.48,0.84c-5.16,6.01-7.36,14.43-5.82,22.19
		c0.31,1.56,0.76,3.1,1.06,4.66c0.36,1.9,0.47,3.84,0.56,5.78c0.25,5.66,0.25,11.33-0.01,16.99c-0.12,2.67-0.71,6.61,0.87,8.93
		c0.69,1.01,1.6,1.85,2.27,2.88c0.7,1.09,1.1,2.35,1.41,3.61c0.66,2.66,1.01,5.39,1.04,8.13c0.01,1.43-0.04,2.94,0.62,4.2
		c0.31,0.6,0.78,1.12,0.97,1.76c0.37,1.28-1.7,6.99-0.01,7.42c0.2,0.05,0.41,0.01,0.61-0.03c2.29-0.41,4.18,0.43,6.34,0.97
		c1.55,0.39,3.11,0.26,4.69,0.66c2.04,0.52,4.04,1.23,5.96,2.07c0.96,0.42,1.91,0.89,2.84,1.39c0.55,0.3,1.86,1.44,2.45,1.44
		c1.66,0,3.41,3.36,4.55,4.31c0.11,0.09,0.23,0.18,0.37,0.2c0.27,0.03,0.47-0.23,0.61-0.46c1.01-1.72,1.56-3.7,1.6-5.7
		c0.04-2.32-0.51-4.17,0.88-6.21c1.13-1.67,2.72-2.92,4.07-4.38c1.21-1.32,2.08-2.91,2.93-4.49c1.53-2.83,3.03-5.68,4.53-8.53
		c0.99-1.89,1.99-3.77,2.83-5.73c0.02-0.05,0.04-0.1,0.06-0.15c0.73-1.72,1.35-3.49,2.01-5.23c1.28-3.37,2.73-6.68,4.33-9.91
		c0.76-1.53,1.96-3.14,2.44-4.77c0.37-1.26,0.46-2.45,0.98-3.71c0.87-2.09,1.73-4.18,2.6-6.26c0.74-1.79,1.49-3.6,1.86-5.51
		c0.67-3.48,0.01-7.09-0.94-10.5c-1.48-5.3,0.44-9.82,0.94-15c0.52-5.45,1.18-11.06,0.01-16.47c-0.69-3.15-1.57-6.26-2.26-9.41
		c-0.52-2.37-0.62-4.64-1.35-6.98c-0.79-2.56-1.77-5.07-2.93-7.48c-1.49-3.12-3.63-5.94-5.28-9.02c-1.05-1.95-2.05-3.94-2.73-6.04
		c-0.77-2.36-1.13-4.84-1.53-7.29c-0.56-3.46-1.2-6.91-1.92-10.34c-1.04-4.99-1.87-10.42-4.03-15.03c-1.9-4.06-2.79-8.46-4.94-12.49
		c-3.28-6.13-7.41-11.76-10.52-17.98c-1.68-3.35-2.68-6.92-4.35-10.29c-0.55-1.1-1.1-2.21-1.87-3.17c-1.45-1.8-3.54-2.94-5.6-4
		c-4.87-2.51-9.83-4.86-14.86-7.04c-2.35-1.02-4.85-1.87-7.05-3.14c-0.62-0.35-6.47-3.04-6.44-3.34c0.06-0.64,0.74-0.99,1.32-1.26
		c1.92-0.9,7.62-4.89,5.5-7.67c-0.44-0.57-1.21-0.75-1.92-0.89c-2.6-0.52-5.2-1.03-7.8-1.55c-1.98-0.39-5.03-1.65-7.01-1.3
		c-0.79,0.14-1.8,0.05-2.14-0.68c-0.2-0.42-0.11-0.91-0.1-1.38c0.08-4.06-5.2-8.42-8.93-8.97c-6.11-0.91-12.26-1.62-18.41-2.15
		c-0.45-0.04-0.94-0.06-1.29,0.2c-0.48,0.35-0.5,1.04-0.48,1.64c0.06,1.99,0.11,3.99,0.32,5.98c0.13,1.26,0.93,3.98,0.52,5.14
		c-0.18,0.5-0.65,0.83-1.09,1.13c-8.17,5.6-14.65,13.31-22.38,19.49c-1.4,1.12-2.85,2.2-4.43,3.05c-1.96,1.06-4.09,1.75-6.2,2.44
		c-1.83,0.6-3.66,1.19-5.48,1.79c-2.23,0.73-4.66,1.45-6.87,0.67c-3.01-1.07-6.09-2.16-9.06-3.39c-2.05-0.85-4.16-1.91-5.33-3.8
		c-0.19-0.31-0.36-0.7-0.2-1.03c0.16-0.34,0.58-0.44,0.94-0.52c2.5-0.54,8.57-2.25,9.26-5.09c0.2-0.83,0.11-1.7,0.02-2.55
		c-0.29-2.68-1.36-5.32-2.11-7.92c-0.14-0.48-0.28-0.96-0.57-1.36c-1.62-2.22-8.78,1.36-10.74,2.02c-2.38,0.8-5.05,1.92-5.81,4.31
		c-0.18,0.57-0.24,1.2-0.56,1.71c-0.29,0.45-0.75,0.76-1.16,1.11c-1.8,1.55-2.56,3.95-3.24,6.23c-0.32,1.08-0.34,1.88-0.01,2.92
		c0.33,1.03,0.95,1.51-0.41,2.34c-5.07,3.08-10.43,5.69-15.99,7.77c-2.65,0.99-5.37,1.88-7.78,3.36c-1.64,1.01-3.1,2.29-4.51,3.61
		c-7.92,7.46-15.99,15.83-20.9,25.67c-0.94,1.88-2.44,4.64-1.5,6.76c0.26,0.58,0.58,1.18,0.52,1.81c-0.03,0.3-0.15,0.59-0.27,0.87
		c-0.67,1.58-1.17,3.26-1.87,4.8c-2.99,6.56-8.6,11.39-11.49,17.95C313.37,244.6,310.6,243.59,307.78,242.59z"/>
	<path class="st1" d="M458.04,293.42c-0.05-2.22-0.09-4.43-0.14-6.65c-0.03-1.49-0.11-2.95-0.31-4.43
		c-0.15-1.11,0.03-2.19-0.05-3.32c-0.19-2.63-1.21-5.13-1.36-7.76c-0.11-1.87,0.24-3.74,0.28-5.62c0.03-1.31-0.1-2.62-0.22-3.93
		c0-4.33-1.36-8.58-2.32-12.76c-1.07-4.6-2.11-9.23-2.56-13.93c-0.45-4.65-0.75-9.67,0-14.3c0.73-4.52,1.71-9.05,2.55-13.56
		c0.36-1.94,0.63-3.95,1.18-5.83c0.53-1.81,1.08-3.69,1.21-5.59c0.14-2.03-0.16-4.22-0.46-6.23c-0.68-4.51-1.43-8.81-4.4-12.47
		c-0.33-0.4-0.71-0.81-1.21-0.95c-0.52-0.14-1.06,0.05-1.56,0.23c-5.37,1.95-10.11,4.96-15.72,6.38
		c-5.59,1.42-11.36,1.96-17.09,2.42c-2.85,0.23-5.72,0.45-8.55,0.08c-2.39-0.31-4.71-1.04-6.99-1.84
		c-4.99-1.73-9.86-3.79-14.58-6.15c-0.43-0.22-0.89-0.44-1.38-0.43c-0.83,0.03-1.45,0.74-1.97,1.38c-3.6,4.5-6.86,8.9-9.61,14
		c-2.78,5.15-5.16,10.49-7.54,15.83c-1.23,2.75-2.46,5.52-3.28,8.41c-1.46,5.13-1.59,10.59-0.89,15.88c0.4,2.97,1.38,6.27,1,9.29
		c-0.38,2.98-1.06,6.02-1.62,8.99c-1.49,7.9-3.48,15.59-5.81,23.25c-1.06,3.48-2.47,6.84-3.53,10.33c-1.13,3.73-2.1,7.52-2.98,11.32
		c-1.4,6.01-2.61,12.06-3.63,18.15c-0.24,1.41-0.24,2.83-0.48,4.24c-0.74,4.38-0.96,8.86-1.1,13.29c-0.05,1.5-0.01,3,0.03,4.5
		c0.16,6.02,0.97,12,2.02,17.92c0.39,2.2,0.82,4.38,1.23,6.58c1.93,10.29,7.15,20.18,12.97,28.79c0.25,0.37,0.51,0.74,0.9,0.97
		c1.43,0.82,4.22-0.45,5.78-0.59c1.65-0.15,3.29-0.29,4.94-0.43c15.69-1.34,31.16-3.84,47.02-3.5c2.64,0.06,5.44,0.55,8.03,0.45
		c2.42-0.09,4.49-2.4,5.97-4.06c3.64-4.07,7.21-8.23,10.21-12.8c1.9-2.9,3.79-5.81,5.51-8.82c1.8-3.14,2.95-6.44,4.2-9.83
		c0.9-2.43,1.95-4.77,2.6-7.29c0.68-2.62,1.26-5.26,1.76-7.92c1.01-5.39,1.66-10.85,1.93-16.33c0.23-4.5,0.18-9.01,0.03-13.52
		C457.89,301.25,458.12,297.39,458.04,293.42z"/>
	<path class="st1" d="M494.77,154.81c-2.73-0.87-5.54-1.41-8.38-1.67c-0.21-0.11-0.44-0.2-0.7-0.22c-0.31-0.03-0.59,0.35-0.48,0.63
		c0.02,0.04,0.02,0.09,0.03,0.14c-0.01,0.14,0.02,0.28,0.09,0.4c0.04,0.26,0.07,0.53,0.06,0.8c-0.03,0.01-0.07,0-0.1,0.01
		c-0.36,0.07-0.58,0.48-0.53,0.81c0.05,0.31,0.24,0.5,0.5,0.59c-0.01,0.09-0.03,0.19-0.04,0.28c-0.08,0.53,0.28,0.9,0.82,0.82
		c1-0.15,2-0.31,2.99-0.47c0.02,0,0.03,0.01,0.05,0.01c1.05-0.08,2.11-0.15,3.16-0.23c0.91-0.07,1.9-0.07,2.68-0.61
		C495.43,155.74,495.36,155,494.77,154.81z"/>
	<path class="st2" d="M335.04,356.76c-0.39-0.86-1.09-1.59-1.6-2.38c-0.75-1.15-1.57-2.25-2.33-3.39c-1.07-1.6-2.07-3.26-2.75-5.07
		c-0.59-1.57-0.66-3.68-1.79-4.97c-0.32,1.89-0.65,3.78-0.97,5.67c-0.29,1.72-0.59,3.43-0.72,5.17c-0.13,1.66-0.11,3.33-0.1,5
		c0.05,5.08,0.1,10.18,0.82,15.21c1.37,9.7,0.59,19.51,1.05,29.29c0.05,1.04,0.23,2.65,1.5,2.67c0.52,0.01,3.76-1.51,3.91-1.29
		c-0.3-0.44-0.96-0.34-1.47-0.49c-1.09-0.33-1.35-1.73-1.41-2.87c-0.33-6.34-0.67-12.68-1-19.01c-0.1-1.91-0.17-3.96,0.81-5.61
		c0.13-0.22,0.29-0.45,0.53-0.57c0.26-0.13,0.56-0.12,0.85-0.1c1.48,0.09,2.96,0.18,4.45,0.27c-1.09-1.94-3.12-3.3-3.91-5.38
		c-0.33-0.87-0.42-1.82-0.5-2.75c-0.09-0.99-0.18-2.01,0.04-2.98s0.78-1.92,1.69-2.35c0.7-0.33,1.54-0.32,2.2-0.73
		c0.83-0.52,1.15-1.63,0.95-2.59C335.24,357.25,335.15,357,335.04,356.76z"/>
	<path class="st2" d="M344.81,247.02c0.02-0.25,0.04-0.51,0.05-0.76c-0.39,1.33-1.02,2.47-1.68,3.68c-0.56,1.03-0.78,2.14-1.04,3.3
		c-1.68,7.46-3.76,14.75-5.89,22.11c-0.46,1.59-0.92,3.19-1.48,4.75c-0.71,1.99-1.56,3.92-2.21,5.93c-0.46,1.43-0.82,2.89-1.17,4.36
		c-0.61,2.55-1.19,5.11-1.75,7.68c-0.38,1.75-1.12,3.47-1.27,5.27c-0.16,1.94-0.24,3.8-0.56,5.75c-1.26,7.85,0.67,15.92-0.33,23.81
		c0.39-4.1,2.76-7.79,3.25-11.87c0.32-2.64-0.17-5.28-0.42-7.91c-0.14-1.42-0.71-2.84,0.09-4.15c0.64-1.04,1.86-1.7,2.15-2.95
		c0.26-1.09-0.35-2.2-0.39-3.32c-0.02-0.71,0.18-1.41,0.37-2.09c1.74-6.06,3.13-12.23,4.27-18.43c0.8-4.32,1.12-8.73,2.64-12.84
		c1.53-4.15,2.57-8.46,3.6-12.75C343.8,253.42,344.56,250.25,344.81,247.02z"/>
	<path class="st2" d="M299.21,236.87c-0.86-1.23-2.17-2.31-3.19-3.4c-1.11-1.18-2.22-2.35-3.33-3.53c-1.97-2.09-4.07-4.26-6.82-5.05
		c1.57,2.35,3.13,4.71,4.7,7.06c0.63,0.95,1.26,1.9,1.64,2.97s0.48,2.28,0.04,3.33c-0.3,0.7-0.82,1.3-1.1,2.01
		c-0.58,1.45-0.02,3.16,1.02,4.34c1.03,1.17,2.46,1.91,3.88,2.57c0.28,0.13,0.58,0.26,0.89,0.22c0.38-0.05,0.68-0.35,0.98-0.59
		c1.36-1.1,3.31-1.27,4.98-0.74s3.08,1.67,4.27,2.95c0.73,0.78,1.4,1.64,2.24,2.29c0.14,0.11,0.29,0.21,0.46,0.22
		c0.41,0.03,0.67-0.44,0.72-0.85s0.01-0.86,0.27-1.18c0.45-0.55,1.4-0.24,1.78,0.24c0.22,0.28,0.34,0.62,0.44,0.96
		c0.19,0.6,0.38,1.21,0.45,1.83c0.05,0.44,0.03,0.88,0.05,1.32c0.03,0.82,0.17,1.63,0.4,2.41c0.32-0.39,0.41-0.91,0.49-1.41
		c0.45-2.81,0.28-5.76,2.77-7.66c0.21-0.16,0.45-0.32,0.72-0.33c0.85-0.06,1.29,1.17,2.13,1.28c0.46,0.06,0.9-0.25,1.17-0.64
		c0.27-0.38,0.42-0.83,0.65-1.24c0.63-1.1,1.9-1.75,3.15-1.77c1.33-0.02,2.44,1.53,3.16-0.07c0.92-2.05,1.84-4.11,2.76-6.16
		c0.29-0.64,0.57-1.29,0.64-1.98c0.06-0.65-0.08-1.31-0.25-1.94c-0.83-2.99-2.45-5.91-2.11-9c0.64-5.85,5.97-9.56,8.62-14.39
		c1.7-3.09,3.38-6.19,5.28-9.16c1.94-3.02,4.22-5.73,6.51-8.48c0.15-0.19,0.41-0.39,0.61-0.24c0.12,0.09,0.13,0.26,0.12,0.41
		c-0.07,1.52-0.62,2.99-0.85,4.48c-0.29,1.86-0.68,3.66-0.79,5.55c0.12-0.17,0.2-0.36,0.27-0.55c0.64-1.6,1.48-3.14,2.04-4.74
		c0.28-0.81,0.58-1.62,0.94-2.4c0.24-0.51,1.32-1.76,1.32-2.25c3.55-4.81,8.75-8.51,14-11.23c4.83-2.5,9.94-4.58,14.26-7.88
		c-0.62-0.26-1.02-1.02-1.69-1.04c-0.34-0.01-0.65,0.18-0.93,0.36c-8.29,5.26-17.76,8.44-25.98,13.82c-1.68,1.1-3.43,2.27-4.96,3.55
		c-1.51,1.27-2.67,3.06-4.08,4.45c-2.06,2.03-4.24,3.91-5.93,6.28c-1.64,2.3-2.74,4.92-4.11,7.38c-0.76,1.35-1.74,2.56-2.72,3.75
		c-1.02,1.23-1.52,2.37-1.88,3.96c-0.71,3.15-0.64,6.44-1.69,9.52c-0.54,1.58-1.35,3.04-2.17,4.49c-0.87,1.56-1.75,3.13-2.73,4.63
		c-2.44,3.71-5.53,7-7.64,10.91c-2.13-1.68-4.4-3.26-6.94-4.2c-1.07-0.4-2.17-0.68-3.25-1.06c-2.47-0.88-4.19-2.19-5.63-4.31
		C299.25,236.93,299.23,236.9,299.21,236.87z"/>
	<path class="st2" d="M385.54,175.44c-0.66-0.72-1.3-1.47-1.91-2.23c-0.57-0.72-1.14-1.49-1.32-2.39c-0.21-1,0.09-2.04,0.38-3.02
		c0.27-0.91,1.43-3.18,0.87-4.12c-0.85-1.42-2.07,0.42-2.39,1.21c-0.7,1.76-1.67,3.29-2.01,5.17c-0.3,1.66,0.57,2.89,1.76,4.02
		c0.56,0.53,1.15,0.72,1.78,1.11c0.76,0.48,1.43,1.16,2.18,1.67c0.76,0.51,1.56,0.97,2.38,1.38c0.62,0.31,1.68,0.51,2.19,0.94
		C388.07,178.02,386.76,176.77,385.54,175.44z"/>
	<path class="st2" d="M401.16,154.61c-0.24-0.37-0.48-0.75-0.72-1.12c-0.15-0.24-0.34-0.5-0.62-0.56c-0.19-0.04-0.37,0.03-0.55,0.09
		c-3.61,1.31-7.23,2.62-10.84,3.93c-1.87,0.68-3.96,1.56-4.64,3.44c-0.74,2.05,0.67,5.19,1.92,6.79c-0.41-1.12-0.78-2.32-0.5-3.48
		c0.34-1.44,1.59-2.47,2.82-3.28c4-2.63,8.74-4.11,13.52-4.24C401.84,155.52,401.5,155.14,401.16,154.61z"/>
	<path class="st2" d="M408.78,182.24c0.62-0.01,1.17-0.21,1.94-0.49c0.94-0.35,1.97-0.36,2.97-0.43c4.27-0.3,7.79-1.89,11.47-3.93
		c1.49-0.82,3.08-1.3,4.56-2.21c1.9-1.17,3.74-2.44,5.52-3.8c2.81-2.15,5.29-4.84,8.99-5.35c0.28-0.04,0.56-0.07,0.82-0.18
		c0.26-0.12,0.47-0.32,0.67-0.51c1.37-1.32,2.7-2.69,3.77-4.26c0.63-0.93,1.17-1.92,1.85-2.81c1.08-1.41,2.49-2.53,3.93-3.59
		c5.19-3.83,10.81-7.07,16.72-9.64c-3.2,0.74-6.39,1.54-9.56,2.4c-1.85,0.5-3.69,1.03-5.44,1.82c-4.34,1.95-7.79,5.37-10.91,8.88
		c-1.58,1.77-3.47,3.19-5.25,4.77c-1.98,1.75-3.96,3.51-6,5.18c-3.74,3.08-7.7,5.94-12.03,8.14s-9.16,2.99-13.87,3.95
		c-1.07-0.39-2.2-0.61-3.26-1.07c-1.75-0.75-3.39-1.72-5.13-2.5c-1.66-0.74-3.36-1.48-4.73-2.71c-0.15-0.14-0.3-0.28-0.49-0.35
		s-0.43-0.04-0.55,0.12c-0.29,0.38,1.02,1.68,1.3,1.98c1.07,1.13,2.31,2.09,3.63,2.91c1.49,0.93,3.07,1.68,4.68,2.36
		c1.05,0.44,2.14,0.81,3.24,1.14C408.06,182.19,408.43,182.25,408.78,182.24z"/>
	<path class="st2" d="M480.27,145.76c0.84,0.47,1.64,1,2.4,1.6c-2.11-3.23-5.39-5.67-9.07-6.88c-1.71-0.56-3.49-0.69-5.18-1.25
		c-2.22-0.74-4.76-0.87-7.08-1.07c-1.27-0.11-2.57-0.26-3.85-0.19c-1.15,0.06-2.26-0.1-3.42-0.1c-0.15,0-0.31,0-0.45,0.05
		c-0.28,0.09-0.48,0.37-0.56,0.65c-0.08,0.29-0.07,0.59-0.06,0.89c0.02,0.4,0.04,0.8,0.05,1.2c0.01,0.23,0.05,0.5,0.26,0.6
		c0.13,0.06,0.28,0.02,0.42-0.01c0.76-0.21,1.51-0.48,2.29-0.63c1.43-0.28,2.93,0.12,4.36,0.3c2.25,0.29,4.42,0.98,6.64,1.26
		c2.5,0.31,5.01,0.67,7.45,1.32C476.49,144.01,478.47,144.74,480.27,145.76z"/>
	<path class="st2" d="M474.53,152.95c-0.52-0.13-1.03-0.34-1.49-0.62c-0.39-0.24-0.76-0.55-1.22-0.62c-0.43-0.06-0.85,0.1-1.25,0.26
		c-2.79,1.1-5.27,2.19-7.7,3.99c-2.01,1.48-3.83,3.18-5.53,5c-1.35,1.44-2.21,2.74-4.3,2.72c-0.61,0-1.64,0.14-1.81,0.87
		c-0.14,0.6,0.57,0.96,0.17,1.66c-0.25,0.43-0.71,0.69-1.17,0.87c-1.63,0.65-3.49,0.64-5.01,1.5c-0.87,0.49-1.54,1.22-2.32,1.82
		c-0.75,0.57-1.51,0.93-2.21,1.56c-1.53,1.38-3.22,2.59-4.98,3.63c-1.82,1.08-3.75,1.99-5.74,2.7c-1,0.36-2.01,0.66-3.04,0.92
		c-0.58,0.14-2.37,0.18-2.77,0.56c-0.44,0.42,1.32,0.53,1.47,0.55c0.8,0.09,1.6,0.1,2.4,0.06c1.56-0.09,3.1-0.42,4.62-0.78
		c3.07-0.74,5.96-2.63,8.4-4.58c1.31-1.04,2.55-2.16,3.97-3.05c1.22-0.76,2.64-0.91,4.01-1.24c0.67-0.16,1.05-0.32,1.54-0.72
		c0.53-0.44,0.86-0.79,1.6-0.9c0.66-0.09,1.34,0,2,0.06c0.3,0.03,0.63,0.04,0.89-0.12c0.26-0.16,0.39-0.56,0.18-0.77
		c-0.13-0.13-0.32-0.15-0.5-0.17c-0.32-0.03-0.64-0.06-0.96-0.09c-0.38-0.04-0.79-0.09-1.06-0.36c-0.5-0.49,0.2-1.46,0.69-1.68
		c0.34-0.15,0.73-0.11,1.08-0.24c0.35-0.13,0.61-0.43,0.86-0.7c3.75-4.18,8.56-7.25,13.3-10.26c0.5-0.32,1.02-0.65,1.6-0.78
		c0.62-0.14,1.26-0.05,1.9,0.01c1.59,0.17,3.39,0.15,4.53-0.97C475.95,153.15,475.22,153.12,474.53,152.95z"/>
	<path class="st2" d="M483.3,150.06c-0.29-0.19-0.61-0.34-0.94-0.44c-0.91-0.27-1.88-0.15-2.81,0.03c-1.28,0.25-2.54,0.6-3.77,1.05
		c-0.19,0.07-0.42,0.19-0.42,0.4c0,0.26,0.34,0.36,0.6,0.38c2.8,0.24,5.51,0.94,8.28,1.22c0.36,0.04,0.82-0.06,0.89-0.41
		c0.04-0.2-0.08-0.4-0.2-0.57C484.49,151.08,483.95,150.48,483.3,150.06z"/>
	<path class="st2" d="M501.98,155.51c-0.03-0.17-0.07-0.34-0.15-0.5c-0.32-0.64-1.05-0.93-1.73-1.17c-2.27-0.79-4.43-1.62-6.82-1.96
		c-2.4-0.34-4.83-0.46-7.25-0.6c-1.66-0.09-1.08,1.18,0.01,1.63c1.08,0.44,2.28,0.52,3.44,0.56c0.79,0.03,1.58,0,2.37,0.03
		c0.59,0.02,1.17,0.04,1.68-0.24c0.7-0.38,3.4,1.1,4.05,1.44c1.02,0.54,2.22,1.2,2.28,2.5c0.03,0.53-0.1,1.05-0.11,1.58
		c0,0.07,0,0.14,0.03,0.19c0.09,0.14,0.3,0.08,0.44,0c1.1-0.62,1.81-1.86,1.78-3.12C502,155.74,502,155.63,501.98,155.51z"/>
	<path class="st2" d="M572.44,299.57c-1.11-10.08-3.74-20.46-8.71-29.35c-0.51-0.92-1.06-1.82-1.57-2.73
		c-1.94-3.46-3.59-7.25-4.58-11.1c-0.88-3.42-1.15-6.95-1.64-10.43c-0.33-2.37-0.75-4.75-1.52-7.02c-0.74-2.18-1.31-4.29-1.98-6.51
		c-1.88-6.21-3.77-12.45-6.42-18.38c-1.22-2.73-2.6-5.39-4.13-7.97c-1.38-2.33-3.33-4.52-4.45-6.97c-1.3-2.84-2.65-5.64-4.19-8.35
		c-0.66-1.16-1.35-2.31-1.83-3.56c-0.39-1.02-0.65-2.1-1.17-3.07c-0.59-1.09-1.49-1.97-2.41-2.79c-9.27-8.29-21.13-12.3-32.48-16.71
		c-1.91-0.74-3.83-1.49-5.65-2.43c-0.87-0.45-1.72-0.95-2.62-1.31c-1.56-0.63-3.33-0.89-4.99-0.61c-0.7,0.12-1.47,0.31-2.15,0.52
		c-0.33,0.11-1.78,0.97-2.01,0.89c3.07,1.04,6.03,2.4,8.82,4.04c0.45,0.27,0.91,0.54,1.42,0.67c1.04,0.26,2.12-0.15,3.18-0.25
		c2.64-0.25,5.06,1.38,7.21,2.93c0.15,0.11,0.31,0.23,0.35,0.41c0.09,0.34-0.26,0.62-0.57,0.8c-2.62,1.56-4.84,3.77-6.45,6.36
		c-1.12,1.79-3.5,6.1-1.75,8.11c0.49,0.56,1.32,0.7,2.04,0.56c0.73-0.14,1.38-0.52,2.04-0.86c6.71-3.46,14.71-3.28,22.18-2.14
		c0.46,0.07,0.93,0.15,1.34,0.37c1.04,0.57,1.51,1.85,2.29,2.69c0.84,0.9,1.76,1.76,2.63,2.65c2.21,2.28,4.32,4.65,6.31,7.12
		c0.31,0.39,0.65,0.87,0.52,1.35c-0.08,0.29-0.31,0.51-0.54,0.71c-1.55,1.31-3.49,2.04-5.3,2.97c-1.8,0.93-3.59,2.2-4.33,4.09
		c2.47-1.41,5.14-2.46,7.91-3.12c1.39-0.33,2.82-0.56,4.1-1.19c0.56-0.28,1.1-0.63,1.72-0.71c1.26-0.17,2.3,1.47,3.03,2.27
		c1.16,1.26,2.29,2.55,3.29,3.95c0.16,0.22,0.29,0.45,0.44,0.67c2.25,4.42,4.58,8.8,6.37,13.47c0.63,1.64,1.34,3.38,1.49,5.15
		c0.08,0.94-0.06,1.82-0.4,2.7c-0.25,0.64-0.52,1.28-0.38,1.99c0.32,1.64,2.15,2.61,2.99,3.95c0.11,0.17,0.18,0.36,0.27,0.54
		c-0.04,0.05-0.07,0.12-0.03,0.2c0.36,0.8,0.67,1.61,0.99,2.43c0.18,0.66,0.34,1.32,0.54,1.96c0.06,0.19,0.18,0.33,0.33,0.43
		c1.02,3.01,1.82,6.1,2.45,9.19c0.44,2.16,1.4,5.03,0.84,7.21c-0.52,2.02-0.72,3.55,0.12,5.55c0.83,1.98,2.2,3.62,3.39,5.39
		c1.26,1.86,2.32,3.87,3.16,5.95c1.42,3.5,3.72,7.59,2.75,11.46c-0.55,2.19-1.91,4.08-3.25,5.91c-2.51,3.45-5.13,6.99-8.8,9.16
		c2.5-0.56,4.82-1.28,7.22-2.03c0.69-0.22,1.4-0.44,2.13-0.42c1.02,0.03,1.97,0.54,2.73,1.22c1.83,1.64,2.59,4.12,3.23,6.49
		c0.71,2.59,1.37,5.22,1.41,7.91c0.08,5.49-2.42,10.65-4.87,15.57c-1.08,2.16-2.15,4.33-3.23,6.49c-0.78,1.57-1.57,3.4-0.84,4.99
		c1.37-2.88,3.49-5,5.22-7.59c1.8-2.69,3.25-5.81,4.35-8.84c0.86-2.37,1.72-4.75,2.25-7.22c1.02-4.75,0.76-9.68,0.29-14.52
		C572.53,300.38,572.48,299.97,572.44,299.57z"/>
	<path class="st2" d="M509.67,357.65c-0.21-2.48-0.42-4.97-0.63-7.45c-0.28-3.24-0.22-6.72-0.88-9.87
		c-0.06-0.29-0.11-0.64,0.11-0.84c0.33-0.3,0.84,0.05,1.15,0.38c1.53,1.68,3.06,3.37,4.6,5.05c-1.31-3.97-3.09-7.78-5.28-11.33
		c-1.14-1.85-2.45-3.81-2.3-5.97c0.06-0.88,0.36-1.73,0.64-2.57c1.48-4.42,2.47-9.01,2.94-13.66c-1.36,2.56-2.73,5.12-4.09,7.67
		c-2.68,5.03-1.6,11.31-1.02,16.75c0.8,7.54,1.18,15.13,1.13,22.72c-0.03,3.71-0.15,7.48,0.83,11.06c0.3,1.11,0.72,2.2,1.41,3.12
		c1.18,1.53,3.02,2.37,4.79,3.16c-2.65-1.18-4.07-5.49-4.21-8.1c-0.09-1.65,0.35-2.83,0.87-4.32
		C510.33,361.72,509.83,359.44,509.67,357.65z"/>
	<path class="st2" d="M556.74,376.21c-1.63,1.88-2.92,4.02-4.47,5.96c-0.73,0.92-1.48,1.77-2.41,2.47c-0.18,0.13-3.04,1.54-3,1.03
		c0.23-2.44,0.68-4.85,1.34-7.21c-1.39,3.08-2.03,6.43-3.2,9.59c-1.02,2.78-2.55,5.56-4.04,8.12c-0.59,1.02-0.89,2.34-2.23,1.41
		c-2.78-1.92-5.87-3.38-9.12-4.31c1.11,0.77,2.21,1.56,3.29,2.37c1.34,1,2.68,2.06,3.59,3.45c1.4,2.14,1.64,4.83,1.67,7.39
		c0,0.26,0.01,0.55,0.17,0.75c0.13,0.16,0.32,0.25,0.5,0.35c1.01,0.56,1.65,1.72,1.57,2.87c2.42-2.45,3.34-6.27,2.31-9.56
		c-0.11-0.35-0.24-0.69-0.25-1.05c-0.02-0.52,0.19-1.03,0.43-1.49c1.11-2.11,2.91-3.76,4.53-5.51c3.93-4.23,6.98-9.27,8.93-14.71
		C556.59,377.53,556.8,376.88,556.74,376.21z"/>
	<path class="st2" d="M454.85,213.13c1.38-5.42,2.59-10.85,2.64-16.46c0.02-2.81-0.05-5.64-0.43-8.42
		c-0.25-1.84-0.35-4.41-2.33-5.27c0.35,1.01,0.6,2.06,0.75,3.12c0.23,1.61,0.21,3.25,0.2,4.88c-0.03,3.96-0.1,7.75-0.76,11.67
		c-1.28,7.59-3.28,15.24-3.86,23c-0.58,7.68,0.63,15.55,2.41,23.01c0.03,0.14,0.26,0.11,0.26-0.03c-0.18-3.27-0.67-6.44-0.99-9.7
		c-0.14-1.46-0.33-2.92-0.45-4.39c-0.12-1.48,0.08-2.85,0.16-4.32C452.77,224.4,453.41,218.78,454.85,213.13z"/>
	<path class="st2" d="M459.9,300.03c-0.47-4-0.44-8.04-1.01-12.04c-0.32-2.2-0.5-4.42-0.72-6.63c-0.2-1.96-0.56-4-1.03-5.91
		c-0.85,0.4,0.09,5.07,0.17,6.06c0.19,2.45,0.34,4.91,0.45,7.37c0.25,5.57,0.29,11.15,0.33,16.72c0.02,2.76-0.29,5.51-0.22,8.29
		c0.03,1.35,0.1,2.7,0.14,4.05c0.14,5.62-0.4,11.26-1.58,16.76c-0.5,2.32-1.36,4.4-1.84,6.74c-0.55,2.66-1.19,5.31-2.14,7.87
		c-0.63,1.69-1.39,3.32-2.16,4.95c-0.8,1.68-1.61,3.35-2.44,5.02c-1.98,3.96-4.96,7.73-7.35,11.49c-1.62,2.55-3.25,5.11-5.23,7.39
		c5.9-5.53,11.44-10.98,14.95-18.38c2.62-5.52,4.93-11.31,6.8-17.12c1.06-3.27,1.91-6.59,2.3-10c0.42-3.63,0.33-7.3,0.3-10.95
		c-0.03-3.57,0.09-7.11,0.4-10.66C460.35,307.3,460.34,303.77,459.9,300.03z"/>
	<path class="st2" d="M343.49,342.44c-0.02-0.3-0.04-0.6-0.07-0.89c-0.3-3.4-0.44-6.81-0.44-10.22c0.01-6.82,0.62-13.64,1.83-20.35
		c0.24-1.34,0.51-2.68,0.8-4.01c-1.12,2.03-1.49,4.33-1.83,6.59c-0.36,2.36-0.88,4.66-1.14,7.04c-0.56,5.16-0.57,10.36-0.58,15.55
		c-0.01,5.22,0.46,10.11,1.82,15.15c0.01,0.05,0.11,0.05,0.1-0.01C343.6,348.33,343.69,345.38,343.49,342.44z"/>
	<path class="st2" d="M279.9,220.29c-0.59-0.37-1.1-0.82-1.68-1.2c-1.44-0.97-2.95-1.52-4.62-1.94c-0.67-0.17-1.28-0.4-1.98-0.41
		c-0.73-0.01-1.5,0.17-2.17-0.23c-0.3-0.18-0.52-0.46-0.74-0.73c-0.87-1.09-1.76-2.2-2.32-3.48c-0.28-0.64-0.48-1.32-0.86-1.9
		c-1.19-1.81-3.08-1.61-4.85-1.1c-2.52,0.73-4.88,1.5-7.3,2.53c-2.63,1.13-5.15,2.5-7.52,4.13c-1.24,0.85-2.45,1.77-3.6,2.74
		c-0.45,0.38-4.58,4.08-2.56,4.22c0.46,0.03,0.87-0.28,1.23-0.56c5.65-4.5,12.41-7.35,19.16-9.9c1.08-0.41,2.24-0.82,3.36-0.55
		c0.75,0.18,1.4,0.64,1.99,1.14c1.02,0.88,1.92,1.91,2.64,3.05c-0.14,0.47-0.65,0.71-1.11,0.89c-3.64,1.38-7.38,2.49-10.95,4.02
		c-3.58,1.53-7.03,3.52-9.66,6.39c0.3,0.3,0.8,0.21,1.21,0.09c4.55-1.33,8.71-3.72,13.01-5.7c1.81-0.83,3.76-1.61,5.73-1.32
		c0.96,0.14,1.91,0.54,2.88,0.46c0.85-0.08,1.62-0.51,2.45-0.69c1.76-0.37,3.53,0.47,5.18,1.19c0.64,0.28,1.25,0.65,1.89,0.92
		c0.8,0.33,1.74,0.4,2.57,0.69c1.34,0.46,2.63,1.1,4.02,1.37c-1.11-1.02-2.28-1.97-3.5-2.85
		C281.17,221.12,280.56,220.71,279.9,220.29z"/>
	<path class="st2" d="M318.04,267.74c0.11-0.73,0.17-1.44,0.11-1.69c-0.45-1.8-1.78-3.6-2.97-4.99c0.55,1.38,0.02,3.02,0.6,4.39
		c0.16,0.37,0.39,0.71,0.58,1.07c0.49,0.94,0.64,2.03,0.96,3.03c0.02,0.06,0.04,0.12,0.09,0.16
		C317.6,269.9,317.88,268.8,318.04,267.74z"/>
	<path class="st2" d="M342.61,366.37c-0.26,0.01-0.45,0.16-0.66,0.3c-0.2,0.13-0.39,0.27-0.58,0.41c-0.39,0.27-0.78,0.54-1.18,0.79
		c-0.39,0.25-0.78,0.49-1.17,0.73c-0.42,0.26-0.84,0.45-1.05,0.91c-0.04,0.08-0.01,0.2,0.09,0.22c0.22,0.04,0.41,0.05,0.63-0.02
		c0.24-0.07,0.47-0.22,0.69-0.34c0.43-0.23,0.86-0.47,1.27-0.73c0.4-0.25,0.79-0.52,1.18-0.79c0.21-0.15,0.42-0.3,0.63-0.47
		c0.2-0.16,0.42-0.31,0.5-0.57C343.02,366.6,342.84,366.37,342.61,366.37z"/>
	
		<linearGradient id="SVGID_1_" gradientUnits="userSpaceOnUse" x1="504.8638" y1="390.2279" x2="424.0884" y2="473.0019" gradientTransform="matrix(1 0 0 -1 0 799.8898)">
		<stop  offset="0" style="stop-color:#A35E26"/>
		<stop  offset="0.3854" style="stop-color:#C77639;stop-opacity:0.6146"/>
		<stop  offset="1" style="stop-color:#FC9956;stop-opacity:0"/>
	</linearGradient>
	<path class="st3" d="M485.75,372.18c-0.81,8.87-1.14,17.88-3.63,26.44c-7.27-3.89-15.39-5.88-23.44-7.7
		c-13.81-3.13-27.81-5.88-41.97-6.1c4.22-1.59,8.62-2.71,13.08-3.35c6.27-0.89,12.64-0.81,18.97-0.72c0.73,0.01,1.46,0.02,2.18-0.09
		c1.07-0.16,2.07-0.59,3.06-1.01c6.33-2.69,12.65-5.37,18.98-8.06c-1.38-2.81-2.48-5.75-3.28-8.78c-0.17-0.63-0.08-1.58,0.57-1.56
		c0.88-0.12,1.65,0.63,2.07,1.41s0.69,1.68,1.33,2.3c1.17,1.12,3.19,0.8,4.42-0.26s1.85-2.63,2.43-4.15
		c1.57-4.17,3.07-8.36,4.48-12.58c0.56-1.67,1-3.41,1.65-5.05c0.6-1.53,1.62-2.82,2.13-4.4c0.9-2.76,0.66-6.02,2.54-8.23
		c0.54,0.64,0.54,1.55,0.53,2.38c-0.08,3.47-1.44,6.82-2.03,10.24c-0.79,4.58-1.55,9.17-2.22,13.78
		C486.87,361.85,486.22,367,485.75,372.18z"/>
	
		<linearGradient id="SVGID_00000176030843608053532870000005401978644029224891_" gradientUnits="userSpaceOnUse" x1="595.3716" y1="427.1163" x2="529.1856" y2="446.0054" gradientTransform="matrix(1 0 0 -1 0 799.8898)">
		<stop  offset="0" style="stop-color:#A35E26"/>
		<stop  offset="0.3854" style="stop-color:#C77639;stop-opacity:0.6146"/>
		<stop  offset="1" style="stop-color:#FC9956;stop-opacity:0"/>
	</linearGradient>
	<path style="fill:url(#SVGID_00000176030843608053532870000005401978644029224891_);" d="M563.06,334.41
		c-1.61,2.05-3.43,4.54-2.62,7.01c0.26,0.8,0.79,1.5,1.02,2.31c0.4,1.4-0.14,2.87-0.67,4.22c-1.7,4.32-3.76,9.03-7.97,10.99
		c-2.31,1.08-4.93,1.15-7.44,1.56c-2.98,0.49-5.97,1.52-8.21,3.55c-1.51,1.38-2.61,3.14-3.56,4.95c-3.05,5.78-4.8,12.13-6.52,18.43
		c-0.15,0.55-0.3,1.11-0.26,1.68c0.06,0.83,0.55,1.58,1.12,2.19c1.88,1.98,4.67,2.7,7.25,3.57s5.32,2.17,6.42,4.66
		c3.8-4.1,7.62-8.24,10.61-12.97c2.38-3.78,3.39-7.41,4.98-11.46c1.66-4.24,3.5-8.4,5.51-12.48c1.27-2.59,2.62-5.15,3.74-7.81
		c2.07-4.9,3.35-10.08,4.63-15.24c0.46-1.84,0.91-3.71,0.85-5.6c-0.03-1.01-0.21-2-0.39-2.99c-0.45-2.5-0.91-5-1.36-7.49
		C568.03,327.3,565.78,330.94,563.06,334.41z"/>
	
		<linearGradient id="SVGID_00000096018432569969672420000018078772069104370069_" gradientUnits="userSpaceOnUse" x1="460.8078" y1="404.8973" x2="544.172" y2="416.3366" gradientTransform="matrix(1 0 0 -1 0 799.8898)">
		<stop  offset="0" style="stop-color:#A35E26"/>
		<stop  offset="0.1816" style="stop-color:#A96229;stop-opacity:0.8184"/>
		<stop  offset="0.4242" style="stop-color:#BA6D32;stop-opacity:0.5758"/>
		<stop  offset="0.7011" style="stop-color:#D68041;stop-opacity:0.2989"/>
		<stop  offset="1" style="stop-color:#FC9956;stop-opacity:0"/>
	</linearGradient>
	<path style="fill:url(#SVGID_00000096018432569969672420000018078772069104370069_);" d="M525.71,396.61
		c-0.17-1.47-0.6-3.03-1.79-3.91c-1.46-1.09-3.53-0.78-5.2-1.52c-1.66-0.74-2.69-2.4-3.62-3.96c-0.6-1.02-1.2-2.32-0.55-3.31
		c0.46-0.69,1.34-0.91,2.1-1.26c0.75-0.35,1.51-1.1,1.25-1.89c-0.08-0.24-0.24-0.44-0.4-0.62c-2.21-2.59-5.07-4.62-8.25-5.84
		c2.21,4.37,0.21,9.9,2.13,14.41c0.35,0.83,0.83,1.6,1.1,2.46c0.54,1.74,0.16,3.6-0.14,5.4c-0.09,0.54-0.16,1.13,0.11,1.6
		c0.54,0.93,1.9,0.76,2.96,0.62c2.75-0.36,5.3,0.42,7.9,1.22C526.37,400.94,526,399.12,525.71,396.61z"/>
	
		<linearGradient id="SVGID_00000174560434484504196210000006600637973634971538_" gradientUnits="userSpaceOnUse" x1="610.3087" y1="435.9484" x2="480.1839" y2="475.3179" gradientTransform="matrix(1 0 0 -1 0 799.8898)">
		<stop  offset="0" style="stop-color:#A35E26"/>
		<stop  offset="0.3854" style="stop-color:#C77639;stop-opacity:0.6146"/>
		<stop  offset="1" style="stop-color:#FC9956;stop-opacity:0"/>
	</linearGradient>
	<path style="fill:url(#SVGID_00000174560434484504196210000006600637973634971538_);" d="M511.62,374.89
		c2.53-4.66,2.49-10.22,2.52-15.52c0.01-1.72,0.23-3.77,1.75-4.56c1.15-0.6,2.54-0.18,3.83-0.09c2.23,0.14,4.43-0.8,6.17-2.2
		c1.74-1.4,3.09-3.23,4.32-5.09c1.32-2,2.56-4.14,2.88-6.51c0.5-3.77-1.31-8.04,0.82-11.2c0.89-1.32,2.32-2.15,3.73-2.87
		c4.03-2.07,8.34-3.62,12.13-6.09c3.8-2.47,7.14-6.11,7.89-10.58c0.16-0.96,0.16-2.04-0.47-2.78c-0.85-1-2.4-0.88-3.7-0.7
		c-3.71,0.54-7.55,1.02-11.18,0.08c-5.9-1.53-10.84-6.7-16.92-6.37c-2.02,0.11-3.95,0.84-5.84,1.56c-2.94,1.13-6.16,1.38-7.41,4.75
		c-0.24,0.65-0.38,1.35-0.64,1.99c-0.61,1.51-1.85,2.65-2.89,3.91c-3.91,4.7-5.02,11.17-4.83,17.28s1.53,12.14,1.91,18.24
		c0.34,5.57-0.12,11.16,0.22,16.73C506.16,368.83,506.92,373.75,511.62,374.89z"/>
	
		<linearGradient id="SVGID_00000157281601894669101910000015277708913555244686_" gradientUnits="userSpaceOnUse" x1="563.1666" y1="574.133" x2="484.7444" y2="529.2003" gradientTransform="matrix(1 0 0 -1 0 799.8898)">
		<stop  offset="0" style="stop-color:#A35E26"/>
		<stop  offset="0.3854" style="stop-color:#C77639;stop-opacity:0.6146"/>
		<stop  offset="1" style="stop-color:#FC9956;stop-opacity:0"/>
	</linearGradient>
	<path style="fill:url(#SVGID_00000157281601894669101910000015277708913555244686_);" d="M517.1,302.8
		c2.59-1.09,5.31-1.96,8.11-2.05c1.46-0.04,2.91,0.12,4.37,0.06c7.01-0.31,12.62-5.81,16.91-11.37c0.78-1.01,1.56-2.06,1.91-3.28
		c0.37-1.28,0.26-2.64,0.15-3.97c-0.48-5.49-0.96-11.01-2.37-16.33c-0.2-0.74-0.44-1.52-1.04-2c-0.51-0.4-1.19-0.51-1.84-0.57
		c-3.38-0.3-6.79,0.41-10.18,0.2c-7.44-0.45-13.86-5.1-19.81-9.58c-0.61-0.46-1.23-0.94-1.57-1.62c-0.98-2,1.01-4.11,2.69-5.58
		c5.41-4.72,9.66-10.77,12.27-17.46c-1.62-1.34-3.94-1.36-6.03-1.17c-3.94,0.37-7.82,1.29-11.51,2.71
		c-2.02,0.78-4.07,1.73-6.24,1.69c-3.96-0.07-7.02-3.3-10.47-5.25c-1.34-0.76-2.81-1.35-3.88-2.46c-1.6-1.66-1.97-4.12-2.95-6.21
		s-3.37-4-5.44-2.98c-0.77,3.8-1.55,7.67-1.07,11.52c0.22,1.74,0.7,3.47,0.62,5.22c-0.1,2.36-1.19,4.55-1.72,6.85
		c-1.24,5.35,0.57,10.88,2.35,16.08c1.81-0.48,3.73,0.64,4.83,2.16c1.1,1.52,1.57,3.38,2.16,5.16c1.16,3.52,2.81,6.88,4.89,9.95
		c1.69,2.49,3.66,4.78,5.23,7.35c2.69,4.4,4.11,9.43,5.83,14.3c1.42,4.02,2.86,9.48,5.46,12.91c1.4,1.85,2.21,0.62,3.46-0.8
		C513.59,304.73,515.17,303.61,517.1,302.8z"/>
	
		<linearGradient id="SVGID_00000140014302592935383660000010808810821604645812_" gradientUnits="userSpaceOnUse" x1="526.2556" y1="512.6873" x2="435.748" y2="519.2896" gradientTransform="matrix(1 0 0 -1 0 799.8898)">
		<stop  offset="0" style="stop-color:#A35E26"/>
		<stop  offset="0.3854" style="stop-color:#C77639;stop-opacity:0.6146"/>
		<stop  offset="1" style="stop-color:#FC9956;stop-opacity:0"/>
	</linearGradient>
	<path style="fill:url(#SVGID_00000140014302592935383660000010808810821604645812_);" d="M490.47,235.26
		c0.38-0.46,0.77-0.92,1.15-1.38c0.08-0.09,0.16-0.2,0.18-0.32s-0.07-0.27-0.19-0.27c-2.14,2.13-3.07-1.49-3.56-2.85
		c-0.54-1.51-0.99-3.07-1.63-4.54c-0.43-1-0.54-1.93-0.85-2.95c-0.42-1.4-1.18-2.77-1.76-4.12c-0.26-0.61-0.53-1.24-0.96-1.75
		c-0.42-0.52-1.03-0.92-1.7-0.95c-0.21-0.01-0.43,0.03-0.57,0.18c-0.09,0.1-0.13,0.23-0.17,0.35c-1.03,3.37-1.23,6.98-0.57,10.44
		c-1.39-0.4-2.69-1.59-3.94-2.35c-1.47-0.88-2.96-1.73-4.47-2.53s-3.04-1.57-4.6-2.29c-0.57-0.26-4.4-1.51-4.5-1.96
		c4.49,20.1,8.98,40.19,13.47,60.29c1.01,4.54,2.03,9.09,2.54,13.71c0.33,3.01,0.26,6.51-2.04,8.48c-1.27,1.09-2.98,1.47-4.62,1.82
		c-3.52,0.75-7.04,1.5-10.56,2.25c6.94,4.37,12.64,10.69,16.27,18.04c0.51,1.04,0.97,2.34,0.32,3.3c-0.38,0.56-1.04,0.83-1.63,1.18
		c-2.85,1.68-4,5.13-5.24,8.19c-2.24,5.52-5.47,10.63-9.5,15.02c3.98-0.69,7.96-1.39,11.95-2.08c2.15-0.37,4.37-0.72,6.31-1.73
		c1.67-0.87,3.49-0.69,5.05,0.54c0.87-0.88,1.28-2.12,1.65-3.3c1.22-3.89,2.81-7.82,3.62-11.81c0.11-0.57,0.24-1.15,0.59-1.61
		c0.27-0.35,0.65-0.6,0.91-0.95c0.46-0.61,0.51-1.42,0.54-2.17c0.09-2.07,0.17-4.15,0.26-6.22c0.07-1.71-0.03-3.41,0.57-5.01
		c1.27-3.41,1.93-7.2,2.87-10.73c1.95-7.27,2.84-14.82,2.61-22.34c-0.02-0.7-0.05-1.42-0.3-2.08c-0.26-0.72-0.76-1.33-1.24-1.92
		c-1.28-1.56-2.56-3.13-3.84-4.69c-3.12-3.81-5.16-8.8-6.87-13.4c-1.12-3.01-3.15-6.75-3.65-9.88c-0.27-1.68-0.01-3.66,0.77-5.18
		C485.27,241.55,487.5,238.81,490.47,235.26z"/>
	
		<linearGradient id="SVGID_00000174587875597578349490000005613316166135826055_" gradientUnits="userSpaceOnUse" x1="301.8556" y1="532.1833" x2="304.7993" y2="481.3735" gradientTransform="matrix(1 0 0 -1 0 799.8898)">
		<stop  offset="0" style="stop-color:#A35E26"/>
		<stop  offset="0.3854" style="stop-color:#C77639;stop-opacity:0.6146"/>
		<stop  offset="1" style="stop-color:#FC9956;stop-opacity:0"/>
	</linearGradient>
	<path style="fill:url(#SVGID_00000174587875597578349490000005613316166135826055_);" d="M331.73,281.61
		c-0.3,0.7-0.7,1.48-1.44,1.66c-0.36,0.09-0.75,0.01-1.11-0.07c-1.43-0.31-2.85-0.62-4.28-0.93c0.41,5.49-0.37,11.06-2.29,16.22
		c-0.13,0.36-0.3,0.74-0.65,0.89c-0.33,0.14-0.72,0.02-1.07-0.07c-3.64-0.95-7.06,1.81-10.42,3.49c-4.53,2.27-9.97,2.67-14.78,1.08
		c-3.81-1.25-7.12-3.64-10.4-5.93c-6.08-4.24-12.31-8.25-18.54-12.26c2.53,6.12,5.1,12.3,8.94,17.69c2.74,3.83,6.1,7.23,8.41,11.34
		c1.05,1.86,1.88,3.86,3.16,5.57c1.75,2.33,4.24,3.99,6.83,5.33c10.15,5.27,22.51,6.08,33.27,2.2c-0.34-10.18-0.55-20.48,1.7-30.41
		c0.8-3.53,1.91-6.99,3.02-10.44c1.1-3.44,2.21-6.89,3.31-10.33c0.54-1.67,1.07-3.34,1.61-5.01c0.3-0.94,1.51-3.2,0.83-4.03
		C335.53,272.11,333.74,276.96,331.73,281.61z"/>
	
		<linearGradient id="SVGID_00000135679512617352134390000016558027068475635108_" gradientUnits="userSpaceOnUse" x1="282.0201" y1="479.7532" x2="327.87" y2="479.7532" gradientTransform="matrix(1 0 0 -1 0 799.8898)">
		<stop  offset="0" style="stop-color:#A35E26"/>
		<stop  offset="0.3854" style="stop-color:#C77639;stop-opacity:0.6146"/>
		<stop  offset="1" style="stop-color:#FC9956;stop-opacity:0"/>
	</linearGradient>
	<path style="fill:url(#SVGID_00000135679512617352134390000016558027068475635108_);" d="M289.75,323.07
		c0.86,0.59,1.78,1.07,2.71,1.55c1.22,0.64,2.45,1.28,3.67,1.92c1.08,0.56,2.16,1.13,3.28,1.59c3.11,1.27,6.5,1.55,9.83,1.66
		c5.1,0.16,9.93-0.28,14.96-0.87c1.33-0.16,2.61-0.68,3.67-1.5c-0.12-2.43-0.21-4.86-0.28-7.29c-0.05-2.07-0.38-4.08-0.12-6.15
		c0.05-0.38-0.01-3.51,0.03-3.53c-0.9,0.62-1.42,1.66-2.18,2.45c-0.76,0.79-2.08,1.3-2.93,0.61c0.78,1.35,1.59,2.87,1.22,4.38
		c-0.19,0.79-0.69,1.48-1.27,2.05c-1.58,1.57-3.86,2.38-6.08,2.29c-2.02-0.08-4.69-0.57-6.27-1.91c-0.71-0.6-1.22-1.4-1.83-2.1
		c-0.77-0.88-2.22-2.11-3.44-2.17c-1.6-0.07-3.28,1.19-4.54,2.01c-3.05,2-6.56,2.18-9.8,0.5c-3.08-1.59-4.94-4.42-8.36-5.49
		c0.48,0.79,0.97,1.59,1.45,2.38c1.67,2.75,3.41,5.57,6.02,7.45C289.58,322.95,289.66,323.01,289.75,323.07z"/>
	
		<linearGradient id="SVGID_00000115507949932423545590000005114986436731616421_" gradientUnits="userSpaceOnUse" x1="302.7887" y1="573.3148" x2="240.8727" y2="539.7529" gradientTransform="matrix(1 0 0 -1 0 799.8898)">
		<stop  offset="0" style="stop-color:#A35E26"/>
		<stop  offset="0.3854" style="stop-color:#C77639;stop-opacity:0.6146"/>
		<stop  offset="1" style="stop-color:#FC9956;stop-opacity:0"/>
	</linearGradient>
	<path style="fill:url(#SVGID_00000115507949932423545590000005114986436731616421_);" d="M281.6,240.36
		c-0.26-0.55-1.16-0.43-1.51,0.07c-0.34,0.5-0.29,1.17-0.23,1.78c0.24,2.26,0.48,4.52,0.72,6.78c0.57,5.38,1.17,10.85,3.25,15.85
		c0.89,2.13,2.05,4.19,2.34,6.48c-6.91-4.5-14.61-8.69-22.84-8.33c-1.2,5.81-0.58,11.99,1.75,17.45c0.55,1.28,1.2,2.57,1.26,3.96
		c-0.01-0.29-0.98-1.09-1.19-1.34c-0.33-0.39-0.71-0.79-1.02-1.2c-0.58-0.77-0.8-1.79-1.12-2.71c-0.74-2.09-1.52-4.16-2.4-6.19
		c-1.73-3.96-3.89-7.79-6.91-10.91c-1.7-1.76-3.65-3.27-5.25-5.12c-2.73-3.17-4.31-7.22-5.06-11.34c-0.44-2.42-0.61-4.87-0.63-7.33
		c-0.01-1.23,0.01-2.46,0.06-3.69c0.02-0.52,0-1.07,0.12-1.57c0.1-0.4,0.4-0.72,0.3-1.16c-0.04-0.16-0.13-0.31-0.24-0.44
		c-0.35-0.4-0.84-0.64-1.3-0.91c-1.34-0.8-3.41-3.12-3.46-4.75c-0.03-1.11,0.67-2.08,1.34-2.97c0.19,0.9,1.43,1.01,2.33,0.83
		c1.38-0.27,2.73-0.72,3.99-1.33c0.83-0.4,1.67-0.88,2.59-0.9c0.92-0.01,1.93,0.68,1.87,1.6c-0.06,0.82-0.86,1.33-1.52,1.81
		c-1.15,0.82-2.12,1.89-2.83,3.12c1.9,0.81,3.81,1.62,5.71,2.43c0.31,0.13,0.64,0.27,0.97,0.2c0.37-0.07,0.64-0.37,0.89-0.64
		c3.91-4.19,9.9-6.34,15.58-5.59c-1.14,0.52-7.22,2.37-6.03,4.02c0.43,0.59,2.73,0.85,3.45,1.1c1.16,0.41,2.29,0.89,3.39,1.42
		C274.51,233.08,278.54,236.34,281.6,240.36z"/>
	
		<linearGradient id="SVGID_00000147201534340688628830000011513322431808056510_" gradientUnits="userSpaceOnUse" x1="229.9737" y1="560.4322" x2="262.3894" y2="561.7399" gradientTransform="matrix(1 0 0 -1 0 799.8898)">
		<stop  offset="0" style="stop-color:#A35E26"/>
		<stop  offset="0.3854" style="stop-color:#C77639;stop-opacity:0.6146"/>
		<stop  offset="1" style="stop-color:#FC9956;stop-opacity:0"/>
	</linearGradient>
	<path style="fill:url(#SVGID_00000147201534340688628830000011513322431808056510_);" d="M245.84,232.54
		c0.18,2.21,1.31,4.42,3.25,5.49c0.9,0.5,1.97,0.77,2.63,1.55c0.2,0.24,0.35,0.54,0.34,0.85c-0.02,0.47-0.44,0.84-0.88,0.98
		c-0.45,0.13-0.93,0.08-1.39,0.02c-0.73-0.09-1.46-0.18-2.2-0.26c-0.35-0.04-0.7-0.08-1.04-0.02c-0.81,0.16-1.39,0.91-1.64,1.69
		c-0.25,0.79-0.23,1.63-0.28,2.45s-0.19,1.68-0.7,2.33c-0.26-0.15-0.33-0.48-0.39-0.78c-0.47-2.58-0.94-5.16-1.15-7.78
		c-0.18-2.26-0.15-4.61,0.61-6.77c0.25-0.72,0.71-2.09,1.66-2.15C245.81,230.07,245.77,231.77,245.84,232.54z"/>
	
		<linearGradient id="SVGID_00000169540527164629695740000003673970337864173212_" gradientUnits="userSpaceOnUse" x1="401.4874" y1="617.6218" x2="392.9408" y2="652.8672" gradientTransform="matrix(1 0 0 -1 0 799.8898)">
		<stop  offset="0" style="stop-color:#A35E26"/>
		<stop  offset="0.2417" style="stop-color:#A66028;stop-opacity:0.7583"/>
		<stop  offset="0.4454" style="stop-color:#B1672D;stop-opacity:0.5546"/>
		<stop  offset="0.6353" style="stop-color:#C27337;stop-opacity:0.3647"/>
		<stop  offset="0.817" style="stop-color:#DB8344;stop-opacity:0.183"/>
		<stop  offset="0.9912" style="stop-color:#FA9855;stop-opacity:8.791924e-03"/>
		<stop  offset="1" style="stop-color:#FC9956;stop-opacity:0"/>
	</linearGradient>
	<path style="fill:url(#SVGID_00000169540527164629695740000003673970337864173212_);" d="M402.53,166.71
		c0.23-0.14,0.46-0.28,0.6-0.5c0.11-0.18,0.16-0.39,0.19-0.6c0.22-1.32,0.23-2.68,0.04-4c-0.11-0.73-0.34-3.16-1.34-3.22
		c-0.25-0.01-0.49,0.09-0.71,0.19c-2.91,1.3-5.62,3.02-8.03,5.1c-0.48,0.41-0.95,0.84-1.31,1.36c-1.18,1.66-1.26,4.45,0.51,5.75
		c0.9,0.66,1.84,0.04,2.76-0.34C397.75,169.37,400.19,168.12,402.53,166.71z"/>
	
		<linearGradient id="SVGID_00000040551450037580872040000002217367514804292257_" gradientUnits="userSpaceOnUse" x1="460.892" y1="644.3897" x2="460.892" y2="664.1378" gradientTransform="matrix(1 0 0 -1 0 799.8898)">
		<stop  offset="0" style="stop-color:#A35E26"/>
		<stop  offset="0.2417" style="stop-color:#A66028;stop-opacity:0.7583"/>
		<stop  offset="0.4454" style="stop-color:#B1672D;stop-opacity:0.5546"/>
		<stop  offset="0.6353" style="stop-color:#C27337;stop-opacity:0.3647"/>
		<stop  offset="0.817" style="stop-color:#DB8344;stop-opacity:0.183"/>
		<stop  offset="0.9912" style="stop-color:#FA9855;stop-opacity:8.791924e-03"/>
		<stop  offset="1" style="stop-color:#FC9956;stop-opacity:0"/>
	</linearGradient>
	<path style="fill:url(#SVGID_00000040551450037580872040000002217367514804292257_);" d="M466.88,145.95
		c0.39-0.1,0.78-0.19,1.15-0.36c-1.75-1.16-3.94-1.38-6.04-1.57c-2.32-0.21-4.65-0.42-6.98-0.36c-0.31,0.01-0.64,0.03-0.89,0.22
		c-0.37,0.29-0.38,0.83-0.36,1.29c0.08,1.31,0.26,2.61,0.55,3.89c0.25,1.12,0.58,1.85,1.75,1.21c2.21-1.2,4.47-2.27,6.84-3.11
		C464.21,146.7,465.54,146.29,466.88,145.95z"/>
	
		<linearGradient id="SVGID_00000039095836601842934160000003597469491583188648_" gradientUnits="userSpaceOnUse" x1="433.1791" y1="575.958" x2="433.587" y2="626.9484" gradientTransform="matrix(1 0 0 -1 0 799.8898)">
		<stop  offset="0" style="stop-color:#A35E26"/>
		<stop  offset="0.3854" style="stop-color:#C77639;stop-opacity:0.6146"/>
		<stop  offset="1" style="stop-color:#FC9956;stop-opacity:0"/>
	</linearGradient>
	<path style="fill:url(#SVGID_00000039095836601842934160000003597469491583188648_);" d="M408.82,185.22
		c9.7,0.94,19.53-0.9,28.7-4.18c9.18-3.29,17.78-8,26.16-12.97c5.27-3.12,10.64-6.42,16.68-7.45c2.16-0.37,4.54-0.4,6.38,0.81
		c-4.85,1.36-9.48,3.5-13.66,6.3c0.4-0.04,0.6,0.55,0.39,0.88c-0.21,0.34-0.63,0.47-1.01,0.61c-2.72,0.97-4.82,3.13-7.01,5.02
		c-8.24,7.11-18.66,11.08-28.85,14.91c0.56-0.98,0.77-2.16,0.61-3.27c-7.77,1.76-15.59,3.47-23.55,3.89s-16.11-0.51-23.36-3.82
		c0.15,0.55,0.3,1.09,0.46,1.64c-2.81-0.72-5.37-2.34-7.24-4.55c0.68-0.08,1.36-0.16,2.03-0.24c-1.02,0.12-4.79-5.03-4.98-6
		c-0.64-3.42,3.33-0.8,4.33-0.13c4.52,3.02,9.52,5.33,14.75,6.82C402.66,184.33,405.72,184.92,408.82,185.22z"/>
	
		<linearGradient id="SVGID_00000061457474831431969370000007412332612054601867_" gradientUnits="userSpaceOnUse" x1="315.5547" y1="542.7339" x2="375.6553" y2="583.3902" gradientTransform="matrix(1 0 0 -1 0 799.8898)">
		<stop  offset="0" style="stop-color:#A35E26"/>
		<stop  offset="0.3854" style="stop-color:#C77639;stop-opacity:0.6146"/>
		<stop  offset="1" style="stop-color:#FC9956;stop-opacity:0"/>
	</linearGradient>
	<path style="fill:url(#SVGID_00000061457474831431969370000007412332612054601867_);" d="M362.71,210.96
		c-4.92,5.78-11.96,9.43-16.9,15.18c3.03-2.2,6.54-3.73,10.2-4.47c0.28-0.06,0.58-0.11,0.86-0.04c1.49,0.37,0.93,3.37,2.46,3.57
		c0.25,0.03,0.5-0.03,0.74-0.09c15.81-4.11,30.73-11.25,46.59-15.17c-5.32,0.2-10.55,1.42-15.74,2.64
		c-4.77,1.12-9.55,2.25-14.32,3.38c-1.64,0.39-3.27,0.77-4.91,1.16c0.76-0.18,0.87-2.98,1.32-3.6c0.8-1.11,2.52-2.08,3.64-2.83
		c2.09-1.38,5.99-3.92,8.61-3.77c-4.15-0.24-8.13,1.14-12.13,2.01c-2.09,0.45-4.1,0.64-6.23,0.72
		C365.56,209.71,363.68,209.81,362.71,210.96z"/>
	
		<linearGradient id="SVGID_00000111152401015439389440000016953990990401873833_" gradientUnits="userSpaceOnUse" x1="420.5317" y1="524.7535" x2="454.5505" y2="532.6912" gradientTransform="matrix(1 0 0 -1 0 799.8898)">
		<stop  offset="0" style="stop-color:#A35E26"/>
		<stop  offset="0.3854" style="stop-color:#C77639;stop-opacity:0.6146"/>
		<stop  offset="1" style="stop-color:#FC9956;stop-opacity:0"/>
	</linearGradient>
	<path style="fill:url(#SVGID_00000111152401015439389440000016953990990401873833_);" d="M431.82,260.82
		c1.39-0.7,3.05-0.41,4.58-0.09c12.1,2.61,23.9,7.22,33.83,14.6c-6.3-1.82-12.5-4-18.56-6.52c0.6,1,1.2,1.99,1.8,2.99
		c-0.35-0.58-4.86-1.45-5.79-2.03c-1.32-0.82-2.18-2.09-3.44-2.95C440.55,264.31,435.7,263.19,431.82,260.82z"/>
	
		<linearGradient id="SVGID_00000161621303913596110850000005816022055222130328_" gradientUnits="userSpaceOnUse" x1="368.8018" y1="475.0792" x2="371.0728" y2="399.4546" gradientTransform="matrix(1 0 0 -1 0 799.8898)">
		<stop  offset="0" style="stop-color:#A35E26"/>
		<stop  offset="0.3854" style="stop-color:#C77639;stop-opacity:0.6146"/>
		<stop  offset="1" style="stop-color:#FC9956;stop-opacity:0"/>
	</linearGradient>
	<path style="fill:url(#SVGID_00000161621303913596110850000005816022055222130328_);" d="M341.11,396.93
		c2-0.64,4.08-0.98,6.11-1.47c2.94-0.71,5.81-1.72,8.55-3.01c1.99-0.94,3.92-2.02,6-2.72c2.89-0.97,5.98-1.15,8.98-1.73
		c2.99-0.58,5.89-1.56,8.78-2.53c11.87-4.01,23.74-8.03,35.61-12.04c-4.73,0.43-9.34,1.65-13.96,2.76
		c-6.54,1.57-13.13,2.91-19.76,4.02c-3.47,0.58-6.94,1.1-10.43,1.55c-0.69,0.09-8.13,1.23-5.82-0.68c1.5-1.24,3.31-2.02,5.07-2.83
		c5.54-2.57,10.85-5.65,15.83-9.18c-6.06,1.74-11.59,4.84-17.16,7.7c-1.24,0.64-16.4,7.33-16.69,6.34c0.35,1.2-0.87,2.23-1.93,2.88
		c-2.18,1.35-10.2,8.16-12.33,4.06c1.77-2.58,0.81-6.13-0.63-8.91s-3.35-5.54-3.34-8.67c1.69,0.14,3.4-0.12,4.98-0.74
		c-2.94-0.21-5.8-1.41-8-3.36c0.26,1.82,0.07,3.71-0.55,5.45c-1.16,0.3-2.62-0.64-3.49,0.19c-0.43,0.41-0.46,1.08-0.47,1.67
		c-0.06,9.15-0.12,18.3-0.18,27.44c0,0.3,0,0.61,0.13,0.88c0.51,1.05,2.11,0.46,3.03-0.27
		C333.06,400.87,336.72,398.44,341.11,396.93z"/>
	
		<linearGradient id="SVGID_00000129168533105934313260000008918786727669361816_" gradientUnits="userSpaceOnUse" x1="331.1954" y1="520.7458" x2="396.3152" y2="557.308" gradientTransform="matrix(1 0 0 -1 0 799.8898)">
		<stop  offset="0" style="stop-color:#A35E26"/>
		<stop  offset="0.3854" style="stop-color:#C77639;stop-opacity:0.6146"/>
		<stop  offset="1" style="stop-color:#FC9956;stop-opacity:0"/>
	</linearGradient>
	<path style="fill:url(#SVGID_00000129168533105934313260000008918786727669361816_);" d="M391.09,238.38
		c14.33-1.54,28.82-0.82,43.17,0.6c-13.42,0.75-26.84,1.5-40.27,2.26c4.2,0.76,8.41,1.52,12.61,2.28
		c-4.11-0.74-9.31,0.22-13.46,0.53c-4.74,0.36-9.46,0.89-14.16,1.6c-4.61,0.7-9.2,1.57-13.75,2.6c-3.68,0.84-8.76,3.29-12.43,3.06
		c0.46-4.66,12.52-7.32,16.1-8.44C376.12,240.63,383.58,239.19,391.09,238.38z"/>
	<g>
		<g>
			<path d="M380.02,172.3c-3.36,1.87-6.76,3.68-10.21,5.38c-3.19,1.57-6.45,2.99-9.69,4.45c-3.67,1.65-7.09,3.58-10.2,6.15
				c-3.03,2.5-5.76,5.38-8.33,8.34c-2.56,2.94-4.94,6.04-7.13,9.27c-2.17,3.19-4.27,6.53-5.94,10.02c-0.86,1.8-1.45,3.68-1.27,5.7
				c0.09,0.96,0.25,1.92,0.04,2.88c-0.22,0.95-0.64,1.83-1.09,2.69c-1.31,2.54-2.95,4.91-4.53,7.29c-0.83,1.25-1.67,2.5-2.5,3.75
				c-0.81,1.22-1.46,2.6-2.41,3.71c-0.61,0.71-1.32,1.35-1.72,2.2c-0.41,0.88-0.53,1.85-0.68,2.8c-0.35,2.14-0.6,4.29-0.75,6.45
				c-0.07,1.06-0.12,2.11-0.15,3.17c-0.03,1.29,1.97,1.29,2,0c0.05-2.12,0.2-4.23,0.44-6.33c0.12-1.04,0.27-2.08,0.44-3.12
				c0.15-0.88,0.23-1.83,0.78-2.57c0.54-0.72,1.21-1.33,1.75-2.07c0.48-0.66,0.83-1.39,1.27-2.07c0.73-1.13,1.48-2.24,2.22-3.36
				c1.66-2.48,3.34-4.95,4.84-7.53c0.78-1.35,1.58-2.77,1.97-4.29c0.5-1.93-0.23-3.85,0.18-5.77c0.4-1.86,1.38-3.54,2.3-5.18
				c0.94-1.68,1.92-3.34,2.95-4.96c2.06-3.24,4.32-6.36,6.76-9.32c2.45-2.97,5.06-5.84,7.88-8.46c2.86-2.65,5.99-4.83,9.48-6.55
				c3.26-1.6,6.62-2.96,9.9-4.52c3.27-1.55,6.48-3.21,9.66-4.94c0.92-0.5,1.83-1,2.74-1.5C382.16,173.4,381.15,171.67,380.02,172.3
				L380.02,172.3z"/>
		</g>
	</g>
	<g>
		<g>
			<path d="M315.83,246.62c-1.44-1.65-3.17-3.06-5.07-4.14c-0.96-0.54-1.98-1-3.01-1.38c-1.06-0.38-2.17-0.63-3.23-1
				c-1.02-0.35-1.92-0.87-2.7-1.62c-0.77-0.75-1.43-1.6-2.11-2.42c-1.44-1.71-2.96-3.36-4.55-4.93c-3.02-3-6.28-5.76-9.73-8.25
				c-2.74-1.98-5.62-3.82-8.68-5.29c-1.28-0.62-2.61-1.19-3.97-1.58c-0.91-0.26-1.92-0.5-2.88-0.38c-0.54,0.06-1,0.41-1,1
				c0,0.49,0.46,1.07,1,1c0.35-0.04,0.69-0.02,1.03,0.01c0.18,0.02-0.19-0.04,0.07,0.01c0.09,0.02,0.19,0.03,0.28,0.05
				c0.24,0.05,0.49,0.11,0.73,0.17c1.09,0.29,2.14,0.71,3.13,1.17c2.92,1.34,5.68,3.04,8.31,4.88c3.36,2.35,6.52,4.97,9.47,7.81
				c1.58,1.52,3.1,3.11,4.54,4.77c1.4,1.6,2.63,3.46,4.47,4.6c2.08,1.29,4.64,1.51,6.84,2.58c2.17,1.06,4.07,2.53,5.66,4.34
				C315.27,249.01,316.68,247.59,315.83,246.62L315.83,246.62z"/>
		</g>
	</g>
	<g>
		<g>
			<path d="M344.13,245.21c-5.06,15.59-10.12,31.19-14.18,47.08c-1,3.91-2,7.84-2.63,11.83c-0.64,4.02-0.77,8.05-0.69,12.12
				c0.08,4.09,0.25,8.17,0.05,12.26c-0.2,4.03-0.65,8.05-1.13,12.05c-0.96,8.08-1.94,16.13-1.47,24.28
				c0.46,8.03,1.84,16.03,1.47,24.09c-0.04,0.94-0.15,1.88-0.14,2.82c0.01,0.47,0.05,0.94,0.12,1.41c0.05,0.41,0.04,0.13,0.06,0.53
				c0.05,0.88,0.04,1.77,0.03,2.66c-0.02,2.12-0.14,4.28,0.07,6.4c0.07,0.68,0.13,1.46,0.52,2.05c0.69,1.04,2.04,0.51,3.01,0.22
				c2.44-0.72,4.58-2.09,6.35-3.91c0.58-0.6,1.11-1.24,1.69-1.84c0.2-0.21,0.41-0.39,0.49-0.45c0.21-0.15,0.06-0.05,0.13-0.08
				c0.49-0.2,1.04-0.3,1.54-0.44c2.82-0.77,5.7-1.25,8.54-1.9c1.67-0.38,3.37-0.78,4.99-1.36c1.67-0.6,3.25-1.44,4.84-2.22
				c1.63-0.8,3.25-1.47,5.03-1.86c1.95-0.42,3.92-0.77,5.9-1.06c7.96-1.17,16.04-1.5,24.07-2.04c8.21-0.55,16.41-1.16,24.64-1.33
				c4.12-0.09,8.24-0.06,12.36,0.16c3.39,0.18,6.71,0.58,10.07,1.1c6.35,0.98,12.71,2.03,19.03,3.2c3.52,0.65,7,1.54,10.35,2.82
				c1.68,0.64,3.32,1.4,4.9,2.25c1.63,0.87,3.15,1.86,4.91,2.47c1.04,0.36,2.42,1.07,3.53,0.59c0.6-0.26,0.87-0.83,1.01-1.44
				c0.22-1.01,0.37-2.04,0.53-3.06c0.64-3.95,1.2-7.92,1.63-11.9c0.44-4.05,0.55-8.11,0.84-12.17c0.3-4.14,0.74-8.27,1.4-12.36
				c1.29-7.92,3.18-15.73,4.23-23.69c0.52-3.97,0.68-7.95,0.91-11.95c0.23-4.03,0.78-7.9,2.06-11.73c1.07-3.21,2-6.35,2.54-9.7
				c0.54-3.33,0.85-6.7,1.09-10.06c0.21-3.06,0.35-6.13,0.5-9.2c0.06-1.29-1.94-1.28-2,0c-0.31,6.43-0.53,12.91-1.61,19.27
				c-0.56,3.32-1.56,6.44-2.61,9.63c-1.22,3.73-1.73,7.55-1.96,11.46c-0.23,3.88-0.36,7.75-0.84,11.61
				c-0.5,4.01-1.25,7.99-2.02,11.95c-1.51,7.77-2.97,15.5-3.59,23.41c-0.32,4-0.41,8.02-0.79,12.01c-0.38,3.93-0.92,7.85-1.53,11.75
				c-0.15,0.97-0.31,1.94-0.48,2.9c-0.06,0.35-0.29,0.94-0.23,1.29c0.05,0.29-0.07,0.18,0.25,0.12c-0.15,0.03-0.35-0.03-0.48-0.06
				c-1.47-0.31-2.99-1-4.28-1.75c-3.01-1.75-6.14-3.22-9.45-4.32c-6.17-2.05-12.72-2.88-19.12-3.95c-6.58-1.1-13.14-2.24-19.81-2.54
				c-8.07-0.36-16.15-0.03-24.21,0.46c-8,0.48-16,1.01-23.99,1.6c-3.91,0.29-7.82,0.64-11.71,1.19c-3.63,0.51-7.34,1.03-10.7,2.56
				c-1.65,0.75-3.24,1.65-4.92,2.36c-1.57,0.66-3.26,1.07-4.92,1.47c-2.75,0.67-5.55,1.12-8.3,1.81c-1.12,0.28-2.49,0.45-3.44,1.14
				c-0.58,0.43-1.05,0.99-1.53,1.53c-1.48,1.64-3.1,3.08-5.17,3.93c-0.63,0.26-1.28,0.46-1.94,0.61c-0.49,0.12-0.87,0.05-0.16,0.29
				c0.1,0.03,0.18,0.1,0.11,0.1c-0.05,0,0-0.01,0-0.01c-0.1-0.73-0.23-1.38-0.25-2.15c-0.08-2.14,0.02-4.28,0.01-6.42
				c0-0.86-0.09-1.67-0.17-2.52c-0.19-1.97,0.14-4,0.15-5.97c0.03-3.97-0.31-7.92-0.68-11.87c-0.38-3.96-0.8-7.92-0.94-11.89
				c-0.14-3.92,0.04-7.83,0.39-11.74c0.71-7.93,2.06-15.8,2.35-23.76c0.15-4.04-0.06-8.07-0.12-12.11
				c-0.05-4.05,0.17-8.06,0.89-12.05c1.43-7.87,3.7-15.63,5.91-23.31c2.21-7.69,4.6-15.32,7.04-22.94c1.19-3.73,2.4-7.45,3.61-11.17
				C346.46,244.52,344.53,243.99,344.13,245.21L344.13,245.21z"/>
		</g>
	</g>
	<g>
		<g>
			<path d="M484.63,257.25c0.9,4.48,3.04,8.57,5.21,12.55c0.54,0.99,1.07,1.99,1.68,2.94s1.33,1.81,2,2.72
				c1.16,1.58,2.22,3.22,3.12,4.96c0.85,1.64,1.48,3.37,2.15,5.09c0.68,1.73,1.39,3.46,2.09,5.18c1.34,3.27,2.57,6.61,4.07,9.8
				c0.84,1.8,1.53,3.67,2.3,5.49c0.75,1.77,1.52,3.6,2.69,5.15c0.33,0.43,0.86,0.65,1.37,0.36c0.42-0.25,0.69-0.94,0.36-1.37
				c-2.1-2.75-3.1-6.29-4.45-9.43c-0.31-0.73-0.65-1.44-1.01-2.15c-0.33-0.65-0.55-1.36-0.82-2.04c-0.68-1.73-1.39-3.45-2.1-5.17
				c-0.72-1.75-1.44-3.49-2.14-5.25c-0.67-1.69-1.28-3.4-2.02-5.06c-0.8-1.78-1.76-3.48-2.85-5.1c-1.2-1.78-2.61-3.39-3.68-5.26
				c-2.51-4.37-5.05-8.96-6.05-13.95C486.3,255.46,484.38,256,484.63,257.25L484.63,257.25z"/>
		</g>
	</g>
	<g>
		<g>
			<path d="M511.48,305.58c0.22,2.61-1.64,4.73-3.13,6.66c-1.74,2.25-3.08,4.65-3.93,7.37c-1.84,5.84-1.49,12.06-0.8,18.06
				c0.38,3.29,0.84,6.58,1.07,9.88c0.23,3.36,0.14,6.72,0.05,10.08c-0.08,3.35-0.15,6.71,0.22,10.04c0.16,1.49,0.44,3,1.28,4.27
				c0.77,1.16,1.88,2.03,2.52,3.28c1.37,2.66,0.9,5.89,1,8.77c0.1,2.81,0.61,5.88,2.84,7.82c0.97,0.84,2.39-0.57,1.41-1.41
				c-1.85-1.62-2.18-4.17-2.25-6.5c-0.08-2.64,0.16-5.34-0.57-7.91c-0.39-1.36-1.07-2.55-2-3.61c-0.41-0.47-0.87-0.92-1.22-1.45
				c-0.43-0.65-0.67-1.38-0.83-2.13c-0.31-1.51-0.36-3.1-0.41-4.64c-0.06-1.64-0.05-3.28-0.01-4.93c0.06-3.33,0.22-6.66,0.08-9.99
				c-0.14-3.27-0.56-6.52-0.95-9.77c-0.72-5.94-1.36-12.06,0.12-17.93c0.76-3.02,2.11-5.68,4.01-8.14c1.76-2.28,3.79-4.76,3.53-7.83
				C513.37,304.31,511.37,304.3,511.48,305.58L511.48,305.58z"/>
		</g>
	</g>
	<g>
		<g>
			<path d="M484.05,161.34c2.13,0.66,4.23,1.47,6.32,2.25c2.89,1.08,5.77,2.19,8.62,3.36c2.38,0.98,4.76,2.15,7.16,3.17
				c4.49,1.91,8.96,3.9,13.21,6.31c4.01,2.27,8.15,4.79,10.38,8.98c1.08,2.02,1.82,4.19,2.75,6.28c0.95,2.12,2.05,4.17,3.22,6.18
				c2.38,4.09,5.04,8.01,7.28,12.19c2.3,4.27,3.91,8.83,5.48,13.41c2.81,8.22,5.27,16.66,6.82,25.22c0.18,0.98,0.34,1.96,0.48,2.95
				c0.08,0.53,0.76,0.83,1.23,0.7c0.57-0.16,0.78-0.69,0.7-1.23c-1.26-8.71-3.72-17.29-6.45-25.64c-1.48-4.53-3.01-9.1-5.02-13.43
				c-2-4.3-4.6-8.28-7.07-12.32c-1.25-2.05-2.48-4.11-3.59-6.24c-1.08-2.08-1.95-4.24-2.85-6.39c-0.92-2.19-1.99-4.27-3.6-6.04
				c-1.55-1.7-3.46-3.06-5.39-4.3c-4.14-2.66-8.57-4.83-13.06-6.82c-1.13-0.5-2.26-0.99-3.39-1.47c-1.03-0.44-2.11-0.81-3.1-1.32
				c-0.83-0.43-1.67-0.82-2.53-1.2c-5.23-2.27-10.6-4.32-16-6.16c-0.35-0.12-0.7-0.23-1.05-0.34
				C483.34,159.03,482.82,160.96,484.05,161.34L484.05,161.34z"/>
		</g>
	</g>
	<g>
		<g>
			<path d="M555.76,251.62c0.39,2.36,0.78,4.72,1.44,7.02c0.67,2.31,1.66,4.46,2.9,6.53c2.21,3.69,4.29,7.38,5.9,11.38
				c3.2,7.95,5.07,16.47,5.59,25.02c0.28,4.73,0.15,9.48-0.47,14.18c-0.07,0.54,0.51,1,1,1c0.6,0,0.93-0.46,1-1
				c1.13-8.49,0.67-17.18-1-25.57c-1.66-8.37-4.59-16.59-9.01-23.92c-1.42-2.36-2.86-4.65-3.71-7.29c-0.83-2.57-1.27-5.24-1.71-7.89
				c-0.09-0.53-0.75-0.83-1.23-0.7C555.89,250.55,555.67,251.09,555.76,251.62L555.76,251.62z"/>
		</g>
	</g>
	<g>
		<g>
			<path d="M571.15,315.49c-0.23,1.52-0.79,2.88-1.25,4.33c-0.41,1.29-0.48,2.67-0.35,4.01c0.28,2.88,1.37,5.58,1.81,8.43
				c0.47,3.03-0.07,6.13-0.86,9.06c-0.8,2.94-1.86,5.8-3,8.63c-4.6,11.43-9.6,22.76-15.25,33.72c-0.79,1.52-1.59,3.04-2.4,4.54
				c-0.75,1.39-1.43,2.95-2.66,3.99c-0.64,0.53-1.31,1-1.87,1.62c-0.52,0.57-0.97,1.21-1.37,1.87c-0.77,1.28-1.39,2.61-2.42,3.72
				c-0.88,0.94,0.53,2.36,1.41,1.41c1.89-2.02,2.64-4.84,4.86-6.57c0.55-0.43,1.11-0.85,1.56-1.39c0.46-0.56,0.85-1.16,1.2-1.79
				c0.78-1.37,1.52-2.76,2.25-4.16c2.91-5.49,5.6-11.1,8.17-16.76c2.57-5.67,5.02-11.39,7.41-17.13c1.2-2.89,2.37-5.79,3.33-8.77
				c0.95-2.98,1.74-6.07,1.81-9.22c0.07-3.38-1.09-6.49-1.75-9.76c-0.29-1.44-0.44-2.96-0.09-4.4c0.19-0.79,0.53-1.54,0.78-2.31
				c0.27-0.83,0.48-1.67,0.61-2.53c0.08-0.53-0.13-1.07-0.7-1.23C571.91,314.66,571.23,314.95,571.15,315.49L571.15,315.49z"/>
		</g>
	</g>
	<g>
		<g>
			<path d="M512.34,390.8c-0.46,1.2-0.73,2.5-0.9,3.77c-0.18,1.35-0.38,2.98,0.29,4.23c0.35,0.66,1.04,1.09,1.8,1.05
				c0.54-0.03,1-0.44,1-1c0-0.52-0.46-1.03-1-1c-0.09,0.01-0.32-0.03,0.02,0.03c-0.08-0.01-0.21,0.01-0.06,0
				c0.12-0.01,0.05,0.04-0.04-0.03c0.27,0.22,0.08,0.06,0.03,0.01c-0.1-0.12,0.09,0.21,0.04,0.05c-0.02-0.05-0.07-0.13-0.1-0.18
				c0.14,0.24,0.04,0.12,0.02,0.03c-0.02-0.08-0.05-0.15-0.07-0.23c-0.02-0.07-0.03-0.15-0.05-0.22c-0.06-0.25,0.01,0.18-0.01-0.04
				c-0.01-0.17-0.03-0.34-0.04-0.51c-0.01-0.39,0.01-0.79,0.04-1.18c0.02-0.22,0.04-0.43,0.07-0.65c-0.02,0.18,0-0.01,0.01-0.08
				c0.02-0.12,0.04-0.23,0.05-0.35c0.07-0.4,0.14-0.79,0.23-1.19c0.15-0.67,0.33-1.33,0.58-1.97c0.19-0.5-0.21-1.1-0.7-1.23
				C513.01,389.95,512.54,390.29,512.34,390.8L512.34,390.8z"/>
		</g>
	</g>
	<g>
		<g>
			<path d="M269.62,215.67c-5.46,0.85-10.83,2.66-15.71,5.27c-2.47,1.32-4.82,2.88-6.91,4.74c-0.98,0.87-1.91,1.81-2.74,2.83
				c-0.84,1.03-1.61,2.05-2.02,3.32c-0.95,2.92-0.95,6.11-0.64,9.13c0.33,3.16,0.98,6.29,1.78,9.37c1.46,5.61,6.5,9.49,10.29,13.53
				c3.68,3.93,5.24,9.2,7.51,13.97c0.55,1.16,1.15,2.31,1.84,3.39c0.74,1.15,1.64,2.18,2.32,3.37c1.5,2.62,2.3,5.56,3.27,8.41
				c1.11,3.27,2.5,6.34,4.44,9.22c1.95,2.9,4.11,5.66,6.18,8.48c1.86,2.54,3.51,5.22,5.35,7.78c0.82,1.14,1.65,2.32,2.64,3.31
				c0.82,0.83,1.82,1.51,2.8,2.14c2.16,1.39,4.48,2.52,6.64,3.91c1.17,0.74,2.3,1.47,3.59,1.99c1.09,0.44,2.22,0.68,3.38,0.81
				c1.14,0.13,2.28,0.13,3.42,0.16c1.48,0.05,2.94,0.19,4.41,0.35c3.64,0.4,7.33-0.05,10.91-0.73c1.78-0.34,3.55-0.75,5.32-1.16
				c1.25-0.29,0.72-2.22-0.53-1.93c-3.52,0.82-7.06,1.65-10.67,1.9c-3.23,0.22-6.38-0.34-9.6-0.43c-2.11-0.06-4.19-0.08-6.17-0.92
				c-1.18-0.5-2.2-1.24-3.28-1.91c-1.06-0.66-2.16-1.26-3.25-1.88c-2.01-1.14-4.27-2.26-5.83-4.01c-1.89-2.11-3.39-4.56-4.95-6.91
				c-1.86-2.81-3.94-5.48-5.94-8.2c-2.02-2.73-4.02-5.5-5.42-8.61c-1.28-2.85-2.06-5.88-3.15-8.8c-0.51-1.37-1.08-2.72-1.81-3.98
				c-0.66-1.15-1.51-2.14-2.24-3.24c-2.9-4.41-4.23-9.64-6.9-14.17c-2.78-4.72-7.62-7.79-10.69-12.31c-0.72-1.06-1.36-2.18-1.75-3.4
				c-0.44-1.35-0.72-2.78-1.02-4.17c-0.65-3.03-1.14-6.13-1.05-9.24c0.04-1.4,0.2-2.8,0.58-4.15c0.18-0.63,0.37-1.17,0.74-1.71
				c0.32-0.48,0.67-0.94,1.04-1.39c1.66-2,3.67-3.7,5.83-5.14c4.5-3.01,9.63-5.07,14.89-6.32c1.21-0.29,2.43-0.53,3.66-0.72
				c0.53-0.08,0.83-0.75,0.7-1.23C270.69,215.8,270.15,215.59,269.62,215.67L269.62,215.67z"/>
		</g>
	</g>
	<g>
		<g>
			<path d="M237.56,224.6c-0.2,1.32,0.47,2.66,1.12,3.77c0.72,1.23,1.68,2.5,2.92,3.24c0.64,0.38,1.45,0.61,2.18,0.35
				c0.49-0.17,0.87-0.69,0.7-1.23c-0.16-0.49-0.7-0.89-1.23-0.7c-0.05,0.02-0.09,0.03-0.14,0.04c-0.17,0.06,0.21,0,0.08-0.01
				c-0.04,0-0.09,0-0.13,0c-0.22,0.01,0.17,0.05,0.05,0.01c-0.1-0.03-0.21-0.06-0.31-0.09c-0.15-0.04,0.2,0.1,0.06,0.02
				c-0.06-0.03-0.12-0.06-0.18-0.09c-0.11-0.06-0.22-0.13-0.32-0.2c-0.02-0.02-0.05-0.04-0.07-0.05c-0.09-0.06,0.1,0.07,0.09,0.07
				c-0.04,0-0.15-0.12-0.18-0.15c-0.22-0.19-0.44-0.4-0.63-0.63c-0.11-0.12-0.21-0.24-0.31-0.36c-0.04-0.05-0.08-0.11-0.13-0.16
				c0.17,0.21-0.01-0.02-0.05-0.07c-0.19-0.26-0.37-0.53-0.54-0.81c-0.17-0.27-0.32-0.54-0.46-0.83c-0.07-0.13-0.13-0.27-0.2-0.41
				c-0.02-0.05-0.04-0.12-0.08-0.17c0.15,0.21,0.02,0.05-0.01-0.04c-0.1-0.26-0.19-0.54-0.25-0.81c-0.01-0.05-0.01-0.13-0.03-0.18
				c0.04,0.09,0.02,0.25,0.01,0.08c0-0.12,0.04-0.49-0.02-0.08c0.08-0.51-0.13-1.1-0.7-1.23
				C238.31,223.79,237.64,224.04,237.56,224.6L237.56,224.6z"/>
		</g>
	</g>
	<g>
		<g>
			<path d="M239.49,224.94c2.88-7.19,10.44-11.42,17.37-13.92c2.43-0.87,5.05-1.57,7.63-1.08c1.26,0.24,1.8-1.69,0.53-1.93
				c-4.72-0.88-9.53,1.17-13.71,3.19c-3.73,1.8-7.32,4.14-10.08,7.26c-1.56,1.77-2.8,3.75-3.67,5.94c-0.2,0.5,0.22,1.1,0.7,1.23
				C238.83,225.8,239.29,225.45,239.49,224.94L239.49,224.94z"/>
		</g>
	</g>
	<g>
		<g>
			<path d="M264.28,209.91c0.12,0.11,0.24,0.23,0.34,0.35c0.05,0.06,0.1,0.11,0.14,0.17c-0.15-0.2,0.02,0.04,0.05,0.08
				c0.22,0.32,0.42,0.65,0.6,0.98c0.4,0.72,0.74,1.47,1.11,2.21c0.68,1.38,1.46,2.99,2.85,3.79c1.12,0.65,2.12-1.08,1.01-1.73
				c-0.07-0.04-0.13-0.08-0.2-0.13c-0.21-0.13,0.09,0.1-0.05-0.04c-0.1-0.11-0.22-0.2-0.32-0.31c-0.06-0.07-0.12-0.14-0.18-0.21
				c-0.16-0.19,0.05,0.08-0.07-0.09c-0.1-0.14-0.2-0.28-0.29-0.42c-0.44-0.68-0.8-1.41-1.15-2.14c-0.66-1.35-1.29-2.91-2.43-3.94
				c-0.4-0.36-1.02-0.4-1.41,0C263.91,208.86,263.88,209.55,264.28,209.91L264.28,209.91z"/>
		</g>
	</g>
	<g>
		<g>
			<path d="M514.79,392.65c1.62,0.24,3.16-0.29,4.77-0.29c0.85,0,1.72,0.19,2.56,0.28c0.78,0.09,1.56,0.17,2.34,0.27
				c1.84,0.25,3.72,0.57,5.48,1.17c1.96,0.67,3.81,1.64,5.6,2.68c2.09,1.21,4,2.54,5.87,4.07c0.99,0.81,2.41-0.6,1.41-1.41
				c-3.35-2.74-7-5.11-11.01-6.76c-3.5-1.44-7.3-1.72-11.03-2.18c-0.99-0.12-1.84-0.1-2.83,0.03c-0.84,0.11-1.78,0.33-2.63,0.21
				c-0.53-0.08-1.07,0.13-1.23,0.7C513.97,391.89,514.26,392.57,514.79,392.65L514.79,392.65z"/>
		</g>
	</g>
	<g>
		<g>
			<path d="M540.51,411.1c2.17-0.63,2.71-3.04,3.19-4.96c0.51-2.04,0.67-4.24-0.4-6.14c-0.63-1.12-2.36-0.11-1.73,1.01
				c0.77,1.36,0.59,2.96,0.24,4.42c-0.19,0.8-0.4,1.63-0.69,2.4c-0.21,0.57-0.53,1.16-1.15,1.34
				C538.75,409.53,539.27,411.46,540.51,411.1L540.51,411.1z"/>
		</g>
	</g>
	<g>
		<g>
			<path d="M541.06,410.22c-0.26-2.03-1.6-3.42-3.17-4.62c-1.66-1.27-3.47-2.33-5.36-3.23c-3.83-1.81-7.88-2.83-11.98-3.84
				c-2.37-0.59-4.87-1.65-7.28-0.65c-0.5,0.21-0.85,0.66-0.7,1.23c0.13,0.47,0.73,0.91,1.23,0.7c1.85-0.77,3.74-0.03,5.56,0.47
				c1.89,0.52,3.81,0.91,5.69,1.45c3.61,1.04,7.13,2.42,10.28,4.49c1.37,0.9,3.49,2.2,3.72,3.99c0.07,0.54,0.41,1,1,1
				C540.54,411.22,541.12,410.76,541.06,410.22L541.06,410.22z"/>
		</g>
	</g>
	<g>
		<g>
			<path d="M359.83,252.83c-1.45,9.06-4.5,17.74-7.32,26.45c-2.83,8.75-5.3,17.62-7.03,26.65c-1.71,8.91-2.73,17.97-2.76,27.05
				c-0.03,8.45,0.83,16.91,2.72,25.15c1.87,8.17,4.78,16.13,8.83,23.48c0.5,0.91,1.02,1.81,1.55,2.7c0.17,0.28,0.6,0.02,0.43-0.25
				c-4.32-7.19-7.5-15.03-9.62-23.14c-2.14-8.18-3.21-16.62-3.39-25.07c-0.19-9.07,0.65-18.13,2.22-27.06
				c1.57-8.98,3.87-17.82,6.61-26.51c2.71-8.61,5.85-17.12,7.63-25.99c0.22-1.1,0.42-2.21,0.6-3.31
				C360.36,252.64,359.88,252.51,359.83,252.83L359.83,252.83z"/>
		</g>
	</g>
	<g>
		<g>
			<path d="M435.47,377.81c8.32-9.43,14.62-20.59,18.46-32.56c1.92-5.97,3.22-12.13,3.86-18.36c0.76-7.36,0.63-14.82,0.57-22.21
				c-0.07-8.49-0.31-16.97-0.72-25.45c-0.02-0.32-0.52-0.32-0.5,0c0.36,7.44,0.59,14.89,0.69,22.35c0.1,7.44,0.24,14.93-0.28,22.36
				c-0.88,12.61-4.49,25.01-10.42,36.17c-3.31,6.23-7.34,12.07-12.01,17.37C434.91,377.69,435.26,378.05,435.47,377.81
				L435.47,377.81z"/>
		</g>
	</g>
	<g>
		<g>
			<path d="M456.41,266.95c0.69-5.4-0.48-10.77-1.8-15.99c-1.38-5.44-2.72-10.83-3.16-16.45c-0.43-5.65-0.13-11.31,0.82-16.89
				c0.94-5.51,2.38-10.93,3.25-16.45c0.93-5.9,1.21-12-0.41-17.81c-0.09-0.31-0.57-0.18-0.48,0.13c3.02,10.89-0.63,21.97-2.61,32.69
				c-1.01,5.46-1.47,10.98-1.19,16.53c0.27,5.48,1.33,10.79,2.7,16.1c1.53,5.92,3.16,11.99,2.37,18.15
				C455.87,267.26,456.37,267.26,456.41,266.95L456.41,266.95z"/>
		</g>
	</g>
	<g>
		<g>
			<path d="M361.82,244.21c1.05-4.12,0.04-8.3-0.63-12.38c-0.72-4.36-0.6-8.64,0.38-12.95c0.98-4.27,2.61-8.37,4.43-12.34
				c1.81-3.95,3.77-7.83,5.84-11.65c2.36-4.34,4.88-8.6,7.56-12.75c0.17-0.27-0.26-0.52-0.43-0.25
				c-4.78,7.42-9.07,15.15-12.82,23.14c-3.57,7.61-6.76,15.9-5.8,24.46c0.54,4.83,2.22,9.74,0.98,14.59
				C361.26,244.39,361.74,244.53,361.82,244.21L361.82,244.21z"/>
		</g>
	</g>
	<g>
		<g>
			<path d="M453.48,265.97c-3.32-1.7-6.79-3.09-10.37-4.14c-3.54-1.04-7.39-2.08-11.09-1.41c-0.21,0.04-0.24,0.36-0.06,0.46
				c4.44,2.37,9.1,4.34,13.9,5.86c0.31,0.1,0.44-0.39,0.13-0.48c-4.76-1.51-9.38-3.45-13.78-5.81c-0.02,0.15-0.04,0.3-0.06,0.46
				c3.67-0.66,7.54,0.43,11.05,1.48c3.46,1.03,6.82,2.38,10.03,4.02C453.51,266.55,453.77,266.12,453.48,265.97L453.48,265.97z"/>
		</g>
	</g>
	<g>
		<g>
			<path d="M498.74,169.6c-2.9,1.71-5.37,4.11-7.16,6.97c-1.47,2.34-3.87,6.78-0.9,8.94c0.26,0.19,0.51-0.24,0.25-0.43
				c-1.58-1.15-1.23-3.29-0.63-4.87c0.54-1.42,1.27-2.78,2.13-4.04c1.7-2.5,3.95-4.6,6.56-6.13
				C499.26,169.86,499.01,169.43,498.74,169.6L498.74,169.6z"/>
		</g>
	</g>
	<g>
		<g>
			<path d="M498.43,183.36c4.37-1.77,9.14-1.71,13.74-1.15c1.17,0.14,2.34,0.31,3.51,0.5c0.64,0.1,1.28,0.1,1.78,0.54
				c0.49,0.43,0.93,0.95,1.38,1.41c1.78,1.82,3.57,3.64,5.35,5.47c0.23,0.23,0.58-0.12,0.35-0.35c-1.47-1.5-2.93-3-4.4-4.5
				c-0.72-0.73-1.44-1.47-2.16-2.2c-0.34-0.35-0.48-0.57-0.96-0.65c-0.48-0.08-0.96-0.16-1.44-0.23c-3.71-0.58-7.49-1.06-11.24-0.73
				c-2.08,0.18-4.12,0.63-6.06,1.41C498,183,498.13,183.48,498.43,183.36L498.43,183.36z"/>
		</g>
	</g>
	<g>
		<g>
			<path d="M514.8,304.11c2.16-0.83,4.3-1.71,6.48-2.47c2.24-0.78,4.39-1.02,6.7-0.38c2.18,0.6,4.28,1.54,6.36,2.43
				c2.14,0.91,4.25,1.88,6.34,2.9c0.29,0.14,0.54-0.29,0.25-0.43c-2.16-1.06-4.35-2.06-6.56-3c-2.11-0.89-4.26-1.86-6.48-2.44
				c-2.23-0.58-4.35-0.37-6.52,0.36c-2.26,0.76-4.48,1.69-6.7,2.55C514.37,303.74,514.5,304.22,514.8,304.11L514.8,304.11z"/>
		</g>
	</g>
	<g>
		<g>
			<path d="M544.05,307.44c2.52,0.6,5.16,0.49,7.62-0.32c0.3-0.1,0.17-0.58-0.13-0.48c-2.38,0.78-4.92,0.9-7.35,0.32
				C543.87,306.89,543.74,307.37,544.05,307.44L544.05,307.44z"/>
		</g>
	</g>
	<g>
		<g>
			<path d="M507.58,372.84c2.07,2.27,5.04,3.29,7.39,5.19c1.01,0.82,3.5,3.17,1.56,4.22c-0.62,0.34-1.31,0.5-1.81,1.04
				c-0.47,0.5-0.69,1.14-0.7,1.81c0,0.32,0.5,0.32,0.5,0c0.01-1.11,0.71-1.73,1.66-2.14c0.59-0.26,1.24-0.53,1.49-1.17
				c0.54-1.38-1.03-2.96-1.96-3.78c-2.4-2.12-5.6-3.13-7.78-5.52C507.72,372.24,507.36,372.6,507.58,372.84L507.58,372.84z"/>
		</g>
	</g>
	<g>
		<g>
			<path d="M570.22,321.08c-1.28,3.98-3.14,7.77-5.54,11.2c-1.12,1.61-2.53,3.03-3.56,4.7c-0.96,1.53-1.16,3.26-0.35,4.9
				c0.99,2.01,3.03,3.15,5.01,4c0.29,0.13,0.55-0.3,0.25-0.43c-1.78-0.77-3.62-1.74-4.63-3.47c-1.11-1.88-0.62-3.76,0.61-5.42
				c1.11-1.51,2.36-2.92,3.41-4.48c1.08-1.59,2.05-3.25,2.9-4.97c0.94-1.9,1.73-3.88,2.38-5.9
				C570.8,320.9,570.32,320.77,570.22,321.08L570.22,321.08z"/>
		</g>
	</g>
	<g>
		<g>
			<path d="M327.93,221.71c0.25,2.29,0.67,4.56,1.29,6.78c0.32,1.15,0.69,2.29,1.11,3.42c0.39,1.05,0.92,2.09,1.11,3.2
				c0.22,1.27-0.26,2.46-0.73,3.62c-0.47,1.17-0.98,2.32-1.52,3.46c-0.24,0.49-0.48,0.97-0.73,1.46c-0.14,0.28-0.29,0.55-0.44,0.82
				c-0.05,0.09-0.1,0.19-0.16,0.28c-0.2,0.33-0.5,0.47-0.91,0.38c-0.36-0.08-0.72-0.52-1.07-0.67c-0.3-0.13-0.61-0.2-0.93-0.23
				c-1.57-0.11-3.19,0.98-3.46,2.57c-0.05,0.31,0.43,0.45,0.48,0.13c0.28-1.7,2.42-2.79,3.94-1.9c0.62,0.36,1.3,1.06,2.01,0.45
				c0.35-0.3,0.54-0.78,0.75-1.17c0.29-0.55,0.58-1.1,0.85-1.66c0.5-1.03,0.98-2.08,1.41-3.14c0.42-1.01,0.9-2.06,1.04-3.15
				c0.14-1.12-0.21-2.17-0.61-3.2c-0.44-1.11-0.86-2.22-1.22-3.36c-0.83-2.63-1.4-5.34-1.7-8.09
				C328.4,221.39,327.9,221.39,327.93,221.71L327.93,221.71z"/>
		</g>
	</g>
	<g>
		<g>
			<path d="M315.33,261.47c1.44,2.06,2.36,4.45,2.64,6.95c0.04,0.32,0.54,0.32,0.5,0c-0.29-2.59-1.21-5.07-2.71-7.2
				C315.58,260.96,315.14,261.21,315.33,261.47L315.33,261.47z"/>
		</g>
	</g>
	<g>
		<g>
			<path d="M288.34,229.37c0.92,1.13,1.77,2.32,2.53,3.56c0.71,1.15,1.49,2.46,1.4,3.86c-0.08,1.23-0.89,2.23-1.35,3.34
				c-0.42,1.01-0.45,2.06-0.07,3.09c0.84,2.23,3.01,3.37,5.06,4.28c0.84,0.37,1.7,0.71,2.29-0.2c0.29-0.44,0.54-0.82,1.03-1.06
				c0.48-0.23,1.02-0.28,1.54-0.25c2.66,0.16,5.16,2.25,6.81,4.19c0.21,0.25,0.56-0.11,0.35-0.35c-1.45-1.71-3.39-3.29-5.54-4.01
				c-1.63-0.55-3.55-0.51-4.54,1.09c-0.54,0.88-1.37,0.31-2.07-0.01c-0.57-0.26-1.13-0.52-1.67-0.84c-1.13-0.66-2.15-1.54-2.7-2.76
				c-0.6-1.33-0.3-2.54,0.34-3.78c0.5-0.96,1.04-1.93,1.01-3.05c-0.04-1.39-0.77-2.64-1.48-3.79c-0.79-1.28-1.67-2.5-2.61-3.66
				C288.49,228.76,288.14,229.12,288.34,229.37L288.34,229.37z"/>
		</g>
	</g>
	<g>
		<g>
			<path d="M281.72,312.72c4.57,2.69,8.8,8.12,14.72,7.19c2.82-0.45,4.69-2.95,7.46-3.47c1.55-0.29,2.81,0.21,3.67,1.53
				c0.71,1.09,1.34,2.01,2.5,2.66c2.85,1.59,6.42,2.01,9.61,1.61c0.31-0.04,0.32-0.54,0-0.5c-3.01,0.38-6.25,0-9-1.35
				c-0.62-0.31-1.21-0.68-1.68-1.2c-0.49-0.54-0.8-1.2-1.22-1.79c-0.65-0.9-1.54-1.45-2.66-1.53c-2.63-0.2-4.56,1.77-6.74,2.88
				c-2.76,1.4-5.87,0.63-8.44-0.81c-2.85-1.6-5.16-3.98-7.97-5.64C281.69,312.13,281.44,312.56,281.72,312.72L281.72,312.72z"/>
		</g>
	</g>
	<g>
		<g>
			<path d="M244.93,248.22c-0.2-1.32-0.24-2.66-0.11-3.99c0.11-1.17,0.22-2.81,1.75-2.76c0.55,0.02,1.09,0.2,1.63,0.3
				c0.55,0.1,1.11,0.15,1.67,0.13c0.71-0.02,1.63-0.08,2.11-0.68c0.45-0.56,0.27-1.35-0.16-1.86c-0.66-0.79-1.8-0.93-2.65-1.43
				c-1.76-1.03-2.9-2.97-2.97-5c-0.01-0.32-0.51-0.32-0.5,0c0.07,1.83,0.9,3.57,2.29,4.77c0.67,0.58,1.42,0.93,2.23,1.25
				c0.61,0.25,1.34,0.56,1.51,1.27c0.21,0.88-0.75,1.09-1.39,1.15c-1.18,0.11-2.24-0.21-3.39-0.37c-0.75-0.1-1.52,0.02-1.99,0.68
				c-0.58,0.81-0.6,2.07-0.67,3.03c-0.08,1.22-0.01,2.43,0.17,3.64C244.49,248.67,244.97,248.53,244.93,248.22L244.93,248.22z"/>
		</g>
	</g>
	<g>
		<g>
			<path d="M361.77,245.29c5.92-2.34,12.02-4.21,18.23-5.59c0.31-0.07,0.18-0.55-0.13-0.48c-6.21,1.38-12.31,3.25-18.23,5.59
				C361.34,244.92,361.47,245.41,361.77,245.29L361.77,245.29z"/>
		</g>
	</g>
	<g>
		<g>
			<path d="M370.7,244.86c2.99-0.61,5.98-1.21,8.97-1.82c0.32-0.06,0.18-0.55-0.13-0.48c-2.99,0.61-5.98,1.21-8.97,1.82
				C370.25,244.44,370.39,244.92,370.7,244.86L370.7,244.86z"/>
		</g>
	</g>
	<g>
		<g>
			<path d="M342.92,366.03c-2.29,0.72-4.38,2.01-6.03,3.75c-0.12,0.12-0.09,0.39,0.11,0.42c1.55,0.23,3.13,0.06,4.59-0.54
				c0.29-0.12,0.16-0.61-0.13-0.48c-1.37,0.57-2.86,0.76-4.32,0.54c0.04,0.14,0.07,0.28,0.11,0.42c1.6-1.68,3.6-2.93,5.81-3.62
				C343.36,366.41,343.23,365.93,342.92,366.03L342.92,366.03z"/>
		</g>
	</g>
	<g>
		<g>
			<path d="M326.53,336.44c0.03,4.73,1.24,9.41,3.52,13.55c0.57,1.04,1.21,2.04,1.91,3s1.52,1.82,2.19,2.79
				c0.64,0.94,1.11,2.07,0.76,3.21c-0.15,0.5-0.45,0.94-0.92,1.19c-0.56,0.3-1.22,0.32-1.79,0.6c-2.45,1.2-2.12,4.37-1.67,6.57
				c0.06,0.32,0.55,0.18,0.48-0.13c-0.27-1.34-0.56-2.8-0.1-4.13c0.18-0.52,0.46-1.03,0.87-1.41c0.53-0.49,1.14-0.61,1.81-0.81
				c1.85-0.55,2.32-2.56,1.63-4.21c-0.42-1-1.15-1.83-1.83-2.66c-0.79-0.95-1.51-1.95-2.16-3c-1.26-2.03-2.25-4.21-2.95-6.49
				c-0.81-2.62-1.22-5.33-1.24-8.07C327.02,336.12,326.52,336.11,326.53,336.44L326.53,336.44z"/>
		</g>
	</g>
	<g>
		<g>
			<path d="M490.82,329.23c-2.23,7.88-4.79,15.67-7.68,23.33c-0.72,1.91-1.46,3.81-2.22,5.7c-0.39,0.96-0.78,1.93-1.18,2.89
				c-0.37,0.89-0.72,1.82-1.25,2.63c-1.08,1.63-3.35,2.44-4.52,0.43c-0.65-1.13-0.94-2.45-2.26-2.99c-1.21-0.49-2.48,0.15-2.18,1.58
				c0.22,1.07,0.71,2.12,1.07,3.15c0.4,1.17,0.81,2.33,1.21,3.5c0.1,0.3,0.59,0.17,0.48-0.13c-0.67-1.94-1.35-3.88-2.02-5.83
				c-0.17-0.49-0.44-1.1-0.17-1.59c0.17-0.31,0.56-0.39,0.88-0.35c0.72,0.07,1.33,0.54,1.68,1.15c0.65,1.14,1.01,2.68,2.41,3.13
				c1.38,0.44,2.8-0.38,3.61-1.46c1.06-1.4,1.61-3.24,2.26-4.85c0.77-1.89,1.52-3.78,2.24-5.69c1.44-3.77,2.8-7.57,4.08-11.4
				c1.44-4.32,2.78-8.67,4.02-13.06C491.38,329.05,490.9,328.92,490.82,329.23L490.82,329.23z"/>
		</g>
	</g>
	<g>
		<g>
			<path d="M468.56,373.54c-5.16,1.89-10.22,4.04-15.16,6.43c-0.29,0.14-0.04,0.57,0.25,0.43c4.9-2.38,9.92-4.51,15.04-6.38
				C468.99,373.92,468.87,373.43,468.56,373.54L468.56,373.54z"/>
		</g>
	</g>
	<g>
		<g>
			<path d="M482.32,251.34c0.22-7.15,5.24-12.91,9.79-17.95c0.19-0.21-0.05-0.54-0.3-0.39c-0.74,0.43-1.51,0.73-2.34,0.9
				c0.1,0.06,0.21,0.12,0.31,0.17c-1.47-3.91-2.94-7.81-4.41-11.72c-0.6-1.6-1.08-3.34-1.97-4.82c-0.63-1.06-1.58-2-2.89-1.92
				c-0.11,0.01-0.21,0.07-0.24,0.18c-0.86,3.52-1.09,7.16-0.67,10.76c0.04,0.32,0.54,0.32,0.5,0c-0.42-3.56-0.2-7.14,0.65-10.62
				c-0.08,0.06-0.16,0.12-0.24,0.18c1.48-0.09,2.36,1.33,2.9,2.51c0.74,1.62,1.29,3.35,1.91,5.01c1.32,3.52,2.65,7.04,3.97,10.56
				c0.05,0.13,0.16,0.21,0.31,0.17c0.87-0.19,1.69-0.51,2.46-0.95c-0.1-0.13-0.2-0.26-0.3-0.39c-4.64,5.15-9.71,11.01-9.94,18.31
				C481.81,251.66,482.31,251.66,482.32,251.34L482.32,251.34z"/>
		</g>
	</g>
	<g>
		<g>
			<path d="M487.32,243.86c1.18-2.58,3.48-4.32,5.81-5.82c2.45-1.58,5.06-2.92,7.75-4.04c5.33-2.23,10.98-3.63,16.66-4.6
				c1.62-0.28,3.25-0.52,4.88-0.74c0.76-0.1,1.53-0.22,2.3-0.29c0.63-0.05,1.62-0.05,1.81,0.71c0.06-0.1,0.12-0.21,0.17-0.31
				c-7.19,1.86-14.39,3.72-21.58,5.58c-0.31,0.08-0.18,0.56,0.13,0.48c7.19-1.86,14.39-3.72,21.58-5.58
				c0.13-0.03,0.21-0.18,0.17-0.31c-0.25-1.01-1.41-1.15-2.29-1.08c-1.51,0.12-3.02,0.37-4.51,0.59c-3.08,0.46-6.15,1.02-9.18,1.75
				c-6.02,1.45-11.92,3.58-17.23,6.82c-2.71,1.65-5.53,3.6-6.9,6.57C486.76,243.9,487.19,244.16,487.32,243.86L487.32,243.86z"/>
		</g>
	</g>
	<g>
		<g>
			<path d="M459.22,147.99c-11.41,4.64-19,14.64-28.27,22.26c-2.04,1.67-4.16,3.15-6.51,4.34c-2.39,1.21-4.9,2.18-7.46,2.94
				c-2.42,0.72-4.92,1.28-7.44,1.48c-0.53,0.04-0.99-0.2-1.49-0.39c-0.65-0.24-1.3-0.48-1.96-0.72c-1.23-0.45-2.46-0.91-3.66-1.42
				c-2.81-1.19-5.71-2.55-7.96-4.65c-1.11-1.04-2.18-2.32-2.44-3.86c-0.2-1.18,0.19-2.53,1.26-3.16c1.1-0.66,0.1-2.39-1.01-1.73
				c-2.59,1.55-2.77,4.93-1.45,7.38c1.4,2.59,4.02,4.45,6.55,5.83c2.55,1.39,5.27,2.46,7.99,3.47c0.63,0.23,1.25,0.46,1.88,0.69
				c0.61,0.23,1.28,0.59,1.94,0.58c1.28-0.03,2.59-0.27,3.84-0.5c5.4-0.99,10.87-2.98,15.48-5.99c2.62-1.71,5.01-3.81,7.31-5.91
				c2.39-2.17,4.68-4.43,7.03-6.65c5.03-4.76,10.4-9.44,16.89-12.08c0.5-0.2,0.85-0.67,0.7-1.23
				C460.32,148.22,459.72,147.79,459.22,147.99L459.22,147.99z"/>
		</g>
	</g>
	<g>
		<g>
			<path d="M482.51,161.71c0.94-0.1,1.86-0.36,2.51-1.1c0.5-0.57,0.73-1.3,0.84-2.04c0.31-2.14,0.81-4.46-0.2-6.49
				c-0.78-1.56-2.13-2.8-3.83-3.26c-1.43-0.38-2.95-0.22-4.38,0.11c-0.66,0.15-1.3,0.35-1.95,0.56c-0.27,0.08-0.54,0.17-0.81,0.25
				c-0.1,0.03-0.2,0.06-0.31,0.08c-0.04,0.01-0.09,0.02-0.14,0.03c-0.22,0.07,0.22-0.02,0.05-0.01c-0.54,0.05-1,0.42-1,1
				c0,0.5,0.46,1.05,1,1c0.88-0.08,1.72-0.42,2.57-0.67c1.17-0.35,2.15-0.59,3.3-0.56c1.12,0.02,2.15,0.38,2.98,1.29
				c0.52,0.57,0.92,1.29,1.06,2.05c0.18,0.97,0.01,2-0.12,2.96c-0.05,0.37-0.13,0.98-0.16,1.22c-0.02,0.12-0.1,0.57-0.19,0.81
				c-0.01,0.03-0.08,0.17-0.01,0.03c-0.04,0.07-0.08,0.15-0.12,0.22c-0.09,0.14,0.08-0.09-0.02,0.04c-0.05,0.07-0.12,0.13-0.18,0.19
				c-0.14,0.12-0.57,0.26-0.88,0.29c-0.54,0.06-1,0.42-1,1C481.51,161.21,481.97,161.77,482.51,161.71L482.51,161.71z"/>
		</g>
	</g>
	<g>
		<g>
			<path d="M463.85,147.48c2.77-0.74,5.58-1.35,8.41-1.82c0.63-0.11,0.36-1.07-0.27-0.96c-2.83,0.47-5.64,1.08-8.41,1.82
				C462.96,146.68,463.23,147.65,463.85,147.48L463.85,147.48z"/>
		</g>
	</g>
	<g>
		<g>
			<path d="M469.05,145.41c-4.46-1.33-9.09-1.99-13.74-1.96c-0.32,0-0.32,0.5,0,0.5c4.61-0.02,9.19,0.63,13.61,1.94
				C469.22,145.98,469.35,145.5,469.05,145.41L469.05,145.41z"/>
		</g>
	</g>
	<g>
		<g>
			<path d="M396.73,161.44c1.78-1.03,3.61-1.97,5.47-2.84c0.29-0.14,0.04-0.57-0.25-0.43c-1.86,0.87-3.69,1.82-5.47,2.84
				C396.2,161.17,396.45,161.61,396.73,161.44L396.73,161.44z"/>
		</g>
	</g>
	<g>
		<g>
			<path d="M380.12,173.96c5.38,4.99,12.27,8.33,19.25,10.42c3.17,0.95,6.44,1.62,9.73,1.99c2.63,0.3,5.32,0.11,7.94-0.15
				c6.17-0.62,12.35-1.83,18.31-3.54c7.32-2.09,14.04-5.8,20.62-9.55c3.77-2.15,7.52-4.32,11.4-6.27c3.8-1.91,7.78-3.7,11.92-4.74
				c1.06-0.27,2.12-0.43,3.22-0.41c1.29,0.01,1.29-1.99,0-2c-2.18-0.02-4.29,0.57-6.34,1.26c-2.02,0.68-4,1.47-5.94,2.33
				c-3.92,1.74-7.69,3.8-11.42,5.91c-7.03,3.98-14.04,8.33-21.76,10.86c-5.56,1.82-11.4,3.01-17.19,3.81
				c-2.81,0.39-5.66,0.67-8.49,0.62c-2.79-0.04-5.55-0.55-8.33-1.21c-6.96-1.65-13.92-4.59-19.55-9.07
				c-0.67-0.54-1.33-1.1-1.96-1.68C380.59,171.67,379.18,173.08,380.12,173.96L380.12,173.96z"/>
		</g>
	</g>
	<g>
		<g>
			<path d="M381.33,172.39c-0.28-0.16-0.62-0.51-0.92-0.87c-0.16-0.19-0.3-0.4-0.41-0.62c-0.09-0.17,0,0.03-0.07-0.14
				c-0.08-0.2-0.04,0.11-0.01-0.07c-0.03,0.24,0.03-0.07,0.04-0.12c0.03-0.13,0.06-0.26,0.08-0.38c0.06-0.25,0.12-0.51,0.18-0.76
				c0.13-0.55,0.28-1.09,0.45-1.62c0.32-1.02,0.7-2.04,1.29-2.94c0.12-0.18,0.23-0.34,0.32-0.43c0.07-0.08,0.14-0.16,0.22-0.23
				c0.03-0.03,0.3-0.27,0.18-0.17c0.08-0.06,0.16-0.11,0.24-0.16c0.02-0.01,0.28-0.14,0.1-0.06c0.09-0.03,0.18-0.06,0.26-0.08
				c0.12-0.02,0.12-0.03,0.01-0.01c0.06-0.01,0.13-0.01,0.19-0.01c1.28-0.03,1.29-2.03,0-2c-2.78,0.07-4.04,3.36-4.74,5.58
				c-0.19,0.61-0.36,1.24-0.51,1.86c-0.15,0.62-0.4,1.33-0.27,1.97c0.13,0.65,0.55,1.21,0.96,1.72c0.39,0.49,0.86,0.97,1.41,1.29
				C381.44,174.77,382.45,173.04,381.33,172.39L381.33,172.39z"/>
		</g>
	</g>
	<g>
		<g>
			<path d="M384.44,162.44c-0.35-1.4,0.64-2.69,1.74-3.44c1.36-0.93,2.97-1.53,4.5-2.12c3.27-1.28,6.65-2.28,10.08-3.01
				c1.26-0.27,0.73-2.19-0.53-1.93c-3.9,0.82-7.71,2-11.39,3.54c-1.68,0.7-3.45,1.4-4.78,2.68c-1.28,1.24-1.99,3.05-1.55,4.81
				C382.82,164.22,384.75,163.69,384.44,162.44L384.44,162.44z"/>
		</g>
	</g>
	<g>
		<g>
			<path d="M484.05,152.26c3.91,0.12,7.85,0.72,11.68,1.53c1.02,0.22,2.03,0.47,3.03,0.78c0.57,0.18,1.92,0.42,2.18,1.06
				c0.09,0.22,0.03,0.58,0.02,0.81c-0.02,0.48-0.11,0.82-0.41,1.19c-0.56,0.69-1.28,1.29-1.97,1.83c-1.67,1.29-3.57,2.26-5.45,3.2
				c-1.15,0.58-0.14,2.3,1.01,1.73c1.89-0.95,3.77-1.92,5.45-3.2c0.85-0.64,1.69-1.34,2.38-2.15c0.77-0.9,1.02-1.87,1.01-3.05
				c-0.02-2.42-2.53-3.04-4.45-3.58c-2.32-0.65-4.7-1.02-7.08-1.39c-2.46-0.38-4.9-0.68-7.39-0.76
				C482.76,150.22,482.77,152.22,484.05,152.26L484.05,152.26z"/>
		</g>
	</g>
	<g>
		<g>
			<path d="M485.51,157.95c1.7-0.17,3.39-0.34,5.08-0.57c0.86-0.12,1.73-0.25,2.58-0.41c0.67-0.12,1.51-0.18,2.08-0.61
				c0.39-0.29,0.62-0.8,0.37-1.26c-0.28-0.5-0.99-0.74-1.5-0.93c-1.4-0.53-2.92-0.83-4.39-1.05c-1.51-0.22-3.02-0.38-4.51-0.68
				c-0.31-0.06-0.45,0.42-0.13,0.48c2.96,0.6,6.06,0.65,8.9,1.73c0.34,0.13,1.03,0.35,1.2,0.7c0.3,0.63-0.81,0.86-1.16,0.94
				c-0.92,0.2-1.84,0.36-2.77,0.49c-1.91,0.28-3.83,0.47-5.74,0.66C485.2,157.49,485.19,157.99,485.51,157.95L485.51,157.95z"/>
		</g>
	</g>
	<g>
		<g>
			<path d="M399.81,153.34c0.31,0.48,0.45,0.91,0.6,1.46c0.19,0.74,0.45,1.46,0.63,2.2c0.39,1.52,0.8,3.07,1.07,4.61
				c0.54,3.17,0.56,6.49,0.55,9.7c0,1.29,2,1.29,2,0c0.01-3.39-0.04-6.88-0.62-10.23c-0.28-1.62-0.71-3.25-1.12-4.83
				c-0.34-1.29-0.63-2.78-1.38-3.91C400.83,151.26,399.1,152.26,399.81,153.34L399.81,153.34z"/>
		</g>
	</g>
	<path class="st20" d="M392.77,171.51c0,0,4.74-1.23,10.71-5.32"/>
	<path class="st21" d="M481.54,149.79c2.51-0.19-0.77-5.63-3.12-7.42c-1.67-1.27-3.79-1.78-5.86-2.19
		c-6.16-1.23-13.31-2.03-19.59-2.05c0,0,0.02,5.2,1.85,13.13"/>
	<g>
		<g>
			<path d="M409.26,180.39c-0.7,0.82-0.99,1.92-0.78,2.98c0.06,0.32,0.55,0.18,0.48-0.13c-0.18-0.87,0.07-1.82,0.65-2.49
				c0.09-0.1,0.1-0.25,0-0.35C409.52,180.3,409.35,180.29,409.26,180.39L409.26,180.39z"/>
		</g>
	</g>
	<g>
		<g>
			<path d="M384.65,158.86c-0.99,1.41-1.37,3.19-1.04,4.88c0.36,1.83,1.58,3.32,2.73,4.73c0.2,0.25,0.56-0.11,0.35-0.35
				c-1.07-1.3-2.2-2.68-2.57-4.36c-0.36-1.6,0.02-3.3,0.96-4.64C385.26,158.85,384.83,158.6,384.65,158.86L384.65,158.86z"/>
		</g>
	</g>
	<g>
		<g>
			<path d="M424.24,179.98c3.96-0.49,7.69-1.98,11.12-3.99c1.78-1.04,3.49-2.21,5.14-3.45c0.79-0.59,1.56-1.19,2.33-1.81
				c0.85-0.68,1.66-1.44,2.59-2.02c1.89-1.2,4.3-0.87,6.19-2.07c0.27-0.17,0.02-0.6-0.25-0.43c-1.59,1-3.55,0.86-5.25,1.57
				c-0.93,0.39-1.71,1.02-2.48,1.65c-0.77,0.63-1.54,1.26-2.33,1.87c-3.23,2.51-6.67,4.84-10.46,6.4c-2.11,0.87-4.32,1.5-6.59,1.78
				C423.93,179.52,423.92,180.02,424.24,179.98L424.24,179.98z"/>
		</g>
	</g>
	<g>
		<g>
			<path d="M387.53,171.69c1.6,1.76,3.12,3.67,5.04,5.09c1.76,1.3,3.85,2.13,6.01,2.45c0.31,0.05,0.45-0.44,0.13-0.48
				c-2.13-0.31-4.16-1.11-5.89-2.39c-1.88-1.39-3.38-3.29-4.94-5.01C387.67,171.1,387.32,171.45,387.53,171.69L387.53,171.69z"/>
		</g>
	</g>
	<g>
		<g>
			<path d="M475.25,152.77c-0.74,0.04-1.35-0.07-1.87-0.62c-0.29-0.32-0.55-0.62-1-0.7c-0.79-0.16-1.66,0.29-2.38,0.55
				c-1.1,0.4-2.19,0.83-3.26,1.32c-2.18,0.98-4.24,2.21-6.04,3.79c-1.83,1.61-3.41,3.48-5.09,5.24c-0.55,0.58-1.04,1.22-1.91,1.21
				c-0.6,0-1.17-0.23-1.77-0.11c-0.76,0.15-1.43,0.99-0.9,1.73c0.19,0.26,0.62,0.01,0.43-0.25c-0.54-0.75,0.66-1.04,1.17-1
				c0.52,0.04,1.03,0.2,1.56,0.1c0.94-0.17,1.62-1.16,2.23-1.81c1.49-1.59,2.92-3.24,4.55-4.68c1.71-1.51,3.66-2.69,5.72-3.64
				c1.03-0.47,2.07-0.9,3.13-1.29c0.69-0.26,1.74-0.85,2.51-0.64c0.44,0.12,0.68,0.6,1.03,0.87c0.54,0.42,1.22,0.48,1.88,0.45
				C475.57,153.25,475.57,152.75,475.25,152.77L475.25,152.77z"/>
		</g>
	</g>
</g>
</svg>
