<?xml version="1.0" encoding="utf-8"?>
<!-- Generator: Adobe Illustrator 28.0.0, SVG Export Plug-In . SVG Version: 6.00 Build 0)  -->
<svg version="1.1" id="Layer_1" xmlns="http://www.w3.org/2000/svg" xmlns:xlink="http://www.w3.org/1999/xlink" x="0px" y="0px"
	 viewBox="0 0 800 800" style="enable-background:new 0 0 800 800;" xml:space="preserve">
<style type="text/css">
	.st0{fill:#EF9448;}
	.st1{fill:#F2F1EB;}
	.st2{fill:url(#SVGID_1_);}
	.st3{fill:url(#SVGID_00000183962637618416530900000010233119882124942243_);}
	.st4{fill:url(#SVGID_00000177464869367799259360000014540589647283710337_);}
	.st5{fill:url(#SVGID_00000158004446552277883130000005766773033251257013_);}
	.st6{fill:url(#SVGID_00000095306423512782070230000003732002924735262100_);}
	.st7{fill:#FFA96E;}
	.st8{fill:none;stroke:#000000;stroke-miterlimit:10;}
	.st9{stroke:#000000;stroke-width:0.25;stroke-miterlimit:10;}
</style>
<g id="_x32_-PANTS__x5B_SHIBA_x5D__x2B_">
	<path class="st0" d="M492.8,463.73c-0.78-4.15-1.09-8.45-2.04-12.56c-0.93-4.04-2.93-7.85-4.49-11.66
		c-1.37-3.32-2.56-6.78-2.86-10.39c-0.29-3.44-0.06-6.95-0.29-10.42c-0.12-1.74-0.37-3.46-0.57-5.19
		c-0.92-7.71-0.94-15.53-0.05-23.25c0.15-1.34,0.17-2.59-0.67-3.69c-0.82-1.08-1.87-1.9-2.48-3.15c-0.45-0.92-0.56-1.96-0.86-2.93
		c-0.54-1.74-1.73-3.27-3.29-4.22c-1.44-0.88-3.12-1.25-4.77-1.58c-5.41-1.08-10.89-1.83-16.36-2.58
		c-7.83-1.07-15.68-2.14-23.59-2.26c-7.5-0.11-14.77,1.6-22.24,1.18c-24.45-1.37-48.99,2.85-72.37,10.13
		c-1.3,0.41-2.66,0.85-3.62,1.82c-1.99,2-0.28,5.53-1.19,8.01c-1.02,2.78-3.57,4.41-3.85,7.45c-0.01,0.07-0.01,0.13-0.02,0.2
		c-0.09,1.48,0.18,2.96,0.43,4.43c0.88,5.24,1.43,10.55,1.12,15.85c-0.11,1.82-0.31,3.64-0.3,5.46c0.02,2.73,0.84,5.08,1.4,7.7
		c0.47,2.22,0.7,4.47,1.25,6.72c0.45,1.82,0.89,3.65,1.24,5.49c0.72,3.82,1.02,7.73,0.89,11.62c-0.12,3.55,0.53,6.9,0.78,10.46
		c0.25,3.5,0.96,6.95,1.66,10.39c1.98,9.59,4.2,18.93,5.38,28.66c1.08,8.92,2.63,17.67,4.27,26.44c1.82,9.76,4.03,19.38,5,29.28
		c0.37,3.81,0.56,7.63,0.75,11.45c0.26,5.4,0.53,10.81,0.79,16.21c0.1,2.03,0.2,4.08-0.14,6.09c-0.3,1.82-1.02,3.57-0.56,5.4
		c0.4,1.58,0.75,2.93,0.89,4.61c0.12,1.42,0.44,2.81,0.76,4.2c1.37,5.93,2.75,11.89,4.8,17.62c2.67,7.5,4.89,14.99,6.36,22.85
		c0.84,4.48,1.4,9.02,2.53,13.44c0.47,1.84,0.88,4.38,2.15,5.85c1.24,1.43,3.4,2.46,4.97,3.49c1.05,0.69,2.17,1.42,2.64,2.58
		c0.59,1.44,0.17,3.45,1.48,4.29c0.62,0.4,1.42,0.35,2.16,0.28c11.33-1.01,22.66-2.02,33.99-3.03c1.05-0.09,2.17-0.22,2.98-0.89
		c0.83-0.68,1.15-1.78,1.51-2.79c0.89-2.51,2.27-4.84,4.03-6.84c1.56-1.78,3.45-3.32,4.58-5.4c0.79-1.47,1.16-3.12,1.46-4.76
		c1.03-5.61,1.37-11.35,1.02-17.05c-0.15-2.4-0.46-4.71-0.38-7.1c0.09-2.67,0.31-5.47,0.16-8.14c-0.6-10.64-1.21-21.3-2.72-31.86
		c-1.46-10.18-4.73-20.11-5.71-30.33c-0.54-5.69,0.2-11.22,0.96-16.8c0.07-0.53,0.29-1.12,0.79-1.28c1.73,1.06,2.53,4.27,3.27,6.09
		c0.61,1.51,1.18,3.03,1.75,4.55c1.64,4.42,3.41,8.79,5.26,13.12c0.9,2.11,1.79,4.23,2.74,6.32c0.81,1.79,2.08,3.26,2.93,5.08
		c2.75,5.91,5.09,12.01,7.02,18.25c1.76,5.72,4.58,10.87,6.14,16.74c0.48,1.8,0.52,3.46,1.16,5.23c0.86,2.36,1.74,4.72,2.61,7.08
		c0.85,2.29,1.69,4.59,2.27,6.96c1.73,7.18,1.41,14.44,4.11,21.46c3.31,8.64,10.26,12.67,18.05,16.8c2.59,1.37,3.42,2.53,4.54,5.05
		c0.57,1.3,1.29,2.52,1.76,3.87c0.17,0.49,0.34,1.02,0.75,1.36c0.28,0.23,0.63,0.33,0.98,0.43c1.03,0.3,1.98,0.39,3.03,0.47
		c10.3,0.78,20.43-2.47,30.26-5.68c0.77-0.25,1.56-0.52,2.17-1.05c1.42-1.24,1.37-3.42,1.17-5.3c-0.16-1.48-0.41-3.44,0.48-4.75
		c0.79-1.17,2.23-2.04,3.13-3.23c1.93-2.55,3.2-5.56,3.94-8.66c0.24-0.99,0.42-2,0.55-3.01c0.68-5.16,0.14-10.4-0.49-15.57
		c-0.97-7.97-2.15-15.92-3.98-23.74c-0.52-2.23-1.1-4.45-2.01-6.55c-1.31-3.02-3.24-5.72-4.35-8.81c-1.1-3.05-2.35-6.09-3.47-9.16
		c-2.35-6.45-4.39-13.01-6.11-19.66c-3.85-14.94-4.42-30.62-8.48-45.5c-0.65-2.38-1.42-4.74-1.94-7.16c-0.43-1.99-0.2-3.7-0.34-5.66
		c-0.34-4.86-1.1-9.86-2.02-14.65c-0.6-3.15-1.41-6.25-2.17-9.36C495.56,477.68,494.11,470.72,492.8,463.73z"/>
	<path class="st1" d="M345.93,403.08c-0.47-0.84-1.1-1.6-1.78-2.26c-0.84-0.81-1.62,0.27-1.43,0.96c-0.35,0.21-0.64,0.51-0.76,0.91
		c-0.01,0-0.01,0-0.02,0c-0.01,0.04-0.01,0.08-0.02,0.11c-0.01,0.04-0.01,0.07-0.02,0.11c-0.62,3.58-1.11,7.19-1.84,10.76
		c-0.35,1.73-0.88,3.33-1.67,4.9c-0.48,0.96-1.35,2.32-1.61,3.57c-0.76,0.07-1.34,1.09-0.66,1.74c0.31,0.29,0.6,0.57,0.93,0.83
		c0.15,0.12,0.34,0.19,0.53,0.23c0.18,0.13,0.36,0.26,0.54,0.39c0.09,0.09,0.17,0.18,0.28,0.26c0.5,0.39,1.46,0.13,1.43-0.54
		c0.11-0.18,0.18-0.37,0.19-0.58c0.08-1.88,1.45-3.65,2.25-5.3c0.79-1.64,1.55-3.28,2.22-4.96c0.69-1.72,1.31-3.47,1.84-5.25
		c0.38-1.28,0.77-2.63,0.65-3.95C347.17,404.07,347.11,403.14,345.93,403.08z"/>
	<path class="st1" d="M454.63,417.53c-1.52-1.99-3.05-3.98-4.53-5.99c-0.17-0.24-0.39-0.36-0.62-0.45
		c-0.96-2.63-2.96-4.69-4.43-7.05c-0.91-1.47-1.63-3.07-2.56-4.49c-0.16-0.56-0.37-1.11-0.64-1.63c-0.53-1.02-1.3-2.13-2.26-2.81
		c-0.04-0.37-0.27-0.7-0.59-0.89c-0.06-0.68-0.97-1.14-1.58-0.59c-1.07,0.97-1.87,2.14-2.83,3.22c-0.43,0.49-1.04,0.81-1.27,1.47
		c-0.16,0.46-0.08,0.85,0.1,1.23l0,0c0.02,0.57,0.4,1.06,0.68,1.52c0.3,0.51,0.61,1.01,0.91,1.52c1.28,2.11,2.59,4.24,4.11,6.19
		c0.07,0.09,0.16,0.15,0.25,0.19c1.04,1.56,2.24,3.02,3.46,4.45c0.01,0.02,0.03,0.02,0.04,0.04c1.49,2.03,3,4.04,4.61,5.96
		c0.3,0.36,0.7,0.45,1.09,0.38c0.76,1.04,1.55,2.05,2.47,2.95c0.53,0.52,1.29,0.39,1.77-0.03c0.2-0.05,0.39-0.13,0.56-0.3
		c0.06-0.06,0.12-0.1,0.17-0.15c0.23,0,0.47-0.04,0.7-0.17c1.11-0.61,1.72-1.76,2.11-2.93
		C456.75,418.03,455.56,417.26,454.63,417.53z"/>
	<path class="st1" d="M429.3,379.98c-0.14-0.01-0.29-0.01-0.45,0c-6.59,0.31-13.1-0.45-19.67-0.45c-5.48,0-10.71,1.45-16.15,1.81
		c-5.5,0.36-11.02,0.05-16.52,0.48c-2.92,0.23-5.82,0.7-8.68,1.32c-2.51,0.54-5.54,0.91-7.78,2.21c-0.16,0.09-0.32,0.19-0.43,0.34
		c-1.39,1.98,6.69,6.61,8.03,7.38c10.31,5.98,22.33,7.42,33.92,5.07c3.49-0.71,6.94-1.71,10.21-3.12c1.37-0.59,2.85-1.31,4.19-2.2
		c2.07-1.38,4.36-2.41,6.42-3.86c2.27-1.59,4.33-3.52,6.12-5.64C429.47,382.18,431.65,380.08,429.3,379.98z"/>
	
		<linearGradient id="SVGID_1_" gradientUnits="userSpaceOnUse" x1="214.8815" y1="242.6512" x2="527.2635" y2="277.9044" gradientTransform="matrix(1 0 0 -1 0 799.8898)">
		<stop  offset="0" style="stop-color:#A35E26"/>
		<stop  offset="0.3854" style="stop-color:#C77639;stop-opacity:0.6146"/>
		<stop  offset="1" style="stop-color:#FC9956;stop-opacity:0"/>
	</linearGradient>
	<path class="st2" d="M492.46,680.86c2.76,0.9,8.46,1.06,11.31,0.5c0.84-0.17,1.63-0.88,1.57-1.73c-0.11-1.54-2.94-2.13-4-2.89
		c-1.91-1.36-3.67-3.57-5.05-5.45c-2.61-3.56-4.4-7.81-3.41-12.28c0.61-2.73,2.2-5.3,1.98-8.08c-0.59-7.19-11.37-8.21-15.33-14.24
		c-1.82-2.77-1.95-6.27-2.43-9.56c-1.2-8.16-4.99-15.91-10.68-21.87c-1.4-1.47-3.01-3.03-3.12-5.05c-0.07-1.3,0.5-2.54,1.11-3.69
		c2.16-4.12,4.86-8.03,6.06-12.53c1.39-5.2,0.65-10.71-0.28-16.01c-2.02-11.5-4.91-22.85-8.62-33.92
		c-3.28-9.8-6.69-22.18-12.86-30.48c-0.99-1.33-1.66-3.33-0.53-4.55c0.77-0.83,2.04-0.9,3.17-0.91c7.06-0.07,14.11-0.14,21.17-0.21
		c-2.11-7.22-6.62-13.46-11.06-19.54c-5.3-7.27-10.6-14.54-15.91-21.81c-3.58-4.91-12.06-12.79-12.66-19.07
		c-0.18-1.93,1.59-4.04,3.47-3.56c-8.37-9.21-14.24-20.68-16.82-32.85c7.66-4.14,14.36-10.03,19.46-17.09
		c0.42-0.59,0.86-1.31,0.61-1.99c-0.14-0.38-0.46-0.65-0.79-0.88c-5.39-3.73-10.19,2.11-13.89,5.35
		c-5.17,4.52-10.79,8.15-17.35,10.33c-3,0.99-6.09,1.68-9.18,2.37c-9.68,2.15-18.95,3.59-28.33-0.36
		c-3.94-1.66-7.16-3.89-10.44-6.52c-0.45-0.36-0.91-0.74-1.16-1.26c-0.52-1.06,0-2.3,0.31-3.44s0.19-2.68-0.92-3.08
		c-0.48-0.17-1.01-0.07-1.5,0.04c-5.83,1.26-11.65,2.52-17.48,3.79c-0.81,0.17-1.64,0.36-2.32,0.83c-0.85,0.59-1.36,1.55-1.83,2.47
		c-0.89,1.73-1.78,3.46-2.66,5.19c-0.49,0.96-0.99,1.94-1.12,3.01c-0.15,1.26,0.23,2.51,0.45,3.75c0.87,5-0.87,10.06-0.97,15.13
		c-0.07,3.7,0.74,7.35,1.55,10.96c1.12,5.01,2.61,10.09,3.39,15.16c0.78,5.04,0.99,10.07,2.11,15.07c0.38,1.72,0.82,3.5,0.41,5.22
		c-0.2,0.83-0.59,1.6-0.81,2.42c-0.41,1.54-0.22,3.16,0.01,4.74c2.02,14.35,5.68,28.47,10.88,41.99c0.49,1.28,1.01,2.6,0.95,3.97
		c-0.04,0.89-0.32,1.76-0.53,2.62c-0.51,2.05-0.65,4.18-0.7,6.29c-0.29,11.84,2.25,23.55,4.78,35.12c1.12,5.13,3.06,10.67,3.41,15.9
		c0.34,5.08-0.26,10.36,0.07,15.51c0.72,11.27,2.58,22.45,5.14,33.44c1.05,4.51,2.22,8.99,3.39,13.47
		c1.78,6.82,3.55,13.64,5.77,20.33c0.89,2.69,1.69,5.5,3.32,7.85c1.2,1.73,3.84,3.24,4,5.51c0.04,0.6-0.11,1.21-0.11,1.81
		c-0.02,5.86,8.67,2.69,11.51,2.14c1.43-0.28,17.22-1.82,17.16-1.33c0.83-6.56-1.24-13.44-5.54-18.46c-0.35-0.4-0.73-0.85-0.73-1.38
		c-0.01-0.81,0.85-1.34,1.61-1.62c3.83-1.38,8.11-0.69,12.06-1.68c0.51-0.13,1.1-0.37,1.19-0.89c0.07-0.39-0.18-0.75-0.41-1.07
		c-1.57-2.12-3.14-4.24-4.7-6.37c-0.5-0.67-1.02-1.37-1.76-1.75c-0.81-0.43-1.76-0.43-2.68-0.45c-5.71-0.14-11.3-0.83-16.04-4.09
		c-2.2-1.51-4.26-3.23-6.15-5.13c-0.99-1-3.55-5.33-4.7-5.64c7.41,1.95,14.82,3.89,22.23,5.84c3.49,0.92,7.87,1.56,10.1-1.28
		c2.47-3.16,0-7.83-3.03-10.46c-1.25-1.08-2.69-2.21-2.96-3.85c-0.11-0.71,0.01-1.43,0.19-2.12c0.75-2.86,3.79-5.84,6.28-4.24
		c-0.9-0.73-1.79-1.47-2.69-2.2c3.14-1.7,6.94-2.18,10.4-1.3c-1.38-0.35-4.99-6.88-6.22-8.21c-2.49-2.68-5.27-5.09-8.26-7.19
		c-4.92-3.45-10.3-6.35-14.2-11.06c-0.59-0.71-1.15-1.47-1.43-2.34c-0.41-1.29-0.14-2.69,0.1-4.02c0.72-3.87,1.27-7.93,0.05-11.67
		c-0.17-0.53-0.38-1.09-0.24-1.63c0.13-0.51,0.55-0.88,0.97-1.2c3.48-2.7,7.95-4.91,11.73-7.17c1.48-0.89,8.81-3.12,8.83-5.26
		c0.02-3.71,0.17-7.42,0.45-11.11c0.06-0.85,0.22-1.83,0.96-2.25c0.53-0.3,1.2-0.2,1.74-0.46c0.98-0.47,1.12-1.78,1.11-2.87
		c-0.09-10.94-1.28-21.86-3.54-32.56c-1.58-7.46-2.92-16.25-5.88-23.61c4.65,8.34,8.04,17.38,10.95,26.45
		c2.17,6.77,4.07,13.63,6,20.48c9.52,33.74,21.09,66.91,34.62,99.25c2.64,6.31,5.39,12.72,6.1,19.52c0.32,3.04,0.24,6.19,1.28,9.06
		c1.13,3.12,3.47,5.62,5.75,8.03c5.21,5.5,10.42,11,15.63,16.5C487.35,677.62,489.57,679.91,492.46,680.86z M345.63,409.5
		c-0.06,2.81-0.99,5.51-2.15,8.05c-1.14,2.5-2.54,4.92-4.17,7.13c-0.41,0.55-1.19,0.56-1.71,0.19c-0.64-0.46-0.92-1.15-1.24-1.84
		c-0.28-0.6,0.01-1.12,0.47-1.39c0.14-0.69,0.32-1.32,0.83-1.8c0.77-2.52,0.86-5.28,1.71-7.76c0.62-1.79,1.39-3.53,1.97-5.34
		c0.29-0.91,0.53-1.84,0.67-2.78c0.11-0.73,0.07-1.46,0.11-2.19c-0.12-0.99,1.33-1.53,1.93-0.69h0.01
		C348.2,402.25,347.31,406.06,345.63,409.5z"/>
	
		<linearGradient id="SVGID_00000155830649463540989130000016409402902302712499_" gradientUnits="userSpaceOnUse" x1="375.761" y1="290.6698" x2="406.548" y2="420.6234" gradientTransform="matrix(1 0 0 -1 0 799.8898)">
		<stop  offset="0" style="stop-color:#A35E26"/>
		<stop  offset="0.3854" style="stop-color:#C77639;stop-opacity:0.6146"/>
		<stop  offset="1" style="stop-color:#FC9956;stop-opacity:0"/>
	</linearGradient>
	<path style="fill:url(#SVGID_00000155830649463540989130000016409402902302712499_);" d="M390.41,457.29
		c2.75,3.76,6.01,7.62,10.54,8.71c3.97,0.95,8.1-0.42,12.18-0.4c-6.72-1.05-13.09-4.26-17.94-9.03c2.7,0.1,5.4,0.19,8.1,0.29
		c-6.66-3.54-11.53-9.6-16.84-14.94c-5.2-5.23-11.59-10.23-19.25-10.68C376.01,439.28,383.33,447.59,390.41,457.29z"/>
	
		<linearGradient id="SVGID_00000075885358036255347250000012860403669605121979_" gradientUnits="userSpaceOnUse" x1="394.0212" y1="134.6982" x2="393.7381" y2="224.4417" gradientTransform="matrix(1 0 0 -1 0 799.8898)">
		<stop  offset="0" style="stop-color:#A35E26"/>
		<stop  offset="0.3854" style="stop-color:#C77639;stop-opacity:0.6146"/>
		<stop  offset="1" style="stop-color:#FC9956;stop-opacity:0"/>
	</linearGradient>
	<path style="fill:url(#SVGID_00000075885358036255347250000012860403669605121979_);" d="M392.44,641.29
		c2.82,1.06,5.85,1.39,8.84,1.71c4.22,0.45,8.45,0.9,12.67,1.35c-5.85,0.91-11.81,1.82-17.65,0.85c-7.5-1.25-14.14-5.5-21.39-7.79
		c1.46-0.27,2.95-0.35,4.42-0.23c-1.93-0.16-5.63-12.92-5.43-14.73c2.7,1.49,4.55,5.59,6.3,8.06
		C383.4,635.02,387.12,639.3,392.44,641.29z"/>
	
		<linearGradient id="SVGID_00000152222876107520663400000014309058923191788427_" gradientUnits="userSpaceOnUse" x1="451.8016" y1="312.0026" x2="457.1805" y2="359.8468" gradientTransform="matrix(1 0 0 -1 0 799.8898)">
		<stop  offset="0" style="stop-color:#A35E26"/>
		<stop  offset="0.3854" style="stop-color:#C77639;stop-opacity:0.6146"/>
		<stop  offset="1" style="stop-color:#FC9956;stop-opacity:0"/>
	</linearGradient>
	<path style="fill:url(#SVGID_00000152222876107520663400000014309058923191788427_);" d="M459.53,461.45
		c8.6,1.99,16.76,5.5,24.81,9.09c-0.43-2.87-2.53-5.27-5.02-6.77s-5.34-2.23-8.16-2.94c-12.73-3.23-25.45-6.46-38.18-9.69
		c1.27,2,2.98,3.72,4.97,5.01c-1.65-1.07-11.91,3.63-13.68,4.55c1.25,2.05,13.49-0.99,16.37-1.08
		C446.99,459.41,453.35,460.02,459.53,461.45z"/>
	
		<linearGradient id="SVGID_00000173860346359293488660000009807721037207763134_" gradientUnits="userSpaceOnUse" x1="426.9005" y1="212.7218" x2="474.8688" y2="316.2322" gradientTransform="matrix(1 0 0 -1 0 799.8898)">
		<stop  offset="0" style="stop-color:#A35E26"/>
		<stop  offset="0.3854" style="stop-color:#C77639;stop-opacity:0.6146"/>
		<stop  offset="1" style="stop-color:#FC9956;stop-opacity:0"/>
	</linearGradient>
	<path style="fill:url(#SVGID_00000173860346359293488660000009807721037207763134_);" d="M438,548.51c1.27,1.48,2.81,3,4.75,3.14
		c2.21,0.16,4.07-1.49,6.1-2.37c3.28-1.42,7.05-0.81,10.54-0.03c6.28,1.4,12.45,3.25,18.46,5.55c-8.41-6.74-19.31-10.3-30.08-9.83
		c2.92-2.05,5.48-4.61,7.53-7.53c-3.68,1.95-7.77,3.95-11.84,3.05c-1.45-0.32-2.79-1-4.06-1.78c-3.85-2.35-7.11-5.65-9.44-9.51
		c-2.32-3.85-3.7-8.32-6.71-11.73C425.91,529.06,430.08,539.36,438,548.51z"/>
	<path class="st7" d="M459.74,620.37c-0.31-0.86-0.65-1.69-1.01-2.5c2.95,0.55,5.9,1.1,8.85,1.65c-2.49-1.77-4.98-3.55-7.47-5.32
		c-0.64-0.46-1.29-0.92-1.76-1.55c-0.92-1.22-1.03-2.85-1.43-4.32c-0.93-3.43-3.67-5.36-5.2-8.37c-1.3-2.55-1.66-5.65-2.09-8.42
		c-0.18-1.15-0.35-2.32-0.13-3.46c0.18-0.95,0.63-1.82,1.08-2.68c1.73-3.46,4.01-6.69,5.9-10.11c0.6-1.09,1.3-2.21,1.86-3.29
		c0.22-0.43,0.9-3.29,1.04-3.37c-4.59,2.86-9.21,5.54-13.32,8.98c-0.19,0.16-0.4,0.33-0.65,0.33c-0.3,0.01-0.54-0.22-0.75-0.43
		c-2.52-2.55-4.91-5.22-7.16-8.01c-0.33-0.42-0.67-0.85-0.82-1.36c-0.18-0.62-0.05-1.29,0.06-1.93c0.94-5.53-0.21-11.68-2.54-16.71
		c-2.3-4.99-5.9-9.05-8.53-13.83c-2.02-3.68-3.16-7.76-4.29-11.81c-1.82-6.52-3.64-13.06-4.83-19.73
		c-1.97-11.09-5.49-21.66-12.4-30.73c2.02,5.25,3.69,10.56,5.2,15.98c1.04,3.72,2.08,7.44,3.13,11.17c0.73,2.62,1.47,5.25,2.06,7.91
		c0.65,2.95,1.12,5.93,1.71,8.89c1.35,6.84,3.32,13.54,5.28,20.23c0.87,2.96,1.85,5.9,2.7,8.84c0.91,3.16,2.55,6.23,3.87,9.26
		c2.82,6.48,5.64,12.97,8.46,19.45c0.88,2.03,1.76,4.05,2.64,6.08c2.55,5.87,5.11,11.75,7.54,17.67c1.49,3.63,2.7,7.55,4.02,11.29
		c1.4,3.98,2.67,8,3.81,12.07c2.28,8.12,4.04,16.39,5.25,24.74c0.31,2.13,0.59,4.29,1.37,6.29c0.79,2.02,2.07,3.81,3.39,5.53
		c1.45,1.88,2.98,3.72,4.83,5.21c3.58,2.87,7.78,4.82,11.25,7.85c1.64,1.43,3.09,3.11,4.16,5.01c1.02,1.82,1.54,3.73,3.42,4.9
		c1.32,0.82,2.89,0.59,4.38,0.57c1.71-0.03,3.41-0.07,5.12-0.13c3.41-0.13,6.83-0.37,10.21-0.82c0.24-0.03,0.48-0.08,0.71-0.1
		c-4.16,0.3-8.37,0.02-12.46-0.82c-3.48-0.72-5.58-2.06-7.72-4.82c-2.14-2.74-4.13-5.67-6.9-7.77c-3.42-2.6-7.88-3.82-10.76-7.01
		c-0.23-0.26-0.44-0.69-0.16-0.9c0.81-0.62,4.08,1.01,4.94,1.24c2.17,0.59,4.37,1.09,6.62,1.26c-4.12-2.47-8.09-5.2-11.86-8.17
		c-1.76-1.39-3.51-2.87-4.69-4.78c-2.94-4.78-4.62-11.48-4.72-17.03c-0.04-2.25,0.44-4.48,0.16-6.68
		C460.88,623.97,460.38,622.14,459.74,620.37z"/>
	<path class="st7" d="M400.29,664.26c-3.44-0.67-7.07-0.4-10.56-0.41c-4.58-0.02-9.5-0.32-13.91-1.63c-1.56-0.46-2.58-0.83-3.58-2.1
		c-1.09-1.39-2.13-2.83-2.91-4.43c-1.03-2.12-1.57-4.56-1.03-6.86c0.12-0.52,0.33-1.08,0.79-1.36c0.56-0.35,1.29-0.18,1.93,0.01
		c5.27,1.61,10.27,4.31,15.76,4.78c-0.89-1.35-1.95-2.09-3.18-3.04c-1.39-1.07-2.74-2.18-4.15-3.21c-2.84-2.07-5.76-4.01-8.58-6.1
		c-1.25-0.92-2.44-1.9-3.61-2.93c-1-0.88-1.43-2.11-1.88-3.36c-0.39-1.09-0.79-2.17-1.14-3.27c-1.31-4.09-2.06-8.35-2.21-12.64
		c-0.03-0.89-0.03-1.8,0.26-2.64c0.65-1.84,2.64-2.23,4.37-2.39c3.38-0.32,8.3-2.7,9.54-6.11c-3.03-0.06-6.13-0.37-8.93,1.07
		c-1.16,0.59-2.27,1.43-3.57,1.45c-1.06,0.02-2.08-0.54-2.8-1.32s-1.17-1.78-1.5-2.79c-0.76-2.32-0.52-4.68-0.84-7.08
		c-0.4-3.01-0.6-6.03-0.73-9.06c-0.26-5.91-0.23-11.84-0.95-17.71c-0.52-4.27-2.41-8.12-2.98-12.43c-0.31-2.3-0.26-4.63-0.6-6.92
		c-0.35-2.37-1.11-4.65-1.67-6.98c-1.65-6.87-2.07-13.64-2.58-20.73c-0.06-0.81-0.1-1.67,0.3-2.38c1.04-1.79,3.75-1.07,5.6-0.12
		c-9.28-14.39-12.74-31.66-16.02-48.47c-0.21-1.07-0.41-2.17-0.14-3.22s1.17-2.02,2.26-2.01c1.14,0.02,2.32,1.07,3.29,0.48
		c-6.66-13.22-10.27-27.96-10.47-42.76c-0.07-5.43-0.82-10.13-2.02-15.36c-0.63-2.71-0.87-5.52-0.74-8.3
		c0.05-0.98,0.15-1.99,0.61-2.86c0.45-0.87,1.21-1.54,1.7-2.38c0.46-0.78,0.67-1.69,0.99-2.54c0.94-2.48,3.09-4.09,4.29-6.42
		c0.39-0.75,0.72-1.56,1.31-2.16c0.53-0.54,1.23-0.88,1.92-1.2c0.25-0.12,0.53-0.24,0.79-0.14c0.21,0.08,0.34,0.29,0.53,0.42
		c0.32,0.22,0.75,0.2,1.14,0.14c2.31-0.34,4.46-1.32,6.61-2.24c5.73-2.44,11.97-4.53,18.1-3.4c0.24,0.04,0.48,0.09,0.73,0.06
		c0.3-0.05,0.57-0.22,0.82-0.39c3.82-2.45,8.49-3.1,13.01-3.45c3.14-0.24,6.66-0.53,8.71-2.93c0.12-0.14,0.24-0.3,0.23-0.48
		c-0.01-0.45-0.63-0.55-1.07-0.5c-5.66,0.57-11.31,1.26-16.95,2.05c-5.53,0.78-11.01,1.87-16.53,2.66c-2.97,0.42-5.89,1.35-8.8,2.09
		c-3.17,0.81-6.33,1.61-9.49,2.42c-2.22,0.57-4.45,1.14-6.53,2.09c-0.27,0.13-0.55,0.26-0.75,0.49c-0.16,0.18-0.25,0.39-0.35,0.61
		c-0.37,0.83-0.74,1.67-0.93,2.56c-0.35,1.65-0.06,3.4-0.46,5.04c-0.58,2.35-2.51,4.18-3.17,6.51c-0.92,3.22,0.43,6.83,0.85,10.04
		c0.47,3.61,0.67,7.26,0.59,10.89c-0.04,2.06-0.18,4.13-0.05,6.19c0.18,2.98,0.88,5.89,1.42,8.82c0.22,1.21,0.3,2.28,0.29,3.49
		c-0.01,1.37,0.45,2.84,0.66,4.19c0.95,5.92,1.58,11.89,2.2,17.86c1.02,9.78,2.06,19.67,4.05,29.28
		c2.12,10.21,4.07,20.46,5.85,30.74c1.8,10.35,3.42,20.73,4.88,31.13c1.4,10.02,3.04,19.84,3.29,29.98
		c0.25,10.24,0.41,20.27,1.74,30.44c0.6,4.6,2.86,9.3,4.24,13.76c1.5,4.86,2.89,9.74,4.17,14.66c1.76,6.79,3.3,13.63,4.63,20.52
		c0.43,2.23,0.84,4.48,1.72,6.58c0.88,2.09,2.27,4.05,4.25,5.17c0.82,0.46,1.73,0.78,2.5,1.31c1.34,0.91,2.21,2.46,2.31,4.08
		c0.04,0.65-0.02,1.38,0.4,1.88c0.42,0.5,1.16,0.56,1.81,0.58c1.21,0.04,2.43,0.08,3.64,0.12c2.95,0.1,1.02-3.09,1.06-4.95
		c0.03-1.48,0.57-3.03,1.74-3.94c1.82-1.42,4.4-0.89,6.71-0.83c4.16,0.11,8.34-1.61,11.2-4.63
		C402.58,664.81,401.45,664.48,400.29,664.26z"/>
	<path class="st7" d="M386.21,398.95c-0.66-0.05-1.32-0.12-1.97-0.22c-2.33-0.38-4.63-0.93-6.88-1.63
		c-4.5-1.41-8.81-3.44-12.75-6.04c-1.14-0.75-2.26-1.55-3.33-2.39c-0.27-0.21-0.6-0.45-0.94-0.37c-0.35,0.07-0.55,0.43-0.67,0.77
		c-0.94,2.72,1.01,4.45,3.02,5.87c2.21,1.56,4.68,2.71,7.13,3.83c4.6,2.11,10.05,2.5,15.06,2.48c2.33-0.01,4.71-0.18,6.84-1.11
		c0.1-0.04,0.21-0.1,0.24-0.2c0.06-0.2-0.2-0.34-0.4-0.39C389.79,399.11,388,399.09,386.21,398.95z"/>
	<path class="st7" d="M380.8,441.36c-3.14-1.98-6.32-3.63-9.78-4.95c-0.56-0.21-0.95,0.71-0.41,0.97c3.24,1.56,6.48,3.2,9.59,5
		C380.87,442.77,381.45,441.77,380.8,441.36z"/>
	<path class="st7" d="M348.97,407.97c0.1-0.6,0.19-1.22,0.17-1.82c-0.01-0.39-0.07-0.77-0.19-1.14c-0.46-1.36-1.71-2.27-2.9-3.08
		c0.5,0.51,1.02,1.08,1.12,1.79c0.05,0.36-0.02,0.72-0.08,1.08c-0.29,1.55-0.58,3.1-0.87,4.65c-1.05,5.58-3.57,11.08-5.89,16.27
		c-0.21,0.46-0.62,1.01-1.09,0.83c-0.25-0.1-0.38-0.36-0.58-0.54c-0.65-0.57-0.57,0.29-0.38,0.66c0.22,0.41,0.63,0.95,1.08,1.12
		c1.2,0.44,2.22-0.62,2.71-1.56C345.09,420.49,347.88,414.43,348.97,407.97z"/>
	<path class="st7" d="M443.78,414.55c-2.48-3.29-4.82-6.71-7.44-9.9c-0.8-0.98-1.64-1.94-2.27-3.03c-0.63-1.09-1.06-2.35-0.97-3.61
		c0.06-0.81,0.32-1.58,0.59-2.35c-3.56,2.16-1.96,6.35-0.83,9.44c1.54,4.23,4.52,8.3,7.48,11.64c1.28,1.45,2.61,2.95,4.05,4.23
		c1.55,1.38,3.24,2.62,5.1,3.55c0.61,0.3,1.25,0.57,1.92,0.63c0.68,0.06,1.4-0.13,1.86-0.63s0.57-1.33,0.14-1.86
		c-0.43,0.46-1.17,0.52-1.76,0.3c-0.59-0.21-1.08-0.65-1.54-1.08C447.77,419.64,445.73,417.14,443.78,414.55z"/>
	<path class="st7" d="M408.35,371.6c-5.3,0.22-10.63-0.07-15.93-0.36c2.05,1.6,4.54,2.54,7.05,3.12c2.34,0.54,4.63,0.83,6.4-1.12
		c0.15-0.17,0.31-0.35,0.53-0.43c0.19-0.07,0.41-0.04,0.61,0c2.28,0.43,4.34,1.9,5.47,3.92c-0.21-0.65-0.42-1.29-0.63-1.94
		c-0.13-0.39-0.26-0.82-0.14-1.22c0.14-0.47,0.59-0.78,1.01-1.04c1-0.61,2.05-1.16,3.11-1.64
		C413.36,371.28,410.86,371.49,408.35,371.6z"/>
	<g>
		<g>
			<path d="M373.88,441.34c2.48,1.24,4.85,2.69,7.07,4.34c0.26,0.19,0.51-0.24,0.25-0.43c-2.23-1.65-4.59-3.11-7.07-4.34
				C373.85,440.76,373.59,441.19,373.88,441.34L373.88,441.34z"/>
		</g>
	</g>
	<g>
		<g>
			<path d="M420.21,537.25c1.95,5.25,0.22,10.94-0.32,16.29c-0.56,5.63,0.3,11.28,1.53,16.77c1.27,5.65,2.95,11.21,3.89,16.93
				c1.02,6.2,1.45,12.5,1.82,18.76c0.36,6.09,0.61,12.19,1,18.28c0.41,6.26,0.72,12.51,0.42,18.78c-0.15,3.07-0.38,6.14-0.63,9.21
				c-0.24,3.02-0.55,6.1-2.16,8.74c-2.55,4.18-7.61,7.01-8.18,12.21c-0.18,1.66-1.83,1.82-3.24,2.07c-1.72,0.31-3.46,0.53-5.2,0.76
				c-3.44,0.46-6.9,0.83-10.35,1.18c-3.54,0.35-7.08,0.67-10.63,0.98c-3.42,0.3-7.14,0.89-10.52,0.08c0.24,0.32,0.49,0.64,0.73,0.96
				c-0.13-1.62-0.33-3.29-1.1-4.75c-0.85-1.61-2.37-2.34-3.93-3.12c-3.61-1.81-4.92-4.97-5.66-8.77c-0.82-4.2-1.38-8.44-2.25-12.63
				c-0.97-4.67-2.11-9.3-3.42-13.88c-2.46-8.63-6.17-16.96-8.02-25.75c-1.99-9.4-1.03-19.07-1.17-28.6
				c-0.13-9.45-1.5-18.82-2.91-28.15c-1.43-9.47-2.92-18.93-4.46-28.38c-1.56-9.55-3.19-19.09-4.87-28.62
				c-1.43-8.06-3.52-15.97-4.74-24.08c-1.31-8.74-1.31-17.58-2.63-26.31c-0.68-4.49-1.6-8.94-2.51-13.39
				c-0.95-4.69-1.41-9.28-1.21-14.07c0.09-2.28,0.49-4.59,0.38-6.87c-0.1-2.15-0.77-4.23-1.14-6.34c-0.35-1.98-0.92-4.47-0.7-6.48
				c0.24-2.21,2.21-4.22,3.17-6.16c0.78-1.57,1.43-3.41,1.36-5.19c-0.03-0.86-0.54-2.02-0.25-2.85c0.37-1.03,1.53-1.22,2.43-1.52
				c2.84-0.97,5.66-1.99,8.49-2.98c7.64-2.69,15.89-3.87,23.86-5.22c9.52-1.61,19.21-3.23,28.88-3.39c4.66-0.08,9.29,0.44,13.94,0.5
				c4.85,0.05,9.65-0.73,14.48-0.95c7.65-0.34,15.28,0.31,22.88,1.2c7.51,0.88,14.99,2.01,22.42,3.41c1.62,0.31,3.26,0.25,4.74,1.09
				c1.84,1.04,2.83,2.7,3.24,4.72c0.34,1.66,0.67,3.03,1.91,4.25c0.81,0.8,1.65,1.37,1.94,2.56c0.28,1.18,0.02,2.43-0.13,3.61
				c-0.62,4.6-0.17,9.11-0.33,13.72c-0.07,1.87-0.09,3.7,0.28,5.54c0.48,2.42,0.86,4.73,0.94,7.21c0.13,4.37-0.13,8.74,0.63,13.06
				c0.79,4.44,2.47,8.67,4.33,12.76c0.91,2,1.63,3.84,2.02,6.01c0.42,2.37,0.94,4.73,1.43,7.09c0.95,4.63,1.89,9.26,2.84,13.89
				c0.96,4.69,1.94,9.37,3.19,13.99c1.11,4.09,1.92,7.99,2.26,12.23c0.31,3.87,0.47,7.76,1.08,11.6c0.67,4.15,2.12,8.15,3.04,12.25
				c1.04,4.62,1.83,9.3,2.49,13.98c0.62,4.4,0.84,8.95,1.75,13.29c3.3,15.78,7.06,31.79,13.7,46.55c1.9,4.21,4.17,8.15,5.49,12.61
				c1.29,4.35,2.2,8.83,3.09,13.28c1.82,9.19,2.99,18.62,2.02,27.99c-0.23,2.24-0.54,4.51-1.28,6.65c-0.77,2.21-2.12,3.95-3.67,5.67
				c-1.07,1.2-2.43,2.47-3.01,4c-0.65,1.71-0.39,3.61-0.23,5.38c0.08,0.88,0.43,2.28,0.15,3.12c-0.22,0.67-0.81,0.88-1.42,1.16
				c-2.11,0.96-4.29,1.78-6.49,2.49c-4.41,1.44-8.97,2.44-13.57,3.01c-4,0.5-8.38,1.02-12.41,0.51c-2.49-0.32-3.29-1.43-3.99-3.7
				c-0.48-1.58-1.14-3.01-2.18-4.31c-2.08-2.6-5.07-4.28-7.94-5.87c-3.08-1.72-5.97-3.52-8.38-6.14c-2.56-2.79-4.5-6.17-5.55-9.81
				c-1.21-4.22-1.27-8.73-2.07-13.04c-1.66-8.9-4.63-17.47-7.37-26.08c-1.36-4.29-2.69-8.58-4.32-12.78
				c-1.71-4.43-3.59-8.8-5.43-13.18c-3.18-7.54-6.47-15.01-9.73-22.52c-3.16-7.27-6.18-14.6-8.9-22.05
				c-1.24-3.41-2.44-6.84-3.38-10.34c-1.22-4.57-2.08-9.22-3.02-13.85c-1.84-9.04-3.99-18.03-6.48-26.92
				c-1.21-4.32-2.53-8.62-4.07-12.84c-0.77-2.1-1.59-4.17-2.47-6.22c-0.8-1.85-1.57-3.85-3.01-5.32c-1.23-1.25-2.87-1.81-4.34-2.71
				c-1.7-1.03-3.02-2.54-4.27-4.06c-2.92-3.54-5.78-7.14-8.66-10.71c-0.81-1-2.22,0.42-1.41,1.41c2.99,3.7,5.93,7.46,8.99,11.11
				c1.27,1.51,2.65,2.94,4.34,3.97c1.92,1.17,3.78,1.79,4.99,3.84c2.34,3.97,3.81,8.72,5.26,13.08c1.48,4.47,2.76,9,3.97,13.55
				c2.42,9.12,4.4,18.32,6.28,27.56c1.65,8.08,4.08,15.78,7.04,23.47c2.85,7.42,5.93,14.75,9.17,22.01
				c3.64,8.18,7.13,16.43,10.57,24.69c3.62,8.69,6.42,17.6,9.28,26.56c1.42,4.44,2.78,8.91,3.88,13.44
				c1.11,4.56,1.74,9.14,2.34,13.79c0.96,7.47,4.61,14.17,10.69,18.7c2.74,2.04,5.9,3.41,8.74,5.29c1.32,0.87,2.58,1.85,3.59,3.07
				c1.38,1.65,1.69,3.54,2.49,5.47c1.47,3.53,5.36,3.59,8.69,3.55c4.26-0.05,8.51-0.43,12.71-1.13c4.48-0.75,8.89-1.9,13.14-3.48
				c1.74-0.65,3.83-1.26,5.37-2.32c1.17-0.81,1.36-1.94,1.33-3.28c-0.05-1.95-0.54-3.97-0.27-5.92c0.31-2.17,2.48-3.81,3.83-5.4
				c2.66-3.14,3.74-6.71,4.27-10.75c1.22-9.32,0.27-18.74-1.43-27.94c-0.86-4.69-1.85-9.39-3.08-14c-1.19-4.44-3.09-8.35-5.08-12.46
				c-3.7-7.6-6.35-15.71-8.66-23.83c-2.26-7.94-4.12-15.98-5.82-24.06c-0.95-4.51-1.2-9.21-1.85-13.77
				c-0.67-4.69-1.45-9.36-2.49-13.98c-0.96-4.26-2.48-8.42-3.12-12.74c-0.61-4.1-0.7-8.26-1.09-12.38
				c-0.39-4.09-1.37-7.88-2.41-11.84c-1.24-4.73-2.22-9.52-3.2-14.3c-0.99-4.83-1.98-9.67-2.96-14.51c-0.43-2.1-0.83-4.21-1.23-6.31
				c-0.44-2.33-1.57-4.38-2.53-6.53c-1.95-4.37-3.56-9-3.98-13.79c-0.39-4.46,0.05-8.96-0.45-13.42c-0.25-2.24-0.98-4.4-1.04-6.66
				c-0.06-2.2,0.14-4.4,0.05-6.61c-0.09-2.37-0.15-4.72,0.04-7.08c0.17-2.06,0.78-4.22,0.45-6.28c-0.3-1.82-1.33-2.7-2.55-3.94
				c-1.53-1.56-1.22-3.89-2.17-5.77c-0.68-1.34-1.75-2.46-3-3.28c-1.65-1.08-3.33-1.16-5.2-1.45c-15.09-2.37-30.26-5.38-45.61-4.79
				c-4.84,0.19-9.64,0.98-14.49,0.98c-4.86,0-9.69-0.58-14.55-0.5c-9.44,0.16-18.91,1.71-28.21,3.26
				c-8.37,1.39-17.05,2.6-25.07,5.42c-2.83,1-5.66,2.01-8.49,2.98c-1.2,0.41-2.54,0.77-3.32,1.86c-1.13,1.59-0.23,3.26-0.34,5
				c-0.29,4.47-4.79,7.4-4.5,11.94c0.14,2.14,0.45,4.32,0.85,6.42c0.45,2.4,1.08,4.63,0.93,7.1c-0.29,4.74-0.64,9.39-0.02,14.12
				c0.6,4.58,1.74,9.09,2.58,13.64c0.89,4.79,1.52,9.58,1.84,14.44c0.28,4.27,0.53,8.53,1.08,12.77c1.05,8.21,2.69,16.27,4.58,24.32
				c1.11,4.74,1.74,9.65,2.57,14.44c0.84,4.87,1.66,9.74,2.47,14.62c1.58,9.55,3.1,19.11,4.56,28.68c1.5,9.87,3.08,19.77,3.32,29.77
				c0.23,9.44-0.72,18.94,0.87,28.3c1.55,9.15,5.49,17.76,8.08,26.64c2.62,8.97,4.23,18.04,5.92,27.21c0.58,3.14,1.52,6.53,4,8.72
				c1.33,1.18,3,1.68,4.47,2.63c1.79,1.16,2.07,3.23,2.24,5.21c0.04,0.43,0.28,0.86,0.73,0.96c2.94,0.71,6.01,0.4,9,0.17
				c3.32-0.26,6.63-0.58,9.94-0.89c6.28-0.59,12.61-1.17,18.83-2.28c2.06-0.37,4.27-0.94,4.65-3.28c0.2-1.27,0.32-2.24,1.03-3.39
				c0.8-1.31,1.84-2.45,2.88-3.57c1.8-1.96,3.7-3.91,4.82-6.36c1.15-2.54,1.45-5.32,1.67-8.07c0.53-6.61,0.95-13.21,0.7-19.85
				c-0.24-6.5-0.76-13-1.09-19.49c-0.32-6.4-0.66-12.81-1.33-19.18c-0.64-6.07-1.8-11.96-3.29-17.87
				c-1.71-6.79-3.49-13.68-3.15-20.74c0.29-6.18,2.64-12.64,0.38-18.7C421.7,535.52,419.76,536.04,420.21,537.25L420.21,537.25z"/>
		</g>
	</g>
	<g>
		<g>
			<path d="M333.06,392.83c1.95,0.62,3.69-0.56,5.25-1.58c0.83-0.54,1.6-1.06,2.57-1.31c0.93-0.24,1.86-0.42,2.78-0.72
				c1.89-0.62,3.82-1.2,5.81-1.44c1.05-0.13,2.1-0.14,3.16-0.11c0.99,0.03,1.97,0.02,2.92-0.27c0.98-0.3,1.88-0.81,2.81-1.23
				c0.95-0.42,1.93-0.78,2.92-1.1c1.93-0.62,3.9-1.06,5.89-1.43c4.28-0.81,8.56-1.32,12.92-1.51c4.43-0.2,8.87-0.21,13.28-0.61
				c4.28-0.38,8.47-1.35,12.73-1.82c2.14-0.23,4.29-0.31,6.44-0.13c2.17,0.18,4.32,0.5,6.49,0.56c2.23,0.06,4.46-0.05,6.69-0.08
				c2.21-0.02,4.41,0.09,6.61,0.29c4.38,0.41,8.73,1.09,13.09,1.68c4.42,0.6,8.82,1.3,13.2,2.11c1.07,0.2,2.15,0.4,3.22,0.61
				c0.63,0.12,0.9-0.84,0.27-0.96c-8.64-1.69-17.35-2.91-26.08-4.02c-2.18-0.28-4.36-0.51-6.55-0.63c-2.22-0.12-4.44-0.07-6.66-0.02
				c-2.22,0.05-4.42,0.05-6.63-0.17c-2.11-0.21-4.22-0.5-6.35-0.48c-4.26,0.04-8.44,0.97-12.63,1.6c-4.38,0.65-8.82,0.79-13.24,0.93
				c-4.39,0.14-8.8,0.3-13.14,1c-4.02,0.65-8.09,1.34-11.88,2.86c-0.92,0.37-1.79,0.81-2.69,1.21c-1.03,0.46-2.03,0.64-3.15,0.62
				c-2.04-0.03-3.99,0.05-5.99,0.5c-1.93,0.44-3.76,1.18-5.69,1.6c-0.85,0.18-1.7,0.39-2.45,0.84c-0.9,0.54-1.75,1.18-2.67,1.7
				c-0.92,0.52-1.94,0.87-2.99,0.53C332.71,391.67,332.45,392.63,333.06,392.83L333.06,392.83z"/>
		</g>
	</g>
	<g>
		<g>
			<path d="M471.42,386.73c1.55,0.2,3.06,0.57,4.5,1.15c1.45,0.59,2.85,1.32,4.28,1.96c0.58,0.26,1.09-0.6,0.5-0.86
				c-1.51-0.68-2.98-1.45-4.52-2.06c-1.54-0.62-3.13-0.97-4.77-1.19C470.78,385.65,470.79,386.65,471.42,386.73L471.42,386.73z"/>
		</g>
	</g>
	<g>
		<g>
			<path d="M342.55,382.22c-0.2,1.02-0.01,2.09,0.56,2.96c0.18,0.27,0.61,0.02,0.43-0.25c-0.49-0.76-0.69-1.69-0.51-2.58
				C343.09,382.04,342.61,381.9,342.55,382.22L342.55,382.22z"/>
		</g>
	</g>
	<g>
		<g>
			<path d="M370.2,376.82c-0.48,1.34-0.35,2.85,0.35,4.09c0.16,0.28,0.59,0.03,0.43-0.25c-0.63-1.13-0.74-2.49-0.3-3.71
				C370.79,376.65,370.3,376.52,370.2,376.82L370.2,376.82z"/>
		</g>
	</g>
	<g>
		<g>
			<path d="M411.65,374.59c0.44,0.82,0.68,1.73,0.7,2.66c0.01,0.32,0.51,0.32,0.5,0c-0.02-1.02-0.29-2.01-0.77-2.91
				C411.93,374.06,411.5,374.31,411.65,374.59L411.65,374.59z"/>
		</g>
	</g>
	<g>
		<g>
			<path d="M457.58,377.57c0.23,0.71,0.31,1.46,0.24,2.2c-0.01,0.13,0.12,0.25,0.25,0.25c0.15,0,0.24-0.11,0.25-0.25
				c0.07-0.79-0.02-1.58-0.26-2.33C457.96,377.13,457.48,377.26,457.58,377.57L457.58,377.57z"/>
		</g>
	</g>
	<g>
		<g>
			<path d="M360.42,387.98c2,2.15,4.4,3.91,7.06,5.15c0.29,0.14,0.54-0.3,0.25-0.43c-2.63-1.23-4.99-2.95-6.96-5.07
				C360.56,387.39,360.2,387.75,360.42,387.98L360.42,387.98z"/>
		</g>
	</g>
	<g>
		<g>
			<path d="M372.26,395.74c7.92,3.27,16.64,4.5,25.16,3.54c7.82-0.88,15.37-3.64,21.95-7.94c3.64-2.38,6.96-5.22,9.88-8.44
				c0.22-0.24-0.14-0.59-0.35-0.35c-5.14,5.68-11.58,10.16-18.69,13c-7.59,3.03-15.87,4.13-23.99,3.25
				c-4.75-0.52-9.4-1.72-13.81-3.54C372.1,395.13,371.97,395.62,372.26,395.74L372.26,395.74z"/>
		</g>
	</g>
	<g>
		<g>
			<path d="M472.3,420.06c1.35,3.14,0.58,6.83-1.42,9.52c-0.99,1.33-2.3,2.44-3.83,3.1c-1.36,0.59-3.28,0.47-4.36,1.57
				c-1.39,1.4,1.09,2.89,2,3.65c1.91,1.6,3.84,3.16,5.79,4.69c1.86,1.46,3.77,2.85,5.63,4.3c1.8,1.4,3.42,2.96,4.52,4.98
				c1.21,2.22,1.87,4.69,2.6,7.1c0.82,2.73,1.63,5.46,2.43,8.2c0.09,0.31,0.57,0.18,0.48-0.13c-0.7-2.42-1.42-4.84-2.14-7.26
				c-0.65-2.16-1.24-4.35-2.11-6.43c-0.84-2.01-2.01-3.78-3.61-5.27c-1.64-1.53-3.52-2.81-5.3-4.17c-1.99-1.52-3.95-3.07-5.89-4.66
				c-0.96-0.79-1.92-1.58-2.87-2.38c-0.68-0.57-2.12-1.54-0.99-2.4c0.68-0.51,1.57-0.62,2.37-0.78c0.76-0.16,1.51-0.43,2.2-0.79
				c1.37-0.7,2.55-1.75,3.47-2.98c2.15-2.86,2.9-6.75,1.47-10.09C472.61,419.51,472.18,419.76,472.3,420.06L472.3,420.06z"/>
		</g>
	</g>
	<g>
		<g>
			<path d="M424.41,523.99c1.4,4.04,3.01,8.01,4.85,11.88c1.72,3.62,3.54,7.32,6.03,10.49c2.12,2.69,5.23,5.55,8.89,5.44
				c1.88-0.06,3.24-1.17,4.85-1.99c1.69-0.86,3.59-1.28,5.49-1.28c2.13,0.01,4.25,0.55,6.09,1.63c0.52,0.3,0.6,0.97,0.73,1.52
				c0.15,0.6,0.25,1.22,0.31,1.84c0.12,1.26,0.06,2.53-0.17,3.78c-0.06,0.31,0.42,0.45,0.48,0.13c0.36-1.99,0.32-4.03-0.18-5.99
				c-0.1-0.41-0.18-0.98-0.41-1.33c-0.19-0.28-0.66-0.46-0.95-0.62c-0.74-0.4-1.53-0.71-2.34-0.95c-3.44-1-7.14-0.5-10.2,1.34
				c-0.87,0.52-1.72,1.07-2.72,1.3c-0.97,0.22-1.99,0.14-2.94-0.13c-1.94-0.55-3.59-1.79-4.98-3.21c-2.86-2.9-4.77-6.59-6.57-10.2
				c-2.23-4.46-4.15-9.07-5.78-13.78C424.79,523.56,424.3,523.69,424.41,523.99L424.41,523.99z"/>
		</g>
	</g>
	<g>
		<g>
			<path d="M460.52,566.9c-2.06,4.4-4.37,8.69-6.92,12.83c-1.27,2.06-2.63,4.06-3.97,6.07c-0.64,0.96-0.73,1.79-0.58,2.91
				c0.16,1.26,0.32,2.53,0.48,3.79c0.37,2.93,0.74,5.87,1.11,8.8c0.04,0.31,0.54,0.32,0.5,0c-0.32-2.53-0.64-5.05-0.96-7.58
				c-0.15-1.22-0.31-2.44-0.46-3.67c-0.15-1.21-0.53-2.54,0.13-3.66c0.59-1,1.31-1.93,1.95-2.9c0.66-1,1.3-2,1.94-3.02
				c1.24-2,2.43-4.03,3.56-6.1c1.3-2.37,2.52-4.78,3.66-7.23C461.09,566.86,460.66,566.61,460.52,566.9L460.52,566.9z"/>
		</g>
	</g>
	<g>
		<g>
			<path d="M522.02,669.87c-5.06-3.79-12.36-6.16-14.6-12.68c-0.06,0.1-0.12,0.21-0.17,0.31c3.68-1.41,7.44,1.45,11.17,0.44
				c1.97-0.53,3.34-2.13,4.58-3.65c1.47-1.82,2.84-3.71,4.11-5.68c0.17-0.27-0.26-0.52-0.43-0.25c-1.29,1.99-2.67,3.92-4.18,5.76
				c-1.26,1.54-2.67,3.11-4.74,3.46c-3.58,0.6-7.11-1.91-10.65-0.56c-0.12,0.05-0.22,0.17-0.17,0.31c2.3,6.69,9.64,9.09,14.83,12.98
				C522.03,670.49,522.28,670.06,522.02,669.87L522.02,669.87z"/>
		</g>
	</g>
	<g>
		<g>
			<path d="M527.26,645.89c0.55-3.52,0.94-7.07,1.15-10.62c0.02-0.32-0.48-0.32-0.5,0c-0.21,3.51-0.59,7.01-1.14,10.49
				C526.73,646.07,527.21,646.2,527.26,645.89L527.26,645.89z"/>
		</g>
	</g>
	<g>
		<g>
			<path d="M508.22,589.57c-3.41,0.43-6.59,1.74-9.51,3.51c-1.51,0.91-2.96,1.93-4.36,3.01c-1.36,1.04-2.83,2.09-4.06,3.29
				c-2.07,2.02,4.65,3.89,5.82,4.22c1.56,0.43,3.15,0.85,4.57,1.65c1.6,0.9,2.97,2.19,4.64,2.97c1.37,0.64,3.07,0.95,4.51,0.35
				c1.69-0.7,2.3-2.46,2.71-4.11c0.08-0.31-0.4-0.45-0.48-0.13c-0.37,1.45-0.85,3.06-2.32,3.74c-1.37,0.63-3.04,0.28-4.33-0.36
				c-1.44-0.71-2.65-1.78-4.01-2.61c-1.18-0.73-2.47-1.21-3.79-1.6c-1.32-0.39-2.67-0.7-3.97-1.18c-0.61-0.23-1.21-0.49-1.77-0.82
				c-0.35-0.21-0.69-0.43-1-0.69c-0.08-0.07-0.22-0.16-0.28-0.24c-0.42-0.56,0.02-0.81,0.34-1.08c2.38-2.01,4.84-3.97,7.48-5.63
				c2.99-1.87,6.27-3.33,9.8-3.77C508.53,590.03,508.54,589.52,508.22,589.57L508.22,589.57z"/>
		</g>
	</g>
	<g>
		<g>
			<path d="M370.24,659.71c7.37,5.48,17.14,3.41,25.65,4.04c2.75,0.2,5.48,0.7,8.02,1.79c-0.02-0.13-0.03-0.26-0.05-0.39
				c-1.61,1.5-3.52,2.65-5.61,3.34c-2.13,0.71-4.27,0.78-6.5,0.77c-2.01-0.01-4.14,0.07-5.85,1.26c-1.38,0.96-2.36,2.45-2.11,4.18
				c0.04,0.32,0.53,0.18,0.48-0.13c-0.29-2.05,1.52-3.72,3.31-4.34c2.07-0.71,4.34-0.39,6.49-0.47c3.77-0.15,7.38-1.68,10.14-4.25
				c0.11-0.1,0.1-0.33-0.05-0.39c-8.61-3.66-18.17-0.7-27.06-2.84c-2.38-0.57-4.64-1.52-6.61-2.99
				C370.24,659.08,369.99,659.52,370.24,659.71L370.24,659.71z"/>
		</g>
	</g>
	<g>
		<g>
			<path d="M366.41,635.94c-2.71-6.11-3.99-12.84-3.68-19.53c0.03-0.69,0.06-1.42,0.37-2.06c0.41-0.85,1.27-1.07,2.14-1.13
				c1.28-0.1,2.49-0.2,3.72-0.61c2.43-0.81,4.56-2.38,6.25-4.29c3.98-4.51,5.15-10.57,5.72-16.38c0.16-1.57,0.35-3.16,0.38-4.74
				c0.02-1.29-0.18-2.6-1.07-3.59c-0.88-0.98-2.19-1.46-3.41-1.86c-1.62-0.53-3.29-0.91-4.98-1.15c-1.76-0.25-3.52-0.25-5.29-0.38
				c-1.77-0.13-3.52-0.51-4.94-1.64c-2.34-1.87-3.39-4.92-4.3-7.67c-0.1-0.3-0.58-0.17-0.48,0.13c0.79,2.38,1.66,4.85,3.3,6.79
				c0.81,0.95,1.81,1.72,2.97,2.19c1.37,0.56,2.86,0.68,4.33,0.75c3.41,0.16,6.73,0.52,9.95,1.7c1.5,0.55,2.88,1.39,3.27,3.04
				c0.36,1.52,0.05,3.2-0.08,4.73c-0.53,6.14-1.43,12.74-5.61,17.57c-1.75,2.02-4,3.68-6.59,4.43c-0.65,0.19-1.32,0.32-1.99,0.39
				c-0.67,0.06-1.35,0.04-2.01,0.18c-1.26,0.27-1.89,1.24-2.07,2.46c-0.25,1.67-0.17,3.45-0.09,5.13c0.08,1.78,0.28,3.55,0.58,5.31
				c0.61,3.61,1.69,7.12,3.17,10.46C366.11,636.48,366.54,636.23,366.41,635.94L366.41,635.94z"/>
		</g>
	</g>
	<g>
		<g>
			<path d="M420.78,615.7c-5.39-2.12-10.66-4.53-15.8-7.21c-0.2-0.1-0.42,0.07-0.37,0.28c0.63,2.69-0.68,5.23-1.82,7.59
				c-0.53,1.09-1.04,2.2-1.35,3.37c-0.21,0.8-0.26,1.61,0.65,1.94c0.54,0.2,1.16,0.24,1.73,0.33c0.67,0.11,1.34,0.2,2.02,0.29
				c1.34,0.18,2.69,0.32,4.04,0.43c1.31,0.11,2.67,0.27,3.99,0.19c1.27-0.07,2.43-0.8,3.7-0.36c1.34,0.46,2.44,1.62,3.43,2.6
				c1.01,0.99,1.95,2.05,2.82,3.16c0.2,0.25,0.55-0.1,0.35-0.35c-1.45-1.84-3.09-3.68-4.98-5.07c-0.79-0.58-1.73-1.05-2.74-0.99
				c-0.53,0.03-1.03,0.21-1.54,0.35c-0.69,0.18-1.38,0.2-2.09,0.17c-2.72-0.11-5.45-0.38-8.14-0.78c-0.65-0.1-1.3-0.19-1.95-0.31
				c-0.34-0.06-0.79-0.13-0.93-0.52c-0.11-0.34,0.08-0.82,0.18-1.15c0.36-1.24,0.93-2.39,1.49-3.54c1.13-2.32,2.24-4.84,1.63-7.47
				c-0.12,0.09-0.24,0.19-0.37,0.28c5.17,2.7,10.49,5.12,15.92,7.26C420.95,616.3,421.08,615.82,420.78,615.7L420.78,615.7z"/>
		</g>
	</g>
	<g>
		<g>
			<path d="M404.09,553.31c1.97-0.53,3.9-1.2,5.77-2.02c0.29-0.13,0.04-0.56-0.25-0.43c-1.83,0.8-3.72,1.46-5.65,1.97
				C403.65,552.91,403.78,553.39,404.09,553.31L404.09,553.31z"/>
		</g>
	</g>
	<g>
		<g>
			<path d="M404.6,466.64c3.86-0.21,7.61-1.35,10.94-3.31c0.28-0.16,0.03-0.6-0.25-0.43c-3.25,1.92-6.92,3.03-10.69,3.24
				C404.28,466.16,404.28,466.66,404.6,466.64L404.6,466.64z"/>
		</g>
	</g>
	<g>
		<g>
			<path d="M505.87,546.48c-1.28,0.66-2.46,1.52-3.77,2.1c-0.62,0.27-1.3,0.49-1.99,0.46c-0.81-0.04-1.33-0.47-2-0.83
				c-1.15-0.62-2.37,0.43-3.31,1.03c-1.31,0.82-2.55,1.74-3.72,2.74c-0.25,0.21,0.11,0.56,0.35,0.35c1.2-1.02,2.47-1.95,3.82-2.79
				c0.56-0.35,1.43-1.07,2.11-1.07c0.65,0.01,1.29,0.72,1.91,0.92c2.43,0.76,4.86-1.44,6.87-2.48
				C506.41,546.77,506.16,546.33,505.87,546.48L505.87,546.48z"/>
		</g>
	</g>
	<path class="st8" d="M455.86,420.39c-1.01,0.84-1.99,1.73-2.94,2.67c-0.52,0.52-1.28,0.61-1.71,0.18
		c-5.98-6.01-12.16-13.67-17.99-23.09c-0.42-0.68-0.27-1.85,0.36-2.59c1.13-1.33,2.31-2.61,3.53-3.84c0.68-0.68,1.55-0.62,1.94,0.11
		c5.37,10.03,11.25,18.31,17.09,24.9C456.54,419.19,456.42,419.92,455.86,420.39z"/>
	<g>
		<path class="st9" d="M339.4,426.83c-0.33,0.06-0.71-0.05-1.05-0.34c-0.72-0.62-1.47-1.21-2.22-1.75l0,0
			c-0.33-0.24-0.59-0.61-0.69-1.03c-0.1-0.37-0.07-0.75,0.07-1.06c2.85-6.44,5.15-13.81,6.85-21.92c0.09-0.44,0.33-0.77,0.66-0.9
			c0.37-0.15,0.81-0.03,1.2,0.32c0.96,0.84,1.92,1.74,2.84,2.68c0.66,0.67,1.01,1.85,0.79,2.68c-2.07,7.75-4.69,14.76-7.77,20.81
			C339.92,426.6,339.68,426.77,339.4,426.83z M343.38,400.88c-0.01,0-0.02,0.01-0.03,0.01c-0.07,0.03-0.11,0.09-0.13,0.2
			c-1.71,8.19-4.04,15.65-6.92,22.15c-0.03,0.06-0.03,0.13-0.01,0.2c0.03,0.12,0.12,0.24,0.23,0.33l0,0
			c0.78,0.56,1.55,1.17,2.29,1.81c0.21,0.18,0.43,0.18,0.49,0.05c3.05-5.98,5.64-12.91,7.69-20.59c0.09-0.34-0.09-1.01-0.46-1.39
			c-0.9-0.91-1.84-1.8-2.78-2.62C343.62,400.92,343.48,400.86,343.38,400.88z"/>
	</g>
</g>
</svg>
