<?xml version="1.0" encoding="utf-8"?>
<!-- Generator: Adobe Illustrator 28.0.0, SVG Export Plug-In . SVG Version: 6.00 Build 0)  -->
<svg version="1.1" id="Layer_1" xmlns="http://www.w3.org/2000/svg" xmlns:xlink="http://www.w3.org/1999/xlink" x="0px" y="0px"
	 viewBox="0 0 800 800" style="enable-background:new 0 0 800 800;" xml:space="preserve">
<style type="text/css">
	.st0{fill:#EF9448;}
	.st1{fill:#F2F1EB;}
	.st2{fill:#FFFFFF;}
	.st3{fill:url(#SVGID_1_);}
	.st4{fill:url(#SVGID_00000014634674372622995320000004598810905144017025_);}
	.st5{fill:#FFA96E;}
	.st6{fill:url(#SVGID_00000133515513859903187770000006364251854550973851_);}
	.st7{fill:url(#SVGID_00000031175244012452009320000002565741298617646753_);}
	.st8{fill:url(#SVGID_00000072238140700805050760000015121611963460861581_);}
	.st9{fill:url(#SVGID_00000070111610961416360920000017801341848666795668_);}
	.st10{fill:url(#SVGID_00000158729743365949528040000008707148613026629512_);}
	.st11{fill:url(#SVGID_00000045616490754587267340000014782544194221601424_);}
	.st12{fill:url(#SVGID_00000112633697528065757730000002959259445744740239_);}
	.st13{fill:url(#SVGID_00000099651715817369694080000013304332574737029028_);}
	.st14{fill:url(#SVGID_00000109749912210561117100000004196859680970779038_);}
	.st15{fill:url(#SVGID_00000101098736866618964130000007407570543731596191_);}
	.st16{fill:url(#SVGID_00000147218663111318352630000008443240489554918074_);}
</style>
<g id="_x33_-SHOES__x5B_SHIBA_x5D__with_SOCKS_V1_x2B_">
	<path class="st0" d="M447.64,736.3c-0.01-0.16-0.03-0.32-0.04-0.48c-0.31-3.96-1.11-7.94-1.84-11.86c-0.27-1.43-0.6-2.84-0.93-4.25
		c-0.89-3.79-1.78-7.57-2.66-11.36c-0.21-0.9-0.43-1.84-0.95-2.63c-0.5-0.75-1.27-1.41-1.93-2.02c-1.16-1.09-2.39-2.13-3.81-2.86
		c-0.93-0.48-1.92-0.84-2.82-1.37c-0.5-0.3-0.98-0.66-1.36-1.11c-0.37-0.44-0.5-0.96-0.8-1.41c-0.64-0.94-1.8-1.68-2.7-2.36
		c-1.97-1.51-4.16-2.8-6.58-3.35c-0.56-0.13-1.14-0.21-1.7-0.12c-0.56,0.1-1.11,0.4-1.39,0.9c-0.17,0.31-0.23,0.66-0.29,1.01
		c-0.16,0.97-0.07,1.81-0.08,2.77c-0.02,1.19-0.17,2.18,0.34,3.32c0.1,0.22,0.22,0.44,0.25,0.68c0.05,0.3-0.03,0.62-0.15,0.9
		c-0.57,1.44-1.9,2.44-3.3,3.1c-0.92,0.44-1.89,0.77-2.85,1.1c-3.31,1.13-6.62,2.25-10.03,3.01c-6.45,1.43-13.2,1.48-19.67,0.16
		c-0.27-0.05-0.55-0.12-0.75-0.31c-0.26-0.24-0.32-0.61-0.48-0.92c-0.45-0.87-1.63-1.2-1.98-2.11c-0.13-0.34-0.13-0.71-0.13-1.07
		c-0.02-1.11-0.33-2.26-0.28-3.35c0.03-0.75,0.08-1.49-0.88-1.74c-0.68-0.18-1.4,0.08-2.06,0.33c-1.44,0.55-2.88,1.1-4.2,1.89
		c-1.93,1.15-3.56,2.79-4.69,4.73c-0.3,0.51-0.57,1.04-0.96,1.48c-0.66,0.72-1.6,1.11-2.52,1.43c-1.34,0.48-2.71,0.87-4.08,1.27
		c-1.57,0.46-3.14,0.91-4.74,1.28c-2.94,0.67-5.96,1.02-8.97,1.04c-2.95,0.02-5.82-0.5-8.76-0.05c-1.37,0.21-2.71,0.62-4.09,0.8
		s-2.84,0.14-4.07-0.51c-0.66-0.35-1.22-0.85-1.77-1.34c-3.25-2.88-6.64-5.6-10.02-8.33c-0.45-0.36-0.91-0.73-1.44-0.93
		c-1.41-0.53-3.36-0.04-4.8,0.25c-1.78,0.36-3.65,1.06-4.65,2.58c-0.71,1.08-0.88,2.42-0.84,3.71s0.28,2.56,0.32,3.85
		c0.09,2.82-0.66,5.58-0.63,8.4c0.01,1.23-0.09,2.39,0.09,3.65c0.21,1.45,0.53,2.88,0.67,4.34c0.05,0.5,0.07,1-0.03,1.49
		c-0.08,0.39-0.24,0.76-0.39,1.12c-0.31,0.73-0.62,1.46-1.06,2.11c-0.32,0.48-0.71,0.92-1.08,1.38c-0.42,0.53-0.81,1.1-1.19,1.66
		c-1.18,1.74-2.62,3.49-3.4,5.44c-1.06,2.64-1.7,5.1-1.76,7.97c0,0.13-0.01,0.26-0.01,0.4c-0.01,0.8-0.01,1.59,0,2.39
		c0.08,4.43,0.64,8.72,1.93,12.94c0.01,0.04,0.02,0.08,0.01,0.12c-0.02,0.05-0.06,0.07-0.11,0.09c-1.28,0.66-2.36,1.84-3.39,2.82
		c-1.07,1.02-2.05,2.24-2.33,3.73c-0.15,0.82-0.08,1.66,0.03,2.48c0.19,1.44,0.56,2.94,1.57,3.98c0.8,0.83,1.92,1.26,3.01,1.62
		c2.91,0.95,6,1.51,9.03,1.12c1.7-0.22,3.66-0.91,5.38-0.65c0.85,0.13,1.75,0.72,2.55,1.04c0.9,0.36,1.82,0.7,2.74,1.02
		c3.69,1.26,7.5,2.16,11.35,2.75c7.78,1.19,15.71,1.16,23.53,0.49c0.39-0.03,0.78-0.07,1.17-0.11c1.96-0.18,3.99-0.28,5.93-0.62
		c1.97-0.35,3.93-0.95,5.88-1.38c4.02-0.89,8.06-1.67,12.11-2.35c0.97-0.16,2-0.38,2.99-0.33c0.96,0.05,1.9,0.48,2.79,0.81
		c5.28,1.96,11.04,2.45,16.65,1.86c1.29-0.13,2.58-0.33,3.78-0.82c1.19-0.5,2.29-1.32,2.89-2.47c0.75-1.43,0.64-3.14,0.49-4.75
		c-0.02-0.2-0.03-0.42,0.08-0.58c0.13-0.19,0.39-0.25,0.62-0.29c1.19-0.2,2.37-0.4,3.56-0.59c1.06-0.17,2.14-0.24,3.18-0.5
		c3.63-0.9,7.23-1.96,10.76-3.18c4.03-1.39,8.04-3.01,11.43-5.58c1.09-0.83,2.1-1.75,3.24-2.51c1.08-0.72,2.16-1.47,3.02-2.45
		c0.28-0.32,0.61-0.4,0.95-0.62c0.44-0.29,0.83-0.74,1.18-1.12c0.73-0.79,1.35-1.69,1.79-2.68c0.33-0.74,0.55-1.52,0.78-2.3
		c0.2-0.65,0.51-1.18,0.74-1.8c0.53-1.41,0.44-3.12,0.43-4.6c-0.01-1.89-0.02-3.79-0.24-5.67c-0.08-0.7-0.2-1.39-0.29-2.09
		C447.81,738.24,447.72,737.27,447.64,736.3z"/>
	<path class="st0" d="M477.61,789.43c1.39,0.7,2.86,1.19,4.2,1.95c1.54,0.87,3.54,1.22,5.24,1.65c2.05,0.51,4.07,1.14,6.14,1.56
		c19.11,3.84,39.79,2.93,56.96-6.28c0.66-0.35,1.32-0.72,2.06-0.84c0.78-0.13,1.58,0.05,2.35,0.21c2.82,0.62,5.71,1.22,8.58,0.94
		c2.43-0.23,5.9-1.34,7.12-3.69c1.3-2.49,1.09-5.45,0.12-8c-0.27-0.71-0.58-1.39-0.93-2.06c-1.45-2.79-3.55-5.24-5.97-7.27
		c-1.09-0.92-2.96-2.29-2.92-3.91c0.01-0.32,0.16-0.61,0.2-0.93c0.06-0.49-0.01-1.03-0.04-1.52c-0.05-0.98-0.15-1.96-0.25-2.94
		c-0.15-1.5-0.3-3.01-0.45-4.51c-0.28-2.76-0.4-5.47-1.03-8.19c-0.31-1.3-0.68-2.6-0.84-3.93c-0.12-1.01-0.29-2.24-0.08-3.24
		c0.11-0.53,0.34-1.04,0.54-1.54c1.15-2.91,1.36-5.87,1.8-8.91c0.46-3.26,0.76-6.54,0.94-9.82c0.06-1.09,0.11-2.18-0.05-3.26
		c-0.1-0.69-0.29-1.36-0.44-2.04c-0.32-1.45-0.47-2.95-0.94-4.36c-0.47-1.41-1.33-2.78-2.67-3.42c-1.18-0.57-2.6-0.51-3.85-0.1
		c-1.51,0.48-2.96,1.2-4.42,1.81c-0.27,0.11-0.56,0.23-0.83,0.15c-0.32-0.09-0.51-0.4-0.72-0.65c-0.91-1.07-2.61-1.33-3.25-2.58
		c-0.19-0.37-0.26-0.78-0.3-1.19c-0.38-3.54-0.24-7.3-3.02-9.96c-1.22-1.17-2.72-2-4.25-2.71c-3.46-1.61-7.2-2.66-11.01-2.78
		c-0.19-0.01-0.41,0-0.55,0.12c-0.15,0.12-0.19,0.33-0.22,0.52c-0.51,3.41-0.28,6.92,0.66,10.23c0.29,1.01,0.62,2.01,0.89,3.03
		c0.1,0.39,0.2,0.78,0.17,1.18c-0.06,0.66-0.49,1.25-1.03,1.64c-0.54,0.39-1.17,0.62-1.8,0.83c-9.88,3.34-20.58,3.95-30.89,2.41
		c-0.74-0.11-1.55-0.27-2.01-0.87c-0.23-0.29-0.34-0.66-0.4-1.02c-0.14-0.73,0.14-1.32,0.1-2.03c-0.05-0.87-0.15-1.74-0.17-2.62
		c-0.04-1.74-0.01-3.51-0.37-5.22c-0.39-1.85-1.24-3.63-1.29-5.52c-0.01-0.23,0-0.48-0.13-0.67c-0.25-0.39-0.83-0.34-1.29-0.24
		c-2.48,0.55-4.8,1.48-6.94,2.87c-1.39,0.91-2.7,1.98-3.69,3.31c-1.13,1.52-1.87,3.29-2.56,5.04c-0.36,0.91-0.66,1.57-1.24,2.31
		c-0.53,0.69-0.95,1.33-1.05,2.22c-0.12,1.08,0.08,2.58-1.22,3.06c-0.95,0.35-2.09-0.39-3.11-0.19c-0.75,0.15-1.41,0.6-1.96,1.13
		c-1.75,1.69-2.5,4.17-2.91,6.57c-0.69,4.09-0.56,8.28,0.03,12.37c0.3,2.07,0.71,4.12,1.19,6.15c0.24,1.02,0.5,2.03,0.77,3.05
		c0.25,0.94,0.4,2.13,0.84,3c0.37,0.74,0.66,1.05,0.5,1.96c-0.41,2.25-0.98,4.47-1.3,6.73c-0.19,1.35-0.29,2.72-0.39,4.08
		c-0.34,4.57-0.68,9.17-0.38,13.74c0.07,1.1,0.14,2.32-0.56,3.17c-0.48,0.57-1.22,0.85-1.88,1.19c-1.16,0.6-1.83,1.55-2.81,2.34
		c-0.87,0.69-1.65,1.25-2.33,2.18c-1.46,1.98-2.27,4.47-2.11,6.93c0.06,1,0.28,2.01,0.76,2.89c0.86,1.56,2.5,2.56,4.21,3.07
		c1.41,0.42,2.89,0.56,4.36,0.66c0.53,0.04,0.97-0.07,1.49-0.1c0.68-0.03,1.36,0.09,2.04,0.07c0.54-0.02,1-0.23,1.53-0.27
		c1.52-0.1,3.07-0.04,4.6-0.06c0.96-0.01,1.94-0.02,2.84,0.3c0.49,0.18,0.95,0.44,1.41,0.69
		C477.44,789.34,477.53,789.39,477.61,789.43z"/>
	<path class="st1" d="M526.84,735.42c-0.44-0.75-1.66-0.53-2.36-0.32c-0.72,0.21-1.41,0.6-1.95,1.12c-0.47,0.22-0.76,0.61-1.14,0.94
		c-0.4,0.34-0.75,0.64-1.01,1.11c-0.14,0.26-0.25,0.58-0.13,0.85c0.05,0.1,0.12,0.19,0.2,0.27c0.68,0.64,1.75,0.73,2.65,0.46
		c0.61-0.19,1.14-0.55,1.66-0.92c0.57-0.4,1.09-0.79,1.58-1.29c0.18-0.19,0.37-0.39,0.48-0.62c0.09-0.19,0.14-0.41,0.17-0.62
		c0.03-0.22,0.04-0.45-0.02-0.67C526.93,735.6,526.89,735.5,526.84,735.42z"/>
	<path class="st1" d="M495.21,739.51c-0.04-0.21-0.12-0.39-0.25-0.55c-0.23-0.46-0.56-0.87-0.92-1.23c-0.56-0.55-1.2-1.07-1.88-1.46
		c-0.73-0.43-1.63-0.77-2.48-0.53c-0.87,0.24-1.42,1.11-0.87,1.92c0.13,0.2,0.28,0.39,0.43,0.57c0.1,0.14,0.22,0.28,0.32,0.4
		c0.54,0.61,1.23,1.14,1.93,1.55c0.75,0.44,1.64,0.87,2.53,0.72c0.23-0.04,0.44-0.13,0.62-0.27c0.13-0.02,0.25-0.05,0.37-0.14
		C495.32,740.24,495.39,739.83,495.21,739.51z"/>
	<path class="st1" d="M556.06,779.27c-0.31-0.12-0.67-0.18-0.91-0.24c-0.53-0.14-0.96-0.52-1.29-0.95
		c-1.02-1.31-1.24-3.08-1.07-4.73c0.34-3.37,1.82-6.62,1.87-10.02c0.01-0.63-0.05-1.26-0.13-1.89c-0.1-0.76-0.22-1.53-0.55-2.22
		c-0.42-0.87-1.13-1.56-1.89-2.15c-1.69-1.32-3.87-2.07-6.02-1.89c-1.39,0.12-3,0.21-4.33,0.67c-1.2,0.42-2.42,1.03-3.59,1.56
		c-0.85,0.39-1.68,0.83-2.52,1.25c-1.92,0.95-3.89,1.92-6.02,2.18c-0.79,0.1-1.58,0.09-2.38,0.09c-0.61,0-1.23-0.01-1.83-0.13
		c-1.12-0.24-2.11-0.88-2.99-1.6c-1.16-0.94-2.21-2.02-3.34-3.01c-1.68-1.48-3.66-3.33-5.96-3.69c-1.44-0.23-2.9-0.16-4.34-0.24
		c-1.59-0.09-3.29,0.08-4.86,0.33c-1.89,0.29-4.01,0.94-5.64,1.93c-1.73,1.04-2.99,3.24-4.2,4.8c-0.28,0.36-0.58,0.74-0.99,0.93
		c-0.45,0.21-0.97,0.17-1.46,0.27c-0.49,0.1-0.93,0.35-1.39,0.54c-0.95,0.38-1.99,0.5-3.02,0.51c-1.31,0-2.8-0.35-4.07-0.67
		c-1.34-0.34-2.79-0.8-3.96-1.56c-1.19-0.78-2.58-1.06-4-1.21c-0.81-0.09-1.63-0.12-2.42,0.03c-1.74,0.33-3.23,1.59-4.09,3.14
		c-1.12,2.02-1.03,4.03-0.9,6.23c0.08,1.35,0.81,2.56,1.36,3.79c0.58,1.3,0.98,2.7,0.99,4.13c0.02,1.42-0.37,2.88-1.23,4.01
		c-0.29,0.39-0.65,0.79-0.62,1.27c0.01,0.21,0.1,0.42,0.21,0.6c0.61,1.09,1.69,1.77,2.65,2.52c1.01,0.79,1.65,1.82,2.66,2.63
		c2.21,1.78,4.73,3.14,7.34,4.24c6.05,2.54,12.59,4.12,19.06,5.08c6.83,1.01,13.76,1.27,20.64,0.74c6.69-0.52,13.49-1.64,19.84-3.84
		c6.54-2.27,12.59-6.13,15.86-12.42C556.81,779.71,556.49,779.44,556.06,779.27z"/>
	<path class="st1" d="M552.62,710.18c-0.22-0.08-0.41-0.02-0.55,0.1c-1.69-0.11-3.6,1.42-4.82,2.32c-2.54,1.87-5.02,3.83-7.39,5.92
		c-0.23,0.2-0.18,0.47-0.02,0.64c0.01,0.11,0.05,0.21,0.16,0.3c1.8,1.53,3.6,3.05,5.33,4.66c0.85,0.8,1.7,1.6,2.53,2.41
		c0.41,0.4,0.81,0.8,1.2,1.2c0.34,0.34,0.7,0.83,1.18,0.94c0.25,0.36,0.91,0.49,1.12,0c1.41-3.32,2.17-6.79,2.71-10.35
		C554.45,715.86,555.81,711.4,552.62,710.18z"/>
	<path class="st1" d="M483.37,720.95c-0.47-0.95-1.48-1.72-2.26-2.32c-1.31-1.01-2.74-1.84-4.08-2.8c-1.31-0.95-2.4-2.31-3.92-2.94
		c-1.16-0.48-2.66-0.42-3.56,0.54c-1.06,1.14-1.12,3.03-0.95,4.48c0.24,2.02,0.8,4.02,1.32,5.99c0.66,2.52,1.34,5.03,2.27,7.46
		c0.02,0.04,0.04,0.09,0.08,0.12c0.08,0.05,0.18,0,0.26-0.05c0.51-0.37,0.91-0.86,1.37-1.28c0.48-0.44,1.06-0.81,1.59-1.17
		c0.98-0.67,2-1.28,2.98-1.95c0.76-0.45,1.51-0.92,2.22-1.47c0.94-0.72,2.5-1.74,2.86-3c0.25-0.03,0.48-0.22,0.48-0.51
		C484.04,721.59,483.74,721.2,483.37,720.95z"/>
	<path class="st1" d="M462.35,776.32c0-0.06-0.02-0.12-0.03-0.18l0,0l0,0c-0.07-0.83-0.24-1.65-0.54-2.43
		c-0.29-0.78-0.71-1.58-1.57-1.82c-0.01,0-0.02,0-0.03,0c-0.69-0.32-1.33,0.2-1.79,0.7c-0.53,0.57-1.01,1.2-1.46,1.83
		c-0.65,0.89-1.21,1.84-1.71,2.82c-0.06,0.08-0.12,0.14-0.17,0.22c-0.14,0.24-0.27,0.53-0.36,0.82v0.01
		c-0.1,0.24-0.15,0.48-0.15,0.74c-0.01,0.04-0.02,0.09-0.03,0.13c-0.05,0.61,0.37,1.01,0.94,1.12c0.63,0.12,1.29,0.15,1.92,0.12
		c1.22-0.06,2.53-0.34,3.58-0.97c0.48-0.29,0.91-0.69,1.14-1.21c0.22-0.49,0.24-1.01,0.17-1.53
		C462.31,776.58,462.36,776.47,462.35,776.32z"/>
	<path class="st1" d="M570.23,778.37c-0.07-0.12-0.19-0.21-0.32-0.25c-0.01,0-0.01,0-0.02,0c-0.04-0.55-0.22-1.14-0.37-1.63
		c-0.23-0.78-0.54-1.5-0.9-2.22c-0.09-0.19-0.25-0.27-0.42-0.29c-0.36-0.89-0.77-1.75-1.32-2.53c-0.35-0.5-0.75-1.02-1.24-1.32
		c-0.01-0.12-0.05-0.25-0.14-0.33s-0.19-0.11-0.31-0.13c-0.15-0.11-0.34-0.15-0.51-0.05c-0.17,0.09-0.31,0.22-0.46,0.34
		c-0.04,0.02-0.07,0.04-0.11,0.06c-0.04,0.03-0.08,0.05-0.11,0.08c-0.02,0.02-0.05,0.04-0.07,0.06c-0.59,0.31-1.02,0.8-1.32,1.38
		c-1.01,0.64-1.43,1.93-1.53,3.12c-0.14,1.63,0.54,3.16,1.9,4.08c1.11,0.75,2.45,0.99,3.78,1.01c0.8,0.14,2.07,0.2,2.72-0.38
		c0.07-0.01,0.15-0.02,0.22-0.04c0.08-0.03,0.17-0.06,0.24-0.1s0.14-0.11,0.19-0.17c0.07-0.08,0.13-0.15,0.16-0.26
		C570.32,778.65,570.3,778.49,570.23,778.37z"/>
	<path class="st1" d="M448.27,744.37c-0.03-0.62,0.05-1.58-0.03-2.41c-0.04-0.44-0.13-0.85-0.31-1.15
		c-0.88-1.49-4.62-0.36-5.94-0.03c-4.57,1.17-8.98,3.7-12.23,7.13c-4.45,4.71-6.79,11.01-12.3,14.68
		c-3.12,2.08-6.73,3.36-10.43,3.92c-1.81,0.28-4.06,1.18-3.58,3.44c-0.29-0.35-0.62-0.67-0.99-0.91c-0.1-0.07-0.21-0.1-0.31-0.15
		c0.46-0.32,0.35-1.24-0.36-1.23c-1.61,0.03-3.2,0.4-4.65,1.1c-0.71,0.33-1.36,0.76-1.98,1.24c-0.27,0.21-0.5,0.45-0.72,0.71
		c-0.13,0.1-0.24,0.21-0.34,0.31c-0.45,0.48-0.76,1.07-0.92,1.71c-0.19,0.72-0.18,1.47-0.07,2.2c0.11,0.69,0.33,1.63,0.9,2.09
		c0.13,0.1,0.41,0.06,0.38-0.16c0-0.01,0-0.02-0.01-0.03c0.37,0.48,0.81,0.92,1.29,1.29c1.44,1.11,3.22,1.83,4.98,2.23
		c0.89,0.2,1.8,0.33,2.72,0.37c0.91,0.05,2.05,0.12,2.89-0.26c0.5-0.23,0.42-1.07-0.08-1.26c0.35-1.53,0.17-3.05-0.5-4.48
		c-0.03-0.06-0.04-0.12-0.07-0.18c-0.04-0.09-0.1-0.15-0.17-0.21c-0.08-0.29-0.15-0.58-0.24-0.86c-0.02-0.05-0.04-0.11-0.06-0.17
		c0.5,0.77,1.21,1.32,2.15,1.2c1.01-0.12,1.98-0.59,3-0.74c1.17-0.17,2.35-0.2,3.53-0.3c2.28-0.19,4.5-0.71,6.69-1.35
		c2.18-0.63,4.37-1.3,6.49-2.12c4.18-1.61,7.89-4.03,11.57-6.54c3.36-2.29,6.75-4.95,8.48-8.74c0.84-1.83,1.16-3.78,1.22-5.78
		C448.35,747.42,448.34,745.9,448.27,744.37z"/>
	<path class="st1" d="M296.52,768.07c-0.15-0.04-0.29-0.02-0.43,0.03c-0.31-0.07-0.65,0.02-0.93,0.26c-0.36,0.31-0.56,0.73-0.58,1.2
		l0,0c-0.01,0.02-0.03,0.04-0.04,0.06c-0.06,0.1-0.11,0.21-0.16,0.31c-0.12,0.12-0.24,0.25-0.34,0.37
		c-0.42,0.49-0.86,1.09-1.01,1.74c-0.09,0.16-0.15,0.34-0.19,0.53c-0.14,0.06-0.25,0.17-0.27,0.35c-0.04,0.45,0.27,0.84,0.68,0.99
		c0.25,0.1,0.52,0.1,0.77,0.04c0.53-0.1,1.05-0.5,1.37-0.87c0.53-0.63,0.93-1.35,1.18-2.13l0,0c0.03-0.03,0.07-0.05,0.1-0.07
		c0.07-0.08,0.12-0.17,0.17-0.26c0.1-0.18,0.16-0.38,0.21-0.58c0.06-0.2,0.1-0.41,0.12-0.62c0.02-0.15,0.04-0.31,0.03-0.46
		C297.18,768.57,296.91,768.17,296.52,768.07z"/>
	<path class="st1" d="M340.36,729.82v0.02c-0.02,0-0.03,0-0.05,0c-0.09,0-0.19,0.01-0.29,0.02c-0.23-0.07-0.47-0.11-0.71-0.12
		c-1.1-0.06-2.28,0.22-3.29,0.62c-0.48,0.19-0.95,0.42-1.4,0.68c-0.01,0-0.02-0.01-0.03-0.01c-0.7-0.07-1.46,0.34-1.47,1.13
		c-0.01,0.41,0.24,0.82,0.54,1.09c0.37,0.35,0.83,0.43,1.32,0.48c0.18,0.02,0.36,0.02,0.54,0.02c0.38,0.07,0.79,0.07,1.1,0.05
		c0.72-0.05,1.45-0.14,2.16-0.29c0.63-0.13,1.46-0.39,2.1-0.83c0.24-0.11,0.48-0.24,0.7-0.39c0.38-0.26,0.87-0.61,0.85-1.13
		C342.43,730.12,341.17,729.84,340.36,729.82z"/>
	<path class="st1" d="M317.96,730.71c-0.19-0.39-0.58-0.63-0.93-0.88c-0.5-0.75-1.23-1.38-2.03-1.77c-0.45-0.22-0.93-0.4-1.42-0.5
		c-0.34-0.07-0.69-0.09-1.03-0.09c-0.01,0-0.02,0-0.03,0s-0.03,0-0.04,0c-0.13-0.02-0.27-0.02-0.41-0.01c-0.02,0-0.03,0-0.05,0v0.01
		c-0.05,0.01-0.1,0-0.15,0.02c-0.24,0.06-0.37,0.25-0.4,0.45c-0.1,0.13-0.17,0.3-0.15,0.49c0,0.04,0.02,0.08,0.03,0.12
		c-0.02,0.37,0.27,0.7,0.5,0.96c0.02,0.02,0.04,0.03,0.06,0.05c0.37,0.51,0.8,0.98,1.27,1.39c0.58,0.51,1.26,0.92,2.05,0.98
		c0.01,0,0.02,0,0.03,0c0.26,0.12,0.55,0.18,0.84,0.19c0.14,0.03,0.29,0.05,0.44,0.04c0.17-0.02,0.33-0.08,0.47-0.17
		c0.13-0.04,0.26-0.07,0.39-0.12C317.86,731.66,318.21,731.23,317.96,730.71z"/>
	<path class="st1" d="M318.51,715.59l-1.61-1.66c-1.05-1.08-2.1-2.16-3.15-3.24c-0.95-0.97-1.88-2.01-3.04-2.74
		c-0.47-0.29-1.05-0.5-1.6-0.36c-0.33,0.09-0.62,0.33-0.63,0.64c-0.46,1.2-0.23,2.49-0.14,3.74s0.03,2.49-0.02,3.74
		c-0.06,1.51-0.12,3.03-0.16,4.54c-0.04,1.44-0.17,2.9-0.1,4.34c0.01,0.11,0.01,0.22,0.08,0.31c0.1,0.14,0.29,0.17,0.45,0.12
		s0.29-0.16,0.42-0.27c0.89-0.79,1.76-1.6,2.73-2.29s2.04-1.26,3.21-1.49c0.36-0.07,0.73-0.12,1.06-0.27c0.45-0.21,0.63-0.61,1-0.9
		c0.51-0.39,0.98-0.86,1.45-1.3c0.23-0.21,0.49-0.41,0.68-0.65c0.23-0.1,0.38-0.37,0.41-0.61
		C319.63,716.57,318.95,716.04,318.51,715.59z"/>
	<path class="st1" d="M372.96,709.74c-0.58-0.62-1.49-0.72-2.29-0.57c-2.18,0.41-3.98,2.62-5.43,4.12c-1,1.03-1.98,2.09-2.89,3.2
		c-0.8,0.97-3.08,2.87-1.76,4.16c0.39,0.38,0.87,0.65,1.27,1.02c0.97,0.91,1.88,1.89,2.77,2.87c0.88,0.98,1.78,1.94,2.63,2.95
		c0.2,0.24,0.41,0.49,0.61,0.73c0.07-0.07,0.14-0.14,0.19-0.26c1.03-2.56,1.97-5.14,2.95-7.71c0.94-2.47,2.04-5.03,2.39-7.67
		C373.53,711.65,373.66,710.49,372.96,709.74z"/>
	<path class="st2" d="M509.56,764.43c-0.05-0.05-0.1-0.11-0.17-0.12c-1-0.21-1.98-0.49-2.94-0.85c-0.17-0.06-0.35,0.02-0.46,0.16
		l-0.48,0.05c-0.15-0.02-0.29,0.07-0.38,0.19c-0.4,0.06-0.56,0.52-0.36,0.81c0.06,0.13,0.14,0.24,0.29,0.27
		c1.4,0.31,2.79,0.35,4.21,0.27c0.17-0.01,0.29-0.11,0.37-0.25c0.01-0.01,0.02-0.01,0.03-0.01
		C509.88,764.8,509.82,764.45,509.56,764.43z"/>
	<path class="st1" d="M367.48,782.47c-0.35-0.23-0.76-0.39-1.13-0.58c-1.31-0.67-2.28-1.85-3.21-2.99
		c-0.34-0.42-0.68-0.83-0.97-1.29c-0.86-1.33-1.17-2.94-1.43-4.48c-0.29-1.67-0.16-3.41,0.28-5.04c0.17-0.64,0.4-1.27,0.63-1.89
		c0.79-2.18,1.71-4.28,1.96-6.6c0.21-1.95,0.53-4.41-0.78-6.06c-1.72-2.18-4.36-2.78-7.02-2.69c-1.53,0.05-3,0.17-4.51,0.52
		c-1.62,0.37-3.23,0.85-4.89,0.96c-0.86,0.06-1.72,0.01-2.58-0.03c-1.92-0.1-3.84-0.19-5.76-0.29c-1.26-0.06-2.26-0.69-3.4-1.21
		c-1.21-0.55-2.36-1.21-3.44-1.97c-0.46-0.32-0.9-0.67-1.39-0.93c-0.45-0.24-0.94-0.41-1.38-0.66c-0.87-0.49-1.55-1.24-2.37-1.8
		c-1.95-1.34-4.2-1.57-6.49-1.82c-1.43-0.16-2.88-0.31-4.3-0.06c-1.51,0.26-2.93,1-4.03,2.07c-0.4,0.4-0.76,0.83-1.15,1.24
		c-0.92,0.97-1.86,1.54-3.18,1.79c-1.69,0.33-3.44,0.36-5.1,0.81c-1.37,0.37-2.63,1.65-3.4,2.81c-0.32,0.47-0.58,0.97-0.82,1.49
		c-0.21,0.46-0.4,0.93-0.49,1.42c-0.17,0.88-0.02,1.79,0.13,2.68c0.36,2.17,0.73,4.35,1.4,6.46c0.34,1.05,0.75,2.09,1.28,3.06
		c0.51,0.95,0.8,2,1.33,2.97c1.22,2.26,3.08,4,5.06,5.59c2.05,1.64,4.22,3.14,6.52,4.43c2.28,1.28,4.7,2.37,7.18,3.2
		c2.77,0.92,5.65,1.4,8.54,1.81c5.9,0.83,11.76,1.54,17.73,1.19c3.57,0,7.26-0.71,10.77-1.31c3.5-0.59,6.97-1.52,10.49-1.84
		c0.11-0.01,0.24-0.02,0.32-0.1c0.22-0.19,0.03-0.54-0.19-0.72C367.6,782.55,367.54,782.51,367.48,782.47z"/>
	<path class="st2" d="M318.25,753.58c-0.19-0.06-0.38,0-0.57,0.02c-0.07,0.01-0.15,0.02-0.22,0.03c-0.08-0.02-0.15-0.04-0.23-0.05
		c-0.2-0.04-0.4-0.07-0.6-0.1c-0.01-0.01-0.02-0.02-0.03-0.03c-0.33-0.12-0.69-0.17-1.03-0.17c-0.01,0-0.01,0-0.02,0
		c-0.21-0.07-0.41-0.15-0.63-0.18c-0.01,0-0.01,0-0.02,0c-0.04,0-0.07-0.02-0.11-0.02c0,0.01,0.01,0.01,0.01,0.02
		c-0.12-0.01-0.25,0.02-0.36,0.13c-0.04,0.04-0.06,0.1-0.08,0.15c-0.1,0.02-0.2,0.03-0.3,0.08c-0.16,0.08-0.24,0.29-0.22,0.46
		c0.03,0.19,0.15,0.31,0.33,0.38c0.11,0.04,0.24,0.05,0.37,0.07c0.07,0.1,0.16,0.18,0.28,0.2c0.49,0.11,0.99,0.13,1.49,0.1
		c0.58,0.12,1.18,0.18,1.77,0.12c0.25-0.03,0.46-0.17,0.49-0.43c0.01-0.06,0-0.12-0.01-0.19
		C318.64,753.93,318.48,753.65,318.25,753.58z"/>
	<path class="st1" d="M377.91,694.11c0.05,0.08,0.09,0.16,0.12,0.23c0.28,0.59,0.49,1.21,0.64,1.85c0.6,2.57,0.24,5.24,0.53,7.85
		c0.06,0.56,0.16,1.13,0.43,1.62c0.52,0.94,1.58,1.43,2.6,1.76c2.89,0.94,5.98,1.06,9.02,1.01c8.49-0.13,17.08-1.52,24.7-5.27
		c0.87-0.43,1.77-0.94,2.18-1.82c0.53-1.16,0.01-2.5-0.16-3.76c-0.23-1.7-0.59-3.74,0.1-5.37c0.15-0.36,0.35-0.69,0.51-1.04
		c0.25-0.57,0.49-1.34,0.49-1.97c0-0.14-0.5-1.64-0.67-1.42c-0.44,0.54-0.33,1.4-0.84,1.87c-0.25,0.23-0.59,0.31-0.91,0.39
		c-10.69,2.46-21.62,4.49-32.58,3.93c-1.04-0.05-2.1-0.09-3.1-0.36c-0.7-0.19-3.13-1.81-3.46-0.72
		C377.4,693.26,377.7,693.74,377.91,694.11z"/>
	<path class="st1" d="M487.21,688.94c0,0.08,0,0.17,0.01,0.27c0.06,0.87,0.29,1.74,0.43,2.6c0.24,1.46,0.49,2.93,0.73,4.39
		c0.49,2.93,0.97,5.85,1.46,8.78c0.03,0.21,0.07,0.42,0.19,0.59c0.19,0.26,0.53,0.36,0.85,0.44c10.78,2.62,22.22,1.9,32.89-1.16
		c0.95-0.27,1.93-0.58,2.63-1.28c1.11-1.1,1.22-2.87,0.87-4.38c-0.35-1.52-1.07-2.93-1.41-4.45c-0.27-1.2-0.28-2.44-0.3-3.67
		c-0.02-1.39-0.04-2.8,0.17-4.18c0-0.41,0.14-0.83,0.17-1.25c0.04-0.52,0-1.06,0-1.58c0-0.49-0.19-1.16-0.68-1.11
		c-0.27,0.03-0.44,0.29-0.6,0.51c-1.06,1.47-2.93,2.09-4.69,2.52c-7.1,1.76-14.48,2.09-21.8,2.13c-1.85,0.01-3.71,0-5.55-0.2
		c-1.42-0.16-3.89-0.25-4.76-1.59c-0.13-0.2-0.26-0.45-0.49-0.5c-0.08-0.02-0.17-0.01-0.25-0.03c-0.07-0.02-0.13-0.06-0.2-0.07
		c-0.19-0.03-0.33,0.18-0.36,0.37c-0.07,0.45,0.19,0.88,0.43,1.27C487.33,687.99,487.21,688.37,487.21,688.94z"/>
	
		<linearGradient id="SVGID_1_" gradientUnits="userSpaceOnUse" x1="400.3261" y1="89.1826" x2="398.0794" y2="105.3396" gradientTransform="matrix(1 0 0 -1 0 799.8898)">
		<stop  offset="4.960317e-03" style="stop-color:#000000;stop-opacity:0.5"/>
		<stop  offset="1" style="stop-color:#F2F1EB;stop-opacity:0.1"/>
	</linearGradient>
	<path class="st3" d="M379.66,705.08c0.08,0.45,0.17,0.91,0.4,1.31c0.95,1.57,3.78,1.62,5.36,1.88c2.24,0.37,4.51,0.63,6.78,0.54
		c1.81-0.07,3.59-0.36,5.38-0.66c5.81-0.97,11.65-2.09,17.05-4.44c0.88-0.38,1.76-0.81,2.47-1.46s1.23-1.56,1.22-2.52
		c-0.01-1.01-0.5-1.97-0.61-2.97c-0.08-0.79,0.18-1.19,0.4-1.89c0.08-0.25-0.01-2.47-0.08-2.43c-2.59,1.49-5.15,3.03-7.69,4.61
		c-0.22,0.14-0.47,0.33-0.45,0.59c0.02,0.2,0.19,0.34,0.28,0.51c0.21,0.37,0.06,0.87-0.23,1.17c-0.3,0.31-0.71,0.47-1.11,0.61
		c-2.23,0.8-4.53,1.37-6.84,1.89c-2.66,0.61-5.68,1.1-7.94-0.44c-0.31-0.21-0.65-0.47-1.02-0.42c-0.22,0.03-0.41,0.17-0.6,0.29
		c-0.96,0.6-2.14,0.7-3.27,0.67c-3.66-0.1-7.27-1.51-10.02-3.93c-0.31,1.21-0.56,2.74-0.27,3.98c0.1,0.45,0.34,0.83,0.44,1.28
		C379.44,703.88,379.56,704.48,379.66,705.08z"/>
	
		<linearGradient id="SVGID_00000004518576064532339250000008713750573460060559_" gradientUnits="userSpaceOnUse" x1="508.5014" y1="83.2347" x2="508.2268" y2="106.2283" gradientTransform="matrix(1 0 0 -1 0 799.8898)">
		<stop  offset="4.960317e-03" style="stop-color:#000000;stop-opacity:0.5"/>
		<stop  offset="1" style="stop-color:#F2F1EB;stop-opacity:0.1"/>
	</linearGradient>
	<path style="fill:url(#SVGID_00000004518576064532339250000008713750573460060559_);" d="M524.18,696.67
		c-1.03,0.59-2.22,0.84-3.39,1.05c-0.68,0.12-1.38,0.24-2,0.54c-0.7,0.33-1.27,0.88-1.86,1.39c-2.9,2.55-6.52,4.56-10.38,4.47
		c-0.28-0.01-0.56-0.03-0.81-0.16c-0.26-0.14-0.44-0.38-0.62-0.62c-0.92-1.16-2.12-2.1-3.48-2.71c-2.36-1.06-5.3-1.22-6.97-3.2
		c-0.54-0.64-0.89-1.42-1.44-2.04c-1.14-1.29-2.94-1.73-4.62-2.11c-0.02,1.5,0.04,3,0.19,4.49c0.12,1.18,0.29,2.36,0.25,3.54
		c-0.02,0.81-0.15,1.62-0.08,2.42c0.06,0.81,0.34,1.64,0.97,2.15c0.48,0.4,1.11,0.56,1.72,0.69c4.15,0.9,8.43,0.96,12.67,0.89
		c7.73-0.14,15.64-0.78,22.67-3.98c0.31-0.14,0.64-0.31,0.81-0.6c0.15-0.27,0.15-0.59,0.14-0.9c-0.08-1.86-0.4-3.71-0.93-5.5
		c-0.14-0.47-0.37-1.83-1.1-1.57c-0.22,0.08-0.54,0.75-0.72,0.94C524.92,696.18,524.56,696.45,524.18,696.67z"/>
	<path class="st5" d="M397.02,701.74c-0.99-2.01-3.14-3.31-5.39-3.22c-0.55,0.02-1.23,0.07-1.69,0.4c-0.62,0.45-0.46,1.12-0.2,1.73
		c0.39,0.91,0.99,1.74,1.72,2.4c0.86,0.78,1.88,1.36,3,1.67c0.83,0.23,1.19-1.06,0.36-1.29c-1.45-0.4-2.72-1.36-3.5-2.64
		c-0.16-0.27-0.28-0.55-0.41-0.83c0.03-0.01,0.07-0.02,0.1-0.02c0.21-0.04,0.41-0.06,0.62-0.07c0.86-0.03,1.71,0.17,2.45,0.6
		c0.78,0.46,1.38,1.14,1.78,1.95c0.16,0.32,0.62,0.41,0.92,0.24C397.11,702.46,397.18,702.06,397.02,701.74z"/>
	<path class="st5" d="M405.57,697.54c-0.69-0.77-1.76-0.98-2.71-0.6c-0.98,0.39-1.81,1.12-2.52,1.88c-0.4,0.43-0.77,0.9-1.13,1.37
		c-0.36,0.47-0.72,1-0.65,1.63c0.04,0.36,0.28,0.67,0.67,0.67c0.33,0,0.71-0.31,0.67-0.67c-0.04-0.42,0.35-0.8,0.59-1.11
		c0.31-0.39,0.63-0.77,0.98-1.13c0.35-0.37,0.73-0.71,1.15-0.99c0.35-0.24,0.8-0.53,1.24-0.5c0.79,0.05,1.17,0.94,1.08,1.66
		c-0.12,0.97-0.83,1.72-1.52,2.35c-0.64,0.58,0.31,1.53,0.95,0.95c0.77-0.71,1.47-1.53,1.77-2.55
		C406.45,699.47,406.29,698.34,405.57,697.54z"/>
	<path class="st5" d="M395.33,707.29c-0.02-0.01-0.04-0.01-0.05-0.02c-0.08-0.04-0.17-0.07-0.25-0.12c-0.05-0.03-0.1-0.06-0.14-0.09
		c-0.01-0.01-0.02-0.01-0.03-0.02c-0.04-0.04-0.08-0.07-0.12-0.11c-0.01-0.01-0.05-0.05-0.07-0.08c-0.01-0.02-0.03-0.04-0.04-0.06
		s-0.02-0.03-0.03-0.05c-0.02-0.04-0.03-0.09-0.04-0.13c0-0.04,0-0.08,0-0.12c0.01-0.04,0.02-0.09,0.03-0.13c0,0,0,0,0-0.01
		l0.01-0.01c0.01-0.01,0.02-0.02,0.03-0.03s0.02-0.01,0.03-0.02c0.31-0.17,0.43-0.62,0.24-0.92c-0.2-0.31-0.59-0.42-0.92-0.24
		c-0.67,0.37-0.94,1.26-0.69,1.96c0.27,0.76,0.93,1.22,1.66,1.48c0.33,0.12,0.75-0.13,0.82-0.47
		C395.88,707.74,395.68,707.42,395.33,707.29z"/>
	<path class="st5" d="M404.93,703.81c-0.29-0.19-0.75-0.07-0.92,0.24c-0.17,0.32-0.08,0.68,0.21,0.89l-0.03-0.02
		c0.04,0.03,0.08,0.08,0.12,0.12c0.02,0.03,0.04,0.06,0.05,0.09c0.02,0.05,0.03,0.1,0.04,0.15c0,0.05,0,0.1,0,0.15
		c-0.01,0.05-0.02,0.09-0.04,0.14c-0.01,0.03-0.03,0.05-0.04,0.08c-0.03,0.03-0.05,0.06-0.09,0.09c-0.12,0.1-0.2,0.32-0.2,0.47
		c0,0.16,0.07,0.36,0.2,0.47c0.13,0.12,0.3,0.2,0.47,0.2c0.19-0.01,0.33-0.08,0.47-0.2c0.4-0.33,0.6-0.91,0.57-1.41
		C405.7,704.67,405.43,704.14,404.93,703.81z"/>
	<path class="st5" d="M397.99,705.64c-0.02-0.13-0.03-0.27-0.07-0.4c-0.04-0.12-0.09-0.24-0.15-0.36c-0.06-0.11-0.15-0.22-0.23-0.32
		c-0.08-0.08-0.18-0.14-0.3-0.17c-0.12-0.03-0.24-0.03-0.36,0c-0.22,0.06-0.41,0.24-0.47,0.47c-0.03,0.12-0.05,0.24-0.05,0.36
		s0.02,0.24,0.03,0.35c0.01,0.06,0.03,0.12,0.05,0.18c0.04,0.11,0.09,0.23,0.15,0.33c0.06,0.09,0.14,0.16,0.23,0.22
		c0.01,0.01,0.02,0.02,0.03,0.03c0.06,0.07,0.13,0.11,0.22,0.14c0.05,0.03,0.11,0.05,0.17,0.05c0.09,0.02,0.18,0.02,0.27-0.01
		c0.05-0.02,0.11-0.04,0.16-0.07c0.05-0.03,0.09-0.07,0.14-0.1c0.07-0.06,0.11-0.13,0.14-0.22c0.04-0.08,0.06-0.17,0.06-0.26
		C398,705.79,398,705.71,397.99,705.64z"/>
	<path class="st5" d="M401.49,705.06c0-0.01,0-0.02,0-0.04c0-0.01,0-0.01,0-0.02c0-0.05,0.01-0.1,0-0.15
		c-0.01-0.08-0.03-0.16-0.04-0.24c0.01-0.02,0.01-0.04,0.02-0.07c-0.01,0.02-0.01,0.03-0.02,0.05c0-0.01,0-0.01,0-0.02
		c0.01-0.04,0.04-0.08,0.04-0.13c0.02-0.09,0.02-0.18-0.01-0.27c-0.02-0.09-0.06-0.16-0.12-0.23c-0.05-0.07-0.11-0.13-0.19-0.17
		c-0.09-0.05-0.19-0.07-0.29-0.08c-0.05-0.02-0.09-0.04-0.14-0.06c-0.06-0.01-0.12-0.02-0.18-0.02c-0.09,0-0.18,0.02-0.26,0.06
		c-0.06,0.02-0.11,0.04-0.15,0.09c-0.05,0.03-0.09,0.07-0.12,0.12c-0.04,0.04-0.07,0.09-0.09,0.15c-0.04,0.08-0.06,0.17-0.06,0.26
		c0.01,0.19,0.04,0.39,0.1,0.57c0.04,0.11,0.1,0.2,0.15,0.3c0.01,0.03,0.02,0.07,0.03,0.1c0.02,0.09,0.06,0.16,0.12,0.23
		c0.05,0.07,0.11,0.13,0.19,0.17c0.05,0.02,0.11,0.04,0.16,0.07c0.09,0.03,0.18,0.03,0.27,0.01c0.06,0,0.12-0.02,0.17-0.05
		c0.08-0.03,0.15-0.07,0.22-0.14c0.03-0.05,0.07-0.09,0.1-0.14s0.03-0.1,0.04-0.15c0.01-0.02,0.03-0.04,0.03-0.06
		c0-0.04,0.01-0.07,0.01-0.11C401.47,705.08,401.48,705.08,401.49,705.06C401.49,705.07,401.49,705.06,401.49,705.06z"/>
	<path class="st5" d="M382.88,701.02c-0.43-0.59-1.03-1.07-1.68-1.38c-0.75-0.36-1.58-0.54-2.41-0.49
		c-0.36,0.02-0.67,0.29-0.67,0.67c0,0.35,0.31,0.69,0.67,0.67c0.66-0.04,1.28,0.07,1.84,0.36c0.51,0.26,1.17,0.7,1.32,1.27
		c0.07,0.26,0.03,0.5-0.07,0.8c-0.09,0.27-0.27,0.59-0.48,0.81c-0.21,0.21-0.42,0.28-0.73,0.33c-0.24,0.04-0.69,0.03-1,0.01
		c-0.36-0.02-0.67,0.32-0.67,0.67c0,0.38,0.31,0.65,0.67,0.67c0.73,0.03,1.48,0.02,2.14-0.33c0.69-0.36,1.16-1.12,1.39-1.85
		C383.42,702.49,383.35,701.66,382.88,701.02z"/>
	<path class="st5" d="M384.3,696.66c-0.19-0.3-0.6-0.44-0.92-0.24c-0.66,0.41-1.31,0.82-1.97,1.24c-0.3,0.19-0.44,0.61-0.24,0.92
		c0.19,0.3,0.6,0.44,0.92,0.24c0.65-0.41,1.31-0.82,1.97-1.24C384.36,697.39,384.5,696.98,384.3,696.66z"/>
	<path class="st5" d="M387.69,701.23c-0.95-0.24-1.95-0.24-2.9,0.01c-0.34,0.09-0.58,0.48-0.47,0.82c0.11,0.35,0.46,0.56,0.82,0.47
		c0.11-0.03,0.22-0.05,0.33-0.08c0.05-0.01,0.09-0.02,0.14-0.03c0,0,0.01,0,0.02,0c0.09-0.02,0.21-0.02,0.3-0.03
		c0.1-0.01,0.21-0.01,0.31-0.01s0.19,0,0.29,0.01c0.06,0,0.11,0.01,0.17,0.01c0.04,0,0.11,0,0.15,0.02c0.01,0,0.02,0,0.03,0
		c0.05,0.01,0.09,0.02,0.14,0.02c0.11,0.02,0.22,0.05,0.33,0.07c0.34,0.09,0.74-0.11,0.82-0.47
		C388.24,701.71,388.06,701.33,387.69,701.23z"/>
	<path class="st5" d="M387.62,704.95c-0.34-0.12-0.67-0.25-1-0.39c-0.37-0.16-0.73-0.32-1.09-0.5c-0.16-0.08-0.34-0.12-0.52-0.07
		c-0.16,0.04-0.32,0.16-0.4,0.31c-0.16,0.3-0.1,0.75,0.24,0.92c0.78,0.39,1.59,0.73,2.41,1.02c0.33,0.12,0.75-0.13,0.82-0.47
		C388.17,705.4,387.97,705.08,387.62,704.95z"/>
	<path class="st5" d="M416.72,696.45c-1.41-0.24-2.77-0.71-4.01-1.41c-0.95-0.54-2.24-1.46-1.86-2.73c0.25-0.83-1.05-1.18-1.29-0.36
		c-0.51,1.72,0.75,3.18,2.11,4.03c1.43,0.89,3.04,1.48,4.7,1.77c0.36,0.06,0.72-0.09,0.82-0.47
		C417.27,696.95,417.08,696.51,416.72,696.45z"/>
	<path class="st5" d="M417.26,699.52c-2.15-0.17-4.35-0.59-6.2-1.75c-0.79-0.5-1.52-1.13-2.07-1.89c-0.59-0.81-1.14-1.86-0.81-2.88
		c0.27-0.82-1.02-1.17-1.29-0.36c-0.77,2.36,1.33,4.78,3.12,6.03c2.12,1.48,4.72,1.99,7.25,2.19
		C418.12,700.93,418.11,699.59,417.26,699.52z"/>
	<path class="st5" d="M492.79,688.53c-0.04-0.37-0.29-0.7-0.7-0.7c-0.34,0-0.74,0.32-0.7,0.7c0.03,0.27,0.04,0.54,0.02,0.81
		c0,0.06-0.01,0.12-0.02,0.18c0,0.03,0,0.03,0,0.03c0,0.01,0,0.02-0.01,0.04c-0.02,0.12-0.04,0.24-0.07,0.36
		c-0.13,0.54-0.28,0.89-0.57,1.36c-0.15,0.24-0.25,0.37-0.4,0.54c-0.17,0.2-0.36,0.38-0.55,0.54c-0.3,0.25-0.82,0.54-1.2,0.67
		c-0.36,0.12-0.59,0.48-0.49,0.86c0.1,0.35,0.5,0.61,0.86,0.49C491.37,693.6,493.08,691.08,492.79,688.53z"/>
	<path class="st5" d="M497.05,688.64c-0.05-0.89-1.45-0.9-1.39,0c0.1,1.79-0.51,3.59-1.76,4.89s-3.01,2.01-4.81,1.97
		c-0.9-0.02-0.9,1.38,0,1.39c2.15,0.04,4.3-0.83,5.8-2.38C496.38,692.96,497.18,690.79,497.05,688.64z"/>
	<path class="st5" d="M502.4,700.19c-1.44-2.09-3.83-3.06-6.25-3.48c-0.61-0.11-1.44-0.37-1.87,0.24c-0.39,0.56-0.08,1.18,0.22,1.7
		c0.62,1.08,1.29,2.17,2.19,3.04c0.98,0.95,2.21,1.6,3.58,1.69c0.38,0.02,0.7-0.34,0.7-0.7c0-0.4-0.32-0.67-0.7-0.7
		c-1.15-0.07-2.16-0.78-2.91-1.61c-0.42-0.46-0.77-0.97-1.1-1.5c-0.17-0.27-0.33-0.55-0.49-0.83c0.05,0.01,0.09,0.02,0.14,0.02
		c0.33,0.06,0.66,0.13,0.99,0.21c0.6,0.15,1.21,0.33,1.78,0.59c0.99,0.46,1.91,1.11,2.53,2.01c0.21,0.31,0.61,0.45,0.95,0.25
		C502.46,700.96,502.61,700.5,502.4,700.19z"/>
	<path class="st5" d="M511.62,695.36c-1.14,0.31-2.24,0.78-3.24,1.4c-1.15,0.71-2.18,1.61-3.03,2.65c-0.24,0.29-0.29,0.7,0,0.99
		c0.24,0.24,0.75,0.29,0.99,0c1.56-1.92,3.72-3.28,6.15-3.82c0.25-0.06,0.51-0.1,0.77-0.14c-0.3,0.55-0.75,1.05-1.13,1.54
		c-0.92,1.2-1.89,2.35-2.91,3.47c-0.6,0.66,0.38,1.65,0.99,0.99c0.94-1.03,1.83-2.09,2.69-3.19c0.44-0.57,0.87-1.14,1.3-1.72
		c0.33-0.46,0.67-0.97,0.58-1.57C514.54,694.51,512.55,695.11,511.62,695.36z"/>
	<g>
		<path class="st5" d="M502.25,706.47c-0.02-0.02-0.02-0.02-0.03-0.03l0.01,0.01C502.23,706.45,502.24,706.46,502.25,706.47z"/>
		<path class="st5" d="M502.22,706.45c-0.01-0.01-0.03-0.02-0.04-0.03s-0.01-0.01-0.02-0.02c0,0,0.03,0.02,0.05,0.04
			c0,0,0,0-0.01-0.01c-0.02-0.01-0.03-0.03-0.04-0.04c-0.04-0.03-0.07-0.07-0.1-0.1c-0.01-0.01-0.01-0.02-0.02-0.02
			c-0.03-0.04-0.06-0.09-0.08-0.13s-0.04-0.07-0.06-0.11c-0.01-0.02-0.01-0.04-0.02-0.06c-0.02-0.08-0.04-0.16-0.05-0.24
			c-0.01-0.11-0.01-0.21,0-0.32c0.02-0.09,0.04-0.19,0.07-0.28c0.01-0.02,0.02-0.04,0.03-0.06c0.04-0.07,0.08-0.13,0.12-0.19
			c0.1-0.13,0.11-0.38,0.07-0.54c-0.04-0.16-0.17-0.34-0.32-0.42c-0.16-0.09-0.36-0.13-0.54-0.07c-0.18,0.06-0.3,0.17-0.42,0.32
			c-0.4,0.53-0.48,1.23-0.38,1.87c0.11,0.65,0.5,1.22,1.04,1.58c0.3,0.21,0.79,0.07,0.95-0.25
			C502.64,707.04,502.53,706.67,502.22,706.45z"/>
	</g>
	<path class="st5" d="M511.09,703.74c-0.18-0.32-0.64-0.45-0.95-0.25c-0.32,0.21-0.44,0.62-0.25,0.95c0.04,0.07,0.07,0.13,0.1,0.2
		c0.01,0.03,0.02,0.06,0.03,0.09c0.04,0.11,0.06,0.23,0.08,0.34c0.02,0.19,0.02,0.38,0,0.57c-0.02,0.11-0.04,0.22-0.07,0.32
		c-0.01,0.03-0.02,0.06-0.03,0.1l0,0c-0.03,0.06-0.06,0.12-0.09,0.18c-0.18,0.32-0.09,0.77,0.25,0.95c0.33,0.17,0.77,0.09,0.95-0.25
		C511.66,705.96,511.66,704.72,511.09,703.74z"/>
	<path class="st5" d="M505.17,704.18c-0.14-0.29-0.28-0.57-0.43-0.86c-0.04-0.08-0.1-0.15-0.18-0.2c-0.07-0.06-0.15-0.1-0.24-0.12
		c-0.09-0.03-0.19-0.03-0.28-0.01c-0.09,0-0.18,0.03-0.26,0.08c-0.15,0.1-0.28,0.24-0.32,0.42c-0.01,0.06-0.02,0.12-0.02,0.19
		c0,0.13,0.03,0.24,0.1,0.35c0.14,0.29,0.28,0.57,0.43,0.86c0.04,0.08,0.1,0.15,0.18,0.2c0.07,0.06,0.15,0.1,0.24,0.12
		c0.09,0.03,0.19,0.03,0.28,0.01c0.09,0,0.18-0.03,0.26-0.08c0.15-0.1,0.28-0.24,0.32-0.42c0.01-0.06,0.02-0.12,0.02-0.19
		C505.26,704.41,505.23,704.29,505.17,704.18z"/>
	<path class="st5" d="M507.51,704.02l-0.33-0.96c-0.06-0.17-0.16-0.32-0.32-0.42c-0.08-0.05-0.17-0.08-0.26-0.08
		c-0.09-0.02-0.19-0.02-0.28,0.01c-0.17,0.05-0.33,0.16-0.42,0.32c-0.08,0.16-0.13,0.36-0.07,0.54l0.33,0.96
		c0.06,0.17,0.16,0.32,0.32,0.42c0.08,0.05,0.17,0.08,0.26,0.08c0.09,0.02,0.19,0.02,0.28-0.01c0.17-0.05,0.33-0.16,0.42-0.32
		C507.53,704.4,507.57,704.2,507.51,704.02z"/>
	<path class="st5" d="M525.55,696.82c-0.3,1.03-1.6,1.11-2.48,1.05c-1.09-0.07-2.37-0.24-3.22-1c-0.34-0.31-0.62-0.69-0.7-1.15
		c-0.11-0.58,0.09-1.19,0.27-1.74c0.35-1.03,0.92-1.83,1.95-2.25c1.1-0.44,2.41-0.54,3.46,0.08c0.77,0.46,1.48-0.75,0.7-1.2
		c-1.28-0.75-2.86-0.78-4.25-0.32c-0.69,0.23-1.35,0.56-1.89,1.06c-0.56,0.52-0.92,1.2-1.19,1.9c-0.57,1.47-0.73,3.05,0.37,4.32
		c1.05,1.2,2.69,1.53,4.2,1.67c1.64,0.16,3.58-0.26,4.11-2.05C527.15,696.33,525.81,695.96,525.55,696.82z"/>
	<path class="st5" d="M522.32,688.55c-0.02-0.06-0.05-0.11-0.07-0.17c-0.06-0.1-0.15-0.19-0.25-0.25c0.04,0.03,0.08,0.06,0.12,0.1
		c-0.11-0.08-0.2-0.19-0.29-0.29c-0.07-0.09-0.12-0.19-0.17-0.3c-0.04-0.12-0.09-0.25-0.11-0.37c-0.03-0.16-0.19-0.34-0.32-0.42
		c-0.15-0.09-0.37-0.12-0.54-0.07s-0.33,0.16-0.42,0.32l-0.07,0.17c-0.03,0.12-0.03,0.25,0,0.37c0.02,0.13,0.05,0.26,0.1,0.39
		c0.06,0.17,0.14,0.34,0.23,0.5c0.09,0.16,0.21,0.3,0.33,0.44c0.13,0.14,0.27,0.25,0.42,0.37c0.08,0.05,0.17,0.08,0.26,0.08
		c0.09,0.02,0.19,0.02,0.28-0.01c0.16-0.04,0.34-0.17,0.42-0.32C522.33,688.93,522.38,688.73,522.32,688.55z"/>
	<path class="st5" d="M517.19,693.55c-0.14-0.13-0.3-0.19-0.49-0.2c-0.68-0.06-1.36-0.12-2.03-0.18c-0.17-0.02-0.38,0.09-0.49,0.2
		c-0.12,0.12-0.21,0.32-0.2,0.49c0.01,0.18,0.07,0.37,0.2,0.49c0.14,0.13,0.3,0.19,0.49,0.2c0.68,0.06,1.36,0.12,2.03,0.18
		c0.17,0.02,0.38-0.09,0.49-0.2c0.12-0.12,0.21-0.32,0.2-0.49C517.39,693.86,517.33,693.68,517.19,693.55z"/>
	<path class="st5" d="M518.99,689.64c-1.17-0.82-2.4-1.57-3.67-2.23c-0.32-0.17-0.77-0.09-0.95,0.25c-0.17,0.32-0.1,0.77,0.25,0.95
		c1.27,0.66,2.5,1.41,3.67,2.23c0.3,0.21,0.79,0.06,0.95-0.25C519.43,690.23,519.31,689.86,518.99,689.64z"/>
	<path class="st5" d="M518.53,698.55c-0.18-0.29-0.64-0.49-0.95-0.25c-1.44,1.1-2.79,2.3-4.03,3.62c-0.25,0.27-0.28,0.73,0,0.99
		c0.27,0.25,0.72,0.28,0.99,0c0.59-0.63,1.2-1.23,1.84-1.81c0.31-0.28,0.63-0.56,0.95-0.83c0.17-0.14,0.33-0.27,0.5-0.41
		c0.08-0.07,0.17-0.13,0.25-0.2c0.04-0.03,0.08-0.06,0.11-0.09c-0.08,0.06,0.09-0.07,0.09-0.07
		C518.57,699.28,518.75,698.89,518.53,698.55z"/>
	<path class="st5" d="M523.67,699.9c-0.08-0.14-0.25-0.28-0.42-0.32c-0.18-0.04-0.38-0.03-0.54,0.07c-0.05,0.04-0.09,0.07-0.14,0.11
		c-0.09,0.09-0.15,0.19-0.18,0.31c-0.18,0.46-0.37,0.93-0.55,1.39c-0.06,0.16-0.01,0.4,0.07,0.54c0.08,0.14,0.25,0.28,0.42,0.32
		c0.18,0.04,0.38,0.03,0.54-0.07c0.05-0.04,0.09-0.07,0.14-0.11c0.09-0.09,0.15-0.19,0.18-0.31c0.18-0.46,0.37-0.93,0.55-1.39
		C523.8,700.27,523.75,700.04,523.67,699.9z"/>
	<path class="st5" d="M492.82,702.81c-0.8-0.93-2.06-1.51-3.3-1.43c-0.36,0.02-0.71,0.3-0.7,0.7c0.02,0.36,0.31,0.72,0.7,0.7
		c0.45-0.03,0.89,0.05,1.22,0.2c0.22,0.1,0.43,0.23,0.63,0.37c0.02,0.01,0.04,0.03,0.06,0.05c0.05,0.04,0.1,0.09,0.15,0.14
		c0.09,0.09,0.18,0.18,0.26,0.27c0.01,0.01,0.12,0.14,0.08,0.09s0.06,0.09,0.07,0.1c0.08,0.12,0.15,0.24,0.22,0.36
		c0.15,0.27,0.17,0.32,0.26,0.61c0.08,0.24,0.13,0.48,0.17,0.72c0,0.02,0.01,0.06,0.01,0.09c0.01,0.06,0.01,0.12,0.02,0.19
		c0.01,0.14,0.01,0.28,0.02,0.42c0,0.36,0.32,0.71,0.7,0.7c0.38-0.02,0.7-0.31,0.7-0.7C494.07,705.08,493.67,703.8,492.82,702.81z"
		/>
	<path class="st5" d="M354.11,715c-0.47-0.3-0.86-0.66-1.38-0.89c-0.4-0.18-0.82-0.32-1.24-0.46c-0.98-0.33-1.96-0.64-2.98-0.82
		c-0.4-0.07-0.8-0.13-1.2-0.19c-0.05-0.28-0.26-0.53-0.62-0.55c-3.02-0.12-6.04-0.23-9.06,0.01c-2.87,0.23-5.64,0.85-8.39,1.67
		c-4.56,1.35-9.62,2.7-12.83,6.46c-0.11,0.13-0.15,0.28-0.16,0.42c-0.45-0.03-0.92,0.11-1.34,0.23c-0.5,0.14-0.98,0.33-1.46,0.54
		c-0.94,0.42-1.82,0.95-2.66,1.55c-0.81,0.58-1.68,1.16-2.38,1.87c-0.56,0.57-1.15,1.67-0.59,2.41c0.03,0.05,0.12,0.05,0.13-0.02
		c0.09-0.44,0.2-0.93,0.5-1.27c0.28-0.31,0.64-0.57,0.98-0.8c0.75-0.5,1.49-1.03,2.26-1.51c0.75-0.47,1.51-0.92,2.32-1.27
		c0.39-0.17,0.79-0.31,1.19-0.42c0.45-0.12,0.95-0.14,1.36-0.34c0.11-0.05,0.17-0.15,0.21-0.25c0.19,0.05,0.4,0.01,0.57-0.19
		c3.13-3.65,8.11-4.9,12.54-6.2c2.7-0.79,5.4-1.38,8.21-1.57c1.79-0.12,3.59-0.11,5.38-0.07c1.55,0.22,3.12,0.29,4.68,0.49
		c0.98,0.13,1.97,0.24,2.93,0.46c0.47,0.11,0.92,0.27,1.38,0.4c0.52,0.15,1.08,0.21,1.59,0.39
		C354.12,715.09,354.15,715.02,354.11,715z"/>
	<path class="st5" d="M321.78,705.91c-1.41-1.01-2.87-1.95-4.39-2.79c-1.4-0.77-2.98-1.73-4.64-1.56c-0.77,0.08-1.51,0.34-2.25,0.56
		c-0.78,0.24-1.57,0.47-2.33,0.77c-1.37,0.56-2.56,1.61-2.57,3.19c0,0.86,1.34,0.86,1.34,0c0-1.5,1.73-1.99,2.89-2.36
		c1.27-0.4,2.71-1.08,4.06-0.75c1.32,0.32,2.6,1.16,3.77,1.84c1.18,0.69,2.33,1.45,3.44,2.25
		C321.8,707.57,322.47,706.41,321.78,705.91z"/>
	<path class="st5" d="M364.61,707.73c-4.6,2-9.5,3.27-14.49,3.77c-0.42,0.04-0.63,0.39-0.64,0.72c-0.22,0.03-0.48,0.08-0.65,0.22
		c-0.09,0.07-0.04,0.2,0.03,0.25c0.1,0.07,0.19,0.08,0.31,0.1c0.12,0.02,0.24,0.04,0.37,0.04c0.11,0,0.21-0.01,0.32-0.02
		c0.08,0.02,0.16,0.04,0.26,0.03c5.24-0.52,10.33-1.85,15.16-3.95C366.07,708.54,365.39,707.38,364.61,707.73z"/>
	<path class="st5" d="M378.52,698.9c-0.08-0.32-0.49-0.6-0.82-0.47c-4.17,1.71-8.74,3.67-10.86,7.94c-0.38,0.77,0.77,1.45,1.16,0.68
		c1.96-3.95,6.2-5.75,10.06-7.33C378.39,699.59,378.62,699.28,378.52,698.9z"/>
	<path class="st5" d="M431.42,697.56c-1.15-2.15-3.54-3.32-5.61-4.4c-2.4-1.25-5.09-2.17-7.8-1.44c-0.83,0.22-0.48,1.51,0.36,1.29
		c2.43-0.65,4.84,0.29,6.97,1.41c1.8,0.95,3.93,1.94,4.93,3.81C430.67,699,431.82,698.32,431.42,697.56z"/>
	<path class="st5" d="M443.28,712.5c-0.42-1.6-0.9-3.18-1.47-4.74c-0.5-1.38-1.09-2.73-2.05-3.86c-1.8-2.13-4.55-3.13-7.1-4.03
		c-0.81-0.29-1.16,1.01-0.36,1.29c2.34,0.83,4.86,1.73,6.5,3.69c0.88,1.06,1.39,2.37,1.84,3.66c0.5,1.43,0.94,2.88,1.33,4.34
		C442.21,713.69,443.5,713.33,443.28,712.5z"/>
	<path class="st5" d="M429.04,704.95c-1.96,2.42-4.23,4.52-6.74,6.29c-0.01-0.02-0.01-0.05-0.02-0.07c-0.1-0.38-0.22-0.77-0.35-1.14
		c-0.27-0.77-0.6-1.51-1.01-2.22c-0.39-0.68-0.85-1.33-1.36-1.92c-0.26-0.3-0.52-0.61-0.82-0.87c-0.13-0.11-0.29-0.24-0.44-0.32
		s-0.26-0.06-0.42-0.1c-0.02-0.01-0.03,0.02-0.02,0.03c0.07,0.16,0.06,0.28,0.17,0.43c0.09,0.13,0.2,0.26,0.3,0.38
		c0.24,0.27,0.48,0.53,0.71,0.81c0.48,0.6,0.89,1.25,1.25,1.94c0.34,0.66,0.62,1.35,0.83,2.06c0.1,0.34,0.19,0.69,0.25,1.05
		c0.03,0.17,0.05,0.36,0.09,0.53c-1.73,1.14-3.57,2.13-5.5,2.96c-5.18,2.21-10.77,3.31-16.29,4.27c-3.41,0.6-6.84,1.27-10.31,1.31
		c-0.86,0.01-0.86,1.35,0,1.34c3.1-0.04,6.15-0.58,9.2-1.1c2.89-0.49,5.77-1,8.62-1.66c5.63-1.3,11.19-3.23,15.93-6.59
		c2.58-1.83,4.89-4,6.88-6.45C430.52,705.23,429.58,704.28,429.04,704.95z"/>
	<path class="st5" d="M379.19,711.82c-0.72-2.34-1.84-4.79-4.15-5.95c-2.39-1.2-4.54-0.27-6.54,1.2
		c-4.43,3.26-8.47,7.01-12.07,11.16c-0.56,0.65,0.38,1.6,0.95,0.95c3.1-3.58,6.53-6.87,10.27-9.79c1.7-1.33,3.8-3.35,6.14-2.6
		c2.36,0.76,3.44,3.2,4.11,5.38C378.15,713,379.45,712.65,379.19,711.82z"/>
	<path class="st5" d="M317.26,728.58c-0.68-0.53-1.4-1.05-2.16-1.45c-0.75-0.4-1.54-0.63-2.39-0.51c-0.54,0.07-1.47,0.51-1.43,1.17
		c0,0.05,0.07,0.08,0.1,0.03c0.24-0.53,1.4-0.51,1.88-0.44c0.7,0.1,1.35,0.43,1.95,0.81c0.57,0.36,1.14,0.75,1.66,1.18
		c0.25,0.2,0.49,0.42,0.7,0.66c0.22,0.25,0.39,0.52,0.66,0.72c0.2,0.15,0.56-0.05,0.53-0.3
		C318.67,729.64,317.86,729.03,317.26,728.58z"/>
	<path class="st5" d="M340.41,728.66c-1.15-0.05-2.32,0.11-3.43,0.41c-1.08,0.29-2.17,0.69-3.16,1.21
		c-0.54,0.28-1.39,1.07-0.89,1.74c0.06,0.08,0.18,0.03,0.16-0.07c-0.12-0.66,0.38-0.8,0.88-0.94c0.37-0.11,0.75-0.22,1.11-0.34
		c0.82-0.26,1.64-0.52,2.48-0.71s1.7-0.3,2.57-0.28c0.33,0.01,0.65,0.02,0.97,0.11c0.35,0.1,0.53,0.34,0.83,0.49
		c0.36,0.19,0.78-0.12,0.68-0.53C342.43,728.88,341.15,728.69,340.41,728.66z"/>
	<path class="st5" d="M343.24,737.42c-2.03-0.82-4.13-1.34-6.31-1.53c-1.08-0.1-2.15-0.1-3.23-0.01c-1.11,0.09-2.09,0.36-3.13,0.74
		c-0.13,0.05-0.12,0.25,0.03,0.25c1.03-0.01,2.07,0.04,3.1,0.03c1.04-0.01,2.09,0.05,3.12,0.17c2.09,0.23,4.15,0.77,6.1,1.54
		C343.65,738.89,343.96,737.71,343.24,737.42z"/>
	<path class="st5" d="M317.93,735.04c-0.69-0.42-1.7-0.49-2.49-0.58c-0.87-0.11-1.76-0.13-2.63-0.05c-0.86,0.08-1.68,0.24-2.5,0.51
		c-0.49,0.16-1.64,0.38-1.62,1.05c0,0.15,0.12,0.25,0.26,0.26c0.04,0,0.1,0.02,0.13-0.02c0.19-0.2,0.61-0.22,0.87-0.27
		c0.36-0.08,0.73-0.14,1.09-0.19c0.74-0.09,1.49-0.16,2.23-0.17c0.72,0,1.45,0.02,2.16,0.12c0.36,0.05,0.71,0.11,1.06,0.19
		c0.38,0.09,0.75,0.22,1.14,0.23C318.22,736.13,318.4,735.33,317.93,735.04z"/>
	<path class="st5" d="M305.53,731.21c-0.54,0.79-0.96,1.66-1.47,2.47c-0.51,0.82-1.07,1.6-1.62,2.39c-1.08,1.55-2.1,3.13-2.92,4.84
		c-0.79,1.66-1.42,3.39-1.87,5.17c-0.47,1.88-0.62,3.65-0.56,5.57c0,0.13,0.21,0.17,0.24,0.03c0.58-3.71,1.54-7.47,3.26-10.83
		c0.84-1.64,1.86-3.16,2.91-4.68c0.99-1.43,2.24-2.99,2.65-4.72C306.23,731.09,305.74,730.9,305.53,731.21z"/>
	<path class="st5" d="M309.04,779.34c-3.03-0.27-6.06,0.44-9.1,0.03c-2.63-0.35-5.13-1.6-6.52-3.93c-0.06-0.1-0.2-0.03-0.18,0.08
		c0.5,2.75,3.07,4.39,5.63,4.97c1.52,0.34,3.09,0.38,4.64,0.32c1.85-0.06,3.69-0.15,5.54-0.18
		C309.88,780.62,309.86,779.41,309.04,779.34z"/>
	<path class="st5" d="M403.08,782.44c-5.4,0.53-10.74,0.34-16.03-0.94c-2.59-0.63-5.07-1.51-7.55-2.46
		c-2.36-0.9-4.75-1.72-7.29-1.69c-0.26,0-0.33,0.41-0.06,0.46c2.63,0.54,5.11,1.57,7.6,2.58c2.46,1,4.97,1.9,7.56,2.5
		c5.17,1.21,10.68,1.64,15.89,0.43C403.68,783.21,403.59,782.38,403.08,782.44z"/>
	<path class="st5" d="M364.51,760.49c0.88-3.31,0.71-7.36-2.47-9.28c-3.48-2.09-7.64-0.73-11.28,0.04
		c-0.04,0.01-0.02,0.07,0.02,0.06c1.97-0.29,4.05-0.49,6.05-0.43c1.53,0.05,3.14,0.21,4.51,0.95c0.27,0.15,0.49,0.33,0.72,0.52
		c-0.02,0.09-0.02,0.18,0.05,0.26c0.42,0.47,0.74,0.99,1.02,1.54c0.11,0.21,0.2,0.43,0.29,0.65c0.02,0.09,0.05,0.17,0.07,0.26
		c0.08,0.3,0.09,0.69,0.26,0.96c0.04,0.09,0.15,0.13,0.25,0.11c0,0.02,0.01,0.04,0.02,0.06c0.01,0.07,0.02,0.14,0.03,0.2
		c0.12,1.64-0.27,3.22-0.5,4.84c-0.15,0.57-0.31,1.13-0.5,1.68c-0.41,1.17-0.92,2.3-1.37,3.46c-0.87,2.25-1.34,4.46-0.71,6.83
		c0,0.01,0.02,0.01,0.02-0.01c-0.38-2.49,0.67-5.12,1.64-7.37C363.36,764.14,364.26,762.36,364.51,760.49z"/>
	<path class="st5" d="M365.08,724.62c-1.09-1.07-2.18-2.14-3.26-3.22c-0.46-0.46-0.93-0.91-1.45-1.31
		c-0.22-0.17-0.44-0.34-0.71-0.45c-0.35-0.15-0.69-0.12-1.06-0.21c-0.03-0.01-0.05,0.03-0.02,0.05c0.3,0.2,0.48,0.52,0.73,0.77
		c0.2,0.2,0.41,0.38,0.61,0.57c0.44,0.43,0.86,0.9,1.28,1.35c0.98,1.04,1.96,2.08,2.94,3.12c1.64,1.76,3.31,3.55,3.93,5.93
		c0.13,0.51,1,0.42,0.95-0.13C368.74,728.46,366.9,726.41,365.08,724.62z"/>
	<path class="st5" d="M447.85,739.57c-5.03-1.06-10.03,1.57-14.09,4.29c-1.94,1.3-3.81,2.78-5.4,4.51
		c-1.44,1.56-3.01,3.53-3.57,5.61c-0.01,0.03,0.03,0.04,0.05,0.02c0.61-0.86,1.11-1.8,1.74-2.66c0.67-0.91,1.42-1.75,2.21-2.55
		c1.59-1.6,3.36-2.98,5.25-4.19c3.91-2.51,8.7-5.17,13.48-3.79C448.31,741.03,448.65,739.74,447.85,739.57z"/>
	<path class="st5" d="M394.62,758.4c-2.35-0.61-4.94-0.81-7.48-0.58c1.04-0.6,2.07-1.22,3.12-1.8c1.29-0.7,2.61-1.34,3.94-1.96
		c0.19-0.09,0.06-0.41-0.15-0.34c-1.42,0.48-2.77,1.08-4.08,1.82c-1.19,0.66-2.33,1.43-3.36,2.32c-2.79,0.33-5.5,1.21-7.75,2.77
		c-0.06,0.04-0.02,0.16,0.05,0.12c2.46-1.03,4.87-1.92,7.52-2.29c2.69-0.38,5.42-0.24,8.07,0.34
		C394.77,758.87,394.89,758.47,394.62,758.4z"/>
	<path class="st5" d="M426.81,697.52c-0.12-0.26-0.36-0.3-0.62-0.36c-0.24-0.06-0.49-0.11-0.74-0.15c-0.51-0.09-1.02-0.15-1.54-0.18
		c-0.52-0.03-1.04-0.01-1.56,0.03c-0.24,0.02-0.48,0.04-0.72,0.1c-0.29,0.07-0.52,0.24-0.79,0.35c-0.06,0.02-0.05,0.11,0.02,0.11
		c0.26,0.01,0.49,0.1,0.75,0.11c0.25,0.01,0.5-0.01,0.75-0.02c0.5-0.02,1-0.01,1.51,0.03c0.51,0.03,1.01,0.08,1.51,0.17
		c0.25,0.04,0.49,0.09,0.74,0.15c0.23,0.05,0.42,0.1,0.62-0.05C426.83,697.75,426.86,697.63,426.81,697.52z"/>
	<path class="st5" d="M389.36,715.9l-0.02-1.16c0-0.18-0.01-0.35-0.04-0.53c-0.04-0.22-0.12-0.39-0.17-0.6
		c-0.02-0.08-0.14-0.08-0.16,0c-0.05,0.19-0.13,0.36-0.16,0.56c-0.03,0.19-0.05,0.38-0.05,0.58c-0.01,0.39-0.01,0.77-0.02,1.16
		c-0.01,0.79-0.04,1.58-0.04,2.36c0,0.46,0.71,0.46,0.71,0C389.4,717.47,389.37,716.68,389.36,715.9z"/>
	<path class="st5" d="M487.34,689.47c-0.47-0.41-1.35,0.04-1.83,0.19c-0.77,0.24-1.52,0.51-2.26,0.82c-1.48,0.62-2.89,1.41-4.16,2.4
		c-1.11,0.86-2.08,1.88-2.89,3.04c-0.77,1.11-1.48,2.4-1.54,3.78c-0.01,0.13,0.18,0.17,0.24,0.07c0.67-1.15,1.2-2.36,2.03-3.41
		c0.85-1.07,1.87-2.01,2.99-2.79c0.89-0.62,1.85-1.11,2.83-1.54c0.09,0.01,0.18,0.02,0.27,0.02c0.05,0,0.09,0,0.14,0.01
		c0.02,0,0.05,0,0.1,0.01c0.18,0.03,0.35,0.08,0.53,0.12c0.1,0.03,0.2,0.05,0.31,0.04c0.04,0,0.08-0.02,0.12-0.03
		c0.05,0,0.1,0.02,0.15,0.04c0.03,0.01,0.06-0.02,0.03-0.04c-0.04-0.04-0.08-0.08-0.1-0.14c-0.01-0.04-0.01-0.08-0.03-0.13
		c-0.05-0.1-0.11-0.17-0.2-0.23c-0.07-0.06-0.16-0.1-0.24-0.15c0.72-0.27,1.45-0.5,2.18-0.7c0.46-0.13,1.35-0.22,1.51-0.77
		c0.05-0.18,0.01-0.39-0.12-0.54C487.39,689.51,487.37,689.48,487.34,689.47z"/>
	<path class="st5" d="M535.55,689.12c-1.61-0.61-3.31-0.96-5-1.23c-0.81-0.13-1.61-0.29-2.42-0.39c-0.57-0.07-1.92-0.36-2.37,0.1
		c-0.31,0.31-0.38,0.97,0.06,1.2c0.4,0.21,1.17,0.04,1.61,0.07c0.48,0.04,0.95,0.09,1.42,0.16c-0.02,0.02-0.04,0.04-0.07,0.06
		c-0.24,0.19-0.5,0.34-0.71,0.56c-0.1,0.1-0.2,0.21-0.28,0.32c-0.06,0.09-0.07,0.17-0.05,0.27c0.01,0.07,0.02,0.11,0.01,0.18
		c0,0.02,0.03,0.04,0.05,0.03c0.05-0.03,0.08-0.05,0.13-0.06c0.09-0.02,0.14-0.01,0.21-0.07c0.11-0.09,0.19-0.21,0.3-0.31
		c0.1-0.09,0.2-0.17,0.3-0.25c0.11-0.08,0.23-0.18,0.36-0.23c0.24-0.1,0.52-0.1,0.77-0.2c0.09-0.04,0.19-0.07,0.32-0.1
		c1.56,0.28,3.12,0.55,4.64,1.02c1.47,0.46,3,1.14,4.16,2.17c1.24,1.11,2.13,2.56,3.2,3.82c0.01,0.02,0.04,0,0.04-0.02
		C541.09,692.92,538.86,690.38,535.55,689.12z"/>
	<path class="st5" d="M479.94,701.03c-0.32,0.11-0.6,0.35-0.86,0.56c-0.27,0.21-0.52,0.43-0.76,0.67c-0.49,0.48-0.92,1.02-1.32,1.58
		s-0.72,1.17-1,1.8c-0.15,0.33-0.29,0.66-0.51,0.96c-0.21,0.28-0.3,0.55-0.29,0.89c0,0.06,0.07,0.08,0.11,0.05
		c0.24-0.19,0.4-0.4,0.49-0.7c0.11-0.34,0.25-0.63,0.45-0.93c0.37-0.57,0.76-1.11,1.15-1.66c0.38-0.53,0.8-1.04,1.27-1.49
		c0.23-0.23,0.48-0.44,0.73-0.64c0.26-0.2,0.58-0.36,0.82-0.59C480.42,701.31,480.22,700.93,479.94,701.03z"/>
	<path class="st5" d="M491.58,708.11c-0.24,0.11-0.36,0.4-0.48,0.62c-0.14,0.27-0.28,0.54-0.41,0.81c-0.26,0.53-0.52,1.07-0.73,1.62
		c-0.21,0.56-0.38,1.14-0.51,1.72c-0.06,0.27-0.12,0.54-0.16,0.81c-0.04,0.31,0.01,0.59,0.01,0.89c0,0.04,0.07,0.05,0.07,0.01
		c0.05-0.29,0.17-0.57,0.24-0.86c0.07-0.29,0.13-0.58,0.23-0.86c0.18-0.55,0.41-1.08,0.65-1.61c0.24-0.52,0.48-1.02,0.75-1.53
		c0.23-0.43,0.7-1,0.63-1.51C491.87,708.09,491.69,708.06,491.58,708.11z"/>
	<path class="st5" d="M530.59,710.81c-0.08-0.34-0.16-0.67-0.25-1c-0.18-0.64-0.36-1.29-0.58-1.92c-0.2-0.56-0.43-1.12-0.69-1.66
		c-0.17-0.34-0.49-1.11-0.95-1.12c-0.02,0-0.05,0.02-0.06,0.04c-0.04,0.2,0.08,0.39,0.17,0.57c0.13,0.27,0.26,0.54,0.37,0.82
		c0.21,0.56,0.37,1.14,0.56,1.7c0.2,0.6,0.39,1.2,0.56,1.8c0.09,0.31,0.17,0.63,0.26,0.94c0.07,0.27,0.09,0.55,0.34,0.7
		c0.11,0.06,0.24,0.02,0.31-0.08C530.77,711.36,530.65,711.08,530.59,710.81z"/>
	<path class="st5" d="M538.88,697.71c-0.6-0.6-1.29-1.16-2.05-1.56c-0.38-0.2-0.77-0.38-1.17-0.53c-0.42-0.16-0.76-0.22-1.2-0.23
		c-0.02,0-0.02,0.02-0.01,0.03c0.17,0.11,0.32,0.23,0.5,0.32s0.36,0.17,0.54,0.27c0.36,0.19,0.71,0.4,1.04,0.64
		c0.66,0.47,1.27,0.98,1.81,1.58c1.08,1.2,1.93,2.62,2.37,4.19c0.03,0.13,0.14,0.19,0.27,0.2c0.05,0,0.09-0.01,0.14-0.04
		c0.11-0.06,0.15-0.19,0.13-0.31C540.94,700.57,540.13,698.95,538.88,697.71z"/>
	<path class="st5" d="M558.28,706.59L558.28,706.59c0.34-0.03,0.5-0.47,0.18-0.66c-0.45-0.27-0.94-0.36-1.45-0.46
		c-0.5-0.1-1.01-0.17-1.52-0.24c-0.99-0.13-1.97-0.18-2.92,0.19c-0.17,0.07-0.16,0.35,0.05,0.34c0.13,0,0.26,0.02,0.39,0.02
		c-1.1,0.28-2.18,0.75-3.17,1.23c-2.33,1.14-4.52,2.51-6.63,4.02c-1,0.72-1.97,1.47-2.93,2.24c-1.04,0.83-2.15,1.65-3.04,2.64
		c-0.15,0.17,0.04,0.43,0.24,0.32c1.96-1.09,3.71-2.67,5.56-3.96c1.82-1.27,3.71-2.46,5.69-3.48c1.94-1.01,4.13-2.09,6.38-1.93
		c1.13,0.08,2.19,0.5,2.97,1.33c0.7,0.76,1.1,1.75,1.61,2.63c0.31,0.54,1.05,0.15,0.96-0.4
		C560.39,708.91,559.51,707.5,558.28,706.59z"/>
	<path class="st5" d="M486.3,718.9c-2.02-2.12-4.43-3.94-6.79-5.65c-2.3-1.67-4.69-3.34-7.28-4.51c-1.12-0.51-2.33-1.04-3.57-1.13
		c-1.26-0.09-2.32,0.46-3.26,1.25c-1.62,1.35-3.05,3.51-2.68,5.69c0.05,0.32,0.53,0.28,0.61,0c0.56-2.16,1.38-4.12,3.46-5.21
		c2.18-1.15,4.96,0.51,6.87,1.6c4.33,2.46,8.16,5.73,12.59,8.04C486.29,718.99,486.34,718.93,486.3,718.9z"/>
	<path class="st5" d="M529.26,713.58c-0.7-0.3-1.36-0.69-2.08-0.94c-0.89-0.3-1.85-0.46-2.78-0.6c-1.69-0.25-3.38-0.32-5.08-0.33
		c-3.69-0.01-7.4,0.1-11.07,0.45c-1.27,0.12-2.54,0.3-3.8,0.5c-0.18,0.02-0.37,0.04-0.55,0.06c-1.83,0.26-3.65,0.63-5.43,1.14
		c-3.25,0.93-6.64,2.28-9.17,4.58c-1.31,0.84-2.58,1.73-3.76,2.74c-0.65,0.55-1.28,1.13-1.88,1.73c-0.68,0.68-1.22,1.45-1.87,2.16
		c-0.01,0.02,0.01,0.04,0.02,0.02c1.11-1.09,2.46-2.06,3.71-3c1.17-0.89,2.37-1.74,3.61-2.53c2.57-1.62,5.34-2.93,8.21-3.91
		c6.53-2.25,13.34-2.66,20.19-2.82c1.92-0.04,3.84-0.02,5.76,0.11c0.96,0.06,1.92,0.18,2.87,0.35c0.99,0.17,2.02,0.24,2.98,0.54
		C529.3,713.89,529.41,713.65,529.26,713.58z"/>
	<path class="st5" d="M480.53,725.58c-0.97,0.3-1.83,0.87-2.7,1.39c-0.89,0.53-1.75,1.13-2.58,1.75c-0.79,0.59-1.53,1.22-2.23,1.92
		c-0.36,0.36-0.71,0.74-1.04,1.13c-0.14,0.17-0.28,0.35-0.42,0.53c-0.16,0.21-0.2,0.39-0.29,0.64c-0.01,0.03,0.03,0.07,0.06,0.05
		c0.18-0.13,0.36-0.22,0.51-0.38c0.16-0.17,0.31-0.34,0.47-0.51c0.34-0.35,0.69-0.69,1.06-1.01c0.77-0.68,1.6-1.29,2.45-1.87
		c0.82-0.56,1.66-1.06,2.5-1.58s1.74-0.95,2.48-1.62C480.99,725.85,480.78,725.5,480.53,725.58z"/>
	<path class="st5" d="M551.37,729.06c-0.37-0.21-0.86-0.19-1.26-0.38c-0.5-0.24-0.89-0.63-1.28-1c-0.87-0.82-1.66-1.71-2.51-2.54
		c-1.74-1.68-3.48-3.48-5.44-4.89c-0.33-0.24-0.63,0.26-0.41,0.53c0.85,1.04,1.85,1.96,2.82,2.89c0.97,0.93,1.96,1.85,2.97,2.74
		c0.86,0.75,1.71,1.66,2.71,2.24c0.57,0.33,1.8,1.06,2.41,0.49C551.4,729.11,551.39,729.08,551.37,729.06z"/>
	<path class="st5" d="M561.06,715.8c0-0.06-0.08-0.06-0.09,0c-0.07,1.93-0.5,3.91-0.79,5.82c-0.29,1.91-0.6,3.81-1.06,5.69
		c-0.87,3.57-1.94,7.1-2.95,10.64c-0.18-0.07-0.37-0.13-0.57-0.18c-0.22-0.05-0.45-0.1-0.67-0.15c-0.25-0.06-0.49-0.18-0.72-0.29
		c-0.04-0.02-0.07,0.04-0.03,0.06c0.19,0.11,0.39,0.2,0.58,0.29c0.19,0.09,0.38,0.22,0.56,0.33c0.25,0.14,0.49,0.3,0.73,0.46
		c-0.03,0.3,0.18,0.5,0.43,0.55c0.12,1.34,0.48,2.64,0.78,3.96c0.35,1.49,0.71,2.97,0.97,4.48c0.55,3.11,0.62,6.23,0.62,9.38
		c0,3.09-0.07,6.19-0.38,9.27c-0.33,3.18-1.02,6.29-1.93,9.36c-0.19,0.63,0.75,0.86,0.97,0.27c2.2-5.96,2.48-12.6,2.49-18.89
		c0.01-3.14-0.03-6.27-0.59-9.37c-0.29-1.61-0.67-3.2-1.15-4.76c-0.37-1.19-0.74-2.37-1.3-3.47c0.07,0.08,0.16,0.14,0.23,0.22
		c0.12,0.15,0.22,0.31,0.32,0.46c0.12,0.17,0.25,0.32,0.37,0.49c0.17,0.23,0.53,0.1,0.47-0.2c-0.1-0.44-0.28-0.78-0.57-1.11
		c-0.19-0.21-0.42-0.38-0.65-0.56c1.14-3.73,2.2-7.47,2.95-11.31c0.36-1.82,0.74-3.65,0.95-5.5
		C561.24,719.73,561.1,717.8,561.06,715.8z"/>
	<path class="st5" d="M564.54,768.79c-0.27-0.29-0.54-0.58-0.82-0.85c-0.29-0.27-0.63-0.49-0.94-0.74c-0.3-0.24-0.61-0.48-0.94-0.69
		c-0.38-0.25-0.78-0.58-1.26-0.45c-0.28,0.07-0.37,0.38-0.25,0.62c0.2,0.41,0.7,0.5,1.09,0.66c0.34,0.14,0.7,0.28,1.03,0.43
		c0.34,0.16,0.65,0.37,0.99,0.54c0.35,0.18,0.7,0.37,1.04,0.57C564.53,768.89,564.58,768.83,564.54,768.79z"/>
	<path class="st5" d="M570.67,783.46c-2.07,2.47-5.45,3.42-8.54,3.48c-1.74,0.03-3.48-0.15-5.21-0.36
		c-0.94-0.11-1.88-0.26-2.81-0.41c-0.76-0.13-1.65-0.5-2.39-0.23c-0.27,0.1-0.44,0.47-0.18,0.7c0.64,0.57,1.62,0.53,2.44,0.65
		c0.98,0.15,1.97,0.27,2.95,0.39c1.99,0.23,4.02,0.46,6.02,0.3c1.62-0.12,3.24-0.49,4.7-1.23c1.45-0.73,2.41-1.79,3.11-3.23
		C570.77,783.48,570.71,783.42,570.67,783.46z"/>
	<path class="st5" d="M473.13,786.69c-3.6,0.23-7.23,0.44-10.83,0.18c-1.67-0.12-3.38-0.33-4.92-1.02c-0.76-0.34-1.6-0.78-2.09-1.48
		c-0.45-0.64-0.82-1.75-0.89-2.54c-0.01-0.07-0.11-0.07-0.11,0c-0.04,0.9-0.3,1.6,0.01,2.5c0.24,0.69,0.76,1.22,1.33,1.66
		c1.44,1.09,3.25,1.57,5.02,1.83c4.13,0.6,8.34,0.37,12.49,0.19C473.97,787.97,473.97,786.64,473.13,786.69z"/>
	<path class="st5" d="M469.45,739.5c-0.29,0.11-0.58,0.25-0.88,0.33c-0.15,0.04-0.31,0.07-0.45,0.12c-0.16,0.06-0.31,0.13-0.46,0.2
		c-0.25,0.11-0.51,0.18-0.76,0.27c-0.45-1.42-1.05-2.79-1.51-4.21c-0.48-1.49-0.89-3.01-1.24-4.54c-0.33-1.48-0.6-2.96-0.83-4.46
		c-0.12-0.75-0.2-1.49-0.3-2.24c-0.12-0.89-0.38-1.76-0.48-2.65c-0.01-0.07-0.11-0.07-0.11,0c-0.04,0.87-0.21,1.71-0.18,2.59
		c0.02,0.75,0.09,1.51,0.17,2.26c0.16,1.55,0.4,3.09,0.72,4.61c0.64,3.02,1.43,6.29,2.85,9.06c-0.04,0.03-0.08,0.04-0.12,0.07
		c-0.15,0.1-0.23,0.29-0.15,0.46c0.07,0.16,0.26,0.28,0.44,0.21c0.05-0.02,0.09-0.04,0.14-0.05c-0.92,1.99-1.27,4.35-1.51,6.48
		c-0.31,2.74-0.26,5.53-0.41,8.28c-0.16,2.86-0.47,5.77-0.28,8.64c0.17,2.54,0.47,5.1,0.94,7.6c0.26,1.36,0.57,2.72,1.02,4.03
		c0.41,1.21,0.89,2.63,1.79,3.57c0.18,0.19,0.54-0.01,0.45-0.26c-0.22-0.68-0.6-1.3-0.88-1.96c-0.34-0.78-0.61-1.59-0.84-2.41
		c-0.42-1.5-0.67-3.03-0.84-4.58c-0.37-3.29-0.68-6.6-0.56-9.91c0.13-3.46,0.32-6.92,0.5-10.38c0.08-1.54,0.15-3.08,0.33-4.61
		c0.2-1.71,0.74-3.27,1.29-4.89c0.02-0.05-0.01-0.08-0.01-0.12c0.19-0.13,0.38-0.27,0.59-0.39c0.27-0.16,0.52-0.31,0.77-0.51
		c0.26-0.21,0.56-0.37,0.85-0.55C469.51,739.54,469.49,739.48,469.45,739.5z"/>
	<path class="st5" d="M478.53,758.62c-2.92-1.11-6.31-1.65-8.88,0.52c-1.04,0.87-1.76,2.18-2.14,3.47
		c-0.47,1.56-0.35,3.19,0.09,4.74c0.01,0.05,0.08,0.03,0.07-0.02c-0.21-1.49-0.12-3.04,0.32-4.49c0.39-1.29,1.14-2.33,2.16-3.2
		c1.05-0.9,2.36-1.34,3.73-1.35c1.57-0.02,3.03,0.42,4.54,0.74C478.69,759.09,478.78,758.72,478.53,758.62z"/>
	<path class="st5" d="M555,760.71c-0.14-0.65-0.39-1.28-0.64-1.9c-0.18-0.42-0.41-0.81-0.69-1.17c-1.05-1.6-3.05-2.6-4.85-2.96
		c-1.24-0.25-2.49-0.23-3.74-0.03c-1.3,0.21-2.73,0.7-3.92,1.27c-0.14,0.07-0.04,0.3,0.11,0.26c0.6-0.18,1.17-0.42,1.78-0.57
		c0.66-0.16,1.33-0.23,2-0.3c1.18-0.12,2.39-0.13,3.56,0.11c0.99,0.2,1.95,0.57,2.8,1.12c0.76,0.49,1.34,1.09,1.9,1.75
		c0.15,0.25,0.31,0.5,0.44,0.76c0.26,0.54,0.48,1.09,0.72,1.64c0.59,1.34,0.29,2.68,0,4.05c-0.01,0.06,0.07,0.09,0.09,0.03
		C554.99,763.45,555.3,762.09,555,760.71z"/>
	<path class="st5" d="M530.06,743.72c-1.92-0.91-4.28-0.91-6.35-0.78c-1.06,0.07-2.11,0.2-3.16,0.38c-0.97,0.17-1.74,0.44-2.48,1.08
		c-0.09,0.08,0.03,0.21,0.13,0.16c0.86-0.39,1.91-0.47,2.84-0.53c0.96-0.06,1.93-0.13,2.89-0.16c0.97-0.03,1.94-0.02,2.9,0.09
		c0.99,0.11,1.9,0.41,2.86,0.69C530.21,744.81,530.59,743.97,530.06,743.72z"/>
	<path class="st5" d="M496.14,743.71c-2.12-0.31-4.39-0.14-6.5,0.11c-0.97,0.11-2,0.23-2.93,0.55c-0.54,0.19-1.42,0.55-1.5,1.2
		c-0.01,0.06,0.06,0.13,0.13,0.13c0.31-0.04,0.55-0.22,0.84-0.32c0.35-0.12,0.72-0.16,1.08-0.22c0.95-0.14,1.93-0.21,2.89-0.28
		c0.95-0.08,1.91-0.11,2.87-0.13c0.99-0.01,1.98,0.07,2.97,0.06C496.59,744.8,496.79,743.8,496.14,743.71z"/>
	<path class="st5" d="M495.51,738.08c-0.22-0.35-0.47-0.67-0.75-0.97c-0.56-0.61-1.25-1.13-2.01-1.47
		c-0.76-0.34-1.59-0.58-2.43-0.54c-0.44,0.02-0.88,0.13-1.25,0.39c-0.27,0.19-0.6,0.51-0.59,0.87c0,0.08,0.11,0.14,0.17,0.07
		c0.27-0.3,0.44-0.58,0.87-0.69c0.42-0.1,0.87-0.02,1.29,0.06c0.68,0.14,1.3,0.36,1.9,0.71c0.58,0.33,1.09,0.76,1.53,1.26
		c0.22,0.26,0.42,0.53,0.59,0.83c0.17,0.29,0.27,0.7,0.51,0.93c0.25,0.24,0.64,0.06,0.66-0.27
		C496.03,738.86,495.71,738.4,495.51,738.08z"/>
	<path class="st5" d="M527.11,734.59c-0.58-0.54-1.48-0.64-2.23-0.54c-0.85,0.12-1.62,0.52-2.34,0.98c-0.64,0.42-1.23,0.89-1.7,1.5
		c-0.39,0.49-0.86,1.23-0.82,1.88c0.01,0.1,0.12,0.12,0.17,0.05c0.18-0.24,0.3-0.52,0.47-0.77c0.18-0.26,0.39-0.49,0.62-0.72
		c0.45-0.45,0.98-0.84,1.53-1.16c0.59-0.35,1.22-0.66,1.88-0.83c0.7-0.19,1.29-0.09,1.94,0.21
		C527.02,735.37,527.46,734.91,527.11,734.59z"/>
	<path class="st5" d="M511.45,749.88c-2.09-0.33-4.22-0.33-6.32-0.08c-1.64,0.19-3.67,0.36-4.81,1.71
		c-0.05,0.05,0.02,0.12,0.08,0.08c0.68-0.57,1.54-0.78,2.39-0.94c0.95-0.18,1.9-0.32,2.86-0.41c1.92-0.17,3.83-0.14,5.75-0.02
		C511.6,750.23,511.64,749.91,511.45,749.88z"/>
	<path class="st5" d="M323.18,742.51c-2.42-0.49-4.97-0.9-7.43-0.49c-0.05,0.01-0.04,0.09,0.01,0.08c2.49-0.21,4.92,0.22,7.37,0.59
		C323.24,742.71,323.3,742.53,323.18,742.51z"/>
	
		<linearGradient id="SVGID_00000048460944983689057280000015444997441160410781_" gradientUnits="userSpaceOnUse" x1="486.5076" y1="91.6812" x2="484.2162" y2="117.5108" gradientTransform="matrix(1 0 0 -1 0 799.8898)">
		<stop  offset="0" style="stop-color:#A35E26"/>
		<stop  offset="0.3854" style="stop-color:#C77639;stop-opacity:0.6146"/>
		<stop  offset="1" style="stop-color:#FC9956;stop-opacity:0"/>
	</linearGradient>
	<path style="fill:url(#SVGID_00000048460944983689057280000015444997441160410781_);" d="M488.45,694.39
		c-0.02-0.26-0.06-0.55-0.23-0.74c-0.2-0.23-0.55-0.27-0.84-0.2s-0.55,0.26-0.79,0.44c-0.93,0.69-1.88,1.41-2.76,2.16
		c-0.77,0.66-1.47,1.49-1.6,2.53c-0.05,0.4-0.01,0.8,0.07,1.2c0.34,1.73,1.41,3.27,2.82,4.32c0.65,0.48,1.37,0.87,2.13,1.15
		c0.47,0.18,1.43,0.66,1.87,0.25c0.21-0.19,0.3-0.48,0.36-0.76c0.31-1.56-0.25-3.14-0.3-4.73c-0.01-0.42,0.01-0.84-0.05-1.26
		c-0.07-0.51-0.24-1-0.36-1.5C488.54,696.33,488.52,695.37,488.45,694.39z"/>
	
		<linearGradient id="SVGID_00000039850990527625602880000007454637917631782819_" gradientUnits="userSpaceOnUse" x1="529.9048" y1="95.2008" x2="527.7287" y2="120.2576" gradientTransform="matrix(1 0 0 -1 0 799.8898)">
		<stop  offset="0" style="stop-color:#A35E26"/>
		<stop  offset="0.3854" style="stop-color:#C77639;stop-opacity:0.6146"/>
		<stop  offset="1" style="stop-color:#FC9956;stop-opacity:0"/>
	</linearGradient>
	<path style="fill:url(#SVGID_00000039850990527625602880000007454637917631782819_);" d="M526.89,698.52
		c0.21,1.04,0.37,2.09,0.39,3.16c0.02,1.09,1.04,0.25,1.51-0.04c0.81-0.5,1.58-1.07,2.23-1.76c1.35-1.45,2.08-3.69,1.14-5.44
		c-0.44-0.82-1.18-1.43-1.98-1.89c-0.72-0.42-4.28-2.14-4.75-1.02c-0.11,0.25-0.06,0.54-0.01,0.81
		C525.81,694.42,526.47,696.45,526.89,698.52z"/>
	
		<linearGradient id="SVGID_00000014604343514613476370000002066899996513657741_" gradientUnits="userSpaceOnUse" x1="525.0118" y1="111.0277" x2="543.1529" y2="80.883" gradientTransform="matrix(1 0 0 -1 0 799.8898)">
		<stop  offset="0" style="stop-color:#A35E26"/>
		<stop  offset="0.1814" style="stop-color:#AB632A;stop-opacity:0.8186"/>
		<stop  offset="0.4676" style="stop-color:#C27237;stop-opacity:0.5324"/>
		<stop  offset="0.8208" style="stop-color:#E78B4A;stop-opacity:0.1792"/>
		<stop  offset="1" style="stop-color:#FC9956;stop-opacity:0"/>
	</linearGradient>
	<path style="fill:url(#SVGID_00000014604343514613476370000002066899996513657741_);" d="M538.4,709.4
		c-0.23,0.12-0.48,0.22-0.74,0.25c-0.38,0.04-0.75-0.1-1.12-0.21c-1.39-0.44-2.87-0.57-4.31-0.37c0.47,1-0.53,2.12-1.57,2.51
		s-2.24,0.45-3.1,1.15c2.87,1.05,5.69,2.27,8.41,3.66c3.6-3.28,7.48-6.27,11.58-8.91c0.87-0.56-1.49-2.12-1.94-2.57
		c-0.73-0.73-1.5-1.94-2.36-0.93c-0.75,0.88-1.07,2.18-1.87,3.1C540.55,708.03,539.54,708.83,538.4,709.4z"/>
	
		<linearGradient id="SVGID_00000021093265938669460960000000997204064616403133_" gradientUnits="userSpaceOnUse" x1="487.7077" y1="100.2318" x2="478.5018" y2="82.4518" gradientTransform="matrix(1 0 0 -1 0 799.8898)">
		<stop  offset="0" style="stop-color:#A35E26"/>
		<stop  offset="0.3854" style="stop-color:#C77639;stop-opacity:0.6146"/>
		<stop  offset="1" style="stop-color:#FC9956;stop-opacity:0"/>
	</linearGradient>
	<path style="fill:url(#SVGID_00000021093265938669460960000000997204064616403133_);" d="M490.49,713.3
		c-0.29-0.17-0.6-0.36-0.93-0.3c-0.17,0.03-0.32,0.12-0.48,0.18c-0.66,0.23-1.48-0.3-1.53-1c-0.03-0.39,0.13-0.79,0.04-1.17
		c-0.13-0.5-0.65-0.77-1.12-0.97c-2.4-1.01-4.96-1.65-7.2-2.98c-0.71-0.42-1.43-0.96-1.68-1.75c-0.19-0.59-0.09-1.23-0.18-1.84
		c-0.19-1.28-1.2-2.27-2.15-3.15c-0.11-0.11-0.24-0.22-0.4-0.21c-0.1,0-0.2,0.06-0.29,0.12c-1.9,1.24-3.11,3.47-3.12,5.74
		c0,0.37,0.03,0.75,0.2,1.07c0.2,0.39,0.57,0.66,0.92,0.92c3.54,2.55,7.07,5.11,10.61,7.66c1.26,0.91,2.54,1.84,3.53,3.04
		c0.17,0.21,0.37,0.45,0.64,0.47c0.21,0.02,0.4-0.1,0.57-0.21c1.72-1.12,3.4-2.37,5.08-3.55c0.8-0.56,1.07-0.77,0.21-1.14
		C492.31,713.87,491.36,713.8,490.49,713.3z"/>
	
		<linearGradient id="SVGID_00000122692455482654346360000016943414784694862768_" gradientUnits="userSpaceOnUse" x1="456.3034" y1="32.9267" x2="466.4159" y2="8.0448" gradientTransform="matrix(1 0 0 -1 0 799.8898)">
		<stop  offset="0" style="stop-color:#A35E26"/>
		<stop  offset="0.3854" style="stop-color:#C77639;stop-opacity:0.6146"/>
		<stop  offset="1" style="stop-color:#FC9956;stop-opacity:0"/>
	</linearGradient>
	<path style="fill:url(#SVGID_00000122692455482654346360000016943414784694862768_);" d="M458.56,782.86
		c1.69-0.46,3.13-1.68,4.03-3.18c0.47-0.78,0.92-1.73,1.81-1.95c0.65-0.16,1.34,0.15,1.82,0.61c0.49,0.46,0.83,1.05,1.21,1.59
		c1.94,2.75,5.22,4.6,6.29,7.79c-1.09,0.4-2.28,0.43-3.45,0.44c-2.6,0.02-5.2-0.03-7.8-0.16c-1.88-0.09-3.81-0.23-5.49-1.06
		c-1.01-0.5-3.08-1.94-2.47-3.33C455.1,782.3,457.4,783.18,458.56,782.86z"/>
	
		<linearGradient id="SVGID_00000034800885150320950810000000248577035561446053_" gradientUnits="userSpaceOnUse" x1="560.8176" y1="34.4011" x2="562.2813" y2="3.7976" gradientTransform="matrix(1 0 0 -1 0 799.8898)">
		<stop  offset="0" style="stop-color:#A35E26"/>
		<stop  offset="0.3854" style="stop-color:#C77639;stop-opacity:0.6146"/>
		<stop  offset="1" style="stop-color:#FC9956;stop-opacity:0"/>
	</linearGradient>
	<path style="fill:url(#SVGID_00000034800885150320950810000000248577035561446053_);" d="M559.89,788.61
		c2.79,0.28,5.83,0.21,8.08-1.46c1.44-1.07,2.41-2.76,2.61-4.54c0.02-0.16,0.02-0.33-0.09-0.45c-0.08-0.09-0.21-0.11-0.33-0.13
		c-1.38-0.2-2.78-0.29-4.17-0.28c-1.71,0.01-3.62,0.11-4.88-1.03c-1.08-0.97-1.44-2.67-2.72-3.34c-0.19-0.1-0.41-0.17-0.61-0.08
		c-0.16,0.07-0.25,0.22-0.34,0.37c-0.89,1.48-1.78,2.95-2.67,4.43c-0.63,1.05-1.86,2.47-1.93,3.76
		C552.7,788.48,558.02,788.42,559.89,788.61z"/>
	
		<linearGradient id="SVGID_00000090289668566799700840000009073077046848260261_" gradientUnits="userSpaceOnUse" x1="509.3284" y1="30.8291" x2="508.8692" y2="39.9205" gradientTransform="matrix(1 0 0 -1 0 799.8898)">
		<stop  offset="5.787037e-04" style="stop-color:#A3A29E"/>
		<stop  offset="0.3118" style="stop-color:#BDBCB7"/>
		<stop  offset="1" style="stop-color:#F2F1EB"/>
	</linearGradient>
	<path style="fill:url(#SVGID_00000090289668566799700840000009073077046848260261_);" d="M500.82,757.25
		c-0.01,0.88,0.78,1.69,0.55,2.54c-0.14,0.53-0.66,0.89-1.19,1.02c-0.53,0.14-1.09,0.1-1.64,0.12c-0.3,0.01-0.63,0.05-0.8,0.29
		c-0.25,0.36,0.04,0.83,0.32,1.17c1.1,1.3,2.55,2.66,4.24,2.42c1.43-0.21,2.51-1.54,3.94-1.73c1.6-0.2,2.97,1.06,4.49,1.58
		c1.57,0.54,3.33,0.26,4.85-0.4c1.52-0.66,2.85-1.69,4.16-2.71c0.2-0.16,0.42-0.34,0.47-0.6c0.06-0.34-0.24-0.65-0.57-0.75
		s-0.68-0.03-1.02,0.01c-0.97,0.13-2.01,0.11-2.83-0.42c-1.3-0.86-1.57-2.71-2.72-3.76c-0.83-0.77-2.01-1.01-3.14-1.15
		C507.94,754.65,500.85,753.68,500.82,757.25z"/>
	
		<linearGradient id="SVGID_00000056413800599594863410000009847372266663044781_" gradientUnits="userSpaceOnUse" x1="320.1" y1="38.8881" x2="320.0365" y2="51.3938" gradientTransform="matrix(1 0 0 -1 0 799.8898)">
		<stop  offset="5.787037e-04" style="stop-color:#A3A29E"/>
		<stop  offset="0.3118" style="stop-color:#BDBCB7"/>
		<stop  offset="1" style="stop-color:#F2F1EB"/>
	</linearGradient>
	<path style="fill:url(#SVGID_00000056413800599594863410000009847372266663044781_);" d="M311.06,753.78
		c0.01,0.02,0.03,0.03,0.04,0.05c0.66,0.73,1.78,0.11,2.47-0.23c0.67-0.33,1.39-0.6,2.13-0.62c0.72-0.02,1.42,0.19,2.11,0.41
		c2.58,0.84,5.27,1.92,7.93,1.39c1.73-0.34,4.76-1.75,3.71-3.97c-0.3-0.64-0.84-1.14-1.39-1.58c-1.8-1.43-3.95-2.41-6.2-2.87
		c-2.1-0.43-4.08-1.03-6.25-0.92c-2.41,0.12-3.7,1.54-4.63,3.71c-0.31,0.72-0.54,1.48-0.54,2.26
		C310.42,752.01,310.63,753.25,311.06,753.78z"/>
	
		<linearGradient id="SVGID_00000063610855052211746080000009021182024168053682_" gradientUnits="userSpaceOnUse" x1="411.6192" y1="69.1881" x2="401.5001" y2="103.1007" gradientTransform="matrix(1 0 0 -1 0 799.8898)">
		<stop  offset="0" style="stop-color:#A35E26"/>
		<stop  offset="0.3854" style="stop-color:#C77639;stop-opacity:0.6146"/>
		<stop  offset="1" style="stop-color:#FC9956;stop-opacity:0"/>
	</linearGradient>
	<path style="fill:url(#SVGID_00000063610855052211746080000009021182024168053682_);" d="M397.16,721.59
		c6.14-0.52,12.14-2.21,17.83-4.55c3.71-1.52,7.35-3.36,10.34-6.03s5.31-6.26,5.82-10.23c0.06-0.49,0.1-0.99-0.07-1.45
		c-0.26-0.73-0.97-1.19-1.68-1.51c-1.82-0.82-3.94-0.96-5.86-0.41c0.95,3,0.95,6.3-0.01,9.3c-0.2,0.63-0.51,1.32-1.14,1.54
		c-0.74,0.25-1.51-0.29-2.28-0.42c-1.73-0.3-3.08,1.36-4.29,2.63c-3.03,3.17-7.49,4.67-11.87,4.92s-8.74-0.64-13.01-1.64
		c-0.86,1.38-2,2.93-3.63,2.92c-0.59-0.01-1.16-0.23-1.71-0.45c-2.2-0.89-4.41-1.78-6.61-2.67c0.5,0.2-0.16,4.79,0.37,5.55
		c0.81,1.17,3.85,1.47,5.15,1.75C388.66,721.74,392.94,721.94,397.16,721.59z"/>
	
		<linearGradient id="SVGID_00000096033851464087043180000017645674331529299076_" gradientUnits="userSpaceOnUse" x1="426.4828" y1="7.7617" x2="393.6327" y2="86.3924" gradientTransform="matrix(1 0 0 -1 0 799.8898)">
		<stop  offset="0" style="stop-color:#A35E26"/>
		<stop  offset="0.3854" style="stop-color:#C77639;stop-opacity:0.6146"/>
		<stop  offset="1" style="stop-color:#FC9956;stop-opacity:0"/>
	</linearGradient>
	<path style="fill:url(#SVGID_00000096033851464087043180000017645674331529299076_);" d="M378.94,760.4
		c0.94-0.95,2.52-1.14,3.65-1.81c1.53-0.89,2.91-2.07,4.4-3.03c5.78-3.73,11.16-5.16,18.01-5.49c0.52-1.85-1.02-3.56-2.05-5.18
		c-1.01-1.6-1.59-3.46-1.67-5.35c-0.06-1.56,0.25-3.2,1.25-4.39c1.28-1.51,3.44-2.01,5.41-1.81s3.82,0.99,5.68,1.67
		s3.82,1.27,5.79,1.03c1.93-0.23,3.67-1.23,5.35-2.2c5.16-2.98,10.51-6.01,16.44-7.11c1.12-0.21,1.78-0.09,2.35-1.12
		c0.68-1.23,0.45-3.57,0.39-4.93c-0.15-3.37-1.01-6.66-1.86-9.91c-0.44-1.69-0.9-3.4-1.73-4.93c-1.74-3.18-5.18-5.36-8.8-5.58
		c-1.21,5.01-4.2,9.57-8.31,12.67c-2.75,2.07-5.93,3.48-9.16,4.67c-5.48,2.03-11.22,3.48-17.06,3.91
		c-5.54,0.4-10.64-0.75-16.06-1.76c-0.42-0.08-0.91-0.14-1.22,0.15c-0.21,0.19-0.28,0.49-0.33,0.77c-0.57,2.84-0.78,6.31-1.86,8.99
		c-0.93,2.3-3.09,3.93-2.63,6.72c0.23,1.37,1.09,2.54,1.8,3.74c2.82,4.75,3.4,10.76,1.52,15.96c-1.07,2.96-2.89,5.19-4.98,7.47
		c-1.8,1.97-4.07,3.95-4.67,6.69c-0.65,2.95,1.03,6.24,3.79,7.45c-1.91-2.1-2.72-5.41-1.27-7.86c1.05-1.78,2.83-3.02,4.31-4.4
		C376.99,763.98,377.47,761.9,378.94,760.4z"/>
	
		<linearGradient id="SVGID_00000067216486403449310630000016030595474602573717_" gradientUnits="userSpaceOnUse" x1="359.2814" y1="79.8875" x2="356.6878" y2="97.3776" gradientTransform="matrix(1 0 0 -1 0 799.8898)">
		<stop  offset="0" style="stop-color:#A35E26"/>
		<stop  offset="0.3854" style="stop-color:#C77639;stop-opacity:0.6146"/>
		<stop  offset="1" style="stop-color:#FC9956;stop-opacity:0"/>
	</linearGradient>
	<path style="fill:url(#SVGID_00000067216486403449310630000016030595474602573717_);" d="M357.35,716.75
		c0.1,0.1,0.22,0.21,0.36,0.19c0.12-0.01,0.21-0.1,0.29-0.18c2.6-2.64,5.19-5.28,7.79-7.92c0.28-0.28,0.58-0.63,0.53-1.02
		c-0.48-0.07-0.96,0.11-1.41,0.29c-3.52,1.34-7.18,2.33-10.89,2.95c-0.93,0.16-1.86,0.29-2.8,0.4c-0.57,0.07-1.66-0.09-1.88,0.58
		c-0.42,1.28,2.5,1.62,3.23,1.89C354.31,714.56,356.01,715.43,357.35,716.75z"/>
	<g>
		<g>
			<path d="M381.8,708.83c10.87,2.63,22.51,0.12,32.64-4.12c1.37-0.58,2.78-1.23,3.74-2.42c0.91-1.14,1.37-2.71,0.81-4.1
				c-0.2-0.5-0.67-0.85-1.23-0.7c-0.48,0.13-0.9,0.73-0.7,1.23c0.95,2.4-2.22,3.69-3.92,4.38c-2.3,0.93-4.64,1.76-7.02,2.45
				c-4.94,1.44-10.06,2.35-15.21,2.35c-2.89,0-5.76-0.31-8.58-0.99C381.08,706.6,380.55,708.53,381.8,708.83L381.8,708.83z"/>
		</g>
	</g>
	<g>
		<g>
			<path d="M418.69,698.45c-0.07-1.15-0.02-2.3,0.02-3.45c0.03-0.76-0.08-2.09,0.42-2.74c0.39-0.52,1.56-0.13,2.08-0.02
				c0.88,0.18,1.76,0.44,2.59,0.79c1.6,0.67,3.07,1.64,4.31,2.85c0.62,0.6,1.19,1.25,1.67,1.96c0.54,0.79,1.06,1.62,1,2.61
				c-0.08,1.29,1.92,1.28,2,0c0.11-1.85-1.1-3.52-2.23-4.87c-1.1-1.32-2.45-2.45-3.93-3.33c-1.45-0.87-3.05-1.52-4.7-1.88
				c-1.64-0.36-3.66-0.73-4.61,1.05c-0.52,0.97-0.55,2.19-0.6,3.27c-0.05,1.26-0.11,2.52-0.04,3.78
				C416.76,699.73,418.76,699.73,418.69,698.45L418.69,698.45z"/>
		</g>
	</g>
	<g>
		<g>
			<path d="M429.23,704.83c-2.6,5.47-7.85,8.96-13.35,11.09c-5.49,2.13-11.38,3.52-17.22,4.21c-3.13,0.37-6.33,0.57-9.46,0.18
				c-0.54-0.07-1,0.51-1,1c0,0.59,0.46,0.93,1,1c2.86,0.35,5.78,0.21,8.64-0.09c3.04-0.32,6.07-0.84,9.05-1.52
				c6.09-1.4,12.47-3.33,17.52-7.14c2.73-2.06,5.07-4.62,6.55-7.73C431.5,704.68,429.78,703.67,429.23,704.83L429.23,704.83z"/>
		</g>
	</g>
	<g>
		<g>
			<path d="M379.53,779.94c-6.51,1.56-13.03,3.23-19.68,4.09c-3.6,0.47-7.22,0.74-10.84,0.95c-4.46,0.26-8.94,0.45-13.41,0.3
				c-8.15-0.26-16.4-1.71-23.53-5.83c-3.15-1.82-6.01-4.12-8.34-6.92c-2.17-2.61-3.58-5.58-4.51-8.83
				c-1.89-6.59-2.09-14.01-0.03-20.59c1-3.17,2.74-5.89,4.7-8.55c0.69-0.93,1.4-1.86,2.13-2.76c0.26-0.32,0.43-0.6,0.49-1.02
				c0.1-0.74,0.12-1.49,0.1-2.24c-0.04-1.65-0.22-3.29-0.36-4.93c-0.18-2-0.24-4.02-0.24-6.03c0-2.32,0.09-4.63,0.28-6.94
				c0.09-1.13,0.21-2.27,0.35-3.4c0.11-0.92,0.13-2.03,0.54-2.87c0.38-0.78,1.3-1.06,2.07-1.32c0.99-0.33,2-0.67,3.04-0.81
				c1-0.13,2.01-0.04,2.9,0.45c0.92,0.51,1.71,1.24,2.52,1.9c3.42,2.82,6.89,5.59,10.31,8.4c0.41,0.33,0.81,0.77,1.26,1.03
				c0.53,0.31,1.23-0.03,1.77-0.17c1.05-0.26,2.11-0.47,3.18-0.63c2.17-0.32,4.38-0.42,6.57-0.39c2.29,0.03,4.57,0.27,6.86,0.17
				c2.25-0.1,4.49-0.44,6.69-0.92c2.17-0.47,4.3-1.07,6.43-1.7c1.93-0.58,4.11-1.02,5.71-2.32c1.43-1.17,2.02-3.03,3.29-4.35
				c1.18-1.23,2.64-2.18,4.16-2.93c1.5-0.74,3.1-1.29,4.73-1.63c-0.42-0.32-0.84-0.64-1.27-0.96c0.08,1.14,0.33,2.26,0.52,3.38
				c0.16,0.93,0.11,1.86,0.18,2.79c0.07,0.98,0.31,1.92,0.97,2.68c0.63,0.73,1.6,1.41,2.52,1.71c1.22,0.41,1.75-1.52,0.53-1.93
				c-0.59-0.2-1.38-0.78-1.71-1.32c-0.38-0.62-0.33-1.43-0.34-2.13c-0.02-1.76-0.55-3.45-0.67-5.2c-0.05-0.67-0.6-1.1-1.27-0.96
				c-2.88,0.6-5.74,1.82-8.09,3.6c-1.17,0.89-2.21,1.91-3.01,3.15c-0.41,0.63-0.75,1.32-1.21,1.91c-0.52,0.66-1.21,1.11-1.99,1.43
				c-1.66,0.68-3.47,1.11-5.19,1.61c-1.75,0.5-3.51,0.97-5.29,1.33c-1.84,0.38-3.7,0.65-5.58,0.74c-1.93,0.09-3.86-0.06-5.79-0.13
				c-4.18-0.16-8.44,0.18-12.47,1.33c0.32,0.09,0.65,0.17,0.97,0.26c-3.14-2.6-6.33-5.15-9.49-7.73c-1.5-1.22-2.95-2.67-4.63-3.66
				c-1.73-1.02-3.68-1.03-5.59-0.57c-0.92,0.22-1.83,0.51-2.71,0.84c-0.81,0.31-1.61,0.69-2.18,1.37c-0.58,0.69-0.84,1.53-0.98,2.41
				c-0.16,1.03-0.28,2.06-0.4,3.1c-0.46,4.2-0.61,8.44-0.44,12.66c0.07,1.7,0.24,3.39,0.38,5.09c0.12,1.5,0.33,3.18,0.06,4.65
				c0.09-0.15,0.17-0.29,0.26-0.44c-1.93,2.36-3.82,4.82-5.36,7.45c-1.99,3.39-2.98,7.27-3.42,11.15c-0.47,4.2-0.24,8.48,0.6,12.61
				c0.78,3.86,2.11,7.72,4.44,10.92c5.21,7.17,13.46,11.53,21.97,13.47c10.06,2.28,20.64,1.7,30.84,0.87
				c3.77-0.31,7.52-0.76,11.24-1.43c3.84-0.69,7.64-1.6,11.43-2.5c1.18-0.28,2.37-0.57,3.55-0.85
				C381.31,781.57,380.78,779.64,379.53,779.94L379.53,779.94z"/>
		</g>
	</g>
	<g>
		<g>
			<path d="M432.22,700.6c3.11,0.3,6.08,2.58,7.66,5.2c0.84,1.39,1.14,2.97,1.54,4.53c0.45,1.78,0.89,3.57,1.31,5.36
				c1.75,7.42,3.28,14.93,4.16,22.51c0.43,3.68,0.83,7.46,0.48,11.16c-0.17,1.87-0.6,3.76-1.34,5.49c-0.61,1.42-1.65,2.6-2.76,3.65
				c-2.38,2.24-5.19,4.04-7.82,5.97c-2.58,1.89-5.37,3.52-8.35,4.69c-5.85,2.31-12.17,3.05-18.31,4.18
				c-0.94,0.17-1.88,0.35-2.81,0.54c-1.26,0.25-0.73,2.18,0.53,1.93c6.57-1.3,13.37-1.97,19.72-4.19c3.13-1.1,6.1-2.59,8.85-4.45
				c1.41-0.95,2.75-2.01,4.14-3c1.45-1.03,2.9-2.06,4.27-3.2c1.32-1.09,2.55-2.3,3.51-3.73c1.02-1.53,1.6-3.38,1.97-5.17
				c0.81-3.86,0.52-7.86,0.14-11.76c-0.77-7.91-2.3-15.75-4.08-23.5c-0.43-1.89-0.88-3.77-1.35-5.65c-0.42-1.68-0.73-3.45-1.41-5.05
				c-1.37-3.21-4.31-5.79-7.57-6.96c-0.8-0.29-1.63-0.45-2.48-0.54c-0.54-0.05-1,0.5-1,1C431.22,700.18,431.68,700.55,432.22,700.6
				L432.22,700.6z"/>
		</g>
	</g>
	<g>
		<g>
			<path d="M357.1,719.56c2.24-2.84,4.68-5.52,7.3-8.02c1.32-1.26,2.69-2.48,4.1-3.64c1.14-0.94,2.4-2.08,3.89-2.38
				c1.39-0.28,2.74,0.75,3.64,1.71c1.05,1.13,1.64,2.56,1.93,4.07c0.34,1.79,0.25,3.65,0.12,5.45c-0.13,1.9-0.33,3.79-0.6,5.67
				c-0.62,4.25-1.61,8.45-2.92,12.54c-0.39,1.23,1.54,1.75,1.93,0.53c1.27-3.94,2.23-7.98,2.85-12.07c0.31-2.06,0.56-4.12,0.71-6.2
				c0.15-2.01,0.23-4.02-0.08-6.01c-0.28-1.76-0.93-3.43-2.04-4.84c-0.98-1.25-2.46-2.45-4.04-2.8c-1.77-0.39-3.47,0.4-4.89,1.4
				c-1.51,1.07-2.91,2.31-4.28,3.54c-3.28,2.94-6.29,6.17-9.02,9.62c-0.33,0.42-0.41,1,0,1.41
				C356.03,719.91,356.76,719.99,357.1,719.56L357.1,719.56z"/>
		</g>
	</g>
	<g>
		<g>
			<path d="M316.28,721.06c0.99-0.88,1.94-1.81,2.93-2.7c0.51-0.46,1.05-0.84,1.68-1.13c2.83-1.32,5.84-2.37,8.84-3.2
				c2.32-0.64,4.68-1.15,7.06-1.48c0.32-0.04,0.18-0.53-0.13-0.48c-4.07,0.57-8.1,1.61-11.94,3.08c-1.27,0.49-2.55,0.98-3.8,1.53
				c-0.65,0.29-1.24,0.63-1.78,1.09c-1.1,0.94-2.12,1.98-3.2,2.94C315.69,720.92,316.04,721.27,316.28,721.06L316.28,721.06z"/>
		</g>
	</g>
	<g>
		<g>
			<path d="M472.38,731.42c-1.42-4.49-3.19-8.96-3.54-13.7c-0.08-1.11-0.24-2.46,0.12-3.54c0.35-1.05,1.38-1.42,2.41-1.39
				c2.15,0.07,4.1,1.63,5.7,2.91c2.15,1.72,4.27,3.48,6.27,5.38c0.23,0.22,0.59-0.13,0.35-0.35c-2-1.9-4.13-3.65-6.27-5.38
				c-1.65-1.32-3.55-2.82-5.73-3.04c-0.82-0.08-1.7,0.03-2.37,0.53c-0.79,0.59-0.99,1.54-1.04,2.48c-0.11,2.6,0.32,5.22,0.96,7.73
				c0.73,2.88,1.75,5.67,2.65,8.5C472,731.86,472.48,731.73,472.38,731.42L472.38,731.42z"/>
		</g>
	</g>
	<g>
		<g>
			<path d="M308.4,724.91c-0.18-4.31-0.24-8.63-0.12-12.95c0.03-1.06,0.05-2.13,0.13-3.19c0.05-0.66,0.26-1.23,1.01-1.25
				c0.56-0.01,1.06,0.33,1.48,0.66c1.55,1.19,3,2.54,4.35,3.95c1.56,1.63,2.98,3.37,4.26,5.22c0.18,0.26,0.62,0.01,0.43-0.25
				c-2.45-3.53-5.44-6.92-8.93-9.46c-0.63-0.46-1.44-0.83-2.22-0.5c-0.79,0.33-0.86,1.11-0.9,1.87c-0.13,2.48-0.18,4.97-0.18,7.46
				c0,2.81,0.07,5.63,0.18,8.44C307.92,725.23,308.42,725.23,308.4,724.91L308.4,724.91z"/>
		</g>
	</g>
	<g>
		<g>
			<path d="M551.6,728.98c1.57-4.97,3.55-9.93,3.62-15.22c0.01-1.02,0.06-2.22-0.61-3.07c-0.5-0.64-1.28-0.92-2.07-0.97
				c-2.15-0.14-4.17,1.27-5.79,2.52c-2.4,1.86-4.75,3.83-6.95,5.92c-0.23,0.22,0.12,0.58,0.35,0.35c1.78-1.68,3.66-3.25,5.56-4.8
				c1.66-1.35,3.5-2.96,5.66-3.4c0.89-0.18,1.99-0.16,2.68,0.51c0.85,0.82,0.69,2.33,0.66,3.41c-0.08,2.37-0.55,4.71-1.17,6.99
				c-0.71,2.57-1.61,5.08-2.42,7.63C551.02,729.16,551.5,729.29,551.6,728.98L551.6,728.98z"/>
		</g>
	</g>
	<g>
		<g>
			<path d="M360.27,719.45c2.13-2.83,4.53-5.57,7.18-7.92c0.73-0.65,1.49-1.27,2.32-1.78c0.59-0.36,1.27-0.74,1.98-0.78
				c0.59-0.03,1.03,0.26,1.29,0.79c0.4,0.82,0.25,1.75,0.09,2.61c-0.19,0.98-0.4,1.96-0.64,2.93c-1.1,4.54-2.68,8.96-4.71,13.16
				c-0.14,0.29,0.29,0.54,0.43,0.25c1.91-3.97,3.44-8.12,4.54-12.39c0.27-1.04,0.51-2.09,0.73-3.15c0.19-0.94,0.44-1.93,0.26-2.89
				c-0.13-0.69-0.5-1.42-1.18-1.7c-1.41-0.58-3.13,0.72-4.17,1.52c-1.84,1.41-3.46,3.1-5,4.82c-1.23,1.37-2.43,2.78-3.54,4.26
				C359.65,719.45,360.08,719.7,360.27,719.45L360.27,719.45z"/>
		</g>
	</g>
	<g>
		<g>
			<path d="M357.34,716.47c-4.01-2.99-8.93-4.62-13.93-4.62c-0.32,0-0.32,0.5,0,0.5c4.92,0,9.73,1.61,13.67,4.55
				C357.35,717.09,357.6,716.66,357.34,716.47L357.34,716.47z"/>
		</g>
	</g>
	<g>
		<g>
			<path d="M315.8,753.1c0.06-0.38,0.05-0.77,0.06-1.15c0.01-0.22,0.01-0.44,0.02-0.65c0-0.09,0.01-0.18,0.01-0.27
				c0-0.04,0.01-0.07,0.01-0.11c0-0.02,0-0.03,0-0.05c0.01-0.06-0.01,0.05,0,0c0.02-0.13-0.03-0.27-0.17-0.31
				c-0.12-0.03-0.29,0.04-0.31,0.17c-0.06,0.38-0.05,0.77-0.06,1.15c-0.01,0.22-0.01,0.44-0.02,0.65c0,0.09-0.01,0.18-0.01,0.27
				c0,0.04-0.01,0.07-0.01,0.11c0,0.02,0,0.03,0,0.05c-0.01,0.06,0.01-0.05,0,0c-0.02,0.13,0.03,0.27,0.17,0.31
				C315.61,753.31,315.78,753.23,315.8,753.1L315.8,753.1z"/>
		</g>
	</g>
	<g>
		<g>
			<path d="M310.83,752.5c-0.23,0.5-0.3,1.08,0.07,1.53c0.38,0.47,1,0.48,1.56,0.39c0.36-0.06,0.71-0.18,1.05-0.32
				c0.25-0.1,0.5-0.2,0.73-0.34c0.17-0.11,0.33-0.23,0.51-0.32c0.26-0.12,0.53-0.15,0.81-0.15c0.32,0,0.32-0.5,0-0.5
				c-0.45,0-0.88,0.09-1.27,0.33c-0.15,0.09-0.29,0.2-0.44,0.29c-0.23,0.13-0.49,0.22-0.74,0.31c-0.46,0.17-1.14,0.41-1.61,0.16
				c-0.43-0.23-0.41-0.74-0.23-1.13C311.4,752.46,310.97,752.21,310.83,752.5L310.83,752.5z"/>
		</g>
	</g>
	<g>
		<g>
			<path d="M329.68,752.15c-0.61,1.09-1.69,1.76-2.84,2.18c-0.66,0.24-1.38,0.46-2.09,0.5c-0.66,0.04-1.35-0.03-2.01-0.09
				c-2.51-0.23-4.6-2.06-7.18-1.96c-0.32,0.01-0.32,0.51,0,0.5c1.43-0.06,2.73,0.51,4.03,1.05c1.32,0.55,2.55,0.87,3.98,0.97
				c2.36,0.17,5.32-0.71,6.55-2.9C330.27,752.12,329.84,751.87,329.68,752.15L329.68,752.15z"/>
		</g>
	</g>
	<g>
		<g>
			<path d="M313.77,754.05c0.59,0.85,1.7,0.99,2.66,1.02c1.27,0.03,2.53-0.22,3.77-0.47c0.32-0.06,0.18-0.54-0.13-0.48
				c-1.08,0.22-2.17,0.43-3.28,0.45c-0.83,0.01-2.05,0-2.58-0.77C314.02,753.54,313.58,753.79,313.77,754.05L313.77,754.05z"/>
		</g>
	</g>
	<g>
		<g>
			<path d="M314.01,760.79c1.49,0.64,3.09,0.83,4.69,0.79c1.53-0.04,3.27-0.1,4.68-0.72c0.29-0.13,0.04-0.56-0.25-0.43
				c-0.73,0.32-1.53,0.41-2.32,0.5c-0.7,0.08-1.41,0.14-2.11,0.15c-1.51,0.04-3.04-0.12-4.44-0.73
				C313.97,760.23,313.72,760.66,314.01,760.79L314.01,760.79z"/>
		</g>
	</g>
	<path d="M315.41,751.41c-0.66-0.27-2.3-1.05-3.15-2.51c-0.66-1.13-0.11-2.6,1.12-3.03c1.57-0.55,4.25-0.75,6.95-0.03
		c1.36,0.36,1.79,1.61,1.03,2.8c-0.85,1.34-2.44,2.78-5.39,2.87C315.78,751.52,315.59,751.48,315.41,751.41z"/>
	<path d="M505.63,760.84c-0.03,0-0.06-0.01-0.09-0.02c-0.27-0.05-0.52-0.15-0.77-0.26c-0.51-0.21-1.01-0.47-1.49-0.76
		c-0.66-0.41-1.27-0.91-1.74-1.52c-0.93-1.19-0.45-2.79,0.98-3.3c1.82-0.64,5.02-0.95,8.36-0.27c1.68,0.34,2.34,1.68,1.58,2.98
		c-0.61,1.05-1.76,1.79-2.81,2.34c-0.4,0.21-0.83,0.44-1.27,0.56c-0.27,0.07-0.53,0.16-0.81,0.2c-0.3,0.04-0.6,0.06-0.9,0.07
		C506.33,760.89,505.98,760.89,505.63,760.84z"/>
	<path d="M317.47,735.94c-2.72-0.66-5.53-0.69-8.26-0.09c-0.78,0.17-0.45,1.46,0.33,1.29c2.51-0.55,5.11-0.51,7.6,0.09
		C317.91,737.42,318.24,736.13,317.47,735.94z"/>
	<path d="M342.87,738.53c-3.89-1.74-8.05-2.38-12.16-1.85c-0.67,0.09-0.68,1.43,0,1.34c4.02-0.52,8.06,0.09,11.88,1.8
		C343.23,740.11,343.51,738.81,342.87,738.53z"/>
	<path d="M340.7,738.78c0.04,0.83-0.44,2.09-0.63,2.53c-0.27,0.63-0.81,1.66-1.64,1.59c-1.04-0.09-1.72-2.07-1.53-4.43
		c0.02-0.3-0.01-0.56,0.31-0.72c0.2-0.1,0.42-0.1,0.64-0.09c0.83,0.02,1.67,0.11,2.45,0.39
		C340.57,738.15,340.68,738.42,340.7,738.78z"/>
	<path d="M316.73,737.09c-0.19,2.36-1.19,4.2-2.23,4.12c-0.77-0.06-1.14-1.02-1.31-1.65c-0.15-0.54-0.22-1.1-0.24-1.66
		c-0.01-0.4-0.14-1.39,0.19-1.7c0.11-0.1,0.26-0.14,0.4-0.17c0.91-0.19,1.86-0.06,2.79-0.07
		C316.98,735.95,316.77,736.66,316.73,737.09z"/>
	<g>
		<g>
			<path d="M317.58,730.04c-0.83-1.01-1.9-1.85-3.09-2.4c-0.89-0.41-2.43-0.81-3.13,0.17c-0.66,0.94,0.56,2.22,1.21,2.82
				c0.9,0.83,2.09,1.52,3.31,1.71c0.58,0.09,1.2,0.06,1.66-0.35c0.38-0.33,0.6-0.84,0.38-1.32c-0.07-0.15-0.28-0.02-0.22,0.13
				c0.22,0.47-0.19,0.99-0.6,1.19c-0.48,0.24-1.09,0.14-1.59,0.01c-1-0.27-1.95-0.83-2.72-1.52c-0.56-0.51-1.91-1.86-1.13-2.64
				c0.81-0.82,2.24-0.26,3.08,0.19c1.02,0.55,1.93,1.28,2.66,2.18C317.51,730.35,317.68,730.17,317.58,730.04L317.58,730.04z"/>
		</g>
	</g>
	<g>
		<g>
			<path d="M334.04,731.28c1.52-0.78,3.25-1.26,4.96-1.39c0.86-0.06,1.8-0.04,2.58,0.35c0.34,0.17,0.78,0.47,0.8,0.89
				c0.03,0.47-0.49,0.84-0.84,1.07c-1.38,0.92-3.08,1.36-4.71,1.49c-0.81,0.06-1.65,0.07-2.43-0.17c-0.63-0.19-1.79-1.05-0.98-1.75
				c0.12-0.1-0.06-0.28-0.18-0.18c-0.37,0.32-0.4,0.78-0.19,1.21c0.28,0.56,0.84,0.85,1.42,1c1.58,0.41,3.41,0.13,4.94-0.35
				c0.74-0.23,1.47-0.54,2.13-0.95c0.47-0.29,1.11-0.74,1.09-1.36c-0.02-0.52-0.51-0.89-0.93-1.11c-0.72-0.37-1.57-0.43-2.37-0.4
				c-1.86,0.07-3.76,0.6-5.41,1.44C333.77,731.14,333.9,731.35,334.04,731.28L334.04,731.28z"/>
		</g>
	</g>
	<path d="M496.29,744.62c-3.56-0.55-7.18-0.34-10.66,0.6c-0.99,0.27-0.46,1.78,0.53,1.51c3.19-0.87,6.54-1.05,9.81-0.54
		C496.99,746.34,497.31,744.78,496.29,744.62z"/>
	<path d="M495.02,746.27c-0.04,2.82-1.08,5.09-2.32,5.07c-0.92-0.01-1.43-1.12-1.69-1.85c-0.22-0.63-0.35-1.29-0.42-1.95
		c-0.05-0.48-0.28-1.65,0.09-2.04c0.12-0.13,0.3-0.19,0.47-0.24c1.07-0.3,2.21-0.22,3.32-0.31
		C495.22,744.9,495.02,745.76,495.02,746.27z"/>
	<path d="M529.98,744.26c-3.86-0.76-7.82-0.76-11.69-0.02c-1.1,0.21-0.62,1.75,0.48,1.54c3.55-0.68,7.22-0.67,10.76,0.03
		C530.62,746.02,531.08,744.48,529.98,744.26z"/>
	<path d="M528.19,745.64c-0.21,2.81-1.38,5.02-2.62,4.93c-0.92-0.07-1.37-1.21-1.58-1.95c-0.18-0.64-0.27-1.31-0.3-1.97
		c-0.02-0.48-0.19-1.66,0.21-2.03c0.13-0.12,0.31-0.17,0.48-0.21c1.09-0.24,2.22-0.09,3.33-0.11
		C528.47,744.29,528.23,745.13,528.19,745.64z"/>
	<g>
		<g>
			<path d="M494.99,738.53c-0.86-1.05-1.98-1.93-3.21-2.5c-0.92-0.43-2.52-0.84-3.25,0.18c-0.69,0.97,0.59,2.31,1.26,2.93
				c0.93,0.86,2.17,1.58,3.44,1.78c0.6,0.1,1.24,0.06,1.72-0.36c0.39-0.34,0.63-0.87,0.39-1.36c-0.07-0.15-0.28-0.02-0.22,0.13
				c0.23,0.49-0.2,1.03-0.63,1.25c-0.5,0.25-1.14,0.15-1.65,0.01c-1.04-0.28-2.03-0.86-2.83-1.58c-0.59-0.53-1.99-1.94-1.18-2.75
				c0.84-0.85,2.34-0.28,3.21,0.19c1.06,0.57,2.01,1.33,2.77,2.27C494.92,738.83,495.09,738.65,494.99,738.53L494.99,738.53z"/>
		</g>
	</g>
	<g>
		<g>
			<path d="M520.72,737.87c0.66-0.81,1.47-1.5,2.37-2.04c0.93-0.56,2.26-1.2,3.32-0.64c1.21,0.64,0,2.08-0.62,2.71
				c-0.74,0.75-1.66,1.33-2.65,1.7c-0.58,0.21-1.27,0.39-1.88,0.22c-0.52-0.15-1.12-0.75-0.85-1.33c0.07-0.14-0.15-0.27-0.22-0.13
				c-0.2,0.42-0.06,0.86,0.23,1.2c0.37,0.43,0.9,0.58,1.45,0.56c1.26-0.04,2.54-0.74,3.5-1.51c0.49-0.39,0.92-0.84,1.28-1.35
				c0.32-0.45,0.67-1.06,0.48-1.63c-0.39-1.16-2.09-0.95-2.95-0.62c-1.41,0.53-2.69,1.52-3.64,2.68
				C520.45,737.82,520.62,737.99,520.72,737.87L520.72,737.87z"/>
		</g>
	</g>
	<g>
		<g>
			<path d="M330.73,748.71c1.17,0.94,2.59,1.6,3.92,2.27c1.07,0.54,2.05,0.98,3.26,1.16c1.97,0.3,3.96,0.24,5.94,0.33
				c1.12,0.05,2.2,0.03,3.31-0.14c1.29-0.21,2.55-0.54,3.84-0.77c1.4-0.25,2.82-0.41,4.24-0.49c1.36-0.08,2.82-0.18,4.16,0.14
				c2.31,0.56,3.77,2.67,4.2,4.92c1.03,5.31-3.03,10.02-3.15,15.24c-0.1,4.5,2.51,8.89,6.48,10.99c0.14,0.07,0.27-0.14,0.13-0.22
				c-3.84-2.03-6.39-6.23-6.36-10.59c0.03-5.2,3.93-9.74,3.22-15.02c-0.24-1.79-1.09-3.58-2.55-4.68c-1.92-1.44-4.6-1.17-6.85-1
				c-1.27,0.1-2.55,0.25-3.81,0.49c-1.28,0.25-2.55,0.57-3.84,0.76c-1.17,0.17-2.3,0.12-3.48,0.08c-1-0.03-2.01-0.04-3.01-0.09
				c-1.74-0.08-3.4-0.27-4.98-1.04c-1.52-0.75-3.17-1.48-4.5-2.55C330.79,748.43,330.61,748.6,330.73,748.71L330.73,748.71z"/>
		</g>
	</g>
	<g>
		<g>
			<path d="M309.32,747.46c-1.65,1.56-3.97,1.17-6.03,1.5c-1.62,0.26-3.1,1.09-4.22,2.28c-2.44,2.61-2.83,6.63-1.19,9.77
				c0.07,0.14,0.29,0.02,0.22-0.13c-1.73-3.32-1.09-7.66,1.83-10.1c1.54-1.29,3.27-1.62,5.22-1.73c1.57-0.09,3.17-0.28,4.36-1.41
				C309.62,747.53,309.44,747.35,309.32,747.46L309.32,747.46z"/>
		</g>
	</g>
	<g>
		<g>
			<path d="M311.08,746.1c2.47-2.92,6.26-2.65,9.7-2.16c1.6,0.23,3.22,0.59,4.67,1.33c1.32,0.67,2.33,1.97,3.78,2.37
				c0.16,0.04,0.22-0.2,0.07-0.24c-0.92-0.25-1.58-0.89-2.32-1.45c-0.66-0.51-1.38-0.92-2.15-1.24c-1.47-0.61-3.06-0.9-4.64-1.09
				c-1.72-0.22-3.51-0.41-5.23-0.08c-1.6,0.31-3.01,1.15-4.06,2.39C310.8,746.05,310.97,746.23,311.08,746.1L311.08,746.1z"/>
		</g>
	</g>
	<g>
		<g>
			<path d="M417.82,704.6c2.17,1.43,3.75,3.66,4.38,6.18c0.04,0.16,0.28,0.09,0.24-0.07c-0.65-2.58-2.27-4.86-4.5-6.33
				C417.81,704.3,417.68,704.51,417.82,704.6L417.82,704.6z"/>
		</g>
	</g>
	<g>
		<g>
			<path d="M389.13,713.65c0.06,1.52,0.13,3.05,0.19,4.57c0.01,0.16,0.26,0.16,0.25,0c-0.06-1.52-0.13-3.05-0.19-4.57
				C389.37,713.49,389.12,713.49,389.13,713.65L389.13,713.65z"/>
		</g>
	</g>
	<g>
		<g>
			<path d="M420.67,697.38c2.14-0.75,4.51-0.68,6.59,0.23c0.15,0.06,0.27-0.15,0.13-0.22c-2.14-0.93-4.58-1.03-6.78-0.25
				C420.45,697.19,420.51,697.43,420.67,697.38L420.67,697.38z"/>
		</g>
	</g>
	<g>
		<g>
			<path d="M486.79,687.71c-3.38,0.69-6.27,2.26-8.82,4.57c-1.41,1.28-2.81,2.73-3.63,4.48c-0.41,0.88-0.55,1.81-0.85,2.72
				c-0.29,0.9-0.98,1.48-1.56,2.18c-1.43,1.73-1.68,3.89-1.74,6.05c-0.04,1.29,1.96,1.29,2,0c0.04-1.63,0.13-3.41,1.23-4.72
				c0.56-0.68,1.23-1.28,1.64-2.07c0.4-0.8,0.56-1.67,0.8-2.52c0.48-1.68,1.78-3.08,3.03-4.25c1.09-1.03,2.25-1.98,3.55-2.74
				c1.52-0.89,3.18-1.43,4.9-1.78C488.58,689.38,488.05,687.45,486.79,687.71L486.79,687.71z"/>
		</g>
	</g>
	<g>
		<g>
			<path d="M525.73,687.89c3.9,0.1,7.99,0.76,11.35,2.85c1.65,1.03,3.04,2.43,3.98,4.13c1.26,2.27,1.61,4.89,1.74,7.45
				c0.04,0.72,0.08,1.43,0.52,2.04c0.36,0.5,0.85,0.86,1.35,1.22c0.76,0.54,1.82,1.02,1.98,2.03c0.08,0.53,0.75,0.83,1.23,0.7
				c0.57-0.16,0.78-0.69,0.7-1.23c-0.18-1.13-1.01-1.9-1.89-2.53c-0.39-0.28-0.81-0.53-1.2-0.83c-0.5-0.39-0.65-0.64-0.68-1.28
				c-0.14-2.81-0.53-5.65-1.82-8.19c-2-3.92-5.91-6.28-10.05-7.39c-2.35-0.63-4.79-0.9-7.21-0.96
				C524.45,685.86,524.45,687.86,525.73,687.89L525.73,687.89z"/>
		</g>
	</g>
	<g>
		<g>
			<path d="M466.69,740.88c-1.38-3.73-2.25-7.62-2.83-11.55c-0.56-3.77-1.04-7.66-0.84-11.47c0.09-1.82,0.39-3.63,1.01-5.35
				c0.53-1.47,1.34-3.11,2.8-3.85c1.51-0.77,3.35-0.23,4.8,0.43c1.69,0.77,3.31,1.75,4.88,2.74c3.55,2.24,6.85,4.86,9.84,7.8
				c0.92,0.9,2.33-0.51,1.41-1.41c-2.88-2.82-6.03-5.37-9.41-7.58c-1.65-1.08-3.36-2.12-5.13-3c-1.77-0.88-3.72-1.58-5.72-1.27
				c-3.93,0.61-5.59,5.18-6.16,8.59c-0.68,4.07-0.25,8.23,0.25,12.3c0.59,4.81,1.5,9.6,3.19,14.16
				C465.21,742.61,467.14,742.09,466.69,740.88L466.69,740.88z"/>
		</g>
	</g>
	<g>
		<g>
			<path d="M558.58,738.86c1.49-4.03,2.38-8.24,2.97-12.48c0.56-4.07,1.11-8.29,0.68-12.39c-0.21-2.01-0.66-3.97-1.49-5.82
				c-0.71-1.59-1.83-3.17-3.46-3.91c-3.73-1.68-7.89,1.1-10.97,3c-3.87,2.39-7.47,5.22-10.72,8.41c-0.92,0.9,0.49,2.32,1.41,1.41
				c2.65-2.6,5.54-4.96,8.64-7.02c1.54-1.02,3.12-1.97,4.75-2.85c1.49-0.8,3.25-1.67,5-1.45c1.63,0.2,2.68,1.51,3.37,2.89
				c0.81,1.61,1.26,3.44,1.45,5.23c0.42,3.79-0.04,7.66-0.52,11.42c-0.57,4.43-1.49,8.84-3.04,13.04
				C556.21,739.54,558.14,740.06,558.58,738.86L558.58,738.86z"/>
		</g>
	</g>
	<g>
		<g>
			<path d="M480.63,726.2c3.26-3.6,6.59-7.04,10.84-9.47c4.26-2.43,8.92-3.55,13.76-4.09c2.48-0.28,4.98-0.46,7.48-0.61
				c2.45-0.15,4.9-0.28,7.35-0.21c2.42,0.07,4.84,0.35,7.16,1.07c1.66,0.51,3.22,1.28,4.77,2.06c1.07,0.54,2.12,1.15,3.19,1.69
				c1.05,0.53,1.97,1.14,2.91,1.85c1.14,0.86,2.29,1.68,3.33,2.67c0.23,0.22,0.59-0.13,0.35-0.35c-0.88-0.84-1.84-1.59-2.83-2.31
				c-0.93-0.68-1.82-1.43-2.84-1.98c-0.93-0.5-1.89-0.98-2.83-1.47c-1.49-0.78-3-1.54-4.57-2.16c-2.09-0.84-4.34-1.25-6.57-1.44
				c-2.49-0.21-5-0.14-7.49-0.01c-2.6,0.13-5.2,0.31-7.8,0.55c-4.85,0.46-9.64,1.29-14.04,3.48c-2.35,1.17-4.56,2.63-6.55,4.33
				c-2.16,1.85-4.07,3.96-5.98,6.06C480.06,726.08,480.41,726.43,480.63,726.2L480.63,726.2z"/>
		</g>
	</g>
	<g>
		<g>
			<path d="M482.2,702.06c1.34,3.56,5.63,4.74,8.98,5.5c4.11,0.94,8.36,1.15,12.56,1.1c8.05-0.08,16.34-0.95,23.65-4.58
				c1.92-0.96,3.82-2.12,5.06-3.92c1.21-1.76,1.52-4.09,0.53-6.01c-0.59-1.14-2.32-0.13-1.73,1.01c0.73,1.4,0.21,3.11-0.74,4.28
				c-1.08,1.33-2.63,2.17-4.13,2.92c-3.27,1.63-6.82,2.65-10.4,3.3c-3.55,0.64-7.16,0.89-10.76,0.98
				c-3.82,0.09-7.69,0.03-11.47-0.61c-2.06-0.35-4.13-0.85-6.08-1.61c-1.39-0.55-2.98-1.41-3.53-2.89c-0.19-0.51-0.68-0.85-1.23-0.7
				C482.42,700.96,482.01,701.55,482.2,702.06L482.2,702.06z"/>
		</g>
	</g>
	<g>
		<g>
			<path d="M482.61,698.57c0.14-1.41,1.31-2.45,2.33-3.31c1-0.85,2.11-1.46,3.38-1.79c0.31-0.08,0.18-0.56-0.13-0.48
				c-1.38,0.36-2.58,1.05-3.66,1.98c-1.11,0.95-2.25,2.07-2.4,3.61C482.08,698.89,482.58,698.89,482.61,698.57L482.61,698.57z"/>
		</g>
	</g>
	<g>
		<g>
			<path d="M531.27,693.13c-0.18-0.48-0.56-0.78-1.01-0.99c-0.51-0.24-1.06-0.42-1.59-0.61c-1.05-0.37-2.1-0.56-3.22-0.54
				c-0.32,0.01-0.32,0.51,0,0.5c0.98-0.02,1.91,0.13,2.84,0.44c0.46,0.16,0.92,0.33,1.38,0.51c0.42,0.16,0.94,0.36,1.11,0.82
				C530.9,693.56,531.38,693.43,531.27,693.13L531.27,693.13z"/>
		</g>
	</g>
	<g>
		<g>
			<path d="M485.4,703.74c-0.41-0.38-0.35-1-0.16-1.49c0.22-0.56,0.64-1.05,1.09-1.44c0.85-0.73,1.89-1.14,2.95-1.46
				c0.31-0.09,0.18-0.58-0.13-0.48c-1.24,0.38-2.45,0.88-3.4,1.8c-0.82,0.79-1.76,2.44-0.7,3.43
				C485.28,704.31,485.63,703.96,485.4,703.74L485.4,703.74z"/>
		</g>
	</g>
	<g>
		<g>
			<path d="M530.59,700.6c0.36-0.47,0.33-1.13,0.06-1.64c-0.3-0.58-0.87-0.93-1.41-1.27c-0.44-0.27-0.86-0.59-1.32-0.81
				c-0.5-0.24-1.02-0.33-1.57-0.37c-0.32-0.02-0.32,0.48,0,0.5c0.45,0.03,0.9,0.1,1.32,0.3c0.39,0.18,0.74,0.44,1.1,0.67
				c0.46,0.3,0.98,0.55,1.31,1.01c0.29,0.4,0.38,0.94,0.07,1.35c-0.08,0.11-0.02,0.28,0.09,0.34
				C530.37,700.77,530.5,700.71,530.59,700.6L530.59,700.6z"/>
		</g>
	</g>
	<g>
		<g>
			<path d="M475.37,707.32c0.86-2.61,2.52-5.05,4.94-6.43c0.14-0.08,0.01-0.3-0.13-0.22c-2.48,1.42-4.17,3.91-5.06,6.58
				C475.08,707.41,475.32,707.47,475.37,707.32L475.37,707.32z"/>
		</g>
	</g>
	<g>
		<g>
			<path d="M482.89,692.24c0.56,0.09,1.09,0.29,1.57,0.59c0.14,0.09,0.26-0.13,0.13-0.22c-0.5-0.31-1.05-0.52-1.63-0.62
				c-0.07-0.01-0.13,0.02-0.15,0.09C482.78,692.14,482.82,692.23,482.89,692.24L482.89,692.24z"/>
		</g>
	</g>
	<g>
		<g>
			<path d="M528.01,690.47c0.44-0.5,1.03-0.86,1.68-1.02c0.16-0.04,0.09-0.28-0.07-0.24c-0.69,0.17-1.32,0.55-1.79,1.09
				C527.72,690.41,527.9,690.59,528.01,690.47L528.01,690.47z"/>
		</g>
	</g>
	<g>
		<g>
			<path d="M534.3,695.36c0.97,0.04,1.86,0.46,2.68,0.97c0.74,0.46,1.46,0.99,2.08,1.62c1.3,1.31,2.06,3.06,2.22,4.89
				c0.01,0.16,0.26,0.16,0.25,0c-0.17-1.9-0.94-3.7-2.29-5.06c-0.65-0.65-1.41-1.21-2.19-1.69c-0.84-0.51-1.75-0.92-2.75-0.96
				C534.14,695.1,534.14,695.35,534.3,695.36L534.3,695.36z"/>
		</g>
	</g>
	<g>
		<g>
			<path d="M527.93,705.04c0.7,0.93,1.37,1.88,1.8,2.97c0.44,1.13,0.66,2.34,0.69,3.55c0,0.16,0.25,0.16,0.25,0
				c-0.04-1.23-0.25-2.46-0.7-3.61c-0.44-1.11-1.12-2.08-1.83-3.03C528.05,704.78,527.83,704.91,527.93,705.04L527.93,705.04z"/>
		</g>
	</g>
	<g>
		<g>
			<path d="M491.62,707.93c-0.71,0.95-1.39,1.92-1.83,3.03c-0.45,1.15-0.67,2.38-0.7,3.61c0,0.16,0.25,0.16,0.25,0
				c0.04-1.21,0.25-2.42,0.69-3.55c0.43-1.09,1.11-2.04,1.8-2.97C491.93,707.93,491.71,707.8,491.62,707.93L491.62,707.93z"/>
		</g>
	</g>
	<g>
		<g>
			<path d="M464.77,740.88c-1.5,5.85-2.07,11.97-2.16,18c-0.04,2.76,0.03,5.52,0.25,8.27c0.2,2.41,0.47,4.86,1.15,7.19
				c1.66,5.69,5.51,10.42,10.06,14.1c1.03,0.83,2.06,1.62,3.25,2.22c1.16,0.58,2.38,1.05,3.61,1.45c2.62,0.87,5.32,1.47,7.99,2.14
				c3.12,0.79,6.2,1.65,9.38,2.22c3.29,0.58,6.62,0.95,9.96,1.1c6.3,0.28,12.62-0.21,18.87-0.99c5.45-0.68,10.95-1.65,16.07-3.72
				c2.54-1.03,4.95-2.3,7.12-3.98c2.31-1.79,4.18-4.06,5.69-6.55c7.13-11.77,5.99-26.1,3.55-39.08c-0.31-1.65-0.65-3.29-1-4.93
				c-0.27-1.26-2.2-0.73-1.93,0.53c1.42,6.58,2.59,13.25,2.79,19.98c0.18,6.22-0.51,12.47-2.97,18.24
				c-1.23,2.88-2.81,5.67-4.93,7.99c-1.7,1.86-3.75,3.33-5.97,4.52c-4.68,2.49-9.98,3.72-15.18,4.54
				c-12.2,1.93-24.74,2.3-36.79-0.71c-2.62-0.65-5.23-1.35-7.85-2.02c-2.51-0.64-5.09-1.31-7.41-2.47
				c-2.33-1.17-4.36-3.06-6.17-4.91c-1.97-2.01-3.66-4.28-4.91-6.8c-2.19-4.44-2.5-9.56-2.63-14.43
				c-0.15-5.76,0.16-11.59,1.18-17.27c0.25-1.38,0.54-2.74,0.89-4.1C467.01,740.17,465.09,739.63,464.77,740.88L464.77,740.88z"/>
		</g>
	</g>
	<g>
		<g>
			<path d="M506.82,763.01c-0.05-0.92-0.01-1.84,0.11-2.76c0.02-0.13-0.13-0.25-0.25-0.25c-0.15,0-0.23,0.12-0.25,0.25
				c-0.12,0.91-0.16,1.84-0.11,2.76C506.34,763.33,506.84,763.33,506.82,763.01L506.82,763.01z"/>
		</g>
	</g>
	<g>
		<g>
			<path d="M498.61,763.48c0.84,1.2,2.27,1.94,3.74,1.84c1.6-0.1,2.82-1.3,4.21-1.96c0.29-0.14,0.04-0.57-0.25-0.43
				c-1.23,0.58-2.32,1.65-3.71,1.86c-1.36,0.21-2.78-0.46-3.55-1.57C498.86,762.96,498.42,763.21,498.61,763.48L498.61,763.48z"/>
		</g>
	</g>
	<g>
		<g>
			<path d="M506.49,763.39c0.56-0.09,1.38,0.44,1.91,0.64c0.62,0.24,1.24,0.46,1.87,0.65c1.15,0.34,2.31,0.57,3.51,0.32
				c2.4-0.51,4.11-2.55,6.51-3.03c0.32-0.06,0.18-0.55-0.13-0.48c-2.41,0.49-4.11,2.54-6.51,3.03c-1.36,0.28-2.73-0.13-4.02-0.57
				c-0.67-0.23-1.35-0.46-1.99-0.75c-0.44-0.2-0.78-0.37-1.28-0.29C506.04,762.96,506.18,763.44,506.49,763.39L506.49,763.39z"/>
		</g>
	</g>
	<g>
		<g>
			<path d="M503.97,764.8c2.16,0.96,4.79,1.07,7.02,0.27c0.3-0.11,0.17-0.59-0.13-0.48c-2.1,0.75-4.6,0.69-6.64-0.22
				C503.93,764.24,503.67,764.67,503.97,764.8L503.97,764.8z"/>
		</g>
	</g>
	<g>
		<g>
			<path d="M501.83,771.12c4.2,1.71,8.97,1.59,13.09-0.28c0.29-0.13,0.04-0.56-0.25-0.43c-4,1.82-8.64,1.89-12.7,0.23
				C501.66,770.52,501.53,771,501.83,771.12L501.83,771.12z"/>
		</g>
	</g>
	<g>
		<g>
			<path d="M491.89,760.69c1.05-0.03,1.82-0.8,2.5-1.52c0.96-1.02,1.63-2.27,2.62-3.27c1.94-1.96,4.67-2.9,7.35-3.26
				c1.52-0.2,3.05-0.24,4.57-0.23c1.54,0,3.17-0.08,4.67,0.3c2.61,0.66,4.57,2.76,6.47,4.53c1.8,1.68,3.86,3.78,6.5,3.76
				c0.16,0,0.16-0.25,0-0.25c-2.67,0.01-4.72-2.2-6.53-3.88c-1.77-1.64-3.55-3.49-5.9-4.26c-1.3-0.43-2.68-0.42-4.04-0.44
				c-1.53-0.02-3.07-0.03-4.6,0.1c-2.53,0.21-5.08,0.81-7.21,2.24c-1.13,0.76-1.99,1.72-2.77,2.82c-0.82,1.14-2.07,3.06-3.64,3.1
				C491.73,760.45,491.73,760.7,491.89,760.69L491.89,760.69z"/>
		</g>
	</g>
	<g>
		<g>
			<path d="M490.47,760.9c-3.16,1.08-6.56,0.37-9.54-0.94c-2.59-1.14-5.12-2.4-8.04-1.94c-2.58,0.41-4.48,2.64-5.17,5.06
				c-0.39,1.35-0.42,2.79-0.17,4.17c0.26,1.45,0.9,2.78,1.47,4.13c0.68,1.61,1.2,3.27,0.92,5.04c-0.25,1.62-1.05,3.11-2.25,4.23
				c-0.12,0.11,0.06,0.29,0.18,0.18c1.79-1.67,2.7-4.17,2.32-6.59c-0.22-1.39-0.82-2.67-1.37-3.94c-0.64-1.5-1.16-3.01-1.18-4.66
				c-0.03-2.92,1.55-6.32,4.55-7.2c3.13-0.92,6.04,0.63,8.82,1.83c2.98,1.29,6.38,1.95,9.52,0.88
				C490.69,761.09,490.62,760.85,490.47,760.9L490.47,760.9z"/>
		</g>
	</g>
	<g>
		<g>
			<path d="M529.2,761.01c3.22-0.27,6.05-2.13,8.95-3.41c3.12-1.37,6.52-2.74,9.99-2.16c3.12,0.52,5.64,2.54,6.23,5.73
				c0.64,3.46-0.76,6.81-1.44,10.15c-0.56,2.79-0.71,7.15,2.81,8.03c0.16,0.04,0.22-0.2,0.07-0.24c-1.78-0.45-2.73-2.15-2.93-3.87
				c-0.2-1.78,0.2-3.6,0.63-5.33c0.76-3.05,1.79-6.24,0.97-9.4c-0.7-2.68-2.83-4.48-5.47-5.15c-3.07-0.78-6.2,0.05-9.06,1.2
				c-1.74,0.7-3.42,1.5-5.11,2.32c-1.79,0.87-3.64,1.71-5.65,1.88C529.04,760.77,529.04,761.02,529.2,761.01L529.2,761.01z"/>
		</g>
	</g>
	<g>
		<g>
			<path d="M372.03,778.82c7.4,3.02,14.91,6.61,23.08,6.64c1.99,0.01,3.98-0.2,5.92-0.63c1.64-0.36,3.26-0.94,4.57-2.02
				c2.87-2.37,2.44-6.39,1.14-9.47c-1.55-3.67-4.18-6.78-7.48-9c-1.07-0.72-2.07,1.01-1.01,1.73c2.64,1.77,4.78,4.23,6.21,7.07
				c1.22,2.44,2.29,6.05-0.13,8.14c-1.12,0.97-2.65,1.37-4.06,1.67c-1.73,0.37-3.5,0.52-5.27,0.51c-3.64-0.03-7.22-0.82-10.67-1.95
				c-4-1.31-7.87-3.03-11.76-4.62c-0.5-0.2-1.1,0.22-1.23,0.7C371.18,778.16,371.53,778.62,372.03,778.82L372.03,778.82z"/>
		</g>
	</g>
	<g>
		<g>
			<path d="M297.99,764.9c-3.75,1.78-7.03,5.95-6.44,10.28c0.31,2.31,1.73,4.26,3.7,5.47c2.24,1.37,4.92,1.68,7.49,1.74
				c3.32,0.07,6.64-0.19,9.91-0.72c0.53-0.09,0.83-0.75,0.7-1.23c-0.16-0.57-0.69-0.78-1.23-0.7c-2.54,0.41-5.11,0.62-7.69,0.65
				c-2.35,0.03-4.84,0.02-7.05-0.9c-1.72-0.71-3.2-2.03-3.71-3.86c-0.48-1.7-0.03-3.48,0.85-4.97c1.04-1.76,2.63-3.17,4.48-4.04
				C300.16,766.08,299.15,764.35,297.99,764.9L297.99,764.9z"/>
		</g>
	</g>
	<g>
		<g>
			<path d="M463.33,768.63c-2.62,0.92-4.99,2.61-6.9,4.62c-1.83,1.94-3.27,4.38-3.68,7.04c-0.43,2.75,0.26,5.56,2.72,7.14
				c2.49,1.6,5.67,2.06,8.57,2.15c3.5,0.11,7.03-0.18,10.52-0.5c0.54-0.05,1-0.42,1-1c0-0.5-0.46-1.05-1-1
				c-2.83,0.25-5.67,0.46-8.51,0.51c-2.64,0.05-5.31-0.1-7.81-1.03c-1.07-0.4-2.23-0.96-2.88-1.94c-0.6-0.91-0.8-2-0.75-3.08
				c0.11-2.29,1.18-4.49,2.64-6.22c1.73-2.06,4.05-3.88,6.6-4.77C465.07,770.14,464.55,768.21,463.33,768.63L463.33,768.63z"/>
		</g>
	</g>
	<g>
		<g>
			<path d="M560.26,765.97c4.15,3,7.93,7.46,9.23,12.5c0.5,1.93,0.69,4.18-0.34,5.98c-1.33,2.34-4.2,2.87-6.67,3
				c-3.7,0.19-7.38-0.28-10.91-1.35c-1.23-0.37-1.76,1.56-0.53,1.93c3.47,1.05,7.11,1.56,10.74,1.45c3.01-0.09,6.4-0.58,8.43-3.06
				c3.43-4.18,1.11-10.41-1.47-14.38c-1.98-3.05-4.52-5.68-7.46-7.81c-0.44-0.32-1.11-0.08-1.37,0.36
				C559.6,765.11,559.82,765.66,560.26,765.97L560.26,765.97z"/>
		</g>
	</g>
	<g>
		<g>
			<path d="M396.96,768.38c-1.57,0.69-3.01,1.73-3.72,3.35c-0.65,1.49-0.58,3.14,0.28,4.52c1.85,2.97,5.76,4.51,9.12,4.62
				c0.32,0.01,0.32-0.49,0-0.5c-3.1-0.1-6.61-1.45-8.48-4.05c-0.97-1.35-1.13-3-0.42-4.51c0.68-1.46,2.03-2.37,3.46-3
				C397.51,768.68,397.25,768.25,396.96,768.38L396.96,768.38z"/>
		</g>
	</g>
	<g>
		<g>
			<path d="M455.63,780.5c2.16,0.67,4.68,0.09,6.25-1.57c0.32-0.34,0.59-0.73,0.73-1.17c0.17-0.51,0.14-1.09,0.1-1.61
				c-0.08-1.21-0.44-2.37-1.16-3.35c-0.19-0.26-0.62-0.01-0.43,0.25c0.65,0.89,1.01,1.94,1.09,3.04c0.03,0.48,0.08,1.03-0.07,1.5
				c-0.13,0.41-0.39,0.76-0.69,1.07c-1.47,1.48-3.73,1.98-5.69,1.37C455.46,779.92,455.33,780.4,455.63,780.5L455.63,780.5z"/>
		</g>
	</g>
	<g>
		<g>
			<path d="M563.69,769.74c-2.43,1.42-3.26,4.72-2.2,7.24c1.32,3.14,4.98,3.8,7.95,2.88c0.31-0.09,0.18-0.58-0.13-0.48
				c-2.73,0.84-6.13,0.32-7.36-2.59c-0.96-2.29-0.22-5.32,2-6.62C564.22,770.01,563.97,769.58,563.69,769.74L563.69,769.74z"/>
		</g>
	</g>
	<g>
		<g>
			<path d="M293.92,774.17c1.05,0.25,1.85-0.68,2.33-1.5c0.59-1.02,1-2.13,1.23-3.29c0.06-0.31-0.42-0.45-0.48-0.13
				c-0.2,1-0.53,1.98-1.02,2.88c-0.36,0.67-1,1.77-1.92,1.56C293.74,773.61,293.6,774.09,293.92,774.17L293.92,774.17z"/>
		</g>
	</g>
	<g>
		<g>
			<path d="M405.6,766.96c5.94-0.97,12.05-3.2,16.06-7.89c2.19-2.56,3.6-5.67,5.64-8.34c1.91-2.49,4.32-4.57,6.97-6.24
				c3.02-1.9,6.35-3.28,9.78-4.25c0.15-0.04,0.09-0.29-0.07-0.24c-5.83,1.65-11.49,4.52-15.61,9.06c-2.21,2.43-3.67,5.35-5.52,8.03
				c-1.86,2.7-4.28,4.83-7.17,6.38c-3.15,1.69-6.64,2.68-10.16,3.25C405.37,766.74,405.44,766.98,405.6,766.96L405.6,766.96z"/>
		</g>
	</g>
	<g>
		<g>
			<path d="M377.79,690.69c-0.79,0.13-1.14,0.97-0.97,1.69c0.16,0.68,0.67,1.26,1.31,1.51c1.55,0.61,3.34,0.75,4.99,0.86
				c3.45,0.22,6.93,0.19,10.38,0.01c3.53-0.18,7.04-0.56,10.53-1.1c3.33-0.52,6.57-1.32,9.86-2.04c2.32-0.51,5.05-1.15,5.16-4.02
				c0.05-1.29-1.95-1.28-2,0c-0.06,1.57-2.22,1.78-3.44,2.04c-2.7,0.57-5.36,1.28-8.08,1.76c-5.89,1.05-11.88,1.54-17.86,1.5
				c-1.67-0.01-3.35-0.04-5.02-0.17c-0.76-0.06-1.52-0.15-2.27-0.3c-0.38-0.08-0.76-0.16-1.13-0.27c0.08,0.02-0.61-0.15-0.42-0.12
				c0.03,0.03,0.03,0.02-0.01-0.01c-0.11-0.25-0.15-0.18-0.13,0.21c-0.12,0.12-0.24,0.24-0.36,0.36c-0.01,0-0.02,0.01-0.02,0.01
				c0.53-0.09,0.83-0.75,0.7-1.23C378.87,690.82,378.33,690.6,377.79,690.69L377.79,690.69z"/>
		</g>
	</g>
	<g>
		<g>
			<path d="M417.75,688.3c0.64,0.14,0.26,1.06,0.1,1.44c-0.47,1.12-0.98,2.11-1.15,3.34c-0.34,2.42-0.24,5.07,0.29,7.46
				c0.28,1.26,2.2,0.72,1.93-0.53c-0.3-1.39-0.37-2.8-0.36-4.22c0.01-1.3-0.01-2.67,0.49-3.89c0.42-1.04,1.13-2.04,1.05-3.21
				c-0.07-1.08-0.71-2.08-1.81-2.32C417.02,686.1,416.49,688.03,417.75,688.3L417.75,688.3z"/>
		</g>
	</g>
	<g>
		<g>
			<path d="M377.41,690.79c-0.94,0.71-1.22,1.73-1,2.87c0.23,1.22,0.73,2.38,0.98,3.61c0.5,2.46,0.62,4.97,0.75,7.47
				c0.07,1.28,2.07,1.29,2,0c-0.12-2.22-0.25-4.43-0.58-6.63c-0.16-1.07-0.38-2.13-0.68-3.16c-0.12-0.41-0.9-2.08-0.45-2.42
				c0.43-0.33,0.65-0.86,0.36-1.37C378.53,690.73,377.84,690.47,377.41,690.79L377.41,690.79z"/>
		</g>
	</g>
	<g>
		<g>
			<path d="M485.97,685.05c-0.27,1.25,0.97,2.3,1.96,2.83c1.24,0.68,2.67,0.76,4.05,0.92c3.03,0.34,6.11,0.3,9.16,0.22
				c3.1-0.08,6.2-0.28,9.28-0.61c3.02-0.32,6.08-0.68,9.04-1.36c2.55-0.59,5.61-1.38,6.48-4.17c0.38-1.23-1.55-1.76-1.93-0.53
				c-0.58,1.85-3.11,2.3-4.74,2.7c-2.58,0.62-5.24,0.96-7.88,1.26c-5.41,0.62-10.89,0.89-16.33,0.71c-1.47-0.05-2.94-0.16-4.39-0.37
				c-0.84-0.12-2.52-0.47-2.8-1.47c0,0.18,0,0.35,0,0.53c0.01-0.04,0.02-0.09,0.03-0.13C488.16,684.33,486.24,683.79,485.97,685.05
				L485.97,685.05z"/>
		</g>
	</g>
	<g>
		<g>
			<path d="M486.03,684.78c-1.89,1.26-0.42,3.23,0.3,4.69c0.78,1.6,1.04,3.42,1.25,5.18c0.46,3.85,0.26,7.85,1.44,11.59
				c0.39,1.22,2.32,0.7,1.93-0.53c-1.06-3.37-0.9-6.92-1.29-10.39c-0.18-1.61-0.36-3.25-0.81-4.82c-0.22-0.76-0.52-1.52-0.88-2.22
				c-0.19-0.38-0.44-0.72-0.63-1.1c-0.09-0.17-0.13-0.35-0.21-0.52c-0.05-0.11,0.04-0.22-0.08-0.14
				C488.11,685.8,487.1,684.07,486.03,684.78L486.03,684.78z"/>
		</g>
	</g>
	<g>
		<g>
			<path d="M524.77,683.29c0.21,0.08,0.34,0.13,0.39,0.32c0.09,0.33-0.06,0.81-0.14,1.12c-0.2,0.83-0.41,1.64-0.49,2.49
				c-0.17,1.71-0.08,3.47,0.13,5.18c0.42,3.38,1.9,6.66,1.7,10.1c-0.07,1.29,1.93,1.28,2,0c0.22-3.85-1.53-7.48-1.82-11.29
				c-0.14-1.85-0.16-3.71,0.3-5.51c0.22-0.84,0.47-1.8,0.25-2.67c-0.23-0.92-0.96-1.35-1.79-1.68c-0.5-0.2-1.1,0.22-1.23,0.7
				C523.91,682.64,524.26,683.09,524.77,683.29L524.77,683.29z"/>
		</g>
	</g>
</g>
</svg>
