<?xml version="1.0" encoding="utf-8"?>
<!-- Generator: Adobe Illustrator 28.0.0, SVG Export Plug-In . SVG Version: 6.00 Build 0)  -->
<svg version="1.1" id="Layer_1" xmlns="http://www.w3.org/2000/svg" xmlns:xlink="http://www.w3.org/1999/xlink" x="0px" y="0px"
	 viewBox="0 0 800 800" style="enable-background:new 0 0 800 800;" xml:space="preserve">
<style type="text/css">
	.st0{fill:#FCDBA8;}
	.st1{fill:#E5DBAC;}
	.st2{fill:#E3B169;}
	.st3{fill:#FFE9CC;}
	.st4{fill:url(#SVGID_1_);}
	.st5{fill:url(#SVGID_00000111181193785316667740000015770834035438088605_);}
	.st6{fill:url(#SVGID_00000168811605503147155630000017263462636867919542_);}
	.st7{fill:url(#SVGID_00000124857952854124409890000008993639668912260525_);}
	.st8{fill:url(#SVGID_00000171693409013596171760000009409891558971346851_);}
	.st9{fill:none;stroke:#000000;stroke-width:2;stroke-linecap:round;stroke-linejoin:round;stroke-miterlimit:10;}
	.st10{fill:none;stroke:#000000;stroke-width:1.9999;stroke-linecap:round;stroke-linejoin:round;stroke-miterlimit:9.9997;}
	.st11{fill:none;stroke:#000000;stroke-width:0.5;stroke-linecap:round;stroke-linejoin:round;stroke-miterlimit:10;}
	.st12{fill:#FBEBD1;}
	.st13{fill:url(#SVGID_00000054234239151736775190000008842878451921418919_);}
	.st14{fill:url(#SVGID_00000000200754548483200920000007382306251307570829_);}
	.st15{fill:url(#SVGID_00000091005298335006190230000004932221334269337233_);}
	.st16{fill:url(#SVGID_00000176743253732468650190000016245421926902711426_);}
	.st17{fill:url(#SVGID_00000106868406068500080850000003949009320956948403_);}
	.st18{fill:none;stroke:#000000;stroke-width:2;stroke-linecap:round;stroke-miterlimit:10;}
</style>
<g id="_x30_-HAND_x2B_WP__x5B_BAT_x5D__x2B_">
	<path class="st0" d="M522.19,163.63c0.31-0.04,0.62-0.07,0.93-0.11c2.96-0.35,5.91-0.72,8.86-1.11c12.1-1.6,24.09-3.75,36.14-5.51
		c3.46-0.51,6.92-1,10.38-1.48c12.21-1.71,24.44-3.35,36.67-4.92c4.95-0.64,9.91-1.27,14.86-1.91c2.86-0.37,5.71-0.74,8.54-1.3
		c2.47-0.49,4.92-1.14,7.23-2.16c2.24-0.99,3.89-2.18,5.42-4.05c3.02-3.68,5.07-8.17,5.81-12.87c0.32-2.02,0.39-4.07,0.2-6.11
		c-0.09-0.91-0.22-1.82-0.36-2.72c-0.33-2.16-0.31-4.84-1.31-6.78c-1-1.93-1.92-3.93-3.23-5.68c-1.45-1.93-3.32-3.49-5.2-5
		c-1.34-1.08-2.71-2.16-4.27-2.89c-3.37-1.58-7.28-1.4-10.98-0.96c-3.63,0.44-7.23,1.1-10.83,1.76c-5.85,1.07-11.64,2.26-17.45,3.55
		c-11.89,2.64-23.88,4.99-35.77,7.51c-12.24,2.6-24.48,5.19-36.73,7.79s-24.48,5.19-36.73,7.79c-11.45,2.43-22.89,4.86-34.34,7.28
		c-2.95,0.63-5.9,1.25-8.86,1.82c-1.48,0.29-3.02,0.7-4.52,0.82c-1.21,0.09-2.22,0.1-3.44,0.39c-6.08,1.45-12.17,2.9-18.25,4.35
		c-12.17,2.9-24.34,5.8-36.5,8.7c-10.95,2.61-21.9,5.22-32.85,7.83c-5.87,1.4-11.9,2.49-17.69,4.14
		c-5.92,1.69-11.91,3.13-17.93,4.41c-0.12,0.03-0.24,0.05-0.36,0.08c-4.51,0.95-9.03,1.79-13.54,2.73
		c-10.32,2.14-20.54,4.77-30.75,7.39c-0.24,0.06-0.49,0.14-0.63,0.34c-0.13,0.19-0.12,0.44-0.1,0.67c0.29,3.56,1.41,7.08,1.08,10.64
		c-0.14,1.46-0.47,2.96-0.89,4.37c-0.32,1.08-1.18,2.03,0.58,1.95c3.1-0.14,6.24-0.72,9.33-1.07c6.22-0.71,12.44-1.43,18.66-2.14
		c12.44-1.43,24.87-2.85,37.31-4.28c6.18-0.71,12.37-1.42,18.55-2.13c5.89-0.68,11.74-1.95,17.66-2.66
		c12.15-1.47,24.37-2.22,36.54-3.54c2.86-0.31,5.71-0.65,8.56-1.04c4.33-0.59,8.83-1.65,13.2-1.69c4.2-0.03,8.43-0.76,12.59-1.38
		c0.31-0.05,0.62-0.09,0.93-0.14c12.37-1.83,24.75-3.66,37.12-5.49C497.92,167.05,510.03,165.05,522.19,163.63z"/>
	<path class="st1" d="M262.47,192.35c0-0.09,0-0.18,0-0.27c-0.05-0.85-0.7-1.85-1.62-1.95c-0.2-0.02-0.4,0.01-0.58,0.1
		c-0.55,0.28-0.73,0.96-0.89,1.56c-0.23,0.88-0.54,1.75-0.96,2.56c-0.15,0.3-0.65,2-0.18,2.21c0.06,0.03,0.13,0.02,0.19,0.02
		c0.83-0.04,1.71-0.1,2.39-0.58c0.7-0.49,1.06-1.34,1.33-2.15C262.31,193.36,262.45,192.86,262.47,192.35z"/>
	<path class="st1" d="M220.19,208.77c0.36-0.41,0.69-0.84,0.96-1.31c0.88-1.53,1.11-3.32,1.57-5.02c0.38-1.41,0.96-2.11,2.44-2.16
		c2.27-0.09,4.52-0.39,6.76-0.69c7.37-0.98,14.73-1.96,22.1-2.94c0.16-0.02,0.37-0.11,0.34-0.27c-0.65-0.12-1.27-0.4-1.79-0.81
		c-0.12-0.09-0.23-0.19-0.33-0.29c-0.48-0.46-0.86-1.04-1.4-1.44c-1.32-0.99-1.87,0.03-2.64,0.95c-0.53,0.63-1.35,0.95-2.17,1.04
		c-0.82,0.09-1.64-0.03-2.46-0.15c-0.74-0.11-1.52-0.23-2.13-0.68c-0.55-0.41-0.95-1.07-1.62-1.22c-0.67-0.16-1.32,0.27-1.95,0.55
		c-1.33,0.58-2.94,0.52-4.22-0.18c-2.11-1.15-3.02-3.62-4.05-5.8c-0.17-0.35-0.37-0.73-0.74-0.86c-0.27-0.1-0.57-0.03-0.85,0.04
		c-1.36,0.33-2.72,0.64-4.08,0.96c-0.97,0.23-2.28,0.69-3.21,0.1c-0.48-0.31-0.82-0.79-1.18-1.23c-1.63-1.99-3.87-3.36-6.1-4.65
		c-0.71-0.41-1.43-0.81-2.24-0.96c-1.28-0.24-2.59,0.21-3.73,0.82c-0.91,0.49-1.77,1.08-2.5,1.81c-2.21,2.23-3.82,6.18-4.08,9.28
		c-0.13,1.52,0.11,3.05,0.39,4.55c0.33,1.75,0.67,3.3,1.44,4.88c0.73,1.48,1.49,2.92,2.39,4.3c0.81,1.25,1.39,2.4,2.73,3.22
		c0.62,0.38,1.29,0.65,1.96,0.89c1.1,0.4,2.23,0.74,3.4,0.77c2.29,0.06,4.47-1.12,6.15-2.67
		C219.65,209.34,219.93,209.06,220.19,208.77z"/>
	<g>
		<g>
			<path class="st2" d="M321.36,165.88c-6.74,1.79-13.36,4.05-19.79,6.76c-3.16,1.33-6.28,2.77-9.34,4.32
				c-1.35,0.68-2.72,1.34-3.93,2.24c-1.1,0.81-1.83,1.86-2.7,2.9c-0.87,1.03-3.34,3.64-1.45,4.88c0.77,0.51,1.84,0.65,2.73,0.84
				c0.78,0.17,1.54,0.34,2.29,0.58c1.47,0.46,3.05,0.6,4.57,0.76c2.18,0.22,4.36,0.34,6.55,0.44c4.21,0.18,8.43,0.25,12.65,0.24
				c0.32,0,0.32-0.5,0-0.5c-3.45,0.01-6.9-0.04-10.34-0.15c-3.92-0.13-7.93-0.22-11.79-0.91c-0.59-0.11-1.17-0.24-1.73-0.43
				c-0.82-0.27-1.67-0.41-2.51-0.6c-0.72-0.16-2.09-0.3-2.47-1.05c-0.5-1.01,0.69-2.32,1.27-3.03c0.76-0.93,1.47-1.98,2.34-2.81
				c1.04-0.99,2.31-1.69,3.57-2.34c2.95-1.53,5.95-2.95,9-4.27c6.88-2.99,13.98-5.44,21.22-7.37
				C321.8,166.28,321.67,165.8,321.36,165.88L321.36,165.88z"/>
		</g>
	</g>
	<g>
		<g>
			<path class="st2" d="M229.29,189.14c-0.67,0.69-1.57,1.02-2.34,1.58c-0.67,0.49-0.98,1.09-1.3,1.83
				c-0.45,1.04-1.36,3.11,0.16,3.72c1.49,0.59,3.2-0.05,4.74,0.2c1.79,0.3,3.58,0.63,5.37,0.93c2.05,0.34,4.11,0.68,6.16,1.06
				c0.31,0.06,0.45-0.42,0.13-0.48c-3.35-0.64-6.73-1.14-10.09-1.73c-0.62-0.11-1.26-0.27-1.89-0.32c-0.74-0.06-1.49,0.03-2.23,0.05
				c-0.66,0.02-1.7,0.14-2.25-0.31c-0.63-0.51-0.12-1.72,0.11-2.32c0.35-0.92,0.69-1.76,1.54-2.33c0.76-0.51,1.6-0.86,2.24-1.52
				C229.87,189.26,229.52,188.91,229.29,189.14L229.29,189.14z"/>
		</g>
	</g>
	<g>
		<g>
			<path class="st2" d="M609.66,102.79c6.68-1.05,13.59-0.68,20.27,0.18c3.15,0.41,6.29,0.96,9.38,1.68
				c2.96,0.69,5.91,1.55,8.66,2.87c3.03,1.46,5.78,3.5,7.64,6.34c0.18,0.27,0.61,0.02,0.43-0.25c-3.39-5.17-9.37-7.6-15.13-9.08
				c-6.52-1.68-13.3-2.58-20.02-2.8c-3.79-0.12-7.6,0-11.36,0.58C609.21,102.35,609.34,102.83,609.66,102.79L609.66,102.79z"/>
		</g>
	</g>
	<g>
		<g>
			<path class="st2" d="M657.32,121.06c-0.47,5.52-3.77,10.2-7.73,13.87c-4.28,3.96-9.37,6.99-14.54,9.65
				c-2.59,1.33-5.22,2.56-7.87,3.76c-0.29,0.13-0.04,0.56,0.25,0.43c5.1-2.32,10.17-4.76,14.91-7.76c4.8-3.04,9.49-6.72,12.56-11.57
				c1.6-2.54,2.66-5.38,2.91-8.38C657.85,120.74,657.35,120.74,657.32,121.06L657.32,121.06z"/>
		</g>
	</g>
	<g>
		<g>
			<path class="st2" d="M355.66,157.68c-5.11,2.73-10.14,5.74-14.57,9.49c-3.53,2.99-8.35,7.76-6.94,12.92
				c0.9,3.28,4.01,5.41,6.86,6.89c0.29,0.15,0.54-0.28,0.25-0.43c-2.59-1.35-5.44-3.22-6.48-6.1c-0.78-2.17-0.22-4.43,0.87-6.39
				c1.34-2.41,3.35-4.42,5.42-6.22c2.29-1.99,4.79-3.75,7.34-5.38c2.44-1.56,4.95-3,7.5-4.36
				C356.2,157.96,355.94,157.53,355.66,157.68L355.66,157.68z"/>
		</g>
	</g>
	<g>
		<g>
			<path class="st2" d="M375.77,153.23c-2.12,0.97-3.63,3.03-5.03,4.83c-1.17,1.5-1.73,3.39-1.5,5.28c0.55,4.57,4.63,6.12,8.6,6.99
				c5.96,1.3,12.08,0.98,18.12,0.72c6.48-0.28,12.95-0.68,19.41-1.19c26.05-2.03,52.02-5.41,77.89-9.06
				c25.16-3.55,50.22-7.76,75.34-11.57c12.73-1.93,25.59-3.34,38.25-5.73c5.49-1.04,11.31-2.14,16.28-4.78
				c4.93-2.63,10.25-4.69,14.78-8.04c5.86-4.33,6.59-13.14,1.17-18.17c-1.42-1.32-3.09-2.15-4.9-2.77c-2.76-0.95-5.6-1.64-8.47-2.17
				c-5.6-1.04-11.29-1.49-16.95-2.08c-2.85-0.3-5.69-0.63-8.51-1.11c-0.31-0.05-0.45,0.43-0.13,0.48
				c10.69,1.81,21.74,1.62,32.19,4.79c4.23,1.29,7.9,3.4,9.39,7.81c1.24,3.67,0.54,7.84-1.95,10.83c-1.51,1.81-3.62,3.06-5.64,4.23
				c-2.27,1.31-4.64,2.46-6.99,3.62c-2.42,1.19-4.78,2.64-7.32,3.55c-2.68,0.96-5.44,1.7-8.22,2.33
				c-11.76,2.67-23.85,3.86-35.77,5.63c-23.66,3.51-47.25,7.46-70.92,10.97c-24.69,3.66-49.49,6.94-74.33,9.4
				c-12.38,1.22-24.79,2.17-37.23,2.64c-5.75,0.22-11.6,0.31-17.2-1.27c-2.44-0.69-4.69-1.65-5.82-4.07
				c-0.94-2.01-0.81-4.43,0.36-6.31c0.63-1.01,1.51-1.92,2.28-2.83c0.88-1.03,1.82-1.94,3.06-2.51
				C376.32,153.53,376.07,153.1,375.77,153.23L375.77,153.23z"/>
		</g>
	</g>
	<g>
		<g>
			<path class="st2" d="M408.84,148.82c-3.15,0.76-6.14,2.12-8.73,4.08c-1.76,1.33-3.78,3.68-2.23,5.93
				c1.45,2.11,4.77,2.35,7.05,2.64c3.67,0.47,7.38,0.49,11.07,0.26c7.44-0.46,14.85-1.75,22.19-3.02c7.54-1.31,15.06-2.77,22.6-4.13
				c14.64-2.63,29.37-4.51,44.14-6.22c14.42-1.66,28.85-3.24,43.19-5.48c14.38-2.25,28.68-5.2,42.58-9.58
				c4.94-1.56,11.1-3.74,13.04-9.1c0.93-2.58,0.05-5.14-2.1-6.78c-2.49-1.9-5.74-1.96-8.74-1.84c-14.53,0.61-28.99,2.61-43.29,5.17
				c-14.47,2.6-28.82,5.84-43.16,9.09c-14.36,3.25-28.72,6.5-43.21,9.12c-14.18,2.56-28.55,3.97-42.65,6.97
				c-3.53,0.75-7.03,1.6-10.51,2.53c-0.31,0.08-0.18,0.57,0.13,0.48c6.67-1.78,13.41-3.22,20.21-4.37
				c6.86-1.17,13.76-2.03,20.63-3.07c13.9-2.11,27.68-4.97,41.41-8.01c13.8-3.06,27.56-6.3,41.4-9.17
				c13.83-2.87,27.75-5.37,41.79-6.9c3.48-0.38,6.97-0.7,10.46-0.95c3.39-0.24,6.91-0.67,10.31-0.37c3.12,0.28,6.96,2,7.21,5.59
				c0.23,3.34-2.62,6.21-5.24,7.84c-2.47,1.54-5.25,2.47-8.01,3.34c-3.32,1.04-6.67,2.01-10.04,2.9
				c-6.72,1.78-13.52,3.28-20.35,4.56c-13.88,2.62-27.91,4.38-41.94,6.02c-13.79,1.61-27.59,3.08-41.32,5.1
				c-14.43,2.12-28.7,5.15-43.08,7.52c-7.2,1.18-14.49,2.37-21.81,2.4c-3.47,0.01-7.15-0.13-10.51-1.04
				c-1.32-0.36-2.95-1.04-3.39-2.48c-0.55-1.83,1.01-3.41,2.32-4.43c2.56-1.99,5.56-3.35,8.71-4.11
				C409.28,149.23,409.15,148.74,408.84,148.82L408.84,148.82z"/>
		</g>
	</g>
	<g>
		<g>
			<path class="st2" d="M586.99,121.83c-6.99-1.28-14.08-0.32-21.06,0.6c-7.24,0.96-14.48,1.91-21.71,2.88
				c-6.82,0.92-13.55,2.1-20.01,4.55c-3.03,1.15-5.98,2.51-8.82,4.09c-0.97,0.54-2.2,1.03-2.71,2.1c-0.36,0.76-0.35,1.66,0,2.42
				c0.37,0.8,1.1,1.39,1.98,1.55c0.72,0.13,1.5,0.04,2.22,0c0.88-0.05,1.76-0.14,2.64-0.24c3.37-0.38,6.7-1.02,10.01-1.76
				c6.73-1.51,13.38-3.45,20.21-4.49c3.74-0.57,7.56-0.61,11.34-0.68c4.24-0.08,8.49-0.1,12.72-0.42c3.45-0.26,7.09-0.64,10.3-2.02
				c2.29-0.98,4.29-2.69,4.49-5.33c0.05-0.67-0.02-1.33-0.14-1.99c-0.06-0.32-0.54-0.18-0.48,0.13c1.29,6.72-7.35,8.01-12.13,8.52
				c-7.77,0.82-15.6,0.28-23.38,0.96c-5.56,0.49-11.02,1.92-16.42,3.25c-6.44,1.58-12.99,3.3-19.64,3.6
				c-1.22,0.05-2.48,0.1-3.17-1.1c-0.49-0.86-0.41-2,0.29-2.73c0.42-0.44,1.02-0.7,1.53-1c0.72-0.41,1.46-0.81,2.2-1.19
				c1.41-0.73,2.85-1.42,4.31-2.05c6.11-2.64,12.53-4.18,19.09-5.16c6.93-1.03,13.89-1.87,20.83-2.79
				c6.67-0.88,13.42-2.06,20.16-1.78c1.75,0.07,3.49,0.26,5.21,0.57C587.17,122.37,587.31,121.89,586.99,121.83L586.99,121.83z"/>
		</g>
	</g>
	<g>
		<g>
			<path class="st2" d="M629.66,113.26c-1.63-2.12-4.31-2.76-6.81-3.22c-3.36-0.62-6.74-1.07-10.14-1.39
				c-6.89-0.66-13.81-0.79-20.72-0.74c-3.93,0.03-7.86,0.12-11.78,0.21c-0.32,0.01-0.32,0.51,0,0.5
				c13.38-0.31,26.86-0.63,40.12,1.49c2.99,0.48,6.9,0.79,8.9,3.4C629.42,113.76,629.86,113.51,629.66,113.26L629.66,113.26z"/>
		</g>
	</g>
	<g>
		<g>
			<path class="st2" d="M655.23,134.23c-4.08,5.46-9.71,9.7-16.08,12.11c-0.3,0.11-0.17,0.6,0.13,0.48
				c6.51-2.47,12.21-6.77,16.38-12.34C655.85,134.22,655.42,133.97,655.23,134.23L655.23,134.23z"/>
		</g>
	</g>
	<g>
		<g>
			<path class="st2" d="M625.97,148.32c-12.02,3.53-24.6,2.34-36.95,2.7c-12.63,0.36-24.97,3.36-37.26,6.06
				c-7.07,1.56-14.13,3.18-21.18,4.86c-0.31,0.07-0.18,0.56,0.13,0.48c12.54-3,25.13-5.86,37.78-8.38c6.24-1.24,12.5-2.2,18.86-2.46
				c6.14-0.25,12.29-0.04,18.43-0.15c6.85-0.12,13.72-0.68,20.31-2.62C626.42,148.71,626.28,148.23,625.97,148.32L625.97,148.32z"/>
		</g>
	</g>
	<path class="st3" d="M369.03,154.93c-6.41,1.13-12.96,2.83-18.56,6.24c-2.83,1.72-5.47,3.78-8.07,5.83
		c-2.29,1.8-4.46,3.73-6.06,6.19s-2.95,6.03-0.99,8.64c0.07,0.09,0.2,0.02,0.15-0.09c-1.32-2.77,0.09-6.03,1.73-8.33
		c1.61-2.25,3.82-4.09,5.98-5.77c2.42-1.89,4.88-3.79,7.51-5.39c2.67-1.62,5.55-2.82,8.5-3.79c3.29-1.08,6.67-1.84,9.99-2.77
		C369.72,155.54,369.51,154.84,369.03,154.93z"/>
	<path class="st3" d="M348.98,159.73c-1.23,0.19-2.41,0.66-3.6,1.01c-1.3,0.38-2.6,0.72-3.92,1.04c-2.53,0.62-5.08,1.15-7.63,1.66
		c-5.11,1.02-10.24,1.95-15.27,3.3c-5.08,1.36-9.96,3.28-14.77,5.39c-4.41,1.94-8.94,3.79-13.07,6.29c-2.13,1.3-4.14,2.81-5.83,4.66
		c-0.64,0.7-1.42,1.54-1.3,2.58c0.08,0.72,0.57,1.24,1.31,1.1c0.05-0.01,0.06-0.09,0.01-0.11c-2.46-1.11,2.12-4.58,3.09-5.32
		c1.68-1.28,3.48-2.36,5.36-3.33c4.08-2.11,8.39-3.85,12.64-5.58c4.51-1.85,9.09-3.5,13.81-4.71c4.64-1.2,9.36-2.06,14.06-3
		c2.65-0.53,5.3-1.08,7.93-1.73c1.31-0.32,2.62-0.67,3.91-1.05c1.24-0.36,2.52-0.68,3.65-1.31
		C349.87,160.33,349.5,159.65,348.98,159.73z"/>
	<path class="st3" d="M310.22,168.27c-0.65,0.01-1.24,0.35-1.85,0.58c-0.67,0.25-1.36,0.47-2.05,0.68
		c-1.38,0.43-2.78,0.79-4.18,1.14c-2.93,0.74-5.87,1.44-8.81,2.12c-2.94,0.67-5.89,1.33-8.84,1.95c-2.98,0.63-6.02,1.15-8.92,2.07
		c-0.09,0.03-0.08,0.18,0.02,0.17c2.97-0.09,5.93-0.66,8.85-1.2c3.08-0.57,6.15-1.18,9.21-1.86c3-0.67,6-1.36,8.98-2.1
		c1.4-0.35,2.81-0.71,4.17-1.17c0.66-0.22,1.31-0.47,1.95-0.74c0.61-0.26,1.32-0.47,1.75-1
		C310.69,168.68,310.58,168.26,310.22,168.27z"/>
	<path class="st3" d="M228.13,187.65c-0.29-0.1-0.58,0.01-0.86,0.1c-0.28,0.09-0.56,0.17-0.84,0.25c-0.55,0.16-1.1,0.3-1.65,0.44
		c-0.55,0.14-1.11,0.24-1.66,0.38c-0.27,0.07-0.57,0.11-0.82,0.23c-0.12,0.06-0.35,0.24-0.22,0.4c0.16,0.2,0.36,0.2,0.6,0.19
		c0.29-0.01,0.59-0.03,0.87-0.07c0.55-0.07,1.09-0.17,1.63-0.28c0.54-0.11,1.07-0.24,1.61-0.39c0.51-0.14,1.26-0.23,1.57-0.69
		C228.51,188,228.35,187.73,228.13,187.65z"/>
	<path class="st3" d="M222.62,196.7c-0.41-2.43-1.35-4.78-2.5-6.95c-0.02-0.03-0.03-0.07-0.05-0.1c-0.03-0.05-0.05-0.1-0.07-0.14
		c-1.17-2.14-2.62-4.48-4.68-5.86c-1.92-1.28-4.45-1.72-6.67-1.04c-2.16,0.66-4.53,2.31-4.99,4.67c-0.02,0.08,0.08,0.16,0.15,0.09
		c0.87-0.95,1.62-1.85,2.73-2.54c1.14-0.71,2.32-1.15,3.68-1.17c1.38-0.02,2.72,0.32,3.91,1c0.45,0.26,0.85,0.59,1.23,0.94
		c0.12,0.22,0.22,0.45,0.3,0.69c0.14,0.43,0.23,0.88,0.26,1.33c0.03,0.48-0.11,0.97-0.07,1.43c0.05,0.48,0.42,0.77,0.85,0.92
		c0.46,0.16,0.9,0.29,1.32,0.55c0.42,0.26,0.79,0.59,1.1,0.97c0.31,0.38,0.47,0.87,0.86,1.19c0.01,0.01,0.02,0.01,0.03,0.01
		c0.31,0.74,0.59,1.49,0.83,2.26c0.63,3.41,1.21,6.91,0.1,10.25c-0.18,0.54,0.56,0.76,0.85,0.36c0.48-0.65,0.7-1.42,0.8-2.2
		C223.17,201.25,222.98,198.81,222.62,196.7z"/>
	<path class="st3" d="M612.72,108.33c-2.82-0.35-5.61-0.77-8.44-1.01c-2.83-0.24-5.67-0.43-8.5-0.54c-1.45-0.06-2.91-0.09-4.37-0.08
		c0.29-0.18,0.15-0.61-0.22-0.56c-1.32,0.19-2.63,0.48-3.94,0.76c-2.58,0.23-5.32,0.59-7.76,1.47c-0.2,0.07-0.27,0.24-0.26,0.4
		c-2.97,0.57-5.92,1.28-8.86,1.94c-3.78,0.84-7.56,1.67-11.33,2.51c-7.5,1.66-15.01,3.3-22.52,4.91
		c-15.02,3.22-30.08,6.32-45.14,9.35c-1.89,0.38-3.78,0.77-5.66,1.16c-0.01-0.19-0.12-0.36-0.35-0.34c-1.17,0.1-2.36,0.65-3.48,1.13
		c-1.06,0.22-2.11,0.44-3.17,0.65c-3.45,0.69-6.87,1.39-10.27,2.23c-0.11-0.34-0.45-0.63-0.86-0.52c-2.97,0.79-5.96,1.53-8.95,2.24
		c-0.09-0.29-0.37-0.52-0.76-0.43c-3.6,0.87-7.16,1.91-10.72,2.93c-4.23,0.86-8.47,1.69-12.73,2.45c-3.18,0.57-6.35,1.13-9.53,1.68
		c-0.7,0.12-0.48,1.15,0.16,1.18c1.33,0.08,2.65,0.02,3.96-0.12c-1.8,0.21-3.6,0.38-5.39,0.63c-3.07,0.42-6.08,1.14-9.08,1.89
		c-6.13,1.53-12.26,3.07-18.39,4.62c-3.39,0.86-6.77,1.74-10.15,2.63c-0.97,0.26-1.95,0.52-2.92,0.78c0.32-0.18,0.15-0.68-0.25-0.62
		c-1.91,0.28-3.83,0.7-5.61,1.47c-1.86,0.81-3.38,2.03-4.64,3.61c-1.16,1.46-2.35,3.16-2.87,4.97c-0.22,0.79-0.29,1.59-0.12,2.39
		c0.19,0.85,0.58,1.34,1.2,1.91c0.05,0.04,0.1-0.02,0.07-0.07c-1.04-1.33-0.7-3.42-0.05-4.81c0.73-1.56,1.88-3.05,3.04-4.31
		c0.71-0.78,1.51-1.42,2.37-1.98c6.12-0.98,12.19-2.59,18.2-4.09c6.14-1.53,12.27-3.07,18.41-4.62c3.07-0.77,6.14-1.58,9.26-2.13
		c2.99-0.52,6.02-0.72,9.03-1.14c3.03-0.42,5.89-1.24,8.8-2.14c2.95-0.92,5.95-1.49,8.99-1.99c6.66-1.1,13.07-2.87,19.23-5.66
		c0.02-0.01,0.03-0.02,0.05-0.03c2.45-0.32,4.9-0.69,7.34-1.11c-2.26,0.91-4.51,1.81-6.8,2.66c-0.01,0-0.01,0.02,0.01,0.02
		c2.83-0.97,5.69-1.85,8.55-2.74c0.58-0.18,1.16-0.38,1.74-0.56c3.22-0.6,6.44-1.23,9.64-1.86c7.6-1.47,15.18-3.01,22.76-4.56
		c15.05-3.09,30.08-6.29,45.09-9.6c4.26-0.94,8.52-1.9,12.78-2.87c2.1-0.48,4.21-0.92,6.3-1.46c2.02-0.52,4.08-0.96,6.08-1.55
		c0.57-0.05,1.15-0.11,1.71-0.11c1.71-0.01,3.43,0.17,5.13,0.3c0.05,0,0.06-0.07,0.01-0.08c-2.02-0.36-4.1-0.71-6.17-0.76
		c-0.01-0.05-0.02-0.1-0.04-0.14c0.08-0.02,0.15-0.03,0.23-0.04c1.02-0.12,2.03-0.27,3.05-0.45c0.8-0.08,1.6-0.15,2.4-0.21
		c2.7-0.19,5.39-0.21,8.1-0.13c2.73,0.08,5.46,0.24,8.18,0.36c2.81,0.13,5.63,0.13,8.44,0.24
		C612.75,108.39,612.75,108.34,612.72,108.33z"/>
	<path class="st3" d="M657.13,118.32C657.13,118.32,657.12,118.32,657.13,118.32c-0.02-0.74-0.09-1.46-0.25-2.18
		c-0.02-0.1-0.06-0.19-0.08-0.29c0-0.1-0.01-0.21-0.06-0.32c-0.03-0.06-0.06-0.13-0.09-0.19c-0.1-0.31-0.23-0.61-0.38-0.9
		c-0.04-0.08-0.09-0.16-0.13-0.24c-0.72-1.63-1.44-3.26-2.23-4.85c-0.7-1.41-1.6-2.98-2.9-3.95c0.03-0.16-0.01-0.34-0.19-0.49
		c-0.45-0.36-0.87-0.75-1.3-1.13c-0.63-0.96-1.58-1.69-2.55-2.31c-0.04-0.02-0.08-0.04-0.11-0.07c-0.23-0.16-0.45-0.34-0.68-0.49
		c-0.73-0.56-1.53-1.02-2.41-1.32c-1.18-0.55-2.41-1-3.65-1.4c-0.04-0.28-0.23-0.55-0.59-0.59c-0.64-0.07-1.27-0.11-1.91-0.15
		c-0.31-0.02-0.51,0.17-0.59,0.4c-0.61,0.03-1.21,0.06-1.81,0.09c-1.57-0.09-3.15-0.05-4.71,0.15c-0.37,0.05-0.53,0.37-0.49,0.65
		c-0.53,0.06-1.06,0.13-1.59,0.21c-1.54,0.24-3.07,0.53-4.6,0.82c-1.61,0.31-3.18,0.8-4.79,1.12c-0.09,0.02-0.07,0.17,0.02,0.16
		c1.62-0.18,3.26-0.18,4.89-0.37c1.6-0.19,3.19-0.42,4.79-0.6c3.01-0.35,6.02-0.34,8.99,0.31c2.81,0.61,5.48,1.7,7.98,3.1
		c1.19,0.66,2.33,1.41,3.43,2.21c0.05,0.12,0.13,0.22,0.25,0.28c0.15,0.06,0.29,0.15,0.42,0.23c0.97,0.74,1.82,1.53,2.18,2.76
		c0.07,0.23,0.25,0.36,0.45,0.39c0.17,0.33,0.34,0.67,0.49,0.99c0.09,0.18,0.17,0.37,0.25,0.55c-1.8-1.52-4.06-2.64-6-3.55
		c-2.24-1.04-4.57-1.95-6.96-2.6c-2.44-0.66-5.05-0.98-7.57-1.12c-0.02,0-0.03,0.04-0.01,0.04c4.65,0.89,9.33,2.31,13.64,4.31
		c3.73,1.73,7.39,3.99,8.88,8.01c-0.04,0.09-0.08,0.17-0.11,0.25c-0.09,0.28-0.1,0.57,0.01,0.85c0.2,0.49,0.7,0.73,0.94,1.19
		c0.22,0.4,0.26,0.93,0.16,1.37c-0.12,0.49,0.61,0.85,0.85,0.36C657.26,119.47,657.32,118.9,657.13,118.32z"/>
	<path class="st3" d="M641.62,118.37c-0.46-2.03-1.64-3.93-3.2-5.29c-1.83-1.6-4.14-2.53-6.43-3.27c-2.78-0.9-5.62-1.46-8.49-2.04
		c-0.07-0.01-0.1,0.09-0.03,0.11c2.46,0.82,4.9,1.67,7.35,2.52c2.2,0.76,4.42,1.59,6.3,2.99c1.74,1.3,2.89,3.09,3.62,5.12
		c0.2,0.56,0.34,1.15,0.46,1.73c0.08,0.86,0.08,1.72-0.05,2.59c-0.25,1.7-0.83,3.28-1.34,4.91c-0.01,0.03,0.03,0.04,0.05,0.02
		c1.11-1.44,1.76-3.33,2.06-5.11C642.16,121.2,642.1,119.73,641.62,118.37z"/>
	<path class="st3" d="M639.5,128.12c-0.03,0.03-0.06,0.05-0.09,0.08c-0.02,0.03-0.04,0.06-0.07,0.08c-0.02,0.03-0.05,0.06-0.07,0.08
		c-0.03,0.03-0.05,0.07-0.08,0.11c-0.09,0.12-0.19,0.23-0.31,0.33c-0.05,0.04,0.01,0.11,0.06,0.08c0.14-0.08,0.27-0.18,0.39-0.29
		c0.03-0.03,0.06-0.06,0.09-0.1c0.02-0.03,0.04-0.06,0.06-0.1c0.02-0.03,0.04-0.07,0.06-0.1c0.02-0.04,0.03-0.08,0.04-0.13
		C639.6,128.11,639.55,128.08,639.5,128.12z"/>
	<path class="st3" d="M643.92,138.82c-3.47,2.18-7.05,4.22-10.78,5.94c-1.87,0.86-3.79,1.64-5.75,2.28
		c-1.64,0.54-3.46,0.89-5.06,1.6c-0.02-0.28-0.26-0.56-0.62-0.49c-8.24,1.56-16.62,1.72-24.98,1.71
		c-8.22-0.01-16.35,0.33-24.43,1.96c-2.32,0.47-4.62,0.99-6.92,1.56c-2.29,0.56-4.55,1.33-6.82,1.98c-0.06,0.02-0.03,0.1,0.03,0.09
		c4.1-0.91,8.24-1.71,12.37-2.46c4.18-0.76,8.4-1.41,12.64-1.73c8.21-0.62,16.44-0.18,24.66-0.42c4.43-0.13,8.86-0.54,13.17-1.6
		c-0.02,0.2,0.11,0.41,0.34,0.41c2.04,0.01,4.15-0.95,6.03-1.67c1.91-0.73,3.8-1.52,5.65-2.4c3.78-1.79,7.34-3.98,10.57-6.63
		C644.1,138.89,644,138.77,643.92,138.82z"/>
	<path class="st3" d="M594.49,129.63c-2.55,1.27-5.02,2.49-7.76,3.35c-2.75,0.86-5.56,1.5-8.35,2.19c-6,1.46-12.02,2.91-18.06,4.21
		c-1.71,0.37-3.42,0.74-5.13,1.12c-1.76,0.4-3.47,0.95-5.22,1.39c-0.07,0.02-0.04,0.11,0.03,0.1c1.58-0.23,3.18-0.33,4.75-0.62
		c1.56-0.29,3.12-0.58,4.68-0.91c3.11-0.65,6.21-1.32,9.32-1.98c3.1-0.65,6.19-1.4,9.28-2.13c2.87-0.68,5.75-1.36,8.57-2.22
		c2.88-0.88,6-1.96,8.36-3.89C595.3,129.94,594.85,129.45,594.49,129.63z"/>
	<path class="st3" d="M577.61,121.25c-3.58-0.53-7.27-0.09-10.85,0.3c-3.66,0.4-7.33,0.79-10.99,1.22
		c-7.2,0.84-14.45,1.72-21.54,3.26c-3.74,0.81-7.35,1.96-10.79,3.66c-0.11,0.05-0.03,0.25,0.08,0.2c6.36-2.52,13.38-3.45,20.11-4.42
		c7.25-1.05,14.53-1.86,21.81-2.65c4.03-0.44,7.96-0.78,12.01-0.49C578.07,122.38,578.22,121.34,577.61,121.25z"/>
	<path class="st3" d="M532.81,144.27c-1.12,0.11-2.23,0.16-3.36,0.29c-1.12,0.14-2.24,0.24-3.36,0.33
		c-1.53,0.13-3.08,0.23-4.61,0.47c-0.09-0.13-0.22-0.22-0.4-0.22c-2.72,0.08-5.44,0.44-8.15,0.72c-2.71,0.29-5.42,0.6-8.14,0.92
		c-5.24,0.62-10.48,1.26-15.71,1.98c-10.7,1.48-21.35,3.24-31.96,5.26c-3,0.57-5.98,1.22-8.95,1.9s-5.98,1.28-8.89,2.17
		c-0.07,0.02-0.04,0.12,0.03,0.11c2.71-0.37,5.38-0.97,8.07-1.47c2.69-0.49,5.38-0.94,8.06-1.46c5.25-1.01,10.51-1.96,15.78-2.84
		c10.61-1.77,21.26-3.27,31.95-4.49c3.03-0.35,6.07-0.65,9.11-0.93c2.79-0.26,5.61-0.43,8.39-0.81c1.84-0.04,3.69-0.35,5.5-0.66
		c1.11-0.19,2.22-0.4,3.33-0.58c1.12-0.18,2.19-0.47,3.3-0.71C532.82,144.28,532.82,144.27,532.81,144.27z"/>
	<path class="st3" d="M418.59,147.25c-1.05,0.05-2.05,0.31-3.09,0.49c-1.1,0.19-2.2,0.4-3.28,0.65c-1.19,0.28-2.37,0.58-3.53,0.95
		c-0.03,0-0.05,0-0.08,0.01c-2.43,0.72-4.88,1.7-7,3.11c-1.66,1.11-3.51,2.59-3.65,4.74c-0.01,0.16,0.23,0.18,0.28,0.04
		c0.19-0.62,0.51-1.14,0.9-1.6c0.62-0.38,1.45-0.46,2.15-0.55c0.93-0.13,1.79-0.35,2.63-0.79c1.59-0.83,2.81-2.17,3.95-3.52
		c0,0,0-0.01,0.01-0.01c0.34-0.12,0.68-0.24,1.03-0.34c0.22-0.07,0.33-0.23,0.37-0.41c1.04-0.32,2.08-0.64,3.13-0.95
		c0.99-0.29,1.98-0.59,2.97-0.87c1.07-0.3,2.17-0.47,3.23-0.83C418.66,147.33,418.66,147.24,418.59,147.25z"/>
	<path class="st3" d="M354.78,162.63c-4.98,2.26-10.58,4.85-13.88,9.4c-0.05,0.07,0.06,0.16,0.12,0.1c2.03-1.96,4.23-3.69,6.64-5.15
		c2.38-1.44,4.9-2.63,7.39-3.87C355.37,162.94,355.09,162.48,354.78,162.63z"/>
	<path class="st3" d="M492.95,136.34c-6.32,1.24-12.56,2.84-18.85,4.22c-6.34,1.39-12.71,2.58-19.12,3.59
		c-3.7,0.58-7.42,1.12-11.14,1.54c-0.04,0-0.04,0.07,0,0.06c12.97-0.97,25.74-3.57,38.42-6.36c3.62-0.8,7.24-1.64,10.82-2.61
		C493.35,136.7,493.23,136.29,492.95,136.34z"/>
	<path class="st3" d="M608.98,112.85c-9.49-1.65-19.2-1.41-28.62,0.51c-0.07,0.01-0.04,0.11,0.03,0.1
		c9.45-1.52,19.08-1.58,28.56-0.4C609.07,113.08,609.1,112.87,608.98,112.85z"/>
	<path class="st3" d="M649.06,117.32c-0.28-1.86-1.4-3.44-2.77-4.67c-3.19-2.85-7.58-4.43-11.67-5.43
		c-0.06-0.01-0.08,0.07-0.03,0.09c3.73,1.06,7.64,2.82,10.59,5.4c1.28,1.13,2.4,2.52,2.8,4.22c0.5,2.11-0.45,4.15-1.26,6.05
		c-0.23,0.53,0.49,0.99,0.8,0.46C648.58,121.6,649.38,119.48,649.06,117.32z"/>
	
		<linearGradient id="SVGID_1_" gradientUnits="userSpaceOnUse" x1="217.7341" y1="620.9189" x2="207.3324" y2="586.41" gradientTransform="matrix(1 0 0 -1 0 799.8898)">
		<stop  offset="0" style="stop-color:#C6A477"/>
		<stop  offset="1" style="stop-color:#FCDBA8;stop-opacity:0"/>
	</linearGradient>
	<path class="st4" d="M221.79,205.88c-0.25,0.73-0.51,1.46-0.89,2.12c-0.57,0.99-1.39,1.8-2.26,2.52c-0.98,0.81-2.06,1.55-3.28,1.89
		c-2.53,0.7-5.25-0.42-7.31-2.05c-2.84-2.26-4.83-5.51-5.8-9.01c-0.53-1.9-0.76-3.87-0.75-5.83c0.01-0.87-0.51-3.64,0.58-4.05
		c0.24-0.09,0.51-0.04,0.77-0.02c0.64,0.03,1.29-0.25,1.72-0.72c0.41-0.46,0.62-1.07,1.05-1.52c0.74-0.77,2.1-0.79,2.87-0.06
		c-1.03,1.63-2.11,3.46-1.78,5.36c0.2,1.11,0.86,2.08,1.67,2.87c0.17,0.17,0.37,0.36,0.38,0.6c0.01,0.26-0.19,0.47-0.38,0.64
		c-0.43,0.38-0.89,0.73-1.37,1.04c-0.45,0.29-0.95,0.56-1.23,1.01c-0.59,0.94,0.04,2.26,1.02,2.79s2.14,0.51,3.25,0.47
		c0.66-0.02,3.97-0.58,4.13,0.21c0.04,0.2-0.03,0.41-0.11,0.6c-0.62,1.56-1.73,2.93-3.13,3.85c0.32-0.21,1.2-0.16,1.61-0.28
		c0.56-0.16,1.07-0.4,1.59-0.67c0.96-0.51,1.52-1.3,2.11-2.21c0.83-1.29,1.67-2.61,2.03-4.1c0.41-1.69,0.16-3.45-0.08-5.17
		c0.47,0.63,0.57,1.45,0.7,2.22s0.33,1.6,0.93,2.1c0.07,0.05,1.88-2.62,2.02-2.78c1.27-1.43,1.3,1.4,1.31,2.07
		C223.17,201.89,222.47,203.93,221.79,205.88z"/>
	
		<linearGradient id="SVGID_00000055693500155904180650000017815636085443544448_" gradientUnits="userSpaceOnUse" x1="240.6454" y1="624.944" x2="244.7382" y2="576.3984" gradientTransform="matrix(1 0 0 -1 0 799.8898)">
		<stop  offset="0" style="stop-color:#C6A477"/>
		<stop  offset="1" style="stop-color:#FCDBA8;stop-opacity:0"/>
	</linearGradient>
	<path style="fill:url(#SVGID_00000055693500155904180650000017815636085443544448_);" d="M222.65,200.72
		c2.53-0.87,5.23-1.07,7.9-1.28c9.98-0.8,19.94-1.89,29.86-3.27c0.31-0.04,0.64-0.1,0.86-0.31c0.16-0.16,0.24-0.38,0.31-0.59
		c0.35-1.03,0.66-2.07,0.93-3.12c0.06-0.25,0.13-0.51,0.05-0.76c-0.24-0.79-1.42-0.58-2.16-0.94c-0.32,1.18-0.64,2.37-1.22,3.44
		s-1.48,2.02-2.62,2.44c-1.81,0.66-3.89-0.17-5.23-1.55c-0.5-0.51-1.21-1.16-1.81-0.77c-0.21,0.14-0.33,0.37-0.48,0.56
		c-0.77,1.01-2.23,1.09-3.5,1.07c-1.14-0.01-2.36-0.05-3.28-0.72c-0.41-0.3-0.76-0.72-1.25-0.84c-0.66-0.16-1.3,0.25-1.95,0.29
		c-0.8,0.05-1.59,0.16-2.4,0.19c-1.55,0.06-3.13-0.03-4.6-0.59c-0.29-0.11-0.59-0.24-0.9-0.2c-0.31,0.04-0.57,0.25-0.84,0.42
		c-0.76,0.48-1.65,0.68-2.52,0.87c-0.04,0.01-0.08,0.02-0.12,0s-0.06-0.07-0.07-0.12c-0.23-0.75-1.12-1.09-1.91-1.12
		c-0.79-0.03-1.59,0.14-2.35-0.07c-0.15-0.04-0.31-0.1-0.43-0.21c-0.2-0.18-0.27-0.47-0.36-0.73c-0.2-0.55-0.58-1.04-1.07-1.36
		c0.1,0.07,0.17,0.59,0.23,0.74c0.14,0.34,0.34,0.65,0.5,0.98c0.3,0.65,0.56,1.34,0.62,2.06c0.07,0.91,0.08,1.82,0.06,2.73
		C222.87,198.25,222.89,200.64,222.65,200.72z"/>
	
		<linearGradient id="SVGID_00000141452324498994867080000005547086464714329753_" gradientUnits="userSpaceOnUse" x1="457.0102" y1="703.0604" x2="470.9827" y2="604.0886" gradientTransform="matrix(1 0 0 -1 0 799.8898)">
		<stop  offset="0" style="stop-color:#C6A477"/>
		<stop  offset="0.2463" style="stop-color:#CCAA7D;stop-opacity:0.7537"/>
		<stop  offset="0.59" style="stop-color:#DEBD8D;stop-opacity:0.41"/>
		<stop  offset="0.9895" style="stop-color:#FBDAA7;stop-opacity:0.0105"/>
		<stop  offset="1" style="stop-color:#FCDBA8;stop-opacity:0"/>
	</linearGradient>
	<path style="fill:url(#SVGID_00000141452324498994867080000005547086464714329753_);" d="M357.13,169.74
		c0.53-0.14,1.07-0.26,1.61-0.33c2.04-0.26,4.1,0.11,6.14,0.42c4.83,0.73,9.71,1.14,14.59,1.21c0.43-0.58-2.7-2.87-3.24-2.97
		c12.03,2.15,24.62,1.1,36.13-3c-1.81-1.51-3.85-2.74-6.03-3.63c5.21,0.07,10.52,0.12,15.47-1.5c2.03-0.66,3.66-2.07,5.6-2.94
		c2.41-1.07,4.66-2.44,7.11-3.45c5.02-2.07,10.26-3.52,15.52-4.86c6.57-1.67,13.18-3.16,19.82-4.48c3.6-0.72,7.23-1.38,10.89-1.45
		c1.15-0.02,2.48,0.1,3.16,1.04c-2.16,1.05-4.33,2.1-6.49,3.15c-0.31,0.15-0.65,0.35-0.68,0.69c-0.04,0.43,0.45,0.69,0.87,0.8
		c2.1,0.54,4.31-0.05,6.4-0.62c2.9-0.8,5.8-1.6,8.69-2.4c1.86-0.51,3.73-1.03,5.42-1.96c1.29-0.71,2.49-1.66,3.92-2.09
		c1.29-0.39,2.77-0.38,4.11-0.65c11.36-2.23,22.77-4.47,34.34-4.93c10.99-0.44,22.4,0.66,32.61-3.41
		c8.47-3.38,15.63-10.16,24.64-11.57c5.76-0.9,11.6,0.53,17.42,0.9c2.89,0.18,5.8,0.09,8.67-0.27c2-0.25,4.14-0.44,6.01-1.22
		c0.64-0.27,1.16-0.71,1.83-0.87c1.06-0.26,2.13-0.24,3.18-0.64c1.29-0.49,2.49-1.38,3.07-2.64c0.32-0.7,0.51-1.56,1.19-1.92
		c0.51-0.27,1.16-0.15,1.62,0.2s0.75,0.88,0.92,1.43c0.12,0.4,0.2,0.83,0.45,1.16c0.45,0.59,1.37,0.67,2.04,0.34
		s1.13-0.98,1.46-1.65c1.07-2.14,1.12-4.66,0.68-7c-0.07-0.4-0.14-0.87,0.16-1.15c0.39-0.36,1-0.06,1.52,0.02
		c1.15,0.17,2.29-0.87,3.4-0.51c0.51,0.16,0.89,0.59,1.23,1c2.06,2.43,2.79,4.89,3.51,7.94c0.44,1.9,0.89,3.8,1.04,5.75
		c0.2,2.69-0.18,5.38-0.65,8.04c-0.62,3.48-1.46,7.07-3.66,9.85c-2.49,3.14-5.95,5.53-9.79,6.72c-3.2,0.99-6.55,1.33-9.88,1.69
		c-12.72,1.39-25.38,3.26-38.01,5.28c-3.16,0.5-6.32,1.02-9.47,1.53c-12.57,2.06-25.22,3.68-37.83,5.48
		c-12.76,1.82-25.53,3.64-38.29,5.46c-1.49,0-3.1,0.44-4.57,0.65c-1.59,0.23-3.17,0.45-4.76,0.68c-3.17,0.45-6.35,0.9-9.52,1.36
		c-6.14,0.87-12.25,1.67-18.39,2.57c-12.69,1.87-25.4,3.58-38.12,5.14c-9.16,1.12-18.34,2.17-27.52,3.13
		c-6.1,0.64-12.16,0.86-18.25,1.56c-6.29,0.72-12.56,1.6-18.84,2.43c-6.26,0.82-12.52,1.59-18.81,2.08
		c-2.96,0.23-5.83,0.45-8.74,0.88c-12.6,1.85-25.29,3.3-37.93,4.92c-9.2,1.18-18.4,2.35-27.59,3.53c-0.79,0.1-1.63,0.2-2.36-0.13
		c0.07,0.03,1.03-4.41,1.11-4.89c0.24-1.53-0.53-3.29,0.85-4.43c0.79-0.65,1.83-0.89,2.81-1.19c2.5-0.77,4.81-2.05,7.1-3.33
		c-0.45,0.62-2.21,2.61-1.99,3.39c0.27,0.93,1.87,1.01,2.59,0.84c0.99-0.24,1.85-0.85,2.77-1.27c2.1-0.97,4.5-0.97,6.81-1.08
		c5.23-0.24,10.43-1.09,15.47-2.53c0.17-0.05,0.35-0.1,0.49-0.22c0.56-0.45,0.12-1.38-0.48-1.76c-0.6-0.38-1.37-0.59-1.73-1.2
		c6.54-0.69,13.14,0.31,19.72,0.17c7.6-0.17,15.15-1.9,22.07-5.05C353.51,171.16,355.27,170.25,357.13,169.74z"/>
	
		<linearGradient id="SVGID_00000092429629642597382530000001719655625855151499_" gradientUnits="userSpaceOnUse" x1="460.1249" y1="668.8763" x2="477.3376" y2="590.4628" gradientTransform="matrix(1 0 0 -1 0 799.8898)">
		<stop  offset="0" style="stop-color:#C6A477"/>
		<stop  offset="0.26" style="stop-color:#CAA87B;stop-opacity:0.74"/>
		<stop  offset="0.5411" style="stop-color:#D7B586;stop-opacity:0.4589"/>
		<stop  offset="0.8313" style="stop-color:#ECCB9A;stop-opacity:0.1687"/>
		<stop  offset="1" style="stop-color:#FCDBA8;stop-opacity:0"/>
	</linearGradient>
	<path style="fill:url(#SVGID_00000092429629642597382530000001719655625855151499_);" d="M657.64,124.82
		c-0.5,3.97-1.4,7.93-3.2,11.5s-4.57,6.74-8.14,8.53c-2.11,1.06-4.43,1.61-6.73,2.11c-6.39,1.37-13.02,2.63-19.56,2.98
		c-5.95,0.31-11.96,2.05-17.87,2.96c-20.92,3.22-41.99,5.67-62.96,8.6c-8.95,1.25-17.89,2.49-26.84,3.74
		c-7.08,0.99-14.16,1.97-21.24,2.96c-1.67,0.23-3.35,0.46-5.02,0.69c-10.12,1.38-20.18,3.37-30.36,4.64
		c-8.57,1.06-17.1,2.26-25.68,3.17c-20.94,2.22-41.94,3.92-62.85,6.37c-5.09,0.6-10.51,1.84-15.63,1.84
		c-2.67,0.31-5.34,0.63-8.02,0.94c-2.39,0.28-5.11,0.25-7.41,0.95c-4.5,1.37-9.17,1.78-13.88,2.24c-10.45,1.04-20.95,1.64-31.34,3.2
		c-5.67,0.85-11.34,1.99-17.07,2.09c1.14-1.91,1.27-3.6,1.75-5.59c0.09-0.38,0.49-0.72,0.87-0.6c0.26,0.08,0.42,0.34,0.62,0.53
		c0.68,0.67,1.79,0.52,2.72,0.29c2.18-0.53,4.32-1.21,6.4-2.04c0.58-0.23,1.18-0.47,1.8-0.41c0.52,0.05,1,0.31,1.5,0.49
		c1.36,0.49,2.86,0.35,4.29,0.18c6.71-0.78,13.38-1.97,19.94-3.57c0.9-0.22,1.83-0.46,2.59-0.99s1.35-1.42,1.25-2.34
		c3.31-0.49,6.67-0.09,10.01,0.12c7.11,0.44,14.25,0.04,21.36-0.37c2.05-0.12,4.11-0.45,5.87-1.54c-1.14-0.08-3.37-1.05-4.38-0.81
		c2.95-0.68,5.94-1.26,8.93-1.72c1.56-0.24,3.18-0.44,4.7-0.02c0.97,0.27,1.85,0.78,2.8,1.08c1.23,0.39,2.53,0.44,3.82,0.39
		c3.79-0.17,7.47-1.21,11.12-2.24c8.37-2.37,16.74-4.74,25.11-7.11c1.01-0.29,2.15-0.56,3.06-0.04c-2.24,1.54-4.49,3.08-6.73,4.62
		c3.35-0.35,6.69-0.78,10.02-1.31c3.15-0.5,6.51-1.62,9.68-1.72c6.08-0.2,12.17-1.01,18.16-2.3c6.82-1.46,13.73-2.95,19.91-6.19
		c0.26-0.14,0.55-0.32,0.6-0.61c0.05-0.32-0.21-0.6-0.46-0.8c-1.08-0.86-2.42-1.38-3.8-1.47c10.25-2.88,20.97-3.21,31.55-3.51
		c5.33-0.15,10.66-0.29,15.97-0.73c4.82-0.4,9.65-1.77,14.44-1.99c6.11-0.28,11.82-2.98,17.78-4.3c4.77-1.06,9.73-1.25,14.43-2.6
		c4.31-1.24,8.3-3.44,12.58-4.8c1.05-0.33,2.38-0.55,3.12,0.28c0.35,0.39,0.47,0.93,0.74,1.38c1.07,1.79,3.71,1.42,5.73,0.94
		c15.59-3.75,32.98-1.07,46.9-9.04c1.23-0.7,2.5-1.51,3.91-1.53c1.4-0.03,2.67,0.71,3.96,1.24c4.39,1.82,10.36,1.42,14.09-1.71
		c3.72-3.12,4.91-8.34,8.08-11.93c1.56-1.76,4.62-3.58,6.63-1.33C658.51,120.01,657.85,123.13,657.64,124.82z"/>
	
		<linearGradient id="SVGID_00000005985766885292603530000013905442831445192360_" gradientUnits="userSpaceOnUse" x1="234.6096" y1="576.1948" x2="231.0732" y2="612.6754" gradientTransform="matrix(1 0 0 -1 0 799.8898)">
		<stop  offset="0" style="stop-color:#C6A477"/>
		<stop  offset="0.26" style="stop-color:#CAA87B;stop-opacity:0.74"/>
		<stop  offset="0.5411" style="stop-color:#D7B586;stop-opacity:0.4589"/>
		<stop  offset="0.8313" style="stop-color:#ECCB9A;stop-opacity:0.1687"/>
		<stop  offset="1" style="stop-color:#FCDBA8;stop-opacity:0"/>
	</linearGradient>
	<path style="fill:url(#SVGID_00000005985766885292603530000013905442831445192360_);" d="M258.87,194.54
		c-1.11,1.32-2.95,1.91-4.65,1.68c-1.58-0.21-3.03-1.07-4.15-2.21c-0.25-0.25-0.58-0.54-0.91-0.41c-0.2,0.09-0.3,0.3-0.41,0.49
		c-0.57,1.03-1.75,1.61-2.92,1.76s-2.35-0.06-3.51-0.27c-0.67-0.12-1.44-0.33-1.68-0.96c-0.12-0.32-0.11-0.75-0.42-0.9
		c-0.22-0.11-0.47-0.01-0.7,0.08c-2.23,0.91-4.72,1.17-7.08,0.73c-2.81,2.08-6.46,3-9.92,2.51c0.13,1.59-0.49,3.23-1.64,4.34
		c-0.38,0.36-0.82,0.68-1.12,1.11c-0.25,0.35-0.39,0.76-0.58,1.14c-1.07,2.15-3.36,3.37-5.51,4.44c-0.16,0.08-0.36,0.16-0.52,0.07
		c-0.15-0.09-0.18-0.28-0.23-0.44c-0.27-1.01-1.37-1.56-2.4-1.72s-2.1-0.06-3.1-0.36c-0.8-0.24-1.51-0.73-2.31-1
		s-1.78-0.27-2.36,0.35c1.57,3.02,3.89,5.88,7.12,6.96c3.08,1.03,6.7,0.18,9-2.11c2.14-2.14,3.03-5.21,3.5-8.2
		c0.05-0.34,0.13-0.71,0.41-0.9c0.13-0.08,0.29-0.12,0.44-0.14c11.51-2.09,23.34-1.85,34.84-4c1.38-0.26,4.09-0.94,3.67-2.91
		C261.26,191.44,259.49,193.79,258.87,194.54z"/>
	<path class="st9" d="M640.65,146.91c11.32-1.86,18.67-14.41,16.43-28.04s-13.23-23.16-24.55-21.3
		c-23.68,4.93-47.35,9.86-71.03,14.8c-37.97,7.91-75.93,15.82-113.9,23.73c-28.94,6.03-57.56,14.04-86.5,20.7
		c-47.32,10.9-92.87,21.29-140.2,32.18"/>
	<path class="st9" d="M640.5,146.93c-23.94,3.41-47.89,6.82-71.83,10.23c-38.4,5.47-76.79,10.94-115.19,16.41
		c-29.27,4.17-58.91,6.37-88.39,9.94c-48.21,5.84-93.8,11.37-142.01,17.21"/>
	
		<ellipse transform="matrix(0.9864 -0.1642 0.1642 0.9864 -29.4965 37.4858)" class="st10" cx="211.99" cy="197.16" rx="10.66" ry="15.56"/>
	<path class="st11" d="M204.31,188.43c0.67-1.01,1.53-1.66,2.54-1.82c3.16-0.53,6.54,3.97,7.55,10.03
		c1.01,6.07-0.73,11.41-3.89,11.94c-1.08,0.18-2.18-0.23-3.21-1.08"/>
	<g>
		<g>
			<path d="M520.1,154.09c-0.42,0-0.84-0.16-1.17-0.46c-0.4-0.36-0.6-0.87-0.57-1.39c0.13-1.92,0.13-3.9,0-5.89
				c-0.31-4.48-1.3-9.03-2.96-13.51l0,0c-0.15-0.4-0.12-0.84,0.07-1.2c0.19-0.35,0.54-0.6,0.95-0.67
				c5.33-0.93,10.66-1.86,15.99-2.79c0.93-0.16,1.79-0.26,2.55-0.29c0.81-0.03,1.66,0.09,2.52,0.37c0.9,0.29,1.75,0.84,2.52,1.63
				c0.79,0.82,1.4,1.92,1.82,3.28c0.36,1.19,0.48,2.24,0.36,3.12c-0.12,0.85-0.37,1.53-0.75,2.03c-0.07,0.1-0.14,0.19-0.21,0.27
				c0.27,0.09,0.56,0.21,0.84,0.35c0.61,0.33,1.16,0.87,1.62,1.63c0.47,0.76,0.75,1.75,0.85,2.94c0.12,1.44-0.03,2.68-0.43,3.7
				c-0.39,0.98-0.98,1.77-1.76,2.35c-0.73,0.55-1.57,0.97-2.5,1.26c-0.88,0.27-1.97,0.51-3.25,0.71c-5.41,0.85-10.83,1.7-16.25,2.54
				C520.26,154.09,520.18,154.09,520.1,154.09z M535.29,129.23c-0.06,0-0.12,0-0.18,0c-0.71,0.03-1.51,0.12-2.38,0.27
				c-5.33,0.93-10.65,1.86-15.99,2.79l-0.09,0.17c1.7,4.61,2.73,9.28,3.04,13.9c0.14,2.04,0.14,4.08,0,6.07
				c-0.01,0.13,0.06,0.21,0.1,0.25c0.05,0.04,0.13,0.09,0.23,0.07c5.42-0.84,10.84-1.68,16.25-2.54c1.21-0.19,2.25-0.42,3.07-0.67
				c0.79-0.24,1.5-0.6,2.12-1.06c0.6-0.45,1.06-1.07,1.37-1.84c0.33-0.83,0.45-1.88,0.34-3.12c-0.08-0.97-0.3-1.75-0.65-2.32
				c-0.32-0.52-0.67-0.89-1.05-1.09c-0.4-0.21-0.77-0.33-1.1-0.35c-0.38-0.03-0.72-0.02-1.01,0.03l-0.69,0.12l-0.26-1.33l0.61-0.19
				c0.05-0.01,0.21-0.05,0.56-0.23c0.22-0.12,0.47-0.35,0.72-0.68c0.25-0.34,0.42-0.83,0.52-1.47c0.1-0.68-0.01-1.54-0.31-2.54
				c-0.35-1.14-0.84-2.04-1.47-2.69c-0.59-0.61-1.24-1.03-1.91-1.25C536.51,129.33,535.89,129.23,535.29,129.23z M524.45,148.46
				l-0.02-0.82c-0.03-1.2-0.12-2.44-0.25-3.67l-0.07-0.59l0.58-0.1c3.69-0.61,7.39-1.22,11.08-1.84c0.68-0.11,1.3,0.05,1.81,0.48
				c0.49,0.42,0.78,1,0.84,1.73c0.08,0.83-0.08,1.5-0.47,1.99c-0.38,0.48-0.9,0.77-1.54,0.88c-3.72,0.61-7.43,1.21-11.15,1.81
				L524.45,148.46z M525.57,144.5c0.08,0.8,0.13,1.59,0.17,2.38c3.45-0.56,6.9-1.12,10.35-1.68c0.33-0.05,0.58-0.19,0.77-0.43
				c0.18-0.23,0.26-0.6,0.21-1.1c-0.03-0.35-0.14-0.6-0.33-0.77c-0.12-0.1-0.3-0.21-0.66-0.15
				C532.57,143.34,529.07,143.92,525.57,144.5z M523.51,140.27l-0.14-0.68c-0.26-1.24-0.57-2.49-0.92-3.71l-0.2-0.68l11.19-1.93
				c0.61-0.11,1.23,0.06,1.78,0.47c0.54,0.4,0.9,0.95,1.09,1.63c0.21,0.77,0.15,1.44-0.17,2s-0.82,0.91-1.45,1.01
				c-3.5,0.6-7,1.19-10.5,1.78L523.51,140.27z M523.93,136.27c0.22,0.81,0.43,1.63,0.61,2.45c3.28-0.55,6.55-1.11,9.83-1.67
				c0.26-0.04,0.45-0.18,0.58-0.42c0.15-0.26,0.16-0.59,0.05-1.02c-0.1-0.36-0.28-0.64-0.55-0.84c-0.24-0.18-0.45-0.24-0.69-0.2
				L523.93,136.27z"/>
		</g>
		<g>
			<path d="M550.29,149.25c-0.85,0-1.53-0.09-2.1-0.28c-0.58-0.2-1.13-0.54-1.63-1c-0.56-0.5-0.97-1.11-1.2-1.82
				c-0.2-0.62-0.34-1.4-0.41-2.39c-0.26-3.54-0.95-7.14-2.04-10.69c-0.31-0.99-0.48-1.79-0.52-2.44c-0.05-0.73,0.09-1.44,0.39-2.12
				c0.23-0.61,0.58-1.15,1.04-1.55c0.44-0.4,1.06-0.74,1.84-1.01c0.73-0.25,1.61-0.49,2.7-0.71c1.05-0.21,2.67-0.52,4.88-0.91
				c2.21-0.39,3.84-0.66,4.91-0.82c1.09-0.16,2.05-0.25,2.86-0.27c0.85-0.02,1.63,0.07,2.3,0.26c0.68,0.2,1.37,0.53,2.05,0.98
				c0.74,0.46,1.37,1.02,1.83,1.66c0.46,0.64,0.87,1.44,1.2,2.39c0.38,1.09,0.73,2.19,1.03,3.29c0.73,2.62,1.23,5.17,1.53,7.8
				c0.11,0.96,0.09,1.82-0.07,2.56c-0.15,0.74-0.5,1.46-1.03,2.12c-0.43,0.58-0.95,1.07-1.54,1.45c-0.57,0.37-1.28,0.69-2.11,0.95
				c-0.81,0.26-1.8,0.5-2.96,0.73c-1.15,0.22-2.81,0.51-5,0.86c-2.18,0.35-3.84,0.6-4.97,0.74c-1.14,0.15-2.13,0.22-2.94,0.23
				C550.32,149.25,550.3,149.25,550.29,149.25z M561.3,124.56c-0.05,0-0.11,0-0.16,0c-0.75,0.02-1.66,0.11-2.7,0.26
				c-1.06,0.16-2.69,0.43-4.88,0.82s-3.8,0.69-4.84,0.9c-1.01,0.21-1.87,0.43-2.54,0.66c-0.62,0.22-1.1,0.47-1.42,0.76
				c-0.31,0.28-0.55,0.65-0.73,1.12c-0.24,0.52-0.33,1.03-0.3,1.54c0.04,0.54,0.19,1.24,0.46,2.13l0,0
				c1.12,3.65,1.83,7.34,2.1,10.99c0.07,0.88,0.18,1.56,0.34,2.07c0.15,0.47,0.41,0.86,0.79,1.19c0.37,0.34,0.73,0.56,1.12,0.7
				c0.41,0.14,0.94,0.21,1.68,0.21c0.76-0.01,1.69-0.08,2.79-0.22c1.12-0.14,2.76-0.39,4.93-0.74c2.16-0.35,3.82-0.63,4.95-0.86
				c1.11-0.22,2.06-0.45,2.82-0.69c0.73-0.23,1.34-0.5,1.81-0.81c0.47-0.3,0.88-0.7,1.24-1.18c0.42-0.53,0.68-1.07,0.8-1.62
				c0.12-0.61,0.14-1.33,0.05-2.15c-0.3-2.56-0.78-5.04-1.49-7.59c-0.3-1.07-0.64-2.14-1.01-3.2c-0.28-0.81-0.62-1.49-1-2.01
				c-0.35-0.48-0.83-0.91-1.43-1.28c-0.57-0.38-1.12-0.65-1.66-0.8C562.53,124.63,561.95,124.56,561.3,124.56z M551.95,143.69
				c-0.4,0-0.72-0.07-0.97-0.21c-0.47-0.26-0.75-0.75-0.83-1.47l0,0c-0.3-2.95-0.9-5.95-1.77-8.9c-0.22-0.75-0.04-1.28,0.15-1.58
				c0.28-0.45,0.8-0.73,1.6-0.87l10.51-1.84c0.81-0.14,1.41-0.1,1.86,0.11c0.51,0.24,0.88,0.73,1.11,1.46
				c0.69,2.18,1.25,4.39,1.64,6.59c0.16,0.87,0.29,1.74,0.4,2.61c0.07,0.55-0.1,1.06-0.5,1.48c-0.37,0.39-0.92,0.64-1.69,0.77
				c-5.12,0.86-8.43,1.41-9.93,1.66l-0.72,0.12C552.49,143.67,552.21,143.69,551.95,143.69z M551.59,142.35
				c0.03,0,0.26,0.05,0.91-0.05l0.72-0.12c1.5-0.25,4.81-0.8,9.93-1.66c0.6-0.1,0.87-0.27,0.99-0.4c0.19-0.2,0.19-0.35,0.18-0.46
				c-0.11-0.84-0.23-1.69-0.39-2.53c-0.39-2.14-0.92-4.29-1.6-6.41c-0.11-0.36-0.25-0.54-0.33-0.58c-0.04-0.02-0.29-0.12-1.03,0.01
				l-10.51,1.84c-0.47,0.08-0.7,0.22-0.77,0.32c-0.05,0.08-0.11,0.23-0.02,0.53c0.9,3.03,1.51,6.11,1.82,9.15
				C551.53,142.24,551.58,142.33,551.59,142.35L551.59,142.35z"/>
		</g>
		<g>
			<path d="M572.01,145.75v-0.85c0.03-7.29-1.76-14.88-5.18-21.95l-0.37-0.77l10.66-1.89l0.25,0.18
				c5.73,4.18,10.95,8.65,15.54,13.28c-0.96-4.95-2.69-9.82-5.15-14.5l-0.41-0.78l6.85-1.22l0.25,0.47
				c3.86,7.19,6.07,15.03,6.39,22.69l0.02,0.55l-0.54,0.09c-3.28,0.55-6.57,1.1-9.85,1.65l-0.4,0.07l-0.27-0.33
				c-3.76-4.55-8.17-9.02-13.14-13.3c1.59,4.95,2.4,9.95,2.43,14.92v0.53L572.01,145.75z M575.87,126.76
				c5.59,4.65,10.53,9.55,14.7,14.55c2.97-0.49,5.94-0.99,8.91-1.49c-0.38-7.11-2.43-14.37-5.95-21.07l-4.17,0.74
				c2.67,5.26,4.43,10.75,5.26,16.33l-1.35,0.15c-4.72-4.94-10.26-9.76-16.39-14.27l-8.47,1.5c3.15,6.77,4.85,13.98,4.95,20.95
				l4.39-0.72c-0.09-5.4-1.14-10.86-3.13-16.22"/>
		</g>
		<g>
			<path d="M603.72,140.58c-0.52,0-1.04-0.18-1.46-0.51c-0.54-0.42-0.87-1.04-0.93-1.71c-0.53-6.48-2.36-12.87-5.46-19
				c-0.27-0.53-0.29-1.13-0.05-1.63c0.23-0.5,0.69-0.84,1.24-0.94l4.12-0.73c0.5-0.09,1.04,0.17,1.29,0.64
				c1.21,2.23,2.27,4.53,3.16,6.85c1.48-2.84,2.77-5.71,3.83-8.52c0.13-0.34,0.43-0.58,0.79-0.65l6.98-1.25
				c0.43-0.07,0.87,0.09,1.16,0.44c0.28,0.35,0.36,0.8,0.19,1.18c-1.62,3.77-3.61,7.59-5.92,11.36c4.8,2.74,9.46,5.62,13.87,8.56
				l0,0c0.4,0.27,0.61,0.73,0.54,1.17c-0.07,0.45-0.41,0.8-0.86,0.87l-7.94,1.36c-0.32,0.06-0.66-0.03-0.94-0.25
				c-3-2.36-6.19-4.69-9.49-6.94c0.58,2.61,0.96,5.25,1.12,7.86c0.03,0.55-0.34,1.02-0.88,1.11l-4.01,0.68
				C603.96,140.57,603.84,140.58,603.72,140.58z M601.37,117.4l-3.97,0.71c-0.21,0.04-0.3,0.18-0.34,0.26
				c-0.07,0.14-0.06,0.32,0.02,0.47c3.18,6.29,5.06,12.86,5.6,19.52c0.02,0.27,0.16,0.52,0.37,0.69c0.21,0.16,0.46,0.23,0.71,0.19
				l3.85-0.65c-0.17-2.64-0.57-5.31-1.18-7.95c-0.11-0.46,0.07-0.91,0.45-1.15c0.38-0.24,0.88-0.22,1.27,0.05
				c3.44,2.34,6.77,4.76,9.9,7.22l7.38-1.26c-4.31-2.86-8.86-5.67-13.55-8.34c-0.28-0.16-0.49-0.43-0.58-0.73s-0.05-0.63,0.11-0.88
				c2.25-3.66,4.2-7.36,5.8-11.02l-6.5,1.16c-1.12,2.96-2.49,5.97-4.06,8.95c-0.2,0.39-0.63,0.6-1.08,0.54s-0.85-0.37-1.01-0.81
				C603.66,122.01,602.59,119.66,601.37,117.4z M610.58,115.69L610.58,115.69L610.58,115.69z"/>
		</g>
		<g>
			<path d="M629.18,136.17c-0.3,0-0.6-0.1-0.85-0.29c-0.31-0.24-0.51-0.6-0.55-0.98l0,0c-0.16-1.57-0.41-3.16-0.73-4.73
				c-0.14-0.7,0.28-1.33,0.97-1.45l5.11-0.9c0.35-0.06,0.72,0.02,1.03,0.23c0.3,0.21,0.52,0.53,0.6,0.88
				c0.35,1.65,0.62,3.33,0.81,4.99c0.07,0.66-0.36,1.24-1,1.35l-5.16,0.89C629.32,136.16,629.25,136.17,629.18,136.17z
				 M629.11,134.86l-0.67,0.02L629.11,134.86L629.11,134.86L629.11,134.86z M633.43,129.11l-5.09,0.92c0.35,1.57,0.6,3.2,0.77,4.81
				l5.12-0.89C634.04,132.35,633.77,130.72,633.43,129.11z M628.27,127.65c-1.03,0-2.03-0.7-2.36-1.74l0,0
				c-1.17-3.62-2.76-7.18-4.72-10.58c-0.37-0.64-0.42-1.37-0.15-2c0.27-0.62,0.81-1.05,1.49-1.17l3.82-0.68
				c0.99-0.18,2.05,0.33,2.55,1.24c2.09,3.75,3.72,7.7,4.86,11.74c0.16,0.56,0.08,1.13-0.21,1.61c-0.29,0.48-0.78,0.81-1.35,0.91
				l-3.55,0.63C628.52,127.64,628.39,127.65,628.27,127.65z M627.19,125.59c0.16,0.49,0.64,0.8,1.13,0.72l3.55-0.63
				c0.22-0.04,0.4-0.16,0.51-0.35c0.11-0.18,0.14-0.39,0.08-0.59c-1.11-3.93-2.7-7.78-4.73-11.43c-0.21-0.37-0.64-0.58-1.05-0.51
				l-3.82,0.68c-0.36,0.06-0.52,0.31-0.58,0.45c-0.11,0.25-0.09,0.55,0.06,0.81C624.36,118.22,625.98,121.87,627.19,125.59
				L627.19,125.59z"/>
		</g>
	</g>
	<path class="st12" d="M222.86,203.66c0.01,0.08,0.02,0.16,0.03,0.25c0.2,2.07,1.56,3.96,2.5,5.77c1.52,2.94,3.03,5.88,4.55,8.82
		c0.51,1.03,2.54,1.82,3.37,2.62c0.76,0.73,1.66,1.35,2.51,1.96c1.78,1.29,3.72,0.9,5.68,0.18c1.08-0.39,2.15-0.82,3.2-1.29
		c0.37-0.17,0.75-0.34,1.12-0.51c5.22-2.46,10.04-5.79,14.19-9.8c2.03-1.97,3.75-4.19,5.64-6.26c2.09-2.3,4.31-4.67,5.84-7.39
		c0.92-1.63,2.09-3.16,3.13-4.72l1.36-6.64c-0.07-0.84-0.14-1.69-0.21-2.53c-0.23-2.82-0.37-5.64-0.63-8.45
		c-0.16-1.73-0.02-3.49,0.4-5.17c0.15-0.58,0.33-1.17,0.31-1.77c-0.02-0.44-0.15-0.86-0.25-1.28c-0.15-0.6-0.29-1.2-0.44-1.81
		l-2.88-1.29l-3.84,1.63l-2.6,3.24l-5.31-7.35l-5.46-1.72l-4.28,1.05l-1.75,1.2l-8.42-0.66l-3.68,1.18l-4.19,4.02l-5.07,3.47
		l-1.91,2.04l-1.55,2.32l-4.73,4.17l-1.73,2.92c0.07,1.01,0.14,2.02,0.21,3.04c0.02,0.29-0.03,0.64,0.03,0.92
		c0.06,0.31,0.34,0.61,0.55,0.83c0.48,0.5,1.07,0.89,1.49,1.44c0.21,0.27,0.39,0.6,0.71,0.72c0.26,0.09,0.55,0.02,0.82-0.05
		c1.88-0.5,3.76-1,5.63-1.5c0.31-0.08,0.62-0.16,0.93-0.09c0.83,0.18,1.09,1.13,1.43,1.78c0.26,0.5,0.49,1.05,0.8,1.52l2.4,3.63
		l3.62,0.78l4.8-2.01l0.54,2.08c0,0,2.89,0.61,3.27,0.7s3.3-0.7,3.3-0.7l1.51-2.79l1.35,2.43c0,0,2.26,1.19,2.55,1.36
		c0.29,0.17,4.03-0.3,4.03-0.3l1.38-1.55l0.87-4.31l2.32,0.68c0,0-0.29,2.22-0.48,2.69c-0.15,0.38-0.26,0.77-0.39,1.16
		c-0.13,0.42-0.19,1.06-0.42,1.42c-0.49,0.78-2.48,0.8-3.29,0.89c-11.2,1.22-22.39,2.45-33.59,3.67c-0.35,0.04-0.73,0.09-0.99,0.32
		c-0.25,0.22-0.35,0.58-0.41,0.91C222.63,202.3,222.77,202.94,222.86,203.66z"/>
	
		<linearGradient id="SVGID_00000105393723847087944320000003326318625167692446_" gradientUnits="userSpaceOnUse" x1="217.2714" y1="570.7336" x2="243.8694" y2="598.1316" gradientTransform="matrix(1 0 0 -1 0 799.8898)">
		<stop  offset="0" style="stop-color:#000000"/>
		<stop  offset="0.0137" style="stop-color:#070707;stop-opacity:0.9873"/>
		<stop  offset="0.1278" style="stop-color:#3F3F3F;stop-opacity:0.8813"/>
		<stop  offset="0.2456" style="stop-color:#707070;stop-opacity:0.7719"/>
		<stop  offset="0.3645" style="stop-color:#9A9A9A;stop-opacity:0.6614"/>
		<stop  offset="0.4848" style="stop-color:#BCBCBC;stop-opacity:0.5497"/>
		<stop  offset="0.6068" style="stop-color:#D6D6D6;stop-opacity:0.4363"/>
		<stop  offset="0.7315" style="stop-color:#E9E9E9;stop-opacity:0.3205"/>
		<stop  offset="0.8604" style="stop-color:#F4F4F4;stop-opacity:0.2008"/>
		<stop  offset="1" style="stop-color:#F8F8F8;stop-opacity:0.0711"/>
	</linearGradient>
	<path style="fill:url(#SVGID_00000105393723847087944320000003326318625167692446_);" d="M251.02,218.43
		c-1.08,0.48-2.24,1.17-3.48,0.88c-0.89-0.2-1.68-1.12-1.4-1.99c0.24-0.74,1.07-1.08,1.8-1.33c1.63-0.55,3.27-1.11,4.9-1.66
		c1.52-0.51,3.16-1.12,4-2.48c-7.21,2.32-15.52,0.92-21.57-3.63c-0.26-0.2-0.52-0.62-0.24-0.79c0.08-0.05,0.17-0.05,0.26-0.06
		c2.72-0.11,5.42-0.52,8.05-1.19c2.31-0.59,4.5-1.78,6.8-2.26c4.34-0.89,7.59-4.39,11.47-6.53c2.86-1.58,3.89-3.54,4.66-6.66
		c0.84-3.42,0.77-6.97,1.03-10.46c0.26-3.38,1.87-5.97,3.86-8.62c0.51-0.69,1.03-1.37,1.53-2.06c0.03-0.36,0.04-0.73,0.02-1.09
		c-0.02-0.3-0.09-0.57-0.19-0.82c0.16-0.99-0.31-2.11-1.4-2.26c-0.18-0.03-0.36-0.05-0.53-0.08c-0.92-0.13-1.98,0.18-2.36,1.11
		c-0.83,0.41-1.64,1.02-2.18,1.67c-0.94,1.13-1.25,2.59-1.55,4c-0.12,0.54-0.2,1.07-0.26,1.61c-0.15,0.11-0.27,0.26-0.37,0.43
		c-0.07,0.05-0.13,0.12-0.2,0.18c0.01,0.33,0.04,0.66,0.03,0.99c-0.02,1.16-0.18,2.29-0.33,3.43c-0.08,0.58-0.42,0.99-1.02,1.02
		c-0.06,0-0.12,0.01-0.18,0.01c-0.34,0-0.73-0.19-0.89-0.51c-0.79-1.6-1.01-3.32-1.16-5.07c-0.12-1.43-0.25-2.9-0.84-4.23
		c-0.48-1.07-1.14-1.71-2.12-2.23c-0.41-0.22-0.79-0.37-1.28-0.49c-0.27-0.07-0.36-0.08-0.6-0.1c-0.1-0.01-0.21-0.01-0.31-0.01
		c-0.04,0-0.31,0.02-0.21,0.01c-0.34,0.04-0.63,0.15-0.91,0.28c-0.11,0.28-0.18,0.56-0.16,0.83c0.47,0.26,0.75,0.73,1.08,1.15
		c0.53,0.68,1.05,1.31,1.49,2.07c1.06,1.82,1.81,3.86,2.25,5.92c0.46,2.14,0.68,4.34,0.75,6.53c0.04,1.13,0.04,2.26,0.02,3.39
		c0.04,0.09,0.07,0.19,0.11,0.28c-0.04,0.14-0.08,0.28-0.11,0.42c0,0.44-0.03,0.89-0.11,1.32c0.31,1.32,2.11,1.9,3.21,1.08
		c-0.09,0.56-0.17,1.13-0.3,1.69c-0.39,1.71-0.76,3.91-2.6,4.6c-1.93,0.72-4.25,0.78-6.28,1.08c-3.68,0.56-7.37,1.1-11.06,1.64
		c-3.66,0.54-7.23,1.17-10.85,1.91c-0.51,0.1-1.01,0.2-1.52,0.3c-0.89,0.18-1.78,0.35-2.67,0.55c-1.2,0.27-2.2,0.89-3.5,0.83
		c-0.59-0.03-1.56-0.21-1.4,0.69c0.04,0.25,0.17,0.48,0.3,0.69c0.76,1.32,1.61,2.63,2.32,3.98c0.31,0.59,0.38,1.36,0.62,2
		c0.27,0.72,0.6,1.42,0.94,2.11c0.54,1.11,1.11,2.2,1.73,3.26c0.7,1.2,1.48,2.36,2.31,3.47c0.37,0.5,0.73,1.05,1.11,1.54
		c0.38,0.49,1.01,0.83,1.5,1.18c1.59,1.13,3.27,2.18,5.32,2.06c1.14-0.06,2.24-0.42,3.31-0.81
		C244.94,221.98,248.12,220.4,251.02,218.43z"/>
	
		<linearGradient id="SVGID_00000176005876053815675190000010775556509804299941_" gradientUnits="userSpaceOnUse" x1="214.8298" y1="637.0869" x2="276.6169" y2="598.1494" gradientTransform="matrix(1 0 0 -1 0 799.8898)">
		<stop  offset="0" style="stop-color:#000000"/>
		<stop  offset="0.0252" style="stop-color:#0B0B0B;stop-opacity:0.9766"/>
		<stop  offset="0.1825" style="stop-color:#494949;stop-opacity:0.8305"/>
		<stop  offset="0.3383" style="stop-color:#7E7E7E;stop-opacity:0.6858"/>
		<stop  offset="0.4889" style="stop-color:#AAAAAA;stop-opacity:0.5459"/>
		<stop  offset="0.6333" style="stop-color:#CCCCCC;stop-opacity:0.4117"/>
		<stop  offset="0.7699" style="stop-color:#E4E4E4;stop-opacity:0.2848"/>
		<stop  offset="0.8956" style="stop-color:#F3F3F3;stop-opacity:0.1681"/>
		<stop  offset="1" style="stop-color:#F8F8F8;stop-opacity:0.0711"/>
	</linearGradient>
	<path style="fill:url(#SVGID_00000176005876053815675190000010775556509804299941_);" d="M254.16,195.9
		c-3.08-4.77-0.64-11.15-2.18-16.36c-0.75-2.53-2.12-4.79-4.28-6.36c-0.73-0.53-1.51-0.96-2.32-1.36c-0.02,0.01-0.04,0.01-0.06,0.01
		c-0.2,0.05-0.41,0.1-0.61,0.15c-0.08,0.02-0.17,0.05-0.25,0.07c1.99,1.48,3.57,3.43,4.43,5.77c0.48,1.32,0.72,2.73,0.76,4.15
		c0.09,0.55,0.15,1.11,0.19,1.67c0.22,3.93-0.29,8.01,1.2,11.76c0.4,1.01,1.34,1.71,2.47,1.4c0.36-0.1,0.71-0.34,0.98-0.64
		C254.36,196.11,254.24,196.02,254.16,195.9z"/>
	
		<linearGradient id="SVGID_00000044166245137922139020000002793242401041616063_" gradientUnits="userSpaceOnUse" x1="211.5611" y1="631.9" x2="273.3481" y2="592.9625" gradientTransform="matrix(1 0 0 -1 0 799.8898)">
		<stop  offset="0" style="stop-color:#000000"/>
		<stop  offset="0.1623" style="stop-color:#3F3F3F;stop-opacity:0.8492"/>
		<stop  offset="0.325" style="stop-color:#777777;stop-opacity:0.6981"/>
		<stop  offset="0.4836" style="stop-color:#A5A5A5;stop-opacity:0.5508"/>
		<stop  offset="0.6339" style="stop-color:#C9C9C9;stop-opacity:0.4111"/>
		<stop  offset="0.7741" style="stop-color:#E3E3E3;stop-opacity:0.2809"/>
		<stop  offset="0.9001" style="stop-color:#F3F3F3;stop-opacity:0.1638"/>
		<stop  offset="1" style="stop-color:#F8F8F8;stop-opacity:0.0711"/>
	</linearGradient>
	<path style="fill:url(#SVGID_00000044166245137922139020000002793242401041616063_);" d="M243.61,193.94
		c-0.61-1.12-0.77-2.4-0.87-3.65c-0.15-1.93-0.26-3.87-0.42-5.81c-0.81-3.3-2.11-6.55-5.4-7.88c-0.66-0.27-1.71-0.71-2.43-0.48
		c-0.14,0.05-0.2,0.1-0.3,0.18c-0.04,0.03-0.05,0.09-0.06,0.14c0.07,0.03,0.13,0.07,0.19,0.15c0.79,0.99,1.61,1.96,2.41,2.94
		c0.42,0.44,0.82,0.9,1.13,1.41c0.16,0.26,0.17,0.51,0.09,0.72c0.03,0.03,0.06,0.06,0.08,0.09c0.72,0.95,0.88,2.16,1,3.33
		c0.02,0.07,0.06,0.13,0.08,0.2c0.54,1.67,0.87,3.34,0.95,5.1c0,0.01,0,0.03,0,0.04c0.36,1.26,0.77,2.51,1.23,3.75
		c0.07,0.06,0.14,0.12,0.21,0.18c0.04,0.04,0.05,0.04,0.06,0.05c0.01,0.01,0.02,0.01,0.07,0.04c0.06,0.04,0.13,0.08,0.2,0.12
		c0.25-0.05,0.52-0.02,0.74,0.13c0.18,0.12,0.36,0.21,0.54,0.31c0.04,0.02,0.11,0.05,0.14,0.06c0.09,0.03,0.18,0.06,0.28,0.09
		c0.4,0.13,0.74,0.21,1.03,0.23c0.12,0.01,0.24,0,0.36,0C244.37,194.99,243.9,194.46,243.61,193.94z"/>
	
		<linearGradient id="SVGID_00000109012326276035570810000005727992809819588528_" gradientUnits="userSpaceOnUse" x1="207.7447" y1="624.8663" x2="268.5871" y2="586.5241" gradientTransform="matrix(1 0 0 -1 0 799.8898)">
		<stop  offset="0" style="stop-color:#000000"/>
		<stop  offset="4.538357e-03" style="stop-color:#020202;stop-opacity:0.9958"/>
		<stop  offset="0.1686" style="stop-color:#424242;stop-opacity:0.8434"/>
		<stop  offset="0.3303" style="stop-color:#7A7A7A;stop-opacity:0.6932"/>
		<stop  offset="0.4859" style="stop-color:#A7A7A7;stop-opacity:0.5487"/>
		<stop  offset="0.634" style="stop-color:#CACACA;stop-opacity:0.4111"/>
		<stop  offset="0.7727" style="stop-color:#E3E3E3;stop-opacity:0.2822"/>
		<stop  offset="0.8986" style="stop-color:#F3F3F3;stop-opacity:0.1653"/>
		<stop  offset="1" style="stop-color:#F8F8F8;stop-opacity:0.0711"/>
	</linearGradient>
	<path style="fill:url(#SVGID_00000109012326276035570810000005727992809819588528_);" d="M232.52,191.03
		c-0.38-1.58-0.46-3.51-1.44-4.87c-0.79-1.09-2.8-2.65-4.26-2.08c-0.28,0.11-0.52,0.41-0.45,0.71c0.04,0.18,0.17,0.33,0.31,0.45
		c0.82,0.78,1.8,1.46,2.47,2.37c0.74,1.01,1.16,2.23,1.26,3.47c0.11,0.16,0.23,0.31,0.33,0.47c0.56,0.85,1.05,1.75,1.48,2.67
		c0.43,0.91,1.77,1.23,2.63,0.78C233.52,194.13,232.89,192.56,232.52,191.03z"/>
	
		<linearGradient id="SVGID_00000075163005485852359810000007897362699965483966_" gradientUnits="userSpaceOnUse" x1="184.9638" y1="628.6725" x2="257.1003" y2="624.366" gradientTransform="matrix(1 0 0 -1 0 799.8898)">
		<stop  offset="0" style="stop-color:#000000"/>
		<stop  offset="0.0858" style="stop-color:#272727;stop-opacity:0.9203"/>
		<stop  offset="0.2212" style="stop-color:#5E5E5E;stop-opacity:0.7945"/>
		<stop  offset="0.3578" style="stop-color:#8D8D8D;stop-opacity:0.6676"/>
		<stop  offset="0.4927" style="stop-color:#B3B3B3;stop-opacity:0.5423"/>
		<stop  offset="0.6254" style="stop-color:#D1D1D1;stop-opacity:0.419"/>
		<stop  offset="0.7556" style="stop-color:#E7E7E7;stop-opacity:0.2981"/>
		<stop  offset="0.8818" style="stop-color:#F4F4F4;stop-opacity:0.1808"/>
		<stop  offset="1" style="stop-color:#F8F8F8;stop-opacity:0.0711"/>
	</linearGradient>
	<path style="fill:url(#SVGID_00000075163005485852359810000007897362699965483966_);" d="M250.24,164.77
		c1.72-0.71,3.3-1.78,4.98-2.91c0.17-0.11,0.35-0.24,0.45-0.42c0.19-0.36-0.05-0.83-0.4-1.03c-0.36-0.2-0.79-0.18-1.19-0.13
		c-2.5,0.35-4.57,2.27-7.09,2.45c-1.02,0.07-1.6-0.36-2.53-0.61c-1.35-0.35-2.91-0.13-4.29-0.01c-1.09,0.09-2.21,0.24-3.16,0.78
		c-0.65,0.37-1.18,0.91-1.72,1.44c-1.33,1.3-2.71,2.54-4.16,3.7c-1.34,1.08-2.93,1.52-4.27,2.64c-1.47,1.22-2.11,3.09-3.57,4.3
		c-1.32,1.08-2.52,2.06-3.41,3.55c-0.61,1.02-1.1,2.12-1.51,3.23c-0.47,1.28-1.21,3.07-0.28,4.28c0.46,0.6,1.12,1,1.65,1.56
		c0.2,0.21,0.41,0.43,0.65,0.59c0.47,0.32,1.11,0.43,1.66,0.28c0.59-0.16,1.22-0.3,1.81-0.51c0.25-0.09,0.52-0.22,0.61-0.47
		c0.05-0.16,0.02-0.34-0.03-0.5c-0.28-0.87-0.98-1.54-1.7-2.1c-1.29-1-2.71-1.83-2.23-3.7c0.49-1.87,2-3.17,3.42-4.36
		c0.53-0.44,1.22-1.55,1.94-1.66c0.38-0.06,0.65,0.24,1.03,0.29c0.55,0.07,1.19-0.1,1.7-0.28c0-0.07,0.01-0.14,0.01-0.22
		c-0.39-0.04-0.81-0.09-1.11-0.35c-1.2-1.02,1.16-3.17,1.99-3.56c0.48-0.22,1.11-0.34,1.5,0.01c0.42,0.38,0.37,1.13,0.83,1.47
		c0.6-1.19-0.09-2.96,1.33-3.62c1.34-0.62,2.23-1.28,3.25-2.3c0.03,0.46,0.57,0.69,1.03,0.76c1.24,0.21,2.54,0.12,3.74-0.27
		c-0.66-0.15-1.32-0.29-1.97-0.44c-0.46-0.1-1.03-0.35-0.99-0.82c0.02-0.18,0.13-0.33,0.25-0.47c1.2-1.38,3.2-1.71,5.02-1.87
		c0.36-0.03,0.77-0.04,1.01,0.24c0.54,0.63-0.62,1.62-0.23,2.35c0.23,0.18,0.58,0.07,0.81-0.12s0.42-0.44,0.69-0.55
		c0.63-0.26,1.36,0.23,2.02,0.16C248.52,165.53,249.53,165.07,250.24,164.77z"/>
	<g>
		<g>
			<path d="M265.92,181.76c-1.25-4.66-0.58-10.24,2.38-14.16c1.16-1.54,3.06-2.78,5.03-2.05c2.43,0.91,1.43,3.78,0.96,5.63
				c-1.15,4.56-0.1,9.24,0.24,13.83c0.16,2.21,0.2,4.48-0.41,6.63c-0.59,2.08-1.92,3.97-3.17,5.7c-1.6,2.22-3.41,4.3-5.28,6.29
				c-0.44,0.47-0.89,0.94-1.34,1.4c-0.41,0.42-1.01,0.86-1.31,1.36c-0.49,0.84-0.31,2.16,0.05,2.99c0.21,0.5,0.94,0.61,1.37,0.36
				c0.51-0.3,0.57-0.87,0.36-1.37c-0.15-0.34-0.04-0.85,0.05-1.2c-0.09,0.15-0.17,0.29-0.26,0.44c3.46-3.43,6.82-7.11,9.43-11.24
				c1.26-1.99,2.15-4.01,2.45-6.36c0.3-2.36,0.11-4.75-0.14-7.1c-0.25-2.41-0.58-4.82-0.58-7.25c0-1.13,0.08-2.26,0.32-3.37
				c0.27-1.26,0.69-2.48,0.81-3.78c0.23-2.4-1.16-4.56-3.58-5.06c-2.34-0.49-4.55,0.55-6.1,2.3c-1.87,2.13-3.01,4.98-3.54,7.74
				c-0.56,2.91-0.46,5.91,0.3,8.77C264.33,183.53,266.26,183.01,265.92,181.76L265.92,181.76z"/>
		</g>
	</g>
	<g>
		<g>
			<path d="M226.28,185.68c1.62,0.93,2.27,2.81,2.9,4.47c0.71,1.86,1.54,3.8,3.26,4.95c0.98,0.65,2.28,0.84,3.43,0.85
				c1.31,0.01,2.71-0.23,3.86-0.89c1.4-0.8,2.03-2.17,1.8-3.75c-0.08-0.53-0.75-0.83-1.23-0.7c-0.57,0.16-0.78,0.69-0.7,1.23
				c0.05,0.36-0.01,0.62-0.23,0.94c-0.02,0.04,0,0.01-0.1,0.12c-0.08,0.09-0.17,0.17-0.27,0.25c0.08-0.07-0.12,0.08-0.15,0.1
				c-0.13,0.08-0.26,0.15-0.39,0.22c-0.84,0.41-1.96,0.53-2.98,0.47c-0.97-0.05-1.77-0.24-2.5-0.95c-1.21-1.18-1.68-2.9-2.29-4.42
				c-0.73-1.81-1.66-3.6-3.41-4.6C226.17,183.31,225.16,185.04,226.28,185.68L226.28,185.68z"/>
		</g>
	</g>
	<g>
		<g>
			<path d="M234.38,177.99c2.79,2.11,3.96,5.68,4.55,8.98c0.34,1.89,0.5,3.81,0.77,5.72c0.1,0.72,0.23,1.47,0.59,2.12
				c0.4,0.72,1.1,1.2,1.85,1.5c1.4,0.56,3.23,0.7,4.71,0.47c1.73-0.26,2.97-1.49,3.35-3.19c0.39-1.78,0.2-3.72,0.2-5.53
				c0-2.01,0.05-4.02-0.07-6.03c-0.13-2.15-0.57-4.23-1.59-6.15c-0.96-1.81-2.31-3.39-3.74-4.84c-0.9-0.92-2.32,0.5-1.41,1.41
				c2.37,2.41,4.28,5.1,4.66,8.54c0.2,1.78,0.15,3.58,0.15,5.37s0.05,3.59,0,5.39c-0.03,1.39-0.29,2.82-1.89,3.07
				c-0.67,0.11-1.38,0.03-2.06-0.04c-0.62-0.07-1.29-0.15-1.85-0.45c-0.53-0.29-0.69-0.69-0.82-1.26c-0.17-0.77-0.24-1.56-0.34-2.34
				c-0.21-1.73-0.41-3.47-0.77-5.18c-0.76-3.59-2.31-7.03-5.3-9.28c-0.43-0.33-1.12-0.07-1.37,0.36
				C233.72,177.14,233.95,177.67,234.38,177.99L234.38,177.99z"/>
		</g>
	</g>
	<g>
		<g>
			<path d="M248.5,190.46c0.23,2.56,1.41,5,3.77,6.24c2.23,1.17,5.03,0.97,6.85-0.87c1.15-1.17,1.39-2.64,1.49-4.21
				c0.12-1.8,0.19-3.61,0.23-5.42c0.07-3.56,0.14-7.24-0.58-10.74c-0.68-3.31-2.31-6.45-5.15-8.38c-1.07-0.72-2.07,1.01-1.01,1.73
				c4.74,3.22,4.75,9.83,4.76,14.93c0,1.56-0.02,3.12-0.08,4.69c-0.06,1.48,0,3.08-0.3,4.53c-0.43,2.04-2.7,2.92-4.56,2.31
				c-2.06-0.68-3.22-2.69-3.41-4.78c-0.05-0.54-0.42-1-1-1C249,189.46,248.45,189.92,248.5,190.46L248.5,190.46z"/>
		</g>
	</g>
	<g>
		<g>
			<path d="M264.45,185.17c-0.13,0.79-0.25,1.57-0.38,2.36c-0.03,0.17-0.06,0.33-0.1,0.5c-0.05,0.23,0.08-0.1-0.03,0.1
				c-0.03,0.05-0.17,0.23-0.03,0.06c-0.09,0.1-0.19,0.19-0.29,0.28c0.17-0.14-0.02,0.01-0.06,0.04c-0.07,0.05-0.14,0.09-0.21,0.13
				c-0.29,0.18-0.57,0.36-0.87,0.51c-0.08,0.04-0.17,0.08-0.25,0.13c-0.16,0.08,0.04,0-0.06,0.03c-0.16,0.05-0.32,0.1-0.49,0.14
				c-0.28,0.07,0.19,0-0.05,0.01c-0.08,0-0.15,0.01-0.23,0c-0.03,0-0.25-0.03-0.1,0s-0.06-0.02-0.09-0.03
				c-0.07-0.02-0.15-0.04-0.22-0.07c0.23,0.08,0.02-0.01-0.03-0.03c-0.17-0.09,0.1,0.13-0.03-0.02c-0.04-0.04-0.18-0.22-0.04-0.03
				c-0.3-0.42-0.88-0.67-1.37-0.36c-0.42,0.27-0.69,0.91-0.36,1.37c0.56,0.78,1.43,1.2,2.4,1.17c0.95-0.03,1.8-0.47,2.6-0.96
				c0.82-0.5,1.54-1.07,1.78-2.04c0.11-0.42,0.15-0.87,0.22-1.29c0.08-0.49,0.16-0.98,0.24-1.47c0.08-0.51-0.13-1.1-0.7-1.23
				C265.2,184.36,264.54,184.62,264.45,185.17L264.45,185.17z"/>
		</g>
	</g>
	<path class="st18" d="M228.95,187.13c-1.5,0.32-3.01,0.65-4.51,0.97c-0.94,0.2-2,0.6-2.96,0.59c-1.45,0-1.82-1.34-2.56-2.32
		c-0.24-0.32-0.53-0.61-0.76-0.94c-0.58-0.86-0.65-2.6-0.4-3.59c0.53-2.09,2.31-3.59,3.99-4.93c1.38-1.09,2.8-2.22,3.65-3.76
		c0.25-0.46,0.45-0.96,0.75-1.39c0.96-1.4,2.74-1.92,4.18-2.82c3.18-1.97,5.01-6.02,8.62-7c1.42-0.38,2.92-0.22,4.38-0.06
		c1.43,0.16,2.86,0.32,4.29,0.48c0.62,0.07,1.29,0.13,1.86-0.13c0.51-0.24,0.86-0.7,1.29-1.05c1.39-1.15,3.39-1.1,5.19-1
		c1.01,0.06,2.04,0.13,2.96,0.54c0.94,0.42,1.69,1.17,2.37,1.95c1.65,1.89,3.5,4.24,4.53,6.53"/>
	<g>
		<g>
			<path d="M261.33,190.46c-0.03,1.33-0.17,2.57-0.65,3.82c-0.11,0.29-0.37,0.66-0.37,0.87c0-0.16,0.29-0.15,0.02-0.07
				c0.17-0.05,0,0-0.03,0.01c-0.12,0.04-0.25,0.08-0.38,0.11c-0.62,0.18-1.3,0.2-1.94,0.27c-0.82,0.09-1.63,0.19-2.45,0.28
				c-1.47,0.17-2.94,0.34-4.41,0.51c-6.14,0.71-12.29,1.43-18.43,2.14c-2.65,0.31-5.32,0.74-7.99,0.89
				c-0.83,0.04-2.07,0.03-2.55,0.85c-0.28,0.49-0.33,1.24-0.43,1.79c-0.12,0.68-0.13,1.32,0.04,2c0.31,1.25,0.97,2.45,1.46,3.63
				c0.56,1.33,1.13,2.66,1.72,3.98c1.13,2.53,2.35,5.13,4.04,7.35c2.3,3.04,6.15,5.15,9.85,5.99c1.25,0.29,1.79-1.64,0.53-1.93
				c-2.39-0.55-4.78-1.68-6.71-3.19c-1.78-1.39-2.92-3.22-3.99-5.18c-1.19-2.17-2.18-4.45-3.15-6.73c-0.51-1.2-1.04-2.39-1.52-3.6
				c-0.2-0.49-0.4-1.03-0.36-1.56c0.04-0.55,0.16-1.28,0.36-1.8c-0.09,0.15-0.17,0.29-0.26,0.44c-0.07,0.09-0.28,0.07-0.06,0.05
				c0.08-0.01,0.17-0.04,0.24-0.05c0.19-0.03,0.39-0.04,0.59-0.05c0.54-0.03,1.06-0.07,1.6-0.13c1.59-0.18,3.17-0.37,4.76-0.55
				c3.38-0.39,6.76-0.79,10.14-1.18c3.3-0.38,6.59-0.77,9.89-1.15c1.71-0.2,3.43-0.4,5.14-0.6c0.73-0.09,1.47-0.17,2.2-0.26
				c0.79-0.09,1.6-0.13,2.37-0.36c0.43-0.13,0.87-0.28,1.2-0.61c0.36-0.37,0.52-0.88,0.7-1.35c0.6-1.52,0.81-3.03,0.84-4.66
				C263.35,189.18,261.35,189.18,261.33,190.46L261.33,190.46z"/>
		</g>
	</g>
</g>
</svg>
