<?xml version="1.0" encoding="utf-8"?>
<!-- Generator: Adobe Illustrator 28.0.0, SVG Export Plug-In . SVG Version: 6.00 Build 0)  -->
<svg version="1.1" id="Layer_1" xmlns="http://www.w3.org/2000/svg" xmlns:xlink="http://www.w3.org/1999/xlink" x="0px" y="0px"
	 viewBox="0 0 800 800" style="enable-background:new 0 0 800 800;" xml:space="preserve">
<style type="text/css">
	.st0{fill:#19315B;}
	.st1{fill:#E5CC17;}
	.st2{fill:#FAFF3B;}
	.st3{fill:url(#SVGID_1_);}
	.st4{fill:url(#SVGID_00000137117411852857045600000002627830412581636236_);}
	.st5{fill:url(#SVGID_00000057136486543700850320000000552761144881274524_);}
	.st6{fill:url(#SVGID_00000053545528797360018780000014096789120375151523_);}
	.st7{fill:url(#SVGID_00000142882024960197366660000013780421510572626582_);}
	.st8{fill:url(#SVGID_00000009551847278553618400000014726863385113948065_);}
	.st9{fill:url(#SVGID_00000016061345322148883500000000614913505150153621_);}
	.st10{fill:#264B7F;}
	.st11{fill:none;stroke:#000000;stroke-width:1;stroke-miterlimit:10;}
</style>
<g id="_x32_-PANTS__x5B_TRUMP_x5D__x2B_">
	<g>
		<path class="st0" d="M513.32,572.66c0.78,3.92,1.57,7.85,2.35,11.77c0.71,3.57,1.04,7.62,2.4,10.99c1.37,3.39,1.71,7.5,2.4,11.1
			c0.75,3.92,1.46,7.85,2.14,11.78c0.67,3.93,1.31,7.86,1.9,11.79c0.3,1.96,0.46,3.98,0.86,5.91c0.32,1.52,0.74,2.75,0.82,4.36
			c0.11,2.14,0.2,4.27,0.44,6.39c0.79,6.07,1.22,12.14,2.23,18.17c0.29,2.07,0.5,4.18,0.73,6.25c0.2,1.82,0.33,4.36-1.16,5.7
			c-0.42,0.38-0.94,0.63-1.46,0.87c-13.97,6.49-29.98,7.5-45.27,5.55c-1.39-0.18-2.64-0.6-3.98-0.9c-1.02-0.23-1.96-0.19-2.85-0.87
			c-0.92-0.71-1.3-1.89-1.66-2.99c-1.81-5.54-4.59-10.72-6.38-16.22c-1.85-5.68-3.48-11.43-5.15-17.17
			c-1.08-3.72-2.45-7.4-3.51-11.09c-0.56-1.95-0.56-4.2-0.96-6.2c-0.38-1.93-0.83-3.84-1.28-5.75c-0.94-3.94-1.45-7.94-2.39-11.84
			c-0.54-2.24-1.27-4.48-1.8-6.63c-1.95-7.81-3.89-15.63-5.84-23.44c-0.68-2.72-1.36-5.45-2.33-8.09c-0.86-2.34-2.15-4.42-2.76-6.81
			c-1.45-5.65-4.08-11.13-6.36-16.49c-1.56-3.67-3.71-6.94-5.41-10.54c-0.51-1.08-0.92-2.19-1.36-3.29
			c-1.79-4.47-3.96-8.79-6.5-12.89c-0.13-0.21-0.38-0.45-0.59-0.31c-0.13,0.08-0.14,0.26-0.14,0.41c0,2.85,0.23,5.7,0.46,8.55
			c0.14,1.74,0.28,3.48,0.42,5.23c0,2.52,0.41,5.11,0.61,7.62c0.18,2.23,0.01,4.53,0.26,6.71c0.62,5.4,1.47,10.73,1.8,16.18
			c0.36,6.05,0.78,11.98,1.69,17.97c0.96,6.32,1.87,12.65,2.72,18.98c0.17,1.24,0.33,2.48,0.3,3.73
			c-0.15,6.83-0.73,13.65-0.74,20.51c0,7.35,0.24,14.7,0.44,22.07c0.08,2.77-0.88,5.63-0.54,8.38c0.35,2.8-0.42,5.61-1.04,8.37
			c-0.43,1.94-0.96,3.84-1.05,5.82c-0.09,1.95-1.88,1.97-3.48,2.55c-4.46,1.64-8.99,3.1-13.63,4.11
			c-6.15,1.34-12.33,2.69-18.61,3.17c-6.28,0.48-12.71,0.08-18.65-2c-0.41-0.14-0.87-0.34-1.02-0.75c-0.08-0.2-0.06-0.43-0.05-0.65
			c0.16-2.44-0.68-4.53-0.98-6.94c-0.47-3.77-0.5-7.59-1.04-11.35c-0.87-5.96-1.73-11.92-2.6-17.88c-0.57-3.95-1.15-7.93-2.43-11.71
			c-0.35-1.03-0.31-1.95-0.41-3c-0.12-1.33-0.46-2.68-0.68-4c-0.46-2.7-0.91-5.4-1.37-8.1c-0.9-5.32-1.81-10.64-2.7-15.97
			c-0.94-5.58-0.85-11.27-1.56-16.88c-0.26-2.06-0.96-3.85-1.32-5.86c-0.4-2.22-0.63-4.47-0.69-6.73c-0.04-1.74,0.02-3.5-0.26-5.22
			c-0.22-1.35-0.63-2.65-0.95-3.97c-0.32-1.38-0.54-2.78-0.75-4.17c-0.64-4.18-1.18-8.33-2.13-12.44c-0.97-4.21-1.9-8.44-2.58-12.72
			c-1.14-7.23-2.53-14.44-3.87-21.64c-1.36-7.34-3.34-14.48-4.94-21.75c-0.7-3.2-1.4-6.41-2.11-9.61
			c-1.7-7.78-3.41-15.55-5.38-23.27c-1.7-6.68-2.55-13.58-3.53-20.4c-0.57-3.95-1.1-7.9-1.59-11.85c-0.47-3.79-0.3-7.7-0.37-11.53
			c-0.07-3.7-0.1-7.57,1.61-10.85c0.31-0.59,0.68-1.18,0.73-1.85c0.04-0.54-0.14-1.06-0.23-1.6c-0.28-1.66,0.3-3.33,0.91-4.9
			c0.74-1.89,1.19-4.17,2.97-5.35c0.47-0.31,1.01-0.55,1.37-0.99c0.26-0.31,0.4-0.7,0.61-1.05c0.58-0.99,1.64-1.64,2.77-1.86
			c1.12-0.22,2.3-0.04,3.38,0.34c0.46,0.16,0.91,0.37,1.39,0.45c0.63,0.1,1.28-0.01,1.9-0.13c2.72-0.52,5.42-1.13,8.1-1.83
			c1.7-0.44,4.64-0.64,5.98-1.91c0.35-0.33,0.49-0.82,0.74-1.23c0.58-0.95,1.73-1.44,2.83-1.47c1.11-0.03,2.19,0.33,3.21,0.77
			c0.46,0.2,0.92,0.41,1.41,0.48s0.98-0.01,1.46-0.08c14.13-2.17,28.36-3.2,42.65-3.33c0.39,0,0.78-0.01,1.14-0.14
			c0.64-0.24,1.07-0.82,1.57-1.29c2-1.87,5.62-1.52,7.24,0.68c0.15,0.21,0.3,0.44,0.52,0.58c0.23,0.14,0.52,0.15,0.79,0.16
			c14.34,0.5,28.67,0.59,42.84,2.98c0.95,0.16,1.92,0.33,2.87,0.2c1.32-0.18,2.52-0.91,3.84-1.08c0.97-0.12,3.48-0.03,4.15,0.81
			c0.57,0.71-0.04,1.88,0.64,2.65c0.69,0.79,1.97,0.69,2.85,1.14c1.06,0.54,1.75,1.6,2.09,2.72c0.37,1.24,0.37,2.55,0.43,3.84
			c0.07,1.59,0.24,3.18,0.41,4.77c0.15,1.46,0.31,2.92,0.46,4.39c0.6,5.75,1.21,11.49,1.81,17.24c0.28,2.68,0.7,5.33,0.62,8.01
			c-0.08,2.86,0.3,5.7,0.7,8.52c2.18,15.65,4.84,31.23,7.96,46.72c2.58,12.78,5.93,25.34,8.6,38.08c0.89,4.24,1.38,8.56,2.03,12.85
			c0.83,5.4,1.92,10.75,3.12,16.07c1.1,4.87,2.58,9.64,3.57,14.5C511.07,564.13,512.46,568.33,513.32,572.66z"/>
		<path class="st1" d="M379.63,383.76c-0.01-0.44-0.05-0.87-0.16-1.31c-0.18-0.7-0.52-1.39-1.05-1.88c-0.54-0.5-1.34-0.88-2.05-0.49
			c-0.62,0.34-1.07,1.05-1.35,1.68c-0.04,0.09-0.06,0.19-0.09,0.29c-0.09,0.18-0.17,0.39-0.22,0.6c-0.16,0.49-0.3,0.95-0.29,1.5
			c0,0.17,0.05,0.34,0.07,0.51c0.01,1.06,0.24,2.2,0.8,3.08c0.58,0.93,1.79,1.62,2.77,0.8c0.07-0.06,0.12-0.13,0.18-0.19
			c0.12-0.07,0.24-0.15,0.34-0.24c0.29,0.06,0.63-0.07,0.75-0.4C379.79,386.48,379.88,385.08,379.63,383.76z"/>
		<path class="st2" d="M377.46,380.08c-0.4-0.05-0.83,0.09-1.18,0.27c-0.77,0.39-1.28,1.1-1.59,1.89c-0.34,0.84-0.43,1.77-0.37,2.67
			c0.06,0.85,0.23,2.03,0.94,2.58c0.1,0.07,0.25,0.03,0.25-0.1c0-0.39-0.1-0.7-0.2-1.07c-0.1-0.38-0.17-0.78-0.19-1.17
			c0-0.01,0-0.01,0-0.02c0.03-0.03,0.07-0.05,0.09-0.1c0.1-0.27,0.27-0.51,0.47-0.72c0.09-0.1,0.19-0.19,0.31-0.26
			c0.14-0.09,0.29-0.13,0.43-0.21c0.36-0.21,0.42-0.68,0.47-1.06c0.03-0.2,0.05-0.41,0.08-0.61c0.01-0.07,0.03-0.15,0.04-0.22
			c0.01-0.03,0.01-0.06,0.02-0.1c0.07-0.13,0.12-0.27,0.11-0.43c-0.01,0-0.01,0-0.02,0c0-0.09-0.03-0.18-0.08-0.26
			c0.07-0.02,0.14-0.06,0.21-0.07c0.14-0.02,0.33-0.06,0.47-0.06s0.24,0.06,0.39,0.01c0.11-0.03,0.15-0.11,0.17-0.22
			C378.31,380.45,377.75,380.12,377.46,380.08z"/>
	</g>
	<g>
		
			<linearGradient id="SVGID_1_" gradientUnits="userSpaceOnUse" x1="221.0997" y1="248.6703" x2="483.0659" y2="274.1715" gradientTransform="matrix(1 0 0 -1 0 799.8898)">
			<stop  offset="1.694775e-03" style="stop-color:#000000;stop-opacity:0.7"/>
			<stop  offset="0.1438" style="stop-color:#040D18;stop-opacity:0.6004"/>
			<stop  offset="0.3871" style="stop-color:#09213A;stop-opacity:0.4298"/>
			<stop  offset="0.6176" style="stop-color:#0D2F53;stop-opacity:0.2681"/>
			<stop  offset="0.828" style="stop-color:#0F3762;stop-opacity:0.1206"/>
			<stop  offset="1" style="stop-color:#103A67;stop-opacity:0"/>
		</linearGradient>
		<path class="st3" d="M509.69,586.76c1.72,0.44,3.23,1.14,4.25,2.61c-5.88,1.6-9.49,7.86-10.06,13.92
			c-0.58,6.07,1.22,12.07,2.75,17.97c3.7,14.24,5.97,28.85,6.78,43.54c3.44,0.98,6.96,2.43,9.17,5.25
			c7.28,9.31-6.16,11.79-12.49,12.9c-9.36,1.64-18.97,1.55-28.38,0.35c-1.39-0.18-2.64-0.6-3.98-0.9c-1.02-0.23-1.96-0.19-2.85-0.87
			c-0.92-0.71-1.3-1.89-1.66-2.99c-1.81-5.54-4.59-10.72-6.38-16.22c-1.85-5.68-3.48-11.43-5.15-17.17
			c-1.08-3.72-2.45-7.4-3.51-11.09c-0.56-1.95-0.56-4.2-0.96-6.2c-0.38-1.93-0.83-3.84-1.28-5.75c-0.94-3.94-1.45-7.94-2.39-11.84
			c-0.54-2.24-1.27-4.48-1.8-6.63c-1.95-7.81-3.89-15.63-5.84-23.44c-0.68-2.72-1.36-5.45-2.33-8.09c-0.86-2.34-2.15-4.42-2.76-6.81
			c-1.45-5.65-4.08-11.13-6.36-16.49c-1.56-3.67-3.71-6.94-5.41-10.54c-0.51-1.08-0.92-2.19-1.36-3.29
			c-1.51-3.8-3.06-7.82-4.84-11.49c-1.9-3.91-4.4-6.99-5.42-11.35c-0.31-1.32-1.38-3.09-2.52-2.34c-0.6,0.4-0.61,1.26-0.58,1.98
			c0.34,6.4-0.57,12.87-2.67,18.93c-0.59,1.69-1.27,3.43-1.09,5.21c0.28,2.69,2.46,4.78,4.68,6.33c0.56,0.39,1.17,0.83,1.31,1.5
			c0.11,0.52-0.1,1.05-0.31,1.53c-3.82,8.95-8.54,17.94-10.92,27.37c-2.24,8.87-0.95,19.4,6,25.34c0.36,0.31,0.76,0.64,0.84,1.11
			c0.08,0.48-0.19,0.93-0.47,1.33c-3.62,5.22-8.97,9-12.98,13.93c-0.22,0.27-0.44,0.56-0.46,0.91c-0.03,0.59,0.55,1.02,1.09,1.28
			c3.98,1.96,8.76,1.29,12.95-0.16s8.12-3.65,12.43-4.73c-0.06,0.6-0.08,1.23-0.21,1.81c-2.37-0.13-3.27,0.25-4.74,2.18
			c-1.49,1.96-2.57,4.19-3.37,6.51c-1.15,3.32-1.73,6.81-2.31,10.27c0.91,0.31,1.82,0.63,2.73,0.94c0.32,0.11,0.66,0.23,0.87,0.5
			c0.22,0.28,0.26,0.65,0.29,1.01c0.63,8.37-1.12,16.91-4.99,24.36c-0.36,0.69-0.73,1.38-0.89,2.13c-0.35,1.7,0.45,3.4,0.83,5.1
			c0.7,3.16-0.11,6.44-1.08,9.53c-0.16,0.52-0.34,1.06-0.73,1.44c-0.38,0.38-0.9,0.56-1.4,0.72c-6.31,2.05-13.06,3.43-19.68,3.96
			c-6.28,0.48-12.71,0.08-18.65-2c-0.41-0.14-0.87-0.34-1.02-0.75c-0.08-0.2-0.06-0.43-0.05-0.65c0.16-2.44-0.68-4.53-0.98-6.94
			c-0.47-3.77-0.5-7.59-1.04-11.35c-0.87-5.96-1.73-11.92-2.6-17.88c-0.57-3.95-1.15-7.93-2.43-11.71c-0.35-1.03-0.31-1.95-0.41-3
			c-0.12-1.33-0.46-2.68-0.68-4c-0.46-2.7-0.91-5.4-1.37-8.1c-0.9-5.32-1.81-10.64-2.7-15.97c-0.94-5.58-0.85-11.27-1.56-16.88
			c-0.26-2.06-0.96-3.85-1.32-5.86c-0.4-2.22-0.63-4.47-0.69-6.73c-0.04-1.74,0.02-3.5-0.26-5.22c-0.22-1.35-0.63-2.65-0.95-3.97
			c-0.32-1.38-0.54-2.78-0.75-4.17c-0.64-4.18-1.18-8.33-2.13-12.44c-0.97-4.21-1.9-8.44-2.58-12.72
			c-1.14-7.23-2.53-14.44-3.87-21.64c-1.36-7.34-3.34-14.48-4.94-21.75c-0.7-3.2-1.4-6.41-2.11-9.61
			c-1.7-7.78-3.41-15.55-5.38-23.27c-1.7-6.68-2.55-13.58-3.53-20.4c-0.57-3.95-1.1-7.9-1.59-11.85c-0.47-3.79-0.3-7.7-0.37-11.53
			c-0.07-3.7-0.1-7.57,1.61-10.85c0.31-0.59,0.68-1.18,0.73-1.85c0.04-0.54-0.14-1.06-0.23-1.6c-0.28-1.66,0.3-3.33,0.91-4.9
			c0.74-1.89,1.19-4.17,2.97-5.35c0.47-0.31,1.01-0.55,1.37-0.99c0.26-0.31,0.4-0.7,0.61-1.05c0.58-0.99,1.64-1.64,2.77-1.86
			c1.12-0.22,2.3-0.04,3.38,0.34c0.46,0.16,0.91,0.37,1.39,0.45c0.63,0.1,1.28-0.01,1.9-0.13c2.72-0.52,5.42-1.13,8.1-1.83
			c1.7-0.44,4.64-0.64,5.98-1.91c0.35-0.33,0.49-0.82,0.74-1.23c0.58-0.95,1.73-1.44,2.83-1.47c1.11-0.03,2.19,0.33,3.21,0.77
			c0.46,0.2,0.92,0.41,1.41,0.48s0.98-0.01,1.46-0.08c14.13-2.17,28.36-3.2,42.65-3.33c0.39,0,0.78-0.01,1.14-0.14
			c0.64-0.24,1.07-0.82,1.57-1.29c2-1.87,5.62-1.52,7.24,0.68c0.15,0.21,0.3,0.44,0.52,0.58c0.23,0.14,0.52,0.15,0.79,0.16
			c8.69,0.3,17.4,0.46,26.08,1.07c3.84,0.27,6.21,0.01,6,4.61c-0.13,2.86-1.83,5.76-4.52,6.9c-0.06,1.55-0.13,3.1-0.19,4.66
			c-2.81-1.55-5.83,2.55-5.05,5.66c0.79,3.11,3.46,5.32,5.14,8.06c3.91,6.37,2.01,14.57-0.02,21.77c8.17,3.53,15.8,8.3,22.55,14.1
			c1.22,1.04,2.44,2.18,3.03,3.67c2.21,5.62-5.39,9.87-8.01,15.31c-2.43,5.05-0.31,10.97,1.44,16.29c2.57,7.8,4.3,15.88,5.14,24.05
			c0.67,6.48,0.82,13.12,3.05,19.24c4.34,11.9,15.68,19.7,22.46,30.4c1.28,2.02,2.42,4.2,2.77,6.57c0.68,4.63-1.67,9.08-3.11,13.53
			c-1.43,4.45-1.58,10.17,2.21,12.92C502.78,586.08,506.56,585.97,509.69,586.76z"/>
		
			<linearGradient id="SVGID_00000064323003841026801660000011019000818472528297_" gradientUnits="userSpaceOnUse" x1="356.3736" y1="384.2138" x2="318.6793" y2="396.6387" gradientTransform="matrix(1 0 0 -1 0 799.8898)">
			<stop  offset="1.694775e-03" style="stop-color:#000000;stop-opacity:0.7"/>
			<stop  offset="0.5075" style="stop-color:#081C32;stop-opacity:0.3453"/>
			<stop  offset="1" style="stop-color:#103A67;stop-opacity:0"/>
		</linearGradient>
		<path style="fill:url(#SVGID_00000064323003841026801660000011019000818472528297_);" d="M332.92,421.28
			c0.83-0.07,1.59-0.46,2.29-0.92c0.95-0.63,1.82-1.39,2.58-2.25c1.45-1.66,2.44-3.66,3.42-5.64c2.01-4.08,4.03-8.17,6.04-12.25
			c0.17-0.34,0.32-0.79,0.05-1.06c-0.18-0.18-0.46-0.18-0.72-0.17c-1.7,0.1-3.39,0.45-5.03,0.91c-1.27,0.35-3.11,0.86-4.06,1.81
			c-0.53,0.53-0.82,1.24-1.11,1.93c-1.23,3-2.53,6.02-4.52,8.58c-0.88,1.13-1.9,2.18-2.43,3.51
			C328.54,418.05,330.18,421.5,332.92,421.28z"/>
		
			<linearGradient id="SVGID_00000033361464298527603430000011655629775552858538_" gradientUnits="userSpaceOnUse" x1="435.632" y1="384.3827" x2="475.2135" y2="410.278" gradientTransform="matrix(1 0 0 -1 0 799.8898)">
			<stop  offset="1.694775e-03" style="stop-color:#000000;stop-opacity:0.7"/>
			<stop  offset="0.5075" style="stop-color:#081C32;stop-opacity:0.3453"/>
			<stop  offset="1" style="stop-color:#103A67;stop-opacity:0"/>
		</linearGradient>
		<path style="fill:url(#SVGID_00000033361464298527603430000011655629775552858538_);" d="M451.62,393.71
			c-2.69-0.82-5.47-1.56-8.28-1.43c-0.44,0.02-0.94,0.1-1.19,0.46c-0.21,0.31-0.16,0.72-0.09,1.09c0.88,4.62,3.8,8.59,7.09,11.95
			c2.89,2.94,6.13,5.55,9.63,7.73c0.93,0.58,1.96,0.98,2.94,1.47c0.67,0.33,1.71,0.98,2.42,0.42c0.25-0.2,0.54-0.32,0.81-0.5
			c0.67-0.44,1.33-1.31,1.9-1.9c0.66-0.69,1.28-1.41,1.93-2.11c0.48-0.52,0.96-1.07,1.15-1.75c0.35-1.24-0.35-2.52-1.03-3.61
			c-1.79-2.86-3.79-5.76-6.66-7.65C459.07,395.81,455.22,394.81,451.62,393.71z"/>
		
			<linearGradient id="SVGID_00000062907450510405067730000016792327982333309863_" gradientUnits="userSpaceOnUse" x1="353.5347" y1="381.4986" x2="348.973" y2="418.9042" gradientTransform="matrix(1 0 0 -1 0 799.8898)">
			<stop  offset="1.694775e-03" style="stop-color:#000000;stop-opacity:0.7"/>
			<stop  offset="0.1642" style="stop-color:#010407;stop-opacity:0.586"/>
			<stop  offset="0.396" style="stop-color:#040E19;stop-opacity:0.4235"/>
			<stop  offset="0.6692" style="stop-color:#092038;stop-opacity:0.232"/>
			<stop  offset="0.9719" style="stop-color:#0F3863;stop-opacity:0.0197"/>
			<stop  offset="1" style="stop-color:#103A67;stop-opacity:0"/>
		</linearGradient>
		<path style="fill:url(#SVGID_00000062907450510405067730000016792327982333309863_);" d="M339.35,398.64
			c0.73-0.38,1.37-0.92,2.13-1.24c0.79-0.33,1.66-0.42,2.51-0.49c4.7-0.41,9.44-0.68,14.07-1.57c1.27-0.24,2.55-0.54,3.84-0.44
			c0.76,0.06,1.5,0.24,2.25,0.33c2.88,0.34,5.73-0.75,8.37-1.95c0.12-0.05,0.25-0.12,0.29-0.25c0.04-0.14-0.07-0.28-0.15-0.4
			c-1.31-1.72-0.68-4.26-1.58-6.23c-0.12-0.26-0.27-0.51-0.52-0.65c-0.33-0.19-0.73-0.12-1.1-0.06c-1.18,0.22-2.36,0.43-3.54,0.65
			c-0.2,0.04-0.41,0.08-0.57,0.19c-0.2,0.14-0.31,0.37-0.44,0.58c-1.04,1.77-3.43,2.6-5.34,1.85c-0.4-0.16-0.78-0.37-1.2-0.46
			c-0.98-0.2-1.94,0.36-2.86,0.75c-1.56,0.66-3.26,0.88-4.94,1.1c-3.26,0.42-6.51,0.85-9.77,1.27c0.31,0.56,0.11,1.29-0.32,1.77
			s-1.05,0.73-1.65,0.93c-1.02,0.33-2.13,0.53-3.18,0.28c-0.51-0.12-1-0.35-1.52-0.46c-1.37-0.29-4.59,0.44-5.42,1.71
			c-0.84,1.27,0.89,2.2,2.01,2.06c0.42-0.05,0.88-0.41,1.29-0.41c0.55,0,0.49,0.11,0.95,0.42c0.68,0.46,1.29,0.86,2.09,1.09
			C336.46,399.43,338.04,399.33,339.35,398.64z"/>
		
			<linearGradient id="SVGID_00000119801522182948233590000011655814349683350925_" gradientUnits="userSpaceOnUse" x1="423.1505" y1="384.3414" x2="424.0628" y2="425.0314" gradientTransform="matrix(1 0 0 -1 0 799.8898)">
			<stop  offset="1.694775e-03" style="stop-color:#000000;stop-opacity:0.7"/>
			<stop  offset="0.1642" style="stop-color:#010407;stop-opacity:0.586"/>
			<stop  offset="0.396" style="stop-color:#040E19;stop-opacity:0.4235"/>
			<stop  offset="0.6692" style="stop-color:#092038;stop-opacity:0.232"/>
			<stop  offset="0.9719" style="stop-color:#0F3863;stop-opacity:0.0197"/>
			<stop  offset="1" style="stop-color:#103A67;stop-opacity:0"/>
		</linearGradient>
		<path style="fill:url(#SVGID_00000119801522182948233590000011655814349683350925_);" d="M388.07,392.34
			c5.26-0.9,10.58-1.36,15.89-1.81c3.54-0.3,7.16-0.6,10.62,0.2c1.4,0.33,3.01,0.8,4.18-0.03c0.52-0.37,0.87-0.95,1.4-1.3
			c0.72-0.48,1.65-0.46,2.52-0.43c13.07,0.51,26.13,1.05,39.2,1.63c1.2,0.05,2.49,0.13,3.45,0.86c0.8,0.6,1.31,1.59,2.23,1.97
			c0.72,0.29,1.54,0.13,2.31-0.03c1.84-0.4,3.68-0.79,5.52-1.19c0.06-1.32-1.12-2.57-2.44-2.59c0.42-0.82,0.83-1.86,0.27-2.59
			c-0.91-1.21-2.77,0.03-4.28,0.04c-0.65,0.01-1.28-0.24-1.9-0.44c-2.35-0.77-4.84-0.94-7.3-1.11c-12.84-0.89-25.68-1.78-38.52-2.68
			c-0.56-0.04-1.22-0.04-1.57,0.4c-0.28,0.35-0.25,0.86-0.38,1.29c-0.29,1-1.44,1.54-2.48,1.49s-2-0.56-2.91-1.05
			s-1.82-0.98-2.73-1.47c-9.43,0.88-18.86,1.76-28.3,2.64c-1.12,0.1-2.34,0.25-3.14,1.05c-0.42,0.42-0.69,0.99-1.19,1.31
			c-1.76,1.13-4.36-1.78-5.96-0.43c-0.98,0.83-0.38,2.8-0.14,3.85c0.39,1.68,2.58,1.63,4.05,1.72
			C380.39,393.89,384.25,392.99,388.07,392.34z"/>
		
			<linearGradient id="SVGID_00000058573338047579180620000003700203924586585534_" gradientUnits="userSpaceOnUse" x1="355.1976" y1="369.0077" x2="394.1525" y2="376.8271" gradientTransform="matrix(1 0 0 -1 0 799.8898)">
			<stop  offset="1.694775e-03" style="stop-color:#000000;stop-opacity:0.7"/>
			<stop  offset="0.1642" style="stop-color:#010407;stop-opacity:0.586"/>
			<stop  offset="0.396" style="stop-color:#040E19;stop-opacity:0.4235"/>
			<stop  offset="0.6692" style="stop-color:#092038;stop-opacity:0.232"/>
			<stop  offset="0.9719" style="stop-color:#0F3863;stop-opacity:0.0197"/>
			<stop  offset="1" style="stop-color:#103A67;stop-opacity:0"/>
		</linearGradient>
		<path style="fill:url(#SVGID_00000058573338047579180620000003700203924586585534_);" d="M391.84,430.77
			c-0.7-2.7-1.34-5.4-1.8-8.15c-0.59-3.6-1.61-7.13-2.32-10.71c-0.47-2.35-0.92-4.72-1.55-7.04c-0.36-1.32-0.88-4.58-2.29-5.29
			c-0.23-0.11-0.49-0.14-0.74-0.15c-2.83-0.2-5.7,0.15-8.4,1.01c-0.38,0.12-0.77,0.26-1.02,0.57c-0.35,0.43-0.31,1.06-0.24,1.61
			c0.59,5.3,1.82,10.46,2.55,15.74c0.25,1.83,1.02,3.44,1.36,5.24c0.18,0.93,0.17,1.89,0.32,2.83c0.62,4,3.54,6.9,4.74,10.64
			c0.3,0.92,0.47,1.88,0.76,2.8c1.34,4.16,5.13,7.07,9.06,9c0.69,0.34,1.4,0.66,2.17,0.7c1.59,0.08,3.02-1.13,3.7-2.57
			c0.68-1.44,0.77-3.08,0.84-4.67c0.06-1.36,0.08-2.88-0.82-3.91c-0.81-0.93-2.13-1.2-3.17-1.87
			C393.12,435.31,392.41,432.94,391.84,430.77z"/>
		
			<linearGradient id="SVGID_00000127754349428122728710000003743224812046452147_" gradientUnits="userSpaceOnUse" x1="383.0743" y1="406.4119" x2="376.5437" y2="416.0492" gradientTransform="matrix(1 0 0 -1 0 799.8898)">
			<stop  offset="1.694775e-03" style="stop-color:#000000;stop-opacity:0.7"/>
			<stop  offset="0.1118" style="stop-color:#070600;stop-opacity:0.7331"/>
			<stop  offset="0.269" style="stop-color:#191701;stop-opacity:0.7803"/>
			<stop  offset="0.4544" style="stop-color:#383303;stop-opacity:0.836"/>
			<stop  offset="0.6613" style="stop-color:#635B05;stop-opacity:0.8982"/>
			<stop  offset="0.8834" style="stop-color:#998C08;stop-opacity:0.965"/>
			<stop  offset="1" style="stop-color:#B9A90A"/>
		</linearGradient>
		<path style="fill:url(#SVGID_00000127754349428122728710000003743224812046452147_);" d="M377.04,386.56
			c0.06-0.15,0.11-0.32,0.23-0.43c0.15-0.12,0.36-0.12,0.53-0.21c0.47-0.23,0.41-0.9,0.44-1.42c0.02-0.41,0.14-0.8,0.26-1.19
			c0.13-0.43,0.26-0.86,0.39-1.29c0.54,0.04,0.86,0.61,0.97,1.14c0.07,0.36,0.09,0.73,0.1,1.1c0.03,0.79,0.07,1.59-0.12,2.36
			s-0.63,1.51-1.33,1.88c-0.34,0.18-0.72,0.26-1.1,0.31c-0.56,0.07-1.95,0.05-1.83-0.84C375.69,387.36,376.77,387.21,377.04,386.56z
			"/>
	</g>
	<g>
		<path class="st10" d="M362.35,379.63c-0.05-0.14-0.11-0.29-0.16-0.43c-0.02-0.06-0.06-0.12-0.08-0.17
			c-0.02-0.06-0.02-0.13-0.03-0.19c0.15-0.1,0.29-0.19,0.43-0.3c0.51-0.41-0.06-1.1-0.58-1c-0.98,0.19-2.01,1-2.63,1.76
			c-0.78,0.94-0.98,2-0.86,3.19c0.14,1.42,0.29,2.86,0.51,4.27c0.11,0.7,0.22,1.39,0.35,2.09c0.14,0.7,0.21,1.46,0.53,2.11
			c0.1,0.21,0.44,0.15,0.49-0.06c0.14-0.59,0.07-1.21,0.06-1.82c-0.02-0.67-0.05-1.33-0.09-1.99c-0.08-1.25-0.22-2.49-0.36-3.74
			c-0.02-0.15-0.03-0.29-0.05-0.44c0.16-0.27,0.51-0.44,0.8-0.51c0.5-0.13,1.04-0.17,1.48-0.48c0.22-0.15,0.41-0.36,0.49-0.62
			c0.09-0.28,0.01-0.58-0.06-0.86C362.51,380.17,362.44,379.9,362.35,379.63z"/>
		<path class="st10" d="M339.12,383.99c-0.01-0.01-0.03-0.01-0.04-0.02c-0.07-0.16-0.19-0.3-0.37-0.37c-0.29-0.1-0.6-0.05-0.91,0.05
			c-0.06,0-0.13-0.02-0.19-0.01c-0.63,0.06-1.2,0.23-1.71,0.62c-0.05,0.04-0.07,0.1-0.08,0.16c-0.13,0.07-0.26,0.14-0.38,0.22
			c-0.35,0.25-0.66,0.53-0.96,0.84c-0.13,0.13,0.02,0.34,0.18,0.29c-0.04,0.06-0.08,0.12-0.12,0.19c-0.12,0.23-0.22,0.47-0.29,0.72
			s-0.09,0.52-0.11,0.78c-0.01,0.12,0.08,0.21,0.18,0.25c-0.04,0.2-0.07,0.39-0.09,0.6c-0.05,0.71,0.09,1.43,0.17,2.13
			c0.09,0.72,0.09,1.45,0.11,2.17c0.02,1.12-0.01,2.87,0.98,3.64c0.09,0.07,0.29,0.04,0.27-0.11c-0.06-0.56-0.26-1.08-0.3-1.64
			c-0.04-0.56-0.01-1.12,0.03-1.68c0.05-0.61,0.12-1.21,0.14-1.82c0.02-0.66-0.08-1.3-0.12-1.95c-0.02-0.29,0-0.58,0.04-0.86
			c0.08-0.03,0.16-0.07,0.24-0.11c0.36-0.2,0.66-0.49,0.92-0.82c0.27-0.35,0.47-0.74,0.51-1.19c0.01-0.12,0-0.24-0.01-0.36
			c0.05-0.11,0.1-0.22,0.14-0.34c0.02-0.01,0.03-0.03,0.05-0.04c0.09,0,0.17,0,0.26,0c0.05,0,0.09,0,0.14,0.01
			c0.01,0,0.08,0.01,0.1,0.02c0.1,0.02,0.21,0.05,0.31,0.08c0.27,0.09,0.55,0.17,0.83,0.08c0.33-0.12,0.57-0.38,0.58-0.74
			C339.62,384.44,339.38,384.16,339.12,383.99z"/>
		<path class="st10" d="M356.63,381.36c-0.8-0.04-1.62,0.3-2.38,0.5c-0.84,0.22-1.67,0.44-2.51,0.66c-1.54,0.4-3.07,0.82-4.62,1.18
			s-3.03,0.45-4.61,0.5c-0.08,0-0.17,0.01-0.25,0.02c-0.14-0.05-0.27-0.09-0.41-0.14c-0.2-0.07-0.4-0.15-0.61-0.21
			c-0.1-0.03-0.21-0.06-0.31-0.09c-0.07-0.02-0.17-0.04-0.25-0.07c-0.01-0.01-0.02-0.02-0.02-0.03c-0.37-0.36-0.94,0.1-0.7,0.54
			c0.14,0.25,0.32,0.5,0.55,0.68c-0.23,0.23-0.39,0.52-0.44,0.91c-0.02,0.17,0.23,0.31,0.36,0.21c1.16-0.86,2.5-0.52,3.84-0.61
			c1.38-0.09,2.73-0.38,4.06-0.71c1.46-0.35,2.92-0.7,4.37-1.05c0.74-0.18,1.47-0.35,2.21-0.52c0.68-0.16,1.41-0.25,2.01-0.61
			C357.48,382.18,357.23,381.39,356.63,381.36z"/>
		<path class="st10" d="M370.76,378.86c-0.3-0.13-0.53-0.09-0.84-0.03c-0.25,0.05-0.51,0.1-0.76,0.15c-0.53,0.11-1.06,0.2-1.58,0.32
			c-0.25,0.06-0.51,0.12-0.76,0.17c-0.22,0.05-0.44,0.12-0.66,0.1c-0.41-0.04-0.74-0.36-1.13-0.46c-0.29-0.07-0.51,0.23-0.38,0.49
			c0.22,0.43,0.69,0.74,1.14,0.88c0.53,0.17,1.1,0.01,1.64-0.07c0.57-0.09,1.14-0.2,1.7-0.31c0.29-0.06,0.58-0.11,0.88-0.17
			c0.31-0.06,0.63-0.07,0.86-0.32C371.06,379.43,371.06,379,370.76,378.86z"/>
		<path class="st10" d="M411.15,375.96c-2.74,0.3-5.49,0.19-8.24,0.09c-2.76-0.09-5.51-0.06-8.28,0.07
			c-5.48,0.26-10.95,0.77-16.38,1.55c-1.51,0.22-3.04,0.43-4.53,0.78c-0.31,0.07-0.58,0.15-0.85,0.25
			c-0.18-0.24-0.56-0.33-0.81-0.08c-0.23,0.23-0.38,0.54-0.48,0.87c-0.14,0.14-0.27,0.27-0.4,0.45c-0.12,0.17,0.07,0.34,0.24,0.3
			c-0.02,0.16-0.04,0.31-0.05,0.46c-0.06,0.83-0.03,1.68,0.01,2.51c0.05,0.85,0.14,1.7,0.27,2.54c0.06,0.4,0.12,0.8,0.21,1.19
			c0.07,0.35,0.13,0.8,0.41,1.04c0.07,0.06,0.17,0.06,0.22-0.03c0.16-0.28,0.1-0.62,0.07-0.93c-0.03-0.4-0.08-0.8-0.11-1.21
			c-0.06-0.78-0.08-1.56-0.08-2.34c0-0.77,0.02-1.55,0.08-2.32c0.03-0.35,0.06-0.7,0.14-1.04c0.03-0.15,0.09-0.28,0.15-0.42
			c0.33-0.06,0.66-0.09,0.95-0.12c0.87-0.09,1.73-0.21,2.6-0.32c1.63-0.21,3.26-0.45,4.89-0.64c3.27-0.39,6.54-0.7,9.82-0.92
			c3.29-0.22,6.6-0.39,9.91-0.33c3.41,0.07,6.82,0.33,10.22-0.03C412.01,377.22,412.02,375.87,411.15,375.96z"/>
		<path class="st10" d="M418.79,373.62c-1.34-0.56-3.44-0.45-4.76,0.14c-1.45,0.64-1.66,2.13-1.7,3.56
			c-0.06,1.85,0.02,3.7,0.16,5.54c0.12,1.53,0.26,3.2,1.19,4.47c0.1,0.13,0.33,0.06,0.28-0.12c-0.79-2.74-0.52-5.72-0.43-8.54
			c0.13-0.16,0.29-0.31,0.44-0.44c0.42-0.33,0.94-0.52,1.39-0.79c0.34-0.2,0.73-0.47,0.96-0.83c0.02-0.02,0.03-0.03,0.05-0.04
			c0.15-0.13,0.17-0.33,0.12-0.5c0.02-0.47-0.28-0.93-0.27-1.4c0.8,0.01,1.63,0.16,2.39,0.22
			C419.41,374.96,419.4,373.88,418.79,373.62z"/>
		<path class="st10" d="M473.5,378.69c-0.6-0.32-1.32-0.69-2.01-0.55c-0.23-0.09-0.46-0.19-0.65-0.36c-0.54-0.48-1.34,0.32-0.8,0.8
			c0.29,0.25,0.61,0.4,0.98,0.53c0.24,0.08,0.66,0.14,0.8,0.37c0.09,0.15,0.06,0.39,0.1,0.56c0.05,0.2,0.15,0.38,0.29,0.52
			c0.34,0.33,0.78,0.35,1.03,0.8c0.25,0.46,0.22,1,0.16,1.51c-0.07,0.62-0.18,1.23-0.28,1.85c-0.19,1.22-0.37,2.44-0.57,3.66
			c-0.11,0.65,0.85,0.95,1.02,0.28c0.32-1.29,0.6-2.59,0.84-3.89c0.11-0.62,0.22-1.24,0.31-1.86c0.09-0.61,0.24-1.26,0.19-1.88
			C474.86,380.03,474.38,379.16,473.5,378.69z"/>
		<path class="st10" d="M480.28,386.33c-0.06-0.31-0.12-0.63-0.22-0.93c-0.22-0.62-0.51-1.28-0.95-1.78
			c-0.44-0.51-1.02-0.87-1.63-1.13c-0.63-0.27-1.39-0.55-2.09-0.56c-0.51,0-0.79,0.78-0.28,1.02c0.57,0.26,1.22,0.34,1.82,0.53
			c0.54,0.17,1.09,0.41,1.53,0.79c0.47,0.4,0.78,0.85,1.03,1.41c0.12,0.28,0.25,0.56,0.36,0.85c0.12,0.3,0.29,0.57,0.39,0.88
			c0.02,0.07,0.12,0.04,0.11-0.03C480.31,387.03,480.34,386.67,480.28,386.33z"/>
		<path class="st10" d="M468.38,378.72c-0.91,1.39-3.32,0.27-4.57,0c-1.57-0.34-3.15-0.6-4.74-0.82c-3.09-0.43-6.2-0.73-9.31-1.03
			c-6.52-0.63-13.07-1.18-19.63-1c-0.9,0.02-1.8,0.07-2.71,0.04c-0.94-0.03-1.8-0.24-2.72-0.42c-0.71-0.15-1.42-0.22-2.14-0.05
			c-0.69,0.15-1.71,0.79-2.31,0.16c-0.59-0.62-1.51,0.31-0.94,0.94c0.98,1.08,2.28,0.57,3.48,0.3c0.89-0.2,1.7,0.08,2.56,0.26
			c0.83,0.17,1.68,0.24,2.53,0.25c3.56,0.03,7.09-0.1,10.65,0.07c0.05,0,0.1,0.01,0.15,0.01c1.66,0.52,3.32,1.07,5,1.53
			c1.2,0.33,2.22,0.22,3.42,0.03c0.13-0.02,0.26-0.03,0.39-0.05c1.4,0.06,2.79,0.09,4.18,0.04c0.35-0.01,0.54-0.23,0.58-0.48
			c2.58,0.24,5.15,0.5,7.71,0.88c1.9,0.28,3.79,0.65,5.67,1.03c1.32,0.26,3.13,0.28,3.49-1.35
			C469.27,378.58,468.65,378.31,468.38,378.72z"/>
		<path class="st10" d="M381.97,681.24c-2.61-0.44-4.95-0.93-7.37-2.07c-1.25-0.59-2.32-0.82-2.74-2.17
			c-0.45-1.42-0.58-2.97-0.66-4.45c-0.31-5.28-0.76-10.51-1.37-15.76c-0.62-5.38-1.11-10.78-1.72-16.17
			c-0.3-2.64-0.61-5.28-0.95-7.92c-0.33-2.56-0.51-5.21-1.6-7.57c-0.04-0.08-0.11-0.13-0.18-0.17c0.01-0.12,0.02-0.25,0.02-0.35
			c0.03-1.44-0.33-2.79-0.77-4.16c-0.46-1.42-0.66-2.79-0.9-4.25c-0.16-1.01-0.47-2.14-1.16-2.93c-0.38-2.44-0.98-4.86-1.34-7.29
			c-0.54-3.64-0.94-7.3-1.31-10.96c-0.35-3.44-0.54-6.9-0.89-10.34c-0.3-2.92-0.43-6.33-1.67-9.08c0.04-2.3-0.07-4.65-0.17-6.93
			c-0.11-2.4-0.29-4.83-1.23-7.07c-0.41-0.99-0.94-1.91-1.34-2.91c-0.58-1.46-0.82-2.99-1.12-4.52c-0.53-2.72-1.08-5.45-1.49-8.19
			c-0.8-5.36-1.45-10.74-2.5-16.07c-0.5-2.53-1.1-5-1.48-7.56c-0.33-2.2-0.49-4.45-0.95-6.63c0.32-1.41,0.54-2.95,0.27-4.38
			c-0.3-1.57-1.31-2.86-1.76-4.39c-1.1-3.78-2.09-7.6-3.08-11.41c-0.47-1.8-0.95-3.6-1.41-5.41c-0.49-1.92-1.36-4.11-1.35-6.1
			c0.01-1.37-0.15-2.02-0.82-3.23c-0.69-1.25-0.78-2.71-1.01-4.12c0.05-0.08,0.09-0.18,0.11-0.29c0.16-0.94,0.37-1.89,0.62-2.8
			c0.26-0.94,0.62-1.82,0.37-2.8c-0.11-0.44-0.28-0.84-0.34-1.31c-0.06-0.48-0.03-0.98,0.03-1.46c0.06-0.53,0.17-1.04,0.26-1.57
			c0.08-0.45,0.04-0.91,0.08-1.36c0.01-0.14-0.18-0.14-0.23-0.03c-0.2,0.48-0.45,0.91-0.6,1.41c-0.14,0.47-0.29,0.94-0.4,1.43
			c-0.08,0.33-0.13,0.67-0.16,1.01c-0.02-0.04-0.04-0.07-0.06-0.11c-0.49-0.85-0.76-1.64-0.97-2.59c-0.92-4.07-1.76-8.15-2.59-12.23
			c-0.8-3.98-1.54-7.96-2.2-11.96c-0.31-1.88-0.56-3.77-0.91-5.65c-0.19-1-0.43-1.97-0.78-2.93c-0.26-0.73-1.38-2.31-0.6-2.95
			c0.27-0.22,0.25-0.62,0.12-0.9c-0.58-1.28-1.04-2.6-1.35-3.97c-0.07-0.31-0.12-0.62-0.16-0.94c0-0.01,0-0.02,0-0.02
			c-0.02-0.69-0.03-1.39-0.02-2.08c0-1.45,0.07-2.89,0.14-4.34c0.14-2.77,0.31-5.56,0.13-8.33c-0.04-0.67-0.12-1.33-0.21-1.99
			c-0.08-0.59-0.33-1.34-0.14-1.93c0.18-0.56,0.63-0.88,0.73-1.49c0.11-0.66-0.06-1.25,0.38-1.83c0.51-0.67,1.36-1.45,0.93-2.38
			c-0.02-0.05-0.07-0.08-0.11-0.13c0.09-0.13,0.2-0.26,0.26-0.37c0.12-0.26,0.2-0.53,0.12-0.81c-0.02-0.07-0.06-0.12-0.1-0.18
			c0.04-0.02,0.07-0.03,0.11-0.05c0.16-0.07,0.35-0.14,0.53-0.2c0.41-0.13,0.82-0.24,1.23-0.36c0.37-0.11,0.31-0.68-0.09-0.68
			c-0.8,0-1.57,0.34-2.21,0.83c-0.07-0.05-0.13-0.09-0.19-0.14c-0.02-0.02-0.13-0.11-0.11-0.07c-0.04-0.11,0.06-0.35,0.08-0.46
			c0.04-0.19,0.08-0.39,0.12-0.58c0.08-0.37,0.14-0.74,0.21-1.11c0.14-0.79,0.29-1.57,0.35-2.37c0.02-0.23-0.11-0.37-0.28-0.44
			c0.12-0.31,0.25-0.62,0.4-0.93c0.68-1.38,1.54-2.63,2.77-3.58c0.53-0.41,0.03-1.33-0.54-0.93c-2.93,2.08-3.86,5.96-4.12,9.35
			c0,0.04,0.03,0.05,0.05,0.06c-0.07,0.36-0.19,0.77-0.09,1.12c0.07,0.26,0.25,0.48,0.46,0.64c-0.3-0.04-0.54,0.34-0.3,0.59
			c0.1,0.1,0.16,0.2,0.19,0.31c-0.06,0.05-0.11,0.1-0.15,0.17c-0.06,0.09,0,0.19,0.09,0.22c0.02,0.01,0.04,0.02,0.06,0.03
			c-0.17,0.64-1.06,1.31-1.37,1.77c-0.51,0.76-0.71,1.65-0.85,2.54c-0.35,2.14-0.51,4.29-0.6,6.45c-0.09,2.21-0.08,4.44,0.06,6.65
			c0.14,2.16,0.15,4.5,0.72,6.6c0.02,0.09,0.08,0.13,0.13,0.18c0.02,0.82,0.08,1.69,0.44,2.36c0.01,0.03,0.04,0.04,0.06,0.06
			c0.2,0.96,0.46,1.89,0.69,2.7c-0.66,0.41-0.97,1.18-0.87,2.11c0.1,0.92,0.57,1.8,0.81,2.69c0.29,1.07,0.48,2.18,0.66,3.27
			c0.77,4.72,1.44,9.44,2.31,14.14c0.87,4.72,1.89,9.42,3.07,14.08c-0.11,0.16-0.19,0.35-0.17,0.61c0.18,2.8,1.01,5.59,1.84,8.27
			c0.04,0.19,0.1,0.38,0.18,0.58v0.01l0,0c0.04,0.09,0.07,0.18,0.12,0.28c0.06,0.11,0.14,0.2,0.22,0.27c0,0.1-0.02,0.2-0.02,0.31
			c0,0.27,0.13,0.47,0.31,0.62c-0.05,0.98-0.02,1.98,0.04,2.9c0.11,1.52,1.01,2.66,1.08,4.13c0.16,3.53,1.68,7.21,2.57,10.63
			c0.94,3.6,1.86,7.21,2.77,10.82c0.22,0.86,0.43,1.71,0.68,2.54c-0.08,0.11-0.14,0.24-0.15,0.39c-0.12,2.58,0.99,5.24,1.4,7.78
			c0.08,0.48,0.47,0.71,0.89,0.73c0.01,1.58,0.24,3.17,0.47,4.75c0.38,2.58,0.79,5.14,1.15,7.72c0.75,5.4,1.97,10.79,3.23,16.1
			c1.25,5.26,1.39,10.86,2.98,16.02c0.81,2.64,0.75,5.29,0.96,8.02c0.2,2.71,0.35,5.5,0.79,8.18c0.08,0.46,0.41,0.65,0.77,0.65
			c0.14,2.39,0.51,4.82,0.6,7.16c0.14,3.56,0.4,7.11,0.78,10.66c0.35,3.32,0.86,6.62,1.46,9.91c0.63,3.44,0.99,7.16,2.3,10.41
			c0.07,0.17,0.2,0.29,0.34,0.37c0,1.26-0.03,2.51,0,3.77c0.04,1.44,0.11,2.87,0.17,4.31c0.03,0.58,0.7,0.7,1,0.38
			c0,0.22-0.01,0.43-0.01,0.66c-0.03,1.14,0.15,2.16,0.73,3.09c0.09,0.18,0.2,0.35,0.34,0.51c0.08,0.09,0.17,0.14,0.27,0.19
			c0.11,1.49,0.34,2.99,0.5,4.45c0.31,2.86,0.68,5.72,1.03,8.58c0.74,5.94,1.59,11.87,2.32,17.82c0.32,2.59,0.69,5.16,1.12,7.72
			c0.26,1.53,0.56,3.04,0.83,4.56c0.31,1.73,0.2,3.42,0.4,5.15c0.2,1.78,2.31,2.36,3.8,2.89c2.37,0.84,5.06,1.48,7.58,1.49
			C382.38,682.23,382.54,681.34,381.97,681.24z"/>
		<path class="st10" d="M357.22,392.93c-1.23-0.03-2.47,0.2-3.69,0.35c-1.18,0.14-2.35,0.29-3.53,0.46
			c-2.44,0.35-4.85,0.83-7.24,1.44c-0.14,0.03-0.11,0.26,0.03,0.25c2.46-0.17,4.9-0.41,7.34-0.72c1.23-0.15,2.45-0.32,3.68-0.48
			c1.17-0.15,2.37-0.21,3.51-0.5C357.78,393.62,357.67,392.94,357.22,392.93z"/>
		<path class="st10" d="M380.38,395.22c-0.85-0.17-1.75-0.17-2.61-0.14c-0.88,0.04-1.71,0.15-2.55,0.45
			c-0.11,0.04-0.1,0.22,0.03,0.22c0.84-0.03,1.68-0.1,2.52-0.1c0.85,0,1.68,0.11,2.53,0.19
			C380.65,395.88,380.73,395.29,380.38,395.22z"/>
		<path class="st10" d="M371.45,390.24c-0.57,0.06-1.15,0.12-1.72,0.22c-0.27,0.05-0.55,0.1-0.82,0.17
			c-0.27,0.07-0.53,0.19-0.79,0.28c-0.19,0.06-0.16,0.36,0.05,0.35c0.28-0.01,0.56,0.04,0.83,0.03s0.54-0.03,0.8-0.04
			c0.55-0.02,1.1-0.06,1.65-0.08c0.25-0.01,0.47-0.21,0.47-0.47C371.92,390.47,371.7,390.21,371.45,390.24z"/>
		<path class="st10" d="M380.37,391.85c-0.26-0.27-0.55-0.23-0.88-0.18c-0.33,0.05-0.65,0.1-0.98,0.15c-0.73,0.1-1.45,0.2-2.18,0.27
			c-0.66,0.07-1.36,0.17-2.02,0.1c-0.57-0.06-1.14-0.36-1.56-0.75c-0.07-0.06-0.22-0.03-0.21,0.09c0.15,1.29,1.75,1.61,2.83,1.59
			c0.75-0.01,1.49-0.06,2.24-0.13c0.38-0.03,0.75-0.07,1.13-0.12c0.19-0.02,0.38-0.05,0.57-0.07c0.09-0.01,0.19-0.03,0.28-0.04
			c0.03,0,0.06-0.01,0.1-0.01c0.11,0.06,0.24,0.09,0.4,0.07c0.02,0,0.03,0,0.05-0.01c0.19-0.03,0.32-0.22,0.39-0.39
			c0-0.01,0.01-0.03,0.01-0.04C380.58,392.21,380.5,391.98,380.37,391.85z"/>
		<path class="st10" d="M409.39,387.36c-4.27,0.29-8.54,0.64-12.81,0.96c-2.11,0.16-4.22,0.34-6.32,0.51
			c-1.05,0.09-2.11,0.17-3.16,0.26c-0.56,0.05-1.11,0.11-1.66,0.17c-0.45,0.05-0.96,0.19-1.36-0.08c-0.21-0.14-0.5,0.04-0.5,0.29
			c0.01,0.68,0.62,0.81,1.2,0.82c1.1,0.03,2.23-0.11,3.33-0.19c2.39-0.17,4.77-0.34,7.16-0.51c4.72-0.35,9.43-0.71,14.14-1.12
			C410.1,388.41,410.12,387.31,409.39,387.36z"/>
		<path class="st10" d="M477.66,390.47c-1.38-0.32-2.97-0.95-4.4-0.74c-0.73,0.1-1.4,0.46-2.13,0.53c-0.87,0.09-1.61-0.57-2.41-0.82
			c-1.56-0.48-3.36-0.46-4.98-0.62c-1.72-0.18-3.44-0.35-5.15-0.53c-7.03-0.71-14.09-1.42-21.15-1.79c-2-0.1-4-0.19-6.01-0.26
			c-1.86-0.06-3.91-0.28-5.74,0.15c-0.21,0.05-0.2,0.36,0,0.42c1.61,0.45,3.41,0.39,5.07,0.47c1.73,0.08,3.45,0.18,5.17,0.29
			c3.5,0.23,7,0.47,10.5,0.77c6.93,0.59,13.86,1.28,20.78,2.07c1.68,0.19,2.96,1.38,4.7,0.91c0.44-0.12,0.85-0.32,1.3-0.4
			c0.5-0.09,0.97,0,1.46,0.11c0.89,0.2,1.77,0.44,2.65,0.66C478.12,391.89,478.45,390.66,477.66,390.47z"/>
		<path class="st10" d="M351.84,398.47c-0.12-0.14-0.37-0.13-0.5,0c-0.25,0.25-0.19,0.61-0.23,0.94c-0.04,0.34-0.1,0.69-0.18,1.02
			c-0.17,0.7-0.41,1.37-0.75,2c-0.32,0.61-0.72,1.19-1.18,1.71c-0.23,0.25-0.46,0.5-0.73,0.71c-0.28,0.22-0.6,0.35-0.87,0.57
			c-0.29,0.23-0.03,0.68,0.29,0.69c0.75,0.02,1.44-0.7,1.9-1.22c0.52-0.59,0.97-1.25,1.33-1.96c0.35-0.68,0.63-1.41,0.82-2.16
			c0.1-0.39,0.17-0.79,0.22-1.19C352,399.2,352.11,398.78,351.84,398.47z"/>
		<path class="st10" d="M443.21,401.45c-0.28-0.13-0.58-0.21-0.86-0.35s-0.54-0.3-0.79-0.48c-0.47-0.33-0.89-0.76-1.22-1.23
			c-0.35-0.48-0.63-1.01-0.81-1.58c-0.19-0.59-0.23-1.18-0.31-1.79c-0.03-0.21-0.14-0.37-0.36-0.4c-0.19-0.03-0.41,0.09-0.45,0.29
			c-0.24,1.34,0.35,2.87,1.1,3.95c0.4,0.57,0.87,1.08,1.42,1.51c0.53,0.41,1.21,0.87,1.88,0.99c0.25,0.05,0.5-0.05,0.6-0.3
			C443.51,401.87,443.44,401.56,443.21,401.45z"/>
		<path class="st10" d="M382.12,436.61c-3.53-4.58-4.63-10.49-5.66-16.04c-0.58-3.12-1.1-6.26-1.55-9.4
			c-0.23-1.59-0.43-3.18-0.63-4.77c-0.19-1.54-0.34-3.14-0.73-4.64c-0.08-0.3-0.53-0.23-0.54,0.07c-0.05,1.62,0.2,3.29,0.41,4.9
			c0.2,1.56,0.41,3.12,0.63,4.68c0.46,3.2,0.97,6.39,1.61,9.56c1.12,5.53,2.21,11.49,5.74,16.07
			C381.72,437.46,382.45,437.04,382.12,436.61z"/>
		<path class="st10" d="M372.93,454.23c-0.46-0.16-0.94,0.11-1.38,0.24c-0.52,0.15-1.05,0.27-1.58,0.38c-1,0.2-2.02,0.34-3.03,0.49
			s-2.02,0.3-3.02,0.52c-0.91,0.2-2.07,0.46-2.77,1.11c-0.16,0.15-0.03,0.42,0.17,0.42c0.51,0.01,0.98-0.14,1.47-0.26
			c0.53-0.12,1.06-0.22,1.59-0.33c1-0.2,2.01-0.35,3.03-0.5c1.01-0.15,2.02-0.31,3.02-0.53c0.53-0.12,1.06-0.25,1.57-0.41
			c0.43-0.13,0.89-0.21,1.13-0.62C373.26,454.54,373.14,454.31,372.93,454.23z"/>
		<path class="st10" d="M435.83,456.79c-4.47-1.22-8.95-2.41-13.45-3.53c-2.2-0.55-4.39-1.1-6.6-1.6c-1.13-0.26-2.26-0.51-3.39-0.76
			c-0.89-0.2-2.14-0.66-3.03-0.35c-0.04,0.02-0.06,0.07-0.03,0.11c0.62,0.64,1.84,0.8,2.67,1.01c1.12,0.29,2.24,0.58,3.36,0.88
			c2.24,0.59,4.49,1.15,6.73,1.73c4.49,1.16,8.98,2.32,13.45,3.54C436.21,457.98,436.49,456.96,435.83,456.79z"/>
		<path class="st10" d="M439.41,462.14c-2.74-0.64-5.53-1.08-8.28-1.68c-1.35-0.3-2.7-0.61-4.04-0.94c-1.4-0.35-2.83-0.51-4.23-0.85
			c-0.11-0.03-0.16,0.13-0.05,0.17c1.31,0.46,2.56,1.05,3.9,1.44c1.38,0.4,2.76,0.78,4.15,1.14c2.71,0.7,5.47,1.43,8.25,1.81
			C439.8,463.32,440.13,462.32,439.41,462.14z"/>
		<path class="st10" d="M503.85,683.19c-6.99,0.29-14.02,0.62-20.87-1.06c-1.56-0.38-3.1-0.85-4.6-1.43
			c-0.83-0.32-1.55-0.62-2.05-1.38c-0.47-0.7-0.71-1.67-1-2.46c-1.29-3.42-2.49-6.88-3.67-10.34c-1.15-3.36-2.25-6.74-3.33-10.12
			c-0.97-3.05-1.58-6.74-3.33-9.46c-0.86-1.34-2.23-2.01-2.72-3.57c-0.57-1.82-0.96-3.72-1.41-5.58c-0.87-3.63-1.65-7.28-2.41-10.93
			c-0.83-3.98-1.6-7.97-2.26-11.97c-0.55-3.3-0.82-6.89-1.81-10.15c0.06-0.19,0.09-0.4,0.04-0.65c-1.01-5.2-1.33-11.09-3.73-15.86
			c-1.34-2.68-2.1-5.76-3.07-8.6c-0.97-2.83-1.82-5.69-2.69-8.54c-3.34-10.92-6.9-21.92-11.8-32.25c-1.41-2.96-2.84-5.93-4.34-8.84
			c-1.48-2.87-2.79-6.01-4.94-8.44l0,0c-0.31-0.58-0.61-1.16-0.87-1.77c-0.78-1.8-0.88-3.95-2.02-5.58
			c-0.56-0.79-1.3-1.43-1.88-2.21c-0.57-0.78-1.06-1.63-1.51-2.49c-0.04-0.07-0.07-0.14-0.1-0.21c-1.73-5.8-3.75-11.49-5.73-17.21
			c-1.88-5.42-3.53-11.61-7.7-15.75c-0.22-0.22-0.63,0.07-0.45,0.34c1.61,2.44,2.68,5.31,3.51,8.1c0.89,2.97,1.86,5.89,2.86,8.82
			c2.1,6.15,4.15,12.3,6.6,18.31c0.17,0.43,0.58,0.58,0.94,0.53c0.01,0.01,0.01,0.03,0.02,0.04c0.51,0.87,1.18,1.59,1.76,2.41
			c0.62,0.85,0.79,1.82,1,2.83c0.22,1.05,0.52,2.08,0.93,3.08c0.37,0.92,0.79,1.81,1.25,2.68c0.49,0.94,0.91,2,1.8,2.62
			c0.13,0.09,0.29,0.13,0.44,0.13c0.47,1.12,1,2.23,1.48,3.34c1.21,2.75,2.49,5.47,3.76,8.2c2.43,5.22,4.74,10.45,6.68,15.88
			c1.95,5.46,3.82,10.95,5.79,16.4c1.98,5.48,4.11,10.9,5.83,16.48c0.48,1.55,0.57,3.12,0.95,4.68c0.35,1.43,0.68,2.86,0.95,4.3
			c0.57,3.08,0.8,6.27,1.98,9.2c0.16,0.4,0.44,0.63,0.75,0.74c0.12,2.99,0.89,6.06,1.44,8.92c0.75,3.88,1.52,7.75,2.33,11.61
			c0.79,3.76,1.64,7.5,2.54,11.23c0.75,3.13,1.09,7.12,2.88,9.86c0.93,1.41,1.31,2.92,1.81,4.52c0.58,1.85,1.16,3.7,1.75,5.54
			c1.18,3.69,2.39,7.37,3.65,11.03c1.27,3.66,2.62,7.3,4.09,10.88c0.46,1.13,0.94,2.15,1.96,2.87c1.26,0.9,2.98,1.26,4.45,1.64
			c7.79,1.98,16.14,1.54,24.07,0.79C504.59,684.29,504.62,683.16,503.85,683.19z"/>
		<path class="st10" d="M511.06,589.52c-1.74-0.54-3.75-0.38-5.55-0.31c-1.81,0.07-3.64,0.1-5.43,0.4c-0.89,0.15-1.72,0.4-2.55,0.75
			c-0.74,0.31-1.46,0.76-2.25,0.95c-2.04,0.5-3.78-0.66-5.51-1.56c-0.15-0.08-0.34,0.13-0.19,0.25c1.25,0.99,2.71,1.91,4.31,2.19
			c1.76,0.3,3.17-0.54,4.77-1.07c3.97-1.3,8.35-0.4,12.4-1.01C511.36,590.05,511.31,589.6,511.06,589.52z"/>
		<path class="st10" d="M411.3,640.56c-1.02,0.06-1.86,0.78-2.78,1.2c-1.41,0.66-2.9,1.19-4.38,1.68c-2.66,0.88-5.41,1.45-8.15,2.01
			s-5.51,0.91-8.28,1.31c-2.94,0.43-5.96,0.13-8.87,0.59c-0.06,0.01-0.06,0.11,0,0.12c2.8,0.69,6.14,0.34,9.01,0.28
			c2.85-0.05,5.69-0.52,8.48-1.09c2.94-0.6,5.79-1.57,8.63-2.54c1.28-0.44,2.56-0.9,3.79-1.45c0.98-0.44,2.23-0.86,2.69-1.89
			C411.47,640.69,411.42,640.55,411.3,640.56z"/>
		<path class="st10" d="M408.78,644.64c-0.17,0.2-0.35,0.43-0.54,0.61c-0.16,0.16-0.44,0.16-0.65,0.19c-0.69,0.11-1.4,0.13-2.1,0.25
			s-1.39,0.3-2.08,0.44c-0.35,0.07-0.69,0.17-1.03,0.27c-0.34,0.1-0.6,0.14-0.73,0.49c-0.04,0.1,0.01,0.23,0.08,0.31
			c0.26,0.26,0.57,0.16,0.9,0.11c0.38-0.05,0.75-0.11,1.13-0.19c0.76-0.16,1.54-0.29,2.29-0.51c0.66-0.2,1.33-0.4,1.98-0.64
			c0.11-0.04,0.23-0.12,0.34-0.14c0.11-0.03,0.25-0.02,0.37-0.03c0.33-0.05,0.56-0.2,0.77-0.45
			C409.92,644.86,409.21,644.15,408.78,644.64z"/>
		<path class="st10" d="M341.58,413.02c-0.52,0.48-0.96,0.91-1.35,1.51c-0.39,0.61-0.76,1.23-1.15,1.83
			c-0.73,1.13-1.53,2.18-2.52,3.1c-0.9,0.84-1.96,1.52-3.17,1.81c-1.02,0.25-2.89,0.19-2.98-1.22c-0.06-0.91-1.44-0.93-1.43,0
			c0.01,1.64,1.43,2.84,3.01,2.94c1.58,0.1,3.16-0.63,4.38-1.57c1.28-0.98,2.23-2.24,3.09-3.59c0.46-0.73,0.89-1.48,1.32-2.23
			c0.21-0.38,0.43-0.75,0.62-1.14c0.2-0.41,0.31-0.85,0.46-1.28C341.94,413.01,341.7,412.91,341.58,413.02z"/>
		<path class="st10" d="M468.92,410.31c-1.3,1.81-2.55,3.92-4.53,5.09c-0.23,0.14-0.49,0.26-0.76,0.24
			c-0.61-0.03-0.89-0.63-1.33-0.95c-0.51-0.37-1.2-0.52-1.78-0.82c-1.39-0.74-2.68-1.63-3.98-2.52c-1.98-1.36-3.8-2.88-5.58-4.49
			c-0.92-0.83-1.8-1.69-2.72-2.52c-0.91-0.83-1.96-1.53-2.82-2.4c-0.07-0.07-0.19,0.02-0.13,0.1c0.85,1.12,1.51,2.33,2.41,3.43
			c0.87,1.06,1.84,2.04,2.82,3c2.04,1.99,4.29,3.85,6.66,5.43c2.02,1.35,4.92,3.54,7.5,2.94c1.24-0.29,2.16-1.23,2.99-2.15
			c0.98-1.09,1.92-2.3,2.58-3.61C470.7,410.19,469.49,409.51,468.92,410.31z"/>
		<path class="st10" d="M528.95,666.29c-0.46-3.03-0.9-6.06-1.41-9.07c-0.51-3.02-1.13-6.03-1.57-9.06
			c-0.26-1.8-0.47-3.61-0.59-5.42c-0.06-0.82-0.1-1.64-0.15-2.47c0-0.08-0.01-0.17-0.02-0.25c0.23-0.11,0.41-0.35,0.36-0.67
			c-0.75-4.92-1.82-9.79-2.65-14.69c-0.6-3.55-0.81-7.21-1.63-10.72c-0.12-0.73-0.27-1.46-0.39-2.19c-0.07-0.42-0.13-0.83-0.19-1.24
			c-0.07-0.43-0.14-0.86-0.36-1.24c-0.06-0.11-0.26-0.13-0.32,0c-0.01,0.02-0.01,0.05-0.02,0.07c-0.2-1.31-0.42-2.61-0.63-3.92
			c-0.48-3-0.96-5.99-1.44-8.99c-0.42-2.63-0.48-5.62-1.95-7.92c-0.43-0.68-0.36-1.27-0.29-2.02c0.06-0.71,0.05-1.43-0.02-2.14
			c-0.13-1.35-0.52-2.48-1.16-3.66c-0.11-0.2-0.42-0.06-0.36,0.15c0.23,0.95,0.36,1.95,0.43,2.94c-1.15-4.13-1.2-8.48-2.22-12.65
			c-0.58-2.38-1.23-4.74-1.83-7.11c-0.3-1.17-0.57-2.35-0.76-3.54c-0.2-1.27-0.26-2.56-0.49-3.82c-0.08-0.44-0.73-0.39-0.84,0
			c-0.64,2.29-0.05,4.92,0.51,7.17c0.63,2.53,1.63,4.94,2.29,7.45c1.18,4.45,1.22,9.41,3.41,13.52c0,0.05,0.01,0.1,0.01,0.15
			c0,1.17-0.51,2.51-0.14,3.64c0.17,0.53,0.51,0.99,0.68,1.53c0.18,0.55,0.28,1.13,0.37,1.7c0.22,1.4,0.44,2.81,0.67,4.21
			c0.44,2.72,0.88,5.45,1.32,8.17l0.68,4.25c0.19,1.18,0.75,2.81,0.19,3.95c-0.11,0.22-0.16,0.53,0,0.75
			c0.47,0.64,0.84,1.32,1.15,2.02c0.23,1.23,0.53,2.44,0.92,3.63c0.05,0.16,0.15,0.27,0.28,0.35c0.24,1.97,0.45,3.95,0.8,5.87
			c0.89,4.88,1.75,9.8,2.84,14.64c0.02,0.09,0.05,0.16,0.1,0.22c-0.07,0.62-0.09,1.24-0.11,1.87c-0.03,1.37,0.04,2.74,0.15,4.11
			c0.23,2.8,0.64,5.58,1.02,8.37c0.77,5.52,1.91,11,2.53,16.54c0.16,1.39,0.25,2.94-0.37,4.24c-0.13,0.28-0.29,0.51-0.45,0.71
			c-0.23,0.12-0.46,0.23-0.68,0.36c-0.53,0.31-1.06,0.61-1.58,0.92c-1.21,0.71-2.44,1.4-3.68,2.06c-1.29,0.68-2.62,1.28-4.02,1.72
			c-1.36,0.43-2.82,0.63-4.15,1.16c-0.27,0.11-0.25,0.51,0.07,0.53c1.44,0.07,2.97-0.32,4.34-0.72c1.44-0.43,2.83-1.02,4.16-1.7
			c1.13-0.57,2.21-1.24,3.28-1.91c2.04,0.62,3.92-1.81,4.4-3.51C530.19,671.97,529.35,668.92,528.95,666.29z"/>
		<path class="st10" d="M487.44,451.29c-0.13-0.52-0.25-1.03-0.46-1.53c-0.07-0.16-0.16-0.32-0.23-0.48
			c-0.11-0.27-0.1-0.48-0.12-0.77c-0.03-0.47-0.1-0.93-0.22-1.37c0.01-0.8-0.02-1.6-0.14-2.38c-0.2-1.34-0.63-2.62-0.81-3.96
			c-0.35-2.5-0.74-4.99-1.11-7.49c0.05-0.62-0.09-1.27-0.15-1.87c-0.09-0.88-0.18-1.75-0.26-2.63c-0.16-1.7-0.29-3.4-0.4-5.1
			c0-0.02,0-0.04,0-0.06c0.01-0.03,0.04-0.06,0.04-0.09c0.03-0.26-0.01-0.5-0.09-0.74c-0.08-1.41-0.15-2.81-0.24-4.22
			c-0.06-0.88-0.1-1.76-0.15-2.64c-0.04-0.68-0.17-1.4-0.16-2.08c0.01-0.02,0.02-0.04,0.02-0.06c0.01-0.12,0-0.17-0.06-0.28
			c-0.04-0.08-0.14-0.15-0.24-0.14c-0.02,0-0.04,0.01-0.06,0.01c-0.02-0.51-0.03-1.03-0.06-1.54c-0.14-2.82-0.36-5.63-0.64-8.44
			c-0.01-0.07-0.03-0.13-0.06-0.19c0.01-0.11,0.02-0.23,0.02-0.34c0.02-0.43,0.11-0.96-0.09-1.36c-0.02-0.05-0.07-0.09-0.1-0.13
			c-0.01-0.15-0.01-0.3-0.02-0.45c-0.01-0.11-0.17-0.14-0.2-0.03c-0.02,0.09-0.03,0.19-0.05,0.28c-0.07-0.02-0.14-0.03-0.21-0.02
			c-0.03-0.82-0.05-1.64-0.08-2.47c-0.04-1.1-0.02-2.21-0.03-3.31c-0.02-1.16-0.14-2.31-0.18-3.47c0-0.1-0.14-0.09-0.15,0
			c-0.13,1.11-0.32,2.2-0.39,3.31c-0.07,1.1-0.09,2.21-0.13,3.31c-0.08,2.21-0.1,4.41-0.06,6.62c0.02,1.17,0.05,2.34,0.09,3.51
			c-0.14,1.18-0.28,2.35-0.43,3.53c-0.22,1.68-0.61,3.41-0.66,5.11c-0.02,0.5,0.17,0.9,0.42,1.29c-0.62-0.46-1.24-0.91-1.86-1.35
			c-0.82-0.58-1.67-1.08-2.6-1.47c-0.04-0.02-0.08,0.04-0.04,0.06c1.6,0.97,3.22,1.97,4.41,3.44c0.73,0.91,1.4,1.84,2.04,2.81
			c0.21,1.35,0.43,2.7,0.67,4.04c0.03,0.32,0.09,0.64,0.12,0.96c0.06,0.68,0.13,1.37,0.2,2.05c0.09,0.83,0.18,1.66,0.3,2.48
			c0.09,0.65,0.12,1.38,0.38,2c0.35,2.28,0.7,4.55,1.1,6.82c0.24,1.35,0.69,2.61,0.97,3.95c0.21,0.99,0.31,1.98,0.38,2.97
			c-0.01,0.56-0.04,1.12-0.02,1.69c0.02,0.44,0.24,0.79,0.4,1.19c0.18,0.46,0.29,0.95,0.42,1.43c0.57,2.15,1.16,4.31,1.84,6.42
			c0.13,0.41,0.72,0.24,0.64-0.18C488.53,455.7,488,453.49,487.44,451.29z"/>
		<path class="st10" d="M477.81,421.31c-0.72-0.39-1.44-0.78-2.15-1.19s-1.42-0.82-2.1-1.27c-0.06-0.04-0.13,0.05-0.08,0.1
			c0.62,0.56,1.25,1.09,1.96,1.54s1.45,0.83,2.24,1.13C477.86,421.69,477.98,421.4,477.81,421.31z"/>
		<path class="st10" d="M425.55,611.73c-4.69-0.76-8.17,2.75-12.14,4.52c-4.19,1.88-9.32,1.78-13.51-0.07
			c-0.07-0.03-0.12,0.06-0.06,0.1c3.75,2.14,8.18,2.64,12.31,1.32c4.37-1.39,8.26-5.87,13.16-5.03
			C425.88,612.68,426.11,611.82,425.55,611.73z"/>
	</g>
	<g>
		<g>
			<path d="M393.25,448.74c-3.27-1.53-6.29-3.53-8.95-5.95c-0.24-0.22-0.59,0.14-0.35,0.35c2.7,2.45,5.75,4.49,9.06,6.03
				C393.29,449.31,393.55,448.88,393.25,448.74L393.25,448.74z"/>
		</g>
	</g>
	<g>
		<g>
			<path d="M382.74,436.71c-1.21-1.92-2.31-3.92-3.15-6.04c-0.87-2.17-1.41-4.44-1.87-6.72c-0.95-4.67-1.91-9.35-2.75-14.04
				c-0.48-2.71-0.86-5.44-0.96-8.2c-0.01-0.32-0.51-0.32-0.5,0c0.17,4.85,1.2,9.61,2.14,14.35c0.47,2.4,0.95,4.8,1.42,7.2
				c0.46,2.33,0.96,4.66,1.79,6.9c0.89,2.39,2.1,4.64,3.45,6.8C382.48,437.23,382.91,436.98,382.74,436.71L382.74,436.71z"/>
		</g>
	</g>
	<g>
		<g>
			<path d="M375.28,395.64c1.77-0.93,3.93-0.95,5.72-0.06c0.29,0.14,0.54-0.29,0.25-0.43c-1.95-0.98-4.29-0.96-6.22,0.06
				C374.74,395.36,374.99,395.79,375.28,395.64L375.28,395.64z"/>
		</g>
	</g>
	<g>
		<g>
			<path d="M384.38,400.03c1.82,8.72,3.86,17.4,6.13,26.02c0.64,2.45,1.31,4.9,1.99,7.34c0.09,0.31,0.57,0.18,0.48-0.13
				c-2.39-8.58-4.57-17.23-6.51-25.92c-0.55-2.47-1.09-4.95-1.61-7.43C384.79,399.58,384.31,399.71,384.38,400.03L384.38,400.03z"/>
		</g>
	</g>
	<g>
		<g>
			<path d="M332.29,421.92c3.52-0.01,5.69-3.5,7.38-6.12c2.18-3.39,4.03-6.99,5.73-10.65c0.97-2.09,1.89-4.21,2.8-6.33
				c0.25-0.59-0.61-1.1-0.86-0.5c-1.92,4.49-3.91,8.96-6.29,13.23c-1.16,2.07-2.39,4.12-3.79,6.04c-1.19,1.62-2.8,3.34-4.96,3.35
				C331.65,420.92,331.65,421.92,332.29,421.92L332.29,421.92z"/>
		</g>
	</g>
	<g>
		<g>
			<path d="M441.4,392.59c-0.3,4.47,3,8.5,5.76,11.68c2.82,3.25,6.11,6.09,9.72,8.43c2.07,1.34,4.25,2.51,6.51,3.5
				c0.58,0.26,1.09-0.61,0.5-0.86c-7.59-3.33-14.34-8.76-19.01-15.63c-1.44-2.11-2.66-4.49-2.48-7.12
				C442.44,391.95,441.44,391.95,441.4,392.59L441.4,392.59z"/>
		</g>
	</g>
	<g>
		<g>
			<path d="M419.19,518.71c1,15.05,2.03,30.11,3.42,45.13c0.7,7.53,1.48,15.04,2.4,22.55c0.44,3.61,0.92,7.21,1.43,10.81
				c0.53,3.75,1.22,7.52,1.15,11.32c-0.07,3.73-0.56,7.43-0.57,11.16c-0.02,3.79,0.17,7.57,0.33,11.35
				c0.32,7.6,0.19,15.19-0.27,22.78c-0.23,3.8-0.55,7.6-0.96,11.39c-0.27,2.52-0.5,5.12-1.15,7.57c-0.01,0.05-0.17,0.48-0.18,0.48
				c0.13-0.17,0.26-0.33,0.38-0.5c-0.04,0.02-0.08,0.04-0.12,0.06c-0.33-0.04-1.26,0.55-1.54,0.66c-1.46,0.58-2.99,1.02-4.49,1.49
				c-3.63,1.13-7.29,2.17-10.98,3.05c-8.13,1.94-16.46,3.11-24.83,2.9c-4.34-0.11-8.63-0.97-12.78-2.25
				c-0.18,0.64-0.35,1.29-0.53,1.93h0.01c0.56,0.09,1.36-0.25,1.27-0.96c-1.34-10.47-1.86-21-3.43-31.44
				c-2.19-14.56-5.43-28.94-7.79-43.47c-2.37-14.55-3.44-29.29-5.67-43.87c-2.27-14.83-5.08-29.56-8.13-44.24
				c-3.09-14.86-6.45-29.66-9.8-44.46c-3.31-14.61-6.96-29.26-8.48-44.2c-0.74-7.33-0.95-14.74-0.28-22.08
				c0.16-1.73,0.27-3.09,1.21-4.57c0.73-1.14,0.82-1.87,0.54-3.18c-0.3-1.38,0.13-2.92,0.46-4.29c0.4-1.62,0.96-3.39,2.12-4.65
				c0.91-0.99,2.15-1.51,2.9-2.67c0.38-0.58,0.63-1.38,1.25-1.77c0.74-0.46,2.33-0.8,3.15-0.63c1.04,0.22,1.74,0.95,2.89,0.95
				c1.69,0,3.44-0.67,5.06-1.09c3.17-0.82,6.55-1.2,9.66-2.21c0.89-0.29,1.77-0.74,2.31-1.54c0.51-0.76,0.43-1.07,1.44-1.4
				c0.82-0.27,2.13-0.54,2.9-0.03c0.92,0.61,1.27,1.19,2.47,1.31c1.17,0.12,2.38-0.13,3.51-0.37c3.18-0.67,6.39-1.05,9.62-1.42
				c7.35-0.85,14.74-1.52,22.14-1.63c1.79-0.03,3.58-0.03,5.37-0.05c1.57-0.01,3.5,0.26,5.01-0.21c1.33-0.41,1.22-1.39,2.04-2.23
				c0.57-0.58,1.93-0.41,2.72-0.37c0.3,0.02,1.08,0,1.28,0.11c0.24,0.14,0.32,0.65,0.45,0.86c1.01,1.75,3.36,1.79,5.13,1.73
				c2.79-0.1,5.52-0.09,8.32,0.03c7.44,0.31,14.87,0.83,22.28,1.54c3.83,0.37,7.79,0.56,11.56,1.33c1.27,0.26,2.25,0.3,3.38-0.43
				c1.35-0.87,4.1-0.96,5.37,0.26c0.92,0.89,0.44,2.34,1.65,3.08c0.54,0.32,1.17,0.31,1.7,0.63c0.52,0.32,1.6,1.13,1.86,1.67
				c0.53,1.07,0.7,3.02,0.59,4.17c-0.13,1.33-0.77,1.84,0.08,3c0.82,1.13,0.59,3.13,0.71,4.57c0.15,1.88,0.31,3.77,0.46,5.65
				c0.27,3.19,0.54,6.39,0.83,9.58c1.25,13.98,2.41,27.98,4.83,41.82c1.82,10.43,4.33,20.73,6.49,31.1
				c1.71,8.21,3.34,16.45,5.17,24.63c1.03,4.59,2.21,9.12,2.99,13.77c0.58,3.46,1.14,6.91,1.82,10.36c1.73,8.85,3.6,17.67,5.6,26.46
				c0.86,3.75,1.91,7.47,2.74,11.23c1.51,6.83,2.5,13.7,4.25,20.48c5.87,22.65,8.7,46.15,11.41,69.34
				c0.59,5.07,1.16,10.13,1.7,15.21c0.17-0.29,0.33-0.58,0.5-0.86c-7.94,4.92-17.45,7.19-26.66,8.06
				c-9.42,0.89-19.2,0.38-28.26-2.52c0.23,0.23,0.47,0.47,0.7,0.7c-5.35-14.41-11.12-28.74-14.89-43.67
				c-3.79-15-6.38-30.3-10.14-45.31c-3.8-15.16-8.55-30.01-15.01-44.25c-6.59-14.52-13.88-28.67-19.96-43.43
				c-6.89-16.74-12.95-33.8-19-50.85c-0.43-1.2-2.36-0.69-1.93,0.53c7.08,19.94,14.17,39.9,22.58,59.33
				c4.2,9.71,8.9,19.18,13.46,28.73c4.59,9.62,8.7,19.41,11.99,29.56c6.4,19.68,10.3,40.02,14.68,60.21
				c2.18,10.03,5.32,19.78,8.78,29.43c1.75,4.86,3.56,9.69,5.38,14.53c0.39,1.05,0.79,2.09,1.18,3.14c0.31,0.82,0.57,2.39,1.22,3.02
				c0.49,0.48,1.56,0.61,2.21,0.79c0.94,0.27,1.9,0.51,2.86,0.73c7.89,1.79,16.13,2.08,24.17,1.33c7.85-0.74,15.71-2.46,22.9-5.77
				c1.64-0.76,3.24-1.61,4.78-2.56c0.28-0.17,0.53-0.52,0.5-0.86c-2.53-23.42-5.27-46.9-9.81-70.03c-1.04-5.31-2.19-10.6-3.57-15.83
				c-1.87-7.09-2.72-14.36-4.46-21.47c-1.97-8.05-3.84-16.11-5.55-24.23c-1.72-8.19-3.14-16.41-4.65-24.63
				c-0.76-4.14-1.88-8.19-2.78-12.3c-0.86-3.9-1.66-7.82-2.47-11.73c-1.72-8.3-3.36-16.62-5.26-24.88
				c-3.38-14.71-5.63-29.5-7.07-44.53c-0.64-6.68-1.26-13.35-1.83-20.04c-0.3-3.52-0.6-7.04-0.88-10.56
				c-0.11-1.36,0.11-3.2-0.42-4.46c-0.11-0.26-0.75-0.91-0.71-0.79c0.01,0.02,0.4-1.64,0.41-2.08c0.03-1.31-0.27-2.72-0.59-3.98
				c-0.34-1.36-1.01-1.7-2.03-2.56c-0.41-0.35-0.75-0.7-1.25-0.93c-0.81-0.36-1.16-0.11-1.45-1.12c-0.33-1.16-0.87-2.02-1.96-2.64
				c-1.19-0.67-2.76-0.84-4.1-0.85c-1.76-0.01-2.97,1.37-4.66,1.13c-3.61-0.52-7.24-0.93-10.88-1.29
				c-7.52-0.74-15.06-1.29-22.61-1.62c-2.89-0.13-5.76-0.25-8.65-0.09c-1.03,0.06-2.27,0.19-3.25-0.19
				c-1.04-0.4-0.96-1.71-2.02-2.18c-1.28-0.56-3.18-0.42-4.52-0.21c-1.48,0.23-1.72,0.85-2.47,1.96c-0.86,1.29-4.11,0.74-5.52,0.75
				c-1.89,0.01-3.78,0.02-5.67,0.06c-7.5,0.14-15,0.86-22.44,1.76c-3.07,0.37-6.12,0.77-9.15,1.39c-1.11,0.23-2.59,0.64-3.55-0.14
				c-0.47-0.38-0.71-0.8-1.32-1.03c-0.76-0.28-1.75-0.13-2.53-0.03c-1.05,0.14-2.59,0.32-3.3,1.21c-0.34,0.42-0.34,1.02-0.72,1.43
				c-0.51,0.54-1.47,0.67-2.16,0.83c-3.4,0.77-6.8,1.5-10.18,2.36c-1.58,0.4-2.86,0.82-4.38,0.1c-1.48-0.71-2.45-0.61-4-0.13
				c-1.21,0.37-2.14,0.8-2.85,1.89c-0.53,0.82-0.81,1.47-1.62,2.1c-0.55,0.43-1.15,0.82-1.64,1.33c-1.96,2.05-2.66,5.17-3.1,7.87
				c-0.09,0.54-0.2,1.08-0.24,1.62c-0.05,0.73,0.42,1.33,0.4,2c-0.02,0.59-0.64,1.23-0.93,1.72c-0.39,0.67-0.63,1.24-0.76,2
				c-0.6,3.46-0.64,7.14-0.69,10.65c-0.05,3.78,0.1,7.57,0.41,11.34c0.6,7.48,1.8,14.91,3.25,22.27
				c2.93,14.91,6.57,29.69,9.88,44.52c6.65,29.78,12.93,59.72,16.37,90.07c0.83,7.34,1.54,14.67,2.7,21.97
				c1.14,7.21,2.52,14.38,3.89,21.55c1.41,7.38,2.81,14.77,3.96,22.2c1.07,6.97,1.7,13.94,2.31,20.95
				c0.32,3.72,0.76,7.42,1.23,11.12c0.42-0.32,0.84-0.64,1.27-0.96h-0.01c-1.24-0.19-1.79,1.54-0.53,1.93
				c3.13,0.97,6.54,1.85,9.8,2.16c7.47,0.71,15.19-0.11,22.54-1.46c7.25-1.34,14.74-3.15,21.63-5.82c0.7-0.27,1.75-0.54,2.36-1.01
				c0.64-0.48,0.83-1.53,0.97-2.27c0.53-2.89,0.82-5.85,1.11-8.78c0.78-7.78,1.22-15.61,1.27-23.42c0.05-7.77-0.78-15.52-0.49-23.29
				c0.14-3.7,0.69-7.38,0.44-11.09c-0.25-3.78-0.95-7.53-1.47-11.28c-1.07-7.76-1.96-15.55-2.74-23.34
				c-1.75-17.39-2.95-34.84-4.11-52.28C421.1,517.44,419.1,517.43,419.19,518.71L419.19,518.71z"/>
		</g>
	</g>
	<g>
		<g>
			<path d="M330.17,398.59c1.26-0.44,2.6-0.59,3.86-1.03c0.25-0.09,0.42-0.34,0.35-0.62c-0.07-0.25-0.36-0.44-0.62-0.35
				c-1.26,0.44-2.6,0.59-3.86,1.03c-0.25,0.09-0.42,0.34-0.35,0.62C329.62,398.49,329.92,398.68,330.17,398.59L330.17,398.59z"/>
		</g>
	</g>
	<g>
		<g>
			<path d="M367.65,391.38c1.41-0.27,2.82-0.5,4.25-0.68c0.27-0.03,0.5-0.21,0.5-0.5c0-0.24-0.23-0.53-0.5-0.5
				c-1.51,0.19-3.02,0.43-4.51,0.71c-0.27,0.05-0.42,0.37-0.35,0.62C367.11,391.31,367.38,391.44,367.65,391.38L367.65,391.38z"/>
		</g>
	</g>
	<g>
		<g>
			<path d="M342.47,395.68c5.21-0.81,10.44-1.44,15.63-2.35c0.63-0.11,0.36-1.08-0.27-0.96c-5.19,0.92-10.43,1.55-15.63,2.35
				C341.57,394.81,341.84,395.78,342.47,395.68L342.47,395.68z"/>
		</g>
	</g>
	<g>
		<g>
			<path d="M383.56,389.76c8.7-0.66,17.41-1.33,26.11-1.99c0.64-0.05,0.64-1.05,0-1c-8.7,0.66-17.41,1.33-26.11,1.99
				C382.93,388.81,382.92,389.81,383.56,389.76L383.56,389.76z"/>
		</g>
	</g>
	<g>
		<g>
			<path d="M425.69,386.63c7.25,0.04,14.49,0.4,21.71,0.93c3.57,0.26,7.13,0.57,10.7,0.93c3.4,0.35,6.8,0.89,10.21,1.11
				c0.4,0.03,0.77,0.08,1.12,0.28c0.32,0.18,0.6,0.4,0.94,0.55c0.74,0.31,1.42,0.21,2.16-0.03c0.85-0.27,1.53,0.14,2.35,0.32
				c1.02,0.21,2.05,0.37,3.07,0.57c0.63,0.12,0.9-0.84,0.27-0.96c-0.86-0.17-1.73-0.33-2.59-0.48c-0.72-0.13-1.4-0.42-2.12-0.53
				c-0.77-0.11-1.33,0.32-2.06,0.33c-0.77,0.02-1.26-0.58-1.94-0.84c-0.62-0.23-1.3-0.2-1.94-0.23c-0.82-0.04-1.63-0.19-2.44-0.29
				c-1.77-0.22-3.54-0.42-5.31-0.61c-7.21-0.77-14.45-1.33-21.7-1.69c-4.14-0.21-8.27-0.33-12.41-0.35
				C425.04,385.63,425.04,386.63,425.69,386.63L425.69,386.63z"/>
		</g>
	</g>
	<g>
		<g>
			<path d="M342.01,438.97c4.37,13.03,7.97,26.31,10.98,39.72c2.99,13.35,5.41,26.82,7.46,40.34c2.09,13.75,3.8,27.55,5.38,41.37
				c1.56,13.68,2.98,27.37,4.48,41.05c1.49,13.63,3.07,27.24,4.95,40.82c0.23,1.68,0.47,3.35,0.71,5.02
				c0.05,0.32,0.53,0.18,0.48-0.13c-1.98-13.78-3.63-27.6-5.16-41.43c-1.52-13.68-2.94-27.38-4.47-41.06
				c-1.52-13.61-3.16-27.21-5.13-40.76c-1.97-13.54-4.27-27.04-7.13-40.42c-2.87-13.43-6.29-26.75-10.48-39.84
				c-0.51-1.61-1.04-3.21-1.58-4.82C342.39,438.53,341.91,438.66,342.01,438.97L342.01,438.97z"/>
		</g>
	</g>
	<g>
		<g>
			<path d="M376.57,651.9c0.84,5.5,1.58,11.02,2.22,16.55c0.04,0.32,0.54,0.32,0.5,0c-0.65-5.57-1.4-11.14-2.24-16.68
				C377.01,651.45,376.53,651.58,376.57,651.9L376.57,651.9z"/>
		</g>
	</g>
	<g>
		<g>
			<path d="M379.13,673.27c0.13,0.79,0.26,1.58,0.39,2.37c0.02,0.13,0.19,0.21,0.31,0.17c0.14-0.04,0.2-0.17,0.17-0.31
				c-0.13-0.79-0.26-1.58-0.39-2.37c-0.02-0.13-0.19-0.21-0.31-0.17C379.16,673,379.11,673.14,379.13,673.27L379.13,673.27z"/>
		</g>
	</g>
	<g>
		<g>
			<path d="M441.16,445.77c2.36,4.87,4.15,9.99,5.33,15.27c0.07,0.31,0.55,0.18,0.48-0.13c-1.19-5.32-3-10.49-5.38-15.39
				C441.45,445.22,441.02,445.48,441.16,445.77L441.16,445.77z"/>
		</g>
	</g>
	<g>
		<g>
			<path d="M450.44,471.17c4.79,14.04,9.21,28.21,13.26,42.48c4.02,14.2,7.68,28.5,10.96,42.88c1.85,8.1,3.57,16.22,5.18,24.37
				c0.06,0.32,0.54,0.18,0.48-0.13c-2.87-14.55-6.13-29.03-9.76-43.42c-3.61-14.31-7.6-28.52-11.95-42.62
				c-2.45-7.94-5.02-15.83-7.7-23.69C450.81,470.73,450.33,470.86,450.44,471.17L450.44,471.17z"/>
		</g>
	</g>
	<g>
		<g>
			<path d="M483.21,593.53c3.26,10.78,6.39,21.61,9.22,32.51c2.7,10.4,5.1,20.87,7.19,31.4c1.26,6.36,2.42,12.74,3.49,19.13
				c0.05,0.32,0.54,0.18,0.48-0.13c-1.87-11.11-3.99-22.17-6.47-33.16c-2.37-10.48-5.06-20.88-7.97-31.22
				c-1.76-6.24-3.59-12.46-5.47-18.67C483.6,593.09,483.12,593.22,483.21,593.53L483.21,593.53z"/>
		</g>
	</g>
	<g>
		<g>
			<path d="M442.1,393.03c4.26-0.08,8.48,0.57,12.52,1.92c0.61,0.21,0.87-0.76,0.27-0.96c-4.11-1.38-8.44-2.04-12.78-1.96
				C441.45,392.05,441.45,393.05,442.1,393.03L442.1,393.03z"/>
		</g>
	</g>
	<g>
		<g>
			<path d="M464.08,416.24c2.23-1.55,4.17-3.46,5.75-5.67c0.16-0.22,0.04-0.56-0.18-0.68c-0.25-0.15-0.53-0.04-0.68,0.18
				c-1.48,2.06-3.31,3.86-5.39,5.31c-0.22,0.15-0.32,0.44-0.18,0.68C463.52,416.28,463.86,416.39,464.08,416.24L464.08,416.24z"/>
		</g>
	</g>
	<g>
		<g>
			<path d="M332.25,420.98c-0.06-0.02-0.12-0.04-0.18-0.06c-0.03-0.01-0.06-0.02-0.09-0.03c-0.06-0.02,0.08,0.04,0,0
				c-0.11-0.05-0.23-0.11-0.34-0.17c-0.11-0.06-0.22-0.13-0.32-0.19c-0.05-0.03-0.1-0.07-0.15-0.11c-0.03-0.02-0.05-0.04-0.08-0.06
				c-0.06-0.04,0.09,0.07,0,0c-0.19-0.15-0.37-0.32-0.54-0.5c-0.04-0.05-0.08-0.09-0.12-0.14c-0.02-0.02-0.04-0.05-0.06-0.07
				c-0.08-0.09,0.04,0.05,0,0c-0.08-0.11-0.15-0.21-0.22-0.32c-0.14-0.22-0.45-0.33-0.68-0.18c-0.22,0.14-0.33,0.45-0.18,0.68
				c0.63,1,1.59,1.74,2.7,2.13c0.25,0.09,0.56-0.1,0.62-0.35C332.67,421.31,332.52,421.07,332.25,420.98L332.25,420.98z"/>
		</g>
	</g>
	<g>
		<g>
			<path d="M347.78,397.99c-2.35,0.1-4.66,0.58-6.85,1.44c-0.25,0.1-0.42,0.33-0.35,0.62c0.06,0.24,0.36,0.45,0.62,0.35
				c2.1-0.83,4.32-1.32,6.58-1.41C348.42,398.96,348.42,397.96,347.78,397.99L347.78,397.99z"/>
		</g>
	</g>
	<g>
		<g>
			<path d="M373.14,453.89c-4.08,0.7-8.12,1.64-12.08,2.83c-0.31,0.09-0.18,0.57,0.13,0.48c3.97-1.19,8-2.13,12.08-2.83
				C373.59,454.32,373.46,453.84,373.14,453.89L373.14,453.89z"/>
		</g>
	</g>
	<g>
		<g>
			<path d="M409.13,450.54c9.13,1.76,18.15,4.08,26.99,6.93c0.31,0.1,0.44-0.38,0.13-0.48c-8.85-2.86-17.86-5.17-26.99-6.93
				C408.95,450,408.81,450.48,409.13,450.54L409.13,450.54z"/>
		</g>
	</g>
	<g>
		<g>
			<path d="M439.61,462.02c-5.6-1.14-11.17-2.43-16.7-3.88c-0.31-0.08-0.44,0.4-0.13,0.48c5.53,1.45,11.1,2.75,16.7,3.88
				C439.8,462.56,439.93,462.08,439.61,462.02L439.61,462.02z"/>
		</g>
	</g>
	<g>
		<g>
			<path d="M423.29,595.71c-3.92,1.91-7.73,4.04-11.39,6.39c-3.52,2.26-7.01,4.68-10.2,7.41c-1.46,1.25-2.92,2.68-3.84,4.39
				c-0.39,0.71-0.27,1.23,0.41,1.67c0.78,0.5,1.65,0.88,2.52,1.19c3.77,1.32,7.92,0.99,11.64-0.3c2.17-0.75,4.22-1.79,6.17-2.99
				c1.86-1.15,4.34-2.89,6.48-1.34c0.26,0.19,0.51-0.25,0.25-0.43c-1.34-0.96-3.06-0.75-4.48-0.11c-1.81,0.82-3.41,2.06-5.19,2.96
				c-3.53,1.78-7.46,2.89-11.43,2.47c-1.95-0.2-3.96-0.77-5.62-1.82c-0.42-0.26-0.58-0.57-0.32-1.04c0.1-0.19,0.22-0.36,0.33-0.54
				c0.29-0.45,0.62-0.89,0.96-1.3c0.61-0.73,1.29-1.4,2-2.03c3.02-2.7,6.42-5.04,9.8-7.25c3.91-2.55,7.97-4.85,12.16-6.89
				C423.83,596,423.58,595.57,423.29,595.71L423.29,595.71z"/>
		</g>
	</g>
	<g>
		<g>
			<path d="M378.39,647.1c8.99,0.27,18.02-1.1,26.52-4.05c2.39-0.83,4.74-1.78,7.03-2.85c0.29-0.14,0.04-0.57-0.25-0.43
				c-8.1,3.76-16.87,6.04-25.78,6.68c-2.5,0.18-5.01,0.23-7.52,0.15C378.07,646.59,378.07,647.09,378.39,647.1L378.39,647.1z"/>
		</g>
	</g>
	<g>
		<g>
			<path d="M401.62,647.04c2.64-0.72,5.28-1.43,7.92-2.15c0.31-0.08,0.18-0.57-0.13-0.48c-2.64,0.72-5.28,1.43-7.92,2.15
				C401.17,646.64,401.31,647.13,401.62,647.04L401.62,647.04z"/>
		</g>
	</g>
	<g>
		<g>
			<path d="M489.46,589.89c1.5,0.96,3.21,1.99,5.06,1.82c1.76-0.16,3.27-1.39,4.94-1.9c3.8-1.17,7.87-0.61,11.72-0.06
				c0.31,0.04,0.45-0.44,0.13-0.48c-3.61-0.51-7.35-1.03-10.96-0.21c-0.86,0.2-1.7,0.47-2.5,0.83c-0.86,0.39-1.68,0.91-2.59,1.18
				c-2.02,0.6-3.91-0.55-5.56-1.6C489.44,589.29,489.19,589.72,489.46,589.89L489.46,589.89z"/>
		</g>
	</g>
	<g>
		<g>
			<path d="M438.58,395.88c0.5,2.46,2.09,4.64,4.29,5.85c0.28,0.16,0.53-0.28,0.25-0.43c-2.09-1.16-3.58-3.22-4.06-5.56
				C439,395.43,438.52,395.56,438.58,395.88L438.58,395.88z"/>
		</g>
	</g>
	<g>
		<g>
			<path d="M350.98,398.46c-0.58,2.68-1.92,5.15-3.85,7.09c-0.23,0.23,0.13,0.58,0.35,0.35c1.99-2,3.38-4.55,3.98-7.31
				C351.53,398.28,351.05,398.15,350.98,398.46L350.98,398.46z"/>
		</g>
	</g>
	<g>
		<g>
			<path d="M334.13,385.07c-0.86,0.6-0.89,1.73-0.82,2.68c0.11,1.32,0.22,2.62,0.27,3.95c0.08,2-0.15,4.95,2.09,5.89
				c1.1,0.46,2.25,0.14,3.31-0.27c0.86-0.33,1.7-0.72,2.06-1.63c0.43-1.08,0.22-2.46,0.16-3.59c-0.07-1.38-0.19-2.76-0.37-4.14
				c-0.22-1.71-0.27-4.5-2.28-5.13c-0.62-0.19-0.88,0.77-0.27,0.96c1.21,0.38,1.28,2.29,1.43,3.33c0.31,2.13,0.49,4.28,0.54,6.44
				c0.02,0.88,0.11,1.88-0.73,2.41c-0.73,0.46-1.87,0.87-2.74,0.84c-2.17-0.06-2.11-2.74-2.17-4.31c-0.05-1.14-0.05-2.28-0.15-3.41
				c-0.05-0.57-0.15-1.13-0.18-1.7c-0.02-0.43-0.07-1.2,0.34-1.48C335.16,385.57,334.66,384.7,334.13,385.07L334.13,385.07z"/>
		</g>
	</g>
	<g>
		<g>
			<path d="M362.2,378.14c1.19,0.1,1.62,1.44,1.88,2.41c0.31,1.15,0.49,2.31,0.59,3.5c0.1,1.15,0.15,2.31,0.18,3.46
				c0.03,1.04,0.03,2.22-0.71,3.03c-1,1.09-3.14,1.5-4.25,0.36c-0.74-0.76-0.83-1.98-0.99-2.98c-0.2-1.24-0.35-2.5-0.45-3.75
				c-0.09-1.02-0.27-2.14-0.08-3.16c0.09-0.49,0.3-0.88,0.64-1.24c0.34-0.35,0.41-0.8,0.57-1.25c0.22-0.61-0.74-0.87-0.96-0.27
				c-0.08,0.21-0.12,0.53-0.24,0.72c-0.1,0.16-0.28,0.29-0.39,0.44c-0.33,0.44-0.52,0.95-0.61,1.49c-0.18,1.11-0.01,2.27,0.09,3.38
				c0.13,1.47,0.31,2.93,0.56,4.38c0.2,1.18,0.47,2.4,1.45,3.19c1.45,1.15,3.7,0.79,5.06-0.33c0.95-0.78,1.27-1.95,1.32-3.14
				c0.06-1.44-0.06-2.92-0.18-4.35c-0.13-1.5-0.35-3.03-0.84-4.46c-0.43-1.25-1.25-2.33-2.64-2.45
				C361.56,377.09,361.57,378.09,362.2,378.14L362.2,378.14z"/>
		</g>
	</g>
	<g>
		<g>
			<path d="M411.68,374.45c-0.24,2.27-0.3,4.53-0.19,6.81c0.11,2.1,0.02,4.61,1.38,6.35c1.32,1.68,3.33,1.6,5.07,0.6
				c1.85-1.07,2.23-3.13,2.34-5.11c0.15-2.79-0.15-5.64-0.7-8.37c-0.13-0.63-1.09-0.36-0.96,0.27c0.43,2.12,0.66,4.27,0.69,6.43
				c0.02,1.67,0.15,4.14-1.17,5.41c-0.66,0.64-1.72,1.13-2.64,1.13c-0.86,0.01-1.55-0.52-2.01-1.21c-0.57-0.86-0.73-1.88-0.82-2.89
				c-0.09-0.98-0.15-1.96-0.19-2.94c-0.1-2.17-0.02-4.33,0.2-6.49C412.75,373.81,411.75,373.81,411.68,374.45L411.68,374.45z"/>
		</g>
	</g>
	<g>
		<g>
			<path d="M469.51,377.36c-1.2,1.64-0.95,3.7-1.07,5.62c-0.07,1.17-0.19,2.33-0.19,3.5c0,0.95,0.1,1.95,0.67,2.74
				c0.88,1.22,2.71,1.8,4.01,0.89c0.75-0.53,1.13-1.4,1.38-2.25c0.32-1.07,0.53-2.18,0.77-3.27c0.25-1.14,0.48-2.3,0.56-3.47
				c0.07-1.04-0.02-2.07-0.77-2.86c-0.44-0.47-1.15,0.24-0.71,0.71c0.71,0.76,0.52,1.96,0.4,2.9c-0.14,1.12-0.39,2.22-0.65,3.31
				c-0.35,1.49-0.67,4.99-3,4.3c-2.27-0.67-1.68-3.68-1.56-5.45c0.07-1.12,0.11-2.24,0.15-3.37c0.04-1.03,0.23-1.94,0.85-2.78
				C470.75,377.34,469.88,376.84,469.51,377.36L469.51,377.36z"/>
		</g>
	</g>
	<g>
		<g>
			<path d="M370.58,378.96c0.1,3.8,0.48,7.58,1.15,11.32c0.12,0.68,0.26,1.39,0.84,1.83c0.54,0.42,1.26,0.44,1.91,0.45
				c1.92,0.05,3.84-0.09,5.74-0.37c0.63-0.09,0.36-1.06-0.27-0.96c-1.65,0.24-3.32,0.35-4.98,0.34c-0.64-0.01-1.63,0.13-2.01-0.52
				c-0.35-0.6-0.36-1.56-0.47-2.24c-0.53-3.26-0.82-6.55-0.91-9.85C371.57,378.32,370.57,378.32,370.58,378.96L370.58,378.96z"/>
		</g>
	</g>
	
		<ellipse transform="matrix(0.9993 -0.0374 0.0374 0.9993 -14.116 14.3745)" class="st11" cx="377.15" cy="384.49" rx="2.92" ry="4.5"/>
</g>
</svg>
