<?xml version="1.0" encoding="utf-8"?>
<!-- Generator: Adobe Illustrator 28.0.0, SVG Export Plug-In . SVG Version: 6.00 Build 0)  -->
<svg version="1.1" id="Layer_1" xmlns="http://www.w3.org/2000/svg" xmlns:xlink="http://www.w3.org/1999/xlink" x="0px" y="0px"
	 viewBox="0 0 800 800" style="enable-background:new 0 0 800 800;" xml:space="preserve">
<style type="text/css">
	.st0{fill:#FFFFFF;}
	.st1{fill:#FF1F1F;}
	.st2{fill:#E0D7D7;}
	.st3{fill:#13254C;}
	.st4{fill:url(#SVGID_1_);}
	.st5{fill:url(#SVGID_00000112629354063996666580000018361724900643711900_);}
	.st6{fill:url(#SVGID_00000170999529066308883600000009472861763294711206_);}
	.st7{fill:url(#SVGID_00000025411072156408323930000002890112817216998052_);}
	.st8{fill:url(#SVGID_00000152985694771444660110000014036442671082463915_);}
	.st9{fill:url(#SVGID_00000126298381593535663680000015180946277451566507_);}
	.st10{fill:url(#SVGID_00000127015951374457268860000000528818086432382887_);}
	.st11{fill:url(#SVGID_00000168814835830203341780000014005004047596836532_);}
	.st12{fill:url(#SVGID_00000088113248100228314630000011686828090926756002_);}
	.st13{fill:#F7F7F7;}
	.st14{fill:#EF5B5B;}
	.st15{fill:#FC4F4F;}
	.st16{fill:#E5CC17;}
	.st17{fill:url(#SVGID_00000170995305405556099110000005080684400630147973_);}
	.st18{fill:url(#SVGID_00000097473055564787603850000014279298266598420414_);}
	.st19{fill:#FAFF3B;}
	.st20{fill:#B8775A;}
	.st21{fill:none;stroke:#000000;stroke-width:2;stroke-linecap:round;stroke-miterlimit:10;}
	.st22{fill:#FF9F40;}
	.st23{fill:url(#SVGID_00000097469636136700898210000010070387210555166860_);}
	.st24{fill:url(#SVGID_00000167372522222540348310000006904426845918879661_);}
	.st25{fill:url(#SVGID_00000075129776045574467800000014556646598708994751_);}
	.st26{fill:url(#SVGID_00000131338941341015841990000007232743814644405438_);}
	.st27{fill:url(#SVGID_00000067923097907067026120000008295944855961280662_);}
</style>
<g id="_x30_-HAND_x2B_US_FLAG_x2B_">
	<path class="st0" d="M710.33,110.27c-0.02,0-0.03,0-0.05-0.01c-1.02-0.11-2.05,0.16-3.05,0.4c-7.46,1.75-15.21,1.8-22.79,3
		c-5.55,0.88-11.02,2.37-16.62,2.78c-5.15,0.38-10.32-0.22-15.35,1.29c-1.25,0.37-2.45,0.87-3.7,1.23c-1.54,0.44-3.12,0.67-4.71,0.9
		c-8.43,1.22-16.85,2.43-25.28,3.65c-2.85,0.41-5.7,0.82-8.52,1.41c-1.57,0.32-3.14,0.7-4.75,0.86c-2.47,0.24-5.16-0.23-7.66-0.26
		c-0.56-0.01-1.13-0.01-1.69,0.03c-2.98,0.23-5.89,1.5-8.83,1.99c-3.51,0.58-6.92,1.69-10.42,2.29c-1.76,0.3-3.51,0.6-5.27,0.9
		c-11.97,2-23.99,3.66-36.06,4.92c-1.81,0.19-7.76,0.22-8.19,2.68c-0.04,0.25,0,0.5,0.04,0.74c0.01,0.06,0.02,0.11,0.06,0.16
		c0.05,0.06,0.14,0.07,0.22,0.07c0.95-0.02,1.4-0.44,2.36-0.05c0.79,0.32,1.46,0.89,2.1,1.45c1.51,1.33,3.05,2.8,3.65,4.72
		c0.3,0.95,0.35,1.95,0.34,2.95c-0.01,0.67-0.11,1.45-0.67,1.82c-0.99,0.66-2.53-0.47-3.44,0.3c-0.05,0.74,0.44,1.42,1.02,1.88
		s1.26,0.78,1.83,1.26c0.82,0.7,1.34,1.69,1.84,2.65c1.01,1.97,2.02,3.94,2.96,5.94c1.8,3.85,3.23,7.87,4.81,11.81
		c1.64,4.1,3.28,8.21,4.93,12.31c3.25,8.13,7.18,15.89,9.33,24.42c0.36,1.42,0.68,2.86,1,4.29c1.62,7.2,2.5,14.35,2.73,21.72
		c0.08,2.59,0.12,5.2,0.08,7.79c-0.02,1.01-0.21,1.9-0.14,2.94c0.09,1.35,0.17,2.69,0.26,4.04c0.1,1.62,0.21,3.24,0.09,4.85
		c-0.12,1.68-0.48,3.33-0.6,5.01c-0.15,1.97,0.02,3.95,0.06,5.92c0.24,10.83-2.8,21.54-3.72,32.27c-0.4,4.66-0.82,9.32-1.37,13.97
		c-1.1,9.32-2.35,18.62-3.87,27.89c-1.36,8.31-2.07,17.08-0.85,25.47c0.6,4.11,1.73,8.12,3.01,12.06c0.63,1.96,1.24,3.96,1.98,5.88
		c0.63,1.64,1.58,3.18,2.28,4.82c2.26,5.26,3.47,10.89,4.38,16.52c1.09,6.74,1.73,13.95,3.65,20.46c0.16,0.54,0.32,1.09,0.53,1.61
		c3.64,8.96,16.11,6.29,23.07,4c11.74-3.86,22.72-9.66,33.97-14.77c11.25-5.11,23.02-9.58,35.34-10.51
		c2.01-0.15,3.86,0.08,5.82,0.11c2.44,0.03,4.97-0.4,7.4-0.59c5.41,0,11.07-0.77,16.45-1.35c6.72-0.73,13.48-0.9,20.23-1.2
		c8.42-0.37,16.82-0.93,25.21-1.69c0.69-0.06,1.47-0.17,1.89-0.73c0.31-0.41,0.33-0.97,0.34-1.48c0.09-4.83-1.23-9.6-1.38-14.47
		c-0.27-8.83-0.77-17.61-0.36-26.45c0.43-9.33,1.48-18.62,2.57-27.9c0.33-2.81,0.66-5.62,1.15-8.4c1.08-6.14,2.94-12.26,2.73-18.55
		c-0.17-5.28-0.81-10.53-0.57-15.84c0.26-5.66,1.17-11.28,2.71-16.73c0.3-1.04,0.61-2.08,0.88-3.13c0.66-2.61,0.97-5.3,1.28-7.97
		c0.38-3.27,1.34-6.92,0.67-10.14c-0.19-0.91-0.32-1.85-0.42-2.79c-0.56-5.34-0.89-10.54-2.15-15.8c-0.63-2.64-1.26-5.29-1.89-7.93
		c-0.52-2.18-0.65-4.24-1.04-6.41c-0.56-3.18-1.14-6.35-1.75-9.52c-1.7-8.79-3.71-17.54-6.49-26.06
		c-2.77-8.47-6.46-16.58-9.36-25.01c-2.48-7.21-3.77-14.65-5.83-21.98c-0.67-2.39-1.42-4.77-1.92-7.21c-0.36-1.77-1.4-3.37-1.5-5.18
		c-0.05-0.89,0.12-1.78,0.16-2.68c0.09-2.23-0.68-4.4-1.67-6.4C713.11,112.02,712.02,110.47,710.33,110.27z"/>
	<path class="st1" d="M675.59,392.26c-1.39-4.74-0.8-9.59-1.58-14.41c-0.72-4.43-2.59-8.54-3.86-12.81c-1.4-4.7-1.8-9.58-1.72-14.46
		c0.17-9.7,1.75-19.44,2.74-29.08c1.04-10.16,2.14-20.31,3.16-30.47c0.59-5.85,1.32-11.52,2.3-17.3c1.03-6.03,1.18-12.2,0.46-18.27
		c-0.04-0.34-0.09-0.69-0.24-1c-0.17-0.33-0.45-0.59-0.75-0.81c-1.86-1.43-4.27-2-6.62-1.99s-4.65,0.56-6.92,1.17
		c-0.32,0.08-0.65,0.18-0.87,0.42c-0.2,0.22-0.28,0.53-0.34,0.83c-0.51,2.41-0.78,4.99-0.38,7.42c0.14,0.85,0.16,1.66,0.19,2.52
		c0.03,1,0.03,2-0.01,2.99c-0.08,2.13-0.2,4.24-0.59,6.34c-0.25,1.37-0.8,2.67-1.23,4c-1.08,3.3-1.17,6.69-1.55,10.1
		c-1.1,9.85-2.13,19.73-3,29.6c-0.45,5.05-0.81,10.1-1.15,15.16c-0.32,4.69-0.48,9.35,0.16,14.02c0.33,2.4,0.77,4.79,0.79,7.22
		c0.02,2.42-0.38,4.83-0.33,7.25c0.11,4.66,1.75,9.18,2.92,13.65c1.49,5.69,2.91,11.39,4.21,17.12c0.66,2.93,1.29,5.87,1.87,8.82
		c0.29,1.47,0.57,2.95,0.84,4.43c0.23,1.24-0.04,2.37,1.53,2.27c4.28-0.27,8.54-0.69,12.79-1.27c0.13-0.02-0.65-5.94-0.74-6.36
		C677.13,396.95,676.29,394.62,675.59,392.26z"/>
	<path class="st1" d="M746.78,247.18c-0.38-3.4-0.57-6.76-1.36-10.15c-0.08-0.34-0.19-0.72-0.48-0.91c-0.2-0.13-0.46-0.16-0.7-0.16
		c-1.46-0.01-2.86,0.53-4.21,1.07c-2.85,1.14-5.67,2.33-8.49,3.55c-0.36,0.16-0.73,0.32-0.98,0.62c-0.49,0.58-0.38,1.43-0.25,2.17
		c0.67,3.89,1.17,7.81,1.5,11.75c0.29,3.52,0.7,6.63-0.32,10.05c-1.37,4.61-2.79,9.11-3.53,13.88c-1.53,9.85-1.06,19.94-1.22,29.87
		c-0.08,5.01-0.3,10.01-0.84,14.99c-0.55,5.03-1.33,10.03-1.87,15.06c-1.06,9.88-1.52,19.82-1.27,29.76
		c0.28,11.14,1.52,22.19,3.5,33.15c0.16,0.92,1.1,1.01,1.71,0.59c0.28,0.21,0.65,0.32,1.07,0.25c2.81-0.45,5.54-0.74,8.4-0.64
		c0.77,0.03,1.14-0.71,1.04-1.36c-1.1-7.22-1.8-14.51-2.14-21.81c-0.16-3.48-0.21-6.97-0.31-10.45c-0.08-2.95,0.24-6.25-0.22-9.23
		c0.65-4.74,0.5-9.62,0.96-14.4c0.5-5.17,1.19-10.32,2.03-15.45c0.79-4.82,1.69-9.62,2.32-14.46c0.64-4.89,1.51-10.22,0.94-15.15
		c0-0.04,0.02-0.07,0.02-0.11c-0.15-9.23,1.31-18.39,3-27.44c0.8-4.27,1.67-8.54,2.27-12.84c0.53-3.77,0.06-7.04-0.41-10.71
		C746.89,248.16,746.84,247.67,746.78,247.18z"/>
	<path class="st1" d="M722.32,252.47c0.01-3.33-0.01-6.68-0.65-9.94c-1.34,0.61-2.84,0.73-4.29,0.96c-4.78,0.75-9.36,2.71-13.2,5.65
		c-0.18,0.14-0.37,0.3-0.42,0.52c-0.04,0.19,0.03,0.39,0.1,0.57c2.55,6.54,3.9,13.66,3.3,20.63c-0.37,4.38-1.18,8.71-2.09,13
		c-2,9.48-3.93,18.78-4.53,28.49c-0.61,9.98-0.35,20.01-1.44,29.95c-0.51,4.67-1.46,9.28-2.03,13.94
		c-0.61,4.88-0.48,9.69,0.14,14.57c1.39,10.95,3.29,21.9,6.1,32.57c0.05,0.17,0.11,0.36,0.26,0.45c0.12,0.07,0.26,0.07,0.4,0.07
		c2.82-0.05,5.65-0.15,8.47-0.3c1.11-0.06,6.81,0.31,6.67-1.39c-0.39-4.83-1.69-9.64-2.52-14.42c-0.87-5.02-1.6-10.07-1.97-15.15
		c-0.37-4.95-0.41-9.93,0.04-14.87c0.46-4.97,1.56-9.84,2.25-14.78c0.67-4.81,0.66-9.61,0.74-14.46c0.09-4.97,0.4-9.93,0.69-14.9
		c0.57-9.9,1.01-19.82,1.72-29.72c0.38-5.27,1.82-10.38,2.28-15.64c0.37-4.7-0.04-9.42-0.04-14.13
		C722.31,253.59,722.31,253.03,722.32,252.47z"/>
	<path class="st1" d="M690.46,374.74c-0.43-4.75-0.47-9.52-0.02-14.28c0.47-4.93,1.33-9.81,1.6-14.76
		c0.53-9.74-0.38-19.48,0.15-29.22c0.53-9.64,2.09-19.2,3.39-28.76c1.47-10.83,2.13-21.41,2.08-32.31c0-0.38-0.01-0.76-0.16-1.11
		c-0.48-1.1-2.03-1.12-3.22-0.92c-3.99,0.65-7.94,1.63-11.78,2.91c-0.3,0.1-0.62,0.22-0.78,0.49c-0.17,0.3-0.1,0.67-0.02,1.01
		c1.14,4.91,0.82,9.73,0.5,14.7c-0.32,5.06-0.7,10.11-1.06,15.16c-0.72,10.1-1.59,20.19-2.58,30.27c-1,10.2-2.1,20.4-3.47,30.56
		c-0.62,4.59-1,9.03,0.14,13.57c1.14,4.52,3.03,8.79,3.99,13.37c1.07,5.09,1.49,10.29,2.07,15.45c0.29,2.61,0.63,5.21,1.11,7.79
		c0.24,1.29,0.52,2.58,0.85,3.85c0.2,0.78,0.38,2.9,1.4,3.03c0.28,0.04,0.56-0.04,0.84-0.1c2.1-0.49,4.24-0.23,6.36-0.28
		c1.38-0.04,2.77-0.07,4.11-0.42c0.3-0.08,0.62-0.2,0.75-0.47c0.15-0.3,0.01-0.66-0.13-0.97c-1.95-4.25-2.82-9.31-3.82-13.89
		C691.72,384.56,690.91,379.67,690.46,374.74z"/>
	<path class="st2" d="M231.17,192.37c-0.45-0.47-0.85-0.99-1.19-1.55c-0.51-0.83-0.9-1.74-1.26-2.65c-0.24-0.63-0.48-1.29-0.96-1.76
		c-0.55-0.55-1.21-0.52-1.88-0.32c-0.93,0.28-1.9,0.45-2.85,0.64c-1.91,0.39-3.83,0.71-5.75,0.99c-3.86,0.56-7.74,0.96-11.61,1.43
		c-0.73,0.09-1.47,0.18-2.2,0.28c-5,0.66-9.98,1.52-14.95,2.39c-1.27,0.22-2.54,0.44-3.8,0.7c-1.69,0.35-3.76,1.04-4.29,2.89
		c-0.58,2-0.23,4.3,0.81,6.09c0.72,1.24,1.89,2.33,3.31,2.51c1.26,0.16,2.44-0.38,3.62-0.72c1.24-0.35,2.57-0.45,3.84-0.64
		c2.8-0.42,5.61-0.85,8.41-1.27c1.88-0.28,3.75-0.57,5.62-0.91c2.52-0.46,5.03-1.04,7.58-1.38c3.87-0.52,7.84-0.48,11.68-1.21
		c5.14-0.98,10.28-1.96,15.42-2.93c0.24-0.4-0.2-0.92-0.67-0.97s-0.9,0.19-1.34,0.37c-1.58,0.66-3.42,0.55-4.99-0.13
		C232.77,193.78,231.9,193.14,231.17,192.37z"/>
	<g>
		<path class="st2" d="M260.48,190.72c0.01,0,0.01,0.01,0.02,0.01l0,0C260.49,190.73,260.48,190.73,260.48,190.72z"/>
		<path class="st2" d="M261.76,191.4c0.01-0.1,0-0.19-0.04-0.28c-0.04-0.1-0.12-0.22-0.22-0.26c-0.02-0.01-0.04-0.02-0.07-0.03
			c-0.1-0.08-0.22-0.14-0.35-0.14c-0.2,0.01-0.39,0.03-0.59,0.05c0.02,0.01,0.04,0.02,0.05,0.02l0,0c-0.02-0.01-0.03-0.02-0.05-0.02
			c-0.01,0-0.01,0-0.02,0c-0.08-0.02-0.16-0.02-0.24-0.01c-0.13,0.02-0.24,0.14-0.3,0.26c-0.13,0.08-0.21,0.23-0.23,0.39
			c-0.02,0.05-0.05,0.1-0.05,0.17c-0.01,0.2,0.12,0.43,0.3,0.52c0.16,0.08,0.34,0.12,0.51,0.06c0.07-0.02,0.14-0.06,0.21-0.09l0,0
			c-0.04,0.02-0.09,0.04-0.13,0.06c0.05-0.02,0.09-0.04,0.14-0.06c0.01,0,0.01,0,0.02,0c0.13-0.01,0.26-0.03,0.38-0.07
			c0.08-0.03,0.15-0.07,0.23-0.1c0.02-0.01,0.04-0.01,0.05-0.02c0.02-0.01,0.04-0.03,0.06-0.04l0,0l0,0
			c0.06-0.03,0.13-0.06,0.18-0.1C261.7,191.63,261.75,191.52,261.76,191.4z"/>
	</g>
	<path class="st2" d="M344.46,179.27c1.52-0.2,3.04-0.4,4.56-0.64c3.07-0.47,6.16-1.3,9.24-1.62c1.2-0.12,2.23-0.13,3.44-0.41
		c1.82-0.43,3.41-0.93,5.27-1.03c2.32-0.12,4.62-0.47,6.92-0.83c6.42-1.01,12.83-2.15,19.2-3.43c2.83-0.57,5.75-0.66,8.63-1.07
		c3.29-0.47,6.57-0.94,9.86-1.42c13.15-1.9,26.29-3.82,39.44-5.75c2.89-0.42,5.78-0.85,8.66-1.28c2.92-0.43,5.9-0.71,8.72-1.55
		c1.36-0.4,2.95-0.31,4.36-0.46c1.6-0.17,3.19-0.39,4.77-0.64c2.4-0.39,4.77-0.9,7.13-1.44c2.55-0.59,5.25-0.78,7.84-1.18
		c12.8-1.96,25.52-4.13,38.34-5.92c0.87-0.12,1.72-0.29,2.57-0.45c0.7-0.13,1.57-0.01,2.18-0.45c0.33-0.25,0.51-0.64,0.63-1.04
		c0.4-1.31,0.18-2.76-0.39-4c-0.57-1.25-1.48-2.31-2.46-3.26c-0.79-0.76-1.67-1.47-2.7-1.82c-0.56-0.19-1.15-0.26-1.74-0.29
		c-2.98-0.13-6.24,0.75-9.19,1.19c-3.26,0.49-6.51,1.01-9.76,1.55c-6.43,1.06-12.86,2.16-19.31,3.12
		c-4.32,0.64-8.68,1.08-13.02,1.63c-0.65,0.08-1.29,0.16-1.93,0.25c-6.44,0.86-12.86,1.96-19.22,3.31
		c-1.59,0.34-3.18,0.69-4.76,1.05c-1.29,0.29-2.57,0.2-3.88,0.38c-3.28,0.44-6.56,0.94-9.83,1.45c-4.26,0.66-8.53,1.31-12.79,1.97
		c-13.12,2.02-26.23,4.04-39.35,6.07c-12.89,1.99-25.71,4.19-38.6,6.04c-7.2,1.04-14.41,2.08-21.58,3.3
		c-5.47,0.93-10.92,1.5-16.39,2.49c-5.55,1.01-11.1,2.05-16.67,2.98c-2.91,0.49-5.82,0.96-8.73,1.38c-2.73,0.4-5.74,0.41-8.37,1.13
		c-0.14,0.04-0.3,0.09-0.38,0.21c-0.07,0.11-0.07,0.24-0.06,0.37c0.13,3.28,0.26,6.57,0.4,9.85c0.01,0.26,0.04,0.55,0.26,0.69
		c0.15,0.09,0.34,0.08,0.52,0.06c6.49-0.68,12.94-1.73,19.36-2.92c3.21-0.59,6.41-1.25,9.62-1.85c1.29-0.24,2.58-0.17,3.89-0.38
		c1.63-0.26,3.25-0.52,4.88-0.78c5.01-0.81,10.01-1.64,15.01-2.48c0.38-0.07,0.76-0.13,1.14-0.19
		C334.91,180.38,339.69,179.88,344.46,179.27z"/>
	<path class="st2" d="M722.27,114.01c-0.24-1.21-0.52-2.42-1.34-3.31c-0.13-0.14-0.27-0.27-0.44-0.36
		c-0.48-0.26-1.07-0.16-1.61-0.05c-1.89,0.38-3.78,0.76-5.66,1.13c-0.09,0.45,0.36,0.81,0.7,1.12c0.61,0.54,0.99,1.2,1.21,1.97
		c0.22,0.75,0.71,1.66,0.75,2.44c0.02,0.45,0.05,0.91,0.12,1.36c0.01,0.07,0.03,0.15,0.04,0.23c-0.02,0.9-0.19,1.81-0.35,2.69
		c-0.15,0.78,0.64,0.97,1.18,0.67c0.7-0.4,1.18-0.26,1.99-0.11c0.71,0.13,1.45,0.1,2.15-0.08c0.64-0.17,1.26-0.48,1.65-1.01
		c0.34-0.46,0.47-1.05,0.49-1.62c0.07-1.38-0.4-2.72-0.7-4.06C722.4,114.66,722.34,114.34,722.27,114.01z"/>
	<path class="st1" d="M538.8,160.17c1.19,2.28,2.25,4.62,3.23,6.99c2.12,5.1,4.11,10.24,6.16,15.37c2.05,5.12,3.84,10.34,5.89,15.45
		c1.03,2.56,2.06,5.12,3.03,7.7c0.53,1.42,1.06,2.84,1.68,4.2c-0.22,1.35,0.47,2.85,0.82,4.15c0.54,1.99,1.06,3.98,1.54,5.98
		c0.96,4.08,1.49,8.28,1.83,12.45c0.33,4,0.44,8.03,0.25,12.03c-0.2,4.21-0.85,8.4-0.81,12.62c0.01,0.62,0.34,1.05,0.77,1.3
		c-0.47,3.21-0.51,6.49-0.97,9.7c-0.55,3.86-0.71,7.78-1.03,11.66c-0.32,3.85-0.58,7.7-1,11.54c-0.37,3.41-1.16,7-1.02,10.46
		c-0.01,0.02-0.02,0.04-0.02,0.06c-1.33,4.59-1.81,9.5-2.53,14.22c-0.7,4.57-1.36,9.15-1.93,13.73c-0.58,4.68-1.07,9.36-1.47,14.06
		c-0.21,2.4-0.35,4.81-0.58,7.2c-0.22,2.28-0.89,4.61-0.51,6.89c0.03,0.19,0.1,0.33,0.19,0.46c-0.25,3.54,0.37,7.28,0.89,10.71
		c0.66,4.4,1.69,8.72,3.25,12.88c2.97,7.97,7.18,15.57,8.03,24.16c0.03,0.27,0.11,0.5,0.24,0.7c0.09,3.29,0.92,6.67,1.5,9.86
		c0.67,3.65,1.23,7.38,2.15,10.98c1.7,6.7,10.37,7.41,15.99,6.43c0.21-0.04,0.38-0.11,0.54-0.19c1.28,1.45,4.03-0.32,2.84-2.09
		c-6.44-9.6-6.4-21.96-7.93-33.01c-0.79-5.72-2-11.33-4.31-16.64c-1.31-3.02-2.91-5.91-4.04-9.01c-1.08-2.99-1.89-6.08-2.47-9.2
		c-0.65-3.51-1.11-7.1-1.5-10.65c-0.01-0.07-0.02-0.14-0.02-0.21c-0.16-4.33,0.04-8.64,0.61-13.06c0.93-7.21,2.63-14.28,4.03-21.41
		c2.82-14.36,4.94-28.85,6.39-43.41c1.43-14.37,2.62-29.01,1.83-43.45c-0.76-13.8-3.96-27.1-9.51-39.75
		c-3.11-7.09-6.72-13.94-10.43-20.73c-1.99-3.64-3.96-7.28-6.07-10.84c-1.07-1.81-2.17-3.59-3.32-5.35c-0.59-0.9-1.2-1.79-1.82-2.67
		c-0.76-1.08-0.95-0.98-2.26-0.76c-1.65,0.28-3.31,0.56-4.96,0.84c-0.89,0.15-1.77,0.3-2.66,0.45c-0.69,0.12-1.81,0.09-2.42,0.42
		C534.48,154.66,538.15,158.91,538.8,160.17z"/>
	<path class="st1" d="M622.79,417.28c-0.11-0.24-0.23-0.48-0.35-0.71c-0.08-0.15-0.15-0.3-0.23-0.44c-0.69-1.29-1.46-2.5-2.14-3.79
		c-0.68-1.3-1.29-2.64-1.84-4.01c-1.09-2.73-1.93-5.56-2.7-8.4c-1.61-5.93-3.23-11.88-4.2-17.97c-0.91-5.71-0.77-11.72-2.58-17.24
		c-0.88-2.68-2.2-5.16-3.37-7.7c-0.08-0.18-0.16-0.36-0.24-0.53c0.04-0.04,0.08-0.1,0.13-0.14c-0.89-2.32-0.82-4.77-0.42-7.23
		c0.78-4.78,1.63-9.39,1.8-14.26c0.19-5.14,0.02-10.29,0.08-15.44c0.06-4.86,0.39-9.71,0.91-14.54c2.08-19.33,7.34-38.18,8.05-57.69
		c0.64-17.53-1.16-35.23-5.48-52.16c-1.41-5.53-3.06-10.99-4.97-16.37c-2.58-7.28-5.64-14.39-9.26-21.22
		c-1.79-3.37-3.71-6.67-5.78-9.88c-0.75-1.16-1.42-2.36-2.21-3.5c-0.43-0.63-0.51-0.91-1.23-0.93c-0.7-0.02-1.52,0.26-2.21,0.38
		c-6.51,1.13-13.03,2.26-19.54,3.39c-2.05,0.36,0.74,3.11,1.3,3.9c4.57,6.49,8.82,13.21,12.43,20.28
		c4.17,8.14,7.63,16.67,10.4,25.46c5.68,18.02,8.46,37.04,7.73,56.05c-0.81,21-4.91,41.66-8.58,62.24
		c-1.79,10.07-3.64,20.28-4.65,30.47c-0.47,4.73-0.53,9.6,0.67,14.22c1.22,4.7,3.81,8.76,5.63,13.19c1.94,4.7,2.98,9.72,3.72,14.74
		c0.75,5.14,1.18,10.32,1.89,15.46c0.69,5.03,1.65,10.07,3.48,14.83c0.57,1.48,1.23,2.93,1.98,4.33c0.76,1.41,1.68,2.73,2.43,4.14
		c0.14,0.27,0.3,0.55,0.53,0.75c0.81,0.72,2.36-0.17,3.21-0.49c0.73-0.27,1.41-0.66,2.09-1.01c1.39-0.71,2.79-1.43,4.18-2.14
		c2.99-1.53,5.98-3.07,8.91-4.65c0.31-0.17,0.6-0.44,0.62-0.79C622.98,417.69,622.89,417.48,622.79,417.28z"/>
	<path class="st3" d="M743.09,238.06c0.05-0.01,0.1-0.03,0.14-0.04c0.8-0.24,1.63-0.51,2.2-1.11c1.1-1.16-0.11-3.34-0.34-4.69
		c-0.34-1.93-0.69-3.86-1.05-5.79c-0.75-3.96-1.55-7.92-2.41-11.86c-0.83-3.84-1.72-7.66-2.65-11.48
		c-0.95-3.89-1.75-7.94-3.16-11.68c-0.07-0.2-0.18-0.35-0.31-0.48c-0.25-1.02-0.51-2.05-0.79-3.06c-0.01,0.01-0.03,0.02-0.04,0.02
		c-0.02-0.05-0.05-0.09-0.07-0.14c-0.17-2.49-0.99-4.97-1.68-7.35c-0.76-2.62-1.61-5.21-2.43-7.81c-1.68-5.27-3.82-10.31-5.87-15.44
		c-2.03-5.04-3.09-10.17-4.19-15.47c-0.57-2.73-1.19-5.46-1.85-8.17c-0.54-2.19-0.93-4.44-1.76-6.55c-0.18-0.46-0.6-1.03-0.67-1.51
		c-0.06-0.4,0.27-0.4-0.01-0.86c-0.38-0.62-1.52-0.71-2.15-0.7c-2.95,0.06-5.85,0.72-8.75,1.29c-2.6,0.51-5.21,0.95-7.83,1.34
		c-5.82,0.88-11.68,1.54-17.51,2.31c-5.66,0.75-11.4,1.43-16.83,3.13c-1.36,0.42-2.8,0.48-4.22,0.58c-2.48,0.18-4.95,0.52-7.39,1.01
		c-1.46,0.3-2.9,0.65-4.36,0.93c-4.34,0.84-8.79,1.07-13.09,2.1c0.1,0.49,0.64,1.2,0.85,1.71c0.28,0.67,0.56,1.33,0.85,1.99
		c0.59,1.38,1.21,2.75,1.83,4.11c1.22,2.68,2.49,5.35,3.77,8.01c4.82,10.02,9.83,20.01,13.22,30.62
		c4.99,15.62,5.94,32.11,6.26,48.39c0.1,4.97,0.14,9.95,0.14,14.92c0,3.37,0.11,6.75-0.02,10.12c-0.11,2.95-1.13,6.18,3.1,5.74
		c2.19-0.23,4.39-0.45,6.56-0.83c4.67-0.81,8.89-2.94,13.44-3.74c5.29-0.94,10.47-2.32,15.47-4.28c3.78-1.48,7.44-3.24,11.2-4.78
		c5.42-2.21,11.01-3.93,16.6-5.65C732.55,241.31,737.82,239.69,743.09,238.06z"/>
	<path class="st1" d="M651.88,407.55c-0.1-0.21-0.22-0.46-0.35-0.72c-0.01-0.17-0.03-0.34-0.11-0.52
		c-3.47-8.23-7.15-16.35-9.83-24.88c-1.07-3.4-2.22-6.9-3.17-10.31c-1.09-3.89-0.44-8.74-0.52-12.76c-0.03-1.39-0.06-2.82-0.57-4.12
		c-0.28-0.73-0.71-1.4-1.01-2.13c-0.8-1.97-0.56-4.19-0.32-6.3c3.01-26.15,5.47-52.36,7.94-78.57c0.5-5.3,1-10.59,1.24-15.91
		c0.91-19.92-1.48-39.48-6.2-58.82c-2.92-11.98-6.64-23.77-11.18-35.23c-1.52-3.84-3.13-7.65-4.84-11.41
		c-0.84-1.85-1.7-3.69-2.59-5.52c-0.3-0.62-0.52-1.6-1.35-1.62c-0.34-0.01-0.67,0.11-1,0.21c-1,0.3-2.05,0.4-3.1,0.5
		c-3.07,0.29-6.14,0.58-9.21,0.87c-1.57,0.15-3.13,0.3-4.7,0.45c-0.4,0.04-2.04-0.02-2.2,0.34c-0.13,0.28,0.33,0.88,0.44,1.12
		c3.76,7.84,7.85,15.49,11.3,23.49c3.46,8.02,6.41,16.26,8.84,24.65c4.8,16.53,7.72,33.57,8.1,50.8c0.19,8.56-0.2,17.14-1.19,25.64
		c-1.12,9.57-2.93,19.04-4.06,28.6c-2.27,19.18-2,38.65-2.2,57.94c-0.06,5.34-0.11,10.68-0.13,16.02
		c-0.03,5.36,0.02,10.75,0.9,16.05c1.65,9.84,6.73,18.87,11.5,27.5c0.34,0.62,0.88,0.86,1.42,0.85c0.29,0.4,0.81,0.64,1.37,0.33
		c2.55-1.4,5.18-2.36,7.98-3.11c2.76-0.74,5.68-1.18,8.33-2.25C651.9,408.52,652.13,408.05,651.88,407.55z"/>
	<g>
		<path class="st0" d="M709.36,138.83c-0.27-0.5-0.55-1.01-0.83-1.51c0.64-0.34,1.28-0.69,1.92-1.02c-0.98-0.3-1.96-0.61-2.93-0.92
			c-0.25-0.51-0.5-1.01-0.75-1.52c-0.26-0.53-0.53-1.05-0.79-1.58c0.03,0.05-0.01,0.16-0.01,0.2c-0.01,0.18-0.02,0.37-0.03,0.55
			c-0.04,0.6-0.08,1.2-0.13,1.81c-1.18-0.37-2.35-0.75-3.52-1.13c1.06,0.91,2.12,1.81,3.19,2.71c-0.14,0.93-0.3,1.86-0.46,2.8
			c0.8-0.43,1.59-0.86,2.38-1.28c0.66,0.59,1.32,1.17,1.99,1.75c0.2,0.18,0.41,0.36,0.61,0.54c0.05,0.04,0.2,0.14,0.23,0.2
			C709.93,139.89,709.64,139.36,709.36,138.83z"/>
		<path class="st0" d="M707.21,149.49c-0.24-0.51-0.49-1.03-0.73-1.54c0.7-0.38,1.4-0.77,2.09-1.14c-1-0.28-1.99-0.56-2.98-0.84
			c-0.21-0.52-0.43-1.04-0.65-1.56c-0.23-0.54-0.45-1.08-0.68-1.62c0.02,0.06-0.02,0.16-0.03,0.21c-0.03,0.19-0.06,0.38-0.08,0.57
			c-0.09,0.63-0.19,1.26-0.29,1.89c-1.2-0.34-2.39-0.69-3.58-1.04c1.03,0.9,2.07,1.8,3.1,2.7c-0.23,0.97-0.46,1.95-0.71,2.94
			c0.87-0.48,1.73-0.96,2.58-1.43c0.64,0.59,1.28,1.17,1.92,1.75c0.2,0.18,0.39,0.36,0.59,0.54c0.05,0.04,0.19,0.14,0.22,0.2
			C707.72,150.57,707.47,150.03,707.21,149.49z"/>
		<path class="st0" d="M718.87,159.19c-0.23-0.5-0.46-1.01-0.7-1.51c0.73-0.4,1.46-0.79,2.18-1.18c-1.01-0.25-2.02-0.51-3.03-0.77
			c-0.2-0.51-0.41-1.02-0.62-1.53c-0.22-0.53-0.43-1.06-0.65-1.59c0.02,0.05-0.03,0.16-0.04,0.21c-0.03,0.19-0.07,0.38-0.1,0.57
			c-0.11,0.63-0.23,1.25-0.36,1.88c-1.22-0.31-2.44-0.63-3.65-0.94c1.04,0.87,2.07,1.73,3.11,2.59c-0.26,0.97-0.53,1.94-0.81,2.92
			c0.9-0.49,1.8-0.98,2.69-1.47c0.64,0.56,1.27,1.13,1.91,1.69c0.2,0.17,0.39,0.35,0.59,0.52c0.05,0.04,0.19,0.14,0.22,0.19
			C719.36,160.25,719.11,159.72,718.87,159.19z"/>
		<path class="st0" d="M715.39,170.2c-0.2-0.51-0.4-1.02-0.6-1.53c0.78-0.43,1.55-0.86,2.32-1.28c-1.01-0.23-2.03-0.46-3.04-0.7
			c-0.17-0.52-0.34-1.04-0.52-1.56c-0.18-0.54-0.36-1.08-0.55-1.62c0.02,0.06-0.04,0.17-0.05,0.22c-0.05,0.2-0.1,0.4-0.15,0.59
			c-0.16,0.65-0.33,1.3-0.51,1.95c-1.22-0.28-2.44-0.57-3.67-0.86c1,0.86,2,1.72,2.99,2.57c-0.34,1-0.68,2.01-1.03,3.02
			c0.95-0.53,1.89-1.06,2.84-1.59c0.61,0.56,1.22,1.12,1.82,1.68c0.19,0.17,0.37,0.34,0.56,0.51c0.05,0.04,0.19,0.13,0.21,0.19
			C715.8,171.27,715.6,170.73,715.39,170.2z"/>
		<path class="st0" d="M726.37,179.46c-0.18-0.5-0.36-1-0.54-1.5c0.8-0.44,1.6-0.88,2.4-1.31c-1.01-0.21-2.02-0.42-3.04-0.63
			c-0.15-0.51-0.3-1.02-0.46-1.52c-0.16-0.53-0.32-1.06-0.49-1.59c0.02,0.05-0.05,0.17-0.06,0.22c-0.06,0.2-0.12,0.39-0.18,0.59
			c-0.19,0.64-0.39,1.29-0.59,1.93c-1.22-0.26-2.45-0.51-3.67-0.77c0.98,0.83,1.95,1.66,2.92,2.48c-0.38,0.99-0.77,1.99-1.17,3
			c0.98-0.54,1.95-1.08,2.92-1.62c0.59,0.54,1.18,1.08,1.76,1.62c0.18,0.17,0.36,0.33,0.54,0.5c0.04,0.04,0.18,0.13,0.2,0.18
			C726.74,180.51,726.55,179.98,726.37,179.46z"/>
		<path class="st0" d="M721.56,190.71c-0.14-0.5-0.29-1-0.44-1.51c0.83-0.47,1.66-0.93,2.49-1.39c-1-0.19-2-0.37-3-0.56
			c-0.12-0.51-0.24-1.03-0.36-1.54c-0.13-0.53-0.25-1.07-0.39-1.6c0.01,0.06-0.06,0.17-0.08,0.22c-0.07,0.2-0.14,0.4-0.22,0.6
			c-0.24,0.66-0.48,1.32-0.72,1.99c-1.21-0.23-2.42-0.46-3.64-0.69c0.93,0.82,1.85,1.63,2.77,2.44c-0.44,1.02-0.9,2.05-1.35,3.08
			c1.01-0.58,2.02-1.15,3.03-1.72c0.56,0.53,1.11,1.07,1.66,1.6c0.17,0.16,0.34,0.33,0.51,0.49c0.04,0.04,0.17,0.13,0.19,0.18
			C721.87,191.76,721.72,191.24,721.56,190.71z"/>
		<path class="st0" d="M731.48,199.47c-0.11-0.49-0.23-0.98-0.35-1.47c0.85-0.47,1.71-0.94,2.56-1.41
			c-0.99-0.16-1.97-0.33-2.96-0.49c-0.09-0.5-0.18-1-0.27-1.5c-0.1-0.52-0.2-1.04-0.3-1.56c0.01,0.05-0.07,0.17-0.09,0.22
			c-0.08,0.2-0.17,0.4-0.25,0.6c-0.27,0.65-0.55,1.3-0.83,1.96c-1.19-0.2-2.39-0.4-3.59-0.61c0.88,0.78,1.76,1.57,2.63,2.34
			c-0.5,1.01-1,2.02-1.52,3.03c1.04-0.58,2.07-1.16,3.11-1.74c0.52,0.51,1.04,1.02,1.55,1.53c0.16,0.16,0.32,0.31,0.47,0.47
			c0.04,0.04,0.16,0.12,0.18,0.17C731.72,200.5,731.6,199.98,731.48,199.47z"/>
		<path class="st0" d="M725.37,210.81c-0.08-0.49-0.17-0.98-0.25-1.47c0.87-0.5,1.74-0.99,2.61-1.48c-0.96-0.14-1.92-0.28-2.89-0.42
			c-0.05-0.5-0.11-1-0.17-1.51c-0.06-0.52-0.13-1.05-0.19-1.57c0.01,0.05-0.08,0.17-0.1,0.22c-0.09,0.2-0.19,0.4-0.28,0.61
			c-0.31,0.66-0.62,1.33-0.94,2c-1.17-0.17-2.33-0.35-3.5-0.52c0.83,0.77,1.65,1.53,2.45,2.29c-0.55,1.03-1.11,2.06-1.68,3.09
			c1.05-0.61,2.11-1.22,3.16-1.83c0.48,0.5,0.96,1,1.43,1.5c0.15,0.15,0.29,0.31,0.44,0.46c0.04,0.04,0.15,0.12,0.16,0.17
			C725.53,211.84,725.45,211.32,725.37,210.81z"/>
		<path class="st0" d="M733.89,218.97c-0.04-0.47-0.09-0.94-0.14-1.42c0.89-0.5,1.79-0.99,2.68-1.49c-0.93-0.12-1.87-0.24-2.81-0.36
			c-0.02-0.49-0.04-0.97-0.06-1.46c-0.02-0.51-0.05-1.01-0.08-1.52c0,0.05-0.09,0.17-0.12,0.22c-0.11,0.2-0.21,0.4-0.32,0.6
			c-0.35,0.65-0.71,1.3-1.07,1.96c-1.13-0.15-2.27-0.29-3.41-0.44c0.76,0.73,1.51,1.46,2.25,2.18c-0.62,1.01-1.24,2.02-1.87,3.03
			c1.08-0.61,2.16-1.22,3.24-1.83c0.44,0.48,0.87,0.95,1.29,1.43c0.13,0.15,0.26,0.29,0.39,0.44c0.03,0.04,0.14,0.11,0.14,0.16
			C733.98,219.96,733.94,219.46,733.89,218.97z"/>
		<path class="st0" d="M695.14,139.39c-0.24-0.53-0.49-1.05-0.74-1.58c0.67-0.37,1.34-0.74,2.01-1.1c-0.97-0.31-1.94-0.62-2.9-0.93
			c-0.22-0.53-0.43-1.06-0.65-1.6c-0.23-0.55-0.46-1.11-0.69-1.66c0.02,0.06-0.02,0.17-0.03,0.21c-0.02,0.19-0.05,0.39-0.07,0.58
			c-0.08,0.63-0.16,1.27-0.25,1.91c-1.16-0.38-2.32-0.76-3.48-1.15c1.01,0.94,2.02,1.88,3.04,2.82c-0.2,0.98-0.42,1.97-0.65,2.96
			c0.83-0.47,1.66-0.93,2.48-1.38c0.63,0.61,1.26,1.22,1.89,1.82c0.2,0.19,0.39,0.37,0.58,0.56c0.05,0.05,0.19,0.15,0.22,0.21
			C695.66,140.5,695.4,139.95,695.14,139.39z"/>
		<path class="st0" d="M692.39,150.61c-0.22-0.54-0.44-1.07-0.66-1.61c0.73-0.41,1.45-0.82,2.17-1.22
			c-0.99-0.28-1.97-0.57-2.96-0.85c-0.19-0.54-0.38-1.09-0.57-1.63c-0.2-0.56-0.4-1.13-0.6-1.69c0.02,0.06-0.03,0.17-0.04,0.22
			c-0.04,0.2-0.08,0.4-0.12,0.6c-0.13,0.66-0.26,1.33-0.4,1.99c-1.19-0.35-2.37-0.7-3.56-1.05c0.99,0.94,1.99,1.87,2.99,2.79
			c-0.28,1.02-0.56,2.05-0.86,3.08c0.89-0.51,1.78-1.02,2.67-1.52c0.62,0.61,1.23,1.21,1.85,1.81c0.19,0.19,0.38,0.37,0.57,0.56
			c0.05,0.05,0.19,0.15,0.21,0.21C692.85,151.74,692.62,151.18,692.39,150.61z"/>
		<path class="st0" d="M703.69,160.64c-0.21-0.52-0.43-1.05-0.64-1.57c0.75-0.42,1.5-0.84,2.24-1.26c-1.01-0.26-2.01-0.51-3.01-0.77
			c-0.18-0.53-0.37-1.06-0.56-1.59c-0.19-0.55-0.39-1.1-0.59-1.66c0.02,0.06-0.04,0.17-0.05,0.22c-0.04,0.2-0.09,0.4-0.13,0.6
			c-0.14,0.66-0.29,1.31-0.44,1.97c-1.21-0.31-2.42-0.63-3.63-0.95c1,0.9,2.01,1.79,3.02,2.68c-0.3,1.01-0.61,2.03-0.93,3.05
			c0.92-0.52,1.84-1.04,2.75-1.56c0.62,0.58,1.23,1.16,1.85,1.74c0.19,0.18,0.38,0.36,0.57,0.53c0.05,0.04,0.19,0.14,0.21,0.2
			C704.13,161.74,703.91,161.19,703.69,160.64z"/>
		<path class="st0" d="M699.84,172.13c-0.19-0.53-0.37-1.06-0.56-1.59c0.79-0.46,1.57-0.91,2.36-1.36c-1.01-0.23-2.02-0.46-3.03-0.7
			c-0.16-0.54-0.31-1.08-0.47-1.62c-0.17-0.56-0.33-1.12-0.5-1.68c0.02,0.06-0.05,0.18-0.06,0.23c-0.06,0.21-0.11,0.41-0.17,0.62
			c-0.18,0.68-0.37,1.36-0.57,2.04c-1.22-0.28-2.44-0.57-3.65-0.86c0.98,0.89,1.95,1.77,2.93,2.65c-0.36,1.05-0.73,2.1-1.11,3.15
			c0.96-0.56,1.92-1.12,2.88-1.68c0.6,0.58,1.19,1.15,1.78,1.73c0.18,0.18,0.37,0.35,0.55,0.53c0.05,0.04,0.18,0.14,0.2,0.2
			C700.23,173.25,700.04,172.69,699.84,172.13z"/>
		<path class="st0" d="M710.64,181.66c-0.17-0.52-0.34-1.03-0.51-1.55c0.81-0.46,1.62-0.92,2.42-1.38
			c-1.01-0.21-2.02-0.42-3.03-0.63c-0.14-0.53-0.28-1.05-0.43-1.58c-0.15-0.55-0.3-1.1-0.45-1.64c0.02,0.06-0.05,0.18-0.07,0.23
			c-0.06,0.2-0.13,0.41-0.19,0.61c-0.21,0.67-0.42,1.34-0.63,2.01c-1.22-0.26-2.44-0.51-3.66-0.77c0.96,0.85,1.92,1.7,2.87,2.55
			c-0.4,1.04-0.8,2.08-1.22,3.12c0.99-0.57,1.97-1.14,2.95-1.7c0.58,0.56,1.16,1.11,1.73,1.66c0.18,0.17,0.35,0.34,0.53,0.51
			c0.05,0.04,0.18,0.13,0.2,0.19C711,182.75,710.82,182.2,710.64,181.66z"/>
		<path class="st0" d="M705.72,193.36c-0.14-0.52-0.29-1.04-0.43-1.56c0.83-0.49,1.67-0.98,2.5-1.47c-1-0.18-2-0.37-3-0.55
			c-0.11-0.53-0.23-1.06-0.34-1.59c-0.12-0.55-0.24-1.11-0.37-1.66c0.01,0.06-0.06,0.18-0.08,0.23c-0.07,0.21-0.15,0.42-0.22,0.63
			c-0.24,0.69-0.49,1.38-0.74,2.07c-1.21-0.23-2.42-0.45-3.63-0.68c0.92,0.84,1.84,1.68,2.75,2.51c-0.45,1.06-0.9,2.13-1.37,3.2
			c1.01-0.61,2.02-1.21,3.03-1.81c0.55,0.55,1.1,1.1,1.65,1.64c0.17,0.17,0.34,0.34,0.5,0.5c0.04,0.04,0.17,0.13,0.19,0.19
			C706.02,194.45,705.87,193.91,705.72,193.36z"/>
		<path class="st0" d="M715.61,202.35c-0.11-0.5-0.23-1.01-0.35-1.51c0.85-0.5,1.7-0.99,2.55-1.48c-0.98-0.16-1.97-0.32-2.95-0.49
			c-0.09-0.52-0.18-1.03-0.27-1.55c-0.09-0.54-0.19-1.08-0.29-1.62c0.01,0.06-0.07,0.18-0.09,0.23c-0.08,0.21-0.17,0.41-0.25,0.62
			c-0.27,0.68-0.55,1.35-0.83,2.03c-1.19-0.2-2.38-0.4-3.58-0.6c0.88,0.81,1.76,1.61,2.62,2.4c-0.5,1.05-1,2.1-1.51,3.15
			c1.03-0.61,2.06-1.22,3.09-1.82c0.52,0.53,1.04,1.05,1.55,1.57c0.16,0.16,0.32,0.32,0.47,0.48c0.04,0.04,0.16,0.12,0.17,0.18
			C715.85,203.41,715.73,202.88,715.61,202.35z"/>
		<path class="st0" d="M709.6,214.12c-0.09-0.5-0.18-1.01-0.27-1.51c0.86-0.52,1.72-1.04,2.58-1.56c-0.96-0.14-1.92-0.27-2.88-0.41
			c-0.06-0.52-0.12-1.04-0.19-1.56c-0.07-0.54-0.14-1.08-0.21-1.62c0.01,0.06-0.08,0.18-0.1,0.23c-0.09,0.21-0.18,0.42-0.28,0.63
			c-0.3,0.69-0.61,1.38-0.92,2.07c-1.16-0.17-2.33-0.34-3.49-0.51c0.83,0.79,1.65,1.57,2.47,2.35c-0.54,1.07-1.08,2.14-1.62,3.21
			c1.04-0.64,2.08-1.28,3.12-1.92c0.49,0.51,0.97,1.03,1.45,1.54c0.15,0.16,0.29,0.31,0.44,0.47c0.04,0.04,0.15,0.12,0.16,0.17
			C709.78,215.18,709.69,214.65,709.6,214.12z"/>
		<path class="st0" d="M718.21,222.48c-0.05-0.49-0.1-0.97-0.16-1.46c0.88-0.52,1.76-1.04,2.64-1.56c-0.93-0.11-1.86-0.23-2.8-0.34
			c-0.02-0.5-0.05-1-0.08-1.51c-0.03-0.52-0.06-1.05-0.1-1.57c0,0.05-0.09,0.18-0.11,0.23c-0.1,0.21-0.21,0.41-0.31,0.62
			c-0.34,0.68-0.68,1.35-1.03,2.03c-1.13-0.14-2.26-0.28-3.4-0.43c0.77,0.75,1.53,1.49,2.27,2.23c-0.59,1.05-1.19,2.09-1.8,3.14
			c1.06-0.64,2.12-1.28,3.18-1.92c0.44,0.49,0.88,0.98,1.31,1.46c0.13,0.15,0.27,0.3,0.4,0.45c0.03,0.04,0.14,0.11,0.15,0.17
			C718.31,223.5,718.26,222.99,718.21,222.48z"/>
		<path class="st0" d="M680.76,140.16c-0.22-0.55-0.43-1.1-0.65-1.65c0.7-0.4,1.4-0.8,2.09-1.19c-0.96-0.31-1.92-0.63-2.87-0.94
			c-0.19-0.56-0.37-1.11-0.56-1.67c-0.19-0.58-0.39-1.16-0.58-1.74c0.02,0.06-0.03,0.18-0.04,0.23c-0.04,0.2-0.07,0.41-0.11,0.61
			c-0.12,0.67-0.25,1.34-0.38,2.02c-1.15-0.39-2.3-0.77-3.44-1.16c0.96,0.98,1.92,1.95,2.89,2.92c-0.27,1.03-0.54,2.07-0.83,3.12
			c0.87-0.5,1.73-0.99,2.59-1.48c0.6,0.63,1.2,1.26,1.81,1.89c0.19,0.19,0.37,0.39,0.56,0.58c0.05,0.05,0.18,0.15,0.21,0.21
			C681.22,141.32,680.99,140.74,680.76,140.16z"/>
		<path class="st0" d="M677.42,151.95c-0.2-0.56-0.39-1.11-0.59-1.67c0.75-0.44,1.5-0.87,2.24-1.3c-0.98-0.28-1.96-0.57-2.94-0.86
			c-0.16-0.57-0.33-1.13-0.5-1.7c-0.17-0.59-0.35-1.18-0.52-1.77c0.02,0.06-0.04,0.18-0.05,0.23c-0.05,0.21-0.1,0.42-0.15,0.63
			c-0.16,0.69-0.33,1.39-0.5,2.09c-1.18-0.35-2.36-0.7-3.53-1.06c0.96,0.97,1.91,1.93,2.88,2.89c-0.33,1.07-0.66,2.15-1,3.23
			c0.92-0.54,1.84-1.08,2.75-1.62c0.59,0.63,1.19,1.25,1.78,1.87c0.18,0.19,0.37,0.38,0.55,0.57c0.05,0.05,0.18,0.15,0.2,0.21
			C677.83,153.12,677.62,152.53,677.42,151.95z"/>
		<path class="st0" d="M688.39,162.29c-0.2-0.54-0.39-1.09-0.59-1.63c0.77-0.45,1.54-0.89,2.3-1.33c-1-0.26-2-0.51-3-0.77
			c-0.16-0.55-0.33-1.1-0.5-1.66c-0.17-0.57-0.35-1.15-0.52-1.72c0.02,0.06-0.04,0.18-0.06,0.23c-0.05,0.21-0.1,0.42-0.16,0.63
			c-0.17,0.69-0.34,1.37-0.52,2.06c-1.21-0.32-2.41-0.63-3.61-0.95c0.98,0.93,1.95,1.85,2.93,2.76c-0.34,1.06-0.68,2.12-1.04,3.19
			c0.94-0.56,1.88-1.11,2.81-1.65c0.6,0.6,1.2,1.2,1.8,1.8c0.19,0.18,0.37,0.37,0.55,0.55c0.05,0.05,0.18,0.15,0.21,0.2
			C688.8,163.43,688.6,162.86,688.39,162.29z"/>
		<path class="st0" d="M684.23,174.29c-0.18-0.55-0.35-1.1-0.53-1.64c0.8-0.48,1.6-0.96,2.39-1.43c-1.01-0.23-2.01-0.46-3.02-0.7
			c-0.14-0.56-0.29-1.12-0.43-1.68c-0.15-0.58-0.3-1.16-0.46-1.74c0.02,0.06-0.05,0.18-0.07,0.24c-0.06,0.22-0.12,0.43-0.19,0.65
			c-0.2,0.71-0.41,1.41-0.62,2.12c-1.21-0.28-2.43-0.57-3.64-0.86c0.96,0.91,1.92,1.82,2.88,2.73c-0.39,1.09-0.78,2.19-1.18,3.29
			c0.98-0.59,1.95-1.18,2.92-1.77c0.59,0.6,1.17,1.19,1.75,1.78c0.18,0.18,0.36,0.36,0.54,0.55c0.05,0.05,0.18,0.14,0.2,0.2
			C684.59,175.44,684.41,174.86,684.23,174.29z"/>
		<path class="st0" d="M694.88,184.08c-0.16-0.53-0.33-1.07-0.49-1.6c0.82-0.49,1.63-0.97,2.44-1.45c-1.01-0.21-2.01-0.41-3.02-0.62
			c-0.13-0.54-0.27-1.09-0.4-1.64c-0.14-0.57-0.28-1.13-0.43-1.7c0.01,0.06-0.06,0.18-0.07,0.24c-0.07,0.21-0.13,0.42-0.2,0.64
			c-0.22,0.7-0.44,1.4-0.67,2.1c-1.22-0.25-2.43-0.51-3.65-0.77c0.95,0.88,1.9,1.75,2.84,2.62c-0.41,1.08-0.83,2.16-1.25,3.24
			c0.99-0.6,1.98-1.2,2.97-1.79c0.57,0.57,1.15,1.14,1.72,1.71c0.18,0.17,0.35,0.35,0.53,0.52c0.04,0.04,0.18,0.14,0.19,0.19
			C695.22,185.2,695.05,184.64,694.88,184.08z"/>
		<path class="st0" d="M689.9,196.24c-0.14-0.54-0.29-1.07-0.43-1.61c0.83-0.52,1.66-1.03,2.49-1.54c-1-0.18-1.99-0.36-2.99-0.55
			c-0.11-0.55-0.22-1.1-0.34-1.65c-0.12-0.57-0.24-1.14-0.36-1.72c0.01,0.06-0.07,0.19-0.08,0.24c-0.07,0.22-0.15,0.44-0.23,0.65
			c-0.25,0.71-0.49,1.43-0.75,2.15c-1.21-0.22-2.41-0.45-3.62-0.67c0.92,0.86,1.83,1.72,2.75,2.57c-0.45,1.1-0.9,2.21-1.36,3.32
			c1.01-0.64,2.01-1.27,3.02-1.9c0.55,0.56,1.1,1.12,1.65,1.68c0.17,0.17,0.34,0.34,0.5,0.52c0.04,0.04,0.17,0.13,0.19,0.19
			C690.2,197.37,690.05,196.8,689.9,196.24z"/>
		<path class="st0" d="M699.8,205.45c-0.12-0.52-0.24-1.04-0.36-1.56c0.85-0.52,1.69-1.04,2.54-1.55c-0.98-0.16-1.96-0.32-2.95-0.48
			c-0.09-0.53-0.18-1.07-0.27-1.6c-0.1-0.56-0.19-1.11-0.29-1.67c0.01,0.06-0.07,0.18-0.09,0.24c-0.08,0.21-0.17,0.43-0.25,0.64
			c-0.27,0.7-0.55,1.41-0.82,2.11c-1.19-0.2-2.38-0.39-3.57-0.59c0.88,0.83,1.76,1.65,2.63,2.46c-0.49,1.09-0.98,2.18-1.48,3.27
			c1.02-0.64,2.04-1.28,3.07-1.91c0.52,0.54,1.04,1.08,1.56,1.61c0.16,0.16,0.32,0.33,0.48,0.49c0.04,0.04,0.16,0.13,0.18,0.18
			C700.05,206.55,699.92,206,699.8,205.45z"/>
		<path class="st0" d="M693.98,217.68c-0.1-0.52-0.2-1.04-0.3-1.56c0.85-0.55,1.69-1.09,2.54-1.63c-0.96-0.13-1.91-0.27-2.87-0.4
			c-0.07-0.54-0.14-1.07-0.21-1.61c-0.07-0.56-0.15-1.12-0.23-1.68c0.01,0.06-0.08,0.19-0.1,0.24c-0.09,0.22-0.18,0.44-0.27,0.65
			c-0.29,0.72-0.59,1.43-0.88,2.15c-1.16-0.16-2.32-0.33-3.48-0.49c0.84,0.81,1.67,1.61,2.5,2.41c-0.51,1.11-1.03,2.22-1.55,3.33
			c1.02-0.67,2.04-1.34,3.06-2.01c0.49,0.53,0.98,1.05,1.47,1.58c0.15,0.16,0.3,0.32,0.45,0.48c0.04,0.04,0.16,0.12,0.17,0.18
			C694.18,218.78,694.08,218.23,693.98,217.68z"/>
		<path class="st0" d="M702.72,226.24c-0.06-0.5-0.13-1-0.2-1.51c0.86-0.55,1.72-1.09,2.58-1.63c-0.93-0.11-1.86-0.22-2.79-0.33
			c-0.04-0.52-0.07-1.04-0.11-1.56c-0.04-0.54-0.09-1.08-0.13-1.62c0,0.06-0.08,0.18-0.11,0.24c-0.1,0.21-0.2,0.43-0.3,0.64
			c-0.33,0.7-0.65,1.4-0.98,2.11c-1.13-0.14-2.25-0.27-3.38-0.41c0.78,0.77,1.55,1.53,2.31,2.29c-0.56,1.09-1.13,2.17-1.7,3.27
			c1.03-0.68,2.07-1.35,3.1-2.01c0.45,0.5,0.9,1,1.34,1.5c0.14,0.15,0.27,0.31,0.41,0.46c0.03,0.04,0.14,0.12,0.15,0.17
			C702.85,227.3,702.78,226.77,702.72,226.24z"/>
		<path class="st0" d="M666.21,141.14c-0.19-0.57-0.38-1.15-0.57-1.72c0.73-0.43,1.46-0.85,2.18-1.27c-0.95-0.32-1.9-0.63-2.84-0.95
			c-0.15-0.58-0.31-1.17-0.46-1.75c-0.16-0.61-0.32-1.21-0.48-1.82c0.02,0.06-0.04,0.18-0.06,0.24c-0.05,0.21-0.1,0.43-0.15,0.64
			c-0.17,0.71-0.33,1.41-0.51,2.12c-1.14-0.39-2.28-0.78-3.41-1.18c0.91,1.02,1.83,2.03,2.75,3.03c-0.33,1.09-0.66,2.18-1,3.28
			c0.9-0.53,1.8-1.06,2.69-1.58c0.57,0.66,1.15,1.31,1.72,1.96c0.18,0.2,0.35,0.4,0.53,0.6c0.04,0.05,0.18,0.16,0.2,0.22
			C666.61,142.35,666.41,141.75,666.21,141.14z"/>
		<path class="st0" d="M662.3,153.5c-0.18-0.58-0.35-1.16-0.53-1.74c0.77-0.46,1.54-0.93,2.31-1.38c-0.98-0.29-1.95-0.57-2.92-0.86
			c-0.14-0.59-0.28-1.18-0.43-1.77c-0.15-0.61-0.3-1.23-0.44-1.84c0.01,0.06-0.05,0.19-0.07,0.25c-0.06,0.22-0.12,0.44-0.18,0.67
			c-0.2,0.73-0.39,1.46-0.59,2.19c-1.17-0.35-2.34-0.71-3.51-1.06c0.92,1,1.85,1.99,2.78,2.98c-0.37,1.12-0.75,2.25-1.13,3.38
			c0.95-0.58,1.89-1.15,2.83-1.72c0.57,0.65,1.15,1.29,1.72,1.93c0.18,0.2,0.35,0.4,0.53,0.59c0.04,0.05,0.18,0.16,0.2,0.22
			C662.67,154.72,662.49,154.11,662.3,153.5z"/>
		<path class="st0" d="M672.98,164.16c-0.18-0.56-0.36-1.13-0.54-1.69c0.79-0.47,1.57-0.94,2.35-1.41c-1-0.26-1.99-0.52-2.99-0.78
			c-0.15-0.57-0.29-1.15-0.44-1.72c-0.15-0.6-0.31-1.19-0.46-1.79c0.02,0.06-0.05,0.19-0.07,0.24c-0.06,0.22-0.12,0.44-0.18,0.66
			c-0.2,0.72-0.39,1.44-0.59,2.16c-1.2-0.32-2.4-0.63-3.6-0.95c0.95,0.96,1.9,1.9,2.86,2.85c-0.37,1.11-0.75,2.22-1.13,3.33
			c0.96-0.59,1.92-1.17,2.87-1.75c0.58,0.62,1.17,1.24,1.76,1.85c0.18,0.19,0.36,0.38,0.54,0.57c0.05,0.05,0.18,0.15,0.2,0.21
			C673.36,165.35,673.17,164.76,672.98,164.16z"/>
		<path class="st0" d="M668.54,176.66c-0.17-0.57-0.34-1.13-0.51-1.7c0.81-0.51,1.62-1.01,2.42-1.51c-1-0.23-2.01-0.46-3.01-0.69
			c-0.13-0.58-0.27-1.16-0.4-1.74c-0.14-0.6-0.28-1.2-0.42-1.81c0.01,0.06-0.06,0.19-0.07,0.25c-0.07,0.22-0.13,0.45-0.2,0.67
			c-0.22,0.74-0.44,1.47-0.66,2.21c-1.21-0.28-2.42-0.57-3.63-0.85c0.94,0.94,1.89,1.87,2.83,2.8c-0.41,1.14-0.81,2.28-1.23,3.42
			c0.98-0.63,1.97-1.25,2.95-1.86c0.58,0.61,1.15,1.22,1.73,1.83c0.18,0.19,0.35,0.37,0.53,0.56c0.04,0.05,0.18,0.15,0.2,0.21
			C668.9,177.86,668.72,177.26,668.54,176.66z"/>
		<path class="st0" d="M679.1,186.72c-0.16-0.55-0.32-1.1-0.48-1.65c0.82-0.51,1.64-1.02,2.46-1.53c-1-0.21-2.01-0.41-3.01-0.62
			c-0.13-0.56-0.25-1.13-0.38-1.69c-0.13-0.59-0.27-1.17-0.4-1.76c0.01,0.06-0.06,0.19-0.08,0.25c-0.07,0.22-0.14,0.44-0.21,0.66
			c-0.23,0.73-0.46,1.45-0.69,2.18c-1.21-0.25-2.43-0.51-3.64-0.76c0.94,0.9,1.88,1.8,2.82,2.69c-0.42,1.12-0.85,2.25-1.28,3.37
			c0.99-0.63,1.99-1.26,2.98-1.88c0.57,0.59,1.14,1.17,1.7,1.76c0.17,0.18,0.35,0.36,0.52,0.54c0.04,0.05,0.18,0.14,0.19,0.2
			C679.44,187.88,679.27,187.3,679.1,186.72z"/>
		<path class="st0" d="M674.13,199.36c-0.15-0.55-0.29-1.11-0.44-1.66c0.83-0.54,1.66-1.08,2.48-1.62
			c-0.99-0.18-1.99-0.36-2.99-0.54c-0.11-0.57-0.23-1.13-0.34-1.7c-0.12-0.59-0.24-1.18-0.36-1.77c0.01,0.06-0.06,0.19-0.08,0.25
			c-0.07,0.23-0.15,0.45-0.22,0.68c-0.25,0.74-0.49,1.48-0.74,2.23c-1.2-0.22-2.41-0.44-3.62-0.67c0.92,0.88,1.84,1.76,2.75,2.64
			c-0.44,1.15-0.89,2.3-1.33,3.45c1-0.67,2-1.33,3-1.99c0.55,0.58,1.1,1.15,1.65,1.73c0.17,0.18,0.34,0.35,0.51,0.53
			c0.04,0.04,0.17,0.13,0.19,0.2C674.43,200.52,674.28,199.94,674.13,199.36z"/>
		<path class="st0" d="M684.09,208.8c-0.12-0.54-0.25-1.07-0.38-1.61c0.84-0.55,1.67-1.09,2.51-1.63c-0.98-0.16-1.96-0.31-2.94-0.47
			c-0.09-0.55-0.19-1.1-0.29-1.66c-0.1-0.57-0.2-1.15-0.31-1.73c0.01,0.06-0.07,0.19-0.09,0.25c-0.08,0.22-0.16,0.44-0.24,0.67
			c-0.26,0.73-0.53,1.46-0.8,2.19c-1.19-0.19-2.37-0.38-3.56-0.58c0.89,0.85,1.77,1.69,2.65,2.52c-0.47,1.13-0.95,2.26-1.42,3.4
			c1.01-0.67,2.01-1.34,3.02-2c0.53,0.55,1.05,1.1,1.57,1.65c0.16,0.17,0.32,0.34,0.48,0.51c0.04,0.04,0.16,0.13,0.18,0.19
			C684.35,209.93,684.22,209.37,684.09,208.8z"/>
		<path class="st0" d="M678.54,221.5c-0.11-0.54-0.22-1.07-0.33-1.61c0.83-0.57,1.66-1.14,2.49-1.71c-0.95-0.13-1.91-0.26-2.86-0.39
			c-0.08-0.55-0.16-1.11-0.24-1.66c-0.09-0.58-0.17-1.15-0.26-1.73c0.01,0.06-0.07,0.19-0.09,0.25c-0.08,0.23-0.17,0.45-0.25,0.68
			c-0.28,0.74-0.55,1.49-0.83,2.23c-1.16-0.16-2.31-0.32-3.47-0.48c0.85,0.83,1.7,1.65,2.54,2.47c-0.48,1.15-0.97,2.31-1.45,3.46
			c0.99-0.71,1.98-1.41,2.98-2.11c0.5,0.54,1,1.08,1.5,1.62c0.15,0.17,0.31,0.33,0.46,0.5c0.04,0.04,0.16,0.12,0.17,0.18
			C678.77,222.64,678.66,222.07,678.54,221.5z"/>
		<path class="st0" d="M687.46,230.28c-0.08-0.52-0.16-1.04-0.24-1.56c0.84-0.57,1.67-1.15,2.51-1.72c-0.92-0.1-1.85-0.21-2.77-0.32
			c-0.05-0.54-0.1-1.07-0.16-1.61c-0.06-0.56-0.11-1.12-0.17-1.68c0.01,0.06-0.08,0.19-0.1,0.25c-0.09,0.22-0.18,0.44-0.28,0.67
			c-0.3,0.73-0.61,1.46-0.91,2.19c-1.12-0.13-2.24-0.26-3.37-0.39c0.8,0.79,1.58,1.57,2.36,2.34c-0.53,1.13-1.05,2.26-1.58,3.4
			c1-0.71,2-1.41,3.01-2.11c0.46,0.52,0.92,1.03,1.37,1.54c0.14,0.16,0.28,0.31,0.42,0.47c0.04,0.04,0.15,0.12,0.15,0.17
			C687.62,231.37,687.54,230.83,687.46,230.28z"/>
		<path class="st0" d="M651.48,142.35c-0.16-0.6-0.32-1.2-0.49-1.8c0.76-0.46,1.51-0.91,2.27-1.36c-0.94-0.32-1.88-0.64-2.82-0.96
			c-0.13-0.61-0.25-1.22-0.37-1.83c-0.13-0.63-0.26-1.27-0.39-1.9c0.01,0.07-0.05,0.19-0.07,0.25c-0.06,0.23-0.13,0.45-0.19,0.68
			c-0.21,0.74-0.42,1.48-0.63,2.23c-1.13-0.39-2.26-0.79-3.38-1.19c0.87,1.05,1.74,2.1,2.62,3.13c-0.39,1.14-0.78,2.29-1.17,3.44
			c0.93-0.57,1.86-1.13,2.79-1.69c0.54,0.68,1.09,1.35,1.64,2.03c0.17,0.21,0.34,0.41,0.51,0.62c0.04,0.05,0.17,0.16,0.19,0.23
			C651.82,143.61,651.65,142.98,651.48,142.35z"/>
		<path class="st0" d="M657.46,166.26c-0.17-0.58-0.34-1.17-0.5-1.75c0.8-0.5,1.6-1,2.4-1.49c-0.99-0.26-1.99-0.52-2.98-0.78
			c-0.13-0.59-0.26-1.19-0.4-1.79c-0.14-0.62-0.27-1.24-0.41-1.86c0.01,0.06-0.06,0.2-0.07,0.25c-0.07,0.23-0.13,0.46-0.2,0.68
			c-0.22,0.75-0.44,1.5-0.66,2.25c-1.2-0.32-2.39-0.63-3.59-0.96c0.93,0.98,1.86,1.96,2.79,2.93c-0.4,1.15-0.81,2.31-1.22,3.47
			c0.98-0.62,1.95-1.23,2.92-1.84c0.57,0.64,1.14,1.27,1.72,1.91c0.18,0.2,0.35,0.39,0.53,0.58c0.04,0.05,0.18,0.15,0.2,0.22
			C657.82,167.49,657.64,166.88,657.46,166.26z"/>
		<path class="st0" d="M663.32,189.6c-0.16-0.57-0.32-1.14-0.48-1.71c0.82-0.54,1.64-1.07,2.46-1.6c-1-0.2-2.01-0.41-3.01-0.61
			c-0.12-0.58-0.25-1.17-0.37-1.75c-0.13-0.61-0.26-1.21-0.39-1.82c0.01,0.06-0.06,0.2-0.08,0.25c-0.07,0.23-0.14,0.46-0.21,0.69
			c-0.23,0.75-0.47,1.51-0.71,2.26c-1.21-0.25-2.43-0.5-3.64-0.76c0.94,0.92,1.87,1.84,2.81,2.76c-0.42,1.16-0.85,2.33-1.28,3.5
			c0.99-0.66,1.99-1.32,2.98-1.98c0.57,0.6,1.14,1.2,1.7,1.8c0.17,0.18,0.35,0.37,0.52,0.55c0.04,0.05,0.18,0.14,0.19,0.2
			C663.65,190.8,663.49,190.2,663.32,189.6z"/>
		<path class="st0" d="M668.5,212.41c-0.13-0.55-0.27-1.11-0.41-1.67c0.82-0.57,1.64-1.14,2.47-1.71c-0.98-0.15-1.95-0.31-2.93-0.46
			c-0.1-0.57-0.21-1.14-0.31-1.71c-0.11-0.59-0.22-1.19-0.33-1.78c0.01,0.06-0.07,0.2-0.09,0.26c-0.08,0.23-0.15,0.46-0.23,0.69
			c-0.25,0.76-0.51,1.52-0.76,2.27c-1.18-0.19-2.37-0.38-3.56-0.57c0.9,0.87,1.79,1.73,2.68,2.59c-0.45,1.17-0.9,2.35-1.35,3.53
			c0.99-0.71,1.97-1.41,2.97-2.1c0.54,0.57,1.07,1.13,1.6,1.7c0.16,0.17,0.33,0.35,0.49,0.52c0.04,0.04,0.17,0.13,0.18,0.19
			C668.79,213.58,668.65,212.99,668.5,212.41z"/>
		<path class="st0" d="M672.49,234.61c-0.1-0.54-0.2-1.07-0.3-1.61c0.8-0.6,1.61-1.2,2.42-1.8c-0.92-0.1-1.84-0.2-2.76-0.3
			c-0.07-0.55-0.14-1.11-0.21-1.67c-0.07-0.58-0.15-1.16-0.23-1.74c0.01,0.06-0.07,0.2-0.09,0.26c-0.08,0.23-0.17,0.46-0.25,0.69
			c-0.28,0.76-0.55,1.52-0.83,2.28c-1.11-0.12-2.23-0.25-3.35-0.37c0.82,0.81,1.63,1.61,2.43,2.4c-0.48,1.18-0.95,2.35-1.43,3.54
			c0.96-0.75,1.92-1.49,2.89-2.22c0.48,0.53,0.95,1.06,1.42,1.58c0.15,0.16,0.29,0.32,0.43,0.48c0.04,0.04,0.15,0.12,0.16,0.18
			C672.7,235.74,672.6,235.18,672.49,234.61z"/>
		<path class="st0" d="M727.04,229.69c-0.01-0.47-0.02-0.93-0.04-1.4c0.9-0.52,1.8-1.04,2.7-1.55c-0.9-0.09-1.8-0.19-2.71-0.28
			c0.01-0.48,0.03-0.97,0.03-1.45c0.01-0.5,0.02-1.01,0.02-1.51c0,0.05-0.1,0.17-0.13,0.22c-0.12,0.2-0.23,0.4-0.35,0.6
			c-0.38,0.66-0.77,1.32-1.16,1.98c-1.09-0.11-2.19-0.23-3.29-0.35c0.7,0.71,1.38,1.41,2.05,2.11c-0.66,1.02-1.33,2.04-2,3.06
			c1.08-0.64,2.16-1.28,3.25-1.91c0.39,0.46,0.78,0.92,1.16,1.38c0.12,0.14,0.24,0.28,0.35,0.42c0.03,0.04,0.13,0.11,0.13,0.16
			C727.05,230.67,727.05,230.18,727.04,229.69z"/>
		<path class="st0" d="M733.89,237.11c0.04-0.45,0.07-0.89,0.1-1.34c0.92-0.52,1.84-1.03,2.76-1.54c-0.86-0.07-1.73-0.14-2.6-0.21
			c0.06-0.46,0.11-0.93,0.17-1.39c0.05-0.48,0.11-0.97,0.15-1.45c-0.01,0.05-0.11,0.17-0.15,0.22c-0.13,0.2-0.26,0.39-0.39,0.59
			c-0.43,0.64-0.87,1.28-1.31,1.92c-1.05-0.09-2.1-0.18-3.16-0.26c0.61,0.67,1.21,1.33,1.8,1.98c-0.73,0.99-1.47,1.98-2.22,2.97
			c1.1-0.64,2.21-1.27,3.32-1.9c0.33,0.43,0.66,0.87,0.99,1.3c0.1,0.13,0.2,0.26,0.3,0.4c0.02,0.03,0.11,0.1,0.11,0.15
			C733.82,238.05,733.86,237.58,733.89,237.11z"/>
		<path class="st0" d="M711.66,233.62c-0.02-0.48-0.05-0.97-0.08-1.45c0.88-0.55,1.75-1.09,2.63-1.63c-0.9-0.09-1.79-0.18-2.69-0.26
			c0-0.5,0-1,0-1.5c0-0.52-0.01-1.04-0.02-1.57c0,0.05-0.1,0.18-0.12,0.23c-0.11,0.21-0.22,0.42-0.33,0.63
			c-0.36,0.68-0.73,1.37-1.1,2.05c-1.09-0.11-2.18-0.22-3.27-0.33c0.71,0.73,1.41,1.45,2.1,2.16c-0.63,1.06-1.26,2.12-1.89,3.18
			c1.05-0.67,2.1-1.34,3.16-2c0.4,0.47,0.8,0.95,1.19,1.42c0.12,0.14,0.24,0.29,0.36,0.43c0.03,0.04,0.13,0.11,0.13,0.16
			C711.71,234.63,711.69,234.12,711.66,233.62z"/>
		<path class="st0" d="M718.69,241.22c0.02-0.46,0.04-0.92,0.05-1.39c0.89-0.54,1.79-1.08,2.69-1.62c-0.86-0.06-1.72-0.13-2.58-0.19
			c0.04-0.48,0.09-0.96,0.12-1.44c0.04-0.5,0.08-1,0.11-1.5c0,0.05-0.11,0.17-0.14,0.23c-0.12,0.2-0.25,0.41-0.37,0.61
			c-0.41,0.67-0.82,1.33-1.24,2c-1.04-0.08-2.09-0.16-3.13-0.24c0.63,0.68,1.24,1.36,1.85,2.03c-0.69,1.03-1.39,2.06-2.09,3.09
			c1.07-0.67,2.14-1.33,3.22-1.99c0.35,0.45,0.69,0.89,1.02,1.33c0.1,0.14,0.21,0.27,0.31,0.41c0.03,0.03,0.12,0.1,0.11,0.15
			C718.64,242.19,718.67,241.7,718.69,241.22z"/>
		<path class="st0" d="M696.57,237.82c-0.04-0.5-0.09-1-0.13-1.5c0.85-0.57,1.7-1.14,2.55-1.71c-0.89-0.08-1.78-0.16-2.67-0.25
			c-0.02-0.52-0.03-1.03-0.05-1.55c-0.02-0.54-0.04-1.08-0.07-1.62c0,0.06-0.09,0.19-0.11,0.24c-0.1,0.22-0.21,0.43-0.31,0.65
			c-0.34,0.71-0.68,1.42-1.02,2.13c-1.08-0.1-2.16-0.21-3.25-0.31c0.73,0.74,1.44,1.48,2.15,2.21c-0.58,1.1-1.16,2.21-1.75,3.31
			c1.01-0.71,2.03-1.41,3.05-2.1c0.41,0.49,0.82,0.97,1.23,1.45c0.12,0.15,0.25,0.3,0.37,0.44c0.03,0.04,0.13,0.11,0.14,0.16
			C696.66,238.87,696.62,238.35,696.57,237.82z"/>
		<path class="st0" d="M703.81,245.62c0-0.48,0-0.96,0-1.44c0.86-0.57,1.72-1.14,2.59-1.7c-0.85-0.06-1.7-0.12-2.55-0.17
			c0.03-0.5,0.05-0.99,0.07-1.49c0.02-0.52,0.04-1.04,0.06-1.56c0,0.05-0.1,0.18-0.13,0.23c-0.12,0.21-0.23,0.42-0.35,0.63
			c-0.38,0.69-0.76,1.38-1.15,2.08c-1.03-0.07-2.07-0.15-3.11-0.22c0.65,0.7,1.28,1.39,1.9,2.08c-0.64,1.07-1.29,2.15-1.94,3.23
			c1.03-0.7,2.06-1.4,3.09-2.1c0.36,0.46,0.71,0.91,1.06,1.36c0.11,0.14,0.21,0.28,0.32,0.42c0.03,0.04,0.12,0.1,0.12,0.15
			C703.8,246.62,703.8,246.12,703.81,245.62z"/>
		<path class="st0" d="M681.82,242.33c-0.06-0.52-0.13-1.03-0.19-1.55c0.81-0.6,1.63-1.2,2.45-1.8c-0.88-0.08-1.77-0.15-2.65-0.23
			c-0.04-0.54-0.07-1.07-0.11-1.61c-0.04-0.56-0.09-1.12-0.13-1.68c0,0.06-0.08,0.19-0.1,0.25c-0.09,0.23-0.19,0.45-0.28,0.68
			c-0.31,0.74-0.62,1.48-0.93,2.22c-1.07-0.09-2.15-0.19-3.22-0.29c0.75,0.76,1.49,1.52,2.22,2.27c-0.53,1.15-1.05,2.3-1.58,3.45
			c0.97-0.74,1.94-1.48,2.92-2.21c0.43,0.5,0.86,1,1.28,1.49c0.13,0.15,0.26,0.3,0.39,0.46c0.03,0.04,0.14,0.11,0.14,0.17
			C681.95,243.42,681.88,242.88,681.82,242.33z"/>
		<path class="st0" d="M689.32,250.33c-0.02-0.49-0.05-0.99-0.07-1.49c0.82-0.6,1.65-1.2,2.48-1.79c-0.84-0.05-1.68-0.1-2.53-0.15
			c0-0.51,0-1.03,0-1.55c0-0.54-0.01-1.07-0.01-1.61c0,0.06-0.09,0.19-0.12,0.24c-0.11,0.22-0.21,0.44-0.32,0.66
			c-0.35,0.72-0.69,1.44-1.04,2.17c-1.02-0.06-2.05-0.13-3.08-0.19c0.67,0.72,1.33,1.43,1.98,2.13c-0.58,1.12-1.17,2.24-1.75,3.37
			c0.98-0.74,1.96-1.48,2.95-2.21c0.38,0.47,0.75,0.94,1.12,1.4c0.11,0.14,0.23,0.29,0.34,0.43c0.03,0.04,0.12,0.1,0.12,0.16
			C689.36,251.38,689.34,250.86,689.32,250.33z"/>
		<path class="st0" d="M675.29,255.4c-0.05-0.51-0.1-1.03-0.16-1.54c0.78-0.63,1.56-1.26,2.34-1.89c-0.83-0.04-1.67-0.09-2.5-0.13
			c-0.03-0.53-0.05-1.07-0.08-1.61c-0.03-0.56-0.06-1.12-0.1-1.67c0,0.06-0.08,0.2-0.1,0.25c-0.09,0.23-0.19,0.46-0.28,0.69
			c-0.3,0.75-0.61,1.51-0.91,2.26c-1.01-0.05-2.03-0.11-3.04-0.17c0.7,0.74,1.39,1.47,2.06,2.19c-0.51,1.17-1.02,2.34-1.53,3.52
			c0.91-0.78,1.84-1.56,2.77-2.33c0.4,0.48,0.79,0.97,1.18,1.44c0.12,0.15,0.24,0.29,0.36,0.44c0.03,0.04,0.13,0.11,0.13,0.16
			C675.4,256.48,675.35,255.94,675.29,255.4z"/>
	</g>
	<g>
		
			<linearGradient id="SVGID_1_" gradientUnits="userSpaceOnUse" x1="414.5842" y1="585.7222" x2="400.4985" y2="663.608" gradientTransform="matrix(1 0 0 -1 0 799.8898)">
			<stop  offset="0" style="stop-color:#000000"/>
			<stop  offset="1" style="stop-color:#E0D7D7;stop-opacity:0"/>
		</linearGradient>
		<path class="st4" d="M534.46,143.75c-1.77-0.17-4.04,0.36-5.3,0.89c-0.95,0.4-1.85,0.92-2.83,1.24c-2.28,0.72-4.65,0.23-6.98,0.23
			c-2.23,0-4.38,0.62-6.55,1.04c-11.41,2.22-22.94,3.79-34.43,5.56c-4.54,0.7-8.92,1.19-13.21,2.85c-4.38,1.7-8.95,2.87-13.57,3.72
			c-9.35,1.72-18.87,2.13-28.32,3.08c-8.71,0.88-17.37,2.22-26.02,3.57c-10.77,1.67-21.53,3.35-32.3,5.02
			c-21.35,3.32-42.69,6.64-63.99,10.24c-8.46,1.43-16.93,2.91-25.45,3.93c-0.04,1.57-0.09,3.13-0.13,4.7
			c30.49-4.49,60.96-9.12,91.4-13.9c15.22-2.39,30.44-4.82,45.65-7.28c7.61-1.23,15.21-2.47,22.81-3.72
			c7.54-1.24,15.2-3.07,22.8-3.78c1.57-0.15,2.84,0.31,4.42,0.24c1.66-0.07,3.31-0.83,4.95-0.83c2.86-0.43,5.72-0.86,8.58-1.29
			c5.94-0.9,11.88-1.8,17.82-2.7c11.54-1.75,23.09-3.41,34.6-5.36c2.58-0.44,6.86-0.48,8.1-3.31
			C537.78,145,536.42,143.94,534.46,143.75z"/>
		
			<linearGradient id="SVGID_00000039103847550670994860000011261849754101644432_" gradientUnits="userSpaceOnUse" x1="212.1416" y1="578.4193" x2="209.7258" y2="614.6558" gradientTransform="matrix(1 0 0 -1 0 799.8898)">
			<stop  offset="0" style="stop-color:#000000"/>
			<stop  offset="1" style="stop-color:#E0D7D7;stop-opacity:0"/>
		</linearGradient>
		<path style="fill:url(#SVGID_00000039103847550670994860000011261849754101644432_);" d="M229.33,192
			c-1.09-0.12-2.17,0.11-3.24,0.35c-11.71,2.55-23.48,4.85-35.28,6.91c-3.59,0.63-7.75,1.07-10.42-1.4c-0.96,1.58,0,3.77,1.57,4.73
			c1.57,0.96,3.53,1,5.37,0.9c2.93-0.16,5.83-0.61,8.72-1.06c14.4-2.22,28.79-4.44,43.19-6.67c0.9-0.14,2.09-0.79,1.68-1.6
			c-1.85,0.15-4.93,1.02-6.69,0.45C232.43,194.04,231.46,192.22,229.33,192z"/>
		
			<linearGradient id="SVGID_00000183942517404342587250000016350165174258287033_" gradientUnits="userSpaceOnUse" x1="719.3264" y1="671.7418" x2="718.8955" y2="687.1028" gradientTransform="matrix(1 0 0 -1 0 799.8898)">
			<stop  offset="0" style="stop-color:#000000"/>
			<stop  offset="1" style="stop-color:#E0D7D7;stop-opacity:0"/>
		</linearGradient>
		<path style="fill:url(#SVGID_00000183942517404342587250000016350165174258287033_);" d="M722.02,115.06
			c0.99,1.55,1.16,3.59,0.45,5.28c-0.09,0.22-0.2,0.44-0.38,0.59c-0.25,0.22-0.6,0.29-0.92,0.35c-0.35,0.07-5.86,1.01-5.86,0.9
			c0.03-1.57-0.01-3.14-0.14-4.71c-0.01-0.15-0.02-0.3,0.04-0.44c0.07-0.17,0.24-0.28,0.4-0.37
			C716.21,116.33,721.59,114.4,722.02,115.06z"/>
		
			<linearGradient id="SVGID_00000013896716739333787850000009982406728470358184_" gradientUnits="userSpaceOnUse" x1="615.731" y1="717.7289" x2="627.3611" y2="643.5868" gradientTransform="matrix(1 0 0 -1 0 799.8898)">
			<stop  offset="0" style="stop-color:#000000"/>
			<stop  offset="1" style="stop-color:#FFFFFF;stop-opacity:0"/>
		</linearGradient>
		<path style="fill:url(#SVGID_00000013896716739333787850000009982406728470358184_);" d="M534.96,150.22
			c-0.37,0.2-0.78,0.34-1.21,0.38c-0.66,0.06-1.63,0.18-1.56,0.84c0.02,0.22,0.17,0.39,0.33,0.55c1.54,1.51,3.94,1.68,6.09,1.5
			c5.85-0.48,11.39-2.76,17.13-3.99c2.24-0.48,4.51-0.8,6.78-1.16c6.78-1.1,13.5-2.63,20.03-4.76c1.38-0.45,2.76-0.93,4.2-1.14
			c0.65-0.1,1.27-0.06,1.91-0.07c0.74-0.02,1.45-0.29,2.18-0.39c1.13-0.17,2.26-0.33,3.39-0.49c2.32-0.33,4.64-0.66,6.96-0.99
			c2.95-0.41,5.89-0.93,8.83-1.47c1.47-0.27,2.94-0.56,4.41-0.82c1.19-0.22,2.57-0.71,3.79-0.59c0.67,0.07,1.31,0.34,1.99,0.37
			c1.18,0.06,2.53-0.41,3.71-0.56c2.82-0.37,5.64-0.75,8.46-1.12c5.52-0.73,11.05-1.47,16.57-2.24c3.66-0.5,7.29-0.95,10.91-1.64
			c1.9-0.36,3.8-0.72,5.7-1.08c0.95-0.18,1.9-0.36,2.85-0.54c0.82-0.16,1.78-0.49,2.62-0.49c4.54-0.86,9.08-1.71,13.65-2.35
			c3.4-0.47,6.82-0.82,10.22-1.32c1.72-0.25,3.43-0.54,5.12-0.9c1.48-0.32,2.85-0.2,4.37-0.24c2.17-0.07,4.25-0.78,6.39-1.12
			c1.04-0.17,2.09-0.24,3.13-0.44c0.47-0.09,0.97-0.23,1.26-0.62c0.23-0.3,0.27-0.7,0.31-1.08c0.11-1.15,0.22-2.3,0.23-3.45
			c0.01-0.89-0.04-1.79-0.29-2.65c-0.09-0.29-0.27-0.63-0.57-0.64c-0.41-0.01-0.54,0.53-0.73,0.9c-0.32,0.64-1.1,0.79-1.73,0.99
			c-0.8,0.26-1.61,0.51-2.42,0.74c-7.06,2-14.38,2.84-21.66,3.67c-5.12,0.59-10.25,1.17-15.37,1.76c-3.27,0.37-6.54,0.75-9.81,1.12
			c-7.58,0.87-15.16,1.73-22.7,2.88c-10.31,1.58-20.53,3.68-30.71,5.96c-2.91,0.65-5.84,1.32-8.83,1.41
			c-2.03,0.06-4.06-0.14-6.09-0.18c-13.96-0.32-27.05,6.65-40.91,8.38c-3.06,0.38-6.14,0.5-9.21,0.48
			c-2.95-0.02-6.18-0.64-9.08-0.31c-0.09,1.99,1.7,3.66,0.69,5.64C535.97,149.46,535.51,149.92,534.96,150.22z"/>
		
			<linearGradient id="SVGID_00000057832555232113778650000017921553475254472081_" gradientUnits="userSpaceOnUse" x1="618.1445" y1="584.7778" x2="516.7533" y2="652.7695" gradientTransform="matrix(1 0 0 -1 0 799.8898)">
			<stop  offset="0" style="stop-color:#000000"/>
			<stop  offset="1" style="stop-color:#FF1F1F;stop-opacity:0"/>
		</linearGradient>
		<path style="fill:url(#SVGID_00000057832555232113778650000017921553475254472081_);" d="M538.36,158.71
			c6.75,16.69,13.51,33.37,20.26,50.06c-0.84-6.58,0.4-13.41,3.5-19.27c0.53-1,1.12-2.01,1.2-3.14c0.06-0.9-0.22-1.79-0.49-2.65
			c-1.47-4.57-2.99-9.13-4.55-13.67c-0.6-1.74-1.22-3.52-2.32-5c-0.77-1.04-1.76-1.91-2.5-2.97c-1.25-1.79-1.97-4.37-2.3-6.51
			c-0.03-0.2-0.06-0.42,0.03-0.6c0.13-0.27,0.45-0.39,0.74-0.47c1.81-0.54,3.61-1.08,5.42-1.62c1.18-0.35,2.4-0.73,3.34-1.52
			c0.63-0.53,1.1-1.23,1.63-1.86c1-1.2,2.22-2.22,3.59-2.98c-1.18-0.15-2.37,0.1-3.53,0.34c-2.99,0.64-5.98,1.28-8.97,1.92
			c-1.29,0.28-2.59,0.55-3.91,0.67c-1.95,0.17-3.92-0.01-5.85,0.28c-1.41,0.21-2.49,0.95-3.95,0.98c-0.89,0.02-1.8-0.15-2.69-0.14
			c-1.16,0.02-2.2,0.5-3.39,0.32c-0.32-0.05-0.66-0.13-0.97-0.05c-0.32,0.08-0.61,0.4-0.51,0.71c0.04,0.13,0.13,0.23,0.22,0.33
			c0.3,0.33,0.6,0.65,0.9,0.98c0.32,0.35,0.66,0.71,1.11,0.87c0.47,0.17,0.97,0.15,1.4,0.43c0.42,0.28,0.82,0.78,1.07,1.22
			C537.44,156.43,537.91,157.57,538.36,158.71z"/>
		
			<linearGradient id="SVGID_00000142872836877088570450000007153058051377644940_" gradientUnits="userSpaceOnUse" x1="640.4333" y1="358.5439" x2="592.7535" y2="474.5217" gradientTransform="matrix(1 0 0 -1 0 799.8898)">
			<stop  offset="0" style="stop-color:#000000"/>
			<stop  offset="1" style="stop-color:#FF1F1F;stop-opacity:0"/>
		</linearGradient>
		<path style="fill:url(#SVGID_00000142872836877088570450000007153058051377644940_);" d="M555.88,325.79
			c-1.83,11.16-4.47,22.28-4.34,33.58c0.05,4.05,0.5,8.1,1.43,12.04c0.81,3.43,2.41,6.55,3.15,9.94c1.57,7.24,5.65,13.66,7.11,20.93
			c0.81,4.05,1.56,7.64,2.17,11.68c2.27-3.47,3.5-7.52,5.64-11.07c1.36-2.26,3.08-4.3,4.41-6.58c2.8-4.8,2.63-11.6-0.5-16.3
			c-0.86-1.29-2.08-2.58-1.89-4.11c0.09-0.68,0.45-1.28,0.87-1.82c1.7-2.14,4.32-3.29,6.63-4.75c2.32-1.46,4.11-3.38,4.68-6.11
			c4.12,0.86,6.09,10.59,8.02,13.81c0.38,0.64,0.88,1.31,1.61,1.44c0.79-2.11,0.8-4.42,1.03-6.66c0.23-2.24,0.77-4.6,2.36-6.2
			c1.94-1.95,5.57-2.71,6.85-5.35c1.24-2.55-0.57-5.95-0.87-8.63c-0.32-2.79,0.24-5.96,2.47-7.66c2.52-1.93,6.09-1.28,9.19-0.61
			c7.53,1.63,14.24-2.96,21.38-4.84c3.86-1.02,7.76-1.85,11.58-3c1.89-0.57,3.76-1.21,5.57-1.99c0.57-0.25,4.16-2.48,4.5-2.32
			c-7.49-3.75-16.53-8.29-24.9-8.98c-0.64-0.05-1.29-0.11-1.93-0.03c-1.72,0.2-3.18,1.28-4.62,2.23c-0.78,0.52-1.77,1.03-2.61,0.6
			c-0.41-0.21-0.69-0.62-0.94-1.01c-1.26-1.99-2.02-4.13-3.58-5.81c-1.24-1.34-2.3-2.65-3.5-4.11c-2.7-3.3-8.91-2.95-10.33-6.97
			c-0.5-1.42-0.19-2.99-0.14-4.5c0.19-6.19-4.11-11.5-8.17-16.18c-0.8-0.92-1.63-1.87-2.7-2.46c-1.74-0.96-3.86-0.86-5.76-1.41
			c-3.23-0.93-5.58-3.61-7.99-5.96c-4.52-4.4-9.83-7.98-15.6-10.52c-0.99-0.43-2.16-0.83-3.09-0.28c-0.92,0.55-1.14,1.75-1.26,2.81
			c-1.08,9-2.12,17.89-2.55,26.91c-0.24,5.11-0.81,10.25-1.37,15.34C557.38,315.6,557.38,321.29,555.88,325.79z"/>
		
			<linearGradient id="SVGID_00000098181398713789823230000017762275931007074700_" gradientUnits="userSpaceOnUse" x1="692.8491" y1="557.8221" x2="722.6909" y2="500.6048" gradientTransform="matrix(1 0 0 -1 0 799.8898)">
			<stop  offset="0" style="stop-color:#000000"/>
			<stop  offset="1" style="stop-color:#FF1F1F;stop-opacity:0"/>
		</linearGradient>
		<path style="fill:url(#SVGID_00000098181398713789823230000017762275931007074700_);" d="M732.19,271.75
			c-2.88,0.68-5.91,0.93-8.61,2.16c-2.45,1.11-4.47,2.96-6.58,4.63c-10.85,8.62-24.47,13.07-35.7,21.19
			c2.05,0.52,4.09,1.03,6.14,1.55c1.41,0.36,2.87,0.71,4.3,0.45c3.64-0.66,5.87-5.04,9.57-5.3c0.22,1.39,0.11,2.84-0.31,4.19
			c0.59,0.12,1.07,0.52,1.58,0.84c5.04,3.18,11.83-1.2,17.53,0.52c-0.14,0.42-0.27,0.83-0.41,1.25c1.69-0.84,2.86-2.78,4.74-2.98
			c2.55-0.26,4.13,2.9,3.92,5.45c-0.21,2.55-1.42,5.02-1.13,7.56c0.27,2.39,1.81,4.42,3.29,6.31c1.52,1.95,3.05,3.9,4.57,5.85
			c6.15-8.36,6.41-19.49,7.04-29.85c0.51-8.43,1.43-16.87,3.38-25.11c0.25-1.05,1.81-4.56,0.89-5.44c-1.16-1.11-2.72,1.12-3.74,1.87
			C739.55,269.19,735.96,270.86,732.19,271.75z"/>
		
			<linearGradient id="SVGID_00000077295888379377596140000014622820203780117134_" gradientUnits="userSpaceOnUse" x1="693.5383" y1="479.5023" x2="699.9201" y2="424.2859" gradientTransform="matrix(1 0 0 -1 0 799.8898)">
			<stop  offset="0" style="stop-color:#000000"/>
			<stop  offset="1" style="stop-color:#FF1F1F;stop-opacity:0"/>
		</linearGradient>
		<path style="fill:url(#SVGID_00000077295888379377596140000014622820203780117134_);" d="M709.84,357.78
			c-3.24,1.28-6.6,2.37-10.07,2.69c-2.53,0.24-5.08,0.07-7.62-0.01c-11.66-0.36-23.37,1.13-34.56,4.41c2.54-0.76,4.19,2.71,6.61,3.8
			c2.54,1.15,5.37-0.53,8.08-1.2c2.86-0.7,6-0.2,8.5,1.36c0.02-1.16,1.6-1.49,2.76-1.42c3.91,0.23,7.79,0.93,11.54,2.06
			c1.22,0.37,2.5,0.79,3.75,0.56c0.85-0.15,1.61-0.59,2.36-1.01c8.29-4.67,17.11-8.38,26.23-11.06c2.19,2.68,4.81,5.02,7.71,6.9
			c-1.68-1.68,0.79-8.8,1.12-10.76c0.39-2.35,0.62-4.65,0.68-7.03c0.03-1.11-0.4-6.46-0.01-6.85c-4.05,4.05-9.72,8.31-14.6,11.32
			C718.35,353.97,714.17,356.06,709.84,357.78z"/>
		
			<linearGradient id="SVGID_00000163795282400026661440000011645185498405370556_" gradientUnits="userSpaceOnUse" x1="663.4019" y1="569.6949" x2="638.8333" y2="669.1979" gradientTransform="matrix(1 0 0 -1 0 799.8898)">
			<stop  offset="0" style="stop-color:#000000"/>
			<stop  offset="1" style="stop-color:#FF1F1F;stop-opacity:0"/>
		</linearGradient>
		<path style="fill:url(#SVGID_00000163795282400026661440000011645185498405370556_);" d="M582.29,178.56
			c0.54-3.67,1.63-8.01,5.14-9.19c0.85-0.29,1.78-0.35,2.59-0.72c0.86-0.4,1.53-1.12,2.17-1.82c1.29-1.4,2.57-2.8,3.86-4.2
			c0.37-0.4,0.75-0.83,0.84-1.37c0.12-0.72-0.32-1.39-0.6-2.06c-0.81-1.99-0.18-4.34,1.09-6.08c1.26-1.74,3.07-3,4.83-4.23
			c1.69,4.28,4,8.32,6.82,11.96c0.32,0.42,0.68,0.85,1.17,1.03c1.24,0.47,2.41-0.79,3.13-1.9c1.94-3.03,4.31-6.58,7.91-6.65
			c1.69-0.04,4.01,0.4,4.53-1.21c0.21-0.67-0.07-1.41,0.06-2.1c0.21-1.09,1.42-1.73,2.53-1.79c1.11-0.05,2.2,0.31,3.3,0.46
			c3.48,0.47,6.83-1.21,10-2.71c13.24-6.26,27.49-10.07,41.76-13.38c2.55-0.59,5.12-1.17,7.73-1.16c1.37,0,2.76,0.16,4.09-0.17
			c1.17-0.29,2.22-0.95,3.32-1.43c5.02-2.19,9.93-0.2,15.02,0.29c1.69,0.16,3.46,0.46,4.82,1.47c-0.18-1.65-0.62-3.27-1.27-4.79
			c-0.43-1-1.06-2.87-2.34-2.98c-0.51-0.04-1.01,0.1-1.5,0.23c-1.29,0.35-2.6,0.66-3.91,0.94c-5.73,1.22-11.51,1.68-17.36,1.67
			c-1.27,0-2.59,0.41-3.86,0.63c-1.48,0.26-2.96,0.51-4.45,0.77c-2.97,0.51-5.93,1.01-8.9,1.51c-11.77,1.97-23.57,3.75-35.33,5.76
			c-4.17,0.71-8.34,1.43-12.51,2.14c-1.16,0.2-2.33,0.4-3.5,0.54c-1.72,0.21-3.46,0.3-5.19,0.35c-1.53,0.05-2.88,0.35-4.39,0.57
			c-3.43,0.48-6.85,0.95-10.28,1.42c-5.71,0.78-11.44,1.42-17.09,2.57c-5.84,1.19-11.67,2.38-17.51,3.57
			c-1.45,0.3-2.91,0.59-4.39,0.71c-1.83,0.14-0.84,1.21-0.06,2.07c0.52,0.57,0.94,1.22,1.36,1.87c2.94,4.53,6.46,8.69,9.07,13.36
			c1.34,2.39,2.64,4.8,3.9,7.23C579.59,173.09,582.51,177.1,582.29,178.56z"/>
	</g>
	<g>
		<path class="st13" d="M227.53,185.83c-1.39,0.42-2.84,0.44-4.26,0.68c-0.32,0.05-0.64,0.14-0.96,0.21
			c-0.11-0.11-0.26-0.18-0.44-0.13c-2.03,0.53-3.94,0.59-6,0.78c-2.21,0.21-4.45,0.77-6.63,1.15c-4.33,0.75-8.65,1.57-12.98,2.33
			c-1.94,0.34-3.92,0.4-5.84,0.76c-0.91,0.17-1.66,0.66-2.54,0.88c-0.96,0.24-1.98-0.04-2.95,0.08c-1.34,0.16-2.76,0.88-3.48,2.05
			c-0.51,0.82-0.82,2.04-0.16,2.83c0.08,0.09,0.24,0.06,0.3-0.04c0.37-0.66,0.46-1.3,1.01-1.9c0.66-0.73,1.59-1.17,2.57-1.21
			c0.84-0.03,1.66,0.16,2.5,0.09c0.8-0.07,1.43-0.43,2.18-0.68c1.71-0.55,3.71-0.43,5.5-0.66c1.74-0.23,3.46-0.51,5.19-0.79
			c0.54-0.08,1.08-0.16,1.63-0.24c1.1,0.04,2.2,0.15,3.3,0.21c2.4,0.13,4.61-0.1,6.79-1.16c1.4-0.68,2.42-0.8,3.94-0.91
			c1.04-0.07,1.96-0.43,2.89-0.87c2.57-1.21,5.73-2.36,8.61-2.33C228.55,186.99,228.35,185.58,227.53,185.83z"/>
		<path class="st13" d="M530.2,139.33c-2.87-0.57-6.36,0.35-9.21,0.85c-3.3,0.59-6.58,1.31-9.87,1.95
			c-3.38,0.66-6.75,1.08-10.17,1.47c-1.35,0.15-2.5,0.9-3.82,1.04c0.06-0.49-0.4-1.06-0.98-0.92c-3.58,0.87-7.05,1.89-10.71,2.42
			c-3.78,0.55-7.58,0.85-11.37,1.27c-0.87,0.1-1.83,0.37-2.7,0.32c-0.83-0.05-1.69,0.16-2.51,0.31c-1.72,0.3-3.44,0.6-5.16,0.9
			c-3.94,0.69-7.87,1.43-11.81,2.15c-15.38,2.82-30.87,5.13-46.33,7.51c-4.35,0.67-8.74,1.14-13.06,1.94
			c-2.16,0.4-4.32,0.75-6.49,1.08c-1.5,0.23-3.07,0.39-4.58,0.7c-0.05-0.02-0.1-0.06-0.17-0.05c-7.06,0.62-14.02,1.87-20.95,3.33
			c-1.7,0.14-3.4,0.23-5.09,0.36c-1.11,0.08-2.21,0.18-3.31,0.34c-1.07,0.16-2.43,0.22-3.38,0.79c-0.31,0.18-0.45,0.49-0.45,0.8
			c-1.13-0.12-2.26-0.23-3.45-0.09c-1.99,0.25-3.98,0.65-5.94,1.07c-0.95,0.2-1.93,0.36-2.9,0.53c-0.08-0.04-0.16-0.07-0.27-0.06
			c-5.48,0.9-10.86,1.95-16.4,2.42c-2.37,0.2-4.73,0.38-7.08,0.75c-1.19,0.18-2.32,0.49-3.47,0.8c-1.5,0.39-2.92,0.42-4.46,0.41
			c-5.05-0.03-9.85,2.06-14.84,2.67c-2.47,0.3-4.96,0.51-7.43,0.84c-2.3,0.31-4.94,0.55-7,1.69c-0.56,0.31-0.33,1.29,0.34,1.25
			c2.53-0.17,5.06-0.95,7.59-1.24c2.57-0.29,5.16-0.5,7.74-0.77c2.36-0.24,4.66-0.56,6.97-1.11c2.69-0.63,5.18-0.88,7.94-0.91
			c2.52-0.03,4.81-0.93,7.27-1.32c2.46-0.39,4.89-0.73,7.33-1.23c4.34-0.89,8.77-1.66,13.08-2.76c3.95-0.06,7.94-1.14,11.87-1.44
			c2.07-0.16,4.01,0.54,6.05,0.49c1.83-0.04,3.64-0.86,5.42-1.24c4.04-0.87,8.13-1.49,12.19-2.29c3.82-0.75,7.52-1.71,11.23-2.81
			c1.79,0.12,3.6-0.17,5.39-0.35c1.97-0.2,3.93-0.44,5.9-0.61c3.83-0.32,7.61-0.87,11.41-1.41c7.86-1.11,15.7-2.25,23.54-3.53
			c7.82-1.27,15.61-2.73,23.39-4.24c5.65-1.1,11.31-2.27,17.01-3.2c0.86-0.11,1.73-0.2,2.6-0.24c1.75-0.09,3.49,0.11,5.24,0.18
			c1.62,0.07,3.16-0.17,4.67-0.76c0.78-0.3,1.53-0.67,2.3-1.02c1.26-0.14,2.52-0.29,3.78-0.46c3.32-0.45,6.81-0.94,10-2.09
			c1.04-0.02,2.06,0.4,3.12,0.25c0.72-0.1,1.31-0.51,2.02-0.66c0.61-0.13,1.26-0.07,1.88-0.1c3.11-0.12,6.22-0.63,9.28-1.18
			c3.1-0.56,6.17-1.25,9.26-1.82c1.66-0.31,3.32-0.58,4.99-0.8c1.51-0.2,3.13-0.16,4.59-0.6
			C530.94,140.72,531.05,139.5,530.2,139.33z"/>
		<path class="st13" d="M720.63,110.97c-0.16-0.05-0.33-0.06-0.5-0.05c-0.04-0.03-0.08-0.07-0.13-0.08
			c-0.13-0.05-0.28-0.06-0.42-0.02c-0.05-0.02-0.1-0.04-0.16-0.04c-1.01-0.06-2.05-0.09-3.05,0.07c-0.51,0.09-1.01,0.19-1.51,0.31
			c-0.45,0.11-0.98,0.25-1.21,0.7c-0.29,0.56,0.03,1.13,0.55,1.39c0.46,0.22,0.95,0.28,1.45,0.19c0.45-0.08,0.8-0.33,1.17-0.59
			c0.31-0.03,0.62-0.04,0.92-0.09c0.18-0.03,0.37-0.05,0.55-0.07c0.33,0.02,0.66,0.03,0.99-0.08c0.04-0.01,0.06-0.04,0.1-0.06
			c0.48-0.04,1.02-0.07,1.42-0.28C721.37,111.97,721.19,111.15,720.63,110.97z"/>
		<path class="st14" d="M564.9,234.18c-0.32-3.08-0.77-6.2-1.44-9.22c-0.71-3.16-1.79-6.2-2.6-9.33c-0.02-0.09-0.16-0.05-0.14,0.04
			c0.62,3.35,0.74,6.77,1.1,10.16c0.32,3,0.65,5.99,0.93,8.99c0.57,6.27,0.73,12.57,0.49,18.86c-0.47,12.54-1.45,25.28-4.07,37.57
			c-0.12,0.56,0.7,0.8,0.87,0.24c1.79-5.98,3.12-12.1,3.76-18.31c0.67-6.5,1.46-12.96,1.72-19.5
			C565.77,247.17,565.57,240.66,564.9,234.18z"/>
		<path class="st14" d="M747,257.63c0.95-5.33,0.62-10.36-0.26-15.66c-0.17-1.01-0.34-2.03-0.51-3.04c-0.1-0.59-0.23-1.23-0.7-1.61
			c-0.94,1.81-0.34,4.54-0.03,6.44c0.47,2.87,0.79,5.96,0.76,8.86c-0.02,1.72-0.55,3.26-0.82,4.93c-0.24,1.44-0.07,2.81,0.07,4.25
			c0.14,1.41-0.02,2.7-0.16,4.1c-0.03,0.32,0.41,0.59,0.68,0.39c1.13-0.86,1.27-2.29,1.18-3.62
			C747.09,260.97,746.7,259.32,747,257.63z"/>
		<path class="st14" d="M741.98,298.53c0.25-4.88,0.67-9.74,0.77-14.63c0-0.07-0.11-0.09-0.12-0.02c-0.89,4.51-1.73,9.07-2.21,13.65
			c-0.5,4.86-0.02,9.75-0.66,14.61c-0.61,4.63-1.78,9.17-2.42,13.8c-0.3,2.17-0.49,4.33-0.5,6.53c-0.02,2.42-0.17,4.82-0.22,7.24
			c-0.02,0.72,1,0.81,1.21,0.16c0.67-2,0.66-4.36,0.76-6.45c0.12-2.43,0.34-4.84,0.75-7.25c0.78-4.54,1.91-9,2.5-13.57
			C742.46,307.88,741.74,303.25,741.98,298.53z"/>
		<path class="st14" d="M737.57,397.42c-0.1-0.32-0.3-0.51-0.53-0.6c0.18-0.99,0.33-1.97,0.35-2.98c0.04-2.36-0.77-4.59-1.31-6.85
			c-0.62-2.61-0.37-5.21-0.2-7.86c0.18-2.84,0.31-5.61,0.16-8.45c-0.01-0.19-0.3-0.25-0.35-0.05c-0.63,2.62-1.01,5.22-1.33,7.9
			c-0.3,2.53-0.69,5.07-0.31,7.62c0.39,2.58,1.46,5.05,1.38,7.69c-0.07,2.51-0.93,4.92-1.06,7.43c-0.05,0.84,1.1,1.3,1.66,0.69
			c0.21-0.23,0.38-0.46,0.54-0.7c0.1,0.14,0.21,0.27,0.33,0.4c0.4,0.4,0.99,0.17,1.17-0.31
			C738.55,400.07,737.96,398.68,737.57,397.42z"/>
		<path class="st15" d="M715.9,391.99c-0.09,0-0.09,0.13,0,0.13C715.99,392.12,715.99,391.99,715.9,391.99z"/>
	</g>
	<path class="st16" d="M722.72,114.11c0.1,0.31,0.18,0.63,0.27,0.93c-0.21,0.58-0.11,1.21-0.06,1.84c0.06,0.81,0.09,1.61,0,2.41
		c-0.08,0.74-0.18,1.47-0.4,2.18c-0.08,0.25-0.18,0.45-0.29,0.66c-0.52,0.22-1.43,0.45-1.89,0.22c-0.9-0.46-1.73,0.45-1.33,1.33
		c0.57,1.23,1.98,1.69,3.25,1.57c0.69-0.06,1.22-0.28,1.77-0.64c0.71-0.47,1.51-0.15,2.23,0.16c3.35,1.43,7.31,1.23,10.57-0.38
		s5.79-4.58,7-8.01c0.27-0.75,0.47-1.53,0.51-2.33c0.04-0.9-0.15-1.79-0.37-2.66c-0.27-1.06-0.6-2.11-0.98-3.14
		c-0.25-0.67-0.52-1.34-0.93-1.93c-0.54-0.79-1.3-1.41-2.04-2.03c-1.54-1.29-3.08-2.67-4.95-3.4c-1.97-0.77-4.2-0.76-6.23-0.15
		c-2.02,0.61-3.85,1.81-5.35,3.3c-0.69,0.69-1.34,1.44-2.15,2c-0.89,0.62-1.85,0.59-2.82,0.98c-0.57,0.02-1.13,0.14-1.63,0.4
		c-0.78,0.41-1.66,1.4-1.32,2.27c-0.01,0.07-0.02,0.14-0.03,0.22c-0.01,0.12,0.11,0.18,0.21,0.16c0.02,0,0.04-0.01,0.06-0.01
		c0.03,0.04,0.05,0.07,0.09,0.11c0.74,0.67,1.74-0.07,1.63-0.84c0.13-0.08,0.39-0.21,0.52-0.25c0.3-0.09,0.63-0.09,0.94-0.04
		c0.74,0.13,1.31,0.62,1.78,1.18C721.69,111.32,722.29,112.73,722.72,114.11z"/>
	<g>
		
			<linearGradient id="SVGID_00000065039689798244272530000016958534735074248848_" gradientUnits="userSpaceOnUse" x1="720.8541" y1="666.155" x2="720.1797" y2="693.8671" gradientTransform="matrix(1 0 0 -1 0 799.8898)">
			<stop  offset="0" style="stop-color:#000000"/>
			<stop  offset="0.1352" style="stop-color:#252104;stop-opacity:0.8648"/>
			<stop  offset="0.4506" style="stop-color:#766A0C;stop-opacity:0.5494"/>
			<stop  offset="0.7097" style="stop-color:#B29F12;stop-opacity:0.2903"/>
			<stop  offset="0.8996" style="stop-color:#D7C016;stop-opacity:0.1004"/>
			<stop  offset="1" style="stop-color:#E5CC17;stop-opacity:0"/>
		</linearGradient>
		<path style="fill:url(#SVGID_00000065039689798244272530000016958534735074248848_);" d="M720.56,122.4
			c0.01,0,0.03-0.01,0.04-0.01C720.56,122.4,720.55,122.4,720.56,122.4z"/>
		
			<linearGradient id="SVGID_00000142886662377677248520000010518704676073409194_" gradientUnits="userSpaceOnUse" x1="731.6795" y1="657.7786" x2="730.4152" y2="709.7286" gradientTransform="matrix(1 0 0 -1 0 799.8898)">
			<stop  offset="0" style="stop-color:#000000"/>
			<stop  offset="0.1352" style="stop-color:#252104;stop-opacity:0.8648"/>
			<stop  offset="0.4506" style="stop-color:#766A0C;stop-opacity:0.5494"/>
			<stop  offset="0.7097" style="stop-color:#B29F12;stop-opacity:0.2903"/>
			<stop  offset="0.8996" style="stop-color:#D7C016;stop-opacity:0.1004"/>
			<stop  offset="1" style="stop-color:#E5CC17;stop-opacity:0"/>
		</linearGradient>
		<path style="fill:url(#SVGID_00000142886662377677248520000010518704676073409194_);" d="M727.41,115.15
			c-1.23,0.13-2.81-1.08-3.84,0.08c-0.65,0.73-0.62,1.72-0.74,2.63c-0.11,0.87-0.19,1.76-0.36,2.63c-0.09,0.44-0.2,0.88-0.42,1.28
			c-0.16,0.3-0.36,0.54-0.57,0.7c-0.15,0-0.3,0-0.45-0.01c-0.09-0.01-0.44-0.03-0.47-0.04c-0.1,0.01-0.2,0.04-0.31,0.06
			c-0.03-0.03-0.06-0.06-0.07-0.08c-0.77-0.94-2.42,0.32-1.7,1.31c0.4,0.54,0.92,0.9,1.49,1.08c0.55,0.29,1.28,0.33,1.97,0.24
			c0.34,0.06,0.67,0.1,1.02,0.1c0.92-0.01,1.7-0.71,2.68-0.61c0.37,0.04,0.71,0.17,1.06,0.3c1.35,0.51,2.74,0.94,4.18,1.13
			c0.74,0.1,1.48,0.12,2.22,0.06c0.69-0.06,1.3-0.39,1.93-0.68c1.37-0.61,2.72-1.29,4-2.08c1.44-0.9,2.83-2,3.55-3.53
			c0.38-0.81,0.56-1.71,0.72-2.59c0.34-1.83,0.64-3.68,0.55-5.53c-0.1-1.86-0.63-3.74-1.8-5.18c-0.06-0.07-0.12-0.14-0.21-0.17
			c-0.28-0.1-0.47,0.28-0.5,0.57c-0.15,1.34,0.26,2.69,0.12,4.02c-0.14,1.28-0.77,2.44-1.39,3.56c-0.22,0.39-0.44,0.8-0.79,1.08
			s-0.79,0.41-1.16,0.65c-0.76,0.49-1.18,1.37-1.85,1.98c-0.85,0.78-2.1,1.07-3.23,0.83s-2.13-0.99-2.75-1.96
			c-0.26-0.41-0.46-0.86-0.77-1.25c-0.3-0.38-0.74-0.7-1.23-0.71C728,115.01,727.72,115.11,727.41,115.15z"/>
	</g>
	<path class="st19" d="M723.55,109.6c0.23,0.18,0.45,0.37,0.65,0.58c0.46,0.48,0.92,0.9,1.51,1.22c-0.24-1.19-0.77-2.32-1.53-3.26
		c-0.21-0.26-0.44-0.52-0.59-0.82c-0.14-0.31-0.18-0.68,0-0.97c0.11-0.17,0.27-0.28,0.45-0.37c1.4-0.66,3.15,0.64,4.57,0.02
		c0.99-0.43,1.41-1.62,1.41-2.69c0-0.19,0-0.41,0.12-0.55c0.09-0.11,0.23-0.16,0.36-0.2c1.74-0.56,3.64-0.25,5.38,0.3
		s3.4,1.35,5.17,1.79c-0.46-0.89-1.26-1.56-2.13-2.04c-0.88-0.48-1.84-0.78-2.79-1.08c-0.97-0.3-1.95-0.61-2.97-0.72
		c-0.61-0.06-1.23-0.06-1.84-0.01c-3.58,0.26-7.18,1.91-9.17,4.89c-0.24,0.37-0.47,0.76-0.78,1.07c-0.64,0.64-1.13,0.34-1.89,0.4
		c-0.76,0.06-1.58,0.21-2.2,0.68c-0.31,0.23-0.57,0.52-0.76,0.86c-0.22,0.38-0.24,0.72-0.23,1.15c0.27-0.64,0.88-1.29,1.5-1.59
		c0.76-0.37,1.75-0.42,2.58-0.41c0.9,0.01,1.58,0.47,2.24,1.03C722.92,109.13,723.24,109.36,723.55,109.6z"/>
	<path class="st20" d="M240.68,187.88c-0.12-0.04-0.29,0-0.38,0.1c-0.62-0.01-1.25,0.09-1.86,0.16c-0.7,0.08-1.4,0.15-2.11,0.2
		c-0.06,0-0.06,0.09,0,0.09c0.7,0,1.4,0.01,2.11,0.04c0.6,0.02,1.22-0.02,1.83,0.04c0.05,0.07,0.11,0.13,0.2,0.14
		c0.14,0.02,0.29,0.05,0.35,0.19c0.05,0.13,0.04,0.23-0.05,0.34c-0.03,0.03-0.03,0.08,0.01,0.11c0.28,0.16,0.56-0.17,0.6-0.42
		C241.47,188.37,241.12,188.04,240.68,187.88z"/>
	<path class="st20" d="M240.28,189.39c-0.95-0.09-1.92-0.17-2.88-0.13c-0.94,0.04-1.87,0.13-2.8,0.26
		c-0.15,0.02-0.12,0.28,0.04,0.27c0.94-0.07,1.88-0.12,2.82-0.16c0.94-0.03,1.88-0.11,2.82-0.13
		C240.35,189.5,240.35,189.4,240.28,189.39z"/>
	<g>
		<g>
			<path d="M712.91,112.2c2.1-0.33,4.21-0.65,6.31-0.98c0.3-0.05,0.6-0.09,0.9-0.14c0.53-0.08,0.83-0.75,0.7-1.23
				c-0.16-0.57-0.69-0.78-1.23-0.7c-2.1,0.33-4.21,0.65-6.31,0.98c-0.3,0.05-0.6,0.09-0.9,0.14c-0.53,0.08-0.83,0.75-0.7,1.23
				C711.83,112.07,712.37,112.28,712.91,112.2L712.91,112.2z"/>
		</g>
	</g>
	<g>
		<g>
			<path d="M185.09,202.84c-1.5,0.06-2.36-0.46-3.08-1.79c-0.67-1.24-0.99-2.67-0.81-4.07c0.14-1.06,0.61-2.43,1.56-3
				c0.9-0.54,2.25-0.46,3.28-0.61c5.54-0.82,11.08-1.72,16.62-2.58c11.56-1.8,23.11-3.59,34.67-5.39c23.6-3.67,47.2-7.33,70.8-11
				c24.17-3.76,48.35-7.51,72.52-11.27c23.79-3.7,47.57-7.39,71.36-11.09c23.26-3.61,46.53-7.23,69.79-10.84
				c2.73-0.42,5.46-0.85,8.19-1.27c1.27-0.2,0.73-2.12-0.53-1.93c-24.01,3.73-48.01,7.46-72.02,11.19
				c-24.75,3.85-49.5,7.69-74.25,11.54c-25.09,3.9-50.17,7.8-75.26,11.69c-24.59,3.82-49.18,7.64-73.77,11.46
				c-11.94,1.86-23.89,3.71-35.83,5.57c-2.89,0.45-5.78,0.9-8.67,1.35c-1.41,0.22-2.81,0.46-4.22,0.65c-1.02,0.14-2.1,0.15-3.08,0.5
				c-3.98,1.42-3.71,7.38-1.96,10.35c1.1,1.87,2.52,2.64,4.68,2.55C186.37,204.79,186.38,202.79,185.09,202.84L185.09,202.84z"/>
		</g>
	</g>
	<g>
		<g>
			<path d="M535.36,149.02c-3.14,0.48-6.27,0.96-9.41,1.45c-8.5,1.31-16.99,2.61-25.49,3.92c-12.6,1.94-25.21,3.87-37.81,5.81
				c-15.33,2.35-30.65,4.71-45.98,7.06c-16.78,2.58-33.57,5.16-50.35,7.73c-16.94,2.6-33.88,5.21-50.82,7.81
				c-15.85,2.43-31.7,4.87-47.55,7.3c-13.35,2.05-26.7,4.1-40.04,6.15c-9.63,1.48-19.26,2.96-28.88,4.44
				c-4.53,0.7-9.11,1.25-13.62,2.09c-0.19,0.04-0.39,0.06-0.58,0.09c-1.27,0.19-0.73,2.12,0.53,1.93c3.14-0.48,6.27-0.96,9.41-1.45
				c8.5-1.31,16.99-2.61,25.49-3.92c12.6-1.94,25.21-3.87,37.81-5.81c15.33-2.35,30.65-4.71,45.98-7.06
				c16.78-2.58,33.57-5.16,50.35-7.73c16.94-2.6,33.88-5.21,50.82-7.81c15.85-2.43,31.7-4.87,47.55-7.3
				c13.35-2.05,26.7-4.1,40.04-6.15c9.63-1.48,19.26-2.96,28.88-4.44c4.53-0.7,9.11-1.25,13.62-2.09c0.19-0.04,0.39-0.06,0.58-0.09
				C537.16,150.76,536.62,148.83,535.36,149.02L535.36,149.02z"/>
		</g>
	</g>
	<g>
		<g>
			<path d="M721.86,120.37c-1.94,0.3-3.87,0.6-5.81,0.9c-0.27,0.04-0.55,0.08-0.82,0.13c-0.53,0.08-0.83,0.75-0.7,1.23
				c0.16,0.57,0.69,0.78,1.23,0.7c1.94-0.3,3.87-0.6,5.81-0.9c0.27-0.04,0.55-0.08,0.82-0.13c0.53-0.08,0.83-0.75,0.7-1.23
				C722.94,120.5,722.4,120.29,721.86,120.37L721.86,120.37z"/>
		</g>
	</g>
	<path class="st21" d="M716.97,110.28c0.31-0.66,0.75-1.1,1.29-1.21c1.63-0.34,3.59,2.4,4.37,6.13s0.09,7.03-1.55,7.37
		c-0.5,0.11-1.04-0.08-1.56-0.5"/>
	<path class="st21" d="M718.05,122.61c0.65,2.24,3.32,2.51,4.92,2.3c4.89-0.66,4.6-7.44,3.91-10.73c-0.39-1.87-1.2-3.69-2.39-5.22
		c-0.97-1.24-2.21-2.44-3.92-2.5c-1.48-0.05-3.12,0.18-4.14,1.23c-0.7,0.73-0.98,1.72-1.23,2.67"/>
	<path class="st22" d="M275.24,171.9c0.28-0.99,0.63-1.94,0.49-2.98c-0.15-1.05-0.46-2.05-0.71-3.08l-2.87-1.29l-3.84,1.62
		l-2.6,3.24l-5.31-7.34l-5.46-1.72l-4.27,1.05l-1.75,1.2l-8.41-0.66l-3.67,1.17l-4.18,4.01l-5.06,3.47l-1.91,2.04l-1.55,2.32
		l-4.72,4.16l-1.72,2.91l0.37,5.39l9.73-1.55l2.49,4.76l2.4,3.63l3.62,0.78l4.79-2.01l0.54,2.07c0,0,2.89,0.61,3.27,0.7
		s3.29-0.7,3.29-0.7l1.51-2.78l1.35,2.42c0,0,2.26,1.19,2.55,1.36s4.03-0.3,4.03-0.3l1.38-1.55l0.87-4.31c0,0,2.31,0.68,2.32,0.68
		c0.09,0.03-0.08,0.77-0.1,0.84c-0.04,0.22-0.09,0.44-0.15,0.65c-0.04,0.15-0.07,0.45-0.21,0.55c-0.05,0.04-0.11,0.05-0.17,0.07
		c-0.25,0.07-0.5,0.12-0.75,0.17c-0.23,0.04-0.45,0.05-0.68,0.11c-0.05,0.01-0.09,0.02-0.14,0.04c-0.13,0.05-0.23,0.16-0.31,0.29
		c-0.11,0.18-0.17,0.41-0.22,0.59c-0.36,1.16-1.19,2.16-2.24,2.77c-0.2,0.11-0.42,0.24-0.64,0.31c-0.63,0.2-1.3,0.26-1.95,0.16
		c-0.2-0.03-0.4-0.07-0.59-0.11c-0.17-0.04-0.33-0.08-0.5-0.13c-0.7-0.21-1.34-0.57-1.96-0.96c-0.14-0.09-0.27-0.16-0.38-0.28
		c-0.31-0.36-0.68-0.67-0.97-1.05c-0.06-0.07-0.11-0.15-0.2-0.18c-0.06-0.02-0.12-0.01-0.17-0.01c-0.17,0.02-0.35,0.05-0.5,0.15
		c-0.09,0.06-0.17,0.14-0.26,0.2c-0.11,0.08-0.17,0.19-0.25,0.3c-0.09,0.13-0.19,0.25-0.3,0.36c-0.21,0.23-0.44,0.44-0.7,0.61
		c-0.49,0.32-1.05,0.51-1.62,0.61c-0.71,0.13-1.44,0.14-2.16,0.04c-0.51-0.07-1-0.24-1.49-0.4c-0.48-0.15-0.98-0.38-1.49-0.39
		c-0.21,0-0.42,0.03-0.62,0.07c-0.17,0.03-0.34,0.07-0.51,0.1c-0.34,0.07-0.7,0.19-1.04,0.22c-0.39,0.04-0.79,0.09-1.18,0.14
		c-0.78,0.1-1.56,0.21-2.34,0.34c-0.18,0.03-0.37,0.06-0.55,0.1c-0.15,0.03-0.31,0.09-0.46,0.11c-0.19,0.02-0.39,0.03-0.58,0.05
		c-0.78,0.07-1.56,0.15-2.34,0.24c-1.56,0.18-3.11,0.4-4.65,0.66c-0.48,0.08-0.96,0.17-1.43,0.25c-0.35,0.07-0.76,0.09-1.09,0.23
		c-0.32,0.14-0.71,0.16-1.05,0.19c-0.72,0.07-1.45,0.07-2.14,0.31c-0.02,0.01-0.04,0.01-0.05,0.03c-0.01,0.02-0.02,0.04-0.02,0.06
		c-0.01,0.17,0.02,0.33,0.02,0.5c0,0.15,0.01,0.29,0.04,0.44c0.35,1.49,0.69,3.03,1.4,4.39c0.4,0.78,0.81,1.57,1.21,2.35
		c1.31,2.54,2.62,5.07,3.93,7.61c0.73,1.42,1.47,2.84,2.2,4.26c0.51,1.03,2.54,1.82,3.37,2.62c0.76,0.73,1.66,1.34,2.5,1.96
		c1.77,1.29,3.71,0.89,5.67,0.18c1.08-0.39,2.14-0.82,3.19-1.29c0.37-0.17,0.75-0.33,1.12-0.51c5.22-2.45,10.02-5.78,14.17-9.79
		c2.03-1.96,3.74-4.18,5.63-6.25c2.09-2.3,4.3-4.66,5.83-7.38c0.92-1.63,2.09-3.15,3.13-4.71l1.36-6.63
		c0.01-0.07-0.01-0.16-0.02-0.23c-0.1-1.22-0.2-2.45-0.3-3.67c-0.06-0.75-0.12-1.49-0.18-2.24c-0.11-1.4-0.41-2.81-0.52-4.22
		C274.67,174.94,274.82,173.38,275.24,171.9z"/>
	
		<linearGradient id="SVGID_00000150785003651953202460000012626059936215968690_" gradientUnits="userSpaceOnUse" x1="216.7385" y1="591.0192" x2="243.4285" y2="602.5508" gradientTransform="matrix(1 0 0 -1 0 799.8898)">
		<stop  offset="0" style="stop-color:#000000"/>
		<stop  offset="0.0137" style="stop-color:#070707;stop-opacity:0.9873"/>
		<stop  offset="0.1278" style="stop-color:#3F3F3F;stop-opacity:0.8813"/>
		<stop  offset="0.2456" style="stop-color:#707070;stop-opacity:0.7719"/>
		<stop  offset="0.3645" style="stop-color:#9A9A9A;stop-opacity:0.6614"/>
		<stop  offset="0.4848" style="stop-color:#BCBCBC;stop-opacity:0.5497"/>
		<stop  offset="0.6068" style="stop-color:#D6D6D6;stop-opacity:0.4363"/>
		<stop  offset="0.7315" style="stop-color:#E9E9E9;stop-opacity:0.3205"/>
		<stop  offset="0.8604" style="stop-color:#F4F4F4;stop-opacity:0.2008"/>
		<stop  offset="1" style="stop-color:#F8F8F8;stop-opacity:0.0711"/>
	</linearGradient>
	<path style="fill:url(#SVGID_00000150785003651953202460000012626059936215968690_);" d="M250.91,218.56
		c-1.08,0.48-2.23,1.16-3.47,0.88c-0.89-0.2-1.68-1.12-1.4-1.99c0.24-0.74,1.06-1.08,1.8-1.32c1.63-0.55,3.26-1.1,4.89-1.66
		c1.52-0.51,3.15-1.12,4-2.48c-7.2,2.32-15.49,0.92-21.54-3.63c-0.26-0.2-0.52-0.62-0.24-0.79c0.08-0.05,0.17-0.05,0.26-0.06
		c2.71-0.11,5.41-0.51,8.04-1.19c2.3-0.59,4.49-1.78,6.79-2.25c4.33-0.89,7.58-4.38,11.45-6.52c2.85-1.58,3.89-3.53,4.65-6.65
		c0.84-3.41,0.77-6.96,1.03-10.44c0.26-3.37,1.87-5.96,3.85-8.6c0.51-0.68,1.03-1.36,1.53-2.06c0.03-0.36,0.04-0.73,0.02-1.09
		c-0.02-0.3-0.09-0.57-0.19-0.82c0.15-0.99-0.31-2.11-1.39-2.26c-0.18-0.03-0.36-0.05-0.53-0.08c-0.92-0.13-1.98,0.18-2.35,1.11
		c-0.83,0.41-1.64,1.02-2.18,1.67c-0.94,1.13-1.25,2.59-1.55,3.99c-0.12,0.54-0.2,1.07-0.26,1.61c-0.15,0.11-0.27,0.26-0.36,0.42
		c-0.07,0.05-0.13,0.12-0.2,0.18c0.01,0.33,0.04,0.66,0.03,0.99c-0.02,1.16-0.18,2.28-0.33,3.43c-0.08,0.58-0.41,0.99-1.02,1.02
		c-0.06,0-0.12,0.01-0.18,0.01c-0.34,0-0.73-0.19-0.89-0.51c-0.79-1.6-1.01-3.31-1.16-5.07c-0.12-1.42-0.25-2.9-0.83-4.22
		c-0.48-1.07-1.14-1.71-2.12-2.23c-0.41-0.22-0.79-0.37-1.28-0.49c-0.27-0.07-0.35-0.08-0.6-0.1c-0.1-0.01-0.21-0.01-0.31-0.01
		c-0.04,0-0.31,0.02-0.21,0.01c-0.34,0.04-0.63,0.15-0.9,0.28c-0.11,0.28-0.18,0.56-0.16,0.83c0.47,0.26,0.75,0.73,1.08,1.14
		c0.53,0.68,1.05,1.31,1.49,2.06c1.06,1.82,1.8,3.85,2.25,5.91c0.46,2.14,0.67,4.33,0.75,6.52c0.04,1.13,0.04,2.26,0.02,3.39
		c0.04,0.09,0.07,0.19,0.11,0.28c-0.04,0.14-0.08,0.28-0.11,0.42c0,0.69-0.29,1.25,0.25,1.73c0.53,0.47,1.05,0.83,1.76,0.94
		c0.29,0.05,0.61,0.06,0.81,0.28c0.34,0.39-0.06,1.01-0.53,1.21c-0.47,0.2-1.03,0.21-1.45,0.51c-0.66,0.48-0.66,1.45-1.07,2.15
		c-0.48,0.83-1.46,1.2-2.4,1.39c-2.04,0.41-4.39,0.09-5.78-1.46c-0.26-0.29-0.5-0.63-0.88-0.74c-0.44-0.13-0.9,0.12-1.22,0.45
		s-0.56,0.73-0.89,1.04c-0.72,0.66-1.79,0.79-2.76,0.67s-1.91-0.43-2.88-0.53c-1.05-0.11-2.1,0.04-3.14,0.19
		c-5.63,0.8-11.26,1.6-16.89,2.4c-0.26,0.04-0.53,0.08-0.74,0.23c-0.64,0.46-0.3,1.45,0,2.18c1.16,2.86,2.49,5.69,3.7,8.55
		c0.33,0.79,0.66,1.58,1.03,2.35c0.61,1.26,1.32,2.47,2.03,3.67c0.59,0.99,1.17,1.98,1.76,2.97c0.41,0.69,0.81,1.38,1.27,2.03
		c0.49,0.7,1.09,1.15,1.78,1.64c1.58,1.13,3.26,2.17,5.31,2.06c1.14-0.06,2.24-0.42,3.31-0.81
		C244.84,222.11,248.02,220.53,250.91,218.56z"/>
	
		<linearGradient id="SVGID_00000142146159347279089550000000602304521261418641_" gradientUnits="userSpaceOnUse" x1="214.7724" y1="636.8719" x2="276.4704" y2="597.9905" gradientTransform="matrix(1 0 0 -1 0 799.8898)">
		<stop  offset="0" style="stop-color:#000000"/>
		<stop  offset="0.0252" style="stop-color:#0B0B0B;stop-opacity:0.9766"/>
		<stop  offset="0.1825" style="stop-color:#494949;stop-opacity:0.8305"/>
		<stop  offset="0.3383" style="stop-color:#7E7E7E;stop-opacity:0.6858"/>
		<stop  offset="0.4889" style="stop-color:#AAAAAA;stop-opacity:0.5459"/>
		<stop  offset="0.6333" style="stop-color:#CCCCCC;stop-opacity:0.4117"/>
		<stop  offset="0.7699" style="stop-color:#E4E4E4;stop-opacity:0.2848"/>
		<stop  offset="0.8956" style="stop-color:#F3F3F3;stop-opacity:0.1681"/>
		<stop  offset="1" style="stop-color:#F8F8F8;stop-opacity:0.0711"/>
	</linearGradient>
	<path style="fill:url(#SVGID_00000142146159347279089550000000602304521261418641_);" d="M254.05,196.07
		c-3.08-4.77-0.64-11.13-2.18-16.34c-0.75-2.53-2.12-4.79-4.27-6.35c-0.73-0.53-1.51-0.96-2.32-1.36c-0.02,0.01-0.04,0.01-0.06,0.01
		c-0.2,0.05-0.41,0.1-0.61,0.15c-0.08,0.02-0.17,0.05-0.25,0.07c1.98,1.48,3.56,3.43,4.42,5.77c0.48,1.32,0.72,2.73,0.76,4.14
		c0.09,0.55,0.15,1.11,0.19,1.67c0.22,3.93-0.29,8,1.2,11.74c0.4,1.01,1.34,1.71,2.47,1.4c0.36-0.1,0.71-0.34,0.98-0.64
		C254.24,196.28,254.13,196.19,254.05,196.07z"/>
	
		<linearGradient id="SVGID_00000087412779159823096470000004038285973117810308_" gradientUnits="userSpaceOnUse" x1="211.5103" y1="631.6955" x2="273.2083" y2="592.8142" gradientTransform="matrix(1 0 0 -1 0 799.8898)">
		<stop  offset="0" style="stop-color:#000000"/>
		<stop  offset="0.1623" style="stop-color:#3F3F3F;stop-opacity:0.8492"/>
		<stop  offset="0.325" style="stop-color:#777777;stop-opacity:0.6981"/>
		<stop  offset="0.4836" style="stop-color:#A5A5A5;stop-opacity:0.5508"/>
		<stop  offset="0.6339" style="stop-color:#C9C9C9;stop-opacity:0.4111"/>
		<stop  offset="0.7741" style="stop-color:#E3E3E3;stop-opacity:0.2809"/>
		<stop  offset="0.9001" style="stop-color:#F3F3F3;stop-opacity:0.1638"/>
		<stop  offset="1" style="stop-color:#F8F8F8;stop-opacity:0.0711"/>
	</linearGradient>
	<path style="fill:url(#SVGID_00000087412779159823096470000004038285973117810308_);" d="M243.51,194.11
		c-0.61-1.12-0.77-2.4-0.87-3.65c-0.15-1.93-0.26-3.86-0.41-5.8c-0.81-3.29-2.11-6.54-5.39-7.87c-0.66-0.27-1.71-0.71-2.43-0.47
		c-0.14,0.05-0.2,0.1-0.3,0.18c-0.04,0.03-0.05,0.09-0.06,0.14c0.07,0.03,0.13,0.07,0.19,0.15c0.78,0.99,1.6,1.96,2.41,2.94
		c0.42,0.44,0.82,0.9,1.13,1.41c0.16,0.26,0.17,0.51,0.09,0.72c0.03,0.03,0.06,0.06,0.08,0.09c0.72,0.95,0.88,2.16,1,3.32
		c0.02,0.07,0.06,0.13,0.08,0.2c0.54,1.67,0.87,3.34,0.95,5.09c0,0.01,0,0.03,0,0.04c0.36,1.26,0.77,2.5,1.23,3.75
		c0.07,0.06,0.14,0.12,0.21,0.18c0.04,0.04,0.05,0.04,0.06,0.05c0.01,0.01,0.02,0.01,0.07,0.04c0.06,0.04,0.13,0.08,0.2,0.12
		c0.25-0.05,0.52-0.02,0.74,0.13c0.17,0.12,0.36,0.21,0.54,0.31c0.04,0.02,0.11,0.05,0.14,0.06c0.09,0.03,0.18,0.06,0.28,0.09
		c0.4,0.13,0.74,0.21,1.03,0.23c0.12,0.01,0.24,0,0.36,0C244.27,195.16,243.8,194.63,243.51,194.11z"/>
	
		<linearGradient id="SVGID_00000102531646863473643600000005402087904465771687_" gradientUnits="userSpaceOnUse" x1="207.2483" y1="624.9324" x2="268.9463" y2="586.0511" gradientTransform="matrix(1 0 0 -1 0 799.8898)">
		<stop  offset="0" style="stop-color:#000000"/>
		<stop  offset="4.538357e-03" style="stop-color:#020202;stop-opacity:0.9958"/>
		<stop  offset="0.1686" style="stop-color:#424242;stop-opacity:0.8434"/>
		<stop  offset="0.3303" style="stop-color:#7A7A7A;stop-opacity:0.6932"/>
		<stop  offset="0.4859" style="stop-color:#A7A7A7;stop-opacity:0.5487"/>
		<stop  offset="0.634" style="stop-color:#CACACA;stop-opacity:0.4111"/>
		<stop  offset="0.7727" style="stop-color:#E3E3E3;stop-opacity:0.2822"/>
		<stop  offset="0.8986" style="stop-color:#F3F3F3;stop-opacity:0.1653"/>
		<stop  offset="1" style="stop-color:#F8F8F8;stop-opacity:0.0711"/>
	</linearGradient>
	<path style="fill:url(#SVGID_00000102531646863473643600000005402087904465771687_);" d="M232.44,191.21
		c-0.38-1.58-0.46-3.51-1.44-4.87c-0.75-1.04-2.1-1.95-3.38-2.13c-0.48-0.07-0.96-0.03-1.35,0.28c-0.31,0.24-0.48,0.66-0.59,1.1
		c0.17,0.05,0.34,0.09,0.49,0.14c2.46,0.73,3.94,3.04,4.16,5.53c0.11,0.16,0.23,0.31,0.33,0.47c0.55,0.85,1.04,1.74,1.47,2.66
		c0.43,0.91,1.76,1.23,2.63,0.78C233.44,194.3,232.8,192.74,232.44,191.21z"/>
	
		<linearGradient id="SVGID_00000154397214100252641580000017518876962908104126_" gradientUnits="userSpaceOnUse" x1="184.9763" y1="629.0401" x2="257.0168" y2="624.7392" gradientTransform="matrix(1 0 0 -1 0 799.8898)">
		<stop  offset="0" style="stop-color:#000000"/>
		<stop  offset="0.0858" style="stop-color:#272727;stop-opacity:0.9203"/>
		<stop  offset="0.2212" style="stop-color:#5E5E5E;stop-opacity:0.7945"/>
		<stop  offset="0.3578" style="stop-color:#8D8D8D;stop-opacity:0.6676"/>
		<stop  offset="0.4927" style="stop-color:#B3B3B3;stop-opacity:0.5423"/>
		<stop  offset="0.6254" style="stop-color:#D1D1D1;stop-opacity:0.419"/>
		<stop  offset="0.7556" style="stop-color:#E7E7E7;stop-opacity:0.2981"/>
		<stop  offset="0.8818" style="stop-color:#F4F4F4;stop-opacity:0.1808"/>
		<stop  offset="1" style="stop-color:#F8F8F8;stop-opacity:0.0711"/>
	</linearGradient>
	<path style="fill:url(#SVGID_00000154397214100252641580000017518876962908104126_);" d="M250.14,164.98
		c1.72-0.71,3.29-1.78,4.97-2.9c0.17-0.11,0.35-0.24,0.45-0.42c0.19-0.36-0.05-0.83-0.4-1.02s-0.79-0.18-1.19-0.13
		c-2.49,0.35-4.56,2.27-7.08,2.45c-1.01,0.07-1.6-0.36-2.53-0.61c-1.35-0.35-2.91-0.13-4.28-0.01c-1.09,0.09-2.21,0.24-3.16,0.78
		c-0.65,0.37-1.18,0.91-1.72,1.43c-1.32,1.3-2.71,2.53-4.16,3.69c-1.34,1.08-2.92,1.52-4.26,2.64c-1.47,1.22-2.1,3.09-3.57,4.29
		c-1.32,1.08-2.52,2.05-3.41,3.54c-0.81,1.35-3.81,7.47-1.25,8.61c0.3,0.13,0.65,0.07,0.97,0c1.29-0.28,5.31-1.58,2.34-3.22
		c-0.34-0.19-0.72-0.3-1.01-0.56c-0.58-0.51-0.61-1.41-0.42-2.16c0.49-1.87,1.99-3.16,3.41-4.35c0.53-0.44,1.22-1.55,1.93-1.66
		c0.38-0.06,0.65,0.24,1.03,0.29c0.54,0.06,1.19-0.1,1.7-0.28c0-0.07,0.01-0.14,0.01-0.22c-0.39-0.04-0.81-0.09-1.11-0.35
		c-1.19-1.02,1.16-3.17,1.99-3.55c0.48-0.22,1.1-0.34,1.5,0.01c0.42,0.38,0.37,1.13,0.82,1.47c0.6-1.19-0.09-2.96,1.33-3.62
		c1.33-0.62,2.23-1.28,3.24-2.3c0.03,0.46,0.57,0.69,1.03,0.76c1.24,0.21,2.53,0.12,3.73-0.27c-0.66-0.15-1.31-0.29-1.97-0.44
		c-0.46-0.1-1.03-0.35-0.99-0.82c0.02-0.18,0.13-0.33,0.25-0.47c1.2-1.38,3.19-1.71,5.02-1.87c0.36-0.03,0.77-0.04,1.01,0.24
		c0.54,0.63-0.62,1.62-0.23,2.35c0.23,0.18,0.58,0.07,0.81-0.12s0.42-0.44,0.69-0.55c0.63-0.26,1.36,0.23,2.02,0.16
		C248.42,165.74,249.42,165.28,250.14,164.98z"/>
	<g>
		<g>
			<path d="M265.79,181.95c-1.2-4.48-0.59-9.55,1.93-13.49c1.02-1.59,2.65-3.13,4.68-2.88c0.76,0.09,1.54,0.44,1.98,1.1
				c0.6,0.9,0.41,2.07,0.19,3.05c-0.25,1.12-0.6,2.2-0.75,3.34c-0.15,1.09-0.21,2.19-0.19,3.29c0.04,2.23,0.33,4.44,0.56,6.66
				c0.23,2.17,0.42,4.36,0.22,6.54c-0.21,2.26-1.1,4.18-2.3,6.09c-1.54,2.44-3.4,4.68-5.33,6.82c-1.54,1.71-3.69,3.29-3.85,5.77
				c-0.08,1.29,1.92,1.28,2,0c0.06-0.98,0.84-1.82,1.48-2.5c0.81-0.86,1.63-1.68,2.41-2.57c1.83-2.08,3.6-4.26,5.07-6.61
				c1.36-2.17,2.25-4.35,2.5-6.91c0.23-2.34,0-4.7-0.25-7.04c-0.25-2.36-0.56-4.74-0.52-7.12c0.02-1.1,0.12-2.19,0.38-3.26
				c0.3-1.26,0.71-2.5,0.77-3.8c0.11-2.41-1.45-4.39-3.84-4.79c-2.33-0.38-4.49,0.73-5.97,2.49c-3.68,4.38-4.55,10.94-3.1,16.34
				C264.2,183.72,266.13,183.19,265.79,181.95L265.79,181.95z"/>
		</g>
	</g>
	<g>
		<g>
			<path d="M226.21,185.87c1.62,0.93,2.27,2.81,2.9,4.46c0.71,1.85,1.54,3.8,3.25,4.94c0.98,0.65,2.27,0.84,3.42,0.85
				c1.31,0.01,2.71-0.23,3.86-0.89c1.4-0.8,2.03-2.16,1.8-3.74c-0.08-0.53-0.75-0.83-1.23-0.7c-0.57,0.16-0.78,0.69-0.7,1.23
				c0.05,0.36-0.01,0.62-0.23,0.94c-0.02,0.04,0,0.01-0.1,0.12c-0.08,0.09-0.17,0.17-0.27,0.25c0.08-0.07-0.12,0.08-0.15,0.1
				c-0.13,0.08-0.26,0.15-0.39,0.22c-0.84,0.41-1.96,0.53-2.97,0.47c-0.97-0.05-1.76-0.23-2.49-0.95c-1.2-1.18-1.68-2.9-2.29-4.42
				c-0.72-1.81-1.66-3.59-3.41-4.6C226.1,183.5,225.09,185.22,226.21,185.87L226.21,185.87z"/>
		</g>
	</g>
	<g>
		<g>
			<path d="M234.3,178.19c2.79,2.1,3.96,5.67,4.55,8.97c0.34,1.89,0.5,3.81,0.77,5.71c0.1,0.72,0.23,1.47,0.59,2.12
				c0.4,0.72,1.1,1.2,1.85,1.5c1.4,0.56,3.23,0.7,4.71,0.47c1.73-0.26,2.97-1.49,3.34-3.19c0.39-1.78,0.2-3.72,0.2-5.53
				c0-2,0.05-4.02-0.07-6.02c-0.13-2.15-0.57-4.23-1.59-6.14c-0.96-1.8-2.31-3.38-3.74-4.83c-0.9-0.92-2.32,0.5-1.41,1.41
				c2.37,2.4,4.27,5.09,4.65,8.53c0.2,1.78,0.15,3.58,0.15,5.36c0,1.79,0.05,3.59,0,5.38c-0.03,1.38-0.29,2.81-1.88,3.06
				c-0.67,0.11-1.38,0.03-2.05-0.04c-0.62-0.07-1.29-0.16-1.85-0.45c-0.53-0.28-0.69-0.69-0.81-1.26c-0.17-0.77-0.24-1.56-0.34-2.34
				c-0.21-1.73-0.4-3.47-0.76-5.18c-0.75-3.58-2.31-7.02-5.29-9.27c-0.43-0.33-1.12-0.07-1.37,0.36
				C233.64,177.33,233.86,177.86,234.3,178.19L234.3,178.19z"/>
		</g>
	</g>
	<g>
		<g>
			<path d="M248.39,190.64c0.23,2.56,1.41,4.99,3.76,6.23c2.22,1.17,5.02,0.97,6.84-0.87c1.15-1.17,1.39-2.63,1.49-4.21
				c0.12-1.8,0.19-3.61,0.23-5.41c0.07-3.55,0.14-7.23-0.58-10.73c-0.68-3.3-2.31-6.44-5.14-8.37c-1.07-0.72-2.07,1.01-1.01,1.73
				c4.73,3.21,4.74,9.81,4.75,14.9c0,1.56-0.02,3.12-0.08,4.68c-0.06,1.47,0,3.07-0.3,4.52c-0.43,2.04-2.69,2.92-4.55,2.3
				c-2.05-0.68-3.22-2.68-3.41-4.78c-0.05-0.54-0.42-1-1-1C248.89,189.64,248.34,190.1,248.39,190.64L248.39,190.64z"/>
		</g>
	</g>
	<g>
		<g>
			<path d="M264.32,185.35c-0.13,0.78-0.25,1.57-0.38,2.35c-0.03,0.17-0.06,0.33-0.1,0.5c-0.05,0.23,0.08-0.1-0.03,0.1
				c-0.03,0.05-0.17,0.23-0.03,0.06c-0.09,0.1-0.19,0.19-0.29,0.28c0.17-0.14-0.02,0.01-0.06,0.04c-0.07,0.05-0.14,0.09-0.21,0.13
				c-0.28,0.18-0.57,0.36-0.87,0.51c-0.08,0.04-0.17,0.08-0.25,0.13c-0.16,0.08,0.04,0-0.06,0.03c-0.16,0.05-0.32,0.1-0.49,0.14
				c-0.28,0.07,0.19,0-0.05,0.01c-0.08,0-0.15,0.01-0.23,0c-0.03,0-0.25-0.03-0.1,0s-0.06-0.02-0.09-0.03
				c-0.07-0.02-0.16-0.03-0.22-0.07c0.21,0.13,0.01-0.01-0.03-0.03c-0.17-0.09,0.1,0.13-0.03-0.02c-0.04-0.04-0.18-0.22-0.04-0.03
				c-0.3-0.42-0.88-0.67-1.37-0.36c-0.42,0.27-0.69,0.91-0.36,1.37c0.56,0.78,1.43,1.2,2.39,1.17c0.95-0.03,1.8-0.47,2.6-0.96
				c0.82-0.5,1.54-1.07,1.78-2.04c0.11-0.42,0.15-0.86,0.22-1.29c0.08-0.49,0.16-0.98,0.24-1.47c0.08-0.51-0.13-1.1-0.7-1.23
				C265.07,184.54,264.41,184.8,264.32,185.35L264.32,185.35z"/>
		</g>
	</g>
	<path class="st21" d="M227.59,185.94l-9.52,1.48c-0.2-1.32-0.7-4.1-0.37-5.39c0.53-2.08,2.3-3.58,3.99-4.92
		c1.38-1.09,2.8-2.22,3.64-3.76c0.25-0.46,0.45-0.96,0.75-1.39c0.96-1.4,2.74-1.92,4.18-2.81c3.17-1.97,5-6.01,8.61-6.99
		c1.42-0.38,2.91-0.22,4.37-0.06c1.43,0.16,2.86,0.32,4.29,0.48c0.62,0.07,1.28,0.13,1.85-0.13c0.5-0.24,0.86-0.7,1.29-1.05
		c1.39-1.15,3.38-1.1,5.19-0.99c1.01,0.06,2.04,0.13,2.96,0.54c0.94,0.42,1.69,1.17,2.37,1.95c1.65,1.89,3.5,4.23,4.52,6.52"/>
	<g>
		<g>
			<path d="M261.2,190.64c0,0.19,0.02,0.4,0,0.59c-0.01,0.09,0.35-0.23,0.13-0.13c-0.19,0.09-0.52,0.12-0.73,0.17
				c-0.25,0.06-0.54,0.17-0.79,0.2c0.17,0.05,0.34,0.09,0.5,0.14c-0.53-0.41-1.21,0-1.53,0.46c-0.27,0.39-0.42,0.84-0.59,1.28
				c-0.38,1.01-1.33,1.72-2.36,2c-1.23,0.33-2.41-0.14-3.42-0.84c-0.54-0.37-1.01-0.82-1.46-1.29c-0.55-0.56-1.26-0.93-2.01-0.45
				c-0.57,0.37-0.87,1.06-1.32,1.55c-0.46,0.5-1.02,0.79-1.69,0.9c-1.58,0.26-2.91-0.64-4.43-0.81c-0.76-0.08-1.49,0.18-2.24,0.29
				c-0.89,0.13-1.79,0.26-2.68,0.4c-1.63,0.24-3.26,0.48-4.88,0.72c-3.79,0.56-7.59,1.12-11.38,1.68c-0.55,0.08-0.81,0.76-0.7,1.23
				c1,4.46,2.66,8.73,4.78,12.77c0.8,1.52,1.66,3,2.54,4.47c1.17,1.96,2.3,3.84,4.11,5.28c1.03,0.82,2.14,1.54,3.33,2.09
				c1.29,0.6,2.72,0.92,3.92,1.69c1.09,0.7,2.09-1.03,1.01-1.73c-1.03-0.66-2.21-0.98-3.33-1.44c-1.04-0.42-2.04-0.99-2.96-1.63
				c-0.92-0.64-1.78-1.41-2.47-2.29c-0.64-0.82-1.14-1.75-1.67-2.64c-1.84-3.07-3.6-6.2-4.95-9.52c-1-2.46-1.79-5-2.38-7.59
				c-0.23,0.41-0.47,0.82-0.7,1.23c4.16-0.61,8.32-1.23,12.47-1.84c2.08-0.31,4.15-0.62,6.23-0.92c0.46-0.07,0.9-0.17,1.35-0.25
				c0.48-0.09,0.93,0.1,1.38,0.25c0.93,0.31,1.88,0.56,2.87,0.59c1,0.03,2.05-0.19,2.91-0.72c0.45-0.28,0.84-0.64,1.18-1.05
				c0.25-0.3,0.52-0.89,0.86-1.07c-0.17,0.05-0.34,0.09-0.5,0.14c-0.2-0.1-0.24-0.1-0.11,0.01c0.05,0.05,0.09,0.1,0.14,0.14
				c0.12,0.12,0.24,0.24,0.36,0.35c0.24,0.23,0.5,0.45,0.76,0.66c0.53,0.43,1.09,0.82,1.71,1.11c1.19,0.56,2.48,0.78,3.77,0.49
				c1.14-0.26,2.25-0.92,3-1.82c0.41-0.49,0.71-1.02,0.92-1.62c0.09-0.25,0.2-0.59,0.36-0.72c-0.24,0.1-0.47,0.2-0.71,0.29h0.01
				c-0.17-0.05-0.34-0.09-0.5-0.14c0.39,0.3,0.94,0.09,1.36,0c0.55-0.13,1.19-0.18,1.68-0.47c0.83-0.48,0.87-1.35,0.87-2.2
				C263.21,189.35,261.21,189.35,261.2,190.64L261.2,190.64z"/>
		</g>
	</g>
	<g>
		<g>
			<path d="M186.18,202.04c1.24-1.04,1.18-2.77,0.92-4.22c-0.26-1.42-0.88-2.86-2.19-3.59c-0.28-0.16-0.53,0.27-0.25,0.43
				c1.16,0.65,1.69,1.91,1.94,3.16c0.26,1.31,0.37,2.92-0.77,3.86C185.58,201.89,185.93,202.24,186.18,202.04L186.18,202.04z"/>
		</g>
	</g>
	<g>
		<g>
			<path d="M529.94,139.3c-0.09,0.24-0.2,0.28-0.4,0.42c-0.17,0.02-0.2,0.02-0.09,0.02c0.11,0.01,0.09,0-0.05-0.01
				c0.3,0.06,0.36,0.1,0.55,0.19c0.6,0.31,1.17,0.69,1.71,1.1c1.11,0.85,2.12,1.83,2.81,3.06c0.81,1.43,1.1,3,0.68,4.59
				c-0.08,0.3-0.17,0.6-0.29,0.88c0.02-0.04-0.11,0.22-0.14,0.27c-0.02,0.03-0.23,0.35-0.13,0.23c-0.04,0.05-0.08,0.09-0.13,0.14
				c-0.09,0.08-0.09,0.08,0,0.01c-0.1,0.06-0.09,0.05,0.02,0c0.14-0.01,0.15-0.01,0.03-0.01c0.2-0.05,0.18,0.12,0-0.06
				c-0.01-0.01-0.16-0.18-0.21-0.24c-0.32-0.43-0.86-0.65-1.37-0.36c-0.42,0.25-0.69,0.93-0.36,1.37c0.49,0.65,1.1,1.3,1.98,1.29
				c0.75,0,1.32-0.5,1.72-1.08c0.75-1.09,1.11-2.68,1.09-3.98c-0.04-3.68-2.74-6.65-5.69-8.51c-1.12-0.7-3.01-1.54-3.67,0.17
				c-0.2,0.5,0.22,1.1,0.7,1.23C529.27,140.15,529.74,139.81,529.94,139.3L529.94,139.3z"/>
		</g>
	</g>
	<g>
		<g>
			<path d="M531.12,151.74c0.69,1.06,1.36,1.95,2.57,2.43c0.32,0.13,0.74,0.32,1.09,0.33c0.64,0.02,0.33-0.12,0.48,0.16
				c0.44,0.83,0.77,1.84,1.21,2.7c1,1.95,2.17,3.88,2.88,5.95c0.39,1.14,0.79,2.28,1.2,3.41c1.52,4.23,3.14,8.42,4.84,12.58
				c2.77,6.77,5.79,13.43,8.45,20.24c2.52,6.44,4.58,13.04,5.88,19.85c1.7,8.88,2.19,17.96,2.16,26.99
				c-0.04,13.84-1.24,27.67-2.75,41.42c-1.05,9.55-2.28,19.07-3.61,28.59c-1.46,10.42-3.35,20.81-4.24,31.3
				c-0.88,10.41-0.43,20.87,2.9,30.85c1.62,4.88,3.7,9.59,5.47,14.42c1.77,4.84,3.01,9.78,3.85,14.86
				c0.86,5.24,1.42,10.52,2.43,15.73c0.45,2.33,0.84,4.86,1.86,7.02c0.89,1.86,2.5,2.98,4.39,3.69c9.24,3.48,19.71-0.53,28.25-4.13
				c9.07-3.82,17.81-8.36,26.81-12.33c9.46-4.18,19.17-7.43,29.43-8.94c10.76-1.58,21.71-1.96,32.55-2.69
				c11.01-0.74,22.01-1.48,33.02-2.22c5.45-0.37,10.9-0.73,16.35-1.1c0.69-0.05,1.08-0.6,0.96-1.27
				c-2.85-16.65-3.04-33.62-1.87-50.43c0.57-8.19,1.31-16.41,2.76-24.5c1.34-7.51,3.06-15.08,3.05-22.75
				c0-4.02-0.32-8.02-0.22-12.04c0.1-4.16,0.45-8.32,1.11-12.44c1.27-7.94,3.89-15.67,4.22-23.76c0.33-8.13-1.24-16.28-2.61-24.26
				c-1.37-8.01-2.93-15.98-4.71-23.91c-3.56-15.83-8.03-31.48-13.75-46.67c-1.44-3.82-3.11-7.56-4.3-11.46
				c-1.11-3.64-1.85-7.38-2.6-11.1c-0.75-3.74-1.54-7.47-2.75-11.09c-0.71-2.13-1.68-3.94-1.35-6.23c0.21-1.5,0.25-2.95-0.06-4.44
				c-0.54-2.67-2.29-5.96-4.84-7.21c-1.48-0.73-3.3,0.01-4.81,0.3c-1.91,0.37-3.85,0.44-5.77,0.81c-3.92,0.76-7.97,1.14-11.93,1.73
				c-3.98,0.59-7.96,1.18-11.93,1.77c-3.81,0.57-7.61,1.05-11.42,1.63c-3.89,0.59-7.84-0.01-11.71,0.63
				c-1.89,0.31-3.68,1.01-5.52,1.51c-1.98,0.54-3.97,0.98-5.99,1.36c-4.03,0.76-8.1,1.28-12.16,1.84
				c-4.09,0.57-8.18,1.16-12.26,1.82c-4.28,0.69-8.53,1.56-12.86,1.91c-2.07,0.17-4.14,0.23-6.22,0.16
				c-1.79-0.06-3.59-0.21-5.37,0.13c-1.85,0.35-3.57,1.21-5.37,1.75c-1.87,0.55-3.79,0.91-5.71,1.22
				c-16.22,2.65-32.51,4.9-48.77,7.35c-2.56,0.39-7.13,0.11-7.4,3.56c-0.08,0.97,1.1,1.18,1.71,0.71c0.02-0.02,0.04-0.03,0.06-0.05
				c0.82-0.64-0.08-1.92-0.97-1.67c-0.02,0.01-0.05,0.01-0.07,0.02c-1.24,0.34-0.71,2.27,0.53,1.93c0.02-0.01,0.05-0.01,0.07-0.02
				c-0.32-0.56-0.65-1.11-0.97-1.67c-0.02,0.02-0.04,0.03-0.06,0.05c0.57,0.24,1.14,0.47,1.71,0.71c0.11-1.34,4.93-1.49,5.94-1.64
				c1.99-0.3,3.99-0.59,5.98-0.89c3.91-0.58,7.82-1.16,11.73-1.74c7.98-1.19,15.98-2.31,23.95-3.58c3.8-0.6,7.67-1.06,11.41-1.97
				c1.77-0.44,3.43-1.14,5.16-1.7c1.95-0.63,3.86-0.59,5.89-0.51c8.07,0.33,15.93-1.49,23.86-2.68c7.91-1.19,15.94-1.95,23.75-3.72
				c3.74-0.85,7.3-2.36,11.18-2.44c1.97-0.04,3.93,0.08,5.9-0.07c1.85-0.14,3.64-0.47,5.46-0.8c1.71-0.3,3.43-0.29,5.15-0.58
				c1.88-0.32,3.76-0.6,5.65-0.88c4.01-0.6,8.03-1.19,12.04-1.79c3.75-0.56,7.5-1.05,11.24-1.68c1.84-0.31,3.69-0.39,5.53-0.77
				c1.2-0.25,2.33-0.54,3.33,0.37c0.77,0.7,1.4,1.52,1.91,2.43c0.77,1.38,1.2,2.95,1.24,4.53c0.04,1.73-0.62,3.36-0.15,5.07
				c0.5,1.82,1.29,3.57,1.84,5.38c0.58,1.92,1.07,3.87,1.5,5.84c0.77,3.47,1.37,6.98,2.19,10.44c0.91,3.83,2.2,7.48,3.65,11.14
				c5.84,14.71,10.46,29.89,14.17,45.27c1.83,7.6,3.45,15.26,4.88,22.94c1.48,7.95,3.07,16.01,3.68,24.09
				c0.32,4.23,0.22,8.46-0.45,12.66c-0.61,3.8-1.55,7.54-2.37,11.3c-1.69,7.68-2.49,15.46-2.39,23.32
				c0.05,3.83,0.37,7.64,0.11,11.48c-0.26,3.9-0.89,7.76-1.58,11.6c-1.35,7.52-2.58,14.97-3.32,22.59
				c-1.58,16.23-2.13,32.64-0.43,48.88c0.4,3.84,0.93,7.67,1.58,11.47c0.32-0.42,0.64-0.84,0.96-1.27
				c-21.87,1.47-43.74,2.91-65.61,4.42c-10.23,0.71-20.49,1.67-30.36,4.61c-9.41,2.8-18.32,6.99-27.17,11.19
				c-8.95,4.25-18.05,9.07-27.73,11.42c-4.83,1.18-10.4,1.71-15.13-0.2c-2.81-1.14-3.47-3.54-4.11-6.27
				c-0.58-2.48-1.02-4.99-1.41-7.51c-0.81-5.24-1.39-10.52-2.48-15.72c-1.05-5-2.74-9.77-4.6-14.51c-1.84-4.69-3.78-9.35-5.07-14.23
				c-1.36-5.11-1.95-10.38-2.04-15.66c-0.17-10.7,1.63-21.29,3.2-31.84c1.46-9.82,2.8-19.66,4-29.52
				c1.78-14.72,3.29-29.5,3.71-44.33c0.28-9.66,0.07-19.36-1.31-28.94c-1.01-7.01-2.75-13.87-5.12-20.54
				c-2.34-6.57-5.2-12.95-7.91-19.37c-1.58-3.75-3.13-7.51-4.59-11.31c-0.85-2.2-1.66-4.4-2.46-6.62c-0.41-1.14-0.81-2.28-1.2-3.43
				c-0.67-1.97-1.78-3.79-2.72-5.64c-0.47-0.92-0.98-1.8-1.25-2.78c-0.13-0.5-0.18-0.92-0.67-1.21c-0.72-0.43-1.73-0.27-2.48-0.72
				c-0.56-0.33-0.87-0.89-1.22-1.42C532.15,149.66,530.42,150.66,531.12,151.74L531.12,151.74z"/>
		</g>
	</g>
	<g>
		<g>
			<path d="M535.14,154.43c1.3,0.28,2.68,0.04,3.97-0.18c2.23-0.38,4.43-0.92,6.63-1.44c3.56-0.84,7.12-1.7,10.68-2.52
				c5.2-1.2,10.41-2.35,15.64-3.43c7.14-1.48,14.31-2.86,21.49-4.15c1.05-0.19,2.1-0.38,3.14-0.56c0.53-0.09,0.83-0.74,0.7-1.23
				c-0.15-0.56-0.7-0.79-1.23-0.7c-7.38,1.31-14.76,2.7-22.1,4.19c-5.45,1.11-10.89,2.28-16.31,3.52
				c-3.75,0.86-7.49,1.75-11.23,2.64c-2.38,0.57-4.75,1.15-7.15,1.61c-0.41,0.08-0.82,0.15-1.23,0.21
				c-0.09,0.01-0.19,0.03-0.28,0.04c-0.04,0.01-0.08,0.01-0.13,0.02c-0.15,0.02,0.28-0.03,0.08-0.01c-0.17,0.02-0.34,0.04-0.5,0.06
				c-0.53,0.05-1.05,0.03-1.58,0.02c-0.16,0,0.32,0.06,0.09,0.01c-0.05-0.01-0.1-0.02-0.15-0.03
				C534.42,152.23,533.88,154.16,535.14,154.43L535.14,154.43z"/>
		</g>
	</g>
	<g>
		<g>
			<path d="M596.71,142.14c0.08-0.01,0.16-0.02,0.24-0.04c0.04-0.01,0.09-0.01,0.13-0.02c0.18-0.03-0.27,0.03-0.03,0
				c0.3-0.04,0.6-0.08,0.9-0.11c0.87-0.11,1.74-0.2,2.61-0.3c2.49-0.28,4.98-0.55,7.47-0.82c5.44-0.59,10.89-1.16,16.33-1.77
				c1.66-0.19,3.34-0.34,4.99-0.61c0.53-0.09,0.83-0.75,0.7-1.23c-0.16-0.57-0.69-0.78-1.23-0.7c-0.08,0.01-0.16,0.03-0.24,0.04
				c-0.04,0.01-0.09,0.01-0.13,0.02c-0.18,0.03,0.27-0.03,0.03,0c-0.3,0.04-0.6,0.08-0.9,0.11c-0.87,0.11-1.74,0.2-2.61,0.3
				c-2.49,0.28-4.98,0.55-7.47,0.82c-5.44,0.59-10.89,1.16-16.33,1.77c-1.66,0.19-3.34,0.34-4.99,0.61
				c-0.53,0.09-0.83,0.75-0.7,1.23C595.63,142.01,596.17,142.22,596.71,142.14L596.71,142.14z"/>
		</g>
	</g>
	<g>
		<g>
			<path d="M629.37,138.48c12.17-1.93,24.27-4.3,36.42-6.38c6.1-1.04,12.22-1.96,18.32-2.99c4.97-0.84,9.94-1.48,14.94-2.05
				c5.55-0.63,11.14-1.2,16.63-2.29c1.26-0.25,0.73-2.18-0.53-1.93c-9.67,1.93-19.57,2.28-29.27,3.95c-6.12,1.05-12.25,1.97-18.37,3
				c-6.09,1.02-12.17,2.13-18.24,3.23c-6.8,1.23-13.6,2.45-20.42,3.53c-0.53,0.08-0.83,0.75-0.7,1.23
				C628.29,138.35,628.83,138.56,629.37,138.48L629.37,138.48z"/>
		</g>
	</g>
	<path class="st21" d="M721.37,106.21c2.19-3.53,6.01-5.87,10.36-5.87c6.79,0,12.3,5.71,12.3,12.75s-5.51,12.75-12.3,12.75
		c-2.51,0-4.3-0.61-6.25-1.95"/>
</g>
</svg>
