<?xml version="1.0" encoding="utf-8"?>
<!-- Generator: Adobe Illustrator 28.0.0, SVG Export Plug-In . SVG Version: 6.00 Build 0)  -->
<svg version="1.1" id="Layer_1" xmlns="http://www.w3.org/2000/svg" xmlns:xlink="http://www.w3.org/1999/xlink" x="0px" y="0px"
	 viewBox="0 0 150 150" style="enable-background:new 0 0 150 150;" xml:space="preserve">
<style type="text/css">
	.st0{fill:#040404;stroke:#000000;stroke-width:2;stroke-linecap:round;stroke-linejoin:round;stroke-miterlimit:10;}
	.st1{fill:#1C1F23;}
	.st2{fill:url(#SVGID_1_);}
	.st3{fill:url(#SVGID_00000039120607800127723140000003502786166235482046_);}
	.st4{fill:url(#SVGID_00000106149196637061078050000010484843296048010625_);}
	.st5{fill:url(#SVGID_00000056413259910935331500000011511900524786066352_);}
	.st6{fill:url(#SVGID_00000079484002547183275080000006393276943124300479_);}
	.st7{fill:url(#SVGID_00000075847754184379901030000012798297229721479082_);}
	.st8{fill:url(#SVGID_00000072960082326019737850000005438831194233730730_);}
	.st9{fill:url(#SVGID_00000010277945890156924640000006928289909558814106_);}
	.st10{fill:url(#SVGID_00000085930325150495601370000009904534375861476485_);}
	.st11{fill:url(#SVGID_00000025411626324348106550000001086369217763116471_);}
	.st12{fill:url(#SVGID_00000169536455697716795420000010969767564617246628_);}
	.st13{fill:url(#SVGID_00000134248381729569574260000006068135765732120197_);}
	.st14{fill:url(#SVGID_00000087400949186574821580000004834625506678006936_);}
	.st15{fill:url(#SVGID_00000158750220173232048630000012088617511212066459_);}
	.st16{fill:url(#SVGID_00000003068516668270591450000006057367457993704607_);}
	.st17{fill:url(#SVGID_00000062155044133084729330000003527052145188905382_);}
	.st18{fill:url(#SVGID_00000139980475075244528350000006963559247958198442_);}
	.st19{fill:url(#SVGID_00000056422023795245016220000016210655720347402934_);}
	.st20{fill:url(#SVGID_00000127011312617807530500000004461225759823626124_);}
	.st21{fill:url(#SVGID_00000086658695725724958270000004372865014588116878_);}
	.st22{fill:url(#SVGID_00000111889977115439768510000016427864445115090560_);}
	.st23{fill:url(#SVGID_00000127734411325784587540000007196942292185759161_);}
	.st24{fill:url(#SVGID_00000072244732254348740950000017027150497454194592_);}
	.st25{fill:#040404;}
</style>
<g id="Pasha_Top">
	<g>
		<g>
			<path class="st0" d="M41.46,24.11c-0.02,0.05-0.04,0.11-0.04,0.18c0.01,1.58,0.15,3.16,0.33,4.73c0.18,1.56,0.39,3.13,0.76,4.66
				c0.76,3.14,2.22,6.16,4.39,8.57c1.95,2.17,4.53,3.8,7.45,4.2c1.87,0.25,3.77,0.09,5.65,0.18c1.85,0.09,3.69,0.3,5.53,0.53
				c6.6,0.83,13.92,1.82,19.78-2.12c4.88-3.28,7.61-8.76,12.09-12.47c1.19-0.99,2.52-1.85,3.44-3.13c0.92-1.29,1.07-2.95,1.98-4.24
				c0.71-1.01,1.71-1.82,2.64-2.62c0.97-0.84,1.97-1.7,2.7-2.78c0.31-0.47,0.56-0.98,0.7-1.53c0.04-0.16-0.01-0.29-0.09-0.38
				c0.12-0.12,0.17-0.3,0.05-0.49c-0.4-0.62-0.39-1.4-0.69-2.06c-0.36-0.77-1.1-1.1-1.87-1.33c-1.93-0.58-3.86-1.15-5.79-1.73
				s-3.87-1.16-5.8-1.73c-0.92-0.27-1.85-0.61-2.79-0.78c-0.72-0.13-1.48-0.14-2.17,0.13c-0.63,0.24-1.18,0.7-1.08,1.44
				c0.01,0.06,0.05,0.22,0.03,0.28c-0.01,0.03-0.04,0.03-0.07,0.06c-0.15,0.13-0.45,0.2-0.63,0.28c-0.45,0.19-0.9,0.39-1.36,0.58
				c-1.79,0.76-3.59,1.51-5.42,2.18c-3.66,1.35-7.44,2.4-11.33,2.83c-0.86,0.1-1.72,0.23-2.58,0.27c-0.83,0.04-1.61-0.12-2.43-0.24
				c-0.76-0.11-1.58-0.21-2.26-0.58c-0.37-0.2-0.69-0.5-1.08-0.67c-0.4-0.18-0.82-0.27-1.23-0.4c-0.34-0.11-0.68-0.28-0.87-0.6
				c-0.11-0.18-0.28-0.23-0.44-0.2c-0.05-0.02-0.1-0.03-0.17-0.03c-0.73,0.01-1.44-0.13-2.17-0.2c-0.68-0.06-1.36,0-2.02,0.2
				c-0.68,0.21-1.33,0.54-1.97,0.84c-0.65,0.31-1.31,0.61-1.96,0.92c-0.03,0.01-0.06,0.03-0.08,0.04c-0.73,0.29-1.45,0.63-2.15,1
				c-0.6,0.28-1.19,0.56-1.79,0.84c-0.64,0.3-1.29,0.6-1.93,0.9c-0.58,0.27-1.16,0.55-1.67,0.93c-1.11,0.81-1.95,2.11-1.6,3.53
				C41.44,24.09,41.45,24.09,41.46,24.11z"/>
			<path class="st0" d="M133.9,67.18c-0.19-1.41-0.42-2.8-0.7-4.19c-0.14-0.7-0.29-1.39-0.45-2.08c-0.13-0.58-0.25-1.17-0.5-1.72
				c-0.44-0.94-1.29-1.48-2.3-1.5c-3.11-0.95-6.31-1.69-9.54-2.01c-0.87-0.09-1.75-0.14-2.63-0.14c-0.94,0-1.87,0.12-2.8,0.21
				c-1.09,0.1-2.16,0.05-3.24,0.01c-0.99-0.04-1.97-0.06-2.96-0.07c-2.18-0.03-4.36-0.05-6.53-0.29c-0.14-0.22-0.1-0.5-0.23-0.74
				c-0.17-0.32-0.57-0.44-0.89-0.28c-0.54,0.26-0.57,0.9-0.5,1.42c0.09,0.6,0.3,1.19,0.47,1.78c0.2,0.69,0.37,1.4,0.6,2.07
				c0.42,1.19,1.33,1.97,2.51,2.37c0.6,0.2,1.22,0.29,1.84,0.38c0.76,0.11,1.51,0.22,2.27,0.33c3.1,0.45,6.2,0.9,9.3,1.34
				c3,0.43,6.04,0.82,8.97,1.64c1.46,0.41,2.82,1.04,3.91,2.13c0.53,0.53,0.96,1.14,1.26,1.83c0.31,0.74,0.49,1.53,0.67,2.31
				c0.02,0.08,0.06,0.14,0.1,0.19c0.09,0.14,0.25,0.23,0.46,0.16c0.91-0.31,1.22-1.18,1.24-2.08
				C134.23,69.23,134.03,68.18,133.9,67.18z"/>
			<path class="st0" d="M128.07,82.06c-0.01-0.06-0.02-0.12-0.05-0.17c-0.57-1.22-1.86-1.99-2.94-2.71
				c-1.22-0.82-2.5-1.53-3.77-2.26c-2.53-1.47-4.95-3.11-7.31-4.84c-0.01,0-0.01-0.01-0.02-0.01c-0.01-0.02-0.03-0.03-0.04-0.05
				c-0.51-0.58-1.24-1.28-2.04-1.48c-0.26-0.14-0.53-0.27-0.8-0.39c-0.36-0.16-0.7-0.31-1.09-0.36c-0.13-0.02-0.24,0.07-0.32,0.17
				c0,0,0,0-0.01,0c-0.02,0.03-0.04,0.06-0.07,0.09c-0.47,0.56-0.82,1.21-0.99,1.92c-0.2,0.85-0.16,1.73-0.15,2.59
				c0.01,0.91,0.02,1.81,0.02,2.72c0.01,0.82-0.05,1.69,0.21,2.48c0.26,0.77,0.87,1.39,0.99,2.2c0.02,0.14,0.14,0.24,0.27,0.28
				c0.26,0.33,0.63,0.56,1.02,0.72c0.26,0.11,0.52,0.19,0.78,0.29c0.3,0.11,0.58,0.28,0.86,0.44c1.16,0.65,2.34,1.28,3.49,1.97
				c2.26,1.34,4.44,2.87,6.22,4.82c0.5,0.55,0.99,1.11,1.44,1.7c0.4,0.52,0.76,1.02,1.34,1.35c0.39,0.23,0.74-0.21,0.62-0.54
				c0.02-0.05,0.03-0.1,0.04-0.15c0.01-0.07,0.2-0.18,0.25-0.22c0.15-0.11,0.3-0.21,0.43-0.34c0.32-0.34,0.47-0.79,0.65-1.21
				c0.4-0.97,0.78-1.95,1.06-2.96c0.53-1.94,0.68-4.05-0.06-5.95C128.11,82.11,128.09,82.08,128.07,82.06z"/>
			<path class="st0" d="M123.28,102.13c-0.04-0.11-0.1-0.18-0.18-0.23l-0.01-0.01c-3.1-2.4-6.12-4.9-9.05-7.5
				c-0.84-0.74-1.67-1.49-2.49-2.25c-0.2-0.19-0.45-0.13-0.61,0.01c-0.11,0.02-0.22,0.07-0.3,0.19c-0.85,1.21-1.23,2.68-1.33,4.14
				c-0.1,1.49,0.1,3.08,0.91,4.37c0.81,1.29,2.23,1.83,3.44,2.64c1.34,0.9,2.62,1.89,3.84,2.94c0.67,0.57,1.31,1.17,1.94,1.78
				c0.31,0.31,0.62,0.62,0.93,0.94c0.32,0.33,0.61,0.7,0.95,1c0.25,0.23,0.62,0.13,0.73-0.19c0.21-0.62,0.53-1.19,0.78-1.79
				c0.26-0.63,0.39-1.3,0.5-1.97c0.11-0.71,0.21-1.43,0.21-2.14c0-0.12-0.01-0.24-0.02-0.37
				C123.5,103.17,123.44,102.65,123.28,102.13z"/>
			<path class="st0" d="M99.13,46.08c-0.04,0.04-0.06,0.08-0.08,0.12c-0.05,0.05-0.09,0.11-0.12,0.18
				c-0.02,0.06-0.09,0.12-0.12,0.17c-0.06,0.09-0.11,0.2-0.15,0.3c-0.08,0.21-0.12,0.43-0.13,0.65c-0.02,0.44,0.09,0.88,0.19,1.3
				c0.11,0.46,0.22,0.92,0.39,1.37c0.09,0.24,0.18,0.49,0.3,0.71c0.02,0.04,0.05,0.05,0.08,0.08c0.04,0.05,0.07,0.09,0.11,0.12
				c0.02,0.02,0.04,0.03,0.06,0.05c0.04,0.02,0.09,0.03,0.13,0.04c0.06,0.03,0.11,0.07,0.18,0.09c0.03,0.01,0.05,0,0.08,0
				c0.27,0.06,0.53,0.04,0.81-0.12c0.34-0.19,0.62-0.49,0.94-0.7c0.8-0.53,1.64-0.98,2.51-1.37c1.75-0.79,3.61-1.31,5.49-1.68
				c1.54-0.3,3.09-0.52,4.63-0.81c1.62-0.3,3.23-0.62,4.85-0.92c1.67-0.31,3.35-0.61,5.04-0.81c0.02,0,0.03-0.01,0.04-0.01
				c0.02,0,0.04,0.01,0.06,0.01c0.21,0,0.47-0.2,0.44-0.44c-0.09-0.71,0-1.43,0-2.14c0-0.95-0.11-1.9-0.32-2.83
				c-0.43-1.95-1.39-3.66-2.36-5.38c-0.57-1.01-1.14-2.01-1.73-3.01c-0.1-0.17-0.27-0.23-0.42-0.2c-0.17-0.06-0.36-0.02-0.46,0.2
				c-0.5,1.07-1.59,1.88-2.52,2.57c-1.16,0.86-2.38,1.63-3.58,2.42c-1.4,0.92-2.71,1.97-4.07,2.95c-1.65,1.19-3.34,2.3-5.09,3.35
				C102.49,43.45,100.66,44.57,99.13,46.08z"/>
			<path class="st0" d="M109.58,133.28c-0.07-1.11-0.13-2.23-0.18-3.34c-0.11-2.23-0.21-4.45-0.25-6.68c-0.02-1.11-0.02-2.23,0-3.34
				c0.01-0.53,0.05-1.07-0.06-1.6c-0.08-0.42-0.3-0.82-0.51-1.19c-0.16-0.27-0.34-0.53-0.52-0.79c0.03-0.07,0.05-0.14,0.03-0.23
				c-0.1-0.62-0.2-1.25-0.37-1.85c-0.08-0.27-0.18-0.53-0.24-0.8c-0.07-0.32-0.01-0.65,0.02-0.97c0.1-1.21-0.64-2.1-1.13-3.13
				c-0.52-1.1-0.75-2.31-1.03-3.49c-0.32-1.3-0.55-2.64-0.94-3.92c-0.18-0.6-0.45-1.19-0.56-1.81c-0.11-0.59-0.02-1.22,0.01-1.82
				c0.03-0.61-0.06-1.16-0.15-1.77c-0.1-0.63-0.06-1.28,0-1.91c0.02-0.25-0.02-0.68,0.1-0.9c0.1-0.2,0.44-0.26,0.62-0.38
				c0.36-0.26,0.59-0.66,0.68-1.1c0.2-1-0.18-2.03-0.68-2.88c-0.6-1.02-1.47-1.87-2.37-2.63c-0.93-0.79-1.95-1.78-3.19-2.01
				c-0.29-0.05-0.57,0.18-0.49,0.49c0.09,0.36,0.09,0.51-0.29,0.5c-0.47-0.02-0.92-0.22-1.37-0.3c-1.43-0.25-2.86-0.01-4.28,0.21
				c-1.48,0.22-2.9,0.24-4.39,0.05c-1.49-0.2-2.98-0.48-4.47-0.67c-1.5-0.2-3-0.31-4.51-0.2s-3.01,0.37-4.52,0.43
				c-1.5,0.05-3.01-0.02-4.51-0.06c-1.5-0.05-3-0.1-4.5-0.15c-1.52-0.05-3.04-0.12-4.55-0.14c-0.8-0.01-1.66,0.3-2.44,0.49
				c-2.01,0.49-4.01,1-6.01,1.53c-1.49,0.39-2.98,0.83-4.47,1.22c-0.62,0.16-1.23,0.35-1.85,0.47c-0.31,0.06-0.63,0.1-0.94,0.09
				c-0.12,0-0.19-0.01-0.32-0.04c-0.09-0.03-0.04-0.01-0.09-0.04c-0.01,0-0.07-0.06-0.05-0.03c-0.05-0.07-0.05-0.08-0.04-0.18
				c0.02-0.18,0.12-0.36,0.17-0.54c0.07-0.27,0.02-0.54-0.2-0.72c-0.26-0.2-0.58-0.14-0.89-0.11c-1.18,0.14-2.41,0.41-3.26,1.32
				c-0.21,0.23-0.4,0.47-0.57,0.73c-0.26,0.32-0.47,0.68-0.64,1.06c-0.23,0.4-0.47,0.81-0.62,1.24c-0.22,0.63-0.18,1.31-0.17,1.97
				c0.01,0.32,0.02,0.64-0.04,0.95c-0.05,0.32-0.25,0.64-0.25,0.97c0,0.31,0.18,0.52,0.38,0.74c0.18,0.2,0.32,0.42,0.41,0.67
				c0.2,0.51,0.27,1.06,0.31,1.6c0.09,1.27,0.11,2.56,0.09,3.83c-0.03,1.49-0.17,3.01-0.03,4.49c0.13,1.36,0.52,2.7,0.42,4.08
				c-0.06,0.76-0.33,1.45-0.51,2.18c-0.17,0.71-0.22,1.45-0.2,2.19c0.04,1.53,0.26,3.07,0.41,4.59c0.15,1.55,0.3,3.11,0.46,4.66
				c0.14,1.4,0.43,2.92-0.02,4.29c-0.36,1.1-1.05,2.43-0.13,3.47c0.3,0.33,0.97,0.56,1,1.05c0.02,0.27-0.07,0.54-0.07,0.81
				c0.01,0.31,0.1,0.61,0.32,0.84c0.42,0.47,1.06,0.83,1.59,1.17c0.56,0.37,1.13,0.7,1.75,0.95c1.23,0.51,2.53,0.59,3.82,0.24
				c1.2-0.32,2.33-0.92,3.56-1.13c0.62-0.11,1.25-0.14,1.85-0.3c0.52-0.14,0.97-0.4,1.38-0.74c0.79-0.65,1.36-1.58,2.29-2.03
				c0.22-0.1,0.54-0.12,0.67-0.34c0.16-0.26,0.21-0.62,0.33-0.89c0.25-0.54,0.57-1.06,0.94-1.53c1.53-1.95,3.77-3.32,5.85-4.6
				c1.91-1.18,3.92-2.17,6-3.01c1.14-0.46,2.3-0.88,3.46-1.29c0.02,0,0.04,0,0.05,0.01c2.14,1.43,4.37,2.73,6.68,3.87
				c2.94,1.45,6,2.67,9.14,3.61c0.24,0.07,0.48,0.13,0.72,0.2c0.02,0.04,0.04,0.08,0.08,0.12c2.49,2.55,5.51,4.6,8.6,6.35
				c1.6,0.91,3.25,1.75,4.94,2.5c0.79,0.35,1.58,0.68,2.39,0.99c0.37,0.14,0.82,0.4,1.22,0.34c0.32-0.05,0.68-0.17,0.86-0.47
				c0.14-0.22,0.12-0.5,0.04-0.74c-0.03-0.09-0.07-0.17-0.1-0.26c-0.01-0.03-0.02-0.07-0.03-0.1c0.05-0.03,0.1-0.07,0.13-0.1
				c0.18-0.13,0.36-0.27,0.52-0.42c0.29-0.29,0.51-0.67,0.49-1.09c-0.03-0.5-0.37-0.9-0.52-1.37
				C109.67,134.25,109.62,133.76,109.58,133.28z"/>
		</g>
		<path class="st1" d="M51.58,16.79c-2.1,1.17-4.03,2.68-6.31,3.44c-0.9,0.3-1.91,0.51-2.53,1.24c-0.53,0.62-0.65,1.48-0.65,2.29
			c-0.03,3.92,0.59,8.18,1.88,11.89c1.29,3.67,3.65,7.12,7.11,8.9c3.49,1.81,7.6,1.61,11.41,1.95c4.43,0.39,8.88,0.64,13.33,0.75
			c1.17,0.03,2.36,0.05,3.51-0.21c1.21-0.27,2.33-0.83,3.42-1.4c2.98-1.55,6-3.24,8.13-5.83c0.83-1,1.5-2.12,2.24-3.19
			c1.05-1.51,2.24-2.92,3.64-4.12c1.26-1.08,2.89-1.7,3.89-3.05c0.92-1.25,1.22-2.85,2.02-4.18c0.46-0.76,1.07-1.41,1.72-2.01
			c1.12-1.04,2.37-1.96,3.24-3.22s1.26-2.99,0.49-4.3c-0.93-1.58-3.02-1.89-4.8-2.29c-3.79-0.84-7.32-2.75-11.18-3.2
			c-1-0.12-1.68-0.14-2.57,0.38c-0.05,0.03-0.1,0.06-0.13,0.11c-0.04,0.06-0.05,0.15-0.05,0.22c0,0.13-0.01,0.25-0.01,0.38
			c0,0.07-0.01,0.14-0.04,0.19c-0.03,0.05-0.08,0.08-0.13,0.11c-2.14,1.35-4.57,2.28-6.92,3.2c-3.25,1.27-6.52,2.54-9.95,3.16
			c-1.77,0.32-3.58,0.46-5.38,0.33c-0.89-0.06-1.78-0.19-2.65-0.4c-0.54-0.13-1.52-0.29-1.97-0.62c-0.15-0.11-0.25-0.28-0.39-0.4
			c-0.24-0.22-0.59-0.29-0.88-0.44c-0.4-0.21-0.7-0.59-1.13-0.75c-0.37-0.13-0.76-0.07-1.14-0.12c-0.36-0.04-0.5-0.23-0.79-0.33
			c-0.65-0.22-1.63-0.09-2.29,0C54.24,15.48,52.85,16.07,51.58,16.79z"/>
		<path class="st1" d="M119,99.29c-0.87-0.56-1.71-1.14-2.44-1.87c-0.54-0.54-1.01-1.16-1.52-1.73c-0.86-0.97-1.85-1.82-2.93-2.54
			c-0.29-0.19-0.65-0.38-0.96-0.23c-0.21,0.1-0.33,0.33-0.42,0.54c-0.52,1.2-0.58,2.33-0.6,3.6c-0.02,1.19,0.12,2.42,0.91,3.38
			c0.1,0.34,0.27,0.67,0.52,0.98c0.1,0.12,0.24,0.2,0.39,0.24c0.5,0.45,1.17,0.82,1.59,1.11c2.6,1.81,5.22,3.26,7.29,5.73
			c0.41,0.49,0.86,1.03,1.49,1.11c0.21-0.59,0.42-1.17,0.63-1.76c0.08-0.23,0.17-0.46,0.24-0.69c0.31-1.01,0.42-2.09,0.31-3.15
			c-0.06-0.6-0.2-1.2-0.54-1.7c-0.16-0.24-0.37-0.44-0.58-0.63C121.38,100.74,120.17,100.04,119,99.29z"/>
		<path class="st1" d="M46.42,136.76c1.86,0.22,3.6-1.15,5.48-1.08c0.5,0.02,0.99,0.14,1.48,0.05c0.9-0.16,1.48-0.94,2.1-1.54
			c0.71-0.7,1.42-0.97,2.24-1.45c0.47-0.27,0.58-0.88,0.74-1.39c0.52-1.6,1.94-2.7,3.28-3.71c2.25-1.68,4.52-3.38,7.06-4.58
			c1.15-0.54,2.34-0.98,3.55-1.37c0.7-0.23,1.41-0.45,2.15-0.45c2.53-0.02,4.73,2.23,6.87,3.33c3.26,1.67,6.81,2.64,10.13,4.12
			c0.22,0.1,0.45,0.2,0.65,0.35c0.21,0.16,0.37,0.38,0.54,0.58c0.85,1,2.16,2,3.26,2.7c2.16,1.38,4.33,2.76,6.6,3.94
			c1.13,0.59,2.29,1.14,3.47,1.61c0.58,0.23,1.24,0.56,1.86,0.66c0.2,0.03,1.36-0.14,1.42-0.02c-0.28-0.52-0.14-1.24,0.33-1.62
			c0.19-0.15,0.43-0.27,0.49-0.5c0.04-0.17-0.03-0.34-0.09-0.5c-0.68-1.69-0.78-3.56-0.85-5.38c-0.05-1.26-0.07-2.51-0.07-3.77
			c-0.01-2.41,0.02-4.82-0.04-7.21c-0.01-0.4-0.02-0.81-0.09-1.2c-0.19-1.1-0.79-2.06-1.21-3.07c-0.46-1.12-0.24-1.99-0.41-3.13
			c-0.06-0.4-0.23-0.78-0.4-1.15c-2.16-4.72-3.34-9.99-3.55-15.18c-0.02-0.56-0.03-1.13,0.08-1.69c0.03-0.15,0.07-0.31,0.19-0.42
			c0.14-0.13,0.34-0.17,0.52-0.23c0.55-0.2,0.91-0.76,0.99-1.34s-0.07-1.17-0.31-1.7c-0.85-1.94-2.63-3.23-4.39-4.3
			c-0.31-0.18-1.18-0.93-1.57-0.67c-0.03,0.02-0.06,0.06-0.07,0.09c-0.09,0.16-0.17,0.34-0.33,0.43c-0.22,0.13-0.51,0.04-0.74-0.06
			c-0.66-0.29-1.44-0.08-2.14-0.04c-0.75,0.04-1.5,0.07-2.25,0.1c-1.53,0.06-3.07,0.12-4.6,0.01c-1.68-0.12-3.33-0.44-5-0.61
			c-1.43-0.15-2.87-0.17-4.31-0.17c-1.34-0.01-2.58,0.15-3.93,0.3c-3.02,0.34-6.08,0.36-9.11,0.05c-1.23-0.12-2.47-0.3-3.71-0.26
			c-1.46,0.05-2.9,0.4-4.32,0.75c-4.24,1.04-8.47,2.07-12.71,3.11c-0.49,0.12-1.24,0.02-1.17-0.47c0.04-0.33,0.47-0.55,0.39-0.87
			c-0.06-0.24-0.37-0.31-0.61-0.33c-0.37-0.03-0.75-0.06-1.12,0.01c-1.54,0.29-2.75,1.65-3.32,3.04c-0.48,1.17-0.63,2.44-0.74,3.69
			c-0.02,0.28-0.05,0.56,0.02,0.83c0.85,3.49,1.27,6.94,0.94,10.54c-0.05,0.52-0.11,1.05-0.03,1.56c0.08,0.49,0.29,0.95,0.4,1.43
			c0.32,1.39-0.19,2.77-0.4,4.13c-0.22,1.38-0.19,2.77-0.1,4.16c0.2,3.09,0.78,6.14,0.96,9.23c0.05,0.87,0.06,1.76-0.18,2.6
			c-0.18,0.61-0.49,1.18-0.6,1.8s0.03,1.36,0.56,1.7c0.27,0.17,0.64,0.24,0.8,0.53c0.19,0.34,0.03,0.81,0.09,1.18
			c0.09,0.53,0.33,0.89,0.75,1.23C43.45,136.04,44.95,136.59,46.42,136.76z"/>
		<path class="st1" d="M104.91,48.08c0.29-0.16,0.68-0.18,1.01-0.25c0.37-0.08,0.74-0.17,1.11-0.23c0.71-0.13,1.4-0.35,2.1-0.55
			c1.36-0.38,2.72-0.73,4.11-1.01c1.34-0.27,2.68-0.46,4.03-0.62c1.38-0.16,2.78-0.33,4.1-0.76c1.15-0.01,2.72,0.15,3.14-1.18
			c0.03-0.09,0.05-0.18,0.07-0.27c0,0.14,0.01,0.27,0.03,0.41c0,0.01,0,0.02,0.01,0.03c0.01-0.12,0.03-0.24,0.03-0.36
			c0-0.1,0.04-0.18,0.08-0.24c0.02-0.23,0.04-0.47,0.04-0.7c0-0.13,0.04-0.23,0.1-0.32c0-0.03,0-0.06,0-0.09
			c-0.04-0.05-0.07-0.1-0.09-0.16c-0.27-1.06-0.4-2.14-0.62-3.2c-0.09-0.42-0.31-0.82-0.47-1.21c-0.18-0.44-0.35-0.89-0.48-1.35
			c-0.02-0.07-0.03-0.14-0.02-0.2c-0.31-0.66-0.63-1.31-0.99-1.94c-0.04-0.07-0.06-0.14-0.07-0.2c-0.21-0.34-0.46-0.65-0.72-0.94
			c0.4,0.64,0.72,1.32,1,2.03c-0.37-0.73-0.75-1.44-1.13-2.17c-0.2-0.22-0.42-0.43-0.64-0.63c-0.27-0.09-0.58-0.08-0.8,0.08
			c-1.6,1.11-3.14,2.31-4.68,3.5c-0.3,0.15-0.57,0.36-0.78,0.61c-0.19,0.15-0.38,0.3-0.57,0.44c-0.63,0.38-1.24,0.8-1.82,1.25
			c-0.35,0.27-0.69,0.56-1.02,0.86c-0.36,0.26-0.73,0.52-1.1,0.77c-3.19,2.17-6.62,3.96-9.6,6.43c-0.12,0.1-0.19,0.23-0.24,0.37
			c-0.71,0.91-0.39,2.6-0.09,3.69c0.13,0.48,0.77,0.8,1.21,0.49c1.14-0.8,2.31-1.54,3.51-2.26
			C104.73,48.16,104.82,48.13,104.91,48.08z"/>
		<path class="st1" d="M112.71,62.75c0.81,0.16,1.63,0.31,2.44,0.46c1.66,0.3,3.33,0.56,5.01,0.75c0.85,0.09,1.71,0.16,2.56,0.19
			c0.14,0.21,0.38,0.36,0.72,0.4c2.12,0.22,4.37,0.53,6.21,1.68c0.75,0.47,1.37,1.13,1.94,1.81c0.32,0.38,0.54,0.75,0.68,1.16
			c0.06,0.41,0.11,0.82,0.13,1.2c0.04,0.56,0.53,0.82,0.95,0.77c-0.03,0.07-0.04,0.14-0.05,0.21c0,0.08-0.01,0.15-0.01,0.23
			c0.21-0.29,0.42-0.58,0.64-0.87c0.01-0.01,0.02-0.02,0.03-0.04c0.03-0.09,0.05-0.19,0.05-0.31c0.01-0.94-0.02-1.89-0.16-2.82
			c0.15,0.54,0.27,1.08,0.33,1.61c0.01-0.03,0.01-0.06,0.02-0.09c-0.06-0.58-0.13-1.17-0.21-1.75c-0.1-0.08-0.17-0.19-0.2-0.35
			c-0.18-1.2-0.36-2.4-0.54-3.6c-0.11-0.08-0.19-0.2-0.23-0.36c-0.25-1.07-0.35-2.14-0.77-3.17c-0.27-0.67-0.61-1.22-1.31-1.5
			c-0.27-0.11-0.55-0.22-0.82-0.33c-0.8-0.31-1.62-0.49-2.45-0.7c-1.32-0.34-2.66-0.58-4.01-0.78c-0.03,0-0.06,0-0.09-0.01
			c-0.06-0.01-0.12-0.02-0.18-0.03c0,0.01,0,0.02,0,0.02c-0.16,0.01-0.31,0.04-0.44,0.1c-0.03,0-0.06,0-0.09,0
			c-0.15,0-0.29,0.02-0.43,0.04c-2.99-0.99-6.24-0.86-9.33-0.24c-1.02-0.12-2.04-0.24-3.06-0.34c-0.64-0.06-1.29-0.04-1.94-0.05
			c-0.73-0.01-1.43-0.09-2.15-0.19c-0.26-0.03-0.5,0.11-0.67,0.31c-0.8-0.16-1.61-0.28-2.42-0.37c-0.11-0.05-0.2-0.12-0.3-0.21
			c-0.59-0.56-1.54,0.15-1.13,0.87c0.16,0.28,0.34,0.56,0.52,0.83c-0.05,0.1-0.08,0.2-0.09,0.32c-0.02,0.43,0.03,0.83,0.15,1.21
			c-0.09,0.48,0.11,1.04,0.65,1.19c0.31,0.38,0.7,0.71,1.13,0.99c-0.27-0.12-0.55-0.19-0.84-0.2c-0.01,0-0.01,0-0.02,0
			c0.49,0.16,0.98,0.34,1.45,0.56c-0.01-0.01-0.02-0.02-0.03-0.03c-0.03-0.03-0.07-0.05-0.11-0.07c0.42,0.22,0.86,0.39,1.31,0.51
			c1.09,0.29,2.24,0.4,3.36,0.54c1.06,0.12,2.11,0.21,3.17,0.23C112.29,62.64,112.51,62.7,112.71,62.75z"/>
		<path class="st1" d="M122.42,89.79c0.42,0.39,0.85,0.79,1.27,1.18c0.3,0.28,0.59,0.56,0.88,0.85c0.23,0.23,0.31,0.53,0.5,0.79
			c0.07,0.1,0.16,0.2,0.27,0.26c0.11,0.06,0.26,0.07,0.36-0.01c0.09-0.06,0.13-0.16,0.17-0.26c0.31-0.64,0.85-1.11,1.28-1.66
			c0.48-0.61,0.59-1.3,0.72-2.06c0.03-0.17,0.14-0.29,0.28-0.36c0.13-0.45,0.24-0.9,0.33-1.36c-0.01-0.06-0.02-0.13,0-0.2
			c0.1-0.74,0.2-1.47,0.29-2.21c-0.05-0.81-0.24-1.6-0.72-2.3c-0.09-0.13-0.19-0.23-0.3-0.31c-0.26-0.46-0.59-0.89-1-1.25
			c-1.43-1.25-3.17-2.17-4.76-3.19c-1.65-1.07-3.28-2.16-4.89-3.28c-1.63-1.13-3.25-2.25-4.73-3.57c-0.36-0.32-0.92-0.41-1.34-0.2
			c-0.04,0-0.09,0-0.14,0.01c-0.36-0.19-0.97-0.04-1.03,0.43c-0.15,1.11-0.3,2.23-0.45,3.34c0.02,1.04,0.03,2.09,0.05,3.13
			c0.04,0.19,0.08,0.39,0.11,0.58c0.16,1,0.08,2.02,0.56,2.94c0.47,0.91,1.37,1.38,2.28,1.74c1.91,0.76,3.66,1.7,5.32,2.93
			C119.37,86.97,120.9,88.39,122.42,89.79z"/>
		<path class="st1" d="M122.19,109.77c0.25-0.79,0.67-1.51,0.93-2.29c0.01-0.06,0.02-0.12,0.03-0.18c-0.02-0.08-0.03-0.17-0.01-0.26
			c0.03-0.14,0.05-0.29,0.08-0.43c0.06-0.37,0.1-0.73,0.18-1.1c0.06-0.41,0.11-0.81,0.16-1.22c-0.04-0.51-0.1-1-0.24-1.47
			c-0.02-0.03-0.04-0.06-0.06-0.09c-0.12-0.24-0.23-0.47-0.34-0.7c0.03,0.13,0.06,0.27,0.09,0.4c0.21,1.09-0.1,2.18-0.04,3.28
			c0.03,0.57,0.26,0.96,0.04,1.5c-0.22,0.55-0.44,1.11-0.65,1.66c-0.14,0.36-0.28,0.74-0.22,1.11c0.01-0.02,0.01-0.03,0.02-0.05
			C122.16,109.88,122.17,109.83,122.19,109.77z"/>
		
			<linearGradient id="SVGID_1_" gradientUnits="userSpaceOnUse" x1="73.6745" y1="699.4395" x2="73.6745" y2="730.2375" gradientTransform="matrix(1 0 0 1 0 -692)">
			<stop  offset="0" style="stop-color:#040404;stop-opacity:0.5"/>
			<stop  offset="1" style="stop-color:#F8F8F9;stop-opacity:0"/>
		</linearGradient>
		<path class="st2" d="M61.53,40.12c-3.19,0.28-6.28-1.19-9.13-2.39c-1.33-0.56-2.66-1.25-3.69-2.3c-0.93-0.96-1.38-2.36-1.88-3.58
			c-0.66-1.6-1.47-3.14-2.42-4.58c-0.56,0.71-0.31,1.73-0.27,2.63c0.08,1.69-0.68,3.35-0.57,5.04c0.12,1.78,1.16,3.35,2.17,4.81
			c0.88,1.28,1.77,2.57,2.96,3.56c1.65,1.37,3.77,2.07,5.89,2.39s4.28,0.29,6.42,0.37c2.27,0.09,4.54,0.3,6.8,0.57
			c2.06,0.25,4.19,0.75,6.26,0.69c4.05-0.11,7.71-0.68,11.16-2.99c2.23-1.49,4.08-3.46,5.92-5.41c1.27-1.35,2.54-2.7,3.65-4.19
			c0.95-1.27,1.83-2.68,3.22-3.46c0.68-0.38,1.47-0.6,1.99-1.18c0.35-0.39,0.54-0.9,0.72-1.4c1.02-2.86,2.04-5.72,3.06-8.58
			c-1.11,0.71-2.15,1.51-3.12,2.39c-1.23,1.12-2.34,2.37-3.3,3.73c-0.4,0.56-0.71,1.18-1.22,1.64c-0.58,0.54-1.28,0.98-1.89,1.49
			c-1.65,1.39-2.99,2.85-5.1,3.53c-2.36,0.77-4.72,1.53-7.07,2.3c1.03-1.21,2.05-2.41,3.08-3.62c0.36-0.42,0.73-0.93,0.59-1.46
			c-0.05-0.19-0.12-0.49,0.08-0.52c-2.75,1.02-5.51,2.04-8.26,3.06c-0.65,0.24-1.31,0.48-1.99,0.56c-0.74,0.08-1.49-0.03-2.23-0.17
			c-1.54-0.31-2.97-0.81-4.43-1.35c-1.34-0.49-2.55-1.27-3.89-1.73c-0.72-0.25-1.49-0.34-2.22-0.55c-2.22-0.62-4.03-2.19-5.75-3.72
			c0.46,0.69,0.92,1.38,1.38,2.07c0.28,0.42,0.56,0.85,0.93,1.2c0.89,0.86,2.2,1.22,3,2.16c-1.71-0.17-3.32-0.69-4.93-1.27
			c-1.06-0.38-2.26-0.76-3.15-1.47c-0.43-0.35-0.78-0.79-1.19-1.16c-0.39-0.35-0.83-0.64-1.22-0.99c-1.06-0.94-1.74-2.24-2.81-3.15
			c0.94,0.55,1.26,1.72,1.62,2.74c1.54,4.34,5.19,7.62,9.13,10.01c0.81,0.49,1.63,0.95,2.39,1.51c0.11,0.08,0.23,0.18,0.23,0.32
			c0,0.23-0.3,0.31-0.53,0.31c-1.79,0-3.57-0.49-5.1-1.42c-0.47-0.29-1.04-0.62-1.54-0.4c1.08,0.63,2.07,1.35,3.16,1.94
			c0.6,0.33,1.2,0.65,1.79,0.98c0.34,0.18,1.44,1.04,1.79,0.98C61.84,40.09,61.68,40.11,61.53,40.12z"/>
		
			<linearGradient id="SVGID_00000173154766581678897700000001844666225831533974_" gradientUnits="userSpaceOnUse" x1="76.1283" y1="719.301" x2="74.9659" y2="707.7742" gradientTransform="matrix(1 0 0 1 0 -692)">
			<stop  offset="0" style="stop-color:#040404"/>
			<stop  offset="0.0787" style="stop-color:#1D1D1D;stop-opacity:0.9213"/>
			<stop  offset="0.3373" style="stop-color:#6A6A6A;stop-opacity:0.6627"/>
			<stop  offset="0.5679" style="stop-color:#A7A7A7;stop-opacity:0.4321"/>
			<stop  offset="0.7619" style="stop-color:#D3D3D4;stop-opacity:0.2381"/>
			<stop  offset="0.9121" style="stop-color:#EEEEEF;stop-opacity:0.0879"/>
			<stop  offset="1" style="stop-color:#F8F8F9;stop-opacity:0"/>
		</linearGradient>
		<path style="fill:url(#SVGID_00000173154766581678897700000001844666225831533974_);" d="M89.42,11.06c0,0.57,0.24,1.23,0,1.76
			c-0.25,0.57-0.68,0.97-1.11,1.4c-0.77,0.78-1.68,1.61-2.63,2.18c-0.46,0.27-0.98,0.44-1.44,0.7c-0.55,0.32-1.06,0.67-1.59,1.02
			c-0.94,0.62-1.91,1.2-2.92,1.71c-2.1,1.05-4.35,1.64-6.71,1.69c-2.51,0.05-5.01-0.35-7.48-0.78c-0.62-0.11-1.27-0.22-1.86-0.47
			c-0.52-0.22-1.01-0.51-1.51-0.78c-0.53-0.29-1.08-0.46-1.59-0.75c-0.52-0.29-0.97-0.56-1.58-0.51c-0.06,0-0.11,0.07-0.07,0.13
			c0.31,0.43,0.71,0.73,1.11,1.09c0.43,0.4,0.71,0.92,1.14,1.34c0.93,0.91,2.04,1.41,3.3,1.67c2.62,0.53,5.36,0.94,8.03,0.95
			c2.68,0.01,5.24-0.58,7.66-1.72c1.1-0.52,2.16-1.13,3.18-1.8c0.52-0.34,1.03-0.68,1.5-1.06c0.5-0.4,0.89-0.84,1.31-1.31
			c0.46-0.51,1.1-0.87,1.64-1.29c0.55-0.43,1.06-0.86,1.49-1.42c0.39-0.51,0.63-1.18,0.83-1.79c0.23-0.71,0.66-1.18,0.67-1.96
			C90.82,10.17,89.43,10.17,89.42,11.06z"/>
		
			<linearGradient id="SVGID_00000131326949860695599770000015407286660804991362_" gradientUnits="userSpaceOnUse" x1="74.652" y1="764.1426" x2="74.4942" y2="805.0123" gradientTransform="matrix(1 0 0 1 0 -692)">
			<stop  offset="5.993717e-04" style="stop-color:#040404"/>
			<stop  offset="0.5763" style="stop-color:#141619"/>
			<stop  offset="1" style="stop-color:#1C1F23"/>
		</linearGradient>
		<path style="fill:url(#SVGID_00000131326949860695599770000015407286660804991362_);" d="M77.53,91.08
			c-0.14-0.01-0.3-0.03-0.4-0.13c-0.11-0.12-0.1-0.29-0.15-0.45c-0.1-0.33-0.43-0.53-0.73-0.69c-0.65-0.35-1.31-0.7-1.96-1.05
			c1.38-0.43,2.88,0.24,4.31,0.04c0.52-0.07,1.02-0.26,1.53-0.37c0.67-0.14,1.37-0.15,2.06-0.13c2.14,0.05,4.27,0.3,6.35,0.74
			c0.2,0.04,0.4,0.09,0.61,0.08c0.22-0.01,0.43-0.09,0.63-0.19c1.05-0.51,1.79-1.53,2.86-2.02c0.6-0.27,1.26-0.36,1.92-0.41
			c1.31-0.1,2.62-0.05,3.94,0c0.52,0.02,1.06,0.04,1.5,0.31c0.39,0.23,0.66,0.62,0.92,1c0.53,0.78,1.05,1.55,1.58,2.33
			c0.42,0.61,1.06,1.55,1.87,1.67c1.02,0.15,0.47-1.19,0.23-1.67c-0.14-0.27-0.27-0.54-0.41-0.81c-0.03-0.06-0.06-0.12-0.09-0.18
			c-0.62-1.24-1.56-1.94-2.63-2.78c-0.49-0.38-1.92-1.69-2.57-0.91c-0.08,0.09-0.13,0.21-0.22,0.28c-0.1,0.07-0.22,0.1-0.34,0.11
			c-1.47,0.19-2.96-0.09-4.44-0.07c-1.64,0.02-3.26,0.4-4.9,0.35c-1.45-0.04-2.86-0.43-4.27-0.69c-2.68-0.49-5.27-0.18-7.96,0.01
			c-3.82,0.28-7.66-0.11-11.49,0.04c-0.74,0.03-1.48,0.08-2.22,0.04c-0.68-0.04-1.32-0.29-2-0.3c-1.54-0.03-3.05,0.31-4.51,0.77
			c-1.63,0.52-3.21,1.21-4.84,1.74c-1.12,0.37-2.25,0.66-3.39,0.95c-0.63,0.16-1.27,0.33-1.93,0.38c-0.3,0.03-0.61,0.03-0.92,0.01
			c-0.23-0.01-0.48-0.04-0.65-0.21c-0.19-0.19-0.19-0.49-0.17-0.76c0.05-0.74-0.24-1.04-0.96-0.89c-0.75,0.16-1.5,0.45-2.15,0.86
			c-0.27,0.17-0.56,0.45-0.47,0.76c0.05,0.16,0.19,0.26,0.32,0.36c1.12,0.8,2.29,1.53,3.39,2.36c0.41,0.31,0.73,0.75,1.14,1.04
			c0.52,0.36,1.26,0.56,1.84,0.8c0.41,0.18,0.83,0.35,1.27,0.42c0.43,0.06,0.86,0.02,1.3-0.02c0.94-0.08,1.89-0.12,2.84-0.13
			c0.73,0,1.46,0.01,2.18,0.14c0.77,0.14,1.52,0.41,2.25,0.69c1.3,0.5,2.58,1.04,3.86,1.57c-0.5-0.56-1.1-1-1.7-1.45
			c-1.64-1.21-3.31-2.43-5.21-3.16c-1.92-0.73-4.09-0.96-5.73-2.2c1.45-0.33,2.92-0.58,4.4-0.73c0.9-0.09,1.81-0.15,2.69,0.02
			c0.61,0.12,1.2,0.35,1.81,0.42c0.63,0.07,1.26-0.02,1.88-0.11c0.51-0.07,1.01-0.15,1.52-0.22c0.51-0.07,1.03-0.15,1.53-0.07
			c0.69,0.11,1.28,0.5,1.93,0.74c0.64,0.23,1.3,0.41,1.96,0.63c1.51,0.49,2.97,1.1,4.47,1.64c1.84,0.66,3.68,1.32,5.36,2.33
			c1.65,0.99,3.13,2.16,4.98,2.77c1.4,0.47,2.88,0.69,4.28,1.17c1.02,0.35,1.18,1.34,1.7,2.19c0.33,0.54,0.82,0.96,1.3,1.37
			c1.23,1.04,2.46,2.09,3.69,3.13c-0.85-1.33-1.71-2.65-2.56-3.98c1.74,0.51,3.3,1.48,4.83,2.45c1.42,0.89,2.83,1.78,4.15,2.82
			c0.89,0.7,1.73,1.47,2.55,2.26c0.74,0.71,1.47,1.44,2.11,2.24c1.44,1.79,2.55,4.02,4.62,5.01c-1.6-4.48-5.76-7.49-8.41-11.45
			c-1.41-2.11-2.5-4.61-4.69-5.86c-0.9-0.52-1.93-0.78-2.92-1.07c-1.82-0.54-3.6-1.23-5.34-1.99c-1.82-0.8-3.61-1.47-5.48-2.13
			c-0.33-0.12-0.68-0.24-0.95-0.47c-0.2-0.17-0.36-0.39-0.55-0.57C79.16,91.31,78.18,91.14,77.53,91.08z"/>
		
			<linearGradient id="SVGID_00000115502443832708384600000016831038851761724039_" gradientUnits="userSpaceOnUse" x1="86.0668" y1="797.8167" x2="73.3409" y2="819.9619" gradientTransform="matrix(1 0 0 1 0 -692)">
			<stop  offset="5.993717e-04" style="stop-color:#040404"/>
			<stop  offset="0.5763" style="stop-color:#141619"/>
			<stop  offset="1" style="stop-color:#1C1F23"/>
		</linearGradient>
		<path style="fill:url(#SVGID_00000115502443832708384600000016831038851761724039_);" d="M101.16,131.69
			c-0.27-0.56-0.48-0.93-1.03-1.33c-1.13-0.81-2.53-1.19-3.57-2.14c-0.16-0.15-0.33-0.34-0.32-0.56c-3.67-0.91-7.04-2.76-10.34-4.6
			c-3.51-1.96-7.05-3.94-10.07-6.59c3.62,1.81,7.37,3.57,11.39,4.01c1.19,0.13,2.42,0.15,3.54,0.58c0.94,0.36,1.74,0.99,2.54,1.59
			c2.4,1.79,4.96,3.36,7.63,4.69c-2.82-2.29-5.64-4.59-8.59-6.72c-1.47-1.07-2.97-2.09-4.51-3.05c-0.67-0.42-1.33-0.75-1.98-1.22
			c-0.7-0.5-1.42-0.98-2.22-1.31c-0.29-0.12-0.58-0.24-0.87-0.36c-0.56-0.23-1.12-0.47-1.7-0.66c0.64,1.51-1.61,1.05-2.29,0.73
			c-0.88-0.41-1.7-0.94-2.44-1.56c-0.35-0.3-0.69-0.62-1.07-0.88c-0.53-0.37-1.14-0.6-1.73-0.89c-1.82-0.89-3.45-2.29-5.45-2.57
			c-0.23-0.03-0.46-0.05-0.67-0.14c-0.16-0.06-0.3-0.16-0.45-0.25c-0.21-0.12-0.44-0.21-0.67-0.3c-2.02-0.83-3.26-2.21-4.77-3.69
			c-1.64-1.62-2.94-3.69-4.16-5.64c-0.05-0.08-0.19-0.03-0.16,0.07c2.67,6.44,6.47,12.21,11.67,16.91c0.18,0.16,0.36,0.33,0.55,0.49
			c5.19,4.55,11.35,7.93,17.87,10.22c4.19,1.47,8.67,2.57,12.11,5.38c1.03,0.85,2.04,1.88,3.35,2.09c-0.51-0.7-1.18-1.43-1.55-2.21
			C101.2,131.77,101.18,131.73,101.16,131.69z"/>
		
			<linearGradient id="SVGID_00000020383218214050811070000011855212067563678365_" gradientUnits="userSpaceOnUse" x1="80.7184" y1="786.2667" x2="67.4875" y2="800.8267" gradientTransform="matrix(1 0 0 1 0 -692)">
			<stop  offset="5.993717e-04" style="stop-color:#040404"/>
			<stop  offset="0.5763" style="stop-color:#141619"/>
			<stop  offset="1" style="stop-color:#1C1F23"/>
		</linearGradient>
		<path style="fill:url(#SVGID_00000020383218214050811070000011855212067563678365_);" d="M77.11,108.12
			c-1.3-1.41-2.57-2.84-3.81-4.29c-0.94-1.1-1.86-2.21-2.97-3.13c-0.32-0.27-0.67-0.53-1.04-0.72c-0.38-0.2-0.79-0.35-1.19-0.51
			c-0.91-0.36-1.79-0.82-2.63-1.32c-0.93-0.55-1.82-1.16-2.67-1.83c0.45,1.45,1.07,2.86,1.84,4.17c0.38,0.64,0.79,1.26,1.23,1.86
			c0.38,0.52,1,1.03,1.25,1.61c0.06,0.01,0.15-0.04,0.11-0.11c-0.4-0.91-0.81-1.83-1.21-2.74c0.97,1.18,1.97,2.69,3.24,3.54
			c1.21,0.8,2.23,1.92,3.39,2.8c1.24,0.94,2.55,1.8,3.92,2.55c0.68,0.38,1.38,0.73,2.09,1.06c0.53,0.25,1.66,0.46,2.06,0.87
			C79.5,110.67,78.3,109.4,77.11,108.12z"/>
		
			<linearGradient id="SVGID_00000054953233251903227650000011318586871326265740_" gradientUnits="userSpaceOnUse" x1="75.0304" y1="800.4475" x2="31.2104" y2="805.603" gradientTransform="matrix(1 0 0 1 0 -692)">
			<stop  offset="5.993717e-04" style="stop-color:#040404"/>
			<stop  offset="0.5763" style="stop-color:#141619"/>
			<stop  offset="1" style="stop-color:#1C1F23"/>
		</linearGradient>
		<path style="fill:url(#SVGID_00000054953233251903227650000011318586871326265740_);" d="M39.9,114.23
			c0.14-1.08,0.52-2.12,0.71-3.2c0.42-2.51-0.24-5.07-0.2-7.61c0.02-1.28,0.22-2.56,0.21-3.85c-0.01-1.28-0.25-2.62-1.01-3.65
			c-0.19-0.25-0.41-0.49-0.53-0.78c-0.16-0.36-0.16-0.77-0.16-1.16c0-1.78,0.34-4.04,1.72-5.34c1.39,0.81,2.77,1.63,4.16,2.44
			c0.33,0.19,0.66,0.39,0.91,0.67c0.38,0.43,0.53,1.02,0.7,1.57c0.38,1.2,0.95,2.34,1.69,3.36c2.16,2.98,5.65,4.87,7.54,8.03
			c-3.31-2.67-6.65-5.37-9.37-8.65c-0.36-0.44-0.72-0.89-1.14-1.28c-0.31-0.28-0.64-0.52-0.98-0.75c-0.4-0.29-0.81-0.57-1.21-0.86
			c-0.38-0.27-0.79-0.55-1.26-0.54c0.56-0.01,1.45,4.72,1.56,5.22c0.43,1.97,0.59,4.02,0,5.97c-0.4,1.33-1.02,2.81-0.37,4.04
			c0.28,0.53,0.76,0.92,1.23,1.3c0.97,0.78,1.94,1.56,2.91,2.34c0.58,0.47,1.17,0.94,1.85,1.24c0.62,0.27,1.36,0.43,1.72,1
			c0.37,0.58,0.21,1.41,0.65,1.94c0.31,0.37,0.83,0.48,1.3,0.56c2.53,0.46,5.06,0.92,7.59,1.37c-1.68,1.39-3.13,3.07-4.26,4.93
			c4.28,0.66,8.28-3.05,12.59-2.63c-1.92,1.03-3.84,2.06-5.76,3.09c-3.07,1.64-6.22,3.36-8.37,6.1c-0.23,0.29-0.45,0.6-0.49,0.96
			s0.14,0.78,0.49,0.88c-2.7,1.53-5.73,2.67-8.33,4.33c-0.98,0.63-1.54,0.89-2.68,0.22c-0.96-0.56-1.72-1.58-1.96-2.66
			c-0.04-0.17-0.07-0.34-0.17-0.48c-0.09-0.12-0.23-0.19-0.34-0.29c-0.77-0.58-0.81-1.73-0.62-2.68c0.37-1.87,0.99-4.14,0.58-6.04
			c-0.31-1.42-0.7-2.82-0.72-4.29C40.05,117.45,39.69,115.84,39.9,114.23z"/>
		
			<linearGradient id="SVGID_00000149348278198066493960000015824511598234389160_" gradientUnits="userSpaceOnUse" x1="122.2907" y1="790.8552" x2="106.4009" y2="796.0909" gradientTransform="matrix(1 0 0 1 0 -692)">
			<stop  offset="5.993717e-04" style="stop-color:#040404"/>
			<stop  offset="0.5763" style="stop-color:#141619"/>
			<stop  offset="1" style="stop-color:#1C1F23"/>
		</linearGradient>
		<path style="fill:url(#SVGID_00000149348278198066493960000015824511598234389160_);" d="M120.3,106.5
			c-0.37-0.66-0.8-1.28-1.26-1.8c-0.33-0.37-0.71-0.71-1.05-1.09c-1.06-1.17-1.7-2.71-1.81-4.29c-0.03-0.54-0.01-1.09-0.15-1.61
			c-0.3-1.08-1.23-1.62-1.83-2.49c-0.57-0.83-1.13-1.56-1.86-2.29c-0.26-0.26-0.65-0.53-0.96-0.33c-0.12,0.07-0.19,0.2-0.26,0.32
			c-1.47,2.72-1.2,7.13,1.28,9.2c2.59,2.16,5.32,4.14,8.03,6.16c0.31,0.23,0.62,0.46,0.83,0.78
			C120.75,108.29,120.77,107.34,120.3,106.5z"/>
		
			<linearGradient id="SVGID_00000139270249233083099620000001648596117572619422_" gradientUnits="userSpaceOnUse" x1="119.9051" y1="770.5818" x2="110.7192" y2="773.6085" gradientTransform="matrix(1 0 0 1 0 -692)">
			<stop  offset="5.993717e-04" style="stop-color:#040404"/>
			<stop  offset="0.5763" style="stop-color:#141619"/>
			<stop  offset="1" style="stop-color:#1C1F23"/>
		</linearGradient>
		<path style="fill:url(#SVGID_00000139270249233083099620000001648596117572619422_);" d="M122.95,88.02
			c-0.76-0.92-1.65-1.83-2.16-2.92c-0.47-1.01-0.54-2.21-0.71-3.29c-0.18-1.17-0.3-2.36-0.59-3.51c-0.29-1.16-1.01-1.74-1.97-2.36
			c-1.47-0.94-2.19-2.66-3.31-3.94c-0.62-0.71-1.57-1.61-2.58-1.55c-0.02,0-0.05,0.01-0.07,0.01c-0.12-0.27-0.4-0.47-0.79-0.4
			c-1.52,0.3-1.38,2.54-1.35,3.67c0.05,1.84,0.26,3.67,0.63,5.47c0.16,0.79,0.3,1.65,0.81,2.3c0.48,0.59,1.2,0.9,1.85,1.26
			c1.55,0.84,3.02,1.81,4.46,2.82c1.62,1.13,3.23,2.19,4.73,3.48C122.63,89.68,123.55,88.75,122.95,88.02z"/>
		
			<linearGradient id="SVGID_00000140006414845924689330000011965906344913385618_" gradientUnits="userSpaceOnUse" x1="129.9125" y1="749.4483" x2="104.5874" y2="757.793" gradientTransform="matrix(1 0 0 1 0 -692)">
			<stop  offset="5.993717e-04" style="stop-color:#040404"/>
			<stop  offset="0.5763" style="stop-color:#141619"/>
			<stop  offset="1" style="stop-color:#1C1F23"/>
		</linearGradient>
		<path style="fill:url(#SVGID_00000140006414845924689330000011965906344913385618_);" d="M132.88,66.51
			c-0.88-1.64-2.36-2.69-4.03-3.44c-1.98-0.89-4.07-1.56-6.11-2.29c-2.18-0.79-4.37-1.63-6.61-2.21c-2.28-0.58-4.64-0.77-6.98-0.85
			c-1.33-0.05-2.65-0.1-3.97-0.25c-1.14-0.13-2.4-0.3-2.67-1.61c-0.12-0.57-1.03-0.44-1.01,0.14c0.02,0.73,0.29,1.42,0.76,1.95
			c-0.06,0.18-0.08,0.38-0.04,0.55c0.18,0.88,0.68,1.65,1.41,2.16c0.77,0.55,1.78,0.74,2.69,0.97c2.01,0.52,4.03,0.73,6.08,0.98
			c2.04,0.25,4.08,0.51,6.11,0.86c2.09,0.35,4.16,0.84,6.25,1.22c0.26,0.05,0.49,0.01,0.68-0.07c0.28,0.09,0.56,0.17,0.83,0.26
			c1.86,0.62,3.68,1.46,5.18,2.74C132.22,68.28,133.39,67.46,132.88,66.51z"/>
		
			<linearGradient id="SVGID_00000009585920882294327070000004642506080635325575_" gradientUnits="userSpaceOnUse" x1="124.8021" y1="733.0361" x2="99.4065" y2="741.4039" gradientTransform="matrix(1 0 0 1 0 -692)">
			<stop  offset="5.993717e-04" style="stop-color:#040404"/>
			<stop  offset="0.5763" style="stop-color:#141619"/>
			<stop  offset="1" style="stop-color:#1C1F23"/>
		</linearGradient>
		<path style="fill:url(#SVGID_00000009585920882294327070000004642506080635325575_);" d="M123.89,39.17
			c-0.54-0.37-1.12-0.26-1.72-0.12c-1.93,0.43-3.81,1.06-5.68,1.7c-1.9,0.66-3.79,1.37-5.66,2.13c-1.84,0.75-3.73,1.45-5.47,2.43
			c-0.91,0.52-1.77,1.12-2.65,1.69c-0.43,0.27-0.87,0.52-1.3,0.78c-0.26,0.15-1.26,0.57-1.28,0.87c0.02-0.42-0.53-0.5-0.73-0.2
			c-0.38,0.55,0.1,1.16,0.67,1.26c0.74,0.14,1.71-0.25,2.37-0.55c0.89-0.4,1.74-0.89,2.59-1.37c0.11,0.04,0.23,0.07,0.36,0.09
			c1.52,0.13,2.95-0.49,4.38-0.92c0.07-0.02,0.14-0.04,0.21-0.06c1.42-0.31,2.83-0.64,4.23-1.02c0.01,0,0.02,0,0.03-0.01
			c3-0.58,6.01-0.97,9.04-1.33c0.6-0.07,1.09-0.45,1.1-1.1c0.01-0.98,0.19-1.97,0.14-2.95C124.51,39.97,124.34,39.47,123.89,39.17z"
			/>
		
			<linearGradient id="SVGID_00000080916614805969417500000005604434147673247113_" gradientUnits="userSpaceOnUse" x1="106.9365" y1="704.6449" x2="94.0368" y2="708.8953" gradientTransform="matrix(1 0 0 1 0 -692)">
			<stop  offset="5.993717e-04" style="stop-color:#040404"/>
			<stop  offset="0.5763" style="stop-color:#141619"/>
			<stop  offset="1" style="stop-color:#1C1F23"/>
		</linearGradient>
		<path style="fill:url(#SVGID_00000080916614805969417500000005604434147673247113_);" d="M108.22,16.61
			c-0.22-0.81-0.47-1.67-1.22-2.14c-0.69-0.44-1.6-0.63-2.38-0.89c-0.83-0.28-1.66-0.55-2.49-0.82c-1.7-0.54-3.38-1.13-5.13-1.54
			c-0.89-0.21-1.78-0.39-2.67-0.61c-0.73-0.18-1.6-0.54-2.36-0.39c-0.09,0.02-0.12,0.14-0.05,0.2c0.49,0.47,1.28,0.62,1.9,0.85
			c0.76,0.27,1.51,0.57,2.26,0.89c1.49,0.63,3.01,1.19,4.53,1.75c0.71,0.26,1.41,0.54,2.11,0.83c0.29,0.26,0.49,0.59,0.75,0.89
			c0.32,0.38,0.65,0.78,1.03,1.1c0.36,0.3,0.76,0.45,1.02,0.85c0.36,0.57,0.76,1.12,1.06,1.73c0.3,0.61,1.37,0.65,1.66,0
			C108.64,18.45,108.46,17.5,108.22,16.61z"/>
		
			<linearGradient id="SVGID_00000171683075225870482750000010691076773474342070_" gradientUnits="userSpaceOnUse" x1="42.9731" y1="711.0497" x2="57.9161" y2="714.3462" gradientTransform="matrix(1 0 0 1 0 -692)">
			<stop  offset="5.993717e-04" style="stop-color:#040404"/>
			<stop  offset="0.5763" style="stop-color:#141619"/>
			<stop  offset="1" style="stop-color:#1C1F23"/>
		</linearGradient>
		<path style="fill:url(#SVGID_00000171683075225870482750000010691076773474342070_);" d="M58.78,15.11
			c-0.95-0.18-2.04,0.03-2.97,0.24c-0.92,0.21-1.8,0.52-2.71,0.76c-1.88,0.5-3.59,1.25-5.27,2.24c-0.83,0.49-1.63,1.02-2.42,1.56
			c-0.38,0.26-0.77,0.51-1.17,0.74c-0.37,0.21-0.8,0.34-1.15,0.59c-1.63,1.14-0.82,3.52-0.49,5.12c0.01,0.07,0.11,0.05,0.12-0.02
			c0.07-0.9,0.34-1.89,0.61-2.76c0.09-0.29,0.18-0.61,0.44-0.76c0.28-0.17,0.73-0.22,1.04-0.34c1.6-0.63,2.97-1.64,4.46-2.49
			c1.44-0.83,2.91-1.61,4.37-2.4c0.72-0.39,1.59-0.64,2.38-0.8c0.87-0.18,1.72-0.12,2.59-0.23c0.37-0.05,0.67-0.24,0.72-0.64
			C59.36,15.58,59.14,15.18,58.78,15.11z"/>
		
			<linearGradient id="SVGID_00000096774662142626722620000009830908225097993386_" gradientUnits="userSpaceOnUse" x1="105.6441" y1="728.2341" x2="119.4827" y2="731.287" gradientTransform="matrix(1 0 0 1 0 -692)">
			<stop  offset="0" style="stop-color:#FFFFFF;stop-opacity:0.1"/>
			<stop  offset="1" style="stop-color:#000000"/>
		</linearGradient>
		<path style="fill:url(#SVGID_00000096774662142626722620000009830908225097993386_);" d="M119.49,32.14
			c-2.28,2.22-4.84,4.05-7.48,5.82c-1.3,0.87-2.59,1.74-3.88,2.62c-1.34,0.92-2.64,1.9-4.03,2.74c-0.06,0.03-0.01,0.12,0.05,0.09
			c1.47-0.72,3-1.29,4.48-1.98s2.91-1.43,4.31-2.28c2.75-1.67,5.37-3.65,7.72-5.86C121.42,32.58,120.25,31.41,119.49,32.14z"/>
		
			<linearGradient id="SVGID_00000010309462034745521760000015266813805099220916_" gradientUnits="userSpaceOnUse" x1="107.3806" y1="746.7192" x2="132.1095" y2="752.1746" gradientTransform="matrix(1 0 0 1 0 -692)">
			<stop  offset="0" style="stop-color:#FFFFFF;stop-opacity:0.1"/>
			<stop  offset="1" style="stop-color:#000000"/>
		</linearGradient>
		<path style="fill:url(#SVGID_00000010309462034745521760000015266813805099220916_);" d="M128.57,57.89
			c-1.67-0.59-3.34-1.18-5.07-1.56c-1.75-0.38-3.47-0.39-5.25-0.4c-1.75-0.01-3.51,0.09-5.26,0.2c-0.96,0.06-1.91,0.1-2.87,0.1
			c-1.01,0-2.03,0.08-3.03,0.01c-0.07-0.01-0.07,0.1-0.02,0.12c1.01,0.39,1.97,0.73,3.05,0.88c1.02,0.14,2.05,0.23,3.08,0.27
			c2.14,0.09,4.34-0.12,6.47,0.17c1.04,0.14,2.08,0.29,3.1,0.54c1.05,0.26,2.06,0.63,3.09,0.97c1.02,0.34,2.03,0.69,3.04,1.04
			c0.37,0.13,0.75,0.23,1.08,0.44c0.41,0.26,0.63,0.58,1.17,0.6c0.39,0.02,0.76-0.29,0.86-0.65
			C132.44,58.98,129.67,58.28,128.57,57.89z"/>
		
			<linearGradient id="SVGID_00000046338158975372426040000012097514344781026966_" gradientUnits="userSpaceOnUse" x1="109.8783" y1="767.7213" x2="129.3749" y2="772.0223" gradientTransform="matrix(1 0 0 1 0 -692)">
			<stop  offset="0" style="stop-color:#FFFFFF;stop-opacity:0.1"/>
			<stop  offset="1" style="stop-color:#000000"/>
		</linearGradient>
		<path style="fill:url(#SVGID_00000046338158975372426040000012097514344781026966_);" d="M126.29,80.01
			c-0.83-0.56-1.76-0.94-2.64-1.41c-0.64-0.33-1.16-0.79-1.75-1.18c-0.6-0.4-1.29-0.7-1.91-1.07c-1.25-0.76-2.44-1.61-3.57-2.53
			c-0.85-0.7-1.97-0.99-2.89-1.61c-0.4-0.27-0.76-0.59-1.15-0.88c-0.37-0.28-0.79-0.49-1.17-0.75c-0.14-0.1-0.27,0.09-0.21,0.21
			c0.38,0.86,0.82,1.51,1.53,2.13c0.68,0.6,1.43,1.14,2.22,1.59c0.87,0.49,1.73,0.96,2.56,1.53c0.75,0.52,1.46,1.08,2.17,1.66
			c0.72,0.59,1.45,1.18,2.22,1.71c0.77,0.53,1.6,0.93,2.44,1.35c0.78,0.39,1.61,0.81,2.16,1.51c0.49,0.62,0.62,1.32,0.59,2.09
			c-0.03,0.71,1,0.98,1.34,0.36C129.21,82.94,127.73,80.99,126.29,80.01z"/>
		
			<linearGradient id="SVGID_00000028310828052894009630000014047730529617324703_" gradientUnits="userSpaceOnUse" x1="110.363" y1="789.362" x2="124.6294" y2="792.5093" gradientTransform="matrix(1 0 0 1 0 -692)">
			<stop  offset="0" style="stop-color:#FFFFFF;stop-opacity:0.1"/>
			<stop  offset="1" style="stop-color:#000000"/>
		</linearGradient>
		<path style="fill:url(#SVGID_00000028310828052894009630000014047730529617324703_);" d="M122.21,101.46
			c-1.15-0.94-2.38-1.76-3.56-2.66c-1.19-0.92-2.34-1.91-3.45-2.93c-1.13-1.03-2.17-2.2-3.43-3.08c-0.27-0.19-0.55,0.17-0.42,0.42
			c0.65,1.24,1.67,2.31,2.63,3.32c0.99,1.05,2.03,2.05,3.09,3.02c1.08,0.98,2.18,1.92,3.35,2.78c0.43,0.32,0.86,0.64,1.22,1.04
			c0.38,0.41,0.55,0.93,0.87,1.38c0.25,0.36,0.92,0.49,1.14,0C124.24,103.46,123.16,102.24,122.21,101.46z"/>
		
			<linearGradient id="SVGID_00000088817257893328794880000014708174915711269511_" gradientUnits="userSpaceOnUse" x1="60.4668" y1="704.303" x2="106.7165" y2="714.5061" gradientTransform="matrix(1 0 0 1 0 -692)">
			<stop  offset="0" style="stop-color:#FFFFFF;stop-opacity:0.1"/>
			<stop  offset="1" style="stop-color:#000000"/>
		</linearGradient>
		<path style="fill:url(#SVGID_00000088817257893328794880000014708174915711269511_);" d="M107.71,15.41
			c-0.62-1.13-2.12-1.27-3.24-1.59c-0.5-0.14-1-0.29-1.5-0.43c-3.09-0.89-6.18-1.78-9.27-2.67c-0.54-0.16-1.09-0.31-1.64-0.44
			c-0.3-0.07-0.61-0.13-0.92-0.19c-0.45-0.08-0.78,0.25-1.19,0.39c-0.09,0.03-0.19,0.07-0.28,0.11c-0.04,0.02-0.08,0.05-0.11,0.09
			s-0.03,0.09-0.04,0.13c-0.03,0.34,0.17,0.65,0.19,0.98c0.01,0.27-0.05,0.59-0.11,0.85c-0.16,0.63-0.61,1.15-1.08,1.6
			c-1.92,1.88-4.26,3.27-6.63,4.53c-2.25,1.2-4.58,2.31-7.07,2.89s-5.16,0.6-7.54-0.34c-0.4-0.16-0.79-0.34-1.21-0.45
			c-0.69-0.17-1.41-0.12-2.12-0.21c-0.71-0.08-1.45-0.34-1.84-0.93c-0.37-0.58-0.49-0.67-1.12-0.96c-0.57-0.26-1.08-0.41-1.71-0.38
			c-0.19,0.01-0.28,0.27-0.1,0.37c0.48,0.26,0.96,0.56,1.4,0.88c0.53,0.38,0.91,0.9,1.42,1.3c0.98,0.74,2.15,1.19,3.34,1.43
			c1.26,0.26,2.55,0.33,3.84,0.4c1.44,0.08,2.88,0.13,4.32,0.02c2.58-0.2,4.94-1.01,7.19-2.25c2.16-1.2,4.13-2.71,6.27-3.96
			c1.05-0.61,2.39-1.06,3.2-2.02c0.21-0.25,0.37-0.52,0.48-0.81c0.1-0.06,0.19-0.11,0.28-0.18c0.02-0.02,0.03-0.02,0.03-0.03
			c0.02-0.02,0.04-0.03,0.06-0.05c0.14-0.09,0.28-0.18,0.42-0.26c0.08-0.04,0.16-0.08,0.24-0.12c0.04-0.02,0.07-0.03,0.11-0.05
			c-0.14,0.06,0.03-0.01,0.08-0.03c0.06-0.02,0.11-0.05,0.17-0.07c0.01,0,0.03-0.01,0.05-0.02c0.02-0.01,0.04-0.02,0.05-0.02
			c0.05-0.02,0.09-0.04,0.14-0.05c0.16-0.06,0.32-0.11,0.48-0.17c0.33-0.11,0.67-0.2,1.01-0.29c0.21-0.06,0.37-0.21,0.45-0.4
			c0.28,0.11,0.56,0.22,0.83,0.32c1.54,0.55,3.12,0.95,4.71,1.35c1.58,0.4,3.17,0.8,4.74,1.24c0.38,0.11,0.77,0.22,1.15,0.32
			c0.32,0.08,0.7,0.15,0.95,0.38c0.47,0.43,0.43,1.14,0.91,1.57c0.1,0.09,0.25,0.08,0.32-0.04C108.17,16.61,108,15.95,107.71,15.41z
			"/>
		
			<linearGradient id="SVGID_00000149363810227041056440000006594464113333965752_" gradientUnits="userSpaceOnUse" x1="60.0326" y1="713.2021" x2="82.6496" y2="718.1917" gradientTransform="matrix(1 0 0 1 0 -692)">
			<stop  offset="0" style="stop-color:#FFFFFF;stop-opacity:0.1"/>
			<stop  offset="1" style="stop-color:#000000"/>
		</linearGradient>
		<path style="fill:url(#SVGID_00000149363810227041056440000006594464113333965752_);" d="M83.56,21.89
			c-0.81,0.23-1.6,0.51-2.38,0.83c-0.82,0.34-1.61,0.58-2.46,0.81c-1.61,0.45-3.11,1.17-4.74,1.57c-1.54,0.38-3.12,0.51-4.69,0.69
			c-1.56,0.17-3.18,0.17-4.72-0.12c-1.77-0.34-3.43-1.03-5.11-1.67c-0.04-0.02-0.07,0.04-0.04,0.07c1.2,1.06,2.62,1.7,4.13,2.24
			c1.56,0.55,3.19,0.94,4.84,1.12c3.5,0.38,6.74-0.93,9.71-2.67c0.84-0.5,1.56-1.17,2.42-1.62c0.96-0.5,2.02-0.88,3.06-1.19
			C83.6,21.93,83.59,21.88,83.56,21.89z"/>
		
			<linearGradient id="SVGID_00000146478011146914719860000002403498103604600448_" gradientUnits="userSpaceOnUse" x1="71.2491" y1="780.1865" x2="88.2434" y2="783.9355" gradientTransform="matrix(1 0 0 1 0 -692)">
			<stop  offset="0" style="stop-color:#FFFFFF;stop-opacity:0.1"/>
			<stop  offset="1" style="stop-color:#000000"/>
		</linearGradient>
		<path style="fill:url(#SVGID_00000146478011146914719860000002403498103604600448_);" d="M88.43,90.67
			c-1.44,0.14-2.68-0.44-3.99-0.93c-1.22-0.46-2.64-0.63-3.88-0.14c-0.29,0.12-0.57,0.28-0.87,0.38c-0.36,0.13-0.69,0.09-1.06,0.04
			c-0.8-0.12-1.6-0.27-2.4-0.41c-1.68-0.3-3.38-0.52-5.04-0.94c-0.06-0.01-0.08,0.07-0.02,0.09c1.64,0.49,3.22,1.12,4.84,1.66
			c0.79,0.26,1.58,0.56,2.38,0.77c0.77,0.21,1.43,0.12,2.16-0.18c1.29-0.53,2.55-0.33,3.91-0.23c1.32,0.09,2.69,0.29,4,0.03
			C88.53,90.8,88.51,90.66,88.43,90.67z"/>
		
			<linearGradient id="SVGID_00000014635857782705286970000015344335951249382274_" gradientUnits="userSpaceOnUse" x1="75.6779" y1="793.4156" x2="102.9094" y2="799.4231" gradientTransform="matrix(1 0 0 1 0 -692)">
			<stop  offset="0" style="stop-color:#FFFFFF;stop-opacity:0.1"/>
			<stop  offset="1" style="stop-color:#000000"/>
		</linearGradient>
		<path style="fill:url(#SVGID_00000014635857782705286970000015344335951249382274_);" d="M101.79,112.38
			c-1.51-1.45-3.1-2.82-4.67-4.21c-1.55-1.37-3.11-2.7-4.49-4.25c-0.52-0.59-1.17-1.18-1.96-0.66c-0.31,0.2-0.42,0.4-0.82,0.25
			c-0.44-0.17-0.86-0.48-1.26-0.72c-1.82-1.04-3.63-2.1-5.47-3.12c-1.03-0.57-2.06-1.14-3.1-1.72c-1.03-0.57-2.14-1.02-3.18-1.58
			c-0.04-0.02-0.08,0.04-0.04,0.07c0.87,0.6,1.67,1.29,2.53,1.9c0.83,0.59,1.69,1.14,2.53,1.7c1.72,1.15,3.45,2.28,5.18,3.41
			c0.78,0.51,1.59,1.2,2.49,1.46c0.4,0.12,0.85,0.13,1.21-0.08c0.18-0.1,0.32-0.26,0.45-0.42c0.08-0.11,0.17-0.35,0.3-0.38
			c0.17-0.04,0.52,0.26,0.65,0.34c0.19,0.13,0.37,0.26,0.55,0.39c0.49,0.35,0.99,0.69,1.45,1.09c0.77,0.67,1.52,1.35,2.28,2.02
			c1.74,1.54,3.46,3.11,5.27,4.58C101.77,112.5,101.84,112.43,101.79,112.38z"/>
		
			<linearGradient id="SVGID_00000160159353115389723790000018294330564384247982_" gradientUnits="userSpaceOnUse" x1="57.601" y1="785.72" x2="74.569" y2="789.4633" gradientTransform="matrix(1 0 0 1 0 -692)">
			<stop  offset="0" style="stop-color:#FFFFFF;stop-opacity:0.1"/>
			<stop  offset="1" style="stop-color:#000000"/>
		</linearGradient>
		<path style="fill:url(#SVGID_00000160159353115389723790000018294330564384247982_);" d="M73.9,100.35
			c-0.5-0.64-1.04-1.21-1.62-1.76s-1.1-1.15-1.66-1.71c-1.08-1.08-2.33-2-3.67-2.74c-1.33-0.74-2.69-1.42-4.1-1.99
			c-1.48-0.6-3-1.03-4.53-1.47c-0.06-0.02-0.08,0.07-0.02,0.09c1.48,0.53,2.91,1.25,4.29,2c1.31,0.71,2.59,1.46,3.81,2.31
			s2.44,1.69,3.69,2.49c0.68,0.43,1.34,0.86,1.95,1.39c0.58,0.51,1.15,1.03,1.74,1.52C73.86,100.54,73.96,100.43,73.9,100.35z"/>
		
			<linearGradient id="SVGID_00000106856058035661063460000008127028802240540066_" gradientUnits="userSpaceOnUse" x1="38.7723" y1="786.0532" x2="45.6125" y2="787.5621" gradientTransform="matrix(1 0 0 1 0 -692)">
			<stop  offset="0" style="stop-color:#FFFFFF;stop-opacity:0.1"/>
			<stop  offset="1" style="stop-color:#000000"/>
		</linearGradient>
		<path style="fill:url(#SVGID_00000106856058035661063460000008127028802240540066_);" d="M44.43,97.54
			c-0.54-0.94-1.71-1.34-2.62-1.8c-0.45-0.22-1.07-0.47-1.4-0.87c-0.34-0.41,0.09-1.13,0.13-1.61c0.02-0.26,0-0.54-0.06-0.8
			s-0.2-0.49-0.16-0.76c0.05-0.33,0.21-0.64,0.28-0.96c0.07-0.31,0.09-0.63,0.13-0.94c0.04-0.32-0.45-0.42-0.59-0.16
			c-0.32,0.58-0.6,1.16-0.78,1.8c-0.15,0.55,0.12,0.96,0.13,1.49c0.01,0.63-0.43,1.17-0.41,1.81c0.01,0.55,0.33,1.02,0.76,1.34
			c0.48,0.35,1.06,0.61,1.6,0.84c0.54,0.23,1.15,0.31,1.67,0.58c0.5,0.27,0.81,0.76,0.97,1.3c0.13,0.45,0.13,1.03,0.38,1.43
			c0.01,0.02,0.04,0.02,0.05,0c0.23-0.34,0.26-0.9,0.25-1.3C44.73,98.46,44.66,97.96,44.43,97.54z"/>
		
			<linearGradient id="SVGID_00000067935550657899444600000009968588810548992903_" gradientUnits="userSpaceOnUse" x1="59.3185" y1="806.49" x2="99.5265" y2="815.3603" gradientTransform="matrix(1 0 0 1 0 -692)">
			<stop  offset="5.993717e-04" style="stop-color:#040404"/>
			<stop  offset="0.5763" style="stop-color:#141619"/>
			<stop  offset="1" style="stop-color:#1C1F23"/>
		</linearGradient>
		<path style="fill:url(#SVGID_00000067935550657899444600000009968588810548992903_);" d="M97.83,130.49
			c-0.97-0.96-2.08-1.71-3.34-2.22c-1.33-0.54-2.7-0.94-4.08-1.33c-2.78-0.79-5.48-1.83-8.06-3.13c-5.21-2.61-9.94-6.08-14.27-9.95
			c-1.2-1.08-2.37-2.19-3.54-3.31c-1.22-1.17-2.33-2.46-3.46-3.71c-0.03-0.04-0.09,0-0.08,0.05c0.37,1.42,1.25,2.57,2.21,3.65
			c0.99,1.11,2.05,2.15,3.13,3.17c2.14,2.01,4.37,3.92,6.71,5.68c4.67,3.51,9.81,6.41,15.4,8.18c1.55,0.49,3.13,0.9,4.69,1.37
			c0.75,0.22,1.44,0.54,2.17,0.82c0.79,0.31,1.5,0.67,2.18,1.18C97.75,131.12,98.05,130.71,97.83,130.49z"/>
		<g>
			<path d="M42.55,23.84c-0.27-1.1,0.52-2.09,1.38-2.67c1.04-0.69,2.24-1.16,3.37-1.68c1.26-0.59,2.52-1.18,3.78-1.77
				c0.62-0.29,1.24-0.58,1.86-0.87c0.59-0.28,1.17-0.57,1.78-0.8c0.68-0.25,1.34-0.36,2.06-0.31c0.76,0.06,1.51,0.21,2.27,0.21
				c0.56-0.01,0.56-0.88,0-0.88c-0.73,0.01-1.44-0.13-2.17-0.2c-0.68-0.06-1.36,0-2.02,0.2c-0.68,0.21-1.33,0.54-1.97,0.84
				c-0.65,0.31-1.31,0.61-1.96,0.92c-1.34,0.63-2.68,1.25-4.02,1.88c-0.64,0.3-1.29,0.6-1.93,0.9c-0.58,0.27-1.16,0.55-1.67,0.93
				c-1.11,0.81-1.95,2.11-1.6,3.53C41.84,24.62,42.68,24.39,42.55,23.84L42.55,23.84z"/>
		</g>
		<g>
			<path d="M129.96,58.56c0.81-0.05,1.4,0.28,1.76,1c0.21,0.44,0.3,0.94,0.41,1.41c0.15,0.62,0.28,1.24,0.41,1.87
				c0.45,2.22,0.85,4.47,1.03,6.73c0.05,0.6,0.14,1.65-0.57,1.89c-0.53,0.18-0.3,1.02,0.23,0.84c0.91-0.31,1.22-1.18,1.24-2.08
				c0.02-1.02-0.18-2.06-0.31-3.07c-0.19-1.41-0.42-2.8-0.7-4.19c-0.14-0.7-0.29-1.39-0.45-2.08c-0.13-0.58-0.25-1.17-0.5-1.72
				c-0.47-1.02-1.43-1.57-2.55-1.5C129.4,57.73,129.4,58.6,129.96,58.56L129.96,58.56z"/>
		</g>
		<g>
			<path d="M119.96,31.5c1,1.68,2.01,3.38,2.9,5.12c0.85,1.66,1.34,3.49,1.39,5.36c0.02,0.81-0.1,1.63,0.01,2.44
				c0.03,0.23,0.18,0.44,0.44,0.44c0.21,0,0.47-0.2,0.44-0.44c-0.1-0.71,0-1.43,0-2.14c0-0.95-0.11-1.9-0.32-2.83
				c-0.43-1.95-1.39-3.66-2.36-5.38c-0.57-1.01-1.14-2.01-1.73-3.01C120.43,30.58,119.67,31.02,119.96,31.5L119.96,31.5z"/>
		</g>
		<g>
			<path d="M58.9,15.75c0.46,0.78,1.32,0.97,2.12,1.22c0.41,0.13,0.73,0.35,1.08,0.59c0.33,0.23,0.71,0.4,1.09,0.52
				c0.76,0.24,1.56,0.31,2.34,0.44c0.41,0.07,0.82,0.15,1.24,0.17c0.44,0.02,0.89,0,1.33-0.04c3.81-0.34,7.55-1.08,11.18-2.26
				c1.85-0.6,3.68-1.3,5.48-2.04c0.91-0.37,1.82-0.76,2.73-1.14c0.44-0.19,0.87-0.37,1.31-0.56c0.4-0.17,0.84-0.32,0.96-0.79
				c0.07-0.27-0.12-0.65,0.04-0.85c0.14-0.17,0.4-0.27,0.6-0.33c0.73-0.22,1.5-0.08,2.28,0.13c1.93,0.54,3.85,1.15,5.78,1.72
				c1.93,0.58,3.87,1.16,5.8,1.73c0.47,0.14,0.94,0.28,1.41,0.42c0.41,0.12,0.85,0.22,1.25,0.4c0.33,0.16,0.58,0.38,0.72,0.72
				c0.13,0.32,0.19,0.67,0.27,1c0.09,0.36,0.21,0.72,0.41,1.04c0.31,0.47,1.06,0.03,0.76-0.44c-0.4-0.62-0.39-1.4-0.69-2.06
				c-0.36-0.77-1.1-1.1-1.87-1.33c-1.93-0.58-3.86-1.15-5.79-1.73s-3.87-1.16-5.8-1.73c-0.92-0.27-1.85-0.61-2.79-0.78
				c-0.72-0.13-1.48-0.14-2.17,0.13c-0.63,0.24-1.18,0.7-1.08,1.44c0.01,0.06,0.05,0.22,0.03,0.28c-0.01,0.03-0.04,0.03-0.07,0.06
				c-0.15,0.13-0.45,0.2-0.63,0.28c-0.45,0.19-0.9,0.39-1.36,0.58c-1.79,0.76-3.59,1.51-5.42,2.18c-3.66,1.35-7.44,2.4-11.33,2.83
				c-0.86,0.1-1.72,0.23-2.58,0.27c-0.83,0.04-1.61-0.12-2.43-0.24c-0.76-0.11-1.58-0.21-2.26-0.58c-0.37-0.2-0.69-0.5-1.08-0.67
				c-0.4-0.18-0.82-0.27-1.23-0.4c-0.34-0.11-0.68-0.28-0.87-0.6C59.37,14.82,58.61,15.26,58.9,15.75L58.9,15.75z"/>
		</g>
		<g>
			<path d="M127.54,82.38c0.73,1.87,0.54,3.9-0.02,5.79c-0.29,0.97-0.66,1.92-1.06,2.85c-0.16,0.38-0.32,0.64-0.65,0.88
				c-0.34,0.25-0.58,0.5-0.63,0.94c-0.02,0.24,0.22,0.44,0.44,0.44c0.26,0,0.41-0.2,0.44-0.44c0.01-0.07,0.2-0.18,0.25-0.22
				c0.15-0.11,0.3-0.21,0.43-0.34c0.32-0.34,0.47-0.79,0.65-1.21c0.4-0.97,0.78-1.95,1.06-2.96c0.53-1.94,0.68-4.05-0.06-5.95
				c-0.09-0.22-0.29-0.37-0.54-0.31C127.64,81.9,127.45,82.16,127.54,82.38L127.54,82.38z"/>
		</g>
		<g>
			<path d="M122.69,102.37c0.4,1.24,0.23,2.55,0.02,3.81c-0.1,0.61-0.23,1.22-0.48,1.8c-0.25,0.59-0.56,1.15-0.77,1.76
				c0.24-0.06,0.49-0.13,0.73-0.19c-0.27-0.24-0.49-0.52-0.74-0.78c-0.28-0.29-0.56-0.58-0.85-0.87c-0.53-0.52-1.07-1.04-1.62-1.53
				c-1.15-1.03-2.35-1.99-3.6-2.89c-0.62-0.45-1.25-0.87-1.91-1.26c-0.58-0.34-1.21-0.66-1.7-1.12c-1.01-0.94-1.34-2.46-1.35-3.79
				c-0.01-1.58,0.32-3.19,1.23-4.5c0.32-0.46-0.44-0.9-0.76-0.44c-0.85,1.21-1.23,2.68-1.33,4.14c-0.1,1.49,0.1,3.08,0.91,4.37
				c0.81,1.29,2.23,1.83,3.44,2.64c1.34,0.9,2.62,1.89,3.84,2.94c0.67,0.57,1.31,1.17,1.94,1.78c0.31,0.31,0.62,0.62,0.93,0.94
				c0.32,0.33,0.61,0.7,0.95,1c0.25,0.23,0.62,0.13,0.73-0.19c0.21-0.62,0.53-1.19,0.78-1.79c0.26-0.63,0.39-1.3,0.5-1.97
				c0.22-1.35,0.38-2.75-0.05-4.07C123.36,101.6,122.52,101.83,122.69,102.37L122.69,102.37z"/>
		</g>
		<g>
			<path d="M110.81,81.72c-0.12-0.88-0.8-1.51-1.03-2.34c-0.13-0.46-0.13-0.94-0.13-1.42c-0.01-0.55-0.01-1.1-0.01-1.65
				c-0.01-1.06-0.06-2.12-0.01-3.17c0.04-0.95,0.32-1.84,0.95-2.57c0.37-0.42-0.25-1.05-0.62-0.62c-0.5,0.58-0.88,1.26-1.06,2.01
				c-0.2,0.85-0.16,1.73-0.15,2.59c0.01,0.91,0.02,1.81,0.02,2.72c0.01,0.82-0.05,1.69,0.21,2.48c0.26,0.77,0.87,1.39,0.99,2.2
				c0.03,0.23,0.33,0.36,0.54,0.31C110.76,82.19,110.84,81.96,110.81,81.72L110.81,81.72z"/>
		</g>
		<g>
			<path d="M100.47,50.42c-0.04-0.01-0.08-0.02-0.13-0.03c0.1,0.09,0.12,0.1,0.07,0.02c0-0.07-0.09-0.18-0.12-0.25
				c-0.08-0.19-0.15-0.39-0.21-0.59c-0.12-0.38-0.21-0.76-0.3-1.15c-0.07-0.31-0.14-0.63-0.12-0.95c0.01-0.14,0.04-0.27,0.11-0.39
				c0.09-0.16,0.2-0.28,0.26-0.46c0.17-0.54-0.68-0.77-0.84-0.23c-0.02,0.06-0.09,0.12-0.12,0.17c-0.06,0.09-0.11,0.2-0.15,0.3
				c-0.08,0.21-0.12,0.43-0.13,0.65c-0.02,0.44,0.09,0.88,0.19,1.3c0.11,0.46,0.22,0.92,0.39,1.37c0.09,0.24,0.18,0.49,0.3,0.71
				c0.13,0.23,0.31,0.33,0.56,0.39C100.78,51.4,101.02,50.55,100.47,50.42L100.47,50.42z"/>
		</g>
		<g>
			<path d="M102.51,55.43c-0.18-0.23-0.12-0.53-0.25-0.78c-0.17-0.32-0.57-0.44-0.89-0.28c-0.54,0.26-0.57,0.9-0.5,1.42
				c0.09,0.6,0.3,1.19,0.47,1.78c0.2,0.69,0.37,1.4,0.6,2.07c0.42,1.19,1.33,1.97,2.51,2.37c0.6,0.2,1.22,0.29,1.84,0.38
				c0.76,0.11,1.51,0.22,2.27,0.33c3.1,0.45,6.2,0.9,9.3,1.34c3,0.43,6.04,0.82,8.97,1.64c1.46,0.41,2.82,1.04,3.91,2.13
				c0.53,0.53,0.96,1.14,1.26,1.83c0.31,0.74,0.49,1.53,0.67,2.31c0.13,0.55,0.97,0.32,0.84-0.23c-0.29-1.26-0.6-2.55-1.37-3.61
				c-0.72-1-1.69-1.82-2.78-2.39c-1.18-0.62-2.5-0.96-3.79-1.25c-1.38-0.32-2.78-0.56-4.18-0.78c-2.84-0.44-5.69-0.83-8.53-1.24
				c-1.42-0.21-2.85-0.41-4.27-0.62c-0.72-0.1-1.44-0.21-2.16-0.31c-0.56-0.08-1.12-0.16-1.66-0.34c-0.53-0.17-1.03-0.44-1.42-0.85
				c-0.47-0.5-0.62-1.14-0.81-1.78c-0.21-0.75-0.43-1.5-0.64-2.25c-0.06-0.22-0.13-0.45-0.17-0.68c-0.02-0.11-0.03-0.26-0.01-0.37
				c0-0.02,0.02-0.05,0.02-0.07c0.02-0.14,0.04,0-0.01-0.01c-0.07-0.02-0.15-0.04-0.22-0.06c-0.03-0.09-0.04-0.09-0.01,0
				c0.01,0.05,0.01,0.1,0.02,0.14c0.01,0.08,0.03,0.16,0.06,0.24c0.07,0.2,0.18,0.37,0.31,0.54c0.15,0.19,0.47,0.15,0.62,0
				C102.7,55.87,102.66,55.62,102.51,55.43L102.51,55.43z"/>
		</g>
		<g>
			<path d="M102.25,56.25c1.97,0.24,3.96,0.27,5.95,0.3c0.99,0.02,1.99,0.03,2.98,0.06c1.04,0.03,2.09,0.12,3.13,0.08
				c1.01-0.04,2.01-0.21,3.02-0.26c0.84-0.04,1.68-0.01,2.52,0.05c1.85,0.14,3.69,0.45,5.5,0.84c1.92,0.42,3.82,0.93,5.69,1.54
				c0.54,0.18,0.77-0.67,0.23-0.84c-3.44-1.12-7.02-1.98-10.62-2.34c-0.87-0.09-1.75-0.14-2.63-0.14c-0.94,0-1.87,0.12-2.8,0.21
				c-1.09,0.1-2.16,0.05-3.24,0.01c-0.99-0.04-1.97-0.06-2.96-0.07c-2.26-0.03-4.52-0.04-6.77-0.31c-0.24-0.03-0.44,0.22-0.44,0.44
				C101.81,56.07,102.01,56.22,102.25,56.25L102.25,56.25z"/>
		</g>
		<g>
			<path d="M99.93,51.14c0.42,0.2,0.79,0.25,1.2,0.01c0.34-0.19,0.62-0.49,0.94-0.7c0.8-0.53,1.64-0.98,2.51-1.37
				c1.75-0.79,3.61-1.31,5.49-1.68c1.54-0.3,3.09-0.52,4.63-0.81c1.62-0.3,3.23-0.62,4.85-0.92c1.67-0.31,3.35-0.61,5.04-0.81
				c0.24-0.03,0.44-0.18,0.44-0.44c0-0.22-0.2-0.47-0.44-0.44c-3.08,0.35-6.13,1-9.18,1.58c-3.33,0.64-6.73,1-9.92,2.19
				c-0.99,0.37-1.96,0.81-2.88,1.33c-0.43,0.25-0.88,0.5-1.27,0.8c-0.18,0.13-0.34,0.29-0.52,0.41c-0.17,0.12-0.26,0.17-0.45,0.08
				C99.86,50.14,99.42,50.89,99.93,51.14L99.93,51.14z"/>
		</g>
		<g>
			<path d="M100.01,46.7c1.36-1.34,2.98-2.36,4.6-3.35c1.74-1.06,3.45-2.14,5.11-3.33c1.42-1.01,2.77-2.11,4.22-3.07
				c1.19-0.79,2.41-1.55,3.57-2.4c0.65-0.47,1.29-0.97,1.87-1.52c0.46-0.44,0.92-0.95,1.2-1.53c0.24-0.51-0.52-0.95-0.76-0.44
				c-0.5,1.07-1.59,1.88-2.52,2.57c-1.16,0.86-2.38,1.63-3.58,2.42c-1.4,0.92-2.71,1.97-4.07,2.95c-1.65,1.19-3.34,2.3-5.09,3.35
				c-1.83,1.1-3.66,2.23-5.19,3.74C98.99,46.48,99.61,47.1,100.01,46.7L100.01,46.7z"/>
		</g>
		<g>
			<path d="M41.68,24.29c0.01,1.58,0.15,3.16,0.33,4.73c0.18,1.56,0.39,3.13,0.76,4.66c0.76,3.14,2.22,6.16,4.39,8.57
				c1.95,2.17,4.53,3.8,7.45,4.2c1.87,0.25,3.77,0.09,5.65,0.18c1.85,0.09,3.69,0.3,5.53,0.53c6.6,0.83,13.92,1.82,19.78-2.12
				c4.88-3.28,7.61-8.76,12.09-12.47c1.19-0.99,2.52-1.85,3.44-3.13c0.92-1.29,1.07-2.95,1.98-4.24c0.71-1.01,1.71-1.82,2.64-2.62
				c0.97-0.84,1.97-1.7,2.7-2.78c0.31-0.47,0.56-0.98,0.7-1.53c0.14-0.55-0.7-0.78-0.84-0.23c-0.3,1.14-1.12,2.04-1.96,2.83
				c-0.92,0.87-1.92,1.65-2.83,2.53c-0.43,0.42-0.83,0.86-1.17,1.35c-0.42,0.6-0.69,1.28-0.94,1.96c-0.27,0.76-0.52,1.52-0.98,2.19
				c-0.42,0.61-0.98,1.13-1.55,1.6c-1.14,0.95-2.31,1.81-3.37,2.86c-1.02,1.01-1.95,2.09-2.87,3.19c-1.8,2.16-3.52,4.4-5.63,6.27
				c-1.07,0.95-2.23,1.78-3.51,2.42c-1.45,0.73-3.02,1.19-4.62,1.47c-3.3,0.58-6.68,0.33-9.99-0.05c-3.64-0.43-7.26-0.97-10.93-0.95
				c-1.68,0.01-3.35,0-4.96-0.53c-1.31-0.43-2.54-1.14-3.6-2.02c-2.34-1.92-4.03-4.58-5.07-7.41c-1.09-2.95-1.45-6.18-1.67-9.31
				c-0.05-0.72-0.08-1.44-0.09-2.16C42.56,23.73,41.68,23.73,41.68,24.29L41.68,24.29z"/>
		</g>
		<g>
			<path d="M89.12,11.46c0.02,0.02,0.04,0.05,0.06,0.07c0,0-0.04-0.07,0,0.01c0.01,0.03,0.03,0.05,0.05,0.08
				c0.04,0.07,0.02,0.04,0.01,0.01c0.02,0.05,0.03,0.11,0.05,0.16c0.03,0.09,0-0.01,0,0c0,0.04,0,0.07,0.01,0.11
				c0,0.03,0,0.06,0,0.09c0,0.09,0,0,0,0.01c-0.01,0.07-0.03,0.14-0.05,0.22c-0.02,0.07-0.05,0.14-0.07,0.21
				c-0.03,0.08,0.03-0.06-0.01,0.02c-0.02,0.04-0.04,0.08-0.06,0.13c-0.39,0.77-0.99,1.36-1.64,1.97c-1.82,1.68-3.96,3.02-6.14,4.17
				c-2.3,1.22-4.75,2.23-7.36,2.5c-2.01,0.21-4.08-0.07-6.08-0.33c-1.02-0.13-2.04-0.3-3.06-0.48c-0.45-0.08-0.9-0.15-1.34-0.27
				c-0.32-0.09-0.74-0.21-0.95-0.48c-0.18-0.23-0.22-0.55-0.39-0.79c-0.24-0.34-0.55-0.4-0.93-0.49c-0.58-0.13-1.2-0.26-1.7-0.59
				c-0.11-0.07-0.05-0.03-0.16-0.13c-0.03-0.02-0.08-0.1-0.03-0.03c-0.03-0.03-0.05-0.07-0.07-0.11c-0.05-0.07-0.01-0.03-0.01-0.02
				c-0.01-0.03-0.02-0.07-0.03-0.1c-0.02-0.05-0.01-0.08,0,0c0-0.04-0.01-0.08-0.01-0.12s0-0.08,0-0.11c0-0.11-0.01,0.05,0-0.03
				c0.02-0.09,0.03-0.18,0.06-0.27c0.05-0.19,0.11-0.38,0.16-0.57c0.06-0.21,0.12-0.42,0.18-0.63c0.14-0.55-0.71-0.78-0.84-0.23
				c-0.19,0.77-0.67,1.68-0.3,2.47c0.19,0.41,0.59,0.68,0.99,0.86c0.32,0.14,0.65,0.25,0.98,0.34c0.21,0.06,0.42,0.1,0.63,0.15
				c0.14,0.03,0.3,0.04,0.35,0.11c0.18,0.23,0.23,0.57,0.41,0.82c0.26,0.35,0.68,0.56,1.09,0.71c0.44,0.16,0.9,0.23,1.36,0.32
				c0.53,0.1,1.05,0.19,1.58,0.27c2.11,0.34,4.26,0.65,6.4,0.69c3.08,0.07,5.98-0.93,8.7-2.28c2.39-1.19,4.72-2.62,6.73-4.38
				c0.75-0.65,1.49-1.37,2.01-2.22c0.37-0.6,0.63-1.36,0.31-2.03c-0.07-0.14-0.17-0.27-0.28-0.39
				C89.35,10.44,88.73,11.06,89.12,11.46L89.12,11.46z"/>
		</g>
		<g>
			<path d="M49.32,38.56c1.9,1.55,3.87,3.07,6.14,4.05c1.13,0.49,2.31,0.81,3.53,0.96c1.35,0.16,2.7,0.13,4.05,0.07
				c1.34-0.06,2.69-0.15,4.03-0.12c1.41,0.03,2.77,0.28,4.15,0.54c1.22,0.23,2.45,0.41,3.69,0.41c1.15,0,2.3-0.12,3.42-0.35
				c2.58-0.53,5.01-1.67,7.07-3.31c0.11-0.09-0.05-0.24-0.15-0.15c-3.73,2.98-8.62,4.15-13.3,3.33c-1.28-0.22-2.55-0.52-3.85-0.62
				c-1.32-0.11-2.65-0.05-3.98,0.02c-2.6,0.13-5.23,0.26-7.72-0.62c-2.6-0.91-4.82-2.62-6.94-4.34
				C49.37,38.32,49.22,38.47,49.32,38.56L49.32,38.56z"/>
		</g>
		<g>
			<path d="M96.29,26.77c0.67-0.45,1.35-0.91,1.91-1.5c0.61-0.64,0.9-1.37,1.15-2.2c0.13-0.44,0.29-0.87,0.56-1.25
				c0.24-0.32,0.53-0.6,0.84-0.85c0.61-0.5,1.28-0.94,1.78-1.56c0.09-0.11-0.07-0.26-0.15-0.15c-0.98,1.19-2.53,1.76-3.09,3.29
				c-0.16,0.44-0.26,0.9-0.43,1.33c-0.16,0.41-0.4,0.78-0.7,1.11c-0.56,0.64-1.28,1.12-1.98,1.59
				C96.06,26.65,96.17,26.84,96.29,26.77L96.29,26.77z"/>
		</g>
		<g>
			<path d="M87.19,24.46c-3.37,3.16-7.57,5.4-12.07,6.44c-0.56,0.13-1.12,0.24-1.68,0.33c-0.54,0.09-1.1,0.12-1.64,0.22
				c-0.33,0.07-0.76,0.22-0.85,0.6c-0.1,0.44,0.37,0.82,0.69,1.03c0.86,0.6,2.01,0.69,3.02,0.63c1.05-0.06,2.07-0.33,3.06-0.68
				c2.36-0.83,4.6-2.13,7.12-2.43c0.14-0.02,0.14-0.24,0-0.22c-2.1,0.25-4.02,1.18-5.96,1.97c-1.9,0.77-4.09,1.54-6.15,0.98
				c-0.52-0.14-1.04-0.4-1.4-0.82c-0.55-0.65,0.42-0.85,0.88-0.9c1.06-0.12,2.1-0.3,3.14-0.55c2.1-0.5,4.14-1.27,6.06-2.26
				c2.16-1.12,4.16-2.53,5.94-4.2C87.44,24.52,87.29,24.36,87.19,24.46L87.19,24.46z"/>
		</g>
		<g>
			<path d="M52.9,22.81c-0.11,0.53,0.14,1,0.43,1.42s0.61,0.81,0.96,1.18c0.71,0.76,1.54,1.42,2.45,1.94
				c0.12,0.07,0.23-0.12,0.11-0.19c-0.83-0.48-1.58-1.06-2.25-1.75c-0.33-0.34-0.64-0.71-0.93-1.09c-0.31-0.42-0.67-0.92-0.56-1.46
				C53.14,22.73,52.92,22.68,52.9,22.81L52.9,22.81z"/>
		</g>
		<g>
			<path d="M53.87,28.02c0.99,0.93,2.23,1.57,3.56,1.84c0.14,0.03,0.2-0.18,0.06-0.21c-1.29-0.26-2.49-0.88-3.46-1.78
				C53.92,27.77,53.77,27.92,53.87,28.02L53.87,28.02z"/>
		</g>
		<g>
			<path d="M109.56,41.84c0.6,0.17,1.18-0.05,1.72-0.3c0.71-0.32,1.41-0.66,2.11-0.99c1.4-0.66,2.8-1.31,4.19-1.97
				c0.13-0.06,0.02-0.25-0.11-0.19c-1.3,0.61-2.6,1.22-3.9,1.83c-0.64,0.3-1.28,0.6-1.92,0.9c-0.62,0.29-1.32,0.71-2.03,0.5
				C109.48,41.59,109.42,41.8,109.56,41.84L109.56,41.84z"/>
		</g>
		<g>
			<path d="M119.26,58.91c2.58,0.28,5.12,0.88,7.56,1.77c0.13,0.05,0.19-0.16,0.06-0.21c-2.46-0.9-5.02-1.5-7.62-1.78
				C119.12,58.67,119.12,58.89,119.26,58.91L119.26,58.91z"/>
		</g>
		<g>
			<path d="M110.28,70.65c0.29,0.03,0.58,0.2,0.84,0.32c0.31,0.15,0.64,0.3,0.93,0.48c0.22,0.14,0.41,0.34,0.62,0.51
				c0.31,0.24,0.63,0.47,0.94,0.7c1.12,0.82,2.24,1.63,3.39,2.4c1.17,0.79,2.37,1.56,3.59,2.28c1.2,0.71,2.43,1.38,3.61,2.13
				c0.65,0.41,1.3,0.84,1.92,1.3c0.56,0.41,1.11,0.92,1.41,1.55c0.1,0.21,0.41,0.27,0.6,0.16c0.22-0.13,0.26-0.38,0.16-0.6
				c-0.57-1.22-1.86-1.99-2.94-2.71c-1.22-0.82-2.5-1.53-3.77-2.26c-2.53-1.47-4.95-3.11-7.31-4.84c-0.33-0.24-0.68-0.48-1-0.74
				c-0.27-0.22-0.52-0.47-0.81-0.65c-0.34-0.21-0.72-0.38-1.08-0.54s-0.7-0.31-1.09-0.36c-0.24-0.03-0.44,0.22-0.44,0.44
				C109.84,70.47,110.04,70.62,110.28,70.65L110.28,70.65z"/>
		</g>
		<g>
			<path d="M109.97,81.74c0.19,0.62,0.73,0.98,1.3,1.22c0.26,0.11,0.52,0.19,0.78,0.29c0.3,0.11,0.58,0.28,0.86,0.44
				c1.16,0.65,2.34,1.28,3.49,1.96c2.26,1.34,4.44,2.87,6.22,4.82c0.5,0.55,0.99,1.11,1.44,1.7c0.4,0.52,0.76,1.02,1.34,1.35
				c0.49,0.28,0.93-0.47,0.44-0.76c-0.46-0.27-0.75-0.69-1.08-1.11c-0.39-0.51-0.81-0.99-1.23-1.47c-0.84-0.95-1.76-1.82-2.75-2.6
				c-2.04-1.62-4.3-2.91-6.57-4.17c-0.62-0.34-1.23-0.74-1.89-1c-0.48-0.18-1.33-0.35-1.5-0.91
				C110.65,80.97,109.8,81.2,109.97,81.74L109.97,81.74z"/>
		</g>
		<g>
			<path d="M111.19,92.76c2.88,2.66,5.85,5.21,8.9,7.67c0.87,0.7,1.75,1.39,2.64,2.08c0.19,0.14,0.44,0.18,0.62,0
				c0.15-0.15,0.19-0.47,0-0.62c-3.1-2.4-6.12-4.9-9.05-7.5c-0.84-0.74-1.67-1.49-2.49-2.25C111.39,91.76,110.77,92.38,111.19,92.76
				L111.19,92.76z"/>
		</g>
		<path d="M59.44,106.17c1.88,2.68,3.99,5.21,6.3,7.54s4.81,4.46,7.47,6.38c2.65,1.91,5.46,3.61,8.4,5.06s6,2.67,9.14,3.61
			c0.78,0.23,1.56,0.45,2.35,0.65c0.83,0.21,1.71,0.34,2.51,0.64c0.69,0.26,1.32,0.74,1.92,1.16c0.65,0.46,1.28,0.93,1.94,1.37
			c0.28,0.18,0.56,0.36,0.85,0.51c0.45,0.24,0.85-0.44,0.4-0.68c-1.33-0.71-2.48-1.73-3.75-2.53c-0.3-0.19-0.61-0.37-0.94-0.51
			c-0.44-0.18-0.9-0.29-1.37-0.39c-0.79-0.18-1.58-0.38-2.37-0.59c-3.12-0.86-6.17-1.98-9.1-3.35c-2.94-1.37-5.77-2.99-8.44-4.83
			c-2.68-1.84-5.21-3.9-7.54-6.16c-2.33-2.25-4.47-4.69-6.39-7.3c-0.24-0.32-0.47-0.65-0.7-0.98
			C59.83,105.36,59.15,105.75,59.44,106.17L59.44,106.17z"/>
		<path d="M91.53,129.08c2.49,2.55,5.51,4.6,8.6,6.35c1.6,0.91,3.25,1.75,4.94,2.5c0.79,0.35,1.58,0.68,2.39,0.99
			c0.37,0.14,0.82,0.4,1.22,0.34c0.32-0.05,0.68-0.17,0.86-0.47c0.14-0.22,0.12-0.5,0.04-0.74c-0.03-0.09-0.07-0.17-0.1-0.26
			c-0.01-0.04-0.03-0.08-0.04-0.12c-0.03-0.09,0-0.04-0.01,0.01c0.02-0.07-0.01,0.01-0.01,0.02c0,0.1-0.05,0.01-0.01,0.02
			c0.04,0,0.13-0.09,0.17-0.12c0.18-0.13,0.36-0.27,0.52-0.42c0.29-0.29,0.51-0.67,0.49-1.09c-0.03-0.5-0.37-0.9-0.52-1.37
			c-0.15-0.47-0.2-0.95-0.23-1.44c-0.07-1.11-0.13-2.23-0.18-3.34c-0.11-2.23-0.21-4.45-0.25-6.68c-0.02-1.11-0.02-2.23,0-3.34
			c0.01-0.53,0.05-1.07-0.06-1.6c-0.08-0.42-0.29-0.82-0.51-1.19c-0.56-0.93-1.29-1.78-1.95-2.64c-0.74-0.95-1.5-1.88-2.18-2.87
			c-0.1-0.14-0.19-0.28-0.28-0.43c-0.25-0.44-0.94-0.04-0.68,0.4c0.27,0.48,0.62,0.92,0.95,1.35c0.5,0.66,1.01,1.31,1.52,1.97
			c0.47,0.6,0.93,1.19,1.38,1.8c0.4,0.54,0.87,1.14,0.99,1.81c0.12,0.62,0.03,1.3,0.02,1.93c-0.01,0.69-0.01,1.38,0,2.06
			c0.01,1.38,0.05,2.75,0.1,4.13c0.05,1.38,0.12,2.75,0.19,4.13c0.04,0.69,0.07,1.38,0.11,2.06c0.03,0.62,0.07,1.24,0.22,1.84
			c0.08,0.31,0.2,0.61,0.34,0.9c0.12,0.23,0.29,0.48,0.18,0.75c-0.1,0.23-0.33,0.41-0.52,0.55c-0.18,0.13-0.4,0.24-0.51,0.44
			c-0.17,0.31-0.02,0.62,0.08,0.92c0.01,0.03,0.02,0.06,0.03,0.08c0.01,0.03,0.06,0.12,0.02,0.04c0,0,0.01,0.06,0,0.06
			c0.01-0.03,0.02-0.06,0-0.02c0.02-0.04,0.01,0-0.06,0.03c-0.13,0.05-0.27,0.07-0.4,0.09c0.07,0,0.14,0,0.21,0
			c-2.34-0.84-4.61-1.89-6.81-3.06c-2.32-1.24-4.57-2.64-6.65-4.24c-1.07-0.83-2.1-1.71-3.05-2.68
			C91.74,128.15,91.18,128.71,91.53,129.08L91.53,129.08z"/>
		<path d="M108.36,116.1c-0.1-0.62-0.2-1.25-0.37-1.85c-0.08-0.27-0.18-0.53-0.24-0.8c-0.07-0.32-0.01-0.65,0.02-0.97
			c0.1-1.21-0.64-2.1-1.13-3.13c-0.52-1.1-0.75-2.31-1.03-3.49c-0.32-1.3-0.55-2.64-0.94-3.92c-0.18-0.6-0.45-1.19-0.56-1.81
			c-0.11-0.59-0.02-1.22,0.01-1.82c0.03-0.61-0.06-1.16-0.15-1.77c-0.1-0.63-0.06-1.27,0-1.91c0.02-0.25-0.02-0.68,0.1-0.9
			c0.1-0.2,0.44-0.26,0.62-0.38c0.36-0.26,0.59-0.66,0.68-1.1c0.2-1-0.18-2.03-0.68-2.88c-0.6-1.02-1.47-1.87-2.37-2.63
			c-0.93-0.79-1.95-1.78-3.19-2.01c-0.29-0.05-0.57,0.18-0.49,0.49c0.09,0.36,0.09,0.51-0.29,0.5c-0.47-0.02-0.92-0.22-1.37-0.3
			c-1.43-0.25-2.86-0.01-4.28,0.21c-1.48,0.22-2.9,0.24-4.39,0.05c-1.49-0.2-2.98-0.48-4.47-0.67c-1.5-0.2-3-0.31-4.51-0.2
			s-3.01,0.37-4.52,0.43c-1.5,0.05-3.01-0.02-4.51-0.06c-1.5-0.05-3-0.1-4.5-0.15c-1.52-0.05-3.04-0.12-4.55-0.14
			c-0.8-0.01-1.66,0.3-2.44,0.49c-2.01,0.49-4.01,1-6.01,1.53c-1.49,0.39-2.98,0.83-4.47,1.22c-0.62,0.16-1.23,0.35-1.85,0.47
			c-0.31,0.06-0.63,0.1-0.94,0.09c-0.12,0-0.19-0.01-0.32-0.04c-0.09-0.03-0.04-0.01-0.09-0.04c-0.01,0-0.07-0.06-0.05-0.03
			c-0.05-0.07-0.05-0.08-0.04-0.18c0.02-0.18,0.12-0.36,0.17-0.54c0.07-0.27,0.02-0.54-0.2-0.72c-0.26-0.2-0.58-0.14-0.89-0.11
			c-1.18,0.14-2.41,0.41-3.26,1.32c-0.41,0.44-0.73,0.96-1.03,1.47c-0.29,0.5-0.62,1.02-0.81,1.56c-0.22,0.63-0.18,1.31-0.17,1.97
			c0.01,0.32,0.02,0.64-0.04,0.95c-0.05,0.32-0.25,0.64-0.25,0.97c0,0.31,0.18,0.52,0.38,0.74c0.18,0.2,0.32,0.42,0.41,0.67
			c0.2,0.51,0.27,1.06,0.31,1.6c0.09,1.27,0.11,2.56,0.09,3.83c-0.03,1.49-0.17,3.01-0.03,4.49c0.13,1.36,0.52,2.7,0.42,4.08
			c-0.05,0.76-0.33,1.45-0.51,2.18c-0.17,0.71-0.22,1.45-0.2,2.19c0.04,1.53,0.26,3.07,0.41,4.59c0.15,1.55,0.3,3.11,0.46,4.66
			c0.14,1.4,0.43,2.92-0.02,4.29c-0.36,1.1-1.05,2.43-0.13,3.47c0.3,0.33,0.97,0.56,1,1.05c0.02,0.27-0.07,0.54-0.07,0.81
			c0.01,0.31,0.1,0.61,0.32,0.84c0.42,0.47,1.06,0.83,1.59,1.17c0.56,0.37,1.13,0.7,1.75,0.95c1.23,0.51,2.53,0.59,3.82,0.24
			c1.21-0.32,2.33-0.92,3.56-1.13c0.62-0.11,1.25-0.14,1.85-0.3c0.52-0.14,0.97-0.4,1.38-0.74c0.79-0.65,1.36-1.58,2.29-2.03
			c0.22-0.1,0.54-0.12,0.67-0.34c0.16-0.26,0.21-0.62,0.33-0.89c0.25-0.54,0.57-1.06,0.94-1.53c1.53-1.95,3.77-3.32,5.85-4.6
			c1.91-1.18,3.92-2.17,6-3.01c1.15-0.46,2.31-0.88,3.48-1.3c0.48-0.17,0.27-0.93-0.21-0.76c-2.57,0.91-5.13,1.88-7.54,3.16
			c-1.22,0.65-2.4,1.37-3.56,2.13c-1.22,0.8-2.43,1.63-3.49,2.64c-1.13,1.07-2.07,2.35-2.52,3.85c0.09-0.09,0.18-0.18,0.28-0.28
			c-0.89,0.24-1.55,0.85-2.18,1.5c-0.63,0.66-1.22,1.27-2.15,1.47c-0.52,0.11-1.06,0.15-1.59,0.24c-0.53,0.09-1.05,0.25-1.56,0.43
			c-0.99,0.35-1.99,0.81-3.05,0.89c-1.17,0.09-2.25-0.29-3.25-0.86c-0.48-0.28-0.94-0.59-1.4-0.91c-0.22-0.16-0.47-0.3-0.66-0.49
			c-0.21-0.21-0.17-0.44-0.13-0.72c0.06-0.49,0.05-0.94-0.3-1.33c-0.29-0.32-0.75-0.49-0.97-0.87c-0.25-0.43-0.15-0.97-0.01-1.42
			c0.18-0.57,0.45-1.11,0.56-1.7c0.24-1.22,0.05-2.47-0.07-3.69c-0.13-1.3-0.25-2.61-0.38-3.91s-0.25-2.61-0.38-3.91
			c-0.12-1.27-0.25-2.56,0.08-3.81c0.16-0.61,0.37-1.2,0.46-1.84c0.08-0.59,0.07-1.19,0.01-1.78c-0.12-1.16-0.4-2.3-0.43-3.47
			c-0.03-1.29,0.05-2.59,0.07-3.88c0.02-1.1-0.03-2.2-0.07-3.3c-0.04-0.92-0.12-1.9-0.6-2.71c-0.1-0.17-0.22-0.33-0.35-0.48
			c-0.11-0.12-0.17-0.15-0.15-0.31c0.02-0.14,0.11-0.29,0.15-0.43c0.15-0.55,0.12-1.12,0.1-1.69c-0.02-0.59-0.02-1.17,0.26-1.71
			c0.22-0.43,0.45-0.85,0.7-1.27c0.55-0.93,1.15-1.68,2.22-2.01c0.51-0.16,1.04-0.24,1.57-0.28c0.01,0,0.15,0,0.15-0.01
			c-0.02-0.02-0.03-0.05-0.05-0.07c-0.05-0.1-0.07-0.09-0.09,0.03c-0.04,0.06-0.06,0.15-0.08,0.22c-0.05,0.15-0.08,0.32-0.08,0.47
			c0,0.52,0.37,0.89,0.86,0.99c1.08,0.22,2.28-0.23,3.31-0.51c2.89-0.79,5.78-1.58,8.69-2.31c0.78-0.19,1.55-0.39,2.33-0.57
			c0.33-0.08,0.65-0.16,0.98-0.23c0.42-0.1,0.8-0.13,1.24-0.12c2.57,0.07,5.15,0.17,7.72,0.26c2.55,0.08,5.1,0.21,7.64-0.09
			c1.27-0.15,2.53-0.31,3.81-0.29c1.32,0.02,2.63,0.18,3.93,0.37c2.49,0.37,4.95,0.91,7.48,0.57c1.21-0.16,2.41-0.42,3.64-0.39
			c0.58,0.01,1.13,0.12,1.69,0.27c0.32,0.09,0.65,0.16,0.98,0.13c0.83-0.06,1.06-0.77,0.87-1.49c-0.16,0.16-0.32,0.32-0.49,0.49
			c1.07,0.2,1.95,1.05,2.76,1.73c0.8,0.67,1.58,1.4,2.16,2.27c0.49,0.75,1.01,1.81,0.73,2.72c-0.15,0.5-0.55,0.53-0.92,0.81
			c-0.46,0.35-0.41,1.02-0.45,1.54c-0.05,0.61-0.09,1.22-0.02,1.82c0.07,0.61,0.2,1.17,0.18,1.79c-0.02,0.58-0.1,1.17-0.04,1.75
			c0.06,0.59,0.27,1.15,0.46,1.71c0.78,2.35,1.01,4.86,1.84,7.2c0.22,0.62,0.52,1.19,0.84,1.77c0.31,0.55,0.59,1.09,0.55,1.73
			c-0.02,0.32-0.08,0.64-0.05,0.97s0.15,0.64,0.24,0.96c0.2,0.66,0.31,1.35,0.42,2.04C107.67,116.81,108.44,116.6,108.36,116.1
			L108.36,116.1z"/>
		<path d="M59.98,89.31c3.79-0.57,7.63-0.77,11.45-0.6c1.92,0.08,3.84,0.26,5.75,0.53c0.81,0.12,1.65,0.32,2.41-0.11
			c0.18-0.1,0.36-0.22,0.57-0.26c0.22-0.05,0.46-0.03,0.68-0.02c0.48,0.02,0.97,0.04,1.45,0.08c2.16,0.14,4.31,0.4,6.45,0.78
			c0.12,0.02,0.18-0.17,0.05-0.19c-1.88-0.33-3.78-0.58-5.68-0.73c-0.48-0.04-0.96-0.07-1.45-0.1c-0.45-0.02-0.92-0.08-1.37-0.03
			c-0.42,0.04-0.7,0.3-1.08,0.45c-0.45,0.17-0.95,0.1-1.42,0.04c-3.79-0.56-7.61-0.79-11.44-0.63c-2.15,0.09-4.3,0.3-6.43,0.62
			C59.81,89.14,59.86,89.33,59.98,89.31L59.98,89.31z"/>
		<path d="M67.47,105.58c1.83,1.84,3.66,3.68,5.58,5.42c0.96,0.87,1.94,1.72,2.95,2.52c0.93,0.74,1.88,1.5,3,1.95
			c0.55,0.22,1.22,0.41,1.79,0.15c0.44-0.2,0.74-0.7,0.61-1.18c-0.04,0.04-0.08,0.08-0.12,0.12c3.05,1.15,5.88,2.86,8.31,5.02
			c0.09,0.08,0.24-0.06,0.14-0.14c-2.47-2.19-5.32-3.91-8.4-5.07c-0.07-0.03-0.14,0.05-0.12,0.12c0.18,0.64-0.49,1.06-1.04,1.06
			c-0.6,0-1.2-0.28-1.71-0.55c-1.01-0.54-1.9-1.28-2.78-2c-1.83-1.49-3.55-3.1-5.24-4.75c-0.95-0.93-1.89-1.87-2.82-2.81
			C67.52,105.35,67.38,105.49,67.47,105.58L67.47,105.58z"/>
		<path d="M102.77,109.92c-1.3-1.25-2.64-2.45-4.06-3.56c-1.25-0.98-2.55-1.89-3.87-2.78c-0.91-0.62-1.82-1.22-2.73-1.84
			c-0.11-0.07-0.21,0.1-0.1,0.17c2.82,1.9,5.67,3.75,8.25,5.98c0.81,0.7,1.59,1.43,2.37,2.17
			C102.72,110.15,102.86,110.01,102.77,109.92L102.77,109.92z"/>
		<path d="M90.3,100.3c-0.52-0.36-1.05-0.72-1.63-0.99c-0.26-0.12-0.52-0.22-0.79-0.29c-0.26-0.07-0.55-0.14-0.82-0.1
			c-0.23,0.03-0.42,0.19-0.42,0.43c-0.01,0.27,0.18,0.5,0.33,0.71c0.4,0.55,0.82,1.07,1.28,1.58c0.09,0.09,0.23-0.05,0.14-0.14
			c-0.39-0.43-0.75-0.87-1.1-1.33c-0.15-0.2-0.37-0.43-0.43-0.69c-0.09-0.36,0.28-0.39,0.54-0.36c1.05,0.13,1.96,0.76,2.81,1.34
			C90.31,100.55,90.4,100.38,90.3,100.3L90.3,100.3z"/>
		<path d="M72.65,92.21c3.7,1.4,7.37,2.87,11.01,4.42c1.03,0.44,2.05,0.88,3.07,1.33c0.12,0.05,0.22-0.12,0.1-0.17
			c-3.62-1.59-7.28-3.1-10.96-4.54c-1.05-0.41-2.11-0.82-3.17-1.22C72.59,91.98,72.53,92.17,72.65,92.21L72.65,92.21z"/>
		<path d="M78.63,96.35c0.62,0.25,1.25,0.5,1.87,0.75c0.12,0.05,0.17-0.14,0.05-0.19c-0.62-0.25-1.25-0.5-1.87-0.75
			C78.57,96.11,78.52,96.3,78.63,96.35L78.63,96.35z"/>
		<path d="M65.43,122.31c-3.43,1.62-6.91,3.27-9.82,5.74c-0.83,0.7-1.6,1.46-2.29,2.3c-0.08,0.1,0.06,0.24,0.14,0.14
			c2.46-2.94,5.8-4.92,9.19-6.62c0.96-0.48,1.92-0.94,2.89-1.39C65.65,122.42,65.55,122.25,65.43,122.31L65.43,122.31z"/>
		<path d="M59.25,122.93c2.07-1.06,4.26-1.87,6.52-2.43c0.12-0.03,0.07-0.22-0.05-0.19c-2.28,0.56-4.48,1.38-6.57,2.45
			C59.04,122.82,59.14,122.99,59.25,122.93L59.25,122.93z"/>
		<path class="st25" d="M41.99,90.08c-0.34,0.55-0.69,1.26-0.23,1.85c0.4,0.51,1.12,0.74,1.74,0.83c1.58,0.22,3.19-0.3,4.68-0.77
			c0.12-0.04,0.07-0.23-0.05-0.19c-1.33,0.42-2.7,0.85-4.11,0.81c-0.63-0.02-1.27-0.15-1.79-0.52c-0.29-0.2-0.51-0.48-0.49-0.86
			c0.02-0.38,0.23-0.74,0.43-1.05C42.22,90.07,42.05,89.97,41.99,90.08L41.99,90.08z"/>
		<path class="st25" d="M38.73,95.17c0.92,0.94,2.09,1.57,3.33,2.01c0.32,0.11,0.66,0.19,0.97,0.33c0.38,0.17,0.56,0.46,0.7,0.85
			c0.27,0.71,0.46,1.45,0.58,2.2c0.02,0.13,0.21,0.07,0.19-0.05c-0.12-0.77-0.32-1.52-0.59-2.25c-0.11-0.29-0.23-0.56-0.49-0.75
			c-0.24-0.18-0.54-0.27-0.83-0.36c-1.37-0.43-2.7-1.07-3.71-2.11C38.78,94.94,38.64,95.08,38.73,95.17L38.73,95.17z"/>
		<path class="st25" d="M40.34,112.92c0.29-1.2,0.73-2.46,1.67-3.31c0.23-0.21,0.49-0.38,0.77-0.52s0.6-0.22,0.84-0.44
			c0.23-0.22,0.33-0.53,0.43-0.82c0.13-0.38,0.23-0.76,0.31-1.15c0.19-0.87,0.29-1.75,0.39-2.62c0.01-0.13-0.18-0.13-0.2,0
			c-0.09,0.8-0.18,1.6-0.35,2.39c-0.08,0.39-0.18,0.78-0.3,1.16c-0.12,0.37-0.23,0.78-0.57,1.01c-0.26,0.18-0.58,0.25-0.85,0.4
			c-0.25,0.14-0.47,0.31-0.68,0.5c-0.42,0.4-0.74,0.89-1,1.4c-0.3,0.62-0.51,1.28-0.67,1.95C40.12,112.99,40.31,113.04,40.34,112.92
			L40.34,112.92z"/>
		<path class="st25" d="M54.52,101.94c0.53,0.68,1.16,1.27,1.88,1.75c0.33,0.22,0.73,0.52,1.13,0.59c0.35,0.06,0.65-0.19,0.88-0.43
			c0.56-0.58,0.84-1.38,1.23-2.07c0.46-0.82,1.04-1.57,1.7-2.23c0.09-0.09-0.05-0.23-0.14-0.14c-0.58,0.57-1.09,1.21-1.52,1.9
			c-0.4,0.65-0.67,1.37-1.1,2.01c-0.22,0.33-0.63,0.88-1.09,0.75c-0.37-0.1-0.75-0.38-1.07-0.6c-0.68-0.46-1.27-1.03-1.77-1.67
			C54.58,101.7,54.44,101.85,54.52,101.94L54.52,101.94z"/>
		<path class="st25" d="M60.86,101.91c1.09-1.38,2.51-2.46,4.12-3.17c0.12-0.05,0.02-0.22-0.1-0.17c-1.62,0.71-3.05,1.81-4.16,3.2
			C60.64,101.87,60.78,102.01,60.86,101.91L60.86,101.91z"/>
		<g>
			<path class="st25" d="M121.51,79.95c1.13,0.84,2.21,1.76,3.22,2.75c0.89,0.88,1.73,1.88,1.98,3.13c0.03,0.14,0.24,0.08,0.21-0.06
				c-0.25-1.26-1.09-2.28-1.98-3.17c-1.04-1.03-2.16-1.97-3.33-2.85C121.51,79.68,121.4,79.87,121.51,79.95L121.51,79.95z"/>
		</g>
		<g>
			<path class="st25" d="M119.76,79.27c-0.36,0.3-0.11,0.91,0.01,1.26c0.17,0.52,0.4,1.03,0.68,1.5c0.07,0.12,0.26,0.01,0.19-0.11
				c-0.25-0.42-0.45-0.86-0.62-1.32c-0.08-0.22-0.15-0.44-0.2-0.66c-0.04-0.18-0.07-0.39,0.09-0.52
				C120.02,79.33,119.86,79.18,119.76,79.27L119.76,79.27z"/>
		</g>
		<g>
			<path class="st25" d="M111.57,96.93c-0.29,1.12,0.34,2.14,1.08,2.92c0.8,0.85,1.75,1.56,2.78,2.12c0.12,0.07,0.23-0.12,0.11-0.19
				c-0.94-0.51-1.8-1.15-2.56-1.9c-0.76-0.76-1.49-1.76-1.2-2.89C111.82,96.85,111.61,96.79,111.57,96.93L111.57,96.93z"/>
		</g>
		<g>
			<path class="st25" d="M115.47,100.66c0.89,0.69,1.77,1.38,2.66,2.07c0.11,0.09,0.27-0.07,0.15-0.15
				c-0.89-0.69-1.77-1.38-2.66-2.07C115.51,100.42,115.35,100.58,115.47,100.66L115.47,100.66z"/>
		</g>
	</g>
</g>
</svg>
