<?xml version="1.0" encoding="utf-8"?>
<!-- Generator: Adobe Illustrator 28.0.0, SVG Export Plug-In . SVG Version: 6.00 Build 0)  -->
<svg version="1.1" id="Layer_1" xmlns="http://www.w3.org/2000/svg" xmlns:xlink="http://www.w3.org/1999/xlink" x="0px" y="0px"
	 viewBox="0 0 150 150" style="enable-background:new 0 0 150 150;" xml:space="preserve">
<style type="text/css">
	.st0{stroke:#000000;stroke-width:2;stroke-linecap:round;stroke-linejoin:round;stroke-miterlimit:10;}
	.st1{fill:#15181C;}
	.st2{fill:url(#SVGID_1_);}
	.st3{fill:url(#SVGID_00000065075152574398894490000010724505528629113753_);}
	.st4{fill:#32383F;}
	.st5{fill:none;stroke:#000000;stroke-width:2;stroke-linecap:round;stroke-linejoin:round;stroke-miterlimit:10;}
	.st6{fill:#181D23;}
	.st7{fill:#181D23;stroke:#000000;stroke-width:2;stroke-miterlimit:10;}
</style>
<g id="Pasha_Shoes">
	<g>
		<path class="st0" d="M144.09,104.99c-0.16-0.77-0.38-1.68-0.8-2.43c-0.24-0.42-0.53-0.79-0.92-1.05
			c-0.04-0.03-0.09-0.05-0.13-0.07c0.03-0.06,0.07-0.11,0.08-0.17c0.04-0.15,0.04-0.3,0.03-0.46c0-0.02,0-0.04,0-0.06
			c0.41-1.52,0.05-5.62-0.05-6.16c-0.03-0.17-0.07-0.35-0.17-0.5c-0.1-0.15-0.25-0.26-0.4-0.37c-0.09-0.06-0.17-0.13-0.25-0.2
			c-0.14-0.53-0.3-1.05-0.5-1.56c-0.02-0.06-0.06-0.12-0.08-0.19c0.03-0.09,0.04-0.18,0.01-0.26c-0.04-0.11-0.1-0.22-0.15-0.33
			c-0.13-0.6-0.57-1.18-0.98-1.68c-0.26-0.46-0.54-0.92-0.82-1.37c-0.36-0.56-0.73-1.12-1.1-1.67c-0.18-0.36-0.35-0.72-0.53-1.09
			c-0.17-0.35-0.38-0.68-0.63-0.98c-0.1-0.12-0.22-0.23-0.33-0.34c-0.13-0.42-0.25-0.85-0.35-1.29c0-0.12,0-0.24-0.01-0.35
			c-0.04-0.43-0.1-0.85-0.17-1.28c-0.08-0.52-0.23-1.06-0.33-1.59c-0.05-0.24-0.08-0.49-0.09-0.73c0-0.05-0.01-0.1-0.01-0.15
			c0-0.79,0.31-1.54,0.27-2.33c-0.04-0.87-0.32-1.67-0.7-2.45c0-0.02,0-0.05,0-0.07c0.3-0.14,0.58-0.32,0.81-0.59
			c0.71-0.82,0.78-1.96,0.82-3c0.05-1.32,0-2.64-0.15-3.96c-0.15-1.16-0.91-3.19-2.44-2.67c-0.19,0.07-0.32,0.19-0.38,0.35
			c-0.05-0.67-0.1-1.33-0.13-2c0.01-0.05,0.02-0.11,0.03-0.16c0.08-0.53,0.09-1.06-0.07-1.57c-0.01-0.39-0.02-0.77-0.02-1.16
			c0.01-0.01,0.02-0.03,0.03-0.04c0.35-0.56,0.4-1.17,0.28-1.81c-0.12-0.64-0.16-1.1-0.08-1.75c0.16-1.23,0.03-2.64-0.4-3.84
			c0.41-0.07,0.81-0.2,1.14-0.49c0.49-0.42,0.68-1.06,0.75-1.68c0.09-0.78,0.01-1.58-0.01-2.35c-0.02-0.87-0.03-1.75-0.07-2.62
			c-0.06-1.44-0.55-3.27-2.19-3.58c-0.25-0.16-0.52-0.19-0.8-0.13c-0.14-0.41-0.31-0.81-0.55-1.18c-0.03-0.07-0.06-0.15-0.1-0.22
			c-0.39-0.68-0.98-1.19-1.67-1.59c-0.69-0.46-1.45-0.81-2.17-1.02c-0.4-0.12-0.79-0.16-1.18-0.19c-0.79-0.2-1.58-0.35-2.38-0.47
			c-0.23-0.09-0.46-0.18-0.71-0.22c-1.44-0.24-2.97-0.12-4.43-0.07c-0.28,0.01-0.56,0.03-0.84,0.04c-0.13,0.01-0.27,0.01-0.4,0.02
			c-1.12,0.06-2.25,0.13-3.36,0.26c-3.04,0.24-6.06,0.75-8.91,1.81c-2.04,0.76-4.1,1.93-5.06,3.89c-0.21,0.43-0.38,0.89-0.63,1.3
			c-0.34,0.2-0.68,0.5-0.98,0.85c-0.11-0.25-0.29-0.47-0.52-0.63c-0.27-0.2-0.57-0.32-0.87-0.46c-0.51-0.23-1.01-0.46-1.53-0.69
			c-0.82-0.36-2.25-1.31-2.93-0.26c-0.27,0.42-0.21,0.95-0.18,1.42c0.04,0.59,0.09,1.17,0.15,1.76c0.14,1.32,0.34,2.64,0.6,3.94
			c0.12,0.62,0.22,1.28,0.45,1.87c0.23,0.58,0.64,0.96,1.15,1.29c0.47,0.29,0.96,0.54,1.47,0.76c0.46,0.19,0.95,0.41,1.45,0.46
			c0.3,0.03,0.61-0.04,0.82-0.26c0.38,1.79,0.78,3.59,1.19,5.37c-0.25-0.12-0.52-0.16-0.8-0.2c-0.49-0.07-0.96-0.18-1.43-0.35
			c-0.67-0.24-1.81-0.9-2.15,0.18c-0.13,0.41-0.05,0.93,0.02,1.35c0.08,0.52,0.24,1.03,0.38,1.55c0.31,1.1,0.62,2.2,0.92,3.3
			c0.14,0.51,0.24,1.09,0.5,1.55c0.27,0.49,0.73,0.72,1.22,0.92c0.45,0.17,0.91,0.31,1.38,0.44c0.4,0.11,0.8,0.27,1.21,0.35
			c0.3,0.05,0.55,0.01,0.74-0.11c0.55,1.92,1.09,3.84,1.45,5.81c0.04,0.22,0.07,0.43,0.11,0.65c0,0.39,0.01,0.78,0.05,1.17
			c0.07,0.66,0.14,1.33,0.21,2c-0.01,0.33-0.02,0.65-0.06,0.97c-0.13,1.06-0.04,2.17,0.23,3.22c0.05,0.18,0.1,0.36,0.15,0.53
			c0.11,0.33,0.24,0.65,0.37,0.97c0.08,0.49,0.15,0.97,0.24,1.45c0.23,1.18,0.37,1.97,0.02,3.17c-0.05,0.15-0.1,0.31-0.16,0.46
			c-0.01,0.02-0.02,0.05-0.02,0.07c-0.7,1.79-1.85,3.47-2.73,5.19c-0.6,1.07-1.13,2.18-1.35,3.39c-0.08,0.44-0.11,0.88-0.13,1.31
			c-0.01,0.07-0.04,0.14-0.04,0.22c-0.05,1.04-0.08,2.07-0.12,3.11c-0.02,0.54-0.31,1.21,0.11,1.59c0,0.24-0.01,0.48,0,0.72
			c0.01,0.12,0.01,0.24,0,0.36c-0.17,0.11-0.33,0.26-0.44,0.44c-0.26,0.43-0.3,0.95-0.32,1.46c-0.03,1.04,0.06,2.08,0.27,3.1
			c0.01,0.04,0.02,0.09,0.03,0.13c0,0.44,0.06,0.87,0.33,1.28c0.15,0.23,0.36,0.42,0.59,0.57c0.22,0.21,0.47,0.41,0.73,0.57
			c2.17,1.37,4.73,1.87,7.31,2.15c0.76,0.14,1.53,0.25,2.31,0.33c1.67,0.17,3.35,0.2,5.03,0.22c0.32,0.01,0.64,0.01,0.96,0.01
			c1.62,0.07,3.25,0.1,4.89,0.06c0.28-0.01,0.56-0.02,0.84-0.03c3.05-0.03,6.1-0.17,9.1-0.56c0.43-0.03,0.85-0.06,1.28-0.09
			c1.31-0.08,2.62-0.17,3.89-0.47c2.19-0.53,4.3-1.62,6.26-2.72c0.39-0.22,0.58-0.6,0.6-1c0.05-0.71,0.29-1.41,0.31-2.14
			C144.32,106.48,144.24,105.72,144.09,104.99z"/>
		<path class="st0" d="M88.18,59.24c-0.05-0.68-0.09-1.35-0.14-2.03c-0.04-0.57,0.04-1.32-0.28-1.83c-0.36-0.59-1.02-0.51-1.53-0.19
			c-0.53,0.34-1.08,0.65-1.65,0.91c-0.6,0.28-1.22,0.5-1.85,0.68c-0.62,0.18-1.24,0.23-1.88,0.35c-0.04-0.55-0.08-1.1-0.11-1.66
			c-0.1-1.83-0.13-3.65-0.09-5.48c0.39,0,0.79-0.07,1.13-0.14c1.38-0.28,2.63-0.85,3.75-1.71c0.48-0.38,0.89-0.84,1.1-1.42
			c0.21-0.58,0.18-1.22,0.15-1.83c-0.07-1.4-0.13-2.81-0.2-4.21c-0.03-0.71-0.07-1.42-0.1-2.13c-0.03-0.58,0.01-1.24-0.26-1.78
			c-0.27-0.54-0.82-0.83-1.42-0.75c-0.65,0.08-1.09,0.54-1.51,1c-0.82,0.92-1.78,1.7-2.85,2.32c-0.21,0.12-0.53,0.3-0.69,0.37
			c-0.09,0.04-0.37,0.12-0.53,0.19c-0.24,0.09-0.47,0.21-0.66,0.36c-0.4-0.16-0.84-0.26-1.28-0.3c-1.8-0.15-3.64,0.56-5.23,1.31
			c-0.12,0.05-0.19,0.13-0.24,0.22c-0.83-0.33-1.67-0.64-2.51-0.92c-1.91-0.64-3.85-1.16-5.82-1.56c-3.98-0.82-8.07-1.17-12.14-1.01
			c-1.87,0.07-3.77,0.22-5.63,0.48c-1.64,0.23-3.24,0.72-4.53,1.8c-0.67,0.56-1.35,1.3-1.56,2.17c-0.09,0.39-0.09,0.79-0.06,1.18
			c-0.49,0.16-0.89,0.53-1.1,1.08c-0.16,0.42-0.21,0.87-0.19,1.32c0.07,1.27,0.33,2.52,0.81,3.69c0.22,0.53,0.5,1.04,1.03,1.32
			c0.28,0.15,0.6,0.24,0.92,0.31c0,0.01,0,0.01,0,0.02c0.46,1.98,1.03,3.92,1.69,5.84c0.32,0.94,0.64,1.88,0.84,2.85
			c0.16,0.77,0.22,1.55,0.21,2.33c-1.04,0.26-1.85,1.59-2.02,2.54c-0.19,1.32,0.05,2.65-0.13,3.97c-0.05,0.34-0.06,0.68-0.02,1.02
			c-0.69,1.22-1.41,2.41-2.26,3.52c-2.21,2.88-5.17,5.08-8.25,6.96c-1.48,0.9-3.11,1.64-3.84,3.32c-0.14,0.31-0.25,0.66-0.46,0.93
			c-0.26,0.34-0.69,0.54-1.06,0.72c-0.61,0.29-1.24,0.55-1.87,0.81c-0.58-0.1-1.17-0.19-1.75-0.23c-1.59-0.12-3.06,0.39-4.54,0.92
			c-1.67,0.6-3.32,1.27-4.95,2c-0.72,0.32-1.42,0.68-1.89,1.34c-0.23,0.32-0.37,0.7-0.4,1.09c-0.01,0.06,0,0.12,0,0.19
			c-1.26,0.43-2.47,1-3.08,2.3c-0.4,0.85-0.52,1.8-0.59,2.72c-0.07,1.04-0.03,2.09,0.07,3.13c0.09,0.98,0.24,1.96,0.38,2.93
			c-0.05,0-0.1-0.01-0.16,0c-1.04,0.17-1.36,1.25-1.26,2.17c0.13,1.22,0.36,2.47,0.6,3.67c0.1,0.48,0.33,0.89,0.76,1.14
			c0.52,0.3,1.18,0.43,1.75,0.6c4.66,1.37,9.5,2.08,14.33,2.49c9.74,0.82,19.8,0.82,29.33-1.61c2.42-0.62,4.9-1.12,7.24-1.98
			c1.15-0.42,2.27-0.93,3.3-1.6c0.56-0.36,1.08-0.77,1.61-1.17c0.27-0.2,0.53-0.4,0.81-0.59c0.03-0.02,0.07-0.05,0.1-0.07
			c0.22-0.03,0.45-0.04,0.68-0.06c0.08,0.07,0.15,0.15,0.24,0.21c0.29,0.19,0.64,0.27,0.99,0.26c0.66-0.01,1.28-0.3,1.88-0.56
			c0.68-0.3,1.41-0.48,2.12-0.73c0.89-0.32,1.76-0.66,2.63-1.03c3.36-1.42,6.59-3.12,9.65-5.1c0.7-0.45,1.47-0.9,2-1.56
			c0.49-0.62,0.72-1.36,0.78-2.15c0.06-0.78-0.07-1.57-0.23-2.32c-0.16-0.77-0.32-1.6-0.85-2.21c-0.16-0.18-0.32-0.3-0.49-0.39
			c0.27-3.8-0.07-7.6-0.7-11.35c-0.61-3.61-1.45-7.17-2.1-10.76c0.56-0.03,1.15-0.23,1.61-0.35c1.16-0.31,2.28-0.64,3.3-1.29
			c0.44-0.3,0.87-0.65,1.13-1.12c0.32-0.58,0.3-1.2,0.26-1.84C88.36,61.95,88.27,60.59,88.18,59.24z"/>
	</g>
	<path class="st1" d="M84.13,90.12c0.85-0.89,0.74-2.58,0.62-3.68c-0.17-1.69-0.34-3.38-0.51-5.07c-0.12-1.2-0.24-2.4-0.49-3.58
		c-0.24-1.11-0.59-2.2-0.85-3.31c-0.45-1.91-0.63-3.87-0.94-5.8c-0.47-2.89-1.23-5.72-1.63-8.62c-0.2-1.42-0.16-2.82-0.25-4.24
		c-0.09-1.36-0.31-2.73-0.34-4.1c-0.07-2.54,0.38-5.07,0.37-7.61C80.1,43.2,80,42.2,79.35,41.55c-0.69-0.7-1.79-0.77-2.77-0.7
		c-1.13,0.08-2.25,0.3-3.34,0.63c-0.53,0.16-1.06,0.36-1.61,0.34c-0.36-0.01-0.71-0.12-1.05-0.22c-8.18-2.41-16.86-3.9-25.23-2.29
		c-1.47,0.28-2.96,0.68-4.18,1.55c-0.41,0.3-0.8,0.67-0.99,1.14c-0.21,0.55-0.14,1.16-0.05,1.74c0.56,3.64,1.37,7.28,2.3,10.84
		c0.87,3.35,2.57,6.4,1.89,9.99c-0.16,0.84-0.44,1.64-0.76,2.43c-1.3,3.15-3.27,5.96-5.23,8.75c-0.53,0.75-1.06,1.51-1.75,2.11
		c-1.2,1.06-2.76,1.58-4.23,2.21c-1.9,0.81-3.61,2.01-4.35,3.98c-0.5,1.33-1.6,1.57-2.75,2.18c-1.4,0.74-2.89,1.31-4.38,1.84
		c-3.48,1.25-6.92,2.58-10.38,3.87c-0.58,0.21-1.16,0.44-1.64,0.83C8.34,93.2,8,93.8,7.76,94.41c-0.93,2.39-0.55,5.07-0.14,7.61
		c0.06,0.37,0.13,0.76,0.36,1.06c0.28,0.36,0.74,0.52,1.17,0.65c3.98,1.27,8.06,2.37,12.23,2.6c0.83,0.04,1.66,0.05,2.49,0.06
		c4.44,0.05,8.88,0.13,13.32,0.16c4.22,0.03,8.65-0.99,12.83-1.61c2.81-0.42,5.63-0.84,8.32-1.71c3.94-1.27,7.58-3.56,11.31-5.37
		c2.37-1.15,4.75-2.3,7.12-3.46c1.14-0.55,2.46-1.01,3.52-1.71c0.93-0.61,1.65-1.45,2.68-1.94C83.39,90.59,83.82,90.44,84.13,90.12z
		"/>
	<path class="st1" d="M100.57,60.7c0.29,1.2,0.61,2.39,0.94,3.58c0.47,1.71,0.99,3.41,1.39,5.14c0.69,2.96,1.06,6,1.1,9.05
		c0.01,0.67-0.02,1.27,0.15,1.91c0.2,0.77,0.47,1.53,0.66,2.3c0.34,1.45,0.51,2.97,0.09,4.43c-0.71,2.44-2.43,4.65-3.46,6.97
		c-0.86,1.94-1.1,3.72-0.89,5.83c0.12,1.26,0.25,2.53,0.37,3.79c0.01,0.15,0.03,0.3,0.1,0.42c0.09,0.16,0.26,0.26,0.42,0.35
		c0.75,0.42,1.42,0.91,2.13,1.37c0.75,0.49,1.79,0.65,2.65,0.85c1.89,0.45,4.04,0.94,5.99,0.94c6.28,0.68,12.61-0.18,18.86-1.04
		c1.78-0.25,3.57-0.49,5.33-0.87c0.89-0.19,1.78-0.42,2.65-0.69c0.67-0.21,1.42-0.36,1.91-0.9c0.42-0.46,0.55-1.13,0.54-1.75
		c-0.01-0.63-0.14-1.25-0.14-1.87c-0.01-0.65,0.12-1.3,0.17-1.95c0.13-1.66-0.2-3.32-0.75-4.89c-0.56-1.56-1.34-3.04-2.13-4.5
		c-1.31-2.41-2.38-4.68-2.81-7.43c-0.49-3.11-0.77-6.17-0.92-9.3c-0.16-3.44-1.44-6.75-1.58-10.19c-0.06-1.55,0.12-3.1,0.18-4.64
		c0.1-2.53-0.34-4.9-0.59-7.4c-0.24-2.39-0.09-4.85-0.37-7.26c-0.14-1.22-0.36-2.49-1.07-3.49c-0.79-1.12-2.08-1.78-3.37-2.24
		c-3.4-1.22-7.09-1.34-10.7-1.23c-4.07,0.13-8.19,0.55-12,1.98c-2.04,0.76-4.1,1.93-5.06,3.89c-0.23,0.48-0.4,1-0.7,1.44
		c-0.48,0.68-1.29,1.12-1.59,1.9c-0.2,0.51-0.13,1.08-0.06,1.62C98.59,51.48,99.45,56.12,100.57,60.7z"/>
	<path class="st1" d="M85.18,91.5c-0.35-0.52-1.04-0.77-1.61-0.42c-8.54,5.2-17.96,8.92-27.32,12.35c-2.34,0.86-4.72,1.62-7.16,2.16
		c-2.5,0.55-5.04,0.78-7.59,0.94c-5.2,0.31-10.42,0.31-15.62,0.05c-3.87-0.2-7.74-0.57-11.59-1.12c-0.08-0.06-0.17-0.11-0.27-0.14
		c-0.33-0.12-0.66-0.25-1-0.35c-0.35-0.1-0.71-0.18-1.06-0.27c-0.34-0.09-0.68-0.17-1.02-0.26c-0.11-0.03-0.22-0.06-0.33-0.09
		c-0.18-0.22-0.45-0.39-0.71-0.46c-0.19-0.05-0.38-0.04-0.55,0.02c-0.17-0.21-0.4-0.37-0.72-0.44c-0.11-0.02-0.21-0.03-0.32-0.03
		c-0.94-0.36-1.95,0.59-1.46,1.45c-0.02,0.32,0.03,0.66,0.07,0.99c0.1,0.73,0.18,1.47,0.26,2.2c0.06,0.52,0.31,0.88,0.81,1.06
		c5.52,1.99,11.39,2.43,17.19,2.97c5.99,0.57,12.04,1.01,18.05,0.42c2.95-0.29,5.85-0.85,8.75-1.47c2.7-0.58,5.41-1.12,7.94-2.25
		c1.18-0.53,2.2-1.23,3.25-1.97c0.48-0.34,0.98-0.69,1.52-0.93c0.57-0.25,1.13-0.25,1.74-0.3c1.5-0.13,2.9-0.86,4.28-1.42
		c1.4-0.57,2.8-1.13,4.19-1.7c1.57-0.64,3.14-1.27,4.71-1.91c1.3-0.53,2.59-1.08,3.71-1.93C85.44,97.02,86.79,93.95,85.18,91.5z"/>
	<path class="st1" d="M143.38,110.36c0.39-0.22,0.58-0.6,0.6-1c0.05-0.71,0.29-1.41,0.31-2.14c0.02-0.75-0.05-1.51-0.2-2.24
		c-0.16-0.77-0.38-1.68-0.8-2.43c-0.24-0.42-0.53-0.79-0.92-1.05c-0.14-0.1-0.31-0.18-0.48-0.17c-0.24,0.02-0.42,0.22-0.58,0.4
		s-0.31,0.37-0.39,0.6c-0.08,0.23-0.05,0.51,0.12,0.67c0.09,0.08,0.2,0.13,0.29,0.21c0.21,0.18,0.23,0.52,0.12,0.77
		s-0.34,0.44-0.56,0.6c-1.89,1.34-4.19,1.05-6.33,1.46c-1.34,0.26-2.69,0.45-4.03,0.65c-0.65,0.1-1.31,0.19-1.96,0.28
		c-0.54,0.07-1.3,0.32-1.84,0.24c-0.06-0.01-0.13-0.02-0.2-0.02c-5.56,0.1-11.11,0.08-16.67-0.04c-0.31-0.01-0.57,0.1-0.77,0.27
		c-0.07,0.01-0.13,0.03-0.2,0.05c-0.23,0.08-0.93-0.23-1.18-0.29c-0.47-0.12-0.94-0.24-1.41-0.37c-0.89-0.24-1.8-0.46-2.68-0.74
		c-0.55-0.18-0.91-0.44-1.26-0.92c-0.35-0.48-0.57-1.23-1.2-1.42c-0.48-0.14-1.01,0.16-1.27,0.6s-0.3,0.95-0.32,1.46
		c-0.03,1.04,0.06,2.08,0.27,3.1c0.12,0.61,0.3,1.24,0.68,1.73c0.27,0.34,0.63,0.6,0.99,0.83c2.82,1.77,6.29,2.11,9.62,2.36
		c3.64,0.27,7.23,0.51,10.88,0.42c3.75-0.08,7.48-0.44,11.22-0.68c1.31-0.08,2.62-0.17,3.89-0.47
		C139.32,112.56,141.43,111.47,143.38,110.36z"/>
	
		<linearGradient id="SVGID_1_" gradientUnits="userSpaceOnUse" x1="69.4178" y1="46.0091" x2="29.348" y2="93.9255" gradientTransform="matrix(1 0 0 -1 0 149.8898)">
		<stop  offset="0" style="stop-color:#000000"/>
		<stop  offset="1" style="stop-color:#15181C;stop-opacity:0"/>
	</linearGradient>
	<path class="st2" d="M26.37,94.17c-1.25-0.33-2.47-0.78-3.66-1.26c-2.32-0.93-4.63-1.98-7.11-2.25s-5.23,0.41-6.75,2.39
		c-1.81,2.35-1.39,5.66-0.87,8.58c0.12,0.68,0.25,1.39,0.66,1.96c0.7,0.99,2.49,0.91,3.6,1.13c1.28,0.25,2.5,0.71,3.75,1.07
		c4.21,1.21,8.66,1.29,13.04,1.35c2.38,0.04,4.76,0.07,7.12-0.25c2.56-0.34,5.39-1.46,7.99-1.21c2.26,0.22,4.39-0.14,6.64-0.64
		c5.04-1.13,9.86-3.02,14.63-4.95c2.63-1.07,5.27-2.15,7.73-3.57c3.65-2.1,6.95-4.95,10.99-6.15c0.37-0.11,0.26-2.43,0.24-2.76
		c-0.06-0.94-0.26-1.86-0.53-2.77c-0.53-1.79-1.09-3.58-1.64-5.37c-1.38-4.45-2.47-8.82-3.03-13.47c-0.13-1.09-0.26-2.19-0.12-3.27
		c0.11-0.8,0.37-1.58,0.51-2.37c0.52-3-0.66-6-1.17-9c-0.5-2.92-0.36-5.9-0.4-8.86c-0.01-0.41-0.03-0.87-0.33-1.15
		c-0.23-0.22-0.57-0.28-0.88-0.31c-1.6-0.15-3.24,0.19-4.64,0.97c-2.22-0.96-4.61-1.5-7.02-1.61c0.49,0.89-0.27,1.93-0.47,2.93
		c-0.22,1.12,0.31,2.25,0.99,3.17c0.68,0.91,1.53,1.7,2.11,2.68c1.28,2.15,1.08,4.82,1.11,7.31c0.01,1.61,0.13,3.21,0.35,4.8
		c0.22,1.58,0.54,3.15,0.54,4.74c0,1.92-1.2,4.74,0.14,6.37c1.6,1.95,4.6,2.64,4.64,5.68c0.03,2.02-1.63,3.63-3.25,4.83
		c-6.38,4.74-14.08,7.3-21.63,9.79c-2.49,0.82-5.04,1.65-7.66,1.54c-1.66-0.07-3.3-0.52-4.97-0.5c-2.03,0.03-3.98,0.76-6,0.92
		C29.43,94.79,27.88,94.57,26.37,94.17z"/>
	
		<linearGradient id="SVGID_00000134227186389691731050000003738576293308219280_" gradientUnits="userSpaceOnUse" x1="124.7493" y1="36.7532" x2="104.4058" y2="122.6702" gradientTransform="matrix(1 0 0 -1 0 149.8898)">
		<stop  offset="0" style="stop-color:#000000"/>
		<stop  offset="1" style="stop-color:#15181C;stop-opacity:0"/>
	</linearGradient>
	<path style="fill:url(#SVGID_00000134227186389691731050000003738576293308219280_);" d="M113.77,86.17
		c-1.45,0.17-2.87,0.52-4.29,0.82c-1.12,0.24-1.53,0.68-2.22,1.47c-0.77,0.89-1.74,1.62-2.53,2.5c-1.45,1.61-0.72,4.62,0.29,6.26
		c0.09,0.15,0.2,0.31,0.37,0.36c0.12,0.04,0.26,0.01,0.38-0.02c1.55-0.39,2.83-1.49,4.36-1.99c0.84-0.27,1.73-0.35,2.61-0.43
		c2.04-0.18,4.07-0.37,6.11-0.55c3.68-0.33,7.38-0.67,11.08-0.47c1.06,0.06,2.16,0.17,3.11,0.65c0.9,0.46,1.61,1.22,2.51,1.68
		c1.34,0.68,2.55,0.2,3.28-1.03c0.65-1.1,0.47-2.52-0.06-3.69c-0.53-1.17-1.36-2.16-2.02-3.25c-0.86-1.4-1.44-2.94-2.02-4.47
		c-0.4-1.06-0.81-2.13-0.94-3.26c-0.24-2.04,0.44-4.07,1.11-6.02c0.63,1.72,0.45,3.57,0.46,5.37c0.01,1.92,0.25,3.23,1.4,4.8
		c0.78,1.06,1.52,2.15,2.23,3.27c0.77,1.22,1.5,2.47,2.02,3.82c1.09,2.79,1.24,5.85,1.37,8.84c0.01,0.15,0.01,0.31-0.03,0.46
		c-0.06,0.19-0.19,0.35-0.31,0.5c-1.03,1.32-1.12,2.51-2.82,3.19c-1.77,0.71-3.66,1.05-5.53,1.39c-1.7,0.31-3.4,0.61-5.11,0.89
		c-1.42,0.23-2.93,0.26-4.37,0.31c-6.39,0.24-12.9,0.47-19.08-1.19c-1.31-0.35-2.98-0.91-3.77-2.12c-0.24-0.37-0.33-0.81-0.41-1.24
		c-0.43-2.2-0.71-4.29-0.08-6.48c0.58-2.01,1.57-3.75,2.56-5.59c1.15-2.14,2.14-4.61,1.49-6.95c-0.2-0.72-0.54-1.38-0.77-2.09
		c-0.06-0.18-0.11-0.35-0.15-0.53c-0.27-1.05-0.35-2.16-0.23-3.22c0.19-1.58-0.03-3.22-0.31-4.79c-0.61-3.31-1.75-6.5-2.51-9.78
		c-0.89-3.86-1.22-7.84-2.33-11.65c-0.4-1.36-0.89-2.72-0.98-4.14c-0.09-1.62,0.79-4.68,2.99-4.25c0.48,0.09,0.91,0.36,1.32,0.62
		c0.81,0.51,1.61,1.01,2.42,1.52c0.2,0.13,0.41,0.26,0.55,0.46c0.13,0.18,0.19,0.41,0.24,0.63c0.29,1.2,0.46,2.43,0.52,3.66
		c0.04,0.88,0.13,1.95,0.91,2.34c0.35,0.17,0.75,0.16,1.14,0.15c0.57-0.02,1.14-0.04,1.72-0.06c0.41-0.01,0.85-0.02,1.18,0.21
		c0.52,0.36,0.56,1.11,0.54,1.74c-0.06,2.18-0.12,4.36-0.18,6.53c-0.03,0.94-0.05,1.89,0.08,2.82c0.1,0.7,0.29,1.39,0.56,2.04
		c0.05,0.12,0.1,0.25,0.04,0.36c-0.06,0.1-0.18,0.14-0.3,0.16c-0.73,0.15-1.51,0.19-2.15,0.58c-0.86,0.52-0.82,1.38-0.72,2.25
		c0.12,1.13,0.16,2.3,0.41,3.42c0.05,0.23,0.11,0.46,0.24,0.65c0.66,0.95,2.36,0.15,3.22,0.92c0.34,0.3,0.46,0.77,0.56,1.22
		c0.7,3.14,1.21,6.33,1.53,9.53c0.02,0.22,0.04,0.46-0.1,0.63C114.22,86.11,113.98,86.14,113.77,86.17z"/>
	<path class="st4" d="M80.03,53.24c-0.04-0.97,0-1.93,0.05-2.9c0.1-1.95,0.14-3.89,0.03-5.84c-0.05-0.81-0.09-1.67-0.53-2.38
		c-0.41-0.66-1.05-1.12-1.75-1.42c-1.75-0.76-3.58,0.06-5.17,0.86c-0.35,0.18-0.51,0.44-0.54,0.72c-0.04-0.02-0.07-0.05-0.11-0.08
		c-1.16-0.73-2.5-1.11-3.8-1.49c-1.42-0.41-2.88-0.92-4.34-1.15c-1.52-0.25-2.97-0.24-4.5-0.11c-0.7,0.06-0.85-0.05-1.32-0.52
		c-0.52-0.53-1.27-0.54-1.97-0.58c-1.55-0.1-3.14-0.24-4.67,0.03c-1.48,0.27-2.96,0.47-4.45,0.6c-1.6,0.14-3.11,0.26-4.55,1.05
		c-1.16,0.64-2.22,1.81-2.19,3.21c0.02,0.85,1.34,0.85,1.32,0c-0.03-1.22,1.5-1.91,2.51-2.08c1.26-0.21,2.49-0.19,3.75-0.21
		c1.31-0.02,2.62-0.14,3.91-0.36c1.31-0.22,2.6-0.15,3.92-0.08c0.55,0.03,0.98-0.03,1.4,0.32c0.46,0.38,0.92,0.59,1.51,0.65
		c1.19,0.11,2.4-0.21,3.6-0.14c2.5,0.14,5.15,0.6,7.52,1.41c1.34,0.46,2.46,1.09,3.04,2.43c0.5,1.17,0.64,2.6,1.41,3.63
		c0.04,0.05,0.12,0.05,0.14-0.02c0.3-1.16,0.05-2.66-0.18-3.83c-0.11-0.55-0.34-1.04-0.66-1.47c0.1-0.02,0.21-0.04,0.31-0.09
		c1.11-0.5,2.6-1.2,3.83-0.65c0.65,0.29,0.75,0.92,0.85,1.56c0.13,0.88,0.22,1.77,0.3,2.66c0.14,1.61,0.15,3.22,0.27,4.83
		c0.1,1.42,0.17,3.14,1.06,4.32c0.07,0.09,0.23,0.07,0.23-0.06C80.28,55.11,80.07,54.18,80.03,53.24z"/>
	<path class="st4" d="M45.96,63.82c-0.41-0.9-0.35-1.76-0.25-2.72c0.05-0.48,0.06-0.95-0.04-1.43c-0.12-0.55-0.42-0.87-0.68-1.35
		c-0.24-0.44-0.25-1.01-0.35-1.49c-0.11-0.59-0.24-1.18-0.39-1.76c-0.16-0.62-0.33-1.23-0.53-1.84c-0.18-0.57-0.35-1.24-0.72-1.72
		c-0.34-0.44-1.19-0.37-1.16,0.31c0.03,0.65,0.31,1.28,0.5,1.9c0.2,0.65,0.38,1.3,0.53,1.96c0.16,0.66,0.29,1.32,0.41,1.99
		c0.1,0.55,0.18,1.09,0.57,1.52c0.18,0.19,0.43,0.3,0.59,0.5c0.19,0.24,0.22,0.55,0.23,0.85c0.02,0.53-0.06,1.06-0.04,1.6
		c0.03,0.78,0.31,1.76,1.21,1.86C45.96,64.01,45.99,63.89,45.96,63.82z"/>
	<path class="st4" d="M41.69,71.12c-0.55,0.73-0.85,1.68-1.3,2.48c-0.46,0.82-1,1.56-1.7,2.19c-1.46,1.31-3.24,2.18-4.68,3.53
		c-0.7,0.66-1.4,1.28-2.24,1.77c-0.77,0.45-1.68,0.68-2.4,1.19c-0.8,0.57-0.87,1.4-1.35,2.18c-0.44,0.71-1.41,1.07-2.11,1.46
		c-0.47,0.27-0.26,1.02,0.27,1.02c0.92,0,1.72-0.22,2.47-0.77c0.35-0.26,0.65-0.58,0.88-0.95c0.25-0.41,0.33-0.95,0.63-1.32
		c0.31-0.38,0.85-0.49,1.29-0.67c0.46-0.18,0.92-0.39,1.36-0.62c0.91-0.49,1.71-1.13,2.5-1.81c1.58-1.36,3.49-2.32,5.01-3.75
		c0.71-0.67,1.29-1.47,1.78-2.31c0.51-0.87,1.12-1.9,1.31-2.9C43.6,70.77,42.33,70.28,41.69,71.12z"/>
	<path class="st4" d="M13.83,91.67c-0.21-0.37-0.64-0.51-1.04-0.42c-0.65,0.14-1.29,0.33-1.91,0.58c-0.56,0.22-1.24,0.45-1.67,0.89
		c-0.25,0.25-0.4,0.58-0.4,0.93c0,0.04,0,0.1,0.01,0.16c-0.17,0.09-0.38,0.24-0.45,0.29c-0.28,0.19-0.51,0.41-0.72,0.68
		c-0.81,1.08-0.79,2.38-0.54,3.65c0.25,1.29,0.51,2.8,1.2,3.94c0.08,0.13,0.27,0.1,0.31-0.04c0.52-1.8-0.1-3.71,0.14-5.53
		c0.04-0.31,0.14-0.64,0.33-0.9c0.2-0.26,0.48-0.34,0.75-0.49c0.32-0.17,0.61-0.41,0.79-0.73c0.14-0.26,0.15-0.52,0.11-0.76
		c0.09-0.04,0.17-0.09,0.25-0.13c0.23-0.11,0.46-0.21,0.7-0.3c0.51-0.19,1.04-0.34,1.57-0.46c0.28-0.06,0.6-0.35,0.64-0.64
		C13.96,92.11,13.97,91.9,13.83,91.67z"/>
	<path class="st4" d="M127.62,36.77c-0.72-0.22-1.41-0.2-2.15-0.23c-0.73-0.03-1.38-0.52-2.11-0.65c-1.44-0.24-2.97-0.12-4.43-0.07
		c-3.07,0.11-6.14,0.39-9.13,1.13c-2.7,0.67-5.63,1.64-7.81,3.45c-1.14,0.94-1.75,2.29-1.74,3.77c0,0.82,0.21,1.65,0.31,2.46
		c0.09,0.69,0.12,1.53,0.6,2.06c0.02,0.02,0.06,0.02,0.08-0.01c0.21-0.47,0.13-0.96,0.11-1.47c-0.03-0.67-0.07-1.33,0.01-2
		c0.13-1.23,0.33-2.48,1.34-3.29c0.9-0.72,2.07-1.12,3.14-1.49c1.15-0.4,2.32-0.77,3.5-1.06c2.46-0.6,5-0.93,7.53-1.1
		c1.28-0.09,2.56-0.13,3.84-0.15c0.6-0.01,1.2-0.03,1.79-0.03c0.69,0,1.18,0.24,1.82,0.4c0.7,0.18,1.29-0.1,1.97-0.11
		c0.67-0.01,1.47,0.35,2.05,0.65c1.07,0.55,2.12,1.57,1.7,2.88c-0.34,1.06,1.24,1.44,1.64,0.45
		C132.8,39.55,129.95,37.46,127.62,36.77z"/>
	<path class="st4" d="M133.55,61.79c0.1-0.63,0.11-1.26-0.17-1.85c-0.06-0.12-0.11-0.26-0.2-0.35c-0.03-0.03-0.05-0.05-0.06-0.06
		c0.13-0.16,0.26-0.33,0.37-0.5c0.35-0.56,0.4-1.17,0.28-1.81c-0.12-0.64-0.16-1.1-0.08-1.75c0.18-1.4,0.02-3.05-0.58-4.34
		c-0.42-0.92-1.77-0.4-1.8,0.49c-0.02,0.7,0.18,1.41,0.24,2.11c0.06,0.75-0.03,1.45-0.11,2.19c-0.04,0.34-0.03,0.66,0.03,1
		c0.04,0.26,0.2,0.57,0.19,0.83c-0.02,0.42-0.56,0.81-0.69,1.25c-0.21,0.69,0.09,1.15,0.42,1.72c0.25,0.44,0.06,0.9-0.02,1.37
		c-0.22,1.3-0.25,2.98,0.64,4.05c0.54,0.66,1.61,0.1,1.62-0.67c0-0.64-0.26-1.25-0.28-1.9C133.32,62.96,133.46,62.39,133.55,61.79z"
		/>
	<path class="st4" d="M140.92,91.52c-0.04-0.11-0.1-0.22-0.15-0.33c-0.16-0.72-0.77-1.43-1.22-1.98c-0.4-0.63-0.8-1.25-1.21-1.88
		c-0.4-0.62-0.67-1.29-1-1.95c-0.17-0.35-0.38-0.68-0.63-0.98c-0.21-0.25-0.51-0.45-0.6-0.77c-0.1-0.37-0.05-0.83-0.09-1.21
		c-0.04-0.43-0.1-0.85-0.17-1.28c-0.12-0.81-0.43-1.65-0.42-2.47c0-0.79,0.31-1.54,0.27-2.33c-0.04-0.89-0.34-1.71-0.72-2.51
		c-0.6-1.24-2.44-0.16-1.85,1.08c0.36,0.77,0.48,1.48,0.32,2.32c-0.17,0.87-0.21,1.64,0.01,2.51c0.21,0.84,0.46,1.65,0.61,2.5
		c0.13,0.77,0.08,1.7,0.49,2.4c0.17,0.29,0.38,0.52,0.59,0.75c0.07,0.35,0.15,0.7,0.26,1.05c0.24,0.77,0.6,1.44,1.17,2.01
		c0.54,0.55,1.13,1.04,1.65,1.61c0.26,0.28,0.5,0.58,0.72,0.89c0.24,0.35,0.42,0.73,0.75,1.01c0.24,0.21,0.5,0.22,0.71,0.12
		c0.11,0.02,0.23,0,0.31-0.05c0.02-0.01,0.04-0.03,0.06-0.04c0.01-0.01,0.02-0.02,0.03-0.03C140.91,91.86,140.97,91.66,140.92,91.52
		z"/>
	<path class="st4" d="M141.31,101.83c0.1-0.14,0.16-0.36,0.2-0.51c0.1-0.46-0.01-0.94-0.38-1.25c-0.66-0.55-1.61,0.05-1.36,0.83
		c-0.02-0.03-0.04,0.02-0.16,0.22c-0.11,0.18-0.21,0.39-0.25,0.6c-0.06,0.28-0.03,0.64,0.12,0.91c-0.07,0.07-0.13,0.12-0.14,0.13
		c-0.35,0.28-0.73,0.52-1.13,0.74c-1.79,0.97-3.98,1.08-5.97,1.38c-2.14,0.33-4.24,0.78-6.37,1.14c-2.23,0.39-4.5,0.36-6.74,0.7
		c-0.07,0.01-0.06,0.12,0,0.13c2.54,0.51,5.21,0.33,7.78,0.3c2.55-0.03,5.06-0.43,7.59-0.77c2.29-0.31,4.37-0.75,6.2-2.26
		C141.42,103.53,142.06,102.69,141.31,101.83z"/>
	<path class="st4" d="M127.15,96.97c-4.21-0.52-8.48,0.21-12.54,1.31c-0.11,0.03-0.06,0.18,0.05,0.17
		c4.14-0.71,8.31-0.74,12.49-0.94C127.5,97.49,127.48,97.01,127.15,96.97z"/>
	<path class="st4" d="M127.25,99.39c-1.88-0.13-3.76,0.02-5.64,0.1c-0.09,0-0.09,0.13,0,0.13c1.88,0.08,3.76,0.22,5.64,0.1
		C127.46,99.7,127.46,99.4,127.25,99.39z"/>
	<path class="st4" d="M23.25,97.62c-1.55-0.62-3.24-0.97-4.88-1.28c-1.66-0.32-3.32-0.61-4.99-0.89c-0.1-0.02-0.14,0.12-0.04,0.15
		c1.66,0.43,3.31,0.88,4.96,1.35c1.6,0.46,3.23,0.93,4.88,1.15C23.47,98.12,23.48,97.71,23.25,97.62z"/>
	<path class="st4" d="M22.49,99.66c-1.37-0.38-2.75-0.73-4.14-1.03c-0.69-0.14-1.37-0.27-2.07-0.37c-0.73-0.1-1.46-0.11-2.19-0.23
		c-0.11-0.02-0.16,0.14-0.05,0.17c0.68,0.15,1.32,0.42,2,0.61c0.7,0.2,1.39,0.39,2.09,0.57c1.38,0.36,2.75,0.72,4.12,1.11
		C22.79,100.64,23.02,99.81,22.49,99.66z"/>
	<g>
		<path d="M8.96,104.26c1.44,0.32,2.85,0.73,4.29,1.05c1.47,0.33,2.95,0.61,4.44,0.86c3,0.49,6.03,0.83,9.07,1
			c3.06,0.17,6.13,0.17,9.19,0c1.53-0.08,3.05-0.24,4.58-0.35s3.06-0.21,4.58-0.39c2.98-0.35,5.96-0.98,8.88-1.63
			c2.92-0.64,5.7-1.58,8.44-2.74c2.77-1.17,5.47-2.5,8.2-3.76c2.64-1.22,5.25-2.52,7.78-3.96c1.22-0.7,2.45-1.41,3.6-2.21
			c0.41-0.29,0.81-0.6,1.25-0.84c0.32-0.17,0.76-0.4,1.11-0.19c0.44,0.27,0.54,0.98,0.64,1.43c0.14,0.6,0.26,1.2,0.29,1.81
			c0.02,0.54-0.02,1.12-0.27,1.61c-0.28,0.56-0.79,0.91-1.29,1.25c-2.42,1.61-4.95,3.04-7.57,4.29c-1.33,0.64-2.69,1.23-4.07,1.76
			c-1.18,0.45-2.4,0.8-3.57,1.3c-0.35,0.15-0.79,0.36-1.18,0.32c-0.2-0.02-0.3-0.13-0.42-0.29c-0.21-0.29-0.44-0.51-0.83-0.51
			c-0.33,0-0.65,0.23-0.92,0.4c-0.32,0.2-0.63,0.42-0.94,0.65c-0.55,0.41-1.09,0.84-1.67,1.22c-2.25,1.5-4.89,2.18-7.48,2.82
			c-2.8,0.69-5.58,1.42-8.43,1.87c-2.94,0.46-5.91,0.72-8.88,0.83c-5.94,0.23-11.95-0.02-17.86-0.71c-2.95-0.34-5.88-0.85-8.77-1.57
			c-0.7-0.18-1.4-0.37-2.1-0.57c-0.36-0.11-0.72-0.21-1.08-0.33c-0.3-0.1-0.44-0.16-0.5-0.47c-0.15-0.7-0.24-1.42-0.36-2.13
			c-0.06-0.37-0.13-0.74-0.19-1.12c-0.05-0.28-0.1-0.62-0.01-0.9c0.12-0.33,0.44-0.25,0.73-0.18
			C8.12,103.97,8.53,104.16,8.96,104.26c0.77,0.18,1.09-1,0.33-1.18c-0.77-0.18-1.5-0.6-2.31-0.47c-1.04,0.17-1.36,1.25-1.26,2.17
			c0.13,1.22,0.36,2.47,0.6,3.67c0.1,0.48,0.33,0.89,0.76,1.14c0.52,0.3,1.18,0.43,1.75,0.6c4.66,1.37,9.5,2.08,14.33,2.49
			c9.74,0.82,19.8,0.82,29.33-1.61c2.42-0.62,4.9-1.12,7.24-1.98c1.15-0.42,2.27-0.93,3.3-1.6c0.56-0.36,1.08-0.77,1.61-1.17
			c0.27-0.2,0.53-0.4,0.81-0.59c0.25-0.17,0.53-0.41,0.82-0.49c-0.11,0-0.22,0-0.33,0c-0.03-0.04-0.06-0.08-0.09-0.12
			c0.03,0.05,0.06,0.09,0.09,0.14c0.06,0.09,0.12,0.17,0.19,0.25c0.1,0.11,0.22,0.21,0.34,0.29c0.29,0.18,0.64,0.27,0.99,0.26
			c0.66-0.01,1.28-0.3,1.88-0.56c0.68-0.3,1.41-0.48,2.12-0.73c0.89-0.32,1.76-0.66,2.63-1.03c3.36-1.42,6.59-3.12,9.65-5.1
			c0.7-0.45,1.47-0.9,2-1.56c0.49-0.62,0.72-1.36,0.78-2.15c0.06-0.78-0.07-1.57-0.23-2.32c-0.16-0.77-0.32-1.6-0.85-2.21
			c-1.05-1.19-2.54-0.41-3.58,0.33c-1.38,0.98-2.85,1.85-4.32,2.69c-3.21,1.82-6.57,3.36-9.91,4.93c-3.39,1.59-6.8,3.26-10.39,4.35
			c-1.8,0.55-3.64,0.95-5.49,1.32c-1.86,0.37-3.73,0.75-5.6,1.04c-1.86,0.29-3.75,0.39-5.63,0.53c-1.94,0.14-3.88,0.33-5.83,0.41
			c-7.64,0.31-15.33-0.44-22.76-2.25c-0.89-0.22-1.76-0.47-2.65-0.67C8.52,102.91,8.19,104.09,8.96,104.26z"/>
	</g>
	<g>
		<path d="M84.92,90.5c0.34-3.96-0.01-7.93-0.66-11.84c-0.64-3.81-1.55-7.57-2.22-11.38c-0.68-3.9-1.07-7.86-1.28-11.81
			c-0.1-1.95-0.15-3.9-0.09-5.86c0.05-1.99,0.16-3.98,0.01-5.96c-0.07-0.97-0.27-1.93-0.97-2.64c-0.64-0.65-1.51-0.96-2.4-1.04
			c-1.8-0.15-3.64,0.56-5.23,1.31c-0.71,0.34-0.09,1.39,0.62,1.06c1.32-0.62,2.8-1.18,4.27-1.16c0.69,0.01,1.38,0.19,1.88,0.69
			c0.56,0.57,0.6,1.43,0.64,2.19c0.1,1.9,0.01,3.8-0.04,5.7c-0.05,1.91,0,3.8,0.1,5.71c0.2,3.79,0.57,7.59,1.19,11.34
			c0.61,3.67,1.47,7.29,2.14,10.95c0.77,4.21,1.2,8.47,0.84,12.74C83.63,91.29,84.85,91.28,84.92,90.5L84.92,90.5z"/>
	</g>
	<g>
		<path d="M8.34,102.49c-0.3-2.01-0.6-4.05-0.43-6.09c0.07-0.81,0.19-1.69,0.65-2.39c0.43-0.66,1.19-0.99,1.91-1.24
			c1.82-0.63,3.64-1.23,5.44-1.94c1.9-0.74,3.79-1.5,5.66-2.3c0.91-0.39,1.82-0.78,2.73-1.19c0.81-0.36,1.66-0.63,2.43-1.06
			c0.78-0.44,1.23-1,1.57-1.81c0.31-0.73,0.73-1.29,1.39-1.74c0.69-0.48,1.45-0.87,2.17-1.31c0.76-0.47,1.51-0.95,2.24-1.46
			c1.44-1,2.83-2.1,4.09-3.33c1.3-1.27,2.43-2.68,3.4-4.21c0.51-0.81,0.99-1.64,1.45-2.47c0.45-0.81,0.94-1.62,1.29-2.49
			c0.35-0.86,0.4-1.85,0.52-2.77c0.12-0.94,0.21-1.89,0.19-2.84c-0.05-1.9-0.67-3.7-1.28-5.48c-1.29-3.75-2.04-7.64-2.74-11.53
			c-0.15-0.85-0.43-1.82,0.07-2.61c0.41-0.65,1.08-1.2,1.74-1.58c1.36-0.79,2.97-0.98,4.5-1.12c3.88-0.36,7.74-0.46,11.62-0.02
			c3.79,0.43,7.54,1.32,11.13,2.61c0.44,0.16,0.89,0.33,1.33,0.5c0.22,0.09,0.44,0.17,0.66,0.26c0.09,0.04,0.18,0.07,0.26,0.11
			c0.04,0.02,0.09,0.04,0.13,0.05c0.09,0.06,0.1,0.05,0.02-0.04c0-0.11,0-0.22,0-0.33c0,0.02-0.01,0.05-0.01,0.07
			c0.05-0.09,0.1-0.18,0.16-0.27c-0.02,0.02-0.03,0.04-0.05,0.06c-0.25,0.3-0.24,0.74,0.12,0.96c0.53,0.32,0.75,0.8,0.84,1.4
			c0.11,0.76,0.09,1.55,0.14,2.31c0.14,1.99,0.35,3.97,0.63,5.94c0.28,1.97,0.63,3.92,1.05,5.86c0.42,1.9,0.76,3.81,1.11,5.72
			c0.4,2.15,0.83,4.3,1.48,6.4c0.23,0.75,1.41,0.43,1.18-0.33c-1.19-3.84-1.64-7.84-2.51-11.75c-0.88-3.97-1.46-8-1.73-12.06
			c-0.11-1.67,0.07-3.56-1.57-4.55c0.04,0.32,0.08,0.64,0.12,0.96c0.31-0.38,0.31-0.83-0.05-1.19c-0.32-0.32-0.85-0.46-1.26-0.62
			c-0.92-0.37-1.85-0.71-2.79-1.03c-1.91-0.64-3.85-1.16-5.82-1.56c-3.98-0.82-8.07-1.17-12.14-1.01c-1.87,0.07-3.77,0.22-5.63,0.48
			c-1.64,0.23-3.24,0.72-4.53,1.8c-0.67,0.56-1.35,1.3-1.56,2.17c-0.23,0.96,0.04,1.97,0.21,2.91c0.36,2.01,0.74,4.02,1.2,6.01
			c0.46,1.98,1.03,3.92,1.69,5.84c0.32,0.94,0.64,1.88,0.84,2.85c0.2,0.95,0.24,1.9,0.19,2.86c-0.05,0.96-0.19,1.92-0.32,2.88
			c-0.06,0.44-0.14,0.88-0.31,1.29c-0.2,0.47-0.46,0.91-0.7,1.35c-0.93,1.72-1.88,3.44-3.08,5c-2.21,2.88-5.17,5.08-8.25,6.96
			c-1.48,0.9-3.11,1.64-3.84,3.32c-0.14,0.31-0.25,0.66-0.46,0.93c-0.26,0.34-0.69,0.54-1.06,0.72c-0.85,0.41-1.76,0.74-2.63,1.12
			c-3.8,1.67-7.66,3.3-11.59,4.61c-1.63,0.54-3.47,0.98-4.27,2.69c-0.4,0.85-0.52,1.8-0.59,2.72c-0.07,1.04-0.03,2.09,0.07,3.13
			c0.1,1.05,0.26,2.09,0.41,3.14c0.05,0.33,0.46,0.51,0.75,0.43C8.26,103.14,8.39,102.81,8.34,102.49L8.34,102.49z"/>
	</g>
	<path class="st5" d="M99.74,43.13c-0.97,0.57-1.91,1.9-2.04,3.02s0.09,2.25,0.32,3.35c0.9,4.44,1.89,8.86,2.95,13.27
		c0.54,2.23,1.09,4.46,1.67,6.69c0.28,1.06,0.75,2.22,0.87,3.31c0.08,0.79,0.01,1.6,0.1,2.41c0.34,3.03,0.56,6.15,1.14,9.15
		c0.23,1.2,0.38,1.99,0.01,3.22c-0.35,1.14-0.94,2.19-1.5,3.24c-1.02,1.88-2.35,3.69-2.75,5.82c-0.24,1.29-0.08,2.52-0.13,3.81
		c-0.04,1.05-0.1,2.06-0.04,3.13c0.01,0.27,0.02,0.55-0.07,0.8c-0.13,0.35-0.46,0.6-0.58,0.95c-0.1,0.27-0.07,0.57-0.03,0.86
		c0.09,0.76,0.26,1.55,0.24,2.32c-0.02,0.65-0.06,1.26,0.32,1.85c0.32,0.49,0.87,0.78,1.4,1.02c3,1.39,6.24,2.27,9.53,2.6
		c1.67,0.17,3.35,0.2,5.03,0.22c8.27,0.13,16.74,0.23,24.53-2.52c1.16-0.41,2.4-0.98,2.91-2.1c0.37-0.81,0.27-1.74,0.17-2.62
		c-0.09-0.79-0.33-1.6-0.35-2.38s0.05-1.56-0.51-2.2c-0.28-0.31-0.68-0.53-0.86-0.91c-0.11-0.24-0.13-0.51-0.14-0.77
		c-0.11-2.22,0.03-4.37-0.48-6.56c-0.49-2.14-1.4-4.18-2.72-5.95c-0.81-1.09-1.76-2.12-2.26-3.39c-0.29-0.72-0.42-1.5-0.55-2.26
		c-0.46-2.83-0.97-5.72-0.94-8.56c0.03-3.12-0.97-6.34-1.27-9.45c-0.36-3.69-0.14-7.37-0.35-11.04c-0.22-3.91-0.62-7.82-1.21-11.7
		c-0.12-0.82-0.26-1.65-0.67-2.37c-0.76-1.34-2.31-2.01-3.78-2.45c-1.68-0.51-3.42-0.85-5.17-1.01c-3.1-0.28-6.23,0-9.32,0.45
		c-3.18,0.47-6.38,1.14-9.26,2.56c-1.75,0.87-3.82,2.4-3.97,4.53c-0.05,0.76,0.11,1.51,0.26,2.25c0.45,2.14,0.9,4.28,1.36,6.42
		c0.61,2.9,1.23,5.81,2.2,8.61c0.43,1.22,0.92,2.43,1.3,3.67c0.98,3.2,1.17,6.59,1.35,9.93"/>
	<g>
		<path d="M101.55,104.23c-0.33,1.34,1.22,1.99,2.23,2.34c1.32,0.46,2.69,0.81,4.07,1.07c2.84,0.53,5.74,0.72,8.62,0.74
			c6,0.05,12.02-0.49,17.92-1.56c1.6-0.29,3.25-0.55,4.81-1.04c1.25-0.4,2.88-1.31,2.74-2.85c-0.03-0.33-0.26-0.61-0.61-0.61
			c-0.31,0-0.64,0.28-0.61,0.61c0.1,1.11-1.46,1.58-2.29,1.8c-1.29,0.35-2.61,0.59-3.93,0.83c-2.7,0.5-5.42,0.89-8.16,1.15
			c-2.76,0.27-5.52,0.41-8.29,0.44c-2.66,0.03-5.32-0.05-7.96-0.39c-1.42-0.18-2.83-0.45-4.21-0.83c-0.7-0.19-1.41-0.41-2.09-0.66
			c-0.2-0.07-1.12-0.42-1.05-0.72C102.92,103.79,101.74,103.47,101.55,104.23L101.55,104.23z"/>
	</g>
	<g>
		<path class="st6" d="M42.07,105.95c-0.54-2.93-1.08-5.86-1.62-8.79c-0.15-0.83-0.31-1.67-0.68-2.42
			c-0.69-1.42-2.06-2.38-3.41-3.19c-3.93-2.35-8.29-3.98-12.81-4.76c-0.85-0.15-1.72-0.27-2.58-0.19c-0.83,0.08-1.62,0.34-2.4,0.61
			c-1.93,0.67-3.83,1.42-5.69,2.26c-0.48,0.22-0.97,0.45-1.36,0.81s-0.65,0.9-0.56,1.42l-0.14,0.36c0.31-0.67,1.25-0.67,1.98-0.56
			c3.49,0.53,6.95,1.31,10.34,2.33c1.22,0.37,2.46,0.78,3.48,1.54c2.15,1.61,2.94,4.45,3.42,7.09c0.24,1.32,0.44,2.65,0.64,3.99
			c0.03,0.21,0.34,0.19,0.55,0.19C34.76,106.58,38.56,106.31,42.07,105.95z"/>
		<g>
			<path d="M42.66,105.79c-0.3-1.64-0.6-3.28-0.9-4.91c-0.3-1.61-0.54-3.24-0.9-4.84c-0.33-1.43-1.03-2.63-2.15-3.59
				c-1.08-0.93-2.34-1.64-3.58-2.31c-2.67-1.43-5.51-2.54-8.45-3.3c-1.48-0.38-3.02-0.74-4.55-0.85c-1.59-0.12-3.06,0.39-4.54,0.92
				c-1.67,0.6-3.32,1.27-4.95,2c-0.72,0.32-1.42,0.68-1.89,1.34c-0.23,0.32-0.37,0.7-0.4,1.09c-0.01,0.08,0,0.16-0.01,0.24
				c0.01-0.07,0,0.03-0.01,0.07c-0.02,0.08-0.07,0.17-0.1,0.25c-0.26,0.65,0.8,1.08,1.12,0.47c0.19-0.35,0.66-0.33,1.01-0.31
				c0.65,0.04,1.31,0.19,1.96,0.3c1.4,0.25,2.8,0.53,4.18,0.86c1.41,0.33,2.81,0.7,4.2,1.11c1.22,0.36,2.46,0.73,3.5,1.48
				c1.82,1.31,2.57,3.62,3.03,5.72c0.29,1.33,0.49,2.69,0.7,4.03c0.09,0.59,0.04,1.43,0.75,1.62c0.56,0.15,1.25,0.03,1.83,0.02
				c3.19-0.09,6.39-0.33,9.56-0.66c0.33-0.03,0.61-0.26,0.61-0.61c0-0.3-0.28-0.65-0.61-0.61c-1.9,0.2-3.8,0.36-5.71,0.48
				c-0.95,0.06-1.9,0.11-2.85,0.14c-0.48,0.02-0.96,0.03-1.44,0.05C31.86,106,31.64,106,31.43,106c-0.1,0-0.2,0.01-0.29,0.01
				c-0.03,0-0.06,0-0.09,0c-0.14-0.02-0.12,0,0.07,0.06c0.05,0.09,0.1,0.18,0.16,0.27c-0.17-0.47-0.17-1.05-0.25-1.55
				c-0.09-0.59-0.18-1.18-0.28-1.77c-0.15-0.9-0.32-1.8-0.55-2.68c-0.44-1.69-1.12-3.36-2.31-4.66c-1.36-1.47-3.28-2.08-5.15-2.63
				c-2.12-0.62-4.27-1.15-6.44-1.58c-1.19-0.24-2.39-0.47-3.6-0.62c-0.89-0.11-1.95,0-2.41,0.88c0.37,0.16,0.75,0.31,1.12,0.47
				c0.05-0.12,0.11-0.24,0.14-0.36c0.08-0.31-0.02-0.55,0.15-0.85c0.31-0.53,0.95-0.79,1.48-1.03c1.37-0.62,2.76-1.18,4.17-1.71
				c1.34-0.49,2.74-1.1,4.19-1.1c1.43,0,2.88,0.36,4.26,0.7c2.75,0.67,5.43,1.65,7.95,2.93c1.21,0.61,2.42,1.27,3.52,2.06
				c1.04,0.75,1.88,1.69,2.24,2.94c0.24,0.81,0.36,1.65,0.51,2.48c0.16,0.87,0.32,1.74,0.48,2.61c0.32,1.74,0.64,3.47,0.96,5.21
				C41.62,106.88,42.8,106.56,42.66,105.79z"/>
		</g>
	</g>
	<g>
		<path class="st6" d="M42.36,65.12c-0.17,1.09,0.08,2.21-0.04,3.31c-0.07,0.61-0.24,1.25-0.01,1.82c0.31,0.74,1.17,1.04,1.95,1.25
			c9.92,2.6,20.4,2.16,30.57,0.85c0.26-0.03,0.52-0.07,0.73-0.21c0.54-0.36,0.49-1.17,0.36-1.81c-0.37-1.85-0.84-3.69-1.42-5.49
			c-0.07-0.23-0.15-0.47-0.33-0.63c-0.19-0.18-0.45-0.25-0.7-0.3c-1.63-0.34-3.32-0.26-4.99-0.14c-4.65,0.32-9.27,0.9-13.88,1.55
			c-1.84,0.26-3.7,0.54-5.55,0.38c-0.89-0.08-1.77-0.26-2.61-0.58c-0.69-0.26-1.69-0.6-1.94-1.34c-0.08-0.25-0.13-0.48-0.06-0.73
			c-0.42-0.24-1.07,0.25-1.35,0.54C42.72,63.99,42.46,64.55,42.36,65.12z"/>
		<g>
			<path d="M41.78,64.96c-0.19,1.32,0.05,2.65-0.13,3.97c-0.08,0.62-0.1,1.26,0.23,1.81c0.26,0.44,0.7,0.77,1.16,0.98
				c1.14,0.52,2.45,0.73,3.67,0.98c1.32,0.28,2.65,0.5,3.99,0.68c5.41,0.73,10.88,0.76,16.31,0.37c2.7-0.19,5.43-0.41,8.11-0.84
				c1.28-0.2,1.62-1.31,1.45-2.46c-0.19-1.29-0.54-2.58-0.89-3.83c-0.18-0.67-0.38-1.35-0.6-2.01c-0.2-0.61-0.54-1.04-1.16-1.24
				c-1.26-0.39-2.72-0.36-4.02-0.31c-2.79,0.11-5.58,0.41-8.35,0.73c-2.81,0.32-5.61,0.75-8.42,1.11c-2.47,0.32-5.19,0.46-7.45-0.79
				c-0.33-0.18-0.72-0.48-0.63-0.92c0.05-0.24-0.03-0.58-0.28-0.69C43.29,61.84,42,63.72,41.78,64.96
				c-0.06,0.32,0.09,0.66,0.43,0.75c0.3,0.08,0.69-0.1,0.75-0.43c0.09-0.47,0.26-0.93,0.59-1.28c0.11-0.12,0.23-0.21,0.37-0.29
				c0.06-0.04,0.13-0.06,0.19-0.1c0.09-0.05,0.17,0.01,0.05-0.05c-0.09-0.23-0.19-0.46-0.28-0.69c-0.23,1.13,0.49,1.98,1.47,2.44
				c1.05,0.49,2.16,0.81,3.31,0.95c2.68,0.33,5.42-0.26,8.07-0.63c2.65-0.36,5.3-0.68,7.97-0.94c1.34-0.13,2.69-0.24,4.04-0.33
				c1.31-0.09,2.65-0.16,3.96,0.02c0.29,0.04,0.58,0.08,0.86,0.16c0.25,0.07,0.3,0.21,0.38,0.45c0.2,0.62,0.38,1.25,0.56,1.88
				c0.34,1.23,0.69,2.49,0.88,3.75c0.04,0.26,0.13,0.77-0.11,0.97c-0.17,0.15-0.5,0.14-0.71,0.17c-0.34,0.04-0.67,0.08-1.01,0.13
				c-1.3,0.16-2.6,0.3-3.91,0.42c-5.21,0.49-10.46,0.65-15.68,0.21c-2.56-0.22-5.11-0.59-7.63-1.15c-0.64-0.14-1.27-0.29-1.9-0.46
				c-0.43-0.11-0.89-0.24-1.24-0.51c-0.41-0.32-0.4-0.8-0.34-1.27c0.08-0.65,0.14-1.26,0.11-1.92c-0.03-0.64-0.09-1.29,0-1.92
				c0.05-0.33-0.08-0.66-0.43-0.75C42.24,64.45,41.82,64.63,41.78,64.96z"/>
		</g>
	</g>
	<g>
		<path class="st6" d="M38.9,46.05c0.06,1.19,0.32,2.37,0.77,3.47c0.13,0.32,0.29,0.66,0.56,0.88c0.26,0.21,0.6,0.29,0.92,0.36
			c2.02,0.43,4.1,0.53,6.17,0.56c3.44,0.04,6.88-0.12,10.31-0.28c3.78-0.18,7.55-0.35,11.33-0.53c0.3-0.01,0.63-0.04,0.87-0.22
			c0.44-0.33,0.4-1,0.29-1.54c-0.27-1.39-0.65-2.75-1.14-4.08c-0.14-0.38-0.3-0.77-0.62-1.01c-0.41-0.3-0.96-0.29-1.46-0.26
			c-6.22,0.37-12.39,1.38-18.6,1.84c-2.45,0.18-5.04,0.55-7.26-0.75c-0.13-0.08-0.26-0.16-0.4-0.21
			C39.33,43.8,38.85,44.94,38.9,46.05z"/>
		<g>
			<path d="M38.29,46.05c0.07,1.27,0.33,2.52,0.81,3.69c0.22,0.53,0.5,1.04,1.03,1.32c0.54,0.29,1.21,0.37,1.8,0.47
				c2.6,0.43,5.26,0.43,7.9,0.4c5.37-0.07,10.75-0.41,16.12-0.66c0.68-0.03,1.36-0.06,2.04-0.1c0.58-0.03,1.26,0.03,1.82-0.18
				c1.19-0.44,1.05-1.76,0.84-2.76c-0.26-1.26-0.62-2.51-1.07-3.72c-0.2-0.55-0.45-1.08-0.95-1.41c-0.46-0.3-1.02-0.34-1.55-0.32
				c-2.67,0.11-5.33,0.42-7.98,0.72c-2.65,0.3-5.29,0.62-7.94,0.88c-1.3,0.13-2.59,0.23-3.89,0.33c-1.15,0.09-2.3,0.17-3.45,0.04
				c-0.56-0.06-1.12-0.2-1.65-0.4c-0.51-0.19-0.95-0.54-1.47-0.7c-0.96-0.3-1.84,0.16-2.2,1.08C38.32,45.15,38.28,45.61,38.29,46.05
				c0.03,0.78,1.25,0.79,1.22,0c-0.02-0.51,0.04-1.39,0.73-1.24c0.41,0.09,0.8,0.41,1.19,0.58c0.53,0.23,1.07,0.39,1.63,0.5
				c2.16,0.39,4.41,0.06,6.58-0.13c4.86-0.42,9.69-1.12,14.54-1.54c0.55-0.05,1.1-0.09,1.65-0.13c0.57-0.04,1.2-0.15,1.76-0.07
				c0.46,0.07,0.63,0.42,0.79,0.82c0.21,0.55,0.39,1.1,0.55,1.67c0.17,0.56,0.31,1.13,0.44,1.7c0.09,0.42,0.26,0.91,0.19,1.34
				c-0.07,0.44-0.57,0.36-0.92,0.37c-0.65,0.03-1.31,0.06-1.96,0.09c-4.89,0.23-9.78,0.51-14.67,0.65c-2.69,0.08-5.41,0.14-8.1-0.1
				c-0.68-0.06-1.36-0.15-2.03-0.27c-0.47-0.09-1.14-0.11-1.44-0.54c-0.34-0.49-0.5-1.17-0.64-1.74c-0.16-0.64-0.26-1.29-0.3-1.95
				C39.47,45.27,38.25,45.27,38.29,46.05z"/>
		</g>
	</g>
	<g>
		<path class="st6" d="M85.11,47.71c-0.87,0.69-1.89,1.18-2.97,1.44c-0.52,0.13-1.15,0.27-1.69,0.22c-0.48-0.05-0.57-0.36-0.57-0.84
			c0-1.39,0-2.78,0-4.17c0-0.49,0-0.98-0.07-1.47c-0.06-0.39-0.17-0.8-0.42-1.1c-0.12-0.14-0.27-0.26-0.39-0.41
			c-0.11-0.15-0.19-0.34-0.14-0.52c0.09-0.28,0.93-0.47,1.19-0.6c0.48-0.24,0.94-0.5,1.39-0.8c0.84-0.56,1.62-1.23,2.29-1.99
			c0.22-0.25,0.44-0.52,0.73-0.69s0.68-0.23,0.96-0.04c0.35,0.23,0.41,0.72,0.43,1.14c0.07,1.52,0.14,3.04,0.21,4.56
			c0.04,0.87,0.08,1.74,0.12,2.61c0.03,0.55,0.05,1.13-0.18,1.64C85.81,47.1,85.47,47.43,85.11,47.71z"/>
		<g>
			<path d="M84.67,47.28c-0.8,0.62-1.72,1.04-2.7,1.28c-0.48,0.12-0.91,0.16-1.4,0.2c-0.17,0.01-0.1-0.09-0.07,0.02
				c0.02,0.09,0.01-0.1,0-0.05c0.05-0.16-0.01-0.49-0.01-0.65c0-1.19,0-2.39,0-3.58c0-1.01,0.06-2.22-0.6-3.06
				c-0.06-0.08-0.34-0.47-0.43-0.47c0.19,0.01-0.36,0.28-0.07,0.19c0.05-0.02,0.1-0.05,0.15-0.07c0.35-0.16,0.71-0.25,1.06-0.43
				c0.91-0.47,1.76-1.06,2.53-1.74c0.36-0.32,0.71-0.66,1.03-1.03c0.16-0.18,0.65-0.85,0.94-0.64c0.24,0.17,0.15,0.99,0.16,1.22
				c0.03,0.61,0.06,1.22,0.09,1.82c0.06,1.29,0.12,2.58,0.18,3.87c0.03,0.58,0.11,1.19,0.04,1.77
				C85.5,46.54,85.12,46.92,84.67,47.28c-0.26,0.21-0.22,0.65,0,0.87c0.25,0.25,0.61,0.21,0.87,0c0.48-0.38,0.88-0.84,1.1-1.42
				c0.21-0.58,0.18-1.22,0.15-1.83c-0.07-1.4-0.13-2.81-0.2-4.21c-0.03-0.71-0.07-1.42-0.1-2.13c-0.03-0.58,0.01-1.24-0.26-1.78
				c-0.27-0.54-0.82-0.83-1.42-0.75c-0.65,0.09-1.09,0.54-1.51,1c-0.82,0.92-1.78,1.7-2.85,2.32c-0.21,0.12-0.53,0.3-0.69,0.37
				c-0.09,0.04-0.37,0.12-0.53,0.19c-0.44,0.17-0.88,0.39-0.98,0.89c-0.06,0.31,0.04,0.63,0.22,0.89c0.15,0.22,0.38,0.38,0.52,0.6
				c0.31,0.5,0.27,1.21,0.27,1.77c0.01,1.41,0,2.83,0.01,4.24c0,0.55,0.03,1.16,0.55,1.49c0.56,0.35,1.37,0.19,1.98,0.07
				c1.38-0.28,2.63-0.85,3.75-1.71c0.26-0.2,0.21-0.65,0-0.87C85.28,47.02,84.94,47.08,84.67,47.28z"/>
		</g>
	</g>
	<g>
		<path class="st6" d="M86.75,65.73c-0.83,0.55-1.77,0.89-2.74,1.12c-0.43,0.1-2.29,0.69-2.56,0.28c-0.07-0.11-0.09-0.24-0.1-0.36
			c-0.15-1.32-0.3-2.63-0.45-3.95c-0.12-1.03-0.23-2.06-0.29-3.1c-0.02-0.32-0.03-0.65-0.14-0.95c-0.06-0.17-0.15-0.33-0.14-0.51
			c0.02-0.25,0.25-0.44,0.49-0.5c0.44-0.11,0.92-0.11,1.37-0.21c0.52-0.12,1.04-0.27,1.54-0.45c1.01-0.36,1.97-0.84,2.87-1.43
			c0.13-0.08,0.27-0.18,0.43-0.15c0.25,0.05,0.32,0.36,0.33,0.62c0.16,2.46,0.33,4.92,0.49,7.37c0.02,0.32,0.04,0.64-0.04,0.95
			C87.67,65.02,87.22,65.42,86.75,65.73z"/>
		<g>
			<path d="M86.44,65.2c-0.83,0.54-1.72,0.83-2.67,1.08c-0.52,0.14-1.06,0.31-1.59,0.37c-0.12,0.01-0.27-0.01-0.39,0.01
				c0.12-0.02-0.1-0.02,0.06,0.02c0,0,0.1,0.09,0.11,0.08c0.05-0.01-0.19-1.63-0.21-1.82c-0.13-1.15-0.27-2.3-0.39-3.45
				c-0.05-0.52-0.1-1.03-0.13-1.55c-0.02-0.26-0.02-0.51-0.05-0.77c-0.02-0.14-0.04-0.29-0.08-0.43c-0.02-0.09-0.16-0.31-0.14-0.38
				c0.03-0.09-0.15,0.16,0.02-0.01c0.06-0.06,0.3-0.06,0.38-0.07c0.24-0.03,0.48-0.05,0.72-0.09c0.57-0.09,1.13-0.26,1.68-0.45
				c0.97-0.33,1.92-0.77,2.8-1.31c0.09-0.06,0.29-0.14,0.35-0.22c0.03-0.02,0.07-0.04,0.1-0.06c-0.25-0.2-0.33-0.21-0.26-0.03
				c-0.03,0.19,0.03,0.44,0.04,0.63c0.04,0.6,0.08,1.2,0.12,1.81c0.08,1.25,0.17,2.51,0.25,3.76c0.04,0.59,0.18,1.27,0.09,1.86
				C87.19,64.64,86.81,64.96,86.44,65.2c-0.65,0.44-0.04,1.5,0.62,1.06c0.44-0.3,0.87-0.65,1.13-1.12c0.32-0.58,0.3-1.2,0.26-1.84
				c-0.09-1.35-0.18-2.71-0.27-4.06c-0.05-0.68-0.09-1.35-0.14-2.03c-0.04-0.57,0.04-1.32-0.28-1.83c-0.36-0.59-1.02-0.51-1.53-0.19
				c-0.53,0.34-1.08,0.65-1.65,0.91c-0.6,0.28-1.22,0.5-1.85,0.68c-0.62,0.18-1.24,0.23-1.88,0.35c-0.57,0.11-1.11,0.5-1.13,1.13
				c-0.01,0.32,0.15,0.57,0.22,0.87c0.08,0.33,0.06,0.69,0.08,1.03c0.09,1.34,0.26,2.68,0.42,4.02c0.08,0.68,0.16,1.37,0.23,2.05
				c0.06,0.53,0.04,1.22,0.58,1.51c0.71,0.39,1.79,0,2.5-0.19c1.16-0.31,2.28-0.64,3.3-1.29C87.72,65.83,87.11,64.77,86.44,65.2z"/>
		</g>
	</g>
	<g>
		<path class="st6" d="M135.86,66.27c-0.08-0.64-0.64-2.48-1.67-2.08c0.03,0.21,0.07,0.42,0.1,0.63c0.04,0.27,0.09,0.56,0,0.82
			c-0.12,0.38-0.4,0.43-0.73,0.46c-0.96,0.09-2.03-0.09-3-0.12c-1-0.03-2.01-0.04-3.01-0.04c-2.01,0-4.01,0.05-6.02,0.16
			c-3.97,0.21-7.93,0.62-11.85,1.24c-0.39,0.06-0.82,0.14-1.08,0.44c-0.33,0.36-0.31,0.9-0.26,1.38c0.12,1.26,0.28,2.52,0.48,3.77
			c0.04,0.27,0.1,0.56,0.27,0.78c0.27,0.33,0.75,0.39,1.18,0.42c7.66,0.51,15.34,0.1,22.99-0.55c0.66-0.06,1.37-0.13,1.88-0.55
			c0.67-0.55,0.81-1.5,0.86-2.36C136.08,69.2,136.04,67.73,135.86,66.27z"/>
		<g>
			<path d="M136.48,66.27c-0.15-1.16-0.91-3.19-2.44-2.67c-0.34,0.11-0.48,0.41-0.43,0.75c0.04,0.24,0.24,0.99,0.08,1.12
				c-0.1,0.08-0.39,0.04-0.52,0.04c-0.32,0.01-0.64-0.01-0.96-0.03c-1.15-0.08-2.29-0.13-3.45-0.15c-2.36-0.02-4.72,0.02-7.07,0.14
				c-2.36,0.12-4.72,0.31-7.07,0.58c-1.2,0.14-2.41,0.29-3.6,0.47c-0.53,0.08-1.07,0.15-1.6,0.24c-0.46,0.08-0.91,0.23-1.25,0.58
				c-0.74,0.76-0.43,2.05-0.32,2.98c0.06,0.54,0.13,1.08,0.21,1.61c0.07,0.53,0.11,1.11,0.28,1.62c0.38,1.13,1.54,1.15,2.54,1.21
				c1.18,0.07,2.37,0.12,3.55,0.15c4.77,0.12,9.54-0.06,14.3-0.39c1.31-0.09,2.62-0.19,3.93-0.3c1.1-0.09,2.37-0.11,3.15-1.01
				c0.71-0.82,0.78-1.96,0.82-3C136.68,68.91,136.63,67.58,136.48,66.27c-0.04-0.33-0.25-0.61-0.61-0.61c-0.3,0-0.65,0.28-0.61,0.61
				c0.13,1.12,0.19,2.24,0.17,3.37c-0.01,0.82,0.04,1.83-0.39,2.57c-0.46,0.79-1.59,0.73-2.38,0.8c-1.13,0.09-2.27,0.18-3.4,0.26
				c-4.53,0.32-9.07,0.52-13.62,0.45c-1.13-0.02-2.27-0.05-3.4-0.11c-0.55-0.03-1.11-0.06-1.66-0.09c-0.3-0.02-0.86,0.03-1.04-0.26
				c-0.11-0.17-0.12-0.45-0.15-0.65c-0.04-0.24-0.07-0.48-0.11-0.72c-0.08-0.57-0.16-1.15-0.22-1.72c-0.05-0.48-0.13-0.98-0.13-1.47
				c0-0.44,0.16-0.62,0.6-0.71c1.03-0.23,2.1-0.33,3.15-0.47c1.15-0.15,2.3-0.28,3.45-0.4c2.25-0.22,4.51-0.38,6.77-0.48
				c2.51-0.1,5.02-0.13,7.52-0.06c1.13,0.03,2.29,0.26,3.42,0.09c0.51-0.08,0.91-0.37,1.06-0.88c0.17-0.57-0.01-1.2-0.1-1.77
				c-0.14,0.25-0.28,0.5-0.43,0.75c0.05-0.02,0.09-0.03,0.14-0.04c-0.02,0-0.09-0.01-0.03,0.01c0.01,0,0.08,0.02,0.11,0.06
				c0.13,0.1,0.24,0.29,0.33,0.46c0.09,0.18,0.16,0.37,0.22,0.56c0.03,0.09,0.05,0.18,0.07,0.28c0.01,0.04,0.06,0.32,0.04,0.18
				c0.04,0.33,0.25,0.61,0.61,0.61C136.16,66.88,136.52,66.6,136.48,66.27z"/>
		</g>
	</g>
	<g>
		<path class="st6" d="M105.18,46.33c-0.01,0.07-0.01,0.14-0.01,0.21c-0.07,1.75,0.12,3.52,0.57,5.22c0.03,0.12,0.06,0.24,0.14,0.34
			c0.11,0.15,0.29,0.23,0.47,0.3c0.92,0.35,1.72,0.35,2.69,0.29c7.85-0.52,15.7-1.05,23.55-1.57c0.48-0.03,0.99-0.07,1.37-0.36
			c0.62-0.47,0.66-1.38,0.64-2.16c-0.03-1.23-0.06-2.47-0.09-3.7c-0.02-0.71-0.04-1.44-0.3-2.1s-0.83-1.24-1.54-1.32
			c-0.14-0.21-0.42-0.14-0.65-0.03c0.32,0.34,0.19,0.93-0.16,1.25s-0.82,0.43-1.28,0.51c-2.37,0.45-4.78,0.58-7.19,0.7
			c-3.07,0.16-6.13,0.33-9.2,0.49c-1.55,0.08-3.11,0.17-4.66,0.25c-1.07,0.06-3.18-0.25-3.99,0.64
			C105.28,45.55,105.21,45.94,105.18,46.33z"/>
		<g>
			<path d="M104.57,46.33c-0.1,1.55,0.05,3.14,0.37,4.66c0.15,0.73,0.25,1.54,1,1.89c0.64,0.29,1.35,0.42,2.05,0.44
				c0.76,0.02,1.52-0.06,2.27-0.11c0.84-0.06,1.67-0.11,2.51-0.17c1.65-0.11,3.29-0.22,4.94-0.33c3.29-0.22,6.58-0.44,9.88-0.66
				c1.65-0.11,3.29-0.22,4.94-0.33c0.68-0.05,1.38-0.12,1.92-0.58c0.49-0.42,0.68-1.06,0.75-1.68c0.09-0.78,0.01-1.58-0.01-2.35
				c-0.02-0.87-0.03-1.75-0.07-2.62c-0.06-1.47-0.56-3.35-2.28-3.61c0.09,0.05,0.18,0.1,0.27,0.16c-0.4-0.43-0.91-0.33-1.39-0.13
				c-0.4,0.17-0.34,0.69-0.12,0.96c0.13,0.16-0.25,0.47-0.41,0.54c-0.41,0.18-0.9,0.23-1.33,0.3c-1.01,0.17-2.03,0.28-3.06,0.37
				c-2.11,0.17-4.22,0.26-6.33,0.37c-2.14,0.11-4.27,0.23-6.41,0.34c-1.88,0.1-3.76,0.26-5.64,0.24c-0.79-0.01-1.64-0.02-2.4,0.26
				C105.06,44.62,104.65,45.35,104.57,46.33c-0.07,0.78,1.16,0.78,1.22,0c0.03-0.32,0.09-0.61,0.37-0.79
				c0.24-0.15,0.54-0.21,0.82-0.25c0.71-0.1,1.44-0.04,2.15-0.04c0.98,0,1.97-0.09,2.95-0.14c1.1-0.06,2.21-0.12,3.31-0.18
				c2.21-0.12,4.43-0.24,6.64-0.35c2.15-0.11,4.3-0.2,6.43-0.45c0.62-0.07,1.23-0.16,1.84-0.26c0.5-0.09,1.02-0.17,1.48-0.4
				c0.94-0.47,1.35-1.61,0.66-2.46c-0.04,0.32-0.08,0.64-0.12,0.96c0.17-0.07-0.17,0.09-0.09-0.06c-0.01,0.02,0.18,0.12,0.2,0.13
				c0.13,0.05,0.27,0.05,0.4,0.1c0.23,0.09,0.43,0.27,0.58,0.47c0.35,0.48,0.44,1.1,0.47,1.68c0.08,1.43,0.08,2.87,0.11,4.3
				c0.01,0.47,0.05,1.05-0.22,1.46c-0.29,0.46-0.93,0.43-1.41,0.46c-1.49,0.1-2.99,0.2-4.48,0.3c-6,0.4-12,0.8-18,1.2
				c-0.75,0.05-1.51,0.14-2.26,0.06c-0.33-0.03-0.66-0.11-0.97-0.22c-0.09-0.03-0.22-0.06-0.28-0.14c-0.1-0.13-0.12-0.47-0.16-0.61
				c-0.36-1.55-0.52-3.17-0.42-4.76C105.84,45.54,104.62,45.54,104.57,46.33z"/>
		</g>
	</g>
	<g>
		<path class="st6" d="M95.37,51.71c0.66,0.42,1.38,0.75,2.12,1c0.72,0.24,1.1,0.26,0.88-0.6c-0.41-1.59-0.82-3.15-0.96-4.8
			c-0.06-0.69-0.06-1.43,0.34-1.99c0.14-0.2,0.33-0.37,0.42-0.6c0.3-0.78-0.68-1.09-1.2-1.33c-0.88-0.41-1.77-0.79-2.66-1.18
			c-0.24-0.11-0.53-0.21-0.76-0.08c-0.25,0.15-0.27,0.51-0.26,0.8c0.13,2.45,0.47,4.88,1.03,7.27c0.07,0.31,0.15,0.63,0.34,0.89
			C94.85,51.36,95.11,51.54,95.37,51.71z"/>
		<g>
			<path d="M95.06,52.24c0.47,0.29,0.96,0.54,1.47,0.76c0.46,0.19,0.95,0.41,1.45,0.46c0.3,0.03,0.61-0.04,0.82-0.27
				c0.32-0.34,0.26-0.82,0.16-1.24c-0.26-1.12-0.58-2.23-0.77-3.36c-0.15-0.87-0.46-2.17,0.1-2.95c0.28-0.39,0.58-0.73,0.55-1.24
				c-0.02-0.43-0.28-0.78-0.62-1.03c-0.27-0.2-0.57-0.32-0.87-0.46c-0.51-0.23-1.01-0.46-1.53-0.69c-0.82-0.36-2.25-1.31-2.93-0.26
				c-0.27,0.42-0.21,0.95-0.18,1.42c0.04,0.59,0.09,1.17,0.15,1.76c0.14,1.32,0.34,2.64,0.6,3.94c0.12,0.62,0.22,1.28,0.45,1.87
				C94.14,51.53,94.55,51.91,95.06,52.24c0.67,0.42,1.28-0.63,0.62-1.06c-0.33-0.21-0.55-0.4-0.67-0.78
				c-0.13-0.44-0.22-0.9-0.31-1.36c-0.19-0.91-0.35-1.83-0.47-2.75c-0.13-0.97-0.22-1.94-0.28-2.91c-0.01-0.18-0.03-0.36-0.03-0.54
				c0-0.1,0-0.14,0.02-0.24c0,0.01-0.09,0.1-0.11,0.09c0.14,0.11,0.42,0.16,0.58,0.23c0.22,0.1,0.44,0.19,0.67,0.29
				c0.71,0.31,1.44,0.61,2.14,0.96c0.12,0.06,0.41,0.2,0.41,0.3c0,0.01-0.09,0.15-0.12,0.19c-0.14,0.19-0.29,0.35-0.4,0.56
				c-0.39,0.76-0.35,1.63-0.27,2.45c0.1,0.94,0.27,1.86,0.49,2.78c0.12,0.51,0.25,1.03,0.38,1.54c0.03,0.13,0.04,0.38,0.11,0.49
				c0.04,0.06-0.05,0.1,0.09-0.09c0.03-0.07,0.08-0.12,0.14-0.14c0.07-0.01,0.07-0.02-0.01-0.02c0,0-0.23-0.06-0.3-0.09
				c-0.23-0.07-0.45-0.15-0.67-0.24c-0.49-0.2-0.95-0.45-1.4-0.73C95.01,50.77,94.39,51.83,95.06,52.24z"/>
		</g>
	</g>
	<g>
		<path class="st6" d="M98.83,66.27c0.72,0.29,1.47,0.45,2.21,0.68c0.57,0.18,0.92,0.23,0.75-0.57c-0.47-2.2-1-4.39-1.59-6.56
			c-0.22-0.81-0.53-0.77-1.25-0.88s-1.43-0.33-2.09-0.65c-0.2-0.09-0.47-0.18-0.6-0.01c-0.05,0.07-0.06,0.16-0.07,0.24
			c-0.04,0.72,0.15,1.42,0.34,2.11c0.41,1.48,0.83,2.97,1.24,4.45c0.07,0.26,0.15,0.53,0.32,0.73
			C98.28,66.05,98.56,66.17,98.83,66.27z"/>
		<g>
			<path d="M98.66,66.86c0.45,0.17,0.91,0.31,1.38,0.44c0.4,0.11,0.8,0.27,1.21,0.35c0.81,0.14,1.27-0.43,1.15-1.21
				c-0.14-0.98-0.42-1.96-0.65-2.92c-0.24-1-0.49-1.99-0.75-2.98c-0.18-0.69-0.29-1.61-1.01-1.97c-0.26-0.13-0.53-0.16-0.81-0.2
				c-0.49-0.07-0.96-0.18-1.43-0.35c-0.67-0.24-1.81-0.9-2.15,0.18c-0.13,0.41-0.05,0.93,0.02,1.35c0.08,0.52,0.24,1.03,0.38,1.55
				c0.31,1.1,0.62,2.2,0.92,3.3c0.14,0.51,0.24,1.09,0.5,1.55C97.71,66.43,98.17,66.66,98.66,66.86c0.31,0.12,0.67-0.14,0.75-0.43
				c0.1-0.35-0.12-0.63-0.43-0.75c-0.23-0.09-0.42-0.19-0.52-0.42c-0.12-0.28-0.18-0.61-0.26-0.91c-0.19-0.67-0.37-1.34-0.56-2.01
				c-0.19-0.67-0.38-1.34-0.56-2c-0.09-0.32-0.18-0.65-0.24-0.98c-0.02-0.13-0.04-0.27-0.05-0.4c-0.01-0.09-0.01-0.19-0.01-0.29
				c0.02-0.19,0.01-0.19-0.04-0.01c-0.09,0.05-0.18,0.1-0.27,0.16c0.09-0.04,0.46,0.18,0.58,0.23c0.3,0.12,0.6,0.23,0.91,0.31
				c0.47,0.13,0.98,0.13,1.44,0.28c0.11,0.04,0.01-0.03,0.08,0.04c-0.1-0.09,0.02,0.05,0.04,0.09c0.11,0.25,0.16,0.54,0.23,0.8
				c0.17,0.65,0.34,1.31,0.51,1.96c0.33,1.32,0.73,2.67,0.93,4.02c0-0.03,0.02,0.22,0.02,0.22c0-0.14,0.08-0.24,0.27-0.3
				c0.08-0.01,0.08-0.01,0-0.01c0.06,0.04-0.09-0.03-0.12-0.04c-0.15-0.04-0.29-0.09-0.44-0.14c-0.65-0.19-1.3-0.35-1.93-0.6
				c-0.31-0.12-0.67,0.13-0.75,0.43C98.14,66.46,98.35,66.74,98.66,66.86z"/>
		</g>
	</g>
	<path class="st7" d="M134.5,93.55c-0.29-0.18-0.62-0.32-1.01-0.42c-0.93-0.23-1.89-0.22-2.85-0.21
		c-5.12,0.06-10.25,0.12-15.37,0.18c-2.3,0.03-4.72,0.08-6.72,1.24c-0.99,0.57-1.82,1.39-2.56,2.26c-1.2,1.39-2.22,2.94-3.03,4.59
		c-0.23,0.47-0.45,0.95-0.81,1.33s-0.89,0.64-1.4,0.52c-1.02-0.24-0.57-1.13-0.54-1.8c0.04-1.04,0.07-2.07,0.12-3.11
		c0.02-0.38,0.16-0.66,0.25-1.02c0.11-0.45,0.12-0.89,0.33-1.31c0.13-0.26,0.31-0.5,0.49-0.73c1.76-2.27,3.68-4.42,5.73-6.44
		c0.66-0.65,1.36-1.3,2.2-1.7c0.93-0.44,1.98-0.6,2.99-0.74c2.16-0.31,4.34-0.43,6.52-0.55c2.87-0.16,5.74-0.14,8.6-0.21
		c2.63-0.06,5.16,1.1,7.28,2.58c2.47,1.73,4.58,3.94,7.03,5.7c0.15,0.11,0.3,0.22,0.4,0.37c0.1,0.15,0.13,0.33,0.17,0.5
		c0.13,0.68,0.66,6.94-0.42,6.72c-0.09-0.02-0.16-0.09-0.21-0.16c-0.89-1.06-1.73-2.34-2.78-3.25c-0.93-0.8-1.6-1.88-2.53-2.71
		C135.7,94.59,135.2,93.98,134.5,93.55z"/>
	<path class="st4" d="M37.52,92.68c-0.34-0.37-0.81-0.55-1.25-0.79c-0.48-0.27-0.96-0.55-1.44-0.82c-0.9-0.48-1.82-0.93-2.76-1.32
		c-2.01-0.83-4.01-1.68-6.12-2.23c-2.04-0.53-4.12-0.95-6.22-0.46c-1.06,0.25-2.08,0.72-3.08,1.14c-0.51,0.22-1.01,0.44-1.51,0.68
		c-0.54,0.25-0.9,0.57-1.41,0.86c-0.06,0.03-0.02,0.12,0.04,0.1c0.53-0.11,0.98-0.1,1.51-0.25c0.49-0.14,0.98-0.27,1.47-0.4
		c1.04-0.28,2.08-0.54,3.15-0.69c2.07-0.29,4,0.14,6,0.66c1.93,0.51,3.83,0.96,5.69,1.71c0.98,0.4,1.96,0.8,2.93,1.22
		c0.42,0.18,0.85,0.36,1.26,0.58c0.45,0.23,0.85,0.54,1.34,0.64C37.52,93.39,37.79,92.97,37.52,92.68z"/>
	<path class="st4" d="M74.09,65.14c-0.4-1-1.15-1.19-2.16-1.32c-1.31-0.17-2.66-0.22-3.98-0.13c-2.55,0.19-5.09,0.69-7.62,1.07
		c-2.48,0.38-4.96,0.79-7.47,0.96c-1.2,0.08-2.41,0.11-3.61,0.08c-1.28-0.03-2.5-0.34-3.76-0.51c-0.06-0.01-0.07,0.08-0.03,0.11
		c0.98,0.58,2.05,0.8,3.16,1.03c1.04,0.22,2.07,0.35,3.13,0.38c2.39,0.06,4.77-0.22,7.14-0.48c2.47-0.27,4.95-0.57,7.42-0.79
		c1.24-0.11,2.49-0.21,3.73-0.23c0.94-0.01,2.43-0.16,3.23,0.46C73.65,66.05,74.26,65.57,74.09,65.14z"/>
	<path class="st4" d="M67.75,44.01c-4.77-0.78-9.44,0.44-14.18,0.89c-2.39,0.22-4.77,0.45-7.16,0.62c-0.93,0.07-1.85,0.18-2.78,0.14
		c-1.07-0.06-1.93-0.46-2.92-0.78c-0.12-0.04-0.25,0.12-0.17,0.22c1.04,1.37,3.33,1.47,4.91,1.52c2.35,0.07,4.75-0.15,7.08-0.32
		c2.43-0.18,4.86-0.29,7.29-0.49c2.46-0.2,4.99-0.42,7.45-0.04C68.41,45.94,68.9,44.2,67.75,44.01z"/>
	<path class="st4" d="M86.85,56.62c-0.2-0.48-0.87-0.78-1.34-0.45c-0.67,0.48-1.42,0.84-2.12,1.28c-0.32,0.2-0.61,0.36-0.97,0.44
		c-0.35,0.08-0.71,0.07-1.07,0.1c-0.28,0.02-0.48,0.37-0.25,0.59c0.69,0.65,1.74,0.31,2.55,0.15c0.9-0.17,1.73-0.53,2.58-0.85
		C86.76,57.7,87.08,57.18,86.85,56.62z"/>
	<path class="st4" d="M84.84,36.99c-0.02,0-0.03-0.01-0.05-0.01c-0.38-0.07-0.7,0.06-0.9,0.34c-0.32,0.3-0.65,0.6-0.94,0.93
		c-0.3,0.34-0.61,0.69-0.94,1c-0.28,0.27-0.58,0.51-0.92,0.72c-0.18,0.11-0.34,0.24-0.52,0.36c-0.18,0.13-0.31,0.3-0.5,0.4
		c-0.08,0.04-0.06,0.17,0.03,0.19c0.2,0.05,0.4,0.15,0.61,0.16c0.22,0.01,0.49-0.01,0.7-0.08c0.46-0.16,0.89-0.4,1.3-0.66
		c0.43-0.28,0.83-0.61,1.23-0.93c0.33-0.27,0.64-0.57,0.97-0.85c0.3-0.12,0.51-0.46,0.51-0.77c0-0.02,0-0.03,0-0.05
		C85.42,37.43,85.18,37.05,84.84,36.99z"/>
	<path class="st4" d="M97.72,44.38c-0.18-0.21-0.49-0.3-0.72-0.44c-0.23-0.15-0.45-0.31-0.67-0.48c-0.42-0.34-0.81-0.71-1.25-1.02
		l0,0c-0.1-0.23-0.41-0.37-0.65-0.37c-0.3,0-0.57,0.19-0.69,0.46c-0.11,0.25-0.07,0.53,0.1,0.75c0.15,0.2,0.44,0.33,0.71,0.28
		c0.01,0,0.02,0,0.02,0.01c0.06,0.02,0.13,0.04,0.19,0.07c0.04,0.01,0.08,0.03,0.12,0.05c0.01,0,0.01,0,0.02,0.01
		c0.07,0.03,0.13,0.06,0.2,0.09c0.28,0.13,0.55,0.26,0.82,0.4c0.27,0.14,0.54,0.27,0.83,0.39c0.14,0.06,0.28,0.1,0.43,0.14
		c0.17,0.05,0.3,0.07,0.47,0.01C97.77,44.67,97.82,44.5,97.72,44.38z"/>
	<path class="st4" d="M99.98,59.58c-0.18-0.2-0.45-0.23-0.7-0.28c-0.21-0.04-0.42-0.09-0.63-0.14c-0.1-0.02-0.21-0.06-0.32-0.08
		c-0.02,0-0.03-0.01-0.05-0.01c-0.01,0,0,0-0.01-0.01c-0.05-0.02-0.09-0.04-0.14-0.07c-0.14-0.07-0.28-0.14-0.41-0.22
		c-0.07-0.07-0.15-0.14-0.23-0.18c-0.28-0.13-0.57-0.16-0.86,0c-0.23,0.14-0.45,0.45-0.42,0.73v0.02c0.02,0.2,0.06,0.36,0.18,0.52
		s0.26,0.24,0.45,0.31c0.16,0.06,0.34,0.05,0.51-0.01c0.15,0,0.3-0.01,0.45-0.01c0.05,0,0.11,0,0.16,0c0.02,0,0.09,0,0.1-0.01
		c0.11,0.01,0.21,0.04,0.32,0.05c0.24,0.04,0.49,0.07,0.73,0.1c0.27,0.03,0.53,0.09,0.78-0.06C100.14,60.1,100.17,59.79,99.98,59.58
		z"/>
	<path class="st4" d="M132.91,42.28c-1.53,1.34-4.02,1.5-5.98,1.66c-2.2,0.18-4.41,0.22-6.61,0.31c-2.3,0.1-4.61,0.07-6.91,0.2
		c-2.41,0.13-4.81,0.29-7.21,0.48c-1.09,0.08-1.12,1.74,0,1.72c2.56-0.04,5.11-0.12,7.66-0.22c2.56-0.1,5.11-0.37,7.66-0.5
		c2.26-0.11,4.56-0.15,6.78-0.65c1.06-0.23,2.11-0.63,3.04-1.2c0.64-0.39,1.59-0.92,1.71-1.72
		C133.07,42.28,132.98,42.22,132.91,42.28z"/>
	<path class="st4" d="M134.97,65.38c-0.77,0.41-1.3,0.85-2.21,0.97c-1.02,0.14-2.08,0.02-3.1-0.03c-2.31-0.11-4.62-0.25-6.93-0.26
		c-4.6-0.01-9.19,0.43-13.71,1.26c-1.22,0.22-0.69,2.03,0.51,1.84c4.81-0.77,9.69-1.17,14.56-1.19c2.41-0.01,4.83,0.11,7.24-0.12
		c1.32-0.13,3.94-0.34,4.25-2.02C135.64,65.49,135.3,65.2,134.97,65.38z"/>
</g>
</svg>
