<?xml version="1.0" encoding="utf-8"?>
<!-- Generator: Adobe Illustrator 28.0.0, SVG Export Plug-In . SVG Version: 6.00 Build 0)  -->
<svg version="1.1" id="Layer_1" xmlns="http://www.w3.org/2000/svg" xmlns:xlink="http://www.w3.org/1999/xlink" x="0px" y="0px"
	 viewBox="0 0 150 150" style="enable-background:new 0 0 150 150;" xml:space="preserve">
<style type="text/css">
	.st0{fill:#842E9F;}
	.st1{fill:#FFFFFF;}
	.st2{fill:url(#SVGID_1_);}
	.st3{fill:url(#SVGID_00000085955452667529944460000000806752329381389743_);}
	.st4{fill:url(#SVGID_00000039813980345522366100000010648554641663600818_);}
	.st5{fill:url(#SVGID_00000117667035693469293260000007969201838626814361_);}
	.st6{fill:url(#SVGID_00000029028271620377561060000005789941491614892984_);}
	.st7{fill:url(#SVGID_00000127748043995590926730000005241409212802961852_);}
	.st8{fill:url(#SVGID_00000156549642154797395160000016154633105150203533_);}
	.st9{fill:url(#SVGID_00000035490654915022158210000016183199252835003324_);}
	.st10{fill:url(#SVGID_00000133524767678105353600000004884808481380000912_);}
	.st11{fill:url(#SVGID_00000008123404336082506230000009825688731277918090_);}
	.st12{fill:url(#SVGID_00000013193612400275784410000002006267335230023842_);}
	.st13{fill:url(#SVGID_00000088846905303411300540000001310143886792074113_);}
	.st14{fill:url(#SVGID_00000088112496732874468220000000906081091267381638_);}
	.st15{fill:url(#SVGID_00000016784986982318438970000017234202030361640338_);}
	.st16{fill:#FBC929;}
	.st17{fill:#1C1C21;}
	.st18{fill:url(#SVGID_00000070099922585855001920000003629315484142894746_);}
	.st19{fill:url(#SVGID_00000031182378642719798500000013468140261422531494_);}
	.st20{fill:url(#SVGID_00000101807084933386161970000017507451983236277134_);}
	.st21{fill:url(#SVGID_00000090282883826896756640000012651283865168269719_);}
	.st22{fill:#B66611;}
	.st23{fill:#F3FCEC;}
</style>
<g id="Purple_Shadow_Wizard_Hood">
	<g>
		<path class="st0" d="M139.15,114.87c-0.84-1.3-2.1-2.3-3.07-3.5c-0.35-0.43-0.66-0.88-0.91-1.38c-1.07-2.19-0.61-4.84-1.34-7.17
			c-0.52-1.67-1.7-2.94-2.43-4.49c-0.76-1.61-1.26-3.36-2.26-4.83c-1.1-1.63-2.76-2.83-3.81-4.48c-1.88-2.95-1.53-6.8-0.51-10.14
			c1.01-3.34,2.62-6.53,3.11-9.99c0.33-2.33,0.12-4.73-0.58-6.97c-0.63-2-2.45-3.64-2.63-5.75c-0.2-2.44,2.1-4.39,2.51-6.8
			c0.55-3.24-1.78-7.04-3.75-9.44c-2.15-2.62-4.93-4.71-7.97-6.19c-1.63-0.8-3.34-1.44-4.85-2.45c-2.36-1.58-4.07-3.94-6.04-6
			c-2.8-2.94-6.19-5.32-9.91-6.95c-1.24-0.54-2.55-0.58-3.8-1.05c-0.79-0.3-1.49-0.8-2.2-1.28c-3.94-2.66-8.35-4.69-13.02-5.68
			c-1.99-0.43-4.81-1.11-6.81-0.55c-2.16,0.61-4.34,1.49-6.45,2.3c-2.68,1.03-5.36,2.05-8.03,3.08c-3.73,1.43-7.52,2.89-10.75,5.24
			c-4.09,2.98-6.81,7.07-9.45,11.28c-1.71,2.73-3.33,5.64-3.66,8.84c-0.25,2.43,0.27,4.86,0.36,7.3c0.14,3.91-0.81,7.76-1.54,11.59
			C28.5,63.8,28.32,68,29.21,72.4c0.23,1.14,0.46,2.29,0.41,3.46c-0.08,1.86-0.86,3.6-1.62,5.29c-2.09,4.61-3.69,9.36-5.97,13.92
			c-0.35,0.76-0.9,1.38-1.26,2.11c-0.5,1.02-0.49,2.38-0.52,3.5c-0.07,2.57,0.34,5.13,0.75,7.66c0.13,0.83,0.27,1.67,0.66,2.41
			c1.18,2.25,4.32,2.95,5.44,5.24c0.17,0.34,0.28,0.71,0.24,1.09c-0.06,0.49-0.37,0.91-0.58,1.36c-0.81,1.77,0.11,3.79,0.49,5.71
			c0.31,1.56,0.23,3.16-0.08,4.71c-0.15,0.75-0.35,1.49-0.59,2.22c-0.2,0.61-0.93,1.74-0.89,2.35c0.08,1.43,2.44,0.34,3.32,0.07
			c1.45-0.45,2.87-1.01,4.23-1.68c1.72-0.85,3.47-1.89,5.39-1.88c0.99,0.01,1.96,0.31,2.91,0.62c3.33,1.11,6.62,2.49,10.11,2.91
			c1.35,0.16,2.76,0.19,3.96,0.83s2.08,2.16,1.47,3.37c-0.58,1.16-1.23,1.79,0.25,2.68c1.83,1.1,4.17,1.41,6.26,1.58
			c1.5,0.12,3.19-0.04,4.64-0.43c2.12-0.57,4.18-2.14,4.45-4.32c0.18-1.42-0.37-3.02,0.44-4.19c0.34-0.48,0.86-0.8,1.39-1.05
			c1.23-0.58,2.59-0.86,3.94-0.83c0.77,0.02,1.55,0.14,2.31,0.05c1.04-0.12,1.99-0.63,2.91-1.12c6.03-3.19,12.27-6.13,18.9-7.83
			c3.11-0.8,6.45-1.46,9.66-1.47c3.24-0.01,6.44,1.33,9.66,0.38c0.43-0.13,0.87-0.29,1.31-0.19c0.33,0.08,0.61,0.3,0.88,0.5
			c1.74,1.28,3.86,1.88,5.94,2.46c2.76,0.77,5.56,1.55,8.43,1.59c0.33,0,0.69-0.01,0.97-0.18c0.46-0.28,0.6-0.86,0.69-1.39
			C140.64,120.85,140.84,117.48,139.15,114.87z"/>
		<path d="M84,112.65c0.22-0.12,0.43-0.25,0.65-0.38c2.48-1.51,4.69-3.46,6.51-5.72c0.88-1.09,1.66-2.27,2.18-3.58
			c1.16-2.93,0.86-6.22,0.45-9.34c-0.39-2.99-0.86-5.99-1.83-8.85c-1.47-4.31-4.02-8.15-5.49-12.46c-0.66-1.95-0.9-3.87-1.62-5.81
			c-0.84-2.28-1.67-4.57-2.51-6.85c-0.58-1.57-1.17-3.17-2.21-4.48c-1.55-1.94-4.36-1.67-5.42-3.94c-0.72-1.55-0.75-3.77-1.17-5.45
			c-0.96-3.87-2.32-7.65-4.03-11.26c-1.14-2.39-2.32-2.9-4.86-2.81c-2.55,0.09-5.08,0.39-7.58,0.9c-4.82,0.98-9.49,2.71-13.77,5.14
			c-0.88,0.5-1.78,1.06-2.34,1.9c-0.86,1.27-0.81,2.92-0.79,4.45c0.06,8.4-1.88,16.47-4.27,24.45c-1.39,4.64-2.93,9.24-4.32,13.85
			c-0.96,3.19-1.92,6.39-2.62,9.65c-1,4.68,4.96,9.13,8.06,11.98c7.04,6.46,14.34,12.64,21.87,18.52c1.72,1.34,2.8,0.48,4.58-0.34
			c1.77-0.81,3.54-1.62,5.31-2.42c3.54-1.62,7.08-3.23,10.61-4.85C80.94,114.22,82.5,113.5,84,112.65z"/>
		<circle class="st1" cx="45.96" cy="70.21" r="2.54"/>
		<circle class="st1" cx="70" cy="68.33" r="2.54"/>
		
			<linearGradient id="SVGID_1_" gradientUnits="userSpaceOnUse" x1="144.5144" y1="107.0269" x2="97.0062" y2="112.8828" gradientTransform="matrix(1 0 0 -1 0 149.8898)">
			<stop  offset="0" style="stop-color:#000000"/>
			<stop  offset="0.9994" style="stop-color:#7E2C98;stop-opacity:0"/>
		</linearGradient>
		<path class="st2" d="M101.92,22.99c2.5,2.31,4.65,4.98,7.3,7.12c2.66,2.15,5.74,3.69,8.65,5.49s5.73,3.93,7.47,6.87
			s2.2,6.84,0.39,9.74c-0.45,0.71-1.02,1.36-1.31,2.15c-0.49,1.35-0.07,2.85,0.36,4.22c-1.24-2.29-3.54-3.77-5.6-5.36
			c-2.65-2.05-5.05-4.45-7.1-7.1c-0.35-0.45-0.7-0.92-0.91-1.46c-0.89-2.18,0.55-4.87-0.52-6.97c-0.51-0.99-1.5-1.66-2.07-2.62
			c-0.51-0.86-0.65-1.88-1.06-2.79c-0.64-1.4-1.88-2.41-2.83-3.62c-0.83-1.06-1.42-2.28-2.18-3.39c-1.94-2.84-4.96-4.92-8.31-5.72
			c-1.13-0.27-1.35-0.99-0.14-1.03c0.9-0.03,2.1,0.59,2.89,0.96C98.8,20.37,100.44,21.62,101.92,22.99z"/>
		
			<linearGradient id="SVGID_00000036939460045453256040000012159684808500024474_" gradientUnits="userSpaceOnUse" x1="176.0697" y1="92.1442" x2="56.5419" y2="64.4757" gradientTransform="matrix(1 0 0 -1 0 149.8898)">
			<stop  offset="0" style="stop-color:#000000"/>
			<stop  offset="0.9994" style="stop-color:#7E2C98;stop-opacity:0"/>
		</linearGradient>
		<path style="fill:url(#SVGID_00000036939460045453256040000012159684808500024474_);" d="M100.76,36.24
			c0.76,1.92,2.57,2.96,4.58,3.82c6.11,2.63,9,9.6,14.03,13.95c3.21,2.78,7.59,4.9,8.61,9.02c0.55,2.22-0.05,4.54-0.65,6.75
			c-0.84,3.1-1.68,6.2-2.52,9.3c-0.49,1.82-0.99,3.68-0.86,5.56c0.36,5.05,4.63,7.21,6.42,11.5c0.47,1.12,0.67,2.37,1.32,3.39
			c0.47,0.73,1.15,1.31,1.66,2.02c1.11,1.54,0.85,2.94,0.85,4.73c0,3.06,2.29,5.05,4.06,7.24c2.48,3.07,3,7.97,1.15,11.43
			c-0.13,0.25-0.29,0.5-0.54,0.64c-0.34,0.18-0.76,0.09-1.14-0.01c-2.64-0.7-5.28-1.4-7.92-2.1c-2.11-0.56-4.26-1.13-6.06-2.35
			c-0.25-0.17-0.52-0.36-0.82-0.39c-0.38-0.04-0.74,0.19-1.09,0.34c-1.99,0.9-4.41-0.08-6.46-0.21c-2.73-0.17-5.51,0-8.21,0.36
			c-5.44,0.71-10.76,2.36-15.64,4.88c-1.07,0.55-2.19,1.17-3.4,1.11c2.57-1.92,4.98-4.05,7.19-6.38c0.25-0.27,0.52-0.58,0.5-0.95
			c-0.01-0.24-0.15-0.46-0.22-0.69c-0.27-0.9,0.47-1.75,1.14-2.4c3.77-3.61,7.53-7.21,11.3-10.82c1.41-1.35,2.84-2.72,3.76-4.44
			c2.01-3.72,0.53-6.79-2.03-9.72c-2.69-3.08-5.89-5.82-7.25-9.82c-0.26-0.75-0.44-1.53-0.81-2.24c-0.98-1.88-2.92-1.74-4.54-2.7
			c-0.83-0.49-1.55-1.15-2.22-1.85c-0.25-0.26-1.49-2.08-1.76-2.07c4.05-0.14,10.85-0.44,12.86-4.59c1.16-2.4,0.61-5.24,0.84-7.9
			c0.25-2.78,1.37-5.6,0.6-8.28c-1.08-3.71-4.88-4.96-7.56-7.21c-3.15-2.65-4.92-6.48-6.2-10.31c-0.59-1.77-1.12-3.59-2.13-5.16
			c-1.15-1.77-2.87-3.1-4.62-4.28c-2.58-1.71-5.32-3.2-8.18-4.41c6.17-0.54,12.49,0.69,18.01,3.51c1.62,0.83,3.29,1.94,3.86,3.67
			c0.64,1.97-0.36,4.1-0.28,6.17C100.41,35.06,100.54,35.69,100.76,36.24z"/>
		
			<linearGradient id="SVGID_00000057838698804804893510000017478273492103538598_" gradientUnits="userSpaceOnUse" x1="59.7783" y1="39.0073" x2="61.1168" y2="12.5053" gradientTransform="matrix(1 0 0 -1 0 149.8898)">
			<stop  offset="0" style="stop-color:#000000"/>
			<stop  offset="0.9994" style="stop-color:#7E2C98;stop-opacity:0"/>
		</linearGradient>
		<path style="fill:url(#SVGID_00000057838698804804893510000017478273492103538598_);" d="M65.92,141.61
			c1.35-0.01,2.73-0.13,3.97-0.68s2.32-1.58,2.65-2.89c0.36-1.46-0.22-3.1,0.43-4.45c1.19-2.48,5.48-2.18,6.46-4.74
			c0.18-0.47,0.22-0.98,0.38-1.46c0.41-1.2,1.53-1.97,2.56-2.71c5.07-3.61,9.47-8.16,12.92-13.35c-2.42,1.61-4.85,3.21-7.27,4.82
			c-4.36,2.89-8.73,5.79-13.31,8.32c-2.41,1.33-5,2.59-7.76,2.59c-0.18-0.58-0.2-1.21-0.05-1.8c-2.38,1.94-4.75,3.87-7.13,5.81
			c-0.33,0.27-0.67,0.54-1.08,0.65c-0.99,0.27-1.94-0.46-2.88-0.88c-2.12-0.95-5.06-0.5-6.37-2.42c-0.33-0.49-0.5-1.07-0.76-1.59
			c-1.06-2.12-3.51-3.13-5.82-3.62c-4.39-0.92-9.38-0.73-12.74-3.7c-0.91-0.8-1.72-1.84-2.9-2.13c-1.04,1.14-1.19,2.84-0.96,4.37
			c0.23,1.52,0.79,2.99,0.94,4.52c0.27,2.74-0.74,5.43-1.73,7.99c3.73-1.02,7.35-2.41,10.8-4.14c0.85-0.43,1.73-0.89,2.68-0.97
			c2.1-0.17,3.85,1.48,5.76,2.38c2.59,1.21,5.92,1.19,7.75,3.39c1.73,2.08,1.77,4.4,4.62,5.22
			C59.98,140.98,62.87,141.62,65.92,141.61z"/>
		
			<linearGradient id="SVGID_00000146481756571211698460000001635611360441033911_" gradientUnits="userSpaceOnUse" x1="-20.9846" y1="89.0591" x2="79.4492" y2="79.0869" gradientTransform="matrix(1 0 0 -1 0 149.8898)">
			<stop  offset="0" style="stop-color:#000000"/>
			<stop  offset="0.9994" style="stop-color:#7E2C98;stop-opacity:0"/>
		</linearGradient>
		<path style="fill:url(#SVGID_00000146481756571211698460000001635611360441033911_);" d="M40.22,121.66
			c-1.44-0.21-2.85-0.66-4.3-0.71c-1.29-0.04-2.64,0.22-3.82-0.28c-0.69-0.29-1.26-0.82-1.81-1.33c-1.85-1.73-3.69-3.46-5.54-5.2
			c-0.86-0.8-1.72-1.62-2.33-2.62c-0.77-1.28-1.07-2.77-1.36-4.24c-0.63-3.23-1.19-6.64,0.24-9.7c1.48-3.17,3.16-6.27,4.13-9.65
			c0.32-1.11,0.56-2.24,0.9-3.34c0.82-2.59,2.25-4.94,2.97-7.57s-0.23-5.31-0.58-7.93c-0.22-1.61-0.43-3.05-0.27-4.69
			c0.14-1.49,0.43-2.96,0.59-4.44c0.34-3.13,1.65-6.1,1.7-9.31c0.03-1.92-0.04-3.75-0.19-5.67c-0.15-2.03-0.21-4.12,0.43-6.08
			c0.98-3.02,2.69-5.75,4.39-8.41c2.87-4.52,6.05-8.55,10.73-11.33c2.27-1.35,4.72-2.36,7.16-3.36c1.16-0.48,2.33-0.96,3.55-1.23
			c3.01-0.68,6.14-0.11,9.19,0.32c3.94,0.56,7.91,0.89,11.89,0.99c-0.32-0.01-1.1,0.66-1.4,0.83c-0.56,0.31-1.14,0.6-1.72,0.86
			c-1.12,0.51-2.28,0.95-3.46,1.3c-2.23,0.67-4.92,1.33-7.27,1.13c-4.08-0.35-9.07,1.4-12.53,3.56c-0.96,0.6-1.86,1.29-2.67,2.07
			c1.4-0.33,2.97,0.23,3.84,1.38c5.04-2.71,11.16-3.32,16.64-1.66c0.55,0.17,1.11,0.36,1.54,0.75c0.72,0.64,0.94,1.67,1.39,2.53
			c0.7,1.34,1.98,2.27,3,3.38c1.02,1.12,1.84,2.68,1.32,4.11c-0.36-0.83-1.27-1.39-2.18-1.35c-0.83,0.04-1.59,0.54-2.43,0.56
			c-1.35,0.03-2.39-1.16-3.05-2.33c-0.28-0.49-0.55-1.02-1.04-1.29c-0.43-0.23-0.95-0.21-1.43-0.18c-5.84,0.35-11.5,1.11-16.96,3.33
			c-3.21,1.31-6.35,2.86-8.43,5.75c-0.14,0.19-0.27,0.4-0.32,0.63c-0.06,0.27,0,0.54,0.03,0.82c0.07,0.61,0,1.22-0.07,1.83
			c-0.37,3.42-0.5,6.98-1.18,10.36c-0.29,1.45-0.82,2.83-1.35,4.21c-0.67,1.75-1.55,3.7-3.32,4.27c-0.55,0.18-1.19,0.23-1.57,0.66
			c-0.38,0.42-0.37,1.04-0.36,1.6c0.16,7.58-2.62,14.31-4.85,21.4c-1.31,4.14-1.86,8.52-1.62,12.85c0.23,4.19,1.32,8.19,3.29,11.93
			c0.5,0.94,1.11,1.91,2.08,2.33c0.14-0.31,0-0.67-0.12-0.99c-0.63-1.63-0.9-3.4-0.8-5.15c0.04-0.74,0.18-1.54,0.72-2.06
			c-0.25,0.24,1.98,2.86,2.22,3.12c0.88,0.94,2.02,1.61,2.88,2.54c1.99,2.13,4.67,3.66,7.22,5.05c1.94,1.06,3.91,2.04,5.84,3.12
			c1.42,0.79,3.7,1.72,4.61,3.07c-1.25,0.58-3.36-0.24-4.71-0.38C46.5,121.47,43.34,122.12,40.22,121.66z"/>
		
			<linearGradient id="SVGID_00000006671090691195159330000017855438281170994843_" gradientUnits="userSpaceOnUse" x1="98.0274" y1="111.4793" x2="61.5972" y2="101.8781" gradientTransform="matrix(1 0 0 -1 0 149.8898)">
			<stop  offset="0" style="stop-color:#000000"/>
			<stop  offset="0.9994" style="stop-color:#7E2C98;stop-opacity:0"/>
		</linearGradient>
		<path style="fill:url(#SVGID_00000006671090691195159330000017855438281170994843_);" d="M68.1,32.64
			c2.55,4.06,4.07,8.69,4.98,13.4c0.24,1.24,0.44,2.49,0.88,3.67c0.44,1.18,1.15,2.3,2.2,3c0.99,0.66,2.2,0.88,3.29,1.36
			c1,0.43,1.9,1.07,2.78,1.7c0.52,0.37,1.05,0.75,1.57,1.12c-1.08-1.54-2.2-3.16-2.47-5.02c-0.2-1.38,0.07-2.87-0.55-4.12
			c-0.38-0.77-1.04-1.35-1.69-1.91c-0.37-0.32-0.74-0.64-0.99-1.06c-0.26-0.43-0.36-0.93-0.48-1.42C76.97,40.58,76,37.88,75,35.21
			c-0.85-2.27-1.7-3.58-4.22-3.66C69.95,31.52,67.03,30.92,68.1,32.64z"/>
		
			<linearGradient id="SVGID_00000010291141544260607520000006287419391520401033_" gradientUnits="userSpaceOnUse" x1="65.7603" y1="-3.1992" x2="66.7826" y2="31.3904" gradientTransform="matrix(1 0 0 -1 0 149.8898)">
			<stop  offset="0" style="stop-color:#000000"/>
			<stop  offset="0.9994" style="stop-color:#7E2C98;stop-opacity:0"/>
		</linearGradient>
		<path style="fill:url(#SVGID_00000010291141544260607520000006287419391520401033_);" d="M58.18,135.13
			c-0.26-0.08-1.55-0.78-1.7-0.52c-0.07,0.12-0.03,0.26,0.01,0.39c0.24,0.64,0.76,1.2,0.75,1.89c-0.01,0.84-0.81,1.49-0.87,2.33
			c-0.14,1.87,2.84,1.84,4.06,2.08c2.33,0.45,4.61,0.62,6.98,0.43c2.03-0.16,4.35-0.86,5.05-2.76c0.95-2.57-1.44-5.24,1.57-6.77
			c0.8-0.41,1.68-0.74,2.25-1.42c-0.35-0.57-1.21-0.39-1.81-0.11c-2.1,0.99-4.16,2.15-5.66,3.89c-1.6,1.87-3.39,3.57-5.33,5.09
			c-0.27,0.21-0.66,0.42-0.93,0.21c-0.23-0.19-0.17-0.56-0.05-0.84c0.39-0.9,0.97-1.6,1.29-2.54c0.1-0.31,0.11-0.7-0.14-0.9
			c-0.22-0.17-0.53-0.14-0.8-0.1C61.37,135.65,59.61,135.57,58.18,135.13z"/>
		
			<linearGradient id="SVGID_00000172400112440076729530000000610890771122802618_" gradientUnits="userSpaceOnUse" x1="98.6965" y1="18.8001" x2="106.657" y2="39.0452" gradientTransform="matrix(1 0 0 -1 0 149.8898)">
			<stop  offset="0" style="stop-color:#000000"/>
			<stop  offset="0.9994" style="stop-color:#7E2C98;stop-opacity:0"/>
		</linearGradient>
		<path style="fill:url(#SVGID_00000172400112440076729530000000610890771122802618_);" d="M86.34,127.71
			c4.84-3.77,8.99-8.44,14.16-11.75c0.02,1.13,1.36,1.86,2.47,1.68s2.02-0.98,2.85-1.74c4.43-4.04,8.93-8.2,14.43-10.6
			c-1.27,1.43-2.54,2.85-3.81,4.28c-1.25,1.4-2.59,3.09-2.25,4.94c0.29,1.59,1.76,2.71,3.28,3.25c1.52,0.55,3.16,0.68,4.69,1.19
			c0.45,0.15,0.96,0.43,0.98,0.9c0.01,0.22-0.1,0.42-0.23,0.6c-0.7,0.9-2,1.03-3.13,0.98c-2.85-0.11-5.67-0.81-8.52-0.85
			c-3.07-0.04-6.09,0.69-9.03,1.56c-6.83,2.03-13.42,4.87-19.59,8.44c-0.65,0.38-1.32,0.77-2.06,0.91
			c-0.66,0.12-1.51,0.04-1.93-0.52c0.93-0.55,2.78-0.41,3.95-0.93C83.95,129.47,85.18,128.61,86.34,127.71z"/>
		
			<linearGradient id="SVGID_00000067923960306630414340000007073440909747053194_" gradientUnits="userSpaceOnUse" x1="30.3924" y1="29.8088" x2="44.0298" y2="50.0664" gradientTransform="matrix(1 0 0 -1 0 149.8898)">
			<stop  offset="0" style="stop-color:#842E9F"/>
			<stop  offset="0.9988" style="stop-color:#CC79E6;stop-opacity:0"/>
		</linearGradient>
		<path style="fill:url(#SVGID_00000067923960306630414340000007073440909747053194_);" d="M29.96,97.42c1.09,1.67,2.62,3,4.14,4.3
			c6.56,5.64,13.12,11.28,19.67,16.91c-5.36-3.34-10.71-6.68-16.07-10.02c-2.27-1.42-4.59-2.87-6.28-4.95
			c-0.48-0.58-0.91-1.22-1.53-1.65s-1.5-0.6-2.12-0.16c-0.14,0.1-1.04-5.15-1.03-5.67c0.02-1.91,0.32-4.17,1.28-5.85
			c1.17,0.65,0.57,1.95,0.59,3.01C28.63,94.8,29.17,96.22,29.96,97.42z"/>
		
			<linearGradient id="SVGID_00000110458404280170222820000003896431789172075190_" gradientUnits="userSpaceOnUse" x1="99.4752" y1="13.8619" x2="58.58" y2="66.0653" gradientTransform="matrix(1 0 0 -1 0 149.8898)">
			<stop  offset="0" style="stop-color:#842E9F"/>
			<stop  offset="0.9988" style="stop-color:#CC79E6;stop-opacity:0"/>
		</linearGradient>
		<path style="fill:url(#SVGID_00000110458404280170222820000003896431789172075190_);" d="M78.28,115.32
			c5.34-2.56,11.02-5.44,13.81-10.67c2.87-5.37,1.98-10.91,0.24-16.43c-0.59-1.87-1.03-3.8-1.3-5.75c-0.05-0.32,0.05-0.79,0.37-0.75
			c0.11,0.01,0.2,0.09,0.28,0.17c1.36,1.24,2.72,2.49,4.07,3.73c1.19,1.09,2.4,2.2,3.36,3.5c2.29,3.11,3.01,7.12,3.05,10.98
			c0.02,1.83-0.12,3.72-0.98,5.33c-0.76-0.83-1.62-1.4-2.64-1.9c-0.81,1.75-2.32,3.07-3.83,4.29c-7.99,6.45-17.07,11.56-26.73,15.03
			c-3.86,1.39-8.05,2.68-10.61,5.88c0.39-0.49,0.42-1.78,0.77-2.41c0.42-0.75,0.99-1.39,1.66-1.92c1.64-1.32,3.9-2.08,5.8-2.99
			C69.82,119.38,74.05,117.35,78.28,115.32z"/>
		
			<linearGradient id="SVGID_00000142141193582572690040000002090325403203338400_" gradientUnits="userSpaceOnUse" x1="102.8115" y1="80.6333" x2="83.5472" y2="104.2574" gradientTransform="matrix(1 0 0 -1 0 149.8898)">
			<stop  offset="0" style="stop-color:#842E9F"/>
			<stop  offset="0.9988" style="stop-color:#CC79E6;stop-opacity:0"/>
		</linearGradient>
		<path style="fill:url(#SVGID_00000142141193582572690040000002090325403203338400_);" d="M83.59,44.68
			c2.2,3.54,4.37,7.16,5.98,11.01c1.2,2.87,1.93,6,3.83,8.46c0.77,1,2.13,1.91,3.2,1.24c0.87-0.55,0.93-1.8,0.72-2.81
			c-0.35-1.75-1.14-3.37-1.93-4.98c-1.3-2.65-2.96-5.08-4.58-7.57c-0.84-1.29-1.68-2.59-2.71-3.74c-0.87-0.97-1.87-1.82-2.76-2.78
			c-1.96-2.1-3.36-4.67-4.3-7.39c-0.26,2.46,0.32,4.99,1.63,7.09C82.98,43.7,83.28,44.19,83.59,44.68z"/>
		
			<linearGradient id="SVGID_00000039115493284177912600000007081886670691859634_" gradientUnits="userSpaceOnUse" x1="62.7666" y1="116.6769" x2="48.7126" y2="138.9695" gradientTransform="matrix(1 0 0 -1 0 149.8898)">
			<stop  offset="0" style="stop-color:#842E9F"/>
			<stop  offset="0.9988" style="stop-color:#CC79E6;stop-opacity:0"/>
		</linearGradient>
		<path style="fill:url(#SVGID_00000039115493284177912600000007081886670691859634_);" d="M46.45,23.55
			c0.26-0.01,0.53-0.01,0.77-0.1c0.36-0.13,0.63-0.44,0.89-0.73c1.02-1.08,2.3-1.88,3.59-2.61c6.26-3.57,13.17-5.98,20.29-7.08
			c0.05-0.61-0.42-1.18-0.99-1.42s-1.21-0.22-1.82-0.18c-5.2,0.36-10.16,2.25-14.99,4.2c-2.31,0.93-4.6,1.88-6.9,2.84
			c-1.52,0.64-3.06,1.3-4.4,2.27c-1.43,1.03-2.57,2.38-3.64,3.76c-0.67,0.86-2.11,2.22-2.07,3.38
			C40.31,26.12,42.59,23.68,46.45,23.55z"/>
		
			<linearGradient id="SVGID_00000017507038673131502090000007014554295088304301_" gradientUnits="userSpaceOnUse" x1="115.9009" y1="123.1521" x2="104.84" y2="100.2761" gradientTransform="matrix(1 0 0 -1 0 149.8898)">
			<stop  offset="0" style="stop-color:#842E9F"/>
			<stop  offset="0.9988" style="stop-color:#CC79E6;stop-opacity:0"/>
		</linearGradient>
		<path style="fill:url(#SVGID_00000017507038673131502090000007014554295088304301_);" d="M108.14,33.88
			c0.06,0.33,0.1,0.68,0.24,0.98c0.16,0.36,0.45,0.64,0.72,0.92c3.82,3.93,6.27,9.18,6.84,14.63c-0.73-0.71-1.38-1.51-2.03-2.3
			c-1.58-1.92-3.17-3.85-4.75-5.77c-0.36-0.44-0.73-0.89-0.89-1.44c-0.25-0.87,0.08-1.79,0.06-2.69c-0.01-0.75-0.27-1.48-0.53-2.19
			c-1.04-2.9-2.09-5.83-3.83-8.36c0.23,0.34,1.13,0.61,1.47,0.98c0.37,0.4,0.7,0.89,1.01,1.33
			C107.31,31.15,107.89,32.47,108.14,33.88z"/>
		
			<linearGradient id="SVGID_00000071522378636849066230000009572454192427278494_" gradientUnits="userSpaceOnUse" x1="69.6664" y1="80.8194" x2="108.5687" y2="85.2513" gradientTransform="matrix(1 0 0 -1 0 149.8898)">
			<stop  offset="0" style="stop-color:#842E9F"/>
			<stop  offset="0.9988" style="stop-color:#CC79E6;stop-opacity:0"/>
		</linearGradient>
		<path style="fill:url(#SVGID_00000071522378636849066230000009572454192427278494_);" d="M86.41,66.66
			c0.39,0.66,0.81,1.33,1.38,1.85c0.66,0.6,1.5,0.96,2.32,1.31c3.1,1.33,6.2,2.66,9.29,3.98c-1.96,0.01-3.93,0.17-5.86,0.48
			c-1.69,0.27-3.6,0.61-4.99-0.39c-0.81-0.58-1.27-1.52-1.69-2.42c-1.02-2.18-1.94-4.41-2.77-6.67c-0.58-1.58-1.64-3.61-1.49-5.32
			C83.98,61.77,85.03,64.33,86.41,66.66z"/>
		
			<linearGradient id="SVGID_00000001642248635756149310000007550284009697199031_" gradientUnits="userSpaceOnUse" x1="103.2452" y1="57.9537" x2="114.96" y2="57.9537" gradientTransform="matrix(1 0 0 -1 0 149.8898)">
			<stop  offset="0" style="stop-color:#842E9F"/>
			<stop  offset="0.9988" style="stop-color:#CC79E6;stop-opacity:0"/>
		</linearGradient>
		<path style="fill:url(#SVGID_00000001642248635756149310000007550284009697199031_);" d="M106.34,88.52
			c1.66,1.7,3.53,3.22,4.84,5.2c1.29,1.95,1.97,4.3,1.93,6.63c0.47-1.36,0.94-2.72,1.41-4.08c0.22-0.63,0.44-1.28,0.44-1.95
			c0-1.2-0.73-2.29-1.6-3.13c-1.64-1.59-3.8-2.53-5.65-3.86c-0.67-0.49-3.68-4.09-4.27-3.79C102.4,84.05,105.84,88.01,106.34,88.52z
			"/>
		<g>
			<path d="M64.79,142.82c-1.36,0-2.6-0.13-3.48-0.3c-0.14-0.03-0.34-0.06-0.58-0.09c-2.1-0.31-4.23-0.71-5.14-1.95
				c-0.35-0.47-0.48-1.02-0.39-1.6c0.1-0.62,0.44-1.06,0.72-1.41c0.13-0.16,0.24-0.31,0.3-0.43c0.13-0.27,0.06-0.71-0.19-1.12
				c-0.5-0.83-1.53-1.39-2.64-1.44c-0.26-0.01-0.52,0-0.79,0.01c-0.28,0.01-0.56,0.02-0.83,0.02c-1.32-0.03-2.53-0.47-3.32-0.79
				c-0.7-0.29-1.33-0.46-2.07-0.66L46.17,133c-2-0.54-3.96-1.33-5.85-2.08l-1.12-0.44c-1.75-0.67-3.56-1.37-4.93-3.02l-0.16-0.19
				c-0.15-0.19-0.29-0.37-0.41-0.44c-0.18-0.11-0.58-0.1-0.77-0.1c-0.74,0.02-1.49,0.09-2.21,0.22c-0.54,0.1-1.06-0.26-1.16-0.81
				c-0.1-0.54,0.26-1.06,0.81-1.16c0.83-0.15,1.68-0.24,2.53-0.25c0.6-0.01,1.24,0.02,1.84,0.38c0.44,0.26,0.73,0.62,0.96,0.91
				l0.13,0.16c1.04,1.25,2.53,1.82,4.11,2.43l1.15,0.45c1.84,0.74,3.75,1.5,5.64,2.01l0.21,0.06c0.76,0.21,1.48,0.4,2.3,0.73
				c1.03,0.42,1.86,0.62,2.61,0.64c0.24,0.01,0.47,0,0.7-0.01c0.32-0.01,0.64-0.03,0.96-0.01c1.78,0.08,3.42,1,4.26,2.41
				c0.6,1,0.71,2.12,0.28,3.01c-0.15,0.33-0.36,0.58-0.54,0.81c-0.13,0.17-0.3,0.37-0.31,0.47c-0.01,0.04-0.01,0.05,0.03,0.1
				c0.5,0.67,3,1.04,3.82,1.16c0.27,0.04,0.49,0.07,0.65,0.1c2.52,0.47,7.29,0.49,9.41-1.44c0.81-0.74,1.15-1.71,1.03-2.96
				c-0.02-0.2-0.05-0.41-0.09-0.61c-0.11-0.69-0.24-1.48,0.05-2.29c0.17-0.46,0.45-0.88,0.9-1.32c1.46-1.45,3.54-2.17,5.58-1.92
				c0.32,0.04,0.64,0.1,0.96,0.17c0.38,0.08,0.74,0.15,1.08,0.17c0.72,0.04,1.46-0.42,2.23-0.91l0.19-0.12
				c1.05-0.66,2.16-1.21,3.24-1.75l0.31-0.16c2.17-1.08,4.16-2,6.07-2.81c10.12-4.28,19.36-5.67,27.47-4.13
				c0.46,0.09,0.83-0.08,1.49-0.41c0.37-0.19,0.8-0.4,1.29-0.55c1.44-0.44,2.91-0.3,4.29-0.07c0.24,0.04,0.47,0.08,0.71,0.13
				c0.41,0.08,0.79,0.16,1.15,0.18c0.45,0.03,1.1-0.02,1.26-0.08c0.52-0.19,1.09,0.08,1.28,0.6s-0.08,1.09-0.6,1.28
				c-0.63,0.23-1.71,0.21-2.07,0.19c-0.49-0.03-0.96-0.13-1.4-0.21c-0.21-0.04-0.43-0.08-0.64-0.12c-1.32-0.21-2.4-0.29-3.39,0.01
				c-0.33,0.1-0.65,0.26-0.98,0.43c-0.76,0.38-1.61,0.81-2.76,0.59c-7.71-1.46-16.57-0.12-26.32,4.01c-1.87,0.79-3.82,1.7-5.95,2.76
				l-0.31,0.16c-1.08,0.54-2.09,1.04-3.06,1.65l-0.19,0.12c-0.91,0.57-2.04,1.27-3.4,1.22c-0.49-0.02-0.94-0.12-1.38-0.2
				c-0.27-0.05-0.54-0.11-0.81-0.14c-1.41-0.17-2.92,0.35-3.93,1.35c-0.23,0.23-0.37,0.42-0.43,0.59c-0.12,0.32-0.04,0.76,0.04,1.28
				c0.04,0.25,0.08,0.5,0.11,0.75c0.18,1.86-0.4,3.46-1.67,4.62C70.53,142.33,67.43,142.82,64.79,142.82z"/>
		</g>
		<g>
			<path d="M137.98,126.7c-0.52,0-1.1-0.1-1.74-0.3c-1.31-0.41-2.68-0.72-4.13-1.04c-2.52-0.57-5.12-1.15-7.43-2.3
				c-0.23-0.12-0.48-0.25-0.73-0.4c-0.6-0.34-1.32-0.76-1.8-0.71c-0.55,0.06-1.04-0.34-1.1-0.89s0.34-1.04,0.89-1.1
				c1.09-0.11,2.15,0.49,2.99,0.96c0.22,0.12,0.43,0.25,0.63,0.35c2.09,1.04,4.58,1.6,6.98,2.14c1.42,0.32,2.9,0.65,4.28,1.08
				c0.87,0.27,1.51,0.28,1.76,0.01c0.14-0.14,0.23-0.44,0.31-0.74c0.63-2.37,1.26-6.79-1.54-9.8l-0.5-0.53
				c-1.6-1.69-3.59-3.79-3.58-6.58c0-0.3,0.01-0.61,0.02-0.92c0.03-0.91,0.06-1.76-0.19-2.51c-0.21-0.64-0.63-1.24-1.07-1.87
				c-0.27-0.38-0.53-0.76-0.76-1.15c-0.44-0.75-0.76-1.54-1.06-2.3c-0.19-0.48-0.38-0.96-0.61-1.42c-0.7-1.44-1.7-2.71-2.76-4.05
				c-0.62-0.79-1.26-1.6-1.84-2.45c-2.88-4.25-2.07-8.23-1-11.93c0.36-1.25,0.8-2.51,1.23-3.73c1.22-3.5,2.38-6.8,1.93-10.19
				c-0.18-1.36-0.95-2.61-1.76-3.94c-1.34-2.18-2.86-4.66-1.28-7.68c0.23-0.44,0.49-0.86,0.75-1.28c0.45-0.73,0.88-1.43,1.09-2.17
				c0.43-1.49-0.01-3.45-1.34-6.01c-0.98-1.88-2.38-3.59-4.05-4.94c-1.78-1.44-3.81-2.48-5.97-3.58c-2.24-1.14-4.55-2.32-6.54-3.99
				c-1.37-1.15-2.54-2.49-3.67-3.78c-0.71-0.81-1.44-1.65-2.2-2.42c-1.95-1.96-4.22-3.56-6.75-4.78c-1.27-0.61-2.6-1.11-3.94-1.49
				c-0.16-0.05-0.33-0.08-0.5-0.12c-0.51-0.12-1.08-0.25-1.62-0.57c-0.2-0.12-0.4-0.24-0.6-0.37c-0.29-0.19-0.57-0.37-0.86-0.5
				c-0.5-0.24-0.71-0.83-0.47-1.33s0.83-0.71,1.33-0.47c0.41,0.19,0.75,0.41,1.08,0.63c0.17,0.11,0.34,0.22,0.52,0.32
				c0.28,0.16,0.66,0.25,1.07,0.35c0.2,0.05,0.39,0.09,0.58,0.15c1.45,0.41,2.88,0.95,4.26,1.61c2.73,1.31,5.19,3.05,7.3,5.17
				c0.81,0.81,1.56,1.67,2.29,2.51c1.13,1.29,2.2,2.52,3.45,3.56c1.82,1.52,3.93,2.6,6.17,3.74c2.15,1.1,4.38,2.23,6.32,3.8
				c1.88,1.52,3.45,3.45,4.56,5.57c1.01,1.94,2.26,4.82,1.49,7.49c-0.29,1-0.81,1.84-1.31,2.66c-0.23,0.38-0.47,0.76-0.68,1.16
				c-1,1.93-0.19,3.43,1.21,5.71c0.89,1.44,1.8,2.94,2.04,4.72c0.51,3.87-0.78,7.55-2.03,11.12c-0.42,1.19-0.85,2.42-1.19,3.62
				c-1.21,4.17-1.44,7.04,0.74,10.26c0.54,0.79,1.16,1.58,1.75,2.33c1.08,1.37,2.2,2.78,2.99,4.42c0.24,0.5,0.45,1.03,0.66,1.55
				c0.29,0.73,0.57,1.41,0.93,2.03c0.21,0.35,0.44,0.68,0.68,1.02c0.51,0.73,1.04,1.48,1.34,2.4c0.35,1.08,0.32,2.15,0.28,3.19
				c-0.01,0.29-0.02,0.57-0.02,0.85c0,1.99,1.54,3.62,3.04,5.2l0.51,0.54c3.46,3.72,2.74,8.91,2.01,11.68
				c-0.15,0.56-0.34,1.13-0.79,1.61C139.53,126.43,138.84,126.7,137.98,126.7z"/>
		</g>
		<g>
			<path d="M25.97,135.47c-0.07,0-0.14,0-0.21-0.02c-0.36-0.06-0.68-0.26-0.88-0.58c-0.35-0.56-0.21-1.23-0.14-1.49
				c0.44-1.5,0.91-3.11,1.48-4.78c0.54-1.57,0.43-3.32-0.34-5.51c-0.55-1.57-1.28-3.69-0.11-5.38c0.1-0.14,0.21-0.28,0.32-0.41
				c0.1-0.12,0.27-0.32,0.29-0.39c0-0.03-0.04-0.2-0.57-0.66l-3.82-3.3c-0.39-0.34-0.89-0.76-1.23-1.34
				c-0.34-0.59-0.47-1.23-0.58-1.83c-0.42-2.49-0.62-5.03-0.61-7.55c0.01-1.49,0.09-3.23,0.63-4.92c0.33-1.04,0.82-1.99,1.28-2.91
				l0.3-0.59c1.24-2.5,2.23-5.14,2.94-7.84c0.54-2.06,1.28-3.76,2.05-5.55l0.45-1.04c0.61-1.43,1.3-3.05,1.34-4.66
				c0.02-1.06-0.23-2.13-0.5-3.26c-0.12-0.49-0.23-0.99-0.33-1.49c-0.85-4.46,0.03-8.92,0.88-13.24c0.63-3.19,1.28-6.49,1.2-9.69
				c-0.02-0.73-0.07-1.46-0.13-2.19c-0.11-1.45-0.22-2.95-0.06-4.46c0.41-3.78,2.48-7.08,4.3-9.98c2.11-3.37,4.3-6.86,7.49-9.52
				c3.13-2.61,7.01-4.18,10.43-5.56c2.92-1.18,5.85-2.36,8.77-3.53c3.12-1.25,6.66-2.67,10.36-2.95
				c8.79-0.67,16.61,4.86,23.87,10.59c0.43,0.34,0.51,0.97,0.16,1.4c-0.34,0.43-0.97,0.51-1.4,0.16
				c-7.23-5.71-14.39-10.79-22.47-10.16c-3.4,0.26-6.64,1.56-9.77,2.82c-2.92,1.17-5.85,2.35-8.77,3.53
				c-3.29,1.33-7.01,2.83-9.9,5.24c-2.94,2.45-5.04,5.8-7.08,9.04c-1.71,2.72-3.64,5.81-4.01,9.13c-0.15,1.33-0.04,2.67,0.06,4.09
				c0.06,0.76,0.12,1.53,0.13,2.29c0.09,3.43-0.59,6.84-1.24,10.13c-0.85,4.32-1.66,8.4-0.88,12.48c0.09,0.47,0.2,0.93,0.31,1.4
				c0.28,1.2,0.58,2.45,0.55,3.76c-0.04,1.99-0.85,3.88-1.49,5.4l-0.45,1.05c-0.78,1.79-1.45,3.34-1.95,5.26
				c-0.75,2.83-1.78,5.6-3.09,8.22l-0.31,0.61c-0.45,0.89-0.88,1.73-1.16,2.62c-0.46,1.43-0.53,2.99-0.54,4.32
				c-0.02,2.41,0.18,4.83,0.58,7.2c0.08,0.46,0.15,0.86,0.33,1.16c0.17,0.29,0.5,0.57,0.81,0.84l3.82,3.3
				c0.43,0.37,1.43,1.23,1.24,2.46c-0.09,0.62-0.46,1.06-0.73,1.39c-0.07,0.09-0.15,0.18-0.22,0.27c-0.59,0.85-0.09,2.29,0.35,3.55
				c0.92,2.63,1.03,4.86,0.35,6.84c-0.47,1.37-0.87,2.7-1.24,3.97l1.4-0.37c0.7-0.18,1.42-0.37,2.05-0.66
				c0.43-0.19,0.84-0.44,1.27-0.7l0.39-0.23c1.01-0.59,2.08-1.12,3.16-1.56c1.4-0.57,3.52-1.43,5.47-0.79
				c0.52,0.17,0.81,0.74,0.63,1.26c-0.17,0.52-0.74,0.81-1.26,0.63c-1.15-0.38-2.65,0.16-4.09,0.74c-1,0.4-1.97,0.88-2.9,1.43
				l-0.37,0.22c-0.47,0.28-0.95,0.57-1.48,0.81c-0.79,0.36-1.6,0.57-2.38,0.77l-2.37,0.62C26.32,135.43,26.16,135.47,25.97,135.47z"
				/>
		</g>
		<g>
			<g>
				<path d="M60.86,124.17c-0.1,0-0.21-0.03-0.3-0.1c-10.21-7.64-20.14-15.29-29.46-24.88c-1.26-1.29-2.42-2.59-2.82-4.29
					c-0.31-1.32-0.1-2.66,0.14-3.93c1.19-6.21,3.28-12.41,5.3-18.39c3.5-10.36,7.11-21.07,5.97-31.92c-0.02-0.15,0.04-0.3,0.15-0.41
					c2.07-2.03,4.43-3.72,7.01-5.04c5.95-3.06,12.63-3.68,18.52-4.22c2.74-0.25,5.62-0.3,8.06,1.07c0.3,0.17,1.51,2.53,1.41,2.93
					c-0.07,0.27-0.34,0.42-0.61,0.36c-0.21-0.05-0.36-0.24-0.38-0.45c-0.1-0.31-0.77-1.68-0.99-2.02c-2.19-1.19-4.85-1.13-7.4-0.9
					c-5.8,0.54-12.38,1.15-18.15,4.12c-2.42,1.24-4.63,2.82-6.59,4.7c1.08,10.98-2.54,21.72-6.04,32.1
					c-2.01,5.96-4.09,12.11-5.26,18.26c-0.22,1.16-0.42,2.38-0.15,3.51c0.35,1.45,1.41,2.64,2.56,3.82
					c9.28,9.54,18.77,16.87,29.34,24.77c0.22,0.17,0.27,0.48,0.1,0.7C61.16,124.1,61.01,124.17,60.86,124.17z"/>
			</g>
			<g>
				<path d="M57.6,127.59c-0.08,0-0.16-0.02-0.24-0.06c-0.24-0.13-0.33-0.44-0.2-0.68c1.62-2.98,4.98-4.43,7.94-5.72l0.23-0.1
					c2.42-1.05,4.84-2.21,7.18-3.33c2.59-1.24,5.2-2.49,7.73-3.81c2.7-1.41,5.54-3.01,7.93-5.14c2.03-1.81,3.52-3.81,4.43-5.94
					c0.94-2.2,0.89-4.92,0.7-7.54c-0.44-5.95-2.54-11.76-4.47-16.74L80.3,56.59c-0.86-2.22-1.55-2.32-2.5-2.45
					c-1.01-0.14-2.26-0.32-3.7-2.68c-0.15-0.24-0.31-0.92-0.76-2.86c-1.05-4.5-3.85-16.45-6.74-16.63
					c-0.28-0.02-0.49-0.25-0.47-0.53s0.25-0.5,0.53-0.47c3.19,0.2,5.56,8.48,7.65,17.4c0.29,1.23,0.56,2.39,0.65,2.58
					c1.18,1.95,2.05,2.07,2.98,2.2c1.3,0.18,2.3,0.51,3.29,3.08l8.52,21.95c1.96,5.05,4.09,10.94,4.53,17.03
					c0.2,2.74,0.25,5.6-0.77,8c-0.96,2.27-2.54,4.38-4.68,6.29c-2.48,2.21-5.38,3.84-8.14,5.28c-2.54,1.32-5.16,2.58-7.69,3.79
					c-2.42,1.16-4.85,2.32-7.28,3.38l-0.24,0.1c-2.95,1.28-6,2.61-7.46,5.28C57.95,127.49,57.77,127.59,57.6,127.59z"/>
			</g>
		</g>
		<g>
			<path d="M114.77,50.21c1.69,1.95,3.61,3.69,5.72,5.18c0.97,0.68,2.01,1.26,2.92,2.04c0.99,0.84,1.88,1.8,2.56,2.92
				c0.33,0.55,1.2,0.05,0.86-0.5c-0.65-1.08-1.5-2.04-2.43-2.88c-0.9-0.81-1.92-1.43-2.92-2.1c-2.23-1.5-4.24-3.32-6-5.35
				C115.06,49.02,114.35,49.73,114.77,50.21L114.77,50.21z"/>
		</g>
		<g>
			<path d="M39.14,122.01c-1.32-0.19-2.64-0.38-3.96-0.56c-1.13-0.16-2.53-0.11-3.47-0.8c-0.83-0.62-1.15-1.61-1.8-2.39
				c-0.37-0.43-0.85-0.73-1.26-1.11c-0.46-0.43-0.87-0.92-1.28-1.4c-0.41-0.49-1.12,0.22-0.71,0.71c0.41,0.48,0.81,0.97,1.28,1.4
				c0.44,0.41,0.95,0.71,1.32,1.18c0.37,0.47,0.61,1.02,0.94,1.52c0.26,0.4,0.63,0.68,1.01,0.96c0.96,0.71,2.21,0.69,3.36,0.86
				c1.44,0.2,2.87,0.41,4.31,0.61C39.5,123.07,39.77,122.1,39.14,122.01L39.14,122.01z"/>
		</g>
		<g>
			<path d="M65.8,125.57c-2.38,1.29-4.43,3.12-6,5.33c-0.19,0.26,0.25,0.51,0.43,0.25c1.52-2.14,3.52-3.9,5.82-5.15
				C66.34,125.85,66.09,125.42,65.8,125.57L65.8,125.57z"/>
		</g>
		<g>
			<path d="M40.82,123.14c1.22,0.26,2.39,0.69,3.46,1.31c0.61,0.35,0.96,0.69,0.98,1.42c0.02,0.58,0.05,1.14,0.18,1.71
				c0.26,1.15,0.77,2.23,1.28,3.29c0.4,0.84,0.88,1.68,1.76,2.1c0.29,0.14,0.54-0.29,0.25-0.43c-1-0.47-1.43-1.59-1.87-2.54
				c-0.57-1.23-1.08-2.51-1.1-3.89c-0.01-0.49-0.01-0.97-0.32-1.38c-0.28-0.38-0.73-0.61-1.13-0.84c-1.05-0.58-2.18-0.99-3.36-1.24
				C40.63,122.59,40.5,123.07,40.82,123.14L40.82,123.14z"/>
		</g>
		<g>
			<path d="M113.77,47.92c-2.13-3.47-5.16-6.36-8.74-8.29c-0.94-0.51-1.94-0.86-2.89-1.33c-1.18-0.59-1.33-1.7-1.26-2.9
				c0.07-1.25,0.17-2.5,0.25-3.75c0.07-1.09,0.17-2.2-0.2-3.25c-0.39-1.1-1.14-2.02-1.89-2.91c-0.91-1.07-1.83-2.14-2.74-3.21
				c-0.21-0.25-0.56,0.11-0.35,0.35c0.79,0.93,1.58,1.85,2.38,2.78c0.74,0.87,1.53,1.74,1.99,2.79c0.54,1.21,0.37,2.52,0.29,3.8
				c-0.08,1.19-0.19,2.39-0.24,3.58c-0.03,0.82,0.03,1.71,0.55,2.39c0.6,0.79,1.68,1.04,2.53,1.43c1.9,0.87,3.67,2,5.26,3.35
				c1.82,1.55,3.37,3.38,4.62,5.41C113.51,48.45,113.94,48.2,113.77,47.92L113.77,47.92z"/>
		</g>
		<g>
			<path d="M83.58,45.05c3.49,4.8,5.63,10.36,7.71,15.87c0.11,0.3,0.6,0.17,0.48-0.13c-2.1-5.55-4.25-11.16-7.76-15.99
				C83.82,44.54,83.39,44.79,83.58,45.05L83.58,45.05z"/>
		</g>
		<g>
			<path d="M101.35,79.69c0.68,2.47,1.78,4.83,3.26,6.92c1.51,2.13,3.48,3.83,5.18,5.79c1.74,2,3.29,4.66,2.78,7.42
				c-0.26,1.41-1.12,2.53-2.08,3.56c-0.99,1.07-2.01,2.11-3.05,3.13c-2.38,2.34-4.85,4.58-7.33,6.81c-0.24,0.22,0.12,0.57,0.35,0.35
				c2.3-2.08,4.6-4.15,6.82-6.31c1.08-1.05,2.14-2.12,3.18-3.22c0.86-0.92,1.74-1.87,2.24-3.04c1-2.36,0.22-5.07-1.1-7.15
				c-1.44-2.26-3.55-3.97-5.29-5.98c-2.11-2.43-3.63-5.32-4.48-8.42C101.75,79.25,101.27,79.38,101.35,79.69L101.35,79.69z"/>
		</g>
		<g>
			<path d="M92.04,62.73c0.78,1.62,3.45,4.93,5.28,2.59c0.77-0.97,0.62-2.25,0.24-3.35c-0.46-1.35-1.09-2.65-1.74-3.92
				c-2.63-5.14-6.25-9.69-9.98-14.06c-2.02-2.36-4.23-4.91-4.54-8.13c-0.03-0.32-0.53-0.32-0.5,0c0.23,2.36,1.41,4.39,2.83,6.23
				c1.54,2,3.25,3.86,4.83,5.82c3.34,4.16,6.44,8.65,8.42,13.63c0.3,0.77,0.61,1.61,0.48,2.45c-0.11,0.74-0.6,1.48-1.39,1.57
				c-1.59,0.19-2.91-1.88-3.49-3.1C92.33,62.19,91.9,62.44,92.04,62.73L92.04,62.73z"/>
		</g>
		<g>
			<path d="M40.53,41.67c-0.34-1.03-0.67-2.07-1.01-3.1c-0.15-0.47-0.42-1-0.49-1.49c-0.03-0.21-0.08-0.1,0.04-0.39
				c0.14-0.32,0.03-0.22,0.41-0.29c0.2-0.03,0.39-0.06,0.58-0.12c1.52-0.46,2.62-1.84,3.51-3.07c0.22-0.3,0.43-0.62,0.51-0.99
				c0.12-0.51-0.11-0.95,0.27-1.39c0.29-0.33,0.82-0.58,1.19-0.82c0.43-0.28,0.86-0.54,1.3-0.8c1.74-1.02,3.57-1.89,5.46-2.6
				c2.11-0.8,4.3-1.39,6.52-1.79c0.32-0.06,0.18-0.54-0.13-0.48c-4.15,0.74-8.16,2.19-11.82,4.27c-0.9,0.51-1.81,1.04-2.64,1.66
				c-0.23,0.17-0.45,0.36-0.56,0.63c-0.19,0.46,0.02,0.95-0.16,1.42c-0.33,0.86-1.18,1.72-1.84,2.35c-0.34,0.33-0.72,0.64-1.14,0.86
				c-0.5,0.27-1,0.26-1.52,0.43c-0.92,0.3-0.46,1.28-0.25,1.93c0.42,1.3,0.85,2.6,1.27,3.91C40.15,42.11,40.63,41.98,40.53,41.67
				L40.53,41.67z"/>
		</g>
		<g>
			<path d="M66.17,24.94c1.47,0.28,2.91,0.71,4.3,1.27c0.3,0.12,0.43-0.36,0.13-0.48c-1.39-0.56-2.83-0.99-4.3-1.27
				C65.99,24.4,65.86,24.88,66.17,24.94L66.17,24.94z"/>
		</g>
		<g>
			<path d="M122.61,118.35c-1.91-0.77-4.71-2.2-4.83-4.56c-0.05-1,0.38-2.02,1.13-2.69c0.81-0.73,1.93-0.89,2.96-1.1
				c4.38-0.91,6.53-4.71,8.09-8.56c0.12-0.3-0.36-0.43-0.48-0.13c-1.45,3.56-3.47,7.29-7.54,8.17c-1.55,0.33-3.09,0.6-4.02,2.03
				c-0.76,1.18-0.86,2.7-0.15,3.92c0.97,1.67,2.99,2.71,4.71,3.41C122.77,118.96,122.9,118.47,122.61,118.35L122.61,118.35z"/>
		</g>
		<path class="st16" d="M85.63,64.84c-0.03-0.17-0.08-0.32-0.19-0.46c-0.18-0.23-0.45-0.35-0.72-0.46
			c-5.66-2.36-11.57-2.88-17.6-2.18c-3.27,0.38-6.33,0.73-9.41,2.04c-0.68,0.29-1.34,0.6-2.04,0.81c-2.27,0.67-4.73,0.33-7.03,0.04
			c-0.7-0.09-1.4-0.19-2.11-0.26c-0.68-0.07-1.36-0.1-2.03-0.14c-0.94-0.05-1.88-0.1-2.82-0.14c-0.7-0.04-1.39-0.07-2.09-0.06
			c-1.11,0.02-2.21,0.18-3.3,0.39c-0.96,0.19-2.07,0.32-2.96,0.72c-0.77,0.35-2.88,0.53-3.19,1.41c-0.15,0.45-0.04,0.94,0.09,1.4
			c0.72,2.52,1.91,4.87,3.09,7.21c0.33,0.65,0.65,1.3,1.1,1.87c2.77,3.56,8.43,3.11,12.21,1.88c0.92-0.3,1.82-0.66,2.62-1.21
			c0.68-0.47,1.27-1.08,1.94-1.57c3.37-2.45,6.84-0.38,10.19,0.97c3.85,1.56,8.08,2.16,12.22,1.77c3.93-0.38,6.71-2.46,8.86-5.75
			c1.44-2.2,2.37-4.7,3.07-7.23C85.6,65.55,85.68,65.18,85.63,64.84z"/>
		<path class="st17" d="M80.54,64.5c-2.43-0.63-4.96-0.98-7.45-0.98c-2.32,0-4.64,0-6.95,0.28c-1.14,0.14-2.28,0.34-3.39,0.65
			c-0.49,0.13-0.96,0.32-1.45,0.43c-0.54,0.12-1.09,0.15-1.61,0.34c-1.01,0.35-2.02,0.7-3.03,1.05c-0.24,0.08-0.49,0.18-0.62,0.39
			c-0.11,0.19-0.1,0.43-0.07,0.65c0.17,1.45,0.62,2.87,1.4,4.1c0.76,1.21,1.38,2.2,2.66,2.96c1.16,0.69,2.47,1.09,3.77,1.44
			c1.84,0.49,3.57,1.08,5.49,1.15c1.68,0.06,3.36-0.11,5.02-0.35c2.12-0.31,4.24-1.82,5.61-3.42c1.8-2.11,2.96-4.77,3.28-7.52
			c0.01-0.1,0.02-0.22-0.04-0.31c-0.05-0.07-0.14-0.1-0.22-0.13C82.15,64.95,81.35,64.71,80.54,64.5z"/>
		<path class="st17" d="M49.38,67.1c-0.75-0.38-1.91-0.4-2.69-0.49c-1.09-0.13-2.19-0.2-3.29-0.26c-1.61-0.1-3.23-0.18-4.85-0.16
			c-1.97,0.03-4.15,0.23-6,0.93c-0.08,0.03-0.16,0.06-0.22,0.11c-0.22,0.17-0.24,0.49-0.17,0.76c0.57,2.23,1.33,4.52,2.72,6.4
			c1.51,2.05,3.67,2.9,6.12,3.27c0.46,0.07,0.93,0.13,1.39,0.1c0.74-0.05,1.4-0.35,2.1-0.57c0.72-0.23,1.42-0.46,2.07-0.86
			c0.97-0.59,1.75-1.5,2.26-2.51c0.83-1.65,1.05-3.54,1.15-5.38c0.02-0.41,0.01-0.9-0.32-1.15C49.56,67.21,49.47,67.15,49.38,67.1z"
			/>
		<path class="st0" d="M44.16,66.5c-0.03-0.11-0.14-0.16-0.24-0.14h-0.01c-0.03-0.22-0.17-0.43-0.45-0.45
			c-1.17-0.09-2.33-0.06-3.49,0.09c-0.44,0.06-1,0.08-1.36,0.37c-0.38,0.31-0.62,0.85-0.88,1.26c-1.16,1.88-2.3,3.83-3.14,5.88
			c-0.08,0.18,0.03,0.34,0.18,0.41c0,0.08,0.02,0.17,0.06,0.24c0.62,1.14,1.49,2.11,2.69,2.65c0.53,0.24,1.13,0.42,1.55-0.09
			c0.43-0.51,0.65-1.32,0.93-1.93c0.68-1.45,1.41-2.88,2.18-4.28c0.39-0.71,0.79-1.43,1.19-2.14C43.65,67.89,44.3,67.1,44.16,66.5z"
			/>
		<path class="st0" d="M70.93,63.52c-0.26,0.07-0.53,0.13-0.8,0.18c-0.08-0.14-0.21-0.25-0.41-0.27c-1.08-0.1-2.15,0.07-3.16,0.49
			c-0.02,0.01-0.03,0.02-0.05,0.03c-0.14-0.1-0.34-0.1-0.48,0.09c-1.14,1.57-2.05,3.38-2.92,5.11c-0.86,1.72-1.59,3.5-2.07,5.36
			c-0.06,0.21,0.07,0.44,0.29,0.5c1.69,0.47,3.33,0.99,5.06,1.29c0.6,0.1,1.54,0.44,2.03-0.06c0.23-0.24,0.32-0.59,0.43-0.89
			c0.15-0.43,0.3-0.85,0.44-1.28c1.06-3.25,1.91-6.65,2.3-10.05C71.63,63.68,71.23,63.44,70.93,63.52z"/>
		<path class="st0" d="M72.79,64.11c-0.19,2.17-0.45,4.33-0.94,6.46c-0.23,1-0.5,2-0.81,2.98c-0.32,0.97-0.8,1.91-1.08,2.88
			c-0.15,0.52,0.56,0.77,0.84,0.36c0.58-0.85,0.93-1.98,1.25-2.96c0.34-1.02,0.62-2.05,0.86-3.1c0.5-2.17,0.87-4.39,0.99-6.62
			C73.94,63.38,72.85,63.4,72.79,64.11z"/>
		<path class="st0" d="M45.84,66.39c-0.73,0.58-1.2,1.63-1.67,2.42c-0.55,0.9-1.06,1.82-1.56,2.75c-1,1.82-1.91,3.67-2.85,5.52
			c-0.29,0.57,0.59,1.08,0.86,0.5c0.88-1.87,1.87-3.7,2.86-5.52c0.49-0.89,1-1.77,1.5-2.66c0.25-0.44,0.49-0.89,0.74-1.34
			c0.25-0.44,0.54-0.87,0.64-1.37C46.43,66.38,46.08,66.2,45.84,66.39z"/>
		
			<linearGradient id="SVGID_00000004526253781636339080000005286402223375870895_" gradientUnits="userSpaceOnUse" x1="34.8654" y1="78.8822" x2="41.4844" y2="78.8822" gradientTransform="matrix(1 0 0 -1 0 149.8898)">
			<stop  offset="0" style="stop-color:#842E9F"/>
			<stop  offset="0.2165" style="stop-color:#8E38A9;stop-opacity:0.9567"/>
			<stop  offset="0.5858" style="stop-color:#A853C2;stop-opacity:0.8828"/>
			<stop  offset="1" style="stop-color:#CC79E6;stop-opacity:0.8"/>
		</linearGradient>
		<path style="fill:url(#SVGID_00000004526253781636339080000005286402223375870895_);" d="M40.53,66.21
			c-0.01,0.02-0.03,0.05-0.04,0.07c-0.15-0.3-0.59-0.48-0.83-0.17c-0.47,0.61-1,1.17-1.45,1.8c-0.47,0.66-0.9,1.34-1.31,2.04
			c-0.39,0.68-0.76,1.38-1.11,2.08c-0.34,0.68-0.78,1.42-0.91,2.18c-0.04,0.23,0.24,0.46,0.43,0.25c0.03-0.03,0.06-0.07,0.08-0.11
			c-0.06,0.65,0.5,1.26,1.01,1.64c0.19,0.14,0.38,0.07,0.51-0.06c0.03,0.03,0.05,0.06,0.08,0.08c0.08,0.05,0.17,0.02,0.24-0.03
			c0.28-0.23,0.21-0.63,0.26-0.96c0.06-0.44,0.16-0.89,0.3-1.31c0.25-0.79,0.66-1.51,1.06-2.23c0.87-1.58,1.76-3.15,2.59-4.74
			C41.72,66.14,40.86,65.63,40.53,66.21z"/>
		
			<linearGradient id="SVGID_00000056418659501941292500000017323835471765216921_" gradientUnits="userSpaceOnUse" x1="37.7617" y1="77.7704" x2="43.5063" y2="77.7704" gradientTransform="matrix(1 0 0 -1 0 149.8898)">
			<stop  offset="0" style="stop-color:#842E9F"/>
			<stop  offset="0.2165" style="stop-color:#8E38A9;stop-opacity:0.9567"/>
			<stop  offset="0.5858" style="stop-color:#A853C2;stop-opacity:0.8828"/>
			<stop  offset="1" style="stop-color:#CC79E6;stop-opacity:0.8"/>
		</linearGradient>
		<path style="fill:url(#SVGID_00000056418659501941292500000017323835471765216921_);" d="M43.37,67.08
			c-1.24,1.39-2.23,3.03-3.15,4.64c-0.47,0.82-0.92,1.65-1.35,2.49c-0.22,0.43-0.44,0.87-0.65,1.31c-0.19,0.39-0.48,0.8-0.45,1.24
			c0.02,0.28,0.35,0.55,0.62,0.35c0.37-0.28,0.49-0.69,0.69-1.1c0.21-0.44,0.42-0.88,0.64-1.32c0.42-0.85,0.85-1.69,1.28-2.53
			c0.85-1.66,1.79-3.29,2.51-5.01C43.53,67.08,43.42,67.03,43.37,67.08z"/>
		
			<linearGradient id="SVGID_00000052783464315513710260000010891706059776702635_" gradientUnits="userSpaceOnUse" x1="61.3518" y1="80.0524" x2="68.5537" y2="80.0524" gradientTransform="matrix(1 0 0 -1 0 149.8898)">
			<stop  offset="0" style="stop-color:#842E9F"/>
			<stop  offset="0.2165" style="stop-color:#8E38A9;stop-opacity:0.9567"/>
			<stop  offset="0.5858" style="stop-color:#A853C2;stop-opacity:0.8828"/>
			<stop  offset="1" style="stop-color:#CC79E6;stop-opacity:0.8"/>
		</linearGradient>
		<path style="fill:url(#SVGID_00000052783464315513710260000010891706059776702635_);" d="M67.87,63.6
			c-0.4,0.02-0.92,0.08-1.16,0.44c-2.21,3.38-3.98,6.92-5.34,10.72c-0.1,0.28,0.11,0.55,0.36,0.64c0.69,0.25,1.37,0.46,2.1,0.59
			c0.48,0.08,1.03,0.21,1.42-0.17c0.38-0.37,0.46-1.07,0.6-1.56c0.19-0.7,0.36-1.41,0.52-2.12c0.3-1.35,0.58-2.7,0.99-4.02
			c0.38-1.25,0.87-2.47,1.15-3.75C68.63,63.76,68.53,63.57,67.87,63.6z"/>
		
			<linearGradient id="SVGID_00000023265125955298683620000016182834128791874209_" gradientUnits="userSpaceOnUse" x1="66.569" y1="78.4454" x2="69.9909" y2="78.4454" gradientTransform="matrix(1 0 0 -1 0 149.8898)">
			<stop  offset="0" style="stop-color:#842E9F"/>
			<stop  offset="0.2165" style="stop-color:#8E38A9;stop-opacity:0.9567"/>
			<stop  offset="0.5858" style="stop-color:#A853C2;stop-opacity:0.8828"/>
			<stop  offset="1" style="stop-color:#CC79E6;stop-opacity:0.8"/>
		</linearGradient>
		<path style="fill:url(#SVGID_00000023265125955298683620000016182834128791874209_);" d="M69.89,66.14
			c-0.14,0.44-0.4,0.83-0.55,1.27c-0.15,0.43-0.26,0.88-0.39,1.32c-0.24,0.85-0.49,1.69-0.76,2.53c-0.27,0.84-0.6,1.66-0.89,2.5
			c-0.15,0.43-0.28,0.87-0.43,1.3c-0.13,0.41-0.33,0.83-0.31,1.26c0.02,0.37,0.5,0.64,0.78,0.32s0.39-0.71,0.53-1.1
			c0.15-0.43,0.31-0.86,0.44-1.3c0.27-0.88,0.46-1.77,0.68-2.66c0.22-0.89,0.45-1.77,0.65-2.67c0.1-0.45,0.2-0.89,0.27-1.35
			c0.07-0.47,0.01-0.93,0.08-1.4C70,66.11,69.91,66.08,69.89,66.14z"/>
		<path class="st22" d="M84.09,68.1c-0.41-0.27-0.93,0.02-1.24,0.33c-0.05,0.04-0.11,0.09-0.15,0.15c-0.02,0.02-0.01,0.05-0.02,0.08
			c-0.2,0.25-0.38,0.54-0.49,0.83c-0.08,0.19-0.15,0.39-0.22,0.58c-0.04,0.1-0.08,0.2-0.11,0.3c0,0.01-0.06,0.15-0.03,0.09
			c-0.02,0.03-0.03,0.07-0.05,0.1c-0.37,0.61-0.78,1.21-1.21,1.77c-0.96,1.25-2.11,2.37-3.45,3.2c-2.91,1.79-6.23,1.73-9.51,1.31
			c-0.09-0.11-0.21-0.19-0.38-0.21c-1.4-0.16-2.79-0.42-4.15-0.81c-2.98-0.85-5.64-2.45-8.76-2.89c-1.43-0.2-2.95-0.09-4.23,0.6
			c-2.07,1.11-3.47,3.12-5.8,3.83c-2.31,0.71-4.49,0.36-6.75-0.38c-0.32-0.25-0.64-0.48-0.96-0.72c-0.01-0.12-0.04-0.23-0.13-0.33
			c-0.37-0.44-0.88-0.78-1.4-1.07c-0.01-0.03-0.01-0.06-0.03-0.09c-0.5-0.98-1.03-1.95-1.55-2.92c-0.43-0.82-0.83-1.67-1.31-2.46
			c0-0.01,0-0.02,0-0.03c0-0.03,0-0.06,0-0.09c0.04-0.1,0.04-0.23-0.01-0.34c-0.14-0.25-0.54-0.23-0.67,0.02
			c-0.08,0.15-0.06,0.32-0.05,0.49l0.05,0.84c0.01,0.15,0.03,0.29,0.07,0.44c0.02,0.07,0.03,0.13,0.05,0.2
			c0.02,0.08,0.07,0.14,0.11,0.2c0.03,0.05,0.09,0.07,0.14,0.06c0.73,2.2,1.8,4.45,3.57,5.94c0.01,0.05,0.03,0.1,0.06,0.15
			c0.07,0.1,0.15,0.19,0.23,0.29c-0.03,0.19,0.03,0.39,0.23,0.53c0.13,0.09,0.27,0.16,0.41,0.24c0.05,0.09,0.13,0.16,0.25,0.21
			l0.91,0.36c0.01,0.01,0.03,0,0.04,0.01c2.19,0.79,4.67,0.48,6.94,0.04c2.74-0.52,5.38-1.62,7.28-3.72c2.57-0.8,5.24,0.07,7.64,1.1
			c0.04,0.16,0.14,0.3,0.35,0.37c3.06,0.96,6.31,1.93,9.55,1.87c0.04,0.01,0.08,0.01,0.13,0.01c3.17,0.44,6.32-0.22,9.08-1.86
			c1.37-0.81,2.62-1.85,3.63-3.08c0.91-1.11,1.66-2.36,1.68-3.77c0.05-0.09,0.1-0.17,0.15-0.26c0.14-0.27,0.28-0.54,0.23-0.83
			C84.37,68.54,84.32,68.24,84.09,68.1z"/>
		<path class="st23" d="M85.23,64.53c-6.92-3.04-14.9-3.71-22.25-2c-0.98,0.23-1.95,0.5-2.9,0.82c-1.44,0.3-2.83,0.85-4.12,1.55
			c-0.2,0.11-0.4,0.24-0.61,0.36c-0.05-0.07-0.12-0.13-0.22-0.12c-0.99,0.11-1.95,0.23-2.94,0.2c-1.05-0.03-2.08-0.17-3.12-0.35
			c-2.05-0.36-4.08-0.78-6.17-0.86c-2.45-0.09-4.9,0.23-7.32,0.77c0.16-0.21-0.08-0.5-0.33-0.45c-0.88,0.15-1.71,0.55-2.57,0.79
			c-0.64,0.18-1.33,0.3-1.88,0.7c-0.45,0.33-0.66,0.8-0.59,1.36c0.09,0.84,0.51,1.74,0.79,2.53c0.56,1.59,1.18,3.16,1.97,4.65
			c0.69,1.3,1.47,2.59,2.66,3.49c0.07,0.05,0.14-0.05,0.09-0.11c-0.9-1.05-1.68-2.16-2.27-3.41c-0.64-1.36-1.15-2.8-1.64-4.22
			c-0.25-0.71-0.49-1.43-0.71-2.15c-0.11-0.38-0.33-0.87-0.09-1.22c0.16-0.24,0.54-0.35,0.79-0.43c0.67-0.22,1.38-0.36,2.05-0.58
			c3.15-0.54,6.31-0.9,9.53-0.71c2.11,0.13,4.15,0.66,6.23,0.97c0.79,0.12,1.63,0.22,2.46,0.23c0.49,0.32,1.12,0.68,1.53,0.3
			c0.14-0.13,0.2-0.3,0.4-0.37c0.17-0.07,0.37-0.05,0.55-0.06c0.42-0.01,0.77-0.1,1.15-0.29c0.85-0.44,1.66-0.9,2.55-1.25
			c0.89-0.34,1.81-0.62,2.73-0.88c0.07-0.02,0.12-0.07,0.16-0.13c0.92-0.24,1.84-0.45,2.78-0.62c2.36-0.42,4.75-0.6,7.14-0.57
			c4.77,0.05,9.42,1.08,13.82,2.9C85.35,65.56,85.7,64.73,85.23,64.53z"/>
		<g>
			<path d="M51.71,76.7c0.87-0.67,1.75-0.91,2.85-0.77c0.77,0.1,1.53,0.33,2.26,0.57c0.7,0.23,1.32,0.62,1.99,0.93
				c2.81,1.27,5.83,2,8.89,2.34c2.85,0.32,5.86,0.29,8.63-0.53c2.81-0.83,5.06-2.65,6.67-5.07c1.91-2.87,2.9-6.3,3.75-9.6
				c0.14-0.55-0.18-1.05-0.7-1.23c-7.79-2.72-16.26-3.8-24.34-1.75c-2.3,0.58-4.53,1.42-6.67,2.46c0.17-0.05,0.34-0.09,0.5-0.14
				c-1.58-0.03-3.14,0.05-4.71,0.29c0.18,0,0.35,0,0.53,0c-7.12-1.85-15.02-1.52-21.89,1.14c-0.51,0.2-0.85,0.66-0.7,1.23
				c1.04,4.01,2.46,8.41,5.42,11.43c2.89,2.96,7.34,3.31,11.16,2.24c2.45-0.68,4.71-1.95,6.56-3.69c0.94-0.88-0.48-2.3-1.41-1.41
				c-2.74,2.57-6.71,4.06-10.47,3.59c-1.58-0.2-3.03-0.8-4.19-1.91c-1.32-1.26-2.24-2.89-3.01-4.53c-0.92-2-1.58-4.12-2.13-6.24
				c-0.23,0.41-0.47,0.82-0.7,1.23c3.34-1.29,6.88-2,10.45-2.17c1.79-0.09,3.59-0.04,5.38,0.13c0.86,0.08,1.71,0.2,2.56,0.36
				c0.84,0.15,1.71,0.48,2.56,0.56c0.45,0.04,0.94-0.1,1.38-0.15c0.46-0.05,0.93-0.07,1.39-0.09c0.44-0.01,0.88-0.01,1.33-0.01
				c0.59,0.01,0.97-0.13,1.51-0.38c1.75-0.81,3.58-1.46,5.45-1.95c3.57-0.93,7.26-1.22,10.94-0.99c4.29,0.27,8.5,1.27,12.55,2.69
				c-0.23-0.41-0.47-0.82-0.7-1.23c-1.32,5.14-3.19,11.49-8.87,13.23c-2.7,0.83-5.65,0.8-8.43,0.48c-2.78-0.33-5.61-1.03-8.13-2.26
				c-0.82-0.4-1.57-0.79-2.45-1.05c-0.79-0.24-1.6-0.43-2.43-0.51c-1.38-0.14-2.7,0.21-3.8,1.05c-0.43,0.33-0.66,0.86-0.36,1.37
				C50.59,76.76,51.28,77.03,51.71,76.7L51.71,76.7z"/>
		</g>
		<g>
			<path d="M49.92,66.72c-2.94-0.84-6.05-1.16-9.1-1.19c-3.01-0.02-6.2,0.21-9,1.38c-0.26,0.11-0.42,0.32-0.35,0.62
				c1.02,4.28,3.11,9.29,7.86,10.39c4.15,0.96,9.07-0.9,10.5-5.14c0.4-1.18,0.5-2.43,0.49-3.66c0-0.66,0.09-1.4-0.05-2.05
				c-0.13-0.63-1.09-0.36-0.96,0.27c-0.04-0.21-0.01,0.01-0.01,0.08c0,0.13,0,0.26,0.01,0.39c0,0.33,0.01,0.66,0.01,0.99
				c0.01,0.82,0.01,1.64-0.13,2.46c-0.38,2.21-1.61,3.95-3.61,4.96c-1.68,0.85-3.7,1.16-5.55,0.83c-2.02-0.36-3.61-1.49-4.82-3.13
				c-1.44-1.96-2.21-4.31-2.77-6.65c-0.12,0.21-0.23,0.41-0.35,0.62c2.73-1.15,5.81-1.37,8.74-1.35c2.97,0.03,5.98,0.34,8.84,1.15
				C50.28,67.86,50.54,66.9,49.92,66.72z"/>
		</g>
		<g>
			<path d="M55.31,66.74c0.28,2.72,1.29,5.46,3.37,7.32c2.06,1.83,4.71,2.36,7.33,2.87c3,0.58,6.13,0.85,9.11,0.05
				c2.33-0.63,4.24-1.99,5.64-3.95c1.58-2.22,2.43-4.89,3.15-7.49c0.07-0.27-0.09-0.53-0.35-0.62c-7.07-2.27-14.89-2.44-22.08-0.65
				c-2.03,0.5-4.01,1.19-5.92,2.04c-0.59,0.26-0.08,1.12,0.5,0.86c6.61-2.95,14.25-3.73,21.38-2.66c1.99,0.3,3.94,0.75,5.86,1.37
				c-0.12-0.21-0.23-0.41-0.35-0.62c-1.12,4.03-2.71,8.73-6.97,10.38c-2.61,1.01-5.6,1.01-8.33,0.56c-2.42-0.39-5.08-0.77-7.2-2.08
				c-2.56-1.58-3.84-4.49-4.14-7.39C56.24,66.11,55.24,66.1,55.31,66.74L55.31,66.74z"/>
		</g>
		<path class="st23" d="M30.31,65.32c0,0,1.1,1.69-0.38,2.69c0,0,2.51-0.47,3,0.93c0,0-0.97-1.65-0.34-2.45
			C32.59,66.49,31.43,66.6,30.31,65.32z"/>
		<path class="st23" d="M83.32,66.87c0,0-0.56,1.29-1.7,0.82c0,0,1.24,1.27,0.62,2.1c0,0,0.58-1.2,1.29-1.14
			C83.53,68.65,83.02,68.02,83.32,66.87z"/>
		<path class="st23" d="M48.27,75.66c0,0,0.66-1.43,1.93-0.87c0,0-1.35-1.46-0.63-2.37c0,0-0.69,1.33-1.47,1.24
			C48.09,73.67,48.64,74.39,48.27,75.66z"/>
	</g>
</g>
</svg>
