<?xml version="1.0" encoding="utf-8"?>
<!-- Generator: Adobe Illustrator 28.0.0, SVG Export Plug-In . SVG Version: 6.00 Build 0)  -->
<svg version="1.1" id="Layer_1" xmlns="http://www.w3.org/2000/svg" xmlns:xlink="http://www.w3.org/1999/xlink" x="0px" y="0px"
	 viewBox="0 0 150 150" style="enable-background:new 0 0 150 150;" xml:space="preserve">
<style type="text/css">
	.st0{stroke:#000000;stroke-width:2;stroke-linecap:round;stroke-linejoin:round;stroke-miterlimit:10;}
	.st1{fill:#842E9F;}
	.st2{fill:url(#SVGID_1_);}
	.st3{fill:url(#SVGID_00000091016419434286772050000013942214059805864365_);}
	.st4{fill:url(#SVGID_00000021089027925333260530000014454821734723338644_);}
	.st5{fill:url(#SVGID_00000168806140588975719850000010827637182077363647_);}
	.st6{fill:url(#SVGID_00000083783755996299134420000003422966622631718325_);}
	.st7{fill:url(#SVGID_00000160160287361244365470000002605510490738359740_);}
	.st8{fill:url(#SVGID_00000039826136726898645610000013549143438518967736_);}
	.st9{fill:url(#SVGID_00000148656568000384908510000006074735907065913992_);}
	.st10{fill:url(#SVGID_00000093871614067093053420000005294910149800513702_);}
	.st11{fill:url(#SVGID_00000124874293579280041840000006054254273626692257_);}
	.st12{fill:url(#SVGID_00000078021879248478252780000012740795027822918074_);}
	.st13{fill:url(#SVGID_00000052069826585817057270000014793349458488628912_);}
	.st14{fill:url(#SVGID_00000000907308051611065720000016793955788834234268_);}
	.st15{fill:url(#SVGID_00000113344991760949326010000016902289876111596452_);}
	.st16{fill:url(#SVGID_00000114762312420918933900000002998877162021237661_);}
	.st17{fill:url(#SVGID_00000061452172380061598520000012446822621891987613_);}
	.st18{fill:url(#SVGID_00000026850227071131480830000002696973287981463729_);}
	.st19{fill:url(#SVGID_00000042730450645645389120000012281347415740069777_);}
	.st20{fill:url(#SVGID_00000147909533678472284420000017637318341922983347_);}
	.st21{fill:url(#SVGID_00000091715133762018376860000017387224944350512295_);}
	.st22{fill:url(#SVGID_00000132801274270085174350000004646737843768643463_);}
	.st23{fill:url(#SVGID_00000134230350831101332370000000331484839589553057_);}
	.st24{fill:url(#SVGID_00000072986265434742214640000001977951507401514652_);}
	.st25{fill:url(#SVGID_00000075129791136126878950000008693815167164160432_);}
	.st26{fill:url(#SVGID_00000004523562618973921060000018099848647787960762_);}
	.st27{fill:url(#SVGID_00000034801905269917111590000011006480221852823202_);}
	.st28{fill:url(#SVGID_00000084495071588824640440000007708476162691960210_);}
	.st29{fill:url(#SVGID_00000039812460233878096540000012199892830544155040_);}
	.st30{fill:url(#SVGID_00000067200730229361122380000006552301311986750641_);}
	.st31{fill:url(#SVGID_00000132070208120049682070000010400474626992129699_);}
	.st32{fill:url(#SVGID_00000088838530785231919340000009655466819041691045_);}
	.st33{fill:url(#SVGID_00000011741128560948624590000011768905139200602300_);}
	.st34{fill:url(#SVGID_00000018915855454175794840000005604333410840857503_);}
	.st35{fill:url(#SVGID_00000096760142810466463970000016010009591079494319_);}
	.st36{fill:url(#SVGID_00000106844696325235757090000009787187660946679984_);}
	.st37{fill:url(#SVGID_00000173161690428522551210000005053446828574301605_);}
	.st38{fill:url(#SVGID_00000108271110329867821600000004911742675182132141_);}
	.st39{fill:url(#SVGID_00000086658155967778730070000008979567291914290357_);}
	.st40{fill:url(#SVGID_00000047058539244407910750000001607035634211473811_);}
	.st41{fill:url(#SVGID_00000076602903336491077430000016267583964517252263_);}
	.st42{fill:url(#SVGID_00000142155254975662533360000003596667877689645759_);}
	.st43{fill:url(#SVGID_00000118354878120402350140000014036789827893912454_);}
	.st44{fill:url(#SVGID_00000011741869626551218610000006904677692002403228_);}
</style>
<g id="Purple_Shadow_Wizard_Bottom">
	<g>
		<path class="st0" d="M125.87,121.48c-0.31-1.02-0.78-1.99-1.31-2.91c-0.33-0.58-0.72-1.12-1.08-1.68
			c-0.32-0.5-0.47-1.06-0.62-1.63c-0.32-1.21-0.85-2.35-1.33-3.51c-0.5-1.2-1-2.41-1.43-3.63c-0.43-1.22-0.8-2.47-1.04-3.74
			c-0.24-1.3-0.32-2.62-0.49-3.93c-0.16-1.2-0.39-2.39-0.86-3.51c-0.48-1.14-1.15-2.18-1.69-3.29c-0.6-1.23-0.93-2.55-1.21-3.88
			c-0.29-1.38-0.57-2.77-0.85-4.15c-0.56-2.75-1.12-5.49-1.68-8.24c-1.1-5.31-2.26-10.61-3.78-15.81c-0.77-2.63-1.64-5.23-2.59-7.8
			c-0.95-2.56-1.93-5.12-2.72-7.73c-0.75-2.47-1.54-4.94-2.24-7.42c-0.69-2.44-1.22-4.94-1.25-7.48c-0.01-0.81,0.04-1.62,0.09-2.43
			c0.09,0.04,0.19,0.07,0.29,0.09c0.17,0.03,0.38-0.02,0.47-0.19c0.62-1.33,0.77-2.86,0.34-4.27c-0.2-0.66-0.63-1.34-0.58-2.05
			c0.02-0.32,0.18-0.61,0.18-0.93c0-0.23-0.09-0.43-0.22-0.6c0.16-0.33,0.27-0.67,0.31-1.04c0.01-0.14-0.09-0.29-0.2-0.36
			c-1.39-0.74-2.85-1.35-4.36-1.8c-1.53-0.46-3.15-0.83-4.75-0.85c-1.63-0.02-3.17,0.47-4.69,1.01c-1.49,0.53-2.99,1.02-4.52,1.43
			c-1.68,0.46-3.38,0.84-5.09,1.21c-0.06,0.01-0.11,0.04-0.15,0.07c-1.52,0.1-3.04,0.19-4.56,0.24c-1.43,0.05-2.85,0.09-4.27,0.24
			c-1.35,0.15-2.7,0.36-4.05,0.55c-0.67-0.14-1.32-0.37-2.01-0.48c-1.12-0.18-2.24-0.12-3.33,0.18c-0.56,0.11-1.11,0.35-1.57,0.69
			c-0.19,0.14-0.42,0.3-0.56,0.51c-3.02,0.27-6.05,0.28-9.05-0.28c-1.61-0.3-3.19-0.74-4.75-1.21c-1.57-0.48-3.18-0.95-4.84-0.94
			c-0.42,0-0.84,0.04-1.25,0.11c-0.29,0.05-0.61,0.08-0.86,0.24c-0.3,0.18-0.41,0.52-0.38,0.86c0.02,0.2,0.08,0.39,0.07,0.59
			c-0.01,0.2-0.07,0.39-0.12,0.58c-0.09,0.41-0.15,0.82-0.2,1.23c-0.04,0.35-0.06,0.71,0.07,1.05c0.09,0.24,0.27,0.46,0.5,0.57
			c-0.07,1.47,0.18,2.9,0.45,4.34c0.31,1.66,0.48,3.3,0.15,4.98c-0.35,1.76-0.81,3.43-0.83,5.24c-0.03,1.85,0.05,3.72,0.15,5.57
			c0.22,3.76,0.64,7.51,0.92,11.27c0.28,3.77,0.33,7.52,0.41,11.29c0.03,1.83,0.14,3.64,0.39,5.45c0.26,1.86,0.64,3.71,0.9,5.57
			c0.53,3.78,0.18,7.55-0.01,11.34c-0.38,7.58,0.04,15.17,0.39,22.74c0.09,1.88,0.19,3.76,0.27,5.64c0.08,1.83,0.02,3.67,0.07,5.5
			c0.03,0.93,0.04,1.86,0.11,2.79c0.06,0.75,0.02,1.39,0.68,1.85c1.25,0.86,3.08,1.02,4.55,1.01c0.86-0.01,1.71-0.12,2.56-0.24
			c0.21-0.03,0.36-0.32,0.29-0.51c-0.13-0.35-0.27-0.69-0.4-1.04c-0.01-0.03-0.09-0.25-0.1-0.23c0.04-0.06,0.57-0.07,0.66-0.08
			c0.76-0.08,1.53-0.15,2.3-0.19c1.46-0.09,2.93-0.11,4.4-0.07c2.99,0.08,5.96,0.44,8.9,0.99c5.76,1.07,11.33,3.11,17.15,3.86
			c0.83,0.11,1.66,0.19,2.49,0.25c0.64,0.05,1.39,0.19,2.01-0.04c0.51-0.18,0.76-0.61,0.7-1.14c-0.07-0.6-0.34-1.24-0.57-1.84
			c5.12-0.08,10.05,1.5,15.06,2.34c2.31,0.38,4.62,0.51,6.95,0.59c2.22,0.08,4.44,0.1,6.65-0.06c3.65-0.26,7.37-1.05,10.31-3.36
			c1.01-0.8,1.85-1.8,2.3-3.02C126.44,124.5,126.31,122.91,125.87,121.48z"/>
		<g>
			<path class="st1" d="M74.73,20.81c-1.08,0-2.18,0.18-3.26,0.27c-2.25,0.2-4.49,0.39-6.74,0.59c-0.42,0.04-0.85,0.07-1.27,0.03
				c-0.32-0.04-0.62-0.12-0.93-0.2c-1.24-0.34-2.37-0.4-3.63-0.07c-0.51,0.13-1.02,0.3-1.45,0.61c-0.23,0.16-0.43,0.37-0.67,0.5
				c-0.32,0.18-0.7,0.22-1.06,0.26c-2.63,0.23-5.28,0.02-7.89-0.35c-1.18-0.17-2.44-0.27-3.59-0.59c-1.14-0.32-2.21-0.84-3.34-1.19
				c-1.45-0.45-2.71-0.35-4.19-0.19c-0.35,0.04-0.77,0.12-0.91,0.45c-0.06,0.14-0.05,0.29-0.04,0.44c0.02,0.7-0.06,1.4-0.24,2.07
				c-0.23,0.86-0.07,0.84,0.3,1.59c0.09,0.19,0.13,0.39,0.16,0.6c0.12,0.73,0.25,1.46,0.37,2.19c0.12,0.71,0.24,1.42,0.32,2.14
				c0.28,2.52-0.2,4.72-0.62,7.17c-0.26,1.52-0.3,3.34-0.2,4.86c0.12,1.99,0.31,3.97,0.46,5.96c0.3,3.93,0.61,7.86,0.91,11.79
				c0.17,2.2,0.2,4.42,0.1,6.63c-0.03,0.72-0.08,1.43-0.06,2.15c0.04,1.32,0.32,2.61,0.42,3.93c0.09,1.18,0.14,2.2,0.44,3.36
				c0.2,0.8,0.3,1.62,0.4,2.44c0.12,0.99,0.24,1.99,0.36,2.98c0.11,0.96,0.23,1.92,0.14,2.88c-0.24,2.48-0.51,4.85-0.43,7.37
				c0.1,3.17,0.09,6.34,0.07,9.52c-0.01,1.61-0.02,3.22-0.02,4.83c0,0.76-0.11,1.62,0.02,2.36c0.09,0.54,0.24,1.04,0.29,1.6
				c0.16,1.85,0.11,3.7,0.22,5.56c0.12,2.03,0.48,4.2,0.34,6.22c-0.11,1.61-0.2,3.23-0.11,4.84c0.03,0.61-0.08,1.24,0.3,1.74
				c0.4,0.52,1.04,0.87,1.66,1.05c0.86,0.25,1.77,0.22,2.67,0.19c0.67-0.02,1.34-0.04,1.98-0.21c0.12-0.03,0.24-0.07,0.32-0.15
				c0.57-0.61-0.63-1.36,0.49-1.63c1.32-0.31,2.77-0.26,4.13-0.31c1.6-0.05,3.21-0.03,4.81,0.06c1.26,0.07,2.51,0.18,3.77,0.3
				c1.01,0.09,2.18,0.06,3.15,0.33c0.99,0.28,1.93,0.67,2.95,0.9c5.96,1.34,12.02,3.48,18.18,3.38c0.17,0,0.34-0.01,0.49-0.07
				c0.5-0.22,0.53-0.92,0.35-1.44c-0.18-0.51-0.48-1.03-0.38-1.56c0.07-0.34,2.67-0.04,2.96,0c1.28,0.16,2.55,0.5,3.82,0.74
				c0.96,0,2.06,0.39,3,0.57c1.04,0.2,2.09,0.39,3.13,0.59c1.94,0.36,3.85,0.69,5.83,0.88c2.19,0.22,4.54,0.59,6.72,0.26
				c0.62-0.09,1.24-0.06,1.87-0.04c1.94,0.05,3.72-0.28,5.56-0.74c0.12-0.03,0.23-0.06,0.35-0.09c1.91-0.5,3.83-1.14,5.43-2.34
				c1.88-1.4,3.24-3.74,2.84-6.05c-0.23-1.32-0.74-2.76-1.42-3.92c-0.65-1.11-1.58-2.07-1.98-3.32c-0.16-0.52-0.22-1.06-0.37-1.59
				c-0.17-0.6-0.44-1.17-0.7-1.74c-1.11-2.43-1.94-4.99-2.47-7.61c-0.49-2.39-0.37-5.03-1.35-7.29c-0.42-0.98-0.85-1.97-1.41-2.88
				c-0.32-0.52-0.68-1.01-0.91-1.57c-0.33-0.77-0.4-1.62-0.58-2.44c-0.28-1.24-0.74-2.44-0.95-3.69c-0.26-1.57-0.53-3.13-0.8-4.7
				c-0.55-3.13-1.14-6.25-1.83-9.36c-0.33-1.47-0.68-2.93-1.03-4.39c-0.93-3.88-1.92-7.66-3.28-11.41
				c-0.59-1.63-1.18-3.26-1.77-4.88c-0.78-2.17-1.7-4.29-2.42-6.47c-0.73-2.21-1.46-4.42-2.06-6.66c-0.51-1.92-0.93-3.88-1.11-5.87
				c-0.09-1.01-0.12-2.02-0.08-3.03c0.02-0.42-0.03-1.01,0.12-1.42c0.19-0.54,0.25-0.19,0.7-0.34c0.14-0.05,0.19-0.23,0.22-0.38
				c0.1-0.54,0.2-1.08,0.3-1.62c0.09-0.49,0.18-1.01,0.03-1.48c-0.15-0.46-0.5-0.83-0.66-1.28c-0.17-0.47-0.12-0.99-0.07-1.49
				c0.06-0.53,0.11-1.05,0.17-1.58c0.01-0.14,0.03-0.28-0.02-0.42c-0.07-0.22-0.29-0.36-0.5-0.48c-2.55-1.44-5.48-2.44-8.44-2.27
				c-3.18,0.19-6.42,1.54-9.48,2.41c-1.25,0.36-2.49,0.76-3.75,1.08c-1.04,0.27-2.07,0.18-3.13,0.18
				C74.77,20.81,74.75,20.81,74.73,20.81z"/>
			
				<linearGradient id="SVGID_1_" gradientUnits="userSpaceOnUse" x1="-10.731" y1="62.0267" x2="121.7565" y2="80.0165" gradientTransform="matrix(1 0 0 -1 0 149.8898)">
				<stop  offset="2.046131e-03" style="stop-color:#2E1038"/>
				<stop  offset="1" style="stop-color:#842E9F;stop-opacity:0"/>
			</linearGradient>
			<path class="st2" d="M74.73,20.81c-1.08,0-2.18,0.18-3.26,0.27c-2.25,0.2-4.49,0.39-6.74,0.59c-0.42,0.04-0.85,0.07-1.27,0.03
				c-0.32-0.04-0.62-0.12-0.93-0.2c-1.24-0.34-2.37-0.4-3.63-0.07c-0.51,0.13-1.02,0.3-1.45,0.61c-0.23,0.16-0.43,0.37-0.67,0.5
				c-0.32,0.18-0.7,0.22-1.06,0.26c-2.63,0.23-5.28,0.02-7.89-0.35c-1.18-0.17-2.44-0.27-3.59-0.59c-1.14-0.32-2.21-0.84-3.34-1.19
				c-1.45-0.45-2.71-0.35-4.19-0.19c-0.35,0.04-0.77,0.12-0.91,0.45c-0.06,0.14-0.05,0.29-0.04,0.44c0.02,0.7-0.06,1.4-0.24,2.07
				c-0.23,0.86-0.07,0.84,0.3,1.59c0.09,0.19,0.13,0.39,0.16,0.6c0.12,0.73,0.25,1.46,0.37,2.19c0.12,0.71,0.24,1.42,0.32,2.14
				c0.28,2.52-0.2,4.72-0.62,7.17c-0.26,1.52-0.3,3.34-0.2,4.86c0.12,1.99,0.31,3.97,0.46,5.96c0.3,3.93,0.61,7.86,0.91,11.79
				c0.17,2.2,0.2,4.42,0.1,6.63c-0.03,0.72-0.08,1.43-0.06,2.15c0.04,1.32,0.32,2.61,0.42,3.93c0.09,1.18,0.14,2.2,0.44,3.36
				c0.2,0.8,0.3,1.62,0.4,2.44c0.12,0.99,0.24,1.99,0.36,2.98c0.11,0.96,0.23,1.92,0.14,2.88c-0.24,2.48-0.51,4.85-0.43,7.37
				c0.1,3.17,0.09,6.34,0.07,9.52c-0.01,1.61-0.02,3.22-0.02,4.83c0,0.76-0.11,1.62,0.02,2.36c0.09,0.54,0.24,1.04,0.29,1.6
				c0.16,1.85,0.11,3.7,0.22,5.56c0.12,2.03,0.48,4.2,0.34,6.22c-0.11,1.61-0.2,3.23-0.11,4.84c0.03,0.61-0.08,1.24,0.3,1.74
				c0.4,0.52,1.04,0.87,1.66,1.05c0.86,0.25,1.77,0.22,2.67,0.19c0.67-0.02,1.34-0.04,1.98-0.21c0.12-0.03,0.24-0.07,0.32-0.15
				c0.57-0.61-0.63-1.36,0.49-1.63c1.32-0.31,2.77-0.26,4.13-0.31c1.6-0.05,3.21-0.03,4.81,0.06c1.26,0.07,2.51,0.18,3.77,0.3
				c1.01,0.09,2.18,0.06,3.15,0.33c0.99,0.28,1.93,0.67,2.95,0.9c5.96,1.34,12.02,3.48,18.18,3.38c0.17,0,0.34-0.01,0.49-0.07
				c0.5-0.22,0.53-0.92,0.35-1.44c-0.18-0.51-0.48-1.03-0.38-1.56c0.07-0.34,2.67-0.04,2.96,0c1.28,0.16,2.55,0.5,3.82,0.74
				c0.96,0,2.06,0.39,3,0.57c1.04,0.2,2.09,0.39,3.13,0.59c1.94,0.36,3.85,0.69,5.83,0.88c2.19,0.22,4.54,0.59,6.72,0.26
				c0.62-0.09,1.24-0.06,1.87-0.04c1.94,0.05,3.72-0.28,5.56-0.74c0.12-0.03,0.23-0.06,0.35-0.09c1.91-0.5,3.83-1.14,5.43-2.34
				c1.88-1.4,3.24-3.74,2.84-6.05c-0.23-1.32-0.74-2.76-1.42-3.92c-0.65-1.11-1.58-2.07-1.98-3.32c-0.16-0.52-0.22-1.06-0.37-1.59
				c-0.17-0.6-0.44-1.17-0.7-1.74c-1.11-2.43-1.94-4.99-2.47-7.61c-0.49-2.39-0.37-5.03-1.35-7.29c-0.42-0.98-0.85-1.97-1.41-2.88
				c-0.32-0.52-0.68-1.01-0.91-1.57c-0.33-0.77-0.4-1.62-0.58-2.44c-0.28-1.24-0.74-2.44-0.95-3.69c-0.26-1.57-0.53-3.13-0.8-4.7
				c-0.55-3.13-1.14-6.25-1.83-9.36c-0.33-1.47-0.68-2.93-1.03-4.39c-0.93-3.88-1.92-7.66-3.28-11.41
				c-0.59-1.63-1.18-3.26-1.77-4.88c-0.78-2.17-1.7-4.29-2.42-6.47c-0.73-2.21-1.46-4.42-2.06-6.66c-0.51-1.92-0.93-3.88-1.11-5.87
				c-0.09-1.01-0.12-2.02-0.08-3.03c0.02-0.42-0.03-1.01,0.12-1.42c0.19-0.54,0.25-0.19,0.7-0.34c0.14-0.05,0.19-0.23,0.22-0.38
				c0.1-0.54,0.2-1.08,0.3-1.62c0.09-0.49,0.18-1.01,0.03-1.48c-0.15-0.46-0.5-0.83-0.66-1.28c-0.17-0.47-0.12-0.99-0.07-1.49
				c0.06-0.53,0.11-1.05,0.17-1.58c0.01-0.14,0.03-0.28-0.02-0.42c-0.07-0.22-0.29-0.36-0.5-0.48c-2.55-1.44-5.48-2.44-8.44-2.27
				c-3.18,0.19-6.42,1.54-9.48,2.41c-1.25,0.36-2.49,0.76-3.75,1.08c-1.04,0.27-2.07,0.18-3.13,0.18
				C74.77,20.81,74.75,20.81,74.73,20.81z"/>
			
				<linearGradient id="SVGID_00000057108142293045615480000012781835289101797003_" gradientUnits="userSpaceOnUse" x1="57.3164" y1="124.435" x2="59.7639" y2="115.5797" gradientTransform="matrix(1 0 0 -1 0 149.8898)">
				<stop  offset="2.046131e-03" style="stop-color:#000000"/>
				<stop  offset="1" style="stop-color:#3574BC;stop-opacity:0"/>
			</linearGradient>
			<path style="fill:url(#SVGID_00000057108142293045615480000012781835289101797003_);" d="M57.19,29.1c0.19-0.1,0.39-0.2,0.6-0.25
				c0.25-0.05,0.51-0.02,0.76-0.07c0.25-0.04,0.52-0.19,0.57-0.44c0.04-0.16-0.01-0.37,0.13-0.47c0.05-0.03,0.12-0.04,0.18-0.04
				c0.79-0.05,1.58,0.01,2.36,0.15c-0.59,0.68-1.23,1.31-1.92,1.89c-0.61,0.51-1.34,1.01-2.13,0.94c-0.53-0.05-1.01-0.36-1.52-0.51
				c-0.31-0.09-0.64-0.12-0.97-0.13c-0.14-0.01-0.27-0.03-0.41-0.03c-0.05,0,0.29-0.22,0.34-0.23c0.22-0.08,0.44-0.15,0.66-0.23
				C56.31,29.52,56.76,29.32,57.19,29.1z"/>
			
				<linearGradient id="SVGID_00000015348303175467711550000006252049936576666034_" gradientUnits="userSpaceOnUse" x1="60.1741" y1="129.0573" x2="66.7276" y2="123.7618" gradientTransform="matrix(1 0 0 -1 0 149.8898)">
				<stop  offset="2.046131e-03" style="stop-color:#000000"/>
				<stop  offset="1" style="stop-color:#3574BC;stop-opacity:0"/>
			</linearGradient>
			<path style="fill:url(#SVGID_00000015348303175467711550000006252049936576666034_);" d="M60.88,23.76
				c-0.06-0.22-0.04-0.49,0.1-0.67c0.08-0.1,0.19-0.16,0.3-0.22c0.46-0.24,0.96-0.39,1.46-0.52c0.43-0.12,0.85-0.23,1.28-0.35
				c0.35-0.09,0.7-0.19,1.06-0.23c0.21-0.03,0.43-0.04,0.61,0.06c-0.1,0.07-0.06,0.24,0.03,0.33s0.22,0.13,0.31,0.22
				c0.1,0.09,0.14,0.23,0.17,0.36c0.06,0.27,0.04,0.55,0.03,0.83c-0.01,0.26-0.02,0.52-0.03,0.78c0,0.08-0.02,0.18-0.1,0.2
				c-0.03,0.01-0.07,0-0.1-0.01c-0.26-0.09-0.52-0.19-0.77-0.3c-0.16-0.07-0.32-0.15-0.49-0.18c-0.16-0.03-0.33-0.02-0.49,0
				c-0.54,0.06-1.07,0.17-1.58,0.34c-0.16,0.05-0.32,0.12-0.4,0.26c-0.12,0.22,0.03,0.48,0.13,0.71c0.12,0.27,0.17,0.56,0.16,0.85
				c-0.37-0.39-0.69-0.81-0.97-1.27c-0.12-0.2-0.22-0.42-0.37-0.6C61.06,24.16,60.94,23.98,60.88,23.76z"/>
			
				<linearGradient id="SVGID_00000114065961284850139690000000362974011171707531_" gradientUnits="userSpaceOnUse" x1="44.7309" y1="119.7663" x2="47.0151" y2="127.9243" gradientTransform="matrix(1 0 0 -1 0 149.8898)">
				<stop  offset="2.046131e-03" style="stop-color:#000000"/>
				<stop  offset="1" style="stop-color:#3574BC;stop-opacity:0"/>
			</linearGradient>
			<path style="fill:url(#SVGID_00000114065961284850139690000000362974011171707531_);" d="M53.86,26.59
				c-1.35,0.17-2.83-0.09-4.15-0.36c-1.4-0.28-2.77-0.69-4.14-1.07c-1.35-0.37-2.7-0.76-4.06-1.12c-1.03-0.27-2.7-0.8-3.66-0.14
				c-0.13,0.09-0.17,0.32,0,0.4c0.55,0.25,1.17,0.21,1.77,0.32c0.72,0.13,1.42,0.33,2.12,0.53c1.39,0.41,2.79,0.81,4.19,1.22
				c1.32,0.38,2.64,0.78,4,1.03c1.39,0.25,2.67,0.18,4.06-0.01C54.42,27.33,54.32,26.54,53.86,26.59z"/>
			
				<linearGradient id="SVGID_00000172441422068512108800000014259008728557052810_" gradientUnits="userSpaceOnUse" x1="84.0133" y1="134.7669" x2="96.5751" y2="124.6165" gradientTransform="matrix(1 0 0 -1 0 149.8898)">
				<stop  offset="2.046131e-03" style="stop-color:#000000"/>
				<stop  offset="1" style="stop-color:#3574BC;stop-opacity:0"/>
			</linearGradient>
			<path style="fill:url(#SVGID_00000172441422068512108800000014259008728557052810_);" d="M100.15,19.73
				c-1.3-0.87-3.12-1.11-4.64-1.35c-1.74-0.28-3.46-0.3-5.21-0.08c-1.66,0.21-3.29,0.63-4.93,0.95c-0.84,0.17-1.68,0.32-2.53,0.44
				c-0.88,0.12-1.77,0.12-2.65,0.25c-0.25,0.04-0.24,0.45,0,0.5c1.46,0.27,3.09-0.04,4.54-0.29c1.7-0.29,3.38-0.64,5.09-0.83
				c1.69-0.18,3.32-0.14,4.99,0.18c0.82,0.16,1.64,0.35,2.45,0.54c0.78,0.18,1.57,0.34,2.25,0.77
				C100.21,21.24,100.82,20.17,100.15,19.73z"/>
			
				<linearGradient id="SVGID_00000134212536918125773180000007116356342327380894_" gradientUnits="userSpaceOnUse" x1="68.1853" y1="116.4379" x2="64.2404" y2="123.1393" gradientTransform="matrix(1 0 0 -1 0 149.8898)">
				<stop  offset="2.046131e-03" style="stop-color:#000000"/>
				<stop  offset="1" style="stop-color:#3574BC;stop-opacity:0"/>
			</linearGradient>
			<path style="fill:url(#SVGID_00000134212536918125773180000007116356342327380894_);" d="M67.25,28.42
				c-0.06-0.47-0.08-1.17-0.47-1.5c-0.26-0.22-0.68-0.11-0.79,0.17c-0.14,0.07-0.27,0.16-0.41,0.25c-0.24,0.17-0.47,0.37-0.72,0.53
				c-0.11,0.07-0.23,0.11-0.31,0.22c-0.09,0.12-0.13,0.27-0.16,0.41c-0.05,0.29-0.09,0.59-0.11,0.88c-0.03,0.56,0.04,1.17,0.2,1.71
				c0.13,0.45,0.28,0.96,0.66,1.24c0.05,0.18,0.17,0.34,0.38,0.4c0.3,0.08,0.65-0.1,0.73-0.41c0.09-0.39,0.38-0.7,0.61-1.03
				c0.3-0.43,0.45-0.95,0.48-1.47C67.37,29.35,67.31,28.88,67.25,28.42z"/>
			
				<linearGradient id="SVGID_00000011730756079456274440000013003184727572895913_" gradientUnits="userSpaceOnUse" x1="40.1875" y1="121.2337" x2="40.6785" y2="132.1805" gradientTransform="matrix(1 0 0 -1 0 149.8898)">
				<stop  offset="2.046131e-03" style="stop-color:#000000"/>
				<stop  offset="1" style="stop-color:#3574BC;stop-opacity:0"/>
			</linearGradient>
			<path style="fill:url(#SVGID_00000011730756079456274440000013003184727572895913_);" d="M45.2,23.16
				c-0.59-0.44-1.43-0.7-2.15-0.83c-0.82-0.16-1.59-0.02-2.41,0.05c-0.87,0.08-1.73-0.04-2.57-0.25c-0.4-0.1-0.78-0.23-1.17-0.36
				c-0.19-0.07-0.39-0.13-0.59-0.19c-0.11-0.03-0.39-0.17-0.49-0.09c-0.04,0.03-0.06,0.07-0.08,0.12c-0.05,0.14-0.05,0.29-0.05,0.44
				c0,0.05,0,0.1,0.01,0.15c0.08,0.29,0.62,0.37,0.86,0.44c0.36,0.11,0.73,0.19,1.1,0.28c0.83,0.2,1.67,0.32,2.52,0.3
				c0.84-0.01,1.66-0.21,2.51-0.21c0.84,0,1.63,0.27,2.46,0.3C45.24,23.29,45.25,23.2,45.2,23.16z"/>
			
				<linearGradient id="SVGID_00000096040925808716094090000005687230401417789867_" gradientUnits="userSpaceOnUse" x1="84.3936" y1="122.4989" x2="84.8011" y2="129.8341" gradientTransform="matrix(1 0 0 -1 0 149.8898)">
				<stop  offset="2.046131e-03" style="stop-color:#000000"/>
				<stop  offset="1" style="stop-color:#3574BC;stop-opacity:0"/>
			</linearGradient>
			<path style="fill:url(#SVGID_00000096040925808716094090000005687230401417789867_);" d="M100.81,25.16
				c-0.03-0.18-0.09-0.35-0.21-0.5c-0.42-0.53-0.91-0.89-1.51-1.21c-0.93-0.49-1.89-0.94-2.89-1.28c-1.01-0.34-2.1-0.54-3.16-0.51
				c-1.05,0.03-2.09,0.32-3.11,0.58c-1.03,0.26-2.06,0.58-3.14,0.47c-1.1-0.1-2.03-0.36-3.15-0.2c-2.34,0.35-4.65,0.94-7,1.29
				c-2.71,0.41-5.52,0.59-8.26,0.42c-0.16-0.01-0.19,0.24-0.04,0.28c1.05,0.26,2.04,0.46,3.12,0.49c1.11,0.04,2.24-0.02,3.35-0.14
				c2.2-0.23,4.37-0.68,6.53-1.12c1.06-0.22,2.24-0.6,3.34-0.55c0.58,0.03,1.08,0.3,1.64,0.42c0.45,0.1,0.92,0.11,1.37,0.08
				c2.07-0.13,3.99-1.27,6.1-1c0.95,0.12,1.86,0.46,2.73,0.86c0.84,0.38,1.67,0.73,2.42,1.28c0.56,0.41,1.07,0.91,1.39,1.52
				c0.03,0.05,0.06,0.11,0.12,0.13c0.11,0.03,0.18-0.1,0.21-0.21C100.76,25.92,100.86,25.52,100.81,25.16z"/>
			
				<linearGradient id="SVGID_00000124851101451950012360000009569767796214566825_" gradientUnits="userSpaceOnUse" x1="63.2917" y1="111.3359" x2="61.8736" y2="126.905" gradientTransform="matrix(1 0 0 -1 0 149.8898)">
				<stop  offset="2.046131e-03" style="stop-color:#000000"/>
				<stop  offset="1" style="stop-color:#3574BC;stop-opacity:0"/>
			</linearGradient>
			<path style="fill:url(#SVGID_00000124851101451950012360000009569767796214566825_);" d="M62.57,28.01
				c-0.77,0.26-1.34,1.05-1.95,1.58c-0.6,0.52-1.28,1.02-2.1,1.08c-0.88,0.06-1.74-0.25-2.59-0.45c-0.8-0.18-1.34-0.23-2.1,0.13
				c-0.11,0.05-0.23,0.1-0.34,0.16c0.41,0.49,1.18,0.46,1.75,0.66c0.64,0.22,1.25,0.53,1.87,0.79c0.75,0.32,1.52,0.67,2.33,0.58
				c1.15-0.13,2.06-1.14,3.21-1.24c0.09-0.01,0.19-0.01,0.28,0.02c0.14,0.04,0.25,0.14,0.35,0.24c0.6,0.56,1.27,1.05,1.93,1.53
				c0.12,0.09,0.25,0.18,0.4,0.2c0.2,0.03,0.38-0.08,0.56-0.17c1.26-0.72,2.49-1.48,3.71-2.26c0.05-0.03,0.1-0.07,0.12-0.12
				c0.04-0.1-0.05-0.19-0.11-0.27c-0.53-0.62-0.4-1.58-0.02-2.3c0.38-0.72,0.97-1.31,1.36-2.03c-1.04-0.01-2.08,0.09-3.1,0.29
				c-0.07,0.01-0.15,0.03-0.19,0.1c-0.03,0.05-0.03,0.11-0.02,0.16c0.04,0.6,0.07,1.21,0.19,1.8c0.12,0.62,0.32,1.28,0.08,1.86
				c-0.2,0.47-0.64,0.79-1.05,1.1c-0.54,0.41-1.04,0.87-1.5,1.37c-0.48-0.38-0.66-0.94-0.92-1.47c-0.28-0.56-0.62-1.08-0.84-1.67
				c-0.17-0.46-0.26-0.95-0.27-1.43c0-0.07,0-0.14-0.04-0.2c-0.05-0.07-0.13-0.09-0.21-0.1C63.06,27.9,62.81,27.93,62.57,28.01z"/>
			
				<linearGradient id="SVGID_00000175308182496077124260000010509212960218386322_" gradientUnits="userSpaceOnUse" x1="86.3226" y1="117.0525" x2="86.7108" y2="128.6682" gradientTransform="matrix(1 0 0 -1 0 149.8898)">
				<stop  offset="2.046131e-03" style="stop-color:#000000"/>
				<stop  offset="1" style="stop-color:#3574BC;stop-opacity:0"/>
			</linearGradient>
			<path style="fill:url(#SVGID_00000175308182496077124260000010509212960218386322_);" d="M99.67,27.77
				c-0.48-0.82-1.2-1.51-2.07-1.9c-1.01-0.44-2.13-0.5-3.21-0.63c-2.44-0.29-4.88-0.54-7.34-0.5c-0.54,0.01-1.1,0-1.63,0.13
				c-0.2,0.05-0.39,0.15-0.59,0.19c-0.34,0.07-0.62-0.02-0.95-0.09c-1.12-0.22-2.23-0.08-3.34,0.04c-1.25,0.13-2.49,0.27-3.73,0.43
				c-0.53,0.07-1.05,0.15-1.57,0.25c-0.65,0.13-1.27,0.37-1.91,0.5c-0.08,0.02-0.06,0.13,0.02,0.13c1.16,0.02,2.29,0.17,3.46,0.11
				c1.16-0.07,2.31-0.14,3.46-0.24c1.09-0.09,2.2-0.25,3.29-0.06c0.42,0.07,0.82,0.19,1.24,0.14c0.47-0.06,0.88-0.28,1.36-0.32
				c2.2-0.17,4.47,0.08,6.65,0.31c1.11,0.12,2.22,0.23,3.33,0.39c1.16,0.16,2.08,0.53,2.58,1.65
				C99.02,28.94,100.03,28.38,99.67,27.77z"/>
			
				<linearGradient id="SVGID_00000003082605956013823450000015898721492291924365_" gradientUnits="userSpaceOnUse" x1="44.4816" y1="117.7247" x2="45.6191" y2="126.5551" gradientTransform="matrix(1 0 0 -1 0 149.8898)">
				<stop  offset="2.046131e-03" style="stop-color:#000000"/>
				<stop  offset="1" style="stop-color:#3574BC;stop-opacity:0"/>
			</linearGradient>
			<path style="fill:url(#SVGID_00000003082605956013823450000015898721492291924365_);" d="M54.25,27.19
				c-0.75,0.18-1.48,0.45-2.25,0.51c-0.75,0.06-1.53,0.02-2.28-0.05c-1.62-0.16-3.23-0.5-4.81-0.91c-1.5-0.39-2.96-0.89-4.39-1.48
				c-1.35-0.56-2.75-1.07-4.19-0.5c-0.73,0.29-0.4,1.48,0.33,1.18c1.52-0.62,3.06,0.26,4.48,0.79c1.53,0.57,3.1,1.05,4.69,1.41
				c1.52,0.35,3.1,0.65,4.66,0.73c1.35,0.06,3.09-0.18,3.99-1.29C54.61,27.4,54.49,27.13,54.25,27.19z"/>
			
				<linearGradient id="SVGID_00000052818059165671629990000012048148991790142141_" gradientUnits="userSpaceOnUse" x1="129.5225" y1="77.4615" x2="78.7692" y2="67.9383" gradientTransform="matrix(1 0 0 -1 0 149.8898)">
				<stop  offset="2.046131e-03" style="stop-color:#000000"/>
				<stop  offset="1" style="stop-color:#3574BC;stop-opacity:0"/>
			</linearGradient>
			<path style="fill:url(#SVGID_00000052818059165671629990000012048148991790142141_);" d="M108.07,61.02
				c-0.19-0.78-0.4-1.56-0.64-2.32c-0.3-0.94-0.69-1.86-1.05-2.78c-0.48-1.22-0.91-2.45-1.35-3.68c-0.56-1.59-1.13-3.17-1.69-4.76
				c-0.49-1.38-0.98-2.76-1.34-4.18c-0.34-1.34-0.87-2.55-1.24-3.88c-0.51-1.82-0.79-3.7-1.05-5.57c-0.12-0.84-0.24-1.69-0.26-2.54
				c-0.01-0.83,0.08-1.66,0.01-2.48c-0.06-0.82-0.3-1.67-0.87-2.27c-0.76-0.8-1.95-1.01-3.05-1.14c-5.8-0.71-11.68-0.73-17.48-0.04
				c0.76,0.17,1.41,0.64,2.03,1.1c1.82,1.32,3.58,2.77,5.5,3.91c1.87,1.1,3.79,2.11,5.75,3.03c2.63,1.23,3.68,2.62,5.07,5.18
				c0.42,0.77,0.81,1.59,0.8,2.46c-0.04,2.52-1.65,5.87-2.97,7.99c-1.59,2.56-3.79,4.75-6.39,6.27c-0.28,0.16-0.57,0.32-0.89,0.32
				c-0.36-0.01-0.68-0.21-0.98-0.4c-4.12-2.5-9.92-1.77-13.29,1.68c2.02,0.49,4.03,0.98,6.05,1.47c0.66,0.16,1.33,0.32,2.01,0.33
				c0.75,0,1.48-0.18,2.21-0.31c2.27-0.39,5.36-0.34,7.37,0.97c1.43,0.94,1.53,2.93,1.87,4.6c0.51,2.51,1.87,4.79,3.65,6.62
				c0.83,0.85,1.74,1.45,2.69,2.12c1.06,0.76,2.26,1.05,3.43,1.59c0.77,0.35,1.48,0.84,2.27,1.16c0.83,0.34,1.75,0.48,2.64,0.42
				c0.08-0.01,0.17-0.02,0.23-0.07c0.07-0.07,0.08-0.18,0.07-0.28c-0.03-0.96-0.36-1.88-0.66-2.78c-0.65-1.93-1.22-3.89-1.71-5.87
				c2.36,1.08,4.04,3.85,4.47,6.29c0.55,3.06,0.37,6.21,1.11,9.25c0.43,1.78,1.17,3.48,1.91,5.16c1.04,2.38,2.87,4.71,2.87,7.41
				c0,0.08-0.01,0.18-0.08,0.22c-0.05,0.03-0.11,0.01-0.16,0c-1.02-0.24-1.97-0.74-2.74-1.45c-0.19-0.17-0.36-0.36-0.59-0.48
				c-0.67-0.34-1.56-0.14-2.28-0.12c-0.78,0.02-1.56-0.12-2.34-0.22c-1.83-0.23-3.65-0.48-5.46-0.82c-1.8-0.33-3.58-0.75-5.32-1.32
				c-0.86-0.28-1.71-0.6-2.54-0.97c-0.66-0.29-1.83-0.64-2.31-1.18c2.94,3.26,6.77,5.56,10.54,7.81c1.93,1.16,3.88,2.32,6,3.08
				c1.42,0.51,2.98,0.88,3.99,1.99c0.79,0.87,1.44,2.15,1.91,3.23c0.43,0.98,0.34,2.01,0.39,3.05c0.08,1.58,0.57,3.13,0.99,4.65
				c0.37,1.34,0.88,2.13,0.68,3.6c-4.97,0.16-9.83-1.32-14.58-2.79c1.89,0.95,3.8,1.92,5.37,3.34c0.75,0.68,1.41,1.44,2.16,2.12
				c3.14,2.84,7.5,3.78,11.51,5.14c0.4,0.14,0.86,0.34,0.98,0.75c0.07,0.26-0.02,0.54-0.12,0.79c-0.99,2.55-2.84,4.76-5.18,6.17
				c2.28-0.17,4.51-0.94,6.4-2.23c0.42-0.28,0.82-0.59,1.2-0.93c1.07-0.94,1.99-2.15,2.25-3.56c0.22-1.16-0.02-2.35-0.37-3.47
				c-0.28-0.89-0.64-1.77-1.14-2.56c-1.74-2.8-2.79-6.02-4.07-9.09c-0.33-0.8-0.67-1.6-0.91-2.43c-0.23-0.78-0.37-1.59-0.52-2.39
				c-0.2-1.12-0.39-2.25-0.5-3.38c-0.08-0.81-0.11-1.62-0.25-2.42c-0.27-1.56-0.96-2.79-1.77-4.11c-0.78-1.27-1.09-2.89-1.54-4.32
				c-0.23-0.74-0.47-1.48-0.6-2.25c-0.14-0.81-0.15-1.65-0.31-2.46c-0.24-1.19-0.77-2.3-1.07-3.47c-0.16-0.62-0.25-1.26-0.34-1.9
				c-0.34-2.43-0.78-4.76-1.33-7.14C110.17,69.31,109.08,65.17,108.07,61.02z"/>
			
				<linearGradient id="SVGID_00000027563129404384021140000011263389090602539658_" gradientUnits="userSpaceOnUse" x1="-18.3497" y1="64.2873" x2="132.9243" y2="80.9666" gradientTransform="matrix(1 0 0 -1 0 149.8898)">
				<stop  offset="2.046131e-03" style="stop-color:#000000"/>
				<stop  offset="8.518680e-03" style="stop-color:#000101;stop-opacity:0.9935"/>
				<stop  offset="0.4987" style="stop-color:#1C3E65;stop-opacity:0.5024"/>
				<stop  offset="0.8393" style="stop-color:#2E65A4;stop-opacity:0.161"/>
				<stop  offset="1" style="stop-color:#3574BC;stop-opacity:0"/>
			</linearGradient>
			<path style="fill:url(#SVGID_00000027563129404384021140000011263389090602539658_);" d="M67.56,125.49
				c-0.1-0.06-0.2-0.11-0.3-0.17c-0.94-0.5-1.96-0.84-2.93-1.28c-1.96-0.91-3.84-2.37-5.52-3.73c-1.2-0.97-2.4-1.94-3.51-3.02
				c-0.07-0.06-0.13-0.13-0.2-0.19c-0.76-0.76-1.42-1.62-1.79-2.64c-0.39-1.08-0.52-2.22-0.57-3.36c-0.12-2.49-0.17-4.98-0.42-7.46
				c-0.15-1.47-0.36-2.93-0.59-4.38c-0.09-0.57-0.38-1.58,0.44-0.9c0.54,0.45,1.15,0.79,1.74,1.17c1.32,0.83,2.52,1.83,3.85,2.64
				c0.38,0,1.19,0.66,1.56,0.83c0.53,0.25,1.1,0.44,1.61,0.71c0.94,0.5,1.91,0.79,2.94,1.11c-0.07-0.32-0.32-0.56-0.55-0.78
				c-1.53-1.52-2.78-3.31-3.68-5.26c-0.45-0.99-0.83-2.02-1.46-2.91c-0.74-1.03-1.8-1.79-2.79-2.59c-0.65-0.53-1.27-1.09-1.87-1.67
				c-0.49-0.48-1.07-0.87-1.5-1.4c-1.24-1.54-1.12-3.51-1.33-5.38c-0.13-1.1-0.25-2.21-0.53-3.29c-0.28-1.07-0.7-2.09-0.99-3.16
				c-0.38-1.37-0.53-2.8-0.68-4.22c-0.06-0.52-0.11-1.04-0.17-1.55c0.99,0.56,1.98,1.12,2.97,1.69c0.45-0.53,0.21-1.33,0.14-2.03
				c-0.08-0.76,0.08-1.53,0.07-2.29c-0.01-0.62-0.08-1.26-0.14-1.88c-0.16-1.72-0.46-3.45-0.8-5.15c-0.35-1.77-0.76-3.53-1.23-5.27
				c-0.23-0.84-0.5-1.66-0.76-2.49c-0.8-2.53-0.22-5.22-0.01-7.82c3.34,0.51,5.62,3.49,8.06,5.83c4.26,4.08,9.84,6.62,13.96,10.84
				c-0.85-1.96-1.71-3.93-2.16-6.02c-0.24-1.11-0.36-2.24-0.56-3.35c-0.51-2.86-1.52-5.6-2.53-8.32c0.88,0.96,1.83,1.95,3.08,2.3
				c0.52,0.14,1.06,0.17,1.6,0.23c1.97,0.24,3.82,1.04,5.63,1.84c-1.6-1.3-2.88-2.99-3.68-4.89c-0.77-1.81-1.16-3.86-2.53-5.27
				c-1.35-1.38-3.36-1.84-5.25-2.23c-1.62-0.34-3.24-0.67-4.86-1.01c-1.73-0.36-3.51-0.74-4.98-1.71c-1.47-0.98-2.58-2.72-2.29-4.46
				c0.23,0.02,0.46,0.04,0.7,0.07c-1.73-1.15-3.7-1.94-5.74-2.32c-1.24-0.23-2.58-0.34-3.54-1.15c0.08-0.16,0.17-0.31,0.25-0.47
				c0.12-0.23-3.24-2.04-3.65-2.2c-1-0.39-2.07-0.84-3.17-0.74c-0.12,0.01-0.24,0.03-0.33,0.1c-0.17,0.12-0.23,0.34-0.27,0.54
				c-0.24,1.25-0.01,2.45,0.14,3.7c0.25,2.11,0.64,4.03,0.19,6.14c-0.27,1.26-0.65,2.5-0.78,3.78c-0.07,0.68-0.07,1.36-0.06,2.04
				c0,0.82,0.01,1.63,0.06,2.45c0.04,0.63,0.26,1.18,0.31,1.79c0.13,1.65,0.17,3.31,0.32,4.96c0.3,3.3,0.7,6.59,0.86,9.91
				c0.02,0.33,0.03,0.66,0.04,0.99c0.1,3.11-0.06,6.23,0.07,9.34c0.13,2.91,0.72,5.78,1.13,8.67c0.85,6.06-0.03,12.22-0.14,18.34
				c-0.03,1.48-0.01,2.95,0.05,4.43c0.03,0.74,0.07,1.47,0.13,2.21c0.04,0.49,0.2,0.93,0.24,1.41c0.12,1.43,0.03,2.9,0.06,4.33
				c0.03,1.44,0.08,2.89,0.12,4.33c0.03,1.04-0.05,2.17,0.14,3.2c0.17,0.9,0.1,1.72,0.07,2.65c-0.07,2.22,0.06,4.45,0.23,6.66
				c0.06,0.8,0.19,1.71,0.85,2.15c0.3,0.2,0.66,0.27,1.01,0.33c1.76,0.32,3.4,0.49,5.19,0.44c-0.16-0.57-0.33-1.15-0.49-1.72
				c3.11-0.72,6.35-0.62,9.54-0.51c1.88,0.06,3.76,0.13,5.61,0.46c2.16,0.39,4.24,1.13,6.36,1.7c0.98,0.26,1.94,0.43,2.93,0.58
				c0.67,0.1,2.44,0.39,2.9,0.92c-1.23-1.44-2.59-2.76-4.07-3.94C68.74,126.27,68.17,125.85,67.56,125.49z"/>
			
				<linearGradient id="SVGID_00000101812696196772270530000012742819575243636359_" gradientUnits="userSpaceOnUse" x1="74.4073" y1="62.6497" x2="78.0246" y2="38.515" gradientTransform="matrix(1 0 0 -1 0 149.8898)">
				<stop  offset="2.046131e-03" style="stop-color:#000000"/>
				<stop  offset="1" style="stop-color:#3574BC;stop-opacity:0"/>
			</linearGradient>
			<path style="fill:url(#SVGID_00000101812696196772270530000012742819575243636359_);" d="M68.38,104.34
				c0.97,0.41,1.99,0.78,3.05,0.78c2.03,0,3.74-1.3,5.41-2.28c1.72-0.99,4.25-2.24,5.02,0.46c0.21,0.72,0.23,1.48,0.43,2.21
				c0.22,0.81,0.64,1.54,0.91,2.34c0.41,1.19,0.47,2.48,0.82,3.69c0.45,1.57,1.38,2.95,2.29,4.3c-0.05-0.79,0.54-1.51,1.26-1.84
				c0.72-0.33,1.54-0.36,2.33-0.35c0.32,0,0.68,0,0.93-0.2c0.16-0.12,0.26-0.31,0.35-0.48c0.45-0.84,0.86-1.7,1.24-2.57
				c0.26-0.59,0.5-1.2,0.58-1.85c0.13-1.03-0.42-2-0.59-3c-0.22-1.24-0.31-2.51-0.26-3.77c0.04-1.09,0.18-2.2-0.05-3.27
				c-0.06-0.27-0.15-0.54-0.34-0.73c-0.18-0.17-0.42-0.24-0.65-0.31c-1.89-0.57-3.78-1.14-5.72-1.54c-0.99-0.2-2.06-0.36-2.99,0.05
				c-1.07,0.46-1.71,1.55-2.56,2.36c-2.01,1.93-5.04,2.21-7.81,2.37c-1.84,0.11-3.73,0.21-5.48-0.35c-2.45-0.77-4.36-2.72-6.74-3.67
				c0.96,1.5,1.83,3.51,3.16,4.72C64.41,102.7,66.6,103.58,68.38,104.34z"/>
			
				<linearGradient id="SVGID_00000082366764380820583950000000496211442541346222_" gradientUnits="userSpaceOnUse" x1="108.9576" y1="33.0578" x2="75.5131" y2="28.136" gradientTransform="matrix(1 0 0 -1 0 149.8898)">
				<stop  offset="2.046131e-03" style="stop-color:#000000"/>
				<stop  offset="1" style="stop-color:#3574BC;stop-opacity:0"/>
			</linearGradient>
			<path style="fill:url(#SVGID_00000082366764380820583950000000496211442541346222_);" d="M80.68,120.21
				c0.34,1.38,0.69,2.76,1.15,4.11c0.65,1.91,1.54,3.74,2.64,5.44c-0.27-0.24-0.12-0.73,0.2-0.92c0.31-0.18,0.7-0.16,1.06-0.12
				c4.74,0.53,9.34,2.07,14.09,2.51c-2.72-2.16-5.63-4.09-8.68-5.74c-0.46-0.25-0.98-0.57-1.06-1.09c-0.04-0.29,0.07-0.59,0.14-0.87
				c0.4-1.48-0.16-3.07-1.03-4.34c-0.56-0.82-1.28-1.61-1.38-2.59c2.52,1.09,5.16,1.92,7.84,2.49c-0.83-0.51-1.73-1.1-2.05-2.02
				c-0.18-0.51-0.16-1.1-0.47-1.55c-0.41-0.6-1.21-0.73-1.92-0.88c-1.44-0.31-2.84-0.93-3.95-1.9c-0.53-0.46-0.99-0.99-1.44-1.52
				c-1.03-1.19-2.07-2.39-3.1-3.58c0.75,2.47,1.68,4.88,2.78,7.21c0.15,0.32,0.31,0.64,0.34,0.99c0.04,0.35-0.07,0.74-0.36,0.94
				c-0.19,0.14-0.44,0.17-0.67,0.18c-0.85,0.03-1.61-0.27-2.38-0.57c-0.48-0.19-1.14-0.53-1.68-0.37
				C79.24,116.48,80.44,119.24,80.68,120.21z"/>
			
				<linearGradient id="SVGID_00000167383242081572465190000005230594015737095822_" gradientUnits="userSpaceOnUse" x1="95.8213" y1="88.1309" x2="89.6248" y2="60.5914" gradientTransform="matrix(1 0 0 -1 0 149.8898)">
				<stop  offset="2.046131e-03" style="stop-color:#000000"/>
				<stop  offset="1" style="stop-color:#3574BC;stop-opacity:0"/>
			</linearGradient>
			<path style="fill:url(#SVGID_00000167383242081572465190000005230594015737095822_);" d="M84.41,75.57
				c3.49,1.41,7.29,1.77,10.99,2.44c1.99,0.36,3.99,0.82,5.78,1.75c2.69,1.39,4.75,3.73,6.74,6.02c-0.97-1.35-2.6-2.11-4.24-2.38
				s-3.32-0.12-4.97,0.03c-2.26,0.19-4.52,0.36-6.79,0.53c-1.01,0.07-2.03,0.15-3.02-0.07c-1.17-0.26-2.22-0.9-3.24-1.54
				c-2.39-1.49-4.78-2.98-7.18-4.46c1.16,0.23,2.37,0.22,3.53-0.03c-0.7,0.15-3.07-3.25-3.47-3.8c-0.56-0.78-2.64-3.26-2-4.19
				c1.24,0.8,2.26,2.31,3.5,3.24C81.38,74.11,82.86,74.94,84.41,75.57z"/>
			
				<linearGradient id="SVGID_00000080887265712181369590000000176724549474428084_" gradientUnits="userSpaceOnUse" x1="70.7065" y1="85.5798" x2="57.0778" y2="63.8203" gradientTransform="matrix(1 0 0 -1 0 149.8898)">
				<stop  offset="2.046131e-03" style="stop-color:#000000"/>
				<stop  offset="1" style="stop-color:#3574BC;stop-opacity:0"/>
			</linearGradient>
			<path style="fill:url(#SVGID_00000080887265712181369590000000176724549474428084_);" d="M64.18,81.05
				c3.13,1.12,6.39,1.89,9.45,3.19c-1.93-1.93-4.22-3.5-6.72-4.59c-1.22-0.53-2.51-0.97-3.54-1.82c-0.87-0.72-1.49-1.7-2.16-2.61
				c-2.19-3-4.99-5.48-7.77-7.94c0.99,1.43,1.36,3.26,1.01,4.96c-0.02,0.1-0.05,0.2-0.11,0.29c-0.12,0.15-0.34,0.18-0.52,0.26
				c-0.85,0.4-1.3,1.8-0.72,2.48c0.81,0.96,2.5,1.68,3.57,2.3C59.06,78.95,61.58,80.12,64.18,81.05z"/>
			
				<linearGradient id="SVGID_00000015325041623766725590000007585180045603638205_" gradientUnits="userSpaceOnUse" x1="88.0664" y1="129.2078" x2="88.4866" y2="125.3211" gradientTransform="matrix(1 0 0 -1 0 149.8898)">
				<stop  offset="2.046131e-03" style="stop-color:#000000"/>
				<stop  offset="1" style="stop-color:#3574BC;stop-opacity:0"/>
			</linearGradient>
			<path style="fill:url(#SVGID_00000015325041623766725590000007585180045603638205_);" d="M85.24,22.34
				c0.74,0.26,1.54,0.35,2.32,0.27c0.42-0.04,0.83-0.14,1.23-0.23c0.5-0.12,1-0.24,1.5-0.36c0.31-0.08,0.63-0.16,0.89-0.34
				c-0.1,0.07-0.48,0.03-0.61,0.04c-0.21,0.01-0.42,0.03-0.63,0.04c-0.43,0.03-0.86,0.06-1.28,0.1c-0.8,0.07-1.61,0.14-2.41,0.23
				C85.9,22.12,85.54,22.14,85.24,22.34z"/>
			
				<linearGradient id="SVGID_00000029743781409199030090000002577628879511543727_" gradientUnits="userSpaceOnUse" x1="12.0978" y1="73.1316" x2="175.3457" y2="75.0261" gradientTransform="matrix(1 0 0 -1 0 149.8898)">
				<stop  offset="0" style="stop-color:#210C29;stop-opacity:0.5"/>
				<stop  offset="0.1381" style="stop-color:#231536;stop-opacity:0.4309"/>
				<stop  offset="0.3912" style="stop-color:#272C57;stop-opacity:0.3043"/>
				<stop  offset="0.7284" style="stop-color:#2E528C;stop-opacity:0.1356"/>
				<stop  offset="0.9994" style="stop-color:#3574BC;stop-opacity:0"/>
			</linearGradient>
			<path style="fill:url(#SVGID_00000029743781409199030090000002577628879511543727_);" d="M78.79,79.22
				c-0.06-1.98-0.43-3.95-1.09-5.82c-0.6-1.71-2.12-3.48-1.93-5.34c0.48,0.26,0.83,0.72,1.19,1.13c1.87,2.1,4.59,3.25,7.3,3.97
				s5.53,1.08,8.21,1.94c-1.39-1.61-2.83-3.17-4.42-4.57c-0.84-0.74-1.73-1.43-2.42-2.31c-0.69-0.88-1.17-1.99-1.03-3.1
				c0.12-0.98,0.7-1.84,1.03-2.78c0.56-1.61,0.23-3.09-0.42-4.6c-0.77-1.8-1.45-3.64-2.14-5.47c-1.09-2.9-1.91-5.89-2.54-8.91
				c-0.12-0.59-0.31-1.21-0.35-1.81c-0.04-0.49,0.05-0.82-0.44-1.16c-0.27-0.19-0.6-0.29-0.92-0.39c-1.91-0.6-3.74-1.44-5.43-2.5
				c-0.69-0.43-1.36-0.9-1.9-1.52c0.39-0.3,0.94-0.12,1.4,0.05c0.77,0.28,1.56,0.48,2.37,0.61c0.49,0.08,1.03,0.11,1.43-0.17
				c0.21-0.15,0.35-0.36,0.5-0.57c1.98-2.71,4.98-2.65,8.02-2.67c-0.46-0.48-1.12-0.7-1.76-0.89c-0.78-0.23-1.58-0.43-2.29-0.83
				c-0.46-0.26-0.88-0.59-1.36-0.78c-0.46-0.18-0.95-0.23-1.44-0.28c-1.69-0.17-3.38-0.35-5.07-0.52c1.96-1.19,4.43-1.01,6.66-1.55
				c0.44-0.11,0.91-0.26,1.17-0.64c0.21-0.3,0.23-0.69,0.35-1.04c0.21-0.6,0.68-1.07,1.13-1.51c-1.45-0.41-3.04,0.38-4.5-0.02
				c-0.2-0.05-0.41-0.14-0.51-0.32c-0.19-0.35,0.11-0.81-0.06-1.17c-0.41,0.04-0.83,0.02-1.23-0.05c-0.14-0.03-0.29-0.07-0.36-0.19
				c-0.05-0.09-0.04-0.21-0.03-0.32c0.07-0.5,0.13-1,0.2-1.49c0.02-0.14,0.03-0.29-0.05-0.4c-0.1-0.13-0.28-0.14-0.44-0.14
				c-1.99-0.02-3.98,0.03-5.96,0.15c-1.82,0.11-3.67,0.48-5.48,0.49c-0.42,0-0.84-0.09-1.25-0.18c-1.1-0.22-2.22-0.35-3.34-0.38
				c-0.42-0.01-0.87,0-1.25,0.18c-0.45,0.22-0.76,0.66-1.15,0.97c-0.74,0.58-1.74,0.69-2.68,0.71c-5.97,0.1-11.68-2.6-17.65-2.72
				c-0.41-0.01-0.92,0.05-1.09,0.42c-0.12,0.25-0.03,0.55-0.03,0.83c0.01,1.04-0.49,1.99-0.15,3.05c0.04,0.14,0.11,0.27,0.16,0.41
				c0.08,0.2,0.13,0.42,0.18,0.63c0.53,2.27,1.07,4.57,0.99,6.9c-0.06,1.72-0.46,3.39-0.75,5.08c-0.13,0.78-0.42,1.8-0.28,2.6
				c0.13,0.72,0.61,1.51,0.89,2.19c0.55,1.36,0.7,2.82,1.37,4.18c1.4,2.86,3.51,5.41,4.26,8.57c0.45,1.9,0.35,3.89,0.25,5.84
				c-0.35,6.55-0.69,13.09-1.04,19.64c-0.05,0.87-0.12,1.66,0.21,2.46c0.35,0.87,0.49,1.79,0.49,2.73c0,1.94-0.55,3.85-1.18,5.67
				c-0.96,2.76-2.12,5.58-1.84,8.49c0.2,2,1.07,3.86,1.71,5.77c2.21,6.63,1.59,13.93,3.69,20.6c0.07,0.21,0.14,0.42,0.28,0.59
				c0.64,0.72,2.36,0.11,3.2,0.09c1.88-0.04,3.78-0.19,5.66-0.19c1.11,0,2.18,0.07,3.28,0.15c1.39,0.1,2.8,0.2,4.13,0.58
				c1.78,0.51,3.59,0.72,5.41,1.02c1.89,0.31,3.78,1.02,5.64,1.48c3.79,0.94,7.63,1.72,11.53,1.99c0.21,0.01,0.43,0.02,0.62-0.07
				c0.27-0.14,0.39-0.46,0.38-0.76c-0.01-0.3-0.14-0.58-0.27-0.85c-1.31-2.81-2.9-5.41-3.51-8.48c-0.67-3.37-1.19-6.82-1.69-10.22
				c-0.26-1.75-0.47-3.5-0.65-5.26c-0.12-1.24-0.81-3.54,0.12-4.57c0.4-0.45,1.04-0.67,1.63-0.57c0.26,0.04,0.55,0.14,0.77,0.01
				c0.35-0.21,0.23-0.73,0.15-1.12c-0.21-1.01,0.11-2.12,0.82-2.86c0.23,0.35,0.12,0.81,0.18,1.22c0.09,0.59,0.55,1.06,1.08,1.34
				s1.12,0.4,1.69,0.55c3.39,0.9,6.35,2.99,9.69,4.04c-0.76-0.83-1.37-1.79-1.79-2.83c-0.64-1.56-0.89-3.31-1.85-4.71
				c-0.51-0.74-1.19-1.33-1.89-1.89c-0.56-0.44-1.16-0.87-1.82-1.14c-0.43-0.18-0.89-0.29-1.29-0.54c-2.07-1.32-4.46-2.24-6.62-3.48
				c-2.3-1.32-4.51-2.79-6.61-4.41c0.36,0.28,1.59,0.28,2.07,0.4c0.76,0.2,1.51,0.43,2.27,0.63c0.62,0.16,3.6,1.15,3.09-0.37
				c-0.21-0.63-0.6-1.18-0.9-1.77C78.65,82.66,78.85,81.03,78.79,79.22z"/>
			
				<linearGradient id="SVGID_00000178916597712758296190000017396247254560636056_" gradientUnits="userSpaceOnUse" x1="82.9124" y1="130.2135" x2="83.2168" y2="126.0372" gradientTransform="matrix(1 0 0 -1 0 149.8898)">
				<stop  offset="0" style="stop-color:#842E9F"/>
				<stop  offset="0.9988" style="stop-color:#CC79E6;stop-opacity:0"/>
			</linearGradient>
			<path style="fill:url(#SVGID_00000178916597712758296190000017396247254560636056_);" d="M100.05,20.79
				c-0.72-0.64-1.63-0.77-2.55-0.94c-1.08-0.19-2.15-0.43-3.23-0.61c-2.29-0.39-4.45-0.12-6.71,0.36c-4.59,0.97-9.23,1.22-13.9,1.43
				c-1.31,0.06-2.62,0.13-3.93,0.19c-1.29,0.06-2.62-0.01-3.83,0.46c-0.15,0.06-0.16,0.26,0,0.31c1,0.33,2,0.27,3.05,0.26
				c1.14-0.01,2.27-0.01,3.41-0.02c2.19-0.02,4.38-0.1,6.56-0.25c2.19-0.15,4.38-0.38,6.55-0.74c2.15-0.36,4.33-0.86,6.52-0.82
				c1.23,0.02,2.44,0.29,3.64,0.54c0.67,0.14,1.27,0.36,1.92,0.5c0.47,0.1,0.84,0.47,1.27,0.69c0.27,0.14,0.56,0.22,0.79,0.41
				c0.04,0.03,0.07,0.06,0.11,0.07c0.23,0.08,0.26-0.21,0.31-0.34c0.06-0.15,0.11-0.31,0.17-0.47
				C100.33,21.44,100.43,21.12,100.05,20.79z"/>
			
				<linearGradient id="SVGID_00000093167978587924120840000016728197066097155984_" gradientUnits="userSpaceOnUse" x1="60.3008" y1="128.4513" x2="60.6056" y2="124.27" gradientTransform="matrix(1 0 0 -1 0 149.8898)">
				<stop  offset="0" style="stop-color:#842E9F"/>
				<stop  offset="0.9988" style="stop-color:#CC79E6;stop-opacity:0"/>
			</linearGradient>
			<path style="fill:url(#SVGID_00000093167978587924120840000016728197066097155984_);" d="M63.44,21.6
				c-0.27,0.08-0.46-0.01-0.74-0.05c-0.29-0.04-0.59-0.08-0.88-0.12c-0.52-0.06-1.04-0.04-1.56,0.02c-1.08,0.13-2.18,0.43-3.09,1.05
				c-0.19,0.13-0.34,0.38-0.25,0.62c0.17,0.47,0.41,0.92,0.61,1.37c0.1,0.21,0.19,0.43,0.3,0.64c0.12,0.22,0.33,0.41,0.44,0.63
				c0.03,0.07,0.14,0.02,0.12-0.05c-0.04-0.21,0.02-0.45,0-0.67c-0.03-0.24-0.08-0.49-0.13-0.73c-0.07-0.34-0.13-0.69-0.2-1.03
				c0.77-0.38,1.58-0.64,2.45-0.72c0.5-0.05,1.01-0.05,1.51-0.04c0.25,0,0.5,0.01,0.76-0.02c0.29-0.04,0.55-0.16,0.83-0.23
				C64.04,22.14,63.86,21.47,63.44,21.6z"/>
			
				<linearGradient id="SVGID_00000135686338203426353190000000235666165725375411_" gradientUnits="userSpaceOnUse" x1="66.2781" y1="125.7635" x2="66.906" y2="117.1519" gradientTransform="matrix(1 0 0 -1 0 149.8898)">
				<stop  offset="0" style="stop-color:#842E9F"/>
				<stop  offset="0.9988" style="stop-color:#CC79E6;stop-opacity:0"/>
			</linearGradient>
			<path style="fill:url(#SVGID_00000135686338203426353190000000235666165725375411_);" d="M68.28,29.23
				c-0.04-0.45-0.08-0.9-0.16-1.34c-0.14-0.86-0.42-1.65-0.99-2.32c-0.56-0.67-1.46-1.11-2.29-1.32c-0.12-0.03-0.24,0.13-0.13,0.23
				c0.58,0.5,1.23,0.87,1.68,1.5c0.16,0.23,0.29,0.48,0.39,0.74c-0.01,0.01-0.03,0.02-0.04,0.02c-0.16,0.09-0.33,0.18-0.49,0.27
				c-0.16,0.08-0.32,0.17-0.48,0.27c-0.04,0.03-0.09,0.05-0.12,0.09c-0.03,0.03-0.06,0.07-0.09,0.1c-0.07,0.07-0.14,0.13-0.2,0.2
				c-0.05,0.05,0,0.15,0.07,0.13c0.08-0.03,0.17-0.06,0.25-0.08c0.04-0.01,0.07-0.02,0.11-0.02c0.06-0.01,0.11-0.03,0.16-0.06
				c0.16-0.07,0.32-0.13,0.48-0.18c0.08-0.03,0.16-0.05,0.25-0.06c0.05-0.01,0.09-0.01,0.14-0.02c0.01,0,0.02,0,0.02,0
				c0.02,0,0.04,0,0.06,0c0.03,0,0.06,0,0.09,0c0.06,0.22,0.11,0.44,0.15,0.67c0.07,0.36,0.11,0.72,0.14,1.08
				c0.04,0.38,0.14,0.82-0.08,1.16c-0.23,0.37-0.62,0.71-0.92,1.03c-0.3,0.34-0.62,0.66-0.89,1.03c-0.19,0.26,0.19,0.64,0.45,0.45
				c0.43-0.32,0.81-0.7,1.2-1.06c0.37-0.33,0.8-0.65,1.04-1.09C68.35,30.19,68.32,29.7,68.28,29.23z"/>
			
				<linearGradient id="SVGID_00000021082306954770150850000000076104350169339784_" gradientUnits="userSpaceOnUse" x1="56.0249" y1="123.9249" x2="56.3179" y2="119.9071" gradientTransform="matrix(1 0 0 -1 0 149.8898)">
				<stop  offset="0" style="stop-color:#842E9F"/>
				<stop  offset="0.9988" style="stop-color:#CC79E6;stop-opacity:0"/>
			</linearGradient>
			<path style="fill:url(#SVGID_00000021082306954770150850000000076104350169339784_);" d="M58.15,25.81
				c-0.29,0.02-0.52,0.2-0.77,0.35c-0.23,0.14-0.45,0.28-0.68,0.43c-0.45,0.3-0.9,0.59-1.34,0.9c-0.21,0.15-0.46,0.29-0.59,0.51
				c-0.11,0.19-0.19,0.42-0.26,0.63c-0.14,0.44-0.4,0.81-0.65,1.2c-0.12,0.18,0.11,0.38,0.28,0.28c0.4-0.22,0.68-0.56,0.92-0.95
				c0.09-0.14,0.18-0.42,0.28-0.51c0.16-0.15,0.39-0.27,0.57-0.39c0.43-0.27,0.85-0.56,1.27-0.85c0.22-0.15,0.44-0.3,0.66-0.47
				c0.21-0.16,0.52-0.32,0.64-0.56C58.61,26.15,58.47,25.78,58.15,25.81z"/>
			
				<linearGradient id="SVGID_00000011033480879890688980000003481200762791333024_" gradientUnits="userSpaceOnUse" x1="45.3204" y1="122.9406" x2="47.9421" y2="135.6519" gradientTransform="matrix(1 0 0 -1 0 149.8898)">
				<stop  offset="0" style="stop-color:#842E9F"/>
				<stop  offset="0.9988" style="stop-color:#CC79E6;stop-opacity:0"/>
			</linearGradient>
			<path style="fill:url(#SVGID_00000011033480879890688980000003481200762791333024_);" d="M56.12,22.7
				c-3.49,0.56-7.22-0.09-10.67-0.72c-1.68-0.31-3.33-0.68-5-1.03c-1.34-0.28-3.35-0.73-4.6,0.04c-0.07,0.05-0.07,0.18,0.03,0.2
				c0.76,0.13,1.54,0.02,2.31,0.11c0.91,0.11,1.8,0.35,2.68,0.59c1.73,0.47,3.45,0.93,5.22,1.25c3.58,0.65,7.11,1.11,10.32,0.6
				C57.08,23.63,56.8,22.59,56.12,22.7z"/>
			
				<linearGradient id="SVGID_00000056422331144916481610000018025804224152281255_" gradientUnits="userSpaceOnUse" x1="44.6056" y1="126.5604" x2="44.6898" y2="125.4058" gradientTransform="matrix(1 0 0 -1 0 149.8898)">
				<stop  offset="0" style="stop-color:#842E9F"/>
				<stop  offset="0.9988" style="stop-color:#CC79E6;stop-opacity:0"/>
			</linearGradient>
			<path style="fill:url(#SVGID_00000056422331144916481610000018025804224152281255_);" d="M45.51,23.94
				c-0.15-0.07-0.33-0.09-0.49-0.14c-0.15-0.04-0.3-0.09-0.44-0.15c-0.13-0.05-0.28-0.12-0.43-0.18c-0.08-0.03-0.15-0.07-0.24-0.08
				c-0.07-0.01-0.13,0-0.2,0.01c-0.05,0.01-0.07,0.06-0.06,0.11c0.03,0.18,0.16,0.28,0.31,0.39c0.13,0.09,0.28,0.16,0.43,0.22
				c0.15,0.07,0.31,0.13,0.47,0.18c0.16,0.05,0.35,0.13,0.52,0.12c0.11,0,0.23-0.08,0.25-0.19C45.65,24.13,45.62,23.99,45.51,23.94z
				"/>
			
				<linearGradient id="SVGID_00000063605994121782591350000010426720039858092714_" gradientUnits="userSpaceOnUse" x1="81.4213" y1="128.0451" x2="81.5478" y2="126.3101" gradientTransform="matrix(1 0 0 -1 0 149.8898)">
				<stop  offset="0" style="stop-color:#842E9F"/>
				<stop  offset="0.9988" style="stop-color:#CC79E6;stop-opacity:0"/>
			</linearGradient>
			<path style="fill:url(#SVGID_00000063605994121782591350000010426720039858092714_);" d="M94.63,21.38
				c-0.54-0.09-1.07-0.03-1.61-0.05c-0.52-0.02-1.03-0.07-1.55-0.08c-1.08-0.01-2.16,0.03-3.24,0.1c-2.17,0.14-4.29,0.42-6.4,0.91
				c-4.43,1.03-8.89,1.42-13.43,1.62c-0.3,0.01-0.3,0.47,0,0.46c2.17-0.07,4.36-0.09,6.53-0.29s4.29-0.59,6.41-1.1
				c2.2-0.52,4.38-0.92,6.64-1.02c1.08-0.05,2.16-0.08,3.24-0.15c0.52-0.03,1.03-0.07,1.55-0.07c0.61-0.01,1.19,0.14,1.8,0.16
				C94.85,21.9,94.92,21.43,94.63,21.38z"/>
			
				<linearGradient id="SVGID_00000072281455962218204100000008860532667949953441_" gradientUnits="userSpaceOnUse" x1="98.6574" y1="127.6646" x2="98.8256" y2="125.3581" gradientTransform="matrix(1 0 0 -1 0 149.8898)">
				<stop  offset="0" style="stop-color:#842E9F"/>
				<stop  offset="0.9988" style="stop-color:#CC79E6"/>
			</linearGradient>
			<path style="fill:url(#SVGID_00000072281455962218204100000008860532667949953441_);" d="M100.66,24.02
				c-0.09-0.16-0.27-0.2-0.42-0.29s-0.29-0.2-0.44-0.3c-0.29-0.2-0.6-0.39-0.92-0.55c-0.31-0.15-0.64-0.26-0.97-0.36
				c-0.17-0.05-0.33-0.07-0.5-0.08c-0.2-0.02-0.4-0.05-0.6-0.08c-0.03,0-0.05,0.04-0.01,0.05c0.18,0.06,0.36,0.13,0.53,0.23
				c0.15,0.09,0.3,0.18,0.46,0.26c0.32,0.15,0.63,0.34,0.94,0.52c0.3,0.17,0.59,0.36,0.86,0.57c0.25,0.19,0.65,0.59,0.99,0.37
				C100.68,24.29,100.72,24.14,100.66,24.02z"/>
			
				<linearGradient id="SVGID_00000114794278370431289690000013142579605760222358_" gradientUnits="userSpaceOnUse" x1="89.8807" y1="132.6873" x2="89.9484" y2="131.759" gradientTransform="matrix(1 0 0 -1 0 149.8898)">
				<stop  offset="0" style="stop-color:#842E9F"/>
				<stop  offset="0.9988" style="stop-color:#CC79E6;stop-opacity:0"/>
			</linearGradient>
			<path style="fill:url(#SVGID_00000114794278370431289690000013142579605760222358_);" d="M93.49,17.24
				c-0.26-0.09-0.61-0.11-0.78-0.13c-0.38-0.05-0.76-0.04-1.15-0.02c-0.6,0.04-1.19,0.09-1.79,0.18c-1.19,0.16-2.54,0.29-3.62,0.85
				c-0.14,0.07-0.07,0.28,0.08,0.28c0.59,0.01,1.17-0.12,1.75-0.21c0.65-0.11,1.3-0.19,1.96-0.26c0.61-0.06,1.23-0.12,1.84-0.16
				c0.4-0.03,0.81-0.02,1.21-0.04c0.17-0.01,0.95,0.04,0.77-0.29C93.72,17.34,93.61,17.28,93.49,17.24z"/>
			
				<linearGradient id="SVGID_00000075159108234155878980000002259015868263515285_" gradientUnits="userSpaceOnUse" x1="26.7268" y1="120.4375" x2="38.8444" y2="118.3249" gradientTransform="matrix(1 0 0 -1 0 149.8898)">
				<stop  offset="0" style="stop-color:#842E9F"/>
				<stop  offset="0.9988" style="stop-color:#CC79E6;stop-opacity:0"/>
			</linearGradient>
			<path style="fill:url(#SVGID_00000075159108234155878980000002259015868263515285_);" d="M36.95,31.97
				c0.03,0.35,0.07,0.7,0.11,1.06c0.01,0.14,0.05,0.29,0.07,0.44c-0.18-0.01-0.28,0.23-0.32,0.36c-0.05,0.16-0.07,0.32-0.09,0.48
				c-0.04,0.29-0.05,0.57-0.06,0.86c0,0.1,0.05,0.19,0.13,0.25c-0.27,0.83-0.46,1.63-0.48,2.54c0,0.1,0.14,0.11,0.17,0.02
				c0.33-1.2,0.99-3.69,2.57-3.76c0.15-0.01,0.3,0.01,0.43-0.06c0.15-0.07,0.24-0.22,0.32-0.36c0.6-1.13,0.72-2.5,0.33-3.71
				c-0.06-0.19-0.13-0.4-0.06-0.59c0.05-0.13,0.16-0.23,0.28-0.32c0.72-0.51,1.66-0.58,2.49-0.9c0.1-0.04,0.2-0.08,0.26-0.17
				c0.14-0.2-0.02-0.46-0.18-0.65c-1.01-1.14-2.3-2.01-3.72-2.54c-0.67-0.25-1.49-0.54-2.21-0.53c-0.79,0.01-0.65,0.47-0.83,1.11
				c-0.03,0.1-0.06,0.19-0.07,0.29c-0.06,0.52-0.01,1.09,0.04,1.61c0.1,1.05,0.23,2.11,0.71,3.05c0.01,0.26,0.03,0.52,0.05,0.78
				C36.9,31.47,36.92,31.72,36.95,31.97z"/>
			
				<linearGradient id="SVGID_00000137105495563941384120000005564538316871400891_" gradientUnits="userSpaceOnUse" x1="48.1749" y1="94.4517" x2="53.4202" y2="76.093" gradientTransform="matrix(1 0 0 -1 0 149.8898)">
				<stop  offset="0" style="stop-color:#842E9F"/>
				<stop  offset="0.9988" style="stop-color:#CC79E6;stop-opacity:0"/>
			</linearGradient>
			<path style="fill:url(#SVGID_00000137105495563941384120000005564538316871400891_);" d="M47.1,50.52
				c-0.15-0.56-0.32-1.12-0.45-1.68c-0.09-0.36-0.1-0.99-0.56-1.04c-0.06-0.01-0.13,0.04-0.16,0.09s-0.04,0.11-0.01,0.16
				c0.09,0.18,0.12,0.38,0.17,0.57c0.07,0.26,0.15,0.52,0.21,0.78c0.12,0.51,0.22,1.02,0.33,1.53c0.22,1.04,0.49,2.07,0.74,3.1
				c0.08,0.31,0.53,0.18,0.47-0.13C47.63,52.77,47.41,51.64,47.1,50.52z"/>
			
				<linearGradient id="SVGID_00000034084391153828581510000010099816639741045669_" gradientUnits="userSpaceOnUse" x1="68.8823" y1="100.3682" x2="74.1276" y2="82.0095" gradientTransform="matrix(1 0 0 -1 0 149.8898)">
				<stop  offset="0" style="stop-color:#842E9F"/>
				<stop  offset="0.9988" style="stop-color:#CC79E6;stop-opacity:0"/>
			</linearGradient>
			<path style="fill:url(#SVGID_00000034084391153828581510000010099816639741045669_);" d="M72.76,60.78
				c-0.18-0.55-0.43-1.07-0.63-1.62s-0.41-1.09-0.61-1.63c-0.19-0.52-0.38-1.05-0.58-1.57c-0.18-0.47-0.38-1.15-0.84-1.42
				c-0.15-0.09-0.39,0.02-0.37,0.21c0.06,0.5,0.47,0.98,0.71,1.42c0.28,0.52,0.49,1.07,0.68,1.63c0.18,0.53,0.32,1.08,0.5,1.61
				s0.34,1.1,0.62,1.59C72.4,61.28,72.87,61.1,72.76,60.78z"/>
			
				<linearGradient id="SVGID_00000147209095341219604800000006537401312129654948_" gradientUnits="userSpaceOnUse" x1="96.6115" y1="67.9581" x2="115.4073" y2="68.978" gradientTransform="matrix(1 0 0 -1 0 149.8898)">
				<stop  offset="0" style="stop-color:#842E9F"/>
				<stop  offset="0.9988" style="stop-color:#CC79E6;stop-opacity:0"/>
			</linearGradient>
			<path style="fill:url(#SVGID_00000147209095341219604800000006537401312129654948_);" d="M113.37,89.97
				c-1-1.81-1.82-3.75-2.47-5.7c-0.63-1.89-1.14-3.97-1.21-5.97c-0.08-2.03-0.03-4.12-0.73-6.05c-0.37-1.02-0.93-1.93-1.59-2.79
				c-0.62-0.81-1.28-1.72-2.12-2.3c-0.1-0.07-0.19,0.06-0.15,0.15c0.41,0.87,1.11,1.59,1.64,2.38c0.55,0.83,1.06,1.72,1.43,2.65
				c0.78,1.96,0.73,4.14,0.91,6.2c0.16,1.95,0.48,3.81,1.05,5.69c0.56,1.83,1.34,3.54,2.24,5.23c0.52,0.96,1.07,1.91,1.67,2.83
				c0.64,1,1.44,1.87,2.08,2.87c0.04,0.07,0.17,0.03,0.14-0.06C115.57,93.28,114.32,91.68,113.37,89.97z"/>
			
				<linearGradient id="SVGID_00000089575961227820326010000008583927979824588429_" gradientUnits="userSpaceOnUse" x1="81.9353" y1="33.6548" x2="82.8779" y2="20.727" gradientTransform="matrix(1 0 0 -1 0 149.8898)">
				<stop  offset="0" style="stop-color:#842E9F"/>
				<stop  offset="0.9988" style="stop-color:#CC79E6"/>
			</linearGradient>
			<path style="fill:url(#SVGID_00000089575961227820326010000008583927979824588429_);" d="M84.59,128.41
				c-1.02-1.92-1.88-3.89-2.5-5.98c-0.29-0.99-0.55-1.98-0.81-2.98c-0.13-0.49-0.27-0.99-0.39-1.48c-0.09-0.37-0.18-0.76,0.03-1.11
				c0.11-0.19,0.19-0.23,0.27-0.42c0.02-0.04-0.02-0.09-0.06-0.1c-0.86-0.26-0.94,1.2-0.87,1.7c0.18,1.26,0.55,2.52,0.89,3.74
				c0.68,2.42,1.45,4.88,2.7,7.07C84.12,129.34,84.86,128.91,84.59,128.41z"/>
			
				<linearGradient id="SVGID_00000144315705556237173290000010845020063042529930_" gradientUnits="userSpaceOnUse" x1="66.4523" y1="99.6739" x2="71.6977" y2="81.3152" gradientTransform="matrix(1 0 0 -1 0 149.8898)">
				<stop  offset="0" style="stop-color:#842E9F"/>
				<stop  offset="0.9988" style="stop-color:#CC79E6;stop-opacity:0"/>
			</linearGradient>
			<path style="fill:url(#SVGID_00000144315705556237173290000010845020063042529930_);" d="M73.62,74.16
				c-0.52-1.21-0.83-2.53-1.27-3.77c-0.89-2.53-1.41-5.17-2.39-7.65c-0.01-0.04-0.08-0.04-0.07,0.01c0.08,2.64,0.93,5.21,1.67,7.73
				c0.37,1.28,0.89,2.48,1.4,3.7c0.46,1.12,1.29,2.2,1.53,3.38c0.05,0.27,0.43,0.15,0.4-0.11C74.71,76.23,74.09,75.26,73.62,74.16z"
				/>
			
				<linearGradient id="SVGID_00000166676542236540778330000015968581324342791854_" gradientUnits="userSpaceOnUse" x1="20.0608" y1="83.5068" x2="42.4123" y2="83.5068" gradientTransform="matrix(1 0 0 -1 0 149.8898)">
				<stop  offset="0" style="stop-color:#842E9F"/>
				<stop  offset="0.9988" style="stop-color:#CC79E6;stop-opacity:0"/>
			</linearGradient>
			<path style="fill:url(#SVGID_00000166676542236540778330000015968581324342791854_);" d="M39.97,80.01
				c0.07-2.08,0.11-4.17,0.18-6.25c0.05-1.59,0.1-3.17,0.23-4.75c0.14-1.63,0.36-3.25,0.58-4.86c0.04-0.31,0.09-0.63,0.22-0.91
				c0.28-0.58,0.91-0.93,1.55-1.04s1.29-0.01,1.93,0.09c-0.56-4.1-4.51-7.04-5.36-11.09c-0.15-0.72-0.21-1.47-0.51-2.14
				c-0.31-0.68-0.85-1.22-1.23-1.85c-0.99-1.64-0.84-3.75-1.71-5.46c0.09,1.07,0.2,2.14,0.23,3.21c0.02,0.62,0.06,1.25,0.12,1.87
				c0.12,1.25,0.26,2.49,0.4,3.74c0.26,2.41,0.53,4.81,0.7,7.23c0.11,1.56,0.21,3.12,0.28,4.68c-0.07,0.5-0.17,1-0.22,1.5
				c-0.06,0.58-0.05,1.17-0.04,1.75c0.01,0.56,0.03,1.13,0.06,1.69c0.02,0.47,0.01,1,0.17,1.46c-0.09,1.04-0.29,2.22,0.04,3.22
				c0.01,0.03,0.03,0.05,0.06,0.06c0.12,0.79,0.25,1.58,0.37,2.38c0.27,1.82,0.59,3.63,0.74,5.47c0.3,3.59,0.22,7.21-0.17,10.79
				c-0.03,0.25,0.38,0.3,0.43,0.06c0.61-2.64,0.75-5.44,0.86-8.12C39.91,81.82,39.94,80.92,39.97,80.01z"/>
			
				<linearGradient id="SVGID_00000121270738799015557320000009730957563295899521_" gradientUnits="userSpaceOnUse" x1="22.2379" y1="33.3031" x2="45.3158" y2="31.2912" gradientTransform="matrix(1 0 0 -1 0 149.8898)">
				<stop  offset="0" style="stop-color:#842E9F"/>
				<stop  offset="0.9988" style="stop-color:#CC79E6;stop-opacity:0"/>
			</linearGradient>
			<path style="fill:url(#SVGID_00000121270738799015557320000009730957563295899521_);" d="M41.88,129.06
				c0.97,0.18,2.12,0.11,2.96,0.11c0.13,0,0.29-0.02,0.34-0.15c0.03-0.08-0.01-0.16-0.04-0.24c-0.26-0.59-0.52-1.18-0.79-1.77
				c-0.25-0.57-0.5-1.13-0.81-1.67c-0.29-0.51-0.64-1-0.83-1.56c-0.23-0.69-0.2-1.43-0.22-2.15c-0.02-1.26-0.17-2.53-0.58-3.72
				c-0.35-1.01-0.89-1.96-1.11-3c-0.21-0.98-0.13-2.01-0.25-3.01c-0.2-1.68-0.95-3.25-1.88-4.67c-0.05,0.62,0.15,1.09,0.29,1.67
				c0.12,0.52,0.02,1.11,0,1.66c-0.05,1.27-0.05,2.53,0,3.8c0.04,0.91,0.09,1.88,0.38,2.75c0.32,0.97,0.06,1.92,0,2.91
				c-0.08,1.4,0,2.79,0.1,4.19c0.09,1.24-0.09,2.44,0.15,3.7c0.01,0.07,0.03,0.15,0.07,0.21c0.05,0.07,0.13,0.12,0.2,0.16
				C40.48,128.62,41.18,128.93,41.88,129.06z"/>
			
				<linearGradient id="SVGID_00000128475213815676949190000015615797019741944200_" gradientUnits="userSpaceOnUse" x1="83.9502" y1="52.4172" x2="85.06" y2="37.1972" gradientTransform="matrix(1 0 0 -1 0 149.8898)">
				<stop  offset="0" style="stop-color:#842E9F"/>
				<stop  offset="0.9988" style="stop-color:#CC79E6"/>
			</linearGradient>
			<path style="fill:url(#SVGID_00000128475213815676949190000015615797019741944200_);" d="M86.56,112.53
				c-0.55-1.21-0.82-2.55-1.18-3.82c-0.34-1.2-0.65-2.41-0.95-3.62c-0.3-1.23-0.59-2.45-0.87-3.68c-0.29-1.27-0.5-2.56-0.98-3.79
				c-0.02-0.06-0.12-0.06-0.12,0.02c0.03,1.33,0.35,2.61,0.63,3.9c0.28,1.28,0.58,2.55,0.89,3.81c0.31,1.25,0.6,2.51,0.99,3.73
				c0.39,1.24,0.93,2.34,1.51,3.49C86.51,112.61,86.58,112.57,86.56,112.53z"/>
			
				<linearGradient id="SVGID_00000111878463455785726470000000677838013244904584_" gradientUnits="userSpaceOnUse" x1="72.7368" y1="23.4939" x2="73.2108" y2="16.9944" gradientTransform="matrix(1 0 0 -1 0 149.8898)">
				<stop  offset="0" style="stop-color:#842E9F"/>
				<stop  offset="0.9988" style="stop-color:#CC79E6"/>
			</linearGradient>
			<path style="fill:url(#SVGID_00000111878463455785726470000000677838013244904584_);" d="M84.28,130.71
				c-0.13-0.23-0.5-0.18-0.56,0.07c-0.23,0.92-2.21,0.46-2.92,0.39c-0.93-0.1-1.85-0.24-2.77-0.42c-1.88-0.35-3.74-0.81-5.59-1.31
				c-1.82-0.49-3.62-1.01-5.46-1.44c-1.82-0.43-3.63-0.6-5.48-0.8c-0.03,0-0.03,0.04-0.01,0.05c1.11,0.21,2.21,0.56,3.29,0.88
				c1.02,0.3,2.04,0.59,3.06,0.88c2.08,0.6,4.16,1.2,6.26,1.75c2.04,0.53,4.1,0.97,6.2,1.21c0.95,0.11,2.05,0.31,3,0.16
				C83.99,132.03,84.69,131.43,84.28,130.71z"/>
			
				<linearGradient id="SVGID_00000059294247282060830270000007295724858843501988_" gradientUnits="userSpaceOnUse" x1="109.2651" y1="25.4987" x2="109.8324" y2="17.7178" gradientTransform="matrix(1 0 0 -1 0 149.8898)">
				<stop  offset="0" style="stop-color:#842E9F"/>
				<stop  offset="0.9988" style="stop-color:#CC79E6"/>
			</linearGradient>
			<path style="fill:url(#SVGID_00000059294247282060830270000007295724858843501988_);" d="M125.8,123.25c0-0.08-0.12-0.08-0.12,0
				c-0.03,1.05-0.59,2.06-1.16,2.92c-0.58,0.89-1.38,1.66-2.26,2.26c-1.82,1.24-4.01,1.93-6.17,2.3c-4.66,0.79-9.54,0.34-14.22-0.08
				c-1.39-0.12-2.77-0.26-4.15-0.41c-1.54-0.17-3.1-0.24-4.63-0.48c-0.05-0.01-0.07,0.06-0.02,0.07c1.36,0.29,2.69,0.69,4.06,0.94
				c1.32,0.24,2.64,0.45,3.97,0.61c2.69,0.32,5.39,0.53,8.1,0.6c4.65,0.12,9.7-0.22,13.57-3.08c0.92-0.68,1.77-1.5,2.37-2.48
				C125.76,125.43,125.85,124.4,125.8,123.25z"/>
			
				<linearGradient id="SVGID_00000106144228583672836820000008402929665977190808_" gradientUnits="userSpaceOnUse" x1="75.3878" y1="119.7158" x2="68.0985" y2="107.4466" gradientTransform="matrix(1 0 0 -1 0 149.8898)">
				<stop  offset="0" style="stop-color:#842E9F"/>
				<stop  offset="0.9988" style="stop-color:#CC79E6;stop-opacity:0"/>
			</linearGradient>
			<path style="fill:url(#SVGID_00000106144228583672836820000008402929665977190808_);" d="M56.43,34.12
				c3.27,2.89,7.1,4.03,11.12,5.42c0.72,0.25,1.44,0.52,2.02,1.01c1.37,1.19,1.49,3.36,2.8,4.62c-0.06-0.18-0.12-0.35-0.19-0.53
				c0.85-0.31,1.78-0.02,2.65,0.23c2.49,0.72,5.06,1.17,7.65,1.33c-3.06-1.15-6.16-2.32-8.84-4.18c3.47-0.42,6.95-0.71,10.44-0.88
				c-3.96-0.44-7.89-1.16-11.75-2.14c-3.74-0.95-7.4-2.14-11.07-3.32C59.67,35.15,58.07,34.51,56.43,34.12z"/>
			
				<linearGradient id="SVGID_00000166643394829984617090000016408231297075393453_" gradientUnits="userSpaceOnUse" x1="90.1852" y1="68.9565" x2="84.2648" y2="49.136" gradientTransform="matrix(1 0 0 -1 0 149.8898)">
				<stop  offset="0" style="stop-color:#842E9F"/>
				<stop  offset="0.9988" style="stop-color:#CC79E6;stop-opacity:0"/>
			</linearGradient>
			<path style="fill:url(#SVGID_00000166643394829984617090000016408231297075393453_);" d="M80.79,97.18
				c1.04-1.15,2.7-1.57,4.24-1.46c1.55,0.11,3.01,0.69,4.46,1.25c3.32,1.31,6.64,2.61,9.96,3.92c-1.8-1.06-3.61-2.11-5.51-2.98
				c-5.77-2.64-12.19-3.48-18.21-5.49c1.34,0.96,2.62,2.01,3.83,3.13c-2.12,3.33-6.39,5.13-10.26,4.33
				c2.14,0.45,3.52,0.92,5.71,0.51C77.22,99.98,79.29,98.85,80.79,97.18z"/>
			
				<linearGradient id="SVGID_00000088813078635394938080000009583179672627894167_" gradientUnits="userSpaceOnUse" x1="126.5534" y1="44.0374" x2="107.2477" y2="31.167" gradientTransform="matrix(1 0 0 -1 0 149.8898)">
				<stop  offset="0" style="stop-color:#842E9F"/>
				<stop  offset="0.9988" style="stop-color:#CC79E6;stop-opacity:0"/>
			</linearGradient>
			<path style="fill:url(#SVGID_00000088813078635394938080000009583179672627894167_);" d="M118.47,122.99
				c0.92,0.29,2.01,0.69,2.22,1.63c0.15,0.69-0.26,1.38-0.66,1.97c-0.72,1.08-1.45,2.16-2.17,3.24c-0.15,0.22-0.31,0.46-0.54,0.59
				c-0.26,0.15-0.57,0.17-0.87,0.19c-2.04,0.1-4.09,0.14-6.13,0.12c2.51-0.54,4.79-2.05,6.27-4.14c-3.39-2.52-6.78-5.05-10.17-7.57
				c-1.02-0.76-2.05-1.53-2.94-2.44c-1.09-1.11-1.96-2.42-2.96-3.61c-1.51-1.82-3.33-3.38-5.35-4.61c2.29,0.97,4.61,1.97,6.5,3.58
				c0.59,0.5,1.15,1.08,1.87,1.37c0.76,0.31,1.62,0.27,2.44,0.27c2.27,0.01,4.55,0.41,6.69,1.17c-0.59-0.21-2.15,0.27-2.84,0.27
				c-0.98,0.01-2.21-0.42-3.14-0.3c-2.13,0.29,1.02,2.33,1.92,3.05C111.54,120.09,114.9,121.88,118.47,122.99z"/>
			
				<linearGradient id="SVGID_00000156568880673270672570000011175527836629967038_" gradientUnits="userSpaceOnUse" x1="61.1267" y1="59.7279" x2="62.2811" y2="74.3021" gradientTransform="matrix(1 0 0 -1 0 149.8898)">
				<stop  offset="0" style="stop-color:#842E9F"/>
				<stop  offset="0.9988" style="stop-color:#CC79E6;stop-opacity:0"/>
			</linearGradient>
			<path style="fill:url(#SVGID_00000156568880673270672570000011175527836629967038_);" d="M68.97,82.87
				c1.66,0.62,3.38,1.22,4.66,2.44c-2.49-0.92-4.99-1.85-7.48-2.77c-0.94-0.35-1.9-0.7-2.9-0.72c-0.71-0.02-1.41,0.13-2.12,0.11
				c-1.49-0.04-2.86-0.79-4.13-1.57c-1.81-1.1-3.57-2.28-5.28-3.54c0.78,0.08,1.57,0.16,2.35,0.24c-0.88-0.08-3.23-2.31-3.79-2.96
				c1.35-0.98,7.05,3.45,8.54,4.23C62.11,80.05,65.5,81.57,68.97,82.87z"/>
			<g>
				<path d="M35.72,24.79c-0.13,1.59,0.15,3.12,0.44,4.67c0.31,1.66,0.48,3.3,0.15,4.98c-0.35,1.76-0.81,3.43-0.83,5.24
					c-0.03,1.85,0.05,3.72,0.15,5.57c0.22,3.76,0.64,7.51,0.92,11.27c0.28,3.77,0.33,7.52,0.41,11.29c0.03,1.83,0.14,3.64,0.39,5.45
					c0.26,1.86,0.64,3.71,0.9,5.57c0.53,3.78,0.18,7.55-0.01,11.34c-0.38,7.58,0.04,15.17,0.39,22.74c0.09,1.88,0.19,3.76,0.27,5.64
					c0.08,1.83,0.02,3.67,0.07,5.5c0.03,0.93,0.04,1.86,0.11,2.79c0.06,0.75,0.02,1.39,0.68,1.85c1.25,0.86,3.08,1.02,4.55,1.01
					c0.86-0.01,1.71-0.12,2.56-0.24c0.21-0.03,0.36-0.32,0.29-0.51c-0.13-0.35-0.27-0.69-0.4-1.04c-0.01-0.03-0.09-0.25-0.1-0.23
					c0.04-0.06,0.57-0.07,0.66-0.08c0.76-0.08,1.53-0.15,2.3-0.19c1.46-0.09,2.93-0.11,4.4-0.07c2.99,0.08,5.96,0.44,8.9,0.99
					c5.76,1.07,11.33,3.11,17.15,3.86c0.83,0.11,1.66,0.19,2.49,0.25c0.64,0.05,1.39,0.19,2.01-0.04c0.51-0.18,0.76-0.61,0.7-1.14
					c-0.1-0.78-0.51-1.62-0.76-2.36c-0.13,0.17-0.27,0.35-0.4,0.52c5.33-0.22,10.45,1.47,15.65,2.34c2.31,0.38,4.62,0.51,6.95,0.59
					c2.22,0.08,4.44,0.1,6.65-0.06c3.65-0.26,7.37-1.05,10.31-3.36c1.01-0.8,1.85-1.8,2.3-3.02c0.53-1.43,0.4-3.01-0.04-4.45
					c-0.31-1.02-0.78-1.99-1.31-2.91c-0.33-0.58-0.72-1.12-1.08-1.68c-0.32-0.5-0.47-1.06-0.62-1.63c-0.32-1.21-0.85-2.35-1.33-3.51
					c-0.5-1.2-1-2.41-1.43-3.63c-0.43-1.22-0.8-2.47-1.04-3.74c-0.24-1.3-0.32-2.62-0.49-3.93c-0.16-1.2-0.39-2.39-0.86-3.51
					c-0.48-1.14-1.15-2.18-1.69-3.29c-0.6-1.23-0.93-2.55-1.21-3.88c-0.29-1.38-0.57-2.77-0.85-4.15c-0.56-2.75-1.12-5.49-1.68-8.24
					c-1.1-5.31-2.26-10.61-3.78-15.81c-0.77-2.63-1.64-5.23-2.59-7.8c-0.95-2.56-1.93-5.12-2.72-7.73
					c-0.75-2.47-1.54-4.94-2.24-7.42c-0.69-2.44-1.22-4.94-1.25-7.48c-0.01-1.08,0.09-2.16,0.13-3.23c0.02-0.53-0.81-0.53-0.83,0
					c-0.04,1.11-0.15,2.22-0.13,3.33c0.02,1.22,0.15,2.44,0.35,3.64c0.42,2.47,1.18,4.86,1.92,7.25c0.78,2.48,1.47,4.99,2.34,7.44
					c0.89,2.51,1.87,4.99,2.73,7.52c3.51,10.28,5.38,21.07,7.55,31.69c0.26,1.26,0.49,2.53,0.9,3.75c0.41,1.21,1.04,2.3,1.64,3.41
					c0.61,1.14,1.06,2.3,1.29,3.58c0.23,1.27,0.31,2.55,0.47,3.83c0.32,2.5,1.13,4.86,2.07,7.19c0.49,1.21,1.01,2.41,1.49,3.62
					c0.39,0.98,0.5,2.11,1.05,3.02c0.64,1.08,1.37,2.07,1.89,3.22c0.38,0.84,0.69,1.75,0.81,2.67c0.18,1.38-0.11,2.74-0.93,3.87
					c-0.75,1.03-1.82,1.79-2.92,2.41c-1.66,0.94-3.46,1.49-5.33,1.81c-2.19,0.38-4.44,0.46-6.66,0.45
					c-2.13-0.01-4.28-0.06-6.41-0.22c-5.2-0.4-10.18-2.14-15.36-2.65c-1.24-0.12-2.48-0.17-3.72-0.12c-0.25,0.01-0.49,0.26-0.4,0.52
					c0.23,0.68,0.53,1.38,0.69,2.08c0.11,0.46-0.17,0.49-0.56,0.49c-0.36,0.01-0.72-0.03-1.07-0.06c-1.52-0.1-3.04-0.29-4.54-0.55
					c-2.86-0.5-5.65-1.32-8.46-2.05c-5.62-1.46-11.37-2.55-17.2-2.53c-1.68,0-3.35,0.09-5.02,0.26c-0.52,0.05-1.38-0.02-1.63,0.57
					c-0.23,0.56,0.27,1.34,0.46,1.85c0.1-0.17,0.19-0.34,0.29-0.51c-1.71,0.25-3.44,0.32-5.13-0.1c-0.39-0.1-0.77-0.23-1.12-0.43
					c-0.44-0.26-0.43-0.47-0.47-0.97c-0.08-0.89-0.1-1.79-0.12-2.68c-0.05-1.83,0-3.66-0.06-5.49c-0.07-1.85-0.18-3.69-0.26-5.54
					c-0.34-7.4-0.76-14.8-0.46-22.21c0.15-3.65,0.58-7.31,0.23-10.96c-0.35-3.62-1.25-7.14-1.42-10.78
					c-0.16-3.69-0.08-7.38-0.32-11.07c-0.24-3.66-0.6-7.3-0.89-10.95c-0.15-1.81-0.21-3.62-0.27-5.44
					c-0.06-1.85-0.09-3.66,0.33-5.48c0.38-1.65,0.76-3.24,0.63-4.96c-0.12-1.5-0.52-2.95-0.7-4.43c-0.1-0.79-0.12-1.57-0.05-2.36
					C36.59,24.26,35.76,24.26,35.72,24.79L35.72,24.79z"/>
			</g>
			<g>
				<path d="M83.54,127.9c-1.1-2.08-1.93-4.29-2.49-6.58c-0.28-1.14-0.48-2.29-0.61-3.45c-0.03-0.28-0.07-0.55-0.08-0.83
					c-0.02-0.43,0.17-0.67,0.59-0.77c0.61-0.16,1.26,0.08,1.81,0.33c0.85,0.37,1.85,0.84,2.73,0.27c0.3-0.2,0.54-0.5,0.57-0.87
					c0.04-0.52-0.3-1.03-0.52-1.48c-1.01-2.14-1.85-4.35-2.52-6.61c-0.76-2.57-1.29-5.2-1.6-7.86c-0.02-0.13-0.22-0.13-0.21,0
					c0.54,4.7,1.79,9.31,3.71,13.63c0.24,0.53,0.49,1.06,0.74,1.58c0.13,0.27,0.24,0.58,0.16,0.88c-0.07,0.25-0.26,0.44-0.47,0.57
					c-1.05,0.66-2.2-0.26-3.2-0.56c-0.48-0.14-1.02-0.2-1.5,0.01c-0.5,0.22-0.53,0.63-0.48,1.12c0.1,1.14,0.28,2.27,0.52,3.38
					c0.55,2.56,1.46,5.04,2.68,7.35C83.42,128.12,83.6,128.01,83.54,127.9L83.54,127.9z"/>
			</g>
			<g>
				<path d="M46.21,127.76c-0.49-2.67-0.86-5.36-1.15-8.06c-0.31-2.89-0.51-5.79-0.56-8.69c-0.02-1.37-0.02-2.74,0.04-4.1
					c0.03-0.65,0.07-1.31,0.12-1.96c0.05-0.63,0.08-1.29,0.24-1.9c0.09-0.33,0.23-0.65,0.49-0.88c0.28-0.24,0.65-0.33,0.97-0.49
					c0.5-0.24,0.86-0.66,1.09-1.17c0.24-0.53,0.34-1.11,0.39-1.68c0.08-0.76,0.09-1.54,0.14-2.3c0.19-3.46,0.37-6.91,0.56-10.37
					c0.02-0.43,0.05-0.86,0.07-1.28c0.01-0.13-0.2-0.13-0.21,0c-0.19,3.47-0.37,6.95-0.56,10.42c-0.05,0.86-0.09,1.71-0.14,2.57
					c-0.04,0.66-0.07,1.33-0.23,1.98c-0.15,0.59-0.43,1.17-0.95,1.52c-0.53,0.36-1.18,0.42-1.55,1c-0.33,0.52-0.37,1.16-0.44,1.75
					c-0.07,0.62-0.12,1.25-0.16,1.87c-0.09,1.37-0.11,2.74-0.1,4.11c0.02,2.9,0.2,5.8,0.48,8.68c0.27,2.73,0.62,5.45,1.09,8.15
					c0.05,0.3,0.11,0.6,0.16,0.9C46.03,127.95,46.23,127.89,46.21,127.76L46.21,127.76z"/>
			</g>
			<g>
				<path d="M48.63,83.95c0-0.32,0.15-0.58,0.44-0.73c-0.05-0.03-0.1-0.06-0.16-0.09c0.16,1.76,0.66,3.48,1.48,5.05
					c0.06,0.12,0.24,0.01,0.18-0.1c-0.8-1.54-1.29-3.22-1.45-4.94c-0.01-0.08-0.08-0.13-0.16-0.09c-0.34,0.18-0.54,0.52-0.54,0.91
					C48.42,84.08,48.63,84.08,48.63,83.95L48.63,83.95z"/>
			</g>
			<g>
				<path d="M81.37,99.46c0.01-0.78,0.33-1.5,0.88-2.04c-0.06-0.02-0.12-0.03-0.17-0.05c1.03,4.53,1.65,9.21,3.46,13.52
					c0.5,1.19,1.09,2.34,1.79,3.43c0.07,0.11,0.25,0.01,0.18-0.1c-2.53-3.93-3.51-8.57-4.43-13.08c-0.26-1.28-0.52-2.55-0.81-3.82
					c-0.02-0.08-0.12-0.1-0.17-0.05c-0.59,0.58-0.93,1.36-0.94,2.19C81.16,99.59,81.37,99.59,81.37,99.46L81.37,99.46z"/>
			</g>
			<g>
				<path d="M116.05,94.39c-2.12-3.2-3.88-6.73-5.09-10.38c-0.59-1.79-0.99-3.6-1.11-5.49c-0.13-2.14-0.1-4.33-0.75-6.4
					c-0.72-2.3-2.36-4.01-4.23-5.44c-0.08-0.06-0.17,0.04-0.15,0.12c0.78,2.91,1.56,5.83,2.33,8.74c0.03,0.13,0.23,0.07,0.2-0.05
					c-0.78-2.91-1.56-5.83-2.33-8.74c-0.05,0.04-0.1,0.08-0.15,0.12c1.73,1.32,3.29,2.9,4.03,4.99c0.74,2.08,0.72,4.32,0.84,6.5
					c0.1,1.81,0.43,3.54,0.98,5.27c0.59,1.88,1.36,3.71,2.22,5.49c0.9,1.86,1.9,3.67,3.04,5.39
					C115.95,94.6,116.13,94.5,116.05,94.39L116.05,94.39z"/>
			</g>
			<g>
				<path d="M75.3,78.32c-1.52-4.19-2.96-8.41-4.33-12.65c-1.37-4.24-2.66-8.51-3.87-12.79c-0.68-2.42-1.35-4.84-1.98-7.27
					c-0.06,0.03-0.13,0.05-0.19,0.08c0.6,1.07,1.19,2.14,1.79,3.21c0.06,0.12,0.24,0.01,0.18-0.1c-0.6-1.07-1.19-2.14-1.79-3.21
					c-0.06-0.1-0.22-0.03-0.19,0.08c1.13,4.31,2.33,8.6,3.61,12.87s2.64,8.51,4.07,12.73c0.81,2.38,1.64,4.75,2.5,7.11
					C75.15,78.5,75.35,78.45,75.3,78.32L75.3,78.32z"/>
			</g>
			<g>
				<path d="M69.61,54.81c1,1.93,1.85,3.94,2.53,6.01c0.04,0.13,0.24,0.07,0.2-0.05c-0.69-2.08-1.55-4.11-2.56-6.06
					C69.73,54.59,69.55,54.69,69.61,54.81L69.61,54.81z"/>
			</g>
			<g>
				<path d="M45.78,47.87c0.35,2.12,0.87,4.2,1.57,6.23c0.04,0.13,0.24,0.07,0.2-0.05c-0.7-2.03-1.22-4.11-1.57-6.23
					C45.96,47.68,45.76,47.74,45.78,47.87L45.78,47.87z"/>
			</g>
			<g>
				<path d="M63.94,22.28c2.3-0.31,4.57-0.66,6.89-0.75c1.56-0.06,3.11-0.1,4.66-0.2c1.58-0.1,3.15-0.23,4.72-0.36
					c1.58-0.13,3.16-0.27,4.72-0.53c1.54-0.26,3.05-0.68,4.6-0.9c2.81-0.39,5.71-0.06,8.38,0.91c0.37,0.13,0.73,0.28,1.09,0.44
					c0.2,0.09,0.7,0.22,0.68,0.5c-0.01,0.2-0.11,0.39-0.15,0.59c-0.03,0.18-0.04,0.36-0.03,0.55c0.03,0.4,0.15,0.78,0.29,1.15
					c0.28,0.73,0.51,1.43,0.53,2.22c0.02,0.78-0.14,1.56-0.47,2.27c0.16-0.06,0.31-0.13,0.47-0.19c-0.29-0.05-0.45-0.25-0.61-0.5
					c-0.19-0.32-0.34-0.66-0.54-0.97c-0.23-0.37-0.52-0.68-0.92-0.86c-0.5-0.22-1.05-0.3-1.59-0.4c-2.32-0.42-4.67-0.67-7.03-0.76
					c-4.6-0.18-9.19,0.23-13.75,0.7c-2.66,0.27-5.32,0.57-7.98,0.8c-0.53,0.04-0.53,0.87,0,0.83c4.67-0.4,9.32-1.01,14-1.34
					c4.55-0.31,9.15-0.32,13.66,0.42c0.63,0.1,1.28,0.2,1.9,0.36c0.47,0.12,0.78,0.32,1.03,0.73c0.4,0.67,0.72,1.66,1.61,1.8
					c0.17,0.03,0.38-0.02,0.47-0.19c0.62-1.33,0.77-2.86,0.34-4.27c-0.2-0.66-0.63-1.34-0.58-2.05c0.02-0.32,0.18-0.61,0.18-0.93
					c0-0.39-0.23-0.7-0.56-0.9c-0.6-0.37-1.33-0.61-2-0.84c-0.69-0.24-1.4-0.44-2.12-0.6c-1.44-0.32-2.92-0.46-4.4-0.43
					c-1.58,0.04-3.13,0.33-4.67,0.66c-1.57,0.34-3.14,0.6-4.75,0.76c-3.24,0.31-6.49,0.57-9.74,0.67c-1.43,0.05-2.85,0.09-4.27,0.24
					c-1.37,0.15-2.72,0.37-4.08,0.55c-0.22,0.03-0.41,0.17-0.41,0.41C63.53,22.06,63.72,22.31,63.94,22.28L63.94,22.28z"/>
			</g>
			<g>
				<path d="M55.8,26.43c-1.39-0.02-2.78-0.09-4.15-0.27c-1.35-0.18-2.68-0.48-4-0.79c-1.58-0.38-3.14-0.85-4.72-1.25
					c-1.57-0.39-3.18-0.66-4.79-0.75c-0.6-0.04-1.15,0.16-1.62,0.53c-0.12,0.09-0.23,0.19-0.33,0.3c-0.04,0.04-0.15,0.12-0.16,0.17
					c-0.01,0.01-0.02,0.02-0.03,0.03c0.07,0,0.08-0.02,0.03-0.06c0-0.03-0.06-0.13-0.06-0.15c-0.02-0.07-0.02-0.13-0.02-0.2
					c-0.01-0.19,0.02-0.39,0.04-0.58c0.04-0.34,0.11-0.68,0.18-1.01c0.04-0.19,0.09-0.38,0.11-0.57c0.03-0.23-0.01-0.43-0.04-0.66
					c-0.05-0.28-0.01-0.25,0.26-0.3c0.38-0.07,0.76-0.12,1.14-0.14c1.58-0.06,3.12,0.38,4.62,0.84c1.5,0.45,3.01,0.89,4.55,1.2
					c3.23,0.65,6.48,0.68,9.76,0.39c0.22-0.02,0.41-0.18,0.41-0.41c0-0.21-0.19-0.43-0.41-0.41c-3.04,0.27-6.08,0.29-9.1-0.27
					c-1.61-0.3-3.19-0.74-4.75-1.21c-1.57-0.48-3.18-0.95-4.84-0.94c-0.42,0-0.84,0.04-1.25,0.11c-0.29,0.05-0.61,0.08-0.86,0.24
					c-0.3,0.18-0.41,0.52-0.38,0.86c0.02,0.2,0.08,0.39,0.07,0.59c-0.01,0.2-0.07,0.39-0.12,0.58c-0.09,0.41-0.15,0.82-0.2,1.23
					c-0.04,0.35-0.06,0.71,0.07,1.05s0.43,0.65,0.81,0.65c0.4,0.01,0.62-0.32,0.89-0.56c0.2-0.18,0.42-0.34,0.68-0.41
					c0.3-0.08,0.6-0.04,0.9-0.01c0.86,0.09,1.72,0.15,2.57,0.32c1.68,0.32,3.32,0.83,4.98,1.27c2.8,0.74,5.63,1.3,8.54,1.41
					c0.41,0.02,0.82,0.03,1.23,0.03C56.33,27.27,56.33,26.44,55.8,26.43L55.8,26.43z"/>
			</g>
			<g>
				<path d="M36.76,24.72c-0.09,0.3-0.14,0.14-0.08,0.13c0.05-0.01,0.11-0.04,0.16-0.05c0.07-0.02,0.16-0.04,0.23-0.05
					c0.25-0.03,0.5,0.02,0.74,0.07c0.67,0.14,1.31,0.4,1.94,0.67c1.28,0.55,2.56,1.07,3.89,1.49c1.32,0.42,2.67,0.75,4.04,0.99
					c0.7,0.12,1.4,0.22,2.1,0.3c0.69,0.08,1.4,0.16,2.09,0.14c0.38-0.01,0.76-0.06,1.12-0.2c0.35-0.13,0.67-0.31,1.01-0.47
					c0.55-0.26,1.19-0.47,1.8-0.48c0.53,0,0.53-0.83,0-0.83c-0.6,0-1.21,0.18-1.76,0.39c-0.63,0.24-1.2,0.66-1.89,0.73
					c-0.72,0.08-1.47-0.03-2.19-0.1c-0.71-0.07-1.41-0.17-2.11-0.3c-1.43-0.26-2.84-0.61-4.22-1.06c-1.38-0.45-2.7-1.03-4.04-1.58
					c-0.73-0.3-1.52-0.59-2.32-0.62c-0.44-0.01-1.15,0.11-1.3,0.59C35.81,25.01,36.6,25.22,36.76,24.72L36.76,24.72z"/>
			</g>
			<g>
				<path d="M100.14,21.05c0.27-0.41,0.41-0.87,0.46-1.35c0.01-0.14-0.09-0.29-0.2-0.36c-1.39-0.74-2.85-1.35-4.36-1.8
					c-1.53-0.46-3.15-0.83-4.75-0.85c-1.63-0.02-3.17,0.47-4.69,1.01c-1.49,0.53-2.99,1.02-4.52,1.43
					c-1.68,0.46-3.38,0.84-5.09,1.21c-0.52,0.12-0.3,0.91,0.22,0.8c3-0.67,5.98-1.37,8.88-2.39c1.43-0.5,2.88-1.08,4.41-1.21
					c1.58-0.13,3.17,0.2,4.68,0.61c1.67,0.45,3.27,1.09,4.8,1.9c-0.07-0.12-0.14-0.24-0.2-0.36c-0.04,0.34-0.17,0.65-0.35,0.94
					C99.14,21.08,99.86,21.5,100.14,21.05L100.14,21.05z"/>
			</g>
			<g>
				<path d="M68.37,24.36c3.4,0.28,6.79-0.17,10.13-0.77c3.4-0.61,6.79-1.37,10.23-1.69c1.91-0.17,3.83-0.2,5.74,0.01
					c0.13,0.01,0.13-0.19,0-0.21c-3.38-0.38-6.78,0.01-10.11,0.59c-3.41,0.59-6.79,1.37-10.24,1.74c-1.91,0.21-3.84,0.28-5.75,0.12
					C68.24,24.14,68.24,24.35,68.37,24.36L68.37,24.36z"/>
			</g>
			<g>
				<path d="M84.85,22.43c1.12,0.38,2.31,0.44,3.47,0.21c1.19-0.25,2.33-0.73,3.56-0.77c0.13,0,0.13-0.21,0-0.21
					c-1.15,0.04-2.23,0.46-3.34,0.72c-1.21,0.29-2.44,0.26-3.63-0.15C84.78,22.19,84.73,22.39,84.85,22.43L84.85,22.43z"/>
			</g>
			<g>
				<path d="M96.4,22.49c0.82,0.15,1.6,0.44,2.32,0.85c0.36,0.21,0.7,0.44,1.03,0.71c0.32,0.27,0.68,0.56,0.82,0.97
					c0.04,0.12,0.24,0.07,0.2-0.05c-0.14-0.39-0.43-0.68-0.74-0.95c-0.34-0.29-0.7-0.55-1.08-0.78c-0.77-0.46-1.61-0.77-2.49-0.94
					C96.32,22.27,96.27,22.47,96.4,22.49L96.4,22.49z"/>
			</g>
			<g>
				<path d="M35.84,21.66c1.37,0.45,2.87,0.95,4.33,0.81c1-0.09,1.95-0.24,2.95-0.02c0.95,0.21,1.84,0.63,2.72,1.04
					c0.12,0.06,0.22-0.12,0.1-0.18c-0.85-0.4-1.71-0.8-2.63-1.03c-0.96-0.23-1.88-0.16-2.85-0.05c-0.81,0.09-1.57,0.02-2.37-0.15
					c-0.74-0.16-1.48-0.38-2.2-0.62C35.77,21.42,35.71,21.62,35.84,21.66L35.84,21.66z"/>
			</g>
			<g>
				<path d="M85.18,23.14c0.93,0.48,1.99,0.69,3.03,0.56c1.08-0.13,2.04-0.7,3.11-0.85c0.13-0.02,0.08-0.22-0.05-0.2
					c-1.01,0.14-1.91,0.66-2.91,0.82c-1.05,0.17-2.13-0.02-3.07-0.51C85.16,22.9,85.06,23.08,85.18,23.14L85.18,23.14z"/>
			</g>
			<g>
				<path d="M43.68,23.39c0.67,0.35,1.38,0.64,2.11,0.85c0.13,0.04,0.18-0.16,0.05-0.2c-0.71-0.21-1.4-0.49-2.06-0.83
					C43.66,23.15,43.56,23.33,43.68,23.39L43.68,23.39z"/>
			</g>
			<g>
				<path d="M58.79,25.79c-0.45-0.74-0.88-1.51-1.31-2.26c-0.12-0.21-0.22-0.41-0.28-0.64c-0.04-0.12-0.03-0.08,0.07-0.17
					c0.08-0.08,0.17-0.15,0.26-0.21c0.4-0.28,0.84-0.47,1.31-0.56c0.52-0.11,0.3-0.9-0.22-0.8c-0.56,0.11-1.11,0.35-1.57,0.69
					c-0.24,0.18-0.55,0.39-0.65,0.69c-0.11,0.31,0,0.64,0.12,0.93c0.21,0.5,0.52,0.95,0.78,1.41c0.26,0.45,0.51,0.9,0.77,1.35
					C58.36,26.67,59.07,26.25,58.79,25.79L58.79,25.79z"/>
			</g>
			<g>
				<path d="M58.6,27.27c0.31,0.87,1.24,0.94,2.04,1.01c0.89,0.08,1.79,0.11,2.69,0.09c0.53-0.01,0.53-0.84,0-0.83
					c-0.76,0.01-1.51-0.01-2.27-0.06c-0.34-0.02-0.69-0.04-1.02-0.1c-0.22-0.03-0.55-0.1-0.64-0.34c-0.07-0.21-0.28-0.35-0.51-0.29
					C58.69,26.82,58.53,27.06,58.6,27.27L58.6,27.27z"/>
			</g>
			<g>
				<path d="M58.85,21.94c0.99-0.27,2.02-0.33,3.03-0.16c0.66,0.12,1.29,0.35,1.95,0.48c0.52,0.1,0.74-0.69,0.22-0.8
					c-0.7-0.14-1.38-0.39-2.09-0.5c-1.12-0.18-2.24-0.12-3.33,0.18C58.12,21.28,58.33,22.08,58.85,21.94L58.85,21.94z"/>
			</g>
			<g>
				<path d="M57.89,25.2c-0.53,0.4-1.08,0.77-1.66,1.08c-0.54,0.3-1.17,0.5-1.67,0.86c-0.49,0.35-0.8,0.85-1.02,1.4
					c-0.23,0.56-0.48,1.21-0.47,1.82c0.01,0.53,0.83,0.53,0.83,0c0-0.3,0.09-0.57,0.18-0.85c0.08-0.24,0.15-0.48,0.25-0.72
					c0.2-0.47,0.48-0.86,0.93-1.11c0.51-0.28,1.04-0.49,1.55-0.77c0.53-0.3,1.03-0.63,1.51-1c0.18-0.14,0.27-0.36,0.15-0.57
					C58.35,25.17,58.07,25.06,57.89,25.2L57.89,25.2z"/>
			</g>
			<g>
				<path d="M53.59,30.75c0.39-0.06,0.77-0.18,1.16-0.22c0.41-0.05,0.75,0.03,1.13,0.17s0.77,0.24,1.17,0.3
					c0.41,0.06,0.85,0.14,1.26,0.13c0.85-0.02,1.45-0.54,2.06-1.07c0.65-0.57,1.31-1.13,1.98-1.68c0.41-0.34-0.18-0.92-0.58-0.58
					c-0.64,0.53-1.28,1.07-1.91,1.61c-0.28,0.24-0.55,0.5-0.86,0.69c-0.34,0.2-0.69,0.22-1.08,0.19c-0.37-0.04-0.75-0.09-1.12-0.17
					c-0.39-0.09-0.75-0.26-1.13-0.36c-0.78-0.2-1.53,0.07-2.3,0.2c-0.22,0.04-0.34,0.31-0.29,0.51
					C53.14,30.7,53.37,30.79,53.59,30.75L53.59,30.75z"/>
			</g>
			<g>
				<path d="M62.22,26.99c0.61,0.27,0.99,0.84,1.12,1.49c0.14,0.69,0.27,1.39,0.49,2.06c0.25,0.78,0.61,1.47,1.09,2.12
					c0.14,0.19,0.25,0.44,0.46,0.56c0.42,0.24,0.77-0.18,1.06-0.44c0.49-0.44,0.96-0.89,1.48-1.3c0.25-0.2,0.53-0.37,0.7-0.65
					c0.2-0.32,0.22-0.7,0.18-1.06c-0.1-0.88-0.29-1.75-0.43-2.62c-0.07-0.44-0.15-0.89-0.36-1.29c-0.09-0.16-0.2-0.31-0.31-0.46
					c-0.12-0.16-0.22-0.35-0.35-0.5c-0.27-0.33-0.64-0.47-1.02-0.62c-0.47-0.19-0.94-0.38-1.42-0.58c-0.21-0.08-0.45,0.09-0.51,0.29
					c-0.06,0.24,0.08,0.42,0.29,0.51c0.5,0.2,1.01,0.41,1.51,0.61c0.16,0.07,0.34,0.14,0.47,0.26c0.14,0.13,0.23,0.32,0.34,0.48
					c0.29,0.38,0.42,0.74,0.51,1.21c0.1,0.52,0.18,1.05,0.27,1.57c0.08,0.47,0.23,0.98,0.21,1.47c-0.01,0.4-0.38,0.58-0.66,0.8
					c-0.24,0.19-0.47,0.37-0.69,0.58c-0.2,0.18-0.4,0.37-0.6,0.55c-0.17,0.16-0.37,0.41-0.58,0.5c0.07-0.02,0.14-0.04,0.21-0.06
					c-0.02,0-0.04,0-0.06,0c0.07,0.02,0.14,0.04,0.21,0.06c0.03,0.04,0.02,0.03-0.02-0.04c-0.02-0.03-0.04-0.06-0.06-0.08
					c-0.03-0.04-0.05-0.08-0.08-0.11c-0.05-0.07-0.1-0.13-0.14-0.2c-0.11-0.15-0.21-0.3-0.31-0.45c-0.25-0.4-0.42-0.81-0.57-1.26
					c-0.11-0.33-0.2-0.67-0.28-1c-0.1-0.43-0.16-0.88-0.27-1.3c-0.21-0.76-0.72-1.47-1.45-1.79c-0.2-0.09-0.44-0.06-0.57,0.15
					C61.96,26.6,62.01,26.89,62.22,26.99L62.22,26.99z"/>
			</g>
			<g>
				<path d="M64.33,23.87c-0.72,0.04-1.43,0.24-2.06,0.59c-0.12,0.06-0.01,0.24,0.1,0.18c0.6-0.33,1.27-0.53,1.96-0.56
					C64.46,24.07,64.46,23.87,64.33,23.87L64.33,23.87z"/>
			</g>
			<g>
				<path d="M65.42,27.57c0.35-0.23,0.72-0.44,1.11-0.61c0.05-0.02,0.06-0.1,0.04-0.14c-0.03-0.05-0.09-0.06-0.14-0.04
					c-0.39,0.17-0.76,0.38-1.11,0.61C65.2,27.47,65.31,27.65,65.42,27.57L65.42,27.57z"/>
			</g>
			<g>
				<path d="M54.09,30.21c0.47-0.05,0.93-0.2,1.38-0.34c0.47-0.14,0.92-0.31,1.35-0.54c0.49-0.26,0.93-0.48,1.5-0.46
					c0.5,0.02,0.99,0.14,1.49,0.14c0.13,0,0.13-0.2,0-0.21c-0.5-0.01-0.99-0.13-1.49-0.14c-0.46-0.02-0.87,0.1-1.28,0.31
					c-0.47,0.25-0.93,0.47-1.44,0.64c-0.49,0.16-1,0.33-1.51,0.39C53.96,30.02,53.95,30.23,54.09,30.21L54.09,30.21z"/>
			</g>
			<g>
				<path d="M63.26,22.14c-0.48,0.09-0.96,0.21-1.42,0.38c-0.22,0.08-0.44,0.17-0.65,0.26c-0.15,0.07-0.38,0.13-0.44,0.3
					c-0.06,0.17-0.02,0.41,0.02,0.59c0.05,0.22,0.13,0.43,0.24,0.63c0.22,0.42,0.55,0.78,0.87,1.13c0.09,0.1,0.24-0.05,0.15-0.15
					c-0.28-0.31-0.57-0.63-0.79-0.99c-0.1-0.17-0.18-0.35-0.24-0.55c-0.04-0.14-0.15-0.53-0.02-0.64c0.07-0.06,0.18-0.09,0.26-0.13
					c0.09-0.04,0.19-0.08,0.29-0.12c0.19-0.08,0.39-0.15,0.58-0.22c0.39-0.13,0.8-0.23,1.21-0.3
					C63.44,22.32,63.39,22.12,63.26,22.14L63.26,22.14z"/>
			</g>
			<g>
				<path d="M66.21,23.01c0,0.16-0.02,0.31-0.03,0.47c0,0.16,0.01,0.31,0.03,0.46c0.04,0.31,0.14,0.61,0.28,0.89
					c0.06,0.12,0.24,0.01,0.18-0.1c-0.13-0.26-0.22-0.55-0.26-0.84c-0.02-0.15-0.03-0.29-0.02-0.44c0-0.15,0.03-0.29,0.03-0.44
					C66.41,22.88,66.2,22.88,66.21,23.01L66.21,23.01z"/>
			</g>
		</g>
	</g>
</g>
</svg>
