<?xml version="1.0" encoding="utf-8"?>
<!-- Generator: Adobe Illustrator 28.0.0, SVG Export Plug-In . SVG Version: 6.00 Build 0)  -->
<svg version="1.1" id="Layer_1" xmlns="http://www.w3.org/2000/svg" xmlns:xlink="http://www.w3.org/1999/xlink" x="0px" y="0px"
	 viewBox="0 0 150 150" style="enable-background:new 0 0 150 150;" xml:space="preserve">
<style type="text/css">
	.st0{fill:#FBC929;}
	.st1{fill:#B66611;}
	.st2{fill:#F2E600;}
	.st3{fill:#FFFFFF;}
	.st4{fill:url(#SVGID_1_);}
	.st5{fill:url(#SVGID_00000049934512702191470500000007311230794400892094_);}
	.st6{fill:#F3FCEC;}
</style>
<g id="Purple_Shadow_Wizard_Gun">
	<g>
		<path class="st0" d="M77.3,105.55c-0.23-1.4-0.47-2.8-0.72-4.2c-0.5-2.86-1.03-5.72-1.59-8.57c-0.44-2.27-0.91-4.56-0.9-6.88
			c0.01-1.7-0.08-4.94,2.05-5.43c1.02-0.23,2.08-0.36,3.13-0.39c1.2-0.04,2.35-0.18,3.41-0.77c1.58-0.89,3.18-1.77,4.75-2.67
			c4.39-2.51,8.78-5.02,13.16-7.55c1.19-0.69,1.11-2.18-0.12-2.9c-0.23-0.13-0.46-0.31-0.6-0.53c-0.78-1.21-1.54-2.44-2.3-3.67
			c-0.71-1.15-1.44-2.28-2.1-3.46c-0.9-1.61-0.73-3.71,0.57-4.97c1.17-1.14,2.46-2.2,3.84-3.06c2.17-1.35,4.46-2.48,6.7-3.72
			c2.17-1.2,4.33-2.43,6.48-3.65c0.45-0.26,0.9-0.54,0.82-1.19c-0.11-0.8,0.65-1.53,1.36-1.17c0.74,0.37,1.22,0.05,1.76-0.29
			c0.67-0.41,1.33-0.84,2-1.24c1.47-0.88,2.99-1.7,4.42-2.65c1.35-0.9,1.93-1.87,0.79-3.58c-0.39-0.58-0.6-1.2-0.43-1.92
			c0.19-0.8-0.16-1.47-0.59-2.11c-0.53-0.8-1.08-1.58-1.57-2.4c-0.14-0.24-0.21-0.65-0.11-0.89c0.31-0.7,0.26-1.4-0.05-2.04
			c-0.67-1.38-1.38-2.74-2.16-4.06c-0.32-0.54-0.78-1.07-1.59-0.8c-0.15,0.05-0.39-0.21-0.6-0.31c-0.34-0.16-0.73-0.49-1.01-0.42
			c-0.63,0.15-1.16-0.02-1.71-0.25c-0.74-0.31-1.48-0.58-2.22-0.87c-0.52-0.2-0.82-0.01-0.9,0.52c-0.1,0.76-0.25,1.53-0.24,2.3
			c0.01,0.75-0.33,1.1-0.93,1.42C99.46,26.9,88.82,32.63,78.18,38.36c-0.27,0.15-0.51,0.37-0.76,0.57c-0.6,0.49-1.16,1.05-1.81,1.47
			c-0.76,0.49-1.59,0.88-2.4,1.29c-4.01,2.04-8.07,4.01-12.04,6.12c-8.38,4.44-16.73,8.94-25.05,13.47
			c-1.01,0.55-1.71,0.49-2.57-0.23c-0.91-0.77-2.39-0.57-3.1,0.35c-0.15,0.2-0.25,0.49-0.26,0.75c-0.03,0.44,0.02,0.89,0.06,1.34
			c0.05,0.58-0.1,1-0.65,1.28c-0.63,0.32-1.24,0.7-1.83,1.09s-0.81,0.98-0.68,1.68c0.05,0.29,0.12,0.6,0.26,0.85
			c1.22,2.19,2.34,4.46,3.74,6.54c0.96,1.43,1.42,2.75,0.85,4.38c-0.08,0.22-0.04,0.49-0.05,0.74c0,0.93,0.66,1.58,1.57,1.49
			c0.41-0.04,0.83-0.13,1.21-0.28c1.51-0.62,3.05-0.87,4.69-0.45c2.04,0.52,3.78,1.43,4.91,3.36c1.04,1.78,1.71,3.71,2.17,5.68
			c0.62,2.62,1.05,5.29,1.52,7.95c0.18,1.04,0.28,2.11,0.34,3.16c0.03,0.51-0.12,1.03-0.15,1.55c-0.06,0.9-0.07,1.81-0.14,2.71
			c-0.07,0.84-0.24,1.67-0.29,2.52c-0.07,1.16-0.06,2.32-0.07,3.48c-0.01,0.59,0.02,1.17,0.01,1.76c0,0.83-0.07,1.66-0.02,2.49
			c0.08,1.35,0.22,2.7,0.36,4.04c0.12,1.21,0.28,2.42,0.41,3.63c0.12,1.11,0.26,2.21,0.36,3.32c0.16,1.66,0.78,3.12,2.06,4.2
			c1.75,1.48,3.79,1.91,5.98,1.46c0.83-0.17,1.65-0.39,2.58-0.62c0.01,0.49-0.01,0.91,0.03,1.32c0.11,1.24,1.26,1.82,2.26,1.16
			c0.49-0.33,0.97-0.67,1.48-0.97c3.82-2.18,7.64-4.33,11.46-6.51c1.21-0.69,2.41-1.42,3.59-2.17c1.09-0.69,1.18-1.59,0.25-2.53
			c-0.32-0.33-0.25-0.5-0.02-0.8c0.44-0.56,0.86-1.14,1.24-1.74c1.06-1.72,1.06-4.06-0.44-5.69c-0.43-0.47-0.64-1.18-0.82-1.82
			c-0.24-0.87-0.28-1.78-0.53-2.65C78.07,108.87,77.37,105.97,77.3,105.55z M88.53,58.19c2.45,0.36,3.89,2.28,4.84,4.41
			c0.67,1.51,1.89,3.96,1,5.46c-0.22,1.53-2.9,3.06-4.24,3.74c-2.03,1.03-5.55,3.11-5.55,3.11c-2.05,1.3-4.63,2.87-7.18,2.45
			c-1.99-0.33-3.22-1.97-3.84-3.81c-0.27-0.05-0.51-0.23-0.62-0.6c-0.2-0.73-0.17-1.42,0.05-2.1c0.07-1.5,0.82-3.03,1.89-4.22
			c1.82-2.03,3.86-4.01,6.03-5.65C83.05,59.36,85.75,57.78,88.53,58.19z"/>
		<path class="st1" d="M78.71,111.97c0.18,0.64,0.39,1.35,0.82,1.82c1.5,1.63,1.5,3.97,0.44,5.69c-0.37,0.61-0.8,1.18-1.24,1.74
			c-0.24,0.3-0.31,0.48,0.02,0.8c0.93,0.94,0.84,1.84-0.25,2.53c-1.18,0.75-2.38,1.47-3.59,2.17c-3.81,2.18-7.64,4.34-11.46,6.51
			c-0.51,0.29-0.99,0.64-1.48,0.97c-1,0.66-2.15,0.08-2.26-1.16c-0.04-0.42-0.02-0.84-0.03-1.32c-0.93,0.22-1.75,0.45-2.58,0.62
			c-2.2,0.45-4.23,0.02-5.98-1.46c-1.27-1.08-1.9-2.54-2.06-4.2c-0.11-1.11-0.24-2.21-0.36-3.32c-0.14-1.21-0.29-2.42-0.41-3.63
			c-0.14-1.35-0.28-2.69-0.36-4.04c-0.05-0.83,0.01-1.66,0.02-2.49c0-0.59-0.02-1.17-0.01-1.76c0.01-1.16,0.01-2.32,0.07-3.48
			c0.05-0.84,0.22-1.67,0.29-2.52c0.08-0.9,0.08-1.81,0.14-2.71c0.03-0.52,0.18-1.04,0.15-1.55c-0.06-1.06-0.16-2.12-0.34-3.16
			c-0.47-2.66-0.9-5.32-1.52-7.95c-0.47-1.97-1.13-3.89-2.17-5.68c-1.13-1.93-2.87-2.84-4.91-3.36c-1.64-0.42-3.17-0.17-4.69,0.45
			c-0.38,0.15-0.8,0.24-1.21,0.28c-0.91,0.09-1.57-0.56-1.57-1.49c0-0.25-0.03-0.52,0.05-0.74c0.57-1.62,0.1-2.95-0.85-4.38
			c-1.39-2.08-2.51-4.34-3.74-6.54c-0.14-0.25-0.21-0.56-0.26-0.85c-0.13-0.71,0.09-1.3,0.68-1.68c0.59-0.39,1.2-0.77,1.83-1.09
			c0.55-0.28,0.7-0.7,0.65-1.28c-0.04-0.45-0.08-0.9-0.06-1.34c0.02-0.26,0.11-0.55,0.26-0.75c0.71-0.92,2.19-1.13,3.1-0.35
			c0.86,0.73,1.56,0.78,2.57,0.23c8.33-4.53,16.68-9.02,25.05-13.47c3.98-2.11,8.03-4.08,12.04-6.12c0.81-0.41,1.64-0.8,2.4-1.29
			c0.65-0.42,1.21-0.98,1.81-1.47c0.24-0.2,0.48-0.42,0.76-0.57c10.64-5.73,21.28-11.46,31.94-17.17c0.6-0.32,0.94-0.67,0.93-1.42
			c-0.01-0.77,0.14-1.54,0.24-2.3c0.07-0.53,0.38-0.72,0.9-0.52c0.74,0.29,1.49,0.57,2.22,0.87c0.55,0.23,1.08,0.41,1.71,0.25
			c0.28-0.07,0.67,0.26,1.01,0.42c0.21,0.1,0.45,0.36,0.6,0.31c0.81-0.26,1.27,0.26,1.59,0.8c0.78,1.32,1.49,2.68,2.16,4.06
			c0.31,0.64,0.36,1.34,0.05,2.04c-0.1,0.24-0.04,0.65,0.11,0.89c0.48,0.82,1.04,1.6,1.57,2.4c0.42,0.64,0.78,1.31,0.59,2.11
			c-0.17,0.71,0.04,1.33,0.43,1.92c1.14,1.71,0.57,2.67-0.79,3.58c-1.43,0.95-2.95,1.77-4.42,2.65c-0.67,0.4-1.33,0.83-2,1.24
			c-0.54,0.33-1.03,0.66-1.76,0.29c-0.71-0.36-1.47,0.37-1.36,1.17c0.09,0.65-0.37,0.93-0.82,1.19c-2.16,1.22-4.31,2.44-6.48,3.65
			c-2.23,1.24-4.53,2.38-6.7,3.72c-1.38,0.86-2.67,1.92-3.84,3.06c-1.3,1.26-1.47,3.36-0.57,4.97c0.66,1.18,1.39,2.31,2.1,3.46
			c0.76,1.23,1.52,2.46,2.3,3.67c0.14,0.22,0.37,0.39,0.6,0.53c1.23,0.72,1.31,2.21,0.12,2.9c-4.38,2.53-8.77,5.04-13.16,7.55
			c-1.58,0.9-3.17,1.78-4.75,2.67c-1.06,0.59-2.21,0.73-3.41,0.77c-1.05,0.03-2.11,0.16-3.13,0.39c-1.26,0.29-2.02,1.67-1.92,3.4
			c0.04,0.66,0.24,1.32,0.37,1.97c0.85,4.13,1.5,8.31,2.13,12.5c0.17,1.1,0.33,2.21,0.76,3.23c0.18,0.44,0.41,0.86,0.5,1.33
			c0.2,1.01-0.26,1.96-0.38,2.94c-0.14,1.1-0.03,2.19,0.28,3.26C78.42,110.19,78.47,111.11,78.71,111.97z M109.75,35.54
			c-0.24,0.5-0.46,1-1.15,0.8c-0.06-0.02-0.15,0.15-0.24,0.22c-0.22,0.15-0.44,0.3-0.68,0.43c-0.15,0.08-0.33,0.1-0.47,0.19
			c-0.53,0.33-1.04,0.7-1.58,1.02c-0.13,0.08-0.33,0.04-0.5,0.06c-0.11,0.02-0.3,0.03-0.32,0.09c-0.26,0.76-1.12,0.6-1.61,1.07
			c-0.44,0.43-1.15,0.58-1.74,0.86c-0.39,0.18-0.78,0.37-1.16,0.57c-0.35,0.18-0.69,0.37-1.02,0.58c-0.15,0.1-0.26,0.26-0.4,0.38
			c-0.12,0.1-0.25,0.18-0.39,0.25c-0.26,0.15-0.54,0.26-0.77,0.43c-0.27,0.2-0.48,0.5-0.77,0.66c-9.49,5.13-18.98,10.24-28.48,15.35
			c-0.31,0.16-0.72,0.11-1.04,0.26c-0.94,0.44-1.87,0.89-2.77,1.4c-0.36,0.21-0.59,0.66-0.96,0.86c-3.09,1.68-6.19,3.32-9.29,4.97
			c-0.87,0.46-1,0.41-1.48-0.5c-1.27-2.4-2.54-4.8-3.81-7.2c-0.31-0.59-0.79-0.67-1.27-0.27c-0.4,0.34-0.23,0.69-0.03,1.07
			c1.27,2.37,2.54,4.74,3.8,7.12c0.38,0.72,0.16,1.29-0.56,1.25c-0.28-0.02-0.64-0.35-0.79-0.63c-1.28-2.34-2.52-4.7-3.76-7.06
			c-0.21-0.4-0.44-0.71-0.92-0.44c-0.44,0.25-0.52,0.62-0.24,1.07c0.05,0.08,0.11,0.17,0.15,0.26c1.27,2.29,2.55,4.56,3.79,6.87
			c0.13,0.24,0.11,0.71-0.04,0.93c-0.4,0.6-0.97,0.47-1.36-0.27c-1.25-2.36-2.49-4.71-3.73-7.07c-0.23-0.45-0.5-0.7-0.99-0.44
			c-0.49,0.26-0.43,0.63-0.19,1.07c0.9,1.66,1.78,3.33,2.66,4.99c0.4,0.75,0.85,1.49,1.18,2.27c0.1,0.25-0.13,0.64-0.21,0.96
			c-0.35-0.09-0.7-0.16-1.03-0.3c-0.1-0.04-0.15-0.25-0.22-0.39c-1.2-2.27-2.4-4.54-3.62-6.79c-0.14-0.25-0.42-0.55-0.67-0.59
			c-0.63-0.09-0.86,0.47-0.5,1.13c1.28,2.34,2.55,4.68,3.83,7.02c0.39,0.71,0.29,1.01-0.37,1.29c-0.58,0.25-0.8-0.12-1.03-0.55
			c-1.26-2.35-2.53-4.69-3.81-7.03c-0.34-0.62-0.92-0.75-1.26-0.21c-0.14,0.22-0.06,0.71,0.09,0.99c1.25,2.33,2.54,4.63,3.81,6.94
			c0.22,0.4,0.35,0.82-0.14,1.11c-0.48,0.28-0.85,0.09-1.11-0.37c-0.58-1-1.17-1.99-1.73-3c-0.77-1.38-1.52-2.78-2.27-4.17
			c-0.18-0.34-0.39-0.6-0.82-0.38c-0.41,0.22-0.57,0.53-0.33,0.98c0.1,0.18,0.19,0.36,0.28,0.53c1.22,2.2,2.43,4.4,3.66,6.59
			c0.32,0.56,0.2,0.95-0.33,1.24c-0.51,0.3-0.8-0.01-1.04-0.45c-0.47-0.89-0.94-1.78-1.41-2.67c-0.79-1.49-1.58-2.97-2.36-4.47
			c-0.23-0.44-0.52-0.57-0.97-0.35c-0.44,0.23-0.53,0.54-0.27,0.98c0.14,0.24,0.29,0.47,0.42,0.71c1.18,2.16,2.36,4.33,3.53,6.49
			c0.24,0.44,0.17,0.82-0.32,1.05c-0.29,0.14-0.56,0.31-0.85,0.44c-1.66,0.77-2.41,2.16-2.6,3.93c-0.11,1,0.22,1.29,1.18,1.05
			c0.17-0.04,0.33-0.1,0.48-0.18c1.47-0.8,3.03-0.91,4.66-0.53c2.63,0.62,4.93,1.8,6.18,4.39c0.67,1.39,1.12,2.9,1.62,4.37
			c0.19,0.57,0.39,0.82,1,0.54c0.83-0.37,1.04-0.27,1.4,0.61c0.11,0.28,0.22,0.57,0.27,0.86c0.41,2.09,0.81,4.17,1.19,6.26
			c0.23,1.25-0.04,1.68-1.18,2.19c-0.22,0.1-0.4,0.3-0.6,0.46c0.04,0.07,0.09,0.15,0.13,0.22c0.27-0.08,0.53-0.2,0.8-0.23
			c0.22-0.03,0.46,0.04,0.69,0.06c-0.16,0.18-0.29,0.39-0.49,0.52c-0.36,0.23-0.75,0.41-1.13,0.62c0.04,0.1,0.09,0.2,0.13,0.31
			c0.3-0.1,0.58-0.23,0.89-0.27c0.19-0.03,0.41,0.08,0.62,0.13c-0.07,0.23-0.06,0.56-0.21,0.66c-0.27,0.18-0.66,0.18-0.96,0.34
			c-0.18,0.09-0.28,0.33-0.41,0.5c0.21,0.05,0.42,0.17,0.61,0.14c0.33-0.05,0.65-0.19,1.04-0.32c0.02,1.46-1.52,0.86-1.93,1.94
			c0.5-0.07,0.87-0.15,1.24-0.16c0.19,0,0.38,0.14,0.56,0.22c-0.09,0.16-0.13,0.38-0.26,0.47c-0.26,0.17-0.6,0.24-0.86,0.41
			c-0.28,0.18-0.51,0.44-0.77,0.66c0.33-0.04,0.65-0.1,0.98-0.1c0.23,0,0.47,0.1,0.7,0.15c-0.11,0.23-0.15,0.57-0.33,0.68
			c-0.35,0.21-0.79,0.27-1.16,0.46c-0.14,0.08-0.18,0.35-0.27,0.54c0.18,0.02,0.36,0.1,0.52,0.06c0.38-0.09,0.75-0.24,1.24-0.4
			c-0.21,1.25-1.69,0.75-2.02,1.94c0.5-0.15,0.8-0.29,1.12-0.33c0.22-0.03,0.46,0.08,0.7,0.12c-0.11,0.23-0.17,0.55-0.36,0.67
			c-0.23,0.15-0.6,0.08-0.84,0.22c-0.21,0.12-0.31,0.41-0.46,0.62c0.22,0.03,0.44,0.1,0.65,0.07c0.31-0.04,0.62-0.15,1.03-0.26
			c-0.14,1.34-1.7,0.76-2,1.96c0.43-0.11,0.73-0.24,1.04-0.24c0.28,0,0.56,0.14,0.85,0.21c-0.16,0.19-0.28,0.45-0.48,0.57
			c-0.33,0.2-0.73,0.29-1.07,0.48c-0.15,0.09-0.23,0.31-0.33,0.48c0.19,0.05,0.38,0.16,0.56,0.14c0.24-0.03,0.46-0.22,0.69-0.23
			c0.18,0,0.46,0.13,0.52,0.27c0.05,0.13-0.08,0.43-0.22,0.52c-0.26,0.18-0.59,0.24-0.86,0.4c-0.16,0.1-0.26,0.29-0.38,0.45
			c0.19,0.03,0.38,0.09,0.57,0.08c0.14-0.01,0.27-0.15,0.41-0.16c0.17-0.01,0.36,0.05,0.53,0.08c-0.08,0.19-0.12,0.44-0.27,0.54
			c-0.21,0.15-0.52,0.16-0.74,0.3c-0.18,0.11-0.3,0.32-0.45,0.49c0.22,0.04,0.44,0.08,0.65,0.13c0.31,0.07,0.61,0.15,0.91,0.22
			c-0.22,0.22-0.43,0.48-0.68,0.66c-0.31,0.22-0.67,0.37-1,0.55c0.04,0.11,0.09,0.21,0.13,0.32c0.28-0.07,0.56-0.19,0.85-0.2
			c0.22-0.01,0.45,0.12,0.67,0.18c-0.11,0.21-0.18,0.48-0.35,0.61c-0.23,0.17-0.56,0.19-0.81,0.34c-0.11,0.06-0.13,0.27-0.19,0.42
			c0.15,0.05,0.3,0.14,0.44,0.14s0.27-0.14,0.41-0.15c0.24-0.02,0.48,0.02,0.72,0.04c-0.15,0.21-0.27,0.47-0.47,0.61
			c-0.32,0.23-0.7,0.39-1.05,0.57c0.04,0.09,0.08,0.18,0.12,0.27c0.29-0.06,0.59-0.17,0.88-0.16c0.2,0,0.41,0.16,0.61,0.25
			c-0.09,0.18-0.13,0.43-0.27,0.53c-0.24,0.16-0.55,0.2-0.8,0.35c-0.11,0.06-0.14,0.26-0.21,0.4c0.13,0.03,0.26,0.1,0.39,0.09
			c0.12,0,0.23-0.13,0.34-0.13c0.23,0,0.47,0.05,0.7,0.07c-0.14,0.17-0.25,0.38-0.43,0.49c-0.33,0.22-0.69,0.38-1.03,0.56
			c0.04,0.1,0.08,0.2,0.12,0.3c0.31-0.08,0.61-0.2,0.92-0.22c0.18-0.01,0.46,0.11,0.52,0.25s-0.05,0.4-0.16,0.55
			c-0.09,0.12-0.33,0.11-0.46,0.21c-0.14,0.1-0.22,0.27-0.33,0.41c0.17,0.04,0.33,0.11,0.5,0.13c0.26,0.04,0.52,0.04,0.77,0.06
			c-0.18,0.22-0.31,0.57-0.54,0.65c-0.53,0.17-0.77,0.53-0.62,1c0.44,1.36,0.91,2.76,2.4,3.35c2.52,0.99,5,0.85,7.36-0.39
			c5.5-2.89,10.97-5.85,16.46-8.75c1.45-0.77,2.52-1.85,3.07-3.42c0.39-1.08,0.35-2.14-0.3-3.16c-0.41-0.63-0.79-1.29-1.12-1.96
			c-0.28-0.55-0.62-0.74-1.2-0.51c-0.16,0.06-0.39-0.03-0.59-0.06c0.09-0.2,0.12-0.47,0.28-0.6c0.26-0.23,0.59-0.37,0.89-0.55
			c-0.03-0.06-0.06-0.11-0.08-0.17c-0.17,0.06-0.33,0.14-0.5,0.16c-0.24,0.03-0.48,0.02-0.73,0.03c0.14-0.22,0.24-0.49,0.42-0.66
			c0.24-0.23,0.56-0.38,0.84-0.57c-0.04-0.08-0.08-0.15-0.12-0.23c-0.2,0.04-0.39,0.13-0.59,0.13c-0.25,0-0.5-0.07-0.75-0.11
			c0.14-0.24,0.25-0.52,0.43-0.71c0.23-0.23,0.52-0.4,0.79-0.59c-0.05-0.08-0.09-0.17-0.14-0.25c-0.45,0.11-0.9,0.23-1.36,0.34
			c-0.04-0.06-0.08-0.13-0.12-0.19c0.16-0.18,0.33-0.36,0.48-0.55c0.3-0.39,0.67-0.76,0.87-1.2c0.47-1.09,0.82-2.23,1.28-3.32
			c0.17-0.41,0.1-0.65-0.22-0.9c-0.77-0.61-1.34-0.66-2.24-0.19c-0.34,0.18-0.73,0.28-1.09,0.42c-0.05-0.11-0.1-0.21-0.16-0.32
			c0.47-0.34,0.93-0.69,1.4-1.03c-0.29-0.07-0.49,0.04-0.71,0.07s-0.44-0.02-0.67-0.03c0.12-0.18,0.2-0.4,0.35-0.54
			c0.23-0.21,0.5-0.38,0.76-0.56c-0.18-0.13-0.28-0.14-0.36-0.11c-0.37,0.16-0.77,0.37-1-0.17s0.27-0.59,0.55-0.79
			c0.23-0.16,0.45-0.34,0.67-0.51c-0.04-0.06-0.07-0.11-0.11-0.17c-0.45,0.12-0.91,0.25-1.36,0.37c-0.05-0.1-0.1-0.2-0.15-0.29
			c0.44-0.34,0.88-0.68,1.32-1.01c-0.03-0.06-0.06-0.12-0.09-0.19c-0.19,0.05-0.38,0.13-0.57,0.13c-0.21,0.01-0.42-0.05-0.64-0.08
			c0.1-0.21,0.16-0.45,0.31-0.61c0.84-0.95,1.18-1.44,1.22-2.8c0.01-0.47,0.03-0.95-0.09-1.4c-0.28-1.1-0.57-0.89-1.35-0.73
			c-0.17,0.03-0.35-0.01-0.53-0.03c0.08-0.18,0.12-0.41,0.26-0.52c0.3-0.24,0.64-0.42,1.12-0.72c-0.26,0.01-0.33-0.01-0.39,0.01
			c-1.07,0.37-1.07,0.37-1.1-0.76c0-0.12-0.02-0.27-0.09-0.35c-0.39-0.46-0.09-0.64,0.26-0.85c0.28-0.16,0.53-0.39,0.79-0.58
			c-0.05-0.08-0.09-0.17-0.14-0.25c-0.46,0.12-0.93,0.25-1.39,0.37c-0.04-0.1-0.09-0.2-0.13-0.29c0.46-0.34,0.92-0.68,1.38-1.02
			c-0.04-0.05-0.07-0.11-0.11-0.16c-0.15,0.04-0.31,0.07-0.46,0.12c-0.3,0.1-0.66,0.49-0.85-0.04c-0.06-0.18,0.24-0.6,0.48-0.75
			c0.53-0.33,0.73-0.69,0.61-1.35c-0.44-2.4,0.47-4.06,2.72-4.85c0.86-0.3,1.81-0.41,2.73-0.45c1.42-0.05,2.8-0.19,4.05-0.9
			c2.5-1.41,5-2.82,7.49-4.23c2.73-1.55,5.47-3.1,8.2-4.66c0.51-0.29,1.02-0.6,1.49-0.95c0.6-0.44,0.55-1.08-0.05-1.54
			c-0.33-0.26-0.71-0.5-0.93-0.83c-0.52-0.79-0.96-1.63-1.45-2.44c-0.97-1.6-1.96-3.19-2.92-4.8c-1.07-1.78-0.85-3.57,0.2-5.15
			c0.65-0.98,1.58-1.82,2.53-2.51c1.15-0.83,2.46-1.42,3.7-2.13c3.75-2.15,7.49-4.3,11.23-6.46c0.21-0.12,0.37-0.31,0.56-0.46
			c-0.04-0.07-0.08-0.13-0.12-0.2c-0.23,0.09-0.48,0.14-0.7,0.26c-4.07,2.23-8.14,4.46-12.2,6.71c-0.57,0.32-0.91,0.18-1.2-0.37
			c-0.5-0.96-1.03-1.9-1.55-2.85c-0.5-0.92-0.07-2.43,0.83-2.93c2.11-1.16,4.21-2.32,6.33-3.47c5.7-3.1,11.4-6.19,17.09-9.28
			c0.22-0.12,0.41-0.28,0.62-0.42c-0.04-0.07-0.07-0.13-0.11-0.2c-0.21,0.08-0.43,0.14-0.62,0.24c-1.83,0.95-3.65,1.93-5.49,2.86
			c-0.54,0.27-1.15,0.41-1.73,0.61c-0.03-0.05-0.06-0.11-0.08-0.16c-0.09,0.22-0.18,0.44-0.19,0.46c-0.47,0.19-0.79,0.28-1.08,0.44
			s-0.55,0.37-0.71,0.48c-0.49,0.22-0.8,0.37-1.11,0.51c-0.15,0.07-0.4,0.1-0.44,0.21C110.58,35.75,110.2,35.72,109.75,35.54z
			 M97.37,29.44c0.03,0.06,0.06,0.12,0.09,0.17c-5.81,3.09-11.63,6.17-17.43,9.28c-1.93,1.04-2.29,0.62-1,3.09
			c1.13,2.15,0.39,4.23-1.7,5.32c-2.68,1.4-5.34,2.83-8.03,4.21c-0.41,0.21-0.92,0.29-1.39,0.3c-0.66,0.01-1.31-0.08-1.91,0.35
			c-0.35,0.25-0.69,0.14-0.92-0.28c-0.27-0.48-0.59-0.94-0.85-1.42c-0.25-0.47-0.55-0.58-1.03-0.32c-1.97,1.06-3.96,2.07-5.91,3.16
			c-0.47,0.26-0.88,0.7-1.18,1.16c-0.48,0.72-0.26,1.72,0.38,2.05c0.86,0.44,1.72,0.53,2.61,0.04c2.35-1.28,4.72-2.53,7.1-3.76
			c0.33-0.17,0.74-0.24,1.12-0.29c0.6-0.08,1.29,0.06,1.79-0.2c3.24-1.7,6.45-3.47,9.65-5.24c1.06-0.59,1.81-2.33,1.52-3.53
			c-0.17-0.67-0.47-1.31-0.74-1.96c-0.17-0.41-0.26-0.76,0.19-1.04c0.56-0.35,1.11-0.73,1.69-1.05c3.92-2.15,7.85-4.28,11.77-6.42
			c7.69-4.21,15.38-8.41,23.06-12.65c0.33-0.18,0.8-0.8,0.73-0.91c-0.35-0.54-0.78-0.08-1.12,0.1
			C109.68,22.89,103.53,26.17,97.37,29.44z M123.08,30.87c-0.4,0.21-0.65,0.34-0.91,0.48c-4.98,2.75-9.96,5.51-14.95,8.25
			c-2.43,1.33-4.89,2.61-7.33,3.93c-0.87,0.47-0.9,0.68-0.47,1.45c0.38,0.67,0.85,0.57,1.38,0.27c2.07-1.16,4.14-2.35,6.22-3.49
			c5.17-2.82,10.35-5.62,15.52-8.45c0.27-0.15,0.57-0.45,0.61-0.73C123.23,32.1,123.13,31.57,123.08,30.87z M38.16,61.58
			c0.02,0.04,0.04,0.08,0.06,0.12c-3.1,1.65-6.2,3.3-9.29,4.95c-0.21,0.11-0.44,0.27-0.55,0.47c-0.11,0.19-0.07,0.46-0.1,0.69
			c0.23,0.01,0.49,0.09,0.67,0c0.8-0.38,1.59-0.78,2.34-1.24c0.41-0.26,0.71-0.7,1.1-1c0.27-0.21,0.63-0.46,0.93-0.44
			c0.71,0.04,1.19-0.21,1.49-0.84c0.23-0.48,0.58-0.69,1.13-0.58c0.57,0.12,1.03-0.1,1.27-0.64c0.26-0.59,0.69-0.76,1.31-0.68
			c0.62,0.08,1.11-0.18,1.36-0.78c0.2-0.5,0.55-0.64,1.06-0.57c0.62,0.08,1.11-0.1,1.37-0.73c0.2-0.48,0.56-0.67,1.07-0.58
			c0.63,0.12,1.05-0.14,1.3-0.7c0.22-0.49,0.59-0.68,1.13-0.63c0.59,0.06,1.06-0.14,1.32-0.71c0.26-0.56,0.71-0.75,1.31-0.78
			c0.38-0.02,0.78-0.11,1.11-0.28c4.31-2.29,8.62-4.61,12.92-6.92c0.17-0.09,0.41-0.14,0.5-0.29c0.17-0.26,0.25-0.57,0.37-0.86
			c-0.27,0.01-0.58-0.07-0.81,0.04c-0.93,0.45-1.82,0.96-2.73,1.45C52.59,53.91,45.38,57.74,38.16,61.58z M112.39,40.43
			c0.03,0.06,0.06,0.11,0.09,0.17c-3.6,1.91-7.19,3.83-10.79,5.74c-0.35,0.19-0.92,0.37-0.64,0.89c0.31,0.59,0.74,0.07,1.06-0.1
			c4.19-2.27,8.36-4.57,12.54-6.83c0.37-0.2,0.82-0.24,1.24-0.32c0.39-0.08,0.85-0.01,1.17-0.19c1.9-1.08,3.77-2.2,5.63-3.33
			c0.42-0.25,0.84-0.54,1.15-0.91c0.2-0.24,0.18-0.66,0.26-1c-0.29,0.04-0.62,0-0.86,0.13C119.63,36.57,116.01,38.51,112.39,40.43z
			 M76.76,122.56c-0.3,0.13-0.52,0.22-0.73,0.33c-1.58,0.84-3.15,1.71-4.73,2.54c-3.23,1.7-6.47,3.4-9.71,5.09
			c-0.54,0.28-0.98,0.63-0.95,1.47c0.32-0.11,0.59-0.17,0.83-0.3c1.15-0.6,2.3-1.22,3.44-1.83c3.7-1.97,7.4-3.94,11.11-5.91
			C76.52,123.68,76.94,123.38,76.76,122.56z M48.95,98.19c0.83,0.37,1.39,0.14,1.43-0.53c0.03-0.61-0.03-1.24-0.15-1.84
			c-0.33-1.64-0.7-3.26-1.07-4.89c-0.04-0.19-0.13-0.42-0.28-0.52c-0.18-0.12-0.46-0.2-0.65-0.16c-0.17,0.04-0.38,0.28-0.4,0.44
			c-0.01,0.17,0.19,0.36,0.31,0.54c0.16,0.25,0.43,0.46,0.49,0.73c0.31,1.31,0.57,2.63,0.84,3.95
			C49.64,96.73,49.94,97.57,48.95,98.19z M32.1,63.88c0.37-0.48,1.26-0.45,0.84-1.07c-0.3-0.45-1.02-0.62-1.55-0.91
			c-0.06,0.61-0.14,1.22-0.13,1.83C31.26,63.79,31.86,63.84,32.1,63.88z M119.4,21.41c0.03-0.47,0.13-0.75,0.03-0.88
			c-0.15-0.18-0.44-0.25-0.67-0.36c-0.06,0.21-0.23,0.48-0.16,0.62C118.72,21,119,21.12,119.4,21.41z"/>
		<path class="st1" d="M63.27,84.85c0.35,0.08,0.61,0.14,0.94,0.21c0.36-1.44,1.56-0.88,2.4-0.91c1.46-0.06,1.4,0.06,1.52,1.61
			c0.12,1.59,0.36,3.17,0.57,4.76c0.25,1.88,0.52,3.75,0.79,5.63c0.29,2.08,0.59,4.16,0.87,6.24c0.32,2.3,0.62,4.6,0.93,6.9
			c0.21,1.55,0.37,3.11,0.63,4.65c0.16,0.99-0.16,1.6-1.02,2.05c-3.39,1.79-6.76,3.61-10.14,5.41c-1.32,0.71-2.64,1.42-3.97,2.11
			c-1.15,0.6-2.72-0.42-2.7-1.73c0.04-2.71,0.02-5.42,0.09-8.13c0.07-2.51,0.26-5.02,0.32-7.53c0.05-2.48,0.04-4.97-0.02-7.46
			c-0.03-1.24-0.15-2.5-0.36-3.72c-0.29-1.72-0.71-3.43-1.08-5.14c-0.29-1.37-0.04-1.89,1.25-2.35c1.34-0.47,2.72-0.83,4.04-1.36
			c1.41-0.56,2.76-1.26,4.13-1.9c0.24-0.11,0.46-0.28,0.7-0.41c0.31-0.16,0.67-0.37,0.87,0.11c0.2,0.5-0.18,0.58-0.55,0.64
			C63.45,84.56,63.43,84.62,63.27,84.85z M58.53,114.45c0.21,0.29,0.58,0.62,0.52,0.74c-0.25,0.54-0.7,0.72-1.34,0.19
			c-0.05,0.46-0.09,0.79-0.15,1.32c0.46-0.36,0.68-0.58,0.95-0.72c0.92-0.48,1.09-0.79,0.97-1.97c-0.05-0.01-0.11-0.05-0.14-0.03
			C59.04,114.13,58.75,114.31,58.53,114.45z M60.78,113.54c-0.03-0.2-0.02-0.34-0.07-0.43c-0.09-0.15-0.22-0.28-0.33-0.41
			c-0.14,0.14-0.42,0.3-0.4,0.43c0.04,0.28,0.16,0.65,0.37,0.79c0.52,0.36,1.37,0.01,1.72-0.69
			C61.62,113.33,61.22,113.43,60.78,113.54z M61.08,97.98c0.08,0.65,0.61,0.81,1.05,0.83c0.52,0.02,0.89-0.35,1.15-0.97
			C62.5,97.89,61.84,97.93,61.08,97.98z M65.88,104.67c0.61-0.01,1.09-0.01,1.55-0.05c0.07-0.01,0.12-0.22,0.17-0.34
			c-0.12-0.03-0.31-0.12-0.35-0.08c-0.37,0.41-0.64,0.11-0.96-0.09c-0.19-0.12-0.43-0.17-0.66-0.26c-0.22,1.17-0.22,1.17,0.12,1.33
			C65.8,104.97,65.86,104.76,65.88,104.67z M68.5,111.29c0.02-0.05,0.07-0.12,0.06-0.13c-0.23-0.2-0.47-0.39-0.7-0.59
			c-0.59-0.54-0.93-0.45-1.23,0.35C67.26,111.04,67.88,111.17,68.5,111.29z M64.36,88.15c0.29,0.24,0.5,0.5,0.76,0.59
			c0.17,0.06,0.51-0.06,0.62-0.22c0.14-0.2,0.12-0.52,0.15-0.68C65.35,87.95,64.95,88.03,64.36,88.15z M60.08,107.9
			c1.02-0.04,1.3-0.23,1.38-0.92C60.19,107.23,60.07,107.06,60.08,107.9z M62.5,94.87c-0.06-0.06-0.11-0.12-0.17-0.18
			c-0.33,0.18-0.69,0.33-0.99,0.55c-0.13,0.09-0.16,0.32-0.23,0.48c0.19,0.05,0.48,0.21,0.55,0.14
			C61.98,95.57,62.23,95.21,62.5,94.87z M61.14,92.49c0.2,0.65,0.87,0.49,1.37,0.66c0.13,0.04,0.32-0.04,0.46-0.12
			c0.05-0.03,0.04-0.28-0.02-0.32c-0.13-0.08-0.3-0.12-0.46-0.14C62.05,92.54,61.61,92.52,61.14,92.49z M56.14,120.81
			c-0.07-0.01-0.15-0.01-0.22-0.02c-0.19,0.59-1.01,1.13,0.04,1.85C56.02,122,56.08,121.41,56.14,120.81z M57.29,120.61
			c0.39,0.08,0.72,0.2,1.05,0.2c0.15,0,0.31-0.21,0.46-0.33c-0.16-0.09-0.31-0.23-0.48-0.27c-0.29-0.06-0.59-0.05-0.95-0.07
			C57.34,120.28,57.31,120.45,57.29,120.61z M61.87,118.22c0.19-0.55,0.36-1.03,0.56-1.6C61.43,116.85,61.4,116.94,61.87,118.22z
			 M66.27,114.06c-0.13,0-0.27-0.01-0.4-0.01c0.03,0.22-0.01,0.54,0.11,0.64c0.21,0.15,0.52,0.18,0.78,0.19
			c0.05,0,0.2-0.42,0.15-0.47C66.73,114.25,66.49,114.17,66.27,114.06z M54.92,111.22c-0.13,0.58,0.42,0.65,0.78,0.76
			c0.2,0.06,0.47-0.12,0.85-0.24C55.88,111.52,55.45,111.39,54.92,111.22z M64.85,114.61c-0.07,0.42-0.14,0.79-0.17,1.17
			c-0.01,0.09,0.1,0.22,0.18,0.28c0.05,0.04,0.2,0,0.26-0.06C65.36,115.81,65.22,114.92,64.85,114.61z M64.36,92.52
			c-0.09,0.04-0.18,0.08-0.27,0.12c0.06,0.37,0.11,0.74,0.17,1.11c0.06,0.02,0.13,0.04,0.19,0.06c0.12-0.17,0.37-0.37,0.34-0.52
			C64.74,93.01,64.52,92.77,64.36,92.52z M63.75,96.58c-0.09,0.13-0.17,0.26-0.26,0.4c0.27,0.17,0.54,0.35,0.81,0.52
			c0.08-0.13,0.24-0.36,0.22-0.37C64.27,96.93,64.01,96.76,63.75,96.58z M56.02,104.19c0.11,0.05,0.21,0.1,0.32,0.15
			c0.21-0.19,0.43-0.37,0.62-0.58c0.08-0.09,0.12-0.27,0.09-0.38c-0.02-0.08-0.2-0.18-0.3-0.17c-0.12,0.01-0.26,0.11-0.32,0.21
			C56.26,103.66,56.15,103.93,56.02,104.19z M62.55,89.74c-0.04,0.09-0.09,0.19-0.13,0.28c0.29,0.13,0.58,0.31,0.88,0.38
			c0.09,0.02,0.24-0.21,0.47-0.41C63.23,89.88,62.89,89.81,62.55,89.74z M56.94,106.59c-0.01-0.13-0.02-0.25-0.04-0.38
			c-0.3-0.01-0.6-0.03-0.9,0.01c-0.04,0-0.03,0.33-0.04,0.5C56.29,106.68,56.61,106.64,56.94,106.59z M56,104.75
			c-0.1-0.05-0.2-0.09-0.3-0.14c-0.12,0.21-0.26,0.42-0.33,0.64c-0.01,0.04,0.28,0.19,0.43,0.28
			C55.86,105.27,55.93,105.01,56,104.75z M63.53,103.44c0.05,0.12,0.1,0.24,0.15,0.35c0.25-0.08,0.5-0.15,0.76-0.23
			c-0.08-0.16-0.16-0.32-0.24-0.48C63.98,103.2,63.76,103.32,63.53,103.44z M59.69,100.3c0.04,0.06,0.07,0.11,0.11,0.17
			c0.11-0.24,0.33-0.5,0.31-0.73c-0.02-0.21-0.31-0.39-0.56-0.68C59.61,99.62,59.65,99.96,59.69,100.3z M57,112.89
			c0.47,0.36,0.79,0.6,1.11,0.84C58.16,112.89,57.64,112.92,57,112.89z M57.2,113.99c-0.36-0.04-0.57-0.11-0.74-0.06
			c-0.08,0.03-0.17,0.38-0.13,0.41c0.15,0.12,0.36,0.22,0.54,0.21C56.96,114.54,57.04,114.28,57.2,113.99z M64.93,95.09
			c0.03-0.07,0.06-0.14,0.09-0.21c-0.33-0.17-0.66-0.33-1.13-0.57C63.98,95.32,64.57,94.98,64.93,95.09z M65.45,112.01
			c-0.11,0.03-0.22,0.06-0.34,0.09c0.04,0.28,0.07,0.55,0.11,0.83c0.17-0.06,0.33-0.12,0.5-0.18
			C65.63,112.49,65.54,112.25,65.45,112.01z M55.08,114.03c-0.03,0.07-0.06,0.13-0.1,0.2c0.22,0.21,0.44,0.43,0.66,0.64
			c0.06-0.03,0.12-0.06,0.19-0.09c-0.03-0.19,0.01-0.46-0.09-0.54C55.57,114.11,55.31,114.1,55.08,114.03z M70.28,108.67
			c0.01-0.3,0.08-0.51,0.01-0.57c-0.14-0.12-0.35-0.16-0.53-0.24c-0.05,0.14-0.18,0.36-0.13,0.42
			C69.76,108.42,69.97,108.5,70.28,108.67z M60.17,105.51c-0.11-0.31-0.18-0.5-0.24-0.69c-0.25,0.13-0.49,0.26-0.74,0.39
			c0.02,0.05,0.05,0.09,0.07,0.14C59.49,105.4,59.73,105.43,60.17,105.51z"/>
		<path d="M51.71,88.41c0.32,1.63,0.7,3.15,0.92,4.69c0.3,2.1,0.65,4.21,0.69,6.32c0.06,3.21-0.15,6.41-0.21,9.62
			c-0.07,3.31-0.11,6.62-0.15,9.93c-0.02,1.07,0.01,2.14-0.03,3.21c-0.03,0.66,0.16,1.17,0.74,1.53c0.4,0.25,0.75,0.58,1.17,0.79
			c0.75,0.38,1.48,0.4,2.25-0.02c4.93-2.66,9.87-5.29,14.81-7.94c1.04-0.56,1.35-1.37,1.14-2.54c-0.28-1.62-0.49-3.26-0.72-4.89
			c-0.33-2.37-0.67-4.75-0.99-7.12c-0.29-2.18-0.55-4.36-0.86-6.54c-0.38-2.7-0.8-5.39-1.19-8.08c-0.14-0.94-0.24-1.88-0.38-2.83
			c-0.07-0.47,0.13-0.66,0.58-0.76c0.32-0.07,0.66-0.24,0.88-0.48c0.42-0.47,1.4-0.83,2.01-0.62c0.07,0.02,0.14,0.06,0.19,0.11
			c0.45,0.44,0.27,2.37-0.29,2.6c-0.8,0.32-0.87,0.9-0.73,1.63c0.3,1.67,0.59,3.35,0.89,5.02c0.2,1.11,0.34,1.18,1.34,0.67
			c0.2-0.1,0.39-0.22,0.6-0.27c0.57-0.15,1,0.22,0.82,0.78c-0.37,1.15-0.48,2.47-1.86,3.03c-0.26,0.1-0.53,0.65-0.48,0.95
			c0.33,1.97,0.74,3.93,1.12,5.89c0.09,0.5,0.38,0.56,0.76,0.38c0.42-0.2,0.8-0.51,1.24-0.64c0.31-0.09,0.69,0.05,1.04,0.08
			c-0.04,0.3-0.03,0.62-0.13,0.9c-0.27,0.76-0.64,1.5-0.87,2.27c-0.15,0.51-0.34,0.9-0.83,1.14c-0.43,0.21-0.65,0.57-0.56,1.1
			c0.26,1.55,0.48,3.11,0.75,4.67c0.17,0.96,0.32,1.04,1.14,0.6c0.53-0.28,0.86-0.19,1.12,0.37c0.55,1.15,1.18,2.26,0.86,3.63
			c-0.31,1.37-1.05,2.43-2.22,3.08c-5.18,2.86-10.37,5.71-15.61,8.47c-1.95,1.03-4.08,1.59-6.34,1.01c-1.1-0.28-1.98-0.88-2.54-1.93
			c-0.25-0.47-0.16-0.76,0.22-1.09c0.21-0.18,0.37-0.57,0.34-0.85c-0.2-1.91-0.55-3.81-0.68-5.73c-0.17-2.33-0.26-4.68-0.23-7.02
			c0.04-2.96,0.28-5.92,0.36-8.88c0.08-2.76,0.21-5.52,0.05-8.28c-0.11-1.92-0.68-3.82-1.05-5.73c-0.09-0.47-0.23-0.93-0.29-1.4
			C50.43,88.71,50.99,88.39,51.71,88.41z"/>
		<path class="st1" d="M50.81,87.41c0.35-1.55,0.16-2.27-0.61-2.65c-1.09-0.54-1.79-0.34-2.65,0.79c-0.14-0.19-0.28-0.34-0.38-0.52
			c-0.43-0.77-0.84-1.55-1.25-2.32c-0.87-1.63-2.27-2.54-3.95-3.1c-1.44-0.48-2.88-1-4.41-0.7c-0.84,0.16-1.63,0.53-2.46,0.74
			c-0.29,0.07-0.63-0.04-0.95-0.06c0.1-0.29,0.12-0.7,0.32-0.85c0.62-0.47,1.3-0.88,1.99-1.24c2.28-1.21,4.56-2.4,6.85-3.59
			c0.22-0.11,0.44-0.24,0.67-0.3c0.8-0.23,1.2-0.05,1.57,0.69c0.38,0.77,0.78,1.52,1.13,2.3c0.6,1.32,1.35,1.59,2.62,0.91
			c3.6-1.92,7.19-3.85,10.79-5.76c0.69-0.37,1.42-0.66,2.15-0.96c0.57-0.23,0.98,0.07,1.08,0.71c0.3,1.95-0.6,3.36-2.04,4.39
			c-1.55,1.11-3.24,2.02-4.86,3.04c-0.68,0.43-1.35,0.88-2.02,1.33c-0.65,0.45-0.75,1.13-0.64,1.86c0.12,0.8,0.58,1.21,1.38,1.19
			c0.56-0.01,1.15-0.05,1.67-0.23c1.73-0.6,3.5-1.08,5.06-2.14c1.39-0.95,1.52-0.83,1.56,0.88c0.01,0.33-0.19,0.79-0.45,0.97
			c-2.6,1.85-5.55,2.89-8.62,3.66c-0.95,0.24-1.89,0.55-2.83,0.82C51.32,87.33,51.11,87.35,50.81,87.41z"/>
		<path d="M86.23,75.26c-1.41,0.75-2.76,1.63-4.24,2.22c-2.09,0.83-4.21,0.6-6.15-0.68c-1.59-1.05-2.79-2.44-3.03-4.43
			c-0.06-0.53-0.02-1.1,0.09-1.62c0.49-2.32,1.76-4.18,3.46-5.72c2.9-2.62,6.1-4.84,9.44-6.88c2.23-1.36,6-0.4,7.19,1.67
			c1,1.76,2.29,3.35,2.83,5.37c0.46,1.76-0.34,4.44-1.85,5.39c-2.55,1.61-5.14,3.15-7.71,4.72C86.24,75.29,86.24,75.27,86.23,75.26z
			 M81.54,74.47c0.2,0.2,0.36,0.74,0.25,0.9c-0.17,0.23-0.45,0.46-0.75,0.44c-0.19-0.01-0.37-0.09-0.55-0.17
			c-1.6-0.74-3.12-1.65-4.51-2.74c-0.26-0.21-0.53-0.43-0.69-0.72c-0.15-0.27-0.2-0.58-0.36-0.84c-0.16-0.26-0.5-0.46-0.77-0.31
			c-0.19,0.11-0.5,0.35-0.5,0.6c0,0.54,0.36,0.95,0.56,1.44c1.28,3.18,4.95,5.24,8.07,3.24c0.62-0.4,0.42-0.25,1.07-0.6
			c-0.02-0.05,0.82-0.54,0.8-0.59c3.09-1.51,5.63-3,5.63-3c1-0.56,2.39-1.41,3.3-2.11c1.45-1.12,2.18-2.68,1.71-4.52
			c-0.32-1.26-1.03-2.43-1.61-3.62c-0.54-1.1-1.33-2.02-2.41-2.6c-1.22-0.67-2.52-1.16-3.88-0.49c-3.34,1.65-6.28,3.92-9.13,6.29
			c-0.39,0.33-0.78,0.95-0.77,1.43c0.04,1.3,0.29,2.6,0.49,3.9c0.03,0.17,0.21,0.33,0.35,0.47"/>
		<path class="st1" d="M97.54,47.83c0.05,0.09,0.09,0.18,0.14,0.27c0.98,1.81,0.96,1.82-0.76,2.96c-0.63,0.42-1.22,0.9-1.8,1.38
			c-0.93,0.78-1.31,1.87-1.56,3.03c-0.3,1.4-1.18,1.98-2.52,1.59c-1.36-0.39-2.7-0.81-4.13-0.37c-0.4,0.12-0.64-0.1-0.41-0.55
			c0.64-1.29,0.57-2.59-0.06-3.88c-0.25-0.51-0.19-0.81,0.31-1.08c2.95-1.61,5.88-3.24,8.83-4.86c0.79-0.43,0.95-0.37,1.39,0.44
			C97.16,47.12,97.34,47.48,97.54,47.83C97.53,47.83,97.54,47.83,97.54,47.83z"/>
		<path class="st1" d="M65.16,77.7c0.31-0.34,0.64-0.65,0.91-1.02c1.31-1.74,2.24-3.69,3.11-5.69c1.03-2.38,2.66-4.3,4.7-5.85
			c0.29-0.22,0.64-0.35,0.97-0.52c0.07,0.08,0.13,0.17,0.2,0.25c-0.47,0.56-0.94,1.12-1.42,1.67c-1.14,1.33-2,2.79-2.18,4.6
			c-0.13,1.28,0.32,2.4,0.85,3.52c0.57,1.2,0.48,1.3-0.8,1.62c-1.83,0.45-3.65,0.99-5.47,1.49c-0.25,0.07-0.5,0.1-0.75,0.14
			C65.24,77.85,65.2,77.78,65.16,77.7z"/>
		<path d="M64.4,64.38c0.45-0.54,0.86-0.56,1.18-0.04c0.37,0.62,0.72,1.27,1.02,1.93c0.27,0.58,0.06,0.97-0.5,1.27
			c-5.42,2.87-10.84,5.76-16.26,8.65c-0.07,0.03-0.13,0.07-0.19,0.1c-1.61,1-1.42,0.95-2.28-0.69c-0.92-1.75-0.93-1.75,0.8-2.66
			c4.6-2.44,9.19-4.89,13.79-7.33c0.18-0.1,0.38-0.16,0.64-0.1c-0.22,0.13-0.43,0.27-0.65,0.39c-4.62,2.51-9.23,5.01-13.85,7.51
			c-1.05,0.57-1.06,0.62-0.47,1.71c0.71,1.33,0.71,1.33,2.04,0.62c5.17-2.77,10.35-5.53,15.51-8.33c0.38-0.21,0.8-0.62,0.9-1.01
			c0.13-0.51-0.84-1.7-1.29-1.84C64.65,64.53,64.54,64.45,64.4,64.38z"/>
		<path d="M68.47,82.68c-0.13-1.17-0.29-2.51-0.39-3.84c-0.01-0.17,0.32-0.48,0.54-0.53c0.92-0.22,1.87-0.37,2.8-0.56
			c0.35-0.07,0.66-0.08,0.72,0.38c0.13,1.04,0.26,2.08,0.38,3.11c0.05,0.44-0.08,0.69-0.59,0.72c-0.83,0.04-1.56,0.32-2.19,0.91
			C69.22,83.35,68.72,83.3,68.47,82.68z"/>
		<path class="st1" d="M82,52.31c-0.06,0.51-0.1,0.96-0.17,1.4c-0.18,1.16-0.08,2.29,0.42,3.36c0.18,0.38,0.53,0.7,0.87,0.96
			c0.55,0.42,0.57,0.62-0.02,0.94c-0.56,0.3-1.09,0.67-1.69,0.88c-0.26,0.09-0.81-0.07-0.93-0.29c-1.18-2.14-0.68-5.61,1.15-7.22
			C81.67,52.32,81.73,52.33,82,52.31z"/>
		<path d="M64.66,83.29c-0.2-1.25-0.43-2.45-0.57-3.66c-0.02-0.15,0.37-0.43,0.61-0.5c0.54-0.16,1.1-0.22,1.66-0.32
			c0.42-0.08,0.68,0.08,0.73,0.52c0.14,1.21,0.27,2.42,0.38,3.63c0.01,0.16-0.1,0.47-0.19,0.49c-0.71,0.09-1.43,0.15-2.16,0.17
			C64.98,83.62,64.82,83.4,64.66,83.29z"/>
		<path d="M76.56,62.72c-0.69,0.36-1.7,0.05-2.06-0.63s-0.02-1.66,0.69-2.02c0.76-0.38,1.69-0.13,2.07,0.57
			C77.65,61.35,77.31,62.33,76.56,62.72z M76.46,61.08c-0.32-0.06-0.63-0.19-0.69-0.11c-0.13,0.15-0.12,0.42-0.17,0.64
			c0.2,0.04,0.43,0.16,0.58,0.09C76.31,61.63,76.34,61.36,76.46,61.08z"/>
		<path d="M76.82,78.86c-1.14,0-2.03,0.49-2.86,1.16c-0.3,0.24-0.58,0.13-0.66-0.26c-0.15-0.71-0.31-1.42-0.36-2.14
			c-0.01-0.18,0.44-0.59,0.55-0.54c1.09,0.46,2.16,0.98,3.23,1.5C76.76,78.6,76.76,78.71,76.82,78.86z"/>
		<path d="M48.2,86.89c-0.29-0.5-0.05-1.44,0.44-1.71c0.46-0.26,1.38-0.01,1.64,0.45c0.25,0.44-0.02,1.54-0.43,1.75
			C49.43,87.62,48.45,87.33,48.2,86.89z"/>
		<path d="M73.88,57.78c0.28,0.5,0.11,1.22-0.37,1.51c-0.45,0.28-1.26,0.02-1.54-0.49c-0.25-0.47-0.03-1.23,0.43-1.49
			C72.89,57.04,73.6,57.27,73.88,57.78z"/>
		<path d="M61.94,54.33c-0.67,0.36-1.35,0.71-2.01,1.07c-0.4,0.22-0.7,0.13-0.92-0.27c-0.05-0.09-0.1-0.17-0.15-0.26
			c-0.77-1.36-0.73-1.48,0.63-2.21c1-0.53,1.99-1.06,2.98-1.59c0.76-0.41,1.01-0.34,1.44,0.4c0.09,0.15,0.17,0.3,0.26,0.46
			c0.41,0.75,0.34,1.01-0.41,1.43C63.15,53.69,62.54,54,61.94,54.33L61.94,54.33z"/>
		<path d="M58.42,54.85c0.13,0.43,0.66,0.91-0.06,1.31c-0.45,0.25-1.34-0.05-1.58-0.51c-0.24-0.45,0.01-1.4,0.46-1.58
			C57.93,53.79,58.14,54.35,58.42,54.85z"/>
		<path class="st2" d="M51.14,61.11c0.16,0.14,0.33,0.28,0.46,0.46c0.13,0.19,0.24,0.4,0.36,0.6c0.22,0.35,0.45,0.69,0.68,1.04
			c0.01,0,0.02-0.01,0.03-0.01s0.02,0,0.04-0.01c-0.02,0.01-0.04,0.02-0.06,0.02v0.01c0.22-0.11,0.46-0.07,0.67,0.06
			c0.07,0.04,0.13,0.09,0.19,0.13c0.02,0.01,0.1,0.06,0.04,0.03c0.03,0.02,0.06,0.03,0.09,0.05c0.28,0.15,0.58,0.28,0.88,0.37
			c0.1,0.03,0.27,0.07,0.4,0.09c0.15,0.03,0.3,0.08,0.45,0.12c0.27,0.07,0.54,0.08,0.81,0.07c2.96-1.62,5.91-3.26,8.9-4.82
			c1.76-0.92,3.55-1.65,5.38-2.42c1.91-0.8,3.69-1.84,5.62-2.59c0.08-0.03,0.13,0.08,0.07,0.13c-1.54,1.34-3.21,2.36-5.05,3.25
			c-1.88,0.92-3.73,1.81-5.56,2.83c-3.77,2.09-7.6,4.07-11.4,6.12c-0.34,0.18-0.61,0-0.73-0.28c-0.06-0.04-0.12-0.08-0.16-0.14
			c-0.31-0.35-0.56-0.76-0.81-1.15c-0.26-0.41-0.51-0.83-0.73-1.27c-0.21-0.42-0.39-0.85-0.56-1.28c-0.08-0.2-0.17-0.41-0.23-0.61
			c-0.06-0.22-0.05-0.45-0.04-0.67C50.88,61.09,51.05,61.03,51.14,61.11z"/>
		<path class="st2" d="M64.85,49.19c0.29,0.21,0.47,0.52,0.71,0.8c0.03-0.13,0.1-0.26,0.23-0.36c0.76-0.58,1.68-1.04,2.52-1.49
			c0.79-0.42,1.53-0.57,2.41-0.44c0.76,0.11,1.52,0.17,2.29,0.09c0.29-0.03,0.61-0.09,0.92-0.16c0.61-0.29,1.21-0.59,1.82-0.88
			c1.18-0.55,2.79-1.32,2.95-2.79c0.01-0.08,0.13-0.1,0.16-0.02c0.54,1.54-0.58,2.73-1.85,3.43c-1.7,0.94-3.49,1.75-5.24,2.61
			c-0.85,0.42-1.7,0.85-2.57,1.26c-0.7,0.33-1.48,0.63-2.27,0.57c-0.72-0.05-1.42-0.39-1.94-0.89c-0.41-0.39-0.84-1.05-0.61-1.62
			C64.47,49.12,64.7,49.08,64.85,49.19z"/>
		<path class="st2" d="M111.42,34.34c0.82-0.46,1.63-0.94,2.45-1.41c0.51-0.39,1.01-0.8,1.45-1.25c0.6-0.61,1.02-1.3,1.44-2.05
			c0.47-0.84,1.21-1.06,2.06-1.41c0.87-0.36,1.74-0.71,2.62-1.06c0.55-0.22,1.13,0.5,0.71,0.97c-0.01,0.01-0.03,0.03-0.04,0.04
			c0.6-0.16,1.14,0.63,0.54,1.03c-1.12,0.76-2.32,1.72-3.61,2.19c-0.09,0.03-0.18,0.02-0.27-0.02c-5.83,3.25-11.71,6.44-17.77,9.2
			c-0.06,0.03-0.11-0.07-0.05-0.1C104.38,38.33,107.89,36.33,111.42,34.34z"/>
		<g>
			<path d="M50.17,131.41c-1.4-1.19-2.21-2.83-2.41-4.87c-0.08-0.82-0.17-1.65-0.27-2.47L47.25,122c-0.09-0.8-0.19-1.6-0.27-2.4
				l-0.02-0.22c-0.13-1.26-0.26-2.56-0.34-3.86c-0.03-0.58-0.02-1.16,0-1.71c0.01-0.28,0.02-0.56,0.02-0.84c0-0.26,0-0.52-0.01-0.77
				c0-0.33-0.01-0.67-0.01-1l0.01-0.75c0.01-0.92,0.02-1.85,0.07-2.77c0.03-0.49,0.09-0.98,0.16-1.47c0.05-0.36,0.1-0.72,0.13-1.07
				c0.04-0.5,0.06-1,0.08-1.5c0.02-0.4,0.03-0.8,0.06-1.19c0.01-0.23,0.05-0.46,0.08-0.7c0.04-0.27,0.08-0.53,0.07-0.73
				c-0.05-0.85-0.14-1.96-0.33-3.05l-0.22-1.29c-0.38-2.18-0.77-4.43-1.28-6.6c-0.5-2.11-1.18-3.88-2.06-5.4
				c-0.85-1.46-2.17-2.35-4.29-2.9c-1.28-0.33-2.57-0.2-4.06,0.41c-0.45,0.18-0.95,0.3-1.49,0.35c-0.71,0.07-1.38-0.15-1.87-0.59
				c-0.51-0.47-0.8-1.14-0.79-1.89v-0.15c-0.01-0.24-0.02-0.58,0.11-0.93c0.4-1.13,0.19-2.1-0.74-3.49
				c-1.04-1.56-1.94-3.22-2.81-4.83c-0.32-0.6-0.64-1.19-0.97-1.78c-0.22-0.39-0.31-0.8-0.37-1.15c-0.21-1.11,0.2-2.1,1.11-2.7
				c0.74-0.49,1.35-0.85,1.93-1.15c0.07-0.04,0.1-0.06,0.1-0.06s0.02-0.07,0.01-0.24l-0.01-0.12c-0.06-0.77-0.18-1.98,0.14-2.68
				c0.24-0.53,0.75-0.88,1.29-1.1c0.54-0.22,1.11-0.33,1.66-0.53c2.07-0.77,3.48-2.76,5.53-3.57c0.22-0.09,0.47-0.16,0.7-0.08
				c0.27,0.1,0.42,0.42,0.42,0.71s-0.12,0.57-0.24,0.84c-0.27,0.62-0.54,1.24-0.82,1.87c0.44,0.29,1.3-0.44,1.68-0.65
				c0.99-0.54,1.99-1.08,2.98-1.62c1.95-1.05,3.9-2.11,5.85-3.16c3.79-2.04,7.58-4.06,11.38-6.08c0.3-0.16,0.6-0.32,0.9-0.48
				c2.68-1.42,5.43-2.8,8.09-4.13c1.33-0.66,2.65-1.33,3.97-2l0.47-0.24c0.65-0.33,1.27-0.64,1.84-1c0.38-0.24,0.73-0.56,1.11-0.89
				c0.2-0.18,0.4-0.35,0.61-0.52l0.14-0.12c0.22-0.18,0.46-0.39,0.77-0.55c6.78-3.87,13.78-7.42,20.66-11.11
				c2.04-1.1,4.08-2.19,6.13-3.29c1-0.54,2.01-1.08,3.01-1.62c0.52-0.28,1.03-0.57,1.56-0.84c0.36-0.18,0.8-0.29,0.98-0.68
				c0.1-0.23,0.13-0.49,0.15-0.74c0.09-0.88,0.24-1.75,0.44-2.61c0.06-0.24,0.13-0.5,0.28-0.69c0.73-0.9,2.52,0.09,3.29,0.43
				c0.59,0.26,2.91,1.45,3.33,0.87c0.68-0.94,0.88-2.14,1.26-3.24c0.08-0.24,0.18-0.49,0.37-0.67c0.4-0.38,1.13-0.31,1.47,0.1
				c0.26,0.31,0.34,0.72,0.43,1.12c0.26,1.27,0.58,2.6,1.49,3.51c0.52,0.52,1.2,0.85,1.77,1.31c0.3,0.24,0.58,0.54,0.62,0.92
				c0.07,0.66-0.61,1.14-1.22,1.4c-0.38,0.16-0.79,0.31-1.08,0.6c-0.47,0.48-0.23,0.95-0.08,1.5c0.2,0.77,0.2,1.54-0.1,2.29
				c0,0.03,0.01,0.06,0.01,0.07c0.34,0.57,0.71,1.12,1.08,1.67l0.46,0.68c0.34,0.51,1.04,1.57,0.73,2.89
				c-0.06,0.25-0.07,0.59,0.29,1.13c1.96,2.94-0.31,4.46-1.06,4.96c-0.98,0.66-2.01,1.25-3,1.82c-0.49,0.28-0.98,0.57-1.46,0.86
				c-0.42,0.25-0.83,0.51-1.24,0.76l-0.8,0.5c-0.57,0.35-1.43,0.88-2.59,0.35c-0.01,0.03-0.02,0.06-0.02,0.1
				c0.18,1.34-0.87,1.94-1.31,2.19c-2.16,1.23-4.32,2.45-6.49,3.65c-0.75,0.42-1.51,0.82-2.26,1.23c-1.46,0.78-2.97,1.59-4.39,2.47
				c-1.2,0.74-2.43,1.73-3.67,2.93c-0.94,0.91-1.1,2.49-0.39,3.76c0.48,0.85,1.01,1.71,1.53,2.53l0.6,0.96
				c0.74,1.2,1.48,2.39,2.24,3.58c0.02,0.02,0.09,0.1,0.26,0.2c0.92,0.54,1.47,1.43,1.46,2.39c0,0.91-0.51,1.74-1.35,2.23
				c-4.38,2.53-8.77,5.04-13.16,7.55c-1.03,0.59-2.07,1.17-3.11,1.75l-1.65,0.92c-1.28,0.72-2.62,0.86-3.87,0.9
				c-1.03,0.03-2.02,0.16-2.94,0.37c-1.96,0.45-1.12,4.48-0.67,6.64c0.08,0.38,0.15,0.72,0.2,1l1.81,10.35
				c0.31,1.74,0.53,3.51,0.75,5.23c0.18,1.42,0.37,2.89,0.6,4.32c0.04,0.27,0.08,0.58,0.12,0.91c0.12,1.03,0.3,2.44,0.81,3
				c1.69,1.85,1.92,4.68,0.55,6.89c-0.3,0.49-0.66,1-1.11,1.59c0.63,0.76,0.72,1.45,0.66,1.91c-0.06,0.51-0.34,1.25-1.34,1.89
				c-1.17,0.74-2.39,1.48-3.63,2.19c-2.07,1.19-4.15,2.36-6.23,3.54c-1.74,0.99-3.49,1.98-5.23,2.97c-0.34,0.2-0.67,0.42-1,0.65
				l-0.42,0.28c-0.75,0.5-1.66,0.58-2.42,0.22c-0.79-0.37-1.31-1.17-1.39-2.12c0-0.05-0.01-0.1-0.01-0.14
				c-0.48,0.12-0.94,0.23-1.4,0.32c-2.5,0.51-4.72,0.01-6.62-1.5C50.32,131.52,50.25,131.46,50.17,131.41z M60.39,131.94
				c0,0.27,0,0.53,0.02,0.78c0.02,0.24,0.12,0.43,0.26,0.5c0.16,0.08,0.35-0.02,0.45-0.08l0.4-0.27c0.37-0.25,0.75-0.51,1.14-0.73
				c1.74-0.99,3.49-1.98,5.23-2.97c2.08-1.18,4.15-2.36,6.22-3.54c1.21-0.69,2.41-1.41,3.55-2.14c0.32-0.2,0.42-0.37,0.42-0.43
				c0.01-0.06-0.06-0.26-0.35-0.56c-0.45-0.45-0.82-1.19-0.09-2.12c0.47-0.6,0.86-1.14,1.17-1.65c0.9-1.46,0.77-3.3-0.32-4.49l0,0
				c-0.94-1.03-1.15-2.74-1.32-4.11c-0.04-0.3-0.07-0.58-0.11-0.83c-0.24-1.47-0.42-2.95-0.6-4.39c-0.21-1.69-0.43-3.44-0.73-5.13
				l-1.81-10.35c-0.05-0.26-0.11-0.58-0.19-0.94c-0.59-2.84-1.69-8.12,2.18-9c1.04-0.24,2.16-0.38,3.32-0.42
				c1-0.03,2.04-0.13,2.95-0.64l1.66-0.93c1.03-0.58,2.06-1.15,3.09-1.74c4.39-2.51,8.78-5.02,13.16-7.55
				c0.16-0.09,0.35-0.26,0.35-0.5s-0.17-0.49-0.47-0.66c-0.41-0.24-0.73-0.53-0.93-0.85c-0.77-1.19-1.52-2.4-2.31-3.68l-0.55-0.88
				c-0.53-0.85-1.08-1.72-1.58-2.62c-1.15-2.05-0.83-4.65,0.75-6.18c1.36-1.32,2.67-2.36,4.01-3.19c1.47-0.91,3.01-1.74,4.5-2.54
				c0.75-0.4,1.49-0.8,2.23-1.21c2.17-1.2,4.32-2.42,6.48-3.65c0.07-0.04,0.3-0.17,0.32-0.19c-0.11-0.78,0.24-1.58,0.88-2.04
				c0.58-0.41,1.3-0.47,1.93-0.16c0.19,0.09,0.22,0.11,0.79-0.24l0.74-0.46c0.42-0.26,0.84-0.53,1.27-0.79
				c0.49-0.3,0.99-0.59,1.49-0.87c0.96-0.56,1.96-1.13,2.89-1.75c1.12-0.75,1.21-1.14,0.51-2.19c-0.6-0.9-0.79-1.79-0.57-2.7
				c0.08-0.35-0.04-0.7-0.45-1.33l-0.45-0.66c-0.39-0.58-0.79-1.17-1.15-1.78c-0.26-0.45-0.42-1.2-0.16-1.8
				c0.17-0.4,0.16-0.79-0.03-1.2c-0.69-1.42-1.4-2.76-2.12-3.99c-0.25-0.42-0.32-0.39-0.43-0.36c-0.57,0.18-1.03-0.14-1.25-0.3
				c-0.03-0.02-0.07-0.05-0.08-0.06c-0.12-0.06-0.25-0.13-0.38-0.21c-0.06-0.03-0.11-0.07-0.16-0.1c-0.84,0.14-1.54-0.1-2.13-0.34
				c-0.48-0.2-0.97-0.39-1.46-0.58l-0.35-0.13l-0.01,0.06c-0.09,0.58-0.17,1.13-0.16,1.66c0.01,1.36-0.83,1.97-1.46,2.31
				C99.94,27.77,89.3,33.5,78.66,39.23c-0.13,0.07-0.28,0.19-0.43,0.33l-0.17,0.14c-0.19,0.15-0.37,0.32-0.56,0.48
				c-0.42,0.36-0.84,0.74-1.34,1.06c-0.66,0.43-1.36,0.78-2.03,1.12l-0.46,0.23c-1.32,0.67-2.65,1.34-3.98,2
				c-2.65,1.33-5.39,2.7-8.04,4.1c-8.05,4.27-16.24,8.67-25.04,13.46c-1.38,0.75-2.51,0.63-3.69-0.35c-0.2-0.19-0.52-0.26-0.83-0.23
				c-0.34,0.04-0.65,0.2-0.83,0.43c-0.02,0.02-0.05,0.11-0.06,0.2c-0.02,0.33,0.01,0.69,0.04,1.07l0.01,0.12
				c0.11,1.31-0.59,1.95-1.2,2.26c-0.52,0.26-1.05,0.58-1.73,1.03c-0.21,0.14-0.32,0.29-0.25,0.67c0.03,0.14,0.08,0.41,0.15,0.55
				c0.33,0.6,0.66,1.2,0.98,1.8c0.84,1.57,1.72,3.19,2.71,4.67c0.86,1.28,1.75,3.04,0.97,5.24c-0.01,0.07,0,0.16,0,0.24v0.21
				c0,0.18,0.05,0.32,0.14,0.4c0.1,0.09,0.19,0.1,0.33,0.08c0.35-0.03,0.67-0.11,0.93-0.22c1.88-0.76,3.62-0.92,5.31-0.49
				c1.66,0.43,4.05,1.29,5.52,3.82c0.99,1.7,1.74,3.64,2.28,5.95c0.53,2.23,0.92,4.52,1.31,6.72l0.22,1.28
				c0.21,1.19,0.3,2.38,0.35,3.27c0.03,0.42-0.03,0.81-0.09,1.15c-0.03,0.18-0.05,0.35-0.07,0.53c-0.02,0.38-0.04,0.76-0.06,1.14
				c-0.02,0.53-0.04,1.05-0.09,1.58c-0.03,0.4-0.09,0.79-0.14,1.18c-0.06,0.43-0.12,0.87-0.15,1.31c-0.05,0.89-0.06,1.78-0.07,2.68
				l-0.01,0.76c0,0.31,0,0.63,0.01,0.94c0,0.27,0.01,0.54,0.01,0.81c0,0.3-0.01,0.59-0.02,0.89c-0.02,0.53-0.03,1.04,0,1.53
				c0.08,1.25,0.21,2.54,0.33,3.78l0.02,0.22c0.08,0.79,0.17,1.58,0.27,2.37l0.24,2.08c0.1,0.84,0.19,1.67,0.27,2.51
				c0.15,1.53,0.7,2.68,1.71,3.53c1.45,1.25,3.15,1.65,5.14,1.24c0.55-0.11,1.09-0.25,1.67-0.39l2.09-0.51L60.39,131.94z
				 M122.45,26.11L122.45,26.11L122.45,26.11z M72.78,74.29c-0.38-0.22-0.66-0.61-0.79-1.09c-0.23-0.85-0.22-1.71,0.03-2.55
				c0.11-1.6,0.88-3.31,2.13-4.71c2.04-2.28,4.12-4.23,6.18-5.78l0,0c2-1.51,5.03-3.46,8.35-2.97c2.43,0.36,4.27,1.99,5.61,4.99
				l0.13,0.29c0.74,1.64,1.85,4.08,0.91,5.92c-0.32,1.42-1.91,2.86-4.74,4.29c-1.98,1-5.46,3.06-5.47,3.06
				c-1.94,1.23-4.86,3.09-7.88,2.59c-0.88-0.15-1.68-0.51-2.38-1.06C73.99,76.57,73.28,75.56,72.78,74.29z M88.39,59.17
				c-1.96-0.29-4.14,0.53-6.85,2.58l0,0c-1.96,1.48-3.94,3.34-5.89,5.52c-0.98,1.1-1.58,2.41-1.63,3.6l-0.05,0.27
				c-0.16,0.48-0.18,0.93-0.06,1.43l0.43,0.08l0.19,0.56c0.35,1.04,1.22,2.84,3.05,3.15c2.27,0.38,4.81-1.24,6.51-2.32
				c0.14-0.09,3.57-2.11,5.61-3.14c2.44-1.23,3.62-2.39,3.7-2.98l0.03-0.2l0.1-0.17c0.57-0.95-0.37-3.01-0.92-4.24L92.47,63
				c-0.6-1.35-1.29-2.33-2.09-2.96C89.78,59.56,89.13,59.28,88.39,59.17z"/>
		</g>
		<path class="st3" d="M112.53,17.37c0.11,0.01,0.23,0.04,0.36,0.06c0.1,0.02,0.2,0.05,0.29,0.08c0.9,0.28,1.6,0.97,2.48,1.3
			c0.27,0.1,0.56,0.18,0.75,0.39c-0.27-0.09-0.57,0-0.85,0.05c-0.64,0.13-1.24-0.09-1.77-0.44c-0.4-0.27-0.96-0.7-1.41-0.23
			c-0.19,0.19-0.26,0.47-0.33,0.72c-0.01-0.34-0.03-0.68-0.04-1.02c-0.01-0.22-0.02-0.46,0.08-0.66
			C112.21,17.41,112.36,17.36,112.53,17.37z"/>
		<path class="st3" d="M99.48,39.12c0,0-3.28,3.91-1.99,5.5c0,0-2.02-0.48-3.57,0.41c-0.24,0.14-0.47,0.31-0.68,0.52
			c-1.56,1.57,2.21-2.18,1.08-3.26C94.33,42.28,96.73,42.02,99.48,39.12z"/>
		<path class="st3" d="M37.16,57.49c0,0-3.28,3.91-1.99,5.5c0,0-2.02-0.48-3.57,0.41c-0.24,0.14-0.47,0.31-0.68,0.52
			c-1.56,1.57,2.21-2.18,1.08-3.26C32.01,60.66,34.41,60.39,37.16,57.49z"/>
		<path class="st3" d="M119.7,15.12c0,0,0.3,4.71,3.52,4.77c0,0-2.9,1.13-3.78,2.77c-0.14,0.25-0.23,0.52-0.25,0.8
			c-0.17,2.06,0.28-2.89-2.2-2.76C116.99,20.7,119.54,18.85,119.7,15.12z"/>
		<path class="st3" d="M56.27,119.33c0,0,0.23,3.39,2.33,3.46c0,0-1.88,0.79-2.45,1.97c-0.09,0.18-0.14,0.37-0.16,0.57
			c-0.1,1.48,0.16-2.08-1.46-2C54.54,123.32,56.2,122.01,56.27,119.33z"/>
		
			<linearGradient id="SVGID_1_" gradientUnits="userSpaceOnUse" x1="1581.1366" y1="259.1129" x2="1589.7057" y2="271.149" gradientTransform="matrix(-0.7822 -0.623 0.623 -0.7822 1134.6641 1281.838)">
			<stop  offset="0" style="stop-color:#040404"/>
			<stop  offset="0.0787" style="stop-color:#1D1D1D;stop-opacity:0.9269"/>
			<stop  offset="0.3373" style="stop-color:#6A6A6A;stop-opacity:0.6867"/>
			<stop  offset="0.5679" style="stop-color:#A7A7A7;stop-opacity:0.4725"/>
			<stop  offset="0.7619" style="stop-color:#D3D3D4;stop-opacity:0.2922"/>
			<stop  offset="0.9121" style="stop-color:#EEEEEF;stop-opacity:0.1528"/>
			<stop  offset="1" style="stop-color:#F8F8F9;stop-opacity:0.0711"/>
		</linearGradient>
		<path class="st4" d="M56.31,83.57c-1.37-0.7-2.99-1.15-4.46-0.69c1.09-0.61,2.19-1.21,3.28-1.82c0.26-0.14,0.53-0.29,0.82-0.33
			c0.55-0.07,1.06,0.23,1.53,0.52c3.11,1.88,6.44,3.38,9.91,4.45c1.22,0.38-0.36,1.16-0.87,1.33c-0.54,0.17-1.11,0.27-1.67,0.27
			C61.65,87.3,59,84.94,56.31,83.57z"/>
		
			<linearGradient id="SVGID_00000150800256583356722240000002910470090638407605_" gradientUnits="userSpaceOnUse" x1="1568.832" y1="268.6284" x2="1576.9844" y2="259.3333" gradientTransform="matrix(-0.7822 -0.623 0.623 -0.7822 1134.6641 1281.838)">
			<stop  offset="0" style="stop-color:#040404"/>
			<stop  offset="0.0787" style="stop-color:#1D1D1D;stop-opacity:0.9269"/>
			<stop  offset="0.3373" style="stop-color:#6A6A6A;stop-opacity:0.6867"/>
			<stop  offset="0.5679" style="stop-color:#A7A7A7;stop-opacity:0.4725"/>
			<stop  offset="0.7619" style="stop-color:#D3D3D4;stop-opacity:0.2922"/>
			<stop  offset="0.9121" style="stop-color:#EEEEEF;stop-opacity:0.1528"/>
			<stop  offset="1" style="stop-color:#F8F8F9;stop-opacity:0.0711"/>
		</linearGradient>
		<path style="fill:url(#SVGID_00000150800256583356722240000002910470090638407605_);" d="M64.96,91.94
			c0.39,0.68,0.89,1.3,1.47,1.82c0.23,0.21,0.48,0.41,0.62,0.68c0.3,0.58,0.03,1.28-0.14,1.91c-0.58,2.2,0.29,4.7,2.1,6.07
			c0.8,0.6,1.8,1.05,2.2,1.97c-0.88,0.12-1.77,0.19-2.66,0.23c-0.99,0.04-2.07,0.02-2.88-0.56c-0.54-0.38-0.89-0.96-1.24-1.52
			c-0.59-0.97-1.21-2.06-0.99-3.18c0.27-1.34,1.69-2.34,1.59-3.7c-1.41-0.33-2.68-1.22-3.48-2.43c-0.79-1.21-1.1-2.73-0.84-4.16
			c0.14-0.76,0.52-1.57,1.26-1.79c1-0.29,2.34-0.03,2.35,1.06C64.35,89.69,64.25,90.7,64.96,91.94z"/>
		<g>
			<path class="st6" d="M79.39,104.39C79.37,104.31,79.37,104.32,79.39,104.39C79.39,104.38,79.38,104.38,79.39,104.39z"/>
		</g>
		<g>
			<path class="st6" d="M80.07,109.75C80.09,109.65,80.08,109.69,80.07,109.75L80.07,109.75z"/>
		</g>
		<g>
			<path d="M77.79,101.73c-0.95-0.63-1.02-2.03-1.17-3.05c-0.19-1.29-0.3-2.59-0.36-3.89c-0.01-0.16,0.24-0.19,0.25-0.03
				c0.05,1.2,0.15,2.4,0.31,3.59c0.08,0.57,0.15,1.14,0.28,1.71s0.33,1.14,0.84,1.48C78.08,101.62,77.93,101.81,77.79,101.73
				L77.79,101.73z"/>
		</g>
	</g>
</g>
</svg>
