<svg xmlns="http://www.w3.org/2000/svg" width="0" height="0" style="display: none;">
  <symbol fill="none" xmlns="http://www.w3.org/2000/svg" viewBox="0 0 291.764 291.764" id="icon-coin">
    <g>
      <path style="fill:#EFC75E;" d="M145.882,0c80.573,0,145.882,65.319,145.882,145.882s-65.31,145.882-145.882,145.882
		S0,226.446,0,145.882S65.31,0,145.882,0z"/>
      <path style="fill:#CC9933;" d="M145.882,27.353c-65.465,0-118.529,53.065-118.529,118.529s53.065,118.529,118.529,118.529
		s118.529-53.065,118.529-118.529S211.347,27.353,145.882,27.353z M145.882,246.176c-55.39,0-100.294-44.904-100.294-100.294
		S90.493,45.588,145.882,45.588s100.294,44.904,100.294,100.294S201.281,246.176,145.882,246.176z M158.009,138.269
		c-5.452-2.289-25.493-5.452-25.493-14.214c0-6.464,7.495-8.334,11.99-8.334c4.094,0,8.999,1.295,11.589,3.875
		c1.641,1.577,2.316,2.726,2.854,4.313c0.684,1.869,1.094,3.875,3.684,3.875h13.357c3.136,0,3.957-0.574,3.957-4.021
		c0-14.789-11.589-23.122-24.809-25.994V86.28c0-2.58-0.821-4.167-3.957-4.167h-10.64c-3.136,0-3.957,1.577-3.957,4.167v11.051
		c-14.178,2.726-26.031,11.634-26.031,27.718c0,18.235,12.683,23.979,26.441,28.566c11.589,3.884,23.724,4.021,23.724,12.063
		s-5.99,9.765-13.357,9.765c-5.051,0-10.631-1.304-13.366-4.741c-1.769-2.152-2.453-4.021-2.58-5.89
		c-0.274-3.592-1.769-4.021-4.914-4.021H113.28c-3.136,0-3.957,0.729-3.957,4.021c0,16.366,13.093,26.286,27.262,29.441v11.206
		c0,2.58,0.821,4.167,3.957,4.167h10.64c3.136,0,3.957-1.586,3.957-4.167v-10.905c16.084-2.453,27.125-12.209,27.125-29.441
		C182.28,145.591,167.829,141.424,158.009,138.269z"/>
    </g>
  </symbol>
  <symbol fill="none" xmlns="http://www.w3.org/2000/svg" viewBox="0 0 16 16" id="icon-lightning">
    <g id="layer1" transform="translate(0 -1036.4)">
      <path id="path2996" style="stroke-linejoin:round;stroke:#ffbf00;stroke-width:.25;fill:#ffd500" d="m3.4724 8.5186 3.0305-7.0711h6.9448l-5.0192 5.0823h4.1353l-8.1128 9.0914 2.0834-7.1342z" transform="translate(0 1036.4)"/>
    </g>
  </symbol>

  <symbol fill="none" xmlns="http://www.w3.org/2000/svg" viewBox="0 0 256 256" id="icon-rocket">
    <defs>
    </defs>
    <g style="stroke: none; stroke-width: 0; stroke-dasharray: none; stroke-linecap: butt; stroke-linejoin: miter; stroke-miterlimit: 10; fill: none; fill-rule: nonzero; opacity: 1;" transform="translate(1.4065934065934016 1.4065934065934016) scale(2.81 2.81)" >
      <path d="M 56.739 5.685 c 11.837 -5.303 23.925 -7.582 31.412 -3.836 c 3.745 7.487 1.467 19.575 -3.836 31.412 L 56.739 5.685 z" style="stroke: none; stroke-width: 1; stroke-dasharray: none; stroke-linecap: butt; stroke-linejoin: miter; stroke-miterlimit: 10; fill: rgb(255,82,73); fill-rule: nonzero; opacity: 1;" transform=" matrix(1 0 0 1 0 0) " stroke-linecap="round" />
      <path d="M 73.128 52.003 l -0.313 12.825 c -0.031 1.26 -0.393 2.489 -1.05 3.564 L 61.049 85.919 c -1.525 2.494 -5.119 2.572 -6.751 0.147 L 45.107 72.41" style="stroke: none; stroke-width: 1; stroke-dasharray: none; stroke-linecap: butt; stroke-linejoin: miter; stroke-miterlimit: 10; fill: rgb(255,82,73); fill-rule: nonzero; opacity: 1;" transform=" matrix(1 0 0 1 0 0) " stroke-linecap="round" />
      <polygon points="17.59,44.89 15.23,56.24 24.5,65.5 33.76,74.77 45.11,72.41 " style="stroke: none; stroke-width: 1; stroke-dasharray: none; stroke-linecap: butt; stroke-linejoin: miter; stroke-miterlimit: 10; fill: rgb(255,82,73); fill-rule: nonzero; opacity: 1;" transform="  matrix(1 0 0 1 0 0) "/>
      <path d="M 37.967 16.843 l -12.825 0.313 c -1.26 0.031 -2.489 0.393 -3.564 1.05 L 4.052 28.922 c -2.494 1.525 -2.572 5.119 -0.147 6.751 l 13.656 9.191" style="stroke: none; stroke-width: 1; stroke-dasharray: none; stroke-linecap: butt; stroke-linejoin: miter; stroke-miterlimit: 10; fill: rgb(255,82,73); fill-rule: nonzero; opacity: 1;" transform=" matrix(1 0 0 1 0 0) " stroke-linecap="round" />
      <path d="M 45.107 72.41 L 17.59 44.893 c 0.231 -0.955 0.511 -1.914 0.875 -2.875 c 2.509 -6.627 6.739 -13.243 12.558 -19.061 C 37.703 16.276 47.141 9.991 56.743 5.69 L 84.31 33.257 c -4.301 9.603 -10.587 19.04 -17.267 25.721 c -5.818 5.818 -12.435 10.049 -19.061 12.558 C 47.021 71.899 46.062 72.179 45.107 72.41 z" style="stroke: none; stroke-width: 1; stroke-dasharray: none; stroke-linecap: butt; stroke-linejoin: miter; stroke-miterlimit: 10; fill: rgb(249,249,249); fill-rule: nonzero; opacity: 1;" transform=" matrix(1 0 0 1 0 0) " stroke-linecap="round" />
      <circle cx="53.924" cy="36.074" r="11.204" style="stroke: none; stroke-width: 1; stroke-dasharray: none; stroke-linecap: butt; stroke-linejoin: miter; stroke-miterlimit: 10; fill: rgb(123,216,232); fill-rule: nonzero; opacity: 1;" transform="  matrix(1 0 0 1 0 0) "/>
      <path d="M 2 90 c -0.512 0 -1.024 -0.195 -1.414 -0.586 c -0.781 -0.781 -0.781 -2.047 0 -2.828 l 17.709 -17.709 c 0.78 -0.781 2.048 -0.781 2.828 0 c 0.781 0.781 0.781 2.047 0 2.828 L 3.414 89.414 C 3.024 89.805 2.512 90 2 90 z" style="stroke: none; stroke-width: 1; stroke-dasharray: none; stroke-linecap: butt; stroke-linejoin: miter; stroke-miterlimit: 10; fill: rgb(255,221,120); fill-rule: nonzero; opacity: 1;" transform=" matrix(1 0 0 1 0 0) " stroke-linecap="round" />
      <path d="M 2.84 77.48 c -0.512 0 -1.023 -0.195 -1.414 -0.586 c -0.781 -0.781 -0.781 -2.047 0 -2.828 l 11.03 -11.029 c 0.78 -0.781 2.047 -0.781 2.828 0 c 0.781 0.781 0.781 2.047 0 2.828 L 4.254 76.895 C 3.864 77.285 3.352 77.48 2.84 77.48 z" style="stroke: none; stroke-width: 1; stroke-dasharray: none; stroke-linecap: butt; stroke-linejoin: miter; stroke-miterlimit: 10; fill: rgb(255,221,120); fill-rule: nonzero; opacity: 1;" transform=" matrix(1 0 0 1 0 0) " stroke-linecap="round" />
      <path d="M 14.52 89.16 c -0.512 0 -1.024 -0.195 -1.414 -0.586 c -0.781 -0.781 -0.781 -2.047 0 -2.828 l 11.029 -11.029 c 0.78 -0.781 2.048 -0.781 2.828 0 c 0.781 0.781 0.781 2.047 0 2.828 L 15.934 88.574 C 15.543 88.965 15.031 89.16 14.52 89.16 z" style="stroke: none; stroke-width: 1; stroke-dasharray: none; stroke-linecap: butt; stroke-linejoin: miter; stroke-miterlimit: 10; fill: rgb(255,221,120); fill-rule: nonzero; opacity: 1;" transform=" matrix(1 0 0 1 0 0) " stroke-linecap="round" />
    </g>
  </symbol>
</svg>
