<svg xmlns="http://www.w3.org/2000/svg" width="0" height="0" style="display: none;">
  <symbol fill="none" xmlns="http://www.w3.org/2000/svg" viewBox="0 0 291.764 291.764" id="icon-coin">
    <g>
      <path style="fill:#EFC75E;" d="M145.882,0c80.573,0,145.882,65.319,145.882,145.882s-65.31,145.882-145.882,145.882
		S0,226.446,0,145.882S65.31,0,145.882,0z"/>
      <path style="fill:#CC9933;" d="M145.882,27.353c-65.465,0-118.529,53.065-118.529,118.529s53.065,118.529,118.529,118.529
		s118.529-53.065,118.529-118.529S211.347,27.353,145.882,27.353z M145.882,246.176c-55.39,0-100.294-44.904-100.294-100.294
		S90.493,45.588,145.882,45.588s100.294,44.904,100.294,100.294S201.281,246.176,145.882,246.176z M158.009,138.269
		c-5.452-2.289-25.493-5.452-25.493-14.214c0-6.464,7.495-8.334,11.99-8.334c4.094,0,8.999,1.295,11.589,3.875
		c1.641,1.577,2.316,2.726,2.854,4.313c0.684,1.869,1.094,3.875,3.684,3.875h13.357c3.136,0,3.957-0.574,3.957-4.021
		c0-14.789-11.589-23.122-24.809-25.994V86.28c0-2.58-0.821-4.167-3.957-4.167h-10.64c-3.136,0-3.957,1.577-3.957,4.167v11.051
		c-14.178,2.726-26.031,11.634-26.031,27.718c0,18.235,12.683,23.979,26.441,28.566c11.589,3.884,23.724,4.021,23.724,12.063
		s-5.99,9.765-13.357,9.765c-5.051,0-10.631-1.304-13.366-4.741c-1.769-2.152-2.453-4.021-2.58-5.89
		c-0.274-3.592-1.769-4.021-4.914-4.021H113.28c-3.136,0-3.957,0.729-3.957,4.021c0,16.366,13.093,26.286,27.262,29.441v11.206
		c0,2.58,0.821,4.167,3.957,4.167h10.64c3.136,0,3.957-1.586,3.957-4.167v-10.905c16.084-2.453,27.125-12.209,27.125-29.441
		C182.28,145.591,167.829,141.424,158.009,138.269z"/>
    </g>
  </symbol>
  <symbol fill="none" xmlns="http://www.w3.org/2000/svg" viewBox="0 0 12 20" id="icon-lightning">
    <path d="M6.5 7.7V1C6.5 0.765299 6.33676 0.562187 6.10755 0.511704C5.87834 0.46122 5.64487 0.576955 5.54627 0.789938L0.546267 11.5899C0.474586 11.7448 0.486804 11.9255 0.578674 12.0692C0.670544 12.213 0.829383 12.3 1 12.3H5.5V19C5.5 19.2347 5.66324 19.4378 5.89245 19.4883C6.12166 19.5388 6.35513 19.423 6.45373 19.2101L11.4537 8.41006C11.5254 8.25523 11.5132 8.07454 11.4213 7.93077C11.3295 7.787 11.1706 7.7 11 7.7H6.5Z" fill="url(#paint0_linear_1_79)" stroke="#FD9003" stroke-linejoin="round"/>
    <defs>
      <linearGradient id="paint0_linear_1_79" x1="6" y1="1" x2="6" y2="19" gradientUnits="userSpaceOnUse">
        <stop stop-color="#FDF645"/>
        <stop offset="1" stop-color="#FEC300"/>
      </linearGradient>
    </defs>
  </symbol>

  <symbol fill="none" xmlns="http://www.w3.org/2000/svg" viewBox="0 0 256 256" id="icon-rocket">
    <defs>
    </defs>
    <g style="stroke: none; stroke-width: 0; stroke-dasharray: none; stroke-linecap: butt; stroke-linejoin: miter; stroke-miterlimit: 10; fill: none; fill-rule: nonzero; opacity: 1;" transform="translate(1.4065934065934016 1.4065934065934016) scale(2.81 2.81)" >
      <path d="M 56.739 5.685 c 11.837 -5.303 23.925 -7.582 31.412 -3.836 c 3.745 7.487 1.467 19.575 -3.836 31.412 L 56.739 5.685 z" style="stroke: none; stroke-width: 1; stroke-dasharray: none; stroke-linecap: butt; stroke-linejoin: miter; stroke-miterlimit: 10; fill: rgb(255,82,73); fill-rule: nonzero; opacity: 1;" transform=" matrix(1 0 0 1 0 0) " stroke-linecap="round" />
      <path d="M 73.128 52.003 l -0.313 12.825 c -0.031 1.26 -0.393 2.489 -1.05 3.564 L 61.049 85.919 c -1.525 2.494 -5.119 2.572 -6.751 0.147 L 45.107 72.41" style="stroke: none; stroke-width: 1; stroke-dasharray: none; stroke-linecap: butt; stroke-linejoin: miter; stroke-miterlimit: 10; fill: rgb(255,82,73); fill-rule: nonzero; opacity: 1;" transform=" matrix(1 0 0 1 0 0) " stroke-linecap="round" />
      <polygon points="17.59,44.89 15.23,56.24 24.5,65.5 33.76,74.77 45.11,72.41 " style="stroke: none; stroke-width: 1; stroke-dasharray: none; stroke-linecap: butt; stroke-linejoin: miter; stroke-miterlimit: 10; fill: rgb(255,82,73); fill-rule: nonzero; opacity: 1;" transform="  matrix(1 0 0 1 0 0) "/>
      <path d="M 37.967 16.843 l -12.825 0.313 c -1.26 0.031 -2.489 0.393 -3.564 1.05 L 4.052 28.922 c -2.494 1.525 -2.572 5.119 -0.147 6.751 l 13.656 9.191" style="stroke: none; stroke-width: 1; stroke-dasharray: none; stroke-linecap: butt; stroke-linejoin: miter; stroke-miterlimit: 10; fill: rgb(255,82,73); fill-rule: nonzero; opacity: 1;" transform=" matrix(1 0 0 1 0 0) " stroke-linecap="round" />
      <path d="M 45.107 72.41 L 17.59 44.893 c 0.231 -0.955 0.511 -1.914 0.875 -2.875 c 2.509 -6.627 6.739 -13.243 12.558 -19.061 C 37.703 16.276 47.141 9.991 56.743 5.69 L 84.31 33.257 c -4.301 9.603 -10.587 19.04 -17.267 25.721 c -5.818 5.818 -12.435 10.049 -19.061 12.558 C 47.021 71.899 46.062 72.179 45.107 72.41 z" style="stroke: none; stroke-width: 1; stroke-dasharray: none; stroke-linecap: butt; stroke-linejoin: miter; stroke-miterlimit: 10; fill: rgb(249,249,249); fill-rule: nonzero; opacity: 1;" transform=" matrix(1 0 0 1 0 0) " stroke-linecap="round" />
      <circle cx="53.924" cy="36.074" r="11.204" style="stroke: none; stroke-width: 1; stroke-dasharray: none; stroke-linecap: butt; stroke-linejoin: miter; stroke-miterlimit: 10; fill: rgb(123,216,232); fill-rule: nonzero; opacity: 1;" transform="  matrix(1 0 0 1 0 0) "/>
      <path d="M 2 90 c -0.512 0 -1.024 -0.195 -1.414 -0.586 c -0.781 -0.781 -0.781 -2.047 0 -2.828 l 17.709 -17.709 c 0.78 -0.781 2.048 -0.781 2.828 0 c 0.781 0.781 0.781 2.047 0 2.828 L 3.414 89.414 C 3.024 89.805 2.512 90 2 90 z" style="stroke: none; stroke-width: 1; stroke-dasharray: none; stroke-linecap: butt; stroke-linejoin: miter; stroke-miterlimit: 10; fill: rgb(255,221,120); fill-rule: nonzero; opacity: 1;" transform=" matrix(1 0 0 1 0 0) " stroke-linecap="round" />
      <path d="M 2.84 77.48 c -0.512 0 -1.023 -0.195 -1.414 -0.586 c -0.781 -0.781 -0.781 -2.047 0 -2.828 l 11.03 -11.029 c 0.78 -0.781 2.047 -0.781 2.828 0 c 0.781 0.781 0.781 2.047 0 2.828 L 4.254 76.895 C 3.864 77.285 3.352 77.48 2.84 77.48 z" style="stroke: none; stroke-width: 1; stroke-dasharray: none; stroke-linecap: butt; stroke-linejoin: miter; stroke-miterlimit: 10; fill: rgb(255,221,120); fill-rule: nonzero; opacity: 1;" transform=" matrix(1 0 0 1 0 0) " stroke-linecap="round" />
      <path d="M 14.52 89.16 c -0.512 0 -1.024 -0.195 -1.414 -0.586 c -0.781 -0.781 -0.781 -2.047 0 -2.828 l 11.029 -11.029 c 0.78 -0.781 2.048 -0.781 2.828 0 c 0.781 0.781 0.781 2.047 0 2.828 L 15.934 88.574 C 15.543 88.965 15.031 89.16 14.52 89.16 z" style="stroke: none; stroke-width: 1; stroke-dasharray: none; stroke-linecap: butt; stroke-linejoin: miter; stroke-miterlimit: 10; fill: rgb(255,221,120); fill-rule: nonzero; opacity: 1;" transform=" matrix(1 0 0 1 0 0) " stroke-linecap="round" />
    </g>
  </symbol>
  <symbol fill="none" xmlns="http://www.w3.org/2000/svg" viewBox="0 0 12 12" id="icon-info">
    <circle cx="6" cy="6" r="6" fill="#4E4F50"/>
    <path d="M5.34416 7.27149L5.20779 2H6.78571L6.65584 7.27149H5.34416ZM6.00649 10C5.4026 10 5 9.67258 5 9.1869C5 8.69577 5.4026 8.36835 6.00649 8.36835C6.6039 8.36835 7 8.69577 7 9.1869C7 9.67258 6.6039 10 6.00649 10Z" fill="#171417"/>
  </symbol>
  <symbol fill="none" xmlns="http://www.w3.org/2000/svg" viewBox="0 0 30 30" id="icon-mine">
    <path d="M12.9817 11.4934L11.4942 12.9809C11.2213 13.2539 11.2213 13.6964 11.4942 13.9693L19.6461 22.1212C20.3298 22.8049 21.4383 22.8049 22.122 22.1212C22.8057 21.4375 22.8057 20.329 22.122 19.6453L13.9701 11.4934C13.6972 11.2205 13.2546 11.2205 12.9817 11.4934Z" fill="#A2ACB0"/>
    <path d="M16.7438 5.61107C17.4009 5.07434 17.1109 4.16761 16.2704 4.28332C14.7083 4.49838 12.4365 5.188 9.96838 7.17531L9.17471 6.38164C8.78418 5.99112 8.15102 5.99112 7.7605 6.38164L6.38165 7.76049C5.99112 8.15101 5.99112 8.78418 6.38165 9.1747L7.17408 9.96714C5.18741 12.4362 4.4981 14.7084 4.28319 16.2705C4.16756 17.111 5.07429 17.401 5.61101 16.7439L6.70363 15.4062C9.30426 12.2226 12.2229 9.30398 15.4065 6.70336" fill="#A2ACB0"/>
  </symbol>
  <symbol fill="none" xmlns="http://www.w3.org/2000/svg" viewBox="0 0 20 20" id="icon-upgrade">
    <path fill-rule="evenodd" clip-rule="evenodd" d="M12.0294 10.0381V12.5886C12.0294 13.9693 10.9101 15.0886 9.52939 15.0886C8.14868 15.0886 7.02939 13.9693 7.02939 12.5886V10.0381C6.00155 10.5897 5.17698 11.471 4.69699 12.5404C4.50908 12.9591 4.41512 13.1684 4.33935 13.2649C4.17489 13.4742 4.05299 13.5531 3.79469 13.6174C3.67567 13.6471 3.50927 13.6471 3.17646 13.6471C1.42215 13.6471 0 15.0692 0 16.8235C0 18.5779 1.42215 20 3.17646 20H9.52618L9.52939 20L9.5326 20H15.8823C17.6366 20 19.0588 18.5779 19.0588 16.8235C19.0588 15.0692 17.6366 13.6471 15.8823 13.6471C15.5495 13.6471 15.3831 13.6471 15.2641 13.6174C15.0058 13.5531 14.8839 13.4742 14.7194 13.2649C14.6437 13.1684 14.5497 12.9591 14.3618 12.5404C13.8818 11.471 13.0572 10.5897 12.0294 10.0381Z" fill="#A2ACB0"/>
    <path d="M9.5 2L8.80088 1.28499L9.5 0.601411L10.1991 1.28499L9.5 2ZM10.5 13C10.5 13.5523 10.0523 14 9.5 14C8.94772 14 8.5 13.5523 8.5 13L10.5 13ZM4.30088 5.68499L8.80088 1.28499L10.1991 2.71501L5.69912 7.11501L4.30088 5.68499ZM10.1991 1.28499L14.6991 5.68499L13.3009 7.11501L8.80088 2.71501L10.1991 1.28499ZM10.5 2L10.5 13L8.5 13L8.5 2L10.5 2Z" fill="#A2ACB0"/>
  </symbol>
  <symbol fill="none" xmlns="http://www.w3.org/2000/svg" viewBox="0 0 20 18" id="icon-items">
    <path d="M0 4C0 2.11438 0 1.17157 0.585786 0.585786C1.17157 0 2.11438 0 4 0H16C17.8856 0 18.8284 0 19.4142 0.585786C20 1.17157 20 2.11438 20 4C20 4.94281 20 5.41421 19.7071 5.70711C19.4142 6 18.9428 6 18 6H2C1.05719 6 0.585786 6 0.292893 5.70711C0 5.41421 0 4.94281 0 4Z" fill="#A2ACB0"/>
    <path fill-rule="evenodd" clip-rule="evenodd" d="M2.87868 17.1213C2 16.2426 2 14.8284 2 12V8H18V12C18 14.8284 18 16.2426 17.1213 17.1213C16.2426 18 14.8284 18 12 18H8C5.17157 18 3.75736 18 2.87868 17.1213ZM8 12C7.44772 12 7 12.4477 7 13C7 13.5523 7.44772 14 8 14H12C12.5523 14 13 13.5523 13 13C13 12.4477 12.5523 12 12 12H8Z" fill="#A2ACB0"/>
  </symbol>
  <symbol fill="none" xmlns="http://www.w3.org/2000/svg" viewBox="0 0 20 17" id="icon-friends">
    <circle cx="10.0001" cy="4.53333" r="4.53333" fill="#A2ACB0"/>
    <circle cx="15.6676" cy="4.53379" r="3.4" fill="#A2ACB0"/>
    <circle cx="4.33359" cy="4.53379" r="3.4" fill="#A2ACB0"/>
    <path fill-rule="evenodd" clip-rule="evenodd" d="M16.3128 14.7331H18.9496C19.6201 14.7331 20.1342 14.1552 19.9713 13.5048C19.554 11.8383 18.4429 9.06641 15.6686 9.06641C14.6644 9.06641 13.878 9.4296 13.2637 9.97209C14.9725 11.0807 15.856 13.022 16.3128 14.7331Z" fill="#A2ACB0"/>
    <path fill-rule="evenodd" clip-rule="evenodd" d="M6.73805 9.97208C6.12368 9.4296 5.33737 9.06641 4.33315 9.06641C1.55884 9.06641 0.447697 11.8383 0.0303669 13.5048C-0.132516 14.1552 0.381613 14.7331 1.05212 14.7331H3.68889C4.14572 13.022 5.02926 11.0807 6.73805 9.97208Z" fill="#A2ACB0"/>
    <path d="M10.0007 10.2002C14.2038 10.2002 15.2893 13.9413 15.5697 15.8737C15.6596 16.4932 15.1599 17.0002 14.534 17.0002H5.46732C4.84139 17.0002 4.34174 16.4932 4.43161 15.8737C4.71197 13.9413 5.79751 10.2002 10.0007 10.2002Z" fill="#A2ACB0"/>
  </symbol>
  <symbol fill="none" xmlns="http://www.w3.org/2000/svg" viewBox="0 0 20 20" id="icon-earn">
    <path fill-rule="evenodd" clip-rule="evenodd" d="M10 20C15.5228 20 20 15.5228 20 10C20 4.47715 15.5228 0 10 0C4.47715 0 0 4.47715 0 10C0 15.5228 4.47715 20 10 20ZM10.3173 14.8433V16H9.6966V14.8459C9.0269 14.8235 8.43637 14.7188 7.92502 14.532C7.34845 14.3151 6.89509 14.0012 6.56495 13.5903C6.23482 13.1795 6.04882 12.6832 6.00697 12.1016L6 12.0046H8.20401L8.21796 12.0669C8.26446 12.2701 8.35745 12.4455 8.49695 12.5932C8.64109 12.7409 8.84103 12.854 9.09677 12.9325C9.26997 12.9847 9.46991 13.0195 9.6966 13.037V11.0055L8.9782 10.8621C8.33653 10.7374 7.79948 10.5528 7.36704 10.3081C6.93926 10.0589 6.61842 9.74957 6.40453 9.38027C6.19529 9.00635 6.09067 8.56549 6.09067 8.0577V8.04385C6.09067 7.4622 6.24876 6.95441 6.56495 6.52048C6.88579 6.08194 7.3345 5.74495 7.91107 5.50952C8.43071 5.29318 9.02589 5.17433 9.6966 5.15296V4H10.3173V5.15908C10.9313 5.18958 11.4707 5.29255 11.9355 5.46797C12.5028 5.68032 12.9468 5.99192 13.2677 6.40277C13.5931 6.81362 13.7838 7.31448 13.8396 7.90537L13.8466 8.03693H11.6425L11.6286 7.97461C11.5867 7.7438 11.4938 7.55453 11.3496 7.40681C11.2101 7.25447 11.0218 7.14137 10.7847 7.06751C10.6463 7.02173 10.4905 6.9893 10.3173 6.97022V8.96932L11.0427 9.11021C12.0517 9.30871 12.7957 9.62493 13.2746 10.0589C13.7582 10.4928 14 11.0883 14 11.8454V11.8592C14 12.487 13.8326 13.0248 13.4978 13.4726C13.1677 13.9158 12.7004 14.2574 12.0959 14.4974C11.5781 14.6991 10.9853 14.8144 10.3173 14.8433ZM10.3173 11.1293V13.0434C10.5668 13.0296 10.7806 12.995 10.959 12.9394C11.1962 12.8609 11.3729 12.7525 11.4891 12.614C11.6053 12.4755 11.6635 12.3093 11.6635 12.1154V12.1085C11.6635 11.85 11.5612 11.6469 11.3566 11.4991C11.1678 11.3553 10.8213 11.232 10.3173 11.1293ZM9.6966 6.95626C9.46298 6.97033 9.26071 7.00742 9.0898 7.06751C8.87126 7.14137 8.70619 7.24524 8.59459 7.37911C8.483 7.51298 8.4272 7.66994 8.4272 7.84997V7.8569C8.4272 8.02308 8.47137 8.1708 8.55972 8.30006C8.64807 8.4247 8.78989 8.53318 8.98518 8.6255C9.16757 8.70742 9.40471 8.78128 9.6966 8.84709V6.95626Z" fill="#A2ACB0"/>
  </symbol>
</svg>
