<svg xmlns="http://www.w3.org/2000/svg" width="0" height="0" style="display: none;">
  <symbol fill="none" xmlns="http://www.w3.org/2000/svg" viewBox="0 0 291.764 291.764" id="icon-coin">
    <g>
      <path style="fill:#EFC75E;" d="M145.882,0c80.573,0,145.882,65.319,145.882,145.882s-65.31,145.882-145.882,145.882
		S0,226.446,0,145.882S65.31,0,145.882,0z"/>
      <path style="fill:#CC9933;" d="M145.882,27.353c-65.465,0-118.529,53.065-118.529,118.529s53.065,118.529,118.529,118.529
		s118.529-53.065,118.529-118.529S211.347,27.353,145.882,27.353z M145.882,246.176c-55.39,0-100.294-44.904-100.294-100.294
		S90.493,45.588,145.882,45.588s100.294,44.904,100.294,100.294S201.281,246.176,145.882,246.176z M158.009,138.269
		c-5.452-2.289-25.493-5.452-25.493-14.214c0-6.464,7.495-8.334,11.99-8.334c4.094,0,8.999,1.295,11.589,3.875
		c1.641,1.577,2.316,2.726,2.854,4.313c0.684,1.869,1.094,3.875,3.684,3.875h13.357c3.136,0,3.957-0.574,3.957-4.021
		c0-14.789-11.589-23.122-24.809-25.994V86.28c0-2.58-0.821-4.167-3.957-4.167h-10.64c-3.136,0-3.957,1.577-3.957,4.167v11.051
		c-14.178,2.726-26.031,11.634-26.031,27.718c0,18.235,12.683,23.979,26.441,28.566c11.589,3.884,23.724,4.021,23.724,12.063
		s-5.99,9.765-13.357,9.765c-5.051,0-10.631-1.304-13.366-4.741c-1.769-2.152-2.453-4.021-2.58-5.89
		c-0.274-3.592-1.769-4.021-4.914-4.021H113.28c-3.136,0-3.957,0.729-3.957,4.021c0,16.366,13.093,26.286,27.262,29.441v11.206
		c0,2.58,0.821,4.167,3.957,4.167h10.64c3.136,0,3.957-1.586,3.957-4.167v-10.905c16.084-2.453,27.125-12.209,27.125-29.441
		C182.28,145.591,167.829,141.424,158.009,138.269z"/>
    </g>
  </symbol>
  <symbol fill="none" xmlns="http://www.w3.org/2000/svg" viewBox="0 0 12 20" id="icon-lightning">
    <path d="M6.5 7.7V1C6.5 0.765299 6.33676 0.562187 6.10755 0.511704C5.87834 0.46122 5.64487 0.576955 5.54627 0.789938L0.546267 11.5899C0.474586 11.7448 0.486804 11.9255 0.578674 12.0692C0.670544 12.213 0.829383 12.3 1 12.3H5.5V19C5.5 19.2347 5.66324 19.4378 5.89245 19.4883C6.12166 19.5388 6.35513 19.423 6.45373 19.2101L11.4537 8.41006C11.5254 8.25523 11.5132 8.07454 11.4213 7.93077C11.3295 7.787 11.1706 7.7 11 7.7H6.5Z" fill="url(#paint0_linear_1_79)" stroke="#FD9003" stroke-linejoin="round"/>
    <defs>
      <linearGradient id="paint0_linear_1_79" x1="6" y1="1" x2="6" y2="19" gradientUnits="userSpaceOnUse">
        <stop stop-color="#FDF645"/>
        <stop offset="1" stop-color="#FEC300"/>
      </linearGradient>
    </defs>
  </symbol>

  <symbol fill="none" xmlns="http://www.w3.org/2000/svg" viewBox="0 0 256 256" id="icon-rocket">
    <defs>
    </defs>
    <g style="stroke: none; stroke-width: 0; stroke-dasharray: none; stroke-linecap: butt; stroke-linejoin: miter; stroke-miterlimit: 10; fill: none; fill-rule: nonzero; opacity: 1;" transform="translate(1.4065934065934016 1.4065934065934016) scale(2.81 2.81)" >
      <path d="M 56.739 5.685 c 11.837 -5.303 23.925 -7.582 31.412 -3.836 c 3.745 7.487 1.467 19.575 -3.836 31.412 L 56.739 5.685 z" style="stroke: none; stroke-width: 1; stroke-dasharray: none; stroke-linecap: butt; stroke-linejoin: miter; stroke-miterlimit: 10; fill: rgb(255,82,73); fill-rule: nonzero; opacity: 1;" transform=" matrix(1 0 0 1 0 0) " stroke-linecap="round" />
      <path d="M 73.128 52.003 l -0.313 12.825 c -0.031 1.26 -0.393 2.489 -1.05 3.564 L 61.049 85.919 c -1.525 2.494 -5.119 2.572 -6.751 0.147 L 45.107 72.41" style="stroke: none; stroke-width: 1; stroke-dasharray: none; stroke-linecap: butt; stroke-linejoin: miter; stroke-miterlimit: 10; fill: rgb(255,82,73); fill-rule: nonzero; opacity: 1;" transform=" matrix(1 0 0 1 0 0) " stroke-linecap="round" />
      <polygon points="17.59,44.89 15.23,56.24 24.5,65.5 33.76,74.77 45.11,72.41 " style="stroke: none; stroke-width: 1; stroke-dasharray: none; stroke-linecap: butt; stroke-linejoin: miter; stroke-miterlimit: 10; fill: rgb(255,82,73); fill-rule: nonzero; opacity: 1;" transform="  matrix(1 0 0 1 0 0) "/>
      <path d="M 37.967 16.843 l -12.825 0.313 c -1.26 0.031 -2.489 0.393 -3.564 1.05 L 4.052 28.922 c -2.494 1.525 -2.572 5.119 -0.147 6.751 l 13.656 9.191" style="stroke: none; stroke-width: 1; stroke-dasharray: none; stroke-linecap: butt; stroke-linejoin: miter; stroke-miterlimit: 10; fill: rgb(255,82,73); fill-rule: nonzero; opacity: 1;" transform=" matrix(1 0 0 1 0 0) " stroke-linecap="round" />
      <path d="M 45.107 72.41 L 17.59 44.893 c 0.231 -0.955 0.511 -1.914 0.875 -2.875 c 2.509 -6.627 6.739 -13.243 12.558 -19.061 C 37.703 16.276 47.141 9.991 56.743 5.69 L 84.31 33.257 c -4.301 9.603 -10.587 19.04 -17.267 25.721 c -5.818 5.818 -12.435 10.049 -19.061 12.558 C 47.021 71.899 46.062 72.179 45.107 72.41 z" style="stroke: none; stroke-width: 1; stroke-dasharray: none; stroke-linecap: butt; stroke-linejoin: miter; stroke-miterlimit: 10; fill: rgb(249,249,249); fill-rule: nonzero; opacity: 1;" transform=" matrix(1 0 0 1 0 0) " stroke-linecap="round" />
      <circle cx="53.924" cy="36.074" r="11.204" style="stroke: none; stroke-width: 1; stroke-dasharray: none; stroke-linecap: butt; stroke-linejoin: miter; stroke-miterlimit: 10; fill: rgb(123,216,232); fill-rule: nonzero; opacity: 1;" transform="  matrix(1 0 0 1 0 0) "/>
      <path d="M 2 90 c -0.512 0 -1.024 -0.195 -1.414 -0.586 c -0.781 -0.781 -0.781 -2.047 0 -2.828 l 17.709 -17.709 c 0.78 -0.781 2.048 -0.781 2.828 0 c 0.781 0.781 0.781 2.047 0 2.828 L 3.414 89.414 C 3.024 89.805 2.512 90 2 90 z" style="stroke: none; stroke-width: 1; stroke-dasharray: none; stroke-linecap: butt; stroke-linejoin: miter; stroke-miterlimit: 10; fill: rgb(255,221,120); fill-rule: nonzero; opacity: 1;" transform=" matrix(1 0 0 1 0 0) " stroke-linecap="round" />
      <path d="M 2.84 77.48 c -0.512 0 -1.023 -0.195 -1.414 -0.586 c -0.781 -0.781 -0.781 -2.047 0 -2.828 l 11.03 -11.029 c 0.78 -0.781 2.047 -0.781 2.828 0 c 0.781 0.781 0.781 2.047 0 2.828 L 4.254 76.895 C 3.864 77.285 3.352 77.48 2.84 77.48 z" style="stroke: none; stroke-width: 1; stroke-dasharray: none; stroke-linecap: butt; stroke-linejoin: miter; stroke-miterlimit: 10; fill: rgb(255,221,120); fill-rule: nonzero; opacity: 1;" transform=" matrix(1 0 0 1 0 0) " stroke-linecap="round" />
      <path d="M 14.52 89.16 c -0.512 0 -1.024 -0.195 -1.414 -0.586 c -0.781 -0.781 -0.781 -2.047 0 -2.828 l 11.029 -11.029 c 0.78 -0.781 2.048 -0.781 2.828 0 c 0.781 0.781 0.781 2.047 0 2.828 L 15.934 88.574 C 15.543 88.965 15.031 89.16 14.52 89.16 z" style="stroke: none; stroke-width: 1; stroke-dasharray: none; stroke-linecap: butt; stroke-linejoin: miter; stroke-miterlimit: 10; fill: rgb(255,221,120); fill-rule: nonzero; opacity: 1;" transform=" matrix(1 0 0 1 0 0) " stroke-linecap="round" />
    </g>
  </symbol>
  <symbol fill="none" xmlns="http://www.w3.org/2000/svg" viewBox="0 0 12 12" id="icon-info">
    <circle cx="6" cy="6" r="6" fill="#4E4F50"/>
    <path d="M5.34416 7.27149L5.20779 2H6.78571L6.65584 7.27149H5.34416ZM6.00649 10C5.4026 10 5 9.67258 5 9.1869C5 8.69577 5.4026 8.36835 6.00649 8.36835C6.6039 8.36835 7 8.69577 7 9.1869C7 9.67258 6.6039 10 6.00649 10Z" fill="#171417"/>
  </symbol>
  <symbol xmlns="http://www.w3.org/2000/svg" viewBox="0 0 30 30" id="icon-mine">
    <path d="M12.9817 11.4934L11.4942 12.9809C11.2213 13.2539 11.2213 13.6964 11.4942 13.9693L19.6461 22.1212C20.3298 22.8049 21.4383 22.8049 22.122 22.1212C22.8057 21.4375 22.8057 20.329 22.122 19.6453L13.9701 11.4934C13.6972 11.2205 13.2546 11.2205 12.9817 11.4934Z"/>
    <path d="M16.7438 5.61107C17.4009 5.07434 17.1109 4.16761 16.2704 4.28332C14.7083 4.49838 12.4365 5.188 9.96838 7.17531L9.17471 6.38164C8.78418 5.99112 8.15102 5.99112 7.7605 6.38164L6.38165 7.76049C5.99112 8.15101 5.99112 8.78418 6.38165 9.1747L7.17408 9.96714C5.18741 12.4362 4.4981 14.7084 4.28319 16.2705C4.16756 17.111 5.07429 17.401 5.61101 16.7439L6.70363 15.4062C9.30426 12.2226 12.2229 9.30398 15.4065 6.70336"/>
  </symbol>
  <symbol xmlns="http://www.w3.org/2000/svg" viewBox="0 0 36 25" id="icon-upgrade">
    <path d="M11.1429 6.87416V24.3028H24.5026V6.87416H11.1429ZM19.9528 16.9309H15.6928V12.481C15.6928 11.9027 15.9172 11.3481 16.3166 10.9392C16.7161 10.5303 17.2578 10.3006 17.8228 10.3006C18.3877 10.3006 18.9294 10.5303 19.3289 10.9392C19.7284 11.3481 19.9528 11.9027 19.9528 12.481V16.9309Z" />
    <path d="M26.2122 0.0957031H24.0242V1.65316H22.5607V0.0957031H20.3728V1.65316H18.9093V0.0957031H16.7213V1.65316H15.2579V0.0957031H13.0699V1.65316H11.6209V0.0957031H9.41846V3.34411L11.1427 5.10923H17.8226H24.5024L26.2122 3.34411V0.0957031Z" />
    <path d="M35.6737 11.7987H33.4857V13.3562H32.0223V11.7987H29.8343V13.3562H28.3708V11.7987H26.1829V13.3562V14.0385V14.2017V15.0471V24.2881H35.6737V11.7987Z" />
    <path d="M9.4906 14.0385V13.3562V11.7987H7.30263V13.3562H5.83916V11.7987H3.65119V13.3562H2.18772V11.7987H-0.000244141V13.3562V14.0385V14.2017V15.0471V24.2881H9.4906V14.2017V14.0385Z" />
  </symbol>
  <symbol xmlns="http://www.w3.org/2000/svg" viewBox="0 0 20 18" id="icon-items">
    <path d="M9.13977 19C7.38331 18.9489 5.64512 18.8174 3.97948 18.2416C3.36561 18.026 2.77302 17.7565 2.20898 17.4366C0.871511 16.6873 0.267621 15.4768 0.0752162 14.0321C-0.0619482 13.0052 -0.000153981 11.9838 0.168844 10.966C0.17156 10.9205 0.182161 10.8757 0.200205 10.8336C0.227826 10.7879 0.276506 10.7121 0.31068 10.7149C0.342305 10.7193 0.372529 10.7305 0.399164 10.7478C0.425799 10.765 0.448182 10.7877 0.464699 10.8144C1.12009 12.3062 2.4365 12.8933 3.92892 13.223C5.1854 13.5002 6.46857 13.5006 7.74612 13.4573C8.45909 13.4331 9.16926 13.3203 9.87943 13.2404C10.1219 13.2125 10.2727 13.2961 10.3298 13.5541C10.5498 14.5549 11.1031 16.7617 11.164 16.8631C11.2108 16.754 11.5165 14.3111 11.6209 13.1984C11.64 13.0551 11.6508 12.9109 11.6532 12.7664C11.6406 12.2363 11.9172 11.7979 12.0918 11.3212C12.5019 10.2016 12.8526 9.06149 13.2275 7.92956C13.5084 7.07662 13.8123 6.23189 14.3043 5.46662C14.6104 4.99129 14.9676 4.55614 15.4994 4.30957C15.7368 4.1984 15.9913 4.12576 16.2527 4.09451C16.9422 4.02054 17.3041 4.34473 17.3467 5.02325C17.3987 5.84058 17.2011 6.62138 16.9923 7.40172C16.7863 8.17156 16.5139 8.92862 16.3669 9.70851C16.2039 10.598 16.0962 11.4962 16.0443 12.3984C15.9615 13.7344 15.9456 15.0741 15.8964 16.412C15.8931 16.6262 15.8402 16.837 15.7416 17.0285C15.643 17.22 15.5013 17.3873 15.3271 17.5179C14.4405 18.1991 13.2402 18.8658 9.13977 19Z" />
    <path d="M13.8815 2.38907C14.0505 2.41647 15.6552 2.53107 15.8659 2.56486C15.7774 2.65344 12.1779 4.56618 11.8235 7.97156C11.7159 8.46013 11.6007 8.94961 11.449 9.42631C10.9762 10.9149 9.89388 11.7176 8.35558 11.9943C7.3018 12.1838 6.241 12.155 5.18535 12.0536C4.50422 11.9929 3.82927 11.8782 3.1672 11.7107C1.80539 11.3546 1.01377 10.4665 0.884092 9.08751C0.74365 7.56426 0.920147 6.07664 1.66495 4.70407C2.60123 2.98129 4.08101 1.99319 6.06545 1.77447C6.61411 1.7142 7.4619 1.81009 7.88744 1.85712C8.03678 1.87356 8.129 1.82014 8.22731 1.71603C8.8827 1.02609 9.62096 0.449396 10.5502 0.156254C11.5076 -0.146021 12.4176 -0.00584041 13.2453 0.543002C13.9236 0.992305 14.1104 1.57265 13.8815 2.38907ZM4.99716 7.74782C4.39092 7.73823 3.99769 7.8364 3.64518 8.06973C2.97902 8.51035 2.88867 9.28065 3.43405 9.85415C4.11753 10.5738 5.46249 10.6797 6.25458 10.0765C6.78639 9.67197 6.88422 9.00532 6.47273 8.48296C6.29733 8.26214 6.07415 8.08176 5.8191 7.95469C5.56404 7.82762 5.2834 7.75699 4.99716 7.74782ZM10.2726 2.07081L12.5286 2.27857C12.7626 1.74343 12.5908 1.35211 12.0642 1.17175C11.3549 0.928834 10.5853 1.30645 10.2721 2.07081H10.2726Z" />
    <path d="M17.1122 17.0855C17.1122 16.3449 17.108 15.6083 17.1178 14.8723C17.1178 14.7933 17.1946 14.712 17.2442 14.6367C17.5925 14.107 17.9769 13.5933 18.1431 12.9733C18.3505 12.197 18.2119 11.434 18.0298 10.6756C17.9719 10.4162 17.8952 10.161 17.8004 9.91216C17.7068 9.67518 17.7068 9.45966 17.7732 9.21355C18.0237 8.26792 18.5087 6.31318 18.5457 6.23053C18.7638 6.95425 18.9993 7.61999 19.1622 8.30216C19.4487 9.49756 19.7511 10.6943 19.9384 11.9066C20.2604 13.992 19.2933 16.0188 17.2555 17.0279C17.2021 17.0544 17.1445 17.0722 17.1122 17.0855Z" />
  </symbol>
  <symbol xmlns="http://www.w3.org/2000/svg" viewBox="0 0 20 17" id="icon-friends">
    <circle cx="10.0001" cy="4.53333" r="4.53333" />
    <circle cx="15.6676" cy="4.53379" r="3.4" />
    <circle cx="4.33359" cy="4.53379" r="3.4" />
    <path fill-rule="evenodd" clip-rule="evenodd" d="M16.3128 14.7331H18.9496C19.6201 14.7331 20.1342 14.1552 19.9713 13.5048C19.554 11.8383 18.4429 9.06641 15.6686 9.06641C14.6644 9.06641 13.878 9.4296 13.2637 9.97209C14.9725 11.0807 15.856 13.022 16.3128 14.7331Z" />
    <path fill-rule="evenodd" clip-rule="evenodd" d="M6.73805 9.97208C6.12368 9.4296 5.33737 9.06641 4.33315 9.06641C1.55884 9.06641 0.447697 11.8383 0.0303669 13.5048C-0.132516 14.1552 0.381613 14.7331 1.05212 14.7331H3.68889C4.14572 13.022 5.02926 11.0807 6.73805 9.97208Z" />
    <path d="M10.0007 10.2002C14.2038 10.2002 15.2893 13.9413 15.5697 15.8737C15.6596 16.4932 15.1599 17.0002 14.534 17.0002H5.46732C4.84139 17.0002 4.34174 16.4932 4.43161 15.8737C4.71197 13.9413 5.79751 10.2002 10.0007 10.2002Z" />
  </symbol>
  <symbol xmlns="http://www.w3.org/2000/svg" viewBox="0 0 20 20" id="icon-earn">
    <path fill-rule="evenodd" clip-rule="evenodd" d="M10 20C15.5228 20 20 15.5228 20 10C20 4.47715 15.5228 0 10 0C4.47715 0 0 4.47715 0 10C0 15.5228 4.47715 20 10 20ZM10.3173 14.8433V16H9.6966V14.8459C9.0269 14.8235 8.43637 14.7188 7.92502 14.532C7.34845 14.3151 6.89509 14.0012 6.56495 13.5903C6.23482 13.1795 6.04882 12.6832 6.00697 12.1016L6 12.0046H8.20401L8.21796 12.0669C8.26446 12.2701 8.35745 12.4455 8.49695 12.5932C8.64109 12.7409 8.84103 12.854 9.09677 12.9325C9.26997 12.9847 9.46991 13.0195 9.6966 13.037V11.0055L8.9782 10.8621C8.33653 10.7374 7.79948 10.5528 7.36704 10.3081C6.93926 10.0589 6.61842 9.74957 6.40453 9.38027C6.19529 9.00635 6.09067 8.56549 6.09067 8.0577V8.04385C6.09067 7.4622 6.24876 6.95441 6.56495 6.52048C6.88579 6.08194 7.3345 5.74495 7.91107 5.50952C8.43071 5.29318 9.02589 5.17433 9.6966 5.15296V4H10.3173V5.15908C10.9313 5.18958 11.4707 5.29255 11.9355 5.46797C12.5028 5.68032 12.9468 5.99192 13.2677 6.40277C13.5931 6.81362 13.7838 7.31448 13.8396 7.90537L13.8466 8.03693H11.6425L11.6286 7.97461C11.5867 7.7438 11.4938 7.55453 11.3496 7.40681C11.2101 7.25447 11.0218 7.14137 10.7847 7.06751C10.6463 7.02173 10.4905 6.9893 10.3173 6.97022V8.96932L11.0427 9.11021C12.0517 9.30871 12.7957 9.62493 13.2746 10.0589C13.7582 10.4928 14 11.0883 14 11.8454V11.8592C14 12.487 13.8326 13.0248 13.4978 13.4726C13.1677 13.9158 12.7004 14.2574 12.0959 14.4974C11.5781 14.6991 10.9853 14.8144 10.3173 14.8433ZM10.3173 11.1293V13.0434C10.5668 13.0296 10.7806 12.995 10.959 12.9394C11.1962 12.8609 11.3729 12.7525 11.4891 12.614C11.6053 12.4755 11.6635 12.3093 11.6635 12.1154V12.1085C11.6635 11.85 11.5612 11.6469 11.3566 11.4991C11.1678 11.3553 10.8213 11.232 10.3173 11.1293ZM9.6966 6.95626C9.46298 6.97033 9.26071 7.00742 9.0898 7.06751C8.87126 7.14137 8.70619 7.24524 8.59459 7.37911C8.483 7.51298 8.4272 7.66994 8.4272 7.84997V7.8569C8.4272 8.02308 8.47137 8.1708 8.55972 8.30006C8.64807 8.4247 8.78989 8.53318 8.98518 8.6255C9.16757 8.70742 9.40471 8.78128 9.6966 8.84709V6.95626Z" />
  </symbol>
</svg>
