<?xml version="1.0" encoding="utf-8"?>
<!-- Generator: Adobe Illustrator 28.0.0, SVG Export Plug-In . SVG Version: 6.00 Build 0)  -->
<svg version="1.1" id="Layer_1" xmlns="http://www.w3.org/2000/svg" xmlns:xlink="http://www.w3.org/1999/xlink" x="0px" y="0px"
	 viewBox="0 0 800 800" style="enable-background:new 0 0 800 800;" xml:space="preserve">
<style type="text/css">
	.st0{fill:#282828;}
	.st1{fill:url(#SVGID_1_);}
	.st2{fill:url(#SVGID_00000129927528404173012850000006205546086383504547_);}
	.st3{fill:url(#SVGID_00000016757058428601987960000010697604214884882567_);}
	.st4{fill:url(#SVGID_00000152986910430712031680000009016241241287193256_);}
	.st5{fill:url(#SVGID_00000180366287011361305160000004040583578202733450_);}
	.st6{fill:url(#SVGID_00000099647168268338737010000004731085763906714019_);}
	.st7{fill:url(#SVGID_00000121960180506113492400000013930406145662978945_);}
	.st8{fill:url(#SVGID_00000008841219510828243890000005737179189875856542_);}
	.st9{fill:#444754;}
	.st10{fill:url(#SVGID_00000109724336252052319410000018306212981184071572_);stroke:#000000;stroke-miterlimit:10;}
	.st11{fill:url(#SVGID_00000092455285202799683610000018339133449437239442_);}
	.st12{fill:url(#SVGID_00000132051455279990651950000014129313283805649072_);}
	.st13{fill:#7F7F7E;}
	.st14{fill:#70737F;}
	.st15{fill:#FAF7F5;}
</style>
<g id="_x32_-PANTS__x5B_BLACK_x5D__Jeans_x2B_">
	<path id="color_00000092454112951809568720000004289511862371117494_" class="st0" d="M388.93,709.59c2,0.23,4.02,0.38,6,0.73
		c3.09,0.54,6.42,0.15,9.58,0.33c4.81,0.27,9.38-1.23,13.2-4.16c0.3-0.23,0.61-0.48,0.79-0.81c0.25-0.45,0.26-0.98,0.25-1.49
		c-0.07-6.22-1.21-12.39-1.09-18.61c0.05-2.47,0.32-5.01,1.47-7.19c1.14-2.16,3.09-3.88,3.88-6.19c0.26-0.76,0.38-1.56,0.51-2.35
		c0.41-2.61,1.45-5.8,1.09-8.43c-0.23-1.65-0.79-3.24-0.85-4.92c-0.05-1.5,0.06-2.95,0.14-4.46c0.1-1.81-0.06-3.7-0.13-5.52
		c-0.21-5.99-0.45-12.09-0.42-18.1c0.02-2.68,0.22-5.34,0.79-7.96c0.53-2.44,0.24-4.96,0.05-7.45c-0.68-8.82-0.54-17.49-1.92-26.28
		c-1.38-8.8-3.19-17.59-3.18-26.54c0-1.94-0.24-3.72-0.11-5.65c0.15-2.24,0.18-4.5-0.22-6.72c-0.29-1.59-0.8-3.13-1.3-4.66
		c-1.4-4.23-2.53-8.38-3.63-12.67c-2.24-8.82-1.68-18.02-2.8-27.02c-0.28-3.73-0.56-7.45-0.83-11.18c-0.18-2.47,0.22-4.92,0.23-7.39
		c0.01-2.18-0.87-3.98-0.87-6.17c0.76-0.15,1.35,0.62,1.73,1.29c5.63,10.04,8.62,21.24,12.96,31.84c2.11,5.16,4.53,10.27,7.78,14.81
		c3.2,4.47,4.72,9.75,6.25,14.95c0.34,1.15,0.84,2.13,1.11,3.32c0.33,1.42,0.65,2.85,1,4.26c0.7,2.83,1.53,5.64,2.7,8.32
		c1.08,2.45,2.44,4.77,3.46,7.24c2.48,6.02,2.82,12.67,3.7,19.12c0.67,4.94,1.68,9.84,3,14.64c2.63,9.57,7.66,18.06,10.82,27.44
		c3.22,9.54,5.17,19.46,6.64,29.4c0.87,5.91,1.7,12.54,6.88,16.3c1.56,1.13,2.97,2.39,4.41,3.69c1.26,1.13,2.53,2.29,3.39,3.74
		c0.46,0.78,0.79,1.62,1.07,2.48c0.62,1.86,1.01,3.8,1.16,5.76c0.07,0.9-0.09,1.94,0.11,2.82c0.17,0.75,0.54,1.47,0.73,2.23
		c1.02,3.99,1.74,8.05,2.52,12.09c0.3,1.56,0.8,3.35,2.27,3.94c1.41,0.57,3.28,0.19,4.71-0.12c1.82-0.39,3.64-0.85,5.47-1.17
		c4.11-0.72,8.3-0.67,12.44-0.43c2.13,0.12,4.26,0.3,6.38,0.44c1.22,0.08,4.17,0.98,4.69-0.5c0.16-0.46,0.14-0.97,0.12-1.46
		c-0.15-3.59-0.43-7.16-0.74-10.74c-0.12-1.42,0.15-2.78,0.11-4.21c-0.03-1.24-0.05-2.48-0.06-3.73c-0.01-1.05,0.15-2.04,0.15-3.07
		c0-1.95-0.76-4.03,0.02-5.92c0.73-1.77,2.67-2.86,3.24-4.68c0.15-0.48,0.19-0.98,0.24-1.48c0.15-1.75-0.02-3.42,0.1-5.18
		c0.14-2.04,0.36-4.08,0.67-6.11c0.14-0.96,0.3-1.92,0.27-2.88c-0.07-2.21-1.09-4.21-1.85-6.25c-0.77-2.07-0.72-4.07-1.13-6.2
		c-0.81-4.26-2.38-8.36-3.43-12.57c-0.53-2.15-1.07-4.31-1.55-6.47c-0.94-4.18-3.64-7.65-4.59-11.74c-0.58-2.51-0.08-5.12-0.01-7.69
		c0.22-7.98-3.84-15.1-4.64-22.9c-1.12-10.93-5.98-21.56-8.85-32.13c-0.64-2.35-1.29-4.72-2.43-6.87c-0.65-1.22-1.45-2.36-1.91-3.66
		c-0.61-1.74-0.69-3.92-0.5-5.74c0.21-2.01,0.89-3.85,0.09-5.85c-0.55-1.35-1.65-2.4-2.44-3.62c-0.74-1.15-1.2-2.45-1.66-3.73
		c-1.79-5.05-3.24-9.92-2.99-15.32c0.23-4.91,0.28-10.19-0.41-15.1c-0.65-4.65-1.3-9.31-2.13-13.94c-0.79-4.38-2.04-8.68-2.84-13.07
		c-1.29-7.09-1.98-14.28-4.23-21.17c-0.99-3.03-1-6.24-1.66-9.34c-0.37-1.77-0.96-3.48-1.37-5.24c-0.69-2.96-0.59-6.06-1.33-8.96
		c-0.72-2.83-0.9-5.74-1.01-8.65c-0.04-1.08-0.45-1.87,0.16-2.91c0.36-0.62,0.86-1.17,1.1-1.85c0.31-0.89,0.13-1.86-0.04-2.79
		c-0.66-3.73-1.01-7.53-1.02-11.32c-0.01-2.49-2.06-7.68-5.56-5.08c-0.17,0.12-0.32,0.28-0.52,0.31c-0.15,0.03-0.3-0.02-0.44-0.06
		c-4.97-1.54-10.2-2.6-15.29-3.68c-5.23-1.11-10.54-1.81-15.83-2.54c-8.39-1.15-16.89-1.5-25.35-1.06
		c-1.25,0.07-2.41,0.02-3.54-0.54c-1.04-0.52-1.8-1.33-3.08-1.42c-1.03-0.07-2,0.45-2.96,0.84c-5.41,2.26-11.55,1.05-17.4,0.72
		c-1.93-0.11-3.89-0.11-5.74,0.43c-0.91,0.27-1.78,0.66-2.71,0.87c-3.38,0.76-7-1.08-10.3-0.06c-0.84,0.26-1.75,0.98-1.51,1.83
		c-0.27-0.93-5.98,0.57-6.67,0.72c-3.63,0.78-7.27,2.12-11.02,1.26c-0.39-0.09-0.8-0.2-1.18-0.09c-0.94,0.27-1.1,1.56-1.81,2.24
		c-0.45,0.42-1.09,0.56-1.7,0.71c-3,0.71-5.64,2.01-8.41,3.3c-2.19,1.02-4.99,1.94-5.85,4.49c-0.53,1.58-0.13,2.56,0.08,4.13
		c0.25,1.86-1.09,3.55-1.3,5.41c-0.08,0.73,0.01,1.47,0.1,2.2c0.73,5.73,1.47,11.47,2.75,17.1c0.55,2.4,1.2,4.8,1.4,7.26
		c0.16,1.93,0.04,3.88,0.27,5.8c0.27,2.19,1,4.31,1.27,6.5c0.2,1.64,0.14,3.31,0.38,4.95c0.27,1.87,0.94,3.67,1.25,5.53
		c0.55,3.21,0.05,6.52,0.74,9.71c0.66,3.08,1.38,6.1,2.29,9.14c2.1,6.98,4.42,13.92,5.89,21.07c2.18,10.65,2.97,21.54,3.29,32.39
		c0.09,3.14,0.15,6.29,0.5,9.41c0.48,4.36,1.54,8.46,2.97,12.6c0.59,1.7,0.89,3.58,1.53,5.23c0.65,1.68,1.95,2.83,2.18,4.73
		c0.33,2.66-1.17,5.53,0.03,7.93c0.76,1.52,2.51,2.55,2.72,4.24c0.09,0.71-0.12,1.41-0.25,2.11c-0.85,4.61,1.68,8.93,2.11,13.44
		c0.44,4.6,1.22,9.21,1.61,13.86c0.4,4.84,0.97,9.67,1.69,14.48c0.67,4.44,1.88,8.89,2.05,13.38c0.24,6.3-0.21,12.52,2.25,18.49
		c1.04,2.52,3.15,5.96,2.51,8.78c-0.24,1.06-0.92,1.96-1.3,2.98c-0.76,2.08-0.19,4.39,0.48,6.5c0.98,3.06,1.43,6.14,1.58,9.34
		c0.06,1.28-0.42,2.6-0.29,3.86c0.13,1.24,1.02,2.32,1.92,3.12c1.03,0.92,2.23,1.68,3.1,2.76c1.59,1.96,1.85,4.64,2.05,7.16
		c0.3,3.77,0.6,7.54,0.9,11.31c0.17,2.1,0.47,4.45,2.13,5.74c0.75,0.58,1.68,0.86,2.61,1.07
		C386.33,709.26,387.63,709.44,388.93,709.59z"/>
	
		<linearGradient id="SVGID_1_" gradientUnits="userSpaceOnUse" x1="326.2166" y1="255.3861" x2="523.01" y2="255.3861" gradientTransform="matrix(1 0 0 -1 0 799.8898)">
		<stop  offset="0" style="stop-color:#1D1D1B"/>
		<stop  offset="0.8736" style="stop-color:#1D1D1B;stop-opacity:0"/>
	</linearGradient>
	<path class="st1" d="M381.21,707.07c0.68,1.3,1.4,1.16,2.71,1.42c3.13,0.62,6.24,1.36,9.41,1.8c5.85,0.81,11.89,0.76,17.55-0.92
		c1.98-0.59,3.89-1.37,5.77-2.2c1.01-0.45,1.63-1.21,1.93-2.29c0.21-0.73,0.25-1.49,0.3-2.24c0.02-0.31,0-0.7-0.28-0.84
		c-0.17-0.09-0.38-0.04-0.57,0.01c-1.81,0.47-3.73,1.22-5.63,1.22c-3.21,0.4-6.46,0.22-9.68,0.03c-0.97-0.06-2.05,0.3-2.89-0.38
		c-0.79-0.64-0.77-1.85-1.32-2.71c-0.66-1.02-1.97-1.35-3.16-1.6c-2.74-0.57-4.04-2.47-5.69-4.48c1.58-1.17,3.78-0.73,5.72-0.39
		c6.49,1.16,13.22,0.64,19.67,2.04c-0.11-1.58-1.19-2.96-2.51-3.83s-2.87-1.31-4.39-1.74c-2.44-0.69-4.88-1.37-7.32-2.06
		c-1.75-0.49-3.52-0.99-5.12-1.87c-1.28-0.71-2.42-1.64-3.55-2.57c-1.88-1.55-3.78-3.12-5.36-4.98c-0.74-0.88-1.5-1.85-1.99-2.89
		c-0.38-0.8-0.28-1.78-0.96-2.42c1.48,0.21,2.81,0.95,4.14,1.6c6.57,3.18,14.01,4.22,20.56,7.43c1.83,0.9,3.69,1.99,5.73,1.96
		c0.32-0.01,0.67-0.05,0.91-0.26c0.19-0.17,0.28-0.41,0.37-0.65c1.55-4.26,2.75-9.62,1.16-14.05c-0.91-2.53-2.81-4.59-3.79-7.09
		c-0.31-0.79-0.53-1.68-0.25-2.49c0.25-0.71,0.91-1.18,1.65-1.18c0.2,0,1.48,0.69,1.57,0.39c0.59-2.1-2.42-40.85-3.63-43.46
		c-0.5-1.08-1.36-1.95-2.2-2.79c-2.52-2.53-5.06-5.08-8.03-7.06c-1.45-0.96-3.08-1.88-3.82-3.46c-0.46-0.99-0.51-2.11-0.75-3.17
		s6.63,0.54,10.54,2.74c1.04,0.59,2.19,1.23,3.37,0.99c-0.65-4.04-1.1-8.12-1.3-12.21c-0.05-1.02-0.29-1.3-1.08-1.91
		c-0.71-0.55-1.51-1.01-2.28-1.46c-1.38-0.81-2.95-1.79-4.51-2.21c-0.98-0.26-2.61-0.33-3.12-1.39c-0.38-0.8,0.15-1.7,0.58-2.48
		c0.73-1.33,1.17-2.81,1.3-4.32c0.07-0.82,0.03-1.67-0.35-2.39c-0.21-0.4-0.53-0.74-0.84-1.08c-0.4-0.43-0.8-0.87-1.2-1.3
		c-0.16-0.17-0.33-0.35-0.56-0.42c-0.43-0.13-0.86,0.19-1.21,0.49c-3.28,2.87-6.69,5.68-10.65,7.52c-1.25,0.58-2.08,0.58-3.3,0.03
		c-1.14-0.52-2.47-0.58-3.58-1.12c-0.95-0.46-1.52-0.92-2.68-0.71c-1.05,0.19-2.73,0.83-3.56,1.5c-0.1,0.08-0.2,0.18-0.27,0.29
		c-0.07,0.12-0.1,0.27-0.13,0.41c-0.16,0.75-0.32,1.5-0.49,2.25c-0.04,0.2-0.09,0.41-0.19,0.59c-0.26,0.47-0.83,0.69-1.37,0.67
		c-0.53-0.02-1.04-0.23-1.53-0.44c-0.67-0.29-1.34-0.57-2-0.86c0.58,0.17,1.19,0.26,1.8,0.26c0.53,0,1.13-0.11,1.39-0.57
		c0.38-0.66,0.21-1.75,0.39-2.49c0.06-0.25,0.13-0.51,0.29-0.7c0.18-0.22,0.44-0.34,0.7-0.45c2.55-1.13,5.23-1.92,7.76-3.03
		c2.13-0.91,4.26-1.81,6.32-2.88c1.87-0.97,3.54-2.27,5.46-3.22c3.94-1.96,8.23-3.23,12.61-3.7c-0.33-1.6-1.74-2.7-2.98-3.76
		c-2.76-2.36-5.08-5.23-6.81-8.42c-0.11-0.21-0.23-0.45-0.15-0.68c0.06-0.18,0.23-0.3,0.4-0.4c1.62-1,3.48-1.52,5.34-1.96
		c0.46-0.11,0.94-0.22,1.41-0.13c1.41,0.25,1.94,1.96,2.94,2.99c1.77,1.83,5.26,1.68,6.33,4c0.51,1.11,0.26,2.49,0.86,3.56
		c0.91,1.6,3.24,1.74,4.46,3.12c1.16-6.73,0.87-13.93-2.24-20c-0.69-1.34-1.54-2.66-2.79-3.5c-0.38-0.26-0.8-0.47-1.12-0.8
		s-0.52-0.75-0.72-1.16c-1.06-2.21-2.11-4.42-3.17-6.62c-0.51-1.08-1.03-2.15-1.54-3.23c-0.44-0.91-1.08-1.84-1.13-2.87
		c-0.09-1.64-0.18-3.29-0.27-4.93c-3.39-1.34-6.92-2.32-10.51-2.91c3.35-0.94,6.78-1.62,10.24-2.04c0.65-0.08,1.3-0.15,1.9-0.4
		c0.91-0.38,1.6-1.13,2.23-1.9c1.01-1.22,1.93-2.52,2.75-3.87c0.19-0.31,0.37-0.62,0.46-0.97c0.12-0.46,0.08-0.95,0.04-1.43
		c-0.25-2.73-0.51-5.46-0.76-8.19c-0.13-1.4-0.26-2.83,0.08-4.19c0.2-0.81,0.56-1.57,0.81-2.36c0.64-2.08,0.48-4.29,0.15-6.42
		c-0.28-1.77,0.1-3.36,0.1-5.16c0-0.31,0.01-2.7-0.14-2.81c5.23,3.99,7.82,10.45,10.18,16.59c2.03,5.28,4.05,10.56,6.08,15.85
		c0.57,1.49,1.14,2.97,1.74,4.45c1.19,2.89,2.5,5.73,3.94,8.51c1.26,2.43,2.27,4.79,3.32,7.32c1.3,3.13,2.61,6.29,3.33,9.6
		c0.51,2.33,0.72,4.72,1.24,7.05c0.56,2.54,1.48,4.98,2.39,7.42c1.45,3.89,2.91,7.78,4.36,11.67c0.73,1.95,1.45,3.89,2.18,5.84
		c0.7,1.86,0.73,3.76,0.93,5.72c0.3,2.97,1.35,5.7,1.98,8.59c0.8,3.69,0.79,7.51,1.54,11.21c1.33,6.53,4.68,12.58,7.15,18.72
		c2.56,6.37,4.71,12.91,6.42,19.57c0.89,3.46,1.66,6.95,2.31,10.46c0.83,4.47,1.04,9.05,2.02,13.49c0.43,1.93,0.93,4.24,1.85,5.98
		c0.97,1.81,3.24,3.11,5.02,3.96c5.12,2.46,10.93,2.94,16.52,3.97c0.55,0.1,1.21,0.3,1.35,0.84c0.1,0.38-0.1,0.78-0.3,1.12
		c-1.02,1.76-2.03,3.53-3.05,5.29c-0.75,1.31-1.84,3.2-3.45,3.53c-0.45,0.09-0.99,0.12-1.22,0.52c-0.09,0.16-0.11,0.36-0.11,0.54
		c-0.03,1.48,0.62,2.87,1.12,4.26c1.98,5.55,1.67,11.71,3.65,17.26c0.19,0.53,0.41,1.07,0.81,1.48c0.67,0.69,1.86,0.71,2.75,0.61
		c1.35-0.15,2.63-0.62,3.89-1.1c2.36-0.88,5.37-1.11,7.87-1.34c3.5-0.32,7.03-0.22,10.53,0.05c1.72,0.13,3.44,0.31,5.15,0.49
		c1.07,0.11,2.65,0.9,3.29-0.38c0.28-0.57,0.25-1.23,0.21-1.86c-0.07-1.29-0.15-2.59-0.22-3.88c-0.08-1.39-0.17-2.81-0.71-4.09
		c-0.87-2.06-2.84-3.5-4.95-4.26c-1.1-0.39-2.27-0.63-3.3-1.19c-1.03-0.56-1.93-1.55-1.96-2.72c-0.04-1.63,1.67-2.87,3.3-2.94
		s3.17,0.69,4.64,1.4c0.41,0.2,0.86,0.41,1.32,0.34c0.46-0.07,0.87-0.55,0.71-0.97c-0.27-0.68,0.28-0.73,0.69-1.13
		c0.51-0.49,0.83-1.25,0.6-1.92c-0.31-0.89-1.36-1.22-2.28-1.4c-7.94-1.56-16.12-0.52-24.21-0.63c-0.49-0.01-1.12-0.12-1.21-0.61
		c-0.09-0.44,0.36-0.78,0.76-0.99c3.7-1.94,7.98-2.4,12.14-2.76c0.87-0.07,1.77-0.15,2.61,0.1c0.68,0.19,1.28,0.58,1.92,0.87
		c1.38,0.64,2.91,0.84,4.38,1.25c1.44,0.4,2.83,1.01,4.11,1.79c0.24,0.15,0.62,0.28,0.77,0.03c0.06-0.11,0.05-0.24,0.03-0.36
		c-0.21-1.43-0.61-2.5-1.07-3.84c-0.14-0.42-0.29-0.84-0.55-1.19c-0.6-0.81-1.58-0.98-2.4-1.45c-0.94-0.53-1.83-1.05-2.85-1.47
		c-2.06-0.87-4.21-1.57-6.11-2.78c-0.83-0.53-1.55-0.99-2.19-1.72c-0.75-0.85-1.5-1.69-2.51-2.23c-1.02-0.55-2.18-0.75-3.33-0.91
		c-2-0.28-4.02-0.45-6.04-0.5c-1.39-0.04-2.84-0.04-4.05-0.71c5.22-1.89,10.43-3.84,15.61-5.84c-0.31-1.05-1.51-1.49-2.54-1.85
		c-3.1-1.07-6.02-2.59-8.93-4.11c-1.65-0.86-3.32-1.74-4.73-2.97c-1.16-1.01-2.11-2.24-2.89-3.56c-0.37-0.62-0.95-1.42-1.12-2.14
		c-0.18-0.79,0-0.9,0.76-1.34c4.31-2.53,8.83-4.7,13.5-6.49c1.11-0.42,2.31-0.86,3.18-1.7c1.26-1.22,0.94-4.49,1.1-6.1
		c0.25-2.47,0.5-4.94,0.74-7.41c0.1-0.98,0.2-1.97,0.06-2.94c-0.14-1-0.53-1.94-0.91-2.87c-1.65-4.01-2.92-9.31-6.84-11.74
		c-0.32-0.2-0.66-0.39-0.88-0.7c-0.16-0.23-0.24-0.52-0.32-0.79c-0.7-2.54-1.62-5.01-2.75-7.38c-0.14-0.29-0.29-0.59-0.53-0.81
		c-0.28-0.24-0.64-0.35-0.99-0.45c-2.93-0.88-5.75-2.1-8.38-3.65c1.51-1.07,3.37-1.37,5.15-1.74c0.9-0.19,1.81-0.38,2.67-0.71
		c1.07-0.42,1.22-0.58,0.92-1.69c-0.57-2.14-1.35-4.2-2.1-6.28c-0.31-0.85-0.7-1.67-0.98-2.52c-0.27-0.84-0.36-1.71-1.22-2.19
		c-0.46-0.25-1-0.28-1.51-0.3c-2.61-0.12-5.22-0.23-7.83-0.35c-0.82-0.04-1.65-0.07-2.44-0.28c-0.68-0.18-1.46-0.47-2.03-0.05
		c0.38-0.54,1.09-0.71,1.74-0.81c2-0.3,4.02-0.3,6.03-0.14c2.06,0.16,4.14,0.72,6.19,0.79c0.06-0.27,0.04-0.6-0.01-0.94
		c-0.09-0.62-0.3-1.3-0.42-1.79c-0.31-1.23-0.72-2.45-1.12-3.65c-0.82-2.48-1.72-4.94-2.52-7.43c-0.19-0.58-0.37-1.16-0.6-1.73
		c-0.16-0.4-0.33-0.79-0.61-1.11c-0.26-0.3-0.59-0.52-0.93-0.72c-1.53-0.9-3.29-1.45-4.91-2.16c-1.78-0.78-3.62-1.48-5.36-2.34
		c-0.22-0.1-0.45-0.2-0.6-0.38c-0.13-0.16-0.19-0.37-0.24-0.57c-0.28-1.11,1.07-2.23,1.8-2.83c1.38-1.14,2.83-1.99,4.07-3.34
		c-1.81-0.59-3.69-0.96-5.59-1.1c-1.33-0.1-2.76-0.12-3.83-0.91c2-0.33,3.98-0.7,5.96-1.13c0.23-0.05,0.47-0.1,0.66-0.24
		c0.22-0.16,0.35-0.4,0.47-0.64c0.37-0.73,0.7-1.48,1-2.24c0.21-0.56,0.41-1.16,0.27-1.74c-0.18-0.74-0.84-1.24-1.47-1.66
		c-1.26-0.85-2.56-1.62-3.9-2.33c-0.66-0.35-1.39-0.62-2.03-1c-0.26-0.16-1.1-1.21-1.22-1.21c5.88-0.16,11.46,2.41,17.24,3.5
		c0.28-0.29,0.25-0.78,0.04-1.13s-0.55-0.59-0.88-0.83c-2.14-1.52-4.19-3.17-6.2-4.86c-0.29-0.24-0.58-0.49-0.86-0.73
		c-1.99-1.7-3.97-3.5-5.75-5.41c-1.37-1.48-2.58-3.15-3.93-4.67c-1.6-1.8-3.18-3.64-4.51-5.66c-2.05-3.12-2.56-6.88-3.22-10.48
		c-1.23-6.63-2.4-13.27-3.77-19.88c-2.11-10.21-4.94-20.08-8.38-29.92c-0.11-0.32-0.23-0.65-0.46-0.91
		c-0.23-0.27-0.56-0.43-0.89-0.59c-3.72-1.82-7.44-3.63-11.16-5.45c-2.96-1.44-5.96-2.89-9.15-3.7c-0.22-1.3-0.44-2.61-0.82-3.88
		c-0.35-1.17-1.13-2.04-1.56-3.18c6.29-1.26,12.71-1.89,19.13-1.87c0.41,0,0.83,0,1.19-0.19c0.36-0.19,0.62-0.64,0.46-1.01
		c-3.17-0.21-6.34-0.43-9.5-0.64c-0.28-0.02-0.58-0.04-0.82-0.19c-0.21-0.13-0.36-0.33-0.5-0.54c-1.72-2.53-2.83-5.47-3.2-8.51
		c1.3,0.11,2.61,0.22,3.91,0.33c-0.51-0.84-1.01-1.69-1.52-2.53c0.43,0.16,0.91-0.22,1.03-0.66s-0.04-0.91-0.24-1.33
		c-0.49-1.03-1.27-1.92-2.22-2.55c1.67-1.66,3.34-3.33,5.01-4.99c0.42-0.42,0.85-0.85,1.11-1.39c0.27-0.57,0.33-1.23,0.38-1.86
		c0.11-1.4,0.22-2.8,0.11-4.2c-0.08-1.05,0.59-2.73-0.68-3.1c-0.42-0.12-0.89-0.14-1.27-0.36c-0.82-0.46-0.92-1.59-0.88-2.53
		c0.03-0.67-0.2-2.71,0.76-2.7c2.07,0.01,4.16,0.03,6.2,0.41c0.66,0.13,1.32,0.29,2,0.32c1.77,0.07,3.51-0.85,4.58-2.26
		c1.07-1.41,1.49-3.26,1.29-5.02c-0.04-0.37-0.11-0.74-0.29-1.05c-0.76-1.28-2.59-0.86-3.81-0.97c-1.93-0.18-3.84-0.54-5.77-0.78
		c-2.21-0.28-4.79-0.38-6.9-1.13c-1.92-0.69-4.07-0.38-6.11-0.36c-4.88,0.03-9.76,0.01-14.63-0.21c-1.38-0.06-2.81-0.15-4.05-0.77
		c-0.82-0.41-1.54-1.05-2.43-1.26c-1.41-0.34-2.8,0.45-4.15,0.97c-5.94,2.29-12.61-0.4-18.94,0.23c-3.93,0.4-7.78,2.09-11.69,1.58
		c-1.56-0.2-3.3-0.72-4.6,0.16c-0.31,0.21-0.58,0.49-0.9,0.69c-1.08,0.68-2.49,0.27-3.68,0.49c-1.42,0.26-2.83,0.61-4.24,0.9
		c-1.89,0.38-3.77,0.75-5.65,1.2c-0.55,0.13-1.1,0.26-1.66,0.3c-1.09,0.07-2.18-0.22-3.27-0.29c-1.09-0.08-2.3,0.12-3.03,0.94
		c-0.91,1.03-1.25,1.57-2.53,2.22c-1.25,0.63-2.55,1.15-3.85,1.65c-2.6,1-5.27,1.92-7.59,3.48c-1.02,0.69-2.03,1.61-2.16,2.84
		c-0.1,0.95,0.35,1.86,0.43,2.81c0.2,2.19-1.55,4.11-1.78,6.31c-0.1,0.95,0.09,1.9,0.27,2.83c0.84,4.28,1.57,8.59,2.18,12.91
		c0.31,2.16,0.58,4.32,0.83,6.49c0.47,4.08,1.28,8.14,1.79,12.22c0.36,2.85,0.72,5.7,1.34,8.5c0.36,1.65,0.81,3.27,1.14,4.93
		c0.6,3.03,0.64,6.01,0.53,9.08c-0.09,2.52,0.74,5.52,1.52,7.93c0.25,0.78,0.52,1.56,0.74,2.35c0.45,1.61,0.73,3.26,1.13,4.88
		c0.62,2.5,1.81,4.99,2.12,7.54c0.32,2.66,1.12,5.23,1.77,7.82c0.84,3.34,1.45,6.73,1.83,10.15c0.22,1.96,0.36,3.94,0.71,5.88
		c0.75,4.14,0.95,8.38,1.31,12.58c0.28,3.34,0.57,6.68,0.74,10.02c0.16,3.07,0.24,6.15,0.7,9.2c0.71,4.69,2.04,9.29,3.97,13.63
		c0.97,2.17,2.1,4.36,2.19,6.73c0.04,1.13-0.15,2.25-0.19,3.38c-0.04,1.25,0.22,2.22,0.89,3.26c0.58,0.89,1.46,1.61,1.78,2.66
		c0.18,0.58,0.14,1.21,0.12,1.82c-0.07,1.56-0.09,3.13,0.03,4.69c0.13,1.57,0.56,2.97,0.92,4.48c0.77,3.17,1.29,6.39,1.68,9.63
		c0.38,3.15,0.63,6.31,0.88,9.46c0.25,3.25,0.49,6.51,1.07,9.72c0.27,1.52,0.77,2.99,1.04,4.52c0.28,1.59,0.49,3.2,0.67,4.8
		c0.05,0.45,0.1,0.9,0.15,1.35c0.22,2.01,0.45,4.03,0.67,6.04c0.06,0.5,0.11,1,0.22,1.49c0.18,0.81,0.56,1.65,0.46,2.49
		c-0.1,0.91-0.05,1.84-0.03,2.77c0.04,2.64-0.22,5.4,0.36,7.98c0.51,2.27,1.35,4.38,2.06,6.56c0.66,2.02,2.04,3.8,3.86,4.91
		c1.05,0.64,2.21,1.05,3.37,1.43c9.05,2.98,18.66,4.37,27.3,8.39c1.11,0.52,2.29,1.18,2.71,2.33c0.57,1.56-0.64,3.33-2.2,3.9
		s-3.29,0.24-4.88-0.25c-3.45-1.07-6.62-2.88-9.91-4.37c-1.57-0.72-3.19-1.36-4.86-1.82c-0.84-0.23-1.7-0.42-2.57-0.54
		c-0.45-0.06-0.9-0.12-1.35-0.13c-0.35-0.01-0.77,0.11-1.1-0.03c-1.95-0.81-3.68-3.12-3.66-5.28c0-0.37,0.06-0.75-0.03-1.12
		c-0.18-0.74-0.91-1.19-1.57-1.57c-1.16-0.66-2.32-1.32-3.48-1.98c-0.24,0.27-0.09,0.69,0.09,1c0.24,0.43,0.23,0.79,0.29,1.25
		c0.07,0.61,0.25,1.19,0.21,1.82c-0.11,1.68-1.34,3.04-1.47,4.74c-0.09,1.11,0.34,2.24,0.6,3.31c0.87,3.56,1.25,7.24,1.12,10.9
		c-0.06,1.7-1.12,5.31,1.12,6.07c0.4,0.14,0.83,0.15,1.24,0.23c1.2,0.23,2.28,1.03,2.84,2.12c0.35,0.67,0.49,1.42,0.64,2.17
		c0.34,1.71,0.63,3.39,0.8,5.12c0.44,4.45,0.88,8.89,1.32,13.34C380.48,704.65,380.62,705.96,381.21,707.07z"/>
	
		<linearGradient id="SVGID_00000169552785841561954350000002426649673351520389_" gradientUnits="userSpaceOnUse" x1="334.3499" y1="377.0828" x2="340.8444" y2="377.0828" gradientTransform="matrix(1 0 0 -1 0 799.8898)">
		<stop  offset="0" style="stop-color:#1D1D1B"/>
		<stop  offset="0.8736" style="stop-color:#1D1D1B;stop-opacity:0"/>
	</linearGradient>
	<path style="fill:url(#SVGID_00000169552785841561954350000002426649673351520389_);" d="M340.71,416.36
		c-0.23-1.5-0.79-2.77-1.42-4.13c-0.17-0.38-0.56-0.42-0.86-0.26c-0.35-0.12-0.7,0.04-0.85,0.33c-1.99,0.59-0.66,4.12-0.39,5.5
		c0.3,1.56,0.44,3.12,0.3,4.66c-0.32,1.05-0.58,2.1-0.74,3.2c-0.01,0.02-0.01,0.05-0.01,0.07c0,0.01-0.01,0.03-0.01,0.04
		c-0.22,0.64-0.49,1.26-0.73,1.88c-0.46,1.19-0.96,2.35-1.42,3.53c-0.11,0.29-0.22,0.58-0.25,0.88c-0.03,0.37,0.07,0.75,0.24,1.08
		c0.06,0.12,0.14,0.24,0.24,0.34c0.26,0.25,0.67,0.31,1.01,0.2c0.54-0.17,0.87-0.68,1.2-1.11c0.19-0.25,0.35-0.52,0.49-0.8
		c0.1-0.19,0.2-0.67,0.36-0.8c0.09-0.08,0.18-0.17,0.23-0.31c0.83-2,1.43-4.11,1.97-6.21c0.43-1.67,0.82-3.33,0.69-5.04
		C340.88,418.41,340.87,417.39,340.71,416.36z"/>
	
		<linearGradient id="SVGID_00000105414505104713333820000007722081937124090042_" gradientUnits="userSpaceOnUse" x1="420.6644" y1="390.912" x2="459.1639" y2="390.912" gradientTransform="matrix(1 0 0 -1 0 799.8898)">
		<stop  offset="0" style="stop-color:#1D1D1B"/>
		<stop  offset="0.8736" style="stop-color:#1D1D1B;stop-opacity:0"/>
	</linearGradient>
	<path style="fill:url(#SVGID_00000105414505104713333820000007722081937124090042_);" d="M459.14,419.07
		c0.01-0.02,0.02-0.04,0.02-0.06c0.01-0.1,0-0.19-0.02-0.28c-0.01-0.02-0.02-0.06-0.04-0.1c0-0.01-0.02-0.02-0.03-0.05
		c-0.15-0.53-0.82-0.72-1.26-0.47c-0.54,0.3-2.41-0.15-3.26-0.26c-1.76-0.23-3.47-0.5-5.19-0.91c-3.16-0.75-6.33-1.34-9.42-2.37
		c-5.14-1.71-9.77-4.32-13.08-8.43c-0.03-0.14-0.08-0.28-0.16-0.42c-0.74-1.25-1.45-2.52-2.09-3.82c-0.4-0.8-1.71-2.76-1-3.63
		c0.2-0.24,0.55-0.41,0.57-0.73c0-0.05-0.01-0.1-0.04-0.13c-0.04-0.05-0.11-0.06-0.17-0.07c-0.85-0.13-1.71-0.16-2.56-0.1
		c-0.19,0.01-0.4,0.04-0.54,0.17c-0.13,0.12-0.17,0.3-0.19,0.48c-0.11,0.98,0.39,1.83,0.66,2.73c0.33,1.11,0.72,2.21,1.17,3.28
		c0.01,0.08,0.01,0.16,0.05,0.24c0.04,0.1,0.09,0.19,0.13,0.3c0.02,0.03,0.03,0.06,0.05,0.09c0.43,0.98,0.93,1.9,1.49,2.77
		c0.04,0.07,0.08,0.14,0.13,0.2c3.55,5.32,9.43,8.38,15.61,10.29c3.94,1.22,7.84,1.71,11.9,2.24c0.9,0.12,3.38,0.75,5.2,0.62
		c0.12,0.04,0.24,0.08,0.37,0.09c0.26,0.02,0.51-0.02,0.76-0.07c0.03,0,0.05,0,0.08,0c0.35-0.03,0.59-0.26,0.61-0.61
		c0-0.04,0.01-0.08,0.01-0.12c0-0.01,0-0.03,0.01-0.04C459.06,419.65,459.14,419.39,459.14,419.07z"/>
	
		<linearGradient id="SVGID_00000158014259790010230390000013675061932469099398_" gradientUnits="userSpaceOnUse" x1="404.4109" y1="409.9435" x2="411.4639" y2="409.9435" gradientTransform="matrix(1 0 0 -1 0 799.8898)">
		<stop  offset="0" style="stop-color:#1D1D1B"/>
		<stop  offset="0.8736" style="stop-color:#1D1D1B;stop-opacity:0"/>
	</linearGradient>
	<path style="fill:url(#SVGID_00000158014259790010230390000013675061932469099398_);" d="M411.3,382.16
		c0.18-0.66,0.25-1.32,0.01-1.95c-0.35-0.91-1.2-1.34-2.11-1.33c-0.29-0.26-0.68-0.4-1.06-0.24c-1.3,0.54-2.22,1.69-2.04,3.16
		c0,0.01,0.01,0.01,0.01,0.02c-0.73,1.89-1.13,3.92-1.5,5.91c-0.3,1.57-0.24,2.88,0.04,4.45c0.3,1.68,0.6,3.38,1.1,5.02
		c0.06,0.19,0.17,0.33,0.3,0.46c0.02,0.25,0.06,0.49,0.1,0.73c0.01,0.11,0.03,0.23,0.05,0.34c0.06,0.34,0.14,0.67,0.21,0.98
		c0.06,0.22,0.17,0.39,0.29,0.53c0.3,0.63,0.78,1.1,1.66,1.08c0.48-0.01,0.88-0.17,1.2-0.42c0.81-0.01,1.71-0.67,1.52-1.72
		c-0.53-2.89-1.29-5.93-1.2-8.89C409.95,387.52,411.14,384.92,411.3,382.16z"/>
	
		<linearGradient id="SVGID_00000093135676769443237570000012693521664090761345_" gradientUnits="userSpaceOnUse" x1="471.6743" y1="403.1287" x2="478.8219" y2="403.1287" gradientTransform="matrix(1 0 0 -1 0 799.8898)">
		<stop  offset="0" style="stop-color:#1D1D1B"/>
		<stop  offset="0.8736" style="stop-color:#1D1D1B;stop-opacity:0"/>
	</linearGradient>
	<path style="fill:url(#SVGID_00000093135676769443237570000012693521664090761345_);" d="M478.59,396.19
		c0.11-1.2,0.25-2.42,0.23-3.62c-0.04-2.08-0.74-4.32-2.69-5.37c-0.33-0.18-0.74-0.17-1.09-0.04c-0.5-0.24-1.22-0.05-1.46,0.6
		c-0.41,1.09-0.11,2.47,0.07,3.59c0.19,1.2,0.51,2.37,0.91,3.52c0.03,0.09,0.08,0.15,0.13,0.23c-0.57,1.78-1.33,3.49-2.21,5.14
		c-0.26,0.49-0.45,1.01-0.56,1.54c-0.48,1.04-0.22,2.52,0.46,3.44c0.14,0.51,0.49,0.95,1.09,1.15c1,0.33,1.91-0.27,2.4-1.12
		c0.23-0.39,0.41-0.82,0.59-1.26c1.07-1.85,1.83-4.34,2.1-5.23c0.11-0.35,0.05-0.68-0.11-0.95
		C478.5,397.26,478.54,396.72,478.59,396.19z"/>
	
		<linearGradient id="SVGID_00000134222401975763719950000008876921262336700301_" gradientUnits="userSpaceOnUse" x1="348.093" y1="403.7576" x2="355.8909" y2="403.7576" gradientTransform="matrix(1 0 0 -1 0 799.8898)">
		<stop  offset="0" style="stop-color:#1D1D1B"/>
		<stop  offset="0.8736" style="stop-color:#1D1D1B;stop-opacity:0"/>
	</linearGradient>
	<path style="fill:url(#SVGID_00000134222401975763719950000008876921262336700301_);" d="M355.82,400.53
		c0.16-1.95,0.06-3.91-0.41-5.81c-0.44-1.81-1.13-3.53-1.85-5.24c-0.66-1.55-1.08-3.31-2.19-4.6c-0.57-0.66-1.83-0.29-2.04,0.51
		c-0.89,0.4-1.38,1.56-1.2,2.59s0.72,2,1.08,2.97c0.37,1.01,0.71,2.04,1,3.08c1.18,4.19,1.27,8.55,2.26,12.77
		c0.15,0.62,0.79,0.91,1.37,0.86c0.63,0.2,1.39-0.06,1.58-0.82c0.4-1.62,0.53-3.35,0.23-4.99
		C355.73,401.4,355.78,400.96,355.82,400.53z"/>
	
		<linearGradient id="SVGID_00000070820068246902087380000016942291818809482909_" gradientUnits="userSpaceOnUse" x1="370.8416" y1="412.2162" x2="378.1547" y2="412.2162" gradientTransform="matrix(1 0 0 -1 0 799.8898)">
		<stop  offset="0" style="stop-color:#1D1D1B"/>
		<stop  offset="0.8736" style="stop-color:#1D1D1B;stop-opacity:0"/>
	</linearGradient>
	<path style="fill:url(#SVGID_00000070820068246902087380000016942291818809482909_);" d="M378.06,386.88
		c-0.07-0.34-0.21-0.68-0.38-0.99c0.01-0.09,0.01-0.18-0.02-0.27c-0.25-0.78-0.75-1.51-1.47-1.93c-0.74-0.43-1.65-0.51-2.44-0.16
		c-0.26,0.12-0.5,0.28-0.72,0.47c-0.52,0.3-0.91,0.78-1.14,1.35c-0.04,0.02-0.09,0.02-0.13,0.05c-0.6,0.44-0.81,1.19-0.89,1.9
		c-0.08,0.69,0.01,1.41,0.26,2.06c0.47,1.18,1.49,2.3,2.76,2.62c0.49,0.12,1.01,0.05,1.42-0.22c1.1,0.27,1.9-0.66,2.3-1.58
		C378.06,389.14,378.3,388.01,378.06,386.88z"/>
	
		<linearGradient id="SVGID_00000076578917623418011890000003058894214237383863_" gradientUnits="userSpaceOnUse" x1="371.8007" y1="412.2756" x2="376.6661" y2="412.2756" gradientTransform="matrix(1 0 0 -1 0 799.8898)">
		<stop  offset="0" style="stop-color:#1D1D1B"/>
		<stop  offset="0.8736" style="stop-color:#1D1D1B;stop-opacity:0"/>
	</linearGradient>
	<path style="fill:url(#SVGID_00000076578917623418011890000003058894214237383863_);" d="M376.39,386.18
		c-0.02-0.04-0.05-0.08-0.07-0.12c-0.04-0.25-0.16-0.48-0.35-0.67c-0.31-0.31-0.75-0.49-1.16-0.64c-0.59-0.22-1.19-0.12-1.66,0.21
		c-0.2-0.08-0.42-0.02-0.59,0.12c-0.61,0.51-0.83,1.37-0.74,2.13c0.05,0.44,0.17,0.86,0.34,1.27c0.13,0.32,0.28,0.62,0.5,0.88
		c0.03,0.13,0.08,0.26,0.15,0.37c0.5,0.81,1.59,1.13,2.42,0.62C376.57,389.51,377.01,387.58,376.39,386.18z"/>
	<path class="st9" d="M377.92,386.13C377.92,386.12,377.92,386.12,377.92,386.13c-0.04-0.41-0.11-0.81-0.31-1.16
		c-0.21-0.37-0.56-0.61-0.91-0.84c-0.62-0.41-1.38-0.9-2.14-0.97c-0.61-0.05-1.17,0.22-1.48,0.72c-0.23,0.04-0.46,0.1-0.67,0.21
		c-0.35,0.19-0.62,0.55-0.8,0.94c-0.19,0.32-0.32,0.69-0.42,1.05c-0.22,0.77-0.26,1.66-0.02,2.43c0.25,0.78,0.76,1.41,1.29,2.02
		c0.48,0.55,1.02,1.06,1.71,1.32c0.22,0.08,0.46,0.12,0.7,0.13c0.12,0.05,0.25,0.06,0.4,0.04c0.29,0.2,0.7,0.23,0.96-0.09
		c0.08-0.1,0.15-0.21,0.23-0.31c0.06,0,0.11,0,0.17-0.01c1.11-0.27,1.5-1.45,1.65-2.45C378.45,388.1,378.39,387.06,377.92,386.13z"
		/>
	
		<linearGradient id="SVGID_00000179634614978203279700000002646857903711941803_" gradientUnits="userSpaceOnUse" x1="345.4285" y1="375.8536" x2="328.9666" y2="379.5368" gradientTransform="matrix(1 0 0 -1 0 799.8898)">
		<stop  offset="7.337136e-03" style="stop-color:#1D1D1B"/>
		<stop  offset="0.1955" style="stop-color:#232321;stop-opacity:0.8104"/>
		<stop  offset="0.4475" style="stop-color:#343432;stop-opacity:0.5563"/>
		<stop  offset="0.7343" style="stop-color:#4F4F4E;stop-opacity:0.2672"/>
		<stop  offset="0.9994" style="stop-color:#6F6F6E;stop-opacity:0"/>
	</linearGradient>
	<path style="fill:url(#SVGID_00000179634614978203279700000002646857903711941803_);stroke:#000000;stroke-miterlimit:10;" d="
		M331.96,416.5c-0.11,0.46-0.04,0.94,0.03,1.4c0.59,3.99,1.27,7.97,2.02,11.93c0.06,0.31,0.18,0.68,0.46,0.72
		c0.31,0.04,0.51-0.36,0.6-0.7c1.51-5.1,3.03-10.53,1.93-15.76c-0.08-0.37-0.19-0.78-0.48-0.98
		C335.62,412.48,332.19,415.5,331.96,416.5z"/>
	
		<linearGradient id="SVGID_00000181063528945290204580000002263186466832082102_" gradientUnits="userSpaceOnUse" x1="439.4722" y1="376.2095" x2="450.4923" y2="406.4577" gradientTransform="matrix(1 0 0 -1 0 799.8898)">
		<stop  offset="0.1481" style="stop-color:#1D1D1B"/>
		<stop  offset="0.3528" style="stop-color:#20201E;stop-opacity:0.7597"/>
		<stop  offset="0.5337" style="stop-color:#2B2B29;stop-opacity:0.5474"/>
		<stop  offset="0.7055" style="stop-color:#3D3D3B;stop-opacity:0.3456"/>
		<stop  offset="0.8709" style="stop-color:#565655;stop-opacity:0.1516"/>
		<stop  offset="1" style="stop-color:#6F6F6E;stop-opacity:0"/>
	</linearGradient>
	<path style="fill:url(#SVGID_00000181063528945290204580000002263186466832082102_);" d="M425.32,403.61
		c0.77,1.52,1.61,3.01,2.69,4.33c2.46,3.01,5.99,4.96,9.61,6.38c2.62,1.02,5.32,1.8,8.08,2.33c3.72,0.71,7.5,0.96,11.28,1.14
		c1.25,0.06,2.25-0.22,3.45-0.38c1.4-0.19,2.8-0.4,4.18-0.74c0.92-0.22,1.89-0.53,2.49-1.26c0.51-0.62,0.67-1.49,0.45-2.25
		c-0.27-0.91-0.29-1.81-0.37-2.78c-0.18-2.2-0.46-4.4-0.73-6.59c-0.09-0.72-0.2-1.49-0.65-2.06c-0.54-0.69-1.45-0.94-2.31-1.14
		c-3.02-0.72-6.07-1.3-9.15-1.74c-4.94-0.7-9.92-1.01-14.9-1.14c-2.43-0.06-4.86-0.08-7.3-0.08c-1.25,0-2.5,0.01-3.74,0.02
		c-1.14,0.01-2.55-0.21-3.66,0.03C422.65,398.14,424.73,402.44,425.32,403.61z"/>
	
		<linearGradient id="SVGID_00000165220824122296237700000018127739012523144625_" gradientUnits="userSpaceOnUse" x1="379.7249" y1="406.4549" x2="375.1976" y2="411.6855" gradientTransform="matrix(1 0 0 -1 0 799.8898)">
		<stop  offset="7.337136e-03" style="stop-color:#1D1D1B"/>
		<stop  offset="0.1955" style="stop-color:#232321;stop-opacity:0.8104"/>
		<stop  offset="0.4475" style="stop-color:#343432;stop-opacity:0.5563"/>
		<stop  offset="0.7343" style="stop-color:#4F4F4E;stop-opacity:0.2672"/>
		<stop  offset="0.9994" style="stop-color:#6F6F6E;stop-opacity:0"/>
	</linearGradient>
	<path style="fill:url(#SVGID_00000165220824122296237700000018127739012523144625_);" d="M373.96,389.64
		c0.36-0.3,0.56-0.74,0.76-1.17c0.18-0.39,0.37-0.79,0.55-1.18c0.1-0.21,0.2-0.44,0.15-0.67c-0.03-0.14-0.12-0.27-0.19-0.39
		c-0.37-0.68-0.32-1.57,0.14-2.2c0.05-0.07,0.11-0.14,0.19-0.18c0.1-0.05,0.21-0.04,0.32-0.03c1.04,0.15,1.95,0.94,2.25,1.95
		c0.16,0.55,0.14,1.13,0.18,1.71c0.03,0.53,0.11,1.06,0.04,1.58c-0.19,1.42-1.49,2.52-2.89,2.78c-1.12,0.21-2.53-0.04-3.3-0.96
		c-0.29-0.35-0.33-0.83,0.21-0.96C372.94,389.78,373.4,390.12,373.96,389.64z"/>
	<g>
		<path class="st13" d="M365.41,582.19c0.06-0.12,0.05-0.11,0.03-0.07C365.43,582.14,365.42,582.16,365.41,582.19L365.41,582.19z"/>
		<path class="st13" d="M383.95,655.34c4.07,0.94,8.15,1.81,12.24,2.65c0.12,0.02,0.17-0.15,0.05-0.18
			c-7.3-2.03-14.66-4.33-21.73-7.07c-1.07-0.41-1.41-0.87-1.8-1.92c-0.31-0.82-0.61-1.64-0.91-2.46c-0.33-0.9-0.72-1.8-1.01-2.71
			c-0.37-1.18-0.01-1.66,0.45-2.67c0.48-1.04,0.45-1.98,0.17-2.88c0.76,0.93,1.55,1.84,2.4,2.68c2.4,2.39,5.34,4.39,8.68,5.14
			c0.03,0.01,0.04-0.03,0.01-0.04c-3.35-1.07-6.09-3.33-8.2-6.09c-1.1-1.44-1.97-3.01-2.86-4.57c-0.47-0.82-0.92-1.66-1.37-2.5
			c-0.23-0.43-0.45-0.89-0.77-1.24c0.05-1.82,0.1-3.65,0.09-5.47c-0.01-2.63,0.09-5.28-0.48-7.86c-0.61-2.78-1.23-5.5-1.52-8.34
			c-0.58-5.64-0.98-11.28-1.67-16.91c-0.27-2.22-0.52-4.7-0.99-7.11c0.01-0.06,0.03-0.12,0.03-0.18c0.01-0.27,0.01-0.53,0.03-0.8
			c0.01-0.14,0.03-0.28,0.04-0.44c0.01-0.07,0.02-0.14,0.03-0.21c0.09-0.54,0.23-1.08,0.41-1.6c0.04-0.13,0.09-0.25,0.14-0.39
			c0.01-0.02,0.02-0.05,0.03-0.07c0.01-0.03,0.03-0.06,0.04-0.09c0.05-0.1,0.1-0.2,0.16-0.29c0.03-0.05,0.06-0.11,0.1-0.16
			c0.01-0.02,0.05-0.07,0.07-0.1c0.04-0.05,0.08-0.1,0.13-0.14c1.04,0.5,2.21,0.82,3.21,0.43c0.52-0.21,0.93-0.6,1.15-1.12
			c0.24-0.57,0.02-1.19,0.22-1.73c0.18-0.48,0.8-0.74,1.22-0.95c2.13-1.04,4.3-2.04,6.46-3.01c1.29-0.58,2.6-1.12,3.92-1.65
			c0.51-0.2,1.04-0.38,1.54-0.61c0.6-0.27,0.88-0.65,1.47-0.96c0.12-0.06,0.03-0.24-0.09-0.21c-0.58,0.13-1.09,0.04-1.65,0.2
			c-0.52,0.15-1.04,0.38-1.55,0.56c-1.03,0.38-2.06,0.75-3.1,1.13c-1.97,0.71-3.97,1.39-5.92,2.15c-1.22,0.48-3.02,0.96-3.84,2.11
			c-1.19-1.13-2.41-2.25-3.55-3.42c-0.33-0.34-0.75-0.7-0.62-1.17c0.13-0.51,0.4-0.89,0.42-1.45c0.02-0.5-0.1-0.96-0.32-1.41
			c-0.67-1.38-1.86-2.55-2.72-3.82c-0.43-0.63-0.85-1.27-1.22-1.93c-0.13-0.24-0.25-0.48-0.37-0.72c0.08-1.12,0.14-2.23,0.19-3.36
			c0.05-1.22,0.21-2.53-0.02-3.75c1.21,1.31,2.45,2.54,3.84,3.67c1.42,1.16,3.05,1.83,4.79,2.36c0.12,0.04,0.2-0.15,0.09-0.21
			c-1.56-0.84-3.02-1.88-4.48-2.88c-1.56-1.07-2.97-2.53-3.95-4.16c-1.06-1.78-2.01-3.61-3.12-5.36c-0.68-1.07-1.37-2.11-2.09-3.14
			c-0.84-1.59-1.58-3.23-1.86-4.99c-0.44-2.77,0.2-5.61,0.02-8.4c-0.11-1.81-0.48-3.6-0.7-5.41c-0.03-0.97-0.08-1.95-0.16-2.92
			c0.05-1.46,0.52-2.79,0.68-4.22c0.15-1.33-0.1-2.62-0.44-3.9c-0.78-2.94-1.55-5.93-2.48-8.85c-0.79-5.79-1.94-11.53-3.27-17.22
			c-1.36-5.81-3.01-11.59-4.97-17.23c-0.47-1.36-1.1-2.78-1.17-4.24c-0.05-0.97,0.14-1.94,0.26-2.91c0.19-0.31,0.31-0.62,0.71-0.76
			c0.57-0.2,1.22-0.32,1.81-0.42c1.4-0.23,2.8-0.38,4.22-0.48c2.69-0.19,5.35-0.17,7.98-0.84c0.11-0.03,0.06-0.18-0.04-0.16
			c-3.34,0.47-6.68,0.16-10.01-0.11c-0.97-0.08-2.03-0.2-3.06-0.18c-0.2-0.09-0.39-0.18-0.58-0.31c-0.01-0.01-0.09-0.07-0.12-0.09
			s-0.1-0.09-0.11-0.1c-0.08-0.07-0.17-0.14-0.26-0.2c-0.03-0.02-0.03-0.02-0.06-0.04c-0.21-0.18-0.4-0.38-0.58-0.59
			c-0.04-0.05-0.08-0.1-0.11-0.15c-0.02-0.02-0.04-0.04-0.06-0.07c-0.31-1.7-0.76-3.39-1.19-5.05c-0.64-2.48-1.22-4.98-1.86-7.47
			c-0.32-1.25-0.66-2.5-1.03-3.74c-0.18-0.61-0.27-1.59-0.68-2.06c-0.55,1.3-0.02,3.22,0.23,4.55c0.22,1.15,0.45,2.31,0.55,3.47
			c0.25,2.66-0.11,5.4,0.59,7.98c0.36,1.33,0.99,2.57,1.35,3.9c0.54,1.98,0.48,4.06,0.41,6.11c-0.05,1.45,0.52,2.95,0.92,4.35
			c0.48,1.67,1.03,3.33,1.53,4.99c0.79,2.78,1.44,5.58,2.13,8.38c1.39,5.6,2.56,11.25,3.51,16.94c1.08,6.48,2.72,13.06,1.36,19.62
			c-0.14,0.67,0.33,1.08,0.83,1.1c-0.01,0.23-0.02,0.47-0.01,0.7c0.1,2.77,0.87,5.47,0.97,8.24c0.1,2.59-0.34,5.15,0.04,7.73
			c0.19,1.3,0.59,2.56,1.09,3.77c0.48,1.17,0.75,2.37,1.19,3.56c0.93,2.49,2.4,4.75,3.07,7.34c0.32,1.21,0.45,2.47,0.39,3.71
			c-0.04,1-0.21,2-0.15,2.99c0.1,1.71,0.84,3.28,1.69,4.73c0.44,0.74,1.26,1.24,1.62,2.01c0.39,0.83,0.04,1.79-0.02,2.67
			c-0.18,2.4,0.06,4.82,0.56,7.17c0.45,2.1,1.32,4.08,1.7,6.2c0.49,2.7,0.72,5.45,1.04,8.18c0.64,5.5,0.99,11.03,1.62,16.52
			c0.29,2.52,0.74,4.99,1.39,7.45c0.36,1.37,0.81,2.79,0.98,4.19c0.17,1.42,0.1,2.87,0.09,4.3c-0.04,5.03,0.42,9.9,0.93,14.91
			c0.11,1.06,0.22,2.12,0.46,3.15c0.44,1.85,1.31,3.55,2.02,5.31c0.61,1.49,1.59,3.61,1.34,5.24c-0.34,2.22-1.78,3.73-1.33,6.1
			c0.24,1.27,0.77,2.46,1.16,3.7c0.71,2.25,0.99,4.86,1.03,7.22c0.02,1.15-0.16,2.28-0.35,3.4c-0.21,1.18-0.58,2.5-0.12,3.66
			c0.42,1.08,1.91,1.66,2.91,2.11c0.41,0.18,0.83,0.36,1.15,0.68c0.18,0.18,0.31,0.4,0.44,0.62c1.27,2.14,1.79,4.3,2.05,6.76
			c0.53,5.08,1.07,10.15,1.6,15.23c0.07,0.69,0.15,1.39,0.49,2c0.66,1.19,2.11,1.64,3.42,2c1.53,0.41,3.07,0.83,4.6,1.24
			c-1.24-0.76-2.47-1.53-3.71-2.29c-0.33-0.21-0.67-0.42-0.93-0.72c-0.27-0.32-0.42-0.71-0.57-1.1c-0.47-1.21-0.94-2.42-1.41-3.63
			c3.41,1.94,7.4,2.84,11.31,2.56c-1.88-0.53-3.69-1.29-5.38-2.28c-1.14-0.66-2.26-1.47-2.85-2.65c-0.44-0.89-0.53-1.93-0.98-2.82
			c-0.75-1.47-2.35-2.32-3.29-3.67c-2.02-2.92-0.51-7.34-2.68-10.15c-0.72-0.94-1.77-1.56-2.61-2.39c-1.77-1.74-1.04-3.97-1.02-6.19
			c0.02-2.48-0.29-5.04-1.4-7.3c-0.39-1.62-1.06-3.17-1.26-4.84c-0.2-1.68,0.54-3.1,1.17-4.57c0.01,0,0.03-0.01,0.04-0.01
			c0.26-0.04,0.48-0.15,0.7-0.3c0.43-0.28,0.8-0.62,1.08-1.05c0.29-0.45,0.45-0.93,0.4-1.47c-0.06-0.58-0.26-1.08-0.5-1.6
			c-0.06-0.12-0.11-0.25-0.17-0.37c0.84,0.22,1.68,0.42,2.46,0.64C379.71,654.36,381.83,654.86,383.95,655.34z"/>
	</g>
	<path class="st13" d="M334.03,422.33c-0.37-1.18-0.89-2.33-1-3.57c-0.05-0.56-0.04-1.12-0.09-1.68c-0.03-0.27-0.04-0.54-0.13-0.78
		c0.03-0.08,0.06-0.17,0.09-0.25c0.01-0.04,0.03-0.09,0.05-0.13c0-0.01,0.01-0.02,0.01-0.04c0-0.01,0,0,0.01-0.01
		c0.05-0.1,0.09-0.2,0.13-0.3c0.02-0.04,0.03-0.09,0.05-0.13c-0.06,0.1,0.01-0.03,0.02-0.05c0.04-0.08,0.08-0.16,0.13-0.24
		c0.1-0.18,0.05-0.4-0.1-0.52s-0.4-0.12-0.53,0.03c-0.14,0.16-0.27,0.33-0.38,0.51c-0.12,0.18-0.18,0.41-0.23,0.62
		c-0.02,0.1-0.01,0.19-0.02,0.29c-0.23,0.29-0.24,0.69-0.28,1.07c-0.07,0.53-0.1,1.07-0.1,1.61c-0.01,1.23,0.34,2.36,0.65,3.53
		c0.32,1.21,0.55,2.44,0.74,3.68c0.19,1.23,0.23,2.47,0.51,3.69c0.16,0.7,1.35,0.75,1.47,0
		C335.39,427.26,334.75,424.61,334.03,422.33z"/>
	<path class="st13" d="M352.9,401.15c-0.18-1.73-0.37-3.45-0.66-5.17c-0.29-1.77-0.69-3.54-1.24-5.25c-0.45-1.4-1.66-3.25-0.64-4.62
		c0.7-0.93-0.88-2.16-1.62-1.25c-0.54,0.65-0.71,1.36-0.68,2.08c-0.05-0.01-0.1-0.03-0.15-0.03c-0.1,0-0.21,0.02-0.31,0.04
		c-0.16,0.03-0.27,0.13-0.4,0.23c-0.07,0.06-0.14,0.15-0.19,0.22c-0.08,0.11-0.14,0.23-0.18,0.36c-0.04,0-0.08-0.02-0.12-0.01
		c-0.79,0.07-1.48,0.43-2.21,0.73c-0.75,0.31-1.5,0.62-2.25,0.93c-0.98,0.4-2,0.76-2.96,1.21c-0.88,0.42-1.69,0.94-2.6,1.3
		c-1.01,0.4-2.07,0.68-3.02,1.21s-1.8,1.36-2.02,2.43c-0.25,1.19,0.33,2.44,0.14,3.64c-0.1,0.65-0.11,1.31-0.22,1.96
		c-0.14,0.77-0.33,1.52-0.48,2.29c-0.05,0.24-0.09,0.5,0.01,0.73c0.68-0.58,1.14-1.38,1.44-2.22c0.67-1.91,0.74-4,1.26-5.96
		c0.16-0.59,0.42-0.72,0.92-0.95c0.58-0.26,1.12-0.61,1.7-0.89c1.15-0.55,2.34-1.03,3.52-1.51c1.29-0.53,2.57-1.06,3.86-1.6
		c1.18-0.49,2.63-0.86,3.61-1.67c0.31-0.26,0.34-0.68,0.19-1.03c0.01-0.01,0.02-0.02,0.03-0.03c0.04-0.03,0.08-0.05,0.12-0.07
		c0.06-0.02,0.11-0.04,0.17-0.06c0.1-0.03,0.17-0.08,0.26-0.12c0.03-0.01,0.05-0.04,0.08-0.06c0.11,0.39,0.25,0.77,0.4,1.15
		c0.81,1.94,1.55,3.81,2.02,5.86c0.48,2.09,0.8,4.21,1.08,6.33c0.07,0.54,0.31,1.15-0.2,1.54c-0.24,0.18-0.53,0.26-0.82,0.34
		c-6.34,1.67-12.83,3.12-18.6,6.24c-0.28,0.15-0.57,0.32-0.75,0.58c-0.16,0.25-0.21,0.56-0.22,0.85c-0.04,0.87,0.17,1.75,0.6,2.51
		c0.16-0.85,0.34-1.75,0.91-2.41c0.38-0.45,0.91-0.74,1.45-1c1.49-0.73,3.08-1.24,4.67-1.75c1.05-0.34,2.1-0.68,3.15-1.01
		c3.23-1.04,6.46-2.08,9.69-3.12c0.07-0.02,0.14-0.04,0.2-0.02c0.1,0.04,0.13,0.16,0.14,0.27c0.12,0.8,0.35,1.59,0.68,2.33
		c0.16,0.36,0.39,0.75,0.77,0.84c0.03,0.01-0.04-2.75-0.06-2.94C353.23,403.44,353.02,402.3,352.9,401.15z"/>
	<path class="st14" d="M374.5,384.87c-0.38-0.63-1.38-0.15-1.88,0.23c-0.75,0.58-1.11,1.52-1,2.46c0.11,0.95,0.83,2.38,1.81,2.67
		c0-0.52-0.37-0.96-0.51-1.46c-0.12-0.44-0.05-0.94,0.2-1.33c0.25-0.39,0.64-0.66,0.97-0.99c0.33-0.32,0.62-0.77,0.54-1.22
		C374.6,385.09,374.56,384.97,374.5,384.87z"/>
	<path class="st13" d="M409.5,380.19c0.86-0.76-0.29-2.3-1.24-1.61c-1.38,1.01-1.82,2.65-2.22,4.23c-0.36,1.42-0.98,2.77-1.36,4.18
		c-0.69,2.55-0.02,4.84,0.56,7.34c0.53,2.29,1.01,4.59,1.66,6.86c0.26,0.9,1.67,0.52,1.41-0.39c-0.53-1.86-1.12-3.72-1.53-5.6
		c-0.42-1.88-1.01-3.96-0.96-5.9c0.04-1.82,1.15-3.41,1.77-5.07C408.12,382.75,408.26,381.28,409.5,380.19z"/>
	<path class="st13" d="M367.67,382.56c-1.19-0.68-2.83-0.25-4.08,0.07c-1.4,0.36-2.78,0.75-4.17,1.13
		c-1.41,0.38-2.81,0.75-4.22,1.13c-0.41,0.11-0.84,0.25-1.26,0.3c-0.52,0.06-1.08,0-1.52,0.27c-0.08,0.05-0.15,0.11-0.16,0.2
		c0,0.05,0.02,0.09,0.03,0.14c0.14,0.33,0.31,0.65,0.5,0.96c0.03,0.04,0.06,0.09,0.1,0.12c0.05,0.03,0.12,0.03,0.18,0.02
		c0.54-0.03,1.1-0.02,1.63-0.13c0.59-0.12,1.17-0.31,1.76-0.45c1.24-0.29,2.47-0.57,3.71-0.86c1.23-0.28,2.46-0.57,3.69-0.84
		c0.59-0.13,1.19-0.26,1.79-0.3c0.6-0.04,1.19,0.03,1.79-0.06C368.27,384.13,368.32,382.93,367.67,382.56z"/>
	<path class="st13" d="M383.5,380.06c-0.75,0-1.49,0.27-2.22,0.42c-0.75,0.16-1.5,0.32-2.25,0.46c-1.5,0.26-3.04,0.39-4.56,0.22
		c-1.36-0.15-2.77-0.63-4.1-0.1c-0.69,0.27-1.44,0.85-1.54,1.64c-0.06,0.53,0.22,1.03,0.35,1.55c0.12,0.51,0.1,1.04,0.09,1.57
		c-0.02,1.53,0.14,3.07,0.48,4.56c0.04,0.16,0.08,0.32,0.19,0.43c0.28,0.28,0.69,0.01,0.68-0.34c-0.02-0.64-0.01-1.28-0.07-1.92
		c-0.05-0.64-0.09-1.29-0.12-1.93c-0.05-1.23-0.15-2.45-0.59-3.6c0.19-0.18,0.37-0.36,0.61-0.47c0.5-0.24,1.05-0.27,1.6-0.21
		c1.36,0.16,2.64,0.55,4.03,0.59c1.34,0.04,2.67-0.11,3.98-0.32c1.26-0.2,2.75-0.38,3.89-0.96
		C384.71,381.26,384.32,380.06,383.5,380.06z"/>
	<path class="st13" d="M404.74,379.18c-2.08,1.02-4.51,0.58-6.73,0.45c-2.55-0.15-5.11-0.38-7.66-0.42c-1.2-0.02-2.4,0-3.6,0.16
		c-0.96,0.13-2.04,0.32-2.26,1.44c-0.1,0.49,0.07,0.91,0.17,1.37c0.15,0.71,0.2,1.42,0.26,2.14c0.1,1.29,0.1,2.59,0.16,3.88
		c0.01,0.32,0.49,0.32,0.5,0c0.05-1.16,0.05-2.33,0.13-3.49c0.05-0.71-0.03-2.75,0.56-3.14c0.33-0.22,1.34-0.09,1.74-0.09
		c0.59,0,1.17,0.03,1.75,0.08c1.24,0.09,2.48,0.19,3.72,0.26c2.35,0.14,4.7,0.29,7.05,0.41c1.97,0.11,4.03,0.08,5.57-1.31
		C407.08,380.04,405.82,378.65,404.74,379.18z"/>
	<path class="st13" d="M472.49,387.62c-8.12-2.23-16.37-3.94-24.7-5.19c-3.99-0.6-7.98-1.11-12-1.51
		c-3.74-0.37-7.46-0.78-11.22-0.65c-3.82,0.13-7.66,0-11.47-0.34c-0.33-0.03-0.68-0.05-0.96,0.11c-0.5,0.29-0.52,0.99-0.49,1.57
		c1.31,0.1,2.62,0.19,3.93,0.29c1.09,0.08,2.21,0.17,3.19,0.66c1.42,0.7,1.71,1.98,2.02,3.4c0.44,2.03,0.45,4.12,0.65,6.18
		c0.02,0.17,0.27,0.18,0.27,0c0.04-1.9-0.03-3.78,0.14-5.67c0.08-0.87,0.17-1.72,0.23-2.59c0.05-0.73,0.17-1.43,0.57-2.07
		c0.06-0.1,0.08-0.22,0.09-0.33c0.05,0.02,0.09,0.05,0.16,0.06c3.92,0.76,7.98,0.85,11.95,1.24c4.26,0.42,8.51,0.96,12.74,1.63
		c8.21,1.31,16.33,3.09,24.37,5.21C473.23,389.95,473.77,387.97,472.49,387.62z"/>
	<path class="st13" d="M478.28,392.72c0.02-1.04-0.16-2.01-0.39-3.02c-0.26-1.13-0.65-2.64-2.01-2.75c-1.35-0.1-1.17,1.66-0.85,2.45
		c0.27,0.65,0.68,1.22,1.01,1.83c1.17,2.16,1.33,4.71,1.22,7.16c-0.02,0.44,0.11,1.05,0.55,1.03c0.27-0.01,0.56-3.24,0.55-3.58
		C478.32,394.81,478.26,393.78,478.28,392.72z"/>
	<path class="st13" d="M366.04,433.7c-0.4-0.28-1.08-0.29-1.54-0.32c-4.16-0.31-8.34,0.03-12.49,0.51c-0.25,0.03-0.52,0.07-0.7,0.25
		c-0.92,0.98,2.98,1.05,3.36,1.07c1.29,0.04,2.59,0.08,3.88,0.13c1.25,0.05,2.48,0.03,3.73-0.06c1.22-0.08,2.56-0.18,3.7-0.65
		C366.42,434.47,366.38,433.95,366.04,433.7z"/>
	<path class="st13" d="M365.66,425.83c-0.09-0.03-0.18-0.07-0.26-0.1c-0.23-0.09-0.47-0.18-0.71-0.23c-0.4-0.08-0.81-0.04-1.21,0.01
		c-1.13,0.16-2.22,0.51-3.31,0.85c-2.26,0.72-4.52,1.44-6.8,2.11c-0.17,0.05-0.1,0.29,0.07,0.26c2.15-0.38,4.3-0.76,6.47-1.03
		c1.04-0.13,2.06-0.36,3.1-0.47c1.23,0,2.47-0.29,3.68-0.5c0.15-0.03,0.34-0.1,0.34-0.25c0-0.13-0.14-0.2-0.26-0.24
		C366.39,426.11,366.03,425.97,365.66,425.83z"/>
	<path class="st13" d="M437.93,428.46c0.26,0.02,0.52,0.04,0.78,0.07c2.66,0.3,5.35,0.51,8.02,0.22c-2.33-0.99-5.08-1.12-7.57-1.28
		c-1.3-0.09-2.6-0.16-3.9-0.29c-1.08-0.11-2.15-0.01-3.23,0.03c-2.07,0.06-4.14,0.18-6.21,0.35c0.63,0.48,1.56,0.41,2.29,0.44
		c1.01,0.04,2.01,0.12,3.02,0.21C433.38,428.38,435.69,428.28,437.93,428.46z"/>
	<path class="st13" d="M471.16,529.49c-1.78-0.44-3.57-0.86-5.35-1.33c-1.78-0.47-3.53-1.05-5.34-1.35
		c-0.12-0.02-0.21,0.14-0.09,0.21c1.57,0.95,3.32,1.52,5.08,2.05c1.79,0.54,3.62,0.99,5.47,1.27
		C471.47,530.42,471.72,529.63,471.16,529.49z"/>
	<path class="st13" d="M402.42,549.01c-1.3-0.81-2.73-0.11-3.97,0.45c-1.4,0.63-2.66,1.39-3.98,2.14c-1.33,0.75-2.6,1.55-3.75,2.56
		c-0.09,0.08,0.04,0.21,0.13,0.13c1.04-0.84,2.18-1.55,3.37-2.16c1.21-0.62,2.57-0.95,3.85-1.42c1.04-0.38,2.66-1.28,3.74-0.66
		c0.47,0.27,0.89,0.81,1.25,1.21c0.5,0.55,1.08,1.02,1.56,1.6c0.07,0.08,0.2-0.02,0.15-0.11
		C404.03,551.47,403.76,549.85,402.42,549.01z"/>
	<path class="st13" d="M479.52,575.52c-0.07-0.13-0.06-0.37-0.08-0.52c-0.03-0.2-0.1-0.39-0.13-0.6c-0.39-2.47-0.77,0.3-1.44-0.27
		c-1.11-0.94-2.26-1.84-3.43-2.7c-0.22-0.16-1.52-1.27-1.73-1.12c-0.31,0.22,0.63,1.19,0.79,1.39c0.48,0.62,1.03,1.17,1.6,1.71
		c0.55,0.52,1.11,1.03,1.69,1.52c0.6,0.51,1.22,1.05,1.93,1.4C479.24,576.59,479.8,576.07,479.52,575.52z"/>
	<path class="st13" d="M493.22,621.02c-3.85,0.1-7.73,0.8-11.38,2.04c-1.79,0.61-3.51,1.41-5.19,2.29
		c-0.89,0.46-1.76,0.95-2.61,1.47c-0.82,0.51-1.61,1.39-2.63,1.17c-0.61-0.13-1.23,0.28-1.23,0.94c0.01,1,0.09,2.12-0.19,3.08
		c-0.17,0.6-0.54,0.98-0.94,1.32c-0.01-1.63-0.77-3.37-1.22-4.85c-1.09-3.54-2.32-7.04-3.68-10.49c-1.11-2.83-2.47-5.56-3.87-8.26
		c-1.31-2.53-3.03-5.12-3.82-7.84c-1.68-5.79-2.08-11.69-2.74-17.65c-0.18-1.63-0.39-3.25-0.6-4.87c-0.22-1.7-0.44-3.39-0.66-5.09
		c-0.19-1.5-0.39-3.01-0.75-4.48c-0.37-1.5-0.9-2.96-1.53-4.38c-0.68-1.54-1.46-3.03-2.45-4.39c-0.9-1.23-2-2.39-2.54-3.84
		c-0.55-1.46-0.72-3.09-1.08-4.6c-0.6-2.57-1.46-5.06-1.28-7.72c0.16-2.35-0.61-4.5-1.46-6.65c-1.03-2.6-2.08-5.19-3.15-7.78
		c-0.62-1.48-1.32-2.95-1.72-4.5c-0.32-1.25-1.27-2.61-0.52-3.89c0.14-0.23,0.32-0.43,0.43-0.68c0.21-0.49,0.07-1.05-0.1-1.56
		c-0.76-2.29-2.04-4.4-3.73-6.11c-0.75-0.76-1.58-1.45-2.28-2.26c-1.5-1.72-2.35-3.9-2.76-6.12c-0.38-2.09-1.17-4.06-1.81-6.11
		c-0.7-2.24-1.54-4.44-2.45-6.61c-0.86-2.06-2.11-4.11-2.68-6.26c-0.25-0.96-0.21-1.95-0.62-2.87c-0.34-0.75-0.9-1.39-1.47-2
		c1.72,0.52,3.44,1.05,5.06,1.87c4.43,2.24,7.28,7.46,12.51,8.03c0.02,0,0.03-0.04,0.01-0.04c-2.67-0.45-4.65-2.38-6.5-4.23
		c-1.76-1.76-3.5-3.5-5.66-4.78c-2.24-1.33-4.66-2.45-7.05-3.48c-0.34-0.15-0.66-0.32-0.99-0.47c-0.24-0.28-0.47-0.56-0.69-0.86
		c-0.95-1.32-1.75-2.78-2.31-4.31c-0.49-1.34-0.85-2.48-1.8-3.57c-1.15-1.33-1.92-2.89-2.78-4.42c-1.85-3.26-3.74-6.51-5.52-9.81
		c-0.94-1.75-1.86-3.51-2.86-5.23c-1-1.74-2.23-3.3-3.22-5.02c-0.05-0.08-0.16-0.01-0.13,0.07c0.73,1.62,1.17,3.3,1.75,4.96
		c0.57,1.62,1.91,2.95,2.53,4.61c0.5,1.34,0.8,2.74,1.25,4.09c0.47,1.42,1.32,2.55,1.95,3.89c0.38,0.81,0.68,1.65,0.98,2.49
		c0.95,2.68,1.91,5.36,2.86,8.04c0.41,1.15,0.74,2.46,1.39,3.49c0.78,1.24,1.62,2.43,2.34,3.71c1.45,2.54,2.68,5.21,3.79,7.91
		c2.25,5.47,3.99,11.13,6.09,16.66c0.23,0.61,0.46,1.21,0.7,1.81c1.72,4.34,3.67,8.72,5.96,12.78c2.32,4.12,4.69,7.92,6.19,12.46
		c0.33,1.01,0.63,2.03,1.03,3.01c0.5,1.25,1.16,2.42,1.74,3.63c1.35,2.8,2.35,5.77,2.87,8.83c0.62,3.64,2.16,7.13,3.51,10.54
		c1.38,3.5,3.06,6.89,4.42,10.39c1.25,3.23,1.51,7.08,2.14,10.48c0.71,3.71,1.43,7.43,1.85,11.18c0.2,1.73,0.33,3.48,0.72,5.18
		c0.26,1.13,0.62,2.24,0.99,3.34c1.42,4.27,3.14,8.28,4.84,12.44c1.7,4.15,3.23,8.38,4.82,12.57c1.14,3,2.27,5.84,3.03,9
		c1.73,7.21,3.07,14.51,4.02,21.86c0.24,1.9,0.46,3.82,1.05,5.65c0.58,1.79,1.06,3.69,1.98,5.34c0.11,0.36,0.23,0.72,0.36,1.07
		c0.16,0.41,0.5,0.64,0.86,0.7c1.45,1.65,3.58,2.72,5.68,3.26c0.37,0.09,0.62-0.45,0.27-0.63c-1.19-0.61-2.04-1.16-2.93-2.16
		c-0.67-0.75-1.32-1.55-1.89-2.39c-0.21-2.04-1.1-4.08-0.43-6.11c0.2-0.61,0.43-1.18,0.22-1.84c-0.15-0.49-0.51-0.88-0.8-1.3
		c-0.66-0.94-1.21-1.95-1.82-2.92c-0.12-1.81-0.26-3.61-0.6-5.39c-0.32-1.67-0.89-3.01-1.66-4.3c-0.05-0.61-0.12-1.22-0.23-1.85
		c-0.34-1.99-0.89-3.9-1.59-5.78c0.18-0.83,0.56-1.59,1.18-2.21c1.24-1.22,1.77-2.44,2.01-4.03c0.43-0.2,0.79-0.53,1.22-0.86
		c0.79-0.62,1.6-1.22,2.43-1.78c1.66-1.12,3.42-2.06,5.26-2.86c3.95-1.72,7.99-2.75,12.29-3.06
		C493.3,621.14,493.3,621.02,493.22,621.02z"/>
	<path class="st13" d="M495.55,689.24c-0.99,0.17-1.97,0.34-2.96,0.53c-0.72,0.13-1.5,0.26-2.14-0.08
		c-0.73-0.39-1.06-1.32-0.92-2.14s0.66-1.52,1.28-2.08c0.31-0.28,0.65-0.53,0.94-0.84c0.48-0.51,0.79-1.14,1.1-1.76
		c1.19-2.4,2.38-4.81,3.11-7.39c-1.45,2.22-2.9,4.45-4.35,6.67c-0.63,0.96-1.31,1.97-2.37,2.43c-0.41,0.18-0.9,0.28-1.18,0.63
		c-0.45,0.56-0.15,1.37,0.13,2.03c0.89,2.1,1.42,4.32,1.95,6.54c0.52,2.19,1.04,4.38,1.56,6.57c0.34,1.44,0.68,2.88,0.84,4.34
		c0.11,1.06,0.15,2.2,0.73,3.09c1,1.54,2.39,0.72,3.75,0.41c2-0.45,4-0.89,6-1.34c1.04-0.23,2.09-0.47,3.07-0.89
		c-1.67-0.77-3.91-1.45-5.76-1.11c-1.8,0.33-3.56,0.08-5.29-0.61c-0.24-0.1-0.49-0.21-0.66-0.41c-0.23-0.28-0.26-0.66-0.29-1.02
		c-0.24-3.22-0.87-6.41-1.88-9.48c-0.09-0.26-0.17-0.56-0.03-0.79c0.07-0.13,0.2-0.21,0.32-0.29c1.06-0.67,2.43-1.03,3.67-1.27
		c1.41-0.27,2.86-0.31,4.27-0.55c0.66-0.11,1.32-0.27,1.97-0.43c0.99-0.24,1.97-0.48,2.96-0.72c1.14-0.28,2.29-0.55,3.41-0.91
		c0.54-0.17,1.11-0.38,1.49-0.8c-1.2,0.01-2.46-0.08-3.64,0.06c-1.22,0.14-2.46,0.32-3.69,0.49s-2.47,0.34-3.7,0.53
		c-0.62,0.09-1.23,0.19-1.84,0.29C496.81,689.03,496.15,689.24,495.55,689.24z"/>
	<path class="st15" d="M370.21,395.71c-0.08,0-0.08,0.13,0,0.13C370.29,395.83,370.29,395.71,370.21,395.71z"/>
	<path class="st13" d="M385.05,432.64c-0.56-0.97-1.38-1.78-2.04-2.69c-0.69-0.96-1.31-2-1.91-3.02c-1.2-2.05-2.08-4.44-2.94-6.66
		c-1.7-4.4-2.96-8.98-4.36-13.48c-0.03-0.1-0.18-0.06-0.16,0.04c0.77,4.96,1.86,9.84,3.71,14.54c0.86,2.18,1.99,4.12,3.16,6.14
		c1.06,1.83,2.48,4.19,4.21,5.45C384.93,433.12,385.17,432.84,385.05,432.64z"/>
	<g>
		<path d="M374.83,392.44c-0.95,0-1.86-0.38-2.63-1.09c-0.86-0.8-1.41-1.94-1.56-3.2s0.12-2.49,0.76-3.47
			c0.65-1.01,1.62-1.63,2.71-1.76c2.22-0.27,4.3,1.64,4.61,4.26l0,0c0.32,2.62-1.24,4.97-3.47,5.24
			C375.12,392.43,374.98,392.44,374.83,392.44z M374.53,383.64c-0.11,0-0.22,0.01-0.33,0.02c-0.86,0.1-1.63,0.61-2.16,1.42
			c-0.54,0.84-0.77,1.89-0.64,2.97c0.13,1.08,0.6,2.05,1.33,2.73c0.71,0.66,1.57,0.97,2.44,0.87c1.81-0.22,3.07-2.19,2.81-4.39l0,0
			C377.72,385.19,376.22,383.64,374.53,383.64z"/>
	</g>
	<g>
		<path d="M374.4,390.68c-1.38,0-2.61-1.23-2.81-2.88c-0.21-1.76,0.83-3.34,2.32-3.52c1.5-0.17,2.88,1.11,3.09,2.87l0,0
			c0.21,1.76-0.83,3.34-2.32,3.52C374.58,390.68,374.49,390.68,374.4,390.68z M374.19,384.64c-0.08,0-0.16,0-0.23,0.01
			c-1.28,0.15-2.18,1.54-1.99,3.1c0.19,1.55,1.38,2.7,2.67,2.54c1.28-0.15,2.18-1.54,1.99-3.1
			C376.45,385.73,375.38,384.64,374.19,384.64z"/>
	</g>
	<g>
		<g>
			<g>
				<path d="M408.29,476.99c0.03,2.06,0.48,4,0.84,6.02c0.45,2.52,0.14,5.14,0.28,7.69c0.31,5.66,0.34,11.32,0.66,16.98
					c0.3,5.37,0.99,10.7,1.38,16.06c0.37,5.05,2,9.85,3.6,14.62c1.71,5.08,3.3,10.17,3.18,15.59c-0.06,2.75-0.41,5.48-0.43,8.24
					c-0.02,2.65,0.32,5.28,0.75,7.89c0.94,5.7,2.03,11.35,2.71,17.09c0.65,5.5,1.1,11.02,1.47,16.55
					c0.37,5.33,1.07,10.83,0.76,16.18c-0.15,2.66-0.93,5.23-1.22,7.88c-0.28,2.63,0.14,5.23,0.37,7.84
					c0.23,2.62-0.17,5.11-0.26,7.72c-0.1,2.51,0.72,4.92,0.76,7.44c0.04,2.32-0.4,4.74,0.04,7.03c0.5,2.61,0.44,5.25,0.07,7.9
					c-0.34,2.42-0.74,5.49-2.37,7.39c-1.35,1.58-2.47,2.97-3.16,4.98c-0.75,2.22-0.89,4.55-0.82,6.88c0.07,2.72,0.15,5.44,0.27,8.15
					c0.12,2.74,0.33,5.48,0.65,8.2c0.13,1.15,0.63,2.79,0.11,3.9c-0.39,0.85-1.42,1.37-2.22,1.74c-4.07,1.92-9.1,3.4-13.6,3.3
					c-5.45-0.12-10.82-0.86-16.1-2.16c-1.78-0.44-3.9-0.76-4.7-2.66c-0.43-1.04-0.43-2.24-0.53-3.34c-0.13-1.47-0.26-2.94-0.39-4.41
					c-0.24-2.69-0.48-5.38-0.63-8.08c-0.13-2.38-0.17-5.06-1.05-7.31c-0.76-1.95-2.37-2.06-4.13-2.62c-2.03-0.64-0.8-3.86-0.81-5.48
					c-0.02-2.6-0.29-5.23-0.75-7.79c-0.21-1.2-0.48-2.39-0.8-3.57c-0.36-1.32-0.92-2.56-0.5-3.93c0.62-2.03,1.82-3.49,1.43-5.74
					c-0.41-2.38-1.9-4.46-2.69-6.72c-1.78-5.09-2.08-10.61-2.27-15.96c-0.09-2.59,0.02-5.18-0.33-7.76
					c-0.35-2.54-0.98-5.03-1.42-7.56c-0.97-5.56-1.63-11.2-2.24-16.81c-0.58-5.32-0.71-10.78-1.77-16.04
					c-0.5-2.51-1.68-5.01-1.73-7.59c-0.04-2.19,0.97-4.19-0.29-6.23c-0.48-0.78-1.16-1.42-1.72-2.15c-0.84-1.1-0.98-2.26-0.87-3.62
					c0.18-2.34,0.49-4.36-0.38-6.61c-0.85-2.18-1.83-4.25-2.61-6.46c-0.9-2.58-1.89-5.04-2.4-7.74c-1.02-5.43-1.09-10.97-1.37-16.47
					c-0.54-10.83-1.65-21.66-3.84-32.29c-2.24-10.89-6.58-21.42-7.83-32.5c-0.61-5.38-0.88-10.66-2.18-15.94
					c-0.68-2.78-0.92-5.49-1.1-8.34c-0.16-2.63-0.76-5.14-1.33-7.71c-1.2-5.38-1.76-10.93-2.54-16.39
					c-0.39-2.72-1.45-6.13-0.67-8.81c0.29-0.99,0.85-1.89,1.12-2.89c0.29-1.09,0.17-2.12-0.02-3.21c-0.39-2.33,0.78-3.44,2.77-4.41
					c2.1-1.02,4.32-1.84,6.48-2.74c1.27-0.53,2.54-1.06,3.81-1.6c0.86-0.36,2.1-0.65,2.69-1.44c0.54-0.73,0.18-1.22,1.21-1.51
					c0.71-0.2,1.27-0.27,1.96-0.01c0.54,0.2,0.9,0.49,1.49,0.53c0.94,0.06,1.93-0.33,2.83-0.56c1.37-0.35,2.74-0.7,4.1-1.05
					c2.76-0.7,5.43-1.09,8.27-1.23c1.28-0.07,1.29-2.07,0-2c-2.68,0.14-5.25,0.4-7.86,1.06c-1.37,0.35-2.74,0.7-4.1,1.05
					c-1.44,0.37-2.66,0.89-4.05,0.3c-1.35-0.57-3.97-0.32-4.97,0.89c-0.24,0.3-0.23,0.7-0.42,0.99c-0.42,0.65-1.29,0.9-1.97,1.18
					c-1.37,0.57-2.74,1.15-4.11,1.72c-2.06,0.86-4.18,1.66-6.2,2.62c-1.41,0.67-2.88,1.58-3.61,3.02c-1.04,2.02,0.29,4.07-0.31,6.13
					c-0.32,1.08-0.92,2.04-1.18,3.14c-0.28,1.2-0.17,2.43-0.01,3.64c0.75,5.69,1.58,11.38,2.44,17.06c0.43,2.85,1.11,5.63,1.69,8.45
					c0.57,2.81,0.46,5.66,0.82,8.49c0.35,2.74,1.24,5.35,1.74,8.06c0.54,2.96,0.7,5.97,0.96,8.96c0.5,5.6,1.69,11.02,3.15,16.44
					c1.47,5.46,3.17,10.86,4.41,16.38c1.26,5.62,2.21,11.31,2.91,17.03c0.68,5.6,1.13,11.23,1.42,16.86
					c0.28,5.48,0.37,10.98,1.26,16.4c0.81,4.97,2.67,9.94,4.79,14.48c0.56,1.19,1.01,2.4,1.04,3.74c0.02,1.28-0.29,2.55-0.34,3.83
					c-0.08,2.17,0.75,3.64,2.12,5.24c1.02,1.19,1.33,2.12,1.08,3.68c-0.2,1.24-0.34,2.4-0.19,3.66c0.31,2.49,1.3,4.84,1.77,7.3
					c1.07,5.61,1.2,11.45,1.85,17.12c0.63,5.52,1.25,11.11,2.31,16.57c0.53,2.71,1.23,5.41,1.38,8.17c0.15,2.75,0.07,5.51,0.23,8.26
					c0.31,5.3,0.82,10.7,2.97,15.62c1.16,2.67,2.6,4.76,1.28,7.66c-0.91,2-1.24,3.49-0.62,5.63c0.8,2.75,1.38,5.54,1.61,8.4
					c0.1,1.29,0.22,2.6,0.21,3.9c-0.01,1.1-0.27,2.16-0.34,3.25c-0.09,1.52,0.4,2.94,1.86,3.6c0.89,0.41,2.15,0.28,2.94,0.86
					c1.16,0.84,1.22,3.41,1.34,4.65c0.56,5.59,0.76,11.22,1.35,16.81c0.17,1.58,0.55,3.14,1.72,4.29c1.3,1.28,3.13,1.64,4.83,2.06
					c5.29,1.3,10.59,1.98,16.04,2.21c4.75,0.21,9.49-1.28,13.86-2.99c1.48-0.58,3.08-1.29,4.02-2.63c1.28-1.83,0.54-4.22,0.32-6.25
					c-0.6-5.56-0.9-11.29-0.83-16.89c0.03-2.58,0.53-5.44,2.14-7.53c1.37-1.77,2.55-2.92,3.18-5.15c0.68-2.43,1.13-4.93,1.28-7.45
					c0.07-1.21,0.14-2.46,0.06-3.67c-0.08-1.28-0.51-2.49-0.53-3.78c-0.04-2.59,0.28-5.14-0.03-7.73c-0.15-1.23-0.53-2.43-0.6-3.67
					c-0.07-1.37,0.14-2.73,0.27-4.09c0.26-2.74-0.09-5.41-0.34-8.14c-0.26-2.84,0.08-5.49,0.62-8.28
					c1.05-5.44,0.41-10.96,0.06-16.45c-0.37-5.74-0.78-11.48-1.38-17.2c-0.58-5.6-1.36-11.17-2.39-16.7
					c-0.55-2.95-1.13-5.91-1.34-8.91c-0.2-2.87,0.07-5.71,0.24-8.57c0.34-5.52-0.63-10.61-2.32-15.84
					c-1.64-5.06-3.63-10.09-4.25-15.41c-0.32-2.73-0.39-5.48-0.69-8.21c-0.31-2.79-0.6-5.58-0.76-8.38
					c-0.34-5.76-0.34-11.53-0.67-17.3c-0.15-2.5,0.12-5.04-0.21-7.52c-0.29-2.19-0.89-4.27-0.93-6.51
					C410.27,475.7,408.27,475.7,408.29,476.99L408.29,476.99z"/>
			</g>
		</g>
		<g>
			<g>
				<path d="M492.73,707.65c-0.79-1.23-0.96-2.7-1.15-4.12c-0.23-1.74-0.54-3.47-0.85-5.2c-0.71-3.98-1.5-7.96-2.39-11.9
					c-0.7-3.07-1.19-6.77-3.15-9.33c-0.87-1.13-1.95-2.02-3.07-2.88c-1.45-1.12-2.71-2.46-4.05-3.71c-1.27-1.2-2.61-2.41-3.54-3.9
					c-1.01-1.64-1.51-3.59-1.93-5.45c-0.85-3.77-0.97-7.64-1.45-11.46c-0.97-7.62-3.39-14.97-5.68-22.28
					c-1.15-3.65-2.36-7.28-3.8-10.82c-1.41-3.45-3.03-6.8-4.44-10.25c-3.01-7.37-4.32-15.23-5.72-23.04
					c-0.71-3.95-1.39-7.91-2.03-11.88c-0.59-3.67-2.35-6.91-3.71-10.34c-1.47-3.69-2.94-7.37-4.09-11.17
					c-1.1-3.62-2.02-7.3-3.29-10.87c-2.53-7.11-5.9-13.91-9.47-20.54c-3.71-6.87-6.52-14.03-9.21-21.34
					c-2.63-7.12-5.46-14.02-9.15-20.66c-1.77-3.18-2.89-6.64-4.04-10.08c-1.07-3.2-2.84-6.01-4.16-9.09
					c-1.46-3.41-2.89-6.67-4.72-9.91c-1.56-2.77-2.7-5.83-4.62-8.37c-1.89-2.5-4.38-4.31-6.61-6.48c-2.57-2.48-4.87-5.26-6.61-8.39
					c-1.86-3.34-2.94-7.11-4.05-10.75c-1.12-3.67-2.11-7.38-2.96-11.12s-1.56-7.52-2.13-11.31c-0.3-1.96-0.55-3.93-0.77-5.9
					c-0.08-0.72-0.47-2.28,0.07-2.89c0.64-0.72,2.13-0.64,3.01-0.63c3.34,0.06,6.3,0.99,9.54-0.28c3.49-1.36,7.84-0.69,11.53-0.66
					c1.92,0.01,3.83,0.03,5.75,0.04c1.78,0.01,3.78,0.28,5.49-0.34c1.5-0.54,2.52-1.59,4.23-1.1c0.91,0.26,1.24,0.82,1.92,1.41
					c0.64,0.54,1.22,0.38,2.06,0.36c15.99-0.35,32.02,1.24,47.63,4.73c3.83,0.86,7.72,1.63,11.52,2.61c0.53,0.14,1.08-0.17,1.23-0.7
					c0.03-0.11,2.28,0.71,2.38,0.77c1.12,0.63,1.4,1.62,1.39,2.83c-0.02,2.14-0.25,4.21-0.07,6.36c0.16,1.87,0.42,3.73,0.71,5.58
					c0.2,1.33,0.85,3.54-0.66,4.29c-0.29,0.14-0.52,0.54-0.5,0.86c0.97,11.92,3.13,23.69,5.64,35.37c0.61,2.85,1.25,5.69,1.89,8.54
					c0.66,2.94,1.07,5.81,1.45,8.79c0.69,5.42,1.9,10.74,3.11,16.06c1.25,5.54,2.52,11.1,3.08,16.76c0.25,2.6,0.36,5.21,0.23,7.82
					c-0.13,2.67-0.88,5.28-0.47,7.96c0.44,2.84,1.16,5.67,1.97,8.43c0.76,2.62,1.42,5.47,2.7,7.89c0.59,1.12,1.48,2.05,2.04,3.18
					c0.66,1.32,0.81,2.81,0.86,4.27c0.07,2.38-0.18,4.8,0.36,7.14c0.59,2.58,2.38,4.64,3.24,7.13c0.91,2.64,1.58,5.37,2.35,8.06
					c1.6,5.62,3.22,11.24,4.76,16.88c1.59,5.79,3.1,11.61,4.45,17.46c0.62,2.67,1.49,5.33,2,8.02c0.56,2.9,0.72,5.92,0.69,8.86
					c-0.02,2.61-0.18,5.13,0.5,7.68c0.65,2.43,1.78,4.69,2.73,7.01c1.01,2.48,1.44,4.93,1.96,7.53c0.57,2.82,1.37,5.59,2.16,8.36
					c0.8,2.76,1.62,5.53,2.19,8.35c0.26,1.32,0.48,2.65,0.87,3.93c0.43,1.39,1.1,2.68,1.61,4.04c0.47,1.25,0.86,2.55,0.65,3.89
					c-0.2,1.32-0.78,2.54-0.97,3.87c-0.38,2.66-0.03,5.36,0.2,8.02c0.26,3.02-2.29,3.81-3.51,6.13c-1.11,2.12-1.01,5.4-0.76,7.7
					c0.31,2.83,0.12,5.71,0.2,8.56c0.09,3.01,0.18,6.03,0.26,9.04c0.04,1.42,0.11,2.85,0.12,4.27c0.01,1.5-0.34,1.6-1.72,1.44
					c-2.25-0.25-4.48-0.46-6.74-0.61c-5.65-0.38-11.38-0.59-16.95,0.61c-2.08,0.45-6.01,2.66-7.7,0.64
					c-0.83-0.99-2.24,0.43-1.41,1.41c1.44,1.72,3.69,1.6,5.67,1.01c2.84-0.84,5.57-1.56,8.54-1.81c5.66-0.48,11.7-0.2,17.32,0.56
					c1.36,0.18,3.06,0.59,4.21-0.43c1.49-1.33,0.74-4.41,0.69-6.12c-0.09-3.13-0.18-6.27-0.27-9.4c-0.09-2.94,0.11-5.93-0.18-8.85
					c-0.15-1.52-0.18-2.98-0.03-4.5c0.19-1.86,0.59-2.86,1.91-4.16c1.7-1.67,2.55-3.35,2.32-5.75c-0.27-2.85-0.69-5.89,0.05-8.7
					c0.68-2.59,1.08-4.48,0.12-7.09c-0.46-1.25-1.07-2.45-1.51-3.71c-0.52-1.47-0.77-3.01-1.07-4.53c-0.57-2.82-1.39-5.59-2.19-8.35
					c-0.82-2.86-1.65-5.73-2.22-8.66c-0.53-2.7-1.04-5.18-2.11-7.73c-1-2.39-2.16-4.75-2.72-7.3c-0.64-2.91-0.16-5.98-0.28-8.93
					c-0.23-5.75-1.85-11.17-3.17-16.74c-2.82-11.92-6.27-23.68-9.62-35.45c-0.71-2.48-1.3-5.04-2.43-7.37
					c-0.63-1.3-1.54-2.46-2.02-3.82c-0.47-1.32-0.55-2.74-0.57-4.14c-0.03-2.43,0.21-4.97-0.54-7.32c-0.37-1.16-0.99-2.13-1.68-3.12
					c-0.94-1.35-1.54-2.75-2.04-4.32c-0.91-2.85-1.8-5.71-2.48-8.63c-0.33-1.4-0.66-2.83-0.87-4.26c-0.25-1.68,0.05-3.25,0.27-4.92
					c0.72-5.39,0.11-10.95-0.78-16.28c-0.94-5.64-2.34-11.18-3.54-16.76c-0.61-2.81-1.18-5.63-1.61-8.47
					c-0.42-2.75-0.51-5.53-1.12-8.24c-2.77-12.21-5.49-24.46-7.11-36.89c-0.4-3.1-0.73-6.21-0.98-9.32
					c-0.17,0.29-0.33,0.58-0.5,0.86c1.98-0.98,2.05-3.12,1.8-5.07c-0.44-3.44-1.11-6.84-0.97-10.33c0.11-2.63,0.64-5.44-2.01-7.02
					c-1.52-0.91-4.81-2.11-5.51,0.31c0.41-0.23,0.82-0.47,1.23-0.7c-4.93-1.26-9.97-2.32-14.96-3.34s-10.02-1.85-15.08-2.5
					c-10.25-1.31-20.59-1.81-30.92-1.54c0.29,0.17,0.58,0.33,0.86,0.5c-1.32-1.8-3.5-2.83-5.75-2.32c-1.4,0.32-2.44,1.35-3.9,1.47
					c-1.83,0.14-3.72,0-5.56-0.02c-3.62-0.03-7.24-0.07-10.86-0.08c-1.47,0-2.92,0.04-4.33,0.51c-1.56,0.53-2.84,1.03-4.53,0.96
					c-2.76-0.11-5.9-1.17-8.55,0.04c-2.71,1.23-1.77,4.49-1.49,6.84c0.84,6.88,2.12,13.71,3.86,20.43
					c1.63,6.28,3.27,13.16,6.66,18.75c1.51,2.5,3.37,4.8,5.41,6.89c2.11,2.17,4.62,3.94,6.6,6.23c1.87,2.16,2.81,4.68,4.15,7.15
					c1.63,3,3.49,5.91,4.75,9.09c1.13,2.86,2.5,5.51,3.82,8.29c1.42,3,2.18,6.28,3.42,9.36c1.22,3.03,2.94,5.76,4.41,8.66
					c1.58,3.12,2.95,6.34,4.22,9.6c2.45,6.25,4.57,12.63,7.22,18.8c2.74,6.38,6.35,12.3,9.3,18.58c3,6.38,5.26,12.86,7.22,19.62
					c1.95,6.74,4.84,13.04,7.38,19.56c1.24,3.18,1.48,6.76,2.05,10.11c0.62,3.64,1.27,7.27,1.95,10.9
					c1.28,6.83,2.83,13.41,5.58,19.82c2.76,6.44,5.44,12.77,7.54,19.46c2.08,6.62,4.29,13.3,5.34,20.18
					c0.95,6.23,0.43,13.61,3.84,19.19c1.55,2.53,4.04,4.49,6.16,6.53c2.18,2.1,4.81,3.43,5.81,6.49c2.19,6.68,3.29,13.86,4.47,20.77
					c0.41,2.41,0.4,5.15,1.75,7.26C491.7,709.74,493.43,708.73,492.73,707.65z"/>
			</g>
		</g>
		<g>
			<g>
				<path d="M332.87,415.9c-0.02-0.04-0.01-0.07,0.04-0.1c-0.12,0.12-0.24,0.24-0.36,0.36c0.13-0.1-0.13,0.05,0.08-0.04
					c0.18-0.08,0.34-0.15,0.5-0.25c0.43-0.28,0.84-0.59,1.27-0.87c0.76-0.5,1.55-0.97,2.35-1.41c1.66-0.92,3.37-1.72,5.12-2.45
					c1.74-0.72,3.5-1.37,5.27-2c0.85-0.3,1.76-0.76,2.66-0.9c0.86-0.13,1.79,0.43,2.62,0.6c1.02,0.21,2.09,0.2,3.02-0.33
					c0.41-0.23,0.79-0.57,1.05-0.97c0.24-0.37,0.3-0.79,0.47-1.19c-0.09,0.15-0.17,0.29-0.26,0.44c0.14-0.17,1.2-0.29,1.43-0.34
					c0.48-0.11,0.96-0.23,1.44-0.34c1.08-0.26,2.16-0.51,3.24-0.77c2.12-0.5,4.24-1,6.35-1.5c1.25-0.3,0.72-2.23-0.53-1.93
					c-3,0.71-5.99,1.42-8.99,2.13c-0.68,0.16-1.36,0.32-2.04,0.48c-0.69,0.16-1.7,0.22-2.23,0.74c-0.37,0.37-0.32,0.88-0.61,1.26
					c-0.32,0.4-0.91,0.48-1.39,0.44c-1.43-0.1-2.63-0.98-4.11-0.66c-1.32,0.28-2.64,0.89-3.9,1.35c-2.57,0.94-5.12,1.94-7.58,3.14
					c-1.38,0.67-2.73,1.41-4.03,2.24c-0.6,0.38-1.16,0.86-1.78,1.2c-0.49,0.27-0.85,0.49-1.04,1.14
					C330.59,416.6,332.52,417.13,332.87,415.9L332.87,415.9z"/>
			</g>
		</g>
		<g>
			<g>
				<path d="M379.16,383.36c-0.28,5.4,0.85,10.73,1.99,15.98c0.27,1.26,2.2,0.73,1.93-0.53c-1.1-5.08-2.18-10.21-1.91-15.45
					C381.23,382.08,379.22,382.08,379.16,383.36L379.16,383.36z"/>
			</g>
		</g>
		<g>
			<g>
				<path d="M382.04,404.34c1.49,4.22,2.82,8.49,3.97,12.81c0.57,2.15,1.12,4.32,1.58,6.5c0.34,1.6,0.63,3.92-0.89,5.07
					c-0.43,0.32-0.65,0.86-0.36,1.37c0.25,0.42,0.93,0.69,1.37,0.36c1.8-1.35,2.33-3.52,2.08-5.68c-0.27-2.35-0.96-4.69-1.55-6.98
					c-1.22-4.72-2.64-9.38-4.27-13.97C383.54,402.61,381.61,403.13,382.04,404.34L382.04,404.34z"/>
			</g>
		</g>
		<g>
			<g>
				<path d="M386.11,400.25c3.28-0.3,6.57-0.55,9.84-0.92c1.58-0.17,3.12-0.14,4.7-0.22c1.62-0.08,3.21-0.33,4.81-0.52
					c0.54-0.06,1-0.42,1-1c0-0.49-0.46-1.06-1-1c-1.56,0.18-3.11,0.43-4.69,0.51c-0.82,0.04-1.63,0-2.45,0.02
					c-0.8,0.02-1.59,0.12-2.38,0.2c-3.27,0.36-6.56,0.62-9.84,0.92c-0.54,0.05-1,0.42-1,1C385.11,399.76,385.57,400.3,386.11,400.25
					L386.11,400.25z"/>
			</g>
		</g>
		<g>
			<g>
				<path d="M411.13,398.22c8.35-0.55,16.76,0.02,25.11,0.33c4.45,0.16,8.91,0.14,13.36,0.42c4.76,0.3,9.47,1.09,14.06,2.41
					c1.28,0.37,2.55,0.77,3.8,1.22c0.63,0.22,1.26,0.44,1.87,0.69c0.52,0.21,0.75,0.45,0.99,0.96c0.94,1.96,2.7,4.1,5.16,3.4
					c1.24-0.35,0.71-2.28-0.53-1.93c-0.82,0.23-1.53-0.34-2.03-0.94c-0.62-0.75-0.82-1.76-1.49-2.48c-0.73-0.78-1.92-1.07-2.89-1.43
					c-1.14-0.42-2.29-0.8-3.46-1.15c-4.53-1.37-9.2-2.24-13.91-2.63c-4.54-0.38-9.09-0.34-13.64-0.49
					c-4.2-0.14-8.41-0.34-12.61-0.47c-4.6-0.14-9.21-0.21-13.81,0.09C409.85,396.3,409.84,398.3,411.13,398.22L411.13,398.22z"/>
			</g>
		</g>
		<g>
			<g>
				<path d="M474.77,407.4c0.56,0.45,1.08,0.96,1.53,1.52c0.02,0.03,0.05,0.06,0.07,0.09c0.13,0.16-0.11-0.14-0.03-0.04
					c0.05,0.07,0.1,0.14,0.15,0.21c0.11,0.15,0.21,0.3,0.3,0.45c0.2,0.31,0.38,0.64,0.55,0.97c0.23,0.47,0.94,0.64,1.37,0.36
					c0.48-0.31,0.61-0.87,0.36-1.37c-0.68-1.38-1.68-2.63-2.88-3.6c-0.21-0.17-0.42-0.29-0.71-0.29c-0.25,0-0.54,0.11-0.71,0.29
					C474.44,406.35,474.34,407.05,474.77,407.4L474.77,407.4z"/>
			</g>
		</g>
		<g>
			<g>
				<path d="M335.34,431.69c0.91-3.03,2.2-5.96,2.75-9.1c0.57-3.25,0.24-6.58-0.76-9.72c-0.39-1.22-2.32-0.7-1.93,0.53
					c0.93,2.93,1.3,6.07,0.68,9.11c-0.61,2.97-1.8,5.75-2.67,8.64C333.04,432.4,334.97,432.93,335.34,431.69L335.34,431.69z"/>
			</g>
		</g>
		<g>
			<g>
				<path d="M459.86,416.7c-2.95,0.2-5.9,0.19-8.84-0.15c-2.76-0.32-5.48-0.95-8.14-1.74c-5.47-1.63-11.25-3.56-14.79-8.32
					c-1.74-2.34-2.93-5.12-3.31-8.02c-0.07-0.54-0.41-1-1-1c-0.49,0-1.07,0.46-1,1c0.75,5.77,4.04,10.99,9.02,14.04
					c2.74,1.68,5.85,2.74,8.89,3.72c2.83,0.92,5.72,1.67,8.66,2.11c3.49,0.52,6.99,0.61,10.51,0.37
					C461.14,418.61,461.15,416.61,459.86,416.7L459.86,416.7z"/>
			</g>
		</g>
	</g>
	<g>
		<g>
			<g>
				<path d="M471.58,430.09c2.94,9.3,5.28,18.79,7,28.39c0.06,0.32,0.54,0.18,0.48-0.13c-1.73-9.6-4.07-19.08-7-28.39
					C471.97,429.65,471.48,429.78,471.58,430.09L471.58,430.09z"/>
			</g>
		</g>
		<g>
			<g>
				<path d="M479.92,463.49c1.66,7.43,2.71,15,3.11,22.6c0.1,1.87,0.16,3.73,0.18,5.6c0.01,0.89,0.01,1.79,0,2.68
					c-0.01,0.85-0.08,1.72,0.03,2.57c0.1,0.78,0.45,1.42,0.86,2.07c0.5,0.78,1,1.57,1.48,2.36c0.92,1.53,1.78,3.1,2.58,4.7
					c0.45,0.9,0.88,1.82,1.3,2.74c0.16,0.35,0.22,0.61,0.53,0.84c0.39,0.29,0.73,0.64,1,1.05c0.92,1.37,1.3,3.05,2.15,4.47
					c0.17,0.28,0.6,0.02,0.43-0.25c-0.77-1.28-1.16-2.72-1.88-4.02c-0.29-0.53-0.65-1.01-1.11-1.41c-0.33-0.28-0.51-0.51-0.69-0.92
					c-0.19-0.43-0.38-0.85-0.58-1.27c-0.76-1.62-1.59-3.2-2.47-4.76c-0.42-0.74-0.86-1.48-1.31-2.21c-0.48-0.78-1.05-1.52-1.45-2.34
					c-0.42-0.84-0.39-1.73-0.38-2.64c0.02-0.97,0.02-1.95,0.01-2.92c-0.01-1.87-0.06-3.74-0.15-5.6c-0.18-3.73-0.51-7.46-0.99-11.16
					c-0.54-4.13-1.26-8.24-2.17-12.3C480.33,463.04,479.85,463.18,479.92,463.49L479.92,463.49z"/>
			</g>
		</g>
		<g>
			<g>
				<path d="M370.47,649.56c0.88,1.66,2.46,2.71,4.15,3.44c2.01,0.87,4.16,1.44,6.27,2.04c4.61,1.3,9.28,2.37,13.87,3.73
					c2.32,0.69,4.62,1.45,6.87,2.35c1.15,0.46,2.31,0.95,3.42,1.51c1.04,0.52,1.96,1.26,1.98,2.51c0.04,2.42-2.51,3.47-4.58,3.3
					c-1.31-0.11-2.55-0.62-3.73-1.16c-1.18-0.54-2.36-1.09-3.55-1.62c-4.94-2.22-10.06-4.67-15.57-4.81
					c-0.23-0.01-0.32,0.27-0.18,0.43c1.29,1.4,2.79,2.58,4.46,3.51c0.28,0.16,0.53-0.27,0.25-0.43c-1.63-0.91-3.09-2.06-4.35-3.43
					c-0.06,0.14-0.12,0.28-0.18,0.43c5.38,0.14,10.39,2.53,15.2,4.69c1.22,0.55,2.44,1.12,3.66,1.67c1.1,0.5,2.24,0.97,3.44,1.16
					c1.82,0.29,3.96-0.13,5.03-1.77c1.03-1.59,0.63-3.48-0.95-4.51c-0.97-0.63-2.1-1.06-3.15-1.51c-1.12-0.48-2.26-0.92-3.41-1.33
					c-4.79-1.71-9.74-2.9-14.66-4.19c-2.7-0.71-5.4-1.44-8.06-2.32c-2.24-0.74-4.65-1.74-5.8-3.94
					C370.75,649.02,370.32,649.27,370.47,649.56L370.47,649.56z"/>
			</g>
		</g>
		<g>
			<g>
				<path d="M377.22,668.55c3.29,2.77,7.02,4.95,11.05,6.48c0.3,0.11,0.43-0.37,0.13-0.48c-3.94-1.49-7.6-3.64-10.83-6.35
					C377.33,667.99,376.97,668.35,377.22,668.55L377.22,668.55z"/>
			</g>
		</g>
		<g>
			<g>
				<path d="M359.55,575.19c0.19,1.49,1.12,2.66,2.21,3.63c1.15,1.03,2.47,1.88,3.88,2.52c0.72,0.32,1.45,0.59,2.21,0.8
					c0.63,0.17,1.4,0.42,2.03,0.11c0.93-0.47,0.82-1.67,0.96-2.54c0.13-0.78,0.49-1.1,1.19-1.43c0.98-0.45,1.97-0.89,2.95-1.34
					c1.74-0.79,3.48-1.58,5.22-2.37c3.55-1.62,7.11-3.23,10.66-4.85c1.94-0.88,3.87-1.86,5.87-2.6c1.85-0.69,4.12-1.19,5.89-0.05
					c-0.02-0.13-0.03-0.26-0.05-0.39c-2.22,2.24-4.56,4.33-7.04,6.28c-0.25,0.2,0.1,0.55,0.35,0.35c2.47-1.95,4.82-4.05,7.04-6.28
					c0.12-0.12,0.08-0.31-0.05-0.39c-2.75-1.77-6.25-0.09-8.87,1.1c-3.4,1.55-6.81,3.09-10.21,4.64s-6.81,3.09-10.21,4.64
					c-0.79,0.36-1.67,0.65-2.41,1.11c-0.43,0.27-0.66,0.69-0.78,1.17c-0.12,0.51-0.11,1.03-0.21,1.54
					c-0.04,0.22-0.09,0.47-0.22,0.66c-0.37,0.55-1.05,0.39-1.6,0.26c-1.73-0.42-3.38-1.16-4.85-2.17c-1.5-1.03-3.25-2.48-3.49-4.4
					C360.01,574.87,359.51,574.87,359.55,575.19L359.55,575.19z"/>
			</g>
		</g>
		<g>
			<g>
				<path d="M392.98,575.11c-2.7,1.76-5.53,3.32-8.47,4.66c-0.29,0.13-0.04,0.56,0.25,0.43c2.94-1.34,5.77-2.9,8.47-4.66
					C393.51,575.37,393.26,574.94,392.98,575.11L392.98,575.11z"/>
			</g>
		</g>
		<g>
			<g>
				<path d="M408.83,554.85c-1.94,0.03-3.42-1.3-4.59-2.71c-0.58-0.7-1.11-1.45-1.72-2.13c-0.46-0.51-0.97-0.79-1.67-0.66
					c-1.7,0.32-3.43,1.12-4.99,1.86c-1.66,0.79-3.23,1.73-4.73,2.79c-0.26,0.19-0.01,0.62,0.25,0.43c1.43-1.02,2.94-1.93,4.53-2.7
					c0.84-0.41,1.69-0.77,2.57-1.1c0.79-0.29,1.66-0.69,2.5-0.8c1-0.13,1.67,1.12,2.21,1.8c0.54,0.69,1.09,1.39,1.73,1.99
					c1.07,1.01,2.4,1.75,3.9,1.72C409.15,555.34,409.15,554.84,408.83,554.85L408.83,554.85z"/>
			</g>
		</g>
		<g>
			<g>
				<path d="M474.92,508.4c-1.28-2.13-1.9-4.55-1.8-7.03c-0.11,0.08-0.21,0.16-0.32,0.24c0.54,0.07,0.88,0.43,1.22,0.83
					c0.41,0.48,0.8,0.97,1.19,1.46c0.74,0.92,1.47,1.86,2.2,2.8c1.46,1.89,2.88,3.8,4.31,5.71c2.76,3.7,5.53,7.4,8.49,10.94
					c1.7,2.03,3.47,4,5.34,5.88c0.23,0.23,0.58-0.12,0.35-0.35c-6.8-6.85-12.23-14.86-18.1-22.48c-0.81-1.04-1.62-2.08-2.45-3.11
					c-0.63-0.78-1.33-2.01-2.42-2.15c-0.16-0.02-0.31,0.06-0.32,0.24c-0.1,2.57,0.55,5.09,1.87,7.29
					C474.66,508.93,475.09,508.68,474.92,508.4L474.92,508.4z"/>
			</g>
		</g>
		<g>
			<g>
				<path d="M460.08,526.55c6.64,1.88,13.2,4.02,19.66,6.43c3.25,1.21,6.56,2.39,9.71,3.85c0.28,0.13,0.6,0.28,0.8,0.52
					c0.41,0.52-0.03,1.05-0.35,1.45c-0.51,0.64-1.05,1.25-1.62,1.84c-0.54,0.56-1.11,1.1-1.7,1.61c-0.61,0.52-1.33,1.35-2.19,1.28
					c-4.01-0.3-8.01-0.8-12.01-1.21c-0.32-0.03-0.32,0.47,0,0.5c3.93,0.4,7.86,0.8,11.8,1.19c0.7,0.07,1.07-0.06,1.63-0.49
					c0.7-0.55,1.38-1.12,2.03-1.74c0.59-0.56,1.16-1.15,1.69-1.77c0.48-0.55,1.24-1.25,1.37-2.01c0.23-1.31-1.64-1.79-2.53-2.16
					c-1.78-0.74-3.56-1.45-5.36-2.15c-3.51-1.36-7.06-2.65-10.63-3.85c-4.03-1.36-8.09-2.62-12.18-3.78
					C459.91,525.98,459.77,526.46,460.08,526.55L460.08,526.55z"/>
			</g>
		</g>
		<g>
			<g>
				<path d="M471.78,569.9c2.17,1.66,4.33,3.31,6.5,4.97c0.19,0.14,0.41-0.09,0.37-0.28c-0.22-0.95,0.59-1.68,1.43-1.92
					c0.8-0.23,1.68-0.17,2.51-0.15c1.85,0.03,3.7,0.14,5.55,0.31c3.71,0.33,7.41,0.86,11.09,1.42c0.31,0.05,0.45-0.43,0.13-0.48
					c-4.22-0.63-8.44-1.25-12.7-1.55c-1.07-0.08-2.14-0.13-3.21-0.17c-0.95-0.03-1.93-0.1-2.87,0.03c-1.33,0.17-2.76,1.14-2.41,2.66
					c0.12-0.09,0.24-0.19,0.37-0.28c-2.17-1.66-4.33-3.31-6.5-4.97C471.78,569.27,471.53,569.71,471.78,569.9L471.78,569.9z"/>
			</g>
		</g>
		<g>
			<g>
				<path d="M473.67,667.12c1.91,1.6,3.85,3.11,6.23,3.95c2.59,0.91,5.37,1.32,8.08,1.76c1.44,0.23,2.88,0.46,4.31,0.71
					c0.64,0.11,1.27,0.23,1.91,0.36c0.35,0.07,0.71,0.12,1.05,0.22c0.57,0.17,0.74,0.49,0.54,1.04c-0.24,0.64-0.73,1.24-1.1,1.81
					c-0.4,0.62-0.81,1.25-1.21,1.87c-0.76,1.18-1.52,2.36-2.29,3.54c-0.26,0.4-0.46,0.89-0.87,1.15c-0.31,0.19-0.64,0.36-0.96,0.54
					c-0.54,0.3-1.08,0.59-1.63,0.88c-0.28,0.15-0.03,0.58,0.25,0.43c0.51-0.27,1.01-0.54,1.51-0.81c0.44-0.24,1.05-0.47,1.41-0.84
					c0.45-0.46,0.77-1.18,1.12-1.72c0.45-0.69,0.9-1.39,1.35-2.08c0.85-1.32,1.74-2.62,2.56-3.95c0.42-0.68,0.8-1.71-0.11-2.19
					c-0.57-0.3-1.34-0.35-1.96-0.47c-0.75-0.15-1.51-0.28-2.27-0.41c-2.98-0.5-5.98-0.91-8.93-1.59c-1.59-0.37-3.17-0.83-4.61-1.62
					c-1.46-0.8-2.74-1.87-4.01-2.93C473.77,666.56,473.42,666.91,473.67,667.12L473.67,667.12z"/>
			</g>
		</g>
		<g>
			<g>
				<path d="M509.35,620.67c-0.03,2.19-0.15,4.37-0.39,6.55c-0.12,1.15-0.28,2.29-0.46,3.43c-0.16,0.98-0.23,2.13-0.66,3.04
					c-0.48,1.02-1.66,1.29-2.64,1.66c-0.97,0.36-1.94,0.74-2.9,1.14c-1.86,0.78-3.7,1.62-5.5,2.54c-1.85,0.94-3.66,1.95-5.44,3.03
					c-0.44,0.27-1.54,0.67-1.5,1.33c0.02,0.35,0.35,0.73,0.53,1.02c0.27,0.45,0.54,0.9,0.82,1.34c1.02,1.6,2.17,3.11,3.6,4.35
					c1.32,1.14,2.81,2.07,4.36,2.87c1.73,0.89,3.53,1.62,5.33,2.35c1,0.4,1.99,0.81,2.98,1.24c0.94,0.41,2.16,0.79,2.72,1.71
					c0.05-0.12,0.1-0.24,0.15-0.37c-4.82,1.9-9.65,3.79-14.48,5.66c-0.3,0.12-0.17,0.6,0.13,0.48c4.83-1.87,9.66-3.76,14.48-5.66
					c0.14-0.06,0.24-0.22,0.15-0.37c-0.43-0.69-1.1-1.06-1.82-1.4c-0.77-0.36-1.55-0.69-2.33-1.02c-1.7-0.71-3.42-1.37-5.1-2.12
					c-3.4-1.52-6.52-3.44-8.74-6.49c-0.59-0.81-1.13-1.67-1.65-2.53c-0.25-0.41-0.78-0.93-0.36-1.34c0.36-0.35,0.94-0.59,1.37-0.85
					c1.78-1.07,3.6-2.07,5.45-3c1.91-0.95,3.85-1.83,5.82-2.63c0.95-0.38,1.91-0.74,2.88-1.1c0.66-0.25,1.35-0.53,1.8-1.09
					c0.64-0.8,0.73-1.95,0.9-2.93c0.2-1.14,0.36-2.28,0.5-3.43c0.3-2.45,0.45-4.92,0.48-7.39
					C509.85,620.35,509.35,620.35,509.35,620.67L509.35,620.67z"/>
			</g>
		</g>
		<g>
			<g>
				<path d="M516.69,677.91c-1.95-1.01-4.19-0.84-6.31-0.65c-2.29,0.2-4.58,0.55-6.81,1.14c-1.09,0.29-2.18,0.61-3.22,1.05
					c-0.66,0.28-1.39,0.83-1.22,1.65c0.08,0.39,0.33,0.39,0.7,0.46c0.56,0.11,1.13,0.2,1.7,0.26c1.17,0.13,2.35,0.15,3.53,0.12
					c2.78-0.06,5.54-0.39,8.33-0.37c0.32,0,0.32-0.5,0-0.5c-4.16-0.03-8.35,0.77-12.49,0.17c-0.26-0.04-1.17-0.06-1.29-0.33
					c-0.23-0.55,0.88-0.98,1.22-1.11c0.94-0.36,1.9-0.66,2.87-0.91c2-0.53,4.04-0.86,6.1-1.06c2.18-0.22,4.61-0.52,6.63,0.53
					C516.72,678.49,516.98,678.06,516.69,677.91L516.69,677.91z"/>
			</g>
		</g>
		<g>
			<g>
				<path d="M380.09,585.61c2.96,1.09,6.23,1.19,9.25,0.28c0.31-0.09,0.18-0.57-0.13-0.48c-2.95,0.88-6.1,0.78-8.99-0.28
					C379.92,585.02,379.79,585.5,380.09,585.61L380.09,585.61z"/>
			</g>
		</g>
		<g>
			<g>
				<path d="M351.27,384.83c1.26,1.25,1.8,2.98,2.39,4.6c0.64,1.74,1.48,3.53,1.78,5.38c0.31,1.96,0.25,4.05,0.24,6.03
					c0,2.03-0.08,4.06-0.23,6.09c-0.02,0.32,0.48,0.32,0.5,0c0.15-2.11,0.23-4.22,0.23-6.33c0-2.02,0.08-4.17-0.3-6.16
					c-0.37-1.94-1.26-3.83-1.94-5.69c-0.56-1.53-1.13-3.1-2.32-4.27C351.4,384.25,351.04,384.61,351.27,384.83L351.27,384.83z"/>
			</g>
		</g>
		<g>
			<g>
				<path d="M348.74,385.11c-0.61,0.59-1.09,1.41-1.07,2.28c0.03,1.04,0.71,2.14,1.06,3.1c0.8,2.16,1.43,4.37,1.91,6.61
					c0.49,2.3,0.81,4.64,0.95,6.99c0.09,1.45,0.19,3.82,2.19,3.8c0.32,0,0.32-0.5,0-0.5c-1.19,0.01-1.55-1.26-1.63-2.22
					c-0.08-0.9-0.1-1.81-0.19-2.71c-0.18-1.92-0.48-3.83-0.89-5.72c-0.42-1.9-0.95-3.78-1.59-5.62c-0.32-0.92-0.69-1.82-1.04-2.72
					c-0.44-1.12-0.22-2.11,0.65-2.94C349.32,385.24,348.97,384.89,348.74,385.11L348.74,385.11z"/>
			</g>
		</g>
		<g>
			<g>
				<path d="M409.91,401.29c0.01,0,0.02,0,0.02,0c0.1-0.02,0.19-0.14,0.18-0.24c0-0.01,0-0.02,0-0.03c-0.02-0.19-0.2-0.31-0.38-0.22
					c-0.76,0.4-2.07,0.84-2.63-0.06c-0.44-0.69-0.61-1.6-0.84-2.37c-0.64-2.22-1.27-4.5-1.6-6.79c-0.35-2.44,0.3-4.7,0.86-7.05
					c0.29-1.2,0.57-2.4,0.86-3.59c0.11-0.48,0.21-1.01,0.48-1.43c0.36-0.56,0.98-0.75,1.58-0.93c0.31-0.09,0.18-0.58-0.13-0.48
					c-0.73,0.22-1.46,0.49-1.88,1.16c-0.49,0.79-0.6,1.86-0.81,2.75c-0.52,2.16-1.18,4.35-1.48,6.55c-0.29,2.09,0.2,4.17,0.67,6.2
					c0.44,1.87,0.85,3.85,1.57,5.64c0.24,0.6,0.6,1.27,1.3,1.37c0.77,0.11,1.66-0.18,2.31-0.52c-0.13-0.07-0.25-0.14-0.38-0.22
					c0,0.01,0,0.02,0,0.03c0.06-0.08,0.12-0.16,0.18-0.24c-0.01,0-0.02,0-0.02,0C409.46,400.87,409.59,401.35,409.91,401.29
					L409.91,401.29z"/>
			</g>
		</g>
		<g>
			<g>
				<path d="M410.97,379.57c0.73,0.47,0.6,1.49,0.46,2.22c-0.17,0.9-0.4,1.78-0.68,2.66c-0.57,1.84-1.08,3.6-1.14,5.54
					c-0.06,1.85,0.16,3.7,0.45,5.53c0.26,1.63,0.97,3.8-0.17,5.24c-0.2,0.25,0.15,0.61,0.35,0.35c1.04-1.32,0.76-3.01,0.49-4.55
					c-0.39-2.25-0.73-4.52-0.62-6.81c0.11-2.32,0.96-4.38,1.52-6.61c0.3-1.22,0.9-3.16-0.42-4
					C410.95,378.97,410.7,379.4,410.97,379.57L410.97,379.57z"/>
			</g>
		</g>
		<g>
			<g>
				<path d="M376.07,406.75c1.01,4.43,2.22,8.82,3.63,13.15c1.13,3.45,2.48,7.03,5.29,9.48c0.24,0.21,0.6-0.14,0.35-0.35
					c-2.87-2.5-4.17-6.19-5.31-9.71c-1.35-4.17-2.51-8.41-3.48-12.69C376.49,406.31,376,406.44,376.07,406.75L376.07,406.75z"/>
			</g>
		</g>
		<g>
			<g>
				<path d="M387.84,406.51c1,3.3,1.77,6.67,2.45,10.05c0.33,1.65,0.64,3.31,0.95,4.97c0.32,1.72,0.78,3.53,0.17,5.24
					c-0.11,0.3,0.37,0.43,0.48,0.13c0.55-1.53,0.27-3.13-0.02-4.68c-0.33-1.78-0.66-3.55-1.01-5.32c-0.7-3.54-1.5-7.07-2.54-10.52
					C388.23,406.07,387.74,406.2,387.84,406.51L387.84,406.51z"/>
			</g>
		</g>
		<g>
			<g>
				<path d="M391.35,429.02c-0.52,0.98-1.05,1.95-1.57,2.93c-0.38,0.71-0.92,1.32-0.24,1.98c0.71,0.69,1.61,1.16,2.33,1.85
					c0.72,0.7,1.3,1.52,1.79,2.39c0.97,1.74,1.56,3.65,2.2,5.53c0.75,2.2,1.5,4.4,2.26,6.6c0.1,0.3,0.59,0.17,0.48-0.13
					c-0.71-2.08-1.42-4.17-2.14-6.25c-0.6-1.75-1.15-3.53-1.96-5.2c-0.75-1.56-1.75-2.94-3.12-4c-0.38-0.29-0.77-0.57-1.15-0.87
					c-0.36-0.29-0.54-0.54-0.35-1.01c0.08-0.21,0.23-0.43,0.34-0.63c0.52-0.98,1.05-1.95,1.57-2.93
					C391.94,428.98,391.51,428.73,391.35,429.02L391.35,429.02z"/>
			</g>
		</g>
		<g>
			<g>
				<path d="M380.48,400.12c-1.24,0.36-2.5,0.6-3.79,0.7c-0.61,0.05-1.25,0.09-1.86,0.05c-0.76-0.05-0.77-0.74-0.86-1.34
					c-0.38-2.57-0.65-5.15-0.83-7.74c-0.02-0.32-0.52-0.32-0.5,0c0.1,1.49,0.23,2.97,0.4,4.46c0.08,0.72,0.17,1.44,0.27,2.15
					c0.09,0.66,0.13,1.35,0.3,2c0.34,1.26,1.69,1.01,2.73,0.95c1.45-0.09,2.88-0.34,4.28-0.74
					C380.92,400.51,380.79,400.03,380.48,400.12L380.48,400.12z"/>
			</g>
		</g>
		<g>
			<g>
				<path d="M384.23,379.74c-0.04,4.42,0.29,8.83,0.96,13.2c0.05,0.32,0.53,0.18,0.48-0.13c-0.67-4.32-0.98-8.69-0.94-13.07
					C384.73,379.41,384.23,379.41,384.23,379.74L384.23,379.74z"/>
			</g>
		</g>
		<g>
			<g>
				<path d="M375.55,404.24c4.82-1.04,9.69-1.8,14.6-2.25c0.32-0.03,0.32-0.53,0-0.5c-4.95,0.46-9.87,1.21-14.73,2.27
					C375.11,403.82,375.24,404.31,375.55,404.24L375.55,404.24z"/>
			</g>
		</g>
		<g>
			<g>
				<path d="M392.36,402.01c0.81-0.04,1.62-0.15,2.41-0.33c0.31-0.07,0.18-0.55-0.13-0.48c-0.75,0.17-1.51,0.28-2.28,0.31
					C392.04,401.53,392.04,402.03,392.36,402.01L392.36,402.01z"/>
			</g>
		</g>
		<g>
			<g>
				<path d="M363.63,400.68c-2.57,0.54-5.2,0.7-7.76,1.25c-0.31,0.07-0.18,0.55,0.13,0.48c2.57-0.54,5.2-0.7,7.76-1.25
					C364.08,401.09,363.95,400.61,363.63,400.68L363.63,400.68z"/>
			</g>
		</g>
		<g>
			<g>
				<path d="M351.59,402.86c-4.19,1.22-8.39,2.43-12.58,3.65c-1.84,0.53-3.75,1-5.44,1.92c-1.23,0.67-2.23,1.22-2.76,2.58
					c-0.12,0.3,0.37,0.43,0.48,0.13c0.55-1.38,1.95-2.04,3.23-2.63c1.77-0.82,3.72-1.26,5.59-1.8c3.87-1.12,7.75-2.25,11.62-3.37
					C352.04,403.25,351.9,402.77,351.59,402.86L351.59,402.86z"/>
			</g>
		</g>
		<g>
			<g>
				<path d="M344.59,390.24c0.79,1.88,1.62,3.9,2.01,5.92c0.26,1.35-0.74,1.84-1.79,2.3c-1.03,0.45-2.06,0.9-3.09,1.33
					c-2.04,0.86-4.1,1.69-6.16,2.5c-1.02,0.4-2.04,0.78-3.07,1.17c-0.82,0.3-1.63,0.59-2.25,1.23c-0.22,0.23,0.13,0.59,0.35,0.35
					c0.81-0.84,2.1-1.13,3.16-1.53s2.12-0.81,3.17-1.23c2.17-0.86,4.32-1.74,6.46-2.66c1.41-0.61,3.93-1.2,3.75-3.18
					c-0.09-1.03-0.52-2.09-0.84-3.07c-0.36-1.1-0.78-2.18-1.23-3.25C344.95,389.81,344.46,389.94,344.59,390.24L344.59,390.24z"/>
			</g>
		</g>
		<g>
			<g>
				<path d="M420.96,381.67c-0.18,0.94-0.27,1.89-0.27,2.84c0,0.32,0.5,0.32,0.5,0c-0.01-0.91,0.07-1.82,0.25-2.71
					C421.5,381.49,421.02,381.35,420.96,381.67L420.96,381.67z"/>
			</g>
		</g>
		<g>
			<g>
				<path d="M430.19,381.9c-0.38,2.98-0.77,5.96-1.15,8.94c-0.02,0.14,0.13,0.25,0.25,0.25c11.91,0.45,23.93,0.9,35.57,3.72
					c0.46,0.11,1.26,0.5,1.73,0.28c0.46-0.22,0.49-1.01,0.59-1.43c0.36-1.57,0.59-3.16,0.69-4.76c0.02-0.32-0.48-0.32-0.5,0
					c-0.09,1.48-0.29,2.95-0.62,4.4c-0.07,0.3-0.11,0.64-0.22,0.92c-0.18,0.44-0.42,0.39-0.84,0.28c-0.7-0.17-1.39-0.34-2.09-0.5
					c-2.72-0.61-5.46-1.11-8.22-1.5c-5.47-0.79-10.99-1.21-16.51-1.5c-3.19-0.17-6.38-0.29-9.58-0.41c0.08,0.08,0.17,0.17,0.25,0.25
					c0.38-2.98,0.77-5.96,1.15-8.94C430.73,381.58,430.23,381.59,430.19,381.9L430.19,381.9z"/>
			</g>
		</g>
		<g>
			<g>
				<path d="M473.65,386.55c-1.14,1.16-0.8,2.8-0.28,4.17c0.69,1.82,1.38,3.71,0.75,5.66c-0.92,2.82-4.29,5.72-2.45,8.9
					c0.16,0.28,0.59,0.03,0.43-0.25c-1.74-3.02,1.77-5.98,2.56-8.71c0.43-1.49,0.15-3.04-0.34-4.47c-0.51-1.5-1.68-3.55-0.32-4.94
					C474.23,386.67,473.88,386.32,473.65,386.55L473.65,386.55z"/>
			</g>
		</g>
		<g>
			<g>
				<path d="M478.15,396.74c-0.4,1.95-0.74,3.93-1.22,5.87c-0.42,1.67-1.28,3.49-3.13,3.86c-0.32,0.06-0.18,0.55,0.13,0.48
					c1.76-0.36,2.8-1.95,3.3-3.56c0.31-1,0.49-2.04,0.69-3.06c0.24-1.15,0.47-2.31,0.71-3.46
					C478.7,396.56,478.22,396.42,478.15,396.74L478.15,396.74z"/>
			</g>
		</g>
		<g>
			<g>
				<path d="M339.55,413.15c1.81,3.44,1.25,7.41,0.42,11.04c-0.73,3.18-1.4,6.74-3.78,9.15c-0.23,0.23,0.13,0.58,0.35,0.35
					c2.5-2.53,3.2-6.27,3.96-9.61c0.84-3.7,1.32-7.7-0.52-11.19C339.83,412.61,339.39,412.86,339.55,413.15L339.55,413.15z"/>
			</g>
		</g>
		<g>
			<g>
				<path d="M420.84,399.68c0.59,2.8,1.4,5.61,2.9,8.08c1.47,2.42,3.61,4.29,5.95,5.85c5.03,3.33,10.92,5.07,16.82,6.06
					c3.63,0.61,7.3,0.95,10.96,1.28c0.32,0.03,0.32-0.47,0-0.5c-6.15-0.54-12.36-1.15-18.28-2.99c-2.77-0.86-5.46-1.99-7.95-3.47
					c-2.45-1.45-4.83-3.24-6.49-5.59c-1.85-2.62-2.77-5.75-3.43-8.86C421.26,399.24,420.78,399.37,420.84,399.68L420.84,399.68z"/>
			</g>
		</g>
		<g>
			<g>
				<path d="M466.24,403.54c0.12,1.6,0.24,3.2,0.36,4.81c0.11,1.5,0.12,3.06,0.49,4.53c0.08,0.31,0.56,0.18,0.48-0.13
					c-0.37-1.48-0.37-3.06-0.49-4.58c-0.12-1.54-0.23-3.08-0.35-4.62C466.71,403.23,466.21,403.22,466.24,403.54L466.24,403.54z"/>
			</g>
		</g>
		<g>
			<g>
				<path d="M360.12,424.96c2.48,0.21,4.9,0.77,7.23,1.66c-0.02-0.15-0.04-0.3-0.06-0.46c-2.1,0.99-4.58,1.06-6.84,1.36
					c-2.38,0.31-4.75,0.62-7.13,0.93c-0.31,0.04-0.32,0.54,0,0.5c2.54-0.33,5.08-0.67,7.62-1c2.21-0.29,4.56-0.4,6.6-1.36
					c0.21-0.1,0.12-0.39-0.06-0.46c-2.37-0.91-4.84-1.46-7.36-1.68C359.8,424.43,359.8,424.93,360.12,424.96L360.12,424.96z"/>
			</g>
		</g>
		<g>
			<g>
				<path d="M351.28,434.19c4.9-0.46,9.82-0.57,14.73-0.33c0.32,0.02,0.32-0.48,0-0.5c-4.91-0.24-9.84-0.13-14.73,0.33
					C350.96,433.72,350.96,434.22,351.28,434.19L351.28,434.19z"/>
			</g>
		</g>
		<g>
			<g>
				<path d="M425.86,428.03c4.9,0.53,9.82,0.6,14.74,0.79c1.23,0.05,2.46,0.1,3.69,0.17c0.57,0.03,1.15,0.07,1.72,0.11
					c0.33,0.02,0.65,0.05,0.98,0.08c0.27,0.02,0.75-0.03,0.98,0.09c0.13,0.07,0.53-0.05,0.2,0.38c-0.05,0.06-0.23,0.11-0.31,0.13
					c-0.25,0.08-0.52,0.11-0.77,0.16c-0.68,0.12-1.36,0.21-2.04,0.27c-1.18,0.11-2.37,0.15-3.55,0.17c-2.7,0.04-5.4-0.03-8.09,0.24
					c-0.32,0.03-0.32,0.53,0,0.5c2.73-0.28,5.47-0.2,8.2-0.25c1.34-0.02,2.69-0.08,4.02-0.23c0.61-0.07,1.22-0.16,1.82-0.27
					c0.43-0.08,0.95-0.16,1.25-0.53c0.48-0.6-0.19-1.01-0.73-1.08c-1.38-0.18-2.78-0.23-4.17-0.31c-2.78-0.15-5.57-0.23-8.36-0.32
					c-3.2-0.11-6.39-0.27-9.57-0.61C425.54,427.5,425.54,428,425.86,428.03L425.86,428.03z"/>
			</g>
		</g>
	</g>
	<g>
		<g>
			<path d="M525.47,687.57c-0.3,0.44-1.15-0.06-1.47-0.19c-0.53-0.23-1.06-0.45-1.59-0.68c-0.91-0.39-1.83-0.83-2.81-1.01
				c-1.6-0.29-3.28,0.25-3.86,1.88c-0.55,1.54,0.25,3.19,1.56,4.05c1.3,0.85,2.91,0.96,4.38,1.31c0.88,0.21,1.78,0.51,2.45,1.14
				c0.82,0.78,1.15,1.9,1.46,2.96c0.09,0.31,0.57,0.18,0.48-0.13c-0.45-1.51-1-3.01-2.46-3.81c-1.31-0.71-2.84-0.8-4.26-1.17
				c-1.67-0.43-3.47-1.59-3.27-3.57c0.1-1.03,0.79-1.86,1.79-2.14c0.99-0.27,2.01,0,2.94,0.35c1.17,0.44,2.29,0.99,3.45,1.46
				c0.57,0.23,1.26,0.38,1.65-0.2C526.08,687.56,525.65,687.31,525.47,687.57L525.47,687.57z"/>
		</g>
	</g>
	<g>
		<g>
			<path d="M382.93,702.44c7.6,4.29,16.6,2.83,24.74,1.28c2.42-0.46,4.84-0.98,7.13-1.93c0.29-0.12,0.16-0.6-0.13-0.48
				c-1.93,0.79-3.95,1.29-5.99,1.7c-2.11,0.43-4.23,0.82-6.36,1.15c-4.2,0.64-8.51,0.95-12.71,0.15c-2.25-0.43-4.43-1.17-6.43-2.3
				C382.9,701.85,382.65,702.28,382.93,702.44L382.93,702.44z"/>
		</g>
	</g>
	<g>
		<g>
			<path d="M405.27,707.52c2.01-0.37,4.01-0.79,6-1.24c0.31-0.07,0.18-0.55-0.13-0.48c-1.99,0.45-3.99,0.87-6,1.24
				C404.82,707.09,404.95,707.58,405.27,707.52L405.27,707.52z"/>
		</g>
	</g>
</g>
</svg>
