<?xml version="1.0" encoding="utf-8"?>
<!-- Generator: Adobe Illustrator 28.0.0, SVG Export Plug-In . SVG Version: 6.00 Build 0)  -->
<svg version="1.1" id="Layer_1" xmlns="http://www.w3.org/2000/svg" xmlns:xlink="http://www.w3.org/1999/xlink" x="0px" y="0px"
	 viewBox="0 0 800 800" style="enable-background:new 0 0 800 800;" xml:space="preserve">
<style type="text/css">
	.st0{fill:#C3D1DB;}
	.st1{fill:#DFE9ED;}
	.st2{fill:url(#SVGID_1_);}
	.st3{fill:url(#SVGID_00000018942429383181007750000008503598928741691277_);}
	.st4{fill:url(#SVGID_00000165229785971551392850000014279248789551301265_);}
	.st5{fill:url(#SVGID_00000015345045734347027260000010211720268115440780_);}
	.st6{fill:url(#SVGID_00000173148307323226918020000004447117284740333715_);}
	.st7{fill:url(#SVGID_00000026136182179138681250000001341985425041445809_);}
	.st8{fill:url(#SVGID_00000060000946699566852120000017948571155858028706_);}
	.st9{fill:none;stroke:#7A8287;stroke-width:0.5;stroke-linecap:round;stroke-linejoin:round;stroke-miterlimit:10;}
	.st10{fill:#9AACB7;}
	.st11{fill:#7A8287;}
	.st12{fill:none;stroke:#000000;stroke-width:2;stroke-miterlimit:10;}
	.st13{fill:#F0F5F7;}
	.st14{fill:#FBEBD1;}
	.st15{fill:url(#SVGID_00000124134428279000960190000004611430849468539293_);}
	.st16{fill:url(#SVGID_00000040553028594678767070000005880457848530881202_);}
	.st17{fill:url(#SVGID_00000115515715625888605570000006215018897633714110_);}
	.st18{fill:url(#SVGID_00000169527515325408711000000008399739901038969259_);}
	.st19{fill:url(#SVGID_00000011026604703991799350000004450257997183981450_);}
	.st20{fill:url(#SVGID_00000104674423379750483480000015964419445169176450_);}
	.st21{fill:none;stroke:#000000;stroke-width:2;stroke-linecap:round;stroke-miterlimit:10;}
	.st22{fill:none;stroke:#000000;stroke-width:2;stroke-linecap:round;stroke-linejoin:round;stroke-miterlimit:10;}
</style>
<g id="_x30_-HAND_x2B_WP__x5B_SPOON_x5D__x2B_">
	<path class="st0" d="M688.16,132.9c1.06-1.11,2.1-2.23,3.13-3.36c1.02-1.11,1.97-2.19,2.39-3.7c0.32-1.17,0.25-2.48-0.4-3.5
		c-0.73-1.15-2.06-1.76-3.33-2.26c-5.32-2.1-10.99-3.28-16.7-3.58c-5.8-0.31-11.72,0.51-17.52,0.87
		c-7.66,0.47-15.33,0.95-22.93,2.01c-3.77,0.53-7.51,1.2-11.31,1.49c-3.79,0.29-7.61,0.2-11.37,0.76
		c-4.41,0.65-8.68,1.82-13.11,2.34c-4.69,0.56-9.37,1.26-14.01,2.18c-1.6,0.32-3.19,0.66-4.78,1.03
		c-6.98,1.62-13.93,3.82-20.02,7.69c-2.19,1.4-3.82,3.31-2.56,5.99c-4.78,0.22-9.94-0.09-14.67,0.69c-4.12,0.68-8.48,0.97-12.69,1
		c-7.91,0.06-15.82,0.33-23.71,0.82c-7.23,0.44-14.23,1.66-21.45,2.38c-9,0.9-18.03,1.05-27.07,1.53c-6.06,0.32-12.09,1-18.11,1.67
		c-17.04,1.91-34.13,3.56-51.12,5.54c-10.83,1.26-21.67,2.4-32.51,3.53c-10.36,1.08-20.91,1.69-31.14,3.52
		c-24.17,4.33-48.33,8.66-72.5,12.99c-12.08,2.16-24.17,4.33-36.25,6.49c-10.85,1.94-21.93,5.26-32.22,9.37
		c-4.39,1.75-9.19,3.95-11.79,8.12c-2.48,3.98-2.07,8.56,1.58,11.69c2.26,1.94,5.03,3.18,7.83,4.2c1.86,0.68,4.3,0.27,6.23,0.11
		c2.31-0.19,4.6-0.53,6.87-0.96c7.4-1.48,14.64-3.7,22.02-5.37c7.97-1.81,15.94-3.61,23.91-5.4c23.79-5.35,47.61-10.6,71.48-15.55
		c11.9-2.47,24.07-4.27,35.86-7.19c11.44-2.83,23.09-5.07,34.8-6.56c5.92-0.76,11.48-2.29,17.32-3.41
		c5.99-1.15,12.06-1.78,18.11-2.5c11.99-1.43,23.94-3.19,35.82-5.28c5.33-0.94,10.67-2.35,16.04-2.39
		c5.94-0.05,12.18-1.47,18.08-2.23c17.15-2.22,34.28-4.61,51.49-6.21c3.94-0.37,7.87-0.87,11.81-1.24
		c3.39-0.32,7.79-1.32,10.91,0.35c4.93,2.65,8.78,6.94,13.48,9.98c8.14,5.28,18.19,6.47,27.83,7.52c2.41,0.26,4.83,0.53,7.26,0.45
		c3.53-0.11,7.03-1.03,10.55-0.97c3.53,0.07,6.98-0.39,10.46-1.17c7.3-1.64,14.26-4.48,21.17-7.31c2.58-1.06,5.17-2.12,7.68-3.33
		C670.19,150.32,679.58,141.92,688.16,132.9z"/>
	<path class="st1" d="M373.47,156.45c-4.02,0.03-7.9,0.93-11.89,1.22c-3.87,0.28-7.7,0.6-11.55,1.05c-7.69,0.89-15.35,2-23,3.1
		c-15.59,2.23-31.19,4.53-46.71,7.2c-4.25,0.73-8.5,1.47-12.74,2.25c-0.03,0-0.05-0.01-0.08-0.01c-3.59,0.25-7.51,0.95-10.96,1.97
		c-0.2,0.06-0.33,0.2-0.42,0.35c-0.37,0.1-0.75,0.2-1.12,0.32c-1.32,0.06-2.63,0.14-3.95,0.34c-5.79,0.88-11.55,2.09-17.29,3.22
		c-5.65,1.11-11.29,2.3-16.92,3.52c-2.81,0.61-5.63,1.23-8.43,1.87c-1.97,0.44-4.33,0.76-6.34,1.52c-0.83,0.14-1.65,0.41-2.5,0.52
		c-1.41,0.19-2.63,0.51-4,0.98c-3.28,1.11-6.56,2.22-9.83,3.32c-2,0.68-4.03,1.37-5.81,2.5c-2.67,1.7-5.44,3.32-7.83,5.42
		c-0.31,0.28,0.09,0.8,0.45,0.58c2.48-1.56,5.06-2.75,7.87-3.59c1.3-0.39,2.66-0.6,3.94-1.06c0.98-0.35,1.34-0.87,2.07-1.5
		c0.48-0.41,1.45-0.55,2.06-0.75c0.76-0.25,1.52-0.48,2.29-0.71c1.53-0.46,3.07-0.89,4.61-1.34c1.54-0.44,3.07-0.88,4.62-1.3
		c1.27-0.34,2.57-0.57,3.67-1.27c1.82-0.31,3.67-0.9,5.31-1.27c2.92-0.66,5.83-1.31,8.76-1.95c5.63-1.23,11.26-2.4,16.91-3.54
		c5.63-1.14,11.27-2.36,16.94-3.26c2.86-0.46,5.72-0.4,8.59-0.71c2.73-0.29,5.08-1.39,7.58-2.43c0.01-0.01,0.02-0.02,0.04-0.02
		c3.15-0.51,6.3-1.02,9.44-1.52c7.78-1.24,15.55-2.53,23.34-3.75c15.57-2.44,31.18-4.49,46.76-6.82c4.38-0.66,8.74-1.32,13.09-2.14
		c4.36-0.82,8.8-0.95,13.12-1.98C373.69,156.72,373.65,156.45,373.47,156.45z"/>
	<path class="st1" d="M376.54,155.82c-0.16,0.01-0.33,0.01-0.49,0.04c-0.16,0.04-0.31,0.09-0.47,0.13
		c-0.31,0.09-0.62,0.17-0.93,0.26c-0.01,0-0.01,0.02,0,0.02c0.32-0.02,0.64-0.04,0.96-0.06c0.16-0.01,0.32-0.02,0.48-0.03
		s0.32-0.08,0.48-0.12C376.71,156.03,376.69,155.81,376.54,155.82z"/>
	<path class="st1" d="M685.42,131.34c-4.22,2.61-8.34,5.21-12.8,7.41c-4.71,2.33-9.5,4.08-14.51,5.66
		c-5.08,1.6-10.23,2.95-15.43,4.08c-2.62,0.57-5.24,1.09-7.87,1.6c-2.65,0.51-5.66,0.67-8.17,1.69c-0.11,0.05-0.2,0.12-0.28,0.19
		c-2.03,0.42-4.11,0.54-6.2,0.64c-3.05,0.14-6.11,0.22-9.17,0.3c-6.36,0.16-12.75,0.43-19.11,0.18c-6.22-0.25-12.43-0.9-18.46-2.5
		c-2.77-0.73-5.5-1.66-8.13-2.8c-1.24-0.54-2.48-1.1-3.69-1.71c-1.21-0.62-2.36-1.44-3.64-1.89c-0.14-0.05-0.22,0.13-0.13,0.23
		c1.86,2.02,5.02,3.38,7.51,4.44c2.54,1.09,5.16,1.97,7.82,2.69c5.89,1.57,11.98,2.31,18.06,2.66c6.58,0.37,13.18,0.47,19.77,0.46
		c3.27,0,6.55-0.06,9.82-0.19c3.12-0.12,6.23-0.35,9.16-1.51c1.58-0.31,3.15-0.76,4.67-1.08c2.72-0.58,5.44-1.17,8.15-1.81
		c5.47-1.29,10.94-2.69,16.27-4.48c4.69-1.58,9.42-3.56,13.86-5.75c4.46-2.2,9.01-4.88,12.7-8.25
		C685.74,131.47,685.57,131.25,685.42,131.34z"/>
	<path class="st1" d="M686.6,118.19c-4.33-1.35-9.05-1.35-13.54-1.42c-10.44-0.17-20.84,0.67-31.21,1.79
		c-10.41,1.12-20.8,2.56-31.19,3.9c-9.94,1.28-19.91,2.55-29.73,4.58c-5.02,1.04-10.18,2.09-14.94,4.05
		c-1.69,0.7-3.34,1.5-4.89,2.48c-0.5,0.08-0.97,0.3-1.41,0.57c-0.24,0.03-0.47,0.08-0.69,0.16c-0.37,0.13-0.74,0.32-1.08,0.51
		c-0.71,0.41-1.31,0.98-1.82,1.62c-0.52,0.67-0.94,1.37-1.07,2.22c-0.06,0.41-0.07,0.83,0.05,1.23c0.07,0.23,0.24,0.45,0.44,0.64
		c0.01,0.13,0.02,0.25,0.04,0.37c-0.07-0.03-0.14-0.06-0.22-0.06c-3.66-0.14-7.34,0.3-10.99,0.59c-3.73,0.3-7.48,0.38-11.21,0.56
		c-3.63,0.17-7.26,0.34-10.87,0.65c-2.43,0.21-4.91,0.39-7.33,0.83c-0.14-0.1-0.32-0.16-0.55-0.15c-3.53,0.25-7.06,0.52-10.6,0.79
		c-0.13-0.15-0.32-0.25-0.57-0.23c-2.14,0.15-4.26,0.47-6.38,0.79c-5.92,0.48-11.85,0.97-17.77,1.47c-0.43-0.03-0.87-0.02-1.32,0.04
		c-0.07,0.01-0.09,0.05-0.14,0.08c-4.7,0.4-9.4,0.8-14.1,1.19c-1.42,0.12-2.84,0.23-4.26,0.35c-0.04-0.08-0.1-0.15-0.23-0.15
		c-0.9-0.01-1.82,0.02-2.71,0.11c-0.44,0.04-0.89,0.08-1.33,0.13c-0.19,0.02-0.38,0.08-0.57,0.11c-0.27,0.04-0.54,0.06-0.81,0.08
		c-0.11,0.01-0.11,0.13-0.03,0.18c-13.57,1.1-27.15,2.19-40.7,3.48c-4.63,0.44-9.26,0.88-13.89,1.31c-2.43,0.23-4.85,0.45-7.28,0.71
		c-2.23,0.24-4.51,0.26-6.66,0.89c-0.21,0.06-0.14,0.33,0.05,0.35c1.98,0.24,3.96-0.04,5.95-0.16c2.21-0.13,4.41-0.26,6.61-0.42
		c4.19-0.29,8.38-0.58,12.57-0.86c8.4-0.57,16.79-1.29,25.18-1.96c14.88-1.19,29.77-2.33,44.65-3.53c0.37,0.02,0.73,0.04,1.1,0.08
		c2.2,0.23,4.41,0.7,6.55,1.25c0.08,0.02,0.14-0.1,0.06-0.13c-0.67-0.3-1.34-0.55-2.02-0.78c1.2-0.19,2.36-0.63,3.57-0.88
		c0.98-0.2,1.96-0.36,2.95-0.51c7.38-0.59,14.76-1.17,22.13-1.86c0.19-0.02,0.34-0.09,0.48-0.18c2.57-0.28,5.13-0.61,7.72-0.72
		c3.73-0.16,7.47-0.18,11.2-0.32c3.63-0.14,7.25-0.49,10.87-0.79c3.61-0.3,7.29-0.58,10.83-1.37c0.21-0.05,0.33-0.19,0.36-0.36
		c0.03,0.03,0.05,0.06,0.08,0.09c0.12,0.14,0.36,0.06,0.4-0.11c0.05-0.19,0.11-0.33,0.11-0.54c0-0.06,0-0.12,0-0.17
		c0.61,0.55,1.52,0.82,2.28,1.01c1.08,0.28,2.19,0.41,3.29,0.57c0.54,0.08,1.08,0.18,1.61,0.3c0.54,0.12,1.13,0.42,1.69,0.37
		c0.55-0.05,0.83-0.65,0.45-1.08c-0.22-0.24-0.53-0.38-0.86-0.48c0.12-0.12,0.2-0.27,0.16-0.47c-0.35-1.73,2.54-2.66,3.65-3.13
		c1.58-0.68,3.19-1.25,4.82-1.8c3.08-1.04,6.22-1.84,9.4-2.54c6.68-1.48,13.43-2.67,20.18-3.77c13.91-2.27,27.9-3.9,41.95-5.01
		c7.85-0.62,15.72-1.01,23.57-1.66c0.06-0.01,0.11-0.03,0.17-0.04c0.5,0.02,1,0.02,1.51-0.01c1.05-0.07,2.1-0.15,3.16-0.18
		c1.02-0.03,2.04-0.04,3.05-0.06c0.24,0,0.49,0,0.73,0c0.78,0.09,1.56,0.2,2.34,0.33c1.69,0.29,3.36,0.67,5.01,1.15
		c0.43,0.13,1.42,0.27,1.68,0.71c0.19,0.34,0,0.83,0,1.2c0,0.41,0.29,0.77,0.67,0.88c0.89,0.27,1.72-0.35,2-1.18
		c0.29-0.84,0.11-1.77-0.38-2.49c-1.17-1.73-3.83-2.08-5.71-2.48c-2.23-0.48-4.53-0.86-6.81-0.96c-2.23-0.09-4.57-0.11-6.71,0.57
		c-0.19-0.11-0.42-0.2-0.71-0.19c-15.27,0.24-30.61,1.99-45.76,3.86c-7.5,0.93-14.98,2-22.43,3.25c-7.28,1.22-14.64,2.43-21.78,4.35
		c-2.17,0.58-18.53,5.28-14.64,9.48c-0.29-0.03-0.57-0.06-0.82-0.07c-0.92-0.06-1.84-0.03-2.76-0.06c-0.92-0.04-1.87-0.24-2.73-0.56
		c-0.36-0.14-0.89-0.5-1.1-0.93c0.04-0.15,0.09-0.29,0.15-0.43c0.31-0.72,0.82-1.29,1.35-1.85c0.17-0.18,0.36-0.34,0.54-0.51
		c0.81-0.53,1.65-1.02,2.44-1.49c0.33-0.2,0.68-0.35,1.01-0.53c0.06-0.02,0.12-0.05,0.17-0.09c1.36-0.73,2.76-1.38,4.22-1.91
		c3.74-1.35,7.63-2.26,11.52-3.08c9.31-1.98,18.73-3.38,28.16-4.62c18.69-2.46,37.4-5.02,56.26-5.69
		c5.23-0.19,10.49-0.22,15.72,0.06c2.26,0.12,4.52,0.33,6.72,0.86c1.26,0.31,6.92,1.86,6.08,3.92c-0.07,0.18-0.08,0.35-0.05,0.51
		c-0.19,0.38-0.39,0.75-0.63,1.1c-0.23,0.35-0.5,0.68-0.7,1.04c-0.21,0.38-0.47,0.71-0.75,1.03c-0.14,0.16,0.04,0.43,0.24,0.31
		c0.38-0.23,0.75-0.48,1.12-0.73c0.2-0.13,0.38-0.27,0.53-0.45c0.16-0.19,0.32-0.39,0.47-0.59c0.21-0.27,0.38-0.56,0.56-0.86
		c0.49,0.15,1.05,0.05,1.31-0.49C694.89,121.37,689.41,119.07,686.6,118.19z"/>
	
		<linearGradient id="SVGID_1_" gradientUnits="userSpaceOnUse" x1="628.103" y1="665.7889" x2="669.6236" y2="665.7889" gradientTransform="matrix(1 0 0 -1 0 799.8898)">
		<stop  offset="5.787037e-04" style="stop-color:#DCE7EB"/>
		<stop  offset="0.3956" style="stop-color:#D0DDE3;stop-opacity:0.6731"/>
		<stop  offset="0.9673" style="stop-color:#C3D1DB;stop-opacity:0.2"/>
		<stop  offset="1" style="stop-color:#C3D1DB;stop-opacity:0"/>
	</linearGradient>
	<path class="st2" d="M667.99,125.36c0.73-1.07,1.39-2.22,1.61-3.49c0.03-0.19,0.05-0.41-0.06-0.56c-0.09-0.13-0.26-0.19-0.41-0.23
		c-0.82-0.22-1.7-0.11-2.54,0.01c-7.27,0.99-14.47,2.46-21.54,4.39c-2.29,0.62-4.57,1.3-6.76,2.21c-0.63,0.26-1.28,0.57-1.7,1.11
		c-0.08,0.1-0.15,0.22-0.14,0.34c0.01,0.32,0.42,0.43,0.74,0.46c1.53,0.14,3.03,0.55,4.43,1.19c0.21,0.1,0.43,0.22,0.51,0.43
		c0.1,0.28-0.1,0.58-0.29,0.81c-4.06,4.9-10.48,7.77-13.44,13.41c-0.23,0.45-0.44,1.01-0.17,1.44c0.29,0.46,1.01,0.46,1.46,0.16
		c0.46-0.3,0.73-0.8,1.01-1.27c1.44-2.41,3.64-4.32,6.16-5.52c2.71-1.29,5.11-1.19,7.99-1.3c2.81-0.11,5.97-1.37,8.56-2.41
		c2.7-1.09,5.3-2.47,7.66-4.18C663.75,130.44,666.13,128.09,667.99,125.36z"/>
	
		<linearGradient id="SVGID_00000013174879836791966410000006752751593074399887_" gradientUnits="userSpaceOnUse" x1="593.3365" y1="639.9498" x2="603.7251" y2="674.4205" gradientTransform="matrix(1 0 0 -1 0 799.8898)">
		<stop  offset="0" style="stop-color:#DDE8EB;stop-opacity:0.6"/>
		<stop  offset="0.2957" style="stop-color:#EDF3F5;stop-opacity:0.4516"/>
		<stop  offset="0.6631" style="stop-color:#FAFCFC;stop-opacity:0.2673"/>
		<stop  offset="0.9965" style="stop-color:#FFFFFF;stop-opacity:0.1"/>
	</linearGradient>
	<path style="fill:url(#SVGID_00000013174879836791966410000006752751593074399887_);" d="M628.54,139.33
		c-1.22-0.37-3.7-0.01-3.91-1.68c-0.09-0.71,0.28-1.42,0.81-1.9c0.24-0.22,0.55-0.49,0.44-0.8c-0.07-0.21-0.31-0.31-0.52-0.38
		c-2.3-0.78-4.75-1.15-7.18-1.07c-1.81,0.06-3.73,0.34-5.34-0.48c-0.43-0.22-0.85-0.56-0.91-1.04c-0.09-0.72,0.66-1.24,1.31-1.56
		c3.93-1.99,7.92-3.85,11.97-5.59c-0.42-0.43-1.1-0.45-1.7-0.42c-6.39,0.25-12.73,1.19-19.05,2.13c-11.41,1.7-23.06,3.46-33.34,8.7
		c-0.74,0.38-1.5,0.79-1.98,1.47c-0.1,0.15-0.2,0.33-0.17,0.5c0.06,0.33,0.46,0.44,0.79,0.48c1.96,0.26,3.93,0.51,5.89,0.77
		c-0.38,1.09-0.76,2.19-1.13,3.28c3.34-0.46,6.77-0.36,10.06,0.39c3.8,0.87,7.36,2.59,11.13,3.59c5.19,1.37,10.61,1.33,15.91,0.7
		c2.69-0.32,5.36-0.79,8.01-1.3c1.2-0.23,2.62-0.34,3.73-0.83c1.02-0.45,1.86-1.36,2.65-2.13c0.5-0.48,1.05-0.95,1.72-1.13
		c0.67-0.18,1.49,0.03,1.82,0.64c0.15,0.28,0.19,0.61,0.24,0.93c0.19-0.45,0.32-0.93,0.4-1.41c0.03-0.16,0.05-0.32,0.02-0.48
		C630.16,139.98,629.38,139.58,628.54,139.33z"/>
	
		<linearGradient id="SVGID_00000176763008988660879600000010297372674931555229_" gradientUnits="userSpaceOnUse" x1="439.1276" y1="591.3174" x2="427.5006" y2="656.1608" gradientTransform="matrix(1 0 0 -1 0 799.8898)">
		<stop  offset="1.756779e-03" style="stop-color:#000000;stop-opacity:0.6"/>
		<stop  offset="0.2109" style="stop-color:#323638;stop-opacity:0.4743"/>
		<stop  offset="0.4909" style="stop-color:#70787D;stop-opacity:0.306"/>
		<stop  offset="0.7253" style="stop-color:#9DA8B0;stop-opacity:0.1651"/>
		<stop  offset="0.9017" style="stop-color:#B9C6CF;stop-opacity:0.0591"/>
		<stop  offset="1" style="stop-color:#C3D1DB;stop-opacity:0"/>
	</linearGradient>
	<path style="fill:url(#SVGID_00000176763008988660879600000010297372674931555229_);" d="M555.99,138.94
		c-0.26,2.1-0.21,3.79-2.68,4.41c-4.51,1.13-9.38,1.44-14,2.03c-3.1,0.4-6.24,0.77-9.18,1.85c-1.79,0.66-3.48,1.58-5.3,2.19
		c-4.16,1.38-8.54,0.95-12.79,0.38c-3.45-0.46-7.27,0.5-10.79,0.68c-11.87,0.6-23.72,1.44-35.55,2.55
		c-2.81,0.26-5.61,0.53-8.42,0.79c-7.81,0.73-15.62,1.47-23.39,2.55c-4.79,0.67-9.6,1.17-14.41,1.71
		c-4.28,0.48-8.59,1.51-12.83,1.79c-9.11,0.6-18.18-0.99-27.29-0.84c-8.68,0.15-17.25,1.89-25.76,3.63
		c-1.56,0.32-3.12,0.64-4.69,0.96c-53.63,11.02-107.16,22.54-160.58,34.56c-2.57,0.58-5.47,1.11-7.68-0.33
		c-2.21-1.44-2.26-5.69,0.34-6.13c-3.46,0.73-6.63,2.64-9,5.25c-2.45,2.69-4.15,5.48-2.72,9c0.87,2.12,2.34,4.02,4.14,5.44
		c3.26,2.57,6,3.41,10.16,3.05c8.53-0.74,16.84-2.93,24.97-5.53c17.09-5.46,34.69-9.76,52.12-14.19
		c18.08-4.59,36.23-8.88,54.45-12.87c4.28-0.94,8.56-1.86,12.85-2.76c17.98-3.79,36-7.31,54.12-10.41
		c18.12-3.34,36.45-5.79,54.69-8.09c18.67-2.35,37.31-4.85,56.05-6.58c12.02-1.11,23.9-1.73,35.93-1.71c2.68,0,5.34-0.37,8-0.69
		c4.89-0.6,9.8-1.03,14.72-1.32c4.5-0.26,8.43-0.82,12.53,1.54c2.69,1.55,4.98,3.7,7.39,5.65c3.19,2.57,7.27,5.94,11.26,7.13
		c1.59,0.47,3.2,0.55,4.8,1.1c2.43,0.83,4.88,1.65,7.43,2.04c8.35,1.28,16.88,1.14,25.24-0.07c7.72-1.11,15.59-2.72,23.03-5.17
		c18.7-6.16,35.6-17.81,47.94-33.17c1.25-1.56,2.51-3.35,2.4-5.34c-0.1-1.84-1.39-3.45-2.96-4.41c-4.38-2.71-10.18-3.2-15.19-3.15
		c-35.62,0.35-70.93,6.33-105.93,12.95c-2.82,0.53-5.7,1.09-8.23,2.46c-2.53,1.37-4.7,3.71-5.13,6.55
		C556.03,138.59,556.01,138.77,555.99,138.94z"/>
	
		<linearGradient id="SVGID_00000116234032020871807960000007950297609929010615_" gradientUnits="userSpaceOnUse" x1="366.5298" y1="597.4922" x2="358.9853" y2="652.67" gradientTransform="matrix(1 0 0 -1 0 799.8898)">
		<stop  offset="1.756779e-03" style="stop-color:#000000;stop-opacity:0.6"/>
		<stop  offset="0.199" style="stop-color:#363A3D;stop-opacity:0.4814"/>
		<stop  offset="0.4028" style="stop-color:#687075;stop-opacity:0.359"/>
		<stop  offset="0.5921" style="stop-color:#8F9AA1;stop-opacity:0.2452"/>
		<stop  offset="0.7607" style="stop-color:#ACB8C1;stop-opacity:0.1438"/>
		<stop  offset="0.9024" style="stop-color:#BDCAD4;stop-opacity:0.0587"/>
		<stop  offset="1" style="stop-color:#C3D1DB;stop-opacity:0"/>
	</linearGradient>
	<path style="fill:url(#SVGID_00000116234032020871807960000007950297609929010615_);" d="M233.11,191.22
		c-5.19,1.24-10.4,2.43-15.6,3.61c-5.3,1.2-10.6,2.41-15.96,3.29c-2.67,0.44-5.36,0.8-8.05,1.04c-1.09,0.1-2.15,0.22-3.22,0.4
		c-0.8,0.13-2.34-0.06-2.99,0.34c-0.23,0.14-0.33,0.42-0.43,0.67c-0.92,2.34-3.28,4.04-5.79,4.18c-2.44,0.14-7-1.15-7.93-3.7
		c-0.41-1.13-0.37-2.37-0.3-3.58c-0.51-0.19-1.03,0.25-1.4,0.65c-0.76,0.81-1.52,1.64-1.99,2.65c-0.96,2.1-0.4,4.63,0.79,6.61
		c1.36,2.26,3.5,4.7,5.88,5.89c1.61,0.8,3.56,1.15,5.33,1.37c3.58,0.43,7.22,0.06,10.74-0.59c5.92-1.1,11.63-3.18,17.51-4.26
		c6.1-1.12,12.15-2.89,18.2-4.29c23.34-5.43,46.75-10.58,70.22-15.44c23.47-4.87,46.99-9.45,70.57-13.75
		c11.79-2.15,23.59-4.23,35.4-6.24c2.47,0,5.26-0.94,7.69-1.37c4.41-0.79,8.82-1.57,13.24-2.32c7.6-1.3,15.1-2.77,22.73-3.76
		c3.06,0,6.33-0.82,9.37-1.22c3.12-0.41,6.25-0.81,9.37-1.22c6.13-0.79,12.25-1.61,18.38-2.41c24-3.15,48.06-5.93,72.15-8.3
		c-1.76-2.99-5.73-3.69-9.19-3.82c-10.32-0.4-20.57,1.47-30.76,3.17c-4.37,0.73-8.74,1.42-13.12,2.05
		c-23.63,3.4-47.53,3.62-71.35,4.72c-22.23,1.03-44.53,2.06-66.46,5.81c-15.44,2.64-30.61,6.61-45.85,10.23
		c-6.09,1.44-12.18,2.83-18.29,4.18c-11.75,2.59-23.52,5.02-35.31,7.41c-5.59,1.13-11.83,1.68-17.18,3.61
		C244.21,188.7,238.59,189.91,233.11,191.22z"/>
	
		<linearGradient id="SVGID_00000049910032150411104840000017359785297622617225_" gradientUnits="userSpaceOnUse" x1="661.2672" y1="649.86" x2="657.3893" y2="686.7495" gradientTransform="matrix(1 0 0 -1 0 799.8898)">
		<stop  offset="0" style="stop-color:#000000;stop-opacity:0.5"/>
		<stop  offset="0.2095" style="stop-color:#323638;stop-opacity:0.3952"/>
		<stop  offset="0.49" style="stop-color:#70787D;stop-opacity:0.255"/>
		<stop  offset="0.7248" style="stop-color:#9DA8B0;stop-opacity:0.1376"/>
		<stop  offset="0.9016" style="stop-color:#B9C6CF;stop-opacity:0.0492"/>
		<stop  offset="1" style="stop-color:#C3D1DB;stop-opacity:0"/>
	</linearGradient>
	<path style="fill:url(#SVGID_00000049910032150411104840000017359785297622617225_);" d="M636.43,140.64
		c2.69-1.14,5.64-1.44,8.52-1.9c4.85-0.78,9.73-2.1,13.79-4.87c2.75-1.87,5.03-4.34,7.27-6.8c1.74-1.92,3.57-4.14,3.47-6.73
		c4.22-1.44,8.84-0.63,13.22,0.19c1.73,0.33,3.56,0.7,4.87,1.88c0.59,0.53,1.06,1.27,1.03,2.06c-0.05,1.08-0.97,1.88-1.83,2.52
		c-5.47,4.01-11.81,6.64-18.12,9.14c-11.59,4.6-23.37,8.9-35.61,11.29c-2.94,0.57-2.44-1.46-1.17-3.25
		C632.98,142.58,634.65,141.4,636.43,140.64z"/>
	
		<linearGradient id="SVGID_00000067194835670790307010000006477684388955880839_" gradientUnits="userSpaceOnUse" x1="616.8954" y1="645.6224" x2="617.2933" y2="664.2163" gradientTransform="matrix(1 0 0 -1 0 799.8898)">
		<stop  offset="0" style="stop-color:#000000;stop-opacity:0.5"/>
		<stop  offset="0.2095" style="stop-color:#323638;stop-opacity:0.3952"/>
		<stop  offset="0.49" style="stop-color:#70787D;stop-opacity:0.255"/>
		<stop  offset="0.7248" style="stop-color:#9DA8B0;stop-opacity:0.1376"/>
		<stop  offset="0.9016" style="stop-color:#B9C6CF;stop-opacity:0.0492"/>
		<stop  offset="1" style="stop-color:#C3D1DB;stop-opacity:0"/>
	</linearGradient>
	<path style="fill:url(#SVGID_00000067194835670790307010000006477684388955880839_);" d="M629,144.66
		c0.54-0.88,1.06-2.02,0.48-2.86c-1.5-2.19-4.9,1.34-6.18,2.19c-2.41,1.6-5.19,1.95-8.01,2.05c-3.21,0.12-6.45,0.51-9.42,1.72
		c-0.58,0.24-1.19,0.54-1.45,1.11c4.69,0.19,9.39,0.21,14.08,0.07c2.3-0.07,4.61-0.18,6.87-0.61c0.67-0.13,2.46-0.24,2.87-0.87
		c0.17-0.27-0.01-0.98,0.07-1.32C628.42,145.61,628.73,145.11,629,144.66z"/>
	
		<linearGradient id="SVGID_00000099650769658984023000000011041582132936235915_" gradientUnits="userSpaceOnUse" x1="592.9084" y1="641.5347" x2="596.1333" y2="671.9409" gradientTransform="matrix(1 0 0 -1 0 799.8898)">
		<stop  offset="0" style="stop-color:#000000;stop-opacity:0.5"/>
		<stop  offset="0.2095" style="stop-color:#323638;stop-opacity:0.3952"/>
		<stop  offset="0.49" style="stop-color:#70787D;stop-opacity:0.255"/>
		<stop  offset="0.7248" style="stop-color:#9DA8B0;stop-opacity:0.1376"/>
		<stop  offset="0.9016" style="stop-color:#B9C6CF;stop-opacity:0.0492"/>
		<stop  offset="1" style="stop-color:#C3D1DB;stop-opacity:0"/>
	</linearGradient>
	<path style="fill:url(#SVGID_00000099650769658984023000000011041582132936235915_);" d="M608.48,147.11
		c1.58-0.48,3.19-0.89,4.82-1.12c3.93-0.56,8.36-0.24,11.37-2.83c-2.84-0.03-5.67-0.58-8.32-1.61c2.06-1.39,4.29-2.5,6.52-3.6
		c-8.35,1.16-17.05,2.28-25.03-0.42c-0.43-0.15-0.92-0.36-1.04-0.8c-0.09-0.33,0.07-0.68,0.26-0.96c0.66-0.94,1.75-1.45,2.79-1.92
		c2.62-1.17,5.25-2.3,7.91-3.39c-14.11,1.45-28.3,3.58-41.48,8.81c-0.53,0.21-1.09,0.45-1.43,0.91c-1.67,2.25,6.45,4.69,7.82,5.14
		c2.54,0.83,5.08,1.66,7.7,2.16c1.86,0.35,3.74,0.54,5.62,0.71c4.99,0.45,10,0.81,15.01,1.07c1.85,0.1,3.62-0.87,5.33-1.44
		C607.05,147.56,607.76,147.33,608.48,147.11z"/>
	<path class="st9" d="M557.71,143.4c0,0,5.75,7.05,30.83,9.12c0,0,56.3,5.57,95.15-20.19c0,0,13.31-8.13,8.73-10.93"/>
	<g>
		<g>
			<path class="st10" d="M628.67,146.93c-0.45-1.66,1.8-2.79,1.57-4.49c-0.12-0.86-0.87-1.44-1.69-1.58
				c-0.95-0.16-1.85,0.29-2.58,0.87c-1.06,0.84-1.85,1.93-3.08,2.54c-1.12,0.56-2.38,0.79-3.61,0.94c-2.67,0.31-5.37,0.35-8.04,0.77
				c-2.73,0.44-5.4,1.31-7.6,3.03c-0.25,0.2,0.1,0.55,0.35,0.35c4.03-3.15,9.37-3.13,14.23-3.55c2.06-0.18,4.25-0.46,5.94-1.75
				c0.92-0.7,1.61-1.69,2.61-2.3c0.92-0.55,2.67-0.71,2.95,0.67c0.18,0.88-0.59,1.74-1.02,2.43c-0.42,0.67-0.75,1.39-0.53,2.19
				C628.27,147.38,628.75,147.24,628.67,146.93L628.67,146.93z"/>
		</g>
	</g>
	<g>
		<g>
			<path class="st10" d="M630.6,147.43c0.6-3.23,3.38-5.51,6.32-6.64c3.56-1.37,7.45-1.42,11.14-2.27
				c6.43-1.46,12.41-4.84,17.01-9.55c2.56-2.63,5.22-5.88,5.35-9.71c0.01-0.32-0.49-0.32-0.5,0c-0.13,3.63-2.66,6.72-5.07,9.21
				c-2.33,2.41-5.02,4.47-7.94,6.11c-2.96,1.65-6.15,2.86-9.47,3.57c-3.65,0.78-7.51,0.85-11,2.29c-2.96,1.23-5.72,3.57-6.33,6.86
				C630.06,147.61,630.54,147.75,630.6,147.43L630.6,147.43z"/>
		</g>
	</g>
	<g>
		<g>
			<path d="M557.34,148.82c-28.67,2.71-57.3,5.91-85.85,9.71c-26,3.46-51.93,7.41-77.77,11.86c-24.93,4.29-49.79,9.04-74.57,14.12
				c-25.4,5.21-50.72,10.76-76.01,16.48c-13.17,2.98-26.33,6-39.48,9.04c-6.1,1.41-12.29,3.24-18.56,3.66
				c-3.97,0.27-7.97-0.23-11.09-2.91c-1.61-1.38-2.87-3.09-4-4.87c-0.69-1.08-2.41-0.09-1.73,1.01l0,0
				c0.58-0.34,1.15-0.67,1.73-1.01c-0.15-0.24-0.38-1.04-0.41-1.44c-0.12-1.61,0.45-3.12,1.43-4.54c1.98-2.89,5.15-4.92,8.17-6.57
				c6.09-3.34,12.81-5.5,19.49-7.33c6.97-1.91,13.97-3.32,21.06-4.81c11.26-2.37,22.55-4.6,33.86-6.71
				c38.3-7.16,76.86-13.12,115.6-17.26c40.59-4.34,81.22-8.37,121.93-11.36c20.76-1.53,41.58-3.14,62.4-3.72
				c0.5-0.01,0.99-0.03,1.49-0.02c1.29,0.03,1.29-1.97,0-2c-5.24-0.13-10.57,0.39-15.8,0.66c-12.58,0.66-25.15,1.45-37.71,2.33
				c-18.32,1.28-36.63,2.74-54.93,4.37c-21.8,1.95-43.54,4.42-65.33,6.51c-40.36,3.87-80.51,9.85-120.39,17.12
				c-12.73,2.32-25.43,4.78-38.09,7.41c-3.26,0.68-6.51,1.36-9.77,2.07c-0.77,0.17-1.6,0.27-2.35,0.51
				c-0.13,0.04-0.27,0.05-0.4,0.08c1.3-0.32-0.66,0.14-0.78,0.16c-1.43,0.29-2.85,0.62-4.27,0.95c-7.84,1.83-15.69,4.03-23.05,7.34
				c-3.96,1.78-7.99,3.95-11.06,7.09c-2.34,2.39-4.48,6.09-3.12,9.51c0.09,0.22,0.17,0.46,0.3,0.66c0.7,1.07,2.41,0.09,1.73-1.01
				l0,0c-0.58,0.34-1.15,0.67-1.73,1.01c2.05,3.22,4.58,6.2,8.19,7.68c3.92,1.61,8.31,1.28,12.4,0.66
				c6.53-0.98,12.96-2.76,19.38-4.24c6.78-1.57,13.57-3.13,20.35-4.68c25.85-5.91,51.72-11.68,77.67-17.12
				c25.06-5.26,50.18-10.2,75.39-14.69c26.03-4.64,52.14-8.79,78.33-12.43c28.61-3.98,57.31-7.34,86.05-10.18
				c3.77-0.37,7.54-0.74,11.31-1.09C558.61,150.7,558.62,148.7,557.34,148.82L557.34,148.82z"/>
		</g>
	</g>
	<g>
		<g>
			<path class="st11" d="M174.38,194.8c-1.5,1.36-3.53,3.6-3.97,5.65c-0.43,2,1.11,4,2.43,5.32c3.72,3.74,8.66,4.03,13.62,3.32
				c6.48-0.92,12.76-3.12,19.04-4.88c6.54-1.83,13.1-3.6,19.67-5.32c26.47-6.91,53.18-12.92,80.01-18.26
				c26.96-5.37,54.06-10.05,81.23-14.21c27.45-4.2,54.98-7.86,82.55-11.09c13.74-1.61,27.5-3.11,41.26-4.52
				c13.38-1.37,26.89-3.21,40.35-3.49c1.33-0.03,4.28-0.53,5.22,0.57c0.58,0.69,0.6,1.42,1.36,2.09c0.24,0.21,0.59-0.14,0.35-0.35
				c-1.34-1.19-0.96-2.5-2.89-2.76c-3.11-0.42-6.54-0.02-9.65,0.19c-6.63,0.45-13.25,1.12-19.87,1.76
				c-13.37,1.3-26.74,2.68-40.09,4.17c-26.55,2.95-53.06,6.28-79.5,10.08c-26.42,3.8-52.77,8.07-79.02,12.94
				c-26.51,4.92-52.91,10.45-79.12,16.77c-12.84,3.1-25.64,6.4-38.37,9.92c-6.26,1.73-12.49,3.79-18.84,5.19
				c-6.18,1.36-13.27,2.13-17.73-3.32c-1.35-1.65-1.98-3.3-0.96-5.3c0.78-1.54,1.99-2.97,3.26-4.13
				C174.97,194.94,174.62,194.58,174.38,194.8L174.38,194.8z"/>
		</g>
	</g>
	<g>
		<g>
			<path d="M693.28,128.4c0.76-1.26,1.56-2.58,1.7-4.08c0.16-1.69-0.76-3.12-2.05-4.13c-1.3-1.01-2.9-1.61-4.44-2.14
				c-2.6-0.91-5.3-1.43-8.03-1.77c-10.88-1.35-21.92-0.05-32.79,0.7c-7.56,0.52-15.09,1.35-22.6,2.29
				c-7.39,0.92-14.78,1.83-22.14,2.93c-7.46,1.12-14.91,2.38-22.31,3.87c-2.98,0.6-5.97,1.17-8.92,1.93
				c-3.97,1.01-8.01,2.23-11.62,4.21c-2.71,1.48-5.9,3.9-5.75,7.35c0.04,0.84,0.27,1.61,0.6,2.38c0.22,0.5,0.94,0.6,1.37,0.36
				c0.51-0.29,0.57-0.88,0.36-1.37c-0.23-0.52-0.35-1.15-0.33-1.73c0.02-0.44,0.2-1.09,0.43-1.52c0.64-1.2,1.79-2.17,2.98-2.95
				c3.2-2.08,6.95-3.29,10.6-4.31c3.17-0.88,6.39-1.57,9.62-2.19c6.07-1.18,12.15-2.32,18.26-3.3c7.21-1.15,14.45-2.1,21.69-3.02
				c7.11-0.9,14.23-1.8,21.37-2.43c7.1-0.63,14.22-1.23,21.35-1.55c4.74-0.21,9.51-0.3,14.25,0.01c3.02,0.2,5.74,0.53,8.7,1.31
				c1.08,0.28,2.15,0.63,3.2,1.02c0.22,0.08,0.44,0.17,0.66,0.26c0.12,0.05,0.24,0.1,0.35,0.14c0.05,0.02,0.11,0.04,0.16,0.07
				c-0.34-0.15,0.26,0.12,0.22,0.1c1.23,0.56,2.79,1.54,2.84,3.05c0.04,1.26-0.82,2.48-1.45,3.51
				C690.89,128.49,692.61,129.5,693.28,128.4L693.28,128.4z"/>
		</g>
	</g>
	<path class="st12" d="M688.97,124.53c-0.78,4.55-37.49,21.91-70.26,24.27c-32.77,2.37-56.36-5.08-55.58-9.63s16.1-8.66,48.58-13.64
		C677.81,115.39,689.76,119.98,688.97,124.53z"/>
	<g>
		<g>
			<path d="M556.95,150.8c1.62,0.03,3.33,0.21,4.76,1c2.37,1.32,4.17,3.4,6.24,5.13c4.16,3.49,8.85,6.36,13.9,8.38
				c9.32,3.73,19.64,4.69,29.59,4.27c10.1-0.43,20.21-2.28,29.82-5.45c9.53-3.14,18.87-7.32,27.35-12.71
				c8.46-5.38,15.99-12.1,22.27-19.91c0.82-1.02,1.63-2.06,2.41-3.11c0.33-0.44,0.07-1.11-0.36-1.37c-0.51-0.3-1.05-0.07-1.37,0.36
				c-5.95,7.98-13.15,14.98-21.37,20.6c-8.25,5.63-17.37,9.88-26.75,13.28c-9.31,3.37-19.15,5.44-29.03,6.14
				c-9.87,0.71-20.05,0.11-29.48-3.08c-4.85-1.64-9.34-4.1-13.45-7.14c-2.25-1.67-4.18-3.68-6.35-5.44
				c-1.04-0.84-2.15-1.63-3.39-2.15c-0.97-0.4-2.02-0.56-3.05-0.67c-0.58-0.07-1.16-0.11-1.73-0.12
				C555.66,148.78,555.66,150.78,556.95,150.8L556.95,150.8z"/>
		</g>
	</g>
	<path class="st13" d="M173.42,195.38c0,0-0.16,3.32-1.42,4.02c0,0,2.01,0.81,2.17,2.97c0,0,0.04-2.65,1.5-3.11
		C175.67,199.26,173.99,198.7,173.42,195.38z"/>
	<path class="st13" d="M683.72,124.88c0,0-0.12,2.86-1.06,3.47c0,0,1.5,0.7,1.62,2.56c0,0,0.03-2.29,1.12-2.68
		C685.41,128.22,684.15,127.74,683.72,124.88z"/>
	<path class="st13" d="M630.22,158.46c0,0,1.19-6.17,4.03-7.13c0,0-4.02-2.11-3.81-6.19c0,0-0.78,4.97-3.97,5.4
		C626.47,150.54,629.87,152.08,630.22,158.46z"/>
	<path class="st13" d="M668.4,121.83c0,0,0.46-2.19,1.77-2.49c0,0-1.91-0.82-1.87-2.27c0,0-0.29,1.77-1.77,1.87
		C666.53,118.93,668.14,119.53,668.4,121.83z"/>
	<path class="st13" d="M526.76,146.16c0,0,0.41-1.84,1.71-2.07c0,0-1.92-0.73-1.92-1.96c0,0-0.25,1.48-1.73,1.54
		C524.83,143.68,526.44,144.22,526.76,146.16z"/>
	<path class="st14" d="M245.16,222.51c0.38-0.17,0.75-0.34,1.12-0.51c5.24-2.47,10.08-5.81,14.24-9.84c2.04-1.97,3.76-4.2,5.66-6.29
		c2.1-2.31,4.32-4.69,5.87-7.42c1.05-1.86,2.52-3.47,3.33-5.44c0.8-1.95,0.91-4.03,0.72-6.12c-0.22-2.37-0.74-4.72-0.68-7.11
		c0.03-1.28,0.22-2.54,0.37-3.81c0.28-2.33,0.41-4.68,0.39-7.03c-0.01-0.97-0.11-2.29-0.83-3.04c-0.6-0.63-1.72-0.9-2.49-1.24
		l-3.86,1.63c-0.46,0.57-1.03,1.02-1.48,1.58c-1.44,1.76-1.85,3.96-2.78,5.97c-0.09,0.2-0.2,0.4-0.39,0.49
		c-0.34,0.16-0.71-0.11-0.98-0.36c-0.81-0.72-1.64-1.42-2.5-2.07c-0.75-0.57-1.39-1.22-2.13-1.79c-1.62-1.25-3.4-2.29-5.28-3.1
		c-0.85-0.37-1.75-0.69-2.68-0.67c-1.18,0.03-2.26,0.61-3.39,0.96c-4.42,1.41-9.48-0.61-13.78,1.16c-2.2,0.9-3.99,2.73-6.32,3.24
		c-0.83,0.18-1.7,0.18-2.53,0.4c-1.13,0.3-2.11,0.98-3.07,1.66c-1.08,0.76-2.18,1.54-2.93,2.62c-0.67,0.97-0.97,2.12-0.72,3.27
		c0.03,0.15,0.03,0.58,0.1,0.69c0.15,0.27,0.55,0.23,0.88,0.23c0.66,0,1.32-0.13,1.93-0.39c0.38-0.16,0.77-0.38,1.18-0.33
		c0.33,0.04,0.63,0.24,0.89,0.45c1.51,1.2,2.62,2.82,3.93,4.24s2.95,2.7,4.87,2.88c2.02,0.19,3.9-2.08,3.81-4.04
		c-0.01-0.31-0.01-0.72,0.29-0.81c0.11-0.03,0.22,0,0.32,0.03c1.09,0.35,1.71,1.47,2.44,2.36c0.67,0.82,1.51,1.51,2.51,1.85
		c1,0.34,2.15,0.29,3.05-0.26c0.99-0.61,1.58-1.82,1.43-2.98c-0.06-0.45-0.17-0.99,0.18-1.27c0.31-0.24,0.77-0.08,1.08,0.16
		c0.67,0.51,1.05,1.3,1.51,2.02c0.45,0.71,1.07,1.42,1.9,1.56c0.4,0.07,0.8,0,1.2-0.07c0.9-0.15,1.84-0.32,2.6-0.83
		c1.29-0.85,1.82-2.55,1.66-4.08c-0.03-0.25-0.06-0.51,0.03-0.74c0.18-0.44,0.74-0.58,1.22-0.56c0.94,0.05,1.81,0.47,2.7,0.76
		c0.89,0.3,1.91,0.46,2.73,0.01c0.55-0.3,1.04-0.87,1.67-0.81c1.04,0.11,0.78,1.58,0.83,2.29c0.02,0.28,0.03,0.57-0.06,0.83
		c-0.13,0.39-0.45,0.68-0.75,0.96c-4.63,4.27-7.91,9.81-9.28,15.98c-9.84,3.08-20.29,3.82-30.11,6.95c-0.25,0.08-0.54,0.2-0.6,0.46
		c-0.03,0.16,0.04,0.32,0.11,0.46c0.72,1.53,1.43,3.06,2.15,4.59c0.93,1.99,1.89,4.01,3.29,5.73c0.51,0.63,0.88,1.42,1.48,1.95
		c0.77,0.67,1.79,1.01,2.53,1.72c0.76,0.74,1.66,1.35,2.52,1.97c1.78,1.3,3.73,0.9,5.7,0.18
		C243.04,223.41,244.11,222.98,245.16,222.51z"/>
	
		<linearGradient id="SVGID_00000097481120734047189950000001353840610014259388_" gradientUnits="userSpaceOnUse" x1="226.3624" y1="611.1941" x2="224.9342" y2="621.6399" gradientTransform="matrix(1 0 0 -1 0 799.8898)">
		<stop  offset="0" style="stop-color:#000000;stop-opacity:0.3"/>
		<stop  offset="0.024" style="stop-color:#131210;stop-opacity:0.2928"/>
		<stop  offset="0.0919" style="stop-color:#433F38;stop-opacity:0.2724"/>
		<stop  offset="0.1655" style="stop-color:#6F685C;stop-opacity:0.2504"/>
		<stop  offset="0.243" style="stop-color:#958B7C;stop-opacity:0.2271"/>
		<stop  offset="0.3256" style="stop-color:#B5A996;stop-opacity:0.2023"/>
		<stop  offset="0.4146" style="stop-color:#CEC1AC;stop-opacity:0.1756"/>
		<stop  offset="0.5126" style="stop-color:#E2D4BC;stop-opacity:0.1462"/>
		<stop  offset="0.6245" style="stop-color:#F0E1C8;stop-opacity:0.1127"/>
		<stop  offset="0.7618" style="stop-color:#F9E9CF;stop-opacity:0.0714"/>
		<stop  offset="1" style="stop-color:#FBEBD1;stop-opacity:0"/>
	</linearGradient>
	<path style="fill:url(#SVGID_00000097481120734047189950000001353840610014259388_);" d="M231.28,186.58
		c-0.34-0.17-0.67-0.37-0.97-0.61c-1-0.81-1.52-2.06-2.19-3.17c-0.82-1.38-1.96-2.61-3.36-3.41c-0.61-0.35-1.46-0.8-2.18-0.8
		c-0.79,0-1.67,0.52-2.39,0.82c-0.39,0.17-0.76,0.39-0.89,0.83c-0.05,0.19,0.06,0.37,0.24,0.43c0.02,0.01,0.04,0.01,0.07,0.01
		c0.11,0.01,0.19-0.04,0.27-0.1c0.25-0.17,0.28-0.29,0.59-0.39c0.6-0.19,1.28-0.27,1.9-0.13c1.09,0.25,1.93,1.32,2.65,2.1
		c0.82,0.89,1.51,1.87,2.21,2.86c0.68,0.97,1.38,1.94,2.41,2.57c0.59,0.36,1.47,0.65,2.12,0.27c0.28-0.16,0.45-0.56,0.26-0.82
		c-0.09-0.13-0.24-0.2-0.38-0.27C231.54,186.71,231.41,186.65,231.28,186.58z"/>
	
		<linearGradient id="SVGID_00000132800978111900611100000004855145638796509375_" gradientUnits="userSpaceOnUse" x1="237.4198" y1="612.0721" x2="235.5851" y2="625.4917" gradientTransform="matrix(1 0 0 -1 0 799.8898)">
		<stop  offset="0" style="stop-color:#000000;stop-opacity:0.3"/>
		<stop  offset="0.024" style="stop-color:#131210;stop-opacity:0.2928"/>
		<stop  offset="0.0919" style="stop-color:#433F38;stop-opacity:0.2724"/>
		<stop  offset="0.1655" style="stop-color:#6F685C;stop-opacity:0.2504"/>
		<stop  offset="0.243" style="stop-color:#958B7C;stop-opacity:0.2271"/>
		<stop  offset="0.3256" style="stop-color:#B5A996;stop-opacity:0.2023"/>
		<stop  offset="0.4146" style="stop-color:#CEC1AC;stop-opacity:0.1756"/>
		<stop  offset="0.5126" style="stop-color:#E2D4BC;stop-opacity:0.1462"/>
		<stop  offset="0.6245" style="stop-color:#F0E1C8;stop-opacity:0.1127"/>
		<stop  offset="0.7618" style="stop-color:#F9E9CF;stop-opacity:0.0714"/>
		<stop  offset="1" style="stop-color:#FBEBD1;stop-opacity:0"/>
	</linearGradient>
	<path style="fill:url(#SVGID_00000132800978111900611100000004855145638796509375_);" d="M243,186.97
		c0.06-0.02,0.11-0.05,0.17-0.08c0.12-0.06,0.24-0.17,0.21-0.3c-0.03-0.14-0.2-0.18-0.34-0.2c-0.82-0.15-1.55-0.63-2.13-1.23
		c-1.46-1.5-2.38-3.52-3.6-5.21c-0.9-1.24-1.84-2.45-3.08-3.37c-1.16-0.86-2.82-1.59-4.29-1.41c-0.34,0.04-0.45,0.42-0.17,0.63
		c0.66,0.48,1.45,0.66,2.17,1.03c0.69,0.35,1.28,0.81,1.82,1.36c1.11,1.15,2.02,2.5,2.86,3.86c0.43,0.7,0.84,1.41,1.21,2.15
		c0.33,0.66,0.48,1.52,0.99,2.07c0.54,0.59,1.37,0.76,2.13,0.86C241.64,187.19,242.37,187.24,243,186.97z"/>
	
		<linearGradient id="SVGID_00000091695273859457885560000007075482830846373546_" gradientUnits="userSpaceOnUse" x1="247.6529" y1="613.4723" x2="245.5659" y2="628.7358" gradientTransform="matrix(1 0 0 -1 0 799.8898)">
		<stop  offset="0" style="stop-color:#000000;stop-opacity:0.3"/>
		<stop  offset="0.024" style="stop-color:#131210;stop-opacity:0.2928"/>
		<stop  offset="0.0919" style="stop-color:#433F38;stop-opacity:0.2724"/>
		<stop  offset="0.1655" style="stop-color:#6F685C;stop-opacity:0.2504"/>
		<stop  offset="0.243" style="stop-color:#958B7C;stop-opacity:0.2271"/>
		<stop  offset="0.3256" style="stop-color:#B5A996;stop-opacity:0.2023"/>
		<stop  offset="0.4146" style="stop-color:#CEC1AC;stop-opacity:0.1756"/>
		<stop  offset="0.5126" style="stop-color:#E2D4BC;stop-opacity:0.1462"/>
		<stop  offset="0.6245" style="stop-color:#F0E1C8;stop-opacity:0.1127"/>
		<stop  offset="0.7618" style="stop-color:#F9E9CF;stop-opacity:0.0714"/>
		<stop  offset="1" style="stop-color:#FBEBD1;stop-opacity:0"/>
	</linearGradient>
	<path style="fill:url(#SVGID_00000091695273859457885560000007075482830846373546_);" d="M251.7,184.08
		c-0.55-0.24-1.04-0.61-1.45-1.04c-1.6-1.67-2.6-3.94-3.89-5.84c-1.58-2.32-3.83-5.1-6.86-5.21c-0.4-0.02-0.46,0.57-0.09,0.68
		c3.11,0.96,4.88,4.31,6.31,6.97c0.77,1.42,1.5,2.87,2.36,4.23c0.42,0.67,0.9,1.4,1.61,1.79c1.32,0.72,3.04-0.03,4.1-0.91
		c0.11-0.09,0.23-0.26,0.12-0.37c-0.06-0.06-0.15-0.05-0.23-0.04c-0.43,0.04-0.86,0.06-1.29-0.02
		C252.17,184.25,251.93,184.18,251.7,184.08z"/>
	
		<linearGradient id="SVGID_00000163785114780223181620000001386817951607505845_" gradientUnits="userSpaceOnUse" x1="258.445" y1="614.8862" x2="261.4139" y2="629.978" gradientTransform="matrix(1 0 0 -1 0 799.8898)">
		<stop  offset="0" style="stop-color:#000000"/>
		<stop  offset="0.0368" style="stop-color:#100F0D;stop-opacity:0.9632"/>
		<stop  offset="0.1913" style="stop-color:#4D4840;stop-opacity:0.8087"/>
		<stop  offset="0.3446" style="stop-color:#827A6C;stop-opacity:0.6554"/>
		<stop  offset="0.493" style="stop-color:#AEA391;stop-opacity:0.507"/>
		<stop  offset="0.6356" style="stop-color:#CFC2AD;stop-opacity:0.3644"/>
		<stop  offset="0.7708" style="stop-color:#E7D9C1;stop-opacity:0.2292"/>
		<stop  offset="0.8955" style="stop-color:#F6E6CD;stop-opacity:0.1045"/>
		<stop  offset="1" style="stop-color:#FBEBD1;stop-opacity:0"/>
	</linearGradient>
	<path style="fill:url(#SVGID_00000163785114780223181620000001386817951607505845_);" d="M263.92,178.86
		c-0.71-0.38-1.58-0.14-2.35-0.15c-0.76-0.01-1.36-0.09-2.08-0.23c-0.69-0.13-1.41-0.23-2.12-0.47c-0.34-0.12-0.68-0.26-1.02-0.38
		c-0.35-0.12-0.72-0.13-1.07-0.26c-0.11-0.04-0.19,0.09-0.14,0.19c0.17,0.33,0.32,0.76,0.58,1.04c0.27,0.3,0.61,0.56,0.94,0.79
		c0.68,0.49,1.53,0.95,2.34,1.17s1.74,0.31,2.58,0.27c0.93-0.05,2.03-0.11,2.62-0.93C264.43,179.57,264.26,179.04,263.92,178.86z"/>
	
		<linearGradient id="SVGID_00000103943766410891219200000016669075108797424268_" gradientUnits="userSpaceOnUse" x1="242.4593" y1="611.7408" x2="275.988" y2="594.2321" gradientTransform="matrix(1 0 0 -1 0 799.8898)">
		<stop  offset="2.335483e-03" style="stop-color:#000000;stop-opacity:0.1"/>
		<stop  offset="0.1304" style="stop-color:#2A2723;stop-opacity:0.0871"/>
		<stop  offset="0.3701" style="stop-color:#736C60;stop-opacity:0.063"/>
		<stop  offset="0.5852" style="stop-color:#AEA391;stop-opacity:0.0413"/>
		<stop  offset="0.7676" style="stop-color:#D8CAB4;stop-opacity:0.023"/>
		<stop  offset="0.9102" style="stop-color:#F1E2C9;stop-opacity:8.597143e-03"/>
		<stop  offset="0.9956" style="stop-color:#FBEBD1;stop-opacity:0"/>
	</linearGradient>
	<path style="fill:url(#SVGID_00000103943766410891219200000016669075108797424268_);" d="M268.45,171.13
		c0.64-2.27,1.71-4.42,3.28-6.17c-1.25,0.46-2.41,1.19-3.37,2.11c-0.83,0.8-1.4,1.94-1.98,2.93c-0.19,0.32-0.34,0.66-0.49,0.99
		c-0.15,0.35-0.45,0.82-0.4,1.2c0.03,0.26,0.24,0.51,0.49,0.58c-0.05,0.34-0.09,0.69-0.13,1.03c-0.1,0.83-0.5,1.38-0.69,2.16
		c-0.52,2.06,0.74,4.34,0,6.36c-0.19,0.51-0.53,0.96-0.89,1.37c-0.75,0.87-1.59,1.65-2.31,2.54c-2.76,3.36-4.89,7.12-6.23,11.29
		c-0.19,0.6-0.38,1.22-0.79,1.7c-0.59,0.67-1.51,0.91-2.38,1.12c-3.35,0.8-6.71,1.6-10.06,2.4c-3.77,0.9-7.54,1.8-11.38,2.33
		c-2.01,0.28-4.06,0.45-5.97,1.16c-0.2,0.07-0.41,0.16-0.55,0.32c-0.21,0.25-0.22,0.61-0.18,0.93c0.13,1.11,0.64,2.14,1.14,3.14
		c1.48,2.91,2.89,6.29,5.13,8.71c1.25,1.35,2.88,2.29,4.48,3.21c0.68,0.39,1.28,0.96,1.98,1.31c0.67,0.33,1.45,0.43,2.18,0.55
		c0.21,0.03,0.45,0.06,0.63-0.06c0.13-0.09,0.2-0.23,0.26-0.37c0.25-0.55,0.51-1.1,0.76-1.65c0.58-1.26,1.23-2.02,2.19-2.95
		c1.07-1.02,1.9-2.48,2.78-3.66c-1.36,0.26-2.66,0.64-3.97,1.04c-0.37,0.11-4.4,0.6-4.36,0.47c0.31-1.06,0-2.27-0.77-3.05
		c-0.67-0.68-1.6-1.02-2.49-1.36c-1.14-0.45-5.78-2.23-3.38-3.8c1.49-0.98,3.28-1.37,5.01-1.77c5.96-1.36,11.87-2.92,17.74-4.62
		c1.33-0.39,2.77-0.86,3.54-2c0.44-0.65,0.6-1.44,0.77-2.21c0.33-1.52,0.74-3.09,1.7-4.32c0.67-0.85,1.55-1.49,2.26-2.3
		c0.78-0.89,1.19-2.01,1.46-3.16c0.15-0.64,0.24-1.3,0.53-1.89c0.42-0.88,1.2-1.53,1.95-2.14c0.37-0.3,0.74-0.6,1.17-0.8
		c0.69-0.32,1.48-0.34,2.23-0.46c0.75-0.12,1.55-0.4,1.96-1.03c-1.04,0.19-2.28,0.31-2.98-0.47c-0.43-0.49-0.51-1.18-0.56-1.84
		c-0.19-2.65-0.13-5.35,0.46-7.94C268.29,171.73,268.37,171.43,268.45,171.13z"/>
	
		<linearGradient id="SVGID_00000098900931793287609360000009660252359418391448_" gradientUnits="userSpaceOnUse" x1="234.0729" y1="621.5126" x2="232.7358" y2="631.2915" gradientTransform="matrix(1 0 0 -1 0 799.8898)">
		<stop  offset="0" style="stop-color:#000000;stop-opacity:0.3"/>
		<stop  offset="1" style="stop-color:#FBEBD1;stop-opacity:0"/>
	</linearGradient>
	<path style="fill:url(#SVGID_00000098900931793287609360000009660252359418391448_);" d="M244.09,169
		c1.67-0.01,3.43-0.42,4.56-1.64c-1.17,0.64-2.56,0.78-3.89,0.74c-1.34-0.05-2.66-0.28-3.99-0.34c-3.29-0.15-6.62,0.75-9.39,2.54
		c-0.47,0.31-0.93,0.64-1.44,0.9c-1.88,0.96-4.15,0.75-6.13,1.48c-1.04,0.38-1.96,1.01-2.85,1.67c-1.72,1.27-3.44,3.52-2.66,5.8
		c0.04,0.11,0.09,0.23,0.19,0.29c0.14,0.09,0.33,0.03,0.44-0.08s0.17-0.27,0.21-0.43c0.12-0.47,0.14-0.96,0.28-1.42
		c0.18-0.6,0.56-1.15,1.06-1.52c0.54-0.41,1.21-0.62,1.72-1.07c0.21-0.19,0.3-0.49,0.49-0.65c0.19-0.17,0.5-0.17,0.73-0.25
		c0.26-0.08,0.51-0.17,0.77-0.25c0.51-0.17,1.02-0.34,1.54-0.5c0.71-0.23,1.1-0.6,1.9-0.31c0.42,0.15,0.82,0.38,1.25,0.49
		c0.44,0.11,0.95,0.06,1.25-0.27c-0.27-0.19-0.58-0.47-0.49-0.78c0.03-0.1,0.09-0.18,0.16-0.26c0.43-0.51,1.06-0.83,1.64-1.14
		c1.21-0.64,2.31-1.16,3.68-1.39c0.25-0.04,0.52-0.07,0.74,0.05c0.22,0.12,0.34,0.46,0.16,0.63c0.14-0.2,0.35-0.33,0.51-0.52
		c0.16-0.18,0.25-0.47,0.11-0.67c-0.07-0.1-0.18-0.15-0.26-0.24c-0.17-0.21-0.09-0.55,0.12-0.73c0.21-0.18,0.49-0.23,0.76-0.24
		c0.53-0.03,1.01-0.18,1.54-0.2c1.71-0.04,3.42,0.31,5.13,0.32C243.98,169,244.03,169,244.09,169z"/>
	<g>
		<g>
			<path d="M266.48,182.14c-0.17-0.64-0.27-1.3-0.42-1.95c-0.04-0.19-0.1-0.4-0.17-0.58c-0.01-0.03-0.02-0.05-0.02-0.08
				c-0.03-0.21-0.05-0.21-0.06,0.01c-0.06,0.22-0.03,0.23,0.09,0.03c0.08-0.09,0.15-0.18,0.21-0.28c0.67-1.05,0.54-2.29,0.06-3.38
				c-0.25-0.58-0.32-0.98-0.18-1.6c0.15-0.68,0.42-1.34,0.66-2c0.44-1.16,0.92-2.31,1.56-3.39c0.99-1.67,2.53-3.33,4.63-3.28
				c0.8,0.02,1.65,0.31,2.17,0.94c0.7,0.85,0.58,2.04,0.37,3.04c-0.24,1.13-0.6,2.23-0.78,3.38c-0.16,1.08-0.23,2.17-0.22,3.27
				c0.02,2.28,0.32,4.55,0.56,6.82c0.23,2.22,0.44,4.48,0.23,6.71c-0.22,2.32-1.15,4.28-2.4,6.22c-1.59,2.48-3.52,4.7-5.45,6.92
				c-0.85,0.98-1.7,1.92-2.7,2.75c-0.91,0.76-1.83,1.71-1.76,2.99c0.07,1.28,2.07,1.29,2,0c-0.05-0.9,1.23-1.58,1.81-2.11
				c0.97-0.87,1.78-1.9,2.64-2.88c1.88-2.13,3.71-4.36,5.24-6.76c1.39-2.18,2.32-4.37,2.59-6.95c0.25-2.39,0.01-4.81-0.24-7.2
				c-0.26-2.42-0.58-4.85-0.52-7.29c0.03-1.14,0.15-2.25,0.43-3.36c0.32-1.28,0.74-2.58,0.73-3.92c-0.02-2.53-1.85-4.29-4.29-4.56
				c-2.37-0.26-4.46,1.13-5.86,2.92c-0.9,1.15-1.55,2.44-2.11,3.78c-0.59,1.42-1.34,2.99-1.38,4.55c-0.02,0.8,0.36,1.39,0.6,2.11
				c0.23,0.68-0.02,1.03-0.38,1.57c-0.38,0.55-0.25,1.15-0.07,1.75c0.23,0.75,0.32,1.53,0.52,2.29
				C264.88,183.91,266.81,183.38,266.48,182.14L266.48,182.14z"/>
		</g>
	</g>
	<g>
		<g>
			<path d="M232.7,178.82c1.44,1.63,2.52,3.45,3.53,5.36c1.12,2.11,2.84,4.25,5.45,4.28c1.28,0.01,2.65-0.37,3.63-1.21
				c0.88-0.75,1.36-1.89,1.5-3.02c0.27-2.16-0.51-4.61-1.45-6.55c-0.96-1.99-2.55-3.51-4.44-4.62c-1.11-0.65-2.12,1.08-1.01,1.73
				c1.35,0.79,2.52,1.79,3.33,3.15c0.83,1.4,1.38,3.13,1.58,4.74c0.12,0.94,0.05,2.03-0.57,2.8c-0.6,0.75-1.76,1.02-2.69,0.97
				c-2.06-0.11-3.15-2.39-3.96-3.97c-0.94-1.83-2.13-3.54-3.49-5.09C233.26,176.44,231.85,177.86,232.7,178.82L232.7,178.82z"/>
		</g>
	</g>
	<path class="st21" d="M219.92,180.07c-0.4,0.16-0.8,0.31-1.21,0.44c-0.11,0.04-0.23,0.07-0.35,0.06c-0.23-0.02-0.41-0.23-0.48-0.45
		c-0.46-1.52,0.85-3.85,2.02-4.72c0.37-0.27,0.77-0.49,1.12-0.77c0.46-0.37,0.83-0.84,1.28-1.22c2.08-1.76,5.29-1.2,7.73-2.43
		c0.98-0.49,1.79-1.25,2.72-1.84c3.14-2,7.15-1.81,10.85-1.36c0.79,0.1,1.61,0.2,2.39,0.03c0.65-0.15,1.24-0.48,1.85-0.75
		c1.94-0.86,4.22-1.06,6.19-0.26c1.11,0.45,2.07,1.19,3.01,1.94c2.66,2.12,5.82,4.26,7.78,7.09c0.4,0.58,0.81,1.21,0.77,1.91
		c-0.04,0.65-0.46,1.21-0.9,1.7c-0.5,0.57-1.06,1.11-1.75,1.42c-1.33,0.59-2.88,0.21-4.23-0.32c-1-0.39-1.62-0.66-2.54-1.21"/>
	<g>
		<g>
			<path d="M265.01,181.54c-1.4,0.83-2.53,2.05-3.52,3.33c-0.98,1.26-1.85,2.6-2.59,4.01c-1.21,2.32-2.63,4.53-3.67,6.94
				c-0.53,1.22-1.12,2.62-1,3.98c0.24-0.32,0.49-0.64,0.73-0.96c-3.56,0.82-7.12,1.65-10.68,2.47c-5.65,1.31-11.3,2.62-16.95,3.93
				c-1.3,0.3-2.6,0.6-3.9,0.9c-0.48,0.11-0.9,0.74-0.7,1.23c0.72,1.77,1.5,3.52,2.44,5.18c0.94,1.67,1.97,3.3,2.96,4.95
				c1.1,1.83,2.37,3.36,4.07,4.66c1.34,1.03,2.82,1.87,4.37,2.55c0.88,0.38,1.79,0.79,2.72,1.01c1.25,0.3,1.78-1.62,0.53-1.93
				c-2.05-0.5-4.08-1.59-5.8-2.77c-1.59-1.09-2.88-2.42-3.89-4.07c-0.97-1.59-1.94-3.17-2.88-4.78c-1-1.72-1.85-3.5-2.6-5.34
				c-0.23,0.41-0.47,0.82-0.7,1.23c3.56-0.82,7.12-1.65,10.68-2.47c5.65-1.31,11.3-2.62,16.95-3.93c1.3-0.3,2.6-0.6,3.9-0.9
				c0.39-0.09,0.77-0.54,0.73-0.96c-0.11-1.25,0.56-2.66,1.13-3.85c0.72-1.53,1.57-3,2.4-4.47c0.77-1.36,1.46-2.75,2.33-4.05
				c1.05-1.55,2.29-3.19,3.93-4.16C267.13,182.61,266.12,180.88,265.01,181.54L265.01,181.54z"/>
		</g>
	</g>
	<path class="st22" d="M220.33,180.04c0.22-0.46,0.78-0.67,1.28-0.59c0.5,0.07,0.94,0.37,1.32,0.7c1.54,1.35,2.4,3.32,3.78,4.84
		c0.96,1.06,2.21,1.9,3.6,2.22c2.3,0.53,4.99-0.54,5.31-3.1c0.11-0.9-0.07-1.81-0.37-2.66c-0.86-2.43-1.88-3.91-4.23-4.96"/>
	<path class="st22" d="M250.23,171.63c1.73,1,3.39,2.24,4.3,4.02c0.6,1.18,1.34,2.41,1.41,3.74c0.06,1.06,0.24,1.98-0.01,3.04
		c-0.4,1.7-1.7,3.25-3.42,3.72c-0.84,0.23-1.76,0.18-2.58-0.13c-0.53-0.2-0.98-0.52-1.31-0.98c-0.15-0.2-0.32-0.37-0.43-0.6
		c-0.16-0.31-0.3-0.63-0.47-0.94c-0.77-1.43-1.85-4.33-6.1-8.74"/>
</g>
</svg>
