<?xml version="1.0" encoding="utf-8"?>
<!-- Generator: Adobe Illustrator 28.0.0, SVG Export Plug-In . SVG Version: 6.00 Build 0)  -->
<svg version="1.1" id="Layer_1" xmlns="http://www.w3.org/2000/svg" xmlns:xlink="http://www.w3.org/1999/xlink" x="0px" y="0px"
	 viewBox="0 0 800 800" style="enable-background:new 0 0 800 800;" xml:space="preserve">
<style type="text/css">
	.st0{fill:#842E9F;}
	.st1{fill:#FFFFFF;}
	.st2{fill:url(#SVGID_1_);}
	.st3{fill:url(#SVGID_00000097498169274083317640000011329803825493494463_);}
	.st4{fill:url(#SVGID_00000177482577207909407880000008123477635268624007_);}
	.st5{fill:url(#SVGID_00000114075938832982752040000013273404756114496659_);}
	.st6{fill:url(#SVGID_00000089532431108340081650000005337122763566791865_);}
	.st7{fill:url(#SVGID_00000041978384948903780170000015825646202967258556_);}
	.st8{fill:url(#SVGID_00000062910219426454854390000018422635781807460788_);}
	.st9{fill:url(#SVGID_00000096056025497661262080000016807331777990385552_);}
	.st10{fill:url(#SVGID_00000087413722470641650170000008458160671367909037_);}
	.st11{fill:url(#SVGID_00000013186709906030383640000008981810184233526947_);}
	.st12{fill:url(#SVGID_00000105410950232942273760000014881672610247853481_);}
	.st13{fill:url(#SVGID_00000129893319710602886830000004957204896684950187_);}
	.st14{fill:url(#SVGID_00000157992153855591483390000009533072297621029008_);}
	.st15{fill:url(#SVGID_00000163753862570023420540000007877825632319754686_);}
	.st16{fill:none;stroke:#000000;stroke-width:2;stroke-linecap:round;stroke-linejoin:round;stroke-miterlimit:10;}
	.st17{fill:none;stroke:#000000;stroke-linecap:round;stroke-linejoin:round;stroke-miterlimit:10;}
	.st18{fill:#FBC929;}
	.st19{fill:#1C1C21;}
	.st20{fill:url(#SVGID_00000071541734706754448380000015195590852473459630_);}
	.st21{fill:url(#SVGID_00000108278384388344699370000014101993271216068768_);}
	.st22{fill:url(#SVGID_00000070822335504953820210000013737047301554041242_);}
	.st23{fill:url(#SVGID_00000106862639623973850630000013676203602725803943_);}
	.st24{fill:#B66611;}
	.st25{fill:#F3FCEC;}
</style>
<g id="_x35_-FACE_x2B_HOOD__x5B_WIZARD_x5D___x2B__Glasses_x2B_">
	<path class="st0" d="M502.26,158.02c-1.07-1.65-2.67-2.93-3.91-4.45c-0.44-0.55-0.84-1.12-1.15-1.76c-1.36-2.79-0.77-6.15-1.7-9.12
		c-0.66-2.12-2.17-3.74-3.09-5.71c-0.96-2.05-1.6-4.27-2.87-6.15c-1.4-2.07-3.51-3.59-4.85-5.7c-2.39-3.75-1.94-8.65-0.65-12.9
		s3.34-8.31,3.96-12.71c0.42-2.96,0.15-6.01-0.74-8.87c-0.8-2.54-3.12-4.63-3.34-7.31c-0.25-3.1,2.67-5.58,3.19-8.64
		c0.7-4.12-2.27-8.96-4.77-12.01c-2.74-3.33-6.27-5.99-10.14-7.88c-2.07-1.01-4.25-1.84-6.17-3.12c-3.01-2.01-5.18-5.01-7.68-7.63
		c-3.57-3.74-7.88-6.77-12.61-8.85c-1.58-0.69-3.25-0.73-4.84-1.34c-1.01-0.39-1.9-1.02-2.8-1.63c-5.02-3.38-10.63-5.96-16.56-7.23
		c-2.54-0.54-6.11-1.41-8.66-0.69c-2.75,0.78-5.52,1.9-8.21,2.92c-3.41,1.3-6.81,2.61-10.22,3.91c-4.75,1.82-9.56,3.67-13.67,6.66
		c-5.2,3.79-8.67,9-12.02,14.35c-2.17,3.47-4.24,7.17-4.65,11.25c-0.31,3.09,0.34,6.18,0.45,9.29c0.18,4.97-1.02,9.87-1.96,14.75
		c-1.08,5.6-1.31,10.95-0.17,16.55c0.29,1.45,0.59,2.92,0.53,4.4c-0.1,2.36-1.09,4.58-2.06,6.73c-2.65,5.86-4.7,11.9-7.6,17.7
		c-0.45,0.96-1.14,1.75-1.6,2.69c-0.63,1.3-0.63,3.03-0.67,4.45c-0.08,3.27,0.44,6.52,0.95,9.74c0.17,1.05,0.35,2.12,0.84,3.06
		c1.51,2.86,5.49,3.76,6.92,6.66c0.21,0.43,0.36,0.91,0.31,1.38c-0.07,0.63-0.47,1.16-0.74,1.73c-1.03,2.25,0.14,4.83,0.62,7.26
		c0.39,1.98,0.29,4.02-0.1,5.99c-0.19,0.96-0.45,1.9-0.75,2.83c-0.25,0.77-1.18,2.22-1.13,2.99c0.11,1.81,3.1,0.44,4.23,0.09
		c1.85-0.57,3.65-1.29,5.39-2.14c2.19-1.08,4.41-2.41,6.85-2.39c1.27,0.01,2.5,0.39,3.7,0.79c4.24,1.41,8.42,3.17,12.86,3.7
		c1.72,0.21,3.51,0.24,5.04,1.05c1.52,0.81,2.64,2.74,1.87,4.29c-0.74,1.48-1.57,2.27,0.31,3.41c2.32,1.4,5.31,1.8,7.96,2.01
		c1.9,0.15,4.06-0.06,5.9-0.55c2.7-0.72,5.31-2.72,5.66-5.49c0.23-1.8-0.48-3.84,0.56-5.33c0.43-0.61,1.09-1.02,1.77-1.34
		c1.56-0.74,3.29-1.1,5.02-1.05c0.98,0.03,1.97,0.18,2.94,0.07c1.32-0.16,2.53-0.8,3.7-1.42c7.67-4.06,15.61-7.8,24.04-9.96
		c3.95-1.01,8.21-1.86,12.29-1.87c4.12-0.02,8.19,1.69,12.29,0.48c0.54-0.16,1.11-0.37,1.66-0.25c0.42,0.1,0.77,0.38,1.12,0.64
		c2.21,1.63,4.91,2.39,7.56,3.13c3.51,0.98,7.07,1.97,10.72,2.02c0.42,0.01,0.87-0.01,1.24-0.23c0.58-0.35,0.76-1.1,0.88-1.76
		C504.17,165.63,504.41,161.33,502.26,158.02z"/>
	<path d="M432.11,155.19c0.28-0.16,0.55-0.32,0.82-0.49c3.15-1.92,5.97-4.4,8.28-7.28c1.11-1.39,2.12-2.89,2.77-4.55
		c1.48-3.73,1.09-7.91,0.57-11.89c-0.49-3.8-1.09-7.62-2.33-11.25c-1.86-5.48-5.11-10.37-6.98-15.85c-0.85-2.48-1.15-4.92-2.06-7.39
		c-1.06-2.9-2.13-5.81-3.19-8.71c-0.73-2-1.49-4.04-2.81-5.7c-1.97-2.47-5.55-2.12-6.9-5.02c-0.92-1.98-0.95-4.79-1.48-6.94
		c-1.23-4.93-2.95-9.73-5.13-14.32c-1.45-3.05-2.95-3.69-6.19-3.57c-3.24,0.11-6.47,0.5-9.64,1.14c-6.13,1.24-12.07,3.45-17.52,6.54
		c-1.12,0.64-2.26,1.35-2.98,2.42c-1.09,1.62-1.02,3.71-1.01,5.66c0.07,10.68-2.4,20.96-5.44,31.1c-1.77,5.9-3.73,11.75-5.49,17.62
		c-1.22,4.06-2.45,8.13-3.33,12.28c-1.27,5.95,6.31,11.61,10.25,15.23c8.95,8.22,18.24,16.08,27.81,23.56
		c2.18,1.7,3.56,0.61,5.82-0.43c2.25-1.03,4.5-2.06,6.75-3.08c4.5-2.06,9-4.11,13.5-6.17C428.21,157.19,430.21,156.27,432.11,155.19
		z"/>
	<circle class="st1" cx="383.73" cy="101.21" r="3.23"/>
	<circle class="st1" cx="414.3" cy="98.82" r="3.23"/>
	
		<linearGradient id="SVGID_1_" gradientUnits="userSpaceOnUse" x1="509.0859" y1="733.4451" x2="448.653" y2="740.8941" gradientTransform="matrix(1 0 0 -1 0 799.8898)">
		<stop  offset="0" style="stop-color:#000000"/>
		<stop  offset="0.9994" style="stop-color:#7E2C98;stop-opacity:0"/>
	</linearGradient>
	<path class="st2" d="M454.91,41.15c3.18,2.94,5.92,6.34,9.28,9.06c3.38,2.73,7.3,4.7,11.01,6.98c3.7,2.28,7.29,5,9.51,8.74
		s2.8,8.71,0.49,12.39c-0.57,0.91-1.3,1.73-1.66,2.74c-0.63,1.72-0.09,3.62,0.46,5.37c-1.58-2.91-4.5-4.79-7.12-6.82
		c-3.38-2.61-6.42-5.66-9.03-9.04c-0.45-0.58-0.89-1.17-1.16-1.85c-1.13-2.78,0.71-6.19-0.66-8.86c-0.65-1.26-1.91-2.11-2.63-3.33
		c-0.65-1.09-0.82-2.4-1.35-3.55c-0.81-1.78-2.4-3.06-3.6-4.61c-1.05-1.35-1.81-2.9-2.77-4.31c-2.47-3.61-6.31-6.26-10.57-7.27
		c-1.43-0.34-1.72-1.26-0.18-1.3c1.15-0.03,2.67,0.75,3.68,1.23C450.94,37.81,453.02,39.4,454.91,41.15z"/>
	
		<linearGradient id="SVGID_00000060731553830587669480000010299211250505547907_" gradientUnits="userSpaceOnUse" x1="549.2211" y1="714.5675" x2="397.1759" y2="679.3718" gradientTransform="matrix(1 0 0 -1 0 799.8898)">
		<stop  offset="0" style="stop-color:#000000"/>
		<stop  offset="0.9994" style="stop-color:#7E2C98;stop-opacity:0"/>
	</linearGradient>
	<path style="fill:url(#SVGID_00000060731553830587669480000010299211250505547907_);" d="M453.43,57.99
		c0.97,2.45,3.27,3.76,5.82,4.86c7.78,3.34,11.45,12.21,17.85,17.75c4.08,3.53,9.66,6.23,10.96,11.47c0.7,2.82-0.06,5.78-0.83,8.59
		c-1.07,3.94-2.14,7.88-3.2,11.82c-0.63,2.31-1.26,4.68-1.09,7.08c0.45,6.43,5.88,9.17,8.16,14.63c0.6,1.43,0.85,3.01,1.68,4.31
		c0.6,0.93,1.46,1.67,2.11,2.57c1.41,1.96,1.08,3.74,1.08,6.01c0,3.9,2.91,6.42,5.16,9.21c3.16,3.9,3.81,10.14,1.46,14.53
		c-0.17,0.32-0.37,0.64-0.69,0.81c-0.44,0.23-0.97,0.11-1.45-0.01c-3.36-0.89-6.72-1.78-10.08-2.67c-2.68-0.71-5.41-1.44-7.71-2.99
		c-0.32-0.22-0.66-0.46-1.05-0.5c-0.49-0.05-0.94,0.24-1.38,0.44c-2.53,1.14-5.61-0.1-8.22-0.27c-3.47-0.22-7.01,0-10.45,0.45
		c-6.92,0.91-13.69,3-19.89,6.21c-1.36,0.7-2.79,1.48-4.32,1.41c3.27-2.44,6.33-5.16,9.14-8.11c0.32-0.34,0.66-0.74,0.64-1.2
		c-0.01-0.31-0.19-0.58-0.27-0.88c-0.34-1.14,0.6-2.23,1.46-3.05c4.79-4.59,9.58-9.18,14.37-13.77c1.79-1.71,3.61-3.47,4.79-5.64
		c2.56-4.73,0.67-8.64-2.58-12.37c-3.43-3.92-7.49-7.4-9.23-12.49c-0.33-0.96-0.57-1.95-1.03-2.85c-1.25-2.39-3.71-2.21-5.78-3.43
		c-1.06-0.62-1.97-1.47-2.82-2.35c-0.32-0.34-1.89-2.65-2.23-2.64c5.15-0.17,13.8-0.56,16.36-5.84c1.48-3.05,0.77-6.66,1.07-10.04
		c0.31-3.54,1.75-7.12,0.76-10.53c-1.37-4.72-6.2-6.3-9.62-9.18c-4.01-3.37-6.25-8.25-7.88-13.12c-0.75-2.25-1.42-4.57-2.71-6.56
		c-1.47-2.26-3.65-3.95-5.88-5.45c-3.28-2.2-6.76-4.09-10.4-5.63c7.85-0.69,15.89,0.88,22.91,4.47c2.06,1.06,4.19,2.46,4.91,4.67
		c0.82,2.51-0.45,5.21-0.36,7.85C452.99,56.5,453.15,57.29,453.43,57.99z"/>
	
		<linearGradient id="SVGID_00000044856829021808032720000001944215666761802882_" gradientUnits="userSpaceOnUse" x1="401.2787" y1="646.9417" x2="402.9813" y2="613.2299" gradientTransform="matrix(1 0 0 -1 0 799.8898)">
		<stop  offset="0" style="stop-color:#000000"/>
		<stop  offset="0.9994" style="stop-color:#7E2C98;stop-opacity:0"/>
	</linearGradient>
	<path style="fill:url(#SVGID_00000044856829021808032720000001944215666761802882_);" d="M409.11,192.03
		c1.72-0.01,3.48-0.16,5.05-0.86c1.57-0.69,2.95-2,3.37-3.67c0.46-1.85-0.28-3.94,0.54-5.66c1.51-3.16,6.97-2.77,8.22-6.04
		c0.23-0.6,0.27-1.25,0.48-1.85c0.52-1.52,1.95-2.51,3.26-3.44c6.45-4.59,12.05-10.38,16.43-16.98c-3.08,2.04-6.16,4.08-9.25,6.13
		c-5.55,3.68-11.11,7.36-16.93,10.58c-3.07,1.7-6.36,3.3-9.87,3.3c-0.23-0.74-0.26-1.54-0.07-2.29c-3.02,2.46-6.05,4.93-9.07,7.39
		c-0.42,0.34-0.85,0.69-1.37,0.83c-1.26,0.35-2.47-0.59-3.66-1.12c-2.7-1.21-6.43-0.63-8.1-3.07c-0.42-0.62-0.64-1.36-0.97-2.03
		c-1.35-2.69-4.46-3.98-7.41-4.6c-5.59-1.17-11.93-0.93-16.21-4.7c-1.16-1.02-2.19-2.35-3.69-2.71c-1.33,1.44-1.51,3.61-1.22,5.55
		c0.3,1.94,1,3.8,1.19,5.75c0.35,3.48-0.94,6.9-2.2,10.17c4.74-1.3,9.35-3.06,13.74-5.27c1.09-0.55,2.2-1.13,3.41-1.23
		c2.68-0.22,4.9,1.89,7.33,3.02c3.3,1.54,7.54,1.51,9.86,4.31c2.19,2.64,2.26,5.59,5.88,6.64
		C401.55,191.23,405.24,192.05,409.11,192.03z"/>
	
		<linearGradient id="SVGID_00000170967252027996733790000010436271890866349742_" gradientUnits="userSpaceOnUse" x1="298.5643" y1="710.5991" x2="426.3212" y2="697.9141" gradientTransform="matrix(1 0 0 -1 0 799.8898)">
		<stop  offset="0" style="stop-color:#000000"/>
		<stop  offset="0.9994" style="stop-color:#7E2C98;stop-opacity:0"/>
	</linearGradient>
	<path style="fill:url(#SVGID_00000170967252027996733790000010436271890866349742_);" d="M376.42,166.66
		c-1.83-0.27-3.62-0.84-5.47-0.9c-1.64-0.05-3.35,0.28-4.86-0.35c-0.88-0.37-1.6-1.04-2.3-1.69c-2.35-2.2-4.7-4.41-7.04-6.61
		c-1.09-1.02-2.19-2.06-2.96-3.34c-0.98-1.62-1.36-3.53-1.73-5.39c-0.81-4.11-1.51-8.44,0.3-12.34c1.88-4.03,4.03-7.97,5.26-12.27
		c0.4-1.41,0.71-2.85,1.15-4.24c1.04-3.29,2.86-6.29,3.77-9.62c0.91-3.35-0.29-6.76-0.74-10.09c-0.28-2.05-0.55-3.88-0.35-5.97
		c0.18-1.89,0.54-3.76,0.75-5.65c0.43-3.98,2.1-7.76,2.16-11.85c0.03-2.44-0.06-4.77-0.24-7.21c-0.19-2.58-0.26-5.25,0.55-7.73
		c1.25-3.85,3.43-7.31,5.58-10.7c3.65-5.76,7.7-10.88,13.65-14.41c2.89-1.71,6-3,9.11-4.27c1.47-0.61,2.96-1.22,4.51-1.57
		c3.83-0.87,7.81-0.14,11.69,0.41c5.01,0.71,10.06,1.13,15.12,1.25c-0.41-0.01-1.4,0.84-1.78,1.05c-0.72,0.39-1.45,0.76-2.19,1.1
		c-1.43,0.65-2.9,1.21-4.4,1.66c-2.84,0.85-6.26,1.69-9.25,1.43c-5.19-0.45-11.54,1.78-15.94,4.53c-1.22,0.76-2.37,1.64-3.4,2.63
		c1.78-0.43,3.78,0.29,4.89,1.76c6.41-3.45,14.2-4.23,21.16-2.11c0.7,0.21,1.41,0.46,1.96,0.95c0.92,0.82,1.2,2.12,1.77,3.22
		c0.89,1.71,2.52,2.89,3.82,4.3c1.3,1.42,2.34,3.41,1.68,5.22c-0.46-1.06-1.62-1.77-2.77-1.71c-1.06,0.05-2.03,0.69-3.09,0.71
		c-1.71,0.04-3.04-1.47-3.88-2.96c-0.35-0.62-0.7-1.3-1.33-1.64c-0.55-0.29-1.2-0.27-1.82-0.23c-7.43,0.45-14.62,1.41-21.58,4.24
		c-4.09,1.67-8.08,3.64-10.72,7.31c-0.18,0.25-0.35,0.51-0.41,0.8c-0.08,0.34,0,0.69,0.03,1.04c0.08,0.77,0,1.55-0.09,2.32
		c-0.48,4.35-0.63,8.88-1.5,13.17c-0.37,1.84-1.05,3.6-1.72,5.35c-0.85,2.22-1.97,4.7-4.23,5.43c-0.7,0.23-1.51,0.29-2,0.84
		c-0.48,0.53-0.47,1.32-0.46,2.04c0.21,9.64-3.33,18.21-6.17,27.22c-1.66,5.27-2.36,10.83-2.06,16.35
		c0.29,5.33,1.68,10.42,4.19,15.18c0.63,1.2,1.41,2.42,2.65,2.97c0.17-0.4,0-0.86-0.16-1.26c-0.8-2.08-1.15-4.33-1.02-6.55
		c0.06-0.94,0.23-1.96,0.92-2.62c-0.32,0.3,2.51,3.63,2.82,3.97c1.12,1.2,2.56,2.05,3.67,3.23c2.53,2.71,5.95,4.65,9.19,6.42
		c2.46,1.35,4.98,2.6,7.43,3.96c1.81,1.01,4.71,2.19,5.86,3.91c-1.59,0.74-4.27-0.3-5.99-0.49
		C384.41,166.41,380.39,167.24,376.42,166.66z"/>
	
		<linearGradient id="SVGID_00000015330044316481362640000007345069979987549093_" gradientUnits="userSpaceOnUse" x1="449.9531" y1="739.1376" x2="403.6119" y2="726.9243" gradientTransform="matrix(1 0 0 -1 0 799.8898)">
		<stop  offset="0" style="stop-color:#000000"/>
		<stop  offset="0.9994" style="stop-color:#7E2C98;stop-opacity:0"/>
	</linearGradient>
	<path style="fill:url(#SVGID_00000015330044316481362640000007345069979987549093_);" d="M411.89,53.41
		c3.24,5.16,5.18,11.06,6.34,17.04c0.31,1.58,0.56,3.17,1.12,4.67s1.46,2.93,2.8,3.82c1.26,0.84,2.8,1.12,4.19,1.73
		c1.27,0.55,2.41,1.36,3.54,2.16c0.67,0.47,1.33,0.95,2,1.42c-1.38-1.96-2.79-4.02-3.14-6.39c-0.25-1.76,0.08-3.65-0.7-5.24
		c-0.48-0.98-1.32-1.72-2.15-2.43c-0.47-0.4-0.95-0.82-1.27-1.35c-0.33-0.55-0.46-1.18-0.61-1.8c-0.82-3.54-2.06-6.97-3.34-10.37
		c-1.09-2.88-2.16-4.56-5.37-4.66C414.24,51.99,410.52,51.23,411.89,53.41z"/>
	
		<linearGradient id="SVGID_00000065786741449784231950000004663586819704573597_" gradientUnits="userSpaceOnUse" x1="408.9061" y1="593.2541" x2="410.2065" y2="637.2538" gradientTransform="matrix(1 0 0 -1 0 799.8898)">
		<stop  offset="0" style="stop-color:#000000"/>
		<stop  offset="0.9994" style="stop-color:#7E2C98;stop-opacity:0"/>
	</linearGradient>
	<path style="fill:url(#SVGID_00000065786741449784231950000004663586819704573597_);" d="M399.26,183.79
		c-0.33-0.1-1.98-0.99-2.17-0.66c-0.09,0.15-0.04,0.33,0.02,0.49c0.31,0.81,0.96,1.53,0.95,2.4c-0.01,1.06-1.03,1.9-1.11,2.96
		c-0.18,2.37,3.62,2.35,5.16,2.64c2.97,0.57,5.87,0.79,8.89,0.55c2.58-0.21,5.54-1.09,6.43-3.51c1.2-3.27-1.83-6.67,2-8.61
		c1.02-0.52,2.13-0.94,2.87-1.81c-0.44-0.72-1.54-0.5-2.3-0.14c-2.67,1.26-5.3,2.73-7.2,4.95c-2.04,2.37-4.32,4.55-6.78,6.48
		c-0.34,0.27-0.84,0.54-1.18,0.26c-0.3-0.24-0.22-0.71-0.07-1.06c0.5-1.14,1.23-2.04,1.64-3.23c0.13-0.39,0.15-0.88-0.17-1.14
		c-0.27-0.22-0.67-0.18-1.02-0.13C403.33,184.45,401.09,184.36,399.26,183.79z"/>
	
		<linearGradient id="SVGID_00000150823501088224356450000006713269490609844922_" gradientUnits="userSpaceOnUse" x1="450.7892" y1="621.2449" x2="460.9153" y2="646.9977" gradientTransform="matrix(1 0 0 -1 0 799.8898)">
		<stop  offset="0" style="stop-color:#000000"/>
		<stop  offset="0.9994" style="stop-color:#7E2C98;stop-opacity:0"/>
	</linearGradient>
	<path style="fill:url(#SVGID_00000150823501088224356450000006713269490609844922_);" d="M435.09,174.35
		c6.16-4.8,11.43-10.74,18.01-14.95c0.02,1.44,1.72,2.37,3.14,2.13s2.57-1.25,3.63-2.21c5.63-5.14,11.36-10.43,18.35-13.48
		c-1.61,1.81-3.23,3.63-4.84,5.44c-1.59,1.78-3.29,3.94-2.86,6.29c0.37,2.02,2.24,3.45,4.17,4.14s4.02,0.86,5.96,1.51
		c0.57,0.19,1.22,0.55,1.24,1.15c0.01,0.28-0.13,0.54-0.3,0.76c-0.89,1.14-2.54,1.31-3.99,1.25c-3.63-0.14-7.21-1.03-10.84-1.08
		c-3.9-0.05-7.75,0.88-11.48,1.99c-8.69,2.58-17.07,6.19-24.92,10.74c-0.83,0.48-1.68,0.98-2.63,1.16
		c-0.83,0.16-1.92,0.05-2.46-0.66c1.19-0.7,3.54-0.52,5.03-1.18C432.04,176.59,433.61,175.5,435.09,174.35z"/>
	
		<linearGradient id="SVGID_00000039130656311299096070000010893259944354052528_" gradientUnits="userSpaceOnUse" x1="363.9315" y1="635.2339" x2="381.279" y2="661.0026" gradientTransform="matrix(1 0 0 -1 0 799.8898)">
		<stop  offset="0" style="stop-color:#842E9F"/>
		<stop  offset="0.9988" style="stop-color:#CC79E6;stop-opacity:0"/>
	</linearGradient>
	<path style="fill:url(#SVGID_00000039130656311299096070000010893259944354052528_);" d="M363.37,135.83
		c1.38,2.13,3.34,3.81,5.26,5.47c8.34,7.17,16.68,14.34,25.03,21.52c-6.81-4.25-13.63-8.5-20.44-12.75
		c-2.89-1.8-5.84-3.65-7.99-6.29c-0.61-0.74-1.16-1.56-1.94-2.1c-0.79-0.55-1.91-0.76-2.69-0.21c-0.18,0.12-1.32-6.55-1.32-7.21
		c0.03-2.43,0.41-5.3,1.63-7.44c1.48,0.83,0.72,2.48,0.75,3.83C361.68,132.49,362.37,134.29,363.37,135.83z"/>
	
		<linearGradient id="SVGID_00000051382228640920927100000007444568865175572415_" gradientUnits="userSpaceOnUse" x1="451.7915" y1="614.9527" x2="399.7707" y2="681.358" gradientTransform="matrix(1 0 0 -1 0 799.8898)">
		<stop  offset="0" style="stop-color:#842E9F"/>
		<stop  offset="0.9988" style="stop-color:#CC79E6;stop-opacity:0"/>
	</linearGradient>
	<path style="fill:url(#SVGID_00000051382228640920927100000007444568865175572415_);" d="M424.83,158.59
		c6.79-3.26,14.01-6.93,17.56-13.57c3.65-6.83,2.52-13.88,0.3-20.9c-0.75-2.39-1.31-4.83-1.66-7.31c-0.06-0.41,0.06-1,0.47-0.95
		c0.14,0.02,0.25,0.12,0.36,0.21c1.73,1.58,3.46,3.16,5.18,4.74c1.52,1.39,3.05,2.79,4.27,4.45c2.91,3.96,3.83,9.05,3.88,13.96
		c0.02,2.32-0.15,4.73-1.24,6.78c-0.97-1.06-2.06-1.78-3.36-2.42c-1.04,2.23-2.96,3.91-4.87,5.46c-10.16,8.21-21.71,14.7-34,19.12
		c-4.91,1.76-10.24,3.41-13.49,7.48c0.5-0.62,0.53-2.26,0.99-3.07c0.53-0.95,1.26-1.76,2.11-2.44c2.09-1.67,4.96-2.64,7.38-3.8
		C414.08,163.75,419.46,161.17,424.83,158.59z"/>
	
		<linearGradient id="SVGID_00000011022492634702679840000001741315325975013311_" gradientUnits="userSpaceOnUse" x1="456.0358" y1="699.8894" x2="431.5306" y2="729.9404" gradientTransform="matrix(1 0 0 -1 0 799.8898)">
		<stop  offset="0" style="stop-color:#842E9F"/>
		<stop  offset="0.9988" style="stop-color:#CC79E6;stop-opacity:0"/>
	</linearGradient>
	<path style="fill:url(#SVGID_00000011022492634702679840000001741315325975013311_);" d="M431.59,68.73
		c2.8,4.5,5.56,9.11,7.6,14.01c1.52,3.65,2.45,7.63,4.87,10.76c0.98,1.27,2.72,2.43,4.07,1.58c1.11-0.69,1.18-2.29,0.92-3.57
		c-0.44-2.23-1.46-4.29-2.46-6.33c-1.66-3.37-3.77-6.46-5.82-9.63c-1.07-1.65-2.14-3.3-3.45-4.76c-1.11-1.24-2.38-2.32-3.51-3.53
		c-2.49-2.67-4.27-5.95-5.46-9.4c-0.33,3.12,0.41,6.35,2.08,9.02C430.81,67.49,431.2,68.11,431.59,68.73z"/>
	
		<linearGradient id="SVGID_00000109012179402668691610000006147564851763019142_" gradientUnits="userSpaceOnUse" x1="405.1055" y1="745.7452" x2="387.2281" y2="774.1025" gradientTransform="matrix(1 0 0 -1 0 799.8898)">
		<stop  offset="0" style="stop-color:#842E9F"/>
		<stop  offset="0.9988" style="stop-color:#CC79E6;stop-opacity:0"/>
	</linearGradient>
	<path style="fill:url(#SVGID_00000109012179402668691610000006147564851763019142_);" d="M384.35,41.86
		c0.33-0.01,0.67-0.01,0.98-0.13c0.46-0.17,0.8-0.56,1.14-0.92c1.3-1.37,2.92-2.39,4.56-3.32c7.96-4.54,16.76-7.61,25.81-9.01
		c0.07-0.78-0.54-1.5-1.26-1.8s-1.54-0.28-2.32-0.23c-6.61,0.45-12.92,2.86-19.07,5.34c-2.93,1.18-5.86,2.39-8.77,3.61
		c-1.94,0.81-3.89,1.65-5.59,2.88c-1.81,1.31-3.27,3.03-4.64,4.78c-0.86,1.1-2.69,2.82-2.63,4.3
		C376.53,45.12,379.44,42.02,384.35,41.86z"/>
	
		<linearGradient id="SVGID_00000006708615332126744740000008636798495773136299_" gradientUnits="userSpaceOnUse" x1="472.7057" y1="753.972" x2="458.6357" y2="724.8726" gradientTransform="matrix(1 0 0 -1 0 799.8898)">
		<stop  offset="0" style="stop-color:#842E9F"/>
		<stop  offset="0.9988" style="stop-color:#CC79E6;stop-opacity:0"/>
	</linearGradient>
	<path style="fill:url(#SVGID_00000006708615332126744740000008636798495773136299_);" d="M462.82,55c0.08,0.42,0.13,0.86,0.31,1.25
		c0.21,0.45,0.57,0.81,0.92,1.17c4.86,5.01,7.98,11.67,8.7,18.61c-0.93-0.91-1.76-1.92-2.59-2.92c-2.01-2.45-4.03-4.9-6.04-7.34
		c-0.46-0.56-0.93-1.14-1.13-1.83c-0.32-1.1,0.1-2.28,0.08-3.42c-0.02-0.96-0.35-1.88-0.67-2.78c-1.32-3.68-2.66-7.41-4.87-10.64
		c0.3,0.43,1.44,0.77,1.88,1.25c0.46,0.5,0.89,1.13,1.29,1.69C461.76,51.52,462.5,53.2,462.82,55z"/>
	
		<linearGradient id="SVGID_00000123426235677173288690000012789301178081850529_" gradientUnits="userSpaceOnUse" x1="413.8776" y1="700.1349" x2="463.3633" y2="705.7725" gradientTransform="matrix(1 0 0 -1 0 799.8898)">
		<stop  offset="0" style="stop-color:#842E9F"/>
		<stop  offset="0.9988" style="stop-color:#CC79E6;stop-opacity:0"/>
	</linearGradient>
	<path style="fill:url(#SVGID_00000123426235677173288690000012789301178081850529_);" d="M435.18,96.69
		c0.5,0.84,1.03,1.69,1.75,2.35c0.84,0.76,1.91,1.22,2.95,1.67c3.94,1.69,7.88,3.38,11.82,5.07c-2.5,0.01-4.99,0.22-7.46,0.61
		c-2.16,0.34-4.58,0.78-6.35-0.5c-1.03-0.74-1.62-1.93-2.16-3.08c-1.29-2.78-2.47-5.61-3.53-8.49c-0.74-2-2.09-4.59-1.9-6.77
		C432.09,90.47,433.42,93.74,435.18,96.69z"/>
	
		<linearGradient id="SVGID_00000116202906070891099870000013770964677994752649_" gradientUnits="userSpaceOnUse" x1="456.5798" y1="671.0405" x2="471.48" y2="671.0405" gradientTransform="matrix(1 0 0 -1 0 799.8898)">
		<stop  offset="0" style="stop-color:#842E9F"/>
		<stop  offset="0.9988" style="stop-color:#CC79E6;stop-opacity:0"/>
	</linearGradient>
	<path style="fill:url(#SVGID_00000116202906070891099870000013770964677994752649_);" d="M460.52,124.5
		c2.11,2.16,4.49,4.1,6.16,6.62c1.64,2.48,2.51,5.47,2.45,8.44c0.6-1.73,1.2-3.46,1.79-5.19c0.28-0.8,0.56-1.63,0.56-2.48
		c-0.01-1.53-0.93-2.92-2.04-3.98c-2.09-2.02-4.83-3.21-7.19-4.92c-0.85-0.62-4.69-5.2-5.43-4.83
		C455.52,118.82,459.89,123.86,460.52,124.5z"/>
	<path class="st16" d="M364.1,172.16c0.99-0.18,2-0.28,3.01-0.3c0.57-0.01,1.17,0.01,1.66,0.3c0.44,0.26,0.73,0.69,1.05,1.08
		c1.76,2.13,4.27,2.87,6.71,3.84c2.54,1.01,5.15,2.08,7.79,2.8c1.07,0.29,1.99,0.53,3.05,0.96c1.2,0.49,2.47,0.88,3.77,0.91
		c0.69,0.02,1.39-0.06,2.08-0.03c1.74,0.08,3.49,0.95,4.39,2.45c0.47,0.79,0.69,1.8,0.3,2.63c-0.33,0.7-1.07,1.21-1.19,1.98
		c-0.39,2.47,5.26,2.91,6.75,3.18c4.99,0.93,15.49,0.57,14.77-6.97c-0.1-1.05-0.48-2.14-0.12-3.13c0.17-0.47,0.49-0.86,0.84-1.21
		c1.57-1.56,3.86-2.35,6.05-2.08c0.9,0.11,1.78,0.39,2.69,0.43c1.43,0.07,2.66-0.78,3.82-1.51c1.41-0.89,2.91-1.62,4.4-2.36
		c2.51-1.26,5.06-2.45,7.65-3.55c10.78-4.56,22.71-7.36,34.21-5.17c1.57,0.3,2.62-0.79,4.15-1.26c1.59-0.49,3.27-0.31,4.88-0.05
		c0.82,0.13,1.65,0.35,2.48,0.41c0.54,0.04,1.62,0.01,2.12-0.17"/>
	<path class="st16" d="M480.52,165.76c1.3-0.13,2.75,0.96,3.91,1.54c4.41,2.19,9.82,2.72,14.52,4.18c1.2,0.37,2.68,0.59,3.54-0.32
		c0.38-0.4,0.56-0.95,0.7-1.49c1.23-4.66,1.14-10.01-2.26-13.66c-2.1-2.26-4.85-4.8-4.85-8.17c0-1.6,0.22-3.24-0.27-4.75
		c-0.49-1.52-1.64-2.72-2.45-4.1c-0.86-1.46-1.34-3.12-2.08-4.65c-1.5-3.1-4.01-5.58-5.94-8.44c-3.18-4.69-2.6-8.95-1.1-14.12
		c1.74-6.03,4.88-12,4.06-18.23c-0.67-5.11-6.75-8.75-4-14.03c0.8-1.55,1.95-2.94,2.43-4.62c0.82-2.82-0.5-6.09-1.8-8.59
		c-1.34-2.57-3.22-4.86-5.48-6.69c-4.82-3.9-11.14-5.62-15.9-9.61c-2.75-2.3-4.85-5.26-7.38-7.8c-2.59-2.6-5.63-4.74-8.93-6.32
		c-1.68-0.8-3.42-1.47-5.21-1.97c-0.8-0.23-1.67-0.33-2.4-0.75c-0.66-0.39-1.24-0.82-1.95-1.16"/>
	<path class="st16" d="M445.16,37.61c-8.66-6.84-18.47-14.05-29.47-13.2c-4.45,0.35-8.67,2.01-12.81,3.67
		c-3.72,1.49-7.44,2.99-11.16,4.49c-4.55,1.84-9.17,3.73-12.94,6.87c-3.86,3.22-6.59,7.55-9.26,11.8c-2.37,3.78-4.8,7.73-5.28,12.16
		c-0.3,2.75,0.17,5.52,0.24,8.29c0.25,9.74-4.5,19.39-2.67,28.96c0.4,2.1,1.12,4.17,1.07,6.3c-0.05,2.23-0.93,4.34-1.8,6.39
		c-1.22,2.86-2.33,5.19-3.12,8.2c-0.93,3.52-2.21,6.95-3.84,10.21c-0.7,1.41-1.46,2.79-1.94,4.28c-0.6,1.89-0.73,3.9-0.74,5.88
		c-0.02,3.14,0.23,6.28,0.75,9.38c0.11,0.66,0.24,1.33,0.58,1.9c0.32,0.55,0.81,0.98,1.29,1.39c1.62,1.4,3.24,2.8,4.86,4.19
		c0.61,0.52,1.27,1.19,1.15,1.99c-0.09,0.62-0.63,1.05-0.99,1.57c-1.13,1.62-0.36,3.83,0.3,5.7c0.89,2.55,1.32,5.24,0.43,7.84
		c-0.69,2.02-1.27,3.97-1.87,6.03c-0.11,0.39-0.12,0.96,0.28,1.02c0.1,0.02,0.2-0.01,0.29-0.03c1.01-0.26,2.01-0.53,3.02-0.79
		c0.96-0.25,1.92-0.5,2.82-0.91c0.78-0.35,1.5-0.82,2.24-1.25c1.24-0.73,2.53-1.36,3.86-1.9c1.9-0.77,4.14-1.61,6.08-0.97"/>
	<g>
		<path class="st17" d="M419.83,56.25c0.05-0.19-1.31-2.92-1.48-3.02c-2.95-1.65-6.53-1.59-9.89-1.28
			c-8.02,0.74-16.03,1.56-23.32,5.31c-3.21,1.65-6.18,3.78-8.76,6.31c2.3,21.9-10.21,42.56-14.34,64.19
			c-0.3,1.56-0.55,3.18-0.18,4.73c0.49,2.03,1.97,3.66,3.42,5.16c11.72,12.06,23.93,21.5,37.39,31.58"/>
		<path class="st17" d="M398.53,173.56c2.01-3.69,6.24-5.45,10.09-7.13c3.11-1.35,6.16-2.81,9.22-4.28
			c3.28-1.57,6.56-3.14,9.79-4.82c3.61-1.88,7.18-3.92,10.22-6.63c2.43-2.16,4.52-4.77,5.79-7.78c1.28-3.02,1.17-6.65,0.93-9.88
			c-0.54-7.43-3.05-14.58-5.73-21.48c-3.61-9.31-7.23-18.61-10.84-27.92c-2.4-6.17-4.49-0.96-7.94-6.63
			c-0.66-1.09-4.75-24.77-10.05-25.1"/>
	</g>
	<g>
		<g>
			<path d="M471.35,75.68c2.15,2.49,4.6,4.71,7.3,6.6c1.27,0.89,2.62,1.65,3.8,2.67c1.22,1.05,2.32,2.26,3.16,3.64
				c0.33,0.55,1.2,0.05,0.86-0.5c-0.82-1.37-1.89-2.58-3.08-3.64c-1.15-1.03-2.43-1.81-3.7-2.66c-2.84-1.92-5.4-4.22-7.63-6.81
				C471.64,74.48,470.93,75.19,471.35,75.68L471.35,75.68z"/>
		</g>
	</g>
	<g>
		<g>
			<path d="M375.01,167.24c-1.7-0.24-3.39-0.48-5.09-0.72c-0.85-0.12-1.7-0.24-2.54-0.36c-0.77-0.11-1.3-0.26-1.93-0.73
				c-1.05-0.77-1.43-2.07-2.27-3.05c-0.46-0.54-1.06-0.9-1.58-1.38c-0.58-0.55-1.1-1.16-1.61-1.77c-0.41-0.49-1.12,0.22-0.71,0.71
				c0.51,0.61,1.03,1.23,1.61,1.77c0.54,0.5,1.17,0.88,1.64,1.45c0.46,0.56,0.78,1.2,1.14,1.82c0.32,0.55,0.76,0.93,1.27,1.31
				c0.58,0.43,1.08,0.67,1.81,0.78c0.89,0.13,1.78,0.25,2.67,0.38c1.78,0.25,3.55,0.51,5.33,0.76
				C375.37,168.29,375.64,167.33,375.01,167.24L375.01,167.24z"/>
		</g>
	</g>
	<g>
		<g>
			<path d="M409,171.69c-3.02,1.63-5.62,3.95-7.61,6.75c-0.19,0.26,0.25,0.51,0.43,0.25c1.93-2.73,4.49-4.98,7.43-6.57
				C409.53,171.97,409.28,171.54,409,171.69L409,171.69z"/>
		</g>
	</g>
	<g>
		<g>
			<path d="M377.2,168.47c1.55,0.33,3.05,0.88,4.42,1.68c0.79,0.46,1.25,0.91,1.28,1.87c0.03,0.74,0.06,1.44,0.23,2.16
				c0.33,1.46,0.98,2.83,1.62,4.17c0.51,1.06,1.11,2.12,2.21,2.64c0.29,0.14,0.54-0.29,0.25-0.43c-1.28-0.61-1.84-2.04-2.4-3.25
				c-0.73-1.58-1.39-3.22-1.41-4.98c-0.01-0.61-0.01-1.22-0.4-1.73c-0.36-0.47-0.91-0.76-1.42-1.04c-1.33-0.73-2.77-1.25-4.25-1.57
				C377.02,167.92,376.88,168.4,377.2,168.47L377.2,168.47z"/>
		</g>
	</g>
	<g>
		<g>
			<path d="M469.93,72.89c-2.71-4.42-6.58-8.09-11.14-10.54c-1.16-0.62-2.38-1.07-3.56-1.64c-1.47-0.71-1.77-2.04-1.71-3.56
				c0.06-1.57,0.21-3.15,0.32-4.72c0.1-1.47,0.27-2.99-0.24-4.41c-0.48-1.34-1.37-2.46-2.28-3.54c-1.19-1.4-2.39-2.79-3.58-4.19
				c-0.21-0.25-0.56,0.11-0.35,0.35c1.05,1.23,2.1,2.46,3.16,3.69c0.95,1.11,1.96,2.25,2.51,3.63c0.59,1.47,0.39,3.05,0.28,4.59
				c-0.1,1.53-0.25,3.06-0.31,4.59c-0.04,1.11,0.04,2.33,0.82,3.19c0.82,0.91,2.21,1.23,3.29,1.74c2.36,1.11,4.58,2.54,6.55,4.24
				c2.28,1.96,4.25,4.27,5.82,6.84C469.66,73.42,470.09,73.17,469.93,72.89L469.93,72.89z"/>
		</g>
	</g>
	<g>
		<g>
			<path d="M431.64,69.17c4.45,6.1,7.16,13.2,9.82,20.21c0.11,0.3,0.6,0.17,0.48-0.13c-2.67-7.05-5.4-14.19-9.87-20.33
				C431.88,68.66,431.45,68.91,431.64,69.17L431.64,69.17z"/>
		</g>
	</g>
	<g>
		<g>
			<path d="M454.25,113.25c0.88,3.2,2.31,6.24,4.25,8.94c1.99,2.77,4.6,4.97,6.79,7.57c2.11,2.52,3.91,5.88,3.21,9.27
				c-0.36,1.74-1.44,3.12-2.61,4.4c-1.28,1.39-2.61,2.74-3.96,4.07c-3.01,2.95-6.13,5.78-9.26,8.6c-0.24,0.22,0.12,0.57,0.35,0.35
				c2.89-2.61,5.78-5.22,8.58-7.93c1.37-1.33,2.71-2.68,4.02-4.07c1.18-1.24,2.39-2.53,3.03-4.15c1.15-2.92,0.18-6.23-1.43-8.78
				c-1.88-2.98-4.68-5.21-6.94-7.87c-2.6-3.05-4.48-6.67-5.54-10.53C454.65,112.81,454.16,112.94,454.25,113.25L454.25,113.25z"/>
		</g>
	</g>
	<g>
		<g>
			<path d="M442.39,91.66c0.97,2.03,4.35,6.24,6.63,3.26c0.98-1.28,0.73-2.94,0.21-4.36c-0.61-1.68-1.38-3.31-2.2-4.9
				c-3.35-6.52-7.95-12.29-12.7-17.83c-2.55-2.98-5.35-6.24-5.73-10.31c-0.03-0.32-0.53-0.32-0.5,0c0.29,3.08,1.89,5.72,3.76,8.11
				c2.06,2.64,4.33,5.11,6.4,7.73c2.13,2.68,4.15,5.46,5.96,8.37c1.79,2.88,3.51,5.97,4.61,9.19c0.33,0.96,0.55,2.02,0.18,3
				c-0.36,0.95-1.22,1.65-2.28,1.45c-1.81-0.35-3.18-2.42-3.91-3.96C442.68,91.12,442.25,91.37,442.39,91.66L442.39,91.66z"/>
		</g>
	</g>
	<g>
		<g>
			<path d="M376.75,64.92c-0.43-1.33-0.86-2.65-1.29-3.98c-0.21-0.65-0.46-1.3-0.63-1.95c-0.09-0.33-0.11-0.31,0.12-0.58
				c0.25-0.29,0.15-0.22,0.53-0.28c0.26-0.04,0.51-0.09,0.76-0.16c1.93-0.61,3.36-2.39,4.48-3.98c0.28-0.4,0.53-0.83,0.6-1.32
				c0.03-0.24,0-0.46-0.01-0.7c-0.02-0.5,0.18-0.79,0.56-1.08c0.98-0.74,2.06-1.36,3.12-1.97c2.23-1.29,4.56-2.39,6.97-3.29
				c2.64-0.98,5.36-1.72,8.13-2.21c0.32-0.06,0.18-0.54-0.13-0.48c-5.2,0.93-10.24,2.73-14.85,5.33c-1.14,0.65-2.28,1.33-3.35,2.09
				c-0.34,0.24-0.71,0.5-0.87,0.91c-0.24,0.6,0.05,1.22-0.22,1.83c-0.47,1.07-1.45,2.09-2.27,2.91c-0.94,0.92-1.92,1.45-3.21,1.68
				c-1.41,0.25-0.84,1.51-0.52,2.48c0.53,1.64,1.07,3.27,1.6,4.91C376.37,65.36,376.85,65.23,376.75,64.92L376.75,64.92z"/>
		</g>
	</g>
	<g>
		<g>
			<path d="M409.45,43.56c1.87,0.36,3.71,0.9,5.47,1.62c0.3,0.12,0.43-0.36,0.13-0.48c-1.77-0.72-3.6-1.26-5.47-1.62
				C409.27,43.01,409.14,43.5,409.45,43.56L409.45,43.56z"/>
		</g>
	</g>
	<g>
		<g>
			<path d="M481.2,162.52c-2.01-0.81-4.34-2.02-5.54-3.9c-1.1-1.72-0.73-4.02,0.75-5.4c1.61-1.5,4.12-1.29,6.06-2.11
				c1.8-0.77,3.33-2.09,4.53-3.63c1.54-1.97,2.57-4.26,3.5-6.56c0.12-0.3-0.36-0.43-0.48-0.13c-1.77,4.35-4.27,9.17-9.25,10.35
				c-2.03,0.48-4.14,0.69-5.41,2.55c-1.01,1.49-1.16,3.46-0.24,5.03c1.23,2.1,3.76,3.41,5.94,4.29
				C481.37,163.12,481.5,162.64,481.2,162.52L481.2,162.52z"/>
		</g>
	</g>
	<path class="st18" d="M434.18,94.38c-0.03-0.21-0.11-0.41-0.24-0.59c-0.22-0.29-0.57-0.44-0.91-0.59c-7.2-3-14.72-3.67-22.39-2.77
		c-4.16,0.49-8.05,0.93-11.97,2.59c-0.86,0.36-1.71,0.76-2.6,1.03c-2.89,0.85-6.01,0.42-8.95,0.06c-0.89-0.11-1.78-0.25-2.68-0.33
		c-0.86-0.08-1.72-0.13-2.59-0.17c-1.19-0.06-2.39-0.12-3.58-0.18c-0.89-0.04-1.77-0.09-2.66-0.07c-1.41,0.03-2.82,0.23-4.2,0.49
		c-1.22,0.24-2.63,0.4-3.77,0.92c-0.98,0.44-3.67,0.67-4.05,1.8c-0.2,0.57-0.05,1.2,0.12,1.78c0.92,3.2,2.43,6.2,3.93,9.17
		c0.41,0.82,0.83,1.65,1.4,2.37c3.53,4.53,10.73,3.96,15.53,2.39c1.17-0.38,2.32-0.84,3.33-1.54c0.87-0.6,1.61-1.37,2.47-2
		c4.28-3.11,8.71-0.49,12.96,1.23c4.9,1.98,10.28,2.75,15.54,2.25c5-0.48,8.54-3.12,11.26-7.31c1.83-2.8,3.02-5.98,3.9-9.2
		C434.14,95.28,434.25,94.81,434.18,94.38z"/>
	<path class="st19" d="M427.7,93.94c-3.09-0.8-6.31-1.24-9.47-1.25c-2.95,0-5.91,0-8.84,0.35c-1.45,0.17-2.9,0.44-4.31,0.83
		c-0.62,0.17-1.22,0.4-1.85,0.54c-0.68,0.15-1.39,0.2-2.05,0.43c-1.28,0.45-2.57,0.89-3.85,1.34c-0.3,0.1-0.63,0.23-0.79,0.5
		c-0.14,0.24-0.12,0.55-0.09,0.83c0.21,1.84,0.79,3.65,1.78,5.21c0.97,1.53,1.76,2.8,3.38,3.77c1.47,0.88,3.14,1.39,4.8,1.83
		c2.34,0.62,4.54,1.38,6.99,1.46c2.13,0.08,4.27-0.14,6.38-0.45c2.7-0.4,5.4-2.32,7.13-4.35c2.29-2.69,3.77-6.06,4.17-9.57
		c0.02-0.13,0.03-0.28-0.05-0.39c-0.06-0.09-0.18-0.13-0.28-0.17C429.75,94.52,428.74,94.21,427.7,93.94z"/>
	<path class="st19" d="M388.07,97.26c-0.95-0.49-2.43-0.51-3.42-0.63c-1.39-0.16-2.79-0.25-4.18-0.33c-2.05-0.12-4.11-0.23-6.17-0.2
		c-2.51,0.04-5.28,0.3-7.63,1.18c-0.1,0.04-0.2,0.08-0.29,0.14c-0.28,0.21-0.31,0.62-0.22,0.96c0.72,2.84,1.7,5.76,3.46,8.14
		c1.92,2.61,4.66,3.69,7.79,4.16c0.59,0.09,1.18,0.16,1.77,0.12c0.94-0.07,1.79-0.44,2.67-0.73c0.92-0.3,1.8-0.59,2.63-1.09
		c1.24-0.75,2.23-1.91,2.88-3.2c1.06-2.1,1.33-4.5,1.46-6.85c0.03-0.53,0.01-1.14-0.4-1.46C388.3,97.39,388.19,97.32,388.07,97.26z"
		/>
	<path class="st0" d="M381.43,96.49c-0.03-0.14-0.18-0.2-0.31-0.18c-0.01,0-0.01,0-0.02,0.01c-0.03-0.28-0.22-0.54-0.57-0.57
		c-1.48-0.12-2.96-0.08-4.43,0.11c-0.56,0.07-1.27,0.1-1.73,0.48c-0.48,0.4-0.79,1.08-1.11,1.6c-1.48,2.39-2.93,4.87-4,7.47
		c-0.1,0.23,0.04,0.43,0.23,0.52c0,0.11,0.03,0.21,0.08,0.31c0.79,1.45,1.89,2.69,3.42,3.37c0.67,0.3,1.43,0.54,1.98-0.11
		c0.55-0.66,0.83-1.68,1.19-2.45c0.86-1.84,1.79-3.66,2.77-5.44c0.5-0.91,1-1.82,1.51-2.72C380.79,98.26,381.61,97.25,381.43,96.49z
		"/>
	<path class="st0" d="M415.49,92.7c-0.33,0.09-0.67,0.16-1.02,0.22c-0.1-0.18-0.27-0.32-0.53-0.34c-1.38-0.12-2.74,0.08-4.02,0.62
		c-0.02,0.01-0.04,0.03-0.06,0.04c-0.17-0.13-0.43-0.13-0.61,0.11c-1.45,2-2.61,4.3-3.72,6.5c-1.09,2.19-2.02,4.45-2.63,6.82
		c-0.07,0.27,0.09,0.56,0.36,0.64c2.15,0.6,4.23,1.26,6.44,1.64c0.76,0.13,1.96,0.55,2.58-0.07c0.3-0.3,0.4-0.75,0.54-1.13
		c0.2-0.54,0.39-1.08,0.57-1.63c1.35-4.13,2.44-8.46,2.92-12.78C416.38,92.91,415.87,92.6,415.49,92.7z"/>
	<path class="st0" d="M417.85,93.45c-0.24,2.76-0.57,5.51-1.19,8.21c-0.29,1.28-0.63,2.55-1.04,3.79c-0.4,1.24-1.01,2.43-1.38,3.67
		c-0.2,0.66,0.71,0.98,1.07,0.45c0.74-1.09,1.18-2.52,1.6-3.76c0.43-1.29,0.79-2.61,1.09-3.94c0.64-2.76,1.11-5.59,1.26-8.42
		C419.32,92.53,417.93,92.55,417.85,93.45z"/>
	<path class="st0" d="M383.57,96.36c-0.93,0.74-1.52,2.07-2.13,3.07c-0.7,1.14-1.34,2.32-1.99,3.49c-1.27,2.31-2.44,4.67-3.63,7.02
		c-0.37,0.73,0.75,1.37,1.09,0.64c1.12-2.38,2.38-4.71,3.64-7.02c0.62-1.14,1.28-2.26,1.91-3.39c0.32-0.57,0.63-1.13,0.95-1.7
		c0.32-0.56,0.68-1.11,0.81-1.74C384.31,96.33,383.88,96.11,383.57,96.36z"/>
	
		<linearGradient id="SVGID_00000135666412177708194610000000748088269588249776_" gradientUnits="userSpaceOnUse" x1="369.6153" y1="697.6666" x2="378.0291" y2="697.6666" gradientTransform="matrix(1 0 0 -1 0 799.8898)">
		<stop  offset="0" style="stop-color:#842E9F"/>
		<stop  offset="0.2165" style="stop-color:#8E38A9;stop-opacity:0.9567"/>
		<stop  offset="0.5858" style="stop-color:#A853C2;stop-opacity:0.8828"/>
		<stop  offset="1" style="stop-color:#CC79E6;stop-opacity:0.8"/>
	</linearGradient>
	<path style="fill:url(#SVGID_00000135666412177708194610000000748088269588249776_);" d="M376.82,96.12
		c-0.02,0.03-0.03,0.06-0.05,0.09c-0.19-0.39-0.75-0.61-1.06-0.21c-0.6,0.77-1.27,1.49-1.85,2.29c-0.6,0.83-1.15,1.7-1.66,2.59
		c-0.5,0.87-0.97,1.75-1.42,2.65c-0.44,0.87-0.99,1.8-1.16,2.77c-0.05,0.3,0.31,0.58,0.55,0.32c0.04-0.04,0.07-0.09,0.11-0.14
		c-0.07,0.83,0.64,1.6,1.28,2.08c0.24,0.18,0.48,0.09,0.64-0.08c0.04,0.03,0.06,0.07,0.11,0.1c0.1,0.06,0.21,0.03,0.3-0.04
		c0.36-0.29,0.27-0.8,0.33-1.22c0.08-0.56,0.21-1.13,0.38-1.67c0.31-1,0.84-1.93,1.34-2.84c1.1-2.01,2.23-4,3.29-6.03
		C378.33,96.04,377.24,95.39,376.82,96.12z"/>
	
		<linearGradient id="SVGID_00000080914116164315841120000007503503312500994200_" gradientUnits="userSpaceOnUse" x1="373.2983" y1="696.2516" x2="380.5971" y2="696.2516" gradientTransform="matrix(1 0 0 -1 0 799.8898)">
		<stop  offset="0" style="stop-color:#842E9F"/>
		<stop  offset="0.2165" style="stop-color:#8E38A9;stop-opacity:0.9567"/>
		<stop  offset="0.5858" style="stop-color:#A853C2;stop-opacity:0.8828"/>
		<stop  offset="1" style="stop-color:#CC79E6;stop-opacity:0.8"/>
	</linearGradient>
	<path style="fill:url(#SVGID_00000080914116164315841120000007503503312500994200_);" d="M380.43,97.23
		c-1.57,1.76-2.83,3.86-4.01,5.9c-0.6,1.04-1.17,2.1-1.71,3.17c-0.28,0.55-0.56,1.11-0.83,1.66c-0.24,0.49-0.61,1.01-0.58,1.58
		c0.02,0.35,0.44,0.7,0.78,0.45c0.47-0.35,0.63-0.87,0.88-1.39c0.27-0.56,0.54-1.12,0.81-1.67c0.54-1.08,1.08-2.15,1.63-3.22
		c1.08-2.11,2.28-4.19,3.19-6.38C380.63,97.23,380.49,97.16,380.43,97.23z"/>
	
		<linearGradient id="SVGID_00000152942383266271768910000006548728645061026951_" gradientUnits="userSpaceOnUse" x1="403.2974" y1="699.1578" x2="412.4636" y2="699.1578" gradientTransform="matrix(1 0 0 -1 0 799.8898)">
		<stop  offset="0" style="stop-color:#842E9F"/>
		<stop  offset="0.2165" style="stop-color:#8E38A9;stop-opacity:0.9567"/>
		<stop  offset="0.5858" style="stop-color:#A853C2;stop-opacity:0.8828"/>
		<stop  offset="1" style="stop-color:#CC79E6;stop-opacity:0.8"/>
	</linearGradient>
	<path style="fill:url(#SVGID_00000152942383266271768910000006548728645061026951_);" d="M411.6,92.8
		c-0.51,0.02-1.17,0.1-1.48,0.56c-2.81,4.3-5.06,8.8-6.79,13.63c-0.13,0.35,0.15,0.7,0.46,0.81c0.88,0.31,1.75,0.59,2.67,0.75
		c0.61,0.11,1.31,0.27,1.81-0.21c0.48-0.47,0.59-1.37,0.76-1.98c0.25-0.89,0.45-1.79,0.66-2.69c0.38-1.71,0.74-3.43,1.25-5.12
		c0.49-1.59,1.11-3.15,1.46-4.78C412.57,93,412.43,92.77,411.6,92.8z"/>
	
		<linearGradient id="SVGID_00000134224308951360802160000017555032473915977662_" gradientUnits="userSpaceOnUse" x1="409.9381" y1="697.1065" x2="414.2909" y2="697.1065" gradientTransform="matrix(1 0 0 -1 0 799.8898)">
		<stop  offset="0" style="stop-color:#842E9F"/>
		<stop  offset="0.2165" style="stop-color:#8E38A9;stop-opacity:0.9567"/>
		<stop  offset="0.5858" style="stop-color:#A853C2;stop-opacity:0.8828"/>
		<stop  offset="1" style="stop-color:#CC79E6;stop-opacity:0.8"/>
	</linearGradient>
	<path style="fill:url(#SVGID_00000134224308951360802160000017555032473915977662_);" d="M414.16,96.04
		c-0.18,0.56-0.5,1.06-0.69,1.62c-0.19,0.55-0.33,1.11-0.49,1.67c-0.31,1.08-0.63,2.16-0.97,3.22c-0.35,1.07-0.76,2.12-1.13,3.18
		c-0.19,0.55-0.36,1.11-0.54,1.66c-0.17,0.52-0.42,1.05-0.39,1.6c0.02,0.47,0.64,0.81,0.99,0.41c0.36-0.4,0.49-0.9,0.67-1.4
		c0.19-0.55,0.39-1.1,0.56-1.65c0.34-1.11,0.58-2.25,0.86-3.38s0.57-2.26,0.83-3.39c0.13-0.57,0.26-1.14,0.35-1.71
		c0.09-0.6,0.02-1.19,0.1-1.78C414.3,95.99,414.19,95.95,414.16,96.04z"/>
	<path class="st24" d="M432.23,98.52c-0.52-0.34-1.18,0.03-1.58,0.42c-0.07,0.06-0.13,0.12-0.19,0.18c-0.03,0.03-0.02,0.06-0.03,0.1
		c-0.26,0.32-0.48,0.69-0.63,1.06c-0.1,0.25-0.2,0.49-0.29,0.74c-0.05,0.13-0.1,0.25-0.14,0.38c-0.01,0.02-0.07,0.19-0.04,0.11
		c-0.02,0.04-0.04,0.09-0.06,0.13c-0.48,0.77-0.99,1.53-1.54,2.26c-1.22,1.59-2.68,3.02-4.39,4.07c-3.7,2.28-7.93,2.2-12.1,1.67
		c-0.12-0.14-0.27-0.25-0.49-0.27c-1.78-0.2-3.55-0.54-5.27-1.03c-3.79-1.09-7.18-3.12-11.14-3.68c-1.82-0.26-3.75-0.11-5.38,0.76
		c-2.64,1.41-4.41,3.96-7.37,4.88c-2.94,0.91-5.71,0.46-8.58-0.49c-0.4-0.31-0.81-0.62-1.22-0.92c-0.01-0.15-0.06-0.3-0.16-0.42
		c-0.47-0.57-1.12-1-1.78-1.36c-0.01-0.04-0.01-0.08-0.03-0.11c-0.63-1.25-1.32-2.48-1.97-3.72c-0.55-1.04-1.05-2.12-1.66-3.13
		c0-0.01,0-0.03,0-0.04c0-0.04,0-0.08,0-0.12c0.06-0.13,0.05-0.29-0.02-0.43c-0.18-0.32-0.69-0.29-0.86,0.02
		c-0.1,0.2-0.07,0.4-0.06,0.62l0.07,1.07c0.01,0.19,0.04,0.37,0.08,0.56c0.02,0.08,0.04,0.17,0.06,0.25
		c0.03,0.1,0.08,0.17,0.14,0.25c0.04,0.07,0.11,0.08,0.18,0.07c0.93,2.79,2.29,5.66,4.55,7.56c0.01,0.07,0.04,0.13,0.08,0.19
		c0.09,0.13,0.19,0.25,0.29,0.37c-0.04,0.24,0.04,0.5,0.29,0.68c0.17,0.12,0.34,0.2,0.52,0.3c0.07,0.11,0.17,0.21,0.31,0.27
		l1.15,0.45c0.02,0.01,0.03,0,0.05,0.01c2.78,1,5.94,0.61,8.83,0.06c3.49-0.67,6.85-2.06,9.26-4.73c3.28-1.02,6.66,0.08,9.72,1.4
		c0.05,0.2,0.18,0.38,0.44,0.47c3.89,1.22,8.03,2.46,12.15,2.38c0.05,0.01,0.1,0.01,0.17,0.02c4.03,0.55,8.04-0.28,11.55-2.36
		c1.74-1.03,3.33-2.35,4.62-3.92c1.16-1.41,2.11-3,2.14-4.8c0.06-0.11,0.13-0.22,0.19-0.33c0.17-0.34,0.35-0.69,0.29-1.06
		C432.58,99.08,432.51,98.71,432.23,98.52z"/>
	<path class="st25" d="M433.67,93.98c-8.8-3.86-18.95-4.72-28.3-2.54c-1.24,0.29-2.48,0.63-3.69,1.04c-1.84,0.38-3.6,1.08-5.25,1.98
		c-0.26,0.14-0.51,0.31-0.77,0.46c-0.06-0.09-0.15-0.16-0.28-0.15c-1.26,0.14-2.48,0.29-3.75,0.25c-1.34-0.04-2.65-0.22-3.96-0.45
		c-2.61-0.45-5.19-1-7.85-1.09c-3.11-0.11-6.24,0.3-9.31,0.97c0.2-0.27-0.11-0.63-0.42-0.58c-1.11,0.19-2.17,0.7-3.26,1
		c-0.81,0.22-1.7,0.38-2.39,0.89c-0.57,0.42-0.84,1.02-0.76,1.73c0.12,1.07,0.65,2.21,1,3.22c0.71,2.02,1.5,4.02,2.51,5.91
		c0.88,1.65,1.87,3.29,3.38,4.44c0.09,0.07,0.17-0.07,0.11-0.14c-1.14-1.33-2.14-2.75-2.89-4.34c-0.81-1.73-1.46-3.56-2.09-5.37
		c-0.32-0.91-0.62-1.82-0.9-2.74c-0.15-0.48-0.42-1.1-0.11-1.55c0.2-0.3,0.69-0.44,1.01-0.54c0.86-0.27,1.75-0.46,2.61-0.74
		c4.01-0.68,8.03-1.15,12.12-0.9c2.68,0.16,5.27,0.84,7.92,1.24c1,0.15,2.07,0.28,3.13,0.29c0.63,0.41,1.43,0.87,1.95,0.38
		c0.18-0.17,0.26-0.38,0.5-0.47c0.22-0.08,0.47-0.06,0.7-0.07c0.53-0.02,0.98-0.12,1.46-0.37c1.08-0.55,2.11-1.15,3.25-1.59
		c1.13-0.44,2.31-0.78,3.47-1.13c0.09-0.03,0.16-0.09,0.2-0.16c1.17-0.3,2.34-0.58,3.54-0.79c3-0.53,6.04-0.76,9.08-0.73
		c6.06,0.07,11.98,1.37,17.57,3.68C433.83,95.29,434.28,94.24,433.67,93.98z"/>
	<g>
		<g>
			<path d="M391.11,109.07c1.06-0.82,2.31-1.03,3.63-0.85c1,0.14,1.99,0.43,2.95,0.75c0.83,0.27,1.58,0.74,2.37,1.11
				c3.5,1.61,7.28,2.54,11.1,2.99c3.65,0.43,7.51,0.42,11.07-0.62c3.52-1.02,6.35-3.3,8.36-6.33c2.42-3.64,3.68-7.97,4.75-12.17
				c0.14-0.55-0.18-1.05-0.7-1.23c-9.86-3.45-20.59-4.82-30.82-2.22c-2.9,0.74-5.71,1.79-8.41,3.09c0.17-0.05,0.34-0.09,0.5-0.14
				c-1.99-0.03-3.95,0.05-5.92,0.36c0.18,0,0.35,0,0.53,0c-7.07-1.84-14.64-1.91-21.77-0.33c-2.02,0.45-4,1.04-5.93,1.79
				c-0.51,0.2-0.85,0.66-0.7,1.23c0.69,2.67,1.53,5.31,2.64,7.84c1.03,2.36,2.33,4.67,4.13,6.54c3.62,3.75,9.2,4.16,14.01,2.81
				C385.97,112.83,388.8,111.25,391.11,109.07c0.94-0.88-0.48-2.3-1.41-1.41c-3.54,3.34-8.71,5.27-13.59,4.64
				c-2.05-0.27-3.94-1.05-5.44-2.49c-1.69-1.62-2.88-3.69-3.86-5.8c-1.19-2.57-2.04-5.3-2.74-8.03c-0.23,0.41-0.47,0.82-0.7,1.23
				c4.22-1.64,8.71-2.53,13.23-2.76c2.29-0.12,4.59-0.07,6.88,0.15c1.1,0.11,2.2,0.25,3.29,0.45c1.09,0.19,2.15,0.51,3.23,0.71
				c0.58,0.11,1.29-0.12,1.89-0.17c0.58-0.06,1.16-0.09,1.74-0.11c0.56-0.02,1.13-0.02,1.69-0.01c0.34,0,0.66,0.03,0.99-0.08
				s0.65-0.31,0.97-0.45c2.21-1.02,4.51-1.82,6.87-2.44c4.59-1.19,9.34-1.56,14.06-1.25c5.44,0.35,10.78,1.62,15.91,3.42
				c-0.23-0.41-0.47-0.82-0.7-1.23c-1.71,6.65-4.15,14.78-11.49,17.03c-3.42,1.05-7.14,1.03-10.67,0.62
				c-3.63-0.42-7.33-1.33-10.62-2.93c-0.4-0.2-0.79-0.41-1.19-0.62c-0.55-0.29-1.16-0.47-1.75-0.65c-1.05-0.32-2.12-0.58-3.21-0.68
				c-1.8-0.16-3.37,0.37-4.79,1.47c-0.43,0.33-0.35,1.07,0,1.41C390.11,109.49,390.68,109.4,391.11,109.07L391.11,109.07z"/>
		</g>
	</g>
	<g>
		<g>
			<path d="M388.73,96.9c-2.83-0.81-5.78-1.21-8.71-1.4c-3.22-0.21-6.48-0.14-9.67,0.39c-1.57,0.26-3.12,0.65-4.58,1.26
				c-0.26,0.11-0.42,0.32-0.35,0.62c1.26,5.33,3.83,11.59,9.7,13.07c2.58,0.65,5.4,0.39,7.85-0.63c2.67-1.11,4.69-3.12,5.59-5.9
				c0.47-1.46,0.58-3,0.57-4.52c0-0.52-0.01-1.05-0.01-1.57c0-0.31,0.04-0.66-0.04-0.97c-0.16-0.62-1.12-0.36-0.96,0.27
				c-0.05-0.22-0.01,0.03-0.01,0.11c0,0.16,0.01,0.32,0.01,0.48c0.01,0.45,0.01,0.91,0.01,1.36c0.01,1.07,0,2.13-0.19,3.18
				c-0.51,2.84-2.13,5.08-4.72,6.36c-2.18,1.07-4.77,1.45-7.16,1.01c-2.57-0.47-4.61-1.94-6.15-4.03c-1.84-2.5-2.82-5.5-3.53-8.49
				c-0.12,0.21-0.23,0.41-0.35,0.62c2.65-1.12,5.57-1.51,8.42-1.66c3.14-0.16,6.31-0.01,9.43,0.45c1.54,0.23,3.08,0.53,4.58,0.96
				C389.08,98.04,389.35,97.08,388.73,96.9z"/>
		</g>
	</g>
	<g>
		<g>
			<path d="M395.75,96.79c0.35,3.43,1.63,6.89,4.27,9.22c2.58,2.28,5.91,2.95,9.19,3.59c3.78,0.74,7.72,1.09,11.5,0.09
				c2.96-0.78,5.4-2.49,7.17-4.98c2.01-2.81,3.08-6.2,3.99-9.5c0.07-0.27-0.09-0.53-0.35-0.62c-8.97-2.89-18.92-3.1-28.05-0.82
				c-2.56,0.64-5.06,1.5-7.47,2.57c-0.59,0.26-0.08,1.12,0.5,0.86c8.45-3.77,18.2-4.77,27.31-3.39c2.52,0.38,5.01,0.96,7.44,1.74
				c-0.12-0.21-0.23-0.41-0.35-0.62c-1.45,5.22-3.54,11.3-9.11,13.35c-3.37,1.24-7.18,1.22-10.69,0.63c-3.1-0.52-6.48-1-9.18-2.73
				c-3.2-2.05-4.79-5.75-5.17-9.41C396.68,96.16,395.68,96.15,395.75,96.79L395.75,96.79z"/>
		</g>
	</g>
	<path class="st25" d="M363.81,94.99c0,0,1.4,2.16-0.48,3.42c0,0,3.2-0.6,3.82,1.18c0,0-1.24-2.1-0.43-3.11
		C366.71,96.48,365.24,96.62,363.81,94.99z"/>
	<path class="st25" d="M431.25,96.97c0,0-0.71,1.64-2.17,1.05c0,0,1.58,1.62,0.79,2.67c0,0,0.74-1.53,1.64-1.45
		C431.51,99.22,430.86,98.42,431.25,96.97z"/>
	<path class="st25" d="M386.66,108.15c0,0,0.84-1.82,2.46-1.11c0,0-1.72-1.86-0.81-3.01c0,0-0.87,1.69-1.87,1.58
		C386.43,105.61,387.14,106.53,386.66,108.15z"/>
</g>
</svg>
