<?xml version="1.0" encoding="utf-8"?>
<!-- Generator: Adobe Illustrator 28.0.0, SVG Export Plug-In . SVG Version: 6.00 Build 0)  -->
<svg version="1.1" id="Layer_1" xmlns="http://www.w3.org/2000/svg" xmlns:xlink="http://www.w3.org/1999/xlink" x="0px" y="0px"
	 viewBox="0 0 800 800" style="enable-background:new 0 0 800 800;" xml:space="preserve">
<style type="text/css">
	.st0{fill:#842E9F;}
	.st1{fill:url(#SVGID_1_);}
	.st2{fill:url(#SVGID_00000081639159792435585470000005622344823325951107_);}
	.st3{fill:url(#SVGID_00000150093107551866832510000010825005539436328857_);}
	.st4{fill:url(#SVGID_00000179633803789253702310000014976910738155774909_);}
	.st5{fill:url(#SVGID_00000104690824372050456750000004459402165835108786_);}
	.st6{fill:url(#SVGID_00000126311406440861411050000005291072832625552284_);}
	.st7{fill:url(#SVGID_00000035533298385654977970000001599410377767331227_);}
	.st8{fill:url(#SVGID_00000019670200703071971950000015051494159338199230_);}
	.st9{fill:url(#SVGID_00000141420258281244732540000001067937734292010408_);}
	.st10{fill:url(#SVGID_00000078756000282328067210000002930008127365943190_);}
	.st11{fill:url(#SVGID_00000006669217937104934070000016746417172304865669_);}
	.st12{fill:url(#SVGID_00000176007575236023255520000013988053388069831604_);}
	.st13{fill:url(#SVGID_00000119833486160275574300000011714029234155378586_);}
	.st14{fill:url(#SVGID_00000118379780283574161830000015053266384967048617_);}
	.st15{fill:url(#SVGID_00000170255073486414712220000003479031226980546177_);}
	.st16{fill:url(#SVGID_00000103981455196797168090000013317005418289143202_);}
	.st17{fill:url(#SVGID_00000071545392897821563030000017065765298153138842_);}
	.st18{fill:url(#SVGID_00000036945887931334721240000014599355252222730153_);}
	.st19{fill:url(#SVGID_00000080902445265706653480000012612450838300352133_);}
	.st20{fill:url(#SVGID_00000084514476883842868340000006098043850611279262_);}
	.st21{fill:url(#SVGID_00000129177673318048343220000010325216013780889787_);}
	.st22{fill:url(#SVGID_00000033342817467297130870000013775320986779883155_);}
	.st23{fill:url(#SVGID_00000183931160133239724610000001994147896103043236_);}
	.st24{fill:url(#SVGID_00000091699653816667512910000016942318832240166278_);}
	.st25{fill:url(#SVGID_00000002365260947610347470000007015155106989782423_);}
	.st26{fill:url(#SVGID_00000111181429808238613540000014743647500300445118_);}
	.st27{fill:url(#SVGID_00000163752436989170871490000013567538085293082511_);}
	.st28{fill:url(#SVGID_00000036960132361179448860000017584594995729253559_);}
	.st29{fill:url(#SVGID_00000084526975520075862130000012904231157165766787_);}
	.st30{fill:url(#SVGID_00000070086968482486942780000007807667424751994558_);}
	.st31{fill:url(#SVGID_00000137813320938671226760000017158805858076637332_);}
	.st32{fill:url(#SVGID_00000036965966430353360110000003205609266789083013_);}
	.st33{fill:url(#SVGID_00000180360611846358288220000005581465599741797255_);}
	.st34{fill:url(#SVGID_00000046312749528690798760000015132217699654017930_);}
	.st35{fill:url(#SVGID_00000098935998843049271090000001716224885462432668_);}
	.st36{fill:url(#SVGID_00000175296048293922470630000017714658807083140244_);}
	.st37{fill:url(#SVGID_00000161609940499659287030000014819664679833049217_);}
	.st38{fill:url(#SVGID_00000079446923952591593600000002086824962862357899_);}
	.st39{fill:url(#SVGID_00000173871677893490837400000003640150399691071164_);}
	.st40{fill:url(#SVGID_00000175285621921563391930000004819631851474487473_);}
	.st41{fill:url(#SVGID_00000070089263613198936460000009483618501451240599_);}
	.st42{fill:url(#SVGID_00000095303607896089346680000012102205326285933215_);}
	.st43{fill:url(#SVGID_00000098937766998317277640000018194371762694360717_);}
</style>
<g id="_x32_-PANTS__x5B_WIZARD_x5D__x2B_">
	<path class="st0" d="M422.13,380c-2.61,0.01-5.28,0.43-7.89,0.65c-5.43,0.48-10.87,0.95-16.3,1.43c-1.02,0.09-2.05,0.18-3.07,0.06
		c-0.76-0.09-1.51-0.29-2.25-0.49c-3.01-0.82-5.74-0.96-8.79-0.17c-1.23,0.32-2.47,0.72-3.51,1.47c-0.55,0.4-1.03,0.88-1.62,1.21
		c-0.78,0.43-1.69,0.54-2.57,0.62c-6.37,0.56-12.78,0.04-19.1-0.85c-2.86-0.4-5.91-0.65-8.68-1.44c-2.76-0.78-5.35-2.03-8.09-2.88
		c-3.51-1.09-6.56-0.84-10.15-0.46c-0.86,0.09-1.87,0.3-2.19,1.09c-0.14,0.33-0.11,0.71-0.1,1.07c0.06,1.69-0.14,3.38-0.57,5.01
		c-0.55,2.07-0.16,2.04,0.72,3.84c0.22,0.45,0.31,0.95,0.39,1.45c0.3,1.76,0.6,3.53,0.9,5.29c0.29,1.72,0.59,3.44,0.78,5.17
		c0.67,6.09-0.49,11.43-1.5,17.35c-0.63,3.67-0.72,8.07-0.49,11.76c0.3,4.81,0.74,9.61,1.11,14.42c0.73,9.51,1.47,19.02,2.2,28.53
		c0.41,5.32,0.49,10.71,0.25,16.04c-0.08,1.73-0.19,3.46-0.14,5.2c0.1,3.19,0.78,6.33,1.03,9.51c0.22,2.86,0.34,5.32,1.06,8.13
		c0.49,1.93,0.73,3.92,0.97,5.9c0.29,2.4,0.58,4.81,0.86,7.21c0.28,2.31,0.55,4.65,0.33,6.96c-0.57,6.01-1.22,11.74-1.04,17.83
		c0.24,7.67,0.22,15.35,0.17,23.03c-0.02,3.89-0.05,7.79-0.05,11.68c0,1.84-0.26,3.91,0.04,5.72c0.22,1.32,0.59,2.51,0.71,3.87
		c0.39,4.48,0.26,8.95,0.54,13.46c0.3,4.92,1.17,10.16,0.82,15.05c-0.28,3.9-0.48,7.81-0.27,11.72c0.08,1.48-0.19,3,0.74,4.21
		c0.97,1.27,2.51,2.11,4.02,2.54c2.08,0.6,4.29,0.54,6.46,0.47c1.61-0.05,3.23-0.11,4.8-0.5c0.28-0.07,0.58-0.16,0.78-0.37
		c1.37-1.47-1.51-3.3,1.19-3.93c3.19-0.75,6.7-0.63,9.99-0.74c3.88-0.12,7.76-0.07,11.63,0.14c3.04,0.17,6.08,0.44,9.11,0.72
		c2.45,0.22,5.26,0.14,7.63,0.8c2.4,0.67,4.67,1.62,7.13,2.18c14.42,3.25,29.09,8.42,44.01,8.19c0.4-0.01,0.82-0.02,1.19-0.18
		c1.21-0.52,1.27-2.23,0.85-3.47c-0.43-1.24-1.17-2.49-0.91-3.78c0.17-0.83,6.46-0.09,7.17,0c3.1,0.39,6.18,1.22,9.25,1.8
		c2.32,0,4.98,0.94,7.27,1.37c2.52,0.48,5.05,0.95,7.58,1.43c4.69,0.88,9.32,1.66,14.11,2.13c5.3,0.52,11,1.44,16.25,0.63
		c1.49-0.23,3.01-0.14,4.52-0.1c4.7,0.11,9.01-0.67,13.45-1.8c0.28-0.07,0.56-0.14,0.84-0.22c4.62-1.21,9.28-2.77,13.15-5.65
		c4.55-3.39,7.84-9.05,6.88-14.64c-0.55-3.2-1.8-6.67-3.43-9.48c-1.57-2.7-3.83-5.02-4.79-8.04c-0.4-1.25-0.54-2.58-0.89-3.84
		c-0.4-1.46-1.07-2.83-1.7-4.21c-2.68-5.89-4.69-12.08-5.99-18.42c-1.19-5.79-0.9-12.18-3.26-17.65c-1.03-2.38-2.06-4.77-3.41-6.98
		c-0.77-1.25-1.64-2.44-2.21-3.79c-0.79-1.87-0.96-3.93-1.4-5.91c-0.68-3.01-1.8-5.91-2.3-8.93c-0.63-3.79-1.27-7.59-1.94-11.38
		c-1.33-7.58-2.75-15.14-4.43-22.64c-0.8-3.55-1.65-7.1-2.5-10.64c-2.26-9.39-4.64-18.53-7.94-27.62
		c-1.43-3.94-2.85-7.88-4.28-11.82c-1.9-5.24-4.1-10.38-5.85-15.65c-1.77-5.34-3.53-10.69-4.98-16.12c-1.24-4.66-2.24-9.4-2.68-14.2
		c-0.22-2.44-0.3-4.89-0.18-7.33c0.05-1.03-0.06-2.45,0.28-3.43c0.46-1.3,0.61-0.45,1.68-0.83c0.35-0.12,0.47-0.55,0.53-0.91
		c0.24-1.31,0.49-2.61,0.73-3.92c0.22-1.19,0.44-2.43,0.07-3.59c-0.35-1.11-1.21-2.01-1.61-3.1c-0.41-1.14-0.29-2.4-0.16-3.61
		c0.13-1.27,0.27-2.55,0.4-3.82c0.04-0.34,0.07-0.68-0.04-1.01c-0.18-0.54-0.71-0.88-1.21-1.16c-6.17-3.49-13.27-5.91-20.43-5.5
		c-7.7,0.45-15.54,3.72-22.95,5.83c-3.02,0.86-6.04,1.83-9.07,2.62c-2.52,0.65-5.02,0.43-7.58,0.42
		C422.21,380,422.17,380,422.13,380z"/>
	
		<linearGradient id="SVGID_1_" gradientUnits="userSpaceOnUse" x1="215.2909" y1="257.6807" x2="535.9188" y2="301.2172" gradientTransform="matrix(1 0 0 -1 0 799.8898)">
		<stop  offset="2.046131e-03" style="stop-color:#2E1038"/>
		<stop  offset="1" style="stop-color:#842E9F;stop-opacity:0"/>
	</linearGradient>
	<path class="st1" d="M422.13,380c-2.61,0.01-5.28,0.43-7.89,0.65c-5.43,0.48-10.87,0.95-16.3,1.43c-1.02,0.09-2.05,0.18-3.07,0.06
		c-0.76-0.09-1.51-0.29-2.25-0.49c-3.01-0.82-5.74-0.96-8.79-0.17c-1.23,0.32-2.47,0.72-3.51,1.47c-0.55,0.4-1.03,0.88-1.62,1.21
		c-0.78,0.43-1.69,0.54-2.57,0.62c-6.37,0.56-12.78,0.04-19.1-0.85c-2.86-0.4-5.91-0.65-8.68-1.44c-2.76-0.78-5.35-2.03-8.09-2.88
		c-3.51-1.09-6.56-0.84-10.15-0.46c-0.86,0.09-1.87,0.3-2.19,1.09c-0.14,0.33-0.11,0.71-0.1,1.07c0.06,1.69-0.14,3.38-0.57,5.01
		c-0.55,2.07-0.16,2.04,0.72,3.84c0.22,0.45,0.31,0.95,0.39,1.45c0.3,1.76,0.6,3.53,0.9,5.29c0.29,1.72,0.59,3.44,0.78,5.17
		c0.67,6.09-0.49,11.43-1.5,17.35c-0.63,3.67-0.72,8.07-0.49,11.76c0.3,4.81,0.74,9.61,1.11,14.42c0.73,9.51,1.47,19.02,2.2,28.53
		c0.41,5.32,0.49,10.71,0.25,16.04c-0.08,1.73-0.19,3.46-0.14,5.2c0.1,3.19,0.78,6.33,1.03,9.51c0.22,2.86,0.34,5.32,1.06,8.13
		c0.49,1.93,0.73,3.92,0.97,5.9c0.29,2.4,0.58,4.81,0.86,7.21c0.28,2.31,0.55,4.65,0.33,6.96c-0.57,6.01-1.22,11.74-1.04,17.83
		c0.24,7.67,0.22,15.35,0.17,23.03c-0.02,3.89-0.05,7.79-0.05,11.68c0,1.84-0.26,3.91,0.04,5.72c0.22,1.32,0.59,2.51,0.71,3.87
		c0.39,4.48,0.26,8.95,0.54,13.46c0.3,4.92,1.17,10.16,0.82,15.05c-0.28,3.9-0.48,7.81-0.27,11.72c0.08,1.48-0.19,3,0.74,4.21
		c0.97,1.27,2.51,2.11,4.02,2.54c2.08,0.6,4.29,0.54,6.46,0.47c1.61-0.05,3.23-0.11,4.8-0.5c0.28-0.07,0.58-0.16,0.78-0.37
		c1.37-1.47-1.51-3.3,1.19-3.93c3.19-0.75,6.7-0.63,9.99-0.74c3.88-0.12,7.76-0.07,11.63,0.14c3.04,0.17,6.08,0.44,9.11,0.72
		c2.45,0.22,5.26,0.14,7.63,0.8c2.4,0.67,4.67,1.62,7.13,2.18c14.42,3.25,29.09,8.42,44.01,8.19c0.4-0.01,0.82-0.02,1.19-0.18
		c1.21-0.52,1.27-2.23,0.85-3.47c-0.43-1.24-1.17-2.49-0.91-3.78c0.17-0.83,6.46-0.09,7.17,0c3.1,0.39,6.18,1.22,9.25,1.8
		c2.32,0,4.98,0.94,7.27,1.37c2.52,0.48,5.05,0.95,7.58,1.43c4.69,0.88,9.32,1.66,14.11,2.13c5.3,0.52,11,1.44,16.25,0.63
		c1.49-0.23,3.01-0.14,4.52-0.1c4.7,0.11,9.01-0.67,13.45-1.8c0.28-0.07,0.56-0.14,0.84-0.22c4.62-1.21,9.28-2.77,13.15-5.65
		c4.55-3.39,7.84-9.05,6.88-14.64c-0.55-3.2-1.8-6.67-3.43-9.48c-1.57-2.7-3.83-5.02-4.79-8.04c-0.4-1.25-0.54-2.58-0.89-3.84
		c-0.4-1.46-1.07-2.83-1.7-4.21c-2.68-5.89-4.69-12.08-5.99-18.42c-1.19-5.79-0.9-12.18-3.26-17.65c-1.03-2.38-2.06-4.77-3.41-6.98
		c-0.77-1.25-1.64-2.44-2.21-3.79c-0.79-1.87-0.96-3.93-1.4-5.91c-0.68-3.01-1.8-5.91-2.3-8.93c-0.63-3.79-1.27-7.59-1.94-11.38
		c-1.33-7.58-2.75-15.14-4.43-22.64c-0.8-3.55-1.65-7.1-2.5-10.64c-2.26-9.39-4.64-18.53-7.94-27.62
		c-1.43-3.94-2.85-7.88-4.28-11.82c-1.9-5.24-4.1-10.38-5.85-15.65c-1.77-5.34-3.53-10.69-4.98-16.12c-1.24-4.66-2.24-9.4-2.68-14.2
		c-0.22-2.44-0.3-4.89-0.18-7.33c0.05-1.03-0.06-2.45,0.28-3.43c0.46-1.3,0.61-0.45,1.68-0.83c0.35-0.12,0.47-0.55,0.53-0.91
		c0.24-1.31,0.49-2.61,0.73-3.92c0.22-1.19,0.44-2.43,0.07-3.59c-0.35-1.11-1.21-2.01-1.61-3.1c-0.41-1.14-0.29-2.4-0.16-3.61
		c0.13-1.27,0.27-2.55,0.4-3.82c0.04-0.34,0.07-0.68-0.04-1.01c-0.18-0.54-0.71-0.88-1.21-1.16c-6.17-3.49-13.27-5.91-20.43-5.5
		c-7.7,0.45-15.54,3.72-22.95,5.83c-3.02,0.86-6.04,1.83-9.07,2.62c-2.52,0.65-5.02,0.43-7.58,0.42
		C422.21,380,422.17,380,422.13,380z"/>
	
		<linearGradient id="SVGID_00000133523235950036867170000000228623056751589554_" gradientUnits="userSpaceOnUse" x1="380.002" y1="408.6463" x2="385.9249" y2="387.2159" gradientTransform="matrix(1 0 0 -1 0 799.8898)">
		<stop  offset="2.046131e-03" style="stop-color:#000000"/>
		<stop  offset="1" style="stop-color:#3574BC;stop-opacity:0"/>
	</linearGradient>
	<path style="fill:url(#SVGID_00000133523235950036867170000000228623056751589554_);" d="M379.67,400.08
		c0.47-0.24,0.94-0.49,1.45-0.59c0.61-0.13,1.24-0.06,1.85-0.16c0.61-0.1,1.25-0.46,1.39-1.06c0.09-0.4-0.02-0.91,0.32-1.13
		c0.13-0.08,0.29-0.1,0.44-0.1c1.91-0.11,3.83,0.01,5.71,0.36c-1.43,1.64-2.98,3.16-4.64,4.56c-1.47,1.24-3.23,2.45-5.15,2.26
		c-1.29-0.13-2.43-0.87-3.68-1.23c-0.76-0.22-1.56-0.29-2.35-0.33c-0.33-0.01-0.66-0.06-0.99-0.07c-0.11,0,0.71-0.52,0.82-0.56
		c0.53-0.19,1.08-0.35,1.61-0.55C377.55,401.08,378.62,400.61,379.67,400.08z"/>
	
		<linearGradient id="SVGID_00000060020087933868476810000003657367711305728684_" gradientUnits="userSpaceOnUse" x1="386.9051" y1="419.8384" x2="402.765" y2="407.023" gradientTransform="matrix(1 0 0 -1 0 799.8898)">
		<stop  offset="2.046131e-03" style="stop-color:#000000"/>
		<stop  offset="1" style="stop-color:#3574BC;stop-opacity:0"/>
	</linearGradient>
	<path style="fill:url(#SVGID_00000060020087933868476810000003657367711305728684_);" d="M388.6,387.14
		c-0.15-0.54-0.11-1.17,0.25-1.61c0.19-0.23,0.46-0.39,0.73-0.54c1.11-0.59,2.32-0.93,3.53-1.27c1.03-0.29,2.07-0.57,3.1-0.84
		c0.85-0.23,1.7-0.45,2.56-0.56c0.5-0.07,1.03-0.09,1.48,0.13c-0.25,0.18-0.16,0.58,0.06,0.8c0.22,0.21,0.52,0.32,0.74,0.53
		c0.23,0.23,0.34,0.55,0.41,0.87c0.14,0.65,0.11,1.33,0.08,2c-0.03,0.63-0.05,1.26-0.08,1.88c-0.01,0.19-0.05,0.44-0.24,0.49
		c-0.08,0.02-0.17-0.01-0.25-0.03c-0.63-0.21-1.26-0.46-1.87-0.73c-0.39-0.17-0.77-0.36-1.19-0.44c-0.39-0.07-0.79-0.04-1.19,0
		c-1.3,0.14-2.58,0.42-3.83,0.83c-0.38,0.12-0.78,0.28-0.97,0.63c-0.29,0.54,0.08,1.17,0.33,1.73c0.29,0.64,0.42,1.36,0.39,2.06
		c-0.89-0.94-1.68-1.97-2.35-3.07c-0.3-0.48-0.53-1.01-0.89-1.44C389.05,388.11,388.75,387.68,388.6,387.14z"/>
	
		<linearGradient id="SVGID_00000096051809624194266240000013757135655765693092_" gradientUnits="userSpaceOnUse" x1="349.5224" y1="397.3414" x2="355.0503" y2="417.0841" gradientTransform="matrix(1 0 0 -1 0 799.8898)">
		<stop  offset="2.046131e-03" style="stop-color:#000000"/>
		<stop  offset="1" style="stop-color:#3574BC;stop-opacity:0"/>
	</linearGradient>
	<path style="fill:url(#SVGID_00000096051809624194266240000013757135655765693092_);" d="M371.62,394
		c-3.27,0.41-6.85-0.22-10.05-0.87c-3.38-0.68-6.7-1.66-10.02-2.58c-3.27-0.9-6.54-1.85-9.83-2.7c-2.49-0.65-6.53-1.95-8.85-0.33
		c-0.31,0.22-0.42,0.78,0,0.97c1.34,0.61,2.84,0.51,4.28,0.77c1.73,0.31,3.44,0.79,5.13,1.28c3.38,0.98,6.75,1.96,10.13,2.94
		c3.2,0.93,6.39,1.89,9.67,2.49c3.37,0.62,6.45,0.44,9.81-0.02C372.97,395.8,372.73,393.87,371.62,394z"/>
	
		<linearGradient id="SVGID_00000018208037208219516050000016445879072391900841_" gradientUnits="userSpaceOnUse" x1="444.6144" y1="433.6525" x2="475.0052" y2="409.0956" gradientTransform="matrix(1 0 0 -1 0 799.8898)">
		<stop  offset="2.046131e-03" style="stop-color:#000000"/>
		<stop  offset="1" style="stop-color:#3574BC;stop-opacity:0"/>
	</linearGradient>
	<path style="fill:url(#SVGID_00000018208037208219516050000016445879072391900841_);" d="M483.65,377.39
		c-3.14-2.1-7.56-2.69-11.22-3.27c-4.22-0.67-8.36-0.73-12.6-0.2c-4.02,0.5-7.96,1.52-11.93,2.31c-2.03,0.4-4.07,0.77-6.12,1.06
		c-2.13,0.3-4.29,0.29-6.41,0.6c-0.61,0.09-0.58,1.09,0,1.2c3.53,0.66,7.48-0.1,10.98-0.69c4.1-0.7,8.17-1.56,12.31-2
		c4.08-0.44,8.04-0.34,12.08,0.44c1.99,0.38,3.96,0.85,5.94,1.3c1.89,0.44,3.79,0.81,5.45,1.86
		C483.78,381.05,485.26,378.46,483.65,377.39z"/>
	
		<linearGradient id="SVGID_00000160889767567319640300000015049469056958805890_" gradientUnits="userSpaceOnUse" x1="406.2902" y1="389.291" x2="396.7435" y2="405.5089" gradientTransform="matrix(1 0 0 -1 0 799.8898)">
		<stop  offset="2.046131e-03" style="stop-color:#000000"/>
		<stop  offset="1" style="stop-color:#3574BC;stop-opacity:0"/>
	</linearGradient>
	<path style="fill:url(#SVGID_00000160889767567319640300000015049469056958805890_);" d="M404.01,398.42
		c-0.15-1.15-0.18-2.82-1.14-3.64c-0.62-0.53-1.64-0.27-1.91,0.4c-0.33,0.18-0.65,0.38-0.99,0.61c-0.58,0.41-1.14,0.9-1.74,1.28
		c-0.27,0.17-0.55,0.27-0.75,0.53c-0.22,0.28-0.31,0.66-0.38,1c-0.13,0.7-0.22,1.42-0.26,2.13c-0.08,1.36,0.1,2.82,0.48,4.13
		c0.31,1.09,0.68,2.32,1.6,3c0.13,0.44,0.41,0.82,0.93,0.96c0.72,0.2,1.58-0.24,1.76-1c0.22-0.94,0.92-1.7,1.47-2.5
		c0.72-1.04,1.08-2.29,1.16-3.55C404.31,400.67,404.15,399.53,404.01,398.42z"/>
	
		<linearGradient id="SVGID_00000089568848121183548970000007852932997181218201_" gradientUnits="userSpaceOnUse" x1="338.5216" y1="400.8929" x2="339.7099" y2="427.3847" gradientTransform="matrix(1 0 0 -1 0 799.8898)">
		<stop  offset="2.046131e-03" style="stop-color:#000000"/>
		<stop  offset="1" style="stop-color:#3574BC;stop-opacity:0"/>
	</linearGradient>
	<path style="fill:url(#SVGID_00000089568848121183548970000007852932997181218201_);" d="M350.65,385.69
		c-1.43-1.07-3.46-1.69-5.2-2.02c-1.99-0.38-3.84-0.04-5.83,0.13c-2.1,0.19-4.18-0.1-6.22-0.6c-0.96-0.24-1.9-0.56-2.84-0.88
		c-0.47-0.16-0.94-0.31-1.42-0.45c-0.27-0.08-0.93-0.41-1.18-0.23c-0.09,0.07-0.15,0.17-0.19,0.28c-0.13,0.33-0.13,0.7-0.13,1.06
		c0,0.12,0,0.24,0.03,0.35c0.19,0.71,1.49,0.88,2.07,1.05c0.88,0.26,1.77,0.47,2.66,0.68c2,0.48,4.04,0.77,6.1,0.74
		c2.04-0.03,4.03-0.51,6.07-0.51s3.96,0.65,5.96,0.72C350.75,386.02,350.77,385.78,350.65,385.69z"/>
	
		<linearGradient id="SVGID_00000165915845554814597220000017465432251275483269_" gradientUnits="userSpaceOnUse" x1="445.5128" y1="403.9543" x2="446.499" y2="421.7061" gradientTransform="matrix(1 0 0 -1 0 799.8898)">
		<stop  offset="2.046131e-03" style="stop-color:#000000"/>
		<stop  offset="1" style="stop-color:#3574BC;stop-opacity:0"/>
	</linearGradient>
	<path style="fill:url(#SVGID_00000165915845554814597220000017465432251275483269_);" d="M485.24,390.53
		c-0.06-0.43-0.22-0.84-0.51-1.2c-1.02-1.29-2.2-2.16-3.66-2.92c-2.26-1.18-4.57-2.28-6.99-3.1c-2.44-0.82-5.07-1.31-7.65-1.22
		c-2.55,0.08-5.06,0.78-7.52,1.41c-2.5,0.64-4.99,1.39-7.6,1.15c-2.66-0.25-4.92-0.88-7.62-0.47c-5.67,0.85-11.26,2.26-16.93,3.11
		c-6.57,0.98-13.36,1.44-20,1.01c-0.39-0.03-0.47,0.59-0.09,0.68c2.53,0.63,4.93,1.1,7.56,1.19c2.7,0.09,5.43-0.05,8.11-0.33
		c5.32-0.56,10.58-1.64,15.81-2.71c2.57-0.53,5.42-1.46,8.07-1.32c1.4,0.07,2.62,0.73,3.96,1.02c1.08,0.23,2.22,0.27,3.32,0.2
		c5.02-0.32,9.67-3.07,14.76-2.43c2.31,0.29,4.5,1.12,6.61,2.08c2.03,0.93,4.04,1.78,5.87,3.1c1.36,0.98,2.59,2.2,3.36,3.69
		c0.07,0.13,0.15,0.27,0.29,0.31c0.26,0.07,0.44-0.25,0.5-0.51C485.11,392.36,485.37,391.4,485.24,390.53z"/>
	
		<linearGradient id="SVGID_00000005238810741140908430000009854927834295844236_" gradientUnits="userSpaceOnUse" x1="394.443" y1="376.9399" x2="391.0111" y2="414.6181" gradientTransform="matrix(1 0 0 -1 0 799.8898)">
		<stop  offset="2.046131e-03" style="stop-color:#000000"/>
		<stop  offset="1" style="stop-color:#3574BC;stop-opacity:0"/>
	</linearGradient>
	<path style="fill:url(#SVGID_00000005238810741140908430000009854927834295844236_);" d="M392.69,397.43
		c-1.87,0.63-3.24,2.53-4.72,3.82c-1.46,1.27-3.09,2.47-5.09,2.6c-2.13,0.14-4.21-0.61-6.26-1.08c-1.93-0.44-3.24-0.55-5.09,0.3
		c-0.27,0.13-0.55,0.25-0.82,0.38c0.99,1.2,2.86,1.11,4.23,1.59c1.55,0.54,3.02,1.28,4.53,1.92c1.81,0.77,3.69,1.63,5.64,1.41
		c2.78-0.31,4.98-2.75,7.77-3c0.23-0.02,0.46-0.03,0.68,0.04c0.33,0.1,0.59,0.35,0.85,0.59c1.45,1.35,3.06,2.53,4.67,3.7
		c0.3,0.22,0.61,0.44,0.97,0.49c0.48,0.06,0.93-0.18,1.35-0.42c3.04-1.75,6.03-3.58,8.98-5.48c0.12-0.07,0.24-0.16,0.29-0.29
		c0.09-0.23-0.11-0.46-0.27-0.65c-1.28-1.51-0.97-3.83-0.04-5.57s2.35-3.18,3.3-4.91c-2.52-0.02-5.04,0.22-7.51,0.7
		c-0.17,0.03-0.37,0.08-0.46,0.23c-0.07,0.11-0.07,0.26-0.06,0.4c0.09,1.46,0.18,2.93,0.46,4.36c0.29,1.5,0.79,3.1,0.2,4.51
		c-0.47,1.15-1.55,1.9-2.53,2.66c-1.3,1-2.52,2.12-3.63,3.32c-1.16-0.92-1.6-2.28-2.23-3.55c-0.67-1.35-1.51-2.62-2.04-4.04
		c-0.42-1.11-0.63-2.29-0.64-3.47c0-0.17,0-0.34-0.1-0.48c-0.11-0.16-0.33-0.21-0.52-0.24
		C393.88,397.16,393.27,397.24,392.69,397.43z"/>
	
		<linearGradient id="SVGID_00000081616875886591959520000001318721622407789497_" gradientUnits="userSpaceOnUse" x1="450.2027" y1="390.773" x2="451.1421" y2="418.8839" gradientTransform="matrix(1 0 0 -1 0 799.8898)">
		<stop  offset="2.046131e-03" style="stop-color:#000000"/>
		<stop  offset="1" style="stop-color:#3574BC;stop-opacity:0"/>
	</linearGradient>
	<path style="fill:url(#SVGID_00000081616875886591959520000001318721622407789497_);" d="M482.49,396.85
		c-1.16-1.98-2.9-3.66-5.01-4.59c-2.44-1.07-5.15-1.2-7.76-1.51c-5.89-0.7-11.81-1.3-17.75-1.21c-1.31,0.02-2.66,0.01-3.94,0.31
		c-0.49,0.11-0.95,0.36-1.43,0.46c-0.83,0.17-1.49-0.05-2.29-0.21c-2.7-0.52-5.39-0.19-8.09,0.09c-3.02,0.31-6.02,0.66-9.03,1.05
		c-1.28,0.17-2.54,0.35-3.8,0.61c-1.57,0.32-3.07,0.9-4.62,1.22c-0.18,0.04-0.14,0.32,0.04,0.32c2.81,0.05,5.54,0.42,8.38,0.26
		c2.8-0.16,5.59-0.34,8.38-0.58c2.63-0.22,5.33-0.6,7.96-0.14c1.01,0.18,1.98,0.46,3.01,0.33c1.14-0.14,2.14-0.67,3.3-0.77
		c5.31-0.42,10.81,0.2,16.09,0.75c2.69,0.28,5.38,0.56,8.06,0.94c2.81,0.4,5.02,1.29,6.25,3.99
		C480.91,399.67,483.35,398.33,482.49,396.85z"/>
	
		<linearGradient id="SVGID_00000160179034965978805770000004029227409380013981_" gradientUnits="userSpaceOnUse" x1="348.9251" y1="392.4" x2="351.6777" y2="413.7701" gradientTransform="matrix(1 0 0 -1 0 799.8898)">
		<stop  offset="2.046131e-03" style="stop-color:#000000"/>
		<stop  offset="1" style="stop-color:#3574BC;stop-opacity:0"/>
	</linearGradient>
	<path style="fill:url(#SVGID_00000160179034965978805770000004029227409380013981_);" d="M372.56,395.45
		c-1.81,0.43-3.59,1.09-5.45,1.24c-1.82,0.14-3.7,0.06-5.52-0.12c-3.92-0.4-7.82-1.22-11.63-2.21c-3.62-0.95-7.16-2.15-10.62-3.59
		c-3.26-1.35-6.65-2.59-10.13-1.22c-1.76,0.69-0.97,3.57,0.79,2.86c3.68-1.5,7.41,0.64,10.84,1.92c3.7,1.38,7.51,2.54,11.35,3.42
		c3.68,0.85,7.49,1.58,11.28,1.76c3.27,0.15,7.49-0.43,9.64-3.13C373.43,395.95,373.13,395.31,372.56,395.45z"/>
	
		<linearGradient id="SVGID_00000019655063671327204690000016234764257865383615_" gradientUnits="userSpaceOnUse" x1="554.7152" y1="295.0009" x2="431.889" y2="271.954" gradientTransform="matrix(1 0 0 -1 0 799.8898)">
		<stop  offset="2.046131e-03" style="stop-color:#000000"/>
		<stop  offset="1" style="stop-color:#3574BC;stop-opacity:0"/>
	</linearGradient>
	<path style="fill:url(#SVGID_00000019655063671327204690000016234764257865383615_);" d="M502.81,477.32
		c-0.46-1.89-0.96-3.77-1.56-5.62c-0.73-2.28-1.66-4.5-2.54-6.73c-1.15-2.94-2.21-5.92-3.27-8.89c-1.37-3.84-2.73-7.68-4.1-11.52
		c-1.19-3.34-2.38-6.69-3.25-10.13c-0.82-3.25-2.11-6.18-3.01-9.39c-1.24-4.41-1.9-8.95-2.55-13.48c-0.29-2.04-0.59-4.09-0.62-6.16
		c-0.03-2,0.19-4.01,0.03-6c-0.16-2-0.73-4.05-2.11-5.5c-1.85-1.94-4.72-2.44-7.38-2.77c-14.03-1.73-28.27-1.76-42.3-0.1
		c1.83,0.42,3.4,1.55,4.92,2.65c4.4,3.19,8.66,6.71,13.32,9.46c4.52,2.67,9.16,5.12,13.91,7.34c6.36,2.97,8.91,6.35,12.27,12.54
		c1.01,1.86,1.97,3.85,1.94,5.96c-0.08,6.1-4,14.21-7.18,19.33c-3.85,6.19-9.17,11.49-15.46,15.17c-0.67,0.39-1.39,0.78-2.17,0.77
		c-0.87-0.01-1.64-0.52-2.38-0.97c-9.96-6.06-24.01-4.29-32.16,4.06c4.88,1.19,9.76,2.38,14.65,3.57c1.6,0.39,3.22,0.78,4.87,0.79
		c1.81,0.01,3.58-0.45,5.36-0.75c5.5-0.94,12.97-0.83,17.83,2.36c3.46,2.27,3.71,7.09,4.53,11.14c1.23,6.08,4.52,11.6,8.82,16.01
		c2,2.05,4.22,3.5,6.51,5.14c2.56,1.84,5.48,2.55,8.31,3.84c1.87,0.85,3.58,2.04,5.49,2.82c2.02,0.82,4.22,1.17,6.39,1.01
		c0.19-0.01,0.4-0.04,0.55-0.17c0.17-0.17,0.19-0.44,0.18-0.68c-0.08-2.32-0.87-4.54-1.61-6.74c-1.58-4.68-2.95-9.42-4.13-14.22
		c5.71,2.6,9.78,9.31,10.83,15.23c1.32,7.41,0.9,15.04,2.68,22.38c1.05,4.32,2.84,8.42,4.62,12.49c2.52,5.77,6.95,11.4,6.95,17.94
		c0,0.2-0.03,0.44-0.2,0.53c-0.12,0.06-0.26,0.04-0.39,0.01c-2.46-0.57-4.77-1.8-6.63-3.52c-0.45-0.42-0.88-0.87-1.43-1.15
		c-1.62-0.83-3.77-0.33-5.52-0.29c-1.89,0.05-3.78-0.29-5.65-0.53c-4.42-0.57-8.83-1.17-13.21-1.98c-4.35-0.8-8.67-1.81-12.88-3.19
		c-2.09-0.69-4.14-1.46-6.15-2.35c-1.59-0.7-4.43-1.56-5.6-2.86c7.12,7.88,16.38,13.45,25.5,18.91c4.68,2.8,9.39,5.61,14.52,7.45
		c3.43,1.23,7.21,2.13,9.66,4.82c1.91,2.11,3.48,5.21,4.61,7.81c1.03,2.37,0.82,4.85,0.95,7.37c0.2,3.83,1.38,7.56,2.4,11.24
		c0.9,3.25,2.13,5.16,1.65,8.72c-12.03,0.4-23.79-3.19-35.29-6.74c4.57,2.31,9.19,4.66,12.99,8.09c1.81,1.64,3.41,3.5,5.22,5.13
		c7.61,6.87,18.14,9.15,27.85,12.44c0.98,0.33,2.09,0.81,2.36,1.81c0.17,0.63-0.04,1.3-0.28,1.91c-2.39,6.17-6.87,11.51-12.54,14.94
		c5.52-0.4,10.92-2.28,15.49-5.39c1.01-0.69,1.99-1.43,2.91-2.24c2.6-2.29,4.81-5.21,5.45-8.61c0.53-2.8-0.04-5.69-0.9-8.4
		c-0.68-2.16-1.55-4.28-2.75-6.2c-4.22-6.77-6.74-14.58-9.85-21.99c-0.81-1.93-1.62-3.87-2.21-5.88c-0.55-1.89-0.91-3.84-1.25-5.79
		c-0.48-2.71-0.95-5.43-1.21-8.18c-0.19-1.96-0.28-3.93-0.61-5.86c-0.65-3.77-2.32-6.76-4.29-9.96c-1.89-3.08-2.65-7-3.73-10.44
		c-0.56-1.79-1.13-3.59-1.44-5.44c-0.33-1.97-0.37-3.99-0.76-5.95c-0.57-2.88-1.87-5.56-2.59-8.4c-0.38-1.51-0.6-3.06-0.82-4.6
		c-0.83-5.88-1.9-11.51-3.21-17.29C507.88,497.37,505.24,487.37,502.81,477.32z"/>
	
		<linearGradient id="SVGID_00000020368397046177348060000000787230383733841025_" gradientUnits="userSpaceOnUse" x1="196.8575" y1="263.1296" x2="562.9496" y2="303.4945" gradientTransform="matrix(1 0 0 -1 0 799.8898)">
		<stop  offset="2.046131e-03" style="stop-color:#000000"/>
		<stop  offset="8.518680e-03" style="stop-color:#000101;stop-opacity:0.9935"/>
		<stop  offset="0.4987" style="stop-color:#1C3E65;stop-opacity:0.5024"/>
		<stop  offset="0.8393" style="stop-color:#2E65A4;stop-opacity:0.161"/>
		<stop  offset="1" style="stop-color:#3574BC;stop-opacity:0"/>
	</linearGradient>
	<path style="fill:url(#SVGID_00000020368397046177348060000000787230383733841025_);" d="M404.77,633.35
		c-0.24-0.14-0.48-0.28-0.73-0.41c-2.28-1.22-4.75-2.02-7.09-3.11c-4.75-2.2-9.28-5.75-13.35-9.02c-2.91-2.34-5.82-4.7-8.5-7.31
		c-0.16-0.16-0.32-0.31-0.48-0.47c-1.85-1.84-3.45-3.91-4.34-6.39c-0.94-2.61-1.25-5.38-1.39-8.14c-0.3-6.04-0.4-12.04-1.02-18.06
		c-0.37-3.55-0.86-7.08-1.43-10.6c-0.22-1.38-0.92-3.82,1.06-2.17c1.31,1.09,2.78,1.92,4.22,2.83c3.19,2.01,6.1,4.43,9.33,6.38
		c0.92,0,2.88,1.59,3.77,2.02c1.27,0.61,2.66,1.06,3.9,1.72c2.29,1.21,4.61,1.92,7.11,2.69c-0.18-0.76-0.77-1.34-1.33-1.9
		c-3.69-3.67-6.72-8.01-8.9-12.74c-1.1-2.39-2-4.9-3.54-7.03c-1.8-2.5-4.36-4.33-6.75-6.28c-1.57-1.28-3.07-2.63-4.52-4.05
		c-1.18-1.16-2.59-2.11-3.63-3.39c-3.01-3.73-2.71-8.5-3.22-13.02c-0.31-2.67-0.61-5.36-1.29-7.96c-0.67-2.59-1.69-5.07-2.4-7.65
		c-0.91-3.33-1.28-6.77-1.65-10.2c-0.13-1.25-0.27-2.51-0.4-3.76c2.4,1.36,4.79,2.72,7.19,4.08c1.09-1.29,0.5-3.22,0.33-4.9
		c-0.19-1.85,0.19-3.69,0.18-5.54c-0.01-1.49-0.21-3.06-0.34-4.55c-0.38-4.17-1.12-8.35-1.93-12.46c-0.84-4.29-1.84-8.55-2.98-12.76
		c-0.55-2.03-1.21-4.02-1.84-6.02c-1.93-6.13-0.54-12.63-0.02-18.93c8.08,1.22,13.61,8.45,19.51,14.1
		c10.32,9.88,23.81,16.03,33.79,26.23c-2.06-4.74-4.13-9.52-5.22-14.57c-0.58-2.68-0.87-5.42-1.35-8.12
		c-1.23-6.91-3.68-13.54-6.12-20.13c2.13,2.31,4.42,4.73,7.45,5.56c1.26,0.35,2.58,0.4,3.87,0.56c4.77,0.57,9.24,2.53,13.64,4.46
		c-3.87-3.14-6.96-7.25-8.91-11.84c-1.86-4.37-2.8-9.35-6.12-12.74c-3.26-3.34-8.12-4.44-12.69-5.39
		c-3.92-0.81-7.84-1.62-11.76-2.43c-4.19-0.87-8.49-1.78-12.05-4.15s-6.25-6.57-5.55-10.79c0.56,0.05,1.12,0.11,1.68,0.16
		c-4.19-2.78-8.95-4.7-13.89-5.61c-2.99-0.55-6.25-0.82-8.58-2.78c0.2-0.38,0.4-0.76,0.6-1.14c0.29-0.54-7.84-4.94-8.84-5.33
		c-2.43-0.94-5.01-2.04-7.67-1.8c-0.28,0.03-0.57,0.08-0.8,0.23c-0.42,0.28-0.56,0.82-0.65,1.31c-0.58,3.03-0.02,5.92,0.34,8.95
		c0.6,5.1,1.55,9.75,0.46,14.87c-0.65,3.05-1.58,6.05-1.89,9.16c-0.17,1.64-0.16,3.3-0.15,4.95c0.01,1.98,0.02,3.95,0.15,5.93
		c0.1,1.51,0.63,2.86,0.74,4.33c0.31,4,0.42,8,0.78,12c0.72,7.99,1.7,15.96,2.08,23.97c0.04,0.8,0.07,1.6,0.09,2.4
		c0.23,7.54-0.15,15.08,0.18,22.61c0.3,7.04,1.75,13.98,2.72,20.97c2.05,14.67-0.08,29.57-0.35,44.38
		c-0.07,3.57-0.02,7.15,0.13,10.72c0.08,1.78,0.18,3.57,0.31,5.35c0.09,1.18,0.49,2.25,0.58,3.41c0.28,3.45,0.06,7.02,0.14,10.49
		c0.08,3.5,0.18,6.99,0.3,10.48c0.08,2.52-0.12,5.26,0.34,7.74c0.4,2.19,0.24,4.16,0.17,6.4c-0.17,5.38,0.15,10.76,0.55,16.13
		c0.14,1.93,0.45,4.13,2.06,5.2c0.72,0.48,1.6,0.64,2.45,0.8c4.26,0.78,8.22,1.19,12.56,1.07c-0.4-1.39-0.8-2.77-1.2-4.16
		c7.53-1.75,15.36-1.5,23.09-1.24c4.55,0.15,9.11,0.3,13.59,1.1c5.24,0.94,10.27,2.72,15.39,4.11c2.36,0.64,4.7,1.04,7.09,1.41
		c1.62,0.25,5.92,0.94,7.02,2.23c-2.97-3.48-6.28-6.68-9.86-9.53C407.62,635.22,406.24,634.21,404.77,633.35z"/>
	
		<linearGradient id="SVGID_00000083089766012464246930000016871520576226264492_" gradientUnits="userSpaceOnUse" x1="421.3215" y1="259.113" x2="430.0754" y2="200.7058" gradientTransform="matrix(1 0 0 -1 0 799.8898)">
		<stop  offset="2.046131e-03" style="stop-color:#000000"/>
		<stop  offset="1" style="stop-color:#3574BC;stop-opacity:0"/>
	</linearGradient>
	<path style="fill:url(#SVGID_00000083089766012464246930000016871520576226264492_);" d="M406.74,582.15
		c2.36,0.99,4.82,1.89,7.38,1.88c4.91,0,9.04-3.16,13.1-5.51c4.16-2.4,10.28-5.41,12.14,1.11c0.5,1.75,0.57,3.59,1.04,5.35
		c0.53,1.95,1.55,3.74,2.21,5.65c0.99,2.88,1.13,6,1.98,8.92c1.1,3.79,3.33,7.13,5.54,10.4c-0.13-1.91,1.32-3.65,3.05-4.45
		c1.74-0.8,3.72-0.86,5.63-0.85c0.79,0,1.64,0,2.26-0.48c0.39-0.3,0.63-0.74,0.86-1.17c1.08-2.04,2.08-4.11,3-6.23
		c0.63-1.44,1.22-2.91,1.41-4.47c0.3-2.49-1.01-4.84-1.44-7.26c-0.53-3.01-0.74-6.08-0.63-9.13c0.1-2.64,0.44-5.32-0.12-7.91
		c-0.14-0.65-0.35-1.31-0.83-1.77c-0.43-0.4-1.01-0.58-1.57-0.75c-4.57-1.38-9.16-2.76-13.84-3.72c-2.41-0.49-4.99-0.86-7.25,0.12
		c-2.6,1.12-4.15,3.75-6.19,5.71c-4.86,4.67-12.19,5.35-18.91,5.74c-4.45,0.26-9.02,0.5-13.27-0.85
		c-5.92-1.87-10.54-6.59-16.32-8.87c2.32,3.63,4.44,8.5,7.66,11.41C397.15,578.19,402.44,580.33,406.74,582.15z"/>
	
		<linearGradient id="SVGID_00000090253883848844359730000002877634650083709627_" gradientUnits="userSpaceOnUse" x1="504.9557" y1="187.4914" x2="424.018" y2="175.5804" gradientTransform="matrix(1 0 0 -1 0 799.8898)">
		<stop  offset="2.046131e-03" style="stop-color:#000000"/>
		<stop  offset="1" style="stop-color:#3574BC;stop-opacity:0"/>
	</linearGradient>
	<path style="fill:url(#SVGID_00000090253883848844359730000002877634650083709627_);" d="M436.52,620.56
		c0.83,3.34,1.67,6.68,2.78,9.94c1.58,4.63,3.73,9.06,6.38,13.17c-0.65-0.59-0.28-1.77,0.48-2.22c0.76-0.45,1.7-0.38,2.57-0.28
		c11.48,1.28,22.59,5.02,34.09,6.08c-6.58-5.24-13.62-9.89-21.02-13.89c-1.12-0.61-2.38-1.37-2.57-2.63
		c-0.11-0.71,0.16-1.42,0.35-2.11c0.96-3.59-0.39-7.44-2.49-10.5c-1.36-1.98-3.09-3.89-3.33-6.28c6.11,2.63,12.48,4.65,18.98,6.03
		c-2.02-1.24-4.18-2.65-4.95-4.89c-0.43-1.25-0.39-2.67-1.13-3.76c-0.98-1.45-2.93-1.76-4.64-2.13c-3.49-0.75-6.86-2.25-9.56-4.6
		c-1.28-1.11-2.39-2.39-3.5-3.67c-2.5-2.89-5-5.78-7.51-8.67c1.81,5.97,4.06,11.82,6.72,17.46c0.36,0.77,0.74,1.56,0.83,2.4
		c0.09,0.85-0.18,1.78-0.88,2.27c-0.47,0.33-1.06,0.41-1.63,0.43c-2.05,0.07-3.89-0.64-5.76-1.38c-1.16-0.46-2.77-1.29-4.05-0.9
		C433.05,611.53,435.94,618.22,436.52,620.56z"/>
	
		<linearGradient id="SVGID_00000175284333469674128960000000686986582400090547_" gradientUnits="userSpaceOnUse" x1="473.1785" y1="320.7784" x2="458.1829" y2="254.1312" gradientTransform="matrix(1 0 0 -1 0 799.8898)">
		<stop  offset="2.046131e-03" style="stop-color:#000000"/>
		<stop  offset="1" style="stop-color:#3574BC;stop-opacity:0"/>
	</linearGradient>
	<path style="fill:url(#SVGID_00000175284333469674128960000000686986582400090547_);" d="M445.55,512.53
		c8.44,3.41,17.63,4.3,26.59,5.91c4.81,0.87,9.65,1.98,14,4.23c6.52,3.37,11.49,9.03,16.31,14.57c-2.34-3.27-6.28-5.1-10.25-5.75
		s-8.03-0.28-12.03,0.07c-5.47,0.47-10.95,0.87-16.42,1.27c-2.44,0.18-4.92,0.36-7.31-0.16c-2.84-0.62-5.37-2.18-7.84-3.72
		c-5.79-3.6-11.58-7.2-17.37-10.8c2.81,0.55,5.73,0.52,8.54-0.07c-1.69,0.36-7.43-7.86-8.4-9.2c-1.36-1.88-6.38-7.88-4.85-10.13
		c3,1.93,5.46,5.58,8.47,7.83C438.23,509,441.79,511.01,445.55,512.53z"/>
	
		<linearGradient id="SVGID_00000107568765565005898010000014730892028863589546_" gradientUnits="userSpaceOnUse" x1="412.3751" y1="314.6138" x2="379.3928" y2="261.9545" gradientTransform="matrix(1 0 0 -1 0 799.8898)">
		<stop  offset="2.046131e-03" style="stop-color:#000000"/>
		<stop  offset="1" style="stop-color:#3574BC;stop-opacity:0"/>
	</linearGradient>
	<path style="fill:url(#SVGID_00000107568765565005898010000014730892028863589546_);" d="M396.59,525.79
		c7.58,2.7,15.46,4.58,22.87,7.73c-4.67-4.67-10.22-8.47-16.27-11.12c-2.95-1.29-6.08-2.35-8.57-4.41
		c-2.11-1.75-3.61-4.11-5.23-6.33c-5.29-7.26-12.08-13.26-18.81-19.21c2.39,3.45,3.3,7.9,2.46,12.01c-0.05,0.24-0.11,0.5-0.26,0.69
		c-0.3,0.37-0.83,0.43-1.26,0.64c-2.05,0.97-3.14,4.34-1.73,6.01c1.95,2.31,6.04,4.06,8.64,5.57
		C384.2,520.72,390.29,523.54,396.59,525.79z"/>
	
		<linearGradient id="SVGID_00000147220771535974882540000012535759443025057153_" gradientUnits="userSpaceOnUse" x1="454.4072" y1="420.1918" x2="455.4241" y2="410.7857" gradientTransform="matrix(1 0 0 -1 0 799.8898)">
		<stop  offset="2.046131e-03" style="stop-color:#000000"/>
		<stop  offset="1" style="stop-color:#3574BC;stop-opacity:0"/>
	</linearGradient>
	<path style="fill:url(#SVGID_00000147220771535974882540000012535759443025057153_);" d="M447.57,383.72
		c1.79,0.62,3.72,0.84,5.6,0.65c1.01-0.11,2-0.33,2.99-0.56c1.21-0.28,2.42-0.57,3.63-0.87c0.75-0.18,1.52-0.38,2.15-0.83
		c-0.25,0.18-1.16,0.07-1.47,0.09c-0.51,0.03-1.02,0.07-1.53,0.1c-1.04,0.07-2.07,0.15-3.1,0.24c-1.95,0.16-3.89,0.33-5.83,0.55
		C449.16,383.18,448.28,383.24,447.57,383.72z"/>
	
		<linearGradient id="SVGID_00000035489424612574564640000015107786425389760154_" gradientUnits="userSpaceOnUse" x1="270.5473" y1="284.5128" x2="665.6171" y2="289.0979" gradientTransform="matrix(1 0 0 -1 0 799.8898)">
		<stop  offset="0" style="stop-color:#210C29;stop-opacity:0.5"/>
		<stop  offset="0.1381" style="stop-color:#231536;stop-opacity:0.4309"/>
		<stop  offset="0.3912" style="stop-color:#272C57;stop-opacity:0.3043"/>
		<stop  offset="0.7284" style="stop-color:#2E528C;stop-opacity:0.1356"/>
		<stop  offset="0.9994" style="stop-color:#3574BC;stop-opacity:0"/>
	</linearGradient>
	<path style="fill:url(#SVGID_00000035489424612574564640000015107786425389760154_);" d="M431.96,521.37
		c-0.14-4.8-1.04-9.57-2.63-14.09c-1.45-4.13-5.12-8.41-4.66-12.93c1.17,0.63,2,1.73,2.89,2.73c4.53,5.08,11.1,7.86,17.68,9.61
		c6.58,1.74,13.38,2.61,19.86,4.7c-3.36-3.88-6.85-7.68-10.71-11.07c-2.03-1.78-4.18-3.47-5.85-5.6c-1.66-2.13-2.82-4.81-2.49-7.5
		c0.3-2.38,1.7-4.46,2.5-6.73c1.36-3.9,0.55-7.47-1.01-11.12c-1.85-4.35-3.51-8.82-5.17-13.25c-2.63-7.01-4.62-14.25-6.14-21.57
		c-0.3-1.42-0.75-2.93-0.86-4.38c-0.09-1.2,0.12-1.99-1.06-2.8c-0.66-0.46-1.45-0.69-2.23-0.93c-4.62-1.45-9.05-3.48-13.14-6.05
		c-1.67-1.04-3.3-2.19-4.59-3.67c0.94-0.72,2.27-0.28,3.38,0.12c1.86,0.67,3.78,1.16,5.73,1.47c1.18,0.19,2.49,0.27,3.46-0.42
		c0.5-0.36,0.85-0.88,1.21-1.37c4.78-6.57,12.06-6.42,19.42-6.46c-1.11-1.17-2.72-1.7-4.27-2.15c-1.89-0.55-3.82-1.05-5.53-2.01
		c-1.11-0.62-2.12-1.42-3.3-1.89c-1.1-0.44-2.3-0.56-3.48-0.69c-4.09-0.42-8.17-0.84-12.26-1.27c4.75-2.89,10.72-2.45,16.12-3.75
		c1.07-0.26,2.21-0.64,2.83-1.55c0.5-0.73,0.56-1.67,0.85-2.51c0.5-1.45,1.64-2.58,2.74-3.65c-3.52-1-7.37,0.92-10.9-0.04
		c-0.48-0.13-0.99-0.35-1.23-0.78c-0.47-0.84,0.28-1.97-0.15-2.83c-0.99,0.1-2,0.06-2.98-0.13c-0.33-0.06-0.7-0.17-0.86-0.47
		c-0.13-0.23-0.1-0.51-0.06-0.77c0.16-1.2,0.32-2.41,0.48-3.61c0.04-0.33,0.08-0.7-0.12-0.96c-0.23-0.3-0.67-0.34-1.05-0.34
		c-4.81-0.06-9.63,0.06-14.44,0.35c-4.4,0.27-8.88,1.16-13.27,1.2c-1.02,0.01-2.02-0.23-3.02-0.43c-2.66-0.54-5.38-0.85-8.09-0.92
		c-1.03-0.03-2.09-0.01-3.02,0.44c-1.1,0.53-1.83,1.59-2.79,2.34c-1.79,1.41-4.21,1.68-6.49,1.72c-14.44,0.25-28.28-6.3-42.71-6.58
		c-1-0.02-2.22,0.12-2.64,1.03c-0.29,0.61-0.08,1.33-0.07,2.01c0.03,2.51-1.18,4.81-0.37,7.38c0.1,0.34,0.25,0.66,0.38,0.99
		c0.18,0.49,0.3,1.01,0.42,1.52c1.29,5.49,2.59,11.05,2.38,16.69c-0.15,4.15-1.12,8.21-1.81,12.29c-0.32,1.9-1.01,4.37-0.67,6.28
		c0.31,1.75,1.48,3.65,2.15,5.3c1.33,3.28,1.7,6.81,3.32,10.11c3.4,6.93,8.5,13.09,10.31,20.73c1.09,4.6,0.84,9.4,0.59,14.13
		c-0.84,15.84-1.68,31.69-2.51,47.53c-0.11,2.1-0.28,4.01,0.5,5.95c0.85,2.11,1.18,4.34,1.18,6.62c0.01,4.7-1.32,9.31-2.85,13.72
		c-2.32,6.67-5.14,13.51-4.45,20.54c0.48,4.84,2.59,9.35,4.13,13.97c5.35,16.04,3.84,33.72,8.93,49.84
		c0.16,0.51,0.33,1.02,0.69,1.42c1.56,1.74,5.72,0.28,7.73,0.23c4.56-0.11,9.14-0.45,13.69-0.45c2.69,0,5.28,0.17,7.94,0.36
		c3.36,0.25,6.77,0.49,10,1.41c4.31,1.22,8.7,1.75,13.08,2.46c4.58,0.74,9.15,2.47,13.66,3.59c9.17,2.28,18.47,4.16,27.92,4.81
		c0.51,0.03,1.04,0.06,1.5-0.17c0.65-0.33,0.95-1.12,0.91-1.84s-0.34-1.4-0.65-2.06c-3.16-6.79-7.02-13.08-8.49-20.53
		c-1.62-8.16-2.88-16.5-4.1-24.73c-0.62-4.23-1.15-8.48-1.57-12.74c-0.3-3-1.95-8.57,0.29-11.07c0.97-1.08,2.51-1.62,3.93-1.37
		c0.63,0.11,1.32,0.35,1.87,0.02c0.84-0.5,0.57-1.76,0.37-2.72c-0.51-2.44,0.26-5.12,2-6.92c0.56,0.84,0.28,1.96,0.43,2.96
		c0.22,1.42,1.34,2.57,2.61,3.24s2.7,0.96,4.09,1.33c8.2,2.17,15.36,7.24,23.45,9.78c-1.83-2.01-3.31-4.34-4.34-6.85
		c-1.56-3.79-2.15-8.02-4.47-11.39c-1.23-1.78-2.88-3.23-4.58-4.56c-1.37-1.07-2.8-2.1-4.41-2.76c-1.04-0.43-2.16-0.7-3.11-1.3
		c-5-3.19-10.78-5.43-16.01-8.42c-5.57-3.19-10.92-6.75-16.01-10.66c0.88,0.67,3.86,0.68,5.02,0.98c1.84,0.48,3.66,1.05,5.5,1.53
		c1.5,0.39,8.71,2.77,7.47-0.9c-0.51-1.52-1.45-2.86-2.18-4.29C431.6,529.68,432.09,525.75,431.96,521.37z"/>
	
		<linearGradient id="SVGID_00000138574079955218439950000015142227635591410344_" gradientUnits="userSpaceOnUse" x1="441.9214" y1="422.6218" x2="442.6588" y2="412.5097" gradientTransform="matrix(1 0 0 -1 0 799.8898)">
		<stop  offset="0" style="stop-color:#842E9F"/>
		<stop  offset="0.9988" style="stop-color:#CC79E6;stop-opacity:0"/>
	</linearGradient>
	<path style="fill:url(#SVGID_00000138574079955218439950000015142227635591410344_);" d="M483.4,379.96
		c-1.75-1.54-3.94-1.87-6.16-2.27c-2.61-0.47-5.21-1.04-7.82-1.48c-5.55-0.94-10.78-0.29-16.24,0.87
		c-11.1,2.35-22.34,2.95-33.65,3.45c-3.17,0.14-6.35,0.31-9.52,0.45c-3.11,0.14-6.34-0.02-9.27,1.11c-0.35,0.14-0.38,0.62,0,0.75
		c2.43,0.79,4.85,0.65,7.38,0.64c2.75-0.02,5.49-0.01,8.24-0.04c5.3-0.05,10.59-0.25,15.88-0.62c5.3-0.37,10.6-0.91,15.84-1.78
		c5.2-0.86,10.47-2.07,15.77-1.99c2.99,0.04,5.9,0.69,8.82,1.3c1.62,0.33,3.07,0.87,4.65,1.22c1.14,0.25,2.02,1.14,3.06,1.68
		c0.64,0.33,1.36,0.53,1.92,0.99c0.09,0.07,0.17,0.14,0.27,0.18c0.56,0.2,0.62-0.5,0.74-0.81c0.14-0.37,0.26-0.76,0.41-1.13
		C484.09,381.53,484.31,380.75,483.4,379.96z"/>
	
		<linearGradient id="SVGID_00000052073370952120720780000010683260334802328977_" gradientUnits="userSpaceOnUse" x1="387.2196" y1="418.3571" x2="387.9568" y2="408.2465" gradientTransform="matrix(1 0 0 -1 0 799.8898)">
		<stop  offset="0" style="stop-color:#842E9F"/>
		<stop  offset="0.9988" style="stop-color:#CC79E6;stop-opacity:0"/>
	</linearGradient>
	<path style="fill:url(#SVGID_00000052073370952120720780000010683260334802328977_);" d="M394.81,381.91
		c-0.66,0.2-1.11-0.02-1.78-0.12c-0.71-0.1-1.42-0.2-2.13-0.29c-1.26-0.15-2.51-0.1-3.77,0.05c-2.62,0.31-5.28,1.03-7.48,2.53
		c-0.45,0.31-0.82,0.93-0.61,1.49c0.42,1.13,0.98,2.22,1.48,3.31c0.24,0.52,0.47,1.04,0.73,1.55c0.28,0.54,0.8,0.98,1.05,1.52
		c0.08,0.18,0.33,0.04,0.3-0.13c-0.1-0.51,0.06-1.1,0-1.62c-0.06-0.59-0.2-1.18-0.31-1.77c-0.16-0.83-0.3-1.67-0.47-2.5
		c1.87-0.93,3.83-1.56,5.93-1.75c1.21-0.11,2.44-0.12,3.65-0.11c0.62,0.01,1.22,0.03,1.83-0.05c0.69-0.08,1.33-0.38,2.01-0.56
		C396.26,383.23,395.81,381.6,394.81,381.91z"/>
	
		<linearGradient id="SVGID_00000049930564066530139380000011929008701729054649_" gradientUnits="userSpaceOnUse" x1="401.6671" y1="411.8403" x2="403.188" y2="390.9823" gradientTransform="matrix(1 0 0 -1 0 799.8898)">
		<stop  offset="0" style="stop-color:#842E9F"/>
		<stop  offset="0.9988" style="stop-color:#CC79E6;stop-opacity:0"/>
	</linearGradient>
	<path style="fill:url(#SVGID_00000049930564066530139380000011929008701729054649_);" d="M406.51,400.38
		c-0.09-1.09-0.2-2.17-0.38-3.25c-0.34-2.08-1.03-3.99-2.39-5.62c-1.36-1.63-3.54-2.68-5.55-3.19c-0.3-0.08-0.58,0.32-0.32,0.55
		c1.41,1.2,2.97,2.1,4.07,3.62c0.4,0.55,0.69,1.16,0.95,1.8c-0.03,0.02-0.07,0.04-0.11,0.06c-0.39,0.22-0.79,0.45-1.19,0.65
		c-0.4,0.2-0.78,0.42-1.16,0.66c-0.11,0.07-0.21,0.13-0.3,0.22c-0.07,0.08-0.14,0.17-0.21,0.25c-0.16,0.17-0.33,0.33-0.49,0.49
		c-0.12,0.13,0,0.37,0.18,0.31c0.2-0.07,0.4-0.14,0.61-0.2c0.09-0.03,0.18-0.04,0.27-0.06c0.15-0.02,0.26-0.08,0.4-0.13
		c0.38-0.17,0.77-0.31,1.16-0.44c0.2-0.07,0.4-0.12,0.61-0.15c0.11-0.02,0.22-0.04,0.33-0.05c0.03,0,0.04-0.01,0.06-0.01
		c0.05,0,0.1-0.01,0.15-0.01c0.07,0,0.15-0.01,0.22-0.01c0.14,0.54,0.27,1.08,0.37,1.61c0.16,0.87,0.26,1.74,0.34,2.62
		c0.09,0.92,0.34,1.98-0.18,2.81c-0.57,0.9-1.51,1.71-2.22,2.5c-0.74,0.82-1.5,1.6-2.16,2.49c-0.47,0.63,0.46,1.56,1.09,1.09
		c1.04-0.78,1.95-1.69,2.91-2.56c0.89-0.8,1.93-1.58,2.52-2.64C406.67,402.71,406.6,401.52,406.51,400.38z"/>
	
		<linearGradient id="SVGID_00000047776510742761280130000009191777420229254842_" gradientUnits="userSpaceOnUse" x1="376.8721" y1="407.4159" x2="377.581" y2="397.6953" gradientTransform="matrix(1 0 0 -1 0 799.8898)">
		<stop  offset="0" style="stop-color:#842E9F"/>
		<stop  offset="0.9988" style="stop-color:#CC79E6;stop-opacity:0"/>
	</linearGradient>
	<path style="fill:url(#SVGID_00000047776510742761280130000009191777420229254842_);" d="M382,392.1c-0.7,0.06-1.26,0.5-1.86,0.85
		c-0.56,0.33-1.1,0.69-1.64,1.05c-1.09,0.72-2.17,1.43-3.23,2.18c-0.5,0.35-1.1,0.71-1.42,1.24c-0.28,0.47-0.46,1.02-0.63,1.53
		c-0.34,1.07-0.96,1.97-1.57,2.9c-0.29,0.43,0.27,0.92,0.68,0.68c0.97-0.54,1.65-1.36,2.22-2.3c0.21-0.34,0.44-1.02,0.67-1.23
		c0.38-0.36,0.93-0.65,1.38-0.93c1.04-0.66,2.06-1.37,3.08-2.06c0.54-0.37,1.08-0.73,1.59-1.13c0.51-0.39,1.25-0.78,1.54-1.36
		C383.11,392.93,382.76,392.04,382,392.1z"/>
	
		<linearGradient id="SVGID_00000061461304318060396500000000869406530933028513_" gradientUnits="userSpaceOnUse" x1="350.9586" y1="405.0214" x2="357.3033" y2="435.7835" gradientTransform="matrix(1 0 0 -1 0 799.8898)">
		<stop  offset="0" style="stop-color:#842E9F"/>
		<stop  offset="0.9988" style="stop-color:#CC79E6;stop-opacity:0"/>
	</linearGradient>
	<path style="fill:url(#SVGID_00000061461304318060396500000000869406530933028513_);" d="M377.09,384.58
		c-8.46,1.35-17.48-0.22-25.81-1.75c-4.06-0.75-8.07-1.66-12.1-2.49c-3.25-0.67-8.1-1.78-11.12,0.09c-0.18,0.11-0.17,0.45,0.06,0.49
		c1.83,0.3,3.73,0.04,5.58,0.27c2.19,0.27,4.35,0.85,6.48,1.42c4.19,1.13,8.36,2.25,12.63,3.02c8.66,1.57,17.21,2.69,24.97,1.45
		C379.42,386.82,378.72,384.32,377.09,384.58z"/>
	
		<linearGradient id="SVGID_00000090283242800152623460000005753063264596554139_" gradientUnits="userSpaceOnUse" x1="349.211" y1="413.7809" x2="349.4148" y2="410.9867" gradientTransform="matrix(1 0 0 -1 0 799.8898)">
		<stop  offset="0" style="stop-color:#842E9F"/>
		<stop  offset="0.9988" style="stop-color:#CC79E6;stop-opacity:0"/>
	</linearGradient>
	<path style="fill:url(#SVGID_00000090283242800152623460000005753063264596554139_);" d="M351.4,387.59
		c-0.37-0.17-0.79-0.22-1.18-0.33c-0.36-0.1-0.72-0.22-1.07-0.36c-0.31-0.12-0.67-0.3-1.03-0.45c-0.19-0.07-0.37-0.18-0.59-0.2
		c-0.17-0.02-0.32-0.01-0.48,0.04c-0.13,0.03-0.18,0.16-0.16,0.28c0.07,0.44,0.4,0.69,0.74,0.93c0.32,0.22,0.67,0.39,1.03,0.54
		c0.37,0.16,0.75,0.31,1.14,0.44s0.85,0.31,1.27,0.3c0.27-0.01,0.55-0.19,0.62-0.47C351.76,388.05,351.67,387.71,351.4,387.59z"/>
	
		<linearGradient id="SVGID_00000134939359720228805630000016955379097742014861_" gradientUnits="userSpaceOnUse" x1="438.3109" y1="417.3741" x2="438.617" y2="413.1755" gradientTransform="matrix(1 0 0 -1 0 799.8898)">
		<stop  offset="0" style="stop-color:#842E9F"/>
		<stop  offset="0.9988" style="stop-color:#CC79E6;stop-opacity:0"/>
	</linearGradient>
	<path style="fill:url(#SVGID_00000134939359720228805630000016955379097742014861_);" d="M470.29,381.38
		c-1.3-0.22-2.59-0.07-3.9-0.12c-1.25-0.05-2.5-0.16-3.75-0.18c-2.62-0.04-5.23,0.08-7.85,0.24c-5.24,0.33-10.38,1.01-15.5,2.2
		c-10.73,2.48-21.52,3.44-32.5,3.92c-0.72,0.03-0.73,1.15,0,1.12c5.26-0.16,10.56-0.22,15.8-0.7c5.25-0.47,10.38-1.43,15.51-2.65
		c5.31-1.26,10.6-2.22,16.07-2.47c2.62-0.12,5.23-0.2,7.85-0.36c1.25-0.07,2.5-0.16,3.75-0.18c1.48-0.02,2.89,0.33,4.36,0.4
		C470.81,382.64,470.99,381.5,470.29,381.38z"/>
	
		<linearGradient id="SVGID_00000163791276882754025870000012710776309233857702_" gradientUnits="userSpaceOnUse" x1="480.0139" y1="416.4508" x2="480.421" y2="410.869" gradientTransform="matrix(1 0 0 -1 0 799.8898)">
		<stop  offset="0" style="stop-color:#842E9F"/>
		<stop  offset="0.9988" style="stop-color:#CC79E6"/>
	</linearGradient>
	<path style="fill:url(#SVGID_00000163791276882754025870000012710776309233857702_);" d="M484.86,387.79
		c-0.23-0.4-0.65-0.49-1.02-0.71c-0.37-0.21-0.7-0.48-1.05-0.72c-0.71-0.49-1.45-0.95-2.23-1.33c-0.75-0.37-1.56-0.64-2.36-0.88
		c-0.4-0.12-0.79-0.16-1.21-0.19c-0.49-0.04-0.97-0.12-1.46-0.18c-0.08-0.01-0.11,0.09-0.03,0.12c0.45,0.15,0.88,0.3,1.29,0.54
		c0.37,0.22,0.72,0.44,1.11,0.62c0.78,0.37,1.51,0.82,2.26,1.25c0.72,0.42,1.42,0.88,2.09,1.39c0.61,0.47,1.58,1.42,2.4,0.9
		C484.92,388.42,485.03,388.07,484.86,387.79z"/>
	
		<linearGradient id="SVGID_00000127031425366819836450000002471776612048579004_" gradientUnits="userSpaceOnUse" x1="458.795" y1="428.6118" x2="458.9588" y2="426.3654" gradientTransform="matrix(1 0 0 -1 0 799.8898)">
		<stop  offset="0" style="stop-color:#842E9F"/>
		<stop  offset="0.9988" style="stop-color:#CC79E6;stop-opacity:0"/>
	</linearGradient>
	<path style="fill:url(#SVGID_00000127031425366819836450000002471776612048579004_);" d="M467.51,371.36
		c-0.62-0.22-1.48-0.27-1.89-0.32c-0.92-0.11-1.85-0.11-2.77-0.05c-1.45,0.09-2.89,0.23-4.33,0.43c-2.88,0.4-6.15,0.7-8.76,2.05
		c-0.33,0.17-0.17,0.68,0.19,0.68c1.43,0.01,2.83-0.28,4.23-0.51c1.57-0.26,3.15-0.47,4.74-0.63c1.48-0.15,2.97-0.29,4.45-0.38
		c0.98-0.06,1.96-0.06,2.94-0.11c0.42-0.02,2.31,0.09,1.87-0.71C468.07,371.61,467.82,371.47,467.51,371.36z"/>
	
		<linearGradient id="SVGID_00000166656568638255207280000012567365417198738309_" gradientUnits="userSpaceOnUse" x1="305.9543" y1="398.9878" x2="335.2798" y2="393.8752" gradientTransform="matrix(1 0 0 -1 0 799.8898)">
		<stop  offset="0" style="stop-color:#842E9F"/>
		<stop  offset="0.9988" style="stop-color:#CC79E6;stop-opacity:0"/>
	</linearGradient>
	<path style="fill:url(#SVGID_00000166656568638255207280000012567365417198738309_);" d="M330.69,407.02
		c0.08,0.85,0.17,1.7,0.26,2.55c0.03,0.33,0.11,0.7,0.16,1.06c-0.43-0.03-0.67,0.55-0.76,0.88c-0.11,0.39-0.17,0.77-0.23,1.17
		c-0.09,0.7-0.13,1.39-0.13,2.09c0,0.24,0.13,0.46,0.32,0.6c-0.65,2-1.1,3.95-1.17,6.14c-0.01,0.23,0.34,0.27,0.4,0.05
		c0.8-2.9,2.4-8.93,6.22-9.1c0.36-0.02,0.73,0.02,1.05-0.14c0.36-0.17,0.58-0.53,0.76-0.88c1.44-2.73,1.74-6.04,0.81-8.99
		c-0.15-0.47-0.33-0.98-0.15-1.44c0.12-0.33,0.4-0.57,0.68-0.77c1.75-1.23,4.02-1.41,6.02-2.19c0.24-0.09,0.49-0.21,0.63-0.42
		c0.33-0.48-0.05-1.13-0.44-1.56c-2.43-2.76-5.57-4.87-9.01-6.16c-1.61-0.6-3.6-1.3-5.35-1.29c-1.91,0.01-1.57,1.14-2.01,2.67
		c-0.07,0.23-0.14,0.47-0.17,0.71c-0.16,1.26-0.03,2.63,0.09,3.89c0.24,2.53,0.56,5.1,1.73,7.38c0.03,0.63,0.07,1.26,0.12,1.88
		C330.57,405.8,330.63,406.41,330.69,407.02z"/>
	
		<linearGradient id="SVGID_00000038375201070753479630000017669785655728022929_" gradientUnits="userSpaceOnUse" x1="357.8451" y1="336.0757" x2="370.5391" y2="291.6465" gradientTransform="matrix(1 0 0 -1 0 799.8898)">
		<stop  offset="0" style="stop-color:#842E9F"/>
		<stop  offset="0.9988" style="stop-color:#CC79E6;stop-opacity:0"/>
	</linearGradient>
	<path style="fill:url(#SVGID_00000038375201070753479630000017669785655728022929_);" d="M355.25,451.9
		c-0.37-1.35-0.77-2.7-1.1-4.07c-0.21-0.87-0.25-2.39-1.35-2.51c-0.15-0.02-0.31,0.1-0.38,0.22c-0.07,0.13-0.1,0.26-0.02,0.4
		c0.22,0.43,0.29,0.92,0.42,1.39c0.18,0.63,0.36,1.26,0.51,1.9c0.29,1.23,0.54,2.47,0.8,3.71c0.52,2.53,1.17,5,1.78,7.51
		c0.18,0.75,1.28,0.42,1.14-0.31C356.55,457.35,356,454.63,355.25,451.9z"/>
	
		<linearGradient id="SVGID_00000090283007594840787980000007627093638361894075_" gradientUnits="userSpaceOnUse" x1="407.9705" y1="350.3972" x2="420.6646" y2="305.9681" gradientTransform="matrix(1 0 0 -1 0 799.8898)">
		<stop  offset="0" style="stop-color:#842E9F"/>
		<stop  offset="0.9988" style="stop-color:#CC79E6;stop-opacity:0"/>
	</linearGradient>
	<path style="fill:url(#SVGID_00000090283007594840787980000007627093638361894075_);" d="M417.36,476.75
		c-0.43-1.33-1.05-2.6-1.53-3.91c-0.48-1.32-1-2.63-1.48-3.95c-0.46-1.27-0.92-2.53-1.4-3.79c-0.43-1.13-0.92-2.79-2.03-3.44
		c-0.35-0.21-0.94,0.05-0.89,0.51c0.14,1.22,1.14,2.37,1.71,3.43c0.69,1.27,1.18,2.58,1.63,3.95c0.43,1.29,0.77,2.6,1.2,3.89
		c0.43,1.28,0.82,2.66,1.5,3.84C416.48,477.95,417.61,477.51,417.36,476.75z"/>
	
		<linearGradient id="SVGID_00000038385237060676503060000007140730205692266388_" gradientUnits="userSpaceOnUse" x1="475.0759" y1="271.9599" x2="520.5629" y2="274.4281" gradientTransform="matrix(1 0 0 -1 0 799.8898)">
		<stop  offset="0" style="stop-color:#842E9F"/>
		<stop  offset="0.9988" style="stop-color:#CC79E6;stop-opacity:0"/>
	</linearGradient>
	<path style="fill:url(#SVGID_00000038385237060676503060000007140730205692266388_);" d="M515.64,547.39
		c-2.41-4.37-4.41-9.07-5.98-13.8c-1.52-4.57-2.75-9.62-2.93-14.45c-0.18-4.9-0.06-9.97-1.76-14.65c-0.9-2.48-2.24-4.66-3.84-6.75
		c-1.49-1.95-3.09-4.16-5.13-5.56c-0.24-0.16-0.47,0.15-0.36,0.36c0.98,2.1,2.69,3.84,3.98,5.76c1.34,2.01,2.58,4.17,3.47,6.42
		c1.88,4.74,1.77,10.01,2.19,15.01c0.4,4.73,1.15,9.22,2.55,13.77c1.36,4.44,3.24,8.57,5.43,12.65c1.25,2.33,2.6,4.61,4.04,6.84
		c1.55,2.41,3.5,4.52,5.02,6.95c0.11,0.17,0.41,0.06,0.34-0.14C520.95,555.39,517.92,551.52,515.64,547.39z"/>
	
		<linearGradient id="SVGID_00000123429993288273045600000014860783118557674898_" gradientUnits="userSpaceOnUse" x1="439.5522" y1="188.9475" x2="441.8337" y2="157.6584" gradientTransform="matrix(1 0 0 -1 0 799.8898)">
		<stop  offset="0" style="stop-color:#842E9F"/>
		<stop  offset="0.9988" style="stop-color:#CC79E6"/>
	</linearGradient>
	<path style="fill:url(#SVGID_00000123429993288273045600000014860783118557674898_);" d="M445.99,640.42
		c-2.47-4.65-4.55-9.41-6.06-14.46c-0.71-2.39-1.34-4.8-1.96-7.22c-0.31-1.2-0.65-2.39-0.95-3.59c-0.22-0.91-0.43-1.83,0.06-2.69
		c0.27-0.47,0.47-0.56,0.65-1.01c0.04-0.1-0.05-0.22-0.14-0.25c-2.09-0.64-2.27,2.91-2.1,4.11c0.43,3.05,1.33,6.09,2.16,9.06
		c1.64,5.85,3.5,11.82,6.53,17.11C444.85,642.66,446.63,641.61,445.99,640.42z"/>
	
		<linearGradient id="SVGID_00000004540569907011326180000013469530442859345820_" gradientUnits="userSpaceOnUse" x1="402.0667" y1="348.7104" x2="414.7607" y2="304.2812" gradientTransform="matrix(1 0 0 -1 0 799.8898)">
		<stop  offset="0" style="stop-color:#842E9F"/>
		<stop  offset="0.9988" style="stop-color:#CC79E6;stop-opacity:0"/>
	</linearGradient>
	<path style="fill:url(#SVGID_00000004540569907011326180000013469530442859345820_);" d="M419.43,509.11
		c-1.26-2.92-2.02-6.12-3.08-9.12c-2.15-6.11-3.41-12.51-5.79-18.52c-0.04-0.09-0.18-0.09-0.18,0.02
		c0.19,6.39,2.26,12.61,4.03,18.71c0.9,3.09,2.17,6,3.39,8.96c1.12,2.7,3.12,5.32,3.7,8.17c0.13,0.64,1.05,0.35,0.96-0.27
		C422.07,514.14,420.58,511.77,419.43,509.11z"/>
	
		<linearGradient id="SVGID_00000078021800616042079800000003111637051565254033_" gradientUnits="userSpaceOnUse" x1="289.8187" y1="309.6259" x2="343.9107" y2="309.6259" gradientTransform="matrix(1 0 0 -1 0 799.8898)">
		<stop  offset="0" style="stop-color:#842E9F"/>
		<stop  offset="0.9988" style="stop-color:#CC79E6;stop-opacity:0"/>
	</linearGradient>
	<path style="fill:url(#SVGID_00000078021800616042079800000003111637051565254033_);" d="M338,523.28
		c0.16-5.04,0.28-10.08,0.43-15.12c0.12-3.84,0.24-7.68,0.56-11.5c0.33-3.94,0.87-7.85,1.41-11.77c0.1-0.75,0.21-1.51,0.54-2.2
		c0.68-1.41,2.21-2.26,3.75-2.52c1.55-0.26,3.13-0.02,4.67,0.22c-1.36-9.92-10.91-17.04-12.98-26.84c-0.37-1.74-0.5-3.56-1.23-5.18
		c-0.75-1.64-2.06-2.95-2.98-4.49c-2.39-3.97-2.03-9.09-4.14-13.21c0.23,2.59,0.49,5.17,0.56,7.77c0.04,1.51,0.14,3.02,0.28,4.52
		c0.28,3.02,0.63,6.03,0.96,9.05c0.64,5.82,1.28,11.64,1.7,17.49c0.27,3.77,0.51,7.54,0.68,11.32c-0.16,1.21-0.42,2.42-0.54,3.63
		c-0.14,1.41-0.12,2.84-0.1,4.25c0.02,1.36,0.07,2.73,0.13,4.09c0.06,1.15,0.02,2.42,0.42,3.52c-0.23,2.52-0.69,5.38,0.09,7.79
		c0.03,0.08,0.08,0.12,0.14,0.15c0.28,1.92,0.61,3.83,0.89,5.75c0.65,4.41,1.43,8.79,1.8,13.24c0.72,8.68,0.54,17.45-0.41,26.1
		c-0.07,0.6,0.91,0.72,1.04,0.14c1.48-6.39,1.81-13.17,2.08-19.66C337.85,527.65,337.93,525.47,338,523.28z"/>
	
		<linearGradient id="SVGID_00000062881752239834507240000013426903861481698692_" gradientUnits="userSpaceOnUse" x1="295.0868" y1="188.0912" x2="350.9368" y2="183.2223" gradientTransform="matrix(1 0 0 -1 0 799.8898)">
		<stop  offset="0" style="stop-color:#842E9F"/>
		<stop  offset="0.9988" style="stop-color:#CC79E6;stop-opacity:0"/>
	</linearGradient>
	<path style="fill:url(#SVGID_00000062881752239834507240000013426903861481698692_);" d="M342.62,641.99
		c2.35,0.43,5.13,0.28,7.17,0.26c0.32,0,0.71-0.06,0.81-0.35c0.07-0.19-0.01-0.39-0.1-0.57c-0.63-1.43-1.27-2.86-1.9-4.28
		c-0.61-1.37-1.22-2.75-1.97-4.05c-0.71-1.24-1.56-2.43-2.01-3.78c-0.56-1.66-0.49-3.46-0.52-5.21c-0.05-3.05-0.41-6.12-1.41-9
		c-0.85-2.45-2.16-4.74-2.7-7.27c-0.51-2.38-0.31-4.86-0.6-7.28c-0.48-4.07-2.31-7.87-4.54-11.31c-0.12,1.5,0.37,2.64,0.69,4.04
		c0.29,1.27,0.05,2.69,0,4.02c-0.11,3.06-0.12,6.13,0.01,9.2c0.09,2.2,0.22,4.55,0.91,6.66c0.78,2.34,0.15,4.64,0.01,7.05
		c-0.19,3.39,0.01,6.76,0.25,10.14c0.22,2.99-0.22,5.9,0.35,8.94c0.03,0.18,0.07,0.36,0.17,0.51c0.12,0.17,0.31,0.28,0.49,0.38
		C339.24,640.9,340.93,641.68,342.62,641.99z"/>
	
		<linearGradient id="SVGID_00000097482277460869452820000003987166360859463072_" gradientUnits="userSpaceOnUse" x1="444.4394" y1="234.359" x2="447.126" y2="197.5144" gradientTransform="matrix(1 0 0 -1 0 799.8898)">
		<stop  offset="0" style="stop-color:#842E9F"/>
		<stop  offset="0.9988" style="stop-color:#CC79E6"/>
	</linearGradient>
	<path style="fill:url(#SVGID_00000097482277460869452820000003987166360859463072_);" d="M450.74,601.98
		c-1.32-2.92-1.98-6.18-2.85-9.26c-0.82-2.91-1.57-5.83-2.29-8.76c-0.73-2.97-1.44-5.94-2.11-8.92c-0.7-3.09-1.22-6.21-2.36-9.16
		c-0.05-0.14-0.28-0.13-0.28,0.04c0.06,3.21,0.85,6.31,1.52,9.43c0.67,3.09,1.39,6.16,2.16,9.23c0.75,3.01,1.45,6.07,2.39,9.04
		c0.94,2.99,2.26,5.67,3.66,8.45C450.64,602.18,450.79,602.08,450.74,601.98z"/>
	
		<linearGradient id="SVGID_00000174584404738880554840000015865351577570225315_" gradientUnits="userSpaceOnUse" x1="417.3033" y1="164.3534" x2="418.4499" y2="148.6299" gradientTransform="matrix(1 0 0 -1 0 799.8898)">
		<stop  offset="0" style="stop-color:#842E9F"/>
		<stop  offset="0.9988" style="stop-color:#CC79E6"/>
	</linearGradient>
	<path style="fill:url(#SVGID_00000174584404738880554840000015865351577570225315_);" d="M445.23,645.98
		c-0.32-0.55-1.21-0.45-1.36,0.18c-0.56,2.24-5.34,1.12-7.06,0.94c-2.25-0.24-4.48-0.59-6.7-1.01c-4.55-0.86-9.04-1.96-13.52-3.16
		c-4.4-1.18-8.77-2.44-13.2-3.48c-4.41-1.04-8.79-1.44-13.27-1.93c-0.07-0.01-0.08,0.11-0.02,0.12c2.68,0.51,5.35,1.36,7.97,2.13
		c2.47,0.72,4.94,1.42,7.4,2.14c5.03,1.46,10.07,2.91,15.14,4.23c4.94,1.28,9.93,2.36,15.01,2.94c2.3,0.26,4.95,0.75,7.26,0.38
		C444.52,649.17,446.23,647.71,445.23,645.98z"/>
	
		<linearGradient id="SVGID_00000101781884989347687140000018117803691680082575_" gradientUnits="userSpaceOnUse" x1="505.69" y1="169.1987" x2="507.0643" y2="150.3507" gradientTransform="matrix(1 0 0 -1 0 799.8898)">
		<stop  offset="0" style="stop-color:#842E9F"/>
		<stop  offset="0.9988" style="stop-color:#CC79E6"/>
	</linearGradient>
	<path style="fill:url(#SVGID_00000101781884989347687140000018117803691680082575_);" d="M545.7,627.92
		c-0.01-0.18-0.28-0.18-0.29,0c-0.06,2.54-1.44,4.97-2.8,7.08c-1.4,2.16-3.34,4.03-5.46,5.48c-4.4,3.01-9.71,4.67-14.93,5.56
		c-11.27,1.92-23.09,0.83-34.4-0.19c-3.35-0.3-6.71-0.63-10.05-0.99c-3.74-0.41-7.5-0.58-11.22-1.16c-0.11-0.02-0.17,0.15-0.05,0.18
		c3.28,0.71,6.52,1.68,9.82,2.27c3.19,0.57,6.39,1.08,9.61,1.47c6.52,0.78,13.05,1.28,19.61,1.45c11.24,0.3,23.47-0.53,32.84-7.46
		c2.23-1.65,4.27-3.62,5.74-6C545.61,633.18,545.82,630.7,545.7,627.92z"/>
	
		<linearGradient id="SVGID_00000046330763475388416020000004345027379499303322_" gradientUnits="userSpaceOnUse" x1="423.7224" y1="397.2141" x2="406.0817" y2="367.5217" gradientTransform="matrix(1 0 0 -1 0 799.8898)">
		<stop  offset="0" style="stop-color:#842E9F"/>
		<stop  offset="0.9988" style="stop-color:#CC79E6;stop-opacity:0"/>
	</linearGradient>
	<path style="fill:url(#SVGID_00000046330763475388416020000004345027379499303322_);" d="M377.84,412.21
		c7.9,7,17.17,9.74,26.92,13.12c1.73,0.6,3.5,1.25,4.88,2.45c3.32,2.88,3.61,8.14,6.78,11.18c-0.15-0.43-0.3-0.85-0.45-1.28
		c2.06-0.74,4.32-0.05,6.42,0.55c6.03,1.75,12.25,2.83,18.52,3.21c-7.41-2.78-14.9-5.61-21.39-10.13
		c8.39-1.01,16.82-1.72,25.27-2.13c-9.58-1.07-19.09-2.8-28.44-5.17c-9.04-2.29-17.92-5.17-26.79-8.04
		C385.68,414.72,381.79,413.17,377.84,412.21z"/>
	
		<linearGradient id="SVGID_00000038378135429584768710000008747654840722812809_" gradientUnits="userSpaceOnUse" x1="459.5181" y1="274.3807" x2="445.1903" y2="226.4139" gradientTransform="matrix(1 0 0 -1 0 799.8898)">
		<stop  offset="0" style="stop-color:#842E9F"/>
		<stop  offset="0.9988" style="stop-color:#CC79E6;stop-opacity:0"/>
	</linearGradient>
	<path style="fill:url(#SVGID_00000038378135429584768710000008747654840722812809_);" d="M436.8,564.83
		c2.51-2.79,6.53-3.8,10.27-3.53c3.74,0.27,7.29,1.66,10.78,3.03c8.03,3.16,16.06,6.33,24.09,9.49c-4.37-2.55-8.75-5.11-13.35-7.22
		c-13.97-6.4-29.5-8.42-44.07-13.29c3.25,2.32,6.35,4.86,9.27,7.58c-5.13,8.06-15.47,12.43-24.82,10.47
		c5.17,1.08,8.52,2.24,13.83,1.25C428.14,571.61,433.16,568.87,436.8,564.83z"/>
	
		<linearGradient id="SVGID_00000118366948910909852330000011433679893015341463_" gradientUnits="userSpaceOnUse" x1="547.5347" y1="214.0768" x2="500.8138" y2="182.9295" gradientTransform="matrix(1 0 0 -1 0 799.8898)">
		<stop  offset="0" style="stop-color:#842E9F"/>
		<stop  offset="0.9988" style="stop-color:#CC79E6;stop-opacity:0"/>
	</linearGradient>
	<path style="fill:url(#SVGID_00000118366948910909852330000011433679893015341463_);" d="M527.98,627.3
		c2.22,0.69,4.86,1.66,5.37,3.93c0.37,1.68-0.63,3.33-1.59,4.76c-1.75,2.61-3.5,5.22-5.26,7.83c-0.36,0.54-0.75,1.1-1.31,1.44
		c-0.62,0.37-1.38,0.42-2.11,0.46c-4.94,0.23-9.89,0.33-14.83,0.29c6.06-1.31,11.59-4.96,15.17-10.02
		c-8.2-6.1-16.41-12.21-24.61-18.32c-2.47-1.84-4.96-3.69-7.12-5.89c-2.64-2.69-4.74-5.85-7.15-8.74
		c-3.66-4.39-8.06-8.18-12.95-11.15c5.53,2.35,11.16,4.76,15.73,8.66c1.43,1.22,2.79,2.6,4.53,3.31c1.85,0.75,3.91,0.65,5.91,0.65
		c5.5,0.02,11,0.98,16.18,2.83c-1.44-0.51-5.19,0.65-6.86,0.66c-2.37,0.01-5.35-1.02-7.6-0.72c-5.16,0.7,2.47,5.64,4.65,7.37
		C511.21,620.28,519.34,624.61,527.98,627.3z"/>
	
		<linearGradient id="SVGID_00000023251268859770313910000010253875142198553237_" gradientUnits="userSpaceOnUse" x1="389.2351" y1="252.0423" x2="392.0288" y2="287.3128" gradientTransform="matrix(1 0 0 -1 0 799.8898)">
		<stop  offset="0" style="stop-color:#842E9F"/>
		<stop  offset="0.9988" style="stop-color:#CC79E6;stop-opacity:0"/>
	</linearGradient>
	<path style="fill:url(#SVGID_00000023251268859770313910000010253875142198553237_);" d="M408.19,530.2
		c4.01,1.5,8.19,2.96,11.29,5.9c-6.04-2.23-12.07-4.47-18.11-6.7c-2.27-0.84-4.6-1.69-7.02-1.75c-1.71-0.04-3.41,0.31-5.12,0.27
		c-3.6-0.09-6.91-1.92-9.99-3.8c-4.38-2.67-8.64-5.52-12.77-8.56c1.9,0.19,3.79,0.38,5.69,0.57c-2.12-0.19-7.81-5.6-9.16-7.16
		c3.27-2.37,17.07,8.35,20.66,10.24C391.59,523.38,399.79,527.06,408.19,530.2z"/>
	<g>
		<g>
			<path d="M327.71,389.63c-0.32,3.84,0.35,7.56,1.06,11.31c0.76,4.03,1.17,7.98,0.36,12.05c-0.85,4.27-1.96,8.3-2.02,12.69
				c-0.06,4.48,0.12,9.01,0.37,13.48c0.53,9.1,1.54,18.17,2.22,27.26c0.69,9.11,0.81,18.19,0.98,27.32
				c0.08,4.42,0.34,8.82,0.95,13.19c0.63,4.51,1.55,8.97,2.18,13.48c1.28,9.15,0.44,18.27-0.01,27.45
				c-0.91,18.34,0.09,36.7,0.93,55.03c0.21,4.55,0.45,9.1,0.65,13.65c0.2,4.43,0.04,8.87,0.16,13.31c0.06,2.25,0.09,4.5,0.26,6.75
				c0.13,1.82,0.05,3.37,1.66,4.48c3.02,2.08,7.46,2.47,11.02,2.44c2.08-0.02,4.14-0.29,6.19-0.59c0.5-0.07,0.87-0.77,0.7-1.23
				c-0.32-0.84-0.65-1.67-0.96-2.51c-0.02-0.06-0.22-0.61-0.24-0.57c0.09-0.14,1.39-0.17,1.59-0.19c1.85-0.2,3.7-0.35,5.56-0.46
				c3.55-0.21,7.1-0.27,10.65-0.18c7.23,0.19,14.43,1.07,21.54,2.39c13.95,2.6,27.41,7.52,41.49,9.35c2,0.26,4.01,0.46,6.02,0.61
				c1.54,0.11,3.36,0.45,4.86-0.09c1.23-0.44,1.85-1.48,1.69-2.77c-0.23-1.89-1.24-3.92-1.84-5.72c-0.32,0.42-0.64,0.84-0.96,1.27
				c12.9-0.53,25.28,3.56,37.87,5.66c5.58,0.93,11.17,1.23,16.82,1.43c5.36,0.18,10.74,0.25,16.1-0.14
				c8.83-0.63,17.84-2.55,24.94-8.14c2.45-1.93,4.48-4.35,5.58-7.3c1.28-3.46,0.98-7.29-0.1-10.76c-0.76-2.46-1.88-4.81-3.16-7.03
				c-0.81-1.4-1.73-2.72-2.61-4.07c-0.79-1.22-1.14-2.56-1.5-3.95c-0.76-2.93-2.06-5.7-3.23-8.49c-1.21-2.91-2.42-5.82-3.47-8.8
				c-1.04-2.96-1.94-5.97-2.52-9.05c-0.59-3.15-0.78-6.34-1.19-9.51c-0.38-2.91-0.94-5.78-2.08-8.5c-1.16-2.76-2.78-5.28-4.09-7.96
				c-1.46-2.98-2.26-6.17-2.93-9.4c-0.7-3.35-1.37-6.7-2.05-10.05c-1.36-6.65-2.7-13.29-4.08-19.93
				c-2.66-12.84-5.48-25.67-9.15-38.27c-1.86-6.37-3.97-12.65-6.27-18.87c-2.29-6.2-4.67-12.38-6.59-18.71
				c-1.82-5.98-3.72-11.95-5.42-17.96c-1.68-5.91-2.96-11.95-3.02-18.11c-0.02-2.61,0.22-5.22,0.32-7.82c0.05-1.29-1.95-1.28-2,0
				c-0.11,2.69-0.36,5.37-0.32,8.06c0.04,2.96,0.36,5.9,0.85,8.82c1.01,5.98,2.85,11.77,4.65,17.54c1.88,6.01,3.56,12.07,5.67,18
				c2.16,6.08,4.52,12.08,6.61,18.19c8.5,24.89,13.03,50.99,18.27,76.69c0.62,3.05,1.18,6.13,2.18,9.08
				c0.99,2.92,2.52,5.55,3.97,8.26c1.48,2.77,2.56,5.57,3.13,8.67c0.56,3.06,0.74,6.18,1.14,9.27c0.78,6.05,2.73,11.77,5.01,17.39
				c1.18,2.92,2.44,5.82,3.61,8.75c0.95,2.38,1.22,5.1,2.54,7.32c1.55,2.6,3.31,5,4.57,7.78c0.93,2.04,1.67,4.23,1.96,6.46
				c0.44,3.34-0.27,6.63-2.26,9.36c-1.81,2.5-4.41,4.33-7.07,5.83c-4.01,2.26-8.36,3.6-12.89,4.38c-5.31,0.91-10.73,1.12-16.11,1.1
				c-5.16-0.02-10.37-0.13-15.51-0.52c-12.58-0.96-24.63-5.18-37.17-6.42c-3-0.3-6-0.41-9.01-0.28c-0.61,0.03-1.18,0.62-0.96,1.27
				c0.55,1.65,1.29,3.34,1.68,5.03c0.26,1.12-0.42,1.18-1.36,1.2c-0.86,0.02-1.74-0.08-2.6-0.14c-3.69-0.25-7.36-0.7-11-1.34
				c-6.93-1.22-13.68-3.2-20.48-4.97c-13.6-3.54-27.52-6.16-41.63-6.13c-4.06,0.01-8.12,0.22-12.16,0.63
				c-1.26,0.13-3.35-0.04-3.93,1.38c-0.56,1.36,0.64,3.25,1.11,4.48c0.23-0.41,0.47-0.82,0.7-1.23c-4.15,0.6-8.32,0.78-12.42-0.25
				c-0.95-0.24-1.87-0.56-2.71-1.05c-1.07-0.63-1.04-1.14-1.14-2.34c-0.19-2.16-0.24-4.33-0.29-6.5c-0.11-4.42,0.01-8.86-0.15-13.28
				c-0.16-4.47-0.43-8.93-0.63-13.4c-0.82-17.9-1.83-35.83-1.11-53.75c0.36-8.83,1.39-17.69,0.55-26.52
				c-0.84-8.76-3.04-17.28-3.43-26.1c-0.39-8.94-0.2-17.87-0.78-26.8c-0.57-8.85-1.44-17.67-2.17-26.51
				c-0.36-4.39-0.51-8.77-0.65-13.17c-0.15-4.48-0.22-8.87,0.79-13.26c0.92-4,1.85-7.85,1.52-12c-0.28-3.62-1.26-7.13-1.7-10.73
				c-0.23-1.9-0.28-3.81-0.12-5.72C329.81,388.35,327.81,388.36,327.71,389.63L327.71,389.63z"/>
		</g>
	</g>
	<g>
		<g>
			<path d="M443.43,639.17c-2.65-5.03-4.68-10.38-6.02-15.91c-0.67-2.75-1.17-5.54-1.49-8.36c-0.08-0.67-0.16-1.34-0.2-2
				c-0.06-1.04,0.42-1.61,1.42-1.87c1.49-0.38,3.04,0.2,4.39,0.79c2.06,0.9,4.48,2.04,6.61,0.65c0.73-0.48,1.3-1.21,1.38-2.1
				c0.11-1.26-0.74-2.5-1.25-3.59c-2.44-5.17-4.47-10.53-6.09-16.01c-1.84-6.21-3.13-12.58-3.87-19.02c-0.04-0.32-0.54-0.32-0.5,0
				c1.31,11.37,4.34,22.52,8.99,32.98c0.57,1.29,1.19,2.55,1.79,3.83c0.31,0.66,0.59,1.39,0.38,2.13c-0.17,0.59-0.62,1.07-1.13,1.39
				c-2.53,1.59-5.33-0.63-7.75-1.36c-1.17-0.35-2.48-0.49-3.62,0.02c-1.2,0.53-1.27,1.52-1.17,2.7c0.25,2.75,0.67,5.49,1.25,8.19
				c1.33,6.19,3.52,12.19,6.47,17.79C443.15,639.7,443.58,639.45,443.43,639.17L443.43,639.17z"/>
		</g>
	</g>
	<g>
		<g>
			<path d="M353.09,638.84c-1.18-6.46-2.08-12.97-2.77-19.5c-0.74-6.99-1.23-14.01-1.36-21.04c-0.06-3.31-0.04-6.62,0.11-9.93
				c0.07-1.58,0.17-3.16,0.3-4.74c0.13-1.52,0.2-3.11,0.59-4.6c0.21-0.8,0.55-1.58,1.18-2.13c0.67-0.59,1.56-0.81,2.35-1.19
				c1.21-0.58,2.09-1.61,2.64-2.82c0.57-1.28,0.81-2.69,0.95-4.08c0.18-1.85,0.23-3.72,0.33-5.57c0.45-8.37,0.9-16.73,1.35-25.1
				c0.06-1.04,0.11-2.07,0.17-3.11c0.02-0.32-0.48-0.32-0.5,0c-0.45,8.41-0.9,16.82-1.35,25.22c-0.11,2.07-0.22,4.14-0.33,6.21
				c-0.09,1.6-0.16,3.22-0.57,4.78c-0.37,1.42-1.04,2.83-2.3,3.67c-1.29,0.87-2.86,1.01-3.75,2.42c-0.79,1.25-0.9,2.81-1.06,4.24
				c-0.16,1.51-0.28,3.01-0.38,4.52c-0.21,3.31-0.27,6.63-0.25,9.95c0.04,7.01,0.48,14.03,1.16,21c0.64,6.6,1.51,13.19,2.64,19.72
				c0.13,0.73,0.25,1.46,0.39,2.18C352.67,639.28,353.15,639.15,353.09,638.84L353.09,638.84z"/>
		</g>
	</g>
	<g>
		<g>
			<path d="M358.96,532.8c-0.01-0.77,0.37-1.41,1.05-1.78c-0.13-0.07-0.25-0.14-0.38-0.22c0.39,4.27,1.6,8.41,3.57,12.22
				c0.15,0.29,0.58,0.03,0.43-0.25c-1.93-3.72-3.12-7.79-3.5-11.96c-0.02-0.19-0.2-0.31-0.38-0.22c-0.83,0.44-1.31,1.27-1.3,2.21
				C358.46,533.13,358.96,533.13,358.96,532.8L358.96,532.8z"/>
		</g>
	</g>
	<g>
		<g>
			<path d="M438.19,570.34c0.03-1.88,0.79-3.63,2.13-4.94c-0.14-0.04-0.28-0.07-0.42-0.11c2.5,10.96,4,22.28,8.38,32.71
				c1.21,2.89,2.64,5.67,4.34,8.31c0.17,0.27,0.61,0.02,0.43-0.25c-6.13-9.51-8.48-20.73-10.71-31.65
				c-0.63-3.09-1.26-6.17-1.96-9.24c-0.04-0.19-0.29-0.24-0.42-0.11c-1.43,1.4-2.24,3.29-2.28,5.3
				C437.68,570.66,438.18,570.66,438.19,570.34L438.19,570.34z"/>
		</g>
	</g>
	<g>
		<g>
			<path d="M522.12,558.07c-5.13-7.75-9.4-16.29-12.33-25.11c-1.44-4.34-2.41-8.72-2.67-13.28c-0.3-5.17-0.25-10.49-1.82-15.48
				c-1.74-5.56-5.71-9.71-10.25-13.17c-0.18-0.14-0.42,0.09-0.37,0.28c1.88,7.05,3.76,14.1,5.65,21.15
				c0.08,0.31,0.57,0.18,0.48-0.13c-1.88-7.05-3.77-14.1-5.65-21.15c-0.12,0.09-0.24,0.19-0.37,0.28c4.18,3.19,7.96,7.02,9.75,12.07
				c1.78,5.03,1.75,10.46,2.04,15.72c0.24,4.37,1.04,8.57,2.36,12.75c1.44,4.56,3.29,8.98,5.37,13.28c2.17,4.49,4.6,8.88,7.36,13.05
				C521.87,558.59,522.3,558.34,522.12,558.07L522.12,558.07z"/>
		</g>
	</g>
	<g>
		<g>
			<path d="M423.51,519.2c-3.67-10.14-7.17-20.34-10.48-30.61c-3.31-10.26-6.44-20.59-9.38-30.96c-1.66-5.85-3.26-11.72-4.8-17.6
				c-0.15,0.06-0.3,0.13-0.46,0.19c1.44,2.59,2.89,5.18,4.33,7.77c0.16,0.28,0.59,0.03,0.43-0.25c-1.44-2.59-2.89-5.18-4.33-7.77
				c-0.14-0.25-0.53-0.08-0.46,0.19c2.73,10.43,5.65,20.82,8.75,31.15s6.39,20.6,9.86,30.81c1.96,5.76,3.97,11.5,6.04,17.21
				C423.13,519.63,423.62,519.5,423.51,519.2L423.51,519.2z"/>
		</g>
	</g>
	<g>
		<g>
			<path d="M409.74,462.29c2.42,4.68,4.47,9.54,6.13,14.55c0.1,0.3,0.58,0.17,0.48-0.13c-1.67-5.04-3.74-9.95-6.18-14.67
				C410.02,461.75,409.59,462,409.74,462.29L409.74,462.29z"/>
		</g>
	</g>
	<g>
		<g>
			<path d="M352.07,445.49c0.84,5.13,2.11,10.17,3.8,15.08c0.1,0.3,0.59,0.17,0.48-0.13c-1.69-4.91-2.96-9.96-3.8-15.08
				C352.5,445.04,352.02,445.18,352.07,445.49L352.07,445.49z"/>
		</g>
	</g>
	<g>
		<g>
			<path d="M396.01,383.56c5.56-0.74,11.07-1.6,16.68-1.82c3.76-0.15,7.53-0.25,11.29-0.49c3.81-0.24,7.62-0.55,11.43-0.86
				c3.82-0.31,7.64-0.64,11.42-1.28c3.73-0.63,7.39-1.65,11.14-2.17c6.8-0.93,13.82-0.14,20.27,2.2c0.89,0.32,1.78,0.68,2.65,1.07
				c0.48,0.21,1.69,0.52,1.65,1.2c-0.03,0.48-0.27,0.95-0.35,1.42c-0.08,0.44-0.11,0.88-0.07,1.33c0.07,0.97,0.36,1.88,0.7,2.79
				c0.67,1.77,1.24,3.46,1.29,5.37c0.04,1.89-0.34,3.77-1.14,5.48c0.38-0.15,0.75-0.31,1.13-0.46c-0.7-0.12-1.1-0.61-1.47-1.22
				c-0.47-0.77-0.83-1.59-1.31-2.36c-0.55-0.89-1.25-1.65-2.22-2.08c-1.21-0.54-2.55-0.73-3.84-0.97
				c-5.62-1.03-11.31-1.62-17.01-1.84c-11.12-0.43-22.23,0.56-33.29,1.7c-6.43,0.66-12.86,1.37-19.31,1.93c-1.27,0.11-1.28,2.11,0,2
				c11.3-0.97,22.55-2.45,33.87-3.23c11.02-0.76,22.14-0.77,33.06,1.01c1.53,0.25,3.09,0.49,4.6,0.86c1.14,0.28,1.89,0.77,2.49,1.77
				c0.98,1.63,1.75,4.01,3.9,4.37c0.41,0.07,0.93-0.04,1.13-0.46c1.5-3.21,1.85-6.91,0.81-10.32c-0.49-1.59-1.53-3.24-1.4-4.96
				c0.06-0.76,0.43-1.47,0.44-2.25c0-0.95-0.57-1.7-1.35-2.17c-1.46-0.88-3.22-1.48-4.83-2.04c-1.68-0.59-3.39-1.08-5.13-1.46
				c-3.49-0.76-7.08-1.12-10.64-1.03c-3.83,0.09-7.57,0.8-11.3,1.61c-3.81,0.82-7.61,1.45-11.49,1.83
				c-7.83,0.76-15.71,1.37-23.57,1.63c-3.45,0.11-6.89,0.21-10.32,0.59c-3.3,0.37-6.59,0.89-9.89,1.33c-0.54,0.07-1,0.41-1,1
				C395.01,383.04,395.47,383.63,396.01,383.56L396.01,383.56z"/>
		</g>
	</g>
	<g>
		<g>
			<path d="M376.31,393.62c-3.36-0.06-6.72-0.21-10.05-0.66c-3.26-0.44-6.48-1.16-9.67-1.92c-3.83-0.92-7.6-2.05-11.42-3.01
				c-3.8-0.95-7.69-1.6-11.6-1.83c-1.45-0.09-2.78,0.39-3.92,1.28c-0.28,0.23-0.55,0.47-0.81,0.73c-0.09,0.09-0.36,0.3-0.4,0.42
				c-0.02,0.02-0.05,0.05-0.07,0.07c0.18,0,0.2-0.05,0.08-0.13c0-0.06-0.14-0.31-0.15-0.36c-0.04-0.16-0.05-0.31-0.06-0.48
				c-0.01-0.47,0.05-0.94,0.11-1.41c0.11-0.82,0.26-1.64,0.44-2.45c0.1-0.46,0.21-0.91,0.27-1.38c0.06-0.55-0.02-1.05-0.11-1.59
				c-0.11-0.67-0.03-0.6,0.64-0.72c0.92-0.17,1.83-0.3,2.77-0.33c3.82-0.14,7.55,0.93,11.18,2.02c3.64,1.1,7.28,2.16,11,2.9
				c7.82,1.57,15.69,1.65,23.61,0.94c0.54-0.05,1-0.42,1-1c0-0.5-0.46-1.05-1-1c-7.36,0.66-14.73,0.69-22.01-0.66
				c-3.9-0.72-7.71-1.79-11.5-2.94c-3.8-1.15-7.7-2.3-11.7-2.28c-1.01,0.01-2.02,0.1-3.02,0.26c-0.69,0.11-1.48,0.2-2.08,0.57
				c-0.72,0.45-0.99,1.26-0.91,2.07c0.05,0.47,0.2,0.94,0.18,1.42c-0.03,0.48-0.18,0.94-0.28,1.41c-0.21,0.99-0.37,1.98-0.49,2.98
				c-0.1,0.85-0.15,1.72,0.17,2.53c0.32,0.82,1.04,1.56,1.97,1.58c0.98,0.02,1.5-0.76,2.14-1.36c0.48-0.44,1.02-0.81,1.65-0.99
				c0.72-0.2,1.45-0.1,2.18-0.02c2.07,0.23,4.16,0.37,6.21,0.76c4.07,0.78,8.04,2.01,12.05,3.07c6.79,1.79,13.63,3.15,20.66,3.42
				c0.99,0.04,1.98,0.06,2.97,0.08C377.59,395.64,377.59,393.64,376.31,393.62L376.31,393.62z"/>
		</g>
	</g>
	<g>
		<g>
			<path d="M330.23,389.46c-0.22,0.72-0.33,0.33-0.2,0.31c0.12-0.02,0.26-0.09,0.38-0.12c0.18-0.05,0.38-0.09,0.55-0.12
				c0.6-0.08,1.21,0.05,1.8,0.17c1.63,0.34,3.18,0.96,4.7,1.62c3.09,1.34,6.2,2.59,9.41,3.6c3.2,1.01,6.47,1.82,9.77,2.4
				c1.68,0.3,3.38,0.54,5.08,0.73c1.67,0.18,3.38,0.39,5.07,0.33c0.92-0.03,1.85-0.16,2.71-0.48c0.84-0.31,1.63-0.76,2.44-1.14
				c1.32-0.62,2.89-1.15,4.37-1.15c1.29,0,1.29-2,0-2c-1.45,0-2.92,0.43-4.27,0.95c-1.52,0.59-2.91,1.59-4.57,1.77
				c-1.74,0.19-3.57-0.06-5.29-0.24c-1.71-0.18-3.42-0.42-5.12-0.73c-3.46-0.62-6.87-1.48-10.21-2.56
				c-3.35-1.08-6.53-2.48-9.78-3.82c-1.76-0.72-3.69-1.43-5.61-1.49c-1.05-0.03-2.79,0.26-3.16,1.42
				C327.92,390.17,329.85,390.69,330.23,389.46L330.23,389.46z"/>
		</g>
	</g>
	<g>
		<g>
			<path d="M483.63,380.59c0.65-1,0.99-2.1,1.12-3.28c0.04-0.33-0.21-0.71-0.5-0.86c-3.36-1.79-6.9-3.26-10.55-4.37
				c-3.7-1.12-7.62-2.02-11.5-2.05c-3.94-0.04-7.68,1.15-11.35,2.45c-3.61,1.28-7.24,2.47-10.93,3.47
				c-4.07,1.1-8.19,2.02-12.31,2.94c-1.26,0.28-0.72,2.21,0.53,1.93c7.25-1.61,14.47-3.32,21.48-5.79
				c3.47-1.22,6.98-2.63,10.67-2.93c3.81-0.32,7.67,0.48,11.34,1.48c4.03,1.09,7.92,2.64,11.6,4.6c-0.17-0.29-0.33-0.58-0.5-0.86
				c-0.09,0.82-0.4,1.58-0.85,2.27C481.2,380.66,482.93,381.67,483.63,380.59L483.63,380.59z"/>
		</g>
	</g>
	<g>
		<g>
			<path d="M406.74,388.6c8.22,0.68,16.44-0.41,24.52-1.86c8.23-1.47,16.42-3.33,24.76-4.08c4.62-0.42,9.28-0.48,13.89,0.03
				c0.32,0.04,0.32-0.46,0-0.5c-8.18-0.92-16.4,0.03-24.47,1.42c-8.25,1.42-16.44,3.31-24.78,4.21c-4.62,0.5-9.28,0.67-13.92,0.29
				C406.42,388.07,406.42,388.57,406.74,388.6L406.74,388.6z"/>
		</g>
	</g>
	<g>
		<g>
			<path d="M446.62,383.92c2.71,0.92,5.59,1.07,8.39,0.5c2.88-0.59,5.64-1.77,8.62-1.87c0.32-0.01,0.32-0.51,0-0.5
				c-2.79,0.09-5.4,1.11-8.09,1.74c-2.94,0.69-5.92,0.62-8.78-0.35C446.45,383.34,446.31,383.82,446.62,383.92L446.62,383.92z"/>
		</g>
	</g>
	<g>
		<g>
			<path d="M474.56,384.09c1.97,0.37,3.87,1.06,5.62,2.05c0.87,0.5,1.71,1.07,2.48,1.71c0.78,0.64,1.65,1.36,1.99,2.35
				c0.1,0.3,0.59,0.17,0.48-0.13c-0.33-0.95-1.05-1.65-1.79-2.29c-0.81-0.7-1.69-1.34-2.61-1.89c-1.86-1.11-3.91-1.87-6.03-2.27
				C474.38,383.55,474.24,384.03,474.56,384.09L474.56,384.09z"/>
		</g>
	</g>
	<g>
		<g>
			<path d="M328,382.06c3.32,1.08,6.94,2.29,10.48,1.96c2.42-0.23,4.73-0.58,7.14-0.05c2.3,0.51,4.45,1.52,6.58,2.51
				c0.29,0.14,0.54-0.29,0.25-0.43c-2.06-0.97-4.15-1.95-6.37-2.49c-2.31-0.56-4.55-0.38-6.89-0.12c-1.97,0.22-3.8,0.06-5.73-0.37
				c-1.8-0.4-3.57-0.93-5.33-1.5C327.83,381.47,327.7,381.96,328,382.06L328,382.06z"/>
		</g>
	</g>
	<g>
		<g>
			<path d="M447.4,385.65c2.25,1.17,4.81,1.66,7.32,1.35c2.61-0.33,4.94-1.69,7.54-2.05c0.32-0.04,0.18-0.53-0.13-0.48
				c-2.44,0.34-4.62,1.59-7.04,1.98c-2.54,0.4-5.16-0.04-7.43-1.23C447.37,385.07,447.11,385.5,447.4,385.65L447.4,385.65z"/>
		</g>
	</g>
	<g>
		<g>
			<path d="M346.97,386.25c1.63,0.85,3.34,1.54,5.11,2.06c0.31,0.09,0.44-0.39,0.13-0.48c-1.73-0.5-3.4-1.17-4.99-2.01
				C346.94,385.67,346.68,386.1,346.97,386.25L346.97,386.25z"/>
		</g>
	</g>
	<g>
		<g>
			<path d="M383.56,392.07c-1.09-1.8-2.13-3.65-3.17-5.48c-0.28-0.5-0.52-1-0.68-1.55c-0.09-0.3-0.06-0.2,0.18-0.42
				c0.2-0.18,0.41-0.36,0.63-0.52c0.96-0.69,2.03-1.13,3.18-1.37c1.26-0.25,0.73-2.18-0.53-1.93c-1.37,0.28-2.68,0.85-3.8,1.67
				c-0.59,0.43-1.33,0.95-1.58,1.66c-0.27,0.75,0,1.55,0.29,2.25c0.5,1.2,1.25,2.29,1.9,3.42c0.62,1.09,1.22,2.19,1.87,3.26
				C382.49,394.18,384.23,393.18,383.56,392.07L383.56,392.07z"/>
		</g>
	</g>
	<g>
		<g>
			<path d="M383.09,395.65c0.75,2.11,3.01,2.28,4.94,2.45c2.16,0.19,4.34,0.26,6.51,0.23c1.29-0.02,1.29-2.02,0-2
				c-1.83,0.03-3.66-0.01-5.49-0.15c-0.82-0.06-1.66-0.11-2.48-0.23c-0.53-0.08-1.34-0.24-1.55-0.83c-0.18-0.51-0.68-0.85-1.23-0.7
				C383.3,394.55,382.91,395.14,383.09,395.65L383.09,395.65z"/>
		</g>
	</g>
	<g>
		<g>
			<path d="M383.69,382.74c2.4-0.66,4.89-0.81,7.34-0.38c1.6,0.28,3.13,0.84,4.71,1.16c1.26,0.25,1.79-1.68,0.53-1.93
				c-1.7-0.34-3.33-0.94-5.05-1.21c-2.71-0.43-5.42-0.3-8.07,0.43C381.92,381.15,382.44,383.08,383.69,382.74L383.69,382.74z"/>
		</g>
	</g>
	<g>
		<g>
			<path d="M381.36,390.62c-1.27,0.97-2.62,1.85-4.02,2.62c-1.31,0.72-2.83,1.2-4.04,2.08c-1.18,0.85-1.92,2.06-2.47,3.39
				c-0.56,1.35-1.16,2.92-1.14,4.39c0.02,1.29,2.02,1.29,2,0c-0.01-0.72,0.22-1.38,0.43-2.06c0.18-0.58,0.37-1.17,0.61-1.73
				c0.48-1.13,1.15-2.08,2.25-2.68c1.22-0.67,2.53-1.18,3.75-1.87c1.27-0.72,2.49-1.53,3.66-2.42c0.43-0.33,0.66-0.86,0.36-1.37
				C382.48,390.56,381.79,390.29,381.36,390.62L381.36,390.62z"/>
		</g>
	</g>
	<g>
		<g>
			<path d="M370.95,404.07c0.94-0.15,1.87-0.43,2.82-0.54c0.98-0.12,1.81,0.08,2.72,0.41c0.93,0.34,1.85,0.58,2.83,0.73
				c1,0.15,2.05,0.34,3.06,0.32c2.06-0.05,3.51-1.3,4.99-2.59c1.58-1.37,3.18-2.73,4.8-4.06c0.99-0.82-0.43-2.23-1.41-1.41
				c-1.55,1.28-3.09,2.58-4.61,3.9c-0.67,0.58-1.32,1.21-2.09,1.66c-0.83,0.49-1.68,0.54-2.62,0.45c-0.9-0.09-1.81-0.21-2.7-0.4
				c-0.94-0.21-1.81-0.63-2.74-0.87c-1.88-0.48-3.71,0.17-5.57,0.47c-0.53,0.09-0.83,0.75-0.7,1.23
				C369.88,403.94,370.42,404.15,370.95,404.07L370.95,404.07z"/>
		</g>
	</g>
	<g>
		<g>
			<path d="M391.83,394.96c1.48,0.66,2.39,2.03,2.71,3.6c0.34,1.68,0.66,3.35,1.19,4.99c0.6,1.88,1.48,3.55,2.64,5.14
				c0.34,0.46,0.61,1.06,1.12,1.35c1.02,0.58,1.87-0.44,2.55-1.07c1.18-1.07,2.33-2.16,3.58-3.14c0.61-0.47,1.28-0.9,1.7-1.57
				c0.48-0.76,0.53-1.7,0.43-2.57c-0.25-2.12-0.69-4.24-1.05-6.35c-0.18-1.07-0.36-2.16-0.87-3.13c-0.21-0.4-0.49-0.75-0.76-1.1
				c-0.3-0.4-0.54-0.84-0.86-1.22c-0.64-0.79-1.56-1.14-2.47-1.51c-1.14-0.46-2.29-0.93-3.43-1.39c-0.5-0.2-1.1,0.22-1.23,0.7
				c-0.16,0.57,0.2,1.03,0.7,1.23c1.22,0.49,2.44,0.98,3.66,1.48c0.4,0.16,0.82,0.33,1.13,0.64c0.33,0.33,0.55,0.78,0.83,1.15
				c0.69,0.92,1.02,1.79,1.23,2.92c0.23,1.27,0.43,2.54,0.64,3.81c0.19,1.15,0.55,2.38,0.51,3.55c-0.03,0.96-0.91,1.4-1.59,1.93
				c-0.58,0.45-1.14,0.9-1.67,1.39c-0.48,0.44-0.97,0.89-1.45,1.33c-0.41,0.38-0.88,0.98-1.39,1.21c0.17-0.05,0.34-0.09,0.5-0.14
				c-0.05,0-0.09,0-0.14-0.01c0.17,0.05,0.34,0.09,0.5,0.14c0.07,0.1,0.06,0.07-0.05-0.09c-0.04-0.07-0.09-0.14-0.14-0.21
				c-0.06-0.09-0.13-0.18-0.2-0.27c-0.12-0.16-0.23-0.32-0.35-0.48c-0.26-0.36-0.51-0.72-0.74-1.1c-0.6-0.98-1.02-1.96-1.37-3.04
				c-0.26-0.8-0.48-1.61-0.67-2.43c-0.25-1.04-0.38-2.12-0.66-3.15c-0.51-1.84-1.75-3.56-3.52-4.34c-0.49-0.22-1.07-0.14-1.37,0.36
				C391.23,394.01,391.34,394.73,391.83,394.96L391.83,394.96z"/>
		</g>
	</g>
	<g>
		<g>
			<path d="M396.94,387.42c-1.75,0.09-3.46,0.58-4.99,1.43c-0.28,0.16-0.03,0.59,0.25,0.43c1.46-0.81,3.08-1.28,4.74-1.36
				C397.26,387.91,397.27,387.41,396.94,387.42L396.94,387.42z"/>
		</g>
	</g>
	<g>
		<g>
			<path d="M399.59,396.38c0.85-0.57,1.75-1.06,2.68-1.48c0.12-0.05,0.15-0.23,0.09-0.34c-0.07-0.13-0.22-0.14-0.34-0.09
				c-0.93,0.42-1.83,0.91-2.68,1.48C399.07,396.13,399.32,396.56,399.59,396.38L399.59,396.38z"/>
		</g>
	</g>
	<g>
		<g>
			<path d="M372.16,402.77c1.14-0.12,2.25-0.48,3.34-0.81c1.13-0.35,2.23-0.75,3.27-1.31c1.18-0.63,2.25-1.16,3.62-1.11
				c1.21,0.04,2.39,0.33,3.6,0.35c0.32,0,0.32-0.5,0-0.5c-1.21-0.02-2.39-0.31-3.6-0.35c-1.12-0.04-2.11,0.24-3.1,0.76
				c-1.14,0.59-2.26,1.15-3.49,1.54c-1.18,0.38-2.41,0.81-3.65,0.93C371.85,402.3,371.84,402.8,372.16,402.77L372.16,402.77z"/>
		</g>
	</g>
	<g>
		<g>
			<path d="M394.36,383.24c-1.17,0.21-2.32,0.51-3.44,0.91c-0.54,0.19-1.06,0.41-1.58,0.64c-0.37,0.17-0.92,0.32-1.07,0.74
				c-0.16,0.42-0.04,1,0.05,1.43c0.11,0.53,0.32,1.05,0.57,1.53c0.54,1.02,1.33,1.89,2.11,2.74c0.22,0.24,0.57-0.12,0.35-0.35
				c-0.69-0.76-1.38-1.52-1.9-2.4c-0.24-0.42-0.44-0.86-0.57-1.32c-0.1-0.35-0.36-1.27-0.04-1.55c0.17-0.14,0.44-0.22,0.63-0.31
				c0.23-0.1,0.46-0.21,0.69-0.3c0.46-0.19,0.94-0.36,1.41-0.52c0.95-0.31,1.93-0.56,2.92-0.73
				C394.81,383.66,394.67,383.18,394.36,383.24L394.36,383.24z"/>
		</g>
	</g>
	<g>
		<g>
			<path d="M401.49,385.34c0.01,0.38-0.06,0.76-0.06,1.14c-0.01,0.38,0.02,0.75,0.08,1.12c0.11,0.75,0.34,1.47,0.68,2.15
				c0.14,0.29,0.57,0.04,0.43-0.25c-0.32-0.64-0.53-1.32-0.63-2.03c-0.05-0.35-0.07-0.71-0.06-1.07c0.01-0.36,0.07-0.71,0.06-1.07
				C401.99,385.02,401.49,385.02,401.49,385.34L401.49,385.34z"/>
		</g>
	</g>
</g>
</svg>
