<?xml version="1.0" encoding="utf-8"?>
<!-- Generator: Adobe Illustrator 28.0.0, SVG Export Plug-In . SVG Version: 6.00 Build 0)  -->
<svg version="1.1" id="Layer_1" xmlns="http://www.w3.org/2000/svg" xmlns:xlink="http://www.w3.org/1999/xlink" x="0px" y="0px"
	 viewBox="0 0 800 800" style="enable-background:new 0 0 800 800;" xml:space="preserve">
<style type="text/css">
	.st0{fill:#FBC929;}
	.st1{fill:#B66611;}
	.st2{fill:#F2E600;}
	.st3{fill:none;stroke:#000000;stroke-width:2;stroke-miterlimit:10;}
	.st4{fill:#FFFFFF;}
	.st5{fill:#FBEBD2;}
	.st6{fill:url(#SVGID_1_);}
	.st7{fill:url(#SVGID_00000126293577083742085020000001080631712036105859_);}
	.st8{fill:url(#SVGID_00000096748120539051273450000007796860353934202798_);}
	.st9{fill:url(#SVGID_00000178177998901201395480000017407623911998590851_);}
	.st10{fill:url(#SVGID_00000043455750389855258490000015067929426842092474_);}
	.st11{fill:url(#SVGID_00000111187140622480678920000012540393052284006305_);}
	.st12{fill:url(#SVGID_00000088096786337976830270000000630708806588795824_);}
	.st13{fill:#F3FCEC;}
</style>
<g id="_x30_-HAND_x2B_WP__x5B_GLOCK_x5D__x2B_">
	<path class="st0" d="M250.74,84.43c-0.76-0.23-1.52-0.48-2.28-0.7c-0.58-0.17-1.1-0.35-1.5-0.87c-0.18-0.23-0.69-0.22-1.05-0.3
		c-0.22-0.05-0.57,0-0.66-0.13c-0.47-0.71-1.16-0.59-1.75-0.36c-1.43,0.55-2.84,1.16-4.22,1.83c-0.64,0.31-1.11,0.82-1.31,1.56
		c-0.07,0.25-0.38,0.53-0.64,0.63c-0.89,0.34-1.81,0.6-2.72,0.9c-0.73,0.24-1.42,0.54-1.77,1.28c-0.31,0.66-0.86,1.02-1.53,1.23
		c-1.96,0.63-2.11,1.74-1.61,3.29c0.52,1.64,1.2,3.22,1.81,4.83c0.28,0.73,0.53,1.48,0.79,2.22c0.22,0.6,0.39,1.15,1.2,1.32
		c0.78,0.16,0.92,1.21,0.34,1.77c-0.47,0.45-0.3,0.96-0.1,1.44c0.92,2.3,1.85,4.6,2.8,6.89c0.97,2.36,2.06,4.68,2.92,7.08
		c0.55,1.53,0.89,3.16,1.1,4.78c0.23,1.79-0.94,3.54-2.65,4.24c-1.25,0.51-2.53,0.94-3.8,1.39c-1.36,0.49-2.72,0.98-4.08,1.44
		c-0.24,0.08-0.54,0.08-0.8,0.04c-1.41-0.2-2.4,0.91-1.89,2.19c1.85,4.71,3.72,9.41,5.59,14.1c0.67,1.69,1.37,3.36,2.06,5.05
		c0.46,1.12,1.27,1.95,2.19,2.73c0.8,0.68,1.55,1.44,2.21,2.26c0.81,1.01,0.54,2.57-0.62,3.86c-0.44,0.49-1.01,0.88-1.52,1.31
		c-0.77,0.64-1.51,1.33-2.33,1.9c-0.81,0.56-1.54,1.29-2.66,1.31c-0.65,0.01-1.07,0.45-1.23,1.12c-0.19,0.79-0.4,1.59-0.68,2.35
		c-0.41,1.13-1.45,1.7-2.36,2.37c-0.3,0.22-0.59,0.44-0.89,0.66c-0.59,0.45-1.24,0.48-1.93,0.35c-1.77-0.35-1.86-0.28-2.26,1.46
		c-0.14,0.6-0.31,1.2-0.46,1.8c-0.33,1.27-1.23,2.08-2.27,2.82c-0.73,0.52-1.34,1.21-2.06,1.74c-0.53,0.39-1.15,0.81-1.77,0.91
		c-2.18,0.34-3.65,2.17-3.89,4.18c-0.08,0.71-0.11,1.42-0.12,2.13c0,0.38-0.06,0.56-0.51,0.62c-1.31,0.16-1.8,0.91-1.38,2.13
		c0.45,1.32,0.94,2.63,1.46,3.93c1.63,4.08,3.28,8.15,4.9,12.23c0.22,0.55,0.37,1.12,0.56,1.68c0.37,1.14,1.63,1.4,2.49,0.5
		c0.29-0.3,0.54-0.64,0.85-1.02c0.59,0.75,1.09,1.44,1.63,2.09c1.44,1.72,3.3,2.66,5.59,2.59c1.67-0.05,3.07-0.8,4.23-2.01
		c0.77-0.8,1.57-1.58,2.35-2.37c0.86-0.86,1.73-1.71,2.58-2.58c0.95-0.97,1.89-1.93,2.8-2.94c0.55-0.62,1.02-1.3,1.54-1.95
		c0.36-0.46,0.75-0.91,1.11-1.37c0.71-0.92,1.44-1.82,2.11-2.77c0.49-0.69,0.87-1.45,1.34-2.15c0.5-0.75,1.06-1.47,1.57-2.21
		c0.3-0.43,0.51-0.93,0.85-1.31c0.71-0.79,1.44-1.56,2.24-2.26c2.02-1.79,4.02-3.61,6.14-5.27c1.59-1.25,3.31-2.34,5.24-3.09
		c2.09-0.81,4.01-0.43,5.93,0.43c1.54,0.69,2.59,1.84,3.39,3.27c0.2,0.36,0.48,0.69,0.77,0.98c0.65,0.64,1.58,0.54,2.15-0.19
		c0.15-0.2,0.35-0.39,0.43-0.61c0.56-1.63,1.76-2.37,3.39-2.89c2.39-0.76,4.67-1.83,7-2.79c0.27-0.11,0.51-0.31,0.74-0.5
		c0.55-0.47,0.73-1.07,0.52-1.74c-0.22-0.68-0.46-1.35-0.76-1.99c-0.26-0.56-0.11-0.99,0.29-1.41c0.31-0.33,0.62-0.65,0.88-1.01
		c0.15-0.21,0.26-0.5,0.26-0.75c0.02-1.17-1.01-2.25-2.21-2.21c-1.12,0.03-1.71-0.36-2.15-1.42c-3.69-8.73-7.42-17.45-11.21-26.14
		c-1.8-4.13-3.74-8.19-5.61-12.29c-0.38-0.83-0.78-1.65-1.07-2.51c-0.25-0.73-0.34-1.52-0.5-2.28c-0.07-0.31-0.12-0.63-0.24-0.92
		c-4.75-11.11-9.51-22.22-14.29-33.32c-0.27-0.62-0.32-1.11,0.15-1.69c0.48-0.6,0.85-1.29,1.24-1.95
		C251.4,84.93,251.27,84.59,250.74,84.43z M247.78,138.32c0.68,2.64,1.04,5.46,1.2,8.18c0.09,1.6-0.27,3.26-1.15,4.48
		c-0.25,0.68-0.66,1.23-1.27,1.68c-0.31,0.23-0.61,0.22-0.85,0.09c-1.63,1.05-3.62,1.57-5.38,0.59c-2.26-1.26-3.3-4.09-4.09-6.39
		c0,0-1.45-3.82-2.4-5.89c-0.62-1.36-1.77-4.23-0.99-5.56c0.24-1.72,2.72-2.89,4.19-3.65c2.07-1.07,4.39-1.68,6.54-0.43
		C245.99,132.82,247.12,135.74,247.78,138.32z"/>
	<path class="st1" d="M219.48,207.93c-0.86,0.9-2.12,0.64-2.49-0.5c-0.18-0.56-0.34-1.13-0.56-1.68c-1.63-4.08-3.28-8.15-4.9-12.23
		c-0.52-1.3-1.01-2.61-1.46-3.93c-0.42-1.22,0.07-1.98,1.38-2.13c0.46-0.06,0.51-0.23,0.51-0.62c0-0.71,0.03-1.43,0.12-2.13
		c0.24-2.01,1.7-3.84,3.89-4.18c0.62-0.1,1.24-0.52,1.77-0.91c0.73-0.53,1.33-1.22,2.06-1.74c1.04-0.74,1.93-1.55,2.27-2.82
		c0.16-0.6,0.33-1.19,0.46-1.8c0.4-1.75,0.49-1.81,2.26-1.46c0.69,0.13,1.34,0.1,1.93-0.35c0.29-0.22,0.59-0.44,0.89-0.66
		c0.91-0.67,1.94-1.25,2.36-2.37c0.28-0.77,0.49-1.56,0.68-2.35c0.16-0.67,0.58-1.11,1.23-1.12c1.12-0.02,1.85-0.75,2.66-1.31
		c0.82-0.56,1.56-1.26,2.33-1.9c0.52-0.43,1.08-0.82,1.52-1.31c1.15-1.29,1.42-2.85,0.62-3.86c-0.65-0.82-1.41-1.58-2.21-2.26
		c-0.92-0.78-1.73-1.6-2.19-2.73c-0.68-1.68-1.38-3.36-2.06-5.05c-1.87-4.7-3.74-9.4-5.59-14.1c-0.5-1.28,0.49-2.4,1.89-2.19
		c0.26,0.04,0.55,0.04,0.8-0.04c1.37-0.46,2.72-0.95,4.08-1.44c1.27-0.46,2.55-0.88,3.8-1.39c1.71-0.7,2.88-2.45,2.65-4.24
		c-0.21-1.62-0.55-3.25-1.1-4.78c-0.86-2.4-1.95-4.72-2.92-7.08c-0.94-2.29-1.87-4.59-2.8-6.89c-0.19-0.48-0.37-0.99,0.1-1.44
		c0.58-0.56,0.44-1.6-0.34-1.77c-0.81-0.17-0.99-0.72-1.2-1.32c-0.27-0.74-0.52-1.48-0.79-2.22c-0.6-1.61-1.28-3.19-1.81-4.83
		c-0.49-1.55-0.34-2.66,1.61-3.29c0.67-0.21,1.22-0.57,1.53-1.23c0.35-0.74,1.04-1.04,1.77-1.28c0.91-0.29,1.83-0.56,2.72-0.9
		c0.26-0.1,0.57-0.38,0.64-0.63c0.2-0.74,0.67-1.26,1.31-1.56c1.38-0.66,2.79-1.28,4.22-1.83c0.59-0.23,1.28-0.34,1.75,0.36
		c0.09,0.13,0.44,0.08,0.66,0.13c0.36,0.08,0.87,0.07,1.05,0.3c0.4,0.51,0.92,0.7,1.5,0.87c0.77,0.22,1.52,0.47,2.28,0.7
		c0.53,0.16,0.65,0.5,0.38,0.96c-0.39,0.66-0.76,1.35-1.24,1.95c-0.47,0.58-0.42,1.07-0.15,1.69c4.77,11.1,9.53,22.21,14.29,33.32
		c0.12,0.29,0.17,0.61,0.24,0.92c0.17,0.76,0.26,1.55,0.5,2.28c0.29,0.86,0.69,1.68,1.07,2.51c1.87,4.1,3.81,8.16,5.61,12.29
		c3.79,8.69,7.52,17.41,11.21,26.14c0.45,1.06,1.03,1.45,2.15,1.42c1.19-0.04,2.22,1.04,2.21,2.21c0,0.25-0.12,0.54-0.26,0.75
		c-0.26,0.36-0.57,0.69-0.88,1.01c-0.4,0.42-0.54,0.85-0.29,1.41c0.3,0.64,0.54,1.32,0.76,1.99s0.03,1.27-0.52,1.74
		c-0.22,0.19-0.47,0.39-0.74,0.5c-2.32,0.96-4.61,2.03-7,2.79c-1.64,0.52-2.83,1.27-3.39,2.89c-0.08,0.22-0.27,0.41-0.43,0.61
		c-0.58,0.73-1.5,0.82-2.15,0.19c-0.3-0.29-0.57-0.62-0.77-0.98c-0.8-1.43-1.84-2.58-3.39-3.27c-1.92-0.86-3.85-1.24-5.93-0.43
		c-1.92,0.75-3.64,1.84-5.24,3.09c-2.12,1.66-4.12,3.48-6.14,5.27c-0.79,0.7-1.53,1.47-2.24,2.26c-0.35,0.38-0.55,0.88-0.85,1.31
		c-0.52,0.74-1.07,1.46-1.57,2.21c-0.47,0.7-0.85,1.46-1.34,2.15c-0.67,0.95-1.4,1.85-2.11,2.77c-0.36,0.46-0.74,0.91-1.11,1.37
		c-0.51,0.65-0.98,1.34-1.54,1.95c-0.9,1-1.85,1.97-2.8,2.94c-0.85,0.87-1.72,1.72-2.58,2.58c-0.79,0.79-1.58,1.57-2.35,2.37
		c-1.16,1.2-2.56,1.95-4.23,2.01c-2.29,0.07-4.15-0.87-5.59-2.59c-0.55-0.65-1.05-1.34-1.63-2.09
		C220.01,207.28,219.76,207.62,219.48,207.93z M240.47,99.58c0.04-0.11-0.14-0.29-0.22-0.44c-0.16-0.31-0.31-0.61-0.55-1.09
		c-0.06-0.18-0.13-0.51-0.26-0.82c-0.13-0.3-0.32-0.58-0.57-1.01c0.01-0.03,0.07-0.26,0.14-0.48c-0.06,0.02-0.11,0.05-0.17,0.07
		c-0.33-0.52-0.72-1.01-0.97-1.56c-0.86-1.87-1.67-3.77-2.51-5.66c-0.09-0.2-0.22-0.39-0.34-0.58c-0.07,0.03-0.14,0.06-0.21,0.09
		c0.07,0.24,0.13,0.48,0.22,0.71c2.53,5.97,5.06,11.94,7.59,17.91c0.94,2.22,1.86,4.44,2.79,6.66c0.4,0.95-0.21,2.4-1.17,2.81
		c-1,0.42-2,0.83-2.99,1.27c-0.57,0.25-0.92,0.15-1.17-0.46c-1.77-4.29-3.57-8.57-5.37-12.85c-0.09-0.23-0.25-0.43-0.38-0.64
		c-0.07,0.03-0.14,0.05-0.21,0.08c0.05,0.24,0.06,0.49,0.15,0.71c1.58,4.02,3.17,8.04,4.76,12.05c0.52,1.32,1.18,2.61,1.57,3.97
		c0.32,1.13,0.52,2.37,0.42,3.54c-0.17,1.9-1.11,3.43-3.05,4.16c-1.75,0.65-3.52,1.28-5.27,1.93c-0.89,0.33-1.75,0.72-2.65,1
		c-0.39,0.12-0.83,0.08-1.25,0.07c-0.76-0.01-1.19,0.46-1,1.18c0.15,0.57,0.36,1.12,0.58,1.67c1.16,2.92,2.33,5.84,3.51,8.75
		c1.07,2.66,2.15,5.32,3.23,7.98c0.54,1.34,1.53,2.3,2.61,3.23c0.7,0.6,1.38,1.28,1.86,2.05c1.27,2.02,0.94,3.88-0.89,5.48
		c-0.5,0.44-0.58,0.85-0.37,1.43c0.09,0.26,0.07,0.78-0.09,0.88c-0.48,0.3-0.51-0.24-0.69-0.5c-0.09-0.13-0.19-0.25-0.29-0.38
		c-0.06,0.02-0.12,0.04-0.19,0.06c0.15,0.55,0.3,1.11,0.44,1.66c-0.1,0.05-0.19,0.1-0.29,0.15c-0.29-0.39-0.57-0.77-0.86-1.16
		c-0.09,0.04-0.18,0.07-0.27,0.11c0.08,0.32,0.14,0.65,0.25,0.95c0.15,0.38,0.27,0.71-0.32,0.82c-0.11,0.02-0.21,0.13-0.29,0.22
		c-0.72,0.87-0.72,0.87-1.33-0.09c-0.03-0.05-0.1-0.08-0.3-0.25c0.18,0.53,0.34,0.89,0.42,1.26c0.04,0.17-0.08,0.38-0.12,0.57
		c-0.15-0.1-0.32-0.18-0.43-0.31c-0.11-0.13-0.17-0.3-0.21-0.47c-0.21-0.82-0.88-0.71-1.5-0.72c-0.6-0.01-0.76,0.42-0.9,0.85
		c-0.29,0.89-0.6,1.79-0.79,2.71c-0.09,0.43,0.12,0.9,0.15,1.35c0.01,0.22-0.09,0.45-0.14,0.67c-0.18-0.11-0.39-0.2-0.55-0.34
		c-0.15-0.13-0.24-0.31-0.36-0.46c-0.06,0.03-0.12,0.06-0.19,0.09c0.13,0.54,0.27,1.08,0.4,1.62c-0.1,0.05-0.2,0.09-0.3,0.14
		c-0.28-0.38-0.56-0.76-0.84-1.14c-0.06,0.02-0.13,0.04-0.19,0.06c0.07,0.27,0.13,0.55,0.21,0.82c0.1,0.33,0.46,0.68-0.06,0.96
		c-0.52,0.28-0.7-0.13-0.89-0.49c-0.04-0.08-0.12-0.13-0.35-0.14c0.08,0.3,0.2,0.6,0.24,0.91c0.03,0.21-0.04,0.43-0.06,0.65
		c-0.18-0.13-0.39-0.23-0.54-0.39s-0.24-0.37-0.52-0.49c0.15,0.56,0.3,1.12,0.46,1.68c-0.11,0.05-0.21,0.1-0.32,0.15
		c-0.2-0.34-0.43-0.66-0.59-1.01c-0.41-0.92-0.88-1.25-1.87-1.24c-0.41,0-0.61,0.15-0.73,0.57c-0.32,1.14-0.76,2.25-1.07,3.4
		c-0.13,0.47-0.06,0.99-0.07,1.48c0,0.24,0.02,0.49,0.03,0.73c-0.07,0.03-0.14,0.05-0.21,0.08c-0.28-0.37-0.57-0.74-0.85-1.11
		c-0.09,0.04-0.18,0.07-0.26,0.11c0.09,0.32,0.22,0.63,0.25,0.95c0.03,0.27-0.07,0.55-0.1,0.83c-0.22-0.12-0.46-0.23-0.66-0.38
		c-0.16-0.12-0.26-0.31-0.39-0.47c-0.08,0.04-0.16,0.07-0.24,0.11c0.11,0.32,0.25,0.64,0.3,0.97c0.04,0.25-0.05,0.52-0.08,0.78
		c-0.19-0.16-0.39-0.3-0.55-0.48c-0.12-0.12-0.19-0.29-0.29-0.44c-0.06,0.03-0.11,0.05-0.17,0.08c0.12,0.32,0.29,0.64,0.35,0.98
		c0.04,0.2-0.1,0.43-0.16,0.64c-0.17-0.11-0.41-0.17-0.5-0.32c-0.31-0.54-0.69-0.61-1.25-0.35c-0.68,0.32-1.39,0.59-2.1,0.83
		c-1.15,0.39-1.83,1.19-2.21,2.28c-0.54,1.57-0.38,3.08,0.27,4.59c2.49,5.69,4.93,11.41,7.42,17.1c1.07,2.43,2.92,4.09,5.51,4.89
		c1.53,0.47,2.77-0.33,3.96-1.12c0.41-0.27,0.45-0.71,0.14-1.17c-0.13-0.2-0.02-0.55-0.02-0.84c0.21,0.15,0.42,0.3,0.65,0.43
		c0.15,0.09,0.31,0.14,0.47,0.21c0-0.18,0.04-0.36-0.01-0.52c-0.04-0.16-0.23-0.3-0.23-0.45c0-0.18,0.08-0.46,0.21-0.53
		c0.14-0.07,0.43,0.01,0.56,0.13c0.23,0.21,0.39,0.49,0.58,0.74c0.09-0.05,0.19-0.11,0.28-0.16c-0.16-0.36-0.34-0.71-0.46-1.08
		c-0.06-0.2-0.02-0.43-0.02-0.65c0.2,0.13,0.41,0.24,0.6,0.38c0.09,0.07,0.1,0.23,0.19,0.31c0.1,0.08,0.24,0.12,0.36,0.17
		c0.03-0.15,0.13-0.32,0.08-0.44c-0.11-0.27-0.33-0.5-0.41-0.77c-0.05-0.17,0.07-0.39,0.12-0.58c0.21,0.06,0.47,0.06,0.63,0.19
		c0.23,0.18,0.39,0.45,0.59,0.68c0.09-0.05,0.17-0.09,0.26-0.14c-0.16-0.37-0.36-0.72-0.46-1.1c-0.07-0.24,0-0.51,0.01-0.77
		c0.2,0.14,0.41,0.26,0.59,0.42c0.1,0.09,0.12,0.28,0.22,0.37c0.11,0.09,0.28,0.12,0.43,0.17c0.04-0.15,0.16-0.33,0.11-0.45
		c-0.11-0.27-0.35-0.49-0.42-0.77c-0.06-0.21,0.07-0.46,0.11-0.7c0.22,0.09,0.47,0.13,0.64,0.27c0.22,0.19,0.36,0.45,0.54,0.68
		c0.1-0.06,0.2-0.11,0.3-0.17c-0.15-0.35-0.34-0.69-0.44-1.05c-0.09-0.3-0.09-0.62-0.12-0.94c0.28,0.13,0.57,0.26,0.85,0.39
		c0.2,0.1,0.39,0.2,0.59,0.31c-0.01-0.22,0.03-0.46-0.04-0.66c-0.09-0.25-0.32-0.45-0.39-0.7c-0.05-0.17,0.08-0.39,0.13-0.59
		c0.16,0.09,0.34,0.15,0.47,0.27c0.1,0.09,0.12,0.28,0.22,0.38c0.14,0.12,0.33,0.19,0.5,0.29c0-0.2,0.04-0.41-0.02-0.59
		c-0.11-0.3-0.34-0.55-0.42-0.85c-0.05-0.16,0.04-0.48,0.16-0.55c0.14-0.07,0.44-0.01,0.58,0.11c0.18,0.15,0.23,0.44,0.4,0.61
		c0.13,0.13,0.35,0.17,0.53,0.24c0.02-0.2,0.1-0.42,0.04-0.58c-0.14-0.36-0.4-0.68-0.54-1.04c-0.08-0.22-0.02-0.49-0.02-0.74
		c0.27,0.12,0.58,0.18,0.8,0.36c0.24,0.19,0.39,0.49,0.66,0.84c0.51-1.12-1.07-1.64-0.34-2.78c0.26,0.35,0.42,0.62,0.64,0.85
		c0.15,0.15,0.37,0.24,0.55,0.35c0.02-0.26,0.11-0.55,0.02-0.78c-0.1-0.26-0.44-0.43-0.52-0.69c-0.07-0.21,0.08-0.5,0.14-0.75
		c0.21,0.11,0.47,0.18,0.62,0.34c0.22,0.23,0.38,0.53,0.67,0.96c0.48-1.14-0.99-1.67-0.37-2.78c0.28,0.43,0.48,0.78,0.73,1.09
		c0.1,0.13,0.3,0.19,0.45,0.28c0.05-0.2,0.19-0.44,0.13-0.59c-0.16-0.38-0.48-0.69-0.62-1.08c-0.07-0.2,0.1-0.49,0.17-0.74
		c0.22,0.1,0.46,0.18,0.64,0.32c0.26,0.2,0.47,0.46,0.71,0.69c-0.06-0.33-0.08-0.68-0.19-1c-0.1-0.3-0.32-0.56-0.42-0.86
		c-0.05-0.15,0.05-0.35,0.09-0.53c0.2,0.06,0.43,0.06,0.58,0.18c0.29,0.24,0.53,0.53,0.88,0.9c0.36-1.1-1.23-1.59-0.3-2.72
		c0.23,0.34,0.39,0.65,0.62,0.9c0.13,0.14,0.38,0.18,0.57,0.27c0-0.22,0.07-0.47-0.01-0.65c-0.14-0.31-0.44-0.55-0.54-0.86
		c-0.06-0.17,0.16-0.43,0.25-0.65c0.19,0.09,0.42,0.14,0.56,0.29c0.21,0.22,0.35,0.51,0.53,0.77c0.1-0.05,0.19-0.11,0.29-0.16
		c-0.17-0.4-0.37-0.78-0.5-1.19c-0.07-0.22-0.04-0.47-0.06-0.71c0.2,0.12,0.42,0.22,0.58,0.38c0.19,0.2,0.32,0.45,0.48,0.68
		c0.08-0.03,0.16-0.06,0.24-0.09c-0.06-0.24-0.07-0.51-0.19-0.73c-0.58-1.11-0.51-1.61,0.44-2.45c1.6-1.4,3.21-2.78,4.83-4.16
		c0.23-0.19,0.49-0.36,0.75-0.5c0.83-0.46,1.06-0.42,1.48,0.39c0.31,0.6,0.62,0.53,1.12,0.2c1.31-0.84,2.59-1.74,3.99-2.41
		c2.59-1.24,5.12-0.73,7.57,0.42c1.51,0.71,2.66,1.77,3.31,3.31c0.07,0.16,0.16,0.31,0.26,0.44c0.6,0.79,1.04,0.76,1.58-0.09
		c0.96-1.51,1.23-3.06,0.41-4.7c-0.14-0.29-0.25-0.59-0.39-0.87c-0.24-0.48-0.05-0.82,0.41-1.02c2.27-0.97,4.54-1.92,6.81-2.88
		c0.25-0.11,0.52-0.2,0.78-0.29c0.47-0.18,0.6-0.48,0.39-0.93s-0.52-0.53-0.97-0.33c-1.54,0.68-3.09,1.35-4.63,2.02
		c-0.92,0.4-1.84,0.81-2.77,1.2c-0.46,0.2-0.88,0.25-1.12-0.31s-0.09-0.93,0.51-1.17c2.33-0.95,4.65-1.91,6.97-2.87
		c0.19-0.08,0.37-0.16,0.55-0.24c0.48-0.2,0.54-0.55,0.36-0.97c-0.19-0.44-0.52-0.36-0.88-0.21c-1.46,0.62-2.91,1.25-4.38,1.85
		c-1.07,0.44-2.15,0.85-3.22,1.27c-0.5,0.2-0.9,0.11-1.1-0.4c-0.2-0.53,0.16-0.78,0.58-0.95c2.44-1.02,4.88-2.02,7.31-3.06
		c0.29-0.12,0.66-0.46,0.69-0.72c0.07-0.63-0.47-0.9-1.12-0.63c-2.45,1.04-4.91,2.08-7.36,3.13c-0.45,0.19-0.85,0.34-1.15-0.21
		c-0.34-0.63-0.23-0.93,0.51-1.24c2.46-1.04,4.91-2.07,7.37-3.11c0.69-0.29,0.86-0.87,0.31-1.2c-0.21-0.13-0.63-0.07-0.89,0.04
		c-2.36,1-4.71,2.03-7.06,3.06c-0.14,0.06-0.3,0.2-0.41,0.17c-0.34-0.1-0.66-0.27-0.99-0.41c0.14-0.3,0.2-0.75,0.43-0.88
		c0.74-0.41,1.55-0.7,2.34-1.05c1.73-0.75,3.46-1.51,5.19-2.25c0.46-0.2,0.74-0.45,0.52-0.95c-0.22-0.51-0.59-0.48-1.05-0.28
		c-2.44,1.08-4.88,2.14-7.32,3.21c-0.76,0.33-1.29,0.09-1.23-0.64c0.02-0.27,0.3-0.64,0.55-0.75c2.4-1.03,4.82-2.02,7.24-3.01
		c0.09-0.04,0.19-0.08,0.28-0.11c0.51-0.17,0.67-0.51,0.48-0.99c-0.2-0.51-0.58-0.41-0.99-0.23c-2.44,1.07-4.88,2.14-7.34,3.18
		c-0.29,0.12-0.78,0.16-1.01,0c-0.59-0.41-0.42-1,0.33-1.33c2.47-1.07,4.94-2.14,7.41-3.2c0.4-0.17,0.74-0.34,0.64-0.85
		c-0.12-0.62-0.55-0.85-1.16-0.58c-2.49,1.08-4.98,2.17-7.47,3.26c-0.94,0.41-1.07,0.37-1.47-0.53c-1.4-3.22-2.8-6.44-4.17-9.68
		c-0.16-0.38-0.06-0.88-0.21-1.27c-0.39-0.96-0.83-1.9-1.29-2.82c-0.16-0.32-0.52-0.54-0.65-0.86c-4.25-9.91-8.49-19.83-12.71-29.75
		c-0.13-0.3-0.1-0.67-0.19-1c-0.08-0.28-0.22-0.55-0.33-0.82c-0.06-0.14-0.11-0.29-0.15-0.44c-0.04-0.18-0.02-0.38-0.08-0.55
		c-0.13-0.37-0.28-0.73-0.44-1.09c-0.18-0.39-0.37-0.78-0.56-1.17c-0.29-0.58-0.74-1.14-0.82-1.75c-0.09-0.67-0.86-1.08-0.59-1.84
		c0.02-0.06-0.12-0.18-0.2-0.27c-0.11-0.12-0.3-0.21-0.35-0.36c-0.22-0.59-0.39-1.19-0.6-1.78c-0.05-0.16-0.19-0.28-0.25-0.44
		c-0.1-0.25-0.18-0.5-0.26-0.76c-0.03-0.11,0-0.3-0.05-0.32c-0.66-0.27-0.53-0.8-0.4-1.34C240.6,100.34,240.29,100.13,240.47,99.58z
		 M246.22,84.23c-0.16-0.36-0.2-0.98-0.82-0.78c-0.12,0.04-0.14,0.82,0.01,1.16c3.37,8.09,6.76,16.18,10.16,24.26
		c1.73,4.12,3.48,8.24,5.21,12.36c0.26,0.61,0.44,1.25,0.66,1.87c0.18,0.49-0.11,0.72-0.5,0.93c-0.61,0.34-1.25,0.65-1.8,1.07
		c-0.98,0.75-1.48,2.58-1.01,3.71c1.4,3.38,2.81,6.76,4.28,10.11c0.22,0.51,0.86,0.83,1.27,1.27c0.26,0.28,0.54,0.58,0.69,0.92
		c1.09,2.45,2.16,4.9,3.21,7.36c0.4,0.93,1.12,1.4,2.07,1.59c0.7,0.14,1.5-0.51,1.57-1.37c0.05-0.54,0-1.15-0.2-1.64
		c-0.85-2.07-1.77-4.1-2.65-6.16c-0.21-0.5-0.51-0.59-1-0.39c-0.51,0.21-1.04,0.37-1.55,0.58c-0.45,0.19-0.78,0.06-0.9-0.35
		c-0.2-0.7-0.76-1.04-1.27-1.46c-0.36-0.3-0.71-0.68-0.9-1.1c-1.24-2.75-2.43-5.53-3.66-8.29c-0.96-2.16-0.23-4.24,1.99-5.22
		c2.55-1.13,2.01-1.02,1.15-3.04c-2.6-6.05-5.23-12.08-7.85-18.12c0.06-0.03,0.12-0.05,0.18-0.08
		C251.78,97.02,249.01,90.62,246.22,84.23z M232.42,89.82c-0.14,0.24-0.09,0.67,0.03,0.95c2.28,5.43,4.59,10.85,6.87,16.28
		c0.92,2.19,1.8,4.4,2.7,6.6c0.23,0.56,0.53,0.93,1.25,0.64c0.81-0.33,0.92-0.51,0.53-1.42c-1.08-2.55-2.21-5.09-3.28-7.64
		c-2.2-5.25-4.37-10.51-6.55-15.76c-0.11-0.27-0.23-0.53-0.41-0.94C233.08,89.04,232.67,89.39,232.42,89.82z M271.09,142.95
		c-0.41-0.95-0.79-1.9-1.24-2.84c-0.11-0.22-0.4-0.36-0.6-0.54c-0.09,0.3-0.22,0.6-0.25,0.91c-0.02,0.17,0.14,0.36,0.21,0.54
		c1.93,4.49,3.85,8.98,5.8,13.46c0.15,0.34,0.41,0.66,0.69,0.91c0.45,0.39,0.68,0.83,0.54,1.42c-0.15,0.61,0.1,1.06,0.6,1.38
		c0.45,0.29,0.62,0.67,0.49,1.19c-0.15,0.6,0.02,1.06,0.59,1.36c0.45,0.24,0.62,0.62,0.48,1.11c-0.19,0.65,0.08,1.1,0.62,1.43
		c0.44,0.26,0.62,0.59,0.47,1.1c-0.19,0.62,0.04,1.13,0.57,1.46c0.54,0.33,0.76,0.73,0.6,1.35c-0.15,0.58,0.07,1.03,0.6,1.29
		c0.5,0.25,0.65,0.64,0.53,1.16c-0.16,0.68,0.06,1.17,0.65,1.58c0.25,0.18,0.37,0.59,0.46,0.93c0.12,0.48,0.07,1.01,0.24,1.47
		c0.29,0.83,0.67,1.64,1.06,2.43c0.09,0.18,0.35,0.28,0.53,0.42c0.12-0.2,0.32-0.39,0.35-0.61c0.04-0.23-0.04-0.49-0.14-0.71
		c-1.39-3.22-2.79-6.44-4.18-9.66c0.04-0.02,0.08-0.04,0.12-0.05C277.59,157.95,274.34,150.45,271.09,142.95z M231.05,91.38
		c-0.11-0.25-0.39-0.42-0.59-0.63c-0.15,0.32-0.42,0.63-0.41,0.94c0.01,0.48,0.16,0.97,0.33,1.43c0.75,2.05,1.52,4.09,2.33,6.12
		c0.14,0.34,0.54,0.57,0.8,0.88c0.28,0.33,0.61,0.64,0.77,1.03c1.86,4.38,3.7,8.78,5.55,13.16c0.14,0.33,0.16,1,0.76,0.74
		c0.54-0.24,0.21-0.73,0.05-1.1c-1.62-3.74-3.24-7.48-4.86-11.22c0.06-0.03,0.12-0.05,0.18-0.08
		C234.32,98.9,232.7,95.13,231.05,91.38z M212.38,190.65c1.67,3.85,3.34,7.7,5.01,11.54c0.52,1.19,1.03,2.39,1.55,3.58
		c0.11,0.25,0.28,0.46,0.47,0.75c0.55-0.64,0.42-1.18,0.17-1.74c-1.48-3.34-2.96-6.68-4.42-10.03c-0.72-1.64-1.41-3.29-2.12-4.94
		c-0.09-0.22-0.22-0.42-0.37-0.71C212.01,189.63,212.15,190.13,212.38,190.65z M250.61,185.26c1.03-0.86,2.06-1.73,3.12-2.56
		c0.21-0.17,0.56-0.17,0.84-0.26c0.2-0.06,0.48-0.09,0.58-0.23c0.09-0.14,0.07-0.46-0.04-0.59c-0.13-0.16-0.39-0.27-0.61-0.29
		c-0.17-0.01-0.39,0.11-0.54,0.23c-1.3,1.04-2.61,2.08-3.89,3.16c-0.47,0.4-0.91,0.85-1.27,1.35c-0.39,0.55-0.09,1.08,0.79,1.31
		C249.21,186.27,249.97,185.79,250.61,185.26z M284.9,171.43c0.39-0.47,0.7-1,1.04-1.51c-0.6-0.1-1.26-0.42-1.78-0.26
		c-0.71,0.22,0,0.75-0.01,1.36C284.36,171.14,284.87,171.47,284.9,171.43z M243.33,83.42c0.14-0.06,0.18-0.38,0.26-0.58
		c-0.25-0.05-0.52-0.18-0.75-0.13c-0.15,0.03-0.25,0.32-0.52,0.7C242.82,83.43,243.11,83.52,243.33,83.42z"/>
	<path class="st1" d="M246.72,167.64c-0.25-0.27-0.5-0.58-0.03-0.84c0.46-0.26,0.61,0.13,0.75,0.45c0.11,0.25,0.18,0.51,0.3,0.75
		c0.67,1.36,1.3,2.75,2.05,4.06c0.7,1.23,1.56,2.38,2.31,3.58c0.73,1.16,0.6,1.73-0.48,2.62c-1.35,1.11-2.74,2.19-4.04,3.35
		c-0.93,0.83-1.8,1.74-2.6,2.69c-1.59,1.91-3.16,3.84-4.66,5.82c-1.52,2-2.93,4.08-4.44,6.09c-1.63,2.16-3.33,4.27-4.99,6.41
		c-0.8,1.03-2.66,0.86-3.19-0.33c-0.61-1.37-1.19-2.75-1.78-4.12c-1.52-3.52-3.02-7.04-4.56-10.55c-0.39-0.88-0.26-1.57,0.48-2.24
		c1.16-1.05,2.26-2.17,3.39-3.25c1.68-1.61,3.35-3.22,5.03-4.82c1.52-1.45,3.05-2.89,4.57-4.34c1.37-1.3,2.76-2.6,4.12-3.91
		c1.15-1.11,2.33-2.2,3.41-3.37c1.06-1.14,1.09-1.27,2.19-0.31c0.63,0.55,1.92,0.86,1.31,2.21c0.3,0.15,0.54,0.26,0.86,0.42
		C246.72,167.73,246.75,167.66,246.72,167.64z M231.65,193.23c-0.01-0.03-0.08-0.04-0.13-0.06c-0.83,0.85-0.89,1.2-0.47,2.14
		c0.12,0.28,0.15,0.59,0.29,1.16c0.28-0.45,0.46-0.73,0.7-1.13c-0.83,0.02-1.07-0.4-0.93-0.98c0.03-0.13,0.52-0.16,0.87-0.25
		C231.89,193.87,231.77,193.55,231.65,193.23z M229.97,190.95c-0.16,0.77,0.29,1.57,0.92,1.61c0.25,0.02,0.57-0.19,0.78-0.39
		c0.09-0.08-0.03-0.38-0.05-0.58c-0.17,0.04-0.35,0.05-0.52,0.12c-0.1,0.04-0.18,0.15-0.33,0.29
		C230.5,191.64,230.25,191.31,229.97,190.95z M238.61,178.16c-0.19,0.65-0.12,1.17,0.29,1.47c0.36,0.26,0.87,0.46,1.34,0.01
		C239.68,179.13,239.19,178.68,238.61,178.16z M232.1,182.37c0.37,0.08,0.37,0.08,0.92-0.97c-0.23-0.07-0.45-0.18-0.68-0.21
		c-0.37-0.04-0.78,0.02-0.81-0.53c0-0.06-0.21-0.11-0.32-0.16c-0.03,0.13-0.13,0.33-0.08,0.38c0.34,0.32,0.71,0.61,1.19,1.01
		C232.28,181.97,232.19,182.17,232.1,182.37z M227.84,186.3c0.27-0.81,0.05-1.09-0.74-1.03c-0.3,0.02-0.61,0.01-0.92,0.03
		c-0.01,0-0.02,0.09-0.03,0.14C226.71,185.72,227.27,186.01,227.84,186.3z M242.8,168.72c-0.08,0.15-0.29,0.39-0.31,0.63
		c-0.01,0.19,0.18,0.49,0.35,0.56c0.26,0.09,0.58,0.02,0.96,0.01C243.41,169.45,243.15,169.14,242.8,168.72z M234.34,186.45
		c-0.37,0.59-0.27,0.92,0.5,1.58C235.37,187.37,235.18,187.44,234.34,186.45z M241.11,177.63c0.02,0.1,0.34,0.16,0.52,0.23
		c0.04-0.18,0.16-0.37,0.12-0.52c-0.11-0.36-0.29-0.7-0.44-1.05c-0.08,0.01-0.16,0.02-0.24,0.03
		C241.07,176.76,241.04,177.2,241.11,177.63z M242.51,174.54c-0.13-0.09-0.29-0.16-0.44-0.18c-0.06-0.01-0.23,0.19-0.21,0.24
		c0.05,0.15,0.15,0.33,0.28,0.38c0.49,0.18,0.92,0.73,1.48,0.34C243.23,175.04,242.88,174.78,242.51,174.54z M228.89,202.13
		c1.26,0.09,0.97-0.84,1.18-1.42c-0.06-0.04-0.13-0.08-0.19-0.12C229.56,201.08,229.24,201.59,228.89,202.13z M229.34,199.3
		c-0.3-0.21-0.53-0.4-0.79-0.54c-0.15-0.08-0.36-0.06-0.54-0.09c0.05,0.19,0.03,0.45,0.15,0.55c0.26,0.2,0.58,0.31,0.94,0.5
		C229.19,199.57,229.27,199.42,229.34,199.3z M227.57,193.39c-0.2,0.57-0.37,1.05-0.56,1.6
		C228.17,194.27,228.21,194.19,227.57,193.39z M225.45,188.86c-0.07,0-0.22,0.43-0.17,0.46c0.22,0.16,0.48,0.33,0.73,0.34
		c0.15,0.01,0.32-0.27,0.48-0.43c-0.11-0.08-0.22-0.16-0.32-0.24C225.93,188.94,225.69,188.84,225.45,188.86z M235.21,193.22
		c0.22,0.33,0.32,0.64,0.52,0.72c0.36,0.14,0.82,0.43,1.09-0.11C236.29,193.64,235.87,193.47,235.21,193.22z M225.85,191.22
		c0.02,0.08,0.1,0.2,0.17,0.21c0.11,0.01,0.27-0.03,0.32-0.11c0.21-0.32,0.38-0.66,0.59-1.03
		C226.45,190.32,225.79,190.92,225.85,191.22z M240.26,173.66c-0.11,0.09-0.04,0.4-0.05,0.62c0.06,0.02,0.12,0.05,0.19,0.07
		c0.27-0.25,0.55-0.51,0.82-0.76c-0.05-0.09-0.09-0.18-0.14-0.26C240.8,173.43,240.48,173.48,240.26,173.66z M238.08,176.83
		c-0.02,0-0.04,0.28-0.06,0.43c0.32,0.03,0.64,0.06,0.96,0.09c0.02-0.16,0.03-0.31,0.05-0.47
		C238.71,176.86,238.4,176.83,238.08,176.83z M240.5,186.8c0.01-0.12-0.04-0.28-0.12-0.37c-0.07-0.07-0.27-0.11-0.34-0.06
		c-0.09,0.07-0.17,0.23-0.16,0.35c0.01,0.28,0.08,0.56,0.12,0.83c0.11,0.03,0.23,0.05,0.34,0.08
		C240.39,187.37,240.47,187.09,240.5,186.8z M243.12,171.72c0.05,0.3,0.02,0.58,0.11,0.62c0.29,0.13,0.62,0.17,0.93,0.25
		c0.02-0.1,0.05-0.2,0.07-0.3C243.92,172.12,243.6,171.96,243.12,171.72z M238.8,189.67c0.1-0.14,0.31-0.39,0.28-0.42
		c-0.21-0.21-0.46-0.38-0.7-0.56c-0.09,0.09-0.18,0.18-0.26,0.27C238.34,189.2,238.57,189.43,238.8,189.67z M239.67,188.85
		c0.18,0.02,0.49,0.09,0.51,0.05c0.09-0.22,0.1-0.47,0.14-0.71c-0.11-0.03-0.21-0.05-0.32-0.08
		C239.89,188.35,239.78,188.6,239.67,188.85z M234.62,181.69c-0.16,0.08-0.33,0.15-0.49,0.23c0.15,0.22,0.3,0.43,0.45,0.65
		c0.11-0.06,0.23-0.12,0.34-0.18C234.82,182.15,234.72,181.92,234.62,181.69z M240.76,181.45c-0.38,0.07-0.72,0.03-0.86,0.18
		c-0.16,0.17-0.15,0.5-0.21,0.76c0.06-0.02,0.13-0.04,0.19-0.07C240.12,182.08,240.37,181.84,240.76,181.45z M232.75,193.81
		c0.4,0.01,0.81,0.02,1.4,0.03C233.62,193.47,233.24,193.12,232.75,193.81z M233.21,195.22c0.13,0.12,0.36,0.17,0.56,0.17
		c0.05,0,0.2-0.33,0.15-0.4c-0.1-0.14-0.31-0.22-0.61-0.41C233.25,194.91,233.14,195.16,233.21,195.22z M240.33,175.03
		c-0.52-0.11-0.88-0.18-1.24-0.26c-0.02,0.07-0.04,0.14-0.06,0.22C239.38,175.12,239.63,175.76,240.33,175.03z M227.42,188.29
		c0.09,0.15,0.18,0.3,0.28,0.46c0.2-0.19,0.4-0.39,0.6-0.58c-0.07-0.09-0.14-0.18-0.21-0.28
		C227.86,188.03,227.64,188.16,227.42,188.29z M234.28,195.68c-0.13,0-0.27,0.24-0.41,0.36c0.03,0.06,0.06,0.13,0.09,0.19
		c0.31-0.03,0.61-0.06,0.92-0.09c0.02-0.07,0.03-0.14,0.05-0.22C234.72,195.84,234.5,195.69,234.28,195.68z M227.14,182.37
		c0.07-0.01,0.11-0.26,0.16-0.41c-0.19-0.05-0.38-0.15-0.56-0.14c-0.09,0.01-0.18,0.22-0.35,0.45
		C226.74,182.33,226.95,182.4,227.14,182.37z M237.07,186.55c0.05-0.02,0.1-0.04,0.14-0.07c-0.11-0.26-0.22-0.51-0.33-0.77
		c-0.17,0.11-0.34,0.21-0.62,0.39C236.65,186.31,236.86,186.43,237.07,186.55z"/>
	<path d="M253.53,177.99c-1.27,1.07-2.51,2.03-3.64,3.1c-1.54,1.45-3.13,2.89-4.48,4.51c-2.04,2.47-3.88,5.11-5.83,7.66
		c-2.01,2.63-4.04,5.25-6.07,7.87c-0.66,0.85-1.34,1.67-1.98,2.53c-0.39,0.53-0.85,0.81-1.53,0.73c-0.47-0.05-0.95-0.02-1.41-0.11
		c-0.82-0.17-1.41-0.6-1.75-1.42c-2.19-5.15-4.42-10.29-6.64-15.43c-0.47-1.09-0.2-1.91,0.69-2.7c1.23-1.09,2.41-2.25,3.61-3.38
		c1.74-1.65,3.48-3.3,5.21-4.96c1.59-1.52,3.15-3.07,4.75-4.58c1.98-1.87,3.98-3.72,5.97-5.58c0.69-0.65,1.36-1.32,2.06-1.97
		c0.35-0.33,0.31-0.6,0.02-0.95c-0.21-0.25-0.37-0.61-0.39-0.93c-0.04-0.63-0.58-1.52-1.18-1.74c-0.07-0.02-0.15-0.04-0.22-0.03
		c-0.62,0.07-1.69,1.69-1.39,2.21c0.43,0.75,0.12,1.24-0.44,1.73c-1.28,1.12-2.54,2.25-3.82,3.37c-0.85,0.74-1,0.71-1.47-0.31
		c-0.09-0.2-0.17-0.42-0.3-0.59c-0.35-0.47-0.92-0.45-1.12,0.1c-0.43,1.13-1.16,2.23-0.43,3.52c0.14,0.24,0.01,0.84-0.21,1.04
		c-1.48,1.34-3.03,2.61-4.54,3.91c-0.38,0.33-0.65,0.2-0.83-0.17c-0.21-0.42-0.31-0.9-0.57-1.27c-0.19-0.26-0.57-0.39-0.86-0.58
		c-0.16,0.26-0.37,0.51-0.46,0.79c-0.26,0.77-0.43,1.57-0.73,2.32c-0.2,0.49-0.29,0.92-0.06,1.41c0.21,0.44,0.15,0.85-0.25,1.21
		c-1.17,1.06-2.32,2.14-3.5,3.18c-0.73,0.65-0.9,0.62-1.27-0.24c-0.24-0.55-0.55-0.68-1.11-0.41c-1.15,0.56-2.33,1.04-2.94,2.31
		s-0.69,2.56-0.18,3.79c2.27,5.47,4.56,10.93,6.93,16.34c0.89,2.02,2.2,3.78,4.33,4.74c1.03,0.47,2.1,0.55,3.19,0.07
		c0.49-0.21,0.6-0.49,0.5-0.99c-0.05-0.27,0.07-0.68,0.27-0.87c1.35-1.37,2.8-2.64,4.1-4.06c1.58-1.72,3.12-3.5,4.55-5.35
		c1.81-2.34,3.47-4.8,5.25-7.17c1.66-2.21,3.28-4.45,5.12-6.51c1.28-1.43,2.91-2.57,4.39-3.83c0.36-0.31,0.76-0.58,1.1-0.91
		C254.35,179.03,254.11,178.42,253.53,177.99z"/>
	<path class="st1" d="M254.86,177.77c0.7-1.43,1.29-1.88,2.13-1.69c1.18,0.26,1.61,0.84,1.58,2.27c0.23-0.06,0.43-0.09,0.62-0.17
		c0.81-0.34,1.62-0.69,2.43-1.03c1.69-0.73,3.36-0.57,5.02,0.04c1.42,0.52,2.88,1.02,3.88,2.2c0.55,0.65,0.94,1.43,1.46,2.11
		c0.18,0.24,0.52,0.37,0.78,0.55c0.1-0.29,0.34-0.62,0.28-0.86c-0.2-0.75-0.47-1.49-0.78-2.21c-1.02-2.37-2.08-4.72-3.12-7.08
		c-0.1-0.22-0.19-0.46-0.33-0.65c-0.48-0.68-0.91-0.78-1.66-0.43c-0.77,0.36-1.56,0.71-2.32,1.09c-1.29,0.65-2.05,0.4-2.62-0.92
		c-1.62-3.74-3.22-7.49-4.86-11.23c-0.31-0.72-0.7-1.41-1.08-2.09c-0.3-0.54-0.81-0.56-1.29-0.11c-1.45,1.33-1.62,3.01-1.15,4.7
		c0.52,1.83,1.27,3.6,1.91,5.4c0.27,0.76,0.51,1.53,0.75,2.3c0.23,0.76-0.12,1.35-0.66,1.85c-0.59,0.55-1.21,0.59-1.82,0.08
		c-0.43-0.36-0.87-0.76-1.16-1.22c-0.98-1.55-2.07-3.03-2.62-4.83c-0.49-1.6-0.67-1.59-1.77-0.29c-0.21,0.25-0.34,0.74-0.25,1.04
		c0.88,3.06,2.54,5.72,4.46,8.24c0.6,0.78,1.14,1.6,1.71,2.4C254.52,177.39,254.67,177.54,254.86,177.77z"/>
	<path d="M234.68,146.22c-1.03-2.83-2.1-5.65-3.09-8.5c-0.58-1.68,0.46-4.28,1.91-5.37c1.67-1.25,3.68-1.69,5.55-2.44
		c2.22-0.89,5.77,0.71,6.66,3.17c1.34,3.68,2.46,7.4,3.09,11.26c0.37,2.27,0.21,4.51-0.85,6.63c-0.24,0.48-0.56,0.95-0.94,1.32
		c-1.43,1.41-3.23,1.76-5.13,1.58c-2.31-0.21-4.11-1.35-5.23-3.3c-0.79-1.38-1.3-2.91-1.93-4.37
		C234.71,146.21,234.69,146.21,234.68,146.22z M237.15,149.46c1.19,3.51,5.35,4.19,8.33,2.5c0.46-0.26,1-0.36,1.34-0.78
		c0.15-0.19,0.06-0.58-0.02-0.78c-0.11-0.28-0.5-0.34-0.79-0.24s-0.52,0.32-0.8,0.44c-0.31,0.13-0.65,0.14-0.99,0.14
		c-1.76-0.01-3.52-0.24-5.23-0.66c-0.19-0.05-0.38-0.1-0.54-0.21c-0.24-0.17-0.32-0.53-0.31-0.81c0.01-0.2,0.47-0.51,0.75-0.55
		c1.7-0.21,3.41-0.35,5.11-0.52c0.19-0.02,0.44-0.04,0.56-0.15c0.96-0.89,1.97-1.75,2.82-2.75c0.31-0.37,0.39-1.09,0.29-1.6
		c-0.75-3.63-1.63-7.24-3.22-10.61c-0.64-1.37-1.96-1.79-3.34-2.03c-1.21-0.21-2.4,0.01-3.5,0.54c-1.19,0.57-2.47,1.04-3.51,1.83
		c-1.52,1.14-1.91,2.82-1.48,4.6c0.27,1.11,0.83,2.64,1.27,3.7c0,0,1.07,2.75,2.54,5.85c-0.05,0.02,0.31,0.94,0.26,0.96
		C236.98,149,236.91,148.77,237.15,149.46z"/>
	<path class="st1" d="M242.97,117.7c-0.09,0.04-0.18,0.08-0.28,0.12c-1.89,0.81-1.88,0.82-1.25,2.79c0.23,0.72,0.39,1.46,0.55,2.21
		c0.25,1.19-0.14,2.28-0.66,3.34c-0.64,1.28-0.31,2.29,0.98,2.82c1.31,0.54,2.62,1.05,3.46,2.28c0.23,0.34,0.56,0.32,0.67-0.17
		c0.31-1.41,1.17-2.38,2.46-3c0.51-0.24,0.65-0.51,0.43-1.04c-1.31-3.09-2.58-6.2-3.88-9.3c-0.35-0.83-0.51-0.88-1.36-0.52
		C243.7,117.38,243.34,117.55,242.97,117.7C242.97,117.71,242.97,117.7,242.97,117.7z"/>
	<path class="st1" d="M249.68,161.24c-0.03-0.45-0.09-0.91-0.08-1.36c0.06-2.17,0.54-4.28,1.11-6.39c0.68-2.5,0.59-5.02-0.03-7.51
		c-0.09-0.35-0.28-0.68-0.43-1.01c-0.1,0.02-0.21,0.05-0.31,0.07c0.02,0.73,0.04,1.46,0.07,2.19c0.07,1.75-0.18,3.43-1.16,4.96
		c-0.69,1.08-1.75,1.68-2.86,2.22c-1.2,0.58-1.19,0.71-0.38,1.77c1.15,1.5,2.23,3.05,3.35,4.57c0.15,0.21,0.33,0.39,0.5,0.58
		C249.53,161.31,249.61,161.27,249.68,161.24z"/>
	<path d="M258.57,151.29c-0.02-0.7-0.33-0.97-0.9-0.76c-0.68,0.26-1.35,0.55-2,0.87c-0.57,0.28-0.65,0.72-0.4,1.31
		c2.45,5.63,4.89,11.26,7.33,16.89c0.03,0.07,0.06,0.13,0.09,0.2c0.64,1.79,0.52,1.62,2.21,0.88c1.81-0.79,1.81-0.79,1.04-2.58
		c-2.07-4.77-4.14-9.55-6.22-14.32c-0.08-0.19-0.19-0.36-0.44-0.48c0.09,0.24,0.17,0.47,0.27,0.7c2.05,4.84,4.1,9.67,6.15,14.51
		c0.46,1.1,0.44,1.14-0.7,1.63c-1.38,0.6-1.39,0.6-1.98-0.78c-2.32-5.39-4.65-10.78-6.94-16.18c-0.17-0.4-0.24-0.98-0.07-1.35
		c0.21-0.48,1.71-0.8,2.15-0.64C258.28,151.25,258.43,151.26,258.57,151.29z"/>
	<path d="M243.99,163.07c0.83-0.84,1.79-1.78,2.7-2.77c0.12-0.13,0.05-0.57-0.09-0.75c-0.58-0.75-1.23-1.45-1.85-2.18
		c-0.23-0.28-0.46-0.47-0.8-0.15c-0.75,0.73-1.49,1.46-2.24,2.2c-0.32,0.31-0.37,0.59,0.01,0.93c0.62,0.55,1.03,1.22,1.15,2.07
		C242.99,163.12,243.41,163.4,243.99,163.07z"/>
	<path class="st1" d="M252.33,130.89c-0.27,0.43-0.52,0.81-0.74,1.2c-0.58,1.02-1.37,1.84-2.42,2.37c-0.37,0.18-0.85,0.22-1.28,0.21
		c-0.69-0.01-0.83,0.13-0.57,0.74c0.25,0.58,0.44,1.21,0.78,1.74c0.15,0.23,0.68,0.45,0.9,0.35c2.25-0.94,4.02-3.97,3.59-6.36
		C252.59,131.1,252.52,131.07,252.33,130.89z"/>
	<path d="M246.59,165.92c0.94-0.85,1.86-1.65,2.73-2.51c0.11-0.11-0.02-0.56-0.17-0.77c-0.32-0.46-0.73-0.86-1.1-1.28
		c-0.28-0.32-0.58-0.36-0.89-0.05c-0.86,0.86-1.72,1.72-2.56,2.6c-0.11,0.12-0.22,0.43-0.15,0.5c0.5,0.52,1.03,1.01,1.58,1.48
		C246.14,165.98,246.39,165.91,246.59,165.92z"/>
	<path d="M250.84,140.35c0.73-0.31,1.62,0.07,1.98,0.84c0.34,0.73-0.01,1.71-0.72,2.02c-0.7,0.31-1.68-0.08-2-0.79
		C249.75,141.64,250.1,140.67,250.84,140.35z M251.04,141.85c0.07,0.14,0.33,0.2,0.51,0.29c0.1-0.2,0.27-0.41,0.27-0.6
		c0-0.1-0.32-0.19-0.61-0.34C251.12,141.49,250.97,141.72,251.04,141.85z"/>
	<path d="M239.84,154.89c0.89,0.71,1.28,1.65,1.51,2.69c0.08,0.37,0.37,0.46,0.68,0.21c0.56-0.46,1.13-0.92,1.62-1.45
		c0.12-0.13,0.02-0.73-0.09-0.77c-1.14-0.32-2.3-0.58-3.46-0.84C240.05,154.72,239.98,154.8,239.84,154.89z"/>
	<path d="M257.22,178.99c0.54-0.21,0.93-1.09,0.72-1.62c-0.2-0.5-1.08-0.87-1.57-0.67c-0.47,0.19-0.94,1.21-0.76,1.64
		C255.81,178.8,256.76,179.18,257.22,178.99z"/>
	<path d="M255.27,140.22c-0.53,0.22-0.84,0.88-0.65,1.41c0.18,0.5,0.98,0.8,1.51,0.58c0.49-0.21,0.79-0.94,0.59-1.44
		C256.51,140.27,255.81,140,255.27,140.22z"/>
	<path d="M266.76,144.96c0.3,0.7,0.61,1.39,0.9,2.09c0.18,0.42,0.47,0.54,0.89,0.36c0.09-0.04,0.19-0.07,0.28-0.11
		c1.45-0.58,1.5-0.7,0.88-2.12c-0.45-1.03-0.9-2.07-1.34-3.11c-0.34-0.79-0.58-0.89-1.37-0.58c-0.16,0.06-0.33,0.13-0.49,0.2
		c-0.79,0.33-0.9,0.58-0.57,1.37C266.21,143.7,266.49,144.33,266.76,144.96C266.77,144.96,266.76,144.96,266.76,144.96z"/>
	<path d="M269.19,147.56c-0.37,0.25-1.08,0.31-0.77,1.07c0.2,0.48,1.08,0.79,1.55,0.59c0.47-0.21,0.86-1.1,0.62-1.53
		C270.24,147.04,269.72,147.34,269.19,147.56z"/>
	<path class="st2" d="M270.99,156.99c-0.22,0.01-0.44,0.01-0.64,0.08c-0.22,0.07-0.43,0.17-0.65,0.24
		c-0.39,0.14-0.79,0.26-1.18,0.39c-0.01-0.01,0-0.02-0.01-0.03s-0.02-0.02-0.03-0.03c0.01,0.02,0.02,0.04,0.03,0.06h-0.01
		c-0.1-0.23-0.31-0.34-0.56-0.37c-0.08-0.01-0.15-0.01-0.23-0.02c-0.03,0-0.12-0.01-0.05,0c-0.03,0-0.07-0.01-0.1-0.02
		c-0.31-0.05-0.62-0.14-0.92-0.26c-0.1-0.04-0.25-0.12-0.37-0.18c-0.14-0.08-0.29-0.12-0.43-0.19c-0.25-0.12-0.47-0.27-0.68-0.45
		c-1.31-3.11-2.6-6.23-3.96-9.32c-0.8-1.82-1.74-3.5-2.7-5.24c-1-1.81-1.74-3.74-2.78-5.53c-0.04-0.08-0.15-0.02-0.13,0.06
		c0.38,2.01,1.04,3.85,1.92,5.69c0.9,1.89,1.79,3.74,2.59,5.68c1.65,3.98,3.41,7.92,5.1,11.88c0.15,0.35,0.48,0.38,0.74,0.24
		c0.07,0.01,0.14,0.01,0.21,0c0.46-0.08,0.91-0.24,1.35-0.4c0.46-0.16,0.92-0.33,1.36-0.54c0.42-0.2,0.84-0.42,1.24-0.65
		c0.19-0.11,0.39-0.21,0.56-0.34c0.19-0.13,0.32-0.32,0.45-0.5C271.21,157.14,271.11,156.99,270.99,156.99z"/>
	<path class="st2" d="M267.69,139.13c-0.36-0.02-0.7,0.11-1.05,0.18c0.06-0.12,0.08-0.26,0.04-0.43c-0.23-0.93-0.67-1.86-1.04-2.73
		c-0.35-0.82-0.84-1.4-1.62-1.85c-0.67-0.39-1.29-0.81-1.85-1.36c-0.21-0.21-0.42-0.45-0.62-0.69c-0.29-0.61-0.58-1.22-0.88-1.82
		c-0.58-1.17-1.36-2.77-0.57-4.02c0.04-0.07-0.04-0.16-0.11-0.11c-1.38,0.87-1.24,2.5-0.69,3.83c0.75,1.8,1.64,3.55,2.47,5.31
		c0.41,0.86,0.8,1.73,1.22,2.58c0.35,0.69,0.77,1.41,1.42,1.86c0.59,0.41,1.36,0.58,2.07,0.51c0.56-0.05,1.31-0.3,1.49-0.89
		C268.03,139.31,267.87,139.14,267.69,139.13z"/>
	<path class="st2" d="M240.51,98.5c-0.35-0.87-0.69-1.75-1.04-2.63c-0.16-0.62-0.29-1.26-0.36-1.89c-0.09-0.85,0.01-1.66,0.15-2.5
		c0.16-0.95-0.29-1.58-0.73-2.38c-0.46-0.82-0.92-1.64-1.39-2.46c-0.29-0.51-1.2-0.32-1.16,0.31c0,0.02,0.01,0.04,0.01,0.06
		c-0.37-0.49-1.28-0.22-1.07,0.47c0.4,1.3,0.75,2.79,1.46,3.96c0.05,0.09,0.13,0.13,0.22,0.15c2.53,6.18,5.15,12.34,8.17,18.27
		c0.03,0.06,0.13,0.02,0.11-0.04C243.53,106.01,242.03,102.26,240.51,98.5z"/>
	<path class="st3" d="M250.74,84.42c-0.76-0.23-1.52-0.48-2.28-0.7c-0.58-0.17-1.1-0.35-1.5-0.87c-0.18-0.23-0.69-0.22-1.05-0.3
		c-0.22-0.05-0.57,0-0.66-0.13c-0.47-0.71-1.16-0.59-1.75-0.36c-1.43,0.55-2.84,1.16-4.22,1.83c-0.64,0.31-1.11,0.82-1.31,1.56
		c-0.07,0.25-0.38,0.53-0.64,0.63c-0.89,0.34-1.81,0.6-2.72,0.9c-0.73,0.24-1.42,0.54-1.77,1.28c-0.31,0.66-0.86,1.02-1.53,1.23
		c-1.96,0.63-2.11,1.74-1.61,3.29c0.52,1.64,1.2,3.22,1.81,4.83c0.28,0.73,0.53,1.48,0.79,2.22c0.22,0.6,0.39,1.15,1.2,1.32
		c0.78,0.16,0.92,1.21,0.34,1.77c-0.47,0.45-0.3,0.96-0.1,1.44c0.92,2.3,1.85,4.6,2.8,6.89c0.97,2.36,2.06,4.68,2.92,7.08
		c0.55,1.53,0.89,3.16,1.1,4.78c0.23,1.79-0.94,3.54-2.65,4.24c-1.25,0.51-2.53,0.94-3.8,1.39c-1.36,0.49-2.72,0.98-4.08,1.44
		c-0.24,0.08-0.54,0.08-0.8,0.04c-1.41-0.2-2.4,0.91-1.89,2.19c1.85,4.71,3.72,9.41,5.59,14.1c0.67,1.69,1.37,3.36,2.06,5.05
		c0.46,1.12,1.27,1.95,2.19,2.73c0.8,0.68,1.55,1.44,2.21,2.26c0.81,1.01,0.54,2.57-0.62,3.86c-0.44,0.49-1.01,0.88-1.52,1.31
		c-0.77,0.64-1.51,1.33-2.33,1.9c-0.81,0.56-1.54,1.29-2.66,1.31c-0.65,0.01-1.07,0.45-1.23,1.12c-0.19,0.79-0.4,1.59-0.68,2.35
		c-0.41,1.13-1.45,1.7-2.36,2.37c-0.3,0.22-0.59,0.44-0.89,0.66c-0.59,0.45-1.24,0.48-1.93,0.35c-1.77-0.35-1.86-0.28-2.26,1.46
		c-0.14,0.6-0.31,1.2-0.46,1.8c-0.33,1.27-1.23,2.08-2.27,2.82c-0.73,0.52-1.34,1.21-2.06,1.74c-0.53,0.39-1.15,0.81-1.77,0.91
		c-2.18,0.34-3.65,2.17-3.89,4.18c-0.08,0.71-0.11,1.42-0.12,2.13c0,0.38-0.06,0.56-0.51,0.62c-1.31,0.16-1.8,0.91-1.38,2.13
		c0.45,1.32,0.94,2.63,1.46,3.93c1.63,4.08,3.28,8.15,4.9,12.23c0.22,0.55,0.37,1.12,0.56,1.68c0.37,1.14,1.63,1.4,2.49,0.5
		c0.29-0.3,0.54-0.64,0.85-1.02c0.59,0.75,1.09,1.44,1.63,2.09c1.44,1.72,3.3,2.66,5.59,2.59c1.67-0.05,3.07-0.8,4.23-2.01
		c0.77-0.8,1.57-1.58,2.35-2.37c0.86-0.86,1.73-1.71,2.58-2.58c0.95-0.97,1.89-1.93,2.8-2.94c0.55-0.62,1.02-1.3,1.54-1.95
		c0.36-0.46,0.75-0.91,1.11-1.37c0.71-0.92,1.44-1.82,2.11-2.77c0.49-0.69,0.87-1.45,1.34-2.15c0.5-0.75,1.06-1.47,1.57-2.21
		c0.3-0.43,0.51-0.93,0.85-1.31c0.71-0.79,1.44-1.56,2.24-2.26c2.02-1.79,4.02-3.61,6.14-5.27c1.59-1.25,3.31-2.34,5.24-3.09
		c2.09-0.81,4.01-0.43,5.93,0.43c1.54,0.69,2.59,1.84,3.39,3.27c0.2,0.36,0.48,0.69,0.77,0.98c0.65,0.64,1.58,0.54,2.15-0.19
		c0.15-0.2,0.35-0.39,0.43-0.61c0.56-1.63,1.76-2.37,3.39-2.89c2.39-0.76,4.67-1.83,7-2.79c0.27-0.11,0.51-0.31,0.74-0.5
		c0.55-0.47,0.73-1.07,0.52-1.74c-0.22-0.68-0.46-1.35-0.76-1.99c-0.26-0.56-0.11-0.99,0.29-1.41c0.31-0.33,0.62-0.65,0.88-1.01
		c0.15-0.21,0.26-0.5,0.26-0.75c0.02-1.17-1.01-2.25-2.21-2.21c-1.12,0.03-1.71-0.36-2.15-1.42c-3.69-8.73-7.42-17.45-11.21-26.14
		c-1.8-4.13-3.74-8.19-5.61-12.29c-0.38-0.83-0.78-1.65-1.07-2.51c-0.25-0.73-0.34-1.52-0.5-2.28c-0.07-0.31-0.12-0.63-0.24-0.92
		c-4.75-11.11-9.51-22.22-14.29-33.32c-0.27-0.62-0.32-1.11,0.15-1.69c0.48-0.6,0.85-1.29,1.24-1.95
		C251.4,84.92,251.27,84.58,250.74,84.42z M247.78,138.31c0.68,2.64,1.04,5.46,1.2,8.18c0.09,1.6-0.27,3.26-1.15,4.48
		c-0.25,0.68-0.66,1.23-1.27,1.68c-0.31,0.23-0.61,0.22-0.85,0.09c-1.63,1.05-3.62,1.57-5.38,0.59c-2.26-1.26-3.3-4.09-4.09-6.39
		c0,0-1.45-3.82-2.4-5.89c-0.62-1.36-1.77-4.23-0.99-5.56c0.24-1.72,2.72-2.89,4.19-3.65c2.07-1.07,4.39-1.68,6.54-0.43
		C245.99,132.81,247.12,135.73,247.78,138.31z"/>
	<path class="st4" d="M219.34,179.54c-0.13-0.12-0.32-0.15-0.48-0.06c-0.15,0.08-0.25,0.21-0.36,0.32c-0.1,0.09-0.2,0.18-0.3,0.27
		c-0.1,0.08-0.19,0.18-0.28,0.27c-0.03,0.02-0.05,0.05-0.08,0.07c-0.02,0.02-0.04,0.05-0.06,0.08l0,0
		c-0.02,0.03-0.05,0.06-0.07,0.08c-0.64,0.22-1.35,0.16-2,0.36c-0.7,0.2-1.34,0.6-1.85,1.12c-1.08,1.11-1.36,2.81-0.79,4.24
		c0.01,0.02,0.04,0.02,0.04-0.01c-0.18-1.44,0.32-2.94,1.45-3.88c0.49-0.41,1.1-0.68,1.74-0.76c0.7-0.09,1.52,0.02,2-0.59
		c0.05-0.06,0.06-0.12,0.07-0.18c0.11-0.05,0.22-0.09,0.31-0.16c0.13-0.1,0.26-0.2,0.39-0.31s0.27-0.22,0.34-0.38
		c0.04-0.08,0.06-0.16,0.05-0.25C219.44,179.69,219.41,179.6,219.34,179.54z"/>
	<path class="st4" d="M250.21,84.54c-0.04-0.05-0.09-0.08-0.15-0.1c-0.06-0.03-0.07-0.03-0.03-0.01c-0.04-0.02-0.08-0.05-0.12-0.07
		c-0.09-0.05-0.19-0.09-0.28-0.13c-0.2-0.08-0.41-0.11-0.62-0.14c-0.43-0.04-0.87,0.01-1.29-0.13c-0.34-0.11-0.71-0.26-0.9-0.59
		c-0.07-0.12-0.22-0.03-0.2,0.09c0.06,0.36,0.16,0.71,0.44,0.96c0.35,0.33,0.81,0.4,1.27,0.44c0.2,0.02,0.4,0.02,0.59,0.05
		c0.16,0.02,0.33,0.07,0.44,0.13c0.04,0.02,0.07,0.04,0.11,0.06c0.02,0.01,0.03,0.02,0.05,0.03c0.03,0.03,0.06,0.07,0.07,0.09
		c0.03,0.03,0.07,0.06,0.1,0.1c0.01,0.01,0.02,0.02,0.02,0.02c0,0.01,0.01,0.02,0.03,0.04c0.03,0.04,0.03,0.04,0.03,0.04
		s0,0.01,0.01,0.02c0.01,0.02,0.07,0.15,0.08,0.18c0.05,0.13,0.14,0.24,0.3,0.26c0.13,0.02,0.3-0.04,0.36-0.17
		C250.7,85.3,250.55,84.84,250.21,84.54z"/>
	<path class="st4" d="M240.71,181.47c-0.09-0.05-0.21-0.04-0.28,0.04c-0.03,0.04-0.07,0.07-0.1,0.11c-0.02,0.02-0.04,0.03-0.05,0.05
		c-0.03,0.03-0.06,0.08-0.09,0.11l0.05-0.06c-0.06,0.07-0.12,0.14-0.17,0.21c-0.04,0.06-0.07,0.12-0.1,0.17s-0.07,0.1-0.11,0.16
		c-0.01,0.01-0.02,0.03-0.03,0.04c0,0.01-0.01,0.01-0.01,0.02c0.01-0.01,0.01-0.01,0,0c-0.02,0.03-0.05,0.05-0.07,0.08
		c-0.04,0.05-0.02,0.15,0.06,0.14c0.1-0.01,0.2-0.02,0.3-0.05c0.11-0.03,0.21-0.08,0.31-0.13c0.04-0.02,0.07-0.05,0.11-0.08
		c0.02-0.02,0.04-0.03,0.06-0.05c0.05-0.05,0.09-0.11,0.13-0.17c0.07-0.1,0.1-0.22,0.12-0.34
		C240.84,181.63,240.81,181.52,240.71,181.47z"/>
	<path class="st4" d="M246.87,109.67c0,0,0.13,5.1-1.87,5.54c0,0,1.88,0.88,2.54,2.55c0.1,0.26,0.18,0.53,0.21,0.83
		c0.24,2.2-0.37-3.08,1.18-3.23C248.93,115.36,247.22,113.66,246.87,109.67z"/>
	<path class="st4" d="M284.17,162.87c0,0,0.13,5.1-1.87,5.54c0,0,1.88,0.88,2.54,2.55c0.1,0.26,0.18,0.53,0.21,0.83
		c0.24,2.2-0.37-3.08,1.18-3.23C286.23,168.56,284.52,166.86,284.17,162.87z"/>
	<path class="st4" d="M246.01,78.31c0,0-3.17,3.5-5.73,1.54c0,0,1.56,2.69,1.23,4.52c-0.05,0.28-0.15,0.55-0.3,0.78
		c-1.15,1.72,1.58-2.44,3.44-0.79C244.65,84.37,243.81,81.32,246.01,78.31z"/>
	<path class="st4" d="M230.7,199.34c0,0-2.29,2.51-3.98,1.25c0,0,0.98,1.79,0.69,3.06c-0.04,0.2-0.12,0.38-0.23,0.54
		c-0.85,1.22,1.17-1.73,2.39-0.66C229.56,203.54,229.09,201.48,230.7,199.34z"/>
	<path class="st5" d="M263.62,207.02c0.03-0.1,0.05-0.21,0.06-0.31c0.04-0.41-0.11-0.86-0.19-1.26c-0.28-1.53-0.56-3.04-0.78-4.57
		c-0.27-1.84,0.04-3.68,0.47-5.48c0.25-1.03,0.47-1.98,0.97-2.91c0.54-1.01,1.09-2.02,1.63-3.03c0.78-1.45,1.56-2.89,2.49-4.24
		c0.68-0.99,1.36-1.86,1.76-3.02c0.37-1.08,0.59-2.24,0.63-3.38c0.06-1.62-0.57-2.97-1.11-4.49c-0.44-1.25-0.89-2.51-1.58-3.64
		c-0.77-1.27-1.83-2.34-2.66-3.56c-0.35-0.52-0.67-1.07-1.03-1.6c-0.42-0.62-0.9-1.2-1.43-1.73c-0.58-0.59-1.21-1.13-1.93-1.53
		c-2.27-1.26-5.07-0.98-7.56-0.95c-2.88,0.03-5.74,0.3-8.62,0.27c-0.25,0-0.49,0.03-0.72,0.09c-0.41,0.04-0.81,0.1-1.21,0.2
		c-0.62,0.15-1.14,0.51-1.46,1.01c-1.58-2.11-2.93-4.43-4.58-6.47c-1.91-2.37-5.32-4.57-8.01-1.98c-1.08,1.04-1.61,2.48-2.67,3.53
		c-1.2,1.19-2.99,1.37-4.21,2.59c-1.61,1.61-2.29,3.74-2.4,5.95c-0.03,0.26-0.07,0.55-0.26,0.73c-0.16,0.15-0.4,0.2-0.63,0.22
		c-0.81,0.07-1.64-0.03-2.44,0.15c-1.06,0.24-1.85,1.01-2.55,1.8c-1.04,1.17-0.68,3.36-0.58,4.78c0.14,1.95,0.46,3.88,0.97,5.77
		c0.04,0.14,0.08,0.29,0.18,0.4c0.16,0.18,0.43,0.21,0.67,0.2c0.54-0.03,1.07-0.2,1.52-0.51c0.99-0.68,1.79-1.12,2.98-0.49
		c0.37,0.2,0.73,0.43,1.08,0.67c0.94,0.65,1.85,1.37,2.95,1.66c1.51,0.4,3.23-0.14,4.24-1.33c1.26-1.5,2.51,0.18,3.78,0.88
		c0.4,0.22,0.82,0.43,1.27,0.46c0.51,0.03,1-0.16,1.48-0.35c1.26-0.5,2.64-1.11,3.19-2.36c0.26-0.6,0.3-1.26,0.45-1.9
		s0.48-1.29,1.08-1.53c0.57-0.23,1.22-0.03,1.83,0.03c1.96,0.21,3.89-1.04,4.91-2.62c0.54-0.84,0.87-1.8,0.9-2.78
		c1.9,0.71,4.46,1.35,6.13,0.65c0.56,0.22,1.12,0.46,1.65,0.73c0.98,0.5,1.75,1.15,2.41,1.96c0.01,0.14,0.02,0.28,0.03,0.42
		c0.02,0.38,0.01,0.76-0.01,1.15c-0.47,0.78-0.8,1.66-1.08,2.48c-0.31,0.9-0.5,1.81-0.76,2.72c-0.24,0.81-0.34,1.64-0.75,2.4
		c-0.32,0.58-0.75,1.1-1.17,1.61c-0.73,0.87-1.4,1.72-2.23,2.5c-0.89,0.84-1.79,1.68-2.68,2.52c-0.36,0.34-0.73,0.69-1.03,1.09
		c-0.51,0.68-0.79,1.48-1.2,2.22c-0.43,0.76-0.99,1.46-1.46,2.2c-0.53,0.84-1.05,1.64-1.45,2.55c-0.38,0.87-1.26,1.68-1.87,2.4
		c-1.39,1.6-2.89,3.11-4.5,4.5c-0.94,0.81-1.98,1.48-2.79,2.4c-0.84,0.95-1.72,1.87-2.62,2.77c-0.22,0.22-0.45,0.43-0.7,0.61
		c-0.81,0.56-1.84,0.68-2.71,1.15c-0.98,0.53-0.72,1.84-0.09,2.55c1.99,2.24,4.82,3.56,6.92,5.69c1.29,1.3,2.29,2.88,3.73,4.01
		c0.4,0.31,0.85,0.59,1.36,0.58c0.44-0.01,0.84-0.24,1.22-0.46c3.69-2.19,7.32-4.47,10.89-6.85c1.98-1.32,3.94-2.67,5.89-4.05
		c1.13-0.8,2.25-1.62,3.22-2.63c0.46-0.48,0.81-1.09,1.45-1.35c0.26-0.11,0.54-0.18,0.8-0.29c0.03-0.01,0.06-0.02,0.07-0.05
		c0.02-0.03,0.02-0.08,0.02-0.12c-0.02-0.23,0.02-0.48,0.11-0.69c0.04-0.1,0.11-0.15,0.16-0.23c0.06-0.09,0.09-0.22,0.12-0.32
		C263.58,207.14,263.6,207.08,263.62,207.02z"/>
	<path class="st5" d="M244.89,140.64c-0.06-0.07-0.12-0.13-0.18-0.2c-0.24-0.26-0.48-0.52-0.77-0.73c-0.23-0.17-0.49-0.29-0.75-0.4
		c-0.34-0.14-0.69-0.26-1.06-0.28c-0.48-0.03-0.96,0.11-1.42,0.24c-0.64,0.19-1.17,0.56-1.84,0.7c-0.4,0.08-0.82,0.05-1.22,0.15
		c-0.42,0.11-0.83,0.3-1.12,0.62c-0.46,0.49-0.58,1.21-0.54,1.88c0.05,0.67,0.24,1.32,0.33,1.99c0.07,0.53,0.09,1.07,0.29,1.56
		c0.22,0.53,0.7,0.85,0.96,1.33c0.27,0.52,0.58,0.84,1.17,1c1.02,0.26,2.12-0.14,3.08-0.47c0.77-0.26,1.52-0.55,2.19-1
		c0.57-0.39,1.32-0.44,1.81-0.97c0.22-0.24,0.36-0.56,0.59-0.79c0.15-0.15,0.34-0.26,0.45-0.43c0.14-0.21,0.16-0.47,0.18-0.72
		c0.02-0.38,0.05-0.78-0.11-1.13c-0.09-0.21-0.25-0.38-0.4-0.55C245.99,141.84,245.44,141.24,244.89,140.64z"/>
	<path class="st5" d="M246.26,150.79c0.02-0.08,0.03-0.17,0.03-0.25c0-0.18-0.11-0.38-0.28-0.43c-0.11-0.03-0.22-0.01-0.33,0.02
		c-0.55,0.14-1.08,0.34-1.64,0.4c-1.4,0.14-2.74-0.66-4.14-0.66c-0.07,0.46-0.02,0.94,0.14,1.37c0.15,0.4,0.22,0.8,0.34,1.21
		c0.01,0.05,0.03,0.1,0.07,0.14c0.03,0.03,0.08,0.04,0.12,0.06c0.7,0.21,1.44,0.17,2.16,0.12c0.26-0.02,0.55,0.01,0.79-0.09
		c0.37-0.16,0.67-0.45,1.03-0.64c0.08-0.04,0.16-0.07,0.25-0.07c0.06,0,0.12,0.02,0.18,0.03c0.27,0.06,0.56-0.04,0.74-0.24
		c0.07-0.07,0.12-0.16,0.17-0.24C246.03,151.31,246.19,151.05,246.26,150.79z"/>
	
		<linearGradient id="SVGID_1_" gradientUnits="userSpaceOnUse" x1="232.7192" y1="610.4263" x2="252.3156" y2="597.8615" gradientTransform="matrix(1 0 0 -1 0 799.8898)">
		<stop  offset="0" style="stop-color:#040404"/>
		<stop  offset="0.0787" style="stop-color:#1D1D1D;stop-opacity:0.9269"/>
		<stop  offset="0.3373" style="stop-color:#6A6A6A;stop-opacity:0.6867"/>
		<stop  offset="0.5679" style="stop-color:#A7A7A7;stop-opacity:0.4725"/>
		<stop  offset="0.7619" style="stop-color:#D3D3D4;stop-opacity:0.2922"/>
		<stop  offset="0.9121" style="stop-color:#EEEEEF;stop-opacity:0.1528"/>
		<stop  offset="1" style="stop-color:#F8F8F9;stop-opacity:0.0711"/>
	</linearGradient>
	<path class="st6" d="M235.91,221.24c1.13,1.03,2.3,2.03,3.43,3.04c0.38,0.34,0.83,0.71,1.33,0.62c0.15-0.81-0.21-1.6-0.49-2.38
		c-0.65-1.85-0.84-3.82-1.03-5.77c-0.11-1.17-0.21-2.41,0.28-3.48c0.46-1.01,1.61-1.89,2.75-1.93c1.28-0.04,2.11,1.11,3.1,1.85
		c0.08-0.2-0.02-0.42-0.12-0.61c-0.43-0.8-0.85-1.61-1.28-2.41c-0.14-0.26-0.28-0.55-0.19-0.83c0.5-1.51,2.09-3.01,2.9-4.37
		c1.07-1.8,2.01-3.66,2.82-5.59c1.02-2.42,0.34-4.98,1.62-7.25c0.5-0.88,1.63-1.69,2.32-2.43c0.75,0.95,1.42,1.95,2.01,3.01
		c0.06-3.88,0.31-7.77,1.08-11.57c0.47-2.31,1.13-4.76,0.26-6.95c-0.89,3.55-1.22,7.17-3.8,9.98c-1.26,1.37-2.83,2.43-4.16,3.74
		c-2.43,2.41-3.93,5.58-5.81,8.45c-3.03,4.63-7.07,8.49-11.07,12.31c-0.79,0.75-1.6,1.52-2.58,1.98c-0.48,0.22-1.02,0.39-1.34,0.81
		c-0.76,0.99,0.24,2.35,1.18,3.18c1.44,1.28,3.02,2.65,4.3,4.09C234.19,219.62,235.03,220.44,235.91,221.24z"/>
	
		<linearGradient id="SVGID_00000014610781610002426650000004218941664386435733_" gradientUnits="userSpaceOnUse" x1="244.0171" y1="622.1714" x2="252.5863" y2="634.2075" gradientTransform="matrix(1 0 0 -1 0 799.8898)">
		<stop  offset="0" style="stop-color:#040404"/>
		<stop  offset="0.0787" style="stop-color:#1D1D1D;stop-opacity:0.9269"/>
		<stop  offset="0.3373" style="stop-color:#6A6A6A;stop-opacity:0.6867"/>
		<stop  offset="0.5679" style="stop-color:#A7A7A7;stop-opacity:0.4725"/>
		<stop  offset="0.7619" style="stop-color:#D3D3D4;stop-opacity:0.2922"/>
		<stop  offset="0.9121" style="stop-color:#EEEEEF;stop-opacity:0.1528"/>
		<stop  offset="1" style="stop-color:#F8F8F9;stop-opacity:0.0711"/>
	</linearGradient>
	<path style="fill:url(#SVGID_00000014610781610002426650000004218941664386435733_);" d="M252.95,171.34
		c1.51,0.31,3.06,0.96,3.92,2.24c-0.48-1.15-0.95-2.31-1.43-3.46c-0.11-0.27-0.23-0.55-0.44-0.77c-0.38-0.4-0.98-0.48-1.52-0.55
		c-3.6-0.46-7.14-1.37-10.52-2.7c-1.19-0.46-0.44,1.13-0.14,1.58c0.31,0.47,0.7,0.9,1.14,1.25
		C246.45,170.93,249.99,170.74,252.95,171.34z"/>
	
		<linearGradient id="SVGID_00000162343306801942771270000011519854560843297422_" gradientUnits="userSpaceOnUse" x1="231.7466" y1="631.6503" x2="239.8988" y2="622.3552" gradientTransform="matrix(1 0 0 -1 0 799.8898)">
		<stop  offset="0" style="stop-color:#040404"/>
		<stop  offset="0.0787" style="stop-color:#1D1D1D;stop-opacity:0.9269"/>
		<stop  offset="0.3373" style="stop-color:#6A6A6A;stop-opacity:0.6867"/>
		<stop  offset="0.5679" style="stop-color:#A7A7A7;stop-opacity:0.4725"/>
		<stop  offset="0.7619" style="stop-color:#D3D3D4;stop-opacity:0.2922"/>
		<stop  offset="0.9121" style="stop-color:#EEEEEF;stop-opacity:0.1528"/>
		<stop  offset="1" style="stop-color:#F8F8F9;stop-opacity:0.0711"/>
	</linearGradient>
	<path style="fill:url(#SVGID_00000162343306801942771270000011519854560843297422_);" d="M240.97,172.5
		c-0.73,0.29-1.5,0.46-2.28,0.51c-0.31,0.02-0.63,0.02-0.91,0.14c-0.6,0.27-0.82,0.98-1.09,1.58c-0.92,2.08-3.16,3.5-5.43,3.44
		c-1-0.03-2.07-0.3-2.95,0.17c0.62,0.64,1.26,1.25,1.94,1.84c0.75,0.65,1.6,1.3,2.6,1.35c0.66,0.04,1.29-0.19,1.91-0.42
		c1.07-0.39,2.23-0.86,2.75-1.87c0.62-1.21,0.14-2.89,1.06-3.89c1.31,0.62,2.86,0.72,4.23,0.26c1.38-0.45,2.57-1.45,3.25-2.73
		c0.36-0.68,0.57-1.56,0.13-2.18c-0.6-0.85-1.81-1.48-2.5-0.63C242.85,171.12,242.3,171.98,240.97,172.5z"/>
	
		<linearGradient id="SVGID_00000019651701771344712500000002336121712240048825_" gradientUnits="userSpaceOnUse" x1="220.7895" y1="626.8974" x2="221.3445" y2="618.5728" gradientTransform="matrix(1 0 0 -1 0 799.8898)">
		<stop  offset="0" style="stop-color:#040404"/>
		<stop  offset="0.0787" style="stop-color:#1D1D1D;stop-opacity:0.9269"/>
		<stop  offset="0.3373" style="stop-color:#6A6A6A;stop-opacity:0.6867"/>
		<stop  offset="0.5679" style="stop-color:#A7A7A7;stop-opacity:0.4725"/>
		<stop  offset="0.7619" style="stop-color:#D3D3D4;stop-opacity:0.2922"/>
		<stop  offset="0.9121" style="stop-color:#EEEEEF;stop-opacity:0.1528"/>
		<stop  offset="1" style="stop-color:#F8F8F9;stop-opacity:0.0711"/>
	</linearGradient>
	<path style="fill:url(#SVGID_00000019651701771344712500000002336121712240048825_);" d="M224.51,178.93
		c-1.18,0.72-2.51,1.47-3.86,1.16c-0.62-0.15-1.17-0.51-1.7-0.87c-0.69-0.47-1.39-0.93-2.08-1.4c-0.46-0.31-0.95-0.63-1.5-0.7
		c-0.55-0.07-1.19,0.2-1.35,0.74c-0.23,0.78,0.63,1.61,0.33,2.37c0.86-0.25,1.73-0.5,2.59-0.75c0.34-0.1,0.69-0.2,1.04-0.14
		c0.33,0.05,0.62,0.24,0.9,0.42c0.72,0.45,1.45,0.86,2.21,1.22c1.06,0.52,2.22,0.96,3.39,0.82c1.42-0.17,2.58-1.16,3.65-2.1
		c0.6-0.53-0.14-2.2-0.89-2.36C226.48,177.17,225.16,178.53,224.51,178.93z"/>
	
		<linearGradient id="SVGID_00000143618597318900249680000014156126302172184766_" gradientUnits="userSpaceOnUse" x1="231.539" y1="627.7595" x2="220.8889" y2="640.3952" gradientTransform="matrix(1 0 0 -1 0 799.8898)">
		<stop  offset="0" style="stop-color:#040404"/>
		<stop  offset="0.0787" style="stop-color:#1D1D1D;stop-opacity:0.9269"/>
		<stop  offset="0.3373" style="stop-color:#6A6A6A;stop-opacity:0.6867"/>
		<stop  offset="0.5679" style="stop-color:#A7A7A7;stop-opacity:0.4725"/>
		<stop  offset="0.7619" style="stop-color:#D3D3D4;stop-opacity:0.2922"/>
		<stop  offset="0.9121" style="stop-color:#EEEEEF;stop-opacity:0.1528"/>
		<stop  offset="1" style="stop-color:#F8F8F9;stop-opacity:0.0711"/>
	</linearGradient>
	<path style="fill:url(#SVGID_00000143618597318900249680000014156126302172184766_);" d="M213.9,170.77
		c0.33-0.31,0.68-0.59,1.07-0.82c1.96-1.2,4.47-0.98,6.7-0.43c0.24-0.19,0.08-0.58-0.14-0.8c-0.21-0.22-0.49-0.46-0.44-0.76
		c0.04-0.24,0.27-0.39,0.44-0.56c0.64-0.64,0.47-1.69,0.48-2.6c0.01-0.85,0.21-1.7,0.6-2.46c0.22-0.43,0.51-0.84,0.92-1.09
		c0.63-0.37,1.44-0.29,2.09,0.03c0.65,0.32,1.18,0.84,1.69,1.36c0.1-0.63-0.87-1.15-0.62-1.74c0.08-0.19,0.27-0.31,0.43-0.44
		c0.97-0.76,1.14-2.16,1.8-3.2c0.65-1.03,1.76-1.69,2.92-2.03s2.39-0.4,3.6-0.46c-0.05,0-0.85-0.99-1-1.1
		c-0.45-0.33-1.05-0.66-1.62-0.68c-1.09-0.05-2.59,0.38-3.5,0.98c-2.12,1.41-2.91,4.45-5.25,5.46c-0.7,0.3-1.48,0.39-2.15,0.73
		c-0.84,0.42-1.47,1.24-1.66,2.15c-0.29,1.34,0.22,2.99-0.77,3.93c-0.76,0.72-1.97,0.57-3,0.8c-1.1,0.25-2.05,1-2.66,1.95
		c-0.52,0.81-0.99,1.95-1.01,2.92C213.17,171.52,213.52,171.13,213.9,170.77z"/>
	
		<linearGradient id="SVGID_00000133509121749979820340000016761127413851220352_" gradientUnits="userSpaceOnUse" x1="239.5158" y1="660.7204" x2="242.5737" y2="651.5468" gradientTransform="matrix(1 0 0 -1 0 799.8898)">
		<stop  offset="0" style="stop-color:#040404"/>
		<stop  offset="0.0787" style="stop-color:#1D1D1D;stop-opacity:0.9269"/>
		<stop  offset="0.3373" style="stop-color:#6A6A6A;stop-opacity:0.6867"/>
		<stop  offset="0.5679" style="stop-color:#A7A7A7;stop-opacity:0.4725"/>
		<stop  offset="0.7619" style="stop-color:#D3D3D4;stop-opacity:0.2922"/>
		<stop  offset="0.9121" style="stop-color:#EEEEEF;stop-opacity:0.1528"/>
		<stop  offset="1" style="stop-color:#F8F8F9;stop-opacity:0.0711"/>
	</linearGradient>
	<path style="fill:url(#SVGID_00000133509121749979820340000016761127413851220352_);" d="M241.93,143.86
		c0.92-0.53,1.73-1.3,2.77-1.53c0.32-0.07,0.66-0.09,0.97,0.04c0.58,0.25,0.83,0.92,1.01,1.52c0.07,0.22,0.14,0.45,0.09,0.67
		c-0.05,0.26-0.25,0.47-0.45,0.66c-1.7,1.61-3.92,2.66-6.24,2.95c-1.36,0.17-4.53-0.66-3.58-2.73c0.4-0.88,1.35-0.69,2.13-0.7
		C239.79,144.72,240.93,144.45,241.93,143.86z"/>
	
		<linearGradient id="SVGID_00000051346831598573053750000005355807211214114469_" gradientUnits="userSpaceOnUse" x1="256.9658" y1="619.6356" x2="270.5831" y2="615.3558" gradientTransform="matrix(1 0 0 -1 0 799.8898)">
		<stop  offset="0" style="stop-color:#040404"/>
		<stop  offset="0.0787" style="stop-color:#1D1D1D;stop-opacity:0.9269"/>
		<stop  offset="0.3373" style="stop-color:#6A6A6A;stop-opacity:0.6867"/>
		<stop  offset="0.5679" style="stop-color:#A7A7A7;stop-opacity:0.4725"/>
		<stop  offset="0.7619" style="stop-color:#D3D3D4;stop-opacity:0.2922"/>
		<stop  offset="0.9121" style="stop-color:#EEEEEF;stop-opacity:0.1528"/>
		<stop  offset="1" style="stop-color:#F8F8F9;stop-opacity:0.0711"/>
	</linearGradient>
	<path style="fill:url(#SVGID_00000051346831598573053750000005355807211214114469_);" d="M268.48,177.29
		c-0.14,0.84-0.54,1.6-0.91,2.37c-1.46,3.04-2.39,6.29-3.32,9.53c-0.31,1.07-0.61,2.17-0.48,3.27c1.26-2.75,2.82-5.37,4.63-7.8
		c1.29-1.73,2.78-3.62,2.53-5.76c-0.09-0.73-0.38-1.42-0.67-2.1c-0.38-0.89-0.8-3.09-2.02-3
		C268.24,174.95,268.66,176.1,268.48,177.29z"/>
	<g>
		<g>
			<path d="M265.23,209.31c-0.18-0.41-0.33-0.81-0.29-1.26c0.06-0.64,0.13-1.19-0.06-1.82c-0.14-0.46-0.35-0.9-0.48-1.37
				c-0.17-0.61-0.27-1.23-0.37-1.86c-0.39-2.42-0.5-4.83,0.17-7.21c0.63-2.23,1.81-4.23,2.92-6.25c0.53-0.97,1.04-1.94,1.51-2.95
				c0.42-0.91,1.03-1.65,1.49-2.52c1.2-2.27,2.25-4.87,1.43-7.45c-0.39-1.22-2.32-0.7-1.93,0.53c0.68,2.13-0.35,4.58-1.49,6.39
				c-0.24,0.38-0.54,0.71-0.76,1.1c-0.27,0.47-0.48,0.97-0.71,1.46c-0.46,1.02-1.03,1.98-1.56,2.96c-1.13,2.06-2.27,4.12-2.89,6.4
				c-0.66,2.47-0.58,4.96-0.21,7.47c0.1,0.68,0.2,1.36,0.36,2.03c0.14,0.62,0.4,1.19,0.59,1.8c0.18,0.57-0.05,1.12-0.02,1.69
				c0.03,0.65,0.32,1.28,0.58,1.87c0.22,0.49,0.94,0.61,1.37,0.36C265.38,210.38,265.45,209.81,265.23,209.31L265.23,209.31z"/>
		</g>
	</g>
	<g>
		<g>
			<path d="M215.04,180.2c-1.09-2.22-1.24-5.03-1.1-7.46c0.03-0.49,0.07-0.99,0.16-1.47c0.04-0.23,0.09-0.46,0.16-0.68
				c0.09-0.3,0.08-0.31,0.16-0.46c0.61-1.11,1.85-1.87,3.09-2.04c0.68-0.09,1.36,0.11,2.04,0c0.94-0.16,1.48-0.91,1.48-1.85
				c0.01-1.62-0.22-3.21,0.84-4.6c0.36-0.48,0.87-0.88,1.43-1.08c0.81-0.28,1.68-0.07,2.45-0.52c1.22-0.7,1.54-2.09,2.23-3.21
				c0.62-1,1.55-1.89,2.67-2.3c1.61-0.6,3.18,0,4.53,0.94c1.06,0.74,2.06-1,1.01-1.73c-1.43-1-3.12-1.63-4.88-1.41
				c-1.44,0.18-2.74,0.89-3.77,1.9c-0.98,0.95-1.49,2.06-2.11,3.24c-0.14,0.26-0.28,0.56-0.52,0.74c-0.28,0.22-0.62,0.19-0.96,0.21
				c-0.85,0.06-1.65,0.3-2.36,0.78c-1.52,1.04-2.33,2.7-2.55,4.5c-0.06,0.47-0.08,0.94-0.07,1.42c0,0.11-0.01,1.15,0.07,1.18
				c0.06,0.02,0.11-0.19,0.11-0.18c-0.02-0.04-0.23-0.01-0.29-0.02c-0.18-0.01-0.35-0.04-0.53-0.05c-0.42-0.02-0.84,0.02-1.26,0.08
				c-1.64,0.26-3.12,1.21-4.09,2.54c-0.65,0.9-0.83,2.02-0.96,3.1c-0.36,3.07-0.08,6.61,1.3,9.42
				C213.89,182.37,215.61,181.35,215.04,180.2L215.04,180.2z"/>
		</g>
	</g>
	<g>
		<g>
			<path d="M214.73,177.17c2.12,2.02,4.54,3.69,7.21,4.9c1.48,0.67,2.82,1.12,4.38,0.4c1.2-0.56,2.56-1.52,3.17-2.73
				c0.58-1.15-1.15-2.16-1.73-1.01c-0.45,0.89-1.54,1.63-2.44,2c-1.09,0.46-2.36-0.35-3.32-0.84c-2.16-1.08-4.12-2.47-5.86-4.13
				C215.21,174.87,213.79,176.28,214.73,177.17L214.73,177.17z"/>
		</g>
	</g>
	<g>
		<g>
			<path d="M221.85,171.32c1.54,2.12,3.08,4.24,4.62,6.36c1.2,1.64,2.46,3.22,4.16,4.36c1.05,0.71,2.03,1.11,3.29,0.69
				c1.04-0.35,2.1-0.82,3.02-1.4c2.04-1.29,2.45-3.99,2.57-6.23c0.07-1.29-1.93-1.28-2,0c-0.05,1.01-0.22,2-0.53,2.97
				c-0.29,0.93-0.76,1.39-1.61,1.85c-0.39,0.21-0.79,0.4-1.19,0.58c-0.35,0.15-0.96,0.48-1.36,0.45c-0.35-0.03-0.73-0.34-1.01-0.53
				c-0.36-0.24-0.71-0.49-1.03-0.78c-1.29-1.14-2.27-2.55-3.28-3.94c-1.31-1.8-2.62-3.6-3.92-5.4c-0.32-0.44-0.87-0.65-1.37-0.36
				C221.78,170.21,221.53,170.89,221.85,171.32L221.85,171.32z"/>
		</g>
	</g>
	<g>
		<g>
			<path d="M228.06,164.23c0.52,0.3,0.68,1.05,0.9,1.58c0.37,0.88,0.94,1.59,1.59,2.28c1.43,1.52,2.89,3,4.37,4.47
				c0.74,0.74,1.49,1.47,2.24,2.19c0.7,0.67,1.42,1.55,2.31,1.98c1.66,0.81,3.91-0.16,5.39-1.01c1.7-0.98,2.73-2.79,2.69-4.76
				c-0.03-1.29-2.03-1.29-2,0c0.02,0.79-0.23,1.63-0.72,2.26c-0.56,0.73-1.59,1.12-2.43,1.43c-0.45,0.16-0.92,0.35-1.4,0.4
				c-0.57,0.06-0.91-0.26-1.29-0.63c-0.85-0.8-1.69-1.61-2.52-2.43c-1.69-1.66-3.36-3.35-4.99-5.07c-0.68-0.71-1.2-1.36-1.56-2.28
				c-0.34-0.86-0.73-1.66-1.57-2.14C227.96,161.85,226.95,163.58,228.06,164.23L228.06,164.23z"/>
		</g>
	</g>
	<g>
		<g>
			<path d="M234.98,155.32c1.88,2.29,3.63,4.74,5.12,7.31c0.65,1.11,2.38,0.11,1.73-1.01c-1.58-2.72-3.44-5.29-5.44-7.72
				c-0.34-0.42-1.06-0.36-1.41,0C234.56,154.32,234.63,154.9,234.98,155.32L234.98,155.32z"/>
		</g>
	</g>
	<g>
		<g>
			<path d="M247.72,160.25c-1.96,0.07-4.1,0.05-6,0.62c-0.7,0.21-1.4,0.57-1.58,1.34c-0.01,0.04-0.01,0.08-0.02,0.12
				c0.19-0.56-0.08,0.25-0.11,0.41c-0.08,0.45,0.02,0.9,0.15,1.34c0.35,1.18,0.78,2.37,1.34,3.47c0.56,1.09,1.32,2.08,2.32,2.81
				c1.19,0.86,2.62,1.14,4.04,1.38c1.87,0.32,3.75,0.62,5.62,0.92c0.71,0.12,1.02,0.24,1.39,0.85c0.38,0.63,0.75,1.19,1.37,1.61
				c-0.15-0.38-0.31-0.75-0.46-1.13c-0.54,1.53-0.95,3.11-1.48,4.64c-0.25,0.73-0.49,1.46-0.66,2.22c-0.16,0.72-0.12,1.6-0.43,2.28
				c-0.27,0.59-0.99,1.01-1.47,1.41c-0.64,0.53-1.28,1.06-1.91,1.6c-1.19,1.03-2.49,2.11-3.34,3.45c-1.8,2.83-3.77,5.58-5.7,8.33
				c-0.9,1.28-1.96,2.43-3.03,3.56c-1.09,1.15-2.16,2.33-3.28,3.44c-0.65,0.65-1.34,1.24-2,1.88c-0.59,0.57-1.07,1.23-1.62,1.84
				c-1.04,1.14-2.46,1.95-4.03,1.98c-0.89,0.02-1.29,1.07-0.71,1.71c0.03,0.03,0.27,0.32,0.12,0.13c0.06,0.08,0.12,0.16,0.17,0.25
				c0.08,0.13,0.15,0.28,0.22,0.42c0.13,0.25-0.04-0.11,0.02,0.06c0.02,0.06,0.05,0.12,0.07,0.18c0.08,0.2,0.16,0.41,0.26,0.61
				c0.49,1.05,1.31,1.91,2.18,2.66c1.63,1.42,3.56,2.46,5.16,3.91c1.63,1.47,3.08,3.19,4.41,4.92c0.33,0.43,0.86,0.66,1.37,0.36
				c0.42-0.25,0.69-0.94,0.36-1.37c-1.37-1.79-2.83-3.56-4.48-5.11c-1.62-1.52-3.58-2.58-5.26-4.01c-0.9-0.77-1.56-1.42-2.03-2.44
				c-0.08-0.17,0.08,0.19-0.03-0.07c-0.02-0.06-0.05-0.12-0.07-0.18c-0.09-0.22-0.18-0.44-0.28-0.65c-0.2-0.4-0.47-0.75-0.77-1.08
				c-0.24,0.57-0.47,1.14-0.71,1.71c1.59-0.03,3.1-0.62,4.36-1.58c1.22-0.93,2.08-2.25,3.21-3.3c1.21-1.13,2.34-2.31,3.48-3.51
				c1.14-1.19,2.3-2.36,3.35-3.63c1.13-1.36,2.09-2.85,3.09-4.3c1-1.46,2.03-2.89,3.04-4.35c0.43-0.63,0.77-1.34,1.28-1.91
				c0.55-0.62,1.15-1.19,1.76-1.75c1.26-1.15,2.7-2.14,3.9-3.34c0.65-0.65,0.92-1.41,1.06-2.3c0.15-0.94,0.32-1.83,0.61-2.74
				c0.29-0.9,0.63-1.77,0.9-2.67c0.28-0.91,0.52-1.84,0.84-2.74c0.15-0.44-0.11-0.89-0.46-1.13s-0.52-0.69-0.74-1.03
				c-0.31-0.49-0.68-0.95-1.2-1.24c-0.55-0.31-1.18-0.38-1.79-0.47c-0.77-0.12-1.55-0.25-2.32-0.37c-1.45-0.24-2.93-0.43-4.36-0.77
				c-1.13-0.27-2.07-0.77-2.81-1.69c-0.64-0.8-1.07-1.77-1.42-2.72c-0.19-0.51-0.36-1.03-0.52-1.55c-0.13-0.42-0.13-0.37-0.03-0.71
				c0.01-0.03,0.02-0.08,0.02-0.11c0.01-0.23-0.13,0.24-0.03,0.07c-0.01,0.02-0.2,0.23-0.07,0.11c0.07-0.07-0.21,0.21-0.08,0.06
				c0.04-0.04,0.12-0.06,0.17-0.09c0.04-0.03-0.23,0.07,0.05-0.01c1.8-0.51,3.71-0.53,5.62-0.59
				C249.01,162.2,249.01,160.2,247.72,160.25L247.72,160.25z"/>
		</g>
	</g>
	<g>
		<g>
			<path d="M247.72,162.25c2.56-0.02,5.12-0.04,7.69-0.05c1.15-0.01,2.35-0.1,3.48,0.16c0.98,0.23,1.82,0.74,2.56,1.41
				c1.28,1.17,2.3,2.64,3.26,4.09c0.98,1.5,1.9,3.04,2.76,4.61c0.82,1.5,1.67,3.05,2.15,4.69c0.36,1.23,2.29,0.71,1.93-0.53
				c-0.46-1.59-1.24-3.1-2.01-4.55c-0.9-1.7-1.87-3.36-2.92-4.98c-1.02-1.57-2.12-3.16-3.46-4.48c-0.77-0.76-1.64-1.4-2.63-1.83
				c-1.13-0.48-2.35-0.6-3.57-0.6c-3.07-0.02-6.14,0.04-9.21,0.06C246.44,160.26,246.43,162.26,247.72,162.25L247.72,162.25z"/>
		</g>
	</g>
	<g>
		<g>
			<path d="M241.24,151.86c-0.12-0.54-0.19-1.1-0.32-1.64c-0.13-0.53-0.39-1.04-0.58-1.54c-0.49,0.38-0.98,0.75-1.47,1.13
				c0.72,0.33,1.47,0.6,2.2,0.91c0.36,0.15,0.72,0.33,1.09,0.48c0.4,0.15,0.84,0.2,1.27,0.2c0.67,0,1.43,0.05,2.07-0.17
				c0.73-0.25,1.32-0.75,1.88-1.27c-0.57-0.24-1.14-0.47-1.71-0.71c-0.03,0.34-0.1,0.68-0.2,1.02c-0.05,0.16-0.1,0.32-0.15,0.47
				c-0.03,0.1-0.07,0.19-0.11,0.28c-0.07,0.18,0.05-0.08-0.03,0.07c-0.29,0.56,0.91-0.22,0.86,0.02c0.01,0.02,0.02,0.03,0.04,0.05
				c-0.05-0.07-0.1-0.13-0.16-0.2c-0.19-0.2-0.43-0.33-0.7-0.37c-0.33-0.04-0.69,0.07-0.93,0.31c-0.14,0.14-0.22,0.28-0.34,0.4
				c-0.39,0.4-0.84,0.52-1.37,0.5c-0.32-0.01-0.63-0.07-0.96-0.17c-0.38-0.11-0.54-0.22-0.86-0.37c-0.49-0.23-1.08-0.14-1.37,0.36
				c-0.25,0.43-0.13,1.14,0.36,1.37c0.24,0.11,0.44,0.25,0.69,0.35s0.51,0.18,0.78,0.25c0.56,0.15,1.16,0.24,1.74,0.19
				c0.54-0.05,1.04-0.18,1.53-0.43c0.5-0.25,0.91-0.69,1.21-1.05c-0.15,0.09-0.29,0.17-0.44,0.26c0.03-0.01,0.06-0.02,0.09-0.03
				c-0.26-0.03-0.51-0.07-0.77-0.1c-0.19-0.22-0.23-0.25-0.09-0.09c0.04,0.05,0.07,0.09,0.11,0.14c0.09,0.1,0.2,0.2,0.31,0.27
				c0.23,0.14,0.5,0.21,0.77,0.2c0.58-0.02,1.05-0.45,1.28-0.95c0.4-0.87,0.63-1.8,0.71-2.75c0.03-0.39-0.28-0.78-0.61-0.91
				c-0.38-0.15-0.79-0.07-1.09,0.21c-0.16,0.15-0.41,0.37-0.54,0.47c-0.19,0.14-0.43,0.28-0.57,0.32c-0.16,0.04-0.43,0.05-0.68,0.05
				c-0.3,0.01-0.6,0.02-0.89,0.01c-0.59-0.01-1.16-0.38-1.7-0.61c-0.57-0.23-1.15-0.45-1.71-0.7c-0.37-0.17-0.77-0.19-1.11,0.08
				c-0.29,0.23-0.5,0.68-0.36,1.05c0.19,0.5,0.45,1.01,0.58,1.54c0.13,0.54,0.2,1.1,0.32,1.64c0.11,0.53,0.73,0.84,1.23,0.7
				C241.09,152.94,241.36,152.39,241.24,151.86z"/>
		</g>
	</g>
	<g>
		<g>
			<path d="M247.59,142.83c-0.76-1.5-1.61-3.01-3.01-3.99c-1.7-1.2-3.81-0.99-5.71-0.43c-0.86,0.25-1.83,0.51-2.58,1.02
				c-0.84,0.58-1.27,1.41-1.3,2.43c-0.01,0.42,0.05,0.85,0.02,1.27c-0.03,0.45-0.12,0.89-0.13,1.35c-0.01,0.65,0.06,1.33,0.3,1.94
				c0.2,0.52,0.49,0.97,0.87,1.38c0.11,0.12,0.23,0.23,0.34,0.35c0.13,0.13,0.06,0.09-0.02-0.04c0.11,0.19-0.06-0.24-0.02-0.04
				c0.06,0.32,0.39,0.64,0.7,0.7c1.64,0.33,3.45,0.54,5.1,0.25c0.93-0.17,1.85-0.56,2.69-0.99
				C246.75,147.02,248.78,145.12,247.59,142.83c-0.6-1.14-2.32-0.13-1.73,1.01c0.16,0.3-0.06-0.15,0.06,0.14
				c0.01,0.03,0.06,0.31,0.04,0.11c0.01,0.09,0.01,0.18,0,0.27c0.01-0.15,0.01-0.03-0.02,0.05c-0.06,0.17-0.23,0.49-0.41,0.68
				c-0.57,0.58-1.21,0.98-1.99,1.35c-0.54,0.26-1.21,0.5-1.9,0.64c-0.2,0.04,0.22,0,0.02,0c-0.17,0-0.35,0.02-0.52,0.03
				c-0.38,0.02-0.76,0.02-1.14,0.01c-0.81-0.03-1.61-0.12-2.41-0.28c0.23,0.23,0.47,0.47,0.7,0.7c-0.06-0.32-0.28-0.59-0.49-0.82
				c-0.08-0.08-0.16-0.16-0.24-0.24c-0.04-0.04-0.08-0.09-0.13-0.13c-0.03-0.03-0.18-0.21-0.09-0.1s-0.07-0.1-0.09-0.14
				c-0.04-0.07-0.08-0.14-0.12-0.21c-0.02-0.04-0.04-0.08-0.06-0.12c-0.06-0.14,0.05,0.14,0-0.02c-0.04-0.11-0.07-0.22-0.1-0.34
				c-0.12-0.49-0.09-1.14-0.02-1.72c0.05-0.39,0.08-0.76,0.07-1.16c-0.01-0.31-0.07-0.66,0.01-0.97c0.15-0.57,0.95-0.77,1.44-0.93
				c1.43-0.47,3.22-1.12,4.66-0.35c1.35,0.73,2.08,2.24,2.74,3.56C246.44,144.98,248.17,143.97,247.59,142.83z"/>
		</g>
	</g>
	<g>
		<g>
			<path d="M214.45,181.67c0.24-0.04-0.15,0.01-0.02,0c0.05,0,0.11-0.01,0.16-0.01c0.11-0.01,0.22-0.02,0.32-0.03
				c0.29-0.04,0.57-0.09,0.85-0.17c0.4-0.11,0.77-0.29,1.13-0.49c0.69-0.39,1.36-0.85,1.98-1.35c0.19-0.15,0.29-0.48,0.29-0.71
				c0-0.25-0.11-0.54-0.29-0.71c-0.19-0.17-0.44-0.3-0.71-0.29c-0.28,0.01-0.49,0.12-0.71,0.29c-0.12,0.1,0.17-0.12,0.07-0.05
				c-0.04,0.03-0.07,0.06-0.11,0.08c-0.07,0.05-0.15,0.11-0.23,0.16c-0.17,0.12-0.35,0.24-0.52,0.35c-0.25,0.17-0.51,0.34-0.78,0.49
				c-0.12,0.07-0.23,0.13-0.35,0.19c-0.03,0.01-0.05,0.03-0.08,0.04c-0.1,0.06,0.21-0.07,0.03-0.02c-0.1,0.03-0.19,0.06-0.29,0.08
				c-0.1,0.03-0.21,0.06-0.32,0.08c-0.05,0.01-0.13,0.01-0.17,0.04c0.04-0.02,0.21-0.02,0.07-0.01c-0.29,0.02-0.58,0.05-0.87,0.1
				c-0.23,0.04-0.48,0.27-0.6,0.46c-0.13,0.21-0.18,0.53-0.1,0.77C213.4,181.53,213.89,181.76,214.45,181.67L214.45,181.67z"/>
		</g>
	</g>
	<path class="st0" d="M264.13,198.46c-0.02-0.62-0.43-1.23-1.15-1.32c-0.15-0.1-0.29-0.21-0.45-0.3c-0.68-0.36-1.31-0.09-1.68,0.38
		c-4.13,0.49-8.29,2.66-11.81,4.58c-2.12,1.16-4.14,2.49-6,4.02c-0.76,0.62-1.54,1.28-2.23,2.01c-2.44,1.55-4.84,3.17-7.2,4.85
		c-0.31,0.22-0.47,0.51-0.55,0.8c-1.38,0.62-2.73,1.49-2.89,3.16c-0.16,1.69,1.26,3.09,2.8,3.54c1.88,0.56,2.85-1.72,3.88-2.85
		c0.13-0.15,0.28-0.28,0.41-0.43c0.13-0.04,0.27-0.09,0.4-0.19c3.94-2.85,7.91-5.65,11.98-8.3c1.92-1.25,3.88-2.46,5.92-3.53
		c0.93-0.49,1.87-0.95,2.83-1.38c0.89-0.4,2.91-1.54,3.93-1.08c0.6,0.27,1.53,0.24,1.84-0.48
		C264.66,200.75,264.65,199.49,264.13,198.46z"/>
	<path class="st0" d="M240.4,163.91c-0.04-0.13-0.26-0.46-0.27-0.59c-0.03-0.44,0.19-0.91,0.2-1.36c0.01-0.65-0.21-1.25-0.69-1.7
		c-0.51-0.48-1.4-0.56-1.9,0c-2.08,2.33-4.33,4.84-7.54,5.43c-0.11,0.02-0.19,0.07-0.27,0.1c-0.32-0.02-0.65,0.08-0.93,0.43
		c-1.41,1.75-2.95,3.66-5.11,4.39c-0.1,0.01-0.19,0-0.29,0.03c-0.23,0.07-0.47,0.14-0.7,0.21c-0.68,0.2-0.96,0.7-0.95,1.2
		c-0.06,0.06-0.13,0.13-0.19,0.19c-0.06-0.01-0.13-0.03-0.19-0.04c-1.49-0.15-2.44,1.18-2.96,2.39c-0.21,0.49-0.36,0.99-0.48,1.5
		c-0.37-0.01-0.75,0.07-1.09,0.26c-0.62,0.35-0.86,1.23-0.48,1.84c0.53,0.88,1.38,1.53,2.37,1.79c0.76,0.2,1.8-0.4,1.7-1.3
		c-0.01-0.1-0.01-0.21-0.02-0.31c1.08,0.41,2.39,0.49,3.25-0.4c0.56-0.58,0.74-1.32,0.63-2.04c0.11-0.22,0.14-0.45,0.15-0.69
		c1.97-0.12,4.1-1.91,5.43-3.03c0.86-0.72,1.73-1.53,2.48-2.4c0.37-0.04,0.73-0.11,1.09-0.2c0.28,0.05,0.57,0.07,0.84-0.03
		c0.26-0.09,0.44-0.19,0.64-0.38c0.05-0.04,0.08-0.1,0.12-0.15c1.43-0.65,2.72-1.62,3.94-2.65c0.47-0.4,1.01-0.79,1.22-1.4
		C240.5,164.66,240.51,164.28,240.4,163.91z"/>
	<path class="st1" d="M264.28,201.98c-0.13-0.77-0.25-1.54-0.38-2.31c-0.1-0.61-0.94-0.6-1.23-0.16c-0.1,0.15-0.2,0.29-0.3,0.44
		c-0.08-0.08-0.16-0.17-0.29-0.21c-2.08-0.76-4.19,0.4-6.02,1.31c-1.43,0.7-3.25,1.56-3.73,3.17c-0.25,0.12-0.4,0.5-0.31,0.76
		c0.05,0.14,0.1,0.28,0.15,0.41c-1.03,0.94-2.47,1.22-3.75,1.73c-0.63,0.25-1.24,0.55-1.78,0.99c-0.46,0.37-1.25,1.63-1.9,1.38
		c-0.11-0.04-0.21-0.05-0.3-0.04c-0.04-0.03-0.07-0.06-0.11-0.09c-0.19-0.12-0.38-0.12-0.55-0.05c-1.55-0.42-3.28,0.39-4.58,1.38
		c-1.93,1.47-3.87,2.97-5.67,4.59c-0.34,0.31-0.7,0.62-1.13,0.77c-0.53,0.18-1.17,0.11-1.59,0.47c-0.02,0.02-0.05,0.04-0.06,0.07
		c-0.04,0.11,0.12,0.18,0.24,0.19c3.15,0.12,5.82-2.47,8.09-4.3c1.23-0.99,3.46-2.89,5.05-1.51c-0.4,0.27-0.8,0.55-1.19,0.82
		c-0.28-0.1-0.57-0.01-0.89,0.21c-0.59,0.41-1.19,0.82-1.78,1.23c-1.11,0.77-2.26,1.51-3.32,2.35c-0.46,0.36-0.85,0.77-1.25,1.19
		c-0.43,0.46-0.82,0.3-1.39,0.34c-1.04,0.06-1.59,1.34-2.72,0.78c-0.77-0.38-1.45,0.77-0.68,1.16c0.34,0.17,0.71,0.25,1.07,0.28
		c0.21,0.2,0.43,0.38,0.67,0.53c0.2,0.15,0.42,0.26,0.64,0.36c0.01,0.14,0.03,0.27,0.08,0.42c0.28,0.81,1.58,0.46,1.3-0.36
		c-0.22-0.63,0.72-1.2,1.14-1.55c0.58-0.47,1.16-0.94,1.75-1.4c1.22-0.95,2.46-1.86,3.71-2.76c2.34-1.68,4.73-3.28,7.12-4.89
		c2.36-1.59,4.73-3.18,7.19-4.61c0.9-0.53,1.83-1.03,2.77-1.51c0.37,0.24,0.98-0.01,1.04-0.52c0.02-0.01,0.04-0.02,0.05-0.03
		c1.19-0.54,2.63-1.04,3.83-0.27C263.83,203.08,264.36,202.51,264.28,201.98z"/>
	<path class="st1" d="M239.92,163.44c-0.03,0.02-0.05,0.04-0.08,0.06c-1.6,1.29-2.84,3.01-4.56,4.14c-0.75,0.5-1.65,0.89-2.54,0.74
		c-0.48-0.08-0.7-0.17-1,0.31c-1.69,2.63-4.45,4.54-7.5,5.23c-0.07,0.59,0.48,1.12,1.07,1.21c0.59,0.1,1.18-0.13,1.71-0.39
		c1.8-0.91,3.29-2.34,4.59-3.88c0.54-0.64,1.21-1.53,2.14-1.42c0.97,0.11,1.65,0.03,2.56-0.47c1.02-0.56,1.89-1.35,2.89-1.95
		c0.79-0.47,1.75-0.92,1.95-1.81c0.14-0.59-0.12-1.2-0.49-1.68c-0.07-0.1-0.16-0.19-0.28-0.23
		C240.22,163.26,240.06,163.34,239.92,163.44z"/>
	<path class="st1" d="M225.06,175.43c-0.04-0.13-0.1-0.24-0.18-0.35c-0.24-0.31-0.71-0.44-1.04-0.25c-0.16,0.09-0.27,0.25-0.38,0.4
		c-0.27,0.38-0.52,0.82-0.96,1c-0.18,0.07-0.38,0.1-0.55,0.18c-0.32,0.15-0.51,0.49-0.8,0.7c-0.58,0.43-1.39,0.27-2.09,0.09
		c-0.27,0.4,0.51,0.98,0.19,1.34c-0.32,0.36-1.1,0.78-0.41,1.32c1.14,0.89,1.89-0.6,2.54-1.18c0.11-0.09,0.25-0.14,0.39-0.17
		c0.5-0.12,1.03-0.07,1.5-0.25c0.51-0.19,0.91-0.6,1.24-1.04c0.24-0.31,0.45-0.64,0.55-1.02
		C225.13,175.94,225.14,175.67,225.06,175.43z"/>
	<path class="st13" d="M250.18,201.41c-0.16-0.13-0.5-0.12-0.54,0.14c-0.02,0.17-0.08,0.33-0.06,0.51c0.01,0.16,0.04,0.32,0.02,0.48
		c-0.03,0.31-0.16,0.61-0.31,0.88c-0.38,0.64-1,1.06-1.61,1.46c-0.63,0.42-1.28,0.82-1.86,1.31c-0.32,0.27-0.6,0.58-0.91,0.86
		c-0.29,0.26-0.64,0.52-0.84,0.85c-0.05,0.08,0.03,0.21,0.13,0.17c0.38-0.16,0.68-0.48,1-0.74c0.36-0.3,0.76-0.57,1.15-0.83
		c0.72-0.48,1.53-0.76,2.26-1.21c0.68-0.41,1.29-0.99,1.64-1.71C250.57,202.94,250.83,201.94,250.18,201.41z"/>
	<path class="st13" d="M253.43,200.31c-0.13-0.25-0.49-0.22-0.63,0c-0.23,0.38-0.16,0.94-0.17,1.37s-0.06,0.86-0.18,1.28
		c-0.21,0.73-0.53,1.42-1.2,1.84c-0.06,0.04-0.02,0.16,0.05,0.12c0.72-0.3,1.37-0.91,1.68-1.63c0.2-0.44,0.33-0.91,0.42-1.38
		C253.51,201.42,253.66,200.77,253.43,200.31z"/>
	<path class="st13" d="M259.09,197.66c-1.48,0.42-2.97,1.01-4.31,1.77c-0.3,0.17-0.57,0.34-0.76,0.63c-0.15,0.23-0.24,0.5-0.27,0.77
		c-0.04,0.28-0.08,0.55-0.14,0.82s-0.11,0.59-0.28,0.82c-0.06,0.09,0.07,0.17,0.14,0.11c0.19-0.16,0.36-0.32,0.45-0.55
		c0.1-0.24,0.14-0.49,0.21-0.73c0.07-0.22,0.2-0.48,0.38-0.63c0.23-0.18,0.55-0.29,0.82-0.41c1.34-0.57,2.67-1.1,4.04-1.57
		C260.02,198.47,259.76,197.47,259.09,197.66z"/>
	<path class="st13" d="M264.08,198.11c-0.35-0.37-0.84-0.58-1.31-0.73c-0.45-0.15-0.97-0.07-1.32,0.27
		c-0.04-0.09-0.11-0.17-0.22-0.21c-0.1-0.03-0.21-0.05-0.32-0.02c-0.08,0.02-0.15,0.06-0.22,0.09c-0.09,0.04-0.17,0.08-0.26,0.13
		c-0.21,0.13-0.38,0.35-0.52,0.54c-0.13,0.17-0.24,0.38-0.29,0.58c-0.03,0.11-0.03,0.23-0.03,0.34s0.02,0.22,0.11,0.3
		c0.03,0.03,0.07,0.03,0.1,0.01c0.09-0.05,0.14-0.12,0.19-0.2c0.04-0.08,0.1-0.15,0.14-0.22c0.02-0.04,0.04-0.08,0.07-0.11
		c0.01-0.02,0.02-0.04,0.04-0.06c0-0.01,0.06-0.08,0.03-0.04c-0.03,0.04,0.02-0.02,0.02-0.03c0.02-0.02,0.03-0.04,0.05-0.06
		c0.03-0.03,0.06-0.06,0.09-0.1c0.03-0.03,0.07-0.06,0.1-0.09l0.01-0.01c0.01-0.01,0.03-0.02,0.04-0.03
		c0.08-0.05,0.17-0.09,0.26-0.13c0.04-0.02,0.08-0.04,0.12-0.06c0.02-0.01,0.04-0.02,0.06-0.03c-0.11,0.05-0.04,0.02-0.02,0.01
		c0.04-0.02,0.08-0.03,0.13-0.04c0.01,0,0.01-0.01,0.02-0.01c0,0.01-0.01,0.02-0.01,0.03c-0.03,0.19-0.06,0.35-0.02,0.54
		c0.03,0.12,0.23,0.13,0.25,0c0.02-0.11,0.06-0.25,0.15-0.33c0.05-0.04,0.12-0.07,0.17-0.1c0.01-0.01,0.08-0.04,0.03-0.02
		c0.03-0.01,0.05-0.02,0.08-0.03c0.05-0.02,0.06-0.03,0.02-0.01c0.04-0.01,0.07-0.02,0.11-0.03c0.01,0,0.11-0.01,0.06-0.01
		c-0.06,0,0.04,0,0.06,0c0.01,0,0.01,0,0.02,0c0,0,0,0,0.01,0c0.08,0.02,0.16,0.05,0.25,0.07c0.04,0.01,0.08,0.03,0.12,0.04
		c0,0,0.05,0.02,0.07,0.03c0.15,0.07,0.31,0.14,0.45,0.23c0.03,0.02,0.07,0.05,0.1,0.07c0.05,0.03-0.06-0.05,0.02,0.02
		c0.07,0.06,0.14,0.12,0.21,0.19c0,0.01,0.03,0.03,0.04,0.05s0.03,0.04,0.03,0.05c0.02,0.04,0.04,0.08,0.07,0.12
		c0,0.01,0,0.01,0.01,0.01c0.06,0.18,0.1,0.38,0.19,0.55c0.17,0.33,0.68,0.31,0.85,0C264.79,199.15,264.45,198.5,264.08,198.11z"/>
	<path class="st13" d="M241.76,210.47c-1.22,0.68-2.31,1.63-3.39,2.5c-1.11,0.89-2.3,1.79-3.57,2.45c-1.21,0.62-2.43,1.27-3.8,1.41
		c-0.43,0.05-0.81,0.19-0.86,0.69c-0.05,0.52,0.4,0.83,0.84,0.98c0.43,0.15,0.62-0.46,0.29-0.69c-0.06-0.05-0.21-0.13-0.25-0.2
		c-0.01-0.02-0.01-0.02-0.02-0.02c0.01,0.01,0.04,0.03,0.1,0c0.25-0.11,0.56-0.14,0.82-0.22c0.51-0.14,1.02-0.32,1.52-0.5
		c1.04-0.39,1.97-1.05,2.87-1.69c0.93-0.67,1.8-1.43,2.68-2.16c0.96-0.79,1.95-1.56,2.89-2.37
		C241.99,210.56,241.86,210.41,241.76,210.47z"/>
	<g>
		<path class="st13" d="M221.4,175.56L221.4,175.56C221.39,175.56,221.39,175.56,221.4,175.56c0,0,0.01,0,0.02,0l0,0
			C221.42,175.56,221.41,175.56,221.4,175.56z"/>
		<path class="st13" d="M223.33,173.86c-0.11-0.14-0.22-0.22-0.4-0.24c-0.08-0.01-0.16-0.02-0.23-0.02c-0.05,0-0.1,0-0.15,0h-0.01
			c-0.11,0-0.23,0-0.34,0.01c-0.36,0.02-0.72,0.04-1,0.28c-0.19,0.16-0.29,0.41-0.35,0.65c-0.03,0.13-0.05,0.27-0.05,0.4
			c0,0.05,0,0.11,0,0.17c0,0.11,0.04,0.18,0.08,0.27c0.02,0.03,0.05,0.05,0.08,0.08c0.01,0.06,0.04,0.12,0.1,0.17
			c0.09,0.07,0.2,0.07,0.26-0.03c-0.02,0.02-0.02,0.02-0.01,0.02c0.01-0.01,0.01-0.01-0.01,0.01c-0.02,0.01-0.02,0.01,0,0h0.01
			c0.02-0.01,0.04-0.03,0.06-0.05c0,0-0.01,0,0,0h0.01c0,0,0.01,0,0.02-0.01h0.01l0,0l0,0h0.01c0.01,0,0.01,0,0.02,0h0.01
			c-0.01,0-0.01,0-0.01,0c0.03,0.01,0.07,0.01,0.1,0.02c0.1,0.01,0.21,0,0.31-0.02c0.19-0.04,0.37-0.15,0.47-0.32
			c0.06-0.11,0.09-0.24,0.08-0.37c0-0.05-0.01-0.11-0.01-0.16c0.05-0.1,0.09-0.2,0.12-0.31c0.28,0.03,0.58,0.05,0.78-0.14
			C223.37,174.18,223.41,173.98,223.33,173.86z"/>
	</g>
	<g>
		<path class="st13" d="M221.93,172.41c0.09,0.06,0.07,0.04-0.06-0.05c-0.09-0.05-0.18-0.07-0.28-0.07c-0.05,0-0.09,0-0.14,0
			c-0.14,0.01-0.28,0.03-0.41,0.05c-0.22,0.04-0.44,0.11-0.65,0.2c-0.39,0.18-0.75,0.45-1.02,0.79c-0.29,0.36-0.48,0.79-0.55,1.25
			c-0.03,0.21-0.05,0.43-0.03,0.65c0.02,0.23,0.12,0.42,0.26,0.59c0.06,0.08,0.17,0.02,0.2-0.05c0.06-0.17,0.12-0.33,0.15-0.5
			s0.07-0.34,0.13-0.51c0.12-0.32,0.3-0.55,0.54-0.79c0.06-0.06,0.12-0.12,0.19-0.17c0.01-0.01,0.03-0.02,0.04-0.03
			c0.04-0.03,0.07-0.05,0.11-0.07c0.07-0.04,0.14-0.08,0.22-0.12c0.03-0.02,0.13-0.05,0.04-0.02c0.04-0.02,0.08-0.03,0.13-0.05
			c0.09-0.03,0.17-0.06,0.26-0.08c0.04-0.01,0.09-0.02,0.13-0.03c0.01,0,0.05-0.01,0.08-0.01c0.08-0.01,0.15-0.01,0.23-0.01
			c0.06,0,0.11,0,0.16-0.01c0.07,0,0.14-0.02,0.2-0.06c0.04-0.03,0.05-0.04,0.06-0.05c0.14-0.09,0.24-0.24,0.24-0.42
			C222.17,172.64,222.07,172.51,221.93,172.41z"/>
		<path class="st13" d="M221.93,173.25C221.99,173.2,221.98,173.21,221.93,173.25L221.93,173.25z"/>
	</g>
	<path class="st13" d="M229.94,166.76c0.33-0.48-0.18-1.13-0.75-0.83c-0.38,0.2-0.69,0.55-0.99,0.85s-0.59,0.62-0.88,0.94
		c-0.54,0.6-1.08,1.21-1.7,1.74c-0.6,0.51-1.25,0.91-1.99,1.19c-0.56,0.22-1.06,0.44-1.08,1.12c0,0.08,0.12,0.11,0.16,0.04
		c0.13-0.23,0.63-0.27,0.87-0.3c0.34-0.05,0.66-0.12,0.98-0.24c0.71-0.28,1.33-0.69,1.91-1.18c0.2-0.17,0.4-0.36,0.59-0.54
		c0.26-0.07,0.52-0.12,0.78-0.21c0.47-0.16,0.8-0.51,1.15-0.84c0.2-0.19,0.43-0.35,0.63-0.54c0.23-0.22,0.51-0.45,0.51-0.8
		C230.13,166.99,230.05,166.85,229.94,166.76z"/>
	<path class="st13" d="M233.93,164.44c-0.33,0.1-0.63,0.35-0.93,0.52c-0.26,0.15-0.51,0.31-0.76,0.47
		c-0.23,0.14-0.44,0.25-0.71,0.31c-0.28,0.07-0.52-0.05-0.81-0.07c-0.32-0.02-0.45,0.39-0.25,0.6c0.24,0.26,0.66,0.36,1.01,0.37
		c0.38,0.01,0.73-0.11,1.06-0.27c0.31-0.14,0.59-0.33,0.87-0.51c0.15-0.1,0.3-0.2,0.45-0.3c0.17-0.11,0.37-0.21,0.51-0.36
		C234.68,164.89,234.38,164.29,233.93,164.44z"/>
	<path class="st13" d="M237.48,162.21c-0.06-0.09-0.13-0.16-0.24-0.2c-0.07-0.02-0.14-0.01-0.22,0c-0.03,0.01-0.05,0.02-0.08,0.03
		c-0.04,0.02-0.07,0.05-0.1,0.09c0,0.01,0,0.01-0.01,0.02c-0.07-0.05-0.14-0.08-0.22-0.08c-0.13,0-0.27,0.05-0.36,0.15
		c0.04-0.03,0.04-0.03,0.02-0.01c-0.01,0.01-0.03,0.02-0.04,0.03c-0.02,0.02-0.05,0.04-0.07,0.05c-0.12,0.09-0.23,0.18-0.34,0.27
		c-0.18,0.15-0.36,0.31-0.52,0.48c-0.18,0.18-0.31,0.39-0.44,0.62c-0.06,0.1-0.09,0.22-0.13,0.33c-0.02,0.05-0.04,0.11-0.04,0.17
		c0,0.07-0.02,0.1-0.06,0.17c-0.02,0.03,0.02,0.05,0.04,0.03c0.03-0.04,0.06-0.08,0.11-0.09c0.05-0.02,0.09-0.02,0.14-0.05
		c0.1-0.05,0.21-0.1,0.3-0.17c0.21-0.14,0.42-0.28,0.61-0.45c0.09-0.08,0.18-0.15,0.26-0.23c0.05-0.04,0.09-0.07,0.14-0.11
		c-0.06,0.05,0,0,0.02-0.01c0.02-0.02,0.05-0.03,0.07-0.05c0.1-0.07,0.2-0.14,0.3-0.21c0.05-0.03,0.09-0.07,0.15-0.09
		c0.05-0.02,0.08-0.06,0.11-0.08c0.01,0,0.02,0,0.03-0.01l0.01,0.01c0.05,0.01,0.1,0.02,0.15,0.01c0.03,0,0.05-0.01,0.08-0.01
		c0.07-0.02,0.15-0.04,0.21-0.09c0.08-0.06,0.15-0.13,0.17-0.22C237.54,162.4,237.54,162.29,237.48,162.21z"/>
	<path class="st13" d="M240.43,160.86c-0.28-0.26-0.62-0.42-1-0.48c-0.21-0.03-0.41-0.05-0.62-0.03c-0.2,0.03-0.38,0.1-0.56,0.18
		c-0.27,0.12-0.53,0.3-0.74,0.51c-0.22,0.21-0.44,0.58-0.29,0.89c0.02,0.05,0.09,0.09,0.15,0.09c0.12-0.01,0.24-0.07,0.33-0.12
		c0.04-0.03,0.09-0.06,0.13-0.09c0.04-0.02,0.07-0.05,0.11-0.07c0.04-0.03,0.05-0.04,0.03-0.02c-0.01,0.01-0.01,0.01,0.01-0.01
		c0.1-0.07,0.21-0.13,0.32-0.18c0.06-0.03-0.06,0.02,0.01,0c0.03-0.01,0.06-0.02,0.1-0.03c0.03-0.01,0.05-0.01,0.08-0.02
		c0.01,0,0,0,0.01,0l0,0c0.12,0,0.23-0.01,0.35,0.01c0.06,0.01,0.13,0.01,0.19,0.01c0.03,0.01,0.06,0.01,0.09,0.02
		c0.06,0.01,0.13,0.03,0.19,0.05c0.02,0.01,0.04,0.01,0.06,0.02c0.09,0.05,0.18,0.09,0.28,0.13c-0.07-0.03-0.07-0.03,0,0
		c0.03,0.02,0.06,0.03,0.1,0.05c0.25,0.14,0.56,0.08,0.74-0.15C240.64,161.4,240.64,161.06,240.43,160.86z"/>
	<g>
		<path class="st13" d="M218.06,176.65c-0.07-0.12-0.18-0.16-0.32-0.18c-0.09-0.01-0.16-0.01-0.25,0.03
			c-0.06,0.02-0.1,0.05-0.15,0.09c-0.1,0.07-0.19,0.14-0.27,0.22c-0.15,0.15-0.27,0.32-0.35,0.52c-0.08,0.18-0.12,0.38-0.1,0.57
			c0.02,0.24,0.14,0.59,0.42,0.57c0.02,0.01,0.03,0.01,0.05,0.02c0.08,0.03,0.13-0.04,0.15-0.11c0.05-0.06,0.09-0.13,0.08-0.21
			c0-0.03-0.01-0.07-0.02-0.1v-0.01c0-0.01,0-0.03,0-0.03c0-0.01,0-0.03,0-0.04c0-0.03,0-0.06,0-0.1c0-0.01,0.01-0.03,0.01-0.04
			c0.01-0.03,0.02-0.06,0.03-0.1l0,0c0-0.01,0.01-0.02,0.01-0.02c0.02-0.03,0.04-0.07,0.06-0.1c0.01-0.01,0.01-0.02,0.02-0.03l0,0
			c0.02-0.03,0.05-0.05,0.07-0.08c0.03-0.03,0.05-0.05,0.08-0.07l0.01-0.01c0.01-0.01,0.02-0.01,0.02-0.02
			c0.06-0.04,0.12-0.08,0.18-0.12s0.12-0.07,0.17-0.12c0.03-0.03,0.05-0.07,0.08-0.11c-0.01,0.01,0.01-0.03,0.03-0.07
			C218.11,176.89,218.13,176.77,218.06,176.65z"/>
		<path class="st13" d="M218.06,177.02C218.1,176.93,218.08,176.97,218.06,177.02L218.06,177.02z"/>
	</g>
	<g>
		<g>
			<path d="M220.48,171.49c0.51,0.68,1.02,1.36,1.53,2.05c0.45,0.6,0.87,1.25,1.4,1.77c1.25,1.22,2.88,1.12,4.32,0.29
				c1.24-0.72,2.44-1.68,3.45-2.69c0.52-0.52,1-1.08,1.42-1.68c0.49-0.69,0.91-1.48,0.23-2.22c-0.87-0.95-2.29,0.47-1.41,1.41
				c0.02,0.02,0.05,0.05,0.07,0.07c-0.1-0.24-0.2-0.47-0.29-0.71c0.02-0.06,0.05-0.11,0.07-0.17c-0.05,0.08-0.09,0.15-0.14,0.23
				c-0.06,0.1-0.13,0.2-0.2,0.3c-0.14,0.2-0.28,0.39-0.43,0.57c-0.36,0.43-0.76,0.83-1.17,1.21c-0.79,0.72-1.67,1.41-2.6,1.95
				c-0.37,0.21-0.84,0.46-1.28,0.38c-0.43-0.07-0.75-0.48-1.01-0.8c-0.77-0.97-1.49-1.99-2.23-2.98c-0.32-0.43-0.87-0.65-1.37-0.36
				C220.42,170.37,220.16,171.05,220.48,171.49L220.48,171.49z"/>
		</g>
	</g>
	<g>
		<g>
			<path d="M221.73,171.77c0.05-0.03,0.13-0.03,0.26-0.04c0.19-0.01,0.37-0.01,0.56-0.02c0.51-0.04,0.97-0.17,1.44-0.38
				c0.79-0.35,1.46-0.91,2.11-1.47c1.35-1.16,2.61-2.41,3.78-3.76c0.35-0.41,0.4-1.01,0-1.41c-0.36-0.36-1.06-0.41-1.41,0
				c-1.13,1.31-2.36,2.53-3.67,3.66c-0.53,0.46-1.1,0.97-1.76,1.22c-0.32,0.12-0.59,0.14-0.92,0.15c-0.5,0.01-0.94,0.09-1.39,0.32
				c-0.48,0.25-0.62,0.92-0.36,1.37C220.65,171.9,221.25,172.02,221.73,171.77L221.73,171.77z"/>
		</g>
	</g>
	<g>
		<g>
			<path d="M228.79,166c0.67,1.46,1.6,2.79,2.71,3.95c0.36,0.38,1.06,0.39,1.41,0c0.37-0.41,0.39-1.01,0-1.41
				c-0.25-0.27-0.5-0.54-0.73-0.83c-0.03-0.04-0.07-0.08-0.1-0.13c-0.02-0.02-0.11-0.14-0.02-0.03s0,0-0.02-0.03
				c-0.03-0.03-0.05-0.07-0.08-0.1c-0.12-0.16-0.23-0.32-0.34-0.48c-0.42-0.62-0.79-1.28-1.1-1.95c-0.22-0.48-0.94-0.63-1.37-0.36
				C228.66,164.95,228.56,165.49,228.79,166L228.79,166z"/>
		</g>
	</g>
	<g>
		<g>
			<path d="M232.03,170.27c0.91,0.55,2.01,0.72,3.05,0.47c1.02-0.25,1.92-0.94,2.76-1.54c0.86-0.62,1.69-1.28,2.49-1.98
				c0.78-0.69,2.28-1.78,1.23-2.89c-0.88-0.94-2.3,0.48-1.41,1.41c0.02,0.02,0.04,0.04,0.06,0.06c-0.1-0.24-0.2-0.47-0.29-0.71
				c0.22-0.38,0.23-0.46,0.05-0.26c-0.07,0.07-0.14,0.14-0.22,0.21c-0.15,0.14-0.29,0.27-0.44,0.41c-0.3,0.27-0.6,0.53-0.9,0.79
				c-0.59,0.49-1.19,0.96-1.82,1.4c-1.08,0.76-2.25,1.67-3.54,0.9C231.94,167.88,230.93,169.6,232.03,170.27L232.03,170.27z"/>
		</g>
	</g>
	<g>
		<g>
			<path d="M241.82,164.54c-0.25-0.43-0.4-0.9-0.35-1.41c0.06-0.62,0.28-1.16,0.1-1.79c-0.15-0.52-0.54-0.93-0.89-1.33
				c-0.42-0.5-0.85-0.99-1.27-1.49c-0.36-0.42-1.05-0.35-1.41,0c-1.59,1.51-3.18,3.02-4.78,4.52c-0.56,0.52-1.26,1.22-2.07,1.28
				c-0.92,0.08-1.68-0.34-2.55,0.22c-1.08,0.69-0.08,2.42,1.01,1.73c0.28-0.18,0.82,0.02,1.14,0.04c0.45,0.04,0.91-0.01,1.34-0.15
				c0.93-0.3,1.7-0.92,2.4-1.57c1.66-1.53,3.28-3.1,4.92-4.65c-0.47,0-0.94,0-1.41,0c0.4,0.47,0.8,0.93,1.19,1.4
				c0.14,0.16,0.37,0.35,0.45,0.55c0.05,0.13-0.03,0.33-0.06,0.48c-0.22,1.12-0.07,2.2,0.51,3.18
				C240.75,166.66,242.48,165.65,241.82,164.54L241.82,164.54z"/>
		</g>
	</g>
	<g>
		<g>
			<path d="M231.02,216.78c8.1-8.19,17.9-14.9,28.92-18.47c1-0.32,2.84-1.1,3.38,0.27c0.46,1.17,0.5,2.93-0.42,3.89
				c-0.89,0.93,0.52,2.35,1.41,1.41c1.07-1.12,1.4-2.66,1.25-4.17c-0.16-1.56-0.65-3.18-2.28-3.73c-1.47-0.49-3.09,0.13-4.47,0.6
				c-1.52,0.51-3.02,1.08-4.49,1.7c-5.96,2.51-11.49,5.87-16.58,9.84c-2.87,2.23-5.57,4.67-8.13,7.25
				C228.7,216.29,230.11,217.7,231.02,216.78L231.02,216.78z"/>
		</g>
	</g>
	<g>
		<g>
			<path d="M264.19,202.71c-0.51-1.12-1.87-1.22-2.93-0.95c-1.27,0.32-2.52,0.99-3.71,1.52c-2.46,1.11-4.86,2.37-7.19,3.73
				c-4.78,2.81-9.26,6.09-13.54,9.61c-1.03,0.85-2.49,1.75-2.56,3.24c-0.06,1.29,0.83,2.75,2.26,2.1c0.49-0.22,0.61-0.94,0.36-1.37
				c-0.3-0.51-0.87-0.58-1.37-0.36c-0.03,0.02-0.07,0.03-0.1,0.05c0.17-0.05,0.34-0.09,0.5-0.14c0.15,0.08,0.29,0.17,0.44,0.25
				l-0.01-0.01c0.01-0.04-0.08-0.26-0.08-0.29c-0.01-0.08-0.01-0.17,0.01-0.25c0.12-0.39,0.65-0.72,0.95-0.97
				c0.87-0.73,1.75-1.45,2.63-2.16c1.74-1.39,3.52-2.72,5.33-4c3.68-2.58,7.53-4.92,11.58-6.88c1.1-0.54,2.22-1.05,3.35-1.52
				c0.54-0.23,1.09-0.5,1.67-0.64c0.18-0.04,0.34-0.04,0.52-0.07c0.05-0.01,0.12,0.01,0.17,0.03c-0.06-0.02-0.13-0.18-0.02,0.07
				c0.22,0.49,0.94,0.61,1.37,0.36C264.34,203.78,264.42,203.2,264.19,202.71L264.19,202.71z"/>
		</g>
	</g>
	<g>
		<g>
			<path d="M229.96,215.26c-0.89,0.43-1.24,1.62-0.93,2.52c0.33,0.95,1.12,1.61,1.81,2.29c0.7,0.69,1.38,1.41,2.34,1.73
				c0.48,0.16,1.01,0.18,1.51,0.21c0.21,0.01,0.42,0.02,0.63,0.04c-0.17-0.02,0.11,0.02,0.15,0.03c0.14,0.03,0.27,0.07,0.4,0.12
				c0.49,0.19,1.12-0.21,1.23-0.7c0.13-0.57-0.17-1.03-0.7-1.23c-0.76-0.29-1.56-0.2-2.34-0.31c0.14,0.02-0.05-0.01-0.1-0.02
				c-0.09-0.02-0.17-0.04-0.25-0.07c-0.25-0.08,0.09,0.07-0.14-0.06c-0.07-0.04-0.15-0.09-0.22-0.13c-0.04-0.02-0.19-0.14-0.08-0.06
				c-0.07-0.05-0.13-0.11-0.2-0.17c-0.14-0.13-0.28-0.26-0.41-0.39c-0.49-0.48-1.15-1.06-1.53-1.52c0.06,0.08-0.08-0.12-0.09-0.14
				c-0.01-0.01-0.14-0.27-0.07-0.11c-0.03-0.07-0.03-0.14-0.06-0.21c-0.04-0.09-0.01,0.17,0.01-0.01c0.02-0.27-0.05,0.21,0.01-0.05
				c0.02-0.11,0.02-0.05-0.02,0.02c0.03-0.05,0.17-0.22,0.02-0.04c-0.1,0.11-0.07,0.04,0.05-0.01c0.47-0.23,0.63-0.94,0.36-1.37
				C231.01,215.13,230.46,215.02,229.96,215.26L229.96,215.26z"/>
		</g>
	</g>
	<g>
		<g>
			<path d="M222.01,170.79c-1.36-0.17-2.81,0.43-3.74,1.42c-1,1.05-1.38,2.46-1.11,3.87c0.24,1.27,1.1,2.49,2.24,3.11
				c1.39,0.75,3.26,0.93,4.67,0.17c1.51-0.81,2.55-2.78,1.9-4.44c-0.2-0.5-0.67-0.85-1.23-0.7c-0.48,0.13-0.9,0.72-0.7,1.23
				c0.12,0.31,0.14,0.38,0.14,0.61c0,0.03-0.03,0.19,0,0.04c-0.01,0.05-0.02,0.1-0.04,0.15c-0.04,0.14-0.08,0.23-0.1,0.27
				c-0.06,0.13-0.13,0.25-0.2,0.38c-0.04,0.06-0.07,0.12-0.11,0.18c0.01-0.02,0.07-0.09,0,0c-0.08,0.09-0.16,0.18-0.25,0.26
				c-0.05,0.05-0.1,0.1-0.16,0.14c0.08-0.06-0.02,0.01-0.05,0.03c-0.41,0.25-0.74,0.36-1.24,0.35c-0.47-0.01-1.04-0.11-1.5-0.32
				c-0.1-0.05-0.2-0.1-0.29-0.16c-0.05-0.03-0.25-0.18-0.21-0.14c0.04,0.03-0.14-0.13-0.18-0.17c-0.09-0.09-0.18-0.18-0.25-0.28
				c0.11,0.13-0.07-0.11-0.09-0.14c-0.06-0.09-0.12-0.19-0.17-0.29c-0.03-0.06-0.06-0.11-0.08-0.17c0.01,0.02,0.05,0.13,0.01,0.02
				c-0.04-0.12-0.08-0.24-0.12-0.36c-0.03-0.11-0.05-0.22-0.07-0.32c0.04,0.18-0.01-0.1-0.01-0.16c-0.01-0.11-0.01-0.22,0-0.33
				c0-0.06,0.01-0.13,0.01-0.19c-0.01,0.11-0.01,0.07,0.01-0.02c0.03-0.13,0.06-0.25,0.1-0.37c0.01-0.04,0.11-0.26,0.05-0.13
				c0.06-0.12,0.12-0.23,0.19-0.34c0.03-0.04,0.05-0.08,0.08-0.12c0.1-0.14-0.15,0.16,0.05-0.07c0.09-0.1,0.18-0.2,0.27-0.29
				c0.04-0.04,0.29-0.24,0.18-0.16c0.21-0.15,0.44-0.29,0.69-0.39c-0.14,0.06,0.01,0,0.04-0.01c0.06-0.02,0.12-0.04,0.19-0.06
				c0.06-0.02,0.13-0.03,0.19-0.05c0.02-0.01,0.27-0.05,0.16-0.03c-0.1,0.02,0.06,0,0.06-0.01c0.08,0,0.16-0.01,0.25-0.01
				c0.15,0,0.3,0.01,0.44,0.03c0.54,0.07,1-0.51,1-1C223.01,171.19,222.55,170.85,222.01,170.79L222.01,170.79z"/>
		</g>
	</g>
	<g>
		<g>
			<path d="M216.75,175.15c0,0,0.1-0.18,0.04-0.1c-0.02,0.03-0.04,0.07-0.06,0.11c-0.03,0.05-0.07,0.1-0.1,0.15
				c-0.05,0.09,0.05-0.08,0.06-0.08c-0.01,0-0.07,0.08-0.08,0.1c-0.05,0.06-0.1,0.11-0.15,0.16c-0.24,0.26-0.48,0.52-0.69,0.81
				c-0.53,0.75-0.51,1.68-0.07,2.47c0.39,0.72,1.07,1.21,1.72,1.68c0.66,0.47,1.42,0.91,2.27,0.84c0.55-0.05,1.07-0.24,1.45-0.66
				c0.17-0.18,0.31-0.39,0.44-0.6c0.04-0.07,0.09-0.14,0.13-0.21c0.02-0.03,0.11-0.16,0.02-0.04c-0.09,0.12,0.05-0.05,0.06-0.06
				c0.36-0.38,0.4-1.04,0-1.41c-0.39-0.36-1.03-0.4-1.41,0c-0.17,0.18-0.32,0.39-0.45,0.6c-0.05,0.08-0.1,0.16-0.15,0.24
				c-0.01,0.02-0.03,0.04-0.04,0.06c-0.06,0.09-0.05,0.08,0.03-0.03c-0.03,0.04-0.06,0.07-0.09,0.1c-0.08,0.07-0.07,0.06,0.04-0.02
				c-0.04,0.03-0.08,0.05-0.12,0.07c0.13-0.05,0.14-0.06,0.04-0.03c-0.19,0.06,0.21,0-0.05,0.01c-0.04,0-0.07,0-0.11,0
				c-0.11-0.01-0.1-0.01,0.05,0.01c-0.05,0.03-0.24-0.06-0.29-0.08c-0.11-0.04-0.1-0.04,0.02,0.01c-0.05-0.02-0.1-0.05-0.14-0.07
				c-0.17-0.09-0.32-0.19-0.48-0.3c-0.16-0.11-0.32-0.22-0.47-0.34c-0.21-0.15,0.09,0.08-0.07-0.05c-0.08-0.07-0.15-0.13-0.23-0.2
				c-0.12-0.11-0.27-0.24-0.36-0.38c0.14,0.23-0.03-0.06-0.05-0.1c-0.02-0.04-0.05-0.09-0.07-0.13c0.05,0.12,0.05,0.12,0.01,0.01
				c-0.02-0.05-0.03-0.11-0.04-0.16c0.01,0.13,0.02,0.13,0.01,0.02c-0.01-0.18-0.07,0.21,0,0.03c0.09-0.26-0.09,0.12,0-0.03
				c0.04-0.07,0.08-0.13,0.12-0.2c0.11-0.17-0.13,0.15-0.01,0.01c0.05-0.06,0.11-0.12,0.16-0.19c0.11-0.12,0.23-0.24,0.34-0.37
				c0.3-0.35,0.52-0.68,0.69-1.11c0.2-0.49-0.21-1.12-0.7-1.23C217.4,174.32,216.96,174.63,216.75,175.15L216.75,175.15z"/>
		</g>
	</g>
	<g>
		<g>
			<path d="M230.4,216.31c0.59,0.72,1.56,0.68,2.34,0.31c1.31-0.63,2.5-1.64,3.69-2.46c1.22-0.84,2.45-1.68,3.67-2.51
				c0.6-0.41,1.19-0.86,1.81-1.24c0.5-0.3,0.95-0.11,1.46,0.11c0.36,0.16,0.72,0.32,1.08,0.49c0.15,0.07,0.27-0.15,0.13-0.22
				c-0.87-0.39-1.87-1.18-2.79-0.6c-1.24,0.79-2.43,1.66-3.65,2.5c-1.19,0.81-2.38,1.63-3.57,2.44c-1.01,0.69-2.88,2.37-3.99,1
				C230.47,216.01,230.3,216.19,230.4,216.31L230.4,216.31z"/>
		</g>
	</g>
	<g>
		<g>
			<path d="M246.37,210.05c-0.84-0.55-1.61-1.17-2.33-1.87c-0.01,0.07-0.02,0.13-0.03,0.2c1.72-1.08,3.46-2.13,5.17-3.23
				c0.58-0.37,1.15-0.8,1.44-1.45c0.32-0.74,0.22-1.57,0.11-2.34c-0.02-0.16-0.26-0.09-0.24,0.07c0.12,0.84,0.23,1.78-0.29,2.52
				c-0.44,0.63-1.17,1.01-1.8,1.4c-1.5,0.94-3.01,1.88-4.51,2.82c-0.07,0.04-0.08,0.14-0.03,0.2c0.73,0.71,1.53,1.35,2.38,1.91
				C246.38,210.36,246.51,210.14,246.37,210.05L246.37,210.05z"/>
		</g>
	</g>
	<g>
		<g>
			<path d="M251.19,207.15c-0.18-0.68-0.86-1.37-0.24-2.02c0.49-0.51,1.26-0.61,1.76-1.12c1.04-1.06,1.03-2.64,0.98-4.02
				c-0.01-0.16-0.26-0.16-0.25,0c0.05,1.6,0.02,3.52-1.62,4.34c-0.52,0.26-1.15,0.5-1.35,1.1c-0.21,0.65,0.31,1.2,0.47,1.79
				C250.99,207.38,251.23,207.31,251.19,207.15L251.19,207.15z"/>
		</g>
	</g>
	<g>
		<g>
			<path d="M258.25,203.21c-0.63-0.24-1.24-0.62-1.68-1.13c-0.18-0.21-0.04-0.33,0.16-0.42c0.17-0.07,0.35-0.14,0.53-0.21
				c0.33-0.13,0.66-0.27,0.99-0.4c0.33-0.14,0.66-0.29,0.99-0.44c0.25-0.11,0.51-0.21,0.58-0.51c0.07-0.33,0.05-0.7,0.07-1.04
				c0.02-0.38,0.04-0.77,0.06-1.15c0.01-0.16-0.24-0.16-0.25,0c-0.02,0.42-0.05,0.84-0.07,1.26c-0.01,0.21-0.02,0.42-0.04,0.63
				c-0.01,0.16,0,0.31-0.14,0.43c-0.06,0.05-0.17,0.09-0.25,0.12c-0.77,0.36-1.56,0.68-2.35,0.99c-0.22,0.08-0.52,0.16-0.62,0.4
				c-0.11,0.25,0.11,0.47,0.28,0.64c0.47,0.48,1.04,0.83,1.67,1.07C258.33,203.51,258.4,203.27,258.25,203.21L258.25,203.21z"/>
		</g>
	</g>
	<g>
		<g>
			<path d="M261.12,197.48c-0.07,0.6-0.15,1.2-0.21,1.8c-0.03,0.31-0.03,0.72,0.25,0.91c0.15,0.11,0.31,0.09,0.49,0.09
				c0.18,0.01,0.27,0.09,0.3,0.27c0.02,0.14,0.04,0.27,0.06,0.41c0.1,0.55,0.27,1.09,0.48,1.61c0.06,0.15,0.3,0.08,0.24-0.07
				c-0.2-0.49-0.36-1-0.47-1.52c-0.07-0.35-0.03-0.9-0.49-0.94c-0.21-0.02-0.44,0.06-0.56-0.16c-0.09-0.17-0.07-0.41-0.05-0.6
				c0.06-0.6,0.14-1.2,0.21-1.8C261.39,197.32,261.14,197.32,261.12,197.48L261.12,197.48z"/>
		</g>
	</g>
	<g>
		<g>
			<path d="M243.56,211.73c-0.85-0.37-1.64-0.58-2.44,0.01c-0.88,0.65-1.72,1.37-2.57,2.05c-0.9,0.72-1.8,1.44-2.71,2.16
				c-0.25,0.2-0.58,0.39-0.48,0.75c0.05,0.17,0.17,0.3,0.28,0.43c0.19,0.24,0.38,0.48,0.57,0.72c0.1,0.13,0.28-0.05,0.18-0.18
				c-0.25-0.32-0.93-0.92-0.67-1.31c0.1-0.15,0.34-0.27,0.47-0.38c0.16-0.13,0.33-0.26,0.49-0.39c0.7-0.56,1.39-1.12,2.09-1.67
				c0.68-0.54,1.35-1.08,2.03-1.62c0.33-0.27,0.67-0.59,1.1-0.68c0.51-0.11,1.05,0.13,1.51,0.33
				C243.58,212.01,243.71,211.8,243.56,211.73L243.56,211.73z"/>
		</g>
	</g>
	<g>
		<g>
			<path d="M224.83,172.16c1.14,0.1,2.06-0.95,2.81-1.65c0.95-0.89,1.85-1.83,2.7-2.82c0.1-0.12-0.07-0.3-0.18-0.18
				c-0.79,0.91-1.61,1.78-2.48,2.61c-0.42,0.4-0.83,0.8-1.28,1.16c-0.45,0.37-0.97,0.69-1.58,0.63
				C224.67,171.89,224.67,172.14,224.83,172.16L224.83,172.16z"/>
		</g>
	</g>
	<g>
		<g>
			<path d="M233.93,164.08c0.27,0.36,0.63,0.81,1.13,0.79c0.29-0.01,0.53-0.18,0.76-0.33c0.29-0.19,0.58-0.38,0.87-0.57
				c0.28-0.19,0.56-0.37,0.83-0.57c0.18-0.13,0.39-0.28,0.4-0.53s-0.17-0.5-0.32-0.69c-0.18-0.23-0.4-0.41-0.64-0.57
				c-0.14-0.09-0.26,0.13-0.13,0.22c0.2,0.13,0.38,0.28,0.53,0.46c0.13,0.15,0.38,0.44,0.29,0.65c-0.09,0.2-0.41,0.35-0.58,0.47
				c-0.21,0.14-0.42,0.28-0.63,0.42s-0.42,0.28-0.63,0.41c-0.2,0.13-0.41,0.3-0.64,0.35c-0.45,0.11-0.8-0.33-1.03-0.65
				C234.05,163.83,233.83,163.95,233.93,164.08L233.93,164.08z"/>
		</g>
	</g>
	<g>
		<g>
			<path d="M222.84,173.7c-0.46-0.34-1.1-0.35-1.59-0.09c-0.52,0.28-0.79,0.86-0.73,1.44c0.06,0.6,0.44,1.11,1.01,1.31
				c0.57,0.2,1.24,0.08,1.68-0.33c0.5-0.46,0.68-1.22,0.46-1.86c-0.05-0.15-0.29-0.09-0.24,0.07c0.17,0.49,0.08,1.05-0.25,1.45
				c-0.32,0.41-0.87,0.59-1.38,0.48c-0.5-0.1-0.88-0.46-1.01-0.96c-0.12-0.48,0.02-1.02,0.43-1.31c0.43-0.32,1.05-0.33,1.49-0.01
				C222.85,174.01,222.97,173.79,222.84,173.7L222.84,173.7z"/>
		</g>
	</g>
	<path class="st4" d="M236.16,157.25c0,0,0.14,3.87-2.12,4.21c0,0,2.13,0.67,2.88,1.93c0.12,0.2,0.2,0.4,0.24,0.63
		c0.28,1.67-0.42-2.34,1.34-2.45C238.5,161.57,236.55,160.28,236.16,157.25z"/>
	<path class="st4" d="M222.97,173.02c0,0,0.09,2.35-1.29,2.56c0,0,1.29,0.41,1.75,1.17c0.07,0.12,0.12,0.25,0.14,0.38
		c0.17,1.01-0.25-1.42,0.82-1.49C224.39,175.64,223.21,174.86,222.97,173.02z"/>
	<path class="st4" d="M250.52,199.15c0,0,0.09,2.35-1.29,2.56c0,0,1.29,0.41,1.75,1.17c0.07,0.12,0.12,0.25,0.14,0.38
		c0.17,1.01-0.25-1.42,0.82-1.49C251.94,201.78,250.76,200.99,250.52,199.15z"/>
	<path class="st4" d="M258.33,199.83c0,0,0.14,3.78-2.07,4.1c0,0,2.08,0.65,2.81,1.88c0.11,0.19,0.19,0.39,0.23,0.61
		c0.27,1.63-0.41-2.28,1.31-2.39C260.61,204.05,258.72,202.79,258.33,199.83z"/>
</g>
</svg>
