<?xml version="1.0" encoding="utf-8"?>
<!-- Generator: Adobe Illustrator 28.0.0, SVG Export Plug-In . SVG Version: 6.00 Build 0)  -->
<svg version="1.1" id="Layer_1" xmlns="http://www.w3.org/2000/svg" xmlns:xlink="http://www.w3.org/1999/xlink" x="0px" y="0px"
	 viewBox="0 0 150 150" style="enable-background:new 0 0 150 150;" xml:space="preserve">
<style type="text/css">
	.st0{fill:#E5D4BD;}
	.st1{fill:url(#SVGID_1_);}
	.st2{fill:url(#SVGID_00000043456629146736722790000008346456985637568677_);}
	.st3{fill:url(#SVGID_00000167359422641189017140000013073446420989083265_);}
	.st4{fill:url(#SVGID_00000072960781913679239350000017592084066277867414_);}
	.st5{fill:url(#SVGID_00000136407895925905097800000004257813394682842010_);}
	.st6{fill:url(#SVGID_00000062906855047280022840000017974721280294772899_);}
	.st7{fill:url(#SVGID_00000048464911969212120310000013204234764442750627_);}
	.st8{fill:url(#SVGID_00000054983204775587584830000004008156363508595881_);}
	.st9{fill:url(#SVGID_00000051382848581117266760000001417838315089182851_);}
	.st10{fill:url(#SVGID_00000000935355093639971380000017167610250510174354_);}
	.st11{fill:url(#SVGID_00000036942062306841088990000012211075611375291818_);}
	.st12{fill:url(#SVGID_00000106113936448452059970000012181074973738536610_);}
	.st13{fill:url(#SVGID_00000117641706301320295840000006333183760951028403_);}
	.st14{fill:url(#SVGID_00000114034423776082014700000014753388892716497342_);}
	.st15{fill:url(#SVGID_00000085247270344461289510000017393042033317126279_);}
	.st16{fill:url(#SVGID_00000098907678902703035370000016107835844770258872_);}
	.st17{fill:url(#SVGID_00000149341715916101723900000016340301569822409346_);}
	.st18{fill:url(#SVGID_00000173877276590165061910000009723764609034306701_);}
	.st19{fill:url(#SVGID_00000134946875905461551400000004448381749237350029_);}
	.st20{fill:url(#SVGID_00000175282228094605048720000011981437328059459720_);}
	.st21{fill:url(#SVGID_00000172420935773277889380000004343354460452695183_);}
	.st22{fill:#5C5F5B;}
	.st23{fill:#999994;}
	.st24{fill:#272A23;}
	.st25{fill:url(#SVGID_00000089560330559673725020000005156491592108068256_);}
	.st26{fill:url(#SVGID_00000090265060432879177160000009054782670803314832_);}
	.st27{fill:#D3C2AF;}
	.st28{fill:none;stroke:#000000;stroke-width:2;stroke-linecap:round;stroke-linejoin:round;stroke-miterlimit:10;}
	.st29{fill:#727272;}
</style>
<g id="Boomer_Head">
	<path class="st0" d="M52.77,11.91c-4.82,1.27-9.35,3.68-11.84,8.17c-2.17,3.93-2.94,8.56-2.95,13.01c0,2.05,0.05,4.33-1.33,5.83
		c-0.45,0.49-1.01,0.85-1.51,1.3c-2.46,2.22-2.37,5.54-2.57,8.57c-0.08,1.19-0.01,2.39-0.03,3.58c-0.04,2.65-0.58,5.21-1.03,7.81
		c-0.19,1.05-0.44,2.08-0.66,3.12c-0.22,1.06-0.64,2.44-0.52,3.53c-1.48-0.11-2.84,0.1-4.27,0.54c-0.75,0.23-1.38,0.79-1.7,1.5
		c-2.56,5.8-0.79,15.73,3.94,20.01c0.68,0.62,1.45,1.16,1.97,1.92c1.38,2.04,0.5,4.82,1.11,7.21c1.23,4.85,7.52,6.04,11.23,9.4
		c1.65,1.49,2.75,3.42,3.9,5.29c0.95,1.55,2.39,2.76,3.86,3.84c1.23,0.9,2.58,1.62,3.97,2.23c0.69,0.3,1.43,0.51,2.12,0.81
		c0.74,0.32,1.42,0.9,2.09,1.36c0.52,0.36,1.06,0.72,1.68,0.86c0.66,0.14,1.35,0.02,2.02-0.06c0.51-0.05,1.19-0.12,1.66,0.14
		c0.32,0.18,0.53,0.52,0.85,0.72c0.82,0.52,1.76,0.77,2.29,1.65c0.29,0.48,0.42,1.03,0.54,1.58c0.62,2.72,0.5,6.38,3.26,8
		c0.78,0.46,1.69,0.62,2.58,0.78c2.05,0.36,4.13,0.72,6.2,0.48c1.36-0.16,2.67-0.58,3.94-1.09c5.43-2.2,9.96-6.12,15.09-8.96
		c5.82-3.23,12.64-5.04,19.2-3.9c0.49,0.09,1.11,0.14,1.39-0.28c0.21-0.31,0.1-0.73,0-1.09c-1.25-4.3-1.36-9.44-0.09-13.74
		c0.67-2.27,2.25-5.43,2.25-7.78c0.58-1.99,1.16-4,2.1-5.84c1.14-2.22,2.79-4.18,3.76-6.48c1.64-3.92,1.12-8.4,0.07-12.51
		c-0.85-3.34-2.03-6.6-2.61-10.01c-0.52-3.03,0.38-6.45,0.61-9.54c0.11-1.49,0.22-3-0.05-4.47c-0.23-1.25-0.73-2.44-1.22-3.61
		c-2.89-6.83-5.87-13.83-10.65-19.59c-4.87-5.87-12.45-8.92-19.66-11c-1.78-0.51-3.58-0.94-5.38-1.34
		c-5.86-1.3-11.8-2.29-17.79-2.83c-4.55-0.41-9.15-0.57-13.67,0.08C55.54,11.28,54.14,11.55,52.77,11.91z"/>
	
		<linearGradient id="SVGID_1_" gradientUnits="userSpaceOnUse" x1="91.8595" y1="45.8218" x2="97.5264" y2="23.2232" gradientTransform="matrix(1 0 0 -1 0 149.8898)">
		<stop  offset="3.782242e-03" style="stop-color:#E5D4BD"/>
		<stop  offset="0.4842" style="stop-color:#E7D6BF"/>
		<stop  offset="0.7663" style="stop-color:#EFDEC8"/>
		<stop  offset="0.9968" style="stop-color:#FDECD6"/>
		<stop  offset="0.9988" style="stop-color:#FDECD6"/>
	</linearGradient>
	<path class="st1" d="M120.26,101.43c-0.53,1.45-1.07,2.88-1.49,4.36c-0.98,1.96-0.53,4.38-0.76,6.44
		c-0.27,2.43,0.77,5.08,1.34,7.47c0.1,0.43,0.14,0.99-0.25,1.19c-0.23,0.11-0.5,0.04-0.75-0.04c-6.23-1.9-13.03,0.41-18.49,3.95
		c-1.66,1.08-3.25,2.27-4.93,3.32c-1.88,1.18-3.87,2.17-5.89,3.09c-2.91,1.33-5.93,2.53-9.11,3.03c-2.34,0.37-5.17,0.96-7.45,0.19
		c-1.21-0.4-2.37-1.1-3.06-2.17c-1.48-2.27-1.04-5.34-2.36-7.71c-0.27-0.49-0.53-0.99-0.78-1.49c-0.15-0.29-0.3-0.61-0.22-0.92
		c0.15-0.6,2.16-0.6,2.69-0.71c1.11-0.23,2.21-0.52,3.3-0.81c2.14-0.58,4.27-1.21,6.45-1.63c1.98-0.38,3.99-0.58,5.99-0.84
		c0.59-0.08,1.19-0.17,1.78-0.26c7.4-1.23,14.76-4.81,18.81-11.12c0.46-0.71,0.88-1.47,1.53-2.01c0.97-0.82,2.29-1.04,3.52-1.34
		c1.54-0.38,3.04-0.93,4.42-1.73c1.6-0.92,3.84-3.95,5.84-3.65c0.14,0.02,0.28,0.06,0.38,0.17c0.09,0.1,0.11,0.24,0.12,0.37
		C121,99.67,120.63,100.42,120.26,101.43z"/>
	
		<linearGradient id="SVGID_00000119093389247850518850000011698567472057373608_" gradientUnits="userSpaceOnUse" x1="80.9749" y1="41.14" x2="85.2344" y2="19.4554" gradientTransform="matrix(1 0 0 -1 0 149.8898)">
		<stop  offset="0" style="stop-color:#000000;stop-opacity:0.5"/>
		<stop  offset="0.9985" style="stop-color:#D3C0AB;stop-opacity:0"/>
	</linearGradient>
	<path style="fill:url(#SVGID_00000119093389247850518850000011698567472057373608_);" d="M67.39,121.34
		c0.72-0.03,1.43-0.05,2.16-0.08c1.81-0.09,3.6-0.32,5.39-0.55c4.5-0.57,9.04-1.15,13.36-2.54c2.67-0.86,5.23-2.02,7.79-3.18
		c1.65-0.75,3.29-1.49,4.94-2.24c-1.1,0.67-2.2,1.35-3.3,2.02c-1.1,0.67-2.21,1.36-3.08,2.31c-1.82,1.99-2.88,4.53-4.68,6.56
		c-1.78,2.01-3.95,3.62-6.1,5.21c-0.78,0.58-1.56,1.15-2.41,1.61c-2.1,1.13-4.61,1.47-6.93,0.95c-2.73-0.61-4.5-2.47-6.65-4.09
		c-0.47-0.35-0.93-0.7-1.34-1.12c-1.1-1.13-1.67-2.66-2.21-4.14c-0.02-0.06-0.05-0.13-0.02-0.2c0.03-0.09,0.13-0.13,0.23-0.15
		C65.49,121.48,66.44,121.39,67.39,121.34z"/>
	
		<linearGradient id="SVGID_00000164497156505250208190000005343494141708281787_" gradientUnits="userSpaceOnUse" x1="57.7153" y1="58.1549" x2="57.8994" y2="66.1651" gradientTransform="matrix(1 0 0 -1 0 149.8898)">
		<stop  offset="0" style="stop-color:#000000;stop-opacity:0.5"/>
		<stop  offset="0.9985" style="stop-color:#D3C0AB;stop-opacity:0"/>
	</linearGradient>
	<path style="fill:url(#SVGID_00000164497156505250208190000005343494141708281787_);" d="M53.93,87.62
		c0.35-0.41,0.73-0.82,1.21-1.06c0.73-0.36,1.58-0.3,2.38-0.18c2.2,0.34,4.34,1.08,6.28,2.18c0.08-0.43-0.17-0.85-0.42-1.22
		c-1.02-1.52-2.15-3.05-3.75-3.95c-1.6-0.9-3.78-1-5.14,0.23c-0.76,0.69-1.17,1.68-1.54,2.64c-0.33,0.84-1.79,3.2-0.95,3.97
		C52.68,89.41,53.29,88.47,53.93,87.62z"/>
	
		<linearGradient id="SVGID_00000134940535467153739200000002333170833300382618_" gradientUnits="userSpaceOnUse" x1="55.9697" y1="43.2925" x2="56.1539" y2="53.1441" gradientTransform="matrix(1 0 0 -1 0 149.8898)">
		<stop  offset="0" style="stop-color:#000000;stop-opacity:0.5"/>
		<stop  offset="0.9985" style="stop-color:#D3C0AB;stop-opacity:0"/>
	</linearGradient>
	<path style="fill:url(#SVGID_00000134940535467153739200000002333170833300382618_);" d="M41.36,98.85
		c1.58-0.06,3.17-0.12,4.74,0.06c1.75,0.2,3.46,0.7,5.21,0.96c1.13,0.17,2.28,0.24,3.42,0.31c3.16,0.19,6.32,0.38,9.48,0.57
		c2.21,0.13,4.47,0.26,6.62-0.32c0.09-0.4-0.37-0.7-0.76-0.85c-3.89-1.48-8.14-1.61-12.3-1.63c-2.92-0.01-5.84,0.03-8.76,0.12
		c-1.44,0.04-2.88,0.1-4.32,0.17c-0.7,0.03-1.48-0.02-2.17,0.11C42.18,98.4,41.57,98.83,41.36,98.85z"/>
	
		<linearGradient id="SVGID_00000076584557193067901290000000111382939096568727_" gradientUnits="userSpaceOnUse" x1="59.5867" y1="37.86" x2="59.7709" y2="47.3433" gradientTransform="matrix(1 0 0 -1 0 149.8898)">
		<stop  offset="0" style="stop-color:#000000;stop-opacity:0.5"/>
		<stop  offset="0.9985" style="stop-color:#D3C0AB;stop-opacity:0"/>
	</linearGradient>
	<path style="fill:url(#SVGID_00000076584557193067901290000000111382939096568727_);" d="M50.78,102.61
		c1.44,0.3,2.79,0.89,4.21,1.27c0.94,0.25,1.91,0.4,2.88,0.53c5.59,0.72,11.48,0.51,16.59-1.86c-0.86,1.71-2.77,2.62-4.6,3.19
		c-7.3,2.29-15.37,1.17-22.37-1.93c-0.63-0.28-3.84-2.46-1.62-2.42c0.68,0.01,1.6,0.62,2.3,0.78
		C49.04,102.36,49.92,102.43,50.78,102.61z"/>
	
		<linearGradient id="SVGID_00000121279717162679438280000005283814500693579397_" gradientUnits="userSpaceOnUse" x1="86.1996" y1="50.5074" x2="83.3943" y2="59.9654" gradientTransform="matrix(1 0 0 -1 0 149.8898)">
		<stop  offset="0" style="stop-color:#000000;stop-opacity:0.5"/>
		<stop  offset="0.9985" style="stop-color:#D3C0AB;stop-opacity:0"/>
	</linearGradient>
	<path style="fill:url(#SVGID_00000121279717162679438280000005283814500693579397_);" d="M73.27,93.95c1.1,0.06,2.2,0.12,3.31,0.18
		c1.04,0.05,2.09,0.1,3.13,0.05c2.77-0.15,5.44-1.05,7.98-2.17c1.9-0.84,3.76-1.82,5.36-3.13s2.96-3,3.65-4.95
		c-0.5,4.23-3.45,8.09-7.41,9.67c-1.01,0.41-2.08,0.67-3.13,0.93c-1.08,0.27-2.16,0.54-3.24,0.81c-1.14,0.28-2.3,0.57-3.48,0.56
		c-0.89-0.01-1.76-0.19-2.65-0.29c-2-0.24-4.03-0.09-6.05-0.01c-0.19,0.01-0.4,0.01-0.56-0.1c-0.18-0.12-0.25-0.34-0.31-0.54
		c-0.15-0.5-0.65-1.43-0.4-1.9C70.68,93.69,71.92,93.89,73.27,93.95z"/>
	
		<linearGradient id="SVGID_00000099642688196754187690000009162036281323777422_" gradientUnits="userSpaceOnUse" x1="39.1515" y1="48.5922" x2="39.3968" y2="59.6281" gradientTransform="matrix(1 0 0 -1 0 149.8898)">
		<stop  offset="0" style="stop-color:#000000;stop-opacity:0.5"/>
		<stop  offset="0.9985" style="stop-color:#D3C0AB;stop-opacity:0"/>
	</linearGradient>
	<path style="fill:url(#SVGID_00000099642688196754187690000009162036281323777422_);" d="M46.19,93.12c0.2,0,0.41,0,0.61,0.04
		c0.19,0.04,0.37,0.12,0.54,0.23c0.69,0.46,0.99,1.4,0.77,2.2c-4.85-0.51-9.82,0.18-14.45-1.58c-1.24-0.47-2.52-1.14-3.08-2.34
		c-0.1-0.22-0.16-0.5,0.01-0.67c0.07-0.07,0.17-0.1,0.26-0.13c0.91-0.24,1.46,0.32,2.3,0.54c0.83,0.22,1.67,0.41,2.51,0.59
		C39.11,92.72,42.65,93.1,46.19,93.12z"/>
	
		<linearGradient id="SVGID_00000167362982207418145690000014451639772945434249_" gradientUnits="userSpaceOnUse" x1="44.3317" y1="79.7882" x2="44.0111" y2="87.8836" gradientTransform="matrix(1 0 0 -1 0 149.8898)">
		<stop  offset="0" style="stop-color:#000000;stop-opacity:0.5"/>
		<stop  offset="0.9985" style="stop-color:#D3C0AB;stop-opacity:0"/>
	</linearGradient>
	<path style="fill:url(#SVGID_00000167362982207418145690000014451639772945434249_);" d="M34.52,64.4
		c0.16,0.18,0.38,0.37,0.61,0.29c0.18-0.06,0.27-0.28,0.44-0.38c0.22-0.12,0.49-0.01,0.7,0.12c0.86,0.53,1.59,1.39,2.6,1.53
		c0.4,0.05,0.8-0.01,1.21-0.06c1.05-0.12,2.11-0.1,3.15,0.06c1.03,0.16,2.06,0.46,3.09,0.31c1.45-0.21,2.69-1.27,4.14-1.37
		c0.17-0.01,0.38,0,0.49,0.13c0.12,0.15,0.08,0.38,0.16,0.55c0.11,0.24,0.4,0.33,0.66,0.39c0.94,0.22,1.87,0.43,2.81,0.65
		c0.44-0.92-0.17-2.06-1.04-2.6c-0.87-0.54-1.93-0.64-2.94-0.8c-0.62-0.1-1.24-0.23-1.86-0.2c-1.7,0.09-3.22,1.4-4.92,1.24
		c-0.74-0.07-1.42-0.42-2.11-0.67c-1.89-0.7-3.93-0.75-5.9-1.1c-0.44-0.08-1.87-0.66-2.24-0.18C33.16,62.81,34.19,64.01,34.52,64.4z
		"/>
	
		<linearGradient id="SVGID_00000078010673434088545060000001260121157105900201_" gradientUnits="userSpaceOnUse" x1="82.5814" y1="78.761" x2="82.2608" y2="87.177" gradientTransform="matrix(1 0 0 -1 0 149.8898)">
		<stop  offset="0" style="stop-color:#000000;stop-opacity:0.5"/>
		<stop  offset="0.9985" style="stop-color:#D3C0AB;stop-opacity:0"/>
	</linearGradient>
	<path style="fill:url(#SVGID_00000078010673434088545060000001260121157105900201_);" d="M66.33,67.81
		c1.12-0.17,2.26-0.2,3.39-0.08c0.45,0.05,0.9,0.12,1.35,0.13c0.44,0.01,0.88-0.03,1.32-0.07c1.12-0.1,2.24-0.21,3.36-0.31
		c0.59-0.05,1.2-0.11,1.74-0.35c0.23-0.1,0.46-0.23,0.71-0.29c0.28-0.06,0.58-0.01,0.86,0.05c0.9,0.21,1.82,0.61,2.71,0.37
		c0.32-0.09,0.62-0.25,0.95-0.31c0.47-0.09,0.95,0.06,1.42,0.18c1.65,0.44,3.35,0.68,5.06,0.7c0.5,0.01,1.01-0.01,1.49-0.14
		c0.35-0.1,0.69-0.26,1.05-0.33c0.6-0.11,1.21,0.03,1.8,0.17c1.67,0.4,3.34,0.8,5.01,1.19c0.17-0.57-0.11-1.19-0.55-1.59
		s-1.01-0.62-1.56-0.83c-0.77-0.29-1.55-0.58-2.35-0.75c-2.2-0.46-4.51-0.01-6.71-0.47c-0.56-0.12-1.12-0.3-1.7-0.29
		c-0.91,0.02-1.76,0.54-2.67,0.48c-0.77-0.05-1.47-0.5-2.23-0.53c-0.69-0.03-1.38,0.28-2.07,0.19c-0.63-0.08-1.2-0.48-1.83-0.5
		c-0.73-0.02-1.43,0.49-2.15,0.37c-0.38-0.06-0.7-0.29-1.06-0.42s-0.82-0.14-1.06,0.16c-0.16,0.2-0.19,0.5-0.39,0.67
		c-0.14,0.12-0.34,0.14-0.52,0.16c-1.3,0.14-2.7,0.06-3.98,0.3c-0.46,0.08-0.57,0.03-0.85,0.41C66.67,66.26,66.51,67.78,66.33,67.81
		z"/>
	
		<linearGradient id="SVGID_00000019660556160868784050000014236759353871976126_" gradientUnits="userSpaceOnUse" x1="61.6235" y1="87.9304" x2="61.944" y2="94.9838" gradientTransform="matrix(1 0 0 -1 0 149.8898)">
		<stop  offset="0" style="stop-color:#000000;stop-opacity:0.5"/>
		<stop  offset="0.9985" style="stop-color:#D3C0AB;stop-opacity:0"/>
	</linearGradient>
	<path style="fill:url(#SVGID_00000019660556160868784050000014236759353871976126_);" d="M61.09,58.13
		c2.09,0.36,4.25,0.79,6.32,0.29c2-0.48,3.78-1.8,5.83-1.99c2.38-0.21,4.63,1.14,7.01,1.37c1.56,0.15,3.24-0.17,4.64,0.54
		c-3.95-2.1-8.27-3.51-12.71-4.15c-0.44-0.06-0.89-0.12-1.34-0.09c-0.57,0.04-1.12,0.23-1.66,0.4c-3.99,1.3-8.18,2.33-12.36,1.87
		c-1.8-0.2-3.56-0.67-5.35-0.96c-2.24-0.36-4.51-0.42-6.77-0.34c-1.1,0.04-2.21,0.12-3.31,0.22c-0.73,0.06-2.09-0.08-2.59,0.54
		c1.68,0.4,3.68,0.28,5.43,0.41c1.9,0.14,3.81,0.29,5.71,0.46C53.67,57.05,57.4,57.49,61.09,58.13z"/>
	
		<linearGradient id="SVGID_00000017480101147041171370000002744175838067339917_" gradientUnits="userSpaceOnUse" x1="65.1266" y1="95.3888" x2="64.8861" y2="102.843" gradientTransform="matrix(1 0 0 -1 0 149.8898)">
		<stop  offset="0" style="stop-color:#000000;stop-opacity:0.5"/>
		<stop  offset="0.9985" style="stop-color:#D3C0AB;stop-opacity:0"/>
	</linearGradient>
	<path style="fill:url(#SVGID_00000017480101147041171370000002744175838067339917_);" d="M51.61,48.41
		c3.68,0.31,7.35,0.61,11.03,0.92c0.55,0.05,1.12,0.09,1.66,0c0.63-0.1,1.21-0.37,1.78-0.65c1.44-0.7,2.88-1.49,4.47-1.73
		c1.16-0.17,2.35-0.04,3.51,0.09c5.35,0.6,10.84,1.25,15.64,3.7c-5.86-1.23-11.8-2.07-17.77-2.51c-0.65-0.05-1.31-0.09-1.94,0.08
		c-0.58,0.16-1.08,0.49-1.61,0.78c-4.28,2.33-9.49,1.53-14.34,1.05c-3.56-0.35-7.13-0.5-10.71-0.44c-0.53,0.01-4.08,0.22-2.78-0.7
		c1.2-0.84,3.75-0.81,5.16-0.85C47.68,48.09,49.65,48.25,51.61,48.41z"/>
	
		<linearGradient id="SVGID_00000180368213575919065470000002665109264927787706_" gradientUnits="userSpaceOnUse" x1="60.7113" y1="111.6431" x2="60.5534" y2="116.5374" gradientTransform="matrix(1 0 0 -1 0 149.8898)">
		<stop  offset="0" style="stop-color:#000000;stop-opacity:0.5"/>
		<stop  offset="0.9985" style="stop-color:#D3C0AB;stop-opacity:0"/>
	</linearGradient>
	<path style="fill:url(#SVGID_00000180368213575919065470000002665109264927787706_);" d="M75.31,34.44
		c-1.08-0.5-2.42-0.59-3.59-0.74c-1.35-0.18-2.7-0.28-4.05-0.34c-2.74-0.11-5.52-0.09-8.26,0.06c-1.13,0.06-2.18,0.28-3.19,0.8
		c-1.12,0.57-2.19,1.28-3.28,1.91c-1.11,0.64-2.23,1.42-3.48,1.75c-0.74,0.2-1.46,0.15-2.19-0.04c-0.48-0.12-0.96-0.4-1.45-0.25
		c-0.03,0.01-0.05,0.05-0.03,0.08c0.42,0.74,1.9,0.95,2.67,0.98c1.13,0.04,2.19-0.42,3.18-0.92c1.16-0.59,2.29-1.22,3.42-1.87
		c1.16-0.67,2.27-1.35,3.63-1.49c2.63-0.27,5.39-0.17,8.03-0.1c1.36,0.04,2.71,0.11,4.06,0.26c0.79,0.09,1.57,0.2,2.35,0.34
		c0.65,0.12,1.3,0.32,1.96,0.34C75.49,35.21,75.68,34.61,75.31,34.44z"/>
	
		<linearGradient id="SVGID_00000106136633313342741910000016339256812278591923_" gradientUnits="userSpaceOnUse" x1="64.5105" y1="119.8417" x2="64.4137" y2="122.8424" gradientTransform="matrix(1 0 0 -1 0 149.8898)">
		<stop  offset="0" style="stop-color:#000000;stop-opacity:0.5"/>
		<stop  offset="0.9985" style="stop-color:#D3C0AB;stop-opacity:0"/>
	</linearGradient>
	<path style="fill:url(#SVGID_00000106136633313342741910000016339256812278591923_);" d="M71.01,29.07
		c-1.89-1.06-4.17-1.56-6.31-1.79c-1.09-0.12-2.19-0.16-3.28-0.1c-1.17,0.06-2.38,0.24-3.55,0.08c-0.15-0.02-0.23,0.15-0.1,0.25
		c0.92,0.66,1.87,0.6,2.96,0.56c1.09-0.03,2.19-0.01,3.28,0.1c2.34,0.24,4.47,0.96,6.69,1.66C71.14,29.97,71.42,29.3,71.01,29.07z"
		/>
	
		<linearGradient id="SVGID_00000127008801564480660810000008170508840818264991_" gradientUnits="userSpaceOnUse" x1="77.6854" y1="134.8227" x2="77.5827" y2="138.0088" gradientTransform="matrix(1 0 0 -1 0 149.8898)">
		<stop  offset="0" style="stop-color:#000000;stop-opacity:0.5"/>
		<stop  offset="0.9985" style="stop-color:#D3C0AB;stop-opacity:0"/>
	</linearGradient>
	<path style="fill:url(#SVGID_00000127008801564480660810000008170508840818264991_);" d="M80.09,11.83c-1,0.36-1.96,0.86-2.92,1.3
		c-0.46,0.21-0.92,0.43-1.38,0.64c-0.43,0.2-1.08,0.42-1.3,0.88c-0.09,0.18-0.02,0.41,0.19,0.47c0.51,0.14,1.08-0.21,1.54-0.41
		c0.47-0.2,0.93-0.41,1.4-0.61c0.97-0.41,1.98-0.76,2.92-1.22C81.13,12.61,80.72,11.6,80.09,11.83z"/>
	
		<linearGradient id="SVGID_00000015352246598098111710000018075519811354850208_" gradientUnits="userSpaceOnUse" x1="89.8084" y1="51.9114" x2="89.697" y2="55.3647" gradientTransform="matrix(1 0 0 -1 0 149.8898)">
		<stop  offset="0" style="stop-color:#000000;stop-opacity:0.5"/>
		<stop  offset="0.9985" style="stop-color:#D3C0AB;stop-opacity:0"/>
	</linearGradient>
	<path style="fill:url(#SVGID_00000015352246598098111710000018075519811354850208_);" d="M92.67,96.85
		c-0.54-0.26-1.24-0.19-1.83-0.23c-0.54-0.04-1.06-0.14-1.57-0.32c-0.9-0.32-1.67-0.95-2.34-1.62c-0.15-0.15-0.44,0-0.36,0.21
		c0.37,1.04,1.19,1.85,2.17,2.34c0.53,0.27,1.1,0.42,1.69,0.5c0.34,0.05,0.69,0.08,1.03,0.11c0.36,0.03,0.72,0.1,1.08,0.03
		C92.99,97.77,93.09,97.06,92.67,96.85z"/>
	
		<linearGradient id="SVGID_00000028321539921993257710000008322598598442698419_" gradientUnits="userSpaceOnUse" x1="83.747" y1="43.0245" x2="83.5839" y2="48.0786" gradientTransform="matrix(1 0 0 -1 0 149.8898)">
		<stop  offset="0" style="stop-color:#000000;stop-opacity:0.5"/>
		<stop  offset="0.9985" style="stop-color:#D3C0AB;stop-opacity:0"/>
	</linearGradient>
	<path style="fill:url(#SVGID_00000028321539921993257710000008322598598442698419_);" d="M88.66,105.77
		c-0.34-0.26-0.73-0.35-1.11-0.52c-0.39-0.18-0.76-0.39-1.12-0.6c-0.79-0.45-1.58-0.85-2.46-1.09c-0.87-0.23-1.77-0.35-2.65-0.55
		c-0.41-0.09-0.8-0.21-1.19-0.36c-0.42-0.17-0.77-0.42-1.16-0.63c-0.3-0.16-0.67,0.17-0.48,0.48c0.45,0.72,1.32,1.15,2.09,1.44
		c0.92,0.35,1.88,0.48,2.82,0.74c0.92,0.25,1.71,0.68,2.53,1.17c0.75,0.44,1.72,1.1,2.63,0.84
		C88.98,106.54,88.98,106.01,88.66,105.77z"/>
	
		<linearGradient id="SVGID_00000038397428074336001890000017437016086236481695_" gradientUnits="userSpaceOnUse" x1="100.2162" y1="61.3824" x2="100.1673" y2="62.8979" gradientTransform="matrix(1 0 0 -1 0 149.8898)">
		<stop  offset="0" style="stop-color:#000000;stop-opacity:0.5"/>
		<stop  offset="0.9985" style="stop-color:#D3C0AB;stop-opacity:0"/>
	</linearGradient>
	<path style="fill:url(#SVGID_00000038397428074336001890000017437016086236481695_);" d="M103.69,86.98
		c-0.38-0.17-0.64-0.07-1.02,0.03c-0.27,0.07-0.55,0.12-0.82,0.16c-0.56,0.09-1.13,0.13-1.7,0.15c-1.21,0.06-2.37,0.15-3.52,0.54
		c-0.28,0.1-0.26,0.57,0.07,0.55c1.2-0.1,2.42,0.05,3.63,0.06c0.6,0.01,1.21,0,1.8-0.07c0.55-0.07,1.47-0.14,1.75-0.68
		C104.01,87.49,103.97,87.1,103.69,86.98z"/>
	
		<linearGradient id="SVGID_00000113344160568714006610000016809407218231887520_" gradientUnits="userSpaceOnUse" x1="38.9859" y1="51.492" x2="38.8839" y2="54.6547" gradientTransform="matrix(1 0 0 -1 0 149.8898)">
		<stop  offset="0" style="stop-color:#000000;stop-opacity:0.5"/>
		<stop  offset="0.9985" style="stop-color:#D3C0AB;stop-opacity:0"/>
	</linearGradient>
	<path style="fill:url(#SVGID_00000113344160568714006610000016809407218231887520_);" d="M41.46,95.29
		c-0.22-0.17-0.59-0.18-0.79,0.05c-0.24,0.27-0.45,0.57-0.74,0.77c-0.33,0.23-0.7,0.42-1.07,0.58c-0.4,0.18-0.81,0.35-1.22,0.52
		c-0.49,0.2-0.91,0.49-1.33,0.8c-0.19,0.14-0.15,0.48,0.13,0.47c0.53-0.02,1.07-0.07,1.57-0.24c0.47-0.16,0.93-0.32,1.39-0.51
		c0.41-0.17,0.82-0.36,1.19-0.61c0.38-0.26,0.83-0.61,1.02-1.04C41.74,95.8,41.72,95.49,41.46,95.29z"/>
	<g>
		
			<linearGradient id="SVGID_00000140731808934410435380000011123744866087993984_" gradientUnits="userSpaceOnUse" x1="41.9185" y1="47.6667" x2="41.9175" y2="47.6959" gradientTransform="matrix(1 0 0 -1 0 149.8898)">
			<stop  offset="0" style="stop-color:#000000;stop-opacity:0.5"/>
			<stop  offset="0.9985" style="stop-color:#D3C0AB;stop-opacity:0"/>
		</linearGradient>
		<path style="fill:url(#SVGID_00000140731808934410435380000011123744866087993984_);" d="M41.91,102.22
			C41.91,102.22,41.92,102.22,41.91,102.22C41.94,102.17,41.92,102.2,41.91,102.22z"/>
		
			<linearGradient id="SVGID_00000163073363367626188100000001980317181868387750_" gradientUnits="userSpaceOnUse" x1="42.2136" y1="46.1242" x2="42.117" y2="49.1204" gradientTransform="matrix(1 0 0 -1 0 149.8898)">
			<stop  offset="0" style="stop-color:#000000;stop-opacity:0.5"/>
			<stop  offset="0.9985" style="stop-color:#D3C0AB;stop-opacity:0"/>
		</linearGradient>
		<path style="fill:url(#SVGID_00000163073363367626188100000001980317181868387750_);" d="M42.66,100.75
			c-0.23,0.01-0.46,0.16-0.52,0.39c-0.03,0.14-0.04,0.3-0.05,0.44c0,0.02-0.01,0.04-0.01,0.06c-0.01,0.06-0.02,0.12-0.04,0.18
			c-0.03,0.11-0.06,0.22-0.1,0.33c-0.01,0.02-0.03,0.06-0.03,0.08c0-0.01,0-0.01,0.01-0.02c-0.03,0.05-0.05,0.11-0.08,0.16
			c-0.1,0.2-0.19,0.4-0.33,0.58c-0.07,0.09-0.11,0.19-0.16,0.29c-0.06,0.11-0.08,0.2-0.16,0.29c-0.09,0.11-0.01,0.29,0.15,0.25
			c0.05-0.01,0.1-0.03,0.15-0.04c0.07-0.01,0.13-0.01,0.2-0.03c0.16-0.05,0.3-0.11,0.43-0.22c0.22-0.17,0.42-0.38,0.58-0.61
			c0.15-0.23,0.27-0.5,0.35-0.76c0.1-0.31,0.17-0.65,0.13-0.98C43.14,100.93,42.87,100.74,42.66,100.75z"/>
	</g>
	
		<linearGradient id="SVGID_00000005259680334972619520000012671604265013854858_" gradientUnits="userSpaceOnUse" x1="60.2501" y1="44.6764" x2="59.5389" y2="30.2494" gradientTransform="matrix(1 0 0 -1 0 149.8898)">
		<stop  offset="0" style="stop-color:#000000;stop-opacity:0.5"/>
		<stop  offset="0.9985" style="stop-color:#D3C0AB;stop-opacity:0"/>
	</linearGradient>
	<path style="fill:url(#SVGID_00000005259680334972619520000012671604265013854858_);" d="M45.71,110.93
		c0.94,0.27,1.67,0.99,2.46,1.56s1.81,1.03,2.73,0.7c0.36-0.13,0.68-0.38,1.03-0.54c1.34-0.6,2.87,0.17,4.12,0.96
		c0.17,0.11,0.39,0.22,0.57,0.13c0.12-0.06,0.19-0.2,0.26-0.32c0.4-0.66,1.26-0.92,2.02-0.78c0.75,0.14,1.41,0.62,1.94,1.17
		c0.34,0.36,0.7,0.78,1.19,0.84c0.63,0.08,1.14-0.44,1.61-0.86s1.19-0.78,1.69-0.4c-0.08,0.88-0.03,2,0.79,2.35
		c0.38,0.16,0.81,0.09,1.21,0.01c1.48-0.27,2.95-0.55,4.43-0.82c0.25-0.05,0.53-0.09,0.75,0.05c0.61,0.4-0.15,1.38,0.08,2.08
		c0.23,0.74,1.53,1.09,1.23,1.8c-0.09,0.21-0.3,0.33-0.5,0.44c-2.01,1.06-4.22,1.73-6.47,2.03c-1.02,0.14-2.06,0.22-3.07,0.2
		c-1.06-0.02-2.08,0.46-3.14,0.32c-0.88-0.11-1.61-0.64-2.36-1.07c-0.77-0.44-1.58-0.6-2.39-0.94c-1.8-0.75-3.5-1.72-5.06-2.89
		C48.97,115.61,45.25,113.7,45.71,110.93z"/>
	<path class="st22" d="M61.92,84.06c-0.34-0.47-0.61-0.99-0.85-1.51c0.04-0.13,0.05-0.27-0.01-0.43c-0.3-0.82-0.6-1.64-0.9-2.46
		c-0.05-0.23-0.1-0.45-0.14-0.68c-0.05-0.32-0.09-0.64-0.12-0.97c0.11-0.1,0.18-0.23,0.14-0.41c-0.11-0.47-0.25-0.94-0.27-1.43
		c0-0.1,0.01-0.2,0.02-0.3c0.12-0.06,0.23-0.15,0.27-0.29c0.1-0.32,0.09-0.71,0.06-1.04c-0.02-0.16-0.04-0.32-0.09-0.48
		c-0.01-0.03-0.02-0.06-0.03-0.1c0.01-0.01,0.02-0.02,0.03-0.03c0.42-0.27,0.31-1.11-0.28-1.04c-1.71,0.2-3.43,0.18-5.13-0.09
		c-0.15-0.02-0.28,0.01-0.4,0.06c-0.03-0.03-0.05-0.06-0.08-0.08c-0.4-0.33-0.96,0.07-0.72,0.56c0.07,0.15,0.14,0.29,0.22,0.44
		c0.06,0.12,0.16,0.18,0.27,0.2c0.09,0.14,0.16,0.28,0.23,0.43c-0.11,0.08-0.19,0.21-0.17,0.38c0.37,3.39-0.02,6.78-1.15,10
		c-0.15,0.68,0.81,0.93,1.03,0.28c0.48-2.07,2.67-3.05,4.5-2.3c0.24,0.24,0.55,0.41,0.92,0.5c0.15,0.04,0.28,0.02,0.39-0.02
		c0.52,0.44,0.99,0.94,1.43,1.47C61.47,85.16,62.28,84.55,61.92,84.06z"/>
	<path class="st23" d="M90.23,69.04c-0.16-0.28-0.6-0.35-0.89-0.39c-0.3-0.05-0.6-0.06-0.9-0.01c-0.27,0.04-0.54,0.11-0.8,0.2
		c-4.1-0.27-8.23-0.15-12.34,0.04c-0.06-0.09-0.14-0.16-0.26-0.16c-1.38,0.01-2.8,0.25-4.17,0.39c-1.64,0.1-3.27,0.22-4.9,0.35
		c-0.11,0-0.22,0.01-0.33,0.01c-0.75-0.14-1.5-0.3-2.24-0.31c-0.1-0.19-0.28-0.34-0.57-0.36c-2.81-0.18-5.66-0.02-8.48,0.03
		c-0.3,0.01-0.49,0.17-0.58,0.39c-4.14-0.41-8.21-1.27-12.32-1.9c-2.26-0.35-4.54-0.62-6.83-0.68c-2.08-0.05-4.59-0.12-6.47,0.85
		c-0.31,0.16-0.13,0.57,0.16,0.6c1.16,0.11,2.29-0.09,3.45-0.14c1.1-0.05,2.21-0.04,3.31,0c2.33,0.1,4.63,0.43,6.93,0.81
		c2.92,0.5,5.83,1.07,8.76,1.52c0.03,0.03,0.05,0.06,0.09,0.08c0.22,0.14,0.43,0.26,0.65,0.37c0.65,2.28,3.23,2.14,5.11,2
		c0.93-0.07,2.12-0.01,3.16-0.23c0.18,0.18,0.46,0.25,0.7,0.02c0.21-0.19,0.43-0.38,0.65-0.57c0.02-0.01,0.03-0.03,0.05-0.04
		c0.21-0.17,0.42-0.32,0.64-0.47c0.68-0.19,1.38-0.33,2.05-0.45c0.54-0.05,1.09-0.09,1.63-0.14c0.43-0.02,0.86-0.04,1.28-0.11
		c2.32-0.18,4.65-0.35,6.97-0.52c4.8-0.35,9.63-0.47,14.42-0.98c0.02,0,0.03-0.02,0.05-0.03c0.07,0.01,0.15,0.02,0.22,0.03
		c0.24,0.06,0.49,0.11,0.74,0.17c0.12,0.03,0.25,0.06,0.37,0.1c0.16,0.05,0.3,0.1,0.47,0.05C90.23,69.5,90.35,69.26,90.23,69.04z"/>
	<path class="st24" d="M55.9,70.39c-0.3-0.25-0.65-0.45-1.05-0.51c-0.39-0.07-0.8-0.06-1.17,0.09c-0.22,0.08-0.38,0.23-0.41,0.47
		c-0.01,0.1,0,0.2,0.04,0.29c0.05,0.12,0.13,0.19,0.23,0.27c0.02,0.01,0.04,0.02,0.06,0.03c0.01,0.01,0.01,0.01,0.01,0.02
		c0.03,0.03,0.05,0.05,0.08,0.07c0.09,0.07,0.19,0.15,0.29,0.21c0.17,0.09,0.36,0.16,0.55,0.19c0.43,0.06,0.88,0.01,1.25-0.24
		c0.15-0.1,0.25-0.23,0.27-0.42C56.08,70.71,56.04,70.51,55.9,70.39z"/>
	<path class="st24" d="M60.03,70.17c-0.09-0.21-0.29-0.35-0.52-0.35c-0.34,0-0.68,0.05-1,0.14c-0.01,0-0.02,0.01-0.04,0.02
		c-0.03,0.01-0.05,0-0.08,0.01c-0.08,0.02-0.14,0.06-0.22,0.09c-0.01,0-0.03,0-0.04,0c-0.05,0.01-0.1,0.02-0.15,0.03
		c-0.06,0.02-0.12,0.02-0.18,0.05c-0.12,0.05-0.21,0.12-0.28,0.22c-0.12,0.06-0.22,0.14-0.25,0.27c-0.04,0.19,0.03,0.39,0.2,0.5
		c-0.01,0,0,0-0.01-0.01l0.01,0.01c0.01,0,0.01,0.01,0.01,0.02c0.02,0.01,0.02,0.01,0.02,0.01l0,0c0.08,0.1,0.17,0.19,0.3,0.23
		c0.18,0.06,0.39,0.08,0.57,0.07c0.19-0.01,0.39-0.03,0.57-0.09c0.36-0.11,0.71-0.32,0.96-0.61C60.07,70.61,60.13,70.39,60.03,70.17
		z"/>
	<g>
		<g>
			<path d="M53.96,84.31c0.72-1.47,2.29-2.51,3.96-2.32c0.81,0.09,1.49,0.49,1.97,1.13c0.5,0.66,0.89,1.37,1.63,1.79
				c0.56,0.32,1.06-0.54,0.5-0.86c-0.8-0.46-1.13-1.41-1.78-2.04c-0.69-0.67-1.63-1.01-2.58-1.04c-1.92-0.08-3.75,1.13-4.58,2.83
				C52.81,84.38,53.67,84.89,53.96,84.31L53.96,84.31z"/>
		</g>
	</g>
	
		<linearGradient id="SVGID_00000111912734229735934740000008493135945710712990_" gradientUnits="userSpaceOnUse" x1="70.8395" y1="53.8392" x2="94.2715" y2="104.891" gradientTransform="matrix(1 0 0 -1 0 149.8898)">
		<stop  offset="3.513558e-03" style="stop-color:#000000"/>
		<stop  offset="0.1944" style="stop-color:#060606;stop-opacity:0.9425"/>
		<stop  offset="0.4574" style="stop-color:#171718;stop-opacity:0.8634"/>
		<stop  offset="0.7609" style="stop-color:#333435;stop-opacity:0.772"/>
		<stop  offset="1" style="stop-color:#4E4F51;stop-opacity:0.7"/>
	</linearGradient>
	<path style="fill:url(#SVGID_00000111912734229735934740000008493135945710712990_);" d="M60.38,77.79
		c0.36,2.67,0.99,4.89,2.47,7.38c1.21,2.03,2.42,4.08,4.01,5.83c0.94,1.03,2.04,1.97,3.36,2.42c0.7,0.24,1.44,0.33,2.18,0.42
		c4.49,0.49,9.17,0.5,13.52-0.87c4.12-1.29,7.51-4.74,10.14-8.11c1.4-1.79,2.49-3.89,2.79-6.14c0.13-0.94,0.11-1.9,0.1-2.85
		c-0.02-1.6,0.25-3.39-1.06-4.62c-0.82-0.77-2.01-0.96-3.12-1.09c-4.58-0.53-9.35-0.78-13.94-0.33c-4.47,0.44-9.03,0.19-13.53,0.47
		c-3.85,0.24-7.55,1.6-7.09,6.14C60.27,76.92,60.32,77.36,60.38,77.79z"/>
	
		<linearGradient id="SVGID_00000081622879269715180150000013886066713271259794_" gradientUnits="userSpaceOnUse" x1="36.5071" y1="68.5165" x2="52.3965" y2="90.2796" gradientTransform="matrix(1 0 0 -1 0 149.8898)">
		<stop  offset="3.513558e-03" style="stop-color:#000000"/>
		<stop  offset="0.1944" style="stop-color:#060606;stop-opacity:0.9425"/>
		<stop  offset="0.4574" style="stop-color:#171718;stop-opacity:0.8634"/>
		<stop  offset="0.7609" style="stop-color:#333435;stop-opacity:0.772"/>
		<stop  offset="1" style="stop-color:#4E4F51;stop-opacity:0.7"/>
	</linearGradient>
	<path style="fill:url(#SVGID_00000081622879269715180150000013886066713271259794_);" d="M28.43,88.52
		c1.54,1.17,3.36,1.92,5.18,2.56c4.32,1.51,8.94,2.49,13.48,1.85c0.88-0.12,1.78-0.32,2.48-0.86c0.73-0.57,1.15-1.44,1.5-2.3
		c0.93-2.31,1.5-4.74,2.02-7.17c0.69-3.22,1.26-6.72-0.14-9.71c-0.34-0.72-0.79-1.4-1.43-1.88c-0.92-0.7-2.11-0.92-3.25-1.12
		c-1.19-0.21-2.38-0.42-3.58-0.63c-5.74-1.01-11.58-2.02-17.37-1.31c-0.98,0.12-2.02,0.32-2.73,1.01c-0.93,0.9-1.03,2.34-1.02,3.63
		C23.6,78.19,23.51,84.8,28.43,88.52z"/>
	<path class="st27" d="M116,31.05c-0.25-0.64-0.5-1.27-0.89-1.86c-0.65-1-1.36-1.95-2.1-2.88c-1.38-1.73-2.95-3.31-4.67-4.71
		c-1.76-1.43-3.59-2.66-5.65-3.63c-1.14-0.54-2.31-1.01-3.5-1.43c-1.26-0.44-2.76-1.04-4.11-0.9c-1.29,0.13-1.96,1.65-1.04,2.54
		c-0.01,0-0.01,0.01-0.02,0.01c0.06,0.06,0.14,0.1,0.21,0.15c0.04,0.03,0.06,0.06,0.09,0.08c0.09,0.05,0.16,0.13,0.23,0.19
		c-0.31,0.44-0.45,1-0.27,1.64c0.43,1.5,0.86,3.01,1.28,4.51c0.28,0.99,0.42,2.09,0.75,3.09c0.24,2.63,1.67,5.09,3.97,6.46
		c0.54,0.49,1.22,0.83,1.97,0.99c2.37,0.49,4.87,0.66,7.28,0.7c1.75,0.02,4.42,0.22,5.86-1.01c0.29-0.08,0.56-0.23,0.78-0.48
		c0.15-0.16,0.29-0.33,0.44-0.5C117.62,32.87,117.03,31.51,116,31.05z"/>
	<path class="st27" d="M81.66,17.24c-0.05-1.68-0.33-3.37-1.68-4.52s-3.1-1.27-4.79-1.43c-3.55-0.34-7.08-0.61-10.65-0.75
		c-0.53,0.02-1.01,0.23-1.37,0.57c-0.36-0.05-0.71-0.07-1.07-0.04c-1.27,0.1-2.68,0.96-2.66,2.39s1.96,2.5,2.96,3.26
		c0.38,0.29,0.78,0.63,1.2,0.97c0.1,0.25,0.25,0.48,0.46,0.65c2.26,1.84,4.76,3,7.69,3.21c2.71,0.2,5.56-0.54,7.79-2.08
		c0.08-0.06,0.15-0.12,0.22-0.18C80.74,19.2,81.64,18.53,81.66,17.24z"/>
	<path class="st27" d="M55.29,15.27c-0.32-1.35-1.33-2.48-2.72-2.74c-1.5-0.27-3.01,0.45-4.34,1.06c-1.12,0.51-2.19,1.12-3.26,1.74
		c-1.27,0.74-2.09,1.68-2.81,2.95c-0.35,0.62-0.71,1.25-1.05,1.9c-0.31,0.15-0.56,0.42-0.66,0.79c-0.1,0.39-0.39,0.7-0.53,1.07
		c-0.11,0.27-0.2,0.56-0.3,0.83c-0.25,0.69-0.5,1.38-0.75,2.08c-0.48,1.34-0.94,2.68-1.34,4.05c-0.37,1.26,1.2,2.67,2.36,1.82
		c1.88-1.37,3.99-2.4,6.09-3.38c0.96-0.44,1.92-0.85,2.9-1.26l0,0c0.75-0.03,1.49-0.15,2.22-0.43c1.33-0.51,2.52-1.33,3.28-2.56
		c0.78-1.26,0.82-2.76,0.95-4.19C55.45,17.78,55.57,16.48,55.29,15.27z"/>
	<g>
		<g>
			<path d="M65.97,120.69c-0.9,0.13-1.84,0.21-2.72,0.43c-0.81,0.21-1.59,0.52-2.44,0.39c-1.66-0.25-2.41-1.88-3.87-2.51
				c-0.69-0.3-1.43-0.43-2.12-0.72c-0.82-0.34-1.63-0.75-2.44-1.13c-0.69-0.32-1.39-0.67-2-1.14c-0.7-0.54-1.24-1.26-1.75-1.97
				c-1.87-2.57-3.8-5.21-6.24-7.27s-5.31-3.51-7.77-5.54c-0.66-0.55-1.29-1.13-1.87-1.77c-0.28-0.32-0.58-0.62-0.66-1.05
				c-0.08-0.42-0.07-0.87-0.11-1.3c-0.17-2.2-0.33-4.39-0.5-6.59c-0.1-1.28-2.1-1.29-2,0c0.15,2.03,0.31,4.07,0.46,6.1
				c0.07,0.87,0.02,1.87,0.32,2.7c0.3,0.82,0.99,1.51,1.6,2.12c2.4,2.4,5.43,4.01,8.15,5.99c2.72,1.98,4.79,4.74,6.75,7.44
				c1.09,1.49,2.18,2.75,3.84,3.63c1.6,0.84,3.28,1.61,5.01,2.14c0.88,0.27,1.37,0.86,2.05,1.45c0.75,0.66,1.61,1.16,2.6,1.34
				c1.06,0.2,2.04,0.02,3.07-0.27c1.03-0.29,2.1-0.41,3.16-0.56c0.54-0.07,0.83-0.76,0.7-1.23
				C67.04,120.81,66.51,120.61,65.97,120.69L65.97,120.69z"/>
		</g>
	</g>
	<g>
		<g>
			<path d="M31.42,66.84c0.13-3.85,1.38-7.55,1.56-11.39c0.16-3.19,0.15-6.44,1.01-9.54c0.44-1.56,1.1-3.05,2.08-4.35
				c0.52-0.69,1.17-1.28,1.68-1.98c0.56-0.77,0.77-1.65,0.87-2.58c0.22-1.99,0.29-4,0.43-5.99c0.13-1.95,0.16-3.95,0.52-5.87
				c0.6-3.15,2.35-5.95,4.75-8.06c1.27-1.11,2.74-1.99,4.32-2.57c1.6-0.59,3.28-0.96,4.93-1.36c1.84-0.45,3.63-1.04,5.52-1.25
				c1.94-0.22,3.89-0.22,5.83-0.16c4,0.12,7.99,0.48,11.95,1.09c3.99,0.61,7.95,1.43,11.89,2.34c3.72,0.85,7.46,1.69,11.07,2.95
				c3.39,1.19,6.58,2.86,9.29,5.25c2.52,2.23,4.59,4.89,6.33,7.76c1.96,3.23,3.33,6.72,4.98,10.1c1.66,3.4,3.56,6.68,3.76,10.56
				c0.19,3.86-0.78,7.7-0.39,11.56c0.2,1.94,0.74,3.83,1.22,5.72c0.48,1.87,0.97,3.75,1.32,5.65c0.69,3.7,0.71,7.44-0.4,11.06
				c-0.54,1.74-1.31,3.38-2.28,4.93c-0.88,1.41-1.69,2.84-2.33,4.38c-0.66,1.58-1,3.21-1.38,4.86c-0.42,1.85-1.13,3.62-1.67,5.43
				c-0.55,1.87-0.79,3.81-0.97,5.74c-0.19,2-0.22,4.02,0.15,6c0.17,0.92,0.38,1.86,0.69,2.74c0.27,0.77,0.66,1.48,0.98,2.22
				c0.21,0.5,0.94,0.61,1.37,0.36c0.51-0.3,0.57-0.87,0.36-1.37c-0.32-0.75-0.71-1.46-0.93-2.26c-0.27-0.96-0.52-1.94-0.65-2.93
				c-0.25-2.01-0.06-4.07,0.18-6.07c0.23-1.95,0.69-3.78,1.31-5.64c0.31-0.94,0.63-1.87,0.89-2.82c0.24-0.88,0.39-1.78,0.61-2.67
				c0.38-1.57,0.93-3.08,1.69-4.52c0.83-1.59,1.89-3.04,2.66-4.66c1.64-3.44,2.41-7.24,2.2-11.04c-0.22-3.96-1.34-7.79-2.29-11.62
				c-0.48-1.93-0.84-3.8-0.81-5.8c0.03-1.94,0.27-3.87,0.41-5.81c0.14-1.96,0.15-3.94-0.21-5.88c-0.36-1.9-1.07-3.71-1.89-5.45
				c-0.84-1.79-1.79-3.51-2.62-5.31c-0.85-1.86-1.66-3.75-2.6-5.58c-3.19-6.21-7.75-11.86-14.09-15.03
				c-3.42-1.71-7.11-2.76-10.81-3.67c-3.96-0.98-7.95-1.89-11.96-2.65c-4.09-0.78-8.23-1.39-12.38-1.7
				c-3.97-0.3-8.05-0.52-11.99,0.14c-1.84,0.3-3.62,0.89-5.43,1.33c-1.71,0.41-3.41,0.85-5.03,1.55c-3.14,1.35-5.82,3.79-7.57,6.72
				c-0.85,1.42-1.49,2.98-1.83,4.6c-0.42,1.96-0.47,3.99-0.6,5.97c-0.14,2.06-0.27,4.13-0.43,6.19c-0.07,0.94-0.27,1.68-0.9,2.4
				c-0.6,0.68-1.21,1.34-1.72,2.09c-1.9,2.78-2.55,6.15-2.82,9.45c-0.14,1.65-0.18,3.3-0.26,4.95c-0.09,1.94-0.46,3.84-0.82,5.75
				c-0.36,1.9-0.69,3.81-0.75,5.74C29.37,68.13,31.37,68.13,31.42,66.84L31.42,66.84z"/>
		</g>
	</g>
	<g>
		<g>
			<path d="M53.58,67.67c-5.36-0.63-10.73-1.39-16.11-1.81c-2.59-0.2-5.21-0.26-7.79,0.06c-1.24,0.15-2.49,0.36-3.69,0.7
				c-1.09,0.31-2.09,0.85-2.6,1.91c-0.5,1.04-0.52,2.22-0.56,3.35c-0.04,1.31-0.03,2.63,0.04,3.94c0.13,2.53,0.4,5.1,0.89,7.59
				c0.44,2.28,1.42,4.33,3.22,5.84c1.7,1.42,3.73,2.33,5.81,3.03c5.41,1.84,11.25,2.22,16.87,1.24c0.53-0.09,0.83-0.75,0.7-1.23
				c-0.15-0.56-0.7-0.79-1.23-0.7c-4.59,0.8-9.34,0.57-13.83-0.64c-3.72-1-8.07-2.63-9.28-6.69c-0.65-2.18-0.85-4.54-1.04-6.8
				c-0.19-2.31-0.37-4.77-0.06-7.08c0.13-0.95,0.49-1.5,1.42-1.79c1.08-0.34,2.22-0.55,3.35-0.69c2.39-0.3,4.81-0.27,7.2-0.1
				c5.58,0.38,11.15,1.2,16.71,1.85c0.54,0.06,1-0.5,1-1C54.58,68.08,54.12,67.73,53.58,67.67L53.58,67.67z"/>
		</g>
	</g>
	<g>
		<g>
			<path d="M53.58,69.67c8.28,0.51,16.59-0.24,24.87-0.39c4.52-0.09,8.97,0.14,13.45,0.77c1.06,0.15,2.12,0.28,3.17,0.46
				c0.71,0.13,1.5,0.28,2.1,0.72c0.71,0.53,0.81,1.4,0.82,2.24c0.01,0.97-0.05,1.95-0.17,2.91c-0.44,3.78-1.76,7.76-4.26,10.68
				c-2.24,2.61-5.29,4.25-8.58,5.13c-3.39,0.91-6.93,1.07-10.42,0.9c-0.85-0.04-1.7-0.1-2.55-0.18c-0.84-0.08-1.57-0.13-2.29-0.6
				c-0.77-0.49-1.4-1.19-2-1.87c-0.77-0.87-1.53-1.76-2.29-2.64c-1.47-1.7-2.87-3.54-4.7-4.87c-1.64-1.2-3.9-1.88-5.76-0.75
				c-1.57,0.96-2.31,2.73-3.01,4.34c-0.47,1.09-0.97,2.16-1.51,3.21c-0.45,0.88-0.86,1.98-1.61,2.65c-0.53,0.47-1,0.46-1.67,0.54
				c-0.54,0.06-1,0.42-1,1c0,0.49,0.46,1.06,1,1c0.81-0.09,1.57-0.09,2.3-0.52c0.93-0.56,1.48-1.36,1.99-2.29
				c1.1-2,1.93-4.11,2.94-6.14c0.36-0.72,0.78-1.49,1.45-1.96c0.8-0.57,1.78-0.46,2.64-0.09c2,0.88,3.42,2.86,4.81,4.47
				c0.86,0.99,1.72,1.98,2.57,2.98c0.63,0.73,1.27,1.47,2.03,2.09c0.77,0.63,1.62,1.16,2.61,1.31c0.91,0.14,1.84,0.2,2.76,0.27
				c3.63,0.26,7.31,0.17,10.88-0.58c3.58-0.75,7.05-2.28,9.73-4.82c2.97-2.82,4.72-6.75,5.54-10.72c0.41-2,0.74-4.2,0.52-6.24
				c-0.22-2.08-1.58-3.41-3.56-3.91c-0.89-0.23-1.82-0.32-2.73-0.46c-1.27-0.18-2.54-0.36-3.81-0.51c-2.48-0.3-4.97-0.5-7.47-0.52
				c-8.64-0.08-17.26,0.75-25.9,0.54c-0.96-0.02-1.93-0.06-2.89-0.12C52.3,67.59,52.3,69.59,53.58,69.67L53.58,69.67z"/>
		</g>
	</g>
	<path class="st28" d="M63.57,122.02c0.27,0.66,1.27,1.01,1.77,1.49c0.63,0.6,1.11,1.34,1.51,2.1c0.85,1.61,1.3,3.4,1.84,5.12
		c0.32,1.01,0.72,2.06,1.53,2.73c0.52,0.43,1.17,0.68,1.82,0.87c4.57,1.35,9.56,0.38,13.94-1.52s8.3-4.68,12.4-7.13
		s8.51-4.61,13.25-5.08c2.81-0.28,5.69,0.06,8.36,0.98"/>
	<path d="M54.41,94.81c-0.02-0.27-0.15-0.53-0.36-0.7c-0.46-0.37-1.16-0.26-1.69,0.01s-0.99,0.67-1.55,0.87
		c-0.3,0.11-0.65,0.15-0.94,0c-0.96-0.51,1.02-2.09,1.2-2.82c0.03-0.13-0.32-0.64-0.38-0.75c-0.57,0.16-0.48,1.29-1,1.58
		c-0.73,0.4-2.1,0.88-1.95,2.02c0.21,1.57,2.23,1.93,3.49,1.42c0.39-0.16,0.74-0.39,1.12-0.55c0.47-0.19,0.97-0.28,1.48-0.33
		c0.15-0.01,0.31-0.03,0.41-0.14c0.04-0.04,0.07-0.09,0.09-0.14C54.4,95.13,54.42,94.97,54.41,94.81z"/>
	<path d="M65.07,93.28c-0.24-0.41-0.75-0.69-1.18-0.82c-0.81-0.25-1.68-0.29-2.52-0.3c-0.36,0-0.79,0.06-0.92,0.39
		c-0.1,0.26,0.04,0.56,0.24,0.75c0.57,0.57,1.45,0.63,2.24,0.7c0.62,0.05,1.24,0.14,1.83,0.33c0.05,0.02,0.11,0.04,0.17,0.03
		c0.1-0.01,0.18-0.12,0.21-0.21C65.26,93.81,65.22,93.52,65.07,93.28z"/>
	<path d="M68.41,94.82c0,0.06,0.03,0.12,0.07,0.17c0.1,0.1,0.27,0.09,0.41,0.08c0.46-0.06,0.92-0.11,1.38-0.17
		c0.25-0.03,0.52-0.08,0.67-0.28c0.12-0.17,0.11-0.41-0.01-0.58c-0.2-0.3-2.34-1.23-2.35-0.55c0,0.05,0.02,0.09,0.04,0.14
		c0.06,0.13,0.11,0.28,0.09,0.42c-0.02,0.17-0.15,0.31-0.23,0.45C68.44,94.61,68.4,94.72,68.41,94.82z"/>
	<g>
		<g>
			<path d="M50.3,92.41c0.87-1.31,1.47-2.79,1.99-4.27c0.61-1.72,1.11-3.49,1.51-5.27c0.73-3.26,1.49-7.3-0.3-10.35
				c-0.76-1.3-1.87-2.32-3.36-2.65c-0.63-0.14-1.26-0.3-1.9-0.44c-3.11-0.67-6.26-1.17-9.42-1.5c-4.88-0.51-9.84-0.6-14.7,0.16
				c-0.63,0.1-0.36,1.06,0.27,0.96c7.4-1.15,15.12-0.37,22.43,1.1c0.86,0.17,1.73,0.36,2.58,0.57c0.82,0.2,1.56,0.39,2.21,1
				c2.65,2.49,2.1,6.65,1.45,9.87c-0.38,1.88-0.87,3.75-1.48,5.57c-0.55,1.64-1.18,3.3-2.14,4.75
				C49.08,92.45,49.94,92.95,50.3,92.41L50.3,92.41z"/>
		</g>
	</g>
	<g>
		<g>
			<path d="M64.69,87.36c-1.71-2.17-2.96-4.69-3.65-7.37c-0.64-2.47-1.11-5.71,0.91-7.7c0.31-0.3,0.67-0.56,1.07-0.73
				c0.12-0.05-0.1,0.02,0,0c0.21-0.04,0.43-0.06,0.65-0.08c0.9-0.11,1.8-0.22,2.7-0.32c6.88-0.75,13.84-1.23,20.76-1
				c3.78,0.13,7.71,0.39,11.3,1.66c0.61,0.21,0.87-0.75,0.27-0.96c-3.32-1.17-6.94-1.48-10.43-1.65c-4.04-0.19-8.1-0.09-12.14,0.14
				c-3.29,0.19-6.58,0.47-9.86,0.83c-0.9,0.1-1.8,0.2-2.7,0.32c-0.85,0.11-1.42,0.29-2.13,0.91c-2.35,2.05-2.14,5.48-1.52,8.24
				c0.69,3.08,2.11,5.96,4.06,8.43C64.38,88.57,65.08,87.86,64.69,87.36L64.69,87.36z"/>
		</g>
	</g>
	<g>
		<g>
			<path d="M52.89,73.2c2.63,0.5,5.25,0.29,7.89,0.01c0.63-0.07,0.64-1.07,0-1c-2.54,0.27-5.09,0.51-7.62,0.03
				C52.53,72.12,52.26,73.08,52.89,73.2L52.89,73.2z"/>
		</g>
	</g>
	<path d="M83.6,57.02c-2.09-0.63-4.12-1.36-6.04-2.13c-1.65-0.66-3.21-1.48-5.16-1.31c-1.93,0.17-3.78,0.83-5.61,1.31
		c-2.04,0.53-4.03,0.8-6.19,0.74c-4.37-0.11-8.78-0.37-13.1-0.85c-11.01-1.22-10.57,1.75-10.57,1.75c2.24-1.63,7.13-1.01,10.41-0.75
		c4.25,0.35,8.52,0.69,12.79,0.85c2.01,0.07,3.96-0.05,5.9-0.49c1.87-0.42,3.66-1.04,5.55-1.41c1-0.19,1.91-0.23,2.88,0.07
		c0.94,0.29,1.81,0.72,2.71,1.08c2.39,0.93,4.86,1.75,7.35,2.52c2.43,0.75,5.03,1.03,7.59,0.46c-1.13,0.01-2.28,0.01-3.35-0.27
		c-0.85-0.22-1.59-0.63-2.43-0.85C85.43,57.49,84.51,57.29,83.6,57.02z"/>
	<path d="M90.22,50.46c-3.05-1.76-6.33-2.72-9.81-3.24c-1.68-0.25-3.38-0.42-5.07-0.55c-1.76-0.14-3.55-0.28-5.31-0.04
		c-1.79,0.25-3.35,1.05-5.03,1.67c-1.8,0.66-3.61,0.68-5.5,0.51c-3.87-0.35-7.72-0.84-11.61-0.9c-1.88-0.03-3.82,0.02-5.67,0.39
		c-1.41,0.28-3.13,0.83-3.95,2.09c-0.02,0.03,0.02,0.06,0.04,0.04c1.38-0.8,2.64-1.36,4.24-1.53c1.71-0.18,3.45-0.14,5.17-0.09
		c3.74,0.11,7.45,0.59,11.17,0.97c1.67,0.17,3.36,0.3,5.01-0.06c1.61-0.35,3.05-1.17,4.61-1.66c1.69-0.53,3.45-0.54,5.2-0.43
		c1.66,0.1,3.31,0.26,4.96,0.47C82.45,48.6,90.74,50.77,90.22,50.46z"/>
	<path d="M76.8,34.73c-1.37-0.41-2.63-1.05-4.05-1.32c-1.22-0.23-2.47-0.3-3.71-0.34c-2.87-0.09-5.79-0.26-8.66-0.12
		c-2.46,0.12-4.85,0.75-6.99,1.99c-1.04,0.6-1.9,1.48-2.95,2.07c-1.36,0.76-2.97,0.42-4.41,0.1c-0.41-0.09-0.59,0.55-0.18,0.64
		C47,38,48.2,38.26,49.39,38.06c1.2-0.2,2.02-0.94,2.95-1.64c2.15-1.61,4.72-2.55,7.38-2.76c2.87-0.23,5.81-0.01,8.69,0.06
		c1.39,0.03,2.78,0.08,4.15,0.33c1.42,0.26,2.68,0.91,4.05,1.32C77.04,35.49,77.21,34.85,76.8,34.73z"/>
	<path d="M75.17,29.87c-2.87,0-5.42-1.38-8.12-2.15c-2.9-0.83-6.02-0.57-9.01-0.59c-0.42,0-0.43,0.66,0,0.66
		c3.13,0.02,6.34-0.22,9.36,0.73c2.56,0.8,5.02,2.01,7.76,2.02C75.6,30.53,75.6,29.87,75.17,29.87z"/>
	<path d="M53.42,12.34c-0.38-0.19-0.72,0.38-0.33,0.57c2.35,1.14,1.96,4.53,1.82,6.7c-0.17,2.54-1.08,4.91-3.68,5.74
		c-1.06,0.34-2.16,0.53-3.22,0.87c-0.29,0.09-0.58,0.21-0.86,0.31c0.81-0.86,1.74-1.61,2.79-2.17c0.38-0.2,0.04-0.77-0.33-0.57
		c-1.48,0.79-2.78,1.91-3.77,3.25c-0.31,0.13-0.62,0.25-0.92,0.39c-2.2,1.01-4.29,2.26-6.36,3.5c-0.36,0.22-0.03,0.79,0.33,0.57
		c2.06-1.23,4.13-2.46,6.31-3.46c-0.08,0.13-0.17,0.25-0.25,0.39c-0.2,0.37,0.37,0.71,0.57,0.33c0.23-0.42,0.49-0.83,0.77-1.21
		c0.03-0.01,0.06-0.03,0.1-0.04c1.26-0.51,2.54-0.89,3.85-1.22c1.12-0.27,2.24-0.59,3.14-1.35c1.86-1.56,2.17-4.13,2.22-6.4
		C55.65,16.34,55.74,13.47,53.42,12.34z"/>
	<path d="M81.1,12.78c-0.21-0.37-0.79-0.03-0.57,0.33c0.68,1.16,1.45,2.51,1.34,3.9c-0.11,1.44-1.29,2.24-2.52,2.74
		c-2.57,1.04-5.5,1.98-8.28,1.3c-2.67-0.65-5.27-2.04-7.57-3.52c-1.08-0.7-2.26-1.43-3.1-2.42c-0.83-0.99-1.23-2.71,0.06-3.53
		c0.36-0.23,0.03-0.8-0.33-0.57c-1.66,1.05-1.32,3.25-0.2,4.56c0.82,0.96,1.94,1.68,2.98,2.36c1.17,0.77,2.39,1.46,3.65,2.07
		c2.42,1.18,4.98,2.22,7.73,1.86c1.39-0.18,2.72-0.61,4.03-1.05c0.98-0.33,2-0.67,2.83-1.3C83.49,17.74,82.32,14.87,81.1,12.78z"/>
	<path d="M119.31,37.12c-1.26-0.43-2.48-0.95-3.66-1.53c0.66-0.45,1.27-1.01,1.87-1.51c0.33-0.27-0.14-0.74-0.47-0.47
		c-0.66,0.55-1.33,1.2-2.09,1.65c-1.28-0.66-2.52-1.41-3.7-2.24c-0.35-0.25-0.68,0.33-0.33,0.57c1.05,0.74,2.15,1.4,3.28,2.01
		c-0.09,0.03-0.17,0.08-0.27,0.1c-1.37,0.33-2.78-0.05-4.14-0.25c-2.39-0.36-4.85,0.32-7.19-0.36c-2.03-0.59-3.81-1.96-4.99-3.7
		c-0.57-0.84-1.01-1.77-1.27-2.75c-0.32-1.19-0.4-2.44-0.72-3.63c-0.39-1.47-0.94-2.89-1.16-4.4c-0.23-1.57-0.17-3.15,0.13-4.7
		c0.08-0.42-0.56-0.59-0.64-0.18c-0.55,2.86-0.17,5.52,0.68,8.27c0.77,2.49,0.8,5.17,2.22,7.43c1.11,1.77,2.76,3.2,4.71,3.99
		c2.67,1.08,5.44,0.26,8.2,0.68c1.38,0.21,2.81,0.57,4.2,0.27c0.35-0.08,0.68-0.2,0.99-0.36c1.34,0.68,2.73,1.26,4.16,1.75
		C119.54,37.9,119.72,37.26,119.31,37.12z"/>
	<path d="M47.84,16.87c-1.29-1.4-2.82-2.59-4.5-3.49c-0.37-0.2-0.71,0.37-0.33,0.57c1.64,0.88,3.11,2.02,4.36,3.38
		C47.66,17.65,48.13,17.18,47.84,16.87z"/>
	<path d="M45.54,20.68c-3.07,0.25-6.15-0.15-9.05-1.18c-0.4-0.14-0.57,0.5-0.18,0.64c2.95,1.05,6.1,1.46,9.22,1.2
		C45.96,21.3,45.97,20.64,45.54,20.68z"/>
	<path d="M44.17,23.63c-2.78-0.05-5.55,0.27-8.25,0.96c-0.41,0.1-0.24,0.74,0.18,0.64c2.64-0.67,5.35-0.99,8.07-0.94
		C44.59,24.3,44.59,23.64,44.17,23.63z"/>
	<path d="M43.2,25.86c-2.81,0.49-5.49,1.57-7.85,3.17c-0.35,0.24-0.02,0.81,0.33,0.57c2.32-1.56,4.94-2.62,7.69-3.1
		C43.79,26.42,43.61,25.79,43.2,25.86z"/>
	<path d="M48.21,19.03c-0.01-0.03-0.03-0.07-0.04-0.1c0-0.01-0.01-0.02-0.01-0.03c-0.02-0.03-0.04-0.06-0.06-0.09
		c-0.01-0.01-0.01-0.01-0.02-0.02c-0.03-0.03-0.07-0.06-0.11-0.08c-0.03-0.02-0.07-0.03-0.1-0.04c-0.01,0-0.02-0.01-0.03-0.01
		c-0.04-0.01-0.07-0.01-0.11-0.01c-0.01,0-0.02,0-0.03,0c-0.04,0-0.08,0.01-0.12,0.02c-0.01,0-0.02,0.01-0.03,0.01
		c-0.03,0.01-0.07,0.03-0.1,0.04c-0.02,0.01-0.04,0.03-0.06,0.04c-0.02,0.02-0.05,0.04-0.07,0.06c-0.02,0.01-0.04,0.02-0.05,0.03
		c-0.03,0.03-0.05,0.07-0.07,0.11s-0.03,0.08-0.03,0.13c0,0.01,0,0.01,0,0.01c-0.01,0.03-0.01,0.06-0.01,0.1c0,0.01,0,0.02,0,0.03
		c0,0.04,0.01,0.08,0.02,0.11c0,0.01,0.01,0.02,0.01,0.03c0.03,0.08,0.05,0.11,0.11,0.18c0,0.01,0.01,0.01,0.02,0.02
		c0.03,0.02,0.05,0.04,0.08,0.06c0.04,0.02,0.08,0.04,0.12,0.05c0.01,0.01,0.03,0.01,0.05,0.01c0.04,0.01,0.09,0.02,0.13,0.01
		c0.04,0,0.07-0.01,0.11-0.01c0.01,0,0.01,0,0.02,0c0.01,0,0.01,0,0.02-0.01c0.01,0,0.01-0.01,0.02-0.01c0.01,0,0.02,0,0.02,0
		c0.01,0,0.02,0,0.02-0.01c0.03-0.01,0.07-0.03,0.1-0.04c0.03-0.02,0.06-0.04,0.08-0.06c0.01-0.01,0.01-0.01,0.02-0.02
		c0.02-0.03,0.05-0.06,0.07-0.08c0.01-0.01,0.01-0.02,0.01-0.02c0.01-0.03,0.03-0.07,0.04-0.1c0.01-0.02,0.01-0.05,0.01-0.07
		c0-0.03,0.01-0.06,0.01-0.1C48.22,19.12,48.22,19.07,48.21,19.03z"/>
	<path d="M47.9,21.67c0-0.03-0.01-0.08-0.02-0.11c-0.03-0.07-0.06-0.14-0.12-0.19c-0.03-0.03-0.07-0.05-0.11-0.07
		s-0.08-0.03-0.13-0.03s-0.09,0.01-0.13,0.03c-0.01,0-0.02,0.02-0.03,0.02c-0.04,0-0.08-0.01-0.11,0s-0.05,0.02-0.08,0.03
		c-0.05,0.03-0.09,0.07-0.12,0.12c-0.02,0.03-0.03,0.07-0.04,0.1v0.01c0,0.03-0.01,0.06-0.01,0.09c0,0.01,0,0.01,0,0.02
		c0,0.09,0.02,0.14,0.06,0.22c0.02,0.03,0.05,0.07,0.07,0.09c0.01,0.01,0.01,0.02,0.02,0.02c0.06,0.05,0.11,0.09,0.19,0.11
		c0.07,0.02,0.16,0.02,0.23,0s0.13-0.06,0.19-0.11l0.01-0.01c0.02-0.02,0.04-0.05,0.06-0.07c0.01-0.01,0.01-0.02,0.01-0.02
		c0.01-0.03,0.03-0.07,0.04-0.1c0.01-0.04,0.01-0.08,0.02-0.11C47.9,21.69,47.9,21.68,47.9,21.67z"/>
	<path d="M51.35,22.23c0-0.01,0-0.04-0.01-0.05c0,0,0,0,0-0.01c-0.01-0.02-0.03-0.06-0.03-0.08v-0.01
		c-0.01-0.01-0.02-0.03-0.03-0.04s-0.02-0.03-0.03-0.04c0,0-0.01,0-0.01-0.01c-0.02-0.02-0.05-0.04-0.07-0.06
		c-0.02-0.01-0.04-0.02-0.06-0.03s-0.04-0.02-0.06-0.02s-0.07-0.01-0.09-0.01c0,0,0,0-0.01,0h-0.01c-0.02,0-0.07,0.01-0.09,0.01
		c0,0,0,0-0.01,0c-0.02,0-0.04,0.01-0.05,0.02s-0.03,0.01-0.05,0.02c0,0,0,0-0.01,0c-0.02,0.01-0.05,0.04-0.07,0.05
		c0,0,0,0-0.01,0.01s-0.04,0.06-0.05,0.07l0,0v0.01c-0.01,0.01-0.03,0.07-0.03,0.08l0,0v0.01c0,0.02-0.01,0.04-0.01,0.05
		c0,0-0.01,0.03-0.01,0.05c0,0.02,0,0.04,0.01,0.06c0,0.02,0,0.04,0.01,0.06c0.01,0.02,0.01,0.03,0.02,0.05
		c0.01,0.01,0.01,0.03,0.02,0.05c0.02,0.03,0.04,0.06,0.06,0.08c0,0,0,0.01,0.01,0.01c0.01,0.01,0.03,0.02,0.04,0.03
		c0,0,0.02,0.02,0.04,0.03c0,0,0.01,0,0.01,0.01c0.01,0.01,0.07,0.03,0.08,0.03c0,0,0,0,0.01,0c0.02,0,0.04,0.01,0.05,0.01
		c0.02,0,0.04,0.01,0.05,0.01c0.05,0,0.09-0.01,0.13-0.03c0.04-0.01,0.08-0.04,0.11-0.07l0,0c0.02-0.02,0.04-0.03,0.06-0.05
		c0.04-0.04,0.07-0.09,0.08-0.15v-0.01c0-0.01,0.01-0.07,0.01-0.09c0,0,0,0,0-0.01C51.36,22.27,51.35,22.24,51.35,22.23z"/>
	<path d="M45.55,23.37c-0.01-0.04-0.04-0.08-0.07-0.11s-0.07-0.05-0.11-0.07s-0.08-0.03-0.13-0.03c-0.03,0-0.06,0.01-0.09,0.01
		c-0.06,0.02-0.1,0.04-0.15,0.08c-0.02,0.02-0.03,0.04-0.05,0.07c-0.03,0.05-0.04,0.11-0.05,0.17v0.1c0,0.05,0.01,0.09,0.03,0.13
		c0.01,0.04,0.04,0.08,0.07,0.11s0.07,0.05,0.11,0.07s0.08,0.03,0.13,0.03l0.09-0.01c0.06-0.02,0.1-0.04,0.15-0.08
		c0.02-0.02,0.03-0.04,0.05-0.07c0.03-0.05,0.04-0.11,0.05-0.17v-0.1C45.58,23.45,45.57,23.41,45.55,23.37z"/>
	<path d="M74.08,8.58c-2.56,1.03-4.87,2.6-6.75,4.62c-0.29,0.31,0.18,0.78,0.47,0.47c1.8-1.94,4-3.47,6.46-4.45
		C74.65,9.06,74.48,8.42,74.08,8.58z"/>
	<path d="M67.24,9.06c-1.4,0.88-2.32,2.36-2.51,3.99c-0.02,0.18,0.17,0.33,0.33,0.33c0.2,0,0.31-0.15,0.33-0.33
		c0.16-1.39,1-2.68,2.18-3.42C67.93,9.41,67.6,8.84,67.24,9.06z"/>
	<path d="M82.15,10.95c-2.6,1.02-5.15,2.16-7.65,3.41c-0.38,0.19-0.05,0.76,0.33,0.57c2.45-1.22,4.94-2.34,7.49-3.34
		C82.72,11.43,82.55,10.79,82.15,10.95z"/>
	<path d="M76.84,17.16c-0.75,0.1-1.51,0.2-2.26,0.29c-0.18,0.02-0.33,0.14-0.33,0.33c0,0.16,0.15,0.35,0.33,0.33
		c0.75-0.1,1.51-0.2,2.26-0.29c0.18-0.02,0.33-0.14,0.33-0.33C77.17,17.33,77.02,17.13,76.84,17.16z"/>
	<path d="M72.2,14.96c-0.1-0.15-0.29-0.21-0.45-0.12c-0.69,0.39-1.38,0.79-2.07,1.18c-0.15,0.09-0.21,0.3-0.12,0.45
		c0.1,0.15,0.29,0.21,0.45,0.12c0.69-0.39,1.38-0.79,2.07-1.18C72.23,15.32,72.3,15.11,72.2,14.96z"/>
	<path d="M71.43,17.66c-0.01-0.04-0.04-0.08-0.07-0.11s-0.07-0.05-0.11-0.07s-0.08-0.03-0.13-0.03l-0.09,0.01
		c-0.06,0.02-0.1,0.04-0.15,0.08c-0.02,0.02-0.03,0.04-0.05,0.07c-0.03,0.05-0.04,0.11-0.05,0.17v0.1c0,0.05,0.01,0.09,0.03,0.13
		c0.01,0.04,0.04,0.08,0.07,0.11s0.07,0.05,0.11,0.07s0.08,0.03,0.13,0.03l0.09-0.01c0.06-0.02,0.1-0.04,0.15-0.08
		c0.02-0.02,0.03-0.04,0.05-0.07c0.03-0.05,0.04-0.11,0.05-0.17v-0.1C71.46,17.74,71.45,17.7,71.43,17.66z"/>
	<path d="M66.71,16.33c-0.04-0.06-0.07-0.13-0.11-0.19c-0.02-0.04-0.05-0.07-0.09-0.09c-0.03-0.03-0.07-0.05-0.11-0.06
		s-0.09-0.02-0.13-0.01c-0.04,0-0.08,0.02-0.12,0.04c-0.02,0.02-0.04,0.03-0.07,0.05c-0.04,0.04-0.07,0.09-0.08,0.15
		c0,0.03-0.01,0.06-0.01,0.09c0,0.06,0.02,0.12,0.05,0.17c0.04,0.06,0.07,0.13,0.11,0.19c0.02,0.04,0.05,0.07,0.09,0.09
		c0.03,0.03,0.07,0.05,0.11,0.06s0.09,0.02,0.13,0.01c0.04,0,0.08-0.02,0.12-0.04c0.02-0.02,0.04-0.03,0.07-0.05
		c0.04-0.04,0.07-0.09,0.08-0.15c0-0.03,0.01-0.06,0.01-0.09C66.75,16.44,66.74,16.38,66.71,16.33z"/>
	<path d="M102.05,15.22c-1.66,0.94-3.22,2.04-4.66,3.29c-0.28,0.25,0.08,0.72,0.4,0.52c0.09-0.06,0.18-0.12,0.27-0.17
		c0.06-0.04,0.09-0.08,0.12-0.13c1.31-1.1,2.71-2.09,4.21-2.94C102.76,15.58,102.42,15.01,102.05,15.22z"/>
	<path d="M116.48,20.64c-4.84-0.66-9.76-0.26-14.42,1.23c-0.4,0.13-0.23,0.77,0.18,0.64c4.54-1.45,9.35-1.88,14.07-1.23
		C116.72,21.33,116.9,20.7,116.48,20.64z"/>
	<path d="M117.98,25.31c-2.68,0.45-5.33,1.04-7.95,1.76c-0.41,0.11-0.24,0.75,0.18,0.64c2.62-0.73,5.27-1.31,7.95-1.76
		C118.57,25.88,118.39,25.24,117.98,25.31z"/>
	<path d="M119.15,29.85c-1.84-0.1-3.67-0.13-5.51-0.09c-0.42,0.01-0.43,0.67,0,0.66c1.84-0.04,3.68-0.01,5.51,0.09
		C119.58,30.53,119.58,29.87,119.15,29.85z"/>
	<path d="M121.22,32.77c-2.14,0.84-4.31-0.48-6.4-0.86c-0.42-0.08-0.59,0.56-0.18,0.64c2.22,0.41,4.48,1.75,6.75,0.86
		C121.78,33.25,121.61,32.61,121.22,32.77z"/>
	<path d="M107.66,24.97c-1.55,0.47-2.97,1.36-4.04,2.57c-0.28,0.32,0.18,0.79,0.47,0.47c1.01-1.13,2.3-1.97,3.75-2.41
		C108.24,25.48,108.06,24.84,107.66,24.97z"/>
	<path d="M111.09,28.47c-1.22,0.28-2.39,0.7-3.52,1.24c-0.16,0.08-0.2,0.31-0.12,0.45c0.1,0.16,0.29,0.2,0.45,0.12
		c1.07-0.52,2.2-0.9,3.36-1.17C111.68,29.01,111.5,28.37,111.09,28.47z"/>
	<path d="M101.68,24.74c-0.13-0.13-0.33-0.12-0.47,0c-0.89,0.82-1.57,1.85-1.98,2.99c-0.06,0.17,0.07,0.36,0.23,0.41
		c0.18,0.05,0.35-0.06,0.41-0.23c0.37-1.03,1-1.96,1.81-2.7C101.81,25.09,101.8,24.87,101.68,24.74z"/>
	<path d="M105.39,29.8c-0.85,0.12-1.71,0.24-2.56,0.36c-0.18,0.03-0.27,0.25-0.23,0.41c0.05,0.19,0.23,0.26,0.41,0.23l2.56-0.36
		c0.18-0.03,0.27-0.25,0.23-0.41C105.74,29.84,105.57,29.77,105.39,29.8z"/>
	<path d="M104.1,24.34c-0.42,0-0.43,0.66,0,0.66C104.52,25,104.52,24.34,104.1,24.34z"/>
	<path d="M102.94,27.57c0.01-0.04,0.01-0.09,0-0.13c-0.01-0.04-0.03-0.08-0.05-0.12c-0.05-0.07-0.08-0.1-0.15-0.15
		s-0.16-0.07-0.25-0.07c-0.02,0-0.03,0-0.05,0c-0.04,0-0.09,0.01-0.13,0.02s-0.08,0.03-0.12,0.05c-0.03,0.02-0.06,0.04-0.08,0.06
		c-0.01,0-0.01,0.01-0.02,0.02c-0.02,0.02-0.04,0.05-0.06,0.08c0,0.01-0.01,0.01-0.01,0.02c-0.04,0.08-0.05,0.12-0.06,0.21
		c0,0.01,0,0.02,0,0.02c0,0.03,0.01,0.06,0.01,0.1v0.01c0.01,0.03,0.03,0.07,0.04,0.1c0,0.01,0.01,0.01,0.01,0.02
		c0.02,0.03,0.05,0.07,0.08,0.1c0.03,0.02,0.05,0.04,0.08,0.06c0.01,0,0.01,0.01,0.02,0.01c0.04,0.02,0.08,0.04,0.12,0.05
		c0.01,0,0.02,0,0.02,0c0.04,0.01,0.07,0.01,0.11,0.01c0.01,0,0.02,0,0.03,0c0.04,0,0.07-0.01,0.11-0.02c0.01,0,0.02,0,0.02-0.01
		c0.03-0.01,0.06-0.02,0.09-0.04c0,0,0.01,0,0.01-0.01c0.04-0.02,0.07-0.05,0.1-0.08c0.05-0.06,0.08-0.11,0.11-0.19
		c0.01-0.04,0.02-0.09,0.01-0.13C102.94,27.58,102.94,27.57,102.94,27.57z"/>
	<path d="M99.28,23.56c-0.01-0.04-0.04-0.08-0.07-0.11s-0.07-0.05-0.11-0.07s-0.08-0.03-0.13-0.03c-0.03,0-0.06,0.01-0.09,0.01
		c-0.06,0.02-0.1,0.04-0.15,0.08c-0.02,0.02-0.03,0.04-0.05,0.07c-0.03,0.05-0.04,0.11-0.05,0.17v0.1c0,0.05,0.01,0.09,0.03,0.13
		c0.01,0.04,0.04,0.08,0.07,0.11s0.07,0.05,0.11,0.07s0.08,0.03,0.13,0.03c0.03,0,0.06-0.01,0.09-0.01c0.06-0.02,0.1-0.04,0.15-0.08
		c0.02-0.02,0.03-0.04,0.05-0.07c0.03-0.05,0.04-0.11,0.05-0.17v-0.1C99.31,23.64,99.3,23.6,99.28,23.56z"/>
	<path d="M108.06,32.46c-0.02-0.06-0.04-0.1-0.08-0.15l-0.1-0.1c-0.03-0.03-0.07-0.05-0.11-0.07s-0.08-0.03-0.13-0.03
		c-0.05,0-0.09,0.01-0.13,0.03c-0.04,0.01-0.08,0.04-0.11,0.07c-0.02,0.02-0.03,0.04-0.05,0.07c-0.03,0.05-0.04,0.11-0.05,0.17
		c0,0.03,0.01,0.06,0.01,0.09c0.02,0.06,0.04,0.1,0.08,0.15c0.03,0.03,0.07,0.07,0.1,0.1s0.07,0.05,0.11,0.07s0.08,0.03,0.13,0.03
		c0.05,0,0.09-0.01,0.13-0.03c0.04-0.01,0.08-0.04,0.11-0.07c0.02-0.02,0.03-0.04,0.05-0.07c0.03-0.05,0.04-0.11,0.05-0.17
		C108.06,32.52,108.06,32.49,108.06,32.46z"/>
	<g>
		<g>
			<path d="M76.83,126.42c0.25,0.89-0.12,1.83,0.16,2.72c0.22,0.7,0.96,1.34,1.72,1.05c0.3-0.11,0.17-0.6-0.13-0.48
				c-0.27,0.1-0.54,0.02-0.76-0.16c-0.27-0.22-0.39-0.56-0.43-0.9c-0.1-0.79,0.13-1.58-0.08-2.37
				C77.23,125.97,76.74,126.11,76.83,126.42L76.83,126.42z"/>
		</g>
	</g>
	<g>
		<g>
			<path d="M56.6,111.07c0.09,0.71,0.01,1.43-0.24,2.1c-0.05,0.13,0.05,0.27,0.17,0.31c0.14,0.04,0.26-0.05,0.31-0.17
				c0.27-0.71,0.36-1.48,0.26-2.23c-0.02-0.13-0.1-0.25-0.25-0.25C56.73,110.82,56.58,110.94,56.6,111.07L56.6,111.07z"/>
		</g>
	</g>
	<g>
		<g>
			<path d="M54.58,112.29c0,0.36,0,0.72,0,1.08c0,0.13,0.11,0.26,0.25,0.25s0.25-0.11,0.25-0.25c0-0.36,0-0.72,0-1.08
				c0-0.13-0.11-0.26-0.25-0.25C54.69,112.05,54.58,112.15,54.58,112.29L54.58,112.29z"/>
		</g>
	</g>
	<g>
		<g>
			<path d="M51.05,112.15c-0.05,0.36-0.09,0.72-0.14,1.08c-0.01,0.06,0.03,0.14,0.07,0.18s0.11,0.08,0.18,0.07
				c0.06,0,0.13-0.02,0.18-0.07s0.06-0.11,0.07-0.18c0.05-0.36,0.09-0.72,0.14-1.08c0.01-0.06-0.03-0.14-0.07-0.18
				s-0.11-0.08-0.18-0.07c-0.06,0-0.13,0.02-0.18,0.07C51.07,112.03,51.06,112.08,51.05,112.15L51.05,112.15z"/>
		</g>
	</g>
	<g>
		<g>
			<path d="M59.05,112.36c-0.22,0.64-0.15,1.36,0.17,1.95c0.06,0.12,0.23,0.16,0.34,0.09c0.12-0.07,0.15-0.22,0.09-0.34
				c-0.26-0.48-0.3-1.04-0.12-1.56c0.04-0.13-0.05-0.27-0.17-0.31C59.22,112.15,59.1,112.23,59.05,112.36L59.05,112.36z"/>
		</g>
	</g>
	<g>
		<g>
			<path d="M62.56,112.97c0,0.32,0,0.63,0,0.95c0,0.13,0.11,0.26,0.25,0.25s0.25-0.11,0.25-0.25c0-0.32,0-0.63,0-0.95
				c0-0.13-0.11-0.26-0.25-0.25C62.67,112.72,62.56,112.83,62.56,112.97L62.56,112.97z"/>
		</g>
	</g>
	<g>
		<g>
			<path d="M57.56,115.06c-0.25,0.78-0.18,1.62,0.17,2.36c0.06,0.12,0.23,0.15,0.34,0.09c0.12-0.07,0.15-0.22,0.09-0.34
				c-0.3-0.61-0.33-1.33-0.12-1.97c0.04-0.13-0.05-0.27-0.17-0.31C57.73,114.85,57.6,114.93,57.56,115.06L57.56,115.06z"/>
		</g>
	</g>
	<g>
		<g>
			<path d="M54.43,115.19c-0.17,0.55-0.09,1.18,0.22,1.67c0.07,0.11,0.22,0.17,0.34,0.09c0.11-0.07,0.17-0.22,0.09-0.34
				c-0.03-0.05-0.07-0.11-0.1-0.17c-0.01-0.03-0.03-0.06-0.04-0.09c0.02,0.04-0.01-0.02-0.01-0.03c-0.02-0.06-0.04-0.12-0.06-0.18
				c-0.01-0.03-0.01-0.06-0.02-0.09c0-0.01-0.01-0.08-0.01-0.06c0,0.02-0.01-0.05-0.01-0.06c0-0.03,0-0.06-0.01-0.1
				c0-0.06,0-0.12,0-0.18c0-0.03,0-0.06,0.01-0.08c-0.01,0.05,0.01-0.04,0.01-0.05c0.01-0.06,0.03-0.12,0.05-0.19
				c0.04-0.12-0.05-0.28-0.17-0.31C54.6,114.98,54.47,115.06,54.43,115.19L54.43,115.19z"/>
		</g>
	</g>
	<g>
		<g>
			<path d="M51.65,114.61c-0.32,0.5-0.63,0.99-0.95,1.49c-0.07,0.11-0.03,0.28,0.09,0.34c0.12,0.07,0.27,0.03,0.34-0.09
				c0.32-0.5,0.63-0.99,0.95-1.49c0.07-0.11,0.03-0.28-0.09-0.34C51.87,114.45,51.72,114.49,51.65,114.61L51.65,114.61z"/>
		</g>
	</g>
	<g>
		<g>
			<path d="M49.6,113.78c-0.64,0.92-0.88,2.07-0.67,3.17c0.02,0.13,0.19,0.21,0.31,0.17c0.14-0.04,0.2-0.17,0.17-0.31
				c-0.18-0.97,0.06-1.98,0.62-2.78C50.22,113.77,49.79,113.52,49.6,113.78L49.6,113.78z"/>
		</g>
	</g>
	<g>
		<g>
			<path d="M52.3,117.23c-0.34,0.96-0.19,2.07,0.4,2.91c0.08,0.11,0.22,0.16,0.34,0.09c0.11-0.06,0.17-0.23,0.09-0.34
				c-0.51-0.74-0.64-1.68-0.35-2.52C52.89,117.06,52.41,116.93,52.3,117.23L52.3,117.23z"/>
		</g>
	</g>
	<g>
		<g>
			<path d="M55.26,118.44c-0.2,0.77-0.39,1.55-0.59,2.32c-0.08,0.31,0.4,0.45,0.48,0.13c0.2-0.77,0.39-1.55,0.59-2.32
				C55.82,118.26,55.34,118.13,55.26,118.44L55.26,118.44z"/>
		</g>
	</g>
	<g>
		<g>
			<path d="M56.45,117.92c0.14,0.36,0.29,0.71,0.43,1.07c0.03,0.06,0.05,0.11,0.11,0.15c0.05,0.03,0.13,0.04,0.19,0.03
				c0.12-0.04,0.23-0.18,0.17-0.31c-0.14-0.36-0.29-0.71-0.43-1.07c-0.03-0.06-0.05-0.11-0.11-0.15c-0.05-0.03-0.13-0.04-0.19-0.03
				C56.51,117.65,56.4,117.79,56.45,117.92L56.45,117.92z"/>
		</g>
	</g>
	<g>
		<g>
			<path d="M59.74,118.45c-0.19,0.71-0.5,1.37-0.92,1.98c-0.08,0.11-0.02,0.28,0.09,0.34c0.12,0.07,0.27,0.02,0.34-0.09
				c0.44-0.64,0.77-1.35,0.97-2.09C60.3,118.27,59.82,118.14,59.74,118.45L59.74,118.45z"/>
		</g>
	</g>
	<g>
		<g>
			<path d="M61.4,120.49c-0.28,0.67-0.23,1.44,0.09,2.08c0.06,0.12,0.23,0.15,0.34,0.09c0.12-0.07,0.15-0.22,0.09-0.34
				c-0.27-0.53-0.27-1.14-0.04-1.69c0.05-0.12-0.06-0.27-0.17-0.31C61.56,120.28,61.45,120.37,61.4,120.49L61.4,120.49z"/>
		</g>
	</g>
	<g>
		<g>
			<path d="M61.34,116.35c0,0.95,0.33,1.86,0.91,2.59c0.08,0.11,0.27,0.09,0.35,0c0.1-0.1,0.08-0.25,0-0.35
				c-0.5-0.63-0.77-1.44-0.77-2.24C61.84,116.03,61.34,116.03,61.34,116.35L61.34,116.35z"/>
		</g>
	</g>
	<g>
		<g>
			<path d="M63.83,116.95c0.61,0.78,1.38,1.43,2.24,1.91c0.28,0.16,0.53-0.27,0.25-0.43c-0.83-0.46-1.55-1.08-2.14-1.83
				c-0.08-0.11-0.27-0.09-0.35,0C63.72,116.7,63.74,116.84,63.83,116.95L63.83,116.95z"/>
		</g>
	</g>
	<g>
		<g>
			<path d="M66.7,115.16c0.81,0.65,1.45,1.5,1.82,2.47c0.05,0.13,0.17,0.21,0.31,0.17c0.12-0.03,0.22-0.18,0.17-0.31
				c-0.4-1.05-1.06-1.99-1.94-2.69c-0.11-0.08-0.25-0.1-0.35,0C66.61,114.89,66.59,115.07,66.7,115.16L66.7,115.16z"/>
		</g>
	</g>
	<g>
		<g>
			<path d="M65.12,119.67c0.41,0.18,0.81,0.36,1.22,0.54c0.12,0.05,0.27,0.04,0.34-0.09c0.06-0.11,0.04-0.29-0.09-0.34
				c-0.41-0.18-0.81-0.36-1.22-0.54c-0.12-0.05-0.27-0.04-0.34,0.09C64.97,119.44,64.99,119.62,65.12,119.67L65.12,119.67z"/>
		</g>
	</g>
	<g>
		<g>
			<path d="M69.08,119.32c0.04,0.45,0.09,0.9,0.13,1.35c0.01,0.13,0.11,0.26,0.25,0.25c0.12-0.01,0.26-0.11,0.25-0.25
				c-0.04-0.45-0.09-0.9-0.13-1.35c-0.01-0.13-0.11-0.26-0.25-0.25C69.21,119.08,69.07,119.18,69.08,119.32L69.08,119.32z"/>
		</g>
	</g>
	<g>
		<g>
			<path d="M71.38,118.93c0.02,0.01,0.04,0.02,0.07,0.02c-0.03-0.01,0,0,0.01,0.01c0.04,0.02,0.08,0.04,0.11,0.06
				c0.04,0.02,0.07,0.05,0.1,0.07c0.02,0.02-0.02-0.02,0.01,0.01c0.02,0.02,0.03,0.03,0.05,0.05c0.03,0.03,0.06,0.05,0.08,0.08
				c0.02,0.02,0.03,0.03,0.05,0.05c0.03,0.03-0.01-0.01,0.01,0.01c0.05,0.07,0.1,0.14,0.13,0.22c0.01,0.02,0.02,0.03,0.03,0.05
				c0.03,0.07-0.01-0.04,0.01,0.03c0.01,0.04,0.03,0.07,0.04,0.11s0.02,0.08,0.03,0.12c0,0.02,0.01,0.04,0.01,0.06
				c0.01,0.07,0-0.05,0,0.02c0.01,0.08,0.01,0.17,0,0.25c0,0.01-0.01,0.07,0,0.04c0-0.03-0.01,0.03-0.01,0.03
				c-0.01,0.05-0.02,0.09-0.03,0.13c-0.04,0.13,0.05,0.27,0.17,0.31c0.13,0.04,0.27-0.05,0.31-0.17c0.25-0.83-0.25-1.76-1.06-2.04
				c-0.13-0.04-0.27,0.05-0.31,0.17C71.17,118.76,71.26,118.89,71.38,118.93L71.38,118.93z"/>
		</g>
	</g>
	<g>
		<g>
			<path d="M75.53,119.11c-0.18,0.54-0.36,1.08-0.54,1.62c-0.04,0.12,0.05,0.28,0.17,0.31c0.14,0.03,0.26-0.04,0.31-0.17
				c0.18-0.54,0.36-1.08,0.54-1.62c0.04-0.12-0.05-0.28-0.17-0.31C75.69,118.91,75.57,118.98,75.53,119.11L75.53,119.11z"/>
		</g>
	</g>
	<g>
		<g>
			<path d="M77.02,119.4c0.01,0.04,0.02,0.07,0.03,0.11c0,0.02,0.01,0.04,0.01,0.06c0.01,0.04,0-0.06,0,0.01
				c0.01,0.07,0.01,0.14,0,0.22c0,0.03,0,0.07-0.01,0.1c0.01-0.06,0,0.02-0.01,0.02c0,0.01-0.01,0.03-0.01,0.04
				c-0.02,0.07-0.04,0.15-0.07,0.22c-0.01,0.02-0.01,0.03,0,0c-0.01,0.02-0.02,0.03-0.02,0.05c-0.02,0.03-0.03,0.07-0.05,0.1
				c-0.02,0.03-0.04,0.06-0.06,0.1c-0.01,0.02-0.02,0.03-0.03,0.05c0.01-0.02,0.01-0.01,0,0c-0.05,0.06-0.1,0.11-0.16,0.16
				c-0.01,0.01-0.02,0.02-0.03,0.03c-0.05,0.05,0.02-0.01-0.01,0.01c-0.03,0.02-0.07,0.05-0.1,0.07c-0.12,0.07-0.16,0.22-0.09,0.34
				c0.07,0.12,0.23,0.16,0.34,0.09c0.64-0.38,0.97-1.2,0.76-1.92c-0.04-0.13-0.18-0.21-0.31-0.17
				C77.06,119.12,76.98,119.27,77.02,119.4L77.02,119.4z"/>
		</g>
	</g>
	<g>
		<g>
			<path d="M72.98,116.96c0.32,0.78,0.55,1.6,0.69,2.43c0.02,0.13,0.19,0.21,0.31,0.17c0.14-0.04,0.2-0.17,0.17-0.31
				c-0.14-0.83-0.37-1.65-0.69-2.43c-0.05-0.12-0.17-0.21-0.31-0.17C73.03,116.68,72.93,116.83,72.98,116.96L72.98,116.96z"/>
		</g>
	</g>
	<g>
		<g>
			<path d="M67.55,121.09c0.24,0.54,0.69,1,1.23,1.26c0.12,0.06,0.28,0.04,0.34-0.09c0.06-0.11,0.04-0.28-0.09-0.34
				c-0.12-0.06-0.24-0.13-0.35-0.21c-0.01-0.01-0.02-0.02-0.04-0.03c-0.01-0.01-0.02-0.01-0.03-0.02c0.01,0.01,0.01,0.01,0.02,0.02
				c0-0.01-0.08-0.06-0.08-0.07c-0.05-0.04-0.1-0.09-0.15-0.14s-0.09-0.1-0.13-0.15l-0.03-0.04c0.01,0,0.03,0.04,0,0
				c-0.02-0.03-0.04-0.05-0.06-0.08c-0.08-0.12-0.15-0.24-0.2-0.36c-0.05-0.12-0.24-0.16-0.34-0.09
				C67.52,120.83,67.49,120.97,67.55,121.09L67.55,121.09z"/>
		</g>
	</g>
	<g>
		<g>
			<path d="M59.57,115.61c0.08,0.58,0.25,1.14,0.47,1.67c0.05,0.12,0.24,0.15,0.34,0.09c0.13-0.08,0.14-0.22,0.09-0.34
				c-0.2-0.48-0.35-1.02-0.42-1.55c-0.02-0.13-0.19-0.21-0.31-0.17C59.6,115.34,59.55,115.47,59.57,115.61L59.57,115.61z"/>
		</g>
	</g>
	<g>
		<g>
			<path d="M64.82,112.08c-0.29,0.95-0.75,1.84-1.38,2.61c-0.08,0.1-0.1,0.25,0,0.35c0.09,0.09,0.27,0.11,0.35,0
				c0.68-0.84,1.19-1.8,1.51-2.83C65.4,111.9,64.92,111.77,64.82,112.08L64.82,112.08z"/>
		</g>
	</g>
	<g>
		<g>
			<path d="M60.66,112.7c0.05,0.63,0.11,1.26,0.16,1.89c0.01,0.13,0.11,0.25,0.25,0.25c0.13,0,0.26-0.11,0.25-0.25
				c-0.05-0.63-0.11-1.26-0.16-1.89c-0.01-0.13-0.11-0.25-0.25-0.25C60.78,112.45,60.65,112.56,60.66,112.7L60.66,112.7z"/>
		</g>
	</g>
	<g>
		<g>
			<path d="M48.08,112.88c-0.45,1.3-0.5,2.71-0.17,4.03c0.08,0.31,0.56,0.18,0.48-0.13c-0.32-1.25-0.26-2.55,0.17-3.77
				C48.67,112.71,48.19,112.58,48.08,112.88L48.08,112.88z"/>
		</g>
	</g>
	<g>
		<g>
			<path d="M46.89,111.55c0.2,0.4,0.41,0.8,0.61,1.2c0.06,0.12,0.23,0.16,0.34,0.09c0.12-0.08,0.15-0.22,0.09-0.34
				c-0.2-0.4-0.41-0.8-0.61-1.2c-0.06-0.12-0.23-0.16-0.34-0.09C46.86,111.28,46.83,111.42,46.89,111.55L46.89,111.55z"/>
		</g>
	</g>
	<g>
		<g>
			<path d="M46.73,114.62c-0.37,0.74-0.37,1.61,0,2.36c0.06,0.12,0.23,0.15,0.34,0.09c0.12-0.07,0.15-0.22,0.09-0.34
				c-0.28-0.57-0.28-1.28,0-1.85c0.06-0.12,0.03-0.27-0.09-0.34C46.96,114.46,46.79,114.5,46.73,114.62L46.73,114.62z"/>
		</g>
	</g>
	<g>
		<g>
			<path d="M50.01,117.6c0.07,0.64,0.28,1.25,0.61,1.79c0.07,0.11,0.22,0.16,0.34,0.09c0.11-0.07,0.16-0.23,0.09-0.34
				c-0.29-0.47-0.48-1.01-0.54-1.54c-0.02-0.13-0.1-0.26-0.25-0.25C50.14,117.36,50,117.46,50.01,117.6L50.01,117.6z"/>
		</g>
	</g>
	<g>
		<g>
			<path d="M57.5,120.62c0.06,0.81,0.42,1.57,1.02,2.11c0.1,0.09,0.25,0.1,0.35,0c0.09-0.09,0.1-0.26,0-0.35
				c-0.51-0.45-0.83-1.1-0.88-1.76c-0.01-0.13-0.11-0.25-0.25-0.25C57.62,120.37,57.49,120.48,57.5,120.62L57.5,120.62z"/>
		</g>
	</g>
	<g>
		<g>
			<path d="M56.28,120.53c-0.26,0.86,0.29,1.85,1.15,2.09c0.31,0.09,0.44-0.4,0.13-0.48c-0.05-0.01-0.09-0.03-0.13-0.04
				c0.03,0.01,0,0-0.02-0.01s-0.04-0.02-0.06-0.03c-0.04-0.02-0.07-0.04-0.11-0.07c-0.02-0.01-0.04-0.03-0.06-0.04
				c0.03,0.02,0,0-0.01-0.01c-0.07-0.06-0.13-0.12-0.19-0.19c-0.03-0.03,0,0.01-0.01-0.01c-0.01-0.02-0.02-0.03-0.03-0.05
				c-0.03-0.04-0.05-0.08-0.07-0.12s-0.04-0.08-0.06-0.12c-0.01-0.02,0.01,0.03-0.01-0.02c-0.01-0.02-0.02-0.04-0.02-0.07
				c-0.03-0.08-0.05-0.17-0.06-0.25c0.01,0.05,0-0.02,0-0.03c0-0.02,0-0.05,0-0.07c0-0.04,0-0.08,0-0.12c0-0.02,0-0.05,0.01-0.07
				c-0.01,0.05,0-0.02,0.01-0.03c0.01-0.05,0.02-0.09,0.03-0.14c0.04-0.13-0.05-0.27-0.17-0.31
				C56.45,120.32,56.31,120.4,56.28,120.53L56.28,120.53z"/>
		</g>
	</g>
	<g>
		<g>
			<path d="M59.97,121.09c-0.39,0.67-0.66,1.41-0.78,2.17c-0.02,0.13,0.03,0.27,0.17,0.31c0.12,0.03,0.29-0.04,0.31-0.17
				c0.11-0.73,0.35-1.42,0.73-2.05C60.57,121.06,60.13,120.81,59.97,121.09L59.97,121.09z"/>
		</g>
	</g>
	<g>
		<g>
			<path d="M62.62,121.9c-0.1,0.7,0.16,1.45,0.72,1.89c0.11,0.08,0.25,0.1,0.35,0c0.09-0.09,0.11-0.27,0-0.35
				c-0.06-0.05-0.11-0.09-0.17-0.15c-0.02-0.02-0.05-0.05-0.07-0.07c-0.01-0.02-0.03-0.03-0.04-0.05c-0.03-0.03,0.02,0.03-0.01-0.01
				c-0.04-0.06-0.09-0.12-0.12-0.19c-0.02-0.03-0.04-0.07-0.05-0.1c-0.01-0.01-0.01-0.03-0.02-0.04c-0.02-0.04,0,0-0.01-0.02
				c-0.05-0.13-0.09-0.27-0.11-0.42c0,0.03,0,0.01,0-0.01c0-0.02,0-0.04,0-0.06c0-0.03,0-0.07,0-0.1c0-0.04,0-0.07,0-0.11
				c0-0.02,0-0.04,0-0.06c0-0.01,0.01-0.06,0-0.02c0.02-0.13-0.03-0.27-0.17-0.31C62.81,121.7,62.64,121.76,62.62,121.9L62.62,121.9
				z"/>
		</g>
	</g>
	<g>
		<g>
			<path d="M62.12,123.65c0.54,0.61,1.17,1.13,1.86,1.54c0.12,0.07,0.27,0.03,0.34-0.09c0.07-0.12,0.03-0.27-0.09-0.34
				c-0.66-0.4-1.25-0.89-1.76-1.47c-0.09-0.1-0.26-0.09-0.35,0C62.02,123.4,62.03,123.55,62.12,123.65L62.12,123.65z"/>
		</g>
	</g>
	<g>
		<g>
			<path d="M45.68,112.97c-0.34,0.91-0.06,2.01,0.66,2.66c0.24,0.21,0.59-0.14,0.35-0.35c-0.6-0.54-0.82-1.42-0.53-2.18
				c0.05-0.13-0.05-0.27-0.17-0.31C45.85,112.76,45.73,112.85,45.68,112.97L45.68,112.97z"/>
		</g>
	</g>
	<path d="M43.87,63.05c-0.12-0.11-0.24-0.22-0.33-0.3c-0.28-0.25-0.68-0.17-0.92,0.04c-0.14-0.15-0.3-0.27-0.43-0.43
		c-0.37-0.46-0.98-0.03-1.03,0.46c0,0.01-2.04-0.44-2.19-0.5c-0.12-0.04-0.23-0.1-0.31-0.19c-0.22-0.27-0.02-0.66,0.07-0.99
		c0.02-0.05,0.03-0.11,0.01-0.17c-0.03-0.09-0.13-0.13-0.23-0.14c-0.54-0.07-1.07,0.35-1.43,0.7c-0.52,0.51-0.56,0.89-1.31,0.41
		c-0.19-0.12-0.36-0.26-0.57-0.33c-0.21-0.06-0.48-0.02-0.59,0.17c-0.07,0.11-0.07,0.27-0.17,0.36s-0.27,0.08-0.39,0.01
		c-0.12-0.07-0.2-0.2-0.27-0.31c-0.17-0.26-0.33-0.53-0.5-0.79c-0.1,0.43,0.1,0.87,0.3,1.26c0.26,0.52,0.54,1.06,1.01,1.41
		c0.01-0.21,0.01-0.42,0.02-0.63c0.01-0.33,1.26,0.21,1.59,0.33c0.7,0.25,0.91,1.16,1.65,1.33c-0.1-0.35-0.08-0.73,0.05-1.08
		c0.03-0.07,0.06-0.14,0.13-0.17c0.05-0.02,0.11-0.01,0.16-0.01c1.06,0.14,2.29,0.17,3.31,0.41c0.97,0.23,1.85,1.19,2.82,1.57
		c-0.09-0.22-0.15-0.54,0.07-0.65c0.16-0.08,0.33,0.03,0.48,0.12c0.6,0.35,1.36,0.44,2.03,0.24c0.25-0.07,0.49-0.19,0.63-0.41
		c0.11-0.18,0.14-0.4,0.21-0.59c0.15-0.39,0.5-0.69,0.9-0.78c0.75-0.16,1.14,0.44,1.72,0.75c0.13,0.07,1.55,0.68,1.55,0.65
		c0-0.24-0.28-0.45-0.19-0.68c0.05-0.13,0.2-0.19,0.34-0.22c0.99-0.21,2,0.23,2.85,0.78c-0.1-0.18-0.23-0.4-0.38-0.62
		c-0.42-0.61-1.04-1.24-1.68-1.16c-0.62,0.08-1.25,0.07-1.84,0.28c-0.18,0.06-0.77-0.59-0.94-0.7c-0.57-0.34-1.31-0.54-1.93-0.77
		c0.04,0.27,0.08,0.53,0.12,0.8c-0.24-0.03-0.48-0.1-0.7-0.19c-0.61-0.26-0.91-0.16-1.06,0.45c-0.09,0.37,0.12,0.48-0.29,0.6
		c-0.35,0.11-0.88-0.27-1.08-0.53c-0.11,0.02-0.03,0.17,0.02,0.27c0.08,0.18-0.1,0.4-0.3,0.42c-0.34,0.04-0.78-0.26-1.07-0.41
		c-0.16-0.09-0.37-0.27-0.54-0.31c-0.25-0.06-0.48,0.08-0.73,0.03c-0.19-0.04-0.34-0.21-0.4-0.4c-0.06-0.19-0.06-0.39-0.06-0.59
		c-0.33,0.09-0.6,0.36-0.68,0.69c-0.03,0.14,0.01,0.33,0.15,0.34"/>
	<path d="M64.86,65.04c-0.1,0.13-0.27,0.23-0.42,0.31c-0.82,0.41-1.25,1.02-2.16,0.99c-1.13-0.04-2.44,0.83-3.27-0.4
		c-0.03-0.05-0.07-0.11-0.13-0.13c-0.11-0.04-0.23,0.05-0.25,0.17c-0.03,0.11,0.01,0.23,0.04,0.34c0.04,0.15,0.06,0.33-0.05,0.45
		c-0.41,0.49-1.67-1.36-1.82-1.62c-0.18,0.16-0.22,0.42-0.38,0.6c-0.28,0.31-0.79,0.25-1.17,0.07c-0.38-0.18-0.74-0.45-1.16-0.47
		c0.48,0.79,1.18,1.44,2,1.86c0.06-0.1,0.11-0.2,0.17-0.3c0.63,0.8,1.8,1.1,2.74,0.7c0.08-0.03,0.16-0.07,0.24-0.08
		c0.16-0.01,0.3,0.09,0.44,0.17c0.76,0.45,1.73,0.22,2.52-0.04c0.38-0.13,0.59-0.5,0.95-0.66c0.39-0.18,0.84-0.21,1.25-0.43
		c0.35-0.19,0.7-0.43,0.87-0.79c0.16-0.36,0.05-0.88-0.33-1.02C64.96,64.86,64.93,64.96,64.86,65.04z"/>
	<path d="M61.55,64.09c0.02-0.14,0-0.3-0.08-0.43s-0.16-0.25-0.28-0.35c-0.11-0.1-0.24-0.19-0.37-0.25
		c-0.33-0.15-0.67-0.22-1.03-0.16c-0.13,0.02-0.93,0.4-0.65,0.66c0.03,0.03,0.07,0.03,0.1,0.04c0.19,0.03,0.4,0.01,0.58,0.08
		c0.18,0.07,0.34,0.27,0.28,0.45c-0.06,0.17-0.27,0.23-0.45,0.24c-0.28,0.01-0.54-0.05-0.8-0.14c0.06,0.99,2.18,1.17,2.6,0.36
		c0.06-0.11,0.07-0.24,0.05-0.36C61.53,64.18,61.55,64.14,61.55,64.09z"/>
	<path d="M53.3,66.42c-0.08-0.12-0.18-0.18-0.31-0.24c-0.09-0.04-0.17-0.07-0.26-0.11s-0.18-0.05-0.27-0.06
		c-0.1-0.02-0.21-0.04-0.31-0.05c-0.13-0.11-0.27-0.23-0.43-0.3l-0.12-0.05c-0.04-0.02-0.03-0.01,0.01,0.01
		c0.07,0.01,0.03,0.01,0-0.01c-0.04-0.02-0.07-0.04-0.11-0.06c-0.22-0.1-0.43-0.15-0.67-0.08c-0.37,0.11-0.62,0.37-0.75,0.73
		c-0.07,0.19,0,0.41,0.12,0.56c0.13,0.17,0.3,0.23,0.51,0.25c0.36,0.04,0.72,0.09,1.07,0.13c0.18,0.02,0.35,0.04,0.53,0.07
		c0.08,0.01,0.17,0.02,0.25,0.02c0.1-0.01,0.2-0.02,0.29-0.03c0.26-0.03,0.47-0.18,0.51-0.45C53.38,66.64,53.36,66.52,53.3,66.42z"
		/>
	<path d="M64.49,63.17c-0.02-0.07-0.05-0.13-0.1-0.19c-0.02-0.04-0.06-0.07-0.1-0.1c-0.03-0.03-0.07-0.06-0.12-0.07
		c-0.04-0.02-0.09-0.04-0.14-0.04c-0.07-0.02-0.15-0.01-0.22,0.01c-0.02,0-0.03,0.01-0.05,0.01c-0.12,0.03-0.18,0.09-0.27,0.16
		c-0.02,0.02-0.04,0.04-0.06,0.05c-0.05,0.04-0.09,0.08-0.14,0.12c-0.09,0.08-0.19,0.15-0.28,0.23c-0.05,0.04-0.08,0.09-0.1,0.15
		c-0.03,0.06-0.04,0.12-0.04,0.18c0.01,0.04,0.01,0.09,0.02,0.13c0.01,0.06,0.04,0.12,0.09,0.16c0.02,0.04,0.05,0.06,0.09,0.09
		c0.05,0.04,0.1,0.07,0.16,0.09c0.04,0.01,0.09,0.01,0.13,0.02c0.09,0,0.17-0.02,0.24-0.07c0.11-0.05,0.23-0.1,0.34-0.15l0.17-0.07
		c0.03-0.01,0.06-0.02,0.08-0.04c0.11-0.05,0.18-0.16,0.25-0.25c0.02-0.04,0.04-0.09,0.06-0.13c0.01-0.05,0.01-0.1,0.02-0.15
		C64.51,63.27,64.5,63.22,64.49,63.17z"/>
	<path d="M98.6,66.04c-0.06-0.24-0.12-0.48-0.2-0.72c-0.7,0.08-1.44,0.15-2.07-0.17c-0.54-0.27-0.98-0.82-1.59-0.86
		c-0.8-0.04-1.52,0.85-2.27,0.58c-0.17-0.06-0.31-0.17-0.46-0.26c-0.52-0.31-1.14-0.37-1.71-0.57c-0.57-0.2-1.14-0.64-1.16-1.24
		c-0.43,0.25-1.04,0.79-0.98,1.33c-0.06-0.02-0.69,0-0.66,0.05c-0.23-0.35-0.66-0.43-0.78-0.9c-0.02-0.09-0.04-0.19-0.1-0.27
		c-0.08-0.1-0.22-0.13-0.35-0.13c-0.51,0.01-0.91,0.43-1.32,0.73c-0.41,0.3-1.05,0.49-1.39,0.11c-0.04,0.4-0.16,0.9-0.56,0.97
		c-0.34,0.06-0.65-0.28-0.68-0.62s0.12-0.68,0.27-0.99c-0.81-0.24-1.54,1.05-2.32,0.72c-0.41-0.17-0.52-0.69-0.57-1.14
		c-0.67,0.28-1.17,0.85-1.8,1.22c-0.63,0.37-1.55,0.47-1.99-0.11c-0.18-0.23-0.29-0.58-0.58-0.62c-0.6-0.09-0.85,0.9-1.64,0.78
		c-0.78-0.12-1.57-0.52-2.36-0.68c0.07,0.35,0.18,0.69,0.19,1.04c0.01,0.35-0.1,0.74-0.39,0.94c-0.53,0.02-0.89-0.82-1.4-0.64
		c-0.2,0.07-0.31,0.27-0.45,0.42s-0.39,0.27-0.55,0.12c-0.07-0.06-0.09-0.15-0.11-0.24c-0.07-0.36-0.04-0.75,0.1-1.09
		c-0.7,0.1-1.23,0.67-1.69,1.2c-0.47,0.53-0.29,1.5-0.73,1.98c0.16-0.18,0.33-0.37,0.55-0.48s0.5-0.13,0.7,0.01
		c0.92,0.66,1.94,0.67,2.7-0.34c0.58,0.36,1.26,0.71,1.86,0.43c0.53-0.24,0.66-0.91,0.71-1.54c0.35,0.15,0.69,0.3,1.01,0.49
		c0.05,0.34,0.24,0.63,0.51,0.84c0.67,0.52,1.53,0.27,1.95-0.43c0.09-0.15,0.12-0.36,0.22-0.49c0.22-0.28-0.06-0.25,0.27-0.1
		c0.36,0.17,0.54,0.45,0.97,0.5c0.22,0.03,0.44-0.04,0.65-0.17c0.15,1.99,3.24-0.42,3.09-0.6c0.36,0.41,0.92,0.64,1.46,0.6
		c0.26-0.02,0.52-0.1,0.78-0.06c0.33,0.05,0.6,0.27,0.87,0.46c0.32,0.22,0.68,0.39,1.05,0.52c0.14,0.05,0.31,0.09,0.43,0
		c0.1-0.07,0.14-0.19,0.17-0.3c0.09-0.32,0.19-0.64,0.26-0.96c0.34,0.61,0.8,1.04,1.36,1.45c0.19,0.13,0.39,0.27,0.62,0.29
		c0.27,0.03,0.53-0.12,0.77-0.26c0.42-0.25,0.83-0.49,1.25-0.74c0.11-0.07,0.24-0.14,0.37-0.12c0.09,0.01,0.17,0.06,0.24,0.1
		c0.71,0.42,1.8,0.74,2.63,0.51c0.46-0.13,0.74-0.86,1.2-0.39c0.23,0.23,0.36,0.59,0.66,0.73c0.24,0.11,0.52,0.05,0.78,0.04
		c0.88-0.04,1.68,0.49,2.41,0.99C98.81,67.32,98.74,66.67,98.6,66.04z"/>
	<path d="M93.4,62.91c-0.04-0.23-0.19-0.4-0.34-0.58c-0.12-0.14-0.26-0.26-0.41-0.36c-0.2-0.14-0.44-0.23-0.67-0.32
		c-0.01,0-0.01-0.01-0.01-0.01c-0.01-0.01-0.02,0-0.03-0.01c-0.04-0.02-0.08-0.05-0.13-0.06c0,0.01,0.01,0.02,0.01,0.03
		c-0.2-0.06-0.43-0.05-0.6,0.09c-0.09,0.07-0.16,0.16-0.21,0.27c-0.05,0.11-0.06,0.22-0.05,0.35c0.02,0.12,0.06,0.22,0.13,0.32
		c0.09,0.12,0.2,0.19,0.35,0.24c0.01,0,0.03,0.01,0.04,0.01c0.18,0.08,0.34,0.17,0.5,0.29c-0.05-0.04-0.09-0.07-0.14-0.11
		c0.06,0.05,0.12,0.09,0.18,0.14s0.12,0.1,0.18,0.15c0.03,0.03,0.05,0.06,0.08,0.08c0.08,0.08,0.14,0.11,0.23,0.15
		c0.1,0.05,0.2,0.08,0.3,0.08c0.13,0,0.26-0.05,0.37-0.13c0.09-0.07,0.14-0.14,0.19-0.24c0.03-0.05,0.04-0.1,0.04-0.15
		C93.43,63.07,93.43,62.99,93.4,62.91z"/>
	<path d="M36.47,59.32c0.04-0.12,0.05-0.25,0.01-0.37c-0.05-0.14-0.12-0.28-0.24-0.38c-0.04-0.03-0.08-0.07-0.12-0.1
		c-0.07-0.06-0.15-0.13-0.22-0.19c-0.19-0.16-0.39-0.32-0.59-0.47l-0.16-0.07c-0.09-0.03-0.18-0.03-0.27-0.01
		c-0.14,0.02-0.29,0.08-0.38,0.18c-0.08,0.09-0.14,0.18-0.17,0.3c-0.03,0.09-0.03,0.18-0.01,0.27c0,0.09,0.03,0.17,0.08,0.25
		c0.01,0.01,0.01,0.02,0.02,0.03c0.03,0.04,0.06,0.07,0.09,0.1c0,0,0,0-0.01,0c0.02,0.02,0.04,0.03,0.06,0.05
		c0.02,0.01,0.02,0.03,0.04,0.05c0.01,0,0.01,0,0.02,0.01c0.1,0.1,0.21,0.2,0.32,0.29c0.07,0.06,0.14,0.12,0.21,0.19
		c0.15,0.13,0.3,0.29,0.51,0.33c0.05,0.01,0.1,0,0.15,0c0.09,0.03,0.16,0.08,0.25,0.11c0.16,0.04,0.35-0.03,0.43-0.17
		c0.03-0.06,0.05-0.12,0.05-0.19C36.54,59.46,36.51,59.39,36.47,59.32z"/>
	<path d="M37.65,59.06c-0.42,0-0.43,0.66,0,0.66S38.08,59.06,37.65,59.06z"/>
	<g>
		<g>
			<path d="M44.76,101.02c1.33,1.18,3.03,1.54,4.72,1.87c0.96,0.18,1.89,0.39,2.81,0.73c0.97,0.35,1.91,0.73,2.95,0.85
				c1.1,0.13,2.2,0,3.29,0.05c1.11,0.05,2.09,0.51,3.17,0.74c1.11,0.24,2.1-0.05,3.2-0.15c1.1-0.11,2.21,0.01,3.31,0.01
				c2.44-0.01,4.37-1.06,6.36-2.38c0.53-0.35,0.03-1.22-0.5-0.86c-1.7,1.13-3.4,2.18-5.5,2.24c-1.03,0.03-2.05-0.08-3.08-0.04
				c-1,0.03-2,0.38-3,0.3c-1-0.08-1.92-0.56-2.9-0.73c-1.02-0.18-2.04-0.11-3.07-0.11c-1.06,0-2.02-0.16-3.02-0.52
				c-0.87-0.31-1.72-0.64-2.63-0.85c-1.84-0.42-3.94-0.53-5.42-1.84C44.98,99.88,44.27,100.59,44.76,101.02L44.76,101.02z"/>
		</g>
	</g>
	<g>
		<g>
			<path d="M78.24,102.13c0.75,0.42,1.53,0.86,2.38,1.07c0.88,0.22,1.81,0.11,2.68,0.39c0.89,0.29,1.73,0.78,2.56,1.2
				c0.9,0.45,1.8,0.89,2.7,1.34c0.57,0.29,1.08-0.58,0.5-0.86c-1.7-0.85-3.39-1.82-5.16-2.52c-0.89-0.35-1.75-0.3-2.67-0.45
				c-0.9-0.14-1.7-0.6-2.48-1.04C78.18,100.95,77.68,101.81,78.24,102.13L78.24,102.13z"/>
		</g>
	</g>
	<g>
		<g>
			<path d="M86.6,94.71c1.43,2.09,4.06,2.36,6.39,2.31c0.64-0.01,0.64-1.01,0-1c-1.92,0.04-4.32-0.06-5.52-1.82
				C87.1,93.68,86.23,94.18,86.6,94.71L86.6,94.71z"/>
		</g>
	</g>
	<g>
		<g>
			<path d="M96.83,87.92c0.93-0.52,2.17-0.21,3.18-0.23c1.21-0.02,2.42-0.19,3.6-0.49c0.62-0.16,0.36-1.12-0.27-0.96
				c-1.22,0.31-2.47,0.46-3.73,0.45c-1.12-0.01-2.27-0.2-3.29,0.36C95.76,87.37,96.26,88.23,96.83,87.92L96.83,87.92z"/>
		</g>
	</g>
	<g>
		<g>
			<path d="M40.9,94.89c-0.93,0.48-1.85,0.95-2.78,1.43c-0.82,0.42-1.71,0.8-2.25,1.59c-0.15,0.22-0.04,0.55,0.18,0.68
				c0.25,0.14,0.53,0.04,0.68-0.18c0.22-0.32,0.55-0.52,0.88-0.7C38,97.5,38.4,97.3,38.79,97.1c0.87-0.45,1.74-0.9,2.61-1.35
				C41.97,95.46,41.47,94.59,40.9,94.89L40.9,94.89z"/>
		</g>
	</g>
	<g>
		<g>
			<path d="M42.21,100.58c-0.74,0.71-1.35,1.56-1.78,2.49c-0.11,0.24-0.07,0.55,0.18,0.68c0.22,0.12,0.57,0.07,0.68-0.18
				c0.2-0.44,0.45-0.86,0.73-1.26c0.03-0.04,0.06-0.09,0.1-0.13c0.02-0.03,0.04-0.05,0.06-0.08c0.03-0.04,0.02-0.03,0,0
				c0.08-0.1,0.15-0.19,0.23-0.29c0.16-0.19,0.33-0.36,0.51-0.54c0.19-0.18,0.2-0.53,0-0.71C42.71,100.39,42.41,100.38,42.21,100.58
				L42.21,100.58z"/>
		</g>
	</g>
	<path class="st29" d="M40.95,98.74c7.52,0.09,15.02-0.06,22.48,0.84c1.2,0.14,2.4,0.29,3.57,0.57c0.86,0.21,3.14,0.01,4.03,0.04
		c0.94,0.03,3.83,0.25,4.74,0c3.24-0.89,3.53-0.97,6.42-2.68c-2.61-0.05-3.81-0.85-5.22-0.68c-1.62,0.2-3.88,0.14-5.51,0.21
		c-3.3,0.14-5.05-0.05-8.35,0.06c-2.41,0.08-4.8-0.09-7.23,0.11c-2.37,0.19-4.73,0.46-7.11,0.48c-1.51,0.01-3.02-0.17-4.52-0.17
		C43.03,97.52,41.15,98,40.95,98.74z"/>
</g>
</svg>
