<?xml version="1.0" encoding="utf-8"?>
<!-- Generator: Adobe Illustrator 28.0.0, SVG Export Plug-In . SVG Version: 6.00 Build 0)  -->
<svg version="1.1" id="Layer_1" xmlns="http://www.w3.org/2000/svg" xmlns:xlink="http://www.w3.org/1999/xlink" x="0px" y="0px"
	 viewBox="0 0 150 150" style="enable-background:new 0 0 150 150;" xml:space="preserve">
<style type="text/css">
	.st0{fill:url(#SVGID_1_);}
	.st1{fill:url(#SVGID_00000060002069971120103510000013169505838758531755_);}
	.st2{fill:url(#SVGID_00000015325998029190665240000007148487125556513199_);}
	.st3{fill:url(#SVGID_00000129203358988593939790000016536795695724627873_);}
	.st4{fill:url(#SVGID_00000087372203653809861200000017231274468720640141_);}
	.st5{fill:url(#SVGID_00000052097338528571687290000011618104584275954078_);}
	.st6{fill:url(#SVGID_00000047019469018371080380000004452100437121543589_);}
	.st7{fill:url(#SVGID_00000048460390137333103630000013480909948930367161_);}
	.st8{fill:url(#SVGID_00000036218072112398528410000004867849604936974251_);}
	.st9{fill:url(#SVGID_00000027577555748465248670000001135387369271021194_);}
	.st10{fill:url(#SVGID_00000072245940926788825550000008657159521919004564_);}
	.st11{fill:url(#SVGID_00000172433935261957572320000000201977942503989384_);}
	.st12{fill:url(#SVGID_00000099661250637330640950000017663568234892304280_);}
	.st13{fill:none;stroke:#000000;stroke-linecap:round;stroke-linejoin:round;stroke-miterlimit:10;}
	.st14{fill:#FFFFFF;}
	.st15{fill:url(#SVGID_00000085935249688728330340000015875466763497529790_);}
	.st16{fill:url(#SVGID_00000022559868723722305220000016280541488691493775_);}
	.st17{fill:url(#SVGID_00000048483528929685543060000004741847072265832621_);}
	.st18{fill:url(#SVGID_00000005239723588050823250000003778577401267443639_);}
	.st19{fill:url(#SVGID_00000098215442050679268230000003175897082096391611_);}
	.st20{fill:url(#SVGID_00000092430460969012855000000005459194277330898101_);}
	.st21{fill:#E5E5E5;}
	.st22{fill:url(#SVGID_00000034809488896005117670000013891826562678528951_);}
	.st23{fill:url(#SVGID_00000008124564275989147860000012329235654035724173_);}
	.st24{fill:url(#SVGID_00000124863480828456821050000006829465815963097504_);}
	.st25{fill:url(#SVGID_00000088122785963028884400000010706942494498916529_);}
	.st26{fill:url(#SVGID_00000054969902171367765420000016963326389862528191_);}
	.st27{fill:url(#SVGID_00000018233065442360918790000008310295700921801885_);}
</style>
<g id="Boomer_Shirts">
	<path d="M126.85,112.21L126.85,112.21c-0.21-1.18-0.42-2.4-0.47-3.58c-0.04-0.91-0.06-1.82-0.08-2.73
		c-0.06-2.57-0.11-5.22-0.55-7.86l-0.03-0.18c-0.1-0.61-0.19-1.14-0.18-1.64c0.01-0.33,0.06-0.7,0.11-1.08
		c0.03-0.23,0.06-0.46,0.09-0.69c0.16-1.47,0.04-2.9-0.07-4.27c-0.08-0.93-0.16-1.85-0.25-2.79c-0.41-4.5-0.84-9.16-0.12-13.65
		c0.25-1.52,0.46-3.13,0.11-4.66c-0.12-0.54-0.38-1.04-0.77-1.48c0.39-1.12,0.71-2.37,0.58-3.72c-0.14-1.44-0.77-2.69-1.33-3.78
		l-0.25-0.48c-1.33-2.68-2.18-5.55-2.51-8.53c-0.2-1.78-0.74-3.46-1.26-5.09c-0.37-1.15-0.75-2.34-0.98-3.5
		c-1.12-5.7-0.72-11.22,1.28-17.39l-0.95-0.31l0.98,0.21c0.35-1.09,0.75-2.33,0.75-3.67c0-0.59-0.08-1.15-0.15-1.65
		c-0.05-0.37-0.1-0.72-0.11-1.07c-0.02-0.4,0.09-0.77,0.24-1.28l0.09-0.32c0.26-0.53,0.51-1.06,0.78-1.58
		c0.28-0.54,1.12-2.17,0.11-3.58c-0.3-0.41-0.67-0.67-0.88-0.81c-3.34-2.25-7.39-3.83-11.4-4.45c-0.58-0.09-1.01-0.07-1.58-0.04
		c-0.23,0.01-0.51,0.02-0.86,0.03c-0.95,0.02-1.63,0.14-2.14,0.38C105.03,6.98,105,7,104.97,7.01c-1.63,0.9-2.48,2.12-3.31,3.31
		c-0.14,0.2-0.28,0.4-0.43,0.62c-0.17,0.24-0.34,0.49-0.51,0.75c-0.32,0.47-0.62,0.92-0.95,1.29c-0.89,1-2.21,1.65-3.12,2.05
		c-5,2.21-10.76,2.52-16.34,2.82l-1.13,0.06c-3.96,0.22-8.06,0.45-11.63-0.85c-1.37-0.5-2.72-1.25-4.03-1.97
		c-0.61-0.34-1.38-0.52-2.12-0.7c-0.3-0.07-0.69-0.17-0.99-0.26c-0.06-0.07-0.13-0.14-0.2-0.21c-1.28-1.14-2.98-0.65-3.63-0.47
		c-2.72,0.78-4.83,1.62-6.64,2.65c-0.99,0.56-2.19,1.38-2.69,2.69c-0.3,0.78-0.27,1.54-0.25,2.16c0.01,0.31,0.02,0.59-0.01,0.8
		c-0.18,1.02-0.52,2.06-0.88,3.11c-1.64,4.79-3.14,8.33-4.86,11.48l-0.15,0.28c-0.88,1.61-1.79,3.27-2.81,4.64
		c-0.59,0.79-1.54,1.45-2.54,2.15c-0.78,0.54-1.58,1.1-2.29,1.78c-0.31,0.29-0.61,0.61-0.89,0.93c-1.7,1.96-2.82,4.33-3.24,6.86
		c-0.11,0.69-0.21,1.61,0.02,2.57c0.12,0.5,0.31,0.92,0.48,1.31c0.11,0.24,0.22,0.47,0.28,0.7c0.16,0.55,0.08,1.24-0.01,1.96
		c-0.34,2.59-0.87,5.17-1.59,7.68l-0.06,0.21c-0.45,1.55-1,3.49-0.44,5.41c0.22,0.73,0.57,1.37,0.88,1.93s0.6,1.08,0.67,1.54
		c0.06,0.46-0.08,1.07-0.22,1.66c-0.21,0.89-0.43,1.81-0.75,2.63c-0.42,1.1-1.02,2.16-1.61,3.2c-0.94,1.67-1.92,3.39-2.33,5.5
		c-0.28,1.42-0.69,2.85-1.08,4.24c-0.6,2.1-1.22,4.28-1.47,6.6c-0.28,2.63-0.2,5.27-0.13,7.82c0.05,1.8,0.32,3.59,0.57,5.33
		c0.45,3,0.87,5.84,0.2,8.51c-0.66,2.62-0.98,5.34-0.96,8.06c0,0.58-0.11,1.35-0.24,2.17c-0.39,2.55-0.92,6.04,1.97,7.94
		c1.28,0.84,2.74,0.8,3.87,0.67c1.56-0.18,3.08-0.52,4.57-0.85c1.1-0.25,2.36-0.53,3.55-0.71c11.38-1.7,24.88-3.15,38.64-1.09
		c5.92,0.88,11.92,2,17.72,3.07l0.83,0.15c0.49,0.09,0.99,0.21,1.51,0.33c2.17,0.5,4.88,1.11,7.29,0.07
		c0.69-0.3,1.32-0.67,1.93-1.03c0.41-0.24,0.79-0.46,1.18-0.66c0.36-0.18,0.66-0.3,0.93-0.37c0.79-0.2,1.73-0.1,2.81,0.29
		c0.8,0.29,1.57,0.7,2.39,1.14c0.29,0.15,0.58,0.31,0.87,0.46c1.23,0.63,2.61,1.07,3.77,1.22c0.22,0.03,0.46,0.04,0.7,0.04
		c1.78,0,3.3-0.78,4.04-2.1c1.6-2.81,2.71-6.01,3.79-9.11l0.57-1.63c1.61-4.53,2.51-8.35,2.83-12.01
		C127.48,115.86,127.16,114,126.85,112.21z"/>
	<g>
		
			<linearGradient id="SVGID_1_" gradientUnits="userSpaceOnUse" x1="98.3357" y1="92.8651" x2="96.2226" y2="60.6878" gradientTransform="matrix(1 0 0 -1 0 149.8898)">
			<stop  offset="0" style="stop-color:#000000;stop-opacity:0.5"/>
			<stop  offset="0.9985" style="stop-color:#EADACC;stop-opacity:0"/>
		</linearGradient>
		<path class="st0" d="M83.65,76.44c-2.34-0.54-4.87-0.99-7.03-2.09c-2.04-1.03-3.83-2.57-5.13-4.46c-0.09-0.13-0.16-0.34-0.02-0.42
			c0.62,0.19,1.05,1,1.53,1.44c1.32,1.23,2.72,0.99,4.41,0.93c1.72-0.06,3.44-0.14,5.16,0c3.32,0.26,6.57,0.92,9.75,1.92
			c1.21,0.39,2.41,0.84,3.45,1.57c0.66,0.46,1.24,1.02,1.9,1.48c3.11,2.19,7.33,1.87,11.02,0.93c1.06-0.27,2.12-0.59,3.09-1.1
			c3.85-2,6.05-8.07,10.49-8.76c0.65,0.81,1.35,1.72,1.29,2.76c-0.03,0.54-0.26,1.04-0.48,1.52c-0.89,1.91-1.77,3.82-2.66,5.73
			c-0.85,1.83-1.73,3.7-3.15,5.13c-1.66,1.67-3.92,2.59-6.15,3.33c-1.82,0.6-3.66,1.11-5.53,1.54c-2.03,0.46-4.21,0.8-6.16,0.09
			c-1.6-0.59-3.33-1.99-4.2-3.47c-0.8-1.35-0.9-2.65-2.1-3.84C90.67,78.27,86.9,77.2,83.65,76.44z"/>
		
			<linearGradient id="SVGID_00000029044933571711507650000016898997746916997000_" gradientUnits="userSpaceOnUse" x1="39.0957" y1="87.9695" x2="44.0287" y2="64.1077" gradientTransform="matrix(1 0 0 -1 0 149.8898)">
			<stop  offset="0" style="stop-color:#000000;stop-opacity:0.5"/>
			<stop  offset="0.9985" style="stop-color:#EADACC;stop-opacity:0"/>
		</linearGradient>
		<path style="fill:url(#SVGID_00000029044933571711507650000016898997746916997000_);" d="M40.35,73.54
			c0.53-0.28,1.03-0.63,1.6-0.83c0.4-0.14,0.83-0.21,1.25-0.27c1.87-0.28,3.75-0.5,5.63-0.66c1.07-0.09,4.1-0.8,4.87,0.01
			c-1.16,2.36-3.59,4.3-5.95,5.38c-3.66,1.68-8.11,1.75-11.18,4.36c-0.55,0.47-1.05,1.01-1.69,1.33c-1.24,0.61-2.71,0.26-4.04-0.1
			c1.08-2.22,1.26-4.59,2.01-6.92c0.05-0.16,0.1-0.33,0.06-0.49c-0.08-0.29-0.43-0.4-0.71-0.51c-0.59-0.24-2.06-1.43-1.25-2.09
			c0.62-0.51,2.09,0.83,2.71,1.08C35.79,74.67,38.31,74.63,40.35,73.54z"/>
		
			<linearGradient id="SVGID_00000078008735656709351480000014607401391758962362_" gradientUnits="userSpaceOnUse" x1="126.2541" y1="54.9045" x2="120.8483" y2="38.9991" gradientTransform="matrix(1 0 0 -1 0 149.8898)">
			<stop  offset="0" style="stop-color:#000000;stop-opacity:0.5"/>
			<stop  offset="0.9985" style="stop-color:#EADACC;stop-opacity:0"/>
		</linearGradient>
		<path style="fill:url(#SVGID_00000078008735656709351480000014607401391758962362_);" d="M120.66,103.92
			c-0.01,1.57,0.33,3.13,0.25,4.69c-0.05,0.98-0.27,1.94-0.28,2.92s0.23,2.02,0.93,2.7c0.08,0.08,0.18,0.16,0.29,0.18
			c0.13,0.03,0.27-0.02,0.39-0.09c0.84-0.47,0.96-1.61,0.98-2.57c0.05-1.8,0.09-3.61,0.03-5.41c-0.07-2.31,0.11-5.51-0.7-7.68
			C121.42,99.7,120.67,102.44,120.66,103.92z"/>
		
			<linearGradient id="SVGID_00000000906692450288551260000001848837278497042344_" gradientUnits="userSpaceOnUse" x1="102.388" y1="58.7187" x2="105.5036" y2="48.4134" gradientTransform="matrix(1 0 0 -1 0 149.8898)">
			<stop  offset="0" style="stop-color:#000000;stop-opacity:0.5"/>
			<stop  offset="0.9985" style="stop-color:#EADACC;stop-opacity:0"/>
		</linearGradient>
		<path style="fill:url(#SVGID_00000000906692450288551260000001848837278497042344_);" d="M93.28,99.45
			c3.02,0.38,6.03,0.76,9.05,1.13c-0.12,0.43-0.38,0.83-0.73,1.1c2.96-1.74,5.93-3.47,8.89-5.21c0.97-0.57,4.08-2.24,3.97-3.66
			c-0.09-1.19-1.1,0.07-1.49,0.44c-0.71,0.66-1.46,1.27-2.25,1.84c-3.19,2.29-6.94,3.79-10.82,4.34
			C97.71,99.76,95.47,99.77,93.28,99.45z"/>
		
			<linearGradient id="SVGID_00000030483598944220896080000002585879558325585328_" gradientUnits="userSpaceOnUse" x1="55.0562" y1="63.5531" x2="57.917" y2="51.599" gradientTransform="matrix(1 0 0 -1 0 149.8898)">
			<stop  offset="0" style="stop-color:#000000;stop-opacity:0.5"/>
			<stop  offset="0.9985" style="stop-color:#EADACC;stop-opacity:0"/>
		</linearGradient>
		<path style="fill:url(#SVGID_00000030483598944220896080000002585879558325585328_);" d="M78.93,100.78
			c-0.28-0.69-2.59-1.51-3.23-1.96c-0.71-0.5-1.26-1.01-2.11-1.32c-1.75-0.66-3.68-0.63-5.49-1.02c-2.91-0.61-5.82-1.39-8.82-1.43
			C55,95,50.86,96.47,46.84,97.92c-2.89,1.04-5.79,2.09-8.68,3.13c3.96-2.29,8.2-4.11,12.6-5.4c3-0.88,6.24-1.61,8.4-3.87
			c-0.26,0.72-0.52,1.44-0.78,2.16c3.94-0.01,7.73,1.39,11.6,2.18c1.73,0.35,3.49,0.58,5.13,1.23
			C76.73,98.01,78.27,99.15,78.93,100.78z"/>
		
			<linearGradient id="SVGID_00000067200595964879515750000009269977947186666114_" gradientUnits="userSpaceOnUse" x1="30.1262" y1="29.0619" x2="43.4084" y2="20.3772" gradientTransform="matrix(1 0 0 -1 0 149.8898)">
			<stop  offset="0" style="stop-color:#000000;stop-opacity:0.5"/>
			<stop  offset="0.9985" style="stop-color:#EADACC;stop-opacity:0"/>
		</linearGradient>
		<path style="fill:url(#SVGID_00000067200595964879515750000009269977947186666114_);" d="M34.64,134.51
			c1.02-2.28,3.06-3.92,5.02-5.47c3.04-2.4,6.07-4.79,9.11-7.19c0.8-0.64,1.63-1.3,2.12-2.2c-2.14,1.35-4.23,2.78-6.27,4.29
			c0.12-0.45,0.24-0.9,0.36-1.36c-2.97,2.84-5.93,5.67-8.9,8.51c-0.58,0.55-1.16,1.11-1.61,1.77c-1.01,1.49-1.24,3.52-0.57,5.19
			C34.02,136.83,34.13,135.65,34.64,134.51z"/>
		
			<linearGradient id="SVGID_00000131325351152732673390000001848266205617795248_" gradientUnits="userSpaceOnUse" x1="45.487" y1="38.687" x2="25.4615" y2="42.6717" gradientTransform="matrix(1 0 0 -1 0 149.8898)">
			<stop  offset="0" style="stop-color:#000000;stop-opacity:0.5"/>
			<stop  offset="0.9985" style="stop-color:#EADACC;stop-opacity:0"/>
		</linearGradient>
		<path style="fill:url(#SVGID_00000131325351152732673390000001848266205617795248_);" d="M31,104.66
			c-0.43,0.13-0.87,0.22-1.31,0.26c-0.57,0.05-3.54-0.04-3.69-0.85c0.22,1.18,0.44,2.36,0.66,3.54c0.08,0.42,0.16,0.85,0.1,1.28
			c-0.07,0.51-0.32,0.98-0.48,1.48c-0.43,1.35-0.11,2.82,0.31,4.17c-0.24-2.26,1.21-4.42,1.06-6.69c-0.03-0.47-0.08-0.9,0.06-1.37
			c1.24,0.84,2.46,0.2,3.5-0.65c0.78-0.64,1.55-1.28,2.32-1.92c0.42-0.35,1.62-1.73,2.13-1.76c-0.85,0.05-1.52,0.7-2.2,1.21
			C32.74,103.91,31.89,104.38,31,104.66z"/>
		
			<linearGradient id="SVGID_00000011004423133018788840000012448693155266789799_" gradientUnits="userSpaceOnUse" x1="42.8841" y1="61.7664" x2="40.4021" y2="67.8985" gradientTransform="matrix(1 0 0 -1 0 149.8898)">
			<stop  offset="0" style="stop-color:#000000;stop-opacity:0.5"/>
			<stop  offset="0.9985" style="stop-color:#EADACC;stop-opacity:0"/>
		</linearGradient>
		<path style="fill:url(#SVGID_00000011004423133018788840000012448693155266789799_);" d="M39.23,83.81
			c2.79-1.03,5.02-3.57,7.98-3.85c-1.76,1.18-3.52,2.36-5.29,3.53c-0.85,0.57-1.7,1.14-2.59,1.63c-0.79,0.44-1.66,0.83-2.57,0.83
			c-0.66,0-4-1.32-2.68-1.84c0.6-0.23,1.79,0.22,2.46,0.2C37.46,84.29,38.37,84.12,39.23,83.81z"/>
		
			<linearGradient id="SVGID_00000106857142601628975570000015250503554514272145_" gradientUnits="userSpaceOnUse" x1="604.4644" y1="464.8683" x2="599.8666" y2="479.9897" gradientTransform="matrix(0.9904 0.138 0.138 -0.9904 -603.5251 493.9909)">
			<stop  offset="0" style="stop-color:#000000;stop-opacity:0.5"/>
			<stop  offset="0.9985" style="stop-color:#EADACC;stop-opacity:0"/>
		</linearGradient>
		<path style="fill:url(#SVGID_00000106857142601628975570000015250503554514272145_);" d="M63.47,104.61
			c-2.59-0.29-5.25-0.59-7.79-0.01c-1.02,0.23-1.99,0.6-2.97,0.96c-1.05,0.39-2.1,0.79-3.15,1.18c-0.77,0.29-1.53,0.58-2.25,0.97
			c-0.71,0.38-1.36,0.86-2.03,1.3c-1.06,0.68-2.2,1.25-3.39,1.69c3.33-3.82,8.52-5.4,13.49-6.42c0.54-0.11,1.09-0.22,1.55-0.52
			s0.81-0.84,0.71-1.39c0.07,0.4,3.77,0.89,4.25,0.97c1.51,0.26,3.03,0.47,4.54,0.7c2.08,0.32,5.96,0.48,7.53,2.01
			C70.46,105.64,66.98,105.01,63.47,104.61z"/>
		
			<linearGradient id="SVGID_00000027566123317727081180000001781703660087001784_" gradientUnits="userSpaceOnUse" x1="103.3512" y1="33.7767" x2="124.2734" y2="22.1322" gradientTransform="matrix(1 0 0 -1 0 149.8898)">
			<stop  offset="0" style="stop-color:#000000;stop-opacity:0.5"/>
			<stop  offset="0.9985" style="stop-color:#EADACC;stop-opacity:0"/>
		</linearGradient>
		<path style="fill:url(#SVGID_00000027566123317727081180000001781703660087001784_);" d="M116.65,129.51
			c-0.33-1.07-0.49-2.19-0.62-3.31c-0.15-1.27-0.15-2.81,0.92-3.5c1.32-0.85,3.37,0.24,4.53-0.81c0.62-0.56,0.69-1.49,0.87-2.31
			s0.7-1.74,1.54-1.75c0.71,0,1.25,0.71,1.32,1.41c0.07,0.7-0.2,1.39-0.47,2.04c-1.49,3.62-2.97,7.23-4.46,10.85
			c-0.31,0.76-1.11,3.23-2.11,2c-0.34-0.41-0.43-1.73-0.64-2.29C117.24,131.07,116.89,130.31,116.65,129.51z"/>
		
			<linearGradient id="SVGID_00000062157525716790403090000002641858374954787477_" gradientUnits="userSpaceOnUse" x1="98.1681" y1="91.6953" x2="98.0249" y2="102.5037" gradientTransform="matrix(1 0 0 -1 0 149.8898)">
			<stop  offset="0" style="stop-color:#000000;stop-opacity:0.5"/>
			<stop  offset="0.9985" style="stop-color:#EADACC;stop-opacity:0"/>
		</linearGradient>
		<path style="fill:url(#SVGID_00000062157525716790403090000002641858374954787477_);" d="M97.23,43.25
			c-0.12,0.5-0.64,0.94-1.13,0.77c-0.24-0.08-0.46-0.3-0.71-0.24c-0.27,0.06-0.36,0.42-0.27,0.69s0.29,0.47,0.41,0.72
			c0.4,0.8-0.08,1.77-0.66,2.46c-1.29,1.55-1.53,2.53-0.01,4.13c0.52,0.54,1.15,0.97,1.77,1.38c0.07,0.04,0.14,0.09,0.22,0.08
			c0.13-0.03,0.17-0.2,0.17-0.34c0.02-0.9-0.1-1.8-0.36-2.66c-0.12-0.41-0.25-0.93,0.08-1.2c0.1-0.08,0.23-0.12,0.35-0.14
			c0.39-0.06,0.81,0.06,1.1,0.33c0.64,0.6,0.64,1.79,1.43,2.16c0.44,0.21,0.98,0.06,1.36-0.24c0.38-0.3,0.63-0.74,0.85-1.17
			c0.6-1.18-0.07-2.12,0.1-3.34c0.11-0.79,0.37-1.57,0.29-2.36s-0.68-1.62-1.48-1.59c-0.22,0.01-0.44,0.08-0.67,0.08
			c-0.55-0.01-0.96-0.48-1.39-0.82C97.14,40.69,97.44,42.41,97.23,43.25z"/>
		
			<linearGradient id="SVGID_00000085972882422760518910000017028237070581351328_" gradientUnits="userSpaceOnUse" x1="73.771" y1="92.5178" x2="74.0226" y2="106.1057" gradientTransform="matrix(1 0 0 -1 0 149.8898)">
			<stop  offset="0" style="stop-color:#000000;stop-opacity:0.5"/>
			<stop  offset="0.9985" style="stop-color:#EADACC;stop-opacity:0"/>
		</linearGradient>
		<path style="fill:url(#SVGID_00000085972882422760518910000017028237070581351328_);" d="M66.28,45.38
			c0.98-0.17,1.63,0.93,2.25,1.7c0.87,1.07,2.17,1.71,3.48,2.16c0.13,0.04,0.27,0.08,0.38,0.02c0.24-0.13,0.1-0.52,0.25-0.75
			c0.25-0.36,0.76,0.04,1.12,0.28c0.82,0.56,1.93,0.14,2.92,0.2c0.98,0.05,1.91,0.62,2.41,1.46c0.48-0.05,0.59-0.73,0.43-1.19
			s-0.46-0.93-0.32-1.39c0.09-0.3,0.34-0.51,0.57-0.73c1.01-0.95,1.71-2.23,1.97-3.59c-1.02,0.48-2.37,0.09-2.97-0.86
			c-0.21-0.33-0.39-0.76-0.78-0.83c-0.2-0.04-0.4,0.04-0.58,0.11c-0.69,0.27-1.39,0.58-2.13,0.65s-1.56-0.14-2.01-0.73
			c-0.27-0.35-0.53-0.88-0.96-0.79c-0.23,0.05-0.38,0.26-0.55,0.42c-0.6,0.54-1.54,0.41-2.31,0.17c-1.02-0.31-1.89-0.69-2.28,0.51
			C67.06,42.57,66.7,45.31,66.28,45.38z"/>
		
			<linearGradient id="SVGID_00000132085791465835446860000001421024761093912500_" gradientUnits="userSpaceOnUse" x1="57.3077" y1="91.9833" x2="56.3012" y2="102.7194" gradientTransform="matrix(1 0 0 -1 0 149.8898)">
			<stop  offset="0" style="stop-color:#000000;stop-opacity:0.5"/>
			<stop  offset="0.9985" style="stop-color:#EADACC;stop-opacity:0"/>
		</linearGradient>
		<path style="fill:url(#SVGID_00000132085791465835446860000001421024761093912500_);" d="M52.42,48.87
			c-0.01,0.3-0.06,0.62,0.06,0.9c0.08,0.2,0.25,0.36,0.4,0.51c1.35,1.3,2.79,2.65,4.61,3.08c-0.12-1.04-0.56-2.04-1.23-2.85
			c0.51-0.3,0.93,0.69,1.52,0.69c0.27,0,0.49-0.21,0.74-0.31c0.49-0.21,1.09-0.01,1.48,0.36s0.63,0.87,0.85,1.36
			c0.75-1.3,0.3-3.15-0.96-3.96c-0.28-0.18-0.59-0.31-0.87-0.5c-0.51-0.36-0.88-0.92-0.99-1.54c-0.04-0.2-0.05-0.41-0.15-0.58
			c-0.1-0.18-0.28-0.3-0.46-0.41c-0.67-0.42-1.33-0.84-2-1.26c-0.08-0.05-0.16-0.1-0.25-0.1c-0.21-0.01-0.34,0.21-0.47,0.39
			c-0.76,1.04-2.21,0.29-2.91,0.98C51.25,46.15,52.46,48.02,52.42,48.87z"/>
		<path class="st13" d="M36.41,45.41c-0.92,2.17-1.84,4.33-2.76,6.5c-0.35,0.81-0.7,1.65-0.68,2.53c0.01,0.71,0.26,1.39,0.42,2.09
			c1.03,4.5-1.81,8.92-2.52,13.48c-0.17,1.11-0.2,2.31,0.4,3.29c0.48,0.78,1.31,1.34,2.18,1.76c2.79,1.34,6.12,0.76,8-1.67
			c0.14-0.18,0.28-0.38,0.48-0.51c0.18-0.11,0.4-0.16,0.62-0.2c3.88-0.76,7.89-1.07,11.85-0.98"/>
		<path class="st13" d="M70.63,67.06c0.12,0.99,0.78,1.86,1.42,2.67c0.44,0.56,0.9,1.13,1.52,1.53c1.12,0.7,3.12,0.56,4.43,0.61
			c1.76,0.08,3.52,0.13,5.28,0.31c3.15,0.32,6.28,0.87,9.33,1.63c1.1,0.28,2.24,0.6,3.06,1.32c0.4,0.35,0.7,0.78,1.1,1.13
			c0.69,0.61,1.77,1.06,2.63,1.48c1.1,0.54,2.47,0.77,3.72,0.81c2.92,0.09,5.76-0.83,8.41-1.94c0.95-0.4,1.89-0.83,2.69-1.44
			c1.28-0.98,2.09-2.33,3.13-3.49c0.94-1.05,1.51-2.2,2.83-2.95c0.74-0.42,1.58-0.67,2.41-0.91c0.42-0.12-0.42,0.12,0,0"/>
		<path class="st13" d="M120.94,105.69c-0.26-0.54-0.41-1.14-0.44-1.74c-0.07-1.9,1.14-3.56,1.96-5.27c0.57-1.2,1.27-2.49,1.46-3.81
			"/>
		<g>
			<path d="M68.29,64.27c-0.05,0-0.09-0.02-0.12-0.06c-0.05-0.07-0.03-0.16,0.04-0.2l1.22-0.85c0.07-0.05,0.16-0.03,0.2,0.04
				c0.05,0.07,0.03,0.16-0.04,0.2l-1.22,0.85C68.35,64.26,68.32,64.27,68.29,64.27z"/>
		</g>
		<g>
			<path d="M66.06,59.92c-0.04,0-0.08-0.02-0.1-0.04c-0.58-0.61-0.95-1.4-1.04-2.23c-0.01-0.08,0.05-0.15,0.13-0.16
				c0.08-0.01,0.15,0.05,0.16,0.13c0.08,0.77,0.42,1.5,0.96,2.06c0.06,0.06,0.05,0.15,0,0.21C66.13,59.91,66.1,59.92,66.06,59.92z"
				/>
		</g>
		<g>
			<path d="M68.8,59.18c-0.06,0-0.12-0.04-0.14-0.11c-0.13-0.48-0.33-0.94-0.59-1.36c-0.04-0.07-0.02-0.16,0.05-0.2
				s0.16-0.02,0.2,0.05c0.27,0.45,0.48,0.93,0.62,1.44c0.02,0.08-0.02,0.16-0.1,0.18C68.83,59.18,68.81,59.18,68.8,59.18z"/>
		</g>
		<g>
			<path d="M53.69,48.07c-0.02,0-0.04,0-0.05-0.01c-1.03-0.41-1.89-1.23-2.34-2.25c-0.03-0.07,0-0.16,0.07-0.19s0.16,0,0.19,0.07
				c0.42,0.95,1.22,1.71,2.19,2.1c0.07,0.03,0.11,0.11,0.08,0.19C53.8,48.04,53.75,48.07,53.69,48.07z"/>
		</g>
		<g>
			<path d="M55.85,47.98c-0.06,0-0.11-0.03-0.14-0.09c-0.27-0.68-0.7-1.28-1.26-1.74c-0.06-0.05-0.07-0.14-0.02-0.2
				s0.14-0.07,0.2-0.02c0.6,0.49,1.06,1.14,1.35,1.86c0.03,0.07-0.01,0.16-0.08,0.19C55.88,47.97,55.87,47.98,55.85,47.98z"/>
		</g>
		<g>
			<path d="M58.23,47.6c-0.01,0-0.03,0-0.04-0.01c-0.08-0.02-0.12-0.11-0.09-0.18c0.16-0.5,0.02-1.08-0.36-1.45
				c-0.06-0.06-0.06-0.15,0-0.21c0.06-0.06,0.15-0.06,0.21,0c0.45,0.44,0.62,1.15,0.43,1.75C58.34,47.56,58.29,47.6,58.23,47.6z"/>
		</g>
		<g>
			<path d="M55.76,45.52c-0.06,0-0.12-0.04-0.14-0.11l-0.38-1.32c-0.02-0.08,0.02-0.16,0.1-0.18c0.08-0.02,0.16,0.02,0.18,0.1
				l0.38,1.32c0.02,0.08-0.02,0.16-0.1,0.18C55.79,45.52,55.78,45.52,55.76,45.52z"/>
		</g>
		<g>
			<path d="M57.56,51.27c-0.03,0-0.06-0.01-0.08-0.03c-0.47-0.33-0.89-0.71-1.27-1.14c-0.05-0.06-0.05-0.15,0.01-0.21
				c0.06-0.05,0.15-0.05,0.21,0.01c0.36,0.41,0.77,0.78,1.21,1.09c0.07,0.05,0.08,0.14,0.04,0.2C57.65,51.24,57.6,51.27,57.56,51.27
				z"/>
		</g>
		<g>
			<path d="M57.19,53.13c-0.02,0-0.03,0-0.05-0.01c-0.99-0.33-1.9-0.83-2.72-1.48c-0.06-0.05-0.07-0.14-0.02-0.2s0.14-0.07,0.2-0.02
				c0.79,0.62,1.68,1.11,2.63,1.43c0.08,0.03,0.12,0.11,0.09,0.18C57.3,53.09,57.25,53.13,57.19,53.13z"/>
		</g>
		<g>
			<path d="M61.33,52.68c-0.06,0-0.12-0.04-0.14-0.11l-0.46-1.79c-0.02-0.08,0.03-0.16,0.1-0.18c0.08-0.02,0.16,0.03,0.18,0.1
				l0.46,1.79c0.02,0.08-0.03,0.16-0.1,0.18C61.36,52.68,61.35,52.68,61.33,52.68z"/>
		</g>
		<g>
			<path d="M67.06,45.21c-0.05,0-0.09-0.02-0.12-0.06c-0.05-0.07-0.03-0.16,0.04-0.2c0.78-0.54,1.46-1.2,2.02-1.97
				c0.05-0.06,0.14-0.08,0.2-0.03c0.06,0.05,0.08,0.14,0.03,0.2c-0.58,0.79-1.28,1.48-2.09,2.04C67.11,45.2,67.08,45.21,67.06,45.21
				z"/>
		</g>
		<g>
			<path d="M67.37,43.06c-0.04,0-0.07-0.01-0.1-0.04c-0.4-0.39-0.58-1-0.44-1.55c0.02-0.08,0.1-0.12,0.18-0.11
				c0.08,0.02,0.13,0.1,0.11,0.18c-0.11,0.45,0.03,0.95,0.36,1.27c0.06,0.06,0.06,0.15,0,0.21C67.45,43.04,67.41,43.06,67.37,43.06z
				"/>
		</g>
		<g>
			<path d="M70.28,46.55c-0.04,0-0.08-0.02-0.11-0.05c-0.05-0.06-0.05-0.15,0.01-0.21c0.38-0.33,0.73-0.7,1.04-1.09
				c0.05-0.06,0.14-0.07,0.2-0.02s0.07,0.14,0.02,0.2c-0.32,0.41-0.68,0.79-1.08,1.13C70.35,46.54,70.31,46.55,70.28,46.55z"/>
		</g>
		<g>
			<path d="M71.7,49.01c-0.02,0-0.03,0-0.05-0.01c-0.89-0.31-1.72-0.81-2.4-1.45c-0.06-0.05-0.06-0.15-0.01-0.21
				c0.06-0.06,0.15-0.06,0.21-0.01c0.66,0.61,1.45,1.09,2.3,1.39c0.08,0.03,0.12,0.11,0.09,0.18C71.81,48.97,71.76,49.01,71.7,49.01
				z"/>
		</g>
		<g>
			<path d="M73.95,45.03c-0.05,0-0.1-0.02-0.12-0.07c-0.04-0.07-0.02-0.16,0.05-0.2c0.65-0.41,0.98-1.27,0.76-2.01
				c-0.02-0.08,0.02-0.16,0.1-0.18s0.16,0.02,0.18,0.1c0.25,0.86-0.13,1.86-0.88,2.33C74,45.03,73.98,45.03,73.95,45.03z"/>
		</g>
		<g>
			<path d="M73.29,43.26c-0.05,0-0.1-0.03-0.13-0.08c-0.31-0.6-0.46-1.28-0.45-1.96c0-0.08,0.07-0.15,0.15-0.14
				c0.08,0,0.14,0.07,0.14,0.15c-0.01,0.63,0.13,1.26,0.42,1.82c0.04,0.07,0.01,0.16-0.06,0.2C73.33,43.26,73.31,43.26,73.29,43.26z
				"/>
		</g>
		<g>
			<path d="M78.39,43.54h-0.01c-0.08-0.01-0.14-0.08-0.13-0.16c0.05-0.49-0.04-0.99-0.26-1.43c-0.04-0.07-0.01-0.16,0.07-0.19
				c0.07-0.03,0.16-0.01,0.19,0.07c0.24,0.49,0.34,1.04,0.29,1.59C78.53,43.48,78.46,43.54,78.39,43.54z"/>
		</g>
		<g>
			<path d="M81.59,44.39c-0.02,0-0.04-0.01-0.07-0.02c-0.07-0.04-0.1-0.12-0.06-0.2c0.18-0.34,0.3-0.71,0.37-1.09
				c0.01-0.08,0.09-0.13,0.17-0.12c0.08,0.01,0.13,0.09,0.12,0.17c-0.07,0.41-0.21,0.8-0.4,1.17C81.7,44.36,81.65,44.39,81.59,44.39
				z"/>
		</g>
		<g>
			<path d="M75.99,46.75c-0.08,0-0.17-0.01-0.25-0.02c-0.08-0.01-0.14-0.08-0.13-0.16c0.01-0.08,0.08-0.14,0.16-0.13
				c0.6,0.08,1.23-0.18,1.6-0.66c0.05-0.06,0.14-0.08,0.2-0.03c0.06,0.05,0.08,0.14,0.03,0.2C77.22,46.46,76.61,46.75,75.99,46.75z"
				/>
		</g>
		<g>
			<path d="M75.07,49.02c-0.29,0-0.58-0.04-0.87-0.12c-0.08-0.02-0.12-0.1-0.1-0.18c0.02-0.08,0.1-0.12,0.18-0.1
				c0.59,0.16,1.23,0.14,1.8-0.07c0.07-0.03,0.16,0.01,0.19,0.09s-0.01,0.16-0.09,0.19C75.83,48.95,75.45,49.02,75.07,49.02z"/>
		</g>
		<g>
			<path d="M79.05,50.61c-0.06,0-0.12-0.04-0.14-0.1l-0.38-1.13c-0.03-0.08,0.02-0.16,0.09-0.18c0.08-0.03,0.16,0.02,0.18,0.09
				l0.38,1.13c0.03,0.08-0.02,0.16-0.09,0.18C79.08,50.61,79.07,50.61,79.05,50.61z"/>
		</g>
		<g>
			<path d="M97.85,44.42c-0.03,0-0.07-0.01-0.09-0.03c-0.06-0.05-0.07-0.14-0.02-0.2c0.52-0.61,0.73-1.48,0.56-2.26
				c-0.02-0.08,0.03-0.16,0.11-0.17c0.08-0.02,0.16,0.03,0.17,0.11c0.19,0.87-0.04,1.83-0.62,2.51
				C97.93,44.41,97.89,44.42,97.85,44.42z"/>
		</g>
		<g>
			<path d="M99.97,45.14c-0.03,0-0.06-0.01-0.08-0.02c-0.07-0.04-0.09-0.13-0.04-0.2l0.75-1.14c0.04-0.07,0.13-0.09,0.2-0.04
				c0.07,0.04,0.09,0.13,0.04,0.2l-0.75,1.14C100.07,45.12,100.02,45.14,99.97,45.14z"/>
		</g>
		<g>
			<path d="M101.67,43.82c-0.02,0-0.03,0-0.05-0.01c-0.08-0.03-0.12-0.11-0.09-0.18c0.23-0.67,0.14-1.45-0.25-2.05
				c-0.04-0.07-0.02-0.16,0.04-0.2c0.07-0.04,0.16-0.02,0.2,0.04c0.43,0.67,0.53,1.55,0.28,2.3
				C101.78,43.78,101.73,43.82,101.67,43.82z"/>
		</g>
		<g>
			<path d="M97.53,46.83c-0.02,0-0.05-0.01-0.07-0.02c-1.07-0.58-1.93-1.56-2.36-2.7c-0.03-0.08,0.01-0.16,0.08-0.19
				s0.16,0.01,0.19,0.08c0.4,1.07,1.21,2,2.22,2.54c0.07,0.04,0.1,0.13,0.06,0.2C97.63,46.8,97.58,46.83,97.53,46.83z"/>
		</g>
		<g>
			<path d="M100.18,48.16c-0.06,0-0.12-0.04-0.14-0.1c-0.16-0.51-0.45-0.97-0.83-1.35c-0.06-0.06-0.06-0.15,0-0.21
				c0.06-0.06,0.15-0.06,0.21,0c0.41,0.41,0.73,0.91,0.9,1.46c0.02,0.08-0.02,0.16-0.09,0.18C100.21,48.15,100.2,48.16,100.18,48.16
				z"/>
		</g>
		<g>
			<path d="M99.7,49.58c-0.01,0-0.01,0-0.02,0c-0.73-0.08-1.45-0.27-2.12-0.58c-0.07-0.03-0.1-0.12-0.07-0.19s0.12-0.1,0.19-0.07
				c0.64,0.3,1.32,0.48,2.03,0.56c0.08,0.01,0.14,0.08,0.13,0.16C99.83,49.52,99.77,49.58,99.7,49.58z"/>
		</g>
		<g>
			<path d="M101.2,50.8c-0.03,0-0.06-0.01-0.09-0.03c-0.06-0.05-0.08-0.14-0.03-0.2c0.42-0.54,0.73-1.18,0.91-1.84
				c0.02-0.08,0.1-0.12,0.18-0.1s0.12,0.1,0.1,0.18c-0.19,0.7-0.52,1.37-0.96,1.94C101.29,50.78,101.25,50.8,101.2,50.8z"/>
		</g>
		<g>
			<path d="M94.43,49.95c-0.07,0-0.13-0.05-0.14-0.11c-0.13-0.61,0.07-1.28,0.51-1.72c0.06-0.06,0.15-0.06,0.21,0s0.06,0.15,0,0.21
				c-0.37,0.37-0.54,0.94-0.43,1.46c0.02,0.08-0.03,0.16-0.11,0.17C94.45,49.95,94.44,49.95,94.43,49.95z"/>
		</g>
		<g>
			<path d="M96.87,53.72c-0.03,0-0.07-0.01-0.1-0.04l-1.99-1.78c-0.06-0.05-0.06-0.15-0.01-0.21c0.05-0.06,0.15-0.06,0.21-0.01
				l1.99,1.78c0.06,0.05,0.06,0.15,0.01,0.21C96.95,53.71,96.91,53.72,96.87,53.72z"/>
		</g>
		<g>
			<path d="M26.28,112.33c-0.05,0-0.09-0.02-0.12-0.06c-0.25-0.38-0.2-0.86-0.1-1.31c0.11-0.5,0.24-1.03,0.5-1.49
				c0.29-0.53,0.71-0.92,1.18-1.09c0.19-0.07,0.38-0.11,0.57-0.14c0.08-0.02,0.16-0.03,0.24-0.05c0.96-0.21,1.81-0.82,2.57-1.36
				c0.06-0.05,0.16-0.03,0.2,0.03c0.05,0.07,0.03,0.16-0.03,0.2c-0.78,0.55-1.66,1.18-2.67,1.41c-0.08,0.02-0.17,0.03-0.25,0.05
				c-0.18,0.03-0.36,0.07-0.52,0.13c-0.41,0.15-0.77,0.49-1.03,0.96c-0.24,0.44-0.37,0.94-0.47,1.41c-0.08,0.4-0.14,0.8,0.06,1.09
				c0.04,0.07,0.03,0.16-0.04,0.2C26.34,112.32,26.31,112.33,26.28,112.33z"/>
		</g>
		<g>
			<path d="M95.44,114.44c-0.05,0-0.1-0.03-0.13-0.08c-0.69-1.33-1.39-2.7-2.38-3.85c-1.08-1.27-2.41-2.09-3.72-2.31
				c-0.08-0.01-0.13-0.09-0.12-0.17c0.01-0.08,0.09-0.13,0.17-0.12c1.77,0.3,3.1,1.47,3.89,2.41c1.01,1.18,1.72,2.56,2.42,3.91
				c0.04,0.07,0.01,0.16-0.06,0.2C95.48,114.44,95.46,114.44,95.44,114.44z"/>
		</g>
		<g>
			<path d="M31.02,138.01c-0.07,0-0.13-0.05-0.14-0.11c-0.13-0.57-0.27-1.17-0.23-1.78c0.04-0.7,0.33-1.3,0.79-1.64
				c0.06-0.05,0.16-0.04,0.2,0.03c0.05,0.06,0.04,0.16-0.03,0.2c-0.39,0.29-0.64,0.82-0.68,1.43c-0.04,0.57,0.09,1.14,0.22,1.7
				c0.02,0.08-0.03,0.16-0.11,0.17C31.04,138.01,31.03,138.01,31.02,138.01z"/>
		</g>
		<g>
			<path d="M71.67,94.15c-0.01,0-0.01,0-0.02,0c-3.19-0.37-6.8-0.79-9.85-2.42l-0.16-0.09c-0.41-0.22-0.84-0.46-1.3-0.5
				c-0.52-0.05-1.05,0.15-1.51,0.32l-4.89,1.83c-0.07,0.03-0.16-0.01-0.19-0.09c-0.03-0.08,0.01-0.16,0.09-0.19l4.89-1.83
				c0.5-0.19,1.06-0.39,1.64-0.34c0.51,0.05,0.97,0.3,1.41,0.54l0.16,0.09c3,1.61,6.58,2.02,9.74,2.39
				c0.08,0.01,0.14,0.08,0.13,0.16C71.81,94.1,71.75,94.15,71.67,94.15z"/>
		</g>
		<g>
			<path d="M101.17,99.18c-0.35,0-0.69-0.05-1.03-0.16c-0.08-0.02-0.12-0.11-0.09-0.18c0.03-0.08,0.11-0.12,0.18-0.09
				c0.96,0.32,1.98,0.06,3.13-0.28c2.34-0.7,4.77-1.41,6.78-2.87c0.69-0.5,1.33-1.08,1.95-1.65c0.76-0.7,1.55-1.42,2.45-1.99
				c0.07-0.04,0.16-0.02,0.2,0.04c0.04,0.07,0.02,0.16-0.04,0.2c-0.87,0.55-1.65,1.27-2.41,1.96c-0.63,0.57-1.28,1.17-1.98,1.67
				c-2.06,1.48-4.5,2.21-6.87,2.91C102.63,98.98,101.89,99.18,101.17,99.18z"/>
		</g>
		<g>
			<path d="M105.8,100.59c-0.07,0-0.14-0.06-0.14-0.13c-0.01-0.08,0.05-0.15,0.13-0.16c2.69-0.29,5.06-0.66,6.76-2.23
				c0.06-0.05,0.15-0.05,0.21,0.01c0.05,0.06,0.05,0.15-0.01,0.21c-1.9,1.77-4.8,2.08-6.92,2.31
				C105.82,100.59,105.81,100.59,105.8,100.59z"/>
		</g>
		<path class="st14" d="M116.83,36.6c0.01-2.4,0.07-4.8,0.57-7.14c0.6-2.82,1.84-5.55,1.85-8.43c0-1.1-0.15-2.23,0.04-3.32
			c0.17-1.02,0.8-1.77,1.25-2.68c0.32-0.65,0.59-1.57,0.01-2.01c-1.08-0.82-1.97-1.77-3.23-2.45c-1.27-0.68-2.64-1.19-4.06-1.5
			c-1.2-0.26-2.44-0.21-3.62-0.48c-2.03-0.46-3.95-0.52-5.5,1.17c-0.71,0.77-1.2,1.72-1.79,2.59c-1.45,2.13-3.53,3.82-5.91,4.8
			c-2.31,0.95-4.83,1.23-7.32,1.49c-5.89,0.62-11.81,1.21-17.72,0.84c-2.11-0.13-4.27-0.4-6.16-1.36c-2.15-1.09-4.1-2.72-6.43-3.33
			c-2.51-0.65-6.02,1.67-7.99,2.98c-0.44,0.29-1.09,0.61-1.46,1.03c-0.03,0.04-0.06,0.07-0.09,0.11c-0.35,0.49-0.48,1.3-0.61,1.87
			c-0.3,1.28-0.41,2.6-0.68,3.89c-0.59,2.76-1.96,5.33-3.04,7.93c-1.18,2.83-2.56,5.58-4.13,8.22c-0.46,0.77-0.95,1.55-1.56,2.21
			c-1.19,1.28-2.81,2.08-4.18,3.17c-1.51,1.2-2.73,2.78-3.52,4.54c-0.59,1.33-0.94,2.83-0.64,4.25c0.25,1.16,0.76,2.19,0.78,3.39
			c0.06,2.93-0.74,5.77-1.39,8.61c-0.32,1.4-0.59,2.81-0.75,4.24c-0.14,1.32,0.54,2.22,1.04,3.39c0.33,0.79,0.67,1.6,0.67,2.46
			c0,0.6-0.18,1.19-0.35,1.76c-0.45,1.53-0.96,3-1.64,4.44c-0.66,1.39-1.59,2.66-2.17,4.12c-0.36,0.9-0.61,1.84-0.87,2.78
			c-0.96,3.57-2.03,7.22-2.64,10.85c-1,5.94,1.16,11.93,1.35,17.95c0.04,1.2-0.01,2.43-0.42,3.56c-0.27,0.76-0.84,1.62-0.77,2.45
			c0.07,0.76,0.23,1.39,0.16,2.19c-0.15,1.88-0.57,3.73-0.85,5.59c-0.16,1.02-0.28,2.07-0.11,3.09c0.3,1.81,1.6,3.18,3.48,3.27
			c0.85,0.04,1.69-0.13,2.53-0.3c9.68-1.97,19.55-3.06,29.43-3.26c3.38-0.07,6.8-0.12,10.17,0.11c3.72,0.25,7.4,0.9,11.08,1.56
			c4.86,0.87,9.71,1.74,14.57,2.6c1.24,0.22,2.48,0.44,3.72,0.66c1.01,0.18,1.79-0.06,2.73-0.46c1.71-0.72,3.3-1.86,5.19-2.05
			c2.14-0.21,4.17,0.87,6.13,1.75c1.24,0.56,2.57,1.05,3.94,1.11c0.97,0.04,2.05-0.03,2.58-0.89c0.6-0.97,1.07-2.04,1.57-3.06
			c1.01-2.06,1.94-4.17,2.75-6.32c1.59-4.23,2.73-8.65,3.07-13.16c0.25-3.35-1.03-6.36-1.19-9.65c-0.07-1.54,0.25-3.08,0.16-4.62
			c-0.07-1.11-0.35-2.2-0.5-3.31c-0.28-2.05-0.11-4.13-0.03-6.19c0.08-2-0.11-3.93-0.31-5.9c-0.42-4.21-0.93-8.46-0.46-12.68
			c0.16-1.42,0.35-2.82,0.43-4.24c0.04-0.73-0.01-1.86-0.61-2.37c-0.15-0.13-0.33-0.22-0.43-0.38c-0.12-0.2-0.08-0.46-0.04-0.69
			c0.29-1.56,0.77-3.15,0.45-4.71c-0.24-1.17-0.89-2.21-1.43-3.27c-2.04-4.09-2.61-9-3.65-13.42c-0.66-2.79-1.45-5.46-1.45-8.34
			C116.83,37.31,116.82,36.96,116.83,36.6z"/>
		
			<linearGradient id="SVGID_00000176749161351269133820000009601026373547762821_" gradientUnits="userSpaceOnUse" x1="45.0236" y1="59.7982" x2="30.5844" y2="65.2341" gradientTransform="matrix(1 0 0 -1 0 149.8898)">
			<stop  offset="0" style="stop-color:#000000;stop-opacity:0.5"/>
			<stop  offset="0.9985" style="stop-color:#FFFFFF;stop-opacity:0"/>
		</linearGradient>
		<path style="fill:url(#SVGID_00000176749161351269133820000009601026373547762821_);" d="M35.5,79.78c0.27,0.1,0.54,0.21,0.8,0.35
			c0.77,0.42,1.45,1.14,1.5,2.01c0.03,0.42-0.09,0.85-0.26,1.24c-0.24,0.57-0.6,1.09-1.03,1.52c-0.52,0.53-1.15,0.93-1.8,1.29
			c-1.24,0.71-2.55,1.31-3.9,1.78c-1.09,0.38-2.23,0.69-3.2,1.32c-0.6,0.39-1.11,0.88-1.63,1.37c0.18-2.45,1.57-4.8,2.86-6.83
			c0.34-0.54,0.7-1.07,0.93-1.66c0.22-0.55,0.32-1.14,0.43-1.72c0.16-0.91,0.25-1.87,0.44-2.77c0.18-0.84,0.73-0.64,1.12,0.04
			c0.44,0.76,1.26,1.21,2.08,1.5C34.39,79.43,34.96,79.58,35.5,79.78z"/>
		
			<linearGradient id="SVGID_00000178178522494178970600000016732242808674075802_" gradientUnits="userSpaceOnUse" x1="56.3235" y1="36.9268" x2="60.2519" y2="14.928" gradientTransform="matrix(1 0 0 -1 0 149.8898)">
			<stop  offset="0" style="stop-color:#000000;stop-opacity:0.5"/>
			<stop  offset="0.9985" style="stop-color:#FFFFFF;stop-opacity:0"/>
		</linearGradient>
		<path style="fill:url(#SVGID_00000178178522494178970600000016732242808674075802_);" d="M78.18,133.89
			c-1.92-0.44-3.85-0.83-5.79-1.16c-2.23-0.38-4.47-0.67-6.72-0.9c-2.25-0.22-4.51-0.37-6.77-0.43c-2.26-0.07-4.52-0.06-6.78,0.03
			s-4.52,0.25-6.77,0.49s-4.49,0.56-6.72,0.95c-1.11,0.2-2.22,0.41-3.33,0.65c-0.54,0.12-1.1,0.3-1.65,0.36
			c-0.48,0.06-0.94,0.17-1.43,0.06c-0.1-0.02-0.2-0.05-0.25-0.14c-0.1-0.15,0.05-0.22,0.1-0.33c0.06-0.12,0.02-0.33,0.01-0.46
			c-0.04-0.3-0.14-0.59-0.29-0.84c-0.14-0.23-1.08-1.4-1.38-1.3c2.39-0.74,4.96-0.44,7.45-0.28c3.86,0.24,7.74,0.11,11.58-0.39
			c1.94-0.25,3.88-0.6,5.68-1.36c0.25-0.11,0.52-0.25,0.6-0.51c0.09-0.31-0.13-0.62-0.33-0.88c-0.44-0.6-0.76-1.28-0.94-2
			c-0.05-0.21-0.09-0.45,0.03-0.64s0.36-0.25,0.57-0.29c4.79-1.02,9.82-0.93,14.58,0.28c4.39,1.11,8.48,3.14,12.54,5.15
			c1.34,0.67,2.7,1.34,3.92,2.21c1.3,0.94,2.44,2.1,3.38,3.4C85.66,135.84,81.9,134.75,78.18,133.89z"/>
		
			<linearGradient id="SVGID_00000039102794282851197280000017918618318630125470_" gradientUnits="userSpaceOnUse" x1="107.2702" y1="19.3207" x2="93.6571" y2="13.9822" gradientTransform="matrix(1 0 0 -1 0 149.8898)">
			<stop  offset="0" style="stop-color:#000000;stop-opacity:0.5"/>
			<stop  offset="0.9985" style="stop-color:#FFFFFF;stop-opacity:0"/>
		</linearGradient>
		<path style="fill:url(#SVGID_00000039102794282851197280000017918618318630125470_);" d="M95.42,134.81
			c0.03-0.65,0.06-1.31,0.15-1.96c0.3-2.14,1.28-4.17,2.75-5.75c-0.18,0.98-0.35,1.97-0.53,2.95c-0.06,0.34-0.12,0.68-0.09,1.02
			c0.08,0.85,0.74,1.55,1.45,2.02s1.52,0.81,2.19,1.35c0.67,0.54,1.2,1.37,1.05,2.22c-0.02,0.13-0.06,0.27-0.04,0.4
			c0.07,0.42,0.62,0.5,1.04,0.49c0.42,0,0.98,0.14,0.98,0.56c-0.8,0.45-1.59,0.9-2.39,1.35c-0.56,0.31-1.12,0.63-1.72,0.83
			c-0.53,0.17-1.08,0.24-1.63,0.28c-0.9,0.06-3.25,0.21-3.45-0.94c-0.11-0.68,0.08-1.54,0.11-2.23
			C95.34,136.54,95.38,135.67,95.42,134.81z"/>
		
			<linearGradient id="SVGID_00000158741966690879314390000002988737136839198880_" gradientUnits="userSpaceOnUse" x1="113.284" y1="43.0127" x2="128.3807" y2="44.757" gradientTransform="matrix(1 0 0 -1 0 149.8898)">
			<stop  offset="0" style="stop-color:#000000;stop-opacity:0.5"/>
			<stop  offset="0.9985" style="stop-color:#FFFFFF;stop-opacity:0"/>
		</linearGradient>
		<path style="fill:url(#SVGID_00000158741966690879314390000002988737136839198880_);" d="M122.09,99.28
			c0.08-0.11,0.17-0.22,0.26-0.35c0.57-0.81,1.04-1.74,1.47-2.63c0.45,2.05,0.72,4.13,0.81,6.23c0.04,1.04-0.09,2.11-0.01,3.14
			c0.07,0.92,0.18,1.8,0.13,2.74c-0.03,0.51-0.08,1.02-0.06,1.53c0.07,1.66,0.96,3.2,1.03,4.86c-0.52-0.47-1.04-0.93-1.56-1.4
			c-0.58-0.52-1.16-1.04-1.59-1.69s-0.69-1.44-0.55-2.2c0.19-1.04,1.11-2.03,0.73-3.03c-0.18-0.47-0.62-0.79-0.94-1.19
			c-1.05-1.29-1.03-3.09-0.56-4.61C121.43,100.08,121.74,99.72,122.09,99.28z"/>
		
			<linearGradient id="SVGID_00000103237166586509363810000005519488480206298501_" gradientUnits="userSpaceOnUse" x1="120.8432" y1="22.0086" x2="106.3038" y2="17.8776" gradientTransform="matrix(1 0 0 -1 0 149.8898)">
			<stop  offset="0" style="stop-color:#000000;stop-opacity:0.5"/>
			<stop  offset="0.9985" style="stop-color:#FFFFFF;stop-opacity:0"/>
		</linearGradient>
		<path style="fill:url(#SVGID_00000103237166586509363810000005519488480206298501_);" d="M105.07,129.2
			c-0.09,0.01-0.19,0.03-0.25,0.1c-0.11,0.14,0.02,0.33,0.15,0.45c2.23,2.06,5.38,2.76,8.4,3c0.51,0.04,1.02,0.07,1.52-0.01
			c0.14-0.02,0.3-0.08,0.32-0.21c0.02-0.09-0.03-0.17-0.09-0.25c-0.48-0.63-1.37-0.75-2.16-0.81s-1.66-0.13-2.21-0.7
			c-0.63-0.67-1.07-1.36-2.04-1.57C107.57,128.94,106.23,129.05,105.07,129.2z"/>
		
			<linearGradient id="SVGID_00000119810777556443368920000012825021885904379280_" gradientUnits="userSpaceOnUse" x1="77.2249" y1="91.5056" x2="76.0426" y2="103.6757" gradientTransform="matrix(1 0 0 -1 0 149.8898)">
			<stop  offset="0" style="stop-color:#000000;stop-opacity:0.5"/>
			<stop  offset="0.9985" style="stop-color:#FFFFFF;stop-opacity:0"/>
		</linearGradient>
		<path style="fill:url(#SVGID_00000119810777556443368920000012825021885904379280_);" d="M66.3,47.15
			c0.78,0.47,1.59,0.91,2.46,1.17c1.11,0.34,2.29,0.4,3.46,0.37c7-0.14,13.73-2.94,20.72-3.19c-2.84,0.52-5.62,1.35-8.39,2.15
			c-8.13,2.37-16.41,4.58-24.88,4.68c2.01-1.16,4.1-2.18,6.25-3.05c-1.98-1.53-3.81-3.24-5.47-5.1c-0.29-0.33-0.6-0.71-0.54-1.16
			C62.33,43.67,64.2,45.88,66.3,47.15z"/>
		<path class="st21" d="M89.8,116.46c-1.93,1.95-4.65,4.07-7.64,3.99c-1.26-0.04-2.54-0.64-2.93-1.71
			c-0.18-0.49-0.19-1.09-0.62-1.42c-0.31-0.24-0.75-0.27-1.16-0.32c-2.95-0.41-5.17-3.1-4.8-5.84c0.41-2.98,7.72-8.48,8.95-4.18
			c0.32,1.11,1.41,1.98,2.68,2.13c1.02,0.12,2.07-0.2,3.06-0.51c1-0.31,2.04-0.63,3.06-0.52C95.1,108.59,91.57,114.68,89.8,116.46z"
			/>
		<path class="st21" d="M82.74,83.99c-0.31-2.12-1.88-3.16-4.02-3.61c-0.97-1.49-0.92-3.34-2.17-4.92c-1.27-1.61-3.36-2.16-5.25-2.7
			c-4.23-1.2-10.19-2.97-14.36-0.66c-2.03,1.13-3.49,3.45-2.26,5.71c1.29,2.36,3.91,2.1,6.13,2.83c0.43,0.14,0.85,0.44,0.97,0.88
			c0.17,0.6-0.25,1.2-0.64,1.69c-0.37,0.46-0.74,0.91-1.1,1.37c-0.22,0.27-0.45,0.56-0.54,0.9c-0.14,0.5,0.05,1.04,0.31,1.5
			c1.2,2.11,4.15,2.44,6.37,2.72c5.43,0.68,8.84-4.56,14.32-3.47C81.97,86.53,82.95,85.4,82.74,83.99z"/>
		<path class="st21" d="M123.34,71.34c0-0.37-0.02-0.75-0.08-1.16c-0.03-0.24-0.07-0.48-0.18-0.69c-0.27-0.51-0.86-0.72-1.39-0.96
			c-1.06-0.47-2-1.18-2.91-1.9c-0.33-0.26-0.66-0.51-0.96-0.8c-0.59-0.56-1.09-1.22-1.57-1.87c-0.45-0.61-0.91-1.22-1.36-1.83
			c-1.45-1.95-2.94-3.94-3.81-6.23c-0.12-0.31-0.3-1.44-0.75-1.44c-0.41,0-0.69,0.89-0.81,1.19c-0.47,1.12-0.77,2.3-1.25,3.41
			c-0.28,0.65-0.56,1.44-0.16,2.02c0.51,0.74,1.62,0.55,2.51,0.72c1.56,0.29,2.53,1.8,3.32,3.18c0.45,0.78,0.9,1.58,1.02,2.47
			s-0.16,1.89-0.92,2.37c-0.7,0.44-1.6,0.34-2.43,0.32c-0.83-0.03-1.79,0.11-2.24,0.81c-0.33,0.52-0.27,1.19-0.11,1.79
			c0.3,1.15,1.21,2.37,2.39,2.23c0.59-0.07,1.08-0.46,1.62-0.68s1.3-0.21,1.58,0.31c0.38,0.69-0.42,1.58-0.1,2.3
			c0.28,0.63,1.13,0.64,1.79,0.84c1.3,0.41,2.01,1.84,2.24,3.19c0.22,1.35,0.12,2.75,0.49,4.06c0.45,1.56,1.6,2.91,3.08,3.59
			c0.28-1.31,0.22-2.69-0.19-3.97c-0.22-0.71-0.54-1.49-0.21-2.15c0.67-1.33,0.93-1.81,0.71-3.36c-0.23-1.62-0.09-3.29,0.28-4.89
			C123.18,73.19,123.34,72.3,123.34,71.34z"/>
		<path class="st21" d="M47.6,73.42c-0.08,0-0.15,0.01-0.23,0.01c-0.41-0.09-0.86-0.21-1.27-0.17c-0.44,0.04-0.9,0.23-1.32,0.42
			c-0.46,0.07-0.91,0.15-1.35,0.23c-1.5,0.28-2.93,0.81-4.42,1.18c-1.37,0.34-2.71,0.44-4.1,0.21c-0.36-0.06-0.73-0.15-1.09-0.25
			c-0.43-0.19-0.83-0.44-1.27-0.59c-0.27-0.19-0.54-0.37-0.88-0.38c-0.15,0-0.28,0.13-0.28,0.28c0,0.13,0.02,0.26,0.07,0.39
			c-0.06,0.14-0.08,0.3-0.04,0.44c0.15,0.45,0.38,0.68,0.69,1.04c0.3,0.35,0.32,0.45,0.39,0.86c0.15,0.91,0.89,1.3,1.67,1.59
			c1.61,0.61,3.41,0.57,5.04,0.08c1.56-0.47,2.94-1.34,4.16-2.4c0.59-0.51,1.18-0.98,1.85-1.39c0.35-0.22,0.71-0.41,1.08-0.59
			c0.39-0.2,0.71-0.47,1.12-0.62c0.07-0.01,0.14-0.03,0.2-0.04C47.81,73.69,47.77,73.42,47.6,73.42z"/>
		<path class="st21" d="M109.93,77.99c-0.84-0.08-1.7,0.21-2.51,0.42c-1.06,0.27-2.12,0.53-3.2,0.69c-0.72,0.11-1.46,0.16-2.2,0.19
			c-1.35-0.32-2.77-0.36-4.13-0.63c-1.4-0.27-2.76-0.66-4.12-1.06c-2.62-0.78-5.35-1.9-8.09-2.21c0,0,0,0-0.01,0l0,0
			c-0.05-0.01-0.11-0.02-0.16-0.02v0.02c-0.04,0-0.08,0.01-0.11,0.02c-0.71-0.52-1.54-1.06-2.38-0.95
			c-0.11,0.02-0.12,0.16-0.06,0.23c0.41,0.5,1.04,0.71,1.57,1.06c0.14,0.09,0.25,0.2,0.38,0.29c0,0.18,0.09,0.35,0.3,0.46
			c0.19,0.1,0.38,0.19,0.58,0.28c0.18,0.18,0.37,0.35,0.54,0.55c0.96,1.11,1.66,2.47,2.81,3.41c0.49,0.4,1.07,0.73,1.71,0.76
			c0.29,0.01,0.51-0.06,0.79-0.09c0.51-0.05,0.82,0.07,1.29,0.29c1.37,0.64,2.63,1.47,3.97,2.16c2.48,1.26,5.56,2.06,8.16,0.63
			c0.69-0.38,1.23-0.95,1.85-1.41c0.63-0.47,1.35-0.78,2.01-1.2c1-0.64,2.08-1.92,2.02-3.18C110.91,78.13,110.36,77.82,109.93,77.99
			z"/>
		<path class="st21" d="M43.69,120.59c-0.76-0.25-1.44-0.71-2.18-1.02c-0.66-0.28-1.27-0.64-1.86-1.03c-0.24-0.2-0.5-0.37-0.76-0.52
			c-1.4-1.01-2.75-2.14-4.11-3.21c-0.2-0.16-0.4-0.33-0.6-0.5c-0.1-0.29-0.27-0.56-0.44-0.82c-0.24-0.38-0.48-0.76-0.74-1.13
			c-0.48-0.68-1-1.34-1.4-2.07c-0.14-0.52-0.26-1.05-0.36-1.58c-0.07-0.39-0.11-0.79-0.17-1.19c-0.08-0.49-0.36-0.94-0.39-1.44
			c-0.01-0.13-0.19-0.13-0.2,0c-0.05,0.51-0.33,0.94-0.4,1.45c-0.06,0.44-0.06,0.9-0.06,1.34c0,0.86,0.1,1.73,0.28,2.57
			c0.26,1.17,0.76,2.17,1.44,3.07c0.01,0.23,0.01,0.47,0,0.71c-0.04,1.05,0.18,2.18,1.2,2.72c0.49,0.26,0.97,0.17,1.49,0.27
			s1.02,0.36,1.5,0.56c0.4,0.17,0.8,0.33,1.2,0.5c0.27,0.2,0.54,0.4,0.82,0.59c0.78,0.55,1.69,0.9,2.61,1.15
			c0.48,0.13,0.99,0.26,1.48,0.31c0.49,0.04,0.94-0.04,1.43,0.03C43.97,121.42,44.18,120.75,43.69,120.59z"/>
		<path class="st21" d="M44.55,123.3c-0.14,0.03-0.26,0.07-0.41,0.01c-0.08-0.03-0.15-0.1-0.25-0.12c-0.21-0.06-0.43-0.09-0.65-0.14
			c-0.21-0.05-0.4-0.13-0.6-0.19c-0.22-0.07-0.46-0.09-0.69-0.14c-0.09-0.02-0.19-0.05-0.28-0.07c-0.04-0.07-0.1-0.14-0.18-0.19
			c-0.11-0.06-0.21-0.13-0.32-0.19c-0.14-0.08-0.29-0.13-0.45-0.18c-0.25-0.08-0.49-0.17-0.74-0.25c-0.23-0.08-0.46-0.15-0.68-0.23
			c-0.1-0.03-0.19-0.07-0.29-0.1c-0.04-0.01-0.1-0.02-0.14-0.05c0.12,0.08-0.04-0.02-0.06-0.04c-0.2-0.11-0.44-0.08-0.61,0.07
			c-0.2-0.15-0.4-0.29-0.59-0.45c-0.13-0.1-0.36-0.01-0.3,0.18c0.23,0.68,0.49,1.37,0.89,1.97c0.23,0.34,0.5,0.73,0.92,0.84
			c0.36,0.1,0.73-0.04,1.1,0c0.78,0.08,1.52,0.53,2.32,0.42c0.38-0.05,0.78-0.13,1.14-0.27c0.16-0.06,0.35-0.14,0.47-0.25
			c0.05-0.05,0.07-0.13,0.13-0.17c0.08-0.07,0.27-0.1,0.37-0.14C44.84,123.54,44.76,123.26,44.55,123.3z"/>
		<path class="st21" d="M87.66,31.7c-0.68,0.15-1.24,0.42-2.11,0.64c-1.48,0.37-3.05,0.39-4.56,0.37c-2.33-0.02-4.65-0.3-6.97-0.33
			c-2.47-0.03-4.87,0.21-7.31,0.53c-1.58,0.2-2.94-0.15-4.29-0.96c-1.25-0.75-2.27-0.88-3.74-1.08c-1.92-0.26-4.03-0.69-5.18-2.24
			c0.22,0.3-0.28,1.97,0.08,2.64c0.4,0.73,1.15,1.17,1.84,1.57c1.89,1.1,4,1.83,5.41,3.62c0.75,0.95,1.15,2.27,0.7,3.39
			c-0.12,0.29-0.29,0.58-0.28,0.89c0.02,0.82,1.1,1.07,1.91,1.16c1.9,0.21,3.75,0.85,5.38,1.85c0.57,0.35,1.13,0.77,1.4,1.38
			c0.16,0.35,0.21,0.74,0.36,1.1c0.63,1.46,2.61,1.69,4.18,1.45c1.41-0.22,2.82-0.64,3.98-1.48c0.79-0.57,3.33-3.05,3.33-4.1
			c0-0.8-3.12-3.18-0.37-3.35c0.68-0.04,1.31,0.36,1.85,0.77c0.54,0.42,1.08,0.89,1.75,1.03c0.83,0.18,1.76-0.23,2.19-0.97
			c0.42-0.74,0.31-1.75-0.27-2.37c0.19,0.21,2.53-0.43,2.82-0.75c0.6-0.65,0.14-2.4,1.48-2.41c0.27,0,0.53,0.13,0.78,0.22
			c1.16,0.44,2.56,0.19,3.49-0.63s1.36-2.17,1.07-3.38c-2.45,0.76-4.96,1.54-7.52,1.35C88.51,31.57,88.07,31.61,87.66,31.7z"/>
		<g>
			<path class="st21" d="M69.35,47.51c0.01-0.05,0.01-0.09,0.02-0.14c0,0.01-0.01,0.02-0.01,0.04
				C69.36,47.45,69.36,47.48,69.35,47.51z"/>
			<path class="st21" d="M69.37,47.37c0-0.01,0-0.02,0-0.04C69.38,47.35,69.38,47.36,69.37,47.37L69.37,47.37z"/>
		</g>
		<path class="st21" d="M63.65,93.01c-0.43-0.01-0.87,0.01-1.3,0.06c-1.45,0.15-2.85,0.65-4.26,1.05c-2.78,0.79-5.65,1.22-8.54,1.29
			c-0.62,0.01-1.29,0-1.81-0.35c-1.03-0.68-0.11-1.98-1.09-2.78c-0.59-0.48-1.37-0.48-2.1-0.56c-2.37-0.23-4.63-0.68-6.73,0.7
			c-1.76,1.16-3.01,3.15-3.09,5.28c-0.02,0.42,0.01,0.84-0.09,1.25c-0.16,0.67-0.63,1.21-0.99,1.79c-1.8,2.86-1.14,6.74,0.72,9.56
			s4.7,4.82,7.47,6.75c2.12,1.48,4.43,3.36,7.01,3.91c1.77,0.38,3.34-0.39,4.46-1.75c0.84-1.02,1.63-4.43,3.56-3.49
			c0.43,0.21,0.75,0.62,1.19,0.83c0.85,0.41,1.88-0.06,2.57-0.7c1.08-0.99,1.73-2.54,1.35-3.96s-1.69-2.42-3.07-2.92
			s-2.86-0.63-4.3-0.96c-0.24-0.05-0.52-0.15-0.6-0.39c-0.07-0.22,0.07-0.44,0.22-0.61c1.45-1.67,3.94-1.81,6.05-2.5
			c2.62-0.85,4.8-2.66,6.81-4.54c0.83-0.78,1.66-1.6,2.1-2.65c0.44-1.05,0.39-2.38-0.41-3.19c-0.68-0.69-1.72-0.85-2.68-0.96
			C65.29,93.11,64.47,93.02,63.65,93.01z"/>
		
			<linearGradient id="SVGID_00000088115538737171401650000011370070074958195629_" gradientUnits="userSpaceOnUse" x1="82.5457" y1="133.0043" x2="75.4777" y2="94.7729" gradientTransform="matrix(1 0 0 -1 0 149.8898)">
			<stop  offset="0" style="stop-color:#FFF155;stop-opacity:0.5"/>
			<stop  offset="0.0125" style="stop-color:#FF7715;stop-opacity:0.3"/>
			<stop  offset="1" style="stop-color:#F7F7F7;stop-opacity:0"/>
		</linearGradient>
		<path style="fill:url(#SVGID_00000088115538737171401650000011370070074958195629_);" d="M53.73,25.64
			c0.04-0.59,0.05-1.18-0.11-1.74c-0.06-0.22-0.19-0.46-0.42-0.48c-0.18-0.02-0.34,0.12-0.46,0.27c-0.52,0.62-0.6,1.27-0.82,2
			c-0.25,0.8-0.62,1.49-0.53,2.37c0.14,1.42,1.37,2.62,1.3,4.05c-0.07,1.39-1.34,2.4-1.88,3.68c-0.09,0.21-0.16,0.43-0.13,0.65
			c0.05,0.44,0.43,0.75,0.74,1.07c0.76,0.76,1.24,1.79,1.33,2.86c0.09,1.03-0.17,2.06-0.25,3.09s0.08,2.17,0.82,2.89
			c1.71,1.65,5.06-0.03,6.72,1.67c1.22,1.26,0.55,3.31,0.47,5.07c-0.14,3.37,2.22,6.29,4.58,8.7c0.95,0.97,2.07,1.98,3.43,1.94
			c1.55-0.04,2.69-1.42,4.09-2.11c0.45-0.22,0.96-0.37,1.45-0.28c0.64,0.12,1.14,0.64,1.77,0.8c1.12,0.29,2.3-0.78,2.3-1.93
			c0-1.16-0.99-2.17-2.12-2.39c2.22-0.47,4.38-1.27,6.37-2.37c1.34-0.74,2.79-2.11,2.25-3.55c-0.36-0.96-1.49-1.45-1.92-2.38
			c-0.64-1.39,0.53-2.92,1.71-3.89c0.99-0.8,2.06-1.51,3.18-2.12c-0.11,3.27-0.2,6.59,0.67,9.74c0.13,0.46,0.31,0.96,0.74,1.16
			c0.62,0.29,1.35-0.28,1.51-0.94s-0.08-1.34-0.32-1.98c-0.53-1.44-1.06-2.88-1.6-4.32c-0.15-0.4-0.3-0.84-0.19-1.25
			c0.08-0.28,0.26-0.51,0.44-0.73c0.51-0.63,1.02-1.27,1.54-1.9c0.6-0.74,1.72-1.64,2.56-0.65c0.3,0.35,0.54,0.8,0.97,0.93
			c0.57,0.17,1.16-0.36,1.25-0.94c0.09-0.58-0.19-1.16-0.53-1.64c-0.32-0.46-0.72-0.89-0.88-1.43c-0.15-0.54,0.06-1.24,0.6-1.39
			c0.26-0.07,0.53,0,0.79,0.04c0.39,0.06,0.8,0.05,1.13,0.26c0.57,0.36,0.62,1.15,0.66,1.82c0.07,1.27,0.34,2.61,1.24,3.51
			c0.61,0.61,1.45,0.95,2.3,1.11c0.63,0.12,1.28,0.14,1.91,0.01c0.95-0.19,1.81-0.72,2.59-1.3c1.25-0.93,2.46-2.2,2.47-3.75
			c0.01-0.46-0.11-0.94-0.39-1.3c-0.32-0.4-0.82-0.61-1.31-0.76c-2.23-0.65-4.67-0.18-6.88-0.9c-0.53-0.17-1.05-0.42-1.43-0.83
			c-0.38-0.41-0.6-1-0.45-1.53c0.19-0.7,0.87-1.08,1.32-1.6c0.24-0.28,0.24-0.55,0.4-0.85c0.17-0.31,0.54-0.51,0.86-0.67
			c0.55-0.28,1.16-0.85,0.86-1.39c-0.18-0.33-0.67-0.57-0.54-0.92c0.05-0.14,0.19-0.22,0.32-0.29c1.14-0.57,2.46-0.73,3.59-1.34
			c0.88-0.47,1.61-1.2,2.09-2.08c0.38-0.7,0.52-1.72-0.13-2.18c-0.56-0.4-1.34-0.12-1.93,0.24c-1.66,1-2.96,2.49-4.19,3.99
			c-0.76,0.93-1.52,1.88-2.51,2.55c-0.99,0.67-2.29,1.02-3.41,0.6c-0.46-0.17-0.86-0.45-1.32-0.62s-1.02-0.18-1.38,0.15
			s-0.3,1.06,0.18,1.18c-5.76,0.85-11.61,0.78-17.43,0.69c-2.47-0.04-4.95-0.08-7.42-0.14c-2.69-0.07-5.52-0.21-7.77-1.68
			c-0.51-0.34-1.19-0.74-1.68-0.36c-0.11,0.09-0.2,0.21-0.33,0.27c-0.21,0.09-0.45-0.03-0.66-0.14c-0.74-0.43-1.52-0.9-1.91-1.66
			C53.56,27.52,53.67,26.58,53.73,25.64z"/>
		
			<linearGradient id="SVGID_00000183214387207664173160000008308876560747130774_" gradientUnits="userSpaceOnUse" x1="73.6194" y1="101.073" x2="27.0678" y2="85.8543" gradientTransform="matrix(1 0 0 -1 0 149.8898)">
			<stop  offset="0" style="stop-color:#FFF155;stop-opacity:0.5"/>
			<stop  offset="0.0125" style="stop-color:#FF7715;stop-opacity:0.3"/>
			<stop  offset="1" style="stop-color:#F7F7F7;stop-opacity:0"/>
		</linearGradient>
		<path style="fill:url(#SVGID_00000183214387207664173160000008308876560747130774_);" d="M37.43,46.65
			c-0.56,0.12-1.15,0.21-1.59,0.56c-0.27,0.21-0.46,0.5-0.65,0.79c-0.74,1.18-1.36,2.44-1.85,3.75c-0.25,0.67-0.44,1.47-0.03,2.04
			c0.54,0.75,1.8,0.65,2.36,1.39c0.45,0.6,0.24,1.45,0.01,2.16c-0.74,2.32-1.42,4.66-2.04,7.01c-0.39,1.47-0.75,3.04-0.31,4.49
			c0.48,1.57,1.95,2.79,3.58,2.97c0.54,0.06,1.13,0,1.57-0.32c0.77-0.57,0.85-1.76,1.62-2.33c0.5-0.38,1.2-0.39,1.8-0.22
			s1.14,0.51,1.69,0.82c4.29,2.35,9.76,2.4,14.09,0.1c0.29-0.16,0.63-0.41,0.56-0.74c-0.06-0.27-0.36-0.41-0.63-0.49
			c-3.81-1.16-7.91-0.72-11.88-1.13c-0.85-0.09-1.85-0.32-2.17-1.11c-0.1-0.25-0.1-0.58,0.11-0.75c0.2-0.16,0.48-0.12,0.73-0.08
			c2.59,0.35,5.06-1.06,7.3-2.42c0.81-0.49,1.68-1.07,1.91-1.98c0.28-1.08-0.46-2.14-1.16-3.01c-0.27-0.34-0.55-0.68-0.94-0.85
			c-0.35-0.15-0.75-0.14-1.13-0.07c-1.51,0.3-2.63,1.51-3.81,2.51c-0.7,0.59-1.46,1.12-2.28,1.56c-0.88,0.47-1.93,0.82-2.85,0.44
			c-0.81-0.34-1.32-1.2-1.43-2.07s0.13-1.75,0.45-2.57c0.36-0.91,0.8-2.03,0.16-2.76c-0.5-0.57-1.47-0.6-1.87-1.25
			c0.57-0.53,1.09-1.1,1.58-1.71c0.25-0.31,0.49-0.65,0.58-1.04s-0.01-0.85-0.34-1.08c0.55-0.57,1.53-0.14,2.1,0.42
			c0.21,0.2,0.43,0.43,0.71,0.46c0.23,0.02,0.45-0.08,0.65-0.2c0.96-0.54,1.82-1.25,2.53-2.09c0.13-0.15,0.26-0.32,0.26-0.52
			c0.01-0.32-0.31-0.56-0.62-0.63c-0.46-0.11-0.93,0-1.4-0.03s-0.99-0.29-1.06-0.75c-0.02-0.19,0.03-0.38,0.1-0.56
			c0.23-0.63,0.55-1.23,0.96-1.78c0.18-0.24,0.93-0.84,0.75-1.17c-0.42-0.8-1.66,0.33-1.93,0.63C42,44.84,39.81,46.14,37.43,46.65z"
			/>
		
			<linearGradient id="SVGID_00000156545964333471233470000006726730113734559884_" gradientUnits="userSpaceOnUse" x1="25.7987" y1="78.8242" x2="73.9808" y2="41.0027" gradientTransform="matrix(1 0 0 -1 0 149.8898)">
			<stop  offset="0" style="stop-color:#FFF155;stop-opacity:0.5"/>
			<stop  offset="0.0125" style="stop-color:#FF7715;stop-opacity:0.3"/>
			<stop  offset="1" style="stop-color:#F7F7F7;stop-opacity:0"/>
		</linearGradient>
		<path style="fill:url(#SVGID_00000156545964333471233470000006726730113734559884_);" d="M32.47,100.12
			c0.08-0.8,0.17-1.57,0.23-2.3c0.03-0.41,0.06-0.85-0.19-1.18c-0.17-0.23-0.45-0.36-0.68-0.54c-0.93-0.75-0.71-2.29,0.04-3.22
			s1.87-1.47,2.8-2.23c0.26-0.21,0.52-0.45,0.62-0.77c0.09-0.28,0.06-0.59,0.09-0.89c0.1-0.99,0.91-1.77,1.78-2.25
			s1.84-0.78,2.67-1.34c1.78-1.21,2.55-3.43,4.01-5.02c2.33-2.54,6.05-3.15,9.48-3.45c3.59-0.31,7.21-0.45,10.81-0.41
			c3.15,0.04,6.68-0.19,9.65,1c1.4,0.56,2.73,1.51,3.28,2.92c0.25,0.64,0.26,1.48-0.29,1.88c-0.26,0.19-0.6,0.24-0.93,0.29
			c-1.62,0.22-3.1,0.49-4.73,0.33c-1.76-0.17-3.53-0.32-5.3-0.35c-0.88-0.01-1.83,0.03-2.5,0.59c-0.25,0.21-0.45,0.51-0.43,0.84
			c0.02,0.28,0.19,0.51,0.38,0.72c1.01,1.18,2.38,1.98,3.55,3c1.18,1.01,2.22,2.38,2.2,3.93c-0.01,0.93-0.4,1.81-0.62,2.71
			c-0.2,0.82-0.27,1.7-0.67,2.44c-0.67,1.22-2.12,1.8-3.5,2c-5.3,0.76-10.49-2.73-15.82-2.19c-0.7,0.07-1.41,0.22-1.99,0.63
			c-0.46,0.33-0.8,0.8-1.11,1.28c-2.26,3.5-3.31,7.76-2.94,11.9c0.02,0.2,0.03,0.43-0.1,0.59c-0.09,0.1-0.22,0.15-0.34,0.19
			c-2.55,0.82-5.5,0.06-7.43-1.76C31.95,107.06,32.14,103.41,32.47,100.12z"/>
		
			<linearGradient id="SVGID_00000011005963319357671340000003360930477193978529_" gradientUnits="userSpaceOnUse" x1="110.6103" y1="31.1678" x2="94.5259" y2="62.8243" gradientTransform="matrix(1 0 0 -1 0 149.8898)">
			<stop  offset="0" style="stop-color:#947000;stop-opacity:0.5"/>
			<stop  offset="1" style="stop-color:#F7F7F7;stop-opacity:0"/>
		</linearGradient>
		<path style="fill:url(#SVGID_00000011005963319357671340000003360930477193978529_);" d="M85.66,76.53
			c0.57,0.92,0.21,2.14,0.51,3.18c0.51,1.79,2.64,2.44,4.07,3.63c1.49,1.24,2.23,3.14,2.92,4.95c0.78,2.07,1.57,4.14,2.28,6.24
			c0.43,1.28,0.85,2.61,0.67,3.95c-0.23,1.78-1.49,3.47-1.04,5.2c0.1,0.4,0.3,0.77,0.42,1.16c0.66,2.11-0.79,4.37-0.43,6.55
			c0.03,0.2,0.08,0.41,0.2,0.58c0.34,0.51,1.11,0.54,1.67,0.28c0.88-0.4,1.44-1.29,1.77-2.2c0.33-0.91,0.49-1.87,0.85-2.77
			c0.67-1.67,2.05-3.04,3.73-3.7c0.57-0.22,1.22-0.4,1.56-0.91c0.44-0.68,0.12-1.58-0.18-2.33c-0.97-2.44-1.52-5.03-1.64-7.65
			c-0.06-1.29,0-2.64,0.64-3.75c0.59,0.07,1.09,0.45,1.65,0.65s1.32,0.16,1.57-0.38c0.11-0.23,0.1-0.5,0.06-0.75
			c-0.2-1.32-1.09-2.51-2.29-3.09c-1.2-0.57-2.63-0.54-3.79-1.17c-1.31-0.72-2.16-2.24-3.62-2.6c-0.61-0.15-1.26-0.08-1.87-0.22
			c-2.4-0.55-3-3.83-5.07-5.17c-1.36-0.88-3.82-1.9-5.45-2.13C82.19,73.72,85.21,75.81,85.66,76.53z"/>
		<g>
			<path d="M34,75.04c2.4,1.19,5.23,0.07,7.64-0.53c2.92-0.72,5.91-1.29,8.93-1.11c0.19,0.01,0.19-0.28,0-0.29
				c-2.86-0.18-5.69,0.32-8.46,0.98c-1.33,0.32-2.65,0.71-3.99,0.97c-1.33,0.26-2.74,0.33-3.98-0.28
				C33.98,74.71,33.84,74.96,34,75.04L34,75.04z"/>
		</g>
		<g>
			<path d="M82.64,74.4c3.66,1.29,7.37,2.48,11.11,3.53c1.75,0.49,3.51,0.91,5.32,1.08c1.92,0.19,3.85,0.12,5.77-0.08
				c2.13-0.22,4.24-0.6,6.34-0.98c0.18-0.03,0.11-0.31-0.08-0.28c-3.73,0.68-7.52,1.36-11.33,1.11c-1.89-0.12-3.73-0.52-5.55-1.02
				s-3.63-1.04-5.43-1.61c-2.04-0.64-4.07-1.32-6.09-2.03C82.54,74.06,82.47,74.34,82.64,74.4L82.64,74.4z"/>
		</g>
		<g>
			<path d="M59.01,71.77c2.6-0.62,5.28-0.48,7.89,0.01c1.27,0.24,2.53,0.54,3.77,0.88c0.62,0.17,1.24,0.34,1.86,0.52
				c0.55,0.16,1.21,0.29,1.5,0.84c0.04-0.07,0.08-0.15,0.13-0.22c-1.98,0.16-3.97,0.24-5.96,0.24c-0.19,0-0.19,0.29,0,0.29
				c1.99,0,3.98-0.08,5.96-0.24c0.11-0.01,0.18-0.12,0.13-0.22c-0.23-0.44-0.66-0.66-1.11-0.81c-0.62-0.21-1.26-0.37-1.88-0.54
				c-1.38-0.38-2.76-0.74-4.17-1c-2.7-0.51-5.48-0.68-8.18-0.03C58.75,71.53,58.82,71.81,59.01,71.77L59.01,71.77z"/>
		</g>
		<g>
			<path d="M47.12,128.26c-5.55-0.77-11.21-0.62-16.7,0.45c-1.58,0.31-3.15,0.7-4.7,1.16c-0.13,0.04-0.14,0.25,0,0.28
				c1.78,0.42,3.6,0.5,5.41,0.23c0.18-0.03,0.11-0.31-0.08-0.28c-1.75,0.26-3.53,0.18-5.26-0.23c0,0.09,0,0.19,0,0.28
				c5.33-1.59,10.91-2.28,16.47-2.05c1.6,0.07,3.2,0.21,4.78,0.43C47.22,128.56,47.3,128.28,47.12,128.26L47.12,128.26z"/>
		</g>
		<g>
			<path d="M31.2,101.8c-1.11,3.05-0.63,6.44,0.78,9.31c1.48,3.01,3.98,5.36,6.76,7.16c1.64,1.06,3.39,1.95,5.17,2.74
				c0.17,0.08,0.32-0.18,0.15-0.25c-3.02-1.34-5.99-2.96-8.41-5.25c-2.36-2.23-4.12-5.1-4.64-8.34c-0.28-1.78-0.15-3.6,0.47-5.3
				C31.55,101.7,31.27,101.62,31.2,101.8L31.2,101.8z"/>
		</g>
		<g>
			<path d="M37.19,120.72c2.35,1.71,5.26,2.26,8.06,2.77c0.18,0.03,0.26-0.25,0.08-0.28c-2.78-0.5-5.66-1.05-7.99-2.74
				C37.19,120.36,37.04,120.61,37.19,120.72L37.19,120.72z"/>
		</g>
		<g>
			<path d="M92.77,108.72c-0.1,4.14-2.13,8.15-5.42,10.66c-0.15,0.11,0,0.36,0.15,0.25c3.37-2.58,5.46-6.66,5.56-10.91
				C93.06,108.53,92.77,108.53,92.77,108.72L92.77,108.72z"/>
		</g>
		<g>
			<path d="M89.97,120.11c-0.55,0.41-1.1,0.83-1.65,1.24c-0.06,0.05-0.09,0.13-0.05,0.2c0.04,0.06,0.14,0.1,0.2,0.05
				c0.55-0.41,1.1-0.83,1.65-1.24c0.06-0.05,0.09-0.13,0.05-0.2C90.13,120.1,90.03,120.06,89.97,120.11L89.97,120.11z"/>
		</g>
		<g>
			<path d="M115.18,132.71c-2.56-0.11-5.18-0.38-7.55-1.43c-0.53-0.24-1.04-0.51-1.52-0.82c-0.27-0.17-0.53-0.35-0.77-0.55
				c-0.09-0.07-0.21-0.15-0.29-0.24c-0.13-0.1-0.18-0.24-0.15-0.43c0.08-0.03,0.17-0.05,0.26-0.05c1.31-0.13,2.72,0.1,4,0.39
				c0.18,0.04,0.26-0.24,0.08-0.28c-1.17-0.27-2.38-0.42-3.58-0.41c-0.31,0-0.87-0.07-1.06,0.26c-0.21,0.38,0.25,0.72,0.49,0.92
				c1.71,1.38,3.82,2.14,5.96,2.52c1.37,0.25,2.75,0.35,4.14,0.41C115.36,133.01,115.36,132.72,115.18,132.71L115.18,132.71z"/>
		</g>
		<g>
			<path d="M108.84,128.08c0.7,0.2,1.4,0.4,2.1,0.6c0.18,0.05,0.26-0.23,0.08-0.28c-0.7-0.2-1.4-0.4-2.1-0.6
				C108.74,127.75,108.66,128.03,108.84,128.08L108.84,128.08z"/>
		</g>
		<g>
			<path d="M25.12,136.13c2.07-0.87,4.27-1.34,6.47-1.78c2.26-0.45,4.54-0.86,6.82-1.21c4.55-0.7,9.13-1.18,13.73-1.38
				c4.56-0.2,9.13-0.12,13.67,0.31c4.62,0.43,9.19,1.22,13.73,2.2c5.01,1.08,9.97,2.4,14.92,3.71c0.18,0.05,0.26-0.23,0.08-0.28
				c-8.91-2.36-17.86-4.73-27.04-5.75c-9.14-1.02-18.39-0.62-27.49,0.66c-2.57,0.36-5.12,0.8-7.67,1.29
				c-2.47,0.48-4.96,0.97-7.3,1.95C24.87,135.92,24.94,136.2,25.12,136.13L25.12,136.13z"/>
		</g>
		<g>
			<path d="M96.14,138.88c1.23,0.35,2.48,0.65,3.75,0.33c1.05-0.27,1.97-0.86,2.87-1.44c0.99-0.63,2-1.28,3.16-1.53
				c1.35-0.29,2.76-0.07,4.04,0.41c1.44,0.54,2.73,1.4,3.99,2.28c0.15,0.11,0.3-0.14,0.15-0.25c-2.12-1.49-4.5-2.96-7.19-2.85
				c-1.18,0.05-2.25,0.46-3.25,1.05c-0.97,0.57-1.89,1.25-2.92,1.72c-0.64,0.29-1.32,0.47-2.02,0.47c-0.85,0-1.68-0.24-2.49-0.47
				C96.04,138.55,95.96,138.83,96.14,138.88L96.14,138.88z"/>
		</g>
		<g>
			<path d="M95.19,139.44h-0.01c-0.08-0.01-0.14-0.07-0.13-0.15l0.27-3.73c0.12-1.62,0.24-3.3,0.74-4.89
				c0.57-1.81,1.61-3.44,3.01-4.71c0.06-0.05,0.15-0.05,0.21,0.01c0.05,0.06,0.05,0.15-0.01,0.21c-1.36,1.24-2.37,2.83-2.93,4.59
				c-0.49,1.56-0.61,3.22-0.72,4.82l-0.27,3.73C95.33,139.38,95.27,139.44,95.19,139.44z"/>
		</g>
		<g>
			<path d="M121.26,104.22c-0.06,0-0.12-0.04-0.14-0.1c-0.34-1.18-0.28-2.46,0.17-3.6c0.23-0.6,0.57-1.15,0.89-1.68
				c0.17-0.28,0.34-0.56,0.49-0.84c0.61-1.12,1.01-2.38,1.17-3.64c0.01-0.08,0.08-0.13,0.16-0.13c0.08,0.01,0.14,0.08,0.13,0.16
				c-0.17,1.32-0.57,2.58-1.2,3.75c-0.16,0.29-0.33,0.57-0.5,0.86c-0.32,0.52-0.64,1.07-0.87,1.64c-0.42,1.08-0.48,2.29-0.16,3.41
				c0.02,0.08-0.02,0.16-0.1,0.18C121.29,104.22,121.27,104.22,121.26,104.22z"/>
		</g>
		<g>
			<path d="M125.48,117.25c-0.04,0-0.08-0.01-0.1-0.04c-0.06-0.06-0.06-0.15,0-0.21c0.2-0.2,0.17-0.55,0.11-0.91
				c-0.12-0.66-0.27-1.49-0.79-2.03c-0.15-0.15-0.32-0.28-0.51-0.42c-0.12-0.09-0.25-0.18-0.36-0.28c-0.69-0.59-1.09-1.44-1.44-2.19
				c-0.03-0.07,0-0.16,0.07-0.19s0.16,0,0.19,0.07c0.34,0.73,0.72,1.55,1.36,2.09c0.11,0.09,0.23,0.18,0.35,0.26
				c0.19,0.14,0.38,0.28,0.55,0.45c0.58,0.6,0.74,1.48,0.86,2.18c0.05,0.27,0.15,0.83-0.19,1.17
				C125.56,117.24,125.52,117.25,125.48,117.25z"/>
		</g>
		<g>
			<path d="M54.94,29.69c-0.03,0-0.06-0.01-0.08-0.03c-0.8-0.56-1.54-1.13-1.75-2.01c-0.11-0.46-0.06-0.94,0-1.36
				c0.1-0.87,0.22-1.87,0.66-2.72c0.04-0.07,0.13-0.1,0.2-0.06s0.1,0.12,0.06,0.2c-0.42,0.8-0.53,1.73-0.63,2.62
				c-0.05,0.42-0.1,0.85,0,1.25c0.19,0.78,0.88,1.31,1.64,1.84c0.07,0.05,0.08,0.14,0.04,0.2C55.03,29.66,54.99,29.69,54.94,29.69z"
				/>
		</g>
		<g>
			<path d="M75.85,32.08c-5.28,0-10.57-0.29-15.81-0.86c-0.08-0.01-0.14-0.08-0.13-0.16s0.08-0.14,0.16-0.13
				c9.61,1.05,19.35,1.14,28.98,0.26c0.08-0.01,0.15,0.05,0.16,0.13s-0.05,0.15-0.13,0.16C84.69,31.87,80.27,32.08,75.85,32.08z"/>
		</g>
		<g>
			<path d="M95.98,30.52c-0.05,0-0.11-0.03-0.13-0.08c-0.03-0.07,0-0.16,0.07-0.19c1.51-0.72,2.87-1.79,3.91-3.1
				c0.09-0.12,0.15-0.26,0.14-0.34c0-0.02-0.01-0.04-0.03-0.05c-0.07-0.05-0.08-0.14-0.04-0.2c0.05-0.07,0.14-0.08,0.2-0.04
				c0.08,0.06,0.14,0.15,0.15,0.25c0.04,0.24-0.14,0.49-0.2,0.56c-1.07,1.35-2.46,2.45-4.01,3.19C96.02,30.52,96,30.52,95.98,30.52z
				"/>
		</g>
		<g>
			<path d="M74.5,20.3c-2.64,0-5.27-0.25-7.77-1.15c-1.53-0.56-2.96-1.35-4.34-2.11c-0.35-0.19-0.97-0.34-1.57-0.49
				c-0.68-0.16-1.38-0.33-1.87-0.6c-0.28-0.16-0.38-0.51-0.23-0.79c0.16-0.28,0.51-0.38,0.79-0.23c0.35,0.19,0.97,0.34,1.57,0.49
				c0.68,0.16,1.38,0.33,1.87,0.6c1.34,0.74,2.73,1.51,4.17,2.04c3.77,1.37,7.97,1.14,12.03,0.91l1.13-0.06
				c5.67-0.31,11.53-0.63,16.69-2.91c1-0.44,2.44-1.16,3.46-2.3c0.38-0.43,0.7-0.9,1.04-1.41c0.16-0.24,0.32-0.48,0.49-0.71
				c0.15-0.21,0.3-0.42,0.44-0.63c0.79-1.14,1.54-2.22,2.97-3c0.28-0.15,0.63-0.05,0.79,0.23c0.15,0.28,0.05,0.63-0.23,0.79
				c-1.18,0.65-1.8,1.53-2.57,2.65c-0.15,0.21-0.29,0.42-0.45,0.64c-0.16,0.23-0.32,0.46-0.47,0.69c-0.35,0.52-0.71,1.05-1.14,1.53
				c-1.17,1.31-2.76,2.1-3.85,2.59c-5.36,2.37-11.32,2.69-17.09,3.01l-1.13,0.06C77.66,20.21,76.08,20.3,74.5,20.3z"/>
		</g>
		<g>
			<path d="M122.73,68.68c-0.07,0-0.14-0.01-0.21-0.04c-0.3-0.11-0.45-0.45-0.34-0.75c0.44-1.16,0.94-2.48,0.82-3.74
				c-0.1-1.03-0.59-1.99-1.11-3.01l-0.25-0.5c-1.45-2.9-2.37-6.02-2.73-9.26c-0.17-1.56-0.66-3.07-1.17-4.67
				c-0.39-1.21-0.79-2.47-1.04-3.75c-1.2-6.07-0.77-11.94,1.34-18.48l0.03-0.09c0.32-0.99,0.65-2,0.65-3c0-0.44-0.06-0.88-0.13-1.35
				c-0.06-0.42-0.12-0.85-0.13-1.29c-0.03-0.74,0.15-1.36,0.32-1.95c0.06-0.2,0.11-0.4,0.16-0.61c0.08-0.31,0.39-0.5,0.7-0.43
				c0.31,0.08,0.5,0.39,0.43,0.7c-0.05,0.23-0.12,0.44-0.18,0.65c-0.16,0.55-0.29,1.03-0.27,1.59c0.01,0.38,0.07,0.77,0.12,1.18
				c0.07,0.49,0.14,0.99,0.14,1.51c0,1.18-0.36,2.29-0.7,3.36l-0.03,0.09c-2.05,6.34-2.47,12.02-1.31,17.89
				c0.24,1.22,0.63,2.44,1.01,3.62c0.5,1.58,1.03,3.21,1.21,4.89c0.35,3.1,1.22,6.09,2.61,8.87l0.25,0.49
				c0.54,1.07,1.11,2.17,1.23,3.43c0.15,1.53-0.4,2.98-0.89,4.26C123.19,68.54,122.96,68.68,122.73,68.68z"/>
		</g>
		
			<linearGradient id="SVGID_00000085234198313877490080000005738953328862340029_" gradientUnits="userSpaceOnUse" x1="102.058" y1="107.1788" x2="129.0581" y2="105.5994" gradientTransform="matrix(1 0 0 -1 0 149.8898)">
			<stop  offset="1.930308e-03" style="stop-color:#000000;stop-opacity:0.5"/>
			<stop  offset="1" style="stop-color:#FFFFFF;stop-opacity:0"/>
		</linearGradient>
		<path style="fill:url(#SVGID_00000085234198313877490080000005738953328862340029_);" d="M122.87,66.51
			c-3.59-3.62-3.74-9.17-5.46-13.71c-0.46-1.21-1.08-2.32-1.64-3.49c-0.6-1.24-0.82-2.55-0.94-3.91c-0.23-2.57-0.18-5.15,0.03-7.72
			c0.29-2.29,0.63-4.58,1.08-6.84c0.71-3.53,1.72-7.01,3.01-10.38c0.25-0.66-0.8-1.09-1.13-0.48c-3.16,5.91-4.09,12.73-4.86,19.3
			c-0.42,3.53-0.85,7.07-0.91,10.62c-0.06,3.24,0.13,6.63,2,9.4c1.02,1.51,2.29,2.88,3.52,4.21c1.33,1.43,2.72,2.81,4.15,4.13
			C122.49,68.35,123.6,67.25,122.87,66.51z"/>
		
			<linearGradient id="SVGID_00000083077343904999589120000000172267351907523742_" gradientUnits="userSpaceOnUse" x1="79.4521" y1="114.8799" x2="81.1524" y2="135.3373" gradientTransform="matrix(1 0 0 -1 0 149.8898)">
			<stop  offset="1.930308e-03" style="stop-color:#000000;stop-opacity:0.5"/>
			<stop  offset="1" style="stop-color:#FFFFFF;stop-opacity:0"/>
		</linearGradient>
		<path style="fill:url(#SVGID_00000083077343904999589120000000172267351907523742_);" d="M105.11,12.96
			c-3.49,3.75-7.66,6.92-12.53,8.42c-2.29,0.71-4.68,1.03-7.06,1.21c-1.26,0.1-2.52,0.12-3.78,0.22c-0.84,0.07-2.6,0.02-3.21,0.73
			c0.76,0.49,1.38,1.19,1.8,1.99c-2.89,0.49-5.9,0.27-8.68-0.63c-1.7-0.55-3.31-1.35-5.03-1.83c-3.29-0.93-6.09-3.09-8.84-5.11
			c-0.4-0.3-1.66,3.23-1.76,3.51c-0.34,1.02-0.76,2.07-0.95,3.12c-0.29,1.69,0.84,2.96,2.26,3.7c3.9,2.01,8.32,1.67,12.55,1.45
			c4.48-0.23,8.97-0.47,13.45-0.7c2.29-0.12,4.57-0.22,6.86-0.36c1.96-0.12,4.07-0.22,5.92-0.93c2.07-0.78,3.12-2.47,4.3-4.24
			c0.29-0.43,0.58-0.87,0.87-1.3c0.02-0.03,0.04-0.05,0.06-0.08c0.01-0.01,0.02-0.02,0.03-0.04c0.09-0.11,0.17-0.22,0.25-0.33
			c0.11-0.05,0.21-0.13,0.3-0.24c0.35-0.46,0.67-0.93,0.99-1.41c0.04-0.03,0.08-0.05,0.11-0.09c0.57-0.66,1.07-1.31,1.46-2.09
			s0.63-1.6,0.96-2.4c0.07-0.16,0.06-0.3,0.02-0.43c0.6-1.29,1.22-2.42,1.21-3.89C106.17,11.79,105.65,12.38,105.11,12.96z"/>
		<g>
			<path d="M116,141.72c-0.2,0-0.39-0.01-0.58-0.04c-1.05-0.13-2.3-0.54-3.44-1.12c-0.29-0.15-0.57-0.3-0.86-0.45
				c-0.85-0.45-1.65-0.88-2.51-1.19c-1.27-0.47-2.42-0.57-3.4-0.32c-0.34,0.09-0.7,0.23-1.13,0.44c-0.42,0.21-0.82,0.45-1.25,0.7
				c-0.58,0.34-1.17,0.69-1.82,0.97c-2.12,0.91-4.54,0.36-6.67-0.13c-0.53-0.12-1.05-0.24-1.55-0.33l-0.73-0.14
				c-5.84-1.08-11.88-2.21-17.86-3.1c-13.9-2.08-27.48-0.61-38.94,1.09c-1.22,0.18-2.44,0.46-3.62,0.72
				c-1.45,0.33-2.94,0.66-4.46,0.84c-0.96,0.11-2.19,0.15-3.2-0.51c-2.36-1.55-1.9-4.55-1.53-6.96c0.13-0.86,0.25-1.66,0.25-2.33
				c-0.02-2.64,0.3-5.27,0.93-7.81c0.72-2.86,0.28-5.8-0.18-8.9c-0.25-1.71-0.51-3.47-0.56-5.21c-0.07-2.51-0.14-5.11,0.13-7.68
				c0.24-2.24,0.85-4.37,1.43-6.44c0.4-1.4,0.81-2.86,1.1-4.31c0.38-1.95,1.32-3.61,2.22-5.2c0.6-1.06,1.22-2.16,1.67-3.33
				c0.34-0.88,0.57-1.84,0.79-2.76c0.16-0.68,0.33-1.38,0.24-2.03c-0.09-0.64-0.43-1.25-0.78-1.89c-0.3-0.54-0.61-1.1-0.8-1.73
				c-0.48-1.64,0.01-3.34,0.44-4.85l0.06-0.21c0.73-2.56,1.28-5.19,1.62-7.83c0.11-0.83,0.19-1.64-0.02-2.37
				c-0.08-0.28-0.2-0.55-0.33-0.84c-0.16-0.36-0.32-0.73-0.42-1.14c-0.19-0.78-0.1-1.57,0-2.17c0.39-2.34,1.43-4.54,3.01-6.36l0,0
				c0.26-0.3,0.54-0.59,0.82-0.86c0.66-0.62,1.43-1.16,2.18-1.69c1.07-0.74,2.08-1.45,2.76-2.36c1.07-1.42,1.99-3.12,2.89-4.76
				l0.15-0.28c1.75-3.2,3.27-6.79,4.93-11.63c0.37-1.09,0.73-2.17,0.92-3.26c0.05-0.31,0.04-0.65,0.03-1.01
				c-0.02-0.55-0.04-1.17,0.19-1.76c0.39-1.02,1.41-1.7,2.25-2.18c1.73-0.99,3.77-1.8,6.42-2.56c0.85-0.24,1.92-0.43,2.69,0.25
				c0.3,0.27,0.36,0.54,0.35,0.73c-0.02,0.68-0.69,0.84-0.97,0.91l-0.06,0.02c-0.46,0.12-0.78,1.16-0.97,1.79
				c-0.06,0.2-0.12,0.39-0.17,0.54l-1.53,4.22c-0.44,1.21-0.8,2.38-0.38,3.35c0.58,1.33,2.4,1.76,3.92,1.98
				c11.9,1.75,23.94,0.56,34.57-0.49c1.19-0.12,1.98-0.24,2.94-1c0.93-0.74,1.66-1.69,2.46-2.77c3.41-4.63,6.31-8.87,7.16-13.78
				c0.04-0.26,0.03-0.33,0.02-0.36c-0.02-0.03-0.04-0.07-0.06-0.1c-0.51-0.15-1.39-0.46-1.6-0.73c-0.18-0.23-0.21-0.51-0.1-0.75
				c0.09-0.19,0.3-0.62,2.11-0.66c0.38-0.01,0.67-0.02,0.92-0.03c0.53-0.02,0.88-0.04,1.35,0.04c3.87,0.6,7.78,2.13,11,4.3
				c0.22,0.15,0.45,0.31,0.63,0.56c0.65,0.91,0.06,2.05-0.19,2.54c-3.04,5.86-5.19,12.12-6.4,18.59c-0.93,4.98-1.54,9.16-1.97,13.53
				c-0.39,3.92-0.61,8.37,1.67,11.63c0.29,0.42,0.62,0.81,0.96,1.22c0.2,0.24,0.4,0.48,0.6,0.73c0.47,0.6,0.9,1.23,1.32,1.85
				c0.4,0.58,0.81,1.19,1.25,1.75c1.03,1.31,2.06,2.15,3.15,2.58c1.04,0.4,2.6,1.01,2.93,2.45c0.31,1.35,0.11,2.85-0.12,4.28
				c-0.75,4.62-0.31,9.35,0.11,13.91c0.08,0.92,0.17,1.85,0.25,2.77c0.11,1.33,0.22,2.71,0.08,4.08c-0.02,0.22-0.05,0.44-0.08,0.66
				c-0.06,0.42-0.11,0.81-0.12,1.2c-0.01,0.6,0.09,1.19,0.2,1.83l0.03,0.18c0.42,2.57,0.48,5.18,0.54,7.72
				c0.02,0.92,0.04,1.83,0.08,2.75c0.05,1.24,0.27,2.5,0.48,3.71c0.3,1.73,0.61,3.52,0.45,5.34c-0.31,3.58-1.2,7.32-2.78,11.76
				c-0.19,0.54-0.38,1.08-0.58,1.64c-1.07,3.05-2.17,6.21-3.72,8.94C118.5,141.31,117.15,141.72,116,141.72z M106.3,137.31
				c0.85,0,1.75,0.18,2.71,0.53c0.93,0.34,1.81,0.81,2.66,1.26c0.28,0.15,0.56,0.3,0.84,0.44c1,0.51,2.15,0.89,3.05,1
				c0.95,0.12,2.12-0.14,2.6-0.98c1.5-2.64,2.59-5.75,3.63-8.75c0.19-0.56,0.39-1.11,0.58-1.64c1.55-4.35,2.41-8,2.72-11.48
				c0.15-1.67-0.14-3.31-0.44-5.04c-0.22-1.25-0.44-2.55-0.5-3.86c-0.04-0.92-0.06-1.84-0.08-2.77c-0.05-2.49-0.11-5.07-0.52-7.55
				l-0.03-0.17c-0.11-0.66-0.22-1.34-0.21-2.04c0.01-0.46,0.07-0.91,0.13-1.34c0.03-0.21,0.06-0.41,0.08-0.62
				c0.14-1.27,0.03-2.59-0.08-3.86c-0.08-0.92-0.16-1.84-0.24-2.76c-0.43-4.64-0.87-9.43-0.1-14.2c0.21-1.31,0.4-2.68,0.14-3.83
				c-0.19-0.84-1.32-1.28-2.22-1.63c-1.29-0.5-2.49-1.47-3.65-2.95c-0.46-0.59-0.89-1.21-1.29-1.81c-0.41-0.6-0.83-1.21-1.27-1.78
				c-0.19-0.24-0.38-0.47-0.58-0.7c-0.34-0.41-0.7-0.84-1.02-1.3c-2.51-3.59-2.28-8.29-1.87-12.41c0.43-4.41,1.05-8.61,1.98-13.63
				c1.23-6.59,3.42-12.95,6.51-18.91c0.22-0.43,0.49-1.03,0.28-1.33c-0.06-0.09-0.19-0.18-0.33-0.27
				c-3.08-2.08-6.82-3.54-10.52-4.11c-0.36-0.06-0.63-0.04-1.13-0.02c-0.18,0.01-0.39,0.02-0.63,0.02c0.15,0.09,0.29,0.25,0.32,0.51
				c0.24,0.42,0.16,0.89,0.12,1.13c-0.89,5.16-3.86,9.51-7.36,14.27c-0.81,1.1-1.63,2.16-2.67,2.99c-1.2,0.95-2.27,1.12-3.55,1.25
				c-10.69,1.05-22.81,2.25-34.85,0.48c-1.82-0.27-4.01-0.81-4.82-2.67c-0.59-1.36-0.15-2.83,0.35-4.21l1.53-4.22
				c0.05-0.14,0.1-0.3,0.15-0.49c0.26-0.84,0.59-1.96,1.4-2.42c-0.31-0.01-0.7,0.09-1.01,0.17c-2.55,0.73-4.51,1.51-6.16,2.45
				c-0.68,0.39-1.48,0.91-1.74,1.59c-0.14,0.38-0.13,0.83-0.11,1.31c0.01,0.4,0.03,0.82-0.05,1.24c-0.2,1.18-0.57,2.3-0.96,3.44
				c-1.68,4.91-3.22,8.55-5.01,11.81l-0.15,0.28c-0.87,1.6-1.86,3.41-2.98,4.9c-0.8,1.07-1.93,1.86-3.03,2.62
				c-0.75,0.52-1.45,1.01-2.04,1.57c-0.26,0.25-0.51,0.51-0.75,0.78c-1.44,1.65-2.39,3.65-2.74,5.79c-0.08,0.49-0.15,1.13-0.01,1.71
				c0.07,0.31,0.21,0.61,0.36,0.94c0.14,0.31,0.29,0.64,0.39,1c0.27,0.94,0.17,1.92,0.05,2.84c-0.35,2.69-0.91,5.38-1.66,8
				l-0.06,0.21c-0.41,1.42-0.83,2.88-0.44,4.2c0.15,0.5,0.42,0.98,0.7,1.49c0.39,0.71,0.8,1.44,0.92,2.3
				c0.12,0.87-0.08,1.71-0.26,2.46c-0.23,0.96-0.47,1.94-0.83,2.9c-0.48,1.25-1.12,2.39-1.74,3.49c-0.9,1.59-1.75,3.09-2.09,4.86
				c-0.3,1.5-0.72,2.98-1.12,4.41c-0.58,2.02-1.17,4.1-1.4,6.24c-0.26,2.49-0.19,5.05-0.12,7.53c0.05,1.67,0.3,3.4,0.55,5.07
				c0.46,3.08,0.93,6.26,0.15,9.35c-0.61,2.45-0.92,4.98-0.9,7.52c0.01,0.76-0.12,1.61-0.26,2.51c-0.35,2.3-0.71,4.67,1.02,5.81
				c0.7,0.46,1.66,0.42,2.43,0.33c1.46-0.17,2.92-0.5,4.34-0.82c1.2-0.27,2.45-0.55,3.71-0.74c11.54-1.72,25.23-3.19,39.28-1.09
				c5.99,0.9,12.05,2.02,17.9,3.11l0.73,0.13c0.52,0.1,1.05,0.22,1.6,0.34c2.06,0.47,4.19,0.96,5.95,0.19
				c0.58-0.25,1.12-0.57,1.69-0.9c0.43-0.25,0.87-0.51,1.32-0.74c0.5-0.25,0.93-0.42,1.36-0.53
				C105.36,137.37,105.82,137.31,106.3,137.31z M107,9.85c0.03,0.01,0.06,0.02,0.09,0.02C107.08,9.86,107.05,9.86,107,9.85z"/>
		</g>
	</g>
</g>
</svg>
