<?xml version="1.0" encoding="utf-8"?>
<!-- Generator: Adobe Illustrator 28.0.0, SVG Export Plug-In . SVG Version: 6.00 Build 0)  -->
<svg version="1.1" id="Layer_1" xmlns="http://www.w3.org/2000/svg" xmlns:xlink="http://www.w3.org/1999/xlink" x="0px" y="0px"
	 viewBox="0 0 150 150" style="enable-background:new 0 0 150 150;" xml:space="preserve">
<style type="text/css">
	.st0{stroke:#000000;stroke-linecap:round;stroke-linejoin:round;stroke-miterlimit:10;}
	.st1{fill:#70573A;}
	.st2{fill:#AFAFAF;}
	.st3{fill:url(#SVGID_1_);}
	.st4{fill:url(#SVGID_00000123398734780503334660000006499858387581586568_);}
	.st5{fill:url(#SVGID_00000023963751073672182520000015585667609347992458_);}
	.st6{fill:url(#SVGID_00000088854653721156727100000005600804138814189715_);}
	.st7{fill:url(#SVGID_00000106856913514422218970000009735610231169823930_);}
	.st8{fill:url(#SVGID_00000139988588624274105870000011537459481009769368_);}
	.st9{fill:url(#SVGID_00000148656386995091145410000013105691211902666679_);}
	.st10{fill:#9E7E61;}
	.st11{fill:#939292;}
	.st12{fill:#D8D8D8;}
</style>
<g id="Boomer_Shoes">
	<g>
		<g>
			<path class="st0" d="M88.82,80.01c-0.07-1.38-0.14-2.81-0.31-4.21c-0.03-0.27-0.08-0.55-0.21-0.83
				c-0.19-0.41-0.51-0.69-0.74-0.86c-0.47-0.36-1.01-0.61-1.58-0.76c-0.57-2.15-1.68-4.1-2.77-6c-0.42-0.74-0.86-1.5-1.25-2.25
				c-1.27-2.45-2.23-5.32-2.84-8.55c-0.27-1.43-0.48-2.95-0.62-4.52c-0.03-0.36-0.05-0.73-0.07-1.09c-0.02-0.4-0.04-0.8-0.08-1.2
				c-0.01-0.09-0.01-0.19-0.02-0.3c-0.02-0.56-0.06-1.32-0.61-1.78c-0.23-0.19-0.48-0.27-0.67-0.33
				c-5.09-1.63-10.49-2.34-15.56-2.86c-2.78-0.29-5.49-0.51-8.16-0.07c-0.35,0.06-0.76,0.14-1.11,0.42c-0.75,0.61-0.61,1.55-0.54,2
				c0.04,0.24,0.04,0.49,0.05,0.75c0.01,0.23,0.01,0.45,0.04,0.69c0.06,0.6,0.15,1.21,0.23,1.81c0.1,0.73,0.2,1.48,0.26,2.22
				c0.25,3.13,0.18,5.65-0.23,7.95c-0.18,0.99-0.4,2.03-0.84,2.96c-0.52,1.09-1.35,2.06-2.15,2.99c-1.44,1.68-2.94,3.41-4.8,4.61
				l-0.4,0.26c-1.17,0.76-3,2.42-4.27,1.06c-0.32-0.34-0.52-0.77-0.68-1.2c-0.09-0.24-0.17-0.48-0.32-0.68s-0.4-0.35-0.65-0.3
				c-0.79,0.14-1.28,1.95-1.69,2.52c-0.7,1-1.65,1.07-2.7,1.51c-1.24,0.51-2.43,1.14-3.58,1.74c-0.49,0.25-0.97,0.51-1.46,0.75
				c-1.95,0.98-4.01,1.86-6,2.71c-1.17,0.5-2.34,1-3.5,1.52c-0.74,0.33-1.39,0.65-1.96,1.17c-0.5,0.46-0.81,0.92-0.93,1.35
				c-0.1,0.26-0.1,0.52-0.11,0.75c0,0.26-0.01,0.42-0.08,0.55c-0.08,0.14-0.26,0.28-0.44,0.42l-1.99,1.51
				c-0.65,0.49-1.36,1.05-1.88,1.79c-0.7,0.06-1.26,0.43-1.48,1.04c-0.14,0.4-0.12,0.8-0.1,1.12l0.13,2.26
				c0.03,0.61,0.08,1.38,0.43,2.05c0.67,1.26,2.01,1.77,3.2,2.22c0.23,0.09,0.46,0.17,0.67,0.26c1.56,0.65,3.22,1.21,4.93,1.67
				c3.17,0.85,6.6,1.37,10.18,1.53c0.9,0.04,1.8,0.06,2.72,0.06c4.85,0,10.09-0.58,16.58-1.8c1.57-0.3,3.22-0.5,4.8-0.69
				c3.16-0.39,6.43-0.78,9.46-1.97c1.14-0.44,2.29-0.95,3.4-1.45c0.86-0.38,1.73-0.76,2.59-1.12c5.89-2.42,11.98-4.93,17.61-8.17
				c0.59-0.34,1.16-0.7,1.56-1.26c0.61-0.86,0.65-1.94,0.59-2.97L88.82,80.01z"/>
			<path class="st0" d="M138.68,97.62c-0.01-0.28-0.01-0.55-0.02-0.82c-0.07-4.48-1.6-8.58-2.95-12.2
				c-1.49-3.99-3.18-7.95-5.03-11.77c-0.04-0.09-0.09-0.21-0.15-0.35c-0.3-0.71-0.78-1.8-1.58-2.11c-0.16-0.63-0.35-1.22-0.53-1.78
				c-0.4-1.23-0.75-2.29-0.71-3.44c0.01-0.38,0.07-0.74,0.14-1.12c0.12-0.73,0.24-1.47,0.02-2.33c-0.1-0.39-0.3-0.93-0.49-1.45
				c-0.18-0.49-0.36-1-0.45-1.33c-0.2-0.76-0.25-1.04-0.2-1.81c0.06-0.94,0.04-1.59,0.02-2.41l-0.02-0.56
				c-0.01-0.52,0-1.09,0.02-1.67c0.01-0.58,0.03-1.19,0.02-1.73c0-0.15,0.01-0.3,0.03-0.44c0.04-0.38,0.09-0.81-0.1-1.26
				c-0.57-1.42-2.59-1.91-3.8-2.19l-0.08-0.02c-1.45-0.35-2.93-0.46-4.44-0.55c-1.53-0.09-3.05-0.17-4.58-0.24
				c-0.8-0.04-1.5-0.1-2.18-0.15c-2.38-0.2-4.26-0.36-7.04,0.87c-0.1,0.05-0.29,0.1-0.51,0.17c-1.11,0.34-1.86,0.61-2.07,1.17
				c-0.19,0.52-0.27,1.62-0.07,2.2c1.27,3.78,1.66,7.55,2.01,10.87c0.25,2.43,0.78,4.67,1.28,6.82c0.5,2.13,0.95,4.14,1.1,6.1
				c-0.14,0.1-0.2,0.24-0.23,0.3c-1.97,5.31-3.7,10.84-5.14,16.45c-0.42,1.62-0.52,3.27-0.61,4.87l-0.05,0.75
				c-0.05,0.72-0.1,1.47-0.03,2.23c0.08,0.99,0.35,1.95,0.6,2.77c0.32,1.07,0.68,2.15,1.06,3.2c0.21,0.57,0.43,1.13,0.8,1.61
				c1.15,1.52,3.42,2.05,5.24,2.47c0.25,0.06,0.5,0.12,0.72,0.17c2.29,0.57,4.66,0.95,7.04,1.13c1.07,0.08,2.14,0.12,3.21,0.12
				c3.7,0,7.36-0.48,10.93-1.43c0.5-0.13,0.87-0.23,1.16-0.3c1.12-0.28,1.15-0.3,2.89-1.12c0.02-0.01,0.04-0.02,0.06-0.03
				c0.24-0.14,0.46-0.26,0.67-0.38c1.19-0.67,2.13-1.2,2.89-2.49C138.79,102.26,138.73,99.91,138.68,97.62z"/>
		</g>
		<g>
			<path class="st1" d="M85.25,85.6c0.77-0.34,1.56-0.71,2.1-1.35c1.61-1.86,0.99-4.84,0.77-7.03c-0.05-0.54-0.11-1.09-0.3-1.6
				s-0.55-0.98-1.05-1.19c-0.25-0.11-1.12-0.27-1.31,0.04c-0.13,0.21,0.18,1.01,0.2,1.28c0.09,0.92-0.02,1.87-0.32,2.75
				c-0.43,1.26-1.26,2.37-2.33,3.17c-0.96,0.71-2.08,1.16-3.18,1.6c-2.48,0.98-5.13,1.42-7.74,1.96c-4.06,0.84-8,2.26-11.66,4.22
				c-1.71-4.44-4.49-8.51-8.21-11.47c-2.3-1.83-4.97-3.23-7.8-4.02c-1.41-0.4-2.87-0.65-4.33-0.72c-0.71-0.04-1.33-0.12-2.04,0
				c-0.8,0.14-1.6,0.34-2.38,0.56c-1.55,0.45-3.06,1.04-4.53,1.7c-3.25,1.46-6.36,3.23-9.68,4.53c-1.2,0.47-2.45,0.9-3.46,1.7
				c-1.01,0.8-1.75,2.09-1.49,3.36c0.87-0.06,1.34-0.99,1.94-1.63c0.89-0.95,2.23-1.3,3.49-1.59c0.85-0.19,1.7-0.38,2.55-0.56
				c0.99-0.2,1.99-0.4,2.99-0.37c2.42,0.08,4.59,1.41,6.58,2.79c1.83,1.27,3.76,2.44,5.11,4.23c1.32,1.75,2.33,3.73,2.96,5.84
				c-7.44,1.28-15.1,2.3-22.52,0.88c-1.51-0.29-3.02-0.68-4.37-1.44c-1.34-0.75-2.52-1.89-3.06-3.33c-0.16-0.43-0.44-0.99-0.88-0.88
				c-0.35,0.09-0.45,0.54-0.48,0.9c-0.03,0.42-0.06,0.84-0.09,1.25c-0.07,0.92-0.13,1.88,0.21,2.74c0.66,1.66,2.56,2.41,4.26,2.97
				c1.5,0.5,3.14,1.28,4.7,1.45c1.72,0.19,3.44,0.61,5.14,0.92c1.29,0.24,2.59,0.48,3.9,0.6c2.42,0.22,4.85,0.01,7.26-0.2
				c2.9-0.25,5.81-0.51,8.69-0.96c1.42-0.22,2.83-0.66,4.25-0.82c1.27-0.15,2.55-0.34,3.83-0.5c5.62-0.73,11.12-2.33,16.25-4.73
				c1.41-0.66,2.78-1.36,4.21-1.96c1.59-0.66,3.16-1.34,4.72-2.06c0.79-0.36,1.58-0.71,2.38-1.04C82.1,86.92,83.69,86.29,85.25,85.6
				z"/>
			<path class="st1" d="M137.71,93.17c-0.32-1.96-0.83-3.88-1.52-5.74c-0.31-0.83-0.66-1.65-1-2.47c-0.86-2.03-1.67-4.09-2.59-6.1
				c-0.38-0.83-0.8-1.6-1.13-2.47c-0.36-0.94-0.71-1.89-1.18-2.79c-0.08-0.16-0.18-0.33-0.32-0.43s-0.37-0.13-0.5-0.01
				c-0.16,0.14-0.13,0.4-0.08,0.62c0.61,2.65,1.79,5.12,2.86,7.62c0.05,0.11,0.09,0.22,0.08,0.34c-0.02,0.12-0.12,0.23-0.24,0.21
				c-0.07-0.01-0.13-0.07-0.17-0.12c-0.7-0.76-1.42-1.5-2.23-2.15c-1.32-1.06-2.85-1.85-4.48-2.3c-2.33-0.64-4.79-0.58-7.18-0.39
				c-2.13,0.17-4.51,0.67-6.5,1.48c-1.97,0.8-3.44,2.22-4.8,3.81c-0.08-0.33-0.01-0.75-0.04-1.09c-0.04-0.55-0.03-1.09,0.03-1.65
				c0.12-1.08,0.4-2.14,0.41-3.24c0-0.37-0.04-0.79-0.32-1.03c-0.32,0.21-0.46,0.59-0.58,0.95c-1.18,3.57-2.31,7.15-3.44,10.74
				c-0.89,2.83-1.79,5.71-2.02,8.68c-0.11,1.42-0.08,2.81,0.3,4.19c0.4,1.46,0.9,2.89,1.48,4.29c0.28,0.66,0.58,1.33,1.08,1.84
				c0.61,0.63,1.46,0.96,2.29,1.24c0.99,0.33,2,0.59,3.03,0.8c0.96,0.2,1.88,0.58,2.84,0.81c2.03,0.49,4.12,0.7,6.21,0.62
				c1.31-0.05,2.61-0.22,3.91-0.3c1.23-0.08,2.48,0.04,3.68-0.16c1.25-0.21,2.51-0.29,3.75-0.57c1.4-0.32,2.59-0.72,3.81-1.5
				c1.16-0.73,2.24-1.59,3.21-2.56c0.4-0.41,0.79-0.83,1.07-1.34c0.47-0.84,0.59-1.83,0.65-2.78
				C138.2,97.87,138.09,95.49,137.71,93.17z M135.41,101.21c-0.36,0.45-0.82,0.81-1.35,1.01c-0.38,0.15-0.79,0.2-1.2,0.29
				c-3.04,0.64-6,1.29-9.13,1.48c-1.76,0.11-3.52,0.12-5.28,0.11c-3.09-0.01-6.26-0.06-9.24-1c-0.64-0.2-1.12-0.47-1.68-0.81
				c-0.58-0.36-1.28-0.55-1.89-0.88c-1.19-0.66-2.26-1.54-3.11-2.6c-0.1-0.13-0.21-0.26-0.25-0.42c-0.04-0.17-0.01-0.35,0.03-0.52
				c0.6-2.72,2.7-4.93,5.15-6.27c2.45-1.34,5.23-1.91,7.99-2.36c4.68-0.76,9.87-1.35,14.45,0.25c1.55,0.54,2.99,1.66,4.35,2.56
				c0.93,0.61,1.89,1.29,2.34,2.31c0.49,1.08,0.31,2.33,0.09,3.5c-0.17,0.87-0.36,1.75-0.76,2.55
				C135.79,100.69,135.61,100.96,135.41,101.21z"/>
			<path class="st2" d="M41.67,93.01c-0.3-0.83-0.71-1.6-1.14-2.36c0.02-0.14,0.02-0.28-0.01-0.43c-0.21-0.96-0.75-1.76-1.51-2.33
				c-0.73-0.87-1.58-1.65-2.43-2.35c-1.56-1.26-3.28-2.5-5.11-3.35c-1.91-0.89-3.87-1.28-5.97-0.93c-1.79,0.3-3.7,0.87-5.42,1.64
				c-0.15,0-0.3,0.02-0.44,0.13c-0.08,0.06-0.15,0.13-0.23,0.19c-0.22,0.11-0.44,0.2-0.65,0.32c-0.34,0.19-0.51,0.49-0.55,0.82
				c-0.22,0.21-0.45,0.4-0.69,0.56c-0.12,0.07-0.16,0.11-0.14,0.14c-0.13-0.04-0.27-0.08-0.41-0.09c-0.37,0-0.68,0.16-0.98,0.35
				c-0.73,0.45-1.41,1.04-2.07,1.58c-0.56,0.45-1.45,1.01-1.77,1.66c-0.53,1.08,0.67,2.5,1.39,3.22c1.14,1.14,2.61,1.94,4.15,2.36
				c3.61,0.99,7.6,0.91,11.32,1.01c1.07,0.03,2.15,0.05,3.22,0.02c1.12-0.03,2.2-0.29,3.32-0.37c0.76-0.06,1.52,0.03,2.27-0.04
				c0.62-0.06,1.23-0.22,1.84-0.38c0.46-0.12,0.93-0.25,1.39-0.37C41.51,93.88,41.86,93.55,41.67,93.01z"/>
			<path class="st2" d="M85,73.15c-0.13-0.48-0.27-0.96-0.45-1.42c-0.6-1.61-1.43-3.1-2.31-4.57c-0.01-0.11-0.03-0.23-0.07-0.35
				c-0.67-1.74-2.05-2.94-2.52-4.78c-0.41-1.59-0.51-3.69-1.51-5.08c0-0.01,0-0.03-0.01-0.04c-0.18-1.66-0.29-3.31-0.41-4.98
				c-0.08-1.09,0.08-2.74-0.81-3.57c-0.49-0.46-1.22-0.59-1.85-0.76c-0.84-0.23-1.68-0.44-2.53-0.64
				c-6.28-1.46-12.76-2.1-19.21-1.82c-0.53,0.02-0.9,0.41-0.93,0.93c-0.29,4.45,1.03,8.96,0.29,13.38
				c-0.34,1.99-1.05,3.79-2.16,5.48c-0.99,1.5-2.12,2.89-3.14,4.37c-1.41,1.24-3.01,2.28-4.8,3.09c-0.99,0.45,0.25,1.79,0.82,1.13
				c0.06-0.02,0.11-0.05,0.17-0.07c0.03,0.02,0.05,0.04,0.08,0.06c1.5,0.66,3.11,1.05,4.64,1.61c1.26,0.68,2.4,1.61,3.48,2.54
				c1.21,1.04,2.43,2.06,3.58,3.17c1.08,1.05,2.08,2.17,2.9,3.43c0.68,1.04,1.46,2.29,1.72,3.56c-0.28,0.34-0.11,0.74,0.21,0.95
				c0.33,0.53,1.19,0.43,1.42-0.09c0.79-0.26,1.53-0.65,2.31-0.99c1.2-0.52,2.42-1,3.65-1.44c0.1-0.04,0.2-0.07,0.3-0.11
				c2.15,0.07,4.36-0.49,6.46-1.18c0.06-0.01,0.12-0.01,0.18-0.02c2.28-0.31,4.43-1.26,6.52-2.16c1.62-0.7,3.25-1.54,4.11-3.12
				c0.35-0.18,0.62-0.51,0.61-1.02C85.72,77.11,86.2,74.41,85,73.15z"/>
			<path class="st2" d="M131.63,80.19c0.06-0.18,0.07-0.38-0.04-0.58c-1.35-2.49-2.25-5.44-3.09-8.15
				c-0.62-1.99-1.82-4.71-1.37-6.78c0.15-0.68,0.35-1.31,0.3-2.01c-0.09-1.17-0.77-2.23-1.02-3.38c-0.35-1.56,0.01-3.13-0.36-4.7
				c-0.3-1.25,0.07-2.56,0.14-3.84c0.04-0.6,0.01-1.27-0.41-1.73c-0.75-0.82-2.11-1.09-3.16-1.28c-1.34-0.24-2.71-0.39-4.06-0.57
				c-4.97-0.64-10.49-1.49-15.17,0.77c-0.52-0.12-1.03,0.35-1.07,0.88c-0.09,1.23,0.4,2.45,0.74,3.6c0.4,1.36,0.59,2.75,0.75,4.15
				c0.31,2.71,0.84,5.36,1.49,8c0.63,2.59,1.32,5.18,1.73,7.82c0.12,0.78,0.25,1.57,0.37,2.36c-0.53,0.93-0.56,2.22-0.56,3.47
				c-0.07,0.23-0.06,0.48,0,0.72c0,0.4,0.02,0.83-0.05,1.23c-0.04,0.22-0.29,0.66-0.18,0.85c0.1,0.17,0.33,0.23,0.52,0.19
				c0.19-0.04,0.36-0.16,0.52-0.27c1.77-1.22,3.66-2.22,5.65-3.02c2.02-0.82,4.19-1.12,6.38-1.15c3.72-0.05,8.14,0.9,10.78,3.72
				c0.09,0.1,0.2,0.15,0.31,0.18c0.13,0.16,0.27,0.32,0.43,0.46c0.28,0.25,0.67-0.01,0.6-0.35
				C131.76,80.57,131.7,80.38,131.63,80.19z"/>
			<path class="st2" d="M135.48,93.33c-1.24-1.52-3.31-2.89-5.09-3.66c-4.16-1.81-9.39-0.97-13.72-0.33
				c-4.55,0.67-9.75,1.57-12.59,5.59c-0.07,0.11-0.11,0.21-0.12,0.32c-0.2,0.21-0.4,0.43-0.58,0.65c-0.1,0.12-0.19,0.23-0.29,0.35
				c-0.08,0.1-0.15,0.2-0.23,0.29c-0.02,0.03-0.05,0.06-0.06,0.09c-0.06,0.12-0.13,0.27-0.11,0.41v0.01
				c-0.12,0.17-0.22,0.36-0.26,0.58c-0.19,1.04,0.63,1.72,1.38,2.27c0.18,0.13,0.37,0.26,0.55,0.39c0.09,0.1,0.19,0.19,0.29,0.29
				c1.67,1.49,4.18,2.23,6.28,2.86c0.29,0.08,0.55,0.03,0.74-0.1c4.28,0.89,8.62,0.39,12.96,0.01c2.33-0.2,4.68-0.34,6.96-0.9
				c0.96-0.23,2.01-0.47,2.89-0.92c0.94-0.47,1.37-1.3,1.67-2.28C136.78,97.22,136.92,95.08,135.48,93.33z"/>
			
				<linearGradient id="SVGID_1_" gradientUnits="userSpaceOnUse" x1="58.3101" y1="35.13" x2="44.3291" y2="80.3453" gradientTransform="matrix(1 0 0 -1 0 149.8898)">
				<stop  offset="8.887236e-04" style="stop-color:#000000"/>
				<stop  offset="0.998" style="stop-color:#70573A;stop-opacity:0"/>
			</linearGradient>
			<path class="st3" d="M68.5,93.07c1.36-0.63,2.56-1.24,3.99-1.64c1.39-0.38,2.75-0.91,4.06-1.5c2.6-1.16,5.12-2.6,7.69-3.74
				c1.1-0.48,2.26-0.98,3.01-1.92c1.28-1.6,0.99-3.9,0.63-5.92c-0.99,2.83-3.59,4.77-6.24,6.16c-4.44,2.32-9.31,3.71-13.81,5.87
				c-2.41,1.16-4.82,2.3-7.38,3.08c-2.59,0.79-5.29,1.11-7.95,1.58c-6.56,1.16-12.94,2.58-19.68,2.45
				c-6.08-0.12-12.09-1.29-18.04-2.58c-0.98-0.21-2.1-0.53-2.51-1.45c-0.16-0.36-0.19-0.76-0.33-1.13
				c-0.14-0.37-0.46-0.72-0.85-0.69c-0.58,1.04-0.2,2.41,0.61,3.29c0.81,0.88,1.95,1.36,3.07,1.77c2.41,0.87,4.91,1.49,7.41,2.04
				c1.5,0.33,3.01,0.64,4.54,0.79c1.23,0.12,2.48,0.13,3.72,0.13c4.36,0.03,8.75,0.06,13.06-0.59c3.29-0.5,6.44-1.35,9.75-1.72
				c2.72-0.3,5.46-0.65,8.09-1.43C63.8,95.2,66.16,94.15,68.5,93.07z"/>
			
				<linearGradient id="SVGID_00000178206150521764481440000016384246793595742090_" gradientUnits="userSpaceOnUse" x1="120.7882" y1="36.017" x2="119.5775" y2="50.7469" gradientTransform="matrix(1 0 0 -1 0 149.8898)">
				<stop  offset="8.887236e-04" style="stop-color:#000000"/>
				<stop  offset="0.998" style="stop-color:#70573A;stop-opacity:0"/>
			</linearGradient>
			<path style="fill:url(#SVGID_00000178206150521764481440000016384246793595742090_);" d="M137.98,100.46
				c0.05-0.4,0.16-0.98-0.17-1.27c-0.35,0.69-0.6,1.46-0.88,2.19c-0.11,0.27-0.21,0.54-0.38,0.77c-0.18,0.24-0.42,0.43-0.66,0.61
				c-1.64,1.15-3.54,1.73-5.45,2.23c-3.33,0.87-6.73,1.28-10.17,1.43c-3.53,0.15-7.13,0.19-10.6-0.57c-1.54-0.34-3.14-0.79-4.5-1.61
				c-0.76-0.46-1.34-1.06-1.99-1.64c-0.61-0.55-1.27-0.89-1.85-1.49c0.3,1,0.59,2.01,0.89,3.01c0.16,0.53,0.32,1.07,0.63,1.52
				c0.43,0.61,1.09,1.01,1.77,1.33c2.21,1.05,4.86,1.53,7.25,2.01c2.64,0.53,5.34,0.81,8.04,0.73c3.25-0.1,6.48-0.62,9.6-1.54
				c2.67-0.79,5.67-1.74,7.53-3.94c0.59-0.7,0.7-1.36,0.74-2.22C137.81,101.49,137.92,100.98,137.98,100.46z"/>
			
				<linearGradient id="SVGID_00000175290605535230327240000010156792089520318376_" gradientUnits="userSpaceOnUse" x1="56.1183" y1="45.2375" x2="36.8481" y2="78.7641" gradientTransform="matrix(1 0 0 -1 0 149.8898)">
				<stop  offset="8.887236e-04" style="stop-color:#000000"/>
				<stop  offset="0.998" style="stop-color:#70573A;stop-opacity:0"/>
			</linearGradient>
			<path style="fill:url(#SVGID_00000175290605535230327240000010156792089520318376_);" d="M37.4,85.94
				c2.04,1.91,3.62,4.39,4.09,7.14c0.08,0.5,0.22,1.1,0.7,1.24c0.19,0.06,0.4,0.02,0.6-0.02c2.75-0.56,5.49-1.11,8.24-1.67
				c1.1-0.22,2.19-0.44,3.27-0.75c1.88-0.54,3.68-1.34,5.47-2.13c0.12-0.05,0.25-0.12,0.32-0.23c0.11-0.18,0.04-0.4-0.04-0.6
				c-0.87-2.25-1.81-4.59-3.62-6.18c-2.42-2.13-5.9-2.5-9.11-2.39c-1.57,0.05-3.14,0.2-4.7,0.43c-1.39,0.2-2.79,0.47-4.18,0.3
				c-1.03-0.13-2.02-0.51-3.04-0.69c-1.34-0.23-2.71-0.12-4.06-0.02c-0.7,0.06-2.95,0-1.85,1.27c0.44,0.51,1.35,0.35,1.94,0.49
				C33.57,82.63,35.84,84.47,37.4,85.94z"/>
			
				<linearGradient id="SVGID_00000021091853943474028250000014908181462214594458_" gradientUnits="userSpaceOnUse" x1="147.2488" y1="62.6986" x2="110.1731" y2="69.1342" gradientTransform="matrix(1 0 0 -1 0 149.8898)">
				<stop  offset="8.887236e-04" style="stop-color:#000000"/>
				<stop  offset="0.998" style="stop-color:#70573A;stop-opacity:0"/>
			</linearGradient>
			<path style="fill:url(#SVGID_00000021091853943474028250000014908181462214594458_);" d="M132.15,90.58
				c-5.57-2.44-11.99-2.38-17.91-0.99c0.47-0.65,0.94-1.32,1.25-2.06c0.53-1.26,0.6-2.74,1.47-3.79c0.25-0.3,0.57-0.69,0.36-1.01
				c-0.11-0.17-0.33-0.24-0.51-0.32c-0.75-0.35-1.15-1.22-1.17-2.04c-0.02-0.83,0.26-1.63,0.53-2.41c0.06-0.16,0.12-0.34,0.25-0.45
				c0.11-0.09,0.25-0.14,0.39-0.17c2.27-0.6,4.66-0.48,6.98-0.15c0.67,0.09,1.33,0.21,1.98,0.41c2.45,0.76,4.34,2.69,6.11,4.54
				c0.26-1.54-0.31-3.04-0.87-4.44c-0.46-1.15-1.62-3.15-0.87-4.36c-0.07,0.12,1.31,2.54,1.44,2.86c0.42,1.03,0.77,2.09,1.13,3.15
				c0.71,2.12,1.71,4.03,2.56,6.07c1.46,3.51,2.35,7.25,2.63,11.03c-0.01-0.15-0.58-0.62-0.7-0.78c-0.2-0.28-0.37-0.57-0.51-0.88
				c-0.26-0.58-0.48-1.12-0.89-1.63C134.87,91.98,133.51,91.18,132.15,90.58z"/>
			
				<linearGradient id="SVGID_00000104669319695988285350000013139863720022186140_" gradientUnits="userSpaceOnUse" x1="118.712" y1="57.8088" x2="120.0219" y2="47.9299" gradientTransform="matrix(1 0 0 -1 0 149.8898)">
				<stop  offset="8.887236e-04" style="stop-color:#000000"/>
				<stop  offset="0.998" style="stop-color:#AFAFAF;stop-opacity:0"/>
			</linearGradient>
			<path style="fill:url(#SVGID_00000104669319695988285350000013139863720022186140_);" d="M105.39,101.37
				c0.75,0.46,1.55,0.85,2.37,1.17c3.52,1.36,7.41,1.3,11.17,1.09c1.26-0.07,2.51-0.16,3.76-0.25c3.03-0.21,6.06-0.42,9.08-0.8
				c0.85-0.11,1.74-0.24,2.47-0.69c1.2-0.76,1.72-2.22,2.15-3.57c0.13-0.42,0.27-0.87,0.35-1.3c0.13-0.74-0.72-0.73-0.98-0.23
				c-0.1,0.19,0,0.55-0.08,0.78c-0.11,0.32-0.38,0.63-0.63,0.85c-0.41,0.36-0.99,0.57-1.52,0.42c-0.52-0.15-0.95-0.64-1.49-0.62
				c-0.59,0.02-0.97,0.62-1.42,1c-0.76,0.64-1.83,0.7-2.83,0.69c-0.69-0.01-1.43-0.06-1.97-0.5c-0.2-0.16-0.36-0.37-0.6-0.47
				c-0.56-0.24-1.13,0.24-1.64,0.57c-1.13,0.72-2.66,0.74-3.81,0.05c-0.16-0.1-0.32-0.21-0.51-0.24c-0.26-0.04-0.51,0.09-0.74,0.2
				c-0.87,0.44-1.79,0.82-2.76,0.87s-2.01-0.28-2.61-1.05c-0.15-0.19-0.27-0.4-0.48-0.52c-0.5-0.28-1.07,0.19-1.52,0.56
				c-1.45,1.19-3.55,1.54-5.31,0.89c-0.62-0.23-1.24-0.62-1.5-1.23c-0.33-0.78-0.09-1.89-0.83-2.31c-0.34-0.19-0.8-0.13-1.06,0.15
				C100.93,98.46,104.35,100.73,105.39,101.37z"/>
			
				<linearGradient id="SVGID_00000145018746579334526830000001991892055025256581_" gradientUnits="userSpaceOnUse" x1="28.356" y1="68.7446" x2="25.8128" y2="54.6072" gradientTransform="matrix(1 0 0 -1 0 149.8898)">
				<stop  offset="8.887236e-04" style="stop-color:#000000"/>
				<stop  offset="0.998" style="stop-color:#AFAFAF;stop-opacity:0"/>
			</linearGradient>
			<path style="fill:url(#SVGID_00000145018746579334526830000001991892055025256581_);" d="M26.12,93.17c-1.08,0-2.3-0.2-2.93-1.08
				c-0.12-0.17-0.22-0.37-0.39-0.5c-0.38-0.3-0.93-0.16-1.4-0.03c-0.63,0.18-1.28,0.3-1.92,0.19s-1.26-0.51-1.49-1.12
				c-0.92,0.3-2.02-0.16-2.45-1.02c-0.09-0.17-0.17-0.38-0.36-0.44c-0.09-0.03-0.19-0.01-0.28-0.02c-0.51-0.02-0.82-0.54-1.04-1
				c-0.13-0.28-0.27-0.6-0.14-0.88c-0.53,0.24-1.02,0.56-1.46,0.94c-0.3,0.25-0.58,0.56-0.67,0.94c-0.12,0.58,0.25,1.14,0.64,1.58
				c1.19,1.34,2.73,2.35,4.43,2.91c1.22,0.4,2.5,0.56,3.77,0.69c6.75,0.7,13.59,0.54,20.31-0.45c0.17-0.03,0.35-0.05,0.49-0.15
				c0.42-0.27,0.33-0.98-0.07-1.3c-0.39-0.32-0.94-0.35-1.45-0.33c-0.82,0.03-1.64,0.16-2.44,0.38c-0.56,0.15-1.13,0.35-1.7,0.28
				c-0.87-0.11-1.52-0.8-2.35-1.02c-0.75-0.2-1.17,0.04-1.84,0.33C29.73,92.8,27.92,93.17,26.12,93.17z"/>
			
				<linearGradient id="SVGID_00000080903243912500958530000015916940895657298564_" gradientUnits="userSpaceOnUse" x1="67.1986" y1="79.307" x2="74.7797" y2="64.9704" gradientTransform="matrix(1 0 0 -1 0 149.8898)">
				<stop  offset="8.887236e-04" style="stop-color:#000000"/>
				<stop  offset="0.998" style="stop-color:#AFAFAF;stop-opacity:0"/>
			</linearGradient>
			<path style="fill:url(#SVGID_00000080903243912500958530000015916940895657298564_);" d="M63.72,85.7
				c1.5-0.37,3.11-0.63,4.31-1.6c0.85-0.68,1.43-1.7,1.59-2.78c0.55,1.02,1.96,1.14,3.1,1c2.37-0.3,4.63-1.18,6.72-2.31
				c1.1-0.6,2.28-1.43,2.41-2.68c0.03-0.32-0.02-0.67-0.23-0.92c-0.1-0.12-0.22-0.21-0.31-0.33c-0.37-0.53,0.15-1.2,0.57-1.68
				c1.07-1.21,1.74-2.75,1.9-4.36c0.93,1.86,1.54,3.88,1.78,5.94c0.11,0.93,0.14,1.9-0.15,2.79c-0.41,1.27-1.44,2.26-2.61,2.92
				c-1.16,0.66-2.46,1.02-3.74,1.41c-6.14,1.83-12.13,4.13-18.2,6.18c-0.16,0.06-0.34,0.11-0.5,0.04c-0.14-0.06-0.22-0.19-0.29-0.32
				c-0.45-0.83-0.79-1.59,0.09-2.11C61.2,86.27,62.59,85.98,63.72,85.7z"/>
			<path class="st10" d="M47.5,75.03c-2.38-1.47-5.74-1.74-8.47-1.43c-3.08,0.35-5.71,1.52-8.45,2.88
				c-2.99,1.48-6.14,2.51-9.23,3.75c-1.69,0.68-5.13,1.63-4.77,4.06c0.06,0.42,0.73,0.39,0.82,0c0.3-1.35,1.7-1.67,2.85-2.08
				c1.25-0.44,2.51-0.87,3.76-1.32c3.5-1.26,6.61-3.2,10.39-3.59c1.66-0.17,3.35-0.11,4.95-0.59c1.32-0.4,2.52-1.17,3.88-1.45
				c1.37-0.29,2.74,0.21,4.12,0.34C47.67,75.65,47.75,75.19,47.5,75.03z"/>
			<path class="st10" d="M40.65,94.02c-1.14-0.35-2.64,0.09-3.82,0.19c-1.38,0.12-2.76,0.21-4.14,0.28
				c-2.69,0.13-5.38,0.17-8.07,0.13c-5.02-0.07-10.24-0.86-13.43-5.17c-0.09-0.13-0.35-0.06-0.28,0.12
				c1.88,4.77,7.57,5.96,12.14,6.19c3,0.15,6.02,0.1,9.02-0.04c1.52-0.07,3.04-0.17,4.55-0.3c1.27-0.11,3.01,0.03,4.13-0.63
				C41.07,94.6,40.99,94.13,40.65,94.02z"/>
			<path class="st10" d="M81.3,82.12c-5.8,2.79-12.33,3.38-18.22,5.89c-1.57,0.67-2.97,1.56-4.46,2.36
				c-1.52,0.81-3.23,1.42-4.87,1.95c-1.57,0.51-3.18,0.86-4.81,1.1c-1.83,0.27-3.73,0.58-5.57,0.75c-0.19,0.02-0.19,0.28,0,0.29
				c1.81,0.11,3.51,0.21,5.33,0c1.68-0.2,3.35-0.52,4.99-0.96c3.4-0.92,6.27-2.98,9.57-4.18c6.12-2.21,12.89-2.98,18.41-6.61
				C82.03,82.47,81.7,81.92,81.3,82.12z"/>
			<path class="st10" d="M105.63,79.05c-1.36,3.22-2.57,6.51-3.55,9.88c-0.47,1.63-0.88,3.28-1.13,4.97
				c-0.22,1.51-0.54,3.2-0.26,4.71c0.05,0.28,0.52,0.28,0.56,0c0.25-1.61,0.18-3.24,0.48-4.85c0.32-1.67,0.74-3.32,1.24-4.94
				c0.99-3.24,2.21-6.38,2.8-9.72C105.8,78.99,105.67,78.95,105.63,79.05z"/>
			<path class="st10" d="M121.42,76.84c-0.58-0.01-1.15,0.05-1.72,0.05c-0.58,0-1.19,0.19-1.76,0.32c-0.42,0.09-0.84,0.2-1.25,0.31
				c-0.07-0.15-0.22-0.27-0.43-0.25c-2.41,0.22-4.76,1.28-6.69,2.71c-0.97,0.71-1.85,1.53-2.63,2.44c-0.38,0.44-0.74,0.91-1.07,1.39
				c-0.3,0.43-0.72,0.96-0.68,1.51c0.01,0.13,0.13,0.2,0.25,0.14c0.43-0.21,0.68-0.69,0.96-1.06c0.14-0.18,0.28-0.36,0.43-0.53
				c0.41-0.36,0.9-0.61,1.41-0.88c0.75-0.39,1.53-0.77,2.22-1.28c0.79-0.59,1.46-1.32,2.27-1.88c0.69-0.48,1.45-0.78,2.19-1.16
				c0.23-0.07,0.46-0.13,0.69-0.2c0.83-0.16,1.67-0.31,2.5-0.47c0.56-0.11,1.17-0.16,1.71-0.36c0.54-0.21,1.1-0.36,1.65-0.56
				C121.58,77.03,121.56,76.84,121.42,76.84z"/>
			<path class="st10" d="M135.39,100.76c-0.75,1.22-2.13,1.59-3.46,1.79c-1.35,0.21-2.71,0.34-4.06,0.52
				c-3.3,0.45-6.6,0.83-9.93,0.94c-3.1,0.1-6.28,0.03-9.24-0.99c-2.58-0.9-4.87-2.59-6.51-4.77c-0.09-0.12-0.31-0.06-0.25,0.11
				c2.1,6.33,10.17,7.12,15.8,6.94c3.64-0.12,7.28-0.53,10.88-1.08c2.52-0.38,5.86-0.7,7.21-3.21
				C135.98,100.73,135.56,100.48,135.39,100.76z"/>
			<path class="st10" d="M124.46,87.33c-1.02-0.28-2.15-0.29-3.2-0.28c-1.1,0.02-2.21,0.07-3.3,0.21c-2.2,0.29-4.35,0.83-6.52,1.23
				c-0.13,0.02-0.1,0.24,0.03,0.23c2.14-0.09,4.22-0.42,6.33-0.77c1.11-0.18,2.21-0.4,3.33-0.47c1.11-0.07,2.19,0.01,3.29,0.03
				C124.54,87.52,124.56,87.36,124.46,87.33z"/>
			<path class="st10" d="M123.11,85.24c-0.13-0.19-0.28-0.21-0.5-0.24c-0.18-0.02-0.37-0.02-0.55-0.03
				c-0.33-0.02-0.66-0.04-0.99-0.07c-0.33-0.03-0.66-0.07-0.99-0.09c-0.33-0.02-0.68-0.06-0.95,0.17c-0.05,0.04-0.06,0.13-0.02,0.18
				c0.21,0.29,0.54,0.33,0.88,0.38c0.34,0.06,0.68,0.08,1.02,0.11c0.33,0.03,0.66,0.06,0.99,0.08c0.3,0.02,0.85,0.14,1.07-0.12
				C123.14,85.51,123.19,85.35,123.11,85.24z"/>
			<path class="st11" d="M57.59,54.52c-0.12-1.76-0.3-3.52-0.49-5.27c-0.13-1.23-0.03-3.26-0.86-4.24c-0.11-0.13-0.36-0.1-0.44,0.06
				c-0.58,1.14-0.06,2.95,0.04,4.19c0.12,1.49,0.23,2.97,0.32,4.46c0.1,1.6,0.32,3.22,0.22,4.83c-0.09,1.46-0.61,2.84-0.68,4.3
				c-0.06,1.36,0.54,3.63-1.25,4.16c-1.03,0.31-1.51,0.83-2.09,1.73c-1.54,2.34-3.73,3.95-6.42,4.74c-0.73,0.21-0.41,1.37,0.31,1.14
				c2.5-0.78,4.79-2.33,6.39-4.42c0.42-0.55,0.75-1.26,1.25-1.74c0.43-0.42,1.03-0.56,1.5-0.91c0.96-0.72,1.21-1.89,1.33-3.02
				c0.09-0.82,0.06-1.65,0.2-2.46c0.16-0.86,0.44-1.7,0.59-2.57C57.8,57.85,57.7,56.16,57.59,54.52z"/>
			<path class="st11" d="M30.93,82.11c-3.2,2.18-7.24,2.64-10.46,4.75c-0.83,0.55-1.57,1.25-2.45,1.73
				c-0.97,0.53-2.04,0.41-3.05,0.76c-0.61,0.21-1.16,0.63-1.4,1.24c-0.19,0.48-0.23,1.09,0.31,1.3c0.09,0.04,0.18-0.04,0.21-0.12
				c0.12-0.35,0.05-0.72,0.25-1.05c0.26-0.45,0.76-0.64,1.24-0.76c0.77-0.19,1.55-0.17,2.3-0.49c0.82-0.36,1.44-0.97,2.18-1.46
				c0.75-0.49,1.6-0.88,2.43-1.21c3.05-1.2,6.37-1.65,9.05-3.67C32.13,82.69,31.58,81.66,30.93,82.11z"/>
			<path class="st11" d="M35.33,84.75c-1.94,0.55-3.83,1.29-5.72,1.99c-1.7,0.63-3.42,1.3-4.95,2.28c-0.72,0.46-1.37,1.01-2.06,1.52
				c-0.76,0.55-1.45,0.78-2.36,0.96c-0.49,0.1-0.9,0.28-1.08,0.78c-0.1,0.27-0.09,0.57-0.11,0.86c-0.02,0.37-0.12,0.67-0.2,1.02
				c-0.03,0.14,0.1,0.33,0.26,0.26c0.39-0.16,0.48-0.47,0.54-0.88c0.06-0.44-0.04-0.79,0.29-1.13c0.32-0.33,0.72-0.25,1.14-0.34
				c1.54-0.32,2.64-1.65,3.94-2.43c3.23-1.94,7.11-2.47,10.6-3.79C36.31,85.6,36.05,84.54,35.33,84.75z"/>
			<path class="st11" d="M39.23,88.32c-1.52,0.27-3.1,0.68-4.59,1.11c-0.59,0.17-1.01,0.42-1.43,0.85
				c-0.65,0.65-1.51,0.85-2.38,1.06c-1.45,0.36-2.97,0.53-4.38,1.05c-0.87,0.32-2.18,1.07-2.16,2.15c0,0.22,0.25,0.3,0.41,0.17
				c0.48-0.42,0.7-0.98,1.27-1.34c0.6-0.37,1.31-0.54,1.98-0.71c1.32-0.33,2.66-0.56,3.97-0.93c0.54-0.15,1.08-0.32,1.52-0.69
				c0.23-0.19,0.4-0.43,0.67-0.58c0.29-0.17,0.64-0.22,0.97-0.29c1.46-0.32,2.96-0.56,4.4-0.97C40.05,89.04,39.8,88.22,39.23,88.32z
				"/>
			<path class="st11" d="M40.76,91.48c-0.1-0.23-0.32-0.31-0.56-0.28c-0.72,0.11-1.45,0.44-2.15,0.66
				c-0.74,0.24-1.47,0.47-2.21,0.71c-0.59,0.19-1.26,0.34-1.76,0.73c-0.48,0.36-0.75,0.9-0.9,1.47c-0.08,0.29,0.32,0.44,0.47,0.2
				c0.3-0.47,0.52-1.01,1.04-1.28c0.56-0.29,1.27-0.38,1.88-0.54c0.66-0.17,1.32-0.34,1.98-0.51c0.67-0.17,1.39-0.3,2.02-0.57
				C40.78,91.99,40.84,91.68,40.76,91.48z"/>
			<path class="st11" d="M62.87,56.24c-0.46-1.66-1.14-3.2-1.39-4.93c-0.27-1.84-0.18-3.67,0.02-5.51c0.07-0.69-1.08-0.84-1.21-0.16
				c-0.59,2.95-0.29,6.13,0.64,8.98c0.25,0.77,0.64,1.53,0.82,2.32c0.2,0.84,0.03,1.63-0.21,2.44c-0.36,1.2-0.83,2.38-0.7,3.66
				c0.1,0.97,0.6,1.9-0.17,2.76c-0.53,0.59-1.31,0.94-1.95,1.4c-0.86,0.62-1.65,1.45-1.72,2.56c-0.02,0.32,0.08,0.64,0.06,0.96
				c-0.03,0.56-0.35,0.9-0.75,1.24c-0.63,0.54-1.32,1.03-2.03,1.47c-1.37,0.85-2.9,1.39-4.27,2.23c-0.21,0.13-0.06,0.41,0.16,0.38
				c1.61-0.24,3.12-1.12,4.48-1.97c0.96-0.6,2.5-1.33,3.03-2.41c0.29-0.59,0.07-1.13,0.1-1.74c0.06-1.14,1.1-1.86,1.95-2.43
				c0.98-0.67,2.12-1.35,2.23-2.65c0.06-0.73-0.21-1.45-0.19-2.18c0.02-0.82,0.36-1.6,0.64-2.35
				C62.92,58.94,63.27,57.67,62.87,56.24z"/>
			<path class="st11" d="M67.03,59.33c-0.05-0.78-0.34-1.46-0.54-2.21c-0.48-1.79,0.14-3.68,0.26-5.48
				c0.12-1.81,0.01-3.61-0.34-5.39c-0.11-0.59-1.13-0.46-1.06,0.14c0.22,1.74,0.34,3.49,0.23,5.25c-0.1,1.55-0.58,3.14-0.38,4.7
				c0.09,0.75,0.4,1.39,0.62,2.1c0.26,0.87,0.24,1.77,0.25,2.68c0.01,1.67-0.07,3.33-0.57,4.93c-0.45,1.47-1.17,2.75-1.42,4.29
				c-0.28,1.74-0.88,2.89-2.46,3.78c-1.41,0.8-2.96,1.37-4.44,2.03c-1.46,0.65-3.26,1.18-4.53,2.16c-0.3,0.23,0.04,0.62,0.33,0.57
				c0.84-0.15,1.62-0.6,2.4-0.93c0.88-0.38,1.76-0.78,2.64-1.17c1.53-0.68,3.19-1.27,4.61-2.17c1.13-0.72,1.92-1.68,2.22-3
				c0.17-0.78,0.18-1.58,0.37-2.36c0.21-0.85,0.65-1.61,0.96-2.42c0.61-1.58,0.72-3.27,0.79-4.94
				C67.02,61.03,67.08,60.17,67.03,59.33z"/>
			<path class="st11" d="M72.61,71.66c-0.37-4.22-1.2-8.4-1.59-12.62c-0.19-2.04-0.45-4.09-0.43-6.14c0.01-1.09,0.07-2.18,0.15-3.27
				c0.07-0.96,0.25-1.98,0.06-2.93c-0.05-0.23-0.41-0.28-0.51-0.07c-0.72,1.44-0.6,3.47-0.62,5.03c-0.02,1.91-0.02,3.82,0.08,5.73
				c0.19,3.81,0.79,7.63,1.39,11.39c0.3,1.87,0.98,4.09,0.05,5.86c-0.79,1.49-2.27,2.45-3.75,3.17c-1.59,0.77-3.26,1.36-4.76,2.31
				c-1.65,1.04-3.08,2.02-5.11,2.1c-0.73,0.03-0.74,1.18,0,1.14c1.87-0.09,3.4-0.78,4.95-1.8c1.59-1.04,3.26-1.75,4.96-2.57
				C70.55,77.54,72.92,75.31,72.61,71.66z"/>
			<path class="st11" d="M78.89,73.13c-0.53-1.66-1.03-3.33-1.54-4.99c-1.02-3.33-1.64-6.68-1.95-10.15
				c-0.17-1.95-0.3-3.91-0.53-5.86c-0.16-1.42-0.15-3.59-1.14-4.69c-0.07-0.08-0.2-0.03-0.23,0.06c-0.24,0.81,0.04,1.72,0.16,2.54
				c0.17,1.16,0.29,2.33,0.4,3.5c0.19,2.02,0.31,4.05,0.53,6.07c0.42,3.94,1.32,7.75,2.6,11.5c0.6,1.77,1.9,4.24,1.46,6.15
				c-0.48,2.07-2.92,2.65-4.65,3.26c-3.25,1.16-6.26,3.53-8.58,6.07c-0.48,0.53,0.25,1.25,0.78,0.78c1.11-0.98,2.08-2.11,3.24-3.06
				c1.3-1.07,2.72-2.01,4.3-2.61c2.29-0.86,5.41-1.49,5.89-4.37C79.86,75.9,79.32,74.47,78.89,73.13z"/>
			<path class="st11" d="M82.78,74.67c-0.43-1.36-0.06-2.89-0.15-4.3c-0.05-0.73-0.14-1.44-0.31-2.15
				c-0.19-0.82-0.65-1.42-0.92-2.19c-0.02-0.06-0.11-0.03-0.09,0.02c0.21,0.69,0.14,1.54,0.23,2.27c0.08,0.68,0.14,1.37,0.16,2.05
				c0.04,1.24-0.24,2.55,0.05,3.77c0.13,0.54,0.41,1.02,0.65,1.51c0.33,0.67,0.51,1.33,0.56,2.08c0.04,0.66-0.01,1.33-0.15,1.97
				c-0.15,0.67-0.48,1.19-0.75,1.8c-0.27,0.6,0.57,1.13,0.91,0.53c0.59-1.06,0.78-2.59,0.72-3.79
				C83.61,76.99,83.15,75.87,82.78,74.67z"/>
			<path class="st11" d="M110.41,90.5c-1.33,1.63-0.88,4.06-1.54,5.95c-0.18,0.52-0.43,1.02-0.77,1.46
				c-0.27,0.36-0.54,0.63-0.57,1.1c-0.04,0.64,0.06,1.33,0.14,1.96c0.07,0.58,0.06,1.33,0.39,1.83c0.11,0.17,0.43,0.17,0.47-0.06
				c0.11-0.56-0.09-1.14-0.17-1.7c-0.09-0.62-0.22-1.32-0.19-1.95c0.03-0.5,0.53-0.91,0.76-1.34c0.21-0.39,0.36-0.82,0.49-1.24
				c0.27-0.92,0.44-1.86,0.64-2.8c0.22-1,0.58-1.91,0.95-2.86C111.14,90.52,110.63,90.22,110.41,90.5z"/>
			<path class="st11" d="M117.07,89.52c-0.1-0.24-0.5-0.39-0.63-0.08c-0.25,0.57-0.21,1.23-0.23,1.86
				c-0.03,0.65-0.04,1.31-0.04,1.96c0.01,1.35,0.09,2.71,0.06,4.06c-0.01,0.31,0.01,0.65-0.09,0.95c-0.11,0.34-0.35,0.5-0.53,0.78
				c-0.26,0.4-0.22,0.83-0.17,1.28c0.12,1.1,0.17,2.58,0.82,3.5c0.07,0.1,0.27,0.11,0.29-0.04c0.07-0.5-0.03-0.94-0.11-1.44
				c-0.11-0.67-0.19-1.35-0.23-2.03c-0.03-0.45-0.02-0.75,0.27-1.12c0.11-0.14,0.21-0.28,0.29-0.44c0.22-0.45,0.21-0.97,0.21-1.45
				c0.02-1.31,0.14-2.62,0.19-3.92c0.03-0.65,0.04-1.31,0.04-1.96C117.21,90.82,117.3,90.09,117.07,89.52z"/>
			<path class="st11" d="M126.47,100.94c0-0.68-0.03-1.35-0.12-2.02c-0.16-1.22-0.6-2.32-1.16-3.4c-0.62-1.19-1.22-2.31-1.38-3.67
				c-0.12-1.04-0.09-2.29-0.81-3.14c-0.23-0.27-0.59,0.03-0.54,0.32c0.1,0.64,0.27,1.25,0.34,1.9c0.05,0.5,0.09,1.01,0.16,1.51
				c0.18,1.19,0.71,2.2,1.29,3.23c0.67,1.18,1.12,2.27,1.18,3.64c0.06,1.23-0.17,2.6,0.15,3.8c0.14,0.52,0.82,0.35,0.87-0.12
				C126.54,102.31,126.47,101.61,126.47,100.94z"/>
			<path class="st11" d="M134.65,100.94c-0.04-0.65-0.1-1.29-0.18-1.94c-0.15-1.29-0.38-2.57-0.6-3.86
				c-0.19-1.1-0.32-2.08-1.24-2.81c-0.92-0.73-1.64-1.58-2.35-2.52c-0.16-0.21-0.53-0.1-0.45,0.19c0.29,1.03,0.62,1.97,1.45,2.7
				c0.33,0.29,0.75,0.51,1.06,0.83c0.45,0.46,0.51,1.14,0.62,1.74c0.22,1.23,0.34,2.48,0.43,3.73c0.05,0.65,0.08,1.29,0.1,1.94
				c0.02,0.58-0.09,1.19,0.21,1.71c0.18,0.31,0.68,0.33,0.85,0C134.81,102.11,134.69,101.52,134.65,100.94z"/>
			<path class="st11" d="M128.66,78.46c-0.78-2.95-1.96-5.84-2.92-8.75c-0.47-1.44-0.99-2.88-1.43-4.33
				c-0.26-0.85-0.25-1.48,0.04-2.33c0.17-0.51,0.28-1.01,0.25-1.55c-0.06-1.07-0.58-2.08-1.03-3.03c-0.63-1.33-1.01-2.57-1.13-4.04
				c-0.19-2.39,0.18-4.86-1-7.05c-0.26-0.49-1.12-0.15-0.91,0.38c0.96,2.43,0.7,4.96,1.04,7.49c0.15,1.14,0.5,2.17,1.01,3.2
				c0.62,1.28,1.42,2.57,0.97,4.04c-0.35,1.16-0.5,1.94-0.15,3.14c0.43,1.46,0.96,2.89,1.44,4.33c0.97,2.9,1.75,5.92,2.89,8.75
				C127.97,79.26,128.82,79.06,128.66,78.46z"/>
			<path class="st11" d="M120.17,70.42c-0.06-1.3,0.18-2.63,0.23-3.93s0.02-2.59-0.05-3.89c-0.14-2.5-0.57-4.99-1.02-7.45
				c-0.48-2.62-0.82-5.31-1.6-7.86c-0.07-0.24-0.48-0.21-0.46,0.06c0.23,2.59,0.88,5.13,1.23,7.7c0.35,2.57,0.52,5.16,0.63,7.75
				c0.05,1.23,0.06,2.46,0.04,3.68c-0.02,1.24-0.2,2.5-0.16,3.75c0.09,2.22,1.67,4.04,1.67,6.25c0,0.62,0.95,0.62,0.96,0
				C121.67,74.34,120.27,72.53,120.17,70.42z"/>
			<path class="st11" d="M116.71,69.73c-0.21-1.14-0.55-2.24-1.01-3.32c-0.6-1.42-0.81-2.64-0.89-4.17
				c-0.12-2.51-0.6-5.02-1.08-7.48c-0.26-1.35-0.57-2.7-0.79-4.06c-0.21-1.32-0.28-2.8-0.88-4.01c-0.26-0.52-1.05-0.25-1.05,0.28
				c-0.02,1.28,0.54,2.58,0.91,3.79c0.38,1.25,0.69,2.52,1.01,3.79c0.68,2.68,1.17,5.3,1.19,8.07c0.01,1.14,0.13,2.17,0.55,3.24
				c0.44,1.1,0.89,2.16,1.15,3.32c0.59,2.57,0.49,5.23,0.74,7.84c0.02,0.2,0.28,0.19,0.31,0C117.17,74.62,117.16,72.14,116.71,69.73
				z"/>
			<path class="st11" d="M112.13,74.67c-0.07-1.26-0.52-2.53-0.84-3.74c-0.67-2.56-1.37-5.11-2.03-7.67
				c-1.35-5.27-2.37-10.57-2.38-16.02c0-0.77-1.22-0.77-1.2,0c0.16,5.3,1.22,10.56,2.44,15.7c0.61,2.57,1.29,5.13,1.94,7.69
				c0.35,1.37,0.86,2.82,0.93,4.24c0.06,1.21-0.52,2.33-0.5,3.55c0.01,0.74,1.14,0.63,1.03-0.14
				C111.36,77.06,112.2,75.93,112.13,74.67z"/>
			<path class="st12" d="M54.09,54.09c-0.15-1.38-0.4-2.74-0.55-4.11c-0.14-1.23-0.49-2.97,0.35-4.01c0.35-0.43,0.02-1.01-0.53-0.91
				c-2.1,0.38-1.33,4.34-1.15,5.71c0.36,2.78,1.05,5.58,0.53,8.39c-0.47,2.53-1.89,5.1-3.24,7.27c-0.69,1.1-1.52,2.1-2.48,2.97
				c-1.01,0.91-2.16,1.52-3.27,2.28c-0.26,0.18-0.11,0.63,0.23,0.53c4.62-1.3,7.43-6.49,9.13-10.58
				C54.12,59.15,54.39,56.74,54.09,54.09z"/>
			<path class="st12" d="M17.18,84.64c-0.22,0.06-0.41,0.19-0.59,0.33s-0.38,0.28-0.55,0.43c-0.34,0.3-0.67,0.61-1.01,0.9
				c-0.33,0.29-0.67,0.57-1,0.85c-0.17,0.15-0.36,0.28-0.49,0.47c-0.14,0.2-0.3,0.36-0.48,0.53c-0.08,0.07,0.02,0.2,0.11,0.15
				c0.2-0.12,0.38-0.23,0.6-0.31c0.22-0.08,0.39-0.21,0.58-0.34c0.37-0.27,0.73-0.53,1.09-0.8c0.35-0.26,0.71-0.51,1.06-0.77
				c0.2-0.14,0.38-0.3,0.56-0.46c0.17-0.15,0.36-0.31,0.47-0.52C17.67,84.87,17.46,84.57,17.18,84.64z"/>
			<path class="st12" d="M107.95,72.26c-0.63-2.69-1.1-5.35-1.39-8.1c-0.26-2.51-0.42-5.06-0.92-7.54
				c-0.26-1.33-0.66-2.64-1.15-3.91c-0.32-0.82-0.72-1.68-0.99-2.56c0.05-0.02,0.09-0.05,0.09-0.12c0.01-0.29,0.05-0.58,0.11-0.87
				c0.03-0.14,0.05-0.29,0.11-0.43c-0.02,0.05,0.01-0.01,0.02-0.03c0.02-0.03,0.04-0.07,0.06-0.1c0.01-0.01,0.02-0.03,0.03-0.04
				c0.02-0.02,0.04-0.05,0.06-0.07s0.05-0.04,0.07-0.07l0,0c0,0,0.01,0,0.02-0.01c0.07-0.04,0.13-0.09,0.2-0.13
				c0.06-0.03,0.12-0.06,0.18-0.09c0.03-0.01,0.05-0.02,0.08-0.04c0.01,0,0.04-0.02,0.06-0.03c0.36-0.15,0.72-0.29,0.93-0.64
				c0.2-0.34-0.13-0.71-0.49-0.63c-0.04,0.01-0.08,0.01-0.11,0.02c-0.04,0.01-0.14,0.05-0.15,0.06c-0.06,0.02-0.13,0.05-0.19,0.07
				c-0.18,0.07-0.36,0.16-0.53,0.25c-0.34,0.17-0.65,0.41-0.81,0.76c-0.14,0.3-0.2,0.65-0.18,0.98c-0.19,2.34,0.75,4.51,1.17,6.81
				c0.48,2.64,0.8,5.29,1.09,7.96c0.26,2.45,0.52,4.91,1.1,7.32c0.32,1.34,0.71,2.66,0.82,4.04c0.13,1.5-0.1,2.95-0.37,4.42
				c-0.11,0.6,0.69,0.82,0.91,0.25C108.68,77.39,108.52,74.72,107.95,72.26z"/>
			<g>
				<path d="M41.95,94.57c-0.3,0-0.57-0.21-0.62-0.52c-0.62-3.51-3.02-6.93-6.59-9.39c-1.37-0.94-2.81-1.69-4.16-2.35
					c-1.52-0.75-3.39-0.98-4.87-0.6c-1.91,0.49-3.81,1.04-5.67,1.65c-0.21,0.07-0.44,0.15-0.59,0.26c-0.27,0.21-0.46,0.45-0.66,0.71
					c-0.42,0.54-0.94,1.21-2.17,1.24c-0.36,0.02-0.64-0.26-0.65-0.61c-0.01-0.35,0.26-0.64,0.61-0.65c0.64-0.02,0.83-0.26,1.21-0.75
					c0.23-0.29,0.49-0.62,0.88-0.93c0.32-0.25,0.68-0.37,0.97-0.46c1.88-0.62,3.82-1.19,5.75-1.68c1.76-0.45,3.96-0.18,5.74,0.69
					c1.39,0.68,2.87,1.45,4.31,2.44c3.85,2.64,6.44,6.36,7.12,10.21c0.06,0.34-0.17,0.67-0.51,0.73
					C42.02,94.57,41.99,94.57,41.95,94.57z"/>
			</g>
			<g>
				<path d="M60.09,89.81c-0.29,0-0.55-0.2-0.61-0.49c-0.71-3.15-2.71-6.28-5.93-9.3c-3.23-3.03-6.58-4.95-9.94-5.71
					c-3.17-0.72-6.67-0.43-9.61,0.79c-1.18,0.49-2.35,1.1-3.48,1.69c-0.49,0.26-0.98,0.51-1.48,0.76c-1.99,1-4.06,1.88-6.07,2.74
					c-1.16,0.5-2.33,0.99-3.48,1.51c-0.64,0.29-1.2,0.56-1.62,0.95c-0.44,0.41-0.55,0.67-0.58,0.76c-0.03,0.12-0.04,0.27-0.04,0.45
					c0,0.33-0.01,0.74-0.24,1.15c-0.21,0.37-0.52,0.61-0.78,0.8l-1.99,1.51c-0.67,0.51-1.36,1.03-1.76,1.72
					c-0.18,0.3-0.56,0.4-0.86,0.22c-0.3-0.18-0.4-0.56-0.22-0.86c0.53-0.9,1.36-1.53,2.09-2.08l1.99-1.51
					c0.18-0.13,0.36-0.27,0.44-0.42C15.99,84.36,16,84.2,16,83.94c0-0.23,0.01-0.49,0.08-0.77c0.12-0.43,0.43-0.88,0.93-1.35
					c0.56-0.52,1.22-0.84,1.96-1.17c1.16-0.52,2.33-1.02,3.5-1.52c1.99-0.85,4.04-1.72,6-2.71c0.49-0.25,0.97-0.5,1.46-0.75
					c1.15-0.6,2.35-1.23,3.58-1.74c3.18-1.32,6.96-1.63,10.37-0.86c3.58,0.81,7.12,2.83,10.52,6.01c3.41,3.19,5.53,6.53,6.3,9.94
					c0.08,0.34-0.14,0.68-0.48,0.75C60.18,89.8,60.14,89.81,60.09,89.81z"/>
			</g>
			<g>
				<path d="M102.26,98.45c-0.05,0-0.11-0.01-0.16-0.02c-0.34-0.09-0.54-0.43-0.45-0.77c0.57-2.21,2.6-4.87,4.72-6.2
					c2.08-1.3,4.47-1.9,6.74-2.36c2.48-0.5,5.02-0.83,7.55-0.99c3.3-0.21,5.8-0.05,8.1,0.5c2.95,0.71,5.45,2.11,7.23,4.06
					c0.88,0.96,1.74,2.73,1.6,4.09c-0.04,0.35-0.35,0.59-0.69,0.56c-0.35-0.04-0.6-0.35-0.56-0.69c0.1-0.92-0.58-2.35-1.28-3.11
					c-1.61-1.76-3.89-3.04-6.6-3.69c-2.17-0.52-4.56-0.67-7.73-0.47c-2.47,0.15-4.95,0.48-7.38,0.97c-2.16,0.43-4.42,1-6.33,2.19
					c-1.84,1.15-3.68,3.54-4.17,5.44C102.79,98.26,102.54,98.45,102.26,98.45z"/>
			</g>
			<g>
				<path d="M105.18,85.67c-0.07,0-0.14-0.01-0.21-0.04c-0.33-0.12-0.5-0.48-0.38-0.8c0.82-2.32,2.38-4.33,4.39-5.67
					c1.89-1.26,3.96-1.83,5.73-2.22c2.6-0.57,4.77-0.8,6.82-0.72c5.22,0.22,9.67,2.86,12.18,7.24c0.17,0.3,0.07,0.69-0.23,0.86
					s-0.69,0.07-0.86-0.23c-3.15-5.47-8.33-6.49-11.15-6.61c-1.94-0.08-4.01,0.14-6.5,0.69c-1.66,0.37-3.59,0.9-5.3,2.04
					c-1.78,1.19-3.17,2.98-3.9,5.04C105.68,85.51,105.44,85.67,105.18,85.67z"/>
			</g>
			<g>
				<path d="M60.1,90.02c-0.25,0-0.49-0.15-0.59-0.4c-0.12-0.32,0.04-0.69,0.36-0.81c0.95-0.37,1.91-0.71,2.88-1.06
					c1.25-0.45,2.55-0.92,3.8-1.42l0.36-0.15c0.56-0.23,1.14-0.46,1.74-0.66c0.68-0.22,1.38-0.37,2.06-0.52l0.34-0.08
					c1.93-0.44,3.96-0.98,6.58-1.76c2.36-0.7,4.61-1.45,6.27-2.96c0.48-0.43,0.82-0.86,1.05-1.29c0.75-1.45,0.37-3.33-0.05-4.8
					c-0.1-0.33,0.1-0.68,0.43-0.78c0.34-0.1,0.68,0.1,0.78,0.43c0.48,1.7,0.91,3.89-0.05,5.73c-0.3,0.57-0.73,1.1-1.31,1.64
					c-1.86,1.69-4.26,2.49-6.76,3.24c-2.65,0.79-4.71,1.33-6.66,1.78l-0.34,0.08c-0.68,0.15-1.32,0.29-1.95,0.5
					c-0.55,0.18-1.09,0.39-1.65,0.62l-0.37,0.15c-1.28,0.51-2.58,0.98-3.84,1.44c-0.95,0.34-1.9,0.69-2.85,1.05
					C60.25,90.01,60.17,90.02,60.1,90.02z"/>
			</g>
			<g>
				<path d="M32.26,100.43c-0.92,0-1.83-0.02-2.72-0.06c-3.58-0.16-7-0.68-10.18-1.53c-1.71-0.46-3.37-1.02-4.93-1.67
					C14.22,97.08,14,97,13.77,96.91c-1.19-0.45-2.53-0.96-3.2-2.22c-0.36-0.67-0.4-1.44-0.43-2.05l-0.13-2.26
					c-0.02-0.32-0.04-0.72,0.1-1.12c0.26-0.72,1-1.14,1.88-1.06c0.35,0.03,0.6,0.34,0.57,0.69c-0.03,0.35-0.33,0.6-0.69,0.57
					c-0.05,0-0.48-0.04-0.58,0.23c-0.06,0.16-0.04,0.39-0.03,0.62l0.13,2.26c0.03,0.54,0.06,1.1,0.29,1.53
					c0.44,0.84,1.5,1.24,2.53,1.63c0.24,0.09,0.48,0.18,0.71,0.28c1.51,0.63,3.11,1.17,4.77,1.62c3.09,0.83,6.42,1.33,9.91,1.49
					c5.53,0.25,11.39-0.28,19.01-1.72c1.61-0.31,3.28-0.51,4.89-0.71c3.08-0.38,6.27-0.77,9.16-1.89c1.11-0.43,2.25-0.94,3.35-1.42
					c0.87-0.39,1.75-0.77,2.62-1.13c5.85-2.41,11.9-4.89,17.46-8.1c0.49-0.28,0.91-0.54,1.17-0.9c0.41-0.57,0.4-1.42,0.36-2.17
					l-0.05-1.01c-0.07-1.36-0.14-2.76-0.3-4.12c-0.02-0.18-0.04-0.34-0.1-0.46c-0.05-0.12-0.17-0.24-0.36-0.39
					c-0.42-0.32-0.91-0.53-1.43-0.62c-0.34-0.06-0.57-0.38-0.52-0.73c0.06-0.34,0.38-0.57,0.73-0.52c0.72,0.12,1.4,0.42,1.98,0.86
					c0.23,0.17,0.55,0.45,0.74,0.86c0.13,0.28,0.17,0.57,0.21,0.83c0.17,1.4,0.24,2.83,0.31,4.21l0.05,1
					c0.06,1.03,0.02,2.11-0.59,2.97c-0.4,0.56-0.97,0.92-1.56,1.26c-5.63,3.24-11.72,5.75-17.61,8.17
					c-0.86,0.36-1.73,0.74-2.59,1.12c-1.11,0.49-2.26,1-3.4,1.45c-3.03,1.18-6.3,1.58-9.46,1.97c-1.59,0.19-3.23,0.39-4.8,0.69
					C42.35,99.86,37.11,100.43,32.26,100.43z"/>
			</g>
			<g>
				<path d="M30.14,95.72c-0.04,0-0.09,0-0.13,0h-0.63c-1.44-0.01-2.93-0.01-4.38-0.17c-0.67-0.07-1.37-0.11-2.05-0.15
					c-0.82-0.04-1.68-0.09-2.52-0.2c-1.9-0.25-3.55-0.68-5.05-1.32c-1.16-0.5-2.02-1.04-2.71-1.71c-0.81-0.79-1.33-1.74-1.48-2.72
					c-0.21-0.17-0.29-0.46-0.18-0.72c0.12-0.3,0.42-0.47,0.73-0.43c0.39,0.06,0.65,0.43,0.68,0.76c0.07,0.77,0.48,1.56,1.14,2.21
					c0.57,0.55,1.31,1.01,2.32,1.45c1.39,0.6,2.93,1,4.72,1.23c0.8,0.1,1.62,0.15,2.42,0.19c0.69,0.04,1.41,0.07,2.12,0.15
					c1.39,0.15,2.84,0.16,4.25,0.16h0.64c2.36,0.01,5.79-0.41,8.81-0.79c1.12-0.14,2.17-0.27,3.06-0.36
					c0.35-0.03,0.66,0.21,0.69,0.56c0.04,0.35-0.21,0.66-0.56,0.69c-0.89,0.09-1.93,0.22-3.04,0.36
					C35.98,95.3,32.58,95.72,30.14,95.72z M11.15,89.18L11.15,89.18L11.15,89.18z"/>
			</g>
			<g>
				<path d="M118.94,110.16c-1.07,0-2.14-0.04-3.21-0.12c-2.38-0.18-4.75-0.56-7.04-1.13c-0.23-0.06-0.47-0.11-0.72-0.17
					c-1.82-0.43-4.09-0.96-5.24-2.47c-0.37-0.49-0.59-1.04-0.8-1.61c-0.38-1.05-0.74-2.13-1.06-3.2c-0.25-0.82-0.52-1.78-0.6-2.77
					c-0.06-0.76-0.01-1.51,0.03-2.23l0.05-0.75c0.1-1.59,0.2-3.24,0.61-4.87c1.44-5.61,3.17-11.14,5.14-16.45
					c0.05-0.13,0.25-0.53,0.87-0.42c0.15,0,0.29,0.04,0.41,0.13c0.16,0.12,0.25,0.31,0.25,0.52c-0.05,2.81-0.17,5.2-0.56,7.73
					c-0.05,0.34-0.37,0.58-0.72,0.53c-0.34-0.05-0.58-0.37-0.53-0.72c0.23-1.51,0.37-2.97,0.45-4.52c-1.54,4.4-2.92,8.94-4.09,13.53
					c-0.39,1.51-0.48,3.02-0.58,4.63l-0.05,0.75c-0.04,0.68-0.09,1.38-0.04,2.04c0.07,0.86,0.31,1.71,0.55,2.51
					c0.31,1.05,0.66,2.1,1.04,3.13c0.18,0.5,0.35,0.94,0.62,1.29c0.87,1.16,2.9,1.63,4.52,2.01c0.26,0.06,0.51,0.12,0.74,0.18
					c2.22,0.55,4.52,0.92,6.82,1.1c4.65,0.35,9.26-0.08,13.72-1.27c0.51-0.14,0.88-0.23,1.17-0.3c0.99-0.25,0.99-0.25,2.65-1.04
					c0.21-0.12,0.44-0.25,0.66-0.37c1.14-0.64,1.83-1.03,2.42-2.03c1.08-1.84,1.03-3.92,0.98-6.12c-0.01-0.28-0.01-0.56-0.02-0.84
					c-0.06-4.26-1.49-8.08-2.87-11.78c-0.86-2.29-1.78-4.57-2.76-6.82c0.04,0.11,0.08,0.22,0.12,0.34c0.5,1.39,1.32,3.72,1.77,4.67
					c0.15,0.31,0.01,0.69-0.3,0.84c-0.31,0.15-0.69,0.01-0.84-0.3c-0.47-1-1.28-3.27-1.81-4.78c-0.21-0.58-0.36-1.02-0.43-1.18
					c-0.24-0.59-0.87-2.35-1.42-3.92c-0.45-1.26-0.87-2.44-1-2.75c-0.07-0.19-0.06-0.4,0.05-0.57s0.29-0.28,0.48-0.3
					c1.16-0.09,1.77,1.35,2.14,2.21c0.06,0.14,0.11,0.26,0.15,0.35c1.85,3.82,3.54,7.78,5.03,11.77c1.35,3.62,2.88,7.72,2.95,12.2
					c0,0.27,0.01,0.55,0.02,0.82c0.05,2.28,0.11,4.64-1.15,6.78c-0.76,1.29-1.7,1.82-2.89,2.49c-0.21,0.12-0.44,0.24-0.67,0.38
					c-0.01,0.01-0.04,0.02-0.06,0.03c-1.74,0.83-1.77,0.84-2.89,1.12c-0.29,0.07-0.65,0.16-1.16,0.3
					C126.3,109.68,122.64,110.16,118.94,110.16z M106.82,73.99L106.82,73.99L106.82,73.99z"/>
			</g>
			<g>
				<path d="M116.74,104.59c-0.56,0-1.11-0.01-1.67-0.02c-2.32-0.06-5.03-0.26-7.59-1.27c-2.7-1.07-4.82-2.97-5.8-5.22
					c-0.14-0.32,0.01-0.69,0.32-0.83c0.32-0.14,0.69,0.01,0.83,0.32c0.85,1.95,2.72,3.61,5.11,4.55c2.38,0.94,4.95,1.13,7.16,1.19
					c4.57,0.12,9.22-0.31,13.71-0.73c1.03-0.1,2.09-0.2,3.11-0.4c1.42-0.29,2.43-0.76,3.09-1.44c0.51-0.53,0.84-2.01,1.09-3.1
					c0.1-0.42,0.18-0.8,0.27-1.1c0.1-0.33,0.45-0.53,0.78-0.43s0.53,0.44,0.43,0.78c-0.08,0.28-0.16,0.64-0.25,1.03
					c-0.29,1.3-0.66,2.92-1.41,3.69c-0.84,0.87-2.06,1.46-3.74,1.8c-1.08,0.22-2.18,0.32-3.24,0.42
					C124.94,104.2,120.83,104.59,116.74,104.59z"/>
			</g>
			<g>
				<path d="M43.11,94.42c-0.08,0-0.15-0.06-0.16-0.14c-0.01-0.09,0.05-0.16,0.14-0.18c3.82-0.47,7.63-1.26,11.32-2.35
					c1.42-0.42,3.05-0.94,4.48-1.83c0.07-0.04,0.17-0.02,0.22,0.05c0.05,0.07,0.02,0.17-0.05,0.22c-1.46,0.92-3.12,1.45-4.55,1.87
					c-3.71,1.09-7.53,1.88-11.37,2.36C43.12,94.42,43.12,94.42,43.11,94.42z"/>
			</g>
			<g>
				<path d="M102.11,98.35c-0.05,0-0.1-0.02-0.13-0.07c-0.57-0.82-0.4-1.97-0.27-2.89l0.02-0.11c0.46-3.25,1.46-6.38,2.98-9.29
					c0.04-0.08,0.14-0.11,0.21-0.07c0.08,0.04,0.11,0.14,0.07,0.21c-1.5,2.88-2.49,5.97-2.95,9.19l-0.02,0.11
					c-0.12,0.87-0.28,1.95,0.22,2.67c0.05,0.07,0.03,0.17-0.04,0.22C102.17,98.34,102.14,98.35,102.11,98.35z"/>
			</g>
			<g>
				<path d="M137.15,96.51c-0.08,0-0.15-0.06-0.16-0.15c-0.07-1.19-0.41-2.36-0.74-3.5l-0.83-2.84c-0.51-1.75-1.04-3.57-1.99-5.15
					c-0.04-0.07-0.02-0.17,0.05-0.22s0.17-0.02,0.22,0.05c0.97,1.62,1.5,3.46,2.02,5.23l0.83,2.84c0.34,1.15,0.68,2.34,0.76,3.57
					C137.31,96.43,137.24,96.5,137.15,96.51C137.16,96.51,137.15,96.51,137.15,96.51z"/>
			</g>
			<g>
				<path d="M111.07,88.46c-0.07,0-0.13-0.04-0.15-0.11c-0.03-0.08,0.02-0.17,0.1-0.2c4.53-1.39,9.4-1.81,14.09-1.21
					c0.09,0.01,0.15,0.09,0.14,0.18c-0.01,0.09-0.09,0.15-0.18,0.14c-4.65-0.6-9.48-0.18-13.96,1.19
					C111.1,88.46,111.08,88.46,111.07,88.46z"/>
			</g>
			<g>
				<path d="M123.56,85.33c-0.01,0-0.01,0-0.02,0c-1.43-0.19-2.89-0.26-4.33-0.2c-0.09,0.01-0.16-0.06-0.16-0.15
					c0-0.09,0.06-0.16,0.15-0.16c1.46-0.05,2.94,0.01,4.39,0.2c0.09,0.01,0.15,0.09,0.14,0.18
					C123.71,85.28,123.64,85.33,123.56,85.33z"/>
			</g>
			<g>
				<path d="M42.33,88.34c-0.05,0-0.1-0.02-0.13-0.07c-1.79-2.66-4.24-4.86-7.07-6.37c-0.08-0.04-0.11-0.14-0.06-0.21
					c0.04-0.08,0.14-0.11,0.21-0.06c2.87,1.54,5.36,3.78,7.18,6.48c0.05,0.07,0.03,0.17-0.04,0.22
					C42.39,88.33,42.36,88.34,42.33,88.34z"/>
			</g>
			<g>
				<path d="M44.19,88.5c-0.05,0-0.11-0.03-0.14-0.08c-0.73-1.24-1.59-2.39-2.56-3.44c-0.06-0.06-0.06-0.16,0.01-0.22
					c0.06-0.06,0.16-0.06,0.22,0.01c0.99,1.07,1.87,2.24,2.61,3.5c0.04,0.08,0.02,0.17-0.06,0.22C44.24,88.49,44.21,88.5,44.19,88.5
					z"/>
			</g>
			<g>
				<path d="M85.59,75.08c-0.3,0-0.57-0.22-0.62-0.52c-0.4-2.34-1.59-4.41-2.84-6.6c-0.43-0.75-0.87-1.52-1.27-2.29
					c-1.33-2.55-2.33-5.55-2.96-8.89c-0.28-1.47-0.5-3.04-0.64-4.64c-0.03-0.38-0.05-0.75-0.08-1.13c-0.02-0.38-0.04-0.77-0.08-1.15
					c-0.01-0.11-0.02-0.23-0.02-0.36c-0.01-0.25-0.03-0.76-0.15-0.86c-0.04-0.04-0.17-0.08-0.26-0.1c-4.99-1.59-10.3-2.29-15.31-2.8
					c-2.69-0.28-5.31-0.49-7.83-0.08c-0.2,0.03-0.41,0.07-0.52,0.16c-0.14,0.11-0.16,0.34-0.09,0.83c0.05,0.32,0.06,0.62,0.07,0.9
					c0.01,0.2,0.01,0.39,0.03,0.6c0.06,0.59,0.14,1.18,0.22,1.76c0.1,0.74,0.21,1.51,0.27,2.29c0.26,3.24,0.18,5.87-0.25,8.27
					c-0.19,1.07-0.44,2.22-0.95,3.28C51.73,64.98,50.84,66,49.99,67c-1.5,1.74-3.06,3.55-5.07,4.85l-0.4,0.26
					c-0.98,0.64-2.09,1.36-3.22,1.79c-0.33,0.12-0.69-0.04-0.81-0.37c-0.12-0.33,0.04-0.69,0.37-0.81c1-0.38,2.01-1.03,2.98-1.66
					l0.4-0.26c1.86-1.2,3.35-2.93,4.8-4.61c0.8-0.93,1.63-1.89,2.15-2.99c0.44-0.93,0.67-1.97,0.84-2.96
					c0.41-2.29,0.49-4.82,0.23-7.95C52.2,51.55,52.1,50.8,52,50.07c-0.08-0.6-0.17-1.2-0.23-1.81c-0.02-0.23-0.03-0.46-0.04-0.69
					c-0.01-0.26-0.02-0.51-0.05-0.75c-0.07-0.45-0.21-1.39,0.54-2c0.34-0.28,0.75-0.36,1.11-0.42c2.67-0.44,5.38-0.22,8.16,0.07
					c5.07,0.52,10.47,1.23,15.56,2.86c0.19,0.06,0.44,0.14,0.67,0.33c0.56,0.46,0.59,1.22,0.61,1.78c0,0.11,0.01,0.21,0.02,0.3
					c0.04,0.4,0.06,0.8,0.08,1.2c0.02,0.36,0.04,0.73,0.07,1.09c0.14,1.57,0.35,3.09,0.62,4.52c0.62,3.23,1.57,6.1,2.84,8.55
					c0.39,0.75,0.83,1.51,1.25,2.25c1.26,2.19,2.55,4.45,2.99,7.01c0.06,0.34-0.17,0.67-0.51,0.73
					C85.66,75.08,85.62,75.08,85.59,75.08z"/>
			</g>
			<g>
				<path d="M107.01,75.23c-0.34,0-0.61-0.27-0.63-0.6c-0.09-2.12-0.6-4.31-1.14-6.63c-0.51-2.16-1.03-4.39-1.28-6.82
					c-0.35-3.32-0.74-7.09-2.01-10.87c-0.2-0.58-0.12-1.68,0.07-2.2c0.21-0.56,0.95-0.83,2.06-1.17c0.22-0.07,0.4-0.12,0.51-0.17
					c2.78-1.23,4.66-1.07,7.04-0.87c0.68,0.06,1.38,0.12,2.18,0.15c1.53,0.07,3.05,0.15,4.58,0.24c1.51,0.09,2.99,0.2,4.44,0.55
					l0.08,0.02c1.21,0.29,3.23,0.77,3.8,2.19c0.18,0.46,0.14,0.89,0.1,1.26c-0.02,0.15-0.03,0.29-0.03,0.44
					c0.01,0.54,0,1.15-0.02,1.73c-0.01,0.57-0.03,1.15-0.02,1.67l0.02,0.56c0.02,0.82,0.04,1.47-0.02,2.41
					c-0.05,0.77-0.01,1.05,0.2,1.81c0.09,0.33,0.27,0.84,0.45,1.33c0.19,0.52,0.38,1.06,0.49,1.45c0.23,0.85,0.1,1.6-0.02,2.33
					c-0.06,0.38-0.12,0.74-0.14,1.12c-0.04,1.15,0.31,2.21,0.71,3.44c0.22,0.68,0.45,1.39,0.64,2.17c0.08,0.34-0.13,0.68-0.47,0.76
					s-0.68-0.13-0.76-0.47c-0.17-0.73-0.39-1.41-0.61-2.07c-0.42-1.28-0.81-2.5-0.77-3.87c0.02-0.46,0.08-0.88,0.15-1.29
					c0.11-0.65,0.2-1.21,0.04-1.8c-0.09-0.33-0.28-0.85-0.46-1.35c-0.19-0.54-0.38-1.05-0.48-1.43c-0.24-0.88-0.3-1.3-0.24-2.22
					c0.06-0.88,0.04-1.5,0.02-2.29l-0.02-0.56c-0.01-0.54,0-1.13,0.02-1.73c0.01-0.58,0.03-1.15,0.02-1.67
					c0-0.2,0.01-0.41,0.04-0.61c0.03-0.27,0.05-0.5-0.01-0.66c-0.33-0.82-2.01-1.22-2.92-1.44l-0.08-0.02
					c-1.35-0.32-2.77-0.43-4.22-0.51c-1.52-0.09-3.04-0.17-4.56-0.24c-0.82-0.04-1.57-0.1-2.23-0.15c-2.37-0.2-3.94-0.33-6.43,0.77
					c-0.13,0.06-0.37,0.13-0.64,0.22c-0.32,0.1-1.05,0.32-1.28,0.48c-0.09,0.35-0.12,1.05-0.04,1.29c1.32,3.92,1.72,7.76,2.07,11.14
					c0.25,2.35,0.76,4.55,1.26,6.67c0.56,2.38,1.08,4.63,1.17,6.87c0.01,0.35-0.26,0.64-0.6,0.65
					C107.02,75.23,107.02,75.23,107.01,75.23z M103.13,48.63L103.13,48.63L103.13,48.63z"/>
			</g>
			<path class="st12" d="M38.04,70.66c-0.22,1.88-2.03,2.63-2.03,2.63s1.81,0.76,2.03,2.63c0.22-1.88,2.03-2.63,2.03-2.63
				S38.26,72.54,38.04,70.66z"/>
			<path class="st12" d="M70.39,84.16c-0.16,1.35-1.46,1.89-1.46,1.89s1.3,0.54,1.46,1.89c0.16-1.35,1.46-1.89,1.46-1.89
				S70.54,85.51,70.39,84.16z"/>
			<path class="st12" d="M109.87,77.76c-0.16,1.35-1.46,1.89-1.46,1.89s1.3,0.54,1.46,1.89c0.16-1.35,1.46-1.89,1.46-1.89
				S110.03,79.1,109.87,77.76z"/>
			<path class="st12" d="M124.41,85.61c-0.1,0.89-0.97,1.25-0.97,1.25s0.86,0.36,0.97,1.25c0.1-0.89,0.97-1.25,0.97-1.25
				S124.51,86.5,124.41,85.61z"/>
		</g>
	</g>
</g>
</svg>
