<?xml version="1.0" encoding="utf-8"?>
<!-- Generator: Adobe Illustrator 28.0.0, SVG Export Plug-In . SVG Version: 6.00 Build 0)  -->
<svg version="1.1" id="Layer_1" xmlns="http://www.w3.org/2000/svg" xmlns:xlink="http://www.w3.org/1999/xlink" x="0px" y="0px"
	 viewBox="0 0 150 150" style="enable-background:new 0 0 150 150;" xml:space="preserve">
<style type="text/css">
	.st0{fill:url(#SVGID_1_);}
	.st1{fill:#FDFDFF;}
	.st2{fill:#C6C8C7;}
	.st3{fill:#7D7D7D;}
	.st4{fill:url(#SVGID_00000047754306286343707660000006795998417184504201_);}
	.st5{fill:url(#SVGID_00000011016177302488941080000007390340783092172984_);}
	.st6{fill:url(#SVGID_00000138538829870035219370000017509932624478271370_);}
	.st7{fill:url(#SVGID_00000088100628479366247350000003793722119345669795_);}
	.st8{fill:url(#SVGID_00000008138276002598277840000003101841053311884427_);}
	.st9{fill:url(#SVGID_00000117656674033305421660000008818847401921869725_);}
	.st10{fill:url(#SVGID_00000172407834833066168690000017782853278594203807_);}
	.st11{fill:url(#SVGID_00000147922313999705106660000013111665985808935554_);}
	.st12{fill:url(#SVGID_00000090990067125525971720000010043391905657989281_);}
	.st13{fill:#E9E9E9;}
	.st14{fill:none;stroke:#000000;stroke-miterlimit:10;}
	.st15{fill:none;stroke:#000000;stroke-width:2;stroke-linecap:round;stroke-linejoin:round;stroke-miterlimit:10;}
	.st16{fill:none;stroke:#000000;stroke-width:0.5;stroke-linecap:round;stroke-linejoin:round;stroke-miterlimit:10;}
	.st17{fill:none;stroke:#000000;stroke-width:0.25;stroke-linecap:round;stroke-linejoin:round;stroke-miterlimit:10;}
	.st18{fill:none;stroke:#000000;stroke-width:0.5;stroke-linecap:round;stroke-linejoin:round;stroke-miterlimit:9.9998;}
	.st19{fill:#4D8EB2;}
</style>
<g id="Boomer_Elixir">
	<g>
		
			<linearGradient id="SVGID_1_" gradientUnits="userSpaceOnUse" x1="292.1363" y1="307.4145" x2="260.9979" y2="306.3137" gradientTransform="matrix(0.7623 0.6472 0.6472 -0.7623 -306.1981 142.9061)">
			<stop  offset="0" style="stop-color:#000000"/>
			<stop  offset="0.0117" style="stop-color:#050504;stop-opacity:0.9883"/>
			<stop  offset="0.1745" style="stop-color:#45413A;stop-opacity:0.8255"/>
			<stop  offset="0.3351" style="stop-color:#7D7568;stop-opacity:0.6649"/>
			<stop  offset="0.4895" style="stop-color:#AA9F8D;stop-opacity:0.5105"/>
			<stop  offset="0.6366" style="stop-color:#CDC0AB;stop-opacity:0.3634"/>
			<stop  offset="0.7744" style="stop-color:#E6D8C0;stop-opacity:0.2256"/>
			<stop  offset="0.8993" style="stop-color:#F6E6CD;stop-opacity:0.1007"/>
			<stop  offset="1" style="stop-color:#FBEBD1;stop-opacity:0"/>
		</linearGradient>
		<path class="st0" d="M97.19,90.91c0.08-0.1,0.16-0.19,0.24-0.28c0.98-1.23,1.88-2.52,3.18-3.43c0.06-0.04,0.12-0.06,0.18-0.09
			c0.23-0.95,0.46-1.9,0.68-2.85c0.19-0.78,0.41-1.56,0.55-2.35c0.13-0.75,0.06-1.66,0.23-2.37c0.02-0.07-0.08-0.09-0.11-0.03
			c-0.77,1.29-1.59,2.2-2.15,3.66c-0.58,1.51-1.09,3.05-1.62,4.58C98.01,88.8,97.61,89.86,97.19,90.91z"/>
		<path class="st1" d="M92.4,96.12c0.72-0.86,1.45-1.72,2.26-2.54c0.49-0.49,0.97-0.99,1.34-1.57c0.31-0.48,0.52-1.01,0.74-1.54
			c1.18-2.89,2.36-5.78,3.54-8.67c0.94-2.31,2.31-3.67,3.89-5.57c1.59-1.91,3.54-2.99,6.09-2.78c0.51,0.04,1.04,0.15,1.54,0.03
			c0.72-0.18,1.25-0.78,1.73-1.35c2.42-2.91,4.84-5.82,7.27-8.73c1.58-1.9,3.17-3.82,4.25-6.03s1.62-4.8,0.96-7.18
			c-0.55-2-2.21-2.45-3.9-3.18c-2.04-0.88-3.99-1.94-5.86-3.13c-3.57-2.27-6.83-5-9.92-7.88c-2.87-2.67-5.53-5.54-8.05-8.54
			c-1.24-1.47-2.4-3.01-3.68-4.42c0.57-1.43,0.85-2.74,0.3-4.25c-0.45-1.23-2.29-1.38-2.84-0.14c-0.25,0.57-0.62,0.96-1.06,1.25
			c-0.13-0.08-0.25-0.18-0.38-0.26c-1.32-0.79-2.39,0.16-2.63,1.34c-0.03,0.01-0.05,0.01-0.08,0.02c-1.41,0.42-2.7,0.99-3.87,1.87
			c-2.59,1.95-4.79,4.54-7.01,6.87C72.1,34.9,67.45,40.33,63,45.92c-0.68,0.85-0.36,1.93,0.54,2.45c1.84,1.06,2.64,3.14,2.67,5.19
			c0.01,0.61-0.09,1.52-0.34,2.38c-0.07,0.04-0.15,0.05-0.22,0.1c-1.14,0.79-2.38,1.41-3.67,1.9c-0.08,0.02-0.16,0.05-0.23,0.07
			c-0.1,0.03-0.18,0.09-0.27,0.13c-1.41,0.49-2.89,0.81-4.39,0.95c-1.02,0.1-1.96,1.25-1.49,2.29c1.58,3.47-2.98,5.51-5.54,6.24
			c-2.31,0.66-7.59,1.11-7.07,4.62c0.21,1.44,1.5,2.07,2.2,3.22c1.01,1.67,0.63,3.79-0.5,5.27c-2.61,3.43-6.86,2.81-10.58,2.4
			c-2.9-0.32-5.92,5.17-7.4,7.13c-1.46,1.94-3.13,3.86-3.38,6.37c-0.26,2.5,0.61,5,1.43,7.31c0.47,1.32,0.94,2.64,1.4,3.96
			c0.36,1.01,0.72,2.03,1.21,2.99c0.96,1.86,2.39,3.43,3.81,4.98c3.04,3.32,6.6,6.18,10.44,8.53c3.07,1.88,8.32,5.45,12.06,4.37
			c2.08-0.6,3.37,1.54,5.5,1.85c4.25,0.61,5.37-2.52,7.5-5.22c2.69-3.4,5.68-6.55,8.43-9.9c1.31-1.58,2.61-3.17,4.03-4.65
			c2.46-2.58,5.24-4.84,7.66-7.47C88.91,101.13,90.44,98.49,92.4,96.12z"/>
		<path class="st2" d="M98.11,38.78c-0.33-0.43-0.72-0.8-1.2-1.05c-0.52-0.26-1.1-0.38-1.67-0.43c-0.16-0.01-0.32-0.02-0.46-0.1
			c-0.14-0.07-0.24-0.2-0.34-0.32c-1.44-1.82-1.68-4.67-4.32-5.25c-0.33-0.07-0.7-0.1-1.01,0.04c-0.31,0.14-0.56,0.48-0.49,0.81
			c0.03,0.13,0.09,0.25,0.15,0.37c0.73,1.39,0.71,3.14-0.04,4.52c-0.02,0.04-0.05,0.09-0.09,0.11c-0.1,0.05-0.21-0.02-0.29-0.09
			c-1.09-0.96-1.93-2.19-2.43-3.56c-0.08-0.22-0.22-0.49-0.46-0.46c-0.11,0.02-0.2,0.11-0.27,0.2c-1.07,1.29-1.84,2.93-2.71,4.37
			c-0.94,1.56-1.89,3.12-2.83,4.68c-0.11,0.18-0.22,0.36-0.37,0.49c-0.21,0.17-0.49,0.25-0.73,0.37c-0.85,0.44-1.19,1.45-1.65,2.3
			c-0.4,0.74-0.94,1.38-1.58,1.91c-0.59,0.49-1.33,0.67-1.97,1.09c-1.43,0.93-2.47,2.34-3.4,3.73c-0.99,1.47-1.85,2.97-2.67,4.53
			c-0.45,0.86-0.9,1.71-1.35,2.57c-0.31,0.58-0.76,2.08-1.29,2.44c1.77-1.22,2.93-3.03,4.72-4.26c0.84-0.58,1.79-1.1,2.32-1.98
			c0.35-0.57,0.5-1.24,0.84-1.81c0.33-0.54,0.81-0.97,1.24-1.43c0.91-0.99,1.58-2.18,2.55-3.11c1.16-1.11,2.67-1.77,4.01-2.66
			c1.02-0.67,1.89-1.5,2.45-2.59c0.44-0.85,0.68-2.18,1.48-2.77c0.43-0.32,1.01-0.37,1.46-0.67c0.2-0.13,0.34-0.26,0.58-0.28
			c0.28,1.48-1.3,3.76-2.19,4.88c-0.75,0.94-1.84,1.39-2.63,2.22c-0.97,1.01-1.36,2.56-2.25,3.65c-1.31,1.6-3.3,2.47-4.96,3.71
			c-3.6,2.67-5.06,6.69-7.46,10.27c-1.75,2.6-3.9,5.11-4.4,8.2c2.53-2.24,5.07-4.48,7.6-6.72c0.97-0.86,1.97-1.76,2.48-2.95
			c0.17-0.39,0.28-0.81,0.46-1.19c0.4-0.84,1.03-1.17,1.67-1.74c0.66-0.6,0.92-1.31,1.39-2.05c0.31-0.48,0.73-0.88,1.15-1.26
			c2.12-1.94,4.51-3.6,6.57-5.58c1.78-1.72,3.88-3.15,5.2-5.29c0.66-1.07,1.49-2.29,2.46-3.08c1.09-0.89,2.23-1.7,3.28-2.67
			c0.17-0.16,0.43-0.32,0.6-0.17c0.08,0.07,0.1,0.18,0.12,0.28c0.3,1.88-1.02,3.59-2.01,5.03c-1.46,2.14-2.54,4.6-3.92,6.8
			c-0.33,0.52-0.66,1.05-1.11,1.48c-0.54,0.52-1.2,0.61-1.79,1.03c-0.61,0.45-1.03,1.15-1.38,1.81c-0.69,1.29-1.33,2.63-2.24,3.79
			c-0.82,1.03-1.78,1.71-2.98,2.21c-3.79,1.59-6.07,5.22-8.26,8.46c-3.1,4.58-5.91,9.31-8.07,14.42c-0.02,0.05,0.84-0.24,0.94-0.31
			c0.3-0.22,0.61-0.59,0.9-0.84c0.75-0.66,1.43-1.38,2.11-2.11c1.35-1.46,2.66-2.99,4.31-4.12c1.39-0.96,3.14-1.77,3.62-3.39
			c0.15-0.52,0.09-1.49,0.48-1.87c0.45-0.44,1.04-0.71,1.52-1.11c1.32-1.11,1.73-2.87,2.98-4.03c1.5-1.39,2.99-2.78,4.49-4.17
			c1.7-1.59,3.34-3.3,5.29-4.6c1.68-1.13,3.55-2.24,4.32-4.11c0.19-0.46,0.31-0.96,0.52-1.41c0.61-1.28,1.94-2.33,2.99-3.24
			c0.53-0.45,1.12-0.84,1.67-1.26c0.65-0.5,1.16-1.23,1.87-1.65c0.05-0.03,0.12-0.06,0.18-0.04c0.05,0.02,0.08,0.08,0.09,0.14
			c0.09,0.35-0.01,0.72-0.11,1.07c-0.57,1.87-1.69,3.56-2.63,5.25c-0.78,1.41-1.74,2.71-2.66,4.04c-0.37,0.54-0.76,1.09-1.33,1.41
			c-0.27,0.15-0.58,0.24-0.84,0.4c-0.9,0.56-1.18,1.81-1.74,2.65c-0.74,1.11-1.5,2.23-2.57,3.05c-0.91,0.7-1.99,1.15-2.94,1.79
			c-1.68,1.13-2.9,2.81-4.06,4.47c-3.14,4.5-6.21,9-8.32,14.09c1.75-0.73,2.91-2.38,4.2-3.78c1.19-1.3,2.55-2.43,4.04-3.37
			c0.38-0.24,0.78-0.47,1.08-0.8c0.47-0.52,0.63-1.21,0.84-1.86c0.33-1.08,1.16-1.46,1.94-2.2c0.99-0.93,1.65-2.15,2.5-3.2
			c0.74-0.91,1.63-1.68,2.51-2.45c1.16-1.01,2.31-2.02,3.47-3.03c0.78-0.68,1.55-1.36,2.38-1.98c0.85-0.64,1.77-1.23,2.38-2.1
			c0.78-1.1,1.25-2.38,2.08-3.46c0.92-1.2,2.05-2.24,3.32-3.05c-0.04,1.3-0.58,2.54-1.25,3.65c-0.67,1.12-1.47,2.15-2.11,3.28
			c-0.27,0.48-0.51,0.98-0.89,1.37c-0.54,0.55-1.22,0.78-1.68,1.43c-0.48,0.67-0.72,1.48-1.19,2.16c-0.81,1.17-2.13,1.67-3.28,2.42
			c-2.1,1.37-3.6,3.91-4.98,5.96c-1.53,2.27-2.87,4.7-3.68,7.32c1.79-1.5,3.05-3.64,5.1-4.77c0.75-0.41,1.69-0.81,1.81-1.65
			c0.03-0.24-0.01-0.49,0.02-0.72c0.13-0.88,1.2-1.23,1.83-1.86c0.44-0.44,0.66-1.03,1.01-1.54c0.34-0.51,0.82-0.87,1.28-1.28
			c1.09-0.98,2.25-1.88,3.25-2.94c0.93-0.99,2.28-1.46,3.17-2.55c0.71-0.87,1.14-1.96,1.85-2.83c0.43-0.52,0.95-0.95,1.47-1.38
			c0.92-0.76,1.79-1.53,2.64-2.34c0.08-0.07,0.16-0.15,0.18-0.26c0.02-0.12-0.04-0.23-0.1-0.33c-0.89-1.56-1.79-3.13-2.68-4.69
			c0.38-0.25,0.79-0.53,0.96-0.96c0.2-0.5-0.07-0.73-0.34-1.06c-0.31-0.39-0.59-0.81-0.86-1.27c-0.56-0.99-1.12-1.97-1.69-2.96
			c-0.57-1-1.13-1.89-2.35-2.16c-0.62-0.14-1.14-0.16-1.52-0.71c-0.18-0.25-0.35-0.5-0.53-0.75c-0.17-0.24-0.34-0.48-0.45-0.74
			c-0.09-0.21-0.15-0.44-0.24-0.66c-0.25-0.65-0.73-1.13-1.06-1.72C98.8,39.84,98.49,39.27,98.11,38.78z"/>
		<path class="st3" d="M52.22,127.13c-2.02-1.67-4.71-2.77-6.92-4.2c-2.32-1.5-4.65-2.96-6.86-4.63c-2.13-1.6-4.15-3.34-6-5.26
			c-0.99-1.03-2.03-2.07-2.92-3.19c-0.86-1.08-1.55-2.29-2.42-3.35c-0.98-1.19-2.38,0.01-2.02,1.04h-0.05
			c1,2.47,2.89,4.94,4.67,6.91c1.98,2.2,4.17,4.19,6.52,6c2.31,1.79,4.76,3.43,7.32,4.84c2.4,1.32,5.16,3.03,7.82,3.67
			C52.39,129.22,53,127.78,52.22,127.13z"/>
		<path class="st3" d="M128.99,46.52c-0.18-2.61-2.78-4.67-4.49-6.39c-4.39-4.42-8.84-8.77-13.3-13.11
			c0.08-0.07,0.18-0.11,0.26-0.19c0.83-0.79,0.44-2.08-0.23-2.78c-1.19-1.25-2.49-2.96-3.8-3.87c-1.87-1.31-3.98-2.97-6.06-3.94
			c-0.07-0.03-0.15-0.07-0.23-0.06c-0.1,0.01-0.18,0.1-0.25,0.18c-0.35,0.44-0.54,1.01-0.53,1.57c0,0.23,0.03,0.48-0.13,0.65
			c-0.45,0.45-1.42-0.54-1.8-0.76c-1.39-0.81-2.88-0.94-4.46-0.75c-0.21,0.02-0.42,0.06-0.59,0.17c-0.13,0.08-0.24,0.2-0.34,0.32
			c-0.51,0.59-1.02,1.18-1.53,1.77c-0.18,0.21-0.38,0.45-0.39,0.73c-0.02,0.3,0.18,0.57,0.37,0.81c2.81,3.55,5.42,7.08,8.71,10.2
			c2.57,2.44,5.22,4.82,7.91,7.13c4.88,4.18,10.01,8.27,16.04,10.68c0.16,0.07,0.32,0.11,0.48,0.13c0.13,0.07,0.25,0.15,0.39,0.2
			C127.01,49.98,129.14,48.79,128.99,46.52z"/>
		
			<linearGradient id="SVGID_00000049939778252048891340000010111927798873885323_" gradientUnits="userSpaceOnUse" x1="222.4666" y1="354.6006" x2="261.7876" y2="354.6006" gradientTransform="matrix(0.7623 0.6472 0.6472 -0.7623 -306.1981 142.9061)">
			<stop  offset="0" style="stop-color:#FFFFFF"/>
			<stop  offset="0.9965" style="stop-color:#FFFFFF;stop-opacity:0"/>
		</linearGradient>
		<path style="fill:url(#SVGID_00000049939778252048891340000010111927798873885323_);" d="M118.53,44.3
			c-0.2-0.13-0.41-0.25-0.62-0.37c-4.74-2.77-9.02-6.32-12.63-10.47c1.06,0.66,2.12,1.33,3.18,1.99c0.56,0.35,1.15,0.71,1.8,0.79
			c0.25,0.03,0.6-0.06,0.6-0.31c-0.26-0.19-0.52-0.4-0.77-0.6c0.31,0.12,0.66,0.05,0.89-0.21c0.37-0.44,0.48-1.08,0.48-1.64
			c-0.01-0.53-0.17-1.05-0.41-1.52c-0.24-0.47-0.66-0.87-1.09-1.18c-0.28-0.21-0.59-0.37-0.92-0.49c0.2-0.11,0.41-0.21,0.59-0.38
			c0.44-0.42,0.71-0.97,1.13-1.41c0.05-0.05,0-0.13-0.07-0.13c-0.53,0.05-0.96,0.36-1.36,0.68c-0.38,0.3-0.75,0.52-1.25,0.41
			c-0.49-0.11-1.06-0.36-1.55-0.58c-0.71-0.32-1.18-0.8-1.93-0.99c-0.1-0.03-0.23-0.04-0.3,0.04c-0.1,0.11,0.02,0.28,0.14,0.38
			c0.72,0.61,1.5,1.13,2.34,1.57c0.27,0.14,0.54,0.27,0.75,0.49c0.14,0.15,0.26,0.34,0.45,0.41c0.11,0.04,0.22,0.03,0.33,0.05
			c0.42,0.07,0.51,0.41,0.75,0.68c0.14,0.15,0.27,0.32,0.38,0.5c0.15,0.22,0.17,0.28,0.27,0.51c0.08,0.17,0.13,0.34,0.18,0.52
			c-0.02-0.06-0.01-0.08,0-0.01c0.01,0.05,0.02,0.1,0.02,0.15c0.01,0.09,0.01,0.18,0.02,0.29c-0.01,0.05-0.01,0.1-0.02,0.15
			c-0.01,0.04-0.01,0.08-0.02,0.12c0,0.01-0.01,0.04-0.02,0.07c-0.01,0.02-0.01,0.04-0.02,0.05c-0.02,0.05-0.04,0.09-0.06,0.14
			c-0.05,0.09-0.1,0.17-0.14,0.27c-0.12,0.26-0.08,0.55,0.07,0.77c-1.49-1.19-2.9-2.51-3.97-4.07c-0.66-0.96-1.75-1.71-2.61-2.5
			c-0.51-0.46-1.01-0.93-1.52-1.4c-0.34-0.32-1.23-0.86-1.4-1.29c-0.06-0.14-0.12-0.29-0.24-0.43c-1.1-1.35-2.2-2.7-3.3-4.05
			c-0.44-0.54-1.28-1.22-1.52-1.85c1.43,0.52,2.9,0.94,4.4,1.24c0.07,0.01,0.15,0.03,0.2,0.08c0.09,0.08,0.09,0.21,0.1,0.32
			c0.02,0.99,0.15,1.97,0.37,2.94c0.3-0.63,0.51-1.29,0.81-1.92c0.3-0.63,0.72-1.23,1.33-1.56c1.16-0.64,2.55-0.01,3.51,0.64
			c0.16,0.11,0.32,0.15,0.5,0.2c0.04,0.01,0.07,0,0.11,0c0.86,0.68,1.72,1.37,2.56,2.09c0.49,0.42,0.97,0.85,1.43,1.3
			c0.48,0.47,0.92,1.12,1.55,1.39c0.86,0.36,1.64-0.43,1.42-1.29c-0.21-0.79-1.07-1.47-1.64-2.03c-0.61-0.59-1.24-1.16-1.9-1.69
			c-1.25-1.02-2.54-2.04-3.88-2.95c-1.07-0.73-2.93-1.93-4.24-1.22c-0.77,0.41-1.13,1.3-1.22,2.2c-0.24-0.17-0.45-0.28-0.75-0.29
			c-0.19,0-0.38,0.02-0.56,0c-0.32-0.02-0.6-0.1-0.88-0.24c-0.67-0.34-1.23-0.85-1.87-1.22c-0.61-0.35-1.32-0.55-2.03-0.61
			c-0.27-0.23-0.7-0.21-0.9,0.08c-0.38,0.14-0.69,0.42-0.8,0.84c-0.14,0.03-0.27,0.1-0.39,0.17c-0.09,0.05-0.15,0.14-0.18,0.24
			c-1.02,0.11-1.92,1.25-1.2,2.39c0.51,0.8,1.07,1.55,1.65,2.25c3.42,4.66,7.06,9.07,11.35,13.02c2.48,2.29,5.13,4.4,7.93,6.29
			c1.16,0.78,2.3,1.76,3.52,2.43c1.26,0.69,3.03,0.92,4.43,1.07C119.55,45.02,119.06,44.63,118.53,44.3z"/>
		
			<linearGradient id="SVGID_00000094615632049859783830000007609052990618355332_" gradientUnits="userSpaceOnUse" x1="243.6789" y1="354.3578" x2="269.6949" y2="354.3578" gradientTransform="matrix(0.7623 0.6472 0.6472 -0.7623 -306.1981 142.9061)">
			<stop  offset="0" style="stop-color:#FFFFFF"/>
			<stop  offset="0.9965" style="stop-color:#FFFFFF;stop-opacity:0"/>
		</linearGradient>
		<path style="fill:url(#SVGID_00000094615632049859783830000007609052990618355332_);" d="M128.31,46.45
			c0.36-0.21,0.58-0.6,0.34-1.11c-1.67-3.63-5.06-6.73-8.14-9.16c-1.64-1.3-3.34-2.5-4.95-3.84c-1.54-1.29-2.87-2.75-4.25-4.2
			c-0.16-0.16-0.5-0.04-0.51,0.18c-0.1,1.65,1.41,3.25,2.44,4.4c1.41,1.56,3.03,2.88,4.64,4.22c1.66,1.37,3.35,2.7,4.88,4.23
			c1.5,1.5,2.61,3.25,3.95,4.87c-0.05-0.02-0.11-0.02-0.16-0.04c-0.5-0.2-0.96-0.51-1.41-0.79c-1.25-0.78-2.48-1.59-3.7-2.41
			c-1.18-0.8-2.39-1.55-3.61-2.3c-1.06-0.65-2.28-1.74-3.52-2c-0.24-0.05-0.35,0.21-0.26,0.4c0.33,0.65,1.01,1.16,1.55,1.64
			c0.62,0.55,1.25,1.09,1.88,1.63c1.19,1.01,2.45,1.92,3.73,2.8c1.19,0.82,2.39,1.71,3.66,2.42c1.06,0.59,2.34,1.01,3.45,0.36
			C128.81,47.46,128.72,46.76,128.31,46.45z"/>
		
			<linearGradient id="SVGID_00000115516536060366534790000013207529176981591971_" gradientUnits="userSpaceOnUse" x1="234.0057" y1="357.7599" x2="240.3374" y2="357.7599" gradientTransform="matrix(0.7623 0.6472 0.6472 -0.7623 -306.1981 142.9061)">
			<stop  offset="0" style="stop-color:#FFFFFF"/>
			<stop  offset="0.9965" style="stop-color:#FFFFFF;stop-opacity:0"/>
		</linearGradient>
		<path style="fill:url(#SVGID_00000115516536060366534790000013207529176981591971_);" d="M108.33,25.94
			c0.25-0.73,0.16-1.46-0.2-2.14c-0.37-0.69-1.02-1.18-1.68-1.57c-0.6-0.36-1.29-0.72-2.01-0.63c-0.64,0.08-1.42,0.47-1.38,1.22
			c0.01,0.16,0.19,0.29,0.35,0.23c0.36-0.16,0.72-0.3,1.12-0.2c0.44,0.11,0.85,0.36,1.2,0.6c0.42,0.29,0.84,0.58,1.12,1.01
			c0.02,0.03,0.09,0.14,0.04,0.06c0.02,0.04,0.04,0.09,0.06,0.14c0.02,0.06,0.04,0.12,0.06,0.18c0,0.01,0.03,0.14,0.03,0.09
			c-0.01-0.05,0.01,0.13,0.01,0.13c0,0.05,0.01,0.1,0.01,0.15c0-0.11-0.06,0.25-0.03,0.14c-0.13,0.37-0.03,0.78,0.35,0.95
			C107.7,26.44,108.2,26.31,108.33,25.94z"/>
		
			<linearGradient id="SVGID_00000047745338858454658500000006049426503257126291_" gradientUnits="userSpaceOnUse" x1="230.0159" y1="241.3121" x2="254.9004" y2="241.3121" gradientTransform="matrix(0.7623 0.6472 0.6472 -0.7623 -306.1981 142.9061)">
			<stop  offset="0" style="stop-color:#FFFFFF"/>
			<stop  offset="0.9965" style="stop-color:#FFFFFF;stop-opacity:0"/>
		</linearGradient>
		<path style="fill:url(#SVGID_00000047745338858454658500000006049426503257126291_);" d="M43.63,123.7
			c-0.78-0.73-1.75-1.25-2.58-1.93c-0.81-0.66-1.58-1.36-2.39-2.01c-1.12-0.95-2.3-1.82-3.4-2.79c-0.44-0.39-0.89-0.68-1.26-1.13
			c-0.46-0.56-0.93-1.12-1.39-1.68c-0.98-1.19-1.98-2.4-2.69-3.78c-0.68-1.33-1.05-2.76-2.37-3.65c-0.33-0.22-1.15-0.42-1.31,0.05
			c-0.15,0.45,0.38,1.53,0.55,1.95c0.51,1.26,1.25,2.41,2.01,3.53c1.16,1.7,2.49,3.29,3.95,4.75c1.49,1.48,3.14,2.78,4.76,4.11
			c0.87,0.71,1.76,1.37,2.66,2.03c0.85,0.62,1.73,1.36,2.74,1.69C43.61,125.04,44.22,124.25,43.63,123.7z"/>
		
			<linearGradient id="SVGID_00000122000106225787110380000017259830465549317778_" gradientUnits="userSpaceOnUse" x1="218.7475" y1="320.9955" x2="234.3331" y2="321.2567" gradientTransform="matrix(0.7623 0.6472 0.6472 -0.7623 -306.1981 142.9061)">
			<stop  offset="0" style="stop-color:#1F1D1D"/>
			<stop  offset="0.998" style="stop-color:#C6C8C7"/>
		</linearGradient>
		<path style="fill:url(#SVGID_00000122000106225787110380000017259830465549317778_);" d="M90.54,32.97
			c0.03-0.06,0.05-0.12,0.01-0.2c-0.17-0.37-0.42-0.67-0.81-0.82c-1.48-0.6-0.62,1.75-0.53,2.21c0.17,0.9,0.09,1.85-0.25,2.7
			c-0.12,0.3-0.29,0.61-0.59,0.71c-0.32-0.73-0.9-1.31-1.38-1.95c-0.45-0.61-0.81-1.27-1.22-1.91c-0.09-0.13-0.2-0.28-0.36-0.27
			c-0.11,0-0.21,0.09-0.28,0.17c-0.77,0.8-1,1.74-1.5,2.69c-0.5,0.94-1.13,1.79-1.63,2.73c-0.72,1.36-1.26,2.91-2.5,3.9
			c-0.37,0.3-0.8,0.53-1.16,0.85c-0.98,0.87-1.33,2.25-2.17,3.26c-0.97,1.17-2.44,1.72-3.67,2.54c-1.34,0.89-1.9,2.16-2.73,3.48
			c-1.75,2.78-3.42,5.55-4.99,8.44c-0.14,0.25-0.27,0.57-0.12,0.81c1.36-1.18,2.59-2.25,3.64-3.73s1.98-3.05,2.93-4.6
			c0.54-0.88,1.04-1.87,1.67-2.74c0.2,0.01,0.41-0.05,0.52-0.28c0.47-1.02,2.18-0.91,2.85-1.9c0.37-0.55,0.24-0.95,0.88-1.24
			c0.5-0.22,0.87-0.34,1.21-0.8c0.36-0.5,0.48-1.1,0.75-1.64c0.05-0.1,0.12-0.17,0.18-0.25c0.12-0.15,0.25-0.29,0.37-0.44
			c0.38-0.36,0.83-0.65,1.26-0.98c0.48-0.37,0.94-0.79,1.2-1.34c0.12-0.25,0.13-0.56,0.24-0.8c0.21-0.44,0.61-0.61,0.98-0.85
			c0.48-0.31,0.73-0.75,0.93-1.27c0.13-0.33,0.24-0.87,0.62-1.04c0.37-0.16,0.89,0.06,1.25,0.16c1.22,0.36,2.45,0.73,3.69,0.21
			C92.26,37.75,91.46,34.88,90.54,32.97z"/>
		
			<linearGradient id="SVGID_00000093886571979381615350000003325941552726363297_" gradientUnits="userSpaceOnUse" x1="232.9591" y1="311.7114" x2="236.6742" y2="311.7114" gradientTransform="matrix(0.7623 0.6472 0.6472 -0.7623 -306.1981 142.9061)">
			<stop  offset="0" style="stop-color:#1F1D1D"/>
			<stop  offset="0.998" style="stop-color:#C6C8C7"/>
		</linearGradient>
		<path style="fill:url(#SVGID_00000093886571979381615350000003325941552726363297_);" d="M73.6,58.87c0.6-0.78,1.2-1.61,1.98-2.21
			c0.69-0.54,1.52-0.79,2.28-1.21c1.53-0.85,2.48-2.54,3.43-3.94c0.48-0.71,0.95-1.43,1.38-2.18c0.17-0.3,0.33-0.64,0.51-0.94
			c0.02,0,0.01,0.01,0.03,0.01c0.12,0.02,0.24,0.04,0.36,0.04c1.33,0.01,2-1.19,2.2-2.35c0.16-0.92,0.37-1.73,0.73-2.59
			c0.16-0.37,0.33-0.73,0.47-1.1c0.19-0.5,0.15-1.09,0.4-1.56c0.06-0.11-0.11-0.22-0.19-0.12c-0.29,0.39-0.71,0.67-1,1.09
			c-0.33,0.49-0.58,1.02-0.83,1.55c-0.46,0.98-0.91,2.01-1.76,2.72c-0.83,0.69-1.92,1.03-2.53,1.95c-0.54,0.81-1,1.62-1.46,2.49
			c-0.17,0.32-0.33,0.63-0.53,0.93c-0.87,1.34-2.21,2.16-3.6,2.84c-1.47,0.72-2.54,1.93-3.54,3.2c-1.18,1.51-2.27,3.09-3.34,4.68
			c-1.23,1.84-2.58,3.65-3.66,5.58c-1.12,2-2.14,4.06-3.06,6.17c3.88-2.18,6-6.75,8.38-10.33C71.34,61.96,72.44,60.39,73.6,58.87z"
			/>
		
			<linearGradient id="SVGID_00000005267144722680154520000014888736392341845396_" gradientUnits="userSpaceOnUse" x1="239.6637" y1="310.4731" x2="245.8915" y2="310.4731" gradientTransform="matrix(0.7623 0.6472 0.6472 -0.7623 -306.1981 142.9061)">
			<stop  offset="0" style="stop-color:#1F1D1D"/>
			<stop  offset="0.998" style="stop-color:#C6C8C7"/>
		</linearGradient>
		<path style="fill:url(#SVGID_00000005267144722680154520000014888736392341845396_);" d="M65.55,84.56
			c0.07-0.06,0.14-0.11,0.21-0.17c0.8-0.67,1.53-1.42,2.17-2.25c0.61-0.79,1.14-1.64,1.59-2.54c0.45-0.92,1.14-1.63,1.75-2.45
			c0.47-0.63,0.89-1.28,1.16-2.02c0.2-0.56,0.25-0.92,0.71-1.34c0.26-0.24,0.54-0.44,0.78-0.72c0.26-0.31,0.44-0.73,0.61-1.19
			c0.17-0.06,0.33-0.16,0.47-0.35c1.2-1.63,2.3-3.61,3.75-5.02c0.64-0.62,1.41-0.71,2.16-1.14c0.26-0.15,0.53-0.33,0.72-0.57
			c0.24-0.3,0.31-0.78,0.63-0.97c0.22-0.14,0.69-0.1,0.96-0.23c0.3-0.14,0.57-0.32,0.8-0.56c0.51-0.54,0.78-1.24,1.09-1.9
			c0.37-0.8,0.9-1.3,1.48-1.94c0.28-0.31,0.57-0.64,0.76-1.02c0.15-0.3,0.21-0.63,0.3-0.95c0.37-0.1,0.73-0.16,1.08-0.44
			c0.44-0.36,0.79-0.87,1.12-1.34c0.44-0.62,0.82-1.27,1.2-1.93c0.15-0.27,0.27-0.51,0.49-0.71c0.21-0.18,0.53-0.27,0.75-0.46
			c1.06-0.91,1.65-2.54,2.3-3.74c0.44-0.82,0.89-1.64,1.32-2.47c0.09-0.06,0.18-0.13,0.24-0.22c0.05,0.03,0.12,0.06,0.24,0.06
			c0.64,0.16,1.33-0.48,1.24-1.13c-0.13-0.95-0.3-1.91-0.68-2.8c-0.11-0.25-1.31-2.37-1.66-1.75c-0.05,0.08-0.01,0.19,0.01,0.28
			c0.22,0.72,0.15,1.5-0.08,2.21c-0.55,1.73-1.83,3.27-2.7,4.87c-1.07,1.97-2.26,3.86-3.49,5.74c-0.4,0.61-0.84,1.25-1.51,1.54
			c-0.35,0.15-0.75,0.19-1.07,0.4c-0.61,0.41-0.72,1.15-0.99,1.78c-0.26,0.59-0.62,1.16-0.96,1.72c-0.76,1.25-1.65,2.46-2.87,3.29
			c-0.77,0.52-1.64,0.87-2.45,1.33c-1.51,0.85-2.77,2.06-3.93,3.34c-4.98,5.5-8.8,12.46-11.86,19.18c0.1-0.21,0.9-0.53,1.11-0.67
			C64.87,85.09,65.22,84.83,65.55,84.56z"/>
		
			<linearGradient id="SVGID_00000118367437424449345540000002484324467880641191_" gradientUnits="userSpaceOnUse" x1="249.5996" y1="313.4028" x2="254.4815" y2="313.4028" gradientTransform="matrix(0.7623 0.6472 0.6472 -0.7623 -306.1981 142.9061)">
			<stop  offset="0" style="stop-color:#1F1D1D"/>
			<stop  offset="0.998" style="stop-color:#C6C8C7"/>
		</linearGradient>
		<path style="fill:url(#SVGID_00000118367437424449345540000002484324467880641191_);" d="M80.56,80.03
			c1.13-1.78,2.3-3.49,3.57-5.2c0.63-0.86,1.21-1.75,1.66-2.72c0.18-0.39,0.33-1,0.69-1.27c0.34-0.24,0.87-0.22,1.24-0.44
			c0.36-0.21,0.61-0.51,0.84-0.85c0.2-0.3,0.36-0.89,0.63-1.11c0.33-0.26,0.84-0.16,1.22-0.26c0.37-0.1,0.67-0.26,0.96-0.5
			c0.75-0.6,1.31-1.51,1.91-2.25c0.61-0.76,1.34-1.5,1.82-2.35c0.2-0.35,0.34-0.71,0.39-1.11c0.01-0.08,0-0.17,0.01-0.25
			c0.73,0.03,1.47-0.74,1.9-1.22c1.41-1.6,2.72-3.4,3.89-5.19c0.33-0.52,0.62-1.04,0.87-1.58c0.21-0.08,0.4-0.21,0.52-0.31
			c1.29-1.09,1.07-4.85-0.26-5.87c-0.04-0.03-0.09-0.06-0.14-0.06c-0.1,0.01-0.15,0.13-0.17,0.23c-0.33,1.53-1,2.95-1.78,4.3
			c-0.53,0.91-1.12,1.73-1.46,2.7c-0.37,1.05-1.14,2.05-1.76,2.98c-0.31,0.47-0.63,0.93-1.07,1.28c-0.43,0.35-0.96,0.57-1.4,0.91
			c-0.88,0.69-1.28,1.77-1.86,2.69c-0.55,0.88-1.24,1.79-1.93,2.57c-0.54,0.61-1.46,0.99-2.16,1.42c-0.62,0.38-1.24,0.75-1.81,1.21
			c-0.65,0.52-1.21,1.13-1.75,1.75c-4.38,5.01-7.32,10.97-10.49,16.76c2.16-1.34,4.01-3.19,5.35-5.35
			C80.18,80.63,80.37,80.33,80.56,80.03z"/>
		
			<linearGradient id="SVGID_00000160873982925343821230000012463134313757820068_" gradientUnits="userSpaceOnUse" x1="257.009" y1="316.8044" x2="261.0929" y2="316.8044" gradientTransform="matrix(0.7623 0.6472 0.6472 -0.7623 -306.1981 142.9061)">
			<stop  offset="0" style="stop-color:#1F1D1D"/>
			<stop  offset="0.998" style="stop-color:#C6C8C7"/>
		</linearGradient>
		<path style="fill:url(#SVGID_00000160873982925343821230000012463134313757820068_);" d="M93.73,73.44
			c0.09-0.23,0.11-0.52,0.25-0.73c0.19-0.29,0.44-0.35,0.74-0.5c0.46-0.24,0.82-0.49,1.11-0.92c0.33-0.49,0.33-0.86,0.96-1.05
			c0.55-0.17,0.96-0.28,1.41-0.66c0.95-0.79,1.55-1.94,2.26-2.93c0.73-1.02,1.96-1.63,2.78-2.61c0.37-0.45,0.7-0.94,0.99-1.44
			c0.14-0.23,0.62-1.62,0.86-1.72c1.12-0.43,0.86-3,0.77-3.95c-0.07-0.68-0.13-1.37-0.2-2.05c-0.09,0.96-0.55,1.84-1.01,2.68
			c-0.69,1.28-1.41,2.52-2.12,3.79c-0.57,1.01-1.35,1.79-2.24,2.5c-0.99,0.79-1.3,1.95-2.03,2.94c-1.02,1.39-2.8,1.96-4.16,3.02
			c-0.83,0.64-1.5,1.46-2.13,2.31c-2.37,3.2-4.15,6.79-5.91,10.36c1.14-1.1,2.29-2.21,3.43-3.31c0.31-0.3,0.63-0.6,0.9-0.94
			c0.63-0.77,0.91-1.71,1.44-2.52C92.4,74.88,93.35,74.42,93.73,73.44z"/>
		<path class="st13" d="M77.14,112.05c0.14,0.06,0.29,0.07,0.43-0.05c1.94-1.7,2.73-4.62,3.02-7.1c0.16-1.32,0.2-2.65,0.61-3.93
			s1.05-2.59,2.44-2.97c0.03-0.01,0.02-0.06-0.01-0.06c-0.96,0.19-2.05,0.78-2.64,1.58c-0.77,1.05-1.02,2.34-1.2,3.6
			c-0.2,1.45-0.36,2.86-0.89,4.24c-0.31,0.81-0.73,1.56-1.16,2.3c0.53-3.12,0.28-6.59,0.55-9.42c0.18-1.83,0.93-3.12,2.72-3.73
			c1.44-0.49,2.9-0.84,4.29-1.5c2.61-1.25,4.7-2.94,6.48-5.2c0.03-0.04-0.02-0.11-0.07-0.07c-2.28,2.01-4.99,3.69-7.82,4.79
			c-2.35,0.91-5.29,1.22-6.27,3.92c-0.43,1.18-0.46,2.49-0.52,3.73c-0.08,1.71-0.1,3.43-0.29,5.14c-0.35,3.18-1.46,6.12-3.7,8.45
			c-0.34,0.35,0.16,0.83,0.55,0.61C75.45,115.33,76.5,113.8,77.14,112.05z"/>
		<path class="st13" d="M115.29,69.18c0.05-0.05,0.11-0.1,0.15-0.16c0.12-0.15,0.21-0.32,0.32-0.48c0.06-0.09,0.04-0.19-0.01-0.26
			c0.96-0.26,1.95-0.57,2.7-1.11c0.56-0.4,0.24-1.27-0.44-1.24c-1.37,0.06-2.82,0.76-4.13,1.15c-1.44,0.44-2.88,0.85-4.34,1.22
			c-1.47,0.37-2.95,0.7-4.43,1.01c-1.08,0.22-1.89,0.46-2.34,1.55c-1.13,2.77-2.06,5.54-3.51,8.18c-1.5,2.74-3.26,5.41-5.08,7.95
			c-0.06,0.08,0.05,0.17,0.12,0.1c2.6-2.45,4.71-5.31,6.41-8.42c0.35,0.22,0.85,0.23,1.22-0.14c0.92-0.93,1.92-1.77,2.95-2.57
			c0.94-0.74,1.92-1.52,2.99-2.08c0.73-0.38,1.54-0.57,2.3-0.87c0.11,0.06,0.22,0.1,0.33,0.17c1.03,0.73,1.74,0.24,2.45-0.64
			c0.85-1.04,1.57-2.16,2.31-3.28C115.28,69.23,115.28,69.21,115.29,69.18z"/>
		<path class="st13" d="M113.85,61.88c0.5,0.5,1.32,0.49,1.97,0.56c0.83,0.08,1.66,0.16,2.49,0.22c0.44,0.04,0.87,0.05,1.31,0.08
			c0.43,0.02,0.89,0.09,1.31-0.02c0.09-0.03,0.16-0.08,0.21-0.15c0.33,0.16,0.77,0.09,0.97-0.33c0.92-2,0.36-5.05-1.33-6.49
			c-0.59-0.5-1.3-0.76-2.05-0.87l0,0c-0.01-0.02-0.01-0.02-0.02-0.03c0-0.01,0-0.01-0.01-0.03c-0.04-0.09-0.07-0.17-0.1-0.27
			c0-0.01-0.03-0.14-0.02-0.07c-0.01-0.05-0.02-0.11-0.02-0.16c-0.02-0.2-0.01-0.29,0.05-0.51c0.08-0.33,0.23-0.64,0.52-0.9
			c0.15-0.13,0.32-0.22,0.48-0.32c0.2-0.12,0.42-0.21,0.66-0.19c0.01,0,0.01-0.01,0.01-0.01c1.22,0.23,2.23,0.91,2.92,2.04
			c0.67,1.1,1.71,3.36,1.09,4.64c-0.04,0.09,0.08,0.16,0.14,0.09c1.44-1.57,0.27-4.62-0.86-6.09c-1.56-2.04-3.99-2.13-6.32-1.69
			c-1.31,0.24-2.65,0.61-4,0.43c-1.38-0.18-2.78-1.04-2.8-2.57c-0.02-1.31,0.8-2.4,1.86-3.08c0.54-0.34,1.12-0.59,1.73-0.77
			c0.57-0.18,1.12-0.24,1.55-0.68c0.19-0.19,0.09-0.53-0.14-0.64c-0.73-0.34-1.72-0.05-2.55,0.31c-0.05-0.23-0.19-0.45-0.44-0.58
			c-1.85-0.96-3.64-2.13-5.37-3.3c-1.09-0.74-2.17-1.51-3.23-2.3c-0.88-1.55-1.71-3.12-2.92-4.46c-3.52-3.89-9.2-3.86-14-3.21
			c-0.22,0.03-0.19,0.33,0.03,0.34c2.7,0.1,5.53-0.08,8.11,0.81c2.51,0.87,4.4,2.22,5.8,4.51c1.22,1.99,2.11,4.18,3.58,6
			c1.45,1.8,3.35,3.52,5.34,4.76c-0.03,0.05-0.06,0.09-0.09,0.15c-1.04,2.09-0.31,4.54,1.91,5.45c2.55,1.05,5.12-0.27,7.72-0.27
			c-0.18,0.03-0.35,0.06-0.51,0.14c-0.46,0.22-0.91,0.61-1.1,1.1c-0.15,0.4-0.12,0.86-0.01,1.28c-1.26,0.03-2.56,0.42-3.6,0.93
			c-2.47,1.19-3.75,3.51-4.74,5.95c-0.19,0.47-0.44,0.99-0.35,1.51c0.09,0.57,0.53,0.94,1.03,1.18c0.98,0.47,2.13,0.66,3.21,0.72
			c1.24,0.07,2.47-0.05,3.69-0.28c1.23-0.23,2.5-0.53,3.58-1.18c0.2-0.12,0.05-0.38-0.14-0.39c-1.75-0.08-3.48,0.49-5.23,0.59
			c-0.87,0.05-1.74,0.04-2.6-0.1c-0.49-0.08-2.15-0.31-2.14-0.88c0-0.19,0.2-0.47,0.28-0.66c0.1-0.24,0.2-0.49,0.31-0.73
			c0.21-0.48,0.44-0.96,0.69-1.42c0.5-0.92,1.14-1.78,1.99-2.41c1.37-1,3.63-1.8,5.32-1.24c1.03,0.34,1.61,1.33,1.86,2.33
			c0.14,0.56,0.13,1.1,0.08,1.63c-0.1-0.51-0.26-1.03-0.54-1.46c-0.8-1.22-2.36-1.04-3.58-0.65c-0.62,0.2-1.21,0.48-1.75,0.84
			c-0.26,0.17-0.51,0.36-0.75,0.57c-0.13,0.1-0.24,0.22-0.31,0.36c-0.09,0.1-0.2,0.19-0.27,0.31
			C113.44,60.8,113.41,61.44,113.85,61.88z"/>
		<path class="st13" d="M123.78,49.97c-1.38-0.96-2.96-0.98-4.56-0.74c-1.6,0.24-3.53,0.85-5.11,0.3c-0.44-0.15-0.98-0.46-1.02-0.99
			c-0.04-0.56,0.55-1.09,0.95-1.39c0.83-0.62,1.97-0.91,2.97-1.14c0.08-0.02,0.05-0.14-0.03-0.14c-1.64,0.01-4.39,0.36-4.69,2.44
			c-0.28,1.96,2.36,2.16,3.67,2.01c1.8-0.2,3.63-0.81,5.45-0.45c0.97,0.19,1.86,0.71,2.37,1.58c0.5,0.86,0.5,1.77,0.72,2.71
			c0.12,0.51,0.93,0.53,1.12,0.05C126.23,52.66,125.04,50.85,123.78,49.97z"/>
		<path class="st13" d="M99.99,72.99c0.02-0.09-0.12-0.14-0.16-0.05c-1.85,4.47-5,8.11-8.95,10.85c-4.03,2.8-8.57,5.13-13.01,7.22
			c-1.01,0.47-2.04,0.92-3.09,1.3c-0.59,0.21-1.49,0.64-2.11,0.52c-0.76-0.15-1.18-0.97-1.46-1.6c-0.03-0.07-0.05-0.13-0.08-0.2
			c0,0,0,0,0.01-0.01c0.08-0.16-0.01-0.35-0.16-0.42c-0.01-0.01-0.02,0-0.03-0.01c-0.85-1.97-1.59-4-2.43-5.97
			c-0.23-0.55-0.5-1.08-0.74-1.62c-0.24,0.44-0.54,0.86-0.89,1.21c0.85,1.9,1.68,3.82,2.43,5.76c0.08,0.22,0.17,0.45,0.25,0.68
			c-0.18,0.01-0.36,0-0.53-0.04c-0.78-0.19-1.19-0.97-1.54-1.62c-0.37-0.68-0.74-1.37-1.14-2.04c-0.36-0.6-0.86-1.39-1.58-1.56
			c-0.12-0.03-0.24,0.09-0.22,0.2c0.05,0.41,0.25,0.72,0.45,1.08c0.21,0.39,0.4,0.8,0.6,1.21c0.39,0.84,0.73,1.72,1.27,2.48
			c0.52,0.72,1.24,1.34,2.16,1.39c0.26,0.01,0.6-0.01,0.94-0.08c0.47,1.1,1.12,2.13,2.3,2.4c0.93,0.22,1.87-0.17,2.73-0.49
			c1.11-0.41,2.2-0.89,3.27-1.41c4.63-2.25,9.33-4.8,13.41-7.95C95.44,81.33,98.87,77.7,99.99,72.99z"/>
		<path class="st13" d="M69.58,122.85c-0.46-0.84-1.09-1.8-1.18-2.77c-0.12-1.41,0.87-2.49,1.59-3.6c1.11-1.71,2.21-3.47,3.05-5.33
			c1.28-2.84,2.27-6.67,0.6-9.57c-1.02-1.79-3.59-1.89-5.36-2.49c-2.09-0.7-4.12-1.6-6.06-2.65c-3.84-2.09-7.32-4.93-10.1-8.3
			c-0.65-0.79-1.35-1.6-1.89-2.47c-0.67-1.07,0.2-2.6,0.65-3.66c0.91-2.14,2.13-4.15,3.61-5.94c1.44-1.74,3.15-3.26,5.03-4.52
			c0.67-0.44,0.87-0.38,1.25,0.31c0.27,0.5,0.54,1,0.81,1.5c0.62,1.16,1.23,2.33,1.82,3.51c0.77,1.52,1.49,3.07,2.22,4.62
			c0.07-0.11,0.13-0.23,0.2-0.35c0.18-0.27,0.4-0.51,0.63-0.74c0.02-0.05,0.04-0.1,0.07-0.14c-0.58-1.24-1.17-2.48-1.77-3.72
			c-0.15-0.3-1.73-3.33-1.73-3.33c-0.2,0.16-0.43,0.27-0.68,0.34c-0.04,0.01-0.08,0.02-0.11,0c-0.05-0.03-0.05-0.1-0.03-0.16
			c0.06-0.24,0.19-0.46,0.26-0.7c0.16-0.54-0.27-1.17-0.51-1.64c-0.27-0.52-0.6-1.13-1.2-1.32c-0.8-0.25-1.55,0.35-2.17,0.77
			c-1.81,1.23-3.44,2.71-4.88,4.36c-1.44,1.65-2.68,3.48-3.66,5.43c-0.74,1.48-2.02,3.75-1.66,5.46c0.2,0.93,0.91,1.77,1.48,2.5
			c0.69,0.89,1.42,1.74,2.18,2.57c1.5,1.62,3.15,3.1,4.92,4.42c3.46,2.57,7.37,4.59,11.54,5.72c1.15,0.31,2.99,0.31,3.7,1.37
			c0.58,0.86,0.8,2.05,0.85,3.07c0.11,2.13-0.61,4.22-1.47,6.14c-1.04,2.32-2.49,4.37-3.69,6.6c-0.99,1.84-0.36,3.75,0.52,5.49
			C68.82,124.44,70.01,123.64,69.58,122.85z"/>
		<path class="st13" d="M64.32,127.76c0.1-0.22,0.12-0.42,0.03-0.65c-0.01-0.01-0.02-0.02-0.03-0.04c0.15-0.08,0.29-0.2,0.39-0.33
			c0.63-0.81,1.08-1.84,1.39-2.82s0.52-1.99,0.59-3.02c0.06-0.89,0.12-2.1-0.92-2.44c-1.14-0.37-2.09,0.71-2.69,1.52
			c-0.46,0.61-0.81,1.27-1.06,1.97c-0.17-0.59-0.33-1.17-0.47-1.72c-0.6-2.34-0.8-4.68-0.97-7.06c3.45,0.14,6.8-1.27,8.76-4.26
			c0.78-1.19,1.7-3.11,0.71-4.44c-0.58-0.78-1.69-1.14-2.54-1.53c-1.33-0.62-2.65-1.17-4.03-1.66c-0.2-0.07-0.34,0.2-0.14,0.31
			c0.98,0.53,1.95,1.03,2.97,1.48c0.83,0.36,1.73,0.65,2.51,1.1c1.94,1.11,0.39,3.67-0.63,4.9c-1.89,2.29-5.2,3.68-8.15,2.92
			c-0.28-0.07-0.66,0.18-0.68,0.48c-0.18,2.62,0.21,5.33,0.8,7.88c0.59,2.54,1.42,5.21,2.71,7.49c0.14,0.25,0.45,0.34,0.72,0.34
			c0.04,0,0.08,0,0.12,0C63.98,128.17,64.22,127.97,64.32,127.76z M63.57,120.48c0.36-0.4,0.75-0.76,1.2-1.05
			c0.38-0.24,0.98-0.36,1,0.25c0.03,0.98-0.19,2.05-0.45,2.99c-0.27,0.97-0.67,1.92-1.17,2.79c-0.1,0.18-0.28,0.42-0.42,0.66
			c-0.62-1.08-1.11-2.29-1.5-3.53C62.6,121.84,63.01,121.1,63.57,120.48z"/>
		<path class="st13" d="M59.95,129.14c-0.11-0.8-0.39-1.58-0.59-2.36c-0.22-0.85-0.42-1.69-0.61-2.55
			c-0.34-1.53-0.67-3.07-0.91-4.62c-0.46-2.97-0.49-5.95,0.07-8.9c0.02-0.09-0.11-0.12-0.15-0.05c-1.37,2.72-1.36,5.86-1.05,8.82
			c0.17,1.56,0.43,3.1,0.73,4.64c0.17,0.9,0.35,1.8,0.53,2.69c0.17,0.86,0.28,1.79,0.58,2.62
			C58.82,130.19,60.06,129.97,59.95,129.14z"/>
		<path class="st13" d="M57.35,108.32c-0.75-1.9-1.92-3.71-3.48-5.05c-1.65-1.42-3.87-2.17-5.85-2.99
			c-2.24-0.92-4.51-1.76-6.75-2.66c-2.13-0.86-4.74-2.89-2.62-5.21c0.86-0.94,2.41-2.58,0.75-3.65c-1.39-0.91-3.45-0.1-4.78,0.53
			c-3.36,1.57-5.79,4.56-6.66,8.16c-0.46,1.92-0.51,3.99-0.12,5.93c0.44,2.15,1.74,4.25,1.38,6.49c-0.09,0.56,0.79,0.89,0.98,0.31
			c0.5-1.46,0.25-2.87-0.17-4.31c-0.49-1.68-0.98-3.3-1.07-5.06c-0.13-2.59,0.56-5.17,2.02-7.24c0.12,0.05,0.27,0.04,0.32-0.11
			c0.09-0.28,0.24-0.56,0.41-0.81c0.18-0.21,0.37-0.42,0.57-0.61c0.33-0.25,0.7-0.43,1.15-0.42c0.46,0.01,0.84,0.25,1.11,0.62
			c0.25,0.35,0.36,0.8,0.25,1.22c-0.13,0.52-0.42,0.97-0.93,1.18c-0.21,0.09-0.1,0.39,0.12,0.34c0.57-0.13,1.1-0.56,1.33-1.11
			c0.23-0.54,0.09-1.21-0.2-1.69c-0.41-0.66-1.18-0.93-1.94-0.87c0.11-0.08,0.2-0.17,0.31-0.25c0.81-0.55,1.71-0.98,2.65-1.28
			c0.46-0.15,0.95-0.3,1.42-0.34c0.26-0.02,0.56-0.03,0.81,0.05c0.75,0.25,0.67,0.88,0.26,1.38c-1.05,1.29-2.24,2.07-1.88,3.92
			c0.28,1.45,1.32,2.48,2.58,3.16c1.87,1.01,4.06,1.49,6.04,2.23c2.17,0.81,4.52,1.6,6.5,2.82c2.27,1.41,3.54,3.47,5.25,5.44
			C57.21,108.53,57.41,108.46,57.35,108.32z"/>
		<path class="st13" d="M32.35,112.11c0.41-1.28,0.61-2.59,0.52-3.93c-0.1-1.47-0.54-2.89-0.94-4.3c-0.77-2.75-1.49-6.54,1.37-8.4
			c0.08-0.05,0.01-0.19-0.08-0.15c-2.82,1.27-3.12,4.55-2.62,7.24c0.28,1.53,0.8,3.01,1.06,4.55c0.26,1.59,0.2,3.14-0.27,4.69
			C31.23,112.35,32.17,112.65,32.35,112.11z"/>
		<path class="st13" d="M39.64,84.82c0.05-1.06-0.05-1.89-0.58-2.81c-0.18-0.31-0.74-0.2-0.77,0.17c-0.09,1.17,0.25,2.71-0.22,3.8
			c-0.19,0.43,0.09,0.29-0.4,0.13c-0.2-0.07-0.36-0.21-0.57-0.27c-0.37-0.11-0.72-0.1-1.09-0.03c-1.41,0.27-2.83,1.03-4.15,1.59
			c-1.24,0.53-2.48,1.11-3.57,1.91c-1.99,1.46-3.05,3.59-3.48,5.98c-0.22,1.2-0.3,2.42-0.31,3.63c0,0.74-0.17,1.89,0.66,2.23
			c0.04,0.02,0.08-0.02,0.07-0.06c-0.3-1.18,0.06-2.79,0.19-4c0.14-1.29,0.38-2.6,0.9-3.8c1.21-2.8,3.84-4.02,6.52-5.08
			c1-0.4,2.97-1.54,4.04-1.04c0.63,0.3,1.1,0.89,1.86,0.44C39.59,87.1,39.61,85.65,39.64,84.82z"/>
		<path class="st13" d="M59.56,67.17c1.02-0.83,2.88-2.29,1.35-3.61c-0.66-0.57-1.64-0.61-2.47-0.66c-0.97-0.06-1.99-0.06-2.93,0.19
			c-0.28,0.08-0.25,0.55,0.05,0.58c0.86,0.08,1.72,0.05,2.59,0.12c0.71,0.06,2.51,0.07,2.28,1.1c-0.17,0.78-1.54,1.48-2.16,1.93
			c-0.75,0.54-1.51,1.07-2.28,1.59c-2.52,1.75-5.77,4.11-6.4,7.35c-0.14,0.69,0.97,1.08,1.21,0.38c0.36-1.04,0.68-1.98,1.33-2.89
			c0.61-0.84,1.36-1.59,2.15-2.26C55.95,69.6,57.88,68.54,59.56,67.17z"/>
		<path class="st13" d="M53.28,67.86c-0.4-0.86-1.26-0.48-1.97-0.49c-0.19,0-0.24,0.2-0.16,0.34c-0.61,0.18-1.21,0.37-1.82,0.56
			c-0.14-0.1-0.32-0.16-0.54-0.14c-0.87,0.08-1.72,0.19-2.57,0.42c-0.75,0.21-1.9,0.48-2.09,1.36c-0.08,0.38,0.07,0.75,0.33,1.02
			c0.02,0.25,0.12,0.49,0.29,0.67c-0.07,0.23-0.14,0.46-0.21,0.69c-0.15,0.49-0.23,0.93-0.22,1.45c0.01,0.63,0.99,1.01,1.36,0.44
			c0.16-0.25,0.29-0.52,0.41-0.8c0.17,0.01,0.34-0.02,0.48-0.13c1.74-1.35,3.78-2.17,5.65-3.3C52.94,69.52,53.7,68.77,53.28,67.86z"
			/>
		<path class="st13" d="M67.17,63.9c-0.12-0.08-0.21-0.11-0.36-0.1c-0.1,0.01-0.2,0.02-0.3,0.03c-0.2,0.03-0.41,0.05-0.61,0.07
			c-0.41,0.05-0.81,0.12-1.22,0.21c-0.8,0.18-1.55,0.46-2.28,0.83c-0.17,0.08-0.02,0.35,0.15,0.29c0.73-0.25,1.49-0.45,2.24-0.59
			c0.37-0.07,0.75-0.12,1.12-0.15c0.19-0.02,0.39-0.02,0.58-0.02c0.22,0.01,0.45,0.07,0.64-0.07C67.29,64.3,67.35,64.01,67.17,63.9z
			"/>
		<path class="st13" d="M83.49,55.95c0.11-0.67,0.23-1.35,0.43-2c0.22-0.71,0.66-1.27,0.92-1.95c0.18-0.44-0.33-0.98-0.76-0.65
			c-0.91,0.7-1.27,2.14-1.5,3.22c-0.27,1.28-0.36,2.59-0.69,3.86c-0.07,0.29-0.14,0.72-0.38,0.93c-0.24,0.22-0.73,0.32-1.04,0.42
			c-0.69,0.22-1.4,0.37-2.1,0.5c-1.37,0.27-2.72,0.49-3.98,1.13c-0.22,0.11-0.2,0.54,0.1,0.48c1.42-0.27,2.87-0.41,4.3-0.64
			c0.72-0.12,1.45-0.27,2.15-0.49c0.6-0.19,1.26-0.4,1.61-0.96C83.23,58.73,83.29,57.16,83.49,55.95z"/>
		<path class="st13" d="M76.98,41.6c-0.03-0.18-0.2-0.41-0.21-0.58c-0.02-0.5,0.27-0.49,0.63-0.7c0.55-0.32,1.06-0.71,1.52-1.15
			c1.1-1.07,3.6-4.84,1.58-6.13c-0.46-0.29-0.77-0.07-1.23-0.07c-0.17,0-0.2,0.04-0.2,0.06c0-0.02-0.02-0.06-0.07-0.13
			c-0.16-0.24-0.04-0.91-0.03-1.19c0.05-1.67,0.6-3.16,1.19-4.7c0.06-0.17-0.13-0.29-0.26-0.17c-0.36,0.34-0.67,0.76-0.94,1.2
			c0.17-0.3-0.25-0.64-0.51-0.43c-1.49,1.15-1.78,3.45-1.88,5.2c-0.14,2.26,0.01,4.83-1.55,6.67c-1.57,1.85-4.16,2.4-6.38,3.02
			c-1.86,0.52-4.23,1.15-5.42,2.81c-0.23,0.33,0.14,0.82,0.5,0.56c0.16-0.08,0.33-0.17,0.49-0.25c0.06-0.02,0.09-0.08,0.1-0.14
			c0.79-0.53,1.57-1.02,2.5-1.36c1.01-0.37,2.05-0.63,3.08-0.9c2.07-0.55,4.25-1.25,5.75-2.86c-0.13,0.4,0,0.83,0.12,1.42
			c0.35,1.63-2.02,2.38-3.22,2.87c-1.03,0.42-2.09,0.74-3.19,0.77c0.11-0.24,0.23-0.48,0.34-0.73c0.24-0.52-0.27-0.98-0.77-0.85
			c-4.47,1.11-5.9,6.26-7.42,10.04c-0.51,1.27-1,2.56-1.75,3.7s-1.81,2.14-3.12,2.54c-0.47,0.14-0.98,0.21-1.38,0.49
			c-0.4,0.28-0.66,0.87-0.37,1.27c0.27,0.37,0.83,0.36,1.28,0.25c2.09-0.51,3.72-2.2,4.76-4.08s1.6-3.99,2.32-6.01
			c0.88-2.45,2.2-5.13,4.58-6.43c-0.03,0.05-0.06,0.1-0.08,0.15c-0.17,0.36,0.05,0.88,0.48,0.93c1.29,0.12,2.51-0.08,3.73-0.52
			c1.24-0.45,2.64-1.01,3.72-1.78C76.52,43.75,77.19,42.72,76.98,41.6z M76.18,39.65c-0.01,0.01-0.01,0.01-0.02,0.02
			c0.94-1.39,1.18-3.09,1.24-4.77c0.04-1.15,0.02-2.3,0.18-3.44c0.16-1.14,0.58-2.02,1.1-2.96c-0.75,1.44-1.09,3.18-0.87,4.68
			c0.11,0.73,0.52,1.19,1.29,1.11c0.1-0.01,0.47-0.19,0.56-0.15c0.32,0.14,0.2,0.84,0.15,1.07c-0.15,0.69-0.42,1.35-0.79,1.96
			C78.3,38.37,77.29,38.9,76.18,39.65z"/>
		<path class="st13" d="M74.62,35.62c0.09-0.47,0.21-0.94,0.38-1.39c0.17-0.44,0.39-0.84,0.47-1.31c0.04-0.22-0.24-0.44-0.43-0.28
			c-0.6,0.51-0.86,1.33-1.08,2.07c-0.12,0.4-0.21,0.8-0.27,1.21s-0.07,0.84-0.18,1.24c-0.25,0.88-1.3,1.12-2.07,1.35
			c-0.89,0.26-1.76,0.5-2.68,0.61c-0.27,0.03-0.23,0.4,0.03,0.41c0.92,0.04,1.87,0.02,2.77-0.19c0.86-0.2,1.96-0.45,2.5-1.22
			C74.56,37.4,74.47,36.45,74.62,35.62z"/>
		<path class="st13" d="M97.16,27.28c-0.7-0.47-1.81-0.36-2.64-0.37c-0.89-0.01-1.79,0.11-2.67,0.22c-1.82,0.23-3.61,0.69-5.32,1.35
			c-0.81,0.31-1.6,0.68-2.37,1.09c-0.39,0.21-0.77,0.47-1.2,0.58c-0.71,0.18-0.7-0.28-0.61-0.88c0.15-1.02,0.35-2.03,0.59-3.04
			c0.23-0.97,0.66-2.04,0.66-3.04c0-0.14-0.19-0.19-0.27-0.09c-0.65,0.8-0.93,2.01-1.21,2.99c-0.32,1.12-0.66,2.29-0.81,3.44
			c-0.1,0.81,0.21,1.6,1.1,1.71c0.88,0.12,1.69-0.47,2.42-0.87c1.86-1,3.89-1.67,5.98-2.02c1.03-0.17,2.04-0.25,3.08-0.24
			c0.53,0.01,1.07,0,1.6,0.03c0.5,0.03,1.03,0.17,1.5-0.01C97.32,28,97.49,27.5,97.16,27.28z"/>
		<path class="st13" d="M64.67,84.2c-0.63-1.4-1.26-2.8-1.89-4.2c-0.33-0.73-0.67-1.46-1.01-2.19c-0.29-0.6-0.54-1.22-0.98-1.74
			c-0.73-0.87-1.68-1.06-2.68-0.54c-0.6,0.31-1.16,0.7-1.75,1.03c-0.57,0.33-1.24,0.65-1.58,1.24c-0.12,0.21,0.13,0.44,0.33,0.37
			c0.52-0.19,0.89-0.62,1.3-0.98c0.48-0.41,0.99-0.8,1.56-1.08c0.5-0.26,1.12-0.49,1.66-0.2c0.57,0.31,0.81,1.04,1.05,1.6
			c0.99,2.36,1.99,4.71,3.01,7.05C63.95,85.17,64.95,84.81,64.67,84.2z"/>
		<path class="st13" d="M84.15,83.69c0.31-0.8-0.64-1.57-1.16-2.02c-0.63-0.54-1.68-1.4-2.54-1.31c-0.45,0.05-0.55,0.55-0.27,0.85
			c0.32,0.34,0.81,0.43,1.21,0.65c0.38,0.21,0.74,0.47,1.06,0.76c0.19,0.17,0.37,0.34,0.54,0.53c0.2,0.23,0.19,0.18-0.05,0.4
			c-0.32,0.29-0.65,0.57-0.98,0.84c-1.44,1.19-2.95,2.27-4.57,3.2c-0.77,0.44-1.56,0.88-2.41,1.16c-0.39,0.13-0.8,0.25-1.21,0.25
			c-0.79,0-1.04-0.6-1.25-1.25c-0.57-1.79-1.18-3.59-1.66-5.41c-0.01-0.05-0.11-0.04-0.1,0.02c0.3,1.85,0.61,3.69,1.18,5.48
			c0.22,0.68,0.5,1.38,1.23,1.63c0.68,0.23,1.45,0.05,2.11-0.14c1.68-0.5,3.3-1.46,4.77-2.39c0.79-0.49,1.56-1.02,2.29-1.59
			c0.34-0.26,0.67-0.53,1-0.81C83.64,84.3,84.01,84.05,84.15,83.69z"/>
		<path class="st13" d="M78.32,78.98c-0.17-0.39-0.58-0.67-0.95-0.87c-0.15-0.08-0.34-0.05-0.48,0.04c-0.47,0.3-1.02,0.45-1.56,0.6
			c-0.56,0.16-1.11,0.31-1.65,0.53c-0.98,0.39-1.91,0.96-2.49,1.87c-0.05,0.08,0.08,0.16,0.14,0.09c0.73-0.84,1.79-1.21,2.85-1.45
			c0.96-0.21,1.89-0.45,2.84-0.71c0.23,0.23,0.48,0.45,0.78,0.52C78.13,79.67,78.45,79.3,78.32,78.98z"/>
		<path class="st13" d="M86.97,67.23c0.09-0.6,0.1-1.2,0-1.81c-0.07-0.43-0.15-0.86-0.33-1.26c-0.09-0.21-0.2-0.41-0.31-0.6
			c-0.11-0.2-0.2-0.4-0.44-0.46c0.04,0.02,0.09,0.04,0.13,0.06c-0.03-0.02-0.05-0.04-0.08-0.06c-0.13-0.1-0.32-0.04-0.35,0.13
			c-0.01,0.03-0.01,0.06-0.02,0.1c0.02-0.04,0.04-0.09,0.06-0.13c-0.13,0.2-0.08,0.39-0.06,0.61c0.02,0.19,0.03,0.39,0.05,0.58
			c0.04,0.39,0.11,0.78,0.16,1.17c0.05,0.38,0.08,0.77,0.08,1.16c0,0.3-0.15,1.06,0.06,1.31c0.39,0.47,0.94-0.18,1.02-0.64
			C86.95,67.32,86.96,67.28,86.97,67.23z"/>
		<g>
			<g>
				<path d="M80.05,24.13c-6.2,7.31-12.22,14.77-18.26,22.22C54.77,55,47.77,63.67,40.71,72.29c-3.07,3.75-6.15,7.49-9.28,11.18
					c-0.83,0.98,0.58,2.4,1.41,1.41c6.2-7.31,12.22-14.77,18.26-22.22c7.02-8.65,14.02-17.32,21.08-25.94
					c3.07-3.75,6.15-7.49,9.28-11.18C82.3,24.57,80.89,23.15,80.05,24.13L80.05,24.13z"/>
			</g>
		</g>
		<g>
			<g>
				<path d="M31.43,83.48c-2.24,2.64-4.48,5.27-6.72,7.91c-0.49,0.57-0.98,1.15-1.46,1.72c-0.31,0.37-0.63,0.7-0.76,1.17
					c-0.35,1.29-0.49,2.69-0.47,4.02c0.04,2.38,0.7,4.71,2.32,6.51c-0.1-0.24-0.2-0.47-0.29-0.71c-0.04,1.07,0.26,2.21,0.58,3.22
					c0.89,2.78,2.49,5.29,4.36,7.51c1.9,2.25,4.15,4.15,6.45,5.97c2.2,1.74,4.51,3.35,6.94,4.75c3.59,2.08,7.53,3.84,11.71,4.21
					c-0.17-0.05-0.34-0.09-0.5-0.14c3.05,2.12,7.77,3.13,10.56,0.07c1.52-1.67,3.01-3.38,4.51-5.07c3.02-3.4,6.04-6.79,9.05-10.2
					c3.43-3.88,6.86-7.76,10.27-11.65c2.8-3.19,5.6-6.38,8.36-9.61c0.24-0.29,0.49-0.57,0.73-0.86c0.83-0.98-0.58-2.4-1.41-1.41
					c-4.98,5.87-10.1,11.63-15.2,17.4c-5.08,5.76-10.18,11.5-15.29,17.24c-0.63,0.71-1.26,1.42-1.89,2.12
					c-0.33,0.37-0.64,0.77-1.02,1.08c-1.64,1.38-3.96,0.96-5.77,0.18c-0.55-0.23-1.16-0.58-1.71-0.91
					c-0.68-0.41-1.63-0.35-2.41-0.51c-4.87-1-9.36-3.66-13.37-6.52c-1.13-0.8-1.89-1.39-2.92-2.23c-2.03-1.66-3.99-3.34-5.68-5.35
					c-1.37-1.62-2.61-3.51-3.41-5.41c-0.24-0.57-0.49-1.3-0.66-1.96c-0.07-0.26-0.13-0.52-0.18-0.78c-0.02-0.11-0.04-0.22-0.06-0.33
					c-0.06-0.35,0,0.09-0.02-0.12c-0.02-0.22-0.03-0.45-0.04-0.67c-0.02-0.34-0.13-0.55-0.35-0.81c-0.4-0.48-0.74-0.99-0.99-1.56
					c-0.83-1.87-0.8-4.21-0.48-6.05c0.07-0.37,0.14-0.74,0.25-1.11c-0.09,0.15-0.17,0.29-0.26,0.44c2.88-3.39,5.75-6.77,8.63-10.16
					C33.68,83.91,32.27,82.49,31.43,83.48L31.43,83.48z"/>
			</g>
		</g>
		<g>
			<g>
				<path d="M122.45,60.13c-6.86,8.07-13.94,15.95-20.9,23.93c-1.98,2.27-3.94,4.54-5.89,6.84c-0.83,0.98,0.58,2.4,1.41,1.41
					c6.86-8.07,13.94-15.95,20.9-23.93c1.98-2.27,3.94-4.54,5.89-6.84C124.7,60.57,123.29,59.15,122.45,60.13L122.45,60.13z"/>
			</g>
		</g>
		<path class="st14" d="M24.07,101.83c0,0,8,14.93,32.97,28"/>
		<path class="st15" d="M93.86,16.55c1.34-1.58,4.32,2.87,5.97,1.94c0.79-0.45,0.79-1.54,1.47-2.1c0.65-0.54,1.37-0.13,2.13,0.34
			c1.7,1.05,3.33,2.23,4.87,3.5c1.24,1.03,2.72,2.05,3.76,3.28c0.93,1.1,0.46,1.92-0.02,3.05c-0.6,1.41,0.17,2.11,1.17,2.96
			c9.74,8.27,16.88,15.88,15.94,16.98"/>
		<path class="st15" d="M93.86,16.55c-0.7-0.04-2.97,3.5-2.97,3.5s-6.09-0.07-9.95,4.51"/>
		<path class="st15" d="M129.14,46.51c0.16,0.69-2.97,3.5-2.97,3.5s1.1,6.03-2.8,10.58"/>
		<path class="st16" d="M94.36,18.67c0,0,9.41,13.53,32.47,27.57"/>
		<path class="st17" d="M90.73,20.24c0,0,5.57,7.87,16.82,17.42c0,0,11.3,9.84,18.99,12.01"/>
		<g>
			<g>
				<path d="M101.05,17.03c-0.76,1.59-1.42,3.28-1.37,5.07c0.05,1.72,0.8,3.08,2.04,4.24c1.4,1.29,2.9,2.48,4.46,3.57
					c0.58,0.4,1.38,1.18,2.14,1.08c0.62-0.09,1.17-0.68,1.54-1.15c1.25-1.6,2.01-3.74,2.65-5.65c0.1-0.31-0.38-0.44-0.48-0.13
					c-0.34,1.02-0.74,2.02-1.19,2.99c-0.41,0.89-0.84,1.86-1.48,2.61c-0.29,0.34-0.8,0.92-1.32,0.82c-0.46-0.09-1.03-0.61-1.41-0.87
					c-0.88-0.6-1.73-1.24-2.56-1.9c-1.47-1.18-3.23-2.45-3.72-4.36c-0.54-2.08,0.24-4.19,1.13-6.05
					C101.62,17,101.19,16.74,101.05,17.03L101.05,17.03z"/>
			</g>
		</g>
		
			<ellipse transform="matrix(0.6472 -0.7623 0.7623 0.6472 19.4642 89.0147)" class="st18" cx="105.9" cy="23.48" rx="1.98" ry="3.85"/>
		<g>
			<g>
				<path d="M109.41,30.39c0.36,0.25,0.67,0.55,0.96,0.88c0.29,0.32,0.57,0.66,0.79,1.04c0.2,0.35,0.35,0.76,0.28,1.17
					c-0.07,0.39-0.33,0.69-0.68,0.87c-0.29,0.14-0.04,0.57,0.25,0.43c0.41-0.2,0.72-0.56,0.86-1c0.16-0.49,0.06-1-0.15-1.45
					c-0.21-0.47-0.54-0.88-0.87-1.27c-0.36-0.41-0.74-0.79-1.19-1.1C109.4,29.77,109.15,30.21,109.41,30.39L109.41,30.39z"/>
			</g>
		</g>
		<g>
			<g>
				<path d="M103.91,23.31c0.15-0.37,0.62-0.48,0.97-0.42c0.5,0.09,0.95,0.44,1.3,0.78c0.33,0.32,0.63,0.72,0.69,1.18
					c0.06,0.41-0.07,0.83-0.4,1.09c-0.11,0.09-0.09,0.26,0,0.35c0.1,0.11,0.25,0.08,0.35,0c0.74-0.6,0.66-1.72,0.17-2.44
					c-0.28-0.41-0.65-0.74-1.05-1.02s-0.89-0.51-1.39-0.46c-0.5,0.05-0.94,0.32-1.14,0.8c-0.05,0.13,0.06,0.27,0.17,0.31
					C103.74,23.53,103.86,23.43,103.91,23.31L103.91,23.31z"/>
			</g>
		</g>
		<g>
			<g>
				<path d="M106.76,61.56c1.17-1.03,2.35-2.06,3.52-3.09c0.07-0.07,0.1-0.22,0.04-0.3c-0.62-0.81-1.19-1.67-1.69-2.56
					c-0.45-0.81-0.79-1.69-1.44-2.37c0,0.12,0,0.24,0,0.35c0.44-0.39,0.88-0.77,1.32-1.16c0.07-0.07,0.1-0.22,0.04-0.3
					c-1.27-1.67-2.3-3.44-3.26-5.29c-0.71-1.36-1.84-2.69-3.54-2.3c0.09,0.04,0.19,0.08,0.28,0.11c-0.64-0.93-1.26-1.88-1.82-2.86
					c-0.55-0.96-0.99-2.01-1.64-2.91c-0.5-0.7-1.14-1.27-1.96-1.55c-0.49-0.17-1.65-0.36-2,0.17c0.14,0,0.29,0,0.43,0
					c-0.69-1.04-1.34-2.1-1.91-3.2c-0.45-0.87-0.91-1.78-1.71-2.38c-0.59-0.44-1.38-0.72-2.13-0.55c-0.54,0.12-0.67,0.5-0.95,0.94
					c-0.05,0.07-0.05,0.18,0,0.25c1.07,1.57,0.97,3.32,0.1,4.95c0.13-0.02,0.26-0.03,0.39-0.05c-0.66-0.74-1.41-1.42-1.99-2.24
					c-0.5-0.71-0.77-1.54-1.38-2.18c-0.11-0.12-0.31-0.09-0.39,0.05c-0.54,0.92-1.18,1.82-1.65,2.78c-0.57,1.17-1.21,2.28-1.88,3.4
					c-0.38,0.63-0.75,1.27-1.13,1.9c-0.35,0.59-0.7,1.49-1.33,1.84c-0.47,0.26-0.85,0.31-1.2,0.76c-0.39,0.52-0.66,1.14-0.97,1.7
					c-0.3,0.55-0.63,1.1-1.08,1.55c-0.51,0.5-1.15,0.82-1.77,1.15c-2.34,1.25-3.77,3.55-5.2,5.7c-1.8,2.69-3.39,5.52-4.76,8.44
					c-0.1,0.22,0.11,0.47,0.34,0.34c1.66-0.93,2.63-2.6,3.95-3.91c0.71-0.71,1.54-1.07,2.37-1.6c0.28-0.18,0.55-0.39,0.74-0.67
					c0.3-0.46,0.18-0.95,0.36-1.44c0.18-0.5,0.78-0.71,1.16-1.04c0.37-0.32,0.65-0.73,0.92-1.14c0.66-0.99,1.43-1.81,2.29-2.62
					c0.89-0.84,1.77-1.67,2.71-2.46c0.9-0.76,1.88-1.38,2.79-2.12c0.96-0.78,1.38-1.76,1.98-2.81c0.35-0.6,0.85-1.19,1.43-1.58
					c0.56-0.38,1.33-0.48,1.98-0.63c-0.09-0.12-0.19-0.24-0.28-0.37c-0.78,1.34-1.57,2.67-2.35,4.01c-0.35,0.6-0.67,1.29-1.16,1.79
					c-0.49,0.5-1.22,0.51-1.75,0.96c-0.88,0.75-1.32,2.07-1.86,3.05c-0.67,1.22-1.47,2.23-2.68,2.95c-1.09,0.65-2.28,1.12-3.28,1.92
					c-1.06,0.84-1.89,1.91-2.69,2.99c-1.73,2.32-3.34,4.73-4.83,7.21c-1.69,2.81-3.21,5.71-4.58,8.69c-0.1,0.22,0.11,0.47,0.34,0.34
					c2.45-1.32,3.82-3.82,5.78-5.69c0.53-0.51,1.11-0.96,1.76-1.32c0.59-0.33,1.23-0.58,1.79-0.99c0.4-0.29,0.74-0.65,0.92-1.12
					c0.33-0.86,0-1.75,0.84-2.37c0.53-0.39,1.06-0.69,1.5-1.18c0.54-0.6,0.95-1.31,1.41-1.98c1.01-1.46,2.39-2.63,3.68-3.83
					c1.38-1.28,2.78-2.54,4.27-3.68c1.22-0.92,2.63-1.69,3.65-2.84c1.2-1.36,1.58-3.21,2.89-4.49c1.52-1.5,3.23-2.84,4.84-4.24
					c-0.14-0.04-0.28-0.07-0.42-0.11c0.22,1.07,0.15,2.11-0.28,3.12c-0.39,0.92-0.95,1.78-1.46,2.64c-1.03,1.75-2.05,3.5-3.08,5.25
					c-0.48,0.83-0.92,1.72-1.5,2.48c-0.33,0.43-0.7,0.69-1.21,0.87c-0.33,0.12-0.66,0.22-0.94,0.44c-0.61,0.46-0.97,1.21-1.32,1.86
					c-0.39,0.73-0.76,1.47-1.18,2.19c-0.44,0.74-0.93,1.45-1.57,2.04c-0.65,0.6-1.43,1.03-2.21,1.44c-1.57,0.82-2.98,1.64-4.19,2.96
					c-1.22,1.33-2.25,2.83-3.29,4.3c-1.1,1.56-2.15,3.15-3.16,4.77c-2.28,3.66-4.32,7.47-6.12,11.4c-0.1,0.22,0.11,0.47,0.34,0.34
					c2.83-1.52,4.41-4.43,6.68-6.58c0.61-0.57,1.26-1.09,1.99-1.49c0.65-0.36,1.35-0.64,1.96-1.07c0.52-0.36,0.97-0.82,1.18-1.43
					c0.13-0.38,0.13-0.78,0.17-1.17c0.07-0.69,0.28-1.14,0.85-1.54c0.66-0.46,1.28-0.85,1.8-1.48c0.54-0.64,0.97-1.37,1.44-2.06
					c1.14-1.67,2.72-3,4.19-4.37c1.5-1.39,3.01-2.76,4.63-4.02c1.49-1.16,3.25-2.1,4.53-3.51c1.41-1.57,1.85-3.73,3.38-5.23
					c1.74-1.7,3.67-3.22,5.51-4.82c-0.14-0.06-0.28-0.12-0.43-0.18c0.17,1.89-0.9,3.34-1.82,4.89c-0.88,1.49-1.76,2.97-2.65,4.46
					c-0.38,0.64-0.72,1.37-1.22,1.92c-0.51,0.56-1.3,0.58-1.84,1.09c-0.46,0.43-0.76,1.05-1.05,1.59c-0.35,0.65-0.69,1.32-1.08,1.95
					c-0.86,1.39-2.01,2.19-3.43,2.94c-1.27,0.67-2.37,1.44-3.34,2.52c-2.08,2.34-3.82,5.07-5.48,7.72
					c-1.93,3.08-3.67,6.29-5.22,9.58c-0.1,0.22,0.11,0.47,0.34,0.34c2.31-1.28,3.66-3.61,5.49-5.44c0.49-0.49,1.01-0.94,1.59-1.3
					c0.55-0.34,1.15-0.59,1.7-0.93c0.44-0.27,0.85-0.6,1.12-1.05c0.38-0.65,0.16-1.44,0.5-2.08c0.28-0.54,0.95-0.79,1.41-1.16
					c0.57-0.46,0.99-1.06,1.4-1.66c0.93-1.38,1.98-2.52,3.18-3.66c1.23-1.16,2.46-2.32,3.75-3.42c1.24-1.05,2.59-1.93,3.86-2.94
					c0.63-0.49,1.2-1.04,1.64-1.71c0.45-0.68,0.77-1.42,1.15-2.13c0.93-1.69,2.59-2.85,4.01-4.1c-0.14-0.06-0.28-0.12-0.43-0.18
					c0.16,1.32-0.54,2.34-1.18,3.42c-0.65,1.09-1.3,2.18-1.94,3.27c-0.27,0.46-0.52,1.02-0.89,1.42c-0.36,0.39-0.89,0.42-1.28,0.75
					c-0.71,0.6-1.04,1.68-1.51,2.46c-0.61,1.02-1.4,1.63-2.43,2.18c-0.92,0.49-1.73,1.02-2.43,1.8c-1.48,1.64-2.71,3.57-3.88,5.43
					c-1.42,2.25-2.69,4.6-3.83,7.01c-0.1,0.22,0.11,0.47,0.34,0.34c1.55-0.87,2.51-2.39,3.7-3.65c0.65-0.68,1.35-1.17,2.17-1.61
					c0.65-0.35,1.27-0.76,1.42-1.53c0.04-0.22,0.03-0.44,0.08-0.65c0.09-0.39,0.31-0.59,0.62-0.8c0.38-0.26,0.71-0.52,1.01-0.89
					c0.63-0.78,1.11-1.65,1.82-2.37c1.61-1.64,3.35-3.25,5.22-4.59c0.88-0.63,1.79-1.22,2.38-2.16c0.3-0.47,0.51-0.98,0.78-1.46
					C105.74,62.52,106.22,62.04,106.76,61.56c0.24-0.21-0.11-0.57-0.35-0.35c-0.82,0.72-1.33,1.47-1.83,2.43
					c-0.53,1.04-1.23,1.73-2.17,2.4c-1.78,1.26-3.38,2.72-4.96,4.22c-0.74,0.7-1.43,1.41-1.99,2.25c-0.27,0.4-0.52,0.81-0.85,1.16
					c-0.34,0.35-0.79,0.54-1.13,0.88c-0.24,0.23-0.35,0.51-0.4,0.84c-0.1,0.66-0.16,1.1-0.74,1.5c-0.69,0.47-1.44,0.76-2.08,1.3
					c-1.54,1.32-2.5,3.24-4.3,4.25c0.11,0.11,0.23,0.23,0.34,0.34c1.02-2.17,2.15-4.28,3.4-6.33c1.25-2.03,2.57-4.14,4.15-5.93
					c0.79-0.89,1.72-1.42,2.75-1.99c0.84-0.46,1.52-1.03,2.05-1.83c0.27-0.41,0.5-0.85,0.73-1.29c0.29-0.55,0.57-1.24,1.15-1.53
					c0.39-0.2,0.73-0.28,1.03-0.62c0.34-0.38,0.58-0.87,0.84-1.31c0.75-1.27,1.5-2.54,2.26-3.8c0.64-1.07,1.22-2.07,1.06-3.36
					c-0.03-0.22-0.25-0.33-0.43-0.18c-1.2,1.05-2.62,2.05-3.56,3.35c-0.91,1.25-1.31,2.78-2.43,3.89c-1.1,1.09-2.49,1.87-3.7,2.84
					c-1.29,1.03-2.52,2.14-3.73,3.27c-1.16,1.09-2.39,2.15-3.36,3.41c-0.4,0.52-0.74,1.09-1.12,1.62c-0.48,0.69-1.01,1.19-1.71,1.66
					c-0.42,0.28-0.81,0.59-0.98,1.08c-0.26,0.72-0.06,1.51-0.6,2.12c-0.44,0.5-1.09,0.79-1.67,1.1c-0.54,0.28-1.06,0.6-1.54,0.98
					c-2.32,1.85-3.67,4.72-6.31,6.19c0.11,0.11,0.23,0.23,0.34,0.34c1.42-3.02,2.99-5.96,4.74-8.81c1.7-2.77,3.5-5.58,5.6-8.07
					c1.05-1.25,2.26-2.09,3.69-2.85c1.23-0.65,2.29-1.38,3.1-2.53c0.41-0.58,0.74-1.2,1.07-1.82c0.35-0.66,0.67-1.42,1.18-1.98
					c0.5-0.55,1.3-0.58,1.84-1.09c0.5-0.48,0.82-1.14,1.17-1.73c1.01-1.7,2.02-3.4,3.03-5.1c0.93-1.57,1.94-3.02,1.76-4.93
					c-0.02-0.22-0.26-0.32-0.43-0.18c-1.62,1.41-3.24,2.8-4.85,4.22c-0.7,0.62-1.34,1.27-1.83,2.07c-0.47,0.76-0.81,1.59-1.24,2.37
					c-0.99,1.79-2.62,2.8-4.23,3.96s-3.13,2.45-4.6,3.79c-1.47,1.33-2.98,2.66-4.32,4.12c-1.19,1.3-1.92,3.04-3.26,4.18
					c-0.59,0.51-1.4,0.79-1.82,1.49c-0.45,0.76-0.16,1.7-0.57,2.47c-0.38,0.73-1.18,1.13-1.88,1.49c-0.68,0.35-1.34,0.69-1.95,1.14
					c-2.86,2.14-4.43,5.67-7.64,7.4c0.11,0.11,0.23,0.23,0.34,0.34c1.64-3.58,3.48-7.06,5.52-10.42c1.01-1.66,2.07-3.3,3.17-4.9
					c1.11-1.61,2.23-3.24,3.51-4.72c0.64-0.74,1.35-1.43,2.17-1.98c0.7-0.47,1.46-0.83,2.2-1.22c1.5-0.78,2.72-1.71,3.65-3.15
					c0.45-0.69,0.82-1.43,1.21-2.16c0.4-0.75,0.79-1.76,1.51-2.26c0.36-0.26,0.8-0.33,1.19-0.52c0.38-0.18,0.68-0.45,0.94-0.77
					c0.54-0.67,0.94-1.47,1.37-2.22c1.19-2.03,2.38-4.06,3.57-6.09c0.52-0.88,1.08-1.76,1.42-2.73c0.33-0.97,0.33-1.99,0.13-2.99
					c-0.04-0.2-0.29-0.22-0.42-0.11c-1.46,1.27-2.93,2.51-4.37,3.8c-0.55,0.49-1.05,1-1.44,1.63c-0.44,0.7-0.75,1.46-1.15,2.18
					c-0.84,1.51-2.22,2.37-3.58,3.35c-1.38,0.99-2.67,2.08-3.93,3.22c-1.34,1.21-2.74,2.42-3.95,3.77c-1.05,1.17-1.7,2.79-2.98,3.73
					c-0.45,0.33-1,0.57-1.32,1.05c-0.45,0.67-0.18,1.5-0.53,2.2c-0.3,0.61-0.95,0.95-1.52,1.25c-0.62,0.32-1.23,0.62-1.79,1.03
					c-2.5,1.85-3.87,4.93-6.66,6.44c0.11,0.11,0.23,0.23,0.34,0.34c2.43-5.3,5.38-10.35,8.8-15.07c0.84-1.15,1.68-2.34,2.74-3.3
					c1.06-0.97,2.36-1.49,3.58-2.2c1.04-0.61,1.85-1.41,2.5-2.42c0.67-1.05,1.11-2.25,1.83-3.27c0.5-0.71,1.29-0.7,1.92-1.2
					c0.48-0.38,0.78-0.94,1.09-1.47c0.91-1.55,1.81-3.09,2.72-4.64c0.11-0.19-0.07-0.42-0.28-0.37c-1,0.24-1.87,0.42-2.64,1.13
					c-0.86,0.8-1.24,1.78-1.84,2.77c-0.65,1.07-1.74,1.67-2.71,2.4c-0.96,0.72-1.86,1.51-2.75,2.33c-0.87,0.8-1.78,1.59-2.56,2.48
					c-0.67,0.76-1.1,1.78-1.89,2.43c-0.33,0.27-0.76,0.45-1.02,0.8c-0.31,0.44-0.19,0.94-0.36,1.42c-0.3,0.91-1.69,1.25-2.4,1.78
					c-1.73,1.32-2.7,3.43-4.62,4.51c0.11,0.11,0.23,0.23,0.34,0.34c1.23-2.62,2.63-5.15,4.2-7.58c0.76-1.18,1.57-2.34,2.41-3.47
					c0.85-1.15,1.73-2.12,3-2.81c1.06-0.58,2.01-1.11,2.7-2.13c0.34-0.49,0.6-1.02,0.88-1.54c0.15-0.29,0.3-0.58,0.49-0.85
					c0.25-0.37,0.56-0.49,0.95-0.66c0.46-0.2,0.75-0.56,1.02-0.98c0.42-0.68,0.82-1.38,1.23-2.06c0.75-1.26,1.61-2.5,2.23-3.82
					c0.54-1.15,1.21-2.22,1.86-3.31c-0.13,0.02-0.26,0.03-0.39,0.05c0.65,0.68,0.93,1.61,1.51,2.35c0.57,0.74,1.25,1.38,1.86,2.07
					c0.11,0.12,0.32,0.09,0.39-0.05c0.95-1.78,1.07-3.74-0.1-5.46c0,0.08,0,0.17,0,0.25c0.09-0.13,0.17-0.27,0.26-0.4
					c0.15-0.23,0.14-0.26,0.39-0.3c1-0.18,1.88,0.48,2.43,1.24c0.51,0.7,0.86,1.52,1.28,2.27c0.46,0.82,0.96,1.61,1.48,2.4
					c0.11,0.16,0.33,0.16,0.43,0c0.12-0.18,0.98-0.07,1.17-0.02c0.44,0.11,0.86,0.33,1.21,0.62c0.65,0.54,1.08,1.31,1.47,2.05
					c0.82,1.56,1.7,3.05,2.7,4.51c0.07,0.1,0.17,0.14,0.28,0.11c1.9-0.44,2.76,1.67,3.46,3.01c0.8,1.53,1.73,2.98,2.78,4.35
					c0.01-0.1,0.03-0.2,0.04-0.3c-0.44,0.39-0.88,0.77-1.32,1.16c-0.1,0.09-0.09,0.26,0,0.35c0.66,0.69,1,1.64,1.47,2.46
					s1,1.61,1.58,2.37c0.01-0.1,0.03-0.2,0.04-0.3c-1.17,1.03-2.35,2.06-3.52,3.09C106.16,61.42,106.52,61.77,106.76,61.56z"/>
			</g>
		</g>
		<g>
			<path d="M47.3,79.09c0.24,0.33,0.43,0.44,0.58,0.35c0.15-0.09,0.44-0.32,0.89-0.69c0.44-0.37,1.16-0.62,2.16-0.77
				c-0.39,0.97-0.77,1.79-1.13,2.47s-0.73,1.24-1.11,1.7c-0.05,0.07-0.11,0.14-0.18,0.21c-0.06,0.07-0.12,0.15-0.16,0.24
				c-0.15,0.33-0.07,0.64,0.26,0.93c0.32,0.29,0.58,0.45,0.75,0.48c0.15,0.03,0.29-0.01,0.43-0.13c0.14-0.11,0.26-0.24,0.36-0.37
				c0.2-0.25,0.43-0.6,0.68-1.06s0.49-0.95,0.72-1.46c0.23-0.52,0.44-1.03,0.63-1.55c0.19-0.51,0.32-0.95,0.39-1.32
				c0.07-0.3,0.11-0.58,0.11-0.84c0-0.19-0.03-0.35-0.1-0.49c-0.07-0.16-0.15-0.29-0.23-0.39c-0.08-0.09-0.18-0.2-0.29-0.3
				c-0.14-0.12-0.24-0.19-0.31-0.22c-0.05-0.02-0.1-0.03-0.16-0.04c-0.12-0.02-0.23-0.03-0.35-0.02s-0.24,0.02-0.36,0.04
				c-0.31,0.04-0.89,0.32-1.75,0.82c0.42-1.2,0.66-2.04,0.72-2.49c0.01-0.17,0.03-0.34,0.04-0.52c0.01-0.17,0.02-0.34,0.02-0.51
				c0-0.08-0.01-0.16-0.02-0.23c-0.01-0.1-0.05-0.26-0.13-0.48c-0.07-0.16-0.13-0.3-0.2-0.41c-0.06-0.11-0.15-0.23-0.26-0.34
				c-0.09-0.1-0.21-0.17-0.34-0.18c-0.18-0.02-0.37,0.01-0.59,0.09c-0.26,0.09-0.58,0.24-0.96,0.46c-1.1,0.65-2.09,1.57-2.83,2.62
				c-0.24,0.34-0.45,0.71-0.52,1.12s0.04,0.86,0.35,1.14c0.41-0.09,0.73-0.39,1.04-0.68c0.95-0.9,1.84-1.59,2.98-2.24
				c-0.27,1.34-0.56,2.37-0.87,3.1"/>
			<path d="M50.11,83.83c0.17-0.2,0.34-0.18,0.53,0.06c0.02,0.03,0.08,0.11,0.17,0.23c0.09,0.12,0.15,0.21,0.19,0.25
				c0.17-0.26,0.45-0.63,0.82-1.14c0.19-0.24,0.43-0.52,0.72-0.85c0.26-0.29,0.52-0.55,0.76-0.8c0.5-0.48,0.86-0.78,1.07-0.89
				c-0.13-0.18-0.2-0.29-0.22-0.33c-0.03-0.04-0.13-0.18-0.29-0.43c-0.02-0.03-0.05-0.07-0.08-0.13c-0.01-0.01-0.03-0.05-0.06-0.11
				c-0.08-0.14-0.09-0.29-0.04-0.45c0.04-0.14,0.14-0.24,0.31-0.32c0.17-0.08,0.3-0.12,0.39-0.12c0.13,0,0.31,0.12,0.54,0.36
				c0.22,0.23,0.45,0.5,0.7,0.83c0.24,0.32,0.47,0.63,0.68,0.93c0.19,0.28,0.34,0.51,0.45,0.69c0.02,0.03,0.04,0.08,0.08,0.16
				c0.02,0.04,0.03,0.1,0.06,0.18c0.01,0.06,0.03,0.12,0.04,0.18c0.01,0.03,0.02,0.09,0.03,0.18c0,0.04-0.07,0.26-0.24,0.64
				c-0.15,0.17-0.29,0.19-0.43,0.07s-0.26-0.26-0.38-0.4c-0.06-0.07-0.17-0.21-0.33-0.4c-0.46,0.45-0.8,0.78-1.01,1
				c-0.21,0.21-0.45,0.47-0.73,0.78c-0.24,0.27-0.46,0.55-0.67,0.84c-0.38,0.52-0.66,0.91-0.82,1.18c0.13,0.19,0.21,0.32,0.26,0.38
				c0.03,0.04,0.07,0.09,0.1,0.13s0.07,0.08,0.09,0.12c0.04,0.06,0.1,0.13,0.16,0.22c0.02,0.03,0.04,0.06,0.06,0.09
				s0.03,0.05,0.05,0.07c0.08,0.13,0.09,0.28,0.05,0.44c-0.13,0.12-0.26,0.25-0.39,0.37c-0.14,0.08-0.24,0.12-0.32,0.12
				c-0.13,0.01-0.32-0.1-0.56-0.32c-0.11-0.1-0.23-0.22-0.35-0.35c-0.12-0.14-0.24-0.28-0.36-0.42c-0.22-0.27-0.44-0.57-0.66-0.91
				c-0.17-0.25-0.31-0.48-0.42-0.68c-0.03-0.07-0.05-0.13-0.06-0.16c-0.01-0.03-0.03-0.09-0.05-0.18c-0.01-0.04-0.02-0.11-0.03-0.19
				c0,0.01-0.01-0.05-0.02-0.18c-0.01-0.04,0.02-0.16,0.09-0.36C50.02,83.99,50.07,83.86,50.11,83.83z"/>
			<path d="M58.82,88.92c0.07,0.23,0.14,0.46,0.22,0.69c0.01,0.02,0.02,0.04,0.02,0.05c0.2,0.53,0.26,0.98,0.18,1.37
				c-0.08,0.39-0.33,0.69-0.75,0.89s-0.91,0.25-1.47,0.14c-0.37-0.07-0.75-0.23-1.14-0.49c-0.39-0.26-0.76-0.57-1.1-0.93h-0.01l0,0
				c-0.42-0.47-0.6-0.71-0.56-0.72c-0.13-0.19-0.24-0.36-0.32-0.51c-0.16-0.39-0.33-0.77-0.49-1.17c-0.07-0.26-0.12-0.5-0.13-0.75
				c0-0.01,0-0.02,0-0.03s0-0.02,0.01-0.03c-0.01-0.01-0.01-0.02-0.01-0.03s0-0.02,0-0.02c0-0.13,0.02-0.24,0.08-0.33
				c0.01-0.01,0.02-0.02,0.03-0.03c0.08-0.1,0.19-0.21,0.31-0.34c0.12-0.13,0.24-0.22,0.35-0.27c0.12-0.06,0.21-0.02,0.27,0.11
				c0.05,0.13,0.09,0.25,0.1,0.36c0,0.02,0,0.03,0,0.04s0.01,0.02,0.01,0.04c0.04,0.27,0.12,0.55,0.23,0.83
				c0.25,0.62,0.68,1.23,1.28,1.81c0.03,0.01,0.07,0.03,0.13,0.04c0.19,0.06,0.3,0,0.33-0.2c0-0.01-0.01-0.02,0-0.03
				c0-0.01,0-0.02,0.01-0.03c0-0.08-0.2-0.63-0.58-1.67c-0.29-1.08-0.42-1.75-0.4-1.98c0.04-0.56,0.24-0.96,0.59-1.19
				s0.77-0.29,1.27-0.2c0.88,0.15,1.88,0.93,3.03,2.25c0.12,0.19,0.22,0.36,0.31,0.51c0.03,0.06,0.07,0.15,0.13,0.27
				c0.05,0.12,0.11,0.25,0.18,0.41c0.09,0.18,0.1,0.29,0.03,0.33c0,0.02,0,0.04,0,0.06c0,0.16-0.04,0.33-0.12,0.52
				c-0.08,0.19-0.22,0.28-0.41,0.26c-0.02,0-0.03,0-0.04,0c-0.16-0.03-0.31-0.14-0.46-0.34c-0.16-0.23-0.31-0.45-0.47-0.65
				c-0.08-0.12-0.16-0.24-0.25-0.36c-0.36-0.43-0.62-0.73-0.8-0.91c-0.45-0.25-0.55,0.05-0.28,0.9
				C58.17,87.67,58.39,88.12,58.82,88.92z"/>
			<path d="M62.04,88.51c0.12,0,0.26,0.09,0.42,0.27c0.23,0.24,0.47,0.48,0.75,0.71c0.57,0.49,1.18,0.91,1.84,1.28
				c0.66,0.37,1.32,0.73,1.99,1.07c0.22,0.12,0.46,0.22,0.7,0.3c0.24,0.09,0.47,0.19,0.69,0.31c0.25,0.14,0.37,0.31,0.38,0.51
				c0,0.23-0.06,0.46-0.19,0.68c-0.12,0.22-0.3,0.37-0.53,0.46c-0.14,0.05-0.31,0.05-0.5,0s-0.36-0.09-0.51-0.14
				c-0.2-0.06-0.44-0.13-0.74-0.21c-0.3-0.08-0.54-0.11-0.74-0.08s-0.37,0.16-0.5,0.39c-0.13,0.23-0.34,0.56-0.62,1
				c-0.21,0.31-0.43,0.64-0.64,0.99s-0.45,0.66-0.71,0.93c-0.14,0.15-0.29,0.21-0.47,0.19c-0.25-0.03-0.44-0.07-0.56-0.13
				c-0.12-0.06-0.28-0.16-0.48-0.31c-0.08-0.06-0.17-0.14-0.25-0.23c-0.08-0.09-0.11-0.19-0.09-0.28c0.04-0.17,0.08-0.31,0.13-0.44
				c0.15-0.4,0.4-0.86,0.74-1.38s0.6-0.98,0.78-1.37c0.09-0.19,0.17-0.4,0.24-0.64c0.04-0.14-0.06-0.33-0.3-0.57
				c-0.24-0.24-0.4-0.41-0.49-0.5c-0.19-0.18-0.38-0.36-0.59-0.54c-0.2-0.18-0.36-0.39-0.48-0.61c-0.1-0.19-0.13-0.35-0.09-0.49
				c0.04-0.13,0.1-0.27,0.17-0.43C61.71,88.77,61.92,88.51,62.04,88.51z"/>
			<path d="M69.63,93.69c0.1,0.03,0.2,0.06,0.3,0.1c0.1,0.04,0.2,0.08,0.31,0.11c0.68,0.23,1.44,0.55,2.32,0.95
				c0.87,0.41,1.61,0.82,2.21,1.24c0.15,0.11,0.3,0.23,0.44,0.37c0.15,0.14,0.24,0.28,0.26,0.42c0.02,0.16-0.06,0.4-0.24,0.71
				s-0.45,0.39-0.8,0.23c-0.1-0.04-0.19-0.1-0.27-0.16c-0.08-0.06-0.16-0.12-0.24-0.18c-0.79-0.52-1.44-0.94-1.96-1.23
				s-1.09-0.57-1.68-0.84c-0.47,0.49-0.83,0.88-1.06,1.18c0.49,0.24,0.95,0.47,1.4,0.69c0.45,0.22,0.75,0.37,0.9,0.47
				c0.37,0.22,0.45,0.43,0.23,0.64c-0.22,0.21-0.44,0.31-0.66,0.32c-0.22,0.04-0.59-0.04-1.12-0.25c-0.53-0.21-1.04-0.45-1.52-0.71
				c-0.34,0.54-0.57,0.95-0.69,1.24c0.08,0.05,0.17,0.09,0.28,0.15c0.1,0.05,0.22,0.11,0.35,0.18c0.51,0.26,1.09,0.53,1.73,0.8
				c0.64,0.27,1.21,0.46,1.7,0.59c0.05,0.02,0.1,0.03,0.16,0.04c0.06,0.01,0.11,0.02,0.17,0.03c0.12,0.04,0.22,0.07,0.31,0.1
				c0.17,0.08,0.25,0.19,0.24,0.32c-0.02,0.13-0.08,0.27-0.19,0.4c-0.09,0.13-0.27,0.23-0.54,0.32c-0.16,0.05-0.36,0.06-0.6,0.04
				c-0.16-0.02-0.37-0.06-0.62-0.13c-0.38-0.1-0.83-0.26-1.35-0.47c-0.52-0.22-1.04-0.46-1.55-0.73c-0.32-0.16-0.73-0.38-1.22-0.65
				c-0.5-0.27-0.83-0.53-1-0.75c-0.13-0.16-0.18-0.34-0.17-0.52s0.04-0.35,0.08-0.51c0.08-0.3,0.23-0.65,0.46-1.06
				c0.23-0.41,0.49-0.81,0.78-1.22c0.29-0.4,0.59-0.78,0.9-1.13c0.31-0.35,0.6-0.61,0.86-0.79c0.23-0.16,0.44-0.27,0.64-0.33
				C69.31,93.65,69.47,93.65,69.63,93.69z"/>
			<path d="M75.73,98.7c0.2-0.18,0.36-0.28,0.47-0.32s0.37-0.04,0.78-0.01c1.08,0.09,2.18,0.36,3.29,0.78
				c1.11,0.43,1.86,0.99,2.22,1.71c0.16,0.33,0.19,0.69,0.09,1.07c-0.1,0.38-0.41,0.67-0.93,0.87c-0.21,0.09-0.44,0.14-0.68,0.15
				s-0.47,0.05-0.7,0.1c-0.2,0.05-0.35,0.13-0.44,0.24c-0.07,0.08-0.12,0.15-0.14,0.23c-0.03,0.07-0.05,0.15-0.04,0.23
				c-0.01,0.08,0.01,0.16,0.03,0.23c0.03,0.08,0.06,0.16,0.11,0.23c0.03,0.06,0.09,0.14,0.15,0.23c0.04,0.05,0.1,0.12,0.19,0.22
				c0.03,0.04,0.06,0.07,0.09,0.11c0.04,0.04,0.07,0.07,0.1,0.11c0.09,0.09,0.15,0.16,0.19,0.2c0.12,0.14,0.05,0.25-0.2,0.32
				c-0.2,0.06-0.46,0.11-0.76,0.15s-0.57,0.06-0.8,0.07c-0.3,0.01-0.55-0.07-0.75-0.23c-0.15-0.21-0.28-0.54-0.4-1.02
				c-0.12-0.48-0.22-0.86-0.3-1.14c-0.06-0.15-0.19-0.29-0.39-0.42s-0.44-0.18-0.73-0.15c-0.31,0.03-0.59,0.21-0.85,0.52
				c-0.26,0.32-0.44,0.56-0.54,0.73c-0.07,0.1-0.14,0.15-0.23,0.16c-0.08,0-0.19-0.02-0.32-0.06c-0.15-0.05-0.29-0.11-0.42-0.17
				c-0.13-0.07-0.25-0.12-0.37-0.16c-0.09-0.05-0.18-0.1-0.27-0.16c-0.09-0.06-0.14-0.13-0.16-0.21c-0.05-0.17,0.03-0.49,0.24-0.96
				s0.36-0.8,0.45-0.97c0.02-0.03,0.03-0.06,0.05-0.09c0.02-0.03,0.04-0.06,0.06-0.1c0.23-0.41,0.5-0.84,0.81-1.29
				C74.95,99.46,75.31,99.06,75.73,98.7z M80.08,100.66c-0.44-0.32-1.02-0.54-1.72-0.67c-0.34-0.06-0.65-0.02-0.92,0.1
				c-0.16,0.07-0.32,0.23-0.48,0.46c-0.16,0.23-0.23,0.41-0.21,0.53c0.06,0.26,0.3,0.46,0.72,0.62c0.21,0.07,0.42,0.14,0.66,0.2
				c0.23,0.06,0.47,0.1,0.7,0.12c0.39,0.04,0.77-0.03,1.11-0.18c0.35-0.16,0.51-0.38,0.47-0.66
				C80.39,100.97,80.28,100.8,80.08,100.66z"/>
		</g>
		<g>
			<path class="st19" d="M44.42,85.61c0.81,1.16,1.66,2.28,2.54,3.38c-0.16,0.21-0.32,0.43-0.49,0.64
				c-0.55-0.68-1.09-1.38-1.61-2.09c-0.12,0.16-0.24,0.32-0.36,0.48c0.49,0.65,0.98,1.3,1.49,1.93c-0.15,0.2-0.31,0.41-0.46,0.61
				c-0.51-0.63-1-1.27-1.49-1.92c-0.15,0.2-0.3,0.4-0.45,0.6c0.54,0.72,1.09,1.42,1.65,2.12c-0.17,0.23-0.34,0.45-0.52,0.68
				c-0.89-1.09-1.75-2.21-2.57-3.36C42.92,87.66,43.67,86.64,44.42,85.61z"/>
			<path class="st19" d="M47.55,89.72c0.31,0.38,0.63,0.75,0.95,1.12c0,1.03,0,2.04,0,3.04c0.42-0.54,0.85-1.08,1.27-1.61
				c0.33,0.36,0.67,0.72,1.01,1.08c-0.77,0.96-1.54,1.93-2.32,2.89c-0.34-0.35-0.67-0.7-1-1.05c0-0.99,0-1.99,0-3.01
				c-0.42,0.54-0.84,1.08-1.26,1.62c-0.32-0.36-0.64-0.73-0.95-1.1C46.03,91.7,46.79,90.71,47.55,89.72z"/>
			<path class="st19" d="M51.76,98.57c-0.43-0.39-0.86-0.79-1.28-1.2c-0.19,0.1-0.37,0.2-0.56,0.3c-0.38-0.36-0.75-0.73-1.12-1.11
				c1.21-0.52,2.44-1.03,3.67-1.53c0.41,0.4,0.83,0.79,1.25,1.17c-0.31,1.37-0.63,2.72-0.94,4.06c-0.41-0.35-0.81-0.7-1.21-1.06
				C51.62,98.99,51.69,98.78,51.76,98.57z M52.03,97.74c0.15-0.46,0.29-0.93,0.44-1.4c-0.41,0.21-0.83,0.43-1.24,0.64
				C51.49,97.24,51.76,97.49,52.03,97.74z"/>
			<path class="st19" d="M53.16,100.59c0.79-0.93,1.58-1.85,2.37-2.78c0.66,0.57,1.34,1.12,2.02,1.66c0.38,0.3,0.66,0.55,0.82,0.75
				c0.17,0.2,0.26,0.4,0.28,0.62c0.02,0.21-0.05,0.4-0.2,0.58c-0.13,0.15-0.3,0.24-0.49,0.28c-0.19,0.04-0.4,0.03-0.63-0.03
				c-0.15-0.04-0.32-0.11-0.53-0.22c0.12,0.15,0.2,0.26,0.23,0.34c0.03,0.06,0.05,0.15,0.07,0.29s0.03,0.24,0.02,0.3
				c-0.03,0.41-0.06,0.82-0.1,1.22c-0.47-0.34-0.94-0.68-1.4-1.03c0.03-0.44,0.05-0.89,0.08-1.34c0.01-0.17,0-0.3-0.04-0.38
				c-0.05-0.11-0.13-0.21-0.24-0.3c-0.04-0.03-0.07-0.06-0.11-0.09c-0.32,0.37-0.65,0.74-0.97,1.12
				C53.95,101.25,53.55,100.92,53.16,100.59z M55.78,99.94c0.17,0.14,0.34,0.27,0.51,0.41c0.06,0.04,0.17,0.12,0.36,0.22
				c0.09,0.05,0.18,0.08,0.28,0.07c0.09-0.01,0.16-0.04,0.22-0.1c0.08-0.09,0.1-0.19,0.06-0.3c-0.04-0.11-0.17-0.25-0.4-0.43
				c-0.18-0.14-0.36-0.29-0.54-0.43C56.1,99.57,55.94,99.75,55.78,99.94z"/>
			<path class="st19" d="M60.3,104.27c0.17-0.18,0.34-0.37,0.51-0.55c0.67,0.44,1.35,0.87,2.04,1.29c-0.35,0.37-0.71,0.74-1.06,1.11
				c-0.55-0.07-1-0.17-1.35-0.3c-0.35-0.13-0.73-0.32-1.14-0.58c-0.5-0.32-0.85-0.65-1.06-0.97c-0.21-0.32-0.3-0.65-0.27-0.98
				s0.16-0.64,0.42-0.92c0.26-0.29,0.59-0.48,0.97-0.57c0.38-0.08,0.8-0.05,1.27,0.09c0.36,0.11,0.78,0.33,1.27,0.65
				c0.47,0.31,0.8,0.56,0.99,0.77c0.19,0.2,0.31,0.41,0.36,0.61c0.05,0.21,0.04,0.42-0.04,0.63c-0.47-0.22-0.95-0.44-1.41-0.66
				c0.04-0.13,0.02-0.27-0.05-0.4c-0.08-0.13-0.21-0.26-0.4-0.39c-0.29-0.19-0.57-0.28-0.85-0.27s-0.55,0.15-0.8,0.42
				c-0.26,0.29-0.37,0.55-0.31,0.79c0.06,0.24,0.23,0.46,0.54,0.66c0.15,0.1,0.3,0.17,0.45,0.23c0.16,0.06,0.35,0.11,0.58,0.16
				c0.08-0.08,0.16-0.17,0.23-0.25C60.88,104.65,60.59,104.46,60.3,104.27z"/>
			<path class="st19" d="M64.27,104.1c0.5,0.3,1,0.59,1.51,0.88c0.02,0.46,0.03,0.91,0.05,1.36c0.59-0.12,1.17-0.25,1.76-0.38
				c0.52,0.27,1.03,0.53,1.56,0.79c-1.09,0.19-2.18,0.39-3.25,0.58c-0.35,0.36-0.71,0.71-1.06,1.07c-0.46-0.24-0.91-0.48-1.37-0.73
				c0.35-0.36,0.7-0.72,1.05-1.08C64.44,105.78,64.36,104.95,64.27,104.1z"/>
		</g>
		<path d="M44.87,107.82c-0.04-0.79-0.54-1.39-1.07-1.92c-1.1-1.12-2.42-2.01-3.84-2.66c0.13-0.18,0.25-0.36,0.37-0.55
			c0.02-0.03,0.04-0.08,0.05-0.12c0.16,0.08,0.31,0.16,0.44,0.24c0.36,0.22,0.72,0.45,1.08,0.69c0.38,0.25,0.75,0.51,1.12,0.77
			c0.2,0.14,0.4,0.29,0.59,0.44c0,0,0.23,0.16,0.15,0.09c0.19,0.15,0.22,0.28,0.46,0.38c0.58,0.23,1.35-0.17,1.25-0.87
			c-0.04-0.26-0.12-0.49-0.33-0.67c-0.13-0.11-0.26-0.15-0.4-0.23c-0.23-0.12-0.45-0.28-0.67-0.41c-0.42-0.25-0.84-0.5-1.28-0.73
			c-0.43-0.23-0.87-0.45-1.32-0.66c-0.46-0.21-1.04-0.59-1.55-0.54c-0.35,0.03-0.54,0.36-0.46,0.67c-0.46,0.28-0.89,0.83-1.26,1.02
			c-0.36,0.18-0.64,0.45-0.65,0.89c-0.01,0.38,0.19,0.8,0.56,0.94c1.45,0.57,2.78,1.38,3.92,2.44c0.2,0.19,0.53,0.51,0.6,0.61
			c0.01,0.01,0.03,0.04,0.05,0.06c-0.09,0.03-0.13,0.04-0.23,0.06c-0.26,0.05-0.51,0.04-0.77,0c-1.26-0.19-2.48-0.93-3.48-1.7
			c-0.5-0.38-0.94-0.76-1.28-1.26c-0.16-0.24-0.25-0.41-0.33-0.68c0.03,0.11-0.06-0.29-0.04-0.24c0-0.04,0-0.05,0-0.07
			c0.11-0.2,0.15-0.45,0.1-0.65c-0.09-0.39-0.37-0.61-0.74-0.73c-1.05-0.31-1.54,0.92-1.46,1.74c0.06,0.71,0.41,1.41,0.83,1.97
			c0.97,1.28,2.42,2.23,3.85,2.92c1.29,0.63,2.83,1.06,4.25,0.57C44.21,109.39,44.92,108.74,44.87,107.82z"/>
		<g>
			<path d="M47.99,109.57v-0.01C48,109.51,47.99,109.52,47.99,109.57z"/>
			<path d="M49.43,109.21c-0.04-0.53-0.28-1.11-0.61-1.51c-0.22-0.27-0.47-0.5-0.8-0.63c-0.33-0.13-0.66-0.19-1.01-0.17
				c-0.72,0.03-1.39,0.45-1.84,1c-0.21,0.26-0.4,0.56-0.54,0.86c-0.08,0.18-0.14,0.38-0.17,0.58c-0.03,0.17,0.01,0.33,0.05,0.49
				c-0.02,0.11-0.07,0.21-0.07,0.34c0,0.72,0.48,1.3,1.09,1.63c0.61,0.33,1.35,0.35,2,0.16C48.67,111.62,49.51,110.4,49.43,109.21z
				 M47.33,110.37c-0.01,0.01-0.02,0.01-0.03,0.01c-0.04,0.02-0.08,0.03-0.12,0.05c-0.05,0.02-0.1,0.03-0.15,0.05
				c-0.02,0-0.03,0.01-0.05,0.01c-0.08,0.01-0.16,0.03-0.24,0.03c-0.02,0-0.04,0-0.06,0c-0.05-0.01-0.1-0.01-0.14-0.02
				c-0.06-0.01-0.11-0.02-0.17-0.04c-0.01,0,0,0-0.01,0c-0.05-0.02-0.11-0.05-0.16-0.07c-0.01,0-0.02-0.01-0.03-0.02
				c-0.04-0.03-0.08-0.06-0.12-0.1c-0.01-0.01-0.01,0-0.01-0.01l0,0c-0.03-0.04-0.06-0.08-0.09-0.12c-0.01-0.01-0.02-0.02-0.02-0.04
				c-0.01-0.02-0.02-0.04-0.03-0.07c0-0.01,0-0.01-0.01-0.02c0-0.03-0.01-0.06-0.01-0.1c0-0.01,0-0.02,0-0.03
				c0-0.02,0.01-0.04,0.01-0.06c0.04-0.07,0.08-0.13,0.12-0.2c0.05-0.09,0.1-0.18,0.15-0.27c0.02-0.04,0.04-0.08,0.07-0.12
				c0-0.01,0.01-0.01,0.01-0.02c0.06-0.08,0.12-0.16,0.19-0.24c0.04-0.04,0.07-0.08,0.11-0.12c0.07-0.05,0.14-0.11,0.22-0.16
				c0,0,0.01-0.01,0.02-0.01c0.03-0.01,0.06-0.03,0.1-0.04c0.03-0.01,0.07-0.02,0.1-0.03c0.01,0,0.03,0,0.03,0
				c0.04,0,0.08,0,0.11-0.01l0,0c0.04,0,0.07,0.01,0.11,0.02c0.07,0.03,0.15,0.06,0.22,0.1c0.06,0.03,0.13,0.07,0.19,0.1
				c0.04,0.03,0.08,0.06,0.11,0.09c0.03,0.02,0.05,0.05,0.08,0.07c0.02,0.03,0.04,0.06,0.06,0.09c0,0.01,0,0,0.01,0.01l0,0
				c0.03,0.08,0.06,0.16,0.09,0.24c0.01,0.05,0.01,0.1,0.02,0.15c0,0.04-0.01,0.09,0,0.12c-0.01-0.02,0-0.03,0-0.04
				c0,0.02,0,0.03-0.01,0.05c0,0.01-0.01,0.03-0.01,0.05c-0.01,0.04-0.03,0.07-0.05,0.11s-0.04,0.08-0.06,0.12
				c-0.06,0.08-0.13,0.16-0.2,0.23l-0.01,0.01c-0.03,0.02-0.06,0.05-0.09,0.07C47.49,110.27,47.41,110.32,47.33,110.37z"/>
		</g>
		<g>
			<path d="M53.06,114.38c0.11-0.12,0.2-0.26,0.28-0.4c0.29-0.49,0.41-1.15,0.31-1.71c-0.06-0.34-0.16-0.64-0.33-0.94
				c-0.05-0.09-0.12-0.17-0.18-0.25v-0.01c-0.12-0.61-0.79-1.05-1.38-1.13c-0.66-0.09-1.28,0.09-1.86,0.4
				c-0.24,0.13-0.45,0.3-0.66,0.47c-0.31,0.25-0.63,0.51-0.78,0.9c-0.29,0.75,0.06,1.61,0.41,2.28c0.33,0.63,0.88,1.02,1.56,1.21
				c0.51,0.13,1.12,0.1,1.61-0.09c0.28-0.11,0.53-0.26,0.75-0.46c0.03-0.03,0.04-0.04,0.06-0.05c0.04-0.03,0.08-0.07,0.11-0.1
				C52.99,114.45,53.02,114.42,53.06,114.38z M51.7,113.44c-0.07,0-0.13,0.02-0.2,0.02c-0.02,0-0.06,0-0.09,0
				c-0.08-0.01-0.16-0.03-0.25-0.04c0.02,0.01,0.02,0,0.06,0.03c-0.02-0.01-0.05-0.02-0.07-0.03c-0.01,0-0.01,0-0.02,0
				c-0.03-0.01-0.04-0.02-0.04-0.02c-0.05-0.02-0.09-0.04-0.14-0.07c-0.02-0.02-0.04-0.03-0.06-0.05c-0.06-0.05-0.12-0.1-0.18-0.16
				c0.02,0.02,0.02,0.02,0.04,0.06c-0.01-0.02-0.03-0.04-0.04-0.06c-0.01-0.01-0.01-0.01-0.02-0.02c-0.05-0.05-0.05-0.06-0.02-0.04
				c-0.03-0.04-0.05-0.08-0.07-0.12c0,0.01,0.01,0.02,0,0.02c0,0-0.01-0.03-0.02-0.05l-0.01-0.01c-0.04-0.07-0.03-0.05-0.01-0.02
				c-0.06-0.16-0.19-0.5-0.2-0.53l0,0c0.02-0.02,0.04-0.04,0.05-0.06c0.08-0.08,0.15-0.16,0.23-0.23c0.01-0.01,0.03-0.03,0.06-0.06
				c0.05-0.04,0.1-0.09,0.15-0.13c0.02-0.04,0.12-0.1,0.15-0.12c0.08-0.06,0.16-0.11,0.24-0.16c0.07-0.04,0.17-0.05-0.01,0
				c0.05-0.01,0.1-0.05,0.15-0.06c0.04-0.02,0.08-0.03,0.13-0.04c0.02-0.01,0.02-0.01,0.03-0.01s0,0,0.01,0c0.04,0,0.07,0,0.1-0.01
				c0.02,0.07,0.02,0.15,0.07,0.22c0.01,0.01,0.02,0.03,0.03,0.04c0.03,0.06,0.05,0.12,0.09,0.18c0.04,0.04,0.08,0.09,0.12,0.13
				c0.02,0.02,0.03,0.04,0.05,0.06c0.02,0.03,0.04,0.06,0.06,0.08c0,0,0.01,0.03,0.03,0.04c0.01,0.02,0.02,0.05,0.03,0.06
				c0.02,0.05,0.04,0.1,0.05,0.15c0,0.01,0.01,0.04,0.02,0.07c0,0.02,0.01,0.05,0.01,0.05c0.01,0.05,0.03,0.16,0.02,0.22
				c0,0.01,0,0,0,0c-0.01,0.04-0.01,0.09-0.02,0.13c-0.01,0.04-0.02,0.08-0.02,0.13c0,0.01,0,0.01,0,0.01l0,0
				c-0.01,0.03-0.03,0.06-0.05,0.09c-0.01,0.01-0.01,0.02-0.02,0.03c-0.02,0.04-0.11,0.13-0.13,0.15c-0.02,0.02-0.04,0.03-0.06,0.05
				c-0.01,0.01,0,0-0.01,0.01c-0.04,0.02-0.08,0.03-0.12,0.05C51.75,113.42,51.73,113.43,51.7,113.44z"/>
			<path d="M50.58,112.92c0.01,0.01,0.01,0.02,0.02,0.03c-0.01-0.02-0.02-0.04-0.03-0.06C50.58,112.9,50.58,112.9,50.58,112.92z"/>
			<path d="M51.1,113.39c0.01,0,0.01,0.01,0.02,0.01c0.01,0.01,0.03,0.01,0.04,0.02h0.01C51.13,113.4,51.1,113.39,51.1,113.39z"/>
			<path d="M52.84,114.59c-0.02,0.02-0.04,0.04-0.06,0.05C52.81,114.62,52.9,114.53,52.84,114.59z"/>
			<path d="M50.68,113.07c0.01,0.02,0.02,0.03,0.04,0.05l0,0C50.7,113.1,50.68,113.07,50.68,113.07
				C50.67,113.06,50.68,113.07,50.68,113.07z"/>
		</g>
		<path d="M50.67,118.79c0.24-0.46,0.39-0.96,0.48-1.46c0.06-0.32-0.25-0.53-0.54-0.46c-0.26,0.07-0.5,0.18-0.75,0.28
			c0.04-0.08,0.1-0.15,0.14-0.24c0.11-0.23-0.04-0.57-0.31-0.6c-0.27-0.02-0.54,0-0.81,0.04c0.08-0.12,0.14-0.26,0.12-0.41
			c-0.04-0.26-0.26-0.49-0.54-0.45c-0.22,0.03-0.36,0.13-0.47,0.31c-0.06,0.1-0.12,0.19-0.18,0.29c-0.13,0.2-0.25,0.4-0.38,0.59
			c-0.12,0.19-0.25,0.38-0.37,0.57c-0.13,0.21-0.29,0.44-0.25,0.7c0.01,0.1,0.1,0.2,0.21,0.18c0.25-0.03,0.43-0.2,0.59-0.38
			l0.47-0.52c0.04,0,0.07,0,0.11,0c0.07-0.01,0.13-0.03,0.19-0.04c0.14-0.03,0.25-0.05,0.4-0.07c0.02,0,0.03,0,0.04,0
			c-0.26,0.36-0.54,0.7-0.85,1.01c-0.18,0.18-0.14,0.54,0.06,0.7c0.23,0.18,0.49,0.13,0.7-0.06c0.03-0.02,0.05-0.05,0.07-0.07
			c0.04-0.04,0.04-0.05,0.02-0.03c-0.02,0.01-0.01,0.01,0.03-0.02c0.02-0.02,0.04-0.03,0.06-0.04c0.09-0.06,0.18-0.13,0.27-0.19
			c0.18-0.11,0.36-0.22,0.55-0.32c0.12-0.06,0.25-0.12,0.39-0.18c-0.07,0.16-0.14,0.32-0.23,0.47c-0.08,0.14-0.21,0.32-0.35,0.49
			c-0.07,0.09-0.16,0.17-0.23,0.26c-0.08,0.1-0.14,0.23-0.19,0.36c-0.11,0.29,0.14,0.59,0.45,0.49c0.29-0.09,0.48-0.28,0.66-0.52
			C50.4,119.26,50.54,119.03,50.67,118.79z"/>
		<path d="M52.08,119.37c0.18-0.29,0.39-0.56,0.59-0.84c0.21-0.29,0.39-0.6,0.58-0.89c0.12-0.17-0.06-0.41-0.26-0.28
			c-1.23,0.82-2.25,2.09-2.83,3.45c-0.24,0.56,0.55,0.91,0.85,0.39C51.37,120.59,51.7,119.97,52.08,119.37z"/>
	</g>
</g>
</svg>
