<?xml version="1.0" encoding="utf-8"?>
<!-- Generator: Adobe Illustrator 28.0.0, SVG Export Plug-In . SVG Version: 6.00 Build 0)  -->
<svg version="1.1" id="Layer_1" xmlns="http://www.w3.org/2000/svg" xmlns:xlink="http://www.w3.org/1999/xlink" x="0px" y="0px"
	 viewBox="0 0 800 800" style="enable-background:new 0 0 800 800;" xml:space="preserve">
<style type="text/css">
	.st0{fill:url(#SVGID_1_);}
	.st1{fill:#CFAF93;}
	.st2{fill:#FFFFFF;}
	.st3{fill:#006C8C;}
	.st4{fill:url(#SVGID_00000118387147917375683740000015320920018047822527_);}
	.st5{fill:url(#SVGID_00000133525085653417484150000013962956266563631011_);}
	.st6{fill:url(#SVGID_00000058583971700343419230000016523352042895714224_);}
	.st7{fill:url(#SVGID_00000005246055270305703200000001087061606965283741_);}
	.st8{fill:url(#SVGID_00000000944089601529500610000003743622034260063892_);}
	.st9{fill:url(#SVGID_00000102533144258973495150000000510503320237796013_);}
	.st10{fill:url(#SVGID_00000125591446725796476440000016189824227985633470_);}
	.st11{fill:url(#SVGID_00000054251674396597293930000004429219813566036357_);}
	.st12{fill:url(#SVGID_00000040542156204482648900000006209372860092715663_);}
	.st13{fill:url(#SVGID_00000146497348896093895510000010284056085113430920_);}
	.st14{fill:url(#SVGID_00000053540539402295582750000006907149342521492359_);}
	.st15{fill:url(#SVGID_00000152246566509514721000000011496646856971977404_);}
	.st16{fill:url(#SVGID_00000101100395530804621020000001695585696255351707_);}
	.st17{fill:url(#SVGID_00000133490605278744854700000015348311853074023561_);}
	.st18{fill:url(#SVGID_00000146500671152170900900000002285295367934451875_);}
	.st19{fill:url(#SVGID_00000080185689388849658130000007352978057309093042_);}
	.st20{fill:url(#SVGID_00000148626680984959671540000000107596391661320580_);}
	.st21{fill:url(#SVGID_00000129911908844565210090000001221198597005050032_);}
	.st22{fill:url(#SVGID_00000017500804457983945880000012153868780980819111_);}
	.st23{fill:url(#SVGID_00000166663322831444116440000002845426586383716286_);}
	.st24{fill:url(#SVGID_00000055706872697482043460000000221025046637241234_);}
	.st25{fill:url(#SVGID_00000074416524810639236580000001049503263846228394_);}
	.st26{fill:url(#SVGID_00000098219585331543386290000006581670521727645615_);}
	.st27{fill:url(#SVGID_00000036940718033848389760000010093040186930567306_);}
	.st28{fill:url(#SVGID_00000171000627909502474250000009010791753692046248_);}
	.st29{fill:url(#SVGID_00000031181475893071579800000011639433231138821298_);}
	.st30{fill:url(#SVGID_00000172406446604153706030000013405576761462822077_);}
	.st31{fill:url(#SVGID_00000067219794116727816900000010213115530382927762_);}
	.st32{fill:url(#SVGID_00000163781565892502835300000007355837127754329769_);}
	.st33{fill:url(#SVGID_00000133518086330991535430000007039834872961579426_);}
	.st34{fill:url(#SVGID_00000119079504192124123740000014478051477548245178_);}
	.st35{fill:url(#SVGID_00000094600763890506689920000009258840755284253832_);}
	.st36{fill:url(#SVGID_00000085968221751162980720000008023760494366431360_);}
	.st37{fill:url(#SVGID_00000121979113120293193900000004184627833077118121_);}
	.st38{fill:url(#SVGID_00000119102824133357035720000005527200890150088348_);}
	.st39{fill:url(#SVGID_00000123416661327725177910000014771030068545683355_);}
	.st40{fill:url(#SVGID_00000013190553986406085210000011900606856293239730_);}
	.st41{fill:url(#SVGID_00000032616770669811527780000006664887917665050755_);}
</style>
<g id="_x2B_5-FACE__x5B_STONKS_x5D__x2B_">
	
		<linearGradient id="SVGID_1_" gradientUnits="userSpaceOnUse" x1="426.1455" y1="661.3126" x2="431.4034" y2="643.6208" gradientTransform="matrix(1 0 0 -1 0 799.2756)">
		<stop  offset="0" style="stop-color:#CFAF93"/>
		<stop  offset="0.4657" style="stop-color:#D1B195;stop-opacity:0.5314"/>
		<stop  offset="0.6512" style="stop-color:#D6B89C;stop-opacity:0.3448"/>
		<stop  offset="0.7868" style="stop-color:#E0C4A8;stop-opacity:0.2084"/>
		<stop  offset="0.8973" style="stop-color:#EDD5B9;stop-opacity:0.0971"/>
		<stop  offset="0.9927" style="stop-color:#FFEBD0;stop-opacity:1.151562e-03"/>
		<stop  offset="0.9938" style="stop-color:#FFEBD0;stop-opacity:0"/>
	</linearGradient>
	<path class="st0" d="M399.5,150.14c-1.02,1.05,0.79,2.76,1.45,3.5c2.35,2.69,4.26,5.3,7.74,6.66c0.8,0.31,1.87,0.76,2.73,0.77
		c1.09,0.01,2.43-0.58,3.45-0.91c2.14-0.69,4.22-1.55,6.34-2.3c4.82-1.61,9.64-3.32,14.3-5.35c3.09-1.35,6.05-2.98,8.96-4.67
		c1.48-0.86,2.95-1.74,4.43-2.61c1.12-0.66,2.27-1.48,2.7-2.77c0.26-0.78,0.31-1.61,0.52-2.4c0.63-2.46,1.64-4.63,2.74-6.92
		c0.22-0.46,0.45-0.99,0.26-1.47c-0.34-0.84-1.55-0.75-2.42-0.49c-4.91,1.47-9.63,3.51-14.5,5.13c-2.9,0.96-5.9,1.78-8.96,1.82
		c-2.28,0.03-4.59-0.37-6.81,0.17c-2.49,0.6-4.54,2.31-6.61,3.82c-4.65,3.37-9.87,5.94-15.38,7.56
		C400.11,149.78,399.75,149.88,399.5,150.14z"/>
	<g>
		<path class="st1" d="M458.83,73.32c-3.08-6.99-6.2-14.05-10.82-20.12c-1.13-1.48-2.39-3.1-3.96-4.14
			c-1.27-0.85-2.38-1.94-3.73-2.7c-1.27-0.72-2.65-1.23-4.02-1.74c-1.59-0.58-3.18-1.17-4.77-1.75c-3.43-1.26-6.87-2.52-10.45-3.31
			c-10.66-2.33-21.21,0.24-30.74,5.15c-5.47,2.82-10.32,6.8-14.2,11.57c-3.42,4.2-6.61,8.47-7.96,13.78
			c-1.3,5.14-2.25,10.37-3.19,15.59c-0.71,3.9-1.42,7.85-1.17,11.81c0.18,2.76,0.81,5.46,1.45,8.15c1.03,4.31,2.06,8.61,3.1,12.91
			c0.52,2.16,1.19,4.34,1.58,6.53c0.32,1.8,1.36,3.19,2.25,4.79c0.9,1.62,1.75,3.26,2.6,4.9c1.43,2.75,2.87,5.52,3.6,8.53
			c0.37,1.52,0.58,3.13,1.44,4.43c0.84,1.28,2.23,2.11,3.69,2.57s3,0.59,4.52,0.71c2.38,0.19,4.8,0.38,7.12-0.18
			c0.48-0.12,0.98-0.27,1.47-0.18c1.23,0.21,2.49,1.39,3.64,1.91c1.5,0.69,3.01,1.03,4.67,0.96c2.1-0.09,4.14-0.71,6.15-1.33
			c9.7-2.97,19.4-5.94,29.1-8.91c3.29-1.01,6.62-2.03,9.57-3.82c1.23-0.74,2.39-1.63,3.26-2.77c0.86-1.13,1.4-2.46,1.93-3.78
			c3.24-8.07,7.39-16.49,7.92-25.31c0.24-4-0.18-8.01-0.67-11.98c-0.65-5.29-1.39-10.57-2.23-15.83c-1.08-6.78-5.31-13.74-9.7-18.9
			c-2.23-2.62-4.75-4.97-7.56-6.97c-2.19-1.56-4.08-3.89-6.48-5.4c-1.46-0.91-3.03-1.64-4.67-2.16c-1.42-0.45-2.41-0.94-3.7-1.61
			c-3.02-1.55-6.29-2.74-9.59-3.55c-2.03-0.5-4.1-0.82-6.19-0.98c-4.41-0.34-8.75,0.07-12.9,1.13"/>
		<path class="st2" d="M395.97,84.74c-0.88-0.07-1.75,0.05-2.56,0.4c-0.2,0.09-0.4,0.2-0.58,0.33c-0.43,0.32-0.95,0.78-0.95,1.37
			c0,0.37,0.2,0.67,0.49,0.88c0.21,0.14,0.47,0.22,0.71,0.28c0.26,0.07,0.52,0.13,0.78,0.17c1.55,0.24,3.03,0.4,4.58,0.01
			c0.43-0.11,0.85-0.24,1.24-0.46c0.23-0.13,0.47-0.3,0.55-0.56c0.08-0.28-0.05-0.58-0.23-0.8c-0.42-0.54-1.08-0.84-1.72-1.08
			C397.54,85.01,396.77,84.8,395.97,84.74z"/>
		<path class="st2" d="M400.07,86.15c-0.52-0.35-1.06-0.66-1.64-0.88c-0.3-0.12-0.62-0.19-0.94-0.23s-0.63-0.02-0.91,0.16
			c-0.15,0.1-0.16,0.32,0,0.41c0.27,0.16,0.55,0.21,0.85,0.3c0.19,0.06,0.35,0.13,0.52,0.2l0,0c-0.09,0.14-0.12,0.31-0.11,0.47
			c-0.02,0.02-0.04,0.04-0.06,0.06c-0.04,0.03-0.08,0.07-0.12,0.1c-0.02,0.02-0.04,0.03-0.06,0.04c-0.1,0.07-0.2,0.12-0.3,0.18
			c-0.22,0.14-0.36,0.42-0.27,0.67c0.08,0.24,0.31,0.45,0.58,0.44c0.66-0.02,1.29-0.12,1.9-0.38c0.26-0.11,0.56-0.26,0.77-0.45
			c0.18-0.16,0.26-0.41,0.2-0.64C400.41,86.39,400.24,86.26,400.07,86.15z"/>
		<g>
			<path class="st2" d="M370.87,86.58c0,0,0,0-0.01,0C370.82,86.57,370.84,86.57,370.87,86.58z"/>
			<path class="st2" d="M373.11,87.77c-0.06-0.05-0.12-0.1-0.18-0.15c-0.42-0.29-0.82-0.6-1.29-0.81c-0.5-0.23-1.06-0.36-1.6-0.27
				c-0.52,0.09-0.99,0.39-1.33,0.79c-0.32,0.38-0.73,0.93-0.48,1.45c0.09,0.18,0.25,0.31,0.4,0.43c0.57,0.43,1.41,0.56,2.11,0.58
				c0.53,0.01,1.06-0.06,1.57-0.22c0.43-0.14,0.91-0.36,1.06-0.83C373.49,88.37,373.36,88.02,373.11,87.77z"/>
		</g>
		<path class="st3" d="M399.24,86.37c-0.01-0.14-0.02-0.29-0.07-0.42c-0.16-0.52-0.39-0.4-0.77-0.57c-0.18-0.08-0.28-0.25-0.48-0.33
			c-0.22-0.08-0.47-0.07-0.7-0.09c-0.26-0.02-0.52-0.06-0.78-0.1c-0.27-0.04-0.56-0.12-0.83-0.1c-0.03,0-0.07,0.01-0.1,0.01
			c-0.06-0.14-0.18-0.24-0.37-0.24c-0.39-0.01-0.67,0.4-0.84,0.7c-0.18,0.32-0.25,0.7-0.25,1.07c0.01,0.43,0.14,0.86,0.36,1.23
			c0.19,0.31,0.46,0.71,0.82,0.84c0.22,0.08,0.45,0.09,0.68,0.09c0.85,0.02,2.59,0.13,3.09-0.74c0.16-0.29,0.2-0.62,0.22-0.95
			C399.23,86.64,399.24,86.5,399.24,86.37z"/>
		<path class="st3" d="M370.32,86.45c0.03-0.01,0.02-0.01-0.04,0.01c0.01,0,0.01,0,0.02,0C370.31,86.46,370.32,86.45,370.32,86.45z"
			/>
		<path class="st3" d="M372.92,87.98c0-0.05,0-0.09-0.01-0.14c-0.07-0.55-0.5-0.85-0.96-1.07c-0.23-0.12-0.46-0.27-0.69-0.38
			c-0.32-0.14-0.72-0.04-1.04,0.03c-0.13,0.03-0.26,0.06-0.37,0.13c-0.18,0.12-0.26,0.33-0.33,0.53c-0.1,0.31-0.18,0.63-0.17,0.95
			c0.01,0.76,0.52,1.72,1.36,1.75c0.66,0.02,1.6,0.02,1.96-0.65c0.14-0.26,0.18-0.55,0.22-0.84
			C372.91,88.2,372.92,88.09,372.92,87.98z"/>
	</g>
	<g>
		
			<linearGradient id="SVGID_00000105390076905515572580000001487275146200371862_" gradientUnits="userSpaceOnUse" x1="403.6037" y1="659.4451" x2="415.415" y2="644.1545" gradientTransform="matrix(1 0 0 -1 0 799.2756)">
			<stop  offset="0" style="stop-color:#000000"/>
			<stop  offset="1" style="stop-color:#CFAF93;stop-opacity:0"/>
		</linearGradient>
		<path style="fill:url(#SVGID_00000105390076905515572580000001487275146200371862_);" d="M408.72,146.7
			c3.33-1.5,6.51-3.41,9.11-5.98c0.12,2.19-0.87,4.28-1.84,6.24c-1.7,3.43-3.53,6.95-6.54,9.31c-0.78,0.61-1.94,1.44-3,1.37
			c-0.44-0.03-0.85-0.19-1.26-0.36c-1-0.41-2-0.86-2.79-1.6c-1.12-1.04-1.68-2.55-2.68-3.71c-0.51-0.6-1.05-1.43-0.2-2.04
			c0.6-0.43,1.8-0.48,2.5-0.71C404.29,148.48,406.54,147.68,408.72,146.7z"/>
		
			<linearGradient id="SVGID_00000045617199757342067640000016963024003011557808_" gradientUnits="userSpaceOnUse" x1="305.0672" y1="727.6754" x2="422.6399" y2="697.9833" gradientTransform="matrix(1 0 0 -1 0 799.2756)">
			<stop  offset="0" style="stop-color:#000000"/>
			<stop  offset="0.1173" style="stop-color:#050404;stop-opacity:0.8827"/>
			<stop  offset="0.2567" style="stop-color:#13100E;stop-opacity:0.7433"/>
			<stop  offset="0.4072" style="stop-color:#2B251F;stop-opacity:0.5928"/>
			<stop  offset="0.5658" style="stop-color:#4D4137;stop-opacity:0.4342"/>
			<stop  offset="0.7307" style="stop-color:#786555;stop-opacity:0.2693"/>
			<stop  offset="0.8982" style="stop-color:#AC917A;stop-opacity:0.1018"/>
			<stop  offset="1" style="stop-color:#CFAF93;stop-opacity:0"/>
		</linearGradient>
		<path style="fill:url(#SVGID_00000045617199757342067640000016963024003011557808_);" d="M419.12,76.91
			c0.1,3.51-0.37,6.96-2.1,9.97c-1.38,2.41-3.5,4.35-4.71,6.85c-1.01,2.08-1.33,4.42-1.64,6.71c-0.6,4.43-1.19,8.86-1.79,13.3
			c-0.33,2.42-0.25,4.72-1.15,7.03c-2.98,7.71-6.66,15.15-10.98,22.19c-1.76,2.87-8.03,8.04-11.65,5.25
			c0.24,1.83,2.59,2.39,4.13,2.52c10.4,0.89,19.27-3.22,27.46-9.21c2.27-1.66,4.53-3.31,6.8-4.97c1.69-1.24,3.4-2.49,4.76-4.08
			c1.69-1.99,2.77-4.41,3.82-6.8c3.23-7.34,6.48-14.73,8.21-22.56c0.83-3.76,1.31-7.59,1.77-11.41c0.63-5.15,1.21-10.59-0.83-15.37
			c-1.21-2.85-3.27-5.25-4.97-7.84c-2.24-3.42-3.88-7.23-4.82-11.2c-0.56-2.37-0.39-4.72-1.68-6.86c-1.3-2.16-3.3-3.85-5.41-5.18
			c-4.34-2.76-9.41-4.34-14.54-4.62c-2.36-0.13-4.71,0.09-7.05,0.32c-1.69,0.14-3.32,0.57-4.99,0.78c-0.71,0.09-1.29,0.13-1.98,0.42
			c-0.17,0.07-1.94,1.09-1.89,1.14c0.38,0.34,0.96,0.28,1.46,0.21c8.17-1.05,15.42,4.11,18.96,11.23
			c2.35,4.73,3.29,10.02,4.07,15.24C418.75,72.23,419.06,74.58,419.12,76.91z"/>
		
			<linearGradient id="SVGID_00000010998585603016554780000001872566649459110039_" gradientUnits="userSpaceOnUse" x1="379.532" y1="641.6342" x2="385.5744" y2="654.465" gradientTransform="matrix(1 0 0 -1 0 799.2756)">
			<stop  offset="0" style="stop-color:#000000"/>
			<stop  offset="1" style="stop-color:#CFAF93;stop-opacity:0"/>
		</linearGradient>
		<path style="fill:url(#SVGID_00000010998585603016554780000001872566649459110039_);" d="M383.89,147.43
			c-0.26,0.36-0.45,0.74-1.07,0.66c-0.4-0.05-0.75-0.29-1.09-0.53c-0.5-0.35-1-0.71-1.36-1.2c-0.53-0.72-0.78-1.75-1.61-2.08
			c-0.06,1.22,0.43,2.43,1.21,3.37c0.82,0.99,1.87,1.67,3.07,2.04c0.53,0.18,1.03,0.45,1.54,0.68c0.83,0.38,1.47,0.57,2.37,0.7
			c0.74,0.11,1.49,0.21,2.23,0.1c0.27-0.04,0.58-0.15,0.65-0.41c0.08-0.28-0.15-0.54-0.39-0.71c-1.04-0.72-2.44-0.64-3.58-1.18
			c-0.75-0.35-1.37-0.98-1.72-1.74C384.05,147.22,383.97,147.32,383.89,147.43z"/>
		
			<linearGradient id="SVGID_00000176762016746058537950000017627102208722960006_" gradientUnits="userSpaceOnUse" x1="385.8685" y1="661.401" x2="383.5143" y2="674.0548" gradientTransform="matrix(1 0 0 -1 0 799.2756)">
			<stop  offset="0" style="stop-color:#000000"/>
			<stop  offset="1" style="stop-color:#CFAF93;stop-opacity:0"/>
		</linearGradient>
		<path style="fill:url(#SVGID_00000176762016746058537950000017627102208722960006_);" d="M383.97,127
			c1.28-0.14,2.51-0.55,3.73-0.97c-0.68,0.85-1.48,1.6-2.36,2.23c-0.42,0.3-0.87,0.57-1.37,0.7c-0.92,0.24-1.92-0.05-2.72-0.57
			c-0.5-0.32-2.14-1.46-1.13-1.87c0.29-0.11,1.42,0.39,1.78,0.44C382.59,127.06,383.29,127.07,383.97,127z"/>
		
			<linearGradient id="SVGID_00000057117410493071097450000008816253622753841794_" gradientUnits="userSpaceOnUse" x1="374.2737" y1="695.6573" x2="385.7852" y2="678.7141" gradientTransform="matrix(1 0 0 -1 0 799.2756)">
			<stop  offset="0" style="stop-color:#000000"/>
			<stop  offset="1" style="stop-color:#CFAF93;stop-opacity:0"/>
		</linearGradient>
		<path style="fill:url(#SVGID_00000057117410493071097450000008816253622753841794_);" d="M379.09,115.67
			c0.84,0.81,1.51,1.79,2.3,2.65c0.79,0.86,1.77,1.63,2.92,1.84c1.15,0.21,2.49-0.31,2.93-1.39c0.22-0.55,0.19-1.16,0.15-1.75
			c-0.12-1.56-0.52-3.35-1.93-4.02c-0.71-0.34-1.54-0.31-2.33-0.28c-1.36,0.06-2.73,0.13-4.09,0.19c-0.77,0.04-2.98-0.23-3.4,0.43
			C376.81,114.1,378.09,114.66,379.09,115.67z"/>
		
			<linearGradient id="SVGID_00000078042434359443133530000000842232648706325409_" gradientUnits="userSpaceOnUse" x1="373.471" y1="700.3516" x2="382.9153" y2="686.5406" gradientTransform="matrix(1 0 0 -1 0 799.2756)">
			<stop  offset="0" style="stop-color:#000000"/>
			<stop  offset="1" style="stop-color:#CFAF93;stop-opacity:0"/>
		</linearGradient>
		<path style="fill:url(#SVGID_00000078042434359443133530000000842232648706325409_);" d="M381.85,108.49
			c0.35-0.21,0.73-0.44,1.14-0.4c0.38,0.04,0.7,0.29,0.97,0.56c0.28,0.27,0.54,0.57,0.78,0.89c-1.24,0.03-2.2,1.04-3.28,1.63
			c-0.61,0.34-3.4,1.39-3.51-0.03C377.88,110.4,381.2,108.88,381.85,108.49z"/>
		
			<linearGradient id="SVGID_00000124862861729486394170000006417377407121282972_" gradientUnits="userSpaceOnUse" x1="379.9189" y1="680.6457" x2="368.8498" y2="674.9588" gradientTransform="matrix(1 0 0 -1 0 799.2756)">
			<stop  offset="0" style="stop-color:#000000"/>
			<stop  offset="0.1153" style="stop-color:#211C18;stop-opacity:0.8847"/>
			<stop  offset="0.3481" style="stop-color:#5E5043;stop-opacity:0.6519"/>
			<stop  offset="0.5614" style="stop-color:#8F7966;stop-opacity:0.4386"/>
			<stop  offset="0.7478" style="stop-color:#B2967E;stop-opacity:0.2522"/>
			<stop  offset="0.9004" style="stop-color:#C7A88D;stop-opacity:0.0996"/>
			<stop  offset="1" style="stop-color:#CFAF93;stop-opacity:0"/>
		</linearGradient>
		<path style="fill:url(#SVGID_00000124862861729486394170000006417377407121282972_);" d="M367.26,107.18
			c0.66,1.16,1.4,2.29,1.82,3.56c0.37,1.11,0.47,2.29,0.59,3.45c0.68,6.59,2.09,13.49,6.54,18.39c0.52,0.58,1.09,1.13,1.5,1.8
			c0.46,0.76,0.7,1.63,0.9,2.49c0.46,1.98,0.73,4.24-0.45,5.9c-0.11-1.76-0.59-3.47-1.1-5.15c-0.29-0.95-0.61-1.91-1.12-2.77
			c-0.75-1.27-1.89-2.26-2.79-3.43c-1.93-2.51-2.7-5.69-3.41-8.78c-0.98-4.23-1.96-8.46-2.93-12.7c-0.53-2.28-1.33-4.67-1.58-7
			C365.89,104.36,366.49,105.8,367.26,107.18z"/>
		
			<linearGradient id="SVGID_00000059995361817693767950000005955914599817159568_" gradientUnits="userSpaceOnUse" x1="371.6085" y1="723.9902" x2="370.5477" y2="712.0558" gradientTransform="matrix(1 0 0 -1 0 799.2756)">
			<stop  offset="0" style="stop-color:#000000"/>
			<stop  offset="1" style="stop-color:#CFAF93;stop-opacity:0"/>
		</linearGradient>
		<path style="fill:url(#SVGID_00000059995361817693767950000005955914599817159568_);" d="M367.41,80.89
			c-1.65,1.62-2.47,3.58-2.1,5.88c0.05,0.29,0.15,0.62,0.43,0.72c0.4,0.14,0.74-0.3,1.03-0.62c0.48-0.52,1.16-0.8,1.82-1.02
			c0.86-0.29,1.76-0.53,2.67-0.47s1.83,0.45,2.35,1.2c0.52,0.75,0.53,1.87-0.12,2.51c-0.2,0.2-0.48,0.39-0.5,0.67
			c-0.03,0.41,0.53,0.63,0.9,0.47c0.37-0.16,0.6-0.53,0.84-0.86c0.48-0.65,1.13-1.23,1.28-2.02c0.09-0.45,0.01-0.91-0.09-1.35
			c-0.18-0.79-0.42-1.58-0.74-2.33c-0.25-0.59-0.72-0.95-1.14-1.43c-0.69-0.78-1.53-1.44-2.46-1.91c-0.42-0.21-0.87-0.39-1.33-0.46
			C369.23,79.73,368.16,80.16,367.41,80.89z"/>
		
			<linearGradient id="SVGID_00000009584327976607555810000018164918173044886161_" gradientUnits="userSpaceOnUse" x1="384.6919" y1="701.6232" x2="371.1374" y2="710.8403" gradientTransform="matrix(1 0 0 -1 0 799.2756)">
			<stop  offset="0" style="stop-color:#000000"/>
			<stop  offset="0.3121" style="stop-color:#4A3E34;stop-opacity:0.6879"/>
			<stop  offset="0.6422" style="stop-color:#917B67;stop-opacity:0.3578"/>
			<stop  offset="0.8802" style="stop-color:#BEA087;stop-opacity:0.1198"/>
			<stop  offset="1" style="stop-color:#CFAF93;stop-opacity:0"/>
		</linearGradient>
		<path style="fill:url(#SVGID_00000009584327976607555810000018164918173044886161_);" d="M372.31,91.41
			c0.38-0.14,0.72-0.35,1.05-0.59c1.29-0.97,2.1-2.31,2.81-3.73c-0.17,0.38-0.21,0.81-0.29,1.22c-0.23,1.13-1.18,2.24-2,3.01
			c-1.1,1.03-2.28,1.61-3.76,1.02c-0.64-0.26-1.21-0.65-1.78-1.04C369.51,91.73,371.12,91.87,372.31,91.41z"/>
		
			<linearGradient id="SVGID_00000050625199062533835310000015793201720294387860_" gradientUnits="userSpaceOnUse" x1="393.1372" y1="700.8311" x2="380.7684" y2="701.6342" gradientTransform="matrix(1 0 0 -1 0 799.2756)">
			<stop  offset="0" style="stop-color:#000000"/>
			<stop  offset="1" style="stop-color:#CFAF93;stop-opacity:0"/>
		</linearGradient>
		<path style="fill:url(#SVGID_00000050625199062533835310000015793201720294387860_);" d="M383.53,100.39
			c0.05,0.38,0.11,0.77,0.15,1.15c0.06,0.52,0.13,1.05,0.14,1.58c0.04,1.34-0.25,2.67-0.53,3.98c0.07-0.32-0.55-1.37-0.66-1.77
			c-0.24-0.87-0.22-1.85-0.23-2.75c-0.05-2.75,0.18-5.52,0.1-8.25c-0.06-1.98-0.33-3.95-0.6-5.91c0.3,0.24,0.42,0.64,0.49,1.02
			c0.38,1.9,0.33,3.85,0.47,5.78C382.97,96.94,383.28,98.67,383.53,100.39z"/>
		
			<linearGradient id="SVGID_00000041977574878151804460000002069942901955522230_" gradientUnits="userSpaceOnUse" x1="389.4356" y1="735.4997" x2="394.7041" y2="713.5572" gradientTransform="matrix(1 0 0 -1 0 799.2756)">
			<stop  offset="0" style="stop-color:#000000"/>
			<stop  offset="0.1423" style="stop-color:#040303;stop-opacity:0.8577"/>
			<stop  offset="0.2818" style="stop-color:#100D0B;stop-opacity:0.7182"/>
			<stop  offset="0.4202" style="stop-color:#231E19;stop-opacity:0.5798"/>
			<stop  offset="0.558" style="stop-color:#3F352D;stop-opacity:0.442"/>
			<stop  offset="0.6954" style="stop-color:#635446;stop-opacity:0.3046"/>
			<stop  offset="0.8324" style="stop-color:#8E7865;stop-opacity:0.1676"/>
			<stop  offset="0.9668" style="stop-color:#C1A389;stop-opacity:0.0332"/>
			<stop  offset="1" style="stop-color:#CFAF93;stop-opacity:0"/>
		</linearGradient>
		<path style="fill:url(#SVGID_00000041977574878151804460000002069942901955522230_);" d="M387.72,80.59
			c-0.57,0.5-0.85,1.2-1.4,1.73c-0.74,0.71-1.26,1.44-1.09,2.5c0.15,0.99,0.69,1.89,1.39,2.59c0.95,0.94,2.17,1.55,3.39,2.09
			c0.23-0.34,0.1-0.79,0.08-1.19c-0.04-0.58,0.17-1.17,0.56-1.61c0.07-0.07,0.14-0.14,0.17-0.24c0.07-0.19-0.04-0.39-0.11-0.58
			c-0.33-0.9,0.23-1.93,1.05-2.43c1.47-0.89,3.66-0.68,5.26-0.37c1.89,0.38,3.69,1.11,5.47,1.84c0.61,0.25,1.26,0.54,1.56,1.13
			c-0.32-1.7-1.37-2.6-2.84-3.44c-0.88-0.5-1.78-0.98-2.69-1.42c-2.29-1.12-4.78-2.06-7.32-1.85c-1.12,0.09-2.24,0.44-3.2,1.04
			C387.91,80.44,387.81,80.51,387.72,80.59z"/>
		
			<linearGradient id="SVGID_00000049186812492447393580000018070412542264038332_" gradientUnits="userSpaceOnUse" x1="401.2761" y1="700.2678" x2="398.1061" y2="711.1071" gradientTransform="matrix(1 0 0 -1 0 799.2756)">
			<stop  offset="0" style="stop-color:#000000"/>
			<stop  offset="0.1003" style="stop-color:#070605;stop-opacity:0.8997"/>
			<stop  offset="0.2504" style="stop-color:#1C1714;stop-opacity:0.7496"/>
			<stop  offset="0.4317" style="stop-color:#3D342B;stop-opacity:0.5683"/>
			<stop  offset="0.6374" style="stop-color:#6C5B4D;stop-opacity:0.3626"/>
			<stop  offset="0.8605" style="stop-color:#A68D76;stop-opacity:0.1395"/>
			<stop  offset="1" style="stop-color:#CFAF93;stop-opacity:0"/>
		</linearGradient>
		<path style="fill:url(#SVGID_00000049186812492447393580000018070412542264038332_);" d="M404.52,86.29
			c-0.46,0.84-1.07,1.59-1.7,2.31c-0.66,0.75-1.36,1.48-2.24,1.95c-0.48,0.26-0.99,0.43-1.52,0.56c-2.22,0.56-5.39,0.49-7.32-0.9
			c0.42-0.48,2.46,0.18,3.17,0.21c1.2,0.04,2.4-0.11,3.56-0.41C400.81,89.39,402.96,88.12,404.52,86.29z"/>
		
			<linearGradient id="SVGID_00000157304340034272009730000002097086941699114168_" gradientUnits="userSpaceOnUse" x1="397.6291" y1="722.7817" x2="396.278" y2="708.4601" gradientTransform="matrix(1 0 0 -1 0 799.2756)">
			<stop  offset="0" style="stop-color:#000000"/>
			<stop  offset="1" style="stop-color:#CFAF93;stop-opacity:0"/>
		</linearGradient>
		<path style="fill:url(#SVGID_00000157304340034272009730000002097086941699114168_);" d="M394.24,84.44
			c1.01-0.27,2.08-0.04,3.09,0.23c0.85,0.22,1.7,0.48,2.44,0.95c0.83,0.53,1.5,1.35,2.44,1.64c0.11-0.03,0.06-0.2-0.01-0.29
			c-1.23-1.52-2.75-2.87-4.6-3.52c-1.79-0.63-3.95-0.52-5.49,0.68c-0.43,0.34-1.64,1.44-0.49,1.73
			C392.23,86.01,393.53,84.63,394.24,84.44z"/>
		
			<linearGradient id="SVGID_00000082325898306126315980000018049975430018002053_" gradientUnits="userSpaceOnUse" x1="370.0888" y1="718.3951" x2="370.9012" y2="709.2784" gradientTransform="matrix(1 0 0 -1 0 799.2756)">
			<stop  offset="0" style="stop-color:#000000"/>
			<stop  offset="1" style="stop-color:#CFAF93;stop-opacity:0"/>
		</linearGradient>
		<path style="fill:url(#SVGID_00000082325898306126315980000018049975430018002053_);" d="M369.64,86.61
			c0.68-0.31,1.48-0.33,2.17-0.06c0.53,0.21,0.98,0.57,1.4,0.95c0.12,0.11,0.3,0.23,0.44,0.15c0.17-0.09,0.12-0.35,0.03-0.53
			c-0.59-1.15-1.92-1.87-3.21-1.75c-1.2,0.11-2.45,1.01-2.79,2.2c-0.17,0.6,0.09,1.04,0.54,0.45
			C368.66,87.45,368.95,86.93,369.64,86.61z"/>
		
			<linearGradient id="SVGID_00000141456689753192001080000004412702841742207616_" gradientUnits="userSpaceOnUse" x1="383.7933" y1="705.6005" x2="375.0475" y2="705.0174" gradientTransform="matrix(1 0 0 -1 0 799.2756)">
			<stop  offset="0" style="stop-color:#000000"/>
			<stop  offset="1" style="stop-color:#CFAF93;stop-opacity:0"/>
		</linearGradient>
		<path style="fill:url(#SVGID_00000141456689753192001080000004412702841742207616_);" d="M377.65,87.09
			c0.73,2.33-0.45,5.14-0.95,7.43c-0.59,2.74-1.18,5.48-1.77,8.22c-0.14,0.67-0.29,1.34-0.43,2c-0.53-1.75,0.28-3.5,0.56-5.23
			c0.31-1.93,0.49-3.88,0.55-5.83c0.04-1.53,0.01-3.11,0.57-4.54c0.19-0.49,0.45-0.97,0.43-1.5c-0.02-0.46-0.25-0.87-0.45-1.28
			c-0.23-0.46-1.05-2.21-0.62-2.58c0.28,0.3,0.52,0.66,0.77,0.99c0.47,0.62,0.94,1.25,1.23,1.97
			C377.58,86.87,377.62,86.98,377.65,87.09z"/>
		
			<linearGradient id="SVGID_00000062171674412693820580000004143988567385969079_" gradientUnits="userSpaceOnUse" x1="374.2483" y1="706.1798" x2="387.887" y2="712.1037" gradientTransform="matrix(1 0 0 -1 0 799.2756)">
			<stop  offset="0" style="stop-color:#000000"/>
			<stop  offset="0.1423" style="stop-color:#040303;stop-opacity:0.8577"/>
			<stop  offset="0.2818" style="stop-color:#100D0B;stop-opacity:0.7182"/>
			<stop  offset="0.4202" style="stop-color:#231E19;stop-opacity:0.5798"/>
			<stop  offset="0.558" style="stop-color:#3F352D;stop-opacity:0.442"/>
			<stop  offset="0.6954" style="stop-color:#635446;stop-opacity:0.3046"/>
			<stop  offset="0.8324" style="stop-color:#8E7865;stop-opacity:0.1676"/>
			<stop  offset="0.9668" style="stop-color:#C1A389;stop-opacity:0.0332"/>
			<stop  offset="1" style="stop-color:#CFAF93;stop-opacity:0"/>
		</linearGradient>
		<path style="fill:url(#SVGID_00000062171674412693820580000004143988567385969079_);" d="M387.58,87.76
			c-0.12-0.09-0.24-0.2-0.29-0.33c-0.07-0.18-0.01-0.38,0.06-0.56c0.62-1.51,2.37-2.31,3.02-3.81c-0.85-0.12-1.69,0.2-2.51,0.47
			s-1.73,0.47-2.51,0.13c-0.07-0.03-0.14-0.07-0.22-0.06c-0.15,0.02-0.21,0.2-0.23,0.35c-0.27,1.68,0.64,3.38,1.96,4.45
			s2.99,1.61,4.64,1.98C390.05,90.05,388.67,88.65,387.58,87.76z"/>
		
			<linearGradient id="SVGID_00000078754002623507266120000004939606982105599414_" gradientUnits="userSpaceOnUse" x1="519.4375" y1="595.1666" x2="521.744" y2="602.9139" gradientTransform="matrix(1.1891 0.1437 0.12 -0.9928 -323.5437 613.3846)">
			<stop  offset="0" style="stop-color:#000000"/>
			<stop  offset="0.1435" style="stop-color:#171411;stop-opacity:0.8565"/>
			<stop  offset="0.4458" style="stop-color:#53473B;stop-opacity:0.5542"/>
			<stop  offset="0.8784" style="stop-color:#B3977F;stop-opacity:0.1216"/>
			<stop  offset="1" style="stop-color:#CFAF93;stop-opacity:0"/>
		</linearGradient>
		<path style="fill:url(#SVGID_00000078754002623507266120000004939606982105599414_);" d="M368.1,91.6
			c1.09,0.68,2.98,1.3,4.27,0.85c0.62-0.22,1.18-0.75,1.55-1.2c0.24-0.29,0.47-1.28,0.73-1.44c-0.86,0.51-1.83,0.97-2.9,1
			c-0.67,0.02-1.34-0.12-1.98-0.3c-0.61-0.17-1.22-0.37-1.74-0.71c-1.33-0.86-1.44-2.51-1.55-3.76c-0.03-0.36-0.07-0.74-0.3-1.05
			c-0.34,0.43-0.38,0.98-0.41,1.51c-0.04,0.68-0.07,1.36,0.07,2.04C366.09,89.74,366.92,90.86,368.1,91.6z"/>
		
			<linearGradient id="SVGID_00000064322339373818375190000000146096089964170659_" gradientUnits="userSpaceOnUse" x1="503.107" y1="683.0444" x2="424.8297" y2="661.0693" gradientTransform="matrix(1 0 0 -1 0 799.2756)">
			<stop  offset="0" style="stop-color:#000000"/>
			<stop  offset="0.1559" style="stop-color:#040303;stop-opacity:0.8441"/>
			<stop  offset="0.2963" style="stop-color:#0F0C0A;stop-opacity:0.7037"/>
			<stop  offset="0.431" style="stop-color:#211C17;stop-opacity:0.569"/>
			<stop  offset="0.562" style="stop-color:#3B322A;stop-opacity:0.438"/>
			<stop  offset="0.6904" style="stop-color:#5C4E41;stop-opacity:0.3096"/>
			<stop  offset="0.8169" style="stop-color:#85715F;stop-opacity:0.1831"/>
			<stop  offset="0.9395" style="stop-color:#B59980;stop-opacity:0.0605"/>
			<stop  offset="1" style="stop-color:#CFAF93;stop-opacity:0"/>
		</linearGradient>
		<path style="fill:url(#SVGID_00000064322339373818375190000000146096089964170659_);" d="M420.84,137.16
			c0.77-0.88,1.59-1.73,2.42-2.56c2.06-2.08,4.2-4.11,5.93-6.48c1.56-2.14,2.77-4.54,4.42-6.62c0.48-0.6,1.06-1.22,1.83-1.31
			c3.28-0.4,0.48,13.84-0.07,15.75c-0.59,2.04-1.38,4.01-2.07,6.01c-1.1,3.16-1.97,6.39-2.61,9.67c-0.53-0.15-0.77-0.76-0.89-1.3
			c-0.68-3-0.16-6.12,0.1-9.18s0.19-6.35-1.48-8.93c-1.04,0.23-1.63,1.3-2.2,2.21c-1.6,2.55-4.54,5.84-7.79,5.95
			c-0.06-0.78,1.43-2.03,1.93-2.63C420.51,137.54,420.67,137.35,420.84,137.16z"/>
		
			<linearGradient id="SVGID_00000157295125660347920640000008861422883415484842_" gradientUnits="userSpaceOnUse" x1="343.5729" y1="740.2723" x2="376.6707" y2="730.0397" gradientTransform="matrix(1 0 0 -1 0 799.2756)">
			<stop  offset="0" style="stop-color:#000000"/>
			<stop  offset="0.1559" style="stop-color:#040303;stop-opacity:0.8441"/>
			<stop  offset="0.2963" style="stop-color:#0F0C0A;stop-opacity:0.7037"/>
			<stop  offset="0.431" style="stop-color:#211C17;stop-opacity:0.569"/>
			<stop  offset="0.562" style="stop-color:#3B322A;stop-opacity:0.438"/>
			<stop  offset="0.6904" style="stop-color:#5C4E41;stop-opacity:0.3096"/>
			<stop  offset="0.8169" style="stop-color:#85715F;stop-opacity:0.1831"/>
			<stop  offset="0.9395" style="stop-color:#B59980;stop-opacity:0.0605"/>
			<stop  offset="1" style="stop-color:#CFAF93;stop-opacity:0"/>
		</linearGradient>
		<path style="fill:url(#SVGID_00000157295125660347920640000008861422883415484842_);" d="M370.12,72.46
			c1.43-2.29,3.28-4.29,4.8-6.52c1.98-2.91,3.38-6.21,4.1-9.65c0.12-0.56,0.08-1.34-0.48-1.47c-0.3-0.07-0.59,0.11-0.84,0.29
			c-3.78,2.69-6.41,6.76-8.11,11.08s-2.57,8.91-3.42,13.48c-0.11,0.58-0.04,1.41,0.54,1.47c1.54,0.15,1.31-2.68,1.4-3.44
			C368.34,75.83,369.13,74.05,370.12,72.46z"/>
		
			<linearGradient id="SVGID_00000021110655605400515320000002713614316189902217_" gradientUnits="userSpaceOnUse" x1="350.4258" y1="729.1394" x2="389.4155" y2="724.6496" gradientTransform="matrix(1 0 0 -1 0 799.2756)">
			<stop  offset="0" style="stop-color:#000000"/>
			<stop  offset="0.1045" style="stop-color:#0C0A09;stop-opacity:0.8955"/>
			<stop  offset="0.2953" style="stop-color:#2D2620;stop-opacity:0.7047"/>
			<stop  offset="0.551" style="stop-color:#625346;stop-opacity:0.449"/>
			<stop  offset="0.8584" style="stop-color:#AB917A;stop-opacity:0.1416"/>
			<stop  offset="1" style="stop-color:#CFAF93;stop-opacity:0"/>
		</linearGradient>
		<path style="fill:url(#SVGID_00000021110655605400515320000002713614316189902217_);" d="M388.91,67.23
			c-0.77,0.31-1.5,0.73-2.04,1.26c-1.13,1.11-2.01,2.72-2.6,4.17c-0.66,1.63-1.05,3.35-1.43,5.07c-0.25,1.15-0.5,2.32-0.39,3.49
			c0.03,0.31,0.09,0.63,0.29,0.87c0.74,0.85,1.24-0.36,1.39-0.92c0.62-2.32,2.13-2.99,3.7-3.76c0.88-0.44,1.79-0.91,2.56-1.73
			c0.56-0.59,0.86-1.38,1.14-2.15c0.38-1.06,0.8-2.09,1.12-3.17c0.22-0.76,1.13-3.33,0.17-3.74c-0.52-0.22-1.1-0.16-1.66-0.05
			C390.45,66.71,389.66,66.92,388.91,67.23z"/>
		
			<linearGradient id="SVGID_00000022538868603267708000000018237157685244792711_" gradientUnits="userSpaceOnUse" x1="433.2403" y1="735.8022" x2="402.1637" y2="722.4115" gradientTransform="matrix(1 0 0 -1 0 799.2756)">
			<stop  offset="0" style="stop-color:#000000"/>
			<stop  offset="0.1559" style="stop-color:#040303;stop-opacity:0.8441"/>
			<stop  offset="0.2963" style="stop-color:#0F0C0A;stop-opacity:0.7037"/>
			<stop  offset="0.431" style="stop-color:#211C17;stop-opacity:0.569"/>
			<stop  offset="0.562" style="stop-color:#3B322A;stop-opacity:0.438"/>
			<stop  offset="0.6904" style="stop-color:#5C4E41;stop-opacity:0.3096"/>
			<stop  offset="0.8169" style="stop-color:#85715F;stop-opacity:0.1831"/>
			<stop  offset="0.9395" style="stop-color:#B59980;stop-opacity:0.0605"/>
			<stop  offset="1" style="stop-color:#CFAF93;stop-opacity:0"/>
		</linearGradient>
		<path style="fill:url(#SVGID_00000022538868603267708000000018237157685244792711_);" d="M397.19,75.91
			c-0.07,0.33-0.13,0.68-0.04,1.01c0.1,0.35,0.35,0.62,0.6,0.88c1.74,1.8,3.49,3.61,5.23,5.41c0.54,0.56,1.23,1.16,1.98,0.99
			c0.38-0.09,0.69-0.36,0.93-0.68c1.33-1.73,0.68-4.21-0.07-6.26c-0.59-1.6-1.23-3.22-2.33-4.52c-0.85-1.01-3.38-3.55-4.87-2.91
			c-0.21,0.09-0.41,0.24-0.52,0.44c-0.12,0.2-0.15,0.43-0.18,0.65C397.7,72.5,397.19,74.33,397.19,75.91z"/>
		
			<linearGradient id="SVGID_00000072281934687742309110000004433307737518607775_" gradientUnits="userSpaceOnUse" x1="382.2703" y1="688.2154" x2="383.5236" y2="671.2482" gradientTransform="matrix(1 0 0 -1 0 799.2756)">
			<stop  offset="0" style="stop-color:#000000"/>
			<stop  offset="1" style="stop-color:#CFAF93;stop-opacity:0"/>
		</linearGradient>
		<path style="fill:url(#SVGID_00000072281934687742309110000004433307737518607775_);" d="M376.44,123.28
			c0.82,0.08,1.67,0.05,2.42,0.4c0.76,0.35,1.44,1.1,2.27,0.97c0.51-0.08,0.91-0.48,1.36-0.74c1.02-0.59,2.28-0.45,3.46-0.39
			c2.3,0.12,4.62-0.13,6.83-0.75c-0.67,1.34-2.39,1.68-3.88,1.86c-2.79,0.34-5.58,0.68-8.37,1.01c-0.48,0.06-0.98,0.11-1.43-0.06
			c-0.34-0.13-0.62-0.39-0.95-0.56c-0.59-0.31-1.28-0.33-1.93-0.5c-1.06-0.27-2.52-1.16-2.77-2.3
			C374.48,122.32,375.34,123.17,376.44,123.28z"/>
		
			<linearGradient id="SVGID_00000047773550820905447690000011822645976673374131_" gradientUnits="userSpaceOnUse" x1="484.3336" y1="683.5289" x2="444.3942" y2="691.9971" gradientTransform="matrix(1 0 0 -1 0 799.2756)">
			<stop  offset="0" style="stop-color:#000000"/>
			<stop  offset="0.3545" style="stop-color:#54473C;stop-opacity:0.6455"/>
			<stop  offset="0.6631" style="stop-color:#967F6B;stop-opacity:0.3369"/>
			<stop  offset="0.8856" style="stop-color:#BFA288;stop-opacity:0.1144"/>
			<stop  offset="1" style="stop-color:#CFAF93;stop-opacity:0"/>
		</linearGradient>
		<path style="fill:url(#SVGID_00000047773550820905447690000011822645976673374131_);" d="M462.35,93.24
			c-0.54-5.05-1.46-10.14-2.52-14.97c-0.56-2.53-1.52-4.95-2.67-7.26c-0.87-1.75-1.78-4.77-3.56-5.81
			c-0.76-0.45-1.86-0.39-2.43,0.29c-0.21,0.25-0.34,0.56-0.44,0.87c-1.62,4.78,0.28,10.45,1.47,15.11c0.73,2.85,1.46,5.7,2.19,8.55
			c0.55,2.16,1.11,4.34,1.17,6.56c0.1,3.37-0.92,6.67-2.18,9.79c-0.75,1.86-1.6,3.7-2.75,5.35c-1.46,2.09-3.36,3.82-5.35,5.42
			c-1.99,1.6-4.09,3.08-6.26,4.43c-1.08,0.67-2.2,1.32-3.1,2.22c-2.15,2.13-1.57,5.35-2.01,8.11c-0.5,3.15-1.35,6.22-2.04,9.33
			c-0.35,1.57-0.66,3.15-0.87,4.75c-0.2,1.51-0.7,2.37,0.88,2.78c2.75,0.71,6.05-1.32,8.29-2.64c4.35-2.56,8.79-5.19,12.1-9
			c4.22-4.84,6.78-11.24,8.35-17.39c1.76-6.91,2.49-14.08,2.13-21.21C462.69,96.77,462.54,95,462.35,93.24z"/>
		
			<linearGradient id="SVGID_00000158717048917084212550000002497034317033967290_" gradientUnits="userSpaceOnUse" x1="367.6097" y1="706.964" x2="373.3993" y2="721.6556" gradientTransform="matrix(1 0 0 -1 0 799.2756)">
			<stop  offset="0" style="stop-color:#000000"/>
			<stop  offset="1" style="stop-color:#CFAF93;stop-opacity:0"/>
		</linearGradient>
		<path style="fill:url(#SVGID_00000158717048917084212550000002497034317033967290_);" d="M369.64,80.05
			c0.26-0.05,0.52-0.1,0.78-0.07c0.34,0.04,0.66,0.19,0.96,0.34c0.6,0.3,1.2,0.6,1.77,0.95c1.45,0.91,2.66,2.17,3.51,3.66
			c-0.23-0.49-0.4-1.02-0.51-1.55c-0.08-0.43-0.12-0.86-0.24-1.27c-0.19-0.64-0.56-1.21-0.93-1.76c-0.26-0.39-0.51-0.77-0.84-1.1
			c-0.44-0.44-0.98-0.74-1.53-1.03c-0.93-0.48-1.95-0.91-2.98-0.74c-0.35,0.06-0.68,0.18-0.99,0.33c-1.23,0.58-2.73,1.92-2.5,3.44
			c0.02,0.16,0.15,0.33,0.31,0.34c0.16,0.01,0.29-0.1,0.4-0.21C367.62,80.64,368.57,80.26,369.64,80.05z"/>
		
			<linearGradient id="SVGID_00000069392992962091325130000008603334104790029456_" gradientUnits="userSpaceOnUse" x1="395.9441" y1="678.5913" x2="390.3796" y2="679.1368" gradientTransform="matrix(1 0 0 -1 0 799.2756)">
			<stop  offset="0" style="stop-color:#000000"/>
			<stop  offset="1" style="stop-color:#CFAF93;stop-opacity:0"/>
		</linearGradient>
		<path style="fill:url(#SVGID_00000069392992962091325130000008603334104790029456_);" d="M390.45,118.25
			c0.11,0.62,0.47,1.16,0.81,1.69c0.28,0.44,0.55,0.91,0.57,1.42c0.01,0.27-0.04,0.57-0.17,0.8c-0.33-0.4-0.45-1.35-0.66-1.87
			C390.73,119.64,390.46,118.97,390.45,118.25z"/>
		
			<linearGradient id="SVGID_00000090988729831173139150000017318118408690590340_" gradientUnits="userSpaceOnUse" x1="367.1216" y1="681.3445" x2="375.1957" y2="679.1078" gradientTransform="matrix(1 0 0 -1 0 799.2756)">
			<stop  offset="0" style="stop-color:#000000"/>
			<stop  offset="1" style="stop-color:#CFAF93;stop-opacity:0"/>
		</linearGradient>
		<path style="fill:url(#SVGID_00000090988729831173139150000017318118408690590340_);" d="M373.59,120.95
			c0.42-0.95,0.94-1.94,0.79-2.97c-0.2,0.55-0.4,1.09-0.68,1.6c-0.2,0.35-0.44,0.69-0.55,1.07c-0.09,0.31-0.11,0.77,0.17,0.96
			C373.46,121.43,373.48,121.19,373.59,120.95z"/>
		
			<linearGradient id="SVGID_00000121988785821701945460000012188572168720732821_" gradientUnits="userSpaceOnUse" x1="382.7955" y1="695.614" x2="373.1877" y2="697.9133" gradientTransform="matrix(1 0 0 -1 0 799.2756)">
			<stop  offset="0" style="stop-color:#000000"/>
			<stop  offset="1" style="stop-color:#CFAF93;stop-opacity:0"/>
		</linearGradient>
		<path style="fill:url(#SVGID_00000121988785821701945460000012188572168720732821_);" d="M374.04,107.88
			c1.67-3.56,2.62-7.46,2.75-11.39c0.03-0.85,0.03-1.72,0.31-2.51c0.28-0.78,0.79-1.75,0.2-2.33c-0.06-0.06-0.13-0.11-0.22-0.12
			c-0.2-0.01-0.32,0.22-0.37,0.41c-0.29,0.96-0.49,1.95-0.6,2.95c-0.13,1.24-0.12,2.49-0.29,3.73c-0.13,0.92-0.36,1.83-0.59,2.73
			c-0.53,2.09-1.06,4.18-1.83,6.18c-0.34,0.87-0.73,1.76-0.72,2.7c0.01,0.88,0.51,1.94,1.44,2.12c-0.34-0.76-0.91-0.88-0.92-1.83
			C373.21,109.59,373.66,108.68,374.04,107.88z"/>
		
			<linearGradient id="SVGID_00000067226078103041372120000000020528579854257343_" gradientUnits="userSpaceOnUse" x1="383.7927" y1="652.4868" x2="383.226" y2="659.5055" gradientTransform="matrix(1 0 0 -1 0 799.2756)">
			<stop  offset="0" style="stop-color:#000000"/>
			<stop  offset="0.1173" style="stop-color:#050404;stop-opacity:0.8827"/>
			<stop  offset="0.2567" style="stop-color:#13100E;stop-opacity:0.7433"/>
			<stop  offset="0.4072" style="stop-color:#2B251F;stop-opacity:0.5928"/>
			<stop  offset="0.5658" style="stop-color:#4D4137;stop-opacity:0.4342"/>
			<stop  offset="0.7307" style="stop-color:#786555;stop-opacity:0.2693"/>
			<stop  offset="0.8982" style="stop-color:#AC917A;stop-opacity:0.1018"/>
			<stop  offset="1" style="stop-color:#CFAF93;stop-opacity:0"/>
		</linearGradient>
		<path style="fill:url(#SVGID_00000067226078103041372120000000020528579854257343_);" d="M381.56,138.09
			c-0.04-0.15-0.06-0.35,0.08-0.42c0.06-0.03,0.13-0.03,0.19-0.02c0.88,0.08,1.75,0.59,2.61,0.37c0.2,0.19,0.26,0.49,0.23,0.76
			s-0.15,0.53-0.26,0.78c-0.3,0.7-0.56,1.41-0.77,2.13c-0.16,0.52-0.32,1.83-0.75,0.74C382.34,141.04,381.93,139.55,381.56,138.09z"
			/>
	</g>
	<g>
		
			<linearGradient id="SVGID_00000128473844248478552380000012238963286830846871_" gradientUnits="userSpaceOnUse" x1="397.0005" y1="712.8434" x2="392.9163" y2="730.0197" gradientTransform="matrix(1 0 0 -1 0 799.2756)">
			<stop  offset="0" style="stop-color:#FFFFFF;stop-opacity:0.5"/>
			<stop  offset="1" style="stop-color:#CFAF93;stop-opacity:0"/>
		</linearGradient>
		<path style="fill:url(#SVGID_00000128473844248478552380000012238963286830846871_);" d="M394.66,72.08
			c-0.27-2.24-0.71-4.47-0.37-6.73c0.18-1.19,0.57-2.44,0.13-3.57c-0.14-0.36-0.43-0.73-0.82-0.74c-0.36,0-0.66,0.32-0.75,0.66
			c-0.1,0.35-0.04,0.71,0.01,1.07c0.5,3.62,0.16,7.35-1,10.82c-0.42,1.24-1.08,2.98,0.09,4c2.54,2.2,2.93-2.44,2.86-3.83
			C394.78,73.2,394.72,72.64,394.66,72.08z"/>
		
			<linearGradient id="SVGID_00000137812091875196620090000001949098581650260901_" gradientUnits="userSpaceOnUse" x1="474.3182" y1="733.3426" x2="431.5001" y2="716.9315" gradientTransform="matrix(1 0 0 -1 0 799.2756)">
			<stop  offset="0" style="stop-color:#FFFFFF;stop-opacity:0.5"/>
			<stop  offset="1" style="stop-color:#CFAF93;stop-opacity:0"/>
		</linearGradient>
		<path style="fill:url(#SVGID_00000137812091875196620090000001949098581650260901_);" d="M430.71,71.45
			c-0.44,0.18-0.9,0.41-1.11,0.83c-0.18,0.37-0.15,0.8-0.1,1.21c0.3,2.78,0.73,5.8,2.75,7.74c0.5,0.48,1.12,0.88,1.8,0.91
			c0.47,0.02,0.93-0.13,1.39-0.23c2.23-0.46,4.52,0.46,6.49,1.61s3.82,2.57,5.99,3.26c0.36,0.11,0.76,0.2,1.1,0.05
			c0.26-0.12,0.45-0.35,0.6-0.59c1.57-2.4,1.1-5.59,0.13-8.29c-0.39-1.09-0.87-2.18-1.66-3.02c-1.07-1.15-2.6-1.74-4.08-2.28
			C439.37,70.96,435.55,69.45,430.71,71.45z"/>
		
			<linearGradient id="SVGID_00000141431880243834626300000004512415435047052205_" gradientUnits="userSpaceOnUse" x1="393.8255" y1="694.7679" x2="394.7207" y2="714.7598" gradientTransform="matrix(1 0 0 -1 0 799.2756)">
			<stop  offset="0" style="stop-color:#FFFFFF;stop-opacity:0.5"/>
			<stop  offset="0.1588" style="stop-color:#FBF9F6;stop-opacity:0.4206"/>
			<stop  offset="0.4143" style="stop-color:#F1E7DF;stop-opacity:0.2928"/>
			<stop  offset="0.7325" style="stop-color:#E0CBB9;stop-opacity:0.1337"/>
			<stop  offset="1" style="stop-color:#CFAF93;stop-opacity:0"/>
		</linearGradient>
		<path style="fill:url(#SVGID_00000141431880243834626300000004512415435047052205_);" d="M394.86,91.4
			c1.83,0.35,3.78,0.41,5.49-0.33c1.46-0.64,2.62-1.81,3.73-2.95c-0.76,1-1.58,1.96-2.44,2.88c-0.89,0.94-1.86,1.87-3.09,2.28
			c-1.63,0.55-3.42,0.11-5.04-0.48c-3.24-1.17-6.54-3.06-8.41-6.05c0.92-0.5,3.14,1.98,4.1,2.54
			C390.95,90.29,392.87,91.01,394.86,91.4z"/>
		
			<linearGradient id="SVGID_00000056412505826601540010000004413047529347769762_" gradientUnits="userSpaceOnUse" x1="369.3275" y1="694.1496" x2="371.1682" y2="712.4026" gradientTransform="matrix(1 0 0 -1 0 799.2756)">
			<stop  offset="0" style="stop-color:#FFFFFF;stop-opacity:0.5"/>
			<stop  offset="0.1573" style="stop-color:#FCF9F7;stop-opacity:0.4214"/>
			<stop  offset="0.3994" style="stop-color:#F2E9E2;stop-opacity:0.3003"/>
			<stop  offset="0.696" style="stop-color:#E2CFBE;stop-opacity:0.152"/>
			<stop  offset="1" style="stop-color:#CFAF93;stop-opacity:0"/>
		</linearGradient>
		<path style="fill:url(#SVGID_00000056412505826601540010000004413047529347769762_);" d="M372.49,92.11
			c-0.18,0.12-0.37,0.24-0.58,0.3c-0.32,0.1-0.67,0.07-1.01,0.01c-2.06-0.34-3.97-1.54-5.17-3.25c0.55,1.17,1.26,2.3,2.28,3.09
			s2.37,1.23,3.63,0.93c0.69-0.16,1.31-0.53,1.87-0.97c1.16-0.91,2.46-2.42,2.72-3.91c-0.59,0.43-0.96,1.21-1.44,1.77
			C374.12,90.86,373.34,91.55,372.49,92.11z"/>
		
			<linearGradient id="SVGID_00000010997284010642424490000010032613353962375601_" gradientUnits="userSpaceOnUse" x1="376.5373" y1="652.3751" x2="388.8245" y2="655.2422" gradientTransform="matrix(1 0 0 -1 0 799.2756)">
			<stop  offset="0" style="stop-color:#FFFFFF;stop-opacity:0.5"/>
			<stop  offset="0.1588" style="stop-color:#FBF9F6;stop-opacity:0.4206"/>
			<stop  offset="0.4143" style="stop-color:#F1E7DF;stop-opacity:0.2928"/>
			<stop  offset="0.7325" style="stop-color:#E0CBB9;stop-opacity:0.1337"/>
			<stop  offset="1" style="stop-color:#CFAF93;stop-opacity:0"/>
		</linearGradient>
		<path style="fill:url(#SVGID_00000010997284010642424490000010032613353962375601_);" d="M383.34,142.31
			c0.02-0.19,0.11-0.43,0.29-0.41c0.09,0.01,0.16,0.09,0.22,0.16c0.73,0.83,1.61,1.53,2.6,2.04c0.22,0.11,0.45,0.22,0.58,0.43
			c0.14,0.21,0.15,0.48,0.14,0.74c-0.03,0.75-0.2,1.49-0.48,2.18c-0.53,1.29-2.18,0.24-2.57-0.57
			C383.46,145.48,383.21,143.82,383.34,142.31z"/>
		
			<linearGradient id="SVGID_00000154413978838571217990000009798113107515238529_" gradientUnits="userSpaceOnUse" x1="367.8478" y1="654.0035" x2="383.9032" y2="654.7407" gradientTransform="matrix(1 0 0 -1 0 799.2756)">
			<stop  offset="0" style="stop-color:#FFFFFF;stop-opacity:0.5"/>
			<stop  offset="0.1588" style="stop-color:#FBF9F6;stop-opacity:0.4206"/>
			<stop  offset="0.4143" style="stop-color:#F1E7DF;stop-opacity:0.2928"/>
			<stop  offset="0.7325" style="stop-color:#E0CBB9;stop-opacity:0.1337"/>
			<stop  offset="1" style="stop-color:#CFAF93;stop-opacity:0"/>
		</linearGradient>
		<path style="fill:url(#SVGID_00000154413978838571217990000009798113107515238529_);" d="M382.17,147.55
			c0.04-0.46-0.32-0.84-0.48-1.27c-0.22-0.61-0.02-1.29-0.1-1.93c-0.15-1.27-1.35-2.2-2.6-2.51c-0.19-0.05-0.43-0.07-0.55,0.1
			c-0.06,0.09-0.06,0.21-0.06,0.32c0.04,1.34,0.23,2.09,1.02,3.11c0.4,0.51,0.71,1.09,1.21,1.51
			C380.72,146.94,382.16,147.76,382.17,147.55z"/>
		
			<linearGradient id="SVGID_00000057842537341085086760000002697911430430194862_" gradientUnits="userSpaceOnUse" x1="400.5076" y1="655.4488" x2="383.287" y2="671.4984" gradientTransform="matrix(1 0 0 -1 0 799.2756)">
			<stop  offset="0" style="stop-color:#FFFFFF;stop-opacity:0.5"/>
			<stop  offset="0.1588" style="stop-color:#FBF9F6;stop-opacity:0.4206"/>
			<stop  offset="0.4143" style="stop-color:#F1E7DF;stop-opacity:0.2928"/>
			<stop  offset="0.7325" style="stop-color:#E0CBB9;stop-opacity:0.1337"/>
			<stop  offset="1" style="stop-color:#CFAF93;stop-opacity:0"/>
		</linearGradient>
		<path style="fill:url(#SVGID_00000057842537341085086760000002697911430430194862_);" d="M383.09,129.03
			c1.42,0.1,2.77-0.75,3.62-1.89c0.35-0.47,0.75-1.05,1.33-1.01c-0.31,1.23-0.53,2.48-1.03,3.65c-0.49,1.16-1.31,2.25-2.47,2.76
			c-1.16,0.5-2.69,0.27-3.42-0.77c-0.44-0.62-0.55-1.42-0.96-2.05c-0.25-0.38-0.6-0.69-0.87-1.06c-0.29-0.4-0.94-1.63-0.79-2.14
			c0.23-0.79,0.9-0.21,1.17,0.17C380.51,127.84,381.57,128.92,383.09,129.03z"/>
		
			<linearGradient id="SVGID_00000138545019111731478480000005979262039082477730_" gradientUnits="userSpaceOnUse" x1="380.3264" y1="699.9084" x2="382.0356" y2="687.2933" gradientTransform="matrix(1 0 0 -1 0 799.2756)">
			<stop  offset="0" style="stop-color:#FFFFFF;stop-opacity:0.5"/>
			<stop  offset="0.317" style="stop-color:#FEFDFD;stop-opacity:0.3415"/>
			<stop  offset="0.4945" style="stop-color:#FAF7F5;stop-opacity:0.2527"/>
			<stop  offset="0.6376" style="stop-color:#F4EDE7;stop-opacity:0.1812"/>
			<stop  offset="0.7623" style="stop-color:#EBDED3;stop-opacity:0.1188"/>
			<stop  offset="0.8751" style="stop-color:#E0CCBA;stop-opacity:0.0625"/>
			<stop  offset="0.9777" style="stop-color:#D2B59B;stop-opacity:0.0111"/>
			<stop  offset="1" style="stop-color:#CFAF93;stop-opacity:0"/>
		</linearGradient>
		<path style="fill:url(#SVGID_00000138545019111731478480000005979262039082477730_);" d="M381.99,109.89
			c1.44-0.21,2.95,0.53,3.77,1.73c0.11-0.06,0.12-0.21,0.11-0.33c-0.06-0.87-0.46-1.71-1.09-2.31c-0.5-0.47-1.07-0.85-1.78-0.77
			c-0.48,0.06-0.92,0.26-1.35,0.48c-1.09,0.55-2.14,1.16-3.15,1.84c-0.23,0.16-0.49,0.36-0.51,0.64c0.08,0.13,0.29,0.09,0.43,0.03
			C379.58,110.74,380.77,110.07,381.99,109.89z"/>
		
			<linearGradient id="SVGID_00000049189236485848677480000001568232222857726858_" gradientUnits="userSpaceOnUse" x1="360.6632" y1="701.9545" x2="380.6287" y2="699.6434" gradientTransform="matrix(1 0 0 -1 0 799.2756)">
			<stop  offset="0" style="stop-color:#FFFFFF;stop-opacity:0.5"/>
			<stop  offset="0.317" style="stop-color:#FEFDFD;stop-opacity:0.3415"/>
			<stop  offset="0.4945" style="stop-color:#FAF7F5;stop-opacity:0.2527"/>
			<stop  offset="0.6376" style="stop-color:#F4EDE7;stop-opacity:0.1812"/>
			<stop  offset="0.7623" style="stop-color:#EBDED3;stop-opacity:0.1188"/>
			<stop  offset="0.8751" style="stop-color:#E0CCBA;stop-opacity:0.0625"/>
			<stop  offset="0.9777" style="stop-color:#D2B59B;stop-opacity:0.0111"/>
			<stop  offset="1" style="stop-color:#CFAF93;stop-opacity:0"/>
		</linearGradient>
		<path style="fill:url(#SVGID_00000049189236485848677480000001568232222857726858_);" d="M374.38,112.18
			c-0.05-0.07-0.11-0.13-0.16-0.2c-0.8-0.98-0.77-2.26-0.32-3.38c0.98-2.48,1.84-4.99,2.31-7.62c0.89-5.02,1.08-10.3,3.26-14.98
			c0.04-0.09-0.08-0.16-0.13-0.08c-3.13,4.77-2.78,10.66-3.93,16.03c-0.31,1.44-0.68,2.88-1.23,4.25c-0.5,1.24-1.31,2.51-1.43,3.87
			c-0.05,0.58,0.1,1.14,0.48,1.58c0.16,0.18,0.36,0.38,0.55,0.54c0.06,0.05,0.8,0.39,0.79,0.34
			C374.53,112.4,374.46,112.29,374.38,112.18z"/>
		
			<linearGradient id="SVGID_00000004544419853370430470000013525770494086309032_" gradientUnits="userSpaceOnUse" x1="387.6677" y1="727.4514" x2="368.3203" y2="722.3696" gradientTransform="matrix(1 0 0 -1 0 799.2756)">
			<stop  offset="0" style="stop-color:#FFFFFF;stop-opacity:0.5"/>
			<stop  offset="0.1573" style="stop-color:#FCF9F7;stop-opacity:0.4214"/>
			<stop  offset="0.3994" style="stop-color:#F2E9E2;stop-opacity:0.3003"/>
			<stop  offset="0.696" style="stop-color:#E2CFBE;stop-opacity:0.152"/>
			<stop  offset="1" style="stop-color:#CFAF93;stop-opacity:0"/>
		</linearGradient>
		<path style="fill:url(#SVGID_00000004544419853370430470000013525770494086309032_);" d="M372.8,78.26
			c-0.37-0.24-0.77-0.44-1.06-0.77c-0.5-0.55-0.6-1.35-0.61-2.09c-0.03-1.54,0.23-3.08,0.77-4.52c0.06-0.16,0.15-0.34,0.31-0.37
			c0.1-0.02,0.2,0.02,0.28,0.07c0.69,0.36,1.09,1.11,1.28,1.86s0.21,1.54,0.35,2.3c0.31,1.65,1.27,3.19,1.4,4.87
			c0.07,0.99-0.39,1.12-0.95,0.4C374.03,79.34,373.53,78.73,372.8,78.26z"/>
		<path class="st2" d="M395.19,87.36c-0.01-0.04-0.02-0.07-0.04-0.1c-0.01-0.03-0.04-0.06-0.06-0.09l-0.01-0.01
			c-0.02-0.02-0.04-0.03-0.06-0.05c0,0-0.01,0-0.01-0.01H395c-0.02-0.01-0.05-0.02-0.08-0.03h-0.01c-0.03-0.01-0.06-0.01-0.09-0.01
			h-0.01c-0.01,0-0.03,0-0.04,0.01c-0.01,0-0.03,0-0.04,0.01c-0.02,0.01-0.05,0.02-0.07,0.03l-0.06,0.04l0,0
			c-0.01,0.01-0.02,0.03-0.03,0.04c-0.02,0.01-0.03,0.02-0.05,0.03c-0.05,0.04-0.09,0.11-0.1,0.18c-0.01,0.03-0.01,0.06-0.01,0.09
			c0,0.01,0,0.01,0,0.02v0.01c0,0.03,0.01,0.06,0.01,0.09c0,0,0,0,0,0.01s0.03,0.07,0.03,0.07s0,0.01,0.01,0.01
			c0.02,0.03,0.04,0.06,0.07,0.09c0.02,0.02,0.05,0.04,0.07,0.06h0.01c0.03,0.01,0.05,0.02,0.08,0.03c0.01,0,0.01,0,0.02,0.01
			c0.03,0.01,0.06,0.01,0.09,0.01h0.01c0.04,0,0.08,0,0.12-0.02c0.02-0.01,0.05-0.02,0.08-0.03h0.01c0,0,0,0,0.01,0
			c0.02-0.02,0.05-0.03,0.07-0.05l0.01-0.01c0.02-0.02,0.03-0.04,0.05-0.06c0,0,0-0.01,0.01-0.01c0,0,0.01-0.01,0.01-0.02
			c0.01-0.03,0.03-0.06,0.04-0.09c0-0.01,0-0.01,0-0.02c0.01-0.03,0.01-0.06,0.01-0.1c0-0.01,0-0.01,0-0.02
			C395.2,87.42,395.19,87.39,395.19,87.36z"/>
		<g>
			<path class="st2" d="M370.26,88.78c0-0.01,0-0.02-0.01-0.02c-0.01-0.02-0.01-0.03-0.02-0.05c-0.01-0.02-0.01-0.03-0.02-0.05
				c0-0.01-0.01-0.01-0.01-0.02c-0.02-0.02-0.04-0.06-0.07-0.08c-0.06-0.06-0.1-0.08-0.18-0.11c-0.04-0.02-0.09-0.02-0.13-0.02
				c-0.02,0-0.05,0-0.07,0.01c-0.02,0-0.05,0-0.07,0.01c-0.04,0.01-0.07,0.03-0.1,0.04c-0.01,0-0.02,0.01-0.03,0.01l-0.01,0.01
				c-0.02,0.01-0.05,0.04-0.07,0.05c-0.02,0.02-0.03,0.04-0.05,0.06l0,0c-0.01,0.01-0.02,0.05-0.02,0.04
				c-0.01,0.01-0.01,0.03-0.02,0.04v0.01c0,0.02,0,0.03-0.01,0.05c0,0,0,0.01-0.01,0.01c0,0.01-0.01,0.02-0.01,0.03
				c-0.01,0.03-0.01,0.07-0.01,0.11s0.01,0.07,0.01,0.11c0,0.01,0,0.02,0.01,0.03c0.01,0.03,0.02,0.06,0.04,0.09
				c0,0,0,0.01,0.01,0.01c0.01,0.03,0.04,0.06,0.07,0.09c0.02,0.02,0.06,0.05,0.08,0.07c0.01,0.01,0.02,0.01,0.03,0.02
				c0.03,0.02,0.07,0.03,0.1,0.04s0.09,0.02,0.11,0.02c0.05,0,0.1,0,0.14-0.02c0.02-0.01,0.03-0.01,0.05-0.02
				c0.02-0.01,0.03-0.01,0.05-0.02c0.03-0.02,0.06-0.04,0.08-0.06c0.01-0.01,0.01-0.01,0.02-0.02l0.01-0.01
				c0.02-0.02,0.04-0.05,0.06-0.08c0.02-0.04,0.04-0.08,0.05-0.12c0.01-0.04,0.02-0.09,0.02-0.13
				C370.28,88.87,370.27,88.82,370.26,88.78z"/>
		</g>
	</g>
	<g>
		<g>
			<path d="M402.88,156.29c-0.4-1.3-0.88-2.61-1.63-3.76c-0.36-0.54-0.77-1.13-1.27-1.55c-0.59-0.49-1.33-0.73-1.99-1.12
				c-0.45-0.27-1.12-0.11-1.37,0.36c-0.26,0.49-0.12,1.08,0.36,1.37c0.28,0.17,0.57,0.31,0.87,0.45c0.16,0.08,0.33,0.15,0.49,0.24
				c0.06,0.03,0.12,0.06,0.18,0.1c0.02,0.01,0.21,0.15,0.12,0.08c-0.09-0.07,0.1,0.1,0.1,0.1c0.04,0.04,0.08,0.08,0.12,0.13
				c0.09,0.1,0.18,0.2,0.26,0.31c0.05,0.06,0.1,0.12,0.14,0.18c-0.06-0.08,0.01,0.02,0.03,0.05c0.1,0.14,0.2,0.28,0.29,0.42
				c0.16,0.25,0.31,0.51,0.45,0.78c0.07,0.13,0.13,0.26,0.19,0.4c0.03,0.07,0.07,0.15,0.1,0.22c0.02,0.05,0.06,0.13,0.01,0.03
				c0.24,0.58,0.43,1.17,0.62,1.77c0.15,0.5,0.7,0.87,1.23,0.7C402.68,157.36,403.04,156.82,402.88,156.29L402.88,156.29z"/>
		</g>
	</g>
	<g>
		<g>
			<path d="M417.01,140.07c-6.8,6.61-16.56,9.51-25.85,10.03c-2.41,0.14-4.88,0.05-7.18-0.77c-1.08-0.39-2.16-0.97-2.98-1.79
				c-0.85-0.86-1.1-1.96-1.28-3.12c-0.42-2.63-1.13-5.14-2.28-7.54c-1.12-2.34-2.73-4.35-4.1-6.55c-1.41-2.27-2.09-4.75-2.72-7.32
				c-0.68-2.8-1.36-5.59-2.04-8.39c-0.69-2.84-1.38-5.67-2.07-8.51c-0.67-2.77-1.37-5.56-1.58-8.41
				c-0.41-5.65,1.06-11.33,2.14-16.83c0.54-2.74,1.14-5.46,1.67-8.2c0.47-2.43,0.92-4.93,1.92-7.21c1.94-4.43,5.01-8.16,8.44-11.52
				c3.25-3.19,6.9-5.92,10.86-8.16c7.89-4.46,17.12-7.09,26.22-6.21c2.32,0.22,4.59,0.76,6.86,1.29c2.16,0.5,4.31,1.05,6.42,1.73
				c4,1.29,7.73,3.16,11.17,5.59c3.87,2.73,7.45,6,10.01,10.01c2.52,3.94,4.35,8.28,5.81,12.71c3.21,9.69,4.95,19.97,5.28,30.16
				c0.09,2.83,0.12,5.67-0.22,8.48c-0.33,2.73-0.96,5.42-1.63,8.08c-0.69,2.72-1.37,5.43-2.32,8.07c-0.92,2.55-1.93,5.1-3.12,7.54
				c-0.53,1.09-1.07,2.18-1.53,3.31c-0.49,1.22-0.96,2.52-0.76,3.85c0.08,0.53,0.75,0.83,1.23,0.7c0.57-0.16,0.78-0.69,0.7-1.23
				c-0.09-0.59,0.23-1.31,0.41-1.86c0.21-0.61,0.46-1.21,0.72-1.8c0.56-1.23,1.2-2.42,1.74-3.66c1.13-2.58,2.19-5.21,3.07-7.88
				c0.9-2.73,1.57-5.56,2.24-8.36c0.66-2.77,1.2-5.58,1.42-8.42c0.23-2.92,0.12-5.88-0.03-8.79c-0.15-2.95-0.42-5.9-0.81-8.83
				c-0.66-4.97-1.62-9.9-2.92-14.75c-1.27-4.75-2.88-9.44-5.05-13.86c-1.02-2.07-2.16-4.09-3.51-5.97
				c-1.53-2.13-3.35-4.04-5.31-5.77c-3.42-3.01-7.25-5.63-11.41-7.48c-4.09-1.82-8.42-2.92-12.77-3.89
				c-4.66-1.04-9.3-1.42-14.05-0.84c-4.78,0.58-9.41,1.92-13.83,3.84c-4.37,1.9-8.47,4.38-12.2,7.34c-3.77,2.99-7.26,6.52-10,10.48
				c-1.41,2.04-2.63,4.25-3.47,6.59c-0.87,2.44-1.28,5.02-1.78,7.56c-1.14,5.76-2.52,11.5-3.31,17.33c-0.4,2.94-0.5,5.87-0.1,8.81
				c0.39,2.89,1.13,5.72,1.82,8.55c1.39,5.7,2.68,11.43,4.17,17.1c0.71,2.7,1.81,5.1,3.38,7.41c1.5,2.2,2.98,4.37,3.92,6.88
				c0.48,1.29,0.86,2.62,1.12,3.97c0.24,1.27,0.34,2.56,0.87,3.76c1.01,2.25,3.54,3.55,5.79,4.2c2.44,0.7,5.04,0.73,7.55,0.55
				c2.49-0.18,4.98-0.52,7.42-1.03c4.78-0.98,9.48-2.65,13.64-5.22c2-1.24,3.88-2.69,5.57-4.33
				C419.35,140.58,417.93,139.17,417.01,140.07L417.01,140.07z"/>
		</g>
	</g>
	<g>
		<g>
			<path d="M376.66,85.78c1.5,2.56-0.39,5.81-0.78,8.43c-0.2,1.31-0.03,2.63-0.33,3.93c-0.18,0.79-0.39,1.58-0.59,2.36
				c-0.6,2.38-1.22,4.77-1.83,7.15c-0.27,1.06-0.77,2.27-0.5,3.38c0.21,0.87,0.84,1.55,1.66,1.88c1.24,0.5,2.62,0.38,3.9,0.7
				c0.69,0.17,1.32,0.48,1.82,1c0.19,0.2,0.33,0.44,0.53,0.62c0.17,0.15,0.38,0.26,0.56,0.4c0.25,0.2,0.61-0.16,0.35-0.35
				c-0.3-0.24-0.58-0.42-0.83-0.72c-0.37-0.44-0.77-0.81-1.29-1.07c-0.89-0.45-1.9-0.53-2.88-0.64c-1.19-0.14-2.62-0.31-3.19-1.53
				c-0.31-0.67-0.19-1.34-0.02-2.02c0.17-0.67,0.34-1.34,0.51-2.01c0.59-2.32,1.19-4.63,1.78-6.95c0.19-0.74,0.38-1.47,0.55-2.22
				c0.31-1.38,0.11-2.81,0.37-4.2c0.5-2.64,2.18-5.8,0.66-8.38C376.93,85.25,376.49,85.5,376.66,85.78L376.66,85.78z"/>
		</g>
	</g>
	<g>
		<g>
			<path d="M383.6,108.3c1.08,0.97,2.43,2.22,2.14,3.83c-0.07,0.39-0.18,0.61-0.59,0.64c-0.3,0.02-0.59-0.05-0.87-0.11
				c-0.61-0.13-1.19-0.21-1.81-0.19c-1.51,0.06-3.02,0.19-4.53,0.25c-1.25,0.05-3.02,0.33-4.03-0.61c-0.23-0.22-0.59,0.13-0.35,0.35
				c1.12,1.05,2.88,0.81,4.27,0.76c0.94-0.03,1.88-0.1,2.82-0.15c0.96-0.06,1.98-0.21,2.93-0.04c0.59,0.1,1.18,0.32,1.78,0.23
				c0.66-0.1,0.84-0.6,0.9-1.23c0.17-1.73-1.13-3.01-2.3-4.07C383.72,107.73,383.37,108.08,383.6,108.3L383.6,108.3z"/>
		</g>
	</g>
	<g>
		<g>
			<path d="M374.91,123.02c1.17,0.81,2.57,0.22,3.84,0.66c1.15,0.4,2.25,1.63,3.49,0.72c0.25-0.18,0.45-0.43,0.73-0.57
				c0.47-0.23,1.03-0.15,1.53-0.12c0.72,0.04,1.44,0.07,2.16,0.08c1.4,0.02,2.84-0.04,4.18-0.5c0.3-0.1,0.17-0.59-0.13-0.48
				c-1.33,0.45-2.75,0.5-4.15,0.48c-0.65-0.01-1.31-0.04-1.96-0.08c-0.62-0.03-1.31-0.12-1.88,0.18c-0.68,0.36-1.01,1.03-1.9,0.76
				c-0.63-0.2-1.15-0.64-1.76-0.89c-1.25-0.51-2.75,0.11-3.89-0.68C374.89,122.4,374.64,122.83,374.91,123.02L374.91,123.02z"/>
		</g>
	</g>
	<g>
		<g>
			<path d="M378.9,126.31c2.7,1.17,5.8,1.22,8.52,0.09c0.29-0.12,0.16-0.6-0.13-0.48c-2.6,1.07-5.56,1.07-8.14-0.04
				C378.86,125.76,378.61,126.19,378.9,126.31L378.9,126.31z"/>
		</g>
	</g>
	<g>
		<g>
			<path d="M382.92,142.28c-0.05,2.12,0.49,4.23,1.56,6.06c0.16,0.28,0.59,0.03,0.43-0.25c-1.02-1.76-1.54-3.77-1.49-5.81
				C383.43,141.96,382.93,141.96,382.92,142.28L382.92,142.28z"/>
		</g>
	</g>
	<g>
		<g>
			<path d="M392.06,86.22c0.99-1.22,2.61-1.65,4.13-1.46c1.75,0.22,3.31,1.19,4.73,2.19c0.02-0.15,0.04-0.3,0.06-0.46
				c-0.08,0.02-0.15,0.03-0.23,0.05c-0.31,0.07-0.18,0.55,0.13,0.48c0.08-0.02,0.15-0.03,0.23-0.05c0.23-0.05,0.22-0.34,0.06-0.46
				c-1.54-1.08-3.24-2.1-5.15-2.27c-1.59-0.14-3.29,0.36-4.32,1.63C391.5,86.11,391.85,86.47,392.06,86.22L392.06,86.22z"/>
		</g>
	</g>
	<g>
		<g>
			<path d="M368.7,87.45c1.1-1.77,3.55-0.53,4.52,0.73c0.19,0.25,0.63,0,0.43-0.25c-0.66-0.86-1.6-1.52-2.67-1.77
				c-1.06-0.25-2.13,0.1-2.72,1.04C368.1,87.47,368.53,87.72,368.7,87.45L368.7,87.45z"/>
		</g>
	</g>
	<path d="M396.36,84.68c-0.02,0-0.04,0.01-0.06,0.01c-0.14,0.01-0.29,0.01-0.43-0.02c-0.11-0.02-0.22-0.07-0.32-0.14
		c-0.42,0.2-0.74,0.83-0.74,1.58c0,0.91,0.46,1.65,1.03,1.65s1.03-0.74,1.03-1.65C396.88,85.5,396.67,84.97,396.36,84.68z"/>
	<ellipse cx="370.87" cy="87.76" rx="0.84" ry="1.45"/>
	<g>
		<g>
			<path d="M385.31,83.81c0.84-0.68,1.6-1.43,2.34-2.22c0.54-0.57,1.06-1.18,1.7-1.65c1.53-1.13,3.6-0.63,5.3-0.17
				c2.01,0.53,3.84,1.46,5.62,2.52c1.61,0.95,3.3,2.07,4.01,3.88c0.12,0.3,0.6,0.17,0.48-0.13c-0.54-1.37-1.55-2.38-2.73-3.22
				c-1.4-0.99-2.94-1.87-4.51-2.56c-1.56-0.69-3.2-1.18-4.9-1.39c-1.36-0.18-2.55-0.11-3.67,0.75c-1.46,1.13-2.56,2.67-4,3.84
				C384.7,83.66,385.06,84.01,385.31,83.81L385.31,83.81z"/>
		</g>
	</g>
	<g>
		<g>
			<path d="M376.29,84.41c-0.55-0.99-1.28-1.78-2.22-2.41c-1.03-0.7-2.16-1.4-3.3-1.92c-0.99-0.46-1.95-0.57-2.82,0.18
				c-0.86,0.74-1.39,1.77-2.07,2.65c-0.2,0.26,0.24,0.5,0.43,0.25c0.59-0.77,1.07-1.64,1.76-2.34c0.35-0.35,0.74-0.64,1.26-0.64
				c0.61,0,1.21,0.32,1.73,0.6c1.83,1.01,3.73,2,4.79,3.88C376.01,84.94,376.44,84.69,376.29,84.41L376.29,84.41z"/>
		</g>
	</g>
</g>
</svg>
