<?xml version="1.0" encoding="utf-8"?>
<!-- Generator: Adobe Illustrator 28.0.0, SVG Export Plug-In . SVG Version: 6.00 Build 0)  -->
<svg version="1.1" id="Layer_1" xmlns="http://www.w3.org/2000/svg" xmlns:xlink="http://www.w3.org/1999/xlink" x="0px" y="0px"
	 viewBox="0 0 800 800" style="enable-background:new 0 0 800 800;" xml:space="preserve">
<style type="text/css">
	.st0{fill:#CFAF93;}
	.st1{fill:url(#SVGID_1_);}
	.st2{fill:url(#SVGID_00000059293655588962139990000016868710397404116663_);}
	.st3{fill:url(#SVGID_00000079486304323752653660000006751673941556430466_);}
	.st4{fill:url(#SVGID_00000103954255096734213920000007652637425115996562_);}
	.st5{fill:url(#SVGID_00000022557775895488978650000015265239176546582189_);}
	.st6{fill:#040404;}
	.st7{fill:none;stroke:#040404;stroke-width:2;stroke-linecap:round;stroke-miterlimit:10;}
	.st8{fill:#2D2D2D;}
	.st9{fill:#FFFFFF;}
	.st10{fill:#2C9FD7;}
	.st11{fill:url(#SVGID_00000072239644713702662530000004831762992780239788_);}
	.st12{fill:url(#SVGID_00000003101005076223731520000001647970599103985596_);}
	.st13{fill:url(#SVGID_00000065767110379108675550000008078479452053860226_);}
	.st14{fill:url(#SVGID_00000047042242519291068660000007108692981636398721_);}
	.st15{fill:url(#SVGID_00000057142193835138117450000010507984669226996133_);}
	.st16{fill:url(#SVGID_00000112601642834115796540000016129350622611630222_);}
	.st17{fill:url(#SVGID_00000016059093598871328000000002455067328641892261_);}
	.st18{fill:url(#SVGID_00000161626172722461963500000007579784566865592225_);}
	.st19{fill:url(#SVGID_00000122698395613033304530000001958040430360829631_);}
	.st20{fill:url(#SVGID_00000168807102757046145330000003740735162041201824_);}
	.st21{fill:url(#SVGID_00000023960915888615848810000007147329073927698602_);}
	.st22{fill:url(#SVGID_00000065075695441298613080000018357687778646395327_);}
	.st23{fill:url(#SVGID_00000165212996364170943620000010671028555495303296_);}
	.st24{fill:url(#SVGID_00000081633207059862650160000016986638892967934632_);}
	.st25{fill:url(#SVGID_00000086664904477974496010000004001184344801025210_);}
	.st26{fill:url(#SVGID_00000182517606791309390750000016202857840135727285_);}
	.st27{fill:url(#SVGID_00000178926980901126464610000013623002257111471013_);}
	.st28{fill:url(#SVGID_00000130623392995618544170000015212959840436125582_);}
	.st29{fill:url(#SVGID_00000134213974293494936920000004830567928558736274_);}
	.st30{fill:url(#SVGID_00000058549427155795861850000001812287902974803387_);}
	.st31{fill:#707070;}
	.st32{fill:#53BFEA;}
	.st33{fill:none;stroke:#000000;stroke-width:0.5;stroke-miterlimit:9.9994;}
	.st34{fill:none;stroke:#000000;stroke-width:2;stroke-linecap:round;stroke-miterlimit:10;}
	.st35{fill:none;stroke:#000000;stroke-width:2;stroke-miterlimit:10;}
	.st36{fill:none;stroke:#000000;stroke-width:2;stroke-linecap:round;stroke-linejoin:round;stroke-miterlimit:10;}
</style>
<path class="st0" d="M504.18,463.68l3.32-1.77l1.62,1.21l1.84-0.14l2.66-1.79l5.83-1.03l6.1-4.87l11.93-11.99l4.11-21.51
	c-0.07-1.1-0.14-2.2-0.21-3.3c-0.09-1.39-0.36-2.61-1.12-3.76c-0.56-0.84-0.56-1.91-0.51-2.92c0.07-1.71,0.22-3.42,0.42-5.12
	c0.12-1.04,0.49-2.5-0.03-3.47c-0.31-0.57-0.83-0.99-1.35-1.39c-6.41-4.82-14.47-7.06-22.47-7.68c-0.61-0.05-1.27-0.08-1.8,0.24
	c-0.58,0.34-0.47,0.77-0.54,1.31c-0.07,0.59-0.04,0.94-0.38,1.6c-0.78,1.53-1.85,2.89-3.04,4.12c-0.48,0.5-1.05,0.95-1.62,1.42
	c-0.73,0.59-1.46,1.19-1.98,1.88c-0.79,1.05-1.22,2.71-1.76,3.93c-0.17,0.38-1.27,2.18-1.08,2.6c0.07,0.16-3.99,5.28-3.99,5.28
	s-1.2,4.03-1.2,4.54c0.01,0.51,1.08,11.44,1.1,11.73s-0.1,6.44,0.02,6.43s0.87,1.82,0.87,1.82l2.7,0.41l3.46-3.1
	c0,0,2.29-6.48,2.13-5.6s0.74,12.34,0.74,12.34l-7.5,11.13l-0.75,2.45L504.18,463.68z"/>
<linearGradient id="SVGID_1_" gradientUnits="userSpaceOnUse" x1="552.9402" y1="374.7963" x2="514.8832" y2="517.3082" gradientTransform="matrix(1 0 0 1 0 -42.0001)">
	<stop  offset="0" style="stop-color:#040404"/>
	<stop  offset="0.0787" style="stop-color:#1D1D1D;stop-opacity:0.9269"/>
	<stop  offset="0.3373" style="stop-color:#6A6A6A;stop-opacity:0.6867"/>
	<stop  offset="0.5679" style="stop-color:#A7A7A7;stop-opacity:0.4725"/>
	<stop  offset="0.7619" style="stop-color:#D3D3D4;stop-opacity:0.2922"/>
	<stop  offset="0.9121" style="stop-color:#EEEEEF;stop-opacity:0.1528"/>
	<stop  offset="1" style="stop-color:#F8F8F9;stop-opacity:0.0711"/>
</linearGradient>
<path class="st1" d="M526.19,433.1c-0.64-1.01-0.84-2.27-0.97-3.43c-0.01-0.08,0-0.17-0.01-0.25c-0.37-0.11-0.74-0.22-1.11-0.35
	c0.81,0.99,0.98,2.37,0.95,3.7c-0.01,0.45-0.31,3.82-0.07,3.84c1.2,0.08,1.96-1.32,3.03-1.5c0.18-0.14,0.37-0.26,0.59-0.34
	c0.08-0.03,0.16-0.02,0.25-0.04C527.82,434.6,526.86,434.13,526.19,433.1z"/>
<linearGradient id="SVGID_00000070816780895179808690000011608050288220318620_" gradientUnits="userSpaceOnUse" x1="547.9936" y1="373.4753" x2="509.9365" y2="515.9871" gradientTransform="matrix(1 0 0 1 0 -42.0001)">
	<stop  offset="0" style="stop-color:#040404"/>
	<stop  offset="0.0787" style="stop-color:#1D1D1D;stop-opacity:0.9269"/>
	<stop  offset="0.3373" style="stop-color:#6A6A6A;stop-opacity:0.6867"/>
	<stop  offset="0.5679" style="stop-color:#A7A7A7;stop-opacity:0.4725"/>
	<stop  offset="0.7619" style="stop-color:#D3D3D4;stop-opacity:0.2922"/>
	<stop  offset="0.9121" style="stop-color:#EEEEEF;stop-opacity:0.1528"/>
	<stop  offset="1" style="stop-color:#F8F8F9;stop-opacity:0.0711"/>
</linearGradient>
<path style="fill:url(#SVGID_00000070816780895179808690000011608050288220318620_);" d="M524.84,425.93
	c-1.31-0.17-2.44-0.97-2.79-2.28c0-0.02-0.01-0.04-0.01-0.05c-0.46-0.51-0.8-1.13-0.88-1.82c0.05,0.78,0.57,1.61,0.48,2.42
	c0.03,0.11,0.06,0.21,0.09,0.32c0.07,0.23,0.17,0.44,0.26,0.66c0.06,0.09,0.13,0.17,0.19,0.25c0.17,0.15,0.36,0.28,0.6,0.38
	c0.72,0.3,1.69,0.37,2.5,0.29l0.2-0.14C525.26,425.96,525.05,425.96,524.84,425.93z"/>
<linearGradient id="SVGID_00000114031812945531307510000014404424248517249980_" gradientUnits="userSpaceOnUse" x1="537.8636" y1="370.7702" x2="499.8065" y2="513.282" gradientTransform="matrix(1 0 0 1 0 -42.0001)">
	<stop  offset="0" style="stop-color:#040404"/>
	<stop  offset="0.0787" style="stop-color:#1D1D1D;stop-opacity:0.9269"/>
	<stop  offset="0.3373" style="stop-color:#6A6A6A;stop-opacity:0.6867"/>
	<stop  offset="0.5679" style="stop-color:#A7A7A7;stop-opacity:0.4725"/>
	<stop  offset="0.7619" style="stop-color:#D3D3D4;stop-opacity:0.2922"/>
	<stop  offset="0.9121" style="stop-color:#EEEEEF;stop-opacity:0.1528"/>
	<stop  offset="1" style="stop-color:#F8F8F9;stop-opacity:0.0711"/>
</linearGradient>
<path style="fill:url(#SVGID_00000114031812945531307510000014404424248517249980_);" d="M515.07,440.98
	c0.03-0.23-0.14-0.42-0.29-0.59c-0.94-1.04-1.88-2.08-2.83-3.12c1.34,0.62,2.68,1.23,4.02,1.85c0.02-0.74,0.08-1.49,0.14-2.23
	c0.06-0.75,0.2-1.47,0.35-2.18c0.03-0.22,0.05-0.39,0.06-0.46c0.09-0.76,0.32-1.49,0.52-2.23c0.13-0.72,0.06-1.28-0.17-2
	c-0.19-0.6-0.38-1.16-0.41-1.79c0-0.07,0-0.15,0-0.23c-0.32-0.57-0.61-1.15-0.63-1.78c0.09,0.02,0.18,0.05,0.27,0.07
	c0-0.03,0-0.06,0.01-0.09c-0.03-0.02-0.05-0.03-0.08-0.05c-0.04-0.03-0.02-0.1,0.03-0.11c0.04-0.01,0.09-0.01,0.13-0.02
	c0.08-0.2,0.2-0.38,0.37-0.53c0.17-0.14,0.37-0.25,0.56-0.36c-0.67,0-1.33-0.02-2-0.11c-0.98-0.14-2.01-0.49-2.72-1.14
	c-0.06,0.01-0.13,0.01-0.19,0.02c0.01-0.04,0.02-0.08,0.03-0.12c-0.46,0.04-0.9-0.14-1.14-0.55c-0.32,0.2-0.63,0.4-0.93,0.63
	c-0.65,0.5-1.21,1.1-1.8,1.67c-0.1,3.61-0.2,7.76-2.96,10.41c-1.25,1.2-2.76,2.06-4.12,3.13c-0.5,0.39-1.02,1.01-0.73,1.57
	c0.13,0.25,0.4,0.4,0.67,0.51c3.54,1.39,5.58-2.76,7.49-4.87c0.05-0.05,0.1-0.11,0.17-0.12c0.12-0.02,0.21,0.1,0.26,0.2
	c0.88,1.76,0.64,4.2,0.68,6.12c0.03,1.49,0.05,3.02-0.5,4.41c-0.57,1.45-1.71,2.59-2.78,3.73c-2.14,2.29-4.23,5.12-3.9,8.24
	c2.92-3.04,5.84-6.08,8.77-9.13c0.93-0.97,1.76-2.03,2.27-3.28c0.15-0.36,1.2-3.25,1.25-3.26c-0.92,0.1-1.87-0.05-2.71-0.43
	c0.78-0.41,1.55-0.81,2.33-1.22C514.78,441.41,515.04,441.24,515.07,440.98z"/>
<linearGradient id="SVGID_00000094575674860488836380000012081963987892423845_" gradientUnits="userSpaceOnUse" x1="562.1249" y1="377.2492" x2="524.0677" y2="519.7609" gradientTransform="matrix(1 0 0 1 0 -42.0001)">
	<stop  offset="0" style="stop-color:#040404"/>
	<stop  offset="0.0787" style="stop-color:#1D1D1D;stop-opacity:0.9269"/>
	<stop  offset="0.3373" style="stop-color:#6A6A6A;stop-opacity:0.6867"/>
	<stop  offset="0.5679" style="stop-color:#A7A7A7;stop-opacity:0.4725"/>
	<stop  offset="0.7619" style="stop-color:#D3D3D4;stop-opacity:0.2922"/>
	<stop  offset="0.9121" style="stop-color:#EEEEEF;stop-opacity:0.1528"/>
	<stop  offset="1" style="stop-color:#F8F8F9;stop-opacity:0.0711"/>
</linearGradient>
<path style="fill:url(#SVGID_00000094575674860488836380000012081963987892423845_);" d="M539.29,436.75
	c-0.08,0.09-0.16,0.19-0.24,0.28c-0.62,0.69-1.31,1.32-2.07,1.85c-0.71,0.49-1.56,0.9-2.44,0.89c-0.44-0.01-0.89-0.12-1.27-0.35
	c-0.54-0.33-0.81-0.88-0.9-1.49c-0.03-0.25-0.03-0.49-0.01-0.73c-0.5-0.07-0.99-0.21-1.4-0.47c-0.11-0.07-0.21-0.15-0.3-0.24
	c0.09,0.46,0.12,0.93,0.11,1.4c-0.03,0.91-0.15,1.83-0.34,2.73c0.03,0.06,0.04,0.13,0.08,0.19c0.22,0.05,0.43,0,0.64-0.07
	c0.41-0.31,0.89-0.54,1.37-0.68c1.05-0.31,2.16,0.01,2.81,0.9c0.9,1.23,0.52,2.97,0.09,4.35C537.32,442.71,539,439.86,539.29,436.75
	z"/>
<linearGradient id="SVGID_00000049903919246392244490000009411599463061524609_" gradientUnits="userSpaceOnUse" x1="584.0801" y1="463.2765" x2="511.2135" y2="443.8075" gradientTransform="matrix(1 0 0 1 0 -42.0001)">
	<stop  offset="0" style="stop-color:#040404"/>
	<stop  offset="0.0743" style="stop-color:#1F1F1F;stop-opacity:0.931"/>
	<stop  offset="0.2686" style="stop-color:#606060;stop-opacity:0.7505"/>
	<stop  offset="0.4537" style="stop-color:#969697;stop-opacity:0.5785"/>
	<stop  offset="0.6245" style="stop-color:#C1C1C1;stop-opacity:0.4199"/>
	<stop  offset="0.7777" style="stop-color:#DFDFE0;stop-opacity:0.2776"/>
	<stop  offset="0.908" style="stop-color:#F1F1F2;stop-opacity:0.1565"/>
	<stop  offset="1" style="stop-color:#F8F8F9;stop-opacity:0.0711"/>
</linearGradient>
<path style="fill:url(#SVGID_00000049903919246392244490000009411599463061524609_);" d="M535.23,399.29
	c-0.13-0.05-0.26-0.08-0.4-0.1c-0.82-0.08-1.93,1.64-2.58,2.15c-1.06,0.83-2.17,1.58-3.29,2.32c-0.89,0.59-1.83,1.15-2.48,2
	c0.99-0.23,1.98-0.46,2.98-0.69c0.61-0.14,1.23-0.28,1.84-0.17c0.54,0.1,1.03,0.39,1.48,0.7c0.99,0.68,2.01,1.42,2.54,2.51
	c0.79,1.65,1.48,3.28,2.44,4.85s1.97,3.14,2.46,4.93c0.1,0.35,0.19,0.67,0.52,0.85c0.6-0.63,0.15-1.96-0.03-2.71
	c-0.5-2.14-0.67-4.36-0.48-6.55c0.09-1.08,0.26-2.15,0.45-3.21c0.17-1,0.8-2,0.16-2.95c-0.35-0.51-0.87-0.87-1.39-1.21
	c-1.17-0.77-2.34-1.54-3.51-2.31C535.72,399.55,535.49,399.39,535.23,399.29z"/>
<g>
	<g>
		<path class="st6" d="M513.64,399.08c0.52-1.65,1.03-3.31,1.52-4.98c0.18-0.62-0.78-0.88-0.96-0.27c-0.49,1.66-0.99,3.32-1.52,4.98
			C512.49,399.43,513.45,399.69,513.64,399.08L513.64,399.08z"/>
	</g>
</g>
<g>
	<g>
		<path class="st6" d="M508.47,425.62c-0.36,5.72-0.25,11.47,0.35,17.18c0.07,0.62,0.21,1.28,0.16,1.91
			c-0.05,0.6-0.42,1.1-0.74,1.58c-0.7,1.05-1.45,2.05-2.22,3.05c-1.57,2.04-3.23,4.07-4.43,6.36c-0.6,1.15-1.05,2.42-0.85,3.74
			c0.17,1.14,0.76,2.27,1.39,3.22c0.56,0.84,1.31,1.53,2.36,1.61c1.28,0.1,2.29-0.78,3.21-1.55c2.04-1.71,3.88-3.66,5.8-5.5
			c2.06-1.97,4.1-3.97,6.12-5.98c1.99-1.99,3.5-4.18,4.59-6.78c1.05-2.53,1.68-5.21,2.29-7.87c0.29-1.25-1.64-1.79-1.93-0.53
			c-0.98,4.26-2,8.86-4.93,12.26c-1.72,1.99-3.72,3.79-5.61,5.62c-1.84,1.78-3.67,3.58-5.52,5.35c-0.89,0.85-1.79,1.69-2.76,2.45
			c-0.66,0.52-1.25,0.78-1.81,0.04c-0.54-0.71-1.13-1.77-1.25-2.65c-0.15-1.18,0.53-2.32,1.11-3.29c1.23-2.07,2.75-3.93,4.21-5.84
			c0.72-0.94,1.43-1.89,2.07-2.88c0.69-1.07,0.97-2.08,0.84-3.35c-0.65-6.03-0.84-12.08-0.46-18.14
			C510.55,424.34,508.55,424.34,508.47,425.62L508.47,425.62z"/>
	</g>
</g>
<g>
	<g>
		<path class="st6" d="M506.79,462.62c0.7,0.69,1.51,1.39,2.49,1.62c1.06,0.25,1.92-0.16,2.73-0.81c1.77-1.43,3.49-2.93,5.21-4.42
			c1.68-1.46,3.35-2.94,5-4.44c1.55-1.41,2.94-2.91,4.08-4.68c1.36-2.1,2.54-4.33,3.79-6.5c0.64-1.12-1.09-2.13-1.73-1.01
			c-1.27,2.2-2.46,4.47-3.85,6.59c-1.34,2.06-3.12,3.66-4.94,5.29c-1.94,1.74-3.91,3.46-5.9,5.15c-0.99,0.84-1.97,1.72-3,2.52
			c-0.4,0.31-0.69,0.48-1.18,0.26c-0.5-0.22-0.91-0.63-1.29-1C507.29,460.3,505.87,461.71,506.79,462.62L506.79,462.62z"/>
	</g>
</g>
<g>
	<g>
		<path class="st6" d="M512.66,398.08c-1.69,1.13-3.21,2.54-4.58,4.04c-0.94,1.03-1.79,2.05-2.33,3.34
			c-0.77,1.82-1.53,3.67-2.56,5.36c-1.12,1.84-2.85,3.22-3.9,5.12c-2.36,4.3-1.12,9.41-0.57,13.99c0.31,2.6,0.46,5.17,0.29,7.78
			c-0.13,2.01,0.33,4.41,2.72,4.73c2.34,0.31,4.46-1.48,5.78-3.21c1.36-1.78,2.31-3.96,2.64-6.18c0.08-0.53-0.13-1.07-0.7-1.23
			c-0.47-0.13-1.15,0.16-1.23,0.7c-0.26,1.77-0.92,3.46-1.9,4.95c-0.86,1.31-2.21,2.79-3.87,3c-2.01,0.25-1.43-2.66-1.38-3.83
			c0.1-2.4-0.12-4.8-0.42-7.19c-0.51-4.02-1.71-8.83,0.41-12.59c0.98-1.74,2.54-3.03,3.63-4.69c0.98-1.48,1.69-3.15,2.38-4.78
			c0.28-0.65,0.5-1.36,0.88-1.97c0.35-0.57,0.81-1.08,1.25-1.58c1.32-1.49,2.79-2.93,4.45-4.04
			C514.73,399.1,513.73,397.36,512.66,398.08L512.66,398.08z"/>
	</g>
</g>
<path class="st7" d="M540.92,403.49c-0.63,3.51-0.92,6.21-1.16,9.87c0,1.04,1.16,2.3,1.37,3c0.14,0.47,0.13,0.97,0.13,1.46
	c-0.04,2.28,0.67,1.52,0.27,3.86c-1.17,6.68-2.33,13.36-3.5,20.04c-0.07,0.4-0.14,0.81-0.32,1.19c-0.17,0.37-0.44,0.68-0.71,0.99
	c-4.46,5.13-9.53,9.68-14.59,14.21c-0.77,0.69-1.54,1.38-2.47,1.84c-0.82,0.41-1.72,0.61-2.61,0.81c-1.58,0.36-3.17,0.72-4.75,1.08"
	/>
<g>
	<g>
		<g>
			<path class="st6" d="M514.13,399.21c0.52-1.65,1.03-3.31,1.52-4.98c0.15-0.5-0.18-1.11-0.7-1.23c-0.54-0.12-1.07,0.16-1.23,0.7
				c-0.49,1.66-0.99,3.32-1.52,4.98c-0.16,0.5,0.19,1.11,0.7,1.23C513.44,400.03,513.96,399.74,514.13,399.21L514.13,399.21z"/>
		</g>
	</g>
</g>
<g>
	<g>
		<path class="st8" d="M567.36,307.04c0.22,7.89-0.16,15.78-0.54,23.67c-0.16,3.29-0.54,6.28-1.62,9.39
			c-1.21,3.49-2.47,6.98-3.22,10.6c-0.39,1.89-0.49,3.72-1.05,5.63c-0.59,2.01-1.28,3.99-1.81,6.01c-0.68,2.6-0.68,5.22-1.28,7.88
			c-0.66,2.89-1.42,5.74-2.2,8.6c-1.17,4.27-2.37,8.54-3.28,12.88c-0.43,2.06-0.73,4.05-1.43,6.03c-0.79,2.24-1.53,4.49-2.17,6.78
			c-0.66,2.39-0.53,7.35-3.02,8.56c-1.29,0.63-4.28-0.03-5.49-0.7c-0.1-0.06-0.2-0.12-0.26-0.22c-0.09-0.15-0.05-0.34-0.01-0.51
			c0.29-1.33,0.34-2.69,0.39-4.05c0.14-3.82-3.22-5.02-6.24-6.48c-2.16-1.04-4.39-1.93-6.61-2.81c-3.13-1.24-6.38-2.17-9.65-2.97
			c-0.74-0.18-1.48-0.35-2.22-0.52c-0.36-0.08-0.73-0.14-1.09-0.25c-0.34-0.1-0.63,0.09-0.81,0.39c-0.11,0.18-0.17,0.39-0.23,0.6
			c-0.18,0.61-0.36,1.23-0.54,1.84c-0.07,0.25-0.2,0.53-0.2,0.8c-0.01,0.27,0.12,0.52,0.01,0.79c-0.12,0.3-0.41,0.49-0.68,0.64
			c-0.52,0.28-1.11,0.39-1.69,0.22c-1.23-0.35-2.07-1.6-2.73-2.61c-0.6-0.92-1.25-1.52-2.05-2.3c-0.61-0.59-1.21-1.27-1.31-2.11
			c-0.17-1.38,0.44-3.03,0.69-4.39c0.31-1.7,0.65-3.39,1.04-5.08c0.59-2.58,0.52-5.44,0.8-8.11c0.57-5.59,1.15-11.18,1.37-16.79
			c0.1-2.47-0.37-4.84,0.01-7.27c0.47-3.04,0.47-6.23,0.57-9.3c0.2-6.21,0.08-12.42-0.37-18.61c-0.21-2.96-0.5-5.97,0.21-8.85
			c0.16-0.65,0.37-1.32,0.31-1.98c-0.07-0.7-0.44-1.33-0.77-1.96c-1.31-2.54-2.06-5.4-2.77-8.15c-1.67-6.42-5.61-12.08-8.38-18.06
			c-0.75-1.61-1.75-3.45-3.51-3.68c-0.38,12.84-2.1,25.64-5.12,38.12c-2.36,9.76-2.73,20.22-3.04,30.23
			c-0.32,10.41-0.16,20.82-0.19,31.23c-0.02,5.1-0.08,10.2-0.27,15.29c-0.07,1.76-0.45,3.09-1.01,4.79
			c-0.79,2.39-1.7,4.94-3.82,6.48c-2.42,1.76-5.5,2.98-8.25,4.11c-5.79,2.37-11.9,3.93-18.06,4.96c-9.06,1.52-18.27,1.92-27.45,2.3
			c-11.02,0.46-27.55,1.96-32.73-10.29c-1.68-3.97-2.13-8.33-2.75-12.59c-0.71-4.91-1.67-9.79-2.88-14.6
			c-0.86,2.23-0.89,4.35-0.83,6.72c0.06,2.1,0.12,4.2,0.17,6.3c0.06,2.11,0.12,4.21,0.17,6.32c0.09,3.61,0.05,7.54-2.14,10.41
			c-1.59,2.08-4.05,3.26-6.42,4.36c-2.98,1.39-6,2.79-9.23,3.45c-3.17,0.65-6.43,0.58-9.67,0.5c-2.19-0.05-4.38-0.11-6.57-0.16
			c-2.35-0.06-4.71-0.12-7.03-0.47c-2.16-0.32-4.27-0.9-6.37-1.47c-3.08-0.84-6.17-1.67-9.25-2.51c-1.79-0.49-4.68-1.63-5.71-3.26
			c-0.32-0.51-0.46-1.11-0.59-1.7c-0.65-2.96-1.3-5.94-1.52-8.97c-0.2-2.68,0.32-5.01,0.64-7.6c0.58-4.67,1.16-9.33,1.73-14
			c0.25-1.99,0.91-3.85,1.13-5.88c0.23-2.16,0.28-4.35,0.16-6.52c-0.03-0.46-0.08-0.97-0.39-1.31c-0.18-0.19-0.43-0.31-0.64-0.47
			c-1.29-0.98-0.44-2.91-0.25-4.2c0.27-1.84,0.52-3.68,0.82-5.51c0.19-1.29,0.4-2.63,1.13-3.71c0.78-1.16,2.15-1.48,2.99-2.46
			c0.77-0.89,0.86-2.55,1-3.67c0.99-7.79,0.9-15.71-0.25-23.48c-0.04-0.26-0.11-0.56-0.34-0.68c-0.34-0.17-0.71,0.16-0.95,0.45
			c-3.69,4.47-9.2,8.78-15.17,9.33c-2.48,0.23-4.88-0.3-7.1-1.42c-2.2-1.1-4.15-2.63-6.09-4.15c-5.02-3.91-10.13-7.76-14.53-12.36
			c-2.78-2.91-5.75-6.13-7.6-9.7c-0.97-1.87-2.45-3.56-3.56-5.36c-1.14-1.83-2.18-3.73-3.04-5.71c-0.56-1.29-1.04-2.62-1.61-3.91
			c-0.58-1.32-1.25-2.59-1.93-3.86c-2.66-5.04-5.37-10.12-9.14-14.43c-0.87-1-1.32-2.1-2.03-3.21c-0.95-1.47-1.89-2.95-2.82-4.43
			c-1.87-2.96-3.72-5.93-5.55-8.91c-3.63-5.91-7.17-11.86-10.64-17.86c-0.8-1.39-1.64-2.91-1.78-4.54c-0.21-2.5,1.98-5.31,3.32-7.28
			c1.54-2.27,3.32-4.37,5.3-6.27c3.91-3.76,8.6-6.71,13.72-8.53c1.46-0.52,3.04-0.85,4.44-1.53c0.39-0.19,0.8-0.41,1.23-0.34
			c0.41,0.07,0.72,0.39,1,0.69c1.16,1.24,2.15,2.66,3.28,3.95c2.52,2.89,5.39,5.45,8.26,8c1.23,1.09,2.45,2.19,3.68,3.28
			c1.17,1.04,2.34,2.08,3.58,3.03c1.56,1.18,3.26,1.91,4.83,3.05c1.76,1.28,3.49,2.62,5.16,4.01c3.35,2.78,6.52,5.79,9.49,8.99
			c0.8,0.86,1.58,1.74,2.25,2.71c0.63,0.91,1.15,1.88,1.74,2.82c1.5,2.42,3.4,4.59,5.6,6.39c0.39-1.68,0.88-3.33,1.45-4.95
			c0.58-1.65,1.87-3.17,2.78-4.67c1.13-1.85,2.22-3.72,3.27-5.61c1.93-3.5,3.4-7.3,5.58-10.61c2.19-3.33,3.91-6.94,5.62-10.53
			c4.14-8.71,8.43-17.28,12.66-25.95c0.59-1.21,1.19-2.43,2.04-3.48c0.81-0.99,1.65-1.93,2.42-2.96c1.26-1.69,3.25-3.9,5.32-4.54
			c2.27-0.7,4.49-1.58,6.73-2.44c1.97-0.76,3.96-1.46,5.97-2.09c2.07-0.65,4.44-0.95,6.43-1.81c3.84-1.66,7.84-3,11.82-4.38
			c0.75-0.26,1.5-0.52,2.17-0.94c0.53-0.33,0.99-0.74,1.45-1.16c3.77-3.47,7.15-7.52,11.69-9.89c0.05,2.04,0.16,4.26,1.48,5.82
			c1.14,1.35,2.98,1.92,4.74,1.9c1.76-0.02,3.47-0.57,5.13-1.13c2.02-0.68,4.03-1.41,6.02-2.17c1.35-0.52,2.75-0.88,4.08-1.45
			c6.09-2.6,12.11-5.38,18.05-8.32c3.01-1.49,5.99-3.02,8.96-4.6c2.37-1.26,4.33-3.19,3.91-6.17c1.33,0.25,2.25,1.47,2.86,2.67
			c1.2,2.34,2.21,4.71,4.35,6.36c1.43,1.1,3.05,1.92,4.55,2.91c1.92,1.27,3.64,2.83,5.1,4.62c1.23,1.51,2.43,3.28,4.31,3.79
			c4.38,1.18,8.72,3.2,13.1,4.7c4.76,1.63,9.55,3.18,14.32,4.8c4.13,1.4,8.37,2.73,12.29,4.61c3.68,1.77,6.01,4.18,8.06,7.74
			c2,3.49,3.62,7.19,4.82,11.04c0.75,2.42,1.34,4.89,2.09,7.3c0.98,3.13,2.24,6.17,3.5,9.2c6.8,16.36,12.71,33.08,19.15,49.58
			c1.59,4.07,3.19,8.13,4.81,12.18c1.66,4.13,3.68,8.1,5.36,12.22c0.8,1.97,1.48,3.75,1.67,5.86c0.21,2.33,0.75,4.64,1.58,6.83
			c0.36,0.95,0.77,1.87,1.04,2.85c0.37,1.36,0.46,2.78,0.52,4.2C567.32,305.59,567.34,306.31,567.36,307.04z M511.33,393.85
			c0.02,0,0.04,0.01,0.07,0.01c-0.01,0.01-0.03,0-0.04,0.01c-0.02,0.01-0.04,0.03-0.06,0.04c-0.02-0.01-0.03-0.02-0.05-0.03
			c-0.33-0.14-0.73-0.09-1.02,0.12c-0.11-0.05-0.21-0.1-0.32-0.15c-0.14-0.06-0.29-0.14-0.43-0.19c-0.15-0.04-0.31-0.04-0.46-0.06
			c-0.21-0.03-0.53,0.12-0.67,0.28c-0.06,0.07-0.11,0.14-0.15,0.21c-0.13-0.17-0.28-0.32-0.41-0.49
			C508.95,393.34,510.16,393.59,511.33,393.85z"/>
		<path class="st9" d="M404.68,164.65c0.02-0.04,0.02-0.09,0.03-0.14c-1.77-0.74-2.67-2.71-3.18-4.56c-0.06-0.2-0.13-0.42-0.32-0.5
			c-0.3-0.13-0.58,0.19-0.75,0.47c-2.79,4.71-5.73,10.76-4.3,16.39c0.15,0.58,0.35,1.16,0.41,1.75c0.07,0.73-0.07,1.45-0.22,2.17
			c-0.64,3.14-1.98,6.33-2.14,9.54c-0.07,1.38,0.11,2.77,0,4.15c-0.1,1.34-0.47,2.64-0.82,3.94c-1.21,4.54-2.19,9.13-2.95,13.77
			c-0.26,1.61-0.5,3.22-0.6,4.85c-0.34,5.26-1.5,10.37-2.42,15.57c-0.15,0.87-1.38,4.69-0.55,5.41c0.21,0.18,0.57,0.09,0.75-0.13
			s0.23-0.51,0.28-0.79c1.27-7.64,3.2-15.12,5.44-22.52c1.51-5.01,3.11-9.99,4.53-15.02c0.72-2.56,1.41-5.12,2.01-7.71
			c0.27-1.15,0.42-2.3,0.85-3.4c0.36-0.93,1.32-2.02,1.14-3.07c-0.05-0.31-0.2-0.59-0.35-0.86c-0.55-1.03-1.66-2.59-1.77-3.76
			c-0.12-1.24,0.99-1.75,1.53-2.75c0.48-0.89,0.77-1.87,0.93-2.86c0.35-2.2,0.08-4.45,0.08-6.68c0-1.05,0.16-2.73,1.5-2.85
			C404.14,165.05,404.57,164.94,404.68,164.65z"/>
		<path class="st9" d="M457.39,144.77c-0.28-0.68-1.79-3.91-2.89-3.11c-0.26,0.19-0.37,0.52-0.39,0.84
			c-0.02,0.32,0.03,0.64,0.02,0.96c-0.02,0.86-0.46,1.68-1.07,2.29c-1.24,1.24-3.23,2.2-4.75,3.06c-3.23,1.85-6.55,3.53-9.93,5.09
			c-5.54,2.56-11.22,4.8-16.93,6.96c-2.38,0.9-4.67,1.68-6.97,2.72c-2.52,1.13-5.31,1.66-8.07,1.5c-1.04-0.06-2.18-0.19-3.04,0.39
			c-1.1,0.74-1.24,2.28-1.27,3.6c-0.01,0.47,0.03,1.03,0.44,1.25c1.18-0.88,2.46-1.64,3.86-2.09c2.23-0.71,4.62-0.59,6.95-0.47
			c0.44,0.02,0.89,0.05,1.29,0.25c0.28,0.14,0.51,0.35,0.73,0.56c0.72,0.66,1.66,1.42,2.06,2.34c0.32,0.73,0.35,1.54,0.67,2.29
			c0.83,1.99,1.71,3.97,1.6,6.18c-0.06,1.24-0.59,2.97-1.36,3.97c-0.68,0.88-2.44,1.05-2.69,2.26c-0.09,0.44,0.08,0.88,0.23,1.3
			c0.95,2.74,0.84,5.71,0.68,8.6c-0.72,13.53-2.06,27.02-4.04,40.42c-0.08,0.52-0.07,1.2,0.42,1.38
			c5.94-12.42,11.82-24.83,18.07-37.09c2.67-5.23,5.57-10.34,8.47-15.45c1.48-2.61,3.03-5.18,4.44-7.83
			c3.46-6.51,7.91-12.68,11.68-18.99c1.71-2.86,3.05-5.36,2.8-8.86C458.32,147.82,457.99,146.22,457.39,144.77z"/>
	</g>
	<path class="st10" d="M419.33,176.82c-0.15-0.47-0.34-0.94-0.53-1.4c-0.49-1.21-0.98-2.43-1.47-3.64c-0.34-0.85-0.7-1.73-1.34-2.39
		c-0.49-0.51-1.11-0.86-1.76-1.13c-3.2-1.34-6.98-0.7-9.98,1.05c-0.66,0.38-1.32,0.86-1.63,1.56c-0.17,0.39-0.22,0.83-0.28,1.26
		c-0.35,2.31-1.32,4.48-2.28,6.62c-0.23,0.51-0.46,1.05-0.4,1.6c0.04,0.38,0.22,0.73,0.39,1.07c0.33,0.66,0.68,1.32,1.17,1.87
		c0.22,0.24,0.47,0.46,0.64,0.74c0.69,1.13-0.06,2.74-0.49,3.83c-2.33,5.83-4.09,11.86-5.84,17.88c0,0.88-0.6,2.06-0.85,2.91
		c-0.28,0.95-0.55,1.84-0.65,2.81c-0.21,2.12-0.77,4.25-1.24,6.33c-0.59,2.63-1.27,5.24-2.03,7.82c-0.69,2.35-1.71,4.56-2.12,6.95
		c-0.27,1.55-0.54,3.1-0.8,4.66c-0.25,1.44-0.78,2.75-1.16,4.16c-0.79,2.92-1.21,5.93-1.59,8.93c-0.63,5.05-1.11,10.14-1.33,15.22
		c-0.22,4.97-0.28,9.98-0.2,14.96c0.04,2.5,0.14,4.99,0.27,7.48c0.15,2.89,0.21,5.68,0.67,8.55c0,1.55,0.53,3.28,0.78,4.82
		c0.21,1.29,0.14,3.27,0.75,4.44c0.18,0.35,0.56,0.7,1.01,0.64c0.74-0.11,0.7-1.14,0.8-1.74c0.27-1.64,0.43-3.31,0.9-4.91
		c0.58-1.95,1.27-3.87,1.98-5.79c1.49-4.02,3.06-8.01,4.65-12c1.55-3.88,3.03-7.79,4.52-11.7c1.53-3.99,3.54-8.13,4.45-12.31
		c1.03-2.02,1.97-4.09,2.88-6.15c0.72-1.63,1.27-3.44,2.12-5c0.66-1.2,1.1-2.48,1.77-3.68c0.66-1.19,1.51-2.35,1.59-3.71
		c0.03-0.49-0.05-0.98-0.1-1.47c-0.25-2.55,0.32-5.13,0.62-7.66c0.32-2.63,0.57-5.26,0.85-7.89c0.22-1.97,0.41-3.94,0.6-5.91
		c0.12-1.3,0.27-2.58,0.33-3.87c0.13-0.06,0.24-0.18,0.29-0.35c0.7-2.63,0.78-5.55,0.96-8.25c0.19-2.82,0.26-5.64,0.22-8.46
		c-0.04-2.91-0.19-5.74-0.5-8.63c-0.04-0.36-0.08-0.72-0.03-1.08c0.14-1.03,0.95-1.83,1.7-2.56c1.28-1.26,2.25-3.28,2.01-5.11
		C419.58,177.7,419.47,177.26,419.33,176.82z"/>
	<g>
		<g>
			<path class="st9" d="M411.3,168.22c0.19,1.74,1.08,3.26,2.3,4.5c0.6,0.61,1.26,1.15,1.95,1.65c0.7,0.51,1.46,0.92,2.33,0.98
				c0.64,0.05,0.64-0.95,0-1c-0.71-0.05-1.32-0.47-1.87-0.88c-0.6-0.45-1.18-0.93-1.7-1.46c-1.01-1.03-1.85-2.32-2.01-3.79
				c-0.03-0.27-0.21-0.5-0.5-0.5C411.56,167.72,411.28,167.95,411.3,168.22L411.3,168.22z"/>
		</g>
	</g>
	<g>
		<g>
			<path class="st9" d="M406.59,168.93c1.68,5.72,6.25,10.37,11.94,12.16c0.62,0.19,0.88-0.77,0.27-0.96
				c-5.35-1.68-9.66-6.09-11.24-11.46C407.37,168.05,406.41,168.31,406.59,168.93L406.59,168.93z"/>
		</g>
	</g>
	<g>
		<g>
			<path class="st9" d="M402.37,171.59c1.46,6.57,7.7,10.11,13.22,12.94c0.57,0.29,1.08-0.57,0.5-0.86
				c-5.29-2.71-11.36-6.04-12.76-12.35C403.2,170.69,402.23,170.96,402.37,171.59L402.37,171.59z"/>
		</g>
	</g>
	<g>
		<g>
			<path class="st9" d="M400.76,177.65c0.51,1.71,1.63,3.15,2.96,4.32c0.72,0.63,1.5,1.2,2.29,1.75c0.33,0.23,0.75,0.65,1.17,0.63
				c0.58-0.02,0.69-0.76,0.25-1.05c-0.54-0.35-1.04,0.51-0.5,0.86c0.01,0.01,0.03,0.02,0.04,0.03c-0.08-0.14-0.17-0.29-0.25-0.43
				c0,0.02,0,0.04,0,0.05c0.05-0.12,0.1-0.24,0.15-0.35c-0.01,0.01-0.02,0.03-0.04,0.04c0.12-0.05,0.24-0.1,0.35-0.15
				c-0.03,0-0.06,0-0.08,0c0.08,0.02,0.17,0.05,0.25,0.07c-0.64-0.35-1.24-0.83-1.82-1.26c-0.59-0.44-1.16-0.91-1.69-1.43
				c-0.95-0.94-1.74-2.05-2.12-3.34C401.54,176.76,400.57,177.03,400.76,177.65L400.76,177.65z"/>
		</g>
	</g>
	<g>
		<g>
			<path class="st9" d="M411.86,184.82c-0.17-0.35-0.6-0.44-0.91-0.22c-0.39,0.27-0.26,0.74-0.1,1.11c0.56,1.28,1.13,2.55,1.7,3.82
				c1.12,2.51,2.24,5.03,3.36,7.54c0.26,0.59,1.12,0.08,0.86-0.5c-0.85-1.91-1.7-3.82-2.55-5.74c-0.41-0.92-0.82-1.84-1.23-2.76
				c-0.22-0.5-0.44-0.99-0.66-1.49c-0.09-0.21-0.19-0.42-0.28-0.64c-0.11-0.24-0.38-0.64-0.34-0.92c-0.08,0.14-0.17,0.29-0.25,0.43
				c0.03-0.02,0.06-0.04,0.09-0.06c-0.13,0.02-0.26,0.03-0.39,0.05c0.03,0.01,0.07,0.01,0.1,0.02c-0.1-0.08-0.2-0.15-0.3-0.23
				c0.01,0.03,0.03,0.05,0.04,0.08C411.28,185.91,412.15,185.4,411.86,184.82L411.86,184.82z"/>
		</g>
	</g>
	<g>
		<g>
			<path class="st9" d="M405.5,184.66c0.47,4.29,2.32,8.27,3.92,12.24c1.7,4.24,3.41,8.48,5.11,12.71c0.24,0.59,1.2,0.33,0.96-0.27
				c-1.67-4.16-3.35-8.32-5.02-12.48c-1.58-3.93-3.51-7.94-3.97-12.2C406.43,184.03,405.43,184.02,405.5,184.66L405.5,184.66z"/>
		</g>
	</g>
	<g>
		<g>
			<path class="st9" d="M400.06,188.29c1.03,10.61,3.82,21.02,8.26,30.72c1.26,2.75,2.65,5.44,4.17,8.05
				c0.32,0.56,1.19,0.05,0.86-0.5c-5.26-9.08-8.98-19.01-10.99-29.31c-0.58-2.96-1.01-5.95-1.3-8.95
				C401,187.66,400,187.65,400.06,188.29L400.06,188.29z"/>
		</g>
	</g>
	<g>
		<g>
			<path class="st9" d="M395.82,203.3c2.82,10.73,6.2,21.31,10.12,31.68c1.1,2.91,2.25,5.8,3.43,8.68c0.24,0.59,1.21,0.33,0.96-0.27
				c-4.22-10.26-7.92-20.73-11.05-31.37c-0.88-2.99-1.71-5.98-2.5-8.99C396.62,202.41,395.66,202.67,395.82,203.3L395.82,203.3z"/>
		</g>
	</g>
	<g>
		<g>
			<path class="st9" d="M392.44,216.28c1.29,11.33,3.8,22.5,7.51,33.29c1.05,3.06,2.2,6.09,3.45,9.08c0.24,0.59,1.21,0.33,0.96-0.27
				c-4.34-10.45-7.54-21.37-9.52-32.51c-0.57-3.18-1.03-6.38-1.4-9.59C393.36,215.65,392.36,215.64,392.44,216.28L392.44,216.28z"/>
		</g>
	</g>
	<g>
		<g>
			<path class="st9" d="M388.28,233.01c2.32,9.46,5.08,18.82,8.28,28.02c0.91,2.61,1.86,5.21,2.83,7.8c0.23,0.6,1.19,0.34,0.96-0.27
				c-3.45-9.11-6.47-18.39-9.04-27.79c-0.73-2.67-1.42-5.35-2.08-8.03C389.09,232.12,388.13,232.39,388.28,233.01L388.28,233.01z"/>
		</g>
	</g>
	<g>
		<g>
			<path class="st9" d="M385.39,246.22c1.44,8.95,3.82,17.74,7.12,26.18c0.92,2.35,1.9,4.67,2.95,6.96c0.27,0.58,1.13,0.08,0.86-0.5
				c-3.72-8.13-6.58-16.65-8.53-25.37c-0.56-2.49-1.03-5.01-1.44-7.53C386.25,245.32,385.28,245.59,385.39,246.22L385.39,246.22z"/>
		</g>
	</g>
	<g>
		<g>
			<path class="st9" d="M383.77,266.01c1.32,7.72,3.92,15.19,7.65,22.07c0.31,0.57,1.17,0.06,0.86-0.5
				c-3.7-6.81-6.25-14.19-7.55-21.83C384.63,265.11,383.66,265.38,383.77,266.01L383.77,266.01z"/>
		</g>
	</g>
	<g>
		<g>
			<path class="st9" d="M383.53,283.59c0.59,2.06,1.41,4.01,2.32,5.95c0.9,1.93,1.62,4.19,3.16,5.72c0.46,0.45,1.17-0.25,0.71-0.71
				c-0.74-0.73-1.22-1.64-1.65-2.57c-0.45-0.98-0.9-1.97-1.36-2.95c-0.87-1.86-1.65-3.74-2.22-5.71
				C384.32,282.71,383.36,282.97,383.53,283.59L383.53,283.59z"/>
		</g>
	</g>
</g>
<linearGradient id="SVGID_00000113326749428700124180000008457444008723604915_" gradientUnits="userSpaceOnUse" x1="511.038" y1="433.5846" x2="510.9518" y2="442.6869" gradientTransform="matrix(1 0 0 1 0 -42.0001)">
	<stop  offset="0" style="stop-color:#040404"/>
	<stop  offset="0.2579" style="stop-color:#0C1424;stop-opacity:0.7418"/>
	<stop  offset="0.5591" style="stop-color:#132442;stop-opacity:0.4402"/>
	<stop  offset="0.8168" style="stop-color:#172E54;stop-opacity:0.1823"/>
	<stop  offset="0.9988" style="stop-color:#19315B;stop-opacity:0"/>
</linearGradient>
<path style="fill:url(#SVGID_00000113326749428700124180000008457444008723604915_);" d="M508.17,393.78c-0.09-0.01-0.2,0-0.25,0.08
	c-0.04,0.08,0.01,0.17,0.05,0.24c1.11,1.67,2.56,3.11,4.23,4.22c0.18,0.12,0.4,0.24,0.61,0.19c0.28-0.07,0.41-0.38,0.5-0.65
	c0.25-0.77,0.5-1.53,0.75-2.3c0.04-0.13,0.08-0.27,0.03-0.4c-0.04-0.1-0.12-0.16-0.2-0.23C512.23,393.69,510.13,393.9,508.17,393.78
	z"/>
<linearGradient id="SVGID_00000085938789002669238640000002600136371153481915_" gradientUnits="userSpaceOnUse" x1="543.6916" y1="445.1108" x2="541.2535" y2="457.7333" gradientTransform="matrix(1 0 0 1 0 -42.0001)">
	<stop  offset="0" style="stop-color:#040404"/>
	<stop  offset="0.2579" style="stop-color:#0C1424;stop-opacity:0.7418"/>
	<stop  offset="0.5591" style="stop-color:#132442;stop-opacity:0.4402"/>
	<stop  offset="0.8168" style="stop-color:#172E54;stop-opacity:0.1823"/>
	<stop  offset="0.9988" style="stop-color:#19315B;stop-opacity:0"/>
</linearGradient>
<path style="fill:url(#SVGID_00000085938789002669238640000002600136371153481915_);" d="M540.76,408.34
	c-0.02,0.35-0.05,0.7-0.07,1.04c-0.01,0.09-0.01,0.18,0.03,0.26c0.05,0.08,0.13,0.12,0.22,0.16c0.69,0.3,1.41,0.54,2.14,0.7
	c0.46,0.1,1.03,0.13,1.3-0.25c0.15-0.21,0.17-0.5,0.1-0.75s-0.22-0.47-0.37-0.69c-0.62-0.9-1.34-1.87-2.24-2.52
	C540.61,405.39,540.81,407.66,540.76,408.34z"/>
<linearGradient id="SVGID_00000091708751432081273510000004963787877876443062_" gradientUnits="userSpaceOnUse" x1="537.4136" y1="389.2306" x2="459.4887" y2="378.0318" gradientTransform="matrix(1 0 0 1 0 -42.0001)">
	<stop  offset="0" style="stop-color:#040404"/>
	<stop  offset="0.3944" style="stop-color:#070707;stop-opacity:0.6056"/>
	<stop  offset="0.6457" style="stop-color:#0F0F0F;stop-opacity:0.3543"/>
	<stop  offset="0.8564" style="stop-color:#1E1E1E;stop-opacity:0.1436"/>
	<stop  offset="1" style="stop-color:#2D2D2D;stop-opacity:0"/>
</linearGradient>
<path style="fill:url(#SVGID_00000091708751432081273510000004963787877876443062_);" d="M483.29,260.3
	c0.09,2.44,0.92,5.81-0.37,8.02c-0.59,1-1.53,1.73-2.46,2.43c-6.75,5.05-13.97,9.47-21.53,13.19c-3.4,1.67-6.91,3.24-9.79,5.7
	c-0.28,0.24-0.57,0.51-0.7,0.85c-0.49,1.32,1.37,2.2,2.77,2.36c7.91,0.91,15.9,1.18,23.85,0.81c1.54-0.07,3.25-0.11,4.43,0.88
	c1.32,1.11,1.47,3.15,0.88,4.77s-1.76,2.94-2.79,4.33c-2.2,2.97-3.82,6.44-4.21,10.11c-0.15,1.43-0.11,2.87-0.31,4.29
	c-0.28,2.11-1.06,4.11-1.88,6.07c-1.11,2.63-2.41,5.1-3.84,7.57c-1.11,1.93-1.68,4.46-3.03,6.19c-0.61,0.78-1.52,1.33-1.95,2.23
	c-0.39,0.83-0.29,1.81-0.64,2.66c-0.68,1.69-2.76,2.24-4.56,2.57c-5.54,1.02-11.09,2.04-16.63,3.06c3.13-0.59,6.84-0.13,10.03-0.19
	c2.53-0.05,6.79-0.99,8.69,1.13c0.84,0.93,1.28,2.15,1.75,3.31c0.69,1.7,1.48,3.35,2.38,4.95c0.2,0.36,0.41,0.75,0.34,1.15
	s-0.4,0.74-0.4,1.14c0,0.59,0.68,1.24,0.26,1.65c-0.15,0.14-0.37,0.16-0.58,0.18c-4.24,0.26-8.48,0.52-12.73,0.78
	c1.83,0.35,3.69,0.7,5.32,1.59c1.16,0.63,2.19,1.52,3.45,1.92c2.24,0.71,4.65-0.27,6.99-0.13c0.4,0.02,2.35,2.31,2.72,2.75
	c0.73,0.89,1.38,1.89,2.07,2.81c1.9,2.53,3.33,5.39,4.51,8.32c1.72,4.27,4.52,9.74,1.52,13.94c-0.72,1-1.52,1.94-2.41,2.79
	c-0.64,0.62-1.33,1.2-1.89,1.89c-0.66,0.82-1.12,1.79-1.61,2.72c-3.49,6.66-8.17,11.18-15.59,13.17c1.09,0.81,2.62,0.59,3.95,0.29
	c6.04-1.37,11.9-3.51,17.4-6.35c2.54-1.31,5.13-2.9,6.46-5.44c0.83-1.58,1.09-3.4,1.28-5.18c0.41-3.82,0.55-7.67,0.44-11.51
	c-0.11-3.87-0.04-7.42,0.52-11.25c0.54-3.67,0.17-7.71,0.23-11.47c0.14-8.61,0.28-17.22,0.42-25.83c0.04-2.53,0.08-5.07,0.29-7.59
	c0.25-3.14,0.76-6.26,1.3-9.37c1.09-6.2,2.42-12.34,3.69-18.5c1.15-5.53,1.44-11.41,1.8-17.06c0.17-2.77,0.25-5.7-1.08-8.13
	c-0.64-1.17-1.57-2.15-2.42-3.17C486.44,269.9,484.23,265.22,483.29,260.3z"/>
<linearGradient id="SVGID_00000142156876651050684260000018029388711639761313_" gradientUnits="userSpaceOnUse" x1="365.7741" y1="251.1565" x2="447.0056" y2="293.4045" gradientTransform="matrix(1 0 0 1 0 -42.0001)">
	<stop  offset="0" style="stop-color:#040404"/>
	<stop  offset="0.3944" style="stop-color:#070707;stop-opacity:0.6056"/>
	<stop  offset="0.6457" style="stop-color:#0F0F0F;stop-opacity:0.3543"/>
	<stop  offset="0.8564" style="stop-color:#1E1E1E;stop-opacity:0.1436"/>
	<stop  offset="1" style="stop-color:#2D2D2D;stop-opacity:0"/>
</linearGradient>
<path style="fill:url(#SVGID_00000142156876651050684260000018029388711639761313_);" d="M475.64,168.46
	c-0.17-2.31-0.2-4.78-1.18-6.7c-0.54-1.22-1.85-2.21-2.8-3.09c-1.23-1.16-2.41-2.36-3.57-3.59c-0.1-0.11-0.22-0.23-0.37-0.25
	c-0.47-0.07-1.11,5.13-1.24,5.8c-0.4,2.05-0.88,4.08-1.43,6.1c-1.55,5.7-4.54,12.02-10.31,13.3c0.23,1.19,0.45,2.39,0.68,3.58
	c-0.75,0.04-1.5,0.07-2.25,0.11c2.85,11.37-2.33,23.1-7.99,33.36c-9.93,18.02-21.75,34.96-31.23,53.21
	c-2.49,4.8-4.84,9.72-8.19,13.96c-5.04,6.38-9.26,13.17-12.2,20.79c-1.48,3.83-2.65,7.79-3.49,11.81c-0.41,1.96-0.74,3.93-0.98,5.91
	c-0.16,1.27,0.19,4.64-0.49,5.64c29.12-43.13,66.44-81.25,87.83-128.69c0.38-0.83,0.75-1.77,0.47-2.63
	c-0.28-0.84-1.09-1.36-1.75-1.95c-1.25-1.11-2.1-2.78-1.87-4.44c0.27-1.94,2-2.45,3.05-3.82c1.04-1.36,1.47-3.42,1.53-5.1
	c0.14-3.67-1.18-7.22-1.92-10.83C475.79,170.17,475.7,169.32,475.64,168.46z"/>
<linearGradient id="SVGID_00000008831165329308681050000013855373960219527048_" gradientUnits="userSpaceOnUse" x1="322.6229" y1="239.739" x2="390.0233" y2="240.4907">
	<stop  offset="0" style="stop-color:#040404"/>
	<stop  offset="0.3944" style="stop-color:#070707;stop-opacity:0.6056"/>
	<stop  offset="0.6457" style="stop-color:#0F0F0F;stop-opacity:0.3543"/>
	<stop  offset="0.8564" style="stop-color:#1E1E1E;stop-opacity:0.1436"/>
	<stop  offset="1" style="stop-color:#2D2D2D;stop-opacity:0"/>
</linearGradient>
<path style="fill:url(#SVGID_00000008831165329308681050000013855373960219527048_);" d="M395.82,169.34
	c-0.23,1.04-0.29,2.11-0.14,3.18c0.18,1.24,0.52,2.48,0.74,3.73c0.12,0.65,0.24,1.31,0.23,1.98c0,0.61-0.12,1.22-0.23,1.83
	c-0.32,1.73-0.63,3.46-0.95,5.2c-1.12,6.18-2.25,12.35-3.37,18.53c-0.44,2.44-1.3,4.76-1.77,7.19c-0.55,2.82-1.01,5.66-1.39,8.51
	c-0.19,1.44-0.36,2.88-0.53,4.32c-0.19,1.62-0.39,3.24-0.59,4.86c-0.15,1.25-0.3,2.5-0.46,3.75c-1.06,8.75-2.25,17.48-3.09,26.25
	c-0.4,4.19-0.52,8.13-0.41,12.35c0.12,4.44,0.25,8.88,0.39,13.33c0.09,2.75,0.18,5.51,0.28,8.26c0.06,1.8,0.13,3.6,0.35,5.38
	c0.42,3.4,1.39,6.73,1.6,10.15c0.33,5.29-1.18,10.56-1.03,15.86c-1.95-1.06-3.3-3.01-4.08-5.09c-1.82-4.87-1.86-10.64-2.39-15.76
	c-0.57-5.64-1.09-11.29-1.43-16.96c-0.35-5.8-0.53-11.62-1.1-17.41c-0.23-2.35-0.53-4.69-0.84-7.03c-1.1-8.25-3.15-17.42-1.81-25.73
	c1.39-8.58,2.5-17.35,2.44-26.07c-0.01-0.77-0.02-1.54,0.17-2.29c0.53-2.08,2.47-3.42,4.19-4.71c4.08-3.09,7.56-6.98,10.19-11.37
	c1.26-2.11,2.29-3.22,0.68-4.99c-1.85-2.05-4.55-3.8-6.81-5.37c1.4-2.64,2.8-5.29,4.05-8.01c0.62-1.35,1.21-2.73,1.74-4.12
	c0.43-1.12,0.54-2.78,1.35-3.63c2.55-2.66,5.24-5.17,8.07-7.53c0.52-0.43,1.1-0.88,1.77-0.87c0.13,0,0.27,0.02,0.37,0.1
	c0.18,0.15,0.18,0.42,0.15,0.65c-0.31,2.15-1.94,3.82-3.29,5.52C397.5,165.08,396.3,167.16,395.82,169.34z"/>
<linearGradient id="SVGID_00000132782194844900295660000004404199581166008449_" gradientUnits="userSpaceOnUse" x1="333.7632" y1="210.2445" x2="364.1201" y2="237.9276" gradientTransform="matrix(1 0 0 1 0 -42.0001)">
	<stop  offset="0" style="stop-color:#040404"/>
	<stop  offset="0.3944" style="stop-color:#070707;stop-opacity:0.6056"/>
	<stop  offset="0.6457" style="stop-color:#0F0F0F;stop-opacity:0.3543"/>
	<stop  offset="0.8564" style="stop-color:#1E1E1E;stop-opacity:0.1436"/>
	<stop  offset="1" style="stop-color:#2D2D2D;stop-opacity:0"/>
</linearGradient>
<path style="fill:url(#SVGID_00000132782194844900295660000004404199581166008449_);" d="M375.01,178
	c-6.75,2.25-13.44,4.71-20.04,7.37c-0.86,0.35-1.72,0.7-2.46,1.25c-1.33,0.99-2.14,2.51-3.09,3.87c-1.2,1.71-2.67,3.23-3.75,5.02
	c-2.8,4.68-2.5,10.51-2.11,15.94c0.83-2.58,2.78-4.77,5.24-5.9c2.46-1.13,5.4-1.18,7.89-0.12c0.16,1.58,1.15,3.06,2.56,3.79
	c1.63,0.85,3.57,0.7,5.4,0.54c1.75-1.95,0.12-5.48,1.83-7.47c0.45-0.52,1.08-0.86,1.68-1.19c5.29-2.85,10.36-6.1,15.15-9.72
	c-1.41-2.64-5.01-3.7-6.04-6.52c-0.61-1.67-0.12-3.45,0.6-4.99c0.56-1.21,2-2.59,1.87-3.97C378.2,176.64,376.69,177.45,375.01,178z"
	/>
<linearGradient id="SVGID_00000084519159751830141380000008072559298421420203_" gradientUnits="userSpaceOnUse" x1="442.1017" y1="327.6018" x2="528.0433" y2="292.7741">
	<stop  offset="0" style="stop-color:#040404"/>
	<stop  offset="0.3944" style="stop-color:#070707;stop-opacity:0.6056"/>
	<stop  offset="0.6457" style="stop-color:#0F0F0F;stop-opacity:0.3543"/>
	<stop  offset="0.8564" style="stop-color:#1E1E1E;stop-opacity:0.1436"/>
	<stop  offset="1" style="stop-color:#2D2D2D;stop-opacity:0"/>
</linearGradient>
<path style="fill:url(#SVGID_00000084519159751830141380000008072559298421420203_);" d="M508.11,261.18
	c-1.53,0.78-3.04,1.62-4.53,2.47c-0.96,0.54-2.06,1.11-3.12,0.79c-1.7-0.51-2.64-3.42-3.34-4.86c-1.98-4.11-3.96-8.23-5.94-12.34
	c-2.11-4.38-4.43-8.9-4.57-13.88c-0.13-4.56,1.78-8.88,2.97-13.28c1.13-4.13,1.64-8.42,1.51-12.7c0.04,1.26-3.08,4.57-3.8,5.71
	c-1.37,2.16-2.69,4.35-3.95,6.58c-0.82,1.45-6.73,10.24-4.08,11.55c2.19,9.87,1.46,20.3,4.52,29.94
	c2.55,8.04,7.59,15.02,12.55,21.85c0.48,0.66,1.04,2.29,1.43,3c2.78,5.09,5.44,10.26,7.75,15.58c2.19,5.05,3.72,8.52,2.45,13.95
	c-0.57,2.43-0.44,4.95-0.3,7.44c0.58,10.48,1.17,20.97,1.24,31.46c0.07,10.39-0.38,20.91-3.26,30.9c-0.93,3.21-2.07,6.79-0.53,9.76
	c0.68,1.3,1.8,2.31,2.94,3.25c0.71,0.59,1.47,1.18,2.37,1.4s1.98-0.04,2.46-0.83c-1.34-1.31-2.67-2.63-4-3.95
	c-0.36-0.36-0.74-0.76-0.84-1.26c-0.24-1.16,1.05-2.07,1.28-3.22c0.12-0.58-0.04-1.18-0.04-1.77c0-1.94,1.6-3.43,2.72-5.01
	c1.71-2.41,2.41-5.38,3.03-8.27c2.26-10.63,3.83-21.45,7.24-31.78c1.94-5.89,4.49-11.68,4.99-17.86c0.29-3.55-0.1-7.22,1.03-10.6
	c0.55-1.64,1.46-3.34,0.98-5.01c-0.55-1.94-2.71-2.89-4.65-3.46c3.76-2.79,7.2-3.9,11.8-2.72c3.11,0.8,6.31,2.81,9.26,4.13
	c-1.29-3.9-5.55-5.93-9.5-7.04c-5.3-1.49-9.72-2.82-15.35-2.26c-1.67,0.17-3.44,0.39-4.93-0.37c-1.11-0.56-1.9-1.59-2.65-2.59
	c-1.47-1.96-2.81-3.93-3.92-6.11c-0.69-1.37-1.99-3.31-0.68-4.77c0.37-0.41,0.9-0.63,1.42-0.83c3.51-1.38,7.06-2.78,10.81-3.17
	c-4.99-2.28-9.98-4.56-14.98-6.84c-0.28-0.13-0.58-0.27-0.76-0.53c-0.25-0.38-0.16-0.87-0.06-1.31c0.38-1.58,0.86-3.14,1.43-4.66
	c0.97,0.23,1.91-0.42,2.68-1.05c3.37-2.74,6.47-5.82,9.24-9.16C514.8,258.07,511.4,259.49,508.11,261.18z"/>
<linearGradient id="SVGID_00000081617998468285183970000014972035954529232059_" gradientUnits="userSpaceOnUse" x1="310.7051" y1="198.5397" x2="282.8931" y2="277.4658">
	<stop  offset="0" style="stop-color:#040404"/>
	<stop  offset="0.3077" style="stop-color:#080808;stop-opacity:0.6923"/>
	<stop  offset="0.6285" style="stop-color:#151515;stop-opacity:0.3715"/>
	<stop  offset="0.9543" style="stop-color:#292929;stop-opacity:0.0457"/>
	<stop  offset="1" style="stop-color:#2D2D2D;stop-opacity:0"/>
</linearGradient>
<path style="fill:url(#SVGID_00000081617998468285183970000014972035954529232059_);" d="M319.64,274.24
	c-0.26-0.92-1.29-2.59-1.16-3.24c-0.62,3.33,0.25,6.94-1.08,10.06c-1.07,2.49-3.35,4.2-5.53,5.79
	c-9.52-7.34-19.83-14.53-31.72-16.31c-0.96-0.14-1.96-0.26-2.79-0.76c-1.79-1.07-2.19-3.42-2.71-5.44
	c-0.36-1.39-1.04-2.95-2.27-3.77c-0.54-0.36-1.12-0.51-1.64-0.89c-0.6-0.43-1.07-1.01-1.71-1.42c-2.2-1.38-5.27-2.22-5.84-4.75
	c-0.39-1.72-0.47-3.03-1.48-4.63c-0.98-1.54-2.31-2.87-3.86-3.84c-1.77-1.1-3.87-1.79-5.18-3.41c-0.8-0.99-1.22-2.23-1.63-3.44
	c-1.77-5.22-3.76-10.49-7.14-14.91c-0.48-0.62-1.04-1.66-1.85-1.9c-1.27-0.37-1.7,0.9-2.27,1.81c-1.96,3.14-3.67,6.63-2.14,10.34
	c0.33,0.81,0.79,1.56,1.24,2.3c1.18,1.94,2.4,3.84,3.63,5.74c1.04,1.61,1.54,3.5,2.48,5.19c2.03,3.65,4.75,6.85,7.01,10.35
	c1.72,2.66,3.17,5.48,4.85,8.16c2.59,4.13,5.73,7.89,8.38,11.98c2.12,3.27,4.22,6.83,5.67,10.46c1.44,3.61,3.03,7.28,4.94,10.64
	c1.96,3.43,4.72,6.09,7.38,8.96c2.6,2.8,4.92,5.8,7.7,8.45c3.52,3.37,6.76,6.73,10.92,9.39c3.21,2.06,5.67,4.8,9.62,5.5
	c4.34,0.77,8.85-0.78,12.36-3.3c1.71-1.23,2.89-2.8,4.34-4.25c1.58-1.57,2.92-2.84,3.23-5.2c0.14-1.02,0.06-2.05,0.02-3.07
	c-0.13-3.66,0.31-7.3,0.36-10.94c0.05-3.59,0.06-7.19,0.13-10.78c0.13-6.71,0.78-13.19,2.26-19.74c1.44-6.38,1.98-13.04,2.73-19.53
	c0.1-0.85,0.2-1.7,0.29-2.54c0.4-3.48,0.81-6.97,1.21-10.45c-1.3,1.91-2.44,3.92-3.4,6.02c-0.57,1.24-1.08,2.52-1.8,3.68
	c-1.87,2.99-5.08,5.08-6.42,8.34c-0.13,0.32-0.24,0.67-0.16,1.01c0.12,0.48,0.59,0.77,0.9,1.16c0.6,0.77,0.51,1.87,0.35,2.84
	c-0.63,3.98-1.76,8.05-4.42,11.08c-0.56,0.63-1.24,1.24-2.07,1.35c-1.44,0.18-1.5-0.9-1.65-1.87
	C319.68,274.39,319.66,274.32,319.64,274.24z"/>
<linearGradient id="SVGID_00000152964570635133057190000009685512136898564285_" gradientUnits="userSpaceOnUse" x1="279.1429" y1="321.2553" x2="347.8028" y2="318.9893">
	<stop  offset="0" style="stop-color:#040404"/>
	<stop  offset="0.3944" style="stop-color:#070707;stop-opacity:0.6056"/>
	<stop  offset="0.6457" style="stop-color:#0F0F0F;stop-opacity:0.3543"/>
	<stop  offset="0.8564" style="stop-color:#1E1E1E;stop-opacity:0.1436"/>
	<stop  offset="1" style="stop-color:#2D2D2D;stop-opacity:0"/>
</linearGradient>
<path style="fill:url(#SVGID_00000152964570635133057190000009685512136898564285_);" d="M337.73,250.72
	c-2.03,16.59-4.69,33.13-6.07,49.79c-0.6,7.27-0.31,14.19,0.06,21.42c0.39,7.66-0.19,15.33-0.76,22.97
	c-0.15,2.07-0.69,4.62-2.7,5.13c-0.35,0.09-0.73,0.11-1.01,0.32c-0.35,0.26-0.45,0.72-0.53,1.15c-0.75,3.96-1.51,7.93-2.26,11.89
	c1.29,0.12,1.61,1.84,1.58,3.14c-0.05,2.09-0.1,4.17-0.15,6.26c-0.1,4.01-0.2,8.04-0.81,12.01c-0.3,1.91-0.71,3.81-1,5.72
	c-0.85,5.69-0.54,11.48-0.22,17.23c0.07,1.21,1.23,2.93,1.73,1.28c0.18-0.59-0.35-1.72-0.29-2.4c0.11-1.22,0.72-2.54,1.04-3.72
	c1.38-4.99,2.59-10.06,3.04-15.22c0.2-2.33,0.26-4.69,0.81-6.97c0.77-3.14,2.48-6.1,2.48-9.34c0-0.51-0.02-1.07,0.31-1.46
	c0.3-0.35,0.8-0.43,1.25-0.49c2.18-0.3,4.35-0.6,6.53-0.89c1.96-0.27,3.98-0.55,5.71-1.51s3.15-2.76,3.06-4.74
	c-5.87,1.71-12.1,2.21-18.17,1.46c-0.57-1.62-1.1-3.57-0.03-4.92c0.39-0.49,0.95-0.82,1.45-1.2c1.79-1.36,2.94-3.54,3.04-5.79
	c0.02-0.49,0.02-1.03,0.35-1.38c0.4-0.44,1.09-0.38,1.69-0.33c3,0.28,6.07-0.27,8.78-1.58c-2.84-0.38-5.64-1.06-8.34-2.03
	c0.21,0.08-0.35-8.63-0.49-9.42c-0.53-2.95-1.29-5.88-0.96-8.91c0.35-3.18,1.61-6.2,1.78-9.42c0.16-3.04-0.62-6.04-0.38-9.08
	c0.15-1.95-0.48-4.29,0.36-6.09c0.26-0.55,0.62-1.05,0.98-1.55c2.26-3.12,4.51-6.24,6.77-9.35c-3.44,1.82-7.06,3.82-8.96,7.22
	c-0.02-4.74,1.23-9.41,1.21-14.06c-0.03-4.98-0.13-9.89,0.32-14.86c0.31-3.34,0.77-6.67,1.08-10.01c0.45-4.94,0.56-9.9,0.63-14.86
	c0.04-3.16,0.07-6.32,0.08-9.48c0-1.65,0.87-6.46-0.79-7.37c-0.89,3.31-0.67,7.39-1.01,10.85
	C338.57,243.66,338.16,247.19,337.73,250.72z"/>
<linearGradient id="SVGID_00000068643351484334203030000005541850509497905043_" gradientUnits="userSpaceOnUse" x1="-1906.4889" y1="-63.4703" x2="-1912.5598" y2="-73.7836" gradientTransform="matrix(0.6752 -0.4841 0.5263 0.734 1872.5952 -474.4622)">
	<stop  offset="0" style="stop-color:#040404"/>
	<stop  offset="0.1001" style="stop-color:#080C13;stop-opacity:0.8997"/>
	<stop  offset="0.3418" style="stop-color:#0F1C32;stop-opacity:0.6578"/>
	<stop  offset="0.5768" style="stop-color:#152849;stop-opacity:0.4225"/>
	<stop  offset="0.8" style="stop-color:#182F56;stop-opacity:0.1991"/>
	<stop  offset="0.9988" style="stop-color:#19315B;stop-opacity:0"/>
</linearGradient>
<path style="fill:url(#SVGID_00000068643351484334203030000005541850509497905043_);" d="M547.28,399.44
	c0.13-0.89-0.16-1.95-0.63-2.67c-0.2-0.31-0.47-0.61-0.83-0.67c0.44,1.06,0.02,2.36-0.85,3.11c-0.38,0.33-0.71,0.49-0.91,0.99
	c-0.03,0.07-0.05,0.15-0.04,0.22s0.05,0.12,0.09,0.18c0.23,0.31,0.5,0.65,0.88,0.73c0.18,0.04,0.38,0,0.56-0.04
	c0.3-0.07,0.59-0.18,0.84-0.36C546.85,400.6,547.2,400,547.28,399.44z"/>
<linearGradient id="SVGID_00000026846299289310420520000008704149581412164994_" gradientUnits="userSpaceOnUse" x1="232.8785" y1="277.4395" x2="247.8812" y2="273.9773" gradientTransform="matrix(1 0 0 1 0 -42.0001)">
	<stop  offset="0" style="stop-color:#040404"/>
	<stop  offset="0.181" style="stop-color:#090F19;stop-opacity:0.8188"/>
	<stop  offset="0.5303" style="stop-color:#12213D;stop-opacity:0.4691"/>
	<stop  offset="0.8154" style="stop-color:#172D53;stop-opacity:0.1836"/>
	<stop  offset="0.9988" style="stop-color:#19315B;stop-opacity:0"/>
</linearGradient>
<path style="fill:url(#SVGID_00000026846299289310420520000008704149581412164994_);" d="M242.54,232.12
	c-0.03,0.29,0,0.59,0.05,0.88c0.05,0.28,0.12,0.56,0.24,0.81c0.48,1.05,1.81,1.61,2.9,1.23c0.02-0.09-0.07-0.17-0.14-0.23
	c-0.54-0.44-0.85-1.11-0.96-1.79c-0.1-0.69-0.01-1.39,0.17-2.06c0.04-0.15,0.08-0.32,0.01-0.46c-0.08-0.16-0.28-0.21-0.46-0.22
	C243.31,230.22,242.63,231.13,242.54,232.12z"/>
<linearGradient id="SVGID_00000052102864523403720560000014277747259930814901_" gradientUnits="userSpaceOnUse" x1="459.1867" y1="317.0376" x2="423.0728" y2="211.2752" gradientTransform="matrix(1 0 0 1 0 -42.0001)">
	<stop  offset="0" style="stop-color:#000000"/>
	<stop  offset="1" style="stop-color:#FFFFFF;stop-opacity:0"/>
</linearGradient>
<path style="fill:url(#SVGID_00000052102864523403720560000014277747259930814901_);" d="M420.49,179.66
	c0.94,0.72,2.33,1.82,2.49,1.84c0.24,0.02,0.47-0.04,0.7-0.1c9-2.31,17.38-6.95,24.12-13.35c0.69,0.22,0.45,1.25,0.08,1.87
	c-3.21,5.37-6.41,10.75-9.62,16.12c-0.77,1.29-1.56,2.61-2.69,3.6c-0.84,0.75-1.85,1.28-2.79,1.9c-2.84,1.85-5.19,4.45-6.75,7.46
	c-1.23,2.37-1.96,4.96-3.05,7.39c-2.04,4.55-5.27,8.44-8.45,12.27c0.33-2.57,0.66-5.14,0.99-7.71c0.67-5.16,0.56-10.37,1.01-15.57
	c0.28-3.21,0.55-6.48-0.21-9.61c-0.08-0.32-0.17-0.66-0.1-0.98c0.1-0.45,0.47-0.77,0.81-1.09c1.31-1.24,2.22-2.89,2.59-4.66
	C419.62,179.02,419.99,179.29,420.49,179.66z"/>
<linearGradient id="SVGID_00000101094359530899863520000014644357665778155909_" gradientUnits="userSpaceOnUse" x1="425.4738" y1="178.7271" x2="444.0057" y2="214.4978" gradientTransform="matrix(1 0 0 1 0 -42.0001)">
	<stop  offset="0" style="stop-color:#000000"/>
	<stop  offset="1" style="stop-color:#FFFFFF;stop-opacity:0"/>
</linearGradient>
<path style="fill:url(#SVGID_00000101094359530899863520000014644357665778155909_);" d="M420.33,178.85
	c0.09,0.15,0.19,0.3,0.28,0.45c0.6,0.95,1.39,1.96,2.51,2.07c0.55,0.05,1.09-0.13,1.61-0.3c3.34-1.14,6.65-2.36,9.94-3.64
	c1.05-0.41,2.09-0.83,3.08-1.36c3.14-1.72,5.51-4.6,8.59-6.41c0.83-0.49,1.72-0.9,2.44-1.54c0.63-0.55,1.11-1.24,1.58-1.92
	c2.32-3.34,4.65-6.69,6.48-10.31c0.71-1.41,1.53-3.11,1.5-4.72c-0.01-0.52-0.12-1.01-0.11-1.54c0.01-0.41-0.27-2.08-0.13-2.33
	c-0.43,0.79-0.86,1.59-1.29,2.38c-1.28,2.37-2.58,4.76-4.39,6.75c-1.25,1.38-2.71,2.53-4.17,3.69c-2.6,2.05-5.21,4.12-8.08,5.78
	s-6.02,2.91-9.32,3.22c-0.66,0.06-1.33,0.09-1.96,0.3c-0.63,0.22-1.21,0.66-1.4,1.3c-0.14,0.48-0.04,1.02-0.21,1.49
	c-0.4,1.14-1.96,1.24-3.15,1.04c-1.36-0.23-2.71-0.58-4.01-1.05c-0.94-0.34-2.47-1.46-3.41-1.43
	C417.13,173.5,418.9,176.51,420.33,178.85z"/>
<linearGradient id="SVGID_00000168091481845326042680000009574997308070707078_" gradientUnits="userSpaceOnUse" x1="412.3878" y1="196.9232" x2="397.2245" y2="216.3232" gradientTransform="matrix(1 0 0 1 0 -42.0001)">
	<stop  offset="0" style="stop-color:#000000"/>
	<stop  offset="1" style="stop-color:#FFFFFF;stop-opacity:0"/>
</linearGradient>
<path style="fill:url(#SVGID_00000168091481845326042680000009574997308070707078_);" d="M400.8,170.25
	c0.87-0.07,0.8,2.25,0.78,2.75c-0.04,0.81-0.11,1.63-0.22,2.43c-0.17,1.19-0.44,2.41-1.15,3.38c-0.58,0.78-1.59,1.65-2.47,0.78
	c-0.33-0.33-0.52-0.78-0.67-1.23c-1.22-3.58-1.05-7.54,0.06-11.16c0.36-1.16,0.83-2.33,1.7-3.17c0.68,2.41-0.2,5.18,0.97,7.4
	c0.13-0.38,0.28-0.79,0.61-1.02C400.56,170.31,400.69,170.26,400.8,170.25z"/>
<linearGradient id="SVGID_00000031896799104924754320000016108784929493641633_" gradientUnits="userSpaceOnUse" x1="373.1746" y1="239.4436" x2="395.9045" y2="250.9749" gradientTransform="matrix(1 0 0 1 0 -42.0001)">
	<stop  offset="0" style="stop-color:#000000"/>
	<stop  offset="1" style="stop-color:#FFFFFF;stop-opacity:0"/>
</linearGradient>
<path style="fill:url(#SVGID_00000031896799104924754320000016108784929493641633_);" d="M388.12,226.04
	c-0.19,1.33-0.37,2.67-0.55,4.01c-0.23,1.72-0.47,3.44-0.6,5.16c1.88-2.4,2.14-5.65,2.57-8.67c0.89-6.2,1.28-12.28,2.84-18.39
	c1.59-6.19,3.69-12.23,5.8-18.26c0.4-1.16,0.81-2.32,1.38-3.41c1.04-2,1.92-4.84-0.22-6.53c-0.57,0.47-2-0.09-1.97-0.11
	c-0.89,0.73-1.11,2.97-1.4,4.02c-0.41,1.51-0.76,3.03-1.1,4.56c-0.66,3.05-1.22,6.12-1.84,9.18c-1.24,6.05-2.36,12.12-3.35,18.21
	C389.12,219.21,388.6,222.62,388.12,226.04z"/>
<linearGradient id="SVGID_00000070115335703672969310000009907775959182502835_" gradientUnits="userSpaceOnUse" x1="396.1903" y1="363.3441" x2="379.6485" y2="364.2505">
	<stop  offset="0" style="stop-color:#040404"/>
	<stop  offset="0.3944" style="stop-color:#070707;stop-opacity:0.6056"/>
	<stop  offset="0.6457" style="stop-color:#0F0F0F;stop-opacity:0.3543"/>
	<stop  offset="0.8564" style="stop-color:#1E1E1E;stop-opacity:0.1436"/>
	<stop  offset="1" style="stop-color:#2D2D2D;stop-opacity:0"/>
</linearGradient>
<path style="fill:url(#SVGID_00000070115335703672969310000009907775959182502835_);" d="M387,375.07
	c0.78,10.65,0.02,21.36-0.96,31.99c-0.1,1.09-0.21,2.2-0.67,3.18c-0.67,1.44-2.12,2.49-3.69,2.69c1.68-3.59,3.4-7.51,2.59-11.39
	c-0.24-1.15-0.7-2.26-0.83-3.43c-0.13-1.09,0.03-2.18,0.12-3.27c0.24-2.81,0.04-5.65-0.6-8.4c-1.02-4.44-3.16-8.69-3.16-13.25
	c0-3,2.17-10.67-2.93-9.31c-0.59,0.16-1.18,0.31-1.77,0.47c-0.27,0.07-0.54,0.14-0.79,0.27c-0.3,0.15-0.57,0.36-0.83,0.57
	c-0.96,0.78-1.92,1.59-3.03,2.15c-1.1,0.57-2.38,0.89-3.6,0.63c1.91-1.5,4.08-2.65,6.02-4.11c6.3-4.75,8.32-10.94,8.22-18.66
	c-0.07-5.62-0.77-11.21-1.47-16.79c-0.17-1.34-0.34-2.68-0.51-4.02c-0.37-2.95-0.74-5.89-1.11-8.84c1.77,2.56,3.55,5.11,5.32,7.67
	c0.43,0.62,0.87,1.25,1.13,1.96c0.36,0.98,0.36,2.05,0.36,3.09c0,7.61-0.35,15.27-0.11,22.87
	C384.97,359.17,386.42,367.08,387,375.07z"/>
<linearGradient id="SVGID_00000160885355501176195720000003143172400945801639_" gradientUnits="userSpaceOnUse" x1="408.1452" y1="199.8223" x2="409.6345" y2="221.4564" gradientTransform="matrix(1 0 0 1 0 -42.0001)">
	<stop  offset="0" style="stop-color:#000000"/>
	<stop  offset="1" style="stop-color:#FFFFFF;stop-opacity:0"/>
</linearGradient>
<path style="fill:url(#SVGID_00000160885355501176195720000003143172400945801639_);" d="M402.6,166.89
	c0.34-0.85,0.98-1.62,1.85-1.9c0.67-0.22,1.38-0.12,2.08-0.08c2.09,0.14,4.2-0.13,6.18-0.79c0.56-0.19,1.17-0.4,1.71-0.17
	c0.42,0.18,0.69,0.59,0.88,1.01c0.43,0.96,0.53,2.06,0.29,3.08c-2.21-0.77-4.64-0.8-6.94-0.34s-4.48,1.4-6.54,2.52
	c-0.2,0.11,0.04-1.24,0.05-1.31C402.28,168.22,402.34,167.55,402.6,166.89z"/>
<linearGradient id="SVGID_00000129184056936207170880000000467993406345365146_" gradientUnits="userSpaceOnUse" x1="429.8728" y1="219.3252" x2="406.9681" y2="217.4085" gradientTransform="matrix(1 0 0 1 0 -42.0001)">
	<stop  offset="0" style="stop-color:#000000"/>
	<stop  offset="1" style="stop-color:#2C9FD7;stop-opacity:0"/>
</linearGradient>
<path style="fill:url(#SVGID_00000129184056936207170880000000467993406345365146_);" d="M413.39,171.26c0.7,1.7,1.21,3.48,1.53,5.3
	c0.13,0.73,0.22,1.49,0.09,2.22c-0.44,2.43-2.93,3.65-4.42,5.36c1.12-0.46,3.25,0.08,4.43,0.26c0.46,0.07,0.93,0.15,1.39,0.08
	c0.82-0.13,1.49-0.74,1.94-1.43c1.25-1.93,1.76-4.73,1.03-6.91c-0.5-1.48-1.35-2.81-1.98-4.24c-0.37-0.86-0.67-1.77-1.22-2.53
	c-0.68-0.93-2.81-2.4-4.04-1.71C410.87,168.36,413.02,170.35,413.39,171.26z"/>
<linearGradient id="SVGID_00000078039871494203964530000007362399670386445489_" gradientUnits="userSpaceOnUse" x1="380.66" y1="218.1005" x2="417.1869" y2="220.9224" gradientTransform="matrix(1 0 0 1 0 -42.0001)">
	<stop  offset="0" style="stop-color:#000000"/>
	<stop  offset="1" style="stop-color:#2C9FD7;stop-opacity:0"/>
</linearGradient>
<path style="fill:url(#SVGID_00000078039871494203964530000007362399670386445489_);" d="M401.21,178.26
	c0.01,0.22,0.02,0.45,0.11,0.66c0.09,0.22,0.26,0.4,0.43,0.57c0.31,0.32,0.61,0.64,0.92,0.95c0.91,0.94,1.87,1.98,2.03,3.28
	c-0.91,0.04-1.81,0.34-2.56,0.86c-0.98-0.88-1.83-1.9-2.52-3.01c-0.25-0.4-0.48-0.85-0.41-1.32c0.06-0.37,0.3-0.68,0.51-0.98
	c1.07-1.51,1.66-3.34,1.68-5.18c0.01-0.69-0.06-1.38,0.04-2.05c0.11-0.72,0.25-1.22,0.94-1.07
	C401.82,173.43,401.1,175.66,401.21,178.26z"/>
<linearGradient id="SVGID_00000082329883284563389620000008110486635030849712_" gradientUnits="userSpaceOnUse" x1="363.3425" y1="276.2749" x2="418.605" y2="278.7129" gradientTransform="matrix(1 0 0 1 0 -42.0001)">
	<stop  offset="0" style="stop-color:#000000"/>
	<stop  offset="1" style="stop-color:#2C9FD7;stop-opacity:0"/>
</linearGradient>
<path style="fill:url(#SVGID_00000082329883284563389620000008110486635030849712_);" d="M406.82,253.33c0.78-2,1.41-4.27,2.51-6.09
	c1.01-1.66,1.74-2.99,2.24-4.93c1.31-5.15,1.77-10.54,2.51-15.81c0.81-5.71,1.52-11.43,1.92-17.19c0.27-3.97,0.35-7.93,0.3-11.9
	c-0.04-3.28,0.36-6.39-0.04-9.73c-0.46-3.8-3.96-3.8-7.32-3.42c2.29,8.84,1.83,18.01-0.2,26.86c-0.66,2.87-1.43,5.78-3.07,8.23
	c-0.72,1.08-1.6,2.06-2.12,3.24c-0.48,1.09-0.64,2.29-0.83,3.47c-1.14,7.09-3.92,13.74-5.03,20.78c-1.15,7.32-2.39,14.63-4.11,21.83
	c-0.24,1-0.49,2-0.49,3.03c0,0.61,0.08,1.23,0.13,1.84c0.08,1.08,0.15,2.27-0.02,3.34c-0.16,1-0.59,1.85-0.62,2.9
	c-0.08,2.51-0.17,5.02-0.25,7.53c-0.01,0.23,0.05,0.53,0.27,0.56c0.19,0.02,0.32-0.18,0.4-0.36c1.99-4.32,3.73-8.7,5.66-13.06
	C401.36,267.38,404.07,260.39,406.82,253.33z"/>
<g>
	<path class="st31" d="M471.44,196.57c-0.14-0.71-0.77-1.19-1.35-1.61c-2.88-2.07-5.77-4.13-8.65-6.2c-0.5-0.36-1.01-0.72-1.47-1.13
		c-0.5-0.44-1.01-0.86-1.52-1.28c-1.02-0.83-2.04-1.63-3.06-2.49c-1.02-0.85-1.99-1.75-2.91-2.7c-0.91-0.94-1.8-1.91-2.55-2.99
		c-0.37-0.52-0.71-1.06-1.02-1.62c-0.25-0.45-0.44-1.19-0.89-1.47c-0.08-0.05-0.2,0-0.22,0.09c-0.21,0.95,0.94,2.3,1.4,3.03
		c0.66,1.06,1.36,2.1,2.1,3.11c1.48,2.01,3.13,3.89,5.02,5.53c3.56,3.09,7.84,5.23,11.52,8.17c0.46,0.37,0.89,0.76,1.29,1.19
		c-0.17,0.53-0.15,1.11-0.28,1.65c-0.12,0.51-0.3,1.01-0.51,1.48c-0.43,0.97-1,1.87-1.59,2.75c-1.32,1.97-2.57,3.86-3.54,6.03
		c-1.06,2.37-2.16,4.71-3.43,6.98c-1.33,2.36-2.77,4.66-4.07,7.04c-0.05,0.1,0.08,0.17,0.14,0.08c3.31-4.43,6.09-9.17,8.51-14.13
		c1.04-2.13,2.46-3.98,3.75-5.96c0.01-0.01,0.01-0.02,0.02-0.03c0.09,0.02,0.19,0.02,0.26-0.07c0.67-0.79,1.32-1.62,1.81-2.53
		c0.13-0.23,0.24-0.47,0.35-0.71c0.05,0.32,0.07,0.65,0.02,0.98C470.56,198.65,471.66,197.67,471.44,196.57z"/>
	<path class="st31" d="M518.35,177.07c-0.43-0.33-0.89-0.62-1.34-0.91c-0.77-0.49-1.56-0.97-2.4-1.33c-1.19-0.5-2.47-0.75-3.74-0.95
		c-1.28-0.2-2.49-0.63-3.73-1.01c-4.02-1.24-8.04-2.48-12.06-3.74c-1.96-0.61-3.92-1.23-5.89-1.81c-0.74-0.22-1.5-0.41-2.26-0.63
		c0-0.11-0.04-0.23-0.18-0.27c-0.79-0.24-1.58-0.49-2.37-0.73c-0.19-0.1-0.39-0.19-0.58-0.31c-1.52-1-2.93-1.97-4.63-2.66
		c-1.22-0.5-2.57-1.21-3.9-1.32c-0.54-0.05-0.93,0.1-1.44-0.18c-0.45-0.25-0.81-0.67-1.07-1.1c-0.43-0.71-0.69-1.52-1.18-2.19
		c-0.47-0.64-1.12-1.13-1.76-1.6c-1.09-0.8-2.17-1.6-3.26-2.4c-0.14-0.1-0.32-0.22-0.48-0.16c-0.23,0.08,0.13,0.8,0.19,0.92
		c0.18,0.43,0.18,0.77,0.26,1.22c0.25,1.42,0.11,2.83-0.07,4.25c0.62-0.35,1.41-0.35,2.04-0.02c0.77,0.41,1.29,1.17,1.78,1.9
		c0.86,1.3,1.73,2.6,2.59,3.89c0.39,0.59,0.81,1.2,1.44,1.5c0.01-0.88-0.16-1.7-0.16-2.56c-0.01-0.41,0.1-0.92,0.5-1.02
		c0.22-0.06,0.45,0.04,0.66,0.14c4.56,2.17,8.68,5.23,13.41,7c1.14,0.42,2.32,0.77,3.53,0.81c0.8,0.02,1.6-0.1,2.41-0.1
		c1.18-0.01,2.35,0.21,3.5,0.44c3.86,0.76,7.71,1.58,11.43,2.86c1.85,0.64,3.67,1.39,5.4,2.31c0.86,0.46,1.65,1.04,2.51,1.49
		c0.76,0.4,1.35,0.66,1.99,1.29c1.04,1.01,1.89,2.19,2.74,3.37c0.08-0.33-0.02-0.67-0.12-1
		C521.4,180.35,520.12,178.41,518.35,177.07z"/>
	<path class="st31" d="M439.06,186.78c-0.42,0.64-0.85,1.27-1.29,1.9c-1.08,1.54-2.27,2.84-2.92,4.59c-0.74,2-1.83,3.91-2.76,5.83
		c-1.52,3.11-3.04,6.22-4.57,9.32c-3,6.09-5.91,12.22-8.82,18.35c-1.62,3.42-3.34,6.79-4.78,10.29c-0.01,0.03,0.04,0.05,0.06,0.02
		c-0.07,0.14-0.14,0.28-0.2,0.43c-1.73,3.74-3.24,7.51-5.01,11.22c-1.76,3.69-3.18,7.54-4.23,11.49
		c7.85-9.15,10.51-21.5,15.47-32.49c4.1-9.08,9.84-17.3,15.69-25.36c1.68-2.31,3.39-4.64,4.49-7.28c0.68-1.64,1.12-3.36,1.53-5.09
		c0.97-4.12,1.79-8.27,2.43-12.46C442.7,180.75,441,183.84,439.06,186.78z"/>
	<path class="st31" d="M481.32,309.13v0.14c0,0.03,0.04,0.03,0.04,0v-0.14C481.36,309.11,481.32,309.11,481.32,309.13z"/>
	<path class="st31" d="M480.86,308.48c-0.55,0.42-0.94,0.77-1.39,1.31c-0.45,0.55-0.89,1.11-1.32,1.67
		c-0.85,1.08-1.68,2.18-2.46,3.31c-0.77,1.13-1.51,2.3-2.18,3.49c-0.43,0.76-1.47,2.43-0.65,3.21c0.08,0.08,0.23,0.09,0.31,0
		c0.33-0.38,0.3-0.88,0.43-1.35c0.18-0.66,0.51-1.26,0.86-1.84c0.67-1.12,1.39-2.2,2.1-3.29c0.69-1.05,1.39-2.11,2.13-3.13
		c0.42-0.58,0.86-1.16,1.31-1.73c0.41-0.52,0.68-0.97,0.98-1.56C481.01,308.52,480.93,308.42,480.86,308.48z"/>
	<g>
		<path class="st31" d="M546.85,397.38C546.86,397.37,546.85,397.37,546.85,397.38L546.85,397.38z"/>
		<path class="st31" d="M546.34,396.16c-0.23-0.08-0.46-0.04-0.69,0c-0.19,0.03-0.38,0.1-0.55,0.18c-0.3,0.13-0.61,0.32-0.81,0.58
			c-0.11,0.14-0.21,0.28-0.29,0.44c-0.09,0.18-0.13,0.35-0.15,0.55c-0.02,0.15-0.02,0.31,0.01,0.46c0.01,0.07,0.04,0.16,0.08,0.23
			c0.02,0.04,0.05,0.06,0.08,0.09c0.02,0.03,0.04,0.07,0.06,0.11c0.03,0.05,0.12,0.05,0.13-0.02c0.01-0.05,0.01-0.1,0.04-0.14
			c0.04-0.06,0.06-0.11,0.09-0.17c0.05-0.12,0.09-0.22,0.17-0.34c0.02-0.03,0.04-0.05,0.06-0.08c-0.04,0.05,0,0,0.02-0.02
			c0.04-0.04,0.07-0.09,0.11-0.14c-0.03,0.04-0.03,0.03,0,0c0.04-0.05,0.09-0.1,0.14-0.14c0.02-0.02,0.05-0.05,0.08-0.07
			c0,0,0,0,0.01-0.01c0.11-0.07,0.22-0.15,0.33-0.22c0.03-0.02,0.06-0.03,0.09-0.05c0.02-0.01,0.05-0.02,0.06-0.02
			c-0.01,0-0.03,0.01-0.06,0.02c0.07-0.02,0.13-0.05,0.2-0.07c0.14-0.04,0.28-0.07,0.41-0.1c0.06-0.02,0.13-0.03,0.19-0.04
			c0.11-0.02,0.2-0.06,0.3-0.11c0.18-0.08,0.26-0.32,0.24-0.5C546.67,396.38,546.53,396.23,546.34,396.16z"/>
	</g>
	<path class="st31" d="M246.77,232.15c-0.18-0.87-0.69-1.8-1.56-2.11c-0.07-0.03-0.13,0.08-0.08,0.13c0.36,0.32,0.52,1.07,0.63,1.53
		c0.14,0.62,0.16,1.27-0.04,1.88c-0.09,0.27-0.24,0.54-0.25,0.83c0,0.03,0,0.07,0.02,0.1c0.03,0.04,0.09,0.03,0.14,0.02
		C246.63,234.3,246.95,233.01,246.77,232.15z"/>
	<path class="st31" d="M468.33,351.32c-0.45-1.07-0.89-2.28-1.99-2.85c-1.19-0.62-2.79-0.48-4.08-0.46
		c-6.32,0.07-12.64,0.13-18.96,0.23c-1.8,0.03-3.6,0.05-5.4,0.14c-1.01,0.05-2.23,0.14-2.66,1.19c-0.06,0.15,0.13,0.25,0.25,0.19
		c1.1-0.54,2.15-0.52,3.35-0.49c1.37,0.03,2.75,0.03,4.12,0.03c2.75,0,5.5,0,8.24-0.01c2.8-0.01,5.61-0.03,8.41-0.03
		c1.37,0,2.74-0.04,4.11,0.02c0.61,0.03,1.29,0.04,1.87,0.26c0.63,0.24,0.98,0.86,1.32,1.41c0.75,1.23,1.24,2.62,1.6,4.01
		c0.38,1.48,0.76,2.92,0.96,4.44c0.01,0.11,0.16,0.11,0.18,0C469.99,356.51,469.45,353.96,468.33,351.32z"/>
	<path class="st31" d="M346.92,350.18c-2.65-0.46-5.48-0.47-8.16-0.46c-2.56,0.01-5.11,0.2-7.65,0.5c0.84-0.96,1.18-2.1,1.34-3.36
		c0.2-1.59,0.25-3.21,0.32-4.81c0.17-3.41,0.27-6.82,0.29-10.23c0.05-6.88-0.12-13.77-0.09-20.65c0-0.51,0.02-1.02,0.02-1.53
		c0.11-1.15,0.13-2.33,0.27-3.43c0.24-2.03,0.77-3.95,1.26-5.93c0.78-3.17,0.13-6.48-0.67-9.61c0.51-6.74,1.19-13.46,1.96-20.18
		c0.87-7.57,2.36-15.09,2.99-22.69c0-0.06-0.09-0.07-0.1-0.01c-1.69,6.46-2.63,13.19-3.56,19.8c-0.93,6.55-1.85,13.08-2.44,19.68
		c-0.6,6.69-0.97,13.4-1.06,20.11c-0.09,6.72,0.12,13.44,0.17,20.16c0.03,3.74,0.02,7.49-0.11,11.23c-0.06,1.93-0.17,3.85-0.32,5.77
		c-0.13,1.62-0.14,3.51-1.23,4.84c-0.27,0.33-0.16,0.73,0.08,0.95c-0.87,0.12-1.77,0.29-2.45,0.88c-0.8,0.7-1.01,1.74-1.2,2.73
		c-0.27,1.38-0.55,2.76-0.8,4.14c-0.24,1.33-0.52,2.59-0.43,3.94c0.01,0.12,0.17,0.18,0.23,0.06c1.06-2.1,1.36-4.61,1.86-6.9
		c0.22-1.02,0.3-2.56,1.21-3.24c0.83-0.62,2.22-0.61,3.2-0.72c2.46-0.28,4.94-0.45,7.41-0.5c1.24-0.03,2.48-0.06,3.71-0.02
		c1.29,0.03,2.58,0.18,3.87,0.19C347.21,350.89,347.33,350.25,346.92,350.18z"/>
	<path class="st31" d="M526.3,305.06c-1.08,0.26-2.18,0.41-3.26,0.67c-1.13,0.27-2.23,0.63-3.33,0.99
		c-2.06,0.67-4.15,1.35-6.13,2.25c-1.65,0.74-3.15,1.74-3.95,3.42c-0.85,1.77-1.14,3.82-1.34,5.76c-0.48,4.54-0.05,9.16,0.18,13.69
		c0.24,4.53,0.48,9.06,0.48,13.6c0,2.58-0.07,5.16-0.25,7.74c-0.17,2.57-0.53,5.11-0.78,7.67c-0.04,0.42,0.61,0.48,0.72,0.1
		c1.14-4.16,1.35-8.63,1.44-12.92c0.1-4.42-0.08-8.85-0.3-13.27c-0.21-4.27-0.55-8.56-0.5-12.83c0.03-2.26,0.2-4.52,0.71-6.72
		c0.46-1.96,1.21-3.55,3.03-4.56c2.04-1.14,4.33-1.95,6.51-2.77c1.09-0.41,2.19-0.79,3.27-1.21c1.19-0.47,2.32-1.06,3.51-1.53
		C526.35,305.1,526.34,305.05,526.3,305.06z"/>
	<path class="st31" d="M511.58,398.83c-1.02-0.68-2.04-1.3-2.98-2.1c-0.93-0.8-1.79-1.68-2.54-2.64c-0.39-0.5-0.92-1.03-0.96-1.69
		c-0.05-0.72,0.17-1.52,0.29-2.24c0.23-1.39,0.38-2.81,0.66-4.19c0.01-0.03-0.04-0.05-0.05-0.01c-0.39,1.52-0.92,3.02-1.38,4.52
		c-0.22,0.71-0.53,1.48-0.44,2.24c0.08,0.62,0.44,1.16,0.8,1.66c1.56,2.11,3.71,4.19,6.1,5.34
		C511.66,400,512.13,399.2,511.58,398.83z"/>
	<path class="st31" d="M541.85,306.4c-0.51-0.24-1.07-0.39-1.6-0.56c-0.56-0.17-1.12-0.34-1.68-0.53c-0.54-0.18-1.07-0.37-1.59-0.59
		c-0.51-0.21-1.01-0.58-1.55-0.66c-0.11-0.02-0.21,0.09-0.15,0.19c0.27,0.47,0.81,0.73,1.27,0.97c0.52,0.28,1.07,0.5,1.63,0.71
		c0.55,0.21,1.11,0.39,1.66,0.58c0.57,0.19,1.13,0.44,1.71,0.61C541.96,307.25,542.26,306.6,541.85,306.4z"/>
	<path class="st31" d="M400.36,158.72c-0.71,0.24-1.22,0.85-1.77,1.36c-0.57,0.53-1.13,1.07-1.69,1.6
		c-1.21,1.14-2.42,2.28-3.62,3.42c-1.02,0.97-2.04,1.94-3.06,2.91c-0.4,0.21-0.67,0.57-0.99,0.89c-0.32,0.32-0.65,0.61-0.97,0.93
		c-0.29,0.29-0.56,0.59-0.83,0.91c-0.3,0.29-0.6,0.58-0.9,0.88c-2.09,2.1-4.11,4.28-5.93,6.63c-0.67,0.86-1.46,1.83-2.11,2.86
		c-0.92,1.34-1.54,3.01-1.26,4.64c0.01,0,0.02-0.01,0.03-0.01c0.09,0.26,0.49,0.34,0.57,0.01c0.45-1.85,1.12-3.51,2.44-4.92
		c1.3-1.4,3.04-2.15,4.47-3.38c1.5-1.28,1.85-3.18,2.85-4.79c0.54-0.86,1.2-1.6,1.93-2.3c0.31-0.29,0.67-0.61,0.95-0.96
		c1.3-1.22,2.6-2.44,3.89-3.66c1.13-1.06,2.25-2.13,3.38-3.19c0.56-0.53,1.13-1.06,1.69-1.6c0.54-0.52,1.15-0.98,1.44-1.69
		C401.02,158.95,400.65,158.62,400.36,158.72z"/>
	<path class="st31" d="M386.26,170.11c-1.63,0.22-3.25,0.94-4.82,1.45c-1.64,0.54-3.28,1.08-4.92,1.61
		c-3.25,1.06-6.49,2.15-9.71,3.28c-3.15,1.11-6.28,2.28-9.34,3.61c-2.79,1.21-5.38,2.79-7.38,5.12c-1.15,1.33-2.19,2.78-3.17,4.23
		c-0.99,1.47-2.2,3.04-2.73,4.75c-0.05,0.16,0.15,0.25,0.26,0.15c1.15-1.05,1.99-2.47,2.93-3.71c0.96-1.27,1.93-2.55,2.95-3.77
		c0.98-1.16,2.04-2.25,3.3-3.09c0.3-0.2,0.61-0.39,0.92-0.57c0.49-0.2,0.99-0.37,1.51-0.5c1.92-0.48,3.91-0.24,5.73-1.14
		c1.81-0.89,3.49-2.06,5.3-2.96c0.94-0.47,1.9-0.9,2.87-1.31c0.95-0.39,2.01-0.67,2.91-1.18c0.03-0.02,0.04-0.04,0.06-0.05
		c1.03-0.34,2.05-0.68,3.08-1.03c1.79-0.6,3.58-1.21,5.38-1.81c1.7-0.57,3.63-0.98,5.2-1.86
		C387.14,171.05,386.94,170.02,386.26,170.11z"/>
	<path class="st31" d="M339.85,203.14c-0.53,0.74-0.99,1.42-1.4,2.24c-0.44,0.89-0.87,1.78-1.33,2.66
		c-0.87,1.66-1.74,3.31-2.57,4.99c-1.66,3.36-3.34,6.71-4.97,10.08c-3.15,6.53-6.81,12.75-10.22,19.14c-1.98,3.7-4.03,7.4-5.8,11.2
		c-0.32,0.68,0.64,1.27,1.02,0.59c0.05-0.09,0.09-0.18,0.14-0.26c0.23,0.06,0.48,0,0.59-0.26c0.63-1.41,1.53-2.93,2.71-3.95
		c0.53-0.46,1.28-0.3,1.78-0.83c0.47-0.51,0.65-1.35,0.88-1.97c1.23-3.34,2.56-6.69,3.36-10.17c0.39-0.7,0.78-1.41,1.17-2.12
		c3.64-6.44,6.73-13.13,9.86-19.83c0.89-1.9,1.75-3.81,2.59-5.74c0.42-0.96,0.86-1.91,1.31-2.87c0.45-0.96,0.76-1.84,1.04-2.86
		C340.03,203.11,339.91,203.07,339.85,203.14z"/>
	<path class="st31" d="M318.65,272.28c-0.24-1.25-0.69-2.45-1.11-3.65c-0.42-1.2-0.88-2.4-1.17-3.64c-0.3-1.32-0.23-2.54-0.14-3.87
		c0-0.03-0.04-0.04-0.06-0.02c-0.61,1.04-0.66,2.27-0.64,3.46c0.03,1.23,0.29,2.44,0.63,3.61c0.36,1.22,0.83,2.41,1.26,3.6
		c0.47,1.33,1,2.67,1.04,4.1c0.01,0.19,0.28,0.19,0.29,0C318.86,274.67,318.87,273.47,318.65,272.28z"/>
	<path class="st31" d="M293.99,231.25c-1.38-1-2.91-1.77-4.37-2.64c-1.49-0.89-2.95-1.84-4.38-2.84c-2.93-2.06-5.72-4.31-8.41-6.68
		c-1.92-1.69-3.88-3.4-5.64-5.27c-0.39-0.61-0.8-1.2-1.31-1.71c-0.23-0.23-0.47-0.43-0.71-0.64c-0.97-1.26-1.95-2.58-3.3-3.46
		c0.22-0.36,0.01-0.99-0.51-0.96c-0.4,0.03-0.8,0.09-1.2,0.16c-1-0.27-2.05-0.25-2.88,0.44c-0.11,0.09-0.12,0.22-0.1,0.34
		c-0.08,0.02-0.16,0.05-0.24,0.07c-1.31,0.37-2.87,0.57-4.05,1.29c-0.23,0.14-0.43,0.34-0.62,0.54l0,0
		c-0.54,0.19-1.06,0.44-1.57,0.69c-0.07,0.03-0.09,0.1-0.09,0.16c-0.29,0.02-0.59,0.05-0.87,0.22c-1.2,0.74-2.3,1.81-3.41,2.69
		c-2.28,1.81-4.48,3.7-6.58,5.73c-2.01,1.94-4.08,4-5.46,6.46c-0.09,0.16,0.12,0.33,0.25,0.2c1.93-2.03,3.74-4.14,5.84-6.01
		c2.04-1.81,4.21-3.45,6.35-5.13c1.1-0.86,2.19-1.73,3.29-2.58c0.58-0.44,1.18-0.25,1.81-0.52c0.5-0.21,0.85-0.62,1.24-0.98
		c0.99-0.92,2.63-1.11,3.89-1.46c0.65-0.18,1.31-0.33,1.96-0.49c0.7,0.28,1.37,0.66,2.01,1.02c0.76,0.43,1.51,0.92,2.21,1.44
		c0.27,0.2,0.54,0.42,0.8,0.64c0.29,0.38,0.58,0.77,0.88,1.14c2.14,2.62,4.79,4.88,7.33,7.1c2.47,2.17,5.04,4.24,7.71,6.16
		c2.7,1.94,5.58,3.52,8.4,5.26c1.66,1.03,3.01,2.34,4.38,3.71c1.47,1.47,3.06,2.81,4.57,4.22c0.04,0.04,0.09-0.02,0.06-0.06
		C299.02,236.67,296.96,233.41,293.99,231.25z"/>
	<path class="st31" d="M338.12,416.07c-1.87-0.99-3.77-1.89-5.68-2.81c-1.66-0.79-3.48-1.49-4.97-2.58
		c-1.54-1.13-2.07-2.81-2.37-4.63c-0.33-2.05-0.57-4.08-1.11-6.09c-0.03-0.1-0.17-0.08-0.17,0.02c-0.04,2.18,0.18,4.35,0.47,6.5
		c0.24,1.78,0.75,3.49,2.1,4.75c1.4,1.29,3.27,2.08,4.97,2.89c2.1,1.01,4.21,1.96,6.38,2.83
		C338.26,417.18,338.6,416.33,338.12,416.07z"/>
	<path class="st31" d="M394.23,180.75c-0.41,0.53-0.7,1.14-1.1,1.67c-0.48,0.66-1.04,1.28-1.61,1.85c-1.02,1.02-2.11,1.98-3.19,2.93
		c-2.3,2.02-4.63,3.99-7.03,5.88c-2.39,1.88-4.85,3.67-7.4,5.32c-1.26,0.82-2.54,1.61-3.83,2.37c-0.67,0.4-1.34,0.78-2.01,1.16
		c-0.63,0.35-1.32,0.65-1.86,1.14c-0.29,0.26-0.19,0.64,0.06,0.84c-0.21,0.22-0.37,0.51-0.48,0.83c-0.14,0.42,0.26,0.75,0.63,0.72
		c-0.28,1.58-0.27,3.23-0.09,4.8c0.05,0.43,0.13,0.86,0.21,1.29c-0.05,2.04,0.07,4.07,0.37,6.06c0.05,0.31,0.56,0.24,0.55-0.07
		c-0.02-0.52,0-1.04,0-1.56c0.13,0.68,0.24,1.37,0.3,2.07c0.21,2.74-0.05,5.47-0.21,8.2c-0.16,2.78-0.21,5.57-0.2,8.35
		c0,1.53,0.03,3.07,0.11,4.6c0.08,1.65,0.39,3.27,0.55,4.92c0,0.03,0.04,0.03,0.04,0c-0.08-1.76,0.07-3.5,0.06-5.25
		c-0.02-1.75-0.02-3.5,0.04-5.25c0.11-3.49,0.5-6.95,0.75-10.43c0.23-3.31,0.09-6.48-0.67-9.71c0-1.28-0.02-2.56-0.03-3.85
		c-0.02-2.04,0.31-3.99,0.76-5.95c0.42-0.22,0.84-0.4,1.29-0.54s0.89-0.21,1.31-0.43c0.81-0.43,1.5-1.2,2.12-1.86
		c0.44-0.46,0.83-0.94,1.19-1.45c1.41-0.93,2.81-1.88,4.17-2.87c3.92-2.87,7.59-6.04,10.89-9.61c0.91-0.98,1.79-1.98,2.66-2.99
		c0.74-0.87,1.67-1.88,2-2.99C394.61,180.77,394.35,180.59,394.23,180.75z"/>
	<path class="st31" d="M552.63,263.11c-0.55-1.21-1.13-2.4-1.65-3.62c0,0,0,0,0-0.01c0.29,0.36,1.01,0.06,0.82-0.42
		c-0.74-1.84-1.52-3.65-2.32-5.47c-0.39-0.88-0.8-1.75-1.19-2.63c-0.37-0.83-0.71-1.94-1.39-2.57c-0.1-0.1-0.24-0.07-0.31,0.03
		c-0.12-0.5-0.25-1-0.4-1.49c-0.08-0.25-0.16-0.49-0.25-0.71c-0.9-3.32-2.12-6.58-3.31-9.79c-1.38-3.73-2.85-7.44-4.35-11.13
		c-0.75-1.85-1.52-3.69-2.31-5.52c-0.77-1.81-1.67-3.63-2.12-5.56c-0.41-1.78-0.45-3.58-1.37-5.21c-0.29-0.51-0.61-1-0.93-1.49
		c-0.02-0.07-0.03-0.14-0.05-0.21c-0.19-0.85-0.36-1.71-0.63-2.54c-0.23-0.73-0.52-1.44-0.9-2.11c-0.17-0.65-0.34-1.29-0.53-1.94
		c-0.33-1.15-0.8-2.57-1.82-3.32c-0.22-0.8-0.44-1.59-0.7-2.38c-0.37-1.12-0.88-2.21-1.21-3.34c-0.01-0.04-0.07-0.02-0.06,0.02
		c0.21,0.94,0.28,1.93,0.44,2.88c0.19,1.06,0.43,2.11,0.67,3.16c0.45,1.89,0.84,3.79,1.39,5.65c0.51,1.74,1.24,3.33,2.23,4.85
		c0.08,0.13,0.16,0.26,0.24,0.39c0.14,0.48,0.31,0.95,0.59,1.37c0.06,0.09,0.15,0.13,0.25,0.15c0.01,0.01,0.02,0.03,0.02,0.04
		c0.78,4.61,0.58,9.21-0.13,13.84c0,0.03,0.04,0.05,0.05,0.01c0.55-2.73,1.24-5.64,1.37-8.51c0.34,1.01,0.76,1.99,1.2,2.97
		c0.84,1.92,1.64,3.85,2.44,5.79c1.54,3.73,3.02,7.49,4.44,11.26c1.42,3.76,2.72,7.6,4.31,11.29c0.21,1.24,0.28,2.52,0.49,3.71
		c0.17,0.98,0.51,1.97,1.07,2.8c0.57,0.85,1.5,1.53,1.85,2.51c0.39,1.08,0.26,2.29,0.67,3.39c0.45,1.21,1.07,2.37,1.62,3.53
		c1.18,2.46,2.38,4.92,3.58,7.37c1.39,2.84,2.79,5.69,4.39,8.41c0.12,0.21,0.5,0.07,0.41-0.17
		C557.38,273.2,554.93,268.16,552.63,263.11z"/>
	<path class="st31" d="M564.2,294.47c-0.75-1.28-0.3-2.52-0.39-3.91c-0.07-1.11-0.47-2.01-1.06-2.94c-0.55-0.87-1.21-1.68-1.93-2.41
		c-0.8-0.8-1.76-1.39-2.66-2.05c-0.05-0.04-0.11,0.04-0.06,0.08c0.82,0.75,1.54,1.59,2.3,2.4c0.75,0.8,1.49,1.67,1.88,2.7
		c0.39,1.02,0.5,2.15,0.43,3.23c-0.07,1.07-0.11,2.07,0.32,3.06c-0.56-0.55-1.17-1.04-1.76-1.55c-0.83-0.72-1.68-1.43-2.59-2.06
		c-0.96-0.66-1.96-1.14-3.05-1.54c-0.06-0.02-0.09,0.07-0.04,0.1c1.89,1.06,3.84,2.26,5.35,3.83c1.28,1.33,2.16,2.98,3.19,4.51
		c0.28,1.4,0.59,2.79,0.98,4.16c0.37,1.33,0.81,2.59,1,3.92c-0.01,0.82-0.02,1.65,0,2.46c0,0.28,0.01,0.57,0.01,0.85
		c-0.05,1.24-0.09,2.48-0.08,3.72c0.01,0.92,0.02,1.84,0.05,2.75c0.01,0.48-0.02,1.03,0.04,1.54c-0.01,3.57,0.01,7.16-0.3,10.71
		c-0.36,4.15-1.62,8.15-2.37,12.24c-0.72,3.94-1.3,7.95-2.76,11.7c-0.79,2.02-1.88,3.82-2.17,6.01c-0.07,0.53-0.12,1.05-0.17,1.57
		c-0.35,0.66-0.77,1.3-1.03,2c-0.31,0.84-0.02,1.75-0.01,2.63c0.01,1.12-0.15,2.25-0.33,3.35c-0.66,4.01-1.45,8-2.38,11.96
		c-1.31,5.59-2.86,11.11-4.52,16.6c-0.53,2.85-1.15,5.68-1.31,8.61c0.91-2.8,1.81-5.6,2.67-8.41c2.64-8.59,5.06-17.28,6.56-26.15
		c0.33-1.96,0.69-3.95,0.54-5.93c0.8-1.43,0.87-3.19,1.02-4.79c0.09-0.93,0.2-1.86,0.47-2.76c0.31-1.03,0.83-1.98,1.29-2.95
		c1.72-3.66,2.47-7.63,3.16-11.59c0.35-2.01,0.73-4.02,1.19-6.01c0.47-2.03,0.97-4.06,1.25-6.13c0.54-4.01,0.51-8.14,0.46-12.2
		c0.09-0.5,0.03-1.04-0.02-1.57c-0.02-1.51-0.07-3.02-0.14-4.53c0.01-1.02,0.02-2.03,0.04-3.04c0,0.03,0.01,0.07,0.01,0.1
		c0.02,0.27,0.46,0.38,0.51,0.07C568.68,303.77,566.72,298.74,564.2,294.47z"/>
	<path class="st32" d="M403.09,195.26c-0.23-1.7-0.51-3.4-0.53-5.12c-0.01-0.89,0.05-1.78,0.23-2.65c0.15-0.7,0.67-1.49,0.45-2.19
		c-0.07-0.24-0.36-0.46-0.62-0.35c-0.73,0.3-0.9,1.03-1.1,1.76c-0.24,0.84-0.34,1.71-0.38,2.57c-0.07,1.81,0.22,3.62,0.48,5.41
		c0.28,1.9,0.56,3.86,1.08,5.72c0.55,1.97,1.23,3.91,1.97,5.81c0.05,0.14,0.28,0.09,0.23-0.06
		C403.81,202.63,403.59,198.89,403.09,195.26z"/>
	<path class="st32" d="M401.46,216.9c-0.54-1.94-1.05-3.89-1.54-5.84c-0.48-1.9-0.9-3.81-1.23-5.73c-0.17-0.99-0.35-1.97-0.49-2.96
		c-0.13-0.92-0.19-1.98-0.62-2.82c-0.12-0.23-0.44-0.15-0.51,0.07c-0.31,0.9-0.16,1.99-0.06,2.91c0.1,0.95,0.22,1.89,0.39,2.83
		c0.37,2.02,0.86,4.03,1.4,6.01c0.54,1.95,1.19,3.85,1.86,5.75c0.67,1.89,1.33,3.86,2.26,5.65c0.02,0.03,0.06,0.01,0.06-0.02
		C402.65,220.76,402,218.82,401.46,216.9z"/>
	<path class="st32" d="M396.08,226.77c-0.38-2.41-0.77-4.83-1.06-7.25c-0.13-1.12-0.22-2.25-0.26-3.38
		c-0.05-1.23,0.03-2.45,0.01-3.68c-0.01-0.48-0.68-0.56-0.83-0.11c-0.73,2.25-0.44,4.87-0.17,7.17c0.28,2.37,0.65,4.74,1.06,7.09
		c0.85,4.86,1.91,9.74,3.45,14.43c0.03,0.1,0.17,0.06,0.15-0.04C397.71,236.25,396.83,231.52,396.08,226.77z"/>
	<path class="st32" d="M392.96,242.03c-0.54-2.21-1.1-4.43-1.61-6.65c-0.27-1.15-0.5-2.31-0.65-3.48c-0.14-1.1-0.12-2.21-0.3-3.3
		c-0.07-0.42-0.75-0.4-0.83,0c-0.17,0.77-0.18,1.58-0.12,2.41c-0.12-0.02-0.24,0.03-0.23,0.19c0,0.04,0.02,0.08,0.02,0.12l0,0
		c0.05,0.89,0.15,1.77,0.33,2.65c0.18,0.88,0.48,1.7,0.87,2.5c0.01,0.01,0.02,0.01,0.02,0.02c0.41,1.85,0.85,3.69,1.32,5.52
		c1.19,4.61,2.6,9.12,4.23,13.59c0.04,0.1,0.19,0.06,0.16-0.04C395.13,251.05,394.07,246.54,392.96,242.03z"/>
	<path class="st32" d="M389.4,256.35c-0.48-2.28-0.95-4.56-1.33-6.85c-0.38-2.28-0.57-4.63-1.08-6.88c-0.12-0.52-0.92-0.4-0.92,0.12
		c0,2.28,0.48,4.66,0.87,6.91c0.41,2.34,0.87,4.68,1.44,6.99c1.12,4.49,2.38,9.1,4.32,13.31c0.05,0.12,0.23,0.03,0.2-0.08
		C391.76,265.35,390.37,260.91,389.4,256.35z"/>
	<path class="st32" d="M389.39,280.28c-0.74-2.03-1.38-4.1-1.94-6.18c-1.14-4.24-1.76-8.55-2.48-12.87
		c-0.09-0.55-0.97-0.41-0.96,0.13c0.1,4.4,1.11,8.83,2.4,13.03c1.27,4.12,2.86,8.49,5.3,12.07c0.02,0.03,0.08,0.01,0.07-0.03
		C391.04,284.35,390.14,282.34,389.39,280.28z"/>
	<path class="st32" d="M389.52,294.36c-1.07-2.36-2.01-4.75-2.83-7.21c-0.39-1.16-0.79-2.31-1.17-3.46
		c-0.39-1.19-0.66-2.44-1.17-3.58c-0.16-0.36-0.77-0.18-0.74,0.2c0.1,1.25,0.52,2.46,0.89,3.66c0.37,1.21,0.78,2.4,1.27,3.57
		c1.01,2.39,2.19,4.73,3.5,6.97C389.36,294.67,389.6,294.53,389.52,294.36z"/>
	<path class="st32" d="M408.12,190.31c-0.39-1.65-0.43-3.37-0.63-5.04c-0.07-0.61-1-0.65-0.99,0c0.04,1.74,0.56,3.46,1.12,5.09
		c0.56,1.64,1.16,3.22,2.06,4.7c0.03,0.04,0.11,0.01,0.09-0.04C409.11,193.5,408.49,191.93,408.12,190.31z"/>
	<path class="st32" d="M408.41,183.57c-1.24-1.22-2.57-2.31-3.87-3.45c-1.14-1.01-2.11-2.2-2.3-3.77c-0.02-0.21-0.14-0.37-0.36-0.4
		c-0.18-0.02-0.42,0.09-0.45,0.29c-0.06,0.42-0.07,0.78,0.03,1.19s0.27,0.81,0.49,1.17c0.44,0.72,1.05,1.33,1.71,1.86
		c1.46,1.19,3.02,2.29,4.6,3.29C408.38,183.83,408.51,183.67,408.41,183.57z"/>
	<path class="st32" d="M412.36,181.07c-1.98-1.45-3.92-2.88-5.55-4.73c-0.73-0.83-1.34-1.77-1.8-2.79
		c-0.23-0.52-0.41-1.06-0.53-1.62c-0.13-0.58-0.16-1.11-0.38-1.67c-0.1-0.26-0.41-0.24-0.51,0c-0.45,1.08,0,2.4,0.42,3.43
		c0.46,1.11,1.13,2.12,1.92,3.02c1.71,1.95,4.1,3.26,6.36,4.46C412.37,181.22,412.43,181.12,412.36,181.07z"/>
	<path class="st32" d="M414.42,177.77c-1.39-1.28-2.67-2.61-3.62-4.25c-0.46-0.79-0.85-1.61-1.16-2.47
		c-0.33-0.91-0.45-1.84-0.71-2.76c-0.16-0.58-1.13-0.49-1.08,0.15c0.07,0.97,0.46,1.98,0.83,2.87c0.38,0.92,0.85,1.79,1.42,2.61
		c1.1,1.59,2.5,3.07,4.22,3.97C414.4,177.94,414.49,177.83,414.42,177.77z"/>
</g>
<g>
	<g>
		<path d="M411.84,165.52c7.09-1.94,13.88-4.9,20.5-8.06c6.66-3.18,13.24-6.54,19.79-9.93c1.52-0.79,2.83-1.84,2.95-3.65
			c0.09-1.4-0.29-3.07-1.44-3.95c-0.43-0.33-1.12-0.07-1.37,0.36c-0.3,0.51-0.07,1.04,0.36,1.37c-0.06-0.05,0.12,0.23,0.18,0.36
			c0.09,0.22,0.15,0.48,0.2,0.72c0.1,0.47,0.13,1.02,0.02,1.46c-0.09,0.39-0.55,0.79-0.98,1.08c-0.66,0.44-1.4,0.77-2.1,1.12
			c-2.98,1.48-5.93,3.01-8.9,4.52c-6.22,3.17-12.48,6.31-18.95,8.95c-3.53,1.44-7.11,2.73-10.79,3.73
			C410.07,163.93,410.6,165.86,411.84,165.52L411.84,165.52z"/>
	</g>
</g>
<g>
	<g>
		<path d="M400.49,175.61c-0.31,0.88-0.61,1.8-1.11,2.6c-0.26,0.42-0.55,0.75-0.64,1.25c-0.12,0.64,0.16,1.23,0.41,1.8
			c0.46,1.03,0.91,2.2,1.61,3.1c0.72,0.92,1.76,1.06,2.86,0.96c1.16-0.1,2.32,0.01,3.49-0.08c1.21-0.1,2.43-0.16,3.64-0.08
			c2.3,0.15,4.69,1.21,6.8-0.24c2.21-1.51,2.61-4.12,3.35-6.5c0.38-1.23-1.55-1.76-1.93-0.53c-0.53,1.72-0.76,3.73-2.12,5.03
			c-1.46,1.39-3.55,0.52-5.29,0.31c-2.09-0.25-4.15,0.08-6.24,0.06c-0.44,0-0.88-0.04-1.32-0.01c-0.4,0.02-0.86,0.14-1.26,0.07
			c-0.35-0.06-0.48-0.3-0.63-0.59c-0.26-0.47-0.49-0.96-0.73-1.44c-0.14-0.29-0.27-0.57-0.4-0.86c-0.07-0.16-0.27-0.46-0.26-0.64
			c0.01-0.24,0.47-0.72,0.6-0.97c0.45-0.86,0.79-1.8,1.11-2.72C402.84,174.92,400.91,174.4,400.49,175.61L400.49,175.61z"/>
	</g>
</g>
<g>
	<g>
		<path d="M417.36,169.57c-0.37-1.04-1.58-2.11-2.54-2.59c-0.83-0.42-1.98-0.32-2.89-0.33c-1.14-0.02-2.27,0.05-3.4,0.19
			c-1.84,0.23-3.83,0.56-5.35,1.7c-1.46,1.1-2.46,2.99-2.33,4.84c0.09,1.28,2.09,1.29,2,0c-0.09-1.3,0.61-2.66,1.71-3.37
			c1.23-0.78,2.79-1.03,4.21-1.2c1.64-0.2,3.49-0.34,5.13-0.06c-0.19-0.03-0.03-0.02,0.06,0.04c0.1,0.06,0.19,0.12,0.28,0.19
			c0.15,0.11,0.29,0.24,0.43,0.37c0.2,0.18,0.4,0.38,0.58,0.58c0.02,0.02,0.23,0.25,0.12,0.14c0.06,0.06,0.14,0.29,0.04,0.02
			C415.86,171.3,417.79,170.78,417.36,169.57L417.36,169.57z"/>
	</g>
</g>
<g>
	<g>
		<path d="M408.03,166.29c1.01-0.13,1.99-0.35,2.98-0.58c0.86-0.21,1.86-0.54,2.76-0.45c0.76,0.07,0.87,0.92,1,1.54
			c0.19,0.94,0.33,1.9,0.55,2.84c0.44,1.89,1.33,3.7,2.12,5.46c0.79,1.75,1.63,3.53,2.73,5.1c0.53,0.76,1.15,1.47,1.95,1.95
			c0.86,0.51,1.67,0.44,2.58,0.13c1.75-0.6,3.5-1.21,5.24-1.86c3.4-1.28,6.76-2.71,9.88-4.59c1.78-1.08,3.42-2.33,5.02-3.66
			c1.66-1.4,3.44-2.63,5.23-3.86c1.05-0.73,0.05-2.46-1.01-1.73c-1.55,1.07-3.09,2.15-4.58,3.32c-1.44,1.13-2.8,2.34-4.33,3.36
			c-2.97,1.98-6.22,3.49-9.54,4.78c-1.66,0.65-3.34,1.25-5.03,1.83c-0.44,0.15-0.87,0.3-1.31,0.45c-0.36,0.12-0.7,0.32-1.06,0.16
			c-0.73-0.33-1.26-1.15-1.66-1.8c-1.02-1.62-1.85-3.36-2.62-5.11c-0.78-1.78-1.52-3.52-1.89-5.44c-0.33-1.72-0.44-4.16-2.48-4.75
			c-1.05-0.3-2.24-0.01-3.28,0.22c-1.08,0.24-2.15,0.56-3.25,0.7c-0.54,0.07-1,0.41-1,1C407.03,165.78,407.49,166.36,408.03,166.29
			L408.03,166.29z"/>
	</g>
</g>
<g>
	<g>
		<path d="M458.34,149.62c2.78,1.54,5.49,3.22,7.97,5.2c1.24,0.99,2.43,2.05,3.57,3.17c1.27,1.24,2.46,2.49,2.98,4.23
			c0.45,1.5,0.47,3.07,0.51,4.62c0.05,1.77,0.16,3.52,0.16,5.29c0,1.84-0.05,3.67-0.11,5.51c-0.02,0.73,0.02,1.52-0.16,2.23
			c-0.22,0.86-0.84,1.27-1.59,1.66c-3.72,1.93-7.52,3.7-11.28,5.54c-0.44,0.22-0.67,0.96-0.36,1.37c1.76,2.29,4.28,3.95,6.72,5.43
			c1.52,0.92,3.08,1.8,4.68,2.57c-0.17-0.29-0.33-0.58-0.5-0.86c0.02,0.6-0.32,1.21-0.58,1.74c-0.44,0.86-0.95,1.68-1.46,2.5
			c-1.03,1.65-1.87,3.36-2.78,5.08c-2.54,4.78-5.46,9.34-8.46,13.84c-2.98,4.46-6.01,8.89-8.91,13.4c-2.98,4.64-5.9,9.32-8.86,13.97
			c-5.9,9.26-12.13,18.25-18.9,26.91c-6.78,8.68-13.89,17.11-20.49,25.93c-2.96,3.96-5.68,8.11-7.85,12.56
			c-2.24,4.57-3.91,9.38-5.27,14.27c-0.35,1.24,1.58,1.77,1.93,0.53c1.23-4.39,2.68-8.72,4.62-12.85c1.88-3.99,4.18-7.75,6.73-11.34
			c6.34-8.91,13.52-17.24,20.29-25.82c6.77-8.59,13.12-17.42,19.04-26.62c5.96-9.26,11.77-18.6,17.93-27.73
			c3.4-5.03,6.74-10.12,9.63-15.46c1.06-1.97,2.03-3.95,3.21-5.85c0.9-1.45,2.25-3.28,2.2-5.06c-0.01-0.33-0.18-0.71-0.5-0.86
			c-1.47-0.71-2.91-1.51-4.31-2.35c-2.24-1.34-4.75-2.84-6.37-4.94c-0.12,0.46-0.24,0.91-0.36,1.37c3.68-1.81,7.37-3.58,11.03-5.42
			c1.52-0.76,2.6-1.78,2.85-3.52c0.27-1.85,0.19-3.8,0.22-5.67c0.04-2.01,0.01-4.02-0.09-6.03c-0.09-1.74-0.06-3.49-0.35-5.22
			c-0.61-3.64-3.33-6.11-6-8.42c-2.99-2.58-6.28-4.73-9.73-6.64C458.22,147.27,457.21,148.99,458.34,149.62L458.34,149.62z"/>
	</g>
</g>
<g>
	<g>
		<path d="M471.74,195.74c-1.78-0.66-3.42-1.68-4.97-2.74c-1.96-1.34-3.82-2.82-5.62-4.36c-3.52-3.01-6.87-6.26-9.94-9.74
			c-1.13-1.27-2.27-2.58-3.16-4.03c-0.17-0.27-0.6-0.02-0.43,0.25c0.77,1.26,1.74,2.4,2.7,3.51c1.44,1.67,2.96,3.27,4.52,4.82
			c3.45,3.44,7.1,6.74,11.09,9.55c1.78,1.25,3.65,2.44,5.69,3.21C471.91,196.34,472.04,195.86,471.74,195.74L471.74,195.74z"/>
	</g>
</g>
<g>
	<g>
		<path d="M384.16,321.95c-6.68-8.31-9.34-19.04-11.05-29.35c-1.97-11.92-2.38-23.98-3.47-36c-0.55-6.01-1.15-12.01-1.41-18.04
			c-0.26-6.08-0.17-12.17-0.32-18.26c-0.14-5.49-1-10.97-0.82-16.47c0.01-0.22,0.02-0.44,0.04-0.67c0.01-0.09,0.02-0.17,0.03-0.26
			c-0.04,0.34,0.02,0.02,0.02-0.05c0-0.05,0.04-0.11,0.04-0.16c0,0.03-0.06,0.14-0.1,0.19c-0.08,0.09-0.41,0.26-0.13,0.16
			c0.18-0.06,0.35-0.19,0.52-0.28c0.29-0.16,0.58-0.31,0.88-0.47c1.69-0.91,3.37-1.81,5.02-2.79c2.72-1.62,5.2-3.59,7.69-5.54
			c0.97-0.76,1.94-1.51,2.91-2.27c0.43-0.33,0.34-1.06,0-1.41c-0.42-0.43-0.99-0.33-1.41,0c-2.88,2.23-5.7,4.61-8.76,6.6
			c-1.36,0.88-2.77,1.68-4.19,2.46c-1.04,0.57-2.09,1.14-3.15,1.7c-0.6,0.32-1.06,0.55-1.23,1.24c-0.24,0.95-0.18,2.02-0.17,2.99
			c0.02,1.56,0.1,3.11,0.19,4.67c0.16,2.77,0.39,5.53,0.56,8.3c0.34,5.24,0.19,10.52,0.27,15.76c0.1,6.17,0.6,12.32,1.16,18.47
			c0.56,6.13,1.01,12.25,1.45,18.39c0.44,6.08,1,12.15,1.85,18.19c1.51,10.74,3.78,21.95,9.86,31.13c0.72,1.09,1.5,2.14,2.32,3.17
			c0.34,0.42,1.06,0.35,1.41,0C384.58,322.95,384.5,322.36,384.16,321.95L384.16,321.95z"/>
	</g>
</g>
<g>
	<g>
		<path d="M401.19,156.41c-5.13,3.95-9.96,8.25-14.4,12.95c-2.21,2.33-4.32,4.76-6.35,7.25c-1.02,1.25-2.02,2.53-3,3.81
			c-0.83,1.09-1.94,2.2-1.9,3.67c0.05,1.71,1.86,2.92,2.95,4.03c1.33,1.36,2.69,2.7,4.29,3.73c1.08,0.7,2.09-1.03,1.01-1.73
			c-1.28-0.82-2.37-1.88-3.43-2.96c-0.49-0.5-0.97-1.01-1.47-1.49c-0.43-0.41-1.17-0.91-1.33-1.51c-0.13-0.49,0.28-1.01,0.55-1.38
			c0.42-0.58,0.88-1.14,1.32-1.71c0.92-1.2,1.87-2.39,2.83-3.56c3.75-4.56,7.8-8.88,12.16-12.86c2.5-2.28,5.1-4.46,7.78-6.53
			c0.43-0.33,0.66-0.86,0.36-1.37C402.31,156.35,401.62,156.08,401.19,156.41L401.19,156.41z"/>
	</g>
</g>
<g>
	<g>
		<path d="M473.19,161.78c8.79,4.16,18.16,7.47,27.52,10.09c3.56,1,7.17,1.84,10.65,3.12c3.26,1.2,6.68,2.87,8.81,5.73
			c1.43,1.92,2.36,4.18,3.19,6.4c0.94,2.51,1.85,5.04,2.78,7.56c1.84,5,3.7,9.99,5.57,14.98c3.77,10.06,7.58,20.09,11.44,30.11
			s7.76,20.02,11.72,30.01c1.97,4.97,3.95,9.94,5.94,14.9c0.9,2.24,1.98,4.49,2.54,6.85c0.27,1.12,0.3,2.27,0.59,3.39
			c0.29,1.11,0.74,2.18,1.17,3.25c0.96,2.39,1.69,4.65,1.72,7.25c0.03,2.62-0.05,5.24-0.11,7.86c-0.12,5.38-0.32,10.75-0.69,16.11
			c-0.36,5.2-1.35,10.19-2.81,15.19c-1.4,4.78-3.15,9.45-4.5,14.24c-0.66,2.35-1.01,4.71-1.17,7.14c-0.17,2.64-0.58,5.14-1.24,7.71
			c-1.32,5.11-2.66,10.21-4.05,15.3c-1.38,5.05-2.73,10.14-4.39,15.1c-0.36,1.09-0.77,2.16-1.04,3.27
			c-0.29,1.21-0.35,2.48-0.68,3.68c-0.23,0.85-0.49,1.19-1.4,1.22c-0.29,0.01-0.58-0.04-0.87-0.07c-0.8-0.08-1.63-0.2-2.4-0.45
			c-0.3-0.1-0.7-0.44-0.61-0.12c-0.06-0.24,0.14-0.7,0.18-0.95c0.1-0.52,0.24-1.14-0.08-1.61c-0.46,0.46-0.91,0.91-1.37,1.37
			c1.32,0.77,3.34,1.96,4.94,1.68c2.01-0.36,1.57-2.41,0.65-3.62c-2.38-3.14-5.57-5.49-9.06-7.27c-4.15-2.11-8.48-4-12.9-5.47
			c-4.66-1.54-9.51-2.42-14.32-3.3c-0.78-0.14-1.63-0.28-2.07,0.57c-0.42,0.8,0.12,1.6,0.64,2.19c1.55,1.77,3.34,3.31,5.28,4.65
			c1.06,0.74,2.06-1,1.01-1.73c-1.07-0.74-2.08-1.55-3.03-2.44c-0.39-0.36-0.76-0.74-1.12-1.13c-0.2-0.21-0.9-0.76-0.91-1.04
			c-0.1,0.24-0.2,0.47-0.29,0.71c0.06-0.07,0.12-0.13,0.18-0.2c-0.24,0.1-0.47,0.2-0.71,0.29c0.94,0.01,1.96,0.33,2.87,0.5
			c1.03,0.19,2.06,0.39,3.08,0.59c1.89,0.38,3.78,0.79,5.64,1.29c3.87,1.04,7.6,2.5,11.25,4.15c3.08,1.39,6.21,2.8,8.91,4.86
			c1.28,0.98,2.45,2.11,3.47,3.34c0.11,0.13,0.84,1.09,0.85,1.09c-0.09,0.05-0.68-0.22-0.83-0.27c-0.88-0.31-1.71-0.71-2.51-1.18
			c-0.83-0.49-1.94,0.52-1.37,1.37c-0.2-0.3-0.04-0.4-0.07-0.17c-0.03,0.17-0.06,0.33-0.1,0.5c-0.07,0.34-0.15,0.67-0.18,1.02
			c-0.06,0.7,0.15,1.2,0.72,1.63c1.17,0.89,2.97,1.02,4.39,1.16c1.97,0.19,3.48-0.42,4.03-2.44c0.32-1.2,0.41-2.44,0.68-3.65
			c0.28-1.27,0.76-2.48,1.17-3.71c1.7-5.13,3.1-10.39,4.52-15.6c1.45-5.32,2.92-10.64,4.22-16c0.61-2.5,0.82-4.97,1-7.52
			c0.19-2.74,0.84-5.33,1.66-7.94c1.57-4.98,3.32-9.9,4.65-14.95c2.77-10.48,2.7-21.57,2.87-32.34c0.04-2.54,0.24-5.17-0.2-7.69
			c-0.44-2.5-1.69-4.75-2.47-7.15c-0.36-1.11-0.47-2.23-0.67-3.37c-0.22-1.27-0.63-2.48-1.1-3.68c-0.99-2.56-2.05-5.11-3.07-7.66
			c-4.13-10.32-8.2-20.65-12.23-31.01c-8.12-20.89-15.89-41.91-23.75-62.9c-1.48-3.95-3.27-7.64-6.75-10.17
			c-3.05-2.22-6.73-3.5-10.31-4.56c-3.81-1.13-7.66-2.08-11.44-3.29c-5.09-1.64-10.17-3.33-15.14-5.29c-2.52-0.99-5-2.07-7.45-3.23
			C473.05,159.5,472.03,161.23,473.19,161.78L473.19,161.78z"/>
	</g>
</g>
<g>
	<g>
		<path d="M508.12,312.14c-0.96,2.62-1.1,5.46-1.02,8.23c0.08,2.85,0.33,5.69,0.33,8.55c0.01,6.41,0.03,12.83,0.04,19.24
			c0.01,3.21,0.04,6.41-0.11,9.61c-0.14,3.06-0.29,6.12-0.49,9.18c-0.4,6.15-1,12.29-2.19,18.34c-0.33,1.68-0.71,3.35-1.13,5.01
			c-0.19,0.77-0.53,1.61-0.53,2.41c0,0.84,0.54,1.51,1.02,2.15c1.84,2.43,4.22,4.53,6.76,6.21c0.28,0.18,0.73,0.19,1.01,0
			c0.68-0.47,1.48-0.81,2.07-1.42c0.9-0.92-0.51-2.34-1.41-1.41c-0.46,0.47-1.13,0.73-1.66,1.1c0.34,0,0.67,0,1.01,0
			c-2.15-1.42-4.16-3.19-5.79-5.19c-0.3-0.37-0.93-0.97-0.99-1.44c-0.03-0.27,0.15-0.66,0.22-0.92c0.11-0.44,0.22-0.88,0.33-1.32
			c0.37-1.46,0.7-2.94,0.99-4.42c1.17-5.87,1.8-11.83,2.22-17.79c0.21-3.02,0.37-6.04,0.51-9.07c0.15-3.06,0.19-6.1,0.18-9.16
			c-0.01-6.29-0.03-12.58-0.04-18.87c-0.01-3.17-0.14-6.31-0.29-9.48c-0.14-3.03-0.16-6.13,0.9-9.01
			C510.49,311.46,508.56,310.94,508.12,312.14L508.12,312.14z"/>
	</g>
</g>
<g>
	<g>
		<path d="M481.26,256.92c1.88,9.12,7.29,16.97,12.48,24.5c0.64,0.93,1.28,1.86,1.92,2.79c0.63,0.91,1.32,1.82,1.86,2.79
			c0.4,0.72,0.57,1.53,0.84,2.29c0.16,0.44,0.34,0.87,0.55,1.29c0.27,0.52,0.65,0.97,0.93,1.48c0.75,1.37,1.31,2.89,1.92,4.33
			c0.74,1.73,1.46,3.46,2.17,5.2c1.49,3.65,2.97,7.32,4.18,11.08c0.39,1.22,2.32,0.7,1.93-0.53c-1.06-3.29-2.34-6.52-3.63-9.73
			c-1.38-3.43-2.8-6.84-4.32-10.21c-0.13-0.29-0.27-0.59-0.4-0.88c-0.22-0.47-0.55-0.86-0.81-1.31c-0.47-0.79-0.71-1.64-1-2.5
			c-0.65-1.97-2.04-3.65-3.21-5.35c-2.64-3.84-5.33-7.65-7.69-11.66c-2.59-4.41-4.76-9.08-5.8-14.1
			C482.93,255.13,481,255.66,481.26,256.92L481.26,256.92z"/>
	</g>
</g>
<g>
	<g>
		<path d="M338.85,222.41c-0.26,20.27-4.23,40.2-6.68,60.26c-1.23,10.06-1.99,20.16-1.85,30.3c0.14,10.34,0.87,20.7-0.04,31.02
			c-0.09,0.98-0.14,1.99-0.4,2.95c-0.3,1.13-0.87,1.68-1.88,2.21c-1.85,0.96-2.56,2.47-2.84,4.48c-0.32,2.35-0.56,4.71-0.79,7.07
			c-0.09,0.9-0.66,1.82-0.48,2.72c0.08,0.44,0.33,0.8,0.67,1.08c0.15,0.12,0.26,0.18,0.43,0.27c0.44,0.23,0.4,0.11,0.49,0.57
			c0.11,0.57-0.03,1.29-0.05,1.87c-0.02,0.62-0.03,1.25-0.05,1.87c-0.03,1.31-0.07,2.62-0.12,3.93c-0.1,2.58-0.36,5.11-0.74,7.66
			c-0.35,2.39-0.73,4.73-1.26,7.08c-0.55,2.45-0.68,4.99-0.78,7.5c-0.1,2.5-0.08,5,0.04,7.5c0.12,2.29,0.11,4.85,0.88,7.03
			c0.68,1.94,2.09,3.2,3.93,4.04c1.97,0.9,4.06,1.6,6.11,2.29c8.32,2.78,17.13,4.48,25.92,4.3c4.34-0.09,8.7-0.65,12.9-1.78
			c2.05-0.55,4.05-1.25,6.01-2.08c1.99-0.84,4.02-1.77,5.74-3.1c1.65-1.27,2.79-2.93,3.31-4.95c0.59-2.29,0.53-4.74,0.61-7.09
			c0.19-5.24,0.38-10.47,0.56-15.71c0.09-2.55,0.18-5.11,0.27-7.66c0.05-1.29-1.95-1.29-2,0c-0.18,5.11-0.37,10.22-0.55,15.33
			c-0.09,2.55-0.18,5.11-0.27,7.66c-0.08,2.29,0.02,4.7-0.56,6.94c-1.1,4.27-5.95,6.08-9.69,7.46c-4.02,1.48-8.23,2.4-12.5,2.77
			c-8.55,0.75-17.17-0.48-25.4-2.83c-2-0.57-3.98-1.22-5.94-1.92c-1.82-0.66-4.12-1.23-5.54-2.62c-1.57-1.53-1.54-4.18-1.69-6.21
			c-0.19-2.5-0.26-5-0.22-7.5c0.04-2.49,0.1-5.05,0.5-7.51c0.37-2.27,0.97-4.48,1.29-6.77c0.34-2.41,0.75-4.82,0.92-7.25
			c0.18-2.48,0.21-4.98,0.27-7.46c0.03-1.12,0.16-2.28,0.06-3.39c-0.04-0.4-0.16-0.76-0.41-1.07c-0.23-0.28-1.04-0.49-1.16-0.75
			c-0.07-0.17,0.32-0.98,0.35-1.19c0.08-0.45,0.12-0.9,0.16-1.35c0.11-1.29,0.27-2.58,0.42-3.87c0.22-1.86,0.05-4.5,1.93-5.51
			c0.75-0.4,1.47-0.75,2.03-1.42c0.6-0.72,0.94-1.61,1.13-2.52c0.47-2.22,0.52-4.59,0.64-6.85c0.13-2.45,0.18-4.91,0.18-7.37
			c0.01-5.05-0.18-10.1-0.31-15.15c-0.25-9.95,0.1-19.83,1.15-29.73c2.06-19.43,6-38.65,7.04-58.19c0.13-2.46,0.21-4.92,0.24-7.38
			C340.87,221.12,338.87,221.12,338.85,222.41L338.85,222.41z"/>
	</g>
</g>
<g>
	<g>
		<path d="M315.89,260.69c-0.55,3.05,1.15,5.8,1.92,8.65c0.84,3.14,0.9,6.45,0.2,9.62c-0.07,0.31,0.41,0.45,0.48,0.13
			c0.65-2.96,0.66-6.03,0.01-9c-0.67-3.03-2.7-6.08-2.13-9.28C316.42,260.51,315.94,260.37,315.89,260.69L315.89,260.69z"/>
	</g>
</g>
<g>
	<g>
		<path d="M388.49,167.88c-5.89,1.82-11.66,4-17.51,5.94c-3.57,1.18-7.2,2.19-10.72,3.52c-3.72,1.41-7.51,3.04-10.42,5.83
			c-5,4.79-7.1,11.63-10.07,17.7c-4.13,8.44-8.7,16.67-13.1,24.98c-2.47,4.67-4.96,9.33-7.47,13.97c-1.23,2.27-2.5,4.53-3.72,6.82
			c-1.16,2.18-1.69,4.59-2.52,6.89c0.56-0.15,1.11-0.29,1.67-0.44c-1.38-1.43-2.93-2.7-4.21-4.23c-0.61-0.73-1.02-1.53-1.48-2.36
			c-0.54-0.97-1.17-1.88-1.85-2.76c-2.6-3.4-5.75-6.49-8.83-9.46c-3.31-3.2-6.99-5.89-10.75-8.54c-3.81-2.68-7.39-5.55-10.78-8.75
			c-2.83-2.66-5.98-5.1-8.45-8.12c-0.62-0.76-1.09-1.64-1.7-2.4c-0.45-0.56-0.99-0.61-1.67-0.54c-1.45,0.15-2.95,0.49-4.35,0.86
			c-4.31,1.15-8.15,3.34-11.71,5.99c-3.29,2.45-6.18,5.26-8.71,8.5c-2.15,2.76-4.6,6.24-4.07,9.93c0.31,2.18,1.61,4.09,2.71,5.94
			c1.23,2.09,2.47,4.17,3.7,6.26c4.86,8.22,9.65,16.46,15.12,24.3c2.51,3.6,5.03,7.21,7.31,10.97c2.38,3.91,4.32,7.96,6.06,12.19
			c1.71,4.15,4.15,7.83,6.79,11.45c2.67,3.66,5.55,7.18,8.63,10.51c2.87,3.11,5.9,6.12,9.06,8.94c3.17,2.82,6.57,5.45,10.36,7.37
			c1.87,0.95,3.91,1.85,5.97,2.27c2.11,0.43,4.27,0.1,6.31-0.51c3.85-1.15,7.29-3.46,10.17-6.22c1.37-1.32,2.61-2.76,3.75-4.28
			c0.77-1.03-0.96-2.03-1.73-1.01c-2.3,3.05-5.15,5.77-8.46,7.7c-1.65,0.96-3.4,1.7-5.26,2.15c-2.16,0.51-4.07,0.41-6.17-0.31
			c-7.75-2.67-13.88-8.64-19.53-14.33c-3.06-3.08-5.96-6.32-8.66-9.72c-2.69-3.39-5.32-6.94-7.46-10.71
			c-2.11-3.73-3.38-7.87-5.37-11.67c-1.99-3.81-4.32-7.43-6.73-10.99c-2.46-3.63-5.04-7.17-7.43-10.85
			c-2.46-3.8-4.77-7.69-7.07-11.59c-2.38-4.03-4.77-8.06-7.15-12.09c-1.08-1.82-2.53-3.74-2.93-5.87c-0.31-1.66,0.32-3.36,1.09-4.8
			c1.72-3.25,4.32-6.22,6.99-8.72c3-2.79,6.45-5.33,10.14-7.12c1.95-0.94,4.02-1.63,6.13-2.08c0.59-0.13,1.18-0.24,1.78-0.35
			c0.24-0.04,0.48-0.09,0.72-0.12c0.11-0.01,0.25,0,0.36-0.03c0.59-0.14-0.62,0.01-0.26-0.18c-0.02,0.01,1.51,2.13,1.62,2.27
			c0.59,0.74,1.22,1.44,1.88,2.12c1.27,1.29,2.65,2.47,3.99,3.68c3.19,2.87,6.22,5.88,9.63,8.5c3.5,2.69,7.26,5.04,10.69,7.82
			c3.38,2.74,6.4,5.92,9.39,9.07c1.41,1.48,2.8,3,3.96,4.69c1.08,1.56,1.82,3.26,3.08,4.7c1.23,1.4,2.66,2.6,3.95,3.94
			c0.56,0.58,1.43,0.24,1.67-0.44c0.7-1.96,1.14-4.04,2.06-5.91c0.99-2.02,2.16-3.97,3.24-5.95c2.24-4.12,4.46-8.25,6.66-12.39
			c4.38-8.24,8.81-16.46,13.06-24.77c1.67-3.26,3.15-6.58,4.66-9.91c1.38-3.04,2.87-6.12,5-8.71c4.99-6.07,13.31-7.89,20.46-10.18
			c6.36-2.04,12.6-4.45,18.99-6.42C390.25,169.44,389.72,167.5,388.49,167.88L388.49,167.88z"/>
	</g>
</g>
<g>
	<g>
		<path d="M510.01,312.82c1.86-2.39,4.9-3.94,7.62-5.11c3.41-1.46,7.13-1.53,10.62-2.68c1.22-0.4,0.7-2.33-0.53-1.93
			c-2.08,0.69-4.25,0.95-6.38,1.38c-1.64,0.33-3.18,0.84-4.71,1.5c-1.54,0.67-3.04,1.44-4.45,2.36c-1.31,0.85-2.62,1.82-3.58,3.06
			c-0.33,0.43-0.42,1,0,1.41C508.94,313.16,509.68,313.25,510.01,312.82L510.01,312.82z"/>
	</g>
</g>
<g>
	<g>
		<path d="M535.23,304.19c2.32,0.69,4.54,1.66,6.62,2.9c0.28,0.16,0.53-0.27,0.25-0.43c-2.12-1.26-4.38-2.25-6.74-2.95
			C535.06,303.61,534.93,304.1,535.23,304.19L535.23,304.19z"/>
	</g>
</g>
<g>
	<g>
		<path d="M343.18,201.57c-0.6,3.11-2.15,6.2-1.56,9.43c0.06,0.32,0.54,0.18,0.48-0.13c-0.57-3.11,0.99-6.17,1.56-9.16
			C343.72,201.39,343.24,201.26,343.18,201.57L343.18,201.57z"/>
	</g>
</g>
<g>
	<g>
		<path d="M376.25,197.14c2.57-1.5,4.9-3.51,7.17-5.41c2.87-2.41,5.69-4.91,8.29-7.62c0.99-1.03,2-2.1,2.75-3.31
			c0.17-0.27-0.26-0.53-0.43-0.25c-0.65,1.06-1.52,1.99-2.36,2.89c-1.18,1.25-2.42,2.44-3.68,3.61c-2.72,2.52-5.55,4.95-8.49,7.21
			c-1.13,0.87-2.27,1.74-3.5,2.46C375.72,196.87,375.97,197.3,376.25,197.14L376.25,197.14z"/>
	</g>
</g>
<g>
	<g>
		<path d="M486.78,207.46c0.96-2.32,2.43-4.38,3.42-6.68c0.94-2.18,1.51-4.5,2.66-6.59c1.18-2.15,2.96-3.68,5.05-4.91
			c2.23-1.31,4.59-2.41,6.96-3.44c2.8-1.21,5.64-2.31,8.43-3.54c0.59-0.26,0.08-1.12-0.5-0.86c-5,2.2-10.18,4.02-14.94,6.72
			c-2.08,1.18-3.99,2.62-5.32,4.64c-1.33,2.02-2.02,4.36-2.85,6.6c-1.02,2.73-2.75,5.11-3.86,7.8
			C485.57,207.79,486.54,208.05,486.78,207.46L486.78,207.46z"/>
	</g>
</g>
<path d="M483.68,315.44c-1.88,1.54-3.9,2.91-6.02,4.08c-0.97,0.54-1.96,1.04-2.97,1.49c-0.4,0.18-2.04,1.17-2.01,0.07
	c0.01-0.49,0.42-1.06,0.63-1.49c1.99-4.14,4.7-7.89,7.99-11.1c0.31-0.3-0.16-0.77-0.47-0.47c-3.02,2.94-5.58,6.35-7.53,10.1
	c-0.42,0.81-2.34,3.71-0.54,4.14c0.79,0.19,1.8-0.46,2.49-0.78c0.97-0.45,1.93-0.93,2.86-1.45c2.14-1.19,4.16-2.58,6.06-4.13
	C484.49,315.64,484.01,315.18,483.68,315.44z"/>
<g>
	<g>
		<path d="M328.07,350.77c0.09-0.59,2.09-0.4,2.49-0.42c0.94-0.04,1.89-0.08,2.83-0.12c1.89-0.09,3.77-0.17,5.66-0.23
			c1.77-0.05,3.55-0.12,5.31-0.05c1.7,0.06,3.55,0.67,3.6,2.67c0.01,0.32,0.51,0.32,0.5,0c-0.05-1.8-1.43-2.86-3.11-3.09
			c-1.98-0.28-4.08-0.09-6.06-0.03c-2.3,0.07-4.59,0.18-6.89,0.29c-1.15,0.05-2.3,0.07-3.45,0.14c-0.5,0.03-1.28,0.11-1.38,0.73
			C327.53,350.95,328.02,351.08,328.07,350.77L328.07,350.77z"/>
	</g>
</g>
<g>
	<g>
		<path d="M326.17,363.95c4.09,0.51,8.21,0.62,12.32,0.55c2.1-0.03,4.2-0.1,6.29-0.18c0.69-0.02,1.46,0,2.04-0.43
			c0.53-0.4,0.75-1.04,0.9-1.66c0.52-2.15,0.72-4.37,0.68-6.58c-0.01-0.32-0.51-0.32-0.5,0c0.04,2.25-0.08,4.71-0.78,6.87
			c-0.21,0.65-0.56,1.1-1.26,1.23c-0.55,0.11-1.14,0.07-1.7,0.09c-1.19,0.04-2.39,0.08-3.58,0.11c-4.81,0.13-9.64,0.09-14.42-0.51
			C325.85,363.41,325.86,363.91,326.17,363.95L326.17,363.95z"/>
	</g>
</g>
<g>
	<g>
		<path d="M435.17,350.03c-0.2-1.41,1.71-1.4,2.61-1.41c1.07-0.01,2.14-0.02,3.21-0.04c2.1-0.04,4.21-0.09,6.31-0.14
			c2.56-0.06,5.11-0.14,7.66-0.26c2.46-0.12,4.93-0.23,7.4-0.15c1.01,0.03,2.03,0.08,3.02,0.3c1.14,0.25,1.9,0.99,2.47,2.01
			c0.98,1.77,1.35,3.95,1.63,5.93c0.24,1.66,0.71,4.29-0.98,5.37c-0.27,0.17-0.02,0.61,0.25,0.43c1.31-0.84,1.51-2.47,1.43-3.91
			c-0.12-2.04-0.5-4.13-1.1-6.09c-0.43-1.43-1.15-3.11-2.53-3.87c-0.73-0.4-1.66-0.48-2.47-0.56c-2.72-0.27-5.49-0.12-8.22,0
			c-2.86,0.13-5.71,0.24-8.57,0.31c-2.68,0.06-5.36,0.13-8.04,0.16c-1.44,0.02-4.92-0.36-4.58,2.06
			C434.74,350.48,435.22,350.34,435.17,350.03L435.17,350.03z"/>
	</g>
</g>
<g>
	<g>
		<path d="M467.5,361.97c-5.37,0.12-10.76-0.03-16.13-0.09c-2.44-0.03-4.88-0.06-7.32-0.11c-1.61-0.04-3.2-0.04-4.75-0.39
			c-0.83-0.19-1.67-0.45-2.37-0.95c-0.92-0.66-1.26-1.72-1.39-2.8c-0.24-2,0.02-4.01-0.44-5.99c-0.07-0.31-0.56-0.18-0.48,0.13
			c0.44,1.86,0.22,3.75,0.4,5.64c0.16,1.62,0.72,3.01,2.21,3.78c1.69,0.87,3.62,0.99,5.47,1.05c4.93,0.15,9.86,0.17,14.78,0.21
			c3.33,0.03,6.67,0.11,10,0.03C467.82,362.46,467.82,361.96,467.5,361.97L467.5,361.97z"/>
	</g>
</g>
<g>
	<g>
		<path d="M316.89,257.81c-0.41-1.88-1.34-3.62-2.62-5.05c-0.35-0.39-1.06-0.38-1.41,0c-0.38,0.42-0.37,1,0,1.41
			c0.14,0.15,0.27,0.31,0.4,0.47c0.07,0.09,0.04,0.03-0.01-0.02c0.04,0.04,0.08,0.11,0.12,0.15c0.06,0.08,0.12,0.17,0.18,0.25
			c0.24,0.35,0.46,0.71,0.65,1.09c0.09,0.18,0.18,0.37,0.26,0.56c0.05,0.12,0.03,0.02-0.01-0.03c0.03,0.03,0.04,0.1,0.06,0.14
			c0.04,0.1,0.07,0.19,0.11,0.29c0.15,0.41,0.27,0.83,0.36,1.26c0.11,0.51,0.74,0.86,1.23,0.7
			C316.73,258.86,317.01,258.35,316.89,257.81L316.89,257.81z"/>
	</g>
</g>
<ellipse transform="matrix(0.0867 -0.9962 0.9962 0.0867 -8.2798 456.0892)" class="st33" cx="244.61" cy="232.56" rx="2.75" ry="2.3"/>
<ellipse transform="matrix(0.0867 -0.9962 0.9962 0.0867 101.0013 907.5934)" class="st33" cx="545.51" cy="398.71" rx="2.75" ry="1.82"/>
<path class="st34" d="M493.31,279.03c0.37,10.63-1.53,24.49-3.93,34.84c-3.06,13.21-3.59,26.81-3.76,40.33
	c-0.17,14.15-0.78,28.44-0.89,42.67c-0.01,1-0.07,2.01-0.26,3c-1.14,5.99-4.74,6.65-8.17,8.6c-2.57,1.46-5.01,2.74-7.86,3.7
	c-6.28,2.1-12.84,3.13-19.37,4.07c-15.43,2.21-31.29,3.92-46.48,0.38c-0.31-0.07-0.85-0.3-1.5-0.6c-4.29-2.03-7.34-6-8.32-10.65
	c-0.16-0.78-0.32-1.58-0.48-2.39c-5.83-28.77-9.35-58.3-6.33-87.5c0.59-5.71,1.43-11.41,3.07-16.91c1.12-3.78,2.62-7.44,4.11-11.09
	c9.28-22.76,17.83-45.58,28.41-67.82c6.38-13.41,13.27-26.58,20.64-39.48c2.91-5.09,5.9-10.14,8.97-15.14
	c1.51-2.47,3.06-4.92,4.59-7.38c1.33-2.14,3.02-4.75,2.95-7.37c-0.03-0.94-0.28-1.86-0.54-2.77c-0.4-1.43-0.81-2.88-1.59-4.13
	c-0.78-1.26-2-2.32-3.46-2.57"/>
<path class="st35" d="M397.01,178.43c-4.59,19.83-9.4,49.02-11.71,69.24s-2.33,42.22,1.25,62.26"/>
<path class="st36" d="M408.03,165.29c-1.85-0.05-4.82-1.32-5.71-2.95c-0.89-1.63-1.29-2.76-0.32-4.34"/>
<path class="st36" d="M398.08,180.24c2.76-1.24,3.78-4.6,3.78-7.31c0-1.94-0.15-3.92,0.44-5.77c0.18-0.56,0.44-1.12,0.89-1.51
	c0.71-0.62,1.68-0.64,2.56-0.52c0.71,0.1,1.63-0.03,2.29,0.15"/>
<path class="st36" d="M398.08,180.24c-2.1-2.81-2.58-6.6-1.93-10.05c0.64-3.45,2.29-6.63,4.12-9.63c0.51-0.83,1.04-1.66,1.42-2.56"
	/>
<g>
	<g>
		<path d="M414.55,185.88c0.09,0.02,0.4,0.09,0-0.03c0.07,0.02,0.13,0.08,0.19,0.11c-0.21-0.13-0.14-0.09-0.01,0.01
			c0.21,0.16-0.07-0.16,0.04,0.05c0.04,0.08,0.1,0.15,0.14,0.23c0.06,0.11,0.18,0.41,0.07,0.12c0.09,0.24,0.17,0.47,0.24,0.72
			c0.08,0.28,0.14,0.57,0.2,0.86c0.03,0.15,0.05,0.3,0.08,0.45c0.01,0.08,0.03,0.17,0.04,0.25c0.02,0.15-0.02-0.18,0.01,0.11
			c0.09,0.77,0.15,1.55,0.19,2.33c0.19,4.25-0.09,8.52-0.43,12.75c-0.38,4.77-0.91,9.53-1.49,14.28c-0.44,3.62-0.87,6.79-1.36,10.31
			c-0.49,3.53-0.78,7.09-1.18,10.63c-0.03,0.24-0.06,0.47-0.08,0.71c-0.01,0.1-0.03,0.24-0.01,0.05c-0.01,0.08-0.02,0.16-0.04,0.24
			c-0.08,0.53,0.14,1.08,0.7,1.23c0.48,0.13,1.15-0.16,1.23-0.7c0.39-2.47,0.56-4.99,0.81-7.48c0.09-0.85,0.17-1.7,0.27-2.54
			c0.02-0.17,0.04-0.34,0.07-0.51c0.02-0.16-0.04,0.26-0.01,0.09c0.01-0.05,0.01-0.11,0.02-0.16c0.02-0.13,0.03-0.25,0.05-0.38
			c0.47-3.4,0.93-6.81,1.36-10.22c0.6-4.79,1.14-9.59,1.55-14.4c0.38-4.42,0.7-8.87,0.55-13.3c-0.05-1.58-0.15-3.18-0.5-4.72
			c-0.23-1-0.62-2.21-1.55-2.78c-0.19-0.11-0.4-0.21-0.61-0.25C413.82,183.71,413.28,185.64,414.55,185.88L414.55,185.88z"/>
	</g>
</g>
<g>
	<g>
		<path d="M402.93,183.5c-2.13,0.73-2.41,2.89-2.98,4.79c-0.72,2.39-1.43,4.78-2.15,7.17c-1.46,4.9-2.9,9.81-4.29,14.73
			c-2.81,9.95-5.4,19.98-7.43,30.12c-1.1,5.54-2.03,11.11-2.71,16.72c-0.06,0.54,0.51,1,1,1c0.59,0,0.93-0.46,1-1
			c1.18-9.77,3.16-19.43,5.48-28.99c2.37-9.73,5.11-19.36,7.96-28.96c0.78-2.63,1.57-5.26,2.35-7.88c0.36-1.2,0.75-2.41,1.07-3.62
			c0.21-0.77,0.36-1.85,1.22-2.15C404.67,185.02,404.15,183.09,402.93,183.5L402.93,183.5z"/>
	</g>
</g>
</svg>
