<?xml version="1.0" encoding="utf-8"?>
<!-- Generator: Adobe Illustrator 28.0.0, SVG Export Plug-In . SVG Version: 6.00 Build 0)  -->
<svg version="1.1" id="Layer_1" xmlns="http://www.w3.org/2000/svg" xmlns:xlink="http://www.w3.org/1999/xlink" x="0px" y="0px"
	 viewBox="0 0 800 800" style="enable-background:new 0 0 800 800;" xml:space="preserve">
<style type="text/css">
	.st0{fill:#2D2D2D;}
	.st1{fill:#44260C;}
	.st2{fill:#4D4F60;}
	.st3{fill:#331908;}
	.st4{fill:url(#SVGID_1_);}
	.st5{fill:url(#SVGID_00000041999836075456447490000013145518584442311307_);}
	.st6{fill:url(#SVGID_00000035526671348147397920000010498827583863346866_);}
	.st7{fill:url(#SVGID_00000047760817128478390990000005693713848840648104_);}
	.st8{fill:#707070;}
	.st9{fill:#7C808E;}
	.st10{fill:#683B19;}
	.st11{fill:none;stroke:#000000;stroke-width:0.25;stroke-miterlimit:10;}
</style>
<g>
	<g>
		<path class="st0" d="M424.25,666.46c0-0.03,0-0.07,0-0.1c-0.04-3.64,0.89-7.19,1.36-10.78c0.55-4.18,0.49-8.41,0.3-12.61
			c-0.17-3.62,0.09-7.25,0.41-10.88c0.08-0.89,0.16-1.77,0.24-2.66c0.73-8.04,1.47-16.15,0.79-24.22
			c-0.66-7.86-3.03-15.38-4.76-23.03c-1.23-5.44-1.59-11.03-1.81-16.59c-0.22-5.38-1.15-10.76-1.8-16.11
			c-0.3-2.42-0.57-4.86-0.55-7.3c0.01-1.24,0.09-2.49,0.06-3.73c-0.07-2.56-0.64-5.06-0.93-7.59c-0.25-2.2-0.1-4.48-0.09-6.7
			c0.02-4.78,0.42-9.58-0.04-14.33c0.42-0.21,0.82,0.31,1.01,0.75c3.13,7.15,6.34,14.26,9.83,21.24c2.53,5.28,5.06,10.55,7.32,15.95
			c2.43,5.79,4.54,11.71,6.52,17.67c0.99,2.98,1.94,5.98,2.88,8.97c0.84,2.68,1.92,5.24,2.59,7.94c0.44,1.76,0.92,3.52,1.53,5.23
			c1.91,5.3,3.82,10.59,5.73,15.89c1.29,3.59,2.59,7.18,3.65,10.85c1.23,4.22,2.14,8.53,2.74,12.88c0.58,4.19,1.86,8.25,3.26,12.26
			c1.99,5.68,4.66,11.03,6.67,16.71c1.49,4.2,2.98,8.41,4.25,12.69c0.64,2.16,1.23,4.35,1.73,6.55c0.45,1.97,1.17,3.63,1.76,5.55
			c0.22,0.71,0.48,1.47,1.06,1.93c0.79,0.63,1.93,0.53,2.93,0.39c2.89-0.39,5.78-0.78,8.67-1.18c1.8-0.24,3.63-0.9,5.4-1.34
			c1.59-0.4,3.19-0.8,4.82-1.01c3.07-0.4,6.16,0,9.22-0.05c3.5-0.06,6.99-0.2,10.49-0.35c1.11-0.05,2.24-0.1,3.31-0.39
			c1.47-0.4,4.16-1.73,4.02-3.61c-0.04-0.55-0.29-1.06-0.49-1.58c-0.64-1.67-0.4-3.16-0.44-4.86c-0.04-1.65-0.62-3.3-0.81-4.94
			c-0.53-4.41-0.73-8.74-1.48-13.11c-0.7-4.07-0.4-8.22-0.89-12.3c-0.47-3.98-1.81-7.68-2.83-11.54
			c-1.53-5.78-2.75-11.63-3.65-17.54c-0.14-0.92-0.28-1.85-0.36-2.78c-0.13-1.39-0.16-2.81-0.42-4.19
			c-0.24-1.23-0.82-2.32-1.09-3.53c-1.19-5.31-2.45-10.85-4.4-15.9c-1.66-4.3-2.61-8.66-3.65-13.08c-0.21-0.87-0.41-1.74-0.63-2.61
			c-1.39-5.54-2.27-11.19-2.8-16.88c-0.75-7.97-2.41-15.98-3.65-23.92c-0.46-2.95-1.34-5.77-2.01-8.69c-0.77-3.3-1.6-6.59-2.49-9.86
			c-0.35-1.26-0.7-2.53-0.96-3.81c-0.52-2.63-1.16-5.22-1.72-7.86c-0.31-1.45-0.61-2.89-0.92-4.34c-0.26-1.23-0.84-2.71-0.84-3.96
			c-0.34-1.62-0.69-3.24-0.87-4.89c-0.52-4.68-2.32-9.22-3.09-13.87c-1.66-7.26-3.45-14.49-4.37-21.89
			c-0.68-5.5-1.36-11.16-1.55-16.72c-0.18-5.28-0.16-10.43-0.73-15.68c-0.1-0.91,0.14-1.79,0.14-2.71c0.01-1.28,0-2.56-0.01-3.84
			c-0.02-2.63-0.07-5.25-0.2-7.88c-0.12-2.45-0.23-4.97-0.57-7.41c-0.33-2.32-1.32-4.39-1.29-6.83c0.02-1.81,0.29-3.84-0.85-5.25
			c-1.03-1.28-2.83-1.56-4.45-1.75c-1.71,0-3.52-0.41-5.23-0.61c-1.72-0.2-3.44-0.41-5.14-0.7c-12.61-2.13-25.42-2.41-38.18-2.8
			c-1.89-0.06-3.69,0.07-5.59-0.04c-2.14-0.12-4.28-0.25-6.42-0.37c-4.29-0.25-8.61-0.5-12.89-0.06c-2.22,0.23-4.42,0.64-6.6,1.12
			c-0.51,0.11-1.09,0.21-1.51-0.1c-0.28-0.21-0.41-0.55-0.63-0.82c-0.62-0.79-1.78-0.84-2.78-0.82c-6.45,0.18-12.87,1.04-19.27,1.9
			c-0.84,0.11-1.86,0.36-2.11,1.17c-0.11,0.35-0.06,0.77-0.31,1.03c-0.16,0.17-0.4,0.22-0.63,0.27c-4.63,0.97-9.33,1.58-13.99,2.59
			c-1.5,0.3-2.98,0.66-4.46,1.02c-1.19,0.29-2.46,0.39-3.62,0.71c-2.91,0.81-5.82,2.45-8.57,3.71c-1.02,0.47-2.29,0.98-3.06,1.83
			c-0.74,0.82-1.06,2.15-1.29,3.21c-0.52,2.39-0.51,4.84-0.53,7.27c-0.02,2.44-0.27,4.82-0.48,7.25
			c-0.84,10.09-0.47,20.28,1.11,30.27c0.28,1.77,0.63,3.53,0.71,5.32c0.5,12.03,3.54,23.48,6.1,35.18c0.69,3.15,1.38,6.3,2.07,9.45
			c1.57,7.16,3.51,14.18,4.86,21.4c1.32,7.08,2.68,14.18,3.8,21.3c0.66,4.21,1.58,8.37,2.53,12.51c0.94,4.05,1.47,8.13,2.1,12.24
			c0.21,1.38,0.42,2.75,0.74,4.11c0.31,1.3,0.72,2.59,0.93,3.91c0.27,1.69,0.21,3.42,0.26,5.13c0.06,2.22,0.28,4.43,0.68,6.62
			c0.36,1.97,1.04,3.73,1.3,5.76c0.7,5.53,0.61,11.12,1.53,16.61c0.87,5.24,1.77,10.47,2.65,15.71c0.45,2.66,0.9,5.31,1.35,7.97
			c0.22,1.3,0.55,2.62,0.67,3.93c0.09,1.03,0.06,1.94,0.4,2.95c1.25,3.72,1.82,7.63,2.39,11.52c0.85,5.86,1.7,11.73,2.55,17.59
			c0.54,3.7,0.56,7.46,1.03,11.17c0.27,2.16,0.95,4.19,0.88,6.36c-0.07,2.29,0.46,4.67,0.77,6.95c0.07,0.51,0.15,1.04,0.43,1.48
			c0.8,1.21,2.61,0.95,4.05,0.72c5.21-0.83,10.57,0.67,15.78-0.11c1.5-0.22,2.96-0.63,4.45-0.85c4.8-0.71,9.87,0.53,14.44-1.1
			c2.41-0.86,4.67-2.51,7.23-2.34c1.17,0.08,2.36,0.54,3.48,0.2c1.13-0.34,1.89-1.45,2.15-2.6c0.34-1.51-0.46-3.01-0.32-4.52
			C424.39,669.43,424.27,668.04,424.25,666.46z"/>
	</g>
	<path class="st1" d="M368.28,385.47c-0.21-0.35-0.77-1.05-1.24-1.2c0.28-0.33,0.44-0.88,0.65-1.25s0.22-0.75,0.12-1.08
		c0.99-0.93,0.11-2.85-1.53-2.63c-3.04,0.42-6.04,1.11-9.07,1.6c-3.03,0.49-6.07,0.9-9.02,1.78c-2.66,0.79-5.29,1.9-7.84,3.01
		c-1.13,0.49-2.17,1.05-3.12,1.72c-0.09-0.03-0.18-0.05-0.29-0.05c-1.15,0.03-2.81,0.56-3.55,1.51c-0.87,1.11-0.75,3.07-0.83,4.4
		c-0.06,0.99,1.03,1.34,1.78,1.02c0.65-0.28,1.25-0.7,1.8-1.19c0.1-0.01,0.19,0.01,0.29-0.02c0.08-0.02,0.17-0.05,0.25-0.07
		c0.14,0.02,0.27,0.05,0.41,0.05c0.25,0,0.47-0.06,0.69-0.15c0.14-0.06,0.39-0.18,0.55-0.33c0.19,0.11,0.39,0.2,0.63,0.29
		c0.67,0.24,1.41,0.38,2.12,0.41c0.78,0.04,1.58-0.11,2.35-0.36c0.09,0.01,0.2,0.01,0.3,0.01l0,0h0.01c0.15,0,0.3-0.02,0.46-0.06
		c0.09-0.02,0.18-0.03,0.26-0.05c0.63-0.09,1.26-0.19,1.88-0.3c1.65-0.18,3.35-0.29,4.81-0.94c0.79-0.16,1.59-0.31,2.38-0.44
		c1.54-0.26,3.07-0.46,4.57-0.74c0.1,0.02,0.19,0.05,0.3,0.05c1.64-0.02,3.18-0.27,4.78-0.61c1.35-0.29,3.12-0.36,4.31-1.09
		C368.66,388.03,368.95,386.58,368.28,385.47z"/>
	<path class="st1" d="M479.88,383.6c0-0.06,0.01-0.12,0.01-0.18c-0.01,0-0.02,0-0.02,0c-0.01-0.11-0.01-0.23-0.02-0.34
		c-0.03-0.22-0.16-0.4-0.33-0.56c0-0.79-0.26-1.55-0.98-1.99c-0.62-0.38-1.44-0.49-2.15-0.65c-0.77-0.17-1.54-0.31-2.31-0.43
		c-1.52-0.25-3.06-0.44-4.6-0.59c-1.21-0.12-2.4-0.17-3.6-0.18c-2.67-0.63-5.36-1.2-8.07-1.56c-1.86-0.25-3.73-0.42-5.61-0.5
		c-1.82-0.07-3.66-0.21-5.43,0.27c-3.43-0.66-6.83-1.15-10.37-1.33c-4.22-0.21-8.64-0.69-12.88-0.4c-0.28-0.27-0.66-0.45-1.15-0.45
		c-4.65,0.02-9.24,0.35-13.87,0.65c-2.26,0.15-4.52,0.2-6.78,0.27c-2.16,0.07-4.34,0.03-6.46,0.48c-0.16-0.13-0.33-0.24-0.53-0.31
		c-0.44-0.14-0.84,0.1-1.09,0.44c-0.5,0.68-0.15,1.85,0.04,2.6c0.18,0.75,0.45,1.49,0.67,2.22c0,0.01,0,0.01,0.01,0.02
		c-0.1,0.65,0.09,1.41,0.17,2.03c0.09,0.69,0.16,1.42,0.26,2.17c0.09,0.73,0.49,1.34,1.27,1.44c0.63,0.08,1.11-0.22,1.42-0.7
		c0.29,0.08,0.6,0.12,0.96,0.07c5.9-0.82,11.86-0.76,17.77-1.54c2.69-0.35,5.3-0.29,8-0.41c0.29-0.01,0.62-0.03,0.95-0.06
		c0.13,0.09,0.27,0.16,0.45,0.21c5.84,1.51,12.12,0.62,18.12,0.69c4.9,0.06,9.94,0.71,14.87,0.42c0.09,0.05,0.16,0.11,0.26,0.14
		c2.85,0.95,6.03,0.91,9.01,1.11c0.27,0.02,0.53,0.03,0.8,0.05c0.44,0.24,0.96,0.39,1.42,0.5c0.95,0.21,1.93,0.37,2.9,0.43
		c1.79,0.11,3.59,0.21,5.38,0.31c0.75,0.04,1.28-0.64,1.32-1.32c0.06-0.91,0.12-1.83,0.18-2.74
		C479.87,383.79,479.88,383.7,479.88,383.6z"/>
	<path class="st1" d="M386.44,382.07c0-1.42-0.04-3.43-1.27-4.41c-0.2-0.54-0.66-0.97-1.31-0.93c-3.03,0.21-6.05,0.28-9.07,0.63
		c-0.74,0.08-1.49,0.16-2.23,0.26c-0.57,0.07-1.15,0.16-1.61,0.54c-0.39,0.33-0.69,0.74-0.81,1.24c-0.07,0.27-0.06,0.57-0.01,0.84
		c0.01,0.05,0.04,0.12,0.07,0.2c-0.02,0.18,0,0.37,0.06,0.56c-0.24,0.59,0.42,1.18,0.95,0.86c0.05,0.01,0.11,0,0.16,0v0.02
		c1.56,0.16,3.09-0.07,4.63-0.29c0.73-0.1,1.46-0.21,2.18-0.31c0.36-0.05,0.76-0.13,1.15-0.19c0.13,0.38,0.3,0.72,0.5,1.07
		c0.19,0.34,0.26,0.59-0.13,0.81c-0.5,0.28-1.31,0.22-1.86,0.26c-0.8,0.06-1.59,0.13-2.38,0.23c-0.75,0.09-1.49,0.18-2.24,0.27
		c-0.65,0.08-1.31,0.1-1.83,0.55c-1.14,0.99-0.5,2.86-0.57,4.18c-0.04,0.77,0.72,1.53,1.49,1.49c0.62-0.03,1.25,0.01,1.86-0.08
		c0.5-0.07,1-0.13,1.5-0.19c1.15-0.14,2.3-0.28,3.45-0.45c2.14-0.31,4.3-0.57,6.46-0.79c0.87-0.09,1.61-0.67,1.61-1.61
		C387.2,385.18,386.44,383.7,386.44,382.07z"/>
	<path class="st2" d="M394.62,388.31c-0.02-0.18-0.04-0.35-0.07-0.53c-0.3-2.08-1.13-4.07-1.3-6.16c-0.07-0.84-0.03-1.68-0.06-2.52
		c-0.04-0.96-0.18-1.92-0.41-2.86c-0.09-0.38-0.21-0.77-0.48-1.06c-0.48-0.53-1.29-0.56-2-0.55c-0.92,0.01-1.85,0.02-2.76,0.11
		c-0.07-0.24-0.27-0.43-0.55-0.41c-0.76,0.07-1.53,0.14-2.29,0.25c-0.15,0.02-0.3,0.04-0.45,0.06c-0.13-0.12-0.29-0.17-0.48-0.14
		c-1.14,0.1-2.28,0.2-3.41,0.4c-0.89,0.16-1.72,0.44-2.55,0.74c-0.38,0.01-0.76,0.03-1.15,0.04c-1.36,0.05-2.71,0.07-4.07,0.19
		c-0.27,0.02-0.5,0.16-0.61,0.39c-0.13,0.02-0.26,0.05-0.39,0.07c-0.36,0.07-0.71,0.15-1.07,0.24c-0.71,0.18-1.41,0.39-2.09,0.63
		c-0.66,0.23-0.45,1.09,0.17,1.11c-0.03,0.19-0.07,0.37-0.09,0.56c-0.04,0.29-0.06,0.58-0.07,0.87s0,0.59,0.01,0.88
		c0.01,0.15,0.01,0.3,0.02,0.46c0.01,0.17,0,0.35,0.04,0.51c0.12,0.42,0.58,0.6,0.97,0.44c0.04-0.02,0.08-0.03,0.12-0.06
		c0.03,0,0.07,0.01,0.1,0.01c0.08,0.01,0.15,0,0.23-0.01c-0.35,0.07-0.71,0.15-1.06,0.24c-0.44,0.11-0.84,0.3-1.27,0.43
		c-0.27,0.08-0.38,0.33-0.35,0.56c-0.14,0.11-0.26,0.24-0.32,0.44c-0.19,0.62,0.34,1.44,0.95,1.62c0.37,0.11,0.68-0.07,0.99-0.25
		c0.29-0.16,0.59-0.3,0.9-0.43c0.41-0.17,0.83-0.29,1.26-0.4c0.09,0.05,0.19,0.09,0.32,0.08c0.47-0.02,0.94-0.06,1.41-0.13
		c0.36-0.05,0.69-0.15,1.02-0.26c0.25,0.01,0.5,0.02,0.75,0.01c0.45-0.03,0.91-0.06,1.36-0.11c0.78-0.08,1.55-0.19,2.31-0.32
		c0.13,0.13,0.29,0.22,0.48,0.23c0.67,0,1.51-0.1,2.03-0.57c0.56-0.5,0.57-1.33,0.02-1.85c-0.58-0.55-1.38-0.43-2.1-0.34
		c-0.82,0.1-1.63,0.2-2.44,0.35c0,0.01,0,0.01,0,0.02c-0.05,0.01-0.09,0.03-0.13,0.06c-0.45,0.06-0.91,0.11-1.36,0.17
		c-0.51,0.06-1.04,0.1-1.55,0.19c-0.11-0.09-0.23-0.16-0.4-0.14c-0.89,0.08-1.77,0.21-2.64,0.38c-0.04,0.01-0.07,0.02-0.11,0.02
		c0.07-0.02,0.14-0.04,0.21-0.08c0.33-0.2,0.45-0.59,0.39-0.96c-0.04-0.26-0.17-0.5-0.18-0.71c-0.02-0.33,0.03-0.66,0.03-0.99
		c0-0.19-0.02-0.37-0.03-0.56c0-0.06-0.01-0.13-0.02-0.19l0,0c0.09-0.07,0.19-0.13,0.27-0.21c0.12-0.11,0.23-0.21,0.35-0.32
		c0.63-0.11,1.26-0.21,1.9-0.31c0.74-0.11,1.46-0.23,2.18-0.39c0.08-0.01,0.16-0.02,0.25-0.03c0.51-0.07,1.02-0.12,1.54-0.18
		c0.08,0.04,0.17,0.07,0.28,0.07c1.55,0.03,3.1-0.02,4.65-0.04c1.22-0.01,2.44-0.06,3.65-0.22c0,0.2-0.01,0.41,0.03,0.61
		c0.07,0.42,0.22,0.82,0.36,1.23c0.46,1.33,0.78,2.7,0.97,4.1c0.19,1.37,0.18,2.61,0.01,3.97c-0.06,0.47-0.09,0.94-0.08,1.41
		c-0.45,0.01-0.97,0.28-1.47,0.31c-1.56,0.09-3.12,0.19-4.68,0.28c-1.68,0.1-3.37,0.2-5.03,0.5c-0.94,0.17-1.88,0.4-2.83,0.5
		c-0.32,0.04-0.66,0.05-0.96-0.07c-0.14-0.06-0.26-0.12-0.39-0.19c-0.02-0.15-0.04-0.3-0.06-0.44c-0.05-0.44-0.13-0.87-0.21-1.3
		c-0.11-0.65-0.18-1.3-0.21-1.96c0.03-0.25,0.02-0.5-0.09-0.74c0.01-0.02,0.03-0.03,0.04-0.05c0.15-0.17,0-0.39-0.21-0.35
		c-0.1,0.02-0.19,0.05-0.28,0.07c-0.19-0.02-0.38,0.05-0.51,0.18c-0.13,0.06-0.27,0.12-0.39,0.22c-0.41,0.34-0.58,0.88-0.56,1.4
		c0.05,1.03,0.13,2.08,0.27,3.1c-0.06,0.02-0.12,0.05-0.17,0.09c-0.13,0.12-0.18,0.31-0.2,0.49c-0.07,0.49-0.05,1,0.06,1.48
		c0.05,0.24,0.14,0.49,0.34,0.62c0.13,0.09,0.3,0.11,0.45,0.12c0.02,0,0.04,0,0.06,0c0.09,0.06,0.18,0.1,0.29,0.11
		c0.15,0.02,0.29-0.03,0.42-0.09c1.17,0,2.35-0.18,3.52-0.28c1.52-0.12,3.04-0.2,4.55-0.32c2.55-0.21,5.11-0.43,7.66-0.64
		c1.21-0.1,2.41-0.03,3.62-0.19c1.39-0.18,3.86,0.04,4.66-1.45C394.68,389.18,394.67,388.73,394.62,388.31z"/>
	<g>
		<path class="st3" d="M359.25,385.92c0-0.02,0-0.04-0.01-0.06c0-0.02-0.01-0.03-0.01-0.05
			C359.24,385.85,359.25,385.88,359.25,385.92z"/>
		<path class="st3" d="M360.75,384.65c-0.31-0.21-0.76-0.19-0.99,0.12c-0.21,0.06-0.38,0.18-0.45,0.4
			c-0.03,0.09-0.04,0.18-0.06,0.27c-0.01,0.08-0.02,0.15-0.03,0.23c0,0.07,0.01,0.13,0.02,0.2c0.01,0.07,0.01,0.15,0.04,0.21
			c0.05,0.12,0.1,0.21,0.18,0.31l0,0c0.01,0.02,0.01,0.05,0.01,0.07c0.07,0.18,0.18,0.33,0.36,0.41c0.15,0.07,0.32,0.1,0.49,0.09
			c0.19-0.02,0.37-0.08,0.51-0.22c0.11-0.12,0.18-0.25,0.24-0.4C361.3,385.76,361.3,385.02,360.75,384.65z"/>
	</g>
	<path class="st3" d="M348.56,387.95c-0.01-0.07-0.04-0.14-0.06-0.2c-0.04-0.18-0.14-0.33-0.26-0.46c-0.01-0.01-0.01-0.03-0.02-0.05
		c-0.05-0.05-0.11-0.09-0.17-0.13c-0.27-0.16-0.64-0.08-0.83,0.17c-0.02,0.01-0.05,0-0.07,0.01c-0.22,0.12-0.37,0.33-0.42,0.56
		c-0.04,0.19-0.07,0.39-0.05,0.58c0.03,0.21,0.07,0.41,0.18,0.59c0.1,0.17,0.25,0.32,0.42,0.41c0.3,0.15,0.64,0.12,0.89-0.12
		c0.15-0.14,0.24-0.33,0.32-0.52c0.06-0.16,0.09-0.33,0.09-0.5C348.6,388.18,348.58,388.06,348.56,387.95z"/>
	<path class="st3" d="M401.74,379.75c-0.19-0.15-0.39-0.24-0.64-0.25c-0.13-0.01-0.27,0.03-0.39,0.08c-0.13-0.01-0.26,0-0.37,0.04
		c-0.02,0.01-0.04,0.02-0.06,0.02c-0.01,0-0.01,0-0.02,0.01c-0.09,0.02-0.17,0.06-0.23,0.12c-0.08,0.06-0.14,0.15-0.19,0.24
		c-0.11,0.18-0.15,0.37-0.17,0.57c-0.04,0.32,0.03,0.7,0.23,0.97c0.25,0.34,0.6,0.54,1.02,0.57c0.76,0.05,1.29-0.68,1.28-1.38
		C402.18,380.37,402.04,379.99,401.74,379.75z"/>
	<path class="st3" d="M420.67,379.4c-0.09-0.23-0.23-0.39-0.43-0.54c-0.14-0.1-0.31-0.16-0.46-0.22c-0.29-0.1-0.58-0.01-0.8,0.18
		c-0.05,0.04-0.09,0.09-0.13,0.14c-0.01,0-0.01,0-0.02,0c-0.13,0.06-0.26,0.15-0.35,0.26c-0.01,0.01-0.02,0.02-0.03,0.04
		c-0.01,0.01-0.11,0.14-0.03,0.04c-0.03,0.04-0.07,0.08-0.1,0.13c-0.05,0.08-0.09,0.16-0.13,0.25c-0.13,0.32-0.07,0.69,0.12,0.97
		c0.19,0.29,0.49,0.53,0.85,0.58c0.41,0.06,0.78-0.03,1.11-0.29c0.27-0.22,0.39-0.57,0.44-0.9
		C420.73,379.83,420.75,379.61,420.67,379.4z"/>
	<g>
		<path class="st3" d="M439.85,379.8c-0.18-0.4-0.55-0.76-1.01-0.77c-0.14,0-0.28,0.03-0.4,0.09c-0.09-0.01-0.19-0.01-0.29,0.01
			c-0.15,0.02-0.27,0.06-0.39,0.18c-0.1,0.09-0.16,0.22-0.2,0.34c-0.05,0.15-0.04,0.32,0,0.48c-0.09,0.38-0.03,0.79,0.2,1.1
			c0.13,0.17,0.28,0.33,0.48,0.43c0.1,0.05,0.19,0.09,0.3,0.11c0.17,0.03,0.29,0.03,0.46,0c0.36-0.06,0.71-0.34,0.87-0.66
			c0.1-0.2,0.16-0.41,0.15-0.64C440.01,380.23,439.95,380.02,439.85,379.8z"/>
		<path class="st3" d="M438.09,379.14c0.02-0.01,0.04,0,0.06,0c0.03,0,0.05-0.01,0.08-0.02
			C438.18,379.13,438.14,379.13,438.09,379.14z"/>
	</g>
	<g>
		<path class="st3" d="M455.29,382.79c-0.03,0.02-0.05,0.03-0.07,0.05c-0.01,0.01-0.02,0.02-0.03,0.03
			C455.22,382.84,455.25,382.82,455.29,382.79z"/>
		<path class="st3" d="M455.74,381.43c-0.06-0.24-0.2-0.47-0.39-0.63c-0.09-0.08-0.19-0.15-0.3-0.2c-0.15-0.07-0.28-0.1-0.43-0.12
			c-0.08-0.01-0.15-0.03-0.23-0.02c-0.14,0.01-0.27,0.03-0.4,0.09c-0.27,0.11-0.49,0.34-0.56,0.63c0,0.02,0,0.04,0,0.06
			c-0.07,0.13-0.11,0.27-0.12,0.42c-0.03,0.29,0.03,0.57,0.15,0.83c0.14,0.3,0.4,0.58,0.73,0.65c0.19,0.04,0.4,0.02,0.58-0.05
			c0.17-0.06,0.3-0.14,0.44-0.25c0.11-0.08,0.2-0.16,0.28-0.27c0.09-0.12,0.15-0.24,0.21-0.38
			C455.8,381.96,455.79,381.68,455.74,381.43z"/>
		<path class="st3" d="M454.56,380.47c0.02,0,0.04,0.01,0.06,0.01c0.03,0,0.06,0,0.08,0.01
			C454.66,380.48,454.61,380.47,454.56,380.47z"/>
	</g>
</g>
<linearGradient id="SVGID_1_" gradientUnits="userSpaceOnUse" x1="324.0593" y1="536.7155" x2="444.9787" y2="520.8483">
	<stop  offset="0" style="stop-color:#040404"/>
	<stop  offset="0.999" style="stop-color:#2D2D2D;stop-opacity:0"/>
</linearGradient>
<path class="st4" d="M360.79,573.59c2.74,14.93,5.42,29.88,7.2,44.96c1.79,15.09,2.82,30.27,4.5,45.38
	c0.27,2.44,0.58,4.99,1.91,7.05c0.54,0.84,1.26,1.64,1.32,2.63c0.04,0.62-0.19,1.22-0.37,1.81c-0.47,1.53-0.61,3.17-0.42,4.76
	c0.04,0.33,0.11,0.69,0.37,0.9c1.24,1.02,5.93,0.81,7.54,0.71c3.6-0.21,7.19-0.59,10.79-0.77c7.03-0.5,14.29,0.27,20.86-2.78
	c-3.23-1.19-6.26-2.9-8.96-5.04c1.69-11.68,3.37-23.36,5.06-35.03c-2.05,0.37-4.11,0.74-6.16,1.11c-0.65,0.12-1.39,0.21-1.89-0.22
	c-0.48-0.41-0.53-1.13-0.54-1.76c-0.14-15.77,2.85-31.56,8.73-46.19c1.76-4.38,3.82-8.9,3.37-13.6c-0.33-3.37-1.92-6.47-3.43-9.51
	c-6.22-12.52-11.4-25.55-15.47-38.93c2.47,1.04,5.05,1.83,7.69,2.35c2.05-2.77,4.97-4.92,6.4-8.05c0.72-1.57,1.01-3.28,1.3-4.98
	c0.65-3.82,1.29-7.63,1.94-11.45c0.63-3.75,1.59-8.19,0.4-11.92c-1.25-3.9-2.83-7.85-4.07-11.82c-2.8-9.01-5.6-18.01-8.4-27.02
	c-0.76-2.45-1.51-5.15-0.5-7.51c0.91-2.1,3.16-3.75,3.04-6.03c-6.25-0.57-11.45-5.43-14.2-11.08c-2.75-5.64-3.49-12.02-4.19-18.26
	c-0.62-5.51-1.24-11.02-1.86-16.54c-0.16-1.4-0.33-2.84-1.04-4.05c-0.97-1.65-4.08-1.41-4.2-3.23c0.44,0.09,0.88-0.26,1.04-0.68
	s0.12-0.89,0.07-1.34c-0.15-1.45-0.3-2.91-0.45-4.36c-1.34,0.49-2.96,0.06-3.88-1.03c0.26-0.66,1.42-0.24,1.89-0.77
	c0.16-0.18,0.2-0.44,0.24-0.68c0.17-1.35,0.2-2.72,0.07-4.07c-0.03-0.3-0.08-0.63-0.32-0.8c-0.19-0.14-0.46-0.13-0.7-0.12
	c-2.06,0.12-4.12,0.36-6.16,0.73c-0.22,0.04-0.46,0.09-0.6,0.27c-0.18,0.23-0.1,0.56-0.11,0.86c-0.04,0.63-0.58,1.14-1.17,1.35
	c-0.6,0.21-1.24,0.19-1.88,0.18c-6.06-0.05-11.97,1.77-17.76,3.58c-2.83,0.88-5.65,1.76-8.48,2.65c-0.4,0.13-0.81,0.25-1.16,0.49
	c-0.27,0.18-0.49,0.43-0.75,0.62c-0.41,0.29-0.89,0.45-1.36,0.62c-2.45,0.92-3.23,2.73-3.4,5.25c-0.07,1.06-0.01,2.22-0.28,3.25
	c-0.15,0.58-0.52,1.08-0.53,1.66c0.86-0.09,1.74-0.26,2.42,0.49c0.46,0.51,0.61,1.23,0.74,1.91c0.6,3.12,0.79,6.3,0.8,9.47
	c0.01,2.71,0.72,6.52-0.68,8.95c-0.35,0.61-0.81,1.17-0.98,1.85c-0.2,0.85,0.1,1.73,0.38,2.55c2.33,6.87,3.64,14.08,3.89,21.33
	c0.2,5.93-0.3,11.89,0.43,17.77c0.78,6.27,2.94,12.29,4.09,18.5c0.63,3.39,0.95,6.83,1.64,10.2c1.37,6.74,4.53,12.89,6.28,19.46
	c1.87,7.02,1.73,15.15,2.77,22.38C355.65,545.89,358.25,559.74,360.79,573.59z"/>
<linearGradient id="SVGID_00000116915444597244101570000000577420760022427065_" gradientUnits="userSpaceOnUse" x1="382.4769" y1="545.5248" x2="482.8784" y2="517.8939">
	<stop  offset="0" style="stop-color:#040404"/>
	<stop  offset="0.2481" style="stop-color:#121212;stop-opacity:0.7516"/>
	<stop  offset="0.6952" style="stop-color:#262626;stop-opacity:0.3041"/>
	<stop  offset="0.999" style="stop-color:#2D2D2D;stop-opacity:0"/>
</linearGradient>
<path style="fill:url(#SVGID_00000116915444597244101570000000577420760022427065_);" d="M391.46,389.12
	c0.42-1.18,0.59-2.54,0.54-3.75c-0.12-3.24-0.7-6.46-1.71-9.53c5.21-1.83,11.91-1.23,17.34-1.03c6.53,0.24,13.07,0.48,19.6,0.72
	c4.41,0.16,8.83,0.33,13.24,0.49c3.32,0.12,6.24-0.07,8.01,3.22c1.97,3.65,3.82,7.52,3.98,11.66c0.03,0.7,0,1.41-0.2,2.08
	c-0.22,0.72-0.63,1.36-0.97,2.02c-1.83,3.58-1.53,8.15,0.74,11.46c0.91,1.32,2.13,2.54,2.34,4.13c0.21,1.65-0.74,3.2-1.57,4.64
	c-3.65,6.35-5.49,13.73-5.24,21.06c0.04,1.33,0.15,2.7-0.27,3.96c-0.73,2.16-3.14,3.62-5.4,3.26c1.06,4.36,2.8,9.02,3.28,13.48
	c0.39,3.72,0.2,7.63,0.55,11.42c0.79,8.73,2.1,17.45,4.71,25.83c2.04,6.57,4.83,14.1,8.78,19.77c4.03,5.78,9.3,10.71,12.39,17.12
	c2.37,4.92,3.22,10.44,5.54,15.38s6.86,9.51,12.31,9.32c-0.9,14.01-1.8,28.02-2.69,42.02c-0.1,1.57-0.19,3.18,0.31,4.67
	c0.58,1.71,1.89,3.05,2.93,4.52c4.07,5.72,4.16,13.23,4.88,20.22c0.8,7.82,2.58,15.54,5.28,22.92c0.97,2.66,2.1,5.33,3.95,7.47
	c2.19,2.53,5.25,4.13,8.27,5.56c4.29,2.03,8.67,3.86,13.14,5.46c-3.71,1.12-6.45,4.18-9.67,6.35c-6.01,4.05-13.55,4.92-20.75,5.66
	c-3.31,0.34-6.62,0.69-9.92,1.03c-6.43-14.71-12.89-29.53-16.39-45.2c-1.64-7.32-2.61-14.77-4.38-22.05
	c-3.08-12.71-8.5-24.71-12.96-37c-7-19.28-11.72-39.47-20.91-57.81c-2.18-4.35-4.88-9-9.04-11.75c-1.46-0.96-3.83-1.27-4.99-2.51
	c-1.52-1.64-2.16-5.27-2.91-7.35c-4.04-11.11-7.33-22.49-9.83-34.05c-0.41-1.9-0.8-3.84-0.61-5.77c0.2-2,1.01-3.87,1.81-5.71
	c1.72-3.95,3.44-7.91,5.17-11.86c-3-2.12-6.06-4.3-8.19-7.3c-2.71-3.81-3.39-8.54-5.25-12.71c-2.09-4.68-2.55-10.54-3.08-15.61
	c-0.51-4.88-1.19-10.62-5.47-13.01C389.81,392.02,390.88,390.75,391.46,389.12z"/>
<linearGradient id="SVGID_00000109023307722386632140000005430113462376199103_" gradientUnits="userSpaceOnUse" x1="440.6766" y1="456.3517" x2="464.7568" y2="434.8917" gradientTransform="matrix(1 0 0 1 0 -42.0001)">
	<stop  offset="0" style="stop-color:#040404"/>
	<stop  offset="0.999" style="stop-color:#2D2D2D;stop-opacity:0"/>
</linearGradient>
<path style="fill:url(#SVGID_00000109023307722386632140000005430113462376199103_);" d="M443.83,391.84
	c-0.6-0.05-1.27-0.07-1.71,0.34c-0.52,0.48-0.45,1.32-0.24,1.99c0.25,0.81,0.63,1.56,1.04,2.31c3.9,7.16,9.86,13.18,16.99,17.14
	c1.06,0.59,2.27,1.15,3.45,0.87c0.92-0.22,1.64-0.9,2.31-1.56c0.79-0.78,1.59-1.55,2.38-2.33c0.38-0.38,0.79-0.79,0.86-1.32
	c0.06-0.41-0.1-0.82-0.26-1.21c-3.06-7.37-9.73-13.09-17.41-15.19C448.81,392.21,446.34,392.04,443.83,391.84z"/>
<linearGradient id="SVGID_00000137828066111027427680000009523473162578537892_" gradientUnits="userSpaceOnUse" x1="350.0117" y1="455.252" x2="326.4307" y2="445.6449" gradientTransform="matrix(1 0 0 1 0 -42.0001)">
	<stop  offset="0" style="stop-color:#040404"/>
	<stop  offset="0.999" style="stop-color:#2D2D2D;stop-opacity:0"/>
</linearGradient>
<path style="fill:url(#SVGID_00000137828066111027427680000009523473162578537892_);" d="M337.55,419.69
	c0.49-0.38,0.8-0.94,1.09-1.49c3.04-5.8,5.27-12.03,6.59-18.45c0.07-0.35,0.13-0.75-0.1-1.02c-0.27-0.33-0.78-0.29-1.2-0.21
	c-1.5,0.27-3.11,0.59-4.19,1.66c-0.74,0.73-1.14,1.73-1.51,2.7c-1.37,3.65-2.46,7.41-3.25,11.23c-0.23,1.12-1.18,3.35-0.93,4.46
	C334.38,419.95,336.49,420.51,337.55,419.69z"/>
<g>
	<path class="st8" d="M336.33,393.83c-0.77,0.09-1.5,0.37-2.14,0.82c-0.31,0.22-0.6,0.46-0.84,0.75c-0.26,0.31-0.55,0.66-0.6,1.07
		c-0.01,0.11,0.09,0.23,0.18,0.27c0.12,0.05,0.23,0.02,0.33-0.06c0.14-0.11,0.22-0.27,0.33-0.41c0.09-0.13,0.2-0.24,0.31-0.36
		c0.22-0.23,0.45-0.45,0.72-0.64c0.54-0.38,1.16-0.62,1.81-0.74C336.82,394.47,336.73,393.78,336.33,393.83z"/>
	<path class="st8" d="M365.04,618.07c0-0.51-0.02-1.02-0.04-1.53c-0.04-0.92-0.06-1.84-0.08-2.76c-0.02-1.25-0.06-2.5-0.11-3.75
		c0.23-0.8,0.55-1.6,0.66-2.4c0.24-1.79-0.52-3.52-1.08-5.18c-0.6-1.79-1.18-3.59-1.8-5.38c-0.08-0.23-0.16-0.46-0.23-0.69
		c-1.17-9.95-2.87-19.83-4.64-29.69c-1.17-6.53-2.47-13.05-3.52-19.6c-1.06-6.59-1.92-13.23-2.73-19.86
		c-0.42-3.46-0.57-7.04-1.28-10.46c-0.63-3.03-1.22-6.14-2.88-8.8c-3.12-14.94-6.33-29.87-9.54-44.79
		c-0.35-1.64-0.71-3.28-1.08-4.91c-0.46-3.31-0.95-6.62-1.51-9.91c-0.26-1.51-0.46-3.03-0.66-4.54c0.01-0.05,0.02-0.1,0.02-0.15
		c-0.12-1.61-0.29-3.29,0.12-4.88c0.22-0.84,0.69-1.48,1.03-2.26c0.31-0.7,0.3-1.4,0.06-2.12c-0.56-1.72-1.34-3.38-1.91-5.1
		c-0.5-1.53-0.87-3.11-1.47-4.61c-0.18-1.67-0.3-3.35-0.34-5.04c-0.09-3.48,0.05-6.96,0.34-10.42c0.16-1.9,0.34-3.8,0.54-5.69
		c0.1-0.97,0.21-1.95,0.32-2.92c0.11-0.94,0.28-1.89,0.15-2.84c-0.04-0.26-0.47-0.31-0.58-0.08c-0.65,1.47-0.69,3.29-0.93,4.87
		c-0.25,1.67-0.49,3.35-0.68,5.03c-0.39,3.51-0.67,7.05-0.63,10.59c0.02,1.74,0.11,3.47,0.27,5.2c0.16,1.67,0.35,3.25,0.26,4.94
		c-0.09,1.56,0.6,3.01,0.9,4.51c0.29,1.43,0.47,2.89,0.64,4.34c-0.03,2.25,0.04,4.44,0.59,6.65c0.03,0.13,0.11,0.22,0.19,0.3
		c0.1,0.92,0.21,1.83,0.31,2.75c-0.07-0.04-0.16-0.03-0.15,0.06c0.21,2.42,0.73,4.8,1.14,7.18c0.43,2.47,0.88,4.92,1.39,7.37
		c1.01,4.9,2.04,9.79,3.06,14.68c2.05,9.81,4.09,19.63,6.15,29.44c0.6,2.86,1.2,5.73,1.8,8.59c-0.12,0.08-0.21,0.19-0.19,0.34
		c0.32,2.59,1.2,5.15,1.89,7.66c0.09,0.33,0.34,0.48,0.59,0.5c0.09,0.92,0.18,1.85,0.28,2.77c0.75,6.5,1.8,12.95,2.92,19.39
		c2.25,12.98,4.51,25.97,6.48,38.99c0.46,3.02,0.87,6.04,1.27,9.07c-0.28-0.01-0.56,0.15-0.53,0.49c0.17,2.12,0.57,4.2,0.92,6.29
		c0.23,1.4,0.47,2.79,0.7,4.19c-0.15,0.12-0.24,0.3-0.18,0.54c0.56,3.99,1.53,7.95,2.24,11.92s1.37,7.94,2,11.93
		c0.07,0.46,0.87,0.36,0.82-0.11C366.01,624.81,365.56,621.43,365.04,618.07z"/>
	<path class="st8" d="M389.38,674.64c-1.15-0.4-2.61-0.3-3.83-0.35c-1.29-0.06-2.59-0.07-3.89-0.06c-1.3,0.01-2.59,0.07-3.89,0.18
		c-0.67,0.05-1.34,0.1-2.01,0.19c-0.45,0.06-0.87,0.09-1.22,0.37c-0.05,0.04-0.03,0.13,0.02,0.16c0.45,0.24,0.98,0.16,1.49,0.14
		c0.67-0.03,1.34-0.07,2.01-0.09c1.25-0.04,2.49-0.06,3.74-0.07s2.5,0.02,3.74,0.06c1.23,0.04,2.61,0.32,3.83,0.12
		C389.73,675.23,389.66,674.74,389.38,674.64z"/>
	<path class="st8" d="M377.31,681.83c0-0.02,0-0.04-0.01-0.07c-0.09-0.21-0.7-0.11-0.88-0.13c-0.47-0.04-0.93-0.13-1.36-0.32
		c-1.46-0.66-1.37-2.4-1.15-3.73c0.25-1.52,0.47-2.95-0.05-4.45c-0.25-0.71-0.58-1.39-0.92-2.06c-0.17-0.34-0.35-0.67-0.55-0.99
		c-0.24-0.4-0.57-0.73-0.82-1.13c-0.03-0.05-0.11-0.02-0.09,0.04c0.13,0.44,0.16,0.9,0.3,1.35c0.14,0.44,0.3,0.86,0.47,1.28
		c0.29,0.73,0.58,1.47,0.74,2.24c0.38,1.79-0.45,3.44-0.45,5.22c0,1.02,0.32,2.09,1.07,2.81c0.82,0.77,2.4,0.58,3.38,0.23
		C377.14,682.07,377.31,681.96,377.31,681.83z"/>
	<path class="st8" d="M412.81,674.48c-1.02,0.17-1.98,0.36-3.02,0.33c-0.96-0.02-1.93-0.1-2.89-0.16c-0.96-0.07-1.92-0.01-2.88-0.08
		c-0.52-0.04-1.03-0.1-1.54-0.21c-0.4-0.08-0.79-0.21-1.2-0.2c-0.03,0-0.04,0.04-0.03,0.06c0.53,0.65,1.59,0.75,2.36,0.85
		c1.1,0.15,2.18,0.35,3.29,0.45c1.93,0.19,4.42,0.66,6.2-0.35C413.51,674.95,413.22,674.41,412.81,674.48z"/>
	<path class="st8" d="M416.93,670.46c-0.71,0.15-1.41,0.34-2.13,0.43c-0.35,0.05-0.7,0.09-1.05,0.12c-0.36,0.03-0.71,0.14-1.07,0.19
		c-0.06,0.01-0.05,0.1,0,0.12c0.34,0.09,0.71,0.21,1.07,0.23c0.38,0.02,0.75,0,1.13-0.04c0.75-0.08,1.51-0.2,2.21-0.5
		C417.42,670.87,417.31,670.38,416.93,670.46z"/>
	<path class="st8" d="M378.18,452.05c-2.75,0-5.49,0.08-8.24,0.08c-1.35,0-2.69-0.01-4.04-0.04c-0.67-0.02-1.35-0.03-2.02-0.04
		c-0.56,0-1.09-0.06-1.62,0.16c-0.09,0.04-0.07,0.17,0,0.21c0.5,0.28,1.05,0.26,1.62,0.31c0.62,0.05,1.24,0.08,1.86,0.1
		c1.4,0.05,2.8,0.09,4.2,0.1c2.75,0.03,5.5,0.01,8.24-0.23C378.6,452.68,378.62,452.05,378.18,452.05z"/>
	<path class="st8" d="M383.14,456.1c-0.22-0.06-0.44,0.01-0.66,0.05c-0.19,0.03-0.38,0.06-0.57,0.1c-0.42,0.07-0.83,0.14-1.25,0.2
		c-0.24,0.03-2.12,0.16-1.92,0.6c0.13,0.28,0.75,0.2,1,0.18c0.38-0.03,0.76-0.08,1.14-0.13c0.38-0.05,0.77-0.1,1.15-0.16
		c0.19-0.03,0.38-0.06,0.56-0.1c0.21-0.04,0.45-0.05,0.63-0.17C383.41,456.52,383.41,456.17,383.14,456.1z"/>
	<path class="st8" d="M363.33,391.54c-3.16,0.64-6.3,1.36-9.49,1.85c-3.17,0.48-6.38,0.62-9.55,1.1c-0.14,0.02-0.09,0.22,0.03,0.23
		c3.16,0.28,6.44-0.13,9.57-0.56c3.24-0.45,6.48-1.04,9.59-2.07C363.84,391.98,363.69,391.46,363.33,391.54z"/>
	<path class="st8" d="M474.06,389.76c-2.93-0.63-6.01-0.85-8.98-1.18c-3.08-0.34-6.17-0.63-9.26-0.87
		c-6.13-0.47-12.27-0.79-18.41-1.04c-3.53-0.14-7.07-0.31-10.6-0.13c-0.11,0.01-0.1,0.15,0,0.17c6.09,0.8,12.3,0.8,18.43,1.16
		c6.14,0.36,12.27,0.77,18.39,1.33c1.68,0.15,3.35,0.32,5.03,0.5c1.78,0.19,3.56,0.49,5.34,0.6
		C474.29,390.3,474.36,389.82,474.06,389.76z"/>
	<path class="st8" d="M344.72,402.12c-1.48,4.09-2.76,8.25-4.3,12.32c-0.38,0.99-0.76,1.98-1.14,2.97
		c-0.33,0.87-0.61,1.95-1.36,2.57c-1.07,0.88-3.15,0.3-3.75-0.9c-0.04-0.08-0.16-0.02-0.14,0.06c0.16,0.69,0.41,1.34,1.04,1.72
		c0.6,0.36,1.33,0.53,2.02,0.45c2.02-0.21,2.69-2.28,3.32-3.91c0.96-2.47,1.91-4.95,2.79-7.45s1.74-5.02,2.21-7.63
		C345.49,401.86,344.88,401.69,344.72,402.12z"/>
	<path class="st8" d="M466.85,411.71c-0.89,1.19-1.83,2.92-3.51,3c-0.8,0.04-1.47-0.43-2.11-0.85c-0.7-0.46-1.4-0.94-2.1-1.41
		c-2.64-1.77-5.35-3.47-7.85-5.44c-2.38-1.87-4.58-4.01-6.26-6.54c-0.83-1.26-1.54-2.6-1.99-4.04c-0.42-1.35-0.6-2.8-0.83-4.19
		c-0.02-0.09-0.16-0.08-0.18,0c-0.58,2.38,0.2,4.9,1.17,7.09c1.06,2.41,2.65,4.49,4.55,6.31c2.01,1.93,4.27,3.56,6.56,5.12
		c1.21,0.83,2.44,1.64,3.66,2.45c1.16,0.77,2.3,1.68,3.54,2.32c2.85,1.47,5.11-1.07,6.07-3.53
		C467.72,411.56,467.09,411.39,466.85,411.71z"/>
	<path class="st8" d="M483.61,682.73c-0.93-0.06-1.82-0.23-2.63-0.73c-0.73-0.45-1.57-1.23-1.69-2.13
		c-0.06-0.49,0.26-0.85,0.39-1.29c0.14-0.51,0.03-1.02-0.13-1.51c-0.14-0.39-0.3-0.77-0.45-1.14c-0.57-2.7-1.56-5.33-2.46-7.93
		c-0.93-2.69-1.88-5.38-2.8-8.08c-1.83-5.34-3.69-10.67-5.48-16.03c-0.5-1.49-0.96-2.99-1.45-4.48c-0.11-0.33-0.21-0.67-0.31-1.01
		c0.04-0.63,0.01-1.27-0.09-1.93c-0.12-0.77-0.32-1.53-0.55-2.27c-0.12-0.41-0.2-0.71-0.09-1.13c0.1-0.37,0.25-0.7,0.31-1.09
		c0.21-1.38-0.41-2.71-1.1-3.88c-0.7-1.18-1.48-2.25-2.33-3.3c-1.4-5.88-3.02-11.71-4.87-17.45c-3.5-10.85-6.98-21.71-10.51-32.55
		c-1.03-3.15-2.03-6.32-3.06-9.47c-0.67-4.33-2.01-8.41-4.05-12.26c-0.91-3.3-2.07-6.54-3.42-9.67c-2.35-5.47-5.35-10.54-9.2-15.09
		l0,0c-0.58-0.93-1.19-1.85-1.85-2.73c-1.4-4.08-3.09-8.06-4.69-12.05c-1.67-4.18-3.35-8.36-5.02-12.54
		c-3.27-8.18-6.62-16.33-9.98-24.47c-0.96-2.32-1.87-4.67-2.87-6.97c-1.01-2.31-2.17-4.56-3.14-6.89c-0.02-0.04-0.09-0.02-0.07,0.02
		c0.82,2.13,1.51,4.3,2.24,6.47c0.7,2.06,1.55,4.08,2.33,6.1c1.61,4.17,3.29,8.31,4.9,12.48c3.23,8.33,6.52,16.64,9.84,24.93
		c1.85,4.63,3.58,9.33,5.69,13.85c0.14,0.29,0.46,0.31,0.7,0.18c1.12,2.08,2.15,4.21,3.14,6.36c0.38,1.17,0.76,2.34,1.17,3.5
		c0.1,0.28,0.36,0.37,0.58,0.32c0.52,1.14,1.05,2.28,1.59,3.41c0.16,0.34,0.61,0.26,0.8,0.01c3.26,6.56,5.91,13.46,7.68,20.53
		c0.07,0.28,0.25,0.41,0.46,0.43c0.5,1.72,1.12,3.4,1.9,5c0.75,2.3,1.52,4.6,2.26,6.91c1.74,5.38,3.52,10.75,5.29,16.12
		c3.53,10.72,7.39,21.4,10.07,32.38c1.43,5.87,2.62,11.8,4.15,17.65c0.06,0.36,0.13,0.71,0.18,1.07c0.06,0.44,0.68,0.55,0.99,0.28
		c0.21,0.86,0.44,1.71,0.7,2.56c0.81,2.67,1.77,5.31,2.69,7.94c1.91,5.47,3.87,10.93,5.78,16.4c0.95,2.72,1.84,5.52,3.08,8.13
		c0.02,0.08,0.03,0.17,0.05,0.25c0.15,0.61,0.42,1.28,0.42,1.91c0.01,0.55-0.47,1.01-0.55,1.56s0.05,1.09,0.29,1.6
		c0.9,1.9,3.29,3.11,5.34,2.79C484.4,683.72,484.19,682.77,483.61,682.73z"/>
	<path class="st8" d="M493.28,676.15c-1.41,0.85-2.71,1.83-4.34,2.22c-1.67,0.4-3.47,0.27-5.15,0.06c-0.06-0.01-0.08,0.1-0.02,0.11
		c1.77,0.33,3.51,0.74,5.32,0.38c1.66-0.33,3.2-1.31,4.52-2.34C493.87,676.39,493.54,675.98,493.28,676.15z"/>
	<path class="st8" d="M528.56,674.65c-0.69-3-1.37-5.86-1.31-8.95c0.05-2.64-0.5-5.09-0.63-7.71c-0.27-5.68-0.93-11.33-1.88-16.94
		c-0.97-5.74-2.12-11.38-3.53-17.03c-1.44-5.79-2.97-11.56-3.97-17.45c-0.2-1.2-0.38-2.41-0.56-3.63c0.18-0.22,0.28-0.52,0.23-0.87
		c-0.15-0.94-0.45-1.85-0.78-2.75c-0.52-3.22-1.16-6.42-2.25-9.46c-0.27-1.41-0.74-2.74-1.59-3.95c-0.09-1.91-0.46-3.93-0.91-5.77
		c-0.12-0.5-0.62-0.73-1.08-0.69c-0.72-3.17-1.44-6.34-2.02-9.53c-0.64-3.54-1.24-7.07-1.73-10.63c-0.53-3.83-1.42-7.59-2.17-11.37
		c-2.83-14.31-5.05-28.78-9.21-42.79c-1.15-3.87-2.19-7.78-2.91-11.75c-0.38-2.1-0.69-4.22-1.05-6.33
		c-0.18-1.05-0.32-2.13-0.53-3.18c0.16-0.1,0.28-0.28,0.24-0.53c-0.98-6.04-2.75-11.92-4.04-17.89c-1.29-5.97-2.47-11.97-3.46-17.99
		c-0.33-2.03-0.6-4.06-0.84-6.1c0.34-0.16,0.62-0.53,0.52-0.95c-0.33-1.46-0.69-2.91-1.07-4.36c-0.73-8.37-0.92-16.76-1.3-25.19
		c-0.15-3.45-0.42-6.88-0.33-10.34c0.07-2.95,1.06-5.77-0.24-8.59c-0.04-0.09-0.17-0.04-0.17,0.05c-0.1,5.92-1.56,11.65-1.54,17.58
		c0.01,2.39,0.09,4.8,0.19,7.2c-0.38,3.53-0.92,7.05-0.66,10.6c0.24,3.25,1.04,6.51,2.11,9.64c1.02,8.87,2.65,17.67,4.7,26.35
		c1.5,6.35,2.8,12.83,4.81,19.05c-0.01,1.33,0.23,2.66,0.42,3.99c0.26,1.8,0.53,3.6,0.87,5.39c0.68,3.68,1.34,7.36,2.15,11.01
		c1.57,7.06,3.69,13.91,4.74,21.08c1.09,7.37,2.81,14.67,4.25,21.97c0.73,3.68,1.29,7.39,2,11.08c0.68,3.53,1.74,6.99,2.45,10.52
		c0.81,4.08,1.71,8.15,2.34,12.27c0.35,2.26,0.67,4.53,1.04,6.78c0.01,0.89-0.09,1.82-0.48,2.63c-0.42,0.86-1.2,1.52-0.72,2.55
		c0.35,0.75,1.21,1.02,1.83,1.5c0.68,0.52,1.05,1.33,1.34,2.13c0.43,1.19,0.76,2.4,1.34,3.49c0.2,0.51,0.39,1.02,0.61,1.54
		c0.18,1.56,0.38,3.11,0.66,4.65c1.04,5.79,2.27,11.49,3.73,17.19c1.43,5.61,3.06,11.24,4.08,16.94c1.06,5.92,1.68,11.92,2.08,17.92
		c0.2,2.94,0.81,5.73,1.08,8.66c0.29,3.14,0.51,6.4,1.3,9.46C527.03,676.35,528.83,675.85,528.56,674.65z"/>
	<path class="st9" d="M386.6,374.55c-1.97-0.15-4.05,0.17-6,0.4c-1.94,0.23-3.87,0.52-5.79,0.84c-0.96,0.16-1.93,0.33-2.89,0.51
		c-0.79,0.15-1.65,0.25-2.41,0.56c-1.04,0.43-1.85,1.66-1.18,2.7c-0.02,0.25-0.02,0.5-0.02,0.74c0,0.17,0,0.35,0.05,0.52
		c0.06,0.17,0.08,0.34,0.11,0.52c0.01,0.08,0.13,0.06,0.13-0.02c0-0.19,0.01-0.35,0.06-0.53c0.04-0.16,0.04-0.33,0.07-0.49
		c0.05-0.31,0.14-0.61,0.21-0.92c0.11-0.47,0.27-0.92,0.45-1.37c0.91-0.4,2.26-0.5,2.82-0.6c1.55-0.26,3.1-0.55,4.66-0.79
		c1.61-0.25,3.23-0.47,4.85-0.64c1.62-0.16,3.26-0.15,4.87-0.35C387.27,375.54,387.3,374.6,386.6,374.55z"/>
	<path class="st9" d="M389.37,381.99c-0.22-2.11-0.33-4.31-0.84-6.37c-0.03-0.11-0.22-0.12-0.24,0c-0.31,2.11-0.11,4.37,0.07,6.49
		c0.19,2.2,0.48,4.38,0.82,6.56c0.08,0.53,1.01,0.41,0.94-0.13C389.85,386.37,389.6,384.18,389.37,381.99z"/>
	<path class="st9" d="M380.16,380.88c-2.7,0.1-5.4,0.35-8.07,0.8c-1.22,0.2-2.58,0.34-3.72,0.83c-0.77,0.33-1.43,1.05-1.21,1.94
		c0.02,0.09,0.17,0.09,0.19,0c0.29-1.15,1.69-1.22,2.65-1.36c1.16-0.17,2.32-0.36,3.48-0.5c2.22-0.26,4.44-0.45,6.67-0.53
		C380.92,382.04,380.92,380.85,380.16,380.88z"/>
	<path class="st9" d="M394.21,387.39c-0.05-1.04-0.14-2.07-0.27-3.1c-0.25-2.03-0.68-4.02-1.16-6.01c-0.02-0.07-0.05-0.13-0.09-0.18
		c0.15-0.49,0.16-1.03-0.02-1.54c-0.18-0.53-0.56-0.93-1.01-1.25c-0.63-0.44-1.08-0.51-1.82-0.45c-0.12,0.01-0.14,0.16-0.03,0.2
		c0.67,0.24,1.5,0.77,1.77,1.43c0.25,0.61,0.1,1.51-0.58,1.78c-0.41,0.16-0.65,0.59-0.41,1.02c0.38,0.68,0.77,1.36,1.19,2.01
		c0.1,0.16,0.23,0.25,0.36,0.3c0.19,1,0.36,2.01,0.53,3.01c0.16,0.97,0.31,1.95,0.44,2.93c0.14,1.03,0.12,2.07,0.27,3.1
		c0.09,0.57,0.93,0.39,0.96-0.13C394.42,389.47,394.25,388.42,394.21,387.39z"/>
	<path class="st10" d="M480.05,384.63c0.01-0.26-0.02-0.48-0.08-0.73c-0.03-0.14-0.15-0.2-0.27-0.19c0-0.04,0-0.09,0-0.13
		c0.03-0.2,0.03-0.4-0.02-0.61c-0.2-0.92-1.02-1.64-1.79-2.1c-0.81-0.49-1.72-0.76-2.66-0.82c-0.12-0.01-0.17,0.12-0.13,0.21
		c-2.76-0.61-5.53-1.19-8.31-1.69c-2.89-0.51-5.78-0.74-8.71-0.87c-3.03-0.13-6.01-0.45-9.02-0.84c-1.67-0.22-3.34-0.42-5.02-0.49
		c-0.3-0.01-0.6-0.03-0.89,0.04c-0.25,0.06-0.42,0.24-0.64,0.32c-0.43,0.16-1.04-0.03-1.61-0.23c0.16-0.32,0.09-0.77-0.34-0.83
		c-5.4-0.76-10.98-0.69-16.43-0.75c-5.55-0.06-11.06,0.04-16.6,0.32c-3.11,0.16-6.21,0.41-9.32,0.59c-0.09,0.01-0.09,0.13,0,0.13
		c5.45,0.08,10.91,0.33,16.36,0.29c5.46-0.03,10.93,0,16.4,0.16c3.04,0.09,6.08,0.32,9.12,0.39c0.76,0.49,1.82,1.17,2.66,0.92
		c0.58-0.17,0.98-0.23,1.6-0.17c0.73,0.07,1.47,0.15,2.2,0.24c2.72,0.34,5.42,0.81,8.15,1.05c2.83,0.25,5.67,0.23,8.5,0.56
		c2.75,0.32,5.45,0.92,8.15,1.49c1.5,0.32,3.02,0.58,4.5,0.97c1.11,0.29,2.18,0.86,2.54,1.89c-0.16,0.14-0.34,0.27-0.44,0.46
		c-0.23,0.44-0.06,0.82,0.15,1.23c0.2,0.38,0.33,0.8,0.41,1.22c0.08,0.47,0.05,0.94,0.13,1.41c0.06,0.37,0.68,0.46,0.83,0.11
		c0.2-0.47,0.24-1,0.17-1.52c0.16-0.41,0.27-0.83,0.34-1.26C480.01,385.13,480.04,384.88,480.05,384.63z"/>
	<path class="st10" d="M367.81,379.14c-0.87,0.19-1.74,0.35-2.62,0.52c0.02-0.05,0.01-0.1-0.05-0.1c-2.67,0.25-5.33,0.72-7.97,1.18
		c-1.34,0.24-2.68,0.47-4.03,0.7c-1.25,0.22-2.5,0.28-3.74,0.51c-1.28,0.23-2.57,0.49-3.81,0.9c-1.16,0.38-2.22,0.96-3.33,1.47
		c-1.33,0.61-2.72,1.27-3.91,2.18c-0.11-0.11-0.28-0.18-0.49-0.15c-0.73,0.1-1.4,0.47-2.03,0.84c-0.32,0.19-0.63,0.39-0.92,0.62
		c-0.3,0.24-0.51,0.51-0.76,0.8c-0.53,0.63-0.9,1.35-1.22,2.1c-0.16,0.37-0.3,0.75-0.42,1.14c-0.11,0.35-0.25,0.74-0.11,1.1
		c0.01,0.03,0.06,0.06,0.09,0.04c0.27-0.2,0.39-0.5,0.52-0.81c0.16-0.36,0.33-0.71,0.51-1.05c0.36-0.65,0.74-1.34,1.25-1.89
		c0.21-0.22,0.5-0.39,0.74-0.56c0.28-0.19,0.58-0.36,0.88-0.51c0.14-0.07,0.28-0.13,0.42-0.19c-0.61,0.83-0.98,1.84-0.74,2.87
		c0.2,0.87,0.88,1.68,1.83,1.65c0.42-0.02,0.56-0.55,0.21-0.78c-0.11-0.07-0.19-0.14-0.27-0.21c0.32-0.07,0.26-0.49,0-0.59
		c-1.08-0.42,0.59-1.53,0.9-1.83c0.47-0.45,0.76-1.28,1.41-1.45c0.72-0.19,1.23,0.01,1.79-0.6c0.62-0.67,1.44-0.99,2.27-1.36
		c1.68-0.74,3.41-1.36,5.16-1.92c1.36-0.43,2.76-0.74,4.14-1.11c1.72-0.15,3.43-0.32,5.14-0.61c3.16-0.54,6.27-1.26,9.43-1.82
		C368.82,380.11,368.53,378.98,367.81,379.14z"/>
	<path class="st10" d="M347.96,389.39c-0.08,0-0.15-0.01-0.23,0.01c0,0-0.01,0-0.02,0c-0.03,0-0.06,0.01-0.09,0.01
		c-0.11,0.01-0.21,0.02-0.32,0.02c-0.05,0-0.1,0-0.16-0.01c-0.03,0-0.03,0,0,0c-0.01,0-0.03,0-0.04-0.01
		c-0.03-0.01-0.06-0.01-0.09-0.02c-0.09-0.02-0.14-0.04-0.22-0.1c-0.02-0.01-0.02-0.01,0,0c-0.01-0.01-0.01-0.01-0.02-0.02
		c-0.01-0.01-0.03-0.03-0.04-0.04c0,0-0.04-0.05-0.03-0.03c-0.01-0.01-0.02-0.03-0.03-0.04c-0.05-0.07-0.07-0.12-0.09-0.21
		c-0.01-0.05-0.02-0.12,0-0.18c0.02-0.07,0.05-0.13,0.1-0.18c0.08-0.08-0.03-0.23-0.13-0.16c-0.27,0.19-0.3,0.55-0.18,0.84
		c0.15,0.37,0.5,0.59,0.89,0.65c0.26,0.04,0.52,0.05,0.78-0.01c0.13-0.03,0.21-0.16,0.19-0.29
		C348.2,389.49,348.09,389.4,347.96,389.39z"/>
	<path class="st10" d="M361.18,386.73c-0.11-0.11-0.29-0.1-0.4,0c-0.01,0.01-0.03,0.03-0.04,0.04c0.02-0.01,0.02-0.01,0,0
		c-0.03,0.02-0.05,0.04-0.08,0.05c-0.05,0.03-0.1,0.06-0.15,0.08c-0.01,0-0.08,0.04-0.03,0.02c-0.03,0.01-0.06,0.02-0.09,0.03
		s-0.06,0.02-0.1,0.02c-0.01,0-0.09,0.01-0.04,0.01c-0.14,0.01-0.21,0.01-0.32-0.02c-0.1-0.03-0.17-0.06-0.27-0.13
		c-0.03-0.02-0.06-0.05-0.11-0.09c-0.02-0.02-0.04-0.04-0.06-0.06c0,0-0.04-0.05-0.03-0.04c-0.07-0.1-0.12-0.19-0.15-0.3
		c-0.04-0.13-0.04-0.26-0.04-0.4c0-0.07,0.02-0.13,0.02-0.2s-0.04-0.15-0.06-0.22s-0.1-0.08-0.15-0.04
		c-0.07,0.06-0.15,0.12-0.18,0.2c-0.03,0.09-0.04,0.19-0.05,0.28c-0.02,0.17-0.01,0.35,0.03,0.52c0.07,0.3,0.26,0.57,0.5,0.75
		c0.53,0.4,1.34,0.38,1.79-0.12C361.29,387.02,361.3,386.84,361.18,386.73z"/>
	<path class="st10" d="M401.66,381.96c-0.11,0-0.18,0.05-0.27,0.1c-0.11,0.01-0.22,0.05-0.33,0.08c-0.04,0.01-0.07,0.02-0.11,0.02
		c0.05-0.01-0.01,0-0.03,0c-0.07,0.01-0.13,0.01-0.2,0c-0.02,0-0.09-0.01-0.03,0c-0.04-0.01-0.07-0.01-0.11-0.02
		c-0.06-0.02-0.13-0.04-0.19-0.06s0.03,0.02-0.03-0.01c-0.03-0.01-0.06-0.03-0.09-0.05c-0.07-0.04-0.1-0.06-0.13-0.09
		c-0.2-0.17-0.31-0.37-0.37-0.62c-0.04-0.14-0.03-0.26-0.06-0.41c-0.01-0.07-0.01-0.14-0.04-0.21c-0.03-0.06-0.04-0.07-0.03-0.15
		c0.01-0.06-0.09-0.08-0.12-0.03s-0.04,0.08-0.08,0.11c-0.07,0.05-0.1,0.12-0.13,0.2c-0.05,0.14-0.06,0.29-0.04,0.44
		c0.03,0.29,0.11,0.58,0.27,0.83c0.17,0.26,0.42,0.47,0.71,0.58c0.27,0.1,0.58,0.11,0.86,0.06c0.16-0.03,0.3-0.09,0.43-0.18
		c0.06-0.04,0.08-0.09,0.12-0.14c0,0-0.01,0.02,0,0s0.03-0.03,0.05-0.05c0.07-0.07,0.11-0.15,0.1-0.25
		C401.82,382.03,401.75,381.96,401.66,381.96z"/>
	<path class="st10" d="M420.72,380.81c-0.04-0.06-0.11-0.1-0.18-0.07c-0.13,0.04-0.18,0.14-0.25,0.24
		c-0.07,0.09-0.16,0.15-0.24,0.21c-0.17,0.13-0.38,0.2-0.6,0.2c-0.25,0-0.47-0.11-0.67-0.24c-0.11-0.07-0.2-0.17-0.31-0.24
		c-0.11-0.08-0.2-0.16-0.29-0.26c-0.02-0.03-0.07,0-0.06,0.04c0.04,0.14,0.08,0.3,0.15,0.43s0.2,0.26,0.31,0.36
		c0.25,0.21,0.56,0.35,0.88,0.37c0.3,0.03,0.62-0.05,0.87-0.21C420.55,381.49,420.91,381.08,420.72,380.81z"/>
	<path class="st10" d="M439.97,380.84c-0.16,0.21-0.28,0.45-0.5,0.6s-0.47,0.23-0.73,0.22c-0.24-0.01-0.49-0.1-0.71-0.25
		c-0.11-0.07-0.2-0.17-0.28-0.27c-0.1-0.12-0.23-0.19-0.3-0.33c-0.05-0.09-0.21-0.05-0.2,0.05c0.01,0.19-0.02,0.38,0.08,0.55
		c0.09,0.16,0.22,0.31,0.36,0.44c0.29,0.25,0.66,0.42,1.05,0.43c0.37,0.01,0.75-0.12,1.05-0.34c0.31-0.23,0.63-0.58,0.63-0.99
		C440.41,380.7,440.1,380.66,439.97,380.84z"/>
	<path class="st10" d="M455.64,382.43c-0.22,0.5-0.78,1-1.36,0.89c-0.26-0.05-0.57-0.19-0.75-0.39c-0.09-0.11-0.16-0.24-0.19-0.38
		c-0.02-0.07-0.01-0.15-0.03-0.22c-0.03-0.1-0.04-0.17-0.02-0.27c0.01-0.03-0.03-0.05-0.05-0.03c-0.15,0.12-0.27,0.29-0.25,0.49
		c0.02,0.2,0.08,0.39,0.19,0.55c0.22,0.34,0.54,0.57,0.94,0.63c0.38,0.06,0.79-0.01,1.12-0.21c0.34-0.21,0.57-0.55,0.68-0.94
		C455.97,382.39,455.71,382.27,455.64,382.43z"/>
</g>
<g>
	<g>
		<path d="M394.44,447.31c-2.49-1.15-4.98-2.28-7.35-3.67c-2.8-1.64-5.7-3.63-7.42-6.45c-0.17-0.27-0.6-0.02-0.43,0.25
			c1.71,2.8,4.54,4.81,7.31,6.46c2.46,1.46,5.05,2.64,7.65,3.84C394.48,447.88,394.73,447.45,394.44,447.31L394.44,447.31z"/>
	</g>
</g>
<g>
	<g>
		<path d="M335.8,420.93c1.76-0.02,2.86-1.75,3.59-3.13c1.04-1.95,1.84-4.05,2.61-6.11c1.67-4.46,3-9.03,4.29-13.61
			c0.17-0.62-0.79-0.89-0.96-0.27c-1.18,4.2-2.4,8.4-3.88,12.51c-0.72,1.98-1.49,3.95-2.37,5.87c-0.58,1.27-1.58,3.72-3.27,3.74
			C335.16,419.94,335.16,420.94,335.8,420.93L335.8,420.93z"/>
	</g>
</g>
<g>
	<g>
		<path d="M441.8,392.07c-0.29,4.36,2.9,8.29,5.59,11.4c2.79,3.23,6.05,6.06,9.63,8.38c2.04,1.33,4.19,2.48,6.42,3.46
			c0.58,0.26,1.09-0.61,0.5-0.86c-7.52-3.3-14.24-8.71-18.82-15.55c-1.36-2.03-2.49-4.32-2.32-6.82
			C442.84,391.42,441.84,391.43,441.8,392.07L441.8,392.07z"/>
	</g>
</g>
<g>
	<g>
		<path d="M393.05,376.81c19.96-2.1,40.06-0.98,59.97,1.17c5.68,0.61,11.38,1.06,17.05,1.69c2.43,0.27,5.49,0.51,7.66,1.77
			c2.42,1.41,0.8,5.02,0.86,7.24c0.03,1.05,0.36,1.97,0.76,2.93c0.61,1.48,0.9,2.85,1.05,4.44c0.27,2.85,0.23,5.71,0.19,8.57
			c-0.07,5.65,0.05,11.31,0.35,16.95c0.58,10.7,1.06,21.47,2.86,32.05c0.91,5.37,2.33,10.64,3.5,15.95
			c1.25,5.62,2.41,11.25,3.58,16.89c1.17,5.64,2.32,11.28,3.57,16.89c1.2,5.39,2.91,10.65,4.18,16.02
			c1.29,5.46,1.96,11.07,2.98,16.58c1.08,5.8,2,11.6,2.7,17.47c0.67,5.59,1.33,11.21,2.7,16.68c1.37,5.47,3.46,10.73,5.01,16.16
			c3.09,10.8,4.72,21.93,7.11,32.89c1.21,5.53,2.96,10.94,4,16.51s1.46,11.22,1.85,16.86c0.38,5.44,0.62,10.95,1.52,16.34
			c0.1,0.6,0.28,1.17,0.41,1.76c0.14,0.65,0.06,1.28,0.14,1.94c0.05,0.4,0.17,0.76,0.34,1.12c0.46,0.99,0.71,1.57,0.01,2.49
			c-0.68,0.89-1.93,1.93-2.95,2.42c-1.18,0.56-3.08,0.22-4.38,0.18c-5.66-0.18-11.3-0.58-16.96,0.02c-2.6,0.28-5.17,0.73-7.67,1.48
			c-2.68,0.81-4.99,1.44-7.81,1.32c-1.17-0.05-2.25,0.03-3.34,0.46c-1.42,0.57-2.94,1.66-4.08,0.02c-1.35-1.93-1.16-4.61-1.65-6.83
			c-0.59-2.69-1.61-5.31-2.41-7.95c-0.82-2.73-1.72-5.44-2.68-8.12c-1.88-5.24-4.14-10.32-6.2-15.49
			c-2.11-5.29-3.61-10.68-4.79-16.25c-2.37-11.15-5.88-21.84-9.52-32.64c-3.77-11.2-7.54-22.41-11.3-33.61
			c-3.5-10.41-8.02-20.36-12.75-30.25c-4.9-10.27-9.63-20.58-13.91-31.12c-4.26-10.51-8.21-21.14-12.06-31.81
			c-1.87-5.2-3.72-10.4-5.57-15.6c-0.43-1.2-2.36-0.69-1.93,0.53c7.78,21.91,15.57,43.85,25.17,65.05
			c4.73,10.45,10.01,20.64,14.43,31.23c4.56,10.93,7.99,22.34,11.76,33.56c3.8,11.3,7.97,22.56,11.13,34.06
			c1.54,5.58,2.5,11.28,3.91,16.88c1.41,5.58,3.61,10.88,5.83,16.17c2.24,5.34,4.29,10.74,6.02,16.27c0.86,2.75,1.8,5.5,2.58,8.27
			c0.66,2.34,0.61,4.86,1.44,7.14c0.68,1.86,2.1,3.64,4.27,3.45c1.11-0.09,2.03-0.74,3.06-1.11c1.46-0.54,2.96-0.18,4.47-0.22
			c2.54-0.06,4.87-1.04,7.29-1.71c2.92-0.81,5.94-1.2,8.95-1.38c5.72-0.35,11.41,0.21,17.12,0.26c2.25,0.02,3.94-1.23,5.51-2.79
			c0.75-0.75,1.42-1.65,1.54-2.74c0.12-1.14-0.57-1.81-0.82-2.84c-0.26-1.08-0.29-2.25-0.54-3.36c-0.34-1.5-0.46-3.07-0.63-4.59
			c-0.32-2.92-0.54-5.84-0.75-8.77c-0.4-5.63-0.74-11.27-1.53-16.86c-0.82-5.73-2.51-11.21-3.84-16.83
			c-1.34-5.7-2.42-11.46-3.54-17.21c-1.1-5.65-2.24-11.29-3.73-16.85c-1.5-5.63-3.62-11.07-5.17-16.68
			c-1.59-5.75-2.34-11.67-3.05-17.58c-0.69-5.74-1.53-11.43-2.59-17.11c-1.06-5.71-1.77-11.53-3.07-17.2
			c-1.28-5.57-3.06-11.01-4.31-16.58c-2.57-11.52-4.77-23.12-7.34-34.65c-1.22-5.48-2.66-10.91-3.54-16.46
			c-0.89-5.61-1.39-11.28-1.77-16.94c-0.38-5.58-0.73-11.17-0.95-16.76c-0.24-5.85-0.1-11.68-0.17-17.53
			c-0.03-2.69,0.02-5.74-0.89-8.3c-0.41-1.15-1.07-2.25-1.13-3.49c-0.06-1.26,0.31-2.51,0.4-3.77c0.16-2.13-0.3-4.08-2.25-5.2
			c-2.05-1.17-4.68-1.52-6.98-1.83c-5.71-0.78-11.5-1.11-17.23-1.73c-5.91-0.64-11.83-1.28-17.77-1.61
			c-9.53-0.54-19.09-1.16-28.63-0.84c-5.04,0.17-10.06,0.59-15.07,1.12C391.79,374.95,391.77,376.95,393.05,376.81L393.05,376.81z"
			/>
	</g>
</g>
<g>
	<g>
		<path d="M415.42,505.92c0.84,4.68,0.85,9.43,0.95,14.17c0.1,4.75,0.39,9.49,0.68,14.22c0.58,9.43,1.34,18.85,2.29,28.24
			c0.47,4.68,0.97,9.36,1.5,14.03c0.49,4.43,1.46,8.68,2.58,12.99c1.15,4.41,2.22,8.82,2.69,13.36c0.49,4.67,0.5,9.38,0.31,14.07
			c-0.19,4.7-0.63,9.39-0.91,14.08c-0.27,4.52-0.29,9.04-0.42,13.56c-0.13,4.82-0.37,9.65-1.14,14.42c-0.33,2.01-0.7,4.01-0.86,6.04
			c-0.17,2.24,0.07,4.34,0.4,6.55c0.19,1.25,0.27,2.58,0.04,3.83c-0.11,0.62-0.3,1.39-0.79,1.83c-0.8,0.7-2.03-0.01-2.92-0.16
			c-1.8-0.31-3.39,0.26-5.06,0.89c-2.07,0.78-4.21,1.33-6.39,1.68c-4.53,0.73-9.13,0.52-13.67,1.07c-2.02,0.24-4.04,0.53-6.08,0.62
			c-2.29,0.1-4.59-0.13-6.88-0.24c-2.07-0.1-3.8-0.3-5.83,0.19c-3.26,0.79-2.86-2.9-2.69-5.05c0.15-1.91-0.14-3.68-0.6-5.52
			c-0.59-2.35-0.94-4.68-1.13-7.09c-0.68-8.88-1.69-17.67-3.18-26.45c-1.53-9.03-3.35-18-5.01-27c-1.7-9.24-3.03-18.48-4.01-27.82
			c-3.89-37.28-12.24-73.9-20.49-110.4c-2.1-9.3-3.43-18.74-4.66-28.19c-1.18-9.16-2.8-18.35-2.59-27.61
			c0.11-4.73,0.56-9.45,1.07-14.15c0.24-2.16,0.53-4.31,0.69-6.48c0.13-1.78-0.26-4.05,0.51-5.72c0.77-1.69,3.25-2.38,4.81-3.07
			c2.18-0.97,4.42-1.82,6.69-2.57c4.28-1.4,8.67-2.37,13.14-2.98c3.24-0.44,6.5-0.85,9.71-1.49c1.26-0.25,0.73-2.18-0.53-1.93
			c-3.51,0.7-7.08,1.1-10.62,1.61c-4.71,0.68-9.36,1.82-13.85,3.41c-1.88,0.66-3.73,1.41-5.55,2.22c-1.72,0.77-3.84,1.47-5.03,3.02
			c-0.82,1.07-1.07,2.38-1.13,3.7c-0.12,2.46-0.21,4.89-0.49,7.34c-1.1,9.64-1.91,19.21-0.85,28.89c1.04,9.45,2.33,18.92,3.75,28.33
			c1.45,9.6,3.66,19.03,5.78,28.5c2.14,9.54,4.25,19.1,6.26,28.67c3.99,19.1,7.59,38.3,10.07,57.65c1.23,9.57,2,19.19,3.51,28.72
			c1.49,9.41,3.38,18.74,5.13,28.1c1.76,9.42,3.4,18.88,4.3,28.43c0.4,4.27,0.39,8.64,1.26,12.85c0.45,2.16,1.18,4.21,1.07,6.44
			c-0.11,2.11-0.59,4.26,0.67,6.14c0.82,1.21,2.13,1.88,3.59,1.65c1.07-0.17,1.96-0.61,3.08-0.59c1.13,0.02,2.28,0.21,3.41,0.26
			c2.2,0.1,4.39,0.33,6.59,0.23c2.41-0.1,4.79-0.48,7.18-0.75c4.55-0.51,9.13-0.31,13.66-1.11c2-0.35,3.94-0.87,5.84-1.59
			c0.86-0.32,1.72-0.72,2.63-0.86c1.32-0.21,2.4,0.38,3.67,0.51c3.11,0.31,4.04-3.18,4.06-5.62c0.02-1.35-0.23-2.65-0.44-3.98
			c-0.39-2.49-0.19-5.03,0.17-7.51c0.71-4.78,1.36-9.49,1.57-14.33c0.21-4.71,0.21-9.43,0.4-14.14c0.39-9.8,1.69-19.53,0.9-29.35
			c-0.75-9.41-4.29-18.21-5.37-27.54c-2.23-19.3-4.17-38.79-4.55-58.22c-0.09-4.53-0.2-9.06-1-13.54
			C417.12,504.12,415.2,504.66,415.42,505.92L415.42,505.92z"/>
	</g>
</g>
<g>
	<g>
		<path d="M332.3,397.73c1.24-0.43,2.56-0.58,3.8-1.01c0.3-0.11,0.17-0.59-0.13-0.48c-1.24,0.43-2.56,0.58-3.8,1.01
			C331.87,397.36,332,397.84,332.3,397.73L332.3,397.73z"/>
	</g>
</g>
<g>
	<g>
		<path d="M344.41,394.87c6.53-1.02,13.07-2.03,19.6-3.1c1.49-0.24,2.97-0.49,4.46-0.75c0.32-0.06,0.18-0.54-0.13-0.48
			c-6.51,1.15-13.05,2.14-19.59,3.16c-1.49,0.23-2.98,0.46-4.46,0.7C343.96,394.44,344.09,394.92,344.41,394.87L344.41,394.87z"/>
	</g>
</g>
<g>
	<g>
		<path d="M394.31,388.32c5.43-0.41,10.85-0.83,16.28-1.24c0.32-0.02,0.32-0.52,0-0.5c-5.43,0.41-10.85,0.83-16.28,1.24
			C393.99,387.85,393.99,388.35,394.31,388.32L394.31,388.32z"/>
	</g>
</g>
<g>
	<g>
		<path d="M425.95,386.6c6.6,0.03,13.2,0.24,19.79,0.58c7.18,0.37,14.35,0.9,21.49,1.75c3.55,0.42,7.1,0.93,10.61,1.62
			c0.31,0.06,0.45-0.42,0.13-0.48c-6.49-1.27-13.08-1.98-19.67-2.54c-7.2-0.61-14.41-1-21.63-1.23c-3.57-0.11-7.15-0.19-10.72-0.2
			C425.62,386.1,425.62,386.6,425.95,386.6L425.95,386.6z"/>
	</g>
</g>
<g>
	<g>
		<path d="M344.36,443.59c1,7.45,3.36,14.56,4.85,21.91c1.49,7.4,2.36,14.88,3.14,22.39c1.58,15.08,4.01,30.08,7.3,44.88
			c1.65,7.45,3.34,14.89,4.73,22.4c1.37,7.47,2.42,14.98,3.44,22.5c1.02,7.5,2.06,14.99,3.33,22.45c1.27,7.43,2.02,14.92,3.2,22.35
			c0.62,3.89,1.55,7.73,2.03,11.64c0.46,3.74,0.68,7.51,0.82,11.27s0.02,7.52,0.26,11.27c0.11,1.69,0.24,3.41,0.62,5.06
			c0.37,1.59,0.98,3.1,1.49,4.64c0.59,1.77,1.02,3.58,0.76,5.45c-0.04,0.31,0.44,0.45,0.48,0.13c0.44-3.2-0.98-6.06-1.9-9.05
			c-1.1-3.59-1.07-7.51-1.11-11.24c-0.09-7.49-0.24-15.06-1.69-22.43c-1.46-7.4-2.32-14.86-3.37-22.33
			c-1.06-7.55-2.45-15.05-3.5-22.6c-1.06-7.57-1.99-15.17-3.23-22.71c-1.25-7.59-2.76-15.13-4.44-22.63
			c-3.39-15.15-6.3-30.33-8.12-45.76c-0.87-7.39-1.49-14.8-2.71-22.14c-0.61-3.67-1.33-7.32-2.2-10.94c-0.88-3.68-2-7.31-2.75-11.02
			c-0.38-1.87-0.69-3.75-0.94-5.63C344.8,443.14,344.31,443.28,344.36,443.59L344.36,443.59z"/>
	</g>
</g>
<g>
	<g>
		<path d="M500.54,660.34c-0.78-7.01-1.11-14.23-3.59-20.9c-1.26-3.38-2.63-6.7-3.76-10.13c-1.13-3.45-2.12-6.94-3.05-10.45
			c-3.83-14.56-7.25-29.26-10.45-43.97c-3.14-14.43-6.22-28.86-9.89-43.17c-3.65-14.26-7.68-28.43-12.08-42.47
			c-1.1-3.51-2.23-7.02-3.37-10.51c-1.13-3.45-2.52-6.89-3.45-10.41c-0.39-1.45-0.51-2.96-1.02-4.38c-0.54-1.48-1.46-2.75-2.29-4.07
			c-1.94-3.08-3.21-6.61-4.22-10.09c-0.49-1.67-0.89-3.36-1.23-5.06c-0.06-0.32-0.54-0.18-0.48,0.13c0.69,3.47,1.68,6.88,2.99,10.17
			c0.58,1.46,1.23,2.91,2.01,4.27c0.92,1.59,2.11,3.04,2.74,4.78c0.5,1.36,0.62,2.8,0.98,4.2c0.45,1.78,1.15,3.51,1.73,5.25
			c1.17,3.49,2.32,6.98,3.44,10.49c4.48,13.95,8.59,28.02,12.32,42.19c3.75,14.24,7.1,28.58,10.11,43
			c3.07,14.68,6.58,29.26,10.18,43.82c1.74,7.04,3.59,14.07,6.12,20.88c1.25,3.35,2.74,6.62,3.59,10.1
			c0.87,3.58,1.17,7.28,1.58,10.94c0.2,1.8,0.4,3.6,0.6,5.4C500.08,660.66,500.58,660.66,500.54,660.34L500.54,660.34z"/>
	</g>
</g>
<g>
	<g>
		<path d="M442.49,392.51c4.19-0.08,8.34,0.56,12.31,1.89c0.61,0.21,0.87-0.76,0.27-0.96c-4.05-1.36-8.31-2.01-12.58-1.93
			C441.85,391.52,441.85,392.52,442.49,392.51L442.49,392.51z"/>
	</g>
</g>
<g>
	<g>
		<path d="M464.13,415.34c2.2-1.52,4.1-3.41,5.66-5.58c0.16-0.22,0.04-0.56-0.18-0.68c-0.25-0.15-0.53-0.04-0.68,0.18
			c-1.45,2.03-3.26,3.8-5.3,5.22c-0.22,0.15-0.32,0.44-0.18,0.68C463.57,415.38,463.91,415.49,464.13,415.34L464.13,415.34z"/>
	</g>
</g>
<g>
	<g>
		<path d="M335.94,420.04c-0.08-0.04-0.15-0.09-0.23-0.13c-0.04-0.03-0.08-0.05-0.12-0.08c-0.07-0.05,0.08,0.06,0.03,0.02
			c-0.02-0.01-0.03-0.03-0.05-0.04c-0.15-0.12-0.28-0.26-0.41-0.41c-0.02-0.02-0.03-0.04-0.05-0.06c-0.05-0.06-0.01-0.01,0.02,0.02
			c-0.03-0.04-0.06-0.08-0.09-0.12c-0.06-0.09-0.12-0.17-0.17-0.26c-0.06-0.09-0.11-0.19-0.16-0.28c-0.02-0.05-0.05-0.09-0.07-0.14
			c-0.01-0.03-0.03-0.06-0.04-0.09s-0.05-0.13,0,0c-0.05-0.13-0.11-0.23-0.23-0.3c-0.11-0.06-0.27-0.09-0.39-0.05
			c-0.12,0.04-0.24,0.11-0.3,0.23c-0.06,0.11-0.1,0.26-0.05,0.39c0.36,0.87,0.93,1.72,1.78,2.17c0.23,0.12,0.55,0.07,0.68-0.18
			C336.24,420.49,336.19,420.17,335.94,420.04L335.94,420.04z"/>
	</g>
</g>
<g>
	<g>
		<path d="M345.82,397.37c-1.83,0.1-3.59,0.61-5.21,1.47c-0.57,0.3-0.06,1.16,0.5,0.86c1.46-0.77,3.06-1.25,4.71-1.33
			C346.46,398.33,346.46,397.33,345.82,397.37L345.82,397.37z"/>
	</g>
</g>
<g>
	<g>
		<path d="M397.47,447.37c1.73-0.68,3.28-1.75,4.53-3.13c0.21-0.24-0.14-0.59-0.35-0.35c-1.18,1.32-2.66,2.35-4.3,3
			C397.04,447,397.17,447.49,397.47,447.37L397.47,447.37z"/>
	</g>
</g>
<g>
	<g>
		<path d="M400.13,674.11c6.5,0.95,13.34,1.26,19.5-1.41c0.29-0.13,0.04-0.56-0.25-0.43c-6.01,2.61-12.77,2.29-19.11,1.36
			C399.95,673.58,399.81,674.06,400.13,674.11L400.13,674.11z"/>
	</g>
</g>
<g>
	<g>
		<path d="M412.15,671.41c2.5-0.09,4.97-0.5,7.36-1.23c0.31-0.09,0.18-0.58-0.13-0.48c-2.35,0.72-4.78,1.12-7.23,1.21
			C411.82,670.92,411.82,671.42,412.15,671.41L412.15,671.41z"/>
	</g>
</g>
<g>
	<g>
		<path d="M374.53,675.07c5-0.81,10.11-0.85,15.13-0.14c0.31,0.04,0.45-0.44,0.13-0.48c-5.11-0.72-10.3-0.68-15.4,0.14
			C374.08,674.64,374.22,675.12,374.53,675.07L374.53,675.07z"/>
	</g>
</g>
<g>
	<g>
		<path d="M500.75,673.22c3.78-2.48,8.54-1.86,12.76-1.17c4.18,0.69,8.68,1.43,12.66-0.5c0.29-0.14,0.04-0.57-0.25-0.43
			c-8.08,3.9-17.61-3.46-25.42,1.66C500.23,672.96,500.48,673.39,500.75,673.22L500.75,673.22z"/>
	</g>
</g>
<g>
	<g>
		<path d="M518.67,670.16c1.44,0.57,3.06,0.61,4.53,0.12c0.3-0.1,0.17-0.58-0.13-0.48c-1.39,0.46-2.9,0.41-4.26-0.12
			C518.51,669.56,518.38,670.05,518.67,670.16L518.67,670.16z"/>
	</g>
</g>
<g>
	<g>
		<path d="M495.15,675.08c-3.53,2.26-7.79,3.21-11.94,2.63c-0.31-0.04-0.45,0.44-0.13,0.48c4.29,0.59,8.68-0.35,12.33-2.68
			C495.67,675.34,495.42,674.9,495.15,675.08L495.15,675.08z"/>
	</g>
</g>
<g>
	<g>
		<path d="M383.69,452.57c-7.59-0.86-15.24-1.02-22.86-0.49c-0.32,0.02-0.32,0.52,0,0.5c7.62-0.53,15.27-0.37,22.86,0.49
			C384.01,453.1,384.01,452.6,383.69,452.57L383.69,452.57z"/>
	</g>
</g>
<g>
	<g>
		<path d="M378.34,457.23c1.81-0.39,3.62-0.78,5.43-1.17c0.31-0.07,0.18-0.55-0.13-0.48c-1.81,0.39-3.62,0.78-5.43,1.17
			C377.9,456.82,378.03,457.3,378.34,457.23L378.34,457.23z"/>
	</g>
</g>
<g>
	<g>
		<path d="M367.39,385.82c0.05,1.09,0.09,2.19,0.15,3.28c0.05,1.02-0.04,2.22,0.32,3.18c0.48,1.31,1.66,1.32,2.86,1.24
			c1.31-0.09,2.63-0.18,3.94-0.28c5.37-0.4,10.75-0.86,16.11-1.38c0.61-0.06,1.23-0.12,1.84-0.18c0.57-0.06,1.16-0.1,1.68-0.38
			c1.12-0.61,1.13-1.8,1.07-2.91c-0.16-2.64-0.44-5.27-0.8-7.89c-0.18-1.33-0.4-2.65-0.63-3.96c-0.2-1.1-0.34-2.29-1.43-2.87
			c-0.96-0.51-2.15-0.4-3.2-0.39c-1.33,0.01-2.66,0.05-3.99,0.11c-5.93,0.3-11.82,1.16-17.59,2.54c-1.25,0.3-0.72,2.23,0.53,1.93
			c4.54-1.09,9.15-1.86,13.8-2.25c2.29-0.2,4.59-0.31,6.88-0.33c0.55-0.01,1.1-0.01,1.66,0c0.28,0.01,0.82-0.03,1.04,0.2
			s0.23,0.82,0.29,1.11c0.11,0.6,0.22,1.2,0.32,1.8c0.39,2.31,0.69,4.64,0.9,6.97c0.11,1.17,0.21,2.34,0.26,3.52
			c0.01,0.2,0.07,0.55-0.07,0.68c-0.26,0.24-1.11,0.17-1.45,0.2c-4.75,0.47-9.5,0.89-14.26,1.27c-1.31,0.1-2.63,0.2-3.94,0.3
			c-0.66,0.05-1.31,0.09-1.97,0.14c-0.62,0.04-1.31,0-1.91,0.13c-0.16,0.03-0.11-0.01-0.03,0.08c-0.04-0.05-0.06-0.18-0.07-0.23
			c-0.03-0.23-0.04-0.46-0.05-0.68c-0.03-0.55-0.07-1.09-0.1-1.64c-0.06-1.09-0.1-2.19-0.15-3.28
			C369.34,384.54,367.34,384.53,367.39,385.82L367.39,385.82z"/>
	</g>
</g>
<g>
	<g>
		<path d="M366.97,376.9c0.11,1.7,0.19,3.4,0.26,5.1c0.02,0.52,0.44,1.02,1,1c0.52-0.02,1.02-0.44,1-1c-0.07-1.7-0.15-3.4-0.26-5.1
			c-0.03-0.52-0.44-1.03-1-1C367.46,375.92,366.93,376.34,366.97,376.9L366.97,376.9z"/>
	</g>
</g>
<g>
	<g>
		<path d="M388.47,375.59c0.52,4.39,1.07,8.77,1.67,13.14c0.04,0.32,0.52,0.18,0.48-0.13c-0.59-4.33-1.14-8.67-1.65-13.01
			C388.93,375.27,388.43,375.27,388.47,375.59L388.47,375.59z"/>
	</g>
</g>
<g>
	<g>
		<path d="M380.66,383.91c0.83-0.38,1.06-1.32,0.92-2.16c-0.16-0.89-0.79-1.37-1.69-1.4c-1.1-0.04-2.27,0.17-3.37,0.29
			c-1.13,0.12-2.26,0.25-3.39,0.41c-1.19,0.16-2.37,0.35-3.54,0.58c-0.84,0.16-1.75,0.31-2.42,0.89c-0.57,0.5-1.03,1.33-0.82,2.1
			c0.18,0.66,0.78,1.08,1.37,1.35c0.58,0.27,1.09-0.59,0.5-0.86c-0.33-0.15-0.81-0.37-0.91-0.76c-0.18-0.67,0.65-1.25,1.18-1.44
			c1.39-0.49,2.98-0.62,4.43-0.83c1.58-0.23,3.16-0.41,4.75-0.55c0.74-0.07,1.6-0.26,2.34-0.16c0.8,0.11,0.83,1.38,0.15,1.69
			C379.57,383.32,380.08,384.18,380.66,383.91L380.66,383.91z"/>
	</g>
</g>
<g>
	<g>
		<path d="M367.54,385.86c0.82,0.34,1.7-0.07,2.37-0.56c0.47-0.35,0.9-0.33,1.46-0.39c0.6-0.07,1.2-0.14,1.81-0.21
			c2.34-0.26,4.69-0.49,7.04-0.71c0.64-0.06,0.64-1.06,0-1c-2.27,0.21-4.54,0.43-6.8,0.68c-1.03,0.11-2.1,0.15-3.11,0.32
			c-0.87,0.15-1.52,1.29-2.49,0.89C367.21,384.65,366.95,385.62,367.54,385.86L367.54,385.86z"/>
	</g>
</g>
<g>
	<g>
		<path d="M386.8,382c-0.14-1.48-0.48-3.01-0.93-4.42c-0.23-0.74-0.59-1-1.37-0.97c-1.33,0.05-2.65,0.19-3.98,0.28
			c-2.42,0.17-4.88,0.24-7.29,0.6c-0.61,0.09-1.22,0.21-1.82,0.38c-0.36,0.1-0.85,0.19-1.07,0.53c-0.24,0.37-0.12,0.96-0.12,1.37
			c0.01,0.65,0.02,1.29,0.04,1.94c0.01,0.32,0.51,0.32,0.5,0c-0.01-0.57-0.02-1.13-0.03-1.7c-0.01-0.65-0.16-1.3,0.59-1.59
			c0.92-0.36,2.04-0.46,3.01-0.57c2.05-0.22,4.12-0.32,6.18-0.46c1.04-0.07,2.07-0.15,3.11-0.22c0.59-0.04,1.38-0.29,1.7,0.36
			c0.1,0.2,0.14,0.44,0.19,0.65c0.33,1.24,0.65,2.54,0.78,3.83C386.33,382.32,386.83,382.32,386.8,382L386.8,382z"/>
	</g>
</g>
<g>
	<g>
		<path d="M370.8,384.73c0.08,1.15,0.16,2.3,0.23,3.45c0.04,0.61-0.05,1.48,0.62,1.78c0.68,0.31,1.66-0.06,2.35-0.16
			c1.12-0.16,2.25-0.33,3.37-0.47c2.23-0.27,4.48-0.45,6.72-0.55c0.5-0.02,1.01-0.06,1.51-0.05c0.3,0,0.62,0.06,0.91-0.01
			c0.71-0.18,0.62-1.01,0.66-1.59c0.11-1.98-0.2-3.98-0.5-5.94c-0.05-0.32-0.53-0.18-0.48,0.13c0.3,1.91,0.59,3.87,0.48,5.8
			c-0.02,0.27,0.03,0.97-0.29,1.11c-0.11,0.05-0.35,0.01-0.47,0.01c-0.5-0.02-0.99,0-1.49,0.02c-1.16,0.05-2.31,0.11-3.46,0.21
			c-2.27,0.18-4.53,0.46-6.78,0.8c-0.46,0.07-0.92,0.11-1.38,0.21c-0.27,0.05-0.61,0.17-0.89,0.06c-0.44-0.17-0.36-0.75-0.39-1.11
			c-0.08-1.23-0.17-2.46-0.25-3.7C371.28,384.41,370.78,384.41,370.8,384.73L370.8,384.73z"/>
	</g>
</g>
<ellipse class="st11" cx="400.95" cy="380.82" rx="1.34" ry="1.4"/>
<ellipse class="st11" cx="419.46" cy="379.95" rx="1.34" ry="1.4"/>
<ellipse class="st11" cx="438.72" cy="380.38" rx="1.34" ry="1.4"/>
<ellipse class="st11" cx="454.53" cy="381.78" rx="1.34" ry="1.4"/>
<ellipse class="st11" cx="360.28" cy="385.72" rx="1.09" ry="1.31"/>
<ellipse class="st11" cx="347.7" cy="388.29" rx="1.01" ry="1.22"/>
<g>
	<g>
		<path d="M342.5,383.2c-2.26,1.18-4.66,2.63-6.35,4.58c-0.25,0.29-0.51,0.6-0.69,0.94c-0.08,0.16-0.16,0.32-0.21,0.49
			c-0.01,0.04-0.02,0.07-0.03,0.11c-0.01,0.11-0.03,0.21-0.04,0.32c0.07-0.24,0.05-0.26-0.06-0.08c-0.5,0.51-0.14,1.39,0.21,1.87
			c0.46,0.62,1.03,1.11,1.65,1.57c1.19,0.86,2.47,1.72,4,1.58c1.69-0.15,3.39-0.55,5.07-0.83c3.43-0.58,6.86-1.15,10.29-1.73
			c3.92-0.66,7.84-1.31,11.76-1.97c0.53-0.09,0.83-0.75,0.7-1.23c-0.16-0.57-0.7-0.79-1.23-0.7c-8.66,1.45-17.32,2.91-25.98,4.36
			c-0.5,0.08-1.01,0.2-1.5,0.05c-0.44-0.13-0.82-0.41-1.2-0.65c-0.4-0.26-0.81-0.51-1.18-0.82c-0.29-0.24-0.79-0.61-0.87-1
			c0,0.18,0,0.35,0,0.53c0.03-0.14,0.21-0.35,0.26-0.5c0.04-0.12,0.16-0.68,0.05-0.29c0.07-0.26-0.08,0.1,0.02-0.07
			c0.04-0.07,0.08-0.14,0.13-0.21c0.11-0.17,0.24-0.32,0.45-0.55c0.24-0.25,0.49-0.5,0.75-0.73c1.49-1.33,3.22-2.39,4.99-3.31
			C344.65,384.33,343.64,382.6,342.5,383.2L342.5,383.2z"/>
	</g>
</g>
<g>
	<g>
		<path d="M394.24,387.51c11.02-1.21,22.09-1.85,33.18-1.9c11.04-0.06,22.09,0.46,33.07,1.55c6.2,0.61,12.37,1.41,18.52,2.39
			c0.53,0.08,1.08-0.14,1.23-0.7c0.13-0.48-0.16-1.14-0.7-1.23c-10.99-1.75-22.07-2.95-33.19-3.55c-11.11-0.6-22.25-0.63-33.35-0.07
			c-6.27,0.32-12.52,0.82-18.76,1.5c-0.54,0.06-1,0.42-1,1C393.24,387,393.7,387.57,394.24,387.51L394.24,387.51z"/>
	</g>
</g>
<g>
	<g>
		<path d="M332.97,395.93c0.86-0.38,1.83-0.76,2.8-1.08c0.99-0.33,2.01-0.61,3.03-0.84c0.51-0.12,0.86-0.73,0.7-1.23
			c-0.17-0.53-0.68-0.82-1.23-0.7c-2.17,0.5-4.27,1.22-6.3,2.13c-0.48,0.21-0.63,0.95-0.36,1.37
			C331.92,396.06,332.46,396.16,332.97,395.93L332.97,395.93z"/>
	</g>
</g>
<g>
	<g>
		<path d="M378.93,434.28c-2.44-9.53-4.18-19.24-5.17-29.03c-0.28-2.73-0.49-5.47-0.66-8.22c-0.02-0.32-0.52-0.32-0.5,0
			c0.58,9.79,1.89,19.53,3.91,29.12c0.59,2.77,1.23,5.52,1.93,8.26C378.53,434.72,379.01,434.59,378.93,434.28L378.93,434.28z"/>
	</g>
</g>
</svg>
