<?xml version="1.0" encoding="utf-8"?>
<!-- Generator: Adobe Illustrator 28.0.0, SVG Export Plug-In . SVG Version: 6.00 Build 0)  -->
<svg version="1.1" id="Layer_1" xmlns="http://www.w3.org/2000/svg" xmlns:xlink="http://www.w3.org/1999/xlink" x="0px" y="0px"
	 viewBox="0 0 800 800" style="enable-background:new 0 0 800 800;" xml:space="preserve">
<style type="text/css">
	.st0{fill:url(#SVGID_1_);stroke:#000000;stroke-width:2;stroke-linecap:round;stroke-linejoin:round;stroke-miterlimit:10;}
	.st1{fill:none;stroke:#000000;stroke-linecap:round;stroke-linejoin:round;stroke-miterlimit:10;}
	
		.st2{fill:none;stroke:url(#SVGID_00000180328344987592778070000008078734474464923835_);stroke-linecap:round;stroke-linejoin:round;stroke-miterlimit:10;}
	.st3{fill:#FFFFFF;stroke:#000000;stroke-width:0.5;}
	.st4{fill:#9FB1D1;stroke:#243B56;stroke-width:0.5;stroke-linecap:round;stroke-linejoin:round;}
	.st5{fill:#283D56;}
	.st6{fill:#CFAF93;}
	.st7{fill:url(#SVGID_00000173153935386291095250000010212171840746142357_);}
	.st8{fill:url(#SVGID_00000000916946461254720290000016367309283555673278_);}
	.st9{fill:url(#SVGID_00000159470316102131856800000002794181811373141659_);}
	.st10{fill:url(#SVGID_00000158744244462215481710000010235761000691409071_);}
	.st11{fill:url(#SVGID_00000116199316174785789650000012053781650233126813_);}
	.st12{fill:none;stroke:#000000;stroke-width:2;stroke-linecap:round;stroke-miterlimit:10;}
</style>
<g id="_x30_-HAND_x2B_WP__x5B_ARROW_STONKS_x5D__V2_x2B_">
	
		<linearGradient id="SVGID_1_" gradientUnits="userSpaceOnUse" x1="638.3643" y1="719.8819" x2="267.4132" y2="591.5114" gradientTransform="matrix(1 0 0 -1 0 799.8898)">
		<stop  offset="0" style="stop-color:#FFCE46"/>
		<stop  offset="0.071" style="stop-color:#FBC539"/>
		<stop  offset="0.1713" style="stop-color:#F7BE2E"/>
		<stop  offset="0.2783" style="stop-color:#F6BB2A"/>
		<stop  offset="0.6694" style="stop-color:#E67C3F"/>
		<stop  offset="0.8876" style="stop-color:#DE3C3A"/>
		<stop  offset="1" style="stop-color:#D82A36"/>
	</linearGradient>
	<polygon class="st0" points="625.06,88.81 641.82,107.9 665,31.79 587.16,48.27 602.3,64.78 520.99,137.11 480.34,104.36 
		394.2,157.6 352.6,149.44 289.31,179.09 210.69,192.23 184,210.03 191.22,212.65 212.6,201.38 290.84,194.64 354.39,171.16 
		399.31,183.06 478.62,136.72 517.88,171.16 	"/>
	<polygon class="st1" points="517.69,167.36 625.26,85.51 640.16,102.53 660.16,36.29 593.05,50.68 606.03,64.8 521.59,141.24 
		479.99,108.41 395.42,161.27 352.99,153.62 290.12,182.13 211.66,195.21 188.01,209.82 191.41,210.91 212.22,198.97 289.84,192.01 
		354.24,167.67 399.04,179.49 478.88,132.89 	"/>
	
		<linearGradient id="SVGID_00000134244388841171112620000009944642973429056429_" gradientUnits="userSpaceOnUse" x1="187.58" y1="676.7999" x2="660.73" y2="676.7999" gradientTransform="matrix(1 0 0 -1 0 799.8898)">
		<stop  offset="5.787037e-04" style="stop-color:#9800BF"/>
		<stop  offset="0.9942" style="stop-color:#ECFF94"/>
	</linearGradient>
	
		<polygon style="fill:none;stroke:url(#SVGID_00000134244388841171112620000009944642973429056429_);stroke-linecap:round;stroke-linejoin:round;stroke-miterlimit:10;" points="
		517.75,166.85 625.33,85 640.23,102.02 660.23,35.78 593.12,50.17 606.1,64.29 521.65,140.73 480.06,107.9 395.49,160.76 
		353.06,153.11 290.18,181.62 211.73,194.7 188.08,209.31 191.48,210.4 212.28,198.46 289.9,191.5 354.31,167.16 399.1,178.98 
		478.95,132.38 	"/>
	<g>
		<g>
			<path class="st3" d="M557.45,128.08c0.53,0.53,1.04,0.85,1.54,0.95c0.91,0.18,1.9-0.18,3-1.09c0.65-0.54,1.1-1.16,1.37-1.85
				c0.26-0.69,0.15-1.32-0.33-1.9c-0.37-0.44-0.84-0.61-1.43-0.51c-0.37,0.07-1,0.33-1.9,0.76l-1.68,0.82
				c-1.07,0.52-1.92,0.83-2.57,0.91c-1.14,0.16-2.05-0.17-2.74-0.99c-0.81-0.97-1.11-2.05-0.9-3.23c0.21-1.19,0.91-2.28,2.1-3.28
				c1.56-1.31,3.06-1.79,4.51-1.47c0.91,0.21,1.64,0.65,2.18,1.33l-1.62,1.36c-0.36-0.36-0.79-0.59-1.3-0.7
				c-0.78-0.11-1.67,0.25-2.67,1.08c-0.66,0.56-1.06,1.1-1.2,1.63s-0.03,1,0.31,1.41c0.37,0.44,0.89,0.61,1.57,0.5
				c0.39-0.06,0.89-0.24,1.5-0.54l1.39-0.69c1.51-0.75,2.59-1.17,3.26-1.25c1.04-0.12,1.95,0.29,2.74,1.23
				c0.76,0.91,1.07,1.99,0.92,3.24s-0.93,2.47-2.36,3.66c-1.54,1.29-2.92,1.85-4.14,1.7c-1.22-0.15-2.28-0.72-3.17-1.7
				L557.45,128.08z"/>
			<path class="st3" d="M558.29,110.6l1.74-1.45l2.39,2.86l1.63-1.37l1.17,1.4l-1.63,1.37l5.58,6.67c0.3,0.36,0.62,0.49,0.96,0.41
				c0.19-0.04,0.44-0.19,0.76-0.45c0.08-0.07,0.17-0.15,0.26-0.23s0.19-0.19,0.31-0.31l1.14,1.37c-0.15,0.22-0.32,0.43-0.51,0.64
				c-0.19,0.2-0.41,0.41-0.66,0.62c-0.8,0.67-1.52,0.92-2.15,0.75s-1.22-0.59-1.77-1.24l-5.66-6.77l-1.38,1.16l-1.17-1.4l1.38-1.16
				L558.29,110.6z"/>
			<path class="st3" d="M574.03,104.02c1.64,0.12,3.17,1.03,4.59,2.74c1.38,1.65,2.12,3.34,2.22,5.08c0.1,1.74-0.68,3.31-2.36,4.71
				c-1.4,1.17-2.9,1.62-4.52,1.36s-3.09-1.2-4.44-2.8c-1.44-1.72-2.15-3.45-2.13-5.19c0.02-1.74,0.75-3.22,2.21-4.44
				C570.92,104.38,572.39,103.9,574.03,104.02z M578.65,111.71c-0.3-1.21-0.89-2.35-1.78-3.4c-0.8-0.95-1.6-1.6-2.4-1.95
				c-1.27-0.54-2.48-0.32-3.65,0.66c-1.04,0.87-1.46,1.9-1.26,3.1s0.77,2.36,1.72,3.49c0.91,1.09,1.9,1.79,2.98,2.13
				c1.08,0.33,2.13,0.07,3.16-0.79C578.54,114,578.95,112.92,578.65,111.71z"/>
			<path class="st3" d="M576.64,100.1l1.63-1.37l1.21,1.45c-0.02-1,0.14-1.86,0.46-2.57s0.81-1.35,1.48-1.9
				c1.45-1.21,2.86-1.53,4.21-0.94c0.74,0.32,1.55,1,2.41,2.03l5.49,6.56l-1.75,1.46l-5.39-6.45c-0.52-0.62-1.03-1.05-1.54-1.28
				c-0.84-0.38-1.66-0.24-2.46,0.43c-0.41,0.34-0.71,0.66-0.9,0.96c-0.35,0.53-0.53,1.16-0.54,1.88c0,0.58,0.1,1.08,0.32,1.51
				s0.6,0.98,1.16,1.65l4.48,5.36l-1.72,1.44L576.64,100.1z"/>
			<path class="st3" d="M584.3,87.24l1.65-1.38l6.81,8.14l0.78-8.03l2.2-1.84l-0.75,7.09l9.52,2.95l-2.2,1.84l-7.57-2.51l-0.27,2.55
				l3.21,3.84l-1.65,1.38L584.3,87.24z"/>
			<path class="st3" d="M604.19,88.99c0.53,0.53,1.04,0.85,1.54,0.95c0.9,0.18,1.9-0.18,2.99-1.09c0.65-0.54,1.11-1.16,1.37-1.85
				c0.26-0.69,0.15-1.32-0.33-1.9c-0.37-0.44-0.84-0.61-1.43-0.51c-0.37,0.07-1,0.33-1.9,0.76l-1.68,0.82
				c-1.07,0.52-1.92,0.83-2.57,0.91c-1.14,0.16-2.05-0.17-2.74-0.99c-0.81-0.97-1.11-2.05-0.91-3.24c0.21-1.19,0.91-2.28,2.1-3.28
				c1.56-1.31,3.06-1.79,4.51-1.47c0.91,0.21,1.64,0.65,2.18,1.33l-1.62,1.36c-0.36-0.36-0.79-0.59-1.3-0.7
				c-0.78-0.11-1.67,0.25-2.67,1.08c-0.66,0.56-1.06,1.1-1.2,1.63s-0.03,1,0.31,1.41c0.37,0.44,0.89,0.61,1.57,0.5
				c0.39-0.06,0.89-0.24,1.5-0.54l1.39-0.69c1.51-0.75,2.59-1.17,3.26-1.25c1.04-0.12,1.95,0.29,2.74,1.23
				c0.76,0.91,1.07,1.99,0.92,3.24s-0.93,2.47-2.36,3.66c-1.54,1.29-2.92,1.85-4.14,1.7c-1.22-0.15-2.28-0.72-3.17-1.7L604.19,88.99
				z"/>
		</g>
		<g>
			<polygon class="st4" points="581.59,68.67 569.72,68.67 575.65,56.81 			"/>
			<polygon class="st4" points="481,153.91 471.32,153.91 476.16,144.22 			"/>
			<polygon class="st4" points="322.58,151.26 312.69,151.26 317.64,141.37 			"/>
			<polygon class="st4" points="366.52,141.57 359.29,141.57 362.91,148.8 			"/>
			<polygon class="st4" points="511.81,113.01 501.92,113.01 506.87,122.9 			"/>
		</g>
		<g>
			<g>
				<path class="st5" d="M315.42,153.96c-0.13-0.16-0.32-0.23-0.56-0.23c-0.33,0-0.56,0.12-0.68,0.37
					c-0.07,0.14-0.11,0.37-0.12,0.68H313c0.02-0.47,0.1-0.85,0.26-1.15c0.29-0.55,0.81-0.83,1.55-0.83c0.59,0,1.06,0.16,1.4,0.49
					c0.35,0.33,0.52,0.76,0.52,1.29c0,0.41-0.12,0.78-0.37,1.1c-0.16,0.21-0.43,0.45-0.79,0.71l-0.44,0.31
					c-0.27,0.19-0.46,0.33-0.56,0.42s-0.19,0.19-0.25,0.3h2.43v0.96h-3.81c0.01-0.4,0.1-0.76,0.26-1.09
					c0.16-0.37,0.52-0.76,1.1-1.18c0.5-0.36,0.83-0.62,0.98-0.77c0.23-0.24,0.34-0.51,0.34-0.8
					C315.62,154.32,315.55,154.12,315.42,153.96z"/>
				<path class="st5" d="M317.65,155.29c-0.28-0.28-0.42-0.61-0.42-1.01s0.14-0.73,0.42-1.01s0.61-0.42,1.01-0.42
					c0.39,0,0.73,0.14,1.01,0.42s0.42,0.61,0.42,1.01s-0.14,0.73-0.42,1.01s-0.61,0.42-1.01,0.42
					C318.27,155.71,317.93,155.57,317.65,155.29z M318.23,154.72c0.12,0.12,0.26,0.18,0.43,0.18s0.31-0.06,0.43-0.18
					s0.18-0.26,0.18-0.43s-0.06-0.31-0.18-0.43s-0.26-0.18-0.43-0.18s-0.31,0.06-0.43,0.18s-0.18,0.26-0.18,0.43
					C318.05,154.46,318.11,154.6,318.23,154.72z M319.26,158.54h-0.59l3.11-5.7h0.58L319.26,158.54z M320.96,157.08
					c0-0.4,0.14-0.73,0.42-1.01s0.61-0.41,1.01-0.41c0.39,0,0.73,0.14,1.01,0.42s0.42,0.61,0.42,1.01s-0.14,0.73-0.42,1.01
					s-0.61,0.42-1.01,0.42c-0.39,0-0.73-0.14-1.01-0.42C321.1,157.81,320.96,157.47,320.96,157.08z M321.96,157.51
					c0.12,0.12,0.26,0.18,0.43,0.18s0.31-0.06,0.43-0.18s0.18-0.26,0.18-0.43s-0.06-0.31-0.18-0.43s-0.26-0.18-0.43-0.18
					s-0.31,0.06-0.43,0.18s-0.18,0.26-0.18,0.43S321.84,157.39,321.96,157.51z"/>
			</g>
			<g>
				<path class="st5" d="M360.85,140.4h-0.82v-2.8h-0.95v-0.54c0.25-0.01,0.43-0.03,0.53-0.05c0.16-0.04,0.29-0.11,0.39-0.21
					c0.07-0.07,0.12-0.17,0.16-0.29c0.02-0.07,0.03-0.13,0.03-0.16h0.66V140.4z"/>
				<path class="st5" d="M362.31,138.14c-0.2-0.2-0.31-0.45-0.31-0.74s0.1-0.53,0.31-0.74c0.2-0.2,0.45-0.31,0.74-0.31
					c0.29,0,0.53,0.1,0.74,0.31c0.2,0.2,0.31,0.45,0.31,0.74s-0.1,0.53-0.3,0.74c-0.2,0.2-0.45,0.31-0.74,0.31
					C362.76,138.44,362.51,138.34,362.31,138.14z M362.73,137.71c0.09,0.09,0.19,0.13,0.31,0.13s0.23-0.04,0.31-0.13
					c0.09-0.09,0.13-0.19,0.13-0.31s-0.04-0.23-0.13-0.31c-0.09-0.09-0.19-0.13-0.31-0.13s-0.23,0.04-0.31,0.13
					c-0.09,0.09-0.13,0.19-0.13,0.31S362.64,137.63,362.73,137.71z M363.48,140.51h-0.43l2.27-4.16h0.43L363.48,140.51z
					 M364.72,139.44c0-0.29,0.1-0.54,0.31-0.74c0.2-0.2,0.45-0.3,0.74-0.3c0.29,0,0.53,0.1,0.74,0.31c0.2,0.2,0.31,0.45,0.31,0.74
					c0,0.29-0.1,0.53-0.31,0.74s-0.45,0.31-0.74,0.31c-0.29,0-0.53-0.1-0.74-0.31C364.82,139.97,364.72,139.73,364.72,139.44z
					 M365.45,139.75c0.09,0.09,0.19,0.13,0.31,0.13s0.23-0.04,0.31-0.13c0.09-0.09,0.13-0.19,0.13-0.31s-0.04-0.23-0.13-0.31
					c-0.09-0.09-0.19-0.13-0.31-0.13s-0.23,0.04-0.31,0.13c-0.09,0.09-0.13,0.19-0.13,0.31S365.36,139.67,365.45,139.75z"/>
			</g>
			<g>
				<path class="st5" d="M504.36,111.02h-1.12v-3.83h-1.31v-0.74c0.34-0.02,0.59-0.04,0.72-0.07c0.22-0.05,0.4-0.15,0.54-0.29
					c0.09-0.1,0.17-0.23,0.21-0.4c0.03-0.1,0.04-0.17,0.04-0.22h0.91L504.36,111.02L504.36,111.02z"/>
				<path class="st5" d="M506.35,107.93c-0.28-0.28-0.42-0.61-0.42-1.01c0-0.39,0.14-0.73,0.42-1.01s0.61-0.42,1.01-0.42
					c0.39,0,0.73,0.14,1.01,0.42s0.42,0.61,0.42,1.01c0,0.39-0.14,0.73-0.42,1.01s-0.61,0.42-1.01,0.42
					C506.97,108.35,506.63,108.21,506.35,107.93z M506.93,107.35c0.12,0.12,0.26,0.18,0.43,0.18s0.31-0.06,0.43-0.18
					s0.18-0.26,0.18-0.43s-0.06-0.31-0.18-0.43s-0.26-0.18-0.43-0.18s-0.31,0.06-0.43,0.18s-0.18,0.26-0.18,0.43
					S506.81,107.23,506.93,107.35z M507.96,111.17h-0.59l3.11-5.7h0.58L507.96,111.17z M509.66,109.71c0-0.4,0.14-0.73,0.42-1.01
					s0.61-0.41,1.01-0.41c0.39,0,0.73,0.14,1.01,0.42c0.28,0.28,0.42,0.61,0.42,1.01c0,0.39-0.14,0.73-0.42,1.01
					c-0.28,0.28-0.61,0.42-1.01,0.42c-0.39,0-0.73-0.14-1.01-0.42C509.8,110.44,509.66,110.1,509.66,109.71z M510.65,110.14
					c0.12,0.12,0.26,0.18,0.43,0.18s0.31-0.06,0.43-0.18s0.18-0.26,0.18-0.43s-0.06-0.31-0.18-0.43s-0.26-0.18-0.43-0.18
					s-0.31,0.06-0.43,0.18s-0.18,0.26-0.18,0.43S510.53,110.02,510.65,110.14z"/>
			</g>
			<g>
				<path class="st5" d="M573.68,75.57v1.02h-0.75v1.43h-1.28V76.6h-2.64v-1.14l2.45-4.04h1.47v4.16h0.75V75.57z M569.98,75.57h1.67
					V72.7L569.98,75.57z"/>
				<path class="st5" d="M574.71,74.32c-0.33-0.33-0.5-0.74-0.5-1.21s0.17-0.87,0.5-1.21c0.33-0.33,0.74-0.5,1.21-0.5
					s0.87,0.17,1.21,0.5c0.33,0.33,0.5,0.74,0.5,1.21s-0.17,0.87-0.5,1.21s-0.74,0.5-1.21,0.5S575.05,74.65,574.71,74.32z
					 M575.41,73.63c0.14,0.14,0.31,0.22,0.51,0.22s0.37-0.07,0.52-0.21s0.21-0.31,0.21-0.52s-0.07-0.37-0.21-0.52
					s-0.31-0.21-0.52-0.21s-0.37,0.07-0.52,0.21s-0.21,0.31-0.21,0.52S575.26,73.49,575.41,73.63z M576.64,78.21h-0.71l3.73-6.84
					h0.7L576.64,78.21z M578.68,76.46c0-0.47,0.17-0.88,0.5-1.21s0.74-0.5,1.21-0.5c0.47,0,0.87,0.17,1.21,0.5
					c0.33,0.33,0.5,0.74,0.5,1.21s-0.17,0.87-0.5,1.21c-0.33,0.33-0.74,0.5-1.21,0.5c-0.47,0-0.87-0.17-1.21-0.5
					C578.85,77.33,578.68,76.93,578.68,76.46z M579.88,76.97c0.14,0.14,0.31,0.22,0.51,0.22s0.37-0.07,0.52-0.21
					c0.14-0.14,0.21-0.31,0.21-0.52s-0.07-0.37-0.21-0.52c-0.14-0.14-0.31-0.21-0.52-0.21s-0.37,0.07-0.52,0.21
					c-0.14,0.14-0.21,0.31-0.21,0.52S579.73,76.83,579.88,76.97z"/>
			</g>
			<g>
				<path class="st5" d="M472.79,156.81c-0.12,0.16-0.18,0.37-0.17,0.64h-1c0.01-0.27,0.06-0.53,0.14-0.77
					c0.09-0.21,0.23-0.41,0.41-0.59c0.14-0.13,0.31-0.23,0.5-0.29c0.19-0.07,0.43-0.1,0.71-0.1c0.52,0,0.94,0.13,1.26,0.4
					s0.48,0.63,0.48,1.08c0,0.32-0.1,0.59-0.29,0.81c-0.12,0.14-0.25,0.23-0.38,0.28c0.1,0,0.24,0.08,0.42,0.25
					c0.27,0.25,0.41,0.6,0.41,1.04c0,0.46-0.16,0.86-0.48,1.21s-0.79,0.52-1.42,0.52c-0.77,0-1.31-0.25-1.61-0.75
					c-0.16-0.27-0.25-0.62-0.26-1.05h1.05c0,0.22,0.04,0.4,0.11,0.54c0.13,0.26,0.37,0.39,0.71,0.39c0.21,0,0.39-0.07,0.55-0.22
					c0.16-0.14,0.23-0.35,0.23-0.62c0-0.36-0.15-0.6-0.44-0.72c-0.17-0.07-0.43-0.1-0.78-0.1v-0.77c0.35-0.01,0.59-0.04,0.73-0.1
					c0.24-0.11,0.36-0.32,0.36-0.64c0-0.21-0.06-0.38-0.18-0.51c-0.12-0.13-0.29-0.2-0.51-0.2
					C473.09,156.57,472.91,156.65,472.79,156.81z"/>
				<path class="st5" d="M476.18,158.13c-0.27-0.27-0.41-0.6-0.41-0.99s0.14-0.71,0.41-0.99c0.27-0.27,0.6-0.41,0.99-0.41
					s0.71,0.14,0.99,0.41c0.27,0.27,0.41,0.6,0.41,0.99s-0.14,0.71-0.41,0.99c-0.27,0.27-0.6,0.41-0.99,0.41
					C476.78,158.54,476.45,158.4,476.18,158.13z M476.74,157.56c0.12,0.12,0.26,0.18,0.42,0.18c0.17,0,0.31-0.06,0.42-0.17
					s0.17-0.26,0.17-0.42s-0.06-0.31-0.17-0.42s-0.26-0.17-0.42-0.17c-0.17,0-0.31,0.06-0.42,0.17s-0.17,0.26-0.17,0.42
					S476.63,157.45,476.74,157.56z M477.75,161.3h-0.58l3.04-5.58h0.57L477.75,161.3z M479.42,159.88c0-0.39,0.14-0.72,0.41-0.99
					s0.6-0.41,0.99-0.41c0.39,0,0.71,0.14,0.99,0.41c0.27,0.27,0.41,0.6,0.41,0.99s-0.14,0.71-0.41,0.99
					c-0.27,0.27-0.6,0.41-0.99,0.41c-0.39,0-0.71-0.14-0.99-0.41C479.55,160.59,479.42,160.26,479.42,159.88z M480.39,160.3
					c0.12,0.12,0.26,0.18,0.42,0.18c0.17,0,0.31-0.06,0.42-0.17c0.12-0.12,0.17-0.26,0.17-0.42c0-0.17-0.06-0.31-0.17-0.42
					c-0.12-0.12-0.26-0.17-0.42-0.17c-0.17,0-0.31,0.06-0.42,0.17c-0.12,0.12-0.17,0.26-0.17,0.42
					C480.22,160.04,480.27,160.18,480.39,160.3z"/>
			</g>
		</g>
	</g>
	<path class="st6" d="M245.28,222.81c0.37-0.16,0.73-0.33,1.09-0.5c5.1-2.4,9.8-5.65,13.85-9.58c1.98-1.92,3.66-4.09,5.51-6.12
		c2.05-2.24,4.21-4.56,5.71-7.22c0.9-1.59,2.04-3.08,3.06-4.61l1.33-6.49c-0.01-0.07-0.01-0.14-0.02-0.2
		c-0.14-1.74-0.28-3.48-0.42-5.22c-0.07-0.88-0.27-1.79-0.31-2.65c-0.08-1.66,0.13-3.39,0.32-5.03c0.11-0.91,0.36-1.84,0.4-2.74
		c0.02-0.4,0.12-1.06,0.02-1.44c-0.01-0.03-0.79-3.24-0.79-3.24l-2.81-1.26l-3.75,1.59l-2.54,3.17l-5.19-7.18l-5.34-1.68l-4.18,1.02
		l-1.71,1.17l-8.23-0.64l-3.59,1.15l-4.09,3.93l-4.95,3.39l-1.87,1.99l-1.51,2.27l-4.62,4.07l-1.69,2.85
		c0.06,0.84,0.12,1.68,0.17,2.53c0.08,1.22-0.14,2.43,0.68,3.43c0.12,0.14,0.25,0.29,0.43,0.34c0.14,0.05,0.29,0.04,0.44,0.03
		c1.47-0.11,2.92-0.32,4.36-0.63c1.16-0.25,3.63-1.05,4.7-0.19c0.42,0.34,0.69,1.27,0.94,1.76c0.2,0.38,0.4,0.76,0.59,1.14
		l2.34,3.55l3.54,0.76l4.69-1.96l0.52,2.03c0,0,2.82,0.6,3.2,0.69c0.37,0.09,3.22-0.69,3.22-0.69l1.47-2.72l1.32,2.37
		c0,0,2.21,1.16,2.49,1.33s3.94-0.29,3.94-0.29l1.35-1.52l0.85-4.21l2.27,0.66c0,0-0.28,2.16-0.47,2.63
		c-0.22,0.54-0.37,1.12-0.55,1.67c-0.19,0.6-0.37,0.72-0.99,0.95c-1.3,0.49-2.71,0.56-4.09,0.62c-10.75,0.49-21.49,1.28-32.2,2.36
		c-0.68,0.07-1.51,0.27-1.65,0.94c-0.05,0.24,0.01,0.49,0.07,0.73c0.88,3.53,2.17,6.97,3.85,10.2c0.85,1.63,1.8,3.21,2.84,4.73
		c0.48,0.7,1.16,1.38,1.48,2.17c0.29,0.71,0.6,1.08,1.25,1.52c0.69,0.47,1.5,0.84,2.11,1.43c0.74,0.72,1.62,1.32,2.45,1.92
		c1.73,1.26,3.63,0.87,5.54,0.18C243.21,223.68,244.26,223.26,245.28,222.81z"/>
	
		<linearGradient id="SVGID_00000058589350950615329640000014226870101247325076_" gradientUnits="userSpaceOnUse" x1="218.0878" y1="570.3886" x2="244.0854" y2="597.1683" gradientTransform="matrix(1 0 0 -1 0 799.8898)">
		<stop  offset="0" style="stop-color:#000000"/>
		<stop  offset="0.0137" style="stop-color:#070707;stop-opacity:0.9873"/>
		<stop  offset="0.1278" style="stop-color:#3F3F3F;stop-opacity:0.8813"/>
		<stop  offset="0.2456" style="stop-color:#707070;stop-opacity:0.7719"/>
		<stop  offset="0.3645" style="stop-color:#9A9A9A;stop-opacity:0.6614"/>
		<stop  offset="0.4848" style="stop-color:#BCBCBC;stop-opacity:0.5497"/>
		<stop  offset="0.6068" style="stop-color:#D6D6D6;stop-opacity:0.4363"/>
		<stop  offset="0.7315" style="stop-color:#E9E9E9;stop-opacity:0.3205"/>
		<stop  offset="0.8604" style="stop-color:#F4F4F4;stop-opacity:0.2008"/>
		<stop  offset="1" style="stop-color:#F8F8F8;stop-opacity:0.0711"/>
	</linearGradient>
	<path style="fill:url(#SVGID_00000058589350950615329640000014226870101247325076_);" d="M251.47,219.34
		c-1.06,0.47-2.18,1.14-3.4,0.86c-0.87-0.2-1.64-1.1-1.37-1.94c0.23-0.72,1.04-1.05,1.76-1.29c1.6-0.54,3.19-1.08,4.79-1.62
		c1.48-0.5,3.08-1.09,3.91-2.43c-7.04,2.27-15.15,0.9-21.07-3.55c-0.26-0.19-0.51-0.6-0.24-0.77c0.07-0.05,0.17-0.05,0.26-0.06
		c2.65-0.11,5.29-0.5,7.87-1.16c2.25-0.58,4.39-1.74,6.64-2.21c4.23-0.87,7.42-4.28,11.2-6.38c2.79-1.54,3.8-3.46,4.55-6.5
		c0.82-3.34,0.75-6.81,1.01-10.21c0.25-3.3,1.83-5.83,3.77-8.41c0.5-0.67,1.01-1.33,1.49-2.01c0.03-0.36,0.04-0.71,0.02-1.07
		c-0.02-0.29-0.09-0.55-0.18-0.8c0.15-0.97-0.3-2.06-1.36-2.21c-0.17-0.02-0.35-0.05-0.52-0.07c-0.9-0.13-1.94,0.18-2.3,1.08
		c-0.82,0.4-1.6,1-2.13,1.63c-0.92,1.1-1.22,2.53-1.52,3.9c-0.11,0.52-0.19,1.05-0.26,1.57c-0.14,0.11-0.26,0.25-0.36,0.42
		c-0.07,0.05-0.13,0.12-0.19,0.17c0.01,0.32,0.04,0.64,0.03,0.97c-0.02,1.13-0.17,2.23-0.32,3.35c-0.07,0.56-0.41,0.97-1,1
		c-0.06,0-0.11,0.01-0.17,0.01c-0.33,0-0.71-0.19-0.87-0.5c-0.78-1.56-0.99-3.24-1.14-4.95c-0.12-1.39-0.24-2.84-0.82-4.13
		c-0.46-1.05-1.12-1.67-2.07-2.18c-0.4-0.21-0.77-0.36-1.25-0.48c-0.27-0.07-0.35-0.08-0.58-0.1c-0.1-0.01-0.2-0.01-0.3-0.01
		c-0.04,0-0.31,0.02-0.21,0.01c-0.33,0.04-0.62,0.15-0.88,0.27c-0.11,0.27-0.17,0.54-0.15,0.81c0.46,0.25,0.74,0.71,1.05,1.12
		c0.52,0.67,1.03,1.28,1.46,2.02c1.04,1.78,1.76,3.77,2.2,5.78c0.45,2.09,0.66,4.24,0.73,6.38c0.04,1.1,0.04,2.21,0.02,3.31
		c0.04,0.09,0.07,0.19,0.11,0.27c-0.04,0.14-0.08,0.27-0.11,0.41c0,0.43-0.03,0.87-0.11,1.28c0.3,1.29,2.06,1.85,3.13,1.05
		c-0.08,0.55-0.17,1.1-0.29,1.65c-0.17,0.76-0.3,1.57-0.53,2.3c-0.21,0.64-0.79,0.99-1.38,1.28c-1.4,0.68-3.02,0.77-4.54,0.84
		c-10.9,0.48-21.78,1.3-32.63,2.45c-0.29,0.03-0.61,0.08-0.78,0.31c-0.16,0.22-0.13,0.53-0.08,0.8c0.28,1.63,0.49,3.39,0.98,4.96
		c0.55,1.76,1.41,3.41,2.23,5.06c1.19,2.39,2.38,4.79,3.97,6.94c1.21,1.64,2.73,3,4.38,4.18c1.55,1.11,3.19,2.13,5.19,2.01
		c1.11-0.06,2.19-0.41,3.23-0.79C245.53,222.81,248.64,221.26,251.47,219.34z"/>
	
		<linearGradient id="SVGID_00000057833779815425508480000002588902552307348667_" gradientUnits="userSpaceOnUse" x1="216.1161" y1="634.8699" x2="276.4592" y2="596.8425" gradientTransform="matrix(1 0 0 -1 0 799.8898)">
		<stop  offset="0" style="stop-color:#000000"/>
		<stop  offset="0.0252" style="stop-color:#0B0B0B;stop-opacity:0.9766"/>
		<stop  offset="0.1825" style="stop-color:#494949;stop-opacity:0.8305"/>
		<stop  offset="0.3383" style="stop-color:#7E7E7E;stop-opacity:0.6858"/>
		<stop  offset="0.4889" style="stop-color:#AAAAAA;stop-opacity:0.5459"/>
		<stop  offset="0.6333" style="stop-color:#CCCCCC;stop-opacity:0.4117"/>
		<stop  offset="0.7699" style="stop-color:#E4E4E4;stop-opacity:0.2848"/>
		<stop  offset="0.8956" style="stop-color:#F3F3F3;stop-opacity:0.1681"/>
		<stop  offset="1" style="stop-color:#F8F8F8;stop-opacity:0.0711"/>
	</linearGradient>
	<path style="fill:url(#SVGID_00000057833779815425508480000002588902552307348667_);" d="M254.54,197.34
		c-3.01-4.66-0.62-10.89-2.13-15.98c-0.73-2.47-2.07-4.68-4.18-6.21c-0.71-0.51-1.48-0.94-2.27-1.33c-0.02,0-0.04,0.01-0.06,0.01
		c-0.2,0.05-0.4,0.1-0.6,0.15c-0.08,0.02-0.16,0.05-0.25,0.07c1.94,1.45,3.49,3.35,4.32,5.64c0.47,1.29,0.7,2.67,0.75,4.05
		c0.09,0.54,0.15,1.09,0.18,1.64c0.22,3.84-0.28,7.82,1.17,11.48c0.39,0.98,1.31,1.67,2.41,1.37c0.36-0.1,0.7-0.33,0.96-0.63
		C254.73,197.54,254.61,197.45,254.54,197.34z"/>
	
		<linearGradient id="SVGID_00000124875626199702158970000012933477938279610516_" gradientUnits="userSpaceOnUse" x1="212.9278" y1="629.8106" x2="273.2708" y2="591.7831" gradientTransform="matrix(1 0 0 -1 0 799.8898)">
		<stop  offset="0" style="stop-color:#000000"/>
		<stop  offset="0.1623" style="stop-color:#3F3F3F;stop-opacity:0.8492"/>
		<stop  offset="0.325" style="stop-color:#777777;stop-opacity:0.6981"/>
		<stop  offset="0.4836" style="stop-color:#A5A5A5;stop-opacity:0.5508"/>
		<stop  offset="0.6339" style="stop-color:#C9C9C9;stop-opacity:0.4111"/>
		<stop  offset="0.7741" style="stop-color:#E3E3E3;stop-opacity:0.2809"/>
		<stop  offset="0.9001" style="stop-color:#F3F3F3;stop-opacity:0.1638"/>
		<stop  offset="1" style="stop-color:#F8F8F8;stop-opacity:0.0711"/>
	</linearGradient>
	<path style="fill:url(#SVGID_00000124875626199702158970000012933477938279610516_);" d="M244.23,195.42
		c-0.59-1.09-0.76-2.35-0.85-3.57c-0.15-1.88-0.25-3.78-0.41-5.67c-0.79-3.22-2.07-6.4-5.27-7.7c-0.64-0.26-1.67-0.7-2.38-0.46
		c-0.14,0.05-0.19,0.1-0.3,0.18c-0.04,0.03-0.05,0.09-0.05,0.14c0.07,0.03,0.13,0.07,0.19,0.15c0.77,0.97,1.57,1.91,2.35,2.87
		c0.41,0.43,0.8,0.88,1.11,1.38c0.16,0.26,0.17,0.5,0.09,0.7c0.03,0.03,0.06,0.06,0.08,0.09c0.71,0.93,0.86,2.11,0.98,3.25
		c0.02,0.07,0.06,0.13,0.08,0.2c0.53,1.64,0.85,3.26,0.93,4.98c0,0.01,0,0.03,0,0.04c0.35,1.23,0.75,2.45,1.2,3.67
		c0.07,0.06,0.13,0.12,0.2,0.17c0.04,0.03,0.05,0.04,0.06,0.05c0.01,0.01,0.02,0.01,0.07,0.04c0.06,0.04,0.13,0.08,0.19,0.12
		c0.25-0.05,0.51-0.02,0.73,0.12c0.17,0.11,0.35,0.21,0.53,0.3c0.04,0.02,0.1,0.05,0.13,0.06c0.09,0.03,0.18,0.06,0.27,0.09
		c0.39,0.12,0.73,0.21,1,0.23c0.12,0.01,0.24,0,0.35,0C244.98,196.45,244.51,195.93,244.23,195.42z"/>
	
		<linearGradient id="SVGID_00000113350313590645866440000018230892189739383449_" gradientUnits="userSpaceOnUse" x1="208.761" y1="623.1987" x2="269.104" y2="585.1711" gradientTransform="matrix(1 0 0 -1 0 799.8898)">
		<stop  offset="0" style="stop-color:#000000"/>
		<stop  offset="4.538357e-03" style="stop-color:#020202;stop-opacity:0.9958"/>
		<stop  offset="0.1686" style="stop-color:#424242;stop-opacity:0.8434"/>
		<stop  offset="0.3303" style="stop-color:#7A7A7A;stop-opacity:0.6932"/>
		<stop  offset="0.4859" style="stop-color:#A7A7A7;stop-opacity:0.5487"/>
		<stop  offset="0.634" style="stop-color:#CACACA;stop-opacity:0.4111"/>
		<stop  offset="0.7727" style="stop-color:#E3E3E3;stop-opacity:0.2822"/>
		<stop  offset="0.8986" style="stop-color:#F3F3F3;stop-opacity:0.1653"/>
		<stop  offset="1" style="stop-color:#F8F8F8;stop-opacity:0.0711"/>
	</linearGradient>
	<path style="fill:url(#SVGID_00000113350313590645866440000018230892189739383449_);" d="M233.4,192.58
		c-0.37-1.54-0.45-3.43-1.41-4.76c-0.73-1.02-2.06-1.91-3.31-2.08c-0.47-0.07-0.94-0.03-1.32,0.27c-0.3,0.24-0.47,0.65-0.58,1.07
		c0.17,0.04,0.33,0.09,0.48,0.13c2.4,0.71,3.85,2.97,4.06,5.41c0.11,0.15,0.22,0.3,0.32,0.46c0.54,0.83,1.02,1.71,1.44,2.61
		c0.42,0.89,1.73,1.21,2.57,0.76C234.38,195.6,233.76,194.08,233.4,192.58z"/>
	
		<linearGradient id="SVGID_00000016062511017671620820000004013525624121697152_" gradientUnits="userSpaceOnUse" x1="187.0219" y1="626.489" x2="257.3917" y2="622.2878" gradientTransform="matrix(1 0 0 -1 0 799.8898)">
		<stop  offset="0" style="stop-color:#000000"/>
		<stop  offset="0.0858" style="stop-color:#272727;stop-opacity:0.9203"/>
		<stop  offset="0.2212" style="stop-color:#5E5E5E;stop-opacity:0.7945"/>
		<stop  offset="0.3578" style="stop-color:#8D8D8D;stop-opacity:0.6676"/>
		<stop  offset="0.4927" style="stop-color:#B3B3B3;stop-opacity:0.5423"/>
		<stop  offset="0.6254" style="stop-color:#D1D1D1;stop-opacity:0.419"/>
		<stop  offset="0.7556" style="stop-color:#E7E7E7;stop-opacity:0.2981"/>
		<stop  offset="0.8818" style="stop-color:#F4F4F4;stop-opacity:0.1808"/>
		<stop  offset="1" style="stop-color:#F8F8F8;stop-opacity:0.0711"/>
	</linearGradient>
	<path style="fill:url(#SVGID_00000016062511017671620820000004013525624121697152_);" d="M250.71,166.94
		c1.68-0.69,3.22-1.74,4.86-2.84c0.17-0.11,0.34-0.23,0.44-0.41c0.18-0.35-0.04-0.81-0.39-1s-0.77-0.18-1.16-0.13
		c-2.44,0.34-4.46,2.22-6.92,2.4c-0.99,0.07-1.56-0.35-2.47-0.59c-1.32-0.35-2.84-0.13-4.19-0.01c-1.06,0.09-2.16,0.23-3.09,0.76
		c-0.63,0.36-1.15,0.89-1.68,1.4c-1.3,1.27-2.65,2.48-4.07,3.61c-1.31,1.05-2.86,1.49-4.17,2.58c-1.44,1.2-2.06,3.02-3.49,4.2
		c-1.29,1.06-2.46,2.01-3.33,3.47c-1.5,2.51-2.88,5.82-1.74,8.7c0.22,0.55,0.64,1.04,1.2,1.21c0.49,0.14,1.01,0.02,1.5-0.11
		c0.5-0.13,1-0.26,1.51-0.4c0.18-0.05,0.38-0.1,0.51-0.24c0.3-0.3,0.14-0.81-0.06-1.19c-0.74-1.43-2.76-3.65-2.31-5.36
		c0.47-1.83,1.95-3.09,3.34-4.26c0.52-0.43,1.19-1.52,1.89-1.62c0.37-0.06,0.63,0.24,1,0.28c0.53,0.06,1.16-0.1,1.66-0.28
		c0-0.07,0.01-0.14,0.01-0.21c-0.38-0.04-0.79-0.09-1.08-0.34c-1.17-1,1.13-3.1,1.95-3.48c0.47-0.22,1.08-0.33,1.46,0.01
		c0.41,0.37,0.36,1.1,0.81,1.44c0.59-1.16-0.08-2.9,1.3-3.54c1.3-0.61,2.18-1.25,3.17-2.25c0.03,0.45,0.56,0.67,1.01,0.75
		c1.21,0.21,2.48,0.12,3.65-0.27c-0.64-0.14-1.29-0.29-1.93-0.43c-0.45-0.1-1.01-0.34-0.97-0.8c0.02-0.17,0.13-0.32,0.24-0.46
		c1.18-1.35,3.12-1.67,4.91-1.83c0.35-0.03,0.76-0.04,0.98,0.23c0.52,0.62-0.61,1.59-0.22,2.3c0.23,0.18,0.57,0.07,0.79-0.12
		c0.22-0.18,0.41-0.43,0.67-0.54c0.61-0.26,1.33,0.22,1.97,0.16C249.03,167.67,250.01,167.22,250.71,166.94z"/>
	<g>
		<g>
			<path d="M266.04,183.52c-1.21-4.54-0.58-10,2.32-13.81c1.14-1.5,3.04-2.76,4.97-1.96c2.26,0.93,1.29,3.66,0.84,5.43
				c-1.12,4.44-0.11,9,0.23,13.47c0.16,2.17,0.21,4.4-0.38,6.5c-0.57,2.02-1.85,3.85-3.06,5.53c-1.56,2.17-3.32,4.19-5.14,6.14
				c-0.81,0.87-1.71,1.67-2.49,2.56c-0.68,0.78-0.47,2.28-0.11,3.14c0.21,0.5,0.94,0.61,1.37,0.36c0.51-0.3,0.57-0.87,0.36-1.37
				c-0.14-0.33-0.04-0.82,0.06-1.16c-0.09,0.15-0.17,0.29-0.26,0.44c3.38-3.36,6.68-6.96,9.23-11c1.22-1.93,2.09-3.89,2.38-6.17
				c0.3-2.31,0.11-4.65-0.13-6.96c-0.24-2.33-0.56-4.66-0.56-7.01c0-1.09,0.06-2.19,0.29-3.26c0.26-1.24,0.68-2.43,0.81-3.7
				c0.25-2.39-1.09-4.55-3.51-5.05c-2.26-0.47-4.4,0.51-5.91,2.19c-1.84,2.05-2.96,4.81-3.49,7.49c-0.58,2.89-0.5,5.88,0.27,8.73
				C264.45,185.29,266.38,184.77,266.04,183.52L266.04,183.52z"/>
		</g>
	</g>
	<g>
		<g>
			<path d="M227.29,187.38c1.61,0.92,2.23,2.8,2.86,4.44c0.68,1.77,1.48,3.58,3.08,4.7c0.98,0.69,2.29,0.88,3.45,0.89
				c1.27,0.01,2.63-0.22,3.75-0.86c1.39-0.79,2.02-2.13,1.79-3.7c-0.08-0.53-0.75-0.83-1.23-0.7c-0.57,0.16-0.78,0.69-0.7,1.23
				c0.05,0.35-0.02,0.59-0.21,0.89c-0.04,0.06-0.21,0.24-0.3,0.32c-0.11,0.09-0.41,0.27-0.6,0.36c-0.82,0.39-1.88,0.5-2.86,0.45
				c-0.99-0.05-1.77-0.25-2.5-0.99c-1.11-1.13-1.57-2.74-2.14-4.18c-0.72-1.8-1.63-3.58-3.37-4.58
				C227.18,185.01,226.18,186.74,227.29,187.38L227.29,187.38z"/>
		</g>
	</g>
	<g>
		<g>
			<path d="M235.21,179.87c2.74,2.07,3.87,5.58,4.45,8.82c0.33,1.86,0.48,3.74,0.75,5.6c0.1,0.68,0.23,1.38,0.56,1.98
				c0.41,0.74,1.12,1.22,1.89,1.52c1.39,0.54,3.26,0.68,4.73,0.41c1.65-0.31,2.79-1.56,3.12-3.19c0.34-1.69,0.18-3.49,0.18-5.2
				c0-2,0.05-4-0.06-5.99c-0.13-2.13-0.57-4.19-1.58-6.08c-0.94-1.75-2.25-3.28-3.63-4.68c-0.9-0.92-2.32,0.5-1.41,1.41
				c2.3,2.34,4.17,4.96,4.54,8.3c0.2,1.76,0.15,3.55,0.15,5.32c0,1.79,0.07,3.6,0,5.39c-0.05,1.21-0.3,2.46-1.64,2.76
				c-0.65,0.14-1.34,0.08-1.99,0.02c-0.64-0.06-1.35-0.14-1.93-0.43c-1.14-0.57-1.04-2.49-1.17-3.57c-0.21-1.74-0.41-3.49-0.78-5.21
				c-0.75-3.44-2.28-6.73-5.15-8.9c-0.43-0.33-1.12-0.07-1.37,0.36C234.55,179.01,234.77,179.54,235.21,179.87L235.21,179.87z"/>
		</g>
	</g>
	<g>
		<g>
			<path d="M248.98,192.03c0.23,2.5,1.37,4.88,3.66,6.1c2.17,1.16,4.88,0.97,6.69-0.78c1.11-1.08,1.4-2.46,1.51-3.95
				c0.13-1.81,0.2-3.62,0.24-5.43c0.07-3.46,0.13-7.03-0.53-10.44c-0.65-3.3-2.24-6.44-5.07-8.36c-1.07-0.72-2.07,1.01-1.01,1.73
				c4.63,3.14,4.63,9.62,4.64,14.61c0,1.56-0.02,3.13-0.09,4.69c-0.03,0.74-0.06,1.48-0.11,2.22c-0.04,0.74-0.04,1.52-0.23,2.25
				c-0.49,1.87-2.69,2.59-4.38,2.02c-1.99-0.67-3.12-2.61-3.3-4.65c-0.05-0.54-0.42-1-1-1
				C249.48,191.03,248.93,191.48,248.98,192.03L248.98,192.03z"/>
		</g>
	</g>
	<g>
		<g>
			<path d="M264.56,186.85c-0.12,0.77-0.24,1.53-0.37,2.3c-0.03,0.16-0.06,0.32-0.1,0.49c-0.05,0.23,0.09-0.11-0.03,0.09
				c-0.03,0.05-0.17,0.23-0.02,0.06c-0.09,0.1-0.18,0.19-0.28,0.27c0.17-0.15-0.01,0-0.06,0.03c-0.07,0.05-0.14,0.09-0.2,0.13
				c-0.28,0.17-0.56,0.35-0.85,0.5c-0.08,0.04-0.16,0.08-0.25,0.12c-0.16,0.08,0.05-0.01-0.06,0.02c-0.16,0.05-0.32,0.1-0.48,0.14
				c-0.27,0.07,0.19,0-0.05,0.01c-0.08,0-0.15,0.01-0.23,0c-0.04,0-0.24-0.04-0.09,0c0.15,0.03-0.06-0.02-0.09-0.02
				c-0.06-0.02-0.16-0.03-0.21-0.07c0.2,0.14,0.03,0-0.02-0.03c-0.17-0.09,0.11,0.13-0.03-0.02c-0.04-0.04-0.18-0.22-0.03-0.02
				c-0.3-0.42-0.88-0.67-1.37-0.36c-0.42,0.27-0.69,0.91-0.36,1.37c0.55,0.77,1.41,1.19,2.36,1.16c0.93-0.03,1.77-0.46,2.55-0.94
				c0.8-0.49,1.51-1.05,1.75-2.01c0.1-0.41,0.15-0.84,0.22-1.26c0.08-0.48,0.15-0.96,0.23-1.44c0.08-0.51-0.13-1.1-0.7-1.23
				C265.31,186.04,264.65,186.3,264.56,186.85L264.56,186.85z"/>
		</g>
	</g>
	<path class="st12" d="M230.04,189l-10.29,1.56c-0.19-1.29-1.08-5.68-0.76-6.95c0.52-2.04,2.25-3.51,3.9-4.81
		c1.35-1.07,2.74-2.17,3.56-3.68c0.25-0.45,0.44-0.93,0.73-1.36c0.94-1.37,2.68-1.87,4.08-2.75c3.1-1.93,4.89-5.88,8.42-6.83
		c1.38-0.38,2.85-0.22,4.28-0.06c1.4,0.16,2.8,0.31,4.19,0.47c0.61,0.07,1.26,0.13,1.81-0.13c0.49-0.23,0.84-0.68,1.26-1.03
		c1.36-1.13,3.31-1.08,5.07-0.97c0.99,0.06,2,0.12,2.9,0.53c0.92,0.41,1.65,1.15,2.31,1.91c1.61,1.85,3.42,4.14,4.42,6.38"/>
	<g>
		<g>
			<path d="M254.46,196.85c-3.66,0.31-7.32,0.62-10.98,0.93c-5.83,0.5-11.66,0.99-17.5,1.49c-1.33,0.11-2.67,0.23-4,0.34
				c-0.66,0.06-1.12,0.59-0.96,1.27c1.1,4.75,3.21,9.31,5.47,13.6c1.07,2.03,2.19,3.98,3.72,5.72c1.51,1.72,3.38,3.07,5.45,4.05
				c1.24,0.59,2.55,1.11,3.9,1.42c1.25,0.29,1.79-1.64,0.53-1.93c-2.92-0.67-5.86-2.19-7.92-4.36c-1.54-1.62-2.65-3.49-3.7-5.45
				c-1.08-2.03-2.09-4.1-3-6.21c-1.03-2.39-1.93-4.85-2.52-7.38c-0.32,0.42-0.64,0.84-0.96,1.27c3.66-0.31,7.32-0.62,10.98-0.93
				c5.83-0.5,11.66-0.99,17.5-1.49c1.33-0.11,2.67-0.23,4-0.34C255.73,198.74,255.74,196.74,254.46,196.85L254.46,196.85z"/>
		</g>
	</g>
	<g>
		<g>
			<path d="M261.51,192.03c-0.01,0.51-0.03,1.02-0.08,1.52c-0.01,0.11-0.02,0.22-0.04,0.33c0.03-0.19,0-0.02,0,0.01
				c-0.01,0.06-0.02,0.12-0.03,0.18c-0.04,0.25-0.1,0.49-0.17,0.74c-0.06,0.24-0.14,0.47-0.23,0.7c-0.04,0.11-0.08,0.21-0.12,0.32
				c0.09-0.23-0.03,0.07-0.06,0.12c-0.06,0.11-0.15,0.23-0.2,0.34c0.01-0.02,0.17-0.18,0.08-0.1c-0.02,0.01-0.02,0.03-0.04,0.04
				c-0.15,0.1,0.23-0.15,0.04-0.04c-0.17,0.1,0.18-0.05,0.07-0.02c-0.04,0.01-0.09,0.03-0.13,0.04c-0.12,0.03-0.25,0.06-0.37,0.08
				c-0.15,0.03-0.31,0.06-0.46,0.1c-0.07,0.02-0.34,0.06-0.13,0.05c0.17,0,0.1-0.01,0.06,0c-0.43,0.04-0.87,0.07-1.3,0.11
				s-0.86,0.07-1.28,0.11c-0.52,0.04-1.03,0.43-1,1c0.02,0.5,0.44,1.05,1,1c0.87-0.07,1.73-0.13,2.6-0.22
				c0.36-0.04,0.7-0.15,1.06-0.22c0.3-0.06,0.61-0.13,0.88-0.28c0.76-0.43,1.08-1.35,1.34-2.12c0.41-1.21,0.5-2.5,0.53-3.78
				c0.01-0.52-0.47-1.02-1-1C261.96,191.05,261.52,191.47,261.51,192.03L261.51,192.03z"/>
		</g>
	</g>
</g>
</svg>
