<?xml version="1.0" encoding="utf-8"?>
<!-- Generator: Adobe Illustrator 28.0.0, SVG Export Plug-In . SVG Version: 6.00 Build 0)  -->
<svg version="1.1" id="Layer_1" xmlns="http://www.w3.org/2000/svg" xmlns:xlink="http://www.w3.org/1999/xlink" x="0px" y="0px"
	 viewBox="0 0 150 150" style="enable-background:new 0 0 150 150;" xml:space="preserve">
<style type="text/css">
	.st0{stroke:#000000;stroke-width:2;stroke-linecap:round;stroke-linejoin:round;stroke-miterlimit:10;}
	.st1{fill:#2B2B2B;}
	.st2{fill:#030303;}
	.st3{fill:#675E66;}
	.st4{fill:none;stroke:#000000;stroke-width:2;stroke-linecap:round;stroke-miterlimit:10;}
	.st5{fill:none;stroke:#000000;stroke-width:0.5;stroke-linecap:round;stroke-miterlimit:10;}
	.st6{fill:none;stroke:#000000;stroke-miterlimit:10;}
	.st7{fill:none;stroke:#000000;stroke-linecap:round;stroke-miterlimit:10;}
	.st8{fill:url(#SVGID_1_);}
	.st9{fill:url(#SVGID_00000110451997119034440760000002613652705491244944_);}
	.st10{fill:url(#SVGID_00000144328432112665787900000009337754930505241255_);}
	.st11{fill:url(#SVGID_00000026876608378484778820000014381111795365318583_);}
	.st12{fill:url(#SVGID_00000070085047868763359240000005154926522631131268_);}
	.st13{fill:url(#SVGID_00000038412841171426422850000011855127639130423173_);}
	.st14{fill:url(#SVGID_00000112605512354595671790000012865913680333319594_);}
</style>
<g id="Doomer_Hoodie">
	<g>
		<path class="st0" d="M143.62,88.24c-0.18-0.57-0.43-1.03-0.44-1.65c-0.03-1.02-0.22-2.01-0.62-2.95
			c-0.38-0.87-0.99-1.55-1.45-2.36c-0.56-1-0.42-2.23-0.53-3.33c-0.11-1.13-0.46-2.19-0.71-3.29c-0.25-1.14-0.25-2.26-0.18-3.41
			c0.06-1.08,0.14-2.16-0.03-3.23S139,66,138.39,65.11c-0.65-0.93-1.36-1.81-1.99-2.75c-0.64-0.94-1.24-1.91-1.83-2.88
			c-0.28-0.46-0.55-0.92-0.82-1.38c-0.3-0.5-0.78-1.09-0.78-1.7c0-0.5,0.19-0.98,0.2-1.49c0.01-0.47-0.06-0.94-0.19-1.38
			c-0.54-1.94-1.98-3.47-2.73-5.32c-0.43-1.04-0.67-2.16-0.71-3.29c-0.04-1.02,0.3-2.03,0.21-3.04c-0.04-0.45-0.18-0.86-0.4-1.26
			c-0.27-0.49-0.82-0.98-0.92-1.53c-0.07-0.37-0.01-0.68-0.24-1.02c-0.2-0.3-0.52-0.5-0.85-0.62c-0.33-0.13-0.68-0.16-1.03-0.21
			c-0.26-0.03-0.53-0.05-0.71-0.26c-0.18-0.22-0.13-0.53-0.14-0.8c-0.03-0.94-0.44-1.72-1.05-2.42c-1.26-1.46-2.93-2.46-4.7-3.18
			c-0.91-0.37-1.85-0.67-2.79-0.95c-0.45-0.13-0.9-0.25-1.35-0.39c-0.19-0.06-0.4-0.12-0.56-0.24c-0.23-0.16-0.22-0.35-0.18-0.56
			c0-0.01,0-0.02,0.01-0.03c0.01-0.06,0.03-0.13,0.05-0.19c0.2-0.86-0.28-1.51-1.09-1.79c-1.03-0.35-2.19-0.41-3.26-0.64
			c-0.47-0.1-0.89-0.25-1.14-0.69c-0.26-0.46-0.36-1-0.56-1.49c-0.01-0.01-0.02-0.02-0.02-0.03c-0.01-0.02-0.01-0.04-0.02-0.06
			c-0.27-0.63-0.58-1.39-1.2-1.75c-0.22-0.13-0.47-0.2-0.72-0.26c-0.2-0.05-0.4-0.07-0.6-0.14c-0.23-0.08-0.28-0.25-0.39-0.45
			c-0.23-0.4-0.6-0.69-1.01-0.87c-0.21-0.09-0.42-0.16-0.64-0.23c-0.22-0.06-0.46-0.11-0.64-0.26c-0.17-0.14-0.29-0.35-0.45-0.51
			c-0.17-0.17-0.38-0.31-0.6-0.42c-0.41-0.2-0.85-0.3-1.3-0.36c-0.56-0.08-1.12-0.12-1.69-0.14c-0.59-0.02-1.17-0.09-1.75-0.14
			s-1.16-0.09-1.74-0.1c-0.09,0-0.18-0.01-0.27-0.01c-0.04,0-0.26,0-0.08,0.01c-0.01,0-0.02,0-0.03,0c-0.17-0.02-0.35,0-0.52,0
			c-0.36,0-0.72,0.01-1.08,0.03c-2.91,0.12-5.81,0.51-8.66,1.12c-2.02,0.43-4.02,0.98-5.98,1.66c-1.06,0.37-2.1,0.77-3.12,1.21
			c-0.54,0.23-1.07,0.47-1.59,0.72c-0.46,0.22-0.99,0.3-1.47,0.48c-0.99,0.37-1.93,0.86-2.93,1.21c-0.99,0.35-2.02,0.56-2.95,1.06
			c-0.2,0.11-0.44,0.23-0.6,0.39c-0.24,0.23-0.21,0.46-0.13,0.75c0.08,0.28-0.49,0.49-0.69,0.6c-0.84,0.45-1.63,1.12-1.73,2.14
			c-0.02,0.22,0,0.43,0.06,0.63c-0.4,0.08-0.77,0.25-1.05,0.57c-0.2,0.23-0.28,0.46-0.62,0.45c-0.36-0.01-0.7-0.05-1.05,0.05
			c-0.61,0.17-0.96,0.64-0.99,1.26c-0.02,0.4,0.08,0.83,0.26,1.2c-1.05,0.46-2.12,0.92-3.16,1.41c-1.01,0.48-1.96,1.08-2.94,1.61
			c-0.5,0.27-1,0.52-1.53,0.71c-0.24,0.09-0.51,0.15-0.72,0.3c-0.24,0.17-0.35,0.4-0.47,0.66c-0.36,0.78-1.26,1.14-1.56,1.97
			c-0.18,0.51,0.03,0.97,0.05,1.48c0.02,0.44-0.36,0.63-0.71,0.79c-0.44,0.2-0.87,0.38-1.27,0.67c-0.42,0.31-0.78,0.68-1.11,1.08
			c-0.32,0.4-0.62,0.82-0.9,1.25c-0.15,0.22-0.31,0.44-0.39,0.7c-0.1,0.31,0.01,0.57,0.03,0.88c0.02,0.27-0.04,0.56-0.09,0.82
			c-0.05,0.3-0.11,0.6-0.17,0.9c-0.12,0.57-0.28,1.13-0.45,1.69c-0.41,1.28-0.98,2.47-1.62,3.64c-0.61,1.12-1.22,2.23-1.83,3.34
			c-0.17-0.1-0.39-0.07-0.53,0.13c-0.34,0.48-0.3,1.02-0.42,1.56c-0.06,0.26-0.11,0.51-0.11,0.78c0,0.28,0,0.51-0.17,0.74
			c-0.14,0.19-0.3,0.28-0.51,0.36c-0.33,0.12-0.41,0.37-0.52,0.68c-0.03,0.1-0.1,0.49-0.24,0.5c-0.11,0.01-0.28-0.22-0.36-0.31
			c-0.27-0.32-0.49-0.68-0.76-1.01c-0.41-0.5-0.81-1-1.23-1.49c-0.16-0.19-0.33-0.36-0.56-0.47c-0.27-0.13-0.56-0.14-0.85-0.19
			c-0.5-0.09-0.92-0.35-1.29-0.69c-0.81-0.74-1.48-1.64-2.24-2.42c-0.78-0.81-1.63-1.57-2.6-2.16c-0.44-0.27-0.91-0.5-1.34-0.81
			c-0.44-0.31-0.71-0.73-1.02-1.16c-0.33-0.46-0.71-0.82-1.21-1.08c-0.48-0.25-0.99-0.43-1.46-0.69c-1.06-0.61-1.88-1.49-2.48-2.54
			c-0.29-0.51-0.58-1.05-0.99-1.49c-0.19-0.21-0.42-0.4-0.68-0.49c-0.23-0.09-0.5-0.1-0.76-0.1c-0.06-0.08-0.16-0.13-0.3-0.13
			c-4.02,0.26-7.89,1.88-10.78,4.72c-0.37,0.36-0.71,0.74-1.04,1.14c-0.17,0.2-0.31,0.43-0.48,0.63c0,0-0.01,0.01-0.01,0.02
			c0.05-0.06-0.09,0.09-0.1,0.09c-0.22,0.26-0.42,0.54-0.56,0.86c-0.26,0.57-0.37,1.21-0.21,1.83c0.18,0.68,0.68,1.2,1.22,1.63
			c0.53,0.42,1.09,0.8,1.57,1.28c1.04,1.03,1.83,2.28,2.66,3.48c0.94,1.34,1.87,2.69,2.81,4.03c0.23,0.33,0.46,0.66,0.69,0.99
			c0.22,0.32,0.49,0.64,0.65,0.99c0.13,0.3,0.03,0.57,0.03,0.88c0,0.33,0.11,0.65,0.3,0.91c0.38,0.51,0.94,0.84,1.39,1.29
			c0.45,0.46,0.82,1,1.14,1.56c0.72,1.24,1.34,2.53,2.08,3.76c0.77,1.29,1.6,2.54,2.48,3.75c0.45,0.62,0.92,1.23,1.41,1.83
			c0.43,0.53,0.88,1.05,1.26,1.62c0.4,0.6,0.68,1.21,0.84,1.92c0.16,0.7,0.34,1.34,0.79,1.92c0.43,0.55,0.94,1.03,1.31,1.63
			c0.36,0.59,0.66,1.21,1.03,1.79c0.73,1.16,1.77,2.06,2.91,2.8c1.22,0.8,2.53,1.46,3.83,2.13c1.34,0.69,2.72,1.33,4.26,1.36
			c0.53,0.01,1.05-0.08,1.55-0.23c0.02,0.23,0.07,0.45,0.17,0.66c0.09,0.19,0.23,0.34,0.34,0.52c0.11,0.2,0.06,0.44,0.03,0.66
			c-0.09,0.55-0.18,1.1-0.28,1.64c-0.18,1.1-0.37,2.19-0.55,3.29c-0.17,1.03-0.41,2.07-0.48,3.12c-0.06,1.03,0.34,1.99,0.56,2.98
			c0.23,1.04,0.37,2.1,0.54,3.15c0.09,0.54,0.19,1.08,0.17,1.63c-0.02,0.49-0.17,0.96-0.37,1.4c-0.2,0.43-0.44,0.83-0.54,1.29
			c-0.1,0.45-0.12,0.91-0.17,1.37c-0.04,0.43-0.1,0.85-0.06,1.29c0.04,0.43,0.14,0.85,0.3,1.24c0.32,0.78,0.86,1.46,1.56,1.93
			c0.15,0.1,0.32,0.18,0.46,0.28c0.13,0.09,0.14,0.11,0.12,0.28s0.11,0.31,0.26,0.37c0.06,0.38,0.12,0.75,0.18,1.13
			c0.03,0.62,0.09,1.24,0.17,1.86c0.04,0.32,0.16,0.59,0.32,0.8c0.02,0.08,0.05,0.16,0.1,0.22c0.07,0.1,0.17,0.17,0.27,0.23
			c0.33,0.19,0.65,0.22,0.98,0.19c0.09,0.01,0.19,0.01,0.29,0.01c0.74-0.03,1.45-0.33,2.15-0.58c0.08-0.03,0.16-0.05,0.25-0.08
			c0.81-0.25,1.64-0.5,2.48-0.68c0.04-0.01,0.07-0.02,0.11-0.02c0.37-0.08,0.75-0.14,1.12-0.19c0.06-0.01,0.13-0.02,0.2-0.03
			c0.41-0.05,0.82-0.08,1.23-0.08c0.31-0.05,0.63-0.09,0.94-0.11c0.63-0.02,1.28-0.02,1.94,0c0.43,0.01,0.86,0.02,1.29,0.03
			c0.88,0.05,1.76,0.11,2.63,0.11c0.87,0.03,1.75,0.06,2.63,0.05c1.23,0,2.47-0.09,3.69-0.22c0.42-0.03,0.84-0.07,1.25-0.12
			c0.07,0,0.15,0,0.22,0c1.5-0.06,2.88-0.49,4.29-0.87c0.05-0.01,0.1-0.02,0.15-0.03c1.31-0.26,2.64-0.47,3.96-0.67
			c0.94-0.01,2.05-0.04,2.59-0.28c0.64-0.05,1.28-0.09,1.92-0.11c0.73-0.03,1.46-0.02,2.19-0.02c1.86,0.04,3.73,0.18,5.56,0.35
			c2.89,0.28,5.77,0.72,8.61,1.33c0.77,0.17,1.54,0.35,2.3,0.54c0.63,0.16,1.25,0.31,1.88,0.48c1.11,0.32,2.27,0.67,3.39,0.39
			c0.94-0.24,1.46-0.9,1.77-1.73c0.01-0.02,0.02-0.05,0.03-0.07c0.02-0.05,0.04-0.09,0.06-0.14c0.02-0.06,0.02-0.12,0.04-0.17
			c0.21-0.57,0.34-1.17,0.38-1.74c0.03-0.42-0.04-0.9-0.04-1.36c0-0.03,0-0.05,0-0.08c0.02-0.05,0.05-0.09,0.07-0.13
			c0.04-0.01,0.07-0.02,0.11-0.04c1.25-0.74,1.52-2.23,1.59-3.56c0.04-0.77,0.1-1.52,0.24-2.28c0.14-0.79,0.33-1.56,0.51-2.34
			c0.71-3.1,0.93-6.27,1.1-9.43c0.04-0.77-0.02-1.49-0.21-2.24c-0.18-0.71-0.13-1.38,0.02-2.09c0.15-0.72,0.35-1.43,0.41-2.17
			c0.06-0.76,0.01-1.51,0.06-2.27c0.04-0.66,0.21-1.27,0.53-1.85c0.29-0.53,0.64-1.02,0.91-1.56c0.27-0.52,0.49-1.1,0.47-1.7
			c-0.01-0.31-0.08-0.61-0.19-0.89c-0.13-0.33-0.32-0.65-0.36-1.01c-0.08-0.64,0.39-1.19,0.77-1.65c0.42-0.51,0.81-0.99,1.06-1.61
			c0.36-0.88,0.53-1.88,0.5-2.86c0.8,0.7,1.57,1.43,2.05,2.38c-0.62,0.77-1.07,1.68-1.23,2.66c-0.09,0.52-0.12,1.05,0.3,1.45
			c0.16,0.16,0.38,0.26,0.51,0.46c0.12,0.2,0.14,0.43,0.13,0.66c-0.02,0.54-0.21,1.09-0.35,1.61c-0.16,0.62-0.33,1.24-0.52,1.85
			c-0.37,1.19-0.92,2.32-1.19,3.54c-0.5,2.25,0.01,4.54,0.62,6.71c0.65,2.27,1.37,4.49,1.35,6.88c-0.01,1.32-0.25,2.61-0.38,3.92
			c-0.12,1.25-0.06,2.51-0.08,3.77c-0.01,0.6-0.03,1.2-0.15,1.78c-0.12,0.61-0.35,1.14-0.67,1.67c-0.55,0.94-1.17,2.07-0.62,3.15
			c0.23,0.47,0.65,0.83,1.04,1.16c0.36,0.3,0.73,0.6,1.1,0.88c0.73,0.55,1.5,1.06,2.28,1.53c1.59,0.97,3.25,1.81,4.95,2.57
			c2.17,0.98,4.41,1.93,6.7,2.62c0.02,0.01,0.05,0.02,0.07,0.02c0.55,0.35,1.29,0.37,1.83,0c0.27-0.18,0.43-0.44,0.52-0.75
			c0.17-0.6,0.26-1.24,0.39-1.84c0.24-1.16,0.49-2.32,0.73-3.48c0.1-0.45,0.23-0.93,0.19-1.4c-0.04-0.53-0.37-0.95-0.27-1.5
			c0.09-0.51,0.35-0.98,0.54-1.45c0.22-0.53,0.35-1.08,0.42-1.65c0.15-1.13,0.12-2.27,0.25-3.4c0.15-1.24,0.33-2.51,0.65-3.72
			c0.29-1.1,0.91-2.05,1.35-3.09c0.92-2.17,1.45-4.53,2.11-6.79s1.52-4.47,2.07-6.76c0.29-1.22,0.58-2.43,0.87-3.65
			c0.25-1.06,0.57-2.13,0.61-3.23C143.81,89.24,143.77,88.72,143.62,88.24z"/>
		<g>
			<path class="st1" d="M114.45,28.65c-0.01-0.19,0.01-0.38,0.02-0.58c0.02-0.35-0.02-0.73-0.28-0.96
				c-0.17-0.15-0.41-0.21-0.64-0.25c-0.96-0.2-1.92-0.39-2.88-0.59c-0.44-0.09-0.91-0.19-1.26-0.48c-0.38-0.31-0.57-0.79-0.75-1.25
				c-0.11-0.28-0.21-0.55-0.32-0.83c-0.16-0.41-0.32-0.84-0.63-1.16c-0.49-0.53-1.24-0.39-1.71-0.89c-0.11-0.12-0.19-0.26-0.29-0.39
				c-0.49-0.66-1.43-0.9-2.1-1.34c-0.39-0.25-0.76-0.53-1.17-0.74c-0.5-0.26-1.04-0.42-1.59-0.55c-0.84-0.2-1.69-0.32-2.55-0.36
				c-0.81-0.04-1.61,0.25-2.42,0.34c-1.73,0.19-3.47,0.14-5.2,0.24c-1.76,0.11-3.5,0.39-5.22,0.75c-2.76,0.58-5.49,1.36-8.12,2.41
				c-2.53,1.01-4.97,2.4-7.64,3.04c-0.83,0.2-1.72,0.29-2.45,0.74c-0.16,0.1-0.32,0.22-0.37,0.4s0.02,0.38-0.01,0.56
				c-0.04,0.34-0.37,0.57-0.67,0.74c-0.44,0.26-0.89,0.52-1.22,0.92c-0.33,0.39-0.52,0.95-0.33,1.42c0.04,0.1,0.09,0.2,0.05,0.3
				c-0.02,0.05-0.07,0.09-0.11,0.11c-0.32,0.21-0.77,0.2-1.06,0.46c-0.2,0.18-0.29,0.48-0.52,0.63c-0.33,0.22-0.78,0.05-1.17,0.08
				c-0.47,0.04-0.92,0.48-0.97,0.95c-0.02,0.24,0.1,0.38,0.17,0.6c0.07,0.23,0.1,0.48,0.14,0.71c-0.83,0.37-1.66,0.74-2.48,1.11
				c-0.67,0.3-1.33,0.59-2,0.89c-0.5,0.22-0.99,0.38-1.35,0.8c-0.36,0.43-0.93,0.72-1.47,0.87c-0.36,0.1-0.75,0.14-1.06,0.34
				c-0.24,0.15-0.42,0.38-0.59,0.61c-0.28,0.37-0.56,0.74-0.85,1.11c-0.25,0.32-0.5,0.66-0.58,1.06c-0.09,0.48,0.07,0.99-0.08,1.45
				c-0.2,0.62-0.88,0.93-1.45,1.26c-0.94,0.55-1.73,1.35-2.27,2.3c-0.26,0.45-0.51,0.96-0.63,1.47c-0.14,0.63-0.15,1.29-0.23,1.93
				c-0.25,1.92-1.16,3.68-2.07,5.39c-0.46,0.88-0.93,1.76-1.39,2.63c-0.18,0.34-0.38,0.71-0.74,0.87c-0.08,0.04-0.17,0.06-0.23,0.13
				c-0.06,0.06-0.08,0.14-0.11,0.22c-0.19,0.62-0.32,1.25-0.37,1.9c-0.02,0.23-0.03,0.46-0.16,0.65c-0.2,0.31-0.62,0.41-0.84,0.71
				c-0.16,0.23-0.18,0.55-0.39,0.74c-0.18,0.16-0.45,0.17-0.67,0.08s-0.4-0.26-0.55-0.44c-0.78-0.89-1.28-2.12-2.36-2.59
				c-0.32-0.14-0.67-0.2-1.01-0.31c-1.26-0.42-1.94-1.58-2.76-2.53c-0.85-0.98-1.81-1.89-2.94-2.55c-0.49-0.29-1.02-0.52-1.47-0.87
				c-0.43-0.34-0.78-0.77-1.12-1.19c-0.28-0.34-0.51-0.76-0.87-1.02c-0.18-0.13-0.39-0.21-0.59-0.28c-1.13-0.43-2.31-0.95-2.97-1.96
				c-0.18-0.28-0.32-0.58-0.47-0.88c-0.25-0.49-0.55-0.96-0.89-1.4c-0.26-0.34-0.56-0.67-0.96-0.82c-0.65-0.24-1.47-0.3-2.15-0.22
				c-0.24,0.03-0.48,0.1-0.71,0.17c-1.73,0.54-3.47,1.11-5.06,1.98c-1.34,0.73-2.56,1.67-3.61,2.77c-0.93,0.98-2.31,2.33-1.95,3.81
				c0.18,0.76,0.7,1.4,1.26,1.95c0.35,0.33,0.72,0.64,1.08,0.97c0.3,0.28,0.51,0.63,0.77,0.94c0.64,0.77,1.27,1.55,1.88,2.34
				c1.22,1.56,2.39,3.16,3.51,4.8c0.31,0.45,0.61,0.9,0.76,1.42c0.14,0.48,0.15,0.99,0.35,1.44c0.24,0.55,0.73,0.94,1.17,1.36
				c1.37,1.31,2.27,2.98,3.07,4.67c0.87,1.84,1.84,3.65,3.15,5.22c0.33,0.4,0.68,0.78,1.03,1.17c0.95,1.05,1.89,2.1,2.32,3.43
				c0.15,0.46,0.23,0.94,0.43,1.38c0.23,0.52,0.61,0.95,0.94,1.41c0.64,0.88,1.03,1.9,1.66,2.78s1.39,1.67,2.26,2.33
				c0.46,0.35,0.96,0.67,1.45,0.98c2.12,1.33,4.39,2.62,6.89,2.85c0.39,0.04,0.77,0,1.14-0.14c0.06-0.02,0.88-0.4,0.85-0.24
				c-0.08,0.34-0.12,0.62,0.08,0.93c0.13,0.2,0.3,0.38,0.39,0.6c0.13,0.31,0.08,0.66,0.04,0.99c-0.15,1.14-0.38,2.22-0.65,3.33
				c-0.24,0.96-0.31,1.95-0.4,2.93c-0.08,0.88-0.19,1.85-0.06,2.73c0.06,0.43,0.2,0.84,0.32,1.25c0.31,1.06,0.48,2.14,0.69,3.23
				c0.2,1.03,0.29,2.09-0.01,3.12c-0.16,0.56-0.48,1.02-0.7,1.55c-0.22,0.52-0.24,1.16-0.19,1.71c0.09,1.17,0.22,2.73,1.27,3.47
				c0.4,0.28,0.91,0.47,1.12,0.91c0.08,0.17,0.1,0.37,0.12,0.56c0.13,1.28,0.24,2.57,0.4,3.85c0.02,0.17,0.05,0.35,0.15,0.49
				c0.07,0.1,0.17,0.17,0.27,0.23c0.65,0.38,1.29,0.13,1.98-0.04c0.75-0.18,1.49-0.41,2.22-0.65c1.48-0.48,2.97-0.99,4.53-1.11
				c1.26-0.1,2.53,0.07,3.8,0.13c2.82,0.14,5.64-0.22,8.46-0.14c0.81,0.02,1.62,0.09,2.42,0.06c2.16-0.08,4.08-0.96,6.18-1.3
				c0.66-0.11,1.33-0.2,1.99-0.29c1.58-0.2,3.16-0.32,4.75-0.38c4.45-0.16,8.95,0.13,13.32,1c3.05,0.61,6.06,1.41,9.1,2.08
				c1.53,0.34,2.83-0.48,3.37-1.94c0.39-1.05-0.18-2.24,0.32-3.23c0.19-0.38,0.39-0.76,0.62-1.12c0.14-0.22,0.37-0.38,0.5-0.6
				c0.37-0.63,0.24-1.63,0.28-2.33c0.05-1,0.23-1.98,0.41-2.97c0.1-0.54,0.2-1.08,0.29-1.62c0.1-0.53,0.19-1.07,0.33-1.59
				c0.13-0.47,0.29-0.94,0.32-1.43c0.03-0.42-0.05-0.82-0.03-1.24c0.07-1.18,0.37-2.33,0.57-3.49c0.09-0.51,0.2-0.95,0.11-1.46
				c-0.11-0.6-0.21-1.21-0.32-1.81c-0.09-0.49-0.17-0.98-0.17-1.48c0.01-1.19,0.52-2.33,0.6-3.52c0.04-0.6-0.03-1.2,0.04-1.8
				c0.06-0.53,0.24-1.04,0.43-1.54c0.2-0.51,0.41-1.01,0.66-1.5c0.23-0.45,0.34-0.96,0.49-1.45c0.11-0.35,0.23-0.71,0.22-1.08
				c-0.02-0.72-0.5-1.41-0.37-2.12c0.07-0.35,0.28-0.66,0.48-0.95c0.28-0.42,0.56-0.84,0.84-1.26c0.48-0.74,0.95-1.53,1.07-2.41
				c0.08-0.58,0-1.16-0.08-1.74c0.26,0.41,0.75,0.59,1.12,0.9c0.43,0.36,0.69,0.9,1.12,1.27c0.11,0.09,0.23,0.18,0.31,0.29
				c0.15,0.22,0.15,0.52,0.06,0.77c-0.09,0.25-0.24,0.47-0.38,0.7c-0.33,0.56-0.54,1.19-0.61,1.84c-0.03,0.34-0.03,0.69,0.14,0.99
				c0.09,0.16,0.22,0.29,0.33,0.44c0.61,0.8,0.54,1.94,0.22,2.9c-0.3,0.87-0.75,1.68-1.08,2.54c-0.35,0.91-0.52,1.92-0.72,2.88
				c-0.16,0.79-0.31,1.6-0.22,2.4c0.07,0.55,0.25,1.08,0.39,1.62c0.31,1.14,0.48,2.31,0.71,3.47c0.22,1.1,0.6,2.15,0.85,3.24
				c0.12,0.51,0.19,1.03,0.25,1.56c0.06,0.51,0.1,1.02,0.06,1.53c-0.06,0.75-0.32,1.48-0.48,2.22c-0.14,0.66-0.23,1.41-0.14,2.08
				c0.03,0.22,0.13,0.4,0.17,0.61c0.06,0.31,0.05,0.65,0.06,0.97c0.05,1.3-0.04,2.64-0.5,3.87c-0.08,0.22-0.18,0.44-0.32,0.64
				c-0.1,0.15-0.23,0.28-0.34,0.43c-0.17,0.23-0.31,0.48-0.43,0.74c-0.13,0.28-0.25,0.58-0.3,0.89c-0.16,0.98,0.5,1.99,1.27,2.55
				c0.87,0.63,1.81,1.24,2.71,1.87c1.57,1.09,3.23,2.09,5.04,2.75c0.84,0.31,1.62,0.45,2.42,0.84c0.97,0.48,1.97,0.9,2.99,1.26
				c0.87,0.31,2.4,1.1,3.27,0.47c0.25-0.18,0.39-0.47,0.45-0.77c0.02-0.11,0.04-0.22,0.05-0.33c0.02-0.19,0.02-0.38,0.04-0.58
				c0.08-1.13,0.53-2.19,0.87-3.27c0.13-0.4,0.25-0.81,0.24-1.23c-0.01-0.28-0.07-0.56-0.13-0.84c-0.09-0.4-0.29-0.88-0.26-1.29
				c0.02-0.3,0.22-0.59,0.34-0.85c0.36-0.78,0.5-1.56,0.6-2.41c0.14-1.28,0.28-2.55,0.42-3.83c0.08-0.72,0.16-1.44,0.32-2.15
				c0.22-0.97,0.6-1.9,1-2.82c0.39-0.89,0.81-1.76,1.11-2.69c0.45-1.38,0.76-2.79,1.26-4.16c0.38-1.04,0.49-2.11,0.74-3.17
				s0.76-2.11,1.09-3.15c0.32-1.01,0.74-2.07,0.86-3.13c0.07-0.67,0.06-1.33,0.29-1.97c0.24-0.67,0.57-1.3,0.74-1.99
				c0.25-1.04,0.13-2.13-0.07-3.18s-0.47-2.1-0.5-3.17c-0.01-0.39-0.26-0.66-0.43-0.99c-0.21-0.4-0.44-0.79-0.63-1.2
				c-0.25-0.54-0.52-1.06-0.82-1.57c-0.11-0.19-0.22-0.38-0.3-0.58c-0.22-0.56-0.36-1.31-0.37-1.91c-0.01-0.53-0.09-1.04-0.2-1.55
				c-0.22-0.99-0.56-1.94-0.74-2.94c-0.14-0.8-0.07-1.58-0.07-2.38c0-0.91,0.1-1.81,0.14-2.71c0.02-0.52,0.04-1.05-0.1-1.55
				c-0.1-0.35-0.28-0.68-0.45-1c-1.06-1.89-2.24-3.71-3.54-5.44c-0.75-0.99-1.18-2.19-1.93-3.2c-0.29-0.4-0.62-0.81-0.67-1.29
				c-0.03-0.3,0.04-0.59,0.08-0.89c0.14-1.09-0.12-2.19-0.55-3.2c-0.48-1.15-1.12-2.26-1.8-3.3c-0.63-0.96-0.9-2.11-0.99-3.24
				c-0.11-1.3,0-2.62-0.01-3.92c-0.01-0.42-0.03-0.85-0.18-1.24c-0.22-0.55-0.68-0.97-0.94-1.51c-0.27-0.55-0.35-1.27-0.88-1.58
				c-0.54-0.31-1.24-0.15-1.74-0.47c-0.27-0.17-0.4-0.49-0.45-0.8c-0.06-0.31-0.05-0.63-0.12-0.94c-0.16-0.73-0.72-1.31-1.26-1.83
				c-0.65-0.62-1.31-1.32-2.04-1.83c-0.7-0.49-1.48-0.86-2.28-1.16c-1.29-0.49-2.65-0.8-3.97-1.2c-0.27-0.08-0.54-0.17-0.73-0.38
				C114.52,29.07,114.46,28.87,114.45,28.65z"/>
			<path class="st2" d="M134.08,127.47c-0.28-0.93-1.07-1.55-1.85-2.06c-1.13-0.73-2.3-1.4-3.5-2.01c-0.97-0.91-2.12-1.63-3.34-2.11
				c-1.18-0.47-2.38-0.89-3.59-1.27c-0.77-0.24-1.54-0.43-2.33-0.51c-0.75-0.07-1.43-0.06-2.09,0.32c-0.4,0.23-0.76,0.55-1.02,0.93
				c-0.25,0.36-0.37,0.85-0.46,1.28c-0.04,0.04-0.07,0.08-0.08,0.14c-0.13,0.51-0.07,1.02,0.1,1.51c0,0.02,0.01,0.03,0.02,0.05
				c0.01,0.03,0.02,0.07,0.04,0.1c0.07,0.17,0.18,0.13,0.3,0.21c0.11,0.07,0.15,0.15,0.24,0.27c0.15,0.18,0.35,0.28,0.58,0.31
				c0.38,0.05,0.73-0.19,1.04-0.43c1.27-0.97,2.67-0.53,4.05-0.05c1.47,0.51,2.91,1.09,4.32,1.74c0.42,0.19,0.85,0.39,1.27,0.6
				c0.28,0.19,0.55,0.39,0.82,0.59c0.39,0.3,0.77,0.61,1.16,0.92c0.37,0.31,0.74,0.63,1.1,0.96c0.43,0.56,0.73,1.19,0.78,1.94
				c0.03,0.41-0.03,0.82,0.29,1.13c0.27,0.26,0.67,0.29,1,0.14c0.79-0.34,0.88-1.5,0.88-2.3
				C134.18,129.15,134.3,128.19,134.08,127.47z"/>
			<path class="st2" d="M21.49,47.28c-0.08-0.47-0.36-0.86-0.69-1.19c-0.35-0.35-0.7-0.55-1.15-0.77c-0.08-0.04-0.16-0.05-0.24-0.04
				c-0.01-0.01-0.01-0.01-0.02-0.02c-0.2-0.19-0.6-0.03-0.51,0.3c0.1,0.38,0.18,0.75,0.18,1.14c0,0.07,0.01,0.14,0.04,0.2
				c-0.19,0.59-0.41,1.21-0.72,1.74c-0.33,0.57-0.81,1.04-1.27,1.52c-0.45,0.47-0.89,0.95-1.41,1.34c-0.54,0.41-1.15,0.72-1.74,1.05
				c-0.13,0.07-0.21,0.18-0.26,0.29c-0.78,0.17-1.53,0.4-2.31,0.61c-0.29,0.08-0.7,0.25-0.97,0.04c-0.14-0.11-0.23-0.27-0.32-0.43
				c-0.24-0.41-0.54-0.77-0.9-1.08c-0.23-0.2-0.48-0.38-0.77-0.47s-0.62-0.09-0.88,0.07c-0.57,0.34-0.92,1.33-0.94,1.96
				c-0.01,0.41,0.19,0.93,0.53,1.22c0.02,0.08,0.05,0.15,0.11,0.22c0.42,0.48,0.86,0.91,1.35,1.29c0.06,0.25,0.25,0.48,0.55,0.48
				c0.06,0,0.11,0,0.16-0.01c0.18,0.1,0.38,0.17,0.59,0.15c0.08-0.01,0.15-0.03,0.22-0.05c0.16,0.11,0.34,0.2,0.51,0.24
				c0.79,0.18,1.66-0.3,2.34-0.63c0.79-0.38,1.54-0.82,2.32-1.22c0.78-0.39,1.66-0.62,2.38-1.12c0.16-0.11,0.26-0.29,0.3-0.48
				c1.35-0.72,2.24-2.17,2.77-3.58c0.04-0.1,0.03-0.2-0.01-0.28c0.15-0.33,0.31-0.65,0.45-0.98C21.39,48.31,21.57,47.8,21.49,47.28z
				"/>
			<path class="st3" d="M82.32,36.24c0.17-0.33,0.32-0.67,0.45-1.02c-0.13-0.09-0.31-0.07-0.47-0.06c-0.44,0.01-0.89-0.18-1.18-0.51
				c-0.12-0.14-0.22-0.3-0.24-0.48c-0.03-0.25,0.09-0.5,0.07-0.75c-0.8,0.09-1.6,0.13-2.4,0.21c-0.81,0.07-1.61,0.18-2.42,0.24
				c-0.38,0.03-0.82-0.02-1.17,0.14c-0.32,0.15-0.41,0.61-0.1,0.84c0.08,0.06,0.19,0.11,0.21,0.22c0.03,0.11-0.07,0.21-0.15,0.29
				c-0.38,0.33-0.8,0.61-1.25,0.82c-0.05,0.02-0.1,0.05-0.12,0.1c-0.02,0.05,0,0.11,0.01,0.16c0.14,0.37,0.36,0.71,0.58,1.04
				c0.28,0.42,0.57,0.84,0.86,1.25c0.41,0.57,0.83,1.14,1.32,1.65c0.44,0.45,0.94,0.91,1.62,0.82c0.26-0.04,0.51-0.15,0.74-0.26
				c0.23-0.11,0.46-0.22,0.66-0.38c0.53-0.4,0.82-1.03,1.24-1.55c0.21-0.27,0.46-0.51,0.65-0.79c0.21-0.3,0.34-0.65,0.52-0.97
				C81.92,36.87,82.15,36.58,82.32,36.24z"/>
			<path class="st3" d="M72.78,45.91c0-0.42-0.32-0.84-0.55-1.2c0.01-0.03,0.03-0.06,0.03-0.1c0.01-0.41-0.07-0.82-0.24-1.19
				c-0.02-0.07-0.06-0.13-0.09-0.19c-0.02-0.04-0.06-0.06-0.09-0.08c-0.14-0.59-0.31-1.17-0.45-1.75c-0.02-0.08-0.04-0.16-0.06-0.24
				c0.01-0.04,0.01-0.09,0-0.14c-0.12-0.6-0.18-1.17-0.18-1.76c0-0.11,0-0.22,0.01-0.33c0.1-0.01,0.19-0.07,0.24-0.2
				c0.16-0.42,0.2-0.92,0.19-1.36c-0.01-0.23-0.03-0.46-0.07-0.69c-0.01-0.03-0.01-0.07-0.02-0.11c-0.02-0.19-0.04-0.39-0.07-0.58
				c-0.03-0.19-0.27-0.22-0.4-0.12c-0.02-0.04-0.04-0.08-0.06-0.11c-0.13-0.24-0.53-0.09-0.46,0.17c0,0.01,0,0.02,0,0.03
				c0.03,0.32,0.22,0.63,0.31,0.94c0.02,0.07,0.06,0.1,0.11,0.13c-0.24,1.04-0.67,2.21-0.36,3.25c0.01,0.03,0.02,0.05,0.04,0.07
				c0.09,0.58,0.2,1.17,0.34,1.74c0,0.28,0.02,0.56,0.08,0.84c0.06,0.29,0.15,0.7,0.36,0.92c0.07,0.08,0.16,0.12,0.26,0.14
				c0.02,0.1,0.04,0.2,0.04,0.3c-0.25,0.09-0.42,0.37-0.48,0.67c-0.09,0.46-0.4,1.25,0.14,1.53c0.25,0.13,0.65,0.15,0.95,0.01
				C72.55,46.47,72.78,46.24,72.78,45.91z"/>
			<path class="st3" d="M88.32,34.77c-0.16,0.11-0.32,0.21-0.48,0.31c-0.22,0.12-0.43,0.23-0.63,0.39
				c-0.03,0.03-0.06,0.06-0.08,0.09c-0.33,0.21-0.66,0.41-1,0.59c-0.29,0.15-0.52,0.33-0.65,0.64c-0.16,0.38-0.12,0.79-0.2,1.18
				c-0.01,0.04-0.01,0.07,0,0.1c-0.23,0.61-0.22,1.32-0.24,1.96c-0.03,0.83-0.13,1.64-0.26,2.46v0.01c-0.12,0.46-0.29,0.9-0.51,1.34
				c0,0.01,0,0.02-0.01,0.03c-0.36,0.5-0.91,1.16-0.8,1.79c0,0.01,0.01,0.02,0.02,0.03c-0.03,0.3,0.08,0.63,0.17,0.92
				c0.15,0.49,0.33,0.98,0.55,1.44c0.01,0.12,0.03,0.25,0.03,0.37c-0.02,0.16-0.03,0.31-0.02,0.47c-0.05,0.41-0.19,0.78-0.48,1.14
				c-0.25,0.31-0.65,0.65-0.65,1.08c0,0.42,0.65,0.58,0.98,0.46c0.15-0.06,0.24-0.18,0.29-0.33c0.05-0.04,0.09-0.09,0.11-0.17
				c0.08-0.35,0.06-0.67-0.05-1.01c-0.01-0.02-0.03-0.03-0.04-0.05c0.13-0.24,0.23-0.5,0.3-0.77c0.06-0.03,0.1-0.09,0.12-0.18
				c0.19-0.86-0.07-1.83-0.4-2.63c-0.02-0.06-0.07-0.1-0.11-0.13c-0.1-0.64,0-1.29,0.27-1.88l0,0c0.01-0.02,0.02-0.04,0.03-0.06
				s0.01-0.03,0.01-0.05c0.09-0.01,0.17-0.05,0.23-0.16c0.52-1.02,0.89-2.21,0.82-3.36c0-0.03-0.01-0.05-0.02-0.08
				c0.01-0.08,0.01-0.15,0.01-0.23c0.01-0.02,0.02-0.03,0.02-0.05c0-0.03,0.01-0.05,0.01-0.08l0,0c0-0.01,0-0.01,0-0.02
				c0.06-0.43,0.11-0.87,0.16-1.31c0.05-0.42,0.07-0.88,0.24-1.28c0.28-0.45,0.61-0.87,0.99-1.25c0.29-0.26,0.59-0.51,0.86-0.74
				c0.05-0.04,0.07-0.1,0.08-0.16c0.19-0.14,0.38-0.28,0.57-0.41C88.85,35.02,88.61,34.58,88.32,34.77z"/>
			<g>
				<path d="M41.42,59.31c-0.02,0.66,0.04,1.33,0.13,1.98c0.07,0.54,0.06,1.19,0.36,1.66c0.11,0.18,0.28,0.34,0.48,0.43
					c0.24,0.1,0.49,0.05,0.74-0.02c0.63-0.18,1.24-0.16,1.81,0.17c0.11,0.06,0.21-0.11,0.1-0.17c-0.44-0.25-0.95-0.37-1.45-0.31
					c-0.25,0.03-0.48,0.13-0.73,0.17c-0.33,0.06-0.6-0.09-0.78-0.37c-0.15-0.24-0.2-0.52-0.23-0.79c-0.04-0.31-0.08-0.62-0.12-0.93
					c-0.07-0.61-0.13-1.21-0.11-1.83C41.63,59.18,41.43,59.18,41.42,59.31L41.42,59.31z"/>
			</g>
			<g>
				<path d="M61.18,33.31c-1.16,0.52-2.34,1.01-3.5,1.56c-1.01,0.48-1.96,1.08-2.94,1.61c-0.5,0.27-1,0.52-1.53,0.71
					c-0.24,0.09-0.51,0.15-0.72,0.3c-0.24,0.17-0.35,0.4-0.47,0.66c-0.36,0.78-1.26,1.14-1.56,1.97c-0.18,0.51,0.03,0.97,0.05,1.48
					c0.02,0.44-0.36,0.63-0.71,0.79c-0.44,0.2-0.87,0.38-1.27,0.67c-0.42,0.31-0.78,0.68-1.11,1.08c-0.32,0.4-0.62,0.82-0.9,1.25
					c-0.15,0.22-0.31,0.44-0.39,0.7c-0.1,0.31,0.01,0.57,0.03,0.88c0.02,0.27-0.04,0.56-0.09,0.82c-0.05,0.3-0.11,0.6-0.17,0.9
					c-0.12,0.57-0.28,1.13-0.45,1.69c-0.41,1.28-0.98,2.47-1.62,3.64c-0.69,1.27-1.39,2.54-2.09,3.81c0.18-0.05,0.37-0.1,0.55-0.14
					c-0.03-0.02-0.07-0.06-0.09-0.1c-0.14-0.33-0.52-0.4-0.74-0.1c-0.34,0.48-0.3,1.02-0.42,1.56c-0.06,0.26-0.11,0.51-0.11,0.78
					c0,0.28,0,0.51-0.17,0.74c-0.14,0.19-0.3,0.28-0.51,0.36c-0.33,0.12-0.41,0.37-0.52,0.68c-0.03,0.1-0.1,0.49-0.24,0.5
					c-0.11,0.01-0.28-0.22-0.36-0.31c-0.27-0.32-0.49-0.68-0.76-1.01c-0.41-0.5-0.81-1-1.23-1.49c-0.16-0.19-0.33-0.36-0.56-0.47
					c-0.27-0.13-0.56-0.14-0.85-0.19c-0.5-0.09-0.92-0.35-1.29-0.69c-0.81-0.74-1.48-1.63-2.24-2.42c-0.78-0.81-1.63-1.57-2.6-2.16
					c-0.44-0.27-0.91-0.5-1.34-0.81c-0.44-0.31-0.71-0.73-1.02-1.16c-0.33-0.46-0.71-0.82-1.21-1.08c-0.48-0.25-0.99-0.43-1.46-0.69
					c-1.06-0.61-1.88-1.49-2.48-2.54c-0.29-0.51-0.58-1.05-0.99-1.49c-0.19-0.21-0.42-0.4-0.68-0.49c-0.3-0.11-0.67-0.1-0.98-0.11
					c-0.52-0.01-0.52,0.79,0,0.81c0.23,0,0.5-0.02,0.72,0.06c0.18,0.07,0.33,0.24,0.45,0.39c0.29,0.35,0.51,0.76,0.74,1.16
					c0.48,0.85,1.07,1.61,1.82,2.22c0.38,0.3,0.77,0.58,1.2,0.8c0.43,0.23,0.89,0.38,1.31,0.62c0.42,0.23,0.7,0.53,0.97,0.92
					c0.27,0.39,0.54,0.77,0.92,1.07c0.77,0.62,1.69,1,2.47,1.6c0.77,0.6,1.46,1.3,2.12,2.02c0.65,0.71,1.24,1.51,2.01,2.11
					c0.36,0.28,0.77,0.51,1.22,0.62c0.21,0.05,0.43,0.05,0.64,0.1c0.24,0.05,0.37,0.19,0.53,0.37c0.42,0.49,0.82,0.99,1.23,1.49
					c0.25,0.3,0.48,0.69,0.76,1.01c0.28,0.33,0.68,0.63,1.14,0.52c0.28-0.07,0.49-0.27,0.61-0.53c0.11-0.24,0.14-0.57,0.29-0.78
					c-0.05,0.05-0.1,0.1-0.14,0.14c0.14-0.1,0.33-0.13,0.47-0.22c0.16-0.1,0.29-0.23,0.41-0.38c0.25-0.32,0.38-0.68,0.39-1.09
					c0-0.17-0.02-0.35,0.02-0.52c0.04-0.2,0.09-0.39,0.12-0.6c0.05-0.37,0.06-0.71,0.28-1.02c-0.25-0.03-0.49-0.06-0.74-0.1
					c0.1,0.25,0.24,0.42,0.46,0.58c0.18,0.12,0.45,0.03,0.55-0.14c0.61-1.12,1.22-2.23,1.84-3.35c0.58-1.06,1.15-2.13,1.59-3.25
					c0.42-1.09,0.74-2.22,0.95-3.36c0.1-0.58,0.21-1.14,0.1-1.72c-0.05-0.26,0.08-0.42,0.22-0.63c0.15-0.22,0.29-0.44,0.45-0.66
					c0.56-0.8,1.22-1.55,2.13-1.96c0.41-0.19,0.84-0.33,1.18-0.65c0.39-0.37,0.48-0.85,0.4-1.37c-0.07-0.44-0.19-0.81,0.1-1.2
					c0.25-0.32,0.58-0.57,0.86-0.87c0.14-0.15,0.27-0.31,0.38-0.49s0.15-0.47,0.34-0.59c0.2-0.13,0.49-0.18,0.71-0.27
					c0.28-0.11,0.55-0.23,0.82-0.36c1.13-0.54,2.17-1.24,3.29-1.8c1.24-0.62,2.54-1.14,3.81-1.71c0.2-0.09,0.25-0.38,0.14-0.55
					C61.61,33.25,61.37,33.22,61.18,33.31L61.18,33.31z"/>
			</g>
			<g>
				<path d="M42.77,94.52c-1.37,0.57-2.83,0.41-4.19-0.12c-0.69-0.27-1.35-0.64-2.01-0.98c-0.66-0.34-1.32-0.69-1.97-1.05
					c-1.14-0.64-2.27-1.33-3.19-2.28c-0.94-0.97-1.39-2.23-2.17-3.31c-0.39-0.55-0.92-0.99-1.28-1.56c-0.37-0.59-0.4-1.31-0.61-1.96
					c-0.43-1.33-1.41-2.37-2.27-3.44c-1.81-2.27-3.41-4.71-4.78-7.28c-0.62-1.17-1.2-2.39-2.11-3.37c-0.41-0.44-0.96-0.76-1.35-1.22
					c-0.16-0.19-0.23-0.38-0.21-0.62c0.03-0.41,0.06-0.74-0.11-1.12c-0.13-0.3-0.33-0.55-0.51-0.82c-0.23-0.33-0.46-0.66-0.69-0.99
					c-0.46-0.66-0.92-1.32-1.37-1.98c-0.89-1.28-1.78-2.58-2.68-3.85c-0.82-1.15-1.69-2.2-2.83-3.04c-0.5-0.37-1.06-0.75-1.35-1.31
					c-0.25-0.5-0.19-1.08,0.04-1.57c0.2-0.4,0.51-0.73,0.77-1.08c0.04-0.05,0.08-0.1,0.12-0.15c-0.05,0.06-0.03,0.03,0.02-0.02
					c0.03-0.04,0.07-0.08,0.1-0.12c0.14-0.17,0.29-0.34,0.44-0.51c2.34-2.59,5.57-4.29,9.02-4.89c0.59-0.1,1.18-0.17,1.78-0.21
					c0.51-0.03,0.52-0.84,0-0.81c-4.03,0.26-7.89,1.88-10.78,4.72c-0.37,0.36-0.71,0.74-1.04,1.14c-0.17,0.2-0.31,0.43-0.48,0.63
					c0,0-0.01,0.01-0.01,0.02c0.05-0.06-0.09,0.09-0.1,0.09c-0.21,0.26-0.4,0.54-0.55,0.86c-0.26,0.57-0.37,1.21-0.21,1.83
					c0.18,0.68,0.68,1.2,1.22,1.63c0.53,0.42,1.09,0.8,1.57,1.28c1.04,1.03,1.83,2.28,2.66,3.48c0.94,1.34,1.87,2.69,2.81,4.03
					c0.23,0.33,0.46,0.66,0.69,0.99c0.22,0.32,0.49,0.64,0.65,0.99c0.13,0.3,0.03,0.57,0.03,0.88c0,0.33,0.11,0.65,0.3,0.91
					c0.38,0.51,0.94,0.84,1.39,1.29c0.45,0.46,0.82,1,1.14,1.56c0.72,1.24,1.34,2.53,2.08,3.76c0.77,1.29,1.6,2.54,2.48,3.75
					c0.45,0.62,0.92,1.23,1.41,1.83c0.43,0.53,0.88,1.05,1.26,1.62c0.4,0.6,0.68,1.21,0.84,1.92c0.16,0.7,0.34,1.34,0.79,1.92
					c0.43,0.55,0.94,1.03,1.31,1.63c0.36,0.59,0.66,1.21,1.03,1.79c0.73,1.16,1.77,2.06,2.91,2.8c1.22,0.8,2.53,1.46,3.83,2.13
					c1.34,0.69,2.72,1.33,4.26,1.36c0.73,0.01,1.45-0.12,2.13-0.4c0.2-0.08,0.34-0.27,0.28-0.5C43.22,94.61,42.97,94.43,42.77,94.52
					L42.77,94.52z"/>
			</g>
			<g>
				<path d="M46.6,64.11c-0.77,4.31-1.53,8.62-1.9,12.99c-0.18,2.17-0.23,4.35-0.23,6.53c0,1.1,0,2.2,0,3.29c0,0.27,0,0.53,0,0.8
					c0,0.25,0.05,0.55-0.06,0.78c-0.16,0.34-0.52,0.58-0.71,0.9c-0.8,1.36-0.15,3-0.67,4.42c-0.14,0.37-0.42,0.63-0.54,1.01
					c-0.13,0.43-0.09,0.89,0.1,1.3c0.09,0.19,0.23,0.34,0.34,0.52c0.11,0.2,0.06,0.44,0.03,0.66c-0.09,0.55-0.18,1.1-0.28,1.64
					c-0.18,1.1-0.37,2.19-0.55,3.29c-0.17,1.03-0.41,2.07-0.48,3.12c-0.06,1.03,0.34,1.99,0.56,2.98c0.23,1.04,0.37,2.1,0.54,3.15
					c0.09,0.54,0.19,1.08,0.17,1.63c-0.02,0.49-0.17,0.96-0.37,1.4c-0.2,0.43-0.44,0.83-0.54,1.29c-0.1,0.45-0.12,0.91-0.17,1.37
					c-0.04,0.43-0.1,0.85-0.06,1.29c0.04,0.43,0.14,0.85,0.3,1.24c0.32,0.78,0.86,1.46,1.56,1.93c0.15,0.1,0.32,0.18,0.46,0.28
					c0.13,0.09,0.14,0.11,0.12,0.28c-0.03,0.22,0.21,0.4,0.4,0.4c0.24,0,0.37-0.19,0.4-0.4c0.11-0.86-0.91-1.12-1.41-1.6
					c-0.58-0.56-0.95-1.33-1.04-2.13c-0.05-0.44,0.02-0.85,0.06-1.29c0.04-0.43,0.06-0.87,0.17-1.29c0.12-0.46,0.39-0.86,0.57-1.3
					c0.19-0.47,0.32-0.97,0.34-1.48c0.02-0.55-0.08-1.09-0.16-1.63c-0.09-0.53-0.17-1.06-0.26-1.58c-0.17-1.02-0.38-2.01-0.64-3.01
					c-0.13-0.49-0.23-0.98-0.21-1.49c0.03-0.51,0.11-1.02,0.2-1.53c0.19-1.08,0.37-2.16,0.55-3.25c0.18-1.07,0.37-2.15,0.54-3.22
					c0.08-0.48,0.08-0.91-0.22-1.31c-0.26-0.35-0.42-0.76-0.22-1.19c0.08-0.16,0.22-0.29,0.3-0.45c0.09-0.17,0.17-0.35,0.22-0.54
					c0.11-0.35,0.15-0.72,0.18-1.08c0.05-0.75-0.03-1.52,0.11-2.26c0.06-0.33,0.17-0.66,0.37-0.93c0.25-0.34,0.6-0.59,0.72-1.02
					c0.14-0.49,0.06-1.08,0.06-1.59c0-0.55,0-1.1,0-1.65c0-2.18-0.02-4.36,0.11-6.53c0.25-4.34,0.96-8.63,1.71-12.91
					c0.1-0.54,0.19-1.08,0.29-1.62C47.46,63.82,46.69,63.6,46.6,64.11L46.6,64.11z"/>
			</g>
			<g>
				<path d="M131.48,132.47c0.55,0.39,1.33,0.41,1.89,0.03c0.27-0.18,0.43-0.44,0.52-0.75c0.17-0.6,0.26-1.24,0.39-1.84
					c0.24-1.16,0.49-2.32,0.73-3.48c0.1-0.45,0.23-0.93,0.19-1.4c-0.04-0.53-0.37-0.95-0.27-1.5c0.09-0.51,0.35-0.98,0.54-1.45
					c0.22-0.53,0.35-1.08,0.42-1.65c0.15-1.13,0.12-2.27,0.25-3.4c0.15-1.24,0.33-2.51,0.65-3.72c0.29-1.1,0.91-2.05,1.35-3.09
					c0.92-2.17,1.45-4.53,2.11-6.79s1.52-4.47,2.07-6.76c0.29-1.22,0.58-2.43,0.87-3.65c0.25-1.06,0.57-2.13,0.61-3.23
					c0.02-0.5-0.03-1.02-0.18-1.51c-0.18-0.57-0.43-1.03-0.44-1.65c-0.03-1.02-0.22-2.01-0.62-2.95c-0.38-0.87-0.99-1.55-1.45-2.36
					c-0.56-1-0.42-2.23-0.53-3.33c-0.11-1.13-0.46-2.19-0.71-3.29c-0.25-1.14-0.25-2.26-0.18-3.41c0.06-1.08,0.14-2.16-0.03-3.23
					s-0.66-2.02-1.27-2.91c-0.65-0.93-1.36-1.81-1.99-2.75c-0.64-0.94-1.24-1.91-1.83-2.88c-0.28-0.46-0.55-0.92-0.82-1.38
					c-0.3-0.5-0.78-1.09-0.78-1.7c0-0.5,0.19-0.98,0.2-1.49c0.01-0.47-0.06-0.94-0.19-1.38c-0.54-1.94-1.98-3.47-2.73-5.32
					c-0.43-1.04-0.67-2.16-0.71-3.29c-0.04-1.02,0.3-2.03,0.21-3.04c-0.04-0.45-0.18-0.86-0.4-1.26c-0.27-0.49-0.82-0.98-0.92-1.53
					c-0.07-0.37-0.01-0.68-0.24-1.02c-0.2-0.3-0.52-0.5-0.85-0.62c-0.33-0.13-0.68-0.16-1.03-0.21c-0.26-0.03-0.53-0.05-0.71-0.26
					c-0.18-0.22-0.13-0.53-0.14-0.8c-0.03-0.94-0.44-1.72-1.05-2.42c-1.26-1.46-2.93-2.46-4.7-3.18c-0.91-0.37-1.85-0.67-2.79-0.95
					c-0.45-0.13-0.9-0.25-1.35-0.39c-0.19-0.06-0.4-0.12-0.56-0.24c-0.31-0.22-0.2-0.47-0.12-0.78c0.2-0.86-0.28-1.51-1.09-1.79
					c-1.03-0.35-2.19-0.41-3.26-0.64c-0.47-0.1-0.89-0.25-1.14-0.69c-0.26-0.46-0.36-1-0.56-1.49c-0.2-0.47-0.98-0.27-0.78,0.21
					c0.32,0.78,0.45,1.77,1.18,2.3c0.78,0.56,1.94,0.6,2.85,0.77c0.49,0.09,1.02,0.14,1.48,0.31c0.22,0.08,0.49,0.24,0.55,0.49
					c0.06,0.23-0.1,0.52-0.13,0.75c-0.12,0.83,0.5,1.29,1.22,1.53c1.83,0.62,3.7,1.02,5.44,1.91c0.88,0.45,1.67,0.99,2.4,1.66
					c0.7,0.63,1.45,1.39,1.57,2.37c0.1,0.82-0.02,1.66,0.92,2c0.6,0.21,1.86,0.01,2.05,0.83c0.05,0.2,0,0.42,0.04,0.62
					c0.05,0.21,0.16,0.4,0.28,0.58c0.31,0.49,0.72,0.95,0.91,1.5c0.32,0.92-0.09,1.96-0.12,2.9c-0.07,2.09,0.59,4.09,1.64,5.87
					c0.96,1.63,2.29,3.36,1.92,5.36c-0.08,0.44-0.18,0.86-0.08,1.31c0.13,0.53,0.46,1,0.74,1.46c0.56,0.95,1.13,1.9,1.71,2.84
					c0.61,0.96,1.24,1.91,1.91,2.83c0.61,0.83,1.28,1.62,1.76,2.54c1.1,2.09,0.4,4.45,0.53,6.69c0.06,1.08,0.36,2.12,0.63,3.17
					c0.29,1.13,0.32,2.23,0.42,3.38c0.08,0.91,0.31,1.66,0.84,2.41c0.6,0.84,1.13,1.66,1.4,2.67c0.28,1.02,0.11,2.09,0.5,3.07
					c0.46,1.12,0.39,2.17,0.14,3.34c-0.25,1.13-0.54,2.25-0.8,3.38c-0.27,1.12-0.5,2.26-0.84,3.37c-0.33,1.08-0.75,2.13-1.08,3.21
					c-0.36,1.17-0.69,2.34-1.03,3.52c-0.65,2.23-1.24,4.43-2.27,6.51c-0.99,1.98-1.3,4.3-1.48,6.48c-0.09,1.15-0.03,2.34-0.35,3.46
					c-0.27,0.96-0.94,1.84-0.8,2.88c0.06,0.45,0.31,0.81,0.27,1.27c-0.05,0.59-0.23,1.18-0.35,1.76c-0.24,1.16-0.49,2.32-0.73,3.48
					c-0.08,0.38-0.07,1.03-0.43,1.26c-0.31,0.19-0.7,0.11-0.98-0.09C131.46,131.47,131.06,132.17,131.48,132.47L131.48,132.47z"/>
			</g>
			<g>
				<path d="M108.78,23.54c-0.27-0.63-0.58-1.39-1.2-1.75c-0.22-0.13-0.47-0.2-0.72-0.26c-0.2-0.05-0.4-0.07-0.6-0.14
					c-0.23-0.08-0.28-0.25-0.39-0.45c-0.23-0.4-0.6-0.69-1.01-0.87c-0.21-0.09-0.42-0.16-0.64-0.23c-0.22-0.06-0.46-0.11-0.64-0.26
					c-0.17-0.14-0.29-0.35-0.45-0.51c-0.17-0.17-0.38-0.31-0.6-0.42c-0.41-0.2-0.85-0.3-1.3-0.36c-0.56-0.08-1.12-0.12-1.69-0.14
					c-0.59-0.02-1.17-0.09-1.75-0.14s-1.16-0.09-1.74-0.1c-0.09,0-0.18-0.01-0.27-0.01c-0.04,0-0.26,0-0.08,0.01
					c-0.01,0-0.02,0-0.03,0c-0.17-0.02-0.35,0-0.52,0c-0.36,0-0.72,0.01-1.08,0.03c-2.91,0.12-5.81,0.51-8.66,1.12
					c-2.02,0.43-4.02,0.98-5.98,1.66c-1.06,0.37-2.1,0.77-3.12,1.21c-0.54,0.23-1.07,0.47-1.59,0.72c-0.46,0.22-0.99,0.3-1.47,0.48
					c-0.99,0.37-1.93,0.86-2.93,1.21c-0.99,0.35-2.02,0.56-2.95,1.06c-0.2,0.11-0.44,0.23-0.6,0.39c-0.24,0.23-0.21,0.46-0.13,0.75
					c0.08,0.28-0.49,0.49-0.69,0.6c-0.84,0.45-1.63,1.12-1.73,2.14c-0.05,0.47,0.09,0.91,0.39,1.27c0.13-0.22,0.26-0.45,0.39-0.67
					c-0.65-0.1-1.33,0.09-1.78,0.6c-0.2,0.23-0.28,0.46-0.62,0.45c-0.36-0.01-0.7-0.05-1.05,0.05c-0.61,0.17-0.96,0.64-0.99,1.26
					c-0.03,0.5,0.13,1.06,0.42,1.48c0.29,0.43,0.99,0.02,0.7-0.41c-0.2-0.3-0.33-0.68-0.31-1.05c0.02-0.44,0.38-0.56,0.78-0.56
					c0.27,0,0.54,0.06,0.81,0c0.27-0.05,0.48-0.22,0.65-0.43c0.3-0.37,0.65-0.69,1.17-0.62c0.4,0.06,0.66-0.35,0.39-0.67
					c-0.23-0.29-0.2-0.72-0.06-1.04c0.18-0.41,0.55-0.7,0.92-0.93c0.37-0.23,0.8-0.38,1.11-0.7c0.13-0.14,0.25-0.31,0.3-0.5
					c0.02-0.1,0.03-0.19,0.02-0.29c-0.01-0.08-0.02-0.13-0.04-0.2c-0.1-0.29-0.06,0.04-0.08,0.04c0.03,0.01,0.26-0.17,0.29-0.18
					c0.11-0.07,0.23-0.13,0.34-0.18c0.23-0.11,0.46-0.21,0.7-0.29c0.46-0.17,0.94-0.29,1.41-0.44c0.97-0.29,1.88-0.75,2.81-1.14
					c0.47-0.2,0.95-0.38,1.45-0.51c0.27-0.07,0.49-0.14,0.74-0.26s0.5-0.24,0.75-0.35c0.99-0.45,2.01-0.87,3.03-1.25
					c1.9-0.7,3.84-1.27,5.81-1.73c2.88-0.67,5.83-1.11,8.78-1.27c0.67-0.04,1.35-0.06,2.02-0.06c0.06,0,0.12,0,0.17,0
					c0.15,0,0.14,0,0.33,0c1.12,0.02,2.23,0.19,3.35,0.24c0.54,0.02,1.09,0.03,1.63,0.11c0.41,0.06,0.85,0.13,1.22,0.32
					c0.42,0.22,0.62,0.65,1,0.91c0.37,0.26,0.84,0.29,1.25,0.46c0.16,0.07,0.33,0.16,0.47,0.27c0.18,0.15,0.26,0.32,0.37,0.52
					c0.24,0.45,0.65,0.6,1.13,0.7c0.15,0.03,0.29,0.07,0.44,0.11c0.05,0.01,0.1,0.03,0.15,0.05c0.02,0.01,0.05,0.02,0.07,0.03
					c-0.06-0.03,0.02,0.01,0.04,0.02c0.18,0.1,0.29,0.2,0.41,0.39c0.23,0.34,0.4,0.73,0.56,1.1c0.09,0.2,0.38,0.25,0.55,0.14
					C108.84,23.97,108.87,23.74,108.78,23.54L108.78,23.54z"/>
			</g>
			<g>
				<path d="M86.48,29.59c2.39-1.2,4.91-2.21,7.51-2.83c1.32-0.31,2.65-0.53,3.98-0.77c0.31-0.06,0.63-0.09,0.93-0.18
					c0.29-0.08,0.56-0.23,0.83-0.36c0.53-0.27,1.1-0.44,1.59-0.8c0.93-0.68,1.49-1.93,0.83-3c-0.61-0.99-1.87-1.52-2.94-1.81
					c-0.61-0.17-1.25-0.26-1.88-0.3c-0.29-0.02-0.59-0.03-0.88-0.02c-0.05,0-0.12-0.01-0.18,0c-0.18,0.03,0.04,0.04-0.15-0.02
					c-0.28-0.08-0.07-0.01-0.11-0.01s-0.09,0-0.13,0c-0.95-0.01-1.9,0.11-2.84,0.23c-2.44,0.32-4.85,0.84-7.24,1.42
					c-4.17,1.02-8.29,2.28-12.36,3.65c-0.65,0.22-1.3,0.44-1.95,0.66c-0.49,0.17-0.28,0.95,0.21,0.78c3.07-1.06,6.16-2.06,9.28-2.97
					c2.26-0.65,4.54-1.26,6.83-1.77c1.54-0.34,3.09-0.65,4.65-0.89c0.15-0.02,0.29-0.04,0.44-0.06c0.04-0.01,0.19-0.03,0.15-0.02
					c-0.06,0.01,0.04-0.01,0.06-0.01c0.04,0,0.08-0.01,0.11-0.01c0.24-0.03,0.47-0.06,0.71-0.08c0.37-0.04,0.74-0.07,1.1-0.1
					c0.22-0.01,0.45-0.02,0.67-0.03c0.09,0,0.19,0.02,0.28,0h0.01c-0.07-0.02-0.14-0.04-0.2-0.05c0.33,0.16,0.77,0.08,1.12,0.09
					c0.37,0.01,0.75,0.04,1.12,0.09c0.76,0.12,1.5,0.32,2.19,0.67c0.55,0.28,1.22,0.69,1.37,1.34c0.16,0.67-0.35,1.3-0.88,1.64
					c-0.32,0.21-0.67,0.35-1.02,0.5c-0.32,0.13-0.62,0.33-0.95,0.44c-0.4,0.13-0.84,0.17-1.25,0.24s-0.82,0.14-1.24,0.22
					c-1.69,0.31-3.36,0.68-4.99,1.23c-1.79,0.6-3.53,1.34-5.21,2.19C85.61,29.13,86.02,29.82,86.48,29.59L86.48,29.59z"/>
			</g>
			<g>
				<path d="M68.93,30.88c1.19,0.82,2.4,1.6,3.6,2.4c0.54,0.36,1.08,0.84,1.73,0.97c0.67,0.14,1.38,0.03,2.06,0
					c0.73-0.04,1.46-0.07,2.19-0.11c0.59-0.03,1.19-0.07,1.78-0.18c0.52-0.1,1.04-0.29,1.47-0.6c0.5-0.36,0.76-0.85,1.07-1.38
					c0.38-0.64,1.04-0.9,1.65-1.25c0.68-0.39,1.34-0.8,2.04-1.18c0.46-0.25,0.05-0.94-0.41-0.7c-0.58,0.31-1.15,0.66-1.72,0.99
					c-0.54,0.32-1.14,0.58-1.64,0.97c-0.5,0.4-0.68,0.97-1.04,1.46c-0.3,0.4-0.75,0.64-1.21,0.78c-0.49,0.14-0.99,0.2-1.5,0.23
					c-0.69,0.04-1.39,0.07-2.09,0.11c-0.69,0.04-1.39,0.11-2.08,0.1c-0.25,0-0.51-0.04-0.74-0.16c-0.3-0.15-0.57-0.37-0.84-0.55
					c-1.3-0.88-2.63-1.73-3.92-2.61C68.91,29.89,68.51,30.59,68.93,30.88L68.93,30.88z"/>
			</g>
			<g>
				<path d="M117.6,125.06c1.7-2.15,4.63-0.72,6.62,0.16c2.22,0.98,4.34,2.23,6.11,3.89c0.24,0.23,0.54,0.47,0.71,0.76
					c0.17,0.29,0.1,0.65,0.11,0.97c0.02,0.43,0.13,0.84,0.12,1.28c0.17-0.13,0.34-0.26,0.51-0.39c-1.81-0.57-3.6-1.27-5.35-2.01
					c-3.26-1.39-6.51-3.01-9.26-5.28c-0.38-0.31-0.84-0.65-1.07-1.09c-0.25-0.49-0.08-1.1,0.14-1.57c0.26-0.55,0.62-1.04,0.87-1.6
					c0.22-0.52,0.35-1.05,0.42-1.61c0.15-1.2,0.09-2.42,0.1-3.62c0.01-1.24,0.21-2.44,0.34-3.67c0.13-1.22,0.17-2.45,0.02-3.67
					c-0.13-1.11-0.4-2.2-0.7-3.27c-0.6-2.14-1.39-4.3-1.39-6.55c0-1.16,0.27-2.25,0.68-3.33c0.44-1.17,0.83-2.34,1.14-3.55
					c0.24-0.91,0.7-2.06,0.29-2.98c-0.09-0.21-0.23-0.39-0.41-0.54c-0.21-0.18-0.43-0.27-0.44-0.58c-0.01-0.51,0.18-1.08,0.38-1.54
					c0.21-0.49,0.51-0.94,0.86-1.34c0.13-0.15,0.14-0.31,0.06-0.49c-0.58-1.38-1.79-2.31-2.87-3.29c-0.54-0.49-1.08-1.01-1.47-1.63
					c-0.47-0.74-0.67-1.59-0.95-2.41c-0.26-0.78-0.61-1.49-1.12-2.13c-0.47-0.6-1.03-1.12-1.6-1.63c-0.57-0.51-1.16-1-1.69-1.56
					c-0.56-0.6-0.97-1.27-1.36-1.98c-0.23-0.43-0.46-0.86-0.72-1.27c-0.27-0.43-0.6-0.83-0.85-1.28c-0.48-0.86-0.66-1.86-0.45-2.82
					c0.11-0.51-0.67-0.72-0.78-0.21c-0.19,0.88-0.14,1.79,0.17,2.63c0.31,0.85,0.88,1.52,1.34,2.29c0.46,0.77,0.83,1.61,1.35,2.34
					c0.46,0.64,1.01,1.19,1.59,1.71c1.15,1.04,2.43,2.01,3.08,3.47c0.37,0.84,0.56,1.76,0.93,2.6c0.31,0.7,0.78,1.31,1.32,1.86
					c1.17,1.19,2.7,2.13,3.38,3.73c0.02-0.16,0.04-0.33,0.06-0.49c-0.73,0.82-1.24,1.82-1.42,2.9c-0.09,0.52-0.12,1.05,0.3,1.45
					c0.16,0.16,0.38,0.26,0.51,0.46c0.12,0.2,0.14,0.43,0.13,0.66c-0.02,0.54-0.21,1.09-0.35,1.61c-0.16,0.62-0.33,1.24-0.52,1.85
					c-0.37,1.19-0.92,2.32-1.19,3.54c-0.5,2.25,0.01,4.54,0.62,6.71c0.65,2.27,1.37,4.49,1.35,6.88c-0.01,1.32-0.25,2.61-0.38,3.92
					c-0.12,1.25-0.06,2.51-0.08,3.77c-0.01,0.6-0.03,1.2-0.15,1.78c-0.12,0.61-0.35,1.14-0.67,1.67c-0.55,0.94-1.17,2.07-0.62,3.15
					c0.23,0.47,0.65,0.83,1.04,1.16c0.36,0.3,0.73,0.6,1.1,0.88c0.73,0.55,1.5,1.06,2.28,1.53c1.59,0.97,3.25,1.81,4.95,2.57
					c2.17,0.98,4.41,1.93,6.7,2.62c0.04,0.01,0.08,0.02,0.11,0.04c0.25,0.08,0.51-0.14,0.51-0.39c0-0.42-0.1-0.82-0.12-1.23
					c-0.02-0.32,0.02-0.64-0.04-0.96c-0.07-0.33-0.26-0.61-0.48-0.86c-0.89-0.98-2-1.81-3.1-2.54c-1.13-0.74-2.32-1.38-3.55-1.93
					c-0.62-0.28-1.26-0.54-1.89-0.78c-0.65-0.25-1.31-0.51-2-0.63c-1.41-0.24-2.94,0.15-3.86,1.31
					C116.71,124.9,117.28,125.47,117.6,125.06L117.6,125.06z"/>
			</g>
			<g>
				<path d="M7.72,51.7c0.57,0.07,1.2,0.15,1.63,0.56c0.37,0.35,0.33,0.92,0.74,1.23c0.38,0.29,0.9,0.27,1.35,0.21
					c0.58-0.07,1.14-0.24,1.68-0.47c2.04-0.86,3.75-2.39,5.07-4.14c0.74-0.98,1.3-2.08,1.5-3.31c0.04-0.25-0.35-0.36-0.39-0.11
					c-0.34,2.1-1.79,3.88-3.35,5.26c-0.8,0.71-1.69,1.32-2.66,1.78c-0.52,0.25-1.07,0.44-1.64,0.55c-0.43,0.08-1.17,0.21-1.45-0.25
					c-0.13-0.22-0.16-0.49-0.29-0.71c-0.13-0.22-0.31-0.39-0.52-0.53c-0.49-0.33-1.09-0.41-1.67-0.48
					C7.46,51.27,7.46,51.67,7.72,51.7L7.72,51.7z"/>
			</g>
			<g>
				<path d="M71.51,25.45c-1.34,0.42-2.81,0.95-3.71,2.09c-0.46,0.59-0.59,1.29-0.23,1.97c0.3,0.58,0.85,1.01,1.37,1.38
					c0.18,0.13,0.45,0.03,0.55-0.14c0.12-0.2,0.03-0.43-0.14-0.55c-0.4-0.29-0.82-0.62-1.06-1.06c-0.27-0.49-0.02-0.93,0.33-1.3
					c0.83-0.85,2-1.26,3.11-1.61C72.21,26.07,72,25.3,71.51,25.45L71.51,25.45z"/>
			</g>
			<g>
				<path d="M114.75,80.42c0.18,1.06,0.03,2.24-0.34,3.25c-0.4,1.09-1.45,1.76-1.83,2.86c-0.22,0.63-0.06,1.22,0.19,1.81
					c0.24,0.56,0.33,1.05,0.14,1.63c-0.38,1.15-1.29,2.03-1.62,3.21c-0.38,1.38-0.07,2.83-0.36,4.23c-0.15,0.72-0.35,1.43-0.42,2.16
					c-0.03,0.34-0.02,0.67,0.03,1c0.06,0.38,0.19,0.75,0.26,1.12c0.14,0.75,0.03,1.54-0.01,2.3c-0.04,0.75-0.09,1.5-0.15,2.25
					c-0.12,1.56-0.29,3.12-0.57,4.66c-0.31,1.67-0.81,3.31-0.99,5.01c-0.14,1.35,0.09,3.3-1.28,4.12c-0.44,0.27-0.04,0.96,0.41,0.7
					c1.25-0.74,1.52-2.23,1.59-3.56c0.04-0.77,0.1-1.52,0.24-2.28c0.14-0.79,0.33-1.56,0.51-2.34c0.71-3.1,0.93-6.27,1.1-9.43
					c0.04-0.77-0.02-1.49-0.21-2.24c-0.18-0.71-0.13-1.38,0.02-2.09c0.15-0.72,0.35-1.43,0.41-2.17c0.06-0.76,0.01-1.51,0.06-2.27
					c0.04-0.66,0.21-1.27,0.53-1.85c0.29-0.53,0.64-1.02,0.91-1.56c0.27-0.52,0.49-1.1,0.47-1.7c-0.01-0.31-0.08-0.61-0.19-0.89
					c-0.13-0.33-0.32-0.65-0.36-1.01c-0.08-0.64,0.39-1.19,0.77-1.65c0.42-0.51,0.81-0.99,1.06-1.61c0.48-1.19,0.63-2.6,0.41-3.87
					c-0.04-0.21-0.3-0.33-0.5-0.28C114.81,79.99,114.72,80.2,114.75,80.42L114.75,80.42z"/>
			</g>
			<path class="st4" d="M44.63,122.02c-0.01,1.18,0.06,2.37,0.21,3.55c0.13,1.02,0.94,1.49,1.97,1.45c0.74-0.03,1.45-0.33,2.15-0.58
				c2.78-1.01,5.32-1.29,8.27-1.2c2.41,0.07,4.81,0.1,7.22,0.07c1.45-0.01,2.91-0.05,4.35-0.23c1.55-0.2,3.06-0.59,4.59-0.89
				c1.45-0.29,2.92-0.51,4.38-0.74c3.89-0.59,7.94-0.37,11.85,0.01c4.32,0.41,8.61,1.16,12.78,2.36c1.11,0.32,2.27,0.67,3.39,0.39
				c2.33-0.58,2.11-3.75,2.26-5.6"/>
			<path class="st5" d="M53.43,112.24c3.83,1.55,7.94,2.42,12.08,2.54"/>
			<path class="st5" d="M72.58,114.46c1.82-0.94,4-0.57,6.03-0.87c3.53-0.51,6.45-3.01,9.84-4.12c1.18-0.39,2.53-0.59,3.63-0.01"/>
			<path class="st5" d="M60.03,119.65c0.96,0.08,1.94,0.16,2.89,0.01c1.76-0.29,3.4-1.38,5.17-1.18"/>
			<path class="st5" d="M80.49,117.54c1.82-0.42,3.69-0.62,5.56-0.57"/>
			<g>
				<path d="M61.02,33.71c0.1,0.28-0.15,0.54-0.32,0.74c-0.24,0.28-0.48,0.57-0.56,0.94c-0.18,0.8,0.51,1.23,1.17,1.42
					c1.51,0.45,3.11,0.3,4.63,0.01c0.79-0.15,1.57-0.35,2.36-0.52c0.76-0.16,1.51-0.22,2.28-0.13c1.4,0.16,3.14,0.65,4.39-0.28
					c0.3-0.22,0.56-0.54,0.59-0.93c0.02-0.35-0.21-0.61-0.48-0.81c-0.24-0.17-0.5-0.29-0.72-0.5c-0.25-0.25-0.49-0.5-0.82-0.62
					c-0.49-0.18-0.7,0.6-0.21,0.78c0.2,0.07,0.37,0.32,0.52,0.47c0.18,0.18,0.39,0.3,0.61,0.43c0.08,0.05,0.17,0.09,0.24,0.16
					c0.04,0.03,0.06,0.05,0.08,0.1c-0.03-0.08-0.01-0.06-0.02-0.02c-0.1,0.24-0.34,0.37-0.56,0.47c-1.23,0.51-2.63,0.03-3.9-0.08
					c-1.41-0.12-2.78,0.33-4.14,0.62c-1.31,0.27-2.68,0.48-4.01,0.23c-0.32-0.06-0.67-0.13-0.97-0.28c-0.28-0.14-0.3-0.32-0.14-0.58
					c0.17-0.28,0.43-0.5,0.61-0.79c0.19-0.32,0.29-0.69,0.16-1.05C61.63,33.01,60.85,33.22,61.02,33.71L61.02,33.71z"/>
			</g>
			<g>
				<path d="M114.06,28.12c-0.13,0.49-0.21,1-0.37,1.49c-0.02,0.07-0.03,0.1-0.06,0.15c-0.01,0.03-0.11,0.16-0.07,0.12
					c-0.19,0.22-0.43,0.39-0.67,0.55c-0.97,0.66-2.1,1.12-3.2,1.5c-2.32,0.8-4.76,1.13-7.2,0.99c-1.32-0.08-2.63-0.23-3.96-0.13
					c-1.3,0.1-2.58,0.36-3.85,0.65c-1.25,0.28-2.5,0.59-3.78,0.76c-1.29,0.17-2.61,0.17-3.91,0.23c-1.49,0.07-2.98,0.19-4.46,0.3
					c-0.31,0.02-0.67,0.05-0.96-0.1c-0.17-0.09-0.35-0.29-0.31-0.5c0.05-0.22,0.25-0.42,0.4-0.58c0.21-0.23,0.44-0.44,0.63-0.69
					c0.13-0.17,0.17-0.4,0-0.57c-0.14-0.14-0.44-0.17-0.57,0c-0.34,0.44-0.83,0.79-1.1,1.28c-0.29,0.52-0.2,1.12,0.24,1.53
					c0.48,0.44,1.12,0.48,1.74,0.42c0.71-0.06,1.42-0.13,2.13-0.18c1.45-0.1,2.9-0.15,4.35-0.21c1.38-0.06,2.73-0.25,4.09-0.54
					c1.34-0.29,2.67-0.63,4.02-0.85c1.4-0.22,2.78-0.21,4.2-0.11c1.34,0.1,2.67,0.15,4.02,0.03c1.29-0.12,2.57-0.37,3.81-0.74
					c1.35-0.41,2.74-0.94,3.94-1.7c0.45-0.28,0.98-0.63,1.2-1.13c0.24-0.55,0.33-1.17,0.47-1.74
					C114.97,27.83,114.19,27.62,114.06,28.12L114.06,28.12z"/>
			</g>
			<path class="st5" d="M73.33,36.04c0.79,1.52,1.79,2.94,2.96,4.2c0.33,0.36,0.69,0.71,1.16,0.85c0.53,0.15,1.1-0.01,1.56-0.31
				c0.46-0.3,0.81-0.73,1.14-1.17c1.07-1.4,2-2.91,2.76-4.5"/>
			<path class="st5" d="M76.11,34.53c0.88,0.03,1.76-0.01,2.64-0.13"/>
			<path class="st5" d="M77.51,35.24c0.77-0.08,1.53-0.16,2.3-0.25"/>
			<path class="st5" d="M74.87,36.65c1.11,0.16,2.24,0.14,3.35-0.07"/>
			<path class="st5" d="M77.1,37.63c0.47-0.05,0.94-0.11,1.41-0.16c0.13-0.01,0.27-0.03,0.4-0.03c0.12,0,0.24,0.01,0.37,0.01
				c0.25,0.02,0.5,0.03,0.75,0.05"/>
			<path class="st6" d="M69.64,33c-1.38-0.39-2.83-0.81-3.87-1.8c-0.45-0.43-0.81-0.96-1.14-1.49"/>
			<path class="st5" d="M96.48,28.29c1.17-0.6,2.43-1.04,3.71-1.3c0.9-0.18,1.82-0.28,2.68-0.59c0.36-0.13,0.71-0.29,1.04-0.49
				c0.88-0.53,1.63-1.33,1.93-2.31s0.08-2.15-0.68-2.84"/>
			<path class="st5" d="M101.87,29.02c1.45-0.25,2.91-0.49,4.33-0.9c0.78-0.22,1.57-0.51,2.16-1.06s0.92-1.46,0.61-2.21"/>
			<path class="st5" d="M114.38,27.91c-0.11,0.66-0.71,1.12-1.3,1.44c-1.05,0.57-2.23,0.92-3.42,0.85c-0.61-0.04-1.25-0.19-1.83,0"
				/>
			<path class="st5" d="M95.73,29.18c-0.54,0.2-1.02,0.59-1.32,1.08c-0.04,0.06-0.07,0.16-0.01,0.2c0.03,0.02,0.07,0.02,0.11,0.01
				c0.39-0.07,0.74-0.25,1.11-0.4c0.96-0.4,2.01-0.59,3.05-0.54"/>
			<path class="st5" d="M63.84,34.38c-0.72,0.08-1.51,0.05-2.06-0.42c-0.35-0.3-0.55-0.74-0.74-1.16"/>
			<path class="st5" d="M65.84,34.28c1.17-0.3,2.4-0.22,3.6-0.07c0.24,0.03,0.48,0.06,0.71,0.01c0.23-0.05,0.46-0.2,0.52-0.43
				s-0.08-0.51-0.32-0.53"/>
			<g>
				<path d="M70.28,35.93c0.32,0.74,0.59,1.5,0.18,2.26c-0.15,0.28-0.24,0.55-0.22,0.87c0.02,0.37,0.1,0.74,0.15,1.11
					c0.12,0.79,0.24,1.58,0.36,2.37c0.05,0.32,0.07,0.66,0.2,0.95c0.05,0.12,0.12,0.22,0.2,0.31c0.1,0.11,0.38,0.25,0.35,0.43
					c-0.02,0.13,0.17,0.18,0.19,0.05c0.05-0.26-0.14-0.4-0.32-0.56c-0.29-0.26-0.34-0.64-0.39-1c-0.13-0.84-0.25-1.68-0.38-2.52
					c-0.06-0.41-0.16-0.83-0.16-1.24c0-0.42,0.27-0.71,0.38-1.09c0.21-0.7-0.09-1.42-0.37-2.05C70.4,35.71,70.23,35.81,70.28,35.93
					L70.28,35.93z"/>
			</g>
			<g>
				<path d="M72.35,44.33c0.12-0.28,0.04-0.56-0.09-0.82c-0.16-0.33-0.37-0.61-0.47-0.97c-0.22-0.75-0.28-1.56-0.38-2.33
					c-0.05-0.4-0.21-0.94-0.04-1.33c0.14-0.3,0.36-0.51,0.41-0.85c0.11-0.69-0.11-1.48-0.36-2.12c-0.05-0.12-0.24-0.07-0.19,0.05
					c0.13,0.35,0.24,0.7,0.31,1.07c0.07,0.36,0.13,0.78,0.01,1.14c-0.11,0.31-0.38,0.53-0.43,0.87c-0.06,0.34,0.03,0.72,0.08,1.06
					c0.1,0.73,0.17,1.47,0.33,2.19c0.07,0.32,0.17,0.62,0.34,0.91c0.18,0.32,0.46,0.68,0.3,1.07C72.11,44.39,72.3,44.45,72.35,44.33
					L72.35,44.33z"/>
			</g>
			<g>
				<path d="M87.73,34.86c-0.5,0.32-1,0.64-1.5,0.96c-0.34,0.22-0.69,0.45-0.82,0.86c-0.16,0.48-0.16,1.04-0.23,1.55
					c-0.08,0.59-0.16,1.19-0.24,1.78c-0.08,0.59-0.16,1.19-0.24,1.78c-0.07,0.56-0.15,1.11-0.44,1.61c-0.24,0.4-0.55,0.76-0.73,1.19
					c-0.18,0.44-0.19,0.92-0.12,1.39c0.19,1.18,1.02,2.43,0.5,3.63c-0.05,0.12,0.12,0.22,0.17,0.1c0.41-0.93,0.07-1.9-0.22-2.81
					c-0.16-0.51-0.32-1.04-0.29-1.58c0.03-0.55,0.3-0.98,0.6-1.42c0.28-0.4,0.49-0.79,0.6-1.27c0.11-0.5,0.16-1.02,0.23-1.53
					c0.15-1.16,0.31-2.31,0.46-3.47c0.04-0.3,0.05-0.61,0.15-0.9c0.1-0.3,0.33-0.48,0.58-0.64c0.54-0.36,1.1-0.71,1.65-1.06
					C87.94,34.97,87.84,34.8,87.73,34.86L87.73,34.86z"/>
			</g>
			<g>
				<path d="M84.57,49.88c0.46-0.84,0.57-1.85,0.26-2.77c-0.18-0.53-0.45-1.01-0.38-1.58c0.06-0.51,0.31-0.98,0.54-1.42
					c0.24-0.45,0.47-0.89,0.6-1.38c0.14-0.51,0.2-1.03,0.24-1.56c0.05-0.57,0.1-1.15,0.14-1.72c0.04-0.54,0.03-1.15,0.21-1.67
					c0.11-0.31,0.33-0.53,0.56-0.75c0.24-0.22,0.48-0.44,0.72-0.66c0.51-0.47,1.03-0.94,1.54-1.41c0.1-0.09-0.05-0.23-0.14-0.14
					c-0.45,0.42-0.91,0.83-1.36,1.25c-0.42,0.38-0.9,0.75-1.25,1.19c-0.29,0.36-0.36,0.8-0.4,1.24c-0.05,0.59-0.1,1.18-0.15,1.78
					c-0.1,1.15-0.15,2.29-0.68,3.33c-0.42,0.82-0.97,1.67-0.73,2.64c0.15,0.6,0.46,1.12,0.5,1.76c0.04,0.62-0.1,1.24-0.4,1.78
					C84.33,49.89,84.51,49.99,84.57,49.88L84.57,49.88z"/>
			</g>
			<g>
				<path d="M71.61,44.24c-0.5,0.04-0.58,0.58-0.64,0.98c-0.04,0.23-0.09,0.47-0.11,0.7c-0.02,0.19-0.01,0.4,0.12,0.55
					c0.14,0.16,0.37,0.23,0.57,0.26s0.41,0.02,0.6-0.04c0.38-0.11,0.8-0.39,0.77-0.84c-0.02-0.27-0.14-0.53-0.23-0.78
					c-0.1-0.26-0.22-0.52-0.35-0.77c-0.06-0.11-0.23-0.01-0.17,0.1c0.19,0.36,0.35,0.73,0.48,1.11c0.06,0.17,0.13,0.38,0.05,0.56
					c-0.07,0.16-0.22,0.26-0.37,0.34c-0.31,0.15-0.69,0.17-1,0.04c-0.19-0.08-0.27-0.21-0.26-0.4c0-0.18,0.04-0.36,0.07-0.53
					c0.04-0.22,0.06-0.44,0.12-0.66c0.05-0.19,0.16-0.4,0.37-0.42C71.74,44.43,71.74,44.23,71.61,44.24L71.61,44.24z"/>
			</g>
			<g>
				<path d="M83.95,49.59c-0.27,0.25-0.51,0.53-0.71,0.83c-0.17,0.26-0.42,0.64-0.29,0.96c0.13,0.33,0.57,0.35,0.87,0.35
					c0.32,0,0.69-0.13,0.79-0.47c0.06-0.21,0.03-0.45,0.02-0.66c-0.01-0.24-0.03-0.49-0.04-0.73c-0.01-0.13-0.21-0.13-0.2,0
					c0.02,0.35,0.05,0.7,0.05,1.06c0,0.15,0,0.31-0.1,0.42c-0.09,0.1-0.23,0.15-0.37,0.17c-0.16,0.02-0.32,0.01-0.48-0.01
					c-0.12-0.02-0.28-0.05-0.35-0.17c-0.07-0.13-0.01-0.3,0.05-0.42c0.06-0.13,0.14-0.26,0.22-0.39c0.19-0.29,0.42-0.56,0.67-0.79
					C84.19,49.64,84.04,49.5,83.95,49.59L83.95,49.59z"/>
			</g>
			<g>
				<path d="M47.91,62.68c0.36-1.24,0.88-2.42,1.55-3.52c0.62-1.02,1.48-2.06,1.33-3.34c-0.03-0.28-0.1-0.55-0.23-0.8
					c-0.13-0.27-0.39-0.47-0.5-0.75c-0.22-0.54,0.28-1.19,0.51-1.65c0.29-0.57,0.52-1.17,0.69-1.78c0.16-0.6,0.35-1.31,0.22-1.93
					c-0.07-0.34-0.22-0.62-0.2-0.98c0.02-0.37,0.14-0.73,0.22-1.08c0.16-0.75,0.15-1.51-0.05-2.24c-0.14-0.5-0.92-0.29-0.78,0.21
					c0.17,0.61,0.18,1.24,0.04,1.86c-0.14,0.64-0.34,1.28-0.16,1.94c0.08,0.29,0.19,0.53,0.17,0.83c-0.02,0.31-0.09,0.61-0.16,0.91
					c-0.15,0.61-0.36,1.21-0.64,1.77c-0.27,0.55-0.62,1.07-0.69,1.69c-0.03,0.3,0.01,0.6,0.15,0.87c0.13,0.26,0.36,0.46,0.49,0.73
					c0.53,1.09-0.44,2.27-0.99,3.14c-0.76,1.21-1.35,2.53-1.75,3.9C46.99,62.96,47.76,63.17,47.91,62.68L47.91,62.68z"/>
			</g>
			<g>
				<path d="M47.73,50.52c0.2-0.78,0.4-1.64,0.02-2.4c-0.15-0.31-0.39-0.52-0.68-0.69c-0.09-0.05-0.2-0.11-0.25-0.21
					c-0.06-0.11-0.06-0.26-0.08-0.39c-0.03-0.25-0.06-0.5-0.09-0.75c-0.02-0.13-0.22-0.13-0.2,0c0.03,0.22,0.05,0.45,0.08,0.67
					c0.02,0.18,0.02,0.38,0.1,0.54c0.14,0.3,0.54,0.38,0.75,0.62c0.62,0.71,0.37,1.73,0.16,2.55C47.5,50.59,47.69,50.65,47.73,50.52
					L47.73,50.52z"/>
			</g>
			<path class="st5" d="M87.33,95.09c2.5-1,4.46-2.97,6.66-4.52c2.95-2.08,6.43-3.41,10.01-3.85"/>
			<path class="st5" d="M27.26,84.03c-0.61-0.88-0.63-2.04-0.57-3.11s0.18-2.19-0.2-3.19c-0.41-1.05-1.39-1.86-2.51-2.06"/>
			<path class="st5" d="M8.89,56.33c0.51,0.54,1.32,0.71,2.06,0.62c0.74-0.09,1.43-0.41,2.1-0.72c0.79-0.36,1.58-0.73,2.36-1.09
				c1.17-0.54,2.37-1.1,3.32-1.97c1.48-1.36,2.21-3.34,2.72-5.29c0.1-0.39,0.17-0.87-0.14-1.13"/>
			<path class="st5" d="M116.28,120.82c0.35-0.22,0.6-0.57,0.93-0.83c0.84-0.65,2.02-0.6,3.06-0.39c1.44,0.3,2.81,0.83,4.18,1.37
				c1.28,0.5,2.59,1.02,3.66,1.88c0.45,0.36,0.85,0.77,1.32,1.08c0.83,0.55,1.83,0.77,2.66,1.3c1.17,0.75,1.9,2.13,1.87,3.52"/>
			<path class="st5" d="M117.26,85.2c0.6-1.22,1.77-2.08,3.03-2.59c1.26-0.5,2.62-0.69,3.97-0.87"/>
			<path class="st5" d="M124.05,80.79c1.43-0.61,2.99-0.93,4.54-0.92"/>
			<path class="st5" d="M134.71,124.76c-0.17-0.58-0.41-1.14-0.71-1.65c-0.1-0.18-0.22-0.36-0.22-0.57c0-0.17,0.09-0.32,0.17-0.47
				c0.49-0.95,0.71-2.03,0.64-3.1"/>
			<path class="st5" d="M132.73,55.13c-0.35,1.44-0.85,2.85-1.49,4.19"/>
			<path class="st5" d="M127.68,38.06c-0.94-0.49-2.09-0.17-3.14-0.32c-0.73-0.1-1.42-0.45-1.95-0.96"/>
			<path class="st5" d="M33.79,57.98c0.57,1.38,1.5,2.61,2.68,3.53"/>
			<path class="st5" d="M24.26,53.29c0.39,0.21,0.66,0.58,0.89,0.96c0.87,1.4,1.48,2.96,1.79,4.57"/>
			<path class="st5" d="M37.86,63.71c0.79,2.71,0.54,5.71-0.69,8.25"/>
			<path class="st5" d="M39.79,64.91c-0.15,1.81,0.03,3.64,0.53,5.39"/>
			<path class="st5" d="M105.77,61.14c-0.21-0.41-0.02-0.9,0.17-1.32c0.74-1.62,1.47-3.23,2.21-4.85"/>
			<path class="st5" d="M104.82,59.76c-0.15-1.32-0.41-2.63-0.76-3.92"/>
			<path class="st5" d="M126.24,43.4c-0.93,0.05-1.94,0.08-2.72-0.43c-0.94-0.62-1.37-1.91-2.43-2.3"/>
			<path class="st5" d="M112.67,66.67c0.9,1.03,2.28,1.48,3.6,1.82c2.95,0.76,5.96,1.21,8.97,1.65"/>
			<path class="st5" d="M119.96,70.97c2.35,0.33,4.69,0.67,7.04,1"/>
			<path class="st7" d="M119.84,117.29c2.12-0.13,4.2,0.55,6.21,1.22c0.8,0.26,1.6,0.53,2.32,0.96c0.21,0.13,0.42,0.27,0.62,0.41
				c0.24,0.17,0.48,0.33,0.72,0.5c0.49,0.34,0.97,0.68,1.45,1.03"/>
			<path class="st7" d="M12.86,58.12c3.05-0.13,5.81-1.98,7.76-4.32c0.66-0.79,1.28-1.71,1.34-2.74"/>
			<g>
				
					<linearGradient id="SVGID_1_" gradientUnits="userSpaceOnUse" x1="85.9079" y1="117.5776" x2="84.479" y2="126.2809" gradientTransform="matrix(1 0 0 -1 0 149.8898)">
					<stop  offset="0" style="stop-color:#000000"/>
					<stop  offset="0.6586" style="stop-color:#313131;stop-opacity:0.3414"/>
					<stop  offset="1" style="stop-color:#464646;stop-opacity:0"/>
				</linearGradient>
				<path class="st8" d="M97.49,25.74c1.32-0.23,2.69-0.51,3.67-1.49c0.53-0.53,0.86-1.33,0.64-2.05c-0.16-0.52-0.58-0.94-1.06-1.2
					c-0.49-0.27-1.02-0.35-1.55-0.53c-0.41-0.14-0.68-0.34-1.12-0.41c-1.16-0.18-2.35-0.19-3.51-0.1c-1.09,0.09-2.16,0.29-3.24,0.5
					c-2.63,0.5-5.27,1-7.83,1.79c-1.39,0.43-2.76,0.95-4.2,1.22c-0.7,0.13-1.31,0.17-1.97,0.41c-0.71,0.26-1.42,0.52-2.15,0.74
					c-2.39,0.74-5.03,1.22-6.79,3c-0.37,0.37-0.7,0.87-0.58,1.38c0.09,0.36,0.38,0.62,0.66,0.86c1.37,1.16,2.78,2.27,4.23,3.33
					c0.36,0.27,0.74,0.53,1.17,0.67c0.58,0.19,1.21,0.13,1.82,0.07c1.34-0.14,2.68-0.27,4.02-0.41c0.49-0.05,1-0.11,1.41-0.38
					c0.43-0.28,0.69-0.75,1.02-1.14c0.56-0.66,1.33-1.11,2.08-1.55c2.5-1.45,5.04-2.92,7.83-3.69c1.63-0.45,3.32-0.66,4.98-0.95
					C97.18,25.79,97.33,25.77,97.49,25.74z"/>
				
					<linearGradient id="SVGID_00000020398227775381485220000005306186576263829672_" gradientUnits="userSpaceOnUse" x1="159.4303" y1="80.5132" x2="118.5231" y2="62.3322" gradientTransform="matrix(1 0 0 -1 0 149.8898)">
					<stop  offset="0" style="stop-color:#000000"/>
					<stop  offset="0.6586" style="stop-color:#313131;stop-opacity:0.3414"/>
					<stop  offset="1" style="stop-color:#464646;stop-opacity:0"/>
				</linearGradient>
				<path style="fill:url(#SVGID_00000020398227775381485220000005306186576263829672_);" d="M104.86,56.32
					c0.1-0.15,0.27-0.25,0.45-0.24c0.12,0.01,0.23,0.08,0.34,0.12c0.37,0.14,0.8,0.02,1.13-0.2c0.33-0.22,0.6-0.52,0.89-0.8
					c0.73-0.69,0.44,0.13,0.45,0.38c0.01,0.6-0.02,1.18,0.06,1.79c0.17,1.19,0.55,2.35,1.09,3.42c1.06,2.1,2.76,3.89,4.87,4.94
					c2.22,1.11,4.72,1.45,7.08,2.14c2.08,0.61,4.62,1.36,5.66,3.36c1.1,2.09,2.19,4.17,3.29,6.26c0.51,0.96,1,2.17,0.4,3.07
					c-0.42,0.63-1.26,0.86-2.02,0.84c-0.76-0.02-1.5-0.25-2.26-0.31c-0.22-0.02-0.45-0.01-0.62,0.13c-0.27,0.24-0.16,0.67-0.03,1
					c1.11,2.9,2.21,5.61,2.14,8.77c-0.1,4.65-2.23,8.71-2.93,13.18c-0.75,4.79-1.82,9.58-1.63,14.46c0.07,1.92-1.02,3.22-1.63,4.97
					c-0.4-0.43-1.13-0.32-1.66-0.26c-0.63,0.07-1.25,0.24-1.83,0.5c-0.38,0.18-0.76,0.41-0.98,0.77c-0.18,0.3-1-0.77-1.08-0.89
					c-0.4-0.59-0.56-1.37-0.27-2.02c0.18-0.39,0.5-0.7,0.75-1.05c0.79-1.07,0.92-2.43,0.88-3.71c-0.04-1.4,0.01-2.67,0.1-4.08
					c0.13-2.03,0.09-4.07-0.13-6.1c-0.2-1.85-0.88-3.58-1.42-5.36c-0.07-0.24-0.29-0.61-0.31-0.83c-0.04-0.42-0.05-0.84-0.06-1.26
					c-0.04-1.42-0.07-2.88,0.31-4.26c0.38-1.36,0.81-2.69,1.27-4.03c0.26-0.75,0.51-1.57,0.44-2.38s-0.82-1.33-0.9-2.09
					c-0.02-0.17,0.04-0.34,0.11-0.51c0.16-0.41,0.32-0.83,0.51-1.23c0.22-0.46,0.66-0.63,0.59-1.17c-0.06-0.44-0.37-0.88-0.63-1.22
					c-0.41-0.55-0.88-1.05-1.4-1.51c-0.68-0.6-1.46-1.13-1.97-1.88c-0.86-1.25-0.91-2.85-1.75-4.13c-0.82-1.26-1.99-2.22-3.04-3.28
					c-1.02-1.03-1.79-2.24-2.58-3.43c-0.29-0.44-0.58-0.87-0.83-1.34c-0.57-1.09-0.84-2.31-0.83-3.54c0.01-1.09-0.21-2.21-0.28-3.31
					c-0.07-1.07-0.31-2.64,0.21-3.64C104.82,56.37,104.84,56.34,104.86,56.32z"/>
				
					<linearGradient id="SVGID_00000107554362153431444590000009618488930509729714_" gradientUnits="userSpaceOnUse" x1="131.8677" y1="49.3429" x2="102.8835" y2="53.9753" gradientTransform="matrix(1 0 0 -1 0 149.8898)">
					<stop  offset="0" style="stop-color:#000000"/>
					<stop  offset="0.6586" style="stop-color:#313131;stop-opacity:0.3414"/>
					<stop  offset="1" style="stop-color:#464646;stop-opacity:0"/>
				</linearGradient>
				<path style="fill:url(#SVGID_00000107554362153431444590000009618488930509729714_);" d="M111.34,104.09
					c-0.01,0.1-0.02,0.2-0.03,0.31c-0.13,1.33-0.25,2.66-0.38,3.99c-0.17,1.76-0.55,3.63-0.99,5.33c-0.35,1.36-0.55,2.77-0.59,4.17
					c-0.01,0.46-0.03,0.98-0.35,1.31c-0.13,0.13-0.29,0.22-0.43,0.33c-0.87,0.68-0.45,1.87-0.51,2.81
					c-0.11,1.62-0.78,3.64-2.65,3.84c-0.52,0.06-1.04-0.04-1.56-0.15c-2.81-0.58-5.59-1.33-8.32-2.24c1.93-1.69,4.69-2.53,5.94-4.77
					c0.11-0.2,0.21-0.42,0.17-0.65c-0.06-0.35-0.42-0.55-0.69-0.79c-0.53-0.48-0.73-1.24-0.68-1.96c0.05-0.71,0.31-1.39,0.56-2.06
					c0.42-1.1,0.85-2.21,1.27-3.31c0.4-1.05,0.81-2.16,0.8-3.29c-0.01-1.05-0.65-2.1-0.48-3.15c0.06-0.4,0.28-0.76,0.49-1.1
					c1.65-2.64,3.55-5.27,3.98-8.35c0.28-2.01,0.14-4.4-2-5.31c-1.12-0.47-2.37-0.45-3.58-0.4c0.76-1.35,2.39-1.88,3.66-2.76
					c1.73-1.2,2.79-3.11,3.21-5.14c0.49-2.36-0.38-4.57-1.07-6.84c-0.36-1.2-0.69-2.4-0.98-3.61c-0.32-1.33-0.6-2.74-1.09-4.02
					c1.61,1.51,2.37,3.75,3.95,5.29c0.92,0.89,2.09,1.53,2.83,2.57c1.06,1.49,1.07,3.56,2.24,4.97c0.44,0.53,1.05,0.98,1.19,1.66
					c0.08,0.39-0.01,0.79-0.1,1.18c-0.25,1.08-0.53,2.2-1.24,3.04c-0.47,0.56-1.14,1.03-1.26,1.75c-0.12,0.7,0.33,1.36,0.54,2.04
					c0.42,1.37-0.45,2.41-1.11,3.51c-0.78,1.32-0.37,2.74-0.47,4.24c-0.02,0.29-0.04,0.58-0.13,0.86c-0.09,0.32-0.26,0.61-0.35,0.92
					c-0.43,1.41,0.02,2.77,0.21,4.16C111.42,103.03,111.39,103.56,111.34,104.09z"/>
				
					<linearGradient id="SVGID_00000178896803299666336950000008674462566277559724_" gradientUnits="userSpaceOnUse" x1="11.0153" y1="63.576" x2="28.4772" y2="79.6261" gradientTransform="matrix(1 0 0 -1 0 149.8898)">
					<stop  offset="0" style="stop-color:#000000"/>
					<stop  offset="0.6586" style="stop-color:#313131;stop-opacity:0.3414"/>
					<stop  offset="1" style="stop-color:#464646;stop-opacity:0"/>
				</linearGradient>
				<path style="fill:url(#SVGID_00000178896803299666336950000008674462566277559724_);" d="M15.68,65.86
					c0.25,0.43,0.5,0.87,0.58,1.36c0.05,0.29,0.04,0.59,0.16,0.85c0.11,0.24,0.31,0.43,0.51,0.61c1.46,1.4,2.54,3.13,3.6,4.85
					c0.74,1.2,1.49,2.4,2.23,3.6c0.33,0.53,0.65,1.07,1.02,1.57c0.33,0.44,0.49,0.98,0.86,1.41c0.25,0.29,0.55,0.54,0.81,0.83
					c0.27,0.3,0.49,0.65,0.69,0.99c0.27,0.46,0.53,0.92,0.72,1.42c0.22,0.58,0.34,1.2,0.61,1.76c0.28,0.58,0.7,1.07,1.13,1.54
					c0.44,0.48,0.75,1.1,1.09,1.66c0.68,1.1,1.31,2.08,2.33,2.9c0.98,0.78,2.08,1.41,3.18,2.01c0.65,0.35,1.3,0.7,1.95,1.05
					c0.44,0.23,1.19,0.78,1.7,0.78c0.99,0.26,2.01,0.27,3.03,0.28c0.22,0,0.45,0,0.66-0.07c0.42-0.16,0.66-0.59,0.79-1.02
					c0.5-1.56,0.07-3.38,0.92-4.77c0.19-0.31,0.44-0.59,0.52-0.94c0.05-0.2,0.03-0.41,0.02-0.62c-0.12-2.1-0.09-4.21,0.1-6.31
					c0.04-0.43,0.08-0.87-0.06-1.27c-0.16-0.45-0.47-0.58-0.86-0.76c-0.42-0.19-0.83-0.45-1.24-0.67c-0.96-0.5-1.93-1-2.9-1.49
					c-1.94-0.97-3.91-1.9-5.93-2.7c-0.36-0.14-0.73-0.28-1.09-0.42c-2.41-0.89-4.93-1.61-6.99-3.14c-3.64-2.71-5.12-7.38-7.87-10.99
					c-0.41-0.53-0.86-1.08-0.98-1.74c-0.12-0.65,0.11-1.31,0.07-1.96c-0.1-1.66-1.64-2.57-3.1-2.86c-0.88-0.17-1.75-0.11-2.65-0.11
					c-0.14,0-0.29,0-0.42-0.06s-0.24-0.17-0.34-0.27c-0.57-0.56-1.27-0.97-1.98-1.32c-0.21-0.11-0.44-0.21-0.67-0.23
					c-0.6-0.05-0.99,0.41-1.16,0.92c-0.28,0.83-0.37,1.57,0.22,2.27c0.51,0.61,1.21,1.02,1.77,1.58c0.89,0.9,1.69,1.93,2.48,2.92
					C12.84,61.37,14.34,63.57,15.68,65.86z"/>
				
					<linearGradient id="SVGID_00000065047928454834885390000002640844295209102267_" gradientUnits="userSpaceOnUse" x1="96.8472" y1="124.4553" x2="97.1735" y2="112.4914" gradientTransform="matrix(1 0 0 -1 0 149.8898)">
					<stop  offset="0" style="stop-color:#000000"/>
					<stop  offset="0.6586" style="stop-color:#313131;stop-opacity:0.3414"/>
					<stop  offset="1" style="stop-color:#464646;stop-opacity:0"/>
				</linearGradient>
				<path style="fill:url(#SVGID_00000065047928454834885390000002640844295209102267_);" d="M107.19,33.48
					c-4.14,1.34-8.43,2.18-12.75,2.7c-1.65,0.2-3.33,0.35-4.91,0.86c-1.16,0.37-2.4,0.94-3.54,0.49c1.03-0.82,2-1.73,2.88-2.71
					c-1.49,0.13-2.9,0.91-3.8,2.11c-0.18,0.24-0.35,0.51-0.61,0.66c-0.2,0.12-0.43,0.16-0.65,0.2c-0.91,0.16-1.81,0.31-2.72,0.47
					c0.62-0.68,1.1-1.49,1.39-2.36c0.06-0.19,0.12-0.38,0.26-0.53c0.15-0.16,0.38-0.22,0.59-0.28c2.82-0.7,5.79-0.32,8.66-0.75
					c2.64-0.39,5.21-1.46,7.86-1.27c0.85,0.06,1.68,0.25,2.52,0.34c3.82,0.43,7.35-1.07,10.73-2.63
					C111.38,32.05,109.23,32.82,107.19,33.48z"/>
				
					<linearGradient id="SVGID_00000095318093152873687810000013813626362410305408_" gradientUnits="userSpaceOnUse" x1="66.2769" y1="120.9031" x2="65.57" y2="110.6794" gradientTransform="matrix(1 0 0 -1 0 149.8898)">
					<stop  offset="0" style="stop-color:#000000"/>
					<stop  offset="0.6586" style="stop-color:#313131;stop-opacity:0.3414"/>
					<stop  offset="1" style="stop-color:#464646;stop-opacity:0"/>
				</linearGradient>
				<path style="fill:url(#SVGID_00000095318093152873687810000013813626362410305408_);" d="M72.82,36.08
					c-2.55-0.8-5.2,0.24-7.73,0.6c-1.19,0.17-2.43,0.2-3.6-0.1c-1.42-0.36-0.54-1.4-0.4-2.36c0.01-0.05,0.01-0.12-0.03-0.16
					c-0.04-0.05-0.11-0.05-0.18-0.05c-0.41,0.03-0.79,0.21-1.16,0.39c-0.88,0.43-1.76,0.85-2.64,1.28c-0.13,0.06-0.28,0.19-0.2,0.31
					c0.03,0.04,0.07,0.06,0.11,0.09c0.22,0.14,0.33,0.41,0.53,0.56c0.13,0.1,0.29,0.15,0.45,0.19c3.61,1.05,7.39,1.46,11.17,1.29
					c0.41-0.02,0.84-0.05,1.19-0.27c0.35-0.22,0.57-0.68,0.39-1.05c-0.14-0.28-0.5-0.55-0.35-0.83c0.36-0.24,0.86,0.04,1.09,0.42
					c0.22,0.37,0.29,0.83,0.53,1.19c0.52,0.79,1.62,0.89,2.57,0.91c-0.21-0.52-0.45-1.04-0.72-1.53c-0.12-0.23-0.26-0.46-0.47-0.62
					C73.21,36.21,73.02,36.14,72.82,36.08z"/>
			</g>
			
				<linearGradient id="SVGID_00000034774692344692765370000015258832883269587117_" gradientUnits="userSpaceOnUse" x1="8.8033" y1="48.1681" x2="63.457" y2="65.9586" gradientTransform="matrix(1 0 0 -1 0 149.8898)">
				<stop  offset="0" style="stop-color:#000000"/>
				<stop  offset="0.6586" style="stop-color:#313131;stop-opacity:0.3414"/>
				<stop  offset="1" style="stop-color:#464646;stop-opacity:0"/>
			</linearGradient>
			<path style="fill:url(#SVGID_00000034774692344692765370000015258832883269587117_);" d="M47.08,126.97
				c-0.61,0.1-1.21,0.06-1.62-0.36c-0.36-0.36-0.46-0.89-0.54-1.39c-0.16-0.98-0.32-1.97-0.48-2.95c-0.03-0.17-0.06-0.35-0.15-0.5
				c-0.11-0.19-0.29-0.32-0.46-0.45c-0.94-0.74-1.66-1.9-1.76-3.1c-0.11-1.38,0.6-2.94,1.13-4.18c0.59-1.39,0.24-2.96-0.15-4.38
				c-0.38-1.39-0.87-2.77-0.96-4.22c-0.13-2.22,0.76-4.29,0.96-6.46c0.07-0.76,0.35-1.4,0.14-2.17c-0.15-0.55-0.39-1.1-0.34-1.67
				c0.05-0.62,0.44-1.16,0.6-1.76c0.18-0.66,0.08-1.36,0.06-2.05c-0.03-0.69,0.04-1.42,0.48-1.95c0.62-0.74,0.96-1.01,1.01-2.03
				c0.05-1.07-0.13-2.14-0.11-3.21c0.03-1.59,0.07-3.18,0.15-4.77c0.18-3.39,0.56-6.77,0.93-10.15c0.19-1.68,0.37-3.37,0.91-4.97
				c0.45-1.34,1.13-2.58,1.72-3.85c0.25-0.53,0.4-1.12,0.63-1.64c0.27-0.62,0.74-1.12,0.96-1.77c0.23-0.66,0.26-1.41-0.07-2.02
				c-0.23-0.43-0.65-0.82-0.61-1.31c0.02-0.22,0.13-0.41,0.23-0.6c0.41-0.73,1.02-1.51,1.19-2.33c0.22-1.07,0.02-1.83-0.04-2.9
				c-0.05-0.83,0.33-1.64,0.25-2.47c-0.07-0.69-0.46-1.39-0.19-2.03c1.8,1.14,3.64,2.34,4.82,4.12c0.43,0.65,0.77,1.37,1.08,2.09
				c0.46,1.07,0.88,2.16,1.24,3.26c0.34,1.01,0.46,1.8,0.51,2.83c0.09,1.87,0.75,4.07,2.28,5.25c1.77,1.37,4.53,1.31,5.85,3.12
				c1.01,1.38,0.74,3.28,0.52,4.98c-0.34,2.59-0.46,5.22-0.36,7.83c0.02,0.54,0.07,1.13,0.42,1.54c0.38,0.44,1,0.56,1.58,0.62
				c4.4,0.51,8.84-0.46,13.26-0.22c0.43,0.02,0.91,0.08,1.22,0.38c0.51,0.5,0.32,1.35,0.08,2.03c-0.79,2.3-1.59,4.59-2.38,6.89
				c-0.38,1.1-0.78,1.76-1.37,2.68c-0.41,0.66-1.13,1.54-0.5,2.32c0.3,0.37,0.8,0.48,1.26,0.57c2.55,0.48,5.12,0.8,7.71,0.98
				c-3.75,4.15-7.5,8.31-11.25,12.46c-0.92,1.02-1.89,2.03-2.6,3.23c-0.19,0.32-0.37,0.7-0.23,1.04c0.09,0.23,0.31,0.38,0.48,0.56
				c0.41,0.43,0.58,1.07,0.43,1.64c-0.04,0.16-0.11,0.33-0.06,0.49c0.05,0.17,0.21,0.28,0.36,0.38c1.41,0.96,2.24,2.55,3,4.08
				c0.38,0.75,0.76,1.51,1.1,2.28c0.19,0.41,1,1.77,0.83,2.21c-0.28,0.73-3.56,0.48-4.31,0.57c-1.01,0.13-1.99,0.43-2.97,0.68
				c-3,0.78-6.1,1.19-9.21,1.2c-0.88,0-1.75-0.02-2.63-0.05c-2.25,0-4.59-0.39-6.81-0.02c-2.13,0-4.36,0.75-6.35,1.39
				C47.7,126.83,47.39,126.92,47.08,126.97z"/>
			<g>
				<path d="M10.27,50.98c-0.03,0-0.06-0.01-0.08-0.03c-0.04-0.04-0.03-0.11,0.01-0.14c2.1-1.87,4.66-3.19,7.4-3.82
					c0.06-0.01,0.11,0.02,0.12,0.08c0.01,0.05-0.02,0.11-0.08,0.12c-2.71,0.62-5.23,1.93-7.31,3.77
					C10.32,50.97,10.29,50.98,10.27,50.98z"/>
			</g>
		</g>
	</g>
</g>
</svg>
