<?xml version="1.0" encoding="utf-8"?>
<!-- Generator: Adobe Illustrator 28.0.0, SVG Export Plug-In . SVG Version: 6.00 Build 0)  -->
<svg version="1.1" id="Layer_1" xmlns="http://www.w3.org/2000/svg" xmlns:xlink="http://www.w3.org/1999/xlink" x="0px" y="0px"
	 viewBox="0 0 800 800" style="enable-background:new 0 0 800 800;" xml:space="preserve">
<style type="text/css">
	.st0{fill:#FFFFFF;}
	.st1{fill:url(#SVGID_1_);}
	.st2{fill:url(#SVGID_00000100377307386295686050000016520369384715462531_);}
	.st3{fill:url(#SVGID_00000152970690774045635500000003956319194420402336_);}
	.st4{fill:url(#SVGID_00000077284182846010639610000007437604950736486030_);}
	.st5{fill:url(#SVGID_00000043429613084545486610000000422653371030630816_);}
</style>
<g id="_x35_-FACE_BASE__x5B_VOJAK_x5D_">
	<path class="st0" d="M421.24,95.51c-0.03-0.32-0.13-0.63-0.37-0.84c-0.27-0.24-0.65-0.3-1-0.29c-0.36,0.01-0.71,0.08-1.07,0.07
		c-0.9-0.02-1.71-0.56-2.59-0.74c-0.64-0.13-1.3-0.06-1.95,0.03c-1.25,0.19-2.49,0.48-3.71,0.84c-0.92,0.27-1.84,0.58-2.66,1.06
		c-0.83,0.48-1.57,1.15-2.01,2c-0.16,0.31-0.28,0.64-0.5,0.9c-0.21,0.24-0.5,0.4-0.67,0.66c-0.82,1.23,2.13,1.56,2.76,1.67
		c1.46,0.24,2.96,0.25,4.43,0.05c1.13,0.16,2.29,0.15,3.42,0.07c1.17-0.08,2.33-0.4,3.32-1.02c1.39-0.87,2.44-2.35,2.59-3.98
		C421.25,95.83,421.25,95.67,421.24,95.51z"/>
	<path class="st0" d="M386.66,100.45c-0.08-0.37-0.36-0.65-0.61-0.92c-0.3-0.33-0.6-0.65-0.91-0.95c-0.6-0.58-1.3-1-1.93-1.54
		c-0.44-0.38-1.03-0.53-1.6-0.63c-0.2-0.04-0.4-0.07-0.6-0.08c-1.08-0.08-2.19,0.39-3.23,0.09c-0.24-0.07-0.47-0.18-0.72-0.2
		c-0.53-0.04-1.3,0.18-1.18,0.85c0.1,0.57,0.29,1.15,0.32,1.72c0.01,0.13,0.05,0.25,0.09,0.37c0.21,0.66,0.36,1.35,0.5,2.03
		c0.06,0.28,0.12,0.56,0.14,0.85c0.01,0.09,0.01,0.19,0.04,0.27c0.03,0.08,0.07,0.16,0.13,0.23c0.32,0.41,0.73,0.38,1.19,0.46
		c0.53,0.09,1.06,0.15,1.6,0.17c1.07,0.05,2.14-0.04,3.19-0.26c0.71-0.15,1.41-0.37,2.09-0.66c0.51-0.21,1.05-0.44,1.34-0.94
		c0.02-0.03,0.02-0.07,0.03-0.1C386.67,101,386.73,100.75,386.66,100.45z"/>
	<path class="st0" d="M443.51,133.81c-0.07,0-0.07,0.11,0,0.11C443.58,133.92,443.58,133.81,443.51,133.81z"/>
	
		<linearGradient id="SVGID_1_" gradientUnits="userSpaceOnUse" x1="317.6692" y1="700.0982" x2="432.7037" y2="704.5743" gradientTransform="matrix(1 0 0 -1 0 800)">
		<stop  offset="2.893519e-04" style="stop-color:#FFFFFF;stop-opacity:0"/>
		<stop  offset="0.158" style="stop-color:#FCFCFC;stop-opacity:0.1578"/>
		<stop  offset="0.2933" style="stop-color:#F1F1F1;stop-opacity:0.2931"/>
		<stop  offset="0.4204" style="stop-color:#E0E0DF;stop-opacity:0.4202"/>
		<stop  offset="0.5425" style="stop-color:#C7C7C6;stop-opacity:0.5423"/>
		<stop  offset="0.661" style="stop-color:#A7A7A6;stop-opacity:0.6609"/>
		<stop  offset="0.7769" style="stop-color:#80807F;stop-opacity:0.7768"/>
		<stop  offset="0.8885" style="stop-color:#525251;stop-opacity:0.8885"/>
		<stop  offset="0.9979" style="stop-color:#1E1E1C;stop-opacity:0.9979"/>
		<stop  offset="1" style="stop-color:#1D1D1B"/>
	</linearGradient>
	<path class="st1" d="M403.55,132.5c-0.51,0.13-1.04,0.23-1.57,0.26c-0.6,0.03-1.21-0.04-1.81-0.11l-5.51-0.63
		c-0.67-0.08-0.48-0.63-0.68-1.12c-0.54-1.31-0.94-2.67-1.22-4.06c-0.13-0.68-0.24-1.39-0.06-2.06c0.44-1.71,2.32-1.94,3.79-1.95
		c1.24-0.01,2.47,0.05,3.71,0.16c1.19,0.11,2.41,0.28,3.58,0.04c1.18-0.24,2.89-1.05,3.65-2.19c0.14-0.2,0.24-0.41,0.31-0.63
		c0.03-0.09,0.05-0.18,0.02-0.27c-0.03-0.11-0.12-0.18-0.21-0.25c-0.51-0.4-1.03-0.81-1.54-1.21c-0.24-0.19-0.48-0.38-0.77-0.47
		c-0.24-0.08-0.49-0.09-0.74-0.09c-1.48-0.04-2.96-0.09-4.45-0.09c-0.49,0-1,0-1.47,0.16c-0.38,0.12-0.71,0.34-1.09,0.47
		c-0.44,0.16-0.91,0.19-1.38,0.22c-1.73,0.12-3.46,0.24-5.19,0.23c-0.35,0-0.71-0.01-1.04-0.11c-0.78-0.22-1.34-0.88-1.84-1.52
		c-0.39-0.5-0.79-1.04-0.91-1.67c-0.34-1.76,2.08-2.62,3.07-3.62c0.79-0.79,0.49-2.05,1.19-2.81c0.19-0.21,0.48-0.29,0.73-0.42
		c1.4-0.7,1.58-2.59,1.47-4.15c-0.2-2.78-0.56-5.6-2.76-7.56c-0.78-0.69-1.81-1.56-1.45-2.54c0.21-0.57,0.98-0.96,0.87-1.62
		c-0.09-0.52-0.63-1.03-0.36-1.48c0.14-0.23,0.45-0.3,0.72-0.34c0.73-0.1,1.47-0.11,2.2-0.04c-0.58-0.67-1.33-1.19-2.16-1.48
		c-0.56-0.2-1.23-0.35-1.51-0.88c-0.09-0.16-0.13-0.35-0.19-0.52c-0.17-0.48-0.5-0.9-0.61-1.39c-0.38-1.74,1.69-1.79,2.43-2.86
		c0.5-0.72,0.18-2.03-0.51-2.55c-0.29-0.22-0.64-0.29-1.01-0.3c0.67-0.04,1.38-0.15,1.63-0.42c0.44-0.47,0.18-1.06,0.05-1.65
		c-0.25-1.14-0.6-2.71-2.05-2.76c-1.22-0.04-2.44-0.22-3.63-0.52c1.46-0.34,2.94-0.54,4.44-0.61c0.58-0.03,1.26-0.08,1.59-0.56
		c1.19-1.75-0.46-5.59-0.84-7.45c-0.57-2.74-0.97-5.6-0.19-8.34c0.84-2.98,2.95-5.43,5.17-7.59c1.48-1.44,3.04-2.81,4.44-4.32
		c-0.55,0.22-1.1,0.42-1.64,0.66c-3.29,1.47-6.53,3.19-9.58,5.1c-3.11,1.95-5.95,4.22-8.34,7.02c-0.11,0.13-0.23,0.27-0.34,0.4
		c-2.05,3.25-4.41,6.39-5.37,10.16c-1.06,4.17-0.62,8.51-2.21,12.58c-0.62,1.58-1.55,3.05-2.05,4.68c-0.6,1.96-0.01,4.11,0.43,6.05
		c0.85,3.71,2.02,7.26,1.96,11.07c0.2,0.86,0.19,1.81,0.2,2.65c0.03,2.38,0,4.78,0.75,7.06c1.42,4.31,3.21,8.35,5.32,12.37
		c1.9,3.62,3.35,7.6,5.92,10.83c0.48,0.6,1.01,1.17,1.55,1.72c1.03,0.58,2,1.26,2.95,1.96c1.73,1.27,3.65,2.73,4.94,4.45
		c0.17,0.23,0.35,0.48,0.61,0.61c0.19,0.1,0.42,0.13,0.63,0.16c0.8,0.1,1.6,0.19,2.4,0.29c-0.77-0.87-1.54-1.74-2.3-2.6
		c-0.34-0.38-0.68-0.77-0.92-1.22c-0.32-0.59-0.46-1.26-0.59-1.92c-0.36-1.8-0.72-3.61-1.07-5.41c-0.08-0.41-0.43-1.29,0.12-1.52
		c0.11-0.04,0.22-0.04,0.34-0.04c2.41,0.1,4.73,1.39,7.12,1.07c0.69-0.09,1.36-0.32,2.01-0.56c1.89-0.7,3.73-1.57,5.48-2.58
		c1.03-0.59,2.14-1.43,2.18-2.62C408.22,130.54,406.01,131.87,403.55,132.5z M383.85,103.86c-1.84,0.16-3.65-0.23-5.48-0.38
		c-0.2-0.02-0.28-0.33-0.05-0.38c0.71-0.15,1.43-0.22,2.15-0.26c-0.59,0.03-1.18,0.04-1.77,0c-0.49-0.03-1.11-0.06-1.43-0.49
		c-0.24-0.32-0.35-0.71-0.43-1.12c0-0.01,0-0.02-0.01-0.03c-0.08-0.47-0.11-0.95-0.16-1.39c-0.06-0.48-0.27-0.9-0.42-1.36
		c-0.18-0.56-0.28-1.12-0.22-1.71c0.04-0.36,0.51-0.52,0.78-0.3c0.07,0.06,0.14,0.12,0.2,0.19c0.06-0.05,0.13-0.09,0.2-0.12
		c0.33-0.12,0.72-0.08,1.06-0.05s0.67,0.09,1.01,0.12c0.01,0,0,0,0.01,0c0.02,0,0.03-0.01,0.08-0.01c0.12-0.02,0.25-0.03,0.37-0.04
		c0.27-0.03,0.54-0.06,0.81-0.08c1.1-0.08,2.22-0.02,3.24,0.45c0.61,0.29,0.49,1.03-0.03,1.31c-0.02,0.01-0.04,0.02-0.06,0.03
		c0.01,0,0.01,0,0.02,0c0.84-0.1,1.05,1,0.47,1.38c0,0.17-0.04,0.35-0.14,0.51c-0.04,0.07-0.2,0.32-0.14,0.42
		c0.2,0.36,0.21,0.8-0.16,1.07c-0.12,0.09-0.28,0.13-0.44,0.13c0.08,0.27-0.02,0.6-0.31,0.72c-0.49,0.21-1.07,0.27-1.62,0.31
		c0.66-0.03,1.31-0.05,1.96-0.09c0.86-0.06,1.75-0.18,2.56-0.51c0.49-0.2,1.05-0.5,1.25-1.04c0.17-0.47-0.05-1-0.36-1.39
		c-0.06-0.07-0.12-0.16-0.1-0.25c0.01-0.03,0.04-0.06,0.06-0.09c0.22-0.2,0.59-0.13,0.84,0.04c0.31,0.21,0.52,0.55,0.58,0.92
		c0.05,0.34,0.34,0.51,0.35,0.85c0.01,0.3-0.18,0.63-0.36,0.86c-0.38,0.49-0.93,0.86-1.49,1.11
		C385.77,103.61,384.81,103.78,383.85,103.86z"/>
	
		<linearGradient id="SVGID_00000145045852429927204930000012856385033045781932_" gradientUnits="userSpaceOnUse" x1="424.4823" y1="702.6607" x2="375.7783" y2="719.4636" gradientTransform="matrix(1 0 0 -1 0 800)">
		<stop  offset="0" style="stop-color:#FFFFFF;stop-opacity:0"/>
		<stop  offset="1" style="stop-color:#1D1D1B"/>
	</linearGradient>
	<path style="fill:url(#SVGID_00000145045852429927204930000012856385033045781932_);" d="M402.44,96.35
		c0.09,0.07,0.2,0.14,0.32,0.14c0.13-0.01,0.24-0.1,0.34-0.2c0.95-0.92,1.88-1.88,3.02-2.55c0.77-0.45,1.61-0.76,2.46-1.02
		c3.09-0.93,6.39-1.18,9.59-0.74c0.53,0.07,1.06,0.16,1.59,0.15c0.95-0.03,1.89-0.42,2.58-1.08c0.07-0.06,0.13-0.13,0.16-0.22
		c0.09-0.27-0.2-0.51-0.45-0.65c-5.14-2.83-11.39-3.58-17.06-2.07c-0.58,0.16-1.18,0.34-1.63,0.74c-0.27,0.24-0.47,0.53-0.68,0.83
		c-0.67,0.97-1.15,2.37-1.36,3.53C401.12,94.36,401.51,95.63,402.44,96.35z"/>
	
		<linearGradient id="SVGID_00000165204158633458439380000005248390618788983947_" gradientUnits="userSpaceOnUse" x1="410.5069" y1="705.7621" x2="420.1334" y2="686.0932" gradientTransform="matrix(1 0 0 -1 0 800)">
		<stop  offset="0" style="stop-color:#FFFFFF;stop-opacity:0"/>
		<stop  offset="1" style="stop-color:#1D1D1B"/>
	</linearGradient>
	<path style="fill:url(#SVGID_00000165204158633458439380000005248390618788983947_);" d="M403.25,102.04
		c0.34,0.46,0.64,0.93,0.82,1.22c-0.17-0.45-0.25-0.93-0.22-1.41c0.38,0.21,0.76,0.42,1.14,0.63c0.19,0.1,0.38,0.21,0.59,0.25
		c0.18,0.04,0.36,0.03,0.55,0.05c0.4,0.06,0.76,0.31,1.17,0.34c1.3,0.09,2.53,0.06,3.83,0.26c1.34,0.21,2.71,0.45,4.05,0.17
		c2.05-0.42,3.69-1.91,5.17-3.4c1.1-1.11,2.9-3.33,2.36-5.03c-0.1-0.33-0.49-0.48-0.78-0.63c-0.08-0.04-1.1-0.26-1.06-0.06
		c0.1,0.45,0.2,0.9,0.19,1.36c-0.01,0.43-0.11,0.85-0.21,1.27c-0.11,0.44-0.22,0.88-0.43,1.28c-0.68,1.28-2.46,1.96-3.77,2.31
		c-1.55,0.41-3.18,0.48-4.78,0.46c-1.3-0.01-2.6-0.02-3.9-0.03c-0.56,0-1.14-0.02-1.7-0.14c-0.72-0.15-1.55-1.22-2.25-1.07
		c-0.39,0.08-0.69,0.37-1.01,0.59c-0.32,0.23-0.73,0.42-1.1,0.28C402.32,100.9,402.82,101.46,403.25,102.04z"/>
	
		<linearGradient id="SVGID_00000168078500199415936510000017944616971190468253_" gradientUnits="userSpaceOnUse" x1="335.635" y1="673.7899" x2="534.0527" y2="770.0125" gradientTransform="matrix(1 0 0 -1 0 800)">
		<stop  offset="0" style="stop-color:#FFFFFF;stop-opacity:0"/>
		<stop  offset="0.1413" style="stop-color:#FBFBFB;stop-opacity:0.1413"/>
		<stop  offset="0.2748" style="stop-color:#F0F0F0;stop-opacity:0.2748"/>
		<stop  offset="0.4054" style="stop-color:#DDDDDD;stop-opacity:0.4054"/>
		<stop  offset="0.5341" style="stop-color:#C2C2C2;stop-opacity:0.5341"/>
		<stop  offset="0.6614" style="stop-color:#A0A09F;stop-opacity:0.6614"/>
		<stop  offset="0.7878" style="stop-color:#767675;stop-opacity:0.7878"/>
		<stop  offset="0.911" style="stop-color:#454544;stop-opacity:0.911"/>
		<stop  offset="1" style="stop-color:#1D1D1B"/>
	</linearGradient>
	<path style="fill:url(#SVGID_00000168078500199415936510000017944616971190468253_);" d="M456.65,80.64
		c-0.32-2.36-0.84-4.7-1.44-7.01c-0.52-1.99-0.84-4-1.79-5.82c-1.03-1.98-1.91-4.21-3.14-6.05c-1.24-1.85-2.65-3.6-4.19-5.21
		c-2.85-2.99-6.08-5.18-9.7-7.11c-2.03-1.08-4.27-1.9-6.44-2.7c-1.15-0.43-2.31-0.82-3.49-1.16c-1.1-0.32-2.35-0.4-3.41-0.78
		c3.76,1.35,7.55,3.79,10.62,6.33c1.47,1.06,2.85,2.23,4.08,3.53c1.15,0.48,2.19,1.44,2.99,2.27c1.36,1.39,2.39,3.02,3.23,4.76
		c1.54,3.2,2.56,6.71,2.6,10.28c0.06,4.21-1.61,8.41-2.67,12.42c-1.25,4.71-2.03,9.41-1.39,14.27c0.47,2.25,1.19,4.42,2,6.56
		c0.17,0.29,0.34,0.59,0.56,0.89c0.3,0.41,0.63,0.8,0.99,1.17c0.6,0.61,1.31,1.1,1.93,1.69c0.65,0.35,1.35,0.55,2.12,0.5
		c1.94-0.13,3.08-2.06,3.89-3.59c1.04-1.97,1.44-4.22,1.76-6.42C456.65,93.35,457.49,86.76,456.65,80.64z"/>
	
		<linearGradient id="SVGID_00000160171939574423644470000001683982471428026257_" gradientUnits="userSpaceOnUse" x1="443.6686" y1="683.3045" x2="464.1307" y2="801.8796" gradientTransform="matrix(1 0 0 -1 0 800)">
		<stop  offset="0" style="stop-color:#FFFFFF;stop-opacity:0.1"/>
		<stop  offset="0.1383" style="stop-color:#DCDCDC;stop-opacity:0.2245"/>
		<stop  offset="0.5649" style="stop-color:#767675;stop-opacity:0.6084"/>
		<stop  offset="0.8611" style="stop-color:#363634;stop-opacity:0.875"/>
		<stop  offset="1" style="stop-color:#1D1D1B"/>
	</linearGradient>
	<path style="fill:url(#SVGID_00000160171939574423644470000001683982471428026257_);" d="M451.45,74.23
		c-0.62,7.51-5.12,14.48-4.67,22.01c0.07,1.17,0.28,2.39,1,3.32c0.71,0.93,2.05,1.47,3.11,0.96c0.49-0.24,0.86-0.67,1.19-1.1
		c1.88-2.49,2.81-5.6,3.13-8.71c0.13-1.26,0.14-2.54,0.19-3.8c0.08-1.88,1.19-3.48,1.26-5.34c0.08-2.11-0.62-4.46-1.14-6.5
		c-1.11-4.36-2.78-8.57-4.97-12.5c-1-1.79-2.15-3.57-3.83-4.73c-0.32,1.06,1.14,3.01,1.65,3.9c0.55,0.96,1.28,1.92,1.68,2.96
		C451.21,67.72,451.72,71,451.45,74.23z"/>
	<g>
		<g>
			<path d="M374.6,97.07c0.47-0.02,0.94-0.11,1.33-0.38c0.39-0.26,0.56-0.33,1.02-0.25c0.26,0.04,0.51,0.11,0.75,0.19
				c0.52,0.16,0.97,0.21,1.51,0.08c0.31-0.07,0.59-0.23,0.92-0.25c0.38-0.03,0.78,0.02,1.15,0.08c2.77,0.47,5.12,2.1,6.03,4.84
				c0.1,0.3,0.58,0.17,0.48-0.13c-0.89-2.68-3.12-4.5-5.84-5.08c-0.65-0.14-1.34-0.28-2-0.18c-0.73,0.1-1.23,0.43-1.99,0.21
				c-0.52-0.15-1.11-0.37-1.67-0.27c-0.23,0.04-0.35,0.12-0.53,0.26c-0.36,0.27-0.72,0.38-1.17,0.4
				C374.28,96.58,374.28,97.08,374.6,97.07L374.6,97.07z"/>
		</g>
	</g>
	<g>
		<g>
			<path d="M375.66,96.52c0.01,0.84-0.06,1.7,0.2,2.51c0.12,0.39,0.35,0.73,0.47,1.12c0.13,0.42,0.07,0.86,0.09,1.29
				c0.03,0.62,0.18,1.26,0.76,1.58c0.55,0.3,1.31,0.22,1.91,0.23c1.84,0.01,3.68-0.11,5.5-0.35c1.14-0.15,2.48-0.48,3.18-1.47
				c0.19-0.26-0.25-0.51-0.43-0.25c-0.7,0.98-2.2,1.16-3.3,1.29c-1.5,0.18-3.01,0.27-4.51,0.28c-0.61,0-1.41,0.11-1.99-0.12
				c-0.81-0.31-0.58-1.38-0.64-2.06c-0.05-0.65-0.42-1.15-0.59-1.76c-0.21-0.74-0.15-1.52-0.15-2.28
				C376.16,96.2,375.66,96.2,375.66,96.52L375.66,96.52z"/>
		</g>
	</g>
	<g>
		<g>
			<path d="M403.94,100.49c0.21-0.23,0.18-0.49,0.37-0.71c0.18-0.21,0.54-0.35,0.75-0.56c0.24-0.24,0.45-0.52,0.6-0.82
				c0.23-0.46,0.41-0.81,0.78-1.19c0.74-0.76,1.36-1.4,2.39-1.74c0.83-0.28,1.64-0.6,2.47-0.9c0.86-0.31,1.84-0.27,2.74-0.44
				c1.04-0.19,2.13-0.42,3.16-0.06c0.38,0.13,0.74,0.32,1.14,0.4c0.47,0.09,0.94,0.04,1.42,0.01c0.9-0.05,1.92-0.04,2.64,0.58
				c0.24,0.21,0.6-0.14,0.35-0.35c-0.6-0.52-1.3-0.68-2.09-0.74c-0.53-0.04-1.05,0.04-1.58,0.05c-0.58,0.01-1.04-0.15-1.57-0.36
				c-0.88-0.34-1.81-0.31-2.73-0.17c-0.57,0.09-1.12,0.23-1.69,0.3c-0.48,0.06-0.97,0.07-1.45,0.17c-0.53,0.11-1,0.37-1.5,0.55
				c-0.48,0.18-0.96,0.32-1.45,0.48c-0.89,0.3-1.49,0.72-2.14,1.39c-0.32,0.33-0.69,0.65-0.97,1.01c-0.26,0.34-0.32,0.79-0.58,1.14
				c-0.3,0.42-0.74,0.58-1.09,0.92c-0.21,0.21-0.14,0.48-0.33,0.68C403.37,100.37,403.72,100.72,403.94,100.49L403.94,100.49z"/>
		</g>
	</g>
	<g>
		<g>
			<path d="M404.37,99.94c0.92,1.16,2.81,1.2,4.16,1.24c1.2,0.04,2.4,0.05,3.6,0.07c1.19,0.02,2.39,0.11,3.58,0.02
				c1.93-0.14,3.78-1.12,4.96-2.67c0.21-0.28,0.33-0.48,0.38-0.82c0.04-0.3,0.06-0.54,0.17-0.83c0.09-0.25,0.19-0.49,0.24-0.75
				c0.14-0.82-0.17-1.51-0.71-2.11c-0.21-0.24-0.57,0.11-0.35,0.35c0.32,0.36,0.57,0.75,0.6,1.24s-0.18,0.87-0.33,1.32
				c-0.11,0.33-0.05,0.73-0.2,1.03c-0.19,0.37-0.54,0.7-0.84,0.98c-0.67,0.63-1.48,1.14-2.35,1.45c-0.95,0.33-1.95,0.34-2.94,0.32
				c-1.93-0.03-3.87-0.06-5.8-0.12c-1.22-0.04-2.98-0.05-3.81-1.09C404.52,99.33,404.17,99.69,404.37,99.94L404.37,99.94z"/>
		</g>
	</g>
	<g>
		<g>
			<path d="M443.36,133.98c-0.64,3.29,0.04,6.75,1.92,9.53c0.18,0.27,0.61,0.02,0.43-0.25c-1.8-2.67-2.49-5.99-1.87-9.15
				C443.9,133.8,443.42,133.67,443.36,133.98L443.36,133.98z"/>
		</g>
	</g>
	<g>
		<g>
			<path d="M434.69,150.05c0.93-0.21,1.98-0.43,2.91-0.12c1,0.33,1.41,1.23,1.66,2.18c0.2,0.75,0.28,1.75,0.8,2.37
				c0.29,0.34,0.76,0.47,1.17,0.63c0.59,0.23,1.18,0.47,1.77,0.7c0.3,0.12,0.43-0.36,0.13-0.48c-0.61-0.24-1.23-0.49-1.84-0.73
				c-0.26-0.1-0.55-0.18-0.76-0.37c-0.19-0.17-0.28-0.43-0.36-0.67c-0.3-0.87-0.39-1.8-0.78-2.64c-0.9-1.92-3.07-1.73-4.82-1.34
				C434.24,149.64,434.38,150.12,434.69,150.05L434.69,150.05z"/>
		</g>
	</g>
	<g>
		<g>
			<path d="M413.91,157.65c0.12,1.25,0.24,2.52,0.11,3.78c-0.11,1.11-0.39,2.46-1.33,3.17c-0.25,0.19-0.01,0.62,0.25,0.43
				c0.98-0.74,1.36-1.97,1.53-3.14c0.2-1.41,0.07-2.83-0.06-4.24C414.38,157.34,413.88,157.33,413.91,157.65L413.91,157.65z"/>
		</g>
	</g>
	<g>
		<g>
			<path d="M403.15,85.88c6.25-2.79,13.44-1.32,19.51,1.23c0.59,0.25,0.85-0.72,0.27-0.96c-6.35-2.67-13.77-4.03-20.28-1.13
				C402.06,85.28,402.57,86.14,403.15,85.88L403.15,85.88z"/>
		</g>
	</g>
	<g>
		<g>
			<path d="M387.49,85.95c-2.05-1.26-4.57-0.99-6.82-0.52c-2.35,0.49-4.56,1.22-6.42,2.78c-0.49,0.41,0.22,1.12,0.71,0.71
				c1.67-1.4,3.7-2.03,5.79-2.48c2.04-0.44,4.37-0.77,6.23,0.38C387.53,87.15,388.04,86.29,387.49,85.95L387.49,85.95z"/>
		</g>
	</g>
	<g>
		<g>
			<path d="M388.91,101.12c-0.13-0.51-0.4-1.27-0.84-1.6c-0.38-0.28-0.76-0.55-1.1-0.87c-0.3-0.28-0.55-0.66-0.86-0.92
				c-0.13-0.11-0.3-0.16-0.44-0.27c-0.18-0.14-0.28-0.35-0.46-0.48c-0.34-0.25-0.78-0.42-1.18-0.54c-0.95-0.3-1.95-0.35-2.93-0.44
				c-0.32-0.03-0.32,0.47,0,0.5c0.92,0.08,1.85,0.13,2.73,0.4c0.37,0.11,0.86,0.27,1.16,0.54c0.13,0.12,0.21,0.27,0.35,0.39
				c0.16,0.13,0.36,0.19,0.51,0.33c0.26,0.25,0.47,0.55,0.73,0.8c0.27,0.26,0.56,0.5,0.86,0.72c0.18,0.13,0.36,0.23,0.49,0.42
				c0.03,0.05,0.06,0.12,0.09,0.17c0.18,0.32,0.33,0.64,0.42,0.99C388.51,101.56,388.99,101.43,388.91,101.12L388.91,101.12z"/>
		</g>
	</g>
	<path d="M414.6,93.61c-1.19,0-2.24,0.57-2.93,1.43l0,0c0.07,0.04,0.14,0.09,0.2,0.15l0,0c0.02,0.02,0.12,0.16,0.14,0.18l0,0
		c0,0,0,0.01,0.01,0.01c0,0,0,0.01,0.01,0.01c0.03,0.06,0.07,0.15,0.09,0.21l0,0c0,0,0,0,0,0.01s0.01,0.02,0.01,0.03
		s0,0.02,0.01,0.03c0.01,0.08,0.02,0.16,0.03,0.25c0,0.01,0,0.01,0,0.02c0,0.02,0,0.05,0,0.07c0,0.01,0,0.01,0,0.02
		c-0.01,0.08-0.02,0.16-0.03,0.24c0,0.01,0,0.02-0.01,0.03c0,0.02-0.01,0.04-0.02,0.06c0,0,0,0.01-0.01,0.01c0,0,0,0,0,0.01
		c-0.03,0.07-0.05,0.13-0.08,0.2c0,0.01-0.01,0.02-0.01,0.02s0,0.01-0.01,0.01l0,0c-0.03,0.04-0.1,0.13-0.13,0.16l0,0
		c-0.05,0.05-0.15,0.12-0.17,0.14h-0.01l0,0c0,0-0.18,0.08-0.19,0.08l0,0l0,0l0,0l0,0c-0.03,0-0.07,0.01-0.1,0.01
		c-0.03,0.01-0.07,0.01-0.1,0.01l0,0l0,0l0,0l0,0l0,0c-0.07-0.01-0.14-0.02-0.21-0.03c-0.06-0.03-0.12-0.05-0.18-0.08
		c-0.02,0.14-0.04,0.27-0.04,0.41c0,2.07,1.68,3.75,3.75,3.75s3.75-1.68,3.75-3.75S416.68,93.61,414.6,93.61z"/>
	<path d="M387.33,100.97c-0.15-0.36-0.36-0.73-0.53-1.11c-0.1-0.22-0.18-0.44-0.23-0.66c-0.11-0.45-0.24-0.82-0.54-1.2
		c-0.58-0.74-1.49-1.18-2.43-1.18c-0.72,0-1.38,0.26-1.91,0.68c0.05,0.04,0.11,0.08,0.16,0.12c0.05,0.05,0.1,0.11,0.14,0.18
		c0,0,0,0,0,0.01c0,0,0.08,0.19,0.08,0.2l0,0c0.02,0.07,0.03,0.15,0.03,0.23c-0.01,0.07-0.02,0.15-0.03,0.22l0,0l0,0
		c0,0-0.08,0.19-0.08,0.2l0,0l0,0c0,0-0.13,0.16-0.13,0.17c0,0,0,0-0.01,0.01c-0.05,0.05-0.12,0.1-0.18,0.14
		c-0.07,0.04-0.15,0.07-0.22,0.1c-0.01,0.01-0.03,0.01-0.04,0.01c-0.02,0.01-0.05,0.01-0.08,0.02c-0.08,0.01-0.17,0.03-0.25,0.03
		c-0.01,0-0.02,0-0.03,0c0,0,0,0-0.01,0c-0.04,0-0.07,0.03-0.12,0.03c-0.09-0.01-0.18-0.02-0.26-0.04
		c-0.01-0.01-0.03-0.01-0.04-0.02c-0.07,0.26-0.12,0.52-0.12,0.8c0,1.71,1.38,3.09,3.09,3.09c1.18,0,2.49-0.58,3.48-1.18
		c0.13-0.08,0.28-0.18,0.33-0.33C387.48,101.32,387.4,101.14,387.33,100.97z"/>
	<path d="M391.07,122.68c-0.96,0.37-1.07-0.6-1.27-1.22c-0.13-0.4-0.32-0.78-0.55-1.14c-1.04-1.63-3.26-3.29-1.87-5.39
		c1.03-1.56,3.46-2.38,4.16-4.22c0.27-0.71-0.29-3.69-0.87-4.11c-0.01-0.01,1.49,4.05-1.61,5.82c-1.56,0.89-3.35,2.6-3.07,4.24
		c0.34,2.03,2.24,3.41,2.98,5.25c0.23,0.59,0.52,1.26,1.16,1.47c1.04,0.34,1.86-0.73,2.89-0.61
		C393.02,122.77,392.55,122.1,391.07,122.68z"/>
	<path d="M399.38,121.16c0.36-0.01,0.73,0,1.06,0.13c0.21,0.09,0.44,0.29,0.37,0.51c-0.04,0.12-0.15,0.21-0.27,0.26
		c-0.46,0.23-1,0.17-1.5,0.06c-0.5-0.12-0.98-0.3-1.49-0.32c-0.44-0.02-0.86,0.09-1.29,0.18c0.46-0.25,0.84-0.45,1.36-0.58
		C398.19,121.27,398.78,121.19,399.38,121.16z"/>
	<path d="M408.06,116.64c-0.32-0.36-0.79-0.6-1.24-0.74c-0.3-0.09-0.6-0.15-0.91-0.2c-0.31-0.05-0.77-0.05-0.77-0.05
		s2.73,0.91,2.71,2.42c0,0.46-0.16,0.94-0.28,1.37c-0.22,0.8-0.72,1.71-1.34,2.26c-0.34,0.3-0.75,0.49-1.2,0.5
		c-0.23,0.01-1.64-0.15-1.58-0.1c0.21,0.16,0.41,0.24,0.65,0.34c0.28,0.11,0.51,0.23,0.82,0.27c0.51,0.06,1.06,0,1.49-0.28
		c0.92-0.6,1.42-1.7,1.81-2.69C408.62,118.77,408.82,117.5,408.06,116.64z"/>
	<g>
		<path d="M386.29,91.49c1.73,0.62,3.01,2.61,2.71,4.44C388.58,94.2,387.6,92.7,386.29,91.49L386.29,91.49z"/>
	</g>
	<g>
		<path d="M403.41,88.8c-1.14,1.67-1.68,3.62-2.1,5.58C401.01,92.37,401.73,90.02,403.41,88.8L403.41,88.8z"/>
	</g>
	<g>
		<path d="M377.91,77.63c1.37-0.99,2.97-1.75,4.71-1.88c2.99,0.16,6,0.26,8.99,0.1c0.53-0.03,1.23-0.1,1.74-0.25
			c1.15-0.28,2.32-0.66,3.23-1.35c2.75-1.79,6.1-1.83,9.27-1.8c1.59-0.05,3.15,0.26,4.71,0.51c1.55,0.16,3.15,0.02,4.64-0.49
			c-1.47,0.58-3.07,0.81-4.66,0.73c-1.59-0.19-3.08-0.47-4.69-0.37c-3.09,0.07-6.33,0.06-9,1.84c-1.2,0.87-2.81,1.3-4.3,1.56
			c-3.32,0.27-6.65,0.03-9.95-0.23C381.02,76.05,379.29,76.71,377.91,77.63L377.91,77.63z"/>
	</g>
	<g>
		<path d="M385.52,81.04c3.33,0.12,6.75,0.26,10.05-0.09c1.62-0.35,3.25-0.79,4.48-1.94c2.56-2.11,6.07-2.73,9.21-1.66
			c1.45,0.39,2.69,1.35,4.17,1.61c1.47,0.27,2.96,0.47,4.45,0.58c1.48,0.1,3.01,0.15,4.45-0.29c-1.42,0.51-2.97,0.54-4.46,0.52
			c-1.51-0.05-3.01-0.22-4.5-0.44c-1.52-0.21-2.77-1.16-4.24-1.55c-3.05-0.98-6.29-0.38-8.8,1.6c-0.66,0.55-1.4,1.03-2.21,1.31
			C394.07,82.1,389.68,81.29,385.52,81.04L385.52,81.04z"/>
	</g>
	<path d="M407.84,130.24c-2.57,1.45-5.9,2.21-8.8,1.78c-1.15-0.17-2.28-0.45-3.44-0.55c-0.64-0.05-1.28-0.03-1.92-0.01
		c-0.68,0.03-2.29-0.51-2.84-0.82c-1.13-0.64-0.88,0.28-1.04,1.52c-0.02,0.19,0.35-1.11,1.08-0.77c0.4,0.18,1.21,0.72,1.62,0.89
		c0.81,0.34,1.85,0.08,2.71,0.12c2.36,0.12,4.68,0.77,7.04,0.78c4.56,0.02,10.57-5.44,10.77-6.07
		C413.22,126.49,410.14,128.95,407.84,130.24z"/>
	<g>
		<g>
			<path d="M374.6,97.07c0.47-0.02,0.94-0.11,1.33-0.38c0.39-0.26,0.56-0.33,1.02-0.25c0.26,0.04,0.51,0.11,0.75,0.19
				c0.52,0.16,0.97,0.21,1.51,0.08c0.31-0.07,0.59-0.23,0.92-0.25c0.38-0.03,0.78,0.02,1.15,0.08c2.77,0.47,5.12,2.1,6.03,4.84
				c0.1,0.3,0.58,0.17,0.48-0.13c-0.89-2.68-3.12-4.5-5.84-5.08c-0.65-0.14-1.34-0.28-2-0.18c-0.73,0.1-1.23,0.43-1.99,0.21
				c-0.52-0.15-1.11-0.37-1.67-0.27c-0.23,0.04-0.35,0.12-0.53,0.26c-0.36,0.27-0.72,0.38-1.17,0.4
				C374.28,96.58,374.28,97.08,374.6,97.07L374.6,97.07z"/>
		</g>
	</g>
	<g>
		<g>
			<path d="M375.66,96.52c0.01,0.84-0.06,1.7,0.2,2.51c0.12,0.39,0.35,0.73,0.47,1.12c0.13,0.42,0.07,0.86,0.09,1.29
				c0.03,0.62,0.18,1.26,0.76,1.58c0.55,0.3,1.31,0.22,1.91,0.23c1.84,0.01,3.68-0.11,5.5-0.35c1.14-0.15,2.48-0.48,3.18-1.47
				c0.19-0.26-0.25-0.51-0.43-0.25c-0.7,0.98-2.2,1.16-3.3,1.29c-1.5,0.18-3.01,0.27-4.51,0.28c-0.61,0-1.41,0.11-1.99-0.12
				c-0.81-0.31-0.58-1.38-0.64-2.06c-0.05-0.65-0.42-1.15-0.59-1.76c-0.21-0.74-0.15-1.52-0.15-2.28
				C376.16,96.2,375.66,96.2,375.66,96.52L375.66,96.52z"/>
		</g>
	</g>
	<g>
		<g>
			<path d="M403.94,100.49c0.21-0.23,0.18-0.49,0.37-0.71c0.18-0.21,0.54-0.35,0.75-0.56c0.24-0.24,0.45-0.52,0.6-0.82
				c0.23-0.46,0.41-0.81,0.78-1.19c0.74-0.76,1.36-1.4,2.39-1.74c0.83-0.28,1.64-0.6,2.47-0.9c0.86-0.31,1.84-0.27,2.74-0.44
				c1.04-0.19,2.13-0.42,3.16-0.06c0.38,0.13,0.74,0.32,1.14,0.4c0.47,0.09,0.94,0.04,1.42,0.01c0.9-0.05,1.92-0.04,2.64,0.58
				c0.24,0.21,0.6-0.14,0.35-0.35c-0.6-0.52-1.3-0.68-2.09-0.74c-0.53-0.04-1.05,0.04-1.58,0.05c-0.58,0.01-1.04-0.15-1.57-0.36
				c-0.88-0.34-1.81-0.31-2.73-0.17c-0.57,0.09-1.12,0.23-1.69,0.3c-0.48,0.06-0.97,0.07-1.45,0.17c-0.53,0.11-1,0.37-1.5,0.55
				c-0.48,0.18-0.96,0.32-1.45,0.48c-0.89,0.3-1.49,0.72-2.14,1.39c-0.32,0.33-0.69,0.65-0.97,1.01c-0.26,0.34-0.32,0.79-0.58,1.14
				c-0.3,0.42-0.74,0.58-1.09,0.92c-0.21,0.21-0.14,0.48-0.33,0.68C403.37,100.37,403.72,100.72,403.94,100.49L403.94,100.49z"/>
		</g>
	</g>
	<g>
		<g>
			<path d="M404.37,99.94c0.92,1.16,2.81,1.2,4.16,1.24c1.2,0.04,2.4,0.05,3.6,0.07c1.19,0.02,2.39,0.11,3.58,0.02
				c1.93-0.14,3.78-1.12,4.96-2.67c0.21-0.28,0.33-0.48,0.38-0.82c0.04-0.3,0.06-0.54,0.17-0.83c0.09-0.25,0.19-0.49,0.24-0.75
				c0.14-0.82-0.17-1.51-0.71-2.11c-0.21-0.24-0.57,0.11-0.35,0.35c0.32,0.36,0.57,0.75,0.6,1.24s-0.18,0.87-0.33,1.32
				c-0.11,0.33-0.05,0.73-0.2,1.03c-0.19,0.37-0.54,0.7-0.84,0.98c-0.67,0.63-1.48,1.14-2.35,1.45c-0.95,0.33-1.95,0.34-2.94,0.32
				c-1.93-0.03-3.87-0.06-5.8-0.12c-1.22-0.04-2.98-0.05-3.81-1.09C404.52,99.33,404.17,99.69,404.37,99.94L404.37,99.94z"/>
		</g>
	</g>
	<g>
		<g>
			<path d="M443.11,133.91c-0.66,3.35,0.03,6.89,1.94,9.73c0.36,0.53,1.22,0.03,0.86-0.5c-1.76-2.61-2.45-5.86-1.84-8.96
				C444.2,133.55,443.24,133.28,443.11,133.91L443.11,133.91z"/>
		</g>
	</g>
	<g>
		<g>
			<path d="M434.76,150.29c0.89-0.2,1.89-0.41,2.78-0.12c0.91,0.3,1.26,1.15,1.48,2c0.21,0.8,0.3,1.83,0.86,2.48
				c0.33,0.38,0.83,0.52,1.28,0.7c0.59,0.23,1.18,0.47,1.77,0.7c0.6,0.24,0.86-0.73,0.27-0.96c-0.61-0.24-1.23-0.49-1.84-0.73
				c-0.22-0.09-0.5-0.16-0.68-0.33c-0.14-0.13-0.21-0.36-0.27-0.54c-0.31-0.89-0.4-1.84-0.81-2.7c-0.95-2.03-3.24-1.87-5.1-1.46
				C433.86,149.46,434.13,150.43,434.76,150.29L434.76,150.29z"/>
		</g>
	</g>
	<g>
		<g>
			<path d="M413.66,157.65c0.12,1.25,0.24,2.52,0.11,3.78c-0.1,1-0.35,2.31-1.21,2.95c-0.22,0.16-0.32,0.43-0.18,0.68
				c0.12,0.21,0.47,0.34,0.68,0.18c1.04-0.78,1.46-2.04,1.64-3.29c0.2-1.43,0.09-2.87-0.05-4.31
				C414.6,157.02,413.6,157.01,413.66,157.65L413.66,157.65z"/>
		</g>
	</g>
	<g>
		<g>
			<path d="M403.15,85.88c6.25-2.79,13.44-1.32,19.51,1.23c0.59,0.25,0.85-0.72,0.27-0.96c-6.35-2.67-13.77-4.03-20.28-1.13
				C402.06,85.28,402.57,86.14,403.15,85.88L403.15,85.88z"/>
		</g>
	</g>
	<g>
		<g>
			<path d="M387.49,85.95c-2.05-1.26-4.57-0.99-6.82-0.52c-2.35,0.49-4.56,1.22-6.42,2.78c-0.49,0.41,0.22,1.12,0.71,0.71
				c1.67-1.4,3.7-2.03,5.79-2.48c2.04-0.44,4.37-0.77,6.23,0.38C387.53,87.15,388.04,86.29,387.49,85.95L387.49,85.95z"/>
		</g>
	</g>
	<g>
		<g>
			<path d="M388.91,101.12c-0.13-0.51-0.4-1.27-0.84-1.6c-0.38-0.28-0.76-0.55-1.1-0.87c-0.3-0.28-0.55-0.66-0.86-0.92
				c-0.13-0.11-0.3-0.16-0.44-0.27c-0.18-0.14-0.28-0.35-0.46-0.48c-0.34-0.25-0.78-0.42-1.18-0.54c-0.95-0.3-1.95-0.35-2.93-0.44
				c-0.32-0.03-0.32,0.47,0,0.5c0.92,0.08,1.85,0.13,2.73,0.4c0.37,0.11,0.86,0.27,1.16,0.54c0.13,0.12,0.21,0.27,0.35,0.39
				c0.16,0.13,0.36,0.19,0.51,0.33c0.26,0.25,0.47,0.55,0.73,0.8c0.27,0.26,0.56,0.5,0.86,0.72c0.18,0.13,0.36,0.23,0.49,0.42
				c0.03,0.05,0.06,0.12,0.09,0.17c0.18,0.32,0.33,0.64,0.42,0.99C388.51,101.56,388.99,101.43,388.91,101.12L388.91,101.12z"/>
		</g>
	</g>
	<path d="M414.6,93.61c-1.19,0-2.24,0.57-2.93,1.43l0,0c0.07,0.04,0.14,0.09,0.2,0.15l0,0c0.02,0.02,0.12,0.16,0.14,0.18l0,0
		c0,0,0,0.01,0.01,0.01c0,0,0,0.01,0.01,0.01c0.03,0.06,0.07,0.15,0.09,0.21l0,0c0,0,0,0,0,0.01s0.01,0.02,0.01,0.03
		s0,0.02,0.01,0.03c0.01,0.08,0.02,0.16,0.03,0.25c0,0.01,0,0.01,0,0.02c0,0.02,0,0.05,0,0.07c0,0.01,0,0.01,0,0.02
		c-0.01,0.08-0.02,0.16-0.03,0.24c0,0.01,0,0.02-0.01,0.03c0,0.02-0.01,0.04-0.02,0.06c0,0,0,0.01-0.01,0.01c0,0,0,0,0,0.01
		c-0.03,0.07-0.05,0.13-0.08,0.2c0,0.01-0.01,0.02-0.01,0.02s0,0.01-0.01,0.01l0,0c-0.03,0.04-0.1,0.13-0.13,0.16l0,0
		c-0.05,0.05-0.15,0.12-0.17,0.14h-0.01l0,0c0,0-0.18,0.08-0.19,0.08l0,0l0,0l0,0l0,0c-0.03,0-0.07,0.01-0.1,0.01
		c-0.03,0.01-0.07,0.01-0.1,0.01l0,0l0,0l0,0l0,0l0,0c-0.07-0.01-0.14-0.02-0.21-0.03c-0.06-0.03-0.12-0.05-0.18-0.08
		c-0.02,0.14-0.04,0.27-0.04,0.41c0,2.07,1.68,3.75,3.75,3.75s3.75-1.68,3.75-3.75S416.68,93.61,414.6,93.61z"/>
	<path d="M387.33,100.97c-0.15-0.36-0.36-0.73-0.53-1.11c-0.1-0.22-0.18-0.44-0.23-0.66c-0.11-0.45-0.24-0.82-0.54-1.2
		c-0.58-0.74-1.49-1.18-2.43-1.18c-0.72,0-1.38,0.26-1.91,0.68c0.05,0.04,0.11,0.08,0.16,0.12c0.05,0.05,0.1,0.11,0.14,0.18
		c0,0,0,0,0,0.01c0,0,0.08,0.19,0.08,0.2l0,0c0.02,0.07,0.03,0.15,0.03,0.23c-0.01,0.07-0.02,0.15-0.03,0.22l0,0l0,0
		c0,0-0.08,0.19-0.08,0.2l0,0l0,0c0,0-0.13,0.16-0.13,0.17c0,0,0,0-0.01,0.01c-0.05,0.05-0.12,0.1-0.18,0.14
		c-0.07,0.04-0.15,0.07-0.22,0.1c-0.01,0.01-0.03,0.01-0.04,0.01c-0.02,0.01-0.05,0.01-0.08,0.02c-0.08,0.01-0.17,0.03-0.25,0.03
		c-0.01,0-0.02,0-0.03,0c0,0,0,0-0.01,0c-0.04,0-0.07,0.03-0.12,0.03c-0.09-0.01-0.18-0.02-0.26-0.04
		c-0.01-0.01-0.03-0.01-0.04-0.02c-0.07,0.26-0.12,0.52-0.12,0.8c0,1.71,1.38,3.09,3.09,3.09c1.18,0,2.49-0.58,3.48-1.18
		c0.13-0.08,0.28-0.18,0.33-0.33C387.48,101.32,387.4,101.14,387.33,100.97z"/>
	<path d="M391.07,122.68c-0.96,0.37-1.07-0.6-1.27-1.22c-0.13-0.4-0.32-0.78-0.55-1.14c-1.04-1.63-3.26-3.29-1.87-5.39
		c1.03-1.56,3.46-2.38,4.16-4.22c0.27-0.71-0.29-3.69-0.87-4.11c-0.01-0.01,1.49,4.05-1.61,5.82c-1.56,0.89-3.35,2.6-3.07,4.24
		c0.34,2.03,2.24,3.41,2.98,5.25c0.23,0.59,0.52,1.26,1.16,1.47c1.04,0.34,1.86-0.73,2.89-0.61
		C393.02,122.77,392.55,122.1,391.07,122.68z"/>
	<path d="M399.38,121.16c0.36-0.01,0.73,0,1.06,0.13c0.21,0.09,0.44,0.29,0.37,0.51c-0.04,0.12-0.15,0.21-0.27,0.26
		c-0.46,0.23-1,0.17-1.5,0.06c-0.5-0.12-0.98-0.3-1.49-0.32c-0.44-0.02-0.86,0.09-1.29,0.18c0.46-0.25,0.84-0.45,1.36-0.58
		C398.19,121.27,398.78,121.19,399.38,121.16z"/>
	<path d="M408.06,116.64c-0.32-0.36-0.79-0.6-1.24-0.74c-0.3-0.09-0.6-0.15-0.91-0.2c-0.31-0.05-0.77-0.05-0.77-0.05
		s2.73,0.91,2.71,2.42c0,0.46-0.16,0.94-0.28,1.37c-0.22,0.8-0.72,1.71-1.34,2.26c-0.34,0.3-0.75,0.49-1.2,0.5
		c-0.23,0.01-1.64-0.15-1.58-0.1c0.21,0.16,0.41,0.24,0.65,0.34c0.28,0.11,0.51,0.23,0.82,0.27c0.51,0.06,1.06,0,1.49-0.28
		c0.92-0.6,1.42-1.7,1.81-2.69C408.62,118.77,408.82,117.5,408.06,116.64z"/>
	<g>
		<path d="M386.29,91.49c1.73,0.62,3.01,2.61,2.71,4.44C388.58,94.2,387.6,92.7,386.29,91.49L386.29,91.49z"/>
	</g>
	<g>
		<path d="M403.41,88.8c-1.14,1.67-1.68,3.62-2.1,5.58C401.01,92.37,401.73,90.02,403.41,88.8L403.41,88.8z"/>
	</g>
	<g>
		<path d="M377.91,77.63c1.37-0.99,2.97-1.75,4.71-1.88c2.99,0.16,6,0.26,8.99,0.1c0.53-0.03,1.23-0.1,1.74-0.25
			c1.15-0.28,2.32-0.66,3.23-1.35c2.75-1.79,6.1-1.83,9.27-1.8c1.59-0.05,3.15,0.26,4.71,0.51c1.55,0.16,3.15,0.02,4.64-0.49
			c-1.47,0.58-3.07,0.81-4.66,0.73c-1.59-0.19-3.08-0.47-4.69-0.37c-3.09,0.07-6.33,0.06-9,1.84c-1.2,0.87-2.81,1.3-4.3,1.56
			c-3.32,0.27-6.65,0.03-9.95-0.23C381.02,76.05,379.29,76.71,377.91,77.63L377.91,77.63z"/>
	</g>
	<g>
		<path d="M385.52,81.04c3.33,0.12,6.75,0.26,10.05-0.09c1.62-0.35,3.25-0.79,4.48-1.94c2.56-2.11,6.07-2.73,9.21-1.66
			c1.45,0.39,2.69,1.35,4.17,1.61c1.47,0.27,2.96,0.47,4.45,0.58c1.48,0.1,3.01,0.15,4.45-0.29c-1.42,0.51-2.97,0.54-4.46,0.52
			c-1.51-0.05-3.01-0.22-4.5-0.44c-1.52-0.21-2.77-1.16-4.24-1.55c-3.05-0.98-6.29-0.38-8.8,1.6c-0.66,0.55-1.4,1.03-2.21,1.31
			C394.07,82.1,389.68,81.29,385.52,81.04L385.52,81.04z"/>
	</g>
	<path d="M407.84,130.24c-2.57,1.45-5.9,2.21-8.8,1.78c-1.15-0.17-2.28-0.45-3.44-0.55c-0.64-0.05-1.28-0.03-1.92-0.01
		c-0.68,0.03-2.29-0.51-2.84-0.82c-1.13-0.64-0.88,0.28-1.04,1.52c-0.02,0.19,0.35-1.11,1.08-0.77c0.4,0.18,1.21,0.72,1.62,0.89
		c0.81,0.34,1.85,0.08,2.71,0.12c2.36,0.12,4.68,0.77,7.04,0.78c4.56,0.02,10.57-5.44,10.77-6.07
		C413.22,126.49,410.14,128.95,407.84,130.24z"/>
</g>
</svg>
