<?xml version="1.0" encoding="utf-8"?>
<!-- Generator: Adobe Illustrator 28.0.0, SVG Export Plug-In . SVG Version: 6.00 Build 0)  -->
<svg version="1.1" id="Layer_1" xmlns="http://www.w3.org/2000/svg" xmlns:xlink="http://www.w3.org/1999/xlink" x="0px" y="0px"
	 viewBox="0 0 150 150" style="enable-background:new 0 0 150 150;" xml:space="preserve">
<style type="text/css">
	.st0{fill:#915A3E;}
	.st1{fill:#A6ABB5;}
	.st2{fill:#959AA3;}
	.st3{fill:#A36346;}
	.st4{clip-path:url(#SVGID_00000131358515198376531260000002229560936413955258_);fill:#1D1D1B;}
	.st5{clip-path:url(#SVGID_00000131358515198376531260000002229560936413955258_);fill:#1F1E1C;}
	.st6{clip-path:url(#SVGID_00000131358515198376531260000002229560936413955258_);fill:#201F1C;}
	.st7{clip-path:url(#SVGID_00000131358515198376531260000002229560936413955258_);fill:#21201C;}
	.st8{clip-path:url(#SVGID_00000131358515198376531260000002229560936413955258_);fill:#22201D;}
	.st9{clip-path:url(#SVGID_00000131358515198376531260000002229560936413955258_);fill:#23211D;}
	.st10{clip-path:url(#SVGID_00000131358515198376531260000002229560936413955258_);fill:#24211D;}
	.st11{clip-path:url(#SVGID_00000131358515198376531260000002229560936413955258_);fill:#26221E;}
	.st12{clip-path:url(#SVGID_00000131358515198376531260000002229560936413955258_);fill:#27221E;}
	.st13{clip-path:url(#SVGID_00000131358515198376531260000002229560936413955258_);fill:#28231E;}
	.st14{clip-path:url(#SVGID_00000131358515198376531260000002229560936413955258_);fill:#29231F;}
	.st15{clip-path:url(#SVGID_00000131358515198376531260000002229560936413955258_);fill:#2A241F;}
	.st16{clip-path:url(#SVGID_00000131358515198376531260000002229560936413955258_);fill:#2B251F;}
	.st17{clip-path:url(#SVGID_00000131358515198376531260000002229560936413955258_);fill:#2C2520;}
	.st18{clip-path:url(#SVGID_00000131358515198376531260000002229560936413955258_);fill:#2D2620;}
	.st19{clip-path:url(#SVGID_00000131358515198376531260000002229560936413955258_);fill:#2E2620;}
	.st20{clip-path:url(#SVGID_00000131358515198376531260000002229560936413955258_);fill:#2F2721;}
	.st21{clip-path:url(#SVGID_00000131358515198376531260000002229560936413955258_);fill:#302721;}
	.st22{clip-path:url(#SVGID_00000131358515198376531260000002229560936413955258_);fill:#312821;}
	.st23{clip-path:url(#SVGID_00000131358515198376531260000002229560936413955258_);fill:#332922;}
	.st24{clip-path:url(#SVGID_00000131358515198376531260000002229560936413955258_);fill:#342922;}
	.st25{clip-path:url(#SVGID_00000131358515198376531260000002229560936413955258_);fill:#352A22;}
	.st26{clip-path:url(#SVGID_00000131358515198376531260000002229560936413955258_);fill:#362A22;}
	.st27{clip-path:url(#SVGID_00000131358515198376531260000002229560936413955258_);fill:#372B23;}
	.st28{clip-path:url(#SVGID_00000131358515198376531260000002229560936413955258_);fill:#382B23;}
	.st29{clip-path:url(#SVGID_00000131358515198376531260000002229560936413955258_);fill:#392C23;}
	.st30{clip-path:url(#SVGID_00000131358515198376531260000002229560936413955258_);fill:#3A2C24;}
	.st31{clip-path:url(#SVGID_00000131358515198376531260000002229560936413955258_);fill:#3B2D24;}
	.st32{clip-path:url(#SVGID_00000131358515198376531260000002229560936413955258_);fill:#3C2E24;}
	.st33{clip-path:url(#SVGID_00000131358515198376531260000002229560936413955258_);fill:#3D2E25;}
	.st34{clip-path:url(#SVGID_00000131358515198376531260000002229560936413955258_);fill:#3E2F25;}
	.st35{clip-path:url(#SVGID_00000131358515198376531260000002229560936413955258_);fill:#3F2F25;}
	.st36{clip-path:url(#SVGID_00000131358515198376531260000002229560936413955258_);fill:#403026;}
	.st37{clip-path:url(#SVGID_00000131358515198376531260000002229560936413955258_);fill:#413026;}
	.st38{clip-path:url(#SVGID_00000131358515198376531260000002229560936413955258_);fill:#423126;}
	.st39{clip-path:url(#SVGID_00000131358515198376531260000002229560936413955258_);fill:#433127;}
	.st40{clip-path:url(#SVGID_00000131358515198376531260000002229560936413955258_);fill:#443227;}
	.st41{clip-path:url(#SVGID_00000131358515198376531260000002229560936413955258_);fill:#453227;}
	.st42{clip-path:url(#SVGID_00000131358515198376531260000002229560936413955258_);fill:#473328;}
	.st43{clip-path:url(#SVGID_00000131358515198376531260000002229560936413955258_);fill:#483428;}
	.st44{clip-path:url(#SVGID_00000131358515198376531260000002229560936413955258_);fill:#493428;}
	.st45{clip-path:url(#SVGID_00000131358515198376531260000002229560936413955258_);fill:#4A3528;}
	.st46{clip-path:url(#SVGID_00000131358515198376531260000002229560936413955258_);fill:#4B3529;}
	.st47{clip-path:url(#SVGID_00000131358515198376531260000002229560936413955258_);fill:#4C3629;}
	.st48{clip-path:url(#SVGID_00000131358515198376531260000002229560936413955258_);fill:#4D3629;}
	.st49{clip-path:url(#SVGID_00000131358515198376531260000002229560936413955258_);fill:#4E372A;}
	.st50{clip-path:url(#SVGID_00000131358515198376531260000002229560936413955258_);fill:#4F372A;}
	.st51{clip-path:url(#SVGID_00000131358515198376531260000002229560936413955258_);fill:#50382A;}
	.st52{clip-path:url(#SVGID_00000131358515198376531260000002229560936413955258_);fill:#51382B;}
	.st53{clip-path:url(#SVGID_00000131358515198376531260000002229560936413955258_);fill:#52392B;}
	.st54{clip-path:url(#SVGID_00000131358515198376531260000002229560936413955258_);fill:#533A2B;}
	.st55{clip-path:url(#SVGID_00000131358515198376531260000002229560936413955258_);fill:#543A2C;}
	.st56{clip-path:url(#SVGID_00000131358515198376531260000002229560936413955258_);fill:#553B2C;}
	.st57{clip-path:url(#SVGID_00000131358515198376531260000002229560936413955258_);fill:#563B2C;}
	.st58{clip-path:url(#SVGID_00000131358515198376531260000002229560936413955258_);fill:#573C2D;}
	.st59{clip-path:url(#SVGID_00000131358515198376531260000002229560936413955258_);fill:#583C2D;}
	.st60{clip-path:url(#SVGID_00000131358515198376531260000002229560936413955258_);fill:#593D2D;}
	.st61{clip-path:url(#SVGID_00000131358515198376531260000002229560936413955258_);fill:#5A3D2D;}
	.st62{clip-path:url(#SVGID_00000131358515198376531260000002229560936413955258_);fill:#5B3E2E;}
	.st63{clip-path:url(#SVGID_00000131358515198376531260000002229560936413955258_);fill:#5C3F2E;}
	.st64{clip-path:url(#SVGID_00000131358515198376531260000002229560936413955258_);fill:#5D3F2E;}
	.st65{clip-path:url(#SVGID_00000131358515198376531260000002229560936413955258_);fill:#5E402F;}
	.st66{clip-path:url(#SVGID_00000131358515198376531260000002229560936413955258_);fill:#5F402F;}
	.st67{clip-path:url(#SVGID_00000131358515198376531260000002229560936413955258_);fill:#60412F;}
	.st68{clip-path:url(#SVGID_00000131358515198376531260000002229560936413955258_);fill:#624130;}
	.st69{clip-path:url(#SVGID_00000131358515198376531260000002229560936413955258_);fill:#634230;}
	.st70{clip-path:url(#SVGID_00000131358515198376531260000002229560936413955258_);fill:#644230;}
	.st71{clip-path:url(#SVGID_00000131358515198376531260000002229560936413955258_);fill:#654331;}
	.st72{clip-path:url(#SVGID_00000131358515198376531260000002229560936413955258_);fill:#664331;}
	.st73{clip-path:url(#SVGID_00000131358515198376531260000002229560936413955258_);fill:#674431;}
	.st74{clip-path:url(#SVGID_00000131358515198376531260000002229560936413955258_);fill:#684532;}
	.st75{clip-path:url(#SVGID_00000131358515198376531260000002229560936413955258_);fill:#694532;}
	.st76{clip-path:url(#SVGID_00000131358515198376531260000002229560936413955258_);fill:#6A4632;}
	.st77{clip-path:url(#SVGID_00000131358515198376531260000002229560936413955258_);fill:#6B4632;}
	.st78{clip-path:url(#SVGID_00000131358515198376531260000002229560936413955258_);fill:#6C4733;}
	.st79{clip-path:url(#SVGID_00000131358515198376531260000002229560936413955258_);fill:#6D4733;}
	.st80{clip-path:url(#SVGID_00000131358515198376531260000002229560936413955258_);fill:#6E4833;}
	.st81{clip-path:url(#SVGID_00000131358515198376531260000002229560936413955258_);fill:#6F4834;}
	.st82{clip-path:url(#SVGID_00000131358515198376531260000002229560936413955258_);fill:#704934;}
	.st83{clip-path:url(#SVGID_00000131358515198376531260000002229560936413955258_);fill:#714A34;}
	.st84{clip-path:url(#SVGID_00000131358515198376531260000002229560936413955258_);fill:#724A35;}
	.st85{clip-path:url(#SVGID_00000131358515198376531260000002229560936413955258_);fill:#734B35;}
	.st86{clip-path:url(#SVGID_00000131358515198376531260000002229560936413955258_);fill:#744B35;}
	.st87{clip-path:url(#SVGID_00000131358515198376531260000002229560936413955258_);fill:#754C36;}
	.st88{clip-path:url(#SVGID_00000131358515198376531260000002229560936413955258_);fill:#764C36;}
	.st89{clip-path:url(#SVGID_00000131358515198376531260000002229560936413955258_);fill:#774D36;}
	.st90{clip-path:url(#SVGID_00000131358515198376531260000002229560936413955258_);fill:#784D37;}
	.st91{clip-path:url(#SVGID_00000131358515198376531260000002229560936413955258_);fill:#794E37;}
	.st92{clip-path:url(#SVGID_00000131358515198376531260000002229560936413955258_);fill:#7A4E37;}
	.st93{clip-path:url(#SVGID_00000131358515198376531260000002229560936413955258_);fill:#7B4F37;}
	.st94{clip-path:url(#SVGID_00000131358515198376531260000002229560936413955258_);fill:#7C4F38;}
	.st95{clip-path:url(#SVGID_00000131358515198376531260000002229560936413955258_);fill:#7D5038;}
	.st96{clip-path:url(#SVGID_00000131358515198376531260000002229560936413955258_);fill:#7E5038;}
	.st97{clip-path:url(#SVGID_00000131358515198376531260000002229560936413955258_);fill:#7F5139;}
	.st98{clip-path:url(#SVGID_00000131358515198376531260000002229560936413955258_);fill:#815239;}
	.st99{clip-path:url(#SVGID_00000131358515198376531260000002229560936413955258_);fill:#825239;}
	.st100{clip-path:url(#SVGID_00000131358515198376531260000002229560936413955258_);fill:#83533A;}
	.st101{clip-path:url(#SVGID_00000131358515198376531260000002229560936413955258_);fill:#84533A;}
	.st102{clip-path:url(#SVGID_00000131358515198376531260000002229560936413955258_);fill:#85543A;}
	.st103{clip-path:url(#SVGID_00000131358515198376531260000002229560936413955258_);fill:#86543B;}
	.st104{clip-path:url(#SVGID_00000131358515198376531260000002229560936413955258_);fill:#87553B;}
	.st105{clip-path:url(#SVGID_00000131358515198376531260000002229560936413955258_);fill:#88553B;}
	.st106{clip-path:url(#SVGID_00000131358515198376531260000002229560936413955258_);fill:#89563C;}
	.st107{clip-path:url(#SVGID_00000131358515198376531260000002229560936413955258_);fill:#8A563C;}
	.st108{clip-path:url(#SVGID_00000131358515198376531260000002229560936413955258_);fill:#8B573C;}
	.st109{clip-path:url(#SVGID_00000131358515198376531260000002229560936413955258_);fill:#8C573C;}
	.st110{clip-path:url(#SVGID_00000131358515198376531260000002229560936413955258_);fill:#8D583D;}
	.st111{clip-path:url(#SVGID_00000131358515198376531260000002229560936413955258_);fill:#8E583D;}
	.st112{clip-path:url(#SVGID_00000131358515198376531260000002229560936413955258_);fill:#8F593D;}
	.st113{clip-path:url(#SVGID_00000131358515198376531260000002229560936413955258_);fill:#90593E;}
	.st114{clip-path:url(#SVGID_00000131358515198376531260000002229560936413955258_);fill:#915A3E;}
	.st115{fill:url(#SVGID_00000123440336655372562970000007745082348698422681_);}
	.st116{fill:url(#SVGID_00000112633274995555459330000015336399755685233282_);}
	.st117{fill:url(#SVGID_00000141440664017793219560000010582956754872087953_);}
	.st118{fill:url(#SVGID_00000174561861225682509630000005746742220794507655_);}
	.st119{fill:#E1E1E5;}
	.st120{fill:#B8775A;}
	.st121{stroke:#000000;stroke-width:0.5;stroke-miterlimit:10;}
	.st122{stroke:#000000;stroke-width:0.75;stroke-miterlimit:10;}
	.st123{fill:none;stroke:#000000;stroke-width:1.5;stroke-linecap:round;stroke-linejoin:round;stroke-miterlimit:10;}
	.st124{fill:none;stroke:#000000;stroke-width:0.5;stroke-linecap:round;stroke-linejoin:round;stroke-miterlimit:10;}
	.st125{fill:#FFFFFF;}
</style>
<g id="Basic_Pickaxe">
	<path class="st0" d="M114.92,44.69c-0.13-0.67-0.49-1.28-0.95-1.79c-0.7-0.78-1.64-1.36-2.53-1.91c-0.21-0.13-0.42-0.26-0.66-0.3
		c-0.47-0.08-0.92,0.19-1.28,0.5c-1.18,1.02-2.42,1.95-3.6,2.98c-1.72,1.51-3.38,3.09-5.04,4.67c-3.4,3.24-6.81,6.46-10.22,9.68
		c-0.2,0.19-0.41,0.38-0.61,0.57c-1.82,1.66-3.62,3.35-5.41,5.05c-1.81,1.71-3.63,3.42-5.45,5.13c-0.91,0.86-1.82,1.71-2.73,2.56
		c-0.22,0.21-0.46,0.41-0.7,0.62c-0.84,0.3-1.78,1.4-2.23,1.79c-1.01,0.88-2.01,1.78-3.02,2.68c-2.1,1.88-4.19,3.78-6.28,5.68
		c-2.09,1.9-4.17,3.8-6.28,5.69c-1.02,0.91-2.03,1.82-3.05,2.73c-0.89,0.8-1.75,1.58-2.46,2.52c-0.52,0.49-1.04,0.97-1.56,1.44
		c-1.91,1.72-3.81,3.47-5.71,5.21c-3.73,3.41-7.46,6.82-11.19,10.23c-7.49,6.85-14.92,13.76-22.4,20.62
		c-2.17,1.99-6.69,4.86-3.96,8.26c0.73,0.91,2.12,1.58,3.3,1.36c1.17-0.21,2.18-1.71,3.05-2.5c0.27-0.25,0.54-0.49,0.81-0.74
		c2.25-2.05,4.48-4.12,6.72-6.2c1.11-1.03,2.31-2.01,3.35-3.1c0.95-1,2.1-1.6,3.22-2.4c0.58-0.42,1.12-0.91,1.64-1.4
		c0.97-0.9,1.92-1.82,2.87-2.74c2.12-2.04,4.38-3.95,6.46-6.02c2.12-2.11,4.27-4.18,6.45-6.23c2.2-2.08,4.42-4.13,6.66-6.17
		c1.12-1.02,2.24-2.04,3.35-3.05c0.56-0.51,1.12-1.02,1.68-1.52c0.46-0.41,0.92-1.01,1.43-1.34c0.32-0.21,0.6-0.51,0.88-0.77
		c0.5-0.49,1.01-0.98,1.51-1.46c0.49-0.47,0.97-0.93,1.46-1.39c0.36-0.34,0.84-0.7,1.17-1.12c0.39-0.36,0.79-0.71,1.18-1.07
		c2.01-1.83,4.02-3.66,6.02-5.5c3.95-3.6,7.91-7.18,11.87-10.76c1.12-1.01,2.23-2.02,3.35-3.03c1.14-1.03,2.41-1.94,3.54-3.01
		c1.19-1.13,2.32-2.32,3.52-3.43c1.54-1.43,3.2-2.75,4.78-4.14c1.65-1.45,3.23-2.99,4.79-4.55c0.72-0.72,1.43-1.43,2.2-2.08
		c0.82-0.7,1.63-1.43,2.44-2.14c1.1-0.97,2.18-1.95,3.26-2.94c0.62-0.56,1.14-1.22,1.78-1.75c0.69-0.58,1.37-1.17,2.01-1.81
		c0.23-0.24,0.47-0.49,0.57-0.81C114.98,45.23,114.96,44.97,114.92,44.69z"/>
	<path class="st0" d="M128.63,29.21c-0.03-0.06-0.07-0.12-0.1-0.18c-0.34-0.61-0.98-0.87-1.54-1.26c-0.29-0.2-0.55-0.48-0.9-0.54
		c-0.4-0.07-0.79,0.17-1.12,0.41c-1.02,0.74-1.9,1.57-2.75,2.48c-0.1,0.11-0.21,0.23-0.18,0.38c0.02,0.11,0.1,0.19,0.18,0.26
		c0.7,0.63,1.43,1.22,2.07,1.91c0.31,0.33,0.56,0.69,0.82,1.06c0.19,0.28,0.47,0.48,0.62,0.79c0.1,0.2,0.19,0.45,0.4,0.52
		c0.14,0.04,0.3-0.02,0.41-0.12s0.19-0.23,0.27-0.35c0.35-0.5,0.79-0.86,1.28-1.19c0.57-0.38,1.05-0.97,1.55-1.44
		c0.07-0.07,0.14-0.14,0.19-0.22c0.08-0.17,0.02-0.37-0.05-0.54C129.52,30.48,129.02,29.86,128.63,29.21z"/>
	<path class="st1" d="M76.58,16.16l1.37,3.11c0,0,15.81,2.02,33.19,19.17l-2.19,2.08l-0.04,0.88l0.84-0.49l1.03-0.23l1.24,0.54
		l1.16,0.94l1.39,1.67l0.38,1.21l-0.62,1.24c0,0-0.55,0.25-0.42,0.47c0.13,0.22,0.59,0.41,0.59,0.41l1.31-0.71l1.57-1.47l6.67,8.06
		l9.03,12.77c0,0,4.38,7.06,4.43,7.14c0.05,0.08,4.96,8.61,5.75,10.34s1.18,2.33,1.18,2.33l0.31-0.44l-2.73-12.55l-3.51-10.52
		c0,0-3.81-10.38-9.36-18.86l-3.82-5.6l0.81-0.97l0.16-1.35l-2.17-2.99l-2.95-2.17l-1.27,0.41l-8.98-9.49l-9.83-7.72l-7.02-4.25
		l-6.61-2.87l-3.65-0.76l-1.47,0.88L80.62,9L76.58,16.16z"/>
	<path class="st2" d="M126.5,48.78c-0.03-0.06-0.07-0.13-0.1-0.19c-0.67-1.23-1.34-2.44-2.11-3.62c-0.47-0.73-0.95-1.46-1.5-2.14
		c-0.41-0.5-0.87-1.29-1.38-1.67c-1.38,0.81-2.68,2.15-3.8,3.29c-0.13,0.13-0.26,0.28-0.28,0.46c0.75,0.65,1.31,1.37,2.01,2.07
		c0.61,0.66,1.18,1.36,1.74,2.07c4.52,5.74,9.01,11.6,12.77,17.87c1.52,2.53,2.96,5.09,4.64,7.54c0.07,0.1,0.13,0.21,0.2,0.31
		c0.03,0.07,0.07,0.14,0.1,0.21c0.53,0.79,0.85,1.83,1.26,2.68c0.45,0.93,0.92,1.85,1.42,2.75c0.95,1.72,1.97,3.4,2.99,5.08
		c0.07,0.12,0.18,0.26,0.32,0.25c0.07-1.6-0.33-3.18-0.89-4.68c-1-2.71-2.29-5.28-3.56-7.87c-0.48-0.98-0.88-2.19-1.51-3.07
		c-0.77-1.07-1.55-2.1-2.24-3.23c-1.54-2.49-3.09-4.98-4.63-7.48c-0.74-1.2-1.46-2.41-2.15-3.64c-0.15-0.27-0.31-0.55-0.38-0.86
		c-0.15-0.66,0.13-1.35,0.07-2.03l-1-2.79c-0.21,1.73-0.43,3.46-0.64,5.19c0,0-1.06-2.65-0.94-4.06c0.03-0.41,0.1-0.82,0.05-1.22
		C126.91,49.58,126.71,49.17,126.5,48.78z"/>
	<path class="st2" d="M111.11,38.62c-4.11-3.58-7.79-7.71-12.37-10.68c-1.61-1.04-3.31-1.92-5.01-2.81
		c-3.54-1.84-6.9-3.61-10.8-4.53c-1.3-0.31-2.59-0.61-3.89-0.92c-0.28-0.07-0.6-0.18-0.66-0.46c-0.03-0.17,0.06-0.34,0.14-0.49
		c0.5-0.89,1.07-1.75,1.54-2.65c0.38-0.73,0.77-1.47,1.21-2.18c0.14,1.11,0.56,2.19,1.21,3.11c0.04-0.42,1.12-5.18,1.18-5.27
		c0.65,1.72,2.64,4.41,3.27,4.62c-0.01-0.49,5.88-1.22,6.31-1.46l-3.49,2.44c0,0,9.01,5.12,10.38,6.04
		c0.97,0.65,1.98,1.22,3.04,1.71c0.16,0.07,0.32,0.14,0.49,0.16c0.22,0.02,6.38,4.14,7.35,4.71c-0.34,0.12-0.68,0.24-1.02,0.35
		c0.29,0.38,4.17,4.2,5.01,4.77c-1.02,0.95-2.03,1.9-3.05,2.85C111.67,38.2,111.41,38.41,111.11,38.62z"/>
	<path class="st3" d="M113.41,42.18c-0.15-0.14-0.35-0.24-0.52-0.36c-0.14-0.09-0.28-0.18-0.42-0.27c-0.07-0.04-0.13-0.09-0.2-0.13
		c-0.04-0.03-0.08-0.05-0.12-0.07c-0.12-0.06-0.24-0.06-0.38-0.07c-0.19-0.01-0.37,0.13-0.47,0.28c-0.09,0.13-0.12,0.29-0.09,0.44
		c-0.13,0.06-0.25,0.13-0.36,0.21c-1.19,0.85-2.2,2.05-3.23,3.08c-2.2,2.2-4.39,4.43-6.71,6.51c-1.74,1.56-3.55,3.04-5.34,4.54
		c-1.65,1.38-3.14,3.03-4.7,4.53c-0.31,0.3-0.62,0.6-0.83,0.98c-0.18,0.33-0.28,0.7-0.46,1.03c-0.18,0.31-0.43,0.57-0.7,0.8
		c-1.9,1.71-4.36,2.61-6.38,4.17c-1.98,1.52-3.8,3.34-5.58,5.08c-0.47,0.46-0.93,0.91-1.39,1.38c-1.98,1.21-3.72,2.8-5.38,4.41
		c-1.84,1.78-3.61,3.63-5.42,5.44c-1.16,1.16-2.3,2.36-3.49,3.49c-1.04,0.99-1.85,2.25-2.73,3.39c-0.17,0.23-0.35,0.47-0.4,0.75
		c-0.05,0.28,0.08,0.62,0.36,0.7c-4.11,3.35-8.25,6.73-11.72,10.74c-1.34,1.54-2.61,3.21-4.39,4.22c-1.69,0.96-3.83,1.26-5.27,2.65
		c-1.47,1.42-3.01,2.79-4.58,4.15c-3.35,2.89-6.65,5.82-9.87,8.85c-0.28-0.12-0.65-0.11-0.89,0.11c-3.71,3.29-7.34,6.67-10.99,10.03
		c-1.22,1.13-4.8,3.21-3.94,5.02c0.11,0.24,0.23,0.47,0.34,0.71c0.1,0.2,0.22,0.42,0.43,0.48c-0.04-0.01,3.48-3.04,3.5-3.17
		c-0.09,0.47-0.18,0.93-0.27,1.4c3.91-2.45,7.32-5.8,10.78-8.83c1.57-1.37,3.12-2.75,4.67-4.14c0.61-0.55,1.25-0.97,1.76-1.61
		c0.58-0.73,1.21-1.41,1.91-2.02c0.7-0.62,1.51-1.24,1.74-2.15c-1.03,0.43-2.1,0.73-3.2,0.89c2.64-2.36,5.84-3.93,8.77-5.86
		c2.83-1.87,5.15-4.33,7.56-6.7c3.13-3.08,6.25-6.19,9.29-9.36c0.1-0.1,0.15-0.22,0.19-0.34c1.87-1.29,3.62-2.8,5.29-4.31
		c2.58-2.32,4.98-4.82,7.43-7.28c0.5-0.5,0.99-0.99,1.49-1.48c1.33-1.02,2.67-2.04,3.93-3.15c2.18-1.92,4.22-4.14,6.09-6.36
		c1.86-2.21,3.71-4.61,6.4-5.86c0.27-0.12,0.63-0.22,0.83-0.01c-0.09,0.49-0.19,0.98-0.28,1.47c2.11-2.13,4.21-4.26,6.32-6.39
		c0.96-0.97,1.94-1.98,2.46-3.24c0.28-0.68,0.42-1.41,0.73-2.07c0.89-1.88,2.96-2.84,4.89-3.61s4.02-1.62,5.06-3.42
		c-0.55-0.21-1.14-0.31-1.72-0.29c1.78-1.56,3.93-2.59,5.94-3.82c1-0.62,1.98-1.28,2.83-2.09c0.57-0.53,1.68-1.5,1.75-2.32
		c0.03-0.03,0.07-0.06,0.09-0.1c0.11-0.16,0.13-0.42,0-0.58C113.69,42.48,113.56,42.32,113.41,42.18z"/>
	<path class="st3" d="M128.28,29.59c0.18-0.08,0.37-0.15,0.57-0.19c-0.33-0.39-0.66-0.78-0.99-1.17c-0.08-0.09-0.17-0.19-0.29-0.22
		c-0.27-0.05-0.43,0.29-0.5,0.57c-0.1,0.4-0.21,0.8-0.46,1.13c-0.19,0.25-0.44,0.44-0.69,0.63c-0.36,0.27-0.72,0.54-1.07,0.81
		c-0.06,0.05-0.15,0.09-0.21,0.04c-0.03-0.03-0.03-0.07-0.04-0.1c-0.02-0.12-0.03-0.24-0.05-0.36c-0.41,0.25-0.82,0.53-1.2,0.82
		c0.67,0.81,1.3,1.69,2.45,1.01c0.47-0.28,0.79-0.76,1.17-1.15c0.26-0.27,0.51-0.55,0.77-0.82c-0.35-0.09-0.73-0.05-1.07,0.09
		C127.18,30.26,127.7,29.85,128.28,29.59z"/>
	<g>
		<g>
			<defs>
				<path id="SVGID_1_" d="M7.17,139.2c-0.19-0.21-0.34-0.44-0.39-0.71c-0.24-1.31,3.97-4.22,4.9-5.08
					c1.83-1.68,3.66-3.36,5.49-5.04c3.87-3.56,7.75-7.12,11.62-10.68c8.16-7.5,16.32-14.99,24.48-22.49
					c7.86-7.22,15.71-14.44,23.57-21.66c6.54-6,13.07-12.01,19.61-18.01c4.19-3.85,8.39-7.71,12.58-11.56
					c0.15-0.14,2.98-2.76,2.99-2.75l2.54,2.62l0.3,2.04c-1.93,1.77-3.86,3.54-5.79,5.31c-5.07,4.65-10.15,9.3-15.22,13.95
					c-7.14,6.54-14.28,13.08-21.42,19.63c-8.13,7.45-16.26,14.9-24.39,22.35c-8.05,7.38-16.1,14.75-24.14,22.13
					c-2.24,2.05-4.48,4.1-6.71,6.15c-1.75,1.6-4.66,5.49-7.22,5.26c-0.96-0.08-1.84-0.57-2.55-1.21
					C7.33,139.36,7.25,139.29,7.17,139.2z"/>
			</defs>
			<clipPath id="SVGID_00000088121666387960444490000001719727415790672022_">
				<use xlink:href="#SVGID_1_"  style="overflow:visible;"/>
			</clipPath>
			<polygon style="clip-path:url(#SVGID_00000088121666387960444490000001719727415790672022_);fill:#1D1D1B;" points="
				22.49,140.89 114.86,57.3 114.86,140.89 			"/>
			<polygon style="clip-path:url(#SVGID_00000088121666387960444490000001719727415790672022_);fill:#1D1D1B;" points="
				21.01,140.89 114.86,55.95 114.86,57.3 22.49,140.89 			"/>
			<polygon style="clip-path:url(#SVGID_00000088121666387960444490000001719727415790672022_);fill:#1F1E1C;" points="
				19.52,140.89 114.86,54.61 114.86,55.95 21.01,140.89 			"/>
			<polygon style="clip-path:url(#SVGID_00000088121666387960444490000001719727415790672022_);fill:#201F1C;" points="
				18.04,140.89 114.86,53.26 114.86,54.61 19.52,140.89 			"/>
			<polygon style="clip-path:url(#SVGID_00000088121666387960444490000001719727415790672022_);fill:#201F1C;" points="
				17.68,140.89 114.86,52.95 114.86,53.26 18.04,140.89 			"/>
			<polygon style="clip-path:url(#SVGID_00000088121666387960444490000001719727415790672022_);fill:#21201C;" points="
				17.33,140.89 114.86,52.63 114.86,52.95 17.68,140.89 			"/>
			<polygon style="clip-path:url(#SVGID_00000088121666387960444490000001719727415790672022_);fill:#22201D;" points="
				16.98,140.89 114.86,52.31 114.86,52.63 17.33,140.89 			"/>
			<polygon style="clip-path:url(#SVGID_00000088121666387960444490000001719727415790672022_);fill:#23211D;" points="
				16.63,140.89 114.86,51.99 114.86,52.31 16.98,140.89 			"/>
			<polygon style="clip-path:url(#SVGID_00000088121666387960444490000001719727415790672022_);fill:#24211D;" points="
				16.28,140.89 114.86,51.67 114.86,51.99 16.63,140.89 			"/>
			<polygon style="clip-path:url(#SVGID_00000088121666387960444490000001719727415790672022_);fill:#26221E;" points="
				15.93,140.89 114.86,51.36 114.86,51.67 16.28,140.89 			"/>
			<polygon style="clip-path:url(#SVGID_00000088121666387960444490000001719727415790672022_);fill:#27221E;" points="
				15.58,140.89 114.86,51.04 114.86,51.36 15.93,140.89 			"/>
			<polygon style="clip-path:url(#SVGID_00000088121666387960444490000001719727415790672022_);fill:#28231E;" points="
				15.23,140.89 114.86,50.72 114.86,51.04 15.58,140.89 			"/>
			<polygon style="clip-path:url(#SVGID_00000088121666387960444490000001719727415790672022_);fill:#29231F;" points="
				14.87,140.89 114.86,50.4 114.86,50.72 15.23,140.89 			"/>
			<polygon style="clip-path:url(#SVGID_00000088121666387960444490000001719727415790672022_);fill:#2A241F;" points="
				14.52,140.89 114.86,50.09 114.86,50.4 14.87,140.89 			"/>
			<polygon style="clip-path:url(#SVGID_00000088121666387960444490000001719727415790672022_);fill:#2A241F;" points="
				14.34,140.89 114.86,49.92 114.86,50.09 14.52,140.89 			"/>
			<polygon style="clip-path:url(#SVGID_00000088121666387960444490000001719727415790672022_);fill:#2B251F;" points="
				14.15,140.89 114.86,49.75 114.86,49.92 14.34,140.89 			"/>
			<polygon style="clip-path:url(#SVGID_00000088121666387960444490000001719727415790672022_);fill:#2C2520;" points="
				13.96,140.89 114.86,49.58 114.86,49.75 14.15,140.89 			"/>
			<polygon style="clip-path:url(#SVGID_00000088121666387960444490000001719727415790672022_);fill:#2D2620;" points="
				13.77,140.89 114.86,49.41 114.86,49.58 13.96,140.89 			"/>
			<polygon style="clip-path:url(#SVGID_00000088121666387960444490000001719727415790672022_);fill:#2E2620;" points="
				13.59,140.89 114.86,49.24 114.86,49.41 13.77,140.89 			"/>
			<polygon style="clip-path:url(#SVGID_00000088121666387960444490000001719727415790672022_);fill:#2F2721;" points="13.4,140.89 
				114.86,49.07 114.86,49.24 13.59,140.89 			"/>
			<polygon style="clip-path:url(#SVGID_00000088121666387960444490000001719727415790672022_);fill:#302721;" points="
				13.21,140.89 114.86,48.9 114.86,49.07 13.4,140.89 			"/>
			<polygon style="clip-path:url(#SVGID_00000088121666387960444490000001719727415790672022_);fill:#312821;" points="
				13.02,140.89 114.86,48.73 114.86,48.9 13.21,140.89 			"/>
			<polygon style="clip-path:url(#SVGID_00000088121666387960444490000001719727415790672022_);fill:#332922;" points="
				12.84,140.89 114.86,48.56 114.86,48.73 13.02,140.89 			"/>
			<polygon style="clip-path:url(#SVGID_00000088121666387960444490000001719727415790672022_);fill:#342922;" points="
				12.65,140.89 114.86,48.39 114.86,48.56 12.84,140.89 			"/>
			<polygon style="clip-path:url(#SVGID_00000088121666387960444490000001719727415790672022_);fill:#352A22;" points="
				12.46,140.89 114.86,48.22 114.86,48.39 12.65,140.89 			"/>
			<polygon style="clip-path:url(#SVGID_00000088121666387960444490000001719727415790672022_);fill:#362A22;" points="
				12.27,140.89 114.86,48.05 114.86,48.22 12.46,140.89 			"/>
			<polygon style="clip-path:url(#SVGID_00000088121666387960444490000001719727415790672022_);fill:#372B23;" points="
				12.09,140.89 114.86,47.88 114.86,48.05 12.27,140.89 			"/>
			<polygon style="clip-path:url(#SVGID_00000088121666387960444490000001719727415790672022_);fill:#382B23;" points="11.9,140.89 
				114.86,47.71 114.86,47.88 12.09,140.89 			"/>
			<polygon style="clip-path:url(#SVGID_00000088121666387960444490000001719727415790672022_);fill:#392C23;" points="
				11.71,140.89 114.86,47.54 114.86,47.71 11.9,140.89 			"/>
			<polygon style="clip-path:url(#SVGID_00000088121666387960444490000001719727415790672022_);fill:#3A2C24;" points="
				11.52,140.89 114.86,47.37 114.86,47.54 11.71,140.89 			"/>
			<polygon style="clip-path:url(#SVGID_00000088121666387960444490000001719727415790672022_);fill:#3B2D24;" points="
				11.34,140.89 114.86,47.2 114.86,47.37 11.52,140.89 			"/>
			<polygon style="clip-path:url(#SVGID_00000088121666387960444490000001719727415790672022_);fill:#3B2D24;" points="
				11.21,140.89 114.86,47.09 114.86,47.2 11.34,140.89 			"/>
			<polygon style="clip-path:url(#SVGID_00000088121666387960444490000001719727415790672022_);fill:#3C2E24;" points="
				11.08,140.89 114.86,46.97 114.86,47.09 11.21,140.89 			"/>
			<polygon style="clip-path:url(#SVGID_00000088121666387960444490000001719727415790672022_);fill:#3D2E25;" points="
				10.95,140.89 114.86,46.85 114.86,46.97 11.08,140.89 			"/>
			<polygon style="clip-path:url(#SVGID_00000088121666387960444490000001719727415790672022_);fill:#3E2F25;" points="
				10.82,140.89 114.86,46.73 114.86,46.85 10.95,140.89 			"/>
			<polygon style="clip-path:url(#SVGID_00000088121666387960444490000001719727415790672022_);fill:#3F2F25;" points="
				10.69,140.89 114.86,46.61 114.86,46.73 10.82,140.89 			"/>
			<polygon style="clip-path:url(#SVGID_00000088121666387960444490000001719727415790672022_);fill:#403026;" points="
				10.56,140.89 114.86,46.5 114.86,46.61 10.69,140.89 			"/>
			<polygon style="clip-path:url(#SVGID_00000088121666387960444490000001719727415790672022_);fill:#413026;" points="
				10.43,140.89 114.86,46.38 114.86,46.5 10.56,140.89 			"/>
			<polygon style="clip-path:url(#SVGID_00000088121666387960444490000001719727415790672022_);fill:#423126;" points="10.3,140.89 
				114.86,46.26 114.86,46.38 10.43,140.89 			"/>
			<polygon style="clip-path:url(#SVGID_00000088121666387960444490000001719727415790672022_);fill:#433127;" points="
				10.16,140.89 114.86,46.14 114.86,46.26 10.3,140.89 			"/>
			<polygon style="clip-path:url(#SVGID_00000088121666387960444490000001719727415790672022_);fill:#443227;" points="
				10.03,140.89 114.86,46.02 114.86,46.14 10.16,140.89 			"/>
			<polygon style="clip-path:url(#SVGID_00000088121666387960444490000001719727415790672022_);fill:#453227;" points="9.9,140.89 
				114.86,45.91 114.86,46.02 10.03,140.89 			"/>
			<polygon style="clip-path:url(#SVGID_00000088121666387960444490000001719727415790672022_);fill:#473328;" points="9.77,140.89 
				114.86,45.79 114.86,45.91 9.9,140.89 			"/>
			<polygon style="clip-path:url(#SVGID_00000088121666387960444490000001719727415790672022_);fill:#483428;" points="9.64,140.89 
				114.86,45.67 114.86,45.79 9.77,140.89 			"/>
			<polygon style="clip-path:url(#SVGID_00000088121666387960444490000001719727415790672022_);fill:#493428;" points="9.51,140.89 
				114.86,45.55 114.86,45.67 9.64,140.89 			"/>
			<polygon style="clip-path:url(#SVGID_00000088121666387960444490000001719727415790672022_);fill:#4A3528;" points="9.38,140.89 
				114.86,45.43 114.86,45.55 9.51,140.89 			"/>
			<polygon style="clip-path:url(#SVGID_00000088121666387960444490000001719727415790672022_);fill:#4B3529;" points="9.25,140.89 
				114.86,45.32 114.86,45.43 9.38,140.89 			"/>
			<polygon style="clip-path:url(#SVGID_00000088121666387960444490000001719727415790672022_);fill:#4C3629;" points="9.12,140.89 
				114.86,45.2 114.86,45.32 9.25,140.89 			"/>
			<polygon style="clip-path:url(#SVGID_00000088121666387960444490000001719727415790672022_);fill:#4D3629;" points="8.99,140.89 
				114.86,45.08 114.86,45.2 9.12,140.89 			"/>
			<polygon style="clip-path:url(#SVGID_00000088121666387960444490000001719727415790672022_);fill:#4E372A;" points="8.86,140.89 
				114.86,44.96 114.86,45.08 8.99,140.89 			"/>
			<polygon style="clip-path:url(#SVGID_00000088121666387960444490000001719727415790672022_);fill:#4F372A;" points="8.73,140.89 
				114.86,44.84 114.86,44.96 8.86,140.89 			"/>
			<polygon style="clip-path:url(#SVGID_00000088121666387960444490000001719727415790672022_);fill:#50382A;" points="8.6,140.89 
				114.86,44.73 114.86,44.84 8.73,140.89 			"/>
			<polygon style="clip-path:url(#SVGID_00000088121666387960444490000001719727415790672022_);fill:#51382B;" points="8.47,140.89 
				114.86,44.61 114.86,44.73 8.6,140.89 			"/>
			<polygon style="clip-path:url(#SVGID_00000088121666387960444490000001719727415790672022_);fill:#52392B;" points="8.34,140.89 
				114.86,44.49 114.86,44.61 8.47,140.89 			"/>
			<polygon style="clip-path:url(#SVGID_00000088121666387960444490000001719727415790672022_);fill:#52392B;" points="8.25,140.89 
				114.86,44.41 114.86,44.49 8.34,140.89 			"/>
			<polygon style="clip-path:url(#SVGID_00000088121666387960444490000001719727415790672022_);fill:#533A2B;" points="8.15,140.89 
				114.86,44.32 114.86,44.41 8.25,140.89 			"/>
			<polygon style="clip-path:url(#SVGID_00000088121666387960444490000001719727415790672022_);fill:#543A2C;" points="8.06,140.89 
				114.86,44.23 114.86,44.32 8.15,140.89 			"/>
			<polygon style="clip-path:url(#SVGID_00000088121666387960444490000001719727415790672022_);fill:#553B2C;" points="7.96,140.89 
				114.86,44.15 114.86,44.23 8.06,140.89 			"/>
			<polygon style="clip-path:url(#SVGID_00000088121666387960444490000001719727415790672022_);fill:#563B2C;" points="7.87,140.89 
				114.86,44.06 114.86,44.15 7.96,140.89 			"/>
			<polygon style="clip-path:url(#SVGID_00000088121666387960444490000001719727415790672022_);fill:#573C2D;" points="7.77,140.89 
				114.86,43.98 114.86,44.06 7.87,140.89 			"/>
			<polygon style="clip-path:url(#SVGID_00000088121666387960444490000001719727415790672022_);fill:#583C2D;" points="7.68,140.89 
				114.86,43.89 114.86,43.98 7.77,140.89 			"/>
			<polygon style="clip-path:url(#SVGID_00000088121666387960444490000001719727415790672022_);fill:#593D2D;" points="7.58,140.89 
				114.86,43.81 114.86,43.89 7.68,140.89 			"/>
			<polygon style="clip-path:url(#SVGID_00000088121666387960444490000001719727415790672022_);fill:#5A3D2D;" points="7.49,140.89 
				114.86,43.72 114.86,43.81 7.58,140.89 			"/>
			<polygon style="clip-path:url(#SVGID_00000088121666387960444490000001719727415790672022_);fill:#5B3E2E;" points="7.4,140.89 
				114.86,43.64 114.86,43.72 7.49,140.89 			"/>
			<polygon style="clip-path:url(#SVGID_00000088121666387960444490000001719727415790672022_);fill:#5C3F2E;" points="7.3,140.89 
				114.86,43.55 114.86,43.64 7.4,140.89 			"/>
			<polygon style="clip-path:url(#SVGID_00000088121666387960444490000001719727415790672022_);fill:#5D3F2E;" points="7.21,140.89 
				114.86,43.46 114.86,43.55 7.3,140.89 			"/>
			<polygon style="clip-path:url(#SVGID_00000088121666387960444490000001719727415790672022_);fill:#5E402F;" points="7.11,140.89 
				114.86,43.38 114.86,43.46 7.21,140.89 			"/>
			<polygon style="clip-path:url(#SVGID_00000088121666387960444490000001719727415790672022_);fill:#5F402F;" points="7.02,140.89 
				114.86,43.29 114.86,43.38 7.11,140.89 			"/>
			<polygon style="clip-path:url(#SVGID_00000088121666387960444490000001719727415790672022_);fill:#60412F;" points="6.92,140.89 
				114.86,43.21 114.86,43.29 7.02,140.89 			"/>
			<polygon style="clip-path:url(#SVGID_00000088121666387960444490000001719727415790672022_);fill:#624130;" points="6.83,140.89 
				114.86,43.12 114.86,43.21 6.92,140.89 			"/>
			<polygon style="clip-path:url(#SVGID_00000088121666387960444490000001719727415790672022_);fill:#634230;" points="6.73,140.89 
				114.86,43.04 114.86,43.12 6.83,140.89 			"/>
			<polygon style="clip-path:url(#SVGID_00000088121666387960444490000001719727415790672022_);fill:#644230;" points="6.64,140.89 
				114.86,42.95 114.86,43.04 6.73,140.89 			"/>
			<polygon style="clip-path:url(#SVGID_00000088121666387960444490000001719727415790672022_);fill:#654331;" points="6.55,140.89 
				114.86,42.87 114.86,42.95 6.64,140.89 			"/>
			<polygon style="clip-path:url(#SVGID_00000088121666387960444490000001719727415790672022_);fill:#664331;" points="6.54,140.81 
				114.86,42.78 114.86,42.87 6.55,140.89 6.54,140.89 			"/>
			<polygon style="clip-path:url(#SVGID_00000088121666387960444490000001719727415790672022_);fill:#674431;" points="6.54,140.72 
				114.86,42.69 114.86,42.78 6.54,140.81 			"/>
			<polygon style="clip-path:url(#SVGID_00000088121666387960444490000001719727415790672022_);fill:#684532;" points="6.54,140.64 
				114.86,42.61 114.86,42.69 6.54,140.72 			"/>
			<polygon style="clip-path:url(#SVGID_00000088121666387960444490000001719727415790672022_);fill:#694532;" points="6.54,140.55 
				114.86,42.52 114.86,42.61 6.54,140.64 			"/>
			<polygon style="clip-path:url(#SVGID_00000088121666387960444490000001719727415790672022_);fill:#6A4632;" points="6.54,140.47 
				114.86,42.44 114.86,42.52 6.54,140.55 			"/>
			<polygon style="clip-path:url(#SVGID_00000088121666387960444490000001719727415790672022_);fill:#6B4632;" points="6.54,140.38 
				114.86,42.35 114.86,42.44 6.54,140.47 			"/>
			<polygon style="clip-path:url(#SVGID_00000088121666387960444490000001719727415790672022_);fill:#6C4733;" points="6.54,140.3 
				114.86,42.27 114.86,42.35 6.54,140.38 			"/>
			<polygon style="clip-path:url(#SVGID_00000088121666387960444490000001719727415790672022_);fill:#6D4733;" points="6.54,140.21 
				114.86,42.18 114.86,42.27 6.54,140.3 			"/>
			<polygon style="clip-path:url(#SVGID_00000088121666387960444490000001719727415790672022_);fill:#6E4833;" points="6.54,140.12 
				114.86,42.1 114.86,42.18 6.54,140.21 			"/>
			<polygon style="clip-path:url(#SVGID_00000088121666387960444490000001719727415790672022_);fill:#6F4834;" points="6.54,140.04 
				114.86,42.01 114.86,42.1 6.54,140.12 			"/>
			<polygon style="clip-path:url(#SVGID_00000088121666387960444490000001719727415790672022_);fill:#704934;" points="6.54,139.95 
				114.86,41.93 114.86,42.01 6.54,140.04 			"/>
			<polygon style="clip-path:url(#SVGID_00000088121666387960444490000001719727415790672022_);fill:#704934;" points="6.54,139.89 
				114.86,41.86 114.86,41.93 6.54,139.95 			"/>
			<polygon style="clip-path:url(#SVGID_00000088121666387960444490000001719727415790672022_);fill:#714A34;" points="6.54,139.82 
				114.86,41.79 114.86,41.86 6.54,139.89 			"/>
			<polygon style="clip-path:url(#SVGID_00000088121666387960444490000001719727415790672022_);fill:#724A35;" points="6.54,139.75 
				114.86,41.72 114.86,41.79 6.54,139.82 			"/>
			<polygon style="clip-path:url(#SVGID_00000088121666387960444490000001719727415790672022_);fill:#734B35;" points="6.54,139.68 
				114.86,41.65 114.86,41.72 6.54,139.75 			"/>
			<polygon style="clip-path:url(#SVGID_00000088121666387960444490000001719727415790672022_);fill:#744B35;" points="6.54,139.62 
				114.86,41.59 114.86,41.65 6.54,139.68 			"/>
			<polygon style="clip-path:url(#SVGID_00000088121666387960444490000001719727415790672022_);fill:#754C36;" points="6.54,139.55 
				114.86,41.52 114.86,41.59 6.54,139.62 			"/>
			<polygon style="clip-path:url(#SVGID_00000088121666387960444490000001719727415790672022_);fill:#764C36;" points="6.54,139.48 
				114.86,41.45 114.86,41.52 6.54,139.55 			"/>
			<polygon style="clip-path:url(#SVGID_00000088121666387960444490000001719727415790672022_);fill:#774D36;" points="6.54,139.41 
				114.86,41.38 114.86,41.45 6.54,139.48 			"/>
			<polygon style="clip-path:url(#SVGID_00000088121666387960444490000001719727415790672022_);fill:#784D37;" points="6.54,139.34 
				114.86,41.32 114.86,41.38 6.54,139.41 			"/>
			<polygon style="clip-path:url(#SVGID_00000088121666387960444490000001719727415790672022_);fill:#794E37;" points="6.54,139.28 
				114.86,41.25 114.86,41.32 6.54,139.34 			"/>
			<polygon style="clip-path:url(#SVGID_00000088121666387960444490000001719727415790672022_);fill:#7A4E37;" points="6.54,139.21 
				114.83,41.21 114.86,41.21 114.86,41.25 6.54,139.28 			"/>
			<polygon style="clip-path:url(#SVGID_00000088121666387960444490000001719727415790672022_);fill:#7B4F37;" points="6.54,139.14 
				114.75,41.21 114.83,41.21 6.54,139.21 			"/>
			<polygon style="clip-path:url(#SVGID_00000088121666387960444490000001719727415790672022_);fill:#7C4F38;" points="6.54,139.07 
				114.68,41.21 114.75,41.21 6.54,139.14 			"/>
			<polygon style="clip-path:url(#SVGID_00000088121666387960444490000001719727415790672022_);fill:#7D5038;" points="6.54,139.01 
				114.6,41.21 114.68,41.21 6.54,139.07 			"/>
			<polygon style="clip-path:url(#SVGID_00000088121666387960444490000001719727415790672022_);fill:#7E5038;" points="6.54,138.94 
				114.53,41.21 114.6,41.21 6.54,139.01 			"/>
			<polygon style="clip-path:url(#SVGID_00000088121666387960444490000001719727415790672022_);fill:#7F5139;" points="6.54,138.87 
				114.45,41.21 114.53,41.21 6.54,138.94 			"/>
			<polygon style="clip-path:url(#SVGID_00000088121666387960444490000001719727415790672022_);fill:#815239;" points="6.54,138.8 
				114.38,41.21 114.45,41.21 6.54,138.87 			"/>
			<polygon style="clip-path:url(#SVGID_00000088121666387960444490000001719727415790672022_);fill:#825239;" points="6.54,138.74 
				114.3,41.21 114.38,41.21 6.54,138.8 			"/>
			<polygon style="clip-path:url(#SVGID_00000088121666387960444490000001719727415790672022_);fill:#83533A;" points="6.54,138.67 
				114.23,41.21 114.3,41.21 6.54,138.74 			"/>
			<polygon style="clip-path:url(#SVGID_00000088121666387960444490000001719727415790672022_);fill:#84533A;" points="6.54,138.6 
				114.15,41.21 114.23,41.21 6.54,138.67 			"/>
			<polygon style="clip-path:url(#SVGID_00000088121666387960444490000001719727415790672022_);fill:#85543A;" points="6.54,138.53 
				114.08,41.21 114.15,41.21 6.54,138.6 			"/>
			<polygon style="clip-path:url(#SVGID_00000088121666387960444490000001719727415790672022_);fill:#86543B;" points="6.54,138.47 
				114.01,41.21 114.08,41.21 6.54,138.53 			"/>
			<polygon style="clip-path:url(#SVGID_00000088121666387960444490000001719727415790672022_);fill:#87553B;" points="6.54,138.4 
				113.93,41.21 114.01,41.21 6.54,138.47 			"/>
			<polygon style="clip-path:url(#SVGID_00000088121666387960444490000001719727415790672022_);fill:#88553B;" points="6.54,138.33 
				113.86,41.21 113.93,41.21 6.54,138.4 			"/>
			<polygon style="clip-path:url(#SVGID_00000088121666387960444490000001719727415790672022_);fill:#89563C;" points="6.54,138.26 
				113.78,41.21 113.86,41.21 6.54,138.33 			"/>
			<polygon style="clip-path:url(#SVGID_00000088121666387960444490000001719727415790672022_);fill:#8A563C;" points="6.54,138.19 
				113.71,41.21 113.78,41.21 6.54,138.26 			"/>
			<polygon style="clip-path:url(#SVGID_00000088121666387960444490000001719727415790672022_);fill:#8B573C;" points="6.54,138.13 
				113.63,41.21 113.71,41.21 6.54,138.19 			"/>
			<polygon style="clip-path:url(#SVGID_00000088121666387960444490000001719727415790672022_);fill:#8C573C;" points="6.54,138.06 
				113.56,41.21 113.63,41.21 6.54,138.13 			"/>
			<polygon style="clip-path:url(#SVGID_00000088121666387960444490000001719727415790672022_);fill:#8D583D;" points="6.54,137.99 
				113.48,41.21 113.56,41.21 6.54,138.06 			"/>
			<polygon style="clip-path:url(#SVGID_00000088121666387960444490000001719727415790672022_);fill:#8E583D;" points="6.54,137.92 
				113.41,41.21 113.48,41.21 6.54,137.99 			"/>
			<polygon style="clip-path:url(#SVGID_00000088121666387960444490000001719727415790672022_);fill:#8F593D;" points="6.54,137.86 
				113.33,41.21 113.41,41.21 6.54,137.92 			"/>
			<polygon style="clip-path:url(#SVGID_00000088121666387960444490000001719727415790672022_);fill:#90593E;" points="6.54,137.79 
				113.26,41.21 113.33,41.21 6.54,137.86 			"/>
			<polygon style="clip-path:url(#SVGID_00000088121666387960444490000001719727415790672022_);fill:#915A3E;" points="6.54,137.72 
				113.18,41.21 113.26,41.21 6.54,137.79 			"/>
			<polygon style="clip-path:url(#SVGID_00000088121666387960444490000001719727415790672022_);fill:#915A3E;" points="
				113.18,41.21 6.54,137.72 6.54,41.21 			"/>
		</g>
	</g>
	
		<linearGradient id="SVGID_00000173124547816933038340000007061633924016522397_" gradientUnits="userSpaceOnUse" x1="-343.8113" y1="901.9104" x2="-344.9229" y2="893.1664" gradientTransform="matrix(0.8312 -0.556 0.556 0.8312 -95.6752 -895.6169)">
		<stop  offset="0" style="stop-color:#1D1D1B"/>
		<stop  offset="0.2044" style="stop-color:#434546;stop-opacity:0.7946"/>
		<stop  offset="0.4607" style="stop-color:#6E7176;stop-opacity:0.5371"/>
		<stop  offset="0.6874" style="stop-color:#8C9098;stop-opacity:0.3094"/>
		<stop  offset="0.8733" style="stop-color:#9FA4AD;stop-opacity:0.1226"/>
		<stop  offset="0.9953" style="stop-color:#A6ABB5;stop-opacity:0"/>
	</linearGradient>
	<path style="fill:url(#SVGID_00000173124547816933038340000007061633924016522397_);" d="M113.75,42.85
		c0.55,0.57,1.04,1.24,1.16,2.02s-0.23,1.68-0.96,1.97c0.1,0.27,0.45,0.37,0.73,0.3c0.28-0.07,0.5-0.28,0.71-0.47
		c1.21-1.12,2.42-2.24,3.62-3.36c0.87-0.8,1.73-1.61,2.6-2.41c0.12-0.11,0.24-0.23,0.31-0.37c0.08-0.18,0.07-0.39,0.04-0.58
		c-0.13-0.87-0.65-1.61-1.16-2.33c-0.4-0.56-0.8-1.13-1.31-1.59s-1.16-0.8-1.84-0.83c-1.04-0.05-1.98,0.61-2.74,1.33
		c-1.23,1.16-2.24,2.52-3.24,3.88c-0.36,0.49,0.34,0.69,0.64,1.01C112.79,41.9,113.26,42.39,113.75,42.85z"/>
	
		<linearGradient id="SVGID_00000044146229823161125910000014462410929186597550_" gradientUnits="userSpaceOnUse" x1="-333.7957" y1="901.3195" x2="-334.5502" y2="891.1985" gradientTransform="matrix(0.8312 -0.556 0.556 0.8312 -95.6752 -895.6169)">
		<stop  offset="0" style="stop-color:#1D1D1B"/>
		<stop  offset="0.2047" style="stop-color:#434546;stop-opacity:0.7946"/>
		<stop  offset="0.4614" style="stop-color:#6E7176;stop-opacity:0.5371"/>
		<stop  offset="0.6884" style="stop-color:#8C9098;stop-opacity:0.3094"/>
		<stop  offset="0.8746" style="stop-color:#9FA4AD;stop-opacity:0.1226"/>
		<stop  offset="0.9968" style="stop-color:#A6ABB5;stop-opacity:0"/>
	</linearGradient>
	<path style="fill:url(#SVGID_00000044146229823161125910000014462410929186597550_);" d="M125.01,37.35
		c0.03,0.04,0.07,0.09,0.12,0.1c0.05,0.02,0.11,0.01,0.17-0.01c0.51-0.14,0.87-0.58,1.14-1.03c0.06-0.11,0.12-0.22,0.14-0.35
		c0.03-0.2-0.06-0.39-0.15-0.57c-0.59-1.17-1.35-2.25-2.25-3.2c-0.35-0.38-0.74-0.74-1.21-0.93c-0.48-0.19-1.07-0.17-1.46,0.17
		c-0.68,0.59,0.69,2.09,1.05,2.6C123.33,35.24,124.15,36.32,125.01,37.35z"/>
	
		<linearGradient id="SVGID_00000084489816669315002280000016509469119402095034_" gradientUnits="userSpaceOnUse" x1="-329.9128" y1="898.0707" x2="-331.6819" y2="886.935" gradientTransform="matrix(0.8312 -0.556 0.556 0.8312 -95.6752 -895.6169)">
		<stop  offset="0" style="stop-color:#1D1D1B"/>
		<stop  offset="0.0994" style="stop-color:#201F1C;stop-opacity:0.7708"/>
		<stop  offset="0.1777" style="stop-color:#2A241F;stop-opacity:0.5904"/>
		<stop  offset="0.2487" style="stop-color:#3B2D24;stop-opacity:0.4265"/>
		<stop  offset="0.3155" style="stop-color:#52392B;stop-opacity:0.2725"/>
		<stop  offset="0.3787" style="stop-color:#704934;stop-opacity:0.1268"/>
		<stop  offset="0.4337" style="stop-color:#915A3E;stop-opacity:0"/>
	</linearGradient>
	<path style="fill:url(#SVGID_00000084489816669315002280000016509469119402095034_);" d="M124.69,33.1
		c0.4,0.67,0.76,1.38,1.31,1.94c0.06,0.06,0.13,0.12,0.21,0.12c0.09,0,0.15-0.07,0.21-0.13c0.99-1.03,1.97-2.06,2.96-3.1
		c0.1-0.11,0.21-0.22,0.28-0.35c0.19-0.38,0.03-0.84-0.17-1.21c-0.39-0.73-0.91-1.37-1.44-2.01c-0.13-0.15-0.26-0.32-0.44-0.4
		c-0.34-0.15-0.74,0.03-1.06,0.23c-1.13,0.71-2.04,1.72-3.06,2.58c-0.49,0.42-0.41,0.56,0.05,0.92
		C124.02,32.08,124.38,32.58,124.69,33.1z"/>
	
		<linearGradient id="SVGID_00000097476320198195575120000008148892598213566867_" gradientUnits="userSpaceOnUse" x1="-338.8416" y1="943.0369" x2="-345.3701" y2="873.7574" gradientTransform="matrix(0.8312 -0.556 0.556 0.8312 -95.6752 -895.6169)">
		<stop  offset="0" style="stop-color:#1D1D1B;stop-opacity:0.7"/>
		<stop  offset="0.0521" style="stop-color:#3D3E3F;stop-opacity:0.6635"/>
		<stop  offset="0.1094" style="stop-color:#595B5E;stop-opacity:0.6234"/>
		<stop  offset="0.1743" style="stop-color:#71747A;stop-opacity:0.578"/>
		<stop  offset="0.2476" style="stop-color:#858990;stop-opacity:0.5267"/>
		<stop  offset="0.3332" style="stop-color:#9498A1;stop-opacity:0.4667"/>
		<stop  offset="0.4391" style="stop-color:#9EA3AC;stop-opacity:0.3926"/>
		<stop  offset="0.5876" style="stop-color:#A4A9B3;stop-opacity:0.2887"/>
		<stop  offset="1" style="stop-color:#A6ABB5;stop-opacity:0"/>
	</linearGradient>
	<path style="fill:url(#SVGID_00000097476320198195575120000008148892598213566867_);" d="M117.6,34.61
		c-0.6-0.26-1.24-0.32-1.92-0.05c-0.88,0.35-1.54,1.07-2.24,1.71c-0.68,0.63-1.41,1.2-2.18,1.71c-0.11,0.07-0.24,0.15-0.37,0.13
		c-0.11-0.02-0.19-0.09-0.27-0.16c-1.25-1.14-2.5-2.29-3.75-3.43c-1.13-1.04-2.26-1.84-3.47-2.74c-2.73-2.01-5.46-4.01-8.19-6.02
		c-0.08-0.06-0.18-0.14-0.19-0.24c-0.01-0.09,0.04-0.17,0.09-0.25c2.26-3.45,4.63-7,8.11-9.19c0.27-0.17,0.57-0.34,0.89-0.31
		c0.28,0.03,0.51,0.19,0.74,0.36c2.18,1.62,4.21,3.43,6.23,5.24c1.74,1.55,3.48,3.12,4.93,4.95c1.34,1.69,2.98,3.12,4.33,4.8
		c1.26,1.57,2.39,3.29,3.6,4.92c1.36,1.84,2.72,3.67,4.08,5.51l6.83,12c0.18,0.34,2.85,6.24,2.98,6.61
		c0.92,2.73,4.79,14.6,4.83,14.75c0.04,0.17,2.27,11.31,2.24,11.08c-0.03-0.22-8.76-15.28-8.76-15.28l-9.91-14.81l-7.7-9.62
		l-1.23-1.26l4.65-4.49l-0.58-2.11C120.42,37.32,119.15,35.29,117.6,34.61z"/>
	<path class="st119" d="M118.4,35.06c-0.16-0.1-0.33-0.19-0.5-0.26c-0.01-0.02-0.01-0.05-0.02-0.07c-0.25-0.42-0.78-0.54-1.24-0.48
		c-0.27,0.04-0.51,0.13-0.75,0.26c-0.24,0.13-0.43,0.3-0.63,0.48c-0.06,0.05-0.03,0.13,0.02,0.18c-0.28,0.21-0.56,0.45-0.83,0.7
		c-0.91,0.81-1.82,1.61-2.72,2.42c-0.45,0.41-0.9,0.81-1.35,1.22c-0.46,0.42-0.96,0.83-1.36,1.3c-0.2,0.24,0.1,0.58,0.36,0.41
		c0.46-0.3,0.87-0.7,1.29-1.06c0.25-0.21,0.5-0.43,0.75-0.65c0.27-0.06,0.53-0.12,0.79-0.19c0.04-0.01,0.07-0.01,0.11-0.02
		c0.36-0.05,0.72-0.08,1.08-0.08c0.66,0,1.28,0.14,1.92,0.28c-0.22-0.12-0.44-0.25-0.67-0.36c-0.13-0.07-0.27-0.13-0.4-0.19
		c-0.27-0.04-0.55-0.07-0.81-0.08c-0.13,0-0.27,0-0.41,0c0.01-0.03,0.03-0.05,0.04-0.08c0.08-0.24,0.09-0.48,0.22-0.71
		c0.15-0.29,0.38-0.53,0.62-0.75c0.15-0.13,0.3-0.27,0.46-0.4c0.4-0.36,0.8-0.72,1.21-1.07c0.38-0.32,0.78-0.57,1.29-0.58
		c0.43,0,0.87,0.15,1.25,0.34c0.42,0.2,0.8,0.55,1.24,0.68c0.15,0.04,0.23-0.14,0.17-0.25C119.28,35.64,118.8,35.31,118.4,35.06z"/>
	<path class="st120" d="M127.39,27.44c-0.33-0.19-0.68-0.24-1.03-0.19c-0.08-0.04-0.17-0.05-0.26,0.01
		c-0.04,0.03-0.08,0.06-0.12,0.09c-0.46,0.16-0.9,0.46-1.24,0.76c-0.43,0.38-0.86,0.76-1.28,1.15c-0.22,0.2-0.44,0.4-0.66,0.61
		c-0.19,0.19-0.44,0.39-0.53,0.65c-0.07,0.18,0.08,0.35,0.26,0.3c0.03-0.01,0.05-0.02,0.08-0.03c0.03,0.05,0.07,0.1,0.14,0.12
		c0.34,0.1,0.67-0.07,0.89-0.32c0.52-0.09,1.04-0.19,1.54-0.35c0.26-0.08,0.38-0.34,0.55-0.54c0.21-0.25,0.46-0.47,0.71-0.67
		c0.08-0.06,0-0.19-0.09-0.13c-0.24,0.15-0.46,0.32-0.66,0.52c-0.1,0.1-0.2,0.21-0.29,0.33c-0.1,0.12-0.16,0.23-0.32,0.29
		c-0.43,0.16-0.88,0.29-1.33,0.41c0.09-0.15,0.14-0.32,0.22-0.48c0.09-0.18,0.22-0.33,0.36-0.47c0.49-0.49,1.06-0.88,1.58-1.34
		c0.06-0.03,0.13-0.07,0.2-0.1c0.38-0.15,0.8-0.15,1.2-0.17C127.55,27.86,127.58,27.55,127.39,27.44z"/>
	<path class="st120" d="M111.74,40.85c-1.17-0.8-2.35,0.67-3.15,1.38c-1.18,1.04-2.35,2.08-3.53,3.11
		c-1.16,1.02-2.33,2.01-3.47,3.05c-0.12,0.11-0.24,0.22-0.33,0.36c-0.1,0.14-0.15,0.3-0.27,0.42c-0.24,0.24-0.61,0.33-0.87,0.57
		c-0.46,0.43-0.74,1.01-0.91,1.61c-0.21,0.75-0.26,1.53-0.45,2.29c-0.06,0.22-0.1,0.41-0.3,0.54c-0.13,0.08-0.31,0.11-0.46,0.16
		c-0.24,0.08-0.39,0.21-0.51,0.44c-0.02,0.03,0.02,0.07,0.05,0.05c0.4-0.28,0.99-0.12,1.36-0.49c0.37-0.37,0.42-1.07,0.51-1.56
		c0.12-0.66,0.27-1.34,0.61-1.93c0.11-0.19,0.23-0.36,0.38-0.52c0.31-0.09,0.6-0.27,0.91-0.39c0.35-0.13,0.72-0.19,1.07-0.31
		c0.72-0.24,1.3-0.77,1.79-1.33c0.03-0.04-0.02-0.11-0.06-0.07c-0.3,0.23-0.59,0.48-0.9,0.69c-0.34,0.23-0.71,0.36-1.11,0.46
		c-0.19,0.04-0.37,0.09-0.55,0.14c0.16-0.2,0.26-0.44,0.45-0.62c0.27-0.26,0.56-0.5,0.84-0.75c0.56-0.49,1.11-0.99,1.67-1.48
		c1.02-0.91,2.05-1.81,3.07-2.72v0.01c-0.02,0.22,0.05,0.38,0.13,0.58c0.13,0.32,0.04,0.44-0.18,0.65c-0.13,0.13-0.27,0.25-0.4,0.38
		c-0.58,0.56-1.19,1.09-1.78,1.64c-0.02,0.01,0.01,0.04,0.02,0.03c0.62-0.42,1.19-0.9,1.75-1.4c0.27-0.24,0.57-0.48,0.79-0.77
		c0.12-0.15,0.15-0.28,0.11-0.46c-0.05-0.21-0.09-0.31,0.05-0.5c0.07-0.1,0.18-0.2,0.26-0.3c0.25-0.28,0.52-0.53,0.79-0.79
		c0.59-0.58,1.22-1.11,1.79-1.7c0.03-0.03,0.05-0.06,0.06-0.09c0.19-0.05,0.39-0.06,0.59,0.01
		C111.76,41.28,111.91,40.97,111.74,40.85z"/>
	<path class="st120" d="M7.27,136.94c-0.12,0.12-0.23,0.25-0.35,0.39c0.01,0.18,0.02,0.35,0.04,0.53c0.09-0.11,0.17-0.22,0.26-0.32
		c0.58-0.66,1.19-1.29,1.83-1.89c0.65-0.61,1.35-1.18,1.98-1.82c0.05-0.05-0.02-0.12-0.08-0.09C9.56,134.55,8.39,135.78,7.27,136.94
		z"/>
	<path class="st120" d="M98.94,50.9c-0.36,0.19-0.69,0.52-0.98,0.81c-0.32,0.32-0.63,0.63-0.95,0.95c-0.66,0.65-1.35,1.27-2.04,1.88
		c-0.31,0.27-0.63,0.54-0.93,0.83c-0.18,0.17-0.29,0.35-0.4,0.53c-0.06,0.02-0.13,0.04-0.19,0.07c-0.12,0.06-0.23,0.14-0.34,0.22
		c-0.11,0.09-0.22,0.18-0.32,0.29s-0.17,0.22-0.25,0.34c-0.02,0.03-0.02,0.07-0.01,0.09c-0.07,0.04-0.14,0.07-0.2,0.11
		c-0.1,0.06-0.19,0.13-0.28,0.2c-0.18,0.11-0.36,0.23-0.53,0.36c-0.57,0.44-1.11,0.93-1.64,1.4c-1.16,1.02-2.3,2.06-3.42,3.13
		c-1.1,1.05-2.19,2.11-3.26,3.19c-0.54,0.54-1.05,1.12-1.67,1.57c-0.57,0.42-1.14,0.83-1.66,1.31c-0.63,0.58-1.24,1.17-1.87,1.75
		c-0.64,0.6-1.31,1.18-1.9,1.83c-0.07,0.08-0.05,0.18,0.01,0.25c-0.89,0.81-1.77,1.63-2.64,2.46c-2.52,2.36-5.08,4.67-7.7,6.93
		c-1.45,1.25-2.98,2.44-4.37,3.75c-0.04,0.04-0.06,0.09-0.07,0.14c-0.41,0.28-0.82,0.57-1.22,0.86c-0.19,0.14-0.15,0.36-0.03,0.49
		c-2.32,1.92-4.49,4-6.7,6.04c-1.35,1.25-2.69,2.5-4.04,3.74c-0.68,0.63-1.37,1.24-2.13,1.78c-0.69,0.5-1.38,0.96-1.9,1.65
		c-0.3,0.39-0.56,0.81-0.9,1.18c-0.3,0.32-0.65,0.59-1.01,0.84c-0.73,0.53-1.54,1.03-2.05,1.79c-0.07,0.1-0.07,0.21-0.03,0.3
		c-0.22,0.2-0.44,0.39-0.7,0.51c-0.44,0.2-0.73,0.42-1.04,0.79c-0.34,0.41-0.69,0.8-1.05,1.19c-0.71,0.77-1.47,1.51-2.28,2.17
		c-0.39,0.32-0.79,0.63-1.17,0.95c-0.03,0.01-0.07,0.02-0.1,0.04c-0.15,0.1-0.25,0.22-0.33,0.35c-0.23,0.22-0.46,0.45-0.66,0.7
		c-0.03,0.04-0.05,0.08-0.06,0.12c-0.03-0.09-0.16-0.15-0.23-0.06c-0.71,1.04-1.83,1.65-2.76,2.46c-1.07,0.93-2.08,1.93-3.1,2.92
		c-1.05,1.02-2.1,2.05-3.15,3.08c-0.07-0.06-0.16-0.07-0.26,0c-0.68,0.49-1.25,1.12-1.84,1.71c-0.28,0.29-0.56,0.57-0.85,0.85
		c-0.15,0.15-0.31,0.3-0.47,0.44c-0.15,0.14-0.31,0.25-0.39,0.44c-0.01,0.03-0.02,0.05-0.02,0.08c-0.07,0.01-0.13,0.02-0.19,0.04
		c-0.33,0.12-0.61,0.37-0.89,0.59c-0.64,0.5-1.27,1.01-1.88,1.54c-0.15,0.13-0.15,0.33-0.07,0.47c-0.07,0.08-0.15,0.15-0.23,0.2
		c-0.26,0.15-0.48,0.26-0.71,0.48c-0.49,0.45-0.96,0.92-1.44,1.37c-2,1.89-4.03,3.74-6.08,5.58c-0.84,0.75-2.04,1.45-2.54,2.5
		c-0.45,0.96-0.4,2.18,0.22,3.06c0.32,0.45,0.75,0.8,1.19,1.12c0.41,0.3,0.84,0.58,1.32,0.75c0.35,0.12,0.74,0.19,1.08,0.05
		c0.6-0.23,0.85-1.02,0.61-1.61c-0.36,0.07-0.65,0.39-0.68,0.75c-0.58-0.06-1.08-0.47-1.38-0.97s-0.42-1.09-0.5-1.67
		c-0.01-0.1-0.03-0.21-0.1-0.29c-0.15-0.16-0.42-0.06-0.61,0.04c-0.14-0.7,0.02-1.75,0.64-2.21c0.29-0.22,0.57-0.45,0.84-0.69
		c1-0.89,2-1.78,2.99-2.69c0.38-0.35,0.76-0.71,1.14-1.06c-0.25,0.54-0.5,1.07-0.89,1.54c-0.51,0.6-1.23,1.13-1.61,1.82
		c-0.02,0.04,0.03,0.08,0.06,0.05c0.64-0.37,1.15-1.09,1.57-1.68c0.48-0.66,0.9-1.34,1.35-2.02c0.12-0.19,0.26-0.37,0.41-0.54
		c0.29-0.27,0.57-0.53,0.86-0.8c0.18-0.17,0.35-0.34,0.53-0.51c0.29-0.23,0.59-0.45,0.89-0.67c0.33-0.24,0.74-0.46,1-0.78
		c0.07-0.08,0.07-0.18,0.04-0.27c0.13-0.06,0.26-0.13,0.36-0.23c0.24-0.24,0.43-0.55,0.66-0.81c0.22-0.25,0.44-0.48,0.69-0.7
		c0.08-0.07,0.16-0.13,0.25-0.2c0.06-0.05,0.12-0.1,0.19-0.15c0.32-0.23,0.65-0.44,0.97-0.68c0.55-0.03,1.11-0.1,1.62-0.32
		c0.3-0.13,0.59-0.3,0.84-0.52c0.34-0.29,0.61-0.65,0.96-0.93c1.22-0.95,2.79-1.46,3.78-2.7c0.04-0.05-0.03-0.1-0.07-0.06
		c-1.1,1.12-2.56,1.7-3.78,2.65c-0.49,0.38-0.96,0.81-1.52,1.12c-0.02,0-0.04-0.01-0.01,0c-0.01-0.01-0.02-0.01-0.04-0.02
		c-0.01-0.01-0.02-0.02-0.04-0.06c0-0.01,0-0.02,0-0.04c-0.01,0.08,0-0.01,0.02-0.06c0.01-0.04,0.03-0.08,0.04-0.12
		c0.02-0.07,0.04-0.15,0.06-0.22c0-0.02,0-0.03,0.01-0.05c0.14-0.15,0.28-0.3,0.43-0.44c0.53-0.53,1.07-1.06,1.6-1.59
		c2.11-2.09,4.24-4.17,6.33-6.28c0.54-0.54,1.13-0.99,1.72-1.47c0.48-0.39,0.95-0.87,1.08-1.49c0.02,0.11,0.09,0.2,0.2,0.22
		c0,0.02,0.01,0.04,0.01,0.09c0,0.01,0,0.03,0,0.05c0,0.02-0.01,0.04-0.01,0.06s0.01,0.04,0.01,0.06c0.01,0.02,0.02,0.04,0.03,0.06
		c-0.15,0.26-0.37,0.47-0.46,0.77c-0.11,0.37-0.1,0.76-0.28,1.11c-0.4,0.78-1.24,1.17-1.96,1.58c-0.49,0.27-1.36,0.72-1.27,1.4
		c0,0.02,0.03,0.03,0.03,0.01c0.13-0.36,0.43-0.55,0.76-0.72c0.4-0.21,0.81-0.39,1.21-0.6c0.64-0.34,1.26-0.76,1.63-1.41
		c0.16-0.29,0.23-0.6,0.29-0.92c0.03-0.18,0.07-0.34,0.16-0.5c0.1-0.17,0.26-0.3,0.36-0.47c0.25-0.39,0.27-0.88,0.44-1.3
		c0.54-0.47,1.11-0.89,1.66-1.34c0.78-0.65,1.52-1.35,2.21-2.09c0.35-0.37,0.68-0.75,1.02-1.13c0.17-0.2,0.34-0.41,0.57-0.54
		c0.19-0.1,0.4-0.16,0.58-0.28c0.4-0.26,0.71-0.66,1.02-1.01c0.29-0.32,0.54-0.67,0.79-1.02c0.51-0.41,1.06-0.79,1.56-1.21
		c1.1-0.41,2.17-0.87,3.24-1.33c0.42-0.18,1.1-0.36,1.38-0.76c0.16-0.23,0.2-0.53,0.36-0.78c0.17-0.26,0.38-0.51,0.57-0.76
		c0.06-0.07-0.04-0.15-0.11-0.09c-0.39,0.35-0.67,0.69-0.85,1.18c-0.15,0.41-0.49,0.51-0.86,0.66c-0.31,0.13-0.62,0.26-0.93,0.39
		c-0.3,0.13-0.6,0.27-0.9,0.4c-0.09,0.02-0.18,0.04-0.26,0.04c-0.05,0-0.1,0-0.17-0.02c0.02-0.07,0.07-0.21,0.08-0.22
		c0.04-0.09,0.1-0.18,0.14-0.27c0.1-0.19,0.2-0.35,0.3-0.49c0.06-0.09,0.13-0.18,0.19-0.26c0.19-0.14,0.38-0.27,0.57-0.41
		c0.73-0.5,1.41-1.07,2.06-1.66c1.94-1.74,3.84-3.54,5.74-5.33c-0.05,0.07-0.11,0.14-0.16,0.21c-0.33,0.46-0.64,0.92-0.83,1.47
		c-0.04,0.13-0.07,0.25-0.12,0.38c-0.09,0.23-0.22,0.34-0.4,0.5c-0.23,0.2-0.45,0.41-0.67,0.63c-0.52,0.53-1.02,1.07-1.52,1.62
		c-0.03,0.03,0.02,0.07,0.05,0.04c0.9-0.82,1.83-1.63,2.56-2.61c0.14-0.18,0.31-0.28,0.42-0.48c0.17-0.28,0.35-0.56,0.54-0.82
		c0.35-0.47,0.73-0.92,1.09-1.38c0.76-0.96,1.54-1.89,2.4-2.76c0.87-0.87,1.92-1.48,2.84-2.28c0.51-0.44,0.97-0.93,1.44-1.4
		c0.07-0.07,0.13-0.14,0.2-0.2c0.15-0.1,0.3-0.21,0.44-0.31c0.5-0.35,0.99-0.7,1.49-1.04c0.06-0.04,0.22-0.2,0.27-0.2
		c0.06,0,0.18,0.1,0.24,0.12c0.16,0.04,0.34,0,0.48-0.08c0.38-0.21,0.68-0.64,0.95-0.97c0.32-0.39,0.61-0.81,0.89-1.22
		c0.37-0.54,0.73-1.09,1.11-1.63c0.26-0.23,0.53-0.46,0.79-0.69c2.57-2.3,5.1-4.64,7.56-7.05c1.14-1.12,2.23-2.29,3.34-3.44
		c0.19-0.16,0.38-0.31,0.58-0.45c0.56-0.28,1.1-0.6,1.64-0.89l2.84-1.54c0.4-0.21,0.68-0.39,0.9-0.78c0.24-0.42,0.54-0.81,0.87-1.16
		c0.66-0.71,1.48-1.25,2.14-1.96c0.02-0.02-0.01-0.05-0.03-0.03c-0.69,0.69-1.47,1.25-2.2,1.89c-0.29,0.26-0.56,0.53-0.78,0.85
		c-0.15,0.22-0.28,0.42-0.49,0.59c-0.19,0.15-0.44,0.25-0.65,0.37c-0.38,0.21-0.77,0.41-1.15,0.62c-0.05,0-0.09-0.02-0.12-0.04
		C84,65.85,83.98,65.83,84,65.85c-0.01-0.01-0.02-0.03-0.04-0.06C84,65.81,84,65.8,83.99,65.76c0-0.02,0-0.03,0-0.05
		c0-0.03-0.01-0.07,0-0.13c0-0.01,0.01-0.03,0.01-0.04s0.01-0.02,0.01-0.03c0.01-0.02,0.01-0.03,0.02-0.05
		c0.02-0.04,0.04-0.07,0.06-0.1c1.8-1.81,3.64-3.57,5.53-5.29c0.64-0.58,1.27-1.17,1.93-1.72c0.3-0.25,0.6-0.48,0.92-0.7
		c0.17-0.12,0.34-0.25,0.51-0.37c0.12-0.09,0.23-0.2,0.33-0.3c0.19-0.05,0.38-0.11,0.51-0.24c0.13-0.12,0.17-0.31,0.26-0.46
		c0.12-0.2,0.29-0.37,0.47-0.52c0.33-0.27,0.68-0.52,1.01-0.79c0.68-0.56,1.34-1.15,1.97-1.76c0.61-0.59,1.39-1.24,1.73-2.03
		C99.34,50.96,99.13,50.8,98.94,50.9z"/>
	<path class="st120" d="M17.85,127.65c-1.48,1.58-2.97,3.16-4.57,4.63c-0.03,0.02,0.01,0.07,0.04,0.05c1.68-1.37,3.26-2.9,4.58-4.64
		C17.92,127.66,17.88,127.61,17.85,127.65z"/>
	<path class="st120" d="M20.45,126.04c-0.36,0.22-0.72,0.44-1.09,0.64c-0.37,0.19-0.75,0.38-1.12,0.57
		c-0.06,0.03-0.01,0.12,0.05,0.1c0.8-0.26,1.55-0.72,2.22-1.24C20.54,126.08,20.5,126.01,20.45,126.04z"/>
	<path class="st120" d="M20.63,126.96c-0.37,0.39-0.79,0.73-1.17,1.12c-0.37,0.38-0.76,0.75-1.16,1.12
		c-0.05,0.05,0.03,0.13,0.08,0.09c0.42-0.33,0.82-0.69,1.21-1.05c0.4-0.37,0.73-0.81,1.09-1.23
		C20.73,126.97,20.67,126.92,20.63,126.96z"/>
	<path class="st120" d="M45.94,102.98c-0.95,0.49-1.9,0.98-2.82,1.53c-0.36,0.21-0.68,0.48-0.91,0.83c-0.26,0.38-0.44,0.81-0.68,1.2
		c-1.04,1.72-2.48,3.24-4.19,4.3c-0.03,0.02,0,0.05,0.03,0.04c1.62-0.95,3.03-2.23,4.01-3.84c0.25-0.4,0.45-0.82,0.66-1.24
		c0.27-0.52,0.6-0.84,1.12-1.11c0.97-0.5,1.93-1.03,2.87-1.57C46.13,103.06,46.04,102.93,45.94,102.98z"/>
	<path class="st120" d="M49.38,100.93c-0.78,0.62-1.55,1.31-2.1,2.15c-0.16,0.24-0.27,0.49-0.52,0.65s-0.55,0.26-0.82,0.38
		c-0.51,0.21-1.03,0.4-1.56,0.58c-0.02,0.01-0.01,0.04,0.01,0.03c0.57-0.16,1.14-0.34,1.7-0.54c0.47-0.17,0.91-0.3,1.21-0.73
		c0.3-0.45,0.6-0.87,0.97-1.27c0.38-0.4,0.79-0.78,1.18-1.17C49.5,100.98,49.43,100.89,49.38,100.93z"/>
	<path class="st120" d="M80.4,70.81c-2.47,1.5-4.61,3.66-6.27,6c-1.68,2.36-3.77,4.35-6.39,5.64c-0.02,0.01,0,0.05,0.02,0.04
		c1.28-0.58,2.47-1.32,3.53-2.24s1.9-1.96,2.68-3.11c0.8-1.19,1.88-2.23,2.92-3.21c1.14-1.07,2.38-1.99,3.64-2.93
		C80.64,70.91,80.52,70.74,80.4,70.81z"/>
	<path class="st120" d="M82.56,70.54c-0.39,0.23-0.72,0.62-1.07,0.91c-0.34,0.29-0.7,0.57-1.06,0.85c-0.73,0.56-1.48,1.09-2.26,1.58
		c-0.02,0.01,0,0.05,0.02,0.03c0.82-0.46,1.61-0.96,2.37-1.5c0.38-0.27,0.75-0.56,1.12-0.85c0.33-0.26,0.74-0.52,1-0.87
		C82.76,70.6,82.66,70.48,82.56,70.54z"/>
	<path class="st119" d="M123.87,32c-0.34-0.43-0.77-0.78-1.24-1.07c-0.19-0.12-0.39-0.21-0.6-0.29c-0.08-0.05-0.18-0.09-0.27-0.11
		c-0.06-0.01-0.11-0.01-0.17-0.02c-0.11-0.02-0.22-0.04-0.34-0.05c-0.37-0.04-0.89-0.03-1.21,0.22c0-0.03,0-0.05-0.02-0.08
		c-0.31-0.63-0.99-1.1-1.51-1.55c-0.3-0.26-0.6-0.5-0.92-0.7c-0.12-0.19-0.25-0.37-0.38-0.55c-0.1-0.13-0.2-0.27-0.31-0.4
		c-0.07-0.09-0.19-0.19-0.2-0.31c-0.01-0.19-0.3-0.22-0.34-0.02c0,0.01,0,0.02,0,0.03c-0.5-0.82-1.23-1.51-1.96-2.12
		c-0.33-0.27-0.68-0.54-1.02-0.8c-0.09-0.3-0.28-0.58-0.43-0.83c-0.23-0.36-0.52-0.69-0.88-0.95c-0.33-0.24-0.71-0.42-1.04-0.66
		c-0.35-0.26-0.63-0.58-0.94-0.89c-0.61-0.61-1.34-1.05-1.9-1.73c-0.38-0.46-0.8-1.09-1.37-1.38c0-0.04-0.01-0.08-0.04-0.11
		c-0.22-0.3-0.56-0.49-0.9-0.67c-0.33-0.27-0.67-0.53-1.01-0.77c-0.08-0.06-0.16-0.12-0.25-0.18c-0.06-0.04-0.11-0.08-0.17-0.12
		c-0.01-0.03-0.03-0.06-0.06-0.08c-0.03-0.01-0.07-0.03-0.1-0.04c-0.08-0.05-0.15-0.11-0.23-0.16c-0.98-0.68-1.99-1.33-2.99-1.98
		c-1.31-0.85-2.61-1.76-3.98-2.51c0.11-0.03,0.19-0.17,0.11-0.28c-0.31-0.46-0.9-0.69-1.41-0.86c-0.34-0.11-0.68-0.2-1.03-0.28
		c-0.06-0.03-0.12-0.06-0.18-0.09c-0.39-0.3-0.83-0.55-1.25-0.8c-0.47-0.28-0.95-0.54-1.44-0.78c-0.99-0.48-2.02-0.88-3.08-1.14
		c-0.2-0.05-0.41-0.09-0.61-0.13c-0.01-0.08-0.05-0.15-0.14-0.19c-0.67-0.26-1.35-0.48-2.04-0.68c-0.29-0.09-0.59-0.17-0.89-0.22
		C85,5.62,84.8,5.61,84.62,5.64c-0.02-0.02-0.04-0.03-0.06-0.04c-0.31-0.14-0.58,0.11-0.83,0.27c-0.2,0.13-0.4,0.27-0.59,0.41
		c-0.16-0.18-0.51-0.23-0.67,0.06c-1.23,2.17-2.46,4.34-3.69,6.52c-0.3,0.54-0.61,1.08-0.91,1.62c-0.23,0.4-0.5,0.81-0.71,1.24
		c-0.04-0.02-0.08-0.04-0.13-0.04c-0.03,0-0.06,0.01-0.09,0.02c0,0-0.01,0-0.01,0.01c-0.02,0.01-0.08,0.04-0.07,0.03
		c-0.03,0.02-0.05,0.05-0.07,0.08c-0.01,0.02-0.02,0.04-0.02,0.06c-0.02,0.01-0.04,0.01-0.05,0.02c-0.03,0.02-0.06,0.05-0.08,0.09
		c-0.01,0.03-0.03,0.06-0.03,0.09c0,0.03-0.01,0.06-0.01,0.1c0,0.03,0,0.06,0,0.09c0,0.08,0.02,0.16,0.03,0.24
		c0.02,0.05,0.04,0.09,0.08,0.12c0.03,0.02,0.06,0.04,0.09,0.05c0.03,0.01,0.07,0.02,0.1,0.02c0.04,0,0.07-0.02,0.11-0.04
		c0.04,0.18,0.09,0.35,0.16,0.52c-0.01,0.06-0.02,0.12-0.03,0.18c0,0.01-0.01,0.02-0.01,0.03c0,0,0,0,0.01,0
		c0,0.03-0.01,0.05-0.01,0.08c0.01,0.14,0.12,0.25,0.25,0.28c-0.01,0.03-0.03,0.07-0.03,0.1C77.34,17.92,77.41,18,77.49,18
		c0.07,0.19,0.16,0.37,0.25,0.55c0-0.15,0.01-0.31,0.01-0.46c-0.11-0.17-0.16-0.38-0.2-0.57c-0.03-0.19-0.05-0.38-0.06-0.57
		c0-0.18,0.04-0.37,0-0.55c-0.02-0.12,0.06-0.24,0.15-0.31c0.2-0.16,0.37-0.34,0.52-0.54c0.35-0.54,0.74-1.06,1.11-1.59
		c0.25-0.37,0.51-0.73,0.78-1.08c0.04-0.05,0.08-0.1,0.12-0.15c0.03-0.04,0.05-0.09,0.08-0.13c-0.01,0.13-0.02,0.27-0.04,0.4
		c-0.05,0.65-0.1,1.29-0.12,1.94c0.01-0.04,0.02-0.07,0.03-0.11c0.13-0.54,0.22-1.09,0.34-1.63c0.04-0.17,0.09-0.32,0.14-0.49
		c0.01-0.25,0.03-0.51,0.04-0.76c0.28-0.45,0.57-0.9,0.84-1.36c0.49-0.83,0.93-1.71,1.5-2.49c0.28-0.38,0.6-0.71,0.99-0.98
		c0.24-0.17,0.5-0.29,0.76-0.42c0.43,0.08,0.86,0.24,1.3,0.37c0.58,0.16,1.18,0.27,1.77,0.38c0.01,0.01,0.02,0.01,0.03,0.02
		c0.7,0.5,1.38,0.95,2.18,1.27c0.97,0.39,2,0.66,2.98,1.02c0.44,0.48,1.01,0.81,1.33,1.4c0.07,0.13,0.11,0.29,0.19,0.42
		c0.07,0.12,0.14,0.23,0.23,0.33c0.02,0.02,0.05,0.04,0.07,0.06c0.1,0.14,0.22,0.26,0.35,0.37c0.09,0.04,0.18,0.09,0.27,0.12
		c0.34,0.15,0.68,0.27,1.03,0.39c0.22,0.07,0.44,0.12,0.66,0.17c-0.23-0.14-0.46-0.27-0.7-0.39c-0.44-0.21-0.92-0.36-1.27-0.72
		c-0.31-0.32-0.4-0.68-0.49-1.08c2.15,0.81,4.03,2.16,5.95,3.41c0.21,0.13,0.41,0.27,0.62,0.4c0.23,0.4,0.52,0.77,0.81,1.12
		c-0.11-0.04-0.22-0.08-0.32-0.13c-0.46-0.21-0.88-0.48-1.27-0.78c0.11,0.11,0.22,0.22,0.33,0.31c0.35,0.31,0.7,0.61,1.08,0.88
		c0.16,0.12,0.33,0.23,0.5,0.34c0.2,0.06,0.4,0.12,0.61,0.16c0.71,0.14,1.25,0.51,1.86,0.88c0.43,0.26,0.86,0.5,1.29,0.74
		c0.13,0.1,0.25,0.2,0.38,0.31c0.1,0.08,0.2,0.09,0.29,0.07c0.18,0.24,0.38,0.46,0.55,0.69c0.38,0.49,0.75,1,1.08,1.52
		c0.31,0.48,0.59,0.84,1.11,1.1c0.41,0.21,0.71,0.51,1.01,0.83c0.35,0.44,0.76,0.85,1.11,1.27c0.56,0.65,1.14,1.29,1.67,1.97
		c0.23,0.31,0.47,0.61,0.67,0.95c0.17,0.29,0.28,0.64,0.53,0.87c0.25,0.22,0.6,0.32,0.9,0.44c0.24,0.1,0.48,0.18,0.73,0.25
		c0.03,0.02,0.06,0.05,0.09,0.07c0.27,0.17,0.59,0.26,0.86,0.43c0.34,0.23,0.64,0.5,0.95,0.77c0.39,0.4,0.72,0.85,1.06,1.32
		c0.58,0.8,1.14,1.62,1.71,2.44c0.55,0.79,1.09,1.6,1.62,2.41c0.24,0.38,0.47,0.81,0.81,1.11c0.1,0.09,0.28,0.17,0.44,0.26
		c0.2,0.64,0.39,1.29,0.97,1.66c0.25,0.16,0.48,0.35,0.7,0.54c0.33,0.43,0.66,0.85,1,1.27c0.24,0.3,0.47,0.6,0.71,0.9
		c0.19,0.34,0.38,0.67,0.55,1.01c0.53,1.04,1.01,2.12,1.6,3.13c0.6,1.03,1.34,1.97,1.98,2.98c0.65,1.04,1.23,2.13,1.8,3.22
		c0.52,0.99,1,2.02,1.57,2.99c0.02,0.14,0.07,0.28,0.12,0.4c0.2,0.48,0.51,0.91,0.75,1.37c0.28,0.54,0.57,1.06,0.84,1.61
		c0.15,0.31,0.29,0.66,0.47,0.98c0.11,0.25,0.21,0.49,0.33,0.73c0.21,0.43,0.44,0.85,0.65,1.29c0.21,0.45,0.4,0.91,0.61,1.36
		c0.07,0.14,0.32,0.13,0.3-0.06c-0.11-0.95-0.58-1.84-1.03-2.67c-0.04-0.07-0.08-0.14-0.13-0.21c0-0.01,0.01-0.02,0.01-0.04
		c-0.08-0.5-0.41-0.98-0.64-1.43c-0.25-0.5-0.47-1.03-0.74-1.52c-0.22-0.42-0.48-0.81-0.73-1.21c0.05-0.06,0.07-0.14,0.03-0.23
		c-0.41-1.12-1.01-2.17-1.54-3.24c-0.54-1.07-1.08-2.14-1.69-3.17c0.01-0.05,0.02-0.11-0.01-0.18c-0.44-1.02-1-1.99-1.55-2.95
		c-0.27-0.47-0.55-0.93-0.85-1.38c-0.22-0.32-0.46-0.74-0.77-1.01c0.07-0.08,0.1-0.19,0.04-0.3c-0.61-0.97-1.3-1.88-2.02-2.78
		c-0.28-0.53-0.65-1-1.1-1.38c-0.21-0.27-0.43-0.54-0.64-0.82c0.01-0.05,0-0.1-0.02-0.15c-0.08-0.16-0.16-0.32-0.24-0.47
		c0.02-0.07,0.01-0.15-0.04-0.22c-0.44-0.57-0.82-1.2-1.23-1.79c-0.2-0.29-0.41-0.57-0.65-0.83c-0.17-0.19-0.51-0.61-0.8-0.55
		c-0.01,0-0.02,0.01-0.04,0.02c-0.23-0.35-0.46-0.7-0.7-1.05c-0.38-0.56-0.78-1.1-1.19-1.65c0.07,0.03,0.15,0.05,0.22,0.05
		c0.11,0,0.21-0.05,0.3-0.1c0.07-0.04,0.14-0.08,0.21-0.12l0,0c0.02-0.01,0.04-0.02,0.06-0.02c0.04-0.01,0.08-0.03,0.11-0.04
		c0.01,0,0.03-0.01,0.05-0.01l0,0c0,0,0,0,0.01,0c0.39,0.07,0.76,0.23,1.1,0.43c0.41,0.25,0.77,0.58,1.15,0.86
		c0.44,0.33,0.86,0.67,1.25,1.06c0.07,0.07,0.19-0.04,0.13-0.11C124.59,32.95,124.24,32.46,123.87,32z M115.58,27.92
		c-0.36-0.16-0.74-0.28-0.97-0.62c-0.21-0.31-0.37-0.63-0.61-0.92c-0.25-0.31-0.53-0.59-0.79-0.89c-0.42-0.5-0.83-1.01-1.25-1.52
		c0.76,0.61,1.56,1.18,2.29,1.82c0.22,0.36,0.45,0.72,0.7,1.06c0.22,0.31,0.45,0.62,0.68,0.93c0.06,0.08,0.12,0.16,0.18,0.25
		C115.73,28,115.66,27.96,115.58,27.92z"/>
	<g>
		<path d="M66.05,91.02c0.03,0.04,0.04,0.05,0.05,0.08c-0.07-0.1-0.14-0.2-0.2-0.3c-0.04-0.06-0.08-0.13-0.12-0.2
			s-0.09-0.14-0.13-0.21c-1.38,1.26-2.75,2.52-4.13,3.78c-6,5.5-12,11-17.99,16.5c-5.09,4.67-10.18,9.33-15.27,14
			c-3.67,3.37-7.35,6.74-11.02,10.11c-1.75,1.6-3.46,3.25-5.25,4.81c-2.4,2.1-6.7-1.76-4.54-4.31c0.33-0.39,0.78-0.72,1.16-1.06
			c2.41-2.21,4.83-4.43,7.24-6.64c4.18-3.83,8.36-7.67,12.54-11.5c5.44-4.99,10.87-9.97,16.31-14.96
			c5.67-5.2,11.35-10.41,17.02-15.61c-0.08-0.2-0.15-0.4-0.22-0.6c-0.03-0.1-0.07-0.2-0.1-0.3l-10.2,9.35
			c-5.87,5.38-11.73,10.76-17.6,16.14c-4.78,4.38-9.55,8.76-14.33,13.14c-3.16,2.9-6.33,5.8-9.49,8.7c-1.63,1.5-4.11,2.97-3.68,5.53
			c0.48,2.88,4.24,4.81,6.55,2.69c0.62-0.57,1.24-1.14,1.86-1.71c2.86-2.62,5.72-5.25,8.59-7.87c4.54-4.16,9.08-8.32,13.62-12.49
			c5.75-5.27,11.49-10.54,17.24-15.8c4.05-3.72,8.11-7.43,12.16-11.15C66.11,91.11,66.08,91.07,66.05,91.02z"/>
		<path d="M10.35,141.44c-0.46,0-0.94-0.08-1.41-0.25c-1.67-0.58-2.93-2.01-3.21-3.66c-0.39-2.33,1.36-3.8,2.9-5.09
			c0.31-0.26,0.62-0.52,0.9-0.78l52.06-47.73l0.27,0.87c0.06,0.18,0.13,0.37,0.21,0.57l0.1,0.24L8.86,134.5
			c-0.12,0.11-0.24,0.21-0.37,0.31c-0.27,0.23-0.55,0.46-0.76,0.71c-0.98,1.15-0.37,2.5,0.44,3.3c0.96,0.95,2.5,1.42,3.56,0.49
			c1.16-1.01,2.31-2.08,3.43-3.12c0.6-0.56,1.21-1.13,1.82-1.68l26.29-24.11c5.99-5.5,11.99-11,17.99-16.5l4.48-4.1l0.36,0.62
			c0.04,0.06,0.07,0.12,0.11,0.18c0.04,0.07,0.09,0.14,0.13,0.21l-0.3,0.22l0.3-0.22c0,0,0.01,0.01,0.01,0.01l0,0l0.12,0.21
			l0.08,0.23l0,0c0,0-4.18,3.84-6.03,5.53c-2.1,1.92-4.2,3.85-6.3,5.78c-3.99,3.65-7.98,7.31-11.98,10.97l-5.27,4.83
			c-4.54,4.17-9.08,8.33-13.62,12.49c-1.87,1.71-3.74,3.42-5.61,5.14l-4.84,4.44C12.19,141.09,11.3,141.44,10.35,141.44z
			 M61.23,85.27l-51.2,46.94c-0.29,0.26-0.6,0.53-0.92,0.8c-1.46,1.23-2.96,2.49-2.64,4.4c0.23,1.36,1.32,2.59,2.71,3.07
			c1.18,0.41,2.36,0.19,3.22-0.6l4.84-4.44c1.87-1.71,3.74-3.43,5.61-5.14c4.54-4.16,9.08-8.32,13.62-12.49l5.27-4.83
			c3.99-3.66,7.98-7.32,11.98-10.97c2.1-1.93,4.2-3.85,6.3-5.78c1.88-1.72,3.75-3.43,5.62-5.15c-0.02-0.03-0.04-0.06-0.05-0.09
			c0-0.01-0.01-0.01-0.01-0.02l-3.79,3.47c-6,5.5-12,11-17.99,16.5l-26.29,24.11c-0.61,0.56-1.21,1.12-1.81,1.68
			c-1.12,1.04-2.27,2.12-3.44,3.14c-1.41,1.24-3.37,0.68-4.58-0.52c-1.12-1.11-1.71-2.87-0.49-4.32c0.25-0.3,0.56-0.55,0.85-0.8
			c0.12-0.1,0.23-0.2,0.35-0.3l52.92-48.53C61.26,85.36,61.25,85.32,61.23,85.27z"/>
	</g>
	<g>
		<path d="M115.19,44.12c-0.45-1.15-1.54-2.15-2.48-2.93c-0.9-0.75-1.98-1.24-3.12-0.72c-0.04,0.02-0.08,0.05-0.11,0.08
			c-0.03,0.02-0.06,0.03-0.09,0.05l-3.71,3.4c-3.34,3.06-6.67,6.12-10.01,9.18c-4.91,4.5-9.81,9-14.72,13.5
			C75,72.15,69.03,77.62,63.07,83.09l-19.29,17.69c-2.67,2.45-5.35,4.91-8.02,7.36c0.19,0.18,0.37,0.35,0.56,0.52
			c0.03,0.03,0.05,0.06,0.08,0.08c0.03-0.03,0.06-0.06,0.09-0.08C42.9,102.77,49.32,96.89,55.74,91
			c6.14-5.63,12.29-11.27,18.43-16.9c5.37-4.93,10.75-9.86,16.12-14.78l12.14-11.13c2.26-2.07,4.52-4.14,6.78-6.22
			c0.25-0.23,0.5-0.45,0.74-0.68c1.39-0.56,2.63,0.91,3.49,1.83c0.57,0.61,1.12,1.31,1.07,2.19c0,0.06,0.04,0.24,0.02,0.29
			c-0.06,0.12-0.26,0.24-0.35,0.32c-0.68,0.62-1.36,1.25-2.04,1.87c-2.89,2.65-5.78,5.3-8.67,7.95c-4.55,4.17-9.1,8.35-13.66,12.52
			c-5.65,5.18-11.29,10.35-16.94,15.53c-6.31,5.78-12.61,11.56-18.92,17.35c-4.53,4.15-9.06,8.3-13.59,12.46
			c0.23,0.18,0.47,0.37,0.69,0.56c1.75-1.61,3.51-3.21,5.26-4.82c6.48-5.94,12.96-11.88,19.44-17.83L84,74.78l15.33-14.06
			c3.63-3.33,7.26-6.66,10.89-9.99c1.1-1.01,2.2-2.01,3.29-3.02c0.51-0.47,1.12-0.92,1.58-1.45
			C115.58,45.72,115.44,44.76,115.19,44.12z"/>
		<path d="M41.06,114.66l-0.25-0.22c-0.22-0.19-0.45-0.37-0.68-0.55l-0.35-0.27l0.33-0.3c4.31-3.96,8.62-7.9,12.93-11.85l0.66-0.61
			c6.31-5.79,12.61-11.57,18.92-17.35l16.94-15.53c3.02-2.76,6.04-5.53,9.05-8.29l15.32-14.05c0.04-0.03,0.08-0.07,0.13-0.1
			c0.03-0.02,0.06-0.05,0.1-0.07c0,0,0,0,0-0.01c-0.01-0.06-0.01-0.12-0.01-0.15c0.04-0.71-0.36-1.28-0.97-1.93l-0.16-0.17
			c-0.81-0.87-1.8-1.95-2.85-1.59c-0.14,0.13-0.29,0.26-0.43,0.4l-0.26,0.24c-2.26,2.08-4.52,4.15-6.78,6.22L90.54,59.6
			c-5.37,4.92-10.75,9.85-16.12,14.78L49.9,96.86c-4.39,4.02-8.78,8.05-13.16,12.07l-0.34-0.2l0.27,0.27l-0.22,0.22l-0.38-0.28
			c-0.17-0.16-0.33-0.31-0.5-0.47l-0.29-0.28l0.23-0.33l33.16-30.41c4.01-3.68,8.03-7.36,12.03-11.05l28.57-26.17
			c0-0.01,0.08-0.07,0.15-0.1c1.12-0.51,2.3-0.25,3.53,0.77c1.01,0.84,2.11,1.86,2.59,3.08v0c0.31,0.79,0.43,1.87-0.17,2.53
			c-0.32,0.37-0.7,0.69-1.07,1.01c-0.18,0.15-0.36,0.31-0.53,0.46c-0.73,0.67-1.46,1.34-2.19,2.01L66,91.79
			c-5.94,5.45-11.88,10.9-17.82,16.34l-1.62,1.49c-0.88,0.8-1.75,1.61-2.63,2.41c-0.88,0.8-1.75,1.6-2.63,2.41L41.06,114.66z
			 M40.94,113.58c0.03,0.03,0.07,0.05,0.1,0.08c0.79-0.73,1.59-1.46,2.39-2.19c0.88-0.8,1.75-1.6,2.63-2.41l1.62-1.49
			c5.94-5.45,11.88-10.89,17.82-16.34l45.57-41.79c0.73-0.67,1.46-1.34,2.19-2.01c0.18-0.16,0.36-0.32,0.55-0.48
			c0.35-0.3,0.71-0.61,1-0.94c0.35-0.39,0.27-1.16,0.03-1.76l0,0c-0.41-1.06-1.43-2-2.37-2.78c-1-0.83-1.89-1.05-2.73-0.67
			l-0.14,0.1L81.2,66.96c-4,3.68-8.02,7.36-12.03,11.05l-32.86,30.14c0.03,0.03,0.07,0.06,0.1,0.09c4.29-3.95,8.64-7.94,12.99-11.92
			l24.52-22.49c5.37-4.93,10.75-9.86,16.12-14.78l12.14-11.13c2.26-2.07,4.52-4.14,6.78-6.22l0.26-0.24
			c0.16-0.14,0.32-0.29,0.47-0.43l0.12-0.08c1.55-0.63,2.87,0.81,3.75,1.75l0.16,0.17c0.64,0.69,1.23,1.46,1.17,2.47
			c0.03,0.16,0.04,0.28,0,0.41c-0.1,0.2-0.25,0.31-0.37,0.4l-0.08,0.06L99.11,60.24c-3.01,2.76-6.03,5.53-9.05,8.29L73.12,84.07
			c-6.31,5.78-12.61,11.56-18.92,17.35l-0.66,0.61C49.34,105.87,45.14,109.72,40.94,113.58z M36.35,108.69L36.35,108.69
			L36.35,108.69z M114.16,45.56L114.16,45.56L114.16,45.56z"/>
	</g>
	<g>
		<path class="st121" d="M113.76,47.31c0.41,0.37,1.04,0.4,1.47,0.06c0.12-0.09,0.23-0.2,0.34-0.3c0.43-0.38,0.85-0.76,1.27-1.15
			c1.24-1.12,2.48-2.24,3.71-3.36c0.43-0.39,0.86-0.78,1.29-1.16c0.08-0.07,0.17-0.13,0.23-0.21c0.4-0.45,0.37-1.18,0.19-1.71
			c-0.25-0.75-0.7-1.49-1.15-2.14c-0.47-0.68-1.02-1.32-1.62-1.89c-0.55-0.52-1.16-1.03-1.87-1.32c-0.62-0.25-1.4-0.43-2.03-0.13
			c-0.35,0.16-0.59,0.47-0.87,0.73c-0.36,0.35-0.75,0.67-1.12,1.01c-0.71,0.64-1.42,1.28-2.12,1.92c-0.72,0.65-1.43,1.29-2.15,1.94
			c-0.17,0.15-0.33,0.32-0.5,0.46c-0.15,0.12-0.27,0.22-0.36,0.4c-0.19,0.39-0.13,0.82,0.07,1.19c0.28,0.49,1.02,0,0.73-0.49
			c-0.16-0.28,0.11-0.42,0.28-0.58c0.27-0.25,0.54-0.5,0.82-0.74c0.56-0.51,1.12-1.01,1.69-1.52c0.6-0.54,1.2-1.08,1.8-1.62
			c0.55-0.49,1.12-0.97,1.64-1.49c0.19-0.19,0.35-0.4,0.63-0.45c0.3-0.05,0.63,0.02,0.91,0.11c0.63,0.2,1.16,0.62,1.65,1.06
			c1.08,0.97,2,2.17,2.6,3.49c0.13,0.29,0.26,0.6,0.21,0.92c-0.01,0.05-0.02,0.1-0.03,0.15c0,0-0.12,0.21-0.06,0.13
			c0,0.01-0.01,0.01-0.02,0.01c-0.07,0.07-0.15,0.14-0.23,0.2c-0.37,0.34-0.74,0.67-1.11,1.01c-1.12,1.02-2.25,2.03-3.37,3.05
			c-0.51,0.46-1.01,0.92-1.52,1.37c-0.14,0.13-0.28,0.25-0.43,0.38c-0.1,0.09,0.1-0.05,0,0c-0.15,0.07-0.25,0.14-0.4,0
			C113.91,46.26,113.33,46.93,113.76,47.31L113.76,47.31z"/>
	</g>
	<g>
		<path class="st122" d="M125.67,37.96c0.24-0.21,0.47-0.43,0.71-0.64c0.07-0.07,0.12-0.1,0.17-0.19c0.54-0.87,0.07-1.85-0.36-2.65
			c-0.49-0.91-1.11-1.75-1.82-2.51c-0.66-0.71-1.44-1.43-2.34-1.8c-0.45-0.19-0.97-0.32-1.46-0.28c-0.24,0.02-0.48,0.08-0.69,0.2
			c-0.16,0.09-0.23,0.26-0.33,0.35c-0.4,0.4,0.27,0.98,0.67,0.58c0.06-0.06,0.12-0.13,0.16-0.2c0.08-0.15-0.05,0.04-0.06,0.04
			c-0.02-0.04,0.41-0.09,0.43-0.09c0.34,0,0.68,0.1,0.98,0.23c0.75,0.34,1.39,0.94,1.96,1.52c0.6,0.63,1.13,1.33,1.57,2.09
			c0.28,0.49,0.96,1.52,0.56,2.05c0.01-0.02-0.09,0.08-0.11,0.1c-0.23,0.21-0.46,0.42-0.7,0.63c-0.18,0.16-0.12,0.48,0.05,0.62
			C125.25,38.18,125.5,38.12,125.67,37.96L125.67,37.96z"/>
	</g>
	<path d="M130.28,30.12c0,0-0.7-1.23-1.05-1.68c-0.4-0.53-0.85-0.96-1.32-1.29c-0.41-0.29-0.79-0.53-1.24-0.7
		c-0.74-0.25-1.44-0.11-2.01,0.42l-3.42,3.09c-0.16,0.14-0.24,0.34-0.24,0.56c0,0.24,0.12,0.48,0.28,0.61
		c0.32,0.3,0.78,0.29,1.12-0.03l3.17-2.86c0.09-0.08,0.17-0.15,0.29-0.27c0.01-0.01,0.03-0.01,0.04-0.02
		c0.17-0.04,0.46,0.13,0.64,0.24c0.4,0.23,0.73,0.49,0.99,0.76c0.3,0.3,0.58,0.69,0.91,1.23c0.24,0.38,0.47,0.78,0.63,1.21
		c0.03,0.07,0.03,0.09,0,0.11l-0.11,0.1c-0.05,0.04-0.1,0.09-0.13,0.12l-1.1,0.99c-0.37,0.33-0.74,0.66-1.11,1l-1.07,0.96
		c-0.16,0.14-0.24,0.34-0.24,0.56c0,0.25,0.12,0.48,0.29,0.63c0.15,0.13,0.33,0.19,0.52,0.19c0.21,0,0.42-0.08,0.6-0.25l0.08-0.07
		c0.66-0.59,1.31-1.18,1.97-1.77l1.21-1.09c0.34-0.3,0.79-0.7,0.77-1.43C130.7,30.94,130.48,30.51,130.28,30.12z"/>
	<path class="st123" d="M111.14,38.44c-9.63-9.38-20.89-17-33.19-19.17l-1.37-3.11l5.22-9.25c0.09-0.17,0.23-0.31,0.39-0.42
		l1.16-0.78c0.32-0.22,0.71-0.3,1.1-0.25c3.17,0.47,20.83,5.71,39.76,30.67c3.79,4.97,16.99,23.64,20.78,50.61
		c0,0-10.58-22.6-27.61-41.76"/>
	<g>
		<path d="M144.86,84.46c-1.77-6.69-3.94-13.28-6.59-19.67c-2.28-5.51-4.92-10.88-7.93-16.03c-2.64-4.5-5.57-8.83-8.8-12.93
			c-2.76-3.49-5.74-6.82-8.93-9.92c-2.7-2.63-5.56-5.11-8.56-7.39c-2.43-1.84-4.95-3.56-7.56-5.13c-1.95-1.17-3.94-2.25-5.99-3.22
			c-1.25-0.59-2.52-1.15-3.82-1.63c-0.32-0.12-0.7-0.32-1.05-0.35c-0.31-0.03-0.6,0.21-0.85,0.36c-0.32,0.19-0.66,0.37-0.97,0.58
			c-0.27,0.19-0.41,0.51-0.57,0.8c-1.56,2.79-3.13,5.58-4.69,8.36c-0.14,0.24-0.27,0.48-0.41,0.73c-0.14,0.25,0.26,0.44,0.4,0.19
			c1.37-2.44,2.74-4.88,4.1-7.32c0.32-0.58,0.65-1.15,0.97-1.73c0.15-0.26,0.25-0.53,0.5-0.7c0.33-0.23,0.7-0.42,1.05-0.63
			c0.18-0.11,0.4-0.21,0.55-0.18c0.07,0.01,0.28,0.09,0.39,0.14c1.12,0.4,2.21,0.86,3.29,1.35c1.89,0.86,3.74,1.82,5.54,2.85
			c2.49,1.43,4.9,2.99,7.23,4.68c2.89,2.09,5.65,4.36,8.27,6.78c3.15,2.9,6.1,6.02,8.85,9.3c3.17,3.79,6.08,7.81,8.71,11.99
			c3.07,4.87,5.78,9.97,8.15,15.22c2.72,6.02,4.99,12.24,6.88,18.57c0.5,1.68,0.97,3.36,1.42,5.05
			C144.51,84.87,144.93,84.73,144.86,84.46L144.86,84.46z"/>
	</g>
	<g>
		<path d="M99.23,50.39c-0.32,0.89-0.43,1.79-0.45,2.73c-0.01,0.24-0.03,0.49-0.15,0.7c-0.15,0.25-0.38,0.32-0.64,0.38
			c-0.32,0.08-0.67,0.25-0.67,0.63c0,0.14,0.22,0.13,0.22-0.01c0-0.24,0.26-0.34,0.46-0.39s0.41-0.09,0.58-0.21
			c0.31-0.22,0.41-0.62,0.43-0.98c0.03-0.46,0.02-0.92,0.09-1.38c0.07-0.47,0.19-0.93,0.35-1.38
			C99.48,50.36,99.28,50.26,99.23,50.39L99.23,50.39z"/>
	</g>
	<g>
		<path d="M101.66,55.64c-0.03-0.23-0.22-0.4-0.44-0.43c-0.27-0.04-0.51,0.13-0.7,0.3c-0.39,0.37-0.65,0.87-0.73,1.4
			c-0.02,0.14,0.19,0.18,0.22,0.04c0.07-0.42,0.25-0.81,0.52-1.13c0.13-0.15,0.29-0.32,0.49-0.38c0.16-0.05,0.4,0.01,0.42,0.2
			C101.45,55.79,101.68,55.78,101.66,55.64L101.66,55.64z"/>
	</g>
	<g>
		<path d="M98.12,59.24c-0.16,1.05-0.56,2.06-1.17,2.94c-0.08,0.12,0.09,0.26,0.17,0.14c0.63-0.91,1.05-1.95,1.22-3.04
			C98.36,59.15,98.14,59.1,98.12,59.24L98.12,59.24z"/>
	</g>
	<g>
		<path d="M30.29,116.33c-0.22-0.82,0.86-1.21,1.4-1.53c0.56-0.34,1.21-0.74,1.59-1.28c0.16-0.22,0.24-0.47,0.3-0.73
			c0.09-0.35,0.2-0.61,0.41-0.91c0.29-0.42,0.25-0.95-0.12-1.3c-0.1-0.1-0.25,0.07-0.14,0.17c0.28,0.27,0.31,0.67,0.1,0.99
			c-0.15,0.23-0.29,0.42-0.38,0.69c-0.09,0.3-0.13,0.61-0.3,0.88c-0.19,0.31-0.49,0.55-0.78,0.76c-0.27,0.21-0.56,0.4-0.85,0.57
			s-0.61,0.31-0.88,0.51c-0.4,0.29-0.69,0.74-0.56,1.24C30.12,116.54,30.32,116.47,30.29,116.33L30.29,116.33z"/>
	</g>
	<path class="st124" d="M8.06,135.52c1.49-0.59,2.65,0.08,3.29,1.03c0.51,0.76,0.79,1.75,0.08,2.72"/>
	<path class="st125" d="M113.08,28.67c0,0,2.72,4.49,2.07,4.97l-2.05,2.09c0,0,2.59-1.47,3.03-1.02c0,0,1.79,1.39,2.95,2.93
		l-1.54-3.47c-0.13-0.29-0.11-0.63,0.07-0.9c0.23-0.36,0.88-0.94,1.71-1.73c0,0-1.36,0.75-2.25,0.94c-0.32,0.07-0.66-0.06-0.87-0.3
		L113.08,28.67z"/>
	<path class="st125" d="M83.86,6.03c0,0,1.4,2.3,1.06,2.55l-1.05,1.07c0,0,1.33-0.75,1.55-0.52c0,0,0.92,0.71,1.51,1.5l-0.79-1.78
		c-0.07-0.15-0.06-0.32,0.03-0.46c0.12-0.18,0.45-0.48,0.88-0.88c0,0-0.7,0.38-1.15,0.48c-0.16,0.04-0.34-0.03-0.45-0.16L83.86,6.03
		z"/>
</g>
</svg>
