<?xml version="1.0" encoding="utf-8"?>
<!-- Generator: Adobe Illustrator 28.0.0, SVG Export Plug-In . SVG Version: 6.00 Build 0)  -->
<svg version="1.1" id="Layer_1" xmlns="http://www.w3.org/2000/svg" xmlns:xlink="http://www.w3.org/1999/xlink" x="0px" y="0px"
	 viewBox="0 0 800 800" style="enable-background:new 0 0 800 800;" xml:space="preserve">
<style type="text/css">
	.st0{fill:#2B2B2B;}
	.st1{fill:#030303;}
	.st2{fill:#675E66;}
	.st3{fill:none;stroke:#000000;stroke-width:2;stroke-linecap:round;stroke-miterlimit:10;}
	.st4{fill:none;stroke:#000000;stroke-width:0.5;stroke-linecap:round;stroke-miterlimit:10;}
	.st5{fill:none;stroke:#000000;stroke-miterlimit:10;}
	.st6{fill:none;stroke:#000000;stroke-linecap:round;stroke-miterlimit:10;}
	.st7{fill:url(#SVGID_1_);}
	.st8{fill:url(#SVGID_00000021095174162903699380000010289023236967342008_);}
	.st9{fill:url(#SVGID_00000028305284792072016690000006981787260395596936_);}
	.st10{fill:url(#SVGID_00000116913775412895212440000006971606921728439741_);}
	.st11{fill:url(#SVGID_00000085941913301540767310000012570478105096172675_);}
	.st12{fill:url(#SVGID_00000044881840625194242090000009460053657971096970_);}
	.st13{fill:url(#SVGID_00000028302244682224784310000008958668744770841514_);}
	.st14{fill:url(#SVGID_00000158730227019572886100000006413500004489364885_);}
</style>
<g id="_x34_-WEAR__x5B_HOODIE_x5D__VOJAK_x2B_SMK_x2B_">
	<path class="st0" d="M500.1,166.78c-0.03-0.46,0.03-0.95,0.05-1.45c0.04-0.86-0.05-1.82-0.7-2.4c-0.43-0.38-1.03-0.51-1.59-0.63
		c-2.38-0.49-4.76-0.98-7.14-1.46c-1.1-0.23-2.25-0.47-3.12-1.18c-0.95-0.77-1.43-1.97-1.87-3.11c-0.26-0.69-0.53-1.37-0.79-2.06
		c-0.39-1.03-0.81-2.08-1.56-2.88c-1.22-1.31-3.07-0.96-4.25-2.21c-0.28-0.3-0.48-0.65-0.71-0.98c-1.2-1.65-3.55-2.24-5.22-3.32
		c-0.97-0.62-1.89-1.31-2.91-1.84c-1.24-0.65-2.58-1.05-3.94-1.37c-3.64-0.86-7.42-1.13-11.14-0.8c-0.39,0.03-0.78,0.08-1.12,0.27
		c-1.25,0.73-0.41,1.74-0.05,2.63c0.57,1.39,0.64,3.13,1.03,4.59c0.74,2.78,1.75,5.48,3.02,8.07c0.46,0.94,1.43,1.96,0.32,2.59
		c-0.98,0.56-2.67,0.62-3.78,0.86c-8.04,1.75-16.25,3.47-23.42,7.52c-1.09,0.61-2.15,1.27-3.26,1.85c-0.82,0.43-1.46,1.04-2.28,1.48
		c-1.75,0.94-3.66,1.87-4.89,3.49c-0.53,0.71-0.93,1.52-1.5,2.21c-0.98,1.18-2.42,1.89-3.91,2.26s-3.03,0.42-4.56,0.47
		c-2.01,0.07-4.02,0.13-6.03,0.2c-1.84,0.06-3.75,0.12-5.52-0.45c-0.87-0.28-1.3-0.76-2.01-1.27c-0.85-0.6-1.76-1.14-2.64-1.7
		c-1.07-0.68-2.15-1.36-3.21-2.06c-0.58-0.39-2.06-1.11-1.38-2.06c0.25-0.35,0.67-0.5,1.08-0.64c3.28-1.15,6.46-2.55,9.51-4.2
		c0.52-0.28,1.04-0.57,1.51-0.93c0.2-0.15,0.39-0.32,0.5-0.53c0.12-0.23,0.14-0.5,0.15-0.75c0.08-1.32,0.27-2.6-0.02-3.88
		c-0.33-1.44-0.28-3.06-0.39-4.53c-0.08-1.14-0.39-2.56-1.51-2.82c-0.5-0.11-1.02,0.07-1.51,0.25c-3.44,1.32-6.76,3.01-10.34,3.86
		c-2.07,0.49-4.27,0.73-6.08,1.84c-0.39,0.24-0.78,0.55-0.91,1s0.04,0.93-0.02,1.4c-0.11,0.85-0.92,1.41-1.66,1.85
		c-1.09,0.65-2.22,1.3-3.04,2.27s-1.28,2.35-0.83,3.54c0.09,0.24,0.22,0.51,0.11,0.74c-0.05,0.12-0.16,0.21-0.28,0.29
		c-0.81,0.52-1.91,0.49-2.62,1.14c-0.51,0.46-0.73,1.19-1.3,1.57c-0.82,0.55-1.93,0.12-2.91,0.2c-1.17,0.1-2.29,1.18-2.4,2.37
		c-0.06,0.6,0.25,0.94,0.43,1.48c0.19,0.56,0.24,1.19,0.36,1.77c-2.06,0.92-4.11,1.83-6.17,2.75c-1.66,0.74-3.31,1.47-4.97,2.21
		c-1.25,0.56-2.46,0.93-3.34,1.99c-0.89,1.07-2.32,1.79-3.65,2.17c-0.89,0.26-1.86,0.35-2.64,0.85c-0.59,0.37-1.03,0.95-1.46,1.5
		c-0.7,0.92-1.4,1.84-2.1,2.76c-0.61,0.8-1.24,1.64-1.43,2.63c-0.24,1.19,0.18,2.46-0.19,3.61c-0.5,1.55-2.2,2.31-3.61,3.12
		c-2.34,1.36-4.3,3.36-5.63,5.72c-0.64,1.13-1.28,2.38-1.56,3.64c-0.36,1.58-0.37,3.2-0.58,4.8c-0.61,4.77-2.89,9.13-5.13,13.38
		c-1.15,2.18-2.3,4.36-3.45,6.54c-0.45,0.85-0.96,1.76-1.83,2.17c-0.2,0.09-0.42,0.16-0.58,0.32c-0.14,0.14-0.21,0.34-0.27,0.54
		c-0.48,1.53-0.79,3.11-0.93,4.71c-0.05,0.56-0.09,1.15-0.39,1.62c-0.49,0.77-1.55,1.02-2.08,1.77c-0.4,0.57-0.45,1.37-0.97,1.83
		c-0.44,0.39-1.12,0.42-1.67,0.2c-0.55-0.22-0.99-0.64-1.38-1.08c-1.94-2.21-3.17-5.27-5.87-6.43c-0.8-0.35-1.67-0.49-2.5-0.77
		c-3.13-1.04-4.81-3.93-6.86-6.29c-2.12-2.43-4.48-4.7-7.29-6.33c-1.23-0.71-2.54-1.3-3.66-2.17c-1.07-0.84-1.94-1.9-2.78-2.96
		c-0.68-0.85-1.25-1.9-2.16-2.54c-0.45-0.32-0.97-0.51-1.48-0.71c-2.8-1.07-5.73-2.36-7.38-4.86c-0.46-0.69-0.8-1.44-1.17-2.18
		c-0.63-1.22-1.37-2.39-2.21-3.47c-0.65-0.84-1.39-1.67-2.39-2.03c-0.64-0.24-2.25-0.65-2.68,0.13c-0.19,0.34-0.17,0.75-0.1,1.14
		c0.13,0.71,0.42,1.42,0.29,2.12c-0.04,0.25-0.14,0.49-0.24,0.73c-0.4,0.93-0.93,1.72-1.46,2.56c-0.47,0.74-0.8,1.53-1.36,2.23
		c-1.11,1.41-2.54,2.53-3.87,3.73c-1.59,1.43-3.18,2.85-4.77,4.28l-9.5,4.11h-3.84c-0.36-0.21-0.72-0.41-1.09-0.62
		c-0.73-0.41-1.45-0.68-0.9-1.66c0.18-0.32,0.43-0.61,0.52-0.97c0.17-0.71-0.37-1.4-0.95-1.83c-0.2-0.15-0.41-0.28-0.65-0.33
		c-0.41-0.08-0.83,0.1-1.18,0.33c-1.62,1.08-2.16,3.32-1.71,5.21s1.73,3.48,3.14,4.83c0.86,0.83,1.79,1.59,2.67,2.4
		c0.74,0.68,1.26,1.56,1.91,2.34c1.59,1.91,3.15,3.85,4.68,5.81c3.02,3.88,5.93,7.85,8.71,11.91c0.76,1.11,1.52,2.24,1.9,3.53
		c0.35,1.18,0.36,2.46,0.86,3.59c0.6,1.37,1.82,2.34,2.9,3.37c3.4,3.25,5.64,7.41,7.63,11.6c2.17,4.57,4.58,9.07,7.82,12.98
		c0.82,0.99,1.7,1.94,2.57,2.9c2.36,2.6,4.69,5.23,5.76,8.53c0.37,1.14,0.57,2.33,1.06,3.42c0.57,1.28,1.5,2.36,2.33,3.5
		c1.58,2.19,2.55,4.71,4.12,6.91c1.57,2.19,3.46,4.15,5.61,5.78c1.15,0.88,2.37,1.66,3.6,2.43c5.28,3.31,10.9,6.51,17.11,7.07
		c0.97,0.09,1.92,0,2.83-0.35c0.16-0.06,2.2-1,2.11-0.6c-0.19,0.85-0.29,1.53,0.21,2.32c0.32,0.5,0.74,0.95,0.96,1.5
		c0.31,0.77,0.21,1.64,0.1,2.46c-0.38,2.82-0.93,5.52-1.62,8.26c-0.59,2.38-0.77,4.84-1,7.27c-0.21,2.19-0.47,4.59-0.15,6.78
		c0.16,1.06,0.5,2.08,0.8,3.11c0.77,2.63,1.19,5.33,1.71,8.01c0.5,2.57,0.71,5.19-0.03,7.74c-0.4,1.39-1.19,2.54-1.75,3.85
		c-0.54,1.29-0.58,2.87-0.47,4.25c0.24,2.91,0.55,6.79,3.15,8.61c0.99,0.7,2.27,1.16,2.78,2.26c0.2,0.43,0.25,0.92,0.3,1.4
		c0.33,3.19,0.59,6.39,1,9.56c0.06,0.43,0.13,0.87,0.38,1.22c0.17,0.24,0.42,0.42,0.67,0.57c1.62,0.95,3.21,0.32,4.91-0.09
		c1.86-0.44,3.69-1.03,5.51-1.62c3.67-1.19,7.37-2.46,11.25-2.76c3.14-0.24,6.28,0.17,9.43,0.33c6.99,0.35,14-0.56,21-0.34
		c2.01,0.06,4.01,0.22,6.02,0.14c5.35-0.2,10.14-2.37,15.34-3.22c1.65-0.27,3.3-0.51,4.95-0.71c3.92-0.49,7.86-0.8,11.8-0.95
		c11.05-0.39,22.22,0.31,33.07,2.47c7.58,1.51,15.05,3.51,22.6,5.17c3.8,0.84,7.03-1.18,8.37-4.82c0.96-2.62-0.45-5.56,0.8-8.03
		c0.47-0.94,0.96-1.89,1.53-2.78c0.35-0.55,0.91-0.94,1.23-1.49c0.91-1.56,0.61-4.04,0.7-5.77c0.13-2.48,0.57-4.93,1.01-7.37
		c0.24-1.34,0.48-2.68,0.73-4.01c0.24-1.32,0.48-2.65,0.83-3.95c0.31-1.17,0.71-2.34,0.8-3.55c0.08-1.04-0.14-2.04-0.07-3.09
		c0.19-2.93,0.91-5.78,1.42-8.66c0.22-1.27,0.51-2.36,0.28-3.63c-0.26-1.5-0.53-3-0.79-4.49c-0.21-1.22-0.43-2.44-0.42-3.67
		c0.01-2.96,1.29-5.79,1.48-8.75c0.1-1.49-0.08-2.99,0.09-4.47c0.16-1.32,0.59-2.58,1.07-3.82c0.49-1.27,1.03-2.51,1.64-3.72
		c0.56-1.12,0.84-2.39,1.22-3.59c0.28-0.87,0.56-1.77,0.54-2.69c-0.04-1.79-1.24-3.49-0.91-5.25c0.16-0.87,0.68-1.63,1.18-2.36
		c0.71-1.04,1.4-2.08,2.08-3.14c1.19-1.85,2.35-3.8,2.65-5.97c0.2-1.43,0-2.88-0.19-4.31c0.64,1.01,1.86,1.46,2.78,2.23
		c1.08,0.9,1.72,2.24,2.79,3.15c0.27,0.23,0.56,0.44,0.77,0.72c0.38,0.54,0.36,1.28,0.15,1.9c-0.22,0.62-0.61,1.17-0.95,1.74
		c-0.82,1.39-1.34,2.96-1.51,4.57c-0.09,0.84-0.07,1.72,0.34,2.46c0.22,0.4,0.55,0.72,0.83,1.09c1.52,2,1.35,4.83,0.54,7.2
		c-0.74,2.16-1.86,4.17-2.68,6.3c-0.87,2.27-1.29,4.77-1.78,7.15c-0.41,1.96-0.78,3.96-0.55,5.95c0.16,1.37,0.61,2.69,0.98,4.03
		c0.78,2.83,1.19,5.74,1.76,8.61c0.55,2.73,1.48,5.34,2.12,8.04c0.3,1.27,0.47,2.57,0.61,3.87c0.14,1.26,0.26,2.53,0.15,3.79
		c-0.16,1.87-0.81,3.67-1.19,5.51c-0.34,1.64-0.58,3.5-0.36,5.18c0.07,0.54,0.32,0.99,0.42,1.52c0.15,0.77,0.13,1.63,0.16,2.41
		c0.13,3.24-0.1,6.55-1.25,9.61c-0.21,0.55-0.45,1.1-0.78,1.59c-0.26,0.37-0.56,0.71-0.84,1.07c-0.42,0.56-0.76,1.19-1.06,1.83
		c-0.33,0.7-0.61,1.43-0.73,2.2c-0.29,1.77,0.36,3.66,1.66,4.88c0.94,0.89,2.21,1.5,3.31,0.51c0.47-0.42,0.81-0.97,1.3-1.37
		c0.77-0.63,1.81-0.82,2.8-0.97c1.05-0.15,2.11-0.28,3.17-0.22c1.08,0.07,1.95,0.5,2.96,0.75c2.27,0.56,4.57,1.16,6.64,2.28
		c1.39,0.76,2.61,1.8,3.96,2.63c2.12,1.31,4.21,2.68,6.43,3.77c2.11,1.04,4.08,2.61,5.78,4.22c0.62,0.59,1.24,1.25,1.46,2.09
		c0.13,0.49,0.1,1.01,0.1,1.52c-0.01,0.6,0.01,1.2,0.06,1.8c0.04,0.58,0.12,1.18,0.37,1.71s0.7,0.99,1.28,1.12
		c0.24,0.05,0.49,0.04,0.74,0.03c0.68-0.05,1.39-0.16,1.95-0.56c0.61-0.44,0.96-1.17,1.11-1.91c0.06-0.27,0.09-0.55,0.12-0.82
		c0.04-0.47,0.05-0.95,0.09-1.43c0.21-2.8,1.31-5.44,2.16-8.11c0.32-1,0.61-2.02,0.59-3.06c-0.01-0.7-0.17-1.4-0.33-2.08
		c-0.22-0.98-0.71-2.19-0.65-3.2c0.04-0.74,0.55-1.46,0.84-2.11c0.89-1.95,1.25-3.87,1.48-5.99c0.35-3.17,0.7-6.34,1.05-9.51
		c0.2-1.79,0.39-3.58,0.79-5.33c0.55-2.42,1.48-4.73,2.48-6.99c0.97-2.2,2.02-4.38,2.77-6.67c1.12-3.43,1.9-6.93,3.13-10.32
		c0.94-2.58,1.22-5.25,1.84-7.88c0.62-2.63,1.89-5.24,2.71-7.83c0.8-2.5,1.84-5.14,2.12-7.76c0.18-1.67,0.15-3.32,0.72-4.9
		c0.59-1.66,1.41-3.23,1.83-4.95c0.63-2.58,0.31-5.3-0.19-7.91s-1.17-5.21-1.24-7.87c-0.03-0.96-0.65-1.63-1.08-2.47
		c-0.52-1-1.1-1.96-1.58-2.98c-0.62-1.33-1.29-2.64-2.03-3.91c-0.27-0.47-0.55-0.94-0.75-1.45c-0.54-1.39-0.89-3.26-0.93-4.75
		c-0.03-1.31-0.22-2.59-0.5-3.86c-0.55-2.45-1.4-4.82-1.83-7.29c-0.35-1.99-0.16-3.93-0.17-5.92c-0.01-2.25,0.26-4.49,0.35-6.73
		c0.05-1.29,0.1-2.61-0.26-3.86c-0.25-0.87-0.69-1.68-1.13-2.47c-2.62-4.69-5.57-9.21-8.8-13.51c-1.85-2.46-2.94-5.43-4.79-7.94
		c-0.72-0.98-1.53-2-1.67-3.21c-0.08-0.74,0.09-1.48,0.19-2.21c0.36-2.7-0.31-5.44-1.36-7.95c-1.2-2.85-2.78-5.6-4.47-8.19
		c-1.55-2.39-2.23-5.25-2.46-8.05c-0.27-3.24,0.01-6.49-0.03-9.74c-0.01-1.04-0.07-2.1-0.45-3.07c-0.54-1.37-1.7-2.42-2.34-3.75
		c-0.66-1.37-0.86-3.15-2.19-3.92s-3.07-0.37-4.31-1.17c-0.66-0.42-0.99-1.21-1.13-1.98c-0.14-0.77-0.12-1.56-0.29-2.33
		c-0.4-1.82-1.78-3.26-3.13-4.54c-1.61-1.53-3.25-3.28-5.06-4.54c-1.75-1.21-3.69-2.14-5.67-2.89c-3.21-1.22-6.58-1.99-9.87-2.99
		c-0.66-0.2-1.35-0.43-1.81-0.94C500.27,167.84,500.13,167.33,500.1,166.78z"/>
	<path class="st1" d="M548.85,412.21c-0.69-2.31-2.65-3.86-4.59-5.12c-2.79-1.81-5.71-3.47-8.69-4.99c-2.4-2.26-5.27-4.04-8.3-5.25
		c-2.93-1.17-5.91-2.21-8.92-3.15c-1.9-0.59-3.83-1.08-5.79-1.26c-1.85-0.17-3.55-0.15-5.2,0.8c-1,0.57-1.88,1.37-2.54,2.32
		c-0.63,0.9-0.91,2.11-1.14,3.18c-0.09,0.09-0.16,0.2-0.2,0.34c-0.31,1.28-0.18,2.54,0.26,3.75c0.01,0.04,0.01,0.08,0.04,0.12
		c0.03,0.08,0.05,0.17,0.09,0.26c0.18,0.42,0.44,0.33,0.74,0.52c0.27,0.18,0.36,0.38,0.59,0.66c0.36,0.44,0.88,0.7,1.45,0.77
		c0.95,0.12,1.82-0.48,2.58-1.06c3.17-2.42,6.63-1.32,10.07-0.12c3.64,1.27,7.23,2.72,10.73,4.33c1.05,0.48,2.11,0.98,3.16,1.49
		c0.7,0.47,1.38,0.96,2.05,1.46c0.97,0.75,1.92,1.52,2.89,2.28c0.92,0.77,1.83,1.57,2.72,2.38c1.07,1.38,1.81,2.95,1.93,4.82
		c0.06,1.02-0.07,2.04,0.73,2.81c0.67,0.64,1.65,0.71,2.48,0.35c1.97-0.85,2.19-3.72,2.18-5.7
		C549.1,416.39,549.39,414.01,548.85,412.21z"/>
	<path class="st1" d="M269.21,213.07c-0.2-1.17-0.88-2.13-1.71-2.96c-0.88-0.88-1.74-1.37-2.85-1.91c-0.2-0.1-0.4-0.12-0.61-0.11
		c-0.02-0.02-0.03-0.03-0.05-0.04c-0.49-0.47-1.49-0.08-1.28,0.74c0.24,0.93,0.46,1.86,0.46,2.83c0,0.18,0.04,0.35,0.1,0.5
		c-0.46,1.46-1.03,2.99-1.8,4.32c-0.82,1.42-2.02,2.59-3.15,3.76c-1.11,1.17-2.22,2.37-3.51,3.33c-1.35,1.01-2.85,1.8-4.32,2.61
		c-0.33,0.18-0.52,0.44-0.64,0.71c-1.93,0.43-3.81,1-5.74,1.5c-0.72,0.19-1.74,0.63-2.4,0.11c-0.35-0.27-0.56-0.68-0.78-1.06
		c-0.59-1.01-1.35-1.92-2.23-2.69c-0.56-0.5-1.19-0.94-1.91-1.17s-1.53-0.21-2.18,0.17c-1.42,0.84-2.3,3.31-2.33,4.88
		c-0.02,1.02,0.46,2.3,1.31,3.02c0.05,0.19,0.12,0.38,0.26,0.54c1.04,1.19,2.13,2.26,3.37,3.2c0.14,0.63,0.62,1.19,1.36,1.19
		c0.14,0,0.27-0.01,0.41-0.02c0.45,0.24,0.93,0.41,1.46,0.37c0.19-0.02,0.37-0.07,0.54-0.13c0.4,0.27,0.84,0.48,1.27,0.58
		c1.96,0.46,4.11-0.74,5.81-1.56c1.96-0.94,3.82-2.05,5.76-3.02c1.93-0.97,4.13-1.54,5.91-2.77c0.41-0.28,0.66-0.72,0.74-1.18
		c3.34-1.78,5.58-5.38,6.88-8.89c0.09-0.25,0.07-0.49-0.02-0.7c0.38-0.81,0.77-1.61,1.12-2.44
		C268.97,215.62,269.43,214.35,269.21,213.07z"/>
	<path class="st2" d="M420.3,185.63c0.42-0.83,0.79-1.67,1.11-2.54c-0.33-0.23-0.77-0.17-1.18-0.16c-1.1,0.02-2.21-0.46-2.94-1.28
		c-0.31-0.34-0.56-0.75-0.61-1.2c-0.07-0.62,0.24-1.24,0.17-1.87c-1.99,0.24-3.97,0.33-5.96,0.51c-2,0.18-4,0.46-6.01,0.6
		c-0.95,0.07-2.03-0.05-2.91,0.36c-0.81,0.37-1.03,1.51-0.24,2.09c0.21,0.15,0.47,0.29,0.53,0.54c0.06,0.28-0.16,0.53-0.38,0.72
		c-0.93,0.82-1.98,1.5-3.11,2.03c-0.12,0.06-0.25,0.12-0.3,0.24c-0.05,0.12-0.01,0.26,0.03,0.39c0.34,0.93,0.89,1.76,1.44,2.59
		c0.7,1.04,1.41,2.08,2.14,3.1c1.01,1.42,2.06,2.84,3.28,4.09c1.09,1.11,2.34,2.27,4.03,2.03c0.65-0.09,1.26-0.36,1.85-0.65
		c0.57-0.27,1.13-0.56,1.63-0.94c1.31-1,2.05-2.56,3.07-3.86c0.52-0.66,1.13-1.26,1.61-1.96c0.51-0.76,0.85-1.61,1.3-2.4
		C419.3,187.21,419.87,186.47,420.3,185.63z"/>
	<path class="st2" d="M396.6,209.65c0-1.05-0.79-2.09-1.36-2.99c0.03-0.08,0.07-0.15,0.07-0.25c0.03-1.03-0.16-2.04-0.61-2.96
		c-0.06-0.16-0.14-0.32-0.23-0.46c-0.06-0.09-0.14-0.16-0.23-0.2c-0.35-1.46-0.78-2.9-1.13-4.35c-0.05-0.2-0.09-0.4-0.14-0.59
		c0.02-0.1,0.02-0.21-0.01-0.34c-0.31-1.48-0.44-2.91-0.45-4.37c0-0.27,0.01-0.55,0.01-0.83c0.24-0.03,0.48-0.18,0.6-0.49
		c0.41-1.05,0.5-2.28,0.47-3.39c-0.02-0.57-0.08-1.14-0.17-1.7c-0.01-0.09-0.04-0.18-0.06-0.26c-0.05-0.48-0.09-0.96-0.16-1.45
		c-0.07-0.47-0.68-0.55-1-0.29c-0.05-0.09-0.1-0.19-0.15-0.29c-0.33-0.59-1.31-0.21-1.14,0.43c0,0.03-0.01,0.05-0.01,0.08
		c0.09,0.79,0.54,1.56,0.77,2.33c0.05,0.16,0.15,0.26,0.27,0.33c-0.59,2.58-1.66,5.5-0.91,8.08c0.02,0.07,0.06,0.13,0.09,0.18
		c0.22,1.45,0.5,2.9,0.84,4.33c-0.01,0.7,0.04,1.4,0.19,2.09c0.16,0.71,0.38,1.73,0.88,2.29c0.17,0.19,0.4,0.3,0.64,0.34
		c0.05,0.24,0.09,0.49,0.11,0.74c-0.62,0.23-1.03,0.92-1.19,1.67c-0.23,1.13-0.99,3.11,0.34,3.79c0.62,0.31,1.62,0.36,2.36,0.03
		C396.03,211.05,396.6,210.48,396.6,209.65z"/>
	<path class="st2" d="M435.2,181.97c-0.4,0.26-0.8,0.52-1.2,0.78c-0.53,0.29-1.06,0.58-1.55,0.96c-0.08,0.06-0.14,0.14-0.19,0.22
		c-0.81,0.53-1.63,1.03-2.49,1.46c-0.73,0.37-1.29,0.82-1.61,1.6c-0.39,0.94-0.3,1.96-0.5,2.94c-0.02,0.09-0.02,0.17-0.01,0.25
		c-0.58,1.53-0.55,3.27-0.6,4.87c-0.06,2.05-0.33,4.07-0.64,6.1c0,0.01,0,0.01,0,0.02c-0.31,1.13-0.71,2.24-1.28,3.33
		c-0.01,0.02-0.01,0.04-0.02,0.07c-0.9,1.24-2.25,2.89-1.99,4.45c0.01,0.04,0.04,0.05,0.05,0.08c-0.07,0.76,0.2,1.57,0.42,2.29
		c0.37,1.21,0.81,2.43,1.38,3.57c0.03,0.31,0.08,0.61,0.08,0.92c-0.05,0.39-0.07,0.78-0.04,1.18c-0.12,1.02-0.47,1.95-1.19,2.83
		c-0.62,0.76-1.6,1.61-1.61,2.68c-0.01,1.05,1.62,1.45,2.43,1.14c0.38-0.14,0.59-0.45,0.73-0.81c0.13-0.09,0.23-0.21,0.28-0.41
		c0.2-0.86,0.15-1.66-0.12-2.5c-0.02-0.06-0.06-0.08-0.09-0.13c0.33-0.59,0.58-1.24,0.74-1.92c0.14-0.08,0.25-0.23,0.3-0.45
		c0.48-2.13-0.16-4.55-0.99-6.52c-0.06-0.15-0.16-0.24-0.27-0.32c-0.24-1.58-0.01-3.2,0.67-4.67l0,0c0.02-0.05,0.04-0.1,0.06-0.15
		c0.02-0.04,0.01-0.08,0.02-0.12c0.22-0.02,0.43-0.13,0.57-0.39c1.3-2.53,2.21-5.48,2.04-8.35c0-0.08-0.03-0.14-0.05-0.2
		c0.01-0.19,0.03-0.38,0.04-0.57c0.01-0.04,0.04-0.07,0.05-0.12c0.01-0.07,0.01-0.13,0.02-0.2l0,0c0-0.01,0-0.03,0-0.04
		c0.15-1.08,0.26-2.16,0.39-3.24c0.12-1.05,0.17-2.18,0.6-3.17c0.7-1.13,1.52-2.17,2.46-3.1c0.72-0.65,1.47-1.26,2.15-1.85
		c0.13-0.11,0.18-0.25,0.2-0.39c0.47-0.34,0.95-0.68,1.42-1.02C436.53,182.62,435.91,181.52,435.2,181.97z"/>
	<g>
		<g>
			<path d="M318.73,242.93c-0.06,1.65,0.11,3.29,0.31,4.93c0.17,1.33,0.15,2.95,0.89,4.13c0.29,0.46,0.7,0.86,1.2,1.06
				c0.6,0.24,1.22,0.12,1.83-0.05c1.56-0.44,3.07-0.39,4.5,0.43c0.28,0.16,0.53-0.27,0.25-0.43c-1.09-0.63-2.35-0.91-3.61-0.77
				c-0.63,0.07-1.2,0.31-1.82,0.42c-0.81,0.14-1.5-0.23-1.93-0.91c-0.37-0.59-0.49-1.29-0.58-1.97c-0.1-0.77-0.2-1.54-0.29-2.3
				c-0.18-1.51-0.32-3.02-0.27-4.53C319.24,242.61,318.74,242.61,318.73,242.93L318.73,242.93z"/>
		</g>
	</g>
	<g>
		<g>
			<path d="M475.72,252.65c-0.46,2.14-0.34,4.35,0.38,6.42c0.76,2.17,2.21,3.85,3.37,5.8c1.14,1.91,2.05,3.98,3.35,5.79
				c1.12,1.55,2.46,2.9,3.87,4.18c2.87,2.59,6.08,5.02,7.71,8.63c0.95,2.1,1.4,4.39,2.33,6.5c0.78,1.77,1.97,3.31,3.32,4.68
				c2.8,2.85,6.64,5.17,8.24,8.98c0.09-0.32,0.17-0.65,0.26-0.97c-1.11,1.25-2.01,2.64-2.65,4.18c-0.61,1.47-1.2,3.31-1,4.92
				c0.1,0.77,0.47,1.38,1.05,1.88c0.59,0.5,1.16,0.83,1.33,1.65c0.33,1.58-0.41,3.4-0.8,4.9c-0.49,1.92-1.01,3.83-1.64,5.71
				c-0.61,1.85-1.37,3.64-1.98,5.49c-1.12,3.39-1.37,6.91-0.93,10.44c0.87,6.99,3.89,13.49,4.89,20.46
				c0.55,3.82,0.34,7.77-0.2,11.59c-0.28,1.97-0.53,3.91-0.59,5.9c-0.05,1.93-0.01,3.86-0.03,5.78c-0.03,2.05-0.05,4.13-0.56,6.13
				c-0.52,2.02-1.78,3.62-2.66,5.48c-0.82,1.75-1.24,3.71-0.45,5.55c0.72,1.67,2.16,3.03,3.74,3.89c1.13,0.62,2.14-1.11,1.01-1.73
				c-1.29-0.71-2.62-1.87-3.05-3.33c-0.48-1.63,0.39-3.31,1.18-4.68c0.89-1.54,1.76-3.04,2.19-4.78c0.43-1.73,0.53-3.52,0.58-5.29
				c0.09-3.74-0.15-7.51,0.4-11.22c0.56-3.77,0.94-7.56,0.65-11.38c-0.5-6.82-3.32-13.16-4.67-19.82
				c-0.67-3.28-0.95-6.71-0.25-10.01c0.38-1.78,1.03-3.49,1.67-5.19c0.68-1.79,1.29-3.61,1.82-5.45c0.55-1.94,1.13-3.92,1.52-5.9
				c0.32-1.61,0.39-3.42-0.75-4.74c-0.48-0.56-1.45-0.89-1.51-1.7c-0.07-0.85,0.22-1.81,0.46-2.62c0.52-1.74,1.43-3.34,2.64-4.7
				c0.22-0.24,0.4-0.64,0.26-0.97c-1.45-3.43-4.26-5.75-6.97-8.18c-1.33-1.19-2.66-2.43-3.66-3.91c-1.23-1.81-1.8-3.9-2.47-5.96
				c-0.66-2.01-1.51-3.88-2.8-5.56c-1.16-1.51-2.53-2.82-3.95-4.08c-1.45-1.29-2.94-2.53-4.27-3.94c-1.43-1.5-2.45-3.19-3.44-5.01
				c-0.58-1.07-1.16-2.15-1.81-3.19c-0.68-1.08-1.5-2.06-2.12-3.18c-1.16-2.11-1.6-4.57-1.09-6.94
				C477.92,251.92,475.99,251.39,475.72,252.65L475.72,252.65z"/>
		</g>
	</g>
	<g>
		<g>
			<path d="M367.78,178.35c-2.89,1.28-5.82,2.52-8.68,3.86c-2.52,1.18-4.86,2.69-7.3,4.01c-1.23,0.66-2.49,1.28-3.8,1.77
				c-0.6,0.22-1.27,0.37-1.8,0.73c-0.6,0.41-0.87,0.99-1.16,1.63c-0.88,1.94-3.13,2.83-3.87,4.9c-0.46,1.27,0.07,2.4,0.13,3.67
				c0.05,1.08-0.9,1.55-1.76,1.95c-1.09,0.5-2.17,0.94-3.14,1.66c-1.04,0.77-1.95,1.68-2.76,2.68c-0.81,0.99-1.54,2.03-2.24,3.1
				c-0.37,0.55-0.76,1.09-0.96,1.73c-0.25,0.77,0.02,1.42,0.08,2.19c0.05,0.68-0.11,1.38-0.22,2.04c-0.12,0.75-0.27,1.5-0.43,2.25
				c-0.31,1.42-0.68,2.82-1.13,4.2c-1.02,3.17-2.44,6.13-4.03,9.04c-1.72,3.16-3.46,6.31-5.19,9.46c0.46-0.12,0.91-0.24,1.37-0.36
				c-0.08-0.05-0.18-0.15-0.22-0.24c-0.34-0.81-1.3-0.98-1.83-0.24c-0.85,1.19-0.74,2.52-1.04,3.88c-0.14,0.66-0.28,1.26-0.28,1.93
				c0,0.7-0.01,1.26-0.43,1.85c-0.34,0.47-0.74,0.69-1.27,0.89c-0.82,0.3-1.02,0.92-1.28,1.68c-0.09,0.26-0.25,1.21-0.6,1.23
				c-0.28,0.02-0.71-0.55-0.89-0.76c-0.68-0.79-1.22-1.7-1.88-2.51c-1.02-1.23-2.02-2.48-3.05-3.7c-0.39-0.46-0.83-0.9-1.38-1.16
				c-0.68-0.32-1.38-0.35-2.1-0.48c-1.24-0.21-2.28-0.88-3.2-1.71c-2.01-1.83-3.67-4.06-5.56-6.02c-1.95-2.01-4.06-3.9-6.46-5.36
				c-1.1-0.67-2.27-1.25-3.33-2.01c-1.09-0.78-1.77-1.81-2.53-2.89c-0.81-1.15-1.76-2.04-3.02-2.69c-1.19-0.61-2.45-1.06-3.61-1.72
				c-2.63-1.51-4.66-3.69-6.15-6.31c-0.73-1.28-1.45-2.6-2.45-3.69c-0.47-0.52-1.04-0.98-1.7-1.23c-0.75-0.28-1.65-0.26-2.45-0.27
				c-1.29-0.03-1.29,1.97,0,2c0.57,0.01,1.25-0.04,1.79,0.16c0.46,0.17,0.82,0.6,1.13,0.97c0.73,0.87,1.28,1.9,1.84,2.88
				c1.19,2.1,2.65,3.99,4.53,5.52c0.93,0.76,1.92,1.44,2.98,1.99c1.06,0.56,2.21,0.96,3.26,1.53c1.04,0.56,1.75,1.33,2.41,2.3
				c0.67,0.98,1.34,1.92,2.27,2.67c1.91,1.53,4.19,2.49,6.13,3.99c1.92,1.48,3.63,3.22,5.26,5.01c1.61,1.77,3.09,3.76,4.98,5.24
				c0.9,0.7,1.91,1.28,3.03,1.53c0.52,0.12,1.07,0.13,1.59,0.25c0.59,0.14,0.93,0.47,1.31,0.92c1.03,1.22,2.04,2.46,3.05,3.7
				c0.62,0.75,1.2,1.71,1.88,2.51c0.7,0.82,1.69,1.57,2.83,1.28c0.7-0.18,1.22-0.67,1.52-1.31c0.27-0.6,0.34-1.41,0.73-1.93
				c-0.12,0.12-0.24,0.24-0.36,0.36c0.34-0.24,0.81-0.31,1.18-0.55c0.39-0.25,0.72-0.57,1.01-0.94c0.63-0.8,0.95-1.68,0.97-2.7
				c0.01-0.43-0.04-0.87,0.04-1.3c0.09-0.5,0.23-0.97,0.3-1.48c0.12-0.92,0.14-1.77,0.7-2.54c-0.61-0.08-1.22-0.16-1.83-0.24
				c0.26,0.61,0.59,1.05,1.14,1.43c0.44,0.3,1.12,0.09,1.37-0.36c1.52-2.77,3.04-5.54,4.56-8.31c1.45-2.64,2.85-5.28,3.94-8.08
				c1.05-2.7,1.84-5.5,2.36-8.36c0.26-1.44,0.52-2.83,0.25-4.28c-0.12-0.63,0.21-1.04,0.55-1.55c0.36-0.55,0.73-1.1,1.11-1.64
				c1.4-1.99,3.03-3.85,5.29-4.87c1.02-0.46,2.1-0.83,2.93-1.61c0.97-0.91,1.19-2.12,0.99-3.39c-0.18-1.11-0.47-2.01,0.26-2.98
				c0.61-0.81,1.45-1.41,2.14-2.15c0.35-0.37,0.68-0.77,0.94-1.21c0.27-0.46,0.38-1.18,0.85-1.47c0.5-0.32,1.21-0.44,1.76-0.66
				c0.69-0.27,1.36-0.57,2.03-0.89c2.8-1.35,5.39-3.08,8.17-4.47c3.08-1.54,6.31-2.84,9.46-4.24c0.49-0.22,0.61-0.94,0.36-1.37
				C368.85,178.2,368.28,178.13,367.78,178.35L367.78,178.35z"/>
		</g>
	</g>
	<g>
		<g>
			<path d="M233.59,223.01c-1.52,1.58-2.69,3.76-2.48,6.02c0.23,2.49,1.92,4.16,3.81,5.59c0.96,0.73,1.94,1.43,2.83,2.26
				s1.71,1.74,2.47,2.69c1.6,1.97,3.01,4.11,4.46,6.2c3.24,4.66,6.51,9.31,9.73,13.98c0.3,0.43,0.62,0.88,0.79,1.38
				c0.2,0.61,0.01,1.22-0.01,1.84c-0.05,1.12,0.45,2.1,1.18,2.91c0.7,0.77,1.58,1.35,2.35,2.04c0.87,0.78,1.63,1.66,2.29,2.61
				c1.34,1.91,2.36,4.01,3.45,6.06c1.21,2.28,2.5,4.53,3.86,6.73c2.74,4.44,5.78,8.7,9.07,12.74c1.52,1.87,3.13,3.72,4.12,5.94
				c1,2.23,0.93,4.75,2.42,6.78c0.71,0.97,1.57,1.8,2.33,2.72c0.76,0.91,1.37,1.96,1.95,2.99c1.18,2.11,2.31,4.19,3.96,5.97
				c3.3,3.57,7.75,5.86,11.99,8.1c4.54,2.4,9.35,5.2,14.69,4.65c1.29-0.13,2.54-0.43,3.74-0.92c0.5-0.21,0.85-0.66,0.7-1.23
				c-0.13-0.47-0.73-0.91-1.23-0.7c-2.31,0.96-4.8,1.14-7.25,0.64c-2.49-0.51-4.72-1.62-6.96-2.77c-4.22-2.17-8.72-4.29-12.36-7.37
				c-1.74-1.47-3.16-3.16-4.3-5.13c-1.2-2.08-2.24-4.22-3.85-6.04c-0.74-0.84-1.57-1.63-2.14-2.61c-0.61-1.05-0.8-2.27-1.07-3.44
				c-0.54-2.32-1.68-4.34-3.11-6.23c-1.47-1.94-3.06-3.77-4.53-5.71c-1.54-2.03-3.02-4.11-4.42-6.23
				c-2.74-4.14-5.06-8.47-7.43-12.82c-1.08-1.97-2.28-3.92-3.86-5.53c-0.73-0.75-1.58-1.36-2.37-2.05c-0.69-0.61-1.3-1.25-1.23-2.23
				c0.04-0.61,0.15-1.16,0.05-1.77c-0.1-0.62-0.38-1.21-0.7-1.75c-0.68-1.12-1.49-2.17-2.24-3.25c-1.59-2.28-3.18-4.56-4.76-6.85
				c-1.56-2.24-3.11-4.48-4.67-6.72c-1.36-1.96-2.74-3.92-4.35-5.69c-0.82-0.9-1.7-1.74-2.65-2.5c-0.89-0.7-1.84-1.33-2.69-2.07
				c-0.8-0.69-1.58-1.49-1.9-2.52c-0.29-0.94-0.2-1.9,0.12-2.81c0.33-0.95,0.93-1.8,1.62-2.52
				C235.9,223.49,234.48,222.08,233.59,223.01L233.59,223.01z"/>
		</g>
	</g>
	<g>
		<g>
			<path d="M331.58,254.86c-1.9,10.7-3.81,21.42-4.72,32.26c-0.46,5.4-0.57,10.8-0.57,16.22c0,2.73-0.01,5.45-0.01,8.18
				c0,0.66,0,1.32,0,1.97c0,0.61,0.12,1.37-0.15,1.93c-0.39,0.84-1.29,1.43-1.77,2.24c-1.99,3.39-0.37,7.44-1.67,10.97
				c-0.34,0.92-1.05,1.57-1.33,2.51c-0.32,1.08-0.22,2.2,0.25,3.22c0.22,0.48,0.58,0.84,0.84,1.29c0.29,0.5,0.15,1.1,0.06,1.64
				c-0.23,1.36-0.46,2.72-0.68,4.08c-0.46,2.72-0.91,5.44-1.37,8.16c-0.43,2.57-1.02,5.15-1.18,7.75c-0.16,2.56,0.84,4.95,1.38,7.41
				c0.58,2.58,0.92,5.22,1.35,7.82c0.22,1.34,0.48,2.69,0.43,4.05c-0.04,1.21-0.42,2.39-0.92,3.49c-0.49,1.07-1.08,2.05-1.34,3.21
				c-0.25,1.12-0.31,2.27-0.42,3.4c-0.1,1.07-0.26,2.11-0.15,3.2c0.1,1.07,0.34,2.1,0.75,3.09c0.8,1.94,2.13,3.63,3.88,4.8
				c0.37,0.25,0.78,0.44,1.15,0.7c0.32,0.22,0.36,0.28,0.31,0.69c-0.07,0.54,0.51,0.99,1,1c0.6,0.01,0.93-0.47,1-1
				c0.28-2.14-2.26-2.77-3.5-3.98c-1.44-1.4-2.37-3.3-2.58-5.3c-0.11-1.08,0.05-2.12,0.15-3.2c0.1-1.07,0.15-2.16,0.43-3.21
				c0.3-1.13,0.97-2.14,1.41-3.23c0.48-1.17,0.79-2.4,0.83-3.67c0.05-1.35-0.19-2.71-0.41-4.04c-0.21-1.31-0.43-2.62-0.64-3.94
				c-0.41-2.53-0.93-4.99-1.6-7.47c-0.33-1.22-0.58-2.43-0.52-3.7c0.06-1.28,0.28-2.54,0.5-3.79c0.47-2.69,0.92-5.38,1.37-8.07
				c0.45-2.67,0.92-5.33,1.34-8c0.19-1.19,0.2-2.26-0.55-3.26c-0.65-0.87-1.04-1.88-0.54-2.94c0.19-0.4,0.54-0.73,0.76-1.13
				c0.23-0.42,0.42-0.87,0.56-1.33c0.27-0.86,0.38-1.78,0.44-2.68c0.12-1.86-0.08-3.78,0.27-5.62c0.16-0.83,0.42-1.64,0.93-2.32
				c0.63-0.85,1.49-1.46,1.79-2.53c0.35-1.23,0.15-2.69,0.15-3.96c0-1.36,0-2.73,0.01-4.09c0.01-5.41-0.04-10.82,0.27-16.23
				c0.62-10.77,2.38-21.44,4.25-32.05c0.24-1.34,0.48-2.69,0.72-4.03C333.73,254.14,331.8,253.6,331.58,254.86L331.58,254.86z"/>
		</g>
	</g>
	<g>
		<g>
			<path d="M404.68,170.31c0.2-5.89-1.17-11.74-2.56-17.43c-0.13-0.55-0.71-0.81-1.23-0.7c-2.47,0.54-4.78,1.58-7.09,2.59
				c-1.12,0.49-2.25,0.98-3.41,1.38c-1.19,0.42-2.42,0.72-3.62,1.11c-1.17,0.38-2.33,0.82-3.42,1.39c-0.97,0.51-2.45,1.22-2.15,2.55
				c0.08,0.34,0.31,0.48,0.1,0.78c-0.28,0.4-0.8,0.65-1.21,0.87c-1.03,0.54-2.04,1.12-2.89,1.92c-1.87,1.76-2.61,4.67-0.87,6.78
				c0.32-0.56,0.65-1.11,0.97-1.67c-1.63-0.24-3.3,0.22-4.42,1.48c-0.49,0.56-0.7,1.14-1.53,1.12c-0.89-0.03-1.73-0.13-2.6,0.12
				c-1.5,0.43-2.38,1.59-2.46,3.13c-0.07,1.25,0.33,2.64,1.04,3.68c0.72,1.06,2.45,0.06,1.73-1.01c-0.5-0.75-0.81-1.69-0.77-2.6
				c0.05-1.09,0.94-1.39,1.93-1.4c0.68,0,1.34,0.14,2.02,0.01c0.67-0.14,1.2-0.55,1.61-1.07c0.75-0.93,1.62-1.73,2.92-1.54
				c1,0.15,1.64-0.86,0.97-1.67c-1.23-1.49,0.22-3.53,1.45-4.43c1.43-1.05,4.18-1.74,4.22-3.92c0-0.22-0.03-0.45-0.1-0.65
				c-0.01-0.03-0.13-0.38-0.16-0.39c-0.01,0.07-0.02,0.13-0.04,0.2c-0.09,0.24-0.05,0.27,0.14,0.08c0.21-0.06,0.44-0.28,0.64-0.39
				c0.28-0.16,0.56-0.31,0.85-0.45c0.99-0.48,2.03-0.84,3.07-1.16c2.18-0.67,4.29-1.36,6.38-2.27c2.36-1.02,4.69-2.11,7.22-2.65
				c-0.41-0.23-0.82-0.47-1.23-0.7c1.36,5.52,2.69,11.17,2.49,16.89C402.64,171.59,404.64,171.59,404.68,170.31L404.68,170.31z"/>
		</g>
	</g>
	<g>
		<g>
			<path d="M388.31,172.39c5.61-0.69,10.62-3.31,15.14-6.6c0.52-0.38,0.02-1.24-0.5-0.86c-4.36,3.17-9.21,5.79-14.63,6.46
				C387.68,171.47,387.67,172.47,388.31,172.39L388.31,172.39z"/>
		</g>
	</g>
	<g>
		<g>
			<path d="M542.39,424.63c1.36,0.96,3.3,1.03,4.69,0.07c0.67-0.46,1.07-1.1,1.29-1.87c0.43-1.48,0.64-3.07,0.96-4.58
				c0.6-2.88,1.21-5.77,1.81-8.65c0.24-1.13,0.57-2.32,0.47-3.49c-0.11-1.32-0.91-2.36-0.66-3.73c0.23-1.27,0.87-2.43,1.35-3.61
				c0.54-1.32,0.86-2.68,1.05-4.1c0.36-2.8,0.29-5.63,0.63-8.43c0.37-3.07,0.81-6.24,1.62-9.23c0.73-2.72,2.26-5.09,3.35-7.67
				c2.28-5.39,3.59-11.25,5.23-16.86c1.64-5.61,3.77-11.1,5.13-16.78c0.72-3.02,1.45-6.05,2.17-9.07c0.63-2.63,1.4-5.3,1.51-8.02
				c0.05-1.25-0.07-2.54-0.44-3.74c-0.44-1.42-1.06-2.56-1.1-4.09c-0.07-2.54-0.54-4.98-1.55-7.32c-0.93-2.16-2.46-3.84-3.6-5.86
				c-1.4-2.48-1.05-5.53-1.31-8.27c-0.27-2.8-1.15-5.45-1.76-8.18c-0.63-2.82-0.62-5.61-0.46-8.48c0.15-2.68,0.35-5.37-0.09-8.03
				c-0.43-2.66-1.63-5.03-3.16-7.22c-1.61-2.3-3.37-4.49-4.95-6.82c-1.59-2.34-3.09-4.74-4.55-7.15c-0.69-1.14-1.37-2.28-2.04-3.43
				c-0.73-1.24-1.95-2.72-1.94-4.22c0.01-1.23,0.48-2.44,0.5-3.69c0.02-1.16-0.16-2.33-0.47-3.44c-1.35-4.83-4.91-8.62-6.78-13.22
				c-1.06-2.59-1.67-5.38-1.76-8.17c-0.09-2.54,0.74-5.03,0.53-7.55c-0.09-1.12-0.46-2.14-1-3.13c-0.66-1.21-2.03-2.43-2.28-3.8
				c-0.17-0.93-0.03-1.7-0.59-2.54c-0.49-0.75-1.28-1.24-2.1-1.55c-0.83-0.31-1.69-0.4-2.57-0.51c-0.64-0.08-1.32-0.11-1.75-0.65
				c-0.45-0.55-0.32-1.31-0.34-1.98c-0.08-2.33-1.09-4.28-2.6-6.02c-3.13-3.63-7.28-6.12-11.68-7.91c-2.26-0.92-4.59-1.67-6.93-2.36
				c-1.12-0.33-2.25-0.62-3.36-0.96c-0.48-0.15-0.99-0.3-1.4-0.59c-0.76-0.55-0.48-1.17-0.31-1.94c0.49-2.13-0.69-3.76-2.7-4.45
				c-2.57-0.88-5.44-1.01-8.09-1.59c-1.18-0.26-2.2-0.62-2.83-1.71c-0.65-1.14-0.89-2.49-1.39-3.69c-0.49-1.17-2.42-0.66-1.93,0.53
				c0.8,1.94,1.11,4.41,2.93,5.72c1.93,1.4,4.82,1.49,7.09,1.91c1.21,0.22,2.53,0.34,3.69,0.77c0.56,0.21,1.22,0.59,1.37,1.22
				c0.14,0.58-0.24,1.28-0.32,1.86c-0.29,2.07,1.24,3.21,3.03,3.81c4.55,1.53,9.2,2.54,13.51,4.74c2.18,1.11,4.15,2.47,5.96,4.11
				c1.73,1.57,3.61,3.46,3.91,5.89c0.25,2.03-0.05,4.13,2.29,4.96c1.49,0.53,4.61,0.03,5.08,2.06c0.12,0.5-0.01,1.04,0.11,1.54
				c0.12,0.53,0.4,0.99,0.69,1.44c0.78,1.22,1.78,2.35,2.27,3.73c0.81,2.29-0.21,4.87-0.3,7.21c-0.18,5.19,1.47,10.15,4.07,14.57
				c2.38,4.04,5.69,8.35,4.77,13.32c-0.2,1.08-0.46,2.15-0.19,3.25c0.32,1.31,1.15,2.48,1.83,3.63c1.39,2.36,2.8,4.72,4.26,7.04
				c1.5,2.39,3.07,4.75,4.74,7.02c1.51,2.06,3.18,4.03,4.38,6.31c2.73,5.2,0.99,11.05,1.32,16.61c0.16,2.69,0.9,5.27,1.55,7.87
				c0.71,2.8,0.79,5.54,1.04,8.39c0.2,2.25,0.78,4.13,2.08,5.98c1.48,2.1,2.8,4.12,3.49,6.62c0.69,2.52,0.27,5.2,1.25,7.62
				c1.14,2.79,0.98,5.39,0.34,8.3c-0.62,2.81-1.33,5.6-2,8.39s-1.25,5.62-2.08,8.36c-0.82,2.68-1.86,5.29-2.67,7.97
				c-0.88,2.9-1.71,5.82-2.56,8.73c-1.62,5.53-3.07,10.99-5.65,16.16c-2.45,4.91-3.23,10.67-3.67,16.1
				c-0.23,2.86-0.07,5.8-0.86,8.59c-0.67,2.37-2.34,4.58-1.99,7.15c0.15,1.11,0.77,2.01,0.67,3.17c-0.12,1.45-0.58,2.94-0.88,4.36
				c-0.6,2.88-1.21,5.77-1.81,8.65c-0.2,0.94-0.18,2.56-1.08,3.12c-0.77,0.48-1.74,0.26-2.44-0.23
				C542.34,422.16,541.34,423.89,542.39,424.63L542.39,424.63z"/>
		</g>
	</g>
	<g>
		<g>
			<path d="M430.63,169.12c3.96-2,8.05-3.74,12.25-5.16c4.28-1.45,8.65-2.42,13.1-3.22c1.1-0.2,2.21-0.39,3.31-0.59
				c1.09-0.2,2.17-0.35,3.19-0.8c0.87-0.38,1.71-0.82,2.58-1.19c0.92-0.39,1.8-0.83,2.6-1.44c1.52-1.16,2.73-3,2.63-4.98
				c-0.1-1.95-1.38-3.45-2.91-4.53c-1.84-1.3-4.09-2.11-6.28-2.58c-1.12-0.24-2.26-0.39-3.4-0.47c-0.58-0.04-1.16-0.06-1.75-0.07
				c-0.29,0-0.58,0-0.87,0.01c-0.1,0-0.22,0.02-0.33,0.01c0.16,0.02-0.07-0.03-0.16-0.08c0.12,0.12,0.24,0.24,0.36,0.36
				c0.09,0.19,0.01-0.08,0.01-0.16c-0.02-0.16-0.05-0.32-0.07-0.48c-0.06-0.41-0.12-0.83-0.18-1.24c-0.08-0.56-0.16-1.11-0.24-1.67
				c-0.23,0.41-0.47,0.82-0.7,1.23c-0.19,0.04,0.01,0.02,0.07,0.03c0.16,0.02,0.35,0.01,0.52,0.01c0.32,0.01,0.64,0.02,0.96,0.03
				c0.8,0.03,1.6,0.08,2.4,0.14c1.53,0.12,3.05,0.33,4.58,0.4c1.47,0.07,2.94,0.09,4.4,0.3c1.14,0.16,2.33,0.38,3.32,1.01
				c0.48,0.31,0.81,0.74,1.17,1.17c0.42,0.5,0.9,0.91,1.5,1.18c1.11,0.5,2.33,0.62,3.37,1.29c1.02,0.66,1.19,1.93,2.18,2.61
				c0.86,0.6,1.98,0.64,2.96,0.92c0.65,0.19,0.93,0.3,1.39,0.83c0.69,0.79,1.21,2.08,1.66,3.11c0.22,0.49,0.94,0.61,1.37,0.36
				c0.51-0.3,0.58-0.87,0.36-1.37c-0.72-1.66-1.54-3.7-3.3-4.51c-0.8-0.37-1.65-0.52-2.5-0.71c-0.53-0.12-0.89-0.23-1.16-0.73
				c-0.34-0.64-0.68-1.22-1.24-1.7c-0.98-0.86-2.18-1.27-3.41-1.62c-0.57-0.16-1.1-0.33-1.51-0.76c-0.46-0.48-0.81-1.01-1.34-1.42
				c-2.16-1.71-5.38-1.79-8.01-1.89c-1.79-0.07-3.54-0.26-5.32-0.41c-0.88-0.07-1.76-0.13-2.64-0.17c-0.74-0.03-1.59-0.16-2.33-0.01
				c-0.58,0.12-0.77,0.73-0.7,1.23c0.15,1.01,0.29,2.01,0.43,3.02c0.1,0.72,0.24,1.22,0.97,1.56c0.46,0.22,0.97,0.15,1.46,0.14
				c0.58-0.01,1.17,0,1.75,0.03c2.26,0.11,4.53,0.53,6.62,1.4c1.62,0.67,3.78,1.74,4.37,3.55c0.67,2-1.06,3.79-2.66,4.67
				c-0.95,0.53-1.99,0.86-2.96,1.35c-0.42,0.21-0.84,0.45-1.29,0.6c-0.57,0.2-1.18,0.28-1.78,0.39c-4.92,0.89-9.88,1.67-14.67,3.14
				c-5.22,1.61-10.3,3.69-15.17,6.15C428.47,167.97,429.49,169.7,430.63,169.12L430.63,169.12z"/>
		</g>
	</g>
	<g>
		<g>
			<path d="M387.05,172.33c2.96,2.03,5.97,3.97,8.95,5.96c1.34,0.9,2.67,2.09,4.29,2.42c1.66,0.34,3.44,0.07,5.11-0.01
				c1.81-0.09,3.63-0.18,5.44-0.28c1.48-0.08,2.96-0.16,4.41-0.45c1.29-0.26,2.59-0.71,3.66-1.49c1.25-0.9,1.9-2.12,2.66-3.42
				c0.93-1.58,2.57-2.22,4.11-3.1c1.69-0.96,3.34-2,5.05-2.92c1.13-0.61,0.13-2.34-1.01-1.73c-1.45,0.78-2.86,1.64-4.28,2.47
				c-1.35,0.79-2.84,1.44-4.07,2.42c-1.23,0.99-1.68,2.41-2.59,3.64c-0.74,0.99-1.85,1.58-3.02,1.93c-1.21,0.36-2.46,0.5-3.72,0.58
				c-1.72,0.11-3.45,0.18-5.18,0.27c-1.72,0.09-3.46,0.27-5.18,0.24c-0.63-0.01-1.26-0.11-1.83-0.39c-0.74-0.37-1.41-0.92-2.09-1.38
				c-3.24-2.18-6.52-4.29-9.74-6.49C387,169.88,386,171.61,387.05,172.33L387.05,172.33z"/>
		</g>
	</g>
	<g>
		<g>
			<path d="M543.39,423.76c0.01-1.05-0.24-2.01-0.3-3.03c-0.04-0.72,0.05-1.44-0.07-2.15c-0.13-0.78-0.54-1.41-1.06-1.99
				c-2.17-2.42-4.9-4.46-7.59-6.25c-2.75-1.82-5.67-3.38-8.67-4.74c-1.5-0.68-3.02-1.3-4.55-1.9c-1.59-0.62-3.18-1.26-4.85-1.59
				c-3.42-0.66-7.21,0.23-9.43,3.06c-0.39,0.5,0.31,1.21,0.71,0.71c1.92-2.45,5.13-3.36,8.14-2.86c1.57,0.26,3.07,0.83,4.55,1.4
				c1.5,0.58,2.99,1.17,4.46,1.82c5.58,2.48,10.92,5.64,15.37,9.87c0.6,0.57,1.3,1.16,1.71,1.89c0.44,0.79,0.27,1.71,0.3,2.57
				c0.04,1.08,0.32,2.1,0.31,3.19C542.38,424.41,543.38,424.41,543.39,423.76L543.39,423.76z"/>
		</g>
	</g>
	<g>
		<g>
			<path d="M235.02,224.04c1.41,0.18,2.98,0.37,4.06,1.39c0.91,0.86,0.82,2.27,1.83,3.04c0.94,0.72,2.24,0.67,3.36,0.52
				c1.44-0.18,2.83-0.6,4.17-1.16c5.06-2.13,9.31-5.94,12.59-10.29c1.84-2.44,3.23-5.18,3.72-8.22c0.1-0.63-0.86-0.9-0.96-0.27
				c-0.83,5.23-4.46,9.65-8.31,13.07c-1.98,1.76-4.2,3.28-6.6,4.42c-1.3,0.61-2.66,1.1-4.07,1.36c-1.08,0.2-2.91,0.51-3.61-0.61
				c-0.33-0.53-0.39-1.21-0.72-1.75c-0.32-0.53-0.78-0.97-1.3-1.32c-1.22-0.82-2.72-1.01-4.14-1.19
				C234.38,222.96,234.39,223.96,235.02,224.04L235.02,224.04z"/>
		</g>
	</g>
	<g>
		<g>
			<path d="M393.44,158.84c-3.33,1.04-6.98,2.35-9.21,5.19c-1.14,1.46-1.46,3.21-0.58,4.88c0.76,1.43,2.1,2.5,3.4,3.42
				c0.44,0.31,1.11,0.08,1.37-0.36c0.29-0.5,0.08-1.06-0.36-1.37c-1-0.71-2.04-1.53-2.64-2.63c-0.66-1.21-0.05-2.32,0.82-3.22
				c2.06-2.12,4.97-3.13,7.72-3.99C395.19,160.39,394.67,158.46,393.44,158.84L393.44,158.84z"/>
		</g>
	</g>
	<g>
		<g>
			<path d="M500.84,295.36c0.45,2.64,0.07,5.57-0.84,8.08c-0.99,2.71-3.6,4.38-4.54,7.1c-0.54,1.56-0.14,3.03,0.48,4.49
				c0.59,1.39,0.83,2.6,0.35,4.05c-0.94,2.85-3.21,5.05-4.02,7.97c-0.95,3.42-0.18,7.04-0.88,10.5c-0.37,1.79-0.88,3.55-1.04,5.37
				c-0.08,0.83-0.05,1.66,0.07,2.49c0.14,0.95,0.47,1.85,0.64,2.79c0.35,1.86,0.08,3.84-0.03,5.71s-0.23,3.73-0.37,5.6
				c-0.3,3.88-0.71,7.75-1.42,11.58c-0.78,4.16-2.02,8.22-2.46,12.44c-0.36,3.35,0.22,8.2-3.18,10.23c-1.1,0.66-0.1,2.39,1.01,1.73
				c3.1-1.85,3.76-5.54,3.96-8.85c0.11-1.91,0.25-3.78,0.59-5.66c0.36-1.95,0.83-3.88,1.27-5.82c1.76-7.69,2.31-15.56,2.74-23.42
				c0.1-1.92-0.05-3.69-0.53-5.56c-0.46-1.76-0.33-3.44,0.05-5.2c0.38-1.79,0.87-3.56,1.02-5.39c0.15-1.88,0.01-3.76,0.14-5.64
				c0.11-1.64,0.53-3.15,1.32-4.6c0.72-1.31,1.58-2.54,2.27-3.87c0.68-1.3,1.22-2.73,1.17-4.22c-0.03-0.77-0.2-1.51-0.48-2.22
				c-0.32-0.81-0.79-1.62-0.9-2.5c-0.2-1.58,0.98-2.97,1.92-4.1c1.05-1.26,2-2.45,2.63-3.99c1.2-2.97,1.56-6.47,1.03-9.62
				c-0.09-0.53-0.75-0.83-1.23-0.7C500.98,294.29,500.75,294.83,500.84,295.36L500.84,295.36z"/>
		</g>
	</g>
	<path class="st3" d="M326.69,398.68c-0.04,2.94,0.14,5.89,0.52,8.8c0.33,2.54,2.34,3.71,4.89,3.6c1.85-0.08,3.6-0.81,5.34-1.44
		c6.91-2.51,13.21-3.21,20.54-2.99c5.97,0.18,11.95,0.24,17.93,0.18c3.61-0.03,7.22-0.11,10.79-0.58c3.84-0.51,7.61-1.46,11.4-2.22
		c3.6-0.72,7.24-1.28,10.87-1.83c9.66-1.47,19.72-0.91,29.43,0.02c10.73,1.02,21.39,2.88,31.75,5.85c2.75,0.79,5.65,1.66,8.42,0.97
		c5.78-1.44,5.23-9.32,5.61-13.9"/>
	<path class="st4" d="M348.54,374.4c9.52,3.86,19.72,6,29.99,6.31"/>
	<path class="st4" d="M396.11,379.89c4.51-2.33,9.94-1.42,14.97-2.15c8.77-1.27,16.01-7.46,24.43-10.23
		c2.93-0.96,6.28-1.46,9.01-0.03"/>
	<path class="st4" d="M364.93,392.8c2.39,0.2,4.81,0.4,7.18,0.01c4.36-0.72,8.45-3.43,12.84-2.93"/>
	<path class="st4" d="M415.76,387.55c4.52-1.05,9.17-1.53,13.81-1.42"/>
	<g>
		<g>
			<path d="M367.4,179.36c0.24,0.71-0.36,1.34-0.8,1.84c-0.59,0.69-1.19,1.42-1.39,2.33c-0.44,1.99,1.27,3.04,2.91,3.54
				c3.74,1.12,7.72,0.75,11.49,0.02c1.96-0.38,3.9-0.87,5.86-1.28c1.9-0.4,3.74-0.54,5.67-0.32c3.48,0.41,7.79,1.61,10.91-0.69
				c0.74-0.55,1.4-1.34,1.46-2.3c0.05-0.88-0.51-1.53-1.18-2.01c-0.6-0.43-1.25-0.72-1.79-1.24c-0.63-0.62-1.21-1.23-2.04-1.55
				c-1.21-0.45-1.73,1.48-0.53,1.93c0.5,0.19,0.92,0.8,1.29,1.16c0.46,0.44,0.97,0.75,1.51,1.07c0.2,0.12,0.42,0.24,0.59,0.4
				c0.09,0.08,0.15,0.12,0.2,0.24c-0.08-0.2-0.02-0.14-0.06-0.04c-0.24,0.59-0.84,0.93-1.4,1.16c-3.06,1.26-6.54,0.07-9.68-0.2
				c-3.49-0.3-6.9,0.82-10.28,1.53c-3.24,0.68-6.65,1.18-9.95,0.56c-0.81-0.15-1.67-0.33-2.42-0.68c-0.7-0.34-0.75-0.79-0.36-1.43
				c0.43-0.71,1.07-1.25,1.5-1.96c0.48-0.79,0.71-1.71,0.4-2.61C368.91,177.62,366.98,178.14,367.4,179.36L367.4,179.36z"/>
		</g>
	</g>
	<g>
		<g>
			<path d="M499.14,165.47c-0.31,1.22-0.53,2.49-0.93,3.69c-0.06,0.17-0.08,0.25-0.14,0.37c-0.04,0.07-0.26,0.4-0.17,0.29
				c-0.46,0.54-1.08,0.98-1.66,1.37c-2.4,1.63-5.22,2.77-7.95,3.71c-5.75,1.98-11.82,2.8-17.89,2.45c-3.28-0.19-6.54-0.56-9.82-0.31
				c-3.23,0.24-6.41,0.9-9.56,1.62c-3.11,0.7-6.22,1.47-9.38,1.9c-3.21,0.43-6.49,0.42-9.72,0.56c-3.71,0.16-7.39,0.46-11.09,0.76
				c-0.78,0.06-1.67,0.13-2.37-0.26c-0.43-0.23-0.86-0.71-0.76-1.23c0.11-0.56,0.62-1.05,1-1.44c0.53-0.56,1.09-1.09,1.57-1.71
				c0.33-0.43,0.42-1,0-1.41c-0.35-0.35-1.08-0.43-1.41,0c-0.85,1.1-2.05,1.95-2.73,3.18c-0.71,1.3-0.5,2.79,0.6,3.81
				c1.18,1.09,2.79,1.18,4.32,1.05c1.76-0.16,3.52-0.32,5.28-0.44c3.6-0.24,7.2-0.36,10.81-0.51c3.44-0.14,6.79-0.62,10.15-1.35
				c3.32-0.72,6.62-1.57,9.98-2.11c3.48-0.56,6.92-0.53,10.42-0.27c3.34,0.25,6.64,0.38,9.98,0.06c3.2-0.31,6.38-0.91,9.46-1.85
				c3.35-1.02,6.81-2.34,9.78-4.23c1.11-0.71,2.44-1.57,2.99-2.81c0.6-1.36,0.81-2.9,1.18-4.33
				C501.38,164.75,499.46,164.22,499.14,165.47L499.14,165.47z"/>
		</g>
	</g>
	<path class="st4" d="M397.97,185.13c1.97,3.79,4.45,7.31,7.34,10.44c0.82,0.89,1.73,1.77,2.88,2.11c1.3,0.38,2.74-0.02,3.87-0.77
		s2.01-1.82,2.83-2.9c2.66-3.48,4.96-7.23,6.86-11.18"/>
	<path class="st4" d="M404.88,181.4c2.19,0.07,4.38-0.03,6.54-0.31"/>
	<path class="st4" d="M408.35,183.15c1.9-0.2,3.8-0.41,5.7-0.61"/>
	<path class="st4" d="M401.8,186.65c2.75,0.4,5.57,0.34,8.31-0.17"/>
	<path class="st4" d="M407.33,189.08c1.17-0.13,2.34-0.26,3.51-0.39c0.33-0.04,0.66-0.07,0.99-0.08c0.3-0.01,0.61,0.02,0.91,0.04
		c0.62,0.04,1.25,0.09,1.87,0.13"/>
	<path class="st5" d="M388.81,177.6c-3.44-0.97-7.02-2.02-9.6-4.48c-1.13-1.07-2.01-2.37-2.82-3.7"/>
	<path class="st4" d="M455.45,165.9c2.91-1.49,6.02-2.58,9.23-3.23c2.23-0.46,4.51-0.71,6.65-1.48c0.9-0.32,1.76-0.73,2.57-1.22
		c2.18-1.32,4.05-3.3,4.8-5.74s0.2-5.34-1.69-7.05"/>
	<path class="st4" d="M468.84,167.71c3.61-0.61,7.23-1.23,10.75-2.23c1.94-0.55,3.91-1.26,5.37-2.64c1.46-1.39,2.29-3.62,1.51-5.48"
		/>
	<path class="st4" d="M499.92,164.95c-0.28,1.64-1.77,2.78-3.24,3.57c-2.6,1.41-5.55,2.3-8.5,2.12c-1.53-0.09-3.1-0.46-4.55,0"/>
	<path class="st4" d="M453.61,168.11c-1.35,0.49-2.53,1.46-3.27,2.69c-0.09,0.16-0.16,0.39-0.01,0.49c0.08,0.05,0.17,0.04,0.26,0.02
		c0.96-0.17,1.85-0.63,2.75-1c2.38-0.99,4.98-1.45,7.56-1.34"/>
	<path class="st4" d="M374.39,181.03c-1.78,0.21-3.75,0.12-5.11-1.05c-0.88-0.75-1.37-1.84-1.84-2.89"/>
	<path class="st4" d="M379.36,180.77c2.9-0.75,5.96-0.54,8.94-0.18c0.58,0.07,1.18,0.15,1.76,0.02c0.58-0.13,1.13-0.51,1.3-1.07
		s-0.21-1.28-0.8-1.32"/>
	<g>
		<g>
			<path d="M390.39,184.86c0.8,1.84,1.47,3.73,0.45,5.62c-0.38,0.7-0.59,1.36-0.55,2.16c0.04,0.92,0.24,1.85,0.38,2.75
				c0.3,1.96,0.59,3.92,0.89,5.88c0.12,0.79,0.18,1.63,0.5,2.37c0.13,0.29,0.29,0.55,0.51,0.77c0.26,0.26,0.95,0.63,0.87,1.08
				c-0.06,0.31,0.42,0.45,0.48,0.13c0.12-0.66-0.35-0.99-0.8-1.39c-0.73-0.64-0.84-1.58-0.98-2.49c-0.32-2.08-0.63-4.17-0.94-6.25
				c-0.15-1.01-0.4-2.06-0.4-3.09c0-1.05,0.67-1.76,0.95-2.71c0.51-1.73-0.23-3.53-0.92-5.1
				C390.69,184.31,390.26,184.57,390.39,184.86L390.39,184.86z"/>
		</g>
	</g>
	<g>
		<g>
			<path d="M395.53,205.72c0.29-0.7,0.09-1.38-0.23-2.03c-0.4-0.81-0.91-1.52-1.17-2.4c-0.55-1.85-0.69-3.87-0.95-5.78
				c-0.13-0.99-0.53-2.34-0.09-3.29c0.35-0.75,0.89-1.26,1.03-2.11c0.28-1.72-0.28-3.67-0.89-5.26c-0.11-0.3-0.6-0.17-0.48,0.13
				c0.33,0.86,0.59,1.75,0.76,2.66c0.16,0.9,0.32,1.94,0.02,2.83c-0.26,0.78-0.93,1.32-1.07,2.16c-0.14,0.85,0.09,1.78,0.2,2.62
				c0.24,1.81,0.43,3.65,0.82,5.44c0.17,0.79,0.43,1.54,0.83,2.25c0.46,0.8,1.14,1.69,0.75,2.65
				C394.93,205.89,395.41,206.02,395.53,205.72L395.53,205.72z"/>
		</g>
	</g>
	<g>
		<g>
			<path d="M433.72,182.22c-1.25,0.79-2.49,1.58-3.73,2.39c-0.85,0.56-1.71,1.12-2.04,2.14c-0.39,1.2-0.41,2.59-0.58,3.84
				c-0.2,1.48-0.39,2.96-0.59,4.43c-0.2,1.48-0.39,2.96-0.59,4.43c-0.18,1.39-0.37,2.77-1.09,3.99c-0.59,1-1.37,1.88-1.82,2.95
				c-0.46,1.09-0.47,2.29-0.29,3.44c0.47,2.93,2.53,6.04,1.23,9.02c-0.13,0.29,0.3,0.55,0.43,0.25c1.01-2.31,0.17-4.72-0.55-6.98
				c-0.4-1.26-0.79-2.58-0.72-3.92c0.07-1.37,0.74-2.43,1.49-3.53c0.69-0.99,1.22-1.97,1.49-3.16c0.28-1.25,0.39-2.54,0.56-3.81
				c0.38-2.87,0.76-5.75,1.15-8.62c0.1-0.73,0.13-1.52,0.36-2.23c0.24-0.74,0.82-1.19,1.44-1.6c1.35-0.9,2.72-1.76,4.09-2.62
				C434.24,182.48,433.99,182.05,433.72,182.22L433.72,182.22z"/>
		</g>
	</g>
	<g>
		<g>
			<path d="M425.88,219.51c1.15-2.09,1.41-4.6,0.65-6.87c-0.44-1.31-1.11-2.51-0.94-3.93c0.14-1.27,0.76-2.42,1.34-3.53
				c0.59-1.11,1.16-2.22,1.5-3.44c0.35-1.26,0.49-2.57,0.61-3.87c0.13-1.43,0.24-2.85,0.36-4.28c0.11-1.35,0.06-2.85,0.51-4.14
				c0.26-0.76,0.81-1.32,1.39-1.86c0.59-0.55,1.2-1.1,1.8-1.65c1.28-1.17,2.56-2.34,3.84-3.51c0.24-0.22-0.12-0.57-0.35-0.35
				c-1.13,1.03-2.25,2.06-3.38,3.09c-1.04,0.95-2.23,1.85-3.11,2.95c-0.72,0.9-0.89,1.98-0.99,3.09c-0.13,1.47-0.24,2.94-0.37,4.41
				c-0.24,2.86-0.38,5.68-1.7,8.28c-1.03,2.04-2.42,4.16-1.81,6.55c0.38,1.5,1.15,2.79,1.24,4.37c0.09,1.55-0.26,3.07-1,4.43
				C425.29,219.54,425.72,219.79,425.88,219.51L425.88,219.51z"/>
		</g>
	</g>
	<g>
		<g>
			<path d="M393.7,205.51c-1.23,0.1-1.44,1.44-1.6,2.42c-0.1,0.58-0.22,1.16-0.28,1.74c-0.05,0.47-0.02,0.99,0.3,1.37
				c0.34,0.39,0.92,0.56,1.42,0.64c0.5,0.07,1.01,0.05,1.5-0.09c0.95-0.26,1.98-0.97,1.9-2.07c-0.05-0.66-0.34-1.32-0.58-1.93
				c-0.26-0.65-0.55-1.29-0.88-1.92c-0.15-0.29-0.58-0.03-0.43,0.25c0.47,0.89,0.86,1.81,1.18,2.76c0.15,0.43,0.33,0.94,0.13,1.39
				c-0.17,0.39-0.56,0.65-0.92,0.83c-0.76,0.38-1.7,0.43-2.5,0.11c-0.46-0.19-0.66-0.51-0.65-1c0-0.44,0.11-0.88,0.18-1.32
				c0.09-0.54,0.15-1.1,0.29-1.63c0.12-0.46,0.39-1,0.93-1.04C394.02,205.98,394.02,205.48,393.7,205.51L393.7,205.51z"/>
		</g>
	</g>
	<g>
		<g>
			<path d="M424.34,218.79c-0.67,0.61-1.26,1.31-1.75,2.07c-0.41,0.64-1.05,1.59-0.73,2.39c0.32,0.81,1.43,0.86,2.16,0.86
				c0.81,0,1.71-0.33,1.96-1.18c0.15-0.51,0.07-1.11,0.05-1.63c-0.03-0.6-0.07-1.21-0.11-1.81c-0.02-0.32-0.52-0.32-0.5,0
				c0.06,0.87,0.12,1.75,0.13,2.62c0.01,0.37,0.01,0.76-0.26,1.05c-0.23,0.26-0.57,0.38-0.91,0.43c-0.39,0.05-0.8,0.02-1.18-0.04
				c-0.31-0.04-0.7-0.12-0.86-0.42c-0.17-0.32-0.02-0.74,0.13-1.04c0.16-0.33,0.35-0.66,0.55-0.97c0.47-0.73,1.03-1.38,1.67-1.97
				C424.93,218.92,424.58,218.57,424.34,218.79L424.34,218.79z"/>
		</g>
	</g>
	<g>
		<g>
			<path d="M334.83,251.29c0.89-3.07,2.18-6.01,3.84-8.74c1.54-2.54,3.67-5.13,3.31-8.3c-0.08-0.7-0.25-1.36-0.57-1.99
				c-0.33-0.66-0.96-1.17-1.24-1.86c-0.54-1.34,0.7-2.96,1.27-4.09c0.72-1.41,1.3-2.89,1.72-4.42c0.41-1.5,0.87-3.24,0.54-4.79
				c-0.18-0.85-0.55-1.54-0.51-2.43c0.05-0.91,0.34-1.8,0.53-2.69c0.4-1.85,0.37-3.74-0.14-5.57c-0.34-1.24-2.27-0.71-1.93,0.53
				c0.42,1.52,0.45,3.08,0.11,4.62c-0.35,1.59-0.85,3.18-0.39,4.81c0.2,0.72,0.47,1.31,0.42,2.07c-0.05,0.76-0.22,1.52-0.4,2.26
				c-0.36,1.52-0.89,3-1.58,4.39c-0.67,1.35-1.55,2.66-1.72,4.2c-0.09,0.75,0.04,1.48,0.37,2.15c0.33,0.65,0.9,1.15,1.22,1.81
				c1.31,2.71-1.09,5.64-2.45,7.8c-1.89,3-3.35,6.29-4.34,9.69C332.54,252,334.47,252.53,334.83,251.29L334.83,251.29z"/>
		</g>
	</g>
	<g>
		<g>
			<path d="M334.38,221.11c0.5-1.94,1-4.07,0.05-5.96c-0.38-0.76-0.96-1.29-1.69-1.7c-0.23-0.13-0.5-0.27-0.63-0.51
				c-0.15-0.28-0.15-0.66-0.19-0.96c-0.08-0.62-0.15-1.25-0.23-1.87c-0.04-0.32-0.54-0.32-0.5,0c0.07,0.55,0.13,1.11,0.2,1.66
				c0.05,0.44,0.05,0.94,0.25,1.35c0.35,0.74,1.33,0.94,1.86,1.54c1.55,1.76,0.93,4.31,0.4,6.33
				C333.82,221.29,334.3,221.42,334.38,221.11L334.38,221.11z"/>
		</g>
	</g>
	<path class="st4" d="M432.74,331.8c6.21-2.48,11.07-7.39,16.54-11.23c7.34-5.16,15.96-8.48,24.87-9.55"/>
	<path class="st4" d="M283.54,304.32c-1.51-2.2-1.57-5.06-1.41-7.72s0.46-5.43-0.51-7.92c-1.01-2.62-3.46-4.62-6.23-5.11"/>
	<path class="st4" d="M237.92,235.53c1.27,1.34,3.29,1.76,5.12,1.54c1.84-0.22,3.55-1.01,5.23-1.78c1.96-0.9,3.92-1.81,5.87-2.71
		c2.91-1.34,5.88-2.72,8.24-4.89c3.68-3.38,5.5-8.3,6.76-13.14c0.25-0.97,0.42-2.17-0.35-2.81"/>
	<path class="st4" d="M504.64,395.71c0.87-0.56,1.49-1.42,2.3-2.06c2.08-1.62,5.01-1.49,7.59-0.96c3.57,0.73,6.99,2.07,10.38,3.41
		c3.18,1.25,6.42,2.53,9.09,4.67c1.11,0.88,2.1,1.91,3.29,2.69c2.05,1.35,4.55,1.91,6.61,3.24c2.9,1.87,4.72,5.29,4.66,8.74"/>
	<path class="st4" d="M507.08,307.23c1.48-3.03,4.39-5.18,7.52-6.43c3.13-1.25,6.52-1.71,9.86-2.16"/>
	<path class="st4" d="M523.93,296.29c3.55-1.53,7.42-2.31,11.28-2.27"/>
	<path class="st4" d="M550.41,405.49c-0.41-1.44-1.01-2.82-1.77-4.11c-0.26-0.44-0.55-0.9-0.54-1.41c0.01-0.42,0.22-0.8,0.41-1.17
		c1.21-2.36,1.77-5.05,1.6-7.7"/>
	<path class="st4" d="M545.49,232.54c-0.86,3.59-2.1,7.08-3.69,10.41"/>
	<path class="st4" d="M532.95,190.17c-2.34-1.21-5.18-0.42-7.79-0.79c-1.81-0.26-3.54-1.11-4.85-2.39"/>
	<path class="st4" d="M299.78,239.62c1.4,3.43,3.73,6.49,6.66,8.76"/>
	<path class="st4" d="M276.09,227.99c0.97,0.51,1.63,1.45,2.21,2.38c2.16,3.47,3.68,7.34,4.45,11.36"/>
	<path class="st4" d="M309.87,253.86c1.97,6.73,1.34,14.19-1.72,20.5"/>
	<path class="st4" d="M314.67,256.85c-0.37,4.49,0.08,9.05,1.32,13.38"/>
	<path class="st4" d="M478.53,247.49c-0.51-1.02-0.04-2.24,0.43-3.27c1.83-4.01,3.66-8.02,5.49-12.04"/>
	<path class="st4" d="M476.18,244.06c-0.38-3.28-1.01-6.54-1.89-9.72"/>
	<path class="st4" d="M529.38,203.42c-2.32,0.12-4.81,0.19-6.75-1.07c-2.34-1.53-3.41-4.74-6.04-5.7"/>
	<path class="st4" d="M495.68,261.22c2.23,2.56,5.66,3.68,8.95,4.53c7.32,1.89,14.81,2.99,22.28,4.1"/>
	<path class="st4" d="M513.79,271.89c5.82,0.83,11.65,1.66,17.47,2.48"/>
	<path class="st6" d="M513.48,386.92c5.26-0.32,10.42,1.36,15.42,3.02c1.98,0.66,3.98,1.32,5.76,2.4c0.53,0.32,1.03,0.67,1.54,1.02
		c0.59,0.41,1.19,0.82,1.78,1.24c1.21,0.84,2.41,1.69,3.6,2.55"/>
	<path class="st6" d="M247.78,239.99c7.57-0.31,14.42-4.93,19.28-10.74c1.65-1.97,3.17-4.24,3.32-6.8"/>
	<path class="st6" d="M453.86,143.18c0,0,0.42,7.95,5.79,15.9"/>
	<g>
		
			<linearGradient id="SVGID_1_" gradientUnits="userSpaceOnUse" x1="462.0392" y1="637.0391" x2="461.5667" y2="653.3775" gradientTransform="matrix(1 0 0 -1 0 799.8898)">
			<stop  offset="0" style="stop-color:#000000"/>
			<stop  offset="0.6586" style="stop-color:#313131;stop-opacity:0.3414"/>
			<stop  offset="1" style="stop-color:#464646;stop-opacity:0"/>
		</linearGradient>
		<path class="st7" d="M457.22,155.21c0.35,0.85,0.72,1.69,1.16,2.5c0.24,0.44,0.51,0.89,0.92,1.16c0.87,0.57,2.02,0.2,2.98-0.19
			c1.73-0.71,3.48-1.5,4.8-2.83c1.32-1.33,2.13-3.31,1.59-5.1c-0.39-1.3-1.44-2.33-2.63-2.99s-2.53-1-3.85-1.32
			c-1.79-0.44-3.59-0.86-5.43-1.06c-0.49-0.06-1.01-0.09-1.47,0.08c-1.67,0.62-0.37,3.12-0.03,4.25
			C455.82,151.57,456.47,153.41,457.22,155.21z"/>
		
			<linearGradient id="SVGID_00000106840219175640164680000015354782157800878012_" gradientUnits="userSpaceOnUse" x1="611.8171" y1="531.9279" x2="510.2212" y2="486.774" gradientTransform="matrix(1 0 0 -1 0 799.8898)">
			<stop  offset="0" style="stop-color:#000000"/>
			<stop  offset="0.6586" style="stop-color:#313131;stop-opacity:0.3414"/>
			<stop  offset="1" style="stop-color:#464646;stop-opacity:0"/>
		</linearGradient>
		<path style="fill:url(#SVGID_00000106840219175640164680000015354782157800878012_);" d="M476.27,235.5
			c0.26-0.36,0.67-0.63,1.11-0.58c0.3,0.03,0.56,0.19,0.84,0.3c0.93,0.35,1.99,0.04,2.82-0.5c0.83-0.54,1.49-1.3,2.21-1.98
			c1.82-1.72,1.1,0.32,1.12,0.94c0.04,1.48-0.06,2.93,0.16,4.43c0.43,2.95,1.36,5.83,2.7,8.49c2.62,5.22,6.86,9.66,12.11,12.28
			c5.52,2.76,11.71,3.59,17.58,5.32c5.17,1.52,11.47,3.38,14.07,8.34c2.72,5.18,5.44,10.37,8.16,15.55c1.26,2.39,2.49,5.39,1,7.64
			c-1.05,1.57-3.12,2.14-5.01,2.08c-1.89-0.06-3.73-0.62-5.61-0.76c-0.53-0.04-1.13-0.03-1.53,0.32c-0.67,0.58-0.4,1.66-0.08,2.49
			c2.76,7.2,5.5,13.93,5.33,21.79c-0.25,11.55-5.54,21.64-7.27,32.73c-1.86,11.9-4.52,23.8-4.06,35.92
			c0.18,4.76-2.53,7.99-4.04,12.35c-0.99-1.08-2.8-0.8-4.11-0.65c-1.57,0.17-3.12,0.6-4.55,1.25c-0.95,0.44-1.9,1.01-2.43,1.91
			c-0.44,0.75-2.48-1.92-2.68-2.21c-0.99-1.46-1.39-3.4-0.68-5.01c0.44-0.98,1.23-1.75,1.87-2.61c1.96-2.65,2.29-6.03,2.19-9.22
			c-0.11-3.47,0.02-6.64,0.24-10.12c0.32-5.04,0.22-10.12-0.32-15.14c-0.49-4.59-2.18-8.89-3.54-13.31c-0.19-0.6-0.73-1.5-0.77-2.06
			c-0.09-1.04-0.12-2.09-0.14-3.13c-0.09-3.53-0.18-7.14,0.77-10.58c0.94-3.37,2-6.67,3.15-10.01c0.64-1.87,1.27-3.91,1.09-5.91
			c-0.18-2.02-2.04-3.31-2.25-5.2c-0.05-0.43,0.11-0.85,0.26-1.26c0.4-1.02,0.8-2.06,1.28-3.05c0.55-1.14,1.64-1.57,1.46-2.91
			c-0.15-1.1-0.92-2.18-1.57-3.04c-1.03-1.36-2.19-2.61-3.47-3.74c-1.69-1.5-3.62-2.8-4.89-4.67c-2.13-3.11-2.27-7.07-4.33-10.27
			c-2.03-3.13-4.95-5.51-7.56-8.14c-2.53-2.55-4.44-5.56-6.42-8.51c-0.73-1.08-1.45-2.16-2.06-3.32c-1.43-2.72-2.09-5.74-2.07-8.8
			c0.02-2.7-0.51-5.5-0.7-8.22c-0.18-2.65-0.76-6.55,0.51-9.03C476.19,235.63,476.23,235.57,476.27,235.5z"/>
		
			<linearGradient id="SVGID_00000169539091345362748140000010062397071960188094_" gradientUnits="userSpaceOnUse" x1="543.3445" y1="454.4996" x2="471.36" y2="466.0047" gradientTransform="matrix(1 0 0 -1 0 799.8898)">
			<stop  offset="0" style="stop-color:#000000"/>
			<stop  offset="0.6586" style="stop-color:#313131;stop-opacity:0.3414"/>
			<stop  offset="1" style="stop-color:#464646;stop-opacity:0"/>
		</linearGradient>
		<path style="fill:url(#SVGID_00000169539091345362748140000010062397071960188094_);" d="M492.37,354.16
			c-0.02,0.25-0.05,0.51-0.07,0.76c-0.32,3.3-0.63,6.6-0.95,9.91c-0.42,4.37-1.36,9.03-2.45,13.25c-0.88,3.39-1.37,6.87-1.45,10.37
			c-0.03,1.15-0.06,2.43-0.87,3.25c-0.32,0.32-0.72,0.54-1.08,0.82c-2.15,1.69-1.12,4.64-1.27,6.97c-0.27,4.01-1.94,9.03-6.59,9.54
			c-1.29,0.14-2.59-0.11-3.86-0.37c-6.99-1.43-13.89-3.29-20.66-5.56c4.8-4.18,11.64-6.29,14.76-11.84
			c0.28-0.49,0.53-1.05,0.43-1.61c-0.15-0.87-1.05-1.37-1.71-1.96c-1.32-1.19-1.81-3.09-1.69-4.86s0.76-3.46,1.4-5.12
			c1.05-2.74,2.1-5.48,3.16-8.22c1-2.6,2-5.36,1.99-8.18c-0.01-2.6-1.61-5.21-1.2-7.81c0.16-0.99,0.69-1.88,1.22-2.73
			c4.09-6.55,8.82-13.09,9.88-20.74c0.69-4.98,0.35-10.94-4.96-13.18c-2.77-1.17-5.89-1.11-8.9-0.98c1.88-3.34,5.92-4.66,9.08-6.84
			c4.3-2.97,6.92-7.72,7.97-12.76c1.23-5.87-0.95-11.35-2.65-16.99c-0.89-2.97-1.71-5.96-2.44-8.97c-0.8-3.3-1.5-6.81-2.71-9.99
			c4,3.74,5.88,9.31,9.8,13.13c2.27,2.22,5.18,3.81,7.03,6.39c2.64,3.69,2.67,8.85,5.56,12.34c1.09,1.32,2.61,2.44,2.96,4.12
			c0.21,0.97-0.02,1.97-0.25,2.94c-0.63,2.67-1.3,5.46-3.07,7.56c-1.17,1.39-2.83,2.55-3.14,4.34c-0.3,1.75,0.83,3.38,1.35,5.07
			c1.04,3.4-1.13,5.98-2.75,8.73c-1.93,3.28-0.92,6.81-1.18,10.54c-0.05,0.72-0.11,1.44-0.31,2.13c-0.23,0.79-0.63,1.51-0.87,2.3
			c-1.07,3.51,0.05,6.88,0.51,10.34C492.57,351.51,492.49,352.84,492.37,354.16z"/>
		
			<linearGradient id="SVGID_00000036965356563562601160000010798199524772237480_" gradientUnits="userSpaceOnUse" x1="243.2042" y1="489.8916" x2="286.5721" y2="529.7532" gradientTransform="matrix(1 0 0 -1 0 799.8898)">
			<stop  offset="0" style="stop-color:#000000"/>
			<stop  offset="0.6586" style="stop-color:#313131;stop-opacity:0.3414"/>
			<stop  offset="1" style="stop-color:#464646;stop-opacity:0"/>
		</linearGradient>
		<path style="fill:url(#SVGID_00000036965356563562601160000010798199524772237480_);" d="M254.79,259.2
			c0.62,1.06,1.24,2.16,1.44,3.37c0.12,0.71,0.09,1.45,0.39,2.11c0.27,0.61,0.78,1.07,1.25,1.52c3.62,3.47,6.3,7.78,8.95,12.04
			c1.85,2.98,3.69,5.96,5.54,8.94c0.82,1.32,1.61,2.66,2.55,3.9c0.83,1.1,1.21,2.44,2.14,3.51c0.63,0.72,1.37,1.33,2.01,2.05
			c0.67,0.75,1.21,1.61,1.72,2.47c0.67,1.13,1.31,2.29,1.78,3.53c0.54,1.44,0.85,2.97,1.51,4.37c0.69,1.44,1.74,2.66,2.81,3.84
			c1.09,1.2,1.85,2.74,2.7,4.12c1.7,2.74,3.26,5.17,5.8,7.21c2.44,1.95,5.16,3.49,7.89,4.98c1.61,0.88,3.23,1.75,4.85,2.6
			c1.1,0.58,2.95,1.93,4.22,1.93c2.45,0.63,5,0.67,7.52,0.69c0.56,0.01,1.13,0.01,1.65-0.19c1.03-0.39,1.63-1.47,1.97-2.52
			c1.24-3.86,0.17-8.39,2.29-11.85c0.47-0.77,1.09-1.47,1.29-2.35c0.12-0.5,0.08-1.03,0.05-1.54c-0.31-5.22-0.23-10.46,0.24-15.66
			c0.09-1.06,0.2-2.15-0.15-3.15c-0.39-1.12-1.16-1.43-2.14-1.88c-1.05-0.48-2.07-1.13-3.09-1.66c-2.39-1.25-4.79-2.49-7.2-3.7
			c-4.82-2.42-9.7-4.72-14.72-6.71c-0.9-0.36-1.81-0.71-2.72-1.04c-5.97-2.21-12.25-4-17.36-7.8c-9.03-6.72-12.71-18.34-19.54-27.29
			c-1.01-1.33-2.14-2.68-2.43-4.32c-0.29-1.61,0.27-3.25,0.18-4.88c-0.24-4.12-4.09-6.38-7.7-7.09c-2.2-0.43-4.35-0.27-6.57-0.27
			c-0.35,0-0.71,0-1.03-0.14c-0.33-0.14-0.59-0.42-0.85-0.67c-1.41-1.39-3.15-2.41-4.93-3.28c-0.53-0.26-1.08-0.52-1.67-0.57
			c-1.49-0.13-2.45,1.01-2.87,2.27c-0.69,2.07-0.92,3.91,0.54,5.65c1.27,1.52,3.02,2.53,4.4,3.93c2.22,2.23,4.2,4.79,6.16,7.26
			C247.73,248.06,251.46,253.51,254.79,259.2z"/>
		
			<linearGradient id="SVGID_00000046309029053630009590000010960037854540925839_" gradientUnits="userSpaceOnUse" x1="456.4395" y1="641.0908" x2="457.2499" y2="611.3775" gradientTransform="matrix(1 0 0 -1 0 799.8898)">
			<stop  offset="0" style="stop-color:#000000"/>
			<stop  offset="0.6586" style="stop-color:#313131;stop-opacity:0.3414"/>
			<stop  offset="1" style="stop-color:#464646;stop-opacity:0"/>
		</linearGradient>
		<path style="fill:url(#SVGID_00000046309029053630009590000010960037854540925839_);" d="M482.07,178.78
			c-10.28,3.32-20.93,5.43-31.65,6.7c-4.11,0.49-8.27,0.87-12.2,2.13c-2.88,0.93-5.97,2.33-8.79,1.23c2.57-2.04,4.96-4.3,7.16-6.73
			c-3.69,0.32-7.21,2.27-9.43,5.24c-0.45,0.6-0.87,1.26-1.51,1.64c-0.49,0.29-1.06,0.39-1.61,0.49c-2.25,0.39-4.5,0.78-6.75,1.17
			c1.54-1.69,2.72-3.7,3.46-5.87c0.16-0.46,0.3-0.95,0.64-1.31c0.38-0.39,0.93-0.56,1.46-0.69c7-1.73,14.38-0.8,21.51-1.86
			c6.55-0.97,12.93-3.62,19.53-3.15c2.1,0.15,4.17,0.62,6.27,0.85c9.49,1.07,18.25-2.65,26.66-6.54
			C492.46,175.24,487.14,177.14,482.07,178.78z"/>
		
			<linearGradient id="SVGID_00000134939992284720469410000016979958063165326986_" gradientUnits="userSpaceOnUse" x1="380.4937" y1="632.2639" x2="378.7379" y2="606.8726" gradientTransform="matrix(1 0 0 -1 0 799.8898)">
			<stop  offset="0" style="stop-color:#000000"/>
			<stop  offset="0.6586" style="stop-color:#313131;stop-opacity:0.3414"/>
			<stop  offset="1" style="stop-color:#464646;stop-opacity:0"/>
		</linearGradient>
		<path style="fill:url(#SVGID_00000134939992284720469410000016979958063165326986_);" d="M396.7,185.23
			c-6.33-1.99-12.91,0.6-19.19,1.49c-2.95,0.42-6.03,0.49-8.94-0.25c-3.52-0.89-1.34-3.48-0.99-5.86c0.02-0.13,0.02-0.29-0.06-0.39
			c-0.1-0.12-0.28-0.12-0.44-0.11c-1.01,0.08-1.96,0.53-2.87,0.98c-2.18,1.06-4.37,2.12-6.55,3.17c-0.31,0.15-0.68,0.48-0.5,0.77
			c0.06,0.1,0.18,0.16,0.28,0.22c0.55,0.34,0.81,1.01,1.32,1.4c0.32,0.25,0.73,0.37,1.12,0.48c8.97,2.61,18.35,3.63,27.74,3.2
			c1.02-0.05,2.08-0.13,2.95-0.67s1.42-1.7,0.97-2.61c-0.35-0.71-1.25-1.37-0.88-2.06c0.89-0.61,2.15,0.1,2.7,1.03
			s0.72,2.05,1.32,2.95c1.3,1.96,4.02,2.21,6.37,2.27c-0.52-1.3-1.12-2.57-1.79-3.81c-0.31-0.57-0.65-1.14-1.16-1.54
			C397.68,185.57,397.19,185.38,396.7,185.23z"/>
	</g>
	
		<linearGradient id="SVGID_00000181782542772290575270000001499850396416679296_" gradientUnits="userSpaceOnUse" x1="237.7088" y1="451.6324" x2="373.4455" y2="495.8164" gradientTransform="matrix(1 0 0 -1 0 799.8898)">
		<stop  offset="0" style="stop-color:#000000"/>
		<stop  offset="0.6586" style="stop-color:#313131;stop-opacity:0.3414"/>
		<stop  offset="1" style="stop-color:#464646;stop-opacity:0"/>
	</linearGradient>
	<path style="fill:url(#SVGID_00000181782542772290575270000001499850396416679296_);" d="M332.76,410.96c-1.5,0.24-3,0.14-4.03-0.9
		c-0.89-0.89-1.13-2.22-1.34-3.46c-0.4-2.44-0.8-4.88-1.2-7.33c-0.07-0.43-0.14-0.87-0.36-1.25c-0.27-0.46-0.72-0.78-1.15-1.12
		c-2.34-1.85-4.13-4.71-4.37-7.7c-0.27-3.42,1.49-7.3,2.81-10.38c1.47-3.46,0.6-7.35-0.36-10.88c-0.95-3.46-2.17-6.89-2.38-10.47
		c-0.33-5.51,1.88-10.66,2.4-16.04c0.18-1.89,0.88-3.47,0.35-5.4c-0.37-1.37-0.97-2.74-0.84-4.16c0.13-1.54,1.08-2.88,1.49-4.37
		c0.45-1.64,0.2-3.38,0.14-5.08c-0.06-1.7,0.11-3.54,1.19-4.85c1.53-1.84,2.39-2.5,2.51-5.03c0.12-2.66-0.33-5.31-0.28-7.97
		c0.07-3.94,0.17-7.9,0.38-11.85c0.46-8.42,1.39-16.81,2.31-25.2c0.46-4.16,0.93-8.37,2.27-12.33c1.12-3.32,2.81-6.4,4.28-9.57
		c0.61-1.33,1-2.77,1.57-4.08c0.67-1.53,1.83-2.77,2.39-4.39c0.57-1.63,0.65-3.51-0.17-5.02c-0.58-1.08-1.62-2.04-1.52-3.26
		c0.05-0.54,0.32-1.02,0.58-1.49c1.02-1.81,2.53-3.74,2.95-5.78c0.55-2.65,0.04-4.54-0.11-7.2c-0.11-2.06,0.83-4.08,0.62-6.13
		c-0.18-1.71-1.13-3.46-0.47-5.04c4.47,2.83,9.04,5.82,11.97,10.23c1.08,1.62,1.91,3.4,2.68,5.19c1.14,2.66,2.17,5.36,3.09,8.1
		c0.84,2.51,1.15,4.48,1.27,7.04c0.23,4.64,1.87,10.11,5.66,13.05c4.4,3.4,11.25,3.26,14.53,7.75c2.51,3.43,1.84,8.14,1.29,12.36
		c-0.84,6.44-1.14,12.96-0.88,19.46c0.05,1.35,0.17,2.8,1.05,3.82c0.94,1.09,2.49,1.38,3.91,1.55c10.92,1.27,21.96-1.14,32.94-0.54
		c1.08,0.06,2.25,0.19,3.03,0.94c1.28,1.24,0.79,3.35,0.21,5.03c-1.97,5.7-3.94,11.41-5.9,17.11c-0.94,2.72-1.95,4.36-3.39,6.65
		c-1.03,1.63-2.8,3.83-1.25,5.76c0.74,0.91,1.98,1.19,3.13,1.41c6.32,1.18,12.72,2,19.14,2.43c-9.32,10.32-18.63,20.63-27.95,30.95
		c-2.29,2.54-4.68,5.05-6.47,8.01c-0.47,0.79-0.92,1.74-0.58,2.59c0.23,0.57,0.77,0.94,1.19,1.38c1.02,1.06,1.43,2.66,1.07,4.08
		c-0.1,0.4-0.27,0.82-0.15,1.21c0.13,0.42,0.53,0.69,0.9,0.93c3.51,2.38,5.56,6.34,7.46,10.13c0.94,1.87,1.88,3.75,2.74,5.66
		c0.46,1.03,2.48,4.4,2.07,5.49c-0.69,1.81-8.84,1.19-10.69,1.43c-2.51,0.32-4.94,1.06-7.38,1.7c-7.46,1.95-15.16,2.95-22.86,2.98
		c-2.17,0.01-4.35-0.06-6.52-0.13c-5.6,0-11.4-0.97-16.9-0.04c-5.28,0-10.82,1.86-15.78,3.45
		C334.31,410.62,333.54,410.84,332.76,410.96z"/>
	
		<linearGradient id="SVGID_00000174589546628499400530000005242686741712374940_" gradientUnits="userSpaceOnUse" x1="398.0362" y1="625.7213" x2="392.063" y2="640.303" gradientTransform="matrix(1 0 0 -1 0 799.8898)">
		<stop  offset="0" style="stop-color:#000000"/>
		<stop  offset="0.6586" style="stop-color:#313131;stop-opacity:0.3414"/>
		<stop  offset="1" style="stop-color:#464646;stop-opacity:0"/>
	</linearGradient>
	<path style="fill:url(#SVGID_00000174589546628499400530000005242686741712374940_);" d="M384.35,166.92
		c-0.09-1.03,0.32-2.06,0.97-2.86c0.64-0.81,1.5-1.42,2.39-1.95c2.39-1.43,5.04-2.36,7.7-3.2c1.99-0.63,3.99-1.21,6-1.75
		c0.17-0.04,0.35-0.09,0.5,0c0.15,0.08,0.21,0.25,0.27,0.41c0.7,2.07,1.12,4.23,1.25,6.42c0.02,0.43,0.03,0.87-0.14,1.26
		c-0.16,0.35-0.45,0.62-0.74,0.87c-2.13,1.79-4.73,2.94-7.32,3.97c-1.65,0.66-3.36,1.28-5.14,1.34
		C387.31,171.5,384.63,169.87,384.35,166.92z"/>
</g>
</svg>
