<?xml version="1.0" encoding="utf-8"?>
<!-- Generator: Adobe Illustrator 28.0.0, SVG Export Plug-In . SVG Version: 6.00 Build 0)  -->
<svg version="1.1" id="Layer_1" xmlns="http://www.w3.org/2000/svg" xmlns:xlink="http://www.w3.org/1999/xlink" x="0px" y="0px"
	 viewBox="0 0 800 800" style="enable-background:new 0 0 800 800;" xml:space="preserve">
<style type="text/css">
	.st0{fill:#44494C;}
	.st1{fill:#3A3D3F;}
	.st2{fill:url(#SVGID_1_);}
	.st3{fill:url(#SVGID_00000104693810243993228630000013987386674607574457_);}
	.st4{fill:#535556;}
	.st5{fill:none;stroke:#000000;stroke-width:2;stroke-linecap:round;stroke-linejoin:round;stroke-miterlimit:10;}
	.st6{fill:none;stroke:#000000;stroke-linecap:round;stroke-linejoin:round;stroke-miterlimit:10;}
	.st7{fill:none;stroke:#000000;stroke-width:0.5;stroke-linecap:round;stroke-linejoin:round;stroke-miterlimit:10;}
</style>
<g id="_x32_-PANTS__x5B_VOJAK_x5D__SMOKE_x2B_">
	<path class="st0" d="M534.62,670.45c-0.22-2.17-0.97-4.26-1.71-6.31c-0.8-2.23-1.61-4.47-2.41-6.7c-0.64-1.79-1.6-3.67-2-5.53
		c-0.48-2.24,0.34-4.21,1.03-6.26c0.1-0.29,0.19-0.58,0.28-0.88c0.75-2.46,1.28-5.01,1.13-7.59c-0.27-4.55-2.57-8.61-4.05-12.83
		c-0.71-2.02-0.84-4.02-1.72-6.05c-0.9-2.07-1.99-4.06-2.95-6.11c-3.63-7.76-5.39-16.25-6.61-24.73c-0.42-2.93-1.27-5.74-1.7-8.66
		c-0.72-4.85-1.76-9.66-3.13-14.37c-0.6-2.07-1.26-4.12-2.14-6.09c-0.71-1.59-1.56-3.13-2.2-4.75c-0.84-2.15-1.04-4.51-2.14-6.51
		c-0.98-1.8-1.66-3.81-1.53-5.87c0.17-2.81-0.06-5.57-0.79-8.27c-0.74-2.73-0.94-5.56-1.98-8.24c-0.88-2.29-2.18-4.43-2.75-6.81
		c-0.31-1.31-0.08-2.8-0.44-4.04c-0.37-1.27-1.51-2.53-2.06-3.77c-1.18-2.68-1.86-5.58-1.97-8.51c-0.06-1.6,0.05-3.21-0.06-4.81
		c-0.12-1.86-0.54-3.7-0.95-5.52c-1.73-7.58-3.65-15.12-5.41-22.69c-0.75-3.24-0.81-6.89-1.23-10.23c-0.46-3.66-0.9-7.32-1.3-10.99
		c-0.63-5.76-0.78-11.7-1.97-17.37c-0.27-1.29-0.79-2.89-0.59-4.21c0.24-1.6,1.12-2.85,0.53-4.53c-0.4-1.16-1.36-2.05-1.8-3.2
		c-0.34-0.89-0.34-1.87-0.36-2.83c-0.02-1.67,0.03-3.5-0.42-5.11c-0.37-1.31-0.29-2.48,0.11-3.81c0.14-0.47,0.32-0.92,0.48-1.38
		c1.31-3.82,0.47-7.74-0.03-11.61c-0.24-1.88-0.31-3.79-0.56-5.68c-0.2-1.56-0.7-3.14-1.79-4.27c-0.72-0.75-1.65-1.26-2.57-1.74
		c-1.67-0.87-3.37-1.69-5.11-2.43c-6.98-2.95-13.97-3.27-21.44-3.67c-7.85-0.42-15.7-0.76-23.56-0.98
		c-4.06-0.12-8.12-0.25-12.19-0.35c-3.97-0.09-7.73,0.16-11.68,0.38c-7.89,0.46-15.87-0.81-23.68,0.71
		c-2.91,0.57-5.61,0.5-8.51,0.81c-3.17,0.34-6.33,0.85-9.46,1.49c-4.92,1.01-9.85,2.08-14.59,3.75c-2.14,0.75-4.22,1.61-6.33,2.42
		c-2.51,0.96-5.48,1.78-5.93,4.8c-0.22,1.48-0.3,2.98-0.39,4.48c-0.12,2.12-0.24,4.23-0.36,6.35c-0.23,4.15-0.46,8.31-0.05,12.45
		c0.28,2.79,0.85,5.58,0.59,8.38c-0.02,0.21-0.05,0.43-0.17,0.6c-0.16,0.23-0.46,0.31-0.69,0.46c-0.63,0.38-0.87,1.18-0.88,1.91
		c-0.03,2.64,2.29,4.8,2.56,7.42c0.29,2.85-0.55,5.42,0.19,8.27c0.85,3.25,2.1,6.37,3.12,9.56c1.25,3.92,2.25,7.95,2.57,12.06
		c0.1,1.31,0.13,2.63,0.3,3.94c0.84,6.64,4.25,12.86,5.8,19.37c1.04,4.34,1.71,8.76,2.38,13.17c1.24,8.14,2.63,16.28,3.62,24.45
		c0.72,5.98,0.92,12.01,1.52,18c0.49,4.88,0.88,9.68,1.12,14.6c0.08,1.75,0.17,3.5,0.5,5.21c0.21,1.1,0.52,2.18,0.84,3.26
		c2.55,8.82,6.19,17.71,4.97,27.01c-0.54,4.08-1.45,8.16-1.24,12.28c0.13,2.47,0.66,4.91,1.2,7.33c1.02,4.53,2.15,9.02,2.59,13.65
		c0.47,4.86,0.27,9.74,0.59,14.61c0.25,3.79,0.82,7.56,1.49,11.3c0.44,2.44,0.93,4.89,1.92,7.16c0.63,1.45,1.46,2.81,1.99,4.3
		c0.75,2.13,1.03,4.81-0.02,6.88c-0.93,1.83-2.83,3.25-3.04,5.42c-0.12,1.18,0.37,2.38,1.15,3.27c0.78,0.9,1.84,1.52,2.96,1.94
		c3.36,1.27,6.63,0.19,10.06,0.28c3.32,0.09,6.85,1.44,10.18,1.91c7.27,1.02,14.67,1.09,21.96,0.19c2.58-0.32,5.93-0.26,8.3-1.45
		c0.97-0.49,1.58-0.92,2.71-1.16c1.11-0.24,2.26-0.43,3.19-1.12c1.8-1.33,2.07-3.86,2.18-6.09c0.2-4.02,0.4-8.05,0.6-12.07
		c0.26-5.15-1.42-10.6-2.7-15.56c-0.73-2.81-1.74-5.69-2.22-8.55c-0.38-2.31-0.16-4.83-0.33-7.19c-0.24-3.23-0.45-6.47-0.64-9.7
		c-0.38-6.39-0.69-12.77-0.99-19.16c-0.11-2.32,0-4.76-0.23-7.05c-0.25-2.55-1.18-5.14-1.63-7.67c-0.94-5.17-1.46-10.45-0.96-15.69
		c0.54-5.68,1.69-10.9,0.85-16.61c-0.83-5.67-0.5-11.38-0.84-17.08c-0.44-7.39-0.89-14.78-1.33-22.17
		c-0.17-2.83-0.33-5.73,0.55-8.43c1.78,0.89,2.78,3.09,3.67,4.76c0.98,1.83,1.86,3.71,2.63,5.64c1.48,3.71,3.21,7.3,4.91,10.94
		c0.48,1.03,0.96,2.06,1.45,3.1c1.66,3.56,3.68,6.8,4.96,10.51c1.32,3.84,2.36,7.78,3.09,11.78c0.56,3.06,0.94,6.14,1.6,9.18
		c1.32,6.11,3.73,11.9,6.29,17.58c1.14,2.52,2.46,4.97,3.39,7.59c1,2.82,1.75,5.72,2.83,8.51c1.55,4.01,4.33,8.02,5,12.31
		c0.69,4.42,2.53,8.81,4.16,13c1.08,2.76,2.23,5.5,3.25,8.28c2.89,7.86,6.56,15.84,7.7,24.24c1.16,8.54,1.1,17.19,1.6,25.8
		c0.13,2.33,0.53,5.02,2.54,6.2c1.79,1.05,3.78,0.34,5.59-0.22c2.4-0.74,4.22-0.75,6.63-0.96c2.23-0.2,4.45-0.42,6.68-0.66
		c2.08-0.22,3.92-0.21,6.01-0.21c3.53,0,7.05-0.62,10.37-1.82c2.94-1.06,6.73-1.32,9.87-1.37c2.08-0.03,4.16,0.22,6.25,0.21
		c1.13-0.01,2.29-0.1,3.29-0.62C534.19,675.83,534.88,672.94,534.62,670.45z"/>
	<g>
		<path class="st1" d="M331.96,411.89c0.28,1.11,0.67,2.2,0.76,3.34c0.24,2.95-2.09,5.22-1.88,8.02c0.08,1.11,0.52,2.17,1.14,3.09
			c0.3,0.46,0.65,0.9,0.84,1.41c0.67,1.87,0.36,5.08,0.34,7.08c-0.03,2.93,0.33,5.22,1.22,8.05c1.18,3.78,1.74,7.48,2.62,11.3
			c1.47,6.38,2.39,13.29,4.73,19.41c0.84,2.2,1.9,4.31,2.72,6.53c1.41,3.81,1.3,7.22,1.7,11.19c0.42,4.23,1.06,8.45,2.11,12.58
			c0.49,1.93,1.07,3.84,1.45,5.79c0.36,1.84,0.53,3.71,0.7,5.58c0.73,7.9,1.45,15.81,2.18,23.71c1.03,11.17,2.06,21.9,5.42,32.72
			c0.71,2.28,1.48,4.54,1.91,6.89c1.12,6.2-0.26,12.54-0.77,18.82c-0.46,5.74,0.8,10.86,1.84,16.44c1.08,5.78,1.71,11.65,1.88,17.52
			c0.19,6.55-0.16,13.28,1.96,19.48c1.03,3,2.61,5.8,3.57,8.83c0.96,3.03,1.24,6.47-0.29,9.26c-0.56,1.02-1.35,1.91-1.76,3
			c-0.48,1.27-0.59,3.25,0.65,4.1c0.53,0.36,1.15,0.55,1.77,0.72c2.54,0.73,4.87,1.57,7.51,1.57c2.72,0,5.42,0.34,8.1,0.76
			c4.72,0.74,9.42,1.78,14.22,1.81c4.41,0.02,8.97-0.88,13.42-1.21c1.27-0.09,2.63-0.22,3.6-1.04c0.66-0.55,1.06-1.36,1.36-2.16
			c1.63-4.43,0.6-9.73-2.57-13.23c-0.97-1.07-2.14-2.01-2.8-3.3c-1.02-1.98-0.63-4.36-0.28-6.56c0.82-5.03,1.37-10.09,1.65-15.18
			c0.22-4,1.34-9.99-0.65-13.67c-0.2-0.36-0.44-0.73-0.82-0.89c-0.53-0.24-1.14-0.01-1.7,0.17c-3.9,1.26-8.47,0.11-11.3-2.84
			c-0.32-0.34-0.63-0.71-0.76-1.15c-0.25-0.83,0.16-1.7,0.61-2.43c1.24-2.01,2.93-3.69,4.47-5.48s2.98-3.76,3.55-6.04
			c1.16-4.61-3.35-7.94-2.2-12.63c0.31-1.26,0.89-2.45,1.11-3.72c0.43-2.44-0.48-4.93-0.3-7.4c0.29-4.18,3.5-7.47,5.61-11.09
			c3.82-6.56,4.08-14.59,3.2-22.12s-2.8-14.95-2.97-22.53c-0.16-6.65,1.05-13.33,3.54-19.49c0.45-1.12,0.99-2.28,1.96-3
			c3.61-2.67,4.64,3.05,5.61,5.15c2.23,4.82,4.56,9.58,6.99,14.3c3,5.82,6.18,11.56,7.97,17.9c1.4,4.95,1.93,10.09,2.99,15.12
			c1.06,5.07,2.51,9.73,4.55,14.51c4.09,9.53,7.82,19.2,11.4,28.93c3.39,9.21,6.27,18.65,9.78,27.7c0.81,2.09,1.01,4.51,1.79,6.66
			c1.6,4.46,3.8,8.72,4.95,13.34c0.75,3,1.03,6.09,1.29,9.17c0.55,6.6,0.98,13.2,1.29,19.81c0.06,1.35,0.13,2.72,0.57,4
			c1.07,3.1,3.82,3.35,6.71,2.84c4.94-0.88,9.76-2.47,14.76-2.97c3.49-0.35,7.03-0.17,10.51-0.59c5.82-0.7,11.52-3.08,17.35-2.44
			c0.49,0.05,1,0.13,1.47-0.01c1.06-0.3,1.1-1.44,0.87-2.31c-0.53-2.01-1.05-4.03-1.58-6.04c-0.4-1.52-0.8-3.05-1.5-4.46
			c-0.73-1.47-1.76-2.77-2.78-4.06c-3.28-4.12-6.55-8.24-9.83-12.36c-1.26-1.58-2.57-3.31-2.65-5.32
			c-0.17-4.52,5.74-7.28,6.16-11.79c0.17-1.79-0.58-3.53-1.32-5.17c-2.83-6.33-5.25-12.58-7.58-19.08
			c-2.44-6.8-4.41-13.76-6.75-20.6c-2.45-7.13-5.05-14.53-10.4-19.86c-2.94-2.93-6.72-5.27-8.4-9.06
			c-1.57-3.54-0.98-7.62-0.41-11.45c0.67-4.55,1.26-9.19,0.54-13.73c-1.24-7.83-6.17-14.49-10.02-21.43c-1.67-3-3.15-6.11-4.44-9.29
			c-1.17-2.88-2.69-6.15-3.07-9.25c-0.3-2.5-0.07-4.86-0.55-7.41c-0.63-3.39-1.28-6.78-1.98-10.15c-1.48-7.13-3.33-14.18-5.49-21.14
			c-1.2-3.85-2.34-7.73-3.64-11.55c-0.9-2.64-1.75-6.75-4.09-8.51c-0.6-0.45-1.3-0.75-1.88-1.22c-2.05-1.65-2.03-4.73-1.61-7.32
			c0.17-1.02,0.37-2.05,0.85-2.97c0.58-1.09,1.52-1.95,2.19-2.99c0.68-1.04,1.06-2.43,0.43-3.49c-0.36-0.59-1.02-1.1-0.95-1.78
			c0.03-0.28,0.18-0.53,0.32-0.76c0.96-1.55,1.92-2.86,2.21-4.69c1.24-7.58,2.48-15.15,3.72-22.73c0.25-1.51,0.49-3.04,0.35-4.56
			s-0.74-3.06-1.92-4.04c-2.08-1.73-5.34-1.42-7.88-1.59c-1.58-0.1-3.05-0.15-4.56-0.6c-1.54-0.47-3.46-0.19-5.06-0.15
			c-8.92,0.25-17.84,0.31-26.77,0.15c-4.53-0.08-9.29-0.89-13.78-0.46c-4.95,0.48-9.81-0.13-14.77,0.07
			c-2.73,0.11-5.43,0.57-8.12,1.03c-4.36,0.75-8.62,1.66-12.94,2.53c-1.5,0.3-3.01,0.61-4.5,0.97c-2.82,0.69-5.58,1.61-8.29,2.66
			c-1.31,0.5-2.61,1.19-3.95,1.55c-1.31,0.35-2.62,0.57-3.88,1.17c-0.82,0.39-1.55,0.89-2.32,1.37c-0.72,0.45-0.98,0.97-1.22,1.81
			c-0.73,2.56-1.03,5.25-0.88,7.92c0.04,0.74,0.12,1.47,0.12,2.21c0.01,1.93-0.46,3.83-0.53,5.76c-0.06,1.51,0.14,3.02-0.05,4.52
			C331.55,409.23,331.57,410.37,331.96,411.89z"/>
	</g>
	
		<linearGradient id="SVGID_1_" gradientUnits="userSpaceOnUse" x1="345.3919" y1="374.1147" x2="336.7831" y2="402.2105" gradientTransform="matrix(1 0 0 -1 0 799.8898)">
		<stop  offset="0" style="stop-color:#2580C1"/>
		<stop  offset="0" style="stop-color:#000000;stop-opacity:0"/>
		<stop  offset="0" style="stop-color:#000000"/>
		<stop  offset="1" style="stop-color:#3A3D3F;stop-opacity:0"/>
	</linearGradient>
	<path class="st2" d="M348.22,404.95c0.05-0.66,0.25-1.2,0.54-1.79c0.39-0.79,0.48-2.91-0.23-3.54c-0.5-0.45-1.25-0.45-1.93-0.41
		c-5.11,0.32-10.34,2.11-13.74,5.93c-0.9,1.01-1.69,2.23-1.75,3.58c-0.03,0.83,0.21,1.64,0.44,2.43c0.62,2.06,0.91,3.81,0.9,5.97
		c0,0.8-0.04,1.61-0.1,2.41c-0.05,0.63-0.05,1.19,0.79,1.14c1.95-0.11,3.84-0.8,5.52-1.79c1.68-0.99,3.17-2.28,4.54-3.67
		c0.44-0.45,0.87-0.9,1.26-1.39c0.48-0.6,0.89-1.26,1.31-1.91c1.15-1.82,2.33-3.74,2.42-5.89
		C348.21,405.67,348.19,405.31,348.22,404.95z"/>
	
		<linearGradient id="SVGID_00000009577001589284501250000010752902879214912176_" gradientUnits="userSpaceOnUse" x1="449.9045" y1="383.8611" x2="457.5788" y2="401.3393" gradientTransform="matrix(1 0 0 -1 0 799.8898)">
		<stop  offset="0" style="stop-color:#2580C1"/>
		<stop  offset="0" style="stop-color:#000000;stop-opacity:0"/>
		<stop  offset="0" style="stop-color:#000000"/>
		<stop  offset="1" style="stop-color:#3A3D3F;stop-opacity:0"/>
	</linearGradient>
	<path style="fill:url(#SVGID_00000009577001589284501250000010752902879214912176_);" d="M461.98,419.3
		c5.64,1.23,11.56,1.59,16.8-0.51c0.33-0.13,0.68-0.3,0.86-0.6c0.17-0.3,0.15-0.66,0.12-1c-0.1-1.12-0.23-2.24-0.38-3.36
		c-0.3-2.23-0.73-4.53-2.06-6.34c-1.42-1.93-3.67-3.06-5.89-4c-3.11-1.31-6.3-2.39-9.51-3.44c-8.09-2.64-16.25-5.08-24.54-6.99
		c-2.15-0.5-4.33-0.96-6.54-1.02c-0.52-0.01-1.17,0.08-1.34,0.57c-0.1,0.29,0.01,0.6,0.13,0.88c1.22,2.95,2.8,5.75,4.69,8.33
		c2.35,3.22,5.3,6.1,8.46,8.52c3.5,2.69,7.13,5.36,11.32,6.75C456.59,417.9,459.25,418.7,461.98,419.3z"/>
	<g>
		<path class="st4" d="M371.72,669.18C371.72,669.18,371.71,669.19,371.72,669.18C371.69,669.22,371.67,669.24,371.72,669.18z"/>
		<path class="st4" d="M378.16,667.26c-1-0.19-1.97-0.48-2.99-0.58c-0.91-0.09-1.83-0.08-2.74,0.03c-0.46,0.05-0.93,0.14-1.38,0.24
			c0.55-1.84,0.18-4.17-0.2-5.98c-0.44-2.07-1.16-4.12-2.01-6.06c-1.37-3.15-2.69-6.22-3.67-9.46c-0.06-1.54-0.33-3.07-0.42-4.61
			c-0.1-1.72-0.11-3.45-0.14-5.18c-0.02-0.85-0.15-1.9,0.1-2.72c0.2-0.68,0.75-1.22,1.05-1.86c0.62-1.33,0.42-2.76,0.05-4.12
			c-0.84-3.04-0.97-6.17-1.66-9.24c-0.35-1.56-0.73-3.12-1.26-4.63c-0.3-0.86-0.69-1.65-1.09-2.44c-0.01-0.04-0.02-0.09-0.03-0.14
			c-0.57-2.75-1.56-5.46-1.69-8.29c-0.26-5.79,2.89-10.98,3.05-16.7c0.25-8.61-3.97-16.41-6.9-24.4c-0.31-2.69-0.73-5.39-1.34-8.03
			c1.08-1.57,0.39-4.27,0.27-5.97c-0.2-2.9-0.45-5.79-0.58-8.69c-0.26-5.91-0.77-11.8-1.21-17.71c-0.28-3.69-0.57-7.38-1.09-11.04
			c0.18-0.63,0.46-1.24,0.76-1.79c0.28-0.51,0.6-1.01,0.93-1.49c0.33-0.49,0.58-0.97,0.44-1.59c-0.13-0.57-0.55-1.01-0.89-1.45
			c-0.4-0.52-0.84-1-1.26-1.5c-0.82-0.96-1.65-1.92-2.47-2.88c-0.25-0.8-0.5-1.59-0.74-2.4c-0.65-2.21-1.07-4.67-1.97-6.85
			c-0.03-1.41,0.14-2.85,0.15-4.2c0.02-2.3-0.7-4.57-1.33-6.76c-0.62-2.16-1.33-4.3-2.3-6.33c-1.02-2.16-2.12-4.18-2.55-6.56
			c-1.27-7.04-2.7-14.04-4.22-21.02c0.14-0.23,0.19-0.51,0.11-0.82c-0.22-0.87-0.45-1.73-0.68-2.6c-0.02-1.34,0.2-2.77-0.23-4.01
			c-0.83-2.38-1.96-4.62-2.67-7.06c-0.04-0.13-0.26-0.11-0.25,0.03c0.06,1.23,0.17,2.44,0.38,3.65c0.08,0.48,0.2,0.96,0.33,1.43
			c-0.55,0.08-1.07,0.54-0.91,1.25c0.43,1.94,0.9,3.88,1.36,5.82c0.01,0.66,0.14,1.31,0.46,1.96c0.6,2.5,1.2,5,1.77,7.5
			c0.57,2.5,1.16,4.99,1.69,7.49c0.52,2.46,0.75,4.96,1.24,7.42c0.42,2.14,1.45,3.97,2.45,5.88c1.21,2.33,2.03,4.78,2.72,7.3
			c0.7,2.55,1.51,4.93,1.19,7.59c-0.25,2.08-0.4,3.97,0.53,5.9c0.16,0.32,0.42,0.43,0.69,0.39c0.17,0.67,0.33,1.33,0.47,1.98
			c0.22,1.01,0.41,2.03,0.59,3.05c-0.3,0.34-0.44,0.82-0.14,1.28c0.17,0.25,0.34,0.51,0.5,0.77c0.17,0.94,0.34,1.89,0.55,2.82
			c1.15,5.14,1.99,10.27,2.51,15.52c0.54,5.45,0.79,10.92,1.34,16.37c0.27,2.67,0.47,5.34,0.65,8.02c0.09,1.34,0.17,2.67,0.26,4.01
			c0.04,0.69,0.72,4.03-0.03,4.49c-0.21,0.13-0.4,0.39-0.37,0.65c0.28,2.67,0.75,5.35,1.34,7.99c0.55,3.17,1.49,6.26,2.55,9.37
			c1.64,4.85,3.16,9.78,3.08,14.95c-0.04,2.7-0.39,5.55-0.99,8.18c-0.57,2.5-1.09,5.04-1.09,7.61c0,2.64,0.73,5.14,1.48,7.64
			c0.37,1.24,0.71,2.47,0.92,3.74c0.15,0.14,0.28,0.31,0.34,0.51c0.34,1.17,0.67,2.35,0.96,3.55c0.15-0.45,0.24-0.91,0.28-1.38
			c0.19,1.26,0.34,2.51,0.4,3.71c0.14,3.05-0.17,5.85,0.65,8.83c0.22,0.81,0.49,1.64,0.32,2.49c-0.12,0.59-0.49,1.12-0.65,1.71
			c-0.39,1.42-0.25,3-0.2,4.45c0.12,2.86,0.37,6.11,1.18,8.93c0.06,3.12,1.27,6.17,2.32,9.11c0.7,1.97,1.49,3.92,2.01,5.95
			c0.27,1.05,0.49,2.12,0.6,3.19c0.12,1.19-0.08,2.36,0,3.54c0.02,0.28,0.12,0.49,0.26,0.66c-0.36,0.21-0.7,0.46-1,0.76
			c-0.61,0.61-0.91,1.41-1.35,2.13c-0.45,0.74-1.05,1.3-1.2,2.19c-0.16,0.94,0.12,1.84,0.5,2.68c0.38,0.83,0.82,1.82,1.67,2.24
			c0.49,0.24,1.15-0.04,1.13-0.65c-0.02-0.69-0.33-1.24-0.62-1.83c0-0.43,0.14-0.85,0.37-1.23c0.34-0.56,0.89-0.84,1.41-1.32
			c0.35-0.32,0.59-0.73,0.72-1.18c0.1-0.36,0.11-0.74,0.23-1.1c0.03-0.08,0.06-0.17,0.09-0.25c0.01-0.02,0.02-0.04,0.03-0.05
			c0.04-0.08,0.09-0.16,0.14-0.24c0.02-0.03,0.08-0.12,0.08-0.13c0.14-0.18,0.3-0.34,0.44-0.52c0.04-0.06,0.13-0.17,0.13-0.17
			c0.03-0.04,0.05-0.09,0.07-0.14c0.38-0.09,0.76-0.16,1.12-0.22c0.78-0.12,1.57-0.25,2.35-0.4c0.91-0.18,1.78-0.44,2.71-0.52
			C378.35,667.71,378.45,667.32,378.16,667.26z"/>
	</g>
	<path class="st4" d="M346.27,412.39c-1.39,1.4-2.67,2.92-4.16,4.21c-1.45,1.25-3.3,2.59-5.15,3.18c-0.92,0.29-1.83,0.65-2.76,0.91
		c-0.89,0.24-1.87,0.34-2.7,0.76c-0.96,0.49-1.42,1.44-1.32,2.49c0.09,0.92,0.13,2.33,0.92,2.91c0.21,0.15,0.57,0.09,0.74-0.1
		c0.68-0.73,0.28-1.9,0.34-2.81c0.06-0.81,1.1-0.9,1.75-1.11c1.85-0.59,3.51-1.46,5.15-2.47c3-1.85,6.15-4.45,7.46-7.8
		C346.62,412.4,346.38,412.28,346.27,412.39z"/>
	<path class="st4" d="M383.09,374.58c-2.87,0.11-5.78,0.81-8.63,1.21c-2.75,0.38-5.45,0.59-8.22,0.58
		c-5.5-0.01-10.74,1.65-15.92,3.38c-2.48,0.82-4.94,1.67-7.35,2.68c-1.34,0.56-2.65,1.28-4.03,1.75c-1.2,0.41-2.56,0.41-3.71,0.97
		c-0.76,0.37-1.44,0.93-1.77,1.72c-0.25,0.57-0.15,0.99-0.19,1.58c-0.06,0.82-0.27,0.92-0.67,1.51c-0.74,1.08-0.89,2.36-0.14,3.22
		c-0.74,3.71-1.28,7.48-1.4,11.26c-0.11,3.6,0.09,7.62,1.73,10.89c0.06,0.13,0.25,0.06,0.26-0.07c0.06-3.61-0.53-7.2-0.32-10.83
		c0.22-3.87,1.25-7.62,2.05-11.4c0.09-0.44-0.05-1.07-0.52-1.27c-0.09-0.04,1.12-1.86,1.19-2.05c0.15-0.43,0.15-0.88,0.2-1.29
		c0.25-0.06,0.5-0.13,0.72-0.21c0.69-0.24,1.38-0.53,2.03-0.87c0.79-0.4,1.53-0.9,2.26-1.42c0.59-0.25,1.18-0.52,1.76-0.79
		c4.37-1.97,9-3.4,13.55-4.87c4.5-1.45,8.92-2.07,13.61-2.46c2.07-0.17,4.12-0.55,6.15-0.98c2.46-0.52,5.08-0.8,7.47-1.55
		C383.56,375.16,383.51,374.56,383.09,374.58z"/>
	<g>
		<path class="st4" d="M371.63,383.74c0.03-0.02,0.04-0.02,0.04-0.03C371.66,383.72,371.64,383.73,371.63,383.74L371.63,383.74z"/>
		<path class="st4" d="M372.33,383.34h-0.01C372.29,383.36,372.28,383.37,372.33,383.34z"/>
		<path class="st4" d="M383.13,378.95c-3.83,0.46-7.68,0.81-11.52,1.23c-1.24,0.14-3.11-0.01-3.71,1.35
			c-0.58,1.34,0.47,3.27,0.77,4.61c0.41,1.77,0.5,3.52,0.7,5.32c0.17,1.6,1.07,2.97,1.49,4.51c0.99,3.68,1.16,7.54,2.28,11.17
			c0.02,0.07,0.12,0.06,0.12-0.02c0.12-3.29-0.38-6.64-0.7-9.93c-0.14-1.48-0.47-2.88-0.75-4.33c-0.28-1.42-0.27-2.87-0.47-4.31
			c-0.17-1.22-0.43-2.43-0.72-3.63c0.06-0.11,0.13-0.22,0.2-0.33c0.03-0.04,0.06-0.09,0.09-0.13c-0.11,0.16,0.05-0.06,0.08-0.1l0,0
			c0.03-0.03,0.06-0.07,0.08-0.1c0.12-0.13,0.24-0.26,0.37-0.38c0.06-0.05,0.11-0.1,0.17-0.15c-0.01,0-0.01,0.01-0.02,0.01
			c0.01,0,0.01-0.01,0.02-0.02c0.01,0,0.01-0.01,0.02-0.01c0.03-0.03,0.03-0.02,0.02-0.01c0.02-0.02,0.05-0.03,0.07-0.05
			c0.15-0.1,0.3-0.19,0.46-0.27c0.04-0.02,0.08-0.04,0.13-0.06l0,0l0,0c0.01,0,0.01,0,0.02,0c0,0-0.01,0-0.01,0.01
			c0.03,0,0.06,0.02,0.09,0.02c-0.01-0.01-0.01-0.02-0.02-0.03c0.11,0,0.21,0.01,0.33-0.01c0.35-0.08,0.63-0.36,0.76-0.68
			c0.12-0.28,0.11-0.55,0.02-0.83c3.24-0.73,6.46-1.51,9.7-2.2C383.58,379.54,383.51,378.91,383.13,378.95z"/>
	</g>
	<path class="st4" d="M477.21,419.22c-0.93,0.28-1.77,0.76-2.72,0.93c-0.97,0.18-1.91,0.03-2.88-0.03
		c-1.92-0.12-3.75,0.52-5.66,0.23c-3.92-0.6-7.82-1.64-11.62-2.74c-1.7-0.49-3.41-0.93-4.99-1.77c-1.6-0.85-3.01-2-4.49-3.02
		c-0.15-0.11-0.37,0.11-0.26,0.26c1.65,2.26,4.2,3.66,6.58,5.05c2.94,1.71,6.14,2.56,9.46,3.25c1.63,0.34,3.28,0.65,4.92,0.9
		c1.55,0.23,2.84-0.02,4.37-0.18c1.67-0.17,3.33,0.35,5,0.02c0.8-0.16,1.54-0.51,2.31-0.78c0.38-0.13,0.77-0.29,1.18-0.31
		c0.52-0.02,1.7,0.38,1.58,1.06c-0.21,1.2,1.41,1.66,1.83,0.5C482.9,419.68,479.4,418.57,477.21,419.22z"/>
	<path class="st4" d="M479.24,425.69c-2.28,0.43-4.44,1.06-6.78,1.14c-2.19,0.07-4.38-0.13-6.54-0.5c-2.11-0.36-4.19-0.86-6.27-1.36
		c-2.23-0.53-4.43-0.71-6.51-1.76c-0.12-0.06-0.22,0.11-0.11,0.18c1.74,1.18,3.84,1.95,5.83,2.57c2.42,0.75,4.94,1.33,7.44,1.73
		c4.09,0.65,9.56,1.02,13.21-1.35C479.87,426.12,479.64,425.62,479.24,425.69z"/>
	<path class="st4" d="M352.73,411.54c-0.28,0.94-0.81,1.77-1.27,2.63c-0.39,0.73-0.79,1.45-1.25,2.14c-1.02,1.5-2.28,2.87-3.61,4.09
		c-2.76,2.54-5.98,4.39-9.26,6.18c-0.26,0.14-0.08,0.57,0.2,0.48c3.74-1.1,7.3-3.07,10.11-5.79c1.36-1.32,2.49-2.81,3.41-4.47
		c0.42-0.75,0.82-1.54,1.1-2.34c0.33-0.95,0.41-1.94,0.61-2.91C352.78,411.52,352.74,411.51,352.73,411.54z"/>
	<path class="st4" d="M370.45,429.21c-1.04-0.9-2.73-1.08-4.03-1.39c-1.6-0.39-3.22-0.71-4.85-0.98c-3.12-0.5-6.33-0.95-9.47-0.59
		c-0.18,0.02-0.27,0.31-0.05,0.35c3.07,0.52,6.18,0.67,9.25,1.21c1.51,0.27,3.02,0.59,4.51,0.95c0.77,0.19,1.54,0.39,2.31,0.61
		c0.72,0.21,1.34,0.47,2.11,0.38C370.47,429.74,370.69,429.41,370.45,429.21z"/>
	<path class="st4" d="M385.19,435.51c-0.51-0.16-1.08-0.11-1.61-0.12c-0.49-0.01-0.98-0.04-1.47-0.08c-1.06-0.1-2.12-0.28-3.18-0.4
		c-1.06-0.11-2.13-0.23-3.2-0.25c-1.07-0.03-2.13,0.02-3.2-0.02c-0.09,0-0.12,0.14-0.02,0.17c1.12,0.27,2.21,0.64,3.33,0.9
		c1.04,0.24,2.1,0.43,3.16,0.59c1.03,0.15,2.07,0.29,3.11,0.38c1.01,0.09,2.27,0.27,3.2-0.19
		C385.74,436.26,385.6,435.64,385.19,435.51z"/>
	<path class="st4" d="M425.86,513.75c-3.68-9.15-6.3-18.64-9.5-27.96c-1.58-4.6-3.18-9.19-5.14-13.65
		c-0.93-2.11-1.88-4.21-2.89-6.28c-1.12-2.29-2.63-4.27-3.9-6.46c-0.03-0.06-0.12-0.01-0.09,0.05c1.17,2.29,1.87,4.86,2.8,7.25
		c0.88,2.25,1.66,4.53,2.39,6.82c1.49,4.65,3.14,9.24,4.71,13.87c1.57,4.64,3.11,9.29,4.68,13.94c1.5,4.43,3.11,8.98,5.57,12.99
		C424.91,515.01,426.18,514.56,425.86,513.75z"/>
	<path class="st4" d="M531.57,639.23c-0.13-0.54-0.44-0.97-0.58-1.51c-0.15-0.57-0.02-1.13-0.04-1.7c-0.07-1.82-1.42-3.54-2.14-5.17
		c-1.71-3.86-2.93-7.9-4.13-11.93c-1.18-3.96-2.71-7.43-4.83-10.96c-0.04-0.06-0.12-0.01-0.09,0.05c1.66,3.22,2.61,6.91,3.64,10.38
		c1,3.38,1.72,6.84,2.77,10.2c0.47,1.52,1.01,3.02,1.63,4.49c0.41,0.98,0.99,1.9,1.02,2.96c0.02,0.77-0.14,1.5,0.06,2.27
		c0.3,1.15,0.7,1.83,0.34,3.06c-0.23,0.79-0.6,1.58-0.96,2.31c-0.74,1.51-1.65,2.68-3.2,3.42c-0.99,0.47-0.23,1.78,0.69,1.64
		c3.19-0.5,5.07-4.49,5.76-7.31C531.68,640.7,531.74,639.94,531.57,639.23z"/>
	<path class="st4" d="M534.24,665.76c-0.59-2.16-1.53-4.2-2.39-6.26c-0.41-0.97-0.81-1.93-1.24-2.89c-0.56-1.25-1.4-2.42-1.88-3.68
		c-0.03-0.07-0.15-0.04-0.12,0.03c0.35,1.01,0.38,2.11,0.67,3.15c0.29,1.03,0.59,2.06,0.91,3.08c0.57,1.84,1.15,3.67,1.65,5.52
		c0.79,2.87,1.59,6.67-0.49,9.23c-0.85,1.04-1.96,1.27-3.17,1.27c-0.14-0.43-0.27-0.86-0.36-1.3c-0.18-0.9-0.33-1.8-0.54-2.69
		c-0.43-1.79-1.09-3.45-1.79-5.14c-0.65-1.58-1.4-3.11-2.32-4.55c-0.44-0.69-0.9-1.39-1.42-2.02c-0.61-0.72-1.42-1.21-2.16-1.79
		c-0.05-0.04-0.14,0.01-0.1,0.08c0.5,0.72,0.83,1.51,1.33,2.23c0.47,0.68,0.97,1.34,1.42,2.04c0.96,1.51,1.87,3.17,2.41,4.88
		c0.52,1.64,0.84,3.4,0.97,5.11c0.07,0.92,0.07,2.01,0.2,3.04c-1.64-0.07-3.28-0.05-4.92,0.11c-3.96,0.38-7.81,1.21-11.64,2.28
		c-0.17,0.05-0.29,0.15-0.36,0.29c-1.19,0.34-2.35,0.78-3.45,1.25c-1.23,0.52-2.47,0.63-3.78,0.81c-1.51,0.21-3.03,0.42-4.54,0.6
		c-0.12,0.01-0.13,0.18,0,0.19c1.46,0.06,2.92,0.15,4.38,0.24c1.32,0.09,2.65,0.19,3.95-0.09c1.35-0.29,2.65-0.8,3.98-1.15
		c1.38-0.36,2.77-0.63,4.12-1.09c0.19-0.06,0.32-0.18,0.41-0.33c2.94-0.35,5.89-0.67,8.86-0.73c1.27-0.02,2.61,0.1,3.93,0.12
		c0.47,0.45,1.11,0.37,1.49-0.03c1.91-0.13,3.68-0.66,4.97-2.4C535.23,672.47,535.08,668.85,534.24,665.76z"/>
	<path class="st4" d="M516.96,668.66c-0.96-0.41-1.92-0.23-2.95-0.16c-1.16,0.08-2.33,0.17-3.49,0.32c-2.09,0.26-4.14,0.7-6.13,1.41
		c-4.23,1.5-8.41,3.27-12.49,5.13c-0.22,0.1-0.06,0.44,0.16,0.39c4.24-1.07,8.4-2.45,12.6-3.68c2.07-0.61,4.18-1.01,6.33-1.28
		c1.08-0.14,2.17-0.24,3.26-0.33c0.93-0.08,1.89,0,2.72-0.48C517.41,669.7,517.51,668.89,516.96,668.66z"/>
	<path class="st4" d="M511.62,568.29c-1.6-5.12-3.53-10.1-5.52-15.07c-1.96-4.9-2.91-9.98-3.63-15.18
		c-0.35-2.55-0.69-5.11-1.18-7.64c-0.42-2.21-0.82-4.76-2.18-6.64c-0.28-0.39-0.71-0.7-0.98-1.09c-0.41-0.6-0.37-1.18-0.39-1.89
		c-0.04-1.27-0.21-2.54-0.46-3.79c-0.56-2.84-1.74-5.25-3.13-7.77c-0.11-0.2-0.48-0.06-0.39,0.16c0.99,2.36,1.47,5.01,1.71,7.55
		c0.11,1.18,0.12,2.36,0.09,3.54c-0.02,0.96-0.24,2.04,0.12,2.97c0.31,0.79,1.02,1.31,1.41,2.05c0.56,1.06,0.72,2.39,0.99,3.54
		c0.59,2.51,0.99,5.05,1.39,7.59c0.81,5.16,1.51,10.39,3.33,15.32c1.81,4.89,4.01,9.62,5.67,14.57c0.95,2.82,1.78,5.67,2.63,8.52
		c0.87,2.94,1.49,5.99,2.52,8.87c0.27,0.77,1.58,0.72,1.52-0.2C514.79,578.51,513.17,573.22,511.62,568.29z"/>
	<path class="st4" d="M488.85,479.66c-1.2-5.16-2.54-10.29-3.54-15.5c-2.05-10.64-2.54-21.52-3.31-32.3c-0.01-0.14-0.2-0.13-0.21,0
		c-1.02,10.82-0.86,21.58,1.15,32.28c0.98,5.2,2.22,10.35,3.54,15.48c0.67,2.6,1.4,5.18,2.05,7.78c0.67,2.68,1.34,5.26,2.56,7.75
		c0.18,0.37,0.78,0.19,0.77-0.21C491.73,489.8,490.02,484.65,488.85,479.66z"/>
	<path class="st4" d="M469.91,379.65c-5.57-2.1-11.3-3.72-17.26-4.17c-6.2-0.46-12.43-0.09-18.64-0.52
		c-6.45-0.45-12.87-0.87-19.34-0.96c-0.26,0-0.33,0.41-0.06,0.46c5.39,0.95,10.83,1.83,16.28,2.38c5.64,0.57,11.26,0.64,16.91,0.89
		c5.62,0.25,11.06,1.03,16.43,2.74c2.55,0.81,5.07,1.76,7.55,2.76c2.35,0.95,5.21,2.33,4.94,5.32c-0.08,0.88,1.29,1.23,1.67,0.45
		C481.13,383.56,473.63,381.06,469.91,379.65z"/>
	<path class="st4" d="M462.23,448.79c-6.9-1.16-13.54-3.73-19.97-6.41c-0.18-0.07-0.31,0.23-0.13,0.31
		c6.45,2.87,12.82,5.84,19.85,6.99C462.57,449.78,462.83,448.89,462.23,448.79z"/>
	<path class="st4" d="M465.1,454.39c-4.19-0.71-8.37-1.67-12.33-3.24c-0.1-0.04-0.17,0.13-0.07,0.17c3.88,1.92,8,3.26,12.33,3.59
		C465.32,454.93,465.39,454.44,465.1,454.39z"/>
	<path class="st4" d="M418.1,670.81c-0.09-1.63-0.42-3.36-1.14-4.83c-0.78-1.6-2.09-2.5-3.34-3.7c-0.07-0.07-0.17,0.04-0.1,0.1
		c1.03,1.06,2,2.41,2.73,3.7c0.99,1.76,0.64,3.41,0.31,5.29c-0.29,1.65-0.57,3.3-1.02,4.91c-0.11,0.4-0.21,0.82-0.38,1.2
		c-0.05,0.11-0.16,0.27-0.2,0.37c0,0.01-0.03,0.04-0.07,0.07c-0.11,0.03-0.28,0.1-0.33,0.12c-0.2,0.08-0.35,0.2-0.48,0.37
		c-0.16,0.2-0.29,0.46-0.26,0.73c0.06,0.6,0.5,1.27,1.21,1.2c1.94-0.18,2.35-2.2,2.64-3.8C418.01,674.69,418.2,672.69,418.1,670.81z
		"/>
	<g>
		<g>
			<g>
				<path d="M331.85,422.11c7.75-1.14,14.97-6.44,16.82-14.32c0.61-2.6,1-5.26,1.18-7.92c0.09-1.28-1.91-1.28-2,0
					c-0.28,4.21-0.91,8.53-3.15,12.18c-1.8,2.93-4.59,5.11-7.7,6.51c-1.8,0.81-3.73,1.33-5.68,1.62c-0.53,0.08-0.83,0.76-0.7,1.23
					C330.78,421.98,331.31,422.18,331.85,422.11L331.85,422.11z"/>
			</g>
		</g>
		<g>
			<g>
				<path d="M427.79,392.53c3.19,7.24,7.95,13.92,14.13,18.9c3.18,2.56,6.68,4.67,10.49,6.15c4.34,1.69,8.95,2.48,13.53,3.16
					c2.51,0.37,5.18,1.01,7.73,0.66c2.29-0.32,4.38-1.4,6.55-2.11c1.22-0.4,0.7-2.33-0.53-1.93c-1.88,0.62-3.69,1.5-5.63,1.94
					c-2.07,0.48-4.28-0.01-6.35-0.31c-4.44-0.65-8.91-1.33-13.17-2.77c-7.39-2.49-13.7-7.52-18.47-13.63
					c-2.65-3.39-4.82-7.15-6.55-11.08c-0.22-0.49-0.94-0.61-1.37-0.36C427.64,391.46,427.58,392.03,427.79,392.53L427.79,392.53z"/>
			</g>
		</g>
		<g>
			<g>
				<path d="M387.81,438.2c1.06,0,3.33-0.71,4.23-0.05c0.43,0.31,0.33,0.81,0.49,1.24c0.15,0.41,0.43,0.73,0.78,0.98
					c0.36,0.25,0.79,0.33,1.17,0.53c0.62,0.33,0.89,0.68,1.21,1.34c0.67,1.38,1.22,2.84,1.87,4.24c2.65,5.75,4.94,11.64,7.1,17.59
					c4.21,11.6,7.75,23.44,12.22,34.95c4.1,10.55,9.64,20.42,14.28,30.73c2.32,5.16,4.37,10.45,5.76,15.94
					c1.48,5.84,1.87,11.82,3.87,17.53c2.03,5.82,4.58,11.46,6.8,17.21c2.27,5.86,4.45,11.74,6.56,17.66
					c4.28,11.99,8.59,23.95,12.99,35.89c2.11,5.72,4.16,11.34,5.11,17.38c0.94,5.94,1.15,11.98,1.4,17.98
					c0.13,2.99,0.23,5.99,0.49,8.97c0.17,2.05,0.62,4.19,2.48,5.38c1.73,1.11,3.97,1.05,5.9,0.61c3.04-0.69,5.95-1.48,9.07-1.81
					c5.94-0.64,11.95-0.61,17.83-1.79c2.81-0.57,5.54-1.49,8.35-2.06c3.05-0.62,5.9-0.36,8.96-0.1c2.19,0.18,5.2,0.39,7.02-1.11
					c1.41-1.15,1.81-3.1,1.84-4.83c0.04-2.55-0.66-5.19-1.28-7.64c-0.72-2.83-1.64-5.6-2.75-8.3c-1.07-2.58-3.01-5.77-2.09-8.66
					c0.39-1.22,1.28-2.23,1.79-3.4c0.52-1.2,0.81-2.47,0.92-3.78c0.48-5.52-2.03-11.1-3.92-16.16
					c-4.29-11.51-9.15-22.89-11.39-35.04c-1.1-5.94-1.8-11.95-3.03-17.87c-1.25-6.01-3.4-11.6-5.7-17.28
					c-1.1-2.71-2.23-5.44-2.97-8.27c-0.79-2.99-1.16-6.07-1.57-9.13c-0.38-2.86-0.79-5.75-1.63-8.52c-0.79-2.64-2.11-5.08-2.97-7.69
					c-0.86-2.61-0.92-5.35-1.88-7.95c-0.94-2.54-2.14-4.96-2.69-7.63c-0.62-3.01-0.72-6.13-1.15-9.17c-0.43-3.03-1-6.03-1.63-9.02
					c-1.31-6.18-2.88-12.31-4.06-18.52c-1.2-6.36-1.97-12.78-2.6-19.22c-0.3-3.11-0.59-6.23-0.85-9.35
					c-0.24-2.86-0.24-5.75-0.71-8.59c-0.22-1.31-0.7-2.53-1.01-3.81c-0.21-0.86-0.31-1.63-0.08-2.49c0.15-0.59,0.44-1.1,0.52-1.72
					c0.16-1.27-0.19-2.54-0.63-3.71c-0.14-0.37-0.26-0.77-0.5-1.08c-0.22-0.28-0.72-0.53-0.83-0.75c-0.21-0.45-0.1-1.72-0.14-2.22
					c-0.06-0.71-0.11-1.41-0.17-2.12c-0.14-1.62-0.45-3.24-0.46-4.87c-0.03-2.91,0.84-5.77,1.27-8.62c0.42-2.8-0.54-5.37-0.99-8.11
					c-0.25-1.51-0.44-3.04-0.64-4.56c-0.16-1.2-0.17-2.63-0.81-3.7c-0.49-0.82-1.34-1.32-2.14-1.79c-1.31-0.77-2.62-1.54-3.96-2.25
					c-2.58-1.37-5.26-2.5-8.12-3.15c-5.86-1.34-12.06-1.56-18.04-1.99c-12.77-0.92-25.57-1.24-38.37-1.14
					c-6.3,0.05-12.6,0.19-18.89,0.41c-1.28,0.04-1.29,2.05,0,2c12.59-0.44,25.19-0.58,37.78-0.23c6.29,0.18,12.58,0.47,18.86,0.91
					c6.08,0.43,12.44,0.6,18.39,2.02c2.97,0.71,5.71,1.96,8.37,3.43c1.19,0.66,2.44,1.3,3.56,2.06c1.37,0.93,1.25,2.61,1.46,4.12
					c0.39,2.93,0.85,5.81,1.5,8.69c0.62,2.74-0.52,5.8-0.93,8.53c-0.44,2.92-0.07,5.61,0.18,8.52c0.13,1.49,0.11,3.07,0.35,4.54
					c0.17,1.04,0.66,0.94,1.25,1.61c0.92,1.05,0.67,3.11,0.35,4.25c-0.34,1.18-0.41,2.2-0.17,3.42c0.25,1.29,0.77,2.5,1.03,3.79
					c0.31,1.55,0.4,3.14,0.49,4.71c0.73,12.2,1.95,24.5,4.47,36.47c1.26,5.99,2.78,11.93,3.95,17.94c0.58,3.01,1.08,6.04,1.4,9.08
					c0.3,2.9,0.5,5.81,1.43,8.59c0.81,2.42,2.01,4.71,2.68,7.18c0.34,1.25,0.42,2.54,0.66,3.81c0.26,1.34,0.7,2.63,1.2,3.9
					c1.01,2.54,2.15,5,2.79,7.67c0.69,2.86,1.03,5.79,1.43,8.71c0.39,2.92,0.84,5.85,1.72,8.67c0.87,2.79,2.01,5.5,3.11,8.2
					c2.25,5.5,4.17,10.97,5.33,16.81c1.16,5.83,1.86,11.74,2.97,17.58c1.12,5.9,2.85,11.63,4.85,17.29
					c2.03,5.77,4.3,11.45,6.44,17.18c1.89,5.06,4.76,11.07,3.7,16.6c-0.48,2.52-2.48,4.38-2.74,6.94c-0.27,2.6,0.88,5.08,1.89,7.41
					c1.2,2.77,2.21,5.61,2.99,8.53c0.68,2.53,1.47,5.29,1.42,7.93c-0.02,0.95-0.13,2.09-0.72,2.88c-0.86,1.13-2.65,1.15-3.95,1.16
					c-2.82,0.03-5.6-0.63-8.43-0.4c-2.76,0.22-5.42,0.98-8.09,1.69c-2.97,0.79-5.95,1.34-9.01,1.64
					c-5.74,0.57-11.54,0.57-17.21,1.74c-2.42,0.5-5.25,1.91-7.75,1.06c-2.73-0.93-2.37-4.78-2.5-7.09
					c-0.67-11.44-0.36-23.22-4.12-34.21c-4.02-11.76-8.72-23.29-12.77-35.04c-4.03-11.68-8.3-23.29-12.95-34.74
					c-2.26-5.56-4.57-11.03-5.54-16.99c-0.92-5.64-2.04-11.09-3.97-16.48c-3.68-10.28-9.06-19.81-13.66-29.68
					c-5.08-10.89-8.62-22.37-12.51-33.72c-1.98-5.78-4.01-11.54-6.21-17.24c-1.03-2.66-2.1-5.29-3.23-7.91
					c-1.18-2.74-2.28-5.62-3.66-8.26c-0.42-0.81-0.89-1.41-1.72-1.8c-0.64-0.29-0.94-0.21-1.2-0.96c-0.13-0.37-0.11-0.7-0.33-1.04
					c-1.26-1.93-4.4-1-6.24-1C386.52,436.2,386.52,438.2,387.81,438.2L387.81,438.2z"/>
			</g>
		</g>
		<g>
			<g>
				<path d="M417,499.74c0.75,2.51,0.33,5.01-0.06,7.55c-0.37,2.36-0.51,4.71-0.51,7.1c0,5.14,0.48,10.27,0.97,15.38
					c0.99,10.31,1.92,20.76,1.24,31.11c-0.34,5.07-0.95,10.09-0.49,15.17c0.45,5.04,1.6,9.99,2.12,15.03
					c1.05,10.25,0.98,20.58,1.55,30.85c0.27,4.88,0.71,9.76,1.57,14.57c0.87,4.88,2.59,9.52,3.6,14.36
					c1.04,4.99,0.54,10.16,0.25,15.21c-0.14,2.44-0.03,5.2-0.67,7.57c-0.69,2.56-3.8,3.1-6.03,3.76
					c-9.51,2.79-19.64,2.93-29.39,1.45c-4.81-0.73-9.54-1.97-14.44-1.78c-3.23,0.13-10.21,0.62-9.89-4.45
					c0.12-1.83,1.87-3.37,2.57-5.01c0.85-1.97,1.09-4.08,0.56-6.17c-0.57-2.26-1.73-4.39-2.57-6.56c-0.87-2.24-1.64-4.53-2.13-6.88
					c-2.06-9.85-0.87-20.1-2.26-30.03c-0.34-2.44-0.73-4.89-1.32-7.28c-0.57-2.31-1.33-4.57-1.71-6.92
					c-0.39-2.44-0.09-4.91,0.23-7.34c0.31-2.42,0.57-4.85,0.79-7.29c0.47-4.99,0.14-9.63-1.19-14.47c-1.3-4.75-2.95-9.38-3.9-14.23
					c-1.92-9.8-1.94-19.84-2.72-29.76c-0.79-10.13-2.08-20.24-4.18-30.19c-0.51-2.42-1.15-4.82-1.6-7.25
					c-0.44-2.4-0.5-4.84-0.83-7.25c-0.67-4.9-2.41-9.55-4.19-14.13c-1.61-4.14-2.38-8.46-3.11-12.83
					c-0.78-4.65-1.91-9.19-3.09-13.75c-1.2-4.62-2.56-9.52-2.44-14.33c0.04-1.44,0.32-3.03-0.73-4.19
					c-0.48-0.53-0.98-0.81-1.21-1.54c-0.15-0.48-0.21-1.01-0.23-1.5c-0.06-1.08,0.43-1.44,0.98-2.25c1.68-2.52,0.74-6.17,0.27-8.91
					c-0.8-4.68-0.33-9.48,0.06-14.19c0.22-2.61,0.43-5.21,0.65-7.82c0.18-2.18,0.34-4.03,2.49-5.1c1.97-0.97,4.25-1.19,6.31-1.94
					c2.33-0.85,4.68-1.64,7.06-2.36c4.82-1.47,9.75-3.11,14.77-3.68c4.15-0.48,8.28-0.72,12.42-1.31c4.29-0.62,8.55-0.87,12.88-0.41
					c1.28,0.14,1.27-1.86,0-2c-4.43-0.48-8.79-0.18-13.19,0.45c-4.41,0.63-8.85,0.82-13.25,1.42c-5.09,0.69-10.1,2.35-14.99,3.87
					c-2.34,0.73-4.63,1.6-6.96,2.37c-2.01,0.67-4.15,0.92-6.07,1.88c-3.93,1.97-3.47,6.67-3.78,10.44
					c-0.44,5.33-1.13,10.73-0.71,16.08c0.13,1.65,0.47,3.25,0.71,4.88c0.22,1.53,0.59,3.67-0.25,5.09
					c-0.36,0.61-0.95,0.97-1.21,1.66c-0.32,0.87-0.22,1.82-0.11,2.72c0.11,0.86,0.29,1.7,0.79,2.43c0.66,0.94,1.35,1.19,1.36,2.47
					c0.03,4.66,0.64,9.06,1.75,13.6c1.16,4.77,2.56,9.47,3.41,14.3c0.79,4.47,1.34,9.05,2.85,13.35c1.67,4.78,3.73,9.38,4.61,14.41
					c0.44,2.5,0.48,5.05,0.86,7.56c0.38,2.52,1.06,4.99,1.6,7.48c1.13,5.21,2.03,10.47,2.75,15.76c1.41,10.42,1.83,20.89,2.61,31.37
					c0.37,4.97,0.92,9.93,1.95,14.81c1.08,5.11,2.97,9.99,4.18,15.06c1.25,5.27,0.78,10.35,0.26,15.68
					c-0.25,2.5-0.71,4.98-0.83,7.49c-0.12,2.36,0.29,4.65,0.88,6.93c1.28,4.97,2.35,9.9,2.81,15.03c0.46,5.25,0.36,10.55,0.68,15.82
					c0.31,4.98,0.74,9.95,2.33,14.71c0.78,2.32,1.74,4.56,2.68,6.82c1.08,2.6,1.49,5.08,0.15,7.7c-0.82,1.6-2.21,2.9-2.46,4.75
					c-0.23,1.64,0.23,3.39,1.36,4.62c2.75,3.01,7.42,2.45,11.05,2.36c5.15-0.13,10.2,1.33,15.28,2c4.91,0.65,9.87,0.9,14.82,0.6
					c4.91-0.29,9.8-1.11,14.5-2.57c1.91-0.59,4.23-1.17,5.58-2.77c1.33-1.58,1.33-3.85,1.49-5.8c0.41-5.18,0.92-10.51,0.59-15.7
					c-0.33-5.05-2.16-9.74-3.33-14.62c-2.43-10.19-2.46-20.69-2.86-31.1c-0.21-5.43-0.5-10.86-0.91-16.27
					c-0.39-5.25-1.58-10.39-2.16-15.61c-0.58-5.28-0.04-10.48,0.34-15.75c0.38-5.4,0.29-10.81,0-16.22
					c-0.57-10.57-2.29-21.15-2.16-31.74c0.03-2.58,0.37-5.05,0.73-7.6c0.32-2.27,0.43-4.48-0.23-6.7
					C418.56,497.97,416.62,498.5,417,499.74L417,499.74z"/>
			</g>
		</g>
		<path class="st5" d="M394.47,433.9c-15.41,2.98-15.92-7.79-18.8-14.05c-2.12-4.61-2.74-9.74-3.33-14.77
			c-0.95-8.07-4-16.37-4.95-24.44"/>
		<path class="st5" d="M394.47,433.9c-0.69-1.77-1.54-3.47-2.24-5.23c-2.11-5.27-2.87-10.96-3.61-16.59
			c-1.18-8.94-3.66-17.4-3.47-26.42c0.04-2.06-0.24-4.11-0.6-6.12c-0.03-0.19-0.08-0.39-0.22-0.52c-0.14-0.13-0.36-0.16-0.55-0.17
			c-1.31-0.08-2.63,0.05-3.94,0.18c-3.06,0.3-6.12,0.6-9.17,0.9c-1.12,0.11-2.26,0.23-3.27,0.7"/>
		<path class="st5" d="M366.05,672.17c0.25-1.19,1.1-2.15,2.02-2.94c2.96-2.56,6.78-2.16,7.94-2.56"/>
		<path class="st5" d="M332.32,393.55c11.19-4.23,23.88-4.76,35.07-7.05c-0.19,0.1,0.84,0.15,0.65,0.24"/>
		<path class="st5" d="M385.14,384.25c20.15-2.01,40.95,0.48,61.34,1.8c8.12,0.52,16.2,2.08,23.94,4.6c2.9,0.95,6.27,1.55,9.02,2.86
			"/>
	</g>
	<g>
		<g>
			<g>
				<path d="M464.91,521.91c3.22,3.49,6.93,6.5,11,8.94c0.28,0.17,0.53-0.27,0.25-0.43c-4.04-2.42-7.71-5.4-10.9-8.86
					C465.04,521.32,464.69,521.67,464.91,521.91L464.91,521.91z"/>
			</g>
		</g>
		<path class="st6" d="M371.7,434.13c10.07,2.59,25.24,0.46,36-1.77"/>
		<path class="st7" d="M372.35,429.47c-6.67-2.34-13.83-3.29-20.89-2.77"/>
		<path class="st7" d="M363.64,437.88c3.21,0.2,6.42,0.4,9.63,0.6"/>
		<path class="st7" d="M431.95,408.64c10.7,11.71,26.73,18.38,42.61,17.72c1.66-0.07,3.34-0.22,4.87-0.83"/>
		<path class="st7" d="M353.34,406.81c-0.09,2.31-0.77,4.56-1.74,6.65c-3.18,6.85-9.69,12.08-17.08,13.73"/>
		<path class="st7" d="M410.81,591.65c1.27-3.57,0.26-8,2.73-10.88c1.38-1.61,3.56-2.32,5.08-3.8"/>
		<path class="st7" d="M392.57,577.16c2.32,2.14,4.22,4.75,6.11,7.36"/>
		<path class="st7" d="M397.84,577.64c-2.39-3.23-5.25-6-8.48-8.22"/>
		<path class="st7" d="M437.02,541.47c0.93,2.5,1.94,5.1,3.95,6.85c0.66,0.57,1.4,1.02,2.1,1.53c1.58,1.13,2.98,2.5,4.14,4.05"/>
		<path class="st7" d="M531.02,641.94c-0.45,3.9-4.08,7.25-7.97,6.57c-3.17-0.55-6.16-2.1-8.43-4.37"/>
		<path class="st7" d="M490.99,675.75c6.25-3.38,13.06-5.74,20.08-6.94c2.41-0.41,4.91-0.69,7.29-0.13
			c-3.36,2.01-6.95,3.63-10.68,4.81"/>
		<path class="st7" d="M334.72,388.87c6.27-2.8,12.96-4.65,19.77-5.49c3.13-0.39,6.3-0.56,9.36-1.31"/>
		<path class="st7" d="M476.38,388.5c-5.65-2.51-14.9-5.88-22.52-6.98c-3.63-0.53-7.33-0.19-10.99-0.21
			c-5.31-0.03-10.59-0.82-15.87-1.41c-12.51-1.39-25.14-1.66-37.69-0.8"/>
	</g>
	<path class="st7" d="M375.99,413.89c1.39,3.45,2.79,6.89,4.18,10.34c1.09,2.69,2.41,5.63,5.07,6.8c1.92,0.84,4.13,0.57,6.17,1.07"
		/>
	<path class="st7" d="M375.64,411.4c-0.66-2.87-1.31-5.74-1.63-8.66c-0.18-1.65-0.25-3.32-0.46-4.97c-0.6-4.66-2.34-9.12-2.93-13.78
		c-0.03-0.23-0.05-0.47,0.08-0.66c0.13-0.2,0.39-0.27,0.62-0.32c2.82-0.64,5.71-0.96,8.6-0.94"/>
	<path class="st7" d="M361.61,414.37c2.74,0.73,5.55,1.18,8.38,1.35"/>
</g>
</svg>
