<?xml version="1.0" encoding="utf-8"?>
<!-- Generator: Adobe Illustrator 28.0.0, SVG Export Plug-In . SVG Version: 6.00 Build 0)  -->
<svg version="1.1" id="Layer_1" xmlns="http://www.w3.org/2000/svg" xmlns:xlink="http://www.w3.org/1999/xlink" x="0px" y="0px"
	 viewBox="0 0 150 150" style="enable-background:new 0 0 150 150;" xml:space="preserve">
<style type="text/css">
	.st0{stroke:#000000;stroke-width:2;stroke-linecap:round;stroke-linejoin:round;stroke-miterlimit:10;}
	.st1{fill:#2D2D2D;}
	.st2{fill:#FFFFFF;}
	.st3{fill:#2C9FD7;}
	.st4{fill:url(#SVGID_1_);}
	.st5{fill:url(#SVGID_00000106833029296825196180000008275719603060944298_);}
	.st6{fill:url(#SVGID_00000146474262502874722760000012535873285886493606_);}
	.st7{fill:url(#SVGID_00000126302736617791666940000017859682999394803633_);}
	.st8{fill:url(#SVGID_00000079482556423962569340000017329769431130302901_);}
	.st9{fill:url(#SVGID_00000091734505391665937200000007950690970131886227_);}
	.st10{fill:url(#SVGID_00000088095083596555105260000010143647090099702686_);}
	.st11{fill:url(#SVGID_00000120545055064122307830000000014904875732150947_);}
	.st12{fill:url(#SVGID_00000154396217291607528810000015669685634200677553_);}
	.st13{fill:url(#SVGID_00000042728883271819099500000018320107411802841486_);}
	.st14{fill:url(#SVGID_00000168818531191255243030000011451550752410161083_);}
	.st15{fill:url(#SVGID_00000178163405441990007670000003131842821835747246_);}
	.st16{fill:url(#SVGID_00000073719522552983250720000013316195626347402646_);}
	.st17{fill:url(#SVGID_00000049221784873461828970000006355613929371037317_);}
	.st18{fill:url(#SVGID_00000090284745601448569330000018297304795819858575_);}
	.st19{fill:url(#SVGID_00000080168519728977125860000015790912579991441305_);}
	.st20{fill:url(#SVGID_00000089567485613276766050000006657391342961401252_);}
	.st21{fill:url(#SVGID_00000172430034888671175080000015788641493590989232_);}
	.st22{fill:url(#SVGID_00000040560678402552587790000002493170903804843191_);}
	.st23{fill:#707070;}
	.st24{fill:#53BFEA;}
	.st25{fill:url(#SVGID_00000078728404032201884840000000464139601947583110_);}
</style>
<path class="st0" d="M142.72,83.89c-0.32-1.11-0.94-2.13-1.09-3.28c-0.16-1.18-0.61-2.23-1.06-3.33c-0.95-2.37-1.9-4.75-2.84-7.13
	c-3.83-9.69-7.55-19.41-11.16-29.18c-0.44-1.2-0.88-2.4-1.33-3.61c-0.38-1.04-0.79-2.09-1.43-2.99c-1-1.4-2.56-2.21-4.14-2.79
	c-1.64-0.6-3.35-0.96-5.01-1.47c-2.32-0.71-4.63-1.48-6.9-2.36c-1.18-0.46-2.35-0.95-3.5-1.5c-0.02-0.01-0.05-0.01-0.07-0.02
	c-0.48-0.87-1.25-1.58-2.02-2.24c-1.22-1.05-2.57-1.94-3.98-2.71h-0.01c-0.02-0.09-0.04-0.18-0.07-0.27
	c-0.16-0.58-0.34-1.23-0.7-1.8c-0.42-0.68-1.04-1.13-1.67-1.23h-0.01c-0.01,0-0.02-0.01-0.05-0.01c-0.42-0.1-3.11-0.65-6.93-0.17
	c-3.73,0.47-9.25,2.08-14.47,7.06c-1.85,1.43-3.6,2.98-5.23,4.65c-2.36,0.73-4.67,1.6-7.01,2.38c-1.46,0.48-2.94,0.9-4.38,1.44
	c-1.52,0.58-3.07,1.24-4.26,2.38c-2.05,1.96-2.9,4.76-4.12,7.24c-1.69,3.45-3.56,6.82-5.35,10.22c-1.01,1.91-2.03,3.81-3.06,5.71
	c-0.5,0.93-1.02,1.85-1.52,2.79c-0.37,0.69-0.58,1.44-0.82,2.18c-0.43-0.41-0.87-0.82-1.25-1.27c-0.25-0.3-0.42-0.63-0.61-0.96
	c-0.22-0.39-0.48-0.77-0.76-1.13c-1.06-1.39-2.35-2.65-3.61-3.87c-1.35-1.31-2.86-2.41-4.39-3.49c-1.56-1.1-3.02-2.27-4.41-3.58
	c-1.16-1.09-2.45-2.09-3.45-3.32c-0.25-0.31-0.44-0.67-0.69-0.98c-0.18-0.23-0.41-0.25-0.68-0.22c-0.59,0.06-1.21,0.2-1.78,0.35
	c-1.76,0.47-3.33,1.37-4.79,2.45c-1.35,1-2.53,2.15-3.56,3.48c-0.88,1.13-1.88,2.55-1.66,4.06C7.02,56.26,7.55,57.04,8,57.8
	c0.5,0.85,1.01,1.71,1.51,2.56c1.99,3.36,3.95,6.73,6.18,9.94c1.03,1.47,2.06,2.95,2.99,4.48c0.97,1.6,1.77,3.26,2.48,4.98
	c0.7,1.7,1.7,3.2,2.78,4.68c1.09,1.5,2.27,2.94,3.53,4.3c1.18,1.27,2.41,2.5,3.7,3.66c1.29,1.15,2.69,2.23,4.24,3.01
	c0.77,0.39,1.6,0.76,2.44,0.93c0.86,0.18,1.75,0.04,2.58-0.21c1.57-0.47,2.98-1.41,4.16-2.54c0.33-0.32,0.63-0.65,0.93-1
	c0.08,2.97,0.15,5.94-0.11,8.9c-0.04,0.4-0.06,0.81-0.16,1.2c-0.12,0.46-0.36,0.69-0.77,0.9c-0.76,0.39-1.05,1.01-1.16,1.83
	c-0.13,0.96-0.23,1.93-0.32,2.89c-0.04,0.37-0.27,0.74-0.2,1.11c0.03,0.18,0.13,0.33,0.27,0.44c0.06,0.05,0.11,0.08,0.17,0.11
	c0.18,0.09,0.16,0.05,0.2,0.23c0.04,0.23-0.01,0.53-0.02,0.77c-0.01,0.26-0.01,0.51-0.02,0.77c-0.01,0.54-0.03,1.07-0.05,1.61
	c-0.04,1.05-0.15,2.09-0.3,3.13c-0.14,0.98-0.3,1.93-0.52,2.9c-0.22,1-0.28,2.04-0.32,3.07c-0.04,1.02-0.03,2.05,0.02,3.07
	c0.05,0.94,0.05,1.98,0.36,2.88c0.28,0.79,0.86,1.31,1.61,1.65c0.81,0.37,1.66,0.66,2.5,0.94c3.4,1.14,7,1.83,10.6,1.76
	c1.78-0.04,3.56-0.27,5.27-0.73c0.84-0.23,1.66-0.51,2.46-0.85c0.82-0.35,1.64-0.72,2.35-1.27c0.67-0.52,1.14-1.2,1.35-2.03
	c0.24-0.94,0.22-1.94,0.25-2.9c0.07-1.9,0.14-3.81,0.2-5.71c0.35,2.08,0.74,4.21,1.19,6.42l0.07,0.36c0.04,0.21,0.08,0.41,0.12,0.61
	c0.43,2.03,1.78,3.77,3.63,4.64c0.32,0.15,0.54,0.24,0.69,0.28c2.62,0.61,5.29,0.84,7.95,0.84c3.78,0,7.56-0.47,11.21-0.99
	c2.74-0.39,5.41-0.81,7.99-1.68c1.16-0.39,2.15-0.9,3.29-1.54c0.24-0.13,0.48-0.25,0.71-0.37c1.18-0.59,2.4-1.2,2.83-3.42
	c0.07-0.38,0.11-0.79,0.11-1.3c0.02-3.1,0.11-6.26,0.19-9.31c0.07-2.67,0.14-5.43,0.18-8.13c0.06-5.01,0.23-10.83,1.53-16.4
	c0.81-3.48,1.61-8.56,1.63-13.01c0.18,0.26,0.36,0.53,0.54,0.79c0.26,0.37,0.54,0.74,0.76,1.14c0.16,0.29,0.23,0.62,0.35,0.94
	c0.06,0.18,0.14,0.36,0.23,0.53c0.11,0.21,0.27,0.4,0.38,0.6c0.31,0.56,0.53,1.18,0.79,1.77c0.3,0.71,0.6,1.42,0.89,2.13
	c0.59,1.46,1.19,2.93,1.67,4.43c-0.35,1.04-0.41,2.16-0.38,3.25c0.03,1.17,0.13,2.33,0.14,3.5c0.01,2.62,0.01,5.25,0.02,7.87
	c0,1.31,0.02,2.62-0.04,3.93c-0.06,1.25-0.12,2.5-0.2,3.75c-0.16,2.51-0.41,5.03-0.9,7.5c-0.14,0.69-0.29,1.37-0.46,2.05
	c-0.08,0.31-0.22,0.66-0.22,0.99c0,0.34,0.22,0.62,0.42,0.88c0.72,0.95,1.65,1.78,2.63,2.45l0.01,0.01
	c0.01,0.01,0.03,0.02,0.04,0.03c0.03,0.02,0.05,0.04,0.08,0.06c0.01,0.01,0.02,0,0.02,0.01c3.06,2.07,6.6,3.45,10.13,4.49
	c1.03,0.3,2.07,0.59,3.12,0.8c0.39,0.08,0.79,0.14,1.18,0.01c1-0.33,0.88-1.79,1.1-2.62c0.3-1.17,0.74-2.32,1.09-3.48
	c0.36-1.21,0.7-2.43,1.03-3.65c0.68-2.46,1.39-4.93,1.95-7.42c0.27-1.19,0.26-2.38,0.42-3.58c0.17-1.24,0.59-2.44,0.98-3.62
	c0.75-2.31,1.54-4.61,2-7c0.47-2.43,0.52-4.95,0.61-7.41c0.05-1.29,0.07-2.57,0.09-3.86C142.95,86.29,143.05,85.05,142.72,83.89z"/>
<g>
	<g>
		<path class="st1" d="M142.1,86.19c0.09,3.23-0.07,6.45-0.22,9.68c-0.06,1.35-0.22,2.57-0.66,3.84c-0.5,1.43-1.01,2.85-1.32,4.34
			c-0.16,0.77-0.2,1.52-0.43,2.3c-0.24,0.82-0.52,1.63-0.74,2.46c-0.28,1.06-0.28,2.14-0.52,3.22c-0.27,1.18-0.58,2.35-0.9,3.52
			c-0.48,1.75-0.97,3.49-1.34,5.27c-0.18,0.84-0.3,1.66-0.58,2.47c-0.32,0.91-0.63,1.84-0.89,2.77c-0.27,0.98-0.22,3.01-1.24,3.5
			c-0.84,0.41-2.24-0.12-3.06-0.39c-2.12-0.69-4.22-1.45-6.28-2.29c-1.21-0.49-2.41-1.01-3.54-1.66c-0.75-0.43-1.47-0.92-2.14-1.46
			c-0.61-0.49-1.21-1.05-1.56-1.75c-0.4-0.8-0.23-1.43-0.09-2.24c0.14-0.79,0.26-1.58,0.44-2.36c0.24-1.06,0.21-2.23,0.33-3.32
			c0.23-2.28,0.47-4.57,0.56-6.87c0.04-1.01-0.15-1.98,0-2.97c0.19-1.24,0.19-2.55,0.23-3.8c0.08-2.54,0.03-5.08-0.15-7.61
			c-0.09-1.21-0.2-2.44,0.09-3.62c0.07-0.27,0.15-0.54,0.13-0.81c-0.03-0.29-0.18-0.55-0.31-0.8c-0.54-1.04-0.84-2.21-1.13-3.33
			c-0.68-2.63-2.29-4.94-3.43-7.38c-0.31-0.66-0.72-1.41-1.44-1.5c-0.15,5.25-0.86,10.48-2.09,15.59
			c-0.97,3.99-1.12,8.27-1.24,12.36c-0.13,4.25-0.06,8.51-0.08,12.77c-0.01,2.09-0.03,4.17-0.11,6.25
			c-0.03,0.72-0.18,1.26-0.41,1.96c-0.32,0.98-0.69,2.02-1.56,2.65c-0.99,0.72-2.25,1.22-3.37,1.68c-2.37,0.97-4.86,1.61-7.39,2.03
			c-3.71,0.62-7.47,0.79-11.23,0.94c-4.51,0.19-11.27,0.8-13.38-4.21c-0.69-1.62-0.87-3.41-1.12-5.15c-0.29-2.01-0.68-4-1.18-5.97
			c-0.35,0.91-0.37,1.78-0.34,2.75c0.02,0.86,0.05,1.72,0.07,2.57c0.02,0.86,0.05,1.72,0.07,2.58c0.04,1.48,0.02,3.08-0.87,4.26
			c-0.65,0.85-1.66,1.33-2.62,1.78c-1.22,0.57-2.45,1.14-3.77,1.41c-1.3,0.27-2.63,0.24-3.95,0.2c-0.9-0.02-1.79-0.04-2.69-0.07
			c-0.96-0.02-1.93-0.05-2.88-0.19c-0.88-0.13-1.74-0.37-2.61-0.6c-1.26-0.34-2.52-0.68-3.78-1.03c-0.73-0.2-1.91-0.66-2.34-1.33
			c-0.13-0.21-0.19-0.45-0.24-0.7c-0.27-1.21-0.53-2.43-0.62-3.67c-0.08-1.1,0.13-2.05,0.26-3.11c0.24-1.91,0.47-3.82,0.71-5.72
			c0.1-0.81,0.37-1.58,0.46-2.41c0.09-0.89,0.12-1.78,0.06-2.67c-0.01-0.19-0.03-0.4-0.16-0.53c-0.07-0.08-0.17-0.13-0.26-0.19
			c-0.53-0.4-0.18-1.19-0.1-1.72c0.11-0.75,0.21-1.5,0.34-2.25c0.08-0.53,0.16-1.07,0.46-1.52c0.32-0.48,0.88-0.61,1.22-1.01
			c0.31-0.36,0.35-1.04,0.41-1.5c0.4-3.19,0.37-6.43-0.1-9.6c-0.02-0.11-0.04-0.23-0.14-0.28c-0.14-0.07-0.29,0.07-0.39,0.19
			c-1.51,1.83-3.76,3.59-6.2,3.81c-1.02,0.09-1.99-0.12-2.9-0.58c-0.9-0.45-1.7-1.08-2.49-1.69c-2.05-1.6-4.14-3.17-5.94-5.06
			c-1.14-1.19-2.35-2.51-3.11-3.96c-0.4-0.76-1-1.46-1.46-2.19c-0.46-0.75-0.89-1.52-1.24-2.33c-0.23-0.53-0.43-1.07-0.66-1.6
			c-0.24-0.54-0.51-1.06-0.79-1.58c-1.09-2.06-2.19-4.14-3.74-5.9c-0.36-0.41-0.54-0.86-0.83-1.31c-0.39-0.6-0.77-1.21-1.15-1.81
			c-0.76-1.21-1.52-2.42-2.27-3.64c-1.48-2.42-2.93-4.85-4.35-7.3c-0.33-0.57-0.67-1.19-0.73-1.86C7,53.92,7.9,52.77,8.45,51.96
			c0.63-0.93,1.36-1.79,2.17-2.56c1.6-1.54,3.52-2.75,5.61-3.49c0.6-0.21,1.24-0.35,1.81-0.62c0.16-0.08,0.33-0.17,0.5-0.14
			s0.29,0.16,0.41,0.28c0.47,0.51,0.88,1.09,1.34,1.62c1.03,1.18,2.21,2.23,3.38,3.27c0.5,0.45,1,0.89,1.5,1.34
			c0.48,0.43,0.96,0.85,1.46,1.24c0.64,0.48,1.33,0.78,1.97,1.25c0.72,0.52,1.43,1.07,2.11,1.64c1.37,1.14,2.67,2.37,3.88,3.67
			c0.33,0.35,0.65,0.71,0.92,1.11c0.26,0.37,0.47,0.77,0.71,1.15c0.61,0.99,1.39,1.88,2.29,2.61c0.16-0.69,0.36-1.36,0.59-2.03
			c0.24-0.67,0.76-1.3,1.14-1.91c0.46-0.76,0.91-1.52,1.34-2.3c0.79-1.43,1.39-2.99,2.28-4.34c0.9-1.36,1.6-2.84,2.3-4.31
			c1.69-3.56,3.45-7.07,5.18-10.61c0.24-0.5,0.49-1,0.84-1.42c0.33-0.41,0.67-0.79,0.99-1.21c0.51-0.69,1.33-1.59,2.18-1.86
			c0.93-0.29,1.84-0.65,2.75-1c0.8-0.31,1.62-0.6,2.44-0.85c0.85-0.27,1.82-0.39,2.63-0.74c1.57-0.68,3.2-1.23,4.83-1.79
			c0.31-0.11,0.61-0.21,0.89-0.38c0.22-0.13,0.41-0.3,0.59-0.47c1.54-1.42,2.92-3.08,4.78-4.04c0.02,0.84,0.07,1.74,0.61,2.38
			c0.46,0.55,1.22,0.79,1.94,0.78s1.42-0.23,2.1-0.46c0.83-0.28,1.65-0.58,2.46-0.89c0.55-0.21,1.12-0.36,1.67-0.59
			c2.49-1.06,4.95-2.2,7.38-3.4c1.23-0.61,2.45-1.24,3.66-1.88c0.97-0.52,1.77-1.3,1.6-2.52c0.54,0.1,0.92,0.6,1.17,1.09
			c0.49,0.96,0.9,1.93,1.78,2.6c0.58,0.45,1.25,0.78,1.86,1.19c0.78,0.52,1.49,1.16,2.09,1.89c0.5,0.62,0.99,1.34,1.76,1.55
			c1.79,0.48,3.57,1.31,5.36,1.92c1.95,0.67,3.91,1.3,5.86,1.96c1.69,0.57,3.42,1.12,5.02,1.89c1.5,0.72,2.46,1.71,3.29,3.16
			c0.82,1.43,1.48,2.94,1.97,4.51c0.31,0.99,0.55,2,0.86,2.99c0.4,1.28,0.92,2.52,1.43,3.76c2.78,6.69,5.2,13.53,7.83,20.27
			c0.65,1.67,1.3,3.32,1.97,4.98c0.68,1.69,1.5,3.31,2.19,5c0.33,0.8,0.6,1.53,0.68,2.39c0.09,0.95,0.31,1.9,0.64,2.79
			c0.15,0.39,0.32,0.77,0.42,1.16c0.15,0.56,0.19,1.14,0.21,1.72C142.08,85.6,142.09,85.9,142.1,86.19z M119.18,121.69
			c0.01,0,0.02,0,0.03,0.01c-0.01,0-0.01,0-0.02,0c-0.01,0-0.02,0.01-0.02,0.02c-0.01,0-0.01-0.01-0.02-0.01
			c-0.13-0.06-0.3-0.04-0.42,0.05c-0.04-0.02-0.09-0.04-0.13-0.06c-0.06-0.03-0.12-0.06-0.18-0.08c-0.06-0.02-0.13-0.02-0.19-0.03
			c-0.09-0.01-0.22,0.05-0.27,0.11c-0.03,0.03-0.04,0.06-0.06,0.09c-0.05-0.07-0.11-0.13-0.17-0.2
			C118.21,121.48,118.71,121.59,119.18,121.69z"/>
		<path class="st2" d="M75.58,27.97c0.01-0.02,0.01-0.04,0.01-0.06c-0.72-0.3-1.09-1.11-1.3-1.86c-0.02-0.08-0.05-0.17-0.13-0.2
			c-0.12-0.05-0.24,0.08-0.31,0.19c-1.14,1.93-2.34,4.4-1.76,6.7c0.06,0.24,0.14,0.47,0.17,0.72c0.03,0.3-0.03,0.59-0.09,0.89
			c-0.26,1.29-0.81,2.59-0.87,3.9c-0.03,0.57,0.04,1.13,0,1.7c-0.04,0.55-0.19,1.08-0.33,1.61c-0.49,1.86-0.9,3.73-1.21,5.63
			c-0.11,0.66-0.2,1.32-0.25,1.98c-0.14,2.15-0.61,4.24-0.99,6.37c-0.06,0.36-0.56,1.92-0.23,2.21c0.09,0.08,0.23,0.04,0.3-0.05
			s0.09-0.21,0.11-0.32c0.52-3.12,1.31-6.18,2.23-9.21c0.62-2.05,1.27-4.08,1.85-6.14c0.3-1.05,0.58-2.1,0.82-3.15
			c0.11-0.47,0.17-0.94,0.35-1.39c0.15-0.38,0.54-0.83,0.47-1.25c-0.02-0.13-0.08-0.24-0.14-0.35c-0.22-0.42-0.68-1.06-0.73-1.54
			c-0.05-0.51,0.41-0.72,0.63-1.12c0.19-0.36,0.32-0.77,0.38-1.17c0.14-0.9,0.03-1.82,0.03-2.73c0-0.43,0.06-1.12,0.61-1.16
			C75.35,28.13,75.53,28.09,75.58,27.97z"/>
		<path class="st2" d="M97.13,19.84c-0.17-0.42-0.39-0.9-0.79-1.14c-0.53-0.31-1.22-0.41-1.81-0.5c-3.48-0.56-7.1-0.41-10.48,0.6
			c-3.38,1-6.53,2.86-8.93,5.45c-0.54,0.58-1.07,1.37-0.77,2.09c0.1,0.23,0.27,0.43,0.4,0.65c0.26,0.44,0.34,0.99,0.21,1.49
			c-0.13,0.51-0.43,0.73-0.44,1.31c0,0.19,0.01,0.42,0.18,0.51c0.48-0.36,1.01-0.67,1.58-0.85c0.91-0.29,1.89-0.24,2.84-0.19
			c0.18,0.01,0.36,0.02,0.53,0.1c0.11,0.06,0.21,0.14,0.3,0.23c0.29,0.27,0.68,0.58,0.84,0.96c0.13,0.3,0.14,0.63,0.27,0.94
			c0.34,0.81,0.7,1.62,0.65,2.53c-0.03,0.51-0.24,1.22-0.56,1.62c-0.28,0.36-1,0.43-1.1,0.92c-0.04,0.18,0.03,0.36,0.09,0.53
			c0.39,1.12,0.34,2.33,0.28,3.52c-0.29,5.53-0.84,11.05-1.65,16.53c-0.03,0.21-0.03,0.49,0.17,0.57
			c2.43-5.08,4.83-10.15,7.39-15.17c1.09-2.14,2.28-4.23,3.46-6.32c0.61-1.07,1.24-2.12,1.82-3.2c1.41-2.66,3.23-5.19,4.78-7.77
			c0.7-1.17,1.25-2.19,1.14-3.62C97.51,21.09,97.37,20.43,97.13,19.84z"/>
	</g>
	<path class="st3" d="M81.56,32.94c-0.06-0.19-0.14-0.38-0.22-0.57c-0.2-0.5-0.4-0.99-0.6-1.49c-0.14-0.35-0.29-0.71-0.55-0.98
		c-0.2-0.21-0.45-0.35-0.72-0.46c-1.31-0.55-2.85-0.29-4.08,0.43c-0.27,0.16-0.54,0.35-0.67,0.64c-0.07,0.16-0.09,0.34-0.12,0.51
		c-0.14,0.95-0.54,1.83-0.93,2.71c-0.09,0.21-0.19,0.43-0.16,0.65c0.02,0.16,0.09,0.3,0.16,0.44c0.14,0.27,0.28,0.54,0.48,0.76
		c0.09,0.1,0.19,0.19,0.26,0.3c0.28,0.46-0.02,1.12-0.2,1.57c-0.95,2.38-1.67,4.85-2.39,7.31c0,0.36-0.25,0.84-0.35,1.19
		c-0.11,0.39-0.23,0.75-0.27,1.15c-0.09,0.86-0.32,1.74-0.51,2.59c-0.24,1.07-0.52,2.14-0.83,3.2c-0.28,0.96-0.7,1.86-0.87,2.84
		c-0.11,0.63-0.22,1.27-0.33,1.9c-0.1,0.59-0.32,1.12-0.47,1.7c-0.32,1.2-0.5,2.42-0.65,3.65c-0.26,2.07-0.45,4.14-0.54,6.23
		c-0.09,2.03-0.11,4.08-0.08,6.12c0.02,1.02,0.06,2.04,0.11,3.06c0.06,1.18,0.08,2.32,0.27,3.49c0,0.64,0.22,1.34,0.32,1.97
		c0.09,0.53,0.06,1.34,0.31,1.82c0.08,0.14,0.23,0.29,0.41,0.26c0.3-0.04,0.29-0.47,0.33-0.71c0.11-0.67,0.18-1.35,0.37-2.01
		c0.24-0.8,0.52-1.58,0.81-2.37c0.61-1.64,1.25-3.28,1.9-4.91c0.63-1.59,1.24-3.19,1.85-4.78c0.62-1.63,1.45-3.32,1.82-5.03
		c0.42-0.82,0.81-1.67,1.18-2.51c0.3-0.67,0.52-1.41,0.87-2.05c0.27-0.49,0.45-1.02,0.72-1.51c0.27-0.49,0.62-0.96,0.65-1.52
		c0.01-0.2-0.02-0.4-0.04-0.6c-0.1-1.04,0.13-2.1,0.25-3.13c0.13-1.07,0.23-2.15,0.35-3.23c0.09-0.8,0.17-1.61,0.25-2.42
		c0.05-0.53,0.11-1.06,0.13-1.58c0.05-0.03,0.1-0.07,0.12-0.14c0.29-1.08,0.32-2.27,0.39-3.38c0.08-1.15,0.11-2.31,0.09-3.46
		c-0.02-1.19-0.08-2.35-0.21-3.53c-0.02-0.15-0.03-0.29-0.01-0.44c0.06-0.42,0.39-0.75,0.69-1.05c0.52-0.51,0.92-1.34,0.82-2.09
		C81.67,33.3,81.62,33.12,81.56,32.94z"/>
	<g>
		<path class="st2" d="M78.28,29.43c0.08,0.71,0.44,1.33,0.94,1.84c0.24,0.25,0.52,0.47,0.8,0.68c0.29,0.21,0.6,0.37,0.95,0.4
			c0.26,0.02,0.26-0.39,0-0.41c-0.29-0.02-0.54-0.19-0.77-0.36c-0.25-0.18-0.48-0.38-0.7-0.6c-0.41-0.42-0.76-0.95-0.82-1.55
			c-0.01-0.11-0.09-0.2-0.2-0.2C78.39,29.22,78.27,29.32,78.28,29.43L78.28,29.43z"/>
	</g>
	<g>
		<path class="st2" d="M76.36,29.72c0.69,2.34,2.56,4.24,4.88,4.97c0.25,0.08,0.36-0.32,0.11-0.39c-2.19-0.69-3.95-2.49-4.6-4.69
			C76.68,29.36,76.28,29.47,76.36,29.72L76.36,29.72z"/>
	</g>
	<g>
		<path class="st2" d="M74.63,30.8c0.6,2.69,3.15,4.14,5.41,5.29c0.23,0.12,0.44-0.23,0.21-0.35c-2.16-1.11-4.65-2.47-5.22-5.05
			C74.97,30.44,74.57,30.55,74.63,30.8L74.63,30.8z"/>
	</g>
	<g>
		<path class="st2" d="M73.97,33.28c0.21,0.7,0.67,1.29,1.21,1.77c0.3,0.26,0.61,0.49,0.94,0.71c0.13,0.09,0.31,0.26,0.48,0.26
			c0.24-0.01,0.28-0.31,0.1-0.43c-0.22-0.14-0.43,0.21-0.21,0.35c0.01,0,0.01,0.01,0.02,0.01c-0.03-0.06-0.07-0.12-0.1-0.18
			c0,0.01,0,0.01,0,0.02c0.02-0.05,0.04-0.1,0.06-0.14c0,0.01-0.01,0.01-0.01,0.02c0.05-0.02,0.1-0.04,0.14-0.06
			c-0.01,0-0.02,0-0.03,0c0.03,0.01,0.07,0.02,0.1,0.03c-0.26-0.14-0.51-0.34-0.74-0.52c-0.24-0.18-0.47-0.37-0.69-0.58
			c-0.39-0.38-0.71-0.84-0.87-1.37C74.29,32.92,73.9,33.03,73.97,33.28L73.97,33.28z"/>
	</g>
	<g>
		<path class="st2" d="M78.51,36.22c-0.07-0.14-0.25-0.18-0.37-0.09c-0.16,0.11-0.11,0.3-0.04,0.45c0.23,0.52,0.46,1.04,0.7,1.56
			c0.46,1.03,0.91,2.06,1.37,3.08c0.11,0.24,0.46,0.03,0.35-0.21c-0.35-0.78-0.7-1.56-1.04-2.35c-0.17-0.38-0.33-0.75-0.5-1.13
			c-0.09-0.2-0.18-0.41-0.27-0.61c-0.04-0.09-0.08-0.17-0.12-0.26c-0.04-0.1-0.16-0.26-0.14-0.37c-0.03,0.06-0.07,0.12-0.1,0.18
			c0.01-0.01,0.02-0.02,0.04-0.02c-0.05,0.01-0.11,0.01-0.16,0.02c0.01,0,0.03,0,0.04,0.01c-0.04-0.03-0.08-0.06-0.12-0.09
			c0.01,0.01,0.01,0.02,0.02,0.03C78.28,36.66,78.63,36.45,78.51,36.22L78.51,36.22z"/>
	</g>
	<g>
		<path class="st2" d="M75.91,36.15c0.19,1.76,0.95,3.38,1.6,5c0.7,1.73,1.39,3.47,2.09,5.2c0.1,0.24,0.49,0.14,0.39-0.11
			c-0.68-1.7-1.37-3.4-2.05-5.1c-0.65-1.61-1.44-3.25-1.62-4.99C76.29,35.89,75.88,35.89,75.91,36.15L75.91,36.15z"/>
	</g>
	<g>
		<path class="st2" d="M73.69,37.64c0.42,4.34,1.56,8.59,3.38,12.56c0.51,1.12,1.08,2.22,1.7,3.29c0.13,0.23,0.49,0.02,0.35-0.21
			c-2.15-3.71-3.67-7.78-4.5-11.99c-0.24-1.21-0.41-2.43-0.53-3.66C74.07,37.38,73.66,37.37,73.69,37.64L73.69,37.64z"/>
	</g>
	<g>
		<path class="st2" d="M71.95,43.77c1.15,4.39,2.53,8.71,4.14,12.95c0.45,1.19,0.92,2.37,1.4,3.55c0.1,0.24,0.49,0.13,0.39-0.11
			c-1.73-4.19-3.24-8.48-4.52-12.83c-0.36-1.22-0.7-2.45-1.02-3.68C72.28,43.41,71.88,43.52,71.95,43.77L71.95,43.77z"/>
	</g>
	<g>
		<path class="st2" d="M70.57,49.08c0.53,4.63,1.55,9.2,3.07,13.61c0.43,1.25,0.9,2.49,1.41,3.71c0.1,0.24,0.5,0.13,0.39-0.11
			c-1.77-4.27-3.08-8.74-3.89-13.29c-0.23-1.3-0.42-2.61-0.57-3.92C70.95,48.82,70.54,48.82,70.57,49.08L70.57,49.08z"/>
	</g>
	<g>
		<path class="st2" d="M68.87,55.92c0.95,3.87,2.08,7.69,3.39,11.46c0.37,1.07,0.76,2.13,1.16,3.19c0.09,0.24,0.49,0.14,0.39-0.11
			c-1.41-3.73-2.64-7.52-3.7-11.36c-0.3-1.09-0.58-2.19-0.85-3.29C69.2,55.56,68.81,55.67,68.87,55.92L68.87,55.92z"/>
	</g>
	<g>
		<path class="st2" d="M67.69,61.32c0.59,3.66,1.56,7.25,2.91,10.7c0.37,0.96,0.78,1.91,1.21,2.85c0.11,0.24,0.46,0.03,0.35-0.21
			c-1.52-3.32-2.69-6.81-3.49-10.38c-0.23-1.02-0.42-2.05-0.59-3.08C68.04,60.95,67.64,61.06,67.69,61.32L67.69,61.32z"/>
	</g>
	<g>
		<path class="st2" d="M67.02,69.42c0.54,3.16,1.6,6.21,3.13,9.02c0.13,0.23,0.48,0.03,0.35-0.21c-1.51-2.78-2.56-5.8-3.09-8.92
			C67.37,69.05,66.98,69.16,67.02,69.42L67.02,69.42z"/>
	</g>
	<g>
		<path class="st2" d="M66.93,76.61c0.24,0.84,0.58,1.64,0.95,2.43c0.37,0.79,0.66,1.72,1.29,2.34c0.19,0.19,0.48-0.1,0.29-0.29
			c-0.3-0.3-0.5-0.67-0.67-1.05c-0.19-0.4-0.37-0.8-0.56-1.21c-0.36-0.76-0.68-1.53-0.91-2.34C67.25,76.24,66.86,76.35,66.93,76.61
			L66.93,76.61z"/>
	</g>
</g>
<linearGradient id="SVGID_1_" gradientUnits="userSpaceOnUse" x1="126.4407" y1="28.4059" x2="124.2104" y2="21.3083" gradientTransform="matrix(1 0 0 -1 0 149.8898)">
	<stop  offset="0" style="stop-color:#040404"/>
	<stop  offset="0.9997" style="stop-color:#2D2D2D;stop-opacity:0"/>
</linearGradient>
<path class="st4" d="M126.57,123.9c-0.56-0.24-1.15-0.44-1.71-0.66c-0.98-0.39-1.96-0.79-2.99-1c-0.52-0.1-1.04-0.16-1.56-0.26
	c-0.84-0.16-1.68-0.45-2.54-0.38c0.32,0.7,0.9,1.24,1.5,1.72c0.26,0.21,0.51,0.44,0.8,0.61c1.98,1.17,4.09,2.11,6.25,2.9
	c1.08,0.4,2.18,0.75,3.29,1.08c0.48,0.14,1.06,0.22,1.49,0.49c0.43,0.27,1.08,0.4,1.56,0.22c0.11-0.04,0.22-0.11,0.24-0.22
	c0.02-0.07,0-0.14-0.03-0.21c-0.2-0.54-0.64-0.96-1.08-1.33c-0.42-0.36-0.84-0.71-1.31-1c-0.3-0.19-0.62-0.34-0.93-0.5
	c-0.78-0.4-1.57-0.79-2.35-1.19C126.99,124.08,126.78,123.99,126.57,123.9z"/>
<linearGradient id="SVGID_00000039813554774439105490000007392668224856674473_" gradientUnits="userSpaceOnUse" x1="113.6512" y1="99.6382" x2="96.5062" y2="98.1512">
	<stop  offset="0" style="stop-color:#040404"/>
	<stop  offset="0.9997" style="stop-color:#2D2D2D;stop-opacity:0"/>
</linearGradient>
<path style="fill:url(#SVGID_00000039813554774439105490000007392668224856674473_);" d="M107.72,67.08c0.04,1,0.37,2.38-0.15,3.28
	c-0.24,0.41-0.63,0.71-1.01,0.99c-2.76,2.06-5.71,3.87-8.81,5.4c-1.39,0.68-2.83,1.32-4,2.33c-0.12,0.1-0.23,0.21-0.29,0.35
	c-0.2,0.54,0.56,0.9,1.13,0.96c3.24,0.37,6.5,0.48,9.75,0.33c0.63-0.03,1.33-0.05,1.81,0.36c0.54,0.45,0.6,1.29,0.36,1.95
	c-0.24,0.66-0.72,1.2-1.14,1.77c-0.9,1.21-1.56,2.63-1.72,4.14c-0.06,0.58-0.05,1.17-0.12,1.75c-0.12,0.86-0.43,1.68-0.77,2.48
	c-0.45,1.08-0.99,2.09-1.57,3.1c-0.46,0.79-0.69,1.82-1.24,2.53c-0.25,0.32-0.62,0.55-0.8,0.91c-0.16,0.34-0.12,0.74-0.26,1.09
	c-0.28,0.69-1.13,0.92-1.86,1.05c-2.27,0.42-4.53,0.83-6.8,1.25c1.28-0.24,2.8-0.05,4.1-0.08c1.03-0.02,2.78-0.4,3.55,0.46
	c0.34,0.38,0.52,0.88,0.71,1.35c0.28,0.69,0.61,1.37,0.97,2.02c0.08,0.15,0.17,0.31,0.14,0.47s-0.16,0.3-0.16,0.47
	c0,0.24,0.28,0.51,0.11,0.67c-0.06,0.06-0.15,0.07-0.24,0.07c-1.73,0.11-3.47,0.21-5.2,0.32c0.75,0.14,1.51,0.29,2.18,0.65
	c0.47,0.26,0.9,0.62,1.41,0.79c0.91,0.29,1.9-0.11,2.86-0.05c0.16,0.01,0.96,0.94,1.11,1.12c0.3,0.36,0.57,0.77,0.85,1.15
	c0.78,1.04,1.36,2.2,1.85,3.4c0.7,1.75,1.85,3.98,0.62,5.7c-0.29,0.41-0.62,0.79-0.99,1.14c-0.26,0.25-0.54,0.49-0.77,0.77
	c-0.27,0.34-0.46,0.73-0.66,1.11c-1.43,2.73-3.34,4.57-6.37,5.38c0.45,0.33,1.07,0.24,1.61,0.12c2.47-0.56,4.87-1.43,7.11-2.6
	c1.04-0.54,2.1-1.19,2.64-2.22c0.34-0.65,0.44-1.39,0.52-2.12c0.17-1.56,0.23-3.14,0.18-4.71c-0.05-1.58-0.02-3.04,0.21-4.6
	c0.22-1.5,0.07-3.15,0.1-4.69c0.06-3.52,0.11-7.04,0.17-10.56c0.02-1.04,0.03-2.07,0.12-3.1c0.1-1.29,0.31-2.56,0.53-3.83
	c0.44-2.54,0.99-5.05,1.51-7.57c0.47-2.26,0.59-4.67,0.73-6.97c0.07-1.13,0.1-2.33-0.44-3.33c-0.26-0.48-0.64-0.88-0.99-1.3
	C109.01,71.01,108.1,69.09,107.72,67.08z"/>
<linearGradient id="SVGID_00000094586785339313145720000003016610616953331855_" gradientUnits="userSpaceOnUse" x1="73.7128" y1="52.5644" x2="96.0187" y2="65.9479">
	<stop  offset="0" style="stop-color:#040404"/>
	<stop  offset="0.9997" style="stop-color:#2D2D2D;stop-opacity:0"/>
</linearGradient>
<path style="fill:url(#SVGID_00000094586785339313145720000003016610616953331855_);" d="M104.59,29.53
	c-0.07-0.94-0.08-1.95-0.48-2.74c-0.22-0.5-0.76-0.9-1.15-1.27c-0.5-0.47-0.99-0.97-1.46-1.47c-0.04-0.04-0.09-0.09-0.15-0.1
	c-0.19-0.03-0.45,2.1-0.51,2.37c-0.16,0.84-0.36,1.67-0.58,2.49c-0.64,2.33-1.86,4.92-4.22,5.44c0.09,0.49,0.18,0.98,0.28,1.47
	c-0.31,0.02-0.61,0.03-0.92,0.05c1.16,4.65-0.95,9.45-3.27,13.64c-4.06,7.37-8.89,14.29-12.77,21.76c-1.02,1.96-1.98,3.97-3.35,5.71
	c-2.06,2.61-3.79,5.39-4.99,8.5c-0.61,1.57-1.08,3.19-1.43,4.83c-0.17,0.8-0.3,1.61-0.4,2.42c-0.07,0.52,0.08,1.9-0.2,2.31
	C80.9,77.3,96.16,61.72,104.9,42.32c0.15-0.34,0.31-0.72,0.19-1.08c-0.11-0.34-0.44-0.56-0.71-0.8c-0.51-0.46-0.86-1.14-0.76-1.82
	c0.11-0.79,0.82-1,1.25-1.56s0.6-1.4,0.62-2.08c0.06-1.5-0.48-2.95-0.78-4.43C104.65,30.23,104.62,29.88,104.59,29.53z"/>
<linearGradient id="SVGID_00000158003787977155762550000006479427216217672850_" gradientUnits="userSpaceOnUse" x1="81.6041" y1="60.4715" x2="56.674" y2="56.9725">
	<stop  offset="0" style="stop-color:#040404"/>
	<stop  offset="0.9997" style="stop-color:#2D2D2D;stop-opacity:0"/>
</linearGradient>
<path style="fill:url(#SVGID_00000158003787977155762550000006479427216217672850_);" d="M71.95,29.89
	c-0.09,0.43-0.12,0.86-0.06,1.3c0.07,0.51,0.21,1.02,0.3,1.52c0.05,0.27,0.1,0.54,0.09,0.81c0,0.25-0.05,0.5-0.09,0.75
	c-0.13,0.71-0.26,1.42-0.39,2.12c-0.46,2.53-0.92,5.05-1.38,7.58c-0.18,1-0.53,1.95-0.72,2.94c-0.22,1.15-0.41,2.31-0.57,3.48
	c-0.08,0.59-0.15,1.18-0.22,1.77c-0.08,0.66-0.16,1.33-0.24,1.99c-0.06,0.51-0.12,1.02-0.19,1.53c-0.44,3.58-0.92,7.15-1.26,10.74
	c-0.17,1.71-0.21,3.32-0.17,5.05c0.05,1.82,0.1,3.63,0.16,5.45c0.04,1.13,0.07,2.25,0.11,3.38c0.03,0.74,0.05,1.47,0.14,2.2
	c0.17,1.39,0.57,2.75,0.65,4.15c0.13,2.16-0.48,4.32-0.42,6.48c-0.8-0.43-1.35-1.23-1.67-2.08c-0.75-1.99-0.76-4.35-0.98-6.45
	c-0.23-2.31-0.45-4.62-0.59-6.93c-0.14-2.37-0.22-4.75-0.45-7.12c-0.09-0.96-0.21-1.92-0.34-2.88c-0.45-3.37-1.29-7.12-0.74-10.52
	c0.57-3.51,1.02-7.1,1-10.66c0-0.31-0.01-0.63,0.07-0.94c0.22-0.85,1.01-1.4,1.71-1.93c1.67-1.26,3.09-2.85,4.17-4.65
	c0.52-0.86,0.94-1.32,0.28-2.04c-0.76-0.84-1.86-1.55-2.78-2.2c0.57-1.08,1.15-2.16,1.66-3.28c0.26-0.55,0.5-1.11,0.71-1.69
	c0.17-0.46,0.22-1.14,0.55-1.48c1.04-1.09,2.14-2.12,3.3-3.08c0.21-0.18,0.45-0.36,0.72-0.36c0.05,0,0.11,0.01,0.15,0.04
	c0.07,0.06,0.07,0.17,0.06,0.27c-0.13,0.88-0.79,1.56-1.34,2.26C72.64,28.14,72.15,28.99,71.95,29.89z"/>
<linearGradient id="SVGID_00000039126158588914847900000016914015446325805992_" gradientUnits="userSpaceOnUse" x1="52.624" y1="31.4893" x2="63.9956" y2="49.159">
	<stop  offset="0" style="stop-color:#040404"/>
	<stop  offset="0.9997" style="stop-color:#2D2D2D;stop-opacity:0"/>
</linearGradient>
<path style="fill:url(#SVGID_00000039126158588914847900000016914015446325805992_);" d="M63.44,33.43
	c-2.76,0.92-5.49,1.92-8.19,3.01c-0.35,0.14-0.7,0.29-1.01,0.51c-0.54,0.4-0.88,1.03-1.26,1.58c-0.49,0.7-1.09,1.32-1.53,2.05
	c-1.14,1.91-1.02,4.3-0.86,6.52c0.34-1.05,1.14-1.95,2.14-2.41c1.01-0.46,2.21-0.48,3.23-0.05c0.06,0.65,0.47,1.25,1.05,1.55
	c0.66,0.35,1.46,0.29,2.21,0.22c0.72-0.8,0.05-2.24,0.75-3.06c0.18-0.21,0.44-0.35,0.69-0.49c2.16-1.17,4.23-2.5,6.2-3.97
	c-0.58-1.08-2.05-1.51-2.47-2.66c-0.25-0.68-0.05-1.41,0.25-2.04c0.23-0.49,0.82-1.06,0.76-1.62C64.75,32.87,64.13,33.2,63.44,33.43
	z"/>
<linearGradient id="SVGID_00000165223197487234554030000006661533927646570117_" gradientUnits="userSpaceOnUse" x1="145.2603" y1="76.8208" x2="108.5103" y2="62.5596" gradientTransform="matrix(1 0 0 -1 0 149.8898)">
	<stop  offset="0" style="stop-color:#040404"/>
	<stop  offset="0.9997" style="stop-color:#2D2D2D;stop-opacity:0"/>
</linearGradient>
<path style="fill:url(#SVGID_00000165223197487234554030000006661533927646570117_);" d="M117.87,67.44
	c-0.63,0.32-1.24,0.66-1.85,1.01c-0.39,0.22-0.84,0.45-1.28,0.32c-0.69-0.21-1.08-1.4-1.37-1.99c-0.81-1.68-1.62-3.36-2.43-5.05
	c-0.86-1.79-1.81-3.64-1.87-5.67c-0.05-1.86,0.73-3.63,1.22-5.43c0.46-1.69,0.67-3.44,0.62-5.19c0.02,0.51-1.26,1.87-1.56,2.34
	c-0.56,0.88-1.1,1.78-1.62,2.69c-0.34,0.59-2.75,4.19-1.67,4.72c0.9,4.04,0.6,8.3,1.85,12.24c1.04,3.29,3.1,6.14,5.13,8.93
	c0.2,0.27,0.42,0.94,0.58,1.23c1.14,2.08,2.22,4.19,3.17,6.37c0.9,2.07,1.52,3.48,1,5.7c-0.23,0.99-0.18,2.03-0.12,3.04
	c0.24,4.29,0.48,8.57,0.51,12.86c0.03,4.25-0.16,8.55-1.33,12.64c-0.38,1.31-0.85,2.78-0.22,3.99c0.28,0.53,0.74,0.94,1.2,1.33
	c0.29,0.24,0.6,0.48,0.97,0.57s0.81-0.02,1-0.34c-0.55-0.54-1.09-1.07-1.64-1.62c-0.15-0.15-0.3-0.31-0.35-0.52
	c-0.1-0.47,0.43-0.84,0.52-1.32c0.05-0.24-0.02-0.48-0.02-0.72c0-0.79,0.65-1.4,1.11-2.05c0.7-0.99,0.99-2.2,1.24-3.38
	c0.92-4.35,1.57-8.77,2.96-12.99c0.79-2.41,1.84-4.78,2.04-7.3c0.12-1.45-0.04-2.95,0.42-4.33c0.22-0.67,0.6-1.37,0.4-2.05
	c-0.23-0.79-1.11-1.18-1.9-1.41c1.54-1.14,2.94-1.59,4.83-1.11c1.27,0.33,2.58,1.15,3.79,1.69c-0.53-1.6-2.27-2.42-3.89-2.88
	c-2.17-0.61-3.97-1.15-6.28-0.92c-0.68,0.07-1.41,0.16-2.02-0.15c-0.46-0.23-0.78-0.65-1.08-1.06c-0.6-0.8-1.15-1.61-1.6-2.5
	c-0.28-0.56-0.81-1.35-0.28-1.95c0.15-0.17,0.37-0.26,0.58-0.34c1.43-0.56,2.89-1.14,4.42-1.3c-2.04-0.93-4.08-1.86-6.12-2.8
	c-0.12-0.05-0.24-0.11-0.31-0.22c-0.1-0.15-0.07-0.36-0.02-0.54c0.15-0.65,0.35-1.28,0.58-1.91c0.4,0.09,0.78-0.17,1.1-0.43
	c1.38-1.12,2.64-2.38,3.78-3.75C120.6,66.17,119.21,66.75,117.87,67.44z"/>
<linearGradient id="SVGID_00000088818757892173260060000014095113859540831905_" gradientUnits="userSpaceOnUse" x1="34.5854" y1="48.1039" x2="23.3888" y2="81.1691">
	<stop  offset="0" style="stop-color:#040404"/>
	<stop  offset="0.9997" style="stop-color:#2D2D2D;stop-opacity:0"/>
</linearGradient>
<path style="fill:url(#SVGID_00000088818757892173260060000014095113859540831905_);" d="M40.8,72.78
	c-0.11-0.37-0.53-1.06-0.48-1.32c-0.25,1.36,0.1,2.84-0.44,4.11c-0.44,1.02-1.37,1.72-2.26,2.37c-3.89-3-8.11-5.94-12.97-6.67
	c-0.39-0.06-0.8-0.11-1.14-0.31c-0.73-0.44-0.9-1.4-1.11-2.22c-0.15-0.57-0.42-1.2-0.93-1.54c-0.22-0.15-0.46-0.21-0.67-0.36
	c-0.24-0.18-0.44-0.41-0.7-0.58c-0.9-0.56-2.15-0.91-2.39-1.94c-0.16-0.7-0.19-1.24-0.61-1.89c-0.4-0.63-0.94-1.17-1.58-1.57
	c-0.72-0.45-1.58-0.73-2.12-1.39c-0.33-0.41-0.5-0.91-0.67-1.41c-0.72-2.13-1.54-4.29-2.92-6.1c-0.2-0.26-0.43-0.68-0.76-0.78
	c-0.52-0.15-0.69,0.37-0.93,0.74c-0.8,1.28-1.5,2.71-0.88,4.23c0.14,0.33,0.32,0.64,0.51,0.94c0.48,0.79,0.98,1.57,1.48,2.35
	c0.42,0.66,0.63,1.43,1.02,2.12c0.83,1.49,1.94,2.8,2.87,4.23c0.7,1.09,1.3,2.24,1.98,3.34c1.06,1.69,2.34,3.23,3.43,4.9
	c0.87,1.34,1.73,2.79,2.32,4.28c0.59,1.48,1.24,2.98,2.02,4.35c0.8,1.4,1.93,2.49,3.02,3.66c1.06,1.15,2.01,2.37,3.15,3.46
	c1.44,1.38,2.76,2.75,4.47,3.84c1.31,0.84,2.32,1.96,3.93,2.25c1.77,0.31,3.62-0.32,5.05-1.35c0.7-0.5,1.18-1.15,1.78-1.74
	c0.65-0.64,1.19-1.16,1.32-2.13c0.06-0.42,0.02-0.84,0.01-1.26c-0.05-1.49,0.13-2.99,0.15-4.47c0.02-1.47,0.03-2.94,0.05-4.41
	c0.05-2.74,0.32-5.39,0.92-8.07c0.59-2.61,0.81-5.33,1.12-7.99c0.04-0.35,0.08-0.69,0.12-1.04c0.16-1.42,0.33-2.85,0.49-4.27
	c-0.53,0.78-1,1.6-1.39,2.46c-0.23,0.51-0.44,1.03-0.74,1.5c-0.76,1.22-2.08,2.08-2.63,3.41c-0.05,0.13-0.1,0.27-0.07,0.41
	c0.05,0.2,0.24,0.32,0.37,0.47c0.25,0.32,0.21,0.76,0.14,1.16c-0.26,1.63-0.72,3.29-1.81,4.53c-0.23,0.26-0.51,0.51-0.85,0.55
	c-0.59,0.07-0.61-0.37-0.68-0.77C40.82,72.84,40.81,72.81,40.8,72.78z"/>
<linearGradient id="SVGID_00000132086416937159872870000016156674296497462672_" gradientUnits="userSpaceOnUse" x1="-133.073" y1="-86.2658" x2="-157.5721" y2="-83.5821" gradientTransform="matrix(0.9989 -0.046 -0.046 -0.9989 197.3486 0.3988)">
	<stop  offset="0" style="stop-color:#040404"/>
	<stop  offset="0.9997" style="stop-color:#2D2D2D;stop-opacity:0"/>
</linearGradient>
<path style="fill:url(#SVGID_00000132086416937159872870000016156674296497462672_);" d="M48.2,63.17
	c-0.83,6.78-1.92,13.55-2.48,20.36c-0.25,2.97-0.12,5.8,0.02,8.76c0.16,3.13-0.08,6.27-0.31,9.39c-0.06,0.84-0.28,1.89-1.1,2.1
	c-0.14,0.04-0.3,0.04-0.41,0.13c-0.14,0.11-0.18,0.3-0.22,0.47c-0.31,1.62-0.62,3.24-0.92,4.86c0.53,0.05,0.66,0.75,0.65,1.28
	c-0.02,0.85-0.04,1.71-0.06,2.56c-0.04,1.64-0.08,3.29-0.33,4.91c-0.12,0.78-0.29,1.56-0.41,2.34c-0.35,2.33-0.22,4.7-0.09,7.05
	c0.03,0.49,0.5,1.2,0.71,0.52c0.07-0.24-0.14-0.7-0.12-0.98c0.04-0.5,0.29-1.04,0.43-1.52c0.56-2.04,1.06-4.11,1.24-6.23
	c0.08-0.95,0.11-1.92,0.33-2.85c0.31-1.28,1.01-2.5,1.02-3.82c0-0.21-0.01-0.44,0.13-0.6c0.12-0.14,0.33-0.18,0.51-0.2
	c0.89-0.12,1.78-0.24,2.67-0.37c0.8-0.11,1.63-0.23,2.33-0.62c0.71-0.39,1.29-1.13,1.25-1.94c-2.4,0.7-4.95,0.9-7.43,0.6
	c-0.23-0.66-0.45-1.46-0.01-2.01c0.16-0.2,0.39-0.34,0.59-0.49c0.73-0.56,1.2-1.45,1.24-2.37c0.01-0.2,0.01-0.42,0.14-0.57
	c0.16-0.18,0.45-0.16,0.69-0.13c1.23,0.11,2.48-0.11,3.59-0.65c-1.16-0.15-2.31-0.43-3.41-0.83c0.09,0.03-0.14-3.53-0.2-3.85
	c-0.22-1.21-0.53-2.41-0.39-3.64c0.15-1.3,0.66-2.54,0.73-3.85c0.06-1.24-0.25-2.47-0.16-3.71c0.06-0.8-0.2-1.75,0.15-2.49
	c0.11-0.23,0.25-0.43,0.4-0.63c0.92-1.28,1.85-2.55,2.77-3.83c-1.41,0.75-2.89,1.56-3.67,2.95c-0.01-1.94,0.5-3.85,0.49-5.75
	c-0.01-2.04-0.05-4.04,0.13-6.08c0.13-1.37,0.32-2.73,0.44-4.09c0.19-2.02,0.23-4.05,0.26-6.08c0.02-1.29,0.03-2.58,0.03-3.88
	c0-0.68,0.36-2.64-0.32-3.01c-0.37,1.35-0.27,3.02-0.41,4.44C48.54,60.28,48.38,61.72,48.2,63.17z"/>
<linearGradient id="SVGID_00000006698078164815589120000007856822945148455862_" gradientUnits="userSpaceOnUse" x1="-2930.7759" y1="-1568.7234" x2="-2933.2585" y2="-1564.5062" gradientTransform="matrix(0.6752 -0.4841 -0.5263 -0.734 1289.1003 -2445.2126)">
	<stop  offset="0" style="stop-color:#040404"/>
	<stop  offset="0.1001" style="stop-color:#080C13;stop-opacity:0.8997"/>
	<stop  offset="0.3418" style="stop-color:#0F1C32;stop-opacity:0.6578"/>
	<stop  offset="0.5768" style="stop-color:#152849;stop-opacity:0.4225"/>
	<stop  offset="0.8" style="stop-color:#182F56;stop-opacity:0.1991"/>
	<stop  offset="0.9988" style="stop-color:#19315B;stop-opacity:0"/>
</linearGradient>
<path style="fill:url(#SVGID_00000006698078164815589120000007856822945148455862_);" d="M133.89,123.98
	c0.05-0.36-0.07-0.8-0.26-1.09c-0.08-0.13-0.19-0.25-0.34-0.27c0.18,0.43,0.01,0.96-0.35,1.27c-0.16,0.14-0.29,0.2-0.37,0.41
	c-0.01,0.03-0.02,0.06-0.02,0.09s0.02,0.05,0.04,0.07c0.09,0.13,0.2,0.27,0.36,0.3c0.08,0.01,0.15,0,0.23-0.02
	c0.12-0.03,0.24-0.07,0.34-0.15C133.71,124.45,133.85,124.2,133.89,123.98z"/>
<linearGradient id="SVGID_00000013886936336198485220000009956625562978491290_" gradientUnits="userSpaceOnUse" x1="5.3235" y1="92.9742" x2="11.4583" y2="94.3899" gradientTransform="matrix(1 0 0 -1 0 149.8898)">
	<stop  offset="0" style="stop-color:#040404"/>
	<stop  offset="0.181" style="stop-color:#090F19;stop-opacity:0.8188"/>
	<stop  offset="0.5303" style="stop-color:#12213D;stop-opacity:0.4691"/>
	<stop  offset="0.8154" style="stop-color:#172D53;stop-opacity:0.1836"/>
	<stop  offset="0.9988" style="stop-color:#19315B;stop-opacity:0"/>
</linearGradient>
<path style="fill:url(#SVGID_00000013886936336198485220000009956625562978491290_);" d="M9.27,55.56c-0.01,0.12,0,0.24,0.02,0.36
	c0.02,0.11,0.05,0.23,0.1,0.33c0.2,0.43,0.74,0.66,1.19,0.5c0.01-0.04-0.03-0.07-0.06-0.09c-0.22-0.18-0.35-0.45-0.39-0.73
	s0-0.57,0.07-0.84c0.02-0.06,0.03-0.13,0-0.19c-0.03-0.06-0.12-0.08-0.19-0.09C9.59,54.78,9.31,55.15,9.27,55.56z"/>
<linearGradient id="SVGID_00000173870382821943646980000012834944560565005199_" gradientUnits="userSpaceOnUse" x1="97.8631" y1="76.7824" x2="83.0957" y2="120.0298" gradientTransform="matrix(1 0 0 -1 0 149.8898)">
	<stop  offset="0" style="stop-color:#000000"/>
	<stop  offset="1" style="stop-color:#FFFFFF;stop-opacity:0"/>
</linearGradient>
<path style="fill:url(#SVGID_00000173870382821943646980000012834944560565005199_);" d="M82.04,34.11
	c0.39,0.29,0.95,0.74,1.02,0.75c0.1,0.01,0.19-0.02,0.29-0.04c3.68-0.94,7.11-2.84,9.86-5.46c0.28,0.09,0.18,0.51,0.03,0.76
	c-1.31,2.2-2.62,4.39-3.93,6.59c-0.32,0.53-0.64,1.07-1.1,1.47c-0.35,0.3-0.76,0.53-1.14,0.78c-1.16,0.76-2.12,1.82-2.76,3.05
	c-0.5,0.97-0.8,2.03-1.25,3.02c-0.83,1.86-2.15,3.45-3.46,5.02c0.14-1.05,0.27-2.1,0.41-3.15c0.27-2.11,0.23-4.24,0.41-6.36
	c0.11-1.31,0.23-2.65-0.09-3.93c-0.03-0.13-0.07-0.27-0.04-0.4c0.04-0.18,0.19-0.32,0.33-0.44c0.53-0.51,0.91-1.18,1.06-1.9
	C81.69,33.84,81.84,33.95,82.04,34.11z"/>
<linearGradient id="SVGID_00000006685443334072021550000010286552338183957402_" gradientUnits="userSpaceOnUse" x1="84.0816" y1="133.3411" x2="91.6594" y2="118.7141" gradientTransform="matrix(1 0 0 -1 0 149.8898)">
	<stop  offset="0" style="stop-color:#000000"/>
	<stop  offset="1" style="stop-color:#FFFFFF;stop-opacity:0"/>
</linearGradient>
<path style="fill:url(#SVGID_00000006685443334072021550000010286552338183957402_);" d="M81.97,33.77
	c0.04,0.06,0.08,0.12,0.11,0.18c0.25,0.39,0.57,0.8,1.03,0.85c0.22,0.02,0.45-0.05,0.66-0.12c1.37-0.47,2.72-0.96,4.06-1.49
	c0.43-0.17,0.86-0.34,1.26-0.56c1.28-0.7,2.25-1.88,3.51-2.62c0.34-0.2,0.7-0.37,1-0.63c0.26-0.22,0.45-0.51,0.65-0.79
	c0.95-1.36,1.9-2.73,2.65-4.22c0.29-0.57,0.63-1.27,0.61-1.93c0-0.21-0.05-0.41-0.04-0.63c0-0.17-0.11-0.85-0.05-0.95
	c-0.18,0.32-0.35,0.65-0.53,0.97c-0.52,0.97-1.06,1.94-1.8,2.76c-0.51,0.56-1.11,1.04-1.7,1.51c-1.06,0.84-2.13,1.68-3.3,2.36
	s-2.46,1.19-3.81,1.32c-0.27,0.02-0.54,0.03-0.8,0.12s-0.5,0.27-0.57,0.53c-0.06,0.2-0.02,0.42-0.09,0.61
	c-0.16,0.47-0.8,0.51-1.29,0.43c-0.56-0.09-1.11-0.24-1.64-0.43c-0.38-0.14-1.01-0.6-1.39-0.58C80.67,31.59,81.39,32.82,81.97,33.77
	z"/>
<linearGradient id="SVGID_00000171714780281647795850000013076856376042989207_" gradientUnits="userSpaceOnUse" x1="78.7313" y1="125.8949" x2="72.531" y2="117.962" gradientTransform="matrix(1 0 0 -1 0 149.8898)">
	<stop  offset="0" style="stop-color:#000000"/>
	<stop  offset="1" style="stop-color:#FFFFFF;stop-opacity:0"/>
</linearGradient>
<path style="fill:url(#SVGID_00000171714780281647795850000013076856376042989207_);" d="M73.99,30.26
	c0.36-0.03,0.33,0.92,0.32,1.12c-0.01,0.33-0.05,0.67-0.09,1c-0.07,0.49-0.18,0.99-0.47,1.38c-0.24,0.32-0.65,0.68-1.01,0.32
	c-0.14-0.14-0.21-0.32-0.27-0.5c-0.5-1.46-0.43-3.09,0.02-4.56c0.15-0.47,0.34-0.95,0.7-1.3c0.28,0.99-0.08,2.12,0.4,3.03
	c0.05-0.16,0.11-0.32,0.25-0.42C73.89,30.28,73.94,30.26,73.99,30.26z"/>
<linearGradient id="SVGID_00000135658834437325998390000006396779257275968190_" gradientUnits="userSpaceOnUse" x1="62.6898" y1="108.5071" x2="71.9843" y2="103.7918" gradientTransform="matrix(1 0 0 -1 0 149.8898)">
	<stop  offset="0" style="stop-color:#000000"/>
	<stop  offset="1" style="stop-color:#FFFFFF;stop-opacity:0"/>
</linearGradient>
<path style="fill:url(#SVGID_00000135658834437325998390000006396779257275968190_);" d="M68.8,53.07
	c-0.08,0.55-0.15,1.09-0.23,1.64c-0.1,0.7-0.19,1.4-0.25,2.11c0.77-0.98,0.88-2.31,1.05-3.55c0.36-2.53,0.52-5.02,1.16-7.52
	c0.65-2.53,1.51-5,2.37-7.47c0.17-0.47,0.33-0.95,0.56-1.39c0.43-0.82,0.79-1.98-0.09-2.67c-0.23,0.19-0.82-0.04-0.81-0.05
	c-0.36,0.3-0.46,1.21-0.57,1.64c-0.17,0.62-0.31,1.24-0.45,1.87c-0.27,1.25-0.5,2.5-0.75,3.75c-0.51,2.47-0.96,4.96-1.37,7.45
	C69.21,50.28,69,51.67,68.8,53.07z"/>
<linearGradient id="SVGID_00000112596369453726611850000008521766776124528795_" gradientUnits="userSpaceOnUse" x1="27.5776" y1="40.9643" x2="73.3666" y2="40.1726" gradientTransform="matrix(1 0 0 -1 0 149.8898)">
	<stop  offset="0" style="stop-color:#040404"/>
	<stop  offset="0.9997" style="stop-color:#2D2D2D;stop-opacity:0"/>
</linearGradient>
<path style="fill:url(#SVGID_00000112596369453726611850000008521766776124528795_);" d="M68.35,114.01
	c0.32,4.36,0.01,8.73-0.39,13.08c-0.04,0.44-0.09,0.9-0.27,1.3c-0.28,0.59-0.87,1.02-1.51,1.1c0.69-1.47,1.39-3.07,1.06-4.66
	c-0.1-0.47-0.29-0.92-0.34-1.4c-0.05-0.44,0.01-0.89,0.05-1.34c0.1-1.15,0.01-2.31-0.24-3.44c-0.42-1.82-1.29-3.55-1.29-5.42
	c0-1.23,0.89-4.36-1.2-3.81c-0.24,0.06-0.48,0.13-0.72,0.19c-0.11,0.03-0.22,0.06-0.32,0.11c-0.12,0.06-0.23,0.15-0.34,0.23
	c-0.39,0.32-0.79,0.65-1.24,0.88c-0.45,0.23-0.97,0.36-1.47,0.26c0.78-0.61,1.67-1.08,2.46-1.68c2.58-1.94,3.4-4.47,3.36-7.63
	c-0.03-2.3-0.32-4.58-0.6-6.86c-0.07-0.55-0.14-1.1-0.21-1.64c-0.15-1.2-0.3-2.41-0.46-3.61c0.73,1.05,1.45,2.09,2.18,3.14
	c0.18,0.25,0.35,0.51,0.46,0.8c0.15,0.4,0.15,0.84,0.15,1.26c0,3.11-0.14,6.25-0.04,9.35C67.52,107.51,68.11,110.75,68.35,114.01z"
	/>
<linearGradient id="SVGID_00000022526333384516077310000006896672285103808926_" gradientUnits="userSpaceOnUse" x1="76.9864" y1="124.7127" x2="77.5954" y2="115.8663" gradientTransform="matrix(1 0 0 -1 0 149.8898)">
	<stop  offset="0" style="stop-color:#000000"/>
	<stop  offset="1" style="stop-color:#FFFFFF;stop-opacity:0"/>
</linearGradient>
<path style="fill:url(#SVGID_00000022526333384516077310000006896672285103808926_);" d="M74.72,28.89c0.14-0.35,0.4-0.66,0.75-0.78
	c0.27-0.09,0.57-0.05,0.85-0.03c0.85,0.06,1.72-0.05,2.53-0.32c0.23-0.08,0.48-0.16,0.7-0.07c0.17,0.07,0.28,0.24,0.36,0.41
	c0.17,0.39,0.22,0.84,0.12,1.26c-0.91-0.32-1.9-0.33-2.84-0.14c-0.94,0.19-1.83,0.57-2.67,1.03c-0.08,0.04,0.02-0.51,0.02-0.54
	C74.59,29.43,74.62,29.15,74.72,28.89z"/>
<linearGradient id="SVGID_00000044871438333367565920000002173580680130236060_" gradientUnits="userSpaceOnUse" x1="85.8768" y1="116.7417" x2="76.5109" y2="117.5254" gradientTransform="matrix(1 0 0 -1 0 149.8898)">
	<stop  offset="0" style="stop-color:#000000"/>
	<stop  offset="1" style="stop-color:#2C9FD7;stop-opacity:0"/>
</linearGradient>
<path style="fill:url(#SVGID_00000044871438333367565920000002173580680130236060_);" d="M79.14,30.67c0.29,0.7,0.49,1.42,0.62,2.17
	c0.05,0.3,0.09,0.61,0.04,0.91c-0.18,0.99-1.2,1.49-1.81,2.19c0.46-0.19,1.33,0.03,1.81,0.11c0.19,0.03,0.38,0.06,0.57,0.03
	c0.34-0.05,0.61-0.3,0.8-0.59c0.51-0.79,0.72-1.93,0.42-2.83c-0.2-0.6-0.55-1.15-0.81-1.73c-0.15-0.35-0.27-0.72-0.5-1.04
	c-0.28-0.38-1.15-0.98-1.65-0.7C78.1,29.49,78.99,30.3,79.14,30.67z"/>
<linearGradient id="SVGID_00000175316420144760959000000014346003820225694621_" gradientUnits="userSpaceOnUse" x1="65.7538" y1="117.25" x2="80.69" y2="116.0961" gradientTransform="matrix(1 0 0 -1 0 149.8898)">
	<stop  offset="0" style="stop-color:#000000"/>
	<stop  offset="1" style="stop-color:#2C9FD7;stop-opacity:0"/>
</linearGradient>
<path style="fill:url(#SVGID_00000175316420144760959000000014346003820225694621_);" d="M74.16,33.53c0,0.09,0.01,0.18,0.05,0.27
	s0.11,0.16,0.17,0.23c0.13,0.13,0.25,0.26,0.38,0.39c0.37,0.39,0.76,0.81,0.83,1.34c-0.37,0.02-0.74,0.14-1.05,0.35
	c-0.4-0.36-0.75-0.78-1.03-1.23c-0.1-0.16-0.2-0.35-0.17-0.54c0.02-0.15,0.12-0.28,0.21-0.4c0.44-0.62,0.68-1.37,0.69-2.12
	c0-0.28-0.03-0.56,0.02-0.84c0.04-0.29,0.1-0.5,0.39-0.44C74.41,31.56,74.11,32.47,74.16,33.53z"/>
<linearGradient id="SVGID_00000054240120033082762510000003391237443027446415_" gradientUnits="userSpaceOnUse" x1="58.6722" y1="93.4633" x2="81.2696" y2="92.4663" gradientTransform="matrix(1 0 0 -1 0 149.8898)">
	<stop  offset="0" style="stop-color:#000000"/>
	<stop  offset="1" style="stop-color:#2C9FD7;stop-opacity:0"/>
</linearGradient>
<path style="fill:url(#SVGID_00000054240120033082762510000003391237443027446415_);" d="M76.45,64.23
	c0.32-0.82,0.57-1.75,1.03-2.49c0.41-0.68,0.71-1.22,0.91-2.02c0.53-2.11,0.72-4.31,1.03-6.47c0.33-2.33,0.62-4.68,0.78-7.03
	c0.11-1.62,0.14-3.24,0.12-4.87c-0.02-1.34,0.15-2.61-0.01-3.98c-0.19-1.56-1.62-1.56-2.99-1.4c0.94,3.61,0.75,7.36-0.08,10.99
	c-0.27,1.17-0.59,2.36-1.25,3.36c-0.29,0.44-0.65,0.84-0.87,1.32c-0.2,0.45-0.26,0.94-0.34,1.42c-0.47,2.9-1.6,5.62-2.06,8.5
	c-0.47,2.99-0.98,5.98-1.68,8.93c-0.1,0.41-0.2,0.82-0.2,1.24c0,0.25,0.03,0.5,0.05,0.75c0.03,0.44,0.06,0.93-0.01,1.37
	c-0.07,0.41-0.24,0.76-0.25,1.19c-0.03,1.03-0.07,2.05-0.1,3.08c0,0.09,0.02,0.22,0.11,0.23c0.08,0.01,0.13-0.07,0.16-0.15
	c0.81-1.77,1.52-3.56,2.32-5.34C74.22,69.98,75.33,67.12,76.45,64.23z"/>
<g>
	<path class="st23" d="M102.87,41.02c-0.06-0.29-0.31-0.49-0.55-0.66c-1.18-0.84-2.36-1.69-3.54-2.53c-0.21-0.15-0.41-0.29-0.6-0.46
		c-0.21-0.18-0.41-0.35-0.62-0.52c-0.42-0.34-0.83-0.67-1.25-1.02c-0.42-0.35-0.81-0.71-1.19-1.1c-0.37-0.38-0.74-0.78-1.04-1.22
		c-0.15-0.21-0.29-0.44-0.42-0.66c-0.1-0.18-0.18-0.49-0.36-0.6c-0.03-0.02-0.08,0-0.09,0.04c-0.08,0.39,0.38,0.94,0.57,1.24
		c0.27,0.43,0.56,0.86,0.86,1.27c0.6,0.82,1.28,1.59,2.05,2.26c1.45,1.26,3.21,2.14,4.71,3.34c0.19,0.15,0.36,0.31,0.53,0.49
		c-0.07,0.22-0.06,0.45-0.12,0.67c-0.05,0.21-0.12,0.41-0.21,0.61c-0.18,0.4-0.41,0.77-0.65,1.13c-0.54,0.8-1.05,1.58-1.45,2.47
		c-0.43,0.97-0.88,1.93-1.4,2.85c-0.54,0.97-1.13,1.91-1.66,2.88c-0.02,0.04,0.03,0.07,0.06,0.03c1.35-1.81,2.49-3.75,3.48-5.78
		c0.43-0.87,1-1.63,1.53-2.44c0,0,0-0.01,0.01-0.01c0.04,0.01,0.08,0.01,0.11-0.03c0.28-0.32,0.54-0.66,0.74-1.04
		c0.05-0.1,0.1-0.19,0.15-0.29c0.02,0.13,0.03,0.27,0.01,0.4C102.51,41.87,102.96,41.47,102.87,41.02z"/>
	<path class="st23" d="M122.06,33.05c-0.18-0.13-0.36-0.26-0.55-0.37c-0.32-0.2-0.64-0.4-0.98-0.54c-0.49-0.21-1.01-0.31-1.53-0.39
		s-1.02-0.26-1.53-0.41c-1.64-0.51-3.29-1.01-4.93-1.53c-0.8-0.25-1.6-0.5-2.41-0.74c-0.3-0.09-0.61-0.17-0.92-0.26
		c0-0.05-0.02-0.09-0.07-0.11c-0.32-0.1-0.65-0.2-0.97-0.3c-0.08-0.04-0.16-0.08-0.24-0.13c-0.62-0.41-1.2-0.81-1.89-1.09
		c-0.5-0.2-1.05-0.49-1.59-0.54c-0.22-0.02-0.38,0.04-0.59-0.07c-0.18-0.1-0.33-0.27-0.44-0.45c-0.18-0.29-0.28-0.62-0.48-0.9
		c-0.19-0.26-0.46-0.46-0.72-0.65c-0.44-0.33-0.89-0.65-1.33-0.98c-0.06-0.04-0.13-0.09-0.2-0.06c-0.09,0.03,0.05,0.33,0.08,0.38
		c0.08,0.18,0.07,0.31,0.11,0.5c0.1,0.58,0.04,1.16-0.03,1.74c0.25-0.14,0.58-0.14,0.83-0.01c0.32,0.17,0.53,0.48,0.73,0.78
		c0.35,0.53,0.71,1.06,1.06,1.59c0.16,0.24,0.33,0.49,0.59,0.62c0-0.36-0.07-0.7-0.07-1.05c0-0.17,0.04-0.38,0.2-0.42
		c0.09-0.02,0.18,0.02,0.27,0.06c1.86,0.89,3.55,2.14,5.48,2.86c0.46,0.17,0.95,0.32,1.44,0.33c0.33,0.01,0.66-0.04,0.98-0.04
		c0.48,0,0.96,0.09,1.43,0.18c1.58,0.31,3.15,0.65,4.68,1.17c0.76,0.26,1.5,0.57,2.21,0.94c0.35,0.19,0.67,0.42,1.02,0.61
		c0.31,0.16,0.55,0.27,0.82,0.53c0.42,0.41,0.77,0.9,1.12,1.38c0.03-0.14-0.01-0.28-0.05-0.41
		C123.3,34.39,122.78,33.59,122.06,33.05z"/>
	<path class="st23" d="M89.63,37.02c-0.17,0.26-0.35,0.52-0.53,0.78c-0.44,0.63-0.93,1.16-1.19,1.88c-0.3,0.82-0.75,1.6-1.13,2.38
		c-0.62,1.27-1.24,2.54-1.87,3.81c-1.23,2.49-2.42,5-3.61,7.5c-0.66,1.4-1.36,2.78-1.95,4.21c-0.01,0.01,0.02,0.02,0.02,0.01
		c-0.03,0.06-0.06,0.12-0.08,0.17c-0.71,1.53-1.33,3.07-2.05,4.59c-0.72,1.51-1.3,3.08-1.73,4.7c3.21-3.74,4.3-8.79,6.33-13.28
		c1.68-3.71,4.02-7.08,6.42-10.37c0.69-0.95,1.38-1.9,1.84-2.98c0.28-0.67,0.46-1.37,0.63-2.08c0.4-1.68,0.73-3.38,1-5.09
		C91.12,34.55,90.42,35.82,89.63,37.02z"/>
	<path class="st23" d="M106.91,87.05v0.06c0,0.01,0.02,0.01,0.02,0v-0.06C106.93,87.04,106.91,87.04,106.91,87.05z"/>
	<path class="st23" d="M106.73,86.78c-0.22,0.17-0.39,0.32-0.57,0.54s-0.36,0.45-0.54,0.68c-0.35,0.44-0.69,0.89-1,1.35
		c-0.32,0.46-0.62,0.94-0.89,1.43c-0.18,0.31-0.6,0.99-0.27,1.31c0.03,0.03,0.09,0.04,0.13,0c0.14-0.15,0.12-0.36,0.18-0.55
		c0.07-0.27,0.21-0.51,0.35-0.75c0.27-0.46,0.57-0.9,0.86-1.35c0.28-0.43,0.57-0.86,0.87-1.28c0.17-0.24,0.35-0.47,0.54-0.71
		c0.17-0.21,0.28-0.4,0.4-0.64C106.79,86.8,106.76,86.76,106.73,86.78z"/>
	<g>
		<path class="st23" d="M133.71,123.13L133.71,123.13L133.71,123.13z"/>
		<path class="st23" d="M133.5,122.64c-0.09-0.03-0.19-0.01-0.28,0c-0.08,0.01-0.15,0.04-0.23,0.07c-0.12,0.05-0.25,0.13-0.33,0.24
			c-0.04,0.06-0.09,0.11-0.12,0.18c-0.04,0.07-0.05,0.14-0.06,0.23c-0.01,0.06-0.01,0.13,0,0.19c0.01,0.03,0.02,0.07,0.03,0.09
			s0.02,0.02,0.03,0.04c0.01,0.01,0.02,0.03,0.03,0.04c0.01,0.02,0.05,0.02,0.05-0.01c0-0.02,0.01-0.04,0.02-0.06
			c0.01-0.02,0.03-0.05,0.04-0.07c0.02-0.05,0.04-0.09,0.07-0.14c0.01-0.01,0.02-0.02,0.02-0.03c-0.02,0.02,0,0,0.01-0.01
			c0.02-0.02,0.03-0.04,0.04-0.06c-0.01,0.02-0.01,0.01,0,0c0.02-0.02,0.04-0.04,0.06-0.06c0.01-0.01,0.02-0.02,0.03-0.03l0,0
			c0.05-0.03,0.09-0.06,0.14-0.09c0.01-0.01,0.03-0.01,0.04-0.02c0.01,0,0.02-0.01,0.02-0.01s-0.01,0-0.02,0.01
			c0.03-0.01,0.05-0.02,0.08-0.03c0.06-0.02,0.11-0.03,0.17-0.04c0.03-0.01,0.05-0.01,0.08-0.02c0.04-0.01,0.08-0.02,0.12-0.04
			c0.07-0.03,0.11-0.13,0.1-0.2C133.64,122.72,133.58,122.66,133.5,122.64z"/>
	</g>
	<path class="st23" d="M11,55.57c-0.07-0.35-0.28-0.74-0.64-0.86c-0.03-0.01-0.05,0.03-0.03,0.05c0.15,0.13,0.21,0.44,0.26,0.62
		c0.06,0.25,0.07,0.52-0.02,0.77c-0.04,0.11-0.1,0.22-0.1,0.34c0,0.01,0,0.03,0.01,0.04c0.01,0.02,0.04,0.01,0.06,0.01
		C10.95,56.45,11.08,55.92,11,55.57z"/>
	<path class="st23" d="M101.6,104.3c-0.18-0.44-0.36-0.93-0.81-1.17c-0.49-0.25-1.14-0.2-1.67-0.19c-2.58,0.03-5.17,0.05-7.75,0.09
		c-0.74,0.01-1.47,0.02-2.21,0.06c-0.41,0.02-0.91,0.06-1.09,0.49c-0.03,0.06,0.05,0.1,0.1,0.08c0.45-0.22,0.88-0.21,1.37-0.2
		c0.56,0.01,1.12,0.01,1.69,0.01c1.12,0,2.25,0,3.37-0.01c1.15-0.01,2.29-0.01,3.44-0.01c0.56,0,1.12-0.02,1.68,0.01
		c0.25,0.01,0.53,0.01,0.76,0.11c0.26,0.1,0.4,0.35,0.54,0.58c0.31,0.5,0.51,1.07,0.65,1.64c0.16,0.6,0.31,1.2,0.39,1.81
		c0.01,0.05,0.07,0.05,0.07,0C102.28,106.42,102.06,105.38,101.6,104.3z"/>
	<path class="st23" d="M51.95,103.83c-1.08-0.19-2.24-0.19-3.34-0.19c-1.05,0-2.09,0.08-3.13,0.21c0.34-0.39,0.48-0.86,0.55-1.37
		c0.08-0.65,0.1-1.31,0.13-1.97c0.07-1.39,0.11-2.79,0.12-4.18c0.02-2.82-0.05-5.63-0.04-8.45c0-0.21,0.01-0.42,0.01-0.63
		c0.05-0.47,0.06-0.95,0.11-1.4c0.1-0.83,0.31-1.62,0.51-2.42c0.32-1.3,0.05-2.65-0.27-3.93c0.21-2.76,0.49-5.51,0.8-8.25
		c0.35-3.1,0.96-6.17,1.22-9.28c0-0.02-0.04-0.03-0.04-0.01c-0.69,2.64-1.08,5.39-1.46,8.1c-0.38,2.68-0.76,5.35-1,8.05
		c-0.25,2.74-0.4,5.48-0.44,8.22c-0.04,2.75,0.05,5.49,0.07,8.24c0.01,1.53,0.01,3.06-0.04,4.59c-0.03,0.79-0.07,1.57-0.13,2.36
		c-0.05,0.66-0.06,1.44-0.5,1.98c-0.11,0.13-0.07,0.3,0.03,0.39c-0.35,0.05-0.72,0.12-1,0.36c-0.33,0.29-0.41,0.71-0.49,1.12
		c-0.11,0.56-0.22,1.13-0.33,1.69c-0.1,0.54-0.21,1.06-0.18,1.61c0,0.05,0.07,0.07,0.1,0.03c0.44-0.86,0.56-1.89,0.76-2.82
		c0.09-0.42,0.12-1.05,0.49-1.33c0.34-0.25,0.91-0.25,1.31-0.29c1.01-0.12,2.02-0.18,3.03-0.21c0.51-0.01,1.01-0.02,1.52-0.01
		c0.53,0.01,1.05,0.07,1.58,0.08C52.08,104.12,52.12,103.86,51.95,103.83z"/>
	<path class="st23" d="M125.3,85.38c-0.44,0.11-0.89,0.17-1.33,0.27c-0.46,0.11-0.91,0.26-1.36,0.4c-0.84,0.27-1.7,0.55-2.51,0.92
		c-0.67,0.3-1.29,0.71-1.61,1.4c-0.35,0.72-0.46,1.56-0.55,2.35c-0.2,1.85-0.02,3.74,0.07,5.6c0.1,1.85,0.19,3.71,0.2,5.56
		c0,1.06-0.03,2.11-0.1,3.16s-0.22,2.09-0.32,3.14c-0.02,0.17,0.25,0.2,0.29,0.04c0.47-1.7,0.55-3.53,0.59-5.28
		c0.04-1.81-0.03-3.62-0.12-5.43c-0.09-1.75-0.23-3.5-0.21-5.25c0.01-0.92,0.08-1.85,0.29-2.75c0.19-0.8,0.49-1.45,1.24-1.87
		c0.84-0.47,1.77-0.8,2.66-1.13c0.44-0.17,0.89-0.32,1.34-0.5C124.36,85.82,124.82,85.58,125.3,85.38
		C125.33,85.4,125.32,85.38,125.3,85.38z"/>
	<path class="st23" d="M119.29,123.73c-0.42-0.28-0.83-0.53-1.22-0.86c-0.38-0.33-0.73-0.69-1.04-1.08
		c-0.16-0.2-0.37-0.42-0.39-0.69c-0.02-0.3,0.07-0.62,0.12-0.92c0.09-0.57,0.15-1.15,0.27-1.72c0-0.01-0.02-0.02-0.02-0.01
		c-0.16,0.62-0.38,1.24-0.57,1.85c-0.09,0.29-0.22,0.61-0.18,0.92c0.03,0.25,0.18,0.48,0.33,0.68c0.64,0.86,1.52,1.71,2.49,2.18
		C119.32,124.2,119.51,123.88,119.29,123.73z"/>
	<path class="st23" d="M131.66,85.93c-0.21-0.1-0.44-0.16-0.66-0.23c-0.23-0.07-0.46-0.14-0.69-0.22c-0.22-0.07-0.44-0.15-0.65-0.24
		c-0.21-0.09-0.41-0.24-0.63-0.27c-0.04-0.01-0.08,0.03-0.06,0.08c0.11,0.19,0.33,0.3,0.52,0.4c0.21,0.11,0.44,0.21,0.67,0.29
		c0.22,0.08,0.45,0.16,0.68,0.24c0.23,0.08,0.46,0.18,0.7,0.25C131.71,86.28,131.83,86.01,131.66,85.93z"/>
	<path class="st23" d="M73.81,25.54c-0.29,0.1-0.5,0.35-0.72,0.55c-0.23,0.22-0.46,0.44-0.69,0.65c-0.49,0.47-0.99,0.93-1.48,1.4
		c-0.42,0.4-0.84,0.79-1.25,1.19c-0.16,0.08-0.27,0.23-0.4,0.36c-0.13,0.13-0.27,0.25-0.4,0.38c-0.12,0.12-0.23,0.24-0.34,0.37
		c-0.12,0.12-0.25,0.24-0.37,0.36c-0.86,0.86-1.68,1.75-2.42,2.71c-0.27,0.35-0.6,0.75-0.86,1.17c-0.38,0.55-0.63,1.23-0.51,1.9
		h0.01c0.04,0.11,0.2,0.14,0.23,0c0.18-0.76,0.46-1.43,1-2.01c0.53-0.57,1.24-0.88,1.83-1.38c0.61-0.52,0.76-1.3,1.17-1.96
		c0.22-0.35,0.49-0.65,0.79-0.94c0.13-0.12,0.27-0.25,0.39-0.39c0.53-0.5,1.06-1,1.59-1.5c0.46-0.43,0.92-0.87,1.38-1.31
		c0.23-0.22,0.46-0.43,0.69-0.65c0.22-0.21,0.47-0.4,0.59-0.69C74.08,25.64,73.93,25.5,73.81,25.54z"/>
	<path class="st23" d="M68.04,30.2c-0.67,0.09-1.33,0.38-1.97,0.59c-0.67,0.22-1.34,0.44-2.01,0.66c-1.33,0.44-2.65,0.88-3.97,1.34
		c-1.29,0.45-2.57,0.93-3.82,1.48c-1.14,0.5-2.2,1.14-3.02,2.09c-0.47,0.55-0.89,1.14-1.3,1.73c-0.41,0.6-0.9,1.24-1.12,1.94
		c-0.02,0.06,0.06,0.1,0.11,0.06c0.47-0.43,0.82-1.01,1.2-1.52c0.39-0.52,0.79-1.04,1.21-1.54c0.4-0.47,0.83-0.92,1.35-1.26
		c0.12-0.08,0.25-0.16,0.38-0.23c0.2-0.08,0.4-0.15,0.62-0.2c0.79-0.2,1.6-0.1,2.34-0.46c0.74-0.37,1.43-0.84,2.17-1.21
		c0.39-0.19,0.78-0.37,1.17-0.53s0.82-0.27,1.19-0.48c0.01-0.01,0.02-0.01,0.03-0.02c0.42-0.14,0.84-0.28,1.26-0.42
		c0.73-0.25,1.47-0.49,2.2-0.74c0.69-0.23,1.49-0.4,2.13-0.76C68.4,30.59,68.32,30.17,68.04,30.2z"/>
	<path class="st23" d="M49.07,43.71c-0.22,0.3-0.41,0.58-0.57,0.91c-0.18,0.36-0.35,0.73-0.54,1.09c-0.36,0.68-0.71,1.35-1.05,2.04
		c-0.68,1.37-1.37,2.74-2.03,4.12c-1.29,2.67-2.79,5.22-4.18,7.83c-0.81,1.51-1.65,3.03-2.37,4.58c-0.13,0.28,0.26,0.52,0.42,0.24
		c0.02-0.04,0.04-0.07,0.06-0.11c0.09,0.02,0.2,0,0.24-0.1c0.26-0.58,0.63-1.2,1.11-1.61c0.22-0.19,0.53-0.12,0.73-0.34
		c0.19-0.21,0.27-0.55,0.36-0.81c0.5-1.37,1.05-2.74,1.37-4.16c0.16-0.29,0.32-0.58,0.48-0.86c1.49-2.64,2.75-5.37,4.03-8.11
		c0.36-0.78,0.72-1.56,1.06-2.35c0.17-0.39,0.35-0.78,0.53-1.17s0.31-0.75,0.42-1.17C49.14,43.7,49.09,43.68,49.07,43.71z"/>
	<path class="st23" d="M40.39,71.98c-0.1-0.51-0.28-1-0.45-1.49C39.77,70,39.58,69.51,39.46,69c-0.12-0.54-0.09-1.04-0.06-1.58
		c0-0.01-0.02-0.02-0.02-0.01c-0.25,0.42-0.27,0.93-0.26,1.41c0.01,0.5,0.12,1,0.26,1.48c0.15,0.5,0.34,0.98,0.51,1.47
		c0.19,0.54,0.41,1.09,0.43,1.68c0,0.08,0.11,0.08,0.12,0C40.48,72.96,40.49,72.46,40.39,71.98z"/>
	<path class="st23" d="M30.31,55.2c-0.56-0.41-1.19-0.72-1.79-1.08c-0.61-0.37-1.21-0.75-1.79-1.16c-1.2-0.84-2.34-1.76-3.44-2.73
		c-0.78-0.69-1.59-1.39-2.31-2.16c-0.16-0.25-0.33-0.49-0.54-0.7c-0.09-0.09-0.19-0.18-0.29-0.26c-0.4-0.52-0.8-1.06-1.35-1.41
		c0.09-0.15,0-0.41-0.21-0.39c-0.16,0.01-0.33,0.04-0.49,0.07c-0.41-0.11-0.84-0.1-1.18,0.18c-0.04,0.04-0.05,0.09-0.04,0.14
		c-0.03,0.01-0.06,0.02-0.1,0.03c-0.54,0.15-1.17,0.23-1.66,0.53c-0.09,0.06-0.17,0.14-0.25,0.22l0,0
		c-0.22,0.08-0.43,0.18-0.64,0.28c-0.03,0.01-0.04,0.04-0.04,0.07c-0.12,0.01-0.24,0.02-0.36,0.09c-0.49,0.3-0.94,0.74-1.39,1.1
		c-0.93,0.74-1.83,1.51-2.69,2.34C8.93,51.15,8.08,52,7.52,53c-0.04,0.06,0.05,0.14,0.1,0.08c0.79-0.83,1.53-1.69,2.39-2.46
		c0.83-0.74,1.72-1.41,2.6-2.1c0.45-0.35,0.9-0.71,1.35-1.06c0.24-0.18,0.48-0.1,0.74-0.21c0.21-0.09,0.35-0.25,0.51-0.4
		c0.41-0.38,1.07-0.45,1.59-0.6c0.27-0.07,0.54-0.14,0.8-0.2c0.28,0.11,0.56,0.27,0.82,0.42c0.31,0.18,0.62,0.38,0.9,0.59
		c0.11,0.08,0.22,0.17,0.33,0.26c0.12,0.16,0.24,0.31,0.36,0.46c0.88,1.07,1.96,1.99,3,2.9c1.01,0.89,2.06,1.73,3.15,2.52
		c1.11,0.79,2.28,1.44,3.43,2.15c0.68,0.42,1.23,0.96,1.79,1.52c0.6,0.6,1.25,1.15,1.87,1.73c0.02,0.02,0.04-0.01,0.02-0.02
		C32.37,57.42,31.53,56.09,30.31,55.2z"/>
	<path class="st23" d="M48.36,130.78c-0.77-0.4-1.54-0.77-2.32-1.15c-0.68-0.32-1.42-0.61-2.03-1.05c-0.63-0.46-0.85-1.15-0.97-1.89
		c-0.13-0.84-0.23-1.67-0.46-2.49c-0.01-0.04-0.07-0.03-0.07,0.01c-0.02,0.89,0.07,1.78,0.19,2.66c0.1,0.73,0.31,1.43,0.86,1.94
		c0.57,0.53,1.34,0.85,2.03,1.18c0.86,0.41,1.72,0.8,2.61,1.16C48.41,131.23,48.56,130.88,48.36,130.78z"/>
	<path class="st23" d="M71.3,34.55c-0.17,0.22-0.29,0.46-0.45,0.68c-0.2,0.27-0.42,0.52-0.66,0.76c-0.42,0.42-0.86,0.81-1.3,1.2
		c-0.94,0.82-1.89,1.63-2.88,2.4c-0.98,0.77-1.98,1.5-3.03,2.18c-0.52,0.33-1.04,0.66-1.56,0.97c-0.27,0.16-0.55,0.32-0.82,0.47
		c-0.26,0.15-0.54,0.27-0.76,0.47c-0.12,0.11-0.08,0.26,0.02,0.34c-0.09,0.09-0.15,0.21-0.19,0.34c-0.06,0.17,0.11,0.31,0.26,0.29
		c-0.11,0.65-0.11,1.32-0.04,1.96c0.02,0.18,0.05,0.35,0.09,0.53c-0.02,0.83,0.03,1.67,0.15,2.48c0.02,0.13,0.23,0.1,0.23-0.03
		c-0.01-0.21,0-0.42,0-0.64c0.05,0.28,0.1,0.56,0.12,0.85c0.08,1.12-0.02,2.24-0.09,3.35c-0.07,1.14-0.09,2.28-0.08,3.41
		c0,0.63,0.01,1.25,0.04,1.88c0.03,0.67,0.16,1.34,0.22,2.01c0,0.01,0.02,0.01,0.02,0c-0.03-0.72,0.03-1.43,0.02-2.15
		s-0.01-1.43,0.01-2.15c0.04-1.43,0.21-2.84,0.3-4.26c0.09-1.36,0.04-2.65-0.27-3.97c0-0.52-0.01-1.05-0.01-1.57
		c-0.01-0.83,0.13-1.63,0.31-2.43c0.17-0.09,0.34-0.16,0.53-0.22c0.18-0.06,0.37-0.08,0.54-0.17c0.33-0.17,0.61-0.49,0.87-0.76
		c0.18-0.19,0.34-0.39,0.48-0.59c0.58-0.38,1.15-0.77,1.7-1.18c1.6-1.17,3.1-2.47,4.45-3.93c0.37-0.4,0.73-0.81,1.09-1.22
		c0.3-0.35,0.68-0.77,0.82-1.22C71.46,34.56,71.35,34.49,71.3,34.55z"/>
	<path class="st23" d="M136.08,68.23c-0.22-0.49-0.46-0.98-0.68-1.48l0,0c0.12,0.15,0.41,0.03,0.33-0.17
		c-0.3-0.75-0.62-1.49-0.95-2.24c-0.16-0.36-0.33-0.72-0.49-1.08c-0.15-0.34-0.29-0.79-0.57-1.05c-0.04-0.04-0.1-0.03-0.13,0.01
		c-0.05-0.2-0.1-0.41-0.16-0.61c-0.03-0.1-0.07-0.2-0.1-0.29c-0.37-1.36-0.87-2.69-1.35-4c-0.56-1.53-1.16-3.04-1.78-4.55
		c-0.31-0.76-0.62-1.51-0.94-2.26c-0.32-0.74-0.68-1.49-0.87-2.27c-0.17-0.73-0.18-1.46-0.56-2.13c-0.12-0.21-0.25-0.41-0.38-0.61
		c-0.01-0.03-0.01-0.06-0.02-0.09c-0.08-0.35-0.15-0.7-0.26-1.04c-0.1-0.3-0.21-0.59-0.37-0.86c-0.07-0.26-0.14-0.53-0.22-0.79
		c-0.14-0.47-0.33-1.05-0.74-1.36c-0.09-0.33-0.18-0.65-0.28-0.97c-0.15-0.46-0.36-0.91-0.49-1.37c0-0.02-0.03-0.01-0.02,0.01
		c0.08,0.38,0.11,0.79,0.18,1.18c0.08,0.43,0.17,0.86,0.28,1.29c0.18,0.77,0.35,1.55,0.57,2.31c0.21,0.71,0.51,1.36,0.91,1.98
		c0.03,0.05,0.07,0.11,0.1,0.16c0.06,0.2,0.13,0.39,0.24,0.56c0.02,0.04,0.06,0.05,0.1,0.06c0,0.01,0.01,0.01,0.01,0.02
		c0.32,1.89,0.24,3.77-0.05,5.66c0,0.01,0.02,0.02,0.02,0.01c0.23-1.12,0.51-2.31,0.56-3.48c0.14,0.41,0.31,0.81,0.49,1.22
		c0.34,0.78,0.67,1.58,1,2.37c0.63,1.53,1.23,3.06,1.82,4.61c0.58,1.54,1.11,3.11,1.76,4.62c0.09,0.51,0.11,1.03,0.2,1.52
		c0.07,0.4,0.21,0.81,0.44,1.15c0.23,0.35,0.61,0.63,0.76,1.03c0.16,0.44,0.11,0.93,0.27,1.39c0.18,0.49,0.44,0.97,0.66,1.44
		c0.48,1.01,0.97,2.01,1.46,3.02c0.57,1.16,1.14,2.33,1.8,3.44c0.05,0.09,0.2,0.03,0.17-0.07
		C138.01,72.36,137.01,70.29,136.08,68.23z"/>
	<path class="st23" d="M140.8,81.05c-0.31-0.52-0.12-1.03-0.16-1.6c-0.03-0.45-0.19-0.82-0.43-1.2c-0.23-0.35-0.49-0.69-0.79-0.98
		c-0.33-0.33-0.72-0.57-1.09-0.84c-0.02-0.01-0.04,0.02-0.03,0.03c0.33,0.31,0.63,0.65,0.94,0.98s0.61,0.68,0.77,1.11
		c0.16,0.42,0.2,0.88,0.18,1.32c-0.03,0.44-0.04,0.85,0.13,1.25c-0.23-0.22-0.48-0.43-0.72-0.63c-0.34-0.3-0.69-0.59-1.06-0.84
		c-0.39-0.27-0.8-0.47-1.25-0.63c-0.02-0.01-0.04,0.03-0.02,0.04c0.77,0.43,1.57,0.92,2.19,1.57c0.52,0.54,0.88,1.22,1.3,1.84
		c0.12,0.57,0.24,1.14,0.4,1.7c0.15,0.54,0.33,1.06,0.41,1.6c0,0.34-0.01,0.67,0,1c0,0.12,0,0.23,0,0.35
		c-0.02,0.51-0.04,1.01-0.03,1.52c0,0.38,0.01,0.75,0.02,1.13c0.01,0.2-0.01,0.42,0.02,0.63c-0.01,1.46,0,2.93-0.12,4.38
		c-0.15,1.7-0.66,3.33-0.97,5c-0.29,1.61-0.53,3.25-1.13,4.79c-0.32,0.83-0.77,1.56-0.89,2.46c-0.03,0.22-0.05,0.43-0.07,0.64
		c-0.14,0.27-0.32,0.53-0.42,0.82c-0.13,0.34-0.01,0.72-0.01,1.07c0,0.46-0.06,0.92-0.14,1.37c-0.27,1.64-0.59,3.27-0.97,4.89
		c-0.54,2.28-1.17,4.54-1.85,6.79c-0.22,1.17-0.47,2.32-0.54,3.52c0.37-1.14,0.74-2.29,1.09-3.44c1.08-3.51,2.07-7.06,2.68-10.69
		c0.14-0.8,0.28-1.61,0.22-2.43c0.33-0.58,0.36-1.31,0.42-1.96c0.04-0.38,0.08-0.76,0.19-1.13c0.13-0.42,0.34-0.81,0.53-1.21
		c0.7-1.5,1.01-3.12,1.29-4.74c0.14-0.82,0.3-1.64,0.49-2.46c0.19-0.83,0.4-1.66,0.51-2.51c0.22-1.64,0.21-3.33,0.19-4.99
		c0.04-0.21,0.01-0.43-0.01-0.64c-0.01-0.62-0.03-1.23-0.06-1.85c0-0.42,0.01-0.83,0.02-1.24c0,0.01,0,0.03,0,0.04
		c0.01,0.11,0.19,0.16,0.21,0.03C142.64,84.86,141.83,82.8,140.8,81.05z"/>
	<path class="st24" d="M74.93,40.48c-0.09-0.69-0.21-1.39-0.22-2.09c0-0.36,0.02-0.73,0.1-1.08c0.06-0.29,0.27-0.61,0.18-0.9
		c-0.03-0.1-0.15-0.19-0.25-0.14c-0.3,0.12-0.37,0.42-0.45,0.72c-0.1,0.34-0.14,0.7-0.15,1.05c-0.03,0.74,0.09,1.48,0.2,2.21
		c0.12,0.78,0.23,1.58,0.44,2.34c0.22,0.8,0.5,1.6,0.8,2.38c0.02,0.06,0.11,0.04,0.09-0.03C75.22,43.5,75.13,41.97,74.93,40.48z"/>
	<path class="st24" d="M74.26,49.33c-0.22-0.79-0.43-1.59-0.63-2.39c-0.2-0.78-0.37-1.56-0.5-2.34c-0.07-0.4-0.14-0.81-0.2-1.21
		c-0.05-0.38-0.08-0.81-0.25-1.15c-0.05-0.09-0.18-0.06-0.21,0.03c-0.13,0.37-0.07,0.81-0.03,1.19c0.04,0.39,0.09,0.77,0.16,1.16
		c0.15,0.83,0.35,1.65,0.57,2.46c0.22,0.8,0.48,1.58,0.76,2.35c0.27,0.77,0.54,1.58,0.93,2.31c0.01,0.01,0.03,0,0.02-0.01
		C74.75,50.91,74.48,50.12,74.26,49.33z"/>
	<path class="st24" d="M72.06,53.37c-0.16-0.99-0.32-1.97-0.43-2.96c-0.05-0.46-0.09-0.92-0.11-1.38c-0.02-0.5,0.01-1,0-1.51
		c0-0.2-0.28-0.23-0.34-0.05c-0.3,0.92-0.18,1.99-0.07,2.93c0.12,0.97,0.26,1.94,0.43,2.9c0.35,1.99,0.78,3.98,1.41,5.9
		c0.01,0.04,0.07,0.02,0.06-0.02C72.73,57.25,72.37,55.31,72.06,53.37z"/>
	<path class="st24" d="M70.78,59.61c-0.22-0.91-0.45-1.81-0.66-2.72c-0.11-0.47-0.2-0.94-0.27-1.42c-0.06-0.45-0.05-0.91-0.12-1.35
		c-0.03-0.17-0.31-0.16-0.34,0c-0.07,0.31-0.07,0.65-0.05,0.98c-0.05-0.01-0.1,0.01-0.09,0.08c0,0.02,0.01,0.03,0.01,0.05l0,0
		c0.02,0.36,0.06,0.72,0.14,1.08c0.07,0.36,0.2,0.69,0.35,1.02c0,0,0.01,0,0.01,0.01c0.17,0.76,0.35,1.51,0.54,2.26
		c0.49,1.88,1.06,3.73,1.73,5.56c0.01,0.04,0.08,0.03,0.07-0.02C71.67,63.3,71.23,61.45,70.78,59.61z"/>
	<path class="st24" d="M69.33,65.47c-0.2-0.93-0.39-1.86-0.54-2.8c-0.16-0.93-0.23-1.89-0.44-2.81c-0.05-0.21-0.38-0.16-0.38,0.05
		c0,0.93,0.2,1.91,0.36,2.82c0.17,0.96,0.35,1.91,0.59,2.86c0.46,1.84,0.97,3.72,1.77,5.44c0.02,0.05,0.09,0.01,0.08-0.03
		C70.29,69.14,69.72,67.33,69.33,65.47z"/>
	<path class="st24" d="M69.32,75.25c-0.3-0.83-0.56-1.68-0.79-2.53c-0.47-1.73-0.72-3.5-1.02-5.26c-0.04-0.22-0.4-0.17-0.39,0.05
		c0.04,1.8,0.45,3.61,0.98,5.33c0.52,1.69,1.17,3.47,2.17,4.94c0.01,0.01,0.03,0.01,0.03-0.01C70,76.92,69.63,76.09,69.32,75.25z"/>
	<path class="st24" d="M69.38,81.01c-0.44-0.97-0.82-1.94-1.16-2.95c-0.16-0.47-0.32-0.94-0.48-1.42c-0.16-0.49-0.27-1-0.48-1.46
		c-0.07-0.15-0.31-0.07-0.3,0.08c0.04,0.51,0.21,1.01,0.36,1.5s0.32,0.98,0.52,1.46c0.41,0.98,0.9,1.94,1.43,2.85
		C69.31,81.14,69.41,81.08,69.38,81.01z"/>
	<path class="st24" d="M76.98,38.46c-0.16-0.68-0.18-1.38-0.26-2.06c-0.03-0.25-0.41-0.27-0.4,0c0.02,0.71,0.23,1.42,0.46,2.08
		c0.23,0.67,0.47,1.32,0.84,1.92c0.01,0.02,0.04,0.01,0.04-0.01C77.39,39.76,77.13,39.12,76.98,38.46z"/>
	<path class="st24" d="M77.1,35.71c-0.51-0.5-1.05-0.94-1.58-1.41c-0.47-0.41-0.86-0.9-0.94-1.54c-0.01-0.08-0.06-0.15-0.15-0.17
		c-0.07-0.01-0.17,0.04-0.18,0.12c-0.02,0.17-0.03,0.32,0.01,0.49c0.04,0.17,0.11,0.33,0.2,0.48c0.18,0.3,0.43,0.54,0.7,0.76
		c0.6,0.49,1.23,0.94,1.88,1.35C77.09,35.81,77.14,35.74,77.1,35.71z"/>
	<path class="st24" d="M78.72,34.68c-0.81-0.59-1.6-1.18-2.27-1.93c-0.3-0.34-0.55-0.73-0.73-1.14c-0.1-0.21-0.17-0.43-0.22-0.66
		c-0.05-0.24-0.07-0.46-0.15-0.68c-0.04-0.1-0.17-0.1-0.21,0c-0.18,0.44,0,0.98,0.17,1.4c0.19,0.46,0.46,0.87,0.79,1.24
		c0.7,0.8,1.68,1.33,2.6,1.82C78.72,34.74,78.74,34.7,78.72,34.68z"/>
	<path class="st24" d="M79.56,33.33c-0.57-0.52-1.09-1.07-1.48-1.74c-0.19-0.32-0.35-0.66-0.47-1.01c-0.13-0.37-0.18-0.75-0.29-1.13
		c-0.07-0.24-0.46-0.2-0.44,0.06c0.03,0.4,0.19,0.81,0.34,1.18c0.16,0.38,0.35,0.73,0.58,1.07c0.45,0.65,1.02,1.26,1.72,1.62
		C79.55,33.4,79.59,33.36,79.56,33.33z"/>
</g>
<g>
	<path d="M78.5,28.32c2.9-0.8,5.67-2,8.38-3.29c2.72-1.3,5.41-2.68,8.09-4.06c0.62-0.32,1.16-0.75,1.2-1.49
		c0.04-0.57-0.12-1.25-0.59-1.61c-0.18-0.13-0.46-0.03-0.56,0.15c-0.12,0.21-0.03,0.42,0.15,0.56c-0.03-0.02,0.05,0.09,0.07,0.15
		c0.04,0.09,0.06,0.2,0.08,0.29c0.04,0.19,0.05,0.42,0.01,0.6c-0.04,0.16-0.22,0.32-0.4,0.44c-0.27,0.18-0.57,0.31-0.86,0.46
		c-1.22,0.61-2.43,1.23-3.64,1.85c-2.54,1.3-5.1,2.58-7.75,3.66c-1.44,0.59-2.91,1.11-4.41,1.53C77.78,27.67,77.99,28.46,78.5,28.32
		L78.5,28.32z"/>
</g>
<g>
	<path d="M73.86,32.45c-0.12,0.36-0.25,0.74-0.45,1.06c-0.11,0.17-0.23,0.31-0.26,0.51c-0.05,0.26,0.07,0.5,0.17,0.74
		c0.19,0.42,0.37,0.9,0.66,1.27c0.3,0.38,0.72,0.43,1.17,0.39c0.47-0.04,0.95,0,1.43-0.03c0.5-0.04,0.99-0.06,1.49-0.03
		c0.94,0.06,1.92,0.49,2.78-0.1c0.9-0.62,1.07-1.69,1.37-2.66c0.16-0.5-0.63-0.72-0.79-0.22c-0.22,0.7-0.31,1.52-0.87,2.06
		c-0.6,0.57-1.45,0.21-2.16,0.13c-0.86-0.1-1.7,0.03-2.55,0.02c-0.18,0-0.36-0.02-0.54,0c-0.17,0.01-0.35,0.06-0.52,0.03
		c-0.14-0.02-0.19-0.12-0.26-0.24c-0.11-0.19-0.2-0.39-0.3-0.59c-0.06-0.12-0.11-0.23-0.16-0.35c-0.03-0.07-0.11-0.19-0.11-0.26
		c0.01-0.1,0.19-0.3,0.24-0.39c0.19-0.35,0.32-0.73,0.45-1.11C74.82,32.17,74.03,31.96,73.86,32.45L73.86,32.45z"/>
</g>
<g>
	<path d="M80.76,29.98c-0.15-0.43-0.64-0.86-1.04-1.06c-0.34-0.17-0.81-0.13-1.18-0.13c-0.46-0.01-0.93,0.02-1.39,0.08
		c-0.75,0.09-1.57,0.23-2.19,0.7c-0.6,0.45-1.01,1.22-0.95,1.98c0.04,0.52,0.85,0.53,0.82,0c-0.04-0.53,0.25-1.09,0.7-1.38
		c0.5-0.32,1.14-0.42,1.72-0.49c0.67-0.08,1.43-0.14,2.1-0.02c-0.08-0.01-0.01-0.01,0.03,0.02s0.08,0.05,0.12,0.08
		c0.06,0.05,0.12,0.1,0.18,0.15c0.08,0.08,0.16,0.15,0.24,0.24c0.01,0.01,0.09,0.1,0.05,0.06c0.02,0.02,0.06,0.12,0.02,0.01
		C80.15,30.69,80.94,30.48,80.76,29.98L80.76,29.98z"/>
</g>
<g>
	<path d="M76.94,28.64c0.41-0.05,0.81-0.14,1.22-0.24c0.35-0.08,0.76-0.22,1.13-0.18c0.31,0.03,0.36,0.38,0.41,0.63
		c0.08,0.39,0.13,0.78,0.22,1.16c0.18,0.77,0.54,1.51,0.87,2.23c0.32,0.72,0.67,1.44,1.12,2.09c0.22,0.31,0.47,0.6,0.8,0.8
		c0.35,0.21,0.68,0.18,1.06,0.05c0.72-0.25,1.43-0.5,2.14-0.76c1.39-0.52,2.77-1.11,4.04-1.88c0.73-0.44,1.4-0.95,2.05-1.5
		c0.68-0.57,1.41-1.08,2.14-1.58c0.43-0.3,0.02-1.01-0.41-0.71c-0.63,0.44-1.27,0.88-1.87,1.36c-0.59,0.46-1.14,0.96-1.77,1.37
		c-1.21,0.81-2.54,1.43-3.9,1.95c-0.68,0.26-1.37,0.51-2.06,0.75c-0.18,0.06-0.36,0.12-0.54,0.19c-0.15,0.05-0.29,0.13-0.43,0.06
		c-0.3-0.13-0.51-0.47-0.68-0.74c-0.42-0.66-0.76-1.37-1.07-2.09c-0.32-0.73-0.62-1.44-0.77-2.22c-0.13-0.7-0.18-1.7-1.01-1.94
		c-0.43-0.12-0.92,0-1.34,0.09c-0.44,0.1-0.88,0.23-1.33,0.29c-0.22,0.03-0.41,0.17-0.41,0.41C76.54,28.43,76.72,28.67,76.94,28.64
		L76.94,28.64z"/>
</g>
<g>
	<path d="M97.52,21.82c1.14,0.63,2.24,1.32,3.26,2.13c0.51,0.41,0.99,0.84,1.46,1.29c0.52,0.51,1,1.02,1.22,1.73
		c0.19,0.61,0.19,1.25,0.21,1.89c0.02,0.72,0.06,1.44,0.06,2.16c0,0.75-0.02,1.5-0.04,2.25c-0.01,0.3,0.01,0.62-0.06,0.91
		c-0.09,0.35-0.34,0.52-0.65,0.68c-1.52,0.79-3.08,1.51-4.61,2.27c-0.18,0.09-0.28,0.39-0.15,0.56c0.72,0.94,1.75,1.61,2.75,2.22
		c0.62,0.38,1.26,0.73,1.91,1.05c-0.07-0.12-0.14-0.24-0.2-0.35c0.01,0.25-0.13,0.5-0.24,0.71c-0.18,0.35-0.39,0.69-0.6,1.02
		c-0.42,0.67-0.76,1.38-1.14,2.08c-1.04,1.95-2.23,3.82-3.46,5.66c-1.22,1.82-2.46,3.63-3.64,5.48c-1.22,1.9-2.41,3.81-3.62,5.71
		c-2.41,3.79-4.96,7.46-7.73,11c-2.77,3.55-5.68,7-8.38,10.6c-1.21,1.62-2.32,3.32-3.21,5.14c-0.91,1.87-1.6,3.83-2.16,5.83
		c-0.14,0.51,0.65,0.72,0.79,0.22c0.5-1.79,1.1-3.57,1.89-5.25c0.77-1.63,1.71-3.17,2.75-4.64c2.59-3.64,5.53-7.05,8.3-10.56
		c2.77-3.51,5.37-7.12,7.78-10.89c2.44-3.79,4.81-7.61,7.33-11.34c1.39-2.06,2.76-4.14,3.94-6.32c0.44-0.81,0.83-1.62,1.31-2.39
		c0.37-0.59,0.92-1.34,0.9-2.07c0-0.14-0.07-0.29-0.2-0.35c-0.6-0.29-1.19-0.62-1.76-0.96c-0.92-0.55-1.94-1.16-2.61-2.02
		c-0.05,0.19-0.1,0.37-0.15,0.56c1.5-0.74,3.01-1.47,4.51-2.21c0.62-0.31,1.06-0.73,1.17-1.44c0.11-0.76,0.08-1.55,0.09-2.32
		c0.01-0.82,0.01-1.64-0.03-2.46c-0.04-0.71-0.02-1.43-0.14-2.13c-0.25-1.49-1.36-2.5-2.46-3.44c-1.22-1.05-2.57-1.94-3.98-2.71
		C97.47,20.86,97.06,21.57,97.52,21.82L97.52,21.82z"/>
</g>
<g>
	<path d="M103,40.68c-0.73-0.27-1.4-0.69-2.03-1.12c-0.8-0.55-1.56-1.15-2.3-1.78c-1.44-1.23-2.81-2.56-4.07-3.98
		c-0.46-0.52-0.93-1.05-1.29-1.65c-0.07-0.11-0.25-0.01-0.18,0.1c0.31,0.51,0.71,0.98,1.1,1.44c0.59,0.68,1.21,1.34,1.85,1.97
		c1.41,1.41,2.9,2.76,4.53,3.91c0.73,0.51,1.49,1,2.33,1.31C103.07,40.93,103.12,40.73,103,40.68L103,40.68z"/>
</g>
<g>
	<path d="M67.19,92.29c-2.73-3.4-3.82-7.78-4.52-12c-0.81-4.87-0.97-9.81-1.42-14.72c-0.22-2.46-0.47-4.91-0.58-7.38
		c-0.11-2.49-0.07-4.98-0.13-7.46c-0.06-2.24-0.41-4.49-0.33-6.73c0-0.09,0.01-0.18,0.02-0.27c0-0.04,0.01-0.07,0.01-0.11
		c-0.02,0.14,0.01,0.01,0.01-0.02c0-0.02,0.01-0.04,0.02-0.06c0,0.01-0.03,0.06-0.04,0.08c-0.03,0.04-0.17,0.1-0.05,0.07
		c0.07-0.02,0.14-0.08,0.21-0.11c0.12-0.06,0.24-0.13,0.36-0.19c0.69-0.37,1.38-0.74,2.05-1.14c1.11-0.66,2.13-1.47,3.15-2.26
		c0.4-0.31,0.79-0.62,1.19-0.93c0.18-0.14,0.14-0.43,0-0.58c-0.17-0.17-0.4-0.13-0.58,0c-1.18,0.91-2.33,1.89-3.58,2.7
		c-0.56,0.36-1.13,0.69-1.71,1c-0.43,0.23-0.86,0.47-1.29,0.7c-0.25,0.13-0.43,0.23-0.5,0.51c-0.1,0.39-0.07,0.83-0.07,1.22
		c0.01,0.64,0.04,1.27,0.08,1.91c0.06,1.13,0.16,2.26,0.23,3.39c0.14,2.14,0.08,4.3,0.11,6.45c0.04,2.52,0.24,5.04,0.47,7.55
		c0.23,2.5,0.41,5.01,0.59,7.52c0.18,2.49,0.41,4.97,0.76,7.44c0.62,4.39,1.55,8.97,4.03,12.73c0.3,0.45,0.61,0.88,0.95,1.29
		c0.14,0.17,0.43,0.14,0.58,0C67.36,92.7,67.32,92.46,67.19,92.29L67.19,92.29z"/>
</g>
<g>
	<path d="M74.15,24.6c-2.1,1.61-4.07,3.37-5.89,5.3c-0.9,0.95-1.77,1.95-2.6,2.96c-0.42,0.51-0.83,1.03-1.23,1.56
		c-0.34,0.44-0.79,0.9-0.78,1.5c0.02,0.7,0.76,1.19,1.21,1.65c0.54,0.56,1.1,1.1,1.76,1.53c0.44,0.29,0.85-0.42,0.41-0.71
		c-0.52-0.34-0.97-0.77-1.4-1.21c-0.2-0.2-0.4-0.41-0.6-0.61c-0.18-0.17-0.48-0.37-0.54-0.62c-0.05-0.2,0.12-0.41,0.23-0.57
		c0.17-0.24,0.36-0.47,0.54-0.7c0.38-0.49,0.76-0.98,1.16-1.46c1.53-1.87,3.19-3.63,4.97-5.26c1.02-0.93,2.08-1.82,3.18-2.67
		c0.17-0.13,0.27-0.35,0.15-0.56C74.61,24.58,74.32,24.47,74.15,24.6L74.15,24.6z"/>
</g>
<g>
	<path d="M103.59,26.79c3.98,1.88,8.23,3.32,12.48,4.46c1.68,0.45,3.41,0.9,4.93,1.77c0.74,0.42,1.42,0.96,1.91,1.67
		c0.63,0.9,1.01,1.95,1.39,2.98c3.49,9.49,7.07,18.94,10.75,28.35c0.92,2.34,1.84,4.68,2.77,7.02c0.46,1.15,0.92,2.3,1.38,3.45
		c0.43,1.07,0.96,2.15,1.24,3.28c0.13,0.51,0.14,1.04,0.29,1.55c0.15,0.54,0.38,1.05,0.58,1.57s0.41,1.05,0.5,1.6
		c0.1,0.63,0.07,1.28,0.07,1.91c-0.03,2.5-0.09,5.01-0.23,7.51c-0.07,1.24-0.13,2.49-0.32,3.71c-0.18,1.17-0.46,2.32-0.78,3.46
		c-0.64,2.27-1.52,4.47-2.1,6.75c-0.28,1.13-0.31,2.26-0.42,3.41c-0.12,1.22-0.49,2.4-0.8,3.58c-0.64,2.44-1.28,4.88-1.98,7.31
		c-0.32,1.13-0.65,2.27-1,3.39c-0.17,0.53-0.38,1.06-0.52,1.6c-0.15,0.57-0.14,1.2-0.34,1.75c-0.12,0.33-0.37,0.35-0.69,0.33
		c0,0,0.12,0.02,0.01,0c-0.12-0.02-0.23-0.04-0.35-0.07c-0.44-0.09-0.87-0.2-1.3-0.31c-3.24-0.83-6.45-1.95-9.41-3.53
		c-0.82-0.44-1.62-0.92-2.39-1.45c-0.43-0.3-0.84,0.41-0.41,0.71c3.09,2.13,6.69,3.53,10.27,4.58c1.03,0.3,2.07,0.59,3.12,0.8
		c0.39,0.08,0.79,0.14,1.18,0.01c1-0.33,0.88-1.79,1.1-2.62c0.3-1.17,0.74-2.32,1.09-3.48c0.36-1.21,0.7-2.43,1.03-3.65
		c0.68-2.46,1.39-4.93,1.95-7.42c0.27-1.19,0.26-2.38,0.42-3.58c0.17-1.24,0.59-2.44,0.98-3.62c0.75-2.31,1.54-4.61,2-7
		c0.47-2.43,0.52-4.95,0.61-7.41c0.05-1.29,0.07-2.57,0.09-3.86c0.02-1.19,0.12-2.43-0.21-3.59c-0.32-1.11-0.94-2.13-1.09-3.28
		c-0.16-1.18-0.61-2.23-1.06-3.33c-0.95-2.37-1.9-4.75-2.84-7.13c-3.83-9.69-7.55-19.41-11.16-29.18c-0.44-1.2-0.88-2.4-1.33-3.61
		c-0.38-1.04-0.79-2.09-1.43-2.99c-1-1.4-2.56-2.21-4.14-2.79c-1.64-0.6-3.35-0.96-5.01-1.47c-2.32-0.71-4.63-1.48-6.9-2.36
		c-1.19-0.46-2.35-0.95-3.5-1.5C103.53,25.86,103.11,26.57,103.59,26.79L103.59,26.79z"/>
</g>
<g>
	<path d="M117.87,88.28c-0.39,1.07-0.45,2.23-0.42,3.37c0.03,1.17,0.13,2.33,0.14,3.5c0.01,2.62,0.01,5.25,0.02,7.87
		c0,1.31,0.02,2.62-0.04,3.93c-0.06,1.25-0.12,2.5-0.2,3.75c-0.16,2.51-0.41,5.03-0.9,7.5c-0.14,0.69-0.29,1.37-0.46,2.05
		c-0.08,0.31-0.22,0.66-0.22,0.99c0,0.34,0.22,0.62,0.42,0.88c0.75,0.99,1.73,1.85,2.76,2.54c0.44,0.29,0.85-0.42,0.41-0.71
		c-0.88-0.58-1.7-1.31-2.37-2.12c-0.12-0.15-0.38-0.4-0.4-0.59c-0.01-0.11,0.06-0.27,0.09-0.38c0.05-0.18,0.09-0.36,0.14-0.54
		c0.15-0.6,0.29-1.2,0.41-1.81c0.48-2.4,0.74-4.84,0.91-7.27c0.09-1.23,0.15-2.47,0.21-3.71c0.06-1.25,0.08-2.5,0.07-3.75
		c-0.01-2.57-0.01-5.14-0.02-7.71c0-1.3-0.06-2.58-0.12-3.88c-0.06-1.24-0.06-2.51,0.37-3.69C118.84,88,118.05,87.79,117.87,88.28
		L117.87,88.28z"/>
</g>
<g>
	<path d="M106.89,65.7c0.77,3.73,2.98,6.94,5.1,10.02c0.26,0.38,0.52,0.76,0.78,1.14c0.26,0.37,0.54,0.74,0.76,1.14
		c0.16,0.29,0.23,0.62,0.35,0.94c0.06,0.18,0.14,0.36,0.23,0.53c0.11,0.21,0.27,0.4,0.38,0.6c0.31,0.56,0.53,1.18,0.79,1.77
		c0.3,0.71,0.6,1.42,0.89,2.13c0.61,1.49,1.21,2.99,1.71,4.53c0.16,0.5,0.95,0.29,0.79-0.22c-0.43-1.35-0.96-2.67-1.48-3.98
		c-0.56-1.4-1.14-2.8-1.77-4.18c-0.05-0.12-0.11-0.24-0.16-0.36c-0.09-0.19-0.22-0.35-0.33-0.54c-0.19-0.32-0.29-0.67-0.41-1.02
		c-0.27-0.81-0.84-1.49-1.31-2.19c-1.08-1.57-2.18-3.13-3.14-4.77c-1.06-1.8-1.95-3.71-2.37-5.77
		C107.57,64.97,106.78,65.19,106.89,65.7L106.89,65.7z"/>
</g>
<g>
	<path d="M48.66,51.59c-0.11,8.29-1.73,16.44-2.73,24.64c-0.5,4.12-0.81,8.24-0.76,12.39c0.06,4.23,0.35,8.46-0.02,12.69
		c-0.04,0.4-0.06,0.81-0.16,1.2c-0.12,0.46-0.36,0.69-0.77,0.9c-0.76,0.39-1.05,1.01-1.16,1.83c-0.13,0.96-0.23,1.93-0.32,2.89
		c-0.04,0.37-0.27,0.74-0.2,1.11c0.03,0.18,0.13,0.33,0.27,0.44c0.06,0.05,0.11,0.08,0.17,0.11c0.18,0.09,0.16,0.05,0.2,0.23
		c0.04,0.23-0.01,0.53-0.02,0.77c-0.01,0.26-0.01,0.51-0.02,0.77c-0.01,0.54-0.03,1.07-0.05,1.61c-0.04,1.05-0.15,2.09-0.3,3.13
		c-0.14,0.98-0.3,1.93-0.52,2.9c-0.22,1-0.28,2.04-0.32,3.07c-0.04,1.02-0.03,2.05,0.02,3.07c0.05,0.94,0.05,1.98,0.36,2.88
		c0.28,0.79,0.86,1.31,1.61,1.65c0.81,0.37,1.66,0.66,2.5,0.94c3.4,1.14,7,1.83,10.6,1.76c1.78-0.04,3.56-0.27,5.27-0.73
		c0.84-0.23,1.66-0.51,2.46-0.85c0.82-0.35,1.64-0.72,2.35-1.27c0.67-0.52,1.14-1.2,1.35-2.03c0.24-0.94,0.22-1.94,0.25-2.9
		c0.08-2.14,0.15-4.28,0.23-6.42c0.04-1.04,0.07-2.09,0.11-3.13c0.02-0.53-0.8-0.53-0.82,0c-0.07,2.09-0.15,4.18-0.22,6.27
		c-0.04,1.04-0.07,2.09-0.11,3.13c-0.03,0.94,0.01,1.92-0.23,2.84c-0.45,1.75-2.43,2.49-3.96,3.05c-1.64,0.61-3.37,0.98-5.11,1.13
		c-3.5,0.31-7.02-0.19-10.38-1.16c-0.82-0.23-1.63-0.5-2.43-0.79c-0.75-0.27-1.68-0.5-2.27-1.07c-0.64-0.63-0.63-1.71-0.69-2.54
		c-0.08-1.02-0.11-2.04-0.09-3.07c0.02-1.02,0.04-2.06,0.2-3.07c0.15-0.93,0.4-1.83,0.53-2.77c0.14-0.99,0.31-1.97,0.38-2.97
		c0.07-1.01,0.09-2.03,0.11-3.05c0.01-0.46,0.07-0.93,0.02-1.39c-0.01-0.16-0.06-0.31-0.17-0.44c-0.09-0.11-0.43-0.2-0.47-0.31
		c-0.03-0.07,0.13-0.4,0.14-0.49c0.03-0.18,0.05-0.37,0.06-0.55c0.04-0.53,0.11-1.05,0.17-1.58c0.09-0.76,0.02-1.84,0.79-2.25
		c0.31-0.17,0.6-0.31,0.83-0.58c0.24-0.29,0.38-0.66,0.46-1.03c0.19-0.91,0.21-1.88,0.26-2.8c0.05-1,0.07-2.01,0.08-3.01
		c0-2.07-0.07-4.13-0.13-6.19c-0.1-4.07,0.04-8.11,0.47-12.16c0.84-7.95,2.45-15.8,2.88-23.79c0.05-1.01,0.09-2.01,0.1-3.02
		C49.48,51.06,48.66,51.06,48.66,51.59L48.66,51.59z"/>
</g>
<g>
	<path d="M39.27,67.24c-0.22,1.25,0.47,2.37,0.78,3.54c0.34,1.28,0.37,2.64,0.08,3.93c-0.03,0.13,0.17,0.18,0.2,0.05
		c0.26-1.21,0.27-2.47,0.01-3.68c-0.27-1.24-1.11-2.49-0.87-3.79C39.49,67.17,39.29,67.11,39.27,67.24L39.27,67.24z"/>
</g>
<g>
	<path d="M68.95,29.29c-2.41,0.74-4.77,1.63-7.16,2.43c-1.46,0.48-2.94,0.9-4.38,1.44c-1.52,0.58-3.07,1.24-4.26,2.38
		c-2.05,1.96-2.9,4.76-4.12,7.24c-1.69,3.45-3.56,6.82-5.35,10.22c-1.01,1.91-2.03,3.81-3.06,5.71c-0.5,0.93-1.02,1.85-1.52,2.79
		c-0.47,0.89-0.69,1.87-1.03,2.82c0.23-0.06,0.46-0.12,0.68-0.18c-0.57-0.58-1.2-1.11-1.72-1.73c-0.25-0.3-0.42-0.63-0.61-0.96
		c-0.22-0.39-0.48-0.77-0.76-1.13c-1.06-1.39-2.35-2.65-3.61-3.87c-1.35-1.31-2.86-2.41-4.39-3.49c-1.56-1.1-3.02-2.27-4.41-3.58
		c-1.16-1.09-2.45-2.09-3.45-3.32c-0.25-0.31-0.44-0.67-0.69-0.98c-0.18-0.23-0.41-0.25-0.68-0.22c-0.59,0.06-1.21,0.2-1.78,0.35
		c-1.76,0.47-3.33,1.37-4.79,2.45c-1.35,1-2.53,2.15-3.56,3.48c-0.88,1.13-1.88,2.55-1.66,4.06c0.13,0.89,0.66,1.67,1.11,2.43
		c0.5,0.85,1.01,1.71,1.51,2.56c1.99,3.36,3.95,6.73,6.18,9.94c1.03,1.47,2.06,2.95,2.99,4.48c0.97,1.6,1.77,3.26,2.48,4.98
		c0.7,1.7,1.7,3.2,2.78,4.68c1.09,1.5,2.27,2.94,3.53,4.3c1.18,1.27,2.41,2.5,3.7,3.66c1.29,1.15,2.69,2.23,4.24,3.01
		c0.77,0.39,1.6,0.76,2.44,0.93c0.86,0.18,1.75,0.04,2.58-0.21c1.57-0.47,2.98-1.41,4.16-2.54c0.56-0.54,1.07-1.13,1.53-1.75
		c0.32-0.42-0.39-0.83-0.71-0.41c-0.94,1.25-2.11,2.36-3.46,3.15c-0.67,0.39-1.39,0.7-2.15,0.88c-0.88,0.21-1.67,0.17-2.52-0.13
		c-3.17-1.09-5.67-3.53-7.99-5.86c-1.25-1.26-2.44-2.58-3.54-3.98c-1.1-1.39-2.18-2.84-3.05-4.38c-0.86-1.52-1.38-3.22-2.2-4.77
		c-0.82-1.56-1.76-3.04-2.75-4.49c-1.01-1.48-2.06-2.93-3.04-4.44c-1.01-1.55-1.95-3.15-2.89-4.74c-0.98-1.65-1.95-3.3-2.93-4.94
		c-0.44-0.75-1.03-1.53-1.2-2.4c-0.13-0.68,0.13-1.37,0.44-1.96c0.7-1.33,1.77-2.54,2.86-3.56c1.22-1.14,2.64-2.18,4.15-2.91
		c0.8-0.38,1.64-0.67,2.51-0.85c0.24-0.05,0.48-0.1,0.73-0.14c0.1-0.02,0.2-0.04,0.29-0.05c0.05-0.01,0.1,0,0.15-0.01
		c0.24-0.06-0.26,0-0.11-0.07c-0.01,0.01,0.62,0.87,0.66,0.93c0.24,0.3,0.5,0.59,0.77,0.87c0.52,0.53,1.08,1.01,1.63,1.5
		c1.31,1.17,2.54,2.41,3.94,3.48c1.43,1.1,2.97,2.06,4.37,3.2c1.38,1.12,2.62,2.42,3.84,3.71c0.58,0.61,1.14,1.23,1.62,1.92
		c0.44,0.64,0.74,1.33,1.26,1.92c0.5,0.57,1.09,1.06,1.62,1.61c0.23,0.24,0.58,0.1,0.68-0.18c0.29-0.8,0.47-1.65,0.84-2.42
		c0.41-0.83,0.88-1.62,1.32-2.43c0.92-1.68,1.82-3.37,2.72-5.07c1.79-3.37,3.6-6.73,5.34-10.13c0.68-1.33,1.29-2.69,1.91-4.05
		c0.56-1.24,1.18-2.5,2.05-3.56c2.04-2.48,5.44-3.22,8.37-4.16c2.6-0.83,5.15-1.82,7.77-2.63C69.67,29.93,69.46,29.14,68.95,29.29
		L68.95,29.29z"/>
</g>
<g>
	<path d="M118.65,88.56c0.76-0.98,2-1.61,3.12-2.09c1.39-0.6,2.92-0.62,4.34-1.1c0.5-0.16,0.28-0.95-0.22-0.79
		c-0.85,0.28-1.74,0.39-2.61,0.56c-0.67,0.14-1.3,0.34-1.93,0.61c-0.63,0.27-1.24,0.59-1.82,0.96c-0.54,0.35-1.07,0.74-1.46,1.25
		c-0.14,0.17-0.17,0.41,0,0.58C118.21,88.7,118.51,88.73,118.65,88.56L118.65,88.56z"/>
</g>
<g>
	<path d="M128.96,85.03c0.95,0.28,1.86,0.68,2.71,1.19c0.11,0.07,0.22-0.11,0.1-0.18c-0.87-0.51-1.79-0.92-2.76-1.21
		C128.89,84.79,128.83,84.99,128.96,85.03L128.96,85.03z"/>
</g>
<g>
	<path d="M50.43,43.07c-0.25,1.27-0.88,2.54-0.64,3.86c0.02,0.13,0.22,0.07,0.2-0.05c-0.23-1.27,0.4-2.52,0.64-3.75
		C50.65,42.99,50.45,42.94,50.43,43.07L50.43,43.07z"/>
</g>
<g>
	<path d="M63.95,41.25c1.05-0.61,2-1.43,2.93-2.21c1.17-0.98,2.33-2.01,3.39-3.12c0.4-0.42,0.82-0.86,1.13-1.35
		c0.07-0.11-0.11-0.21-0.18-0.1c-0.27,0.43-0.62,0.81-0.97,1.18c-0.48,0.51-0.99,1-1.5,1.48c-1.11,1.03-2.27,2.02-3.47,2.95
		c-0.46,0.35-0.93,0.71-1.43,1C63.73,41.14,63.84,41.32,63.95,41.25L63.95,41.25z"/>
</g>
<g>
	<path d="M109.15,45.48c0.39-0.95,0.99-1.79,1.4-2.73c0.38-0.89,0.62-1.84,1.09-2.7c0.48-0.88,1.21-1.5,2.06-2.01
		c0.91-0.54,1.88-0.99,2.85-1.4c1.14-0.49,2.31-0.95,3.45-1.45c0.24-0.11,0.03-0.46-0.21-0.35c-2.04,0.9-4.16,1.64-6.11,2.75
		c-0.85,0.48-1.63,1.07-2.18,1.9c-0.54,0.82-0.82,1.78-1.17,2.7c-0.42,1.12-1.12,2.09-1.58,3.19
		C108.65,45.61,109.05,45.72,109.15,45.48L109.15,45.48z"/>
</g>
<path d="M107.88,89.63c-0.77,0.63-1.59,1.19-2.46,1.67c-0.4,0.22-0.8,0.42-1.22,0.61c-0.16,0.07-0.83,0.48-0.82,0.03
	c0.01-0.2,0.17-0.43,0.26-0.61c0.81-1.69,1.92-3.23,3.27-4.54c0.13-0.12-0.07-0.32-0.19-0.19c-1.24,1.2-2.28,2.6-3.08,4.13
	c-0.17,0.33-0.96,1.52-0.22,1.69c0.32,0.08,0.74-0.19,1.02-0.32c0.4-0.18,0.79-0.38,1.17-0.59c0.87-0.49,1.7-1.06,2.48-1.69
	C108.21,89.71,108.02,89.52,107.88,89.63z"/>
<g>
	<path d="M44.25,104.07c0.04-0.24,0.85-0.17,1.02-0.17c0.39-0.02,0.77-0.03,1.16-0.05c0.77-0.04,1.54-0.07,2.31-0.1
		c0.72-0.02,1.45-0.05,2.17-0.02c0.69,0.02,1.45,0.27,1.47,1.09c0,0.13,0.21,0.13,0.2,0c-0.02-0.74-0.58-1.17-1.27-1.26
		c-0.81-0.11-1.67-0.04-2.48-0.01c-0.94,0.03-1.88,0.07-2.82,0.12c-0.47,0.02-0.94,0.03-1.41,0.06c-0.2,0.01-0.52,0.05-0.56,0.3
		C44.03,104.15,44.23,104.2,44.25,104.07L44.25,104.07z"/>
</g>
<g>
	<path d="M43.47,109.46c1.67,0.21,3.36,0.25,5.04,0.23c0.86-0.01,1.72-0.04,2.57-0.07c0.28-0.01,0.6,0,0.83-0.18
		c0.22-0.16,0.31-0.43,0.37-0.68c0.21-0.88,0.3-1.79,0.28-2.69c0-0.13-0.21-0.13-0.2,0c0.02,0.92-0.03,1.93-0.32,2.81
		c-0.09,0.27-0.23,0.45-0.51,0.5c-0.23,0.04-0.47,0.03-0.7,0.04c-0.49,0.02-0.98,0.03-1.46,0.05c-1.97,0.05-3.94,0.04-5.9-0.21
		C43.34,109.24,43.34,109.45,43.47,109.46L43.47,109.46z"/>
</g>
<g>
	<path d="M88.04,103.77c-0.08-0.58,0.7-0.57,1.07-0.58c0.44,0,0.87-0.01,1.31-0.02c0.86-0.01,1.72-0.04,2.58-0.06
		c1.05-0.02,2.09-0.06,3.13-0.11c1.01-0.05,2.02-0.1,3.03-0.06c0.41,0.01,0.83,0.03,1.24,0.12c0.47,0.1,0.78,0.4,1.01,0.82
		c0.4,0.72,0.55,1.62,0.67,2.43c0.1,0.68,0.29,1.75-0.4,2.19c-0.11,0.07-0.01,0.25,0.1,0.18c0.54-0.34,0.62-1.01,0.58-1.6
		c-0.05-0.84-0.21-1.69-0.45-2.49c-0.18-0.59-0.47-1.27-1.03-1.58c-0.3-0.17-0.68-0.2-1.01-0.23c-1.11-0.11-2.25-0.05-3.36,0
		c-1.17,0.05-2.33,0.1-3.5,0.13c-1.1,0.03-2.19,0.05-3.29,0.07c-0.59,0.01-2.01-0.15-1.87,0.84
		C87.86,103.96,88.06,103.9,88.04,103.77L88.04,103.77z"/>
</g>
<g>
	<path d="M101.26,108.65c-2.2,0.05-4.4-0.01-6.59-0.04c-1-0.01-1.99-0.02-2.99-0.05c-0.66-0.02-1.31-0.02-1.94-0.16
		c-0.34-0.08-0.68-0.19-0.97-0.39c-0.38-0.27-0.52-0.7-0.57-1.15c-0.1-0.82,0.01-1.64-0.18-2.45c-0.03-0.13-0.23-0.07-0.2,0.05
		c0.18,0.76,0.09,1.54,0.16,2.31c0.06,0.66,0.29,1.23,0.91,1.54c0.69,0.36,1.48,0.4,2.24,0.43c2.01,0.06,4.03,0.07,6.05,0.09
		c1.36,0.01,2.73,0.04,4.09,0.01C101.39,108.86,101.39,108.65,101.26,108.65L101.26,108.65z"/>
</g>
<g>
	<path d="M39.68,66.06c-0.17-0.77-0.55-1.48-1.07-2.07c-0.14-0.16-0.43-0.16-0.58,0c-0.16,0.17-0.15,0.41,0,0.58
		c0.06,0.06,0.11,0.13,0.16,0.19c0.03,0.04,0.02,0.01-0.01-0.01c0.02,0.02,0.03,0.04,0.05,0.06c0.02,0.03,0.05,0.07,0.07,0.1
		c0.1,0.14,0.19,0.29,0.27,0.45c0.04,0.07,0.07,0.15,0.11,0.23c0.02,0.05,0.01,0.01,0-0.01c0.01,0.01,0.02,0.04,0.02,0.06
		c0.02,0.04,0.03,0.08,0.04,0.12c0.06,0.17,0.11,0.34,0.15,0.51c0.05,0.21,0.3,0.35,0.5,0.29C39.61,66.49,39.73,66.29,39.68,66.06
		L39.68,66.06z"/>
</g>
<g>
	<path d="M10.1,56.95c-0.03,0-0.05,0-0.08,0c-0.57-0.05-0.99-0.64-0.93-1.31c0.03-0.32,0.16-0.62,0.37-0.83
		c0.22-0.22,0.5-0.33,0.77-0.3c0.57,0.05,0.99,0.64,0.93,1.31l0,0C11.11,56.46,10.64,56.95,10.1,56.95z M10.15,54.7
		c-0.2,0-0.39,0.09-0.55,0.24c-0.18,0.18-0.29,0.43-0.31,0.71c-0.05,0.56,0.29,1.05,0.75,1.09c0.47,0.04,0.88-0.38,0.93-0.95
		c0.05-0.56-0.29-1.05-0.75-1.09C10.19,54.7,10.17,54.7,10.15,54.7z"/>
</g>
<g>
	<path d="M133.11,124.88c-0.02,0-0.04,0-0.05,0c-0.23-0.02-0.44-0.17-0.58-0.43c-0.13-0.24-0.19-0.55-0.16-0.87s0.14-0.61,0.31-0.83
		c0.18-0.23,0.41-0.34,0.64-0.32c0.46,0.04,0.79,0.62,0.73,1.3l0,0c-0.03,0.32-0.14,0.61-0.31,0.83
		C133.53,124.77,133.33,124.88,133.11,124.88z M133.22,122.63c-0.15,0-0.3,0.09-0.43,0.25c-0.15,0.18-0.24,0.44-0.26,0.72
		c-0.02,0.28,0.02,0.55,0.14,0.75c0.1,0.19,0.25,0.31,0.41,0.32s0.33-0.07,0.46-0.24c0.15-0.18,0.24-0.44,0.26-0.72l0,0
		c0.05-0.55-0.2-1.05-0.55-1.08C133.24,122.63,133.23,122.63,133.22,122.63z"/>
</g>
<g>
	<path d="M82.58,132.24c-2.66,0-5.32-0.23-7.95-0.84c-0.15-0.04-0.38-0.13-0.69-0.28c-1.84-0.87-3.2-2.61-3.63-4.64
		c-0.04-0.2-0.08-0.41-0.12-0.61l-0.07-0.36c-2.85-14.07-3.67-25.48-2.6-35.9c0.2-1.94,0.53-4.49,1.27-6.99
		c0.47-1.57,1.09-3.1,1.69-4.57c0.95-2.32,1.87-4.64,2.8-6.96c2.74-6.86,5.58-13.96,8.83-20.79c2.6-5.47,5.45-10.91,8.45-16.17
		c1.19-2.07,2.42-4.16,3.67-6.2c0.43-0.71,0.87-1.41,1.31-2.11l0.62-1c0.52-0.84,1.11-1.78,1.09-2.7c-0.01-0.34-0.11-0.69-0.2-1.04
		c-0.15-0.55-0.31-1.12-0.6-1.58c-0.3-0.48-0.71-0.79-1.14-0.86c-0.14-0.03-11.1-2.58-20.8,6.74c-0.16,0.16-0.42,0.15-0.58-0.01
		s-0.15-0.42,0.01-0.58c5.24-5.03,10.8-6.66,14.55-7.13c4.07-0.52,6.86,0.15,6.98,0.18c0.63,0.1,1.25,0.55,1.67,1.23
		c0.35,0.57,0.54,1.22,0.7,1.8c0.11,0.39,0.22,0.79,0.23,1.23c0.03,1.16-0.66,2.27-1.21,3.15l-0.63,1c-0.44,0.7-0.88,1.4-1.31,2.1
		c-1.25,2.04-2.48,4.12-3.66,6.18c-3,5.24-5.83,10.66-8.43,16.12c-3.24,6.81-6.07,13.9-8.81,20.75c-0.93,2.32-1.86,4.64-2.8,6.97
		c-0.6,1.46-1.21,2.97-1.67,4.5c-0.72,2.44-1.04,4.94-1.24,6.84c-1.07,10.34-0.25,21.67,2.58,35.66l0.07,0.37
		c0.04,0.2,0.08,0.41,0.12,0.61c0.37,1.78,1.56,3.3,3.18,4.07c0.36,0.17,0.5,0.21,0.53,0.22c6.22,1.45,12.72,0.72,18.85-0.16
		c2.7-0.39,5.33-0.8,7.85-1.65c1.1-0.37,2.05-0.86,3.14-1.48c0.25-0.14,0.5-0.27,0.75-0.39c1.14-0.57,2.04-1.02,2.39-2.85
		c0.06-0.33,0.09-0.7,0.1-1.15c0.02-3.11,0.11-6.27,0.19-9.33c0.07-2.67,0.14-5.43,0.18-8.12c0.06-5.06,0.24-10.92,1.55-16.58
		c1.1-4.75,1.73-10.3,1.6-14.14c-0.01-0.23,0.17-0.42,0.39-0.42h0.01c0.22,0,0.4,0.17,0.41,0.39c0.16,4.74-0.73,10.52-1.62,14.35
		c-1.29,5.57-1.46,11.39-1.53,16.4c-0.03,2.7-0.11,5.46-0.18,8.13c-0.08,3.05-0.16,6.21-0.19,9.31c0,0.51-0.04,0.92-0.11,1.3
		c-0.42,2.22-1.65,2.83-2.83,3.42c-0.24,0.12-0.47,0.24-0.71,0.37c-1.13,0.65-2.13,1.15-3.29,1.54c-2.59,0.87-5.26,1.29-7.99,1.68
		C90.15,131.77,86.37,132.24,82.58,132.24z"/>
</g>
<g>
	<path d="M67.76,87.44c-1.37-7.67-1.55-16.52-0.52-25.58c1-8.75,3.02-20.67,4.79-28.36l0.8,0.18c-1.77,7.66-3.78,19.55-4.78,28.27
		c-1.03,8.98-0.85,17.74,0.51,25.34L67.76,87.44z"/>
</g>
<g>
	<path d="M76.94,28.64h-0.01c-0.81-0.02-2.22-0.57-2.68-1.42c-0.38-0.69-0.64-1.33-0.12-2.19c0.12-0.19,0.37-0.25,0.56-0.14
		c0.19,0.12,0.25,0.37,0.14,0.56c-0.27,0.45-0.2,0.73,0.14,1.37c0.27,0.51,1.34,0.98,1.98,0.99c0.23,0.01,0.4,0.19,0.4,0.42
		S77.17,28.64,76.94,28.64z"/>
</g>
<g>
	<path d="M72.88,34.75c-0.16,0-0.3-0.09-0.37-0.24c-0.09-0.21,0-0.45,0.2-0.54c0.96-0.43,1.3-1.68,1.3-2.62c0-0.13,0-0.27,0-0.4
		c-0.01-0.68-0.02-1.39,0.2-2.08c0.12-0.36,0.27-0.61,0.48-0.8c0.33-0.29,0.78-0.39,1.37-0.31c0.11,0.01,0.22,0.01,0.34,0.01
		c0.22,0,0.44,0,0.65,0.06c0.22,0.06,0.35,0.29,0.28,0.5c-0.06,0.22-0.29,0.34-0.5,0.28c-0.1-0.03-0.27-0.03-0.43-0.03
		c-0.15,0-0.3,0-0.45-0.02c-0.35-0.05-0.58-0.01-0.72,0.12c-0.1,0.08-0.17,0.22-0.24,0.43c-0.18,0.56-0.17,1.17-0.16,1.82
		c0,0.14,0,0.27,0,0.41c0,1.24-0.47,2.77-1.78,3.36C72.99,34.74,72.93,34.75,72.88,34.75z"/>
</g>
<g>
	<path d="M72.88,34.75c-0.12,0-0.25-0.06-0.33-0.16c-0.86-1.15-1.17-2.76-0.87-4.43c0.29-1.56,1.04-2.93,1.74-4.07l0.06-0.1
		c0.19-0.3,0.36-0.59,0.49-0.89c0.09-0.21,0.33-0.31,0.54-0.21c0.21,0.09,0.3,0.33,0.22,0.54c-0.15,0.36-0.35,0.68-0.54,1l-0.06,0.1
		c-0.66,1.08-1.37,2.37-1.63,3.8c-0.27,1.44-0.01,2.82,0.72,3.79c0.14,0.18,0.1,0.44-0.08,0.57C73.05,34.73,72.96,34.75,72.88,34.75
		z"/>
</g>
<g>
	<path d="M79.61,36.65C79.65,36.66,79.77,36.69,79.61,36.65c0.03,0,0.05,0.02,0.08,0.04c-0.09-0.05-0.06-0.04,0,0.01
		c0.09,0.07-0.03-0.07,0.02,0.02c0.02,0.03,0.04,0.06,0.06,0.1c0.02,0.04,0.07,0.17,0.03,0.05c0.04,0.1,0.07,0.19,0.1,0.29
		c0.03,0.12,0.06,0.23,0.08,0.35c0.01,0.06,0.02,0.12,0.03,0.18c0.01,0.03,0.01,0.07,0.02,0.1c0.01,0.06-0.01-0.07,0.01,0.04
		c0.04,0.32,0.06,0.63,0.08,0.95c0.08,1.74-0.04,3.48-0.18,5.21c-0.16,1.95-0.37,3.9-0.61,5.84c-0.18,1.48-0.36,2.78-0.56,4.22
		c-0.2,1.44-0.32,2.9-0.48,4.35c-0.01,0.1-0.02,0.19-0.03,0.29c-0.01,0.04-0.01,0.1,0,0.02c0,0.03-0.01,0.07-0.01,0.1
		c-0.03,0.22,0.06,0.44,0.29,0.5c0.19,0.05,0.47-0.07,0.5-0.29c0.16-1.01,0.23-2.04,0.33-3.06c0.04-0.35,0.07-0.69,0.11-1.04
		c0.01-0.07,0.02-0.14,0.03-0.21s-0.01,0.11-0.01,0.04c0-0.02,0.01-0.04,0.01-0.07c0.01-0.05,0.01-0.1,0.02-0.15
		c0.19-1.39,0.38-2.78,0.56-4.18c0.25-1.96,0.47-3.92,0.63-5.89c0.15-1.81,0.28-3.63,0.23-5.44c-0.02-0.64-0.06-1.3-0.2-1.93
		c-0.09-0.41-0.25-0.9-0.63-1.14c-0.08-0.05-0.16-0.09-0.25-0.1C79.31,35.76,79.09,36.55,79.61,36.65L79.61,36.65z"/>
</g>
<g>
	<path d="M74.86,35.68c-0.87,0.3-0.99,1.18-1.22,1.96c-0.29,0.98-0.59,1.95-0.88,2.93c-0.6,2-1.19,4.01-1.76,6.02
		c-1.15,4.07-2.21,8.17-3.04,12.32c-0.45,2.26-0.83,4.54-1.11,6.84c-0.03,0.22,0.21,0.41,0.41,0.41c0.24,0,0.38-0.19,0.41-0.41
		c0.48-3.99,1.29-7.95,2.24-11.85c0.97-3.98,2.09-7.92,3.25-11.84c0.32-1.08,0.64-2.15,0.96-3.22c0.15-0.49,0.31-0.98,0.44-1.48
		c0.08-0.31,0.15-0.76,0.5-0.88C75.57,36.3,75.36,35.51,74.86,35.68L74.86,35.68z"/>
</g>
<linearGradient id="SVGID_00000135667192891254711450000000324280816971108532_" gradientUnits="userSpaceOnUse" x1="86.038" y1="121.8914" x2="84.5624" y2="129.5902" gradientTransform="matrix(1 0 0 -1 0 149.8898)">
	<stop  offset="0" style="stop-color:#000000"/>
	<stop  offset="1" style="stop-color:#FFFFFF;stop-opacity:0"/>
</linearGradient>
<path style="fill:url(#SVGID_00000135667192891254711450000000324280816971108532_);" d="M95.23,19.16
	c-3.07,0.7-6.18,1.16-9.28,1.67c-2.97,0.49-6.09,1.02-8.86,2.25c-1.11,0.49-2.26,1.27-2.66,2.48c-0.48,1.46,0.75,2.46,2.11,2.56
	c1.44,0.11,2.98-0.53,4.32-0.97c1.48-0.49,2.94-1.06,4.37-1.68c1.55-0.68,3.04-1.45,4.52-2.27c1.51-0.84,3.02-1.68,4.66-2.24
	c0.33-0.11,0.46-0.4,0.43-0.68c0.22-0.06,0.43-0.12,0.65-0.18C96.08,19.91,95.83,19.02,95.23,19.16z"/>
<g>
	<path d="M120.07,123.61c-0.6-0.42-1.17-0.88-1.67-1.42c-0.1-0.11-0.21-0.22-0.31-0.33c-0.04-0.04-0.11-0.16-0.15-0.19
		c-0.01-0.02-0.02-0.04-0.03-0.06c-0.08,0.04-0.09,0.06-0.02,0.06c0.04,0.03,0.19,0.04,0.24,0.05c0.1,0.02,0.19,0.04,0.29,0.05
		c0.19,0.04,0.39,0.07,0.58,0.11c1.49,0.28,2.97,0.57,4.42,1.02c1.43,0.44,2.81,1.02,4.17,1.64c1.17,0.54,2.36,1.1,3.38,1.9
		c0.47,0.37,0.91,0.79,1.3,1.25c0.11,0.13,0.7,0.76,0.38,0.84c-0.1,0.03-0.22-0.02-0.32-0.04c-0.32-0.08-0.63-0.16-0.94-0.24
		c-1.62-0.43-3.23-0.93-4.81-1.51C124.32,125.94,122.05,124.98,120.07,123.61c-0.22-0.15-0.42,0.2-0.21,0.35
		c1.92,1.33,4.11,2.27,6.29,3.07c1.73,0.64,3.49,1.19,5.27,1.66c0.3,0.08,0.59,0.16,0.89,0.23c0.24,0.06,0.54,0.07,0.73-0.12
		c0.22-0.23,0.14-0.55-0.01-0.79c-0.35-0.55-0.84-1.05-1.32-1.48c-1.03-0.92-2.23-1.55-3.47-2.14c-1.46-0.69-2.94-1.32-4.48-1.82
		c-1.58-0.51-3.21-0.82-4.84-1.13c-0.19-0.04-0.39-0.07-0.58-0.11c-0.17-0.03-0.36-0.1-0.53-0.09c-0.26,0.02-0.36,0.29-0.28,0.51
		c0.11,0.28,0.39,0.5,0.59,0.71c0.26,0.28,0.55,0.54,0.84,0.79c0.29,0.24,0.6,0.47,0.91,0.69
		C120.08,124.11,120.28,123.76,120.07,123.61z"/>
</g>
</svg>
