<?xml version="1.0" encoding="utf-8"?>
<!-- Generator: Adobe Illustrator 28.0.0, SVG Export Plug-In . SVG Version: 6.00 Build 0)  -->
<svg version="1.1" id="Layer_1" xmlns="http://www.w3.org/2000/svg" xmlns:xlink="http://www.w3.org/1999/xlink" x="0px" y="0px"
	 viewBox="0 0 150 150" style="enable-background:new 0 0 150 150;" xml:space="preserve">
<style type="text/css">
	.st0{stroke:#000000;stroke-width:2;stroke-linecap:round;stroke-linejoin:round;stroke-miterlimit:10;}
	.st1{fill:#2D2D2D;}
	.st2{fill:#44260C;}
	.st3{fill:#4D4F60;}
	.st4{fill:#331908;}
	.st5{fill:url(#SVGID_1_);}
	.st6{fill:url(#SVGID_00000087376721778924163210000013193743131448882854_);}
	.st7{fill:url(#SVGID_00000056421065401831687820000016091036470267331494_);}
	.st8{fill:url(#SVGID_00000005974446478842629650000015818585858591383695_);}
	.st9{fill:#707070;}
	.st10{fill:#7C808E;}
	.st11{fill:#683B19;}
</style>
<path class="st0" d="M121.2,136.42c-0.11-0.46-0.13-0.97-0.23-1.44c-0.14-0.64-0.2-1.32-0.27-1.97c-0.14-1.25-0.23-2.51-0.32-3.77
	c-0.17-2.42-0.32-4.84-0.66-7.25c-0.35-2.46-1.08-4.82-1.65-7.23c-0.58-2.45-1.04-4.92-1.52-7.39c-0.47-2.43-0.96-4.85-1.6-7.24
	c-0.65-2.42-1.55-4.76-2.22-7.17c-0.69-2.47-1.01-5.01-1.31-7.55c-0.3-2.47-0.66-4.91-1.11-7.35c-0.46-2.46-0.76-4.96-1.32-7.39
	c-0.55-2.39-1.32-4.73-1.85-7.12c-1.11-4.95-2.05-9.94-3.15-14.89c-0.53-2.35-1.14-4.69-1.52-7.07c-0.38-2.41-0.6-4.85-0.76-7.28
	c-0.16-2.4-0.31-4.8-0.41-7.2c-0.1-2.51-0.04-5.02-0.07-7.53c-0.01-1.16,0.01-2.47-0.38-3.57c-0.18-0.5-0.46-0.97-0.49-1.5
	c-0.02-0.54,0.13-1.08,0.17-1.62c0.07-0.92-0.13-1.75-0.97-2.23c-0.88-0.5-2.01-0.65-3-0.79c-2.45-0.34-4.94-0.48-7.41-0.75
	c-2.54-0.28-5.08-0.55-7.64-0.69c-4.09-0.23-8.2-0.5-12.3-0.36C67.1,8.12,65,8.3,62.9,8.52c-0.09-0.19-0.21-0.36-0.42-0.48
	c-0.41-0.22-0.93-0.17-1.38-0.17c-0.57,0-1.14,0.02-1.71,0.05c-2.55,0.13-5.08,0.5-7.56,1.09c-0.02,0-0.03,0.02-0.05,0.02l0,0
	c-0.11,0.04-0.19,0.12-0.22,0.21c-0.01,0.03-0.02,0.07-0.03,0.11c0,0.01,0,0.01,0,0.02c0,0.02-0.01,0.04-0.01,0.06
	c0.01,0.15,0.01,0.29,0.02,0.44c-1.42,0.27-2.86,0.44-4.29,0.65c-2.03,0.29-4.02,0.78-5.95,1.47c-0.81,0.29-1.6,0.6-2.38,0.95
	c-0.74,0.33-1.65,0.63-2.16,1.3c-0.35,0.46-0.46,1.02-0.49,1.59c-0.05,1.06-0.09,2.1-0.21,3.15c-0.47,4.14-0.82,8.25-0.36,12.42
	c0.45,4.06,1,8.13,1.61,12.17c0.62,4.13,1.57,8.18,2.49,12.24c0.92,4.1,1.83,8.21,2.69,12.32c1.72,8.21,3.26,16.46,4.33,24.77
	c0.53,4.11,0.86,8.24,1.51,12.34c0.64,4.04,1.45,8.05,2.21,12.08c0.76,4.05,1.46,8.11,1.85,12.22c0.17,1.83,0.17,3.71,0.54,5.52
	c0.19,0.93,0.51,1.81,0.46,2.77c-0.05,0.91-0.26,1.83,0.29,2.64c0.35,0.52,0.92,0.81,1.54,0.71c0.46-0.07,0.84-0.26,1.32-0.25
	c0.49,0.01,0.98,0.09,1.47,0.11c0.94,0.04,1.89,0.14,2.83,0.1c1.03-0.04,2.06-0.21,3.08-0.32c1.96-0.22,3.92-0.13,5.87-0.48
	c0.86-0.15,1.69-0.38,2.51-0.68c0.37-0.14,0.74-0.31,1.13-0.37c0.57-0.09,1.03,0.16,1.58,0.22c1.34,0.13,1.73-1.37,1.75-2.42
	c0.01-0.58-0.1-1.14-0.19-1.71c-0.17-1.07-0.08-2.16,0.07-3.23c0.3-2.06,0.58-4.08,0.68-6.16c0.09-2.02,0.09-4.05,0.17-6.08
	c0.17-4.21,0.73-8.39,0.39-12.61c-0.32-4.04-1.84-7.82-2.31-11.83c-0.96-8.29-1.79-16.67-1.95-25.02c-0.02-0.97-0.04-1.93-0.1-2.89
	c0.36,0.83,0.72,1.65,1.09,2.47c2.03,4.49,4.3,8.87,6.2,13.42c1.96,4.7,3.43,9.6,5.05,14.42c1.63,4.86,3.42,9.69,4.78,14.63
	c0.66,2.4,1.07,4.85,1.68,7.25s1.55,4.67,2.5,6.95c0.96,2.29,1.84,4.61,2.59,6.99c0.37,1.18,0.77,2.36,1.11,3.55
	c0.28,1,0.26,2.09,0.62,3.07c0.29,0.8,0.9,1.56,1.84,1.48c0.48-0.04,0.87-0.32,1.31-0.48c0.63-0.23,1.27-0.08,1.92-0.09
	c1.09-0.03,2.09-0.45,3.13-0.73c1.25-0.35,2.55-0.52,3.85-0.59c2.46-0.15,4.9,0.09,7.36,0.11c0.97,0.01,1.69-0.53,2.37-1.2
	c0.32-0.32,0.61-0.71,0.66-1.18C121.6,137.15,121.31,136.87,121.2,136.42z"/>
<g>
	<g>
		<path class="st1" d="M76.25,133.62c0-0.01,0-0.03,0-0.04c-0.02-1.56,0.38-3.09,0.59-4.63c0.24-1.8,0.21-3.61,0.13-5.42
			c-0.07-1.56,0.04-3.12,0.18-4.68c0.03-0.38,0.07-0.76,0.1-1.14c0.31-3.46,0.63-6.94,0.34-10.41c-0.29-3.38-1.3-6.61-2.04-9.9
			c-0.53-2.34-0.68-4.74-0.78-7.13c-0.09-2.31-0.49-4.62-0.77-6.92c-0.13-1.04-0.24-2.09-0.24-3.14c0-0.53,0.04-1.07,0.02-1.6
			c-0.03-1.1-0.28-2.17-0.4-3.26c-0.11-0.94-0.04-1.92-0.04-2.88c0.01-2.05,0.18-4.11-0.02-6.16c0.18-0.09,0.35,0.13,0.44,0.32
			c1.34,3.07,2.72,6.13,4.22,9.13c1.09,2.27,2.17,4.53,3.15,6.85c1.04,2.49,1.95,5.03,2.8,7.59c0.42,1.28,0.83,2.57,1.24,3.86
			c0.36,1.15,0.83,2.25,1.11,3.41c0.19,0.76,0.39,1.51,0.66,2.25c0.82,2.28,1.64,4.55,2.46,6.83c0.56,1.54,1.11,3.09,1.57,4.66
			c0.53,1.81,0.92,3.67,1.18,5.54c0.25,1.8,0.8,3.54,1.4,5.27c0.85,2.44,2,4.74,2.87,7.18c0.64,1.81,1.28,3.61,1.83,5.45
			c0.28,0.93,0.53,1.87,0.75,2.81c0.19,0.85,0.5,1.56,0.76,2.38c0.09,0.31,0.2,0.63,0.46,0.83c0.34,0.27,0.83,0.23,1.26,0.17
			c1.24-0.17,2.48-0.34,3.72-0.5c0.77-0.1,1.56-0.39,2.32-0.58c0.68-0.17,1.37-0.34,2.07-0.43c1.32-0.17,2.65,0,3.96-0.02
			c1.5-0.02,3.01-0.09,4.51-0.15c0.48-0.02,0.96-0.04,1.42-0.17c0.63-0.17,1.79-0.74,1.73-1.55c-0.02-0.24-0.13-0.46-0.21-0.68
			c-0.28-0.72-0.17-1.36-0.19-2.09c-0.02-0.71-0.27-1.42-0.35-2.12c-0.23-1.89-0.31-3.76-0.64-5.63c-0.3-1.75-0.17-3.53-0.38-5.29
			c-0.2-1.71-0.78-3.3-1.22-4.96c-0.66-2.48-1.18-5-1.57-7.54c-0.06-0.4-0.12-0.79-0.16-1.19c-0.06-0.6-0.07-1.21-0.18-1.8
			c-0.1-0.53-0.35-1-0.47-1.52c-0.51-2.28-1.05-4.66-1.89-6.83c-0.71-1.85-1.12-3.72-1.57-5.62c-0.09-0.37-0.18-0.75-0.27-1.12
			c-0.6-2.38-0.97-4.81-1.2-7.25c-0.32-3.42-1.04-6.87-1.57-10.28c-0.2-1.27-0.57-2.48-0.87-3.73c-0.33-1.42-0.69-2.83-1.07-4.24
			c-0.15-0.54-0.3-1.09-0.41-1.64c-0.22-1.13-0.5-2.24-0.74-3.38c-0.13-0.62-0.26-1.24-0.4-1.86c-0.11-0.53-0.36-1.16-0.36-1.7
			c-0.15-0.7-0.3-1.39-0.38-2.1c-0.22-2.01-1-3.96-1.33-5.96c-0.71-3.12-1.48-6.23-1.88-9.41c-0.29-2.37-0.58-4.79-0.67-7.19
			c-0.08-2.27-0.07-4.48-0.31-6.74c-0.04-0.39,0.06-0.77,0.06-1.16c0-0.55,0-1.1-0.01-1.65c-0.01-1.13-0.03-2.26-0.09-3.38
			c-0.05-1.05-0.1-2.14-0.25-3.18c-0.14-1-0.57-1.89-0.56-2.94c0.01-0.78,0.12-1.65-0.36-2.26c-0.44-0.55-1.21-0.67-1.91-0.75
			c-0.74,0-1.51-0.18-2.25-0.26c-0.74-0.09-1.48-0.18-2.21-0.3c-5.42-0.91-10.92-1.03-16.4-1.21c-0.81-0.03-1.59,0.03-2.4-0.02
			c-0.92-0.05-1.84-0.11-2.76-0.16c-1.85-0.11-3.7-0.21-5.54-0.03c-0.95,0.1-1.9,0.27-2.84,0.48c-0.22,0.05-0.47,0.09-0.65-0.04
			c-0.12-0.09-0.18-0.24-0.27-0.35C62.24,8.03,61.74,8,61.31,8.02c-2.77,0.08-5.53,0.45-8.28,0.82c-0.36,0.05-0.8,0.15-0.91,0.5
			c-0.05,0.15-0.03,0.33-0.13,0.44c-0.07,0.07-0.17,0.1-0.27,0.12c-1.99,0.42-4.01,0.68-6.01,1.11c-0.64,0.13-1.28,0.28-1.92,0.44
			c-0.51,0.13-1.06,0.17-1.56,0.31c-1.25,0.35-2.5,1.05-3.68,1.59c-0.44,0.2-0.99,0.42-1.32,0.79c-0.32,0.35-0.46,0.92-0.56,1.38
			c-0.22,1.03-0.22,2.08-0.23,3.13c-0.01,1.05-0.12,2.07-0.2,3.11c-0.36,4.33-0.2,8.71,0.48,13.01c0.12,0.76,0.27,1.51,0.3,2.29
			c0.22,5.17,1.52,10.09,2.62,15.12c0.3,1.35,0.59,2.71,0.89,4.06c0.67,3.07,1.51,6.09,2.09,9.2c0.57,3.04,1.15,6.09,1.63,9.15
			c0.29,1.81,0.68,3.6,1.09,5.38c0.4,1.74,0.63,3.49,0.9,5.26c0.09,0.59,0.18,1.18,0.32,1.76c0.13,0.56,0.31,1.11,0.4,1.68
			c0.12,0.73,0.09,1.47,0.11,2.21c0.02,0.95,0.12,1.91,0.29,2.84c0.15,0.85,0.45,1.6,0.56,2.48c0.3,2.38,0.26,4.78,0.66,7.14
			c0.38,2.25,0.76,4.5,1.14,6.75c0.19,1.14,0.39,2.28,0.58,3.43c0.09,0.56,0.24,1.13,0.29,1.69c0.04,0.44,0.03,0.83,0.17,1.27
			c0.54,1.6,0.78,3.28,1.03,4.95c0.37,2.52,0.73,5.04,1.1,7.56c0.23,1.59,0.24,3.2,0.44,4.8c0.12,0.93,0.41,1.8,0.38,2.73
			c-0.03,0.98,0.2,2.01,0.33,2.99c0.03,0.22,0.06,0.45,0.19,0.63c0.35,0.52,1.12,0.41,1.74,0.31c2.24-0.36,4.54,0.29,6.78-0.05
			c0.64-0.1,1.27-0.27,1.91-0.37c2.06-0.3,4.24,0.23,6.2-0.47c1.03-0.37,2.01-1.08,3.1-1c0.5,0.03,1.01,0.23,1.5,0.09
			c0.49-0.15,0.81-0.62,0.93-1.12c0.15-0.65-0.2-1.29-0.14-1.94C76.31,134.89,76.26,134.3,76.25,133.62z"/>
	</g>
	<path class="st2" d="M52.2,12.88c-0.09-0.15-0.33-0.45-0.53-0.52c0.12-0.14,0.19-0.38,0.28-0.54s0.1-0.32,0.05-0.47
		c0.42-0.4,0.05-1.22-0.66-1.13c-1.3,0.18-2.6,0.48-3.9,0.69c-1.3,0.21-2.61,0.39-3.88,0.77c-1.14,0.34-2.27,0.82-3.37,1.29
		c-0.49,0.21-0.93,0.45-1.34,0.74c-0.04-0.01-0.08-0.02-0.12-0.02c-0.5,0.01-1.21,0.24-1.53,0.65c-0.37,0.48-0.32,1.32-0.36,1.89
		c-0.03,0.43,0.44,0.57,0.76,0.44c0.28-0.12,0.54-0.3,0.77-0.51c0.04,0,0.08,0,0.12-0.01c0.04-0.01,0.07-0.02,0.11-0.03
		c0.06,0.01,0.12,0.02,0.18,0.02c0.11,0,0.2-0.03,0.3-0.07c0.06-0.03,0.17-0.08,0.24-0.14c0.08,0.05,0.17,0.09,0.27,0.12
		c0.29,0.1,0.6,0.16,0.91,0.18c0.33,0.02,0.68-0.05,1.01-0.16c0.04,0.01,0.08,0.01,0.13,0.01l0,0l0,0c0.06,0,0.13-0.01,0.2-0.03
		c0.04-0.01,0.08-0.01,0.11-0.02c0.27-0.04,0.54-0.08,0.81-0.13c0.71-0.08,1.44-0.13,2.07-0.41c0.34-0.07,0.68-0.13,1.02-0.19
		c0.66-0.11,1.32-0.2,1.96-0.32c0.04,0.01,0.08,0.02,0.13,0.02c0.71-0.01,1.37-0.12,2.06-0.26c0.58-0.12,1.34-0.15,1.85-0.47
		C52.36,13.98,52.48,13.36,52.2,12.88z"/>
	<path class="st2" d="M100.15,12.08c0-0.03,0-0.05,0-0.08h-0.01c0-0.05,0-0.1-0.01-0.15c-0.01-0.1-0.07-0.17-0.14-0.24
		c0-0.34-0.11-0.66-0.42-0.86c-0.27-0.16-0.62-0.21-0.92-0.28c-0.33-0.07-0.66-0.13-0.99-0.19c-0.66-0.11-1.31-0.19-1.97-0.25
		c-0.52-0.05-1.03-0.07-1.55-0.08c-1.15-0.27-2.3-0.52-3.47-0.67c-0.8-0.11-1.6-0.18-2.41-0.21c-0.78-0.03-1.57-0.09-2.33,0.12
		c-1.47-0.28-2.93-0.5-4.46-0.57c-1.81-0.09-3.71-0.3-5.53-0.17c-0.12-0.12-0.28-0.2-0.5-0.19c-2,0.01-3.97,0.15-5.96,0.28
		c-0.97,0.06-1.94,0.09-2.91,0.12c-0.93,0.03-1.87,0.01-2.77,0.21c-0.07-0.06-0.14-0.11-0.23-0.13c-0.19-0.06-0.36,0.04-0.47,0.19
		c-0.22,0.29-0.06,0.79,0.02,1.12c0.08,0.32,0.19,0.64,0.29,0.96v0.01c-0.04,0.28,0.04,0.61,0.07,0.87c0.04,0.3,0.07,0.61,0.11,0.93
		c0.04,0.32,0.21,0.57,0.55,0.62c0.27,0.04,0.48-0.09,0.61-0.3c0.12,0.04,0.26,0.05,0.41,0.03c2.53-0.35,5.1-0.33,7.64-0.66
		c1.15-0.15,2.28-0.13,3.44-0.18c0.13-0.01,0.26-0.01,0.41-0.02c0.05,0.04,0.12,0.07,0.19,0.09c2.51,0.65,5.21,0.27,7.79,0.3
		c2.1,0.02,4.27,0.31,6.39,0.18c0.04,0.02,0.07,0.05,0.11,0.06c1.23,0.41,2.59,0.39,3.87,0.48c0.11,0.01,0.23,0.01,0.34,0.02
		c0.19,0.1,0.41,0.17,0.61,0.21c0.41,0.09,0.83,0.16,1.25,0.18c0.77,0.05,1.54,0.09,2.31,0.13c0.32,0.02,0.55-0.28,0.57-0.57
		c0.03-0.39,0.05-0.79,0.08-1.18C100.15,12.16,100.15,12.12,100.15,12.08z"/>
	<path class="st2" d="M60,11.42c0-0.61-0.02-1.47-0.54-1.89c-0.09-0.23-0.29-0.42-0.56-0.4C57.6,9.22,56.3,9.25,55,9.4
		c-0.32,0.04-0.64,0.07-0.96,0.11c-0.25,0.03-0.5,0.07-0.69,0.23c-0.17,0.14-0.3,0.32-0.35,0.53c-0.03,0.12-0.02,0.24,0,0.36
		c0,0.02,0.02,0.05,0.03,0.09c-0.01,0.08,0,0.16,0.03,0.24c-0.1,0.25,0.18,0.51,0.41,0.37c0.02,0,0.05,0,0.07,0v0.01
		c0.67,0.07,1.33-0.03,1.99-0.13c0.31-0.04,0.63-0.09,0.94-0.13c0.15-0.02,0.33-0.06,0.49-0.08c0.06,0.16,0.13,0.31,0.21,0.46
		c0.08,0.15,0.11,0.25-0.06,0.35c-0.21,0.12-0.56,0.1-0.8,0.11c-0.34,0.03-0.68,0.06-1.02,0.1c-0.32,0.04-0.64,0.08-0.96,0.12
		c-0.28,0.03-0.56,0.04-0.79,0.24c-0.49,0.42-0.21,1.23-0.25,1.8c-0.02,0.33,0.31,0.66,0.64,0.64c0.27-0.01,0.54,0,0.8-0.03
		c0.22-0.03,0.43-0.06,0.65-0.08c0.5-0.06,0.99-0.12,1.48-0.19c0.92-0.13,1.85-0.24,2.77-0.34c0.37-0.04,0.69-0.29,0.69-0.69
		C60.33,12.75,60,12.12,60,11.42z"/>
	<path class="st3" d="M63.52,14.1c-0.01-0.08-0.02-0.15-0.03-0.23c-0.13-0.89-0.49-1.75-0.56-2.65c-0.03-0.36-0.01-0.72-0.03-1.08
		c-0.02-0.41-0.08-0.83-0.18-1.23c-0.04-0.16-0.09-0.33-0.21-0.46c-0.21-0.23-0.55-0.24-0.86-0.24c-0.4,0-0.79,0.01-1.19,0.05
		c-0.03-0.1-0.12-0.19-0.24-0.17c-0.33,0.03-0.66,0.06-0.98,0.11c-0.06,0.01-0.13,0.02-0.19,0.03c-0.05-0.05-0.12-0.07-0.2-0.06
		c-0.49,0.04-0.98,0.08-1.47,0.17C57,8.41,56.65,8.53,56.29,8.66c-0.16,0-0.33,0.01-0.49,0.02c-0.59,0.02-1.17,0.03-1.75,0.08
		c-0.11,0.01-0.21,0.07-0.26,0.17c-0.06,0.01-0.11,0.02-0.17,0.03c-0.15,0.03-0.31,0.06-0.46,0.1c-0.3,0.08-0.6,0.17-0.9,0.27
		c-0.28,0.1-0.19,0.47,0.07,0.48c-0.01,0.08-0.03,0.16-0.04,0.24c-0.02,0.12-0.03,0.25-0.03,0.37c0,0.13,0,0.25,0,0.38
		c0,0.07,0.01,0.13,0.01,0.2s0,0.15,0.02,0.22c0.05,0.18,0.25,0.26,0.42,0.19c0.02-0.01,0.03-0.01,0.05-0.02
		c0.01,0,0.03,0,0.04,0.01c0.03,0,0.07,0,0.1,0c-0.15,0.03-0.3,0.06-0.45,0.1c-0.19,0.05-0.36,0.13-0.55,0.19
		c-0.12,0.04-0.16,0.14-0.15,0.24c-0.06,0.05-0.11,0.1-0.14,0.19c-0.08,0.27,0.15,0.62,0.41,0.7c0.16,0.05,0.29-0.03,0.43-0.11
		c0.12-0.07,0.25-0.13,0.39-0.18c0.18-0.07,0.36-0.13,0.54-0.17c0.04,0.02,0.08,0.04,0.14,0.03c0.2-0.01,0.41-0.03,0.61-0.06
		c0.15-0.02,0.3-0.06,0.44-0.11c0.11,0.01,0.21,0.01,0.32,0c0.2-0.01,0.39-0.03,0.59-0.05c0.33-0.03,0.66-0.08,0.99-0.14
		c0.05,0.06,0.12,0.1,0.21,0.1c0.29,0,0.65-0.04,0.87-0.25c0.24-0.22,0.24-0.57,0.01-0.8c-0.25-0.24-0.59-0.18-0.9-0.15
		c-0.35,0.04-0.7,0.09-1.05,0.15c0,0,0,0,0,0.01c-0.02,0.01-0.04,0.01-0.06,0.02c-0.2,0.02-0.39,0.05-0.59,0.07
		c-0.22,0.03-0.45,0.05-0.66,0.08c-0.05-0.04-0.1-0.07-0.17-0.06c-0.38,0.03-0.76,0.09-1.13,0.16c-0.02,0-0.03,0.01-0.05,0.01
		c0.03-0.01,0.06-0.02,0.09-0.03c0.14-0.09,0.19-0.25,0.17-0.41c-0.02-0.11-0.07-0.21-0.08-0.31c-0.01-0.14,0.01-0.28,0.01-0.43
		c0-0.08-0.01-0.16-0.01-0.24c0-0.03-0.01-0.05-0.01-0.08l0,0c0.04-0.03,0.08-0.06,0.12-0.09c0.05-0.05,0.1-0.09,0.15-0.14
		c0.27-0.05,0.54-0.09,0.81-0.13c0.32-0.05,0.63-0.1,0.94-0.17c0.04,0,0.07-0.01,0.11-0.01c0.22-0.03,0.44-0.05,0.66-0.08
		c0.03,0.02,0.07,0.03,0.12,0.03c0.67,0.01,1.33-0.01,2-0.02c0.53-0.01,1.05-0.03,1.57-0.09c0,0.09,0,0.17,0.01,0.26
		c0.03,0.18,0.09,0.35,0.15,0.53c0.2,0.57,0.34,1.16,0.42,1.76c0.08,0.59,0.08,1.12,0,1.71c-0.03,0.2-0.04,0.4-0.04,0.61
		c-0.2,0-0.42,0.12-0.63,0.13c-0.67,0.04-1.34,0.08-2.01,0.12c-0.72,0.04-1.45,0.09-2.16,0.21c-0.41,0.07-0.81,0.17-1.22,0.22
		c-0.14,0.02-0.28,0.02-0.41-0.03c-0.06-0.03-0.11-0.05-0.17-0.08c-0.01-0.06-0.02-0.13-0.03-0.19c-0.02-0.19-0.06-0.37-0.09-0.56
		c-0.05-0.28-0.08-0.56-0.09-0.84c0.01-0.11,0.01-0.21-0.04-0.32c0.01-0.01,0.01-0.01,0.02-0.02c0.06-0.07,0-0.17-0.09-0.15
		c-0.04,0.01-0.08,0.02-0.12,0.03c-0.08-0.01-0.16,0.02-0.22,0.08c-0.06,0.03-0.11,0.05-0.17,0.09c-0.18,0.15-0.25,0.38-0.24,0.6
		c0.02,0.44,0.05,0.89,0.12,1.33c-0.03,0.01-0.05,0.02-0.07,0.04c-0.06,0.05-0.08,0.13-0.09,0.21c-0.03,0.21-0.02,0.43,0.03,0.64
		c0.02,0.1,0.06,0.21,0.15,0.27c0.06,0.04,0.13,0.05,0.19,0.05c0.01,0,0.02,0,0.03,0c0.04,0.02,0.08,0.04,0.12,0.05
		c0.07,0.01,0.12-0.01,0.18-0.04c0.5,0,1.01-0.08,1.51-0.12c0.65-0.05,1.3-0.08,1.96-0.14c1.1-0.09,2.2-0.18,3.29-0.28
		c0.52-0.04,1.04-0.01,1.55-0.08c0.6-0.08,1.66,0.02,2-0.62C63.54,14.48,63.54,14.28,63.52,14.1z"/>
	<g>
		<path class="st4" d="M48.32,13.07c0-0.01,0-0.02,0-0.02c0-0.01,0-0.01,0-0.02C48.31,13.04,48.32,13.06,48.32,13.07z"/>
		<path class="st4" d="M48.96,12.53c-0.13-0.09-0.32-0.08-0.42,0.05c-0.09,0.02-0.16,0.08-0.19,0.17c-0.01,0.04-0.02,0.08-0.02,0.12
			c-0.01,0.03-0.01,0.07-0.01,0.1c0,0.03,0,0.06,0.01,0.08c0,0.03,0.01,0.06,0.02,0.09c0.02,0.05,0.04,0.09,0.08,0.13l0,0
			c0,0.01,0,0.02,0.01,0.03c0.03,0.08,0.08,0.14,0.16,0.18c0.07,0.03,0.14,0.04,0.21,0.04c0.08-0.01,0.16-0.04,0.22-0.1
			c0.05-0.05,0.08-0.11,0.1-0.17C49.2,13.01,49.2,12.68,48.96,12.53z"/>
	</g>
	<path class="st4" d="M43.72,13.94c-0.01-0.03-0.02-0.06-0.02-0.09c-0.02-0.08-0.06-0.14-0.11-0.2c0-0.01,0-0.01-0.01-0.02
		c-0.02-0.02-0.05-0.04-0.07-0.05c-0.12-0.07-0.27-0.03-0.36,0.07c-0.01,0-0.02,0-0.03,0.01c-0.09,0.05-0.16,0.14-0.18,0.24
		c-0.02,0.08-0.03,0.17-0.02,0.25c0.01,0.09,0.03,0.18,0.08,0.25c0.04,0.07,0.11,0.14,0.18,0.18c0.13,0.06,0.28,0.05,0.38-0.05
		c0.06-0.06,0.1-0.14,0.14-0.23c0.03-0.07,0.04-0.14,0.04-0.22C43.74,14.04,43.73,13.99,43.72,13.94z"/>
	<path class="st4" d="M66.58,10.42c-0.08-0.07-0.17-0.1-0.28-0.11c-0.06,0-0.12,0.01-0.17,0.04c-0.05,0-0.11,0-0.16,0.02
		c-0.01,0-0.02,0.01-0.02,0.01h-0.01c-0.04,0.01-0.07,0.03-0.1,0.05c-0.03,0.03-0.06,0.06-0.08,0.1c-0.05,0.08-0.06,0.16-0.07,0.25
		c-0.02,0.14,0.01,0.3,0.1,0.42c0.11,0.15,0.26,0.23,0.44,0.25c0.33,0.02,0.55-0.29,0.55-0.59C66.76,10.69,66.7,10.53,66.58,10.42z"
		/>
	<path class="st4" d="M74.71,10.27c-0.04-0.1-0.1-0.17-0.19-0.23c-0.06-0.04-0.13-0.07-0.2-0.09c-0.12-0.04-0.25,0-0.35,0.08
		c-0.02,0.02-0.04,0.04-0.06,0.06H73.9c-0.06,0.03-0.11,0.07-0.15,0.11c0,0-0.01,0.01-0.01,0.02s-0.05,0.06-0.01,0.02
		c-0.01,0.02-0.03,0.04-0.04,0.05c-0.02,0.03-0.04,0.07-0.05,0.11c-0.05,0.14-0.03,0.3,0.05,0.42c0.08,0.13,0.21,0.23,0.36,0.25
		c0.18,0.03,0.34-0.01,0.48-0.13c0.12-0.09,0.17-0.25,0.19-0.39C74.74,10.45,74.74,10.36,74.71,10.27z"/>
	<g>
		<path class="st4" d="M82.95,10.44c-0.08-0.17-0.24-0.32-0.43-0.33c-0.06,0-0.12,0.01-0.17,0.04c-0.04,0-0.08,0-0.13,0.01
			c-0.06,0.01-0.12,0.03-0.17,0.08c-0.04,0.04-0.07,0.09-0.09,0.15c-0.02,0.06-0.02,0.14,0,0.21c-0.04,0.16-0.01,0.34,0.09,0.47
			c0.06,0.07,0.12,0.14,0.21,0.18c0.04,0.02,0.08,0.04,0.13,0.05c0.07,0.01,0.12,0.01,0.2,0c0.15-0.02,0.31-0.15,0.37-0.29
			c0.04-0.09,0.07-0.18,0.07-0.27C83.02,10.63,82.99,10.54,82.95,10.44z"/>
		<path class="st4" d="M82.19,10.16c0.01,0,0.02,0,0.03,0s0.02-0.01,0.03-0.01C82.23,10.15,82.21,10.16,82.19,10.16z"/>
	</g>
	<g>
		<path class="st4" d="M89.58,11.73c-0.01,0.01-0.02,0.01-0.03,0.02l-0.01,0.01C89.55,11.75,89.57,11.74,89.58,11.73z"/>
		<path class="st4" d="M89.78,11.14c-0.02-0.1-0.09-0.2-0.17-0.27c-0.04-0.03-0.08-0.07-0.13-0.09c-0.06-0.03-0.12-0.04-0.18-0.05
			c-0.03-0.01-0.07-0.01-0.1-0.01c-0.06,0-0.12,0.01-0.17,0.04c-0.12,0.05-0.21,0.15-0.24,0.27c0,0.01,0,0.02,0,0.02
			c-0.03,0.06-0.05,0.12-0.05,0.18c-0.01,0.12,0.01,0.24,0.07,0.36c0.06,0.13,0.17,0.25,0.31,0.28c0.08,0.02,0.17,0.01,0.25-0.02
			c0.07-0.03,0.13-0.06,0.19-0.11c0.05-0.04,0.08-0.07,0.12-0.12s0.07-0.1,0.09-0.16C89.8,11.37,89.8,11.25,89.78,11.14z"/>
		<path class="st4" d="M89.27,10.73c0.01,0,0.02,0,0.03,0s0.02,0,0.04,0C89.31,10.74,89.29,10.73,89.27,10.73z"/>
	</g>
</g>
<linearGradient id="SVGID_1_" gradientUnits="userSpaceOnUse" x1="26.5522" y1="80.5996" x2="91.9816" y2="68.5004">
	<stop  offset="0" style="stop-color:#040404"/>
	<stop  offset="0.9995" style="stop-color:#2D2D2D;stop-opacity:0"/>
</linearGradient>
<path class="st5" d="M48.98,93.71c1.18,6.41,2.33,12.84,3.1,19.32c0.77,6.49,1.21,13.01,1.93,19.5c0.12,1.05,0.25,2.14,0.82,3.03
	c0.23,0.36,0.54,0.7,0.57,1.13c0.02,0.27-0.08,0.52-0.16,0.78c-0.2,0.66-0.26,1.36-0.18,2.04c0.02,0.14,0.05,0.3,0.16,0.39
	c0.53,0.44,2.55,0.35,3.24,0.31c1.55-0.09,3.09-0.26,4.64-0.33c3.02-0.22,6.14,0.12,8.96-1.2c-1.39-0.51-2.69-1.25-3.85-2.16
	c0.73-5.02,1.45-10.04,2.18-15.05c-0.88,0.16-1.76,0.32-2.65,0.48c-0.28,0.05-0.6,0.09-0.81-0.09c-0.21-0.18-0.23-0.48-0.23-0.76
	c-0.06-6.78,1.22-13.56,3.75-19.85c0.76-1.88,1.64-3.83,1.45-5.85c-0.14-1.45-0.83-2.78-1.48-4.08c-2.67-5.38-4.9-10.98-6.65-16.73
	c1.06,0.45,2.17,0.79,3.3,1.01c0.88-1.19,2.14-2.11,2.75-3.46c0.31-0.67,0.43-1.41,0.56-2.14c0.28-1.64,0.56-3.28,0.83-4.92
	c0.27-1.61,0.68-3.52,0.17-5.12c-0.54-1.68-1.22-3.37-1.75-5.08c-1.2-3.87-2.41-7.74-3.61-11.61c-0.33-1.05-0.65-2.21-0.21-3.23
	c0.39-0.9,1.36-1.61,1.31-2.59c-2.69-0.25-4.92-2.34-6.1-4.76s-1.5-5.17-1.8-7.85c-0.27-2.37-0.53-4.74-0.8-7.11
	c-0.07-0.6-0.14-1.22-0.45-1.74c-0.42-0.71-1.75-0.61-1.8-1.39c0.19,0.04,0.38-0.11,0.45-0.29s0.05-0.38,0.03-0.58
	c-0.06-0.62-0.13-1.25-0.19-1.87c-0.57,0.21-1.27,0.03-1.67-0.44c0.11-0.28,0.61-0.1,0.81-0.33c0.07-0.08,0.09-0.19,0.1-0.29
	c0.07-0.58,0.08-1.17,0.03-1.75C55.72,8.91,55.7,8.77,55.6,8.7c-0.08-0.06-0.2-0.06-0.3-0.05c-0.89,0.05-1.77,0.16-2.65,0.31
	c-0.1,0.02-0.2,0.04-0.26,0.12c-0.08,0.1-0.04,0.24-0.05,0.37c-0.02,0.27-0.25,0.49-0.5,0.58c-0.26,0.09-0.53,0.08-0.81,0.08
	c-2.61-0.02-5.14,0.76-7.63,1.54c-1.21,0.38-2.43,0.76-3.64,1.14c-0.17,0.05-0.35,0.11-0.5,0.21c-0.11,0.08-0.21,0.18-0.32,0.26
	c-0.17,0.13-0.38,0.19-0.59,0.27c-1.05,0.39-1.39,1.17-1.46,2.26c-0.03,0.45-0.01,0.96-0.12,1.4c-0.06,0.25-0.22,0.46-0.23,0.71
	c0.37-0.04,0.75-0.11,1.04,0.21c0.2,0.22,0.26,0.53,0.32,0.82c0.26,1.34,0.34,2.71,0.34,4.07c0.01,1.16,0.31,2.8-0.29,3.84
	c-0.15,0.26-0.35,0.5-0.42,0.8c-0.09,0.36,0.04,0.74,0.16,1.1c1,2.95,1.56,6.05,1.67,9.16c0.09,2.55-0.13,5.11,0.19,7.64
	c0.33,2.69,1.26,5.28,1.76,7.95c0.27,1.46,0.41,2.93,0.71,4.38c0.59,2.9,1.95,5.54,2.7,8.36c0.81,3.02,0.74,6.51,1.19,9.61
	C46.77,81.81,47.89,87.76,48.98,93.71z"/>
<linearGradient id="SVGID_00000031201726149277511580000013680833359228155804_" gradientUnits="userSpaceOnUse" x1="27.8182" y1="79.9782" x2="107.9312" y2="71.638">
	<stop  offset="0" style="stop-color:#040404"/>
	<stop  offset="0.9995" style="stop-color:#2D2D2D;stop-opacity:0"/>
</linearGradient>
<path style="fill:url(#SVGID_00000031201726149277511580000013680833359228155804_);" d="M62.16,14.45
	c0.18-0.51,0.25-1.09,0.23-1.61c-0.05-1.39-0.3-2.77-0.73-4.1c2.24-0.79,5.12-0.53,7.45-0.44c2.81,0.1,5.61,0.21,8.42,0.31
	c1.9,0.07,3.79,0.14,5.69,0.21c1.42,0.05,2.68-0.03,3.44,1.38c0.84,1.57,1.64,3.23,1.71,5.01c0.01,0.3,0,0.6-0.09,0.89
	c-0.09,0.31-0.27,0.58-0.42,0.87c-0.78,1.54-0.66,3.5,0.32,4.93c0.39,0.57,0.92,1.09,1.01,1.78c0.09,0.71-0.32,1.37-0.68,1.99
	c-1.57,2.73-2.36,5.9-2.25,9.05c0.02,0.57,0.07,1.16-0.12,1.7c-0.31,0.93-1.35,1.56-2.32,1.4c0.46,1.87,1.2,3.88,1.41,5.79
	c0.17,1.6,0.09,3.28,0.23,4.91c0.34,3.75,0.9,7.5,2.02,11.1c0.88,2.82,2.08,6.06,3.77,8.49c1.73,2.48,4,4.6,5.32,7.36
	c1.02,2.11,1.38,4.49,2.38,6.61s2.95,4.09,5.29,4c-0.39,6.02-0.77,12.04-1.16,18.06c-0.04,0.67-0.08,1.37,0.13,2
	c0.25,0.73,0.81,1.31,1.26,1.94c1.75,2.46,1.79,5.69,2.1,8.69c0.35,3.36,1.11,6.68,2.27,9.85c0.42,1.14,0.9,2.29,1.7,3.21
	c0.94,1.09,2.26,1.77,3.55,2.39c1.84,0.87,3.73,1.66,5.65,2.34c-1.6,0.48-2.77,1.8-4.15,2.73c-2.58,1.74-5.82,2.11-8.92,2.43
	c-1.42,0.15-2.84,0.29-4.26,0.44c-2.76-6.32-5.54-12.69-7.04-19.42c-0.7-3.14-1.12-6.35-1.88-9.48c-1.32-5.46-3.65-10.62-5.57-15.9
	c-3.01-8.28-5.04-16.96-8.98-24.84c-0.94-1.87-2.1-3.87-3.88-5.05c-0.63-0.41-1.65-0.54-2.14-1.08c-0.65-0.7-0.93-2.27-1.25-3.16
	c-1.74-4.77-3.15-9.66-4.22-14.63c-0.18-0.82-0.35-1.65-0.26-2.48c0.09-0.86,0.43-1.66,0.78-2.45c0.74-1.7,1.48-3.4,2.22-5.1
	c-1.29-0.91-2.6-1.85-3.52-3.13c-1.16-1.64-1.46-3.67-2.25-5.46c-0.9-2.01-1.09-4.53-1.32-6.71c-0.22-2.1-0.51-4.56-2.35-5.59
	C61.45,15.69,61.91,15.15,62.16,14.45z"/>
<linearGradient id="SVGID_00000168830460421222621420000000372557118804951969_" gradientUnits="userSpaceOnUse" x1="83.3052" y1="124.6009" x2="93.6523" y2="133.8221" gradientTransform="matrix(1 0 0 -1 0 149.8898)">
	<stop  offset="0" style="stop-color:#040404"/>
	<stop  offset="0.9995" style="stop-color:#2D2D2D;stop-opacity:0"/>
</linearGradient>
<path style="fill:url(#SVGID_00000168830460421222621420000000372557118804951969_);" d="M84.66,15.62
	c-0.26-0.02-0.55-0.03-0.74,0.15c-0.22,0.21-0.19,0.57-0.1,0.86c0.11,0.35,0.27,0.67,0.44,0.99c1.67,3.08,4.24,5.66,7.3,7.37
	c0.46,0.25,0.98,0.5,1.48,0.37c0.39-0.09,0.7-0.39,0.99-0.67c0.34-0.33,0.68-0.67,1.02-1c0.16-0.16,0.34-0.34,0.37-0.57
	c0.03-0.18-0.04-0.35-0.11-0.52c-1.32-3.17-4.18-5.62-7.48-6.53C86.8,15.78,85.74,15.7,84.66,15.62z"/>
<linearGradient id="SVGID_00000129892250083051565420000011807005862532919967_" gradientUnits="userSpaceOnUse" x1="45.772" y1="25.2926" x2="32.8641" y2="20.2653">
	<stop  offset="0" style="stop-color:#040404"/>
	<stop  offset="0.9995" style="stop-color:#2D2D2D;stop-opacity:0"/>
</linearGradient>
<path style="fill:url(#SVGID_00000129892250083051565420000011807005862532919967_);" d="M38.99,27.58c0.21-0.16,0.34-0.4,0.47-0.64
	c1.31-2.49,2.26-5.17,2.83-7.93c0.03-0.15,0.06-0.32-0.04-0.44c-0.12-0.14-0.34-0.12-0.52-0.09c-0.65,0.12-1.34,0.25-1.8,0.71
	c-0.32,0.31-0.49,0.74-0.65,1.16c-0.59,1.57-1.06,3.19-1.39,4.83c-0.1,0.48-0.51,1.44-0.4,1.92C37.63,27.7,38.54,27.93,38.99,27.58z
	"/>
<g>
	<path class="st9" d="M38.47,16.47c-0.33,0.04-0.65,0.16-0.92,0.35c-0.13,0.09-0.26,0.2-0.36,0.32c-0.11,0.13-0.24,0.28-0.26,0.46
		c-0.01,0.05,0.04,0.1,0.08,0.12c0.05,0.02,0.1,0.01,0.14-0.03c0.06-0.05,0.1-0.11,0.14-0.18c0.04-0.05,0.09-0.1,0.13-0.15
		c0.1-0.1,0.19-0.19,0.31-0.27c0.23-0.16,0.5-0.27,0.78-0.32C38.68,16.75,38.64,16.45,38.47,16.47z"/>
	<path class="st9" d="M50.81,112.83c0-0.22-0.01-0.44-0.02-0.66c-0.02-0.39-0.03-0.79-0.03-1.18c-0.01-0.54-0.03-1.08-0.05-1.61
		c0.1-0.35,0.24-0.69,0.28-1.03c0.1-0.77-0.23-1.51-0.46-2.23c-0.26-0.77-0.51-1.54-0.77-2.31c-0.03-0.1-0.07-0.2-0.1-0.3
		c-0.5-4.27-1.23-8.52-1.99-12.76c-0.5-2.81-1.06-5.61-1.51-8.42c-0.46-2.83-0.83-5.68-1.17-8.53c-0.18-1.49-0.24-3.03-0.55-4.49
		c-0.27-1.3-0.52-2.64-1.24-3.78c-1.34-6.42-2.72-12.84-4.1-19.25c-0.15-0.7-0.31-1.41-0.46-2.11c-0.2-1.42-0.41-2.84-0.65-4.26
		c-0.11-0.65-0.2-1.3-0.28-1.95c0-0.02,0.01-0.04,0.01-0.06c-0.05-0.69-0.13-1.41,0.05-2.1c0.09-0.36,0.29-0.64,0.44-0.97
		c0.13-0.3,0.13-0.6,0.03-0.91c-0.24-0.74-0.58-1.45-0.82-2.19c-0.22-0.66-0.38-1.34-0.63-1.98c-0.08-0.72-0.13-1.44-0.15-2.16
		c-0.04-1.49,0.02-2.99,0.15-4.48c0.07-0.82,0.15-1.63,0.23-2.45c0.04-0.42,0.09-0.84,0.14-1.26c0.05-0.41,0.12-0.81,0.06-1.22
		c-0.02-0.11-0.2-0.14-0.25-0.03c-0.28,0.63-0.3,1.41-0.4,2.09c-0.11,0.72-0.21,1.44-0.29,2.16c-0.17,1.51-0.29,3.03-0.27,4.55
		c0.01,0.75,0.05,1.49,0.12,2.24c0.07,0.72,0.15,1.4,0.11,2.12c-0.04,0.67,0.26,1.29,0.39,1.94c0.12,0.62,0.2,1.24,0.27,1.86
		c-0.01,0.97,0.02,1.91,0.25,2.86c0.01,0.06,0.05,0.1,0.08,0.13c0.04,0.39,0.09,0.79,0.13,1.18c-0.03-0.02-0.07-0.02-0.07,0.03
		c0.09,1.04,0.31,2.06,0.49,3.09c0.18,1.06,0.38,2.11,0.6,3.17c0.43,2.1,0.88,4.21,1.32,6.31c0.88,4.22,1.76,8.43,2.64,12.65
		c0.26,1.23,0.51,2.46,0.77,3.69c-0.05,0.03-0.09,0.08-0.08,0.15c0.14,1.11,0.52,2.21,0.81,3.29c0.04,0.14,0.14,0.21,0.25,0.21
		c0.04,0.4,0.08,0.79,0.12,1.19c0.32,2.79,0.77,5.56,1.25,8.33c0.97,5.58,1.94,11.16,2.78,16.75c0.2,1.3,0.38,2.6,0.54,3.9
		c-0.12-0.01-0.24,0.06-0.23,0.21c0.07,0.91,0.25,1.8,0.4,2.7c0.1,0.6,0.2,1.2,0.3,1.8c-0.06,0.05-0.1,0.13-0.08,0.23
		c0.24,1.72,0.66,3.42,0.96,5.12c0.3,1.71,0.59,3.41,0.86,5.13c0.03,0.2,0.37,0.15,0.35-0.05
		C51.22,115.72,51.03,114.27,50.81,112.83z"/>
	<path class="st9" d="M61.26,137.13c-0.49-0.17-1.12-0.13-1.64-0.15c-0.56-0.02-1.11-0.03-1.67-0.02c-0.56,0.01-1.11,0.03-1.67,0.08
		c-0.29,0.02-0.58,0.04-0.86,0.08c-0.19,0.02-0.37,0.04-0.52,0.16c-0.02,0.02-0.01,0.06,0.01,0.07c0.19,0.1,0.42,0.07,0.64,0.06
		c0.29-0.01,0.58-0.03,0.86-0.04c0.54-0.02,1.07-0.03,1.61-0.03s1.07,0.01,1.61,0.03c0.53,0.02,1.12,0.14,1.64,0.05
		C61.42,137.39,61.38,137.18,61.26,137.13z"/>
	<path class="st9" d="M56.08,140.22c0-0.01,0-0.02-0.01-0.03c-0.04-0.09-0.3-0.05-0.38-0.06c-0.2-0.02-0.4-0.05-0.59-0.14
		c-0.63-0.28-0.59-1.03-0.49-1.6c0.11-0.65,0.2-1.27-0.02-1.91c-0.11-0.3-0.25-0.6-0.39-0.89c-0.07-0.15-0.15-0.29-0.24-0.43
		c-0.1-0.17-0.24-0.31-0.35-0.48c-0.01-0.02-0.05-0.01-0.04,0.02c0.06,0.19,0.07,0.39,0.13,0.58s0.13,0.37,0.2,0.55
		c0.13,0.31,0.25,0.63,0.32,0.96c0.16,0.77-0.19,1.48-0.19,2.24c0,0.44,0.14,0.9,0.46,1.21c0.35,0.33,1.03,0.25,1.45,0.1
		C56.01,140.33,56.08,140.28,56.08,140.22z"/>
	<path class="st9" d="M71.33,137.06c-0.44,0.07-0.85,0.15-1.3,0.14c-0.41-0.01-0.83-0.04-1.24-0.07c-0.41-0.03-0.82,0-1.24-0.03
		c-0.22-0.02-0.44-0.04-0.66-0.09c-0.17-0.04-0.34-0.09-0.52-0.09c-0.01,0-0.02,0.02-0.01,0.03c0.23,0.28,0.68,0.32,1.02,0.37
		c0.47,0.06,0.94,0.15,1.41,0.19c0.83,0.08,1.9,0.29,2.66-0.15C71.63,137.27,71.51,137.03,71.33,137.06z"/>
	<path class="st9" d="M73.1,135.34c-0.31,0.06-0.61,0.14-0.92,0.19c-0.15,0.02-0.3,0.04-0.45,0.05c-0.15,0.01-0.31,0.06-0.46,0.08
		c-0.03,0-0.02,0.04,0,0.05c0.15,0.04,0.3,0.09,0.46,0.1c0.16,0.01,0.32,0,0.48-0.02c0.32-0.03,0.65-0.09,0.95-0.21
		C73.31,135.52,73.26,135.3,73.1,135.34z"/>
	<path class="st9" d="M56.45,41.49c-1.18,0-2.36,0.03-3.54,0.04c-0.58,0-1.16-0.01-1.74-0.02c-0.29-0.01-0.58-0.01-0.87-0.02
		c-0.24,0-0.47-0.03-0.69,0.07c-0.04,0.02-0.03,0.07,0,0.09c0.22,0.12,0.45,0.11,0.69,0.13c0.27,0.02,0.53,0.03,0.8,0.04
		c0.6,0.02,1.2,0.04,1.8,0.04c1.18,0.01,2.36,0,3.54-0.1C56.63,41.76,56.64,41.49,56.45,41.49z"/>
	<path class="st9" d="M58.58,43.23c-0.09-0.02-0.19,0.01-0.28,0.02c-0.08,0.01-0.16,0.03-0.24,0.04c-0.18,0.03-0.36,0.06-0.54,0.09
		c-0.1,0.01-0.91,0.07-0.83,0.26c0.06,0.12,0.32,0.09,0.43,0.08c0.16-0.01,0.33-0.03,0.49-0.05s0.33-0.04,0.49-0.07
		c0.08-0.01,0.16-0.03,0.24-0.04c0.09-0.02,0.19-0.02,0.27-0.07C58.7,43.41,58.7,43.26,58.58,43.23z"/>
	<path class="st9" d="M50.07,15.49c-1.36,0.27-2.71,0.59-4.08,0.79c-1.36,0.21-2.74,0.27-4.1,0.47c-0.06,0.01-0.04,0.1,0.01,0.1
		c1.36,0.12,2.77-0.05,4.11-0.24c1.39-0.19,2.79-0.45,4.12-0.89C50.29,15.68,50.23,15.45,50.07,15.49z"/>
	<path class="st9" d="M97.65,14.72c-1.26-0.27-2.58-0.37-3.86-0.51c-1.32-0.15-2.65-0.27-3.98-0.37c-2.63-0.2-5.27-0.34-7.91-0.45
		c-1.52-0.06-3.04-0.14-4.56-0.06c-0.05,0-0.04,0.07,0,0.07c2.62,0.34,5.29,0.34,7.92,0.5c2.64,0.15,5.27,0.33,7.9,0.57
		c0.72,0.07,1.44,0.14,2.16,0.21c0.76,0.08,1.53,0.21,2.3,0.26C97.75,14.95,97.78,14.75,97.65,14.72z"/>
	<path class="st9" d="M42.07,20.03c-0.63,1.76-1.18,3.54-1.85,5.29c-0.16,0.43-0.33,0.85-0.49,1.28c-0.14,0.37-0.26,0.84-0.58,1.1
		c-0.46,0.38-1.35,0.13-1.61-0.39c-0.02-0.04-0.07-0.01-0.06,0.03c0.07,0.3,0.18,0.58,0.45,0.74c0.26,0.15,0.57,0.23,0.87,0.19
		c0.87-0.09,1.15-0.98,1.43-1.68c0.41-1.06,0.82-2.13,1.2-3.2c0.38-1.08,0.75-2.16,0.95-3.28C42.41,19.92,42.14,19.85,42.07,20.03z"
		/>
	<path class="st9" d="M94.55,24.15c-0.38,0.51-0.79,1.25-1.51,1.29c-0.35,0.02-0.63-0.18-0.91-0.37c-0.3-0.2-0.6-0.4-0.9-0.6
		c-1.14-0.76-2.3-1.49-3.37-2.34c-1.02-0.8-1.97-1.72-2.69-2.81c-0.36-0.54-0.66-1.12-0.86-1.74c-0.18-0.58-0.26-1.2-0.36-1.8
		c-0.01-0.04-0.07-0.04-0.08,0c-0.25,1.02,0.09,2.1,0.5,3.05c0.46,1.04,1.14,1.93,1.95,2.71c0.86,0.83,1.83,1.53,2.82,2.2
		c0.52,0.36,1.05,0.7,1.57,1.05c0.5,0.33,0.99,0.72,1.52,1c1.23,0.63,2.19-0.46,2.61-1.52C94.93,24.09,94.65,24.02,94.55,24.15z"/>
	<path class="st9" d="M101.75,140.61c-0.4-0.02-0.78-0.1-1.13-0.31c-0.31-0.19-0.68-0.53-0.73-0.92c-0.03-0.21,0.11-0.36,0.17-0.56
		c0.06-0.22,0.01-0.44-0.06-0.65c-0.06-0.17-0.13-0.33-0.19-0.49c-0.24-1.16-0.67-2.29-1.06-3.41c-0.4-1.16-0.81-2.31-1.2-3.47
		c-0.78-2.3-1.59-4.59-2.35-6.89c-0.21-0.64-0.41-1.29-0.62-1.93c-0.05-0.14-0.09-0.29-0.13-0.43c0.02-0.27,0-0.55-0.04-0.83
		c-0.05-0.33-0.14-0.66-0.24-0.98c-0.05-0.17-0.09-0.3-0.04-0.48c0.04-0.16,0.11-0.3,0.13-0.47c0.09-0.59-0.18-1.17-0.47-1.67
		c-0.3-0.51-0.64-0.97-1-1.42c-0.6-2.53-1.3-5.03-2.09-7.5c-1.51-4.66-3-9.33-4.52-13.98c-0.44-1.35-0.87-2.71-1.31-4.07
		c-0.29-1.86-0.86-3.62-1.74-5.27c-0.39-1.42-0.89-2.81-1.47-4.16c-1.01-2.35-2.3-4.53-3.95-6.48l0,0c-0.25-0.4-0.51-0.79-0.8-1.17
		c-0.6-1.75-1.33-3.46-2.02-5.18c-0.72-1.8-1.44-3.59-2.16-5.39c-1.41-3.51-2.85-7.02-4.29-10.51c-0.41-1-0.8-2.01-1.23-2.99
		c-0.44-0.99-0.93-1.96-1.35-2.96c-0.01-0.02-0.04-0.01-0.03,0.01c0.35,0.92,0.65,1.85,0.96,2.78c0.3,0.89,0.67,1.75,1,2.62
		c0.69,1.79,1.41,3.57,2.11,5.36c1.39,3.58,2.8,7.15,4.23,10.71c0.79,1.99,1.54,4.01,2.45,5.95c0.06,0.13,0.2,0.13,0.3,0.08
		c0.48,0.89,0.92,1.81,1.35,2.73c0.16,0.5,0.33,1.01,0.5,1.5c0.04,0.12,0.15,0.16,0.25,0.14c0.22,0.49,0.45,0.98,0.68,1.47
		c0.07,0.14,0.26,0.11,0.34,0c1.4,2.82,2.54,5.79,3.3,8.82c0.03,0.12,0.11,0.18,0.2,0.19c0.21,0.74,0.48,1.46,0.81,2.15
		c0.32,0.99,0.65,1.98,0.97,2.97c0.75,2.31,1.51,4.62,2.27,6.93c1.51,4.61,3.18,9.2,4.33,13.91c0.62,2.52,1.13,5.07,1.78,7.58
		c0.03,0.15,0.06,0.31,0.08,0.46c0.03,0.19,0.29,0.24,0.43,0.12c0.09,0.37,0.19,0.74,0.3,1.1c0.35,1.15,0.76,2.28,1.16,3.41
		c0.82,2.35,1.66,4.69,2.48,7.05c0.41,1.17,0.79,2.37,1.33,3.49c0.01,0.04,0.01,0.07,0.02,0.11c0.07,0.26,0.18,0.55,0.18,0.82
		c0,0.24-0.2,0.43-0.24,0.67c-0.03,0.24,0.02,0.47,0.12,0.69c0.38,0.82,1.41,1.34,2.29,1.2C102.09,141.03,102,140.63,101.75,140.61z
		"/>
	<path class="st9" d="M105.91,137.78c-0.61,0.37-1.16,0.79-1.86,0.96c-0.72,0.17-1.49,0.11-2.21,0.03c-0.03,0-0.03,0.04-0.01,0.05
		c0.76,0.14,1.51,0.32,2.28,0.16c0.71-0.14,1.38-0.56,1.94-1.01C106.16,137.88,106.02,137.71,105.91,137.78z"/>
	<path class="st9" d="M121.07,137.14c-0.3-1.29-0.59-2.52-0.56-3.85c0.02-1.13-0.21-2.19-0.27-3.31c-0.12-2.44-0.4-4.87-0.81-7.28
		c-0.42-2.47-0.91-4.89-1.51-7.32c-0.62-2.49-1.28-4.97-1.7-7.5c-0.09-0.51-0.16-1.04-0.24-1.56c0.08-0.1,0.12-0.22,0.1-0.37
		c-0.07-0.41-0.19-0.8-0.33-1.18c-0.22-1.38-0.5-2.76-0.97-4.06c-0.11-0.61-0.32-1.18-0.68-1.7c-0.04-0.82-0.2-1.69-0.39-2.48
		c-0.05-0.21-0.27-0.31-0.46-0.3c-0.31-1.36-0.62-2.72-0.87-4.09c-0.27-1.52-0.53-3.04-0.74-4.57c-0.23-1.64-0.61-3.26-0.93-4.89
		c-1.22-6.15-2.17-12.37-3.96-18.39c-0.49-1.66-0.94-3.34-1.25-5.05c-0.17-0.9-0.3-1.81-0.45-2.72c-0.08-0.45-0.14-0.91-0.23-1.37
		c0.07-0.04,0.12-0.12,0.1-0.23c-0.42-2.59-1.18-5.12-1.74-7.69c-0.55-2.56-1.06-5.14-1.49-7.73c-0.14-0.87-0.26-1.75-0.36-2.62
		c0.15-0.07,0.27-0.23,0.22-0.41c-0.14-0.63-0.3-1.25-0.46-1.87c-0.31-3.6-0.4-7.2-0.56-10.82c-0.07-1.48-0.18-2.96-0.14-4.44
		c0.03-1.27,0.45-2.48-0.1-3.69c-0.02-0.04-0.07-0.02-0.07,0.02c-0.04,2.54-0.67,5-0.66,7.56c0,1.03,0.04,2.06,0.08,3.09
		c-0.16,1.52-0.39,3.03-0.28,4.56c0.1,1.4,0.45,2.8,0.91,4.14c0.44,3.81,1.14,7.59,2.02,11.32c0.64,2.73,1.2,5.51,2.07,8.18
		c0,0.57,0.1,1.14,0.18,1.71c0.11,0.77,0.23,1.55,0.37,2.31c0.29,1.58,0.58,3.16,0.93,4.73c0.67,3.03,1.58,5.98,2.04,9.06
		c0.47,3.17,1.21,6.3,1.83,9.44c0.31,1.58,0.55,3.18,0.86,4.76c0.29,1.52,0.75,3,1.05,4.52c0.35,1.75,0.74,3.5,1.01,5.27
		c0.15,0.97,0.29,1.95,0.45,2.91c0,0.38-0.04,0.78-0.21,1.13c-0.18,0.37-0.52,0.65-0.31,1.1c0.15,0.32,0.52,0.44,0.79,0.64
		c0.29,0.22,0.45,0.57,0.58,0.92c0.18,0.51,0.33,1.03,0.58,1.5c0.08,0.22,0.17,0.44,0.26,0.66c0.08,0.67,0.17,1.34,0.28,2
		c0.45,2.49,0.98,4.94,1.6,7.39c0.62,2.41,1.31,4.83,1.75,7.28c0.45,2.54,0.72,5.12,0.89,7.7c0.08,1.26,0.35,2.46,0.46,3.72
		c0.12,1.35,0.22,2.75,0.56,4.07C120.41,137.87,121.19,137.65,121.07,137.14z"/>
	<path class="st10" d="M60.07,8.19c-0.84-0.06-1.74,0.07-2.58,0.17c-0.83,0.1-1.66,0.22-2.49,0.36c-0.41,0.07-0.83,0.14-1.24,0.22
		c-0.34,0.07-0.71,0.11-1.03,0.24c-0.45,0.19-0.79,0.71-0.51,1.16c-0.01,0.11-0.01,0.21-0.01,0.32c0,0.07,0,0.15,0.02,0.22
		c0.02,0.07,0.04,0.15,0.05,0.22c0.01,0.03,0.06,0.02,0.06-0.01c0-0.08,0.01-0.15,0.03-0.23c0.02-0.07,0.02-0.14,0.03-0.21
		c0.02-0.13,0.06-0.26,0.09-0.39c0.05-0.2,0.12-0.4,0.19-0.59c0.39-0.17,0.97-0.22,1.21-0.26c0.67-0.11,1.33-0.23,2-0.34
		c0.69-0.11,1.39-0.2,2.08-0.27c0.69-0.07,1.4-0.07,2.09-0.15C60.36,8.61,60.37,8.21,60.07,8.19z"/>
	<path class="st10" d="M61.26,11.38c-0.09-0.9-0.14-1.85-0.36-2.74c-0.01-0.05-0.1-0.05-0.1,0c-0.13,0.91-0.05,1.88,0.03,2.79
		c0.08,0.95,0.2,1.88,0.35,2.82c0.04,0.23,0.44,0.18,0.41-0.05C61.46,13.26,61.36,12.32,61.26,11.38z"/>
	<path class="st10" d="M57.3,10.9c-1.16,0.04-2.32,0.15-3.47,0.34c-0.52,0.09-1.11,0.15-1.6,0.36c-0.33,0.14-0.62,0.45-0.52,0.83
		c0.01,0.04,0.07,0.04,0.08,0c0.12-0.5,0.72-0.52,1.14-0.58c0.5-0.07,1-0.15,1.5-0.21c0.95-0.11,1.91-0.19,2.87-0.23
		C57.63,11.4,57.63,10.89,57.3,10.9z"/>
	<path class="st10" d="M63.34,13.7c-0.02-0.45-0.06-0.89-0.12-1.33c-0.11-0.87-0.29-1.73-0.5-2.58c-0.01-0.03-0.02-0.05-0.04-0.08
		c0.06-0.21,0.07-0.44-0.01-0.66c-0.08-0.23-0.24-0.4-0.43-0.54c-0.27-0.19-0.47-0.22-0.78-0.19c-0.05,0-0.06,0.07-0.01,0.09
		c0.29,0.1,0.64,0.33,0.76,0.62c0.11,0.26,0.04,0.65-0.25,0.76c-0.18,0.07-0.28,0.25-0.18,0.44c0.16,0.29,0.33,0.58,0.51,0.86
		c0.04,0.07,0.1,0.11,0.15,0.13c0.08,0.43,0.16,0.86,0.23,1.29c0.07,0.42,0.13,0.84,0.19,1.26c0.06,0.44,0.05,0.89,0.12,1.33
		c0.04,0.25,0.4,0.17,0.41-0.06C63.43,14.6,63.36,14.15,63.34,13.7z"/>
	<path class="st11" d="M100.22,12.52c0-0.11-0.01-0.21-0.03-0.31c-0.01-0.06-0.06-0.08-0.11-0.08c0-0.02,0-0.04,0-0.06
		c0.01-0.09,0.01-0.17-0.01-0.26c-0.09-0.39-0.44-0.7-0.77-0.9c-0.35-0.21-0.74-0.33-1.14-0.35c-0.05,0-0.07,0.05-0.05,0.09
		c-1.19-0.26-2.38-0.51-3.57-0.73C93.3,9.7,92.05,9.6,90.8,9.55c-1.3-0.06-2.58-0.19-3.87-0.36c-0.74-0.1-1.46-0.19-2.18-0.22
		c-0.13,0-0.26-0.01-0.38,0.02c-0.11,0.02-0.18,0.1-0.27,0.14c-0.19,0.07-0.45-0.01-0.69-0.1c0.07-0.14,0.04-0.33-0.14-0.36
		c-2.32-0.33-4.72-0.3-7.06-0.32c-2.38-0.03-4.75,0.02-7.13,0.14c-1.34,0.07-2.67,0.18-4.01,0.25c-0.04,0-0.04,0.06,0,0.06
		c2.34,0.03,4.69,0.14,7.03,0.13c2.35-0.01,4.7,0,7.05,0.07c1.31,0.04,2.61,0.14,3.92,0.17c0.33,0.21,0.78,0.5,1.14,0.39
		c0.25-0.07,0.42-0.1,0.69-0.07c0.32,0.03,0.63,0.07,0.94,0.11c1.17,0.14,2.33,0.35,3.5,0.45c1.22,0.11,2.44,0.1,3.65,0.24
		c1.18,0.14,2.34,0.4,3.5,0.64c0.64,0.14,1.3,0.25,1.93,0.42c0.48,0.13,0.94,0.37,1.09,0.81c-0.07,0.06-0.15,0.11-0.19,0.2
		c-0.1,0.19-0.03,0.35,0.06,0.53c0.09,0.16,0.14,0.34,0.17,0.52c0.04,0.2,0.02,0.4,0.06,0.6c0.03,0.16,0.29,0.2,0.36,0.05
		c0.09-0.2,0.1-0.43,0.07-0.66c0.07-0.18,0.11-0.36,0.14-0.54C100.21,12.73,100.22,12.63,100.22,12.52z"/>
	<path class="st11" d="M51.99,10.16c-0.37,0.08-0.75,0.15-1.12,0.22c0.01-0.02,0-0.04-0.02-0.04c-1.15,0.11-2.29,0.31-3.42,0.51
		c-0.58,0.1-1.15,0.2-1.73,0.3c-0.54,0.09-1.07,0.12-1.61,0.22c-0.55,0.1-1.1,0.21-1.64,0.39c-0.5,0.16-0.95,0.41-1.43,0.63
		c-0.57,0.26-1.17,0.55-1.68,0.94c-0.05-0.05-0.12-0.08-0.21-0.06c-0.31,0.04-0.6,0.2-0.87,0.36c-0.14,0.08-0.27,0.17-0.39,0.27
		c-0.13,0.1-0.22,0.22-0.33,0.35c-0.23,0.27-0.39,0.58-0.52,0.9c-0.07,0.16-0.13,0.32-0.18,0.49c-0.05,0.15-0.11,0.32-0.05,0.47
		c0.01,0.01,0.02,0.03,0.04,0.02c0.12-0.09,0.17-0.22,0.23-0.35c0.07-0.15,0.14-0.3,0.22-0.45c0.15-0.28,0.32-0.58,0.54-0.81
		c0.09-0.09,0.21-0.17,0.32-0.24c0.12-0.08,0.25-0.15,0.38-0.22c0.06-0.03,0.12-0.06,0.18-0.08c-0.26,0.36-0.42,0.79-0.32,1.23
		c0.09,0.37,0.38,0.72,0.79,0.71c0.18-0.01,0.24-0.24,0.09-0.34c-0.05-0.03-0.08-0.06-0.12-0.09c0.14-0.03,0.11-0.21,0-0.25
		c-0.46-0.18,0.25-0.66,0.39-0.79c0.2-0.19,0.33-0.55,0.61-0.62c0.31-0.08,0.53,0,0.77-0.26c0.27-0.29,0.62-0.43,0.97-0.58
		c0.72-0.32,1.47-0.59,2.22-0.82c0.59-0.19,1.19-0.32,1.78-0.48c0.74-0.06,1.47-0.14,2.21-0.26c1.36-0.23,2.7-0.54,4.05-0.78
		C52.43,10.58,52.3,10.09,51.99,10.16z"/>
	<path class="st11" d="M43.46,14.56c-0.03,0-0.07,0-0.1,0c0,0,0,0-0.01,0s-0.03,0-0.04,0c-0.05,0-0.09,0.01-0.14,0.01
		c-0.02,0-0.04,0-0.07,0c-0.01,0-0.01,0,0,0c-0.01,0-0.01,0-0.02,0c-0.01,0-0.02-0.01-0.04-0.01c-0.04-0.01-0.06-0.02-0.09-0.04
		c-0.01-0.01-0.01-0.01,0,0c0,0-0.01,0-0.01-0.01c-0.01-0.01-0.01-0.01-0.02-0.02c0,0-0.02-0.02-0.01-0.01
		c0-0.01-0.01-0.01-0.01-0.02c-0.02-0.03-0.03-0.05-0.04-0.09c-0.01-0.02-0.01-0.05,0-0.08s0.02-0.06,0.04-0.08
		c0.03-0.03-0.01-0.1-0.05-0.07c-0.12,0.08-0.13,0.24-0.08,0.36c0.07,0.16,0.22,0.25,0.38,0.28c0.11,0.02,0.22,0.02,0.33-0.01
		c0.05-0.01,0.09-0.07,0.08-0.12C43.57,14.61,43.52,14.57,43.46,14.56z"/>
	<path class="st11" d="M49.15,13.42c-0.05-0.05-0.12-0.04-0.17,0c-0.01,0.01-0.01,0.01-0.02,0.02c0.01-0.01,0.01-0.01,0,0
		s-0.02,0.02-0.04,0.02c-0.02,0.01-0.04,0.02-0.06,0.04c0,0-0.03,0.02-0.01,0.01c-0.01,0.01-0.03,0.01-0.04,0.01
		c-0.01,0-0.03,0.01-0.04,0.01c0,0-0.04,0.01-0.02,0c-0.06,0.01-0.09,0-0.14-0.01c-0.04-0.01-0.07-0.03-0.12-0.06
		c-0.01-0.01-0.03-0.02-0.05-0.04c-0.01-0.01-0.02-0.02-0.02-0.03c0,0-0.02-0.02-0.01-0.02c-0.03-0.04-0.05-0.08-0.06-0.13
		c-0.02-0.06-0.02-0.11-0.02-0.17c0-0.03,0.01-0.06,0.01-0.08c0-0.03-0.02-0.06-0.03-0.09s-0.04-0.04-0.06-0.02
		c-0.03,0.02-0.06,0.05-0.08,0.09c-0.01,0.04-0.02,0.08-0.02,0.12c-0.01,0.07,0,0.15,0.01,0.22c0.03,0.13,0.11,0.24,0.22,0.32
		c0.23,0.17,0.57,0.16,0.77-0.05C49.19,13.55,49.2,13.47,49.15,13.42z"/>
	<path class="st11" d="M66.54,11.37c-0.05,0-0.08,0.02-0.12,0.04c-0.05,0.01-0.1,0.02-0.14,0.03c-0.02,0-0.03,0.01-0.05,0.01
		c0.02,0-0.01,0-0.01,0c-0.03,0-0.06,0-0.09,0c-0.01,0-0.04,0-0.01,0c-0.02,0-0.03-0.01-0.05-0.01c-0.03-0.01-0.05-0.02-0.08-0.03
		c-0.03-0.01,0.01,0.01-0.01-0.01c-0.01-0.01-0.03-0.01-0.04-0.02c-0.03-0.02-0.04-0.03-0.06-0.04c-0.08-0.07-0.13-0.16-0.16-0.27
		c-0.02-0.06-0.01-0.11-0.03-0.18c0-0.03,0-0.06-0.02-0.09c-0.01-0.03-0.02-0.03-0.01-0.06c0-0.03-0.04-0.03-0.05-0.01
		c-0.01,0.02-0.02,0.03-0.04,0.05c-0.03,0.02-0.04,0.05-0.06,0.09c-0.02,0.06-0.02,0.12-0.02,0.19c0.01,0.13,0.05,0.25,0.12,0.35
		c0.07,0.11,0.18,0.2,0.31,0.25c0.12,0.04,0.25,0.05,0.37,0.03c0.07-0.01,0.13-0.04,0.18-0.08c0.02-0.02,0.04-0.04,0.05-0.06
		c0,0-0.01,0.01,0,0s0.01-0.01,0.02-0.02c0.03-0.03,0.05-0.06,0.05-0.11C66.61,11.4,66.58,11.37,66.54,11.37z"/>
	<path class="st11" d="M74.73,10.88c-0.02-0.02-0.05-0.04-0.08-0.03c-0.05,0.02-0.08,0.06-0.11,0.1s-0.07,0.06-0.1,0.09
		c-0.08,0.05-0.16,0.09-0.26,0.08c-0.11,0-0.2-0.05-0.29-0.1c-0.05-0.03-0.09-0.07-0.13-0.11c-0.05-0.04-0.09-0.07-0.12-0.11
		c-0.01-0.01-0.03,0-0.03,0.02c0.02,0.06,0.04,0.13,0.06,0.18c0.03,0.06,0.08,0.11,0.13,0.15c0.11,0.09,0.24,0.15,0.38,0.16
		c0.13,0.01,0.27-0.02,0.37-0.09C74.66,11.17,74.81,10.99,74.73,10.88z"/>
	<path class="st11" d="M83,10.89c-0.07,0.09-0.12,0.19-0.22,0.26c-0.1,0.07-0.2,0.1-0.32,0.1c-0.1,0-0.21-0.04-0.3-0.11
		c-0.05-0.03-0.08-0.07-0.12-0.11c-0.04-0.05-0.1-0.08-0.13-0.14c-0.02-0.04-0.09-0.02-0.09,0.02c0,0.08-0.01,0.16,0.03,0.23
		s0.09,0.14,0.15,0.19c0.12,0.11,0.29,0.18,0.45,0.18c0.16,0,0.32-0.05,0.45-0.15c0.13-0.1,0.27-0.25,0.27-0.42
		C83.19,10.83,83.06,10.81,83,10.89z"/>
	<path class="st11" d="M89.73,11.57c-0.09,0.22-0.34,0.43-0.59,0.38c-0.11-0.02-0.24-0.08-0.32-0.17c-0.04-0.05-0.07-0.1-0.08-0.16
		c-0.01-0.03,0-0.06-0.01-0.1s-0.02-0.07-0.01-0.11c0-0.01-0.01-0.02-0.02-0.01c-0.07,0.05-0.12,0.12-0.11,0.21
		c0.01,0.08,0.03,0.17,0.08,0.24c0.09,0.15,0.23,0.24,0.4,0.27c0.17,0.03,0.34,0,0.48-0.09c0.15-0.09,0.25-0.24,0.29-0.4
		C89.88,11.55,89.76,11.5,89.73,11.57z"/>
</g>
<g>
	<path d="M63.44,39.45c-1.07-0.5-2.14-0.98-3.16-1.58c-1.2-0.7-2.45-1.56-3.19-2.77c-0.07-0.12-0.26-0.01-0.19,0.11
		c0.73,1.2,1.95,2.07,3.14,2.78c1.06,0.63,2.17,1.13,3.29,1.65C63.45,39.7,63.56,39.51,63.44,39.45L63.44,39.45z"/>
</g>
<g>
	<path d="M38.24,28.12c0.76-0.01,1.23-0.75,1.54-1.35c0.45-0.84,0.79-1.74,1.12-2.63c0.72-1.91,1.29-3.88,1.84-5.85
		c0.08-0.27-0.34-0.38-0.41-0.11c-0.51,1.81-1.03,3.61-1.67,5.38c-0.31,0.85-0.64,1.7-1.02,2.52c-0.25,0.55-0.68,1.6-1.41,1.61
		C37.97,27.69,37.97,28.12,38.24,28.12L38.24,28.12z"/>
</g>
<g>
	<path d="M83.79,15.71c-0.12,1.87,1.25,3.56,2.4,4.9c1.2,1.39,2.6,2.6,4.14,3.6c0.88,0.57,1.8,1.07,2.76,1.49
		c0.25,0.11,0.47-0.26,0.22-0.37c-3.23-1.42-6.12-3.74-8.09-6.68c-0.58-0.87-1.07-1.85-1-2.93C84.24,15.44,83.81,15.44,83.79,15.71
		L83.79,15.71z"/>
</g>
<g>
	<path d="M62.84,9.16c8.58-0.9,17.21-0.42,25.77,0.5c2.44,0.26,4.89,0.46,7.33,0.73c1.04,0.11,2.36,0.22,3.29,0.76
		c1.04,0.61,0.34,2.16,0.37,3.11c0.01,0.45,0.16,0.84,0.33,1.26c0.26,0.64,0.39,1.22,0.45,1.91c0.11,1.22,0.1,2.46,0.08,3.68
		c-0.03,2.43,0.02,4.86,0.15,7.28c0.25,4.6,0.45,9.23,1.23,13.77c0.39,2.31,1,4.57,1.51,6.85c0.54,2.41,1.04,4.83,1.54,7.26
		c0.5,2.42,1,4.85,1.53,7.26c0.52,2.32,1.25,4.57,1.79,6.88c0.55,2.35,0.84,4.76,1.28,7.12c0.46,2.49,0.86,4.99,1.16,7.51
		c0.29,2.4,0.57,4.82,1.16,7.17c0.59,2.35,1.49,4.61,2.15,6.94c1.33,4.64,2.03,9.42,3.06,14.13c0.52,2.38,1.27,4.7,1.72,7.09
		c0.45,2.39,0.63,4.82,0.79,7.25c0.16,2.34,0.27,4.71,0.65,7.02c0.04,0.26,0.12,0.5,0.18,0.76c0.06,0.28,0.03,0.55,0.06,0.83
		c0.02,0.17,0.07,0.33,0.15,0.48c0.2,0.43,0.3,0.67,0,1.07c-0.29,0.38-0.83,0.83-1.27,1.04c-0.51,0.24-1.33,0.09-1.88,0.08
		c-2.43-0.08-4.86-0.25-7.29,0.01c-1.12,0.12-2.22,0.31-3.3,0.64c-1.15,0.35-2.14,0.62-3.36,0.57c-0.5-0.02-0.97,0.01-1.44,0.2
		c-0.61,0.24-1.26,0.71-1.75,0.01c-0.58-0.83-0.5-1.98-0.71-2.94c-0.25-1.16-0.69-2.28-1.03-3.41c-0.35-1.17-0.74-2.34-1.15-3.49
		c-0.81-2.25-1.78-4.44-2.67-6.66c-0.91-2.28-1.55-4.59-2.06-6.98c-1.02-4.79-2.53-9.39-4.09-14.02c-1.62-4.81-3.24-9.63-4.86-14.44
		c-1.5-4.47-3.45-8.75-5.48-13c-2.1-4.41-4.14-8.84-5.98-13.37c-1.83-4.52-3.53-9.08-5.18-13.67c-0.8-2.23-1.6-4.47-2.39-6.71
		c-0.18-0.52-1.01-0.29-0.83,0.23c3.34,9.41,6.69,18.84,10.81,27.95c2.03,4.49,4.3,8.87,6.2,13.42c1.96,4.7,3.43,9.6,5.05,14.42
		c1.63,4.86,3.42,9.69,4.78,14.63c0.66,2.4,1.07,4.85,1.68,7.25s1.55,4.67,2.5,6.95c0.96,2.29,1.84,4.62,2.59,6.99
		c0.37,1.18,0.77,2.36,1.11,3.55c0.28,1,0.26,2.09,0.62,3.07c0.29,0.8,0.9,1.56,1.84,1.48c0.48-0.04,0.87-0.32,1.31-0.48
		c0.63-0.23,1.27-0.08,1.92-0.09c1.09-0.03,2.09-0.45,3.13-0.73c1.25-0.35,2.55-0.52,3.85-0.59c2.46-0.15,4.9,0.09,7.36,0.11
		c0.97,0.01,1.69-0.53,2.37-1.2c0.32-0.32,0.61-0.71,0.66-1.18c0.05-0.49-0.25-0.78-0.35-1.22c-0.11-0.46-0.13-0.97-0.23-1.44
		c-0.14-0.64-0.2-1.32-0.27-1.97c-0.14-1.25-0.23-2.51-0.32-3.77c-0.17-2.42-0.32-4.84-0.66-7.25c-0.35-2.46-1.08-4.82-1.65-7.23
		c-0.58-2.45-1.04-4.92-1.52-7.39c-0.47-2.43-0.96-4.85-1.6-7.24c-0.65-2.42-1.55-4.76-2.22-7.17c-0.68-2.47-1.01-5.01-1.31-7.55
		c-0.3-2.47-0.66-4.91-1.11-7.35c-0.46-2.46-0.76-4.96-1.32-7.39c-0.55-2.39-1.32-4.73-1.85-7.12c-1.11-4.95-2.05-9.94-3.15-14.89
		c-0.53-2.35-1.14-4.69-1.52-7.07c-0.38-2.41-0.6-4.85-0.76-7.28c-0.16-2.4-0.31-4.8-0.41-7.2c-0.1-2.51-0.04-5.02-0.07-7.53
		c-0.01-1.16,0.01-2.47-0.38-3.57c-0.18-0.5-0.46-0.97-0.49-1.5c-0.02-0.54,0.13-1.08,0.17-1.62c0.07-0.92-0.13-1.75-0.97-2.23
		c-0.88-0.5-2.01-0.65-3-0.79c-2.45-0.34-4.94-0.48-7.41-0.75c-2.54-0.28-5.08-0.55-7.64-0.69c-4.09-0.23-8.2-0.5-12.3-0.36
		C67.15,7.89,65,8.07,62.84,8.3C62.3,8.36,62.29,9.22,62.84,9.16L62.84,9.16z"/>
</g>
<g>
	<path d="M72.45,64.64c0.36,2.01,0.36,4.05,0.41,6.09c0.04,2.04,0.17,4.08,0.29,6.11c0.25,4.05,0.58,8.1,0.98,12.14
		c0.2,2.01,0.42,4.02,0.64,6.03c0.21,1.9,0.63,3.73,1.11,5.58c0.49,1.89,0.95,3.79,1.16,5.74c0.21,2.01,0.22,4.03,0.14,6.05
		c-0.08,2.02-0.27,4.03-0.39,6.05c-0.11,1.94-0.13,3.88-0.18,5.83c-0.06,2.07-0.16,4.15-0.49,6.19c-0.14,0.86-0.3,1.72-0.37,2.6
		c-0.07,0.96,0.03,1.87,0.17,2.81c0.08,0.54,0.12,1.11,0.02,1.65c-0.05,0.27-0.13,0.6-0.34,0.79c-0.34,0.3-0.87,0-1.26-0.07
		c-0.78-0.13-1.46,0.11-2.17,0.38c-0.89,0.34-1.81,0.57-2.75,0.72c-1.95,0.31-3.92,0.22-5.87,0.46c-0.87,0.11-1.74,0.23-2.61,0.26
		c-0.99,0.04-1.97-0.06-2.95-0.11c-0.89-0.04-1.63-0.13-2.5,0.08c-1.4,0.34-1.23-1.25-1.16-2.17c0.07-0.82-0.06-1.58-0.26-2.37
		c-0.25-1.01-0.41-2.01-0.49-3.05c-0.29-3.82-0.73-7.59-1.36-11.37c-0.66-3.88-1.44-7.73-2.15-11.6c-0.73-3.97-1.3-7.94-1.72-11.95
		c-1.67-16.02-5.26-31.75-8.8-47.44c-0.9-4-1.48-8.05-2-12.11c-0.51-3.93-1.2-7.88-1.11-11.86c0.05-2.03,0.24-4.06,0.46-6.08
		c0.1-0.93,0.23-1.85,0.3-2.78c0.06-0.76-0.11-1.74,0.22-2.46s1.4-1.02,2.07-1.32c0.94-0.42,1.9-0.78,2.87-1.1
		c1.84-0.6,3.73-1.02,5.64-1.28c1.39-0.19,2.79-0.36,4.17-0.64c0.54-0.11,0.31-0.94-0.23-0.83c-1.51,0.3-3.04,0.47-4.56,0.69
		c-2.03,0.29-4.02,0.78-5.95,1.47c-0.81,0.29-1.6,0.6-2.38,0.95c-0.74,0.33-1.65,0.63-2.16,1.3c-0.35,0.46-0.46,1.02-0.49,1.59
		c-0.05,1.06-0.09,2.1-0.21,3.15c-0.47,4.14-0.82,8.25-0.36,12.42c0.45,4.06,1,8.13,1.61,12.17c0.62,4.13,1.57,8.18,2.49,12.24
		c0.92,4.1,1.83,8.21,2.69,12.32c1.72,8.21,3.26,16.46,4.33,24.77c0.53,4.11,0.86,8.24,1.51,12.34c0.64,4.04,1.45,8.05,2.21,12.08
		c0.76,4.05,1.46,8.11,1.85,12.22c0.17,1.83,0.17,3.71,0.54,5.52c0.19,0.93,0.51,1.81,0.46,2.77c-0.05,0.91-0.26,1.83,0.29,2.64
		c0.35,0.52,0.92,0.81,1.54,0.71c0.46-0.07,0.84-0.26,1.32-0.25c0.49,0.01,0.98,0.09,1.47,0.11c0.94,0.04,1.89,0.14,2.83,0.1
		c1.03-0.04,2.06-0.21,3.08-0.32c1.96-0.22,3.92-0.13,5.87-0.48c0.86-0.15,1.69-0.38,2.51-0.68c0.37-0.14,0.74-0.31,1.13-0.37
		c0.57-0.09,1.03,0.16,1.58,0.22c1.34,0.13,1.73-1.37,1.75-2.42c0.01-0.58-0.1-1.14-0.19-1.71c-0.17-1.07-0.08-2.16,0.07-3.23
		c0.3-2.06,0.58-4.08,0.68-6.16c0.09-2.02,0.09-4.05,0.17-6.08c0.17-4.21,0.73-8.39,0.39-12.61c-0.32-4.04-1.84-7.82-2.31-11.83
		c-0.96-8.29-1.79-16.67-1.95-25.02c-0.02-0.92-0.04-1.83-0.09-2.75c-0.03-0.46-0.06-0.91-0.11-1.37c-0.04-0.37,0-0.79-0.2-1.11
		c-0.1-0.17-0.25-0.32-0.39-0.46c-0.07-0.06-0.13-0.12-0.2-0.18c-0.04-0.04-0.09-0.08-0.15-0.09
		C72.45,64.25,72.43,64.53,72.45,64.64z"/>
</g>
<g>
	<path d="M36.74,18.15c0.53-0.19,1.1-0.25,1.63-0.44c0.13-0.05,0.07-0.25-0.06-0.21c-0.53,0.19-1.1,0.25-1.63,0.44
		C36.55,17.99,36.61,18.19,36.74,18.15L36.74,18.15z"/>
</g>
<g>
	<path d="M41.94,16.92c2.81-0.44,5.62-0.87,8.42-1.33c0.64-0.1,1.28-0.21,1.91-0.32c0.14-0.02,0.08-0.23-0.06-0.21
		c-2.8,0.5-5.61,0.92-8.42,1.36c-0.64,0.1-1.28,0.2-1.92,0.3C41.75,16.73,41.8,16.94,41.94,16.92L41.94,16.92z"/>
</g>
<g>
	<path d="M63.38,14.11c2.33-0.18,4.66-0.36,6.99-0.53c0.14-0.01,0.14-0.23,0-0.21c-2.33,0.18-4.66,0.36-6.99,0.53
		C63.25,13.9,63.25,14.12,63.38,14.11L63.38,14.11z"/>
</g>
<g>
	<path d="M76.98,13.36c2.84,0.01,5.67,0.1,8.51,0.25c3.08,0.16,6.17,0.39,9.23,0.75c1.53,0.18,3.05,0.4,4.56,0.7
		c0.14,0.03,0.19-0.18,0.06-0.21c-2.79-0.55-5.62-0.85-8.45-1.09c-3.09-0.26-6.19-0.43-9.29-0.53c-1.54-0.05-3.07-0.08-4.61-0.09
		C76.84,13.15,76.84,13.36,76.98,13.36L76.98,13.36z"/>
</g>
<g>
	<path d="M41.92,37.85c0.43,3.2,1.45,6.26,2.08,9.41c0.64,3.18,1.01,6.4,1.35,9.62c0.68,6.48,1.72,12.92,3.14,19.29
		c0.71,3.2,1.44,6.4,2.03,9.63c0.59,3.21,1.04,6.44,1.48,9.67c0.44,3.22,0.88,6.44,1.43,9.65c0.54,3.19,0.87,6.41,1.37,9.61
		c0.26,1.67,0.66,3.32,0.87,5c0.2,1.61,0.29,3.23,0.35,4.84c0.06,1.61,0.01,3.23,0.11,4.84c0.05,0.72,0.1,1.46,0.27,2.17
		c0.16,0.68,0.42,1.33,0.64,1.99c0.25,0.76,0.44,1.54,0.33,2.34c-0.02,0.14,0.19,0.19,0.21,0.06c0.19-1.37-0.42-2.61-0.82-3.89
		c-0.47-1.54-0.46-3.23-0.48-4.83c-0.04-3.22-0.1-6.47-0.73-9.64c-0.63-3.18-1-6.38-1.45-9.59c-0.46-3.24-1.05-6.47-1.51-9.71
		c-0.46-3.25-0.86-6.52-1.39-9.76c-0.54-3.26-1.19-6.5-1.91-9.72c-1.46-6.51-2.71-13.03-3.49-19.66c-0.37-3.18-0.64-6.36-1.16-9.52
		c-0.26-1.58-0.57-3.15-0.95-4.7c-0.38-1.58-0.86-3.14-1.18-4.74c-0.16-0.8-0.29-1.61-0.4-2.42C42.11,37.66,41.9,37.72,41.92,37.85
		L41.92,37.85z"/>
</g>
<g>
	<path d="M109.03,130.99c-0.33-3.01-0.48-6.11-1.54-8.98c-0.54-1.45-1.13-2.88-1.62-4.35c-0.49-1.48-0.91-2.98-1.31-4.49
		c-1.65-6.26-3.12-12.57-4.49-18.9c-1.35-6.2-2.67-12.4-4.25-18.55c-1.57-6.13-3.3-12.21-5.19-18.25c-0.47-1.51-0.96-3.01-1.45-4.52
		c-0.49-1.48-1.08-2.96-1.48-4.47c-0.17-0.62-0.22-1.27-0.44-1.88c-0.23-0.64-0.63-1.18-0.98-1.75c-0.84-1.32-1.38-2.84-1.81-4.34
		c-0.21-0.72-0.38-1.44-0.53-2.18c-0.03-0.14-0.23-0.08-0.21,0.06c0.3,1.49,0.72,2.96,1.28,4.37c0.25,0.63,0.53,1.25,0.87,1.84
		c0.39,0.68,0.9,1.3,1.18,2.05c0.21,0.58,0.27,1.2,0.42,1.8c0.19,0.76,0.49,1.51,0.74,2.25c0.5,1.5,1,3,1.48,4.51
		c1.92,5.99,3.69,12.04,5.29,18.13c1.61,6.12,3.05,12.28,4.34,18.47c1.32,6.31,2.83,12.57,4.37,18.83c0.75,3.03,1.54,6.05,2.63,8.97
		c0.54,1.44,1.18,2.84,1.54,4.34c0.37,1.54,0.5,3.13,0.68,4.7c0.09,0.77,0.17,1.55,0.26,2.32
		C108.83,131.12,109.04,131.13,109.03,130.99L109.03,130.99z"/>
</g>
<g>
	<path d="M84.09,15.9c1.8-0.04,3.58,0.24,5.29,0.81c0.26,0.09,0.38-0.33,0.11-0.41c-1.74-0.58-3.57-0.86-5.41-0.83
		C83.81,15.48,83.81,15.91,84.09,15.9L84.09,15.9z"/>
</g>
<g>
	<path d="M93.38,25.71c0.94-0.65,1.76-1.46,2.43-2.4c0.07-0.09,0.02-0.24-0.08-0.29c-0.11-0.06-0.23-0.02-0.29,0.08
		c-0.62,0.87-1.4,1.63-2.28,2.24c-0.1,0.07-0.14,0.19-0.08,0.29C93.14,25.73,93.29,25.78,93.38,25.71L93.38,25.71z"/>
</g>
<g>
	<path d="M38.3,27.73c-0.03-0.02-0.07-0.04-0.1-0.06c-0.02-0.01-0.03-0.02-0.05-0.04c-0.03-0.02,0.03,0.03,0.01,0.01
		c-0.01-0.01-0.01-0.01-0.02-0.02c-0.06-0.05-0.12-0.11-0.17-0.18c-0.01-0.01-0.01-0.02-0.02-0.02c-0.02-0.03,0,0,0.01,0.01
		c-0.01-0.02-0.03-0.03-0.04-0.05c-0.03-0.04-0.05-0.07-0.07-0.11s-0.05-0.08-0.07-0.12c-0.01-0.02-0.02-0.04-0.03-0.06
		c-0.01-0.01-0.01-0.02-0.02-0.04c-0.01-0.01-0.02-0.05,0,0c-0.02-0.05-0.05-0.1-0.1-0.13c-0.05-0.03-0.11-0.04-0.17-0.02
		c-0.05,0.02-0.1,0.05-0.13,0.1c-0.03,0.05-0.04,0.11-0.02,0.17c0.16,0.37,0.4,0.74,0.77,0.93c0.1,0.05,0.24,0.03,0.29-0.08
		C38.43,27.93,38.41,27.79,38.3,27.73L38.3,27.73z"/>
</g>
<g>
	<path d="M42.54,17.99c-0.79,0.04-1.54,0.26-2.24,0.63c-0.24,0.13-0.03,0.5,0.22,0.37c0.63-0.33,1.31-0.53,2.02-0.57
		C42.82,18.41,42.82,17.98,42.54,17.99L42.54,17.99z"/>
</g>
<g>
	<path d="M64.74,39.48c0.74-0.29,1.41-0.75,1.94-1.35c0.09-0.1-0.06-0.26-0.15-0.15c-0.51,0.57-1.14,1.01-1.85,1.29
		C64.56,39.32,64.61,39.53,64.74,39.48L64.74,39.48z"/>
</g>
<g>
	<path d="M65.88,136.91c2.79,0.41,5.73,0.54,8.38-0.61c0.13-0.05,0.02-0.24-0.11-0.19c-2.58,1.12-5.49,0.98-8.21,0.59
		C65.8,136.68,65.75,136.89,65.88,136.91L65.88,136.91z"/>
</g>
<g>
	<path d="M71.05,135.74c1.07-0.04,2.14-0.22,3.16-0.53c0.13-0.04,0.08-0.25-0.06-0.21c-1.01,0.31-2.05,0.48-3.11,0.52
		C70.91,135.53,70.91,135.75,71.05,135.74L71.05,135.74z"/>
</g>
<g>
	<path d="M54.88,137.32c2.15-0.35,4.34-0.37,6.5-0.06c0.14,0.02,0.19-0.19,0.06-0.21c-2.2-0.31-4.42-0.29-6.62,0.06
		C54.69,137.13,54.75,137.34,54.88,137.32L54.88,137.32z"/>
</g>
<g>
	<path d="M109.12,136.52c1.62-1.07,3.67-0.8,5.48-0.5c1.8,0.3,3.73,0.61,5.44-0.21c0.12-0.06,0.02-0.25-0.11-0.19
		c-3.47,1.68-7.57-1.49-10.92,0.71C108.89,136.41,109,136.6,109.12,136.52L109.12,136.52z"/>
</g>
<g>
	<path d="M116.82,135.21c0.62,0.24,1.31,0.26,1.95,0.05c0.13-0.04,0.07-0.25-0.06-0.21c-0.6,0.2-1.24,0.18-1.83-0.05
		C116.75,134.95,116.69,135.16,116.82,135.21L116.82,135.21z"/>
</g>
<g>
	<path d="M106.71,137.32c-1.52,0.97-3.35,1.38-5.13,1.13c-0.14-0.02-0.19,0.19-0.06,0.21c1.84,0.25,3.73-0.15,5.3-1.15
		C106.94,137.43,106.83,137.25,106.71,137.32L106.71,137.32z"/>
</g>
<g>
	<path d="M58.82,41.71c-3.26-0.37-6.55-0.44-9.82-0.21c-0.14,0.01-0.14,0.22,0,0.21c3.27-0.23,6.56-0.16,9.82,0.21
		C58.96,41.94,58.96,41.73,58.82,41.71L58.82,41.71z"/>
</g>
<g>
	<path d="M56.52,43.72c0.78-0.17,1.55-0.33,2.33-0.5c0.14-0.03,0.08-0.24-0.06-0.21c-0.78,0.17-1.55,0.33-2.33,0.5
		C56.33,43.54,56.39,43.75,56.52,43.72L56.52,43.72z"/>
</g>
<g>
	<path d="M51.82,13.03c0.02,0.47,0.04,0.94,0.06,1.41c0.02,0.44-0.02,0.95,0.14,1.37c0.21,0.56,0.71,0.57,1.23,0.53
		c0.56-0.04,1.13-0.08,1.69-0.12c2.31-0.17,4.62-0.37,6.92-0.59c0.26-0.03,0.53-0.05,0.79-0.08c0.25-0.03,0.5-0.04,0.72-0.16
		c0.48-0.26,0.49-0.77,0.46-1.25c-0.07-1.13-0.19-2.26-0.34-3.39c-0.08-0.57-0.17-1.14-0.27-1.7c-0.09-0.47-0.15-0.98-0.62-1.23
		c-0.41-0.22-0.93-0.17-1.38-0.17c-0.57,0-1.14,0.02-1.71,0.05c-2.55,0.13-5.08,0.5-7.56,1.09c-0.54,0.13-0.31,0.96,0.23,0.83
		c1.95-0.47,3.93-0.8,5.93-0.97c0.98-0.08,1.97-0.13,2.96-0.14c0.24,0,0.47-0.01,0.71,0c0.12,0,0.35-0.01,0.45,0.08
		c0.1,0.1,0.1,0.35,0.12,0.48c0.05,0.26,0.09,0.51,0.14,0.77c0.17,0.99,0.29,1.99,0.39,3c0.05,0.5,0.09,1.01,0.11,1.51
		c0,0.09,0.03,0.24-0.03,0.29c-0.11,0.1-0.48,0.07-0.62,0.09c-2.04,0.2-4.08,0.38-6.13,0.54c-0.56,0.04-1.13,0.09-1.69,0.13
		c-0.28,0.02-0.56,0.04-0.85,0.06c-0.26,0.02-0.56,0-0.82,0.05c-0.07,0.01-0.05,0-0.01,0.03c-0.02-0.02-0.03-0.08-0.03-0.1
		c-0.01-0.1-0.02-0.2-0.02-0.29c-0.01-0.23-0.03-0.47-0.04-0.7c-0.03-0.47-0.04-0.94-0.06-1.41C52.65,12.48,51.79,12.48,51.82,13.03
		L51.82,13.03z"/>
</g>
<g>
	<path d="M51.63,9.2c0.05,0.73,0.08,1.46,0.11,2.19c0.01,0.22,0.19,0.44,0.43,0.43c0.22-0.01,0.44-0.19,0.43-0.43
		c-0.03-0.73-0.07-1.46-0.11-2.19c-0.01-0.22-0.19-0.44-0.43-0.43C51.84,8.78,51.62,8.96,51.63,9.2L51.63,9.2z"/>
</g>
<g>
	<path d="M60.87,8.63c0.22,1.88,0.46,3.77,0.72,5.65c0.02,0.14,0.23,0.08,0.21-0.06c-0.25-1.86-0.49-3.72-0.71-5.59
		C61.07,8.5,60.86,8.5,60.87,8.63L60.87,8.63z"/>
</g>
<g>
	<path d="M57.52,12.21c0.36-0.16,0.46-0.57,0.39-0.93c-0.07-0.38-0.34-0.59-0.72-0.6c-0.47-0.02-0.98,0.07-1.45,0.12
		c-0.49,0.05-0.97,0.11-1.46,0.18c-0.51,0.07-1.02,0.15-1.52,0.25c-0.36,0.07-0.75,0.13-1.04,0.38c-0.25,0.21-0.44,0.57-0.35,0.9
		c0.08,0.28,0.34,0.46,0.59,0.58s0.47-0.25,0.22-0.37c-0.14-0.07-0.35-0.16-0.39-0.32c-0.08-0.29,0.28-0.54,0.51-0.62
		c0.6-0.21,1.28-0.27,1.9-0.36c0.68-0.1,1.36-0.18,2.04-0.24c0.32-0.03,0.69-0.11,1-0.07c0.34,0.05,0.36,0.59,0.06,0.73
		C57.05,11.95,57.27,12.33,57.52,12.21L57.52,12.21z"/>
</g>
<g>
	<path d="M51.88,13.05c0.35,0.15,0.73-0.03,1.02-0.24c0.2-0.15,0.39-0.14,0.63-0.17c0.26-0.03,0.52-0.06,0.78-0.09
		c1.01-0.11,2.02-0.21,3.02-0.3c0.27-0.03,0.28-0.46,0-0.43c-0.98,0.09-1.95,0.19-2.92,0.29c-0.44,0.05-0.9,0.06-1.34,0.14
		c-0.37,0.06-0.65,0.55-1.07,0.38C51.74,12.53,51.63,12.94,51.88,13.05L51.88,13.05z"/>
</g>
<g>
	<path d="M60.16,11.39c-0.06-0.63-0.21-1.29-0.4-1.9c-0.1-0.32-0.25-0.43-0.59-0.42c-0.57,0.02-1.14,0.08-1.71,0.12
		c-1.04,0.07-2.1,0.1-3.13,0.26c-0.26,0.04-0.52,0.09-0.78,0.16c-0.16,0.04-0.36,0.08-0.46,0.23c-0.1,0.16-0.05,0.41-0.05,0.59
		c0,0.28,0.01,0.56,0.02,0.83c0,0.14,0.22,0.14,0.21,0c0-0.24-0.01-0.49-0.01-0.73c-0.01-0.28-0.07-0.56,0.25-0.68
		c0.4-0.16,0.87-0.2,1.29-0.24c0.88-0.1,1.77-0.14,2.66-0.2c0.44-0.03,0.89-0.06,1.33-0.09c0.25-0.02,0.59-0.12,0.73,0.16
		c0.04,0.08,0.06,0.19,0.08,0.28c0.14,0.53,0.28,1.09,0.33,1.64C59.95,11.53,60.17,11.53,60.16,11.39L60.16,11.39z"/>
</g>
<g>
	<path d="M53.28,12.56c0.03,0.49,0.07,0.99,0.1,1.48c0.02,0.26-0.02,0.64,0.27,0.77s0.71-0.03,1.01-0.07
		c0.48-0.07,0.97-0.14,1.45-0.2c0.96-0.12,1.92-0.19,2.89-0.24c0.22-0.01,0.43-0.02,0.65-0.02c0.13,0,0.26,0.03,0.39-0.01
		c0.3-0.08,0.27-0.43,0.28-0.68c0.05-0.85-0.08-1.71-0.22-2.55c-0.02-0.14-0.23-0.08-0.21,0.06c0.13,0.82,0.26,1.66,0.21,2.49
		c-0.01,0.12,0.01,0.42-0.12,0.48c-0.05,0.02-0.15,0.01-0.2,0c-0.21-0.01-0.43,0-0.64,0.01c-0.5,0.02-0.99,0.05-1.49,0.09
		c-0.98,0.08-1.95,0.2-2.91,0.34c-0.2,0.03-0.4,0.05-0.59,0.09c-0.12,0.02-0.26,0.07-0.38,0.03c-0.19-0.07-0.16-0.32-0.17-0.48
		c-0.04-0.53-0.07-1.06-0.11-1.59C53.49,12.42,53.27,12.42,53.28,12.56L53.28,12.56z"/>
</g>
<g>
	<path d="M66.24,11.54c-0.35,0-0.63-0.29-0.63-0.66c0-0.36,0.28-0.66,0.63-0.66s0.63,0.29,0.63,0.66
		C66.86,11.24,66.58,11.54,66.24,11.54z M66.24,10.33c-0.29,0-0.52,0.25-0.52,0.55s0.23,0.55,0.52,0.55c0.29,0,0.52-0.25,0.52-0.55
		S66.52,10.33,66.24,10.33z"/>
</g>
<g>
	<path d="M74.19,11.16c-0.35,0-0.63-0.29-0.63-0.66c0-0.36,0.28-0.66,0.63-0.66s0.63,0.29,0.63,0.66S74.54,11.16,74.19,11.16z
		 M74.19,9.96c-0.29,0-0.52,0.25-0.52,0.55s0.23,0.55,0.52,0.55c0.29,0,0.52-0.25,0.52-0.55S74.48,9.96,74.19,9.96z"/>
</g>
<g>
	<path d="M82.47,11.35c-0.35,0-0.63-0.29-0.63-0.66c0-0.36,0.28-0.66,0.63-0.66s0.63,0.29,0.63,0.66
		C83.1,11.05,82.81,11.35,82.47,11.35z M82.47,10.14c-0.29,0-0.52,0.25-0.52,0.55s0.23,0.55,0.52,0.55c0.29,0,0.52-0.25,0.52-0.55
		S82.75,10.14,82.47,10.14z"/>
</g>
<g>
	<path d="M89.26,11.95c-0.35,0-0.63-0.29-0.63-0.66c0-0.36,0.28-0.66,0.63-0.66s0.63,0.29,0.63,0.66S89.6,11.95,89.26,11.95z
		 M89.26,10.75c-0.29,0-0.52,0.25-0.52,0.55s0.23,0.55,0.52,0.55c0.29,0,0.52-0.25,0.52-0.55S89.55,10.75,89.26,10.75z"/>
</g>
<g>
	<path d="M48.76,13.61c-0.29,0-0.52-0.28-0.52-0.62s0.23-0.62,0.52-0.62s0.52,0.28,0.52,0.62S49.05,13.61,48.76,13.61z M48.76,12.48
		c-0.23,0-0.42,0.23-0.42,0.51c0,0.28,0.19,0.51,0.42,0.51s0.42-0.23,0.42-0.51C49.17,12.71,48.99,12.48,48.76,12.48z"/>
</g>
<g>
	<path d="M43.35,14.67c-0.27,0-0.49-0.26-0.49-0.58s0.22-0.58,0.49-0.58s0.49,0.26,0.49,0.58S43.62,14.67,43.35,14.67z M43.35,13.62
		c-0.21,0-0.38,0.21-0.38,0.47s0.17,0.47,0.38,0.47c0.21,0,0.38-0.21,0.38-0.47S43.56,13.62,43.35,13.62z"/>
</g>
<g>
	<path d="M41.12,11.9c-0.97,0.51-2,1.13-2.73,1.97c-0.11,0.13-0.22,0.26-0.3,0.41c-0.04,0.07-0.07,0.14-0.09,0.21
		c0,0.01,0,0.03,0,0.04c-0.01,0.05-0.01,0.09-0.02,0.14c0.03-0.1,0.02-0.11-0.02-0.04c-0.22,0.22-0.06,0.6,0.09,0.8
		c0.2,0.27,0.44,0.48,0.71,0.67c0.51,0.37,1.06,0.74,1.72,0.68c0.73-0.07,1.46-0.23,2.18-0.36c1.47-0.25,2.95-0.49,4.42-0.74
		c1.68-0.28,3.37-0.57,5.05-0.85c0.23-0.04,0.36-0.32,0.3-0.53c-0.07-0.24-0.3-0.34-0.53-0.3c-3.72,0.62-7.44,1.25-11.16,1.87
		c-0.21,0.04-0.43,0.08-0.65,0.02c-0.19-0.05-0.35-0.18-0.52-0.28c-0.17-0.11-0.35-0.22-0.51-0.35c-0.13-0.1-0.34-0.26-0.37-0.43
		c0,0.08,0,0.15,0,0.23c0.01-0.06,0.09-0.15,0.11-0.21c0.02-0.05,0.07-0.29,0.02-0.12c0.03-0.11-0.03,0.04,0.01-0.03
		c0.02-0.03,0.04-0.06,0.05-0.09c0.05-0.07,0.1-0.14,0.19-0.24c0.1-0.11,0.21-0.21,0.32-0.31c0.64-0.57,1.39-1.03,2.14-1.42
		C42.04,12.39,41.61,11.65,41.12,11.9L41.12,11.9z"/>
</g>
<g>
	<path d="M63.35,13.75c4.73-0.52,9.49-0.79,14.26-0.82c4.74-0.02,9.49,0.2,14.21,0.67c2.66,0.26,5.32,0.61,7.96,1.03
		c0.23,0.04,0.46-0.06,0.53-0.3c0.06-0.2-0.07-0.49-0.3-0.53c-4.72-0.75-9.48-1.27-14.26-1.53c-4.77-0.26-9.56-0.27-14.33-0.03
		c-2.69,0.14-5.38,0.35-8.06,0.65c-0.23,0.03-0.43,0.18-0.43,0.43C62.92,13.54,63.12,13.78,63.35,13.75L63.35,13.75z"/>
</g>
<g>
	<path d="M37.03,17.37c0.37-0.16,0.78-0.33,1.2-0.46c0.43-0.14,0.86-0.26,1.3-0.36c0.22-0.05,0.37-0.31,0.3-0.53
		c-0.07-0.23-0.29-0.35-0.53-0.3c-0.93,0.21-1.83,0.52-2.71,0.91c-0.21,0.09-0.27,0.41-0.15,0.59
		C36.57,17.43,36.8,17.47,37.03,17.37L37.03,17.37z"/>
</g>
<g>
	<path d="M56.78,33.85c-1.05-4.1-1.8-8.27-2.22-12.48c-0.12-1.18-0.21-2.35-0.28-3.53c-0.01-0.14-0.22-0.14-0.21,0
		c0.25,4.21,0.81,8.39,1.68,12.51c0.25,1.19,0.53,2.37,0.83,3.55C56.6,34.04,56.81,33.98,56.78,33.85L56.78,33.85z"/>
</g>
</svg>
