<?xml version="1.0" encoding="utf-8"?>
<!-- Generator: Adobe Illustrator 28.0.0, SVG Export Plug-In . SVG Version: 6.00 Build 0)  -->
<svg version="1.1" id="Layer_1" xmlns="http://www.w3.org/2000/svg" xmlns:xlink="http://www.w3.org/1999/xlink" x="0px" y="0px"
	 viewBox="0 0 150 150" style="enable-background:new 0 0 150 150;" xml:space="preserve">
<style type="text/css">
	.st0{stroke:#000000;stroke-width:2;stroke-linecap:round;stroke-linejoin:round;stroke-miterlimit:10;}
	.st1{fill:#19315B;}
	.st2{fill:#E5CC17;}
	.st3{fill:#FAFF3B;}
	.st4{fill:url(#SVGID_1_);}
	.st5{fill:url(#SVGID_00000054261449878959943790000013558002724763740288_);}
	.st6{fill:url(#SVGID_00000091700549614223758110000011929179864846532535_);}
	.st7{fill:url(#SVGID_00000134958815148820563430000013442418739921390993_);}
	.st8{fill:url(#SVGID_00000096737432042232381720000008945001923477615770_);}
	.st9{fill:url(#SVGID_00000067223693323009552120000000656870798819876498_);}
	.st10{fill:url(#SVGID_00000041992221260793492940000002824167360342211774_);}
	.st11{fill:#264B7F;}
</style>
<g id="Presidential_Pants">
	<path class="st0" d="M123.65,104.72c-0.43-2.21-0.91-4.41-1.49-6.59c-0.78-2.95-1.13-5.98-1.86-8.94
		c-0.82-3.35-1.6-6.71-2.31-10.09c-0.72-3.41-1.31-6.83-1.94-10.26c-0.32-1.73-0.78-3.41-1.16-5.13c-0.36-1.63-0.69-3.26-1.03-4.89
		c-0.72-3.46-1.4-6.92-2.19-10.37c-1.41-6.13-2.35-12.29-2.94-18.55c-0.27-2.78-0.52-5.56-0.76-8.35c-0.13-1.47-0.25-2.93-0.37-4.4
		c-0.05-0.57,0.05-1.33-0.17-1.86c-0.05-0.11-0.31-0.38-0.29-0.33c0,0.01,0.17-0.68,0.17-0.87c0.01-0.55-0.11-1.13-0.25-1.66
		c-0.14-0.57-0.42-0.71-0.84-1.07c-0.17-0.15-0.31-0.29-0.52-0.39c-0.34-0.15-0.48-0.05-0.6-0.47c-0.14-0.48-0.36-0.84-0.82-1.1
		c-0.49-0.28-1.15-0.35-1.71-0.36c-0.73,0-1.24,0.57-1.94,0.47C99.12,9.32,97.6,9.15,96.09,9c-3.13-0.31-6.27-0.54-9.42-0.68
		c-1.21-0.05-2.4-0.1-3.6-0.04c-0.43,0.02-0.95,0.08-1.36-0.08c-0.43-0.17-0.4-0.71-0.84-0.91c-0.53-0.23-1.32-0.17-1.88-0.09
		c-0.62,0.09-0.72,0.35-1.03,0.82c-0.36,0.54-1.71,0.31-2.3,0.31c-0.79,0.01-1.57,0.01-2.36,0.02c-3.12,0.06-6.25,0.36-9.35,0.73
		c-1.28,0.15-2.55,0.32-3.81,0.58c-0.46,0.1-1.08,0.27-1.48-0.06c-0.2-0.16-0.3-0.33-0.55-0.43c-0.32-0.12-0.73-0.05-1.05-0.01
		c-0.44,0.06-1.08,0.13-1.38,0.5c-0.14,0.18-0.14,0.43-0.3,0.59c-0.21,0.23-0.61,0.28-0.9,0.35c-1.42,0.32-2.83,0.63-4.24,0.98
		c-0.66,0.17-1.19,0.34-1.83,0.04c-0.62-0.29-1.02-0.25-1.67-0.05c-0.5,0.16-0.89,0.33-1.19,0.79c-0.22,0.34-0.34,0.61-0.67,0.88
		c-0.23,0.18-0.48,0.34-0.68,0.55c-0.82,0.85-1.11,2.15-1.29,3.28c-0.04,0.22-0.08,0.45-0.1,0.68c-0.02,0.3,0.18,0.55,0.17,0.83
		c-0.01,0.24-0.27,0.51-0.39,0.72c-0.16,0.28-0.26,0.52-0.32,0.83c-0.25,1.44-0.27,2.98-0.29,4.44c-0.02,1.58,0.04,3.15,0.17,4.73
		c0.25,3.12,0.75,6.21,1.35,9.28c1.22,6.21,2.74,12.37,4.11,18.55c2.77,12.41,5.39,24.88,6.82,37.52c0.35,3.06,0.64,6.11,1.12,9.15
		c0.48,3,1.05,5.99,1.62,8.98c0.59,3.08,1.17,6.15,1.65,9.25c0.45,2.9,0.71,5.81,0.96,8.73c0.13,1.55,0.31,3.09,0.51,4.63l0.01-0.01
		c-0.02,0.17,0.06,0.34,0.29,0.41c1.31,0.4,2.72,0.77,4.08,0.9c3.11,0.29,6.33-0.05,9.39-0.61c3.02-0.56,6.14-1.31,9.01-2.42
		c0.29-0.11,0.73-0.23,0.98-0.42c0.27-0.2,0.35-0.64,0.4-0.95c0.22-1.2,0.34-2.44,0.46-3.66c0.32-3.24,0.51-6.5,0.53-9.76
		c0.02-3.24-0.33-6.47-0.2-9.7c0.06-1.54,0.29-3.07,0.18-4.62c-0.11-1.57-0.4-3.14-0.61-4.7c-0.44-3.23-0.82-6.48-1.14-9.73
		c-0.66-6.52-1.12-13.05-1.56-19.59c1.2,2.58,2.45,5.14,3.68,7.71c1.91,4.01,3.62,8.09,5,12.31c2.67,8.2,4.29,16.67,6.12,25.08
		c0.91,4.18,2.22,8.24,3.66,12.26c0.73,2.02,1.49,4.04,2.24,6.05c0.16,0.44,0.33,0.87,0.49,1.31c0.13,0.34,0.24,1,0.51,1.26
		c0.21,0.2,0.65,0.25,0.92,0.33c0.39,0.11,0.79,0.21,1.19,0.3c3.29,0.74,6.72,0.87,10.07,0.55c3.27-0.31,6.55-1.02,9.54-2.4
		c0.68-0.32,1.35-0.67,1.99-1.07c0.12-0.07,0.22-0.22,0.21-0.36C126.69,124.14,125.55,114.36,123.65,104.72z"/>
	<g>
		<g>
			<path class="st1" d="M120.37,90.92c0.33,1.64,0.65,3.27,0.98,4.91c0.3,1.49,0.43,3.18,1,4.58c0.57,1.41,0.71,3.12,1,4.62
				c0.31,1.63,0.61,3.27,0.89,4.91s0.54,3.27,0.79,4.91c0.12,0.81,0.19,1.66,0.36,2.46c0.13,0.63,0.31,1.14,0.34,1.82
				c0.05,0.89,0.08,1.78,0.18,2.66c0.33,2.53,0.51,5.06,0.93,7.57c0.12,0.86,0.21,1.74,0.3,2.6c0.08,0.76,0.14,1.81-0.48,2.37
				c-0.18,0.16-0.39,0.26-0.61,0.36c-5.82,2.7-12.49,3.12-18.86,2.31c-0.58-0.07-1.1-0.25-1.66-0.37c-0.42-0.09-0.82-0.08-1.19-0.36
				c-0.38-0.29-0.54-0.79-0.69-1.25c-0.75-2.31-1.91-4.46-2.66-6.76c-0.77-2.37-1.45-4.76-2.15-7.15c-0.45-1.55-1.02-3.08-1.46-4.62
				c-0.23-0.81-0.24-1.75-0.4-2.58c-0.16-0.8-0.35-1.6-0.53-2.39c-0.39-1.64-0.6-3.31-1-4.93c-0.22-0.93-0.53-1.87-0.75-2.76
				c-0.81-3.26-1.62-6.51-2.43-9.77c-0.28-1.13-0.57-2.27-0.97-3.37c-0.36-0.98-0.89-1.84-1.15-2.84c-0.61-2.36-1.7-4.64-2.65-6.87
				c-0.65-1.53-1.55-2.89-2.25-4.39c-0.21-0.45-0.38-0.91-0.57-1.37c-0.74-1.86-1.65-3.66-2.71-5.37c-0.05-0.09-0.16-0.19-0.24-0.13
				c-0.05,0.04-0.06,0.11-0.06,0.17c0,1.19,0.1,2.38,0.19,3.56c0.06,0.73,0.12,1.45,0.17,2.18c0,1.05,0.17,2.13,0.25,3.17
				c0.07,0.93,0,1.89,0.11,2.79c0.26,2.25,0.61,4.47,0.75,6.74c0.15,2.52,0.33,4.99,0.71,7.49c0.4,2.63,0.78,5.27,1.13,7.91
				c0.07,0.52,0.14,1.03,0.13,1.55c-0.06,2.85-0.31,5.69-0.31,8.54c0,3.06,0.1,6.13,0.19,9.2c0.03,1.15-0.37,2.35-0.23,3.49
				c0.14,1.17-0.18,2.34-0.43,3.49c-0.18,0.81-0.4,1.6-0.44,2.42c-0.04,0.81-0.78,0.82-1.45,1.06c-1.86,0.68-3.75,1.29-5.68,1.71
				c-2.56,0.56-5.14,1.12-7.75,1.32s-5.29,0.03-7.77-0.83c-0.17-0.06-0.36-0.14-0.43-0.31c-0.03-0.09-0.03-0.18-0.02-0.27
				c0.07-1.02-0.28-1.89-0.41-2.89c-0.2-1.57-0.21-3.16-0.44-4.73c-0.36-2.48-0.72-4.97-1.08-7.45c-0.24-1.65-0.48-3.3-1.01-4.88
				c-0.14-0.43-0.13-0.81-0.17-1.25c-0.05-0.55-0.19-1.12-0.28-1.67c-0.19-1.13-0.38-2.25-0.57-3.38c-0.37-2.22-0.75-4.43-1.12-6.65
				c-0.39-2.33-0.36-4.69-0.65-7.03c-0.11-0.86-0.4-1.61-0.55-2.44c-0.17-0.92-0.26-1.86-0.29-2.8c-0.02-0.73,0.01-1.46-0.11-2.17
				c-0.09-0.56-0.26-1.1-0.39-1.66c-0.14-0.57-0.22-1.16-0.31-1.74c-0.26-1.74-0.49-3.47-0.89-5.18c-0.41-1.76-0.79-3.52-1.07-5.3
				c-0.48-3.01-1.05-6.02-1.61-9.02c-0.57-3.06-1.39-6.03-2.06-9.06c-0.29-1.33-0.58-2.67-0.88-4c-0.71-3.24-1.42-6.48-2.24-9.69
				c-0.71-2.78-1.06-5.66-1.47-8.5c-0.24-1.64-0.46-3.29-0.66-4.94c-0.2-1.58-0.12-3.21-0.16-4.8c-0.03-1.54-0.04-3.15,0.67-4.52
				c0.13-0.25,0.28-0.49,0.3-0.77c0.02-0.22-0.06-0.44-0.1-0.67c-0.12-0.69,0.13-1.39,0.38-2.04c0.31-0.79,0.5-1.74,1.24-2.23
				c0.2-0.13,0.42-0.23,0.57-0.41c0.11-0.13,0.17-0.29,0.25-0.44c0.24-0.41,0.68-0.68,1.15-0.77s0.96-0.02,1.41,0.14
				c0.19,0.07,0.38,0.15,0.58,0.19c0.26,0.04,0.53,0,0.79-0.05c1.13-0.22,2.26-0.47,3.38-0.76c0.71-0.19,1.93-0.27,2.49-0.8
				c0.15-0.14,0.21-0.34,0.31-0.51c0.24-0.39,0.72-0.6,1.18-0.61c0.46-0.01,0.91,0.14,1.34,0.32c0.19,0.08,0.38,0.17,0.59,0.2
				c0.2,0.03,0.41,0,0.61-0.03c5.89-0.9,11.82-1.34,17.77-1.39c0.16,0,0.32,0,0.48-0.06c0.27-0.1,0.44-0.34,0.65-0.54
				c0.83-0.78,2.34-0.64,3.02,0.28c0.06,0.09,0.12,0.18,0.22,0.24c0.1,0.06,0.22,0.06,0.33,0.07c5.97,0.21,11.94,0.25,17.85,1.24
				c0.4,0.07,0.8,0.14,1.2,0.08c0.55-0.07,1.05-0.38,1.6-0.45c0.4-0.05,1.45-0.01,1.73,0.34c0.24,0.3-0.02,0.78,0.27,1.11
				c0.29,0.33,0.82,0.29,1.19,0.48c0.44,0.22,0.73,0.67,0.87,1.13c0.16,0.52,0.16,1.06,0.18,1.6c0.03,0.66,0.1,1.33,0.17,1.99
				c0.06,0.61,0.13,1.22,0.19,1.83c0.25,2.39,0.5,4.79,0.75,7.18c0.12,1.12,0.29,2.22,0.26,3.34c-0.03,1.19,0.13,2.37,0.29,3.55
				c0.91,6.52,2.02,13.01,3.32,19.46c1.07,5.32,2.47,10.56,3.58,15.86c0.37,1.77,0.57,3.57,0.85,5.35c0.34,2.25,0.8,4.48,1.3,6.7
				c0.46,2.03,1.07,4.02,1.49,6.04C119.44,87.37,120.01,89.12,120.37,90.92z"/>
			<path class="st2" d="M64.68,12.22c0-0.18-0.02-0.36-0.07-0.55c-0.07-0.29-0.22-0.58-0.44-0.78c-0.23-0.21-0.56-0.36-0.85-0.21
				c-0.26,0.14-0.45,0.44-0.56,0.7c-0.02,0.04-0.02,0.08-0.04,0.12c-0.04,0.08-0.07,0.16-0.09,0.25c-0.07,0.2-0.13,0.4-0.12,0.63
				c0,0.07,0.02,0.14,0.03,0.21c0.01,0.44,0.1,0.92,0.33,1.28c0.24,0.39,0.75,0.68,1.15,0.33c0.03-0.02,0.05-0.05,0.08-0.08
				c0.05-0.03,0.1-0.06,0.14-0.1c0.12,0.02,0.26-0.03,0.31-0.17C64.74,13.36,64.78,12.78,64.68,12.22z"/>
			<path class="st3" d="M63.77,10.69c-0.17-0.02-0.34,0.04-0.49,0.11c-0.32,0.16-0.53,0.46-0.66,0.79
				c-0.14,0.35-0.18,0.74-0.15,1.11c0.03,0.36,0.09,0.84,0.39,1.08c0.04,0.03,0.1,0.01,0.1-0.04c0-0.16-0.04-0.29-0.08-0.45
				s-0.07-0.32-0.08-0.49v-0.01c0.01-0.01,0.03-0.02,0.04-0.04c0.04-0.11,0.11-0.21,0.2-0.3c0.04-0.04,0.08-0.08,0.13-0.11
				c0.06-0.04,0.12-0.06,0.18-0.09c0.15-0.09,0.17-0.29,0.19-0.44c0.01-0.08,0.02-0.17,0.03-0.25c0-0.03,0.01-0.06,0.02-0.09
				c0-0.01,0-0.03,0.01-0.04c0.03-0.06,0.05-0.11,0.05-0.18h-0.01c0-0.04-0.01-0.07-0.03-0.11c0.03-0.01,0.06-0.02,0.09-0.03
				c0.06-0.01,0.14-0.03,0.2-0.03s0.1,0.02,0.16,0.01c0.04-0.01,0.06-0.05,0.07-0.09C64.13,10.85,63.9,10.71,63.77,10.69z"/>
		</g>
		<g>
			
				<linearGradient id="SVGID_1_" gradientUnits="userSpaceOnUse" x1="-1.3665" y1="67.881" x2="107.7709" y2="78.505" gradientTransform="matrix(1 0 0 -1 0 149.8898)">
				<stop  offset="1.694775e-03" style="stop-color:#000000;stop-opacity:0.7"/>
				<stop  offset="0.1438" style="stop-color:#040D18;stop-opacity:0.6004"/>
				<stop  offset="0.3871" style="stop-color:#09213A;stop-opacity:0.4298"/>
				<stop  offset="0.6176" style="stop-color:#0D2F53;stop-opacity:0.2681"/>
				<stop  offset="0.828" style="stop-color:#0F3762;stop-opacity:0.1206"/>
				<stop  offset="1" style="stop-color:#103A67;stop-opacity:0"/>
			</linearGradient>
			<path class="st4" d="M118.86,96.8c0.72,0.18,1.35,0.48,1.77,1.09c-2.45,0.67-3.95,3.27-4.19,5.8c-0.24,2.53,0.51,5.03,1.14,7.49
				c1.54,5.93,2.49,12.02,2.83,18.14c1.43,0.41,2.9,1.01,3.82,2.19c3.03,3.88-2.57,4.91-5.21,5.37c-3.9,0.68-7.9,0.64-11.82,0.15
				c-0.58-0.07-1.1-0.25-1.66-0.37c-0.42-0.09-0.82-0.08-1.19-0.36c-0.38-0.29-0.54-0.79-0.69-1.25c-0.75-2.31-1.91-4.46-2.66-6.76
				c-0.77-2.37-1.45-4.76-2.15-7.15c-0.45-1.55-1.02-3.08-1.46-4.62c-0.23-0.81-0.24-1.75-0.4-2.58c-0.16-0.8-0.35-1.6-0.53-2.39
				c-0.39-1.64-0.6-3.31-1-4.93c-0.22-0.93-0.53-1.87-0.75-2.76c-0.81-3.26-1.62-6.51-2.43-9.77c-0.28-1.13-0.57-2.27-0.97-3.37
				c-0.36-0.98-0.89-1.84-1.15-2.84c-0.61-2.36-1.7-4.64-2.65-6.87c-0.65-1.53-1.55-2.89-2.25-4.39c-0.21-0.45-0.38-0.91-0.57-1.37
				c-0.63-1.58-1.27-3.26-2.02-4.79c-0.79-1.63-1.83-2.91-2.26-4.73c-0.13-0.55-0.58-1.29-1.05-0.97c-0.25,0.17-0.26,0.52-0.24,0.82
				c0.14,2.67-0.24,5.36-1.11,7.89c-0.24,0.71-0.53,1.43-0.45,2.17c0.12,1.12,1.02,1.99,1.95,2.64c0.23,0.16,0.49,0.35,0.55,0.62
				c0.05,0.22-0.04,0.44-0.13,0.64c-1.59,3.73-3.56,7.48-4.55,11.4c-0.93,3.7-0.4,8.08,2.5,10.56c0.15,0.13,0.32,0.27,0.35,0.46
				c0.03,0.2-0.08,0.39-0.2,0.55c-1.51,2.18-3.74,3.75-5.41,5.8c-0.09,0.11-0.18,0.23-0.19,0.38c-0.01,0.25,0.23,0.43,0.45,0.53
				c1.66,0.82,3.65,0.54,5.4-0.07s3.38-1.52,5.18-1.97c-0.02,0.25-0.03,0.51-0.09,0.75c-0.99-0.05-1.36,0.1-1.97,0.91
				c-0.62,0.81-1.07,1.75-1.41,2.71c-0.48,1.38-0.72,2.84-0.96,4.28c0.38,0.13,0.76,0.26,1.14,0.39c0.13,0.05,0.28,0.1,0.36,0.21
				c0.09,0.12,0.11,0.27,0.12,0.42c0.26,3.49-0.47,7.05-2.08,10.15c-0.15,0.29-0.31,0.57-0.37,0.89c-0.15,0.71,0.19,1.42,0.34,2.13
				c0.29,1.32-0.05,2.68-0.45,3.97c-0.07,0.22-0.14,0.44-0.3,0.6s-0.37,0.23-0.59,0.3c-2.63,0.85-5.44,1.43-8.2,1.65
				c-2.62,0.2-5.29,0.03-7.77-0.83c-0.17-0.06-0.36-0.14-0.43-0.31c-0.03-0.09-0.03-0.18-0.02-0.27c0.07-1.02-0.28-1.89-0.41-2.89
				c-0.2-1.57-0.21-3.16-0.44-4.73c-0.36-2.48-0.72-4.97-1.08-7.45c-0.24-1.65-0.48-3.3-1.01-4.88c-0.14-0.43-0.13-0.81-0.17-1.25
				c-0.05-0.55-0.19-1.12-0.28-1.67c-0.19-1.13-0.38-2.25-0.57-3.38c-0.37-2.22-0.75-4.43-1.12-6.65c-0.39-2.33-0.36-4.69-0.65-7.03
				c-0.11-0.86-0.4-1.61-0.55-2.44c-0.17-0.92-0.26-1.86-0.29-2.8c-0.02-0.73,0.01-1.46-0.11-2.17c-0.09-0.56-0.26-1.1-0.39-1.66
				c-0.14-0.57-0.22-1.16-0.31-1.74c-0.26-1.74-0.49-3.47-0.89-5.18c-0.41-1.76-0.79-3.52-1.07-5.3c-0.48-3.01-1.05-6.02-1.61-9.02
				c-0.57-3.06-1.39-6.03-2.06-9.06c-0.29-1.33-0.58-2.67-0.88-4c-0.71-3.24-1.42-6.48-2.24-9.69c-0.71-2.78-1.06-5.66-1.47-8.5
				c-0.24-1.64-0.46-3.29-0.66-4.94c-0.2-1.58-0.12-3.21-0.16-4.8c-0.03-1.54-0.04-3.15,0.67-4.52c0.13-0.25,0.28-0.49,0.3-0.77
				c0.02-0.22-0.06-0.44-0.1-0.67c-0.12-0.69,0.13-1.39,0.38-2.04c0.31-0.79,0.5-1.74,1.24-2.23c0.2-0.13,0.42-0.23,0.57-0.41
				c0.11-0.13,0.17-0.29,0.25-0.44c0.24-0.41,0.68-0.68,1.15-0.77s0.96-0.02,1.41,0.14c0.19,0.07,0.38,0.15,0.58,0.19
				c0.26,0.04,0.53,0,0.79-0.05c1.13-0.22,2.26-0.47,3.38-0.76c0.71-0.19,1.93-0.27,2.49-0.8c0.15-0.14,0.21-0.34,0.31-0.51
				c0.24-0.39,0.72-0.6,1.18-0.61c0.46-0.01,0.91,0.14,1.34,0.32c0.19,0.08,0.38,0.17,0.59,0.2c0.2,0.03,0.41,0,0.61-0.03
				c5.89-0.9,11.82-1.34,17.77-1.39c0.16,0,0.32,0,0.48-0.06c0.27-0.1,0.44-0.34,0.65-0.54c0.83-0.78,2.34-0.64,3.02,0.28
				c0.06,0.09,0.12,0.18,0.22,0.24c0.1,0.06,0.22,0.06,0.33,0.07c3.62,0.13,7.25,0.19,10.86,0.44c1.6,0.11,2.59,0,2.5,1.92
				c-0.05,1.19-0.76,2.4-1.88,2.88c-0.03,0.65-0.05,1.29-0.08,1.94c-1.17-0.65-2.43,1.06-2.1,2.36s1.44,2.22,2.14,3.36
				c1.63,2.66,0.84,6.07-0.01,9.07c3.4,1.47,6.58,3.46,9.4,5.88c0.51,0.44,1.02,0.91,1.26,1.53c0.92,2.34-2.25,4.11-3.34,6.38
				c-1.01,2.1-0.13,4.57,0.6,6.79c1.07,3.25,1.79,6.62,2.14,10.02c0.28,2.7,0.34,5.47,1.27,8.01c1.81,4.96,6.53,8.21,9.36,12.67
				c0.53,0.84,1.01,1.75,1.15,2.74c0.29,1.93-0.7,3.78-1.29,5.64c-0.6,1.86-0.66,4.24,0.92,5.38
				C115.98,96.51,117.56,96.47,118.86,96.8z"/>
			
				<linearGradient id="SVGID_00000023994599792863884920000018332856462217181335_" gradientUnits="userSpaceOnUse" x1="54.987" y1="124.3639" x2="39.2832" y2="129.5402" gradientTransform="matrix(1 0 0 -1 0 149.8898)">
				<stop  offset="1.694775e-03" style="stop-color:#000000;stop-opacity:0.7"/>
				<stop  offset="0.5075" style="stop-color:#081C32;stop-opacity:0.3453"/>
				<stop  offset="1" style="stop-color:#103A67;stop-opacity:0"/>
			</linearGradient>
			<path style="fill:url(#SVGID_00000023994599792863884920000018332856462217181335_);" d="M45.22,27.86
				c0.35-0.03,0.66-0.19,0.95-0.38c0.4-0.26,0.76-0.58,1.07-0.94c0.6-0.69,1.02-1.53,1.42-2.35c0.84-1.7,1.68-3.4,2.52-5.1
				c0.07-0.14,0.13-0.33,0.02-0.44c-0.07-0.08-0.19-0.08-0.3-0.07c-0.71,0.04-1.41,0.19-2.09,0.38c-0.53,0.15-1.3,0.36-1.69,0.75
				c-0.22,0.22-0.34,0.52-0.46,0.8c-0.51,1.25-1.05,2.51-1.88,3.57c-0.37,0.47-0.79,0.91-1.01,1.46
				C43.39,26.51,44.08,27.95,45.22,27.86z"/>
			
				<linearGradient id="SVGID_00000016774155077029237810000010703388164519210131_" gradientUnits="userSpaceOnUse" x1="88.0063" y1="124.4399" x2="104.4963" y2="135.2282" gradientTransform="matrix(1 0 0 -1 0 149.8898)">
				<stop  offset="1.694775e-03" style="stop-color:#000000;stop-opacity:0.7"/>
				<stop  offset="0.5075" style="stop-color:#081C32;stop-opacity:0.3453"/>
				<stop  offset="1" style="stop-color:#103A67;stop-opacity:0"/>
			</linearGradient>
			<path style="fill:url(#SVGID_00000016774155077029237810000010703388164519210131_);" d="M94.67,16.37
				c-1.12-0.34-2.28-0.65-3.45-0.6c-0.18,0.01-0.39,0.04-0.49,0.19c-0.09,0.13-0.07,0.3-0.04,0.45c0.37,1.92,1.58,3.58,2.95,4.98
				c1.2,1.23,2.55,2.31,4.01,3.22c0.39,0.24,0.82,0.41,1.23,0.61c0.28,0.14,0.71,0.41,1.01,0.18c0.1-0.08,0.23-0.13,0.34-0.21
				c0.28-0.18,0.56-0.55,0.79-0.79c0.28-0.29,0.53-0.59,0.8-0.88c0.2-0.22,0.4-0.45,0.48-0.73c0.15-0.52-0.14-1.05-0.43-1.5
				c-0.75-1.19-1.58-2.4-2.77-3.19C97.77,17.25,96.17,16.83,94.67,16.37z"/>
			
				<linearGradient id="SVGID_00000042005700553372489620000013784119835876371609_" gradientUnits="userSpaceOnUse" x1="53.8171" y1="123.2376" x2="51.9167" y2="138.8211" gradientTransform="matrix(1 0 0 -1 0 149.8898)">
				<stop  offset="1.694775e-03" style="stop-color:#000000;stop-opacity:0.7"/>
				<stop  offset="0.1642" style="stop-color:#010407;stop-opacity:0.586"/>
				<stop  offset="0.396" style="stop-color:#040E19;stop-opacity:0.4235"/>
				<stop  offset="0.6692" style="stop-color:#092038;stop-opacity:0.232"/>
				<stop  offset="0.9719" style="stop-color:#0F3863;stop-opacity:0.0197"/>
				<stop  offset="1" style="stop-color:#103A67;stop-opacity:0"/>
			</linearGradient>
			<path style="fill:url(#SVGID_00000042005700553372489620000013784119835876371609_);" d="M47.9,18.42
				c0.3-0.16,0.57-0.38,0.89-0.52c0.33-0.14,0.69-0.17,1.05-0.21c1.96-0.17,3.93-0.28,5.86-0.65c0.53-0.1,1.06-0.22,1.6-0.18
				c0.32,0.02,0.62,0.1,0.94,0.14c1.2,0.14,2.39-0.31,3.49-0.81c0.05-0.02,0.11-0.05,0.12-0.11c0.02-0.06-0.03-0.12-0.06-0.17
				c-0.55-0.72-0.28-1.78-0.66-2.59c-0.05-0.11-0.11-0.21-0.22-0.27c-0.14-0.08-0.31-0.05-0.46-0.02c-0.49,0.09-0.98,0.18-1.48,0.27
				c-0.08,0.02-0.17,0.03-0.24,0.08c-0.08,0.06-0.13,0.15-0.18,0.24c-0.43,0.74-1.43,1.08-2.23,0.77c-0.17-0.07-0.33-0.16-0.5-0.19
				c-0.41-0.08-0.81,0.15-1.19,0.31c-0.65,0.27-1.36,0.37-2.06,0.46c-1.36,0.18-2.71,0.35-4.07,0.53c0.13,0.23,0.05,0.54-0.13,0.74
				c-0.18,0.2-0.44,0.3-0.69,0.39c-0.43,0.14-0.89,0.22-1.32,0.11c-0.21-0.05-0.42-0.15-0.63-0.19c-0.57-0.12-1.91,0.18-2.26,0.71
				c-0.35,0.53,0.37,0.91,0.84,0.86c0.18-0.02,0.37-0.17,0.54-0.17c0.23,0,0.21,0.05,0.4,0.17c0.28,0.19,0.54,0.36,0.87,0.46
				C46.69,18.75,47.35,18.71,47.9,18.42z"/>
			
				<linearGradient id="SVGID_00000041273806880590123600000000354064575786953100_" gradientUnits="userSpaceOnUse" x1="82.7963" y1="124.4207" x2="83.1765" y2="141.3725" gradientTransform="matrix(1 0 0 -1 0 149.8898)">
				<stop  offset="1.694775e-03" style="stop-color:#000000;stop-opacity:0.7"/>
				<stop  offset="0.1642" style="stop-color:#010407;stop-opacity:0.586"/>
				<stop  offset="0.396" style="stop-color:#040E19;stop-opacity:0.4235"/>
				<stop  offset="0.6692" style="stop-color:#092038;stop-opacity:0.232"/>
				<stop  offset="0.9719" style="stop-color:#0F3863;stop-opacity:0.0197"/>
				<stop  offset="1" style="stop-color:#103A67;stop-opacity:0"/>
			</linearGradient>
			<path style="fill:url(#SVGID_00000041273806880590123600000000354064575786953100_);" d="M68.19,15.8
				c2.19-0.37,4.41-0.56,6.62-0.75c1.48-0.13,2.98-0.25,4.42,0.08c0.58,0.14,1.25,0.33,1.74-0.01c0.22-0.15,0.36-0.39,0.58-0.54
				c0.3-0.2,0.69-0.19,1.05-0.18c5.44,0.21,10.89,0.44,16.33,0.68c0.5,0.02,1.04,0.06,1.44,0.36c0.33,0.25,0.54,0.66,0.93,0.82
				c0.3,0.12,0.64,0.05,0.96-0.01c0.77-0.16,1.53-0.33,2.3-0.49c0.02-0.55-0.46-1.07-1.02-1.08c0.18-0.34,0.34-0.77,0.11-1.08
				c-0.38-0.5-1.15,0.01-1.78,0.02c-0.27,0-0.53-0.1-0.79-0.18c-0.98-0.32-2.02-0.39-3.04-0.46c-5.35-0.37-10.7-0.74-16.05-1.11
				c-0.23-0.02-0.51-0.02-0.66,0.17c-0.12,0.15-0.11,0.36-0.16,0.54c-0.12,0.42-0.6,0.64-1.03,0.62s-0.83-0.23-1.21-0.44
				c-0.38-0.2-0.76-0.41-1.14-0.61c-3.93,0.37-7.86,0.73-11.79,1.1c-0.47,0.04-0.98,0.11-1.31,0.44c-0.17,0.17-0.29,0.41-0.49,0.55
				c-0.73,0.47-1.82-0.74-2.48-0.18c-0.41,0.34-0.16,1.17-0.06,1.6c0.16,0.7,1.07,0.68,1.69,0.72C64.99,16.45,66.6,16.07,68.19,15.8
				z"/>
			
				<linearGradient id="SVGID_00000000200674325965270920000010644676788528539525_" gradientUnits="userSpaceOnUse" x1="54.4989" y1="118.0286" x2="70.7279" y2="121.2862" gradientTransform="matrix(1 0 0 -1 0 149.8898)">
				<stop  offset="1.694775e-03" style="stop-color:#000000;stop-opacity:0.7"/>
				<stop  offset="0.1642" style="stop-color:#010407;stop-opacity:0.586"/>
				<stop  offset="0.396" style="stop-color:#040E19;stop-opacity:0.4235"/>
				<stop  offset="0.6692" style="stop-color:#092038;stop-opacity:0.232"/>
				<stop  offset="0.9719" style="stop-color:#0F3863;stop-opacity:0.0197"/>
				<stop  offset="1" style="stop-color:#103A67;stop-opacity:0"/>
			</linearGradient>
			<path style="fill:url(#SVGID_00000000200674325965270920000010644676788528539525_);" d="M69.77,31.81
				c-0.29-1.12-0.56-2.25-0.75-3.4c-0.25-1.5-0.67-2.97-0.97-4.46c-0.2-0.98-0.38-1.97-0.65-2.93c-0.15-0.55-0.37-1.91-0.96-2.2
				c-0.09-0.05-0.2-0.06-0.31-0.06c-1.18-0.08-2.37,0.06-3.5,0.42c-0.16,0.05-0.32,0.11-0.42,0.24c-0.15,0.18-0.13,0.44-0.1,0.67
				c0.25,2.21,0.76,4.36,1.06,6.56c0.11,0.76,0.43,1.43,0.57,2.18c0.07,0.39,0.07,0.79,0.13,1.18c0.26,1.67,1.48,2.88,1.98,4.43
				c0.12,0.38,0.19,0.78,0.32,1.17c0.56,1.73,2.14,2.95,3.77,3.75c0.29,0.14,0.58,0.27,0.9,0.29c0.66,0.03,1.26-0.47,1.54-1.07
				s0.32-1.28,0.35-1.95c0.03-0.57,0.03-1.2-0.34-1.63c-0.34-0.39-0.89-0.5-1.32-0.78C70.3,33.7,70,32.71,69.77,31.81z"/>
			
				<linearGradient id="SVGID_00000049928920403585592420000002737375206425398689_" gradientUnits="userSpaceOnUse" x1="66.1112" y1="133.6148" x2="63.3905" y2="137.6298" gradientTransform="matrix(1 0 0 -1 0 149.8898)">
				<stop  offset="1.694775e-03" style="stop-color:#000000;stop-opacity:0.7"/>
				<stop  offset="0.1118" style="stop-color:#070600;stop-opacity:0.7331"/>
				<stop  offset="0.269" style="stop-color:#191701;stop-opacity:0.7803"/>
				<stop  offset="0.4544" style="stop-color:#383303;stop-opacity:0.836"/>
				<stop  offset="0.6613" style="stop-color:#635B05;stop-opacity:0.8982"/>
				<stop  offset="0.8834" style="stop-color:#998C08;stop-opacity:0.965"/>
				<stop  offset="1" style="stop-color:#B9A90A"/>
			</linearGradient>
			<path style="fill:url(#SVGID_00000049928920403585592420000002737375206425398689_);" d="M63.6,13.39
				c0.03-0.06,0.05-0.13,0.1-0.18c0.06-0.05,0.15-0.05,0.22-0.09c0.2-0.1,0.17-0.37,0.18-0.59c0.01-0.17,0.06-0.33,0.11-0.49
				c0.05-0.18,0.11-0.36,0.16-0.54c0.22,0.02,0.36,0.26,0.4,0.48c0.03,0.15,0.04,0.3,0.04,0.46c0.01,0.33,0.03,0.66-0.05,0.98
				c-0.08,0.32-0.26,0.63-0.55,0.78c-0.14,0.07-0.3,0.11-0.46,0.13c-0.23,0.03-0.81,0.02-0.76-0.35
				C63.03,13.72,63.49,13.66,63.6,13.39z"/>
		</g>
		<g>
			<path class="st11" d="M57.48,10.51c-0.02-0.06-0.04-0.12-0.07-0.18c-0.01-0.02-0.03-0.05-0.03-0.07
				c-0.01-0.03-0.01-0.05-0.01-0.08c0.06-0.04,0.12-0.08,0.18-0.13c0.21-0.17-0.03-0.46-0.24-0.42c-0.41,0.08-0.84,0.42-1.09,0.73
				c-0.32,0.39-0.41,0.83-0.36,1.33c0.06,0.59,0.12,1.19,0.21,1.78c0.05,0.29,0.09,0.58,0.15,0.87s0.09,0.61,0.22,0.88
				c0.04,0.09,0.18,0.06,0.2-0.03c0.06-0.25,0.03-0.51,0.02-0.76c-0.01-0.28-0.02-0.55-0.04-0.83c-0.03-0.52-0.09-1.04-0.15-1.56
				c-0.01-0.06-0.01-0.12-0.02-0.18c0.07-0.11,0.21-0.18,0.33-0.21c0.21-0.05,0.43-0.07,0.62-0.2c0.09-0.06,0.17-0.15,0.2-0.26
				c0.04-0.12,0.01-0.24-0.02-0.36C57.55,10.73,57.52,10.62,57.48,10.51z"/>
			<path class="st11" d="M47.8,12.32c-0.01,0-0.01,0-0.02-0.01c-0.03-0.07-0.08-0.13-0.15-0.15c-0.12-0.04-0.25-0.02-0.38,0.02
				c-0.03,0-0.05-0.01-0.08,0c-0.26,0.03-0.5,0.1-0.71,0.26c-0.02,0.02-0.03,0.04-0.04,0.07c-0.05,0.03-0.11,0.06-0.16,0.09
				c-0.14,0.1-0.28,0.22-0.4,0.35c-0.05,0.06,0.01,0.14,0.07,0.12c-0.02,0.03-0.03,0.05-0.05,0.08c-0.05,0.1-0.09,0.2-0.12,0.3
				c-0.03,0.11-0.04,0.21-0.04,0.32c0,0.05,0.03,0.09,0.08,0.11c-0.02,0.08-0.03,0.16-0.04,0.25c-0.02,0.3,0.04,0.59,0.07,0.89
				c0.04,0.3,0.04,0.6,0.04,0.9c0.01,0.47,0,1.2,0.41,1.51c0.04,0.03,0.12,0.02,0.11-0.05c-0.03-0.23-0.11-0.45-0.13-0.68
				s-0.01-0.47,0.01-0.7c0.02-0.25,0.05-0.5,0.06-0.76c0.01-0.27-0.03-0.54-0.05-0.81c-0.01-0.12,0-0.24,0.02-0.36
				c0.03-0.01,0.07-0.03,0.1-0.05c0.15-0.08,0.28-0.2,0.38-0.34c0.11-0.15,0.2-0.31,0.21-0.49c0-0.05,0-0.1,0-0.15
				c0.02-0.05,0.04-0.09,0.06-0.14c0.01,0,0.01-0.01,0.02-0.02c0.04,0,0.07,0,0.11,0c0.02,0,0.04,0,0.06,0l0.04,0.01
				c0.04,0.01,0.09,0.02,0.13,0.03c0.11,0.04,0.23,0.07,0.35,0.03C47.9,12.9,48,12.79,48,12.64C48.01,12.51,47.91,12.39,47.8,12.32z
				"/>
			<path class="st11" d="M55.1,11.23c-0.33-0.02-0.67,0.12-0.99,0.21c-0.35,0.09-0.7,0.18-1.04,0.27c-0.64,0.17-1.28,0.34-1.92,0.49
				c-0.65,0.15-1.26,0.19-1.92,0.21c-0.03,0-0.07,0-0.1,0.01c-0.06-0.02-0.11-0.04-0.17-0.06c-0.08-0.03-0.17-0.06-0.25-0.09
				c-0.04-0.01-0.09-0.03-0.13-0.04c-0.03-0.01-0.07-0.02-0.1-0.03l-0.01-0.01c-0.15-0.15-0.39,0.04-0.29,0.23
				c0.06,0.11,0.13,0.21,0.23,0.28c-0.09,0.1-0.16,0.22-0.18,0.38c-0.01,0.07,0.09,0.13,0.15,0.09c0.48-0.36,1.04-0.22,1.6-0.25
				c0.57-0.04,1.14-0.16,1.69-0.29c0.61-0.15,1.21-0.29,1.82-0.44c0.31-0.07,0.61-0.15,0.92-0.22c0.28-0.07,0.59-0.1,0.84-0.25
				C55.45,11.57,55.35,11.24,55.1,11.23z"/>
			<path class="st11" d="M60.98,10.19c-0.12-0.06-0.22-0.04-0.35-0.01c-0.11,0.02-0.21,0.04-0.32,0.06
				c-0.22,0.04-0.44,0.08-0.66,0.13c-0.11,0.02-0.21,0.05-0.32,0.07c-0.09,0.02-0.18,0.05-0.28,0.04c-0.17-0.02-0.31-0.15-0.47-0.19
				c-0.12-0.03-0.21,0.1-0.16,0.21c0.09,0.18,0.29,0.31,0.48,0.37c0.22,0.07,0.46,0.01,0.68-0.03c0.24-0.04,0.47-0.08,0.71-0.13
				c0.12-0.02,0.24-0.05,0.37-0.07c0.13-0.02,0.26-0.03,0.36-0.13C61.11,10.42,61.11,10.24,60.98,10.19z"/>
			<path class="st11" d="M77.81,8.98c-1.14,0.12-2.29,0.08-3.43,0.04c-1.15-0.04-2.3-0.03-3.45,0.03c-2.28,0.11-4.56,0.32-6.82,0.64
				c-0.63,0.09-1.27,0.18-1.89,0.33c-0.13,0.03-0.24,0.06-0.35,0.1c-0.07-0.1-0.23-0.14-0.34-0.03c-0.1,0.1-0.16,0.23-0.2,0.36
				c-0.06,0.06-0.11,0.11-0.17,0.19c-0.05,0.07,0.03,0.14,0.1,0.12c-0.01,0.06-0.02,0.13-0.02,0.19c-0.03,0.35-0.01,0.7,0.01,1.05
				c0.02,0.35,0.06,0.71,0.11,1.06c0.03,0.17,0.05,0.33,0.09,0.5c0.03,0.15,0.05,0.33,0.17,0.43c0.03,0.02,0.07,0.02,0.09-0.01
				c0.07-0.12,0.04-0.26,0.03-0.39c-0.01-0.17-0.03-0.33-0.05-0.5c-0.02-0.32-0.03-0.65-0.03-0.98c0-0.32,0.01-0.65,0.03-0.97
				c0.01-0.15,0.03-0.29,0.06-0.43c0.01-0.06,0.04-0.12,0.06-0.17c0.14-0.02,0.28-0.04,0.4-0.05c0.36-0.04,0.72-0.09,1.08-0.13
				c0.68-0.09,1.36-0.19,2.04-0.27c1.36-0.16,2.73-0.29,4.09-0.38c1.37-0.09,2.75-0.16,4.13-0.14c1.42,0.03,2.84,0.14,4.26-0.01
				C78.17,9.5,78.17,8.94,77.81,8.98z"/>
			<path class="st11" d="M80.99,8c-0.56-0.23-1.43-0.19-1.98,0.06c-0.61,0.27-0.69,0.89-0.71,1.48c-0.02,0.77,0.01,1.54,0.07,2.31
				c0.05,0.64,0.11,1.33,0.5,1.86c0.04,0.05,0.14,0.03,0.12-0.05c-0.33-1.14-0.22-2.38-0.18-3.56c0.06-0.07,0.12-0.13,0.18-0.18
				c0.18-0.14,0.39-0.22,0.58-0.33c0.14-0.08,0.3-0.2,0.4-0.34c0.01-0.01,0.01-0.01,0.02-0.02c0.06-0.06,0.07-0.14,0.05-0.21
				c0.01-0.2-0.11-0.39-0.11-0.59c0.34,0,0.68,0.07,1,0.09C81.25,8.56,81.25,8.11,80.99,8z"/>
			<path class="st11" d="M103.78,10.11c-0.25-0.14-0.55-0.29-0.84-0.23c-0.1-0.04-0.19-0.08-0.27-0.15
				c-0.22-0.2-0.56,0.13-0.33,0.33c0.12,0.11,0.26,0.17,0.41,0.22c0.1,0.03,0.27,0.06,0.33,0.15c0.04,0.06,0.02,0.16,0.04,0.24
				c0.02,0.08,0.06,0.16,0.12,0.22c0.14,0.14,0.33,0.14,0.43,0.33s0.09,0.42,0.07,0.63c-0.03,0.26-0.08,0.51-0.12,0.77
				c-0.08,0.51-0.15,1.02-0.24,1.53c-0.04,0.27,0.35,0.4,0.42,0.12c0.13-0.54,0.25-1.08,0.35-1.62c0.05-0.26,0.09-0.52,0.13-0.78
				c0.04-0.25,0.1-0.52,0.08-0.78C104.35,10.67,104.15,10.31,103.78,10.11z"/>
			<path class="st11" d="M106.61,13.29c-0.02-0.13-0.05-0.26-0.09-0.39c-0.09-0.26-0.21-0.53-0.39-0.74s-0.42-0.36-0.68-0.47
				c-0.26-0.11-0.58-0.23-0.87-0.23c-0.21,0-0.33,0.33-0.11,0.42c0.24,0.11,0.51,0.14,0.76,0.22c0.23,0.07,0.45,0.17,0.64,0.33
				c0.2,0.17,0.33,0.35,0.43,0.59c0.05,0.12,0.1,0.23,0.15,0.35c0.05,0.13,0.12,0.24,0.16,0.37c0.01,0.03,0.05,0.02,0.05-0.01
				C106.62,13.59,106.64,13.44,106.61,13.29z"/>
			<path class="st11" d="M101.65,10.13c-0.38,0.58-1.38,0.11-1.9,0c-0.65-0.14-1.31-0.25-1.97-0.34c-1.29-0.18-2.58-0.3-3.88-0.43
				c-2.72-0.26-5.44-0.49-8.18-0.42c-0.38,0.01-0.75,0.03-1.13,0.02c-0.39-0.01-0.75-0.1-1.13-0.18c-0.3-0.06-0.59-0.09-0.89-0.02
				c-0.29,0.06-0.71,0.33-0.96,0.07s-0.63,0.13-0.39,0.39c0.41,0.45,0.95,0.24,1.45,0.12c0.37-0.08,0.71,0.03,1.07,0.11
				c0.35,0.07,0.7,0.1,1.06,0.1c1.48,0.01,2.95-0.04,4.44,0.03c0.02,0,0.04,0,0.06,0c0.69,0.22,1.38,0.44,2.08,0.64
				c0.5,0.14,0.92,0.09,1.43,0.01c0.05-0.01,0.11-0.01,0.16-0.02c0.58,0.03,1.16,0.04,1.74,0.02c0.15-0.01,0.22-0.1,0.24-0.2
				c1.07,0.1,2.15,0.21,3.21,0.37c0.79,0.12,1.58,0.27,2.36,0.43c0.55,0.11,1.3,0.12,1.46-0.56
				C102.02,10.07,101.76,9.96,101.65,10.13z"/>
			<path class="st11" d="M65.65,136.16c-1.09-0.18-2.06-0.39-3.07-0.86c-0.52-0.25-0.97-0.34-1.14-0.9
				c-0.19-0.59-0.24-1.24-0.28-1.85c-0.13-2.2-0.32-4.38-0.57-6.57c-0.26-2.24-0.46-4.49-0.71-6.74c-0.12-1.1-0.25-2.2-0.4-3.3
				c-0.14-1.07-0.21-2.17-0.66-3.15c-0.02-0.03-0.05-0.05-0.07-0.07c0-0.05,0.01-0.1,0.01-0.15c0.01-0.6-0.14-1.16-0.32-1.73
				c-0.19-0.59-0.27-1.16-0.37-1.77c-0.07-0.42-0.19-0.89-0.48-1.22c-0.16-1.02-0.41-2.03-0.56-3.04c-0.22-1.51-0.39-3.04-0.55-4.56
				c-0.15-1.43-0.22-2.87-0.37-4.31c-0.12-1.22-0.18-2.64-0.7-3.78c0.02-0.96-0.03-1.94-0.07-2.89c-0.04-1-0.12-2.01-0.51-2.95
				c-0.17-0.41-0.39-0.8-0.56-1.21c-0.24-0.61-0.34-1.25-0.46-1.88c-0.22-1.13-0.45-2.27-0.62-3.41c-0.33-2.23-0.61-4.48-1.04-6.69
				c-0.21-1.05-0.46-2.08-0.62-3.15c-0.14-0.92-0.21-1.85-0.4-2.76c0.14-0.59,0.23-1.23,0.11-1.82c-0.12-0.66-0.55-1.19-0.73-1.83
				c-0.46-1.57-0.87-3.17-1.28-4.75c-0.2-0.75-0.39-1.5-0.59-2.25c-0.2-0.8-0.57-1.71-0.56-2.54c0-0.57-0.06-0.84-0.34-1.34
				c-0.29-0.52-0.33-1.13-0.42-1.72c0.02-0.03,0.04-0.07,0.05-0.12c0.07-0.39,0.15-0.79,0.26-1.17c0.11-0.39,0.26-0.76,0.15-1.17
				c-0.05-0.19-0.12-0.35-0.14-0.54c-0.02-0.2-0.01-0.41,0.01-0.61c0.03-0.22,0.07-0.43,0.11-0.65c0.03-0.19,0.02-0.38,0.03-0.57
				c0.01-0.06-0.08-0.06-0.09-0.01c-0.08,0.2-0.19,0.38-0.25,0.59c-0.06,0.2-0.12,0.39-0.17,0.59c-0.03,0.14-0.05,0.28-0.07,0.42
				c-0.01-0.02-0.02-0.03-0.03-0.05c-0.2-0.36-0.32-0.68-0.41-1.08c-0.38-1.69-0.73-3.39-1.08-5.1c-0.33-1.66-0.64-3.32-0.92-4.98
				c-0.13-0.78-0.23-1.57-0.38-2.35c-0.08-0.41-0.18-0.82-0.32-1.22c-0.11-0.3-0.57-0.96-0.25-1.23c0.11-0.09,0.1-0.26,0.05-0.38
				c-0.24-0.53-0.43-1.09-0.56-1.66c-0.03-0.13-0.05-0.26-0.07-0.39v-0.01c-0.01-0.29-0.01-0.58-0.01-0.87c0-0.6,0.03-1.2,0.06-1.81
				c0.06-1.16,0.13-2.32,0.05-3.47c-0.02-0.28-0.05-0.55-0.09-0.83c-0.03-0.25-0.14-0.56-0.06-0.8c0.08-0.23,0.26-0.37,0.31-0.62
				c0.05-0.28-0.03-0.52,0.16-0.76c0.21-0.28,0.57-0.6,0.39-0.99c-0.01-0.02-0.03-0.03-0.04-0.05c0.04-0.05,0.08-0.11,0.11-0.16
				c0.05-0.11,0.08-0.22,0.05-0.34c-0.01-0.03-0.03-0.05-0.04-0.08c0.02-0.01,0.03-0.01,0.05-0.02c0.07-0.03,0.14-0.06,0.22-0.08
				c0.17-0.05,0.34-0.1,0.51-0.15c0.15-0.05,0.13-0.28-0.04-0.28c-0.33,0-0.66,0.14-0.92,0.34c-0.03-0.02-0.05-0.04-0.08-0.06
				c-0.01-0.01-0.05-0.05-0.05-0.03c-0.02-0.05,0.02-0.15,0.03-0.19c0.02-0.08,0.03-0.16,0.05-0.24c0.03-0.15,0.06-0.31,0.09-0.46
				c0.06-0.33,0.12-0.65,0.15-0.99c0.01-0.09-0.05-0.16-0.12-0.18c0.05-0.13,0.1-0.26,0.17-0.39c0.28-0.58,0.64-1.1,1.15-1.49
				c0.22-0.17,0.01-0.55-0.23-0.39c-1.22,0.86-1.61,2.48-1.72,3.89c0,0.02,0.01,0.02,0.02,0.03c-0.03,0.15-0.08,0.32-0.04,0.47
				c0.03,0.11,0.1,0.2,0.19,0.27c-0.12-0.01-0.23,0.14-0.12,0.25c0.04,0.04,0.06,0.08,0.08,0.13c-0.02,0.02-0.04,0.04-0.06,0.07
				c-0.02,0.04,0,0.08,0.04,0.09c0.01,0,0.02,0.01,0.03,0.01c-0.07,0.27-0.44,0.55-0.57,0.74c-0.21,0.32-0.29,0.69-0.36,1.06
				c-0.14,0.89-0.21,1.79-0.25,2.69c-0.04,0.92-0.03,1.85,0.03,2.77c0.06,0.9,0.06,1.88,0.3,2.75c0.01,0.04,0.03,0.06,0.05,0.08
				c0.01,0.34,0.03,0.7,0.18,0.98c0.01,0.01,0.02,0.01,0.02,0.02c0.08,0.4,0.19,0.79,0.29,1.13c-0.28,0.17-0.41,0.49-0.36,0.88
				c0.04,0.38,0.24,0.75,0.34,1.12c0.12,0.45,0.2,0.91,0.28,1.36c0.32,1.96,0.6,3.93,0.96,5.89c0.36,1.97,0.79,3.92,1.28,5.86
				c-0.05,0.07-0.08,0.15-0.07,0.25c0.08,1.17,0.42,2.33,0.77,3.45c0.01,0.08,0.04,0.16,0.07,0.24c0,0,0,0,0,0.01l0,0
				c0.02,0.04,0.03,0.08,0.05,0.12c0.03,0.05,0.06,0.08,0.09,0.11c0,0.04-0.01,0.09-0.01,0.13c0,0.11,0.05,0.2,0.13,0.26
				c-0.02,0.41-0.01,0.82,0.02,1.21c0.05,0.63,0.42,1.11,0.45,1.72c0.07,1.47,0.7,3,1.07,4.43c0.39,1.5,0.78,3,1.15,4.51
				c0.09,0.36,0.18,0.71,0.28,1.06c-0.03,0.05-0.06,0.1-0.06,0.16c-0.05,1.08,0.41,2.18,0.58,3.24c0.03,0.2,0.2,0.3,0.37,0.31
				c0,0.66,0.1,1.32,0.2,1.98c0.16,1.07,0.33,2.14,0.48,3.22c0.31,2.25,0.82,4.5,1.35,6.71c0.52,2.19,0.58,4.53,1.24,6.68
				c0.34,1.1,0.31,2.2,0.4,3.34c0.09,1.13,0.15,2.29,0.33,3.41c0.03,0.19,0.17,0.27,0.32,0.27c0.06,1,0.21,2.01,0.25,2.98
				c0.06,1.48,0.17,2.96,0.33,4.44c0.15,1.38,0.36,2.76,0.61,4.13c0.26,1.43,0.41,2.98,0.96,4.34c0.03,0.07,0.08,0.12,0.14,0.16
				c0,0.52-0.01,1.05,0,1.57c0.02,0.6,0.04,1.2,0.07,1.79c0.01,0.24,0.29,0.29,0.42,0.16c0,0.09,0,0.18,0,0.27
				c-0.01,0.47,0.06,0.9,0.3,1.29c0.04,0.07,0.08,0.14,0.14,0.21c0.03,0.04,0.07,0.06,0.11,0.08c0.05,0.62,0.14,1.24,0.21,1.85
				c0.13,1.19,0.28,2.38,0.43,3.57c0.31,2.48,0.66,4.95,0.96,7.42c0.13,1.08,0.29,2.15,0.46,3.22c0.11,0.64,0.23,1.27,0.35,1.9
				c0.13,0.72,0.08,1.43,0.17,2.15c0.08,0.74,0.96,0.98,1.58,1.2c0.99,0.35,2.11,0.61,3.16,0.62
				C65.82,136.57,65.89,136.2,65.65,136.16z"/>
			<path class="st11" d="M55.34,16.05c-0.51-0.01-1.03,0.09-1.54,0.15c-0.49,0.06-0.98,0.12-1.47,0.19
				c-1.02,0.15-2.02,0.35-3.02,0.6c-0.06,0.01-0.05,0.11,0.01,0.1c1.02-0.07,2.04-0.17,3.06-0.3c0.51-0.06,1.02-0.13,1.53-0.2
				c0.49-0.06,0.99-0.09,1.46-0.21C55.57,16.34,55.53,16.05,55.34,16.05z"/>
			<path class="st11" d="M64.99,17c-0.35-0.07-0.73-0.07-1.09-0.06c-0.37,0.01-0.71,0.06-1.06,0.19c-0.05,0.02-0.04,0.09,0.01,0.09
				c0.35-0.01,0.7-0.04,1.05-0.04c0.36,0,0.7,0.05,1.05,0.08C65.1,17.27,65.13,17.03,64.99,17z"/>
			<path class="st11" d="M61.27,14.92c-0.24,0.02-0.48,0.05-0.72,0.09c-0.11,0.02-0.23,0.04-0.34,0.07s-0.22,0.08-0.33,0.12
				c-0.08,0.02-0.07,0.15,0.02,0.15c0.12,0,0.23,0.01,0.35,0.01c0.11,0,0.22-0.01,0.33-0.02c0.23-0.01,0.46-0.03,0.69-0.03
				c0.11,0,0.19-0.09,0.19-0.19C61.46,15.02,61.37,14.91,61.27,14.92z"/>
			<path class="st11" d="M64.99,15.6c-0.11-0.11-0.23-0.1-0.37-0.07c-0.14,0.02-0.27,0.04-0.41,0.06c-0.3,0.04-0.61,0.08-0.91,0.11
				c-0.28,0.03-0.57,0.07-0.84,0.04c-0.24-0.02-0.48-0.15-0.65-0.31c-0.03-0.03-0.09-0.01-0.09,0.04c0.06,0.54,0.73,0.67,1.18,0.66
				c0.31-0.01,0.62-0.03,0.93-0.05c0.16-0.01,0.31-0.03,0.47-0.05c0.08-0.01,0.16-0.02,0.24-0.03c0.04-0.01,0.08-0.01,0.12-0.02
				c0.01,0,0.03,0,0.04-0.01c0.05,0.03,0.1,0.04,0.17,0.03c0.01,0,0.01,0,0.02,0c0.08-0.01,0.14-0.09,0.16-0.16
				c0-0.01,0-0.01,0.01-0.02C65.07,15.74,65.04,15.65,64.99,15.6z"/>
			<path class="st11" d="M77.08,13.72c-1.78,0.12-3.56,0.27-5.34,0.4c-0.88,0.07-1.76,0.14-2.63,0.21
				c-0.44,0.04-0.88,0.07-1.32,0.11c-0.23,0.02-0.46,0.05-0.69,0.07c-0.19,0.02-0.4,0.08-0.57-0.03c-0.09-0.06-0.21,0.02-0.21,0.12
				c0.01,0.28,0.26,0.34,0.5,0.34c0.46,0.01,0.93-0.04,1.39-0.08c0.99-0.07,1.99-0.14,2.98-0.21c1.96-0.14,3.93-0.3,5.89-0.47
				C77.37,14.16,77.38,13.7,77.08,13.72z"/>
			<path class="st11" d="M105.52,15.02c-0.57-0.13-1.24-0.39-1.83-0.31c-0.3,0.04-0.58,0.19-0.89,0.22
				c-0.36,0.04-0.67-0.24-1.01-0.34c-0.65-0.2-1.4-0.19-2.07-0.26c-0.72-0.07-1.43-0.15-2.15-0.22c-2.93-0.3-5.87-0.59-8.81-0.74
				c-0.83-0.04-1.67-0.08-2.5-0.11c-0.78-0.02-1.63-0.12-2.39,0.06c-0.09,0.02-0.08,0.15,0,0.17c0.67,0.19,1.42,0.16,2.11,0.19
				c0.72,0.03,1.44,0.08,2.16,0.12c1.46,0.09,2.92,0.2,4.37,0.32c2.89,0.24,5.78,0.53,8.66,0.86c0.7,0.08,1.24,0.57,1.96,0.38
				c0.18-0.05,0.35-0.13,0.54-0.17c0.21-0.04,0.41,0,0.61,0.05c0.37,0.08,0.74,0.18,1.1,0.27C105.71,15.61,105.85,15.1,105.52,15.02
				z"/>
			<path class="st11" d="M53.1,18.36c-0.05-0.06-0.15-0.05-0.21,0c-0.1,0.11-0.08,0.25-0.1,0.39c-0.02,0.14-0.04,0.29-0.08,0.43
				c-0.07,0.29-0.17,0.57-0.31,0.83c-0.14,0.26-0.3,0.5-0.49,0.71c-0.09,0.11-0.19,0.21-0.3,0.3c-0.12,0.09-0.25,0.15-0.36,0.24
				c-0.12,0.1-0.01,0.28,0.12,0.29c0.31,0.01,0.6-0.29,0.79-0.51c0.22-0.25,0.41-0.52,0.56-0.81c0.15-0.29,0.26-0.59,0.34-0.9
				c0.04-0.16,0.07-0.33,0.09-0.5S53.21,18.49,53.1,18.36z"/>
			<path class="st11" d="M91.16,19.59c-0.12-0.05-0.24-0.09-0.36-0.15s-0.23-0.12-0.33-0.2c-0.19-0.14-0.37-0.32-0.51-0.51
				c-0.14-0.2-0.26-0.42-0.34-0.66c-0.08-0.25-0.1-0.49-0.13-0.74c-0.01-0.09-0.06-0.16-0.15-0.17c-0.08-0.01-0.17,0.04-0.19,0.12
				c-0.1,0.56,0.14,1.19,0.46,1.65c0.17,0.24,0.36,0.45,0.59,0.63c0.22,0.17,0.5,0.36,0.78,0.41c0.1,0.02,0.21-0.02,0.25-0.12
				C91.29,19.77,91.26,19.64,91.16,19.59z"/>
			<path class="st11" d="M65.71,34.25c-1.47-1.91-1.93-4.37-2.36-6.68c-0.24-1.3-0.46-2.61-0.65-3.92
				c-0.09-0.66-0.18-1.32-0.26-1.99c-0.08-0.64-0.14-1.31-0.31-1.93c-0.03-0.13-0.22-0.1-0.22,0.03c-0.02,0.67,0.09,1.37,0.17,2.04
				c0.08,0.65,0.17,1.3,0.26,1.95c0.19,1.33,0.4,2.66,0.67,3.98c0.47,2.31,0.92,4.79,2.39,6.69C65.55,34.6,65.85,34.42,65.71,34.25z
				"/>
			<path class="st11" d="M61.89,41.58c-0.19-0.07-0.39,0.05-0.58,0.1c-0.22,0.06-0.44,0.11-0.66,0.16
				c-0.42,0.08-0.84,0.14-1.26,0.21c-0.42,0.06-0.84,0.13-1.26,0.22c-0.38,0.08-0.86,0.19-1.15,0.46c-0.07,0.06-0.01,0.17,0.07,0.18
				c0.21,0.01,0.41-0.06,0.61-0.11c0.22-0.05,0.44-0.09,0.66-0.14c0.42-0.08,0.84-0.15,1.26-0.21c0.42-0.06,0.84-0.13,1.26-0.22
				c0.22-0.05,0.44-0.1,0.66-0.17c0.18-0.06,0.37-0.09,0.47-0.26C62.02,41.71,61.97,41.62,61.89,41.58z"/>
			<path class="st11" d="M88.09,42.65c-1.86-0.51-3.73-1-5.6-1.47c-0.91-0.23-1.83-0.46-2.75-0.67c-0.47-0.11-0.94-0.21-1.41-0.32
				c-0.37-0.08-0.89-0.28-1.26-0.15c-0.02,0.01-0.03,0.03-0.01,0.04c0.26,0.27,0.77,0.33,1.11,0.42c0.47,0.12,0.93,0.24,1.4,0.37
				c0.93,0.25,1.87,0.48,2.81,0.72c1.87,0.48,3.74,0.97,5.6,1.47C88.25,43.15,88.36,42.72,88.09,42.65z"/>
			<path class="st11" d="M89.58,44.88c-1.14-0.27-2.3-0.45-3.45-0.7c-0.56-0.12-1.12-0.25-1.68-0.39c-0.58-0.14-1.18-0.21-1.76-0.36
				c-0.05-0.01-0.06,0.06-0.02,0.07c0.55,0.19,1.07,0.44,1.62,0.6c0.57,0.17,1.15,0.32,1.73,0.47c1.13,0.29,2.28,0.6,3.44,0.75
				C89.74,45.37,89.88,44.95,89.58,44.88z"/>
			<path class="st11" d="M116.43,136.97c-2.91,0.12-5.84,0.26-8.69-0.44c-0.65-0.16-1.29-0.35-1.91-0.6
				c-0.35-0.13-0.64-0.26-0.86-0.57c-0.2-0.29-0.3-0.7-0.42-1.02c-0.54-1.43-1.04-2.86-1.53-4.31c-0.48-1.4-0.94-2.81-1.39-4.22
				c-0.4-1.27-0.66-2.81-1.39-3.94c-0.36-0.56-0.93-0.84-1.13-1.49c-0.24-0.76-0.4-1.55-0.59-2.32c-0.36-1.51-0.69-3.03-1.01-4.55
				c-0.35-1.66-0.66-3.32-0.94-4.99c-0.23-1.38-0.34-2.87-0.75-4.23c0.02-0.08,0.04-0.17,0.02-0.27c-0.42-2.17-0.55-4.62-1.55-6.61
				c-0.56-1.12-0.87-2.4-1.28-3.58c-0.4-1.18-0.76-2.37-1.12-3.56c-1.39-4.55-2.87-9.13-4.92-13.44c-0.59-1.23-1.18-2.47-1.81-3.68
				c-0.62-1.19-1.16-2.5-2.06-3.52l0,0c-0.13-0.24-0.26-0.48-0.36-0.74c-0.32-0.75-0.36-1.65-0.84-2.32
				c-0.23-0.33-0.54-0.59-0.78-0.92s-0.44-0.68-0.63-1.04c-0.01-0.03-0.03-0.06-0.04-0.09c-0.72-2.41-1.56-4.79-2.39-7.17
				c-0.78-2.26-1.47-4.84-3.21-6.56c-0.09-0.09-0.26,0.03-0.19,0.14c0.67,1.02,1.12,2.21,1.46,3.37c0.37,1.24,0.78,2.46,1.19,3.68
				c0.87,2.56,1.73,5.12,2.75,7.63c0.07,0.18,0.24,0.24,0.39,0.22c0,0.01,0.01,0.01,0.01,0.02c0.21,0.36,0.49,0.66,0.74,1
				c0.26,0.36,0.33,0.76,0.42,1.18c0.09,0.44,0.22,0.87,0.39,1.28c0.15,0.38,0.33,0.75,0.52,1.12c0.21,0.39,0.38,0.83,0.75,1.09
				c0.05,0.04,0.12,0.05,0.18,0.05c0.2,0.47,0.42,0.93,0.62,1.39c0.5,1.15,1.04,2.28,1.57,3.42c1.01,2.18,1.97,4.35,2.78,6.61
				c0.81,2.27,1.59,4.56,2.41,6.83c0.82,2.28,1.71,4.54,2.43,6.86c0.2,0.64,0.24,1.3,0.4,1.95c0.14,0.59,0.28,1.19,0.39,1.79
				c0.24,1.28,0.33,2.61,0.82,3.83c0.07,0.17,0.18,0.26,0.31,0.31c0.05,1.25,0.37,2.53,0.6,3.72c0.31,1.61,0.63,3.23,0.97,4.84
				c0.33,1.57,0.68,3.12,1.06,4.68c0.31,1.3,0.45,2.97,1.2,4.11c0.39,0.59,0.54,1.22,0.75,1.88c0.24,0.77,0.48,1.54,0.73,2.31
				c0.49,1.54,0.99,3.07,1.52,4.6c0.53,1.52,1.09,3.04,1.7,4.53c0.19,0.47,0.39,0.9,0.82,1.2c0.53,0.37,1.24,0.53,1.86,0.68
				c3.25,0.82,6.73,0.64,10.03,0.33C116.74,137.43,116.75,136.96,116.43,136.97z"/>
			<path class="st11" d="M119.43,97.95c-0.72-0.23-1.56-0.16-2.31-0.13c-0.75,0.03-1.52,0.04-2.26,0.17
				c-0.37,0.06-0.72,0.16-1.06,0.31c-0.31,0.13-0.61,0.31-0.94,0.4c-0.85,0.21-1.58-0.27-2.3-0.65c-0.06-0.03-0.14,0.05-0.08,0.1
				c0.52,0.41,1.13,0.8,1.79,0.91c0.73,0.13,1.32-0.23,1.99-0.45c1.65-0.54,3.48-0.17,5.17-0.42
				C119.56,98.17,119.54,97.98,119.43,97.95z"/>
			<path class="st11" d="M77.87,119.21c-0.42,0.02-0.78,0.32-1.16,0.5c-0.59,0.27-1.21,0.5-1.82,0.7c-1.11,0.37-2.25,0.6-3.4,0.84
				c-1.14,0.23-2.3,0.38-3.45,0.55c-1.23,0.18-2.48,0.05-3.7,0.25c-0.03,0-0.02,0.04,0,0.05c1.17,0.29,2.56,0.14,3.75,0.12
				s2.37-0.22,3.53-0.46c1.22-0.25,2.41-0.65,3.59-1.06c0.53-0.18,1.07-0.37,1.58-0.6c0.41-0.18,0.93-0.36,1.12-0.79
				C77.94,119.26,77.92,119.21,77.87,119.21z"/>
			<path class="st11" d="M76.82,120.91c-0.07,0.08-0.15,0.18-0.22,0.25c-0.07,0.06-0.18,0.06-0.27,0.08
				c-0.29,0.05-0.58,0.05-0.87,0.1c-0.29,0.05-0.58,0.12-0.87,0.18c-0.15,0.03-0.29,0.07-0.43,0.11s-0.25,0.06-0.31,0.2
				c-0.02,0.04,0,0.1,0.03,0.13c0.11,0.11,0.24,0.07,0.38,0.05c0.16-0.02,0.31-0.04,0.47-0.08c0.32-0.07,0.64-0.12,0.95-0.21
				c0.28-0.08,0.55-0.17,0.82-0.27c0.05-0.02,0.09-0.05,0.14-0.06c0.05-0.01,0.1-0.01,0.15-0.01c0.14-0.02,0.23-0.08,0.32-0.19
				C77.3,121,77,120.71,76.82,120.91z"/>
			<path class="st11" d="M48.83,24.42c-0.22,0.2-0.4,0.38-0.56,0.63s-0.31,0.51-0.48,0.76c-0.3,0.47-0.64,0.91-1.05,1.29
				c-0.38,0.35-0.82,0.63-1.32,0.76c-0.42,0.1-1.2,0.08-1.24-0.51c-0.02-0.38-0.6-0.39-0.6,0c0,0.68,0.6,1.18,1.25,1.23
				c0.66,0.04,1.32-0.26,1.83-0.65c0.53-0.41,0.93-0.93,1.29-1.49c0.19-0.3,0.37-0.62,0.55-0.93c0.09-0.16,0.18-0.31,0.26-0.47
				c0.08-0.17,0.13-0.35,0.19-0.53C48.98,24.41,48.88,24.37,48.83,24.42z"/>
			<path class="st11" d="M101.88,23.29c-0.54,0.75-1.06,1.63-1.89,2.12c-0.1,0.06-0.2,0.11-0.32,0.1c-0.25-0.01-0.37-0.26-0.55-0.39
				c-0.21-0.15-0.5-0.22-0.74-0.34c-0.58-0.31-1.12-0.68-1.66-1.05c-0.83-0.57-1.58-1.2-2.33-1.87c-0.38-0.34-0.75-0.7-1.13-1.05
				c-0.38-0.35-0.82-0.64-1.18-1c-0.03-0.03-0.08,0.01-0.06,0.04c0.35,0.46,0.63,0.97,1,1.43c0.36,0.44,0.77,0.85,1.17,1.25
				c0.85,0.83,1.79,1.6,2.77,2.26c0.84,0.56,2.05,1.48,3.13,1.22c0.52-0.12,0.9-0.51,1.24-0.89c0.41-0.45,0.8-0.96,1.08-1.5
				C102.62,23.24,102.12,22.96,101.88,23.29z"/>
			<path class="st11" d="M126.89,129.93c-0.19-1.26-0.37-2.52-0.59-3.78c-0.21-1.26-0.47-2.51-0.65-3.78
				c-0.11-0.75-0.19-1.5-0.25-2.26c-0.02-0.34-0.04-0.68-0.06-1.03c0-0.03-0.01-0.07-0.01-0.1c0.1-0.05,0.17-0.15,0.15-0.28
				c-0.31-2.05-0.76-4.08-1.11-6.12c-0.25-1.48-0.34-3-0.68-4.47c-0.05-0.31-0.11-0.61-0.16-0.91c-0.03-0.17-0.05-0.35-0.08-0.52
				c-0.03-0.18-0.06-0.36-0.15-0.52c-0.03-0.05-0.11-0.05-0.13,0c0,0.01,0,0.02-0.01,0.03c-0.09-0.54-0.17-1.09-0.26-1.63
				c-0.2-1.25-0.4-2.5-0.6-3.74c-0.18-1.1-0.2-2.34-0.81-3.3c-0.18-0.28-0.15-0.53-0.12-0.84c0.02-0.3,0.02-0.59-0.01-0.89
				c-0.05-0.56-0.22-1.03-0.48-1.53c-0.05-0.08-0.17-0.03-0.15,0.06c0.09,0.39,0.15,0.81,0.18,1.23c-0.48-1.72-0.5-3.53-0.93-5.27
				c-0.24-0.99-0.51-1.97-0.76-2.96c-0.12-0.49-0.24-0.98-0.32-1.48c-0.08-0.53-0.11-1.07-0.2-1.59c-0.03-0.18-0.3-0.16-0.35,0
				c-0.27,0.95-0.02,2.05,0.21,2.99c0.26,1.05,0.68,2.06,0.96,3.11c0.49,1.85,0.51,3.92,1.42,5.63c0,0.02,0,0.04,0,0.06
				c0,0.49-0.21,1.05-0.06,1.52c0.07,0.22,0.21,0.41,0.28,0.64c0.07,0.23,0.12,0.47,0.15,0.71c0.09,0.58,0.18,1.17,0.28,1.75
				c0.18,1.13,0.37,2.27,0.55,3.4l0.29,1.77c0.08,0.49,0.31,1.17,0.08,1.64c-0.05,0.09-0.07,0.22,0,0.31
				c0.2,0.27,0.35,0.55,0.48,0.84c0.1,0.51,0.22,1.02,0.38,1.51c0.02,0.06,0.06,0.11,0.11,0.14c0.1,0.82,0.19,1.64,0.33,2.45
				c0.37,2.03,0.73,4.08,1.18,6.1c0.01,0.04,0.02,0.07,0.04,0.09c-0.03,0.26-0.04,0.52-0.04,0.78c-0.01,0.57,0.02,1.14,0.06,1.71
				c0.09,1.17,0.26,2.33,0.43,3.49c0.32,2.3,0.8,4.58,1.05,6.89c0.06,0.58,0.1,1.23-0.15,1.77c-0.06,0.12-0.12,0.21-0.19,0.3
				c-0.1,0.05-0.19,0.1-0.28,0.15c-0.22,0.13-0.44,0.26-0.66,0.38c-0.51,0.3-1.02,0.58-1.53,0.86c-0.54,0.28-1.09,0.53-1.67,0.72
				c-0.57,0.18-1.17,0.26-1.73,0.48c-0.11,0.05-0.1,0.21,0.03,0.22c0.6,0.03,1.24-0.13,1.81-0.3c0.6-0.18,1.18-0.42,1.73-0.71
				c0.47-0.24,0.92-0.52,1.37-0.8c0.85,0.26,1.63-0.75,1.83-1.46C127.4,132.3,127.05,131.03,126.89,129.93z"/>
			<path class="st11" d="M109.59,40.36c-0.05-0.21-0.11-0.43-0.19-0.64c-0.03-0.07-0.07-0.13-0.09-0.2
				c-0.05-0.11-0.04-0.2-0.05-0.32c-0.01-0.2-0.04-0.39-0.09-0.57c0-0.33-0.01-0.67-0.06-0.99c-0.08-0.56-0.26-1.09-0.34-1.65
				c-0.14-1.04-0.31-2.08-0.46-3.12c0.02-0.26-0.04-0.53-0.06-0.78c-0.04-0.37-0.07-0.73-0.11-1.09c-0.07-0.71-0.12-1.42-0.17-2.13
				c0-0.01,0-0.02,0-0.02c0-0.01,0.02-0.02,0.02-0.04c0.01-0.11,0-0.21-0.04-0.31c-0.04-0.59-0.06-1.17-0.1-1.76
				c-0.02-0.37-0.04-0.73-0.06-1.1c-0.01-0.28-0.07-0.58-0.07-0.87c0-0.01,0.01-0.02,0.01-0.03c0.01-0.05,0-0.07-0.02-0.12
				c-0.02-0.03-0.06-0.06-0.1-0.06c-0.01,0-0.02,0-0.03,0c-0.01-0.21-0.01-0.43-0.02-0.64c-0.06-1.17-0.15-2.35-0.27-3.52
				c0-0.03-0.01-0.05-0.02-0.08c0-0.05,0.01-0.09,0.01-0.14c0.01-0.18,0.05-0.4-0.04-0.57c-0.01-0.02-0.03-0.04-0.04-0.05
				c0-0.06,0-0.12-0.01-0.19c0-0.04-0.07-0.06-0.08-0.01c-0.01,0.04-0.01,0.08-0.02,0.12c-0.03-0.01-0.06-0.01-0.09-0.01
				c-0.01-0.34-0.02-0.69-0.03-1.03c-0.01-0.46-0.01-0.92-0.01-1.38c-0.01-0.48-0.06-0.96-0.07-1.45c0-0.04-0.06-0.04-0.06,0
				c-0.05,0.46-0.13,0.91-0.16,1.38c-0.03,0.46-0.04,0.92-0.05,1.38c-0.03,0.92-0.04,1.84-0.02,2.76c0.01,0.49,0.02,0.97,0.04,1.46
				c-0.06,0.49-0.12,0.98-0.18,1.47c-0.09,0.7-0.25,1.42-0.28,2.13c-0.01,0.21,0.07,0.38,0.18,0.54c-0.26-0.19-0.52-0.38-0.78-0.56
				c-0.34-0.24-0.7-0.45-1.08-0.61c-0.02-0.01-0.03,0.02-0.02,0.03c0.67,0.4,1.34,0.82,1.84,1.43c0.3,0.38,0.58,0.77,0.85,1.17
				c0.09,0.56,0.18,1.12,0.28,1.68c0.01,0.13,0.04,0.27,0.05,0.4c0.03,0.29,0.05,0.57,0.08,0.86c0.04,0.35,0.08,0.69,0.12,1.03
				c0.04,0.27,0.05,0.58,0.16,0.83c0.15,0.95,0.29,1.9,0.46,2.84c0.1,0.56,0.29,1.09,0.4,1.65c0.09,0.41,0.13,0.82,0.16,1.24
				c0,0.23-0.02,0.47-0.01,0.71c0.01,0.18,0.1,0.33,0.17,0.49c0.08,0.19,0.12,0.4,0.17,0.6c0.24,0.9,0.48,1.79,0.77,2.68
				c0.05,0.17,0.3,0.1,0.27-0.07C110.05,42.2,109.82,41.28,109.59,40.36z"/>
			<path class="st11" d="M105.58,27.87c-0.3-0.16-0.6-0.32-0.9-0.5c-0.29-0.17-0.59-0.34-0.88-0.53c-0.02-0.02-0.05,0.02-0.03,0.04
				c0.26,0.23,0.52,0.46,0.82,0.64c0.3,0.19,0.61,0.34,0.93,0.47C105.6,28.03,105.65,27.91,105.58,27.87z"/>
			<path class="st11" d="M83.81,107.2c-1.95-0.32-3.4,1.14-5.06,1.88c-1.75,0.78-3.88,0.74-5.63-0.03
				c-0.03-0.01-0.05,0.03-0.02,0.04c1.56,0.89,3.41,1.1,5.13,0.55c1.82-0.58,3.44-2.45,5.48-2.09
				C83.94,107.6,84.04,107.24,83.81,107.2z"/>
		</g>
		<g>
			<path d="M70.35,39.3c-1.36-0.64-2.62-1.47-3.73-2.48c-0.1-0.09-0.25,0.06-0.15,0.15c1.12,1.02,2.4,1.87,3.77,2.51
				C70.37,39.54,70.47,39.36,70.35,39.3L70.35,39.3z"/>
		</g>
		<g>
			<path d="M65.97,34.29c-0.5-0.8-0.96-1.63-1.31-2.52c-0.36-0.9-0.59-1.85-0.78-2.8c-0.39-1.95-0.8-3.89-1.15-5.85
				c-0.2-1.13-0.36-2.27-0.4-3.42c0-0.13-0.21-0.13-0.21,0c0.07,2.02,0.5,4,0.89,5.98c0.2,1,0.39,2,0.59,3
				c0.19,0.97,0.4,1.94,0.74,2.87c0.37,1,0.87,1.93,1.44,2.83C65.86,34.5,66.04,34.4,65.97,34.29L65.97,34.29z"/>
		</g>
		<g>
			<path d="M62.86,17.17c0.74-0.39,1.64-0.4,2.38-0.03c0.12,0.06,0.23-0.12,0.11-0.18c-0.81-0.41-1.79-0.4-2.59,0.03
				C62.64,17.06,62.74,17.24,62.86,17.17L62.86,17.17z"/>
		</g>
		<g>
			<path d="M66.65,19c0.76,3.63,1.61,7.25,2.55,10.84c0.27,1.02,0.55,2.04,0.83,3.06c0.04,0.13,0.24,0.07,0.2-0.06
				c-1-3.58-1.9-7.18-2.71-10.8c-0.23-1.03-0.45-2.06-0.67-3.1C66.83,18.82,66.63,18.87,66.65,19L66.65,19z"/>
		</g>
		<g>
			<path d="M44.96,28.12c1.47,0,2.37-1.46,3.07-2.55c0.91-1.41,1.68-2.91,2.39-4.44c0.4-0.87,0.79-1.75,1.17-2.64
				c0.1-0.24-0.25-0.46-0.36-0.21c-0.8,1.87-1.63,3.73-2.62,5.51c-0.48,0.86-1,1.72-1.58,2.51c-0.5,0.67-1.17,1.39-2.07,1.39
				C44.69,27.71,44.69,28.13,44.96,28.12L44.96,28.12z"/>
		</g>
		<g>
			<path d="M90.41,15.91c-0.12,1.86,1.25,3.54,2.4,4.87c1.18,1.35,2.54,2.54,4.05,3.51c0.86,0.56,1.77,1.05,2.71,1.46
				c0.24,0.11,0.46-0.25,0.21-0.36c-3.16-1.39-5.97-3.65-7.92-6.51c-0.6-0.88-1.11-1.87-1.03-2.97
				C90.85,15.64,90.43,15.64,90.41,15.91L90.41,15.91z"/>
		</g>
		<g>
			<path d="M81.16,68.45c0.42,6.27,0.85,12.54,1.43,18.8c0.29,3.14,0.62,6.27,1,9.39c0.18,1.5,0.38,3,0.6,4.5
				c0.22,1.56,0.51,3.13,0.48,4.72c-0.03,1.55-0.23,3.09-0.24,4.65c-0.01,1.58,0.07,3.15,0.14,4.73c0.13,3.17,0.08,6.33-0.11,9.49
				c-0.1,1.58-0.23,3.17-0.4,4.75c-0.11,1.05-0.21,2.13-0.48,3.15c-0.01,0.02-0.07,0.2-0.08,0.2c0.05-0.07,0.11-0.14,0.16-0.21
				c-0.02,0.01-0.03,0.02-0.05,0.02c-0.14-0.02-0.53,0.23-0.64,0.27c-0.61,0.24-1.25,0.42-1.87,0.62c-1.51,0.47-3.04,0.9-4.58,1.27
				c-3.39,0.81-6.86,1.3-10.35,1.21c-1.81-0.05-3.59-0.4-5.32-0.94c-0.07,0.27-0.15,0.54-0.22,0.8l0,0c0.23,0.04,0.57-0.1,0.53-0.4
				c-0.56-4.36-0.78-8.75-1.43-13.1c-0.91-6.07-2.26-12.06-3.25-18.11c-0.99-6.06-1.43-12.2-2.36-18.28
				C53.17,79.8,52,73.66,50.73,67.55c-1.29-6.19-2.69-12.36-4.08-18.52c-1.38-6.09-2.9-12.19-3.53-18.42
				c-0.31-3.06-0.4-6.14-0.12-9.2c0.07-0.72,0.11-1.29,0.5-1.9c0.3-0.48,0.34-0.78,0.23-1.33c-0.12-0.57,0.05-1.22,0.19-1.79
				c0.17-0.67,0.4-1.41,0.88-1.94c0.38-0.41,0.89-0.63,1.21-1.11c0.16-0.24,0.26-0.57,0.52-0.74c0.31-0.19,0.97-0.33,1.31-0.26
				c0.44,0.09,0.72,0.4,1.21,0.4c0.7,0,1.43-0.28,2.11-0.45c1.32-0.34,2.73-0.5,4.02-0.92c0.37-0.12,0.74-0.31,0.96-0.64
				c0.21-0.32,0.18-0.45,0.6-0.58c0.34-0.11,0.89-0.22,1.21-0.01c0.38,0.25,0.53,0.49,1.03,0.55c0.49,0.05,0.99-0.06,1.46-0.16
				c1.32-0.28,2.66-0.44,4.01-0.59c3.06-0.36,6.14-0.63,9.22-0.68c0.75-0.01,1.49-0.01,2.24-0.02c0.65-0.01,1.46,0.11,2.09-0.09
				c0.55-0.15,0.5-0.56,0.84-0.91c0.24-0.24,0.8-0.17,1.13-0.15c0.12,0.01,0.45,0,0.53,0.05c0.1,0.06,0.14,0.27,0.19,0.36
				c0.42,0.73,1.4,0.74,2.14,0.72c1.16-0.04,2.3-0.04,3.47,0.01c3.1,0.13,6.19,0.35,9.28,0.64c1.6,0.15,3.25,0.23,4.81,0.56
				c0.53,0.11,0.94,0.13,1.41-0.18c0.56-0.36,1.71-0.4,2.24,0.11c0.38,0.37,0.18,0.98,0.69,1.28c0.22,0.13,0.49,0.13,0.71,0.26
				s0.67,0.47,0.78,0.69c0.22,0.45,0.29,1.26,0.24,1.74c-0.05,0.55-0.32,0.77,0.03,1.25c0.34,0.47,0.25,1.31,0.29,1.9
				c0.06,0.79,0.13,1.57,0.19,2.36c0.11,1.33,0.23,2.66,0.35,3.99c0.52,5.83,1.01,11.66,2.01,17.42c0.76,4.35,1.8,8.64,2.7,12.96
				c0.71,3.42,1.39,6.85,2.15,10.26c0.43,1.91,0.92,3.8,1.24,5.74c0.24,1.44,0.48,2.88,0.76,4.31c0.72,3.69,1.5,7.36,2.33,11.02
				c0.36,1.56,0.79,3.11,1.14,4.68c0.63,2.84,1.04,5.71,1.77,8.53c2.45,9.43,3.62,19.23,4.75,28.89c0.25,2.11,0.48,4.22,0.71,6.33
				c0.07-0.12,0.14-0.24,0.21-0.36c-3.31,2.05-7.27,3-11.11,3.36c-3.92,0.37-8,0.16-11.77-1.05c0.1,0.1,0.19,0.19,0.29,0.29
				c-2.23-6-4.63-11.97-6.21-18.19c-1.58-6.25-2.66-12.62-4.22-18.88c-1.58-6.31-3.56-12.5-6.25-18.43
				c-2.75-6.05-5.78-11.94-8.32-18.09c-2.87-6.97-5.39-14.08-7.92-21.18c-0.18-0.5-0.98-0.29-0.8,0.22
				c2.95,8.31,5.9,16.62,9.41,24.72c1.75,4.05,3.71,7.99,5.61,11.97c1.91,4.01,3.62,8.09,5,12.31c2.67,8.2,4.29,16.67,6.12,25.08
				c0.91,4.18,2.22,8.24,3.66,12.26c0.73,2.02,1.49,4.04,2.24,6.05c0.16,0.44,0.33,0.87,0.49,1.31c0.13,0.34,0.24,1,0.51,1.26
				c0.21,0.2,0.65,0.25,0.92,0.33c0.39,0.11,0.79,0.21,1.19,0.3c3.29,0.74,6.72,0.87,10.07,0.55c3.27-0.31,6.55-1.02,9.54-2.4
				c0.68-0.32,1.35-0.67,1.99-1.07c0.12-0.07,0.22-0.22,0.21-0.36c-1.05-9.76-2.19-19.54-4.09-29.17c-0.43-2.21-0.91-4.41-1.49-6.59
				c-0.78-2.95-1.13-5.98-1.86-8.94c-0.82-3.36-1.6-6.71-2.31-10.09c-0.72-3.41-1.31-6.83-1.94-10.26
				c-0.32-1.73-0.78-3.41-1.16-5.13c-0.36-1.63-0.69-3.26-1.03-4.89c-0.72-3.46-1.4-6.92-2.19-10.37
				c-1.41-6.13-2.35-12.29-2.94-18.55c-0.27-2.78-0.52-5.56-0.76-8.35c-0.13-1.47-0.25-2.93-0.37-4.4
				c-0.05-0.57,0.05-1.33-0.17-1.86c-0.05-0.11-0.31-0.38-0.29-0.33c0,0.01,0.17-0.68,0.17-0.87c0.01-0.55-0.11-1.13-0.25-1.66
				c-0.14-0.57-0.42-0.71-0.84-1.07c-0.17-0.15-0.31-0.29-0.52-0.39c-0.34-0.15-0.48-0.05-0.6-0.47c-0.14-0.48-0.36-0.84-0.82-1.1
				c-0.49-0.28-1.15-0.35-1.71-0.36c-0.73,0-1.24,0.57-1.94,0.47c-1.5-0.22-3.02-0.39-4.53-0.54c-3.13-0.31-6.27-0.54-9.42-0.68
				c-1.21-0.05-2.4-0.1-3.6-0.04c-0.43,0.02-0.95,0.08-1.36-0.08c-0.43-0.17-0.4-0.71-0.84-0.91C80.35,7.11,79.56,7.17,79,7.25
				c-0.62,0.09-0.72,0.35-1.03,0.82c-0.36,0.54-1.71,0.31-2.3,0.31c-0.79,0.01-1.57,0.01-2.36,0.02c-3.12,0.06-6.25,0.36-9.35,0.73
				c-1.28,0.15-2.55,0.32-3.81,0.58c-0.46,0.1-1.08,0.27-1.48-0.06c-0.2-0.16-0.3-0.33-0.55-0.43c-0.32-0.12-0.73-0.05-1.05-0.01
				c-0.44,0.06-1.08,0.13-1.38,0.5c-0.14,0.18-0.14,0.43-0.3,0.59c-0.21,0.23-0.61,0.28-0.9,0.35c-1.42,0.32-2.83,0.63-4.24,0.98
				c-0.66,0.17-1.19,0.34-1.83,0.04c-0.62-0.29-1.02-0.25-1.67-0.05c-0.5,0.16-0.89,0.33-1.19,0.79c-0.22,0.34-0.34,0.61-0.67,0.88
				c-0.23,0.18-0.48,0.34-0.68,0.55c-0.82,0.85-1.11,2.15-1.29,3.28c-0.04,0.22-0.08,0.45-0.1,0.68c-0.02,0.3,0.18,0.55,0.17,0.83
				c-0.01,0.24-0.27,0.51-0.39,0.72c-0.16,0.28-0.26,0.52-0.32,0.83c-0.25,1.44-0.27,2.98-0.29,4.44c-0.02,1.58,0.04,3.15,0.17,4.73
				c0.25,3.12,0.75,6.21,1.35,9.28c1.22,6.21,2.74,12.37,4.11,18.55c2.77,12.41,5.39,24.88,6.82,37.52
				c0.35,3.06,0.64,6.11,1.12,9.15c0.48,3,1.05,5.99,1.62,8.98c0.59,3.08,1.17,6.15,1.65,9.25c0.45,2.9,0.71,5.81,0.96,8.73
				c0.13,1.55,0.31,3.09,0.51,4.63c0.18-0.13,0.35-0.27,0.53-0.4l0,0c-0.52-0.08-0.75,0.64-0.22,0.8c1.31,0.4,2.72,0.77,4.08,0.9
				c3.11,0.3,6.33-0.05,9.39-0.61c3.02-0.56,6.14-1.31,9.01-2.42c0.29-0.11,0.73-0.23,0.98-0.42c0.27-0.2,0.35-0.64,0.4-0.95
				c0.22-1.21,0.34-2.44,0.46-3.66c0.32-3.24,0.51-6.5,0.53-9.76c0.02-3.24-0.33-6.47-0.2-9.7c0.06-1.54,0.29-3.07,0.18-4.62
				c-0.11-1.57-0.4-3.14-0.61-4.7c-0.44-3.23-0.82-6.48-1.14-9.73c-0.73-7.25-1.23-14.51-1.71-21.78
				C81.96,67.92,81.12,67.91,81.16,68.45L81.16,68.45z"/>
		</g>
		<g>
			<path d="M44.07,18.4c0.53-0.18,1.08-0.25,1.61-0.43c0.11-0.04,0.18-0.14,0.15-0.26c-0.03-0.1-0.15-0.18-0.26-0.15
				c-0.53,0.18-1.08,0.25-1.61,0.43c-0.11,0.04-0.18,0.14-0.15,0.26C43.84,18.36,43.97,18.44,44.07,18.4L44.07,18.4z"/>
		</g>
		<g>
			<path d="M59.68,15.4c0.59-0.11,1.18-0.21,1.77-0.28c0.11-0.01,0.21-0.09,0.21-0.21c0-0.1-0.1-0.22-0.21-0.21
				c-0.63,0.08-1.26,0.18-1.88,0.3c-0.11,0.02-0.17,0.15-0.15,0.26C59.46,15.37,59.57,15.42,59.68,15.4L59.68,15.4z"/>
		</g>
		<g>
			<path d="M49.2,17.19c2.17-0.34,4.35-0.6,6.51-0.98c0.26-0.05,0.15-0.45-0.11-0.4c-2.16,0.38-4.34,0.64-6.51,0.98
				C48.82,16.83,48.93,17.23,49.2,17.19L49.2,17.19z"/>
		</g>
		<g>
			<path d="M66.32,14.73c3.63-0.28,7.25-0.55,10.88-0.83c0.27-0.02,0.27-0.44,0-0.42c-3.63,0.28-7.25,0.55-10.88,0.83
				C66.05,14.33,66.05,14.75,66.32,14.73L66.32,14.73z"/>
		</g>
		<g>
			<path d="M83.86,13.42c3.02,0.02,6.04,0.17,9.05,0.39c1.49,0.11,2.97,0.24,4.46,0.39c1.42,0.14,2.83,0.37,4.25,0.46
				c0.17,0.01,0.32,0.03,0.47,0.12c0.13,0.08,0.25,0.17,0.39,0.23c0.31,0.13,0.59,0.09,0.9-0.01c0.36-0.11,0.64,0.06,0.98,0.13
				c0.42,0.09,0.85,0.15,1.28,0.24c0.26,0.05,0.37-0.35,0.11-0.4c-0.36-0.07-0.72-0.14-1.08-0.2c-0.3-0.05-0.58-0.18-0.88-0.22
				c-0.32-0.05-0.55,0.13-0.86,0.14c-0.32,0.01-0.53-0.24-0.81-0.35c-0.26-0.1-0.54-0.08-0.81-0.1c-0.34-0.02-0.68-0.08-1.02-0.12
				c-0.74-0.09-1.47-0.18-2.21-0.26c-3.01-0.32-6.02-0.55-9.04-0.7c-1.72-0.09-3.45-0.14-5.17-0.15
				C83.6,13.01,83.6,13.42,83.86,13.42L83.86,13.42z"/>
		</g>
		<g>
			<path d="M49,35.23c1.82,5.43,3.32,10.96,4.57,16.55c1.25,5.56,2.25,11.17,3.11,16.81c0.87,5.73,1.58,11.48,2.24,17.23
				c0.65,5.7,1.24,11.4,1.86,17.1c0.62,5.68,1.28,11.35,2.06,17.01c0.1,0.7,0.19,1.4,0.3,2.09c0.02,0.13,0.22,0.08,0.2-0.06
				c-0.82-5.74-1.51-11.5-2.15-17.26c-0.63-5.7-1.22-11.41-1.86-17.1c-0.63-5.67-1.32-11.34-2.14-16.98s-1.78-11.26-2.97-16.84
				c-1.19-5.6-2.62-11.15-4.37-16.6c-0.21-0.67-0.43-1.34-0.66-2.01C49.16,35.05,48.96,35.1,49,35.23L49,35.23z"/>
		</g>
		<g>
			<path d="M63.4,123.93c0.35,2.29,0.66,4.59,0.93,6.9c0.02,0.13,0.22,0.13,0.21,0c-0.27-2.32-0.58-4.64-0.93-6.95
				C63.58,123.75,63.38,123.8,63.4,123.93L63.4,123.93z"/>
		</g>
		<g>
			<path d="M64.47,132.84c0.05,0.33,0.11,0.66,0.16,0.99c0.01,0.06,0.08,0.09,0.13,0.07c0.06-0.02,0.08-0.07,0.07-0.13
				c-0.05-0.33-0.11-0.66-0.16-0.99c-0.01-0.06-0.08-0.09-0.13-0.07C64.48,132.73,64.46,132.78,64.47,132.84L64.47,132.84z"/>
		</g>
		<g>
			<path d="M90.31,38.06c0.98,2.03,1.73,4.16,2.22,6.36c0.03,0.13,0.23,0.08,0.2-0.06c-0.5-2.22-1.25-4.37-2.24-6.41
				C90.43,37.83,90.25,37.94,90.31,38.06L90.31,38.06z"/>
		</g>
		<g>
			<path d="M94.18,48.64c1.99,5.85,3.84,11.75,5.52,17.7c1.68,5.91,3.2,11.87,4.57,17.86c0.77,3.37,1.49,6.76,2.16,10.15
				c0.03,0.13,0.23,0.08,0.2-0.06c-1.2-6.06-2.55-12.1-4.07-18.09c-1.5-5.96-3.16-11.88-4.98-17.75c-1.02-3.31-2.09-6.6-3.21-9.87
				C94.33,48.46,94.13,48.51,94.18,48.64L94.18,48.64z"/>
		</g>
		<g>
			<path d="M107.83,99.62c1.36,4.49,2.66,9,3.84,13.55c1.12,4.33,2.12,8.69,3,13.08c0.53,2.65,1.01,5.31,1.46,7.97
				c0.02,0.13,0.22,0.08,0.2-0.06c-0.78-4.63-1.66-9.24-2.69-13.81c-0.99-4.37-2.11-8.7-3.32-13.01c-0.73-2.6-1.5-5.19-2.28-7.78
				C107.99,99.44,107.79,99.49,107.83,99.62L107.83,99.62z"/>
		</g>
		<g>
			<path d="M90.7,16.09c1.77-0.04,3.53,0.24,5.21,0.8c0.25,0.09,0.36-0.32,0.11-0.4c-1.71-0.58-3.52-0.85-5.33-0.82
				C90.43,15.68,90.43,16.09,90.7,16.09L90.7,16.09z"/>
		</g>
		<g>
			<path d="M99.86,25.76c0.93-0.64,1.74-1.44,2.4-2.36c0.07-0.09,0.02-0.23-0.07-0.29c-0.1-0.06-0.22-0.02-0.28,0.07
				c-0.61,0.86-1.38,1.61-2.25,2.21c-0.09,0.06-0.13,0.18-0.07,0.28C99.63,25.77,99.77,25.82,99.86,25.76L99.86,25.76z"/>
		</g>
		<g>
			<path d="M44.94,27.73c-0.02-0.01-0.05-0.02-0.07-0.03c-0.01,0-0.02-0.01-0.04-0.01c-0.02-0.01,0.04,0.02,0,0
				c-0.05-0.02-0.09-0.04-0.14-0.07c-0.05-0.03-0.09-0.05-0.13-0.08c-0.02-0.01-0.04-0.03-0.06-0.04c-0.01-0.01-0.02-0.02-0.03-0.02
				c-0.02-0.02,0.04,0.03,0,0c-0.08-0.06-0.15-0.13-0.22-0.21c-0.02-0.02-0.03-0.04-0.05-0.06c-0.01-0.01-0.02-0.02-0.02-0.03
				c-0.03-0.04,0.02,0.02,0,0c-0.03-0.04-0.06-0.09-0.09-0.14c-0.06-0.09-0.19-0.14-0.29-0.07c-0.09,0.06-0.14,0.19-0.07,0.28
				c0.26,0.42,0.66,0.73,1.13,0.89c0.1,0.04,0.23-0.04,0.26-0.15C45.11,27.87,45.05,27.77,44.94,27.73L44.94,27.73z"/>
		</g>
		<g>
			<path d="M51.41,18.15c-0.98,0.04-1.94,0.24-2.85,0.6c-0.11,0.04-0.18,0.14-0.15,0.26c0.03,0.1,0.15,0.19,0.26,0.15
				c0.88-0.35,1.8-0.55,2.74-0.59C51.68,18.56,51.68,18.14,51.41,18.15L51.41,18.15z"/>
		</g>
		<g>
			<path d="M61.97,41.44c-1.7,0.29-3.38,0.68-5.03,1.18c-0.13,0.04-0.07,0.24,0.06,0.2c1.65-0.5,3.33-0.89,5.03-1.18
				C62.16,41.62,62.1,41.42,61.97,41.44L61.97,41.44z"/>
		</g>
		<g>
			<path d="M76.97,40.05c3.8,0.73,7.56,1.7,11.25,2.89c0.13,0.04,0.18-0.16,0.06-0.2c-3.69-1.19-7.44-2.16-11.25-2.89
				C76.89,39.82,76.83,40.02,76.97,40.05L76.97,40.05z"/>
		</g>
		<g>
			<path d="M89.67,44.83c-2.33-0.47-4.66-1.01-6.96-1.62c-0.13-0.03-0.19,0.17-0.06,0.2c2.3,0.61,4.62,1.14,6.96,1.62
				C89.74,45.06,89.8,44.85,89.67,44.83L89.67,44.83z"/>
		</g>
		<g>
			<path d="M82.87,100.53c-1.63,0.8-3.22,1.68-4.75,2.66c-1.47,0.94-2.92,1.95-4.25,3.09c-0.61,0.52-1.21,1.12-1.6,1.83
				c-0.16,0.3-0.11,0.51,0.17,0.7c0.32,0.21,0.69,0.37,1.05,0.5c1.57,0.55,3.3,0.41,4.85-0.12c0.9-0.31,1.76-0.75,2.57-1.25
				c0.78-0.48,1.81-1.2,2.7-0.56c0.11,0.08,0.21-0.1,0.11-0.18c-0.56-0.4-1.27-0.31-1.87-0.04c-0.75,0.34-1.42,0.86-2.16,1.23
				c-1.47,0.74-3.11,1.2-4.76,1.03c-0.81-0.09-1.65-0.32-2.34-0.76c-0.17-0.11-0.24-0.24-0.13-0.43c0.04-0.08,0.09-0.15,0.14-0.22
				c0.12-0.19,0.26-0.37,0.4-0.54c0.25-0.3,0.54-0.58,0.83-0.85c1.26-1.12,2.67-2.1,4.08-3.02c1.63-1.06,3.32-2.02,5.07-2.87
				C83.09,100.65,82.99,100.47,82.87,100.53L82.87,100.53z"/>
		</g>
		<g>
			<path d="M64.16,121.94c3.75,0.11,7.51-0.46,11.05-1.69c1-0.35,1.97-0.74,2.93-1.19c0.12-0.06,0.02-0.24-0.11-0.18
				c-3.37,1.57-7.03,2.52-10.74,2.78c-1.04,0.07-2.09,0.09-3.13,0.06C64.03,121.72,64.03,121.93,64.16,121.94L64.16,121.94z"/>
		</g>
		<g>
			<path d="M73.84,121.91c1.1-0.3,2.2-0.6,3.3-0.9c0.13-0.04,0.07-0.24-0.06-0.2c-1.1,0.3-2.2,0.6-3.3,0.9
				C73.65,121.75,73.71,121.95,73.84,121.91L73.84,121.91z"/>
		</g>
		<g>
			<path d="M110.43,98.1c0.63,0.4,1.34,0.83,2.11,0.76c0.73-0.07,1.36-0.58,2.06-0.79c1.58-0.49,3.28-0.26,4.88-0.03
				c0.13,0.02,0.19-0.18,0.06-0.2c-1.5-0.21-3.06-0.43-4.57-0.09c-0.36,0.08-0.71,0.2-1.04,0.34c-0.36,0.16-0.7,0.38-1.08,0.49
				c-0.84,0.25-1.63-0.23-2.31-0.67C110.42,97.85,110.32,98.03,110.43,98.1L110.43,98.1z"/>
		</g>
		<g>
			<path d="M89.24,17.27c0.21,1.02,0.87,1.93,1.79,2.44c0.12,0.07,0.22-0.11,0.11-0.18c-0.87-0.48-1.49-1.34-1.69-2.31
				C89.41,17.09,89.21,17.14,89.24,17.27L89.24,17.27z"/>
		</g>
		<g>
			<path d="M52.74,18.35c-0.24,1.12-0.8,2.14-1.61,2.96c-0.09,0.1,0.05,0.24,0.15,0.15c0.83-0.84,1.41-1.9,1.66-3.05
				C52.97,18.28,52.77,18.22,52.74,18.35L52.74,18.35z"/>
		</g>
		<g>
			<path d="M45.72,12.77c-0.36,0.25-0.37,0.72-0.34,1.12c0.05,0.55,0.09,1.09,0.11,1.65c0.03,0.83-0.06,2.06,0.87,2.46
				c0.46,0.19,0.94,0.06,1.38-0.11c0.36-0.14,0.71-0.3,0.86-0.68c0.18-0.45,0.09-1.02,0.07-1.5c-0.03-0.58-0.08-1.15-0.15-1.72
				c-0.09-0.71-0.11-1.88-0.95-2.14c-0.26-0.08-0.37,0.32-0.11,0.4c0.51,0.16,0.53,0.95,0.6,1.39c0.13,0.89,0.2,1.78,0.22,2.68
				c0.01,0.36,0.05,0.78-0.3,1.01c-0.31,0.19-0.78,0.36-1.14,0.35c-0.91-0.03-0.88-1.14-0.91-1.79c-0.02-0.47-0.02-0.95-0.06-1.42
				c-0.02-0.24-0.06-0.47-0.07-0.71c-0.01-0.18-0.03-0.5,0.14-0.62C46.15,12.98,45.94,12.62,45.72,12.77L45.72,12.77z"/>
		</g>
		<g>
			<path d="M57.42,9.89c0.5,0.04,0.67,0.6,0.79,1.01c0.13,0.48,0.21,0.96,0.25,1.46c0.04,0.48,0.06,0.96,0.08,1.44
				c0.01,0.43,0.01,0.92-0.3,1.26c-0.42,0.45-1.31,0.62-1.77,0.15c-0.31-0.32-0.35-0.83-0.41-1.24c-0.08-0.52-0.15-1.04-0.19-1.56
				c-0.04-0.42-0.11-0.89-0.04-1.31c0.04-0.2,0.12-0.37,0.27-0.52c0.14-0.15,0.17-0.33,0.24-0.52c0.09-0.25-0.31-0.36-0.4-0.11
				c-0.03,0.09-0.05,0.22-0.1,0.3c-0.04,0.07-0.12,0.12-0.16,0.18c-0.14,0.18-0.22,0.4-0.25,0.62c-0.07,0.46,0,0.95,0.04,1.41
				c0.05,0.61,0.13,1.22,0.23,1.82c0.08,0.49,0.19,1,0.6,1.33c0.6,0.48,1.54,0.33,2.11-0.14c0.4-0.33,0.53-0.81,0.55-1.31
				c0.02-0.6-0.02-1.22-0.08-1.81c-0.05-0.63-0.15-1.26-0.35-1.86c-0.18-0.52-0.52-0.97-1.1-1.02C57.15,9.45,57.15,9.86,57.42,9.89
				L57.42,9.89z"/>
		</g>
		<g>
			<path d="M78.03,8.35c-0.1,0.94-0.13,1.89-0.08,2.84c0.04,0.88,0.01,1.92,0.58,2.64c0.55,0.7,1.39,0.67,2.11,0.25
				c0.77-0.44,0.93-1.3,0.98-2.13c0.06-1.16-0.06-2.35-0.29-3.49c-0.05-0.26-0.46-0.15-0.4,0.11c0.18,0.88,0.27,1.78,0.29,2.68
				c0.01,0.7,0.06,1.73-0.49,2.25c-0.28,0.27-0.72,0.47-1.1,0.47c-0.36,0-0.65-0.22-0.84-0.5c-0.24-0.36-0.31-0.78-0.34-1.2
				c-0.04-0.41-0.06-0.82-0.08-1.22c-0.04-0.9-0.01-1.8,0.08-2.7C78.47,8.08,78.06,8.08,78.03,8.35L78.03,8.35z"/>
		</g>
		<g>
			<path d="M102.12,9.56c-0.5,0.68-0.4,1.54-0.44,2.34c-0.03,0.49-0.08,0.97-0.08,1.46c0,0.39,0.04,0.81,0.28,1.14
				c0.37,0.51,1.13,0.75,1.67,0.37c0.31-0.22,0.47-0.58,0.57-0.94c0.13-0.45,0.22-0.91,0.32-1.36c0.11-0.48,0.2-0.96,0.23-1.45
				c0.03-0.43-0.01-0.86-0.32-1.19c-0.18-0.2-0.48,0.1-0.29,0.29c0.3,0.31,0.22,0.82,0.17,1.21c-0.06,0.47-0.16,0.92-0.27,1.38
				c-0.14,0.62-0.28,2.08-1.25,1.79c-0.94-0.28-0.7-1.53-0.65-2.27c0.03-0.47,0.05-0.94,0.06-1.4c0.01-0.43,0.1-0.81,0.35-1.16
				C102.64,9.55,102.28,9.34,102.12,9.56L102.12,9.56z"/>
		</g>
		<g>
			<path d="M60.91,10.23c0.04,1.58,0.2,3.16,0.48,4.72c0.05,0.28,0.11,0.58,0.35,0.76c0.23,0.17,0.52,0.18,0.8,0.19
				c0.8,0.02,1.6-0.04,2.39-0.15c0.26-0.04,0.15-0.44-0.11-0.4c-0.69,0.1-1.38,0.15-2.08,0.14c-0.27,0-0.68,0.05-0.84-0.22
				c-0.15-0.25-0.15-0.65-0.19-0.93c-0.22-1.36-0.34-2.73-0.38-4.1C61.32,9.96,60.9,9.96,60.91,10.23L60.91,10.23z"/>
		</g>
		<g>
			<path d="M63.69,14.6c-0.38,0-0.74-0.21-1.02-0.6c-0.27-0.38-0.42-0.88-0.44-1.42c-0.04-1.17,0.55-2.1,1.35-2.13
				c0.39-0.02,0.77,0.2,1.06,0.6c0.27,0.38,0.42,0.88,0.44,1.42c0.02,0.54-0.1,1.06-0.34,1.45c-0.25,0.42-0.61,0.67-1.01,0.68
				C63.72,14.6,63.7,14.6,63.69,14.6z M63.61,10.86c-0.01,0-0.01,0-0.02,0c-0.55,0.02-0.98,0.8-0.94,1.7
				c0.02,0.46,0.15,0.89,0.37,1.2c0.2,0.29,0.45,0.44,0.7,0.43c0.25-0.01,0.49-0.18,0.67-0.48c0.2-0.33,0.29-0.76,0.28-1.22l0,0
				c-0.02-0.46-0.15-0.89-0.37-1.2C64.1,11.01,63.86,10.86,63.61,10.86z"/>
		</g>
	</g>
</g>
</svg>
