<?xml version="1.0" encoding="utf-8"?>
<!-- Generator: Adobe Illustrator 28.0.0, SVG Export Plug-In . SVG Version: 6.00 Build 0)  -->
<svg version="1.1" id="Layer_1" xmlns="http://www.w3.org/2000/svg" xmlns:xlink="http://www.w3.org/1999/xlink" x="0px" y="0px"
	 viewBox="0 0 150 150" style="enable-background:new 0 0 150 150;" xml:space="preserve">
<style type="text/css">
	.st0{stroke:#000000;stroke-width:2;stroke-linecap:round;stroke-linejoin:round;stroke-miterlimit:10;}
	.st1{fill:#FFFFFF;}
	.st2{fill:#FF1F1F;}
	.st3{fill:#E0D7D7;}
	.st4{fill:#13254C;}
	.st5{fill:url(#SVGID_1_);}
	.st6{fill:url(#SVGID_00000005253614301698014950000010296734570518249354_);}
	.st7{fill:url(#SVGID_00000127729093488436052780000006248251202582761402_);}
	.st8{fill:url(#SVGID_00000088815348026872627280000005254492379872870575_);}
	.st9{fill:url(#SVGID_00000048500867438008806140000005581721898263926402_);}
	.st10{fill:url(#SVGID_00000127022320083337952430000004832893865291899045_);}
	.st11{fill:url(#SVGID_00000124840563252457530850000016315948556564917164_);}
	.st12{fill:url(#SVGID_00000023251286645114501120000003550759426756389287_);}
	.st13{fill:#F7F7F7;}
	.st14{fill:#EF5B5B;}
	.st15{fill:#FC4F4F;}
	.st16{fill:#E5CC17;}
	.st17{fill:url(#SVGID_00000142157102972081719220000014640677242602398637_);}
	.st18{fill:url(#SVGID_00000103960684519337957130000003718606667983101072_);}
	.st19{fill:#FAFF3B;}
</style>
<g id="Presidential_Flag">
	<g>
		<path class="st0" d="M142.99,56.48c-5.5-1.89-10.66-4.64-15.54-7.77c-2.38-1.53-4.74-3.11-6.94-4.88
			c-2.05-1.65-4.05-3.42-6.36-4.68c-1.21-0.66-2.47-1.23-3.67-1.93c-1.24-0.72-2.44-1.51-3.57-2.39c-2.19-1.7-4.09-3.77-6.48-5.2
			c-2.4-1.44-5.12-2.32-7.76-3.22c-2.65-0.91-5.31-1.76-8-2.53c-5.37-1.54-10.83-2.78-16.37-3.56c-1.39-0.2-2.8-0.31-4.17-0.59
			c-1.28-0.27-2.53-0.66-3.78-1.05s-2.51-0.77-3.8-1c-0.5-0.09-0.97-0.14-1.41-0.28c0.02-0.06,0.04-0.12,0.07-0.19
			c0.73,0.12,1.32-0.37,1.67-1c0.06-0.11,0.11-0.22,0.15-0.33c0.11-0.28,0.14-0.57,0.12-0.84c0.71-0.39,1.19-0.87,1.59-1.6
			c1.21-2.21,0.34-5.04-1.95-6.29s-5.14-0.47-6.35,1.74c-0.74,1.35-0.73,2.97,0.02,4.35c0,0.01-0.01,0.01-0.01,0.02
			c-0.38,0.65-0.5,1.23-0.35,1.73c0.13,0.41,0.42,0.7,0.66,0.93c-0.04,0.11-0.08,0.22-0.12,0.33c-0.02,0.05-0.03,0.09-0.05,0.14
			c-0.16,0.06-0.33,0.12-0.47,0.22c-0.47,0.33-0.54,1-0.7,1.5c-0.21,0.64-0.51,1.24-0.71,1.88c-0.42,1.31-0.97,2.6-1.45,3.89
			c-0.48,1.3-0.96,2.6-1.44,3.9c-0.46,1.25-0.94,2.47-1.4,3.72c-0.47,1.27-1.3,2.37-1.75,3.64c-0.22,0.62-0.3,1.28-0.46,1.92
			c-0.16,0.69-0.36,1.36-0.58,2.03c-0.44,1.34-0.95,2.66-1.45,3.98c-0.51,1.33-1,2.66-1.48,4c-0.5,1.41-0.94,2.83-1.55,4.2
			c-0.29,0.65-0.62,1.29-0.98,1.9c-0.32,0.53-0.66,1.05-0.85,1.64c-0.2,0.62-0.22,1.28-0.36,1.91c-0.14,0.66-0.35,1.29-0.58,1.93
			c-1.88,5.34-3.9,10.63-5.85,15.94c-0.29,0.79-1.03,2.01-0.29,2.69c0.04,0.04,0.07,0.08,0.12,0.11c0.01,0.01,0.01,0.01,0.02,0.02
			h0.01c-0.77,2.17-1.53,4.34-2.29,6.52c-0.4,1.15-0.82,2.29-1.23,3.44c0,0,0,0,0,0.01s0,0.01,0,0.02
			c-0.92,2.57-1.85,5.14-2.78,7.71c-2.02,5.6-4.04,11.19-6.07,16.79c-2.02,5.59-4.04,11.19-6.06,16.78
			c-0.97,2.67-1.93,5.34-2.9,8.02c-0.22,0.61-0.44,1.22-0.68,1.83c-0.22,0.56-0.23,1,0.09,1.52c0.6,0.98,1.81,1.45,2.92,1.27
			c0.59-0.1,0.92-0.43,1.18-0.95c0.01-0.02,0.01-0.04,0.01-0.06c0.01-0.01,0.01-0.02,0.02-0.03c0.21-0.57,0.41-1.14,0.62-1.71
			c0.56-1.54,1.12-3.08,1.68-4.63c0.83-2.29,1.66-4.58,2.49-6.86c1.01-2.78,2.02-5.56,3.02-8.34c1.1-3.05,2.21-6.09,3.31-9.14
			c1.11-3.07,2.23-6.15,3.34-9.22c1.04-2.88,2.08-5.75,3.13-8.63c0.88-2.42,1.76-4.84,2.63-7.27c0.63-1.75,1.27-3.49,1.9-5.24
			c0.13-0.36,0.27-0.72,0.4-1.08c0.41-0.03,0.78-0.09,1.11-0.37c0.09-0.08,0.22-0.17,0.28-0.27c0.11-0.19,0.02-0.12,0.13-0.12
			c0.32,0.01,0.68,0.07,1.02,0.08c0.75,0.02,1.53-0.01,2.27,0.11c0.41,0.07,0.82,0.14,1.23,0.2c1.53,0.24,3.06,0.45,4.6,0.62
			c2.5,0.28,5.01,0.47,7.51,0.8c2.36,0.31,4.7,0.77,6.97,1.51c2.96,0.96,5.78,2.31,8.51,3.81c4.17,2.3,8.15,4.95,12.06,7.68
			c2.71,1.89,5.38,3.84,8.04,5.82c2.9,2.16,5.73,4.45,8.75,6.46c3,1.99,6.23,3.58,9.8,4.23c1.74,0.32,3.51,0.47,5.26,0.73
			c1.75,0.27,3.45,0.71,5.12,1.3c1.72,0.61,3.41,1.31,5.15,1.87c0.78,0.25,1.61,0.55,2.43,0.6c0.71,0.04,1.31-0.26,1.84-0.71
			c2.58-2.22,3.1-6.04,3.42-9.21c0.35-3.37,0.42-6.76,0.71-10.13c0.3-3.55,0.92-7.02,2.16-10.37c1.3-3.51,3-6.88,4.57-10.28
			c1.6-3.45,3.19-6.89,4.79-10.34c0.79-1.71,1.58-3.41,2.37-5.12C143.32,56.76,143.21,56.55,142.99,56.48z"/>
		<g>
			<path class="st1" d="M50.23,17.22l-0.01,0.01c-0.2,0.29-0.29,0.64-0.38,0.99c-0.71,2.54-1.97,4.89-2.86,7.38
				c-0.65,1.82-1.11,3.72-1.91,5.48c-0.74,1.62-1.77,3.08-2.15,4.85c-0.09,0.44-0.14,0.88-0.24,1.32c-0.12,0.54-0.31,1.05-0.51,1.57
				c-1.03,2.75-2.05,5.49-3.08,8.24c-0.35,0.93-0.69,1.86-0.98,2.81c-0.16,0.53-0.31,1.07-0.53,1.57c-0.34,0.78-0.92,1.52-1.34,2.27
				c-0.1,0.17-0.19,0.34-0.27,0.52c-0.42,0.94-0.52,2.02-0.86,3c-0.4,1.16-0.63,2.37-1.03,3.53c-0.2,0.58-0.4,1.16-0.6,1.74
				c-1.37,3.94-2.86,7.85-4.48,11.7c-0.24,0.58-1.22,2.38-0.54,2.92c0.07,0.05,0.15,0.08,0.23,0.11c0.02,0.01,0.04,0.01,0.06,0.01
				c0.03-0.01,0.04-0.03,0.06-0.05c0.15-0.29,0.1-0.49,0.38-0.72c0.23-0.19,0.51-0.29,0.78-0.39c0.65-0.24,1.35-0.46,2.03-0.32
				c0.34,0.07,0.65,0.22,0.94,0.39c0.2,0.12,0.42,0.27,0.44,0.5c0.04,0.41-0.56,0.69-0.48,1.09c0.21,0.14,0.5,0.1,0.74,0
				s0.45-0.25,0.68-0.34c0.35-0.13,0.73-0.13,1.1-0.12c0.76,0.02,1.52,0.04,2.28,0.09c1.46,0.09,2.91,0.33,4.36,0.5
				c1.51,0.18,3.02,0.37,4.53,0.55c2.99,0.36,5.99,0.46,8.92,1.22c0.49,0.13,0.97,0.27,1.46,0.41c2.44,0.7,4.74,1.62,7.01,2.77
				c0.8,0.4,1.59,0.82,2.36,1.26c0.3,0.17,0.54,0.38,0.86,0.53c0.42,0.2,0.84,0.39,1.26,0.59c0.51,0.24,1.01,0.47,1.48,0.77
				c0.49,0.31,0.93,0.69,1.41,1.01c0.57,0.37,1.19,0.65,1.8,0.96c3.31,1.72,6.04,4.41,9.13,6.46c1.34,0.89,2.68,1.79,3.99,2.72
				c2.63,1.87,5.24,3.79,7.78,5.78c2.28,1.79,4.82,3.45,7.55,4.47c1.34,0.5,2.74,0.82,4.14,1.09c0.7,0.13,1.4,0.28,2.1,0.38
				c0.6,0.08,1.22,0.05,1.83,0.11c1.96,0.19,3.86,0.75,5.71,1.41c2.22,0.79,4.5,1.78,6.78,2.28c0.19,0.04,0.38,0.08,0.57,0.11
				c3.31,0.38,4.56-3.83,5.02-6.31c0.77-4.18,0.84-8.46,1.16-12.7s0.91-8.54,2.67-12.41c0.29-0.63,0.66-1.15,0.99-1.74
				c0.41-0.73,0.7-1.57,1.05-2.33c0.89-1.63,1.6-3.47,2.31-5.19c0.89-2.15,1.96-4.22,2.98-6.31c1.28-2.6,2.5-5.23,3.66-7.89
				c0.1-0.22,0.19-0.47,0.09-0.69c-0.07-0.16-0.24-0.26-0.39-0.35c-1.44-0.83-3.1-1.22-4.6-1.98c-2.71-1.38-5.45-2.68-8.05-4.27
				c-2.75-1.67-5.38-3.53-8-5.39c-0.79-0.56-1.59-1.13-2.35-1.74c-1.68-1.34-3.22-2.91-5.15-3.89c-1.62-0.82-3.31-1.49-4.88-2.45
				c-1.66-1.01-3.21-2.22-4.6-3.59c-0.27-0.26-0.53-0.53-0.8-0.78c-0.68-0.63-1.44-1.17-2.2-1.7c-0.92-0.65-1.87-1.55-2.95-1.88
				c-0.31-0.09-0.61-0.21-0.91-0.33c-1.71-0.71-3.33-1.47-5.13-1.97c-0.9-0.25-1.81-0.49-2.71-0.74c-0.74-0.2-1.39-0.5-2.11-0.75
				c-1.05-0.36-2.11-0.71-3.17-1.05c-2.94-0.94-5.91-1.78-8.94-2.35c-3.02-0.57-6.08-0.79-9.1-1.31c-2.59-0.44-5.05-1.28-7.6-1.87
				c-0.83-0.19-1.68-0.36-2.5-0.61c-0.59-0.18-1.25-0.14-1.81-0.4c-0.28-0.13-0.52-0.33-0.78-0.49c-0.66-0.4-1.44-0.52-2.21-0.55
				C51.22,16.67,50.57,16.74,50.23,17.22z"/>
			<path class="st2" d="M129.64,74.33c-1.66-0.36-3.03-1.34-4.61-1.9c-1.46-0.52-3.01-0.63-4.51-0.95
				c-1.65-0.35-3.19-1.04-4.65-1.87c-2.9-1.66-5.58-3.74-8.33-5.64c-2.9-1.99-5.78-4-8.68-5.99c-1.67-1.15-3.26-2.3-4.84-3.55
				c-1.65-1.31-3.49-2.37-5.44-3.16c-0.11-0.04-0.22-0.09-0.34-0.09c-0.13,0-0.25,0.04-0.37,0.09c-0.74,0.32-1.31,0.96-1.69,1.67
				s-0.6,1.5-0.79,2.28c-0.03,0.11-0.05,0.23-0.02,0.33c0.03,0.1,0.12,0.17,0.19,0.24c0.64,0.55,1.38,1.06,2.18,1.34
				c0.28,0.1,0.53,0.23,0.79,0.36c0.31,0.15,0.61,0.32,0.9,0.5c0.63,0.38,1.25,0.76,1.82,1.23c0.37,0.3,0.67,0.68,1,1.03
				c0.82,0.87,1.83,1.46,2.79,2.14c2.79,1.96,5.61,3.9,8.44,5.8c1.45,0.97,2.92,1.91,4.39,2.85c1.36,0.87,2.74,1.69,4.26,2.27
				c0.78,0.3,1.57,0.56,2.31,0.96c0.73,0.39,1.39,0.91,2.14,1.3c1.43,0.74,3.06,0.99,4.61,1.37c1.96,0.49,3.92,1,5.87,1.56
				c0.99,0.29,1.99,0.58,2.97,0.89c0.49,0.16,0.98,0.32,1.48,0.48c0.41,0.14,0.71,0.4,0.94-0.09c0.63-1.34,1.2-2.69,1.73-4.07
				c0.02-0.04-1.9-0.79-2.04-0.83C131.31,74.64,130.47,74.51,129.64,74.33z"/>
			<path class="st2" d="M97.6,28.85c-1.09-0.45-2.14-0.95-3.29-1.27c-0.12-0.03-0.25-0.06-0.35-0.01c-0.07,0.04-0.12,0.11-0.16,0.19
				c-0.25,0.44-0.31,0.95-0.37,1.45c-0.13,1.05-0.24,2.1-0.33,3.15c-0.01,0.13-0.02,0.27,0.02,0.4c0.09,0.24,0.37,0.35,0.61,0.43
				c1.29,0.44,2.55,0.94,3.8,1.49c1.11,0.49,2.12,0.88,2.98,1.76c1.17,1.18,2.29,2.35,3.61,3.36c2.72,2.09,5.85,3.62,8.82,5.31
				c1.5,0.85,2.97,1.75,4.39,2.73c1.43,1,2.81,2.06,4.24,3.05c2.81,1.95,5.73,3.74,8.78,5.3c3.41,1.76,6.95,3.21,10.59,4.43
				c0.3,0.1,0.49-0.17,0.46-0.42c0.11-0.05,0.2-0.14,0.25-0.28c0.33-0.92,0.69-1.8,1.19-2.64c0.13-0.23-0.02-0.46-0.24-0.54
				c-2.36-0.86-4.68-1.86-6.94-2.96c-1.08-0.53-2.14-1.09-3.21-1.63c-0.91-0.46-1.85-1.11-2.83-1.46c-1.33-0.98-2.82-1.74-4.19-2.67
				c-1.48-1.01-2.92-2.07-4.33-3.17c-1.32-1.03-2.63-2.1-3.98-3.09c-1.37-1-2.84-2.14-4.42-2.79c-0.01-0.01-0.02-0.02-0.03-0.02
				c-2.81-1.48-5.34-3.44-7.79-5.44c-1.16-0.95-2.3-1.92-3.5-2.81c-1.05-0.78-2.12-1.18-3.3-1.65
				C97.92,28.97,97.76,28.91,97.6,28.85z"/>
			<path class="st2" d="M95.16,37.11c-1.01-0.55-2.02-1.1-3.11-1.45c-0.04,0.5-0.25,0.98-0.42,1.45c-0.56,1.57-0.73,3.28-0.48,4.92
				c0.01,0.08,0.03,0.16,0.09,0.21c0.05,0.04,0.12,0.06,0.19,0.06c2.4,0.31,4.77,1.08,6.78,2.41c1.26,0.84,2.43,1.8,3.58,2.78
				c2.53,2.17,5.02,4.29,7.85,6.08c2.91,1.83,5.98,3.41,8.81,5.39c1.33,0.93,2.56,1.97,3.87,2.92c1.38,0.99,2.85,1.75,4.42,2.37
				c3.54,1.39,7.16,2.63,10.85,3.54c0.06,0.01,0.13,0.03,0.18,0c0.04-0.02,0.07-0.07,0.09-0.11c0.45-0.86,0.89-1.73,1.31-2.61
				c0.17-0.35,1.22-2.01,0.69-2.24c-1.52-0.68-3.19-1.09-4.77-1.62c-1.66-0.57-3.3-1.18-4.9-1.91c-1.55-0.71-3.07-1.52-4.48-2.47
				c-1.42-0.96-2.71-2.1-4.09-3.12c-1.34-1-2.79-1.79-4.24-2.62c-1.49-0.85-2.93-1.76-4.39-2.67c-2.9-1.81-5.82-3.58-8.69-5.43
				c-1.53-0.99-2.83-2.27-4.35-3.28c-1.36-0.89-2.85-1.54-4.27-2.32C95.49,37.3,95.32,37.2,95.16,37.11z"/>
			<path class="st2" d="M126.81,66.95c-1.51-0.65-2.95-1.43-4.31-2.36c-1.41-0.96-2.74-2.02-4.19-2.92
				c-2.85-1.77-5.95-3.11-8.8-4.88c-2.83-1.75-5.45-3.81-8.13-5.78c-3.03-2.23-6.11-4.18-9.41-5.97c-0.11-0.06-0.23-0.12-0.36-0.14
				c-0.41-0.04-0.67,0.43-0.81,0.82c-0.46,1.31-0.82,2.67-1.07,4.04c-0.02,0.11-0.04,0.22,0.02,0.32s0.19,0.14,0.3,0.17
				c1.67,0.47,3.07,1.36,4.52,2.28c1.47,0.93,2.94,1.88,4.4,2.83c2.93,1.89,5.83,3.82,8.72,5.78c2.92,1.99,5.81,4.01,8.66,6.1
				c1.28,0.95,2.56,1.79,4.12,2.2c1.55,0.4,3.16,0.54,4.7,1.01c1.72,0.52,3.35,1.25,5.01,1.93c0.84,0.34,1.68,0.67,2.54,0.95
				c0.43,0.14,0.86,0.27,1.3,0.38c0.27,0.07,0.94,0.36,1.15,0.08c0.06-0.08,0.08-0.18,0.11-0.27c0.2-0.72,0.63-1.32,0.97-1.97
				c0.22-0.42,0.44-0.85,0.55-1.31c0.03-0.1,0.04-0.22-0.02-0.31c-0.07-0.09-0.2-0.11-0.31-0.12c-1.61-0.11-3.28-0.69-4.83-1.14
				C129.99,68.19,128.37,67.63,126.81,66.95z"/>
			<path class="st3" d="M10.57,139.12c0.19-0.49,0.38-0.98,0.56-1.48c0.36-1,0.63-2.07,1.04-3.06c0.16-0.38,0.33-0.7,0.44-1.11
				c0.17-0.62,0.28-1.18,0.56-1.76c0.35-0.72,0.62-1.47,0.89-2.23c0.76-2.11,1.47-4.23,2.14-6.37c0.3-0.95,0.75-1.84,1.1-2.78
				c0.4-1.07,0.8-2.14,1.2-3.21c1.6-4.28,3.19-8.57,4.78-12.86c0.35-0.94,0.7-1.89,1.05-2.83c0.35-0.95,0.76-1.9,0.97-2.89
				c0.1-0.48,0.4-0.94,0.58-1.39c0.21-0.51,0.41-1.03,0.59-1.55c0.28-0.79,0.52-1.59,0.74-2.39c0.24-0.87,0.63-1.71,0.94-2.56
				c1.52-4.19,2.97-8.39,4.55-12.56c0.11-0.28,0.2-0.57,0.29-0.85c0.08-0.23,0.25-0.47,0.22-0.73c-0.02-0.14-0.11-0.26-0.21-0.36
				c-0.33-0.34-0.8-0.51-1.27-0.54c-0.47-0.03-0.94,0.06-1.39,0.2c-0.36,0.11-0.72,0.26-1,0.52c-0.15,0.14-0.27,0.3-0.38,0.48
				c-0.53,0.88-0.81,2.01-1.16,2.97c-0.39,1.06-0.77,2.13-1.15,3.2c-0.74,2.12-1.48,4.24-2.25,6.35c-0.52,1.41-1.11,2.8-1.66,4.2
				c-0.08,0.21-0.16,0.42-0.24,0.63c-0.81,2.09-1.53,4.21-2.18,6.35c-0.16,0.54-0.32,1.07-0.47,1.61c-0.12,0.44-0.36,0.81-0.53,1.24
				c-0.41,1.06-0.8,2.14-1.19,3.21c-0.51,1.4-1.01,2.79-1.52,4.19c-1.56,4.3-3.12,8.59-4.67,12.89c-1.53,4.22-2.99,8.46-4.56,12.66
				c-0.19,0.5-0.34,1.02-0.57,1.5c-0.2,0.43-0.34,0.88-0.31,1.37c0.03,0.47,0.24,0.93,0.6,1.22c0.18,0.14,0.38,0.23,0.59,0.31
				c0.63,0.22,1.32,0.27,1.98,0.15c0.04-0.01,0.08-0.02,0.11-0.04c0.03-0.02,0.05-0.05,0.07-0.09
				C10.2,140.21,10.3,139.62,10.57,139.12z"/>
			<path class="st3" d="M53.33,14.23c-0.4-0.13-0.82-0.24-1.22-0.14c-0.06,0.02-0.13,0.04-0.18,0.07c-0.16,0.1-0.23,0.3-0.28,0.48
				c-0.2,0.63-0.4,1.26-0.59,1.9c0.12,0.1,0.3,0.03,0.45-0.03c0.26-0.1,0.53-0.1,0.79-0.04c0.26,0.06,0.62,0.06,0.86,0.18
				c0.14,0.07,0.28,0.13,0.43,0.19c0.02,0.01,0.05,0.02,0.07,0.03c0.27,0.16,0.52,0.36,0.75,0.55c0.21,0.17,0.4-0.03,0.4-0.25
				c0-0.28,0.12-0.4,0.3-0.62c0.16-0.19,0.27-0.42,0.33-0.66c0.06-0.22,0.06-0.46-0.03-0.67c-0.08-0.18-0.24-0.31-0.41-0.42
				c-0.41-0.25-0.89-0.33-1.34-0.46C53.55,14.3,53.44,14.26,53.33,14.23z"/>
			<path class="st2" d="M36.94,77.27c0.88,0.02,1.77,0.08,2.65,0.18c1.89,0.2,3.77,0.45,5.66,0.68s3.76,0.55,5.64,0.78
				c0.94,0.11,1.89,0.22,2.83,0.36c0.52,0.07,1.03,0.15,1.55,0.19c0.37,0.29,0.94,0.33,1.39,0.44c0.69,0.17,1.38,0.34,2.06,0.53
				c1.39,0.38,2.75,0.92,4.06,1.51c1.26,0.56,2.5,1.19,3.68,1.91c1.24,0.76,2.4,1.65,3.68,2.33c0.19,0.1,0.37,0.07,0.52-0.02
				c0.89,0.67,1.88,1.23,2.77,1.9c1.07,0.8,2.23,1.5,3.35,2.24c1.11,0.73,2.23,1.45,3.32,2.21c0.97,0.68,1.92,1.51,2.99,2.04
				c0,0.01,0.01,0.01,0.01,0.02c1.16,1.16,2.57,2.12,3.88,3.11c1.26,0.97,2.54,1.92,3.83,2.85c1.32,0.95,2.65,1.87,4,2.77
				c0.69,0.46,1.39,0.9,2.08,1.37c0.65,0.44,1.25,1.03,2,1.29c0.06,0.02,0.12,0.03,0.17,0.02c1.03,0.66,2.26,1.09,3.38,1.5
				c1.44,0.53,2.91,0.93,4.43,1.15c2.9,0.42,5.89,0.41,8.62,1.57c0.09,0.04,0.17,0.05,0.25,0.04c1.01,0.52,2.17,0.83,3.23,1.18
				c1.21,0.4,2.43,0.85,3.67,1.17c2.3,0.59,3.95-1.91,4.58-3.77c0.02-0.07,0.03-0.13,0.03-0.19c0.65-0.15,0.57-1.27-0.16-1.2
				c-3.96,0.36-7.69-1.7-11.28-3.06c-1.86-0.71-3.75-1.27-5.74-1.45c-1.13-0.1-2.27-0.1-3.39-0.27c-1.08-0.17-2.15-0.43-3.19-0.78
				c-1.17-0.39-2.33-0.84-3.46-1.31c-0.02-0.01-0.05-0.02-0.07-0.03c-1.33-0.67-2.6-1.44-3.84-2.34c-2.02-1.47-3.88-3.16-5.8-4.76
				c-3.87-3.23-7.9-6.26-12.05-9.11c-4.1-2.81-8.33-5.59-12.82-7.74c-4.29-2.05-8.84-3.28-13.58-3.7c-2.65-0.23-5.32-0.28-7.98-0.28
				c-1.43,0-2.85-0.01-4.28,0.04c-0.72,0.02-1.44,0.06-2.16,0.12c-0.37,0.03-0.74,0.07-1.11,0.11c-0.45,0.05-0.45,0.13-0.6,0.56
				c-0.19,0.55-0.38,1.09-0.57,1.64c-0.1,0.29-0.2,0.58-0.3,0.88c-0.08,0.23-0.27,0.56-0.28,0.8
				C34.56,77.66,36.45,77.26,36.94,77.27z"/>
			<path class="st2" d="M128.47,94.41c-0.09-0.01-0.18-0.01-0.27-0.01c-0.06,0-0.11,0-0.17,0c-0.5-0.01-1,0.03-1.5,0.02
				c-0.51-0.01-1.01-0.05-1.51-0.11c-1.01-0.12-2-0.33-2.98-0.57c-2.06-0.49-4.12-0.99-6.12-1.7c-1.88-0.67-3.67-1.7-5.63-2.07
				c-0.95-0.18-1.92-0.19-2.88-0.26c-0.07,0-0.13-0.01-0.2-0.02c-0.01-0.02-0.02-0.04-0.02-0.06c-0.85-0.11-1.58-0.54-2.25-1.07
				c-1.32-1.02-2.57-2.04-4.01-2.9c-1.52-0.91-3.11-1.71-4.65-2.58c-1.46-0.82-2.87-1.72-4.24-2.68
				c-5.49-3.83-10.32-8.53-16.09-11.97c-5.19-3.09-10.83-5.48-16.66-6.97c-1.9-0.49-3.83-0.89-5.76-1.2
				c-2.62-0.42-5.28-0.68-7.94-0.71c-1.31-0.02-2.63,0.02-3.94,0.11c-0.47,0.03-0.95,0.04-1.42,0.09c-0.26,0.03-0.36,0-0.48,0.22
				c-0.12,0.21-0.17,0.5-0.25,0.73c-0.74,2.15-1.47,4.31-2.21,6.46c-0.23,0.68,1.06,0.29,1.39,0.25c2.71-0.31,5.45-0.48,8.18-0.4
				c3.15,0.09,6.29,0.45,9.41,1.07c6.38,1.26,12.58,3.57,18.21,6.93c6.21,3.72,11.77,8.37,17.38,12.88
				c2.74,2.21,5.52,4.45,8.43,6.44c1.35,0.92,2.81,1.75,4.4,2.15c1.62,0.41,3.28,0.3,4.91,0.48c1.74,0.19,3.43,0.71,5.07,1.31
				c1.68,0.62,3.31,1.35,4.98,1.99c1.63,0.62,3.31,1.17,5.05,1.4c0.54,0.07,1.09,0.11,1.64,0.12c0.55,0,1.1-0.06,1.65-0.05
				c0.11,0,0.21,0,0.31-0.03c0.35-0.13,0.34-0.74,0.38-1.05c0.04-0.26,0.03-0.53,0.04-0.8c0.02-0.54,0.03-1.08,0.05-1.62
				c0.03-1.15,0.06-2.31,0.07-3.46c0-0.12-0.03-0.25-0.14-0.32C128.63,94.42,128.55,94.42,128.47,94.41z"/>
			<path class="st4" d="M94.24,28.45c0-0.02,0.01-0.03,0.01-0.05c0.06-0.28,0.11-0.58,0.03-0.85c-0.17-0.52-1.02-0.52-1.47-0.67
				c-0.64-0.22-1.28-0.43-1.92-0.64c-1.32-0.43-2.65-0.84-3.98-1.23c-1.3-0.38-2.6-0.75-3.9-1.1c-1.33-0.36-2.69-0.78-4.05-0.98
				c-0.07-0.01-0.14,0-0.2,0.01c-0.35-0.09-0.7-0.18-1.06-0.27c0,0.01,0,0.01,0,0.02c-0.02,0-0.04,0-0.05,0
				c-0.78-0.36-1.67-0.52-2.5-0.71c-0.92-0.2-1.84-0.38-2.76-0.56c-1.87-0.37-3.75-0.55-5.63-0.78c-1.86-0.22-3.58-0.75-5.36-1.29
				c-0.92-0.28-1.84-0.54-2.77-0.79c-0.75-0.2-1.49-0.45-2.27-0.55c-0.17-0.02-0.41,0.01-0.57-0.05c-0.13-0.05-0.08-0.15-0.26-0.14
				c-0.25,0.01-0.47,0.34-0.57,0.54c-0.47,0.9-0.75,1.89-1.06,2.85c-0.28,0.87-0.58,1.73-0.89,2.59c-0.7,1.9-1.46,3.78-2.2,5.67
				c-0.71,1.83-1.45,3.68-1.84,5.6c-0.1,0.48-0.32,0.92-0.52,1.37c-0.36,0.78-0.66,1.58-0.92,2.4c-0.15,0.49-0.28,0.98-0.44,1.47
				c-0.46,1.45-1.13,2.83-1.53,4.3c0.17,0.05,0.47,0,0.66,0.02c0.25,0.03,0.49,0.05,0.74,0.07c0.51,0.05,1.03,0.09,1.54,0.13
				c1.01,0.07,2.03,0.13,3.04,0.19c3.82,0.2,7.67,0.34,11.43,1.07c5.54,1.08,10.68,3.51,15.65,6.11c1.52,0.79,3.03,1.6,4.53,2.43
				c1.02,0.56,2.06,1.08,3.05,1.68c0.87,0.52,1.68,1.36,2.25,0.01c0.29-0.7,0.59-1.4,0.83-2.12c0.53-1.54,0.58-3.17,1.09-4.68
				c0.59-1.75,1.03-3.55,1.27-5.38c0.18-1.39,0.25-2.78,0.41-4.17c0.23-2,0.63-3.98,1.04-5.95C93.48,32.17,93.86,30.31,94.24,28.45z
				"/>
			<path class="st2" d="M130.34,84.02c-0.08,0-0.18-0.01-0.28-0.01c-0.05-0.03-0.11-0.05-0.17-0.05c-3.06-0.31-6.12-0.54-9.14-1.14
				c-1.21-0.24-2.45-0.47-3.64-0.75c-1.35-0.31-2.71-1.31-3.94-1.95c-0.43-0.22-0.86-0.45-1.34-0.51c-0.27-0.04-0.54-0.02-0.81-0.05
				c-0.73-0.09-1.36-0.52-1.96-0.95c-7.4-5.23-14.91-10.31-22.42-15.39c-1.52-1.03-3.03-2.05-4.6-3
				c-5.87-3.57-12.17-6.08-18.79-7.85c-4.1-1.1-8.28-1.92-12.49-2.45c-1.41-0.18-2.83-0.32-4.25-0.43c-0.7-0.05-1.4-0.1-2.09-0.13
				c-0.24-0.01-0.57-0.11-0.71,0.14c-0.06,0.1-0.08,0.22-0.1,0.34c-0.08,0.35-0.22,0.69-0.36,1.02c-0.42,0.98-0.84,1.95-1.26,2.93
				c-0.21,0.5-0.43,0.99-0.64,1.49c-0.06,0.13-0.34,0.61-0.26,0.72c0.06,0.08,0.32,0.05,0.41,0.05c2.99,0.16,5.98,0.19,8.96,0.47
				c2.99,0.28,5.97,0.75,8.91,1.41c5.78,1.28,11.42,3.22,16.68,5.95c2.62,1.36,5.14,2.89,7.55,4.6c2.7,1.92,5.26,4.03,7.97,5.96
				c5.42,3.86,11.34,7,17.13,10.25c1.6,0.9,3.21,1.8,4.82,2.69s3.25,1.77,5,2.38c3.25,1.13,6.81,1.09,10.2,1.07
				c0.24,0,0.41-0.12,0.49-0.29c0.17-0.02,0.33-0.14,0.33-0.36c0-1,0.14-1.95,0.38-2.92c0.23-0.96,0.58-1.91,0.7-2.89
				C130.64,84.18,130.53,84.03,130.34,84.02z"/>
			<g>
				<path class="st1" d="M58.69,22.23c-0.2,0-0.39,0-0.59,0c0-0.25,0.01-0.5,0.01-0.75c-0.25,0.25-0.51,0.49-0.76,0.73
					c-0.19-0.01-0.39-0.02-0.58-0.02c-0.2-0.01-0.4-0.02-0.61-0.02c0.02,0,0.05,0.03,0.06,0.04c0.05,0.03,0.11,0.07,0.16,0.1
					c0.18,0.11,0.35,0.22,0.52,0.34c-0.31,0.29-0.62,0.58-0.92,0.88c0.45-0.17,0.9-0.34,1.34-0.51c0.26,0.2,0.51,0.4,0.77,0.6
					c0-0.31,0-0.62,0.01-0.93c0.29-0.1,0.57-0.21,0.86-0.31c0.09-0.03,0.18-0.06,0.26-0.1c0.02-0.01,0.08-0.04,0.1-0.04
					C59.11,22.24,58.9,22.23,58.69,22.23z"/>
				<path class="st1" d="M61.56,24.64c-0.2-0.01-0.39-0.02-0.59-0.03c0-0.28,0-0.55,0-0.82c-0.25,0.25-0.5,0.51-0.75,0.76
					c-0.19-0.02-0.39-0.04-0.58-0.06c-0.2-0.02-0.4-0.04-0.6-0.06c0.02,0,0.05,0.03,0.06,0.04c0.05,0.04,0.11,0.08,0.16,0.12
					c0.17,0.13,0.35,0.27,0.52,0.4c-0.3,0.3-0.6,0.61-0.91,0.91c0.44-0.16,0.89-0.33,1.33-0.49c0.26,0.23,0.51,0.46,0.77,0.7
					c0-0.34,0-0.68,0-1.02c0.28-0.1,0.56-0.19,0.85-0.29c0.09-0.03,0.17-0.06,0.26-0.09c0.02-0.01,0.07-0.03,0.1-0.03
					C61.97,24.67,61.76,24.66,61.56,24.64z"/>
				<path class="st1" d="M66.42,22.73c-0.19-0.01-0.38-0.03-0.57-0.04c0-0.29,0-0.57,0-0.85c-0.24,0.26-0.49,0.53-0.73,0.79
					c-0.19-0.02-0.38-0.04-0.56-0.07c-0.2-0.02-0.39-0.04-0.59-0.07c0.02,0,0.04,0.04,0.06,0.05c0.05,0.04,0.1,0.08,0.16,0.13
					c0.17,0.14,0.34,0.28,0.51,0.42c-0.3,0.32-0.59,0.63-0.89,0.95c0.43-0.17,0.87-0.34,1.3-0.51c0.25,0.24,0.5,0.48,0.75,0.73
					c0-0.35,0-0.7,0-1.05c0.28-0.1,0.55-0.2,0.83-0.3c0.08-0.03,0.17-0.06,0.25-0.09c0.02-0.01,0.07-0.04,0.09-0.03
					C66.82,22.76,66.62,22.74,66.42,22.73z"/>
				<path class="st1" d="M69.16,25.6c-0.19-0.02-0.37-0.05-0.56-0.07c0-0.31,0-0.61,0-0.91c-0.24,0.27-0.47,0.54-0.71,0.8
					c-0.18-0.03-0.37-0.07-0.56-0.1c-0.19-0.03-0.39-0.07-0.58-0.1c0.02,0,0.04,0.04,0.06,0.05c0.05,0.05,0.1,0.1,0.15,0.14
					c0.17,0.16,0.34,0.32,0.51,0.48c-0.29,0.32-0.58,0.64-0.86,0.97c0.43-0.16,0.85-0.32,1.27-0.48c0.25,0.27,0.5,0.54,0.74,0.81
					c0-0.37-0.01-0.75-0.01-1.12c0.27-0.09,0.54-0.18,0.81-0.27c0.08-0.03,0.17-0.06,0.25-0.08c0.02-0.01,0.07-0.03,0.09-0.03
					C69.56,25.65,69.36,25.62,69.16,25.6z"/>
				<path class="st1" d="M73.77,23.81c-0.18-0.03-0.36-0.06-0.54-0.09c0-0.31,0-0.63,0-0.94c-0.23,0.27-0.46,0.54-0.69,0.81
					c-0.18-0.04-0.36-0.08-0.54-0.11c-0.19-0.04-0.37-0.08-0.56-0.11c0.02,0,0.04,0.04,0.05,0.06c0.05,0.05,0.1,0.1,0.15,0.15
					c0.16,0.16,0.32,0.33,0.49,0.5c-0.28,0.33-0.56,0.65-0.84,0.98c0.41-0.16,0.82-0.32,1.23-0.47c0.24,0.28,0.47,0.56,0.71,0.85
					c0-0.39,0-0.77-0.01-1.15c0.26-0.09,0.52-0.18,0.78-0.26c0.08-0.03,0.16-0.05,0.24-0.08c0.02-0.01,0.07-0.03,0.09-0.03
					C74.15,23.88,73.96,23.85,73.77,23.81z"/>
				<path class="st1" d="M76.38,27.12c-0.18-0.04-0.35-0.08-0.53-0.12c0-0.33-0.01-0.66-0.01-0.98c-0.22,0.27-0.44,0.54-0.67,0.81
					c-0.17-0.05-0.35-0.1-0.52-0.15c-0.18-0.05-0.36-0.1-0.55-0.15c0.02,0.01,0.04,0.05,0.05,0.06c0.05,0.05,0.1,0.11,0.15,0.16
					c0.16,0.18,0.32,0.36,0.48,0.55c-0.27,0.33-0.54,0.66-0.81,0.98c0.4-0.15,0.8-0.29,1.2-0.43c0.24,0.3,0.47,0.61,0.71,0.92
					c-0.01-0.4-0.01-0.8-0.02-1.2c0.25-0.08,0.51-0.16,0.76-0.24c0.08-0.02,0.15-0.05,0.23-0.07c0.02-0.01,0.07-0.03,0.09-0.03
					C76.75,27.21,76.56,27.17,76.38,27.12z"/>
				<path class="st1" d="M80.66,25.58c-0.17-0.05-0.33-0.09-0.5-0.14c0-0.34,0-0.67,0-1.01c-0.21,0.27-0.43,0.54-0.64,0.81
					c-0.17-0.06-0.33-0.11-0.5-0.17s-0.35-0.11-0.52-0.17c0.02,0.01,0.04,0.05,0.05,0.06c0.05,0.06,0.09,0.12,0.14,0.17
					c0.15,0.19,0.3,0.38,0.45,0.57c-0.26,0.33-0.52,0.65-0.78,0.98c0.38-0.14,0.76-0.27,1.14-0.41c0.22,0.32,0.44,0.64,0.66,0.96
					c0-0.41-0.01-0.82-0.01-1.23c0.24-0.07,0.48-0.14,0.72-0.22c0.07-0.02,0.15-0.04,0.22-0.07c0.02-0.01,0.06-0.03,0.08-0.02
					C81.01,25.68,80.84,25.63,80.66,25.58z"/>
				<path class="st1" d="M83.08,29.3c-0.16-0.06-0.32-0.11-0.48-0.17c-0.01-0.35-0.01-0.69-0.02-1.03c-0.2,0.27-0.4,0.53-0.6,0.8
					c-0.16-0.07-0.32-0.13-0.48-0.2c-0.17-0.07-0.34-0.13-0.51-0.2c0.02,0.01,0.04,0.05,0.05,0.07c0.05,0.06,0.09,0.12,0.14,0.19
					c0.15,0.2,0.3,0.41,0.45,0.61c-0.24,0.32-0.49,0.65-0.74,0.97c0.37-0.12,0.73-0.24,1.1-0.36c0.22,0.34,0.44,0.68,0.66,1.02
					c-0.01-0.42-0.02-0.84-0.03-1.26c0.23-0.06,0.46-0.12,0.69-0.18c0.07-0.02,0.14-0.04,0.21-0.06c0.02,0,0.06-0.03,0.08-0.02
					C83.42,29.42,83.25,29.36,83.08,29.3z"/>
				<path class="st1" d="M86.95,28.07c-0.15-0.06-0.3-0.13-0.45-0.19c0-0.35,0-0.7-0.01-1.05c-0.19,0.26-0.38,0.53-0.57,0.79
					c-0.15-0.08-0.3-0.15-0.45-0.22c-0.16-0.08-0.31-0.15-0.47-0.23c0.02,0.01,0.04,0.06,0.05,0.07c0.04,0.07,0.08,0.13,0.13,0.2
					c0.14,0.21,0.28,0.43,0.41,0.65c-0.23,0.32-0.46,0.64-0.7,0.96c0.35-0.11,0.69-0.22,1.03-0.32c0.2,0.35,0.4,0.71,0.6,1.07
					c-0.01-0.43-0.01-0.85-0.02-1.28c0.22-0.05,0.43-0.1,0.64-0.15c0.07-0.02,0.13-0.03,0.2-0.05c0.02,0,0.06-0.02,0.07-0.02
					C87.26,28.21,87.11,28.14,86.95,28.07z"/>
				<path class="st1" d="M56.51,26.62c-0.2-0.01-0.4-0.03-0.6-0.04c0-0.26,0-0.53,0-0.79c-0.25,0.24-0.51,0.48-0.76,0.72
					c-0.2-0.02-0.39-0.04-0.59-0.07c-0.2-0.02-0.41-0.05-0.61-0.07c0.02,0,0.05,0.03,0.06,0.04c0.05,0.04,0.11,0.08,0.16,0.12
					c0.18,0.13,0.36,0.26,0.54,0.39c-0.31,0.29-0.61,0.57-0.92,0.86c0.45-0.15,0.9-0.3,1.35-0.45c0.26,0.22,0.52,0.45,0.79,0.68
					c0-0.33-0.01-0.65-0.01-0.98c0.29-0.09,0.58-0.18,0.86-0.27c0.09-0.03,0.18-0.06,0.27-0.08c0.02-0.01,0.08-0.03,0.1-0.03
					C56.93,26.65,56.72,26.63,56.51,26.62z"/>
				<path class="st1" d="M59.44,29.31c-0.2-0.02-0.4-0.04-0.59-0.07c0-0.29-0.01-0.57-0.01-0.86c-0.25,0.25-0.5,0.5-0.75,0.75
					c-0.2-0.03-0.39-0.07-0.59-0.1s-0.41-0.07-0.61-0.1c0.02,0,0.05,0.04,0.06,0.05c0.05,0.05,0.11,0.09,0.16,0.14
					c0.18,0.15,0.36,0.3,0.54,0.45c-0.3,0.3-0.6,0.6-0.9,0.9c0.45-0.15,0.89-0.29,1.34-0.44c0.26,0.25,0.53,0.51,0.79,0.77
					c-0.01-0.35-0.01-0.71-0.02-1.06c0.28-0.09,0.57-0.17,0.85-0.26c0.09-0.03,0.17-0.05,0.26-0.08c0.02-0.01,0.08-0.03,0.1-0.03
					C59.86,29.35,59.65,29.33,59.44,29.31z"/>
				<path class="st1" d="M64.34,27.55c-0.19-0.02-0.39-0.04-0.58-0.07c0-0.3-0.01-0.59-0.01-0.88c-0.24,0.26-0.49,0.52-0.73,0.78
					c-0.19-0.03-0.38-0.06-0.57-0.1c-0.2-0.03-0.4-0.06-0.6-0.1c0.02,0,0.05,0.04,0.06,0.05c0.05,0.05,0.11,0.09,0.16,0.14
					c0.17,0.15,0.35,0.3,0.52,0.46c-0.3,0.31-0.59,0.63-0.89,0.94c0.44-0.15,0.87-0.31,1.31-0.47c0.26,0.26,0.51,0.52,0.77,0.79
					c-0.01-0.37-0.01-0.73-0.02-1.09c0.28-0.09,0.56-0.18,0.83-0.27c0.09-0.03,0.17-0.06,0.26-0.08c0.02-0.01,0.07-0.03,0.09-0.03
					C64.75,27.6,64.54,27.57,64.34,27.55z"/>
				<path class="st1" d="M67.18,30.61c-0.19-0.03-0.38-0.06-0.57-0.09c-0.01-0.31-0.01-0.63-0.02-0.94
					c-0.24,0.27-0.47,0.53-0.71,0.8c-0.19-0.04-0.38-0.08-0.57-0.12c-0.2-0.04-0.39-0.08-0.59-0.13c0.02,0,0.05,0.04,0.06,0.06
					c0.05,0.05,0.11,0.1,0.16,0.15c0.17,0.17,0.35,0.34,0.52,0.51c-0.29,0.32-0.57,0.64-0.86,0.96c0.43-0.15,0.86-0.3,1.28-0.45
					c0.26,0.28,0.51,0.57,0.77,0.86c-0.01-0.38-0.02-0.77-0.03-1.15c0.27-0.08,0.55-0.17,0.82-0.25c0.08-0.03,0.17-0.05,0.25-0.08
					c0.02-0.01,0.07-0.03,0.09-0.03C67.58,30.68,67.38,30.65,67.18,30.61z"/>
				<path class="st1" d="M71.84,28.93c-0.18-0.03-0.37-0.07-0.55-0.1c-0.01-0.32-0.01-0.64-0.02-0.96
					c-0.23,0.27-0.46,0.54-0.69,0.81c-0.18-0.04-0.36-0.09-0.55-0.13c-0.19-0.05-0.38-0.09-0.57-0.13c0.02,0,0.04,0.05,0.06,0.06
					c0.05,0.05,0.1,0.11,0.15,0.16c0.17,0.17,0.34,0.35,0.5,0.52c-0.28,0.33-0.56,0.65-0.84,0.98c0.42-0.15,0.83-0.3,1.24-0.45
					c0.25,0.29,0.49,0.59,0.74,0.88c-0.01-0.39-0.02-0.78-0.03-1.17c0.26-0.08,0.53-0.17,0.79-0.25c0.08-0.03,0.16-0.05,0.24-0.08
					c0.02-0.01,0.07-0.03,0.09-0.03C72.23,29,72.03,28.96,71.84,28.93z"/>
				<path class="st1" d="M74.56,32.35c-0.18-0.04-0.36-0.09-0.54-0.13c-0.01-0.33-0.02-0.66-0.03-1c-0.22,0.27-0.44,0.54-0.66,0.81
					c-0.18-0.05-0.36-0.11-0.54-0.16c-0.19-0.05-0.37-0.11-0.56-0.16c0.02,0.01,0.04,0.05,0.06,0.06c0.05,0.06,0.1,0.11,0.15,0.17
					c0.17,0.19,0.33,0.38,0.5,0.56c-0.27,0.33-0.54,0.66-0.81,0.98c0.41-0.14,0.81-0.28,1.21-0.42c0.25,0.31,0.49,0.63,0.74,0.94
					c-0.02-0.41-0.03-0.81-0.05-1.21c0.26-0.08,0.51-0.15,0.77-0.23c0.08-0.02,0.16-0.05,0.24-0.07c0.02-0.01,0.07-0.03,0.09-0.03
					C74.94,32.44,74.75,32.39,74.56,32.35z"/>
				<path class="st1" d="M78.91,30.85c-0.17-0.05-0.34-0.1-0.51-0.14c-0.01-0.34-0.02-0.68-0.02-1.02
					c-0.21,0.27-0.42,0.54-0.64,0.81c-0.17-0.06-0.34-0.12-0.51-0.18c-0.18-0.06-0.36-0.12-0.54-0.18c0.02,0.01,0.04,0.05,0.05,0.07
					c0.05,0.06,0.1,0.12,0.15,0.18c0.16,0.19,0.32,0.39,0.48,0.59c-0.26,0.33-0.51,0.65-0.77,0.98c0.39-0.13,0.78-0.26,1.16-0.4
					c0.23,0.32,0.47,0.65,0.7,0.98c-0.01-0.41-0.03-0.82-0.04-1.24c0.24-0.07,0.49-0.14,0.73-0.21c0.07-0.02,0.15-0.04,0.22-0.06
					c0.02-0.01,0.06-0.03,0.08-0.02C79.27,30.95,79.09,30.9,78.91,30.85z"/>
				<path class="st1" d="M81.47,34.61c-0.17-0.06-0.33-0.11-0.5-0.17c-0.02-0.35-0.03-0.69-0.04-1.04c-0.2,0.27-0.4,0.53-0.6,0.8
					c-0.17-0.07-0.33-0.13-0.5-0.2s-0.35-0.14-0.52-0.21c0.02,0.01,0.04,0.05,0.05,0.07c0.05,0.06,0.1,0.13,0.14,0.19
					c0.16,0.21,0.32,0.41,0.47,0.62c-0.24,0.32-0.49,0.65-0.73,0.97c0.38-0.12,0.75-0.24,1.12-0.36c0.23,0.34,0.47,0.68,0.7,1.02
					c-0.02-0.42-0.04-0.84-0.06-1.26c0.24-0.06,0.47-0.12,0.7-0.18c0.07-0.02,0.14-0.04,0.22-0.06c0.02,0,0.06-0.03,0.08-0.02
					C81.82,34.73,81.65,34.67,81.47,34.61z"/>
				<path class="st1" d="M85.42,33.39c-0.16-0.06-0.31-0.13-0.47-0.19c-0.01-0.35-0.02-0.7-0.03-1.05
					c-0.19,0.26-0.38,0.52-0.57,0.79c-0.16-0.08-0.31-0.15-0.47-0.22c-0.16-0.08-0.33-0.15-0.49-0.23c0.02,0.01,0.04,0.06,0.05,0.07
					c0.04,0.07,0.09,0.13,0.14,0.2c0.15,0.21,0.3,0.43,0.44,0.65c-0.23,0.32-0.46,0.64-0.69,0.96c0.35-0.11,0.7-0.21,1.05-0.32
					c0.22,0.35,0.43,0.71,0.65,1.06c-0.02-0.43-0.04-0.85-0.05-1.28c0.22-0.05,0.44-0.1,0.66-0.15c0.07-0.02,0.13-0.03,0.2-0.05
					c0.02,0,0.06-0.02,0.07-0.02C85.74,33.53,85.58,33.46,85.42,33.39z"/>
				<path class="st1" d="M54.37,31.09c-0.2-0.03-0.4-0.05-0.61-0.08c0-0.28-0.01-0.55-0.01-0.83c-0.25,0.24-0.51,0.47-0.76,0.71
					c-0.2-0.04-0.4-0.07-0.6-0.11c-0.21-0.04-0.41-0.07-0.62-0.11c0.02,0,0.05,0.04,0.06,0.05c0.06,0.04,0.11,0.09,0.17,0.13
					c0.18,0.15,0.36,0.3,0.55,0.45c-0.31,0.28-0.61,0.57-0.92,0.85c0.45-0.13,0.91-0.26,1.36-0.39c0.27,0.25,0.54,0.51,0.8,0.76
					c-0.01-0.34-0.01-0.69-0.02-1.03c0.29-0.08,0.58-0.15,0.87-0.23c0.09-0.02,0.18-0.05,0.27-0.07c0.02-0.01,0.08-0.03,0.1-0.03
					C54.79,31.14,54.58,31.12,54.37,31.09z"/>
				<path class="st1" d="M57.37,34.05c-0.2-0.03-0.4-0.07-0.6-0.1c-0.01-0.3-0.02-0.6-0.02-0.89c-0.25,0.25-0.5,0.5-0.75,0.75
					c-0.2-0.04-0.4-0.09-0.59-0.13c-0.21-0.05-0.41-0.09-0.62-0.14c0.02,0,0.05,0.04,0.06,0.06c0.06,0.05,0.11,0.1,0.17,0.15
					c0.18,0.16,0.37,0.33,0.55,0.5c-0.3,0.3-0.6,0.6-0.9,0.89c0.45-0.13,0.9-0.26,1.35-0.39c0.27,0.28,0.54,0.55,0.81,0.84
					c-0.01-0.37-0.02-0.73-0.03-1.1c0.29-0.08,0.57-0.15,0.86-0.23c0.09-0.02,0.18-0.05,0.26-0.07c0.02-0.01,0.08-0.03,0.1-0.03
					C57.8,34.12,57.58,34.08,57.37,34.05z"/>
				<path class="st1" d="M62.31,32.44c-0.2-0.03-0.39-0.06-0.59-0.09c-0.01-0.31-0.02-0.61-0.02-0.91
					c-0.24,0.26-0.49,0.52-0.73,0.78c-0.19-0.04-0.39-0.08-0.58-0.12c-0.2-0.04-0.4-0.09-0.61-0.13c0.02,0,0.05,0.04,0.06,0.06
					c0.05,0.05,0.11,0.1,0.16,0.15c0.18,0.17,0.36,0.33,0.54,0.5c-0.29,0.31-0.59,0.62-0.88,0.93c0.44-0.14,0.88-0.28,1.32-0.43
					c0.26,0.28,0.53,0.56,0.79,0.84c-0.01-0.38-0.02-0.75-0.03-1.12c0.28-0.08,0.56-0.16,0.84-0.25c0.09-0.03,0.17-0.05,0.26-0.08
					c0.02-0.01,0.07-0.03,0.1-0.03C62.72,32.51,62.52,32.48,62.31,32.44z"/>
				<path class="st1" d="M65.24,35.69c-0.19-0.04-0.39-0.07-0.58-0.11c-0.01-0.32-0.02-0.64-0.04-0.96
					c-0.24,0.27-0.47,0.53-0.71,0.8c-0.19-0.05-0.39-0.1-0.58-0.15c-0.2-0.05-0.4-0.1-0.6-0.15c0.02,0.01,0.05,0.05,0.06,0.06
					c0.05,0.05,0.11,0.11,0.16,0.16c0.18,0.18,0.36,0.36,0.54,0.54c-0.29,0.32-0.57,0.64-0.86,0.96c0.43-0.14,0.87-0.28,1.3-0.42
					c0.27,0.3,0.53,0.6,0.8,0.9c-0.02-0.39-0.04-0.78-0.05-1.17c0.28-0.08,0.55-0.16,0.83-0.24c0.08-0.02,0.17-0.05,0.25-0.07
					c0.02-0.01,0.07-0.03,0.09-0.03C65.65,35.76,65.45,35.72,65.24,35.69z"/>
				<path class="st1" d="M69.96,34.09c-0.19-0.04-0.38-0.08-0.56-0.12c-0.01-0.33-0.02-0.65-0.03-0.98
					c-0.23,0.27-0.46,0.54-0.69,0.81c-0.19-0.05-0.37-0.1-0.56-0.15c-0.19-0.05-0.39-0.1-0.58-0.15c0.02,0.01,0.05,0.05,0.06,0.06
					c0.05,0.06,0.11,0.11,0.16,0.17c0.17,0.18,0.35,0.36,0.52,0.55c-0.28,0.33-0.56,0.65-0.83,0.98c0.42-0.14,0.84-0.28,1.26-0.42
					c0.26,0.3,0.51,0.61,0.77,0.92c-0.02-0.4-0.03-0.8-0.05-1.19c0.27-0.08,0.53-0.16,0.8-0.24c0.08-0.02,0.16-0.05,0.25-0.07
					c0.02-0.01,0.07-0.03,0.09-0.03C70.36,34.17,70.16,34.13,69.96,34.09z"/>
				<path class="st1" d="M72.81,37.6c-0.19-0.05-0.37-0.09-0.56-0.14c-0.02-0.34-0.04-0.67-0.05-1.01
					c-0.22,0.27-0.44,0.54-0.66,0.81c-0.18-0.06-0.37-0.11-0.55-0.17c-0.19-0.06-0.38-0.12-0.58-0.17c0.02,0.01,0.05,0.05,0.06,0.06
					c0.05,0.06,0.11,0.12,0.16,0.18c0.17,0.19,0.35,0.39,0.52,0.58c-0.27,0.33-0.53,0.65-0.8,0.98c0.41-0.14,0.82-0.27,1.23-0.4
					c0.26,0.32,0.52,0.64,0.78,0.96c-0.03-0.41-0.05-0.82-0.07-1.23c0.26-0.07,0.52-0.15,0.78-0.22c0.08-0.02,0.16-0.04,0.24-0.07
					c0.02-0.01,0.07-0.03,0.09-0.02C73.2,37.7,73.01,37.65,72.81,37.6z"/>
				<path class="st1" d="M77.23,36.14c-0.18-0.05-0.35-0.1-0.53-0.15c-0.02-0.34-0.03-0.68-0.05-1.02
					c-0.21,0.27-0.42,0.54-0.63,0.81c-0.18-0.06-0.35-0.12-0.53-0.18s-0.37-0.13-0.55-0.19c0.02,0.01,0.04,0.05,0.06,0.07
					c0.05,0.06,0.1,0.12,0.15,0.18c0.17,0.2,0.33,0.4,0.5,0.6c-0.26,0.33-0.51,0.65-0.77,0.98c0.4-0.13,0.79-0.26,1.18-0.39
					c0.25,0.33,0.5,0.66,0.74,0.99c-0.02-0.41-0.05-0.83-0.07-1.24c0.25-0.07,0.5-0.14,0.74-0.2c0.08-0.02,0.15-0.04,0.23-0.06
					c0.02-0.01,0.07-0.03,0.08-0.02C77.6,36.24,77.42,36.19,77.23,36.14z"/>
				<path class="st1" d="M79.96,39.91c-0.17-0.06-0.35-0.11-0.52-0.17c-0.03-0.35-0.05-0.69-0.07-1.04c-0.2,0.27-0.4,0.53-0.6,0.8
					c-0.17-0.07-0.35-0.14-0.52-0.2c-0.18-0.07-0.36-0.14-0.54-0.21c0.02,0.01,0.04,0.05,0.06,0.07c0.05,0.06,0.1,0.13,0.15,0.19
					c0.17,0.21,0.34,0.41,0.5,0.62c-0.24,0.32-0.48,0.65-0.73,0.97c0.38-0.12,0.76-0.24,1.14-0.36c0.25,0.34,0.5,0.68,0.75,1.02
					c-0.04-0.42-0.07-0.84-0.1-1.26c0.24-0.06,0.48-0.12,0.72-0.18c0.07-0.02,0.15-0.04,0.22-0.06c0.02,0,0.06-0.03,0.08-0.02
					C80.33,40.03,80.14,39.97,79.96,39.91z"/>
				<path class="st1" d="M83.99,38.69c-0.16-0.06-0.32-0.13-0.49-0.19c-0.02-0.35-0.05-0.7-0.07-1.05
					c-0.19,0.26-0.37,0.52-0.56,0.79c-0.16-0.07-0.33-0.15-0.49-0.22c-0.17-0.08-0.34-0.15-0.51-0.23c0.02,0.01,0.04,0.06,0.05,0.07
					c0.05,0.07,0.1,0.13,0.14,0.2c0.16,0.21,0.32,0.43,0.47,0.64c-0.23,0.32-0.45,0.64-0.68,0.95c0.36-0.11,0.72-0.22,1.07-0.32
					c0.23,0.35,0.47,0.7,0.7,1.05c-0.03-0.42-0.07-0.85-0.1-1.27c0.23-0.05,0.45-0.11,0.67-0.16c0.07-0.02,0.14-0.03,0.21-0.05
					c0.02,0,0.06-0.02,0.08-0.02C84.33,38.83,84.16,38.76,83.99,38.69z"/>
				<path class="st1" d="M52.26,35.65c-0.2-0.04-0.41-0.08-0.61-0.11c-0.01-0.29-0.02-0.58-0.02-0.87c-0.25,0.23-0.51,0.47-0.76,0.7
					c-0.2-0.05-0.4-0.1-0.6-0.15c-0.21-0.05-0.42-0.1-0.63-0.16c0.02,0.01,0.05,0.04,0.06,0.06c0.06,0.05,0.11,0.1,0.17,0.15
					c0.19,0.17,0.37,0.33,0.56,0.5c-0.31,0.28-0.61,0.56-0.92,0.83c0.46-0.11,0.91-0.22,1.37-0.33c0.27,0.28,0.55,0.56,0.82,0.84
					c-0.01-0.36-0.02-0.72-0.03-1.07c0.29-0.06,0.58-0.13,0.88-0.2c0.09-0.02,0.18-0.04,0.27-0.06c0.02-0.01,0.08-0.03,0.1-0.02
					C52.69,35.73,52.47,35.69,52.26,35.65z"/>
				<path class="st1" d="M55.34,38.87c-0.2-0.04-0.41-0.08-0.61-0.13c-0.01-0.31-0.02-0.62-0.04-0.93c-0.25,0.25-0.5,0.49-0.74,0.74
					c-0.2-0.05-0.4-0.11-0.6-0.16c-0.21-0.06-0.42-0.11-0.63-0.17c0.02,0.01,0.05,0.05,0.06,0.06c0.06,0.05,0.11,0.11,0.17,0.16
					c0.19,0.18,0.37,0.36,0.56,0.54c-0.3,0.3-0.6,0.59-0.9,0.89c0.45-0.11,0.91-0.23,1.36-0.35c0.28,0.3,0.56,0.6,0.83,0.9
					c-0.02-0.38-0.03-0.76-0.05-1.14c0.29-0.07,0.58-0.13,0.87-0.2c0.09-0.02,0.18-0.04,0.27-0.06c0.02-0.01,0.08-0.03,0.1-0.02
					C55.77,38.96,55.56,38.91,55.34,38.87z"/>
				<path class="st1" d="M60.33,37.41c-0.2-0.04-0.4-0.08-0.6-0.12c-0.01-0.32-0.03-0.63-0.04-0.94c-0.24,0.26-0.48,0.52-0.73,0.77
					c-0.2-0.05-0.4-0.1-0.59-0.15c-0.21-0.05-0.41-0.1-0.62-0.16c0.02,0.01,0.05,0.05,0.06,0.06c0.06,0.05,0.11,0.11,0.17,0.16
					c0.18,0.18,0.37,0.36,0.55,0.54c-0.29,0.31-0.59,0.62-0.88,0.93c0.45-0.13,0.89-0.26,1.33-0.39c0.27,0.3,0.55,0.59,0.82,0.89
					c-0.02-0.39-0.04-0.77-0.05-1.16c0.28-0.07,0.57-0.15,0.85-0.22c0.09-0.02,0.17-0.05,0.26-0.07c0.02-0.01,0.07-0.03,0.1-0.03
					C60.75,37.49,60.54,37.45,60.33,37.41z"/>
				<path class="st1" d="M63.37,40.81c-0.2-0.04-0.4-0.09-0.6-0.13c-0.02-0.33-0.04-0.66-0.05-0.98c-0.24,0.27-0.47,0.53-0.71,0.79
					c-0.2-0.06-0.39-0.11-0.59-0.17c-0.2-0.06-0.41-0.11-0.62-0.17c0.02,0.01,0.05,0.05,0.06,0.06c0.06,0.06,0.11,0.11,0.17,0.17
					c0.19,0.19,0.37,0.38,0.56,0.57c-0.29,0.32-0.57,0.64-0.86,0.96c0.44-0.13,0.88-0.26,1.32-0.39c0.28,0.31,0.55,0.62,0.83,0.94
					c-0.03-0.4-0.05-0.8-0.08-1.2c0.28-0.07,0.56-0.15,0.84-0.22c0.09-0.02,0.17-0.05,0.26-0.07c0.02-0.01,0.07-0.03,0.1-0.03
					C63.79,40.91,63.58,40.86,63.37,40.81z"/>
				<path class="st1" d="M68.15,39.29c-0.19-0.04-0.39-0.09-0.58-0.13c-0.02-0.33-0.04-0.66-0.05-0.99
					c-0.23,0.27-0.46,0.54-0.69,0.81c-0.19-0.05-0.38-0.11-0.57-0.16c-0.2-0.06-0.4-0.11-0.6-0.17c0.02,0.01,0.05,0.05,0.06,0.06
					c0.06,0.06,0.11,0.12,0.17,0.17c0.18,0.19,0.36,0.38,0.54,0.57c-0.28,0.33-0.55,0.65-0.83,0.97c0.43-0.14,0.85-0.27,1.28-0.41
					c0.27,0.31,0.54,0.63,0.81,0.94c-0.03-0.4-0.05-0.81-0.08-1.21c0.27-0.07,0.54-0.15,0.81-0.22c0.08-0.02,0.17-0.05,0.25-0.07
					c0.02-0.01,0.07-0.03,0.09-0.03C68.56,39.38,68.36,39.33,68.15,39.29z"/>
				<path class="st1" d="M71.15,42.88c-0.19-0.05-0.38-0.09-0.57-0.14c-0.03-0.34-0.05-0.68-0.08-1.02
					c-0.22,0.27-0.44,0.54-0.66,0.81c-0.19-0.06-0.38-0.12-0.57-0.18c-0.2-0.06-0.4-0.12-0.6-0.18c0.02,0.01,0.05,0.05,0.06,0.07
					c0.06,0.06,0.11,0.12,0.17,0.18c0.18,0.2,0.37,0.39,0.55,0.59c-0.27,0.33-0.53,0.65-0.8,0.98c0.42-0.13,0.84-0.26,1.25-0.39
					c0.27,0.32,0.55,0.65,0.82,0.97c-0.04-0.41-0.07-0.82-0.11-1.23c0.27-0.07,0.53-0.14,0.8-0.21c0.08-0.02,0.16-0.04,0.24-0.07
					c0.02-0.01,0.07-0.03,0.09-0.02C71.55,42.98,71.35,42.93,71.15,42.88z"/>
				<path class="st1" d="M75.65,41.43c-0.18-0.05-0.37-0.1-0.55-0.15c-0.03-0.34-0.05-0.68-0.08-1.03
					c-0.21,0.27-0.42,0.54-0.63,0.81c-0.18-0.06-0.36-0.13-0.55-0.19c-0.19-0.06-0.38-0.13-0.57-0.19c0.02,0.01,0.05,0.05,0.06,0.07
					c0.05,0.06,0.11,0.12,0.16,0.18c0.18,0.2,0.35,0.4,0.53,0.6c-0.25,0.33-0.51,0.65-0.76,0.98c0.4-0.13,0.8-0.26,1.2-0.38
					c0.26,0.33,0.53,0.66,0.79,0.99c-0.04-0.41-0.07-0.83-0.11-1.24c0.25-0.07,0.51-0.14,0.76-0.2c0.08-0.02,0.16-0.04,0.23-0.06
					c0.02-0.01,0.07-0.03,0.09-0.02C76.03,41.54,75.84,41.49,75.65,41.43z"/>
				<path class="st1" d="M78.57,45.21c-0.18-0.06-0.36-0.11-0.54-0.17c-0.04-0.34-0.07-0.69-0.11-1.03c-0.2,0.27-0.39,0.53-0.59,0.8
					c-0.18-0.07-0.36-0.13-0.54-0.2c-0.19-0.07-0.38-0.14-0.57-0.21c0.02,0.01,0.05,0.05,0.06,0.07c0.05,0.06,0.11,0.13,0.16,0.19
					c0.18,0.21,0.36,0.41,0.54,0.62c-0.24,0.32-0.48,0.65-0.72,0.97c0.39-0.12,0.78-0.24,1.16-0.36c0.27,0.34,0.54,0.67,0.81,1.01
					c-0.05-0.42-0.1-0.83-0.14-1.25c0.25-0.06,0.49-0.12,0.74-0.19c0.08-0.02,0.15-0.04,0.23-0.06c0.02,0,0.06-0.03,0.08-0.02
					C78.94,45.33,78.75,45.27,78.57,45.21z"/>
				<path class="st1" d="M82.69,43.97c-0.17-0.06-0.34-0.12-0.51-0.19c-0.04-0.35-0.07-0.69-0.1-1.04
					c-0.18,0.26-0.37,0.52-0.55,0.78c-0.17-0.07-0.34-0.15-0.51-0.22c-0.18-0.08-0.36-0.15-0.54-0.22c0.02,0.01,0.04,0.06,0.06,0.07
					c0.05,0.06,0.1,0.13,0.16,0.19c0.17,0.21,0.34,0.42,0.51,0.64c-0.22,0.32-0.45,0.63-0.67,0.95c0.37-0.11,0.74-0.22,1.1-0.33
					c0.25,0.35,0.51,0.69,0.76,1.04c-0.05-0.42-0.1-0.84-0.14-1.26c0.23-0.05,0.46-0.11,0.69-0.16c0.07-0.02,0.14-0.03,0.21-0.05
					c0.02,0,0.06-0.02,0.08-0.02C83.05,44.1,82.87,44.03,82.69,43.97z"/>
				<path class="st1" d="M50.19,40.29c-0.21-0.05-0.41-0.1-0.62-0.15c-0.01-0.3-0.02-0.61-0.04-0.91c-0.25,0.23-0.5,0.46-0.76,0.69
					c-0.2-0.06-0.41-0.13-0.61-0.19c-0.21-0.07-0.43-0.13-0.64-0.2c0.02,0.01,0.05,0.05,0.06,0.06c0.06,0.06,0.12,0.11,0.17,0.17
					c0.19,0.18,0.38,0.37,0.57,0.56c-0.31,0.28-0.61,0.55-0.92,0.82c0.46-0.09,0.92-0.18,1.38-0.27c0.28,0.31,0.56,0.61,0.84,0.92
					c-0.02-0.38-0.03-0.75-0.05-1.12c0.29-0.05,0.59-0.11,0.88-0.16c0.09-0.02,0.18-0.03,0.27-0.05c0.02,0,0.08-0.02,0.1-0.02
					C50.62,40.4,50.4,40.35,50.19,40.29z"/>
				<path class="st1" d="M58.4,42.44c-0.2-0.05-0.41-0.09-0.61-0.14c-0.02-0.32-0.04-0.65-0.05-0.97c-0.24,0.26-0.48,0.51-0.73,0.77
					c-0.2-0.06-0.4-0.12-0.6-0.18c-0.21-0.06-0.42-0.12-0.63-0.18c0.02,0.01,0.05,0.05,0.06,0.06c0.06,0.06,0.12,0.12,0.17,0.17
					c0.19,0.19,0.38,0.38,0.57,0.57c-0.29,0.31-0.59,0.62-0.88,0.93c0.45-0.12,0.9-0.24,1.35-0.36c0.28,0.31,0.56,0.63,0.85,0.94
					c-0.03-0.4-0.05-0.79-0.07-1.19c0.29-0.07,0.57-0.14,0.86-0.2c0.09-0.02,0.18-0.04,0.26-0.06c0.02-0.01,0.08-0.03,0.1-0.02
					C58.83,42.54,58.61,42.49,58.4,42.44z"/>
				<path class="st1" d="M66.41,44.53c-0.2-0.05-0.4-0.09-0.6-0.14c-0.03-0.34-0.05-0.67-0.08-1.01c-0.23,0.27-0.46,0.54-0.68,0.81
					c-0.2-0.06-0.39-0.12-0.59-0.18s-0.41-0.12-0.61-0.18c0.02,0.01,0.05,0.05,0.06,0.07c0.06,0.06,0.12,0.12,0.17,0.18
					c0.19,0.2,0.38,0.39,0.57,0.59c-0.28,0.33-0.55,0.65-0.83,0.97c0.43-0.13,0.87-0.26,1.3-0.39c0.28,0.32,0.56,0.64,0.85,0.96
					c-0.04-0.41-0.07-0.82-0.1-1.23c0.28-0.07,0.55-0.14,0.83-0.22c0.08-0.02,0.17-0.04,0.25-0.07c0.02-0.01,0.07-0.03,0.09-0.02
					C66.83,44.63,66.62,44.58,66.41,44.53z"/>
				<path class="st1" d="M74.16,46.74c-0.19-0.05-0.38-0.1-0.57-0.15c-0.04-0.34-0.07-0.69-0.11-1.03
					c-0.21,0.27-0.42,0.54-0.62,0.81c-0.19-0.06-0.38-0.13-0.57-0.19c-0.2-0.07-0.39-0.13-0.59-0.2c0.02,0.01,0.05,0.05,0.06,0.07
					c0.06,0.06,0.11,0.12,0.17,0.18c0.19,0.2,0.37,0.4,0.56,0.61c-0.25,0.33-0.51,0.65-0.76,0.98c0.41-0.13,0.82-0.25,1.22-0.38
					c0.28,0.33,0.56,0.66,0.84,0.99c-0.05-0.41-0.1-0.83-0.14-1.24c0.26-0.07,0.52-0.14,0.78-0.2c0.08-0.02,0.16-0.04,0.24-0.06
					c0.02-0.01,0.07-0.03,0.09-0.02C74.56,46.84,74.36,46.79,74.16,46.74z"/>
				<path class="st1" d="M81.52,49.2c-0.18-0.06-0.36-0.12-0.54-0.18c-0.05-0.34-0.1-0.69-0.14-1.03c-0.18,0.26-0.36,0.52-0.55,0.78
					c-0.18-0.07-0.36-0.14-0.54-0.21c-0.19-0.07-0.37-0.15-0.56-0.22c0.02,0.01,0.05,0.05,0.06,0.07c0.06,0.06,0.11,0.13,0.17,0.19
					c0.18,0.21,0.37,0.42,0.55,0.63c-0.22,0.32-0.44,0.63-0.67,0.95c0.38-0.11,0.75-0.23,1.13-0.34c0.28,0.34,0.55,0.68,0.83,1.02
					c-0.07-0.41-0.13-0.83-0.19-1.24c0.24-0.06,0.48-0.11,0.71-0.17c0.07-0.02,0.15-0.03,0.22-0.05c0.02,0,0.06-0.03,0.08-0.02
					C81.9,49.33,81.71,49.27,81.52,49.2z"/>
				<path class="st1" d="M89.05,31.92c-0.14-0.07-0.29-0.15-0.43-0.22c-0.01-0.36-0.02-0.71-0.02-1.07
					c-0.18,0.26-0.35,0.51-0.53,0.77c-0.14-0.08-0.29-0.17-0.43-0.25c-0.15-0.09-0.3-0.17-0.45-0.26c0.02,0.01,0.04,0.06,0.05,0.08
					c0.04,0.07,0.08,0.14,0.12,0.21c0.14,0.22,0.27,0.45,0.4,0.68c-0.22,0.31-0.43,0.62-0.65,0.93c0.33-0.09,0.65-0.18,0.98-0.27
					c0.2,0.37,0.4,0.74,0.59,1.11c-0.01-0.43-0.03-0.86-0.04-1.3c0.2-0.04,0.41-0.08,0.61-0.12c0.06-0.01,0.12-0.02,0.19-0.04
					c0.02,0,0.05-0.02,0.07-0.01C89.36,32.07,89.21,32,89.05,31.92z"/>
				<path class="st1" d="M92.43,31.07c-0.13-0.08-0.26-0.17-0.39-0.25c0-0.36-0.01-0.73-0.01-1.09c-0.16,0.25-0.33,0.5-0.49,0.75
					c-0.13-0.09-0.26-0.19-0.39-0.28c-0.14-0.1-0.28-0.19-0.41-0.29c0.01,0.01,0.03,0.06,0.04,0.08c0.04,0.07,0.07,0.14,0.11,0.22
					c0.12,0.24,0.24,0.47,0.36,0.71c-0.2,0.3-0.4,0.61-0.6,0.91c0.3-0.07,0.6-0.15,0.9-0.22c0.18,0.39,0.35,0.77,0.53,1.16
					c-0.01-0.44-0.02-0.88-0.02-1.32c0.19-0.03,0.37-0.06,0.55-0.08c0.06-0.01,0.11-0.02,0.17-0.02c0.01,0,0.05-0.02,0.06-0.01
					C92.7,31.25,92.57,31.16,92.43,31.07z"/>
				<path class="st1" d="M87.7,37.21c-0.15-0.07-0.3-0.14-0.45-0.22c-0.02-0.35-0.04-0.71-0.06-1.06c-0.17,0.26-0.35,0.51-0.52,0.77
					c-0.15-0.08-0.3-0.17-0.45-0.25c-0.16-0.09-0.32-0.17-0.48-0.25c0.02,0.01,0.04,0.06,0.05,0.08c0.04,0.07,0.09,0.14,0.13,0.2
					c0.15,0.22,0.29,0.45,0.44,0.67c-0.21,0.31-0.43,0.62-0.64,0.93c0.34-0.09,0.67-0.19,1-0.28c0.22,0.36,0.43,0.73,0.65,1.1
					c-0.03-0.43-0.06-0.86-0.08-1.29c0.21-0.04,0.42-0.08,0.62-0.13c0.06-0.01,0.13-0.02,0.19-0.04c0.02,0,0.05-0.02,0.07-0.01
					C88.01,37.36,87.86,37.29,87.7,37.21z"/>
				<path class="st1" d="M91.16,36.34c-0.14-0.08-0.27-0.16-0.41-0.24c-0.02-0.36-0.03-0.72-0.05-1.08
					c-0.16,0.25-0.32,0.5-0.48,0.75c-0.14-0.09-0.28-0.18-0.41-0.28c-0.14-0.09-0.29-0.19-0.44-0.28c0.02,0.01,0.03,0.06,0.05,0.08
					c0.04,0.07,0.08,0.14,0.12,0.21c0.13,0.23,0.27,0.47,0.4,0.7c-0.2,0.3-0.39,0.6-0.59,0.91c0.31-0.08,0.62-0.15,0.92-0.22
					c0.2,0.38,0.39,0.76,0.59,1.14c-0.03-0.43-0.05-0.87-0.07-1.3c0.19-0.03,0.38-0.06,0.57-0.09c0.06-0.01,0.12-0.02,0.17-0.03
					c0.01,0,0.05-0.02,0.06-0.01C91.44,36.52,91.3,36.43,91.16,36.34z"/>
				<path class="st1" d="M86.47,42.46c-0.16-0.07-0.32-0.14-0.47-0.21c-0.03-0.35-0.06-0.7-0.09-1.05
					c-0.17,0.26-0.34,0.51-0.52,0.77c-0.16-0.08-0.32-0.16-0.48-0.24c-0.17-0.08-0.33-0.17-0.5-0.25c0.02,0.01,0.04,0.06,0.05,0.07
					c0.05,0.07,0.1,0.13,0.14,0.2c0.16,0.22,0.32,0.44,0.48,0.66c-0.21,0.31-0.42,0.62-0.63,0.93c0.34-0.1,0.69-0.19,1.02-0.28
					c0.24,0.36,0.47,0.72,0.71,1.08c-0.05-0.42-0.09-0.85-0.13-1.27c0.22-0.04,0.43-0.09,0.64-0.13c0.07-0.01,0.13-0.03,0.2-0.04
					c0.02,0,0.06-0.02,0.07-0.01C86.81,42.61,86.64,42.54,86.47,42.46z"/>
				<path class="st1" d="M90.02,41.57c-0.14-0.08-0.29-0.16-0.43-0.24c-0.03-0.35-0.06-0.71-0.09-1.06
					c-0.16,0.25-0.32,0.49-0.47,0.74c-0.15-0.09-0.29-0.18-0.44-0.27s-0.31-0.18-0.46-0.27c0.02,0.01,0.04,0.06,0.05,0.08
					c0.04,0.07,0.09,0.14,0.13,0.21c0.15,0.23,0.29,0.46,0.44,0.69c-0.19,0.3-0.39,0.6-0.58,0.9c0.32-0.08,0.63-0.16,0.94-0.23
					c0.22,0.37,0.44,0.74,0.65,1.12c-0.04-0.43-0.08-0.85-0.12-1.28c0.2-0.03,0.39-0.06,0.59-0.1c0.06-0.01,0.12-0.02,0.18-0.03
					c0.02,0,0.05-0.02,0.07-0.01C90.33,41.73,90.18,41.65,90.02,41.57z"/>
				<path class="st1" d="M85.4,47.66c-0.17-0.07-0.33-0.13-0.5-0.2c-0.05-0.35-0.09-0.69-0.14-1.04c-0.17,0.25-0.34,0.51-0.51,0.76
					c-0.17-0.08-0.34-0.15-0.5-0.23c-0.18-0.08-0.35-0.16-0.53-0.24c0.02,0.01,0.05,0.06,0.06,0.07c0.05,0.07,0.1,0.13,0.16,0.2
					c0.17,0.22,0.34,0.43,0.52,0.65c-0.21,0.31-0.41,0.62-0.62,0.93c0.35-0.1,0.71-0.2,1.05-0.29c0.26,0.35,0.52,0.7,0.78,1.05
					c-0.06-0.41-0.13-0.83-0.19-1.25c0.22-0.05,0.44-0.09,0.66-0.14c0.07-0.01,0.13-0.03,0.2-0.04c0.02,0,0.06-0.02,0.07-0.02
					C85.75,47.8,85.57,47.73,85.4,47.66z"/>
				<path class="st1" d="M89.05,46.72c-0.15-0.08-0.31-0.15-0.46-0.22c-0.05-0.35-0.09-0.7-0.13-1.04
					c-0.15,0.25-0.31,0.49-0.46,0.74c-0.15-0.09-0.31-0.17-0.47-0.26s-0.33-0.18-0.49-0.26c0.02,0.01,0.04,0.06,0.05,0.08
					c0.05,0.07,0.1,0.14,0.15,0.2c0.16,0.22,0.32,0.45,0.48,0.67c-0.19,0.3-0.38,0.6-0.57,0.9c0.33-0.08,0.65-0.17,0.97-0.24
					c0.24,0.36,0.48,0.72,0.73,1.09c-0.06-0.42-0.12-0.84-0.18-1.26c0.2-0.04,0.41-0.07,0.61-0.1c0.06-0.01,0.12-0.02,0.19-0.03
					c0.02,0,0.05-0.02,0.07-0.01C89.37,46.88,89.21,46.8,89.05,46.72z"/>
				<path class="st1" d="M88.26,51.79c-0.16-0.07-0.33-0.14-0.49-0.21c-0.06-0.34-0.12-0.68-0.18-1.02
					c-0.15,0.24-0.3,0.49-0.45,0.73c-0.17-0.08-0.33-0.16-0.5-0.24s-0.35-0.17-0.52-0.25c0.02,0.01,0.05,0.06,0.06,0.07
					c0.05,0.07,0.11,0.13,0.16,0.2c0.18,0.22,0.35,0.43,0.53,0.65c-0.18,0.3-0.37,0.59-0.55,0.89c0.34-0.09,0.67-0.18,1-0.26
					c0.27,0.35,0.54,0.7,0.81,1.04c-0.09-0.41-0.17-0.81-0.25-1.22c0.21-0.04,0.42-0.08,0.63-0.12c0.06-0.01,0.13-0.02,0.19-0.03
					c0.02,0,0.05-0.02,0.07-0.01C88.61,51.94,88.44,51.87,88.26,51.79z"/>
			</g>
			<g>
				
					<linearGradient id="SVGID_1_" gradientUnits="userSpaceOnUse" x1="-491.5493" y1="-196.1691" x2="-496.3431" y2="-169.6622" gradientTransform="matrix(0.4802 -0.8771 -0.8771 -0.4802 99.9073 -411.8467)">
					<stop  offset="0" style="stop-color:#000000"/>
					<stop  offset="1" style="stop-color:#E0D7D7;stop-opacity:0"/>
				</linearGradient>
				<path class="st5" d="M31.26,75.86c-0.35,0.51-0.56,1.28-0.61,1.75c-0.04,0.35-0.03,0.71-0.1,1.06c-0.16,0.81-0.7,1.44-1.08,2.15
					c-0.37,0.67-0.54,1.42-0.77,2.15c-1.22,3.81-2.65,7.56-4.01,11.32c-0.54,1.49-1.12,2.89-1.32,4.46
					c-0.21,1.6-0.61,3.18-1.12,4.71c-1.03,3.11-2.48,6.05-3.75,9.06c-1.18,2.78-2.2,5.61-3.22,8.45c-1.27,3.53-2.55,7.06-3.82,10.58
					c-0.59,1.63-1.18,3.25-1.76,4.88c-0.29,0.81-0.59,1.63-0.88,2.44c-0.25,0.69-0.33,1.32-1.01,1.75
					c-0.02,0.01-0.04,0.02-0.05,0.04c-0.03,0.05,0,0.12,0.04,0.16c0.29,0.33,0.79,0.43,1.21,0.32c0.43-0.11,0.79-0.4,1.08-0.73
					c0.22-0.25,0.3-0.64,0.41-0.94c0.13-0.37,0.27-0.74,0.4-1.12c0.26-0.73,0.53-1.45,0.79-2.18c0.52-1.44,1.14-2.89,1.57-4.36
					c1.8-4.99,3.58-9.99,5.35-14.99c0.89-2.5,1.77-5,2.65-7.5c0.87-2.48,1.59-5.1,2.63-7.51c0.22-0.5,0.56-0.81,0.8-1.29
					c0.25-0.51,0.3-1.14,0.57-1.63c0.34-0.93,0.69-1.87,1.03-2.8c0.71-1.94,1.42-3.88,2.13-5.83c1.38-3.77,2.79-7.54,4.1-11.34
					c0.29-0.85,0.99-2.15,0.34-2.99C32.19,75.07,31.64,75.3,31.26,75.86z"/>
				
					<linearGradient id="SVGID_00000088822430965070568460000008102685774619707778_" gradientUnits="userSpaceOnUse" x1="-397.1336" y1="-168.6201" x2="-397.2819" y2="-163.3314" gradientTransform="matrix(0.4802 -0.8771 -0.8771 -0.4802 99.9073 -411.8467)">
					<stop  offset="0" style="stop-color:#000000"/>
					<stop  offset="1" style="stop-color:#E0D7D7;stop-opacity:0"/>
				</linearGradient>
				<path style="fill:url(#SVGID_00000088822430965070568460000008102685774619707778_);" d="M53.61,14.48
					c0.63-0.04,1.28,0.24,1.67,0.74c0.05,0.06,0.1,0.13,0.12,0.21c0.03,0.11-0.01,0.23-0.05,0.34c-0.04,0.12-0.66,1.94-0.7,1.92
					c-0.47-0.27-0.95-0.51-1.44-0.74c-0.05-0.02-0.1-0.04-0.13-0.08c-0.04-0.05-0.04-0.12-0.05-0.18
					C53.03,16.44,53.34,14.5,53.61,14.48z"/>
				
					<linearGradient id="SVGID_00000096018617259392179860000003280183892684111241_" gradientUnits="userSpaceOnUse" x1="-432.8058" y1="-152.7882" x2="-428.8016" y2="-178.3148" gradientTransform="matrix(0.4802 -0.8771 -0.8771 -0.4802 99.9073 -411.8467)">
					<stop  offset="0" style="stop-color:#000000"/>
					<stop  offset="1" style="stop-color:#FFFFFF;stop-opacity:0"/>
				</linearGradient>
				<path style="fill:url(#SVGID_00000096018617259392179860000003280183892684111241_);" d="M33.3,76.78
					c0,0.15-0.03,0.29-0.09,0.43c-0.09,0.21-0.21,0.52,0,0.61c0.07,0.03,0.15,0.01,0.22-0.01c0.71-0.21,1.16-0.91,1.46-1.59
					c0.82-1.85,1.05-3.9,1.63-5.83c0.23-0.76,0.51-1.49,0.77-2.24c0.79-2.23,1.44-4.51,1.87-6.84c0.09-0.49,0.18-0.99,0.35-1.46
					c0.08-0.21,0.19-0.39,0.29-0.59c0.12-0.23,0.15-0.49,0.24-0.72c0.14-0.37,0.27-0.74,0.41-1.11c0.28-0.76,0.57-1.51,0.85-2.26
					c0.36-0.96,0.69-1.93,1.02-2.91c0.16-0.49,0.32-0.98,0.48-1.47c0.13-0.4,0.21-0.89,0.45-1.24c0.13-0.19,0.32-0.34,0.44-0.54
					c0.21-0.35,0.3-0.83,0.44-1.21c0.35-0.91,0.71-1.83,1.06-2.74c0.69-1.79,1.38-3.58,2.06-5.37c0.45-1.19,0.92-2.36,1.31-3.57
					c0.21-0.63,0.41-1.27,0.62-1.9c0.1-0.32,0.21-0.63,0.31-0.95c0.09-0.27,0.15-0.62,0.28-0.87c0.49-1.51,0.98-3.02,1.55-4.51
					c0.42-1.11,0.88-2.2,1.29-3.3c0.21-0.56,0.4-1.12,0.57-1.7c0.15-0.5,0.41-0.89,0.65-1.36c0.34-0.66,0.47-1.41,0.72-2.12
					c0.12-0.34,0.27-0.67,0.38-1.02c0.05-0.16,0.09-0.33,0.02-0.48c-0.05-0.12-0.17-0.2-0.28-0.27c-0.33-0.22-0.66-0.45-1-0.64
					c-0.27-0.15-0.55-0.28-0.85-0.35c-0.1-0.02-0.24-0.02-0.29,0.07c-0.07,0.12,0.07,0.25,0.15,0.37c0.14,0.2,0.06,0.46,0.01,0.69
					c-0.05,0.29-0.11,0.57-0.18,0.85c-0.56,2.46-1.52,4.81-2.47,7.15c-0.67,1.64-1.34,3.29-2.01,4.93c-0.43,1.05-0.86,2.1-1.28,3.15
					c-0.99,2.43-1.98,4.87-2.88,7.33C42.65,44.57,41.6,48,40.6,51.45c-0.29,0.99-0.57,1.98-1.03,2.9c-0.32,0.62-0.71,1.2-1.06,1.81
					c-2.4,4.16-2.46,9.27-4.23,13.74c-0.39,0.99-0.86,1.94-1.38,2.86c-0.49,0.89-1.22,1.76-1.6,2.69c0.58,0.36,1.39,0.09,1.82,0.72
					C33.23,76.35,33.3,76.57,33.3,76.78z"/>
				
					<linearGradient id="SVGID_00000079484829469730214150000015871141566574837151_" gradientUnits="userSpaceOnUse" x1="-431.9744" y1="-198.5725" x2="-466.8827" y2="-175.1633" gradientTransform="matrix(0.4802 -0.8771 -0.8771 -0.4802 99.9073 -411.8467)">
					<stop  offset="0" style="stop-color:#000000"/>
					<stop  offset="1" style="stop-color:#FF1F1F;stop-opacity:0"/>
				</linearGradient>
				<path style="fill:url(#SVGID_00000079484829469730214150000015871141566574837151_);" d="M36.42,77.16
					c6.16,0.72,12.31,1.44,18.47,2.16c-2.13-0.83-3.98-2.34-5.24-4.24c-0.21-0.32-0.42-0.67-0.75-0.88
					c-0.26-0.17-0.58-0.23-0.88-0.29c-1.62-0.31-3.25-0.61-4.88-0.89c-0.63-0.11-1.26-0.21-1.89-0.13
					c-0.44,0.06-0.87,0.22-1.31,0.26c-0.75,0.08-1.64-0.13-2.35-0.38c-0.07-0.02-0.13-0.05-0.18-0.11c-0.06-0.08-0.04-0.2-0.02-0.3
					c0.14-0.63,0.27-1.27,0.41-1.9c0.09-0.42,0.18-0.84,0.09-1.26c-0.06-0.28-0.19-0.54-0.29-0.8c-0.2-0.5-0.3-1.04-0.31-1.58
					c-0.24,0.33-0.36,0.73-0.48,1.12c-0.3,1.01-0.6,2.02-0.9,3.03c-0.13,0.44-0.26,0.87-0.44,1.29c-0.27,0.62-0.65,1.18-0.88,1.81
					c-0.17,0.46-0.12,0.91-0.36,1.36c-0.14,0.27-0.34,0.52-0.49,0.79c-0.19,0.35-0.21,0.75-0.46,1.08
					c-0.07,0.09-0.15,0.18-0.18,0.29s0.02,0.25,0.13,0.27c0.05,0.01,0.09,0,0.14-0.01c0.15-0.04,0.3-0.07,0.44-0.11
					c0.16-0.04,0.32-0.08,0.45-0.19s0.2-0.27,0.36-0.35c0.15-0.08,0.37-0.12,0.54-0.12C35.58,77.06,36.01,77.11,36.42,77.16z"/>
				
					<linearGradient id="SVGID_00000034060102341361249470000017216151871890976173_" gradientUnits="userSpaceOnUse" x1="-424.2893" y1="-276.4505" x2="-440.7051" y2="-236.5202" gradientTransform="matrix(0.4802 -0.8771 -0.8771 -0.4802 99.9073 -411.8467)">
					<stop  offset="0" style="stop-color:#000000"/>
					<stop  offset="1" style="stop-color:#FF1F1F;stop-opacity:0"/>
				</linearGradient>
				<path style="fill:url(#SVGID_00000034060102341361249470000017216151871890976173_);" d="M89.78,99.49
					c3.07,2.4,5.99,5.04,9.42,6.86c1.23,0.65,2.53,1.19,3.87,1.56c1.17,0.32,2.38,0.35,3.52,0.69c2.45,0.72,5.06,0.55,7.5,1.31
					c1.36,0.42,2.56,0.79,3.89,1.27c-0.67-1.26-1.69-2.3-2.41-3.53c-0.46-0.79-0.79-1.64-1.26-2.42c-0.99-1.64-3.07-2.71-5-2.54
					c-0.53,0.05-1.12,0.2-1.55-0.11c-0.19-0.14-0.31-0.35-0.4-0.56c-0.37-0.87-0.28-1.85-0.34-2.79s-0.34-1.8-1.07-2.42
					c0.94-1.1,4.2-0.09,5.5-0.14c0.26-0.01,0.54-0.05,0.7-0.25c-0.51-0.59-1.2-0.97-1.84-1.41s-1.26-0.99-1.48-1.74
					c-0.27-0.91,0.1-2.13-0.48-2.96c-0.57-0.8-1.89-0.81-2.75-1.16c-0.9-0.37-1.76-1.06-1.91-2.01c-0.16-1.08,0.62-2.05,1.34-2.88
					c1.74-2.01,1.46-4.79,2.07-7.26c0.33-1.33,0.73-2.65,1.01-3.99c0.14-0.66,0.26-1.33,0.32-2.01c0.02-0.21-0.06-1.67,0.04-1.74
					c-2.37,1.64-5.24,3.62-6.83,6.04c-0.12,0.19-0.25,0.37-0.33,0.58c-0.22,0.55-0.14,1.17-0.09,1.76c0.03,0.32,0.02,0.7-0.25,0.89
					c-0.13,0.09-0.3,0.11-0.46,0.12c-0.81,0.05-1.58-0.07-2.35,0.12c-0.61,0.15-1.18,0.26-1.82,0.38c-1.44,0.27-2.36,2.2-3.81,1.97
					c-0.51-0.08-0.93-0.44-1.38-0.7c-1.84-1.08-4.15-0.66-6.24-0.21c-0.41,0.09-0.83,0.18-1.19,0.41c-0.58,0.37-0.9,1.02-1.38,1.51
					c-0.82,0.82-2.01,1.09-3.12,1.43c-2.08,0.64-4.03,1.65-5.76,2.97c-0.29,0.23-0.61,0.52-0.59,0.89c0.01,0.37,0.34,0.63,0.64,0.85
					c2.54,1.81,5.05,3.6,7.7,5.22c1.5,0.92,2.96,1.94,4.4,2.95C86.95,97.36,88.67,98.3,89.78,99.49z"/>
				
					<linearGradient id="SVGID_00000163074120436255163950000009981497429250415526_" gradientUnits="userSpaceOnUse" x1="-406.2687" y1="-207.8534" x2="-395.9943" y2="-227.553" gradientTransform="matrix(0.4802 -0.8771 -0.8771 -0.4802 99.9073 -411.8467)">
					<stop  offset="0" style="stop-color:#000000"/>
					<stop  offset="1" style="stop-color:#FF1F1F;stop-opacity:0"/>
				</linearGradient>
				<path style="fill:url(#SVGID_00000163074120436255163950000009981497429250415526_);" d="M102.61,37.32
					c-0.27,0.98-0.69,1.94-0.77,2.96c-0.07,0.92,0.15,1.84,0.31,2.75c0.81,4.7-0.1,9.55,0.5,14.29c0.49-0.53,0.99-1.07,1.48-1.6
					c0.34-0.37,0.69-0.75,0.85-1.22c0.4-1.21-0.55-2.61-0.02-3.77c0.46,0.16,0.88,0.44,1.21,0.79c0.13-0.16,0.33-0.24,0.51-0.34
					c1.79-1,1.59-3.77,3.06-5.21c0.1,0.11,0.21,0.22,0.31,0.33c0.02-0.65-0.37-1.32-0.12-1.92c0.34-0.81,1.56-0.77,2.29-0.28
					c0.74,0.49,1.28,1.26,2.1,1.59c0.77,0.31,1.63,0.18,2.45,0.05c0.84-0.14,1.68-0.28,2.52-0.41c-1.51-3.24-4.83-5.16-7.85-7.06
					c-2.46-1.55-4.86-3.22-7.02-5.17c-0.28-0.25-1.08-1.3-1.5-1.17c-0.52,0.17-0.11,1.01-0.05,1.44
					C103.05,34.67,102.96,36.03,102.61,37.32z"/>
				
					<linearGradient id="SVGID_00000029753564246862879750000015971843459912811690_" gradientUnits="userSpaceOnUse" x1="-406.0137" y1="-234.8073" x2="-403.8165" y2="-253.8179" gradientTransform="matrix(0.4802 -0.8771 -0.8771 -0.4802 99.9073 -411.8467)">
					<stop  offset="0" style="stop-color:#000000"/>
					<stop  offset="1" style="stop-color:#FF1F1F;stop-opacity:0"/>
				</linearGradient>
				<path style="fill:url(#SVGID_00000029753564246862879750000015971843459912811690_);" d="M124.89,58.29
					c-0.15,1.19-0.38,2.38-0.85,3.49c-0.35,0.8-0.82,1.55-1.26,2.3c-2.04,3.46-3.52,7.24-4.38,11.17c0.19-0.89,1.51-0.82,2.24-1.37
					c0.77-0.58,0.73-1.71,0.97-2.64c0.26-0.98,0.93-1.85,1.82-2.34c-0.35-0.2-0.19-0.73,0.03-1.07c0.72-1.14,1.57-2.2,2.53-3.15
					c0.31-0.31,0.65-0.62,0.79-1.04c0.09-0.28,0.09-0.58,0.08-0.88c-0.04-3.27,0.3-6.55,1-9.75c1.17-0.22,2.31-0.62,3.36-1.19
					c-0.79,0.23-2.53-1.69-3.07-2.12c-0.65-0.51-1.3-0.96-2.01-1.37c-0.33-0.19-2.02-0.95-2.07-1.13c0.55,1.89,0.9,4.31,1,6.28
					C125.15,55.09,125.09,56.7,124.89,58.29z"/>
				
					<linearGradient id="SVGID_00000178185948672662147600000014011170092390406283_" gradientUnits="userSpaceOnUse" x1="-416.4064" y1="-203.7581" x2="-424.8652" y2="-169.4998" gradientTransform="matrix(0.4802 -0.8771 -0.8771 -0.4802 99.9073 -411.8467)">
					<stop  offset="0" style="stop-color:#000000"/>
					<stop  offset="1" style="stop-color:#FF1F1F;stop-opacity:0"/>
				</linearGradient>
				<path style="fill:url(#SVGID_00000178185948672662147600000014011170092390406283_);" d="M49.68,67.18
					c-1.02-0.77-2.15-1.82-1.93-3.07c0.05-0.3,0.19-0.59,0.21-0.9c0.02-0.33-0.08-0.65-0.19-0.96c-0.21-0.62-0.42-1.24-0.63-1.86
					c-0.06-0.18-0.13-0.37-0.27-0.48c-0.2-0.15-0.47-0.13-0.72-0.16c-0.74-0.08-1.34-0.66-1.66-1.33s-0.4-1.42-0.48-2.16
					c1.57,0.2,3.17,0.17,4.74-0.08c0.18-0.03,0.37-0.06,0.51-0.18c0.35-0.3,0.16-0.86-0.06-1.26c-0.6-1.09-1.27-2.39-0.7-3.49
					c0.27-0.52,0.78-1.15,0.38-1.57c-0.17-0.18-0.44-0.21-0.62-0.37c-0.3-0.24-0.29-0.71-0.12-1.06c0.17-0.34,0.46-0.61,0.68-0.92
					c0.72-0.97,0.76-2.26,0.83-3.47c0.3-5.03,1.5-9.97,2.86-14.82c0.24-0.87,0.49-1.74,0.93-2.53c0.23-0.41,0.51-0.81,0.63-1.26
					c0.11-0.4,0.08-0.83,0.12-1.24c0.17-1.88,1.58-3.03,2.57-4.49c0.33-0.48,0.71-0.97,1.24-1.21c-0.53-0.22-1.09-0.35-1.66-0.41
					c-0.37-0.03-1.04-0.16-1.29,0.22c-0.1,0.15-0.14,0.32-0.18,0.49c-0.11,0.45-0.23,0.89-0.36,1.34c-0.58,1.93-1.4,3.75-2.37,5.52
					c-0.21,0.38-0.3,0.85-0.45,1.27c-0.17,0.49-0.34,0.98-0.5,1.47c-0.34,0.98-0.68,1.96-1.02,2.94c-1.35,3.88-2.77,7.74-4.1,11.62
					c-0.47,1.38-0.95,2.76-1.42,4.13c-0.13,0.38-0.26,0.77-0.42,1.15c-0.22,0.55-0.48,1.09-0.75,1.63
					c-0.24,0.47-0.37,0.93-0.56,1.42c-0.42,1.11-0.84,2.23-1.27,3.34c-0.71,1.85-1.46,3.69-2.05,5.59
					c-0.61,1.96-1.21,3.92-1.82,5.88c-0.15,0.49-0.3,0.98-0.51,1.44c-0.26,0.58,0.23,0.45,0.62,0.36c0.26-0.06,0.52-0.08,0.79-0.1
					c1.85-0.14,3.69-0.51,5.53-0.53c0.94-0.01,1.89,0,2.83,0.02C47.58,67.09,49.28,66.87,49.68,67.18z"/>
			</g>
			<g>
				<path class="st13" d="M29.22,76.42c-0.65,0.77-0.95,1.98-1.26,2.92c-0.37,1.09-0.69,2.2-1.04,3.3
					c-0.36,1.13-0.79,2.22-1.24,3.31c-0.18,0.43-0.14,0.9-0.32,1.33c-0.14-0.1-0.39-0.05-0.44,0.15c-0.33,1.22-0.6,2.44-1.04,3.63
					c-0.46,1.23-1,2.43-1.5,3.64c-0.11,0.28-0.19,0.62-0.35,0.87c-0.15,0.24-0.23,0.54-0.32,0.81c-0.19,0.57-0.39,1.14-0.58,1.71
					c-0.44,1.3-0.87,2.61-1.3,3.92c-1.69,5.11-3.55,10.17-5.39,15.23c-0.52,1.42-1.1,2.83-1.57,4.27c-0.24,0.72-0.49,1.43-0.75,2.14
					c-0.18,0.49-0.39,0.99-0.55,1.5c-0.02,0.01-0.03,0.02-0.04,0.04c-0.98,2.24-1.75,4.54-2.46,6.88c-0.24,0.53-0.49,1.06-0.73,1.6
					c-0.16,0.35-0.31,0.7-0.45,1.06c-0.13,0.35-0.34,0.77-0.32,1.15c0,0.12,0.07,0.22,0.17,0.27c-0.14-0.08-0.84,1.66-0.9,1.8
					c-0.14,0.34-0.27,0.69-0.28,1.05c-0.01,0.34,0.1,0.68,0.3,0.96c0.1,0.14,0.22,0.27,0.36,0.37c0.15,0.11,0.3,0.25,0.48,0.28
					c0.02,0,0.04,0.01,0.06-0.01c0.03-0.02,0.02-0.08,0-0.11c-0.15-0.27-0.27-0.55-0.37-0.85c-0.05-0.16-0.1-0.32-0.11-0.48
					c-0.03-0.32,0.07-0.63,0.17-0.93c0.04-0.11,0.08-0.21,0.14-0.31c0.11-0.17,0.29-0.28,0.43-0.41c0.15-0.14,0.27-0.33,0.23-0.53
					c-0.03-0.17-0.17-0.33-0.1-0.48c0.07-0.16,0.21-0.28,0.32-0.4c0.14-0.16,0.26-0.33,0.36-0.51c0.29-0.56,0.34-1.24,0.52-1.84
					c0.41-1.36,0.89-2.7,1.32-4.06c0.4-1.28,0.73-2.55,1.01-3.86c0.33-0.52,0.54-1.12,0.78-1.69c0.27-0.63,0.52-1.26,0.79-1.88
					c0.54-1.21,1-2.44,1.46-3.68c0.96-2.56,1.92-5.11,2.83-7.69c0.91-2.57,1.76-5.17,2.59-7.76c0.6-1.89,1.19-3.79,1.85-5.66
					c0.11-0.28,0.23-0.56,0.36-0.83c0.26-0.54,0.61-1.04,0.92-1.55c0.29-0.48,0.47-0.98,0.54-1.54c0.04-0.29,0.05-0.57,0.07-0.86
					c0.17-0.4,0.33-0.81,0.49-1.22c0.41-1.08,0.84-2.21,1.02-3.37c0.17-0.32,0.46-0.56,0.59-0.9c0.09-0.24,0.06-0.48,0.13-0.72
					c0.06-0.2,0.19-0.39,0.28-0.58c0.48-0.96,0.84-1.98,1.18-3c0.34-1.03,0.64-2.07,0.98-3.1c0.18-0.55,0.37-1.1,0.59-1.64
					c0.19-0.49,0.47-0.97,0.58-1.49C29.76,76.43,29.41,76.19,29.22,76.42z"/>
				<path class="st13" d="M52.14,14.22c-0.04,0.04-0.07,0.09-0.1,0.14c-0.02,0.01-0.03,0.01-0.05,0.02
					c-0.04,0.03-0.06,0.08-0.08,0.12c-0.01,0.01-0.03,0.02-0.04,0.04c-0.18,0.3-0.37,0.6-0.48,0.93c-0.06,0.17-0.11,0.34-0.16,0.51
					c-0.04,0.16-0.09,0.34,0.01,0.48c0.12,0.18,0.35,0.18,0.51,0.06c0.14-0.1,0.24-0.24,0.3-0.41c0.05-0.15,0.03-0.3,0.02-0.45
					c0.04-0.1,0.09-0.19,0.13-0.29c0.02-0.06,0.05-0.12,0.07-0.18c0.06-0.1,0.12-0.19,0.14-0.31c0-0.01,0-0.03,0-0.04
					c0.07-0.15,0.15-0.32,0.15-0.47C52.57,14.17,52.29,14.08,52.14,14.22z"/>
				<path class="st14" d="M63.6,81.62c-0.98-0.41-2-0.79-3.02-1.09c-1.07-0.31-2.17-0.49-3.25-0.76c-0.03-0.01-0.04,0.04-0.01,0.05
					c1.11,0.37,2.17,0.9,3.25,1.35c0.96,0.4,1.92,0.79,2.87,1.21c1.99,0.86,3.92,1.86,5.78,2.97c3.71,2.22,7.39,4.62,10.67,7.44
					c0.15,0.13,0.36-0.08,0.22-0.22c-1.51-1.53-3.14-2.94-4.91-4.16c-1.85-1.28-3.67-2.58-5.6-3.74
					C67.67,83.51,65.67,82.49,63.6,81.62z"/>
				<path class="st14" d="M100.79,30.51c-1.45-1.17-3.03-1.9-4.77-2.51c-0.33-0.12-0.67-0.23-1-0.35c-0.19-0.07-0.41-0.14-0.6-0.06
					c0.39,0.59,1.31,0.85,1.94,1.07c0.94,0.33,1.93,0.75,2.8,1.24c0.51,0.29,0.89,0.7,1.35,1.06c0.4,0.31,0.84,0.49,1.29,0.68
					c0.45,0.19,0.81,0.45,1.21,0.73c0.09,0.06,0.25-0.03,0.23-0.14c-0.07-0.48-0.48-0.76-0.9-0.95
					C101.82,31.03,101.26,30.88,100.79,30.51z"/>
				<path class="st14" d="M112.32,38.79c-1.43-0.88-2.83-1.81-4.29-2.65c-0.02-0.01-0.04,0.02-0.03,0.03
					c1.21,1.02,2.45,2.02,3.76,2.92c1.39,0.96,2.94,1.62,4.3,2.61c1.3,0.95,2.48,2.05,3.77,3.01c0.61,0.45,1.23,0.86,1.89,1.23
					c0.73,0.41,1.43,0.85,2.15,1.26c0.21,0.12,0.41-0.17,0.25-0.34c-0.49-0.53-1.21-0.92-1.82-1.3c-0.72-0.44-1.41-0.9-2.06-1.43
					c-1.24-0.99-2.4-2.06-3.69-3C115.22,40.19,113.7,39.64,112.32,38.79z"/>
				<path class="st14" d="M141.45,56.47c-0.11-0.02-0.2,0.01-0.27,0.06c-0.27-0.22-0.54-0.43-0.84-0.6
					c-0.71-0.4-1.51-0.52-2.29-0.74c-0.89-0.24-1.63-0.75-2.4-1.24c-0.83-0.52-1.64-1.02-2.53-1.45c-0.06-0.03-0.13,0.05-0.07,0.1
					c0.69,0.62,1.41,1.17,2.17,1.71c0.72,0.51,1.42,1.05,2.25,1.35c0.84,0.31,1.77,0.4,2.55,0.86c0.74,0.44,1.33,1.09,2.07,1.55
					c0.25,0.15,0.57-0.12,0.48-0.39c-0.03-0.1-0.08-0.19-0.12-0.28c0.06-0.01,0.12-0.02,0.18-0.03c0.19-0.05,0.22-0.27,0.1-0.4
					C142.41,56.61,141.89,56.56,141.45,56.47z"/>
				<path class="st15" d="M136.23,62.11c-0.01,0.03,0.03,0.05,0.04,0.02C136.28,62.11,136.24,62.09,136.23,62.11z"/>
			</g>
			<path class="st16" d="M53.44,14.11c0.11,0.02,0.22,0.05,0.33,0.07c0.14,0.16,0.35,0.23,0.54,0.32c0.25,0.11,0.5,0.24,0.73,0.4
				c0.21,0.15,0.42,0.3,0.59,0.48c0.06,0.06,0.11,0.13,0.15,0.2c-0.02,0.19-0.1,0.51-0.25,0.61c-0.29,0.19-0.15,0.6,0.18,0.62
				c0.46,0.03,0.84-0.32,1.01-0.72c0.09-0.22,0.12-0.41,0.1-0.64c-0.02-0.29,0.21-0.48,0.42-0.65c0.98-0.77,1.58-2,1.63-3.25
				s-0.43-2.51-1.26-3.44c-0.18-0.21-0.39-0.4-0.62-0.54c-0.26-0.16-0.56-0.25-0.86-0.33c-0.37-0.09-0.74-0.17-1.11-0.22
				c-0.24-0.04-0.49-0.06-0.74-0.04c-0.33,0.03-0.64,0.16-0.95,0.28c-0.65,0.25-1.31,0.49-1.85,0.93c-0.56,0.47-0.93,1.14-1.07,1.86
				c-0.15,0.71-0.09,1.46,0.11,2.16c0.09,0.32,0.21,0.64,0.25,0.98c0.04,0.37-0.13,0.66-0.17,1.01c-0.09,0.17-0.15,0.36-0.15,0.56
				c-0.01,0.3,0.15,0.73,0.47,0.77c0.02,0.01,0.04,0.03,0.06,0.04c0.04,0.02,0.07,0,0.08-0.04c0-0.01,0-0.01,0.01-0.02
				c0.02,0,0.03,0,0.05-0.01c0.32-0.11,0.27-0.54,0.02-0.63c0-0.05,0-0.15,0.01-0.2c0.02-0.11,0.08-0.21,0.14-0.29
				c0.16-0.2,0.4-0.29,0.65-0.34C52.42,13.96,52.95,14.01,53.44,14.11z"/>
			<g>
				
					<linearGradient id="SVGID_00000133507493950277783480000017592832645261204612_" gradientUnits="userSpaceOnUse" x1="-396.6081" y1="-170.5435" x2="-396.8403" y2="-161.0024" gradientTransform="matrix(0.4802 -0.8771 -0.8771 -0.4802 99.9073 -411.8467)">
					<stop  offset="0" style="stop-color:#000000"/>
					<stop  offset="0.1352" style="stop-color:#252104;stop-opacity:0.8648"/>
					<stop  offset="0.4506" style="stop-color:#766A0C;stop-opacity:0.5494"/>
					<stop  offset="0.7097" style="stop-color:#B29F12;stop-opacity:0.2903"/>
					<stop  offset="0.8996" style="stop-color:#D7C016;stop-opacity:0.1004"/>
					<stop  offset="1" style="stop-color:#E5CC17;stop-opacity:0"/>
				</linearGradient>
				<path style="fill:url(#SVGID_00000133507493950277783480000017592832645261204612_);" d="M55.58,16.13v-0.01
					C55.58,16.13,55.58,16.14,55.58,16.13z"/>
				
					<linearGradient id="SVGID_00000011754232605533348670000003980534463345530760_" gradientUnits="userSpaceOnUse" x1="-392.8652" y1="-173.4271" x2="-393.3005" y2="-155.5411" gradientTransform="matrix(0.4802 -0.8771 -0.8771 -0.4802 99.9073 -411.8467)">
					<stop  offset="0" style="stop-color:#000000"/>
					<stop  offset="0.1352" style="stop-color:#252104;stop-opacity:0.8648"/>
					<stop  offset="0.4506" style="stop-color:#766A0C;stop-opacity:0.5494"/>
					<stop  offset="0.7097" style="stop-color:#B29F12;stop-opacity:0.2903"/>
					<stop  offset="0.8996" style="stop-color:#D7C016;stop-opacity:0.1004"/>
					<stop  offset="1" style="stop-color:#E5CC17;stop-opacity:0"/>
				</linearGradient>
				<path style="fill:url(#SVGID_00000011754232605533348670000003980534463345530760_);" d="M54.53,12.87
					c-0.16,0.39-0.79,0.67-0.61,1.17c0.11,0.31,0.42,0.47,0.67,0.66c0.25,0.18,0.5,0.35,0.73,0.54c0.12,0.1,0.23,0.21,0.32,0.34
					c0.06,0.1,0.11,0.2,0.12,0.29c-0.02,0.05-0.05,0.09-0.08,0.13c-0.02,0.03-0.08,0.13-0.09,0.13c-0.02,0.03-0.02,0.07-0.03,0.1
					c-0.02,0-0.03,0.01-0.03,0.01c-0.41,0.08-0.31,0.78,0.11,0.73c0.23-0.03,0.42-0.13,0.57-0.27c0.18-0.12,0.31-0.33,0.4-0.56
					c0.07-0.09,0.14-0.19,0.2-0.29c0.15-0.28,0.07-0.63,0.26-0.91c0.07-0.1,0.17-0.19,0.27-0.27c0.38-0.32,0.74-0.67,1.03-1.07
					c0.15-0.21,0.28-0.43,0.38-0.66c0.1-0.22,0.1-0.46,0.12-0.7c0.04-0.52,0.06-1.03,0.03-1.55c-0.03-0.58-0.14-1.18-0.48-1.66
					C58.24,8.78,58,8.58,57.76,8.38c-0.5-0.4-1-0.8-1.58-1.08c-0.59-0.27-1.24-0.42-1.87-0.3c-0.03,0-0.07,0.01-0.09,0.03
					c-0.07,0.07,0.01,0.19,0.09,0.24c0.38,0.26,0.85,0.36,1.23,0.63c0.36,0.25,0.61,0.64,0.84,1.01c0.08,0.13,0.17,0.27,0.19,0.42
					c0.03,0.15-0.01,0.31,0,0.46c0.02,0.31,0.22,0.58,0.29,0.89c0.09,0.39-0.02,0.81-0.28,1.11c-0.26,0.3-0.65,0.48-1.05,0.51
					c-0.17,0.01-0.34,0-0.5,0.03s-0.33,0.11-0.42,0.25C54.58,12.67,54.57,12.77,54.53,12.87z"/>
			</g>
			<path class="st19" d="M52.21,13.12c0.09-0.04,0.19-0.07,0.28-0.1c0.22-0.06,0.42-0.13,0.62-0.25c-0.4-0.12-0.83-0.15-1.24-0.08
				c-0.11,0.02-0.23,0.05-0.34,0.04s-0.24-0.06-0.29-0.16c-0.03-0.06-0.04-0.13-0.04-0.2c0.03-0.53,0.71-0.85,0.76-1.38
				c0.03-0.37-0.26-0.69-0.58-0.87c-0.06-0.03-0.12-0.07-0.15-0.13c-0.02-0.04-0.01-0.1,0-0.14c0.12-0.62,0.53-1.14,0.98-1.57
				c0.45-0.43,0.97-0.8,1.4-1.26c-0.34-0.02-0.68,0.11-0.97,0.3s-0.54,0.43-0.79,0.66c-0.25,0.24-0.51,0.49-0.71,0.78
				c-0.12,0.17-0.22,0.36-0.31,0.55c-0.51,1.12-0.61,2.48-0.04,3.58c0.07,0.13,0.15,0.27,0.19,0.41c0.09,0.3-0.08,0.4-0.19,0.64
				c-0.11,0.24-0.2,0.51-0.16,0.78c0.02,0.13,0.06,0.26,0.13,0.37c0.08,0.13,0.18,0.19,0.31,0.26c-0.15-0.19-0.24-0.48-0.23-0.72
				c0.01-0.29,0.16-0.6,0.3-0.85c0.15-0.27,0.4-0.4,0.68-0.51C51.97,13.23,52.09,13.17,52.21,13.12z"/>
			<g>
				<path d="M51.24,16.76c0.25-0.69,0.5-1.38,0.75-2.07c0.04-0.1,0.07-0.2,0.11-0.29c0.06-0.18-0.09-0.37-0.26-0.41
					c-0.2-0.05-0.35,0.08-0.41,0.26c-0.25,0.69-0.5,1.38-0.75,2.07c-0.04,0.1-0.07,0.2-0.11,0.29c-0.06,0.18,0.09,0.37,0.26,0.41
					C51.02,17.06,51.17,16.93,51.24,16.76L51.24,16.76z"/>
			</g>
			<g>
				<path d="M55.19,15.4c-0.23,0.63-0.46,1.27-0.69,1.9c-0.03,0.09-0.07,0.18-0.1,0.27c-0.06,0.17,0.09,0.37,0.26,0.41
					c0.2,0.05,0.35-0.08,0.41-0.26c0.23-0.63,0.46-1.27,0.69-1.9c0.03-0.09,0.07-0.18,0.1-0.27c0.06-0.17-0.09-0.37-0.26-0.41
					C55.4,15.1,55.25,15.23,55.19,15.4L55.19,15.4z"/>
			</g>
			<g>
				<path d="M55.99,16.26c-0.09,0.16-0.25,0.33-0.54,0.45c-0.18,0.07-0.38-0.01-0.45-0.19s0.01-0.38,0.19-0.45
					c0.12-0.05,0.19-0.11,0.21-0.17c0.03-0.1-0.07-0.3-0.35-0.54c-0.33-0.28-0.84-0.54-1.39-0.71c-1.2-0.37-2.07-0.16-2.14,0.08
					c-0.02,0.07,0.02,0.17,0.1,0.29c0.11,0.15,0.08,0.37-0.08,0.48c-0.15,0.11-0.37,0.08-0.48-0.08c-0.28-0.38-0.26-0.69-0.2-0.89
					c0.26-0.87,1.71-0.93,3-0.53c0.65,0.2,1.23,0.5,1.64,0.85c0.48,0.41,0.68,0.86,0.56,1.27C56.04,16.15,56.02,16.21,55.99,16.26z"
					/>
			</g>
			<g>
				<path d="M56.91,16.27c-0.36,0.65-0.99,1.16-1.75,0.99c-0.19-0.04-0.3-0.22-0.26-0.41s0.23-0.3,0.41-0.26
					c0.7,0.16,1.1-0.85,1.11-0.89c0.12-0.32,0.11-0.63-0.03-0.93c-0.37-0.75-1.49-1.32-2.34-1.58c-0.6-0.18-1.22-0.23-1.82-0.13
					c-0.61,0.1-0.97,0.29-1.16,0.6c-0.19,0.33-0.4,0.8-0.28,1.18c0.08,0.25,0.31,0.47,0.51,0.67c0.14,0.13,0.14,0.35,0.01,0.49
					s-0.35,0.14-0.49,0.01c-0.25-0.24-0.56-0.53-0.69-0.96c-0.16-0.5-0.04-1.08,0.35-1.73c0.39-0.66,1.13-0.85,1.64-0.93
					c0.69-0.11,1.43-0.06,2.12,0.15c0.36,0.11,2.16,0.71,2.76,1.93c0.23,0.47,0.25,0.97,0.06,1.48
					C57.02,16.06,56.96,16.17,56.91,16.27z"/>
			</g>
			<g>
				<g>
					<path d="M10.01,140.07c-0.11,0.23-0.21,0.46-0.46,0.55c-0.29,0.11-0.64,0.1-0.94,0.05c-0.53-0.08-1.07-0.33-1.39-0.77
						c-0.16-0.22-0.31-0.45-0.26-0.73c0.05-0.27,0.19-0.52,0.29-0.78c0.24-0.61,0.45-1.24,0.67-1.85c0.94-2.59,1.87-5.18,2.81-7.77
						c1.96-5.43,3.92-10.86,5.88-16.28c1.96-5.41,3.91-10.82,5.87-16.23c1.37-3.78,2.75-7.56,4.08-11.35
						c0.94-2.66,1.87-5.32,2.81-7.98c0.05-0.13,0.09-0.26,0.14-0.39c0.15-0.42-0.52-0.57-0.67-0.16c-0.91,2.53-1.79,5.08-2.68,7.62
						c-1.31,3.73-2.67,7.45-4.01,11.17c-2.02,5.6-4.04,11.19-6.07,16.79c-2.02,5.59-4.04,11.19-6.06,16.78
						c-0.97,2.67-1.93,5.34-2.9,8.02c-0.22,0.61-0.44,1.22-0.68,1.83c-0.22,0.56-0.23,1,0.09,1.52c0.6,0.98,1.81,1.45,2.92,1.27
						c0.59-0.1,0.92-0.43,1.18-0.95C10.81,140,10.21,139.67,10.01,140.07L10.01,140.07z"/>
				</g>
				<g>
					<path d="M33.03,76.54c-0.21,0.57-0.41,1.14-0.62,1.71c-0.56,1.54-1.12,3.08-1.68,4.63c-0.83,2.29-1.66,4.58-2.49,6.86
						c-1.01,2.78-2.02,5.56-3.02,8.34c-1.1,3.05-2.21,6.09-3.31,9.14c-1.11,3.07-2.23,6.15-3.34,9.22
						c-1.04,2.88-2.08,5.75-3.13,8.63c-0.88,2.42-1.76,4.84-2.63,7.27c-0.63,1.75-1.27,3.49-1.9,5.24c-0.3,0.82-0.63,1.64-0.9,2.47
						c-0.01,0.04-0.03,0.07-0.04,0.11c-0.15,0.42,0.52,0.57,0.67,0.16c0.21-0.57,0.41-1.14,0.62-1.71c0.56-1.54,1.12-3.08,1.68-4.63
						c0.83-2.29,1.66-4.58,2.49-6.86c1.01-2.78,2.02-5.56,3.02-8.34c1.1-3.05,2.21-6.09,3.31-9.14c1.11-3.07,2.23-6.15,3.34-9.22
						c1.04-2.88,2.08-5.75,3.13-8.63c0.88-2.42,1.76-4.84,2.63-7.27c0.63-1.75,1.27-3.49,1.9-5.24c0.3-0.82,0.63-1.64,0.9-2.47
						c0.01-0.04,0.03-0.07,0.04-0.11C33.85,76.28,33.18,76.12,33.03,76.54L33.03,76.54z"/>
				</g>
				<g>
					<path d="M9.95,139.61c-0.11-0.55-0.64-0.82-1.12-0.98c-0.47-0.16-1.01-0.21-1.45,0.07c-0.09,0.06-0.01,0.21,0.09,0.15
						c0.39-0.24,0.86-0.19,1.28-0.06c0.44,0.14,0.94,0.37,1.04,0.87C9.81,139.76,9.97,139.71,9.95,139.61L9.95,139.61z"/>
				</g>
			</g>
			<g>
				<path d="M29.17,76.5c0.06,0.07,0.05,0.11,0.06,0.19c-0.02,0.05-0.03,0.06-0.01,0.03s0.02-0.03-0.01,0.01
					c0.07-0.08,0.09-0.09,0.15-0.13c0.19-0.13,0.4-0.24,0.62-0.34c0.44-0.19,0.9-0.34,1.39-0.34c0.56-0.01,1.09,0.16,1.5,0.55
					c0.08,0.07,0.15,0.15,0.22,0.23c-0.01-0.01,0.05,0.07,0.06,0.09c0.01,0.01,0.07,0.13,0.05,0.08c0.01,0.02,0.01,0.04,0.02,0.06
					c0.01,0.04,0.01,0.04,0,0c0,0.04,0,0.04,0-0.01c0.02-0.04,0.02-0.05,0-0.01c0.02-0.07,0.07-0.04-0.02-0.01
					c0,0-0.08,0.02-0.11,0.02c-0.18,0.03-0.34,0.15-0.33,0.35c0,0.17,0.17,0.36,0.35,0.33c0.28-0.04,0.57-0.12,0.72-0.38
					c0.12-0.23,0.07-0.48-0.04-0.7c-0.2-0.41-0.63-0.78-1.02-0.99c-1.12-0.6-2.46-0.27-3.51,0.31c-0.4,0.22-0.96,0.66-0.56,1.14
					c0.12,0.14,0.37,0.12,0.49-0.01C29.32,76.84,29.29,76.64,29.17,76.5L29.17,76.5z"/>
			</g>
			<g>
				<path d="M33.12,78.2c0.43-0.03,0.81-0.09,1.16-0.37c0.09-0.08,0.22-0.17,0.28-0.27c0.11-0.19,0.02-0.12,0.13-0.12
					c0.32,0.01,0.68,0.07,1.02,0.08c0.75,0.02,1.53-0.01,2.27,0.11c0.41,0.07,0.82,0.14,1.23,0.2c1.53,0.24,3.06,0.45,4.6,0.62
					c2.5,0.28,5.01,0.47,7.51,0.8c2.36,0.31,4.7,0.77,6.97,1.51c2.96,0.96,5.78,2.31,8.51,3.81c4.17,2.3,8.15,4.95,12.06,7.68
					c2.71,1.89,5.38,3.84,8.04,5.82c2.9,2.16,5.73,4.45,8.75,6.46c3,1.99,6.23,3.58,9.8,4.23c1.74,0.32,3.51,0.47,5.26,0.73
					c1.75,0.27,3.45,0.71,5.12,1.3c1.72,0.61,3.41,1.31,5.15,1.87c0.78,0.25,1.61,0.55,2.43,0.6c0.71,0.04,1.31-0.26,1.84-0.71
					c2.58-2.22,3.1-6.04,3.42-9.21c0.35-3.37,0.42-6.76,0.71-10.13c0.3-3.55,0.92-7.02,2.16-10.37c1.3-3.51,3-6.88,4.57-10.28
					c1.6-3.45,3.19-6.89,4.79-10.34c0.79-1.71,1.58-3.41,2.37-5.12c0.1-0.22,0-0.42-0.22-0.5c-5.5-1.89-10.66-4.64-15.54-7.77
					c-2.38-1.53-4.74-3.11-6.94-4.88c-2.05-1.65-4.05-3.42-6.36-4.68c-1.21-0.66-2.47-1.23-3.67-1.93
					c-1.24-0.72-2.44-1.51-3.57-2.39c-2.19-1.7-4.09-3.77-6.48-5.2c-2.4-1.44-5.12-2.32-7.76-3.22c-2.65-0.91-5.31-1.76-8-2.53
					c-5.37-1.54-10.83-2.78-16.37-3.56c-1.39-0.2-2.8-0.31-4.17-0.59c-1.28-0.27-2.53-0.66-3.78-1.05s-2.51-0.77-3.8-1
					c-0.76-0.14-1.47-0.14-2.11-0.62c-0.42-0.31-0.85-0.56-1.35-0.72c-0.9-0.28-2.18-0.29-2.98,0.27c-0.47,0.33-0.54,1-0.7,1.5
					c-0.21,0.64-0.51,1.24-0.71,1.88c-0.42,1.31-0.97,2.6-1.45,3.89c-0.48,1.3-0.96,2.6-1.44,3.9c-0.46,1.25-0.94,2.47-1.4,3.72
					c-0.47,1.27-1.3,2.37-1.75,3.64c-0.22,0.62-0.3,1.28-0.46,1.92c-0.16,0.69-0.36,1.36-0.58,2.03c-0.44,1.34-0.95,2.66-1.45,3.98
					c-0.5,1.33-1,2.66-1.48,4c-0.5,1.41-0.94,2.83-1.55,4.2c-0.29,0.65-0.62,1.29-0.98,1.9c-0.32,0.53-0.66,1.05-0.85,1.64
					c-0.2,0.62-0.22,1.28-0.36,1.91c-0.14,0.66-0.35,1.29-0.58,1.93c-1.88,5.34-3.9,10.63-5.84,15.94
					c-0.31,0.84-1.15,2.17-0.15,2.83c0.28,0.18,0.54-0.14,0.5-0.4c0-0.01,0-0.02,0-0.03c-0.06-0.35-0.59-0.29-0.67,0.02
					c0,0.01,0,0.02-0.01,0.02c-0.1,0.43,0.57,0.59,0.67,0.16c0-0.01,0-0.02,0.01-0.02c-0.22,0.01-0.44,0.01-0.67,0.02
					c0,0.01,0,0.02,0,0.03c0.17-0.13,0.33-0.27,0.5-0.4c-0.39-0.25,0.37-1.74,0.49-2.06c0.24-0.65,0.48-1.3,0.72-1.95
					c0.47-1.28,0.94-2.55,1.41-3.83c0.96-2.61,1.94-5.21,2.88-7.82c0.45-1.25,0.95-2.49,1.29-3.77c0.16-0.61,0.22-1.22,0.34-1.84
					c0.13-0.69,0.46-1.26,0.82-1.86c1.43-2.38,2.18-5.06,3.13-7.65c0.95-2.58,2.05-5.14,2.8-7.79c0.36-1.27,0.49-2.6,1.11-3.78
					c0.31-0.6,0.67-1.18,0.95-1.79c0.26-0.58,0.46-1.18,0.66-1.78c0.19-0.57,0.48-1.09,0.68-1.65c0.21-0.62,0.44-1.24,0.67-1.85
					c0.48-1.31,0.97-2.62,1.45-3.93c0.45-1.22,0.92-2.44,1.35-3.67c0.21-0.61,0.49-1.18,0.68-1.8c0.12-0.4,0.22-0.79,0.66-0.94
					c0.34-0.12,0.69-0.17,1.05-0.17c0.54,0,1.09,0.12,1.57,0.38c0.53,0.27,0.91,0.74,1.51,0.88c0.63,0.15,1.29,0.2,1.93,0.33
					c0.68,0.14,1.35,0.32,2.01,0.51c1.17,0.34,2.33,0.74,3.51,1.06c1.31,0.36,2.62,0.57,3.97,0.74c5.41,0.67,10.75,1.78,16.01,3.21
					c2.6,0.7,5.18,1.48,7.73,2.32c2.65,0.87,5.34,1.72,7.88,2.87c1.33,0.6,2.59,1.33,3.75,2.23c1.05,0.81,2.02,1.71,3.02,2.58
					c2.04,1.78,4.26,3.31,6.65,4.58c1.17,0.62,2.37,1.15,3.48,1.86c1.13,0.72,2.19,1.55,3.24,2.39c2.05,1.65,4.1,3.25,6.27,4.74
					c4.64,3.16,9.5,6.04,14.69,8.21c1.23,0.51,2.47,0.99,3.73,1.42c-0.07-0.17-0.15-0.33-0.22-0.5c-3.17,6.85-6.35,13.69-9.51,20.54
					c-1.48,3.21-2.88,6.46-3.63,9.93c-0.71,3.3-0.92,6.69-1.11,10.05c-0.2,3.4-0.25,6.95-1.13,10.26c-0.44,1.65-1.2,3.42-2.56,4.54
					c-0.81,0.66-1.64,0.46-2.57,0.2c-0.85-0.24-1.68-0.52-2.5-0.82c-1.72-0.62-3.41-1.32-5.16-1.85c-1.68-0.51-3.4-0.79-5.14-1.01
					c-1.72-0.22-3.45-0.41-5.14-0.82c-1.77-0.43-3.46-1.13-5.07-1.97c-3.26-1.72-6.16-4.01-9.09-6.23c-2.72-2.06-5.48-4.1-8.25-6.09
					c-4.15-2.97-8.37-5.87-12.77-8.45c-2.87-1.68-5.84-3.22-8.96-4.39c-2.28-0.85-4.64-1.46-7.05-1.85
					c-2.37-0.38-4.77-0.57-7.16-0.81c-1.39-0.14-2.79-0.3-4.17-0.48c-0.8-0.11-1.6-0.22-2.4-0.35c-0.41-0.07-0.82-0.13-1.23-0.2
					c-0.71-0.12-1.44-0.09-2.15-0.11c-0.35-0.01-0.71,0-1.05-0.08c-0.17-0.04-0.31-0.1-0.48,0c-0.25,0.15-0.37,0.48-0.63,0.63
					c-0.19,0.11-0.41,0.12-0.63,0.13C32.66,77.54,32.68,78.23,33.12,78.2L33.12,78.2z"/>
			</g>
			<g>
				<path d="M34.6,77.42c0.3-0.35,0.45-0.8,0.6-1.23c0.25-0.74,0.46-1.49,0.66-2.24c0.33-1.21,0.66-2.43,1-3.64
					c0.5-1.77,1.01-3.53,1.55-5.29c0.73-2.4,1.5-4.79,2.3-7.18c0.12-0.35,0.23-0.69,0.35-1.04c0.06-0.18-0.09-0.37-0.26-0.41
					c-0.2-0.05-0.35,0.08-0.41,0.26c-0.83,2.45-1.63,4.9-2.39,7.37c-0.57,1.83-1.11,3.67-1.63,5.51c-0.36,1.27-0.71,2.55-1.06,3.83
					c-0.22,0.81-0.44,1.63-0.7,2.43c-0.04,0.14-0.09,0.27-0.14,0.41c-0.01,0.03-0.02,0.06-0.03,0.09c-0.01,0.01-0.01,0.03-0.02,0.04
					c-0.02,0.05,0.04-0.09,0.01-0.03c-0.02,0.05-0.04,0.11-0.07,0.16c-0.07,0.17-0.17,0.32-0.25,0.48
					c-0.03,0.05,0.07-0.09,0.02-0.02c-0.01,0.01-0.02,0.03-0.03,0.04C33.82,77.28,34.31,77.76,34.6,77.42L34.6,77.42z"/>
			</g>
			<g>
				<path d="M41.07,56.8c0.01-0.03,0.02-0.05,0.03-0.08c0.01-0.01,0.01-0.03,0.02-0.04c0.02-0.06-0.03,0.09,0,0.01
					c0.04-0.1,0.08-0.19,0.12-0.29c0.11-0.28,0.23-0.56,0.34-0.84c0.33-0.8,0.66-1.59,0.99-2.39c0.72-1.74,1.45-3.48,2.17-5.22
					c0.22-0.53,0.45-1.06,0.64-1.61c0.06-0.18-0.09-0.37-0.26-0.41c-0.2-0.05-0.35,0.08-0.41,0.26c-0.01,0.03-0.02,0.05-0.03,0.08
					c-0.01,0.01-0.01,0.03-0.02,0.04c-0.02,0.06,0.03-0.09,0-0.01c-0.04,0.1-0.08,0.19-0.12,0.29c-0.11,0.28-0.23,0.56-0.34,0.84
					c-0.33,0.8-0.66,1.59-0.99,2.39c-0.72,1.74-1.45,3.48-2.17,5.22c-0.22,0.53-0.45,1.06-0.64,1.61c-0.06,0.18,0.09,0.37,0.26,0.41
					C40.85,57.1,41,56.98,41.07,56.8L41.07,56.8z"/>
			</g>
			<g>
				<path d="M45.36,46.33c1.43-4,2.71-8.04,4.09-12.05c0.69-2.01,1.43-4.01,2.13-6.03c0.57-1.64,1.2-3.25,1.85-4.85
					c0.73-1.78,1.48-3.56,2.06-5.4c0.13-0.42-0.54-0.58-0.67-0.16c-1.02,3.24-2.55,6.29-3.65,9.49c-0.69,2.02-1.43,4.03-2.13,6.04
					S47.67,37.4,47,39.41c-0.75,2.26-1.51,4.51-2.31,6.75c-0.06,0.18,0.09,0.37,0.26,0.41C45.14,46.63,45.3,46.51,45.36,46.33
					L45.36,46.33z"/>
			</g>
			<g>
				<path d="M58.77,13.49c-0.44,0.8-0.95,1.29-1.77,1.71c-0.17,0.09-0.38,0.02-0.46-0.15c-0.09-0.17-0.02-0.38,0.15-0.46
					c0.69-0.35,1.11-0.75,1.47-1.42c1.03-1.88,0.28-4.28-1.68-5.35S52.1,7.4,51.07,9.28c-0.64,1.17-0.62,2.57,0.06,3.76
					c0.09,0.17,0.04,0.38-0.13,0.47c-0.17,0.09-0.38,0.04-0.47-0.13c-0.79-1.4-0.82-3.06-0.06-4.43c1.21-2.21,4.06-3,6.35-1.74
					C59.11,8.46,59.98,11.28,58.77,13.49z"/>
			</g>
		</g>
	</g>
</g>
</svg>
