<?xml version="1.0" encoding="utf-8"?>
<!-- Generator: Adobe Illustrator 28.0.0, SVG Export Plug-In . SVG Version: 6.00 Build 0)  -->
<svg version="1.1" id="Layer_1" xmlns="http://www.w3.org/2000/svg" xmlns:xlink="http://www.w3.org/1999/xlink" x="0px" y="0px"
	 viewBox="0 0 800 800" style="enable-background:new 0 0 800 800;" xml:space="preserve">
<style type="text/css">
	.st0{fill:#F00000;}
	.st1{fill:#111111;}
	.st2{fill:#FFFFFF;}
	.st3{fill:#50A2CC;}
	.st4{fill:#C60505;}
	.st5{fill:url(#SVGID_1_);}
	.st6{fill:url(#SVGID_00000094611994908974671570000004681269333087604645_);}
	.st7{fill:url(#SVGID_00000116932151253707757870000014520693725108389514_);}
	.st8{fill:url(#SVGID_00000085252338750525498740000008295497824495653310_);}
	.st9{fill:url(#SVGID_00000135691722121509170550000015589478764829227962_);}
	.st10{fill:url(#SVGID_00000000190718029549325560000013628788720578952594_);}
	.st11{fill:url(#SVGID_00000042724590382988531730000008850951914430635944_);}
	.st12{fill:url(#SVGID_00000149378008996492089470000007014233413320266923_);}
	.st13{fill:url(#SVGID_00000075123165518677190720000017061617640277316994_);}
	.st14{fill:url(#SVGID_00000122719946261653325200000008767733303947839917_);}
	.st15{fill:url(#SVGID_00000044890678163295061380000009605314502905674910_);}
	.st16{fill:#F4D800;}
	.st17{fill:#BC0202;}
	.st18{fill:none;stroke:#000000;stroke-miterlimit:10;}
</style>
<g id="_x34_-WEAR__x5B_POLO_CUCK_x5D__VOJAK__x2B_">
	<g id="color_00000183216839988299491800000011537558617304476328_">
		<path class="st0" d="M320.12,272.61c0.61,6.93,1.02,13.87,1.24,20.82c0.32,10.09,0.37,20.18-0.87,30.19
			c-0.04,0.36-0.09,0.73-0.24,1.07c-0.12,0.27-0.31,0.51-0.49,0.75c-0.66,0.85-1.54,1.7-2.68,1.37c-1.04-0.3-1.72-1.44-2.81-1.84
			c-1.23-0.46-2.47-0.91-3.7-1.37c-0.13-0.05-0.29-0.09-0.39,0.01c-0.08,0.08-0.07,0.22-0.04,0.34c0.51,2.54,2.7,4.5,4.69,6.06
			c1.75,1.37,3.95,2.3,6.16,2.07c2.51-0.26,4.64-1.93,6.47-3.67c1.25-1.19,2.45-2.45,3.49-3.83c0.73-0.96,1.47-2.05,2.62-2.39
			c0.45,0.84,0.49,1.84,0.51,2.8c0.06,2.8,0.13,5.6,0.19,8.4c0.03,1.32,0.06,2.65-0.15,3.96c-0.17,1.05-0.49,2.06-0.73,3.09
			c-0.87,3.76-0.17,7.65,0.1,11.43c0.3,4.16,0.15,8.36-0.45,12.49c-0.2,1.37-0.45,2.72-0.71,4.08c-0.25,1.28-0.76,2.69-0.61,3.99
			c0.15,1.33,0.23,2.61,0.24,3.97c0.03,3.81,0.05,7.61,0.08,11.42c0.01,1.08,0.05,2.26,0.78,3.05c0.39,0.43,0.94,0.68,1.49,0.88
			c4.39,1.6,9.27,0.23,13.93,0.68c2.53,0.24,5.24-0.05,7.8-0.17c13.42-0.61,26.7-2.77,39.97-4.73c13.21-1.95,26.51-3.73,39.89-3.64
			c5.45,0.04,10.97,0.63,16.44,0.18c1.18-0.1,2.35-0.24,3.53-0.24c1.92,0,3.82,0.39,5.72,0.73c6.93,1.24,14.49,2.31,21.49,1.02
			c1.29-0.24,2.63-0.75,3.36-1.88c1.16-1.8,1.59-3.98,1.75-6.12c0.21-2.77,0.17-5.52,0.6-8.26c0.45-2.86,0.85-5.72,1.19-8.59
			c0.67-5.67,1.12-11.37,1.3-17.07c0.31-9.96-1.05-19.71-1.67-29.61c-0.08-1.32-0.15-2.65,0.04-3.96c0.3-2.1,1.23-4.04,1.99-6.02
			c1.5-3.93,2.33-8.12,2.43-12.33c0.01-0.61,0.1-1.35,0.66-1.59c2.1,0.72,3.23,3.17,4.46,4.86c1.55,2.13,3.15,4.23,4.8,6.3
			c0.78,0.98,1.57,1.95,2.41,2.88c2.05,2.27,4.63,4.78,7.4,6.13c0.71-0.71,0.47-1.48,0.67-2.38c0.23-1,0.74-2.02,1.36-2.83
			c1.33-1.73,3.39-2.71,5.38-3.62c1.9-0.87,3.81-1.75,5.79-2.42c5.32-1.81,11.07-2.1,16.65-1.47s11.02,2.18,16.34,3.99
			c1.27,0.43,2.71,0.86,3.88,0.21c1.95-1.09,1.72-4.04,1.13-5.81c-0.31-0.95-0.68-1.89-0.92-2.88c-0.41-1.62-0.81-3.24-1.22-4.87
			c-1.66-6.62-3.31-13.25-4.97-19.87c-0.9-3.62-1.81-7.24-3.02-10.77c-0.96-2.78-2.1-5.5-3.27-8.2c-2.49-5.76-5.1-11.48-7.82-17.14
			c-2.64-5.5-4.16-11.63-6.05-17.44c-0.92-2.83-1.85-5.67-2.85-8.47c-1.96-5.46-4.22-10.86-7.33-15.77
			c-1.55-2.46-3.36-4.65-5.26-6.84c-1.85-2.14-3.67-4.47-6.08-6.04c-5.24-3.42-11.37-5.38-17.24-7.4
			c-9.87-3.41-19.68-6.98-29.42-10.72c-0.55-0.21-1.13-0.44-1.54-0.87c-0.32-0.33-0.51-0.76-0.69-1.18
			c-0.89-2.12-1.55-4.34-2.55-6.41s-2.38-4.04-4.35-5.23c-1.14-0.68-2.37-1.25-3.52-1.9c-0.65-0.37-1.99-1.04-2.67-0.43
			c-0.26,0.23-0.34,0.6-0.39,0.94c-0.33,2.09-0.17,4.26,0.46,6.29c0.12,0.37,0.25,0.77,0.14,1.14s-0.44,0.63-0.75,0.86
			c-13.17,9.84-30.33,12.75-46.77,12.58c-1.05-0.01-2.64,0.11-3.58-0.45c-0.74-0.44-0.88-1.34-1.02-2.17
			c-0.1-0.57-0.2-1.14-0.3-1.72c-0.07-0.39-0.14-0.78-0.14-1.17c0-0.66,0.6-5.28-0.68-5.32c-0.96-0.03-1.86,0.38-2.73,0.77
			c-1.26,0.58-2.55,1.18-3.53,2.16c-0.93,0.94-1.52,2.16-2.13,3.34c-1.02,1.96-2.15,3.86-3.39,5.69c-0.73,1.08-1.52,2.15-2.55,2.95
			c-0.7,0.54-1.49,0.94-2.27,1.34c-2.69,1.36-5.39,2.69-8.1,4c-11.03,5.33-22.73,9.84-31.26,19.06c-4.33,4.68-8.29,10.3-10.15,16.45
			c-0.32,1.04-0.58,2.11-0.93,3.14c-0.43,1.23-0.99,2.42-1.54,3.6c-1.76,3.71-3.51,7.42-5.64,10.94c-0.9,1.5-1.86,2.75-2.34,4.42
			c-0.57,1.98-1.74,3.94-2.7,5.75c-1.25,2.35-2.64,4.64-4.29,6.73c-0.74,0.94-1.57,1.82-2.28,2.76c-0.71,0.94-1.73,1.56-2.61,2.33
			c-0.74,0.65-1.51,1.36-1.73,2.31c-0.17,0.74,0.04,1.53,0.38,2.2c0.35,0.68,0.83,1.28,1.26,1.9c0.64,0.93,1.2,1.96,2.07,2.69
			c0.76,0.64,1.71,1.02,2.62,1.41c0.15,0.06,0.3,0.13,0.42,0.24c0.25,0.24,0.31,0.67,0.44,0.98c0.2,0.48,0.33,1.02,0.46,1.52
			c0.28,1.03,0.51,2.08,0.7,3.14C319.71,268.43,319.94,270.52,320.12,272.61z"/>
		<path class="st1" d="M538.81,292.39c-0.41-0.61-0.85-1.2-1.32-1.77c-0.43-0.52-1.14-1.58-1.77-1.85
			c-0.57-0.24-1.31,0.08-1.92,0.19c-1.04,0.18-2.1,0.11-3.15,0.12c-5.73,0.06-12.29,1.76-16.99,5.14c-1.73,1.24-3.21,2.8-4.68,4.34
			c0.12-1.57,1.76-3.64,2.78-4.79c1.21-1.37,2.73-2.47,4.35-3.31c2.88-1.5,6.07-2.27,9.19-3.19c1.56-0.46,8.23-1.91,8.42-3.39
			c0.11-0.82-0.8-2.41-1.1-3.14c-0.61-1.48-1.22-2.97-1.84-4.45c-1.11-2.66-1.68-5.53-4.28-7.26c-3.09-1.54-6.25-1.64-9.45-2.71
			c-0.87-0.29-1.81-0.64-2.27-1.42c3.7-0.53,7.51-0.24,11.08,0.86c0.25,0.08,0.43,0.08,0.55-0.15c-0.41-0.71-0.63-1.51-1-2.24
			c-0.57-1.1-1.02-2.25-1.59-3.35c-0.98-1.91-1.9-3.85-2.94-5.73c-0.86-1.55-1.22-2.9-1.69-4.55c-0.9-3.2-2.56-6.76-5.22-8.84
			c-1.79-1.41-3.82-2.5-5.58-3.95c-3.82-3.14-6.13-7.71-8.59-12.01c-7.06-12.34-16.17-23.38-25.63-33.99
			c-2.02-2.27-4.07-4.53-6.42-6.43c-1.65-1.33-3.67-2.25-5.15-3.75c-1.3-1.32-2.52-2.38-4.14-3.36c-1.46-0.89-2.99-1.69-4.56-2.37
			c-1.23-0.53-3.42-1.82-4.7-1.07c-1.51,0.88-3.01,1.76-4.52,2.65c-0.52,0.3-1.12,0.77-1.01,1.36c0.05,0.24,0.21,0.45,0.36,0.64
			c2.3,2.82,4.43,5.82,6.52,8.81c4.38,6.28,8.27,12.96,10.69,20.26c2.69,8.11,4.85,16.38,6.88,24.68c0.47,1.91,0.93,3.82,1.38,5.73
			c0.23,0.95,0.45,1.91,0.68,2.86c0.21,0.87,0.63,1.64,0.78,2.54c0.07,0.42,0.1,0.85,0.25,1.25c0.27,0.71,0.87,1.24,1.43,1.76
			c2.59,2.41,4.73,5.26,6.85,8.09c-2.22-1.57-4.55-3-6.96-4.26c0.49,4.19,1.58,8.32,2.34,12.47c0.13,0.71,0.21,1.46,0.48,2.14
			c0.59,1.48,2.09,2.36,3.41,3.25c2.22,1.48,4.22,3.29,5.93,5.33c-0.73,0.01-1.43-0.3-2.09-0.62c-1.88-0.91-3.7-1.96-5.42-3.14
			c-0.32-0.22-0.66-0.46-1.05-0.52c0.39,2.12,0.56,4.27,0.87,6.42c0.18,1.21,0.34,2.41,0.51,3.62c0.66,4.95,1.39,9.99,3.25,14.65
			c2.06,5.16,5.6,8.48,9.64,12.13c2.06-1.76,3.02-4.5,3.37-7.19s0.17-5.41,0.4-8.11c0.03-0.33,0.16-0.75,0.49-0.76
			c0.25-0.01,0.42,0.25,0.55,0.47c3.34,6.11,8.31,11.15,13.2,16.1c1.33,1.34,2.73,2.73,4.51,3.35c0.43,0.15,0.94,0.24,1.31-0.04
			c0.28-0.21,0.39-0.59,0.49-0.93c1.31-4.2,5.44-6.79,9.36-8.78c1.14-0.58,2.29-1.14,3.5-1.55c3.8-1.28,7.99-0.99,11.79-2.27
			c0.46-0.16,0.99-0.44,0.99-0.93c0-0.16-0.07-0.32-0.14-0.47C539.83,294.06,539.35,293.21,538.81,292.39z"/>
		<path class="st1" d="M390.65,181.36c-0.96-1-1.93-1.99-2.89-2.99c-3.2,1.66-6.4,3.31-9.54,5.09
			c-11.76,6.64-23.51,14.03-31.21,25.44c-2.77,4.1-5.1,8.5-6.99,13.08c-1.71,4.14-4.1,9.46-3.74,14.03
			c0.06,0.79,0.31,1.55,0.51,2.31c0.64,2.36,0.95,4.81,0.9,7.26c-0.72-1.07-1.52-2.08-2.39-3.03c-0.22-0.24-0.57-0.5-0.84-0.32
			c-0.17,0.11-0.21,0.32-0.25,0.52c-0.28,1.6-0.88,2.97-1.23,4.51c-0.44,1.91-0.55,3.97-0.72,5.92c-0.34,3.97-0.43,7.95-0.51,11.93
			c-0.09,4.78-0.15,9.57-0.56,14.34c-0.38,4.4-1.64,8.78-1.76,13.18c-0.01,0.49,0,0.99,0,1.48c0.01,3.45-0.36,6.89-0.87,10.31
			c-0.56-2.83-0.8-5.73-0.72-8.61c-0.57,0.29-0.79,1.47-1.04,2c-0.44,0.93-0.93,1.84-1.46,2.73c-1.63,2.71-3.63,4.94-4.17,8.13
			c-0.61,3.58,0.12,7.44,0.16,11.06c0.01,1.08,0.1,2.16,0.05,3.25c-0.02,0.5-0.02,0.83-0.23,1.3c-0.23,0.5-0.52,0.96-0.87,1.37
			c-0.13,0.16-0.28,0.31-0.46,0.4c-0.16,0.08-0.34,0.11-0.52,0.13c-1.39,0.14-3.06-0.18-4.26-0.86c-1.38-0.79-2.86-1.39-4.4-1.78
			c-0.11-0.03-0.23-0.06-0.34-0.02c-0.2,0.06-0.3,0.3-0.27,0.51c0.06,0.37,0.29,0.89,0.44,1.24c0.21,0.47,0.47,0.91,0.77,1.32
			c0.57,0.81,1.27,1.54,1.98,2.24c0.68,0.67,1.43,1.28,2.25,1.77c0.8,0.47,1.59,0.6,2.44,0.89c0.45,0.15,0.92,0.27,1.4,0.34
			c3.81,0.51,6.72-2.19,9.23-4.64c2.17-2.12,5.85-4.58,6.12-7.88c0.06-0.7,0.01-1.43-0.12-2.18c1.03-6.28,2.25-12.56,3.51-18.85
			c2.1-2.78,3.05-6.23,3.85-9.66c1.29-5.54,2.31-11.1,3.11-16.73c1.71-11.86,3.45-23.67,6.74-35.23
			c2.86-10.03,7.01-19.82,13.21-28.26c3.61-4.82,7.97-8.91,12.63-12.72c4.73-3.86,9.41-7.72,14.18-11.5
			c0.28-0.22,0.59-0.51,0.55-0.86c-0.02-0.24-0.2-0.43-0.37-0.6C391.5,182.25,391.08,181.81,390.65,181.36z"/>
		<path class="st2" d="M560.98,279.76c-0.17-0.58-0.47-1.17-0.75-1.71c-0.08-0.15-0.17-0.3-0.25-0.45c0.41-1.3-0.22-2.95-1.68-3.24
			c-1.83-0.36-3.67-0.49-5.53-0.65c-1.68-0.15-3.43-0.36-5,0.41c-1.58,0.77-2.31,2.53-1.77,4.23c0.11,0.36,0.26,0.68,0.42,0.99
			c0.12,0.85,0.34,1.67,0.6,2.37c0.96,2.56,4.01,2.75,6.38,2.88c2.17,0.12,5.68,0.46,7.18-1.48
			C561.31,282.15,561.31,280.88,560.98,279.76z"/>
		<path class="st3" d="M557.55,279.61c-0.1-0.04-0.17-0.09-0.24-0.16c0,0,0,0,0-0.01c0.06-0.06,0.12-0.12,0.19-0.17
			c0.42-0.37-0.02-1.16-0.56-0.97c-0.14,0.05-0.27,0.13-0.38,0.22c-0.16-0.12-0.38-0.16-0.59-0.01c-0.27,0.18-0.56,0.32-0.84,0.49
			c-0.04,0.03-0.08,0.05-0.12,0.08c0.02-0.16,0.06-0.32,0.11-0.47c0.18-0.55-0.6-1.01-0.99-0.58c-0.33,0.37-0.69,0.71-1.06,1.05
			c-0.56-0.4-1.15-0.76-1.76-1.08c-0.1-0.05-0.2-0.07-0.29-0.06c-0.08-0.02-0.17-0.01-0.25,0.03c-0.05,0.02-0.1,0.07-0.12,0.11
			c0,0.01,0,0.02-0.01,0.03c-0.23,0.24-0.28,0.65,0.1,0.87c0.13,0.07,0.25,0.16,0.37,0.24c0.12,0.19,0.25,0.37,0.37,0.56
			c0.17,0.27,0.34,0.71,0.61,0.87c0.29,0.17,0.82,0.08,1.14,0.09c0.71,0.02,1.42,0.06,2.11,0.21c0.4,0.09,0.75,0.16,1.16,0.07
			c0.35-0.08,0.71-0.19,1.06-0.28C558.13,280.57,558.06,279.79,557.55,279.61z"/>
		<path class="st3" d="M559.39,282.09c-0.44-0.11-0.9-0.01-1.34-0.01c-0.45,0-0.9-0.03-1.35-0.1c-0.4-0.06-0.74,0.16-0.76,0.58
			c0.01-0.18-0.41-0.12-0.55-0.14c-0.21-0.02-0.42-0.04-0.64-0.06c-0.48-0.04-0.95-0.08-1.43-0.11c-0.45-0.03-0.9-0.07-1.35-0.05
			c-0.36,0.01-0.78,0-1.08,0.23c-0.08,0.06-0.05,0.18,0,0.25c0.32,0.39,1.1,0.46,1.58,0.54c0.6,0.1,1.2,0.18,1.81,0.25
			c0.78,0.1,2.07,0.39,2.62-0.25c0.36,0.05,0.72,0.09,1.08,0.1c0.52,0.01,1.09,0.04,1.55-0.21
			C559.95,282.89,559.85,282.2,559.39,282.09z"/>
		<path class="st4" d="M409.14,176.91c-0.19-0.56-0.58-1.11-1.12-1.38c-0.29-0.15-0.6-0.21-0.92-0.21
			c-0.32-0.14-0.67-0.19-1.02-0.05c-0.62,0.25-0.93,0.85-1.02,1.49c-0.1,0.36-0.17,0.75-0.19,1.1c-0.03,0.53,0.11,1.04,0.44,1.45
			c0.24,0.29,0.57,0.51,0.94,0.58c0.04,0.02,0.08,0.05,0.13,0.07c0.1,0.02,0.21,0.03,0.31,0.02c0.17,0.16,0.36,0.28,0.6,0.34
			c0.59,0.16,1.16-0.12,1.5-0.61c0.17-0.24,0.24-0.54,0.31-0.83C409.25,178.26,409.36,177.55,409.14,176.91z"/>
		<path class="st4" d="M410.23,194.44c-0.01-0.27-0.05-0.54-0.15-0.79c-0.05-0.12-0.1-0.27-0.18-0.38
			c-0.02-0.03-0.04-0.06-0.06-0.09c-0.17-0.22-0.21-0.27-0.11-0.14s0.06,0.08-0.11-0.14c-0.26-0.31-0.61-0.52-0.99-0.65
			c-0.25-0.24-0.52-0.44-0.85-0.57c-1.03-0.39-2.06,0.27-2.62,1.11c-0.41,0.61-0.58,1.42-0.5,2.14c0.09,0.85,0.42,1.65,1.05,2.25
			c0.77,0.72,1.99,1.16,2.89,0.46c0.01-0.01,0.01-0.01,0.02-0.02c0.06-0.05,0.12-0.08,0.18-0.14c0.02-0.02,0.03-0.04,0.04-0.05
			c0.22-0.02,0.44-0.07,0.62-0.18c0.53-0.32,0.75-0.88,0.73-1.48c-0.01-0.23-0.01-0.46-0.02-0.7
			C410.21,194.85,410.24,194.64,410.23,194.44z"/>
		<path class="st4" d="M409.9,209.11c-0.21-0.47-0.58-0.79-1-0.99c-0.05-0.03-0.11-0.06-0.17-0.08c-0.02-0.01-0.03-0.02-0.05-0.02
			c-0.24-0.1-0.51-0.16-0.8-0.14c-0.05,0-0.1,0.02-0.15,0.03c-0.07,0.01-0.14,0.01-0.21,0.02c-0.37-0.04-0.72,0.04-1.04,0.21
			c-0.43,0.12-0.83,0.35-1.13,0.67c-0.82,0.88-0.85,2.18-0.38,3.25c0.01,0.02,0.01,0.04,0.02,0.06c0.15,0.41,0.39,0.81,0.71,1.12
			c0.11,0.16,0.23,0.32,0.38,0.46c0.65,0.62,1.68,0.85,2.49,0.44c0.17-0.03,0.34-0.09,0.49-0.18c0.79-0.49,0.96-1.52,1.08-2.37
			C410.24,210.74,410.26,209.89,409.9,209.11z"/>
		<path d="M406.49,209.62c-0.67,0-0.67,1.04,0,1.04C407.16,210.66,407.16,209.62,406.49,209.62z"/>
		<path d="M408.29,211.41c-0.76,0-0.77,1.19,0,1.19C409.06,212.59,409.06,211.41,408.29,211.41z"/>
		<path d="M406.54,193.62c-0.84,0-0.85,1.31,0,1.31C407.38,194.94,407.38,193.62,406.54,193.62z"/>
		<path d="M409,195.87c-0.03-0.11-0.08-0.2-0.16-0.28c-0.04-0.03-0.08-0.06-0.13-0.1c-0.1-0.06-0.2-0.08-0.31-0.09
			c-0.09,0-0.17,0.01-0.24,0.05c-0.08,0.03-0.14,0.07-0.2,0.13s-0.1,0.12-0.13,0.2c-0.04,0.07-0.06,0.15-0.05,0.24
			c0.01,0.06,0.01,0.11,0.02,0.17c0.03,0.11,0.08,0.2,0.16,0.28c0.04,0.03,0.08,0.06,0.13,0.1c0.1,0.06,0.2,0.08,0.31,0.09
			c0.09,0,0.17-0.01,0.24-0.05c0.08-0.03,0.14-0.07,0.2-0.13s0.1-0.12,0.13-0.2c0.04-0.07,0.06-0.15,0.05-0.24
			C409.02,195.98,409.01,195.93,409,195.87z"/>
		<path d="M406.1,176.5c-0.64,0-0.64,1,0,1C406.74,177.5,406.74,176.5,406.1,176.5z"/>
		<path d="M407.27,177.97c-0.44,0-0.44,0.69,0,0.69S407.71,177.97,407.27,177.97z"/>
	</g>
	<g id="sh_00000037692394002986065760000001193940453479988399_">
		
			<linearGradient id="SVGID_1_" gradientUnits="userSpaceOnUse" x1="409.2466" y1="596.344" x2="407.9689" y2="627.0092" gradientTransform="matrix(1 0 0 -1 0 799.8898)">
			<stop  offset="0" style="stop-color:#000000"/>
			<stop  offset="0.0904" style="stop-color:#0B0000;stop-opacity:0.9096"/>
			<stop  offset="0.2496" style="stop-color:#280000;stop-opacity:0.7504"/>
			<stop  offset="0.4588" style="stop-color:#580000;stop-opacity:0.5412"/>
			<stop  offset="0.7099" style="stop-color:#9B0000;stop-opacity:0.2901"/>
			<stop  offset="0.994" style="stop-color:#EE0000;stop-opacity:6.035566e-03"/>
			<stop  offset="1" style="stop-color:#F00000;stop-opacity:0"/>
		</linearGradient>
		<path class="st5" d="M401.08,181.7c-0.09,0.4-0.16,0.81-0.15,1.22c0.02,0.56,0.21,1.1,0.4,1.62c0.26,0.71,0.51,1.43,0.77,2.14
			c0.1,0.29,0.21,0.59,0.42,0.82c0.17,0.19,0.4,0.31,0.62,0.43c1.73,0.94,3.61,1.86,5.56,1.67c1.25-0.12,2.41-0.69,3.49-1.33
			c1.12-0.67,2.18-1.43,3.16-2.27c0.22-0.18,0.44-0.38,0.53-0.65c0.16-0.45-0.08-0.94-0.31-1.36c-2.97-5.36-5.68-10.86-8.14-16.48
			c-0.17-0.38-0.43-0.83-0.84-0.81c-0.63,0.02-1.32,1.78-1.51,2.3c-0.48,1.36-0.63,2.89-1.12,4.27
			C403.01,176.08,401.72,178.79,401.08,181.7z"/>
		
			<linearGradient id="SVGID_00000053507122291873116670000000911181323665508799_" gradientUnits="userSpaceOnUse" x1="434.8892" y1="594.9445" x2="404.7932" y2="597.7165" gradientTransform="matrix(1 0 0 -1 0 799.8898)">
			<stop  offset="0" style="stop-color:#000000"/>
			<stop  offset="0.0904" style="stop-color:#0B0000;stop-opacity:0.9096"/>
			<stop  offset="0.2496" style="stop-color:#280000;stop-opacity:0.7504"/>
			<stop  offset="0.4588" style="stop-color:#580000;stop-opacity:0.5412"/>
			<stop  offset="0.7099" style="stop-color:#9B0000;stop-opacity:0.2901"/>
			<stop  offset="0.994" style="stop-color:#EE0000;stop-opacity:6.035566e-03"/>
			<stop  offset="1" style="stop-color:#F00000;stop-opacity:0"/>
		</linearGradient>
		<path style="fill:url(#SVGID_00000053507122291873116670000000911181323665508799_);" d="M415.21,192.64
			c-1.56,5.53-2.06,11.35-1.47,17.06c0.2,1.97,0.53,3.98,0.05,5.9s-2.04,3.74-4.01,3.79c1.11,0.38,2.32,0.19,3.47,0
			c1.47-0.25,3.13-0.61,3.89-1.9c0.27-0.46,0.4-0.98,0.49-1.5c0.74-4.16-0.26-8.46,0.19-12.67c0.2-1.9,0.71-3.76,1.12-5.63
			c0.41-1.83,0.74-3.69,1.01-5.54c0.11-0.72,0.2-1.45,0.07-2.17c-0.2-1.09-2.2-4.4-3.43-3.32c-0.58,0.5-0.42,2.24-0.57,2.93
			C415.82,190.62,415.49,191.63,415.21,192.64z"/>
		
			<linearGradient id="SVGID_00000116234363932648170620000014995772498573029792_" gradientUnits="userSpaceOnUse" x1="428.5124" y1="573.6256" x2="406.6005" y2="573.3616" gradientTransform="matrix(1 0 0 -1 0 799.8898)">
			<stop  offset="0" style="stop-color:#000000"/>
			<stop  offset="0.0904" style="stop-color:#0B0000;stop-opacity:0.9096"/>
			<stop  offset="0.2496" style="stop-color:#280000;stop-opacity:0.7504"/>
			<stop  offset="0.4588" style="stop-color:#580000;stop-opacity:0.5412"/>
			<stop  offset="0.7099" style="stop-color:#9B0000;stop-opacity:0.2901"/>
			<stop  offset="0.994" style="stop-color:#EE0000;stop-opacity:6.035566e-03"/>
			<stop  offset="1" style="stop-color:#F00000;stop-opacity:0"/>
		</linearGradient>
		<path style="fill:url(#SVGID_00000116234363932648170620000014995772498573029792_);" d="M403.58,221.44
			c0.71,0.69,1.78,0.81,2.77,0.89c1.9,0.16,3.8,0.32,5.71,0.48c0.28,0.02,0.58,0.05,0.81,0.21c0.44,0.29,0.52,0.89,0.55,1.42
			c0.05,1.03,0.04,2.06-0.03,3.09c-0.03,0.45-0.07,0.92-0.26,1.33c-0.33,0.72-1.03,1.18-1.72,1.56c-2.57,1.44-5.38,2.45-8.28,2.98
			c2.92,0.27,5.83,0.53,8.75,0.8c0.57,0.05,1.15,0.1,1.69-0.05c0.62-0.17,1.15-0.6,1.59-1.07c1.36-1.47,2.03-3.46,2.25-5.45
			c0.21-1.99,0-3.99-0.21-5.98c-0.07-0.66-0.19-1.41-0.75-1.76c-0.35-0.22-0.8-0.23-1.22-0.23c-2.97-0.02-5.93-0.24-8.88-0.64
			c-0.77-0.1-2.13-0.56-2.81,0.04C402.87,219.62,402.99,220.86,403.58,221.44z"/>
		
			<linearGradient id="SVGID_00000139291638988045750350000000785013400638210450_" gradientUnits="userSpaceOnUse" x1="399.5108" y1="628.0086" x2="387.6309" y2="608.3407" gradientTransform="matrix(1 0 0 -1 0 799.8898)">
			<stop  offset="0" style="stop-color:#000000"/>
			<stop  offset="0.0904" style="stop-color:#0B0000;stop-opacity:0.9096"/>
			<stop  offset="0.2496" style="stop-color:#280000;stop-opacity:0.7504"/>
			<stop  offset="0.4588" style="stop-color:#580000;stop-opacity:0.5412"/>
			<stop  offset="0.7099" style="stop-color:#9B0000;stop-opacity:0.2901"/>
			<stop  offset="0.994" style="stop-color:#EE0000;stop-opacity:6.035566e-03"/>
			<stop  offset="1" style="stop-color:#F00000;stop-opacity:0"/>
		</linearGradient>
		<path style="fill:url(#SVGID_00000139291638988045750350000000785013400638210450_);" d="M383.14,174.55
			c-0.16,1.49,0.24,2.97,0.63,4.42c0.58,2.12,1.19,4.31,2.5,6.07c2.42,3.23,6.69,4.42,9.77,7.04c1.46,1.24,2.71,2.84,4.52,3.47
			c0.46-4.08,0.52-8.21,0.16-12.3c-1.09,0-1.49,1.56-2.51,1.93c-0.62,0.23-1.31-0.05-1.91-0.35c-4.33-2.23-7.67-6.32-8.98-11.01
			c-0.34-1.23-0.58-3.1-2.23-2.54C383.91,171.67,383.26,173.43,383.14,174.55z"/>
		
			<linearGradient id="SVGID_00000181059331161599119860000011893819988073804732_" gradientUnits="userSpaceOnUse" x1="436.8569" y1="632.7851" x2="448.0769" y2="609.8172" gradientTransform="matrix(1 0 0 -1 0 799.8898)">
			<stop  offset="0" style="stop-color:#000000"/>
			<stop  offset="0.0904" style="stop-color:#0B0000;stop-opacity:0.9096"/>
			<stop  offset="0.2496" style="stop-color:#280000;stop-opacity:0.7504"/>
			<stop  offset="0.4588" style="stop-color:#580000;stop-opacity:0.5412"/>
			<stop  offset="0.7099" style="stop-color:#9B0000;stop-opacity:0.2901"/>
			<stop  offset="0.994" style="stop-color:#EE0000;stop-opacity:6.035566e-03"/>
			<stop  offset="1" style="stop-color:#F00000;stop-opacity:0"/>
		</linearGradient>
		<path style="fill:url(#SVGID_00000181059331161599119860000011893819988073804732_);" d="M429.61,184.23
			c7.76-3.43,15.63-6.93,22.12-12.4c1.34-1.13,2.62-2.34,3.96-3.46c1.21-1,2.47-1.93,3.73-2.87c2.41-1.77,4.81-3.55,7.22-5.32
			c-6.78,9.98-16.98,17.01-26.13,24.88c-2.98,2.56-5.89,5.25-9.25,7.27c-3.55,2.13-7.5,3.46-11.42,4.78
			c-0.6,0.2-1.48,0.26-1.65-0.35c-0.09-0.32,0.11-0.64,0.28-0.93c0.76-1.24,1.23-2.64,1.39-4.08c0.12-1.1-0.28-2.46,0.52-3.34
			c0.88-0.97,3.08-1.47,4.26-1.99C426.3,185.69,427.95,184.96,429.61,184.23z"/>
		
			<linearGradient id="SVGID_00000047047036768827110230000017218814519657414288_" gradientUnits="userSpaceOnUse" x1="531.7219" y1="458.8215" x2="464.5006" y2="470.9142" gradientTransform="matrix(1 0 0 -1 0 799.8898)">
			<stop  offset="0" style="stop-color:#000000"/>
			<stop  offset="0.0904" style="stop-color:#0B0000;stop-opacity:0.9096"/>
			<stop  offset="0.2496" style="stop-color:#280000;stop-opacity:0.7504"/>
			<stop  offset="0.4588" style="stop-color:#580000;stop-opacity:0.5412"/>
			<stop  offset="0.7099" style="stop-color:#9B0000;stop-opacity:0.2901"/>
			<stop  offset="0.994" style="stop-color:#EE0000;stop-opacity:6.035566e-03"/>
			<stop  offset="1" style="stop-color:#F00000;stop-opacity:0"/>
		</linearGradient>
		<path style="fill:url(#SVGID_00000047047036768827110230000017218814519657414288_);" d="M491.33,306.35
			c0.48-1.98,1.06-3.98,1.67-6.07c0.82-2.82,1.24-5.76,1.25-8.7c0.01-1.25-0.07-2.53-0.45-3.72c-0.37-1.13-1-2.15-1.63-3.16
			c-2.15-3.44-4.3-6.89-6.45-10.33c-0.2-0.32-0.43-0.67-0.79-0.78c-0.9-0.28-1.44,0.96-1.6,1.89c-0.51,2.95-1.63,5.8-3.26,8.31
			c-0.44,0.67-0.93,1.39-0.85,2.19c0.05,0.55,0.37,1.03,0.66,1.5c1.1,1.83,1.78,3.98,1.58,6.1c-0.2,2.13-1.4,4.22-3.31,5.18
			c-3.74,1.88-8.11-0.99-12.29-0.93c1.08,4.35,2.17,8.7,3.25,13.05c0.28,1.11,0.55,2.25,0.36,3.37c-0.48,2.84-3.55,4.3-5.58,6.33
			c-6.07,6.04-1.42,16.92-0.59,24.14c0.18,1.6,0.31,3.38-0.69,4.63c-1.45,1.81-4.28,1.42-6.42,2.31c-2.51,1.04-3.85,3.7-5.31,5.98
			c-1.55,2.41-3.45,4.58-5.34,6.74c-2.99,3.42-5.99,6.84-9.36,9.89c-0.94,0.85-1.97,1.78-2.14,3.04c-0.56,4.1,4.93,2.97,5.87,6.31
			c7.93-0.66,15.95-0.26,23.78,1.18c3.91,0.72,7.78,1.7,11.74,2.05c4,0.36,8.66-0.27,10.84-3.64c0.94-1.46,1.26-3.22,1.54-4.94
			c3.22-19.69,4.01-39.78,2.36-59.67C489.79,314.2,490.37,310.31,491.33,306.35z"/>
		
			<linearGradient id="SVGID_00000048494395208004301930000009136942500275412633_" gradientUnits="userSpaceOnUse" x1="545.3712" y1="585.625" x2="491.9549" y2="559.4531" gradientTransform="matrix(1 0 0 -1 0 799.8898)">
			<stop  offset="0" style="stop-color:#000000"/>
			<stop  offset="0.0905" style="stop-color:#0B0000;stop-opacity:0.9121"/>
			<stop  offset="0.2499" style="stop-color:#280000;stop-opacity:0.7575"/>
			<stop  offset="0.4591" style="stop-color:#580000;stop-opacity:0.5544"/>
			<stop  offset="0.7075" style="stop-color:#9A0000;stop-opacity:0.3134"/>
			<stop  offset="0.8992" style="stop-color:#D10000;stop-opacity:0.1273"/>
			<stop  offset="1" style="stop-color:#F00000;stop-opacity:0"/>
		</linearGradient>
		<path style="fill:url(#SVGID_00000048494395208004301930000009136942500275412633_);" d="M450.69,177.52
			c3.04,4.06,6.67,7.63,10.01,11.44c8.98,10.23,15.85,22.17,21.38,34.61c3.01,6.76,6.59,13.65,9.06,20.59
			c1.99,5.59,7.84,8.67,9.83,14.3c0.29,0.83,0.48,1.74,0.21,2.57c-0.65,1.99-3.54,2.57-4.1,4.59c-0.42,1.49,0.65,2.94,1.51,4.23
			c3.7,5.56,4.31,12.58,7,18.69c2.16,4.9,5.62,9.1,9.03,13.22c2.61-2.76,6.49-3.87,10.22-4.6c7.3-1.43,14.79-1.88,22.2-1.31
			c0.77,0.06,1.63,0.1,2.21-0.41c1.05-0.91,0.29-2.65-0.7-3.62c-1.99-1.95-4.77-3.17-6.12-5.61c-1.06-1.91-1.03-4.21-1.56-6.33
			c-0.65-2.58-2.17-4.93-4.26-6.57c-1.98-1.56-4.53-2.58-5.8-4.75c2.15-2.55,3.76-5.54,4.69-8.74c0.13-0.45,0.25-0.94,0.09-1.39
			c-0.13-0.36-0.43-0.64-0.73-0.88c-3.9-3.22-9.27-4.56-12.49-8.46c-1.76-2.13-2.69-4.81-4.17-7.13c-2.67-4.2-7.01-7.09-9.91-11.14
			c-0.25-0.35-0.5-0.77-0.4-1.19c0.22-0.91,1.56-0.71,2.44-0.39s2.33,0.08,2.13-0.83c-0.04-0.18-0.15-0.34-0.26-0.5
			c-2.16-3.04-4.6-5.89-6.53-9.11c-2.3-3.46-4.56-7.04-7.72-9.72c-5.12-4.35-12.64-6.46-15.35-12.6c-0.96-2.17-1.16-4.6-1.92-6.84
			c-1.65-4.89-8.03-6.68-12.36-8.66C462.82,178.48,456.79,176.62,450.69,177.52z"/>
		
			<linearGradient id="SVGID_00000125586827703674849370000007870205269370070447_" gradientUnits="userSpaceOnUse" x1="285.8999" y1="587.9492" x2="366.3643" y2="556.8967" gradientTransform="matrix(1 0 0 -1 0 799.8898)">
			<stop  offset="0" style="stop-color:#000000"/>
			<stop  offset="0.0905" style="stop-color:#0B0000;stop-opacity:0.9121"/>
			<stop  offset="0.2499" style="stop-color:#280000;stop-opacity:0.7575"/>
			<stop  offset="0.4591" style="stop-color:#580000;stop-opacity:0.5544"/>
			<stop  offset="0.7075" style="stop-color:#9A0000;stop-opacity:0.3134"/>
			<stop  offset="0.8992" style="stop-color:#D10000;stop-opacity:0.1273"/>
			<stop  offset="1" style="stop-color:#F00000;stop-opacity:0"/>
		</linearGradient>
		<path style="fill:url(#SVGID_00000125586827703674849370000007870205269370070447_);" d="M382.37,178.58
			c-5.16,4.74-12.05,7.07-18.01,10.62c-5.52,3.28-10.97,6.7-16.33,10.23c-1.95,1.29-3.92,2.61-5.51,4.31
			c-1.7,1.81-2.93,4.02-3.93,6.29c-5.09,11.48-4.61,24.74-9.11,36.46c-0.58,1.52-1.31,3.08-2.63,4.03c-1.11,0.8-2.55,1.08-3.57,1.99
			c-1.76,1.57-1.66,4.3-1.41,6.64c0.96,9.19,1.92,18.39,2.87,27.58c0.41,3.89,0.82,7.81,1.97,11.55c3.07-2.42,1.68-7.84,4.47-10.57
			c0.57-0.56,1.28-0.96,1.8-1.56c0.91-1.04,1.1-2.51,1.26-3.89c1.41-12.31,3.2-24.59,5.36-36.79c0.43-2.41,0.89-4.88,2.23-6.93
			c1.68-2.59,4.69-4.44,5.32-7.46c0.32-1.54-0.06-3.13-0.02-4.7c0.08-3.85,2.56-7.19,4.98-10.19c7.68-9.54,15.94-18.75,25.75-26.09
			c1.92-1.43,3.96-2.86,5.14-4.95C384.18,183.09,384.21,180.12,382.37,178.58z"/>
		
			<linearGradient id="SVGID_00000178911044935501941490000009174474885719485623_" gradientUnits="userSpaceOnUse" x1="263.7328" y1="487.9497" x2="394.1065" y2="507.1811" gradientTransform="matrix(1 0 0 -1 0 799.8898)">
			<stop  offset="0" style="stop-color:#000000"/>
			<stop  offset="0.0905" style="stop-color:#0B0000;stop-opacity:0.9121"/>
			<stop  offset="0.2499" style="stop-color:#280000;stop-opacity:0.7575"/>
			<stop  offset="0.4591" style="stop-color:#580000;stop-opacity:0.5544"/>
			<stop  offset="0.7075" style="stop-color:#9A0000;stop-opacity:0.3134"/>
			<stop  offset="0.8992" style="stop-color:#D10000;stop-opacity:0.1273"/>
			<stop  offset="1" style="stop-color:#F00000;stop-opacity:0"/>
		</linearGradient>
		<path style="fill:url(#SVGID_00000178911044935501941490000009174474885719485623_);" d="M332.55,388.66c0,0.74,0,1.51,0.34,2.16
			c0.78,1.5,2.83,1.66,4.52,1.62c19.29-0.51,38.54-2.53,57.51-6.05c1.64-0.3,3.5-0.76,4.3-2.23c0.86-1.56,0.12-3.49-0.75-5.04
			c-2.76-4.93-6.79-9.17-8.72-14.48c-0.65-1.78-0.54-3.8-1.16-5.51c-0.81-2.25-3.14-4.36-4.6-6.23c-3.69-4.73-7.38-9.46-11.06-14.19
			c-1.18-1.52-2.38-3.07-3.06-4.87c-0.67-1.8-0.75-3.93,0.27-5.57c1.76-2.82,5.69-2.99,8.86-4.01c0.84-0.27,1.72-0.67,2.14-1.44
			c0.76-1.4-0.35-3.06-1.45-4.21c-3.53-3.68-7.77-6.86-10.14-11.37c-1.01-1.93-1.66-4.17-1.15-6.29c0.79-3.27,3.97-5.27,6.11-7.86
			c3.46-4.19,4.17-9.94,4.73-15.35c0.12-1.12,0.23-2.27-0.02-3.38c-0.26-1.13-0.89-2.14-1.52-3.12c-2.51-3.95-5.19-7.86-7.22-12.03
			c-1.02-2.1-2.04-4.41-3.8-6c-1.31-1.18-2.71-1.69-3.7-3.26c-2.51-4.03-2.11-10.01,0.28-13.96c2.87-4.75,8.18-7.34,12.79-10.43
			c4.61-3.09,9.1-7.76,8.66-13.3c-6.3,1.01-13.58,4.56-19.47,0.56c-0.35-0.24-0.7-0.51-0.89-0.88c-0.31-0.58-0.19-1.29-0.05-1.93
			c0.58-2.58,1.55-5.08,2.85-7.38c-2.62,2.77-5.24,5.55-7.85,8.32c-1.95,2.07-3.92,4.16-5.39,6.6c-1.77,2.95-2.73,6.26-4.05,9.42
			c-1.31,3.13-3.26,5.19-5.1,7.87c-3.66,5.34-3.58,13.41-3.84,19.6c-0.54,12.97-0.99,26.11-3.1,38.86
			c-3.55,21.4-3.82,42.96-4.65,64.55C332.8,368.14,332.58,378.4,332.55,388.66z"/>
		
			<linearGradient id="SVGID_00000016039351630685744370000013320663161397655701_" gradientUnits="userSpaceOnUse" x1="447.5664" y1="616.5555" x2="436.933" y2="637.1577" gradientTransform="matrix(1 0 0 -1 0 799.8898)">
			<stop  offset="0" style="stop-color:#000000"/>
			<stop  offset="0.0904" style="stop-color:#0B0000;stop-opacity:0.9096"/>
			<stop  offset="0.2496" style="stop-color:#280000;stop-opacity:0.7504"/>
			<stop  offset="0.4588" style="stop-color:#580000;stop-opacity:0.5412"/>
			<stop  offset="0.7099" style="stop-color:#9B0000;stop-opacity:0.2901"/>
			<stop  offset="0.994" style="stop-color:#EE0000;stop-opacity:6.035566e-03"/>
			<stop  offset="1" style="stop-color:#F00000;stop-opacity:0"/>
		</linearGradient>
		<path style="fill:url(#SVGID_00000016039351630685744370000013320663161397655701_);" d="M426.4,164.31
			c4.6-1.07,9.06-2.67,13.46-4.39c3.88-1.52,7.74-3.14,11.31-5.3c1.59-0.96,3.23-2.19,3.63-4c0.5-2.28-1.17-4.5-1.19-6.83
			c3.75,0.7,7.22,2.81,9.56,5.82c0.21,0.27,0.41,0.57,0.41,0.9c-0.01,0.39-0.3,0.7-0.58,0.97c-1.25,1.17-2.77,2.18-3.38,3.78
			c-0.33,0.88-0.35,1.87-0.69,2.75c-0.77,1.96-2.94,2.92-4.88,3.74c-9.99,4.16-19.47,9.45-28.92,14.72
			c-1.98,1.1-3.96,2.21-5.94,3.31c-0.88,0.49-1.78,0.99-2.77,1.18s-2.11,0.02-2.83-0.69c-0.29-0.28-0.5-0.64-0.71-0.99
			c-1.13-1.89-2.25-3.79-3.38-5.68c-1.08-1.81-1.9-4.09-1.74-6.25c0.18-2.3,2.42-1.51,4.19-1.48
			C416.81,165.93,421.67,165.41,426.4,164.31z"/>
		
			<linearGradient id="SVGID_00000035523779066987710240000013053617882302061987_" gradientUnits="userSpaceOnUse" x1="380.1191" y1="610.4716" x2="402.0504" y2="636.6562" gradientTransform="matrix(1 0 0 -1 0 799.8898)">
			<stop  offset="0" style="stop-color:#000000"/>
			<stop  offset="0.0904" style="stop-color:#0B0000;stop-opacity:0.9096"/>
			<stop  offset="0.2496" style="stop-color:#280000;stop-opacity:0.7504"/>
			<stop  offset="0.4588" style="stop-color:#580000;stop-opacity:0.5412"/>
			<stop  offset="0.7099" style="stop-color:#9B0000;stop-opacity:0.2901"/>
			<stop  offset="0.994" style="stop-color:#EE0000;stop-opacity:6.035566e-03"/>
			<stop  offset="1" style="stop-color:#F00000;stop-opacity:0"/>
		</linearGradient>
		<path style="fill:url(#SVGID_00000035523779066987710240000013053617882302061987_);" d="M402.34,159.05
			c-0.15,0.25-0.45,0.36-0.72,0.48c-1.34,0.63-1.97,2.44-1.32,3.77c0.6,1.22,1.96,1.84,3.25,2.28c0.37,0.13,0.78,0.27,0.99,0.61
			c0.27,0.42,0.12,0.97-0.03,1.44c-1.23,3.8-2.57,7.56-4.02,11.29c-1.07-1.41-2.41-2.62-3.92-3.54c-1.18-0.72-2.66-1.58-2.58-2.95
			c0.03-0.44,0.22-0.87,0.15-1.31c-0.08-0.44-0.42-0.78-0.73-1.11c-1.47-1.55-2.55-3.46-3.12-5.52c-0.2-0.71,2.28-3.61,2.74-4.23
			c1.03-1.39,2.18-2.72,3.57-3.78c1-0.76,2.49-1.84,3.83-1.4C401.58,155.47,403,157.89,402.34,159.05z"/>
	</g>
	<g id="emb">
		<g>
			<g>
				<path class="st16" d="M436.27,218.1c-0.45,2.93-0.13,5.9,0.38,8.8c0.46,2.64,1.11,5.94,3.6,7.44c1.51,0.9,3.38,0.82,4.87-0.07
					c1.49-0.9,2.35-2.39,2.94-3.98c1.25-3.41,1.73-7.21,1.75-10.83c0.01-1.08-0.92-2-2-2c-1.18,0-1.88,0.92-2,2
					c-0.36,3.37-0.59,6.98-0.03,10.34c0.53,3.18,3.08,5.27,6.34,4.67c3.13-0.58,4.81-3.43,5.92-6.13c1.3-3.16,2.05-6.46,2.43-9.85
					c0.12-1.08-1.01-2-2-2c-1.18,0-1.88,0.92-2,2c-0.28,2.46-0.87,4.89-1.7,7.23c-0.57,1.61-1.35,4.15-3.16,4.77
					c-1.87,0.64-1.98-1.48-2.05-2.81c-0.14-2.74-0.05-5.48,0.24-8.2c-1.33,0-2.67,0-4,0c-0.02,2.75-0.37,5.44-1.09,8.09
					c-0.23,0.82-1.38,4.75-2.76,3.03c-1.11-1.39-1.31-3.8-1.57-5.48c-0.29-1.88-0.51-4.26-0.25-5.93c0.16-1.07-0.27-2.15-1.4-2.46
					C437.78,216.45,436.44,217.03,436.27,218.1L436.27,218.1z"/>
			</g>
		</g>
	</g>
	<g id="line">
		<g>
			<g>
				<path d="M400.08,153.89c-2.67,1.15-5.34,2.26-7.19,4.6c-1.66,2.1-2.91,4.59-4.29,6.89c-0.75,1.24-1.5,2.49-2.17,3.77
					c-0.37,0.7-0.93,1.57-0.92,2.4c0.01,1.01,0.48,2.13,0.76,3.08c0.46,1.53,0.96,3.08,1.7,4.49c1.96,3.79,6.3,6.46,10.26,7.66
					c1.23,0.37,1.76-1.56,0.53-1.93c-3.4-1.03-7.06-3.26-8.89-6.42c-1.2-2.08-1.83-4.62-2.36-6.95c-0.06-0.27,0.01,0.01-0.02,0.13
					c0.03-0.12,0.06-0.25,0.12-0.35c0.23-0.43,0.43-0.88,0.66-1.31c0.63-1.17,1.31-2.3,1.99-3.44c1.21-2.01,2.33-4.12,3.66-6.05
					c1.76-2.57,4.41-3.65,7.18-4.84C402.27,155.11,401.25,153.38,400.08,153.89L400.08,153.89z"/>
			</g>
		</g>
		<g>
			<g>
				<path d="M399.37,186.3c2.96-6.12,5.34-12.51,7.09-19.08c0.33-1.24-1.6-1.78-1.93-0.53c-1.71,6.4-4.01,12.63-6.89,18.6
					C397.09,186.44,398.81,187.46,399.37,186.3L399.37,186.3z"/>
			</g>
		</g>
		<g>
			<g>
				<path d="M405.54,165.77c1.69,4.48,3.88,8.73,6.23,12.9c1.19,2.11,2.41,4.21,3.61,6.31c0.56,0.99,1.09,1.99,1.66,2.97
					c0.48,0.84,1.04,1.33,2.03,1.23c1.08-0.11,2.22-0.59,3.25-0.93c1.25-0.41,2.49-0.87,3.72-1.35c2.25-0.89,4.46-1.87,6.67-2.84
					c4.44-1.97,8.76-4.16,12.91-6.68c5.44-3.31,10.44-7.17,15.33-11.23c2.03-1.68,4.08-3.38,5.94-5.26
					c1.28-1.29,1.89-2.17,1.38-4.01c-0.85-3.06-2.36-6.21-4.16-8.83c-1-1.46-2.19-2.42-3.75-3.26c-2.18-1.18-4.42-2.43-6.8-3.15
					c-1.23-0.37-1.76,1.56-0.53,1.93c1.59,0.48,3.05,1.26,4.52,2.02c1.37,0.71,2.97,1.35,4.05,2.47c1.44,1.5,2.39,3.64,3.25,5.5
					c0.63,1.36,1.7,3.28,1.67,4.77c0-0.15,0.11-0.15-0.08,0.07c-0.1,0.11-0.25,0.31-0.4,0.48c-0.51,0.56-1.06,1.08-1.61,1.6
					c-7.01,6.54-14.85,12.48-23.22,17.15c-3.51,1.96-7.13,3.65-10.8,5.27c-1.91,0.84-3.82,1.67-5.77,2.41
					c-1.02,0.39-2.04,0.75-3.08,1.09c-0.89,0.29-2.13,0.89-3.07,0.79c0.24,0.1,0.47,0.2,0.71,0.29c-0.76-0.59-1.18-1.88-1.65-2.71
					c-0.52-0.92-1.05-1.84-1.57-2.76c-1.02-1.77-2.04-3.55-3.03-5.33c-2.05-3.7-3.98-7.47-5.47-11.43
					C407.01,164.04,405.08,164.56,405.54,165.77L405.54,165.77z"/>
			</g>
		</g>
		<g>
			<g>
				<path d="M452.42,143.46c0.12,0.72,0.17,1.44,0.3,2.16c0.14,0.73,0.29,1.45,0.43,2.18c0.31,1.54,0.62,3.08,0.92,4.62
					c0.11,0.53,0.74,0.83,1.23,0.7c0.55-0.15,0.8-0.7,0.7-1.23c-0.31-1.54-0.62-3.08-0.92-4.62c-0.15-0.73-0.3-1.45-0.43-2.18
					c-0.13-0.72-0.19-1.44-0.3-2.16c-0.09-0.53-0.75-0.83-1.23-0.7C452.55,142.38,452.33,142.92,452.42,143.46L452.42,143.46z"/>
			</g>
		</g>
		<g>
			<g>
				<path d="M454.73,151.36c-13.02,8.58-28.47,13.26-44.07,13.24c-2.11,0-4.45,0.11-6.51-0.41c-0.95-0.24-1.93-0.71-2.44-1.59
					c-0.49-0.85-0.3-2.07,0.73-2.38c1.23-0.37,0.71-2.3-0.53-1.93c-1.56,0.46-2.55,1.94-2.47,3.57c0.08,1.74,1.45,3.15,2.96,3.84
					c1.93,0.88,4.24,0.83,6.32,0.88c2.3,0.06,4.6,0.02,6.89-0.12c9.13-0.56,18.16-2.65,26.59-6.17c4.73-1.97,9.25-4.37,13.53-7.19
					C456.81,152.38,455.81,150.65,454.73,151.36L454.73,151.36z"/>
			</g>
		</g>
		<g>
			<g>
				<path d="M313.2,324.67c1.17,2.03,3.4,4.68,6.05,3.24c2.07-1.12,2.17-3.81,2.31-5.87c0.24-3.44,0.48-6.88,0.72-10.32
					c0.24-3.42,0.6-6.87,0.51-10.3c-0.1-3.36-0.84-6.69-0.57-10.06c0.13-1.55,0.41-3.08,0.49-4.63c0.09-1.72,0-3.44-0.13-5.15
					c-0.24-3.37-0.51-6.74-0.95-10.08c-0.4-3-0.85-6.16-1.85-9.03c-0.33-0.94-1.01-1.27-1.78-1.82c-0.97-0.7-1.74-1.68-2.62-2.5
					c-1.03-0.97-1.85-2.16-2.84-3.19c-0.51-0.53-1.02-1.07-1.38-1.72c-0.25-0.46-0.34-0.98-0.82-1.24c0,0.58,0,1.15,0,1.73
					c2.92-2.22,5.55-4.76,7.79-7.67c2.39-3.09,4.19-6.53,5.94-10.01c1.82-3.62,3.85-7.07,5.89-10.56c2-3.42,3.49-6.97,4.7-10.74
					c1.19-3.71,2.36-7.39,4.24-10.82c1.71-3.12,3.84-5.99,6.32-8.53c2.59-2.66,5.54-4.71,8.6-6.78c3.37-2.27,6.73-4.57,10.39-6.35
					c7.98-3.88,16.18-7.29,23.79-11.9c1.1-0.67,0.1-2.4-1.01-1.73c-6.74,4.08-13.93,7.24-21.05,10.59
					c-3.72,1.75-7.22,3.7-10.64,5.98c-3.02,2.01-6.14,3.95-8.9,6.32c-5.3,4.55-9.34,10.45-11.78,16.99
					c-1.44,3.87-2.38,7.94-4.13,11.69c-1.71,3.68-4.04,7.03-5.98,10.59c-2.12,3.9-3.87,8-6.32,11.72c-2.39,3.63-5.41,6.84-8.87,9.46
					c-0.57,0.43-0.72,1.33,0,1.73c0.02,0.01,0.05,0.03,0.07,0.04c-0.15-0.2-0.31-0.4-0.46-0.6c0.86,2.17,2.71,3.66,4.14,5.45
					c1.1,1.38,2.6,2.86,4.06,3.85c0.71,0.48,0.71,0.52,0.93,1.35c0.39,1.45,0.74,2.9,1.02,4.37c0.58,3.08,0.9,6.2,1.16,9.32
					c0.25,2.9,0.57,5.84,0.47,8.76c-0.09,2.82-0.7,5.54-0.52,8.37c0.19,2.98,0.65,5.91,0.58,8.91c-0.08,3.06-0.36,6.11-0.57,9.16
					c-0.23,3.36-0.46,6.72-0.7,10.08c-0.07,0.98-0.11,2.59-1,3.24c-1.55,1.15-2.98-1.29-3.59-2.35
					C314.28,322.55,312.56,323.55,313.2,324.67L313.2,324.67z"/>
			</g>
		</g>
		<g>
			<g>
				<path d="M308.04,322.93c0.6,1.5,1.54,2.74,2.51,4.02c0.95,1.25,1.94,2.5,3.11,3.55c2.1,1.89,4.81,3.19,7.69,2.79
					c6.37-0.88,8.84-7.67,13.55-11.07c1.03-0.75,0.04-2.48-1.01-1.73c-4.11,2.97-6.38,8.48-11.24,10.4
					c-2.66,1.05-5.34,0.15-7.42-1.66c-1.06-0.92-1.97-2.01-2.83-3.12c-0.89-1.16-1.89-2.34-2.44-3.71
					C309.5,321.22,307.56,321.73,308.04,322.93L308.04,322.93z"/>
			</g>
		</g>
		<g>
			<g>
				<path d="M467.28,160.38c8.4,3.03,16.79,6.06,25.19,9.09c7.63,2.76,15.83,5.03,22.77,9.36c13.04,8.14,17.54,23.88,21.76,37.71
					c1.22,4.01,2.41,8.09,4.07,11.94c1.55,3.59,3.58,6.94,5.33,10.43c1.85,3.69,3.23,7.63,4.64,11.51
					c1.47,4.04,2.85,8.11,4.14,12.21c2.61,8.25,4.86,16.61,6.76,25.04c0.48,2.16,0.95,4.32,1.38,6.48c0.19,0.96,0.38,1.93,0.57,2.89
					c0.21,1.12,0.63,2.46,0.31,3.59c-0.37,1.29-1.3,1.43-2.39,0.9c-0.88-0.42-1.74-0.87-2.63-1.27c-1.67-0.74-3.38-1.39-5.13-1.92
					c-7.1-2.18-14.72-2.59-22.03-1.29c-3.59,0.64-7.08,1.72-10.4,3.21c-3.21,1.43-6.42,3.43-7.81,6.82
					c-0.63,1.55-0.77,3.2-0.35,4.83c0.49-0.38,0.98-0.75,1.47-1.13c-4.52-3.07-8.57-6.8-12-11.05c-1.71-2.12-3.25-4.37-4.62-6.72
					c-1.49-2.56-2.68-5.27-4.03-7.9c-1.36-2.64-3.12-4.99-4.74-7.47c-1.6-2.45-2.87-5.09-3.89-7.83c-2.08-5.57-3.3-11.42-4.73-17.18
					c-1.67-6.72-3.54-13.4-6.3-19.77c-0.51-1.18-2.23-0.16-1.73,1.01c2.53,5.84,4.26,11.98,5.81,18.14
					c1.49,5.92,2.72,11.95,4.79,17.7c0.97,2.69,2.13,5.33,3.61,7.79c1.55,2.59,3.46,4.93,4.91,7.58c1.44,2.63,2.6,5.41,4.06,8.03
					c1.37,2.45,2.93,4.79,4.65,7.01c3.72,4.8,8.18,8.96,13.2,12.37c0.75,0.51,1.67-0.33,1.47-1.13c-1.07-4.22,2.78-7.23,6.11-8.86
					c3.42-1.67,7.11-2.81,10.85-3.49c7.57-1.39,15.49-0.76,22.76,1.77c1.9,0.66,3.72,1.47,5.51,2.38c1.41,0.71,2.89,1.13,4.23,0.02
					c1.36-1.13,1.56-2.89,1.34-4.54c-0.27-2.09-0.77-4.17-1.19-6.23c-1.77-8.6-3.92-17.12-6.43-25.53
					c-2.5-8.39-5.33-16.7-8.57-24.82c-1.43-3.57-3.34-6.89-5.12-10.28c-1.96-3.74-3.39-7.61-4.67-11.62
					c-4.48-14.04-8.02-29.98-19.78-40c-6.01-5.13-13.58-7.63-20.9-10.27c-8.48-3.06-16.95-6.12-25.43-9.18
					c-2.1-0.76-4.2-1.52-6.3-2.27C466.6,158.01,466.08,159.94,467.28,160.38L467.28,160.38z"/>
			</g>
		</g>
		<g>
			<g>
				<path d="M339.67,262.26c0.06,8.78-1.85,17.38-3.18,26.02c-1.31,8.54-2.26,17.12-2.76,25.74c-0.99,17.3-1.52,34.63-2.18,51.94
					c-0.17,4.38-0.33,8.76-0.49,13.14c-0.08,2.15-0.16,4.3-0.23,6.44c-0.06,1.73-0.37,3.76,0.42,5.37c1.52,3.08,6.02,2.47,8.82,2.45
					c4.24-0.02,8.47-0.19,12.7-0.46c16.94-1.1,33.69-3.9,50.53-5.94c8.41-1.02,16.85-1.86,25.32-2.18c4.21-0.16,8.44-0.2,12.65-0.06
					c2.08,0.07,4.16,0.24,6.24,0.31c2.16,0.08,4.37-0.2,6.53-0.3c1.98-0.1,3.95-0.2,5.87,0.4c1.06,0.33,1.82-1.36,0.77-1.83
					c-0.01-0.01-0.02-0.01-0.03-0.02c-0.26,0.61-0.51,1.22-0.77,1.83c4.26,0.8,8.53,1.81,12.82,2.43c2.02,0.29,3.75,0.11,5.73-0.3
					c1.99-0.4,4.07-0.06,6.03-0.62c4.09-1.17,3.95-5.39,4.53-8.86c0.74-4.44,1.08-8.95,1.49-13.43c0.83-9.12,1.62-18.25,1.7-27.41
					c0.04-4.57-0.09-9.13-0.49-13.68c-0.38-4.41-1.53-9.07-0.74-13.49c0.42-2.34,1.55-4.39,2.39-6.58c0.62-1.63,0.95-3.35,1.18-5.08
					c0.5-3.83,0.47-7.76-0.01-11.59c-0.16-1.26-2.16-1.28-2,0c0.4,3.15,0.47,6.36,0.23,9.53c-0.13,1.66-0.36,3.32-0.78,4.93
					c-0.44,1.65-1.2,3.17-1.85,4.75c-1.64,3.98-1.48,8.04-0.98,12.24c0.51,4.28,0.88,8.55,1.01,12.86
					c0.25,8.66-0.27,17.32-0.98,25.95c-0.36,4.41-0.75,8.81-1.19,13.22c-0.22,2.19-0.44,4.38-0.78,6.56
					c-0.29,1.89-0.39,4.02-0.93,5.86c-0.72,2.48-3.18,2.54-5.35,2.6c-2.17,0.07-4.26,0.85-6.43,0.74c-2.23-0.12-4.43-0.74-6.63-1.15
					c-2.48-0.47-4.95-0.93-7.43-1.4c-1.03-0.19-1.88,1.33-0.77,1.83c0.01,0.01,0.02,0.01,0.03,0.02c0.26-0.61,0.51-1.22,0.77-1.83
					c-3.71-1.16-7.9-0.34-11.71-0.18c-2.08,0.09-4.19-0.19-6.28-0.27c-2.07-0.08-4.14-0.12-6.21-0.12
					c-8.3-0.01-16.59,0.56-24.84,1.41c-16.55,1.7-32.97,4.51-49.54,6.12c-8.28,0.8-16.6,1.31-24.92,1.19
					c-1.59-0.02-3.69-0.04-4.12-1.94s0-4.18,0.07-6.11c0.15-4.3,0.31-8.59,0.47-12.89c0.64-16.99,1.3-33.98,2.08-50.96
					c0.39-8.63,1.07-17.22,2.25-25.78c1.15-8.36,2.98-16.65,3.7-25.06c0.18-2.12,0.27-4.24,0.26-6.36
					C341.66,260.97,339.66,260.97,339.67,262.26L339.67,262.26z"/>
			</g>
		</g>
		<g>
			<g>
				<path d="M342.5,252.5c0.35-4.71,0.96-9.39,2.24-13.95c1.28-4.54,3.1-8.9,4.89-13.26c0.49-1.19-1.45-1.71-1.93-0.53
					c-1.83,4.46-3.7,8.93-4.98,13.58c-1.27,4.62-1.87,9.39-2.22,14.16C340.4,253.78,342.41,253.78,342.5,252.5L342.5,252.5z"/>
			</g>
		</g>
		<g>
			<g>
				<path d="M399.85,182.18c0.64,2.99,1.29,6.02,1.24,9.09c-0.02,1.56-0.26,3.08-0.72,4.57c-0.42,1.36-0.9,2.68-1.1,4.1
					c-0.82,5.94-0.39,12.25,0.32,18.18c0.15,1.26,2.15,1.28,2,0c-0.37-3.12-0.6-6.26-0.65-9.4c-0.05-3.06-0.21-6.4,0.46-9.41
					c0.33-1.46,0.94-2.85,1.27-4.31c0.3-1.38,0.44-2.8,0.43-4.21c-0.02-3.09-0.67-6.15-1.31-9.16
					C401.51,180.4,399.58,180.93,399.85,182.18L399.85,182.18z"/>
			</g>
		</g>
		<g>
			<g>
				<path d="M403.4,219.96c3.71,0.7,8.16,1.61,11.85,0.33c3.68-1.28,3.45-5.18,3.16-8.45c-0.19-2.06-0.51-4.12-0.5-6.2
					c0.02-2.15,0.62-4.16,1.09-6.24c0.82-3.6,1.28-7.22,1.5-10.9c0.08-1.29-1.92-1.28-2,0c-0.19,3.2-0.56,6.35-1.23,9.49
					c-0.4,1.85-0.95,3.67-1.2,5.55c-0.23,1.69-0.15,3.39,0.01,5.08c0.17,1.76,0.42,3.52,0.46,5.29c0.04,1.66,0.15,3.61-1.61,4.37
					c-1.53,0.66-3.4,0.61-5.03,0.54c-2.01-0.08-3.99-0.41-5.95-0.79C402.68,217.79,402.14,219.72,403.4,219.96L403.4,219.96z"/>
			</g>
		</g>
		<g>
			<g>
				<path d="M399.57,222.95c0.05,1.41,0.09,2.82,0.14,4.23c0.04,1.32,0,2.67,0.2,3.97c0.16,1.07,0.64,2.05,1.58,2.64
					c1.06,0.67,2.49,0.77,3.7,0.93c2.71,0.37,5.46,0.46,8.19,0.24c1.18-0.1,2.1-0.3,2.78-1.34c0.67-1.02,1.26-2.23,1.61-3.4
					c0.42-1.39,0.41-2.87,0.31-4.31c-0.12-1.66-0.27-3.32-0.4-4.98c-0.1-1.27-2.11-1.28-2,0c0.12,1.51,0.25,3.01,0.37,4.52
					c0.11,1.41,0.21,2.86-0.2,4.24c-0.2,0.66-0.5,1.27-0.82,1.88c-0.23,0.44-0.46,1.13-0.94,1.32c-0.57,0.22-1.49,0.14-2.09,0.16
					c-0.73,0.03-1.45,0.04-2.18,0.03c-1.47-0.02-2.94-0.13-4.39-0.33c-1.05-0.15-2.93-0.15-3.39-1.31
					c-0.46-1.16-0.27-2.72-0.31-3.94c-0.05-1.52-0.1-3.04-0.15-4.56C401.53,221.66,399.53,221.66,399.57,222.95L399.57,222.95z"/>
			</g>
		</g>
		<g>
			<g>
				<path d="M415.67,187.81c0.41,2.14-0.65,4.19-1.31,6.17c-0.35,1.05-0.6,2.12-0.66,3.23c-0.07,1.2,0.03,2.4,0.01,3.61
					c-0.02,1.22-0.15,2.43-0.18,3.65c-0.03,1.26,0.03,2.51,0.12,3.77c0.16,2.36,0.54,4.83,0.2,7.19c-0.17,1.16-0.61,2.77-1.86,3.19
					c-1.1,0.38-2.31-0.04-3.41,0.42c-0.59,0.24-0.33,1.21,0.27,0.96c1.03-0.43,2.16-0.11,3.22-0.37c1-0.24,1.72-1.02,2.15-1.93
					c1.05-2.23,0.76-4.9,0.59-7.28c-0.19-2.67-0.34-5.28-0.17-7.96c0.16-2.58-0.24-5.21,0.53-7.72c0.73-2.37,1.96-4.64,1.48-7.19
					C416.51,186.92,415.55,187.18,415.67,187.81L415.67,187.81z"/>
			</g>
		</g>
		<g>
			<g>
				<path d="M413.58,222.8c0.5,1.86,0.4,3.86,0.46,5.77c0.05,1.64,0.16,3.54-0.91,4.91c-0.39,0.5,0.31,1.21,0.71,0.71
					c1.18-1.51,1.26-3.39,1.21-5.23c-0.06-2.12,0.04-4.35-0.51-6.42C414.38,221.91,413.41,222.17,413.58,222.8L413.58,222.8z"/>
			</g>
		</g>
		<g>
			<g>
				<path d="M402.11,222.25c3.22,0.59,6.49,0.77,9.75,0.5c0.64-0.05,0.64-1.05,0-1c-3.17,0.26-6.36,0.12-9.49-0.46
					C401.74,221.17,401.47,222.13,402.11,222.25L402.11,222.25z"/>
			</g>
		</g>
		<g>
			<g>
				<path d="M400.95,181.92c2.32,0.84,4.8,1.07,7.24,1.3c0.64,0.06,0.64-0.94,0-1c-2.36-0.22-4.74-0.45-6.98-1.27
					C400.61,180.74,400.35,181.7,400.95,181.92L400.95,181.92z"/>
			</g>
		</g>
		<g>
			<g>
				<path d="M403.88,185.58c2.14,0.58,4.36,0.84,6.58,0.75c0.64-0.02,0.64-1.02,0-1c-2.13,0.08-4.25-0.16-6.32-0.72
					C403.52,184.44,403.26,185.41,403.88,185.58L403.88,185.58z"/>
			</g>
		</g>
		<g>
			<g>
				<path class="st17" d="M413.05,168.98c0.59,0.93,1.24,1.82,1.83,2.75c0.61,0.97,1.09,1.99,1.49,3.06
					c0.74,1.96,1.32,3.99,2.28,5.87c0.44,0.86,0.96,1.68,1.59,2.41c0.43,0.5,1.17,1.49,1.93,1.21c0.38-0.14,0.55-0.52,0.84-0.78
					c0.39-0.34,0.92-0.49,1.4-0.63c1.07-0.31,2.14-0.62,3.2-0.99c4.32-1.51,8.4-3.63,12.31-6c3.93-2.39,7.77-4.98,11.48-7.7
					c4.07-2.98,7.95-6.21,11.56-9.75c0.46-0.45-0.25-1.16-0.71-0.71c-6.23,6.11-13.31,11.24-20.66,15.93
					c-3.74,2.38-7.61,4.6-11.72,6.29c-1.05,0.43-2.12,0.83-3.2,1.19c-0.99,0.33-2.01,0.57-2.99,0.91c-0.37,0.13-0.74,0.28-1.06,0.5
					c-0.16,0.11-0.32,0.24-0.45,0.38c-0.06,0.07-0.13,0.2-0.2,0.24c-0.19,0.13-0.02,0.09-0.19,0.03c-0.32-0.11-0.74-0.73-0.95-0.99
					c-0.31-0.37-0.58-0.78-0.83-1.19c-1.2-1.98-1.81-4.23-2.61-6.39c-0.41-1.08-0.86-2.14-1.46-3.13c-0.63-1.03-1.36-2-2.01-3.03
					C413.57,167.93,412.7,168.43,413.05,168.98L413.05,168.98z"/>
			</g>
		</g>
		<g>
			<g>
				<path class="st17" d="M401.67,167.74c-1.8,4.83-3.69,9.62-5.5,14.44c0.16-0.12,0.32-0.24,0.48-0.37c0.25-0.03,0.21,0.08,0-0.08
					c-0.13-0.1-0.27-0.18-0.4-0.27c-0.34-0.24-0.68-0.49-1.02-0.73c-0.68-0.5-1.28-1-1.86-1.63c-1-1.08-1.79-2.27-2.23-3.68
					c-0.43-1.35-0.65-2.76-1.11-4.1c-0.21-0.61-1.17-0.35-0.96,0.27c0.51,1.47,0.72,3.03,1.25,4.49c0.53,1.48,1.43,2.74,2.51,3.88
					c0.63,0.67,1.33,1.2,2.07,1.74c0.36,0.26,0.72,0.52,1.08,0.77c0.18,0.12,0.45,0.37,0.69,0.34s0.4-0.14,0.48-0.37
					c1.81-4.82,3.7-9.61,5.5-14.44C402.86,167.4,401.89,167.14,401.67,167.74L401.67,167.74z"/>
			</g>
		</g>
		<ellipse class="st18" cx="407.5" cy="195" rx="3" ry="3.5"/>
		<ellipse class="st18" cx="407.5" cy="211" rx="3" ry="3.5"/>
		<ellipse class="st18" cx="407" cy="177.58" rx="2.5" ry="2.92"/>
		<g>
			<g>
				<path class="st17" d="M486.11,376.25c-0.7-0.02-0.88-1.07-0.94-1.61c-0.11-0.99-0.13-1.99-0.18-2.98
					c-0.11-2.09-0.2-4.18-0.26-6.27c-0.08-2.92,0.37-6.79-1.78-9.14c-2.03-2.22-5.4-1.54-7.45,0.27c-2.58,2.28-2.89,6.09-3.19,9.29
					c-0.1,1.05-0.2,2.1-0.3,3.15c-0.09,0.96-0.12,1.96-0.3,2.91c-0.36,1.9-2.24,1.84-3.8,1.75c-4.17-0.26-8.34-0.57-12.51-0.87
					c-8.34-0.61-16.68-1.22-25.04-1.42c-8.32-0.2-16.66,0.01-24.93,1.03c-1.02,0.13-2.03,0.26-3.05,0.41
					c-0.63,0.09-0.36,1.06,0.27,0.96c8.24-1.2,16.57-1.55,24.89-1.45c8.36,0.1,16.7,0.66,25.04,1.26c4.13,0.3,8.26,0.61,12.39,0.89
					c1.72,0.11,3.6,0.46,5.31,0.11c1.58-0.32,2.3-1.49,2.48-3.02c0.23-2.01,0.38-4.04,0.57-6.06c0.17-1.78,0.36-3.58,0.97-5.27
					c0.55-1.53,1.48-2.87,2.92-3.68c1.24-0.7,2.85-0.98,4.14-0.26c1.35,0.75,1.89,2.28,2.12,3.73c0.28,1.74,0.2,3.54,0.25,5.29
					c0.06,2.09,0.15,4.18,0.26,6.27c0.05,1.01,0.09,2.02,0.18,3.03c0.06,0.65,0.19,1.33,0.55,1.88c0.33,0.5,0.79,0.78,1.39,0.8
					C486.76,377.27,486.76,376.27,486.11,376.25L486.11,376.25z"/>
			</g>
		</g>
		<g>
			<g>
				<path class="st17" d="M393.71,373.28c-7.87,0.69-15.71,1.62-23.53,2.79c-3.96,0.59-7.92,1.25-11.86,1.97
					c-3.77,0.69-7.51,1.51-11.29,2.18c-4.13,0.72-8.44,1.07-12.43-0.44c-0.6-0.23-0.86,0.74-0.27,0.96
					c3.46,1.3,7.18,1.26,10.79,0.78c3.79-0.51,7.53-1.41,11.29-2.11c7.92-1.49,15.88-2.73,23.87-3.71
					c4.47-0.55,8.94-1.02,13.42-1.41C394.35,374.23,394.36,373.23,393.71,373.28L393.71,373.28z"/>
			</g>
		</g>
		<g>
			<g>
				<path d="M475.8,386.68c1.51,0.14,1.77-1.77,1.86-2.86c0.16-2.12,0.32-4.24,0.48-6.35s0.32-4.24,0.48-6.35
					c0.13-1.75,0.07-3.86,1.27-5.27c-0.24,0-0.47,0-0.71,0c1.09,1.05,1.52,2.5,1.71,3.96c0.22,1.69,0.21,3.42,0.28,5.13
					c0.08,1.89,0.16,3.78,0.23,5.67c0.07,1.7,0.15,3.41,0.93,4.96c0.29,0.58,1.15,0.07,0.86-0.5c-0.84-1.67-0.76-3.63-0.84-5.44
					c-0.08-1.97-0.16-3.94-0.24-5.91c-0.12-2.9,0.04-6.39-2.23-8.56c-0.18-0.18-0.53-0.21-0.71,0c-1,1.18-1.28,2.65-1.42,4.15
					c-0.18,1.98-0.3,3.96-0.45,5.94c-0.15,1.99-0.3,3.99-0.45,5.98c-0.08,1-0.14,1.99-0.23,2.99c-0.04,0.48-0.16,1.55-0.83,1.49
					C475.16,385.62,475.17,386.62,475.8,386.68L475.8,386.68z"/>
			</g>
		</g>
		<g>
			<g>
				<path class="st17" d="M481.95,351.61c0.41-5.07,0.82-10.14,1.24-15.21c0.05-0.62,0.1-1.24,0.15-1.86
					c0.05-0.64,0.05-1.33,0.25-1.94c0.17-0.52,0.53-0.93,0.84-1.37c0.3-0.43,0.54-0.89,0.74-1.38c0.79-1.98,0.69-4.18,0.57-6.26
					c-0.04-0.64-1.04-0.64-1,0c0.12,2.13,0.28,4.48-0.74,6.43c-0.49,0.95-1.27,1.67-1.48,2.76c-0.23,1.18-0.24,2.43-0.33,3.63
					c-0.41,5.07-0.82,10.14-1.24,15.21C480.9,352.25,481.9,352.25,481.95,351.61L481.95,351.61z"/>
			</g>
		</g>
		<g>
			<g>
				<path class="st17" d="M487.2,308.39c-0.16-4.4,2.7-9.21,0.25-13.4c-0.25-0.43-0.58-0.78-0.88-1.18
					c-0.43-0.56-0.4-1.07-0.34-1.75c0.12-1.32,0.24-2.64,0.36-3.96c0.24-2.64,0.48-5.28,0.72-7.92c0.06-0.64-0.94-0.64-1,0
					c-0.24,2.64-0.48,5.28-0.72,7.92c-0.12,1.32-0.24,2.64-0.36,3.96c-0.05,0.55-0.11,1.09,0.1,1.61c0.17,0.43,0.48,0.77,0.77,1.13
					c1.42,1.73,1.48,4.13,1.17,6.25c-0.37,2.45-1.16,4.83-1.07,7.33C486.23,309.03,487.23,309.04,487.2,308.39L487.2,308.39z"/>
			</g>
		</g>
		<g>
			<g>
				<path d="M465.02,264.59c5.89,2.41,11.59,5.26,17.06,8.52c0.55,0.33,1.06-0.53,0.5-0.86c-5.55-3.3-11.33-6.17-17.3-8.62
					C464.69,263.38,464.43,264.35,465.02,264.59L465.02,264.59z"/>
			</g>
		</g>
		<g>
			<g>
				<path class="st17" d="M480.34,310.33c1.25,3.07,3.12,5.85,5.53,8.13c0.47,0.44,1.18-0.26,0.71-0.71
					c-2.28-2.15-4.1-4.78-5.28-7.69C481.06,309.48,480.09,309.74,480.34,310.33L480.34,310.33z"/>
			</g>
		</g>
		<g>
			<g>
				<path class="st17" d="M385.92,273.71c-7.89-2.24-15.86-4.49-24.08-5.03c-1.37-0.09-4.03-0.58-4.55,1.22
					c-0.08,0.27,0.1,0.52,0.35,0.62c5.93,2.15,11.96,4.02,18.07,5.6c0.62,0.16,0.89-0.8,0.27-0.96c-6.11-1.58-12.14-3.45-18.07-5.6
					c0.12,0.21,0.23,0.41,0.35,0.62c0.25-0.85,1.88-0.58,2.51-0.55c1.19,0.06,2.38,0.15,3.57,0.28c2.45,0.26,4.88,0.67,7.29,1.17
					c4.73,0.97,9.39,2.29,14.03,3.61C386.27,274.85,386.54,273.88,385.92,273.71L385.92,273.71z"/>
			</g>
		</g>
		<g>
			<g>
				<path class="st17" d="M460.76,344.68c-14.61,1.69-28.85,5.53-42.88,9.84c-3.98,1.22-7.95,2.49-11.92,3.75
					c-0.55,0.18-0.42,0.93,0.13,0.98c9.31,0.8,18.66,1,28,0.6c2.67-0.11,5.34-0.28,8.01-0.49c0.64-0.05,0.64-1.05,0-1
					c-9.31,0.74-18.67,0.89-28,0.43c-2.67-0.13-5.34-0.31-8.01-0.54c0.04,0.33,0.09,0.65,0.13,0.98
					c13.91-4.42,27.88-8.86,42.23-11.64c4.08-0.79,8.18-1.44,12.3-1.91C461.39,345.61,461.4,344.61,460.76,344.68L460.76,344.68z"/>
			</g>
		</g>
		<g>
			<g>
				<path class="st17" d="M445.29,358.27c-0.42,0.07-0.65,0.41-0.65,0.82c0,0.35,0.32,0.54,0.63,0.48c2.25-0.39,4.17-1.74,6.35-2.37
					c2.28-0.66,4.65-0.82,7.01-0.98c0.64-0.04,0.64-1.04,0-1c-2.37,0.16-4.76,0.32-7.06,0.96c-2.26,0.63-4.25,2.03-6.56,2.43
					c0.21,0.16,0.42,0.32,0.63,0.48c-0.03,0.05-0.05,0.1-0.08,0.14C446.19,359.12,445.92,358.16,445.29,358.27L445.29,358.27z"/>
			</g>
		</g>
		<g>
			<g>
				<path class="st17" d="M455.29,359.85c1.67-0.05,3.34-0.1,5-0.15c0.64-0.02,0.64-1.02,0-1c-1.67,0.05-3.34,0.1-5,0.15
					C454.65,358.87,454.65,359.87,455.29,359.85L455.29,359.85z"/>
			</g>
		</g>
		<g>
			<g>
				<path d="M332.8,215.44c-1.28,3.59-2.53,7.32-2.47,11.17c0.03,1.82,0.67,3.69,0.22,5.49c-0.43,1.69-1.54,3.13-2.58,4.5
					c-0.39,0.51,0.48,1.01,0.86,0.5c1.02-1.34,2.05-2.73,2.57-4.35c0.59-1.83,0.06-3.58-0.04-5.44c-0.23-4.01,1.08-7.89,2.41-11.61
					C333.98,215.1,333.01,214.83,332.8,215.44L332.8,215.44z"/>
			</g>
		</g>
		<g>
			<g>
				<path class="st17" d="M318.94,253.44c5.3,2.78,6.07,9.3,6.24,14.65c0.02,0.64,1.02,0.64,1,0c-0.19-5.7-1.11-12.56-6.74-15.51
					C318.88,252.28,318.37,253.14,318.94,253.44L318.94,253.44z"/>
			</g>
		</g>
		<g>
			<g>
				<path class="st17" d="M326.33,281.98c0.8,4.58,0.85,9.25,1.02,13.88c0.17,4.36,0.53,8.77,0.17,13.12
					c-0.2,2.41-0.69,4.78-1.62,7.02c-0.25,0.59,0.72,0.85,0.96,0.27c1.68-4.01,1.87-8.41,1.77-12.7c-0.11-4.64-0.3-9.29-0.53-13.93
					c-0.13-2.65-0.35-5.3-0.81-7.92C327.19,281.08,326.22,281.35,326.33,281.98L326.33,281.98z"/>
			</g>
		</g>
		<g>
			<g>
				<path d="M508.66,301.15c3.78-8.82,14.46-10.89,22.98-11.82c2.9-0.31,5.81-0.48,8.72-0.5c0.64,0,0.64-1,0-1
					c-5.26,0.04-10.56,0.51-15.72,1.56c-4.56,0.92-9.08,2.51-12.64,5.6c-1.79,1.56-3.27,3.47-4.21,5.66
					C507.54,301.23,508.4,301.74,508.66,301.15L508.66,301.15z"/>
			</g>
		</g>
		<g>
			<g>
				<path class="st17" d="M552.67,290.03c1.44,0.34,2.86,0.76,4.25,1.25c1.1,0.39,2.61,0.75,3.31,1.76c0.36,0.52,1.23,0.03,0.86-0.5
					c-0.81-1.17-2.21-1.61-3.49-2.08c-1.53-0.55-3.09-1.02-4.67-1.4C552.31,288.92,552.04,289.88,552.67,290.03L552.67,290.03z"/>
			</g>
		</g>
		<g>
			<g>
				<path d="M559.96,275.6c0.09-1.5-1.39-2.11-2.64-2.23c-1.77-0.17-3.55-0.23-5.33-0.35c-1.46-0.09-3.1-0.37-4.5,0.2
					c-1.18,0.48-1.85,1.56-2.05,2.79c-0.21,1.25-0.06,2.56,0.14,3.8s0.58,2.49,1.4,3.47c0.9,1.08,2.23,1.49,3.58,1.65
					c1.69,0.19,3.43,0.2,5.13,0.19c0.94,0,1.89,0,2.83-0.07c0.73-0.06,1.46-0.2,2.03-0.69c1.33-1.16,0.97-3.08,1.42-4.6
					c0.18-0.62-0.78-0.88-0.96-0.27c-0.35,1.17-0.14,2.53-0.73,3.62c-0.67,1.22-2.43,0.98-3.61,1.01c-1.37,0.03-2.74,0.01-4.11-0.05
					c-1.25-0.05-2.63-0.04-3.77-0.61c-1.97-0.99-2.3-3.6-2.41-5.56c-0.06-1.04-0.06-2.26,0.64-3.11c0.8-0.97,2.19-0.92,3.33-0.86
					c1.53,0.08,3.06,0.2,4.59,0.29c0.8,0.05,1.6,0.08,2.4,0.16c0.72,0.07,1.69,0.34,1.64,1.23
					C558.92,276.24,559.92,276.24,559.96,275.6L559.96,275.6z"/>
			</g>
		</g>
		<g>
			<g>
				<path d="M549.92,282.26c-0.04,0,0.3,0.49,0.35,0.53c0.17,0.15,0.39,0.25,0.62,0.26c0.24,0.01,0.46-0.07,0.61-0.26
					c0.09-0.11,0.13-0.24,0.14-0.38c0-0.04,0-0.09,0-0.13c0.01-0.2-0.05-0.19-0.19,0.04c0,0,0.41,0.04,0.37,0.03
					c0.18,0.02,0.36,0.05,0.54,0.07c0.42,0.06,0.84,0.11,1.27,0.17c0.78,0.1,1.57,0.21,2.35,0.31c0.29,0.04,0.48-0.26,0.5-0.5
					c0.01-0.1,0.04-0.2,0.08-0.3c-0.19,0.08-0.38,0.15-0.56,0.23c1.04,0.27,2.1,0.46,3.17,0.59c0.64,0.07,0.63-0.93,0-1
					c-0.98-0.11-1.95-0.3-2.91-0.55c-0.19-0.05-0.48,0.03-0.56,0.23c-0.12,0.27-0.18,0.51-0.21,0.8c0.17-0.17,0.33-0.33,0.5-0.5
					c-0.78-0.1-1.57-0.21-2.35-0.31c-0.39-0.05-0.78-0.1-1.18-0.15c-0.33-0.04-0.69-0.13-1.03-0.11c-0.22,0.01-0.47,0.09-0.62,0.26
					c-0.09,0.1-0.15,0.23-0.18,0.37c-0.01,0.07-0.01,0.13-0.01,0.2c-0.01,0.25,0.11,0.22,0.35-0.09c0-0.08-0.28-0.41-0.35-0.49
					c-0.19-0.21-0.41-0.3-0.69-0.31C549.27,281.24,549.27,282.24,549.92,282.26L549.92,282.26z"/>
			</g>
		</g>
		<g>
			<g>
				<path d="M551.88,279.59c-0.8-0.87-1.44-1.85-1.92-2.93c-0.23,0.23-0.46,0.46-0.68,0.68c1.29,0.59,2.52,1.3,3.68,2.12
					c0.21,0.15,0.58,0.05,0.68-0.18c0.39-0.86,0.98-1.56,1.78-2.07c-0.25-0.14-0.5-0.29-0.75-0.43c-0.06,0.81-0.13,1.62-0.19,2.42
					c-0.04,0.52,0.69,0.65,0.93,0.25c0.51-0.83,1.65-1.14,2.51-0.66c0-0.29,0-0.58,0-0.86c-0.5,0.3-1.21,0.88-1.22,1.53
					c-0.02,0.77,1.06,1.04,1.61,1.3c0.58,0.28,1.08-0.58,0.5-0.86c-0.21-0.1-0.41-0.2-0.62-0.3c-0.12-0.06-0.49-0.16-0.56-0.28
					c0.14,0.23,0.25-0.08,0.37-0.2c0.13-0.13,0.27-0.23,0.43-0.32c0.32-0.19,0.33-0.68,0-0.86c-1.33-0.74-3.08-0.28-3.87,1.02
					c0.31,0.08,0.62,0.17,0.93,0.25c0.06-0.81,0.13-1.62,0.19-2.42c0.03-0.38-0.45-0.62-0.75-0.43c-0.94,0.59-1.68,1.42-2.14,2.43
					c0.23-0.06,0.46-0.12,0.68-0.18c-1.16-0.82-2.39-1.53-3.68-2.12c-0.47-0.21-0.89,0.22-0.68,0.68c0.51,1.16,1.22,2.21,2.07,3.14
					C551.61,280.77,552.32,280.06,551.88,279.59L551.88,279.59z"/>
			</g>
		</g>
		<g>
			<g>
				<path d="M546.12,237.85c1.66,3.11,2.61,6.94,1.23,10.33c-0.33,0.81-0.77,1.57-1.1,2.38c-0.35,0.87-0.54,1.78-0.57,2.72
					c-0.06,1.87,0.44,3.71,0.95,5.49c0.17,0.62,1.14,0.36,0.96-0.27c-0.53-1.87-1.08-3.82-0.87-5.78c0.2-1.91,1.44-3.44,1.93-5.27
					c0.93-3.42-0.04-7.06-1.67-10.11C546.68,236.78,545.82,237.29,546.12,237.85L546.12,237.85z"/>
			</g>
		</g>
		<g>
			<g>
				<path d="M467.93,245.96c1.64,2.49,3.78,4.62,6.29,6.22c1.28,0.82,2.81,1.33,3.98,2.31c0.64,0.53,1.12,1.22,1.6,1.89
					c0.56,0.76,1.12,1.53,1.68,2.29c0.38,0.51,1.25,0.01,0.86-0.5c-0.98-1.34-1.89-2.83-3.05-4.02c-1.08-1.1-2.56-1.63-3.88-2.4
					c-2.66-1.55-4.93-3.72-6.63-6.29C468.44,244.92,467.57,245.42,467.93,245.96L467.93,245.96z"/>
			</g>
		</g>
		<g>
			<g>
				<path class="st17" d="M506.4,173.24c-4.2,0.41-8.36,1.11-12.45,2.12c-0.72,0.18-4.57,0.81-3,2.3c0.66,0.63,1.56,1.11,2.33,1.61
					c0.86,0.56,1.73,1.09,2.62,1.59c1.95,1.11,3.97,2.08,6.04,2.94c0.59,0.25,0.85-0.72,0.27-0.96c-2.06-0.85-4.06-1.84-6-2.95
					c-0.92-0.53-1.82-1.08-2.71-1.67c-0.44-0.29-0.88-0.59-1.32-0.89c-0.12-0.09-0.25-0.17-0.37-0.26
					c-0.15-0.07-0.12-0.11,0.08-0.13c0.19-0.13,0.59-0.16,0.81-0.22c4.49-1.2,9.07-2.03,13.7-2.48
					C507.04,174.18,507.04,173.17,506.4,173.24L506.4,173.24z"/>
			</g>
		</g>
		<g>
			<g>
				<path d="M503.38,184.72c2.25,0.84,4.8,1.66,7.09,0.47c0.46-0.24,0.84-0.56,1.2-0.92c0.21-0.21,0.41-0.45,0.71-0.53
					c0.36-0.1,0.76,0.04,1.12,0.1c1.36,0.23,2.73,0.36,4.11,0.39c0.64,0.01,0.64-0.99,0-1c-1.37-0.03-2.73-0.15-4.08-0.39
					c-0.53-0.09-1.06-0.22-1.58-0.02c-0.48,0.19-0.81,0.59-1.18,0.94c-1.96,1.88-4.94,0.82-7.13,0.01
					C503.04,183.53,502.78,184.49,503.38,184.72L503.38,184.72z"/>
			</g>
		</g>
		<g>
			<g>
				<path class="st17" d="M524.82,195.5c-2.27-1.11-4.53-2.22-6.8-3.32c-0.77-0.38-1.85-1.22-2.72-0.68
					c-0.45,0.28-0.82,0.71-1.21,1.06c-0.46,0.42-0.92,0.83-1.38,1.25c-0.25,0.23-0.15,0.61,0.1,0.79c1.82,1.24,3.77,2.25,5.84,3.02
					c1.06,0.4,2.18,0.64,3.23,1.06c1.11,0.45,2.02,1.26,2.94,2c3.34,2.71,6.51,5.71,8.73,9.44c0.33,0.55,1.19,0.05,0.86-0.5
					c-2.26-3.8-5.47-6.88-8.88-9.64c-0.84-0.68-1.68-1.42-2.64-1.92c-1.02-0.53-2.16-0.77-3.24-1.13c-2.25-0.76-4.37-1.85-6.33-3.18
					c0.03,0.26,0.07,0.52,0.1,0.79c0.4-0.36,0.8-0.73,1.21-1.09c0.33-0.3,0.66-0.7,1.03-0.93c0.47-0.29,1.08,0.18,1.53,0.4
					c0.48,0.23,0.95,0.46,1.43,0.7c1.9,0.93,3.8,1.86,5.7,2.79C524.89,196.64,525.4,195.78,524.82,195.5L524.82,195.5z"/>
			</g>
		</g>
		<g>
			<g>
				<path class="st17" d="M501.26,263.94c7.86,1.11,15.64,2.68,23.32,4.69c0.62,0.16,0.89-0.8,0.27-0.96
					c-7.68-2.01-15.47-3.57-23.32-4.69C500.9,262.88,500.63,263.85,501.26,263.94L501.26,263.94z"/>
			</g>
		</g>
		<g>
			<g>
				<path class="st17" d="M507.74,258.86c3.36-0.88,6.75-1.64,10.16-2.28c0.63-0.12,0.36-1.08-0.27-0.96
					c-3.41,0.64-6.8,1.4-10.16,2.28C506.85,258.06,507.11,259.02,507.74,258.86L507.74,258.86z"/>
			</g>
		</g>
		<g>
			<g>
				<path class="st17" d="M360.04,189.23c4.05-2.79,8.57-4.79,13.35-5.9c0.63-0.15,0.36-1.11-0.27-0.96
					c-4.86,1.13-9.48,3.17-13.59,6C359,188.73,359.5,189.59,360.04,189.23L360.04,189.23z"/>
			</g>
		</g>
		<g>
			<g>
				<path class="st17" d="M405.04,244.56c10.46,3.87,21.12,7.19,31.94,9.92c3.06,0.77,6.14,1.5,9.22,2.18
					c0.63,0.14,0.9-0.83,0.27-0.96c-10.89-2.4-21.65-5.38-32.22-8.94c-2.99-1.01-5.97-2.06-8.93-3.16
					C404.7,243.37,404.44,244.33,405.04,244.56L405.04,244.56z"/>
			</g>
		</g>
		<g>
			<g>
				<path class="st17" d="M424.83,255.98c3.49,1.24,7.08,2.09,10.75,2.58c0.64,0.09,0.63-0.92,0-1c-3.57-0.48-7.09-1.34-10.48-2.55
					C424.49,254.8,424.23,255.76,424.83,255.98L424.83,255.98z"/>
			</g>
		</g>
	</g>
</g>
</svg>
