<?xml version="1.0" encoding="utf-8"?>
<!-- Generator: Adobe Illustrator 28.0.0, SVG Export Plug-In . SVG Version: 6.00 Build 0)  -->
<svg version="1.1" id="Layer_1" xmlns="http://www.w3.org/2000/svg" xmlns:xlink="http://www.w3.org/1999/xlink" x="0px" y="0px"
	 viewBox="0 0 800 800" style="enable-background:new 0 0 800 800;" xml:space="preserve">
<style type="text/css">
	.st0{fill:#F00000;}
	.st1{fill:#A58D6C;}
	.st2{fill:#6B5A45;}
	.st3{fill:#EE0046;}
	.st4{fill:url(#SVGID_1_);}
	.st5{fill:url(#SVGID_00000082341952375648420600000009041159226622971804_);}
	.st6{fill:url(#SVGID_00000072280380780634692470000015942926957660721793_);}
	.st7{fill:url(#SVGID_00000049181403140006026490000017628027332501961091_);}
	.st8{fill:url(#SVGID_00000047047763897060346350000012695582855070491583_);}
	.st9{fill:url(#SVGID_00000180326571245500699670000004501443821709090953_);}
	.st10{fill:url(#SVGID_00000163056743328641015520000000119119785110324370_);}
	.st11{fill:url(#SVGID_00000055693007614626639280000009696868718062762123_);}
	.st12{fill:url(#SVGID_00000085247234630386241660000018088337238028407210_);}
	.st13{fill:url(#SVGID_00000023248840545480780390000017975023848597976743_);}
	.st14{fill:url(#SVGID_00000131364701736217022240000003743397024326148018_);}
	.st15{fill:url(#SVGID_00000093170707838245348930000012696697905998302392_);}
	.st16{fill:url(#SVGID_00000029727294126076292070000001271234095088897972_);}
	.st17{fill:url(#SVGID_00000119825443287902927570000012442101740445539503_);}
	.st18{fill:url(#SVGID_00000031904016591546825880000004829027183083864449_);}
	.st19{fill:url(#SVGID_00000167369882510749124880000006104519776083510202_);}
	.st20{fill:url(#SVGID_00000023255080035415099920000014851185288021066172_);}
	.st21{fill:url(#SVGID_00000024697810888652749050000013278799269800493458_);}
	.st22{fill:url(#SVGID_00000173880675713358216920000010793123202413619867_);}
	.st23{fill:url(#SVGID_00000138542420306433759660000009928861011787716273_);}
	.st24{fill:url(#SVGID_00000110465883223059759700000015922042935296716436_);}
	.st25{fill:url(#SVGID_00000083071279167808130160000001744745050342126219_);}
	.st26{fill:url(#SVGID_00000143611236644222504640000010497870206795667639_);}
	.st27{fill:url(#SVGID_00000084514951776448573440000002217388578418830726_);}
	.st28{fill:url(#SVGID_00000085950683916431127000000017931958999233224594_);}
	.st29{fill:url(#SVGID_00000181768274558453294950000006015501304679582370_);}
	.st30{fill:#191919;}
	.st31{fill:#F4D800;}
	.st32{fill:#232323;}
	.st33{fill:none;stroke:#000000;stroke-miterlimit:10;}
	.st34{fill:none;stroke:#000000;stroke-width:0.75;stroke-miterlimit:10;}
	.st35{fill:none;stroke:#000000;stroke-width:1;stroke-miterlimit:9.9999;}
	.st36{fill:none;stroke:#000000;stroke-width:1;stroke-miterlimit:10.0004;}
</style>
<g id="_x32_-PANTS__x5B_CUCK_x5D__VOJAK__x2B_">
	<g id="Layer_23">
		<path class="st0" d="M452.69,385.94c-1.38-0.23-2.75-0.46-4.13-0.69c0.19,1.23,0.47,2.46,0.59,3.69c0.11,1.11,0.23,2.23,0.5,3.31
			c0.26,1.03,0.56,1.96,0.54,3.03c-0.04,2.08-0.12,3.89,2.27,4.63c1.22,0.38,2.49,0.54,3.76,0.71c4.01,0.52,8.02,1.04,12.03,1.56
			c0.24,0.03,0.5,0.05,0.69-0.09c0.15-0.11,0.21-0.29,0.27-0.47c0.84-2.64,0.52-5.48,0.19-8.23c-0.17-1.45-0.35-2.9-0.52-4.35
			c-0.01-0.12-0.03-0.26-0.12-0.35c-0.09-0.1-0.23-0.12-0.36-0.14C463.16,387.69,457.92,386.82,452.69,385.94z"/>
		<path class="st1" d="M466.98,412.19c-0.66-0.73-2.15-1.15-3.08-0.94c-1.38,0.31-2.34,2.84-2.02,4.06c0.28,1.1,1.24,2,2.36,2.23
			s2.34-0.19,3.09-1.05c0.24-0.28,0.44-0.6,0.53-0.95c0.18-0.67-0.03-1.37-0.24-2.03c-0.14-0.44-0.28-0.88-0.57-1.24
			C467.02,412.24,467,412.22,466.98,412.19z"/>
		<path class="st1" d="M436.3,395.65c0.02-0.39-0.04-0.78-0.25-1.13c-0.27-0.48-0.74-0.82-1.19-1.11c-0.57-0.37-1.25-0.6-1.92-0.44
			c-0.53,0.12-0.97,0.49-1.25,0.94c-0.3,0.18-0.55,0.43-0.74,0.72c-0.59,0.92-0.48,2.24,0.13,3.13c0.38,0.56,0.95,0.97,1.58,1.15
			c0.03,0.1,0.07,0.2,0.14,0.28c0.26,0.3,0.79,0.31,1.15,0.25c0.67-0.1,1.34-0.33,1.83-0.82c0.52-0.52,0.76-1.28,0.73-2
			C436.5,396.28,436.42,395.96,436.3,395.65z"/>
		<path class="st1" d="M351.04,404.08c-0.39-0.59-1.06-0.98-1.74-0.97c-0.48-0.31-1.41,0-1.77,0.41c-0.57,0.65-0.73,1.52-0.52,2.34
			c0.11,0.42,0.31,0.82,0.56,1.18c0.26,0.37,0.55,0.75,0.91,1.03c0.5,0.38,1.19,0.53,1.74,0.15c0.46-0.31,0.67-0.81,0.86-1.31
			C351.41,406.04,351.58,404.91,351.04,404.08z"/>
		<path class="st1" d="M335.35,424.36c-0.38-0.22-0.83-0.28-1.23-0.06c-0.28,0.16-0.43,0.42-0.51,0.72
			c-0.08,0.15-0.15,0.32-0.18,0.48c-0.11,0.5-0.15,1-0.1,1.51c0.11,1.03,0.47,2.3,1.6,2.62c0.41,0.12,0.89,0.02,1.2-0.29
			c0.22-0.22,0.35-0.5,0.43-0.8c0.13-0.46,0.19-0.97,0.15-1.45C336.63,426.1,336.27,424.88,335.35,424.36z"/>
		<path class="st1" d="M383.34,384.57c-0.18-0.36-0.4-0.71-0.64-1.03c0,0,0-0.01-0.01-0.01l-0.01-0.01
			c-0.14-0.18-0.29-0.36-0.45-0.52c-0.07-0.07-0.14-0.14-0.21-0.2c-0.57-0.54-1.26-0.92-2.06-1.05c-0.01,0-0.02-0.01-0.04-0.01v0.01
			c-0.1-0.02-0.19-0.04-0.3-0.05c-0.33-0.02-0.63,0.16-0.83,0.41c-0.01,0-0.02,0-0.02,0.01c-1.08,0.09-2.18,0.54-2.86,1.39
			c-0.54,0.67-0.73,1.4-0.76,2.17c-1.58,2.16,0.28,5.99,2.91,6.13c1.01,0.56,2.31,0.58,3.36,0.14c1.27-0.54,2.17-1.72,2.52-3.04
			C384.32,387.43,384.02,385.9,383.34,384.57z"/>
		<path class="st2" d="M380.41,386.71c-0.02-0.17-0.05-0.33-0.11-0.49c-0.05-0.12-0.1-0.25-0.17-0.37s-0.15-0.22-0.24-0.33
			c-0.1-0.13-0.23-0.24-0.36-0.33c-0.04-0.04-0.08-0.07-0.12-0.11c-0.08-0.06-0.16-0.13-0.25-0.17c-0.32-0.15-0.64-0.2-0.99-0.12
			c-0.25,0.06-0.5,0.22-0.68,0.4c-0.19,0.2-0.32,0.44-0.4,0.7c-0.07,0.22-0.09,0.45-0.08,0.68c0,0.19,0.03,0.39,0.06,0.58
			c0.07,0.38,0.26,0.72,0.51,1l0.01,0.01c0.01,0.01,0.02,0.03,0.03,0.04c0.09,0.1,0.2,0.18,0.31,0.25s0.25,0.13,0.38,0.16
			c0.1,0.02,0.21,0.03,0.32,0.04c0.05,0,0.1,0.02,0.15,0.02c0.27-0.01,0.53-0.07,0.77-0.21c0.17-0.09,0.33-0.22,0.44-0.37
			c0.17-0.21,0.3-0.41,0.37-0.67C380.44,387.19,380.44,386.95,380.41,386.71z"/>
		<path class="st2" d="M434.13,397.7c-0.02-0.16-0.05-0.32-0.09-0.47c-0.17-0.7-0.52-1.28-1.1-1.71c-0.13-0.1-0.28-0.19-0.42-0.28
			c-0.03-0.02-0.06-0.04-0.08-0.06c-0.03-0.02-0.03-0.02-0.04-0.03c0,0,0,0-0.02-0.02c-0.08-0.07-0.16-0.13-0.25-0.19
			c0.08,0.06-0.06-0.06-0.09-0.09c-0.04-0.04-0.04-0.05-0.08-0.12c-0.03-0.07-0.06-0.16-0.02-0.24c0.1-0.22-0.1-0.43-0.32-0.32
			c-0.34,0.16-0.49,0.54-0.49,0.9c-0.31,0.11-0.57,0.39-0.55,0.76c0.03,0.71,0.24,1.42,0.63,2.02c0.35,0.54,0.9,1.17,1.55,1.36
			c0.03,0.01,0.05,0.03,0.08,0.04c0.66,0.21,1.33-0.28,1.35-0.98C434.21,398.1,434.16,397.89,434.13,397.7z"/>
		<path class="st2" d="M465.07,413.87c-0.15-0.15-0.31-0.29-0.46-0.44c-0.07-0.07-0.14-0.15-0.2-0.22
			c-0.01-0.01-0.01-0.01-0.02-0.03c-0.02-0.04-0.05-0.08-0.07-0.12c-0.05-0.09-0.1-0.18-0.15-0.27l0,0c0,0,0,0,0-0.01
			c-0.01-0.05-0.03-0.11-0.04-0.16c-0.02-0.07-0.05-0.13-0.08-0.2c0-0.01-0.01-0.02-0.01-0.04c-0.01-0.07-0.04-0.14-0.05-0.21
			c-0.02-0.21-0.21-0.4-0.44-0.33c-0.41,0.12-0.65,0.44-0.75,0.82c-0.09,0-0.16,0.05-0.23,0.1c-0.11,0.09-0.21,0.21-0.28,0.34
			c-0.09,0.17-0.17,0.36-0.15,0.55c0,0.01,0,0.02,0,0.03c-0.11,0.2-0.18,0.42-0.22,0.63c-0.1,0.58-0.02,1.11,0.23,1.65
			c0.42,0.91,1.33,1.46,2.26,1.73c0.43,0.12,0.92-0.07,1.18-0.43c0.27-0.1,0.5-0.32,0.58-0.61
			C466.46,415.56,465.82,414.61,465.07,413.87z"/>
		<path class="st2" d="M350.76,404.48c-0.04-0.19-0.09-0.36-0.17-0.54c-0.09-0.21-0.22-0.36-0.3-0.51c-0.2-0.39-0.87-0.31-0.96,0.13
			c-0.04,0.21-0.05,0.41,0,0.62c0.02,0.06,0.04,0.12,0.05,0.18c0.01,0.03,0.01,0.06,0.02,0.09c0,0.01,0,0.01,0,0.02
			c0.01,0.14,0,0.27-0.01,0.41v0.01c0,0.02-0.01,0.05-0.01,0.06c-0.01,0.07-0.04,0.13-0.05,0.2c0,0.02-0.01,0.02-0.01,0.03
			c-0.01,0.01-0.01,0.03-0.02,0.04c-0.03,0.06-0.06,0.12-0.1,0.18c-0.01,0.02-0.03,0.04-0.04,0.06c-0.05,0.05-0.11,0.11-0.16,0.16
			c-0.01,0.01,0,0,0,0c-0.02,0.02-0.04,0.03-0.06,0.05c-0.09,0.06-0.18,0.13-0.26,0.2c-0.16,0.12-0.3,0.28-0.39,0.46
			c-0.2,0.38-0.26,0.83-0.14,1.25c0.17,0.58,0.65,1.03,1.29,0.88c0.37-0.09,0.72-0.39,0.97-0.66c0.23-0.24,0.44-0.52,0.59-0.82
			C351.39,406.18,351.67,404.95,350.76,404.48z"/>
		<path class="st2" d="M336.86,426.64c-0.08-0.37-0.32-0.71-0.67-0.83c-0.08-0.16-0.18-0.32-0.3-0.46c-0.19-0.22-0.4-0.47-0.68-0.56
			c-0.11-0.04-0.25,0.04-0.28,0.16c-0.06,0.24-0.01,0.5-0.02,0.74c-0.01,0.28,0.02,0.55,0.01,0.83c0,0.08,0.01,0.24-0.02,0.31
			c0-0.03,0.01-0.06,0.01-0.09c-0.01,0.04-0.02,0.08-0.03,0.12c-0.01,0.02-0.01,0.04-0.02,0.06c-0.01,0.01,0,0.01-0.01,0.02
			c-0.02,0.04-0.04,0.07-0.06,0.1c-0.02,0.02-0.04,0.03-0.05,0.04c-0.14,0.15-0.27,0.29-0.39,0.45c-0.2,0.28-0.32,0.61-0.32,0.96
			c0.01,0.54,0.38,1.04,0.89,1.2c0.42,0.13,0.89,0.02,1.21-0.29c0.27-0.26,0.39-0.61,0.51-0.95
			C336.87,427.86,336.98,427.25,336.86,426.64z"/>
		<path class="st3" d="M525.69,681.67c-0.21-0.89-0.53-1.78-0.84-2.56c-0.3-0.75-0.68-1.5-1.29-2.03s-1.5-0.8-2.25-0.49
			c-0.5,0.2-0.9,0.64-1.19,1.08c-0.32,0.48-0.22,0.94-0.12,1.5c0.18,1.02,0.58,1.96,0.82,2.96c0.25,1.02,0.41,2.01,0.8,3
			c0.09,0.23,0.2,0.46,0.41,0.58c0.26,0.14,0.58,0.05,0.86-0.05c0.87-0.32,2.99-0.95,3.01-2.06
			C525.93,682.97,525.84,682.32,525.69,681.67z"/>
		<path class="st3" d="M531.52,677.5c-0.42-1.17-1.12-3.84-2.67-3.95c-0.49-0.03-0.97,0.15-1.39,0.39
			c-0.16,0.09-0.32,0.19-0.45,0.33c-0.42,0.49-0.2,1.24,0.01,1.85c0.62,1.73,1.05,3.53,1.28,5.35c0.03,0.27,0.13,0.61,0.4,0.63
			c0.11,0.01,0.22-0.04,0.31-0.09c0.84-0.43,1.41-1.39,1.99-2.11c0.26-0.32,0.56-0.65,0.66-1.07
			C531.78,678.37,531.68,677.94,531.52,677.5z"/>
		<path class="st3" d="M420.27,670.64c-0.06-0.6-0.1-1.2-0.17-1.8c-0.13-1.14-0.23-2.28-0.39-3.41c-0.31-2.07-2.88-3.69-4.48-1.72
			c-0.17,0.21-0.3,0.45-0.31,0.72c0,0.15,0.04,0.29,0.08,0.44c0.45,1.64,0.71,3.32,0.96,4.99c0.2,1.37,0.19,3.43,0.98,4.61
			c0.89-0.23,1.75-0.59,2.54-1.07c0.28-0.17,0.55-0.36,0.73-0.64c0.25-0.4,0.24-0.91,0.17-1.38
			C420.32,671.14,420.29,670.89,420.27,670.64z"/>
		<path class="st3" d="M426.06,663.48c-0.18-0.61-0.42-1.2-0.71-1.77c-0.29-0.56-0.67-1.26-1.25-1.56
			c-0.54-0.28-1.14-0.08-1.49,0.35c-0.42,0.09-0.77,0.45-0.96,0.87c-0.4,0.86-0.12,1.82,0.07,2.7c0.5,2.21,1.07,4.39,1.54,6.6
			c0.01,0.04,0.02,0.08,0.05,0.1c0.03,0.02,0.07,0.02,0.1,0.01c0.88-0.09,1.64-0.61,2.37-1.11c0.15-0.11,0.31-0.21,0.43-0.35
			c0.13-0.14,0.21-0.31,0.28-0.49C427.11,667.3,426.51,664.99,426.06,663.48z"/>
	</g>
	<g id="sh_00000131334938187511430230000014792249883509368511_">
		
			<linearGradient id="SVGID_1_" gradientUnits="userSpaceOnUse" x1="349.5948" y1="132.5134" x2="389.687" y2="131.9306" gradientTransform="matrix(1 0 0 -1 0 799.8898)">
			<stop  offset="0" style="stop-color:#191919"/>
			<stop  offset="0.3827" style="stop-color:#595959;stop-opacity:0.6173"/>
			<stop  offset="0.8018" style="stop-color:#9A9A9A;stop-opacity:0.1982"/>
			<stop  offset="1" style="stop-color:#B3B3B3;stop-opacity:0"/>
		</linearGradient>
		<path class="st4" d="M371.24,659.14c-0.23,1.11-0.23,2.47-0.08,3.29c0.55,2.96,1.1,5.93,1.65,8.89c0.11,0.57,0.22,1.15,0.52,1.64
			c0.4,0.64,1.08,1.05,1.75,1.4c2.98,1.6,6.18,2.79,9.49,3.5c1.73,0.37,3.54,0.62,5.25,0.16c4.04-1.08,6.13-5.53,9.62-7.84
			c0.63-0.41,1.35-0.82,1.57-1.54c0.43-1.38-1.27-2.44-2.67-2.78c-3.6-0.88-7.35-0.84-11.03-1.28c-2.32-0.28-4.36-1.18-6.64-1.69
			c-2.59-0.58-4.9-2.18-6.52-4.28C372.46,656.41,371.58,657.49,371.24,659.14z"/>
		
			<linearGradient id="SVGID_00000116209308357884547630000002734481780896927667_" gradientUnits="userSpaceOnUse" x1="348.0403" y1="163.7607" x2="374.9536" y2="171.6158" gradientTransform="matrix(1 0 0 -1 0 799.8898)">
			<stop  offset="0" style="stop-color:#191919"/>
			<stop  offset="0.3827" style="stop-color:#595959;stop-opacity:0.6173"/>
			<stop  offset="0.8018" style="stop-color:#9A9A9A;stop-opacity:0.1982"/>
			<stop  offset="1" style="stop-color:#B3B3B3;stop-opacity:0"/>
		</linearGradient>
		<path style="fill:url(#SVGID_00000116209308357884547630000002734481780896927667_);" d="M377.76,647.65
			c1.18-1.09,1.65-2.73,2.02-4.3c0.9-3.9,1.47-7.87,1.76-11.86c0.12-1.57,0.19-3.16-0.18-4.69c-0.35-1.46-1.08-2.8-1.88-4.08
			c-3.41-5.42-8.14-9.86-12.82-14.23c-0.22,2.15,0.07,4.32,0.36,6.46c1.24,9.04,2.47,18.08,3.71,27.12c0.26,1.89,0.15,7.38,1.88,8.6
			c1.11,0.78,1.35-0.32,2.14-1.02C375.65,648.83,376.86,648.47,377.76,647.65z"/>
		
			<linearGradient id="SVGID_00000044875315334447172470000001135996873638964626_" gradientUnits="userSpaceOnUse" x1="334.7144" y1="212.1097" x2="365.358" y2="218.8406" gradientTransform="matrix(1 0 0 -1 0 799.8898)">
			<stop  offset="0" style="stop-color:#191919"/>
			<stop  offset="0.3827" style="stop-color:#595959;stop-opacity:0.6173"/>
			<stop  offset="0.8018" style="stop-color:#9A9A9A;stop-opacity:0.1982"/>
			<stop  offset="1" style="stop-color:#B3B3B3;stop-opacity:0"/>
		</linearGradient>
		<path style="fill:url(#SVGID_00000044875315334447172470000001135996873638964626_);" d="M360.52,583.22
			c-0.02-0.15-0.02-0.34,0.11-0.43c0.09-0.06,0.22-0.05,0.33-0.03c1.61,0.27,3.2,0.69,4.73,1.26c0.76,0.28,1.51,0.6,2.31,0.7
			s1.68-0.06,2.26-0.62c-0.76-1.47-1.7-2.85-2.8-4.09c-0.54-0.61-1.13-1.21-1.46-1.95c-0.42-0.95-0.37-2.02-0.45-3.05
			c-0.12-1.56-0.55-3.08-1.11-4.53c-0.18-0.46-0.37-0.93-0.68-1.32c-0.55-0.7-1.4-1.08-2.21-1.44c-1.47-0.65-2.93-1.29-4.4-1.94
			c-0.36,1.86-0.12,3.78,0.12,5.66c0.24,1.91,0.49,3.82,0.73,5.72c0.19,1.49,0.38,2.98,0.71,4.45c0.33,1.47,0.79,2.9,1.24,4.33
			c0.69,2.16,1.39,4.33,2.08,6.49c0.34,1.05,0.67,2.09,1.01,3.14c0.27,0.85,0.44,2.19,1.05,2.83
			C362.57,593.36,361.07,588.51,360.52,583.22z"/>
		
			<linearGradient id="SVGID_00000159466507932039254150000014621925986834710144_" gradientUnits="userSpaceOnUse" x1="294.8015" y1="362.4352" x2="345.9861" y2="364.3625" gradientTransform="matrix(1 0 0 -1 0 799.8898)">
			<stop  offset="0" style="stop-color:#191919"/>
			<stop  offset="0.3827" style="stop-color:#595959;stop-opacity:0.6173"/>
			<stop  offset="0.8018" style="stop-color:#9A9A9A;stop-opacity:0.1982"/>
			<stop  offset="1" style="stop-color:#B3B3B3;stop-opacity:0"/>
		</linearGradient>
		<path style="fill:url(#SVGID_00000159466507932039254150000014621925986834710144_);" d="M341.84,487.92
			c-0.67-4.21-0.71-8.52-0.13-12.75c0.24-1.75,0.6-3.53,1.53-5.04c1.88-3.06,5.6-4.35,9.04-5.41c-1.84-2.5-4.3-4.54-7.09-5.89
			c-0.53-0.26-1.14-0.57-1.25-1.15c-0.08-0.39,0.11-0.78,0.29-1.14c3.83-7.61,7.66-15.22,11.49-22.83c0.5-1,0.96-2.34,0.15-3.11
			c-0.53-0.51-1.36-0.49-2.08-0.41c-1.5,0.17-3.07,0.48-4.49-0.04c-1.49-0.53-2.65-1.91-4.23-2.08c-0.65-0.07-1.3,0.08-1.94,0.23
			c-2.25,0.53-4.5,1.05-6.74,1.58c0.69-2.06,0.4-4.43-0.77-6.26c0.71-0.95,1.69-1.7,2.8-2.13c-0.13-1.22-1.55-1.76-2.42-2.62
			c-1.44-1.42-1.34-3.75-1.01-5.75c0.69-4.14,1.95-8.18,3.72-11.98c0.22-0.47,0.46-1.01,0.28-1.5c-0.16-0.44-0.59-0.7-1-0.93
			c-0.67-0.38-1.37-0.8-1.73-1.49c-0.85-1.65,0.88-3.53,2.64-4.1c1.77-0.56,3.78-0.51,5.3-1.57c2.45-1.72,2.39-5.3,2.07-8.27
			c-2.39,0.18-4.78,0.36-7.16,0.54c-0.87,0.07-1.81,0.16-2.48,0.73c-1.1,0.95-0.92,2.66-0.96,4.12c-0.11,3.49-2.07,6.64-2.94,10.02
			c-0.56,2.18-0.68,4.45-0.75,6.69c-0.69,20.5,1.52,41.09,6.54,60.97c0.28,1.09-0.13,1.78,0.05,2.89
			C339.53,475.29,340.87,481.88,341.84,487.92z"/>
		
			<linearGradient id="SVGID_00000013895606039969876420000010710142785637092488_" gradientUnits="userSpaceOnUse" x1="318.1582" y1="256.9229" x2="361.0074" y2="268.0546" gradientTransform="matrix(1 0 0 -1 0 799.8898)">
			<stop  offset="0" style="stop-color:#191919"/>
			<stop  offset="0.3827" style="stop-color:#595959;stop-opacity:0.6173"/>
			<stop  offset="0.8018" style="stop-color:#9A9A9A;stop-opacity:0.1982"/>
			<stop  offset="1" style="stop-color:#B3B3B3;stop-opacity:0"/>
		</linearGradient>
		<path style="fill:url(#SVGID_00000013895606039969876420000010710142785637092488_);" d="M347,518.38
			c0.18,0.47,0.39,0.96,0.8,1.25c0.3,0.21,0.67,0.29,1.01,0.44c1.73,0.81,2.12,3.57,4,3.91c0.95,0.17,1.86-0.39,2.67-0.9
			c6.13-3.86,13.06-6.47,20.22-7.59c2.31-0.36,4.95-0.7,7.21,0.04c-2.42,1.14-4.72,1.18-6.8,2.97c-2.41,2.08-4.58,4.44-6.48,6.98
			c-0.47,0.63-0.95,1.31-1.07,2.09c-0.09,0.59,0.02,1.19-0.06,1.79c-0.21,1.57-1.68,2.68-3.14,3.28c-1.47,0.6-3.08,0.91-4.39,1.82
			c-2.17,1.51-2.98,4.3-3.49,6.89c-0.48,2.38-1.36,5.37-1.12,7.8c0.13,1.34,0.73,2.11,0.32,3.54c-0.15,0.51-1.82,2.85-1.72,3.11
			c-1.08-2.92-2.12-5.89-2.59-8.97c-0.26-1.65-0.35-3.33-0.58-4.99c-0.22-1.61-0.58-3.2-0.93-4.79c-1.72-7.74-2.79-16.08-5.32-23.59
			C345.89,515.14,346.39,516.78,347,518.38z"/>
		
			<linearGradient id="SVGID_00000029739065256215290530000007671108246576472727_" gradientUnits="userSpaceOnUse" x1="354.5986" y1="379.2915" x2="380.3272" y2="383.4556" gradientTransform="matrix(1 0 0 -1 0 799.8898)">
			<stop  offset="0" style="stop-color:#191919"/>
			<stop  offset="0.3827" style="stop-color:#595959;stop-opacity:0.6173"/>
			<stop  offset="0.8018" style="stop-color:#9A9A9A;stop-opacity:0.1982"/>
			<stop  offset="1" style="stop-color:#B3B3B3;stop-opacity:0"/>
		</linearGradient>
		<path style="fill:url(#SVGID_00000029739065256215290530000007671108246576472727_);" d="M371.98,398.4
			c-0.93,1.85,0.33,4.86,0.75,6.71c0.57,2.5,1.17,5,1.83,7.49c0.84,3.12,1.77,6.22,2.9,9.26c1.07,2.89,2.06,6.09,3.85,8.61
			c1.53,2.13,3.55,3.86,5.55,5.55c-3.53-4.31-5.56-9.83-5.67-15.4c-0.01-0.72,0.01-1.46,0.24-2.14c0.65-1.86,2.82-3.12,2.81-5.09
			c0-0.8-0.39-1.53-0.63-2.29c-0.46-1.47-0.41-3.04-0.35-4.57c0.12-3.11,0.24-6.22,0.36-9.33c0.01-0.22,0.01-0.45-0.11-0.63
			c-0.14-0.21-0.41-0.28-0.65-0.33c-1.96-0.39-4-0.33-5.94,0.15C375.86,396.64,372.48,397.41,371.98,398.4z"/>
		
			<linearGradient id="SVGID_00000092423140926724734140000003731431725578378629_" gradientUnits="userSpaceOnUse" x1="352.1938" y1="348.6085" x2="380.2869" y2="353.1554" gradientTransform="matrix(1 0 0 -1 0 799.8898)">
			<stop  offset="0" style="stop-color:#191919"/>
			<stop  offset="0.3827" style="stop-color:#595959;stop-opacity:0.6173"/>
			<stop  offset="0.8018" style="stop-color:#9A9A9A;stop-opacity:0.1982"/>
			<stop  offset="1" style="stop-color:#B3B3B3;stop-opacity:0"/>
		</linearGradient>
		<path style="fill:url(#SVGID_00000092423140926724734140000003731431725578378629_);" d="M379.53,444.34
			c-1.98-0.6-4.74,0.35-6.65,0.93c-2.19,0.66-4.32,1.51-6.43,2.41c-4.67,2-9.34,3.95-13.76,6.46c-0.05,0.03-0.02,0.12,0.04,0.1
			c4.69-1.27,9.18-3.08,13.7-4.85c2.13-0.84,4.26-1.71,6.45-2.39c1.02-0.31,2.05-0.59,3.09-0.8c1.16-0.23,2.47-0.2,3.56-0.64
			C380.09,445.34,380.18,444.54,379.53,444.34z"/>
		
			<linearGradient id="SVGID_00000081624522241509204130000008539362978108928693_" gradientUnits="userSpaceOnUse" x1="353.6884" y1="343.1058" x2="365.5429" y2="345.0245" gradientTransform="matrix(1 0 0 -1 0 799.8898)">
			<stop  offset="0" style="stop-color:#191919"/>
			<stop  offset="0.3827" style="stop-color:#595959;stop-opacity:0.6173"/>
			<stop  offset="0.8018" style="stop-color:#9A9A9A;stop-opacity:0.1982"/>
			<stop  offset="1" style="stop-color:#B3B3B3;stop-opacity:0"/>
		</linearGradient>
		<path style="fill:url(#SVGID_00000081624522241509204130000008539362978108928693_);" d="M364.96,454.18
			c-1.89,0.18-3.78,0.77-5.61,1.26c-0.92,0.25-1.84,0.46-2.75,0.76c-0.94,0.31-1.86,0.67-2.79,1c-0.06,0.02-0.06,0.13,0.02,0.12
			c0.93-0.08,1.86-0.11,2.79-0.22c0.95-0.11,1.89-0.3,2.83-0.47c1.88-0.34,3.88-0.63,5.66-1.32
			C365.66,455.1,365.66,454.11,364.96,454.18z"/>
		
			<linearGradient id="SVGID_00000086665059358788964700000001663009959819199408_" gradientUnits="userSpaceOnUse" x1="337.5917" y1="405.3662" x2="357.0148" y2="408.5098" gradientTransform="matrix(1 0 0 -1 0 799.8898)">
			<stop  offset="0" style="stop-color:#191919"/>
			<stop  offset="0.3827" style="stop-color:#595959;stop-opacity:0.6173"/>
			<stop  offset="0.8018" style="stop-color:#9A9A9A;stop-opacity:0.1982"/>
			<stop  offset="1" style="stop-color:#B3B3B3;stop-opacity:0"/>
		</linearGradient>
		<path style="fill:url(#SVGID_00000086665059358788964700000001663009959819199408_);" d="M356.97,391.5
			c-0.77-1.29-2.26-1.04-3.52-0.79c-1.8,0.35-3.61,0.69-5.4,1.09s-3.58,0.81-5.37,1.21c-1.7,0.38-3.43,0.71-4.94,1.6
			c-0.14,0.08-0.14,0.36,0.05,0.39c1.44,0.2,2.8-0.01,4.23-0.23c1.64-0.25,3.27-0.56,4.9-0.83c1.57-0.27,3.14-0.56,4.71-0.87
			c0.78-0.15,1.56-0.31,2.35-0.46c0.63-0.12,1.25-0.27,1.85,0.05C356.54,393.04,357.42,392.25,356.97,391.5z"/>
		
			<linearGradient id="SVGID_00000081624567781006939390000005293290101907126146_" gradientUnits="userSpaceOnUse" x1="359.9046" y1="407.2618" x2="362.9587" y2="407.7561" gradientTransform="matrix(1 0 0 -1 0 799.8898)">
			<stop  offset="0" style="stop-color:#191919"/>
			<stop  offset="0.3827" style="stop-color:#595959;stop-opacity:0.6173"/>
			<stop  offset="0.8018" style="stop-color:#9A9A9A;stop-opacity:0.1982"/>
			<stop  offset="1" style="stop-color:#B3B3B3;stop-opacity:0"/>
		</linearGradient>
		<path style="fill:url(#SVGID_00000081624567781006939390000005293290101907126146_);" d="M362.65,391.82
			c-0.36-1.32-0.82-2.61-1.09-3.95c-0.12-0.61-0.2-1.21-0.18-1.83c0.03-0.61,0.21-1.19,0.28-1.8c0.05-0.5-0.61-0.67-0.92-0.38
			c-0.86,0.8-1.05,2.2-1.08,3.33c-0.04,1.38,0.34,2.73,0.66,4.06c0.69,2.86,0.94,5.68,0.78,8.61c-0.07,1.23,1.97,1.54,2.18,0.29
			C363.74,397.38,363.38,394.5,362.65,391.82z"/>
		
			<linearGradient id="SVGID_00000054230900309450702850000002063084887607744667_" gradientUnits="userSpaceOnUse" x1="423.1074" y1="414.6529" x2="427.9267" y2="415.4329" gradientTransform="matrix(1 0 0 -1 0 799.8898)">
			<stop  offset="0" style="stop-color:#191919"/>
			<stop  offset="0.3827" style="stop-color:#595959;stop-opacity:0.6173"/>
			<stop  offset="0.8018" style="stop-color:#9A9A9A;stop-opacity:0.1982"/>
			<stop  offset="1" style="stop-color:#B3B3B3;stop-opacity:0"/>
		</linearGradient>
		<path style="fill:url(#SVGID_00000054230900309450702850000002063084887607744667_);" d="M427.9,386.95
			c-0.17-1.68-0.17-3.38-0.38-5.05c-0.18-1.42-0.7-2.67-1.81-3.61c-1.04-0.88-2.22-1.33-3.5-1.73c-0.42-0.13-0.58,0.43-0.28,0.66
			c0.98,0.72,2.14,1.49,2.85,2.5c0.78,1.1,0.74,2.37,0.77,3.66c0.08,3.1,0.39,6.17,0.95,9.22c0.25,1.38,2.35,0.8,2.11-0.58
			C428.31,390.33,428.07,388.65,427.9,386.95z"/>
		
			<linearGradient id="SVGID_00000015332060640394856040000001271395649275345282_" gradientUnits="userSpaceOnUse" x1="391.5664" y1="418.4465" x2="415.8318" y2="422.3739" gradientTransform="matrix(1 0 0 -1 0 799.8898)">
			<stop  offset="0" style="stop-color:#191919"/>
			<stop  offset="0.3827" style="stop-color:#595959;stop-opacity:0.6173"/>
			<stop  offset="0.8018" style="stop-color:#9A9A9A;stop-opacity:0.1982"/>
			<stop  offset="1" style="stop-color:#B3B3B3;stop-opacity:0"/>
		</linearGradient>
		<path style="fill:url(#SVGID_00000015332060640394856040000001271395649275345282_);" d="M415.15,377.45c-2.1-0.23-4.3,0-6.4,0.14
			c-1.9,0.13-3.81,0.29-5.7,0.54c-1.96,0.26-3.91,0.58-5.85,0.98c-1.04,0.21-2.08,0.46-3.11,0.75c-0.94,0.26-1.69,0.68-2.56,1.1
			c-0.06,0.03-0.03,0.13,0.04,0.13c0.98,0,1.86,0.06,2.84-0.09c0.91-0.14,1.82-0.26,2.73-0.38c2.05-0.29,4.08-0.57,6.14-0.77
			c1.97-0.2,3.94-0.38,5.92-0.49c1.97-0.11,3.99-0.02,5.94-0.24C416.21,378.98,416.21,377.57,415.15,377.45z"/>
		
			<linearGradient id="SVGID_00000181088145800473959710000000640186827245367712_" gradientUnits="userSpaceOnUse" x1="433.4476" y1="411.0807" x2="470.5918" y2="417.0925" gradientTransform="matrix(1 0 0 -1 0 799.8898)">
			<stop  offset="0" style="stop-color:#191919"/>
			<stop  offset="0.3827" style="stop-color:#595959;stop-opacity:0.6173"/>
			<stop  offset="0.8018" style="stop-color:#9A9A9A;stop-opacity:0.1982"/>
			<stop  offset="1" style="stop-color:#B3B3B3;stop-opacity:0"/>
		</linearGradient>
		<path style="fill:url(#SVGID_00000181088145800473959710000000640186827245367712_);" d="M470.75,387.27
			c-6.31-1.63-12.77-2.8-19.22-3.69c-3.12-0.43-6.24-0.76-9.38-1.01c-1.6-0.13-3.21-0.21-4.82-0.23c-1.48-0.02-3.23-0.17-4.66,0.27
			c-0.26,0.08-0.23,0.41,0,0.5c1.33,0.52,3,0.54,4.41,0.7c1.6,0.19,3.21,0.34,4.82,0.5c3.21,0.31,6.41,0.7,9.59,1.16
			c6.31,0.91,12.53,2.21,18.73,3.68C471.45,389.45,471.97,387.59,470.75,387.27z"/>
		
			<linearGradient id="SVGID_00000152231610664752386450000007590486253832506271_" gradientUnits="userSpaceOnUse" x1="353.336" y1="413.6171" x2="355.0631" y2="413.8966" gradientTransform="matrix(1 0 0 -1 0 799.8898)">
			<stop  offset="0" style="stop-color:#191919"/>
			<stop  offset="0.3827" style="stop-color:#595959;stop-opacity:0.6173"/>
			<stop  offset="0.8018" style="stop-color:#9A9A9A;stop-opacity:0.1982"/>
			<stop  offset="1" style="stop-color:#B3B3B3;stop-opacity:0"/>
		</linearGradient>
		<path style="fill:url(#SVGID_00000152231610664752386450000007590486253832506271_);" d="M355.22,387.15
			c-0.03-0.07-0.08-0.13-0.13-0.19l0,0c-0.03-0.05-0.07-0.1-0.1-0.16c-0.08-0.13-0.17-0.25-0.25-0.38c-0.04-0.06-0.07-0.13-0.1-0.2
			c0-0.01,0,0,0-0.01c-0.01-0.02-0.02-0.04-0.03-0.07c-0.05-0.14-0.09-0.29-0.12-0.43c-0.01-0.04-0.03-0.21-0.02-0.1
			c-0.01-0.09-0.02-0.18-0.03-0.27s-0.04-0.17-0.06-0.25c-0.02-0.07-0.01-0.07-0.02-0.13c-0.03-0.3,0-0.56,0.09-0.85
			c0.04-0.12-0.12-0.21-0.21-0.12c-0.22,0.23-0.43,0.5-0.59,0.78c-0.09,0.15-0.19,0.33-0.24,0.5c-0.05,0.19-0.06,0.4-0.06,0.59
			c-0.01,0.36,0.04,0.74,0.14,1.08c0.13,0.44,0.36,0.93,0.76,1.18c0.26,0.16,0.66,0.12,0.87-0.11
			C355.34,387.77,355.35,387.46,355.22,387.15z"/>
		
			<linearGradient id="SVGID_00000155838031728441324080000011452190135194859957_" gradientUnits="userSpaceOnUse" x1="330.7355" y1="401.8813" x2="340.8864" y2="403.5243" gradientTransform="matrix(1 0 0 -1 0 799.8898)">
			<stop  offset="0" style="stop-color:#191919"/>
			<stop  offset="0.3827" style="stop-color:#595959;stop-opacity:0.6173"/>
			<stop  offset="0.8018" style="stop-color:#9A9A9A;stop-opacity:0.1982"/>
			<stop  offset="1" style="stop-color:#B3B3B3;stop-opacity:0"/>
		</linearGradient>
		<path style="fill:url(#SVGID_00000155838031728441324080000011452190135194859957_);" d="M338.81,384.71
			c-0.35,0.05-0.66,0.04-1,0.19c-0.37,0.16-0.68,0.38-0.99,0.64c-0.61,0.52-1.04,1.18-1.35,1.92c-0.54,1.27-0.75,2.83-0.46,4.24
			c-0.15,1.26-0.28,2.52-0.56,3.75c-0.38,1.66-1.08,3.18-1.61,4.8c-1.03,3.12-0.88,6.24-0.17,9.4c0.01,0.06,0.13,0.07,0.14,0
			c0.47-3.26,0.55-6.54,1.8-9.63c0.85-2.09,1.61-4.32,1.77-6.59c0.36-0.08,0.67-0.36,0.64-0.78c-0.06-0.79-0.26-1.57-0.29-2.36
			c-0.03-0.77,0.01-1.52,0.24-2.25c0.19-0.59,0.5-1.16,0.85-1.67c0.18-0.25,0.38-0.5,0.59-0.72c0.21-0.23,0.34-0.47,0.58-0.67
			C339.1,384.85,338.94,384.69,338.81,384.71z"/>
		
			<linearGradient id="SVGID_00000090973492966189900740000002679208825234280860_" gradientUnits="userSpaceOnUse" x1="335.8817" y1="345.1583" x2="338.342" y2="345.5565" gradientTransform="matrix(1 0 0 -1 0 799.8898)">
			<stop  offset="0" style="stop-color:#191919"/>
			<stop  offset="0.3827" style="stop-color:#595959;stop-opacity:0.6173"/>
			<stop  offset="0.8018" style="stop-color:#9A9A9A;stop-opacity:0.1982"/>
			<stop  offset="1" style="stop-color:#B3B3B3;stop-opacity:0"/>
		</linearGradient>
		<path style="fill:url(#SVGID_00000090973492966189900740000002679208825234280860_);" d="M338.15,454.43
			c-0.85-3.99-1.56-8-2.15-12.04c-0.58-4-0.98-8.02-2.14-11.9c-0.02-0.07-0.12-0.05-0.12,0.02c-0.41,4.05-0.07,8.1,0.4,12.14
			c0.45,3.9,1.14,7.75,2,11.57c0.87,3.89,1.72,7.77,2.29,11.71c0.58,4.09,0.87,8.23,1.27,12.34c0.05,0.52,0.77,0.53,0.81,0
			C341.08,470.29,339.82,462.22,338.15,454.43z"/>
		
			<linearGradient id="SVGID_00000011004895789701562650000014974487097451005361_" gradientUnits="userSpaceOnUse" x1="347.1093" y1="277.8951" x2="351.3951" y2="278.5887" gradientTransform="matrix(1 0 0 -1 0 799.8898)">
			<stop  offset="0" style="stop-color:#191919"/>
			<stop  offset="0.3827" style="stop-color:#595959;stop-opacity:0.6173"/>
			<stop  offset="0.8018" style="stop-color:#9A9A9A;stop-opacity:0.1982"/>
			<stop  offset="1" style="stop-color:#B3B3B3;stop-opacity:0"/>
		</linearGradient>
		<path style="fill:url(#SVGID_00000011004895789701562650000014974487097451005361_);" d="M354.42,546.21
			c-0.08-2.1,0.19-4.21-0.03-6.3c-0.21-2.03-1-3.63-1.96-5.39c-1.05-1.91-1.05-3.92-1.47-6c-0.41-2.06-1.1-4.05-1.6-6.09
			c-0.56-2.26-0.62-4.54-0.75-6.86c-0.24-4.3-1.38-8.52-1.98-12.78c-0.3-2.16-0.63-4.35-1.27-6.44c-0.3-0.99-0.64-1.97-1.11-2.9
			c-0.51-1.01-1.15-1.73-1.84-2.6c-0.15-0.18-0.37,0.05-0.29,0.23c0.78,1.82,1.26,3.99,1.65,5.93c0.38,1.93,0.64,3.88,0.9,5.84
			c0.26,1.93,0.49,3.87,0.87,5.77c0.46,2.33,1.05,4.58,1.24,6.95c0.17,2.08,0.27,4.16,0.68,6.22c0.42,2.06,1.11,4.05,1.61,6.09
			c0.48,1.97,0.44,4.11,1.17,6.01c0.69,1.78,1.94,3.25,2.34,5.15c0.49,2.35,0.12,4.79,0.26,7.17c0.12,2.08,0.36,4.56,1.6,6.31
			c0.24,0.34,0.86,0.26,0.84-0.23C355.18,550.24,354.5,548.27,354.42,546.21z"/>
		
			<linearGradient id="SVGID_00000101791262416135591160000015635490451863955120_" gradientUnits="userSpaceOnUse" x1="360.7305" y1="209.2601" x2="365.2346" y2="209.9892" gradientTransform="matrix(1 0 0 -1 0 799.8898)">
			<stop  offset="0" style="stop-color:#191919"/>
			<stop  offset="0.3827" style="stop-color:#595959;stop-opacity:0.6173"/>
			<stop  offset="0.8018" style="stop-color:#9A9A9A;stop-opacity:0.1982"/>
			<stop  offset="1" style="stop-color:#B3B3B3;stop-opacity:0"/>
		</linearGradient>
		<path style="fill:url(#SVGID_00000101791262416135591160000015635490451863955120_);" d="M366.83,600.98
			c-1.07-4.19-2.88-8.14-4.04-12.3c-1.16-4.19-1.76-8.53-2.14-12.86c-0.25-2.88-0.04-7.81-2.88-9.55c-0.05-0.03-0.1,0.02-0.09,0.07
			c0.26,1.91,0.8,3.71,0.91,5.66c0.11,1.9,0.12,3.79,0.27,5.69c0.31,4.04,0.99,8.08,2.12,11.98c1.16,4.01,3.08,7.75,4.15,11.78
			c1.1,4.15,1.24,8.47,2.26,12.63c0.11,0.43,0.7,0.3,0.74-0.1C368.48,609.65,367.9,605.19,366.83,600.98z"/>
		
			<linearGradient id="SVGID_00000119809192151669735470000012432892108444525459_" gradientUnits="userSpaceOnUse" x1="370.9883" y1="156.8265" x2="388.7336" y2="159.6986" gradientTransform="matrix(1 0 0 -1 0 799.8898)">
			<stop  offset="0" style="stop-color:#191919"/>
			<stop  offset="0.3827" style="stop-color:#595959;stop-opacity:0.6173"/>
			<stop  offset="0.8018" style="stop-color:#9A9A9A;stop-opacity:0.1982"/>
			<stop  offset="1" style="stop-color:#B3B3B3;stop-opacity:0"/>
		</linearGradient>
		<path style="fill:url(#SVGID_00000119809192151669735470000012432892108444525459_);" d="M392.12,663.77
			c-4.33-1.35-9.32-0.6-13.28-3.08c-2.11-1.32-2.83-3.19-3.31-5.54c-0.51-2.44-1-4.87-1.5-7.31c-1.02-4.97-2.02-9.94-2.82-14.95
			c-0.4-2.52-0.72-5.05-1.1-7.58c-0.18-1.24-0.39-2.5-0.67-3.72c-0.29-1.27-0.77-2.38-1.18-3.61c-0.03-0.08-0.13-0.04-0.12,0.03
			c0.29,2.13,0.27,4.39,0.41,6.55c0.14,2.14,0.34,4.28,0.59,6.42c0.47,4.07,1.21,8.12,2.03,12.14c0.85,4.17,1.75,8.33,2.63,12.5
			c0.36,1.68,0.74,3.28,1.84,4.65c0.94,1.17,2.2,2.04,3.55,2.67c3.94,1.81,8.37,1.4,12.53,2.29
			C392.66,665.42,393.05,664.06,392.12,663.77z"/>
		
			<linearGradient id="SVGID_00000030475898114658713890000009737223831291329961_" gradientUnits="userSpaceOnUse" x1="372.4455" y1="128.2042" x2="396.7143" y2="132.132" gradientTransform="matrix(1 0 0 -1 0 799.8898)">
			<stop  offset="0" style="stop-color:#191919"/>
			<stop  offset="0.3827" style="stop-color:#595959;stop-opacity:0.6173"/>
			<stop  offset="0.8018" style="stop-color:#9A9A9A;stop-opacity:0.1982"/>
			<stop  offset="1" style="stop-color:#B3B3B3;stop-opacity:0"/>
		</linearGradient>
		<path style="fill:url(#SVGID_00000030475898114658713890000009737223831291329961_);" d="M397.56,677.41
			c-6.17-0.26-12.23-1.08-18.08-3.12c-1.27-0.44-2.78-0.83-3.82-1.72c-1.16-0.99-1.39-2.63-1.74-4.03c-0.39-1.54-0.8-3.08-1.23-4.62
			c-0.33-1.16-0.59-2.73-1.52-3.56c-0.02-0.02-0.05-0.01-0.07,0.02c-0.51,1.29,0.06,3.08,0.32,4.39c0.33,1.72,0.68,3.44,1.06,5.16
			c0.29,1.32,0.65,2.67,1.59,3.69c0.96,1.04,2.3,1.61,3.59,2.11c6.23,2.44,13.22,3.76,19.91,3.43
			C398.68,679.1,398.69,677.46,397.56,677.41z"/>
		
			<linearGradient id="SVGID_00000002380071220761299320000010089437780950121363_" gradientUnits="userSpaceOnUse" x1="392.8577" y1="293.3062" x2="423.5823" y2="307.47" gradientTransform="matrix(1 0 0 -1 0 799.8898)">
			<stop  offset="0" style="stop-color:#191919"/>
			<stop  offset="0.3827" style="stop-color:#595959;stop-opacity:0.6173"/>
			<stop  offset="0.8018" style="stop-color:#9A9A9A;stop-opacity:0.1982"/>
			<stop  offset="1" style="stop-color:#B3B3B3;stop-opacity:0"/>
		</linearGradient>
		<path style="fill:url(#SVGID_00000002380071220761299320000010089437780950121363_);" d="M442.83,533.09
			c-1.27-2.45-2.96-4.66-4.82-6.69c-2.76-3.01-5.92-4.79-7.14-8.94c-0.64-2.19-0.97-4.5-1.98-6.55c-0.73-1.48-1.81-2.8-2.31-4.37
			c-0.44-1.36-0.41-2.82-0.55-4.25c-0.27-2.72-1.15-5.34-2.12-7.9c-2.97-7.82-6.84-15.29-11.5-22.23c-2.33-3.47-4.85-6.81-7.56-10
			c-2.25-2.64-5.17-5.06-7.09-7.93c-0.05-0.07-0.17,0-0.12,0.07c0.45,0.67,0.52,1.42,0.87,2.12c0.34,0.68,0.68,1.35,1.05,2.02
			c0.74,1.32,1.49,2.64,2.24,3.95c1.5,2.63,2.96,5.28,4.37,7.97c2.84,5.45,5.55,10.96,8.11,16.54c2.53,5.53,4.94,11.11,7.33,16.71
			c1.19,2.8,2.38,5.59,3.58,8.39c1.2,2.79,2.21,5.76,3.67,8.43c1.53,2.8,4.44,3.97,6.76,5.97c2.48,2.14,4.36,4.79,6.43,7.3
			C442.42,534.17,443.08,533.58,442.83,533.09z"/>
		
			<linearGradient id="SVGID_00000067944776245213633490000010140004787357473671_" gradientUnits="userSpaceOnUse" x1="415.7525" y1="219.373" x2="453.0142" y2="228.3071" gradientTransform="matrix(1 0 0 -1 0 799.8898)">
			<stop  offset="0" style="stop-color:#191919"/>
			<stop  offset="0.3827" style="stop-color:#595959;stop-opacity:0.6173"/>
			<stop  offset="0.8018" style="stop-color:#9A9A9A;stop-opacity:0.1982"/>
			<stop  offset="1" style="stop-color:#B3B3B3;stop-opacity:0"/>
		</linearGradient>
		<path style="fill:url(#SVGID_00000067944776245213633490000010140004787357473671_);" d="M465.63,610.06
			c-1.69-1.89-3.75-3.41-5.28-5.45c-3.77-5.01-1.83-10.15-3.73-15.55c-0.23-0.67-0.57-1.33-0.52-2.03c0.04-0.59,0.34-1.13,0.66-1.63
			c1.1-1.69,2.52-3.17,4.16-4.34c-3.89-4.01-7.33-8.46-10.22-13.25c-3.95-6.52-6.87-13.61-9.77-20.66
			c-1.93-4.69-3.24-10.09-7.06-13.6c-0.05-0.05-0.14,0.02-0.1,0.08c1.59,2.22,2.54,4.85,3.39,7.43c0.86,2.64,1.65,5.31,2.41,7.98
			c1.54,5.46,2.97,10.95,4.46,16.42c1.5,5.53,3.12,11.04,5.17,16.4c2.02,5.28,4.87,10.26,6.28,15.76c0.74,2.89,1.52,5.62,3.35,8.04
			c1.62,2.14,3.67,4.12,5.94,5.55C465.47,611.64,466.15,610.65,465.63,610.06z"/>
		
			<linearGradient id="SVGID_00000036957464137499421810000006837964054988686213_" gradientUnits="userSpaceOnUse" x1="458.7775" y1="184.0841" x2="462.119" y2="184.625" gradientTransform="matrix(1 0 0 -1 0 799.8898)">
			<stop  offset="0" style="stop-color:#191919"/>
			<stop  offset="0.3827" style="stop-color:#595959;stop-opacity:0.6173"/>
			<stop  offset="0.8018" style="stop-color:#9A9A9A;stop-opacity:0.1982"/>
			<stop  offset="1" style="stop-color:#B3B3B3;stop-opacity:0"/>
		</linearGradient>
		<path style="fill:url(#SVGID_00000036957464137499421810000006837964054988686213_);" d="M460.81,615.29
			c-0.81-3.02-1.14-6.32-2.84-9c-0.12-0.19-0.38-0.06-0.34,0.14c0.57,3.11,0.52,6.31,1.2,9.41c0.65,2.95,2.24,5.57,2.88,8.53
			c0.21,0.98,1.55,0.66,1.63-0.22C463.62,621.04,461.59,618.21,460.81,615.29z"/>
		
			<linearGradient id="SVGID_00000057845318611808917690000000159277858859604615_" gradientUnits="userSpaceOnUse" x1="481.4862" y1="114.9962" x2="520.8259" y2="121.3634" gradientTransform="matrix(1 0 0 -1 0 799.8898)">
			<stop  offset="0" style="stop-color:#191919"/>
			<stop  offset="0.3827" style="stop-color:#595959;stop-opacity:0.6173"/>
			<stop  offset="0.8018" style="stop-color:#9A9A9A;stop-opacity:0.1982"/>
			<stop  offset="1" style="stop-color:#B3B3B3;stop-opacity:0"/>
		</linearGradient>
		<path style="fill:url(#SVGID_00000057845318611808917690000000159277858859604615_);" d="M520.92,685.5
			c-4.32,0.43-8.62,1.05-12.96,1.27c-4.27,0.22-8.55,0.22-12.82-0.08c-2.03-0.14-4.12-0.25-6.12-0.61
			c-1.57-0.28-3.16-0.89-4.24-2.11c-2.08-2.36-2.48-5.73-3.44-8.61c-0.08-0.23-0.48-0.28-0.52,0c-0.49,3.17-0.2,6.87,1.53,9.65
			c2.26,3.63,6.15,4.34,10.13,4.71c4.81,0.45,9.68,0.58,14.51,0.31c4.79-0.27,9.63-0.77,14.26-2.08
			C522.56,687.59,522.37,685.35,520.92,685.5z"/>
		
			<linearGradient id="SVGID_00000168804069804344730490000004979266154877799822_" gradientUnits="userSpaceOnUse" x1="486.0156" y1="121.4977" x2="526.2859" y2="128.0155" gradientTransform="matrix(1 0 0 -1 0 799.8898)">
			<stop  offset="0" style="stop-color:#191919"/>
			<stop  offset="0.3827" style="stop-color:#595959;stop-opacity:0.6173"/>
			<stop  offset="0.8018" style="stop-color:#9A9A9A;stop-opacity:0.1982"/>
			<stop  offset="1" style="stop-color:#B3B3B3;stop-opacity:0"/>
		</linearGradient>
		<path style="fill:url(#SVGID_00000168804069804344730490000004979266154877799822_);" d="M524.26,669.2
			c-5.48,3.11-11.13,5.27-17.4,6.16c-3.41,0.49-6.83,0.58-10.27,0.72c-1.81,0.07-3.62,0.15-5.42,0.23
			c-1.77,0.07-3.65,0.32-5.41,0.12c-0.07-0.01-0.07,0.11,0,0.12c1.98,0.23,3.97,0.9,5.94,1.28c1.71,0.32,3.41,0.53,5.14,0.66
			c3.56,0.26,7.21,0.01,10.74-0.5c6.22-0.9,12.83-2.84,17.89-6.69C526.68,670.37,525.65,668.41,524.26,669.2z"/>
		
			<linearGradient id="SVGID_00000019655820829173238000000012034583498977041552_" gradientUnits="userSpaceOnUse" x1="441.1062" y1="422.4388" x2="469.8304" y2="427.0878" gradientTransform="matrix(1 0 0 -1 0 799.8898)">
			<stop  offset="0" style="stop-color:#191919"/>
			<stop  offset="0.3827" style="stop-color:#595959;stop-opacity:0.6173"/>
			<stop  offset="0.8018" style="stop-color:#9A9A9A;stop-opacity:0.1982"/>
			<stop  offset="1" style="stop-color:#B3B3B3;stop-opacity:0"/>
		</linearGradient>
		<path style="fill:url(#SVGID_00000019655820829173238000000012034583498977041552_);" d="M469.17,374.28
			c-4.73-0.53-9.52-0.57-14.28-0.74c-4.79-0.17-9.51-0.11-14.28,0.34c-0.07,0.01-0.1,0.12-0.02,0.14c4.67,0.82,9.33,1.32,14.06,1.63
			c4.83,0.32,9.68,0.82,14.52,0.89C470.65,376.55,470.57,374.44,469.17,374.28z"/>
	</g>
	<g>
		<path class="st30" d="M525.19,685.38c1.98-0.95,3.75-2.22,4.97-4.02c1.92-2.84,2.12-6.5,1.93-9.92c-0.04-0.77-0.11-1.58-0.52-2.24
			c-0.65-1.05-1.98-1.46-2.86-2.33c-0.97-0.97-1.28-2.39-1.55-3.73c-0.6-2.99-0.76-6-0.91-9.05c-0.55-11.05-3.74-21.84-5.83-32.64
			c-1.42-7.35-2.58-14.76-3.48-22.2c-1.43-11.87-7.7-21.87-11-33.18c-3.19-10.95-6.1-21.55-7.17-33c-0.24-2.53-0.86-5.03-1.28-7.56
			c-0.42-2.53-0.5-5.48-1.31-7.91c-1.08-6.5-2.13-12.81-3.56-19.26c-1.11-4.99-1-10.1-2.06-15.1c-1.91-9-4.84-17.73-6.91-26.69
			c-3.07-13.35-1.92-28.12-2.11-41.76c-0.06-4.49-0.1-8.98-0.08-13.47c0.02-3.72,0.72-7.04,0.33-10.87c-0.14-1.4-0.35-2.93-1.4-3.86
			c-0.48-0.43-1.11-0.68-1.58-1.12c-1.45-1.33-1.04-3.64-1.1-5.61c-0.02-0.62-0.1-1.26-0.42-1.79c-0.49-0.81-1.43-1.21-2.3-1.56
			c-3.05-1.22-6.01-0.83-9.25-1.01c-3.64-0.2-7.27-0.65-10.85-1.34c-2.75-0.53-5.49-1.2-8.27-1.53c-3.09-0.36-6.22-0.3-9.33-0.21
			c-12.55,0.34-25.08,1-37.59,1.98c-9.42,0.74-18.88,2.7-28.24,4.2c-9.84,1.58-19.68,3.16-29.52,4.75c-1.76,0.28-3.56,0.58-5.1,1.46
			c-1.55,0.88-2.81,2.48-2.78,4.26c0.04,2.23,0.75,3.79,0.16,6.07c-0.59,2.29-1.78,4.38-2.34,6.68c-0.54,2.23-0.48,4.56-0.41,6.86
			c0.18,6.01,0.36,12.01,0.54,18.02c0.21,7.06,1.62,14.02,2.34,21.04c0.59,5.76,2.52,11.29,3.57,16.98c1,5.45,1.18,11.01,2.09,16.47
			c0.9,5.46,2.21,10.84,3.36,16.26c1.64,7.77,3.12,15.58,4.07,23.47c0.4,3.38,0.13,7.34,1.27,10.56c1.09,3.06,2.17,6,2.73,9.25
			c0.41,2.36,0.45,4.58,1.21,6.85c0.91,2.7,1.64,5.48,2.46,8.22c0.84,2.8,1.68,5.63,1.89,8.55c0.13,1.88,0,3.76,0.08,5.65
			c0.1,2.4,0.54,4.78,0.98,7.15c1.1,5.92,2.21,11.88,4.48,17.46c6.01,14.76,6.12,31.48,8.12,47.18c0.29,2.24,0.57,4.49,1.04,6.7
			c0.56,2.65,1.37,5.51,0.21,7.95c-0.42,0.87-1.07,1.63-1.41,2.54c-0.49,1.29-0.32,2.72-0.14,4.09c0.38,2.8,0.76,5.61,1.15,8.41
			c0.6,4.29,8.16,5.93,11.63,6.58c4.82,0.91,9.75,0.89,14.64,0.84c3.3-0.04,6.63-0.08,9.87-0.71c5.99-1.17,11.39-4.3,16.66-7.37
			c0.78-0.45,1.58-0.93,2.13-1.64c0.91-1.18,0.97-2.78,1-4.26c0.05-2.4,0.08-4.88-0.78-7.12c-0.22-0.58-0.5-1.14-0.68-1.73
			c-0.29-0.94-0.31-1.94-0.35-2.93c-0.2-5.26-0.92-10.45-0.66-15.72c0.26-5.32,1.03-10.6,0.97-15.93c-0.03-2.51-0.24-5.02-0.45-7.52
			c-0.43-5.06-0.85-10.11-1.28-15.17c-0.39-4.64-0.8-9.33-2.32-13.73c-1.74-5.02-1.83-10.69-2.43-16.01
			c-0.67-5.96-1.23-11.93-1.68-17.92c-0.71-9.48-2.02-19.44-0.19-28.83c0.42-2.13,0.99-4.34,0.46-6.44
			c-0.21-0.83-0.58-1.61-0.79-2.43c-0.26-1.04-0.24-2.12-0.23-3.19c0.05-3.3,0.1-6.6,0.15-9.9c0.02-1.15,0-2.52,0.71-3.45
			c1.3,1.03,1.37,2.33,1.8,3.8c0.59,2.01,1.46,3.98,2.2,5.93c1.68,4.41,4.16,8.83,5.34,13.34c1.3,4.97,2.91,9.65,5.59,14.07
			c1.47,2.41,3.17,4.71,4.24,7.33c1.33,3.25,1.6,6.81,2.17,10.28c1.32,8.02,4.25,15.66,7.49,23.08c0.75,1.73,1.88,3.55,2.33,5.39
			c0.33,1.35,0.28,2.64,0.73,4c1.27,3.86,3.12,7.52,4.67,11.27c2.03,4.9,2.08,9.85,2.86,15.04c0.41,2.77,1.35,4.85,2.23,7.48
			c0.98,2.95,1.49,6.03,2.22,9.04c1.19,4.92,2.96,9.67,4.72,14.42c1.51,4.07,3.03,8.14,4.54,12.21c1.74,4.67,3.67,8.58,6.55,12.65
			c1.59,2.24,2.99,4.86,2.69,7.6c-0.14,1.27-0.64,2.48-0.77,3.75c-0.14,1.31,0.12,2.62,0.37,3.91c0.58,2.98,1.64,6.45,5.14,6.92
			c1.4,0.19,2.8-0.13,4.23,0.05c2.05,0.26,4.06,0.64,6.12,0.83c8.34,0.76,16.81,0.05,24.9-2.12
			C521.91,686.68,523.62,686.13,525.19,685.38z"/>
	</g>
	<g>
		<g>
			<g>
				<path class="st31" d="M450.88,388.9c0.3,2.01,0.81,3.97,1.55,5.87c0.64,1.63,1.46,3.54,3.4,3.88c1.86,0.32,3.02-1.12,3.3-2.8
					c0.34-2.05,0.47-4.16,0.69-6.23c-0.67,0-1.33,0-2,0c-0.21,2.01-0.31,4.05,0.13,6.03c0.35,1.55,1.13,3.48,2.92,3.74
					c2.04,0.3,3.22-1.64,3.92-3.24c0.82-1.86,1.29-3.81,1.42-5.84c0.09-1.28-1.91-1.28-2,0c-0.1,1.47-0.42,2.91-0.94,4.29
					c-0.27,0.71-1.1,3.17-2.23,2.79c-0.99-0.33-1.23-2.36-1.33-3.19c-0.18-1.52-0.06-3.07,0.1-4.59c0.06-0.54-0.5-1-1-1
					c-0.59,0-0.94,0.46-1,1c-0.18,1.64-0.35,3.27-0.53,4.91c-0.09,0.8-0.17,2.68-1.44,2.04c-0.57-0.29-0.89-0.94-1.14-1.5
					c-0.31-0.68-0.57-1.39-0.8-2.09c-0.5-1.5-0.86-3.04-1.1-4.61c-0.08-0.53-0.75-0.83-1.23-0.7
					C451,387.83,450.8,388.36,450.88,388.9L450.88,388.9z"/>
			</g>
		</g>
		<g>
			<g>
				<path class="st32" d="M407.63,438.98c3.75-1.1,7.83-1.17,11.7-1.28c4.52-0.12,9.04-0.04,13.56-0.05c2.02,0,4.04-0.01,6.05-0.14
					c0.64-0.04,0.64-1.04,0-1c-3.98,0.26-7.98,0.13-11.96,0.12c-4.58-0.01-9.18-0.02-13.74,0.4c-1.97,0.18-3.97,0.42-5.88,0.98
					C406.75,438.2,407.01,439.16,407.63,438.98L407.63,438.98z"/>
			</g>
		</g>
		<g>
			<g>
				<path class="st32" d="M425.08,443.85c5.04-0.93,10.11-1.69,15.21-2.28c0.63-0.07,0.64-1.07,0-1
					c-5.18,0.61-10.34,1.38-15.47,2.32C424.18,443.01,424.45,443.97,425.08,443.85L425.08,443.85z"/>
			</g>
		</g>
		<g>
			<g>
				<path class="st32" d="M351.89,454.88c3.39-1.94,6.88-3.71,10.45-5.29c3.6-1.59,7.31-3.09,11.1-4.14
					c2.21-0.61,4.48-0.97,6.77-0.74c0.64,0.06,0.64-0.94,0-1c-4.03-0.4-7.96,0.95-11.69,2.32c-3.78,1.39-7.49,2.98-11.1,4.76
					c-2.05,1.01-4.06,2.09-6.04,3.22C350.82,454.33,351.33,455.2,351.89,454.88L351.89,454.88z"/>
			</g>
		</g>
		<g>
			<g>
				<path class="st32" d="M365.93,453.21c-4.47,0.59-8.8,1.81-12.91,3.64c-0.59,0.26-0.08,1.12,0.5,0.86
					c3.94-1.76,8.13-2.95,12.4-3.51C366.56,454.13,366.57,453.13,365.93,453.21L365.93,453.21z"/>
			</g>
		</g>
		<g>
			<g>
				<path class="st32" d="M368.64,399.64c1.21,6.73,2.8,13.38,4.77,19.93c1.76,5.85,3.48,12.04,7.98,16.44
					c2.2,2.15,4.85,3.79,7.74,4.83c0.61,0.22,0.87-0.75,0.27-0.96c-5.27-1.88-9.41-5.89-11.7-10.96c-1.32-2.93-2.25-6.07-3.18-9.15
					c-0.96-3.15-1.83-6.33-2.62-9.54c-0.88-3.59-1.64-7.21-2.3-10.85C369.49,398.74,368.52,399.01,368.64,399.64L368.64,399.64z"/>
			</g>
		</g>
		<g>
			<g>
				<path class="st32" d="M393.01,441.81c2.18,0.12,5.1-0.09,6.06-2.44c0.59-1.45,0.15-3.08-0.14-4.55
					c-0.34-1.71-0.71-3.41-1.09-5.11c-1.53-6.8-3.29-13.54-4.49-20.41c-0.68-3.92-1.16-7.87-1.3-11.85c-0.02-0.64-1.02-0.64-1,0
					c0.48,13.25,4.77,25.83,7.13,38.78c0.28,1.53,0.31,3.22-1.24,4.04c-1.18,0.63-2.64,0.61-3.94,0.54
					C392.37,440.77,392.37,441.77,393.01,441.81L393.01,441.81z"/>
			</g>
		</g>
		<g>
			<g>
				<path class="st32" d="M371.05,399.81c1.4,5.86,2.85,11.7,4.36,17.52c1.35,5.2,2.51,10.51,6.07,14.7
					c1.71,2.02,3.82,3.69,6.17,4.91c0.57,0.3,1.08-0.57,0.5-0.86c-4.27-2.22-7.57-5.94-9.3-10.42c-1.01-2.63-1.65-5.39-2.36-8.11
					c-0.73-2.79-1.44-5.59-2.14-8.39c-0.8-3.2-1.58-6.4-2.35-9.61C371.86,398.92,370.9,399.18,371.05,399.81L371.05,399.81z"/>
			</g>
		</g>
		<g>
			<g>
				<path class="st32" d="M391.57,437.43c0.81,0.55,1.84,0.4,2.61-0.14c0.87-0.6,1.26-1.57,1.32-2.6c0.08-1.35-0.35-2.75-0.65-4.06
					c-0.31-1.38-0.65-2.76-0.99-4.14c-1.42-5.66-3.01-11.28-4.13-17.01c-0.64-3.27-1.11-6.57-1.3-9.9c-0.04-0.64-1.04-0.64-1,0
					c0.62,10.67,4.08,20.85,6.44,31.21c0.31,1.34,0.83,2.86,0.6,4.25c-0.17,1.03-1.29,2.27-2.39,1.53
					C391.54,436.2,391.04,437.07,391.57,437.43L391.57,437.43z"/>
			</g>
		</g>
		<g>
			<g>
				<path class="st32" d="M372.53,398.64c0.79-0.84,1.9-1.13,3-1.29c1.37-0.2,2.75-0.3,4.13-0.45c2.81-0.3,5.71-0.75,8.52-0.17
					c0.63,0.13,0.9-0.83,0.27-0.96c-3.06-0.64-6.19-0.14-9.26,0.18c-1.4,0.15-2.81,0.24-4.2,0.48c-1.18,0.2-2.33,0.62-3.16,1.51
					C371.38,398.4,372.09,399.11,372.53,398.64L372.53,398.64z"/>
			</g>
		</g>
		<g>
			<g>
				<path class="st32" d="M473.69,399.73c1.44,9.69,2.32,19.46,2.65,29.25c0.16,4.82,0.17,9.64,0.08,14.45
					c-0.09,4.36-0.21,8.73,0.13,13.08c0.38,4.76,1.35,9.47,3.49,13.77c0.29,0.58,1.15,0.07,0.86-0.5
					c-3.91-7.83-3.68-16.83-3.51-25.35c0.2-9.62-0.03-19.23-0.85-28.82c-0.46-5.4-1.09-10.78-1.89-16.13
					C474.56,398.83,473.59,399.1,473.69,399.73L473.69,399.73z"/>
			</g>
		</g>
		<g>
			<g>
				<path class="st32" d="M483.54,485.05c2.82,9.96,5.38,20,7.69,30.09c0.14,0.63,1.11,0.36,0.96-0.27
					c-2.31-10.09-4.87-20.13-7.69-30.09C484.33,484.16,483.37,484.43,483.54,485.05L483.54,485.05z"/>
			</g>
		</g>
		<g>
			<g>
				<path class="st32" d="M408,482.5c-0.09,11.12-0.37,22.24-0.1,33.36c0.04,1.5,0.16,3.02,0.1,4.52c-0.06,1.32-0.36,2.61-0.64,3.9
					c-0.26,1.22-0.5,2.45-0.49,3.71c0.01,1.39,0.34,2.79,0.55,4.16c0.46,3,0.94,5.99,1.72,8.93c0.75,2.86,1.51,5.71,2.22,8.58
					c1.63,6.52,3.08,13.13,3.64,19.84c0.05,0.64,1.05,0.64,1,0c-0.5-5.88-1.65-11.69-3.02-17.43c-1.39-5.8-3.19-11.52-4.16-17.42
					c-0.25-1.52-0.47-3.05-0.72-4.57c-0.23-1.42-0.29-2.75-0.05-4.17c0.21-1.25,0.55-2.48,0.75-3.73c0.22-1.35,0.2-2.68,0.16-4.04
					c-0.17-5.57-0.21-11.14-0.17-16.72c0.04-6.31,0.16-12.62,0.21-18.93C409.01,481.86,408.01,481.86,408,482.5L408,482.5z"/>
			</g>
		</g>
		<g>
			<g>
				<path class="st32" d="M417.02,585.63c1.38,9.64,3.13,19.25,3.73,28.98c0.27,4.44,0.36,8.88-0.01,13.32
					c-0.35,4.21-0.88,8.41-1.09,12.63c-0.21,4.32-0.18,8.91,1.41,12.99c0.23,0.59,1.2,0.33,0.96-0.27
					c-1.41-3.62-1.55-7.62-1.43-11.46c0.13-4.28,0.65-8.53,1.04-12.79c0.82-9.06,0.02-18.17-1.2-27.15
					c-0.75-5.52-1.66-11.01-2.45-16.53C417.89,584.73,416.93,585,417.02,585.63L417.02,585.63z"/>
			</g>
		</g>
		<g>
			<g>
				<path class="st32" d="M379.11,560.42c-0.37-0.4-0.69-0.83-0.94-1.32c-0.12-0.22-0.22-0.45-0.3-0.68
					c-0.05-0.15-0.25-0.56-0.19-0.73c0.04-0.11,0.01-0.05,0.16-0.05c0.11,0.01,0.23,0.06,0.33,0.08c0.29,0.08,0.58,0.16,0.87,0.24
					c0.58,0.16,1.15,0.34,1.72,0.52c2.28,0.71,4.52,1.55,6.71,2.5c0.58,0.25,1.09-0.61,0.5-0.86c-2.79-1.21-5.65-2.25-8.58-3.09
					c-0.56-0.16-1.24-0.46-1.83-0.4s-0.91,0.56-0.89,1.12c0.05,1.22,0.92,2.51,1.73,3.37C378.85,561.6,379.55,560.89,379.11,560.42
					L379.11,560.42z"/>
			</g>
		</g>
		<g>
			<g>
				<path class="st32" d="M380.42,580.37c-2.25,2.3-4.51,4.6-6.76,6.9c-0.52,0.53-1.04,1.06-1.56,1.59
					c-0.46,0.47-1.07,0.94-1.37,1.54c-0.59,1.15,0.58,1.9,1.53,2.17c0.65,0.18,1.12,0.4,1.13,1.15c0.01,0.67-0.31,1.29-0.52,1.91
					c-0.36,1.11-0.31,2.31,0.71,3.04c2.23,1.6,4.94-0.69,6.79-1.83c3.08-1.9,6.16-3.81,9.24-5.71c0.55-0.34,0.04-1.2-0.5-0.86
					c-2.42,1.49-4.83,2.99-7.25,4.48c-1.23,0.76-2.45,1.51-3.68,2.27c-0.96,0.59-2.09,1.39-3.27,1.16
					c-0.44-0.08-0.89-0.31-1.12-0.71c-0.36-0.62-0.03-1.39,0.19-1.99c0.33-0.91,0.66-1.99,0.12-2.9c-0.24-0.4-0.61-0.66-1.04-0.82
					c-0.38-0.14-1.51-0.24-1.48-0.82c0.01-0.23,0.38-0.51,0.53-0.67c0.23-0.24,0.46-0.47,0.69-0.71c0.52-0.53,1.04-1.06,1.56-1.59
					c2.25-2.3,4.51-4.6,6.76-6.9C381.58,580.62,380.87,579.91,380.42,580.37L380.42,580.37z"/>
			</g>
		</g>
		<g>
			<g>
				<path class="st32" d="M393.39,584.34c0.39-1.68,0.79-3.44,0.42-5.16c-0.3-1.35-1.1-2.64-2.37-3.27
					c-0.58-0.28-1.08,0.58-0.5,0.86c2.73,1.34,2.05,4.93,1.49,7.29C392.28,584.7,393.24,584.97,393.39,584.34L393.39,584.34z"/>
			</g>
		</g>
		<g>
			<g>
				<path class="st32" d="M495.1,576.1c-4.67,0.02-9.34,0.01-14.01,0.06c-0.7,0.01-1.48,0.18-1.48,1.04c0,0.79,0.66,1.39,1.18,1.9
					c1.42,1.41,3.08,2.58,4.87,3.47c0.57,0.29,1.08-0.58,0.5-0.86c-1.53-0.76-2.95-1.72-4.21-2.88c-0.27-0.25-1.5-1.2-1.33-1.65
					c0.04-0.1,1.22-0.03,1.33-0.03c0.49,0,0.98,0,1.47-0.01c3.89-0.02,7.78-0.03,11.67-0.05
					C495.74,577.09,495.74,576.09,495.1,576.1L495.1,576.1z"/>
			</g>
		</g>
		<g>
			<g>
				<path class="st32" d="M494.04,588.81c0.83,0.3,1.78-0.12,2.3-0.77c0.61-0.76,0.74-1.73,0.85-2.67c0.03-0.26-0.25-0.51-0.5-0.5
					c-0.3,0.01-0.47,0.22-0.5,0.5c-0.01,0.1-0.02,0.2-0.04,0.3c-0.01,0.11,0.01-0.05-0.01,0.07c-0.01,0.04-0.01,0.08-0.02,0.13
					c-0.03,0.19-0.07,0.38-0.11,0.57c-0.1,0.39-0.19,0.59-0.41,0.93c-0.03,0.05,0.05-0.05-0.01,0.02c-0.03,0.03-0.06,0.07-0.09,0.1
					c-0.06,0.06-0.12,0.11-0.18,0.16c-0.03,0.02-0.02,0.02,0.02-0.01c-0.02,0.01-0.04,0.03-0.05,0.04
					c-0.03,0.02-0.06,0.04-0.09,0.06c-0.07,0.04-0.15,0.09-0.23,0.12c0.08-0.03,0,0-0.04,0.01c-0.03,0.01-0.07,0.02-0.1,0.03
					c-0.04,0.01-0.08,0.02-0.12,0.03c-0.06,0.01,0.09,0-0.01,0c-0.04,0-0.08,0-0.12,0c-0.02,0-0.15-0.02-0.03,0
					c-0.08-0.02-0.16-0.04-0.24-0.07c-0.25-0.09-0.56,0.1-0.62,0.35C493.62,588.48,493.77,588.72,494.04,588.81L494.04,588.81z"/>
			</g>
		</g>
		<g>
			<g>
				<path class="st32" d="M365.53,383.18c0.67,4.58,1.61,9.12,2.83,13.59c0.17,0.62,1.13,0.36,0.96-0.27
					c-1.21-4.47-2.15-9.01-2.83-13.59C366.4,382.28,365.44,382.55,365.53,383.18L365.53,383.18z"/>
			</g>
		</g>
		<g>
			<g>
				<path class="st32" d="M390.59,382.16c-0.04,3.84,0.14,7.68,0.54,11.49c0.07,0.63,1.07,0.64,1,0c-0.4-3.82-0.58-7.65-0.54-11.49
					C391.59,381.51,390.59,381.51,390.59,382.16L390.59,382.16z"/>
			</g>
		</g>
		<g>
			<g>
				<path class="st32" d="M338.16,398.36c4.38-1.27,8.81-2.38,13.28-3.32c0.63-0.13,0.36-1.1-0.27-0.96
					c-4.47,0.94-8.89,2.05-13.28,3.32C337.28,397.58,337.54,398.54,338.16,398.36L338.16,398.36z"/>
			</g>
		</g>
		<g>
			<g>
				<path class="st32" d="M394.23,386.3c8.9-1.96,18.03-2.77,27.14-2.44c0.64,0.02,0.64-0.98,0-1c-9.2-0.33-18.41,0.5-27.4,2.48
					C393.33,385.47,393.6,386.44,394.23,386.3L394.23,386.3z"/>
			</g>
		</g>
		<g>
			<g>
				<path class="st32" d="M474.47,396.53c-0.39-0.87-0.9-1.67-1.52-2.4c-0.16-0.18-0.32-0.36-0.49-0.53
					c-0.08-0.09-0.18-0.22-0.29-0.28c-0.22-0.12,0.04,0-0.03,0.04c0.37-0.2,0.7-0.49,0.96-0.81c1.3-1.63,0.77-3.76,0.19-5.56
					c-0.19-0.61-1.16-0.35-0.96,0.27c0.33,1.04,0.71,2.14,0.56,3.24c-0.06,0.43-0.19,0.84-0.42,1.21c-0.25,0.4-0.6,0.58-0.95,0.87
					c-0.29,0.23-0.49,0.57-0.4,0.95c0.1,0.4,0.52,0.68,0.79,0.96c0.7,0.75,1.26,1.62,1.68,2.56
					C473.87,397.62,474.73,397.11,474.47,396.53L474.47,396.53z"/>
			</g>
		</g>
		<g>
			<g>
				<path class="st32" d="M437.27,398.64c1.47,2.11,2.94,4.28,4.64,6.2c1.66,1.87,3.87,3.29,6.04,4.51
					c4.31,2.43,9.26,3.57,14.2,3.24c0.96-0.06,0.97-1.57,0-1.5c-4.69,0.32-9.34-0.72-13.44-3.03c-2.06-1.16-4.16-2.49-5.74-4.27
					c-1.62-1.83-3.01-3.9-4.41-5.9C438.02,397.1,436.72,397.85,437.27,398.64L437.27,398.64z"/>
			</g>
		</g>
		<g>
			<g>
				<path class="st32" d="M431.1,401.41c1.33,6.08,6.91,10.73,12.12,13.59c6.12,3.37,13.11,4.64,20.05,4.51
					c0.96-0.02,0.97-1.52,0-1.5c-6.54,0.12-13.11-1.02-18.93-4.11c-5.02-2.67-10.52-7.07-11.8-12.89
					C432.34,400.07,430.89,400.46,431.1,401.41L431.1,401.41z"/>
			</g>
		</g>
		<g>
			<g>
				<path class="st32" d="M434.7,401.31c1.88,3.95,5.2,6.89,8.91,9.1c4.3,2.55,9.06,4.32,13.96,5.29c0.63,0.12,0.9-0.84,0.27-0.96
					c-4.71-0.93-9.27-2.6-13.42-5.01c-3.7-2.15-6.99-5-8.85-8.91C435.29,400.22,434.43,400.73,434.7,401.31L434.7,401.31z"/>
			</g>
		</g>
		<g>
			<g>
				<path class="st32" d="M347.05,408.11c-0.33,1.8-0.66,3.61-1.1,5.39c-0.43,1.73-1.21,3.27-2.15,4.79
					c-1.61,2.6-3.94,4.74-6.99,5.41c-0.94,0.21-0.54,1.65,0.4,1.45c3.21-0.71,5.78-2.91,7.56-5.6c1.01-1.53,1.94-3.19,2.44-4.96
					c0.56-1.99,0.91-4.05,1.28-6.08C348.66,407.57,347.22,407.16,347.05,408.11L347.05,408.11z"/>
			</g>
		</g>
		<g>
			<g>
				<path class="st32" d="M350.98,408.75c0.44,4.44-1.1,8.99-3.52,12.68c-2.33,3.55-5.76,6.1-9.82,7.33
					c-0.92,0.28-0.53,1.73,0.4,1.45c4.34-1.31,7.99-4,10.54-7.75c2.67-3.92,4.38-8.93,3.91-13.7
					C352.39,407.79,350.89,407.78,350.98,408.75L350.98,408.75z"/>
			</g>
		</g>
		<g>
			<g>
				<path class="st32" d="M349.43,410.18c-0.21,3.56-1.48,6.99-3.55,9.89c-1.89,2.65-4.97,4.28-7.62,6.05
					c-0.53,0.36-0.03,1.22,0.5,0.86c2.8-1.87,5.98-3.6,7.98-6.4c2.17-3.05,3.47-6.65,3.69-10.39
					C350.47,409.54,349.47,409.54,349.43,410.18L349.43,410.18z"/>
			</g>
		</g>
		<g>
			<g>
				<g>
					<path d="M415.04,493.27c0.41,2.05,0.93,4.1,1.17,6.19c0.27,2.34,0.15,4.65-0.15,6.97c-0.26,2.07-0.54,4.16-0.15,6.23
						c0.19,1.01,0.6,1.83,0.99,2.76c0.66,1.57,0.21,2.59-0.15,4.16c-1.08,4.58-0.82,9.01-0.5,13.65c0.36,5.2,0.53,10.41,0.72,15.62
						s0.38,10.41,0.73,15.61c0.14,2.09,0.29,4.18,0.62,6.24c0.4,2.53,1.4,4.93,1.71,7.47c0.27,2.25-0.04,4.52,0.53,6.74
						c0.62,2.38,1.79,4.52,2.18,6.98c0.4,2.46,0.36,4.96,0.59,7.44c0.25,2.66,0.67,5.31,1.01,7.96c0.62,4.86,1.23,9.62,0.77,14.52
						c-0.48,5.05-1.2,9.94-1.07,15.03c0.13,5.05,0.23,10.1,0.32,15.15c0.03,1.61-0.35,3.8,0.93,5.06c0.42,0.41,0.78,0.49,1.01,1.13
						c0.2,0.56,0.16,1.32,0.22,1.91c0.13,1.38,0.29,2.77,0.38,4.15c0.13,2.18-0.27,3.63-1.94,5.05c-1.45,1.23-3.16,2.15-4.83,3.05
						c-3.62,1.96-7.34,3.57-11.33,4.64c-8.59,2.31-17.8,2.28-26.36-0.14c-1.91-0.54-3.82-1.18-5.64-1.99
						c-2.48-1.09-4.14-2.46-4.48-5.27c-0.29-2.39-0.46-4.8-0.69-7.2c-0.1-1.1-0.52-2.48,0.15-3.46c0.47-0.69,1.01-1.15,1.29-1.98
						c1.14-3.32-0.25-7.58-0.71-10.92c-0.66-4.8-1.32-9.59-2.02-14.38c-1.46-10.02-2.63-20.15-4.59-30.09
						c-0.91-4.65-3.04-8.73-4.57-13.17c-0.74-2.14-1.09-4.34-1.54-6.55c-0.52-2.59-1.1-5.18-1.4-7.81c-0.27-2.4-0.2-4.82-0.42-7.23
						c-0.2-2.2-0.62-4.37-1.16-6.5c-1.2-4.76-2.9-9.4-3.45-14.3c-0.23-2.1-0.33-4.21-0.67-6.29c-0.4-2.41-1.54-4.33-2.26-6.61
						c-0.64-2.06-0.81-4.35-1.15-6.48c-0.43-2.65-0.86-5.3-1.3-7.95c-0.84-5.12-1.71-10.23-2.7-15.32
						c-0.99-5.12-2.36-10.18-3.01-15.36c-0.59-4.7-1.34-9.36-2.04-14.04c-0.74-4.95-1.26-9.98-2.24-14.89
						c-0.95-4.78-2.36-9.4-2.81-14.27c-0.47-5-0.83-10.02-1.19-15.03c-0.37-5.16-0.62-10.33-0.73-15.5
						c-0.05-2.36-0.09-4.72-0.06-7.08c0.03-2.43-0.17-5.29,0.48-7.64c0.46-1.69,1.5-3.15,1.84-4.88c0.39-2.02-0.23-4,0.01-6.02
						c0.48-4.14,5.78-3.97,8.9-4.58c4.57-0.9,9.18-1.46,13.77-2.29c5.06-0.91,10.08-2,15.14-2.92c2.4-0.44,4.8-0.84,7.21-1.2
						c1.32-0.19,2.64-0.37,3.96-0.53c0.61-0.08,1.12-0.05,1.49-0.6c-0.29,0.17-0.58,0.33-0.86,0.5c2.46-0.03,4.87-0.47,7.29-0.92
						c3.09-0.58,6.19-0.9,9.32-1.11c6.27-0.43,12.54-0.78,18.82-1.07c6.35-0.29,12.72-0.51,19.08-0.42
						c6.2,0.09,12.29,0.99,18.42,1.78c3.09,0.4,6.18,0.8,9.27,1.2c1.56,0.2,3.12,0.4,4.68,0.61c1.36,0.18,3.58,0.09,4.61,1.16
						c1.34,1.38,0.67,4.2,0.94,5.95c0.12,0.8,0.35,1.56,0.8,2.24c0.72,1.1,2.11,1.52,2.51,2.84c0.43,1.41,0.28,3.23,0.29,4.7
						c0.01,1.54-0.04,3.07-0.14,4.61c-0.2,3.16-0.48,6.31-0.49,9.47c-0.02,6.12,0.58,12.21,0.72,18.32
						c0.03,1.42,0.05,2.85,0.01,4.28c-0.03,1.45-0.34,2.86-0.45,4.31c-0.23,2.85,0.17,5.86,0.45,8.7c0.58,6.1,1.33,12.27,2.58,18.27
						c1.22,5.84,2.99,11.54,4.72,17.24c0.9,2.96,1.77,5.88,2.02,8.98c0.22,2.75,0.33,5.47,0.95,8.17c1.37,5.99,2.7,11.93,3.34,18.05
						c0.29,2.74,0.42,5.54,1.07,8.23c0.31,1.3,0.81,2.55,1,3.88c0.22,1.44,0.18,2.9,0.3,4.34c0.5,5.89,1.93,11.68,3.15,17.45
						c0.64,3,1.01,6.12,1.93,9.05c0.88,2.82,1.98,5.54,2.75,8.39c0.75,2.78,1.5,5.57,2.59,8.24c1.06,2.61,2.51,5.02,3.77,7.53
						c2.69,5.35,3.21,11.18,3.87,17.04c0.65,5.77,1.78,11.49,3.02,17.16c1.29,5.92,3.09,11.74,4.25,17.68
						c0.58,2.96,0.76,5.89,1.07,8.87c0.3,2.85,0.9,5.65,1.3,8.48c0.44,3.16,0.8,6.33,1.19,9.49c0.28,2.21,0.29,4.83,1.57,6.75
						c0.55,0.83,1.34,1.28,2.12,1.86c1.32,0.97,1.33,2.71,1.54,4.22c0.18,1.33,0.43,2.73,0.23,4.07c-0.23,1.6-1.28,2.86-2.39,3.97
						c-3.68,3.68-8.75,5.51-13.76,6.52c-5.77,1.17-11.77,1.48-17.64,1.19c-3.13-0.15-6.26-0.5-9.35-1.04
						c-1.41-0.25-3.14-0.37-4.45-0.97c-1.47-0.67-1.89-2.57-2.37-4c-0.49-1.44-0.9-2.96-0.82-4.5c0.08-1.44,0.74-2.76,0.79-4.2
						c0.09-2.5-1.18-5.2-2.31-7.37c-1.22-2.34-3.04-4.16-4.43-6.37c-1.56-2.5-2.45-5.57-3.4-8.34c-4.07-11.87-7.78-23.9-11.29-35.95
						c-0.86-2.96-1.68-5.97-1.94-9.06c-0.25-2.93,0.1-5.82-1.02-8.61c-1.03-2.55-2.52-4.87-3.51-7.44
						c-1.04-2.72-1.88-5.51-2.86-8.25c-3.91-10.95-8.91-21.52-10.69-33.11c-0.44-2.84-0.84-5.69-1.84-8.4c-1-2.72-2.4-5.28-3.83-7.8
						c-1.35-2.39-3.01-4.68-3.79-7.34c-0.77-2.65-1.72-5.18-2.81-7.73c-2.52-5.9-4.79-11.91-7.23-17.85
						c-2.26-5.5-4.84-10.86-7.43-16.22c-3.71-7.68-7.05-15.58-11.13-23.07c-1.47-2.7-3.03-5.7-5.3-7.84
						c-0.94-0.88-2.35,0.53-1.41,1.41c2.47,2.33,4.09,5.73,5.66,8.69c1.85,3.51,3.55,7.1,5.21,10.7
						c4.86,10.56,10.12,20.89,14.4,31.71c2.31,5.83,5,11.57,7.11,17.48c0.94,2.62,1.55,5.16,2.94,7.59
						c1.44,2.51,2.96,4.97,4.25,7.57c2.81,5.65,2.99,11.79,4.46,17.82c1.41,5.79,3.52,11.37,5.68,16.91
						c2.17,5.59,4.14,11.23,6.15,16.88c0.95,2.66,2.19,5.11,3.46,7.63c0.71,1.42,1.21,2.84,1.34,4.43c0.13,1.61,0.03,3.22,0.16,4.83
						c0.51,6.12,2.74,12.1,4.51,17.94c1.88,6.2,3.82,12.38,5.81,18.55c1.85,5.71,3.38,11.89,6.2,17.22
						c1.29,2.44,3.37,4.33,4.68,6.78c0.64,1.21,1.19,2.47,1.61,3.77c0.27,0.81,0.55,1.68,0.56,2.54c0.02,0.89-0.32,1.72-0.53,2.57
						c-0.66,2.75,0.05,5.46,1.02,8.05c0.39,1.04,0.75,2.23,1.47,3.09c0.8,0.95,1.92,1.27,3.09,1.53c5.98,1.34,12.16,1.95,18.29,1.84
						c9.75-0.16,22.59-1.49,29.02-9.89c1.64-2.14,1.83-4.34,1.53-6.96c-0.26-2.22-0.24-5.08-2.15-6.57
						c-0.97-0.76-1.92-1.21-2.39-2.43c-0.55-1.4-0.59-3.03-0.78-4.51c-0.39-3.16-0.78-6.33-1.19-9.49c-0.4-3.03-1.07-6.03-1.37-9.08
						c-0.28-2.87-0.48-5.69-1.01-8.54c-1.11-6.04-2.97-11.95-4.29-17.95c-1.33-6.06-2.49-12.15-3.16-18.32
						c-0.6-5.55-1.26-11.06-3.73-16.14c-1.41-2.89-3.12-5.62-4.25-8.65c-1.04-2.79-1.75-5.69-2.55-8.56
						c-0.82-2.94-2.14-5.72-2.85-8.69c-0.72-3.01-1.18-6.1-1.83-9.13c-1.31-6.1-2.43-12.09-2.88-18.32
						c-0.19-2.71-1.28-5.21-1.63-7.9c-0.41-3.08-0.61-6.19-1.02-9.27c-0.39-2.97-0.99-5.9-1.63-8.83c-0.67-3.05-1.6-6.12-1.9-9.24
						c-0.27-2.84-0.28-5.69-0.91-8.48c-0.69-3.05-1.71-6.02-2.61-9.01c-3.64-12.08-5.96-24.48-6.52-37.11
						c-0.13-2.92,0.43-5.76,0.44-8.68c0.01-3.16-0.15-6.31-0.32-9.46c-0.34-6.34-0.56-12.61-0.09-18.95
						c0.23-3.17,0.38-6.34,0.2-9.52c-0.06-1.12-0.08-2.39-0.61-3.41c-0.58-1.11-1.82-1.5-2.47-2.51c-1.09-1.68-0.39-4.23-0.79-6.12
						c-0.41-1.96-1.79-3.18-3.72-3.59c-3.07-0.64-6.29-0.84-9.39-1.24c-3.19-0.41-6.37-0.82-9.56-1.24
						c-6.36-0.82-12.62-1.59-19.04-1.6c-12.93,0-25.98,0.61-38.87,1.75c-2.69,0.24-5.33,0.69-7.99,1.18
						c-1.31,0.24-2.63,0.46-3.96,0.55c-0.81,0.06-1.9-0.2-2.42,0.58c0.29-0.17,0.58-0.33,0.86-0.5
						c-10.27,1.22-20.31,3.68-30.51,5.32c-2.47,0.4-4.98,0.58-7.44,1.05c-1.91,0.37-3.79,0.8-5.71,1.11
						c-3.15,0.5-6.83,1.35-7.73,4.9c-0.5,1.97,0.09,3.92-0.04,5.91c-0.13,1.98-1.25,3.58-1.85,5.42c-0.69,2.13-0.54,4.71-0.6,6.93
						c-0.07,2.55-0.04,5.1,0.01,7.64c0.19,10.4,0.99,20.8,1.91,31.16c0.44,4.95,1.78,9.66,2.79,14.51c1.04,5,1.56,10.13,2.31,15.18
						c0.76,5.09,1.51,10.17,2.2,15.27c0.7,5.16,2.09,10.23,3.07,15.35c0.99,5.2,1.87,10.41,2.73,15.63
						c0.42,2.55,0.83,5.09,1.25,7.64c0.39,2.37,0.58,4.85,1.6,7.06c2.06,4.49,1.82,9.18,2.7,13.95c0.88,4.75,2.62,9.28,3.6,14.01
						c1.02,4.94,0.68,10.02,1.6,14.99c0.87,4.74,1.72,9.42,3.58,13.9c0.91,2.2,1.89,4.37,2.56,6.65c0.71,2.4,1.1,4.88,1.5,7.35
						c0.86,5.27,1.63,10.55,2.4,15.83c1.44,9.88,2.77,19.79,4.27,29.66c0.26,1.71,0.71,4.1-0.38,5.6c-0.48,0.66-1.07,1.11-1.27,1.95
						c-0.25,0.99,0,2.11,0.1,3.11c0.24,2.5,0.44,5.01,0.72,7.5c0.22,2.01,0.79,3.77,2.36,5.13c3,2.6,7.74,3.77,11.51,4.64
						c4.25,0.98,8.63,1.43,12.99,1.31c8.55-0.22,16.64-2.63,24.13-6.69c2.63-1.43,6.36-3.26,7.32-6.36
						c0.68-2.19,0.16-4.68-0.05-6.91c-0.09-1-0.08-2.08-0.35-3.06c-0.25-0.92-0.81-1.22-1.37-1.89c-0.73-0.87-0.47-2.37-0.49-3.45
						c-0.03-1.47-0.05-2.95-0.08-4.42c-0.05-2.63-0.1-5.26-0.17-7.89c-0.06-2.58-0.22-5.18-0.1-7.76c0.12-2.59,0.48-5.17,0.79-7.74
						c0.3-2.48,0.57-4.98,0.52-7.48c-0.05-2.63-0.44-5.26-0.76-7.86c-0.32-2.57-0.66-5.14-0.99-7.7c-0.34-2.58-0.39-5.17-0.63-7.75
						c-0.21-2.35-0.7-4.56-1.57-6.76c-0.39-1-0.81-2.01-1.03-3.07c-0.3-1.48-0.19-3-0.25-4.49c-0.1-2.29-0.76-4.42-1.33-6.62
						c-0.67-2.61-0.88-5.29-1.06-7.97c-0.73-10.5-0.74-21.04-1.47-31.54c-0.17-2.49-0.46-4.96-0.35-7.46
						c0.11-2.6,0.68-5.02,1.26-7.54c0.19-0.82,0.28-1.63,0.06-2.45c-0.31-1.19-1.08-2.17-1.33-3.4c-0.47-2.33,0.04-4.73,0.3-7.06
						c0.49-4.33-0.39-8.38-1.24-12.6C416.71,491.47,414.78,492.01,415.04,493.27L415.04,493.27z"/>
				</g>
			</g>
			<g>
				<g>
					<path d="M337.95,395.23c3.68-0.91,7.36-1.82,11.05-2.72c1.69-0.42,3.41-0.96,5.14-1.13c0.44-0.04,1.44-0.25,1.74,0.2
						c0.19,0.29,0.23,0.79,0.31,1.12c0.11,0.46,0.21,0.93,0.3,1.4c0.16,0.85,0.28,1.71,0.35,2.57c0.08,0.92,0.03,1.87,0.18,2.78
						c0.25,1.51,1.55,2.45,3,2.66c0.9,0.13,1.81,0,2.69-0.16c0.84-0.15,1.54-0.58,1.76-1.45c0.19-0.77,0.12-1.7,0.08-2.48
						c-0.04-0.94-0.16-1.87-0.3-2.8c-0.29-1.92-0.75-3.82-1.17-5.72c-0.21-0.97-0.43-1.95-0.57-2.94c-0.1-0.75-0.14-1.49,0.31-2.13
						c0.74-1.05-0.99-2.05-1.73-1.01c-0.92,1.31-0.65,2.96-0.38,4.44c0.31,1.69,0.71,3.35,1.07,5.03c0.36,1.69,0.68,3.39,0.76,5.12
						c0.02,0.39,0.03,0.77,0.02,1.16c0,0.13-0.09,0.86,0.04,0.75c-0.2,0.17-0.78,0.16-1.02,0.19c-0.47,0.06-0.98,0.11-1.45,0.01
						c-0.45-0.1-0.93-0.33-1.1-0.79c-0.14-0.38-0.1-0.83-0.11-1.23c-0.02-0.48-0.05-0.95-0.09-1.43c-0.15-1.74-0.43-3.5-0.9-5.19
						c-0.19-0.68-0.48-1.32-1.1-1.71c-0.66-0.42-1.48-0.45-2.23-0.42c-1.76,0.08-3.48,0.58-5.18,1c-4,0.99-8,1.97-12.01,2.96
						C336.17,393.6,336.7,395.53,337.95,395.23L337.95,395.23z"/>
				</g>
			</g>
			<g>
				<g>
					<path d="M470.97,382.07c-7.78-1.37-15.61-2.44-23.47-3.19c-3.9-0.37-7.86-0.8-11.78-0.84c-1.64-0.02-3.87-0.1-5.2,1.04
						c-1.28,1.11-1.4,3.19-1.42,4.75c-0.01,1.05,0.09,2.09,0.24,3.13c0.14,0.98,0.41,1.98,0.43,2.98c0.04,2.27-2.42,1.97-3.99,1.63
						c0.23,0.23,0.47,0.47,0.7,0.7c-0.35-1.52-0.59-3.06-0.7-4.62c-0.1-1.56,0.01-3.11-0.05-4.67c-0.09-2.63-1.09-5.54-3.87-6.37
						c-1.24-0.37-1.77,1.56-0.53,1.93c2.39,0.71,2.43,3.83,2.4,5.83c-0.05,2.85,0.17,5.65,0.81,8.43c0.07,0.32,0.37,0.63,0.7,0.7
						c1.72,0.37,3.62,0.65,5.14-0.48c1.48-1.1,1.49-2.88,1.22-4.54c-0.3-1.86-0.6-3.71-0.46-5.6c0.05-0.69,0.11-1.63,0.59-2.19
						c0.46-0.54,1.4-0.54,2.04-0.59c1.95-0.16,3.92,0.01,5.87,0.14c1.97,0.13,3.94,0.29,5.9,0.46c3.93,0.35,7.85,0.77,11.77,1.28
						c4.39,0.57,8.78,1.25,13.14,2.02c0.53,0.09,1.08-0.14,1.23-0.7C471.8,382.81,471.51,382.16,470.97,382.07L470.97,382.07z"/>
				</g>
			</g>
			<ellipse class="st33" cx="379.5" cy="387" rx="5" ry="5.5"/>
			<ellipse class="st34" cx="378.64" cy="387" rx="3.86" ry="4.5"/>
			<g>
				<g>
					<path d="M494.89,539.39c0.68,12.44,4.58,24.65,11.19,35.2c1.88,2.99,3.97,5.85,6.26,8.54c0.42,0.49,1.12-0.22,0.71-0.71
						c-7.95-9.36-13.42-20.76-15.85-32.79c-0.68-3.38-1.11-6.8-1.3-10.24C495.85,538.75,494.85,538.74,494.89,539.39L494.89,539.39z
						"/>
				</g>
			</g>
			<g>
				<g>
					<path d="M518.83,618.57c1.35,3.69,1.57,7.42,0.85,11.27c-0.62,3.33-1.59,6.59-1.65,10c-0.04,2.3,0.32,4.59,0.99,6.79
						c0.19,0.61,1.15,0.35,0.96-0.27c-1.14-3.79-1.14-7.57-0.36-11.43c0.66-3.3,1.59-6.55,1.5-9.95c-0.05-2.29-0.54-4.53-1.33-6.68
						C519.57,617.71,518.61,617.97,518.83,618.57L518.83,618.57z"/>
				</g>
			</g>
			<g>
				<g>
					<path d="M483.33,677.26c6.08,2.24,12.86,2.28,19.22,1.51c6.18-0.75,12.38-2.3,18.04-4.92c2.23-1.03,4.5-2.25,6.25-3.99
						c0.46-0.45-0.25-1.16-0.71-0.71c-1.47,1.46-3.33,2.51-5.18,3.41c-2.53,1.24-5.19,2.21-7.89,3.01
						c-6.22,1.84-12.79,2.85-19.28,2.59c-3.47-0.14-6.94-0.67-10.2-1.87C482.99,676.07,482.73,677.03,483.33,677.26L483.33,677.26z"
						/>
				</g>
			</g>
			<g>
				<g>
					<path d="M375.4,660.71c1.9,2.19,4.77,3.03,7.53,3.51c3.05,0.53,6.15,0.86,9.24,1.07c6.25,0.42,12.63,0.17,18.69-1.51
						c3.36-0.93,6.6-2.31,9.55-4.18c0.54-0.34,0.04-1.21-0.5-0.86c-10.45,6.63-23.57,6.45-35.4,4.73c-3.01-0.44-6.3-1.05-8.39-3.46
						C375.68,659.52,374.98,660.23,375.4,660.71L375.4,660.71z"/>
				</g>
			</g>
			<g>
				<g>
					<path d="M365.87,574.67c-0.33-1.41-0.81-2.78-1.42-4.1c-0.31-0.67-0.66-1.32-1.05-1.95c-0.32-0.53-0.68-1.07-1.24-1.36
						c-0.55-0.28-1.19-0.23-1.76-0.44c-0.58-0.21-1.08-0.6-1.49-1.06c-1.01-1.1-1.43-2.59-1.84-3.98c-0.18-0.62-1.15-0.35-0.96,0.27
						c0.69,2.33,1.71,5.19,4.38,5.84c0.79,0.19,1.33,0.14,1.83,0.88c0.39,0.57,0.72,1.19,1.03,1.81c0.7,1.39,1.21,2.85,1.56,4.36
						C365.05,575.57,366.02,575.3,365.87,574.67L365.87,574.67z"/>
				</g>
			</g>
			<g>
				<g>
					<path d="M340.1,484.45c0.4,3.83,2.29,7.43,5.22,9.95c0.73,0.63,1.51,1.19,2.35,1.66c0.4,0.23,0.81,0.43,1.23,0.62
						c0.54,0.24,1.06,0.4,1.2,1.04c0.25,1.23,0.21,2.59,0.29,3.83c0.08,1.31,0.15,2.62,0.21,3.93c0.13,2.95,0.21,5.9,0.22,8.85
						c0.21-0.16,0.42-0.32,0.63-0.48c-0.74-0.3-1.54,0.03-2.03,0.62c-0.6,0.73-0.58,1.72-0.53,2.61c0.04,0.64,1.04,0.64,1,0
						c-0.04-0.74-0.03-2.8,1.29-2.26c0.31,0.12,0.63-0.19,0.63-0.48c-0.03-5.21-0.24-10.42-0.63-15.61
						c-0.07-0.97-0.08-1.96-0.99-2.53c-0.81-0.51-1.75-0.81-2.57-1.33c-1.69-1.07-3.14-2.51-4.24-4.17
						c-1.24-1.87-2.04-4.01-2.28-6.25C341.03,483.82,340.03,483.81,340.1,484.45L340.1,484.45z"/>
				</g>
			</g>
			<g>
				<g>
					<path d="M425.07,516.27c1.41,3.19,3.71,5.94,6.58,7.91c0.74,0.51,1.54,0.91,2.3,1.4c0.93,0.59,1.65,1.45,2.4,2.24
						c1.53,1.6,3.05,3.2,4.58,4.8c0.45,0.47,1.15-0.24,0.71-0.71c-1.53-1.6-3.05-3.2-4.58-4.8c-0.66-0.69-1.29-1.44-2.06-2.02
						c-0.73-0.56-1.58-0.95-2.35-1.45c-2.96-1.9-5.28-4.67-6.71-7.88C425.67,515.18,424.81,515.69,425.07,516.27L425.07,516.27z"/>
				</g>
			</g>
			<g>
				<g>
					<path d="M445.15,536.67c1.75,0.99,3.17,2.55,3.94,4.41c0.21-0.21,0.41-0.41,0.62-0.62c-1.41-0.22-2.81-0.22-4.21,0.03
						c-0.27,0.05-0.42,0.37-0.35,0.62c0.08,0.28,0.35,0.4,0.62,0.35c1.21-0.21,2.47-0.22,3.68-0.03c0.32,0.05,0.78-0.22,0.62-0.62
						c-0.87-2.1-2.41-3.88-4.4-5.01C445.09,535.49,444.58,536.35,445.15,536.67L445.15,536.67z"/>
				</g>
			</g>
			<g>
				<g>
					<path d="M467.15,621.59c-0.42-2.24-0.84-4.47-1.26-6.71c-0.17-0.92-0.26-1.93-0.61-2.8c-0.35-0.88-1.12-1.38-1.82-1.96
						c-2.83-2.31-5.38-5.17-6.37-8.76c-0.17-0.62-1.14-0.36-0.96,0.27c0.97,3.49,3.31,6.37,6.02,8.69c0.67,0.58,1.65,1.11,2.1,1.89
						c0.48,0.83,0.52,2.02,0.69,2.94c0.42,2.24,0.84,4.47,1.26,6.71C466.31,622.49,467.27,622.22,467.15,621.59L467.15,621.59z"/>
				</g>
			</g>
			<g>
				<g>
					<path d="M467.49,631.49c0.98,4.57,1.97,9.15,3.33,13.62c0.16,0.53,0.34,1.07,0.39,1.62c0.05,0.57-0.06,1.13-0.14,1.69
						c-0.09,0.64-0.13,1.28-0.11,1.92c0.03,1.6,0.25,3.2,0.57,4.77c0.32,1.58,0.73,3.23,1.54,4.64c0.32,0.56,1.19,0.05,0.86-0.5
						c-0.7-1.21-1.06-2.62-1.35-3.98c-0.34-1.57-0.57-3.17-0.62-4.77c-0.05-1.7,0.48-3.32,0.02-5c-0.61-2.2-1.27-4.38-1.81-6.6
						c-0.62-2.55-1.17-5.11-1.72-7.67C468.32,630.59,467.36,630.86,467.49,631.49L467.49,631.49z"/>
				</g>
			</g>
			<g>
				<g>
					<path d="M417.01,675.05c-0.14-2-0.41-3.98-0.81-5.94c-0.2-0.99-0.46-1.96-0.7-2.95c-0.24-0.98-0.34-2.11,0.65-2.7
						c0.81-0.48,1.83-0.18,2.38,0.54c0.53,0.7,0.66,1.63,0.81,2.47c0.37,2.11,0.73,4.21,1.1,6.32c0.11,0.63,1.07,0.36,0.96-0.27
						c-0.22-1.27-0.44-2.54-0.67-3.82c-0.21-1.19-0.36-2.41-0.65-3.58c-0.23-0.92-0.64-1.84-1.45-2.39
						c-0.74-0.51-1.72-0.66-2.57-0.34c-0.8,0.3-1.43,0.97-1.66,1.8c-0.3,1.11,0.14,2.28,0.4,3.35c0.61,2.47,1,4.97,1.18,7.51
						C416.06,675.69,417.06,675.69,417.01,675.05L417.01,675.05z"/>
				</g>
			</g>
			<g>
				<g>
					<path d="M423.6,671.03c-0.28-1.84-0.61-3.66-1-5.48c-0.19-0.91-0.41-1.81-0.62-2.72c-0.2-0.83-0.27-1.6,0.5-2.14
						c2.92-2.03,3.82,6.17,3.84,7.61c0.01,0.64,1.01,0.64,1,0c-0.03-1.71-0.28-3.42-0.79-5.06c-0.4-1.28-0.91-2.94-2.21-3.59
						c-1.12-0.55-2.48-0.05-3.13,0.97c-0.37,0.57-0.42,1.21-0.31,1.87c0.15,0.9,0.42,1.8,0.62,2.7c0.45,2.02,0.82,4.06,1.14,6.11
						C422.73,671.93,423.7,671.66,423.6,671.03L423.6,671.03z"/>
				</g>
			</g>
			<g>
				<g>
					<path d="M522.35,686.02c-0.49-1.67-0.91-3.36-1.27-5.07c-0.17-0.8-0.39-1.63-0.43-2.45c-0.03-0.73,0.2-1.38,0.96-1.59
						c1.48-0.41,2.47,1.17,2.84,2.35c0.52,1.66,0.81,3.43,1.19,5.13c0.14,0.63,1.1,0.36,0.96-0.27c-0.36-1.6-0.65-3.23-1.09-4.81
						c-0.35-1.27-1-2.59-2.25-3.19c-1.03-0.49-2.38-0.35-3.11,0.58c-0.89,1.13-0.37,2.77-0.12,4.03c0.38,1.86,0.84,3.7,1.37,5.52
						C521.56,686.9,522.53,686.64,522.35,686.02L522.35,686.02z"/>
				</g>
			</g>
			<g>
				<g>
					<path d="M528.52,682.72c-0.22-1.51-0.48-3.01-0.79-4.5c-0.15-0.72-0.31-1.43-0.48-2.14c-0.13-0.58-0.35-1.33,0.05-1.85
						c0.34-0.44,1.07-0.75,1.63-0.65c0.64,0.12,0.84,0.79,1.02,1.33c0.49,1.5,0.97,3.01,1.45,4.51c0.2,0.61,1.16,0.35,0.96-0.27
						c-0.31-0.96-0.62-1.93-0.93-2.89c-0.26-0.81-0.46-1.66-0.83-2.43c-0.69-1.46-2.38-1.58-3.61-0.69
						c-1.45,1.05-0.79,2.82-0.47,4.25c0.41,1.84,0.75,3.7,1.02,5.57C527.64,683.62,528.61,683.35,528.52,682.72L528.52,682.72z"/>
				</g>
			</g>
			<g>
				<g>
					<path d="M391.46,381.03c7.98-1.64,16.08-2.62,24.22-2.93c0.64-0.02,0.64-1.02,0-1c-8.23,0.31-16.42,1.3-24.49,2.97
						C390.56,380.2,390.83,381.16,391.46,381.03L391.46,381.03z"/>
				</g>
			</g>
			<g>
				<g>
					<path d="M431.09,377.87c-0.02-1.02-0.16-2.04-0.43-3.03c-0.07-0.25-0.36-0.43-0.62-0.35s-0.42,0.34-0.35,0.62
						c0.26,0.95,0.38,1.79,0.4,2.77c0,0.26,0.23,0.51,0.5,0.5C430.86,378.35,431.1,378.15,431.09,377.87L431.09,377.87z"/>
				</g>
			</g>
			<g>
				<g>
					<path d="M354.74,383.79c-0.3,1.52-0.23,3.09,0.22,4.56c0.19,0.61,1.16,0.35,0.96-0.27c-0.4-1.3-0.49-2.69-0.22-4.03
						c0.05-0.26-0.08-0.54-0.35-0.62C355.11,383.38,354.79,383.53,354.74,383.79L354.74,383.79z"/>
				</g>
			</g>
			
				<ellipse transform="matrix(0.9957 -0.0925 0.0925 0.9957 -34.7941 41.8051)" class="st35" cx="433.58" cy="396.24" rx="3.03" ry="3.34"/>
			
				<ellipse transform="matrix(0.9836 -0.1806 0.1806 0.9836 -71.6176 67.5322)" class="st36" cx="335.07" cy="427.08" rx="1.78" ry="2.93"/>
			<g>
				<g>
					<path d="M448,385.5c0.36,2.98,0.9,5.94,1.38,8.9c0.22,1.39,0.32,2.82,0.6,4.2c0.33,1.59,1.7,1.83,3.08,2.15
						c3.29,0.76,6.65,1.27,10.01,1.54c1.61,0.13,3.33,0.34,4.94,0.19c0.55-0.05,1.1-0.2,1.49-0.61c0.48-0.51,0.48-1.22,0.48-1.87
						c-0.02-3.83-0.43-7.66-1.2-11.42c-0.13-0.63-1.09-0.36-0.96,0.27c0.62,3.04,1,6.12,1.12,9.22c0.03,0.72,0.05,1.45,0.04,2.18
						c0,0.3,0.02,0.67-0.18,0.92c-0.22,0.26-0.64,0.31-0.96,0.33c-1.41,0.09-2.88-0.06-4.29-0.17c-3.08-0.22-6.15-0.66-9.17-1.31
						c-0.71-0.15-1.41-0.31-2.11-0.49c-0.82-0.21-1.22-0.53-1.36-1.39c-0.2-1.23-0.32-2.46-0.52-3.69
						c-0.47-2.98-1.03-5.96-1.39-8.96C448.92,384.87,447.92,384.86,448,385.5L448,385.5z"/>
				</g>
			</g>
			<g>
				<g>
					<path d="M432.15,384c10.08,0.62,20.12,1.87,30.04,3.74c2.79,0.53,5.57,1.1,8.34,1.72c0.63,0.14,0.89-0.82,0.27-0.96
						c-9.9-2.22-19.94-3.83-30.04-4.82c-2.87-0.28-5.74-0.51-8.61-0.68C431.51,382.96,431.51,383.96,432.15,384L432.15,384z"/>
				</g>
			</g>
			
				<ellipse transform="matrix(0.9957 -0.0925 0.0925 0.9957 -36.3398 44.7745)" class="st35" cx="464.84" cy="414.4" rx="3.03" ry="3.34"/>
			
				<ellipse transform="matrix(0.9836 -0.1806 0.1806 0.9836 -67.536 69.7407)" class="st36" cx="349.23" cy="405.77" rx="2.3" ry="2.93"/>
		</g>
	</g>
</g>
</svg>
