<?xml version="1.0" encoding="utf-8"?>
<!-- Generator: Adobe Illustrator 28.0.0, SVG Export Plug-In . SVG Version: 6.00 Build 0)  -->
<svg version="1.1" id="Layer_1" xmlns="http://www.w3.org/2000/svg" xmlns:xlink="http://www.w3.org/1999/xlink" x="0px" y="0px"
	 viewBox="0 0 800 800" style="enable-background:new 0 0 800 800;" xml:space="preserve">
<style type="text/css">
	.st0{fill:#ADADAD;}
	.st1{fill:url(#SVGID_1_);}
	.st2{fill:url(#SVGID_00000015349371043997809790000002685189712513248924_);}
	.st3{fill:url(#SVGID_00000053514996164230960220000013580795288105995963_);}
	.st4{fill:url(#SVGID_00000079462175365648724910000011325642572306305438_);}
	.st5{fill:url(#SVGID_00000157275944280704625810000009548369670692275094_);}
	.st6{fill:url(#SVGID_00000036931498391673428740000011736993168975927958_);}
	.st7{fill:url(#SVGID_00000154400239142207988780000014920111707372615099_);}
	.st8{fill:#040404;}
	.st9{fill:none;stroke:#040404;stroke-width:3;stroke-linecap:round;stroke-miterlimit:10;}
</style>
<g id="_x35_-FACE_BASE__x5B_VOJAK_x5D__GREY__x2B_">
	<path class="st0" d="M411.06,151.11c1.56-0.12,3.13-0.16,4.63-0.58c1.57-0.45,3-1.3,4.4-2.14c5.1-3.07,10.27-6.19,14.36-10.52
		c3.43-3.63,5.99-8,9.14-11.88c1.32-1.63,2.77-3.19,4.57-4.28c2.34-1.42,5.36-2.14,6.71-4.52c0.96-1.69,0.78-3.76,1.12-5.67
		c0.18-1.03,0.47-2.17,0.76-3.18c0.37-1.28,1.11-2.33,1.17-3.71c0.03-0.73-0.09-1.45-0.07-2.18c0.05-1.23,0.53-2.39,0.76-3.6
		c0.3-1.56,0.18-3.16,0.15-4.75c-0.03-2.06,0.1-4.12,0.4-6.15c0.2-1.37,0.48-2.76,0.27-4.14c-0.11-0.71-0.35-1.4-0.43-2.12
		c-0.12-1.03,0.1-2.06,0.1-3.1c0-1.12-0.27-2.22-0.67-3.27c-0.04-0.11-0.08-0.21-0.13-0.31c-0.8-1.89-1.19-3.98-1.72-5.97
		c-0.15-0.56-0.3-1.13-0.57-1.65c-0.42-0.81-1.1-1.46-1.66-2.19c-1.62-2.13-2.11-4.95-3.7-7.09c-0.67-0.9-1.51-1.66-2.48-2.23
		c-0.71-0.41-1.48-0.72-2.15-1.2c-0.77-0.55-1.38-1.29-2.03-1.98c-1.53-1.66-3.28-3.1-5.19-4.29c-1.07-0.67-2.19-1.25-3.31-1.83
		c-1.58-0.82-3.29-1.98-5.02-2.42c-1.82-0.47-3.8-0.72-5.67-1c-6.05-0.9-12.2-1.33-18.3-0.65c-2.5,0.28-4.99,0.75-7.41,1.42
		c-2.03,0.56-4.34,0.9-6.08,2.08c-5.53,3.76-10.61,8.19-15.09,13.16c-1.66,1.84-3.25,3.78-4.28,6.03c-0.61,1.33-1.01,2.73-1.41,4.14
		c-0.42,1.5-0.85,2.99-1.27,4.49c-0.21,0.75-0.43,1.51-0.5,2.29c-0.07,0.85,0.03,1.71-0.07,2.56c-0.23,1.99-1.52,3.63-2.02,5.54
		c-0.48,1.79-1.57,2.94-1.41,4.97c0.12,1.5,0.55,2.98,0.44,4.48c-0.04,0.62-0.18,1.24-0.09,1.85c0.1,0.71,0.48,1.34,0.8,1.99
		c0.85,1.69,1.31,3.57,1.36,5.46c0.05,1.81-0.63,3.49-0.6,5.31c0.03,1.95,0.47,3.87,0.92,5.77c0.47,2.02,0.95,4.05,1.42,6.07
		c0.11,0.47,0.22,0.94,0.47,1.35c0.31,0.52,0.81,0.9,1.26,1.31c1.16,1.05,2.06,2.38,2.59,3.85c0.32,0.9,0.43,1.86,0.71,2.77
		c0.26,0.85,0.77,1.47,1.01,2.33c0.16,0.57,0.33,1.14,0.68,1.61c0.21,0.28,0.48,0.51,0.74,0.75c0.98,0.9,1.74,1.93,2.57,2.96
		c0.75,0.93,0.51,1.82,1.03,2.86c0.37,0.73,1.13,1.15,1.83,1.57c1.57,0.93,3.07,2.04,4.07,3.56c0.55,0.84,0.98,1.84,1.85,2.36
		c0.64,0.38,1.42,0.45,2.06,0.83c0.39,0.22,0.7,0.55,1.06,0.82c0.86,0.63,1.92,0.64,2.92,0.87c0.91,0.2,2.05,0.1,2.87,0.57
		c0.37,0.21,0.68,0.54,0.87,0.93c0.08,0.18,0.16,0.38,0.32,0.48c0.14,0.08,0.31,0.08,0.48,0.07c1.18-0.07,2.31-0.18,3.49-0.18
		C406.44,151.64,408.74,151.29,411.06,151.11z"/>
	<path class="st0" d="M403.4,156.18c3.2,1.2,6.85,0.57,10.06-0.2c3.78-0.9,7.5-2.08,11.17-3.36c1.73-0.6,3.44-1.3,5.19-1.85
		c1.64-0.52,3.07-1.52,4.48-2.51c2.2-1.55,4.4-3.11,6.6-4.66c1.41-0.99,2.82-1.99,4.13-3.11c1.25-1.07,2.3-2.36,3.61-3.36
		c0.69-0.53,1.43-0.97,2.1-1.53c0.66-0.56,1.25-1.25,1.5-2.08c0.2-0.69,0.15-1.44,0.36-2.13c0.19-0.63,0.45-1.23,0.63-1.88
		c0.18-0.65,0.12-1.33,0.24-1.99c0.38-2.04,0.8-4.07,1.2-6.1c0.33-1.67,0.55-3.37,0.31-5.05c-0.01-0.1-0.03-0.21-0.1-0.29
		c-0.24-0.32-0.73,0.01-1,0.31c-1.03,1.15-2.43,1.88-3.73,2.7c-0.45,0.29-0.9,0.59-1.33,0.9c-1.08,0.79-2.11,1.66-3.06,2.6
		c-0.87,0.86-1.58,2.05-2.55,2.78c-0.21,0.15-0.41,0.31-0.61,0.47c-1,0.79-1.93,1.64-2.84,2.53c-0.73,0.72-1.63,1.05-2.5,1.59
		c-2.1,1.31-4.14,2.69-6.12,4.16c-3.93,2.91-7.62,6.13-11.04,9.63c-1.23,1.26-2.43,2.57-3.89,3.56c-2.15,1.46-4.74,2.16-7.31,2.55
		s-5.18,0.5-7.75,0.91c-0.15,0.03-0.32,0.06-0.43,0.16c-0.17,0.16-0.19,0.42-0.18,0.66c0.03,0.96-0.04,1.93,0.54,2.73
		C401.64,155.14,402.46,155.83,403.4,156.18z"/>
	
		<linearGradient id="SVGID_1_" gradientUnits="userSpaceOnUse" x1="395.5456" y1="676.4483" x2="396.7248" y2="663.9677" gradientTransform="matrix(1 0 0 -1 0 799.8898)">
		<stop  offset="0" style="stop-color:#040404"/>
		<stop  offset="0.2498" style="stop-color:#070707;stop-opacity:0.7502"/>
		<stop  offset="0.4053" style="stop-color:#0F0F0F;stop-opacity:0.5947"/>
		<stop  offset="0.5351" style="stop-color:#1E1E1E;stop-opacity:0.4649"/>
		<stop  offset="0.6507" style="stop-color:#323232;stop-opacity:0.3493"/>
		<stop  offset="0.7569" style="stop-color:#4D4D4D;stop-opacity:0.2431"/>
		<stop  offset="0.8563" style="stop-color:#6E6E6E;stop-opacity:0.1437"/>
		<stop  offset="0.9484" style="stop-color:#949494;stop-opacity:0.0516"/>
		<stop  offset="1" style="stop-color:#ADADAD;stop-opacity:0"/>
	</linearGradient>
	<path class="st1" d="M403.37,134.77c1.53-0.29,3.3-0.88,3.72-2.38c-1.11-0.53-2.39-0.46-3.62-0.38c-3.07,0.21-6.14,0.41-9.21,0.62
		c-2.58,0.17-4.92,0.33-7.44,1.04c-0.42,0.12-0.93,0.36-0.93,0.8c0.01,0.44,0.53,0.66,0.95,0.76
		C392.23,136.51,397.99,135.8,403.37,134.77z"/>
	
		<linearGradient id="SVGID_00000072988377542715455650000009345747103249039767_" gradientUnits="userSpaceOnUse" x1="395.0178" y1="684.2883" x2="396.5901" y2="671.0215" gradientTransform="matrix(1 0 0 -1 0 799.8898)">
		<stop  offset="0" style="stop-color:#040404"/>
		<stop  offset="0.2498" style="stop-color:#070707;stop-opacity:0.7502"/>
		<stop  offset="0.4053" style="stop-color:#0F0F0F;stop-opacity:0.5947"/>
		<stop  offset="0.5351" style="stop-color:#1E1E1E;stop-opacity:0.4649"/>
		<stop  offset="0.6507" style="stop-color:#323232;stop-opacity:0.3493"/>
		<stop  offset="0.7569" style="stop-color:#4D4D4D;stop-opacity:0.2431"/>
		<stop  offset="0.8563" style="stop-color:#6E6E6E;stop-opacity:0.1437"/>
		<stop  offset="0.9484" style="stop-color:#949494;stop-opacity:0.0516"/>
		<stop  offset="1" style="stop-color:#ADADAD;stop-opacity:0"/>
	</linearGradient>
	<path style="fill:url(#SVGID_00000072988377542715455650000009345747103249039767_);" d="M390.35,127.65
		c4.13,0.7,8.45,0.22,12.34-1.35c0.73-0.3,1.58-0.83,1.5-1.62c-3.62,0.04-7.23,0.2-10.84,0.49c-1.08,0.09-3.97-0.15-4.78,0.61
		C387.34,126.96,389.59,127.53,390.35,127.65z"/>
	
		<linearGradient id="SVGID_00000182512536535575806070000013573661471042285992_" gradientUnits="userSpaceOnUse" x1="408.3039" y1="707.2676" x2="409.3849" y2="697.5387" gradientTransform="matrix(1 0 0 -1 0 799.8898)">
		<stop  offset="0" style="stop-color:#040404"/>
		<stop  offset="0.2498" style="stop-color:#070707;stop-opacity:0.7502"/>
		<stop  offset="0.4053" style="stop-color:#0F0F0F;stop-opacity:0.5947"/>
		<stop  offset="0.5351" style="stop-color:#1E1E1E;stop-opacity:0.4649"/>
		<stop  offset="0.6507" style="stop-color:#323232;stop-opacity:0.3493"/>
		<stop  offset="0.7569" style="stop-color:#4D4D4D;stop-opacity:0.2431"/>
		<stop  offset="0.8563" style="stop-color:#6E6E6E;stop-opacity:0.1437"/>
		<stop  offset="0.9484" style="stop-color:#949494;stop-opacity:0.0516"/>
		<stop  offset="1" style="stop-color:#ADADAD;stop-opacity:0"/>
	</linearGradient>
	<path style="fill:url(#SVGID_00000182512536535575806070000013573661471042285992_);" d="M404.89,98.6
		c-0.01,0.7,0.3,1.36,0.61,1.98c0.3,0.59,0.64,1.2,1.18,1.59c0.66,0.48,1.53,0.56,2.35,0.52c1.05-0.06,2.16-0.35,2.85-1.14
		c0.26-0.31,0.45-0.67,0.63-1.04c0.38-0.79,0.71-1.69,0.45-2.52c-0.2-0.63-0.72-1.11-1.22-1.55c-0.4-0.36-0.81-0.72-1.3-0.95
		C408.1,94.37,404.92,95.85,404.89,98.6z"/>
	
		<linearGradient id="SVGID_00000020394695224418994010000016348716727821160865_" gradientUnits="userSpaceOnUse" x1="379.8633" y1="707.736" x2="381.2391" y2="693.6831" gradientTransform="matrix(1 0 0 -1 0 799.8898)">
		<stop  offset="0" style="stop-color:#040404"/>
		<stop  offset="0.2498" style="stop-color:#070707;stop-opacity:0.7502"/>
		<stop  offset="0.4053" style="stop-color:#0F0F0F;stop-opacity:0.5947"/>
		<stop  offset="0.5351" style="stop-color:#1E1E1E;stop-opacity:0.4649"/>
		<stop  offset="0.6507" style="stop-color:#323232;stop-opacity:0.3493"/>
		<stop  offset="0.7569" style="stop-color:#4D4D4D;stop-opacity:0.2431"/>
		<stop  offset="0.8563" style="stop-color:#6E6E6E;stop-opacity:0.1437"/>
		<stop  offset="0.9484" style="stop-color:#949494;stop-opacity:0.0516"/>
		<stop  offset="1" style="stop-color:#ADADAD;stop-opacity:0"/>
	</linearGradient>
	<path style="fill:url(#SVGID_00000020394695224418994010000016348716727821160865_);" d="M377.07,100.92
		c-0.23,1.22,0.04,2.62,1.02,3.39c0.44,0.35,0.99,0.54,1.53,0.68c1.35,0.36,2.95,0.42,3.97-0.54c0.75-0.7,1-1.78,1-2.8
		c0-0.43-0.03-0.87-0.16-1.29c-0.29-0.94-1.05-1.69-1.95-2.09C379.86,97.07,377.61,98.11,377.07,100.92z"/>
	
		<linearGradient id="SVGID_00000028292119898782119770000014304792890046740378_" gradientUnits="userSpaceOnUse" x1="403.2836" y1="681.3523" x2="420.6634" y2="648.7437" gradientTransform="matrix(1 0 0 -1 0 799.8898)">
		<stop  offset="0" style="stop-color:#040404"/>
		<stop  offset="0.2498" style="stop-color:#070707;stop-opacity:0.7502"/>
		<stop  offset="0.4053" style="stop-color:#0F0F0F;stop-opacity:0.5947"/>
		<stop  offset="0.5351" style="stop-color:#1E1E1E;stop-opacity:0.4649"/>
		<stop  offset="0.6507" style="stop-color:#323232;stop-opacity:0.3493"/>
		<stop  offset="0.7569" style="stop-color:#4D4D4D;stop-opacity:0.2431"/>
		<stop  offset="0.8563" style="stop-color:#6E6E6E;stop-opacity:0.1437"/>
		<stop  offset="0.9484" style="stop-color:#949494;stop-opacity:0.0516"/>
		<stop  offset="1" style="stop-color:#ADADAD;stop-opacity:0"/>
	</linearGradient>
	<path style="fill:url(#SVGID_00000028292119898782119770000014304792890046740378_);" d="M401.16,153.6
		c0.19,0.37,0.49,0.67,0.81,0.93c1.7,1.41,4.09,1.79,6.27,1.45s4.21-1.34,6.13-2.44c2.18-1.25,4.29-2.66,6.16-4.34
		c1.65-1.47,3.11-3.14,4.47-4.87c0.68-0.87,1.34-1.76,1.98-2.66c0.32-0.44,0.6-0.95,0.96-1.35c0.28-0.32,0.72-0.57,0.93-0.94
		c0.97-1.73,1.87-3.51,2.68-5.33c0.16-0.37,0.33-0.77,0.2-1.15c-0.08-0.11-0.25-0.13-0.37-0.08c-0.13,0.05-0.22,0.16-0.31,0.27
		c-2.15,2.57-5.02,4.61-7.44,6.94c-2.54,2.44-5,4.95-7.52,7.41c-0.5,0.49-1.04,0.99-1.72,1.14c-0.42,0.09-0.85,0.03-1.28,0.04
		c-2.05,0.03-3.81,1.51-5.83,1.89c-1.95,0.36-3.88-0.35-5.83-0.28c-0.86,0.03-1.26,0.14-1.08,1.04
		C400.51,151.93,400.85,152.99,401.16,153.6z"/>
	
		<linearGradient id="SVGID_00000183940324503849337510000010528030572219122592_" gradientUnits="userSpaceOnUse" x1="421.787" y1="708.8143" x2="442.5843" y2="702.0152" gradientTransform="matrix(1 0 0 -1 0 799.8898)">
		<stop  offset="0" style="stop-color:#040404"/>
		<stop  offset="0.2498" style="stop-color:#070707;stop-opacity:0.7502"/>
		<stop  offset="0.4053" style="stop-color:#0F0F0F;stop-opacity:0.5947"/>
		<stop  offset="0.5351" style="stop-color:#1E1E1E;stop-opacity:0.4649"/>
		<stop  offset="0.6507" style="stop-color:#323232;stop-opacity:0.3493"/>
		<stop  offset="0.7569" style="stop-color:#4D4D4D;stop-opacity:0.2431"/>
		<stop  offset="0.8563" style="stop-color:#6E6E6E;stop-opacity:0.1437"/>
		<stop  offset="0.9484" style="stop-color:#949494;stop-opacity:0.0516"/>
		<stop  offset="1" style="stop-color:#ADADAD;stop-opacity:0"/>
	</linearGradient>
	<path style="fill:url(#SVGID_00000183940324503849337510000010528030572219122592_);" d="M440.3,98.14
		c-0.11-1.46-0.23-2.92-0.1-4.37c0.46-5.32,4.48-10.67,10.32-10.11c2.58,0.25,5.05,2.04,5.72,4.54c0.05,0.19,0.06,0.46-0.13,0.53
		c-0.13,0.05-0.27-0.04-0.38-0.13c-2.04-1.5-4.56-2.34-7.1-2.35c-0.36,0-0.73,0.01-1.06,0.14c-0.3,0.12-0.56,0.31-0.8,0.53
		c-1.6,1.39-2.48,3.24-2.61,5.31c-0.15,2.4-0.68,4.8-0.54,7.24c0.1,1.67,0.42,3.32,0.39,4.99c-0.03,1.62-0.38,3.22-0.4,4.83
		c-0.01,0.98,0.1,1.96-0.01,2.93c-0.11,0.97-0.49,1.97-1.27,2.55c0.49-0.37-0.23-3.94-0.32-4.53c-0.18-1.11-0.52-2.15-0.8-3.23
		C440.46,104.19,440.53,101.06,440.3,98.14z"/>
	
		<linearGradient id="SVGID_00000145053827386513657030000012738704131701412494_" gradientUnits="userSpaceOnUse" x1="350.0741" y1="696.4404" x2="398.3715" y2="700.7895" gradientTransform="matrix(1 0 0 -1 0 799.8898)">
		<stop  offset="0" style="stop-color:#040404"/>
		<stop  offset="0.5817" style="stop-color:#696969;stop-opacity:0.4183"/>
		<stop  offset="1" style="stop-color:#ADADAD;stop-opacity:0"/>
	</linearGradient>
	<path style="fill:url(#SVGID_00000145053827386513657030000012738704131701412494_);" d="M390.66,48.06
		c-4.68,4.36-9.38,8.72-13.65,13.48c-1.52,1.69-3,3.46-3.98,5.51c-0.73,1.53-1.17,3.17-1.49,4.85c-0.9,4.72-0.87,9.78-3.74,13.57
		c-0.27,0.36-0.57,0.71-0.74,1.13c-0.17,0.44-0.19,0.93-0.2,1.4c-0.08,3.05-0.13,6.21,1.05,9.03c0.82,1.96,2.25,3.85,1.98,5.96
		c-0.4,3.09-1.14,6.06-0.88,9.23c0.27,3.24,1.3,6.42,3.02,9.19c1.24,2,2.84,3.81,3.7,6c0.73,1.88,0.91,4,2.09,5.64
		c1.2,1.66,3.34,2.67,3.92,4.63c0.36,1.22,0.08,2.7,0.93,3.65c0.42,0.47,1.04,0.7,1.63,0.94c1.66,0.68,3.36,1.66,4.09,3.3
		c0.21,0.46,0.33,0.97,0.63,1.38c0.34,0.46,0.86,0.75,1.36,1.03c1.67,0.91,3.35,1.82,5.19,2.29c2.05,0.51,4.2,0.44,6.3,0.25
		c-1.41,0.13-2.91-2.07-3.63-2.97c-0.98-1.21-1.96-2.26-2.79-3.61c-2.05-3.36-4.37-6.48-6.6-9.72c1.58-1.12,3.61-1.59,5.52-1.26
		c-0.97-2.64-4.85-2.88-6.41-5.21c-0.53-0.8-0.74-1.77-0.84-2.72c-0.57-5.36,1.72-10.45,2.55-15.66c0.5-3.16,0.79-6.99-0.63-9.97
		c-0.1-0.21-0.21-0.42-0.28-0.65c-0.08-0.26-0.1-0.53-0.12-0.79c-0.4-5.53-0.54-11.47-3.82-15.93c-1.23-1.67-1.92-2.81-2.18-4.87
		c1.18,0.1,2.13-0.92,1.97-2.14c-0.14-1.09-0.91-1.97-1.53-2.87c-0.61-0.91-1.11-2.08-0.64-3.07c0.28-0.6,0.85-0.99,1.31-1.47
		c1.76-1.86,1.6-4.75,2.12-7.26c0.45-2.16,1.65-3.93,2.57-5.89C389.4,52.41,391.1,50.51,390.66,48.06z"/>
	<g>
		<g>
			<path class="st8" d="M438.21,131.37c-0.4,1.89-0.81,3.83-0.53,5.76c0.23,1.63,0.98,3.12,2.11,4.32c0.22,0.23,0.57-0.12,0.35-0.35
				c-1.11-1.18-1.82-2.67-2-4.28c-0.2-1.79,0.18-3.57,0.55-5.31C438.76,131.19,438.28,131.06,438.21,131.37L438.21,131.37z"/>
		</g>
	</g>
	<g>
		<g>
			<path class="st8" d="M433.59,147.66c1.59,0.65,2.95,1.62,4.17,2.81c0.98,0.95,2.06,2.02,3.52,2.02c0.32,0,0.32-0.5,0-0.5
				c-1.51,0-2.57-1.32-3.58-2.27c-1.16-1.09-2.51-1.94-3.98-2.54C433.42,147.06,433.29,147.54,433.59,147.66L433.59,147.66z"/>
		</g>
	</g>
	<g>
		<g>
			<path class="st8" d="M411.63,155.27c-0.52,0.77-0.92,1.62-1.18,2.51c-0.09,0.31,0.39,0.44,0.48,0.13
				c0.25-0.85,0.64-1.65,1.13-2.39c0.08-0.11,0.02-0.28-0.09-0.34C411.85,155.11,411.7,155.16,411.63,155.27L411.63,155.27z"/>
		</g>
	</g>
	<path class="st9" d="M390.01,103.8c-0.43,0.85-2.14,16.98-2.45,20.9c-0.05,0.59,0.46,1.09,1.05,1.03l14.71-1.4"/>
	<line class="st9" x1="386.8" y1="133.75" x2="405.97" y2="132.01"/>
	<circle class="st8" cx="408.87" cy="97.98" r="3.71"/>
	<circle class="st8" cx="380.92" cy="100.84" r="3.71"/>
	<g>
		<g>
			<path d="M454,135c0-2.87,0.22-5.75,0.66-8.59c0.19-1.21,0.41-2.41,0.71-3.6c0.32-1.28,0.79-2.51,0.91-3.83
				c0.14-1.5,0.04-3,0.27-4.5c0.22-1.48,0.45-2.97,0.68-4.45c0.2-1.32,0.72-2.56,1.1-3.83c0.43-1.44,0.46-2.85,0.58-4.33
				c0.11-1.43,0.83-2.72,1.03-4.14c0.22-1.6,0.26-3.24,0.28-4.85c0.02-1.55,0.01-3.1,0.07-4.65c0.03-0.72,0.09-1.39,0.25-2.1
				c0.16-0.73,0.28-1.46,0.17-2.2c-0.1-0.7-0.4-1.34-0.58-2.03c-0.18-0.67-0.21-1.35-0.2-2.04c0.02-1.32,0.15-2.63-0.15-3.93
				c-0.34-1.45-1.3-2.67-1.81-4.06c-0.47-1.27-0.55-2.55-0.77-3.88c-0.1-0.62-0.27-1.21-0.56-1.77c-0.34-0.65-0.86-1.09-1.38-1.57
				c-0.95-0.88-1.05-2.17-1.61-3.29c-0.29-0.58-0.7-1.08-1.04-1.63c-0.34-0.56-0.66-1.13-1.02-1.68c-0.68-1.07-1.46-2.1-2.46-2.89
				c-1.04-0.83-2.4-1.27-3.28-2.29c-0.44-0.51-0.8-1.07-1.26-1.56c-0.51-0.53-1.1-0.99-1.68-1.44c-2.31-1.83-4.65-3.63-7.37-4.81
				c-2.65-1.15-5.46-1.8-8.29-2.32c-2.89-0.53-5.79-1.1-8.71-1.43c-6.2-0.72-12.41-0.11-18.43,1.47c-2.89,0.76-5.92,1.65-8.53,3.13
				c-2.55,1.45-4.69,3.67-6.85,5.63c-2.24,2.04-4.44,4.13-6.48,6.37c-0.98,1.07-1.91,2.18-2.8,3.32c-0.92,1.19-1.89,2.41-2.58,3.75
				c-0.64,1.24-1.01,2.59-1.35,3.95c-0.35,1.41-0.72,2.81-1.11,4.22c-0.19,0.68-0.38,1.36-0.55,2.05c-0.19,0.74-0.15,1.46-0.13,2.22
				c0.03,1.36-0.02,2.6-0.78,3.77c-0.32,0.49-0.69,0.94-0.97,1.45c-0.31,0.58-0.26,1.29-0.68,1.79c-0.39,0.45-0.81,0.85-1.06,1.4
				c-0.28,0.6-0.41,1.25-0.43,1.91c-0.04,1.25,0.33,2.47,0.4,3.71c0.08,1.43-0.29,2.84,0.06,4.25c0.32,1.35,1.26,2.43,1.63,3.76
				c0.19,0.68,0.33,1.39,0.48,2.08c0.08,0.39,0.16,0.78,0.24,1.17c0.05,0.26,0.18,0.63,0.15,0.85c-0.05,0.34-0.26,0.64-0.3,1.01
				c-0.03,0.32-0.03,0.65-0.06,0.97c-0.05,0.73-0.18,1.45-0.32,2.17s-0.28,1.42-0.2,2.15c0.07,0.76,0.26,1.5,0.44,2.24
				c0.37,1.51,0.58,3.06,0.88,4.59c0.28,1.42,0.52,2.88,1.11,4.22c0.55,1.25,1.56,2.14,2.49,3.11c0.97,1.01,1.66,2.26,2.15,3.56
				c0.49,1.3,0.57,2.69,1.03,3.99c0.44,1.26,1.4,2.24,2.28,3.22c0.82,0.9,1.65,1.8,2.21,2.89c0.24,0.46,0.39,0.95,0.45,1.47
				c0.08,0.71,0.11,1.36,0.53,1.98c0.62,0.9,1.63,1.34,2.56,1.84s1.8,1.2,2.58,1.91c0.45,0.4,0.86,0.84,1.17,1.36
				c0.33,0.56,0.46,1.22,0.92,1.7c0.42,0.43,0.97,0.63,1.53,0.77c0.62,0.16,0.89,0.38,1.34,0.83c2.01,2.03,5.12,2.06,7.79,2.04
				c3.11-0.02,6.2-0.14,9.27-0.63c1.36-0.22,2.6-0.57,3.83-1.19c0.55-0.28,0.89-0.36,1.5-0.23c0.84,0.18,1.4-0.13,1.97-0.73
				c2.13-2.18,4.34-4.29,6.58-6.37c2.21-2.05,4.44-4.07,6.62-6.15c1.08-1.03,2.13-2.11,3.24-3.1c1.06-0.95,2.14-1.9,3.03-3.01
				c0.85-1.07,1.59-2.23,2.58-3.17c0.44-0.42,0.93-0.78,1.32-1.25c0.44-0.55,0.74-1.17,1.01-1.82c0.57-1.4,0.74-2.89,0.99-4.36
				c0.11-0.65,0.24-1.3,0.44-1.93c0.22-0.72,0.56-1.39,0.79-2.1c0.43-1.32,0.61-2.73,0.44-4.12c-0.08-0.69-0.25-1.34-0.43-2.01
				c-0.19-0.71-0.43-1.39-0.34-2.13c0.06-0.54-0.51-1-1-1c-0.59,0-0.94,0.46-1,1c-0.17,1.43,0.57,2.79,0.77,4.18
				c0.2,1.35-0.05,2.69-0.52,3.97c-0.23,0.63-0.52,1.24-0.71,1.89c-0.2,0.71-0.33,1.43-0.45,2.16c-0.22,1.37-0.4,2.78-0.98,4.05
				c-0.54,1.18-1.58,1.81-2.42,2.76c-0.86,0.98-1.54,2.09-2.41,3.06c-0.93,1.04-2,1.94-3.03,2.87c-1.09,0.99-2.11,2.06-3.18,3.07
				c-2.16,2.04-4.36,4.04-6.54,6.06c-1.06,0.98-2.12,1.97-3.16,2.98c-0.53,0.52-1.07,1.04-1.59,1.56c-0.22,0.22-0.44,0.44-0.66,0.67
				c-0.2,0.2-0.83,0.67-0.9,0.93c-0.03,0.03-0.05,0.06-0.08,0.08c0.19,0.06,0.18,0.06-0.04-0.01c-0.14-0.03-0.26-0.06-0.4-0.08
				c-0.33-0.05-0.62-0.05-0.95,0c-0.61,0.09-1.14,0.37-1.69,0.64c-1.19,0.6-2.52,0.81-3.83,1c-2.96,0.43-5.97,0.48-8.95,0.46
				c-1.33-0.01-2.67-0.07-3.94-0.49c-0.55-0.18-1.04-0.43-1.46-0.84c-0.43-0.42-0.82-0.88-1.36-1.15c-0.45-0.22-1.13-0.22-1.53-0.5
				c-0.39-0.28-0.52-1.05-0.77-1.46c-0.63-1.04-1.55-1.82-2.5-2.56c-0.85-0.65-1.67-1.21-2.61-1.71c-0.37-0.19-0.78-0.39-1.07-0.69
				c-0.4-0.42-0.31-0.98-0.39-1.53c-0.36-2.46-2.3-4.24-3.85-6.02c-0.39-0.44-0.8-0.9-1.05-1.45c-0.28-0.61-0.34-1.31-0.47-1.96
				c-0.27-1.32-0.73-2.6-1.32-3.8c-0.62-1.24-1.42-2.28-2.4-3.27c-0.97-0.97-1.67-1.86-2.04-3.21c-0.39-1.43-0.63-2.9-0.9-4.35
				s-0.62-2.89-0.89-4.34c-0.26-1.38,0.25-2.77,0.41-4.15c0.06-0.55-0.01-1.17,0.2-1.68c0.3-0.75,0.16-1.36,0-2.13
				c-0.29-1.38-0.48-2.84-1.02-4.14c-0.49-1.19-1.36-2.27-1.44-3.59c-0.08-1.37,0.18-2.71,0-4.09c-0.15-1.08-0.49-2.29-0.21-3.37
				c0.14-0.54,0.47-0.86,0.82-1.27c0.53-0.6,0.69-1.12,0.88-1.86c0.14-0.52,0.52-0.97,0.83-1.41c0.36-0.51,0.66-1.03,0.89-1.62
				c0.5-1.29,0.44-2.72,0.41-4.08c-0.03-1.34,0.47-2.64,0.83-3.92c0.73-2.65,1.09-5.58,2.62-7.91c1.59-2.42,3.46-4.64,5.45-6.74
				c2.01-2.11,4.14-4.1,6.31-6.05c2.09-1.89,4.11-3.93,6.69-5.14c2.65-1.25,5.55-2.07,8.39-2.74c2.88-0.68,5.82-1.17,8.78-1.32
				c5.88-0.3,11.71,0.75,17.45,1.91c2.68,0.54,5.36,1.25,7.78,2.54c1.27,0.67,2.46,1.48,3.61,2.34c1.1,0.82,2.23,1.64,3.23,2.58
				c1,0.94,1.63,2.13,2.79,2.91c1.07,0.71,2.17,1.2,3.05,2.17c0.81,0.89,1.4,1.95,2.02,2.98c0.31,0.52,0.68,1.01,1,1.53
				c0.34,0.56,0.5,1.17,0.72,1.79c0.21,0.6,0.46,1.16,0.85,1.66c0.4,0.5,0.94,0.85,1.35,1.34c0.73,0.89,0.68,2.27,0.84,3.35
				c0.2,1.38,0.68,2.68,1.29,3.92c0.29,0.59,0.68,1.15,0.91,1.77c0.24,0.63,0.31,1.29,0.31,1.96c0.01,1.33-0.14,2.65,0.08,3.98
				c0.11,0.66,0.35,1.26,0.54,1.89c0.21,0.7,0.13,1.31-0.02,2.01c-0.63,2.92-0.29,6.04-0.41,9.01c-0.06,1.44-0.11,2.92-0.57,4.29
				c-0.23,0.68-0.49,1.33-0.6,2.05c-0.11,0.72-0.12,1.43-0.15,2.15c-0.06,1.35-0.48,2.6-0.9,3.87c-0.43,1.33-0.65,2.62-0.85,3.99
				c-0.22,1.47-0.52,2.94-0.67,4.42c-0.14,1.4,0.05,2.86-0.26,4.24c-0.26,1.14-0.65,2.25-0.91,3.39c-0.26,1.19-0.47,2.38-0.63,3.59
				c-0.38,2.75-0.6,5.52-0.6,8.29C452,136.29,454,136.29,454,135L454,135z"/>
		</g>
	</g>
	<g>
		<g>
			<path d="M398.29,151.71c0.39,0.34,0.87,0.6,1.23,0.93c0.29,0.27,0.49,0.81,0.65,1.29c0.18,0.56,0.36,1.1,0.6,1.64
				c0.03,0.07,0.06,0.14,0.09,0.2c0.07,0.15-0.1-0.27-0.03-0.08c0.02,0.04,0.03,0.09,0.05,0.13c0.08,0.21,0.14,0.42,0.19,0.64
				c0.2,0.84,0.31,1.69,0.41,2.54c0.06,0.54,0.41,1,1,1c0.49,0,1.07-0.46,1-1c-0.18-1.51-0.34-3.01-0.97-4.4
				c-0.02-0.03-0.12-0.23-0.11-0.25c-0.01,0.01,0.11,0.27,0.03,0.08c-0.02-0.05-0.04-0.1-0.06-0.16c-0.14-0.37-0.24-0.76-0.37-1.13
				c-0.22-0.65-0.5-1.33-0.99-1.83c-0.38-0.39-0.97-0.72-1.31-1.01c-0.41-0.35-1.01-0.4-1.41,0
				C397.93,150.66,397.88,151.35,398.29,151.71L398.29,151.71z"/>
		</g>
	</g>
</g>
</svg>
