<?xml version="1.0" encoding="utf-8"?>
<!-- Generator: Adobe Illustrator 28.0.0, SVG Export Plug-In . SVG Version: 6.00 Build 0)  -->
<svg version="1.1" id="Layer_1" xmlns="http://www.w3.org/2000/svg" xmlns:xlink="http://www.w3.org/1999/xlink" x="0px" y="0px"
	 viewBox="0 0 150 150" style="enable-background:new 0 0 150 150;" xml:space="preserve">
<style type="text/css">
	.st0{stroke:#000000;stroke-width:2;stroke-linecap:round;stroke-linejoin:round;stroke-miterlimit:10;}
	.st1{fill:#F00000;}
	.st2{fill:#111111;}
	.st3{fill:#FFFFFF;}
	.st4{fill:#50A2CC;}
	.st5{fill:#C60505;}
	.st6{fill:url(#SVGID_1_);}
	.st7{fill:url(#SVGID_00000173842268394172542480000013729610008978242208_);}
	.st8{fill:url(#SVGID_00000072244853133938288320000013821837061361908401_);}
	.st9{fill:url(#SVGID_00000138557415359420180840000005285105626218274485_);}
	.st10{fill:url(#SVGID_00000067234835537608107950000001719541751974139011_);}
	.st11{fill:url(#SVGID_00000031201332336598106960000018257999962650951302_);}
	.st12{fill:url(#SVGID_00000044177987852891912740000008513599986813112228_);}
	.st13{fill:url(#SVGID_00000122684347364612959440000008845306264937547919_);}
	.st14{fill:url(#SVGID_00000166646917423356313920000003691476991350664346_);}
	.st15{fill:url(#SVGID_00000091721767413986763240000016999962412690514069_);}
	.st16{fill:url(#SVGID_00000065792890039896581460000011667305567398194332_);}
	.st17{fill:#F4D800;}
	.st18{fill:#BC0202;}
	.st19{fill:none;stroke:#000000;stroke-miterlimit:10;}
	.st20{fill:url(#SVGID_00000172417573814522464370000001848137590922663815_);}
	.st21{fill:url(#SVGID_00000165923432848390044340000015749035559896152731_);}
	.st22{fill:none;stroke:#000000;stroke-linecap:round;stroke-linejoin:round;stroke-miterlimit:10;}
	.st23{fill:url(#SVGID_00000160888143556762410830000012152792319137271734_);}
	.st24{fill:none;stroke:#000000;stroke-width:2;stroke-linecap:round;stroke-linejoin:round;stroke-miterlimit:10;}
</style>
<g id="Wagey_Shirt_x0A_">
	<g>
		<path class="st0" d="M139.13,88.24c-0.08-1.01-0.41-2.05-0.61-3.03c-0.86-4.19-1.91-8.34-3.13-12.44
			c-1.22-4.09-2.6-8.14-4.18-12.1c-0.69-1.74-1.63-3.36-2.5-5.01c-0.96-1.82-1.65-3.71-2.27-5.67c-2.19-6.85-3.91-14.61-9.64-19.5
			c-2.93-2.5-6.62-3.72-10.19-5c-4.13-1.49-8.26-2.98-12.39-4.47c-0.94-0.34-1.88-0.68-2.82-1.02c0.05-0.25,0.06-0.51-0.03-0.86
			c-0.41-1.49-1.15-3.03-2.03-4.3c-0.49-0.71-1.07-1.18-1.83-1.59c-0.98-0.53-1.99-1.08-3.05-1.44c-0.09-0.03-0.18-0.07-0.27-0.1
			c-0.02-0.01-0.04,0-0.06,0c-0.82-0.25-1.68-0.31-2.55-0.11c-0.33,0.08-0.65,0.18-0.98,0.26c-1.02,0.24-2.04,0.46-3.06,0.69
			c-3.26,0.72-6.53,1.43-9.78,2.2c-3.1,0.73-6.23,1.46-9.17,2.73c-1.12,0.48-2.19,1.06-3.14,1.82c-0.85,0.69-1.46,1.55-2.01,2.48
			c-0.63,1.07-1.32,2.11-1.9,3.21c-3.23,1.93-6.66,3.45-10.05,5.05c-1.81,0.85-3.52,1.8-5.19,2.91c-1.47,0.98-2.99,1.93-4.34,3.08
			c-2.58,2.22-4.55,5.09-5.74,8.28c-0.7,1.89-1.16,3.87-2.01,5.7c-0.83,1.79-1.97,3.42-2.92,5.16c-1.03,1.9-1.89,3.9-3.08,5.71
			c-0.77,1.17-1.72,2.5-2.84,3.36c-0.92,0.71-2.26,0.8-2.71,1.95c-3.85,9.87-4.45,20.99-1.68,31.22c0.73,2.71,1.82,5.53,4.09,7.19
			c4.64,3.39,7.54-1.32,10.47-4.17c-0.33,6.87-0.56,13.75-0.82,20.62c-0.08,2.13-0.16,4.27-0.24,6.4c-0.04,1.05-0.08,2.09-0.11,3.14
			c-0.03,0.84-0.18,1.83,0.21,2.62c0.74,1.5,2.93,1.2,4.3,1.2c2.06-0.01,4.13-0.09,6.19-0.22c8.25-0.54,16.42-1.9,24.63-2.9
			c4.1-0.5,8.21-0.9,12.34-1.06c2.05-0.08,4.11-0.1,6.17-0.03c1.02,0.03,2.03,0.12,3.04,0.15c1.05,0.04,2.13-0.1,3.18-0.15
			c0.97-0.05,1.93-0.1,2.86,0.19c0.01,0,0.03,0,0.04,0c2.06,0.39,4.12,0.87,6.19,1.17c0.99,0.14,1.83,0.05,2.79-0.15
			c0.97-0.2,1.98-0.03,2.94-0.3c1.99-0.57,1.93-2.63,2.21-4.32c0.36-2.17,0.53-4.36,0.73-6.55c0.4-4.44,0.79-8.9,0.83-13.36
			c0.02-2.23-0.05-4.45-0.24-6.67c-0.19-2.15-0.75-4.42-0.36-6.58c0.2-1.14,0.75-2.14,1.16-3.21c0.3-0.79,0.46-1.63,0.57-2.47
			c0.16-1.2,0.2-2.41,0.15-3.62c0.2,0.4,0.39,0.81,0.61,1.21c0.67,1.2,1.43,2.33,2.27,3.42c1.59,2.05,3.47,3.88,5.56,5.42
			c2.09,1.53,4.01,1.97,6.59,1.9c5.23-0.13,10.55-0.65,15.36-2.71c1.47-0.63,3.01-1.51,3.9-2.89
			C139.1,89.93,139.2,89.09,139.13,88.24z"/>
		<g>
			<path class="st1" d="M11.65,74.09c-0.83,4.35-0.97,8.84-0.7,13.27c0.18,3.01,0.55,6.03,1.41,8.93c0.43,1.46,0.98,2.88,1.68,4.23
				c0.67,1.28,1.58,2.12,2.72,3.01c0.85,0.67,1.93,1.12,3,1.01c1.22-0.13,2.26-0.94,3.15-1.79c0.61-0.58,1.19-1.2,1.7-1.87
				c0.35-0.47,0.72-1,1.28-1.17c0.22,0.41,0.24,0.9,0.25,1.37c0.03,1.36,0.06,2.73,0.09,4.09c0.01,0.64,0.03,1.29-0.07,1.93
				c-0.08,0.51-0.24,1-0.36,1.51c-0.43,1.83-0.09,3.73,0.05,5.57c0.15,2.03,0.07,4.08-0.22,6.09c-0.1,0.67-0.22,1.33-0.35,1.99
				c-0.12,0.62-0.37,1.31-0.3,1.95c0.07,0.65,0.11,1.27,0.12,1.93c0.01,1.85,0.03,3.71,0.04,5.56c0,0.52,0.03,1.1,0.38,1.49
				c0.19,0.21,0.46,0.33,0.72,0.43c2.14,0.78,4.52,0.11,6.79,0.33c1.23,0.12,2.55-0.03,3.8-0.08c6.54-0.3,13.01-1.35,19.48-2.31
				c6.44-0.95,12.92-1.82,19.44-1.77c2.66,0.02,5.35,0.31,8.01,0.09c0.57-0.05,1.15-0.12,1.72-0.12c0.94,0,1.86,0.19,2.79,0.36
				c3.38,0.61,7.06,1.13,10.47,0.5c0.63-0.12,1.28-0.37,1.64-0.92c0.57-0.88,0.77-1.94,0.85-2.98c0.1-1.35,0.08-2.69,0.29-4.03
				c0.22-1.39,0.41-2.79,0.58-4.19c0.33-2.76,0.55-5.54,0.63-8.32c0.15-4.85-0.51-9.6-0.81-14.43c-0.04-0.64-0.07-1.29,0.02-1.93
				c0.15-1.02,0.6-1.97,0.97-2.93c0.73-1.92,1.13-3.96,1.18-6.01c0.01-0.3,0.05-0.66,0.32-0.77c1.03,0.35,1.58,1.55,2.18,2.37
				c0.76,1.04,1.54,2.06,2.34,3.07c0.38,0.48,0.76,0.95,1.17,1.4c0.73,0.81,1.56,1.46,2.34,2.21c0.74,0.69,1.01,1.41,2.13,1.64
				c0.65,0.13,1.31,0.09,1.97,0.08c4.49-0.12,9.06,0.63,13.43-0.39c1.35-0.32,2.66-0.8,3.95-1.3c1.16-0.45,2.33-0.94,3.29-1.73
				c1.41-1.15,2.03-2.74,1.45-4.5c-0.15-0.46-0.33-0.92-0.45-1.4c-0.2-0.79-0.4-1.58-0.59-2.37c-0.81-3.23-1.61-6.46-2.42-9.69
				c-0.44-1.76-0.88-3.53-1.47-5.25c-0.47-1.36-1.02-2.68-1.59-4c-1.21-2.81-2.49-5.59-3.81-8.35c-1.29-2.68-2.03-5.67-2.95-8.5
				c-0.45-1.38-0.9-2.76-1.39-4.13c-0.96-2.66-2.06-5.29-3.57-7.69c-0.76-1.2-1.64-2.26-2.56-3.33c-0.9-1.04-1.79-2.18-2.96-2.95
				c-2.56-1.67-5.54-2.62-8.41-3.61c-4.81-1.66-9.59-3.4-14.34-5.23c-0.27-0.1-0.55-0.21-0.75-0.42c-0.15-0.16-0.25-0.37-0.33-0.58
				c-0.43-1.03-0.76-2.11-1.24-3.12c-0.49-1.01-1.16-1.97-2.12-2.55c-1.56-0.94-3.18-1.69-5.03-1.74c-0.42-0.01-0.84,0.08-1.25,0.17
				c-4.66,1.04-9.32,2.09-13.97,3.13c-2.1,0.47-4.21,0.94-6.26,1.58c-1.77,0.55-4.06,1.15-5.4,2.5c-0.46,0.46-0.74,1.05-1.04,1.63
				c-0.5,0.96-1.05,1.88-1.65,2.77c-0.36,0.53-0.74,1.05-1.25,1.44c-0.34,0.26-0.73,0.46-1.11,0.65c-1.31,0.66-2.63,1.31-3.95,1.95
				c-5.38,2.6-11.08,4.8-15.23,9.29c-2.11,2.28-4.04,5.02-4.95,8.02c-0.15,0.51-0.28,1.03-0.45,1.53c-0.21,0.6-0.48,1.18-0.75,1.75
				c-0.86,1.81-1.71,3.62-2.75,5.33c-0.44,0.73-0.91,1.34-1.14,2.16c-0.28,0.96-0.85,1.92-1.32,2.8c-0.61,1.14-1.29,2.26-2.09,3.28
				c-0.36,0.46-0.76,0.89-1.11,1.34c-0.35,0.46-0.84,0.76-1.27,1.14c-1.68,1.48-2.61,3.89-3.22,5.99
				C12.17,71.69,11.89,72.89,11.65,74.09z"/>
			<path class="st2" d="M125.94,85.2c-0.2-0.3-0.41-0.59-0.64-0.86c-0.21-0.25-0.56-0.77-0.86-0.9c-0.28-0.12-0.64,0.04-0.94,0.09
				c-0.51,0.09-1.02,0.06-1.53,0.06c-2.79,0.03-5.99,0.86-8.28,2.51c-0.84,0.61-1.57,1.36-2.28,2.11c0.06-0.76,0.86-1.77,1.36-2.33
				c0.59-0.67,1.33-1.2,2.12-1.61c1.4-0.73,2.96-1.11,4.48-1.56c0.76-0.23,4.01-0.93,4.1-1.65c0.05-0.4-0.39-1.17-0.53-1.53
				c-0.3-0.72-0.6-1.45-0.9-2.17c-0.54-1.3-0.82-2.7-2.08-3.54c-1.51-0.75-3.05-0.8-4.61-1.32c-0.42-0.14-0.88-0.31-1.11-0.69
				c1.8-0.26,3.66-0.12,5.4,0.42c0.12,0.04,0.21,0.04,0.27-0.07c-0.2-0.34-0.31-0.74-0.49-1.09c-0.28-0.54-0.5-1.1-0.77-1.63
				c-0.48-0.93-0.93-1.88-1.43-2.79c-0.42-0.76-0.6-1.41-0.82-2.22c-0.44-1.56-1.25-3.29-2.55-4.31c-0.87-0.69-1.86-1.22-2.72-1.92
				c-1.86-1.53-2.99-3.76-4.19-5.85c-3.44-6.01-7.88-11.39-12.49-16.57c-0.98-1.1-1.98-2.21-3.13-3.14c-0.8-0.65-1.79-1.1-2.51-1.83
				c-0.64-0.64-1.23-1.16-2.02-1.64c-0.71-0.44-1.46-0.82-2.22-1.15c-0.6-0.26-1.67-0.89-2.29-0.52c-0.73,0.43-1.47,0.86-2.2,1.29
				c-0.25,0.15-0.54,0.37-0.49,0.66c0.02,0.12,0.1,0.22,0.18,0.31c1.12,1.37,2.16,2.84,3.18,4.3c2.14,3.06,4.03,6.32,5.21,9.87
				c1.31,3.95,2.37,7.99,3.35,12.03c0.23,0.93,0.45,1.86,0.67,2.79c0.11,0.46,0.22,0.93,0.33,1.39c0.1,0.42,0.31,0.8,0.38,1.24
				c0.03,0.2,0.05,0.41,0.12,0.61c0.13,0.35,0.42,0.6,0.7,0.86c1.26,1.17,2.3,2.56,3.34,3.94c-1.08-0.77-2.22-1.46-3.39-2.08
				c0.24,2.04,0.77,4.06,1.14,6.08c0.06,0.35,0.1,0.71,0.23,1.04c0.29,0.72,1.02,1.15,1.66,1.58c1.08,0.72,2.06,1.6,2.89,2.6
				c-0.36,0.01-0.7-0.14-1.02-0.3c-0.92-0.44-1.8-0.96-2.64-1.53c-0.16-0.11-0.32-0.22-0.51-0.25c0.19,1.04,0.27,2.08,0.43,3.13
				c0.09,0.59,0.17,1.18,0.25,1.76c0.32,2.41,0.68,4.87,1.59,7.14c1,2.51,2.73,4.13,4.7,5.91c1-0.86,1.47-2.19,1.64-3.5
				s0.09-2.64,0.2-3.95c0.01-0.16,0.08-0.37,0.24-0.37c0.12,0,0.21,0.12,0.27,0.23c1.63,2.98,4.05,5.43,6.44,7.85
				c0.65,0.66,1.33,1.33,2.2,1.63c0.21,0.07,0.46,0.12,0.64-0.02c0.14-0.1,0.19-0.29,0.24-0.45c0.64-2.05,2.65-3.31,4.56-4.28
				c0.56-0.28,1.12-0.56,1.71-0.76c1.85-0.62,3.89-0.48,5.75-1.11c0.22-0.08,0.48-0.22,0.48-0.45c0-0.08-0.03-0.16-0.07-0.23
				C126.43,86.01,126.2,85.59,125.94,85.2z"/>
			<path class="st2" d="M53.72,31.08c-0.47-0.49-0.94-0.97-1.41-1.46c-1.56,0.81-3.12,1.61-4.65,2.48
				c-5.73,3.24-11.46,6.84-15.21,12.4c-1.35,2-2.49,4.14-3.41,6.37c-0.83,2.02-2,4.61-1.83,6.84c0.03,0.38,0.15,0.75,0.25,1.13
				c0.31,1.15,0.46,2.35,0.44,3.54c-0.35-0.52-0.74-1.01-1.16-1.48c-0.11-0.12-0.28-0.24-0.41-0.16c-0.08,0.05-0.1,0.16-0.12,0.25
				c-0.14,0.78-0.43,1.45-0.6,2.2c-0.21,0.93-0.27,1.93-0.35,2.89c-0.16,1.93-0.21,3.88-0.25,5.82c-0.04,2.33-0.07,4.67-0.27,6.99
				c-0.19,2.15-0.8,4.28-0.86,6.42c-0.01,0.24,0,0.48,0,0.72c0,1.68-0.18,3.36-0.42,5.02c-0.27-1.38-0.39-2.79-0.35-4.2
				c-0.28,0.14-0.38,0.71-0.51,0.98c-0.22,0.45-0.45,0.9-0.71,1.33c-0.79,1.32-1.77,2.41-2.03,3.96c-0.3,1.75,0.06,3.62,0.08,5.39
				c0,0.53,0.05,1.05,0.02,1.58c-0.01,0.24-0.01,0.4-0.11,0.63c-0.11,0.24-0.25,0.47-0.43,0.67c-0.06,0.08-0.14,0.15-0.22,0.19
				s-0.17,0.05-0.25,0.06c-0.68,0.07-1.49-0.09-2.08-0.42c-0.67-0.38-1.39-0.68-2.14-0.87c-0.05-0.01-0.11-0.03-0.17-0.01
				c-0.1,0.03-0.15,0.15-0.13,0.25c0.03,0.18,0.14,0.43,0.22,0.6c0.1,0.23,0.23,0.44,0.37,0.64c0.28,0.4,0.62,0.75,0.96,1.09
				c0.33,0.33,0.7,0.62,1.1,0.86c0.39,0.23,0.77,0.29,1.19,0.43c0.22,0.07,0.45,0.13,0.68,0.16c1.86,0.25,3.28-1.07,4.5-2.26
				c1.06-1.03,2.85-2.23,2.98-3.84c0.03-0.34,0-0.7-0.06-1.06c0.5-3.06,1.1-6.12,1.71-9.19c1.03-1.35,1.49-3.04,1.88-4.71
				c0.63-2.7,1.12-5.41,1.52-8.15c0.83-5.78,1.68-11.54,3.28-17.17c1.39-4.89,3.42-9.66,6.44-13.78c1.76-2.35,3.89-4.34,6.15-6.2
				c2.3-1.88,4.59-3.76,6.91-5.6c0.14-0.11,0.29-0.25,0.27-0.42c-0.01-0.12-0.1-0.21-0.18-0.29C54.14,31.51,53.93,31.3,53.72,31.08z
				"/>
			<path class="st3" d="M136.74,79.04c-0.09-0.28-0.23-0.57-0.37-0.83c-0.04-0.07-0.08-0.15-0.12-0.22c0.2-0.63-0.11-1.44-0.82-1.58
				c-0.89-0.18-1.79-0.24-2.7-0.32c-0.82-0.07-1.67-0.17-2.44,0.2c-0.77,0.38-1.12,1.23-0.86,2.06c0.06,0.18,0.13,0.33,0.21,0.48
				c0.06,0.41,0.17,0.82,0.29,1.16c0.47,1.25,1.96,1.34,3.11,1.41c1.06,0.06,2.77,0.22,3.5-0.72
				C136.9,80.2,136.9,79.59,136.74,79.04z"/>
			<path class="st4" d="M135.07,78.96c-0.05-0.02-0.08-0.04-0.12-0.08l0,0c0.03-0.03,0.06-0.06,0.09-0.09
				c0.21-0.18-0.01-0.57-0.27-0.47c-0.07,0.03-0.13,0.06-0.19,0.11c-0.08-0.06-0.18-0.08-0.29-0.01c-0.13,0.09-0.27,0.16-0.41,0.24
				c-0.02,0.01-0.04,0.03-0.06,0.04c0.01-0.08,0.03-0.16,0.05-0.23c0.09-0.27-0.29-0.49-0.48-0.28c-0.16,0.18-0.34,0.35-0.52,0.51
				c-0.27-0.19-0.56-0.37-0.86-0.53c-0.05-0.03-0.1-0.03-0.14-0.03c-0.04-0.01-0.08-0.01-0.12,0.01c-0.02,0.01-0.05,0.03-0.06,0.05
				v0.01c-0.11,0.12-0.13,0.32,0.05,0.42c0.06,0.04,0.12,0.08,0.18,0.12c0.06,0.09,0.12,0.18,0.18,0.27
				c0.08,0.13,0.16,0.34,0.3,0.43c0.14,0.08,0.4,0.04,0.56,0.04c0.35,0.01,0.69,0.03,1.03,0.1c0.2,0.04,0.36,0.08,0.56,0.03
				c0.17-0.04,0.34-0.09,0.52-0.14C135.35,79.43,135.32,79.06,135.07,78.96z"/>
			<path class="st4" d="M135.97,80.17c-0.21-0.05-0.44,0-0.65,0c-0.22,0-0.44-0.02-0.66-0.05c-0.19-0.03-0.36,0.08-0.37,0.28
				c0-0.09-0.2-0.06-0.27-0.07c-0.1-0.01-0.21-0.02-0.31-0.03c-0.23-0.02-0.46-0.04-0.7-0.05c-0.22-0.01-0.44-0.03-0.66-0.03
				c-0.18,0.01-0.38,0-0.53,0.11c-0.04,0.03-0.03,0.09,0,0.12c0.16,0.19,0.54,0.22,0.77,0.26c0.29,0.05,0.59,0.09,0.88,0.12
				c0.38,0.05,1.01,0.19,1.27-0.12c0.17,0.03,0.35,0.04,0.53,0.05c0.25,0.01,0.53,0.02,0.76-0.1
				C136.24,80.56,136.19,80.23,135.97,80.17z"/>
			<path class="st5" d="M62.74,28.91c-0.09-0.27-0.28-0.54-0.54-0.67c-0.14-0.07-0.29-0.1-0.45-0.1c-0.15-0.07-0.33-0.09-0.5-0.02
				c-0.3,0.12-0.45,0.42-0.49,0.73c-0.05,0.18-0.08,0.36-0.09,0.54c-0.01,0.26,0.05,0.51,0.21,0.71c0.11,0.14,0.28,0.25,0.46,0.28
				c0.02,0.01,0.04,0.03,0.06,0.03c0.05,0.01,0.1,0.01,0.15,0.01c0.08,0.08,0.18,0.14,0.29,0.17c0.29,0.08,0.57-0.06,0.73-0.3
				c0.08-0.12,0.12-0.27,0.15-0.4C62.79,29.57,62.84,29.22,62.74,28.91z"/>
			<path class="st5" d="M63.27,37.45c0-0.13-0.03-0.26-0.07-0.39c-0.02-0.06-0.05-0.13-0.09-0.19c-0.01-0.02-0.02-0.03-0.03-0.04
				c-0.08-0.11-0.1-0.13-0.05-0.07s0.03,0.04-0.05-0.07c-0.13-0.15-0.3-0.25-0.48-0.32c-0.12-0.12-0.25-0.22-0.41-0.28
				c-0.5-0.19-1.01,0.13-1.28,0.54c-0.2,0.3-0.28,0.69-0.24,1.04c0.04,0.42,0.2,0.8,0.51,1.09c0.37,0.35,0.97,0.56,1.41,0.23
				l0.01-0.01c0.03-0.02,0.06-0.04,0.09-0.07c0.01-0.01,0.01-0.02,0.02-0.03c0.11-0.01,0.21-0.04,0.3-0.09
				c0.26-0.16,0.37-0.43,0.36-0.72c0-0.11-0.01-0.23-0.01-0.34C63.26,37.65,63.27,37.55,63.27,37.45z"/>
			<path class="st5" d="M63.11,44.6c-0.1-0.23-0.28-0.39-0.49-0.48c-0.03-0.02-0.05-0.03-0.08-0.04c-0.01,0-0.02-0.01-0.02-0.01
				c-0.12-0.05-0.25-0.08-0.39-0.07c-0.03,0-0.05,0.01-0.07,0.02c-0.03,0-0.07,0.01-0.1,0.01c-0.18-0.02-0.35,0.02-0.51,0.1
				c-0.21,0.06-0.4,0.17-0.55,0.33c-0.4,0.43-0.42,1.06-0.19,1.58c0,0.01,0,0.02,0.01,0.03c0.07,0.2,0.19,0.4,0.35,0.55
				c0.05,0.08,0.11,0.16,0.18,0.22c0.32,0.3,0.82,0.42,1.21,0.21c0.08-0.02,0.16-0.04,0.24-0.09c0.38-0.24,0.47-0.74,0.52-1.15
				C63.27,45.4,63.28,44.98,63.11,44.6z"/>
			<path d="M61.44,44.85c-0.33,0-0.33,0.51,0,0.51C61.77,45.36,61.77,44.85,61.44,44.85z"/>
			<path d="M62.32,45.72c-0.37,0-0.37,0.58,0,0.58C62.69,46.3,62.7,45.72,62.32,45.72z"/>
			<path d="M61.47,37.06c-0.41,0-0.41,0.64,0,0.64S61.88,37.06,61.47,37.06z"/>
			<path d="M62.67,38.15c-0.01-0.05-0.04-0.1-0.08-0.13c-0.02-0.02-0.04-0.03-0.06-0.05c-0.05-0.03-0.1-0.04-0.15-0.04
				c-0.04,0-0.08,0.01-0.12,0.03c-0.04,0.01-0.07,0.03-0.1,0.06c-0.03,0.03-0.05,0.06-0.06,0.1c-0.02,0.04-0.03,0.08-0.03,0.12
				c0,0.03,0.01,0.05,0.01,0.08c0.01,0.05,0.04,0.1,0.08,0.13c0.02,0.02,0.04,0.03,0.06,0.05c0.05,0.03,0.1,0.04,0.15,0.04
				c0.04,0,0.08-0.01,0.12-0.03c0.04-0.01,0.07-0.03,0.1-0.06c0.03-0.03,0.05-0.06,0.06-0.1c0.02-0.04,0.03-0.08,0.03-0.12
				C62.67,38.2,62.67,38.18,62.67,38.15z"/>
			<path d="M61.25,28.71c-0.31,0-0.31,0.49,0,0.49C61.57,29.2,61.57,28.71,61.25,28.71z"/>
			<path d="M61.82,29.43c-0.22,0-0.22,0.34,0,0.34C62.04,29.76,62.04,29.43,61.82,29.43z"/>
			
				<linearGradient id="SVGID_1_" gradientUnits="userSpaceOnUse" x1="62.7962" y1="107.9984" x2="62.1735" y2="122.9447" gradientTransform="matrix(1 0 0 -1 0 149.8898)">
				<stop  offset="0" style="stop-color:#000000"/>
				<stop  offset="0.0904" style="stop-color:#0B0000;stop-opacity:0.9096"/>
				<stop  offset="0.2496" style="stop-color:#280000;stop-opacity:0.7504"/>
				<stop  offset="0.4588" style="stop-color:#580000;stop-opacity:0.5412"/>
				<stop  offset="0.7099" style="stop-color:#9B0000;stop-opacity:0.2901"/>
				<stop  offset="0.994" style="stop-color:#EE0000;stop-opacity:6.035566e-03"/>
				<stop  offset="1" style="stop-color:#F00000;stop-opacity:0"/>
			</linearGradient>
			<path class="st6" d="M58.81,31.24c-0.04,0.19-0.08,0.39-0.07,0.59c0.01,0.27,0.1,0.53,0.2,0.79c0.12,0.35,0.25,0.7,0.37,1.04
				c0.05,0.14,0.1,0.29,0.21,0.4c0.08,0.09,0.19,0.15,0.3,0.21c0.84,0.46,1.76,0.91,2.71,0.81c0.61-0.06,1.17-0.33,1.7-0.65
				c0.54-0.33,1.06-0.7,1.54-1.11c0.11-0.09,0.21-0.19,0.26-0.32c0.08-0.22-0.04-0.46-0.15-0.66c-1.45-2.61-2.77-5.29-3.97-8.03
				c-0.08-0.19-0.21-0.4-0.41-0.4c-0.31,0.01-0.64,0.87-0.73,1.12c-0.24,0.66-0.31,1.41-0.54,2.08
				C59.74,28.5,59.12,29.82,58.81,31.24z"/>
			
				<linearGradient id="SVGID_00000173870425941881258840000017803421267580297616_" gradientUnits="userSpaceOnUse" x1="75.2827" y1="107.2915" x2="60.614" y2="108.6425" gradientTransform="matrix(1 0 0 -1 0 149.8898)">
				<stop  offset="0" style="stop-color:#000000"/>
				<stop  offset="0.0904" style="stop-color:#0B0000;stop-opacity:0.9096"/>
				<stop  offset="0.2496" style="stop-color:#280000;stop-opacity:0.7504"/>
				<stop  offset="0.4588" style="stop-color:#580000;stop-opacity:0.5412"/>
				<stop  offset="0.7099" style="stop-color:#9B0000;stop-opacity:0.2901"/>
				<stop  offset="0.994" style="stop-color:#EE0000;stop-opacity:6.035566e-03"/>
				<stop  offset="1" style="stop-color:#F00000;stop-opacity:0"/>
			</linearGradient>
			<path style="fill:url(#SVGID_00000173870425941881258840000017803421267580297616_);" d="M65.69,36.58
				c-0.76,2.69-1,5.53-0.72,8.32c0.1,0.96,0.26,1.94,0.03,2.88s-0.99,1.82-1.96,1.85c0.54,0.19,1.13,0.09,1.69,0
				c0.72-0.12,1.52-0.3,1.9-0.92c0.13-0.22,0.19-0.48,0.24-0.73c0.36-2.03-0.13-4.12,0.09-6.17c0.1-0.93,0.34-1.83,0.55-2.74
				c0.2-0.89,0.36-1.8,0.49-2.7c0.05-0.35,0.1-0.71,0.03-1.06c-0.1-0.53-1.07-2.14-1.67-1.62c-0.28,0.24-0.21,1.09-0.28,1.43
				C65.99,35.59,65.83,36.08,65.69,36.58z"/>
			
				<linearGradient id="SVGID_00000085960585120960124430000007582616975205515161_" gradientUnits="userSpaceOnUse" x1="72.1767" y1="96.9362" x2="61.4968" y2="96.8075" gradientTransform="matrix(1 0 0 -1 0 149.8898)">
				<stop  offset="0" style="stop-color:#000000"/>
				<stop  offset="0.0904" style="stop-color:#0B0000;stop-opacity:0.9096"/>
				<stop  offset="0.2496" style="stop-color:#280000;stop-opacity:0.7504"/>
				<stop  offset="0.4588" style="stop-color:#580000;stop-opacity:0.5412"/>
				<stop  offset="0.7099" style="stop-color:#9B0000;stop-opacity:0.2901"/>
				<stop  offset="0.994" style="stop-color:#EE0000;stop-opacity:6.035566e-03"/>
				<stop  offset="1" style="stop-color:#F00000;stop-opacity:0"/>
			</linearGradient>
			<path style="fill:url(#SVGID_00000085960585120960124430000007582616975205515161_);" d="M60.03,50.61
				c0.35,0.34,0.87,0.4,1.35,0.44c0.93,0.08,1.85,0.16,2.78,0.23c0.14,0.01,0.28,0.03,0.4,0.1c0.22,0.14,0.25,0.43,0.27,0.69
				c0.02,0.5,0.02,1-0.01,1.5c-0.01,0.22-0.03,0.45-0.13,0.65c-0.16,0.35-0.5,0.57-0.84,0.76c-1.25,0.7-2.62,1.19-4.04,1.45
				c1.42,0.13,2.84,0.26,4.26,0.39c0.28,0.03,0.56,0.05,0.83-0.02c0.3-0.08,0.56-0.29,0.77-0.52c0.66-0.72,0.99-1.69,1.1-2.66
				c0.1-0.97,0-1.95-0.1-2.92c-0.03-0.32-0.09-0.69-0.37-0.86c-0.17-0.11-0.39-0.11-0.59-0.11c-1.45-0.01-2.89-0.12-4.33-0.31
				c-0.38-0.05-1.04-0.27-1.37,0.02C59.68,49.73,59.74,50.33,60.03,50.61z"/>
			
				<linearGradient id="SVGID_00000027570262665590415540000004162999626448643205_" gradientUnits="userSpaceOnUse" x1="58.0431" y1="123.4305" x2="52.2528" y2="113.8443" gradientTransform="matrix(1 0 0 -1 0 149.8898)">
				<stop  offset="0" style="stop-color:#000000"/>
				<stop  offset="0.0904" style="stop-color:#0B0000;stop-opacity:0.9096"/>
				<stop  offset="0.2496" style="stop-color:#280000;stop-opacity:0.7504"/>
				<stop  offset="0.4588" style="stop-color:#580000;stop-opacity:0.5412"/>
				<stop  offset="0.7099" style="stop-color:#9B0000;stop-opacity:0.2901"/>
				<stop  offset="0.994" style="stop-color:#EE0000;stop-opacity:6.035566e-03"/>
				<stop  offset="1" style="stop-color:#F00000;stop-opacity:0"/>
			</linearGradient>
			<path style="fill:url(#SVGID_00000027570262665590415540000004162999626448643205_);" d="M50.06,27.76
				c-0.08,0.73,0.12,1.45,0.31,2.15c0.28,1.04,0.58,2.1,1.22,2.96c1.18,1.58,3.26,2.16,4.76,3.43c0.71,0.6,1.32,1.39,2.21,1.69
				c0.23-1.99,0.25-4,0.08-6c-0.53,0-0.73,0.76-1.22,0.94c-0.3,0.11-0.64-0.02-0.93-0.17c-2.11-1.09-3.74-3.08-4.37-5.37
				c-0.17-0.6-0.28-1.51-1.09-1.24C50.44,26.35,50.12,27.21,50.06,27.76z"/>
			
				<linearGradient id="SVGID_00000080929338283075312770000015623286783413867152_" gradientUnits="userSpaceOnUse" x1="76.2433" y1="125.7591" x2="81.7119" y2="114.5645" gradientTransform="matrix(1 0 0 -1 0 149.8898)">
				<stop  offset="0" style="stop-color:#000000"/>
				<stop  offset="0.0904" style="stop-color:#0B0000;stop-opacity:0.9096"/>
				<stop  offset="0.2496" style="stop-color:#280000;stop-opacity:0.7504"/>
				<stop  offset="0.4588" style="stop-color:#580000;stop-opacity:0.5412"/>
				<stop  offset="0.7099" style="stop-color:#9B0000;stop-opacity:0.2901"/>
				<stop  offset="0.994" style="stop-color:#EE0000;stop-opacity:6.035566e-03"/>
				<stop  offset="1" style="stop-color:#F00000;stop-opacity:0"/>
			</linearGradient>
			<path style="fill:url(#SVGID_00000080929338283075312770000015623286783413867152_);" d="M72.71,32.48
				c3.78-1.67,7.62-3.38,10.78-6.04c0.65-0.55,1.27-1.14,1.93-1.69c0.59-0.49,1.2-0.94,1.82-1.4c1.17-0.86,2.34-1.73,3.52-2.59
				c-3.31,4.87-8.27,8.29-12.73,12.13c-1.45,1.25-2.87,2.56-4.51,3.54c-1.73,1.04-3.66,1.69-5.57,2.33c-0.29,0.1-0.72,0.13-0.8-0.17
				c-0.04-0.16,0.05-0.31,0.14-0.45c0.37-0.6,0.6-1.29,0.68-1.99c0.06-0.53-0.13-1.2,0.25-1.63c0.43-0.47,1.5-0.72,2.08-0.97
				C71.1,33.19,71.9,32.83,72.71,32.48z"/>
			
				<linearGradient id="SVGID_00000123418041511818229310000011501877892645289121_" gradientUnits="userSpaceOnUse" x1="122.4812" y1="40.9689" x2="89.7175" y2="46.8629" gradientTransform="matrix(1 0 0 -1 0 149.8898)">
				<stop  offset="0" style="stop-color:#000000"/>
				<stop  offset="0.0904" style="stop-color:#0B0000;stop-opacity:0.9096"/>
				<stop  offset="0.2496" style="stop-color:#280000;stop-opacity:0.7504"/>
				<stop  offset="0.4588" style="stop-color:#580000;stop-opacity:0.5412"/>
				<stop  offset="0.7099" style="stop-color:#9B0000;stop-opacity:0.2901"/>
				<stop  offset="0.994" style="stop-color:#EE0000;stop-opacity:6.035566e-03"/>
				<stop  offset="1" style="stop-color:#F00000;stop-opacity:0"/>
			</linearGradient>
			<path style="fill:url(#SVGID_00000123418041511818229310000011501877892645289121_);" d="M102.8,92
				c0.24-0.97,0.52-1.94,0.81-2.96c0.4-1.38,0.6-2.81,0.61-4.24c0-0.61-0.03-1.23-0.22-1.81c-0.18-0.55-0.49-1.05-0.8-1.54
				c-1.05-1.68-2.1-3.36-3.14-5.04c-0.1-0.16-0.21-0.32-0.39-0.38c-0.44-0.14-0.7,0.47-0.78,0.92c-0.25,1.44-0.79,2.83-1.59,4.05
				c-0.21,0.33-0.45,0.68-0.42,1.07c0.03,0.27,0.18,0.5,0.32,0.73c0.53,0.89,0.87,1.94,0.77,2.98c-0.1,1.04-0.68,2.05-1.61,2.52
				c-1.82,0.92-3.95-0.48-5.99-0.45c0.53,2.12,1.06,4.24,1.58,6.36c0.13,0.54,0.27,1.1,0.18,1.64c-0.23,1.38-1.73,2.1-2.72,3.09
				c-2.96,2.95-0.69,8.25-0.29,11.77c0.09,0.78,0.15,1.65-0.34,2.26c-0.71,0.88-2.09,0.69-3.13,1.12c-1.22,0.5-1.87,1.8-2.59,2.91
				c-0.76,1.18-1.68,2.23-2.6,3.28c-1.46,1.67-2.92,3.33-4.56,4.82c-0.46,0.41-0.96,0.87-1.04,1.48c-0.27,2,2.4,1.45,2.86,3.08
				c3.87-0.32,7.78-0.13,11.59,0.58c1.9,0.35,3.79,0.83,5.72,1c1.95,0.17,4.22-0.13,5.28-1.77c0.46-0.71,0.61-1.57,0.75-2.41
				c1.57-9.6,1.95-19.39,1.15-29.08C102.05,95.82,102.33,93.93,102.8,92z"/>
			
				<linearGradient id="SVGID_00000007391511986585424360000002074667517219582354_" gradientUnits="userSpaceOnUse" x1="129.1391" y1="102.7633" x2="103.1039" y2="90.0071" gradientTransform="matrix(1 0 0 -1 0 149.8898)">
				<stop  offset="0" style="stop-color:#000000"/>
				<stop  offset="0.0905" style="stop-color:#0B0000;stop-opacity:0.9121"/>
				<stop  offset="0.2499" style="stop-color:#280000;stop-opacity:0.7575"/>
				<stop  offset="0.4591" style="stop-color:#580000;stop-opacity:0.5544"/>
				<stop  offset="0.7075" style="stop-color:#9A0000;stop-opacity:0.3134"/>
				<stop  offset="0.8992" style="stop-color:#D10000;stop-opacity:0.1273"/>
				<stop  offset="1" style="stop-color:#F00000;stop-opacity:0"/>
			</linearGradient>
			<path style="fill:url(#SVGID_00000007391511986585424360000002074667517219582354_);" d="M82.99,29.21
				c1.48,1.98,3.25,3.72,4.88,5.58c4.38,4.99,7.72,10.81,10.42,16.87c1.47,3.29,3.21,6.65,4.42,10.04c0.97,2.72,3.82,4.23,4.79,6.97
				c0.14,0.4,0.24,0.85,0.1,1.25c-0.32,0.97-1.72,1.25-2,2.24c-0.2,0.73,0.32,1.43,0.74,2.06c1.8,2.71,2.1,6.13,3.41,9.11
				c1.05,2.39,2.74,4.43,4.4,6.45c1.27-1.35,3.16-1.89,4.98-2.24c3.56-0.7,7.21-0.91,10.82-0.64c0.37,0.03,0.79,0.05,1.08-0.2
				c0.51-0.44,0.14-1.29-0.34-1.77c-0.97-0.95-2.33-1.55-2.98-2.73c-0.52-0.93-0.5-2.05-0.76-3.09c-0.32-1.26-1.06-2.4-2.07-3.2
				c-0.97-0.76-2.21-1.26-2.83-2.32c1.05-1.24,1.83-2.7,2.29-4.26c0.06-0.22,0.12-0.46,0.04-0.68c-0.06-0.18-0.21-0.31-0.36-0.43
				c-1.9-1.57-4.52-2.22-6.09-4.12c-0.86-1.04-1.31-2.34-2.03-3.48c-1.3-2.05-3.42-3.46-4.83-5.43c-0.12-0.17-0.25-0.37-0.2-0.58
				c0.11-0.44,0.76-0.35,1.19-0.19s1.14,0.04,1.04-0.41c-0.02-0.09-0.07-0.17-0.13-0.24c-1.05-1.48-2.24-2.87-3.18-4.44
				c-1.12-1.68-2.22-3.43-3.76-4.74c-2.49-2.12-6.16-3.15-7.48-6.14c-0.47-1.06-0.56-2.24-0.93-3.34c-0.81-2.38-3.91-3.26-6.03-4.22
				C88.9,29.67,85.96,28.77,82.99,29.21z"/>
			
				<linearGradient id="SVGID_00000123406012924422763940000009278490240988487351_" gradientUnits="userSpaceOnUse" x1="2.6703" y1="103.9136" x2="41.8887" y2="88.7786" gradientTransform="matrix(1 0 0 -1 0 149.8898)">
				<stop  offset="0" style="stop-color:#000000"/>
				<stop  offset="0.0905" style="stop-color:#0B0000;stop-opacity:0.9121"/>
				<stop  offset="0.2499" style="stop-color:#280000;stop-opacity:0.7575"/>
				<stop  offset="0.4591" style="stop-color:#580000;stop-opacity:0.5544"/>
				<stop  offset="0.7075" style="stop-color:#9A0000;stop-opacity:0.3134"/>
				<stop  offset="0.8992" style="stop-color:#D10000;stop-opacity:0.1273"/>
				<stop  offset="1" style="stop-color:#F00000;stop-opacity:0"/>
			</linearGradient>
			<path style="fill:url(#SVGID_00000123406012924422763940000009278490240988487351_);" d="M49.69,29.72
				c-2.51,2.31-5.87,3.45-8.78,5.17c-2.69,1.6-5.35,3.26-7.96,4.99c-0.95,0.63-1.91,1.27-2.69,2.1c-0.83,0.88-1.43,1.96-1.92,3.06
				c-2.48,5.6-2.25,12.06-4.44,17.77c-0.28,0.74-0.64,1.5-1.28,1.96c-0.54,0.39-1.24,0.53-1.74,0.97c-0.86,0.76-0.81,2.09-0.69,3.24
				c0.47,4.48,0.93,8.96,1.4,13.44c0.2,1.9,0.4,3.81,0.96,5.63c1.49-1.18,0.82-3.82,2.18-5.15c0.28-0.27,0.62-0.47,0.88-0.76
				c0.44-0.51,0.54-1.22,0.61-1.89c0.69-6,1.56-11.98,2.61-17.93c0.21-1.17,0.44-2.38,1.09-3.38c0.82-1.26,2.29-2.16,2.59-3.64
				c0.16-0.75-0.03-1.53-0.01-2.29c0.04-1.88,1.25-3.5,2.43-4.97c3.75-4.65,7.77-9.14,12.55-12.71c0.94-0.7,1.93-1.4,2.51-2.41
				C50.57,31.92,50.58,30.47,49.69,29.72z"/>
			
				<linearGradient id="SVGID_00000076579789359263705170000013633062494315688322_" gradientUnits="userSpaceOnUse" x1="-8.1358" y1="55.1596" x2="55.4085" y2="64.533" gradientTransform="matrix(1 0 0 -1 0 149.8898)">
				<stop  offset="0" style="stop-color:#000000"/>
				<stop  offset="0.0905" style="stop-color:#0B0000;stop-opacity:0.9121"/>
				<stop  offset="0.2499" style="stop-color:#280000;stop-opacity:0.7575"/>
				<stop  offset="0.4591" style="stop-color:#580000;stop-opacity:0.5544"/>
				<stop  offset="0.7075" style="stop-color:#9A0000;stop-opacity:0.3134"/>
				<stop  offset="0.8992" style="stop-color:#D10000;stop-opacity:0.1273"/>
				<stop  offset="1" style="stop-color:#F00000;stop-opacity:0"/>
			</linearGradient>
			<path style="fill:url(#SVGID_00000076579789359263705170000013633062494315688322_);" d="M25.4,132.12c0,0.36,0,0.74,0.17,1.05
				c0.38,0.73,1.38,0.81,2.2,0.79c9.4-0.25,18.78-1.24,28.03-2.95c0.8-0.15,1.7-0.37,2.1-1.09c0.42-0.76,0.06-1.7-0.37-2.46
				c-1.34-2.4-3.31-4.47-4.25-7.06c-0.32-0.87-0.26-1.85-0.56-2.68c-0.39-1.1-1.53-2.13-2.24-3.04c-1.8-2.31-3.6-4.61-5.39-6.92
				c-0.58-0.74-1.16-1.49-1.49-2.37c-0.33-0.88-0.36-1.92,0.13-2.71c0.86-1.38,2.78-1.46,4.32-1.95c0.41-0.13,0.84-0.33,1.04-0.7
				c0.37-0.68-0.17-1.49-0.71-2.05c-1.72-1.79-3.79-3.34-4.94-5.54c-0.49-0.94-0.81-2.03-0.56-3.07c0.38-1.59,1.94-2.57,2.98-3.83
				c1.69-2.04,2.03-4.85,2.31-7.48c0.06-0.55,0.11-1.11-0.01-1.65c-0.13-0.55-0.44-1.04-0.74-1.52c-1.22-1.93-2.53-3.83-3.52-5.86
				c-0.5-1.02-1-2.15-1.85-2.92c-0.64-0.58-1.32-0.82-1.8-1.59c-1.23-1.96-1.03-4.88,0.14-6.8c1.4-2.32,3.99-3.58,6.24-5.08
				c2.25-1.51,4.44-3.78,4.22-6.48c-3.07,0.49-6.62,2.22-9.49,0.27c-0.17-0.12-0.34-0.25-0.44-0.43c-0.15-0.28-0.09-0.63-0.02-0.94
				c0.29-1.26,0.75-2.47,1.39-3.6c-1.28,1.35-2.55,2.7-3.83,4.06c-0.95,1.01-1.91,2.03-2.63,3.22c-0.86,1.44-1.33,3.05-1.98,4.59
				c-0.64,1.53-1.59,2.53-2.49,3.84c-1.79,2.6-1.75,6.53-1.87,9.55c-0.26,6.32-0.48,12.73-1.51,18.94
				c-1.73,10.43-1.86,20.94-2.27,31.46C25.53,122.11,25.42,127.11,25.4,132.12z"/>
			
				<linearGradient id="SVGID_00000168837074363955712810000002304899729228008609_" gradientUnits="userSpaceOnUse" x1="81.4583" y1="117.8463" x2="76.2756" y2="127.8879" gradientTransform="matrix(1 0 0 -1 0 149.8898)">
				<stop  offset="0" style="stop-color:#000000"/>
				<stop  offset="0.0904" style="stop-color:#0B0000;stop-opacity:0.9096"/>
				<stop  offset="0.2496" style="stop-color:#280000;stop-opacity:0.7504"/>
				<stop  offset="0.4588" style="stop-color:#580000;stop-opacity:0.5412"/>
				<stop  offset="0.7099" style="stop-color:#9B0000;stop-opacity:0.2901"/>
				<stop  offset="0.994" style="stop-color:#EE0000;stop-opacity:6.035566e-03"/>
				<stop  offset="1" style="stop-color:#F00000;stop-opacity:0"/>
			</linearGradient>
			<path style="fill:url(#SVGID_00000168837074363955712810000002304899729228008609_);" d="M71.15,22.77
				c2.24-0.52,4.42-1.3,6.56-2.14c1.89-0.74,3.77-1.53,5.51-2.58c0.77-0.47,1.58-1.07,1.77-1.95c0.24-1.11-0.57-2.19-0.58-3.33
				c1.83,0.34,3.52,1.37,4.66,2.84c0.1,0.13,0.2,0.28,0.2,0.44c0,0.19-0.15,0.34-0.28,0.47c-0.61,0.57-1.35,1.06-1.65,1.84
				c-0.16,0.43-0.17,0.91-0.34,1.34c-0.38,0.96-1.43,1.43-2.38,1.82c-4.87,2.03-9.49,4.6-14.1,7.17c-0.97,0.54-1.93,1.08-2.9,1.61
				c-0.43,0.24-0.87,0.48-1.35,0.57c-0.48,0.09-1.03,0.01-1.38-0.34c-0.14-0.14-0.24-0.31-0.35-0.48c-0.55-0.92-1.1-1.85-1.65-2.77
				c-0.52-0.88-0.93-1.99-0.85-3.05c0.09-1.12,1.18-0.73,2.04-0.72C66.47,23.56,68.84,23.3,71.15,22.77z"/>
			
				<linearGradient id="SVGID_00000165220366549828404960000001053046840046907540_" gradientUnits="userSpaceOnUse" x1="48.5785" y1="114.8935" x2="59.2679" y2="127.6559" gradientTransform="matrix(1 0 0 -1 0 149.8898)">
				<stop  offset="0" style="stop-color:#000000"/>
				<stop  offset="0.0904" style="stop-color:#0B0000;stop-opacity:0.9096"/>
				<stop  offset="0.2496" style="stop-color:#280000;stop-opacity:0.7504"/>
				<stop  offset="0.4588" style="stop-color:#580000;stop-opacity:0.5412"/>
				<stop  offset="0.7099" style="stop-color:#9B0000;stop-opacity:0.2901"/>
				<stop  offset="0.994" style="stop-color:#EE0000;stop-opacity:6.035566e-03"/>
				<stop  offset="1" style="stop-color:#F00000;stop-opacity:0"/>
			</linearGradient>
			<path style="fill:url(#SVGID_00000165220366549828404960000001053046840046907540_);" d="M59.42,20.2
				c-0.07,0.12-0.22,0.17-0.35,0.24c-0.65,0.31-0.96,1.19-0.65,1.84c0.29,0.59,0.96,0.89,1.58,1.11c0.18,0.06,0.38,0.13,0.48,0.3
				c0.13,0.2,0.06,0.47-0.02,0.7c-0.6,1.85-1.25,3.69-1.96,5.5c-0.52-0.69-1.17-1.28-1.91-1.72c-0.57-0.35-1.29-0.77-1.26-1.44
				c0.01-0.21,0.11-0.43,0.07-0.64c-0.04-0.22-0.2-0.38-0.35-0.54c-0.71-0.76-1.24-1.69-1.52-2.69c-0.1-0.34,1.11-1.76,1.33-2.06
				c0.5-0.68,1.06-1.33,1.74-1.84c0.49-0.37,1.21-0.89,1.87-0.68C59.05,18.46,59.74,19.64,59.42,20.2z"/>
			<g>
				<path class="st17" d="M75.96,48.99c-0.22,1.43-0.06,2.88,0.18,4.29c0.22,1.29,0.54,2.9,1.75,3.62c0.73,0.44,1.65,0.4,2.37-0.04
					c0.73-0.44,1.15-1.17,1.43-1.94c0.61-1.66,0.84-3.52,0.86-5.28c0-0.53-0.45-0.97-0.97-0.97c-0.57,0-0.92,0.45-0.97,0.97
					c-0.18,1.64-0.29,3.4-0.01,5.04c0.26,1.55,1.5,2.57,3.09,2.28c1.53-0.28,2.34-1.67,2.88-2.99c0.63-1.54,1-3.15,1.19-4.8
					c0.06-0.52-0.49-0.97-0.97-0.97c-0.58,0-0.92,0.45-0.97,0.97c-0.14,1.2-0.42,2.38-0.83,3.52c-0.28,0.79-0.66,2.02-1.54,2.32
					c-0.91,0.31-0.96-0.72-1-1.37c-0.07-1.33-0.02-2.67,0.12-4c-0.65,0-1.3,0-1.95,0c-0.01,1.34-0.18,2.65-0.53,3.94
					c-0.11,0.4-0.67,2.31-1.35,1.48c-0.54-0.68-0.64-1.85-0.76-2.67c-0.14-0.91-0.25-2.08-0.12-2.89c0.08-0.52-0.13-1.05-0.68-1.2
					C76.7,48.18,76.04,48.46,75.96,48.99L75.96,48.99z"/>
			</g>
			<g>
				<path d="M85.2,12.04c-1.08-0.54-2.25-0.71-3.43-0.44c-0.33,0.08-0.65,0.18-0.98,0.26c-1.02,0.24-2.04,0.46-3.06,0.69
					c-3.26,0.72-6.53,1.43-9.78,2.2c-3.1,0.73-6.23,1.46-9.17,2.73c-1.12,0.48-2.19,1.06-3.14,1.82c-0.85,0.69-1.46,1.55-2.01,2.48
					c-0.72,1.23-1.54,2.42-2.16,3.71c-0.24,0.51-0.28,0.82-0.15,1.36c0.22,0.88,0.49,1.76,0.84,2.6c0.9,2.13,3.09,3.61,5.24,4.26
					c0.6,0.18,0.86-0.76,0.26-0.94c-1.87-0.57-3.83-1.85-4.62-3.71c-0.3-0.71-0.52-1.46-0.72-2.21c-0.05-0.21-0.13-0.42-0.15-0.64
					c0,0.02-0.04,0.16,0.02,0.04c0.04-0.08,0.07-0.18,0.11-0.27c0.58-1.25,1.38-2.4,2.08-3.58c0.47-0.78,0.94-1.53,1.62-2.15
					c0.86-0.78,1.92-1.34,2.97-1.81c2.76-1.23,5.75-1.92,8.68-2.62c3.06-0.73,6.13-1.41,9.21-2.08c1.23-0.27,2.46-0.54,3.68-0.82
					c0.31-0.07,0.63-0.14,0.94-0.23c1.12-0.31,2.14-0.35,3.21,0.19C85.27,13.16,85.76,12.32,85.2,12.04L85.2,12.04z"/>
			</g>
			<g>
				<path d="M57.97,33.48c1.44-2.98,2.6-6.1,3.45-9.3c0.16-0.61-0.78-0.87-0.94-0.26c-0.83,3.12-1.95,6.16-3.36,9.06
					C56.86,33.55,57.7,34.05,57.97,33.48L57.97,33.48z"/>
			</g>
			<g>
				<path d="M60.98,23.48c0.82,2.18,1.89,4.26,3.04,6.29c0.58,1.03,1.17,2.05,1.76,3.08c0.27,0.48,0.53,0.97,0.81,1.45
					c0.23,0.41,0.5,0.65,0.99,0.6c0.52-0.05,1.08-0.29,1.58-0.45c0.61-0.2,1.21-0.42,1.81-0.66c1.1-0.43,2.17-0.91,3.25-1.39
					c2.16-0.96,4.27-2.03,6.29-3.26c2.65-1.61,5.09-3.49,7.47-5.47c0.99-0.82,1.99-1.65,2.9-2.56c0.62-0.63,0.92-1.06,0.67-1.96
					c-0.41-1.49-1.15-3.03-2.03-4.3c-0.49-0.71-1.07-1.18-1.83-1.59c-1.06-0.57-2.15-1.18-3.31-1.54c-0.6-0.18-0.86,0.76-0.26,0.94
					c0.78,0.24,1.49,0.61,2.2,0.98c0.67,0.35,1.45,0.66,1.97,1.21c0.7,0.73,1.17,1.77,1.59,2.68c0.31,0.66,0.83,1.6,0.82,2.33
					c0-0.08,0.06-0.07-0.04,0.03c-0.05,0.05-0.12,0.15-0.19,0.23c-0.25,0.27-0.52,0.53-0.78,0.78c-3.42,3.19-7.24,6.08-11.32,8.36
					c-1.71,0.95-3.48,1.78-5.27,2.57c-0.93,0.41-1.86,0.81-2.81,1.17c-0.5,0.19-0.99,0.37-1.5,0.53c-0.44,0.14-1.04,0.43-1.5,0.38
					c0.11,0.05,0.23,0.1,0.34,0.14c-0.37-0.29-0.57-0.91-0.8-1.32c-0.25-0.45-0.51-0.9-0.77-1.35c-0.5-0.86-0.99-1.73-1.48-2.6
					c-1-1.8-1.94-3.64-2.67-5.57C61.7,22.64,60.76,22.89,60.98,23.48L60.98,23.48z"/>
			</g>
			<g>
				<path d="M14.22,65.98c-1.09,1.38-1.68,3.05-2.18,4.71c-0.55,1.83-0.93,3.71-1.2,5.6c-0.53,3.78-0.66,7.65-0.4,11.45
					c0.23,3.44,0.83,6.92,2.03,10.17c0.99,2.68,2.72,5.98,5.59,7.02c1.69,0.61,3.35-0.07,4.65-1.18c1.41-1.21,2.32-2.92,3.84-4.01
					c0.5-0.36,0.02-1.21-0.49-0.84c-1.23,0.89-2.09,2.09-3.08,3.21c-0.97,1.09-2.29,2.24-3.85,2.08c-1.47-0.15-2.65-1.35-3.52-2.45
					c-0.92-1.17-1.61-2.53-2.13-3.91c-2.39-6.29-2.57-13.42-1.84-20.04c0.21-1.93,0.55-3.85,1.04-5.73
					c0.48-1.84,1.03-3.87,2.24-5.39C15.3,66.18,14.61,65.49,14.22,65.98L14.22,65.98z"/>
			</g>
			<g>
				<path d="M28.88,70.51c0.03,4.28-0.9,8.47-1.55,12.68c-0.64,4.16-1.1,8.34-1.34,12.55c-0.48,8.43-0.74,16.88-1.06,25.32
					c-0.08,2.13-0.16,4.27-0.24,6.4c-0.04,1.05-0.08,2.09-0.11,3.14c-0.03,0.84-0.18,1.83,0.21,2.62c0.74,1.5,2.93,1.2,4.3,1.2
					c2.06-0.01,4.13-0.09,6.19-0.22c8.25-0.54,16.42-1.9,24.63-2.9c4.1-0.5,8.21-0.9,12.34-1.06c2.05-0.08,4.11-0.1,6.17-0.03
					c1.02,0.03,2.03,0.12,3.04,0.15c1.05,0.04,2.13-0.1,3.18-0.15c0.97-0.05,1.93-0.1,2.86,0.19c0.52,0.16,0.89-0.66,0.38-0.89
					c-0.01,0-0.01-0.01-0.02-0.01c-0.13,0.3-0.25,0.59-0.38,0.89c2.08,0.39,4.16,0.88,6.25,1.19c0.99,0.14,1.83,0.05,2.79-0.15
					c0.97-0.2,1.98-0.03,2.94-0.3c1.99-0.57,1.93-2.63,2.21-4.32c0.36-2.17,0.53-4.36,0.73-6.55c0.4-4.44,0.79-8.9,0.83-13.36
					c0.02-2.23-0.05-4.45-0.24-6.67c-0.19-2.15-0.75-4.42-0.36-6.58c0.2-1.14,0.75-2.14,1.16-3.21c0.3-0.79,0.46-1.63,0.57-2.47
					c0.24-1.87,0.23-3.78-0.01-5.65c-0.08-0.61-1.05-0.62-0.97,0c0.19,1.54,0.23,3.1,0.11,4.64c-0.06,0.81-0.17,1.62-0.38,2.4
					c-0.21,0.81-0.58,1.55-0.9,2.31c-0.8,1.94-0.72,3.92-0.48,5.97c0.25,2.09,0.43,4.17,0.49,6.27c0.12,4.22-0.13,8.44-0.48,12.65
					c-0.18,2.15-0.37,4.3-0.58,6.44c-0.11,1.07-0.22,2.14-0.38,3.2c-0.14,0.92-0.19,1.96-0.45,2.86c-0.35,1.21-1.55,1.24-2.61,1.27
					s-2.08,0.42-3.13,0.36c-1.09-0.06-2.16-0.36-3.23-0.56c-1.21-0.23-2.41-0.45-3.62-0.68c-0.5-0.09-0.92,0.65-0.38,0.89
					c0.01,0,0.01,0.01,0.02,0.01c0.13-0.3,0.25-0.59,0.38-0.89c-1.81-0.57-3.85-0.16-5.71-0.09c-1.02,0.04-2.04-0.09-3.06-0.13
					c-1.01-0.04-2.02-0.06-3.02-0.06c-4.04-0.01-8.08,0.27-12.11,0.69c-8.07,0.83-16.07,2.2-24.14,2.98
					c-4.03,0.39-8.09,0.64-12.14,0.58c-0.78-0.01-1.8-0.02-2.01-0.94c-0.21-0.92,0-2.04,0.03-2.98c0.07-2.09,0.15-4.19,0.23-6.28
					c0.31-8.28,0.64-16.56,1.01-24.84c0.19-4.21,0.52-8.39,1.1-12.57c0.56-4.07,1.45-8.11,1.8-12.21c0.09-1.03,0.13-2.07,0.13-3.1
					C29.85,69.88,28.87,69.88,28.88,70.51L28.88,70.51z"/>
			</g>
			<g>
				<path d="M30.25,65.75c0.17-2.3,0.47-4.58,1.09-6.8c0.62-2.21,1.51-4.34,2.38-6.46c0.24-0.58-0.7-0.83-0.94-0.26
					c-0.89,2.17-1.8,4.35-2.43,6.62c-0.62,2.25-0.91,4.57-1.08,6.9C29.23,66.38,30.21,66.37,30.25,65.75L30.25,65.75z"/>
			</g>
			<g>
				<path d="M58.21,31.48c0.31,1.46,0.63,2.93,0.6,4.43c-0.01,0.76-0.13,1.5-0.35,2.23c-0.21,0.67-0.44,1.31-0.54,2
					c-0.4,2.9-0.19,5.97,0.16,8.86c0.07,0.62,1.05,0.62,0.97,0c-0.18-1.52-0.29-3.05-0.32-4.58c-0.03-1.49-0.1-3.12,0.22-4.59
					c0.16-0.71,0.46-1.39,0.62-2.1c0.15-0.67,0.21-1.36,0.21-2.05c-0.01-1.51-0.32-3-0.64-4.46C59.02,30.61,58.08,30.87,58.21,31.48
					L58.21,31.48z"/>
			</g>
			<g>
				<path d="M59.94,49.89c1.81,0.34,3.98,0.79,5.77,0.16c1.79-0.62,1.68-2.53,1.54-4.12c-0.09-1.01-0.25-2.01-0.24-3.02
					c0.01-1.05,0.3-2.03,0.53-3.04c0.4-1.75,0.62-3.52,0.73-5.31c0.04-0.63-0.94-0.62-0.97,0c-0.09,1.56-0.27,3.1-0.6,4.63
					c-0.19,0.9-0.46,1.79-0.59,2.71c-0.11,0.82-0.07,1.65,0.01,2.48c0.08,0.86,0.21,1.71,0.23,2.58c0.02,0.81,0.08,1.76-0.79,2.13
					c-0.75,0.32-1.65,0.3-2.45,0.26c-0.98-0.04-1.94-0.2-2.9-0.38C59.59,48.84,59.32,49.78,59.94,49.89L59.94,49.89z"/>
			</g>
			<g>
				<path d="M58.07,51.35c0.02,0.69,0.05,1.37,0.07,2.06c0.02,0.64,0,1.3,0.1,1.94c0.08,0.52,0.31,1,0.77,1.29
					c0.52,0.33,1.21,0.37,1.8,0.46c1.32,0.18,2.66,0.23,3.99,0.12c0.57-0.05,1.03-0.15,1.36-0.65s0.61-1.09,0.78-1.66
					c0.2-0.68,0.2-1.4,0.15-2.1c-0.06-0.81-0.13-1.62-0.2-2.43c-0.05-0.62-1.03-0.63-0.97,0c0.06,0.73,0.12,1.47,0.18,2.2
					c0.05,0.69,0.1,1.39-0.1,2.06c-0.1,0.32-0.24,0.62-0.4,0.91c-0.11,0.21-0.22,0.55-0.46,0.64c-0.28,0.11-0.73,0.07-1.02,0.08
					c-0.35,0.02-0.71,0.02-1.06,0.02c-0.71-0.01-1.43-0.06-2.14-0.16c-0.51-0.07-1.43-0.07-1.65-0.64s-0.13-1.33-0.15-1.92
					c-0.02-0.74-0.05-1.48-0.07-2.22C59.03,50.72,58.05,50.72,58.07,51.35L58.07,51.35z"/>
			</g>
			<g>
				<path d="M65.92,34.22c0.2,1.04-0.32,2.04-0.64,3c-0.17,0.51-0.29,1.03-0.32,1.57c-0.03,0.59,0.01,1.17,0,1.76
					s-0.07,1.19-0.09,1.78c-0.02,0.61,0.01,1.22,0.06,1.84c0.08,1.15,0.26,2.35,0.1,3.5c-0.08,0.57-0.3,1.35-0.91,1.56
					c-0.54,0.18-1.13-0.02-1.66,0.21c-0.29,0.12-0.16,0.59,0.13,0.47c0.5-0.21,1.05-0.05,1.57-0.18c0.49-0.12,0.84-0.5,1.05-0.94
					c0.51-1.08,0.37-2.39,0.29-3.55c-0.09-1.3-0.16-2.57-0.08-3.88c0.08-1.26-0.12-2.54,0.26-3.76c0.36-1.15,0.96-2.26,0.72-3.51
					C66.33,33.79,65.86,33.92,65.92,34.22L65.92,34.22z"/>
			</g>
			<g>
				<path d="M64.9,51.27c0.24,0.91,0.2,1.88,0.23,2.81c0.02,0.8,0.08,1.73-0.44,2.39c-0.19,0.24,0.15,0.59,0.34,0.34
					c0.58-0.73,0.62-1.65,0.59-2.55c-0.03-1.03,0.02-2.12-0.25-3.13C65.29,50.84,64.82,50.97,64.9,51.27L64.9,51.27z"/>
			</g>
			<g>
				<path d="M59.31,51.01c1.57,0.29,3.16,0.37,4.75,0.24c0.31-0.03,0.31-0.51,0-0.49c-1.54,0.13-3.1,0.06-4.62-0.22
					C59.13,50.48,59,50.95,59.31,51.01L59.31,51.01z"/>
			</g>
			<g>
				<path d="M58.74,31.35c1.13,0.41,2.34,0.52,3.53,0.63c0.31,0.03,0.31-0.46,0-0.49c-1.15-0.11-2.31-0.22-3.4-0.62
					C58.58,30.77,58.45,31.25,58.74,31.35L58.74,31.35z"/>
			</g>
			<g>
				<path d="M60.17,33.13c1.04,0.28,2.13,0.41,3.21,0.37c0.31-0.01,0.31-0.5,0-0.49c-1.04,0.04-2.07-0.08-3.08-0.35
					C60,32.58,59.87,33.05,60.17,33.13L60.17,33.13z"/>
			</g>
			<g>
				<path class="st18" d="M64.64,25.04c0.29,0.45,0.61,0.89,0.89,1.34c0.3,0.47,0.53,0.97,0.73,1.49c0.36,0.96,0.64,1.95,1.11,2.86
					c0.21,0.42,0.47,0.82,0.78,1.18c0.21,0.24,0.57,0.73,0.94,0.59c0.19-0.07,0.27-0.26,0.41-0.38c0.19-0.16,0.45-0.24,0.68-0.31
					c0.52-0.15,1.04-0.3,1.56-0.48c2.11-0.74,4.1-1.77,6-2.92c1.92-1.16,3.79-2.43,5.6-3.75c1.98-1.45,3.88-3.03,5.63-4.75
					c0.22-0.22-0.12-0.56-0.34-0.34c-3.04,2.98-6.49,5.48-10.07,7.76c-1.82,1.16-3.71,2.24-5.71,3.07
					c-0.51,0.21-1.03,0.41-1.56,0.58c-0.48,0.16-0.98,0.28-1.46,0.44c-0.18,0.06-0.36,0.13-0.52,0.24
					c-0.08,0.05-0.16,0.11-0.22,0.18c-0.03,0.03-0.06,0.1-0.1,0.12c-0.09,0.07-0.01,0.05-0.09,0.02c-0.16-0.05-0.36-0.36-0.46-0.48
					c-0.15-0.18-0.28-0.38-0.4-0.58c-0.58-0.97-0.88-2.06-1.27-3.11c-0.2-0.53-0.42-1.04-0.71-1.53c-0.31-0.5-0.66-0.98-0.98-1.48
					C64.89,24.53,64.47,24.78,64.64,25.04L64.64,25.04z"/>
			</g>
			<g>
				<path class="st18" d="M59.09,24.44c-0.88,2.35-1.8,4.69-2.68,7.04c0.08-0.06,0.16-0.12,0.23-0.18c0.12-0.01,0.1,0.04,0-0.04
					c-0.06-0.05-0.13-0.09-0.19-0.13c-0.17-0.12-0.33-0.24-0.5-0.36c-0.33-0.24-0.63-0.49-0.91-0.79c-0.49-0.53-0.87-1.11-1.09-1.79
					c-0.21-0.66-0.32-1.34-0.54-2c-0.1-0.29-0.57-0.17-0.47,0.13c0.25,0.72,0.35,1.48,0.61,2.19c0.26,0.72,0.7,1.34,1.22,1.89
					c0.31,0.33,0.65,0.59,1.01,0.85c0.17,0.13,0.35,0.25,0.53,0.38c0.09,0.06,0.22,0.18,0.33,0.17c0.12-0.01,0.19-0.07,0.23-0.18
					c0.88-2.35,1.81-4.68,2.68-7.04C59.67,24.27,59.2,24.15,59.09,24.44L59.09,24.44z"/>
			</g>
			<ellipse class="st19" cx="61.94" cy="37.73" rx="1.46" ry="1.71"/>
			<ellipse class="st19" cx="61.94" cy="45.52" rx="1.46" ry="1.71"/>
			<ellipse class="st19" cx="61.69" cy="29.24" rx="1.22" ry="1.42"/>
			<g>
				<path class="st18" d="M100.25,126.07c-0.34-0.01-0.43-0.52-0.46-0.79c-0.05-0.48-0.06-0.97-0.09-1.45
					c-0.06-1.02-0.1-2.04-0.13-3.06c-0.04-1.42,0.18-3.31-0.87-4.45c-0.99-1.08-2.63-0.75-3.63,0.13c-1.26,1.11-1.41,2.97-1.56,4.53
					c-0.05,0.51-0.1,1.02-0.14,1.54c-0.04,0.47-0.06,0.95-0.15,1.42c-0.18,0.93-1.09,0.9-1.85,0.85c-2.03-0.12-4.07-0.28-6.1-0.42
					c-4.06-0.3-8.13-0.59-12.21-0.69c-4.05-0.1-8.12,0-12.15,0.5c-0.5,0.06-0.99,0.13-1.49,0.2c-0.31,0.05-0.18,0.51,0.13,0.47
					c4.01-0.59,8.08-0.76,12.13-0.71c4.07,0.05,8.14,0.32,12.2,0.61c2.01,0.15,4.03,0.3,6.04,0.43c0.84,0.06,1.76,0.22,2.59,0.05
					c0.77-0.16,1.12-0.73,1.21-1.47c0.11-0.98,0.19-1.97,0.28-2.95c0.08-0.87,0.18-1.75,0.47-2.57c0.27-0.75,0.72-1.4,1.42-1.79
					c0.6-0.34,1.39-0.48,2.02-0.13c0.66,0.37,0.92,1.11,1.03,1.82c0.13,0.85,0.1,1.72,0.12,2.58c0.03,1.02,0.07,2.04,0.13,3.06
					c0.03,0.49,0.05,0.98,0.09,1.47c0.03,0.32,0.09,0.65,0.27,0.92c0.16,0.24,0.39,0.38,0.68,0.39
					C100.57,126.57,100.56,126.08,100.25,126.07L100.25,126.07z"/>
			</g>
			<g>
				<path class="st18" d="M55.22,124.62c-3.83,0.34-7.66,0.79-11.47,1.36c-1.93,0.29-3.86,0.61-5.78,0.96
					c-1.84,0.33-3.66,0.74-5.5,1.06c-2.01,0.35-4.11,0.52-6.06-0.21c-0.29-0.11-0.42,0.36-0.13,0.47c1.68,0.63,3.5,0.62,5.26,0.38
					c1.85-0.25,3.67-0.69,5.5-1.03c3.86-0.72,7.74-1.33,11.64-1.81c2.18-0.27,4.36-0.5,6.54-0.69
					C55.53,125.08,55.53,124.59,55.22,124.62L55.22,124.62z"/>
			</g>
			<g>
				<path d="M95.23,131.15c0.74,0.07,0.86-0.86,0.91-1.39c0.08-1.03,0.16-2.06,0.23-3.1c0.08-1.03,0.16-2.06,0.23-3.1
					c0.06-0.85,0.03-1.88,0.62-2.57c-0.11,0-0.23,0-0.34,0c0.53,0.51,0.74,1.22,0.83,1.93c0.11,0.83,0.1,1.67,0.14,2.5
					c0.04,0.92,0.08,1.84,0.11,2.76c0.03,0.83,0.08,1.66,0.46,2.42c0.14,0.28,0.56,0.03,0.42-0.25c-0.41-0.81-0.37-1.77-0.41-2.65
					c-0.04-0.96-0.08-1.92-0.12-2.88c-0.06-1.41,0.02-3.11-1.09-4.17c-0.09-0.09-0.26-0.1-0.34,0c-0.49,0.57-0.62,1.29-0.69,2.02
					c-0.09,0.96-0.15,1.93-0.22,2.9s-0.15,1.94-0.22,2.91c-0.04,0.49-0.07,0.97-0.11,1.46c-0.02,0.24-0.08,0.75-0.4,0.72
					C94.91,130.64,94.92,131.12,95.23,131.15L95.23,131.15z"/>
			</g>
			<g>
				<path class="st18" d="M98.22,114.06c0.2-2.47,0.4-4.94,0.6-7.42c0.02-0.3,0.05-0.6,0.07-0.9c0.03-0.31,0.02-0.65,0.12-0.94
					c0.08-0.25,0.26-0.45,0.41-0.67c0.15-0.21,0.26-0.43,0.36-0.67c0.39-0.96,0.34-2.04,0.28-3.05c-0.02-0.31-0.51-0.31-0.49,0
					c0.06,1.04,0.14,2.18-0.36,3.13c-0.24,0.46-0.62,0.81-0.72,1.34c-0.11,0.58-0.11,1.18-0.16,1.77c-0.2,2.47-0.4,4.94-0.6,7.42
					C97.71,114.37,98.2,114.37,98.22,114.06L98.22,114.06z"/>
			</g>
			<g>
				<path class="st18" d="M100.78,92.99c-0.08-2.14,1.32-4.49,0.12-6.53c-0.12-0.21-0.28-0.38-0.43-0.57
					c-0.21-0.27-0.19-0.52-0.16-0.85c0.06-0.64,0.12-1.29,0.17-1.93c0.12-1.29,0.23-2.57,0.35-3.86c0.03-0.31-0.46-0.31-0.49,0
					c-0.12,1.29-0.23,2.57-0.35,3.86c-0.06,0.64-0.12,1.29-0.17,1.93c-0.02,0.27-0.05,0.53,0.05,0.79c0.08,0.21,0.24,0.38,0.38,0.55
					c0.69,0.84,0.72,2.01,0.57,3.05c-0.18,1.19-0.57,2.35-0.52,3.57C100.31,93.31,100.8,93.31,100.78,92.99L100.78,92.99z"/>
			</g>
			<g>
				<path d="M89.97,71.64c2.87,1.18,5.65,2.57,8.32,4.15c0.27,0.16,0.52-0.26,0.25-0.42c-2.7-1.61-5.52-3.01-8.43-4.2
					C89.81,71.05,89.69,71.53,89.97,71.64L89.97,71.64z"/>
			</g>
			<g>
				<path class="st18" d="M97.44,93.94c0.61,1.5,1.52,2.85,2.7,3.96c0.23,0.22,0.57-0.13,0.34-0.34c-1.11-1.05-2-2.33-2.57-3.75
					C97.79,93.52,97.32,93.65,97.44,93.94L97.44,93.94z"/>
			</g>
			<g>
				<path class="st18" d="M51.42,76.09c-3.84-1.09-7.73-2.19-11.74-2.45c-0.67-0.04-1.96-0.28-2.22,0.59
					c-0.04,0.13,0.05,0.26,0.17,0.3c2.89,1.05,5.83,1.96,8.81,2.73c0.3,0.08,0.43-0.39,0.13-0.47c-2.98-0.77-5.92-1.68-8.81-2.73
					c0.06,0.1,0.11,0.2,0.17,0.3c0.12-0.41,0.92-0.28,1.22-0.27c0.58,0.03,1.16,0.07,1.74,0.13c1.19,0.13,2.38,0.33,3.55,0.57
					c2.31,0.47,4.57,1.12,6.84,1.76C51.59,76.64,51.72,76.17,51.42,76.09L51.42,76.09z"/>
			</g>
			<g>
				<path class="st18" d="M87.89,110.68c-7.12,0.82-14.06,2.69-20.9,4.8c-1.94,0.6-3.88,1.21-5.81,1.83
					c-0.27,0.09-0.21,0.46,0.06,0.48c4.54,0.39,9.1,0.49,13.65,0.29c1.3-0.06,2.6-0.14,3.9-0.24c0.31-0.02,0.31-0.51,0-0.49
					c-4.54,0.36-9.1,0.43-13.65,0.21c-1.3-0.06-2.6-0.15-3.9-0.26c0.02,0.16,0.04,0.32,0.06,0.48c6.78-2.16,13.59-4.32,20.58-5.67
					c1.99-0.38,3.99-0.7,6-0.93C88.2,111.13,88.2,110.65,87.89,110.68L87.89,110.68z"/>
			</g>
			<g>
				<path class="st18" d="M80.35,117.3c-0.2,0.03-0.32,0.2-0.32,0.4c0,0.17,0.15,0.26,0.31,0.24c1.1-0.19,2.03-0.85,3.09-1.16
					c1.11-0.32,2.27-0.4,3.42-0.48c0.31-0.02,0.31-0.51,0-0.49c-1.15,0.08-2.32,0.16-3.44,0.47c-1.1,0.3-2.07,0.99-3.2,1.19
					c0.1,0.08,0.21,0.16,0.31,0.23c-0.01,0.02-0.03,0.05-0.04,0.07C80.79,117.72,80.66,117.25,80.35,117.3L80.35,117.3z"/>
			</g>
			<g>
				<path class="st18" d="M85.23,118.07c0.81-0.02,1.63-0.05,2.44-0.07c0.31-0.01,0.31-0.5,0-0.49c-0.81,0.02-1.63,0.05-2.44,0.07
					C84.92,117.6,84.91,118.08,85.23,118.07L85.23,118.07z"/>
			</g>
			<g>
				<path d="M25.52,47.69c-0.62,1.75-1.23,3.57-1.2,5.44c0.01,0.89,0.33,1.8,0.11,2.67c-0.21,0.83-0.75,1.53-1.26,2.19
					c-0.19,0.25,0.23,0.49,0.42,0.25c0.5-0.65,1-1.33,1.25-2.12c0.29-0.89,0.03-1.75-0.02-2.65c-0.11-1.95,0.53-3.85,1.17-5.66
					C26.1,47.52,25.63,47.39,25.52,47.69L25.52,47.69z"/>
			</g>
			<g>
				<path class="st18" d="M18.77,66.21c2.58,1.36,2.96,4.53,3.04,7.14c0.01,0.31,0.5,0.31,0.49,0c-0.09-2.78-0.54-6.12-3.28-7.56
					C18.74,65.64,18.49,66.06,18.77,66.21L18.77,66.21z"/>
			</g>
			<g>
				<path class="st18" d="M22.37,80.12c0.39,2.23,0.41,4.51,0.5,6.76c0.08,2.12,0.26,4.27,0.08,6.39c-0.1,1.17-0.33,2.33-0.79,3.42
					c-0.12,0.29,0.35,0.42,0.47,0.13c0.82-1.95,0.91-4.1,0.86-6.19c-0.05-2.26-0.15-4.53-0.26-6.79c-0.06-1.29-0.17-2.58-0.39-3.86
					C22.79,79.68,22.32,79.81,22.37,80.12L22.37,80.12z"/>
			</g>
			<g>
				<path d="M111.24,89.46c1.84-4.3,7.05-5.31,11.2-5.76c1.41-0.15,2.83-0.23,4.25-0.24c0.31,0,0.31-0.49,0-0.49
					c-2.56,0.02-5.15,0.25-7.66,0.76c-2.22,0.45-4.43,1.22-6.16,2.73c-0.87,0.76-1.59,1.69-2.05,2.76
					C110.7,89.5,111.12,89.75,111.24,89.46L111.24,89.46z"/>
			</g>
			<g>
				<path class="st18" d="M132.69,84.04c0.7,0.17,1.39,0.37,2.07,0.61c0.54,0.19,1.27,0.37,1.61,0.86c0.18,0.26,0.6,0.01,0.42-0.25
					c-0.39-0.57-1.08-0.79-1.7-1.01c-0.75-0.27-1.51-0.5-2.28-0.68C132.51,83.5,132.38,83.97,132.69,84.04L132.69,84.04z"/>
			</g>
			<g>
				<path d="M136.24,77.01c0.04-0.73-0.68-1.03-1.29-1.09c-0.86-0.08-1.73-0.11-2.6-0.17c-0.71-0.05-1.51-0.18-2.19,0.1
					c-0.58,0.23-0.9,0.76-1,1.36c-0.1,0.61-0.03,1.25,0.07,1.85s0.28,1.22,0.68,1.69c0.44,0.53,1.09,0.73,1.75,0.8
					c0.83,0.09,1.67,0.1,2.5,0.09c0.46,0,0.92,0,1.38-0.04c0.35-0.03,0.71-0.1,0.99-0.34c0.65-0.57,0.47-1.5,0.69-2.24
					c0.09-0.3-0.38-0.43-0.47-0.13c-0.17,0.57-0.07,1.23-0.36,1.77c-0.32,0.6-1.19,0.48-1.76,0.49c-0.67,0.01-1.34,0-2.01-0.02
					c-0.61-0.03-1.28-0.02-1.84-0.3c-0.96-0.48-1.12-1.75-1.17-2.71c-0.03-0.51-0.03-1.1,0.31-1.52c0.39-0.47,1.07-0.45,1.62-0.42
					c0.75,0.04,1.49,0.1,2.24,0.14c0.39,0.02,0.78,0.04,1.17,0.08c0.35,0.03,0.83,0.16,0.8,0.6
					C135.74,77.32,136.23,77.32,136.24,77.01L136.24,77.01z"/>
			</g>
			<g>
				<path d="M131.35,80.26c-0.02,0,0.15,0.24,0.17,0.26c0.08,0.07,0.19,0.12,0.3,0.13c0.11,0.01,0.22-0.04,0.3-0.13
					c0.04-0.05,0.06-0.12,0.07-0.18c0-0.02,0-0.04,0-0.06c0-0.1-0.03-0.09-0.09,0.02c0,0,0.2,0.02,0.18,0.02
					c0.09,0.01,0.18,0.02,0.26,0.03c0.21,0.03,0.41,0.05,0.62,0.08c0.38,0.05,0.76,0.1,1.15,0.15c0.14,0.02,0.23-0.13,0.24-0.24
					c0-0.05,0.02-0.1,0.04-0.15c-0.09,0.04-0.18,0.07-0.28,0.11c0.51,0.13,1.02,0.22,1.55,0.29c0.31,0.04,0.31-0.45,0-0.49
					c-0.48-0.06-0.95-0.15-1.42-0.27c-0.09-0.02-0.23,0.01-0.28,0.11c-0.06,0.13-0.09,0.25-0.1,0.39c0.08-0.08,0.16-0.16,0.24-0.24
					c-0.38-0.05-0.76-0.1-1.15-0.15c-0.19-0.03-0.38-0.05-0.57-0.08c-0.16-0.02-0.34-0.07-0.5-0.06c-0.11,0.01-0.23,0.04-0.3,0.13
					c-0.05,0.05-0.08,0.11-0.09,0.18c-0.01,0.03-0.01,0.06,0,0.1c0,0.12,0.05,0.11,0.17-0.04c0-0.04-0.13-0.2-0.17-0.24
					c-0.09-0.1-0.2-0.15-0.34-0.15C131.04,79.76,131.04,80.25,131.35,80.26L131.35,80.26z"/>
			</g>
			<g>
				<path d="M132.31,78.95c-0.39-0.42-0.7-0.9-0.93-1.43c-0.11,0.11-0.22,0.22-0.33,0.33c0.63,0.29,1.23,0.63,1.8,1.03
					c0.1,0.07,0.28,0.03,0.33-0.09c0.19-0.42,0.48-0.76,0.87-1.01c-0.12-0.07-0.24-0.14-0.37-0.21c-0.03,0.39-0.06,0.79-0.09,1.18
					c-0.02,0.25,0.34,0.32,0.45,0.12c0.25-0.41,0.8-0.55,1.22-0.32c0-0.14,0-0.28,0-0.42c-0.24,0.15-0.59,0.43-0.6,0.74
					c-0.01,0.38,0.52,0.5,0.78,0.63c0.28,0.14,0.53-0.28,0.25-0.42c-0.1-0.05-0.2-0.1-0.3-0.15c-0.06-0.03-0.24-0.08-0.27-0.13
					c0.07,0.11,0.12-0.04,0.18-0.1s0.13-0.11,0.21-0.16c0.15-0.09,0.16-0.33,0-0.42c-0.65-0.36-1.5-0.14-1.89,0.5
					c0.15,0.04,0.3,0.08,0.45,0.12c0.03-0.39,0.06-0.79,0.09-1.18c0.01-0.18-0.22-0.3-0.37-0.21c-0.46,0.29-0.82,0.69-1.04,1.18
					c0.11-0.03,0.22-0.06,0.33-0.09c-0.57-0.4-1.17-0.75-1.8-1.03c-0.23-0.1-0.43,0.11-0.33,0.33c0.25,0.56,0.59,1.08,1.01,1.53
					C132.18,79.53,132.52,79.18,132.31,78.95L132.31,78.95z"/>
			</g>
			<g>
				<path d="M129.5,58.61c0.81,1.51,1.27,3.38,0.6,5.03c-0.16,0.39-0.38,0.76-0.54,1.16c-0.17,0.42-0.26,0.87-0.28,1.33
					c-0.03,0.91,0.22,1.81,0.46,2.68c0.09,0.3,0.56,0.17,0.47-0.13c-0.26-0.91-0.53-1.86-0.43-2.82c0.1-0.93,0.7-1.68,0.94-2.57
					c0.45-1.67-0.02-3.44-0.81-4.93C129.77,58.09,129.35,58.34,129.5,58.61L129.5,58.61z"/>
			</g>
			<g>
				<path d="M91.39,62.56c0.8,1.21,1.84,2.25,3.07,3.03c0.62,0.4,1.37,0.65,1.94,1.12c0.31,0.26,0.54,0.6,0.78,0.92
					c0.27,0.37,0.55,0.74,0.82,1.12c0.18,0.25,0.61,0.01,0.42-0.25c-0.48-0.65-0.92-1.38-1.49-1.96c-0.53-0.54-1.25-0.8-1.89-1.17
					c-1.3-0.76-2.4-1.81-3.23-3.07C91.64,62.06,91.21,62.3,91.39,62.56L91.39,62.56z"/>
			</g>
			<g>
				<path class="st18" d="M110.14,27.12c-2.04,0.2-4.07,0.54-6.07,1.04c-0.35,0.09-2.23,0.4-1.46,1.12
					c0.32,0.31,0.76,0.54,1.13,0.78c0.42,0.27,0.84,0.53,1.28,0.78c0.95,0.54,1.93,1.01,2.94,1.43c0.29,0.12,0.42-0.35,0.13-0.47
					c-1-0.42-1.98-0.9-2.92-1.44c-0.45-0.26-0.89-0.53-1.32-0.81c-0.22-0.14-0.43-0.29-0.64-0.44c-0.06-0.04-0.12-0.09-0.18-0.13
					c-0.07-0.03-0.06-0.05,0.04-0.06c0.09-0.06,0.29-0.08,0.4-0.11c2.19-0.59,4.42-0.99,6.68-1.21
					C110.45,27.58,110.45,27.09,110.14,27.12L110.14,27.12z"/>
			</g>
			<g>
				<path d="M108.67,32.71c1.1,0.41,2.34,0.81,3.46,0.23c0.22-0.12,0.41-0.27,0.58-0.45c0.1-0.1,0.2-0.22,0.35-0.26
					c0.18-0.05,0.37,0.02,0.54,0.05c0.66,0.11,1.33,0.17,2,0.19c0.31,0.01,0.31-0.48,0-0.49c-0.67-0.01-1.33-0.07-1.99-0.19
					c-0.26-0.05-0.52-0.11-0.77-0.01c-0.24,0.09-0.4,0.29-0.57,0.46c-0.96,0.92-2.41,0.4-3.47,0
					C108.5,32.13,108.37,32.61,108.67,32.71L108.67,32.71z"/>
			</g>
			<g>
				<path class="st18" d="M119.12,37.97c-1.1-0.54-2.21-1.08-3.31-1.62c-0.38-0.18-0.9-0.6-1.33-0.33c-0.22,0.13-0.4,0.35-0.59,0.52
					c-0.22,0.2-0.45,0.41-0.67,0.61c-0.12,0.11-0.07,0.3,0.05,0.38c0.89,0.6,1.84,1.1,2.84,1.47c0.52,0.19,1.06,0.31,1.57,0.52
					c0.54,0.22,0.99,0.61,1.43,0.97c1.63,1.32,3.17,2.78,4.25,4.6c0.16,0.27,0.58,0.02,0.42-0.25c-1.1-1.85-2.67-3.35-4.33-4.7
					c-0.41-0.33-0.82-0.69-1.29-0.94c-0.5-0.26-1.05-0.37-1.58-0.55c-1.1-0.37-2.13-0.9-3.09-1.55c0.02,0.13,0.03,0.26,0.05,0.38
					c0.2-0.18,0.39-0.35,0.59-0.53c0.16-0.14,0.32-0.34,0.5-0.46c0.23-0.14,0.52,0.09,0.74,0.2c0.23,0.11,0.46,0.23,0.7,0.34
					c0.93,0.45,1.85,0.91,2.78,1.36C119.15,38.53,119.4,38.11,119.12,37.97L119.12,37.97z"/>
			</g>
			<g>
				<path class="st18" d="M107.64,71.33c3.83,0.54,7.63,1.31,11.37,2.28c0.3,0.08,0.43-0.39,0.13-0.47
					c-3.74-0.98-7.54-1.74-11.37-2.28C107.46,70.81,107.33,71.28,107.64,71.33L107.64,71.33z"/>
			</g>
			<g>
				<path class="st18" d="M110.79,68.85c1.64-0.43,3.29-0.8,4.95-1.11c0.31-0.06,0.18-0.53-0.13-0.47
					c-1.66,0.31-3.31,0.68-4.95,1.11C110.36,68.46,110.49,68.93,110.79,68.85L110.79,68.85z"/>
			</g>
			<g>
				<path class="st18" d="M38.8,34.91c1.97-1.36,4.18-2.33,6.51-2.88c0.31-0.07,0.18-0.54-0.13-0.47c-2.37,0.55-4.62,1.55-6.63,2.93
					C38.3,34.67,38.54,35.09,38.8,34.91L38.8,34.91z"/>
			</g>
			<g>
				<path class="st18" d="M60.74,61.88c5.1,1.89,10.29,3.5,15.57,4.84c1.49,0.38,2.99,0.73,4.49,1.06c0.31,0.07,0.44-0.4,0.13-0.47
					c-5.31-1.17-10.55-2.62-15.71-4.36c-1.46-0.49-2.91-1-4.35-1.54C60.57,61.3,60.44,61.77,60.74,61.88L60.74,61.88z"/>
			</g>
			<g>
				<path class="st18" d="M70.38,67.45c1.7,0.6,3.45,1.02,5.24,1.26c0.31,0.04,0.31-0.45,0-0.49c-1.74-0.23-3.45-0.65-5.11-1.24
					C70.21,66.87,70.09,67.34,70.38,67.45L70.38,67.45z"/>
			</g>
			
				<linearGradient id="SVGID_00000101103409358372318890000009258924813104453566_" gradientUnits="userSpaceOnUse" x1="74.8769" y1="119.5164" x2="70.4018" y2="138.6601" gradientTransform="matrix(1 0 0 -1 0 149.8898)">
				<stop  offset="0" style="stop-color:#000000"/>
				<stop  offset="0.0904" style="stop-color:#0B0000;stop-opacity:0.9096"/>
				<stop  offset="0.2496" style="stop-color:#280000;stop-opacity:0.7504"/>
				<stop  offset="0.4588" style="stop-color:#580000;stop-opacity:0.5412"/>
				<stop  offset="0.7099" style="stop-color:#9B0000;stop-opacity:0.2901"/>
				<stop  offset="0.994" style="stop-color:#EE0000;stop-opacity:6.035566e-03"/>
				<stop  offset="1" style="stop-color:#F00000;stop-opacity:0"/>
			</linearGradient>
			<path style="fill:url(#SVGID_00000101103409358372318890000009258924813104453566_);" d="M64.45,17.53
				c-1.74,0.59-3.48,1.18-5.21,1.76c-0.35,0.12-0.72,0.25-0.95,0.54c-1.4,1.74,2.05,3.46,3.32,3.57c0.7,0.06,1.41-0.05,2.11-0.13
				c3.42-0.39,6.94-0.16,10.23-1.18c2.48-0.78,5.06-1.91,7.38-3.07c1.68-0.83,3.27-1.92,4.38-3.42c0.15-0.2,0.3-0.45,0.23-0.7
				c-0.05-0.19-0.23-0.33-0.4-0.43c-0.88-0.56-1.88-0.93-2.92-1.07c-1.24-0.16-2.49-0.01-3.72,0.16c-1.61,0.22-3.22,0.45-4.79,0.84
				c-1.43,0.35-2.82,0.82-4.21,1.29C68.08,16.3,66.26,16.91,64.45,17.53z"/>
			<g>
				<path d="M58.74,21.61c-1.22-1.94,2.38-2.75,3.54-3.12c1.99-0.63,4.01-1.18,6.03-1.68c4.04-1,8.1-1.95,12.17-2.81
					c1-0.21,2.03-0.41,3.05-0.26c0.4,0.06,0.81,0.17,1.17,0.34c0.54,0.26,1,0.61,0.62,1.22c-0.89,1.44-2.43,2.48-3.89,3.25
					c-3.37,1.77-7.09,2.99-10.83,3.69c-2.19,0.41-4.42,0.63-6.65,0.65C62.31,22.93,59.86,23.12,58.74,21.61
					c-0.37-0.5-1.22-0.01-0.84,0.49c1.06,1.41,2.83,1.71,4.48,1.76c2.28,0.07,4.56-0.07,6.82-0.4c4.4-0.63,8.78-1.99,12.72-4.07
					c1.64-0.86,3.34-2.06,4.29-3.68c1.18-2.01-1.72-2.95-3.23-3c-1.12-0.04-2.24,0.22-3.33,0.46c-1.25,0.28-2.5,0.57-3.75,0.85
					c-2.39,0.55-4.78,1.09-7.16,1.67c-2.64,0.64-5.27,1.35-7.84,2.21c-0.94,0.32-2,0.63-2.69,1.39c-0.71,0.79-0.87,1.89-0.3,2.8
					C58.23,22.63,59.07,22.15,58.74,21.61z"/>
			</g>
			
				<linearGradient id="SVGID_00000135692125795167604620000003617716135764016528_" gradientUnits="userSpaceOnUse" x1="23.9707" y1="62.9251" x2="11.0622" y2="65.6336" gradientTransform="matrix(1 0 0 -1 0 149.8898)">
				<stop  offset="0" style="stop-color:#000000"/>
				<stop  offset="0.0904" style="stop-color:#0B0000;stop-opacity:0.9096"/>
				<stop  offset="0.2496" style="stop-color:#280000;stop-opacity:0.7504"/>
				<stop  offset="0.4588" style="stop-color:#580000;stop-opacity:0.5412"/>
				<stop  offset="0.7099" style="stop-color:#9B0000;stop-opacity:0.2901"/>
				<stop  offset="0.994" style="stop-color:#EE0000;stop-opacity:6.035566e-03"/>
				<stop  offset="1" style="stop-color:#F00000;stop-opacity:0"/>
			</linearGradient>
			<path style="fill:url(#SVGID_00000135692125795167604620000003617716135764016528_);" d="M19.24,73.23
				c-0.08-0.75-0.19-1.51-0.5-2.19c-0.36-0.79-1.81-2.57-2.8-2.3c-0.16,0.04-0.31,0.13-0.44,0.24c-0.83,0.67-1.04,1.81-1.21,2.86
				c-0.78,5.03-2.05,9.76-1.72,14.93c0.32,4.96,1.66,9.87,4.04,14.25c0.22,0.4,0.45,0.8,0.81,1.07s0.88,0.38,1.27,0.14
				c0.35-0.21,0.49-0.64,0.6-1.03c0.35-1.3,0.51-2.65,0.61-3.99c0.17-2.33,0.13-4.68,0.1-7.02C19.92,84.6,19.84,79,19.26,73.44
				C19.25,73.37,19.25,73.3,19.24,73.23z"/>
			<g>
				<path d="M51.94,24.88c-3.29,1.99-6.79,3.53-10.26,5.16c-1.81,0.85-3.52,1.8-5.19,2.91c-1.47,0.98-2.99,1.93-4.34,3.08
					c-2.58,2.22-4.55,5.09-5.74,8.28c-0.7,1.89-1.16,3.87-2.01,5.7c-0.83,1.79-1.97,3.42-2.92,5.16c-1.03,1.9-1.89,3.9-3.08,5.71
					c-1.16,1.77-2.64,3.33-4.32,4.61c-0.28,0.21-0.35,0.65,0,0.84c0.01,0.01,0.02,0.01,0.04,0.02c-0.07-0.1-0.15-0.19-0.22-0.29
					c0.37,0.94,1.11,1.5,1.73,2.27c0.57,0.71,1.21,1.41,1.91,2c0.2,0.16,0.56,0.29,0.7,0.5c0.23,0.35,0.28,1,0.37,1.4
					c0.31,1.33,0.51,2.69,0.65,4.05c0.27,2.57,0.53,5.14,0.21,7.72c-0.16,1.3-0.06,2.56,0.07,3.86c0.14,1.3,0.16,2.59,0.08,3.9
					c-0.16,2.7-0.37,5.41-0.56,8.11c-0.03,0.45-0.05,0.93-0.24,1.34c-0.29,0.64-0.94,0.56-1.39,0.11c-0.39-0.4-0.65-0.95-0.92-1.44
					c-0.29-0.54-0.57-1.1-0.82-1.66c-1.93-4.27-2.61-8.99-2.58-13.64c0.01-2.68,0.25-5.36,0.63-8.01c0.19-1.31,0.41-2.62,0.66-3.93
					c0.22-1.17,0.41-2.46,1.39-3.25c0.49-0.39-0.21-1.08-0.69-0.69c-0.87,0.7-1.24,1.77-1.47,2.82c-0.28,1.27-0.49,2.57-0.69,3.86
					c-0.4,2.53-0.68,5.08-0.77,7.64c-0.19,5.1,0.4,10.29,2.39,15.02c0.49,1.16,1.03,2.36,1.74,3.41c0.56,0.83,1.61,1.61,2.63,1.06
					c0.85-0.46,1.02-1.51,1.09-2.38c0.12-1.48,0.21-2.96,0.31-4.43c0.1-1.46,0.22-2.91,0.29-4.37c0.07-1.47-0.06-2.89-0.2-4.35
					c-0.06-0.68-0.11-1.37-0.07-2.05c0.04-0.76,0.19-1.5,0.24-2.26c0.1-1.38-0.05-2.76-0.16-4.14c-0.13-1.61-0.28-3.22-0.55-4.81
					c-0.14-0.81-0.3-1.61-0.52-2.41c-0.1-0.38-0.16-0.83-0.44-1.14c-0.29-0.32-0.72-0.51-1.04-0.81c-0.39-0.38-0.82-0.76-1.18-1.18
					c-0.42-0.48-0.81-0.96-1.25-1.42c-0.21-0.22-0.4-0.46-0.54-0.73c-0.11-0.21-0.14-0.41-0.36-0.53c0,0.28,0,0.56,0,0.84
					c1.43-1.08,2.7-2.32,3.8-3.74c1.16-1.51,2.04-3.18,2.9-4.88c0.89-1.76,1.88-3.45,2.87-5.15c0.97-1.67,1.7-3.4,2.29-5.23
					c0.58-1.81,1.15-3.6,2.07-5.27c0.83-1.52,1.87-2.92,3.08-4.16c1.26-1.3,2.7-2.3,4.19-3.3c1.64-1.11,3.28-2.23,5.07-3.09
					c3.89-1.89,7.88-3.55,11.59-5.8C52.97,25.39,52.48,24.55,51.94,24.88L51.94,24.88z"/>
			</g>
			<path class="st22" d="M115.68,92.99c0,0,11.5,1.14,18.99-2.05"/>
			
				<linearGradient id="SVGID_00000026154509959076836550000009444753338151425469_" gradientUnits="userSpaceOnUse" x1="114.0775" y1="58.8949" x2="135.4237" y2="58.8949" gradientTransform="matrix(1 0 0 -1 0 149.8898)">
				<stop  offset="0" style="stop-color:#000000"/>
				<stop  offset="0.0905" style="stop-color:#0B0000;stop-opacity:0.9121"/>
				<stop  offset="0.2499" style="stop-color:#280000;stop-opacity:0.7575"/>
				<stop  offset="0.4591" style="stop-color:#580000;stop-opacity:0.5544"/>
				<stop  offset="0.7075" style="stop-color:#9A0000;stop-opacity:0.3134"/>
				<stop  offset="0.8992" style="stop-color:#D10000;stop-opacity:0.1273"/>
				<stop  offset="1" style="stop-color:#F00000;stop-opacity:0"/>
			</linearGradient>
			<path style="fill:url(#SVGID_00000026154509959076836550000009444753338151425469_);" d="M122.96,87.86
				c-1.63,0.41-3.22,1.08-4.64,1.84c-0.65,0.28-1.28,0.59-1.91,0.92c-0.11-0.02-0.22-0.01-0.31,0.09c-0.05,0.05-0.1,0.11-0.15,0.16
				c-0.74,0.4-1.47,0.99-1.78,1.82c-0.17,0.47-0.12,1.06,0.27,1.38c0.15,0.12,0.33,0.19,0.51,0.25c0.99,0.32,2.06,0.28,3.11,0.21
				c4.82-0.32,9.75-1.2,13.85-3.76c0.4-0.25,0.79-0.52,1.22-0.7c0.6-0.26,1.27-0.37,1.93-0.31c0.07,0.01,0.14,0.01,0.21-0.01
				c0.18-0.06,0.2-0.34,0.07-0.49s-0.33-0.2-0.52-0.24c-1.5-0.34-2.99-0.68-4.49-1.02c-0.98-0.22-1.97-0.45-2.97-0.54
				C125.91,87.32,124.42,87.49,122.96,87.86z"/>
			<g>
				<path d="M91.07,20.85c4.09,1.48,8.19,2.95,12.28,4.43c3.72,1.34,7.72,2.45,11.1,4.56c6.36,3.97,8.55,11.64,10.6,18.38
					c0.6,1.96,1.17,3.94,1.98,5.82c0.76,1.75,1.75,3.38,2.6,5.09c0.9,1.8,1.57,3.72,2.26,5.61c0.71,1.97,1.39,3.95,2.02,5.95
					c1.27,4.02,2.37,8.09,3.29,12.21c0.24,1.05,0.46,2.1,0.67,3.16c0.09,0.47,0.19,0.94,0.28,1.41c0.1,0.54,0.31,1.2,0.15,1.75
					c-0.18,0.63-0.63,0.7-1.16,0.44c-0.43-0.21-0.85-0.43-1.28-0.62c-0.81-0.36-1.65-0.68-2.5-0.94c-3.46-1.06-7.17-1.26-10.74-0.63
					c-1.75,0.31-3.45,0.84-5.07,1.56c-1.57,0.7-3.13,1.67-3.81,3.32c-0.31,0.76-0.37,1.56-0.17,2.35c0.24-0.18,0.48-0.37,0.72-0.55
					c-2.2-1.5-4.18-3.31-5.85-5.39c-0.83-1.03-1.58-2.13-2.25-3.28c-0.73-1.25-1.3-2.57-1.97-3.85c-0.66-1.29-1.52-2.43-2.31-3.64
					c-0.78-1.19-1.4-2.48-1.9-3.82C99,71.46,98.4,68.6,97.7,65.8c-0.82-3.28-1.72-6.53-3.07-9.64c-0.25-0.57-1.09-0.08-0.84,0.49
					c1.23,2.85,2.07,5.84,2.83,8.84c0.73,2.89,1.32,5.82,2.33,8.63c0.47,1.31,1.04,2.6,1.76,3.8c0.76,1.26,1.69,2.4,2.39,3.7
					c0.7,1.28,1.27,2.64,1.98,3.91c0.67,1.2,1.43,2.33,2.27,3.42c1.81,2.34,3.99,4.37,6.43,6.03c0.37,0.25,0.81-0.16,0.72-0.55
					c-0.52-2.06,1.36-3.53,2.98-4.32c1.66-0.82,3.47-1.37,5.29-1.7c3.69-0.68,7.55-0.37,11.09,0.86c0.92,0.32,1.81,0.72,2.69,1.16
					c0.69,0.35,1.41,0.55,2.06,0.01c0.66-0.55,0.76-1.41,0.65-2.21c-0.13-1.02-0.37-2.03-0.58-3.03c-0.86-4.19-1.91-8.34-3.13-12.44
					c-1.22-4.09-2.6-8.14-4.18-12.1c-0.69-1.74-1.63-3.36-2.5-5.01c-0.96-1.82-1.65-3.71-2.27-5.67c-2.19-6.85-3.91-14.61-9.64-19.5
					c-2.93-2.5-6.62-3.72-10.19-5c-4.13-1.49-8.26-2.98-12.39-4.47c-1.02-0.37-2.05-0.74-3.07-1.11
					C90.74,19.7,90.49,20.64,91.07,20.85L91.07,20.85z"/>
			</g>
			<path class="st24" d="M114.06,94.58c0,0,19.55,2.84,24.34-4.56"/>
		</g>
	</g>
</g>
</svg>
