<?xml version="1.0" encoding="utf-8"?>
<!-- Generator: Adobe Illustrator 28.0.0, SVG Export Plug-In . SVG Version: 6.00 Build 0)  -->
<svg version="1.1" id="Layer_1" xmlns="http://www.w3.org/2000/svg" xmlns:xlink="http://www.w3.org/1999/xlink" x="0px" y="0px"
	 viewBox="0 0 150 150" style="enable-background:new 0 0 150 150;" xml:space="preserve">
<style type="text/css">
	.st0{stroke:#000000;stroke-width:2;stroke-miterlimit:10;}
	.st1{fill:#191919;}
	.st2{fill:#F00000;}
	.st3{fill:#A58D6C;}
	.st4{fill:#6B5A45;}
	.st5{fill:#EE0046;}
	.st6{fill:url(#SVGID_1_);}
	.st7{fill:url(#SVGID_00000093895535460864470650000015163158974582342847_);}
	.st8{fill:url(#SVGID_00000137130951566247286830000007656155718225089705_);}
	.st9{fill:url(#SVGID_00000082344529638605251160000001833857549636038070_);}
	.st10{fill:url(#SVGID_00000139274164080375825610000006044865149653011882_);}
	.st11{fill:url(#SVGID_00000138544740707082903970000012504079854969224887_);}
	.st12{fill:url(#SVGID_00000134950136883331585830000004560115343257124758_);}
	.st13{fill:url(#SVGID_00000070819242113694603660000016496538821007962510_);}
	.st14{fill:url(#SVGID_00000125573191031022764500000008755455086031103122_);}
	.st15{fill:url(#SVGID_00000056420664147724041170000004509853960825700279_);}
	.st16{fill:url(#SVGID_00000066486564158295038330000004745698423610922930_);}
	.st17{fill:url(#SVGID_00000123412243326177593160000002719327946714378147_);}
	.st18{fill:url(#SVGID_00000029739847358452870400000009415581276235868604_);}
	.st19{fill:url(#SVGID_00000151525956706820003110000001910470603349669812_);}
	.st20{fill:url(#SVGID_00000145051633672841034450000006141345793307214994_);}
	.st21{fill:url(#SVGID_00000177466544553282468270000002979319428423135913_);}
	.st22{fill:url(#SVGID_00000042016439248119480020000012179905330061264266_);}
	.st23{fill:url(#SVGID_00000167388300486007957370000007180474559556638339_);}
	.st24{fill:url(#SVGID_00000157997835819274586840000017180336074004481439_);}
	.st25{fill:url(#SVGID_00000139982473367446200690000010095039162361265834_);}
	.st26{fill:url(#SVGID_00000159428935308892877450000006543540886000709006_);}
	.st27{fill:url(#SVGID_00000035508671899849231330000008061532280598890628_);}
	.st28{fill:url(#SVGID_00000183232423180271136290000003559559390878515590_);}
	.st29{fill:url(#SVGID_00000038390118427468034810000012122726988479801504_);}
	.st30{fill:url(#SVGID_00000173160216039276142940000007776186284372023213_);}
	.st31{fill:url(#SVGID_00000073721067453961769500000017800704240363234722_);}
	.st32{fill:#F4D800;}
	.st33{fill:#232323;}
	.st34{fill:none;stroke:#000000;stroke-width:0.5;stroke-miterlimit:10.0003;}
	.st35{fill:none;stroke:#000000;stroke-width:0.25;stroke-miterlimit:10;}
	.st36{fill:none;stroke:#000000;stroke-width:0.5;stroke-miterlimit:9.9999;}
	.st37{fill:none;stroke:#000000;stroke-width:0.5;stroke-miterlimit:10.0004;}
</style>
<g id="Wagey_Pants">
	<path class="st0" d="M124.39,136.13c-0.11-0.95-0.1-2.17-0.92-2.81c-0.41-0.32-0.82-0.52-1.02-1.04c-0.23-0.6-0.25-1.3-0.33-1.93
		c-0.17-1.35-0.33-2.7-0.51-4.05c-0.17-1.3-0.46-2.58-0.58-3.88c-0.12-1.23-0.21-2.43-0.43-3.65c-0.48-2.58-1.27-5.1-1.83-7.67
		c-0.57-2.59-1.06-5.19-1.35-7.82c-0.26-2.37-0.54-4.72-1.59-6.89c-0.6-1.24-1.33-2.4-1.81-3.69c-0.45-1.19-0.75-2.43-1.09-3.65
		c-0.35-1.25-0.91-2.44-1.22-3.71c-0.31-1.29-0.5-2.61-0.78-3.9c-0.56-2.6-1.04-5.16-1.23-7.82c-0.08-1.16-0.55-2.23-0.7-3.37
		c-0.17-1.32-0.26-2.64-0.43-3.96c-0.17-1.27-0.42-2.52-0.7-3.77c-0.29-1.3-0.69-2.61-0.81-3.94c-0.12-1.21-0.12-2.43-0.39-3.62
		c-0.29-1.3-0.73-2.57-1.12-3.85c-1.55-5.16-2.54-10.46-2.78-15.85c-0.06-1.25,0.19-2.46,0.19-3.71c0-1.35-0.06-2.7-0.14-4.04
		c-0.15-2.71-0.24-5.38-0.04-8.09c0.1-1.36,0.16-2.71,0.08-4.07c-0.03-0.48-0.03-1.02-0.26-1.45c-0.25-0.47-0.78-0.64-1.06-1.07
		c-0.47-0.72-0.17-1.81-0.34-2.61c-0.17-0.84-0.76-1.36-1.59-1.53c-0.75-0.16-1.52-0.25-2.28-0.33c-0.08-0.1-0.19-0.18-0.35-0.2
		c-1.03-0.11-2.06-0.17-3.09-0.22c-0.79-0.1-1.57-0.2-2.36-0.31c-2.72-0.35-5.39-0.68-8.13-0.68c-5.52,0-11.1,0.26-16.6,0.75
		c-1.15,0.1-2.28,0.3-3.41,0.5c-0.56,0.1-1.12,0.2-1.69,0.24c-0.21,0.01-0.45-0.01-0.67,0.04l0,0c-0.01,0-0.02,0-0.03,0
		c-4.38,0.52-8.65,1.57-13,2.27c-1.06,0.17-2.13,0.25-3.18,0.45c-0.82,0.16-1.62,0.34-2.44,0.47c-1.35,0.21-2.92,0.58-3.3,2.09
		c-0.21,0.84,0.04,1.68-0.02,2.52c-0.05,0.84-0.54,1.53-0.79,2.31c-0.29,0.91-0.23,2.01-0.26,2.96c-0.03,1.09-0.02,2.18,0,3.26
		c0.08,4.44,0.42,8.88,0.82,13.31c0.19,2.12,0.76,4.12,1.19,6.2c0.45,2.13,0.67,4.33,0.99,6.48c0.33,2.17,0.64,4.34,0.94,6.52
		c0.3,2.21,0.89,4.37,1.31,6.55c0.42,2.22,0.8,4.45,1.16,6.68c0.18,1.09,0.35,2.17,0.53,3.26c0.17,1.01,0.25,2.07,0.68,3.01
		c0.88,1.92,0.78,3.92,1.15,5.96c0.38,2.03,1.12,3.96,1.54,5.98c0.44,2.11,0.29,4.28,0.68,6.4c0.37,2.03,0.74,4.03,1.53,5.93
		c0.39,0.94,0.81,1.87,1.09,2.84c0.3,1.03,0.47,2.08,0.64,3.14c0.37,2.25,0.7,4.5,1.03,6.76c0.61,4.22,1.18,8.45,1.82,12.67
		c0.11,0.73,0.3,1.75-0.16,2.39c-0.21,0.28-0.46,0.47-0.54,0.83c-0.1,0.42,0,0.9,0.04,1.33c0.1,1.07,0.19,2.14,0.31,3.2
		c0.09,0.86,0.34,1.61,1.01,2.19c1.28,1.11,3.3,1.61,4.91,1.98c1.81,0.42,3.69,0.61,5.55,0.56c3.65-0.1,7.11-1.12,10.3-2.86
		c1.12-0.61,2.71-1.39,3.13-2.72c0.29-0.94,0.07-2-0.02-2.95c-0.04-0.43-0.04-0.89-0.15-1.31c-0.11-0.39-0.35-0.52-0.59-0.81
		c-0.31-0.37-0.2-1.01-0.21-1.47c-0.01-0.63-0.02-1.26-0.03-1.89c-0.02-1.12-0.04-2.25-0.07-3.37c-0.03-1.1-0.09-2.21-0.04-3.31
		c0.05-1.11,0.2-2.21,0.34-3.31c0.13-1.06,0.24-2.13,0.22-3.2c-0.02-1.12-0.19-2.25-0.33-3.36c-0.14-1.1-0.28-2.19-0.42-3.29
		s-0.17-2.21-0.27-3.31c-0.09-1-0.3-1.95-0.67-2.89c-0.17-0.43-0.35-0.86-0.44-1.31c-0.13-0.63-0.08-1.28-0.11-1.92
		c-0.04-0.98-0.32-1.89-0.57-2.83c-0.29-1.12-0.37-2.26-0.45-3.4c-0.31-4.49-0.32-8.99-0.63-13.47c-0.07-1.06-0.2-2.12-0.15-3.18
		c0.05-1.11,0.29-2.14,0.54-3.22c0.08-0.35,0.12-0.69,0.03-1.05c-0.13-0.51-0.46-0.93-0.57-1.45c-0.2-1,0.02-2.02,0.13-3.01
		c0.09-0.76,0.06-1.5-0.01-2.23c0.35,0.81,0.7,1.61,1.02,2.43c0.99,2.49,2.14,4.94,3.04,7.46c0.4,1.12,0.66,2.2,1.26,3.24
		c0.62,1.07,1.26,2.12,1.82,3.23c1.2,2.41,1.28,5.03,1.9,7.61c0.6,2.47,1.5,4.86,2.42,7.22c0.93,2.39,1.77,4.8,2.63,7.21
		c0.41,1.14,0.94,2.18,1.48,3.26c0.3,0.61,0.52,1.21,0.57,1.89c0.06,0.69,0.01,1.38,0.07,2.06c0.22,2.61,1.17,5.17,1.92,7.66
		c0.8,2.65,1.63,5.29,2.48,7.92c0.79,2.44,1.45,5.08,2.65,7.35c0.55,1.04,1.44,1.85,2,2.9c0.28,0.52,0.51,1.06,0.69,1.61
		c0.11,0.35,0.23,0.72,0.24,1.08c0.01,0.38-0.14,0.73-0.22,1.1c-0.28,1.17,0.02,2.33,0.43,3.44c0.17,0.44,0.32,0.95,0.63,1.32
		c0.34,0.4,0.82,0.54,1.32,0.65c2.55,0.57,5.19,0.83,7.81,0.79c4.16-0.07,9.65-0.64,12.39-4.23
		C124.44,138.19,124.53,137.25,124.39,136.13z"/>
	<g>
		<path class="st1" d="M120.9,141c0.85-0.4,1.6-0.95,2.12-1.72c0.82-1.21,0.9-2.77,0.82-4.24c-0.02-0.33-0.05-0.68-0.22-0.96
			c-0.28-0.45-0.85-0.62-1.22-1c-0.41-0.41-0.55-1.02-0.66-1.59c-0.26-1.28-0.32-2.56-0.39-3.87c-0.23-4.72-1.6-9.33-2.49-13.94
			c-0.61-3.14-1.1-6.3-1.49-9.48c-0.61-5.07-3.29-9.34-4.7-14.17c-1.36-4.67-2.6-9.2-3.06-14.09c-0.1-1.08-0.37-2.15-0.55-3.23
			s-0.21-2.34-0.56-3.38c-0.46-2.77-0.91-5.47-1.52-8.22c-0.47-2.13-0.43-4.31-0.88-6.45c-0.82-3.84-2.07-7.57-2.95-11.4
			c-1.31-5.7-0.82-12.01-0.9-17.83c-0.03-1.92-0.04-3.84-0.03-5.75c0.01-1.59,0.31-3.01,0.14-4.64c-0.06-0.6-0.15-1.25-0.6-1.65
			c-0.21-0.18-0.47-0.29-0.68-0.48c-0.62-0.57-0.45-1.55-0.47-2.39c-0.01-0.26-0.04-0.54-0.18-0.76c-0.21-0.34-0.61-0.51-0.98-0.66
			c-1.3-0.52-2.57-0.35-3.95-0.43c-1.56-0.09-3.1-0.28-4.63-0.57c-1.18-0.23-2.34-0.51-3.53-0.65c-1.32-0.16-2.66-0.13-3.99-0.09
			C77.99,7.48,72.64,7.77,67.3,8.18c-4.02,0.31-8.06,1.15-12.06,1.79c-4.2,0.68-8.41,1.35-12.61,2.03
			c-0.75,0.12-1.52,0.25-2.18,0.62c-0.66,0.38-1.2,1.06-1.19,1.82c0.02,0.95,0.32,1.62,0.07,2.59c-0.25,0.98-0.76,1.87-1,2.85
			c-0.23,0.95-0.2,1.95-0.17,2.93c0.08,2.56,0.15,5.13,0.23,7.69c0.09,3.01,0.69,5.99,1,8.99c0.25,2.46,1.08,4.82,1.52,7.25
			c0.43,2.33,0.51,4.7,0.89,7.03c0.39,2.33,0.94,4.63,1.43,6.94c0.7,3.32,1.33,6.66,1.74,10.02c0.17,1.44,0.05,3.13,0.54,4.51
			c0.46,1.31,0.93,2.56,1.17,3.95c0.17,1.01,0.19,1.96,0.52,2.92c0.39,1.16,0.7,2.34,1.05,3.51c0.36,1.2,0.72,2.41,0.81,3.65
			c0.06,0.8,0,1.61,0.03,2.41c0.04,1.03,0.23,2.04,0.42,3.05c0.47,2.53,0.94,5.07,1.91,7.45c2.57,6.3,2.61,13.45,3.47,20.15
			c0.12,0.96,0.24,1.92,0.45,2.86c0.24,1.13,0.58,2.35,0.09,3.4c-0.18,0.37-0.46,0.7-0.6,1.08c-0.21,0.55-0.14,1.16-0.06,1.75
			c0.16,1.2,0.32,2.39,0.49,3.59c0.26,1.83,3.48,2.53,4.97,2.81c2.06,0.39,4.17,0.38,6.25,0.36c1.41-0.02,2.83-0.03,4.21-0.3
			c2.56-0.5,4.86-1.83,7.12-3.15c0.33-0.19,0.67-0.4,0.91-0.7c0.39-0.5,0.42-1.19,0.43-1.82c0.02-1.03,0.03-2.08-0.33-3.04
			c-0.1-0.25-0.22-0.49-0.29-0.74c-0.12-0.4-0.13-0.83-0.15-1.25c-0.09-2.25-0.39-4.46-0.28-6.72c0.11-2.27,0.44-4.53,0.41-6.81
			c-0.01-1.07-0.1-2.14-0.19-3.21c-0.18-2.16-0.36-4.32-0.55-6.48c-0.17-1.98-0.34-3.99-0.99-5.86c-0.74-2.14-0.78-4.57-1.04-6.84
			c-0.29-2.55-0.53-5.1-0.72-7.65c-0.3-4.05-0.86-8.3-0.08-12.31c0.18-0.91,0.42-1.85,0.2-2.75c-0.09-0.35-0.25-0.69-0.34-1.04
			c-0.11-0.44-0.1-0.9-0.1-1.36c0.02-1.41,0.04-2.82,0.07-4.23c0.01-0.49,0-1.07,0.3-1.47c0.56,0.44,0.58,0.99,0.77,1.62
			c0.25,0.86,0.62,1.7,0.94,2.53c0.72,1.88,1.78,3.77,2.28,5.7c0.55,2.12,1.24,4.12,2.39,6.01c0.63,1.03,1.35,2.01,1.81,3.13
			c0.57,1.39,0.68,2.91,0.93,4.39c0.56,3.43,1.82,6.69,3.2,9.86c0.32,0.74,0.8,1.52,0.99,2.3c0.14,0.58,0.12,1.13,0.31,1.71
			c0.54,1.65,1.33,3.21,2,4.82c0.87,2.09,0.89,4.21,1.22,6.42c0.18,1.18,0.58,2.07,0.95,3.2c0.42,1.26,0.63,2.57,0.95,3.86
			c0.51,2.1,1.26,4.13,2.02,6.16c0.65,1.74,1.29,3.48,1.94,5.21c0.74,2,1.57,3.67,2.8,5.4c0.68,0.96,1.28,2.08,1.15,3.24
			c-0.06,0.54-0.27,1.06-0.33,1.6c-0.06,0.56,0.05,1.12,0.16,1.67c0.25,1.27,0.7,2.76,2.2,2.96c0.6,0.08,1.19-0.05,1.81,0.02
			c0.87,0.11,1.74,0.27,2.61,0.35c3.56,0.32,7.18,0.02,10.64-0.9C119.5,141.56,120.23,141.32,120.9,141z"/>
		<path class="st2" d="M89.93,13.12c-0.59-0.1-1.18-0.2-1.76-0.29c0.08,0.52,0.2,1.05,0.25,1.57c0.05,0.47,0.1,0.95,0.22,1.41
			c0.11,0.44,0.24,0.84,0.23,1.29c-0.02,0.89-0.05,1.66,0.97,1.98c0.52,0.16,1.06,0.23,1.6,0.3c1.71,0.22,3.43,0.45,5.14,0.67
			c0.1,0.01,0.21,0.02,0.29-0.04c0.06-0.05,0.09-0.12,0.12-0.2c0.36-1.13,0.22-2.34,0.08-3.52c-0.07-0.62-0.15-1.24-0.22-1.86
			c-0.01-0.05-0.01-0.11-0.05-0.15s-0.1-0.05-0.15-0.06C94.41,13.86,92.17,13.49,89.93,13.12z"/>
		<path class="st3" d="M96.04,24.33c-0.28-0.31-0.92-0.49-1.32-0.4c-0.59,0.13-1,1.21-0.86,1.73c0.12,0.47,0.53,0.85,1.01,0.95
			s1-0.08,1.32-0.45c0.1-0.12,0.19-0.25,0.23-0.41c0.08-0.29-0.01-0.59-0.1-0.87c-0.06-0.19-0.12-0.38-0.24-0.53
			C96.06,24.35,96.05,24.34,96.04,24.33z"/>
		<path class="st3" d="M82.94,17.26c0.01-0.17-0.02-0.33-0.11-0.48c-0.12-0.2-0.31-0.35-0.51-0.47c-0.24-0.16-0.53-0.26-0.82-0.19
			c-0.23,0.05-0.41,0.21-0.53,0.4c-0.13,0.08-0.24,0.18-0.32,0.31c-0.25,0.39-0.2,0.96,0.06,1.34c0.16,0.24,0.41,0.41,0.68,0.49
			c0.01,0.04,0.03,0.09,0.06,0.12c0.11,0.13,0.34,0.13,0.49,0.11c0.29-0.04,0.57-0.14,0.78-0.35c0.22-0.22,0.33-0.55,0.31-0.86
			C83.02,17.53,82.99,17.39,82.94,17.26z"/>
		<path class="st3" d="M46.52,20.86c-0.16-0.25-0.45-0.42-0.74-0.42c-0.21-0.13-0.6,0-0.76,0.18c-0.24,0.28-0.31,0.65-0.22,1
			c0.05,0.18,0.13,0.35,0.24,0.5c0.11,0.16,0.23,0.32,0.39,0.44c0.21,0.16,0.51,0.23,0.74,0.07c0.2-0.13,0.28-0.34,0.37-0.56
			C46.68,21.7,46.75,21.22,46.52,20.86z"/>
		<path class="st3" d="M39.82,29.52c-0.16-0.09-0.36-0.12-0.53-0.02c-0.12,0.07-0.18,0.18-0.22,0.31c-0.04,0.07-0.06,0.14-0.08,0.21
			c-0.05,0.21-0.06,0.43-0.04,0.64c0.05,0.44,0.2,0.98,0.68,1.12c0.18,0.05,0.38,0.01,0.51-0.12c0.09-0.1,0.15-0.21,0.18-0.34
			c0.06-0.2,0.08-0.41,0.06-0.62C40.37,30.27,40.21,29.75,39.82,29.52z"/>
		<path class="st3" d="M60.32,12.53c-0.08-0.15-0.17-0.3-0.27-0.44c0,0,0,0,0-0.01l0,0c-0.06-0.08-0.12-0.15-0.19-0.22
			c-0.03-0.03-0.06-0.06-0.09-0.09c-0.24-0.23-0.54-0.39-0.88-0.45c-0.01,0-0.01,0-0.02-0.01l0,0c-0.04-0.01-0.08-0.02-0.13-0.02
			c-0.14-0.01-0.27,0.07-0.36,0.17h-0.01c-0.46,0.04-0.93,0.23-1.22,0.59c-0.23,0.28-0.31,0.6-0.33,0.93
			c-0.68,0.92,0.12,2.56,1.24,2.62c0.43,0.24,0.99,0.25,1.43,0.06c0.54-0.23,0.93-0.74,1.07-1.3C60.74,13.75,60.61,13.1,60.32,12.53
			z"/>
		<path class="st4" d="M59.07,13.44c-0.01-0.07-0.02-0.14-0.05-0.21c-0.02-0.05-0.04-0.11-0.07-0.16s-0.07-0.09-0.1-0.14
			c-0.04-0.06-0.1-0.1-0.15-0.14c-0.02-0.01-0.03-0.03-0.05-0.05c-0.04-0.03-0.07-0.05-0.11-0.07c-0.14-0.06-0.27-0.09-0.42-0.05
			c-0.11,0.03-0.21,0.09-0.29,0.17c-0.08,0.09-0.14,0.19-0.17,0.3c-0.03,0.09-0.04,0.19-0.04,0.29c0,0.08,0.01,0.17,0.03,0.25
			c0.03,0.16,0.11,0.31,0.22,0.43c0,0,0,0,0.01,0c0,0.01,0.01,0.01,0.01,0.02c0.04,0.04,0.09,0.08,0.13,0.11
			c0.05,0.03,0.11,0.06,0.16,0.07c0.04,0.01,0.09,0.01,0.13,0.02c0.02,0,0.04,0.01,0.06,0.01c0.12,0,0.23-0.03,0.33-0.09
			c0.07-0.04,0.14-0.09,0.19-0.16c0.07-0.09,0.13-0.17,0.16-0.29C59.08,13.65,59.08,13.55,59.07,13.44z"/>
		<path class="st4" d="M82.01,18.14c-0.01-0.07-0.02-0.14-0.04-0.2c-0.07-0.3-0.22-0.55-0.47-0.73c-0.06-0.04-0.12-0.08-0.18-0.12
			c-0.01-0.01-0.02-0.02-0.04-0.02c-0.01-0.01-0.01-0.01-0.02-0.01c0,0,0,0-0.01-0.01c-0.03-0.03-0.07-0.06-0.1-0.08
			c0.03,0.03-0.03-0.02-0.04-0.04c-0.02-0.02-0.02-0.02-0.03-0.05c-0.01-0.03-0.03-0.07-0.01-0.1c0.04-0.09-0.04-0.18-0.14-0.14
			c-0.14,0.07-0.21,0.23-0.21,0.39c-0.13,0.05-0.24,0.17-0.23,0.32c0.01,0.3,0.1,0.61,0.27,0.86c0.15,0.23,0.38,0.5,0.66,0.58
			c0.01,0,0.02,0.01,0.03,0.02c0.28,0.09,0.57-0.12,0.58-0.42C82.04,18.31,82.02,18.22,82.01,18.14z"/>
		<path class="st4" d="M95.22,25.04c-0.06-0.06-0.13-0.12-0.19-0.19c-0.03-0.03-0.06-0.06-0.09-0.1c0,0,0,0-0.01-0.01
			c-0.01-0.02-0.02-0.03-0.03-0.05c-0.02-0.04-0.04-0.08-0.06-0.12l0,0l0,0c0-0.02-0.01-0.05-0.02-0.07
			c-0.01-0.03-0.02-0.06-0.03-0.08c0,0,0-0.01,0-0.02c-0.01-0.03-0.02-0.06-0.02-0.09c-0.01-0.09-0.09-0.17-0.19-0.14
			c-0.17,0.05-0.28,0.19-0.32,0.35c-0.04,0-0.07,0.02-0.1,0.04c-0.05,0.04-0.09,0.09-0.12,0.15c-0.04,0.07-0.07,0.15-0.07,0.24v0.01
			c-0.05,0.09-0.08,0.18-0.09,0.27c-0.04,0.25-0.01,0.47,0.1,0.7c0.18,0.39,0.57,0.63,0.96,0.74c0.18,0.05,0.39-0.03,0.5-0.18
			c0.12-0.04,0.21-0.14,0.25-0.26C95.82,25.76,95.54,25.36,95.22,25.04z"/>
		<path class="st4" d="M46.4,21.03c-0.02-0.08-0.04-0.15-0.07-0.23c-0.04-0.09-0.1-0.15-0.13-0.22c-0.09-0.17-0.37-0.13-0.41,0.05
			c-0.02,0.09-0.02,0.17,0,0.26c0.01,0.03,0.02,0.05,0.02,0.08c0,0.01,0.01,0.03,0.01,0.04c0,0,0,0,0,0.01c0,0.06,0,0.12,0,0.17
			c0,0,0,0,0,0.01s0,0.02-0.01,0.02c-0.01,0.03-0.02,0.06-0.02,0.08c0,0.01,0,0.01,0,0.01c0,0.01-0.01,0.01-0.01,0.02
			c-0.01,0.03-0.03,0.05-0.04,0.08c-0.01,0.01-0.01,0.02-0.02,0.02c-0.02,0.02-0.05,0.05-0.07,0.07l0,0
			c-0.01,0.01-0.02,0.01-0.03,0.02c-0.04,0.03-0.08,0.06-0.11,0.08c-0.07,0.05-0.13,0.12-0.17,0.19c-0.09,0.16-0.11,0.36-0.06,0.53
			c0.07,0.25,0.28,0.44,0.55,0.37c0.16-0.04,0.31-0.17,0.42-0.28c0.1-0.1,0.19-0.22,0.25-0.35C46.67,21.76,46.79,21.24,46.4,21.03z"
			/>
		<path class="st4" d="M40.47,30.5c-0.03-0.16-0.14-0.3-0.29-0.36c-0.03-0.07-0.08-0.14-0.13-0.2c-0.08-0.09-0.17-0.2-0.29-0.24
			c-0.05-0.02-0.11,0.02-0.12,0.07c-0.03,0.1,0,0.21-0.01,0.32c-0.01,0.12,0.01,0.24,0,0.36c0,0.03,0,0.1-0.01,0.13
			c0-0.01,0-0.02,0.01-0.04c0,0.02-0.01,0.03-0.01,0.05c0,0.01,0,0.02-0.01,0.02c0,0.01,0,0,0,0.01c-0.01,0.02-0.02,0.03-0.03,0.04
			s-0.02,0.01-0.02,0.02c-0.06,0.06-0.11,0.12-0.17,0.19c-0.09,0.12-0.14,0.26-0.14,0.41c0,0.23,0.16,0.44,0.38,0.51
			c0.18,0.06,0.38,0.01,0.52-0.12c0.11-0.11,0.17-0.26,0.22-0.41C40.47,31.02,40.52,30.76,40.47,30.5z"/>
		<path class="st5" d="M121.11,139.42c-0.09-0.38-0.23-0.76-0.36-1.09c-0.13-0.32-0.29-0.64-0.55-0.87s-0.64-0.34-0.96-0.21
			c-0.21,0.09-0.38,0.27-0.51,0.46c-0.13,0.2-0.09,0.4-0.05,0.64c0.08,0.44,0.25,0.84,0.35,1.26c0.11,0.43,0.17,0.86,0.34,1.28
			c0.04,0.1,0.09,0.2,0.18,0.25c0.11,0.06,0.25,0.02,0.37-0.02c0.37-0.14,1.28-0.4,1.29-0.88
			C121.22,139.97,121.18,139.69,121.11,139.42z"/>
		<path class="st5" d="M123.6,137.64c-0.18-0.5-0.48-1.64-1.14-1.69c-0.21-0.01-0.41,0.07-0.6,0.17c-0.07,0.04-0.14,0.08-0.19,0.14
			c-0.18,0.21-0.09,0.53,0.01,0.79c0.26,0.74,0.45,1.51,0.55,2.28c0.01,0.11,0.06,0.26,0.17,0.27c0.05,0,0.09-0.02,0.13-0.04
			c0.36-0.18,0.6-0.59,0.85-0.9c0.11-0.14,0.24-0.28,0.28-0.46C123.71,138.01,123.67,137.82,123.6,137.64z"/>
		<path class="st5" d="M76.09,134.7c-0.03-0.26-0.04-0.51-0.07-0.77c-0.05-0.49-0.1-0.97-0.17-1.46c-0.13-0.88-1.23-1.58-1.91-0.74
			c-0.07,0.09-0.13,0.19-0.13,0.31c0,0.06,0.02,0.13,0.03,0.19c0.19,0.7,0.3,1.42,0.41,2.13c0.09,0.58,0.08,1.46,0.42,1.97
			c0.38-0.1,0.75-0.25,1.08-0.46c0.12-0.07,0.24-0.15,0.31-0.27c0.11-0.17,0.1-0.39,0.07-0.59C76.11,134.92,76.1,134.81,76.09,134.7
			z"/>
		<path class="st5" d="M78.56,131.65c-0.08-0.26-0.18-0.51-0.3-0.75s-0.29-0.54-0.54-0.67c-0.23-0.12-0.49-0.03-0.64,0.15
			c-0.18,0.04-0.33,0.19-0.41,0.37c-0.17,0.37-0.05,0.78,0.03,1.15c0.21,0.95,0.46,1.88,0.66,2.82c0,0.02,0.01,0.03,0.02,0.04
			c0.01,0.01,0.03,0.01,0.04,0.01c0.37-0.04,0.7-0.26,1.01-0.47c0.07-0.04,0.13-0.09,0.18-0.15s0.09-0.13,0.12-0.21
			C79.01,133.28,78.76,132.29,78.56,131.65z"/>
		
			<linearGradient id="SVGID_1_" gradientUnits="userSpaceOnUse" x1="45.9059" y1="16.5786" x2="63.0285" y2="16.3298" gradientTransform="matrix(1 0 0 -1 0 149.8898)">
			<stop  offset="0" style="stop-color:#191919"/>
			<stop  offset="0.3827" style="stop-color:#595959;stop-opacity:0.6173"/>
			<stop  offset="0.8018" style="stop-color:#9A9A9A;stop-opacity:0.1982"/>
			<stop  offset="1" style="stop-color:#B3B3B3;stop-opacity:0"/>
		</linearGradient>
		<path class="st6" d="M55.15,129.79c-0.1,0.47-0.1,1.06-0.03,1.4c0.23,1.27,0.47,2.53,0.7,3.8c0.05,0.24,0.09,0.49,0.22,0.7
			c0.17,0.27,0.46,0.45,0.75,0.6c1.27,0.68,2.64,1.19,4.05,1.5c0.74,0.16,1.51,0.26,2.24,0.07c1.73-0.46,2.62-2.36,4.11-3.35
			c0.27-0.18,0.58-0.35,0.67-0.66c0.19-0.59-0.54-1.04-1.14-1.19c-1.54-0.37-3.14-0.36-4.71-0.55c-0.99-0.12-1.86-0.5-2.84-0.72
			c-1.11-0.25-2.09-0.93-2.78-1.83C55.67,128.63,55.3,129.09,55.15,129.79z"/>
		
			<linearGradient id="SVGID_00000026849060922233161390000003740224077907356596_" gradientUnits="userSpaceOnUse" x1="45.2412" y1="29.9266" x2="56.7353" y2="33.2813" gradientTransform="matrix(1 0 0 -1 0 149.8898)">
			<stop  offset="0" style="stop-color:#191919"/>
			<stop  offset="0.3827" style="stop-color:#595959;stop-opacity:0.6173"/>
			<stop  offset="0.8018" style="stop-color:#9A9A9A;stop-opacity:0.1982"/>
			<stop  offset="1" style="stop-color:#B3B3B3;stop-opacity:0"/>
		</linearGradient>
		<path style="fill:url(#SVGID_00000026849060922233161390000003740224077907356596_);" d="M57.93,124.88
			c0.51-0.46,0.71-1.17,0.86-1.84c0.38-1.66,0.63-3.36,0.75-5.06c0.05-0.67,0.08-1.35-0.07-2c-0.15-0.62-0.46-1.2-0.8-1.74
			c-1.45-2.32-3.48-4.21-5.47-6.08c-0.1,0.92,0.03,1.84,0.15,2.76c0.53,3.86,1.06,7.72,1.58,11.58c0.11,0.81,0.07,3.15,0.8,3.67
			c0.47,0.34,0.58-0.14,0.91-0.44C57.03,125.39,57.55,125.24,57.93,124.88z"/>
		
			<linearGradient id="SVGID_00000170979034411209142740000008375962714138382521_" gradientUnits="userSpaceOnUse" x1="39.5523" y1="50.566" x2="52.6396" y2="53.4406" gradientTransform="matrix(1 0 0 -1 0 149.8898)">
			<stop  offset="0" style="stop-color:#191919"/>
			<stop  offset="0.3827" style="stop-color:#595959;stop-opacity:0.6173"/>
			<stop  offset="0.8018" style="stop-color:#9A9A9A;stop-opacity:0.1982"/>
			<stop  offset="1" style="stop-color:#B3B3B3;stop-opacity:0"/>
		</linearGradient>
		<path style="fill:url(#SVGID_00000170979034411209142740000008375962714138382521_);" d="M50.57,97.37
			c-0.01-0.07-0.01-0.15,0.05-0.18c0.04-0.03,0.09-0.02,0.14-0.01c0.69,0.11,1.37,0.29,2.02,0.54c0.32,0.12,0.64,0.26,0.99,0.3
			c0.34,0.04,0.72-0.03,0.96-0.27c-0.32-0.63-0.73-1.22-1.2-1.75c-0.23-0.26-0.48-0.51-0.63-0.83c-0.18-0.4-0.16-0.86-0.19-1.3
			c-0.05-0.66-0.23-1.31-0.47-1.94c-0.08-0.2-0.16-0.4-0.29-0.56c-0.24-0.3-0.6-0.46-0.94-0.61c-0.63-0.28-1.25-0.55-1.88-0.83
			c-0.15,0.79-0.05,1.61,0.05,2.42s0.21,1.63,0.31,2.44c0.08,0.64,0.16,1.27,0.3,1.9c0.14,0.63,0.34,1.24,0.53,1.85
			c0.3,0.92,0.59,1.85,0.89,2.77c0.14,0.45,0.29,0.89,0.43,1.34c0.12,0.36,0.19,0.93,0.45,1.21C51.45,101.7,50.81,99.63,50.57,97.37
			z"/>
		
			<linearGradient id="SVGID_00000129896417197406022430000004645865194093476744_" gradientUnits="userSpaceOnUse" x1="22.5052" y1="114.7631" x2="44.3651" y2="115.5863" gradientTransform="matrix(1 0 0 -1 0 149.8898)">
			<stop  offset="0" style="stop-color:#191919"/>
			<stop  offset="0.3827" style="stop-color:#595959;stop-opacity:0.6173"/>
			<stop  offset="0.8018" style="stop-color:#9A9A9A;stop-opacity:0.1982"/>
			<stop  offset="1" style="stop-color:#B3B3B3;stop-opacity:0"/>
		</linearGradient>
		<path style="fill:url(#SVGID_00000129896417197406022430000004645865194093476744_);" d="M42.6,56.67
			c-0.28-1.8-0.3-3.64-0.06-5.45c0.1-0.75,0.26-1.51,0.65-2.15c0.8-1.31,2.39-1.86,3.86-2.31c-0.79-1.07-1.84-1.94-3.03-2.51
			c-0.23-0.11-0.49-0.24-0.54-0.49c-0.03-0.17,0.05-0.33,0.12-0.49c1.64-3.25,3.27-6.5,4.91-9.75c0.21-0.43,0.41-1,0.06-1.33
			c-0.23-0.22-0.58-0.21-0.89-0.17c-0.64,0.07-1.31,0.2-1.92-0.02c-0.64-0.23-1.13-0.82-1.81-0.89c-0.28-0.03-0.56,0.03-0.83,0.1
			c-0.96,0.23-1.92,0.45-2.88,0.68c0.3-0.88,0.17-1.89-0.33-2.67c0.3-0.41,0.72-0.73,1.2-0.91c-0.05-0.52-0.66-0.75-1.03-1.12
			c-0.62-0.61-0.57-1.6-0.43-2.45c0.29-1.77,0.83-3.49,1.59-5.11c0.09-0.2,0.19-0.43,0.12-0.64c-0.07-0.19-0.25-0.3-0.43-0.4
			c-0.29-0.16-0.59-0.34-0.74-0.64c-0.36-0.7,0.37-1.51,1.13-1.75c0.75-0.24,1.61-0.22,2.26-0.67c1.05-0.73,1.02-2.26,0.88-3.53
			c-1.02,0.08-2.04,0.15-3.06,0.23c-0.37,0.03-0.77,0.07-1.06,0.31c-0.47,0.41-0.39,1.14-0.41,1.76c-0.05,1.49-0.88,2.83-1.26,4.28
			c-0.24,0.93-0.29,1.9-0.32,2.86c-0.29,8.75,0.65,17.55,2.79,26.04c0.12,0.47-0.06,0.76,0.02,1.23
			C41.61,51.28,42.18,54.09,42.6,56.67z"/>
		
			<linearGradient id="SVGID_00000043438766070901093780000011378664043366177951_" gradientUnits="userSpaceOnUse" x1="32.4787" y1="69.7167" x2="50.7787" y2="74.4708" gradientTransform="matrix(1 0 0 -1 0 149.8898)">
			<stop  offset="0" style="stop-color:#191919"/>
			<stop  offset="0.3827" style="stop-color:#595959;stop-opacity:0.6173"/>
			<stop  offset="0.8018" style="stop-color:#9A9A9A;stop-opacity:0.1982"/>
			<stop  offset="1" style="stop-color:#B3B3B3;stop-opacity:0"/>
		</linearGradient>
		<path style="fill:url(#SVGID_00000043438766070901093780000011378664043366177951_);" d="M44.8,69.68
			c0.08,0.2,0.17,0.41,0.34,0.53c0.13,0.09,0.29,0.12,0.43,0.19c0.74,0.35,0.91,1.52,1.71,1.67c0.41,0.07,0.79-0.17,1.14-0.39
			c2.62-1.65,5.58-2.76,8.64-3.24c0.99-0.16,2.11-0.3,3.08,0.02c-1.04,0.49-2.02,0.5-2.91,1.27c-1.03,0.89-1.96,1.9-2.77,2.98
			c-0.2,0.27-0.4,0.56-0.46,0.89c-0.04,0.25,0.01,0.51-0.03,0.76c-0.09,0.67-0.72,1.14-1.34,1.4c-0.63,0.26-1.32,0.39-1.87,0.78
			c-0.93,0.64-1.27,1.84-1.49,2.94c-0.2,1.02-0.58,2.29-0.48,3.33c0.06,0.57,0.31,0.9,0.14,1.51c-0.06,0.22-0.78,1.22-0.74,1.33
			c-0.46-1.25-0.9-2.51-1.11-3.83c-0.11-0.71-0.15-1.42-0.25-2.13c-0.1-0.69-0.25-1.37-0.4-2.04c-0.74-3.3-1.19-6.87-2.27-10.07
			C44.32,68.29,44.54,69,44.8,69.68z"/>
		
			<linearGradient id="SVGID_00000171717297179607832660000015529542861170499210_" gradientUnits="userSpaceOnUse" x1="48.0431" y1="121.9722" x2="59.0313" y2="123.7507" gradientTransform="matrix(1 0 0 -1 0 149.8898)">
			<stop  offset="0" style="stop-color:#191919"/>
			<stop  offset="0.3827" style="stop-color:#595959;stop-opacity:0.6173"/>
			<stop  offset="0.8018" style="stop-color:#9A9A9A;stop-opacity:0.1982"/>
			<stop  offset="1" style="stop-color:#B3B3B3;stop-opacity:0"/>
		</linearGradient>
		<path style="fill:url(#SVGID_00000171717297179607832660000015529542861170499210_);" d="M55.47,18.44
			c-0.4,0.79,0.14,2.08,0.32,2.87c0.24,1.07,0.5,2.14,0.78,3.2c0.36,1.33,0.76,2.66,1.24,3.95c0.46,1.24,0.88,2.6,1.65,3.68
			c0.65,0.91,1.51,1.65,2.37,2.37c-1.51-1.84-2.37-4.2-2.42-6.58c-0.01-0.31,0-0.62,0.1-0.92c0.28-0.79,1.2-1.33,1.2-2.17
			c0-0.34-0.16-0.66-0.27-0.98c-0.2-0.63-0.18-1.3-0.15-1.95c0.05-1.33,0.1-2.66,0.15-3.99c0-0.09,0.01-0.19-0.05-0.27
			c-0.06-0.09-0.17-0.12-0.28-0.14c-0.84-0.17-1.71-0.14-2.54,0.06C57.12,17.68,55.68,18.01,55.47,18.44z"/>
		
			<linearGradient id="SVGID_00000123401587565789633160000018037543198799264676_" gradientUnits="userSpaceOnUse" x1="47.0183" y1="108.8629" x2="59.0163" y2="110.8048" gradientTransform="matrix(1 0 0 -1 0 149.8898)">
			<stop  offset="0" style="stop-color:#191919"/>
			<stop  offset="0.3827" style="stop-color:#595959;stop-opacity:0.6173"/>
			<stop  offset="0.8018" style="stop-color:#9A9A9A;stop-opacity:0.1982"/>
			<stop  offset="1" style="stop-color:#B3B3B3;stop-opacity:0"/>
		</linearGradient>
		<path style="fill:url(#SVGID_00000123401587565789633160000018037543198799264676_);" d="M58.69,38.06
			c-0.85-0.25-2.02,0.15-2.84,0.4c-0.94,0.28-1.85,0.65-2.74,1.03c-1.99,0.85-3.99,1.68-5.88,2.76c-0.02,0.01-0.01,0.05,0.02,0.04
			c2-0.54,3.92-1.31,5.85-2.07c0.91-0.36,1.82-0.73,2.76-1.02c0.43-0.13,0.87-0.25,1.32-0.34c0.49-0.1,1.05-0.08,1.52-0.27
			C58.93,38.48,58.97,38.14,58.69,38.06z"/>
		
			<linearGradient id="SVGID_00000179613518904361875250000010945658416313566373_" gradientUnits="userSpaceOnUse" x1="47.6586" y1="106.5166" x2="52.7206" y2="107.3359" gradientTransform="matrix(1 0 0 -1 0 149.8898)">
			<stop  offset="0" style="stop-color:#191919"/>
			<stop  offset="0.3827" style="stop-color:#595959;stop-opacity:0.6173"/>
			<stop  offset="0.8018" style="stop-color:#9A9A9A;stop-opacity:0.1982"/>
			<stop  offset="1" style="stop-color:#B3B3B3;stop-opacity:0"/>
		</linearGradient>
		<path style="fill:url(#SVGID_00000179613518904361875250000010945658416313566373_);" d="M52.47,42.26
			c-0.81,0.08-1.61,0.33-2.4,0.54c-0.39,0.11-0.79,0.2-1.17,0.32c-0.4,0.13-0.79,0.29-1.19,0.43c-0.03,0.01-0.02,0.06,0.01,0.05
			c0.4-0.03,0.79-0.05,1.19-0.09c0.41-0.05,0.81-0.13,1.21-0.2c0.8-0.15,1.66-0.27,2.42-0.56C52.77,42.65,52.77,42.23,52.47,42.26z"
			/>
		
			<linearGradient id="SVGID_00000133518684750578539440000013191296207126430367_" gradientUnits="userSpaceOnUse" x1="40.7756" y1="133.1104" x2="49.0678" y2="134.4525" gradientTransform="matrix(1 0 0 -1 0 149.8898)">
			<stop  offset="0" style="stop-color:#191919"/>
			<stop  offset="0.3827" style="stop-color:#595959;stop-opacity:0.6173"/>
			<stop  offset="0.8018" style="stop-color:#9A9A9A;stop-opacity:0.1982"/>
			<stop  offset="1" style="stop-color:#B3B3B3;stop-opacity:0"/>
		</linearGradient>
		<path style="fill:url(#SVGID_00000133518684750578539440000013191296207126430367_);" d="M49.06,15.49
			c-0.33-0.55-0.97-0.44-1.5-0.34c-0.77,0.15-1.54,0.3-2.31,0.47c-0.76,0.17-1.53,0.34-2.29,0.52c-0.73,0.16-1.46,0.3-2.11,0.68
			c-0.06,0.04-0.06,0.15,0.02,0.16c0.62,0.09,1.19-0.01,1.81-0.1c0.7-0.11,1.4-0.24,2.09-0.36c0.67-0.11,1.34-0.24,2.01-0.37
			c0.33-0.07,0.67-0.13,1-0.2c0.27-0.05,0.53-0.11,0.79,0.02C48.87,16.15,49.25,15.81,49.06,15.49z"/>
		
			<linearGradient id="SVGID_00000116207344188651157050000012507231942852141442_" gradientUnits="userSpaceOnUse" x1="50.3096" y1="133.919" x2="51.6127" y2="134.1299" gradientTransform="matrix(1 0 0 -1 0 149.8898)">
			<stop  offset="0" style="stop-color:#191919"/>
			<stop  offset="0.3827" style="stop-color:#595959;stop-opacity:0.6173"/>
			<stop  offset="0.8018" style="stop-color:#9A9A9A;stop-opacity:0.1982"/>
			<stop  offset="1" style="stop-color:#B3B3B3;stop-opacity:0"/>
		</linearGradient>
		<path style="fill:url(#SVGID_00000116207344188651157050000012507231942852141442_);" d="M51.48,15.63
			c-0.15-0.56-0.35-1.11-0.47-1.69c-0.05-0.26-0.09-0.52-0.08-0.78c0.01-0.26,0.09-0.51,0.12-0.77c0.02-0.21-0.26-0.29-0.39-0.16
			c-0.37,0.34-0.45,0.94-0.46,1.42c-0.02,0.59,0.15,1.17,0.28,1.73c0.29,1.22,0.4,2.42,0.33,3.68c-0.03,0.52,0.84,0.66,0.93,0.13
			C51.95,18,51.79,16.77,51.48,15.63z"/>
		
			<linearGradient id="SVGID_00000027576027876065025390000018092315091073718160_" gradientUnits="userSpaceOnUse" x1="77.3016" y1="137.0753" x2="79.3625" y2="137.4089" gradientTransform="matrix(1 0 0 -1 0 149.8898)">
			<stop  offset="0" style="stop-color:#191919"/>
			<stop  offset="0.3827" style="stop-color:#595959;stop-opacity:0.6173"/>
			<stop  offset="0.8018" style="stop-color:#9A9A9A;stop-opacity:0.1982"/>
			<stop  offset="1" style="stop-color:#B3B3B3;stop-opacity:0"/>
		</linearGradient>
		<path style="fill:url(#SVGID_00000027576027876065025390000018092315091073718160_);" d="M79.35,13.55
			c-0.07-0.72-0.07-1.44-0.16-2.16c-0.08-0.61-0.3-1.14-0.77-1.54c-0.45-0.38-0.95-0.57-1.5-0.74c-0.18-0.06-0.25,0.18-0.12,0.28
			c0.42,0.31,0.91,0.64,1.22,1.07c0.33,0.47,0.32,1.01,0.33,1.56c0.03,1.32,0.17,2.64,0.4,3.94c0.11,0.59,1,0.34,0.9-0.25
			C79.52,14.99,79.42,14.27,79.35,13.55z"/>
		
			<linearGradient id="SVGID_00000085961963219124480880000000390077083796870287_" gradientUnits="userSpaceOnUse" x1="63.8352" y1="138.6907" x2="74.1954" y2="140.3674" gradientTransform="matrix(1 0 0 -1 0 149.8898)">
			<stop  offset="0" style="stop-color:#191919"/>
			<stop  offset="0.3827" style="stop-color:#595959;stop-opacity:0.6173"/>
			<stop  offset="0.8018" style="stop-color:#9A9A9A;stop-opacity:0.1982"/>
			<stop  offset="1" style="stop-color:#B3B3B3;stop-opacity:0"/>
		</linearGradient>
		<path style="fill:url(#SVGID_00000085961963219124480880000000390077083796870287_);" d="M73.9,9.49c-0.9-0.1-1.84,0-2.73,0.06
			c-0.81,0.05-1.63,0.12-2.43,0.23c-0.84,0.11-1.67,0.25-2.5,0.42c-0.44,0.09-0.89,0.2-1.33,0.32c-0.4,0.11-0.72,0.29-1.09,0.47
			c-0.03,0.01-0.01,0.06,0.02,0.06c0.42,0,0.79,0.02,1.21-0.04c0.39-0.06,0.78-0.11,1.17-0.16c0.87-0.12,1.74-0.24,2.62-0.33
			c0.84-0.09,1.68-0.16,2.53-0.21c0.84-0.05,1.7-0.01,2.54-0.1C74.35,10.14,74.36,9.54,73.9,9.49z"/>
		
			<linearGradient id="SVGID_00000136380733978237664850000014507409704228709508_" gradientUnits="userSpaceOnUse" x1="81.7217" y1="135.5568" x2="97.5822" y2="138.1238" gradientTransform="matrix(1 0 0 -1 0 149.8898)">
			<stop  offset="0" style="stop-color:#191919"/>
			<stop  offset="0.3827" style="stop-color:#595959;stop-opacity:0.6173"/>
			<stop  offset="0.8018" style="stop-color:#9A9A9A;stop-opacity:0.1982"/>
			<stop  offset="1" style="stop-color:#B3B3B3;stop-opacity:0"/>
		</linearGradient>
		<path style="fill:url(#SVGID_00000136380733978237664850000014507409704228709508_);" d="M97.65,13.68
			c-2.7-0.7-5.45-1.2-8.21-1.58c-1.33-0.18-2.67-0.32-4-0.43c-0.69-0.05-1.37-0.09-2.06-0.1c-0.63-0.01-1.38-0.07-1.99,0.12
			c-0.11,0.03-0.1,0.17,0,0.21c0.57,0.22,1.28,0.23,1.89,0.3c0.69,0.08,1.37,0.15,2.06,0.21c1.37,0.13,2.74,0.3,4.1,0.49
			c2.7,0.39,5.35,0.94,8,1.57C97.95,14.61,98.17,13.82,97.65,13.68z"/>
		
			<linearGradient id="SVGID_00000019652799898997188790000016310685551935094658_" gradientUnits="userSpaceOnUse" x1="47.5053" y1="136.6229" x2="48.2429" y2="136.7423" gradientTransform="matrix(1 0 0 -1 0 149.8898)">
			<stop  offset="0" style="stop-color:#191919"/>
			<stop  offset="0.3827" style="stop-color:#595959;stop-opacity:0.6173"/>
			<stop  offset="0.8018" style="stop-color:#9A9A9A;stop-opacity:0.1982"/>
			<stop  offset="1" style="stop-color:#B3B3B3;stop-opacity:0"/>
		</linearGradient>
		<path style="fill:url(#SVGID_00000019652799898997188790000016310685551935094658_);" d="M48.31,13.63
			c-0.01-0.03-0.04-0.06-0.06-0.08l0,0c-0.01-0.02-0.03-0.04-0.04-0.07c-0.04-0.05-0.07-0.1-0.11-0.16
			c-0.02-0.03-0.03-0.06-0.04-0.08l0,0c0-0.01-0.01-0.02-0.01-0.03c-0.02-0.06-0.04-0.12-0.05-0.18c0-0.02-0.01-0.09-0.01-0.04
			c0-0.04-0.01-0.08-0.01-0.12s-0.02-0.07-0.03-0.11c-0.01-0.03-0.01-0.03-0.01-0.05c-0.01-0.13,0-0.24,0.04-0.36
			c0.02-0.05-0.05-0.09-0.09-0.05c-0.1,0.1-0.19,0.21-0.25,0.33c-0.04,0.07-0.08,0.14-0.1,0.21c-0.02,0.08-0.03,0.17-0.03,0.25
			c0,0.15,0.02,0.31,0.06,0.46c0.05,0.19,0.15,0.4,0.32,0.5C48,14.12,48.17,14.1,48.26,14C48.36,13.9,48.36,13.77,48.31,13.63z"/>
		
			<linearGradient id="SVGID_00000134236191615119917470000010172335470170176927_" gradientUnits="userSpaceOnUse" x1="37.85" y1="131.6204" x2="42.1833" y2="132.3217" gradientTransform="matrix(1 0 0 -1 0 149.8898)">
			<stop  offset="0" style="stop-color:#191919"/>
			<stop  offset="0.3827" style="stop-color:#595959;stop-opacity:0.6173"/>
			<stop  offset="0.8018" style="stop-color:#9A9A9A;stop-opacity:0.1982"/>
			<stop  offset="1" style="stop-color:#B3B3B3;stop-opacity:0"/>
		</linearGradient>
		<path style="fill:url(#SVGID_00000134236191615119917470000010172335470170176927_);" d="M41.3,12.59
			c-0.15,0.02-0.28,0.02-0.43,0.08c-0.16,0.07-0.29,0.16-0.42,0.27c-0.26,0.22-0.44,0.5-0.58,0.82c-0.23,0.54-0.32,1.21-0.2,1.81
			c-0.06,0.54-0.12,1.07-0.24,1.6c-0.16,0.71-0.46,1.36-0.69,2.05c-0.44,1.33-0.38,2.67-0.07,4.02c0.01,0.03,0.05,0.03,0.06,0
			c0.2-1.39,0.23-2.79,0.77-4.11c0.36-0.89,0.69-1.85,0.76-2.81c0.15-0.03,0.29-0.15,0.27-0.33c-0.03-0.34-0.11-0.67-0.13-1.01
			c-0.01-0.33,0-0.65,0.1-0.96c0.08-0.25,0.21-0.5,0.36-0.71c0.07-0.11,0.16-0.21,0.25-0.31s0.14-0.2,0.25-0.29
			C41.42,12.65,41.36,12.58,41.3,12.59z"/>
		
			<linearGradient id="SVGID_00000057836281095337130160000005735694232278501281_" gradientUnits="userSpaceOnUse" x1="40.0488" y1="107.3985" x2="41.0995" y2="107.5686" gradientTransform="matrix(1 0 0 -1 0 149.8898)">
			<stop  offset="0" style="stop-color:#191919"/>
			<stop  offset="0.3827" style="stop-color:#595959;stop-opacity:0.6173"/>
			<stop  offset="0.8018" style="stop-color:#9A9A9A;stop-opacity:0.1982"/>
			<stop  offset="1" style="stop-color:#B3B3B3;stop-opacity:0"/>
		</linearGradient>
		<path style="fill:url(#SVGID_00000057836281095337130160000005735694232278501281_);" d="M41.02,42.36
			c-0.37-1.71-0.67-3.42-0.92-5.14c-0.25-1.71-0.42-3.43-0.91-5.08c-0.01-0.03-0.05-0.02-0.05,0.01c-0.18,1.73-0.03,3.46,0.17,5.18
			c0.19,1.66,0.49,3.31,0.85,4.94c0.37,1.66,0.74,3.32,0.98,5c0.25,1.75,0.37,3.52,0.54,5.27c0.02,0.22,0.33,0.23,0.35,0
			C42.27,49.14,41.73,45.69,41.02,42.36z"/>
		
			<linearGradient id="SVGID_00000047048946239115614330000016267036781905670315_" gradientUnits="userSpaceOnUse" x1="44.8444" y1="78.669" x2="46.6748" y2="78.9652" gradientTransform="matrix(1 0 0 -1 0 149.8898)">
			<stop  offset="0" style="stop-color:#191919"/>
			<stop  offset="0.3827" style="stop-color:#595959;stop-opacity:0.6173"/>
			<stop  offset="0.8018" style="stop-color:#9A9A9A;stop-opacity:0.1982"/>
			<stop  offset="1" style="stop-color:#B3B3B3;stop-opacity:0"/>
		</linearGradient>
		<path style="fill:url(#SVGID_00000047048946239115614330000016267036781905670315_);" d="M47.97,81.56
			c-0.04-0.9,0.08-1.8-0.01-2.69c-0.09-0.87-0.43-1.55-0.84-2.3c-0.45-0.81-0.45-1.67-0.63-2.56c-0.18-0.88-0.47-1.73-0.68-2.6
			c-0.24-0.97-0.27-1.94-0.32-2.93c-0.1-1.84-0.59-3.64-0.84-5.46c-0.13-0.92-0.27-1.86-0.54-2.75c-0.13-0.42-0.27-0.84-0.47-1.24
			c-0.22-0.43-0.49-0.74-0.79-1.11c-0.06-0.08-0.16,0.02-0.13,0.1c0.33,0.78,0.54,1.7,0.7,2.53c0.16,0.83,0.27,1.66,0.38,2.49
			c0.11,0.82,0.21,1.65,0.37,2.47c0.2,0.99,0.45,1.96,0.53,2.97c0.07,0.89,0.11,1.78,0.29,2.66c0.18,0.88,0.48,1.73,0.69,2.6
			c0.2,0.84,0.19,1.76,0.5,2.57c0.29,0.76,0.83,1.39,1,2.2c0.21,1,0.05,2.05,0.11,3.06c0.05,0.89,0.16,1.95,0.68,2.69
			c0.1,0.14,0.37,0.11,0.36-0.1C48.29,83.29,48,82.44,47.97,81.56z"/>
		
			<linearGradient id="SVGID_00000160893350092278234600000016508637095468740272_" gradientUnits="userSpaceOnUse" x1="50.6644" y1="49.3432" x2="52.5863" y2="49.6543" gradientTransform="matrix(1 0 0 -1 0 149.8898)">
			<stop  offset="0" style="stop-color:#191919"/>
			<stop  offset="0.3827" style="stop-color:#595959;stop-opacity:0.6173"/>
			<stop  offset="0.8018" style="stop-color:#9A9A9A;stop-opacity:0.1982"/>
			<stop  offset="1" style="stop-color:#B3B3B3;stop-opacity:0"/>
		</linearGradient>
		<path style="fill:url(#SVGID_00000160893350092278234600000016508637095468740272_);" d="M53.27,104.96
			c-0.46-1.79-1.23-3.48-1.72-5.25c-0.5-1.79-0.75-3.64-0.91-5.49c-0.11-1.23-0.02-3.33-1.23-4.08c-0.02-0.01-0.04,0.01-0.04,0.03
			c0.11,0.82,0.34,1.59,0.39,2.42c0.04,0.81,0.05,1.62,0.11,2.43c0.13,1.73,0.42,3.45,0.91,5.12c0.5,1.71,1.32,3.31,1.77,5.03
			c0.47,1.77,0.53,3.62,0.97,5.39c0.05,0.18,0.3,0.13,0.31-0.04C53.97,108.66,53.72,106.75,53.27,104.96z"/>
		
			<linearGradient id="SVGID_00000112629828933918209900000001360149018308205960_" gradientUnits="userSpaceOnUse" x1="55.0402" y1="26.9676" x2="62.6199" y2="28.1943" gradientTransform="matrix(1 0 0 -1 0 149.8898)">
			<stop  offset="0" style="stop-color:#191919"/>
			<stop  offset="0.3827" style="stop-color:#595959;stop-opacity:0.6173"/>
			<stop  offset="0.8018" style="stop-color:#9A9A9A;stop-opacity:0.1982"/>
			<stop  offset="1" style="stop-color:#B3B3B3;stop-opacity:0"/>
		</linearGradient>
		<path style="fill:url(#SVGID_00000112629828933918209900000001360149018308205960_);" d="M64.07,131.77
			c-1.85-0.58-3.98-0.26-5.67-1.32c-0.9-0.57-1.21-1.36-1.42-2.37c-0.22-1.04-0.43-2.08-0.64-3.12c-0.44-2.12-0.86-4.24-1.21-6.38
			c-0.17-1.08-0.31-2.16-0.47-3.24c-0.08-0.53-0.17-1.07-0.29-1.59c-0.12-0.54-0.33-1.02-0.5-1.54c-0.01-0.03-0.06-0.02-0.05,0.01
			c0.12,0.91,0.12,1.87,0.18,2.8c0.06,0.92,0.15,1.83,0.25,2.74c0.2,1.74,0.52,3.47,0.87,5.19c0.36,1.78,0.75,3.56,1.12,5.34
			c0.15,0.72,0.31,1.4,0.78,1.98c0.4,0.5,0.94,0.87,1.52,1.14c1.68,0.78,3.57,0.6,5.35,0.98C64.3,132.47,64.46,131.89,64.07,131.77z
			"/>
		
			<linearGradient id="SVGID_00000104683035709575257450000017406706985286138018_" gradientUnits="userSpaceOnUse" x1="55.6655" y1="14.7328" x2="66.0284" y2="16.41" gradientTransform="matrix(1 0 0 -1 0 149.8898)">
			<stop  offset="0" style="stop-color:#191919"/>
			<stop  offset="0.3827" style="stop-color:#595959;stop-opacity:0.6173"/>
			<stop  offset="0.8018" style="stop-color:#9A9A9A;stop-opacity:0.1982"/>
			<stop  offset="1" style="stop-color:#B3B3B3;stop-opacity:0"/>
		</linearGradient>
		<path style="fill:url(#SVGID_00000104683035709575257450000017406706985286138018_);" d="M66.39,137.6
			c-2.64-0.11-5.22-0.46-7.72-1.33c-0.54-0.19-1.19-0.35-1.63-0.74c-0.49-0.42-0.59-1.12-0.74-1.72c-0.17-0.66-0.34-1.32-0.53-1.97
			c-0.14-0.49-0.25-1.17-0.65-1.52c-0.01-0.01-0.02,0-0.03,0.01c-0.22,0.55,0.03,1.32,0.14,1.88c0.14,0.74,0.29,1.47,0.45,2.2
			c0.13,0.57,0.28,1.14,0.68,1.58c0.41,0.44,0.98,0.69,1.53,0.9c2.66,1.04,5.64,1.61,8.5,1.46
			C66.87,138.32,66.87,137.62,66.39,137.6z"/>
		
			<linearGradient id="SVGID_00000098198216714902955600000004717428658378235297_" gradientUnits="userSpaceOnUse" x1="64.3786" y1="85.2589" x2="77.5005" y2="91.3079" gradientTransform="matrix(1 0 0 -1 0 149.8898)">
			<stop  offset="0" style="stop-color:#191919"/>
			<stop  offset="0.3827" style="stop-color:#595959;stop-opacity:0.6173"/>
			<stop  offset="0.8018" style="stop-color:#9A9A9A;stop-opacity:0.1982"/>
			<stop  offset="1" style="stop-color:#B3B3B3;stop-opacity:0"/>
		</linearGradient>
		<path style="fill:url(#SVGID_00000098198216714902955600000004717428658378235297_);" d="M85.73,75.96
			c-0.54-1.05-1.26-1.99-2.06-2.86c-1.18-1.29-2.53-2.05-3.05-3.82c-0.27-0.94-0.41-1.92-0.85-2.8c-0.31-0.63-0.77-1.2-0.99-1.87
			c-0.19-0.58-0.18-1.21-0.24-1.81c-0.12-1.16-0.49-2.28-0.91-3.37c-1.27-3.34-2.92-6.53-4.91-9.5c-0.99-1.48-2.07-2.91-3.23-4.27
			c-0.96-1.13-2.21-2.16-3.03-3.39c-0.02-0.03-0.07,0-0.05,0.03c0.19,0.29,0.22,0.61,0.37,0.91c0.14,0.29,0.29,0.58,0.45,0.86
			c0.32,0.56,0.64,1.13,0.96,1.69c0.64,1.12,1.27,2.26,1.87,3.4c1.21,2.33,2.37,4.68,3.46,7.07c1.08,2.36,2.11,4.75,3.13,7.13
			c0.51,1.19,1.02,2.39,1.53,3.58s0.95,2.46,1.57,3.6c0.65,1.2,1.9,1.7,2.89,2.55c1.06,0.91,1.86,2.04,2.74,3.12
			C85.55,76.42,85.83,76.17,85.73,75.96z"/>
		
			<linearGradient id="SVGID_00000011017654666751211050000012109773282776778903_" gradientUnits="userSpaceOnUse" x1="74.1589" y1="53.6817" x2="90.0727" y2="57.4972" gradientTransform="matrix(1 0 0 -1 0 149.8898)">
			<stop  offset="0" style="stop-color:#191919"/>
			<stop  offset="0.3827" style="stop-color:#595959;stop-opacity:0.6173"/>
			<stop  offset="0.8018" style="stop-color:#9A9A9A;stop-opacity:0.1982"/>
			<stop  offset="1" style="stop-color:#B3B3B3;stop-opacity:0"/>
		</linearGradient>
		<path style="fill:url(#SVGID_00000011017654666751211050000012109773282776778903_);" d="M95.46,108.83
			c-0.72-0.81-1.6-1.46-2.26-2.33c-1.61-2.14-0.78-4.34-1.59-6.64c-0.1-0.28-0.24-0.57-0.22-0.87c0.02-0.25,0.15-0.48,0.28-0.7
			c0.47-0.72,1.08-1.36,1.78-1.85c-1.66-1.71-3.13-3.62-4.36-5.66c-1.69-2.79-2.93-5.81-4.17-8.82c-0.82-2-1.39-4.31-3.02-5.81
			c-0.02-0.02-0.06,0.01-0.04,0.03c0.68,0.95,1.09,2.07,1.45,3.17c0.37,1.13,0.71,2.27,1.03,3.41c0.66,2.33,1.27,4.67,1.9,7.01
			c0.64,2.36,1.33,4.71,2.21,7c0.86,2.26,2.08,4.38,2.68,6.73c0.32,1.23,0.65,2.4,1.43,3.43c0.69,0.92,1.57,1.76,2.54,2.37
			C95.39,109.51,95.68,109.08,95.46,108.83z"/>
		
			<linearGradient id="SVGID_00000140709097650900206840000009395152028959625884_" gradientUnits="userSpaceOnUse" x1="92.5364" y1="38.5993" x2="93.9635" y2="38.8302" gradientTransform="matrix(1 0 0 -1 0 149.8898)">
			<stop  offset="0" style="stop-color:#191919"/>
			<stop  offset="0.3827" style="stop-color:#595959;stop-opacity:0.6173"/>
			<stop  offset="0.8018" style="stop-color:#9A9A9A;stop-opacity:0.1982"/>
			<stop  offset="1" style="stop-color:#B3B3B3;stop-opacity:0"/>
		</linearGradient>
		<path style="fill:url(#SVGID_00000140709097650900206840000009395152028959625884_);" d="M93.4,111.07
			c-0.35-1.29-0.49-2.7-1.22-3.84c-0.05-0.08-0.16-0.03-0.15,0.06c0.25,1.33,0.22,2.7,0.51,4.02c0.28,1.26,0.96,2.38,1.23,3.64
			c0.09,0.42,0.66,0.28,0.7-0.09C94.61,113.52,93.74,112.31,93.4,111.07z"/>
		
			<linearGradient id="SVGID_00000062895923996492285480000010756054861121807240_" gradientUnits="userSpaceOnUse" x1="102.2519" y1="9.1015" x2="119.0419" y2="11.8189" gradientTransform="matrix(1 0 0 -1 0 149.8898)">
			<stop  offset="0" style="stop-color:#191919"/>
			<stop  offset="0.3827" style="stop-color:#595959;stop-opacity:0.6173"/>
			<stop  offset="0.8018" style="stop-color:#9A9A9A;stop-opacity:0.1982"/>
			<stop  offset="1" style="stop-color:#B3B3B3;stop-opacity:0"/>
		</linearGradient>
		<path style="fill:url(#SVGID_00000062895923996492285480000010756054861121807240_);" d="M119.08,141.05
			c-1.85,0.18-3.68,0.45-5.53,0.54c-1.82,0.09-3.65,0.09-5.47-0.03c-0.87-0.06-1.76-0.11-2.61-0.26c-0.67-0.12-1.35-0.38-1.81-0.9
			c-0.89-1.01-1.06-2.45-1.47-3.68c-0.03-0.1-0.2-0.12-0.22,0c-0.21,1.35-0.09,2.93,0.65,4.12c0.96,1.55,2.63,1.85,4.33,2.01
			c2.06,0.19,4.13,0.25,6.2,0.13c2.05-0.12,4.11-0.33,6.09-0.89C119.78,141.94,119.7,140.99,119.08,141.05z"/>
		
			<linearGradient id="SVGID_00000174577624505915519960000007309289092914634911_" gradientUnits="userSpaceOnUse" x1="104.1591" y1="11.8695" x2="121.3666" y2="14.6545" gradientTransform="matrix(1 0 0 -1 0 149.8898)">
			<stop  offset="0" style="stop-color:#191919"/>
			<stop  offset="0.3827" style="stop-color:#595959;stop-opacity:0.6173"/>
			<stop  offset="0.8018" style="stop-color:#9A9A9A;stop-opacity:0.1982"/>
			<stop  offset="1" style="stop-color:#B3B3B3;stop-opacity:0"/>
		</linearGradient>
		<path style="fill:url(#SVGID_00000174577624505915519960000007309289092914634911_);" d="M120.5,134.09
			c-2.34,1.33-4.75,2.25-7.43,2.63c-1.46,0.21-2.92,0.25-4.39,0.31c-0.77,0.03-1.54,0.06-2.32,0.1c-0.76,0.03-1.56,0.14-2.31,0.05
			c-0.03,0-0.03,0.05,0,0.05c0.85,0.1,1.69,0.39,2.54,0.55c0.73,0.14,1.46,0.23,2.2,0.28c1.52,0.11,3.08,0,4.59-0.21
			c2.65-0.38,5.48-1.21,7.64-2.86C121.53,134.59,121.1,133.75,120.5,134.09z"/>
		
			<linearGradient id="SVGID_00000153667722361090935000000012045979701795448215_" gradientUnits="userSpaceOnUse" x1="84.9831" y1="140.3938" x2="97.2553" y2="142.3801" gradientTransform="matrix(1 0 0 -1 0 149.8898)">
			<stop  offset="0" style="stop-color:#191919"/>
			<stop  offset="0.3827" style="stop-color:#595959;stop-opacity:0.6173"/>
			<stop  offset="0.8018" style="stop-color:#9A9A9A;stop-opacity:0.1982"/>
			<stop  offset="1" style="stop-color:#B3B3B3;stop-opacity:0"/>
		</linearGradient>
		<path style="fill:url(#SVGID_00000153667722361090935000000012045979701795448215_);" d="M96.97,8.14
			c-2.02-0.22-4.07-0.25-6.1-0.32c-2.04-0.07-4.06-0.05-6.1,0.15c-0.03,0-0.04,0.05-0.01,0.06c1.99,0.35,3.98,0.56,6,0.7
			c2.06,0.14,4.13,0.35,6.2,0.38C97.61,9.11,97.57,8.2,96.97,8.14z"/>
		<g>
			<path class="st32" d="M89.16,14.38c0.13,0.86,0.35,1.7,0.66,2.51c0.27,0.7,0.62,1.51,1.45,1.66c0.79,0.14,1.29-0.48,1.41-1.2
				c0.14-0.88,0.2-1.78,0.29-2.66c-0.28,0-0.57,0-0.85,0c-0.09,0.86-0.13,1.73,0.06,2.58c0.15,0.66,0.48,1.49,1.25,1.6
				c0.87,0.13,1.37-0.7,1.67-1.38c0.35-0.79,0.55-1.63,0.61-2.49c0.04-0.55-0.82-0.55-0.85,0c-0.04,0.63-0.18,1.24-0.4,1.83
				c-0.11,0.3-0.47,1.35-0.95,1.19c-0.42-0.14-0.53-1.01-0.57-1.36c-0.08-0.65-0.03-1.31,0.04-1.96c0.02-0.23-0.21-0.43-0.43-0.43
				c-0.25,0-0.4,0.2-0.43,0.43c-0.08,0.7-0.15,1.4-0.23,2.1c-0.04,0.34-0.07,1.14-0.61,0.87c-0.25-0.12-0.38-0.4-0.49-0.64
				c-0.13-0.29-0.24-0.59-0.34-0.89c-0.21-0.64-0.37-1.3-0.47-1.97c-0.03-0.23-0.32-0.36-0.53-0.3
				C89.22,13.92,89.13,14.15,89.16,14.38L89.16,14.38z"/>
		</g>
		<g>
			<path class="st33" d="M70.69,35.77c1.6-0.47,3.34-0.5,5-0.55c1.93-0.05,3.86-0.02,5.79-0.02c0.86,0,1.72,0,2.58-0.06
				c0.27-0.02,0.27-0.44,0-0.43c-1.7,0.11-3.41,0.06-5.11,0.05c-1.95,0-3.92-0.01-5.87,0.17c-0.84,0.08-1.7,0.18-2.51,0.42
				C70.32,35.43,70.43,35.85,70.69,35.77L70.69,35.77z"/>
		</g>
		<g>
			<path class="st33" d="M78.14,37.85c2.15-0.4,4.32-0.72,6.49-0.98c0.27-0.03,0.27-0.46,0-0.43c-2.21,0.26-4.42,0.59-6.61,0.99
				C77.76,37.49,77.87,37.9,78.14,37.85L78.14,37.85z"/>
		</g>
		<g>
			<path class="st33" d="M46.88,42.56c1.45-0.83,2.94-1.58,4.46-2.26c1.54-0.68,3.12-1.32,4.74-1.77c0.94-0.26,1.91-0.41,2.89-0.32
				c0.27,0.03,0.27-0.4,0-0.43c-1.72-0.17-3.4,0.41-4.99,0.99c-1.61,0.59-3.2,1.27-4.74,2.03c-0.87,0.43-1.73,0.89-2.58,1.38
				C46.43,42.32,46.65,42.69,46.88,42.56L46.88,42.56z"/>
		</g>
		<g>
			<path class="st33" d="M52.88,41.85c-1.91,0.25-3.76,0.77-5.51,1.56c-0.25,0.11-0.03,0.48,0.22,0.37c1.68-0.75,3.47-1.26,5.3-1.5
				C53.15,42.24,53.15,41.81,52.88,41.85L52.88,41.85z"/>
		</g>
		<g>
			<path class="st33" d="M54.04,18.96c0.52,2.87,1.2,5.72,2.04,8.51c0.75,2.5,1.49,5.14,3.41,7.02c0.94,0.92,2.07,1.62,3.31,2.06
				c0.26,0.09,0.37-0.32,0.11-0.41c-2.25-0.8-4.02-2.51-5-4.68c-0.56-1.25-0.96-2.59-1.36-3.91c-0.41-1.35-0.78-2.7-1.12-4.07
				c-0.38-1.53-0.7-3.08-0.98-4.63C54.4,18.58,53.99,18.7,54.04,18.96L54.04,18.96z"/>
		</g>
		<g>
			<path class="st33" d="M64.45,36.97c0.93,0.05,2.18-0.04,2.59-1.04c0.25-0.62,0.06-1.32-0.06-1.94c-0.14-0.73-0.3-1.46-0.46-2.18
				c-0.65-2.9-1.41-5.78-1.92-8.72c-0.29-1.67-0.5-3.36-0.56-5.06c-0.01-0.27-0.44-0.28-0.43,0c0.2,5.66,2.04,11.03,3.05,16.56
				c0.12,0.65,0.13,1.37-0.53,1.73c-0.5,0.27-1.13,0.26-1.68,0.23C64.17,36.53,64.17,36.96,64.45,36.97L64.45,36.97z"/>
		</g>
		<g>
			<path class="st33" d="M55.07,19.04c0.6,2.5,1.22,5,1.86,7.48c0.58,2.22,1.07,4.49,2.59,6.28c0.73,0.86,1.63,1.58,2.64,2.1
				c0.24,0.13,0.46-0.24,0.22-0.37c-1.82-0.95-3.23-2.53-3.97-4.45c-0.43-1.12-0.71-2.3-1.01-3.46c-0.31-1.19-0.61-2.39-0.91-3.58
				c-0.34-1.37-0.68-2.74-1-4.11C55.42,18.66,55,18.77,55.07,19.04L55.07,19.04z"/>
		</g>
		<g>
			<path class="st33" d="M63.83,35.1c0.35,0.23,0.78,0.17,1.12-0.06c0.37-0.26,0.54-0.67,0.56-1.11c0.03-0.58-0.15-1.17-0.28-1.73
				c-0.13-0.59-0.28-1.18-0.42-1.77c-0.61-2.42-1.29-4.82-1.77-7.26c-0.27-1.4-0.47-2.81-0.56-4.23c-0.02-0.27-0.44-0.28-0.43,0
				c0.26,4.56,1.74,8.91,2.75,13.33c0.13,0.57,0.35,1.22,0.25,1.82c-0.07,0.44-0.55,0.97-1.02,0.65
				C63.82,34.58,63.61,34.95,63.83,35.1L63.83,35.1z"/>
		</g>
		<g>
			<path class="st33" d="M55.7,18.54c0.34-0.36,0.81-0.48,1.28-0.55c0.58-0.09,1.18-0.13,1.76-0.19c1.2-0.13,2.44-0.32,3.64-0.07
				c0.27,0.06,0.38-0.36,0.11-0.41c-1.31-0.27-2.64-0.06-3.95,0.08c-0.6,0.06-1.2,0.1-1.79,0.2c-0.5,0.09-0.99,0.26-1.35,0.64
				C55.21,18.44,55.51,18.74,55.7,18.54L55.7,18.54z"/>
		</g>
		<g>
			<path class="st33" d="M98.9,19.01c0.61,4.14,0.99,8.31,1.13,12.49c0.07,2.06,0.07,4.12,0.03,6.17c-0.04,1.86-0.09,3.73,0.06,5.58
				c0.16,2.03,0.58,4.05,1.49,5.88c0.12,0.25,0.49,0.03,0.37-0.22c-1.67-3.34-1.57-7.19-1.5-10.83c0.08-4.11-0.01-8.21-0.36-12.31
				c-0.2-2.3-0.47-4.6-0.81-6.89C99.27,18.62,98.86,18.74,98.9,19.01L98.9,19.01z"/>
		</g>
		<g>
			<path class="st33" d="M103.11,55.44c1.2,4.26,2.3,8.54,3.29,12.85c0.06,0.27,0.47,0.15,0.41-0.11c-0.99-4.31-2.08-8.6-3.29-12.85
				C103.45,55.06,103.04,55.18,103.11,55.44L103.11,55.44z"/>
		</g>
		<g>
			<path class="st33" d="M70.85,54.35c-0.04,4.75-0.16,9.5-0.04,14.25c0.02,0.64,0.07,1.29,0.04,1.93
				c-0.02,0.57-0.15,1.12-0.27,1.67c-0.11,0.52-0.21,1.05-0.21,1.58c0,0.6,0.14,1.19,0.24,1.78c0.2,1.28,0.4,2.56,0.73,3.81
				c0.32,1.22,0.64,2.44,0.95,3.66c0.7,2.79,1.31,5.61,1.56,8.47c0.02,0.27,0.45,0.27,0.43,0c-0.21-2.51-0.71-4.99-1.29-7.44
				c-0.59-2.48-1.36-4.92-1.78-7.44c-0.11-0.65-0.2-1.3-0.31-1.95c-0.1-0.6-0.12-1.18-0.02-1.78c0.09-0.53,0.23-1.06,0.32-1.59
				c0.09-0.58,0.08-1.14,0.07-1.73c-0.07-2.38-0.09-4.76-0.07-7.14c0.02-2.69,0.07-5.39,0.09-8.08
				C71.28,54.08,70.85,54.08,70.85,54.35L70.85,54.35z"/>
		</g>
		<g>
			<path class="st33" d="M74.7,98.4c0.59,4.12,1.34,8.22,1.59,12.38c0.12,1.9,0.15,3.79,0,5.69c-0.15,1.8-0.38,3.59-0.46,5.39
				c-0.09,1.84-0.08,3.8,0.6,5.55c0.1,0.25,0.51,0.14,0.41-0.11c-0.6-1.55-0.66-3.25-0.61-4.89c0.06-1.83,0.28-3.64,0.44-5.46
				c0.35-3.87,0.01-7.76-0.51-11.6c-0.32-2.36-0.71-4.7-1.05-7.06C75.07,98.02,74.66,98.13,74.7,98.4L74.7,98.4z"/>
		</g>
		<g>
			<path class="st33" d="M58.51,87.63c-0.16-0.17-0.29-0.36-0.4-0.56c-0.05-0.09-0.09-0.19-0.13-0.29
				c-0.02-0.07-0.11-0.24-0.08-0.31c0.02-0.05,0-0.02,0.07-0.02c0.05,0,0.1,0.02,0.14,0.04c0.12,0.03,0.25,0.07,0.37,0.1
				c0.25,0.07,0.49,0.14,0.74,0.22c0.97,0.31,1.93,0.66,2.87,1.07c0.25,0.11,0.47-0.26,0.22-0.37c-1.19-0.52-2.41-0.96-3.66-1.32
				c-0.24-0.07-0.53-0.2-0.78-0.17s-0.39,0.24-0.38,0.48c0.02,0.52,0.39,1.07,0.74,1.44C58.4,88.14,58.7,87.83,58.51,87.63
				L58.51,87.63z"/>
		</g>
		<g>
			<path class="st33" d="M59.07,96.15c-0.96,0.98-1.92,1.96-2.89,2.95c-0.22,0.23-0.44,0.45-0.67,0.68c-0.2,0.2-0.46,0.4-0.59,0.66
				c-0.25,0.49,0.25,0.81,0.65,0.93c0.28,0.08,0.48,0.17,0.48,0.49c0,0.29-0.13,0.55-0.22,0.82c-0.15,0.47-0.13,0.99,0.3,1.3
				c0.95,0.68,2.11-0.29,2.9-0.78c1.32-0.81,2.63-1.63,3.95-2.44c0.23-0.14,0.02-0.51-0.22-0.37c-1.03,0.64-2.06,1.28-3.1,1.91
				c-0.52,0.32-1.05,0.65-1.57,0.97c-0.41,0.25-0.89,0.59-1.4,0.5c-0.19-0.04-0.38-0.13-0.48-0.3c-0.15-0.26-0.01-0.59,0.08-0.85
				c0.14-0.39,0.28-0.85,0.05-1.24c-0.1-0.17-0.26-0.28-0.44-0.35c-0.16-0.06-0.64-0.1-0.63-0.35c0.01-0.1,0.16-0.22,0.23-0.28
				c0.1-0.1,0.2-0.2,0.3-0.3c0.22-0.23,0.44-0.45,0.67-0.68c0.96-0.98,1.92-1.96,2.89-2.95C59.57,96.26,59.26,95.96,59.07,96.15
				L59.07,96.15z"/>
		</g>
		<g>
			<path class="st33" d="M64.61,97.85c0.17-0.72,0.34-1.47,0.18-2.2c-0.13-0.58-0.47-1.13-1.01-1.4c-0.25-0.12-0.46,0.25-0.22,0.37
				c1.17,0.57,0.87,2.11,0.64,3.12C64.13,98,64.55,98.12,64.61,97.85L64.61,97.85z"/>
		</g>
		<g>
			<path class="st33" d="M108.05,94.33c-1.99,0.01-3.99,0.01-5.98,0.02c-0.3,0-0.63,0.08-0.63,0.44c0,0.34,0.28,0.6,0.5,0.81
				c0.61,0.6,1.31,1.1,2.08,1.48c0.25,0.12,0.46-0.25,0.22-0.37c-0.65-0.33-1.26-0.73-1.8-1.23c-0.12-0.11-0.64-0.51-0.57-0.7
				c0.02-0.04,0.52-0.01,0.57-0.01c0.21,0,0.42,0,0.63,0c1.66-0.01,3.32-0.01,4.99-0.02C108.32,94.75,108.32,94.33,108.05,94.33
				L108.05,94.33z"/>
		</g>
		<g>
			<path class="st33" d="M107.59,99.76c0.35,0.13,0.76-0.05,0.98-0.33c0.26-0.33,0.32-0.74,0.36-1.14c0.01-0.11-0.11-0.22-0.21-0.21
				c-0.13,0.01-0.2,0.09-0.21,0.21c-0.01,0.04-0.01,0.09-0.02,0.13c-0.01,0.05,0-0.02,0,0.03c0,0.02-0.01,0.04-0.01,0.05
				c-0.01,0.08-0.03,0.16-0.05,0.24c-0.04,0.17-0.08,0.25-0.18,0.4c-0.01,0.02,0.02-0.02-0.01,0.01c-0.01,0.01-0.02,0.03-0.04,0.04
				c-0.02,0.02-0.05,0.05-0.08,0.07c-0.01,0.01-0.01,0.01,0.01,0c-0.01,0.01-0.01,0.01-0.02,0.02c-0.01,0.01-0.03,0.02-0.04,0.03
				c-0.03,0.02-0.06,0.04-0.1,0.05c0.03-0.01,0,0-0.02,0c-0.01,0-0.03,0.01-0.04,0.01c-0.02,0-0.03,0.01-0.05,0.01
				c-0.03,0.01,0.04,0,0,0c-0.02,0-0.04,0-0.05,0s-0.06-0.01-0.01,0c-0.04-0.01-0.07-0.02-0.1-0.03c-0.11-0.04-0.24,0.04-0.26,0.15
				C107.42,99.62,107.48,99.72,107.59,99.76L107.59,99.76z"/>
		</g>
		<g>
			<path class="st33" d="M52.71,11.94c0.29,1.96,0.69,3.9,1.21,5.81c0.07,0.26,0.48,0.15,0.41-0.11c-0.52-1.91-0.92-3.85-1.21-5.81
				C53.08,11.55,52.67,11.67,52.71,11.94L52.71,11.94z"/>
		</g>
		<g>
			<path class="st33" d="M63.41,11.5c-0.02,1.64,0.06,3.28,0.23,4.91c0.03,0.27,0.46,0.27,0.43,0c-0.17-1.63-0.25-3.27-0.23-4.91
				C63.84,11.23,63.42,11.22,63.41,11.5L63.41,11.5z"/>
		</g>
		<g>
			<path class="st33" d="M41.02,18.42c1.87-0.54,3.76-1.02,5.67-1.42c0.27-0.06,0.16-0.47-0.11-0.41c-1.91,0.4-3.8,0.87-5.67,1.42
				C40.65,18.09,40.76,18.5,41.02,18.42L41.02,18.42z"/>
		</g>
		<g>
			<path class="st33" d="M64.97,13.27c3.8-0.84,7.7-1.18,11.59-1.04c0.27,0.01,0.27-0.42,0-0.43c-3.93-0.14-7.86,0.21-11.7,1.06
				C64.59,12.92,64.7,13.33,64.97,13.27L64.97,13.27z"/>
		</g>
		<g>
			<path class="st33" d="M99.24,17.64c-0.17-0.37-0.38-0.72-0.65-1.03c-0.07-0.08-0.14-0.15-0.21-0.23
				c-0.04-0.04-0.08-0.09-0.12-0.12c-0.09-0.05,0.02,0-0.01,0.02c0.16-0.09,0.3-0.21,0.41-0.35c0.55-0.7,0.33-1.6,0.08-2.37
				c-0.08-0.26-0.5-0.15-0.41,0.11c0.14,0.44,0.3,0.91,0.24,1.38c-0.02,0.18-0.08,0.36-0.18,0.52c-0.1,0.17-0.26,0.25-0.4,0.37
				c-0.12,0.1-0.21,0.24-0.17,0.41s0.22,0.29,0.34,0.41c0.3,0.32,0.54,0.69,0.72,1.09C98.98,18.1,99.35,17.88,99.24,17.64
				L99.24,17.64z"/>
		</g>
		<g>
			<path class="st33" d="M83.35,18.54c0.63,0.9,1.25,1.83,1.98,2.65c0.71,0.8,1.65,1.4,2.58,1.93c1.84,1.04,3.95,1.52,6.06,1.38
				c0.41-0.03,0.41-0.67,0-0.64c-2,0.14-3.99-0.31-5.74-1.29c-0.88-0.5-1.78-1.06-2.45-1.83c-0.69-0.78-1.29-1.66-1.88-2.52
				C83.67,17.88,83.12,18.2,83.35,18.54L83.35,18.54z"/>
		</g>
		<g>
			<path class="st33" d="M80.71,19.72c0.57,2.59,2.95,4.58,5.18,5.8c2.62,1.44,5.6,1.98,8.56,1.93c0.41-0.01,0.41-0.65,0-0.64
				c-2.79,0.05-5.6-0.43-8.08-1.76c-2.14-1.14-4.49-3.02-5.04-5.51C81.24,19.15,80.63,19.32,80.71,19.72L80.71,19.72z"/>
		</g>
		<g>
			<path class="st33" d="M82.25,19.68c0.8,1.69,2.22,2.94,3.81,3.88c1.84,1.09,3.87,1.85,5.96,2.26c0.27,0.05,0.38-0.36,0.11-0.41
				c-2.01-0.4-3.96-1.11-5.73-2.14c-1.58-0.92-2.98-2.13-3.78-3.81C82.5,19.22,82.14,19.43,82.25,19.68L82.25,19.68z"/>
		</g>
		<g>
			<path class="st33" d="M44.82,22.58c-0.14,0.77-0.28,1.54-0.47,2.3c-0.18,0.74-0.52,1.4-0.92,2.04c-0.69,1.11-1.68,2.02-2.98,2.31
				c-0.4,0.09-0.23,0.71,0.17,0.62c1.37-0.3,2.47-1.24,3.23-2.39c0.43-0.65,0.83-1.36,1.04-2.12c0.24-0.85,0.39-1.73,0.55-2.6
				C45.51,22.35,44.89,22.18,44.82,22.58L44.82,22.58z"/>
		</g>
		<g>
			<path class="st33" d="M46.5,22.86c0.19,1.9-0.47,3.84-1.5,5.41c-1,1.52-2.46,2.61-4.19,3.13c-0.39,0.12-0.23,0.74,0.17,0.62
				c1.85-0.56,3.41-1.71,4.5-3.31c1.14-1.68,1.87-3.81,1.67-5.85C47.1,22.45,46.46,22.44,46.5,22.86L46.5,22.86z"/>
		</g>
		<g>
			<path class="st33" d="M45.84,23.47c-0.09,1.52-0.63,2.98-1.52,4.22c-0.81,1.13-2.12,1.83-3.25,2.58
				c-0.23,0.15-0.01,0.52,0.22,0.37c1.2-0.8,2.56-1.54,3.41-2.74c0.93-1.3,1.48-2.84,1.57-4.44C46.28,23.19,45.85,23.19,45.84,23.47
				L45.84,23.47z"/>
		</g>
		<g>
			<path d="M73.85,58.95c0.18,0.88,0.4,1.75,0.5,2.64c0.12,1,0.06,1.98-0.06,2.98c-0.11,0.88-0.23,1.78-0.06,2.66
				c0.08,0.43,0.26,0.78,0.42,1.18c0.28,0.67,0.09,1.11-0.07,1.78c-0.46,1.95-0.35,3.85-0.21,5.83c0.16,2.22,0.23,4.45,0.31,6.67
				c0.08,2.22,0.16,4.45,0.31,6.67c0.06,0.89,0.12,1.78,0.26,2.67c0.17,1.08,0.6,2.11,0.73,3.19c0.12,0.96-0.02,1.93,0.23,2.88
				c0.26,1.02,0.76,1.93,0.93,2.98s0.15,2.12,0.25,3.18c0.11,1.14,0.29,2.27,0.43,3.4c0.26,2.07,0.53,4.11,0.33,6.2
				c-0.2,2.16-0.51,4.24-0.46,6.42c0.06,2.16,0.1,4.31,0.14,6.47c0.01,0.69-0.15,1.62,0.4,2.16c0.18,0.17,0.33,0.21,0.43,0.48
				c0.08,0.24,0.07,0.56,0.09,0.81c0.05,0.59,0.12,1.18,0.16,1.77c0.06,0.93-0.12,1.55-0.83,2.16c-0.62,0.53-1.35,0.92-2.06,1.3
				c-1.55,0.84-3.14,1.52-4.84,1.98c-3.67,0.99-7.6,0.98-11.26-0.06c-0.82-0.23-1.63-0.51-2.41-0.85c-1.06-0.47-1.77-1.05-1.91-2.25
				c-0.12-1.02-0.2-2.05-0.29-3.07c-0.04-0.47-0.22-1.06,0.06-1.48c0.2-0.3,0.43-0.49,0.55-0.84c0.49-1.42-0.11-3.24-0.3-4.67
				c-0.28-2.05-0.57-4.1-0.86-6.14c-0.62-4.28-1.12-8.61-1.96-12.85c-0.39-1.98-1.3-3.73-1.95-5.62c-0.31-0.91-0.47-1.85-0.66-2.8
				c-0.22-1.11-0.47-2.21-0.6-3.33c-0.12-1.03-0.09-2.06-0.18-3.09c-0.08-0.94-0.27-1.86-0.5-2.78c-0.51-2.03-1.24-4.01-1.47-6.11
				c-0.1-0.9-0.14-1.8-0.29-2.69c-0.17-1.03-0.66-1.85-0.96-2.82c-0.27-0.88-0.34-1.86-0.49-2.77c-0.18-1.13-0.37-2.26-0.55-3.4
				c-0.36-2.19-0.73-4.37-1.15-6.54c-0.42-2.19-1.01-4.35-1.28-6.56c-0.25-2.01-0.57-4-0.87-6c-0.32-2.12-0.54-4.26-0.96-6.36
				c-0.4-2.04-1.01-4.01-1.2-6.09c-0.2-2.13-0.35-4.28-0.51-6.42c-0.16-2.2-0.26-4.41-0.31-6.62c-0.02-1.01-0.04-2.02-0.03-3.02
				c0.01-1.04-0.07-2.26,0.2-3.26c0.2-0.72,0.64-1.34,0.79-2.09c0.17-0.86-0.1-1.71,0-2.57c0.21-1.77,2.47-1.7,3.8-1.96
				c1.95-0.38,3.92-0.62,5.88-0.98c2.16-0.39,4.31-0.85,6.46-1.25c1.02-0.19,2.05-0.36,3.08-0.51c0.56-0.08,1.13-0.16,1.69-0.23
				C61,9.3,61.22,9.31,61.38,9.08c-0.12,0.07-0.25,0.14-0.37,0.21c1.05-0.01,2.08-0.2,3.11-0.39c1.32-0.25,2.64-0.38,3.98-0.47
				c2.68-0.18,5.36-0.33,8.04-0.46c2.71-0.13,5.43-0.22,8.15-0.18c2.65,0.04,5.25,0.42,7.87,0.76c1.32,0.17,2.64,0.34,3.96,0.51
				c0.67,0.09,1.33,0.17,2,0.26c0.58,0.08,1.53,0.04,1.97,0.49c0.57,0.59,0.29,1.79,0.4,2.54c0.05,0.34,0.15,0.67,0.34,0.96
				c0.31,0.47,0.9,0.65,1.07,1.21c0.18,0.6,0.12,1.38,0.12,2.01c0.01,0.66-0.02,1.31-0.06,1.97c-0.08,1.35-0.2,2.69-0.21,4.05
				c-0.01,2.61,0.25,5.22,0.31,7.83c0.01,0.61,0.02,1.22,0.01,1.83c-0.01,0.62-0.14,1.22-0.19,1.84c-0.1,1.22,0.07,2.5,0.19,3.72
				c0.25,2.6,0.57,5.24,1.1,7.8c0.52,2.49,1.28,4.93,2.01,7.36c0.38,1.26,0.76,2.51,0.86,3.83c0.1,1.18,0.14,2.34,0.4,3.49
				c0.59,2.56,1.16,5.09,1.43,7.71c0.12,1.17,0.18,2.37,0.46,3.51c0.13,0.55,0.34,1.09,0.43,1.66c0.09,0.61,0.08,1.24,0.13,1.85
				c0.21,2.52,0.82,4.99,1.35,7.45c0.27,1.28,0.43,2.61,0.82,3.87c0.38,1.2,0.84,2.36,1.18,3.58c0.32,1.19,0.64,2.38,1.11,3.52
				c0.45,1.11,1.07,2.14,1.61,3.22c1.15,2.28,1.37,4.77,1.65,7.28c0.28,2.47,0.76,4.91,1.29,7.33c0.55,2.53,1.32,5.01,1.81,7.55
				c0.25,1.26,0.33,2.52,0.46,3.79c0.13,1.22,0.39,2.41,0.55,3.62c0.19,1.35,0.34,2.7,0.51,4.05c0.12,0.94,0.12,2.06,0.67,2.88
				c0.24,0.35,0.57,0.55,0.91,0.79c0.56,0.41,0.57,1.16,0.66,1.8c0.08,0.57,0.18,1.17,0.1,1.74c-0.1,0.68-0.55,1.22-1.02,1.7
				c-1.57,1.57-3.74,2.35-5.88,2.79c-2.47,0.5-5.03,0.63-7.53,0.51c-1.34-0.07-2.67-0.21-3.99-0.45c-0.6-0.11-1.34-0.16-1.9-0.41
				c-0.63-0.28-0.81-1.1-1.01-1.71c-0.21-0.62-0.39-1.27-0.35-1.92c0.03-0.61,0.31-1.18,0.34-1.79c0.04-1.07-0.51-2.22-0.99-3.15
				c-0.52-1-1.3-1.77-1.89-2.72c-0.67-1.07-1.04-2.38-1.45-3.56c-1.74-5.07-3.32-10.21-4.82-15.36c-0.37-1.27-0.72-2.55-0.83-3.87
				c-0.11-1.25,0.04-2.49-0.44-3.68c-0.44-1.09-1.08-2.08-1.5-3.18c-0.45-1.16-0.8-2.35-1.22-3.52c-1.67-4.68-3.81-9.19-4.56-14.14
				c-0.19-1.21-0.36-2.43-0.79-3.59c-0.43-1.16-1.03-2.26-1.63-3.33c-0.58-1.02-1.29-2-1.62-3.13s-0.74-2.21-1.2-3.3
				c-1.08-2.52-2.05-5.09-3.09-7.62c-0.96-2.35-2.07-4.64-3.17-6.93c-1.58-3.28-3.01-6.65-4.75-9.85c-0.63-1.15-1.29-2.43-2.26-3.35
				c-0.4-0.38-1.01,0.23-0.6,0.6c1.06,0.99,1.75,2.45,2.42,3.71c0.79,1.5,1.52,3.03,2.22,4.57c2.08,4.51,4.32,8.92,6.15,13.54
				c0.99,2.49,2.14,4.94,3.04,7.46c0.4,1.12,0.66,2.2,1.26,3.24c0.62,1.07,1.26,2.12,1.82,3.23c1.2,2.41,1.28,5.03,1.9,7.61
				c0.6,2.47,1.5,4.86,2.42,7.22c0.93,2.39,1.77,4.8,2.63,7.21c0.41,1.14,0.94,2.18,1.48,3.26c0.3,0.61,0.52,1.21,0.57,1.89
				c0.06,0.69,0.01,1.38,0.07,2.06c0.22,2.61,1.17,5.17,1.92,7.66c0.8,2.65,1.63,5.29,2.48,7.92c0.79,2.44,1.45,5.08,2.65,7.35
				c0.55,1.04,1.44,1.85,2,2.9c0.28,0.52,0.51,1.06,0.69,1.61c0.11,0.35,0.23,0.72,0.24,1.08c0.01,0.38-0.14,0.73-0.22,1.1
				c-0.28,1.17,0.02,2.33,0.43,3.44c0.17,0.44,0.32,0.95,0.63,1.32c0.34,0.4,0.82,0.54,1.32,0.65c2.55,0.57,5.19,0.83,7.81,0.79
				c4.16-0.07,9.65-0.64,12.39-4.23c0.7-0.92,0.78-1.85,0.65-2.97c-0.11-0.95-0.1-2.17-0.92-2.81c-0.41-0.32-0.82-0.52-1.02-1.04
				c-0.23-0.6-0.25-1.3-0.33-1.93c-0.17-1.35-0.33-2.7-0.51-4.05c-0.17-1.3-0.46-2.58-0.58-3.88c-0.12-1.23-0.21-2.43-0.43-3.65
				c-0.48-2.58-1.27-5.1-1.83-7.67c-0.57-2.59-1.06-5.19-1.35-7.82c-0.26-2.37-0.54-4.72-1.59-6.89c-0.6-1.24-1.33-2.4-1.81-3.69
				c-0.44-1.19-0.75-2.43-1.09-3.65c-0.35-1.25-0.91-2.44-1.22-3.71c-0.31-1.29-0.5-2.61-0.78-3.9c-0.56-2.6-1.04-5.16-1.23-7.82
				c-0.08-1.16-0.55-2.23-0.7-3.37c-0.17-1.32-0.26-2.64-0.43-3.96c-0.17-1.27-0.42-2.52-0.7-3.77c-0.29-1.3-0.69-2.61-0.81-3.94
				c-0.12-1.21-0.12-2.43-0.39-3.62c-0.29-1.3-0.73-2.57-1.12-3.85c-1.55-5.16-2.54-10.46-2.78-15.85
				c-0.06-1.25,0.19-2.46,0.19-3.71c0-1.35-0.06-2.7-0.14-4.04c-0.15-2.71-0.24-5.38-0.04-8.09c0.1-1.36,0.16-2.71,0.08-4.07
				c-0.03-0.48-0.03-1.02-0.26-1.45c-0.25-0.47-0.78-0.64-1.06-1.07c-0.47-0.72-0.17-1.81-0.34-2.61c-0.17-0.84-0.76-1.36-1.59-1.53
				C98.3,8.4,96.93,8.31,95.6,8.14c-1.36-0.18-2.72-0.35-4.08-0.53c-2.72-0.35-5.39-0.68-8.13-0.68c-5.52,0-11.1,0.26-16.6,0.75
				c-1.15,0.1-2.28,0.3-3.41,0.5c-0.56,0.1-1.12,0.2-1.69,0.24c-0.35,0.02-0.81-0.08-1.03,0.25c0.12-0.07,0.25-0.14,0.37-0.21
				c-4.39,0.52-8.67,1.57-13.03,2.27c-1.06,0.17-2.13,0.25-3.18,0.45c-0.82,0.16-1.62,0.34-2.44,0.47c-1.35,0.21-2.92,0.58-3.3,2.09
				c-0.21,0.84,0.04,1.68-0.02,2.52c-0.05,0.84-0.54,1.53-0.79,2.31c-0.29,0.91-0.23,2.01-0.26,2.96c-0.03,1.09-0.02,2.18,0,3.26
				c0.08,4.44,0.42,8.88,0.82,13.31c0.19,2.12,0.76,4.12,1.19,6.2c0.45,2.13,0.67,4.33,0.99,6.48c0.33,2.17,0.64,4.34,0.94,6.52
				c0.3,2.21,0.89,4.37,1.31,6.55c0.42,2.22,0.8,4.45,1.16,6.68c0.18,1.09,0.35,2.17,0.53,3.26c0.17,1.01,0.25,2.07,0.68,3.01
				c0.88,1.92,0.78,3.92,1.15,5.96c0.38,2.03,1.12,3.96,1.54,5.98c0.44,2.11,0.29,4.28,0.68,6.4c0.37,2.03,0.74,4.03,1.53,5.93
				c0.39,0.94,0.81,1.87,1.09,2.84c0.3,1.03,0.47,2.08,0.64,3.14c0.37,2.25,0.7,4.5,1.03,6.76c0.61,4.22,1.18,8.45,1.82,12.67
				c0.11,0.73,0.3,1.75-0.16,2.39c-0.21,0.28-0.46,0.47-0.54,0.83c-0.1,0.42,0,0.9,0.04,1.33c0.1,1.07,0.19,2.14,0.31,3.2
				c0.09,0.86,0.34,1.61,1.01,2.19c1.28,1.11,3.3,1.61,4.91,1.98c1.81,0.42,3.69,0.61,5.55,0.56c3.65-0.1,7.11-1.12,10.3-2.86
				c1.12-0.61,2.71-1.39,3.13-2.72c0.29-0.94,0.07-2-0.02-2.95c-0.04-0.43-0.04-0.89-0.15-1.31c-0.11-0.39-0.35-0.52-0.59-0.81
				c-0.31-0.37-0.2-1.01-0.21-1.47c-0.01-0.63-0.02-1.26-0.03-1.89c-0.02-1.12-0.04-2.25-0.07-3.37c-0.03-1.1-0.09-2.21-0.04-3.31
				c0.05-1.11,0.2-2.21,0.34-3.31c0.13-1.06,0.24-2.13,0.22-3.2c-0.02-1.12-0.19-2.25-0.33-3.36c-0.14-1.1-0.28-2.19-0.42-3.29
				s-0.17-2.21-0.27-3.31c-0.09-1-0.3-1.95-0.67-2.89c-0.17-0.43-0.35-0.86-0.44-1.31c-0.13-0.63-0.08-1.28-0.11-1.92
				c-0.04-0.98-0.32-1.89-0.57-2.83c-0.29-1.12-0.37-2.26-0.45-3.4c-0.31-4.49-0.32-8.99-0.63-13.47c-0.07-1.06-0.2-2.12-0.15-3.18
				c0.05-1.11,0.29-2.14,0.54-3.22c0.08-0.35,0.12-0.69,0.03-1.05c-0.13-0.51-0.46-0.93-0.57-1.45c-0.2-1,0.02-2.02,0.13-3.01
				c0.21-1.85-0.17-3.58-0.53-5.38C74.57,58.19,73.75,58.41,73.85,58.95L73.85,58.95z"/>
		</g>
		<g>
			<path d="M40.93,17.08c1.57-0.39,3.14-0.78,4.72-1.16c0.72-0.18,1.45-0.41,2.2-0.48c0.19-0.02,0.61-0.11,0.74,0.08
				c0.08,0.12,0.1,0.34,0.13,0.48c0.05,0.2,0.09,0.4,0.13,0.6c0.07,0.36,0.12,0.73,0.15,1.1c0.03,0.39,0.01,0.8,0.08,1.19
				c0.11,0.65,0.66,1.05,1.28,1.14c0.38,0.05,0.77,0,1.15-0.07c0.36-0.07,0.66-0.25,0.75-0.62c0.08-0.33,0.05-0.72,0.03-1.06
				c-0.02-0.4-0.07-0.8-0.13-1.19c-0.12-0.82-0.32-1.63-0.5-2.44c-0.09-0.41-0.19-0.83-0.24-1.25c-0.04-0.32-0.06-0.64,0.13-0.91
				c0.32-0.45-0.42-0.88-0.74-0.43c-0.39,0.56-0.28,1.26-0.16,1.89c0.13,0.72,0.3,1.43,0.46,2.15c0.15,0.72,0.29,1.45,0.33,2.19
				c0.01,0.16,0.01,0.33,0.01,0.49c0,0.05-0.04,0.37,0.02,0.32c-0.08,0.07-0.33,0.07-0.44,0.08c-0.2,0.03-0.42,0.05-0.62,0
				c-0.19-0.04-0.4-0.14-0.47-0.34c-0.06-0.16-0.04-0.35-0.05-0.52c-0.01-0.2-0.02-0.41-0.04-0.61c-0.07-0.75-0.18-1.5-0.39-2.22
				c-0.08-0.29-0.2-0.56-0.47-0.73c-0.28-0.18-0.63-0.19-0.95-0.18c-0.75,0.04-1.49,0.25-2.21,0.43c-1.71,0.42-3.42,0.84-5.13,1.26
				C40.17,16.39,40.4,17.21,40.93,17.08L40.93,17.08z"/>
		</g>
		<g>
			<path d="M97.74,11.46c-3.32-0.59-6.67-1.04-10.02-1.36c-1.67-0.16-3.36-0.34-5.03-0.36c-0.7-0.01-1.65-0.04-2.22,0.44
				c-0.55,0.47-0.6,1.36-0.61,2.03c0,0.45,0.04,0.89,0.1,1.34c0.06,0.42,0.17,0.85,0.18,1.27c0.02,0.97-1.03,0.84-1.7,0.7
				c0.1,0.1,0.2,0.2,0.3,0.3c-0.15-0.65-0.25-1.31-0.3-1.97c-0.04-0.67,0-1.33-0.02-1.99c-0.04-1.12-0.46-2.37-1.65-2.72
				c-0.53-0.16-0.75,0.67-0.23,0.82c1.02,0.3,1.04,1.63,1.02,2.49c-0.02,1.22,0.07,2.41,0.35,3.6c0.03,0.14,0.16,0.27,0.3,0.3
				c0.74,0.16,1.55,0.28,2.19-0.2c0.63-0.47,0.64-1.23,0.52-1.94c-0.13-0.79-0.26-1.58-0.19-2.39c0.02-0.29,0.05-0.7,0.25-0.93
				c0.2-0.23,0.6-0.23,0.87-0.25c0.83-0.07,1.67,0,2.51,0.06c0.84,0.06,1.68,0.12,2.52,0.2c1.68,0.15,3.35,0.33,5.03,0.55
				c1.88,0.24,3.75,0.53,5.61,0.86c0.23,0.04,0.46-0.06,0.53-0.3C98.1,11.78,97.97,11.5,97.74,11.46L97.74,11.46z"/>
		</g>
		
			<ellipse transform="matrix(0.1501 -0.9887 0.9887 0.1501 36.4616 69.5424)" class="st34" cx="58.68" cy="13.56" rx="2.35" ry="2.14"/>
		<ellipse class="st35" cx="58.31" cy="13.57" rx="1.65" ry="1.92"/>
		<g>
			<path d="M107.96,78.65c0.29,5.31,1.95,10.53,4.78,15.03c0.8,1.28,1.7,2.5,2.67,3.65c0.18,0.21,0.48-0.09,0.3-0.3
				c-3.39-4-5.73-8.86-6.77-14c-0.29-1.44-0.48-2.9-0.56-4.37C108.37,78.38,107.94,78.37,107.96,78.65L107.96,78.65z"/>
		</g>
		<g>
			<path d="M118.18,112.47c0.58,1.58,0.67,3.17,0.36,4.81c-0.26,1.42-0.68,2.81-0.71,4.27c-0.02,0.98,0.14,1.96,0.42,2.9
				c0.08,0.26,0.49,0.15,0.41-0.11c-0.49-1.62-0.49-3.23-0.16-4.88c0.28-1.41,0.68-2.8,0.64-4.25c-0.02-0.98-0.23-1.94-0.57-2.85
				C118.5,112.1,118.09,112.21,118.18,112.47L118.18,112.47z"/>
		</g>
		<g>
			<path d="M103.02,137.53c2.6,0.96,5.49,0.97,8.21,0.64c2.64-0.32,5.29-0.98,7.71-2.1c0.95-0.44,1.92-0.96,2.67-1.7
				c0.2-0.19-0.11-0.5-0.3-0.3c-0.63,0.62-1.42,1.07-2.21,1.46c-1.08,0.53-2.22,0.94-3.37,1.28c-2.66,0.78-5.46,1.22-8.23,1.11
				c-1.48-0.06-2.96-0.28-4.36-0.8C102.88,137.02,102.77,137.44,103.02,137.53L103.02,137.53z"/>
		</g>
		<g>
			<path d="M56.93,130.46c0.81,0.93,2.04,1.3,3.21,1.5c1.3,0.23,2.63,0.37,3.95,0.46c2.67,0.18,5.39,0.07,7.98-0.64
				c1.44-0.4,2.82-0.99,4.08-1.79c0.23-0.15,0.02-0.52-0.22-0.37c-4.46,2.83-10.07,2.75-15.12,2.02c-1.28-0.19-2.69-0.45-3.58-1.48
				C57.05,129.95,56.75,130.26,56.93,130.46L56.93,130.46z"/>
		</g>
		<g>
			<path d="M52.86,93.72c-0.14-0.6-0.34-1.19-0.61-1.75c-0.13-0.29-0.28-0.56-0.45-0.83c-0.14-0.22-0.29-0.46-0.53-0.58
				c-0.23-0.12-0.51-0.1-0.75-0.19c-0.25-0.09-0.46-0.26-0.64-0.45c-0.43-0.47-0.61-1.1-0.79-1.7c-0.08-0.26-0.49-0.15-0.41,0.11
				c0.3,1,0.73,2.22,1.87,2.49c0.34,0.08,0.57,0.06,0.78,0.38c0.17,0.24,0.31,0.51,0.44,0.77c0.3,0.59,0.52,1.22,0.67,1.86
				C52.51,94.1,52.92,93.99,52.86,93.72L52.86,93.72z"/>
		</g>
		<g>
			<path d="M41.85,55.19c0.17,1.64,0.98,3.17,2.23,4.25c0.31,0.27,0.65,0.51,1,0.71c0.17,0.1,0.35,0.19,0.53,0.26
				c0.23,0.1,0.45,0.17,0.51,0.44c0.11,0.52,0.09,1.1,0.12,1.64c0.04,0.56,0.07,1.12,0.09,1.68c0.06,1.26,0.09,2.52,0.1,3.78
				c0.09-0.07,0.18-0.14,0.27-0.21c-0.32-0.13-0.66,0.01-0.87,0.27c-0.25,0.31-0.25,0.73-0.23,1.11c0.02,0.27,0.44,0.28,0.43,0
				c-0.02-0.32-0.01-1.19,0.55-0.97c0.13,0.05,0.27-0.08,0.27-0.21c-0.01-2.22-0.1-4.45-0.27-6.67c-0.03-0.41-0.03-0.84-0.42-1.08
				c-0.35-0.22-0.75-0.35-1.1-0.57c-0.72-0.45-1.34-1.07-1.81-1.78c-0.53-0.8-0.87-1.71-0.97-2.67
				C42.25,54.92,41.82,54.91,41.85,55.19L41.85,55.19z"/>
		</g>
		<g>
			<path d="M78.14,68.78c0.6,1.36,1.58,2.54,2.81,3.38c0.32,0.22,0.66,0.39,0.98,0.6c0.4,0.25,0.7,0.62,1.02,0.96
				c0.65,0.68,1.3,1.37,1.96,2.05c0.19,0.2,0.49-0.1,0.3-0.3c-0.65-0.68-1.3-1.37-1.96-2.05c-0.28-0.3-0.55-0.61-0.88-0.86
				c-0.31-0.24-0.67-0.41-1-0.62c-1.26-0.81-2.26-1.99-2.86-3.37C78.4,68.31,78.03,68.53,78.14,68.78L78.14,68.78z"/>
		</g>
		<g>
			<path d="M86.71,77.49c0.75,0.42,1.35,1.09,1.68,1.88c0.09-0.09,0.18-0.18,0.26-0.26c-0.6-0.1-1.2-0.09-1.8,0.01
				c-0.11,0.02-0.18,0.16-0.15,0.26c0.03,0.12,0.15,0.17,0.26,0.15c0.52-0.09,1.05-0.09,1.57-0.01c0.14,0.02,0.33-0.09,0.26-0.26
				c-0.37-0.9-1.03-1.66-1.88-2.14C86.69,76.98,86.47,77.35,86.71,77.49L86.71,77.49z"/>
		</g>
		<g>
			<path d="M96.11,113.76c-0.18-0.96-0.36-1.91-0.54-2.87c-0.07-0.39-0.11-0.82-0.26-1.2s-0.48-0.59-0.78-0.84
				c-1.21-0.99-2.3-2.21-2.72-3.74c-0.07-0.26-0.49-0.15-0.41,0.11c0.41,1.49,1.41,2.72,2.57,3.71c0.29,0.25,0.7,0.47,0.9,0.81
				c0.2,0.35,0.22,0.86,0.29,1.26c0.18,0.96,0.36,1.91,0.54,2.87C95.75,114.14,96.16,114.03,96.11,113.76L96.11,113.76z"/>
		</g>
		<g>
			<path d="M96.26,117.98c0.42,1.95,0.84,3.91,1.42,5.82c0.07,0.23,0.15,0.46,0.17,0.69c0.02,0.24-0.03,0.48-0.06,0.72
				c-0.04,0.27-0.05,0.55-0.05,0.82c0.01,0.68,0.11,1.37,0.24,2.04c0.14,0.67,0.31,1.38,0.66,1.98c0.14,0.24,0.51,0.02,0.37-0.22
				c-0.3-0.52-0.45-1.12-0.58-1.7c-0.15-0.67-0.25-1.35-0.27-2.04c-0.02-0.73,0.21-1.42,0.01-2.14c-0.26-0.94-0.54-1.87-0.77-2.82
				c-0.26-1.09-0.5-2.18-0.73-3.28C96.61,117.6,96.2,117.71,96.26,117.98L96.26,117.98z"/>
		</g>
		<g>
			<path d="M74.7,136.59c-0.06-0.85-0.18-1.7-0.35-2.54c-0.09-0.42-0.2-0.84-0.3-1.26c-0.1-0.42-0.15-0.9,0.28-1.15
				c0.34-0.2,0.78-0.08,1.02,0.23c0.23,0.3,0.28,0.7,0.34,1.05c0.16,0.9,0.31,1.8,0.47,2.7c0.05,0.27,0.46,0.16,0.41-0.11
				c-0.09-0.54-0.19-1.09-0.28-1.63c-0.09-0.51-0.15-1.03-0.28-1.53c-0.1-0.39-0.27-0.78-0.62-1.02c-0.32-0.22-0.73-0.28-1.1-0.15
				c-0.34,0.13-0.61,0.41-0.71,0.77c-0.13,0.47,0.06,0.97,0.17,1.43c0.26,1.05,0.43,2.12,0.51,3.21
				C74.29,136.86,74.72,136.86,74.7,136.59L74.7,136.59z"/>
		</g>
		<g>
			<path d="M77.51,134.87c-0.12-0.78-0.26-1.56-0.43-2.34c-0.08-0.39-0.17-0.77-0.27-1.16c-0.08-0.35-0.12-0.68,0.21-0.91
				c1.25-0.87,1.63,2.63,1.64,3.25c0,0.27,0.43,0.28,0.43,0c-0.01-0.73-0.12-1.46-0.34-2.16c-0.17-0.55-0.39-1.26-0.94-1.53
				c-0.48-0.24-1.06-0.02-1.34,0.41c-0.16,0.24-0.18,0.52-0.13,0.8c0.07,0.39,0.18,0.77,0.26,1.15c0.19,0.86,0.35,1.73,0.49,2.61
				C77.14,135.25,77.55,135.14,77.51,134.87L77.51,134.87z"/>
		</g>
		<g>
			<path d="M119.69,141.27c-0.21-0.71-0.39-1.44-0.54-2.16c-0.07-0.34-0.17-0.7-0.18-1.04c-0.01-0.31,0.08-0.59,0.41-0.68
				c0.63-0.18,1.05,0.5,1.21,1c0.22,0.71,0.34,1.46,0.51,2.19c0.06,0.27,0.47,0.15,0.41-0.11c-0.15-0.68-0.28-1.38-0.47-2.05
				c-0.15-0.54-0.43-1.11-0.96-1.36c-0.44-0.21-1.01-0.15-1.33,0.25c-0.38,0.48-0.16,1.18-0.05,1.72c0.16,0.79,0.36,1.58,0.58,2.36
				C119.35,141.65,119.76,141.54,119.69,141.27L119.69,141.27z"/>
		</g>
		<g>
			<path d="M122.32,139.86c-0.09-0.64-0.21-1.28-0.34-1.92c-0.06-0.31-0.13-0.61-0.2-0.91c-0.06-0.25-0.15-0.57,0.02-0.79
				c0.15-0.19,0.46-0.32,0.7-0.28c0.27,0.05,0.36,0.34,0.44,0.57c0.21,0.64,0.41,1.28,0.62,1.93c0.08,0.26,0.5,0.15,0.41-0.11
				c-0.13-0.41-0.26-0.82-0.4-1.23c-0.11-0.34-0.2-0.71-0.35-1.04c-0.29-0.62-1.02-0.67-1.54-0.29c-0.62,0.45-0.34,1.2-0.2,1.82
				c0.18,0.79,0.32,1.58,0.44,2.38C121.95,140.25,122.36,140.13,122.32,139.86L122.32,139.86z"/>
		</g>
		<g>
			<path d="M63.78,11.02c3.41-0.7,6.87-1.12,10.34-1.25c0.27-0.01,0.28-0.44,0-0.43c-3.51,0.13-7.01,0.56-10.46,1.27
				C63.4,10.66,63.52,11.07,63.78,11.02L63.78,11.02z"/>
		</g>
		<g>
			<path d="M80.71,9.67c-0.01-0.44-0.07-0.87-0.18-1.29c-0.03-0.11-0.15-0.18-0.26-0.15c-0.11,0.04-0.18,0.15-0.15,0.26
				c0.11,0.41,0.16,0.76,0.17,1.18c0,0.11,0.1,0.22,0.21,0.21C80.61,9.88,80.71,9.79,80.71,9.67L80.71,9.67z"/>
		</g>
		<g>
			<path d="M48.1,12.2c-0.13,0.65-0.1,1.32,0.1,1.95c0.08,0.26,0.49,0.15,0.41-0.11c-0.17-0.56-0.21-1.15-0.1-1.72
				c0.02-0.11-0.03-0.23-0.15-0.26C48.26,12.02,48.12,12.08,48.1,12.2L48.1,12.2z"/>
		</g>
		
			<ellipse transform="matrix(0.9957 -0.0925 0.0925 0.9957 -1.2699 7.6398)" class="st36" cx="81.78" cy="17.52" rx="1.29" ry="1.43"/>
		
			<ellipse transform="matrix(0.9836 -0.1806 0.1806 0.9836 -4.888 7.6725)" class="st37" cx="39.69" cy="30.68" rx="0.76" ry="1.25"/>
		<g>
			<path d="M87.93,12.93c0.15,1.27,0.39,2.54,0.59,3.8c0.09,0.59,0.14,1.21,0.26,1.79c0.14,0.68,0.73,0.78,1.32,0.92
				c1.41,0.32,2.84,0.54,4.28,0.66c0.69,0.06,1.42,0.14,2.11,0.08c0.23-0.02,0.47-0.08,0.64-0.26c0.2-0.22,0.2-0.52,0.2-0.8
				c-0.01-1.64-0.19-3.27-0.51-4.88c-0.05-0.27-0.47-0.16-0.41,0.11c0.27,1.3,0.43,2.61,0.48,3.94c0.01,0.31,0.02,0.62,0.02,0.93
				c0,0.13,0.01,0.29-0.08,0.39c-0.09,0.11-0.27,0.13-0.41,0.14c-0.6,0.04-1.23-0.03-1.83-0.07c-1.32-0.1-2.63-0.28-3.92-0.56
				c-0.3-0.06-0.6-0.13-0.9-0.21c-0.35-0.09-0.52-0.23-0.58-0.59c-0.08-0.52-0.14-1.05-0.22-1.58c-0.2-1.27-0.44-2.54-0.59-3.82
				C88.33,12.66,87.9,12.65,87.93,12.93L87.93,12.93z"/>
		</g>
		<g>
			<path d="M81.16,12.29c4.3,0.27,8.59,0.8,12.83,1.6c1.19,0.22,2.38,0.47,3.56,0.74c0.27,0.06,0.38-0.35,0.11-0.41
				c-4.23-0.95-8.51-1.64-12.83-2.06c-1.22-0.12-2.45-0.22-3.68-0.29C80.89,11.84,80.89,12.27,81.16,12.29L81.16,12.29z"/>
		</g>
		
			<ellipse transform="matrix(0.9957 -0.0925 0.0925 0.9957 -1.9297 8.9069)" class="st36" cx="95.12" cy="25.27" rx="1.29" ry="1.43"/>
		
			<ellipse transform="matrix(0.9836 -0.1806 0.1806 0.9836 -3.1451 8.6155)" class="st37" cx="45.74" cy="21.58" rx="0.98" ry="1.25"/>
	</g>
</g>
</svg>
