<?xml version="1.0" encoding="utf-8"?>
<!-- Generator: Adobe Illustrator 28.0.0, SVG Export Plug-In . SVG Version: 6.00 Build 0)  -->
<svg version="1.1" id="Layer_1" xmlns="http://www.w3.org/2000/svg" xmlns:xlink="http://www.w3.org/1999/xlink" x="0px" y="0px"
	 viewBox="0 0 150 150" style="enable-background:new 0 0 150 150;" xml:space="preserve">
<style type="text/css">
	.st0{fill:#A51313;}
	.st1{fill:url(#SVGID_1_);}
	.st2{fill:url(#SVGID_00000173126040882130823030000012868534863059012236_);}
	.st3{fill:url(#SVGID_00000033327725935454655130000015363229856906115726_);}
	.st4{fill:#F00000;}
	.st5{fill:#F4D800;}
	.st6{fill:#7F0909;}
	.st7{fill:#66244B;}
	.st8{fill:#EFEFEF;}
	.st9{fill:#DBDBD9;}
	.st10{fill:#D3D3D3;}
	.st11{fill:#C4C4C4;}
	.st12{fill:url(#SVGID_00000011715351359874552840000017360901138717884604_);}
	.st13{fill:#DBD749;}
	.st14{fill:#C6AB38;}
	.st15{fill:#EAE1B9;}
	.st16{fill:#EF6D25;}
	.st17{fill:url(#SVGID_00000098212056024532880260000012198255439270677144_);}
	.st18{fill:url(#SVGID_00000165216907508589827490000014246965933604503223_);}
	.st19{fill:#BCB288;}
	.st20{fill:#C9A920;}
	.st21{fill:#F4D34D;}
	.st22{fill:#F42B16;}
	.st23{fill:#CC1A0D;}
	.st24{fill:#3D170D;}
	.st25{fill:#60291E;}
	.st26{fill:#040404;}
	.st27{fill:none;stroke:#040404;stroke-width:2;stroke-miterlimit:10;}
	.st28{fill:none;stroke:#040404;stroke-miterlimit:10;}
	.st29{fill:none;stroke:#040404;stroke-linecap:round;stroke-linejoin:round;stroke-miterlimit:10;}
</style>
<g id="Wagey_Tray">
	<g>
		<path d="M142.81,114.01c0.05-0.34-0.03-0.68-0.22-0.95c-0.16-0.23-0.39-0.38-0.66-0.45c-1.54-1.73-3.3-3.38-5.22-4.9l1.78-41.73
			c0.48-0.34,0.82-0.78,1.02-1.33c0.17-0.47,0.26-0.94,0.35-1.4c0.09-0.45,0.17-0.88,0.32-1.28c0.11-0.29,0.09-0.62-0.06-0.92
			c-0.12-0.24-0.32-0.44-0.54-0.57v-3.55c0-2.07-4.14-3.28-7.57-3.93c-1.18-0.32-2.13-0.54-3.02-0.72c-1.2-0.23-2.26-0.49-3.5-0.5
			c-0.75-0.01-1.49-0.01-2.24-0.02c-0.18,0-0.35,0-0.52,0.02c-0.12,0.02-0.25,0.05-0.37,0.05c-0.52-0.02-0.58-0.31-1.13-0.02
			l0.29-6.66c0.03-0.62,0.04-1.24,0.06-1.87l0.03-0.88c0.01-0.01,0.03-0.02,0.04-0.03c0.31-0.23,0.37-0.68,0.13-1
			c-0.04-0.05-0.08-0.09-0.13-0.13c0.01-0.27,0.03-0.53,0.04-0.8c0.22-0.16,0.31-0.44,0.24-0.7c-0.02-0.07-0.05-0.14-0.1-0.2
			c0.23-0.07,0.45-0.16,0.66-0.27c0.17-0.09,0.28-0.27,0.27-0.46s-0.12-0.36-0.3-0.44l-0.18-0.08c-0.04-0.04-0.09-0.08-0.15-0.1
			c0.1-0.01,0.19-0.02,0.29-0.05c0.07,0,0.15,0,0.22,0l0.85-0.02c0.19,0,0.35-0.11,0.44-0.28c0.06-0.13,0.07-0.27,0.02-0.4
			c0.1-0.17,0.19-0.19,0.12-0.37c1.59-0.91,2.91-1.5,4.5-2.34c1.37-0.73,2.73-1.46,4.1-2.19c1.03-0.55,2.06-1.1,3.09-1.66
			c0.97-0.52,2.06-0.91,2.08-2.2c0.01-0.75-0.33-1.53-0.95-1.95c-0.97-0.66-1.96-0.1-2.85,0.38c-0.69,0.36-1.37,0.73-2.06,1.09
			c-2.21,1.17-4.41,2.34-6.62,3.51c-1.2,0.64-2.41,1.28-3.61,1.92c-0.13,0.07-0.43,0.2-0.6,0.3c-0.31,0.19-0.6,0.35-0.9,0.4
			c-0.11-0.15-0.1-0.08-0.28-0.11c-0.05-0.01-0.1-0.01-0.16,0c-0.02-0.02-0.04-0.03-0.06-0.05c-0.14-0.11-0.33-0.13-0.5-0.06
			c-0.16,0.07-0.28,0.22-0.3,0.4l-0.05,0.45c-0.14,0.1-0.27,0.21-0.38,0.34l-0.59-0.27c-0.2-0.09-0.44-0.04-0.58,0.12
			c-0.15,0.16-0.17,0.41-0.05,0.59c0.08,0.14,0.17,0.27,0.27,0.4c-0.14,0.06-0.28,0.13-0.41,0.21c-0.16,0.09-0.26,0.26-0.26,0.44
			s0.1,0.35,0.27,0.44c0.18,0.1,0.37,0.18,0.58,0.25c-0.06,0.5-0.08,1.01-0.09,1.51l-0.01,0.22c-0.06,0.09-0.1,0.2-0.11,0.31
			c-0.01,0.13,0.02,0.25,0.08,0.37l-0.12,2.04l-0.01,0.11l-0.11,1.79c-0.2,1.41-0.28,2.52-0.25,3.56c-0.17,0.36-0.2,0.75-0.08,1.12
			l0.03,0.13L117,49.9c-0.05,0.44-0.07,0.88-0.1,1.33l-0.04,0.7c-9.48,0.19-18.92,1.93-19.06,4.99c-0.07,0.3-0.07,0.61-0.07,0.92
			c-0.28,0.39-0.32,0.89-0.11,1.28c-0.05,0.64-0.07,1.45,0.08,2.27c0.02,0.11,0.05,0.22,0.08,0.33c-0.21,0.32-0.26,0.7-0.13,1.03
			c0.15,0.4,0.23,0.83,0.32,1.28c0.09,0.46,0.18,0.94,0.35,1.4c0.2,0.55,0.54,0.98,1.02,1.32l0.82,21.37
			c-0.23-0.19-0.47-0.37-0.72-0.52l-0.23-0.13c-0.24-0.14-0.37-0.22-0.47-0.38c-0.28-0.44-0.53-0.78-0.8-1.08
			c-0.5-0.56-1.13-1.06-1.82-1.46c-1.43-0.81-3.08-1.15-4.64-0.95c-0.46,0.06-0.84,0.14-1.19,0.25c-0.11,0.03-0.22,0.07-0.32,0.11
			c-0.33,0.11-0.61,0.22-0.91,0.2c-0.68-0.03-1.38-0.13-2.06-0.22l-0.7-0.09c0,0-0.04,0-0.08-0.01c-0.02-0.03-0.03-0.06-0.05-0.08
			c-0.05-0.08-0.09-0.16-0.14-0.23c-0.28-0.38-0.61-0.71-1.01-1c-0.6-0.44-1.38-0.77-2.24-0.94c-2.08-0.42-4.11-0.02-5.45,0.39
			c-0.44,0.13-0.86,0.32-1.27,0.5c-0.47,0.21-0.91,0.41-1.37,0.52c-0.59,0.14-1.28,0.13-1.96,0.11c-0.27-0.01-0.54-0.01-0.8-0.01
			c-0.38,0.01-0.61,0-0.85-0.14c-0.15-0.08-0.29-0.18-0.43-0.27c-0.21-0.14-0.42-0.28-0.65-0.4c-0.73-0.38-1.56-0.58-2.4-0.6
			c-1.9-0.05-3.71,0.88-4.82,2.48c-0.23,0.33-0.45,0.68-0.66,1.02c-0.32,0.51-0.62,0.99-0.98,1.45c-0.26,0.33-0.53,0.65-0.82,0.95
			c-0.1-0.37-0.3-0.71-0.56-0.95c-0.12-0.11-0.25-0.2-0.45-0.31c0.01-0.08,0.02-0.17,0.04-0.23c0.02-0.12,0.04-0.24,0.05-0.35
			l0.47-5.95c0.05-0.54,0.11-1.15-0.06-1.75c-0.2-0.68-0.68-1.2-1.45-1.54c-0.41-0.18-0.82-0.36-1.23-0.54
			c0.13-1.02,0.2-1.83,0.22-2.6c0.01-0.47-0.03-1.16-0.5-1.72c-0.41-0.49-0.99-0.72-1.5-0.93c-1.34-0.54-2.56-0.34-3.37,0.54
			c-0.06,0.07-0.13,0.14-0.19,0.21c0.05-0.5,0.1-1.01,0.09-1.52c-0.03-1.79-1.19-3.04-2.96-3.19c-1.1-0.09-2.01,0.28-2.9,0.64
			c-0.45,0.18-0.87,0.35-1.35,0.48c-0.08,0.02-0.25,0.07-0.4,0.09l-0.73-3.17c-0.12-0.54-0.68-0.96-1.23-0.94
			c-1.46,0.05-3.11,0.21-4.29,1.36c-0.5,0.49-0.85,1.08-1.19,1.65l-1.64,2.7c-0.12,0.2-0.18,0.29-0.27,0.32
			c-0.15,0.05-0.31,0.07-0.48,0.1c-0.14,0.02-0.28,0.04-0.42,0.07c-0.7,0.16-1.34,0.54-1.81,1.08c-0.6,0.69-0.93,1.54-0.94,2.42
			c-0.74,0.19-1.43,0.46-2.07,0.8c-0.43,0.24-1.07,0.61-1.56,1.1c-0.48,0.48-0.75,1.1-0.81,1.9c-0.05,0.56-0.07,1.13-0.1,1.69
			c-0.03,0.7-0.06,1.4-0.14,2.09c-0.1,0.94-0.25,1.94-0.46,3.05l-1.96,0.67c-0.74,0.25-1.55,0.61-1.94,1.64
			c-0.22,0.6-0.35,1.24-0.47,1.86c-0.05,0.23-0.09,0.47-0.14,0.7c-0.19,0.84-0.37,1.68-0.54,2.52c-0.71,3.39-1.32,6.84-1.84,10.25
			c-0.24,1.6-0.47,3.31-0.71,5.21l-10.54,5.54c-0.14,0.07-0.23,0.16-0.3,0.23c-0.42,0.3-0.6,0.87-0.46,1.39
			c-0.01,0.23,0.05,0.45,0.17,0.65c1.02,1.74,2.11,3.33,3.23,4.73c1.31,1.64,3.05,2.54,4.91,2.54c0.06,0,0.11,0,0.18,0
			c10.16,0,20.24-0.08,28.76-0.16l7.8-0.08c6.91-0.07,13.81-0.14,20.72-0.18c4.69-0.03,19.14-0.04,26.93-0.05
			c6.05,0.02,12.07,0.13,18.21,0.25c3.26,0.06,6.52,0.12,9.78,0.17l1.33,0.02c2.41,0.04,4.9,0.07,7.35-0.02
			c0.99-0.04,1.77-0.27,2.46-0.72c0.66-0.44,1.24-1.04,1.83-1.9c0.98-1.43,1.67-3.12,1.97-4.9
			C142.86,114.37,142.85,114.19,142.81,114.01z"/>
		<path class="st0" d="M139.87,118.42c0.24-0.44,0.43-0.92,0.58-1.39c0.22-0.69,0.36-1.41,0.3-2.13c-0.18-2.04-1.93-3.53-3.55-4.79
			c-0.45-0.35-0.93-0.71-1.5-0.78c-0.13,1.14-0.65,3.2-1.68,3.88c-1.02,0.67-3.39,0.58-4.59,0.69c-3.23,0.31-6.48,0.26-9.71,0.04
			c-3.09-0.21-6.19-0.49-9.29-0.55c-1.92-0.03-3.83,0.17-5.74,0.19c-0.88,0.01-1.74-0.08-2.61-0.15c-0.45-0.04-0.96,0.09-1.42,0.11
			c-0.48,0.02-0.97,0.02-1.45,0.02c-1.67-0.02-3.33-0.16-5-0.16c-0.27,0-0.55,0.01-0.79,0.13c-0.27,0.14-0.45,0.42-0.61,0.68
			c-0.39,0.63-0.78,1.26-1.11,1.92c-0.24,0.48-0.45,0.99-0.75,1.44c-0.59,0.91-1.52,1.62-1.87,2.65c0.2,0.09,0.43,0.1,0.66,0.1
			c2.82,0.08,5.64,0.16,8.46,0.24c0.53,0.02,1.06,0.03,1.59-0.02c1.68-0.16,3.41,0.01,5.11-0.03c1.86-0.04,3.73-0.04,5.59,0
			c1.86,0.04,3.73,0.1,5.59,0.22c6.17,0.38,12.37-0.03,18.52,0.28c1.41,0.07,2.91-0.17,4.02-1.05
			C139.13,119.56,139.55,119.02,139.87,118.42z"/>
		<path class="st0" d="M92.82,113.7c-4.52,0.32-9.06,0.44-13.59,0.37c-0.2-0.1-0.43-0.16-0.71-0.15c-1.53,0.01-3.06,0.02-4.59,0.03
			c-0.59-0.07-1.18-0.09-1.78-0.08c-0.05,0-0.09-0.01-0.14-0.02c-1.66-0.02-3.31-0.03-4.97-0.05c-2.33-0.44-4.73-0.45-7.1-0.06
			c0.01-0.1,0.03-0.2,0.04-0.29c0.01-0.11,0.01-0.22,0.01-0.34c-0.02-0.13-0.04-0.27-0.05-0.4c-0.05-0.2-0.14-0.37-0.27-0.51
			c-0.07-0.11-0.16-0.2-0.27-0.27c-0.15-0.13-0.32-0.22-0.51-0.27c-0.39-0.09-0.59-0.07-0.98-0.01c-0.19,0.03-0.38,0.12-0.54,0.22
			c-0.01,0.01-0.03,0.02-0.04,0.03c-0.94,0.66-0.79,1.48-2.03,1.82c-1.07,0.29-2.22,0.22-3.32,0.16
			c-6.32-0.34-12.66-0.45-18.98-0.04c-2.1,0.14-4.22,0.33-6.28-0.08c-2.72-0.53-5.24-2.56-6.63-4.92c-0.41-0.7-1.36-0.96-2.07-0.54
			c-1.3,0.76-2.6,1.52-3.9,2.29c-1.24,0.73-2.57,1.39-3.76,2.21c-1.3,0.9-1.29,2.19-0.48,3.43c0.95,1.45,1.47,3.62,3.18,4.33
			c0.97,0.4,2.05,0.43,3.09,0.45c13.23,0.26,26.45-0.44,39.65-0.45c4.74,0,9.51,0.15,14.24-0.32c4.63,0.04,9.26,0.08,13.89,0.13
			c1.96,0.02,4.33,0.41,6.09-0.65c1.4-0.84,2.16-2.4,3.56-3.2C94.82,115.8,94.35,113.59,92.82,113.7z"/>
		
			<linearGradient id="SVGID_1_" gradientUnits="userSpaceOnUse" x1="17.0574" y1="33.3047" x2="20.8262" y2="43.9411" gradientTransform="matrix(1 0 0 -1 0 149.8898)">
			<stop  offset="0" style="stop-color:#000000"/>
			<stop  offset="0.4162" style="stop-color:#4A0909;stop-opacity:0.5838"/>
			<stop  offset="0.8137" style="stop-color:#8C1010;stop-opacity:0.1863"/>
			<stop  offset="1" style="stop-color:#A51313;stop-opacity:0"/>
		</linearGradient>
		<path class="st1" d="M17.34,108.99c0.56-0.31,1.18-0.63,1.8-0.48c0.58,0.14,0.98,0.67,1.36,1.13c1.38,1.67,3.19,2.98,5.21,3.77
			c-3.5,0.49-7.04,0.49-10.56,0.38c-0.67-0.02-4.06,0.29-4.4-0.27c-0.35-0.58,1.32-1.53,1.68-1.76
			C14,110.75,15.7,109.9,17.34,108.99z"/>
		
			<linearGradient id="SVGID_00000033356434039067186400000017943509947757332127_" gradientUnits="userSpaceOnUse" x1="74.9205" y1="43.6669" x2="75.81" y2="19.7785" gradientTransform="matrix(1 0 0 -1 0 149.8898)">
			<stop  offset="0" style="stop-color:#000000"/>
			<stop  offset="0.4162" style="stop-color:#4A0909;stop-opacity:0.5838"/>
			<stop  offset="0.8137" style="stop-color:#8C1010;stop-opacity:0.1863"/>
			<stop  offset="1" style="stop-color:#A51313;stop-opacity:0"/>
		</linearGradient>
		<path style="fill:url(#SVGID_00000033356434039067186400000017943509947757332127_);" d="M138.33,116.45
			c-3.3,0.17-6.59,0.35-9.89,0.27c-2.76-0.06-5.52-0.3-8.28-0.34c-4.39-0.07-8.76,0.33-13.15,0.39c-2.1,0.03-4.35-0.4-6.42-0.23
			c-0.09,0.01-0.17,0.04-0.25,0.06c0.08-0.04,0.17-0.06,0.27-0.06c-0.49-0.05-0.99-0.06-1.49-0.03c-0.27,0.02-0.54,0.05-0.81,0.06
			c-0.33,0.01-0.66-0.02-0.99-0.05c-1.05-0.12-2.08-0.34-3.13-0.35c-1.36-0.01-2.75,0.05-4.11,0.14c-1.43,0.09-2.87,0.17-4.3,0.24
			c-3.93,0.2-7.86,0.37-11.79,0.49c-3.93,0.13-7.87,0.22-11.8,0.28c-3.94,0.06-7.87,0.1-11.81,0.12c-3.94,0.02-7.87,0.01-11.81-0.01
			c-3.94-0.02-7.87-0.05-11.81-0.09c-3.92-0.04-7.83-0.09-11.75-0.13c-1.77-0.02-3.57-0.23-5.35-0.33
			c-0.29,0.46,1.52,1.69,1.83,2.11c0.65,0.88,1.31,1.55,2.37,1.97c1.64,0.66,3.47,0.6,5.24,0.53c22.84-0.87,45.69-1.25,68.55-1.17
			c1.95,0.01,3.93-0.02,5.89-0.09c4.62-0.17,9.27,0.16,13.89,0.32c8.87,0.31,17.74,0.62,26.62,0.62c1.43,0,2.94-0.03,4.16-0.77
			c1.43-0.87,2.15-2.52,2.78-4.07C140.08,116.36,139.21,116.4,138.33,116.45z"/>
		
			<linearGradient id="SVGID_00000118392844316930638440000003452598170012889520_" gradientUnits="userSpaceOnUse" x1="137.8258" y1="33.2634" x2="135.8996" y2="45.7422" gradientTransform="matrix(1 0 0 -1 0 149.8898)">
			<stop  offset="0" style="stop-color:#000000"/>
			<stop  offset="0.4162" style="stop-color:#4A0909;stop-opacity:0.5838"/>
			<stop  offset="0.8137" style="stop-color:#8C1010;stop-opacity:0.1863"/>
			<stop  offset="1" style="stop-color:#A51313;stop-opacity:0"/>
		</linearGradient>
		<path style="fill:url(#SVGID_00000118392844316930638440000003452598170012889520_);" d="M134.62,112.47
			c-0.21,0.22-0.48,0.48-0.4,0.77c0.09,0.31,0.49,0.39,0.82,0.41c1.64,0.09,3.27,0.18,4.91,0.26c0.22-0.31,0.45-0.67,0.38-1.05
			c-0.05-0.32-0.31-0.56-0.55-0.78c-0.62-0.57-2.59-3.02-3.49-2.82C135.47,109.45,135.28,111.79,134.62,112.47z"/>
		<path class="st4" d="M102.24,103.71c-3.15,1.02-6.43,1.09-9.71,1.06c-3.48-0.03-6.97-0.09-10.45-0.12c-3.5-0.02-6.99,0-10.48,0.15
			c-2.13,0.09-4.26,0.24-6.38,0.41c-0.8-0.12-1.72-0.05-2.48-0.04c-1.78,0.01-4.37,0.87-5.67-0.72c-0.72-0.88-2.24,0.28-1.59,1.22
			c0.22,0.31,0.44,0.63,0.66,0.94c-0.17,0.3-0.21,0.68,0.02,1.05c0.79,1.28,1.69,2.51,2.66,3.66c1.07,1.28,1.93,2.08,3.66,2.16
			c2.57,0.12,5.15,0.21,7.72,0.31c0.22,0.35,0.58,0.58,1.06,0.52c2.92-0.36,5.89-0.5,8.83-0.38c0.72,0.03,1.12-0.42,1.24-0.95
			c2.23,0.17,4.46,0.27,6.7,0.29c2.65,0.02,5.35-0.12,7.96,0.22c1.5,0.19,3.02-0.04,4.51-0.27c0.27-0.04,0.55-0.09,0.76-0.26
			c0.18-0.15,0.28-0.38,0.36-0.6c0.87-2.24,0.87-4.6,2.06-6.76C104.19,104.65,103.34,103.36,102.24,103.71z"/>
		<path class="st0" d="M59.35,102.2c-0.27-0.35-0.75-0.6-0.85-1.05c-0.13-0.61,0.4-1.39,0.61-1.93c0.4-1.04,0.52-2.13-0.1-3.11
			c-0.24-0.37-0.73-0.71-0.8-1.17c-0.09-0.54,0.28-1.19,0.47-1.67c0.35-0.88,0.73-1.87,0.47-2.82c-0.32-1.15-1.5-1.46-2.5-1.79
			c-1.21-0.4-2.44-0.7-3.7-0.84c-1.16-0.13-2.65-0.38-3.69,0.31c-0.9,0.59-1.06,1.66-1.46,2.58c-0.49,1.11-1.21,2.1-2.07,2.95
			c-1.85,1.85-4.28,2.93-6.78,3.58c-0.59,0.15-1.19,0.29-1.8,0.4c-0.07-0.43-0.35-0.8-0.91-0.9c-2.29-0.43-4.14-1.89-5.41-3.81
			c-0.6-0.9-1.1-1.88-1.51-2.88c-0.42-1.04-0.64-2.64-1.5-3.42c-0.36-0.33-0.83-0.49-1.29-0.48c-0.19-0.23-0.47-0.38-0.77-0.38
			c-2.73-0.01-3.31,2.91-3.52,5.05c-0.28,2.78-0.59,5.55-1.07,8.31c-0.22,1.31-0.47,2.61-0.75,3.91c-0.27,1.28-0.85,2.75-0.75,4.07
			c0.16,2.19,2.43,3.97,4.27,4.82c2.35,1.09,4.89,1.38,7.44,1.56c2.94,0.21,5.89,0.36,8.83,0.44c2.82,0.07,5.65,0.05,8.47-0.07
			c1.35-0.06,2.7-0.14,4.04-0.24c1.27-0.1,2.85-0.04,4.06-0.47c1.02-0.36,1.5-1.39,1.01-2.37c-0.59-1.19-1.35-2.19-1.76-3.47
			c-0.21-0.65-0.95-2.4,0.02-2.73c0.99-0.34,1.93,0.65,2.95,0.1C59.96,104.13,59.95,102.98,59.35,102.2z"/>
		<g>
			<path class="st5" d="M28.49,99.23c-0.58,1.8-1.02,3.74-0.85,5.64c0.16,1.77,0.82,3.84,2.42,4.82c1.79,1.1,3.9-0.05,4.85-1.7
				c1.05-1.83,1.42-4.13,1.68-6.19c0.17-1.29-1.9-1.5-2.23-0.3c-0.55,2.04-1.06,4.44-0.58,6.54c0.48,2.07,2.32,3.17,4.38,2.93
				c1.98-0.23,3.67-1.54,4.7-3.21c1.19-1.93,1.46-4.27,1.62-6.48c0.11-1.45-2.16-1.45-2.27,0c-0.21,2.74-0.77,6.6-3.97,7.39
				c-3.64,0.9-2.19-4.81-1.72-6.56c-0.74-0.1-1.48-0.2-2.23-0.3c-0.19,1.5-0.53,3.07-1.1,4.47c-0.38,0.93-1.44,2.27-2.38,1.13
				c-1.7-2.06-0.91-5.3-0.17-7.57C31.13,98.44,28.94,97.84,28.49,99.23L28.49,99.23z"/>
		</g>
		<path class="st6" d="M59.7,103.31c-0.16-0.18-0.33-0.34-0.51-0.48c-0.04-0.22-0.13-0.42-0.25-0.61c-0.07-0.27-0.21-0.49-0.35-0.74
			c0,0-0.04-0.09-0.05-0.12c-0.02-0.05-0.03-0.11-0.04-0.16c0-0.01-0.01-0.09-0.01-0.12c0-0.07,0-0.14,0-0.21
			c0-0.02,0.01-0.12,0.01-0.13c0.01-0.06,0.02-0.11,0.03-0.17c0.03-0.14,0.08-0.27,0.13-0.41c0.01-0.03,0.03-0.07,0.04-0.1
			c0,0,0,0,0-0.01c0.03-0.07,0.06-0.14,0.1-0.21c0.07-0.15,0.15-0.3,0.23-0.45c0.08-0.16,0.11-0.35,0.07-0.53
			c0.05-0.06,0.09-0.12,0.12-0.19c0.26-0.62,0.27-1.33,0.04-1.96c-0.24-0.65-0.92-1.06-0.82-1.81c0.1-0.71,0.48-1.36,0.64-2.06
			c0.11-0.44,0.16-0.89,0.19-1.33c0.57-0.31,0.69-1.25-0.09-1.36h-0.01c-0.28-0.75-1.55-0.7-1.45,0.19
			c0.01,0.12,0.02,0.24,0.03,0.37c0,0.02,0,0.04,0,0.06c-0.14,0.36-0.2,0.74-0.17,1.15c0.01,0.11,0.04,0.22,0.09,0.31
			c-0.03,0.15-0.06,0.31-0.1,0.46c-0.19,0.68-0.51,1.32-0.62,2.03c-0.06,0.41-0.03,0.82,0.1,1.2c-0.08,0.19-0.14,0.39-0.21,0.59
			c-0.12,0.09-0.22,0.21-0.26,0.39c-0.49,2.1-0.98,4.2-1.48,6.3c-0.14,0.58,0.47,1.16,1.03,0.88c0.02,0.01,0.04,0.02,0.06,0.03
			c0.01,0,0.03,0,0.04,0l0,0c0.67,0.14,1.55,0.5,2.23,0.23c0.03-0.01,0.05-0.03,0.07-0.05c0.03,0.03,0.06,0.06,0.09,0.09
			C59.28,105.11,60.34,104.04,59.7,103.31z"/>
		<path class="st6" d="M57.32,110.9c-0.08-0.36-0.22-0.7-0.4-1.01c-0.08-0.14-0.2-0.22-0.32-0.28c-0.06-0.14-0.12-0.27-0.16-0.41
			c-0.11-0.34-0.39-0.5-0.68-0.52c0-0.02-0.01-0.03-0.01-0.05c0-0.01-0.01-0.02-0.01-0.03c0.02-0.12,0.03-0.24,0.05-0.36
			c0.04-0.24-0.02-0.47-0.14-0.65c0.15-0.56,0.2-1.14,0.03-1.73c-0.27-0.93-1.72-0.54-1.46,0.4c0.25,0.87-0.36,1.87-0.7,2.65
			c-0.28,0.65-0.58,1.3-0.87,1.95c-0.44,0.34-0.93,0.61-1.44,0.84c-0.06,0.03-0.11,0.05-0.17,0.07c-4.67,0.16-9.34,0.3-14,0.31
			c-1.36-0.02-2.72-0.04-4.07-0.06c-4.42-0.19-8.89-0.95-12.33-3.9c-0.73-0.63-1.81,0.43-1.07,1.07c1.85,1.59,3.96,2.61,6.2,3.27
			c-0.12,0.43,0.11,0.98,0.69,0.98l6.53,0.09c0.77,0.03,1.54,0.05,2.31,0.06c0.51,0,1.02,0,1.53,0c1.24,0.02,2.49,0.04,3.73,0.05
			c2.27,0.03,4.56,0.1,6.84,0.07c0.08,0.16,0.23,0.3,0.46,0.36c0.73,0.2,1.44-0.08,2.13-0.31c0.17-0.06,0.34-0.12,0.51-0.18
			c0.79-0.05,1.58-0.12,2.37-0.22c0.18,0.14,0.43,0.2,0.68,0.16c0.52-0.08,1.01-0.23,1.5-0.43c0.17-0.07,0.36-0.15,0.54-0.24
			c0.24-0.01,0.47-0.05,0.69-0.15c0.53-0.23,0.8-0.64,0.89-1.12C57.32,111.41,57.38,111.15,57.32,110.9z"/>
		<path class="st5" d="M57.43,89.29c-1.9-0.2-3.81-0.4-5.71-0.6c-0.72-0.08-1.44-0.22-2.06,0.27c-0.56,0.45-0.81,1.19-1.14,1.8
			c-1.57,2.86-3.97,5.42-7.1,6.54c-3.21,1.15-6.71,0.71-9.36-1.51c-2.74-2.3-4.04-5.78-4.4-9.26c-0.04-0.38-0.31-0.79-0.76-0.76
			c-1.29,0.09-2.48,0.42-3.63,1.01c-0.87,0.44-0.1,1.75,0.76,1.3c0.71-0.37,1.45-0.6,2.22-0.72c0.74,5.09,3.5,10.19,8.76,11.7
			c5.44,1.56,10.84-1.58,13.86-5.99c0.43-0.62,0.81-1.27,1.16-1.94c0.15-0.29,0.28-0.78,0.57-0.95c0.28-0.17,0.79-0.01,1.11,0.02
			c1.9,0.2,3.81,0.4,5.71,0.6C58.4,90.9,58.39,89.39,57.43,89.29z"/>
		<path class="st7" d="M135.55,99.34c-0.04-0.12-0.1-0.22-0.16-0.32c0.1-0.19,0.16-0.41,0.17-0.67c0-0.25,0-0.5,0-0.75
			c0-0.26-0.08-0.5-0.22-0.71c-0.07-0.18-0.17-0.34-0.28-0.46c0.62-0.57-0.1-1.73-0.87-1.22c-4.53,2.98-10.45,3.21-15.71,3.35
			c-3.89,0.11-7.88-0.23-11.46-1.65c-0.96-0.47-1.88-1.02-2.75-1.66c-0.25-0.18-0.52-0.25-0.8-0.23c-0.22-0.16-0.45-0.31-0.67-0.48
			c-0.14-0.11-0.28-0.15-0.4-0.15c-0.05-0.03-0.1-0.06-0.15-0.09c-0.35-0.18-0.83-0.11-1.03,0.27c-0.21,0.39-0.07,0.79,0.27,1.03
			c0.03,0.02,0.05,0.04,0.08,0.06c0.01,0.01,0.01,0.02,0.02,0.03c0.08,0.08,0.17,0.17,0.25,0.25c0.07,0.07,0.15,0.11,0.24,0.14
			c-0.1,0.28-0.13,0.58-0.03,0.87c0.09,0.28,0.19,0.57,0.28,0.85c-0.04,0.08-0.07,0.16-0.08,0.25c-0.09,1.38-0.09,2.75,0,4.14
			c0.03,0.42,0.36,0.88,0.84,0.84c0.38-0.03,0.78,0.34,1.17,0.39c0.09,0.01,0.17,0.01,0.25,0.01c-0.79,2.61-1.34,5.27-1.75,7.96
			c-0.12,0.78,0.3,1.32,1.08,1.41c6.21,0.76,12.41,1.07,18.66,1.05c3-0.01,6.04-0.02,8.99-0.65c1.21-0.26,2.51-0.59,3.23-1.68
			c0.65-0.98,0.62-2.16,0.57-3.29C135.17,105.24,136.59,102.29,135.55,99.34z"/>
		<path class="st8" d="M101,78.73c0.01,2.85-0.02,5.7,0.16,8.55c0.1,1.63,0.11,3.52,0.6,5.18c-0.31,0.59-0.25,1.37,0.49,1.83
			c0.29,0.18,0.57,0.36,0.87,0.52c0.25,0.13,0.51,0.18,0.75,0.17c2.21,0.96,4.35,2.02,6.7,2.67c5.3,1.47,11.07,1.4,16.48,0.55
			c1.17-0.18,2.34-0.56,3.45-0.96c1-0.36,1.87-0.85,2.81-1.33c0.83-0.42,1.66-0.52,2.15-1.43c0.4-0.76,0.44-1.64,0.48-2.5
			c0.33-8.17,0.66-16.34,1-24.51c0.02-0.54,0.05-1.1,0.25-1.6c0.17-0.44,0.47-0.81,0.7-1.22c1.2-2.04,0.92-4.58,0.6-6.92
			c-0.1-0.73-0.22-1.51-0.72-2.06c-0.43-0.48-1.08-0.7-1.7-0.9c-2.38-0.75-4.82-1.5-7.27-1.98c-2.23-0.43-4.29-1.01-6.61-0.73
			c-0.33,0.04-0.67,0.1-0.94,0.28c-0.55,0.37-0.44,1.18-0.63,1.74c-0.2,0.59-0.6,1.11-1.18,1.37c-1.08,0.48-2.61-0.46-2.4-1.63
			c0.05-0.29,0.18-0.66-0.06-0.85c-0.12-0.09-0.28-0.09-0.42-0.09c-5.91,0.2-12.03,0.44-17.32,3.09c-0.35,0.17-0.7,0.37-0.91,0.7
			c-0.25,0.4-0.21,0.91-0.16,1.38c0.16,1.57,0.32,3.17,0.88,4.66c0.3,0.8,0.84,1.39,1.21,2.13c0.38,0.75,0.33,1.79,0.42,2.65
			c0.03,0.32,0.07,0.63,0.07,0.95c0,0.24-0.02,0.49-0.02,0.73c-0.01,1.49,0.2,2.98,0.23,4.49C100.99,75.37,100.99,77.05,101,78.73z"
			/>
		<g>
			<path class="st5" d="M105.39,75.67c-0.19,3.32,0.18,6.68,1.13,9.86c0.8,2.69,2.43,5.97,5.76,5.78c3.15-0.18,4.52-3.7,5.28-6.27
				c0.91-3.05,1.12-6.27,1.33-9.43c-1.01,0-2.01,0-3.02,0c-0.05,3.43-0.08,6.99,1.04,10.28c0.86,2.53,2.79,5.44,5.85,5.16
				c3.03-0.28,4.56-3.33,5.39-5.89c1.08-3.3,1.24-6.8,0.66-10.22c-0.14-0.8-1.13-1.26-1.86-1.05c-0.85,0.23-1.19,1.05-1.05,1.86
				c0.43,2.53,0.29,5.15-0.37,7.63c-0.37,1.38-1.18,4.53-3.02,4.67c-1.99,0.15-2.83-3.23-3.14-4.61c-0.57-2.56-0.51-5.22-0.48-7.83
				c0.03-1.96-2.89-1.92-3.02,0c-0.16,2.41-0.31,4.83-0.85,7.19c-0.26,1.15-0.59,2.31-1.08,3.39c-0.32,0.72-0.84,1.96-1.73,2.1
				c-2.03,0.32-2.78-3.45-3.1-4.76c-0.64-2.58-0.85-5.21-0.69-7.86C108.52,73.73,105.5,73.73,105.39,75.67L105.39,75.67z"/>
		</g>
		<path class="st9" d="M135.16,27.3c-4.23,2.18-8.4,4.48-12.5,6.89c-0.02,0-0.03,0.01-0.05,0.01c-0.47,0.16-0.9,0.41-1.24,0.72
			c-0.24,0.15-0.47,0.29-0.71,0.44c-0.59-0.42-1.43-0.24-1.88,0.3c-0.51,0.59-0.54,1.52-0.57,2.26c-0.02,0.58,0.01,1.17,0.02,1.76
			c-0.28,1.04-0.4,2.11-0.38,3.19c0,0.06,0.02,0.1,0.03,0.16c-0.24,1.49-0.43,2.99-0.37,4.5c-0.15,0.25-0.2,0.55-0.11,0.85
			c0.06,0.2,0.11,0.4,0.16,0.6c-0.23,0.81-0.24,1.65-0.29,2.5c-0.06,0.99-0.11,1.99-0.17,2.98c-0.04,0.63,0.55,1.1,1.13,1.13
			c0.64,0.03,1.33,0.14,1.81-0.38c0.45-0.48,0.44-1.26,0.49-1.87c0.08-0.93,0.03-1.85-0.08-2.76c0.13-1.61,0.15-3.22,0.09-4.82
			c0.36-2.25,0.46-4.55,0.26-6.83c0.12-0.12,0.22-0.27,0.29-0.48s0.18-0.42,0.24-0.63c0.04-0.15,0.21-0.14,0.04-0.22
			c0.83,0.41,1.69-0.2,1.68-1.01c4.34-2.57,8.76-5.02,13.25-7.33C137.6,28.59,136.46,26.63,135.16,27.3z"/>
		<path class="st5" d="M136.35,28.45c-4.89,2.52-9.75,5.11-14.57,7.77c-0.24,0.13-0.22,0.4-0.07,0.57c-0.01,0-0.01,0-0.02,0
			c-0.06,0.04-0.13,0.05-0.21,0.02c-0.16,0-0.3-0.03-0.46-0.01c-0.21,0.02-0.4,0.1-0.57,0.23c-0.34,0.28-0.43,0.73-0.46,1.15
			c-0.09,1.35,0,2.73,0.01,4.08c-0.06,0.06-0.1,0.14-0.1,0.25c-0.08,3.85-0.32,7.69-0.7,11.52l0,0v0.01c0,0.01-0.01,0.01-0.01,0.02
			l0,0c-0.01,0.01-0.02,0.01-0.03,0.02c-0.08,0.04-0.15,0.14-0.17,0.23s-0.01,0.21,0.04,0.29c0.03,0.05,0.07,0.08,0.11,0.12
			c-0.04,0.37-0.07,0.74-0.11,1.11c-0.05,0.48,0.7,0.48,0.76,0c0.02-0.2,0.04-0.4,0.06-0.6c0.01,0.01,0.01,0.02,0.02,0.03
			c0.04,0.08,0.14,0.15,0.23,0.17c0.09,0.02,0.21,0.01,0.29-0.04s0.15-0.13,0.17-0.23s0.01-0.2-0.04-0.29
			c-0.11-0.22-0.21-0.44-0.32-0.66c-0.04-0.08-0.14-0.15-0.23-0.17c0,0,0,0-0.01,0c0.38-3.81,0.62-7.63,0.7-11.45
			c0.06-0.06,0.11-0.15,0.11-0.26c0-0.87-0.01-1.73-0.01-2.6c0-0.37,0-0.74,0-1.12c0-0.26-0.05-0.7,0.13-0.92
			c0.22-0.27,0.67-0.08,0.97-0.14c0.21-0.04,0.39-0.16,0.51-0.33c0.12-0.17,0.15-0.35,0.13-0.52c4.72-2.6,9.47-5.13,14.25-7.6
			C137.16,28.88,136.78,28.23,136.35,28.45z"/>
		<path class="st10" d="M137.62,56.95c-2.25,2.02-5.85,2.2-8.71,2.6c-3.36,0.47-6.75,0.76-10.14,0.86
			c-3.33,0.09-6.67-0.02-9.99-0.36c-2.91-0.3-6.09-0.61-8.83-1.76c-0.33-0.23-0.68-0.4-1.1-0.5c-0.8-0.18-1.38,0.97-0.58,1.38
			c0.1,0.05,0.2,0.09,0.3,0.14c0.04,0.07,0.08,0.14,0.15,0.19l0,0c-0.3,0.17-0.51,0.54-0.42,0.89c0.15,0.56,0.44,0.98,0.83,1.32
			c0.02,0.28,0.18,0.56,0.53,0.67c0.61,0.19,1.22,0.38,1.82,0.56c0.14,0.04,0.26,0.04,0.38,0.01c0.25,0.06,0.49,0.11,0.74,0.16
			c0.13,0.03,0.26,0.05,0.39,0.08c1.64,0.31,3.3,0.49,4.97,0.54c0.29,0.05,0.57,0.12,0.86,0.17c1.33,0.22,2.66,0.33,3.99,0.38
			c0.11,0.08,0.23,0.14,0.38,0.15c5.92,0.64,11.91,0.37,17.74-0.79c0.06-0.01,0.12-0.01,0.18-0.02c1.07-0.11,7-0.75,7.2-2.59
			c0.08-0.08,0.15-0.18,0.17-0.32c0.22-1.07,0.36-2.15,0.43-3.25C138.95,56.79,138.07,56.54,137.62,56.95z"/>
		<path class="st11" d="M136.35,62.99c-0.15-0.11-0.36-0.15-0.61-0.07c-0.69,0.22-1.36,0.48-2.03,0.74
			c-0.61,0.2-1.23,0.36-1.86,0.51c-0.9,0.08-1.78,0.28-2.68,0.45c-1.21,0.23-2.42,0.46-3.63,0.69c-1.34,0.02-2.68,0.14-4.01,0.32
			c-2.52,0.09-5.03,0.13-7.55,0.09l0,0c-3.21-0.26-6.38-0.87-9.47-1.76c-0.08-0.15-0.23-0.28-0.45-0.33
			c-1.2-0.3-2.39-0.59-3.59-0.89c-0.85-0.21-1.28,0.9-0.58,1.38c1.23,0.84,2.55,1.52,3.94,2.02c0.06,0.14,0.15,0.27,0.29,0.35
			c4.11,2.3,8.75,2.5,13.34,2.26c0.11,0.2,0.31,0.34,0.61,0.32c1.04-0.06,2.08-0.16,3.11-0.29c0.77-0.09,1.55-0.19,2.32-0.3
			c0.11,0.07,0.24,0.12,0.41,0.11c3.93-0.11,7.54-1.56,11.03-3.23c0.84-0.21,1.63-0.53,2.28-1.16
			C137.86,63.58,137.09,62.67,136.35,62.99z"/>
		
			<linearGradient id="SVGID_00000067220670902682258270000011032508627877889931_" gradientUnits="userSpaceOnUse" x1="160.3521" y1="101.3926" x2="108.415" y2="74.6575" gradientTransform="matrix(1 0 0 -1 0 149.8898)">
			<stop  offset="0" style="stop-color:#000000"/>
			<stop  offset="1" style="stop-color:#EFEFEF;stop-opacity:0"/>
		</linearGradient>
		<path style="fill:url(#SVGID_00000067220670902682258270000011032508627877889931_);" d="M100.85,83.23
			c1.93-0.16,3.38,1.65,4.49,3.24c1.24,1.78,2.64,3.63,4.68,4.37c1.94,0.71,4.12,0.29,6.04-0.47s3.72-1.83,5.68-2.46
			c3.91-1.27,8.3-0.74,12.03-2.47c0.75-0.35,1.52-0.84,1.82-1.61c0.16-0.41,0.18-0.86,0.2-1.31c0.16-4.77,0.32-9.54,0.48-14.3
			c0.02-0.71,0.05-1.43,0.25-2.12c0.33-1.12,1.12-2.04,1.57-3.12c0.6-1.41,0.58-2.96,0.42-4.45c-0.04-0.37-0.05-1.9-0.4-2.08
			c-0.26-0.14-1.41,0.6-1.67,0.71c-3.05,1.24-6.27,2.38-9.61,2.28c0.98-0.88,1.96-1.76,2.93-2.64c0.24-0.22,0.5-0.53,0.36-0.82
			c-3.83,1.57-7.94,2.44-12.07,2.56c-1.62,0.05-3.3-0.03-4.79-0.69c-0.47-0.21-0.93-0.49-1.21-0.92c-0.28-0.43-0.31-1.05,0.02-1.44
			c-0.29,0.33-2.85,0.04-3.35,0.05c-1.01,0.01-1.86,0.19-2.84,0.33c-2.32,0.32-4.64,0.57-6.94,1.06c-0.22,0.05-0.46,0.1-0.6,0.27
			c-0.13,0.15-0.16,0.37-0.19,0.57c-0.15,1.17-0.28,2.36-0.07,3.53c0.28,1.54,1.15,2.9,1.79,4.32c1.09,2.41,0.73,5.31,0.78,7.91
			C100.72,76.77,100.79,80,100.85,83.23z"/>
		<path class="st13" d="M57.93,83.63c0.51-1.48,1.27-3.15,0.38-4.66c-0.36-0.61-0.92-1-1.55-1.28c-0.38-0.17-0.64-0.17-0.81-0.49
			c-0.23-0.42-0.12-1.2-0.1-1.64c0.02-0.79,0.09-1.57,0.19-2.35c0.16-1.24-1.57-2.16-2.55-1.46c-0.78,0.55-1.57,1.09-2.36,1.62
			c-0.39,0.27-0.79,0.54-1.18,0.82c-0.02,0.01-0.04,0.03-0.06,0.04c0.01-0.21,0.02-0.41,0.05-0.61c0.1-0.81,0.31-1.59,0.49-2.38
			c0.38-1.6-0.17-3.33-2.07-3.44c-1.44-0.08-2.93,0.77-4.13,1.48C43.1,69.95,43.16,68,43,67.35c-0.37-1.53-1.93-2.35-3.39-1.69
			c-1.42,0.64-2.28,2.28-3.17,3.48c-0.34,0.47-0.73,1.3-1.24,1.55c-0.23,0.11-0.57,0.08-0.82,0.16c-0.35,0.12-0.67,0.3-0.93,0.56
			c-0.55,0.54-0.55,1.17-0.76,1.85c-0.19,0.58-0.55,1.02-1.07,1.34c-0.28,0.17-0.46,0.4-0.57,0.64c-0.67,0.21-1.2,0.65-1.6,1.25
			c-0.1,0.11-0.17,0.23-0.22,0.35c-0.98,1.73-1.19,4.34-1.3,6c-0.24,3.43,0.24,7.15,2.37,9.95c2.05,2.7,5.81,4.5,9.22,4.33
			c1.79-0.09,3.54-0.75,4.94-1.86c1.45-1.15,2.12-2.8,3.13-4.3c0.53-0.79,1.12-1.55,1.73-2.28c0.54-0.63,0.91-0.66,1.74-0.67
			c1.8-0.01,3.91-0.25,5.4,0.89c1.28,0.98,2.9-1.16,1.72-2.23C57.29,85.88,57.58,84.64,57.93,83.63z"/>
		<path class="st14" d="M46.73,80.41c-0.05-0.45-0.21-0.99-0.76-0.98c-0.45,0.01-0.66,0.36-0.64,0.75c-0.06,0.08-0.1,0.16-0.14,0.27
			c-0.03,0.09-0.06,0.19-0.1,0.28c-0.07,0.19-0.12,0.39-0.17,0.59c-0.05,0.19-0.11,0.38-0.16,0.57c-0.04,0.16-0.07,0.31-0.05,0.46
			c-0.22,0.68-0.19,1.48-0.22,2.16c-0.05,1-0.09,2.01-0.15,3.01c-0.02,0.35-0.05,0.7-0.09,1.05c-0.05,0.11-0.1,0.21-0.17,0.31
			c-0.35,0.55-1,0.91-1.24,1.51c-0.13,0.32-0.11,0.65-0.12,0.99c-0.01,0.36-0.08,0.71-0.18,1.05c-0.21,0.71-0.62,1.29-0.43,2.07
			c0.01,0.05,0.05,0.08,0.07,0.13c-0.15,0.04-0.3,0.06-0.45,0.11c-0.52,0.17-0.89,0.51-0.93,1.08c-0.04,0.55,0.58,0.76,0.99,0.57
			c0.35-0.16,0.72-0.21,1.09-0.35c0.5-0.18,0.9-0.53,1.17-0.99c0.22-0.38,0.36-0.8,0.45-1.24c0.04-0.05,0.08-0.11,0.1-0.19
			c0.26-1.09,0.42-2.2,0.55-3.31c0.11-0.43,0.22-0.85,0.32-1.27c0.38-1.46,0.77-2.92,1.03-4.41C46.74,83.24,46.89,81.81,46.73,80.41
			z"/>
		<path class="st14" d="M54.07,75.43c-0.17,0.26-0.33,0.53-0.49,0.81c-0.13,0.18-0.23,0.39-0.34,0.64c-0.23,0.5-0.48,0.98-0.73,1.47
			c-0.5,0.98-1.02,1.94-1.52,2.92c-0.61,1.2-1.15,2.42-1.53,3.69c-0.01,0-0.01,0.01-0.02,0.01c-0.27,0.22-0.59,0.32-0.89,0.49
			c-0.35,0.21-0.54,0.57-0.49,0.97c0.04,0.34,0.17,0.55,0.02,0.89c-0.31,0.7-0.96,1.18-1.22,1.92c-0.24,0.68-0.16,1.43-0.36,2.12
			c-0.16,0.57,0.57,0.99,0.99,0.57c0.59-0.59,0.62-1.3,0.82-2.06c0.19-0.72,0.74-1.26,1.02-1.95c0.23,0.1,0.51,0.08,0.7-0.08
			c0.28,0.15,0.65,0.11,0.9-0.25c0.46-0.64,0.77-1.42,0.75-2.22c0.51-1.03,0.89-2.13,1.24-3.24c0.18-0.57,0.34-1.16,0.52-1.75
			l1.85-4.44C55.61,75.21,54.47,74.83,54.07,75.43z"/>
		<path class="st14" d="M58.94,87.61c-0.42-0.18-0.83-0.37-1.25-0.55c0.2-0.37,0.31-0.78,0.31-1.24c0-0.23-0.08-0.41-0.21-0.54
			c0.09-0.98,0.17-1.96,0.21-2.94c0.01-0.24-0.1-0.41-0.26-0.53c0.06-0.24,0.11-0.49,0.18-0.73c0.06-0.25,0.17-0.51,0.18-0.77
			c0.01-0.25,0.13-0.42,0.17-0.67c0.02-0.13-0.03-0.27-0.17-0.3c-0.51-0.12-1.11,0.42-1.31,0.86c-0.32,0.68-0.44,1.48-0.63,2.2
			c-0.21,0.8-0.42,1.6-0.63,2.4c-0.19,0.76-0.49,1.57-0.44,2.37c0.03,0.47,0.43,0.72,0.81,0.7c0.05,0.05,0.12,0.1,0.2,0.14
			c0.69,0.31,1.39,0.63,2.08,0.94c0.38,0.17,0.84,0.11,1.07-0.28C59.41,88.34,59.33,87.78,58.94,87.61z"/>
		<path class="st14" d="M41.03,79.8c-0.05-0.15-0.26-0.2-0.35-0.05c-0.6,1.1-0.7,2.36-0.84,3.59c-0.16,1.43-0.32,2.85-0.51,4.28
			c-0.18,1.42-0.39,2.83-0.6,4.24c-0.1,0.68-0.21,1.37-0.32,2.05c-0.05,0.31-0.1,0.63-0.16,0.94c-0.02,0.13-0.06,0.64-0.13,0.87
			c-0.12,0.09-0.18,0.24-0.2,0.4c-0.01,0.1,0,0.19,0.02,0.3c0.06,0.44,0.61,0.54,0.94,0.38c0.57-0.27,0.53-0.88,0.62-1.43
			c0.13-0.79,0.27-1.57,0.4-2.36c0.23-1.42,0.45-2.85,0.64-4.28c0.2-1.47,0.38-2.95,0.54-4.43C41.25,82.81,41.52,81.24,41.03,79.8z"
			/>
		<path class="st14" d="M39.06,73.24c-0.02-0.58-0.77-0.78-1.08-0.29c-0.24,0.39-0.44,0.78-0.62,1.19
			c-0.35,0.13-0.69,0.31-0.92,0.55c-0.53,0.54-0.38,1.46-0.37,2.15c0.04,2.16,0.1,4.33,0.17,6.49c0.02,0.81,0.04,1.61,0.07,2.42
			c-0.12,0.18-0.17,0.44-0.21,0.63c-0.12,0.53-0.28,1.05-0.47,1.57c-0.19,0.51-0.56,0.98-0.7,1.51c-0.06,0.22-0.04,0.48,0.06,0.68
			c0.07,0.14,0.21,0.24,0.29,0.37c-0.03,0.44-0.05,0.88-0.06,1.32c-0.22,1.03-0.34,2.1-0.37,3.17c-0.53,0.19-0.83,0.92-0.35,1.34
			c0.42,0.37,0.92,0.7,1.5,0.55c0.29-0.07,0.52-0.25,0.67-0.48c0.24,0.46,1.03,0.34,1.1-0.28c0.41-3.66,0.66-7.31,0.75-10.99
			c0-0.02,0-0.04,0-0.05c0.27-1.81,0.26-3.67,0.35-5.49C38.97,77.47,39.12,75.36,39.06,73.24z"/>
		<path class="st14" d="M32.96,78.09c-0.02-0.23-0.13-0.44-0.35-0.53c-0.21-0.08-0.47-0.05-0.63,0.12c-0.04,0.04-0.06,0.08-0.1,0.12
			c-0.17-0.06-0.38-0.04-0.5,0.1c-0.34,0.37-0.26,0.87-0.22,1.33c0.03,0.4,0.07,0.8,0.1,1.21c0.03,0.43,0.07,0.86,0.12,1.29
			c0.02,0.2,0.01,0.44,0.07,0.64c0.08,0.29,0.38,0.47,0.67,0.46c0.53-0.02,0.74-0.53,0.8-0.98c0.05-0.42,0.08-0.85,0.1-1.27
			C33.04,79.74,33.03,78.91,32.96,78.09z"/>
		<path class="st14" d="M29.63,76.28c-0.03-0.05-0.06-0.09-0.1-0.11c-0.04-0.04-0.09-0.06-0.14-0.07c-0.07-0.02-0.14-0.02-0.22,0
			c-0.07,0.01-0.13,0.05-0.19,0.09c-0.06,0.04-0.12,0.09-0.17,0.14c-0.11,0.11-0.17,0.27-0.22,0.41c-0.03,0.07-0.03,0.16-0.04,0.24
			c0,0.04-0.01,0.08-0.01,0.12c0,0.01,0,0.02,0,0.03c0,0.02,0,0.05,0.01,0.07c0,0.04,0.01,0.08,0.03,0.11
			c0.03,0.07,0.06,0.11,0.11,0.17c0.03,0.03,0.07,0.07,0.11,0.09s0.08,0.05,0.13,0.05c0.07,0.02,0.14,0.02,0.2,0
			c0.07-0.02,0.12-0.05,0.17-0.1c0.05-0.05,0.08-0.1,0.1-0.17l0,0c0.03-0.05,0.04-0.1,0.05-0.15c0.01-0.05,0.03-0.1,0.05-0.15
			l-0.05,0.11c0.02-0.06,0.05-0.11,0.07-0.17c0.01-0.03,0.03-0.06,0.04-0.08c0.02-0.05,0.04-0.1,0.06-0.15c0-0.01,0-0.01,0.01-0.02
			c0.01-0.02,0.02-0.04,0.02-0.06c0.03-0.05,0.04-0.11,0.04-0.17c0-0.01,0-0.02,0-0.03C29.69,76.42,29.67,76.35,29.63,76.28z"/>
		<path class="st14" d="M33.06,89.93c-0.01-1.09-0.15-2.16-0.23-3.25c-0.02-0.22-0.12-0.38-0.26-0.48c0.05-0.11,0.09-0.23,0.14-0.34
			c0.15-0.41,0.23-0.86,0.21-1.3c-0.01-0.48-0.16-0.8-0.39-1.2c-0.1-0.17-0.34-0.12-0.4,0.05c-0.15,0.47-0.19,0.89-0.27,1.37
			c-0.09,0.54-0.43,0.95-0.66,1.44c-0.45,0.95-0.43,2.12-0.57,3.14c-0.25,1.84-0.24,3.92,1.23,5.29c0.42,0.39,1.17,0.13,1.16-0.48
			c-0.02-1.3-0.05-2.59-0.08-3.89C33.01,90.18,33.06,90.07,33.06,89.93z"/>
		<path class="st14" d="M42.33,69.96c0-0.14-0.05-0.25-0.11-0.34c0.02-0.18,0-0.37-0.1-0.56c-0.06-0.11-0.19-0.08-0.25,0
			c-0.08,0.11-0.17,0.21-0.27,0.3c-0.17,0.03-0.33,0.11-0.45,0.28c-0.02,0.02-0.05,0.04-0.09,0.06c-0.03,0.01-0.05,0.02-0.08,0.03
			c-0.14,0.03-0.26,0.06-0.37,0.11c-0.12,0.03-0.22,0.06-0.29,0.09c-0.41,0.18-0.69,0.49-0.8,0.93c-0.13,0.53-0.11,1.13-0.15,1.68
			c-0.04,0.59-0.08,1.18-0.13,1.77c-0.09,1.15-0.18,2.3-0.28,3.45C38.94,78.29,39,78.78,39.54,79c0.49,0.2,1.1,0.25,1.62,0.37
			c0.43,0.1,0.83-0.19,0.84-0.64c0.03-1.44,0.04-2.88,0.04-4.31c0-0.63,0-1.26,0-1.89c0-0.01,0.01-0.02,0.01-0.02
			C42.31,71.67,42.35,70.83,42.33,69.96z"/>
		<path class="st14" d="M44.77,69.85c-0.05-0.31-0.51-0.47-0.75-0.15c-0.39,0.51-0.42,1.35-0.51,1.97c-0.1,0.66-0.18,1.31-0.23,1.98
			c-0.05,0.65-0.09,1.3-0.11,1.95c-0.01,0.33-0.07,0.72,0.03,1.04c0.13,0.42,0.49,0.57,0.89,0.51c0.34-0.05,0.48-0.46,0.42-0.74
			c-0.1-0.44-0.01-1,0-1.45c0.02-0.58,0.05-1.17,0.1-1.75c0.04-0.56,0.08-1.12,0.13-1.68C44.79,71,44.92,70.37,44.77,69.85z"/>
		<path class="st14" d="M48.79,70.76c-0.19,0.34-0.39,0.67-0.63,0.97c-0.07,0.09-0.14,0.17-0.2,0.25c-0.14-0.1-0.36-0.04-0.43,0.14
			c-0.44,1.29-0.41,2.71-0.53,4.06c-0.06,0.64-0.2,1.31-0.17,1.95c0.03,0.64,0.33,1.29,0.22,1.93c-0.11,0.67,0.74,1.11,1.14,0.48
			c0.41-0.66,0.82-1.33,1.16-2.03c0.38-0.76,0.39-1.46,0.39-2.29c0-1.71,0.1-3.43,0.29-5.13C50.1,70.42,49.09,70.22,48.79,70.76z"/>
		<path class="st15" d="M84.26,84.12c-0.1-0.34-0.39-0.55-0.71-0.58c-0.59-0.65-1.66-0.7-2.48-0.63c-1.11,0.09-2.17,0.4-3.16,0.9
			c-0.15,0.02-0.31,0.03-0.46,0.06c-0.1,0-0.2,0-0.3,0c-0.25,0-0.53,0.06-0.77-0.02c-0.71-0.23-1.13,0.57-0.88,1.14
			c0.19,0.43,0.62,0.66,1.08,0.78c0.72,0.53,1.58,0.8,2.48,0.9c0.99,0.12,2.13,0.09,3.08-0.19c0.61-0.18,1.24-0.6,1.57-1.14
			C84.13,85.07,84.42,84.68,84.26,84.12z"/>
		<path class="st15" d="M70.62,84.66c-0.24-0.75-0.93-1.19-1.67-1.32c-0.69-0.12-1.54-0.18-2.16,0.19
			c-0.02,0.01-0.03,0.02-0.04,0.03c-0.92,0.08-1.84,0.5-2.34,1.27c-0.59,0.29-1.17,0.66-1.39,1.32c-0.25,0.78,0.19,1.61,0.98,1.83
			c0.63,0.18,1.35,0.02,1.98-0.09c0.65-0.11,1.28-0.28,1.9-0.49c0.23-0.08,0.46-0.17,0.69-0.26c0.12,0.05,0.26,0.08,0.38,0.06
			c0.29-0.04,0.5-0.24,0.57-0.5c0.08-0.05,0.18-0.08,0.26-0.13C70.46,86.17,70.87,85.45,70.62,84.66z"/>
		<path class="st15" d="M88.83,89.29c-0.03-0.11-0.09-0.19-0.16-0.26c-0.07-0.2-0.22-0.36-0.45-0.43c-1.14-0.31-2.35-0.3-3.48,0.05
			c-0.11,0.04-0.21,0.1-0.3,0.18c-0.05,0.02-0.09,0.03-0.14,0.05c-0.52,0.17-0.63,0.87-0.15,1.17c0.31,0.19,0.75,0.18,1.11,0.2
			c0.13,0.01,0.25,0,0.38,0c0.35,0.05,0.69,0.07,1.04,0.08c0.29,0,0.59-0.01,0.88-0.04c0.19-0.02,0.37-0.04,0.55-0.11
			c0.23-0.08,0.39-0.19,0.58-0.34C88.84,89.72,88.88,89.47,88.83,89.29z"/>
		<path class="st15" d="M96.1,87.84c0.01-0.07,0.01-0.14,0.01-0.21c-0.04-0.45-0.31-0.81-0.59-1.15c-0.43-0.52-1.01-0.93-1.63-1.2
			c-0.71-0.31-1.67-0.61-2.32-0.02c-0.06,0.06-0.1,0.13-0.15,0.2c-0.29,0.06-0.54,0.2-0.72,0.47l0,0c-0.26,0.04-0.48,0.17-0.59,0.43
			c-0.11,0.27-0.05,0.57,0.15,0.79c0.13,0.14,0.28,0.27,0.42,0.4c0.29,0.46,0.81,0.87,1.15,1.07c0.38,0.23,0.88,0.46,1.38,0.53
			c0.49,0.24,1.03,0.47,1.59,0.43c0.8-0.06,1.44-0.69,1.36-1.52C96.15,87.98,96.12,87.91,96.1,87.84z"/>
		<path class="st15" d="M74.17,88.28c-0.01-0.31-0.21-0.57-0.51-0.67c-0.22-0.07-0.43-0.04-0.65-0.03
			c-0.17,0.01-0.35,0.02-0.52,0.04c-0.22,0.02-0.44,0.05-0.66,0.09c-0.08,0.01-0.17,0.02-0.25,0.04c-0.16,0.04-0.34,0.15-0.47,0.27
			c-0.11,0.1-0.16,0.25-0.17,0.41c-0.01,0.03-0.01,0.06-0.01,0.1c0,0.03,0,0.05,0,0.08c0,0.04,0,0.08,0.01,0.12
			c0.05,0.2,0.24,0.42,0.45,0.45c0.71,0.11,1.44,0.07,2.12-0.17c0.09-0.01,0.17-0.04,0.25-0.08c0.02-0.01,0.04-0.02,0.06-0.03
			c0,0,0-0.01-0.01-0.01c0.07-0.04,0.14-0.09,0.2-0.17C74.11,88.59,74.18,88.43,74.17,88.28z"/>
		<path class="st16" d="M101.01,91.91c-0.24-1.18-1.14-1.94-1.89-2.81c-0.39-0.45-0.69-0.97-1.04-1.45
			c-0.39-0.52-0.84-0.98-1.25-1.48c-0.48-0.58-1.41,0.17-1.03,0.8c0.54,0.89,0.31,2.11-0.69,2.54c-1.14,0.5-2.48-0.06-3.51-0.58
			c-0.39-0.2-0.72-0.47-1.04-0.75c-0.22-0.32-0.31-0.54-0.36-0.94c-0.04-0.32-0.09-0.59-0.28-0.85c-0.54-0.74-1.21-0.43-1.96-0.45
			c-0.7-0.02-1.28-0.27-1.95,0c0-0.19,0-0.39-0.04-0.6c-0.15-0.87-1.24-0.93-1.79-0.47c-2.53,2.08-6.17,2.27-8.97,0.6
			c-0.26-0.26-0.54-0.48-0.86-0.61c-0.34-0.14-0.74-0.19-1.15-0.21c-0.71-0.28-1.53-0.26-2.29,0.15c-0.47,0.25-0.57,0.75-0.43,1.17
			c-0.01,0.01-0.03,0.03-0.05,0.04c-0.2,0.08-0.4,0.18-0.58,0.31c-0.22,0.15-0.41,0.33-0.57,0.53c-1.02,0.53-2.25,0.78-3.38,1
			c-0.61,0.12-1.04,0.13-1.5-0.29c-0.29-0.26-0.46-0.51-0.89-0.54c-1-0.07-1.88,1.14-2.49,1.79c-0.74,0.79-3.2,3.5-1.42,4.44
			c0.88,0.46,2.08-0.22,2.75-0.77c0.39-0.32,0.71-0.71,1.04-1.09c0.57-0.15,1.12-0.37,1.71-0.35c0.64,0.02,1.29,0.11,1.94,0.2
			c0.24,0.49,0.66,0.95,1.05,1.22c0.94,0.66,2.12,0.81,3.21,0.48c1.05-0.32,2.29-1.45,3.43-1.11c0.62,0.19,1.13,0.72,1.71,1
			c0.59,0.29,1.22,0.43,1.88,0.39c1.06-0.07,2.41-0.4,3.4-1c0.14,0.13,0.32,0.23,0.57,0.23c1.35,0.01,2.15,0.93,3.36,1.36
			c1.2,0.43,2.31,0.08,3.46-0.31c2.77-0.94,5.39-0.04,7.92,1.19c0.99,0.48,2.14,1.16,3.11,0.25
			C100.91,94.23,101.21,92.91,101.01,91.91z M72.64,89.22c-0.62,0.08-1.24,0-1.85-0.01c0.02-0.15,0.02-0.29-0.02-0.43
			c-0.35-1.12,1.4-1.09,2.51-1.12c0.05,0.12,0.12,0.24,0.23,0.35c0.27,0.26,0.56,0.43,0.86,0.54
			C73.83,88.87,73.26,89.14,72.64,89.22z M84.42,88.63c0.26-0.23,0.5-0.46,0.71-0.7c0.11,0.16,0.27,0.28,0.46,0.32
			c0.72,0.16,1.46,0.2,2.19,0.32c0.43,0.07,0.75,0.21,1.04,0.4c0.11,0.14,0.44,0.43,0.48,0.56c0.2-0.07,0.13-0.05-0.19,0.08
			c-0.15,0.06-0.3,0.11-0.45,0.15c-1.4,0.44-2.84,0.57-4.29,0.41c-0.01,0-0.03,0-0.04,0c-0.14-0.26-0.37-0.47-0.67-0.54
			C83.86,89.26,84.09,88.92,84.42,88.63z"/>
		<path class="st16" d="M98.64,101.82c-4.09-2.2-8.75-2.45-13.29-2.58c-4.64-0.14-9.28-0.03-13.91,0.22
			c-0.43,0.02-0.86,0.04-1.29,0.07c-0.17,0.01-0.32,0.05-0.46,0.12c-3.17-0.31-6.57,1.35-9.35,2.69c-0.8,0.39-0.51,1.55,0.23,1.79
			c1.31,0.42,2.57,0.74,3.96,0.79c1.34,0.05,2.69-0.03,4.03-0.09c2.63-0.12,5.25-0.33,7.86-0.59c4.35,0.21,8.76,0.5,13.08,0.03
			c0.39-0.04,0.68-0.21,0.88-0.45c2.51,0.13,5.03,0.33,7.54,0.64C99.34,104.61,99.8,102.44,98.64,101.82z"/>
		
			<linearGradient id="SVGID_00000095323861373514059050000007541036765659674532_" gradientUnits="userSpaceOnUse" x1="80.136" y1="42.9641" x2="80.0858" y2="51.6424" gradientTransform="matrix(1 0 0 -1 0 149.8898)">
			<stop  offset="0" style="stop-color:#000000"/>
			<stop  offset="0.9962" style="stop-color:#EF6D25;stop-opacity:0"/>
		</linearGradient>
		<path style="fill:url(#SVGID_00000095323861373514059050000007541036765659674532_);" d="M64.16,102.65
			c1.81-0.29,3.63-0.4,5.46-0.51c3.63-0.2,7.28-0.36,10.9,0c1.26,0.12,2.51,0.31,3.77,0.32c2.23,0.03,4.43-0.48,6.65-0.65
			c1.75-0.14,3.51-0.08,5.24,0.19c0.63,0.1,1.27,0.22,1.84,0.53s1.04,0.83,1.15,1.46c-1.43,0.36-2.9,0.46-4.37,0.52
			c-3.4,0.14-6.81,0.09-10.2-0.16c-2.5-0.18-4.99-0.47-7.49-0.53c-2.89-0.07-5.77,0.16-8.64,0.43c-1.44,0.14-2.88,0.28-4.32,0.41
			c-0.65,0.06-3.03,0.66-3.08-0.43C61.02,103.12,63.39,102.77,64.16,102.65z"/>
		
			<linearGradient id="SVGID_00000041274538237819476450000013692999645719957395_" gradientUnits="userSpaceOnUse" x1="80.0671" y1="71.3678" x2="80.017" y2="53.7601" gradientTransform="matrix(1 0 0 -1 0 149.8898)">
			<stop  offset="0" style="stop-color:#000000"/>
			<stop  offset="0.9962" style="stop-color:#EF6D25;stop-opacity:0"/>
		</linearGradient>
		<path style="fill:url(#SVGID_00000041274538237819476450000013692999645719957395_);" d="M59.59,91.13
			c-0.23,0.35-0.46,0.71-0.53,1.12s0.06,0.88,0.41,1.1c0.26,0.16,0.6,0.16,0.9,0.09c1.49-0.33,2.45-1.89,3.93-2.27
			c1.19-0.31,2.45,0.24,3.44,0.97c0.83,0.62,1.69,1.42,2.71,1.31c1.19-0.13,1.95-1.45,3.13-1.68c1.49-0.29,2.71,1.24,4.2,1.49
			c1.42,0.23,2.8-0.74,4.24-0.69c1.53,0.06,2.82,1.25,4.35,1.34c1.02,0.06,1.99-0.37,2.99-0.59c3.19-0.69,6.39,0.86,9.38,2.16
			c0.21,0.09,0.43,0.18,0.65,0.13c0.23-0.05,0.41-0.24,0.56-0.43c0.29-0.35,0.57-0.72,0.83-1.1c0.11-0.16,0.23-0.34,0.23-0.54
			c0-0.27-0.2-0.48-0.39-0.67c-0.81-0.81-1.69-1.62-2.79-1.92c-1.43-0.38-2.93,0.2-4.42,0.22c-0.83,0.01-1.85-0.34-1.96-1.16
			c-0.03-0.19,0-0.39-0.05-0.57c-0.14-0.5-0.81-0.67-1.3-0.5c-0.49,0.17-0.87,0.56-1.3,0.86c-1.73,1.23-4.07,0.93-6.17,0.58
			c-0.47-0.08-0.96-0.16-1.35-0.42c-0.26-0.17-0.46-0.4-0.7-0.59c-0.96-0.76-2.3-0.75-3.52-0.72c-1.27,0.04-2.58,0.09-3.75,0.59
			c-0.46,0.2-0.9,0.47-1.4,0.56s-1.09-0.06-1.31-0.51c-0.09-0.17-0.11-0.36-0.2-0.53c-0.15-0.32-0.49-0.51-0.83-0.62
			c-1.86-0.59-4.05,0.99-5.75,0.04c-0.3-0.17-0.56-0.4-0.88-0.51c-0.8-0.27-1.42,0.39-1.78,1.01C60.7,89.55,60.12,90.32,59.59,91.13
			z"/>
		<path class="st19" d="M69.46,85.88c-0.04,0.06-0.13,0.08-0.22,0.09c-0.01,0-0.01-0.01-0.02-0.02c-0.62-0.23-1.26-0.04-1.89-0.03
			c-0.23,0-0.52-0.04-0.71-0.13c-0.29-0.12-0.42-0.28-0.65-0.48c-0.29-0.25-0.61-0.47-1.01-0.47c-0.4-0.01-0.78,0.24-0.95,0.6
			c-0.06,0.13-0.09,0.25-0.1,0.38c-0.06,0.09-0.12,0.17-0.16,0.27c-0.24,0.51-0.29,1.18,0.12,1.62c0.32,0.35,0.8,0.46,1.25,0.5
			c0.28,0.02,0.56,0.02,0.82-0.11c0.01,0,0.01-0.01,0.02-0.01c0.23,0.14,0.48,0.24,0.76,0.24c0.35-0.01,0.56-0.27,0.57-0.56
			c0.41-0.02,0.76-0.17,1.07-0.45c0.02-0.02,0.04-0.04,0.06-0.06c0.01,0,0.01,0,0.04-0.01c0.09-0.01,0.18-0.03,0.28-0.04
			c0.23-0.02,0.46-0.03,0.69-0.08c0.47-0.11,0.84-0.4,0.99-0.87C70.56,85.69,69.77,85.42,69.46,85.88z"/>
		<path class="st19" d="M81.29,85.35c-0.51-0.56-1.23-0.72-1.95-0.84c-0.33-0.05-0.65-0.11-0.97-0.21c-0.01,0-0.04-0.02-0.06-0.02
			c-0.02-0.01-0.05-0.03-0.06-0.03c-0.07-0.04-0.13-0.07-0.2-0.11c-0.09-0.05-0.04-0.01-0.12-0.08c-0.02-0.02-0.05-0.06-0.08-0.08
			c-0.01-0.2-0.13-0.4-0.36-0.37c-0.3,0.04-0.51,0.21-0.57,0.5c-0.46-0.07-0.95,0-1.37,0.17c-0.26,0.11-0.46,0.28-0.5,0.58
			c-0.03,0.28,0.09,0.55,0.33,0.7c0.33,0.2,0.67,0.39,1.01,0.57c0.37,0.2,0.79,0.45,1.22,0.41c0.15-0.01,0.3-0.08,0.41-0.19
			c0.93,0.37,2,0.3,2.96,0.08C81.5,86.31,81.6,85.69,81.29,85.35z"/>
		<path class="st19" d="M73.79,88.36c-0.13-0.17-0.35-0.21-0.54-0.11c-0.08,0.04-0.15,0.08-0.22,0.12
			c-0.03,0.02-0.07,0.04-0.11,0.05c-0.02,0.01-0.05,0.02-0.04,0.02c-0.03,0.01-0.06,0.02-0.08,0.03c-0.04,0.02-0.07,0.04-0.1,0.06
			c-0.02,0.01-0.04,0.02-0.05,0.03h-0.01c-0.01,0-0.03,0.01-0.04,0.02c-0.02,0.01-0.04,0.01-0.06,0.02
			c-0.04,0.01-0.09,0.03-0.13,0.04s-0.08,0.02-0.12,0.03c-0.02,0-0.04,0.01-0.06,0.01l0,0c-0.09,0.01-0.18,0.01-0.27,0.02
			c-0.05,0.01-0.1,0.02-0.16,0.03c0.07-0.01-0.04,0.01-0.05,0.01c-0.02,0-0.03,0.01-0.05,0.01c-0.07,0.02-0.14,0.04-0.22,0.05
			c-0.11,0.02-0.11,0.15-0.06,0.22c0.12,0.16,0.26,0.27,0.45,0.35c0.11,0.05,0.25,0.06,0.37,0.07c0.09,0.01,0.19,0.01,0.28,0.01
			c0.46-0.02,0.93-0.16,1.23-0.53C73.89,88.75,73.92,88.54,73.79,88.36z"/>
		<path class="st19" d="M88.19,88.9c-0.19-0.03-0.35-0.03-0.54,0.04c-0.14,0.05-0.27,0.11-0.4,0.18c-0.06,0.03-0.12,0.06-0.18,0.09
			c-0.01,0.01-0.1,0.05-0.12,0.05c-0.1,0.04-0.21,0.08-0.31,0.11c-0.4,0.13-0.81,0.2-1.21,0.02c-0.18-0.08-0.39,0.14-0.23,0.3
			c0.39,0.38,0.93,0.54,1.46,0.55c0.29,0.01,0.59-0.06,0.87-0.13c0.36-0.09,0.71-0.21,0.92-0.54C88.61,89.34,88.47,88.95,88.19,88.9
			z"/>
		<path class="st19" d="M92.56,86.79c-0.04-0.02-0.08-0.05-0.12-0.07c-0.01,0-0.05-0.04-0.08-0.05c-0.01-0.02-0.04-0.04-0.05-0.05
			s-0.02-0.03-0.03-0.04s-0.01-0.01-0.01-0.02c-0.01-0.04-0.03-0.07-0.04-0.11c-0.01-0.02-0.02-0.08-0.02-0.09c0-0.02,0-0.05,0-0.07
			c0-0.01,0,0,0-0.01s0-0.01,0.01-0.02c0.01-0.04,0.03-0.09,0.04-0.13c0.01-0.03,0.01-0.06,0.02-0.09c0.01-0.02,0.01-0.02,0.01-0.03
			c0,0,0.01-0.01,0.02-0.02c0.07-0.09,0.14-0.18,0.27-0.24c0.21-0.08,0.26-0.42,0-0.48c-0.4-0.09-0.82,0.03-1.13,0.3
			c-0.02-0.04-0.05-0.08-0.09-0.12c-0.21-0.19-0.49-0.23-0.75-0.1c-0.44,0.23-0.67,0.75-0.63,1.23c0.04,0.46,0.23,0.88,0.49,1.26
			c0.27,0.4,0.59,0.72,0.99,0.99c0.27,0.18,0.62,0.34,0.97,0.36c0.14,0.17,0.33,0.27,0.57,0.24s0.46-0.21,0.52-0.44
			C93.74,88.12,93.34,87.25,92.56,86.79z"/>
		<path class="st20" d="M100.65,95.38c-0.64-0.2-0.93,0.32-1.46,0.36c-0.29,0.02-0.82-0.41-1.06-0.53
			c-0.28-0.14-0.56-0.27-0.85-0.39c-0.71-0.3-1.43-0.53-2.19-0.68c-0.63-0.12-1.27-0.2-1.9-0.25c-0.04-0.03-0.09-0.06-0.14-0.08
			c-0.38-0.21-0.79-0.3-1.22-0.33c-0.24-0.01-0.5,0-0.75,0.03c-0.11-0.01-0.22-0.01-0.35,0.02c-1.54,0.27-3.08,0.56-4.61,0.84
			c-0.02,0-0.04,0.01-0.05,0.02c-1.29-0.94-2.89-1.44-4.49-1.38c-0.75,0.03-1.51,0.16-2.21,0.44c-0.23,0.09-0.48,0.19-0.71,0.31
			c-0.2,0.05-0.39,0.09-0.59,0.12c-1.07-0.73-2.18-1.35-3.36-1.92c-0.44-0.21-0.85-0.13-1.14,0.08c-0.8,0.07-1.53,0.41-2.25,0.79
			c-0.55,0.29-1.49,0.87-1.99,0.26c-0.23-0.28-0.5-0.39-0.76-0.38c-0.88-0.94-2.13-1.41-3.46-1.34c-1.85,0.09-3.27,1.15-4.76,2.12
			c-0.12,0.08-0.21,0.17-0.28,0.26c-0.17-0.2-0.45-0.28-0.71-0.23c-1.36,0.27-0.99,2.12,0.14,2.44c0.84,0.23,1.68-0.3,2.4-0.65
			s1.43-0.72,2.15-1.08c0.1,0.05,0.2,0.09,0.33,0.11c1.68,0.3,3.2,0.92,4.64,1.84c0.42,0.27,0.81,0.23,1.11,0.03
			c0.23,0.06,0.49,0.05,0.75-0.08c0.93-0.46,1.84-0.93,2.75-1.41c0.13-0.01,0.27,0,0.39,0.03c0.91,0.23,1.82,0.66,2.71,1.02
			c0.22,0.15,0.44,0.28,0.67,0.37c0.25,0.1,0.55,0.1,0.85,0.07c0.23,0.15,0.51,0.22,0.82,0.14c0.87-0.24,1.64-0.63,2.36-1.16
			c0.08,0.1,0.18,0.19,0.3,0.27c0.74,0.47,1.54,0.76,2.37,0.93c2.33,0.73,4.81,0.9,6.97-0.37c1.11-0.04,2.23,0.01,3.32,0.2
			c1.25,0.22,2.41,0.62,3.54,1.18c0.44,0.22,0.9,0.42,1.4,0.43c0.26,0,0.51-0.03,0.75-0.13c0.08-0.03,0.15-0.07,0.22-0.11
			c0.55,0.05,1.17-0.27,1.22-0.98C101.54,96.03,101.17,95.54,100.65,95.38z"/>
		<path class="st21" d="M100.17,95.57c-1.64,0.1-3.11-0.95-4.64-1.42c-1.54-0.47-3.17-0.7-4.78-0.65c-0.73,0.02-1.46,0.1-2.17,0.22
			c-0.78,0.13-1.6,0.46-2.39,0.34c-0.78-0.11-1.49-0.62-2.21-0.91c-0.57-0.24-1.15-0.37-1.77-0.39c-1.48-0.04-2.9,0.63-4.38,0.53
			c-1.34-0.1-2.3-1.29-3.67-1.29c-1,0-1.81,0.55-2.65,1.01c-0.08,0.03-0.16,0.07-0.25,0.1c-0.59,0.21-1.21,0.36-1.84,0.31
			c-0.21-0.07-0.42-0.17-0.65-0.3c-0.61-0.36-1.2-1-1.9-1.13c-0.26-0.19-0.52-0.35-0.82-0.47c-1.31-0.52-2.29,0.28-3.33,0.99
			c-0.57,0.39-1.14,0.81-1.73,1.17c-0.31,0.2-0.66,0.38-1.04,0.39c-0.33,0.01-0.56-0.17-0.87-0.22c-0.05-0.01-0.13,0.02-0.12,0.09
			c0.05,0.48,0.65,0.62,1.06,0.62c0.65-0.01,1.22-0.39,1.76-0.73c0.68-0.42,1.36-0.85,2.04-1.27c0.72-0.44,1.35-0.68,2.14-0.24
			c0.63,0.35,1.12,0.91,1.71,1.32c0.04,0.03,0.09,0.05,0.13,0.08c0.62,0.49,1.36,0.86,1.91,0.97c1.19,0.23,2.18-0.44,3.19-0.93
			c0.79-0.38,1.37-0.47,2.17-0.04c0.66,0.35,1.24,0.77,1.99,0.93c1.4,0.29,2.78-0.19,4.16-0.38c0.92-0.13,1.7-0.03,2.55,0.35
			c0.58,0.26,1.13,0.59,1.75,0.76c1.6,0.42,3.29-0.36,4.89-0.44c1.71-0.09,3.43,0.14,5.05,0.69c1.56,0.52,2.99,1.47,4.69,1.37
			C101.08,96.93,101.08,95.51,100.17,95.57z"/>
		<path class="st22" d="M92.56,98.58c-0.07-0.26-0.21-0.53-0.39-0.79c-0.14-0.23-0.33-0.44-0.53-0.63c0,0-0.01,0-0.01-0.01
			c-0.3-0.3-0.61-0.55-0.83-0.69c-0.16-0.1-0.34-0.11-0.51-0.08c-0.24-0.23-0.6-0.34-0.9-0.12c-0.55,0.4-1.14,0.71-1.78,0.93v0.01
			c-0.06,0.02-0.13,0.04-0.19,0.07c-0.04,0.02-0.06,0.04-0.09,0.06c-0.12,0-0.23,0.01-0.35-0.01c-0.39-0.05-0.77-0.18-1.17-0.14
			c-0.75,0.07-1.4,0.49-1.96,0.97c-0.41,0.32,0.11,0.89,0.53,0.68c0.07-0.03,0.14-0.07,0.2-0.1c0.07,0.29,0.29,0.53,0.67,0.54
			c0.89,0.03,1.79,0.05,2.68,0.07c0.45,0.01,0.89,0.02,1.34,0.03c0.17,0,0.34,0.01,0.51,0c0.21,0.23,0.53,0.32,0.82,0.25
			c0.24,0.15,0.51,0.2,0.77,0.18c0.29,0.05,0.58,0.08,0.87,0.04c0.3-0.04,0.57-0.19,0.65-0.5C92.95,99.07,92.83,98.72,92.56,98.58z"
			/>
		<path class="st22" d="M98.36,99.99c-0.02-0.27-0.13-0.51-0.37-0.65c-0.12-0.07-0.26-0.1-0.4-0.1c-0.05-0.05-0.1-0.11-0.16-0.15
			c-0.36-0.23-0.85-0.13-1.14,0.17c-0.02,0.02-0.03,0.06-0.06,0.08c-0.13,0.03-0.26,0.08-0.38,0.13c-0.05,0.04-0.09,0.07-0.14,0.11
			s-0.07,0.1-0.1,0.15l0,0c0.11-0.23,0.17-0.52,0.07-0.77L95.6,98.8c-0.01-0.02-0.03-0.03-0.05-0.05c-0.01-0.1-0.04-0.21-0.09-0.29
			c-0.1-0.16-0.26-0.31-0.45-0.35c-0.22-0.04-0.44-0.05-0.65,0.03c-0.04,0.01-0.07,0.04-0.11,0.05c-0.11,0.02-0.21,0.06-0.31,0.1
			c-0.17,0.07-0.31,0.18-0.45,0.3c-0.09,0.08-0.16,0.17-0.23,0.27c-0.04,0.05-0.07,0.11-0.11,0.17c-0.09,0.17-0.17,0.35-0.2,0.54
			c-0.04,0.13-0.04,0.27,0,0.4c0.02,0.1,0.07,0.19,0.14,0.26c0.15,0.19,0.36,0.3,0.6,0.3c0.2,0,0.41-0.03,0.6-0.1
			c0.07-0.03,0.14-0.06,0.21-0.09c0.13,0.02,0.27,0.01,0.4-0.02c0.11,0.02,0.23,0.02,0.34-0.03c0.1-0.04,0.21-0.13,0.28-0.23
			c0,0.07,0,0.14,0.02,0.22c0.07,0.31,0.36,0.54,0.66,0.62c0.1,0.03,0.22,0.05,0.32,0.04c0.08-0.01,0.17-0.02,0.25-0.04l0,0
			c0.04,0.02,0.09,0.02,0.14,0.03c0.01,0.03,0.01,0.07,0.03,0.1c0.04,0.1,0.09,0.19,0.17,0.27c0.04,0.04,0.12,0.1,0.17,0.12
			c0.12,0.06,0.24,0.11,0.37,0.11c0.26-0.01,0.54-0.17,0.66-0.41c0.06-0.12,0.1-0.25,0.11-0.39c0-0.02,0-0.05,0-0.07
			c0-0.04,0-0.08,0-0.13C98.41,100.35,98.37,100.17,98.36,99.99z"/>
		<path class="st22" d="M66.65,94.26c-0.22-0.07-0.45-0.13-0.68-0.18c-0.28-0.15-0.59-0.18-0.93-0.13
			c-0.17,0.03-0.31,0.14-0.41,0.28c-0.12-0.03-0.24-0.04-0.37,0c-0.77,0.25-1.52,0.56-2.24,0.94c-0.34,0.18-0.67,0.37-0.99,0.57
			c-0.06,0.04-0.11,0.07-0.17,0.11c-0.47,0.06-0.91,0.19-1.31,0.56c-0.38,0.36-0.21,1.1,0.32,1.2c0.01,0,0.02,0,0.03,0
			c0,0.02,0,0.03-0.01,0.05c-0.02,0.41,0.49,0.71,0.83,0.48c0.12-0.08,0.22-0.17,0.33-0.27c0.17,0.04,0.35,0.04,0.52-0.06
			c0.46-0.25,0.74-0.68,0.93-1.16c0.01-0.02,0.01-0.04,0.01-0.06c0.24,0.13,0.54,0.13,0.81,0.01c0.7-0.33,1.51-0.75,2.3-0.56
			c0.39,0.09,0.7-0.07,0.87-0.36c0.05,0,0.1,0,0.15-0.01c0.31-0.04,0.54-0.42,0.54-0.71C67.19,94.63,66.96,94.36,66.65,94.26z"/>
		<path class="st23" d="M91.62,99.26c-0.01-0.04-0.02-0.07-0.04-0.1c-0.02-0.03-0.08-0.12-0.11-0.16c0.02-0.33-0.18-0.61-0.48-0.73
			c-0.11-0.23-0.38-0.39-0.62-0.39c-0.4,0.01-0.77,0.07-1.12,0.2c0.03-0.1,0.06-0.19,0.08-0.29c0.04-0.26-0.06-0.6-0.37-0.65
			c-0.46-0.08-0.86,0.04-1.22,0.33c-0.14,0.12-0.26,0.25-0.38,0.4c-0.06,0.08-0.14,0.22-0.23,0.33c-0.62-0.23-1.46-0.29-1.72,0.42
			c-0.04,0.11,0.06,0.22,0.16,0.22c0.27,0,0.57-0.07,0.84-0.01c0.07,0.02,0.13,0.05,0.2,0.07c0.01,0,0.01,0,0.01,0
			c0,0.01,0,0.01,0.01,0.03c0.12,0.18,0.33,0.31,0.54,0.32c0.3,0.02,0.5-0.16,0.67-0.37c0.07,0.22,0.27,0.39,0.51,0.41
			c0,0,0,0.01,0.01,0.01c0.18,0.29,0.57,0.41,0.87,0.23c0.16-0.09,0.33-0.18,0.51-0.23c0.08,0.13,0.2,0.23,0.34,0.3
			c0.09,0.18,0.22,0.33,0.4,0.43c0.48,0.26,0.97,0.09,1.17-0.41C91.7,99.49,91.67,99.37,91.62,99.26z"/>
		<path class="st23" d="M95.17,99.43c-0.03-0.12-0.09-0.22-0.18-0.31c0,0,0,0,0-0.01c-0.02-0.02-0.05-0.04-0.07-0.06l-0.01-0.01
			c-0.06-0.06-0.1-0.1-0.19-0.15l0,0c-0.03-0.03-0.07-0.06-0.1-0.1c0.02,0.02,0.04,0.05,0.05,0.07c-0.01-0.01-0.02-0.01-0.03-0.02
			c-0.03-0.04-0.06-0.09-0.1-0.11c-0.07-0.07-0.16-0.11-0.25-0.13c-0.1-0.03-0.2-0.04-0.3-0.01c-0.1,0-0.19,0.03-0.28,0.09
			c-0.05,0.04-0.1,0.08-0.15,0.12c-0.09,0.09-0.16,0.2-0.19,0.33c-0.01,0.07-0.02,0.13-0.03,0.2c0,0.14,0.03,0.26,0.1,0.38
			c0.06,0.08,0.13,0.18,0.2,0.25c0.02,0.02,0.04,0.03,0.05,0.05c0.07,0.05,0.13,0.11,0.2,0.15c0.09,0.06,0.19,0.11,0.3,0.12
			c0.08,0.01,0.17,0.03,0.25,0.03c0.01,0,0.02,0,0.03,0s0.01,0,0.02,0c0.03,0,0.06,0,0.1-0.01c0.03,0,0.07-0.01,0.1-0.01
			c0.23-0.06,0.42-0.26,0.48-0.48C95.2,99.67,95.2,99.55,95.17,99.43z"/>
		<path class="st23" d="M98.24,99.64c-0.02-0.06-0.05-0.13-0.08-0.18c-0.05-0.08-0.11-0.15-0.19-0.19c-0.06-0.04-0.13-0.06-0.2-0.06
			c-0.07-0.02-0.14-0.01-0.21,0.01c-0.09,0.03-0.17,0.07-0.24,0.14c-0.04,0.05-0.1,0.09-0.14,0.13l-0.14,0.12
			c-0.05,0.04-0.09,0.08-0.14,0.12c-0.02,0.02-0.05,0.04-0.07,0.06c-0.04,0.05-0.07,0.09-0.09,0.15c-0.05,0.09-0.06,0.19-0.02,0.28
			c0.03,0.08,0.11,0.17,0.21,0.18c0.04,0.01,0.08,0.01,0.12,0.02c0.06,0.01,0.1,0,0.16-0.01c0,0,0,0.01,0.01,0.02
			c0.05,0.07,0.12,0.12,0.21,0.15c0.06,0.02,0.13,0.03,0.2,0.03c0.18,0,0.34-0.08,0.46-0.21c0.08-0.09,0.14-0.18,0.17-0.3
			c0.02-0.07,0.03-0.14,0.03-0.21C98.28,99.78,98.27,99.71,98.24,99.64z"/>
		<path class="st23" d="M65.46,95.67c-0.34-0.61-1.02-0.47-1.6-0.37c-0.47,0.08-0.92,0.21-1.32,0.52c-0.14,0.1-0.33,0.26-0.48,0.33
			c-0.14,0.06-0.47,0.05-0.67,0.08c-0.25,0.05-0.51,0.18-0.69,0.38c-0.08,0.09-0.14,0.19-0.19,0.3c-0.05,0-0.09,0-0.14,0.01
			c-0.3,0.07-0.49,0.38-0.34,0.67c0.04,0.08,0.11,0.13,0.18,0.19c0.01,0.01,0.06,0.04,0.03,0.02c0.09,0.1,0.17,0.19,0.29,0.26
			c0.35,0.2,0.81,0.11,1.02-0.25c0.02-0.04,0.08-0.21,0.11-0.34c0.24-0.04,0.53-0.02,0.79-0.1c0.3-0.1,0.54-0.27,0.78-0.47
			c0.17-0.14,0.32-0.27,0.52-0.33c0.55-0.18,1.17,0.28,1.65-0.28C65.53,96.09,65.57,95.87,65.46,95.67z"/>
		<path class="st24" d="M84.25,96.12c-0.23-0.39-0.63-0.64-1.07-0.72c-0.2-0.04-0.4-0.05-0.61-0.06c-0.03,0-0.31-0.04-0.16-0.01
			c-0.03,0-0.05-0.01-0.08-0.02c-0.08-0.03-0.17-0.07-0.25-0.1c-0.26-0.09-0.55,0.02-0.74,0.22c-0.51-0.02-0.94,0.24-1.33,0.53
			c-0.17,0.13-0.34,0.25-0.53,0.36c-0.03,0.02-0.07,0.04-0.1,0.05c-0.01,0-0.03,0.01-0.05,0.02c-0.03,0.01-0.03,0.01-0.04,0.01
			s-0.02,0-0.05,0c-0.01,0-0.23,0.04-0.12,0.03c-0.2,0.02-0.34,0.14-0.41,0.29c-0.32-0.18-0.65-0.34-0.99-0.47
			c-1.42-1.12-3.18-1.54-5-1.25c-0.31,0.05-0.5,0.3-0.55,0.59c-0.08,0.04-0.16,0.08-0.24,0.12c-0.07,0-0.14-0.01-0.22,0.01
			c-0.87,0.2-1.75,0.27-2.63,0.26c-0.25-0.22-0.58-0.31-0.89-0.38c-0.78-0.16-1.71-0.31-2.37,0.21c-0.26,0.2-0.17,0.58,0.06,0.76
			c-0.41,0.35-0.73,0.78-0.98,1.26c0.1-0.32,0.16-0.66,0.11-0.98c-0.1-0.6-0.64-1.01-1.24-0.76c-0.52,0.22-0.95,0.79-1.3,1.21
			c-0.25,0.3-0.5,0.64-0.6,1c-0.01,0.02-0.03,0.04-0.04,0.06c-0.01,0-0.02-0.01-0.03-0.01c-0.9-0.29-1.97-0.09-2.47,0.78
			c-0.03,0.05-0.04,0.1-0.06,0.14c-0.62,0.49-0.93,1.39-0.53,2.12c0.26,0.48,0.82,0.71,1.3,0.57c0.03,0.01,0.06,0.02,0.09,0.02
			c0.28,0.05,0.58,0.09,0.87,0.07c0.34-0.02,0.66-0.17,0.96-0.33c0.37-0.2,0.35-0.65,0.12-0.91c0.2,0,0.38-0.07,0.55-0.21
			c0.19-0.15,0.3-0.38,0.34-0.62c0.27,0.05,0.55-0.05,0.76-0.22c0.1-0.08,0.19-0.17,0.28-0.26c0.17,0.21,0.44,0.35,0.78,0.28
			c2.36-0.49,4.75-0.81,7.14-1.04c0.28-0.02,0.56-0.05,0.83-0.08c0.5,0.03,1,0.02,1.49-0.02c0.09,0.04,0.2,0.07,0.31,0.08
			c1.23,0.11,2.45,0.09,3.67-0.06c0.06-0.01,0.12-0.03,0.17-0.05c0.17,0.13,0.35,0.27,0.51,0.43c0.63,0.61,1.52,0.02,1.54-0.65
			c0.24,0.04,0.47-0.02,0.68-0.14c0.04,0.05,0.08,0.09,0.12,0.13c0.25,0.2,0.61,0.22,0.89,0.06c0.09-0.05,0.19-0.11,0.28-0.17
			c0.17,0.11,0.38,0.15,0.6,0.11C83.98,98.22,84.78,97.03,84.25,96.12z"/>
		<path class="st24" d="M99.29,97.87c-0.23-0.24-0.52-0.22-0.74-0.07c-0.06-0.05-0.13-0.1-0.19-0.14c-0.19-0.11-0.4-0.19-0.63-0.2
			c-0.36-0.56-1.14-0.6-1.74-0.58c-0.03,0-0.06,0.01-0.08,0.01c-0.1-0.08-0.21-0.16-0.33-0.22c-0.12-0.05-0.25-0.08-0.38-0.1
			c-0.03-0.02-0.05-0.05-0.08-0.07c-0.73-0.39-1.48-0.61-2.31-0.61c-0.2,0-0.35,0.08-0.45,0.21c-0.13-0.06-0.26-0.11-0.4-0.14l0,0
			c-0.43-0.14-0.89,0.51-0.48,0.83c0.38,0.3,0.77,0.6,0.94,1.07c0.16,0.46,0.69,0.55,1,0.27c0.38,0.14,0.84,0.08,1.24-0.07
			c0.22-0.08,0.3-0.18,0.42-0.03c0.13,0.16,0.19,0.41,0.25,0.61c0.21,0.62,0.99,0.66,1.29,0.14c0.1,0.07,0.21,0.12,0.35,0.12
			c0.17,0,0.33-0.03,0.49-0.07c0.03-0.01,0.26-0.04,0.17-0.07c0.14,0.03,0.22,0.2,0.28,0.31c0.15,0.29,0.29,0.52,0.1,0.75
			c-0.04,0.04-0.08,0.07-0.11,0.1c-0.21,0.2-0.17,0.44-0.03,0.6c-0.01,0.02-0.02,0.04-0.03,0.07c-0.01,0.05-0.01,0.08-0.01,0.12
			c0,0.02,0,0.04-0.01,0.07l0.01-0.09c0,0.03-0.01,0.07-0.01,0.1c0,0.05,0.02,0.12,0.04,0.16c0.02,0.02,0.03,0.04,0.05,0.07
			c0.03,0.03,0.06,0.05,0.1,0.07c0.03,0.01,0.05,0.02,0.08,0.02c0.03,0.01,0.06,0.01,0.09,0c0.03,0,0.06-0.01,0.08-0.02
			c0.04-0.01,0.07-0.04,0.1-0.07c0.04-0.04,0.07-0.09,0.1-0.14c0.05-0.08,0.07-0.16,0.06-0.25c0-0.01,0-0.02,0-0.03
			c0.46-0.32,0.89-0.66,1.08-1.21C99.79,98.86,99.68,98.28,99.29,97.87z"/>
		<g>
			<path class="st25" d="M61.22,98.63C61.23,98.63,61.22,98.62,61.22,98.63L61.22,98.63z"/>
			<path class="st25" d="M61.23,98.63L61.23,98.63L61.23,98.63c-0.01,0-0.01-0.01-0.02-0.01C61.21,98.63,61.21,98.63,61.23,98.63
				c-0.06-0.05-0.1-0.09-0.16-0.13c-0.1-0.06-0.22-0.12-0.34-0.15c-0.05-0.01-0.09-0.01-0.14-0.02c0.04,0.01,0.04,0.01,0,0
				c-0.08-0.02-0.16-0.03-0.24-0.03c-0.13,0-0.28,0.02-0.41,0.05c-0.13,0.04-0.25,0.12-0.36,0.2c-0.19,0.14-0.33,0.3-0.36,0.55
				c-0.01,0.06,0.01,0.11,0.01,0.17c-0.02,0.03-0.05,0.05-0.07,0.08c0,0-0.05,0.08-0.02,0.04s-0.03,0.03-0.04,0.04
				c-0.05,0.06-0.1,0.12-0.15,0.19c-0.07,0.1-0.14,0.2-0.19,0.31c-0.13,0.27-0.22,0.55-0.08,0.84c0.06,0.12,0.22,0.18,0.35,0.14
				c0.05-0.01,0.1-0.04,0.13-0.08c0,0,0,0,0,0.01c0,0,0-0.01,0.01-0.01c0.02-0.02,0.03-0.03,0.04-0.05
				c0.03-0.05,0.06-0.11,0.05-0.17l0,0l0,0l0,0c0.02-0.04,0.03-0.08,0.05-0.12c0.01-0.03,0.01-0.03,0.01-0.02l0,0
				c0.02-0.05,0.05-0.09,0.07-0.14c0.02-0.04,0.05-0.08,0.07-0.12c0,0,0.03-0.03,0.03-0.05c0,0,0-0.01,0.01-0.01
				c0.04,0.02,0.07,0.05,0.12,0.07c0.28,0.11,0.59,0,0.74-0.27c0.1-0.18,0.11-0.4,0.05-0.6c0-0.01-0.01-0.02-0.01-0.03
				c0.04-0.04,0.09-0.07,0.13-0.12c0.02-0.02,0.04-0.04,0.06-0.07c0.01-0.01,0.01-0.01,0.01-0.01l0,0c0.12,0.04,0.24,0.08,0.37,0.07
				c0.17-0.01,0.33-0.07,0.41-0.23C61.48,98.82,61.39,98.66,61.23,98.63z"/>
			<path class="st25" d="M61.23,98.63C61.22,98.63,61.22,98.63,61.23,98.63C61.22,98.63,61.22,98.63,61.23,98.63
				C61.22,98.63,61.22,98.63,61.23,98.63L61.23,98.63z"/>
		</g>
		<path class="st25" d="M65.04,96.29c-0.18-0.16-0.38-0.26-0.62-0.24c-0.15,0.01-0.3,0.03-0.45,0.07c-0.25,0.05-0.5,0.15-0.72,0.27
			c-0.24,0.13-0.42,0.34-0.48,0.61c-0.43,0.07-0.81,0.35-0.93,0.8c-0.04,0.17-0.06,0.27-0.18,0.4c-0.14,0.14-0.28,0.29-0.26,0.51
			c0.02,0.24,0.27,0.34,0.45,0.19c0.1-0.08,0.25-0.16,0.36-0.26c0.12-0.1,0.21-0.22,0.33-0.33c0.06-0.06,0.12-0.11,0.18-0.17
			c0.02-0.03,0.05-0.05,0.08-0.08c-0.04,0.05-0.02,0.02,0.01,0c0.02,0,0.04,0,0.04,0c0.02,0,0.04,0,0.04,0
			c0.02,0,0.05,0.01,0.08,0.01c0.03,0,0.07,0.01,0.1,0.01c0.28,0.01,0.55-0.1,0.71-0.34c0.05-0.08,0.08-0.17,0.1-0.26
			c0.02,0,0.03-0.01,0.05-0.01c0.04-0.01,0.07-0.02,0.11-0.02c0.01,0,0.02,0,0.02-0.01c0.01,0,0.01,0,0.02,0
			c0.28-0.02,0.58,0.04,0.82-0.14c0.17-0.12,0.28-0.26,0.31-0.47C65.25,96.64,65.19,96.42,65.04,96.29z"/>
		<path class="st25" d="M69.44,96.3c-0.01-0.29-0.17-0.57-0.42-0.71c-0.22-0.13-0.47-0.12-0.72-0.12c-0.36,0-0.74,0.03-1.09,0.12
			c-0.44,0.11-1,0.35-1.12,0.84c-0.02,0.09-0.03,0.18-0.02,0.27c-0.58,0.17-1.04,0.56-1.45,1.01c-0.18,0.2,0.05,0.56,0.31,0.4
			c0.56-0.36,1.09-0.73,1.78-0.66c0.35,0.04,0.7,0.15,1.05,0.19c0.17,0.02,0.35,0.04,0.52,0.03c0.12-0.01,0.23-0.02,0.35-0.05
			c0.04-0.01,0.27-0.04,0.12-0.05c0.47,0.03,0.75-0.47,0.64-0.87C69.43,96.56,69.45,96.43,69.44,96.3z"/>
		<path class="st25" d="M78.27,96.65c-0.19-0.37-0.61-0.58-0.96-0.78c-0.37-0.21-0.76-0.37-1.15-0.53
			c-0.82-0.34-1.69-0.47-2.56-0.26c-0.17,0.04-0.34,0.11-0.48,0.2c-0.08,0.01-0.16,0.02-0.24,0.03c-0.25,0.04-0.51,0.18-0.68,0.36
			c-0.06,0.06-0.08,0.16-0.08,0.25c-0.02,0-0.04-0.01-0.06-0.01c-0.33-0.01-0.61,0.07-0.86,0.29c-0.14,0.12,0.04,0.34,0.19,0.25
			c0.78-0.43,1.11,0.76,1.85,0.63c0.35-0.06,0.52-0.37,0.47-0.71c-0.01-0.04-0.02-0.1-0.04-0.14c0.07,0,0.17-0.01,0.2-0.01
			c0.33,0.05,0.61,0.27,0.93,0.37c0.33,0.1,0.66,0.18,0.99,0.25c0.33,0.07,0.66,0.16,0.98,0.27c0.34,0.11,0.66,0.3,1.03,0.32
			C78.24,97.44,78.45,96.98,78.27,96.65z"/>
		<path class="st25" d="M71.35,97.61c-0.01-0.05-0.04-0.09-0.07-0.12c-0.02-0.02-0.03-0.04-0.05-0.07
			c-0.02-0.02-0.04-0.04-0.06-0.06c-0.04-0.04-0.08-0.07-0.12-0.11s-0.09-0.07-0.14-0.08c-0.03,0-0.06-0.01-0.08-0.01
			c-0.06,0-0.11,0.01-0.16,0.04c-0.04,0.02-0.07,0.05-0.09,0.08c-0.03,0.03-0.05,0.07-0.06,0.11c-0.01,0.04-0.02,0.08-0.01,0.13
			c0,0.04,0.01,0.08,0.04,0.12c0.03,0.05,0.07,0.09,0.11,0.11c0.05,0.03,0.09,0.06,0.14,0.09c0.02,0.02,0.04,0.03,0.07,0.04
			c0.02,0.01,0.05,0.02,0.07,0.04c0.03,0.02,0.07,0.03,0.1,0.03c0.04,0.01,0.07,0.01,0.11,0c0.02-0.01,0.04-0.02,0.07-0.03
			c0.03-0.02,0.06-0.04,0.08-0.07c0.02-0.02,0.03-0.04,0.04-0.06c0.02-0.03,0.03-0.07,0.02-0.11
			C71.35,97.65,71.35,97.63,71.35,97.61z"/>
		<path class="st25" d="M84.66,96.55c-0.2-0.63-0.96-0.75-1.53-0.83c-0.25-0.04-0.53-0.09-0.78-0.08c-0.2,0.01-0.4,0.09-0.54,0.24
			c-0.01,0.01-0.02,0.02-0.03,0.04c-0.01,0-0.02-0.01-0.02-0.01c-0.04-0.02-0.08-0.05-0.13-0.07c-0.21-0.11-0.45-0.19-0.69-0.17
			c-0.49,0.04-0.95,0.38-1.17,0.81c-0.09,0.18,0.07,0.48,0.3,0.39c0.18-0.07,0.34-0.18,0.51-0.26c0.1-0.05,0.28-0.1,0.38-0.04
			c0.11,0.08,0.2,0.25,0.31,0.35c0.2,0.17,0.46,0.27,0.72,0.25c0.15-0.01,0.4-0.07,0.54-0.2c0.09,0.02,0.18,0.05,0.27,0.07
			c0.49,0.15,1.08,0.49,1.58,0.2C84.61,97.11,84.74,96.81,84.66,96.55z"/>
		<path class="st25" d="M99.39,97.87c-0.23-0.22-0.52-0.28-0.83-0.25c-0.16,0.02-0.4,0.1-0.54,0.07c-0.08-0.02-0.19-0.17-0.26-0.25
			c-0.16-0.18-0.35-0.33-0.55-0.47c-0.17-0.12-0.37-0.22-0.57-0.27c-0.21-0.05-0.38-0.02-0.55,0.05c-0.05-0.03-0.1-0.06-0.15-0.09
			c-0.13-0.07-0.27-0.13-0.4-0.19c-0.3-0.13-0.59-0.26-0.91-0.35c-0.6-0.17-1.18-0.19-1.79-0.09c-0.23,0.04-0.23,0.42,0,0.47
			c0.67,0.12,1.34,0.36,1.92,0.73c0.27,0.17,0.45,0.42,0.68,0.64c0.17,0.16,0.4,0.27,0.64,0.27c0.12,0,0.22-0.03,0.33-0.07
			c0.23,0.13,0.49,0.4,0.76,0.53c0.21,0.1,0.41,0.16,0.63,0.2c0.14,0.02,0.26,0.03,0.41,0.01c0.01,0,0.04-0.01,0.05-0.01
			c0,0.14,0.01,0.27,0.06,0.41c0.17,0.43,0.75,0.71,1.11,0.29C99.82,99.03,99.84,98.31,99.39,97.87z"/>
		<g>
			<g>
				<path class="st26" d="M98.2,121.15c6.61,0,13.21,0.13,19.82,0.26c3.26,0.06,6.52,0.13,9.77,0.17c2.88,0.04,5.77,0.11,8.65,0
					c0.8-0.03,1.52-0.19,2.2-0.64c0.69-0.46,1.23-1.08,1.7-1.76c0.96-1.4,1.6-3.03,1.89-4.7c0.07-0.4-0.11-0.81-0.53-0.93
					c-0.36-0.1-0.86,0.12-0.93,0.53c-0.24,1.4-0.72,2.72-1.47,3.93c-0.35,0.57-0.76,1.13-1.29,1.54c-0.5,0.39-1.02,0.51-1.63,0.53
					c-2.8,0.11-5.6,0.03-8.4,0c-6.3-0.08-12.59-0.23-18.89-0.33c-3.63-0.06-7.26-0.1-10.89-0.1
					C97.23,119.64,97.22,121.15,98.2,121.15L98.2,121.15z"/>
			</g>
			<g>
				<path class="st26" d="M15.51,121.63c9.61,0,19.22-0.07,28.84-0.16c9.51-0.09,19.01-0.2,28.52-0.26
					c5.43-0.04,23.54-0.05,28.97-0.05c0.97,0,2.31-1.5,1.34-1.5c-9.63,0-33.29,0.05-42.92,0.14c-9.5,0.09-18.99,0.19-28.49,0.26
					c-5.41,0.04-10.83,0.06-16.24,0.06C14.53,120.12,14.53,121.63,15.51,121.63L15.51,121.63z"/>
			</g>
			<g>
				<path class="st26" d="M101.22,114.35c10.46,0,20.91,0.15,31.37,0.22c2.97,0.02,5.94,0.03,8.92,0.03c0.97,0,0.97-1.51,0-1.51
					c-10.46,0-20.91-0.15-31.37-0.22c-2.97-0.02-5.94-0.03-8.92-0.03C100.25,112.84,100.24,114.35,101.22,114.35L101.22,114.35z"/>
			</g>
			<g>
				<path class="st26" d="M8.27,114.6c11.35,0,22.7-0.04,34.05-0.08c11.24-0.05,22.47-0.1,33.71-0.13
					c6.38-0.02,22.92-0.02,29.3-0.02c0.97,0-0.53-1.55-1.5-1.55c-11.35,0-31.37,0.07-42.72,0.11c-11.24,0.05-22.47,0.1-33.71,0.13
					c-6.38,0.02-12.76,0.03-19.14,0.03C7.3,113.09,7.3,114.6,8.27,114.6L8.27,114.6z"/>
			</g>
			<g>
				<path class="st26" d="M15.53,120.12c-0.76,0.02-1.49-0.17-2.14-0.55c-0.62-0.37-1.11-0.92-1.54-1.49
					c-1.04-1.35-1.98-2.77-2.85-4.24c-0.49-0.84-1.8-0.08-1.3,0.76c0.96,1.62,2.01,3.2,3.19,4.68c1.15,1.45,2.76,2.39,4.65,2.35
					C16.5,121.61,16.5,120.1,15.53,120.12L15.53,120.12z"/>
			</g>
			<g>
				<path class="st26" d="M8.86,114.34c3.64-1.91,7.29-3.83,10.93-5.74c0.86-0.45,0.1-1.76-0.76-1.3
					c-3.64,1.91-7.29,3.83-10.93,5.74C7.23,113.48,8,114.79,8.86,114.34L8.86,114.34z"/>
			</g>
			<g>
				<path class="st26" d="M20.32,107.76c0.76-6.38,1.86-12.72,3.29-18.98c0.1-0.44,0.2-0.89,0.31-1.33
					c0.09-0.35,0.16-0.46,0.51-0.59c0.87-0.31,1.74-0.6,2.62-0.9c0.91-0.31,0.52-1.77-0.4-1.46c-0.81,0.28-1.63,0.56-2.44,0.84
					c-0.74,0.26-1.34,0.56-1.63,1.34c-0.29,0.79-0.41,1.67-0.6,2.49c-0.19,0.84-0.37,1.68-0.54,2.51c-0.71,3.39-1.32,6.8-1.83,10.22
					c-0.29,1.94-0.55,3.89-0.79,5.85c-0.05,0.41,0.38,0.76,0.76,0.76C20.02,108.51,20.27,108.17,20.32,107.76L20.32,107.76z"/>
			</g>
			<g>
				<path class="st26" d="M27.79,85.49c0.47-2.26,0.77-4.55,0.87-6.85c0.02-0.46-0.06-1.04,0.1-1.48c0.15-0.41,0.69-0.68,1.04-0.89
					c0.84-0.5,1.79-0.84,2.77-0.95c0.6-0.07,0.89-0.58,0.65-1.14c-0.31-0.72,0.13-1.7,0.8-2.04c0.45-0.23,1-0.18,1.47-0.36
					c0.65-0.24,1.02-0.72,1.37-1.3c0.39-0.63,0.78-1.27,1.16-1.9c0.35-0.57,0.66-1.19,1.08-1.7c0.75-0.92,2.01-0.96,3.11-1
					c-0.24-0.18-0.49-0.37-0.73-0.55c0.21,0.9,0.42,1.8,0.62,2.71c0.19,0.81,0.32,1.64,1.23,1.87c1.62,0.42,3-0.75,4.5-1.07
					c0.48-0.1,1.12-0.14,1.54,0.17c0.52,0.38,0.39,1.17,0.34,1.72c-0.08,0.93-0.16,1.87-0.24,2.8c-0.06,0.7-0.05,1.46,0.53,1.95
					c0.28,0.24,0.8,0.34,1.07,0c0.57-0.72,1.14-1.43,1.71-2.15c0.2-0.25,0.42-0.64,0.69-0.82c0.27-0.17,0.62-0.06,0.89,0.04
					c0.21,0.07,0.7,0.2,0.83,0.38c0.15,0.22,0.03,0.74,0.01,0.98c-0.05,0.89-0.14,1.77-0.28,2.65c-0.05,0.3,0.02,0.71,0.35,0.85
					c0.62,0.27,1.24,0.54,1.86,0.81c0.17,0.08,0.48,0.16,0.6,0.33s0.07,0.47,0.06,0.66c-0.08,1.42-0.22,2.84-0.33,4.27
					c-0.05,0.69-0.11,1.38-0.16,2.07c-0.05,0.64-0.23,1.42,0.15,1.99c0.16,0.25,0.4,0.39,0.67,0.51c0.2,0.09,0.18,0.03,0.18,0.24
					c0,0.56-0.04,1.08,0.25,1.58c0.48,0.85,1.78,0.09,1.3-0.76c-0.2-0.36,0-0.96-0.1-1.37c-0.07-0.27-0.21-0.52-0.42-0.71
					c-0.11-0.11-0.25-0.18-0.39-0.25c-0.12-0.06-0.27-0.19-0.21,0c-0.09-0.28,0.04-0.74,0.07-1.04c0.03-0.38,0.06-0.75,0.09-1.13
					c0.06-0.75,0.12-1.5,0.17-2.25s0.12-1.5,0.17-2.25c0.05-0.62,0.16-1.28-0.02-1.89c-0.17-0.6-0.63-0.98-1.17-1.23
					c-0.66-0.3-1.34-0.58-2-0.87c0.12,0.28,0.23,0.57,0.35,0.85c0.18-1.19,0.32-2.39,0.35-3.59c0.01-0.5-0.05-0.99-0.38-1.38
					c-0.33-0.4-0.83-0.6-1.3-0.78c-0.98-0.39-2.06-0.42-2.82,0.41c-0.8,0.88-1.5,1.88-2.24,2.8c0.36,0,0.71,0,1.07,0
					c-0.15-0.13-0.12-0.4-0.1-0.7c0.03-0.44,0.08-0.87,0.11-1.31c0.07-0.8,0.2-1.62,0.18-2.43c-0.02-1.52-0.99-2.58-2.5-2.7
					c-1.49-0.13-2.66,0.74-4.04,1.1c-0.27,0.07-0.72,0.2-0.98,0.08c0.03,0.09,0.04,0.09,0.02,0.02s-0.03-0.14-0.05-0.21
					c-0.05-0.21-0.1-0.42-0.15-0.63c-0.21-0.9-0.42-1.8-0.62-2.71c-0.07-0.31-0.41-0.57-0.73-0.55c-1.4,0.05-2.91,0.19-3.96,1.22
					c-0.56,0.54-0.93,1.26-1.33,1.92c-0.45,0.74-0.9,1.48-1.36,2.22c-0.16,0.27-0.29,0.54-0.6,0.65c-0.3,0.11-0.64,0.11-0.95,0.18
					c-0.59,0.14-1.15,0.46-1.54,0.92c-0.85,0.98-1.06,2.28-0.55,3.47c0.22-0.38,0.43-0.76,0.65-1.14c-1.14,0.14-2.24,0.45-3.25,1
					c-0.51,0.27-1.04,0.6-1.45,1.01c-0.44,0.44-0.62,0.98-0.67,1.59c-0.11,1.26-0.11,2.53-0.24,3.8c-0.14,1.31-0.35,2.6-0.62,3.88
					C26.14,86.04,27.59,86.45,27.79,85.49L27.79,85.49z"/>
			</g>
			<g>
				<path class="st26" d="M58.67,90.1c0.73,0.63,1.58,0.29,2.21-0.31c0.67-0.63,1.28-1.33,1.84-2.06c0.54-0.7,0.99-1.44,1.46-2.18
					c0.41-0.64,0.88-1.14,1.56-1.48c1.26-0.63,2.65-0.41,3.79,0.35c0.35,0.23,0.7,0.45,1.1,0.58c0.45,0.14,0.94,0.12,1.4,0.11
					c0.97-0.01,1.98,0.05,2.93-0.13c0.9-0.17,1.71-0.7,2.57-0.98c0.89-0.29,1.81-0.48,2.75-0.54c1.32-0.08,2.96,0.03,3.9,1.1
					c0.23,0.26,0.36,0.59,0.61,0.84c0.35,0.34,0.8,0.41,1.26,0.46c0.96,0.12,1.93,0.29,2.89,0.33c0.87,0.04,1.61-0.39,2.45-0.55
					c0.66-0.12,1.37-0.09,2.02,0.05c0.76,0.17,1.47,0.48,2.11,0.93c0.68,0.48,1.08,1.1,1.56,1.76c0.52,0.73,1.44,0.99,2.07,1.63
					c0.61,0.62,1.01,1.38,1.21,2.22c0.23,0.94,1.68,0.54,1.46-0.4c-0.37-1.56-1.36-2.95-2.73-3.8c-0.34-0.21-0.64-0.32-0.86-0.67
					c-0.23-0.36-0.47-0.7-0.75-1.02c-0.48-0.54-1.06-1-1.69-1.35c-1.3-0.74-2.84-1.08-4.33-0.89c-0.37,0.05-0.74,0.12-1.1,0.23
					c-0.47,0.15-0.9,0.36-1.4,0.33c-0.93-0.04-1.88-0.2-2.8-0.32c-0.12-0.02-0.24,0-0.32-0.08c-0.12-0.11-0.19-0.31-0.29-0.44
					c-0.26-0.35-0.56-0.64-0.91-0.9c-0.59-0.44-1.32-0.71-2.04-0.85c-1.71-0.34-3.55-0.13-5.2,0.37c-0.91,0.28-1.74,0.8-2.66,1.03
					c-0.9,0.22-1.95,0.1-2.87,0.11c-0.41,0.01-0.74,0-1.1-0.2c-0.36-0.21-0.68-0.47-1.05-0.66c-0.68-0.35-1.43-0.53-2.19-0.55
					c-1.78-0.04-3.39,0.82-4.4,2.27c-0.57,0.82-1.04,1.7-1.66,2.49c-0.31,0.39-0.63,0.77-0.98,1.13c-0.19,0.2-0.38,0.4-0.58,0.59
					c-0.05,0.05-0.11,0.12-0.17,0.16c-0.2,0.15-0.19,0.01,0.03,0.2C59.01,88.41,57.93,89.47,58.67,90.1L58.67,90.1z"/>
			</g>
			<g>
				<path class="st26" d="M27.19,86.51c0.29,0.02,0.59,0.04,0.88,0.06c-0.25-0.25-0.5-0.5-0.76-0.76c0.06,3,1.02,5.99,2.79,8.42
					c0.84,1.15,1.86,2.16,3.13,2.83c1.17,0.62,2.47,0.95,3.79,1.04c5.69,0.39,10.16-3.87,12.51-8.67c0.1-0.2,0.2-0.54,0.4-0.67
					c0.27-0.18,0.97-0.05,1.29-0.05c0.88,0.02,1.76,0.08,2.64,0.18c1.83,0.21,3.64,0.64,5.39,1.22c0.92,0.31,1.32-1.15,0.4-1.46
					c-2.96-0.98-6.1-1.49-9.22-1.46c-0.78,0.01-1.38,0.2-1.85,0.85c-0.35,0.49-0.56,1.07-0.85,1.6c-0.62,1.13-1.35,2.2-2.22,3.16
					c-1.7,1.88-3.89,3.3-6.42,3.7c-2.4,0.37-4.99-0.23-6.74-1.97c-2.27-2.25-3.45-5.59-3.52-8.74c-0.01-0.43-0.34-0.73-0.76-0.76
					c-0.29-0.02-0.59-0.04-0.88-0.06C26.22,84.94,26.22,86.45,27.19,86.51L27.19,86.51z"/>
			</g>
			<g>
				<path class="st26" d="M18.97,108.24c1.51,3.01,4.34,5.28,7.59,6.14c0.94,0.25,1.34-1.21,0.4-1.46c-2.9-0.76-5.34-2.77-6.69-5.45
					c-0.18-0.36-0.7-0.47-1.03-0.27C18.87,107.43,18.78,107.88,18.97,108.24L18.97,108.24z"/>
			</g>
			<g>
				<path class="st26" d="M57.66,105.72c5.3-0.15,10.61-0.3,15.91-0.45c5.26-0.15,10.52-0.33,15.77-0.31
					c3.01,0.01,6.01,0.09,9.01,0.29c0.97,0.06,0.97-1.45,0-1.51c-10.55-0.68-21.16-0.08-31.71,0.21c-3,0.08-5.99,0.17-8.99,0.25
					C56.69,104.23,56.69,105.74,57.66,105.72L57.66,105.72z"/>
			</g>
			<g>
				<path class="st26" d="M98.44,105.34c1.3-0.16,2.54-0.5,3.73-1.06c0.2-0.09,0.99-0.61,1.19-0.32c-0.07-0.1-0.1,0.26-0.11,0.3
					c-0.04,0.14-0.07,0.28-0.11,0.42c-0.08,0.34-0.17,0.67-0.25,1.01c-0.61,2.56-1.15,5.15-2.33,7.52c-0.43,0.87,0.87,1.63,1.3,0.76
					c1.4-2.81,1.97-5.87,2.73-8.89c0.18-0.73,0.45-1.5-0.11-2.13c-0.45-0.51-1.15-0.65-1.79-0.51c-0.71,0.15-1.35,0.6-2.03,0.84
					c-0.72,0.26-1.47,0.45-2.22,0.54c-0.4,0.05-0.76,0.31-0.76,0.76C97.69,104.96,98.03,105.39,98.44,105.34L98.44,105.34z"/>
			</g>
			<g>
				<path class="st26" d="M58.06,104.37c-1.02-0.64-2.33-1.5-3.44-0.48c-1.15,1.05-0.15,2.68,0.42,3.73
					c1.31,2.39,2.89,4.62,4.87,6.51c0.7,0.67,1.77-0.39,1.07-1.07c-1.54-1.48-2.84-3.15-3.93-4.98c-0.27-0.45-0.52-0.9-0.77-1.36
					c-0.24-0.44-0.56-0.9-0.65-1.4c-0.18-0.98,1.4,0.18,1.67,0.35C58.12,106.2,58.88,104.89,58.06,104.37L58.06,104.37z"/>
			</g>
			<g>
				<path class="st26" d="M98.29,106.39c-0.19,1.58-0.6,3.13-1.2,4.61c-0.08,0.19,0.08,0.42,0.26,0.46
					c0.22,0.06,0.39-0.07,0.46-0.26c0.63-1.54,1.03-3.16,1.23-4.81c0.02-0.2-0.19-0.38-0.38-0.38
					C98.44,106.01,98.31,106.19,98.29,106.39L98.29,106.39z"/>
			</g>
			<g>
				<path class="st26" d="M57.75,106.67c0.87,1.69,1.99,3.24,3.31,4.6c0.34,0.35,0.87-0.18,0.53-0.53
					c-1.28-1.32-2.35-2.81-3.19-4.45C58.18,105.85,57.53,106.24,57.75,106.67L57.75,106.67z"/>
			</g>
			<g>
				<path class="st26" d="M57.26,91c-0.55,3.8-1.29,7.58-2.2,11.31c-0.12,0.47,0.61,0.67,0.73,0.2c0.91-3.73,1.65-7.51,2.2-11.31
					C58.06,90.72,57.33,90.52,57.26,91L57.26,91z"/>
			</g>
			<g>
				<path class="st26" d="M53.67,107.75c-0.32,1.01-0.74,1.97-1.26,2.89c-0.24,0.42,0.41,0.8,0.65,0.38c0.55-0.97,1-2,1.34-3.07
					c0.06-0.19-0.07-0.41-0.26-0.46C53.94,107.43,53.74,107.55,53.67,107.75L53.67,107.75z"/>
			</g>
			<g>
				<path class="st26" d="M21.78,107.75c0.96,1.43,2.32,2.53,3.92,3.19c0.19,0.08,0.42-0.08,0.46-0.26
					c0.06-0.22-0.07-0.39-0.26-0.46c-1.4-0.58-2.62-1.59-3.46-2.84c-0.11-0.17-0.33-0.24-0.52-0.14
					C21.75,107.33,21.67,107.58,21.78,107.75L21.78,107.75z"/>
			</g>
			<g>
				<path class="st26" d="M26.98,92.03c1,3.27,3.56,5.88,6.71,7.16c3.27,1.33,6.98,0.95,10.07-0.7c1.79-0.96,3.33-2.34,4.51-3.99
					c0.28-0.4-0.37-0.78-0.65-0.38c-1.93,2.74-5.04,4.65-8.38,5.06c-3.17,0.39-6.38-0.69-8.7-2.87c-1.31-1.22-2.3-2.75-2.82-4.47
					C27.57,91.36,26.84,91.56,26.98,92.03L26.98,92.03z"/>
			</g>
			<g>
				<path class="st26" d="M55.11,76.05c-1.4,3.89-2.8,7.77-4.2,11.66c-0.17,0.46,0.56,0.66,0.73,0.2c1.4-3.89,2.8-7.77,4.2-11.66
					C56,75.79,55.27,75.59,55.11,76.05L55.11,76.05z"/>
			</g>
			<g>
				<path class="st26" d="M56.97,79.09c-0.2,0.28-0.53,0.41-0.77,0.65c-0.2,0.21-0.33,0.46-0.42,0.74
					c-0.25,0.79-0.36,1.65-0.53,2.46c-0.36,1.72-0.7,3.45-0.97,5.18c-0.08,0.48,0.65,0.68,0.73,0.2c0.27-1.68,0.59-3.35,0.94-5.01
					c0.16-0.79,0.31-1.59,0.5-2.37c0.09-0.37,0.2-0.61,0.5-0.85c0.25-0.2,0.48-0.36,0.67-0.63C57.9,79.08,57.25,78.7,56.97,79.09
					L56.97,79.09z"/>
			</g>
			<g>
				<path class="st26" d="M50.84,74.53c-0.76,1.57-1.56,3.12-2.39,4.66c-0.43,0.78-0.87,1.55-1.3,2.33
					c-0.4,0.73-0.61,1.45-0.77,2.27c-0.73,3.58-1.46,7.16-2.18,10.74c-0.1,0.47,0.63,0.68,0.73,0.2c0.72-3.52,1.43-7.03,2.15-10.55
					c0.18-0.87,0.37-1.63,0.81-2.41c0.41-0.73,0.82-1.45,1.22-2.19c0.84-1.53,1.63-3.09,2.39-4.66
					C51.71,74.47,51.06,74.09,50.84,74.53L50.84,74.53z"/>
			</g>
			<g>
				<path class="st26" d="M32.72,73.48c-0.04,3.83-0.08,7.67-0.13,11.5c-0.01,0.9-0.06,1.81,0.05,2.71
					c0.05,0.38,0.14,0.76,0.18,1.14c0.05,0.51-0.01,1.02-0.08,1.52c-0.26,1.8-0.32,3.53,0.1,5.32c0.11,0.47,0.84,0.27,0.73-0.2
					c-0.21-0.89-0.31-1.79-0.31-2.71c0.01-0.9,0.17-1.78,0.28-2.67c0.11-0.9-0.05-1.68-0.15-2.56c-0.1-0.9-0.04-1.82-0.03-2.73
					c0.04-3.77,0.08-7.54,0.12-11.31C33.48,73,32.73,73,32.72,73.48L32.72,73.48z"/>
			</g>
			<g>
				<path class="st26" d="M28.9,86.64c0.26-1.13,0.54-2.25,0.86-3.35c0.01-0.04,0.08-0.19,0.02-0.15c0.08-0.07,0.28-0.08,0.38-0.11
					c0.26-0.07,0.52-0.13,0.79-0.18c0.51-0.09,1.02-0.08,1.5,0.1c0.19,0.07,0.41-0.08,0.46-0.26c0.06-0.21-0.07-0.39-0.26-0.46
					c-0.59-0.22-1.22-0.21-1.83-0.11c-0.3,0.05-0.6,0.12-0.9,0.2c-0.28,0.07-0.58,0.14-0.75,0.39c-0.15,0.24-0.2,0.56-0.28,0.83
					c-0.09,0.33-0.18,0.66-0.27,0.99c-0.17,0.63-0.32,1.27-0.47,1.91C28.06,86.91,28.79,87.12,28.9,86.64L28.9,86.64z"/>
			</g>
			<g>
				<path class="st26" d="M34.86,71.98c0.86-0.07,1.72-0.01,2.56,0.21c0.4,0.11,0.8,0.24,1.17,0.42c0.17,0.08,0.32,0.16,0.36,0.35
					c0.05,0.23-0.02,0.54-0.03,0.77c-0.09,1.84-0.19,3.69-0.28,5.53c-0.19,3.71-0.38,7.42-0.56,11.14c-0.11,2.1-0.21,4.21-0.32,6.31
					c-0.02,0.49,0.73,0.48,0.76,0c0.2-4,0.41-8.01,0.61-12.01c0.1-2,0.2-4,0.3-6c0.05-1,0.1-2,0.15-3c0.02-0.47,0.05-0.94,0.07-1.41
					s0.11-0.97,0.05-1.44c-0.1-0.85-1.14-1.12-1.83-1.33c-0.97-0.29-1.99-0.39-3-0.31C34.38,71.26,34.38,72.02,34.86,71.98
					L34.86,71.98z"/>
			</g>
			<g>
				<path class="st26" d="M47.28,82.78c0.05-1.03,0.06-2.06,0.02-3.1c-0.02-0.51-0.03-1.02-0.08-1.53
					c-0.04-0.39-0.15-0.72-0.51-0.92c-0.37-0.2-0.85-0.22-1.26-0.28c-0.52-0.08-1.05-0.14-1.57-0.18c-0.37-0.03-0.8-0.11-1.11,0.14
					s-0.4,0.8-0.53,1.16c-0.67,1.87-1.56,3.74-1.59,5.75c-0.02,1.07-0.08,2.11-0.25,3.17c-0.16,1.03-0.35,2.05-0.49,3.08
					c-0.32,2.37-0.49,4.75-0.65,7.13c-0.03,0.49,0.72,0.48,0.76,0c0.13-1.85,0.26-3.71,0.46-5.55c0.2-1.8,0.56-3.57,0.79-5.36
					c0.12-0.91,0.12-1.82,0.15-2.74c0.03-0.94,0.3-1.77,0.61-2.64c0.3-0.82,0.59-1.64,0.89-2.46c0.08-0.23,0.15-0.46,0.24-0.68
					c0.09-0.23,0.1-0.28,0.36-0.26c0.46,0.03,0.92,0.07,1.38,0.13c0.43,0.05,1.4,0.05,1.57,0.49c0.08,0.21,0.04,0.51,0.05,0.73
					c0.01,0.27,0.03,0.55,0.03,0.82c0.03,1.03,0.02,2.06-0.02,3.1C46.51,83.26,47.26,83.26,47.28,82.78L47.28,82.78z"/>
			</g>
			<g>
				<path class="st26" d="M42.03,80.51c-0.02-0.32-0.04-0.65-0.07-0.97c-0.01-0.16-0.04-0.33-0.13-0.46
					c-0.13-0.19-0.31-0.27-0.53-0.3c-0.66-0.08-1.32-0.11-1.98-0.16c-0.2-0.02-0.39,0.18-0.38,0.38c0.01,0.22,0.17,0.36,0.38,0.38
					c0.57,0.05,1.15,0.09,1.72,0.14c0.07,0.01,0.13,0.01,0.2,0.02c0.02,0,0.03,0,0.01,0s-0.02,0,0.02,0.01
					c-0.02-0.01-0.04-0.01-0.05-0.03c-0.02-0.01-0.04-0.08-0.03-0.05c0,0.03,0.01,0.05,0.02,0.08c-0.01-0.03,0-0.04,0,0
					c0,0.03,0,0.07,0.01,0.1c0.02,0.29,0.04,0.58,0.06,0.87c0.01,0.2,0.16,0.39,0.38,0.38C41.84,80.88,42.04,80.73,42.03,80.51
					L42.03,80.51z"/>
			</g>
			<g>
				<path class="st26" d="M44.45,77.24c0.24-2.05,0.48-4.09,0.72-6.14c0.05-0.44,0-0.93,0.42-1.16s0.86-0.42,1.3-0.59
					c0.92-0.35,1.87-0.59,2.84-0.73c0.48-0.07,0.28-0.8-0.2-0.73c-1.08,0.16-2.13,0.44-3.14,0.85c-0.78,0.32-1.75,0.6-1.88,1.54
					c-0.32,2.31-0.54,4.64-0.82,6.96C43.64,77.72,44.4,77.71,44.45,77.24L44.45,77.24z"/>
			</g>
			<g>
				<path class="st26" d="M49.59,73.64c-0.4,1.49-0.65,3.01-0.76,4.55c-0.03,0.49,0.72,0.48,0.76,0c0.1-1.47,0.35-2.93,0.73-4.35
					C50.44,73.37,49.71,73.17,49.59,73.64L49.59,73.64z"/>
			</g>
			<g>
				<path class="st26" d="M50.04,74.83c-0.47,0.5-0.73,1.17-0.71,1.86c0.01,0.16,0.11,0.33,0.28,0.36c0.15,0.03,0.36-0.02,0.43-0.17
					c0.28-0.67,0.57-1.33,0.85-2c0.08-0.18,0.06-0.41-0.14-0.52c-0.16-0.09-0.43-0.06-0.52,0.14c-0.28,0.67-0.57,1.33-0.85,2
					c0.23,0.06,0.47,0.13,0.7,0.19c0-0.07,0-0.14,0-0.21c0-0.04,0.01-0.07,0.01-0.11c0.01-0.08-0.01,0.06,0-0.03
					c0.03-0.13,0.06-0.26,0.1-0.39c0-0.01,0.04-0.1,0.02-0.06s0.03-0.06,0.03-0.07c0.03-0.06,0.06-0.11,0.09-0.17
					s0.07-0.11,0.11-0.16c-0.05,0.07,0.01-0.01,0.02-0.02c0.03-0.03,0.06-0.06,0.09-0.1c0.13-0.14,0.15-0.39,0-0.53
					C50.43,74.7,50.19,74.68,50.04,74.83L50.04,74.83z"/>
			</g>
			<g>
				<path class="st26" d="M41.94,67.16c0.49,3.85-0.26,7.72-0.03,11.58c0.03,0.48,0.78,0.49,0.76,0c-0.23-3.86,0.53-7.73,0.03-11.58
					C42.63,66.69,41.88,66.68,41.94,67.16L41.94,67.16z"/>
			</g>
			<g>
				<path class="st26" d="M34.28,74.39c0.3,0.1,0.61,0.19,0.92,0.27c0.32,0.08,0.66,0.18,0.99,0.15s0.6-0.19,0.88-0.36
					c0.3-0.18,0.6-0.35,0.9-0.53c0.42-0.25,0.04-0.9-0.38-0.65c-0.27,0.16-0.54,0.32-0.82,0.48c-0.2,0.11-0.41,0.29-0.64,0.31
					c-0.26,0.02-0.54-0.08-0.79-0.14c-0.29-0.07-0.58-0.16-0.86-0.25c-0.19-0.06-0.41,0.07-0.46,0.26
					C33.96,74.13,34.09,74.32,34.28,74.39L34.28,74.39z"/>
			</g>
			<g>
				<path class="st26" d="M42.38,82.62c0.5,0.06,1,0.15,1.51,0.19c0.5,0.04,0.82-0.26,1.05-0.67c0.48-0.87,0.93-1.76,1.36-2.65
					c0.09-0.18,0.05-0.41-0.14-0.52c-0.16-0.1-0.43-0.05-0.52,0.14c-0.39,0.82-0.8,1.62-1.23,2.42c-0.08,0.14-0.15,0.31-0.25,0.44
					c-0.11,0.13-0.24,0.09-0.39,0.07c-0.46-0.06-0.93-0.12-1.39-0.17c-0.2-0.03-0.38,0.19-0.38,0.38
					C42.01,82.47,42.18,82.6,42.38,82.62L42.38,82.62z"/>
			</g>
			<g>
				<path class="st26" d="M51.93,76.1C51.79,76.12,51.93,76.1,51.93,76.1c0,0.02-0.1-0.02-0.01,0.01c0.02,0.01,0.04,0.01,0.06,0.02
					c-0.08-0.01-0.03-0.01,0,0c0.08,0.04,0.16,0.1,0.24,0.16c0.17,0.13,0.34,0.26,0.55,0.32c0.3,0.08,0.57-0.02,0.81-0.2
					c0.28-0.21,0.55-0.41,0.83-0.62c0.16-0.12,0.25-0.33,0.14-0.52c-0.1-0.16-0.35-0.26-0.52-0.14c-0.26,0.2-0.53,0.4-0.79,0.59
					c-0.06,0.04-0.11,0.09-0.17,0.13c-0.01,0.01-0.1,0.04-0.05,0.03c-0.01,0-0.02,0-0.02,0.01c-0.03,0.01-0.03,0.01,0,0
					c0.03,0,0.03-0.01,0,0c-0.01,0-0.02,0-0.02,0c0.01-0.01,0.1,0.02,0.02,0l-0.06-0.02c0,0,0.08,0.04,0,0
					c-0.17-0.09-0.3-0.22-0.46-0.32c-0.23-0.15-0.47-0.2-0.74-0.17c-0.2,0.03-0.32,0.29-0.26,0.46
					C51.54,76.05,51.72,76.13,51.93,76.1L51.93,76.1z"/>
			</g>
			<g>
				<path class="st26" d="M45.67,72.12c0.33,0.02,0.66,0.06,0.99,0.11c0.37,0.06,0.76,0.2,1.11-0.01c0.27-0.17,0.52-0.41,0.75-0.64
					c0.24-0.24,0.46-0.5,0.66-0.78c0.12-0.16,0.03-0.42-0.14-0.52c-0.19-0.11-0.39-0.03-0.52,0.14c-0.16,0.21-0.34,0.41-0.52,0.6
					c-0.1,0.11-0.21,0.21-0.32,0.31c-0.08,0.07-0.18,0.19-0.29,0.23c-0.09,0.04-0.19-0.01-0.28-0.02c-0.15-0.03-0.3-0.05-0.45-0.08
					c-0.32-0.05-0.65-0.09-0.98-0.11c-0.2-0.01-0.38,0.18-0.38,0.38C45.29,71.96,45.47,72.11,45.67,72.12L45.67,72.12z"/>
			</g>
			<g>
				<path class="st26" d="M38.3,69.21c0.48,0.3,0.93,0.64,1.35,1.02c0.12,0.11,0.31,0.15,0.46,0.06c0.4-0.25,0.83-0.45,1.28-0.58
					c0.2-0.06,0.32-0.27,0.26-0.46c-0.05-0.2-0.27-0.32-0.46-0.26c-0.52,0.15-1.01,0.37-1.46,0.65c0.15,0.02,0.31,0.04,0.46,0.06
					c-0.46-0.42-0.97-0.8-1.5-1.14c-0.17-0.11-0.42-0.04-0.52,0.14C38.06,68.87,38.13,69.1,38.3,69.21L38.3,69.21z"/>
			</g>
			<g>
				<path class="st26" d="M29.22,77.96c0.34,0.08,0.68,0.16,1.02,0.24c0.32,0.07,0.68,0.21,1.01,0.12c0.31-0.08,0.6-0.27,0.88-0.41
					c0.31-0.15,0.62-0.31,0.92-0.46c0.18-0.09,0.23-0.35,0.14-0.52c-0.11-0.19-0.33-0.23-0.52-0.14c-0.27,0.13-0.53,0.27-0.8,0.4
					c-0.25,0.12-0.5,0.28-0.76,0.38c-0.11,0.04-0.21,0-0.32-0.02c-0.16-0.04-0.32-0.07-0.48-0.11c-0.29-0.07-0.59-0.14-0.88-0.21
					C28.95,77.12,28.75,77.85,29.22,77.96L29.22,77.96z"/>
			</g>
			<g>
				<path class="st26" d="M61.08,88.63c-0.78,0.51-1.42,1.2-1.83,2.03c-0.35,0.72-0.65,1.66-0.49,2.46c0.17,0.8,0.91,1.13,1.66,0.93
					c0.95-0.26,1.68-1.09,2.46-1.65c0.85-0.61,1.84-1.14,2.92-1.05c0.9,0.08,1.57,0.7,2.23,1.26c0.59,0.5,1.23,0.99,2.03,1.08
					c0.78,0.09,1.49-0.26,2.13-0.67c0.66-0.42,1.39-1.04,2.22-0.95c0.85,0.09,1.52,0.82,2.22,1.24c1.71,1.01,3.3,0.01,5.03-0.37
					c1-0.22,1.77,0.07,2.61,0.6c0.69,0.43,1.4,0.9,2.24,0.94c1.05,0.05,2.06-0.53,3.08-0.71c1.04-0.18,2.12-0.18,3.15-0.02
					c1.15,0.17,2.27,0.51,3.34,0.98c0.51,0.22,1.01,0.48,1.49,0.76c0.46,0.26,0.93,0.65,1.48,0.66c1.01,0.03,1.7-1,1.94-1.87
					c0.27-1,0.12-2.06-0.04-3.06c-0.08-0.48-0.8-0.28-0.73,0.2c0.14,0.87,0.27,1.8,0.04,2.66c-0.11,0.41-0.31,0.82-0.65,1.09
					c-0.52,0.42-0.97,0.08-1.45-0.21c-1.6-0.95-3.37-1.65-5.22-1.93c-0.91-0.14-1.84-0.18-2.76-0.09c-0.9,0.09-1.74,0.34-2.6,0.61
					c-0.49,0.15-0.98,0.26-1.49,0.11c-0.4-0.11-0.75-0.33-1.1-0.54c-0.67-0.41-1.33-0.86-2.13-0.98c-1.69-0.24-3.14,1.04-4.8,0.89
					c-1.57-0.14-2.45-1.93-4.15-1.69c-0.71,0.1-1.31,0.51-1.9,0.89c-0.62,0.4-1.31,0.86-2.09,0.67c-0.7-0.17-1.26-0.74-1.8-1.19
					c-0.57-0.47-1.18-0.91-1.92-1.06c-0.99-0.19-2,0.09-2.87,0.56c-0.95,0.52-1.69,1.32-2.6,1.88c-0.36,0.22-1.01,0.5-1.22-0.04
					c-0.16-0.42,0.02-1.03,0.15-1.44c0.3-0.96,0.95-1.79,1.79-2.34C61.86,89.02,61.49,88.36,61.08,88.63L61.08,88.63z"/>
			</g>
			<g>
				<path class="st26" d="M92.8,84.68c-0.85-0.06-1.76,0.15-2.45,0.67c-0.7,0.54-0.92,1.4-0.57,2.22c0.34,0.79,1.09,1.29,1.79,1.72
					c0.76,0.46,1.6,0.82,2.49,0.94c0.83,0.11,2.24,0,2.17-1.16c-0.03-0.48-0.78-0.49-0.76,0c0.04,0.79-1.66,0.37-2.05,0.25
					c-0.8-0.25-1.59-0.68-2.24-1.2c-0.56-0.43-1.16-1.26-0.62-1.94c0.5-0.63,1.48-0.8,2.23-0.75C93.28,85.47,93.28,84.71,92.8,84.68
					L92.8,84.68z"/>
			</g>
			<g>
				<path class="st26" d="M76.69,83.52c-0.55,0.12-1.12,0.29-1.49,0.75c-0.3,0.38-0.43,0.91-0.21,1.36c0.49,0.97,2.01,1.2,2.96,1.36
					c1.13,0.19,2.29,0.24,3.42,0.04c0.55-0.1,1.09-0.27,1.6-0.51c0.39-0.18,1.12-0.47,0.95-1.02c-0.14-0.46-0.87-0.27-0.73,0.2
					c0.01,0.02,0.01,0.05,0.02,0.07c0.01-0.1,0.03-0.19,0.04-0.29c-0.07,0.13-0.36,0.23-0.49,0.3c-0.19,0.1-0.38,0.18-0.58,0.25
					c-0.37,0.13-0.76,0.23-1.15,0.29c-0.81,0.13-1.64,0.11-2.45,0.01c-0.8-0.1-1.7-0.24-2.42-0.63c-0.35-0.19-0.68-0.45-0.44-0.87
					c0.23-0.4,0.75-0.5,1.16-0.58C77.37,84.15,77.17,83.42,76.69,83.52L76.69,83.52z"/>
			</g>
			<g>
				<path class="st26" d="M68.67,83.88c0.42,0.14,0.83,0.34,1.17,0.62c0.25,0.2,0.54,0.49,0.5,0.84c-0.05,0.37-0.38,0.66-0.65,0.88
					c-0.36,0.3-0.77,0.56-1.18,0.79c-0.43,0.23-0.05,0.89,0.38,0.65c0.5-0.28,0.99-0.6,1.42-0.98c0.4-0.35,0.75-0.8,0.78-1.35
					c0.06-1.15-1.3-1.87-2.22-2.18C68.41,83,68.21,83.73,68.67,83.88L68.67,83.88z"/>
			</g>
			<g>
				<path class="st26" d="M66.17,87.72c-0.49,0.19-1.01,0.22-1.51,0.07c-0.39-0.12-0.9-0.39-0.98-0.84
					c-0.04-0.23,0.08-0.46,0.18-0.65c0.12-0.23,0.25-0.45,0.4-0.66c0.3-0.41,0.67-0.78,1.08-1.07c0.17-0.12,0.24-0.33,0.14-0.52
					c-0.1-0.16-0.35-0.25-0.52-0.14c-0.54,0.38-1.01,0.85-1.39,1.39c-0.37,0.53-0.79,1.23-0.6,1.9c0.18,0.65,0.79,1.08,1.4,1.28
					c0.64,0.22,1.37,0.2,2.01-0.04c0.19-0.07,0.32-0.25,0.26-0.46C66.58,87.8,66.36,87.65,66.17,87.72L66.17,87.72z"/>
			</g>
			<g>
				<path class="st26" d="M87.36,87.98c-0.54-0.08-1.08-0.12-1.62-0.1c-0.46,0.01-0.94,0.05-1.36,0.25
					c-0.74,0.34-1.2,1.33-0.59,2.01c0.3,0.33,0.76,0.45,1.18,0.54c0.48,0.1,0.97,0.16,1.46,0.15c0.5,0,1.01-0.07,1.5-0.19
					c0.44-0.11,0.91-0.26,1.25-0.58c0.35-0.34,0.54-0.89,0.32-1.34c-0.19-0.41-0.68-0.65-1.11-0.5c-0.46,0.15-0.26,0.88,0.2,0.73
					c0.31-0.1,0.26,0.33,0.15,0.49c-0.22,0.3-0.66,0.4-1.01,0.48c-0.84,0.21-1.72,0.22-2.56,0.04c-0.26-0.06-0.77-0.13-0.89-0.42
					c-0.1-0.26,0.13-0.55,0.34-0.68c0.33-0.2,0.75-0.21,1.13-0.22c0.47-0.01,0.95,0.01,1.42,0.07c0.2,0.03,0.4-0.05,0.46-0.26
					C87.67,88.27,87.56,88.01,87.36,87.98L87.36,87.98z"/>
			</g>
			<g>
				<path class="st26" d="M72.46,87.33c-0.65-0.03-1.45,0.1-1.92,0.61c-0.22,0.24-0.35,0.56-0.28,0.88c0.07,0.31,0.32,0.55,0.6,0.67
					c0.62,0.27,1.37,0.26,2.02,0.14c0.58-0.11,1.33-0.36,1.6-0.94c0.16-0.33,0.14-0.69-0.07-0.99c-0.2-0.29-0.57-0.48-0.92-0.35
					c-0.19,0.07-0.32,0.26-0.26,0.46c0.05,0.18,0.27,0.34,0.46,0.26c0.05-0.01,0.06-0.02,0.02-0.02c0.05,0,0.05,0,0.02,0
					c-0.03-0.02,0.04,0.03,0.04,0.04c0.02,0.03,0.06,0.12,0.06,0.14c0,0.14-0.17,0.29-0.31,0.37c-0.47,0.28-1.09,0.36-1.63,0.33
					c-0.23-0.01-0.49-0.04-0.7-0.13c-0.07-0.03-0.16-0.08-0.19-0.13c-0.03-0.06-0.02-0.09,0.02-0.16c0.1-0.17,0.31-0.27,0.49-0.33
					c0.31-0.1,0.62-0.13,0.94-0.12C72.95,88.11,72.95,87.35,72.46,87.33L72.46,87.33z"/>
			</g>
			<g>
				<path class="st26" d="M59.22,92.98c-1.28,0.5-1.69,2.35-0.55,3.23c1.49,1.14,3.26-0.25,4.48-1.09c0.74-0.51,1.55-0.89,2.46-0.61
					c0.75,0.23,1.38,0.76,2.02,1.18c0.59,0.39,1.22,0.73,1.93,0.82c0.91,0.11,1.71-0.3,2.5-0.7c0.94-0.48,1.83-0.71,2.88-0.53
					c1.05,0.18,2.03,0.62,3.02,1c0.43,0.16,0.89,0.39,1.36,0.41c0.46,0.02,0.77-0.21,1.09-0.5c0.76-0.68,1.78-0.48,2.64-0.09
					c0.88,0.39,1.65,0.99,2.56,1.31c0.92,0.33,1.79,0.24,2.66-0.17c0.98-0.45,1.88-0.87,2.97-0.98c0.98-0.09,1.97,0.01,2.93,0.22
					c1.14,0.26,2.21,0.68,3.27,1.17c0.84,0.39,1.83,0.83,2.78,0.59c1.61-0.4,1.85-2.79,0.3-3.45c-0.44-0.19-0.83,0.46-0.38,0.65
					c0.58,0.25,0.85,0.96,0.58,1.54c-0.36,0.77-1.38,0.59-2.03,0.37c-0.84-0.28-1.62-0.72-2.44-1.04c-0.82-0.31-1.66-0.55-2.52-0.7
					c-1.68-0.28-3.41-0.19-4.97,0.53c-0.92,0.42-1.68,0.9-2.72,0.59c-0.85-0.25-1.56-0.79-2.34-1.18c-0.69-0.35-1.48-0.63-2.27-0.59
					c-0.34,0.02-0.67,0.1-0.97,0.25c-0.36,0.18-0.65,0.63-1.04,0.68s-0.89-0.23-1.25-0.36c-0.48-0.18-0.95-0.37-1.43-0.55
					c-0.82-0.3-1.69-0.54-2.57-0.55c-0.85-0.01-1.6,0.26-2.35,0.63c-0.72,0.37-1.48,0.82-2.32,0.65c-1.32-0.26-2.27-1.43-3.51-1.9
					c-0.74-0.28-1.52-0.24-2.25,0.08c-0.84,0.37-1.5,1.02-2.29,1.47c-0.67,0.39-1.83,0.8-2.45,0.09c-0.46-0.53-0.22-1.52,0.43-1.77
					C59.87,93.53,59.67,92.8,59.22,92.98L59.22,92.98z"/>
			</g>
			<g>
				<path class="st26" d="M80.92,98.36c-0.95-1.35-2.28-2.38-3.83-2.96c-0.19-0.07-0.41,0.08-0.46,0.26
					c-0.06,0.21,0.07,0.39,0.26,0.46c1.35,0.5,2.55,1.43,3.38,2.61c0.12,0.17,0.33,0.24,0.52,0.14
					C80.95,98.78,81.04,98.53,80.92,98.36L80.92,98.36z"/>
			</g>
			<g>
				<path class="st26" d="M67.72,94.95c-1.15,0.04-2.11,0.88-2.81,1.72c-0.71,0.85-1.22,1.85-1.48,2.92
					c-0.12,0.47,0.61,0.67,0.73,0.2c0.23-0.92,0.65-1.79,1.25-2.53c0.56-0.69,1.37-1.52,2.32-1.55
					C68.21,95.69,68.21,94.93,67.72,94.95L67.72,94.95z"/>
			</g>
			<g>
				<path class="st26" d="M65.58,96.07c-0.73-0.52-1.71-0.47-2.48-0.07c-0.84,0.44-1.39,1.28-1.79,2.12
					c0.17-0.05,0.34-0.09,0.52-0.14c-1.49-0.71-2.99,0.5-3.53,1.86c-0.27,0.66-0.28,1.44,0.14,2.04c0.4,0.56,1.06,0.87,1.74,0.7
					c0.47-0.12,0.27-0.85-0.2-0.73c-0.41,0.1-0.8-0.16-0.99-0.51c-0.24-0.44-0.12-0.99,0.09-1.41c0.41-0.81,1.39-1.76,2.37-1.29
					c0.17,0.08,0.42,0.06,0.52-0.14c0.31-0.66,0.71-1.34,1.34-1.74c0.58-0.37,1.32-0.44,1.89-0.03C65.59,97,65.97,96.35,65.58,96.07
					L65.58,96.07z"/>
			</g>
			<g>
				<path class="st26" d="M59.56,96.1c-0.43,0.39-0.57,1.03-0.44,1.58c0.07,0.27,0.21,0.54,0.41,0.73c0.12,0.11,0.26,0.17,0.42,0.13
					c0.16-0.05,0.28-0.19,0.3-0.35c0.04-0.33-0.29-0.58-0.59-0.47c-0.19,0.07-0.33,0.26-0.26,0.46c0.06,0.18,0.27,0.33,0.46,0.26
					c0.11-0.03,0.03-0.06-0.25-0.08c-0.03-0.06-0.06-0.11-0.1-0.17c0-0.05,0-0.1,0-0.15c0.03-0.06,0.06-0.11,0.1-0.17
					c0.04-0.02,0.08-0.05,0.13-0.07c0.07,0,0.13,0,0.2,0c-0.01,0-0.01,0-0.02-0.01c0.06,0.03,0.11,0.06,0.17,0.1
					c-0.03-0.03-0.06-0.05-0.08-0.08C60,97.8,59.96,97.74,60,97.79s0-0.01-0.01-0.02c-0.02-0.03-0.04-0.07-0.06-0.1
					c-0.01-0.02-0.02-0.03-0.03-0.05c-0.03-0.06,0.01,0,0.01,0.02c0.01-0.02-0.03-0.09-0.04-0.11c-0.01-0.04-0.02-0.08-0.03-0.11
					c0-0.01-0.01-0.08,0-0.02c0.01,0.07,0-0.01,0-0.02c0-0.04-0.01-0.08-0.01-0.12s0-0.08,0.01-0.12c0-0.01,0.01-0.03,0-0.05
					c0.01,0.08-0.01,0.05,0,0.01c0.01-0.07,0.04-0.14,0.06-0.21c0.01-0.04-0.04,0.08-0.01,0.02c0.01-0.02,0.02-0.03,0.03-0.05
					c0.02-0.03,0.04-0.07,0.06-0.1c0.01-0.01,0.03-0.04,0.03-0.05c0,0.02-0.06,0.06-0.01,0.01c0.03-0.03,0.06-0.06,0.09-0.09
					c0.15-0.13,0.15-0.4,0-0.53C59.94,95.96,59.72,95.96,59.56,96.1L59.56,96.1z"/>
			</g>
			<g>
				<path class="st26" d="M83.72,98.75C83.75,98.67,83.68,98.83,83.72,98.75c0.01-0.03,0.02-0.06,0.04-0.08
					c0.02-0.04,0.04-0.09,0.07-0.13c0.05-0.09,0.1-0.17,0.15-0.25c0.01-0.02,0.03-0.04,0.04-0.05c0.05-0.07-0.04,0.05,0.01-0.01
					c0.03-0.04,0.07-0.08,0.1-0.12c0.07-0.07,0.13-0.14,0.21-0.21c0.04-0.03,0.07-0.06,0.11-0.09c0.05-0.04,0.03-0.01,0,0
					c0.02,0,0.05-0.04,0.06-0.05c0.08-0.06,0.16-0.11,0.25-0.16c0.05-0.03,0.09-0.05,0.14-0.07c0.02-0.01,0.04-0.02,0.06-0.03
					c0.05-0.02,0.03-0.02-0.01,0c0.08-0.05,0.21-0.08,0.3-0.1c0.19-0.05,0.33-0.27,0.26-0.46c-0.06-0.19-0.26-0.32-0.46-0.26
					c-0.94,0.26-1.7,0.97-2.06,1.87c-0.07,0.18,0.08,0.42,0.26,0.46C83.47,99.07,83.64,98.95,83.72,98.75L83.72,98.75z"/>
			</g>
			<g>
				<path class="st26" d="M90.39,96.6c1.09,0.41,1.89,1.44,2.03,2.59c0.04,0.38,0.47,0.51,0.7,0.19c0.36-0.49,0.84-1.17,1.53-1.1
					c0.74,0.08,0.61,0.95,0.47,1.46c-0.09,0.34,0.39,0.68,0.63,0.37c0.3-0.39,0.71-0.7,1.2-0.78c0.76-0.13,0.62,0.53,0.41,1.01
					c-0.14,0.31-0.36,0.7-0.22,1.05c0.15,0.38,0.57,0.35,0.89,0.23c1.52-0.57,2.39-2.25,2.07-3.82c-0.1-0.48-0.83-0.27-0.73,0.2
					c0.13,0.64,0,1.29-0.34,1.84c-0.15,0.25-0.35,0.48-0.58,0.67c-0.15,0.13-0.6,0.49-0.82,0.43c0.08,0.06,0.15,0.12,0.23,0.17
					c-0.01,0.06-0.01,0.05,0.01-0.03c0.02-0.07,0.04-0.13,0.07-0.2c0.06-0.15,0.13-0.29,0.2-0.44c0.09-0.21,0.16-0.41,0.18-0.64
					c0.04-0.45-0.13-0.89-0.54-1.12c-0.87-0.47-2.02,0.19-2.56,0.88c0.21,0.12,0.42,0.24,0.63,0.37c0.25-0.88,0.2-2.07-0.86-2.37
					c-1.12-0.31-1.94,0.62-2.52,1.42c0.23,0.06,0.47,0.13,0.7,0.19c-0.18-1.52-1.15-2.78-2.58-3.32
					C90.14,95.7,89.94,96.43,90.39,96.6L90.39,96.6z"/>
			</g>
			<g>
				<path class="st26" d="M60.66,104.23c-0.48-1.22,0.95-2.05,1.85-2.51c1.13-0.58,2.37-0.92,3.61-1.16
					c2.73-0.53,5.54-0.73,8.31-0.85c5.67-0.25,11.37,0.1,16.96,1.09c1.51,0.27,3.04,0.55,4.53,0.95c1.09,0.29,2.6,0.89,2.74,2.2
					c0.05,0.41,0.31,0.76,0.76,0.76c0.37,0,0.8-0.35,0.76-0.76c-0.36-3.18-3.96-3.74-6.51-4.25c-3.09-0.62-6.22-1.06-9.36-1.32
					c-3.16-0.26-6.34-0.32-9.51-0.19c-3.05,0.12-6.16,0.35-9.16,0.94c-1.55,0.3-3.1,0.78-4.45,1.61c-1.31,0.8-2.63,2.25-1.98,3.9
					c0.15,0.38,0.51,0.64,0.93,0.53C60.49,105.06,60.81,104.61,60.66,104.23L60.66,104.23z"/>
			</g>
			<g>
				<path class="st26" d="M69.76,102.02c0.1,0,0.19,0.01,0.29,0.02c0.04,0,0.09,0.01,0.13,0.01c0.05,0.01,0.05,0.01,0.01,0
					c0.03,0,0.05,0.01,0.08,0.01c0.18,0.03,0.35,0.07,0.52,0.12c0.38,0.11,0.62,0.22,0.96,0.42c0.17,0.1,0.42,0.04,0.52-0.14
					s0.05-0.41-0.14-0.52c-0.72-0.43-1.54-0.66-2.38-0.68c-0.2,0-0.39,0.18-0.38,0.38C69.39,101.85,69.54,102.02,69.76,102.02
					L69.76,102.02z"/>
			</g>
			<g>
				<path class="st26" d="M74.32,102.08c0.23,0.07,0.46,0.14,0.69,0.21c0.09,0.03,0.21,0.01,0.29-0.04s0.15-0.14,0.17-0.23
					c0.02-0.1,0.02-0.21-0.04-0.29c-0.05-0.08-0.13-0.14-0.23-0.17c-0.23-0.07-0.46-0.14-0.69-0.21c-0.09-0.03-0.21-0.01-0.29,0.04
					s-0.15,0.14-0.17,0.23c-0.02,0.1-0.02,0.21,0.04,0.29C74.14,101.99,74.22,102.06,74.32,102.08L74.32,102.08z"/>
			</g>
			<g>
				<path class="st26" d="M87.92,102.37c0.57,0.03,1.15,0.02,1.71-0.05c0.1-0.01,0.19-0.03,0.27-0.11c0.07-0.07,0.11-0.17,0.11-0.27
					c-0.01-0.18-0.17-0.4-0.38-0.38c-0.57,0.07-1.14,0.09-1.71,0.05c-0.2-0.01-0.39,0.18-0.38,0.38
					C87.55,102.21,87.7,102.36,87.92,102.37L87.92,102.37z"/>
			</g>
			<g>
				<path class="st26" d="M64.17,111.54c7.44-0.19,14.88-0.21,22.32-0.07c2.13,0.04,4.25,0.09,6.38,0.16c0.49,0.02,0.49-0.74,0-0.76
					c-7.44-0.23-14.88-0.3-22.32-0.21c-2.13,0.03-4.25,0.07-6.38,0.12C63.69,110.8,63.68,111.56,64.17,111.54L64.17,111.54z"/>
			</g>
			<g>
				<path class="st26" d="M57.88,110.89c-0.59,0.69-1.25,1.31-1.96,1.87c0.05-0.04,0.1-0.08,0.15-0.12
					c-0.15,0.11-0.3,0.23-0.45,0.33c-0.16,0.12-0.29,0.25-0.35,0.45c-0.05,0.18-0.03,0.42,0.08,0.58c0.21,0.32,0.69,0.52,1.03,0.27
					c0.94-0.67,1.81-1.44,2.56-2.32c0.13-0.15,0.22-0.32,0.22-0.53c0-0.19-0.08-0.41-0.22-0.53
					C58.67,110.63,58.16,110.57,57.88,110.89L57.88,110.89z"/>
			</g>
			<path class="st27" d="M138.98,60.73c0,2.5-9.13,4.53-20.39,4.53S98.2,63.23,98.2,60.73"/>
			<path class="st27" d="M120.6,52.45c10.32,0.22,18.38,2.16,18.38,4.51v3.78"/>
			<path class="st27" d="M98.2,60.73v-3.78c0-2.4,8.41-4.37,19.04-4.52"/>
			<path class="st28" d="M137.84,62.62c0,3.13-8.62,6.42-19.26,6.42s-19.26-3.29-19.26-6.42"/>
			<g>
				<path class="st26" d="M98.01,62.57c0.34,0.87,0.35,1.82,0.67,2.69c0.26,0.69,0.73,1.11,1.4,1.41c-0.12-0.22-0.25-0.43-0.37-0.65
					c0.05,1.23,0.09,2.47,0.14,3.7c0.11,2.95,0.23,5.89,0.34,8.84c0.14,3.58,0.27,7.16,0.41,10.74c0.12,3.09,0.24,6.19,0.36,9.28
					c0.06,1.5,0.07,3,0.17,4.5c0,0.02,0,0.04,0,0.07c0.04,0.97,1.55,0.97,1.51,0c-0.05-1.23-0.09-2.47-0.14-3.7
					c-0.11-2.95-0.23-5.89-0.34-8.84c-0.14-3.58-0.27-7.16-0.41-10.74c-0.12-3.09-0.24-6.19-0.36-9.28c-0.06-1.5-0.07-3-0.17-4.5
					c0-0.02,0-0.04,0-0.07c-0.01-0.24-0.13-0.54-0.37-0.65c-0.51-0.22-0.67-0.34-0.82-0.87c-0.21-0.77-0.27-1.57-0.56-2.33
					c-0.15-0.38-0.51-0.64-0.93-0.53C98.18,61.74,97.86,62.19,98.01,62.57L98.01,62.57z"/>
			</g>
			<g>
				<path class="st26" d="M138.16,61.41c-0.29,0.75-0.35,1.55-0.56,2.33c-0.14,0.53-0.31,0.65-0.82,0.87
					c-0.24,0.11-0.36,0.41-0.37,0.65c-0.29,6.77-0.58,13.54-0.87,20.31c-0.3,6.94-0.59,13.89-0.89,20.83
					c-0.04,0.96-0.08,1.91-0.12,2.87c-0.02,0.46-0.04,0.93-0.06,1.39c-0.01,0.34,0.03,0.56-0.2,0.82c-1,1.14-2.77,1.45-4.2,1.52
					c-0.97,0.05-0.97,1.56,0,1.51c1.51-0.07,3.04-0.38,4.34-1.21c0.56-0.36,1.13-0.84,1.42-1.46c0.15-0.32,0.14-0.66,0.15-1.01
					c0.02-0.44,0.04-0.87,0.06-1.31c0.15-3.59,0.31-7.19,0.46-10.78c0.31-7.25,0.62-14.49,0.93-21.74c0.17-3.91,0.33-7.83,0.5-11.74
					c-0.12,0.22-0.25,0.43-0.37,0.65c0.67-0.3,1.14-0.72,1.4-1.41c0.32-0.87,0.34-1.82,0.67-2.69c0.15-0.38-0.16-0.83-0.53-0.93
					C138.66,60.77,138.31,61.03,138.16,61.41L138.16,61.41z"/>
			</g>
			<g>
				<path class="st26" d="M101.97,109.82c0.01,0.11,0.01,0.23,0.01,0.34c-0.01,0.14,0.03-0.11,0-0.03
					c-0.02,0.04-0.02,0.09-0.03,0.14c-0.04,0.16-0.1,0.31-0.15,0.47c-0.14,0.48-0.11,0.96,0.02,1.44c0.25,0.91,0.88,1.77,1.83,2.01
					c0.38,0.1,0.84-0.12,0.93-0.53c0.09-0.39-0.12-0.82-0.53-0.93c-0.04-0.01-0.08-0.02-0.12-0.03c-0.13-0.04-0.01-0.03,0.02,0.01
					c-0.02-0.02-0.22-0.1-0.21-0.12c0,0.01,0.14,0.12,0.02,0.01c-0.03-0.03-0.06-0.06-0.09-0.08c-0.03-0.03-0.06-0.06-0.08-0.09
					c-0.09-0.11-0.03,0.01,0.01,0.01c-0.04-0.01-0.12-0.18-0.14-0.22c-0.04-0.07-0.07-0.17-0.12-0.23c0.05,0.06,0.05,0.12,0.01,0.01
					c-0.01-0.04-0.03-0.08-0.04-0.12c-0.03-0.08-0.05-0.17-0.07-0.25c-0.01-0.03-0.01-0.07-0.02-0.1c-0.03-0.16,0,0.16,0-0.03
					c0-0.09,0.01-0.18,0.01-0.26c0,0.04-0.03,0.16,0,0.06c0.01-0.04,0.02-0.09,0.03-0.13c0.02-0.06,0.04-0.13,0.06-0.19
					c0.12-0.37,0.21-0.76,0.17-1.15s-0.32-0.77-0.76-0.76C102.35,109.08,101.93,109.4,101.97,109.82L101.97,109.82z"/>
			</g>
			<g>
				<path class="st26" d="M102.84,94.77c3.56,2.29,7.69,3.51,11.87,3.97c2.35,0.25,4.72,0.27,7.08,0.13
					c2.14-0.13,4.29-0.33,6.39-0.74c2.19-0.43,4.35-1.15,6.19-2.45c0.39-0.28,0.02-0.93-0.38-0.65c-3.31,2.35-7.62,2.77-11.55,3.05
					c-4.33,0.31-8.74,0.11-12.92-1.11c-2.22-0.65-4.35-1.59-6.29-2.84C102.81,93.85,102.43,94.5,102.84,94.77L102.84,94.77z"/>
			</g>
			<path class="st29" d="M99.8,57.87c0,0,6.67,2.59,18.39,2.35c0,0,13.9,0.07,18.47-2.35"/>
			<path class="st29" d="M121.19,37.69c-0.01,0.06,0,0.11,0,0.17c0.02,0.15,0.05,0.3,0.07,0.45c0.01,0.05,0.02,0.11,0.05,0.15
				c0.03,0.03,0.07,0.05,0.1,0.07c0.25,0.11,0.5,0.22,0.74,0.33c-0.31,0.16-0.64,0.27-0.98,0.33c-0.2,1.97-0.19,3.99-0.27,5.97
				c-0.09,2.01-0.17,4.02-0.26,6.03c-0.05,1.2-0.1,2.4-0.15,3.61c0,0-0.78,1.94-3.42,0.35c-0.14-0.08,0.11-1.82,0.12-1.98
				c0.1-1.58,0.19-3.15,0.29-4.73c0.12-1.97,0.24-3.94,0.36-5.92c0.05-0.89,0.11-1.78,0.16-2.66s0.01-1.84,0.18-2.71
				c-0.31-0.07-0.62-0.19-0.9-0.34c0.32-0.18,0.66-0.32,1.02-0.43c-0.26-0.26-0.49-0.56-0.69-0.88c0.26,0.12,0.51,0.23,0.77,0.35
				c0.09,0.04,0.18,0.08,0.27,0.06c0.07-0.01,0.13-0.05,0.18-0.09c0.08-0.05,0.16-0.11,0.24-0.16c0.04-0.03,0.09-0.06,0.12-0.1
				c0.04-0.06,0.05-0.13,0.06-0.2c0.03-0.26,0.06-0.51,0.09-0.77c0.21,0.16,0.43,0.32,0.69,0.4c0.61,0.18,1.54-0.56,2.08-0.85
				c0.69-0.36,1.38-0.73,2.08-1.09c1.53-0.8,3.05-1.61,4.58-2.41c2.28-1.2,4.56-2.4,6.84-3.6c0,0,2.14,0.7,1.43,2.28
				c-2.5,1.32-5,2.65-7.49,3.97c-2.19,1.16-4.39,2.29-6.52,3.54c0.05,0.29,0.17,0.57,0.35,0.81c-0.28,0.01-0.56,0.01-0.85,0.02
				c-0.22,0.01-0.44,0.01-0.65-0.05c-0.12-0.04-0.24-0.1-0.37-0.11S121.24,37.55,121.19,37.69z"/>
			<g>
				<path class="st8" d="M113.31,104.79c0.69-1.89,0.01-4.49-1.97-5.33c-2.27-0.96-4.24,1.48-5.06,3.29
					c-0.89,1.97-1.29,4.88,0.03,6.76c1.23,1.75,3.79,1.87,5.32,0.44c1.42-1.32,1.6-4.29-0.79-4.61c-2.39-0.33-2.64,2.71-0.93,3.79
					s4.07,0.66,5.56-0.6c0.68-0.57,1.49-1.53,1.36-2.48c-0.12-0.88-1.01-1.38-1.85-1.31c-2.02,0.16-2.8,4.12-0.62,4.58
					c1.17,0.25,2.02-0.7,2.41-1.69c0.37-0.92,0.09-2.43-1.24-1.97c-0.4,0.14-0.62,0.51-0.53,0.93c0.27,1.22,0.99,2.57,2.45,2.33
					c1.48-0.25,2.91-1.41,3.82-2.55c0.66-0.84,1.46-2.44,0.2-3.19c-1.37-0.81-2.75,0.94-3.01,2.12c-0.3,1.39,0.51,2.8,1.96,3
					c1.53,0.22,3.11-0.83,4.22-1.76c0.93-0.78,2.5-2.29,1.49-3.6c-0.96-1.25-2.53-0.08-2.95,1.03c-0.47,1.21-0.25,3.35,1.37,3.51
					c1.98,0.2,2.31-2.02,2.11-3.47c-0.08-0.57-0.91-0.72-1.26-0.33c-1.27,1.38-0.82,3.57,0.84,4.41c1.92,0.98,3.99-0.05,5.24-1.6
					c0.6-0.75-0.46-1.83-1.07-1.07c-0.69,0.85-1.62,1.66-2.79,1.52c-1.03-0.12-2.01-1.26-1.15-2.2c-0.42-0.11-0.84-0.22-1.26-0.33
					c0.05,0.37,0.2,1.29-0.28,1.49c-0.44,0.18-0.44-0.32-0.46-0.58c-0.03-0.43,0.1-0.74,0.26-1.12c0.2-0.2,0.18-0.14-0.06,0.16
					c-0.07,0.08-0.14,0.16-0.21,0.24c-0.73,0.84-2.86,2.76-4.1,2.11c-0.68-0.36-0.58-1.75,0.14-2.07c0.14-0.18,0.15-0.13,0.02,0.14
					c-0.08,0.15-0.17,0.29-0.27,0.43c-0.22,0.3-0.47,0.58-0.74,0.84c-0.53,0.5-1.14,0.91-1.81,1.2c-0.39,0.17-0.62,0.27-0.92-0.08
					c-0.21-0.23-0.26-0.69-0.32-0.99c-0.18,0.31-0.35,0.62-0.53,0.93c-0.01,0.01-0.02,0.01-0.04,0.02c-0.15-0.12-0.3-0.23-0.45-0.35
					c0.23,0.31-0.97,1.81-0.84,0.42c0.02-0.23,0.46-1.41,0.7-0.85c0.13,0.31-0.97,1.15-1.18,1.29c-0.47,0.3-1.02,0.5-1.58,0.56
					c-0.55,0.06-1.16,0-1.65-0.26c-0.25-0.13-0.64-0.38-0.66-0.71c-0.03-0.48,0.35-0.51,0.64-0.34c0.65,0.37,0.23,1.35-0.12,1.77
					c-0.47,0.55-1.22,0.85-1.94,0.74c-2.88-0.45-1.8-5.07-0.83-6.71c0.55-0.93,1.76-2.49,2.98-1.73c1.12,0.7,1.28,2.3,0.87,3.42
					C111.52,105.3,112.98,105.7,113.31,104.79L113.31,104.79z"/>
			</g>
			<g>
				<path class="st8" d="M124.85,110.54c1.01,0.69,2.36,0.88,3.53,0.52c0.38-0.12,0.66-0.53,0.53-0.93
					c-0.12-0.38-0.52-0.65-0.93-0.53c-0.12,0.04-0.24,0.07-0.37,0.09c-0.03,0.01-0.06,0.01-0.09,0.02
					c-0.08,0.01-0.06,0.01,0.06-0.01c-0.06-0.01-0.13,0.01-0.19,0.02c-0.11,0.01-0.22,0.01-0.33,0.01c-0.06,0-0.13-0.01-0.19-0.01
					c-0.03,0-0.06-0.01-0.09-0.01c0.12,0.02,0.14,0.02,0.06,0.01c-0.23-0.04-0.46-0.1-0.69-0.18c-0.03-0.01-0.06-0.02-0.09-0.03
					c0.11,0.05,0.12,0.05,0.05,0.02c-0.06-0.03-0.11-0.05-0.17-0.08c-0.11-0.06-0.22-0.13-0.32-0.2c-0.33-0.22-0.85-0.07-1.03,0.27
					C124.38,109.89,124.5,110.3,124.85,110.54L124.85,110.54z"/>
			</g>
			<g>
				<path class="st26" d="M119.6,35.01c0.4,0.63,0.98,1.11,1.68,1.38c0.6,0.23,1.38,0.31,1.8,0.85c0.15,0.19,0.47,0,0.33-0.19
					c-0.43-0.56-1.1-0.71-1.74-0.92c-0.72-0.23-1.33-0.66-1.74-1.3C119.79,34.62,119.47,34.81,119.6,35.01L119.6,35.01z"/>
			</g>
			<g>
				<path class="st26" d="M118,37.04c0.32,0.16,0.51,0.46,0.76,0.71c0.24,0.25,0.54,0.46,0.85,0.62c0.64,0.33,1.35,0.49,2.05,0.63
					c0.24,0.05,0.34-0.31,0.1-0.36c-0.69-0.14-1.39-0.29-2.01-0.62c-0.3-0.16-0.57-0.36-0.8-0.61c-0.23-0.26-0.44-0.53-0.76-0.69
					C117.98,36.61,117.78,36.93,118,37.04L118,37.04z"/>
			</g>
			<g>
				<path class="st26" d="M117.98,39.71c0.9,0.77,2.22,0.93,3.28,0.39c0.22-0.11,0.03-0.44-0.19-0.33c-0.9,0.46-2.05,0.33-2.82-0.33
					C118.06,39.29,117.8,39.55,117.98,39.71L117.98,39.71z"/>
			</g>
			<g>
				<path class="st26" d="M117.95,41.74c-0.01,0.16,0,0.33,0.1,0.46c0.1,0.14,0.26,0.2,0.42,0.25c0.3,0.1,0.63,0.15,0.95,0.15
					c0.65,0,1.3-0.21,1.82-0.6c0.19-0.14,0-0.47-0.19-0.33c-0.42,0.32-0.92,0.51-1.44,0.55c-0.26,0.02-0.51,0-0.76-0.06
					c-0.12-0.03-0.24-0.06-0.36-0.11c-0.16-0.07-0.16-0.16-0.15-0.31C118.34,41.5,117.96,41.5,117.95,41.74L117.95,41.74z"/>
			</g>
			<g>
				<path class="st26" d="M121.84,34.71c0.89-0.09,1.8,0.47,2.09,1.33c0.08,0.23,0.44,0.13,0.36-0.1c-0.34-1.01-1.39-1.71-2.46-1.61
					c-0.1,0.01-0.19,0.08-0.19,0.19C121.65,34.62,121.74,34.72,121.84,34.71L121.84,34.71z"/>
			</g>
		</g>
		<g>
			<path class="st26" d="M141.66,113.2c-1.79-2.04-3.79-3.88-5.94-5.54c-0.32-0.25-0.85-0.05-1.03,0.27
				c-0.23,0.39-0.05,0.78,0.27,1.03c2.05,1.57,3.93,3.36,5.63,5.3c0.27,0.31,0.79,0.28,1.07,0
				C141.97,113.97,141.93,113.51,141.66,113.2L141.66,113.2z"/>
		</g>
	</g>
</g>
</svg>
